<?xml version="1.0" encoding="UTF-8" standalone="no"?>
<!DOCTYPE svg PUBLIC "-//W3C//DTD SVG 1.1//EN"
 "http://www.w3.org/Graphics/SVG/1.1/DTD/svg11.dtd">
<!-- Generated by graphviz version 7.0.1 (0)
 -->
<!-- Title: libexif Pages: 1 -->
<svg width="282pt" height="114pt"
 viewBox="0.00 0.00 282.00 114.00" xmlns="http://www.w3.org/2000/svg" xmlns:xlink="http://www.w3.org/1999/xlink">
<g id="graph0" class="graph" transform="scale(1 1) rotate(0) translate(4 110)">
<title>libexif</title>
<g id="clust1" class="cluster">
<title>clusterdir_04d2bd150f7cc849eeec70b9b0fdccb1</title>
<g id="a_clust1"><a xlink:href="dir_04d2bd150f7cc849eeec70b9b0fdccb1.html" target="_top">
<polygon fill="#edf0f7" stroke="#404040" stroke-width="2" points="8,-8 8,-98 266,-98 266,-8 8,-8"/>
</a>
</g>
</g>
<!-- dir_04d2bd150f7cc849eeec70b9b0fdccb1 -->
<g id="node1" class="node">
<title>dir_04d2bd150f7cc849eeec70b9b0fdccb1</title>
<text text-anchor="middle" x="145" y="-78" font-family="Helvetica,sans-Serif" font-size="10.00">libexif</text>
</g>
<!-- dir_b6de13befc33e2c50aecd329a9523b2a -->
<g id="node3" class="node">
<title>dir_b6de13befc33e2c50aecd329a9523b2a</title>
<g id="a_node3"><a xlink:href="dir_b6de13befc33e2c50aecd329a9523b2a.html" target="_top" xlink:title="canon">
<polygon fill="#a2b4d6" stroke="#404040" points="62,-35 16,-35 16,-16 62,-16 62,-35"/>
<text text-anchor="middle" x="39" y="-23" font-family="Helvetica,sans-Serif" font-size="10.00">canon</text>
</a>
</g>
</g>
<!-- dir_04d2bd150f7cc849eeec70b9b0fdccb1&#45;&gt;dir_b6de13befc33e2c50aecd329a9523b2a -->
<g id="edge4" class="edge">
<title>dir_04d2bd150f7cc849eeec70b9b0fdccb1&#45;&gt;dir_b6de13befc33e2c50aecd329a9523b2a</title>
<path fill="none" stroke="#63b8ff" d="M128.44,-71.22C112.03,-63.01 86.59,-50.29 67.03,-40.51"/>
<polygon fill="#63b8ff" stroke="#63b8ff" points="68.72,-37.45 58.22,-36.11 65.59,-43.71 68.72,-37.45"/>
<g id="a_edge4&#45;headlabel"><a xlink:href="dir_000003_000001.html" target="_top" xlink:title="1">
<text text-anchor="middle" x="71.86" y="-33.34" font-family="Helvetica,sans-Serif" font-size="10.00" fill="#63b8ff">1</text>
</a>
</g>
</g>
<!-- dir_11a6da4a19ece58da0b991b2722dc365 -->
<g id="node4" class="node">
<title>dir_11a6da4a19ece58da0b991b2722dc365</title>
<g id="a_node4"><a xlink:href="dir_11a6da4a19ece58da0b991b2722dc365.html" target="_top" xlink:title="fuji">
<polygon fill="#a2b4d6" stroke="#404040" points="112,-35 80,-35 80,-16 112,-16 112,-35"/>
<text text-anchor="middle" x="96" y="-23" font-family="Helvetica,sans-Serif" font-size="10.00">fuji</text>
</a>
</g>
</g>
<!-- dir_04d2bd150f7cc849eeec70b9b0fdccb1&#45;&gt;dir_11a6da4a19ece58da0b991b2722dc365 -->
<g id="edge1" class="edge">
<title>dir_04d2bd150f7cc849eeec70b9b0fdccb1&#45;&gt;dir_11a6da4a19ece58da0b991b2722dc365</title>
<path fill="none" stroke="#63b8ff" d="M137.34,-71.22C130.49,-63.81 120.23,-52.71 111.64,-43.42"/>
<polygon fill="#63b8ff" stroke="#63b8ff" points="114.48,-41.33 105.12,-36.36 109.34,-46.08 114.48,-41.33"/>
<g id="a_edge1&#45;headlabel"><a xlink:href="dir_000003_000002.html" target="_top" xlink:title="1">
<text text-anchor="middle" x="117.97" y="-38.43" font-family="Helvetica,sans-Serif" font-size="10.00" fill="#63b8ff">1</text>
</a>
</g>
</g>
<!-- dir_2b921c66d4d17efa85fc22450c8302ea -->
<g id="node5" class="node">
<title>dir_2b921c66d4d17efa85fc22450c8302ea</title>
<g id="a_node5"><a xlink:href="dir_2b921c66d4d17efa85fc22450c8302ea.html" target="_top" xlink:title="olympus">
<polygon fill="#a2b4d6" stroke="#404040" points="189.5,-35 130.5,-35 130.5,-16 189.5,-16 189.5,-35"/>
<text text-anchor="middle" x="160" y="-23" font-family="Helvetica,sans-Serif" font-size="10.00">olympus</text>
</a>
</g>
</g>
<!-- dir_04d2bd150f7cc849eeec70b9b0fdccb1&#45;&gt;dir_2b921c66d4d17efa85fc22450c8302ea -->
<g id="edge2" class="edge">
<title>dir_04d2bd150f7cc849eeec70b9b0fdccb1&#45;&gt;dir_2b921c66d4d17efa85fc22450c8302ea</title>
<path fill="none" stroke="#63b8ff" d="M147.34,-71.22C149.25,-64.49 152.01,-54.73 154.47,-46.05"/>
<polygon fill="#63b8ff" stroke="#63b8ff" points="157.76,-47.28 157.11,-36.71 151.02,-45.38 157.76,-47.28"/>
<g id="a_edge2&#45;headlabel"><a xlink:href="dir_000003_000005.html" target="_top" xlink:title="1">
<text text-anchor="middle" x="159.92" y="-47.56" font-family="Helvetica,sans-Serif" font-size="10.00" fill="#63b8ff">1</text>
</a>
</g>
</g>
<!-- dir_9310f900f672fe6b23fafdbbfbee09cc -->
<g id="node6" class="node">
<title>dir_9310f900f672fe6b23fafdbbfbee09cc</title>
<g id="a_node6"><a xlink:href="dir_9310f900f672fe6b23fafdbbfbee09cc.html" target="_top" xlink:title="pentax">
<polygon fill="#a2b4d6" stroke="#404040" points="258,-35 208,-35 208,-16 258,-16 258,-35"/>
<text text-anchor="middle" x="233" y="-23" font-family="Helvetica,sans-Serif" font-size="10.00">pentax</text>
</a>
</g>
</g>
<!-- dir_04d2bd150f7cc849eeec70b9b0fdccb1&#45;&gt;dir_9310f900f672fe6b23fafdbbfbee09cc -->
<g id="edge3" class="edge">
<title>dir_04d2bd150f7cc849eeec70b9b0fdccb1&#45;&gt;dir_9310f900f672fe6b23fafdbbfbee09cc</title>
<path fill="none" stroke="#63b8ff" d="M158.75,-71.22C171.99,-63.24 192.33,-51 208.37,-41.34"/>
<polygon fill="#63b8ff" stroke="#63b8ff" points="210.11,-44.37 216.87,-36.21 206.5,-38.37 210.11,-44.37"/>
<g id="a_edge3&#45;headlabel"><a xlink:href="dir_000003_000006.html" target="_top" xlink:title="1">
<text text-anchor="middle" x="209.8" y="-45.38" font-family="Helvetica,sans-Serif" font-size="10.00" fill="#63b8ff">1</text>
</a>
</g>
</g>
<!-- dir_3b8082e506edb5f4d59bc4a8f7dfd30a -->
<g id="node2" class="node">
<title>dir_3b8082e506edb5f4d59bc4a8f7dfd30a</title>
<g id="a_node2"><a xlink:href="dir_3b8082e506edb5f4d59bc4a8f7dfd30a.html" target="_top" xlink:title="apple">
<polygon fill="#a2b4d6" stroke="#404040" points="89,-90 45,-90 45,-71 89,-71 89,-90"/>
<text text-anchor="middle" x="67" y="-78" font-family="Helvetica,sans-Serif" font-size="10.00">apple</text>
</a>
</g>
</g>
</g>
</svg>
