<?xml version="1.0" encoding="UTF-8" standalone="no"?>
<!DOCTYPE svg PUBLIC "-//W3C//DTD SVG 1.1//EN"
 "http://www.w3.org/Graphics/SVG/1.1/DTD/svg11.dtd">
<!-- Generated by graphviz version 2.44.1 (0)
 -->
<!-- Title: libexif Pages: 1 -->
<svg width="388pt" height="148pt"
 viewBox="0.00 0.00 388.00 148.00" xmlns="http://www.w3.org/2000/svg" xmlns:xlink="http://www.w3.org/1999/xlink">
<g id="graph0" class="graph" transform="scale(1 1) rotate(0) translate(4 144)">
<title>libexif</title>
<polygon fill="white" stroke="transparent" points="-4,4 -4,-144 384,-144 384,4 -4,4"/>
<g id="clust1" class="cluster">
<title>clusterdir_04d2bd150f7cc849eeec70b9b0fdccb1</title>
<g id="a_clust1"><a xlink:href="dir_04d2bd150f7cc849eeec70b9b0fdccb1.html" target="_top">
<polygon fill="#eeeeff" stroke="black" points="8,-8 8,-132 372,-132 372,-8 8,-8"/>
</a>
</g>
</g>
<!-- dir_04d2bd150f7cc849eeec70b9b0fdccb1 -->
<g id="node1" class="node">
<title>dir_04d2bd150f7cc849eeec70b9b0fdccb1</title>
<text text-anchor="middle" x="187" y="-103.5" font-family="Helvetica,sans-Serif" font-size="10.00">libexif</text>
</g>
<!-- dir_3b8082e506edb5f4d59bc4a8f7dfd30a -->
<g id="node2" class="node">
<title>dir_3b8082e506edb5f4d59bc4a8f7dfd30a</title>
<g id="a_node2"><a xlink:href="dir_3b8082e506edb5f4d59bc4a8f7dfd30a.html" target="_top" xlink:title="apple">
<polygon fill="white" stroke="black" points="70,-52 16,-52 16,-16 70,-16 70,-52"/>
<text text-anchor="middle" x="43" y="-31.5" font-family="Helvetica,sans-Serif" font-size="10.00">apple</text>
</a>
</g>
</g>
<!-- dir_04d2bd150f7cc849eeec70b9b0fdccb1&#45;&gt;dir_3b8082e506edb5f4d59bc4a8f7dfd30a -->
<g id="edge3" class="edge">
<title>dir_04d2bd150f7cc849eeec70b9b0fdccb1&#45;&gt;dir_3b8082e506edb5f4d59bc4a8f7dfd30a</title>
<path fill="none" stroke="black" d="M159.91,-91.83C137.23,-80.81 104.64,-64.97 79.63,-52.81"/>
<polygon fill="black" stroke="black" points="80.98,-49.57 70.45,-48.35 77.92,-55.87 80.98,-49.57"/>
<g id="a_edge3&#45;headlabel"><a xlink:href="dir_000000_000001.html" target="_top" xlink:title="1">
<text text-anchor="middle" x="85.45" y="-46.09" font-family="Helvetica,sans-Serif" font-size="10.00">1</text>
</a>
</g>
</g>
<!-- dir_b6de13befc33e2c50aecd329a9523b2a -->
<g id="node3" class="node">
<title>dir_b6de13befc33e2c50aecd329a9523b2a</title>
<g id="a_node3"><a xlink:href="dir_b6de13befc33e2c50aecd329a9523b2a.html" target="_top" xlink:title="canon">
<polygon fill="white" stroke="black" points="142,-52 88,-52 88,-16 142,-16 142,-52"/>
<text text-anchor="middle" x="115" y="-31.5" font-family="Helvetica,sans-Serif" font-size="10.00">canon</text>
</a>
</g>
</g>
<!-- dir_04d2bd150f7cc849eeec70b9b0fdccb1&#45;&gt;dir_b6de13befc33e2c50aecd329a9523b2a -->
<g id="edge5" class="edge">
<title>dir_04d2bd150f7cc849eeec70b9b0fdccb1&#45;&gt;dir_b6de13befc33e2c50aecd329a9523b2a</title>
<path fill="none" stroke="black" d="M169.2,-87.7C160.4,-79.14 149.62,-68.66 140,-59.3"/>
<polygon fill="black" stroke="black" points="142.2,-56.57 132.59,-52.1 137.32,-61.58 142.2,-56.57"/>
<g id="a_edge5&#45;headlabel"><a xlink:href="dir_000000_000002.html" target="_top" xlink:title="1">
<text text-anchor="middle" x="146.76" y="-54.54" font-family="Helvetica,sans-Serif" font-size="10.00">1</text>
</a>
</g>
</g>
<!-- dir_11a6da4a19ece58da0b991b2722dc365 -->
<g id="node4" class="node">
<title>dir_11a6da4a19ece58da0b991b2722dc365</title>
<g id="a_node4"><a xlink:href="dir_11a6da4a19ece58da0b991b2722dc365.html" target="_top" xlink:title="fuji">
<polygon fill="white" stroke="black" points="214,-52 160,-52 160,-16 214,-16 214,-52"/>
<text text-anchor="middle" x="187" y="-31.5" font-family="Helvetica,sans-Serif" font-size="10.00">fuji</text>
</a>
</g>
</g>
<!-- dir_04d2bd150f7cc849eeec70b9b0fdccb1&#45;&gt;dir_11a6da4a19ece58da0b991b2722dc365 -->
<g id="edge1" class="edge">
<title>dir_04d2bd150f7cc849eeec70b9b0fdccb1&#45;&gt;dir_11a6da4a19ece58da0b991b2722dc365</title>
<path fill="none" stroke="black" d="M187,-87.7C187,-79.98 187,-70.71 187,-62.11"/>
<polygon fill="black" stroke="black" points="190.5,-62.1 187,-52.1 183.5,-62.1 190.5,-62.1"/>
<g id="a_edge1&#45;headlabel"><a xlink:href="dir_000000_000003.html" target="_top" xlink:title="1">
<text text-anchor="middle" x="193.34" y="-63.2" font-family="Helvetica,sans-Serif" font-size="10.00">1</text>
</a>
</g>
</g>
<!-- dir_2b921c66d4d17efa85fc22450c8302ea -->
<g id="node5" class="node">
<title>dir_2b921c66d4d17efa85fc22450c8302ea</title>
<g id="a_node5"><a xlink:href="dir_2b921c66d4d17efa85fc22450c8302ea.html" target="_top" xlink:title="olympus">
<polygon fill="white" stroke="black" points="291.5,-52 232.5,-52 232.5,-16 291.5,-16 291.5,-52"/>
<text text-anchor="middle" x="262" y="-31.5" font-family="Helvetica,sans-Serif" font-size="10.00">olympus</text>
</a>
</g>
</g>
<!-- dir_04d2bd150f7cc849eeec70b9b0fdccb1&#45;&gt;dir_2b921c66d4d17efa85fc22450c8302ea -->
<g id="edge2" class="edge">
<title>dir_04d2bd150f7cc849eeec70b9b0fdccb1&#45;&gt;dir_2b921c66d4d17efa85fc22450c8302ea</title>
<path fill="none" stroke="black" d="M205.54,-87.7C214.8,-79.05 226.16,-68.45 236.26,-59.03"/>
<polygon fill="black" stroke="black" points="238.75,-61.49 243.67,-52.1 233.98,-56.37 238.75,-61.49"/>
<g id="a_edge2&#45;headlabel"><a xlink:href="dir_000000_000004.html" target="_top" xlink:title="1">
<text text-anchor="middle" x="238.06" y="-63.51" font-family="Helvetica,sans-Serif" font-size="10.00">1</text>
</a>
</g>
</g>
<!-- dir_9310f900f672fe6b23fafdbbfbee09cc -->
<g id="node6" class="node">
<title>dir_9310f900f672fe6b23fafdbbfbee09cc</title>
<g id="a_node6"><a xlink:href="dir_9310f900f672fe6b23fafdbbfbee09cc.html" target="_top" xlink:title="pentax">
<polygon fill="white" stroke="black" points="364,-52 310,-52 310,-16 364,-16 364,-52"/>
<text text-anchor="middle" x="337" y="-31.5" font-family="Helvetica,sans-Serif" font-size="10.00">pentax</text>
</a>
</g>
</g>
<!-- dir_04d2bd150f7cc849eeec70b9b0fdccb1&#45;&gt;dir_9310f900f672fe6b23fafdbbfbee09cc -->
<g id="edge4" class="edge">
<title>dir_04d2bd150f7cc849eeec70b9b0fdccb1&#45;&gt;dir_9310f900f672fe6b23fafdbbfbee09cc</title>
<path fill="none" stroke="black" d="M214.2,-92.41C235.41,-82.58 265.84,-68.45 300.49,-52.23"/>
<polygon fill="black" stroke="black" points="302.31,-55.24 309.88,-47.83 299.34,-48.9 302.31,-55.24"/>
<g id="a_edge4&#45;headlabel"><a xlink:href="dir_000000_000005.html" target="_top" xlink:title="1">
<text text-anchor="middle" x="300.26" y="-56.84" font-family="Helvetica,sans-Serif" font-size="10.00">1</text>
</a>
</g>
</g>
</g>
</svg>
