<?xml version="1.0" encoding="UTF-8" standalone="no"?>
<!DOCTYPE svg PUBLIC "-//W3C//DTD SVG 1.1//EN"
 "http://www.w3.org/Graphics/SVG/1.1/DTD/svg11.dtd">
<!-- Generated by graphviz version 2.44.1 (0)
 -->
<!-- Title: exif_mnote_data_olympus_get_title Pages: 1 -->
<svg width="327pt" height="39pt"
 viewBox="0.00 0.00 327.00 39.00" xmlns="http://www.w3.org/2000/svg" xmlns:xlink="http://www.w3.org/1999/xlink">
<g id="graph0" class="graph" transform="scale(1 1) rotate(0) translate(4 35)">
<title>exif_mnote_data_olympus_get_title</title>
<polygon fill="white" stroke="transparent" points="-4,4 -4,-35 323,-35 323,4 -4,4"/>
<!-- Node1 -->
<g id="node1" class="node">
<title>Node1</title>
<g id="a_node1"><a xlink:title=" ">
<polygon fill="#bfbfbf" stroke="black" points="0,-0.5 0,-30.5 146,-30.5 146,-0.5 0,-0.5"/>
<text text-anchor="start" x="8" y="-18.5" font-family="Helvetica,sans-Serif" font-size="10.00">exif_mnote_data_olympus</text>
<text text-anchor="middle" x="73" y="-7.5" font-family="Helvetica,sans-Serif" font-size="10.00">_get_title</text>
</a>
</g>
</g>
<!-- Node2 -->
<g id="node2" class="node">
<title>Node2</title>
<g id="a_node2"><a xlink:href="mnote-olympus-tag_8c.html#a8127c365ca03c71eac9af757e68a575f" target="_top" xlink:title="Return a textual title of the given tag within the Olympus&#45;style MakerNote.">
<polygon fill="white" stroke="black" points="182,-0.5 182,-30.5 319,-30.5 319,-0.5 182,-0.5"/>
<text text-anchor="start" x="190" y="-18.5" font-family="Helvetica,sans-Serif" font-size="10.00">mnote_olympus_tag_get</text>
<text text-anchor="middle" x="250.5" y="-7.5" font-family="Helvetica,sans-Serif" font-size="10.00">_title</text>
</a>
</g>
</g>
<!-- Node1&#45;&gt;Node2 -->
<g id="edge1" class="edge">
<title>Node1&#45;&gt;Node2</title>
<path fill="none" stroke="midnightblue" d="M146.14,-15.5C154.54,-15.5 163.14,-15.5 171.62,-15.5"/>
<polygon fill="midnightblue" stroke="midnightblue" points="171.87,-19 181.87,-15.5 171.87,-12 171.87,-19"/>
</g>
</g>
</svg>
