<?xml version="1.0" encoding="UTF-8" standalone="no"?>
<!DOCTYPE svg PUBLIC "-//W3C//DTD SVG 1.1//EN"
 "http://www.w3.org/Graphics/SVG/1.1/DTD/svg11.dtd">
<!-- Generated by graphviz version 7.0.1 (0)
 -->
<!-- Title: exif_entry_free Pages: 1 -->
<svg width="359pt" height="46pt"
 viewBox="0.00 0.00 359.00 46.00" xmlns="http://www.w3.org/2000/svg" xmlns:xlink="http://www.w3.org/1999/xlink">
<g id="graph0" class="graph" transform="scale(1 1) rotate(0) translate(4 42)">
<title>exif_entry_free</title>
<!-- Node1 -->
<g id="Node000001" class="node">
<title>Node1</title>
<g id="a_Node000001"><a xlink:title="Actually free the ExifEntry.">
<polygon fill="#999999" stroke="#666666" points="91,-38 0,-38 0,-19 91,-19 91,-38"/>
<text text-anchor="middle" x="45.5" y="-26" font-family="Helvetica,sans-Serif" font-size="10.00">exif_entry_free</text>
</a>
</g>
</g>
<!-- Node2 -->
<g id="Node000002" class="node">
<title>Node2</title>
<g id="a_Node000002"><a xlink:href="exif-mem_8c.html#a43190b81b4b4bdb4ffb89bfb612051b1" target="_top" xlink:title=" ">
<polygon fill="white" stroke="#666666" points="351,-38 260,-38 260,-19 351,-19 351,-38"/>
<text text-anchor="middle" x="305.5" y="-26" font-family="Helvetica,sans-Serif" font-size="10.00">exif_mem_free</text>
</a>
</g>
</g>
<!-- Node1&#45;&gt;Node2 -->
<g id="edge1_Node000001_Node000002" class="edge">
<title>Node1&#45;&gt;Node2</title>
<g id="a_edge1_Node000001_Node000002"><a xlink:title=" ">
<path fill="none" stroke="#63b8ff" d="M91.44,-28.5C135.05,-28.5 201.37,-28.5 248.42,-28.5"/>
<polygon fill="#63b8ff" stroke="#63b8ff" points="248.13,-32 258.13,-28.5 248.13,-25 248.13,-32"/>
</a>
</g>
</g>
<!-- Node3 -->
<g id="Node000003" class="node">
<title>Node3</title>
<g id="a_Node000003"><a xlink:href="exif-mem_8c.html#a66744e0987af08c443df247ce55f7d87" target="_top" xlink:title="Unrefcount an ExifMem.">
<polygon fill="white" stroke="#666666" points="224,-19 127,-19 127,0 224,0 224,-19"/>
<text text-anchor="middle" x="175.5" y="-7" font-family="Helvetica,sans-Serif" font-size="10.00">exif_mem_unref</text>
</a>
</g>
</g>
<!-- Node1&#45;&gt;Node3 -->
<g id="edge2_Node000001_Node000003" class="edge">
<title>Node1&#45;&gt;Node3</title>
<g id="a_edge2_Node000001_Node000003"><a xlink:title=" ">
<path fill="none" stroke="#63b8ff" d="M91.27,-21.85C99.2,-20.68 107.56,-19.44 115.81,-18.21"/>
<polygon fill="#63b8ff" stroke="#63b8ff" points="116.05,-21.71 125.43,-16.78 115.03,-14.79 116.05,-21.71"/>
</a>
</g>
</g>
<!-- Node3&#45;&gt;Node2 -->
<g id="edge3_Node000003_Node000002" class="edge">
<title>Node3&#45;&gt;Node2</title>
<g id="a_edge3_Node000003_Node000002"><a xlink:title=" ">
<path fill="none" stroke="#63b8ff" d="M224.16,-16.57C232.09,-17.75 240.37,-18.98 248.47,-20.18"/>
<polygon fill="#63b8ff" stroke="#63b8ff" points="247.86,-23.63 258.27,-21.64 248.89,-16.71 247.86,-23.63"/>
</a>
</g>
</g>
</g>
</svg>
