<?xml version="1.0" encoding="UTF-8" standalone="no"?>
<!DOCTYPE svg PUBLIC "-//W3C//DTD SVG 1.1//EN"
 "http://www.w3.org/Graphics/SVG/1.1/DTD/svg11.dtd">
<!-- Generated by graphviz version 2.44.1 (0)
 -->
<!-- Title: exif_entry_initialize Pages: 1 -->
<svg width="593pt" height="268pt"
 viewBox="0.00 0.00 593.00 268.00" xmlns="http://www.w3.org/2000/svg" xmlns:xlink="http://www.w3.org/1999/xlink">
<g id="graph0" class="graph" transform="scale(1 1) rotate(0) translate(4 264)">
<title>exif_entry_initialize</title>
<polygon fill="white" stroke="transparent" points="-4,4 -4,-264 589,-264 589,4 -4,4"/>
<!-- Node1 -->
<g id="node1" class="node">
<title>Node1</title>
<g id="a_node1"><a xlink:title="Initialize an empty ExifEntry with default data in the correct format for the given tag.">
<polygon fill="#bfbfbf" stroke="black" points="0,-126.5 0,-145.5 113,-145.5 113,-126.5 0,-126.5"/>
<text text-anchor="middle" x="56.5" y="-133.5" font-family="Helvetica,sans-Serif" font-size="10.00">exif_entry_initialize</text>
</a>
</g>
</g>
<!-- Node2 -->
<g id="node2" class="node">
<title>Node2</title>
<g id="a_node2"><a xlink:href="exif-entry_8c.html#a01d57aa3b858af0ffbbef108ed332939" target="_top" xlink:title=" ">
<polygon fill="white" stroke="black" points="347.5,-240.5 347.5,-259.5 418.5,-259.5 418.5,-240.5 347.5,-240.5"/>
<text text-anchor="middle" x="383" y="-247.5" font-family="Helvetica,sans-Serif" font-size="10.00">clear_entry</text>
</a>
</g>
</g>
<!-- Node1&#45;&gt;Node2 -->
<g id="edge1" class="edge">
<title>Node1&#45;&gt;Node2</title>
<path fill="none" stroke="midnightblue" d="M65.09,-145.73C79.38,-163.28 112.21,-200.01 149,-217 209.99,-245.17 288.76,-250.76 337.31,-251.17"/>
<polygon fill="midnightblue" stroke="midnightblue" points="337.48,-254.67 347.49,-251.18 337.49,-247.67 337.48,-254.67"/>
</g>
<!-- Node3 -->
<g id="node3" class="node">
<title>Node3</title>
<g id="a_node3"><a xlink:href="exif-data_8c.html#a2d8d50e6a9c19d28fe8192ef7cc52777" target="_top" xlink:title="Return the byte order in use by this EXIF structure.">
<polygon fill="white" stroke="black" points="162,-77 162,-107 272,-107 272,-77 162,-77"/>
<text text-anchor="start" x="170" y="-95" font-family="Helvetica,sans-Serif" font-size="10.00">exif_data_get_byte</text>
<text text-anchor="middle" x="217" y="-84" font-family="Helvetica,sans-Serif" font-size="10.00">_order</text>
</a>
</g>
</g>
<!-- Node1&#45;&gt;Node3 -->
<g id="edge2" class="edge">
<title>Node1&#45;&gt;Node3</title>
<path fill="none" stroke="midnightblue" d="M91.89,-126.45C109.5,-121.57 131.51,-115.45 152.09,-109.74"/>
<polygon fill="midnightblue" stroke="midnightblue" points="153.03,-113.11 161.73,-107.07 151.16,-106.37 153.03,-113.11"/>
</g>
<!-- Node4 -->
<g id="node4" class="node">
<title>Node4</title>
<g id="a_node4"><a xlink:href="exif-entry_8c.html#a98d6b995e251f09b20036c0c9d66efdf" target="_top" xlink:title=" ">
<polygon fill="white" stroke="black" points="335.5,-202.5 335.5,-221.5 430.5,-221.5 430.5,-202.5 335.5,-202.5"/>
<text text-anchor="middle" x="383" y="-209.5" font-family="Helvetica,sans-Serif" font-size="10.00">exif_entry_alloc</text>
</a>
</g>
</g>
<!-- Node1&#45;&gt;Node4 -->
<g id="edge3" class="edge">
<title>Node1&#45;&gt;Node4</title>
<path fill="none" stroke="midnightblue" d="M68.72,-145.51C85.13,-158.81 117.19,-182.49 149,-193 206.8,-212.11 276.86,-215.35 324.96,-214.75"/>
<polygon fill="midnightblue" stroke="midnightblue" points="325.25,-218.25 335.19,-214.56 325.12,-211.25 325.25,-218.25"/>
</g>
<!-- Node7 -->
<g id="node7" class="node">
<title>Node7</title>
<g id="a_node7"><a xlink:href="exif-entry_8c.html#aee9f2576a834b5f74a420354201a07d0" target="_top" xlink:title=" ">
<polygon fill="white" stroke="black" points="149,-164.5 149,-183.5 285,-183.5 285,-164.5 149,-164.5"/>
<text text-anchor="middle" x="217" y="-171.5" font-family="Helvetica,sans-Serif" font-size="10.00">exif_entry_initialize_gps</text>
</a>
</g>
</g>
<!-- Node1&#45;&gt;Node7 -->
<g id="edge6" class="edge">
<title>Node1&#45;&gt;Node7</title>
<path fill="none" stroke="midnightblue" d="M97.5,-145.59C118.41,-150.6 144.21,-156.79 166.39,-162.11"/>
<polygon fill="midnightblue" stroke="midnightblue" points="165.75,-165.55 176.29,-164.48 167.38,-158.74 165.75,-165.55"/>
</g>
<!-- Node8 -->
<g id="node8" class="node">
<title>Node8</title>
<g id="a_node8"><a xlink:href="exif-format_8c.html#a924038efe0cd8ebade8f44619dd794f3" target="_top" xlink:title="Return the raw size of the given EXIF data type.">
<polygon fill="white" stroke="black" points="323.5,-126.5 323.5,-145.5 442.5,-145.5 442.5,-126.5 323.5,-126.5"/>
<text text-anchor="middle" x="383" y="-133.5" font-family="Helvetica,sans-Serif" font-size="10.00">exif_format_get_size</text>
</a>
</g>
</g>
<!-- Node1&#45;&gt;Node8 -->
<g id="edge11" class="edge">
<title>Node1&#45;&gt;Node8</title>
<path fill="none" stroke="midnightblue" d="M113.28,-136C168.7,-136 253.78,-136 313.32,-136"/>
<polygon fill="midnightblue" stroke="midnightblue" points="313.39,-139.5 323.39,-136 313.39,-132.5 313.39,-139.5"/>
</g>
<!-- Node10 -->
<g id="node10" class="node">
<title>Node10</title>
<g id="a_node10"><a xlink:href="exif-utils_8c.html#a400a16b1754150f721e9fca67ad89a52" target="_top" xlink:title="Store an ExifRational value into memory in EXIF format.">
<polygon fill="white" stroke="black" points="168,-38.5 168,-57.5 266,-57.5 266,-38.5 168,-38.5"/>
<text text-anchor="middle" x="217" y="-45.5" font-family="Helvetica,sans-Serif" font-size="10.00">exif_set_rational</text>
</a>
</g>
</g>
<!-- Node1&#45;&gt;Node10 -->
<g id="edge12" class="edge">
<title>Node1&#45;&gt;Node10</title>
<path fill="none" stroke="midnightblue" d="M67.94,-126.28C84.14,-111.7 116.8,-84.14 149,-68 154.35,-65.32 160.13,-62.93 165.97,-60.81"/>
<polygon fill="midnightblue" stroke="midnightblue" points="167.43,-64.02 175.79,-57.52 165.2,-57.38 167.43,-64.02"/>
</g>
<!-- Node13 -->
<g id="node13" class="node">
<title>Node13</title>
<g id="a_node13"><a xlink:href="exif-utils_8c.html#ad905d16e26b4052a1db34dbebdc37341" target="_top" xlink:title="Store an ExifShort value into memory in EXIF format.">
<polygon fill="white" stroke="black" points="174,-0.5 174,-19.5 260,-19.5 260,-0.5 174,-0.5"/>
<text text-anchor="middle" x="217" y="-7.5" font-family="Helvetica,sans-Serif" font-size="10.00">exif_set_short</text>
</a>
</g>
</g>
<!-- Node1&#45;&gt;Node13 -->
<g id="edge15" class="edge">
<title>Node1&#45;&gt;Node13</title>
<path fill="none" stroke="midnightblue" d="M63,-126.35C75.47,-105.34 108.05,-55.24 149,-29 153.71,-25.98 158.9,-23.44 164.25,-21.29"/>
<polygon fill="midnightblue" stroke="midnightblue" points="165.73,-24.48 173.98,-17.84 163.39,-17.88 165.73,-24.48"/>
</g>
<!-- Node5 -->
<g id="node5" class="node">
<title>Node5</title>
<g id="a_node5"><a xlink:href="exif-entry_8c.html#ad5b86e68c3c96618a946a5c6fcd5f394" target="_top" xlink:title=" ">
<polygon fill="white" stroke="black" points="481,-183.5 481,-202.5 585,-202.5 585,-183.5 481,-183.5"/>
<text text-anchor="middle" x="533" y="-190.5" font-family="Helvetica,sans-Serif" font-size="10.00">exif_data_get_log</text>
</a>
</g>
</g>
<!-- Node4&#45;&gt;Node5 -->
<g id="edge4" class="edge">
<title>Node4&#45;&gt;Node5</title>
<path fill="none" stroke="midnightblue" d="M430.83,-205.99C443.52,-204.36 457.44,-202.57 470.79,-200.86"/>
<polygon fill="midnightblue" stroke="midnightblue" points="471.39,-204.31 480.86,-199.57 470.5,-197.37 471.39,-204.31"/>
</g>
<!-- Node6 -->
<g id="node6" class="node">
<title>Node6</title>
<g id="a_node6"><a xlink:href="exif-mem_8c.html#ae8c09cfbcb95e435c4c4b7ec3bbd79e4" target="_top" xlink:title=" ">
<polygon fill="white" stroke="black" points="485.5,-221.5 485.5,-240.5 580.5,-240.5 580.5,-221.5 485.5,-221.5"/>
<text text-anchor="middle" x="533" y="-228.5" font-family="Helvetica,sans-Serif" font-size="10.00">exif_mem_alloc</text>
</a>
</g>
</g>
<!-- Node4&#45;&gt;Node6 -->
<g id="edge5" class="edge">
<title>Node4&#45;&gt;Node6</title>
<path fill="none" stroke="midnightblue" d="M430.83,-218.01C445,-219.83 460.72,-221.85 475.46,-223.74"/>
<polygon fill="midnightblue" stroke="midnightblue" points="475.11,-227.23 485.48,-225.03 476,-220.28 475.11,-227.23"/>
</g>
<!-- Node7&#45;&gt;Node2 -->
<g id="edge7" class="edge">
<title>Node7&#45;&gt;Node2</title>
<path fill="none" stroke="midnightblue" d="M233.21,-183.71C252.88,-195.96 288.49,-217.11 321,-231 326.36,-233.29 332.09,-235.44 337.81,-237.41"/>
<polygon fill="midnightblue" stroke="midnightblue" points="336.77,-240.75 347.36,-240.55 338.95,-234.1 336.77,-240.75"/>
</g>
<!-- Node7&#45;&gt;Node4 -->
<g id="edge8" class="edge">
<title>Node7&#45;&gt;Node4</title>
<path fill="none" stroke="midnightblue" d="M259.38,-183.59C281.12,-188.63 307.96,-194.84 330.97,-200.18"/>
<polygon fill="midnightblue" stroke="midnightblue" points="330.38,-203.63 340.91,-202.48 331.96,-196.81 330.38,-203.63"/>
</g>
<!-- Node7&#45;&gt;Node8 -->
<g id="edge9" class="edge">
<title>Node7&#45;&gt;Node8</title>
<path fill="none" stroke="midnightblue" d="M259.38,-164.41C281.12,-159.37 307.96,-153.16 330.97,-147.82"/>
<polygon fill="midnightblue" stroke="midnightblue" points="331.96,-151.19 340.91,-145.52 330.38,-144.37 331.96,-151.19"/>
</g>
<!-- Node9 -->
<g id="node9" class="node">
<title>Node9</title>
<g id="a_node9"><a xlink:href="exif-gps-ifd_8c.html#a8942365f6de498cca0e81fce8cdf6e83" target="_top" xlink:title=" ">
<polygon fill="white" stroke="black" points="321,-164.5 321,-183.5 445,-183.5 445,-164.5 321,-164.5"/>
<text text-anchor="middle" x="383" y="-171.5" font-family="Helvetica,sans-Serif" font-size="10.00">exif_get_gps_tag_info</text>
</a>
</g>
</g>
<!-- Node7&#45;&gt;Node9 -->
<g id="edge10" class="edge">
<title>Node7&#45;&gt;Node9</title>
<path fill="none" stroke="midnightblue" d="M285.18,-174C293.61,-174 302.25,-174 310.74,-174"/>
<polygon fill="midnightblue" stroke="midnightblue" points="310.99,-177.5 320.99,-174 310.99,-170.5 310.99,-177.5"/>
</g>
<!-- Node11 -->
<g id="node11" class="node">
<title>Node11</title>
<g id="a_node11"><a xlink:href="exif-utils_8c.html#ac90147d0cc97bec7a577bf9576191bf8" target="_top" xlink:title="Store an ExifLong value into memory in EXIF format.">
<polygon fill="white" stroke="black" points="342,-38.5 342,-57.5 424,-57.5 424,-38.5 342,-38.5"/>
<text text-anchor="middle" x="383" y="-45.5" font-family="Helvetica,sans-Serif" font-size="10.00">exif_set_long</text>
</a>
</g>
</g>
<!-- Node10&#45;&gt;Node11 -->
<g id="edge13" class="edge">
<title>Node10&#45;&gt;Node11</title>
<path fill="none" stroke="midnightblue" d="M266.32,-48C286.85,-48 310.79,-48 331.55,-48"/>
<polygon fill="midnightblue" stroke="midnightblue" points="331.76,-51.5 341.76,-48 331.76,-44.5 331.76,-51.5"/>
</g>
<!-- Node12 -->
<g id="node12" class="node">
<title>Node12</title>
<g id="a_node12"><a xlink:href="exif-utils_8c.html#ae6e3b9d1663f9ab9bd462d73a310ca03" target="_top" xlink:title="Store an ExifSLong value into memory in EXIF format.">
<polygon fill="white" stroke="black" points="489.5,-38.5 489.5,-57.5 576.5,-57.5 576.5,-38.5 489.5,-38.5"/>
<text text-anchor="middle" x="533" y="-45.5" font-family="Helvetica,sans-Serif" font-size="10.00">exif_set_slong</text>
</a>
</g>
</g>
<!-- Node11&#45;&gt;Node12 -->
<g id="edge14" class="edge">
<title>Node11&#45;&gt;Node12</title>
<path fill="none" stroke="midnightblue" d="M424.05,-48C441.02,-48 461.03,-48 479.18,-48"/>
<polygon fill="midnightblue" stroke="midnightblue" points="479.33,-51.5 489.33,-48 479.33,-44.5 479.33,-51.5"/>
</g>
<!-- Node14 -->
<g id="node14" class="node">
<title>Node14</title>
<g id="a_node14"><a xlink:href="exif-utils_8c.html#a6504651147702fc6db9a5cd4aa997023" target="_top" xlink:title="Store an ExifSShort value into memory in EXIF format.">
<polygon fill="white" stroke="black" points="337.5,-0.5 337.5,-19.5 428.5,-19.5 428.5,-0.5 337.5,-0.5"/>
<text text-anchor="middle" x="383" y="-7.5" font-family="Helvetica,sans-Serif" font-size="10.00">exif_set_sshort</text>
</a>
</g>
</g>
<!-- Node13&#45;&gt;Node14 -->
<g id="edge16" class="edge">
<title>Node13&#45;&gt;Node14</title>
<path fill="none" stroke="midnightblue" d="M260.23,-10C280.63,-10 305.37,-10 327.2,-10"/>
<polygon fill="midnightblue" stroke="midnightblue" points="327.33,-13.5 337.33,-10 327.33,-6.5 327.33,-13.5"/>
</g>
</g>
</svg>
