<?xml version="1.0" encoding="UTF-8" standalone="no"?>
<!DOCTYPE svg PUBLIC "-//W3C//DTD SVG 1.1//EN"
 "http://www.w3.org/Graphics/SVG/1.1/DTD/svg11.dtd">
<!-- Generated by graphviz version 2.44.1 (0)
 -->
<!-- Title: exif_entry_fix Pages: 1 -->
<svg width="573pt" height="591pt"
 viewBox="0.00 0.00 573.00 591.00" xmlns="http://www.w3.org/2000/svg" xmlns:xlink="http://www.w3.org/1999/xlink">
<g id="graph0" class="graph" transform="scale(1 1) rotate(0) translate(4 587)">
<title>exif_entry_fix</title>
<polygon fill="white" stroke="transparent" points="-4,4 -4,-587 569,-587 569,4 -4,4"/>
<!-- Node1 -->
<g id="node1" class="node">
<title>Node1</title>
<g id="a_node1"><a xlink:title="Fix the type or format of the given EXIF entry to bring it into spec.">
<polygon fill="#bfbfbf" stroke="black" points="0,-285.5 0,-304.5 84,-304.5 84,-285.5 0,-285.5"/>
<text text-anchor="middle" x="42" y="-292.5" font-family="Helvetica,sans-Serif" font-size="10.00">exif_entry_fix</text>
</a>
</g>
</g>
<!-- Node2 -->
<g id="node2" class="node">
<title>Node2</title>
<g id="a_node2"><a xlink:href="exif-entry_8c.html#a01d57aa3b858af0ffbbef108ed332939" target="_top" xlink:title=" ">
<polygon fill="white" stroke="black" points="156,-563.5 156,-582.5 227,-582.5 227,-563.5 156,-563.5"/>
<text text-anchor="middle" x="191.5" y="-570.5" font-family="Helvetica,sans-Serif" font-size="10.00">clear_entry</text>
</a>
</g>
</g>
<!-- Node1&#45;&gt;Node2 -->
<g id="edge1" class="edge">
<title>Node1&#45;&gt;Node2</title>
<path fill="none" stroke="midnightblue" d="M42.76,-304.65C42.35,-342.46 46.09,-481.97 120,-554 127.07,-560.89 136.37,-565.35 145.89,-568.22"/>
<polygon fill="midnightblue" stroke="midnightblue" points="145.25,-571.67 155.8,-570.66 146.93,-564.87 145.25,-571.67"/>
</g>
<!-- Node3 -->
<g id="node3" class="node">
<title>Node3</title>
<g id="a_node3"><a xlink:href="exif-data_8c.html#a2d8d50e6a9c19d28fe8192ef7cc52777" target="_top" xlink:title="Return the byte order in use by this EXIF structure.">
<polygon fill="white" stroke="black" points="136.5,-514 136.5,-544 246.5,-544 246.5,-514 136.5,-514"/>
<text text-anchor="start" x="144.5" y="-532" font-family="Helvetica,sans-Serif" font-size="10.00">exif_data_get_byte</text>
<text text-anchor="middle" x="191.5" y="-521" font-family="Helvetica,sans-Serif" font-size="10.00">_order</text>
</a>
</g>
</g>
<!-- Node1&#45;&gt;Node3 -->
<g id="edge2" class="edge">
<title>Node1&#45;&gt;Node3</title>
<path fill="none" stroke="midnightblue" d="M43.74,-304.87C46.74,-337.87 60.85,-445.57 120,-504 122.36,-506.33 124.94,-508.44 127.69,-510.35"/>
<polygon fill="midnightblue" stroke="midnightblue" points="125.97,-513.4 136.34,-515.54 129.56,-507.4 125.97,-513.4"/>
</g>
<!-- Node4 -->
<g id="node4" class="node">
<title>Node4</title>
<g id="a_node4"><a xlink:href="exif-entry_8c.html#a98d6b995e251f09b20036c0c9d66efdf" target="_top" xlink:title=" ">
<polygon fill="white" stroke="black" points="144,-437.5 144,-456.5 239,-456.5 239,-437.5 144,-437.5"/>
<text text-anchor="middle" x="191.5" y="-444.5" font-family="Helvetica,sans-Serif" font-size="10.00">exif_entry_alloc</text>
</a>
</g>
</g>
<!-- Node1&#45;&gt;Node4 -->
<g id="edge3" class="edge">
<title>Node1&#45;&gt;Node4</title>
<path fill="none" stroke="midnightblue" d="M45.78,-304.77C53.34,-329.44 76.61,-394.7 120,-428 124.34,-431.33 129.21,-434.07 134.32,-436.34"/>
<polygon fill="midnightblue" stroke="midnightblue" points="133.12,-439.63 143.71,-439.92 135.62,-433.09 133.12,-439.63"/>
</g>
<!-- Node7 -->
<g id="node7" class="node">
<title>Node7</title>
<g id="a_node7"><a xlink:href="exif-entry_8c.html#ac416e8326bd687f5da299d1b15a731bf" target="_top" xlink:title=" ">
<polygon fill="white" stroke="black" points="148.5,-475.5 148.5,-494.5 234.5,-494.5 234.5,-475.5 148.5,-475.5"/>
<text text-anchor="middle" x="191.5" y="-482.5" font-family="Helvetica,sans-Serif" font-size="10.00">exif_entry_log</text>
</a>
</g>
</g>
<!-- Node1&#45;&gt;Node7 -->
<g id="edge6" class="edge">
<title>Node1&#45;&gt;Node7</title>
<path fill="none" stroke="midnightblue" d="M44.45,-304.86C49.3,-334.17 67.7,-421.46 120,-466 125.38,-470.58 131.76,-474.07 138.46,-476.72"/>
<polygon fill="midnightblue" stroke="midnightblue" points="137.81,-480.2 148.4,-480.04 140.02,-473.56 137.81,-480.2"/>
</g>
<!-- Node9 -->
<g id="node9" class="node">
<title>Node9</title>
<g id="a_node9"><a xlink:href="exif-entry_8c.html#aae1f97ae8c40280beacf254b450076a5" target="_top" xlink:title=" ">
<polygon fill="white" stroke="black" points="139.5,-399.5 139.5,-418.5 243.5,-418.5 243.5,-399.5 139.5,-399.5"/>
<text text-anchor="middle" x="191.5" y="-406.5" font-family="Helvetica,sans-Serif" font-size="10.00">exif_entry_realloc</text>
</a>
</g>
</g>
<!-- Node1&#45;&gt;Node9 -->
<g id="edge9" class="edge">
<title>Node1&#45;&gt;Node9</title>
<path fill="none" stroke="midnightblue" d="M48.73,-304.62C60.07,-322.89 87.15,-362.74 120,-385 126.25,-389.24 133.33,-392.79 140.52,-395.75"/>
<polygon fill="midnightblue" stroke="midnightblue" points="139.74,-399.2 150.33,-399.43 142.2,-392.65 139.74,-399.2"/>
</g>
<!-- Node10 -->
<g id="node10" class="node">
<title>Node10</title>
<g id="a_node10"><a xlink:href="exif-mem_8c.html#a43190b81b4b4bdb4ffb89bfb612051b1" target="_top" xlink:title=" ">
<polygon fill="white" stroke="black" points="309,-361.5 309,-380.5 400,-380.5 400,-361.5 309,-361.5"/>
<text text-anchor="middle" x="354.5" y="-368.5" font-family="Helvetica,sans-Serif" font-size="10.00">exif_mem_free</text>
</a>
</g>
</g>
<!-- Node1&#45;&gt;Node10 -->
<g id="edge26" class="edge">
<title>Node1&#45;&gt;Node10</title>
<path fill="none" stroke="midnightblue" d="M52.37,-304.75C65.88,-318.1 92.28,-341.59 120,-352 178.18,-373.85 250.08,-376.38 298.61,-374.88"/>
<polygon fill="midnightblue" stroke="midnightblue" points="299.04,-378.36 308.9,-374.49 298.77,-371.37 299.04,-378.36"/>
</g>
<!-- Node12 -->
<g id="node12" class="node">
<title>Node12</title>
<g id="a_node12"><a xlink:href="exif-format_8c.html#a59375a5939c716b826311c22571680f3" target="_top" xlink:title="Return a textual representation of the given EXIF data type.">
<polygon fill="white" stroke="black" points="127.5,-323.5 127.5,-342.5 255.5,-342.5 255.5,-323.5 127.5,-323.5"/>
<text text-anchor="middle" x="191.5" y="-330.5" font-family="Helvetica,sans-Serif" font-size="10.00">exif_format_get_name</text>
</a>
</g>
</g>
<!-- Node1&#45;&gt;Node12 -->
<g id="edge13" class="edge">
<title>Node1&#45;&gt;Node12</title>
<path fill="none" stroke="midnightblue" d="M80.22,-304.59C99.51,-309.56 123.26,-315.68 143.77,-320.96"/>
<polygon fill="midnightblue" stroke="midnightblue" points="142.99,-324.37 153.55,-323.48 144.74,-317.6 142.99,-324.37"/>
</g>
<!-- Node13 -->
<g id="node13" class="node">
<title>Node13</title>
<g id="a_node13"><a xlink:href="exif-format_8c.html#a924038efe0cd8ebade8f44619dd794f3" target="_top" xlink:title="Return the raw size of the given EXIF data type.">
<polygon fill="white" stroke="black" points="132,-285.5 132,-304.5 251,-304.5 251,-285.5 132,-285.5"/>
<text text-anchor="middle" x="191.5" y="-292.5" font-family="Helvetica,sans-Serif" font-size="10.00">exif_format_get_size</text>
</a>
</g>
</g>
<!-- Node1&#45;&gt;Node13 -->
<g id="edge14" class="edge">
<title>Node1&#45;&gt;Node13</title>
<path fill="none" stroke="midnightblue" d="M84.09,-295C95.79,-295 108.87,-295 121.74,-295"/>
<polygon fill="midnightblue" stroke="midnightblue" points="122,-298.5 132,-295 122,-291.5 122,-298.5"/>
</g>
<!-- Node14 -->
<g id="node14" class="node">
<title>Node14</title>
<g id="a_node14"><a xlink:href="exif-utils_8c.html#a1feb547c289aa57a4d2119338b03706c" target="_top" xlink:title="Retrieve an ExifRational value from memory.">
<polygon fill="white" stroke="black" points="142,-209.5 142,-228.5 241,-228.5 241,-209.5 142,-209.5"/>
<text text-anchor="middle" x="191.5" y="-216.5" font-family="Helvetica,sans-Serif" font-size="10.00">exif_get_rational</text>
</a>
</g>
</g>
<!-- Node1&#45;&gt;Node14 -->
<g id="edge15" class="edge">
<title>Node1&#45;&gt;Node14</title>
<path fill="none" stroke="midnightblue" d="M53.62,-285.08C67.74,-272.4 93.94,-250.59 120,-238 124.92,-235.62 130.19,-233.5 135.54,-231.63"/>
<polygon fill="midnightblue" stroke="midnightblue" points="136.77,-234.91 145.21,-228.51 134.62,-228.25 136.77,-234.91"/>
</g>
<!-- Node17 -->
<g id="node17" class="node">
<title>Node17</title>
<g id="a_node17"><a xlink:href="exif-entry_8c.html#afed3fb2fdd564d50c88f237cc6353ef8" target="_top" xlink:title="Get a value and convert it to an ExifShort.">
<polygon fill="white" stroke="black" points="127.5,-247.5 127.5,-266.5 255.5,-266.5 255.5,-247.5 127.5,-247.5"/>
<text text-anchor="middle" x="191.5" y="-254.5" font-family="Helvetica,sans-Serif" font-size="10.00">exif_get_short_convert</text>
</a>
</g>
</g>
<!-- Node1&#45;&gt;Node17 -->
<g id="edge18" class="edge">
<title>Node1&#45;&gt;Node17</title>
<path fill="none" stroke="midnightblue" d="M80.22,-285.41C99.51,-280.44 123.26,-274.32 143.77,-269.04"/>
<polygon fill="midnightblue" stroke="midnightblue" points="144.74,-272.4 153.55,-266.52 142.99,-265.63 144.74,-272.4"/>
</g>
<!-- Node20 -->
<g id="node20" class="node">
<title>Node20</title>
<g id="a_node20"><a xlink:href="exif-utils_8c.html#adb97c3499488d5642a82df1cb16dc2cb" target="_top" xlink:title="Retrieve an ExifSRational value from memory.">
<polygon fill="white" stroke="black" points="302.5,-171.5 302.5,-190.5 406.5,-190.5 406.5,-171.5 302.5,-171.5"/>
<text text-anchor="middle" x="354.5" y="-178.5" font-family="Helvetica,sans-Serif" font-size="10.00">exif_get_srational</text>
</a>
</g>
</g>
<!-- Node1&#45;&gt;Node20 -->
<g id="edge24" class="edge">
<title>Node1&#45;&gt;Node20</title>
<path fill="none" stroke="midnightblue" d="M47.49,-285.3C57.35,-265.25 83.01,-219.51 120,-200 173.06,-172.01 242.5,-169.97 291.82,-173.26"/>
<polygon fill="midnightblue" stroke="midnightblue" points="291.79,-176.77 302.03,-174.04 292.33,-169.79 291.79,-176.77"/>
</g>
<!-- Node21 -->
<g id="node21" class="node">
<title>Node21</title>
<g id="a_node21"><a xlink:href="exif-utils_8c.html#a400a16b1754150f721e9fca67ad89a52" target="_top" xlink:title="Store an ExifRational value into memory in EXIF format.">
<polygon fill="white" stroke="black" points="142.5,-133.5 142.5,-152.5 240.5,-152.5 240.5,-133.5 142.5,-133.5"/>
<text text-anchor="middle" x="191.5" y="-140.5" font-family="Helvetica,sans-Serif" font-size="10.00">exif_set_rational</text>
</a>
</g>
</g>
<!-- Node1&#45;&gt;Node21 -->
<g id="edge27" class="edge">
<title>Node1&#45;&gt;Node21</title>
<path fill="none" stroke="midnightblue" d="M46.14,-285.41C54.37,-261.77 78.82,-200.21 120,-167 125.09,-162.9 130.91,-159.48 136.98,-156.64"/>
<polygon fill="midnightblue" stroke="midnightblue" points="138.77,-159.69 146.66,-152.63 136.09,-153.22 138.77,-159.69"/>
</g>
<!-- Node24 -->
<g id="node24" class="node">
<title>Node24</title>
<g id="a_node24"><a xlink:href="exif-utils_8c.html#ad905d16e26b4052a1db34dbebdc37341" target="_top" xlink:title="Store an ExifShort value into memory in EXIF format.">
<polygon fill="white" stroke="black" points="148.5,-57.5 148.5,-76.5 234.5,-76.5 234.5,-57.5 148.5,-57.5"/>
<text text-anchor="middle" x="191.5" y="-64.5" font-family="Helvetica,sans-Serif" font-size="10.00">exif_set_short</text>
</a>
</g>
</g>
<!-- Node1&#45;&gt;Node24 -->
<g id="edge30" class="edge">
<title>Node1&#45;&gt;Node24</title>
<path fill="none" stroke="midnightblue" d="M43.79,-285.33C46.95,-253.02 61.51,-147.6 120,-91 125.37,-85.81 131.9,-81.74 138.8,-78.54"/>
<polygon fill="midnightblue" stroke="midnightblue" points="140.38,-81.68 148.36,-74.72 137.77,-75.18 140.38,-81.68"/>
</g>
<!-- Node26 -->
<g id="node26" class="node">
<title>Node26</title>
<g id="a_node26"><a xlink:href="exif-utils_8c.html#aca1790a72b1833dff1b0bf728052c3c5" target="_top" xlink:title="Store an ExifSRational value into memory in EXIF format.">
<polygon fill="white" stroke="black" points="302.5,-95.5 302.5,-114.5 406.5,-114.5 406.5,-95.5 302.5,-95.5"/>
<text text-anchor="middle" x="354.5" y="-102.5" font-family="Helvetica,sans-Serif" font-size="10.00">exif_set_srational</text>
</a>
</g>
</g>
<!-- Node1&#45;&gt;Node26 -->
<g id="edge32" class="edge">
<title>Node1&#45;&gt;Node26</title>
<path fill="none" stroke="midnightblue" d="M44.04,-285.11C47.81,-254.95 63.6,-163.79 120,-124 170.37,-88.46 242.94,-88.34 293.77,-94.16"/>
<polygon fill="midnightblue" stroke="midnightblue" points="293.59,-97.67 303.95,-95.44 294.46,-90.72 293.59,-97.67"/>
</g>
<!-- Node27 -->
<g id="node27" class="node">
<title>Node27</title>
<g id="a_node27"><a xlink:href="exif-tag_8c.html#a82b5a88d44d27d432afb5a1db74268b0" target="_top" xlink:title="Return a textual name of the given tag when found in the given IFD.">
<polygon fill="white" stroke="black" points="120,-19.5 120,-38.5 263,-38.5 263,-19.5 120,-19.5"/>
<text text-anchor="middle" x="191.5" y="-26.5" font-family="Helvetica,sans-Serif" font-size="10.00">exif_tag_get_name_in_ifd</text>
</a>
</g>
</g>
<!-- Node1&#45;&gt;Node27 -->
<g id="edge34" class="edge">
<title>Node1&#45;&gt;Node27</title>
<path fill="none" stroke="midnightblue" d="M42.92,-285.29C43.16,-248.47 49.1,-116.19 120,-48 121.51,-46.55 123.11,-45.21 124.8,-43.97"/>
<polygon fill="midnightblue" stroke="midnightblue" points="127.03,-46.71 133.8,-38.55 123.43,-40.71 127.03,-46.71"/>
</g>
<!-- Node5 -->
<g id="node5" class="node">
<title>Node5</title>
<g id="a_node5"><a xlink:href="exif-entry_8c.html#ad5b86e68c3c96618a946a5c6fcd5f394" target="_top" xlink:title=" ">
<polygon fill="white" stroke="black" points="302.5,-475.5 302.5,-494.5 406.5,-494.5 406.5,-475.5 302.5,-475.5"/>
<text text-anchor="middle" x="354.5" y="-482.5" font-family="Helvetica,sans-Serif" font-size="10.00">exif_data_get_log</text>
</a>
</g>
</g>
<!-- Node4&#45;&gt;Node5 -->
<g id="edge4" class="edge">
<title>Node4&#45;&gt;Node5</title>
<path fill="none" stroke="midnightblue" d="M233.13,-456.59C254.47,-461.63 280.81,-467.84 303.41,-473.18"/>
<polygon fill="midnightblue" stroke="midnightblue" points="302.63,-476.59 313.17,-475.48 304.24,-469.78 302.63,-476.59"/>
</g>
<!-- Node6 -->
<g id="node6" class="node">
<title>Node6</title>
<g id="a_node6"><a xlink:href="exif-mem_8c.html#ae8c09cfbcb95e435c4c4b7ec3bbd79e4" target="_top" xlink:title=" ">
<polygon fill="white" stroke="black" points="307,-437.5 307,-456.5 402,-456.5 402,-437.5 307,-437.5"/>
<text text-anchor="middle" x="354.5" y="-444.5" font-family="Helvetica,sans-Serif" font-size="10.00">exif_mem_alloc</text>
</a>
</g>
</g>
<!-- Node4&#45;&gt;Node6 -->
<g id="edge5" class="edge">
<title>Node4&#45;&gt;Node6</title>
<path fill="none" stroke="midnightblue" d="M239.07,-447C257.01,-447 277.71,-447 296.53,-447"/>
<polygon fill="midnightblue" stroke="midnightblue" points="296.76,-450.5 306.76,-447 296.76,-443.5 296.76,-450.5"/>
</g>
<!-- Node7&#45;&gt;Node5 -->
<g id="edge7" class="edge">
<title>Node7&#45;&gt;Node5</title>
<path fill="none" stroke="midnightblue" d="M234.8,-485C252.33,-485 273.01,-485 292.16,-485"/>
<polygon fill="midnightblue" stroke="midnightblue" points="292.3,-488.5 302.3,-485 292.3,-481.5 292.3,-488.5"/>
</g>
<!-- Node8 -->
<g id="node8" class="node">
<title>Node8</title>
<g id="a_node8"><a xlink:href="exif-log_8c.html#a99101b5ad01b2d82ce9d43c9e8534627" target="_top" xlink:title=" ">
<polygon fill="white" stroke="black" points="323.5,-513.5 323.5,-532.5 385.5,-532.5 385.5,-513.5 323.5,-513.5"/>
<text text-anchor="middle" x="354.5" y="-520.5" font-family="Helvetica,sans-Serif" font-size="10.00">exif_logv</text>
</a>
</g>
</g>
<!-- Node7&#45;&gt;Node8 -->
<g id="edge8" class="edge">
<title>Node7&#45;&gt;Node8</title>
<path fill="none" stroke="midnightblue" d="M233.13,-494.59C257.66,-500.38 288.81,-507.73 313.27,-513.5"/>
<polygon fill="midnightblue" stroke="midnightblue" points="312.77,-516.98 323.31,-515.87 314.38,-510.17 312.77,-516.98"/>
</g>
<!-- Node9&#45;&gt;Node5 -->
<g id="edge10" class="edge">
<title>Node9&#45;&gt;Node5</title>
<path fill="none" stroke="midnightblue" d="M241.71,-418.51C249.13,-420.99 256.47,-424.1 263,-428 282.98,-439.92 279.46,-453.37 299,-466 302.08,-467.99 305.4,-469.81 308.83,-471.45"/>
<polygon fill="midnightblue" stroke="midnightblue" points="307.47,-474.68 318.04,-475.41 310.23,-468.24 307.47,-474.68"/>
</g>
<!-- Node9&#45;&gt;Node10 -->
<g id="edge11" class="edge">
<title>Node9&#45;&gt;Node10</title>
<path fill="none" stroke="midnightblue" d="M233.13,-399.41C254.47,-394.37 280.81,-388.16 303.41,-382.82"/>
<polygon fill="midnightblue" stroke="midnightblue" points="304.24,-386.22 313.17,-380.52 302.63,-379.41 304.24,-386.22"/>
</g>
<!-- Node11 -->
<g id="node11" class="node">
<title>Node11</title>
<g id="a_node11"><a xlink:href="exif-mem_8c.html#a3dcfe6794d82e79e92da5e2c62484b17" target="_top" xlink:title=" ">
<polygon fill="white" stroke="black" points="302.5,-399.5 302.5,-418.5 406.5,-418.5 406.5,-399.5 302.5,-399.5"/>
<text text-anchor="middle" x="354.5" y="-406.5" font-family="Helvetica,sans-Serif" font-size="10.00">exif_mem_realloc</text>
</a>
</g>
</g>
<!-- Node9&#45;&gt;Node11 -->
<g id="edge12" class="edge">
<title>Node9&#45;&gt;Node11</title>
<path fill="none" stroke="midnightblue" d="M243.88,-409C259.21,-409 276.16,-409 292.06,-409"/>
<polygon fill="midnightblue" stroke="midnightblue" points="292.33,-412.5 302.33,-409 292.33,-405.5 292.33,-412.5"/>
</g>
<!-- Node15 -->
<g id="node15" class="node">
<title>Node15</title>
<g id="a_node15"><a xlink:href="exif-utils_8c.html#a4ad94614630897766dd0a5c9bc2a59bf" target="_top" xlink:title="Retrieve an ExifLong value from memory.">
<polygon fill="white" stroke="black" points="313,-209.5 313,-228.5 396,-228.5 396,-209.5 313,-209.5"/>
<text text-anchor="middle" x="354.5" y="-216.5" font-family="Helvetica,sans-Serif" font-size="10.00">exif_get_long</text>
</a>
</g>
</g>
<!-- Node14&#45;&gt;Node15 -->
<g id="edge16" class="edge">
<title>Node14&#45;&gt;Node15</title>
<path fill="none" stroke="midnightblue" d="M241.24,-219C260.62,-219 282.92,-219 302.52,-219"/>
<polygon fill="midnightblue" stroke="midnightblue" points="302.78,-222.5 312.78,-219 302.78,-215.5 302.78,-222.5"/>
</g>
<!-- Node16 -->
<g id="node16" class="node">
<title>Node16</title>
<g id="a_node16"><a xlink:href="exif-utils_8c.html#a56b96f076a13da6ed926e1ef29cb2dc3" target="_top" xlink:title="Retrieve an ExifSLong value from memory.">
<polygon fill="white" stroke="black" points="461.5,-209.5 461.5,-228.5 549.5,-228.5 549.5,-209.5 461.5,-209.5"/>
<text text-anchor="middle" x="505.5" y="-216.5" font-family="Helvetica,sans-Serif" font-size="10.00">exif_get_slong</text>
</a>
</g>
</g>
<!-- Node15&#45;&gt;Node16 -->
<g id="edge17" class="edge">
<title>Node15&#45;&gt;Node16</title>
<path fill="none" stroke="midnightblue" d="M396.21,-219C413.22,-219 433.21,-219 451.35,-219"/>
<polygon fill="midnightblue" stroke="midnightblue" points="451.49,-222.5 461.49,-219 451.49,-215.5 451.49,-222.5"/>
</g>
<!-- Node17&#45;&gt;Node15 -->
<g id="edge19" class="edge">
<title>Node17&#45;&gt;Node15</title>
<path fill="none" stroke="midnightblue" d="M233.13,-247.41C254.47,-242.37 280.81,-236.16 303.41,-230.82"/>
<polygon fill="midnightblue" stroke="midnightblue" points="304.24,-234.22 313.17,-228.52 302.63,-227.41 304.24,-234.22"/>
</g>
<!-- Node17&#45;&gt;Node16 -->
<g id="edge22" class="edge">
<title>Node17&#45;&gt;Node16</title>
<path fill="none" stroke="midnightblue" d="M255.53,-253.36C299.07,-250.38 358.22,-245.44 410,-238 423.86,-236.01 438.76,-233.29 452.54,-230.53"/>
<polygon fill="midnightblue" stroke="midnightblue" points="453.24,-233.96 462.34,-228.52 451.84,-227.1 453.24,-233.96"/>
</g>
<!-- Node18 -->
<g id="node18" class="node">
<title>Node18</title>
<g id="a_node18"><a xlink:href="exif-utils_8c.html#a4b4acf537a8c6b9405e7b53be868e4d7" target="_top" xlink:title="Retrieve an ExifShort value from memory.">
<polygon fill="white" stroke="black" points="311.5,-285.5 311.5,-304.5 397.5,-304.5 397.5,-285.5 311.5,-285.5"/>
<text text-anchor="middle" x="354.5" y="-292.5" font-family="Helvetica,sans-Serif" font-size="10.00">exif_get_short</text>
</a>
</g>
</g>
<!-- Node17&#45;&gt;Node18 -->
<g id="edge20" class="edge">
<title>Node17&#45;&gt;Node18</title>
<path fill="none" stroke="midnightblue" d="M233.13,-266.59C254.47,-271.63 280.81,-277.84 303.41,-283.18"/>
<polygon fill="midnightblue" stroke="midnightblue" points="302.63,-286.59 313.17,-285.48 304.24,-279.78 302.63,-286.59"/>
</g>
<!-- Node19 -->
<g id="node19" class="node">
<title>Node19</title>
<g id="a_node19"><a xlink:href="exif-utils_8c.html#a6baf094a71392f9cea23ad633ec13c8b" target="_top" xlink:title="Retrieve an ExifSShort value from memory.">
<polygon fill="white" stroke="black" points="459.5,-304.5 459.5,-323.5 551.5,-323.5 551.5,-304.5 459.5,-304.5"/>
<text text-anchor="middle" x="505.5" y="-311.5" font-family="Helvetica,sans-Serif" font-size="10.00">exif_get_sshort</text>
</a>
</g>
</g>
<!-- Node17&#45;&gt;Node19 -->
<g id="edge23" class="edge">
<title>Node17&#45;&gt;Node19</title>
<path fill="none" stroke="midnightblue" d="M241.71,-266.51C249.13,-268.99 256.47,-272.1 263,-276 282.98,-287.92 277.63,-304.81 299,-314 347.55,-334.88 408.71,-331.6 451.64,-325.12"/>
<polygon fill="midnightblue" stroke="midnightblue" points="452.29,-328.57 461.6,-323.52 451.17,-321.65 452.29,-328.57"/>
</g>
<!-- Node18&#45;&gt;Node19 -->
<g id="edge21" class="edge">
<title>Node18&#45;&gt;Node19</title>
<path fill="none" stroke="midnightblue" d="M397.8,-300.39C413.76,-302.43 432.16,-304.78 449.14,-306.94"/>
<polygon fill="midnightblue" stroke="midnightblue" points="449.13,-310.47 459.49,-308.26 450.01,-303.52 449.13,-310.47"/>
</g>
<!-- Node20&#45;&gt;Node16 -->
<g id="edge25" class="edge">
<title>Node20&#45;&gt;Node16</title>
<path fill="none" stroke="midnightblue" d="M393.1,-190.59C412.58,-195.56 436.57,-201.68 457.3,-206.96"/>
<polygon fill="midnightblue" stroke="midnightblue" points="456.62,-210.4 467.17,-209.48 458.35,-203.62 456.62,-210.4"/>
</g>
<!-- Node22 -->
<g id="node22" class="node">
<title>Node22</title>
<g id="a_node22"><a xlink:href="exif-utils_8c.html#ac90147d0cc97bec7a577bf9576191bf8" target="_top" xlink:title="Store an ExifLong value into memory in EXIF format.">
<polygon fill="white" stroke="black" points="313.5,-133.5 313.5,-152.5 395.5,-152.5 395.5,-133.5 313.5,-133.5"/>
<text text-anchor="middle" x="354.5" y="-140.5" font-family="Helvetica,sans-Serif" font-size="10.00">exif_set_long</text>
</a>
</g>
</g>
<!-- Node21&#45;&gt;Node22 -->
<g id="edge28" class="edge">
<title>Node21&#45;&gt;Node22</title>
<path fill="none" stroke="midnightblue" d="M240.81,-143C260.52,-143 283.33,-143 303.24,-143"/>
<polygon fill="midnightblue" stroke="midnightblue" points="303.36,-146.5 313.36,-143 303.36,-139.5 303.36,-146.5"/>
</g>
<!-- Node23 -->
<g id="node23" class="node">
<title>Node23</title>
<g id="a_node23"><a xlink:href="exif-utils_8c.html#ae6e3b9d1663f9ab9bd462d73a310ca03" target="_top" xlink:title="Store an ExifSLong value into memory in EXIF format.">
<polygon fill="white" stroke="black" points="462,-114.5 462,-133.5 549,-133.5 549,-114.5 462,-114.5"/>
<text text-anchor="middle" x="505.5" y="-121.5" font-family="Helvetica,sans-Serif" font-size="10.00">exif_set_slong</text>
</a>
</g>
</g>
<!-- Node22&#45;&gt;Node23 -->
<g id="edge29" class="edge">
<title>Node22&#45;&gt;Node23</title>
<path fill="none" stroke="midnightblue" d="M395.82,-137.86C413.06,-135.66 433.41,-133.07 451.81,-130.72"/>
<polygon fill="midnightblue" stroke="midnightblue" points="452.32,-134.18 461.8,-129.44 451.44,-127.24 452.32,-134.18"/>
</g>
<!-- Node25 -->
<g id="node25" class="node">
<title>Node25</title>
<g id="a_node25"><a xlink:href="exif-utils_8c.html#a6504651147702fc6db9a5cd4aa997023" target="_top" xlink:title="Store an ExifSShort value into memory in EXIF format.">
<polygon fill="white" stroke="black" points="309,-57.5 309,-76.5 400,-76.5 400,-57.5 309,-57.5"/>
<text text-anchor="middle" x="354.5" y="-64.5" font-family="Helvetica,sans-Serif" font-size="10.00">exif_set_sshort</text>
</a>
</g>
</g>
<!-- Node24&#45;&gt;Node25 -->
<g id="edge31" class="edge">
<title>Node24&#45;&gt;Node25</title>
<path fill="none" stroke="midnightblue" d="M234.8,-67C254.42,-67 277.97,-67 298.91,-67"/>
<polygon fill="midnightblue" stroke="midnightblue" points="298.95,-70.5 308.95,-67 298.95,-63.5 298.95,-70.5"/>
</g>
<!-- Node26&#45;&gt;Node23 -->
<g id="edge33" class="edge">
<title>Node26&#45;&gt;Node23</title>
<path fill="none" stroke="midnightblue" d="M406.78,-111.54C421.14,-113.37 436.78,-115.36 451.25,-117.21"/>
<polygon fill="midnightblue" stroke="midnightblue" points="451.18,-120.73 461.55,-118.52 452.07,-113.79 451.18,-120.73"/>
</g>
<!-- Node28 -->
<g id="node28" class="node">
<title>Node28</title>
<g id="a_node28"><a xlink:href="exif-tag_8c.html#a389f8ff3411e0525b28367892f1e78d3" target="_top" xlink:title="Finds the first entry in the EXIF tag table with the given tag number using a binary search.">
<polygon fill="white" stroke="black" points="299,-19.5 299,-38.5 410,-38.5 410,-19.5 299,-19.5"/>
<text text-anchor="middle" x="354.5" y="-26.5" font-family="Helvetica,sans-Serif" font-size="10.00">exif_tag_table_first</text>
</a>
</g>
</g>
<!-- Node27&#45;&gt;Node28 -->
<g id="edge35" class="edge">
<title>Node27&#45;&gt;Node28</title>
<path fill="none" stroke="midnightblue" d="M263.12,-29C271.65,-29 280.33,-29 288.77,-29"/>
<polygon fill="midnightblue" stroke="midnightblue" points="288.91,-32.5 298.91,-29 288.91,-25.5 288.91,-32.5"/>
</g>
<!-- Node29 -->
<g id="node29" class="node">
<title>Node29</title>
<g id="a_node29"><a xlink:href="exif-tag_8c.html#a87563ee64809f5f0deb4d780098508c1" target="_top" xlink:title="Return the number of entries in the EXIF tag table, including the terminating NULL entry.">
<polygon fill="white" stroke="black" points="446,-0.5 446,-19.5 565,-19.5 565,-0.5 446,-0.5"/>
<text text-anchor="middle" x="505.5" y="-7.5" font-family="Helvetica,sans-Serif" font-size="10.00">exif_tag_table_count</text>
</a>
</g>
</g>
<!-- Node28&#45;&gt;Node29 -->
<g id="edge36" class="edge">
<title>Node28&#45;&gt;Node29</title>
<path fill="none" stroke="midnightblue" d="M410.14,-22.03C418.49,-20.97 427.21,-19.86 435.82,-18.76"/>
<polygon fill="midnightblue" stroke="midnightblue" points="436.38,-22.21 445.86,-17.48 435.5,-15.27 436.38,-22.21"/>
</g>
<!-- Node30 -->
<g id="node30" class="node">
<title>Node30</title>
<g id="a_node30"><a xlink:href="exif-tag_8c.html#a220c1b18832f113bc84ff9551754915f" target="_top" xlink:title="Compares the tag with that in entry.">
<polygon fill="white" stroke="black" points="471.5,-38.5 471.5,-57.5 539.5,-57.5 539.5,-38.5 471.5,-38.5"/>
<text text-anchor="middle" x="505.5" y="-45.5" font-family="Helvetica,sans-Serif" font-size="10.00">match_tag</text>
</a>
</g>
</g>
<!-- Node28&#45;&gt;Node30 -->
<g id="edge37" class="edge">
<title>Node28&#45;&gt;Node30</title>
<path fill="none" stroke="midnightblue" d="M410.14,-35.97C426.9,-38.1 445.1,-40.43 461.01,-42.45"/>
<polygon fill="midnightblue" stroke="midnightblue" points="460.74,-45.95 471.1,-43.74 461.62,-39 460.74,-45.95"/>
</g>
</g>
</svg>
