<?xml version="1.0" encoding="UTF-8" standalone="no"?>
<!DOCTYPE svg PUBLIC "-//W3C//DTD SVG 1.1//EN"
 "http://www.w3.org/Graphics/SVG/1.1/DTD/svg11.dtd">
<!-- Generated by graphviz version 2.44.1 (0)
 -->
<!-- Title: exif_mnote_data_fuji_set_byte_order Pages: 1 -->
<svg width="696pt" height="474pt"
 viewBox="0.00 0.00 696.00 474.00" xmlns="http://www.w3.org/2000/svg" xmlns:xlink="http://www.w3.org/1999/xlink">
<g id="graph0" class="graph" transform="scale(1 1) rotate(0) translate(4 470)">
<title>exif_mnote_data_fuji_set_byte_order</title>
<polygon fill="white" stroke="transparent" points="-4,4 -4,-470 692,-470 692,4 -4,4"/>
<!-- Node1 -->
<g id="node1" class="node">
<title>Node1</title>
<g id="a_node1"><a xlink:title=" ">
<polygon fill="#bfbfbf" stroke="black" points="0,-254 0,-284 120,-284 120,-254 0,-254"/>
<text text-anchor="start" x="8" y="-272" font-family="Helvetica,sans-Serif" font-size="10.00">exif_mnote_data_fuji</text>
<text text-anchor="middle" x="60" y="-261" font-family="Helvetica,sans-Serif" font-size="10.00">_set_byte_order</text>
</a>
</g>
</g>
<!-- Node2 -->
<g id="node2" class="node">
<title>Node2</title>
<g id="a_node2"><a xlink:href="exif-utils_8c.html#a54ef3b86ffeb643e9c4434b85ccf2992" target="_top" xlink:title=" ">
<polygon fill="white" stroke="black" points="156,-232 156,-262 269,-262 269,-232 156,-232"/>
<text text-anchor="start" x="164" y="-250" font-family="Helvetica,sans-Serif" font-size="10.00">exif_array_set_byte</text>
<text text-anchor="middle" x="212.5" y="-239" font-family="Helvetica,sans-Serif" font-size="10.00">_order</text>
</a>
</g>
</g>
<!-- Node1&#45;&gt;Node2 -->
<g id="edge1" class="edge">
<title>Node1&#45;&gt;Node2</title>
<path fill="none" stroke="midnightblue" d="M120.05,-260.37C128.45,-259.14 137.14,-257.87 145.67,-256.62"/>
<polygon fill="midnightblue" stroke="midnightblue" points="146.18,-260.09 155.57,-255.18 145.17,-253.16 146.18,-260.09"/>
</g>
<!-- Node3 -->
<g id="node3" class="node">
<title>Node3</title>
<g id="a_node3"><a xlink:href="exif-format_8c.html#a924038efe0cd8ebade8f44619dd794f3" target="_top" xlink:title="Return the raw size of the given EXIF data type.">
<polygon fill="white" stroke="black" points="305,-446.5 305,-465.5 424,-465.5 424,-446.5 305,-446.5"/>
<text text-anchor="middle" x="364.5" y="-453.5" font-family="Helvetica,sans-Serif" font-size="10.00">exif_format_get_size</text>
</a>
</g>
</g>
<!-- Node1&#45;&gt;Node3 -->
<g id="edge23" class="edge">
<title>Node1&#45;&gt;Node3</title>
<path fill="none" stroke="midnightblue" d="M84.81,-284.03C128.36,-311.48 223.85,-371.46 305,-421 316.02,-427.73 328.26,-435.07 338.69,-441.29"/>
<polygon fill="midnightblue" stroke="midnightblue" points="336.93,-444.32 347.31,-446.42 340.51,-438.3 336.93,-444.32"/>
</g>
<!-- Node2&#45;&gt;Node3 -->
<g id="edge2" class="edge">
<title>Node2&#45;&gt;Node3</title>
<path fill="none" stroke="midnightblue" d="M221.05,-262.21C231.74,-283.75 251.88,-324.37 269,-359 285.03,-391.43 278.56,-407.32 305,-432 309.16,-435.89 314.04,-439.18 319.17,-441.97"/>
<polygon fill="midnightblue" stroke="midnightblue" points="318.05,-445.31 328.59,-446.45 321.06,-438.99 318.05,-445.31"/>
</g>
<!-- Node4 -->
<g id="node4" class="node">
<title>Node4</title>
<g id="a_node4"><a xlink:href="exif-utils_8c.html#a4ad94614630897766dd0a5c9bc2a59bf" target="_top" xlink:title="Retrieve an ExifLong value from memory.">
<polygon fill="white" stroke="black" points="470.5,-370.5 470.5,-389.5 553.5,-389.5 553.5,-370.5 470.5,-370.5"/>
<text text-anchor="middle" x="512" y="-377.5" font-family="Helvetica,sans-Serif" font-size="10.00">exif_get_long</text>
</a>
</g>
</g>
<!-- Node2&#45;&gt;Node4 -->
<g id="edge3" class="edge">
<title>Node2&#45;&gt;Node4</title>
<path fill="none" stroke="midnightblue" d="M220.26,-262.13C236.4,-297.48 277.85,-383.65 305,-399 360.29,-430.25 437.48,-409.27 479.94,-393.3"/>
<polygon fill="midnightblue" stroke="midnightblue" points="481.41,-396.48 489.45,-389.58 478.86,-389.96 481.41,-396.48"/>
</g>
<!-- Node5 -->
<g id="node5" class="node">
<title>Node5</title>
<g id="a_node5"><a xlink:href="exif-utils_8c.html#a56b96f076a13da6ed926e1ef29cb2dc3" target="_top" xlink:title="Retrieve an ExifSLong value from memory.">
<polygon fill="white" stroke="black" points="600,-332.5 600,-351.5 688,-351.5 688,-332.5 600,-332.5"/>
<text text-anchor="middle" x="644" y="-339.5" font-family="Helvetica,sans-Serif" font-size="10.00">exif_get_slong</text>
</a>
</g>
</g>
<!-- Node2&#45;&gt;Node5 -->
<g id="edge9" class="edge">
<title>Node2&#45;&gt;Node5</title>
<path fill="none" stroke="midnightblue" d="M226.19,-262.3C242.35,-280.51 272.14,-310.08 305,-323 399.82,-360.28 521.21,-355.79 589.71,-349"/>
<polygon fill="midnightblue" stroke="midnightblue" points="590.25,-352.46 599.83,-347.94 589.52,-345.5 590.25,-352.46"/>
</g>
<!-- Node6 -->
<g id="node6" class="node">
<title>Node6</title>
<g id="a_node6"><a xlink:href="exif-utils_8c.html#a1feb547c289aa57a4d2119338b03706c" target="_top" xlink:title="Retrieve an ExifRational value from memory.">
<polygon fill="white" stroke="black" points="315,-370.5 315,-389.5 414,-389.5 414,-370.5 315,-370.5"/>
<text text-anchor="middle" x="364.5" y="-377.5" font-family="Helvetica,sans-Serif" font-size="10.00">exif_get_rational</text>
</a>
</g>
</g>
<!-- Node2&#45;&gt;Node6 -->
<g id="edge5" class="edge">
<title>Node2&#45;&gt;Node6</title>
<path fill="none" stroke="midnightblue" d="M222.67,-262.03C237.42,-285.09 268.49,-329.33 305,-356 310.48,-360 316.72,-363.47 323.04,-366.43"/>
<polygon fill="midnightblue" stroke="midnightblue" points="321.71,-369.67 332.28,-370.41 324.48,-363.24 321.71,-369.67"/>
</g>
<!-- Node7 -->
<g id="node7" class="node">
<title>Node7</title>
<g id="a_node7"><a xlink:href="exif-utils_8c.html#a4b4acf537a8c6b9405e7b53be868e4d7" target="_top" xlink:title="Retrieve an ExifShort value from memory.">
<polygon fill="white" stroke="black" points="321.5,-294.5 321.5,-313.5 407.5,-313.5 407.5,-294.5 321.5,-294.5"/>
<text text-anchor="middle" x="364.5" y="-301.5" font-family="Helvetica,sans-Serif" font-size="10.00">exif_get_short</text>
</a>
</g>
</g>
<!-- Node2&#45;&gt;Node7 -->
<g id="edge7" class="edge">
<title>Node2&#45;&gt;Node7</title>
<path fill="none" stroke="midnightblue" d="M253.3,-262.13C276.74,-271.03 306.11,-282.19 328.63,-290.75"/>
<polygon fill="midnightblue" stroke="midnightblue" points="327.55,-294.08 338.14,-294.36 330.04,-287.54 327.55,-294.08"/>
</g>
<!-- Node8 -->
<g id="node8" class="node">
<title>Node8</title>
<g id="a_node8"><a xlink:href="exif-utils_8c.html#a6baf094a71392f9cea23ad633ec13c8b" target="_top" xlink:title="Retrieve an ExifSShort value from memory.">
<polygon fill="white" stroke="black" points="466,-284.5 466,-303.5 558,-303.5 558,-284.5 466,-284.5"/>
<text text-anchor="middle" x="512" y="-291.5" font-family="Helvetica,sans-Serif" font-size="10.00">exif_get_sshort</text>
</a>
</g>
</g>
<!-- Node2&#45;&gt;Node8 -->
<g id="edge12" class="edge">
<title>Node2&#45;&gt;Node8</title>
<path fill="none" stroke="midnightblue" d="M269.11,-255.79C322.51,-264.22 402.71,-276.89 455.93,-285.3"/>
<polygon fill="midnightblue" stroke="midnightblue" points="455.45,-288.77 465.87,-286.87 456.54,-281.85 455.45,-288.77"/>
</g>
<!-- Node9 -->
<g id="node9" class="node">
<title>Node9</title>
<g id="a_node9"><a xlink:href="exif-utils_8c.html#adb97c3499488d5642a82df1cb16dc2cb" target="_top" xlink:title="Retrieve an ExifSRational value from memory.">
<polygon fill="white" stroke="black" points="460,-227.5 460,-246.5 564,-246.5 564,-227.5 460,-227.5"/>
<text text-anchor="middle" x="512" y="-234.5" font-family="Helvetica,sans-Serif" font-size="10.00">exif_get_srational</text>
</a>
</g>
</g>
<!-- Node2&#45;&gt;Node9 -->
<g id="edge10" class="edge">
<title>Node2&#45;&gt;Node9</title>
<path fill="none" stroke="midnightblue" d="M269.11,-245.13C320.35,-243.41 396.27,-240.86 449.34,-239.07"/>
<polygon fill="midnightblue" stroke="midnightblue" points="449.76,-242.56 459.64,-238.73 449.53,-235.56 449.76,-242.56"/>
</g>
<!-- Node10 -->
<g id="node10" class="node">
<title>Node10</title>
<g id="a_node10"><a xlink:href="exif-utils_8c.html#ac90147d0cc97bec7a577bf9576191bf8" target="_top" xlink:title="Store an ExifLong value into memory in EXIF format.">
<polygon fill="white" stroke="black" points="471,-142.5 471,-161.5 553,-161.5 553,-142.5 471,-142.5"/>
<text text-anchor="middle" x="512" y="-149.5" font-family="Helvetica,sans-Serif" font-size="10.00">exif_set_long</text>
</a>
</g>
</g>
<!-- Node2&#45;&gt;Node10 -->
<g id="edge13" class="edge">
<title>Node2&#45;&gt;Node10</title>
<path fill="none" stroke="midnightblue" d="M260.64,-231.95C318.79,-213.38 416.62,-182.14 471.18,-164.72"/>
<polygon fill="midnightblue" stroke="midnightblue" points="472.38,-168.01 480.84,-161.63 470.25,-161.34 472.38,-168.01"/>
</g>
<!-- Node11 -->
<g id="node11" class="node">
<title>Node11</title>
<g id="a_node11"><a xlink:href="exif-utils_8c.html#ae6e3b9d1663f9ab9bd462d73a310ca03" target="_top" xlink:title="Store an ExifSLong value into memory in EXIF format.">
<polygon fill="white" stroke="black" points="600.5,-104.5 600.5,-123.5 687.5,-123.5 687.5,-104.5 600.5,-104.5"/>
<text text-anchor="middle" x="644" y="-111.5" font-family="Helvetica,sans-Serif" font-size="10.00">exif_set_slong</text>
</a>
</g>
</g>
<!-- Node2&#45;&gt;Node11 -->
<g id="edge19" class="edge">
<title>Node2&#45;&gt;Node11</title>
<path fill="none" stroke="midnightblue" d="M220.46,-231.76C233.12,-206.08 262.58,-154.83 305,-133 396.34,-85.99 520.5,-94.32 590.1,-104.33"/>
<polygon fill="midnightblue" stroke="midnightblue" points="589.97,-107.85 600.38,-105.88 591.01,-100.93 589.97,-107.85"/>
</g>
<!-- Node12 -->
<g id="node12" class="node">
<title>Node12</title>
<g id="a_node12"><a xlink:href="exif-utils_8c.html#a400a16b1754150f721e9fca67ad89a52" target="_top" xlink:title="Store an ExifRational value into memory in EXIF format.">
<polygon fill="white" stroke="black" points="315.5,-142.5 315.5,-161.5 413.5,-161.5 413.5,-142.5 315.5,-142.5"/>
<text text-anchor="middle" x="364.5" y="-149.5" font-family="Helvetica,sans-Serif" font-size="10.00">exif_set_rational</text>
</a>
</g>
</g>
<!-- Node2&#45;&gt;Node12 -->
<g id="edge15" class="edge">
<title>Node2&#45;&gt;Node12</title>
<path fill="none" stroke="midnightblue" d="M230.05,-231.91C247.65,-216.41 276.81,-192.32 305,-176 311.66,-172.14 319.07,-168.6 326.3,-165.49"/>
<polygon fill="midnightblue" stroke="midnightblue" points="328.06,-168.55 335.98,-161.52 325.4,-162.07 328.06,-168.55"/>
</g>
<!-- Node13 -->
<g id="node13" class="node">
<title>Node13</title>
<g id="a_node13"><a xlink:href="exif-utils_8c.html#ad905d16e26b4052a1db34dbebdc37341" target="_top" xlink:title="Store an ExifShort value into memory in EXIF format.">
<polygon fill="white" stroke="black" points="321.5,-66.5 321.5,-85.5 407.5,-85.5 407.5,-66.5 321.5,-66.5"/>
<text text-anchor="middle" x="364.5" y="-73.5" font-family="Helvetica,sans-Serif" font-size="10.00">exif_set_short</text>
</a>
</g>
</g>
<!-- Node2&#45;&gt;Node13 -->
<g id="edge17" class="edge">
<title>Node2&#45;&gt;Node13</title>
<path fill="none" stroke="midnightblue" d="M219.16,-231.93C230.88,-202.65 260.46,-137.64 305,-100 309.67,-96.05 315.08,-92.68 320.69,-89.83"/>
<polygon fill="midnightblue" stroke="midnightblue" points="322.56,-92.83 330.21,-85.51 319.66,-86.46 322.56,-92.83"/>
</g>
<!-- Node14 -->
<g id="node14" class="node">
<title>Node14</title>
<g id="a_node14"><a xlink:href="exif-utils_8c.html#a6504651147702fc6db9a5cd4aa997023" target="_top" xlink:title="Store an ExifSShort value into memory in EXIF format.">
<polygon fill="white" stroke="black" points="466.5,-57.5 466.5,-76.5 557.5,-76.5 557.5,-57.5 466.5,-57.5"/>
<text text-anchor="middle" x="512" y="-64.5" font-family="Helvetica,sans-Serif" font-size="10.00">exif_set_sshort</text>
</a>
</g>
</g>
<!-- Node2&#45;&gt;Node14 -->
<g id="edge22" class="edge">
<title>Node2&#45;&gt;Node14</title>
<path fill="none" stroke="midnightblue" d="M215.42,-231.86C221.1,-194.27 241.6,-96.83 305,-57 357.6,-23.95 433.51,-40.29 476.99,-54.25"/>
<polygon fill="midnightblue" stroke="midnightblue" points="475.93,-57.59 486.53,-57.45 478.16,-50.95 475.93,-57.59"/>
</g>
<!-- Node15 -->
<g id="node15" class="node">
<title>Node15</title>
<g id="a_node15"><a xlink:href="exif-utils_8c.html#aca1790a72b1833dff1b0bf728052c3c5" target="_top" xlink:title="Store an ExifSRational value into memory in EXIF format.">
<polygon fill="white" stroke="black" points="460,-0.5 460,-19.5 564,-19.5 564,-0.5 460,-0.5"/>
<text text-anchor="middle" x="512" y="-7.5" font-family="Helvetica,sans-Serif" font-size="10.00">exif_set_srational</text>
</a>
</g>
</g>
<!-- Node2&#45;&gt;Node15 -->
<g id="edge20" class="edge">
<title>Node2&#45;&gt;Node15</title>
<path fill="none" stroke="midnightblue" d="M214.89,-231.96C219.47,-192.01 237.86,-82.88 305,-33 346.14,-2.44 405.25,1.24 449.61,-1.51"/>
<polygon fill="midnightblue" stroke="midnightblue" points="449.46,-5.01 459.7,-2.27 449.98,1.97 449.46,-5.01"/>
</g>
<!-- Node4&#45;&gt;Node5 -->
<g id="edge4" class="edge">
<title>Node4&#45;&gt;Node5</title>
<path fill="none" stroke="midnightblue" d="M545.8,-370.41C562.28,-365.6 582.44,-359.7 600.13,-354.53"/>
<polygon fill="midnightblue" stroke="midnightblue" points="601.59,-357.75 610.21,-351.59 599.63,-351.03 601.59,-357.75"/>
</g>
<!-- Node6&#45;&gt;Node4 -->
<g id="edge6" class="edge">
<title>Node6&#45;&gt;Node4</title>
<path fill="none" stroke="midnightblue" d="M414.35,-380C429.11,-380 445.34,-380 460.22,-380"/>
<polygon fill="midnightblue" stroke="midnightblue" points="460.27,-383.5 470.27,-380 460.27,-376.5 460.27,-383.5"/>
</g>
<!-- Node7&#45;&gt;Node8 -->
<g id="edge8" class="edge">
<title>Node7&#45;&gt;Node8</title>
<path fill="none" stroke="midnightblue" d="M407.58,-301.11C422.59,-300.08 439.73,-298.9 455.69,-297.8"/>
<polygon fill="midnightblue" stroke="midnightblue" points="456.23,-301.27 465.96,-297.1 455.75,-294.29 456.23,-301.27"/>
</g>
<!-- Node9&#45;&gt;Node5 -->
<g id="edge11" class="edge">
<title>Node9&#45;&gt;Node5</title>
<path fill="none" stroke="midnightblue" d="M526.6,-246.77C536.97,-254.32 551.56,-265.1 564,-275 585.09,-291.78 608.57,-311.87 624.4,-325.65"/>
<polygon fill="midnightblue" stroke="midnightblue" points="622.1,-328.29 631.93,-332.23 626.71,-323.02 622.1,-328.29"/>
</g>
<!-- Node10&#45;&gt;Node11 -->
<g id="edge14" class="edge">
<title>Node10&#45;&gt;Node11</title>
<path fill="none" stroke="midnightblue" d="M545.8,-142.41C562.28,-137.6 582.44,-131.7 600.13,-126.53"/>
<polygon fill="midnightblue" stroke="midnightblue" points="601.59,-129.75 610.21,-123.59 599.63,-123.03 601.59,-129.75"/>
</g>
<!-- Node12&#45;&gt;Node10 -->
<g id="edge16" class="edge">
<title>Node12&#45;&gt;Node10</title>
<path fill="none" stroke="midnightblue" d="M413.55,-152C428.61,-152 445.28,-152 460.51,-152"/>
<polygon fill="midnightblue" stroke="midnightblue" points="460.78,-155.5 470.78,-152 460.78,-148.5 460.78,-155.5"/>
</g>
<!-- Node13&#45;&gt;Node14 -->
<g id="edge18" class="edge">
<title>Node13&#45;&gt;Node14</title>
<path fill="none" stroke="midnightblue" d="M407.58,-73.4C422.73,-72.46 440.05,-71.39 456.12,-70.39"/>
<polygon fill="midnightblue" stroke="midnightblue" points="456.71,-73.86 466.47,-69.75 456.28,-66.88 456.71,-73.86"/>
</g>
<!-- Node15&#45;&gt;Node11 -->
<g id="edge21" class="edge">
<title>Node15&#45;&gt;Node11</title>
<path fill="none" stroke="midnightblue" d="M526.58,-19.8C536.94,-27.36 551.52,-38.15 564,-48 584.83,-64.44 608.08,-84.02 623.93,-97.56"/>
<polygon fill="midnightblue" stroke="midnightblue" points="622.04,-100.55 631.91,-104.4 626.6,-95.24 622.04,-100.55"/>
</g>
</g>
</svg>
