<?xml version="1.0" encoding="UTF-8" standalone="no"?>
<!DOCTYPE svg PUBLIC "-//W3C//DTD SVG 1.1//EN"
 "http://www.w3.org/Graphics/SVG/1.1/DTD/svg11.dtd">
<!-- Generated by graphviz version 2.44.1 (0)
 -->
<!-- Title: exif_content_free Pages: 1 -->
<svg width="630pt" height="131pt"
 viewBox="0.00 0.00 630.00 130.86" xmlns="http://www.w3.org/2000/svg" xmlns:xlink="http://www.w3.org/1999/xlink">
<g id="graph0" class="graph" transform="scale(1 1) rotate(0) translate(4 126.86)">
<title>exif_content_free</title>
<polygon fill="white" stroke="transparent" points="-4,4 -4,-126.86 626,-126.86 626,4 -4,4"/>
<!-- Node1 -->
<g id="node1" class="node">
<title>Node1</title>
<g id="a_node1"><a xlink:title="Actually free the ExifContent.">
<polygon fill="#bfbfbf" stroke="black" points="0,-57.5 0,-76.5 102,-76.5 102,-57.5 0,-57.5"/>
<text text-anchor="middle" x="51" y="-64.5" font-family="Helvetica,sans-Serif" font-size="10.00">exif_content_free</text>
</a>
</g>
</g>
<!-- Node2 -->
<g id="node2" class="node">
<title>Node2</title>
<g id="a_node2"><a xlink:href="exif-entry_8c.html#a82d5d923121488d847d341727cdd2ef4" target="_top" xlink:title="Decrease reference counter for ExifEntry.">
<polygon fill="white" stroke="black" points="138,-76.5 138,-95.5 235,-95.5 235,-76.5 138,-76.5"/>
<text text-anchor="middle" x="186.5" y="-83.5" font-family="Helvetica,sans-Serif" font-size="10.00">exif_entry_unref</text>
</a>
</g>
</g>
<!-- Node1&#45;&gt;Node2 -->
<g id="edge1" class="edge">
<title>Node1&#45;&gt;Node2</title>
<path fill="none" stroke="midnightblue" d="M102.09,-74.13C110.49,-75.32 119.27,-76.57 127.85,-77.79"/>
<polygon fill="midnightblue" stroke="midnightblue" points="127.39,-81.26 137.78,-79.21 128.37,-74.33 127.39,-81.26"/>
</g>
<!-- Node4 -->
<g id="node4" class="node">
<title>Node4</title>
<g id="a_node4"><a xlink:href="exif-mem_8c.html#a43190b81b4b4bdb4ffb89bfb612051b1" target="_top" xlink:title=" ">
<polygon fill="white" stroke="black" points="531,-57.5 531,-76.5 622,-76.5 622,-57.5 531,-57.5"/>
<text text-anchor="middle" x="576.5" y="-64.5" font-family="Helvetica,sans-Serif" font-size="10.00">exif_mem_free</text>
</a>
</g>
</g>
<!-- Node1&#45;&gt;Node4 -->
<g id="edge10" class="edge">
<title>Node1&#45;&gt;Node4</title>
<path fill="none" stroke="midnightblue" d="M68.12,-76.57C84.9,-85.94 112.29,-99.57 138,-105 293.38,-137.8 339.21,-120.82 495,-90 508.75,-87.28 523.56,-83.35 536.68,-79.5"/>
<polygon fill="midnightblue" stroke="midnightblue" points="537.78,-82.83 546.35,-76.59 535.76,-76.12 537.78,-82.83"/>
</g>
<!-- Node5 -->
<g id="node5" class="node">
<title>Node5</title>
<g id="a_node5"><a xlink:href="exif-mem_8c.html#a66744e0987af08c443df247ce55f7d87" target="_top" xlink:title="Unrefcount an ExifMem.">
<polygon fill="white" stroke="black" points="398,-38.5 398,-57.5 495,-57.5 495,-38.5 398,-38.5"/>
<text text-anchor="middle" x="446.5" y="-45.5" font-family="Helvetica,sans-Serif" font-size="10.00">exif_mem_unref</text>
</a>
</g>
</g>
<!-- Node1&#45;&gt;Node5 -->
<g id="edge11" class="edge">
<title>Node1&#45;&gt;Node5</title>
<path fill="none" stroke="midnightblue" d="M102.24,-64.57C175.31,-61.05 310.58,-54.51 387.69,-50.79"/>
<polygon fill="midnightblue" stroke="midnightblue" points="387.89,-54.29 397.71,-50.31 387.56,-47.29 387.89,-54.29"/>
</g>
<!-- Node6 -->
<g id="node6" class="node">
<title>Node6</title>
<g id="a_node6"><a xlink:href="exif-log_8c.html#a7a9b738a7429197d68c80ffedac7d8fb" target="_top" xlink:title=" ">
<polygon fill="white" stroke="black" points="143.5,-0.5 143.5,-19.5 229.5,-19.5 229.5,-0.5 143.5,-0.5"/>
<text text-anchor="middle" x="186.5" y="-7.5" font-family="Helvetica,sans-Serif" font-size="10.00">exif_log_unref</text>
</a>
</g>
</g>
<!-- Node1&#45;&gt;Node6 -->
<g id="edge6" class="edge">
<title>Node1&#45;&gt;Node6</title>
<path fill="none" stroke="midnightblue" d="M74.34,-57.46C96.1,-48.17 129.37,-33.96 153.85,-23.51"/>
<polygon fill="midnightblue" stroke="midnightblue" points="155.26,-26.72 163.08,-19.57 152.51,-20.28 155.26,-26.72"/>
</g>
<!-- Node3 -->
<g id="node3" class="node">
<title>Node3</title>
<g id="a_node3"><a xlink:href="exif-entry_8c.html#a2879215e3863186650d3f32eb63bbaf4" target="_top" xlink:title="Actually free the ExifEntry.">
<polygon fill="white" stroke="black" points="271,-76.5 271,-95.5 362,-95.5 362,-76.5 271,-76.5"/>
<text text-anchor="middle" x="316.5" y="-83.5" font-family="Helvetica,sans-Serif" font-size="10.00">exif_entry_free</text>
</a>
</g>
</g>
<!-- Node2&#45;&gt;Node3 -->
<g id="edge2" class="edge">
<title>Node2&#45;&gt;Node3</title>
<path fill="none" stroke="midnightblue" d="M235.16,-86C243.45,-86 252.13,-86 260.59,-86"/>
<polygon fill="midnightblue" stroke="midnightblue" points="260.77,-89.5 270.77,-86 260.77,-82.5 260.77,-89.5"/>
</g>
<!-- Node3&#45;&gt;Node4 -->
<g id="edge3" class="edge">
<title>Node3&#45;&gt;Node4</title>
<path fill="none" stroke="midnightblue" d="M362.15,-82.71C406.22,-79.47 473.68,-74.5 520.92,-71.02"/>
<polygon fill="midnightblue" stroke="midnightblue" points="521.25,-74.5 530.97,-70.28 520.74,-67.52 521.25,-74.5"/>
</g>
<!-- Node3&#45;&gt;Node5 -->
<g id="edge4" class="edge">
<title>Node3&#45;&gt;Node5</title>
<path fill="none" stroke="midnightblue" d="M349.8,-76.41C366.02,-71.6 385.88,-65.7 403.29,-60.53"/>
<polygon fill="midnightblue" stroke="midnightblue" points="404.62,-63.79 413.21,-57.59 402.63,-57.08 404.62,-63.79"/>
</g>
<!-- Node5&#45;&gt;Node4 -->
<g id="edge5" class="edge">
<title>Node5&#45;&gt;Node4</title>
<path fill="none" stroke="midnightblue" d="M495.16,-55.07C503.54,-56.32 512.32,-57.62 520.87,-58.89"/>
<polygon fill="midnightblue" stroke="midnightblue" points="520.36,-62.35 530.77,-60.36 521.39,-55.43 520.36,-62.35"/>
</g>
<!-- Node7 -->
<g id="node7" class="node">
<title>Node7</title>
<g id="a_node7"><a xlink:href="exif-log_8c.html#acd0808d6d5be73f28059797c2e2e67dc" target="_top" xlink:title="Delete instance of ExifLog.">
<polygon fill="white" stroke="black" points="276.5,-0.5 276.5,-19.5 356.5,-19.5 356.5,-0.5 276.5,-0.5"/>
<text text-anchor="middle" x="316.5" y="-7.5" font-family="Helvetica,sans-Serif" font-size="10.00">exif_log_free</text>
</a>
</g>
</g>
<!-- Node6&#45;&gt;Node7 -->
<g id="edge7" class="edge">
<title>Node6&#45;&gt;Node7</title>
<path fill="none" stroke="midnightblue" d="M229.77,-10C241.37,-10 254.05,-10 266.02,-10"/>
<polygon fill="midnightblue" stroke="midnightblue" points="266.31,-13.5 276.31,-10 266.31,-6.5 266.31,-13.5"/>
</g>
<!-- Node7&#45;&gt;Node4 -->
<g id="edge8" class="edge">
<title>Node7&#45;&gt;Node4</title>
<path fill="none" stroke="midnightblue" d="M356.64,-10.46C393.08,-11.76 448.6,-15.97 495,-29 514.47,-34.47 535.06,-44.27 550.55,-52.55"/>
<polygon fill="midnightblue" stroke="midnightblue" points="549.03,-55.71 559.48,-57.46 552.4,-49.58 549.03,-55.71"/>
</g>
<!-- Node7&#45;&gt;Node5 -->
<g id="edge9" class="edge">
<title>Node7&#45;&gt;Node5</title>
<path fill="none" stroke="midnightblue" d="M349.8,-19.59C366.02,-24.4 385.88,-30.3 403.29,-35.47"/>
<polygon fill="midnightblue" stroke="midnightblue" points="402.63,-38.92 413.21,-38.41 404.62,-32.21 402.63,-38.92"/>
</g>
</g>
</svg>
