<?xml version="1.0" encoding="UTF-8" standalone="no"?>
<!DOCTYPE svg PUBLIC "-//W3C//DTD SVG 1.1//EN"
 "http://www.w3.org/Graphics/SVG/1.1/DTD/svg11.dtd">
<!-- Generated by graphviz version 7.0.1 (0)
 -->
<!-- Title: exif_entry_initialize_gps Pages: 1 -->
<svg width="444pt" height="138pt"
 viewBox="0.00 0.00 444.00 138.00" xmlns="http://www.w3.org/2000/svg" xmlns:xlink="http://www.w3.org/1999/xlink">
<g id="graph0" class="graph" transform="scale(1 1) rotate(0) translate(4 134)">
<title>exif_entry_initialize_gps</title>
<!-- Node1 -->
<g id="Node000001" class="node">
<title>Node1</title>
<g id="a_Node000001"><a xlink:title=" ">
<polygon fill="#999999" stroke="#666666" points="136,-74 0,-74 0,-55 136,-55 136,-74"/>
<text text-anchor="middle" x="68" y="-62" font-family="Helvetica,sans-Serif" font-size="10.00">exif_entry_initialize_gps</text>
</a>
</g>
</g>
<!-- Node2 -->
<g id="Node000002" class="node">
<title>Node2</title>
<g id="a_Node000002"><a xlink:href="exif-entry_8c.html#a01d57aa3b858af0ffbbef108ed332939" target="_top" xlink:title=" ">
<polygon fill="white" stroke="#666666" points="269.5,-130 198.5,-130 198.5,-111 269.5,-111 269.5,-130"/>
<text text-anchor="middle" x="234" y="-118" font-family="Helvetica,sans-Serif" font-size="10.00">clear_entry</text>
</a>
</g>
</g>
<!-- Node1&#45;&gt;Node2 -->
<g id="edge1_Node000001_Node000002" class="edge">
<title>Node1&#45;&gt;Node2</title>
<g id="a_edge1_Node000001_Node000002"><a xlink:title=" ">
<path fill="none" stroke="#63b8ff" d="M94.23,-74.34C114.98,-82.31 145.22,-93.62 172,-102.5 176.85,-104.11 181.93,-105.72 187.02,-107.29"/>
<polygon fill="#63b8ff" stroke="#63b8ff" points="186,-110.64 196.59,-110.18 188.03,-103.94 186,-110.64"/>
</a>
</g>
</g>
<!-- Node3 -->
<g id="Node000003" class="node">
<title>Node3</title>
<g id="a_Node000003"><a xlink:href="exif-entry_8c.html#acba1916cfb1741aa17f022d2e5b8bccc" target="_top" xlink:title=" ">
<polygon fill="white" stroke="#666666" points="281.5,-93 186.5,-93 186.5,-74 281.5,-74 281.5,-93"/>
<text text-anchor="middle" x="234" y="-81" font-family="Helvetica,sans-Serif" font-size="10.00">exif_entry_alloc</text>
</a>
</g>
</g>
<!-- Node1&#45;&gt;Node3 -->
<g id="edge2_Node000001_Node000003" class="edge">
<title>Node1&#45;&gt;Node3</title>
<g id="a_edge2_Node000001_Node000003"><a xlink:title=" ">
<path fill="none" stroke="#63b8ff" d="M136.18,-72.28C149.05,-73.77 162.42,-75.32 174.97,-76.78"/>
<polygon fill="#63b8ff" stroke="#63b8ff" points="174.39,-80.23 184.72,-77.91 175.19,-73.28 174.39,-80.23"/>
</a>
</g>
</g>
<!-- Node6 -->
<g id="Node000006" class="node">
<title>Node6</title>
<g id="a_Node000006"><a xlink:href="exif-format_8c.html#a924038efe0cd8ebade8f44619dd794f3" target="_top" xlink:title="Return the raw size of the given EXIF data type.">
<polygon fill="white" stroke="#666666" points="293.5,-56 174.5,-56 174.5,-37 293.5,-37 293.5,-56"/>
<text text-anchor="middle" x="234" y="-44" font-family="Helvetica,sans-Serif" font-size="10.00">exif_format_get_size</text>
</a>
</g>
</g>
<!-- Node1&#45;&gt;Node6 -->
<g id="edge5_Node000001_Node000006" class="edge">
<title>Node1&#45;&gt;Node6</title>
<g id="a_edge5_Node000001_Node000006"><a xlink:title=" ">
<path fill="none" stroke="#63b8ff" d="M136.18,-57.13C144.91,-56.17 153.88,-55.18 162.66,-54.22"/>
<polygon fill="#63b8ff" stroke="#63b8ff" points="163.01,-57.7 172.56,-53.13 162.24,-50.75 163.01,-57.7"/>
</a>
</g>
</g>
<!-- Node7 -->
<g id="Node000007" class="node">
<title>Node7</title>
<g id="a_Node000007"><a xlink:href="exif-gps-ifd_8c.html#a5355c877082ce0f6f54482ed8a079079" target="_top" xlink:title=" ">
<polygon fill="white" stroke="#666666" points="296,-19 172,-19 172,0 296,0 296,-19"/>
<text text-anchor="middle" x="234" y="-7" font-family="Helvetica,sans-Serif" font-size="10.00">exif_get_gps_tag_info</text>
</a>
</g>
</g>
<!-- Node1&#45;&gt;Node7 -->
<g id="edge6_Node000001_Node000007" class="edge">
<title>Node1&#45;&gt;Node7</title>
<g id="a_edge6_Node000001_Node000007"><a xlink:title=" ">
<path fill="none" stroke="#63b8ff" d="M96.45,-54.62C117.15,-47.23 146.28,-37 172,-28.5 177.73,-26.61 183.77,-24.66 189.74,-22.77"/>
<polygon fill="#63b8ff" stroke="#63b8ff" points="190.39,-26.24 198.88,-19.9 188.29,-19.56 190.39,-26.24"/>
</a>
</g>
</g>
<!-- Node4 -->
<g id="Node000004" class="node">
<title>Node4</title>
<g id="a_Node000004"><a xlink:href="exif-data_8c.html#a9403ed4fde8ef603e9db173eb122efaf" target="_top" xlink:title=" ">
<polygon fill="white" stroke="#666666" points="436,-111 332,-111 332,-92 436,-92 436,-111"/>
<text text-anchor="middle" x="384" y="-99" font-family="Helvetica,sans-Serif" font-size="10.00">exif_data_get_log</text>
</a>
</g>
</g>
<!-- Node3&#45;&gt;Node4 -->
<g id="edge3_Node000003_Node000004" class="edge">
<title>Node3&#45;&gt;Node4</title>
<g id="a_edge3_Node000003_Node000004"><a xlink:title=" ">
<path fill="none" stroke="#63b8ff" d="M281.83,-89.2C294.08,-90.68 307.48,-92.31 320.4,-93.89"/>
<polygon fill="#63b8ff" stroke="#63b8ff" points="319.75,-97.33 330.1,-95.07 320.59,-90.38 319.75,-97.33"/>
</a>
</g>
</g>
<!-- Node5 -->
<g id="Node000005" class="node">
<title>Node5</title>
<g id="a_Node000005"><a xlink:href="exif-mem_8c.html#a68be7c7afc8cff75adc3b1a28b5ae9a2" target="_top" xlink:title=" ">
<polygon fill="white" stroke="#666666" points="431.5,-74 336.5,-74 336.5,-55 431.5,-55 431.5,-74"/>
<text text-anchor="middle" x="384" y="-62" font-family="Helvetica,sans-Serif" font-size="10.00">exif_mem_alloc</text>
</a>
</g>
</g>
<!-- Node3&#45;&gt;Node5 -->
<g id="edge4_Node000003_Node000005" class="edge">
<title>Node3&#45;&gt;Node5</title>
<g id="a_edge4_Node000003_Node000005"><a xlink:title=" ">
<path fill="none" stroke="#63b8ff" d="M281.83,-77.49C295.53,-75.73 310.67,-73.79 324.97,-71.95"/>
<polygon fill="#63b8ff" stroke="#63b8ff" points="325.25,-75.44 334.72,-70.7 324.36,-68.5 325.25,-75.44"/>
</a>
</g>
</g>
</g>
</svg>
