<?xml version="1.0" encoding="UTF-8" standalone="no"?>
<!DOCTYPE svg PUBLIC "-//W3C//DTD SVG 1.1//EN"
 "http://www.w3.org/Graphics/SVG/1.1/DTD/svg11.dtd">
<!-- Generated by graphviz version 2.44.1 (0)
 -->
<!-- Title: exif_tag_get_description Pages: 1 -->
<svg width="620pt" height="91pt"
 viewBox="0.00 0.00 620.00 91.00" xmlns="http://www.w3.org/2000/svg" xmlns:xlink="http://www.w3.org/1999/xlink">
<g id="graph0" class="graph" transform="scale(1 1) rotate(0) translate(4 87)">
<title>exif_tag_get_description</title>
<polygon fill="white" stroke="transparent" points="-4,4 -4,-87 616,-87 616,4 -4,4"/>
<!-- Node1 -->
<g id="node1" class="node">
<title>Node1</title>
<g id="a_node1"><a xlink:title=" ">
<polygon fill="#bfbfbf" stroke="black" points="0,-22.5 0,-41.5 137,-41.5 137,-22.5 0,-22.5"/>
<text text-anchor="middle" x="68.5" y="-29.5" font-family="Helvetica,sans-Serif" font-size="10.00">exif_tag_get_description</text>
</a>
</g>
</g>
<!-- Node2 -->
<g id="node2" class="node">
<title>Node2</title>
<g id="a_node2"><a xlink:href="exif-tag_8c.html#afd8e9f0aaadbd22fa007f58789279d9c" target="_top" xlink:title="Return a verbose textual description of the given tag when found in the given IFD.">
<polygon fill="white" stroke="black" points="173,-39 173,-69 310,-69 310,-39 173,-39"/>
<text text-anchor="start" x="181" y="-57" font-family="Helvetica,sans-Serif" font-size="10.00">exif_tag_get_description</text>
<text text-anchor="middle" x="241.5" y="-46" font-family="Helvetica,sans-Serif" font-size="10.00">_in_ifd</text>
</a>
</g>
</g>
<!-- Node1&#45;&gt;Node2 -->
<g id="edge1" class="edge">
<title>Node1&#45;&gt;Node2</title>
<path fill="none" stroke="midnightblue" d="M137.08,-40.69C145.54,-41.78 154.24,-42.9 162.83,-44.01"/>
<polygon fill="midnightblue" stroke="midnightblue" points="162.48,-47.49 172.85,-45.3 163.38,-40.55 162.48,-47.49"/>
</g>
<!-- Node6 -->
<g id="node6" class="node">
<title>Node6</title>
<g id="a_node6"><a xlink:href="exif-tag_8c.html#ab05bf3c8af3747529c62226eb35226bb" target="_top" xlink:title=" ">
<polygon fill="white" stroke="black" points="189,-0.5 189,-19.5 294,-19.5 294,-0.5 189,-0.5"/>
<text text-anchor="middle" x="241.5" y="-7.5" font-family="Helvetica,sans-Serif" font-size="10.00">exif_tag_get_stuff</text>
</a>
</g>
</g>
<!-- Node1&#45;&gt;Node6 -->
<g id="edge5" class="edge">
<title>Node1&#45;&gt;Node6</title>
<path fill="none" stroke="midnightblue" d="M137.08,-23.31C150.85,-21.53 165.26,-19.68 178.8,-17.94"/>
<polygon fill="midnightblue" stroke="midnightblue" points="179.49,-21.38 188.97,-16.63 178.6,-14.43 179.49,-21.38"/>
</g>
<!-- Node3 -->
<g id="node3" class="node">
<title>Node3</title>
<g id="a_node3"><a xlink:href="exif-tag_8c.html#a389f8ff3411e0525b28367892f1e78d3" target="_top" xlink:title="Finds the first entry in the EXIF tag table with the given tag number using a binary search.">
<polygon fill="white" stroke="black" points="346,-44.5 346,-63.5 457,-63.5 457,-44.5 346,-44.5"/>
<text text-anchor="middle" x="401.5" y="-51.5" font-family="Helvetica,sans-Serif" font-size="10.00">exif_tag_table_first</text>
</a>
</g>
</g>
<!-- Node2&#45;&gt;Node3 -->
<g id="edge2" class="edge">
<title>Node2&#45;&gt;Node3</title>
<path fill="none" stroke="midnightblue" d="M310.42,-54C318.87,-54 327.48,-54 335.87,-54"/>
<polygon fill="midnightblue" stroke="midnightblue" points="335.97,-57.5 345.97,-54 335.97,-50.5 335.97,-57.5"/>
</g>
<!-- Node4 -->
<g id="node4" class="node">
<title>Node4</title>
<g id="a_node4"><a xlink:href="exif-tag_8c.html#a87563ee64809f5f0deb4d780098508c1" target="_top" xlink:title="Return the number of entries in the EXIF tag table, including the terminating NULL entry.">
<polygon fill="white" stroke="black" points="493,-63.5 493,-82.5 612,-82.5 612,-63.5 493,-63.5"/>
<text text-anchor="middle" x="552.5" y="-70.5" font-family="Helvetica,sans-Serif" font-size="10.00">exif_tag_table_count</text>
</a>
</g>
</g>
<!-- Node3&#45;&gt;Node4 -->
<g id="edge3" class="edge">
<title>Node3&#45;&gt;Node4</title>
<path fill="none" stroke="midnightblue" d="M457.14,-60.97C465.49,-62.03 474.21,-63.14 482.82,-64.24"/>
<polygon fill="midnightblue" stroke="midnightblue" points="482.5,-67.73 492.86,-65.52 483.38,-60.79 482.5,-67.73"/>
</g>
<!-- Node5 -->
<g id="node5" class="node">
<title>Node5</title>
<g id="a_node5"><a xlink:href="exif-tag_8c.html#a220c1b18832f113bc84ff9551754915f" target="_top" xlink:title="Compares the tag with that in entry.">
<polygon fill="white" stroke="black" points="518.5,-25.5 518.5,-44.5 586.5,-44.5 586.5,-25.5 518.5,-25.5"/>
<text text-anchor="middle" x="552.5" y="-32.5" font-family="Helvetica,sans-Serif" font-size="10.00">match_tag</text>
</a>
</g>
</g>
<!-- Node3&#45;&gt;Node5 -->
<g id="edge4" class="edge">
<title>Node3&#45;&gt;Node5</title>
<path fill="none" stroke="midnightblue" d="M457.14,-47.03C473.9,-44.9 492.1,-42.57 508.01,-40.55"/>
<polygon fill="midnightblue" stroke="midnightblue" points="508.62,-44 518.1,-39.26 507.74,-37.05 508.62,-44"/>
</g>
</g>
</svg>
