<?xml version="1.0" encoding="UTF-8" standalone="no"?>
<!DOCTYPE svg PUBLIC "-//W3C//DTD SVG 1.1//EN"
 "http://www.w3.org/Graphics/SVG/1.1/DTD/svg11.dtd">
<!-- Generated by graphviz version 7.0.1 (0)
 -->
<!-- Title: exif_loader_free Pages: 1 -->
<svg width="623pt" height="141pt"
 viewBox="0.00 0.00 623.00 141.00" xmlns="http://www.w3.org/2000/svg" xmlns:xlink="http://www.w3.org/1999/xlink">
<g id="graph0" class="graph" transform="scale(1 1) rotate(0) translate(4 137)">
<title>exif_loader_free</title>
<!-- Node1 -->
<g id="Node000001" class="node">
<title>Node1</title>
<g id="a_Node000001"><a xlink:title=" ">
<polygon fill="#999999" stroke="#666666" points="96,-76 0,-76 0,-57 96,-57 96,-76"/>
<text text-anchor="middle" x="48" y="-64" font-family="Helvetica,sans-Serif" font-size="10.00">exif_loader_free</text>
</a>
</g>
</g>
<!-- Node2 -->
<g id="Node000002" class="node">
<title>Node2</title>
<g id="a_Node000002"><a xlink:href="exif-loader_8c.html#a080d8ebb5006c1306a3a798ff60253a5" target="_top" xlink:title="Free any data previously loaded and reset the ExifLoader to its newly&#45;initialized state.">
<polygon fill="white" stroke="#666666" points="355,-133 254,-133 254,-114 355,-114 355,-133"/>
<text text-anchor="middle" x="304.5" y="-121" font-family="Helvetica,sans-Serif" font-size="10.00">exif_loader_reset</text>
</a>
</g>
</g>
<!-- Node1&#45;&gt;Node2 -->
<g id="edge1_Node000001_Node000002" class="edge">
<title>Node1&#45;&gt;Node2</title>
<g id="a_edge1_Node000001_Node000002"><a xlink:title=" ">
<path fill="none" stroke="#63b8ff" d="M70.02,-76.49C86.52,-83.92 110.26,-93.75 132,-99.5 168.01,-109.03 209.33,-114.96 242.39,-118.54"/>
<polygon fill="#63b8ff" stroke="#63b8ff" points="241.91,-122 252.21,-119.55 242.62,-115.04 241.91,-122"/>
</a>
</g>
</g>
<!-- Node3 -->
<g id="Node000003" class="node">
<title>Node3</title>
<g id="a_Node000003"><a xlink:href="exif-mem_8c.html#a43190b81b4b4bdb4ffb89bfb612051b1" target="_top" xlink:title=" ">
<polygon fill="white" stroke="#666666" points="615,-76 524,-76 524,-57 615,-57 615,-76"/>
<text text-anchor="middle" x="569.5" y="-64" font-family="Helvetica,sans-Serif" font-size="10.00">exif_mem_free</text>
</a>
</g>
</g>
<!-- Node1&#45;&gt;Node3 -->
<g id="edge8_Node000001_Node000003" class="edge">
<title>Node1&#45;&gt;Node3</title>
<g id="a_edge8_Node000001_Node000003"><a xlink:title=" ">
<path fill="none" stroke="#63b8ff" d="M96.43,-67.99C176.95,-70.27 345.52,-74.04 488,-70.5 495.89,-70.3 504.21,-70 512.39,-69.65"/>
<polygon fill="#63b8ff" stroke="#63b8ff" points="512.47,-73.15 522.29,-69.19 512.14,-66.15 512.47,-73.15"/>
</a>
</g>
</g>
<!-- Node4 -->
<g id="Node000004" class="node">
<title>Node4</title>
<g id="a_Node000004"><a xlink:href="exif-log_8c.html#a7a9b738a7429197d68c80ffedac7d8fb" target="_top" xlink:title=" ">
<polygon fill="white" stroke="#666666" points="218,-57 132,-57 132,-38 218,-38 218,-57"/>
<text text-anchor="middle" x="175" y="-45" font-family="Helvetica,sans-Serif" font-size="10.00">exif_log_unref</text>
</a>
</g>
</g>
<!-- Node1&#45;&gt;Node4 -->
<g id="edge3_Node000001_Node000004" class="edge">
<title>Node1&#45;&gt;Node4</title>
<g id="a_edge3_Node000001_Node000004"><a xlink:title=" ">
<path fill="none" stroke="#63b8ff" d="M96.26,-59.32C104.15,-58.12 112.39,-56.86 120.43,-55.64"/>
<polygon fill="#63b8ff" stroke="#63b8ff" points="120.75,-59.13 130.11,-54.17 119.7,-52.21 120.75,-59.13"/>
</a>
</g>
</g>
<!-- Node6 -->
<g id="Node000006" class="node">
<title>Node6</title>
<g id="a_Node000006"><a xlink:href="exif-mem_8c.html#a66744e0987af08c443df247ce55f7d87" target="_top" xlink:title="Unrefcount an ExifMem.">
<polygon fill="white" stroke="#666666" points="488,-19 391,-19 391,0 488,0 488,-19"/>
<text text-anchor="middle" x="439.5" y="-7" font-family="Helvetica,sans-Serif" font-size="10.00">exif_mem_unref</text>
</a>
</g>
</g>
<!-- Node1&#45;&gt;Node6 -->
<g id="edge9_Node000001_Node000006" class="edge">
<title>Node1&#45;&gt;Node6</title>
<g id="a_edge9_Node000001_Node000006"><a xlink:title=" ">
<path fill="none" stroke="#63b8ff" d="M66.48,-56.51C82.84,-47.69 108.26,-35.37 132,-29.5 216.19,-8.7 317.11,-6.25 379.52,-7.24"/>
<polygon fill="#63b8ff" stroke="#63b8ff" points="379.13,-10.73 389.2,-7.43 379.27,-3.73 379.13,-10.73"/>
</a>
</g>
</g>
<!-- Node2&#45;&gt;Node3 -->
<g id="edge2_Node000002_Node000003" class="edge">
<title>Node2&#45;&gt;Node3</title>
<g id="a_edge2_Node000002_Node000003"><a xlink:title=" ">
<path fill="none" stroke="#63b8ff" d="M355.36,-120.43C392.43,-117.31 443.99,-111.2 488,-99.5 505.15,-94.94 523.51,-87.61 538.36,-81.02"/>
<polygon fill="#63b8ff" stroke="#63b8ff" points="539.47,-84.37 547.11,-77.03 536.56,-78 539.47,-84.37"/>
</a>
</g>
</g>
<!-- Node5 -->
<g id="Node000005" class="node">
<title>Node5</title>
<g id="a_Node000005"><a xlink:href="exif-log_8c.html#acd0808d6d5be73f28059797c2e2e67dc" target="_top" xlink:title="Delete instance of ExifLog.">
<polygon fill="white" stroke="#666666" points="344.5,-57 264.5,-57 264.5,-38 344.5,-38 344.5,-57"/>
<text text-anchor="middle" x="304.5" y="-45" font-family="Helvetica,sans-Serif" font-size="10.00">exif_log_free</text>
</a>
</g>
</g>
<!-- Node4&#45;&gt;Node5 -->
<g id="edge4_Node000004_Node000005" class="edge">
<title>Node4&#45;&gt;Node5</title>
<g id="a_edge4_Node000004_Node000005"><a xlink:title=" ">
<path fill="none" stroke="#63b8ff" d="M218.46,-47.5C229.54,-47.5 241.59,-47.5 253.05,-47.5"/>
<polygon fill="#63b8ff" stroke="#63b8ff" points="252.73,-51 262.73,-47.5 252.73,-44 252.73,-51"/>
</a>
</g>
</g>
<!-- Node5&#45;&gt;Node3 -->
<g id="edge5_Node000005_Node000003" class="edge">
<title>Node5&#45;&gt;Node3</title>
<g id="a_edge5_Node000005_Node000003"><a xlink:title=" ">
<path fill="none" stroke="#63b8ff" d="M344.87,-50.34C389.28,-53.55 461.84,-58.79 512.22,-62.43"/>
<polygon fill="#63b8ff" stroke="#63b8ff" points="511.83,-65.91 522.05,-63.14 512.33,-58.93 511.83,-65.91"/>
</a>
</g>
</g>
<!-- Node5&#45;&gt;Node6 -->
<g id="edge6_Node000005_Node000006" class="edge">
<title>Node5&#45;&gt;Node6</title>
<g id="a_edge6_Node000005_Node000006"><a xlink:title=" ">
<path fill="none" stroke="#63b8ff" d="M340.44,-37.52C356.48,-32.93 375.7,-27.44 392.86,-22.54"/>
<polygon fill="#63b8ff" stroke="#63b8ff" points="393.68,-25.95 402.33,-19.83 391.76,-19.22 393.68,-25.95"/>
</a>
</g>
</g>
<!-- Node6&#45;&gt;Node3 -->
<g id="edge7_Node000006_Node000003" class="edge">
<title>Node6&#45;&gt;Node3</title>
<g id="a_edge7_Node000006_Node000003"><a xlink:title=" ">
<path fill="none" stroke="#63b8ff" d="M462.8,-19.43C483.08,-28.46 513.26,-41.9 536.18,-52.11"/>
<polygon fill="#63b8ff" stroke="#63b8ff" points="534.52,-55.2 545.08,-56.07 537.37,-48.8 534.52,-55.2"/>
</a>
</g>
</g>
</g>
</svg>
