<?xml version="1.0" encoding="UTF-8" standalone="no"?>
<!DOCTYPE svg PUBLIC "-//W3C//DTD SVG 1.1//EN"
 "http://www.w3.org/Graphics/SVG/1.1/DTD/svg11.dtd">
<!-- Generated by graphviz version 7.0.1 (0)
 -->
<!-- Title: libexif/exif&#45;format.c Pages: 1 -->
<svg width="305pt" height="137pt"
 viewBox="0.00 0.00 304.80 137.00" xmlns="http://www.w3.org/2000/svg" xmlns:xlink="http://www.w3.org/1999/xlink">
<g id="graph0" class="graph" transform="scale(1 1) rotate(0) translate(4 133)">
<title>libexif/exif&#45;format.c</title>
<!-- Node1 -->
<g id="Node000001" class="node">
<title>Node1</title>
<g id="a_Node000001"><a xlink:title=" ">
<polygon fill="#999999" stroke="#666666" points="183.8,-129 70.8,-129 70.8,-110 183.8,-110 183.8,-129"/>
<text text-anchor="middle" x="127.3" y="-117" font-family="Helvetica,sans-Serif" font-size="10.00">libexif/exif&#45;format.c</text>
</a>
</g>
</g>
<!-- Node2 -->
<g id="Node000002" class="node">
<title>Node2</title>
<g id="a_Node000002"><a xlink:title=" ">
<polygon fill="#e0e0e0" stroke="#999999" points="113.3,-19 57.3,-19 57.3,0 113.3,0 113.3,-19"/>
<text text-anchor="middle" x="85.3" y="-7" font-family="Helvetica,sans-Serif" font-size="10.00">config.h</text>
</a>
</g>
</g>
<!-- Node1&#45;&gt;Node2 -->
<g id="edge1_Node000001_Node000002" class="edge">
<title>Node1&#45;&gt;Node2</title>
<g id="a_edge1_Node000001_Node000002"><a xlink:title=" ">
<path fill="none" stroke="#63b8ff" d="M70.43,-112.4C45.87,-106.63 19.36,-95.47 4.3,-74 -10.99,-52.21 18.94,-34.28 46.64,-23.09"/>
<polygon fill="#63b8ff" stroke="#63b8ff" points="47.53,-26.5 55.64,-19.68 45.04,-19.95 47.53,-26.5"/>
</a>
</g>
</g>
<!-- Node3 -->
<g id="Node000003" class="node">
<title>Node3</title>
<g id="a_Node000003"><a xlink:href="exif-format_8h.html" target="_top" xlink:title="Handling native EXIF data types.">
<polygon fill="white" stroke="#666666" points="126.8,-74 13.8,-74 13.8,-55 126.8,-55 126.8,-74"/>
<text text-anchor="middle" x="70.3" y="-62" font-family="Helvetica,sans-Serif" font-size="10.00">libexif/exif&#45;format.h</text>
</a>
</g>
</g>
<!-- Node1&#45;&gt;Node3 -->
<g id="edge2_Node000001_Node000003" class="edge">
<title>Node1&#45;&gt;Node3</title>
<g id="a_edge2_Node000001_Node000003"><a xlink:title=" ">
<path fill="none" stroke="#63b8ff" d="M117.63,-109.51C109.55,-102 97.83,-91.1 88.07,-82.03"/>
<polygon fill="#63b8ff" stroke="#63b8ff" points="90.64,-79.63 80.93,-75.39 85.87,-84.76 90.64,-79.63"/>
</a>
</g>
</g>
<!-- Node4 -->
<g id="Node000004" class="node">
<title>Node4</title>
<g id="a_Node000004"><a xlink:href="i18n_8h.html" target="_top" xlink:title=" ">
<polygon fill="white" stroke="#666666" points="225.3,-74 145.3,-74 145.3,-55 225.3,-55 225.3,-74"/>
<text text-anchor="middle" x="185.3" y="-62" font-family="Helvetica,sans-Serif" font-size="10.00">libexif/i18n.h</text>
</a>
</g>
</g>
<!-- Node1&#45;&gt;Node4 -->
<g id="edge3_Node000001_Node000004" class="edge">
<title>Node1&#45;&gt;Node4</title>
<g id="a_edge3_Node000001_Node000004"><a xlink:title=" ">
<path fill="none" stroke="#63b8ff" d="M137.14,-109.51C145.35,-102 157.28,-91.1 167.21,-82.03"/>
<polygon fill="#63b8ff" stroke="#63b8ff" points="169.46,-84.71 174.49,-75.38 164.74,-79.54 169.46,-84.71"/>
</a>
</g>
</g>
<!-- Node5 -->
<g id="Node000005" class="node">
<title>Node5</title>
<g id="a_Node000005"><a xlink:title=" ">
<polygon fill="#e0e0e0" stroke="#999999" points="296.8,-74 243.8,-74 243.8,-55 296.8,-55 296.8,-74"/>
<text text-anchor="middle" x="270.3" y="-62" font-family="Helvetica,sans-Serif" font-size="10.00">stdlib.h</text>
</a>
</g>
</g>
<!-- Node1&#45;&gt;Node5 -->
<g id="edge5_Node000001_Node000005" class="edge">
<title>Node1&#45;&gt;Node5</title>
<g id="a_edge5_Node000001_Node000005"><a xlink:title=" ">
<path fill="none" stroke="#63b8ff" d="M151.55,-109.51C174.7,-100.93 209.81,-87.92 235.85,-78.27"/>
<polygon fill="#63b8ff" stroke="#63b8ff" points="236.82,-81.64 244.98,-74.88 234.38,-75.08 236.82,-81.64"/>
</a>
</g>
</g>
<!-- Node4&#45;&gt;Node2 -->
<g id="edge4_Node000004_Node000002" class="edge">
<title>Node4&#45;&gt;Node2</title>
<g id="a_edge4_Node000004_Node000002"><a xlink:title=" ">
<path fill="none" stroke="#63b8ff" d="M168.33,-54.51C152.94,-46.35 129.99,-34.19 112.11,-24.71"/>
<polygon fill="#63b8ff" stroke="#63b8ff" points="113.82,-21.66 103.35,-20.07 110.54,-27.84 113.82,-21.66"/>
</a>
</g>
</g>
</g>
</svg>
