<?xml version="1.0" encoding="UTF-8" standalone="no"?>
<!DOCTYPE svg PUBLIC "-//W3C//DTD SVG 1.1//EN"
 "http://www.w3.org/Graphics/SVG/1.1/DTD/svg11.dtd">
<!-- Generated by graphviz version 2.44.1 (0)
 -->
<!-- Title: exif_mnote_data_apple_set_byte_order Pages: 1 -->
<svg width="707pt" height="474pt"
 viewBox="0.00 0.00 707.00 474.00" xmlns="http://www.w3.org/2000/svg" xmlns:xlink="http://www.w3.org/1999/xlink">
<g id="graph0" class="graph" transform="scale(1 1) rotate(0) translate(4 470)">
<title>exif_mnote_data_apple_set_byte_order</title>
<polygon fill="white" stroke="transparent" points="-4,4 -4,-470 703,-470 703,4 -4,4"/>
<!-- Node1 -->
<g id="node1" class="node">
<title>Node1</title>
<g id="a_node1"><a xlink:title=" ">
<polygon fill="#bfbfbf" stroke="black" points="0,-254 0,-284 131,-284 131,-254 0,-254"/>
<text text-anchor="start" x="8" y="-272" font-family="Helvetica,sans-Serif" font-size="10.00">exif_mnote_data_apple</text>
<text text-anchor="middle" x="65.5" y="-261" font-family="Helvetica,sans-Serif" font-size="10.00">_set_byte_order</text>
</a>
</g>
</g>
<!-- Node2 -->
<g id="node2" class="node">
<title>Node2</title>
<g id="a_node2"><a xlink:href="exif-utils_8c.html#a54ef3b86ffeb643e9c4434b85ccf2992" target="_top" xlink:title=" ">
<polygon fill="white" stroke="black" points="167,-232 167,-262 280,-262 280,-232 167,-232"/>
<text text-anchor="start" x="175" y="-250" font-family="Helvetica,sans-Serif" font-size="10.00">exif_array_set_byte</text>
<text text-anchor="middle" x="223.5" y="-239" font-family="Helvetica,sans-Serif" font-size="10.00">_order</text>
</a>
</g>
</g>
<!-- Node1&#45;&gt;Node2 -->
<g id="edge1" class="edge">
<title>Node1&#45;&gt;Node2</title>
<path fill="none" stroke="midnightblue" d="M131.3,-259.86C139.63,-258.69 148.17,-257.48 156.52,-256.3"/>
<polygon fill="midnightblue" stroke="midnightblue" points="157.18,-259.75 166.59,-254.88 156.2,-252.82 157.18,-259.75"/>
</g>
<!-- Node3 -->
<g id="node3" class="node">
<title>Node3</title>
<g id="a_node3"><a xlink:href="exif-format_8c.html#a924038efe0cd8ebade8f44619dd794f3" target="_top" xlink:title="Return the raw size of the given EXIF data type.">
<polygon fill="white" stroke="black" points="316,-446.5 316,-465.5 435,-465.5 435,-446.5 316,-446.5"/>
<text text-anchor="middle" x="375.5" y="-453.5" font-family="Helvetica,sans-Serif" font-size="10.00">exif_format_get_size</text>
</a>
</g>
</g>
<!-- Node1&#45;&gt;Node3 -->
<g id="edge23" class="edge">
<title>Node1&#45;&gt;Node3</title>
<path fill="none" stroke="midnightblue" d="M91.25,-284.17C136.03,-311.59 233.5,-371.19 316,-421 327.05,-427.67 339.3,-435.01 349.73,-441.24"/>
<polygon fill="midnightblue" stroke="midnightblue" points="347.96,-444.26 358.34,-446.38 351.55,-438.25 347.96,-444.26"/>
</g>
<!-- Node2&#45;&gt;Node3 -->
<g id="edge2" class="edge">
<title>Node2&#45;&gt;Node3</title>
<path fill="none" stroke="midnightblue" d="M232.05,-262.21C242.74,-283.75 262.88,-324.37 280,-359 296.03,-391.43 289.56,-407.32 316,-432 320.16,-435.89 325.04,-439.18 330.17,-441.97"/>
<polygon fill="midnightblue" stroke="midnightblue" points="329.05,-445.31 339.59,-446.45 332.06,-438.99 329.05,-445.31"/>
</g>
<!-- Node4 -->
<g id="node4" class="node">
<title>Node4</title>
<g id="a_node4"><a xlink:href="exif-utils_8c.html#a4ad94614630897766dd0a5c9bc2a59bf" target="_top" xlink:title="Retrieve an ExifLong value from memory.">
<polygon fill="white" stroke="black" points="481.5,-370.5 481.5,-389.5 564.5,-389.5 564.5,-370.5 481.5,-370.5"/>
<text text-anchor="middle" x="523" y="-377.5" font-family="Helvetica,sans-Serif" font-size="10.00">exif_get_long</text>
</a>
</g>
</g>
<!-- Node2&#45;&gt;Node4 -->
<g id="edge3" class="edge">
<title>Node2&#45;&gt;Node4</title>
<path fill="none" stroke="midnightblue" d="M231.26,-262.13C247.4,-297.48 288.85,-383.65 316,-399 371.29,-430.25 448.48,-409.27 490.94,-393.3"/>
<polygon fill="midnightblue" stroke="midnightblue" points="492.41,-396.48 500.45,-389.58 489.86,-389.96 492.41,-396.48"/>
</g>
<!-- Node5 -->
<g id="node5" class="node">
<title>Node5</title>
<g id="a_node5"><a xlink:href="exif-utils_8c.html#a56b96f076a13da6ed926e1ef29cb2dc3" target="_top" xlink:title="Retrieve an ExifSLong value from memory.">
<polygon fill="white" stroke="black" points="611,-332.5 611,-351.5 699,-351.5 699,-332.5 611,-332.5"/>
<text text-anchor="middle" x="655" y="-339.5" font-family="Helvetica,sans-Serif" font-size="10.00">exif_get_slong</text>
</a>
</g>
</g>
<!-- Node2&#45;&gt;Node5 -->
<g id="edge9" class="edge">
<title>Node2&#45;&gt;Node5</title>
<path fill="none" stroke="midnightblue" d="M237.19,-262.3C253.35,-280.51 283.14,-310.08 316,-323 410.82,-360.28 532.21,-355.79 600.71,-349"/>
<polygon fill="midnightblue" stroke="midnightblue" points="601.25,-352.46 610.83,-347.94 600.52,-345.5 601.25,-352.46"/>
</g>
<!-- Node6 -->
<g id="node6" class="node">
<title>Node6</title>
<g id="a_node6"><a xlink:href="exif-utils_8c.html#a1feb547c289aa57a4d2119338b03706c" target="_top" xlink:title="Retrieve an ExifRational value from memory.">
<polygon fill="white" stroke="black" points="326,-370.5 326,-389.5 425,-389.5 425,-370.5 326,-370.5"/>
<text text-anchor="middle" x="375.5" y="-377.5" font-family="Helvetica,sans-Serif" font-size="10.00">exif_get_rational</text>
</a>
</g>
</g>
<!-- Node2&#45;&gt;Node6 -->
<g id="edge5" class="edge">
<title>Node2&#45;&gt;Node6</title>
<path fill="none" stroke="midnightblue" d="M233.67,-262.03C248.42,-285.09 279.49,-329.33 316,-356 321.48,-360 327.72,-363.47 334.04,-366.43"/>
<polygon fill="midnightblue" stroke="midnightblue" points="332.71,-369.67 343.28,-370.41 335.48,-363.24 332.71,-369.67"/>
</g>
<!-- Node7 -->
<g id="node7" class="node">
<title>Node7</title>
<g id="a_node7"><a xlink:href="exif-utils_8c.html#a4b4acf537a8c6b9405e7b53be868e4d7" target="_top" xlink:title="Retrieve an ExifShort value from memory.">
<polygon fill="white" stroke="black" points="332.5,-294.5 332.5,-313.5 418.5,-313.5 418.5,-294.5 332.5,-294.5"/>
<text text-anchor="middle" x="375.5" y="-301.5" font-family="Helvetica,sans-Serif" font-size="10.00">exif_get_short</text>
</a>
</g>
</g>
<!-- Node2&#45;&gt;Node7 -->
<g id="edge7" class="edge">
<title>Node2&#45;&gt;Node7</title>
<path fill="none" stroke="midnightblue" d="M264.3,-262.13C287.74,-271.03 317.11,-282.19 339.63,-290.75"/>
<polygon fill="midnightblue" stroke="midnightblue" points="338.55,-294.08 349.14,-294.36 341.04,-287.54 338.55,-294.08"/>
</g>
<!-- Node8 -->
<g id="node8" class="node">
<title>Node8</title>
<g id="a_node8"><a xlink:href="exif-utils_8c.html#a6baf094a71392f9cea23ad633ec13c8b" target="_top" xlink:title="Retrieve an ExifSShort value from memory.">
<polygon fill="white" stroke="black" points="477,-284.5 477,-303.5 569,-303.5 569,-284.5 477,-284.5"/>
<text text-anchor="middle" x="523" y="-291.5" font-family="Helvetica,sans-Serif" font-size="10.00">exif_get_sshort</text>
</a>
</g>
</g>
<!-- Node2&#45;&gt;Node8 -->
<g id="edge12" class="edge">
<title>Node2&#45;&gt;Node8</title>
<path fill="none" stroke="midnightblue" d="M280.11,-255.79C333.51,-264.22 413.71,-276.89 466.93,-285.3"/>
<polygon fill="midnightblue" stroke="midnightblue" points="466.45,-288.77 476.87,-286.87 467.54,-281.85 466.45,-288.77"/>
</g>
<!-- Node9 -->
<g id="node9" class="node">
<title>Node9</title>
<g id="a_node9"><a xlink:href="exif-utils_8c.html#adb97c3499488d5642a82df1cb16dc2cb" target="_top" xlink:title="Retrieve an ExifSRational value from memory.">
<polygon fill="white" stroke="black" points="471,-227.5 471,-246.5 575,-246.5 575,-227.5 471,-227.5"/>
<text text-anchor="middle" x="523" y="-234.5" font-family="Helvetica,sans-Serif" font-size="10.00">exif_get_srational</text>
</a>
</g>
</g>
<!-- Node2&#45;&gt;Node9 -->
<g id="edge10" class="edge">
<title>Node2&#45;&gt;Node9</title>
<path fill="none" stroke="midnightblue" d="M280.11,-245.13C331.35,-243.41 407.27,-240.86 460.34,-239.07"/>
<polygon fill="midnightblue" stroke="midnightblue" points="460.76,-242.56 470.64,-238.73 460.53,-235.56 460.76,-242.56"/>
</g>
<!-- Node10 -->
<g id="node10" class="node">
<title>Node10</title>
<g id="a_node10"><a xlink:href="exif-utils_8c.html#ac90147d0cc97bec7a577bf9576191bf8" target="_top" xlink:title="Store an ExifLong value into memory in EXIF format.">
<polygon fill="white" stroke="black" points="482,-142.5 482,-161.5 564,-161.5 564,-142.5 482,-142.5"/>
<text text-anchor="middle" x="523" y="-149.5" font-family="Helvetica,sans-Serif" font-size="10.00">exif_set_long</text>
</a>
</g>
</g>
<!-- Node2&#45;&gt;Node10 -->
<g id="edge13" class="edge">
<title>Node2&#45;&gt;Node10</title>
<path fill="none" stroke="midnightblue" d="M271.64,-231.95C329.79,-213.38 427.62,-182.14 482.18,-164.72"/>
<polygon fill="midnightblue" stroke="midnightblue" points="483.38,-168.01 491.84,-161.63 481.25,-161.34 483.38,-168.01"/>
</g>
<!-- Node11 -->
<g id="node11" class="node">
<title>Node11</title>
<g id="a_node11"><a xlink:href="exif-utils_8c.html#ae6e3b9d1663f9ab9bd462d73a310ca03" target="_top" xlink:title="Store an ExifSLong value into memory in EXIF format.">
<polygon fill="white" stroke="black" points="611.5,-104.5 611.5,-123.5 698.5,-123.5 698.5,-104.5 611.5,-104.5"/>
<text text-anchor="middle" x="655" y="-111.5" font-family="Helvetica,sans-Serif" font-size="10.00">exif_set_slong</text>
</a>
</g>
</g>
<!-- Node2&#45;&gt;Node11 -->
<g id="edge19" class="edge">
<title>Node2&#45;&gt;Node11</title>
<path fill="none" stroke="midnightblue" d="M231.46,-231.76C244.12,-206.08 273.58,-154.83 316,-133 407.34,-85.99 531.5,-94.32 601.1,-104.33"/>
<polygon fill="midnightblue" stroke="midnightblue" points="600.97,-107.85 611.38,-105.88 602.01,-100.93 600.97,-107.85"/>
</g>
<!-- Node12 -->
<g id="node12" class="node">
<title>Node12</title>
<g id="a_node12"><a xlink:href="exif-utils_8c.html#a400a16b1754150f721e9fca67ad89a52" target="_top" xlink:title="Store an ExifRational value into memory in EXIF format.">
<polygon fill="white" stroke="black" points="326.5,-142.5 326.5,-161.5 424.5,-161.5 424.5,-142.5 326.5,-142.5"/>
<text text-anchor="middle" x="375.5" y="-149.5" font-family="Helvetica,sans-Serif" font-size="10.00">exif_set_rational</text>
</a>
</g>
</g>
<!-- Node2&#45;&gt;Node12 -->
<g id="edge15" class="edge">
<title>Node2&#45;&gt;Node12</title>
<path fill="none" stroke="midnightblue" d="M241.05,-231.91C258.65,-216.41 287.81,-192.32 316,-176 322.66,-172.14 330.07,-168.6 337.3,-165.49"/>
<polygon fill="midnightblue" stroke="midnightblue" points="339.06,-168.55 346.98,-161.52 336.4,-162.07 339.06,-168.55"/>
</g>
<!-- Node13 -->
<g id="node13" class="node">
<title>Node13</title>
<g id="a_node13"><a xlink:href="exif-utils_8c.html#ad905d16e26b4052a1db34dbebdc37341" target="_top" xlink:title="Store an ExifShort value into memory in EXIF format.">
<polygon fill="white" stroke="black" points="332.5,-66.5 332.5,-85.5 418.5,-85.5 418.5,-66.5 332.5,-66.5"/>
<text text-anchor="middle" x="375.5" y="-73.5" font-family="Helvetica,sans-Serif" font-size="10.00">exif_set_short</text>
</a>
</g>
</g>
<!-- Node2&#45;&gt;Node13 -->
<g id="edge17" class="edge">
<title>Node2&#45;&gt;Node13</title>
<path fill="none" stroke="midnightblue" d="M230.16,-231.93C241.88,-202.65 271.46,-137.64 316,-100 320.67,-96.05 326.08,-92.68 331.69,-89.83"/>
<polygon fill="midnightblue" stroke="midnightblue" points="333.56,-92.83 341.21,-85.51 330.66,-86.46 333.56,-92.83"/>
</g>
<!-- Node14 -->
<g id="node14" class="node">
<title>Node14</title>
<g id="a_node14"><a xlink:href="exif-utils_8c.html#a6504651147702fc6db9a5cd4aa997023" target="_top" xlink:title="Store an ExifSShort value into memory in EXIF format.">
<polygon fill="white" stroke="black" points="477.5,-57.5 477.5,-76.5 568.5,-76.5 568.5,-57.5 477.5,-57.5"/>
<text text-anchor="middle" x="523" y="-64.5" font-family="Helvetica,sans-Serif" font-size="10.00">exif_set_sshort</text>
</a>
</g>
</g>
<!-- Node2&#45;&gt;Node14 -->
<g id="edge22" class="edge">
<title>Node2&#45;&gt;Node14</title>
<path fill="none" stroke="midnightblue" d="M226.42,-231.86C232.1,-194.27 252.6,-96.83 316,-57 368.6,-23.95 444.51,-40.29 487.99,-54.25"/>
<polygon fill="midnightblue" stroke="midnightblue" points="486.93,-57.59 497.53,-57.45 489.16,-50.95 486.93,-57.59"/>
</g>
<!-- Node15 -->
<g id="node15" class="node">
<title>Node15</title>
<g id="a_node15"><a xlink:href="exif-utils_8c.html#aca1790a72b1833dff1b0bf728052c3c5" target="_top" xlink:title="Store an ExifSRational value into memory in EXIF format.">
<polygon fill="white" stroke="black" points="471,-0.5 471,-19.5 575,-19.5 575,-0.5 471,-0.5"/>
<text text-anchor="middle" x="523" y="-7.5" font-family="Helvetica,sans-Serif" font-size="10.00">exif_set_srational</text>
</a>
</g>
</g>
<!-- Node2&#45;&gt;Node15 -->
<g id="edge20" class="edge">
<title>Node2&#45;&gt;Node15</title>
<path fill="none" stroke="midnightblue" d="M225.89,-231.96C230.47,-192.01 248.86,-82.88 316,-33 357.14,-2.44 416.25,1.24 460.61,-1.51"/>
<polygon fill="midnightblue" stroke="midnightblue" points="460.46,-5.01 470.7,-2.27 460.98,1.97 460.46,-5.01"/>
</g>
<!-- Node4&#45;&gt;Node5 -->
<g id="edge4" class="edge">
<title>Node4&#45;&gt;Node5</title>
<path fill="none" stroke="midnightblue" d="M556.8,-370.41C573.28,-365.6 593.44,-359.7 611.13,-354.53"/>
<polygon fill="midnightblue" stroke="midnightblue" points="612.59,-357.75 621.21,-351.59 610.63,-351.03 612.59,-357.75"/>
</g>
<!-- Node6&#45;&gt;Node4 -->
<g id="edge6" class="edge">
<title>Node6&#45;&gt;Node4</title>
<path fill="none" stroke="midnightblue" d="M425.35,-380C440.11,-380 456.34,-380 471.22,-380"/>
<polygon fill="midnightblue" stroke="midnightblue" points="471.27,-383.5 481.27,-380 471.27,-376.5 471.27,-383.5"/>
</g>
<!-- Node7&#45;&gt;Node8 -->
<g id="edge8" class="edge">
<title>Node7&#45;&gt;Node8</title>
<path fill="none" stroke="midnightblue" d="M418.58,-301.11C433.59,-300.08 450.73,-298.9 466.69,-297.8"/>
<polygon fill="midnightblue" stroke="midnightblue" points="467.23,-301.27 476.96,-297.1 466.75,-294.29 467.23,-301.27"/>
</g>
<!-- Node9&#45;&gt;Node5 -->
<g id="edge11" class="edge">
<title>Node9&#45;&gt;Node5</title>
<path fill="none" stroke="midnightblue" d="M537.6,-246.77C547.97,-254.32 562.56,-265.1 575,-275 596.09,-291.78 619.57,-311.87 635.4,-325.65"/>
<polygon fill="midnightblue" stroke="midnightblue" points="633.1,-328.29 642.93,-332.23 637.71,-323.02 633.1,-328.29"/>
</g>
<!-- Node10&#45;&gt;Node11 -->
<g id="edge14" class="edge">
<title>Node10&#45;&gt;Node11</title>
<path fill="none" stroke="midnightblue" d="M556.8,-142.41C573.28,-137.6 593.44,-131.7 611.13,-126.53"/>
<polygon fill="midnightblue" stroke="midnightblue" points="612.59,-129.75 621.21,-123.59 610.63,-123.03 612.59,-129.75"/>
</g>
<!-- Node12&#45;&gt;Node10 -->
<g id="edge16" class="edge">
<title>Node12&#45;&gt;Node10</title>
<path fill="none" stroke="midnightblue" d="M424.55,-152C439.61,-152 456.28,-152 471.51,-152"/>
<polygon fill="midnightblue" stroke="midnightblue" points="471.78,-155.5 481.78,-152 471.78,-148.5 471.78,-155.5"/>
</g>
<!-- Node13&#45;&gt;Node14 -->
<g id="edge18" class="edge">
<title>Node13&#45;&gt;Node14</title>
<path fill="none" stroke="midnightblue" d="M418.58,-73.4C433.73,-72.46 451.05,-71.39 467.12,-70.39"/>
<polygon fill="midnightblue" stroke="midnightblue" points="467.71,-73.86 477.47,-69.75 467.28,-66.88 467.71,-73.86"/>
</g>
<!-- Node15&#45;&gt;Node11 -->
<g id="edge21" class="edge">
<title>Node15&#45;&gt;Node11</title>
<path fill="none" stroke="midnightblue" d="M537.58,-19.8C547.94,-27.36 562.52,-38.15 575,-48 595.83,-64.44 619.08,-84.02 634.93,-97.56"/>
<polygon fill="midnightblue" stroke="midnightblue" points="633.04,-100.55 642.91,-104.4 637.6,-95.24 633.04,-100.55"/>
</g>
</g>
</svg>
