<?xml version="1.0" encoding="UTF-8" standalone="no"?>
<!DOCTYPE svg PUBLIC "-//W3C//DTD SVG 1.1//EN"
 "http://www.w3.org/Graphics/SVG/1.1/DTD/svg11.dtd">
<!-- Generated by graphviz version 2.44.1 (0)
 -->
<!-- Title: libexif/exif&#45;log.c Pages: 1 -->
<svg width="424pt" height="252pt"
 viewBox="0.00 0.00 424.00 252.00" xmlns="http://www.w3.org/2000/svg" xmlns:xlink="http://www.w3.org/1999/xlink">
<g id="graph0" class="graph" transform="scale(1 1) rotate(0) translate(4 248)">
<title>libexif/exif&#45;log.c</title>
<polygon fill="white" stroke="transparent" points="-4,4 -4,-248 420,-248 420,4 -4,4"/>
<!-- Node1 -->
<g id="node1" class="node">
<title>Node1</title>
<g id="a_node1"><a xlink:title=" ">
<polygon fill="#bfbfbf" stroke="black" points="179,-224.5 179,-243.5 274,-243.5 274,-224.5 179,-224.5"/>
<text text-anchor="middle" x="226.5" y="-231.5" font-family="Helvetica,sans-Serif" font-size="10.00">libexif/exif&#45;log.c</text>
</a>
</g>
</g>
<!-- Node2 -->
<g id="node2" class="node">
<title>Node2</title>
<g id="a_node2"><a xlink:title=" ">
<polygon fill="white" stroke="#bfbfbf" points="58.5,-112.5 58.5,-131.5 114.5,-131.5 114.5,-112.5 58.5,-112.5"/>
<text text-anchor="middle" x="86.5" y="-119.5" font-family="Helvetica,sans-Serif" font-size="10.00">config.h</text>
</a>
</g>
</g>
<!-- Node1&#45;&gt;Node2 -->
<g id="edge1" class="edge">
<title>Node1&#45;&gt;Node2</title>
<path fill="none" stroke="midnightblue" d="M178.85,-225.55C138.26,-218.12 84.5,-205.31 71.5,-188 61.22,-174.31 67.82,-154.74 75.23,-140.66"/>
<polygon fill="midnightblue" stroke="midnightblue" points="78.3,-142.34 80.29,-131.93 72.25,-138.83 78.3,-142.34"/>
</g>
<!-- Node3 -->
<g id="node3" class="node">
<title>Node3</title>
<g id="a_node3"><a xlink:href="exif-log_8h.html" target="_top" xlink:title="Log message infrastructure.">
<polygon fill="white" stroke="black" points="179,-168.5 179,-187.5 274,-187.5 274,-168.5 179,-168.5"/>
<text text-anchor="middle" x="226.5" y="-175.5" font-family="Helvetica,sans-Serif" font-size="10.00">libexif/exif&#45;log.h</text>
</a>
</g>
</g>
<!-- Node1&#45;&gt;Node3 -->
<g id="edge2" class="edge">
<title>Node1&#45;&gt;Node3</title>
<path fill="none" stroke="midnightblue" d="M226.5,-224.08C226.5,-217.01 226.5,-206.86 226.5,-197.99"/>
<polygon fill="midnightblue" stroke="midnightblue" points="230,-197.75 226.5,-187.75 223,-197.75 230,-197.75"/>
</g>
<!-- Node10 -->
<g id="node10" class="node">
<title>Node10</title>
<g id="a_node10"><a xlink:href="i18n_8h.html" target="_top" xlink:title=" ">
<polygon fill="white" stroke="black" points="80.5,-168.5 80.5,-187.5 160.5,-187.5 160.5,-168.5 80.5,-168.5"/>
<text text-anchor="middle" x="120.5" y="-175.5" font-family="Helvetica,sans-Serif" font-size="10.00">libexif/i18n.h</text>
</a>
</g>
</g>
<!-- Node1&#45;&gt;Node10 -->
<g id="edge9" class="edge">
<title>Node1&#45;&gt;Node10</title>
<path fill="none" stroke="midnightblue" d="M209.47,-224.32C192.47,-215.66 166.12,-202.24 146.51,-192.25"/>
<polygon fill="midnightblue" stroke="midnightblue" points="147.99,-189.08 137.49,-187.65 144.81,-195.31 147.99,-189.08"/>
</g>
<!-- Node11 -->
<g id="node11" class="node">
<title>Node11</title>
<g id="a_node11"><a xlink:title=" ">
<polygon fill="white" stroke="#bfbfbf" points="292,-168.5 292,-187.5 345,-187.5 345,-168.5 292,-168.5"/>
<text text-anchor="middle" x="318.5" y="-175.5" font-family="Helvetica,sans-Serif" font-size="10.00">stdlib.h</text>
</a>
</g>
</g>
<!-- Node1&#45;&gt;Node11 -->
<g id="edge11" class="edge">
<title>Node1&#45;&gt;Node11</title>
<path fill="none" stroke="midnightblue" d="M241.28,-224.32C255.77,-215.82 278.07,-202.73 294.99,-192.8"/>
<polygon fill="midnightblue" stroke="midnightblue" points="296.9,-195.74 303.76,-187.65 293.36,-189.7 296.9,-195.74"/>
</g>
<!-- Node12 -->
<g id="node12" class="node">
<title>Node12</title>
<g id="a_node12"><a xlink:title=" ">
<polygon fill="white" stroke="#bfbfbf" points="363,-168.5 363,-187.5 416,-187.5 416,-168.5 363,-168.5"/>
<text text-anchor="middle" x="389.5" y="-175.5" font-family="Helvetica,sans-Serif" font-size="10.00">string.h</text>
</a>
</g>
</g>
<!-- Node1&#45;&gt;Node12 -->
<g id="edge12" class="edge">
<title>Node1&#45;&gt;Node12</title>
<path fill="none" stroke="midnightblue" d="M252.33,-224.44C279.75,-215.36 323.28,-200.94 353.93,-190.78"/>
<polygon fill="midnightblue" stroke="midnightblue" points="355.4,-193.98 363.79,-187.52 353.2,-187.34 355.4,-193.98"/>
</g>
<!-- Node4 -->
<g id="node4" class="node">
<title>Node4</title>
<g id="a_node4"><a xlink:href="exif-mem_8h.html" target="_top" xlink:title="Define the ExifMem data type and the associated functions.">
<polygon fill="white" stroke="black" points="152.5,-112.5 152.5,-131.5 258.5,-131.5 258.5,-112.5 152.5,-112.5"/>
<text text-anchor="middle" x="205.5" y="-119.5" font-family="Helvetica,sans-Serif" font-size="10.00">libexif/exif&#45;mem.h</text>
</a>
</g>
</g>
<!-- Node3&#45;&gt;Node4 -->
<g id="edge3" class="edge">
<title>Node3&#45;&gt;Node4</title>
<path fill="none" stroke="midnightblue" d="M223.03,-168.08C220.19,-160.77 216.07,-150.18 212.54,-141.1"/>
<polygon fill="midnightblue" stroke="midnightblue" points="215.79,-139.8 208.9,-131.75 209.27,-142.34 215.79,-139.8"/>
</g>
<!-- Node9 -->
<g id="node9" class="node">
<title>Node9</title>
<g id="a_node9"><a xlink:title=" ">
<polygon fill="white" stroke="#bfbfbf" points="276.5,-112.5 276.5,-131.5 332.5,-131.5 332.5,-112.5 276.5,-112.5"/>
<text text-anchor="middle" x="304.5" y="-119.5" font-family="Helvetica,sans-Serif" font-size="10.00">stdarg.h</text>
</a>
</g>
</g>
<!-- Node3&#45;&gt;Node9 -->
<g id="edge8" class="edge">
<title>Node3&#45;&gt;Node9</title>
<path fill="none" stroke="midnightblue" d="M239.03,-168.32C251.09,-159.98 269.53,-147.21 283.77,-137.35"/>
<polygon fill="midnightblue" stroke="midnightblue" points="285.77,-140.22 292,-131.65 281.78,-134.47 285.77,-140.22"/>
</g>
<!-- Node5 -->
<g id="node5" class="node">
<title>Node5</title>
<g id="a_node5"><a xlink:href="exif-utils_8h.html" target="_top" xlink:title="EXIF data manipulation functions and types.">
<polygon fill="white" stroke="black" points="155,-56.5 155,-75.5 256,-75.5 256,-56.5 155,-56.5"/>
<text text-anchor="middle" x="205.5" y="-63.5" font-family="Helvetica,sans-Serif" font-size="10.00">libexif/exif&#45;utils.h</text>
</a>
</g>
</g>
<!-- Node4&#45;&gt;Node5 -->
<g id="edge4" class="edge">
<title>Node4&#45;&gt;Node5</title>
<path fill="none" stroke="midnightblue" d="M205.5,-112.08C205.5,-105.01 205.5,-94.86 205.5,-85.99"/>
<polygon fill="midnightblue" stroke="midnightblue" points="209,-85.75 205.5,-75.75 202,-85.75 209,-85.75"/>
</g>
<!-- Node6 -->
<g id="node6" class="node">
<title>Node6</title>
<g id="a_node6"><a xlink:href="exif-byte-order_8h.html" target="_top" xlink:title="Defines the ExifByteOrder enum and the associated functions.">
<polygon fill="white" stroke="black" points="0,-0.5 0,-19.5 131,-19.5 131,-0.5 0,-0.5"/>
<text text-anchor="middle" x="65.5" y="-7.5" font-family="Helvetica,sans-Serif" font-size="10.00">libexif/exif&#45;byte&#45;order.h</text>
</a>
</g>
</g>
<!-- Node5&#45;&gt;Node6 -->
<g id="edge5" class="edge">
<title>Node5&#45;&gt;Node6</title>
<path fill="none" stroke="midnightblue" d="M183.32,-56.44C160.07,-47.48 123.35,-33.31 97.08,-23.18"/>
<polygon fill="midnightblue" stroke="midnightblue" points="98.17,-19.85 87.58,-19.52 95.65,-26.38 98.17,-19.85"/>
</g>
<!-- Node7 -->
<g id="node7" class="node">
<title>Node7</title>
<g id="a_node7"><a xlink:href="exif-format_8h.html" target="_top" xlink:title="Handling native EXIF data types.">
<polygon fill="white" stroke="black" points="149,-0.5 149,-19.5 262,-19.5 262,-0.5 149,-0.5"/>
<text text-anchor="middle" x="205.5" y="-7.5" font-family="Helvetica,sans-Serif" font-size="10.00">libexif/exif&#45;format.h</text>
</a>
</g>
</g>
<!-- Node5&#45;&gt;Node7 -->
<g id="edge6" class="edge">
<title>Node5&#45;&gt;Node7</title>
<path fill="none" stroke="midnightblue" d="M205.5,-56.08C205.5,-49.01 205.5,-38.86 205.5,-29.99"/>
<polygon fill="midnightblue" stroke="midnightblue" points="209,-29.75 205.5,-19.75 202,-29.75 209,-29.75"/>
</g>
<!-- Node8 -->
<g id="node8" class="node">
<title>Node8</title>
<g id="a_node8"><a xlink:title=" ">
<polygon fill="white" stroke="#bfbfbf" points="280.5,-0.5 280.5,-19.5 372.5,-19.5 372.5,-0.5 280.5,-0.5"/>
<text text-anchor="middle" x="326.5" y="-7.5" font-family="Helvetica,sans-Serif" font-size="10.00">libexif/_stdint.h</text>
</a>
</g>
</g>
<!-- Node5&#45;&gt;Node8 -->
<g id="edge7" class="edge">
<title>Node5&#45;&gt;Node8</title>
<path fill="none" stroke="midnightblue" d="M224.67,-56.44C244.41,-47.64 275.39,-33.81 297.99,-23.72"/>
<polygon fill="midnightblue" stroke="midnightblue" points="299.71,-26.79 307.42,-19.52 296.86,-20.4 299.71,-26.79"/>
</g>
<!-- Node10&#45;&gt;Node2 -->
<g id="edge10" class="edge">
<title>Node10&#45;&gt;Node2</title>
<path fill="none" stroke="midnightblue" d="M114.89,-168.08C110.13,-160.53 103.18,-149.49 97.35,-140.23"/>
<polygon fill="midnightblue" stroke="midnightblue" points="100.3,-138.35 92.01,-131.75 94.38,-142.08 100.3,-138.35"/>
</g>
</g>
</svg>
