<?xml version="1.0" encoding="UTF-8" standalone="no"?>
<!DOCTYPE svg PUBLIC "-//W3C//DTD SVG 1.1//EN"
 "http://www.w3.org/Graphics/SVG/1.1/DTD/svg11.dtd">
<!-- Generated by graphviz version 2.44.1 (0)
 -->
<!-- Title: libexif/exif&#45;mnote&#45;data.h Pages: 1 -->
<svg width="2560pt" height="374pt"
 viewBox="0.00 0.00 2559.67 374.00" xmlns="http://www.w3.org/2000/svg" xmlns:xlink="http://www.w3.org/1999/xlink">
<g id="graph0" class="graph" transform="scale(1 1) rotate(0) translate(4 370)">
<title>libexif/exif&#45;mnote&#45;data.h</title>
<polygon fill="white" stroke="transparent" points="-4,4 -4,-370 2555.67,-370 2555.67,4 -4,4"/>
<!-- Node1 -->
<g id="node1" class="node">
<title>Node1</title>
<g id="a_node1"><a xlink:title="Handling EXIF MakerNote tags.">
<polygon fill="#bfbfbf" stroke="black" points="355.5,-335.5 355.5,-365.5 458.5,-365.5 458.5,-335.5 355.5,-335.5"/>
<text text-anchor="start" x="363.5" y="-353.5" font-family="Helvetica,sans-Serif" font-size="10.00">libexif/exif&#45;mnote</text>
<text text-anchor="middle" x="407" y="-342.5" font-family="Helvetica,sans-Serif" font-size="10.00">&#45;data.h</text>
</a>
</g>
</g>
<!-- Node2 -->
<g id="node2" class="node">
<title>Node2</title>
<g id="a_node2"><a xlink:href="exif-mnote-data-canon_8h.html" target="_top" xlink:title=" ">
<polygon fill="white" stroke="black" points="1225.5,-67.5 1225.5,-97.5 1344.5,-97.5 1344.5,-67.5 1225.5,-67.5"/>
<text text-anchor="start" x="1233.5" y="-85.5" font-family="Helvetica,sans-Serif" font-size="10.00">libexif/canon/exif</text>
<text text-anchor="middle" x="1285" y="-74.5" font-family="Helvetica,sans-Serif" font-size="10.00">&#45;mnote&#45;data&#45;canon.h</text>
</a>
</g>
</g>
<!-- Node1&#45;&gt;Node2 -->
<g id="edge1" class="edge">
<title>Node1&#45;&gt;Node2</title>
<path fill="none" stroke="midnightblue" d="M469.01,-347.67C771.27,-338.47 2077.96,-295.11 2135,-232 2170.59,-192.62 2100.86,-143.88 2082,-134 2017.25,-100.09 1518.38,-87.78 1344.52,-84.49"/>
<polygon fill="midnightblue" stroke="midnightblue" points="468.57,-344.18 458.68,-347.99 468.79,-351.18 468.57,-344.18"/>
</g>
<!-- Node4 -->
<g id="node4" class="node">
<title>Node4</title>
<g id="a_node4"><a xlink:href="exif-data_8c.html" target="_top" xlink:title=" ">
<polygon fill="white" stroke="black" points="503.5,-6 503.5,-25 604.5,-25 604.5,-6 503.5,-6"/>
<text text-anchor="middle" x="554" y="-13" font-family="Helvetica,sans-Serif" font-size="10.00">libexif/exif&#45;data.c</text>
</a>
</g>
</g>
<!-- Node1&#45;&gt;Node4 -->
<g id="edge4" class="edge">
<title>Node1&#45;&gt;Node4</title>
<path fill="none" stroke="midnightblue" d="M345.49,-342.51C231.74,-327.87 0,-289.25 0,-217.5 0,-217.5 0,-217.5 0,-148.5 0,-91.16 47.13,-89.18 100,-67 171.85,-36.85 400.88,-23.23 503.47,-18.53"/>
<polygon fill="midnightblue" stroke="midnightblue" points="345.09,-345.99 355.45,-343.77 345.97,-339.05 345.09,-345.99"/>
</g>
<!-- Node5 -->
<g id="node5" class="node">
<title>Node5</title>
<g id="a_node5"><a xlink:href="exif-data_8h.html" target="_top" xlink:title="Defines the ExifData type and the associated functions.">
<polygon fill="white" stroke="black" points="1363,-274 1363,-293 1465,-293 1465,-274 1363,-274"/>
<text text-anchor="middle" x="1414" y="-281" font-family="Helvetica,sans-Serif" font-size="10.00">libexif/exif&#45;data.h</text>
</a>
</g>
</g>
<!-- Node1&#45;&gt;Node5 -->
<g id="edge5" class="edge">
<title>Node1&#45;&gt;Node5</title>
<path fill="none" stroke="midnightblue" d="M468.7,-345.52C652.43,-333.66 1193.63,-298.72 1362.84,-287.8"/>
<polygon fill="midnightblue" stroke="midnightblue" points="468.42,-342.03 458.67,-346.16 468.88,-349.01 468.42,-342.03"/>
</g>
<!-- Node19 -->
<g id="node19" class="node">
<title>Node19</title>
<g id="a_node19"><a xlink:href="test-null_8c.html" target="_top" xlink:title="Pass NULL values into libexif APIs and ensure it doesn&#39;t crash.">
<polygon fill="white" stroke="black" points="1902.5,-73 1902.5,-92 1989.5,-92 1989.5,-73 1902.5,-73"/>
<text text-anchor="middle" x="1946" y="-80" font-family="Helvetica,sans-Serif" font-size="10.00">test/test&#45;null.c</text>
</a>
</g>
</g>
<!-- Node1&#45;&gt;Node19 -->
<g id="edge72" class="edge">
<title>Node1&#45;&gt;Node19</title>
<path fill="none" stroke="midnightblue" d="M468.76,-348.22C794.79,-341.17 2303.28,-304.67 2368,-232 2379.38,-219.22 2387.53,-157.05 2366,-134 2310.06,-74.12 2079.59,-112.87 1999,-98 1990.74,-96.48 1981.9,-94.29 1973.85,-92.07"/>
<polygon fill="midnightblue" stroke="midnightblue" points="468.48,-344.73 458.56,-348.44 468.63,-351.72 468.48,-344.73"/>
</g>
<!-- Node25 -->
<g id="node25" class="node">
<title>Node25</title>
<g id="a_node25"><a xlink:href="exif-mnote-data-fuji_8h.html" target="_top" xlink:title=" ">
<polygon fill="white" stroke="black" points="346,-201.5 346,-231.5 468,-231.5 468,-201.5 346,-201.5"/>
<text text-anchor="start" x="354" y="-219.5" font-family="Helvetica,sans-Serif" font-size="10.00">libexif/fuji/exif&#45;mnote</text>
<text text-anchor="middle" x="407" y="-208.5" font-family="Helvetica,sans-Serif" font-size="10.00">&#45;data&#45;fuji.h</text>
</a>
</g>
</g>
<!-- Node1&#45;&gt;Node25 -->
<g id="edge70" class="edge">
<title>Node1&#45;&gt;Node25</title>
<path fill="none" stroke="midnightblue" d="M395.09,-326.26C391.41,-317.9 387.84,-308.24 386,-299 383.3,-285.49 383.3,-281.51 386,-268 388.57,-255.15 394.47,-241.48 399.36,-231.61"/>
<polygon fill="midnightblue" stroke="midnightblue" points="391.95,-327.82 399.36,-335.39 398.29,-324.85 391.95,-327.82"/>
</g>
<!-- Node33 -->
<g id="node33" class="node">
<title>Node33</title>
<g id="a_node33"><a xlink:href="exif-mnote-data-pentax_8h.html" target="_top" xlink:title=" ">
<polygon fill="white" stroke="black" points="158,-201.5 158,-231.5 282,-231.5 282,-201.5 158,-201.5"/>
<text text-anchor="start" x="166" y="-219.5" font-family="Helvetica,sans-Serif" font-size="10.00">libexif/pentax/exif</text>
<text text-anchor="middle" x="220" y="-208.5" font-family="Helvetica,sans-Serif" font-size="10.00">&#45;mnote&#45;data&#45;pentax.h</text>
</a>
</g>
</g>
<!-- Node1&#45;&gt;Node33 -->
<g id="edge71" class="edge">
<title>Node1&#45;&gt;Node33</title>
<path fill="none" stroke="midnightblue" d="M378.36,-329.28C340.04,-302.24 273.09,-254.98 239.87,-231.52"/>
<polygon fill="midnightblue" stroke="midnightblue" points="376.8,-332.47 386.99,-335.37 380.84,-326.75 376.8,-332.47"/>
</g>
<!-- Node41 -->
<g id="node41" class="node">
<title>Node41</title>
<g id="a_node41"><a xlink:href="exif-mnote-data-priv_8h.html" target="_top" xlink:title=" ">
<polygon fill="white" stroke="black" points="395.5,-268.5 395.5,-298.5 498.5,-298.5 498.5,-268.5 395.5,-268.5"/>
<text text-anchor="start" x="403.5" y="-286.5" font-family="Helvetica,sans-Serif" font-size="10.00">libexif/exif&#45;mnote</text>
<text text-anchor="middle" x="447" y="-275.5" font-family="Helvetica,sans-Serif" font-size="10.00">&#45;data&#45;priv.h</text>
</a>
</g>
</g>
<!-- Node1&#45;&gt;Node41 -->
<g id="edge61" class="edge">
<title>Node1&#45;&gt;Node41</title>
<path fill="none" stroke="midnightblue" d="M420.93,-326.87C426.72,-317.46 433.26,-306.83 438.34,-298.58"/>
<polygon fill="midnightblue" stroke="midnightblue" points="417.94,-325.05 415.68,-335.4 423.9,-328.71 417.94,-325.05"/>
</g>
<!-- Node42 -->
<g id="node42" class="node">
<title>Node42</title>
<g id="a_node42"><a xlink:href="exif-mnote-data_8c.html" target="_top" xlink:title=" ">
<polygon fill="white" stroke="black" points="36.5,-201.5 36.5,-231.5 139.5,-231.5 139.5,-201.5 36.5,-201.5"/>
<text text-anchor="start" x="44.5" y="-219.5" font-family="Helvetica,sans-Serif" font-size="10.00">libexif/exif&#45;mnote</text>
<text text-anchor="middle" x="88" y="-208.5" font-family="Helvetica,sans-Serif" font-size="10.00">&#45;data.c</text>
</a>
</g>
</g>
<!-- Node1&#45;&gt;Node42 -->
<g id="edge69" class="edge">
<title>Node1&#45;&gt;Node42</title>
<path fill="none" stroke="midnightblue" d="M363.72,-331.59C299.51,-305.02 180.32,-255.7 121.97,-231.56"/>
<polygon fill="midnightblue" stroke="midnightblue" points="362.58,-334.91 373.16,-335.5 365.26,-328.44 362.58,-334.91"/>
</g>
<!-- Node3 -->
<g id="node3" class="node">
<title>Node3</title>
<g id="a_node3"><a xlink:href="exif-mnote-data-canon_8c.html" target="_top" xlink:title=" ">
<polygon fill="white" stroke="black" points="1908.5,-0.5 1908.5,-30.5 2027.5,-30.5 2027.5,-0.5 1908.5,-0.5"/>
<text text-anchor="start" x="1916.5" y="-18.5" font-family="Helvetica,sans-Serif" font-size="10.00">libexif/canon/exif</text>
<text text-anchor="middle" x="1968" y="-7.5" font-family="Helvetica,sans-Serif" font-size="10.00">&#45;mnote&#45;data&#45;canon.c</text>
</a>
</g>
</g>
<!-- Node2&#45;&gt;Node3 -->
<g id="edge2" class="edge">
<title>Node2&#45;&gt;Node3</title>
<path fill="none" stroke="midnightblue" d="M1354.9,-74.85C1489.45,-62.04 1782.23,-34.18 1908.3,-22.18"/>
<polygon fill="midnightblue" stroke="midnightblue" points="1354.34,-71.39 1344.71,-75.82 1355,-78.35 1354.34,-71.39"/>
</g>
<!-- Node2&#45;&gt;Node4 -->
<g id="edge3" class="edge">
<title>Node2&#45;&gt;Node4</title>
<path fill="none" stroke="midnightblue" d="M1215.29,-75.3C1068.97,-62.29 732.82,-32.4 604.79,-21.02"/>
<polygon fill="midnightblue" stroke="midnightblue" points="1215.22,-78.81 1225.49,-76.21 1215.84,-71.84 1215.22,-78.81"/>
</g>
<!-- Node5&#45;&gt;Node2 -->
<g id="edge11" class="edge">
<title>Node5&#45;&gt;Node2</title>
<path fill="none" stroke="midnightblue" d="M1410.74,-264C1404.7,-234.04 1389.43,-174.24 1358,-134 1346.05,-118.7 1328.18,-106.22 1313.11,-97.5"/>
<polygon fill="midnightblue" stroke="midnightblue" points="1407.32,-264.74 1412.61,-273.91 1414.2,-263.43 1407.32,-264.74"/>
</g>
<!-- Node5&#45;&gt;Node3 -->
<g id="edge10" class="edge">
<title>Node5&#45;&gt;Node3</title>
<path fill="none" stroke="midnightblue" d="M1475.23,-282.03C1657.95,-280.18 2197.19,-271.45 2368,-232 2442.32,-214.84 2480.19,-225.98 2526,-165 2552.25,-130.06 2563.5,-99.24 2534,-67 2500.31,-30.17 2166.17,-20.01 2027.67,-17.37"/>
<polygon fill="midnightblue" stroke="midnightblue" points="1474.97,-278.53 1465,-282.13 1475.04,-285.53 1474.97,-278.53"/>
</g>
<!-- Node5&#45;&gt;Node4 -->
<g id="edge27" class="edge">
<title>Node5&#45;&gt;Node4</title>
<path fill="none" stroke="midnightblue" d="M1352.66,-281.98C1206.16,-280.1 845.3,-271.46 809,-232 779.07,-199.47 850.28,-170.94 826,-134 776.84,-59.21 668.85,-31.8 604.71,-21.92"/>
<polygon fill="midnightblue" stroke="midnightblue" points="1352.79,-285.48 1362.83,-282.1 1352.88,-278.48 1352.79,-285.48"/>
</g>
<!-- Node6 -->
<g id="node6" class="node">
<title>Node6</title>
<g id="a_node6"><a xlink:href="exif-mnote-data-apple_8c.html" target="_top" xlink:title=" ">
<polygon fill="white" stroke="black" points="582,-134.5 582,-164.5 698,-164.5 698,-134.5 582,-134.5"/>
<text text-anchor="start" x="590" y="-152.5" font-family="Helvetica,sans-Serif" font-size="10.00">libexif/apple/exif</text>
<text text-anchor="middle" x="640" y="-141.5" font-family="Helvetica,sans-Serif" font-size="10.00">&#45;mnote&#45;data&#45;apple.c</text>
</a>
</g>
</g>
<!-- Node5&#45;&gt;Node6 -->
<g id="edge6" class="edge">
<title>Node5&#45;&gt;Node6</title>
<path fill="none" stroke="midnightblue" d="M1352.58,-282.8C1180.32,-283.06 701.8,-279.46 651,-232 632.74,-214.94 634.31,-183.12 637.12,-164.69"/>
<polygon fill="midnightblue" stroke="midnightblue" points="1352.76,-286.3 1362.75,-282.78 1352.74,-279.3 1352.76,-286.3"/>
</g>
<!-- Node7 -->
<g id="node7" class="node">
<title>Node7</title>
<g id="a_node7"><a xlink:href="exif-mnote-data-apple_8h.html" target="_top" xlink:title=" ">
<polygon fill="white" stroke="black" points="486.5,-201.5 486.5,-231.5 603.5,-231.5 603.5,-201.5 486.5,-201.5"/>
<text text-anchor="start" x="494.5" y="-219.5" font-family="Helvetica,sans-Serif" font-size="10.00">libexif/apple/exif</text>
<text text-anchor="middle" x="545" y="-208.5" font-family="Helvetica,sans-Serif" font-size="10.00">&#45;mnote&#45;data&#45;apple.h</text>
</a>
</g>
</g>
<!-- Node5&#45;&gt;Node7 -->
<g id="edge7" class="edge">
<title>Node5&#45;&gt;Node7</title>
<path fill="none" stroke="midnightblue" d="M1352.48,-281.37C1218.47,-278.32 890.33,-267.53 618,-232 613.39,-231.4 608.63,-230.68 603.86,-229.89"/>
<polygon fill="midnightblue" stroke="midnightblue" points="1352.48,-284.88 1362.55,-281.6 1352.63,-277.88 1352.48,-284.88"/>
</g>
<!-- Node8 -->
<g id="node8" class="node">
<title>Node8</title>
<g id="a_node8"><a xlink:href="mnote-canon-tag_8h.html" target="_top" xlink:title=" ">
<polygon fill="white" stroke="black" points="968,-201.5 968,-231.5 1082,-231.5 1082,-201.5 968,-201.5"/>
<text text-anchor="start" x="976" y="-219.5" font-family="Helvetica,sans-Serif" font-size="10.00">libexif/canon/mnote</text>
<text text-anchor="middle" x="1025" y="-208.5" font-family="Helvetica,sans-Serif" font-size="10.00">&#45;canon&#45;tag.h</text>
</a>
</g>
</g>
<!-- Node5&#45;&gt;Node8 -->
<g id="edge12" class="edge">
<title>Node5&#45;&gt;Node8</title>
<path fill="none" stroke="midnightblue" d="M1352.61,-272.24C1278.34,-259.83 1154.32,-239.11 1082.06,-227.03"/>
<polygon fill="midnightblue" stroke="midnightblue" points="1352.3,-275.74 1362.75,-273.94 1353.46,-268.84 1352.3,-275.74"/>
</g>
<!-- Node12 -->
<g id="node12" class="node">
<title>Node12</title>
<g id="a_node12"><a xlink:href="exif-content_8h.html" target="_top" xlink:title="Handling EXIF IFDs.">
<polygon fill="white" stroke="black" points="2241.5,-207 2241.5,-226 2358.5,-226 2358.5,-207 2241.5,-207"/>
<text text-anchor="middle" x="2300" y="-214" font-family="Helvetica,sans-Serif" font-size="10.00">libexif/exif&#45;content.h</text>
</a>
</g>
</g>
<!-- Node5&#45;&gt;Node12 -->
<g id="edge17" class="edge">
<title>Node5&#45;&gt;Node12</title>
<path fill="none" stroke="midnightblue" d="M1475.5,-279.62C1605.72,-273.49 1918.36,-257.59 2180,-232 2199.92,-230.05 2221.78,-227.32 2241.38,-224.76"/>
<polygon fill="midnightblue" stroke="midnightblue" points="1475.16,-276.13 1465.33,-280.1 1475.48,-283.13 1475.16,-276.13"/>
</g>
<!-- Node5&#45;&gt;Node19 -->
<g id="edge57" class="edge">
<title>Node5&#45;&gt;Node19</title>
<path fill="none" stroke="midnightblue" d="M1475.21,-282.87C1641.2,-283.24 2090.45,-279.78 2135,-232 2170.49,-193.94 2100.58,-147.51 2082,-134 2064.43,-121.23 2008.79,-102.74 1974.36,-92.04"/>
<polygon fill="midnightblue" stroke="midnightblue" points="1475.17,-279.37 1465.16,-282.84 1475.15,-286.37 1475.17,-279.37"/>
</g>
<!-- Node20 -->
<g id="node20" class="node">
<title>Node20</title>
<g id="a_node20"><a xlink:href="exif-loader_8h.html" target="_top" xlink:title="Defines the ExifLoader type.">
<polygon fill="white" stroke="black" points="1480.5,-207 1480.5,-226 1591.5,-226 1591.5,-207 1480.5,-207"/>
<text text-anchor="middle" x="1536" y="-214" font-family="Helvetica,sans-Serif" font-size="10.00">libexif/exif&#45;loader.h</text>
</a>
</g>
</g>
<!-- Node5&#45;&gt;Node20 -->
<g id="edge28" class="edge">
<title>Node5&#45;&gt;Node20</title>
<path fill="none" stroke="midnightblue" d="M1439.14,-269.1C1463.31,-256.23 1499.1,-237.16 1519.73,-226.17"/>
<polygon fill="midnightblue" stroke="midnightblue" points="1437.38,-266.08 1430.2,-273.87 1440.67,-272.26 1437.38,-266.08"/>
</g>
<!-- Node22 -->
<g id="node22" class="node">
<title>Node22</title>
<g id="a_node22"><a xlink:href="test-fuzzer-persistent_8c.html" target="_top" xlink:title=" ">
<polygon fill="white" stroke="black" points="1728.5,-140 1728.5,-159 1879.5,-159 1879.5,-140 1728.5,-140"/>
<text text-anchor="middle" x="1804" y="-147" font-family="Helvetica,sans-Serif" font-size="10.00">test/test&#45;fuzzer&#45;persistent.c</text>
</a>
</g>
</g>
<!-- Node5&#45;&gt;Node22 -->
<g id="edge52" class="edge">
<title>Node5&#45;&gt;Node22</title>
<path fill="none" stroke="midnightblue" d="M1475.16,-272.73C1512.88,-265.09 1561.45,-252.29 1601,-232 1620.39,-222.05 1619.78,-211.27 1639,-201 1677.58,-180.39 1725.82,-166.86 1760.16,-159.04"/>
<polygon fill="midnightblue" stroke="midnightblue" points="1474.46,-269.3 1465.32,-274.65 1475.81,-276.17 1474.46,-269.3"/>
</g>
<!-- Node23 -->
<g id="node23" class="node">
<title>Node23</title>
<g id="a_node23"><a xlink:href="test-fuzzer_8c.html" target="_top" xlink:title=" ">
<polygon fill="white" stroke="black" points="1973.5,-140 1973.5,-159 2072.5,-159 2072.5,-140 1973.5,-140"/>
<text text-anchor="middle" x="2023" y="-147" font-family="Helvetica,sans-Serif" font-size="10.00">test/test&#45;fuzzer.c</text>
</a>
</g>
</g>
<!-- Node5&#45;&gt;Node23 -->
<g id="edge53" class="edge">
<title>Node5&#45;&gt;Node23</title>
<path fill="none" stroke="midnightblue" d="M1475.41,-282.76C1638.79,-282.81 2074.68,-278.54 2118,-232 2145.39,-202.57 2083.58,-173.12 2047.19,-159.04"/>
<polygon fill="midnightblue" stroke="midnightblue" points="1475.05,-279.26 1465.05,-282.75 1475.04,-286.26 1475.05,-279.26"/>
</g>
<!-- Node24 -->
<g id="node24" class="node">
<title>Node24</title>
<g id="a_node24"><a xlink:href="test-mem_8c.html" target="_top" xlink:title=" ">
<polygon fill="white" stroke="black" points="1410.5,-140 1410.5,-159 1505.5,-159 1505.5,-140 1410.5,-140"/>
<text text-anchor="middle" x="1458" y="-147" font-family="Helvetica,sans-Serif" font-size="10.00">test/test&#45;mem.c</text>
</a>
</g>
</g>
<!-- Node5&#45;&gt;Node24 -->
<g id="edge55" class="edge">
<title>Node5&#45;&gt;Node24</title>
<path fill="none" stroke="midnightblue" d="M1420.11,-264.16C1429.76,-235.23 1448.12,-180.13 1455.16,-159.02"/>
<polygon fill="midnightblue" stroke="midnightblue" points="1416.73,-263.25 1416.89,-273.84 1423.37,-265.46 1416.73,-263.25"/>
</g>
<!-- Node5&#45;&gt;Node25 -->
<g id="edge35" class="edge">
<title>Node5&#45;&gt;Node25</title>
<path fill="none" stroke="midnightblue" d="M1352.59,-282.38C1202.47,-281.38 805.16,-274.59 477,-232 474.17,-231.63 471.28,-231.21 468.37,-230.76"/>
<polygon fill="midnightblue" stroke="midnightblue" points="1352.95,-285.88 1362.97,-282.44 1352.99,-278.88 1352.95,-285.88"/>
</g>
<!-- Node29 -->
<g id="node29" class="node">
<title>Node29</title>
<g id="a_node29"><a xlink:href="mnote-fuji-tag_8h.html" target="_top" xlink:title=" ">
<polygon fill="white" stroke="black" points="660.5,-201.5 660.5,-231.5 761.5,-231.5 761.5,-201.5 660.5,-201.5"/>
<text text-anchor="start" x="668.5" y="-219.5" font-family="Helvetica,sans-Serif" font-size="10.00">libexif/fuji/mnote</text>
<text text-anchor="middle" x="711" y="-208.5" font-family="Helvetica,sans-Serif" font-size="10.00">&#45;fuji&#45;tag.h</text>
</a>
</g>
</g>
<!-- Node5&#45;&gt;Node29 -->
<g id="edge41" class="edge">
<title>Node5&#45;&gt;Node29</title>
<path fill="none" stroke="midnightblue" d="M1352.58,-280.51C1238.45,-276.17 986.17,-263.6 776,-232 771.31,-231.3 766.46,-230.44 761.61,-229.51"/>
<polygon fill="midnightblue" stroke="midnightblue" points="1352.74,-284.02 1362.86,-280.89 1353,-277.02 1352.74,-284.02"/>
</g>
<!-- Node31 -->
<g id="node31" class="node">
<title>Node31</title>
<g id="a_node31"><a xlink:href="exif-mnote-data-olympus_8c.html" target="_top" xlink:title=" ">
<polygon fill="white" stroke="black" points="1217.5,-134.5 1217.5,-164.5 1348.5,-164.5 1348.5,-134.5 1217.5,-134.5"/>
<text text-anchor="start" x="1225.5" y="-152.5" font-family="Helvetica,sans-Serif" font-size="10.00">libexif/olympus/exif</text>
<text text-anchor="middle" x="1283" y="-141.5" font-family="Helvetica,sans-Serif" font-size="10.00">&#45;mnote&#45;data&#45;olympus.c</text>
</a>
</g>
</g>
<!-- Node5&#45;&gt;Node31 -->
<g id="edge44" class="edge">
<title>Node5&#45;&gt;Node31</title>
<path fill="none" stroke="midnightblue" d="M1404.19,-264.8C1393.93,-247.29 1376.61,-220.38 1357,-201 1342.51,-186.68 1323.47,-173.79 1308.34,-164.62"/>
<polygon fill="midnightblue" stroke="midnightblue" points="1401.38,-266.94 1409.38,-273.89 1407.46,-263.47 1401.38,-266.94"/>
</g>
<!-- Node32 -->
<g id="node32" class="node">
<title>Node32</title>
<g id="a_node32"><a xlink:href="exif-mnote-data-olympus_8h.html" target="_top" xlink:title=" ">
<polygon fill="white" stroke="black" points="818,-201.5 818,-231.5 950,-231.5 950,-201.5 818,-201.5"/>
<text text-anchor="start" x="826" y="-219.5" font-family="Helvetica,sans-Serif" font-size="10.00">libexif/olympus/exif</text>
<text text-anchor="middle" x="884" y="-208.5" font-family="Helvetica,sans-Serif" font-size="10.00">&#45;mnote&#45;data&#45;olympus.h</text>
</a>
</g>
</g>
<!-- Node5&#45;&gt;Node32 -->
<g id="edge45" class="edge">
<title>Node5&#45;&gt;Node32</title>
<path fill="none" stroke="midnightblue" d="M1352.97,-277.3C1265.46,-269.48 1099.4,-253.33 959,-232 956.12,-231.56 953.17,-231.09 950.2,-230.6"/>
<polygon fill="midnightblue" stroke="midnightblue" points="1352.72,-280.79 1362.99,-278.19 1353.34,-273.82 1352.72,-280.79"/>
</g>
<!-- Node5&#45;&gt;Node33 -->
<g id="edge48" class="edge">
<title>Node5&#45;&gt;Node33</title>
<path fill="none" stroke="midnightblue" d="M1352.48,-281.26C1187.66,-277.59 722.53,-264.88 337,-232 319.16,-230.48 299.84,-228.3 282.15,-226.1"/>
<polygon fill="midnightblue" stroke="midnightblue" points="1352.82,-284.77 1362.89,-281.49 1352.97,-277.77 1352.82,-284.77"/>
</g>
<!-- Node35 -->
<g id="node35" class="node">
<title>Node35</title>
<g id="a_node35"><a xlink:href="test-extract_8c.html" target="_top" xlink:title="Extract EXIF data from a file and write it to another file.">
<polygon fill="white" stroke="black" points="1648,-207 1648,-226 1752,-226 1752,-207 1648,-207"/>
<text text-anchor="middle" x="1700" y="-214" font-family="Helvetica,sans-Serif" font-size="10.00">test/test&#45;extract.c</text>
</a>
</g>
</g>
<!-- Node5&#45;&gt;Node35 -->
<g id="edge51" class="edge">
<title>Node5&#45;&gt;Node35</title>
<path fill="none" stroke="midnightblue" d="M1461.77,-271.64C1518.12,-258.84 1610.64,-237.81 1662.23,-226.08"/>
<polygon fill="midnightblue" stroke="midnightblue" points="1460.66,-268.31 1451.68,-273.94 1462.21,-275.13 1460.66,-268.31"/>
</g>
<!-- Node36 -->
<g id="node36" class="node">
<title>Node36</title>
<g id="a_node36"><a xlink:href="test-gps_8c.html" target="_top" xlink:title=" ">
<polygon fill="white" stroke="black" points="1770,-207 1770,-226 1856,-226 1856,-207 1770,-207"/>
<text text-anchor="middle" x="1813" y="-214" font-family="Helvetica,sans-Serif" font-size="10.00">test/test&#45;gps.c</text>
</a>
</g>
</g>
<!-- Node5&#45;&gt;Node36 -->
<g id="edge54" class="edge">
<title>Node5&#45;&gt;Node36</title>
<path fill="none" stroke="midnightblue" d="M1475.57,-275.94C1545.27,-267.96 1662,-252.92 1761,-232 1768.79,-230.35 1777.15,-228.2 1784.82,-226.06"/>
<polygon fill="midnightblue" stroke="midnightblue" points="1474.76,-272.51 1465.22,-277.11 1475.55,-279.47 1474.76,-272.51"/>
</g>
<!-- Node37 -->
<g id="node37" class="node">
<title>Node37</title>
<g id="a_node37"><a xlink:href="test-mnote_8c.html" target="_top" xlink:title=" ">
<polygon fill="white" stroke="black" points="1874.5,-207 1874.5,-226 1975.5,-226 1975.5,-207 1874.5,-207"/>
<text text-anchor="middle" x="1925" y="-214" font-family="Helvetica,sans-Serif" font-size="10.00">test/test&#45;mnote.c</text>
</a>
</g>
</g>
<!-- Node5&#45;&gt;Node37 -->
<g id="edge56" class="edge">
<title>Node5&#45;&gt;Node37</title>
<path fill="none" stroke="midnightblue" d="M1475.25,-278.1C1562.33,-271.28 1726.69,-256.36 1865,-232 1874.18,-230.38 1884.05,-228.19 1893.08,-226"/>
<polygon fill="midnightblue" stroke="midnightblue" points="1474.72,-274.63 1465.02,-278.89 1475.26,-281.61 1474.72,-274.63"/>
</g>
<!-- Node38 -->
<g id="node38" class="node">
<title>Node38</title>
<g id="a_node38"><a xlink:href="test-parse-from-data_8c.html" target="_top" xlink:title="Completely parse all files given on the command line.">
<polygon fill="white" stroke="black" points="1993.5,-201.5 1993.5,-231.5 2108.5,-231.5 2108.5,-201.5 1993.5,-201.5"/>
<text text-anchor="start" x="2001.5" y="-219.5" font-family="Helvetica,sans-Serif" font-size="10.00">test/test&#45;parse&#45;from</text>
<text text-anchor="middle" x="2051" y="-208.5" font-family="Helvetica,sans-Serif" font-size="10.00">&#45;data.c</text>
</a>
</g>
</g>
<!-- Node5&#45;&gt;Node38 -->
<g id="edge58" class="edge">
<title>Node5&#45;&gt;Node38</title>
<path fill="none" stroke="midnightblue" d="M1475.14,-279.67C1579.97,-274.23 1800.55,-260.3 1985,-232 1987.78,-231.57 1990.62,-231.1 1993.49,-230.59"/>
<polygon fill="midnightblue" stroke="midnightblue" points="1474.87,-276.18 1465.06,-280.18 1475.23,-283.17 1474.87,-276.18"/>
</g>
<!-- Node39 -->
<g id="node39" class="node">
<title>Node39</title>
<g id="a_node39"><a xlink:href="test-parse_8c.html" target="_top" xlink:title="Completely parse all files given on the command line.">
<polygon fill="white" stroke="black" points="1138,-207 1138,-226 1234,-226 1234,-207 1138,-207"/>
<text text-anchor="middle" x="1186" y="-214" font-family="Helvetica,sans-Serif" font-size="10.00">test/test&#45;parse.c</text>
</a>
</g>
</g>
<!-- Node5&#45;&gt;Node39 -->
<g id="edge59" class="edge">
<title>Node5&#45;&gt;Node39</title>
<path fill="none" stroke="midnightblue" d="M1373.98,-271.09C1328.88,-258.23 1256.57,-237.62 1216.04,-226.06"/>
<polygon fill="midnightblue" stroke="midnightblue" points="1373.15,-274.49 1383.72,-273.87 1375.07,-267.76 1373.15,-274.49"/>
</g>
<!-- Node40 -->
<g id="node40" class="node">
<title>Node40</title>
<g id="a_node40"><a xlink:href="test-value_8c.html" target="_top" xlink:title=" ">
<polygon fill="white" stroke="black" points="1252,-207 1252,-226 1348,-226 1348,-207 1252,-207"/>
<text text-anchor="middle" x="1300" y="-214" font-family="Helvetica,sans-Serif" font-size="10.00">test/test&#45;value.c</text>
</a>
</g>
</g>
<!-- Node5&#45;&gt;Node40 -->
<g id="edge60" class="edge">
<title>Node5&#45;&gt;Node40</title>
<path fill="none" stroke="midnightblue" d="M1389.65,-268.62C1367.06,-255.74 1334.16,-236.98 1315.13,-226.13"/>
<polygon fill="midnightblue" stroke="midnightblue" points="1388.2,-271.82 1398.63,-273.73 1391.67,-265.74 1388.2,-271.82"/>
</g>
<!-- Node7&#45;&gt;Node4 -->
<g id="edge9" class="edge">
<title>Node7&#45;&gt;Node4</title>
<path fill="none" stroke="midnightblue" d="M546.11,-190.96C548.12,-146.43 552.29,-54.25 553.6,-25.36"/>
<polygon fill="midnightblue" stroke="midnightblue" points="542.6,-191.04 545.65,-201.19 549.6,-191.36 542.6,-191.04"/>
</g>
<!-- Node7&#45;&gt;Node6 -->
<g id="edge8" class="edge">
<title>Node7&#45;&gt;Node6</title>
<path fill="none" stroke="midnightblue" d="M573.89,-195.73C588.59,-185.68 606.11,-173.68 619.43,-164.58"/>
<polygon fill="midnightblue" stroke="midnightblue" points="571.89,-192.86 565.61,-201.4 575.84,-198.64 571.89,-192.86"/>
</g>
<!-- Node9 -->
<g id="node9" class="node">
<title>Node9</title>
<g id="a_node9"><a xlink:href="mnote-canon-entry_8h.html" target="_top" xlink:title=" ">
<polygon fill="white" stroke="black" points="912,-134.5 912,-164.5 1026,-164.5 1026,-134.5 912,-134.5"/>
<text text-anchor="start" x="920" y="-152.5" font-family="Helvetica,sans-Serif" font-size="10.00">libexif/canon/mnote</text>
<text text-anchor="middle" x="969" y="-141.5" font-family="Helvetica,sans-Serif" font-size="10.00">&#45;canon&#45;entry.h</text>
</a>
</g>
</g>
<!-- Node8&#45;&gt;Node9 -->
<g id="edge13" class="edge">
<title>Node8&#45;&gt;Node9</title>
<path fill="none" stroke="midnightblue" d="M1006.25,-193.74C997.96,-184.12 988.46,-173.09 981.13,-164.58"/>
<polygon fill="midnightblue" stroke="midnightblue" points="1003.67,-196.1 1012.85,-201.4 1008.97,-191.54 1003.67,-196.1"/>
</g>
<!-- Node11 -->
<g id="node11" class="node">
<title>Node11</title>
<g id="a_node11"><a xlink:href="mnote-canon-tag_8c.html" target="_top" xlink:title=" ">
<polygon fill="white" stroke="black" points="1044,-134.5 1044,-164.5 1158,-164.5 1158,-134.5 1044,-134.5"/>
<text text-anchor="start" x="1052" y="-152.5" font-family="Helvetica,sans-Serif" font-size="10.00">libexif/canon/mnote</text>
<text text-anchor="middle" x="1101" y="-141.5" font-family="Helvetica,sans-Serif" font-size="10.00">&#45;canon&#45;tag.c</text>
</a>
</g>
</g>
<!-- Node8&#45;&gt;Node11 -->
<g id="edge16" class="edge">
<title>Node8&#45;&gt;Node11</title>
<path fill="none" stroke="midnightblue" d="M1049.11,-194.88C1060.66,-185.01 1074.19,-173.43 1084.54,-164.58"/>
<polygon fill="midnightblue" stroke="midnightblue" points="1046.82,-192.24 1041.49,-201.4 1051.37,-197.56 1046.82,-192.24"/>
</g>
<!-- Node9&#45;&gt;Node2 -->
<g id="edge14" class="edge">
<title>Node9&#45;&gt;Node2</title>
<path fill="none" stroke="midnightblue" d="M1036.17,-133.77C1106.65,-118.96 1176.93,-104.86 1225.34,-95.26"/>
<polygon fill="midnightblue" stroke="midnightblue" points="1035.29,-130.38 1026.22,-135.87 1036.73,-137.23 1035.29,-130.38"/>
</g>
<!-- Node10 -->
<g id="node10" class="node">
<title>Node10</title>
<g id="a_node10"><a xlink:href="mnote-canon-entry_8c.html" target="_top" xlink:title=" ">
<polygon fill="white" stroke="black" points="912,-67.5 912,-97.5 1026,-97.5 1026,-67.5 912,-67.5"/>
<text text-anchor="start" x="920" y="-85.5" font-family="Helvetica,sans-Serif" font-size="10.00">libexif/canon/mnote</text>
<text text-anchor="middle" x="969" y="-74.5" font-family="Helvetica,sans-Serif" font-size="10.00">&#45;canon&#45;entry.c</text>
</a>
</g>
</g>
<!-- Node9&#45;&gt;Node10 -->
<g id="edge15" class="edge">
<title>Node9&#45;&gt;Node10</title>
<path fill="none" stroke="midnightblue" d="M969,-124.11C969,-115.15 969,-105.32 969,-97.58"/>
<polygon fill="midnightblue" stroke="midnightblue" points="965.5,-124.4 969,-134.4 972.5,-124.4 965.5,-124.4"/>
</g>
<!-- Node12&#45;&gt;Node5 -->
<g id="edge19" class="edge">
<title>Node12&#45;&gt;Node5</title>
<path fill="none" stroke="midnightblue" d="M2238.99,-227.32C2225.53,-229.04 2211.33,-230.7 2198,-232 1922.57,-258.94 1590.61,-275.14 1465.18,-280.51"/>
<polygon fill="midnightblue" stroke="midnightblue" points="2239.65,-230.77 2249.11,-226 2238.74,-223.83 2239.65,-230.77"/>
</g>
<!-- Node13 -->
<g id="node13" class="node">
<title>Node13</title>
<g id="a_node13"><a xlink:href="exif-content_8c.html" target="_top" xlink:title=" ">
<polygon fill="white" stroke="black" points="2241,-140 2241,-159 2357,-159 2357,-140 2241,-140"/>
<text text-anchor="middle" x="2299" y="-147" font-family="Helvetica,sans-Serif" font-size="10.00">libexif/exif&#45;content.c</text>
</a>
</g>
</g>
<!-- Node12&#45;&gt;Node13 -->
<g id="edge18" class="edge">
<title>Node12&#45;&gt;Node13</title>
<path fill="none" stroke="midnightblue" d="M2299.71,-196.54C2299.52,-184.17 2299.28,-168.62 2299.13,-159.13"/>
<polygon fill="midnightblue" stroke="midnightblue" points="2296.21,-196.79 2299.87,-206.73 2303.21,-196.68 2296.21,-196.79"/>
</g>
<!-- Node14 -->
<g id="node14" class="node">
<title>Node14</title>
<g id="a_node14"><a xlink:href="exif-entry_8h.html" target="_top" xlink:title="Handling EXIF entries.">
<polygon fill="white" stroke="black" points="2413,-140 2413,-159 2517,-159 2517,-140 2413,-140"/>
<text text-anchor="middle" x="2465" y="-147" font-family="Helvetica,sans-Serif" font-size="10.00">libexif/exif&#45;entry.h</text>
</a>
</g>
</g>
<!-- Node12&#45;&gt;Node14 -->
<g id="edge20" class="edge">
<title>Node12&#45;&gt;Node14</title>
<path fill="none" stroke="midnightblue" d="M2326.43,-202.94C2357.27,-190.03 2407.64,-170.28 2438.52,-159.06"/>
<polygon fill="midnightblue" stroke="midnightblue" points="2324.99,-199.74 2317.15,-206.87 2327.72,-206.19 2324.99,-199.74"/>
</g>
<!-- Node14&#45;&gt;Node12 -->
<g id="edge22" class="edge">
<title>Node14&#45;&gt;Node12</title>
<path fill="none" stroke="midnightblue" d="M2438.5,-163.09C2407.72,-175.98 2357.54,-195.65 2326.67,-206.87"/>
<polygon fill="midnightblue" stroke="midnightblue" points="2439.92,-166.29 2447.77,-159.17 2437.19,-159.85 2439.92,-166.29"/>
</g>
<!-- Node15 -->
<g id="node15" class="node">
<title>Node15</title>
<g id="a_node15"><a xlink:href="mnote-apple-entry_8c.html" target="_top" xlink:title=" ">
<polygon fill="white" stroke="black" points="2008,-67.5 2008,-97.5 2120,-97.5 2120,-67.5 2008,-67.5"/>
<text text-anchor="start" x="2016" y="-85.5" font-family="Helvetica,sans-Serif" font-size="10.00">libexif/apple/mnote</text>
<text text-anchor="middle" x="2064" y="-74.5" font-family="Helvetica,sans-Serif" font-size="10.00">&#45;apple&#45;entry.c</text>
</a>
</g>
</g>
<!-- Node14&#45;&gt;Node15 -->
<g id="edge21" class="edge">
<title>Node14&#45;&gt;Node15</title>
<path fill="none" stroke="midnightblue" d="M2418.63,-137.8C2412.06,-136.43 2405.37,-135.12 2399,-134 2279.77,-112.99 2248.19,-119.2 2129,-98 2126.15,-97.49 2123.24,-96.95 2120.31,-96.38"/>
<polygon fill="midnightblue" stroke="midnightblue" points="2418.29,-141.31 2428.8,-139.97 2419.75,-134.46 2418.29,-141.31"/>
</g>
<!-- Node16 -->
<g id="node16" class="node">
<title>Node16</title>
<g id="a_node16"><a xlink:href="exif-entry_8c.html" target="_top" xlink:title=" ">
<polygon fill="white" stroke="black" points="2138,-73 2138,-92 2242,-92 2242,-73 2138,-73"/>
<text text-anchor="middle" x="2190" y="-80" font-family="Helvetica,sans-Serif" font-size="10.00">libexif/exif&#45;entry.c</text>
</a>
</g>
</g>
<!-- Node14&#45;&gt;Node16 -->
<g id="edge23" class="edge">
<title>Node14&#45;&gt;Node16</title>
<path fill="none" stroke="midnightblue" d="M2418.73,-137.56C2364.52,-124.75 2275.82,-103.78 2226.31,-92.08"/>
<polygon fill="midnightblue" stroke="midnightblue" points="2418.23,-141.04 2428.77,-139.94 2419.84,-134.23 2418.23,-141.04"/>
</g>
<!-- Node17 -->
<g id="node17" class="node">
<title>Node17</title>
<g id="a_node17"><a xlink:href="mnote-olympus-entry_8c.html" target="_top" xlink:title=" ">
<polygon fill="white" stroke="black" points="2260.5,-67.5 2260.5,-97.5 2387.5,-97.5 2387.5,-67.5 2260.5,-67.5"/>
<text text-anchor="start" x="2268.5" y="-85.5" font-family="Helvetica,sans-Serif" font-size="10.00">libexif/olympus/mnote</text>
<text text-anchor="middle" x="2324" y="-74.5" font-family="Helvetica,sans-Serif" font-size="10.00">&#45;olympus&#45;entry.c</text>
</a>
</g>
</g>
<!-- Node14&#45;&gt;Node17 -->
<g id="edge24" class="edge">
<title>Node14&#45;&gt;Node17</title>
<path fill="none" stroke="midnightblue" d="M2437.06,-135.62C2413.21,-124.63 2378.97,-108.84 2354.43,-97.53"/>
<polygon fill="midnightblue" stroke="midnightblue" points="2435.73,-138.86 2446.28,-139.87 2438.66,-132.5 2435.73,-138.86"/>
</g>
<!-- Node18 -->
<g id="node18" class="node">
<title>Node18</title>
<g id="a_node18"><a xlink:href="mnote-pentax-entry_8c.html" target="_top" xlink:title=" ">
<polygon fill="white" stroke="black" points="2405.5,-67.5 2405.5,-97.5 2524.5,-97.5 2524.5,-67.5 2405.5,-67.5"/>
<text text-anchor="start" x="2413.5" y="-85.5" font-family="Helvetica,sans-Serif" font-size="10.00">libexif/pentax/mnote</text>
<text text-anchor="middle" x="2465" y="-74.5" font-family="Helvetica,sans-Serif" font-size="10.00">&#45;pentax&#45;entry.c</text>
</a>
</g>
</g>
<!-- Node14&#45;&gt;Node18 -->
<g id="edge25" class="edge">
<title>Node14&#45;&gt;Node18</title>
<path fill="none" stroke="midnightblue" d="M2465,-129.41C2465,-119.22 2465,-106.9 2465,-97.59"/>
<polygon fill="midnightblue" stroke="midnightblue" points="2461.5,-129.73 2465,-139.73 2468.5,-129.73 2461.5,-129.73"/>
</g>
<!-- Node14&#45;&gt;Node19 -->
<g id="edge26" class="edge">
<title>Node14&#45;&gt;Node19</title>
<path fill="none" stroke="midnightblue" d="M2420.1,-137.84C2413.06,-136.4 2405.86,-135.06 2399,-134 2222.59,-106.79 2174.66,-129.68 1999,-98 1990.64,-96.49 1981.69,-94.28 1973.57,-92.04"/>
<polygon fill="midnightblue" stroke="midnightblue" points="2419.71,-141.33 2430.22,-140 2421.17,-134.49 2419.71,-141.33"/>
</g>
<!-- Node20&#45;&gt;Node4 -->
<g id="edge29" class="edge">
<title>Node20&#45;&gt;Node4</title>
<path fill="none" stroke="midnightblue" d="M1535.78,-196.57C1534.59,-178.48 1530.15,-151.47 1515,-134 1464.23,-75.44 1429.49,-84.57 1354,-67 1210.5,-33.6 757.05,-20.9 604.58,-17.51"/>
<polygon fill="midnightblue" stroke="midnightblue" points="1532.29,-196.88 1536.16,-206.74 1539.28,-196.61 1532.29,-196.88"/>
</g>
<!-- Node20&#45;&gt;Node19 -->
<g id="edge34" class="edge">
<title>Node20&#45;&gt;Node19</title>
<path fill="none" stroke="midnightblue" d="M1580.41,-204.25C1609.98,-195.76 1649.11,-182.56 1681,-165 1700.4,-154.32 1700.02,-143.55 1720,-134 1779.49,-105.58 1855.51,-92.84 1902.47,-87.37"/>
<polygon fill="midnightblue" stroke="midnightblue" points="1579.46,-200.88 1570.78,-206.95 1581.35,-207.62 1579.46,-200.88"/>
</g>
<!-- Node21 -->
<g id="node21" class="node">
<title>Node21</title>
<g id="a_node21"><a xlink:href="exif-loader_8c.html" target="_top" xlink:title=" ">
<polygon fill="white" stroke="black" points="1562,-140 1562,-159 1672,-159 1672,-140 1562,-140"/>
<text text-anchor="middle" x="1617" y="-147" font-family="Helvetica,sans-Serif" font-size="10.00">libexif/exif&#45;loader.c</text>
</a>
</g>
</g>
<!-- Node20&#45;&gt;Node21 -->
<g id="edge30" class="edge">
<title>Node20&#45;&gt;Node21</title>
<path fill="none" stroke="midnightblue" d="M1555.05,-200.21C1571.01,-187.41 1593.21,-169.59 1606.25,-159.13"/>
<polygon fill="midnightblue" stroke="midnightblue" points="1552.53,-197.75 1546.92,-206.73 1556.91,-203.2 1552.53,-197.75"/>
</g>
<!-- Node20&#45;&gt;Node22 -->
<g id="edge31" class="edge">
<title>Node20&#45;&gt;Node22</title>
<path fill="none" stroke="midnightblue" d="M1581.09,-204.56C1633.92,-191.75 1720.36,-170.78 1768.61,-159.08"/>
<polygon fill="midnightblue" stroke="midnightblue" points="1580.21,-201.18 1571.31,-206.94 1581.86,-207.98 1580.21,-201.18"/>
</g>
<!-- Node20&#45;&gt;Node23 -->
<g id="edge32" class="edge">
<title>Node20&#45;&gt;Node23</title>
<path fill="none" stroke="midnightblue" d="M1601.82,-206.14C1614.17,-204.41 1626.98,-202.64 1639,-201 1758.93,-184.67 1900.05,-166.34 1973.27,-156.89"/>
<polygon fill="midnightblue" stroke="midnightblue" points="1601,-202.72 1591.58,-207.58 1601.97,-209.66 1601,-202.72"/>
</g>
<!-- Node20&#45;&gt;Node24 -->
<g id="edge33" class="edge">
<title>Node20&#45;&gt;Node24</title>
<path fill="none" stroke="midnightblue" d="M1517.66,-200.21C1502.29,-187.41 1480.91,-169.59 1468.35,-159.13"/>
<polygon fill="midnightblue" stroke="midnightblue" points="1515.56,-203.02 1525.48,-206.73 1520.04,-197.64 1515.56,-203.02"/>
</g>
<!-- Node25&#45;&gt;Node4 -->
<g id="edge36" class="edge">
<title>Node25&#45;&gt;Node4</title>
<path fill="none" stroke="midnightblue" d="M336.3,-199.62C295.23,-186.74 255.15,-165.5 275,-134 324.24,-55.85 437.37,-29.62 503.45,-20.86"/>
<polygon fill="midnightblue" stroke="midnightblue" points="335.3,-202.98 345.89,-202.48 337.3,-196.27 335.3,-202.98"/>
</g>
<!-- Node26 -->
<g id="node26" class="node">
<title>Node26</title>
<g id="a_node26"><a xlink:href="exif-mnote-data-fuji_8c.html" target="_top" xlink:title=" ">
<polygon fill="white" stroke="black" points="284,-134.5 284,-164.5 406,-164.5 406,-134.5 284,-134.5"/>
<text text-anchor="start" x="292" y="-152.5" font-family="Helvetica,sans-Serif" font-size="10.00">libexif/fuji/exif&#45;mnote</text>
<text text-anchor="middle" x="345" y="-141.5" font-family="Helvetica,sans-Serif" font-size="10.00">&#45;data&#45;fuji.c</text>
</a>
</g>
</g>
<!-- Node25&#45;&gt;Node26 -->
<g id="edge37" class="edge">
<title>Node25&#45;&gt;Node26</title>
<path fill="none" stroke="midnightblue" d="M386.52,-194.02C377.28,-184.34 366.63,-173.17 358.43,-164.58"/>
<polygon fill="midnightblue" stroke="midnightblue" points="384.11,-196.58 393.55,-201.4 389.18,-191.74 384.11,-196.58"/>
</g>
<!-- Node27 -->
<g id="node27" class="node">
<title>Node27</title>
<g id="a_node27"><a xlink:href="mnote-fuji-entry_8h.html" target="_top" xlink:title=" ">
<polygon fill="white" stroke="black" points="424.5,-134.5 424.5,-164.5 525.5,-164.5 525.5,-134.5 424.5,-134.5"/>
<text text-anchor="start" x="432.5" y="-152.5" font-family="Helvetica,sans-Serif" font-size="10.00">libexif/fuji/mnote</text>
<text text-anchor="middle" x="475" y="-141.5" font-family="Helvetica,sans-Serif" font-size="10.00">&#45;fuji&#45;entry.h</text>
</a>
</g>
</g>
<!-- Node25&#45;&gt;Node27 -->
<g id="edge38" class="edge">
<title>Node25&#45;&gt;Node27</title>
<path fill="none" stroke="midnightblue" d="M423.07,-194.02C432.55,-184.34 444.47,-173.17 454.6,-164.58"/>
<polygon fill="midnightblue" stroke="midnightblue" points="420.42,-191.73 416.08,-201.4 425.5,-196.55 420.42,-191.73"/>
</g>
<!-- Node27&#45;&gt;Node25 -->
<g id="edge39" class="edge">
<title>Node27&#45;&gt;Node25</title>
<path fill="none" stroke="midnightblue" d="M458.96,-171.94C449.48,-181.63 437.56,-192.79 427.43,-201.4"/>
<polygon fill="midnightblue" stroke="midnightblue" points="461.6,-174.24 465.95,-164.58 456.53,-169.42 461.6,-174.24"/>
</g>
<!-- Node28 -->
<g id="node28" class="node">
<title>Node28</title>
<g id="a_node28"><a xlink:href="mnote-fuji-entry_8c.html" target="_top" xlink:title=" ">
<polygon fill="white" stroke="black" points="424.5,-67.5 424.5,-97.5 525.5,-97.5 525.5,-67.5 424.5,-67.5"/>
<text text-anchor="start" x="432.5" y="-85.5" font-family="Helvetica,sans-Serif" font-size="10.00">libexif/fuji/mnote</text>
<text text-anchor="middle" x="475" y="-74.5" font-family="Helvetica,sans-Serif" font-size="10.00">&#45;fuji&#45;entry.c</text>
</a>
</g>
</g>
<!-- Node27&#45;&gt;Node28 -->
<g id="edge40" class="edge">
<title>Node27&#45;&gt;Node28</title>
<path fill="none" stroke="midnightblue" d="M475,-124.11C475,-115.15 475,-105.32 475,-97.58"/>
<polygon fill="midnightblue" stroke="midnightblue" points="471.5,-124.4 475,-134.4 478.5,-124.4 471.5,-124.4"/>
</g>
<!-- Node29&#45;&gt;Node27 -->
<g id="edge42" class="edge">
<title>Node29&#45;&gt;Node27</title>
<path fill="none" stroke="midnightblue" d="M650.28,-198.78C611.6,-188.12 562.08,-174.48 525.54,-164.42"/>
<polygon fill="midnightblue" stroke="midnightblue" points="649.8,-202.27 660.37,-201.56 651.66,-195.53 649.8,-202.27"/>
</g>
<!-- Node30 -->
<g id="node30" class="node">
<title>Node30</title>
<g id="a_node30"><a xlink:href="mnote-fuji-tag_8c.html" target="_top" xlink:title=" ">
<polygon fill="white" stroke="black" points="716.5,-134.5 716.5,-164.5 817.5,-164.5 817.5,-134.5 716.5,-134.5"/>
<text text-anchor="start" x="724.5" y="-152.5" font-family="Helvetica,sans-Serif" font-size="10.00">libexif/fuji/mnote</text>
<text text-anchor="middle" x="767" y="-141.5" font-family="Helvetica,sans-Serif" font-size="10.00">&#45;fuji&#45;tag.c</text>
</a>
</g>
</g>
<!-- Node29&#45;&gt;Node30 -->
<g id="edge43" class="edge">
<title>Node29&#45;&gt;Node30</title>
<path fill="none" stroke="midnightblue" d="M729.75,-193.74C738.04,-184.12 747.54,-173.09 754.87,-164.58"/>
<polygon fill="midnightblue" stroke="midnightblue" points="727.03,-191.54 723.15,-201.4 732.33,-196.1 727.03,-191.54"/>
</g>
<!-- Node32&#45;&gt;Node4 -->
<g id="edge46" class="edge">
<title>Node32&#45;&gt;Node4</title>
<path fill="none" stroke="midnightblue" d="M887.88,-191.15C891.61,-158.19 892.63,-99.74 860,-67 825.03,-31.91 682.25,-21.18 604.7,-17.91"/>
<polygon fill="midnightblue" stroke="midnightblue" points="884.38,-190.91 886.55,-201.28 891.32,-191.82 884.38,-190.91"/>
</g>
<!-- Node32&#45;&gt;Node31 -->
<g id="edge47" class="edge">
<title>Node32&#45;&gt;Node31</title>
<path fill="none" stroke="midnightblue" d="M960.3,-200.81C1055.35,-184.34 1154.12,-169.35 1217.42,-160.01"/>
<polygon fill="midnightblue" stroke="midnightblue" points="959.48,-197.4 950.23,-202.56 960.68,-204.29 959.48,-197.4"/>
</g>
<!-- Node33&#45;&gt;Node4 -->
<g id="edge49" class="edge">
<title>Node33&#45;&gt;Node4</title>
<path fill="none" stroke="midnightblue" d="M153.38,-198.84C111.07,-187.59 63.14,-173.32 57,-165 48.83,-153.91 49.55,-145.59 57,-134 105.44,-58.68 386.88,-29.07 503.45,-19.93"/>
<polygon fill="midnightblue" stroke="midnightblue" points="152.58,-202.25 163.14,-201.41 154.36,-195.48 152.58,-202.25"/>
</g>
<!-- Node34 -->
<g id="node34" class="node">
<title>Node34</title>
<g id="a_node34"><a xlink:href="exif-mnote-data-pentax_8c.html" target="_top" xlink:title=" ">
<polygon fill="white" stroke="black" points="66.5,-134.5 66.5,-164.5 189.5,-164.5 189.5,-134.5 66.5,-134.5"/>
<text text-anchor="start" x="74.5" y="-152.5" font-family="Helvetica,sans-Serif" font-size="10.00">libexif/pentax/exif</text>
<text text-anchor="middle" x="128" y="-141.5" font-family="Helvetica,sans-Serif" font-size="10.00">&#45;mnote&#45;data&#45;pentax.c</text>
</a>
</g>
</g>
<!-- Node33&#45;&gt;Node34 -->
<g id="edge50" class="edge">
<title>Node33&#45;&gt;Node34</title>
<path fill="none" stroke="midnightblue" d="M191.62,-195.45C177.47,-185.45 160.69,-173.6 147.92,-164.58"/>
<polygon fill="midnightblue" stroke="midnightblue" points="189.85,-198.48 200.04,-201.4 193.89,-192.77 189.85,-198.48"/>
</g>
<!-- Node41&#45;&gt;Node2 -->
<g id="edge63" class="edge">
<title>Node41&#45;&gt;Node2</title>
<path fill="none" stroke="midnightblue" d="M509,-282.38C649.22,-281.35 986.58,-274.39 1091,-232 1092.97,-231.2 1207.29,-135.27 1209,-134 1226.41,-121.04 1246.95,-107.49 1262.29,-97.69"/>
<polygon fill="midnightblue" stroke="midnightblue" points="508.83,-278.88 498.86,-282.45 508.88,-285.88 508.83,-278.88"/>
</g>
<!-- Node41&#45;&gt;Node4 -->
<g id="edge64" class="edge">
<title>Node41&#45;&gt;Node4</title>
<path fill="none" stroke="midnightblue" d="M399.21,-264.59C379.2,-256.08 356.18,-244.93 337,-232 319.02,-219.87 274.59,-184.92 266,-165 260.54,-152.35 262.41,-147.3 266,-134 274.98,-100.73 277,-87.07 305,-67 336.19,-44.64 440.01,-29.35 503.32,-21.84"/>
<polygon fill="midnightblue" stroke="midnightblue" points="397.89,-267.83 408.47,-268.43 400.57,-261.36 397.89,-267.83"/>
</g>
<!-- Node41&#45;&gt;Node7 -->
<g id="edge62" class="edge">
<title>Node41&#45;&gt;Node7</title>
<path fill="none" stroke="midnightblue" d="M476.8,-262.73C491.97,-252.68 510.04,-240.68 523.78,-231.58"/>
<polygon fill="midnightblue" stroke="midnightblue" points="474.66,-259.95 468.26,-268.4 478.53,-265.79 474.66,-259.95"/>
</g>
<!-- Node41&#45;&gt;Node25 -->
<g id="edge66" class="edge">
<title>Node41&#45;&gt;Node25</title>
<path fill="none" stroke="midnightblue" d="M433.07,-259.87C427.28,-250.46 420.74,-239.83 415.66,-231.58"/>
<polygon fill="midnightblue" stroke="midnightblue" points="430.1,-261.71 438.32,-268.4 436.06,-258.05 430.1,-261.71"/>
</g>
<!-- Node41&#45;&gt;Node32 -->
<g id="edge67" class="edge">
<title>Node41&#45;&gt;Node32</title>
<path fill="none" stroke="midnightblue" d="M508.75,-273.32C590.51,-261.15 734.13,-239.79 817.99,-227.32"/>
<polygon fill="midnightblue" stroke="midnightblue" points="508.22,-269.86 498.85,-274.79 509.25,-276.78 508.22,-269.86"/>
</g>
<!-- Node41&#45;&gt;Node33 -->
<g id="edge68" class="edge">
<title>Node41&#45;&gt;Node33</title>
<path fill="none" stroke="midnightblue" d="M388.38,-265.71C351.44,-255.14 304.29,-241.63 269.28,-231.61"/>
<polygon fill="midnightblue" stroke="midnightblue" points="387.45,-269.09 398.02,-268.48 389.37,-262.36 387.45,-269.09"/>
</g>
<!-- Node41&#45;&gt;Node42 -->
<g id="edge65" class="edge">
<title>Node41&#45;&gt;Node42</title>
<path fill="none" stroke="midnightblue" d="M385.26,-273.25C324.84,-263.91 230.3,-248.53 149,-232 145.91,-231.37 142.73,-230.7 139.53,-230"/>
<polygon fill="midnightblue" stroke="midnightblue" points="384.98,-276.74 395.4,-274.81 386.04,-269.83 384.98,-276.74"/>
</g>
</g>
</svg>
