<?xml version="1.0" encoding="UTF-8" standalone="no"?>
<!DOCTYPE svg PUBLIC "-//W3C//DTD SVG 1.1//EN"
 "http://www.w3.org/Graphics/SVG/1.1/DTD/svg11.dtd">
<!-- Generated by graphviz version 7.0.1 (0)
 -->
<!-- Title: exif_tag_get_description Pages: 1 -->
<svg width="620pt" height="89pt"
 viewBox="0.00 0.00 620.00 89.00" xmlns="http://www.w3.org/2000/svg" xmlns:xlink="http://www.w3.org/1999/xlink">
<g id="graph0" class="graph" transform="scale(1 1) rotate(0) translate(4 85)">
<title>exif_tag_get_description</title>
<!-- Node1 -->
<g id="Node000001" class="node">
<title>Node1</title>
<g id="a_Node000001"><a xlink:title=" ">
<polygon fill="#999999" stroke="#666666" points="137,-40 0,-40 0,-21 137,-21 137,-40"/>
<text text-anchor="middle" x="68.5" y="-28" font-family="Helvetica,sans-Serif" font-size="10.00">exif_tag_get_description</text>
</a>
</g>
</g>
<!-- Node2 -->
<g id="Node000002" class="node">
<title>Node2</title>
<g id="a_Node000002"><a xlink:href="exif-tag_8c.html#a02e88ff89ef0de523ea1e34d8a808b11" target="_top" xlink:title="Return a verbose textual description of the given tag when found in the given IFD.">
<polygon fill="white" stroke="#666666" points="310,-67.5 173,-67.5 173,-37.5 310,-37.5 310,-67.5"/>
<text text-anchor="start" x="181" y="-55.5" font-family="Helvetica,sans-Serif" font-size="10.00">exif_tag_get_description</text>
<text text-anchor="middle" x="241.5" y="-44.5" font-family="Helvetica,sans-Serif" font-size="10.00">_in_ifd</text>
</a>
</g>
</g>
<!-- Node1&#45;&gt;Node2 -->
<g id="edge1_Node000001_Node000002" class="edge">
<title>Node1&#45;&gt;Node2</title>
<g id="a_edge1_Node000001_Node000002"><a xlink:title=" ">
<path fill="none" stroke="#63b8ff" d="M137.08,-39.19C145.02,-40.22 153.16,-41.26 161.23,-42.3"/>
<polygon fill="#63b8ff" stroke="#63b8ff" points="160.7,-45.76 171.07,-43.57 161.59,-38.82 160.7,-45.76"/>
</a>
</g>
</g>
<!-- Node6 -->
<g id="Node000006" class="node">
<title>Node6</title>
<g id="a_Node000006"><a xlink:href="exif-tag_8c.html#a51b998fa5d181e968cdd4cc2666150e2" target="_top" xlink:title=" ">
<polygon fill="white" stroke="#666666" points="294,-19 189,-19 189,0 294,0 294,-19"/>
<text text-anchor="middle" x="241.5" y="-7" font-family="Helvetica,sans-Serif" font-size="10.00">exif_tag_get_stuff</text>
</a>
</g>
</g>
<!-- Node1&#45;&gt;Node6 -->
<g id="edge5_Node000001_Node000006" class="edge">
<title>Node1&#45;&gt;Node6</title>
<g id="a_edge5_Node000001_Node000006"><a xlink:title=" ">
<path fill="none" stroke="#63b8ff" d="M137.08,-22.2C150.37,-20.57 164.26,-18.86 177.39,-17.25"/>
<polygon fill="#63b8ff" stroke="#63b8ff" points="177.7,-20.74 187.2,-16.05 176.85,-13.79 177.7,-20.74"/>
</a>
</g>
</g>
<!-- Node3 -->
<g id="Node000003" class="node">
<title>Node3</title>
<g id="a_Node000003"><a xlink:href="exif-tag_8c.html#a389f8ff3411e0525b28367892f1e78d3" target="_top" xlink:title="Finds the first entry in the EXIF tag table with the given tag number using a binary search.">
<polygon fill="white" stroke="#666666" points="457,-62 346,-62 346,-43 457,-43 457,-62"/>
<text text-anchor="middle" x="401.5" y="-50" font-family="Helvetica,sans-Serif" font-size="10.00">exif_tag_table_first</text>
</a>
</g>
</g>
<!-- Node2&#45;&gt;Node3 -->
<g id="edge2_Node000002_Node000003" class="edge">
<title>Node2&#45;&gt;Node3</title>
<g id="a_edge2_Node000002_Node000003"><a xlink:title=" ">
<path fill="none" stroke="#63b8ff" d="M310.42,-52.5C318.4,-52.5 326.54,-52.5 334.49,-52.5"/>
<polygon fill="#63b8ff" stroke="#63b8ff" points="334.46,-56 344.46,-52.5 334.46,-49 334.46,-56"/>
</a>
</g>
</g>
<!-- Node4 -->
<g id="Node000004" class="node">
<title>Node4</title>
<g id="a_Node000004"><a xlink:href="exif-tag_8c.html#a87563ee64809f5f0deb4d780098508c1" target="_top" xlink:title="Return the number of entries in the EXIF tag table, including the terminating NULL entry.">
<polygon fill="white" stroke="#666666" points="612,-81 493,-81 493,-62 612,-62 612,-81"/>
<text text-anchor="middle" x="552.5" y="-69" font-family="Helvetica,sans-Serif" font-size="10.00">exif_tag_table_count</text>
</a>
</g>
</g>
<!-- Node3&#45;&gt;Node4 -->
<g id="edge3_Node000003_Node000004" class="edge">
<title>Node3&#45;&gt;Node4</title>
<g id="a_edge3_Node000003_Node000004"><a xlink:title=" ">
<path fill="none" stroke="#63b8ff" d="M457.14,-59.47C464.98,-60.47 473.15,-61.51 481.24,-62.54"/>
<polygon fill="#63b8ff" stroke="#63b8ff" points="480.74,-66.01 491.1,-63.8 481.63,-59.06 480.74,-66.01"/>
</a>
</g>
</g>
<!-- Node5 -->
<g id="Node000005" class="node">
<title>Node5</title>
<g id="a_Node000005"><a xlink:href="exif-tag_8c.html#a220c1b18832f113bc84ff9551754915f" target="_top" xlink:title="Compares the tag with that in entry.">
<polygon fill="white" stroke="#666666" points="586.5,-44 518.5,-44 518.5,-25 586.5,-25 586.5,-44"/>
<text text-anchor="middle" x="552.5" y="-32" font-family="Helvetica,sans-Serif" font-size="10.00">match_tag</text>
</a>
</g>
</g>
<!-- Node3&#45;&gt;Node5 -->
<g id="edge4_Node000003_Node000005" class="edge">
<title>Node3&#45;&gt;Node5</title>
<g id="a_edge4_Node000003_Node000005"><a xlink:title=" ">
<path fill="none" stroke="#63b8ff" d="M457.14,-45.9C473.58,-43.91 491.41,-41.76 507.1,-39.86"/>
<polygon fill="#63b8ff" stroke="#63b8ff" points="507.09,-43.39 516.6,-38.72 506.25,-36.44 507.09,-43.39"/>
</a>
</g>
</g>
</g>
</svg>
