<?xml version="1.0" encoding="UTF-8" standalone="no"?>
<!DOCTYPE svg PUBLIC "-//W3C//DTD SVG 1.1//EN"
 "http://www.w3.org/Graphics/SVG/1.1/DTD/svg11.dtd">
<!-- Generated by graphviz version 7.0.1 (0)
 -->
<!-- Title: libexif/exif&#45;gps&#45;ifd.c Pages: 1 -->
<svg width="387pt" height="192pt"
 viewBox="0.00 0.00 386.50 192.00" xmlns="http://www.w3.org/2000/svg" xmlns:xlink="http://www.w3.org/1999/xlink">
<g id="graph0" class="graph" transform="scale(1 1) rotate(0) translate(4 188)">
<title>libexif/exif&#45;gps&#45;ifd.c</title>
<!-- Node1 -->
<g id="Node000001" class="node">
<title>Node1</title>
<g id="a_Node000001"><a xlink:title="Info about GPS tags.">
<polygon fill="#999999" stroke="#666666" points="141,-184 28,-184 28,-165 141,-165 141,-184"/>
<text text-anchor="middle" x="84.5" y="-172" font-family="Helvetica,sans-Serif" font-size="10.00">libexif/exif&#45;gps&#45;ifd.c</text>
</a>
</g>
</g>
<!-- Node2 -->
<g id="Node000002" class="node">
<title>Node2</title>
<g id="a_Node000002"><a xlink:title=" ">
<polygon fill="#e0e0e0" stroke="#999999" points="69.5,-129 13.5,-129 13.5,-110 69.5,-110 69.5,-129"/>
<text text-anchor="middle" x="41.5" y="-117" font-family="Helvetica,sans-Serif" font-size="10.00">stddef.h</text>
</a>
</g>
</g>
<!-- Node1&#45;&gt;Node2 -->
<g id="edge1_Node000001_Node000002" class="edge">
<title>Node1&#45;&gt;Node2</title>
<g id="a_edge1_Node000001_Node000002"><a xlink:title=" ">
<path fill="none" stroke="#63b8ff" d="M77.4,-164.75C71.58,-157.58 63.17,-147.2 55.94,-138.3"/>
<polygon fill="#63b8ff" stroke="#63b8ff" points="58.73,-136.18 49.71,-130.62 53.29,-140.59 58.73,-136.18"/>
</a>
</g>
</g>
<!-- Node3 -->
<g id="Node000003" class="node">
<title>Node3</title>
<g id="a_Node000003"><a xlink:href="exif-gps-ifd_8h.html" target="_top" xlink:title="Info about GPS tags.">
<polygon fill="white" stroke="#666666" points="167.5,-129 87.5,-129 87.5,-110 167.5,-110 167.5,-129"/>
<text text-anchor="middle" x="127.5" y="-117" font-family="Helvetica,sans-Serif" font-size="10.00">exif&#45;gps&#45;ifd.h</text>
</a>
</g>
</g>
<!-- Node1&#45;&gt;Node3 -->
<g id="edge2_Node000001_Node000003" class="edge">
<title>Node1&#45;&gt;Node3</title>
<g id="a_edge2_Node000001_Node000003"><a xlink:title=" ">
<path fill="none" stroke="#63b8ff" d="M91.6,-164.75C97.42,-157.58 105.83,-147.2 113.06,-138.3"/>
<polygon fill="#63b8ff" stroke="#63b8ff" points="115.71,-140.59 119.29,-130.62 110.27,-136.18 115.71,-140.59"/>
</a>
</g>
</g>
<!-- Node4 -->
<g id="Node000004" class="node">
<title>Node4</title>
<g id="a_Node000004"><a xlink:title=" ">
<polygon fill="#e0e0e0" stroke="#999999" points="53,-74 0,-74 0,-55 53,-55 53,-74"/>
<text text-anchor="middle" x="26.5" y="-62" font-family="Helvetica,sans-Serif" font-size="10.00">stdint.h</text>
</a>
</g>
</g>
<!-- Node3&#45;&gt;Node4 -->
<g id="edge3_Node000003_Node000004" class="edge">
<title>Node3&#45;&gt;Node4</title>
<g id="a_edge3_Node000003_Node000004"><a xlink:title=" ">
<path fill="none" stroke="#63b8ff" d="M110.37,-109.51C94.75,-101.31 71.42,-89.07 53.33,-79.58"/>
<polygon fill="#63b8ff" stroke="#63b8ff" points="55.2,-76.61 44.72,-75.06 51.95,-82.81 55.2,-76.61"/>
</a>
</g>
</g>
<!-- Node5 -->
<g id="Node000005" class="node">
<title>Node5</title>
<g id="a_Node000005"><a xlink:href="exif-format_8h.html" target="_top" xlink:title="Handling native EXIF data types.">
<polygon fill="white" stroke="#666666" points="184,-74 71,-74 71,-55 184,-55 184,-74"/>
<text text-anchor="middle" x="127.5" y="-62" font-family="Helvetica,sans-Serif" font-size="10.00">libexif/exif&#45;format.h</text>
</a>
</g>
</g>
<!-- Node3&#45;&gt;Node5 -->
<g id="edge4_Node000003_Node000005" class="edge">
<title>Node3&#45;&gt;Node5</title>
<g id="a_edge4_Node000003_Node000005"><a xlink:title=" ">
<path fill="none" stroke="#63b8ff" d="M127.5,-109.75C127.5,-103.27 127.5,-94.16 127.5,-85.9"/>
<polygon fill="#63b8ff" stroke="#63b8ff" points="131,-85.96 127.5,-75.96 124,-85.96 131,-85.96"/>
</a>
</g>
</g>
<!-- Node6 -->
<g id="Node000006" class="node">
<title>Node6</title>
<g id="a_Node000006"><a xlink:href="exif-tag_8h.html" target="_top" xlink:title="Handling EXIF tags.">
<polygon fill="white" stroke="#666666" points="298.5,-74 202.5,-74 202.5,-55 298.5,-55 298.5,-74"/>
<text text-anchor="middle" x="250.5" y="-62" font-family="Helvetica,sans-Serif" font-size="10.00">libexif/exif&#45;tag.h</text>
</a>
</g>
</g>
<!-- Node3&#45;&gt;Node6 -->
<g id="edge5_Node000003_Node000006" class="edge">
<title>Node3&#45;&gt;Node6</title>
<g id="a_edge5_Node000003_Node000006"><a xlink:title=" ">
<path fill="none" stroke="#63b8ff" d="M148.37,-109.51C167.92,-101.08 197.4,-88.38 219.67,-78.79"/>
<polygon fill="#63b8ff" stroke="#63b8ff" points="220.75,-82.13 228.55,-74.96 217.98,-75.7 220.75,-82.13"/>
</a>
</g>
</g>
<!-- Node7 -->
<g id="Node000007" class="node">
<title>Node7</title>
<g id="a_Node000007"><a xlink:href="exif-ifd_8h.html" target="_top" xlink:title=" ">
<polygon fill="white" stroke="#666666" points="232,-19 139,-19 139,0 232,0 232,-19"/>
<text text-anchor="middle" x="185.5" y="-7" font-family="Helvetica,sans-Serif" font-size="10.00">libexif/exif&#45;ifd.h</text>
</a>
</g>
</g>
<!-- Node6&#45;&gt;Node7 -->
<g id="edge6_Node000006_Node000007" class="edge">
<title>Node6&#45;&gt;Node7</title>
<g id="a_edge6_Node000006_Node000007"><a xlink:title=" ">
<path fill="none" stroke="#63b8ff" d="M239.47,-54.51C230.08,-46.85 216.35,-35.66 205.09,-26.47"/>
<polygon fill="#63b8ff" stroke="#63b8ff" points="207.5,-23.92 197.54,-20.31 203.07,-29.35 207.5,-23.92"/>
</a>
</g>
</g>
<!-- Node8 -->
<g id="Node000008" class="node">
<title>Node8</title>
<g id="a_Node000008"><a xlink:href="exif-data-type_8h.html" target="_top" xlink:title=" ">
<polygon fill="white" stroke="#666666" points="378.5,-19 250.5,-19 250.5,0 378.5,0 378.5,-19"/>
<text text-anchor="middle" x="314.5" y="-7" font-family="Helvetica,sans-Serif" font-size="10.00">libexif/exif&#45;data&#45;type.h</text>
</a>
</g>
</g>
<!-- Node6&#45;&gt;Node8 -->
<g id="edge7_Node000006_Node000008" class="edge">
<title>Node6&#45;&gt;Node8</title>
<g id="a_edge7_Node000006_Node000008"><a xlink:title=" ">
<path fill="none" stroke="#63b8ff" d="M261.36,-54.51C270.61,-46.85 284.12,-35.66 295.21,-26.47"/>
<polygon fill="#63b8ff" stroke="#63b8ff" points="297.17,-29.4 302.64,-20.32 292.7,-24.01 297.17,-29.4"/>
</a>
</g>
</g>
</g>
</svg>
