<?xml version="1.0" encoding="UTF-8" standalone="no"?>
<!DOCTYPE svg PUBLIC "-//W3C//DTD SVG 1.1//EN"
 "http://www.w3.org/Graphics/SVG/1.1/DTD/svg11.dtd">
<!-- Generated by graphviz version 2.44.1 (0)
 -->
<!-- Title: content_set_byte_order Pages: 1 -->
<svg width="863pt" height="474pt"
 viewBox="0.00 0.00 863.00 474.00" xmlns="http://www.w3.org/2000/svg" xmlns:xlink="http://www.w3.org/1999/xlink">
<g id="graph0" class="graph" transform="scale(1 1) rotate(0) translate(4 470)">
<title>content_set_byte_order</title>
<polygon fill="white" stroke="transparent" points="-4,4 -4,-470 859,-470 859,4 -4,4"/>
<!-- Node1 -->
<g id="node1" class="node">
<title>Node1</title>
<g id="a_node1"><a xlink:title=" ">
<polygon fill="#bfbfbf" stroke="black" points="0,-196.5 0,-215.5 131,-215.5 131,-196.5 0,-196.5"/>
<text text-anchor="middle" x="65.5" y="-203.5" font-family="Helvetica,sans-Serif" font-size="10.00">content_set_byte_order</text>
</a>
</g>
</g>
<!-- Node2 -->
<g id="node2" class="node">
<title>Node2</title>
<g id="a_node2"><a xlink:href="exif-data_8c.html#a94ca6e374374d20636e7f72a3605345c" target="_top" xlink:title=" ">
<polygon fill="white" stroke="black" points="167,-218.5 167,-237.5 287,-237.5 287,-218.5 167,-218.5"/>
<text text-anchor="middle" x="227" y="-225.5" font-family="Helvetica,sans-Serif" font-size="10.00">entry_set_byte_order</text>
</a>
</g>
</g>
<!-- Node1&#45;&gt;Node2 -->
<g id="edge1" class="edge">
<title>Node1&#45;&gt;Node2</title>
<path fill="none" stroke="midnightblue" d="M131.37,-214.95C139.71,-216.1 148.28,-217.28 156.68,-218.44"/>
<polygon fill="midnightblue" stroke="midnightblue" points="156.45,-221.94 166.83,-219.84 157.41,-215.01 156.45,-221.94"/>
</g>
<!-- Node17 -->
<g id="node17" class="node">
<title>Node17</title>
<g id="a_node17"><a xlink:href="exif-content_8c.html#af7372b1342146e73a9d5b671c717a730" target="_top" xlink:title="Executes function on each EXIF tag in this IFD in turn.">
<polygon fill="white" stroke="black" points="167.5,-169 167.5,-199 286.5,-199 286.5,-169 167.5,-169"/>
<text text-anchor="start" x="175.5" y="-187" font-family="Helvetica,sans-Serif" font-size="10.00">exif_content_foreach</text>
<text text-anchor="middle" x="227" y="-176" font-family="Helvetica,sans-Serif" font-size="10.00">_entry</text>
</a>
</g>
</g>
<!-- Node1&#45;&gt;Node17 -->
<g id="edge24" class="edge">
<title>Node1&#45;&gt;Node17</title>
<path fill="none" stroke="midnightblue" d="M131.37,-197.05C139.93,-195.87 148.72,-194.66 157.34,-193.47"/>
<polygon fill="midnightblue" stroke="midnightblue" points="157.92,-196.92 167.34,-192.09 156.96,-189.99 157.92,-196.92"/>
</g>
<!-- Node3 -->
<g id="node3" class="node">
<title>Node3</title>
<g id="a_node3"><a xlink:href="exif-utils_8c.html#a54ef3b86ffeb643e9c4434b85ccf2992" target="_top" xlink:title=" ">
<polygon fill="white" stroke="black" points="323,-213 323,-243 436,-243 436,-213 323,-213"/>
<text text-anchor="start" x="331" y="-231" font-family="Helvetica,sans-Serif" font-size="10.00">exif_array_set_byte</text>
<text text-anchor="middle" x="379.5" y="-220" font-family="Helvetica,sans-Serif" font-size="10.00">_order</text>
</a>
</g>
</g>
<!-- Node2&#45;&gt;Node3 -->
<g id="edge2" class="edge">
<title>Node2&#45;&gt;Node3</title>
<path fill="none" stroke="midnightblue" d="M287.05,-228C295.36,-228 303.95,-228 312.39,-228"/>
<polygon fill="midnightblue" stroke="midnightblue" points="312.57,-231.5 322.57,-228 312.57,-224.5 312.57,-231.5"/>
</g>
<!-- Node4 -->
<g id="node4" class="node">
<title>Node4</title>
<g id="a_node4"><a xlink:href="exif-format_8c.html#a924038efe0cd8ebade8f44619dd794f3" target="_top" xlink:title="Return the raw size of the given EXIF data type.">
<polygon fill="white" stroke="black" points="472,-446.5 472,-465.5 591,-465.5 591,-446.5 472,-446.5"/>
<text text-anchor="middle" x="531.5" y="-453.5" font-family="Helvetica,sans-Serif" font-size="10.00">exif_format_get_size</text>
</a>
</g>
</g>
<!-- Node3&#45;&gt;Node4 -->
<g id="edge3" class="edge">
<title>Node3&#45;&gt;Node4</title>
<path fill="none" stroke="midnightblue" d="M383.25,-243.01C390.79,-280.08 415.11,-376.92 472,-432 476.04,-435.91 480.81,-439.22 485.85,-442.01"/>
<polygon fill="midnightblue" stroke="midnightblue" points="484.6,-445.29 495.12,-446.49 487.64,-438.99 484.6,-445.29"/>
</g>
<!-- Node5 -->
<g id="node5" class="node">
<title>Node5</title>
<g id="a_node5"><a xlink:href="exif-utils_8c.html#a4ad94614630897766dd0a5c9bc2a59bf" target="_top" xlink:title="Retrieve an ExifLong value from memory.">
<polygon fill="white" stroke="black" points="637.5,-370.5 637.5,-389.5 720.5,-389.5 720.5,-370.5 637.5,-370.5"/>
<text text-anchor="middle" x="679" y="-377.5" font-family="Helvetica,sans-Serif" font-size="10.00">exif_get_long</text>
</a>
</g>
</g>
<!-- Node3&#45;&gt;Node5 -->
<g id="edge4" class="edge">
<title>Node3&#45;&gt;Node5</title>
<path fill="none" stroke="midnightblue" d="M383.26,-243.21C390.53,-278.21 413.8,-364.13 472,-399 526.76,-431.81 604.79,-409.9 647.38,-393.44"/>
<polygon fill="midnightblue" stroke="midnightblue" points="648.93,-396.59 656.9,-389.61 646.32,-390.09 648.93,-396.59"/>
</g>
<!-- Node6 -->
<g id="node6" class="node">
<title>Node6</title>
<g id="a_node6"><a xlink:href="exif-utils_8c.html#a56b96f076a13da6ed926e1ef29cb2dc3" target="_top" xlink:title="Retrieve an ExifSLong value from memory.">
<polygon fill="white" stroke="black" points="767,-332.5 767,-351.5 855,-351.5 855,-332.5 767,-332.5"/>
<text text-anchor="middle" x="811" y="-339.5" font-family="Helvetica,sans-Serif" font-size="10.00">exif_get_slong</text>
</a>
</g>
</g>
<!-- Node3&#45;&gt;Node6 -->
<g id="edge10" class="edge">
<title>Node3&#45;&gt;Node6</title>
<path fill="none" stroke="midnightblue" d="M389.76,-243.23C404.19,-265.38 434.33,-305.72 472,-323 564.86,-365.6 687.45,-359.11 756.58,-350.55"/>
<polygon fill="midnightblue" stroke="midnightblue" points="757.33,-353.99 766.8,-349.22 756.43,-347.04 757.33,-353.99"/>
</g>
<!-- Node7 -->
<g id="node7" class="node">
<title>Node7</title>
<g id="a_node7"><a xlink:href="exif-utils_8c.html#a1feb547c289aa57a4d2119338b03706c" target="_top" xlink:title="Retrieve an ExifRational value from memory.">
<polygon fill="white" stroke="black" points="482,-370.5 482,-389.5 581,-389.5 581,-370.5 482,-370.5"/>
<text text-anchor="middle" x="531.5" y="-377.5" font-family="Helvetica,sans-Serif" font-size="10.00">exif_get_rational</text>
</a>
</g>
</g>
<!-- Node3&#45;&gt;Node7 -->
<g id="edge6" class="edge">
<title>Node3&#45;&gt;Node7</title>
<path fill="none" stroke="midnightblue" d="M387.7,-243.13C400.94,-269.46 431.53,-323.95 472,-356 477.03,-359.98 482.8,-363.39 488.73,-366.29"/>
<polygon fill="midnightblue" stroke="midnightblue" points="487.51,-369.58 498.07,-370.43 490.35,-363.18 487.51,-369.58"/>
</g>
<!-- Node8 -->
<g id="node8" class="node">
<title>Node8</title>
<g id="a_node8"><a xlink:href="exif-utils_8c.html#a4b4acf537a8c6b9405e7b53be868e4d7" target="_top" xlink:title="Retrieve an ExifShort value from memory.">
<polygon fill="white" stroke="black" points="488.5,-294.5 488.5,-313.5 574.5,-313.5 574.5,-294.5 488.5,-294.5"/>
<text text-anchor="middle" x="531.5" y="-301.5" font-family="Helvetica,sans-Serif" font-size="10.00">exif_get_short</text>
</a>
</g>
</g>
<!-- Node3&#45;&gt;Node8 -->
<g id="edge8" class="edge">
<title>Node3&#45;&gt;Node8</title>
<path fill="none" stroke="midnightblue" d="M405.28,-243.23C423.43,-254.09 448.84,-268.72 472,-280 479.58,-283.69 487.87,-287.32 495.77,-290.61"/>
<polygon fill="midnightblue" stroke="midnightblue" points="494.56,-293.89 505.14,-294.41 497.19,-287.41 494.56,-293.89"/>
</g>
<!-- Node9 -->
<g id="node9" class="node">
<title>Node9</title>
<g id="a_node9"><a xlink:href="exif-utils_8c.html#a6baf094a71392f9cea23ad633ec13c8b" target="_top" xlink:title="Retrieve an ExifSShort value from memory.">
<polygon fill="white" stroke="black" points="633,-284.5 633,-303.5 725,-303.5 725,-284.5 633,-284.5"/>
<text text-anchor="middle" x="679" y="-291.5" font-family="Helvetica,sans-Serif" font-size="10.00">exif_get_sshort</text>
</a>
</g>
</g>
<!-- Node3&#45;&gt;Node9 -->
<g id="edge13" class="edge">
<title>Node3&#45;&gt;Node9</title>
<path fill="none" stroke="midnightblue" d="M436.11,-240.34C490.14,-252.32 571.62,-270.4 624.81,-282.2"/>
<polygon fill="midnightblue" stroke="midnightblue" points="624.21,-285.65 634.73,-284.4 625.73,-278.82 624.21,-285.65"/>
</g>
<!-- Node10 -->
<g id="node10" class="node">
<title>Node10</title>
<g id="a_node10"><a xlink:href="exif-utils_8c.html#adb97c3499488d5642a82df1cb16dc2cb" target="_top" xlink:title="Retrieve an ExifSRational value from memory.">
<polygon fill="white" stroke="black" points="627,-227.5 627,-246.5 731,-246.5 731,-227.5 627,-227.5"/>
<text text-anchor="middle" x="679" y="-234.5" font-family="Helvetica,sans-Serif" font-size="10.00">exif_get_srational</text>
</a>
</g>
</g>
<!-- Node3&#45;&gt;Node10 -->
<g id="edge11" class="edge">
<title>Node3&#45;&gt;Node10</title>
<path fill="none" stroke="midnightblue" d="M436.11,-229.68C487.35,-231.23 563.27,-233.53 616.34,-235.13"/>
<polygon fill="midnightblue" stroke="midnightblue" points="616.54,-238.64 626.64,-235.45 616.75,-231.65 616.54,-238.64"/>
</g>
<!-- Node11 -->
<g id="node11" class="node">
<title>Node11</title>
<g id="a_node11"><a xlink:href="exif-utils_8c.html#ac90147d0cc97bec7a577bf9576191bf8" target="_top" xlink:title="Store an ExifLong value into memory in EXIF format.">
<polygon fill="white" stroke="black" points="638,-142.5 638,-161.5 720,-161.5 720,-142.5 638,-142.5"/>
<text text-anchor="middle" x="679" y="-149.5" font-family="Helvetica,sans-Serif" font-size="10.00">exif_set_long</text>
</a>
</g>
</g>
<!-- Node3&#45;&gt;Node11 -->
<g id="edge14" class="edge">
<title>Node3&#45;&gt;Node11</title>
<path fill="none" stroke="midnightblue" d="M436.11,-213.79C492.2,-199.47 577.85,-177.58 630.75,-164.07"/>
<polygon fill="midnightblue" stroke="midnightblue" points="631.73,-167.43 640.56,-161.57 630,-160.65 631.73,-167.43"/>
</g>
<!-- Node12 -->
<g id="node12" class="node">
<title>Node12</title>
<g id="a_node12"><a xlink:href="exif-utils_8c.html#ae6e3b9d1663f9ab9bd462d73a310ca03" target="_top" xlink:title="Store an ExifSLong value into memory in EXIF format.">
<polygon fill="white" stroke="black" points="767.5,-104.5 767.5,-123.5 854.5,-123.5 854.5,-104.5 767.5,-104.5"/>
<text text-anchor="middle" x="811" y="-111.5" font-family="Helvetica,sans-Serif" font-size="10.00">exif_set_slong</text>
</a>
</g>
</g>
<!-- Node3&#45;&gt;Node12 -->
<g id="edge20" class="edge">
<title>Node3&#45;&gt;Node12</title>
<path fill="none" stroke="midnightblue" d="M389.76,-212.77C404.19,-190.62 434.33,-150.28 472,-133 565.11,-90.28 688.12,-96.93 757.15,-105.52"/>
<polygon fill="midnightblue" stroke="midnightblue" points="756.97,-109.02 767.34,-106.85 757.88,-102.08 756.97,-109.02"/>
</g>
<!-- Node13 -->
<g id="node13" class="node">
<title>Node13</title>
<g id="a_node13"><a xlink:href="exif-utils_8c.html#a400a16b1754150f721e9fca67ad89a52" target="_top" xlink:title="Store an ExifRational value into memory in EXIF format.">
<polygon fill="white" stroke="black" points="482.5,-142.5 482.5,-161.5 580.5,-161.5 580.5,-142.5 482.5,-142.5"/>
<text text-anchor="middle" x="531.5" y="-149.5" font-family="Helvetica,sans-Serif" font-size="10.00">exif_set_rational</text>
</a>
</g>
</g>
<!-- Node3&#45;&gt;Node13 -->
<g id="edge16" class="edge">
<title>Node3&#45;&gt;Node13</title>
<path fill="none" stroke="midnightblue" d="M405.28,-212.77C423.43,-201.91 448.84,-187.28 472,-176 479.58,-172.31 487.87,-168.68 495.77,-165.39"/>
<polygon fill="midnightblue" stroke="midnightblue" points="497.19,-168.59 505.14,-161.59 494.56,-162.11 497.19,-168.59"/>
</g>
<!-- Node14 -->
<g id="node14" class="node">
<title>Node14</title>
<g id="a_node14"><a xlink:href="exif-utils_8c.html#ad905d16e26b4052a1db34dbebdc37341" target="_top" xlink:title="Store an ExifShort value into memory in EXIF format.">
<polygon fill="white" stroke="black" points="488.5,-66.5 488.5,-85.5 574.5,-85.5 574.5,-66.5 488.5,-66.5"/>
<text text-anchor="middle" x="531.5" y="-73.5" font-family="Helvetica,sans-Serif" font-size="10.00">exif_set_short</text>
</a>
</g>
</g>
<!-- Node3&#45;&gt;Node14 -->
<g id="edge18" class="edge">
<title>Node3&#45;&gt;Node14</title>
<path fill="none" stroke="midnightblue" d="M387.7,-212.87C400.94,-186.54 431.53,-132.05 472,-100 477.03,-96.02 482.8,-92.61 488.73,-89.71"/>
<polygon fill="midnightblue" stroke="midnightblue" points="490.35,-92.82 498.07,-85.57 487.51,-86.42 490.35,-92.82"/>
</g>
<!-- Node15 -->
<g id="node15" class="node">
<title>Node15</title>
<g id="a_node15"><a xlink:href="exif-utils_8c.html#a6504651147702fc6db9a5cd4aa997023" target="_top" xlink:title="Store an ExifSShort value into memory in EXIF format.">
<polygon fill="white" stroke="black" points="633.5,-57.5 633.5,-76.5 724.5,-76.5 724.5,-57.5 633.5,-57.5"/>
<text text-anchor="middle" x="679" y="-64.5" font-family="Helvetica,sans-Serif" font-size="10.00">exif_set_sshort</text>
</a>
</g>
</g>
<!-- Node3&#45;&gt;Node15 -->
<g id="edge23" class="edge">
<title>Node3&#45;&gt;Node15</title>
<path fill="none" stroke="midnightblue" d="M383.26,-212.79C390.53,-177.79 413.8,-91.87 472,-57 525,-25.25 600.15,-40.84 643.5,-54.39"/>
<polygon fill="midnightblue" stroke="midnightblue" points="642.44,-57.72 653.03,-57.49 644.61,-51.06 642.44,-57.72"/>
</g>
<!-- Node16 -->
<g id="node16" class="node">
<title>Node16</title>
<g id="a_node16"><a xlink:href="exif-utils_8c.html#aca1790a72b1833dff1b0bf728052c3c5" target="_top" xlink:title="Store an ExifSRational value into memory in EXIF format.">
<polygon fill="white" stroke="black" points="627,-0.5 627,-19.5 731,-19.5 731,-0.5 627,-0.5"/>
<text text-anchor="middle" x="679" y="-7.5" font-family="Helvetica,sans-Serif" font-size="10.00">exif_set_srational</text>
</a>
</g>
</g>
<!-- Node3&#45;&gt;Node16 -->
<g id="edge21" class="edge">
<title>Node3&#45;&gt;Node16</title>
<path fill="none" stroke="midnightblue" d="M382.66,-212.73C388.83,-175.2 410.31,-78.33 472,-34 513.64,-4.08 572.7,-0.02 616.91,-2.31"/>
<polygon fill="midnightblue" stroke="midnightblue" points="616.76,-5.81 626.96,-2.95 617.2,1.18 616.76,-5.81"/>
</g>
<!-- Node5&#45;&gt;Node6 -->
<g id="edge5" class="edge">
<title>Node5&#45;&gt;Node6</title>
<path fill="none" stroke="midnightblue" d="M712.8,-370.41C729.28,-365.6 749.44,-359.7 767.13,-354.53"/>
<polygon fill="midnightblue" stroke="midnightblue" points="768.59,-357.75 777.21,-351.59 766.63,-351.03 768.59,-357.75"/>
</g>
<!-- Node7&#45;&gt;Node5 -->
<g id="edge7" class="edge">
<title>Node7&#45;&gt;Node5</title>
<path fill="none" stroke="midnightblue" d="M581.35,-380C596.11,-380 612.34,-380 627.22,-380"/>
<polygon fill="midnightblue" stroke="midnightblue" points="627.27,-383.5 637.27,-380 627.27,-376.5 627.27,-383.5"/>
</g>
<!-- Node8&#45;&gt;Node9 -->
<g id="edge9" class="edge">
<title>Node8&#45;&gt;Node9</title>
<path fill="none" stroke="midnightblue" d="M574.58,-301.11C589.59,-300.08 606.73,-298.9 622.69,-297.8"/>
<polygon fill="midnightblue" stroke="midnightblue" points="623.23,-301.27 632.96,-297.1 622.75,-294.29 623.23,-301.27"/>
</g>
<!-- Node10&#45;&gt;Node6 -->
<g id="edge12" class="edge">
<title>Node10&#45;&gt;Node6</title>
<path fill="none" stroke="midnightblue" d="M693.6,-246.77C703.97,-254.32 718.56,-265.1 731,-275 752.09,-291.78 775.57,-311.87 791.4,-325.65"/>
<polygon fill="midnightblue" stroke="midnightblue" points="789.1,-328.29 798.93,-332.23 793.71,-323.02 789.1,-328.29"/>
</g>
<!-- Node11&#45;&gt;Node12 -->
<g id="edge15" class="edge">
<title>Node11&#45;&gt;Node12</title>
<path fill="none" stroke="midnightblue" d="M712.8,-142.41C729.28,-137.6 749.44,-131.7 767.13,-126.53"/>
<polygon fill="midnightblue" stroke="midnightblue" points="768.59,-129.75 777.21,-123.59 766.63,-123.03 768.59,-129.75"/>
</g>
<!-- Node13&#45;&gt;Node11 -->
<g id="edge17" class="edge">
<title>Node13&#45;&gt;Node11</title>
<path fill="none" stroke="midnightblue" d="M580.55,-152C595.61,-152 612.28,-152 627.51,-152"/>
<polygon fill="midnightblue" stroke="midnightblue" points="627.78,-155.5 637.78,-152 627.78,-148.5 627.78,-155.5"/>
</g>
<!-- Node14&#45;&gt;Node15 -->
<g id="edge19" class="edge">
<title>Node14&#45;&gt;Node15</title>
<path fill="none" stroke="midnightblue" d="M574.58,-73.4C589.73,-72.46 607.05,-71.39 623.12,-70.39"/>
<polygon fill="midnightblue" stroke="midnightblue" points="623.71,-73.86 633.47,-69.75 623.28,-66.88 623.71,-73.86"/>
</g>
<!-- Node16&#45;&gt;Node12 -->
<g id="edge22" class="edge">
<title>Node16&#45;&gt;Node12</title>
<path fill="none" stroke="midnightblue" d="M693.58,-19.8C703.94,-27.36 718.52,-38.15 731,-48 751.83,-64.44 775.08,-84.02 790.93,-97.56"/>
<polygon fill="midnightblue" stroke="midnightblue" points="789.04,-100.55 798.91,-104.4 793.6,-95.24 789.04,-100.55"/>
</g>
</g>
</svg>
