<?xml version="1.0" encoding="UTF-8" standalone="no"?>
<!DOCTYPE svg PUBLIC "-//W3C//DTD SVG 1.1//EN"
 "http://www.w3.org/Graphics/SVG/1.1/DTD/svg11.dtd">
<!-- Generated by graphviz version 7.0.1 (0)
 -->
<!-- Title: exif_array_set_byte_order Pages: 1 -->
<svg width="540pt" height="473pt"
 viewBox="0.00 0.00 540.00 473.00" xmlns="http://www.w3.org/2000/svg" xmlns:xlink="http://www.w3.org/1999/xlink">
<g id="graph0" class="graph" transform="scale(1 1) rotate(0) translate(4 469)">
<title>exif_array_set_byte_order</title>
<!-- Node1 -->
<g id="Node000001" class="node">
<title>Node1</title>
<g id="a_Node000001"><a xlink:title=" ">
<polygon fill="#999999" stroke="#666666" points="113,-242.5 0,-242.5 0,-212.5 113,-212.5 113,-242.5"/>
<text text-anchor="start" x="8" y="-230.5" font-family="Helvetica,sans-Serif" font-size="10.00">exif_array_set_byte</text>
<text text-anchor="middle" x="56.5" y="-219.5" font-family="Helvetica,sans-Serif" font-size="10.00">_order</text>
</a>
</g>
</g>
<!-- Node2 -->
<g id="Node000002" class="node">
<title>Node2</title>
<g id="a_Node000002"><a xlink:href="exif-format_8c.html#a924038efe0cd8ebade8f44619dd794f3" target="_top" xlink:title="Return the raw size of the given EXIF data type.">
<polygon fill="white" stroke="#666666" points="268,-465 149,-465 149,-446 268,-446 268,-465"/>
<text text-anchor="middle" x="208.5" y="-453" font-family="Helvetica,sans-Serif" font-size="10.00">exif_format_get_size</text>
</a>
</g>
</g>
<!-- Node1&#45;&gt;Node2 -->
<g id="edge1_Node000001_Node000002" class="edge">
<title>Node1&#45;&gt;Node2</title>
<g id="a_edge1_Node000001_Node000002"><a xlink:title=" ">
<path fill="none" stroke="#63b8ff" d="M60.31,-242.79C67.9,-280.06 92.25,-376.55 149,-431.5 152.6,-434.99 156.78,-437.99 161.22,-440.58"/>
<polygon fill="#63b8ff" stroke="#63b8ff" points="159.35,-443.56 169.86,-444.92 162.49,-437.3 159.35,-443.56"/>
</a>
</g>
</g>
<!-- Node3 -->
<g id="Node000003" class="node">
<title>Node3</title>
<g id="a_Node000003"><a xlink:href="exif-utils_8c.html#a4ad94614630897766dd0a5c9bc2a59bf" target="_top" xlink:title="Retrieve an ExifLong value from memory.">
<polygon fill="white" stroke="#666666" points="397.5,-389 314.5,-389 314.5,-370 397.5,-370 397.5,-389"/>
<text text-anchor="middle" x="356" y="-377" font-family="Helvetica,sans-Serif" font-size="10.00">exif_get_long</text>
</a>
</g>
</g>
<!-- Node1&#45;&gt;Node3 -->
<g id="edge2_Node000001_Node000003" class="edge">
<title>Node1&#45;&gt;Node3</title>
<g id="a_edge2_Node000001_Node000003"><a xlink:title=" ">
<path fill="none" stroke="#63b8ff" d="M60.32,-242.97C67.65,-278.14 90.94,-363.72 149,-398.5 203.02,-430.86 279.67,-409.98 322.62,-393.61"/>
<polygon fill="#63b8ff" stroke="#63b8ff" points="323.88,-396.88 331.88,-389.93 321.29,-390.37 323.88,-396.88"/>
</a>
</g>
</g>
<!-- Node4 -->
<g id="Node000004" class="node">
<title>Node4</title>
<g id="a_Node000004"><a xlink:href="exif-utils_8c.html#a56b96f076a13da6ed926e1ef29cb2dc3" target="_top" xlink:title="Retrieve an ExifSLong value from memory.">
<polygon fill="white" stroke="#666666" points="532,-351 444,-351 444,-332 532,-332 532,-351"/>
<text text-anchor="middle" x="488" y="-339" font-family="Helvetica,sans-Serif" font-size="10.00">exif_get_slong</text>
</a>
</g>
</g>
<!-- Node1&#45;&gt;Node4 -->
<g id="edge8_Node000001_Node000004" class="edge">
<title>Node1&#45;&gt;Node4</title>
<g id="a_edge8_Node000001_Node000004"><a xlink:title=" ">
<path fill="none" stroke="#63b8ff" d="M66.76,-242.73C81.19,-264.88 111.33,-305.22 149,-322.5 241.35,-364.87 363.11,-358.68 432.44,-350.19"/>
<polygon fill="#63b8ff" stroke="#63b8ff" points="432.55,-353.71 442.02,-348.96 431.65,-346.77 432.55,-353.71"/>
</a>
</g>
</g>
<!-- Node5 -->
<g id="Node000005" class="node">
<title>Node5</title>
<g id="a_Node000005"><a xlink:href="exif-utils_8c.html#a1feb547c289aa57a4d2119338b03706c" target="_top" xlink:title="Retrieve an ExifRational value from memory.">
<polygon fill="white" stroke="#666666" points="258,-389 159,-389 159,-370 258,-370 258,-389"/>
<text text-anchor="middle" x="208.5" y="-377" font-family="Helvetica,sans-Serif" font-size="10.00">exif_get_rational</text>
</a>
</g>
</g>
<!-- Node1&#45;&gt;Node5 -->
<g id="edge4_Node000001_Node000005" class="edge">
<title>Node1&#45;&gt;Node5</title>
<g id="a_edge4_Node000001_Node000005"><a xlink:title=" ">
<path fill="none" stroke="#63b8ff" d="M64.7,-242.63C77.94,-268.96 108.53,-323.45 149,-355.5 153.51,-359.07 158.63,-362.19 163.91,-364.88"/>
<polygon fill="#63b8ff" stroke="#63b8ff" points="162.23,-367.96 172.78,-368.93 165.14,-361.6 162.23,-367.96"/>
</a>
</g>
</g>
<!-- Node6 -->
<g id="Node000006" class="node">
<title>Node6</title>
<g id="a_Node000006"><a xlink:href="exif-utils_8c.html#a4b4acf537a8c6b9405e7b53be868e4d7" target="_top" xlink:title="Retrieve an ExifShort value from memory.">
<polygon fill="white" stroke="#666666" points="251.5,-313 165.5,-313 165.5,-294 251.5,-294 251.5,-313"/>
<text text-anchor="middle" x="208.5" y="-301" font-family="Helvetica,sans-Serif" font-size="10.00">exif_get_short</text>
</a>
</g>
</g>
<!-- Node1&#45;&gt;Node6 -->
<g id="edge6_Node000001_Node000006" class="edge">
<title>Node1&#45;&gt;Node6</title>
<g id="a_edge6_Node000001_Node000006"><a xlink:title=" ">
<path fill="none" stroke="#63b8ff" d="M82.67,-242.96C100.79,-253.8 126,-268.3 149,-279.5 155.96,-282.89 163.53,-286.23 170.84,-289.3"/>
<polygon fill="#63b8ff" stroke="#63b8ff" points="169.29,-292.45 179.87,-292.99 171.94,-285.97 169.29,-292.45"/>
</a>
</g>
</g>
<!-- Node7 -->
<g id="Node000007" class="node">
<title>Node7</title>
<g id="a_Node000007"><a xlink:href="exif-utils_8c.html#a6baf094a71392f9cea23ad633ec13c8b" target="_top" xlink:title="Retrieve an ExifSShort value from memory.">
<polygon fill="white" stroke="#666666" points="402,-294 310,-294 310,-275 402,-275 402,-294"/>
<text text-anchor="middle" x="356" y="-282" font-family="Helvetica,sans-Serif" font-size="10.00">exif_get_sshort</text>
</a>
</g>
</g>
<!-- Node1&#45;&gt;Node7 -->
<g id="edge11_Node000001_Node000007" class="edge">
<title>Node1&#45;&gt;Node7</title>
<g id="a_edge11_Node000001_Node000007"><a xlink:title=" ">
<path fill="none" stroke="#63b8ff" d="M113.46,-238.22C166.3,-248.35 245.16,-263.46 298.26,-273.63"/>
<polygon fill="#63b8ff" stroke="#63b8ff" points="297.55,-277.06 308.03,-275.5 298.87,-270.18 297.55,-277.06"/>
</a>
</g>
</g>
<!-- Node8 -->
<g id="Node000008" class="node">
<title>Node8</title>
<g id="a_Node000008"><a xlink:href="exif-utils_8c.html#adb97c3499488d5642a82df1cb16dc2cb" target="_top" xlink:title="Retrieve an ExifSRational value from memory.">
<polygon fill="white" stroke="#666666" points="408,-237 304,-237 304,-218 408,-218 408,-237"/>
<text text-anchor="middle" x="356" y="-225" font-family="Helvetica,sans-Serif" font-size="10.00">exif_get_srational</text>
</a>
</g>
</g>
<!-- Node1&#45;&gt;Node8 -->
<g id="edge9_Node000001_Node000008" class="edge">
<title>Node1&#45;&gt;Node8</title>
<g id="a_edge9_Node000001_Node000008"><a xlink:title=" ">
<path fill="none" stroke="#63b8ff" d="M113.46,-227.5C164.42,-227.5 239.58,-227.5 292.5,-227.5"/>
<polygon fill="#63b8ff" stroke="#63b8ff" points="292.25,-231 302.25,-227.5 292.25,-224 292.25,-231"/>
</a>
</g>
</g>
<!-- Node9 -->
<g id="Node000009" class="node">
<title>Node9</title>
<g id="a_Node000009"><a xlink:href="exif-utils_8c.html#ac90147d0cc97bec7a577bf9576191bf8" target="_top" xlink:title="Store an ExifLong value into memory in EXIF format.">
<polygon fill="white" stroke="#666666" points="397,-161 315,-161 315,-142 397,-142 397,-161"/>
<text text-anchor="middle" x="356" y="-149" font-family="Helvetica,sans-Serif" font-size="10.00">exif_set_long</text>
</a>
</g>
</g>
<!-- Node1&#45;&gt;Node9 -->
<g id="edge12_Node000001_Node000009" class="edge">
<title>Node1&#45;&gt;Node9</title>
<g id="a_edge12_Node000001_Node000009"><a xlink:title=" ">
<path fill="none" stroke="#63b8ff" d="M113.46,-213.2C168.5,-199.14 251.76,-177.87 304.74,-164.34"/>
<polygon fill="#63b8ff" stroke="#63b8ff" points="305.61,-167.73 314.43,-161.86 303.87,-160.95 305.61,-167.73"/>
</a>
</g>
</g>
<!-- Node10 -->
<g id="Node000010" class="node">
<title>Node10</title>
<g id="a_Node000010"><a xlink:href="exif-utils_8c.html#ae6e3b9d1663f9ab9bd462d73a310ca03" target="_top" xlink:title="Store an ExifSLong value into memory in EXIF format.">
<polygon fill="white" stroke="#666666" points="531.5,-123 444.5,-123 444.5,-104 531.5,-104 531.5,-123"/>
<text text-anchor="middle" x="488" y="-111" font-family="Helvetica,sans-Serif" font-size="10.00">exif_set_slong</text>
</a>
</g>
</g>
<!-- Node1&#45;&gt;Node10 -->
<g id="edge18_Node000001_Node000010" class="edge">
<title>Node1&#45;&gt;Node10</title>
<g id="a_edge18_Node000001_Node000010"><a xlink:title=" ">
<path fill="none" stroke="#63b8ff" d="M67.05,-212.07C81.63,-190.1 111.72,-150.55 149,-133.5 241.67,-91.11 363.82,-96.96 433.03,-105.15"/>
<polygon fill="#63b8ff" stroke="#63b8ff" points="432.23,-108.58 442.58,-106.35 433.1,-101.63 432.23,-108.58"/>
</a>
</g>
</g>
<!-- Node11 -->
<g id="Node000011" class="node">
<title>Node11</title>
<g id="a_Node000011"><a xlink:href="exif-utils_8c.html#a400a16b1754150f721e9fca67ad89a52" target="_top" xlink:title="Store an ExifRational value into memory in EXIF format.">
<polygon fill="white" stroke="#666666" points="257.5,-161 159.5,-161 159.5,-142 257.5,-142 257.5,-161"/>
<text text-anchor="middle" x="208.5" y="-149" font-family="Helvetica,sans-Serif" font-size="10.00">exif_set_rational</text>
</a>
</g>
</g>
<!-- Node1&#45;&gt;Node11 -->
<g id="edge14_Node000001_Node000011" class="edge">
<title>Node1&#45;&gt;Node11</title>
<g id="a_edge14_Node000001_Node000011"><a xlink:title=" ">
<path fill="none" stroke="#63b8ff" d="M82.67,-212.04C100.79,-201.2 126,-186.7 149,-175.5 155.96,-172.11 163.53,-168.77 170.84,-165.7"/>
<polygon fill="#63b8ff" stroke="#63b8ff" points="171.94,-169.03 179.87,-162.01 169.29,-162.55 171.94,-169.03"/>
</a>
</g>
</g>
<!-- Node12 -->
<g id="Node000012" class="node">
<title>Node12</title>
<g id="a_Node000012"><a xlink:href="exif-utils_8c.html#ad905d16e26b4052a1db34dbebdc37341" target="_top" xlink:title="Store an ExifShort value into memory in EXIF format.">
<polygon fill="white" stroke="#666666" points="251.5,-85 165.5,-85 165.5,-66 251.5,-66 251.5,-85"/>
<text text-anchor="middle" x="208.5" y="-73" font-family="Helvetica,sans-Serif" font-size="10.00">exif_set_short</text>
</a>
</g>
</g>
<!-- Node1&#45;&gt;Node12 -->
<g id="edge16_Node000001_Node000012" class="edge">
<title>Node1&#45;&gt;Node12</title>
<g id="a_edge16_Node000001_Node000012"><a xlink:title=" ">
<path fill="none" stroke="#63b8ff" d="M64.7,-212.37C77.94,-186.04 108.53,-131.55 149,-99.5 153.51,-95.93 158.63,-92.81 163.91,-90.12"/>
<polygon fill="#63b8ff" stroke="#63b8ff" points="165.14,-93.4 172.78,-86.07 162.23,-87.04 165.14,-93.4"/>
</a>
</g>
</g>
<!-- Node13 -->
<g id="Node000013" class="node">
<title>Node13</title>
<g id="a_Node000013"><a xlink:href="exif-utils_8c.html#a6504651147702fc6db9a5cd4aa997023" target="_top" xlink:title="Store an ExifSShort value into memory in EXIF format.">
<polygon fill="white" stroke="#666666" points="401.5,-75 310.5,-75 310.5,-56 401.5,-56 401.5,-75"/>
<text text-anchor="middle" x="356" y="-63" font-family="Helvetica,sans-Serif" font-size="10.00">exif_set_sshort</text>
</a>
</g>
</g>
<!-- Node1&#45;&gt;Node13 -->
<g id="edge21_Node000001_Node000013" class="edge">
<title>Node1&#45;&gt;Node13</title>
<g id="a_edge21_Node000001_Node000013"><a xlink:title=" ">
<path fill="none" stroke="#63b8ff" d="M60.35,-212.12C67.74,-177.15 91.16,-92.05 149,-57.5 200.44,-26.77 272.71,-39.66 316.56,-52.25"/>
<polygon fill="#63b8ff" stroke="#63b8ff" points="315.3,-55.53 325.88,-55.07 317.32,-48.83 315.3,-55.53"/>
</a>
</g>
</g>
<!-- Node14 -->
<g id="Node000014" class="node">
<title>Node14</title>
<g id="a_Node000014"><a xlink:href="exif-utils_8c.html#aca1790a72b1833dff1b0bf728052c3c5" target="_top" xlink:title="Store an ExifSRational value into memory in EXIF format.">
<polygon fill="white" stroke="#666666" points="408,-19 304,-19 304,0 408,0 408,-19"/>
<text text-anchor="middle" x="356" y="-7" font-family="Helvetica,sans-Serif" font-size="10.00">exif_set_srational</text>
</a>
</g>
</g>
<!-- Node1&#45;&gt;Node14 -->
<g id="edge19_Node000001_Node000014" class="edge">
<title>Node1&#45;&gt;Node14</title>
<g id="a_edge19_Node000001_Node000014"><a xlink:title=" ">
<path fill="none" stroke="#63b8ff" d="M59.74,-212.04C66.07,-174.55 87.78,-78.62 149,-34.5 190.05,-4.92 248.06,-0.27 292.07,-2.1"/>
<polygon fill="#63b8ff" stroke="#63b8ff" points="291.82,-5.59 302,-2.65 292.21,1.4 291.82,-5.59"/>
</a>
</g>
</g>
<!-- Node3&#45;&gt;Node4 -->
<g id="edge3_Node000003_Node000004" class="edge">
<title>Node3&#45;&gt;Node4</title>
<g id="a_edge3_Node000003_Node000004"><a xlink:title=" ">
<path fill="none" stroke="#63b8ff" d="M391.16,-369.52C406.83,-364.93 425.62,-359.44 442.39,-354.54"/>
<polygon fill="#63b8ff" stroke="#63b8ff" points="443,-358.01 451.62,-351.84 441.04,-351.29 443,-358.01"/>
</a>
</g>
</g>
<!-- Node5&#45;&gt;Node3 -->
<g id="edge5_Node000005_Node000003" class="edge">
<title>Node5&#45;&gt;Node3</title>
<g id="a_edge5_Node000005_Node000003"><a xlink:title=" ">
<path fill="none" stroke="#63b8ff" d="M258.35,-379.5C272.69,-379.5 288.41,-379.5 302.93,-379.5"/>
<polygon fill="#63b8ff" stroke="#63b8ff" points="302.76,-383 312.76,-379.5 302.76,-376 302.76,-383"/>
</a>
</g>
</g>
<!-- Node6&#45;&gt;Node7 -->
<g id="edge7_Node000006_Node000007" class="edge">
<title>Node6&#45;&gt;Node7</title>
<g id="a_edge7_Node000006_Node000007"><a xlink:title=" ">
<path fill="none" stroke="#63b8ff" d="M251.98,-297.95C266.56,-296.05 283.11,-293.89 298.62,-291.86"/>
<polygon fill="#63b8ff" stroke="#63b8ff" points="298.72,-295.38 308.18,-290.61 297.81,-288.44 298.72,-295.38"/>
</a>
</g>
</g>
<!-- Node8&#45;&gt;Node4 -->
<g id="edge10_Node000008_Node000004" class="edge">
<title>Node8&#45;&gt;Node4</title>
<g id="a_edge10_Node000008_Node000004"><a xlink:title=" ">
<path fill="none" stroke="#63b8ff" d="M370.73,-237.38C381.18,-245.05 395.79,-256.08 408,-266.5 430.1,-285.34 454.11,-308.57 469.79,-324.14"/>
<polygon fill="#63b8ff" stroke="#63b8ff" points="466.96,-326.26 476.51,-330.85 471.91,-321.31 466.96,-326.26"/>
</a>
</g>
</g>
<!-- Node9&#45;&gt;Node10 -->
<g id="edge13_Node000009_Node000010" class="edge">
<title>Node9&#45;&gt;Node10</title>
<g id="a_edge13_Node000009_Node000010"><a xlink:title=" ">
<path fill="none" stroke="#63b8ff" d="M391.16,-141.52C406.83,-136.93 425.62,-131.44 442.39,-126.54"/>
<polygon fill="#63b8ff" stroke="#63b8ff" points="443,-130.01 451.62,-123.84 441.04,-123.29 443,-130.01"/>
</a>
</g>
</g>
<!-- Node11&#45;&gt;Node9 -->
<g id="edge15_Node000011_Node000009" class="edge">
<title>Node11&#45;&gt;Node9</title>
<g id="a_edge15_Node000011_Node000009"><a xlink:title=" ">
<path fill="none" stroke="#63b8ff" d="M257.95,-151.5C272.43,-151.5 288.36,-151.5 303.06,-151.5"/>
<polygon fill="#63b8ff" stroke="#63b8ff" points="303.01,-155 313.01,-151.5 303.01,-148 303.01,-155"/>
</a>
</g>
</g>
<!-- Node12&#45;&gt;Node13 -->
<g id="edge17_Node000012_Node000013" class="edge">
<title>Node12&#45;&gt;Node13</title>
<g id="a_edge17_Node000012_Node000013"><a xlink:title=" ">
<path fill="none" stroke="#63b8ff" d="M251.98,-72.58C266.69,-71.57 283.42,-70.42 299.05,-69.35"/>
<polygon fill="#63b8ff" stroke="#63b8ff" points="298.94,-72.86 308.68,-68.68 298.46,-65.88 298.94,-72.86"/>
</a>
</g>
</g>
<!-- Node14&#45;&gt;Node10 -->
<g id="edge20_Node000014_Node000010" class="edge">
<title>Node14&#45;&gt;Node10</title>
<g id="a_edge20_Node000014_Node000010"><a xlink:title=" ">
<path fill="none" stroke="#63b8ff" d="M370.58,-19.3C380.94,-26.86 395.52,-37.65 408,-47.5 428.52,-63.7 451.39,-82.94 467.22,-96.45"/>
<polygon fill="#63b8ff" stroke="#63b8ff" points="464.63,-98.84 474.5,-102.69 469.19,-93.53 464.63,-98.84"/>
</a>
</g>
</g>
</g>
</svg>
