<?xml version="1.0" encoding="UTF-8" standalone="no"?>
<!DOCTYPE svg PUBLIC "-//W3C//DTD SVG 1.1//EN"
 "http://www.w3.org/Graphics/SVG/1.1/DTD/svg11.dtd">
<!-- Generated by graphviz version 7.0.1 (0)
 -->
<!-- Title: libexif/canon/exif&#45;mnote&#45;data&#45;canon.c Pages: 1 -->
<svg width="1096pt" height="577pt"
 viewBox="0.00 0.00 1095.50 577.00" xmlns="http://www.w3.org/2000/svg" xmlns:xlink="http://www.w3.org/1999/xlink">
<g id="graph0" class="graph" transform="scale(1 1) rotate(0) translate(4 573)">
<title>libexif/canon/exif&#45;mnote&#45;data&#45;canon.c</title>
<!-- Node1 -->
<g id="Node000001" class="node">
<title>Node1</title>
<g id="a_Node000001"><a xlink:title=" ">
<polygon fill="#999999" stroke="#666666" points="901.5,-569 782.5,-569 782.5,-539 901.5,-539 901.5,-569"/>
<text text-anchor="start" x="790.5" y="-557" font-family="Helvetica,sans-Serif" font-size="10.00">libexif/canon/exif</text>
<text text-anchor="middle" x="842" y="-546" font-family="Helvetica,sans-Serif" font-size="10.00">&#45;mnote&#45;data&#45;canon.c</text>
</a>
</g>
</g>
<!-- Node2 -->
<g id="Node000002" class="node">
<title>Node2</title>
<g id="a_Node000002"><a xlink:title=" ">
<polygon fill="#e0e0e0" stroke="#999999" points="56,-503 0,-503 0,-484 56,-484 56,-503"/>
<text text-anchor="middle" x="28" y="-491" font-family="Helvetica,sans-Serif" font-size="10.00">config.h</text>
</a>
</g>
</g>
<!-- Node1&#45;&gt;Node2 -->
<g id="edge1_Node000001_Node000002" class="edge">
<title>Node1&#45;&gt;Node2</title>
<g id="a_edge1_Node000001_Node000002"><a xlink:title=" ">
<path fill="none" stroke="#63b8ff" d="M782.16,-551.87C652.07,-548.82 333.94,-538.09 70,-503 69.17,-502.89 68.33,-502.77 67.49,-502.65"/>
<polygon fill="#63b8ff" stroke="#63b8ff" points="68.31,-499.24 57.87,-501.03 67.15,-506.14 68.31,-499.24"/>
</a>
</g>
</g>
<!-- Node3 -->
<g id="Node000003" class="node">
<title>Node3</title>
<g id="a_Node000003"><a xlink:href="exif-mnote-data-canon_8h.html" target="_top" xlink:title=" ">
<polygon fill="white" stroke="#666666" points="426.5,-503 289.5,-503 289.5,-484 426.5,-484 426.5,-503"/>
<text text-anchor="middle" x="358" y="-491" font-family="Helvetica,sans-Serif" font-size="10.00">exif&#45;mnote&#45;data&#45;canon.h</text>
</a>
</g>
</g>
<!-- Node1&#45;&gt;Node3 -->
<g id="edge2_Node000001_Node000003" class="edge">
<title>Node1&#45;&gt;Node3</title>
<g id="a_edge2_Node000001_Node000003"><a xlink:title=" ">
<path fill="none" stroke="#63b8ff" d="M782.17,-545.77C695.44,-535.29 534.61,-515.85 437.84,-504.15"/>
<polygon fill="#63b8ff" stroke="#63b8ff" points="438.51,-500.71 428.16,-502.98 437.67,-507.66 438.51,-500.71"/>
</a>
</g>
</g>
<!-- Node4 -->
<g id="Node000004" class="node">
<title>Node4</title>
<g id="a_Node000004"><a xlink:href="exif-byte-order_8h.html" target="_top" xlink:title="Defines the ExifByteOrder enum and the associated functions.">
<polygon fill="white" stroke="#666666" points="670.5,-19 539.5,-19 539.5,0 670.5,0 670.5,-19"/>
<text text-anchor="middle" x="605" y="-7" font-family="Helvetica,sans-Serif" font-size="10.00">libexif/exif&#45;byte&#45;order.h</text>
</a>
</g>
</g>
<!-- Node1&#45;&gt;Node4 -->
<g id="edge44_Node000001_Node000004" class="edge">
<title>Node1&#45;&gt;Node4</title>
<g id="a_edge44_Node000001_Node000004"><a xlink:title=" ">
<path fill="none" stroke="#63b8ff" d="M846.69,-538.75C858.77,-500.75 890,-393.62 890,-302 890,-302 890,-302 890,-118.5 890,-83.12 872.08,-73.63 842,-55 815.67,-38.69 740.6,-26.37 681.93,-18.87"/>
<polygon fill="#63b8ff" stroke="#63b8ff" points="682.67,-15.44 672.31,-17.67 681.8,-22.38 682.67,-15.44"/>
</a>
</g>
</g>
<!-- Node8 -->
<g id="Node000008" class="node">
<title>Node8</title>
<g id="a_Node000008"><a xlink:href="exif-utils_8h.html" target="_top" xlink:title="EXIF data manipulation functions and types.">
<polygon fill="white" stroke="#666666" points="219.5,-74 118.5,-74 118.5,-55 219.5,-55 219.5,-74"/>
<text text-anchor="middle" x="169" y="-62" font-family="Helvetica,sans-Serif" font-size="10.00">libexif/exif&#45;utils.h</text>
</a>
</g>
</g>
<!-- Node1&#45;&gt;Node8 -->
<g id="edge45_Node000001_Node000008" class="edge">
<title>Node1&#45;&gt;Node8</title>
<g id="a_edge45_Node000001_Node000008"><a xlink:title=" ">
<path fill="none" stroke="#63b8ff" d="M782.31,-552.51C679.01,-550.6 460.68,-541.84 281,-503 190.32,-483.4 84,-526.77 84,-434 84,-434 84,-434 84,-173.5 84,-133.48 120.49,-99.54 145.65,-80.89"/>
<polygon fill="#63b8ff" stroke="#63b8ff" points="147.59,-83.81 153.73,-75.17 143.55,-78.09 147.59,-83.81"/>
</a>
</g>
</g>
<!-- Node13 -->
<g id="Node000013" class="node">
<title>Node13</title>
<g id="a_Node000013"><a xlink:href="exif-data_8h.html" target="_top" xlink:title="Defines the ExifData type and the associated functions.">
<polygon fill="white" stroke="#666666" points="610,-310.5 508,-310.5 508,-291.5 610,-291.5 610,-310.5"/>
<text text-anchor="middle" x="559" y="-298.5" font-family="Helvetica,sans-Serif" font-size="10.00">libexif/exif&#45;data.h</text>
</a>
</g>
</g>
<!-- Node1&#45;&gt;Node13 -->
<g id="edge46_Node000001_Node000013" class="edge">
<title>Node1&#45;&gt;Node13</title>
<g id="a_edge46_Node000001_Node000013"><a xlink:title=" ">
<path fill="none" stroke="#63b8ff" d="M825.97,-538.79C777,-495.35 629.48,-364.51 577.43,-318.35"/>
<polygon fill="#63b8ff" stroke="#63b8ff" points="580.07,-316.01 570.26,-311.99 575.42,-321.24 580.07,-316.01"/>
</a>
</g>
</g>
<!-- Node21 -->
<g id="Node000021" class="node">
<title>Node21</title>
<g id="a_Node000021"><a xlink:title=" ">
<polygon fill="#e0e0e0" stroke="#999999" points="947.5,-503 894.5,-503 894.5,-484 947.5,-484 947.5,-503"/>
<text text-anchor="middle" x="921" y="-491" font-family="Helvetica,sans-Serif" font-size="10.00">stdlib.h</text>
</a>
</g>
</g>
<!-- Node1&#45;&gt;Node21 -->
<g id="edge41_Node000001_Node000021" class="edge">
<title>Node1&#45;&gt;Node21</title>
<g id="a_edge41_Node000001_Node000021"><a xlink:title=" ">
<path fill="none" stroke="#63b8ff" d="M861.53,-538.54C873.24,-529.87 888.12,-518.85 900.07,-510"/>
<polygon fill="#63b8ff" stroke="#63b8ff" points="902.11,-512.84 908.07,-504.08 897.95,-507.21 902.11,-512.84"/>
</a>
</g>
</g>
<!-- Node22 -->
<g id="Node000022" class="node">
<title>Node22</title>
<g id="a_Node000022"><a xlink:title=" ">
<polygon fill="#e0e0e0" stroke="#999999" points="1016,-503 966,-503 966,-484 1016,-484 1016,-503"/>
<text text-anchor="middle" x="991" y="-491" font-family="Helvetica,sans-Serif" font-size="10.00">stdio.h</text>
</a>
</g>
</g>
<!-- Node1&#45;&gt;Node22 -->
<g id="edge42_Node000001_Node000022" class="edge">
<title>Node1&#45;&gt;Node22</title>
<g id="a_edge42_Node000001_Node000022"><a xlink:title=" ">
<path fill="none" stroke="#63b8ff" d="M878.83,-538.54C903.08,-529.02 934.57,-516.66 958,-507.46"/>
<polygon fill="#63b8ff" stroke="#63b8ff" points="959.03,-510.81 967.06,-503.9 956.47,-504.3 959.03,-510.81"/>
</a>
</g>
</g>
<!-- Node23 -->
<g id="Node000023" class="node">
<title>Node23</title>
<g id="a_Node000023"><a xlink:title=" ">
<polygon fill="#e0e0e0" stroke="#999999" points="1087.5,-503 1034.5,-503 1034.5,-484 1087.5,-484 1087.5,-503"/>
<text text-anchor="middle" x="1061" y="-491" font-family="Helvetica,sans-Serif" font-size="10.00">string.h</text>
</a>
</g>
</g>
<!-- Node1&#45;&gt;Node23 -->
<g id="edge43_Node000001_Node000023" class="edge">
<title>Node1&#45;&gt;Node23</title>
<g id="a_edge43_Node000001_Node000023"><a xlink:title=" ">
<path fill="none" stroke="#63b8ff" d="M896.13,-538.54C935.68,-527.98 988.3,-513.92 1023.35,-504.56"/>
<polygon fill="#63b8ff" stroke="#63b8ff" points="1023.85,-508.05 1032.61,-502.08 1022.04,-501.28 1023.85,-508.05"/>
</a>
</g>
</g>
<!-- Node3&#45;&gt;Node4 -->
<g id="edge3_Node000003_Node000004" class="edge">
<title>Node3&#45;&gt;Node4</title>
<g id="a_edge3_Node000003_Node000004"><a xlink:title=" ">
<path fill="none" stroke="#63b8ff" d="M411.81,-483.55C539.84,-460.74 852,-395.53 852,-302 852,-302 852,-302 852,-118.5 852,-43.31 754.72,-19.96 682.26,-12.99"/>
<polygon fill="#63b8ff" stroke="#63b8ff" points="682.64,-9.51 672.37,-12.14 682.04,-16.49 682.64,-9.51"/>
</a>
</g>
</g>
<!-- Node5 -->
<g id="Node000005" class="node">
<title>Node5</title>
<g id="a_Node000005"><a xlink:href="exif-mnote-data_8h.html" target="_top" xlink:title="Handling EXIF MakerNote tags.">
<polygon fill="white" stroke="#666666" points="405.5,-250 302.5,-250 302.5,-220 405.5,-220 405.5,-250"/>
<text text-anchor="start" x="310.5" y="-238" font-family="Helvetica,sans-Serif" font-size="10.00">libexif/exif&#45;mnote</text>
<text text-anchor="middle" x="354" y="-227" font-family="Helvetica,sans-Serif" font-size="10.00">&#45;data.h</text>
</a>
</g>
</g>
<!-- Node3&#45;&gt;Node5 -->
<g id="edge4_Node000003_Node000005" class="edge">
<title>Node3&#45;&gt;Node5</title>
<g id="a_edge4_Node000003_Node000005"><a xlink:title=" ">
<path fill="none" stroke="#63b8ff" d="M357.86,-483.67C357.31,-448.54 355.28,-317.85 354.4,-261.8"/>
<polygon fill="#63b8ff" stroke="#63b8ff" points="357.9,-261.89 354.25,-251.95 350.91,-262 357.9,-261.89"/>
</a>
</g>
</g>
<!-- Node7 -->
<g id="Node000007" class="node">
<title>Node7</title>
<g id="a_Node000007"><a xlink:href="exif-mem_8h.html" target="_top" xlink:title="Define the ExifMem data type and the associated functions.">
<polygon fill="white" stroke="#666666" points="479,-129 373,-129 373,-110 479,-110 479,-129"/>
<text text-anchor="middle" x="426" y="-117" font-family="Helvetica,sans-Serif" font-size="10.00">libexif/exif&#45;mem.h</text>
</a>
</g>
</g>
<!-- Node3&#45;&gt;Node7 -->
<g id="edge16_Node000003_Node000007" class="edge">
<title>Node3&#45;&gt;Node7</title>
<g id="a_edge16_Node000003_Node000007"><a xlink:title=" ">
<path fill="none" stroke="#63b8ff" d="M289.13,-487.13C234.9,-481.3 165.63,-469.75 148,-448 139.61,-437.64 144.78,-430.94 148,-418 179.34,-292.01 192.04,-245.37 294,-165 313.84,-149.36 339.46,-139.08 362.85,-132.38"/>
<polygon fill="#63b8ff" stroke="#63b8ff" points="363.55,-135.82 372.3,-129.85 361.74,-129.05 363.55,-135.82"/>
</a>
</g>
</g>
<!-- Node12 -->
<g id="Node000012" class="node">
<title>Node12</title>
<g id="a_Node000012"><a xlink:href="exif-mnote-data-priv_8h.html" target="_top" xlink:title=" ">
<polygon fill="white" stroke="#666666" points="329.5,-316 226.5,-316 226.5,-286 329.5,-286 329.5,-316"/>
<text text-anchor="start" x="234.5" y="-304" font-family="Helvetica,sans-Serif" font-size="10.00">libexif/exif&#45;mnote</text>
<text text-anchor="middle" x="278" y="-293" font-family="Helvetica,sans-Serif" font-size="10.00">&#45;data&#45;priv.h</text>
</a>
</g>
</g>
<!-- Node3&#45;&gt;Node12 -->
<g id="edge12_Node000003_Node000012" class="edge">
<title>Node3&#45;&gt;Node12</title>
<g id="a_edge12_Node000003_Node000012"><a xlink:title=" ">
<path fill="none" stroke="#63b8ff" d="M354.25,-483.57C342.54,-455.68 306.36,-369.54 288.38,-326.71"/>
<polygon fill="#63b8ff" stroke="#63b8ff" points="291.7,-325.59 284.6,-317.73 285.25,-328.3 291.7,-325.59"/>
</a>
</g>
</g>
<!-- Node3&#45;&gt;Node13 -->
<g id="edge17_Node000003_Node000013" class="edge">
<title>Node3&#45;&gt;Node13</title>
<g id="a_edge17_Node000003_Node000013"><a xlink:title=" ">
<path fill="none" stroke="#63b8ff" d="M378.61,-483.56C413,-467.7 482.39,-431.6 524,-382 538.9,-364.24 548.48,-339.16 553.79,-321.84"/>
<polygon fill="#63b8ff" stroke="#63b8ff" points="557.14,-322.84 556.5,-312.27 550.41,-320.93 557.14,-322.84"/>
</a>
</g>
</g>
<!-- Node19 -->
<g id="Node000019" class="node">
<title>Node19</title>
<g id="a_Node000019"><a xlink:href="mnote-canon-entry_8h.html" target="_top" xlink:title=" ">
<polygon fill="white" stroke="#666666" points="271,-448 157,-448 157,-418 271,-418 271,-448"/>
<text text-anchor="start" x="165" y="-436" font-family="Helvetica,sans-Serif" font-size="10.00">libexif/canon/mnote</text>
<text text-anchor="middle" x="214" y="-425" font-family="Helvetica,sans-Serif" font-size="10.00">&#45;canon&#45;entry.h</text>
</a>
</g>
</g>
<!-- Node3&#45;&gt;Node19 -->
<g id="edge36_Node000003_Node000019" class="edge">
<title>Node3&#45;&gt;Node19</title>
<g id="a_edge36_Node000003_Node000019"><a xlink:title=" ">
<path fill="none" stroke="#63b8ff" d="M336.13,-483.62C316.03,-475.45 285.57,-463.08 260.11,-452.73"/>
<polygon fill="#63b8ff" stroke="#63b8ff" points="261.53,-449.53 250.95,-449.01 258.89,-456.02 261.53,-449.53"/>
</a>
</g>
</g>
<!-- Node6 -->
<g id="Node000006" class="node">
<title>Node6</title>
<g id="a_Node000006"><a xlink:href="exif-log_8h.html" target="_top" xlink:title="Log message infrastructure.">
<polygon fill="white" stroke="#666666" points="397.5,-184 302.5,-184 302.5,-165 397.5,-165 397.5,-184"/>
<text text-anchor="middle" x="350" y="-172" font-family="Helvetica,sans-Serif" font-size="10.00">libexif/exif&#45;log.h</text>
</a>
</g>
</g>
<!-- Node5&#45;&gt;Node6 -->
<g id="edge5_Node000005_Node000006" class="edge">
<title>Node5&#45;&gt;Node6</title>
<g id="a_edge5_Node000005_Node000006"><a xlink:title=" ">
<path fill="none" stroke="#63b8ff" d="M353.01,-219.54C352.51,-212.26 351.9,-203.31 351.36,-195.39"/>
<polygon fill="#63b8ff" stroke="#63b8ff" points="354.87,-195.42 350.7,-185.69 347.89,-195.9 354.87,-195.42"/>
</a>
</g>
</g>
<!-- Node6&#45;&gt;Node7 -->
<g id="edge6_Node000006_Node000007" class="edge">
<title>Node6&#45;&gt;Node7</title>
<g id="a_edge6_Node000006_Node000007"><a xlink:title=" ">
<path fill="none" stroke="#63b8ff" d="M362.89,-164.51C374.1,-156.7 390.57,-145.21 403.88,-135.93"/>
<polygon fill="#63b8ff" stroke="#63b8ff" points="405.86,-138.81 412.06,-130.22 401.85,-133.07 405.86,-138.81"/>
</a>
</g>
</g>
<!-- Node11 -->
<g id="Node000011" class="node">
<title>Node11</title>
<g id="a_Node000011"><a xlink:title=" ">
<polygon fill="#e0e0e0" stroke="#999999" points="355,-129 299,-129 299,-110 355,-110 355,-129"/>
<text text-anchor="middle" x="327" y="-117" font-family="Helvetica,sans-Serif" font-size="10.00">stdarg.h</text>
</a>
</g>
</g>
<!-- Node6&#45;&gt;Node11 -->
<g id="edge11_Node000006_Node000011" class="edge">
<title>Node6&#45;&gt;Node11</title>
<g id="a_edge11_Node000006_Node000011"><a xlink:title=" ">
<path fill="none" stroke="#63b8ff" d="M346.2,-164.75C343.26,-157.96 339.06,-148.3 335.35,-139.73"/>
<polygon fill="#63b8ff" stroke="#63b8ff" points="338.67,-138.61 331.48,-130.83 332.25,-141.4 338.67,-138.61"/>
</a>
</g>
</g>
<!-- Node7&#45;&gt;Node8 -->
<g id="edge7_Node000007_Node000008" class="edge">
<title>Node7&#45;&gt;Node8</title>
<g id="a_edge7_Node000007_Node000008"><a xlink:title=" ">
<path fill="none" stroke="#63b8ff" d="M382.4,-109.51C338.61,-100.48 271.01,-86.54 223.66,-76.77"/>
<polygon fill="#63b8ff" stroke="#63b8ff" points="224.36,-73.34 213.86,-74.75 222.95,-80.2 224.36,-73.34"/>
</a>
</g>
</g>
<!-- Node8&#45;&gt;Node4 -->
<g id="edge8_Node000008_Node000004" class="edge">
<title>Node8&#45;&gt;Node4</title>
<g id="a_edge8_Node000008_Node000004"><a xlink:title=" ">
<path fill="none" stroke="#63b8ff" d="M219.74,-56.81C224.56,-56.19 229.37,-55.58 234,-55 335.63,-42.26 453.03,-28.31 528.08,-19.48"/>
<polygon fill="#63b8ff" stroke="#63b8ff" points="528.27,-22.99 537.79,-18.34 527.45,-16.03 528.27,-22.99"/>
</a>
</g>
</g>
<!-- Node9 -->
<g id="Node000009" class="node">
<title>Node9</title>
<g id="a_Node000009"><a xlink:href="exif-format_8h.html" target="_top" xlink:title="Handling native EXIF data types.">
<polygon fill="white" stroke="#666666" points="285.5,-19 172.5,-19 172.5,0 285.5,0 285.5,-19"/>
<text text-anchor="middle" x="229" y="-7" font-family="Helvetica,sans-Serif" font-size="10.00">libexif/exif&#45;format.h</text>
</a>
</g>
</g>
<!-- Node8&#45;&gt;Node9 -->
<g id="edge9_Node000008_Node000009" class="edge">
<title>Node8&#45;&gt;Node9</title>
<g id="a_edge9_Node000008_Node000009"><a xlink:title=" ">
<path fill="none" stroke="#63b8ff" d="M179.18,-54.51C187.76,-46.93 200.27,-35.88 210.6,-26.75"/>
<polygon fill="#63b8ff" stroke="#63b8ff" points="212.66,-29.6 217.84,-20.36 208.03,-24.36 212.66,-29.6"/>
</a>
</g>
</g>
<!-- Node10 -->
<g id="Node000010" class="node">
<title>Node10</title>
<g id="a_Node000010"><a xlink:title=" ">
<polygon fill="#e0e0e0" stroke="#999999" points="154,-19 62,-19 62,0 154,0 154,-19"/>
<text text-anchor="middle" x="108" y="-7" font-family="Helvetica,sans-Serif" font-size="10.00">libexif/_stdint.h</text>
</a>
</g>
</g>
<!-- Node8&#45;&gt;Node10 -->
<g id="edge10_Node000008_Node000010" class="edge">
<title>Node8&#45;&gt;Node10</title>
<g id="a_edge10_Node000008_Node000010"><a xlink:title=" ">
<path fill="none" stroke="#63b8ff" d="M158.65,-54.51C149.92,-46.93 137.21,-35.88 126.7,-26.75"/>
<polygon fill="#63b8ff" stroke="#63b8ff" points="129.18,-24.27 119.34,-20.35 124.59,-29.55 129.18,-24.27"/>
</a>
</g>
</g>
<!-- Node12&#45;&gt;Node4 -->
<g id="edge14_Node000012_Node000004" class="edge">
<title>Node12&#45;&gt;Node4</title>
<g id="a_edge14_Node000012_Node000004"><a xlink:title=" ">
<path fill="none" stroke="#63b8ff" d="M273.86,-285.61C264.84,-250.96 247.46,-161.89 290,-110 347.64,-39.7 454.68,-18.31 527.84,-12.21"/>
<polygon fill="#63b8ff" stroke="#63b8ff" points="528.05,-15.71 537.76,-11.47 527.53,-8.73 528.05,-15.71"/>
</a>
</g>
</g>
<!-- Node12&#45;&gt;Node5 -->
<g id="edge13_Node000012_Node000005" class="edge">
<title>Node12&#45;&gt;Node5</title>
<g id="a_edge13_Node000012_Node000005"><a xlink:title=" ">
<path fill="none" stroke="#63b8ff" d="M294.87,-285.8C304.64,-277.57 317.14,-267.04 328.13,-257.78"/>
<polygon fill="#63b8ff" stroke="#63b8ff" points="330.37,-260.48 335.76,-251.36 325.86,-255.12 330.37,-260.48"/>
</a>
</g>
</g>
<!-- Node12&#45;&gt;Node6 -->
<g id="edge15_Node000012_Node000006" class="edge">
<title>Node12&#45;&gt;Node6</title>
<g id="a_edge15_Node000012_Node000006"><a xlink:title=" ">
<path fill="none" stroke="#63b8ff" d="M277.96,-285.64C278.55,-268.75 281.52,-240.43 294,-220 301.29,-208.07 312.99,-198.03 323.82,-190.52"/>
<polygon fill="#63b8ff" stroke="#63b8ff" points="325.59,-193.55 332.09,-185.18 321.79,-187.67 325.59,-193.55"/>
</a>
</g>
</g>
<!-- Node13&#45;&gt;Node4 -->
<g id="edge18_Node000013_Node000004" class="edge">
<title>Node13&#45;&gt;Node4</title>
<g id="a_edge18_Node000013_Node000004"><a xlink:title=" ">
<path fill="none" stroke="#63b8ff" d="M610.3,-297.31C684.76,-290.33 814,-265.29 814,-175.5 814,-175.5 814,-175.5 814,-118.5 814,-57.01 741.72,-30.49 682.17,-19.08"/>
<polygon fill="#63b8ff" stroke="#63b8ff" points="682.79,-15.63 672.33,-17.32 681.56,-22.53 682.79,-15.63"/>
</a>
</g>
</g>
<!-- Node13&#45;&gt;Node5 -->
<g id="edge34_Node000013_Node000005" class="edge">
<title>Node13&#45;&gt;Node5</title>
<g id="a_edge34_Node000013_Node000005"><a xlink:title=" ">
<path fill="none" stroke="#63b8ff" d="M530.5,-291.1C499.72,-281.49 449.9,-265.94 411.02,-253.8"/>
<polygon fill="#63b8ff" stroke="#63b8ff" points="412.41,-250.57 401.82,-250.93 410.32,-257.25 412.41,-250.57"/>
</a>
</g>
</g>
<!-- Node13&#45;&gt;Node6 -->
<g id="edge21_Node000013_Node000006" class="edge">
<title>Node13&#45;&gt;Node6</title>
<g id="a_edge21_Node000013_Node000006"><a xlink:title=" ">
<path fill="none" stroke="#63b8ff" d="M538.8,-291.08C518.07,-281.68 485.11,-266.04 458,-250 437.95,-238.13 434.17,-233.25 415,-220 400.8,-210.18 384.79,-199.23 372.22,-190.64"/>
<polygon fill="#63b8ff" stroke="#63b8ff" points="374.46,-187.93 364.22,-185.18 370.51,-193.71 374.46,-187.93"/>
</a>
</g>
</g>
<!-- Node13&#45;&gt;Node7 -->
<g id="edge35_Node000013_Node000007" class="edge">
<title>Node13&#45;&gt;Node7</title>
<g id="a_edge35_Node000013_Node000007"><a xlink:title=" ">
<path fill="none" stroke="#63b8ff" d="M543.28,-291.17C528.56,-282.28 506.69,-267.42 492,-250 463.22,-215.87 442.7,-167.07 432.77,-140.17"/>
<polygon fill="#63b8ff" stroke="#63b8ff" points="436.12,-139.16 429.46,-130.91 429.53,-141.51 436.12,-139.16"/>
</a>
</g>
</g>
<!-- Node14 -->
<g id="Node000014" class="node">
<title>Node14</title>
<g id="a_Node000014"><a xlink:href="exif-data-type_8h.html" target="_top" xlink:title=" ">
<polygon fill="white" stroke="#666666" points="786,-129 658,-129 658,-110 786,-110 786,-129"/>
<text text-anchor="middle" x="722" y="-117" font-family="Helvetica,sans-Serif" font-size="10.00">libexif/exif&#45;data&#45;type.h</text>
</a>
</g>
</g>
<!-- Node13&#45;&gt;Node14 -->
<g id="edge19_Node000013_Node000014" class="edge">
<title>Node13&#45;&gt;Node14</title>
<g id="a_edge19_Node000013_Node000014"><a xlink:title=" ">
<path fill="none" stroke="#63b8ff" d="M599.55,-291.07C648.91,-277.64 729.11,-246.81 757,-184 764.3,-167.55 752.53,-149.66 740.71,-137.08"/>
<polygon fill="#63b8ff" stroke="#63b8ff" points="743.43,-134.84 733.83,-130.35 738.53,-139.85 743.43,-134.84"/>
</a>
</g>
</g>
<!-- Node15 -->
<g id="Node000015" class="node">
<title>Node15</title>
<g id="a_Node000015"><a xlink:href="exif-ifd_8h.html" target="_top" xlink:title=" ">
<polygon fill="white" stroke="#666666" points="639.5,-129 546.5,-129 546.5,-110 639.5,-110 639.5,-129"/>
<text text-anchor="middle" x="593" y="-117" font-family="Helvetica,sans-Serif" font-size="10.00">libexif/exif&#45;ifd.h</text>
</a>
</g>
</g>
<!-- Node13&#45;&gt;Node15 -->
<g id="edge20_Node000013_Node000015" class="edge">
<title>Node13&#45;&gt;Node15</title>
<g id="a_edge20_Node000013_Node000015"><a xlink:title=" ">
<path fill="none" stroke="#63b8ff" d="M579.87,-291.14C596.01,-283.04 617.21,-269.35 627,-250 645.72,-212.99 621.83,-164.67 605.63,-138.78"/>
<polygon fill="#63b8ff" stroke="#63b8ff" points="608.75,-137.15 600.34,-130.7 602.9,-140.99 608.75,-137.15"/>
</a>
</g>
</g>
<!-- Node16 -->
<g id="Node000016" class="node">
<title>Node16</title>
<g id="a_Node000016"><a xlink:href="exif-tag_8h.html" target="_top" xlink:title="Handling EXIF tags.">
<polygon fill="white" stroke="#666666" points="748,-184 652,-184 652,-165 748,-165 748,-184"/>
<text text-anchor="middle" x="700" y="-172" font-family="Helvetica,sans-Serif" font-size="10.00">libexif/exif&#45;tag.h</text>
</a>
</g>
</g>
<!-- Node13&#45;&gt;Node16 -->
<g id="edge22_Node000013_Node000016" class="edge">
<title>Node13&#45;&gt;Node16</title>
<g id="a_edge22_Node000013_Node000016"><a xlink:title=" ">
<path fill="none" stroke="#63b8ff" d="M588,-291.08C609.92,-283.15 639.61,-269.73 660,-250 675.96,-234.56 687.03,-211.35 693.41,-194.95"/>
<polygon fill="#63b8ff" stroke="#63b8ff" points="696.59,-196.43 696.71,-185.84 690.01,-194.04 696.59,-196.43"/>
</a>
</g>
</g>
<!-- Node17 -->
<g id="Node000017" class="node">
<title>Node17</title>
<g id="a_Node000017"><a xlink:href="exif-content_8h.html" target="_top" xlink:title="Handling EXIF IFDs.">
<polygon fill="white" stroke="#666666" points="617.5,-244.5 500.5,-244.5 500.5,-225.5 617.5,-225.5 617.5,-244.5"/>
<text text-anchor="middle" x="559" y="-232.5" font-family="Helvetica,sans-Serif" font-size="10.00">libexif/exif&#45;content.h</text>
</a>
</g>
</g>
<!-- Node13&#45;&gt;Node17 -->
<g id="edge25_Node000013_Node000017" class="edge">
<title>Node13&#45;&gt;Node17</title>
<g id="a_edge25_Node000013_Node000017"><a xlink:title=" ">
<path fill="none" stroke="#63b8ff" d="M554.16,-291.1C552.29,-282.12 551.79,-267.95 552.67,-256.22"/>
<polygon fill="#63b8ff" stroke="#63b8ff" points="556.14,-256.69 553.97,-246.32 549.2,-255.78 556.14,-256.69"/>
</a>
</g>
</g>
<!-- Node16&#45;&gt;Node14 -->
<g id="edge24_Node000016_Node000014" class="edge">
<title>Node16&#45;&gt;Node14</title>
<g id="a_edge24_Node000016_Node000014"><a xlink:title=" ">
<path fill="none" stroke="#63b8ff" d="M703.63,-164.75C706.42,-158.04 710.37,-148.52 713.9,-140.02"/>
<polygon fill="#63b8ff" stroke="#63b8ff" points="717.11,-141.42 717.71,-130.84 710.64,-138.73 717.11,-141.42"/>
</a>
</g>
</g>
<!-- Node16&#45;&gt;Node15 -->
<g id="edge23_Node000016_Node000015" class="edge">
<title>Node16&#45;&gt;Node15</title>
<g id="a_edge23_Node000016_Node000015"><a xlink:title=" ">
<path fill="none" stroke="#63b8ff" d="M681.85,-164.51C665.22,-156.27 640.36,-143.96 621.15,-134.45"/>
<polygon fill="#63b8ff" stroke="#63b8ff" points="622.75,-131.33 612.24,-130.03 619.65,-137.6 622.75,-131.33"/>
</a>
</g>
</g>
<!-- Node17&#45;&gt;Node6 -->
<g id="edge32_Node000017_Node000006" class="edge">
<title>Node17&#45;&gt;Node6</title>
<g id="a_edge32_Node000017_Node000006"><a xlink:title=" ">
<path fill="none" stroke="#63b8ff" d="M527.26,-225.12C491.43,-215.09 432.94,-198.72 393.03,-187.54"/>
<polygon fill="#63b8ff" stroke="#63b8ff" points="394.07,-184.2 383.5,-184.88 392.19,-190.94 394.07,-184.2"/>
</a>
</g>
</g>
<!-- Node17&#45;&gt;Node7 -->
<g id="edge33_Node000017_Node000007" class="edge">
<title>Node17&#45;&gt;Node7</title>
<g id="a_edge33_Node000017_Node000007"><a xlink:title=" ">
<path fill="none" stroke="#63b8ff" d="M543.03,-225.13C527.05,-215.89 502.15,-200.48 483,-184 466.74,-170 450.63,-151.52 439.71,-138.1"/>
<polygon fill="#63b8ff" stroke="#63b8ff" points="442.66,-136.19 433.69,-130.55 437.18,-140.55 442.66,-136.19"/>
</a>
</g>
</g>
<!-- Node17&#45;&gt;Node13 -->
<g id="edge31_Node000017_Node000013" class="edge">
<title>Node17&#45;&gt;Node13</title>
<g id="a_edge31_Node000017_Node000013"><a xlink:title=" ">
<path fill="none" stroke="#63b8ff" d="M563.83,-244.82C565.73,-253.87 566.22,-268.24 565.31,-280.05"/>
<polygon fill="#63b8ff" stroke="#63b8ff" points="561.88,-279.23 564.04,-289.6 568.82,-280.15 561.88,-279.23"/>
</a>
</g>
</g>
<!-- Node17&#45;&gt;Node16 -->
<g id="edge26_Node000017_Node000016" class="edge">
<title>Node17&#45;&gt;Node16</title>
<g id="a_edge26_Node000017_Node000016"><a xlink:title=" ">
<path fill="none" stroke="#63b8ff" d="M580.41,-225.12C603.71,-215.45 641.19,-199.9 667.98,-188.78"/>
<polygon fill="#63b8ff" stroke="#63b8ff" points="669.09,-192.11 676.99,-185.05 666.41,-185.65 669.09,-192.11"/>
</a>
</g>
</g>
<!-- Node18 -->
<g id="Node000018" class="node">
<title>Node18</title>
<g id="a_Node000018"><a xlink:href="exif-entry_8h.html" target="_top" xlink:title="Handling EXIF entries.">
<polygon fill="white" stroke="#666666" points="596,-184 492,-184 492,-165 596,-165 596,-184"/>
<text text-anchor="middle" x="544" y="-172" font-family="Helvetica,sans-Serif" font-size="10.00">libexif/exif&#45;entry.h</text>
</a>
</g>
</g>
<!-- Node17&#45;&gt;Node18 -->
<g id="edge27_Node000017_Node000018" class="edge">
<title>Node17&#45;&gt;Node18</title>
<g id="a_edge27_Node000017_Node000018"><a xlink:title=" ">
<path fill="none" stroke="#63b8ff" d="M551.83,-225.37C548.12,-217.5 544.57,-205.6 542.67,-195.39"/>
<polygon fill="#63b8ff" stroke="#63b8ff" points="546.17,-195.16 541.45,-185.67 539.22,-196.03 546.17,-195.16"/>
</a>
</g>
</g>
<!-- Node18&#45;&gt;Node7 -->
<g id="edge30_Node000018_Node000007" class="edge">
<title>Node18&#45;&gt;Node7</title>
<g id="a_edge30_Node000018_Node000007"><a xlink:title=" ">
<path fill="none" stroke="#63b8ff" d="M523.98,-164.51C505.39,-156.16 477.46,-143.61 456.17,-134.05"/>
<polygon fill="#63b8ff" stroke="#63b8ff" points="457.66,-130.88 447.1,-129.98 454.79,-137.27 457.66,-130.88"/>
</a>
</g>
</g>
<!-- Node18&#45;&gt;Node9 -->
<g id="edge29_Node000018_Node000009" class="edge">
<title>Node18&#45;&gt;Node9</title>
<g id="a_edge29_Node000018_Node000009"><a xlink:title=" ">
<path fill="none" stroke="#63b8ff" d="M538.47,-164.92C529.42,-151.49 510.21,-125.44 488,-110 422.87,-64.73 334.38,-36.53 279.52,-22.17"/>
<polygon fill="#63b8ff" stroke="#63b8ff" points="280.7,-18.86 270.14,-19.78 278.96,-25.64 280.7,-18.86"/>
</a>
</g>
</g>
<!-- Node18&#45;&gt;Node17 -->
<g id="edge28_Node000018_Node000017" class="edge">
<title>Node18&#45;&gt;Node17</title>
<g id="a_edge28_Node000018_Node000017"><a xlink:title=" ">
<path fill="none" stroke="#63b8ff" d="M551.19,-184.17C554.9,-192.04 558.44,-203.95 560.34,-214.16"/>
<polygon fill="#63b8ff" stroke="#63b8ff" points="556.84,-214.38 561.55,-223.87 563.79,-213.51 556.84,-214.38"/>
</a>
</g>
</g>
<!-- Node19&#45;&gt;Node4 -->
<g id="edge38_Node000019_Node000004" class="edge">
<title>Node19&#45;&gt;Node4</title>
<g id="a_edge38_Node000019_Node000004"><a xlink:title=" ">
<path fill="none" stroke="#63b8ff" d="M213.08,-417.78C211.67,-391.52 209.92,-333.75 218,-286 231.7,-205.07 231.97,-180.51 274,-110 291.38,-80.84 296.91,-70.72 327,-55 361.01,-37.24 457.88,-24.52 527.7,-17.35"/>
<polygon fill="#63b8ff" stroke="#63b8ff" points="527.99,-20.84 537.59,-16.35 527.29,-13.87 527.99,-20.84"/>
</a>
</g>
</g>
<!-- Node19&#45;&gt;Node9 -->
<g id="edge37_Node000019_Node000009" class="edge">
<title>Node19&#45;&gt;Node9</title>
<g id="a_edge37_Node000019_Node000009"><a xlink:title=" ">
<path fill="none" stroke="#63b8ff" d="M204.02,-417.66C197.62,-407.95 189.49,-394.62 184,-382 154.26,-313.64 66.42,-116.2 109,-55 121.21,-37.45 141.19,-26.81 161.38,-20.36"/>
<polygon fill="#63b8ff" stroke="#63b8ff" points="162.12,-23.79 170.78,-17.68 160.2,-17.05 162.12,-23.79"/>
</a>
</g>
</g>
<!-- Node20 -->
<g id="Node000020" class="node">
<title>Node20</title>
<g id="a_Node000020"><a xlink:href="mnote-canon-tag_8h.html" target="_top" xlink:title=" ">
<polygon fill="white" stroke="#666666" points="515,-382 401,-382 401,-352 515,-352 515,-382"/>
<text text-anchor="start" x="409" y="-370" font-family="Helvetica,sans-Serif" font-size="10.00">libexif/canon/mnote</text>
<text text-anchor="middle" x="458" y="-359" font-family="Helvetica,sans-Serif" font-size="10.00">&#45;canon&#45;tag.h</text>
</a>
</g>
</g>
<!-- Node19&#45;&gt;Node20 -->
<g id="edge39_Node000019_Node000020" class="edge">
<title>Node19&#45;&gt;Node20</title>
<g id="a_edge39_Node000019_Node000020"><a xlink:title=" ">
<path fill="none" stroke="#63b8ff" d="M269.06,-417.56C305.52,-407.99 353.53,-395.4 392.03,-385.3"/>
<polygon fill="#63b8ff" stroke="#63b8ff" points="392.89,-388.7 401.67,-382.77 391.11,-381.93 392.89,-388.7"/>
</a>
</g>
</g>
<!-- Node20&#45;&gt;Node13 -->
<g id="edge40_Node000020_Node000013" class="edge">
<title>Node20&#45;&gt;Node13</title>
<g id="a_edge40_Node000020_Node000013"><a xlink:title=" ">
<path fill="none" stroke="#63b8ff" d="M480.67,-351.64C496.95,-341.32 518.84,-327.45 535.34,-316.99"/>
<polygon fill="#63b8ff" stroke="#63b8ff" points="536.97,-320.1 543.54,-311.8 533.22,-314.19 536.97,-320.1"/>
</a>
</g>
</g>
</g>
</svg>
