<?xml version="1.0" encoding="UTF-8" standalone="no"?>
<!DOCTYPE svg PUBLIC "-//W3C//DTD SVG 1.1//EN"
 "http://www.w3.org/Graphics/SVG/1.1/DTD/svg11.dtd">
<!-- Generated by graphviz version 2.44.1 (0)
 -->
<!-- Title: exif_data_dump Pages: 1 -->
<svg width="1143pt" height="534pt"
 viewBox="0.00 0.00 1143.00 534.00" xmlns="http://www.w3.org/2000/svg" xmlns:xlink="http://www.w3.org/1999/xlink">
<g id="graph0" class="graph" transform="scale(1 1) rotate(0) translate(4 530)">
<title>exif_data_dump</title>
<polygon fill="white" stroke="transparent" points="-4,4 -4,-530 1139,-530 1139,4 -4,4"/>
<!-- Node1 -->
<g id="node1" class="node">
<title>Node1</title>
<g id="a_node1"><a xlink:title="Dump all EXIF data to stdout.">
<polygon fill="#bfbfbf" stroke="black" points="0,-171.5 0,-190.5 95,-190.5 95,-171.5 0,-171.5"/>
<text text-anchor="middle" x="47.5" y="-178.5" font-family="Helvetica,sans-Serif" font-size="10.00">exif_data_dump</text>
</a>
</g>
</g>
<!-- Node2 -->
<g id="node2" class="node">
<title>Node2</title>
<g id="a_node2"><a xlink:href="exif-content_8c.html#a941c3522a39280f44329eaf364645620" target="_top" xlink:title="Dump contents of the IFD to stdout.">
<polygon fill="white" stroke="black" points="131,-190.5 131,-209.5 241,-209.5 241,-190.5 131,-190.5"/>
<text text-anchor="middle" x="186" y="-197.5" font-family="Helvetica,sans-Serif" font-size="10.00">exif_content_dump</text>
</a>
</g>
</g>
<!-- Node1&#45;&gt;Node2 -->
<g id="edge1" class="edge">
<title>Node1&#45;&gt;Node2</title>
<path fill="none" stroke="midnightblue" d="M95.09,-187.49C103.31,-188.63 111.99,-189.84 120.59,-191.03"/>
<polygon fill="midnightblue" stroke="midnightblue" points="120.23,-194.52 130.62,-192.43 121.2,-187.59 120.23,-194.52"/>
</g>
<!-- Node27 -->
<g id="node27" class="node">
<title>Node27</title>
<g id="a_node27"><a xlink:href="exif-ifd_8c.html#a57651cc68698f037cd9fb8f9d3a021a2" target="_top" xlink:title="Return a textual name of the given IFD.">
<polygon fill="white" stroke="black" points="132.5,-152.5 132.5,-171.5 239.5,-171.5 239.5,-152.5 132.5,-152.5"/>
<text text-anchor="middle" x="186" y="-159.5" font-family="Helvetica,sans-Serif" font-size="10.00">exif_ifd_get_name</text>
</a>
</g>
</g>
<!-- Node1&#45;&gt;Node27 -->
<g id="edge36" class="edge">
<title>Node1&#45;&gt;Node27</title>
<path fill="none" stroke="midnightblue" d="M95.09,-174.51C103.74,-173.31 112.89,-172.04 121.93,-170.78"/>
<polygon fill="midnightblue" stroke="midnightblue" points="122.63,-174.22 132.05,-169.37 121.66,-167.28 122.63,-174.22"/>
</g>
<!-- Node3 -->
<g id="node3" class="node">
<title>Node3</title>
<g id="a_node3"><a xlink:href="exif-entry_8c.html#addd6fdf3f0e4bd8777aff249ebe25da5" target="_top" xlink:title="Dump text representation of ExifEntry to stdout.">
<polygon fill="white" stroke="black" points="277,-190.5 277,-209.5 376,-209.5 376,-190.5 277,-190.5"/>
<text text-anchor="middle" x="326.5" y="-197.5" font-family="Helvetica,sans-Serif" font-size="10.00">exif_entry_dump</text>
</a>
</g>
</g>
<!-- Node2&#45;&gt;Node3 -->
<g id="edge2" class="edge">
<title>Node2&#45;&gt;Node3</title>
<path fill="none" stroke="midnightblue" d="M241.34,-200C249.64,-200 258.24,-200 266.62,-200"/>
<polygon fill="midnightblue" stroke="midnightblue" points="266.72,-203.5 276.72,-200 266.72,-196.5 266.72,-203.5"/>
</g>
<!-- Node4 -->
<g id="node4" class="node">
<title>Node4</title>
<g id="a_node4"><a xlink:href="exif-entry_8c.html#afda0f9d242fd7db960778502414c9885" target="_top" xlink:title="Return a localized textual representation of the value of the EXIF entry.">
<polygon fill="white" stroke="black" points="424,-266.5 424,-285.5 543,-285.5 543,-266.5 424,-266.5"/>
<text text-anchor="middle" x="483.5" y="-273.5" font-family="Helvetica,sans-Serif" font-size="10.00">exif_entry_get_value</text>
</a>
</g>
</g>
<!-- Node3&#45;&gt;Node4 -->
<g id="edge3" class="edge">
<title>Node3&#45;&gt;Node4</title>
<path fill="none" stroke="midnightblue" d="M347.13,-209.63C374.15,-222.87 422.97,-246.81 454.01,-262.03"/>
<polygon fill="midnightblue" stroke="midnightblue" points="452.51,-265.19 463.03,-266.45 455.59,-258.91 452.51,-265.19"/>
</g>
<!-- Node22 -->
<g id="node22" class="node">
<title>Node22</title>
<g id="a_node22"><a xlink:href="exif-format_8c.html#a59375a5939c716b826311c22571680f3" target="_top" xlink:title="Return a textual representation of the given EXIF data type.">
<polygon fill="white" stroke="black" points="419.5,-190.5 419.5,-209.5 547.5,-209.5 547.5,-190.5 419.5,-190.5"/>
<text text-anchor="middle" x="483.5" y="-197.5" font-family="Helvetica,sans-Serif" font-size="10.00">exif_format_get_name</text>
</a>
</g>
</g>
<!-- Node3&#45;&gt;Node22 -->
<g id="edge31" class="edge">
<title>Node3&#45;&gt;Node22</title>
<path fill="none" stroke="midnightblue" d="M376.12,-200C386.59,-200 397.87,-200 409.05,-200"/>
<polygon fill="midnightblue" stroke="midnightblue" points="409.25,-203.5 419.25,-200 409.25,-196.5 409.25,-203.5"/>
</g>
<!-- Node23 -->
<g id="node23" class="node">
<title>Node23</title>
<g id="a_node23"><a xlink:href="exif-tag_8c.html#a82b5a88d44d27d432afb5a1db74268b0" target="_top" xlink:title="Return a textual name of the given tag when found in the given IFD.">
<polygon fill="white" stroke="black" points="412,-76.5 412,-95.5 555,-95.5 555,-76.5 412,-76.5"/>
<text text-anchor="middle" x="483.5" y="-83.5" font-family="Helvetica,sans-Serif" font-size="10.00">exif_tag_get_name_in_ifd</text>
</a>
</g>
</g>
<!-- Node3&#45;&gt;Node23 -->
<g id="edge32" class="edge">
<title>Node3&#45;&gt;Node23</title>
<path fill="none" stroke="midnightblue" d="M340.45,-190.48C367.05,-170.91 428.1,-126.01 460.83,-101.94"/>
<polygon fill="midnightblue" stroke="midnightblue" points="463.28,-104.48 469.26,-95.74 459.13,-98.84 463.28,-104.48"/>
</g>
<!-- Node5 -->
<g id="node5" class="node">
<title>Node5</title>
<g id="a_node5"><a xlink:href="exif-content_8c.html#ac72bb2dacf0da27156c2c4dce08eef5d" target="_top" xlink:title="Return the ExifEntry in this IFD corresponding to the given tag.">
<polygon fill="white" stroke="black" points="595,-430.5 595,-449.5 724,-449.5 724,-430.5 595,-430.5"/>
<text text-anchor="middle" x="659.5" y="-437.5" font-family="Helvetica,sans-Serif" font-size="10.00">exif_content_get_entry</text>
</a>
</g>
</g>
<!-- Node4&#45;&gt;Node5 -->
<g id="edge4" class="edge">
<title>Node4&#45;&gt;Node5</title>
<path fill="none" stroke="midnightblue" d="M489.29,-285.69C502.2,-310.85 540.21,-378.88 591,-416 596.67,-420.14 603.12,-423.62 609.73,-426.53"/>
<polygon fill="midnightblue" stroke="midnightblue" points="608.87,-429.96 619.46,-430.4 611.46,-423.46 608.87,-429.96"/>
</g>
<!-- Node6 -->
<g id="node6" class="node">
<title>Node6</title>
<g id="a_node6"><a xlink:href="exif-utils_8c.html#af43ad07a0e309c42ead4897c29319f4c" target="_top" xlink:title="This function converts rather UCS&#45;2LE than UTF&#45;16 to UTF&#45;8.">
<polygon fill="white" stroke="black" points="605.5,-343 605.5,-373 713.5,-373 713.5,-343 605.5,-343"/>
<text text-anchor="start" x="613.5" y="-361" font-family="Helvetica,sans-Serif" font-size="10.00">exif_convert_utf16</text>
<text text-anchor="middle" x="659.5" y="-350" font-family="Helvetica,sans-Serif" font-size="10.00">_to_utf8</text>
</a>
</g>
</g>
<!-- Node4&#45;&gt;Node6 -->
<g id="edge5" class="edge">
<title>Node4&#45;&gt;Node6</title>
<path fill="none" stroke="midnightblue" d="M503.64,-285.6C524.88,-296.2 560.23,-313.66 591,-328 598.69,-331.58 606.9,-335.32 614.87,-338.88"/>
<polygon fill="midnightblue" stroke="midnightblue" points="613.49,-342.1 624.05,-342.98 616.34,-335.71 613.49,-342.1"/>
</g>
<!-- Node7 -->
<g id="node7" class="node">
<title>Node7</title>
<g id="a_node7"><a xlink:href="exif-utils_8c.html#a4b4acf537a8c6b9405e7b53be868e4d7" target="_top" xlink:title="Retrieve an ExifShort value from memory.">
<polygon fill="white" stroke="black" points="780.5,-430.5 780.5,-449.5 866.5,-449.5 866.5,-430.5 780.5,-430.5"/>
<text text-anchor="middle" x="823.5" y="-437.5" font-family="Helvetica,sans-Serif" font-size="10.00">exif_get_short</text>
</a>
</g>
</g>
<!-- Node4&#45;&gt;Node7 -->
<g id="edge26" class="edge">
<title>Node4&#45;&gt;Node7</title>
<path fill="none" stroke="midnightblue" d="M491.24,-285.73C506.43,-306.91 545.6,-357.33 591,-383 606.6,-391.82 707.1,-414.81 770.44,-428.74"/>
<polygon fill="midnightblue" stroke="midnightblue" points="769.76,-432.18 780.27,-430.9 771.26,-425.34 769.76,-432.18"/>
</g>
<!-- Node9 -->
<g id="node9" class="node">
<title>Node9</title>
<g id="a_node9"><a xlink:href="exif-data_8c.html#a2d8d50e6a9c19d28fe8192ef7cc52777" target="_top" xlink:title="Return the byte order in use by this EXIF structure.">
<polygon fill="white" stroke="black" points="768.5,-381 768.5,-411 878.5,-411 878.5,-381 768.5,-381"/>
<text text-anchor="start" x="776.5" y="-399" font-family="Helvetica,sans-Serif" font-size="10.00">exif_data_get_byte</text>
<text text-anchor="middle" x="823.5" y="-388" font-family="Helvetica,sans-Serif" font-size="10.00">_order</text>
</a>
</g>
</g>
<!-- Node4&#45;&gt;Node9 -->
<g id="edge8" class="edge">
<title>Node4&#45;&gt;Node9</title>
<path fill="none" stroke="midnightblue" d="M537.66,-285.51C598.89,-297.02 695.29,-316.96 728,-334 746.99,-343.89 746.33,-353.91 764,-366 769.19,-369.55 774.86,-372.97 780.56,-376.14"/>
<polygon fill="midnightblue" stroke="midnightblue" points="779.01,-379.28 789.48,-380.9 782.31,-373.1 779.01,-379.28"/>
</g>
<!-- Node10 -->
<g id="node10" class="node">
<title>Node10</title>
<g id="a_node10"><a xlink:href="exif-entry_8c.html#ae02e9d58318a3cd50eb6730b5e657e5a" target="_top" xlink:title="Format the value of an ExifEntry for human display in a generic way.">
<polygon fill="white" stroke="black" points="591,-266.5 591,-285.5 728,-285.5 728,-266.5 591,-266.5"/>
<text text-anchor="middle" x="659.5" y="-273.5" font-family="Helvetica,sans-Serif" font-size="10.00">exif_entry_format_value</text>
</a>
</g>
</g>
<!-- Node4&#45;&gt;Node10 -->
<g id="edge9" class="edge">
<title>Node4&#45;&gt;Node10</title>
<path fill="none" stroke="midnightblue" d="M543.41,-276C555.47,-276 568.33,-276 580.93,-276"/>
<polygon fill="midnightblue" stroke="midnightblue" points="580.95,-279.5 590.95,-276 580.95,-272.5 580.95,-279.5"/>
</g>
<!-- Node11 -->
<g id="node11" class="node">
<title>Node11</title>
<g id="a_node11"><a xlink:href="exif-format_8c.html#a924038efe0cd8ebade8f44619dd794f3" target="_top" xlink:title="Return the raw size of the given EXIF data type.">
<polygon fill="white" stroke="black" points="764,-228.5 764,-247.5 883,-247.5 883,-228.5 764,-228.5"/>
<text text-anchor="middle" x="823.5" y="-235.5" font-family="Helvetica,sans-Serif" font-size="10.00">exif_format_get_size</text>
</a>
</g>
</g>
<!-- Node4&#45;&gt;Node11 -->
<g id="edge24" class="edge">
<title>Node4&#45;&gt;Node11</title>
<path fill="none" stroke="midnightblue" d="M532.33,-266.47C550.63,-263.09 571.72,-259.5 591,-257 645.47,-249.92 707.5,-245 753.64,-241.94"/>
<polygon fill="midnightblue" stroke="midnightblue" points="754.07,-245.42 763.83,-241.28 753.62,-238.43 754.07,-245.42"/>
</g>
<!-- Node14 -->
<g id="node14" class="node">
<title>Node14</title>
<g id="a_node14"><a xlink:href="exif-utils_8c.html#a1feb547c289aa57a4d2119338b03706c" target="_top" xlink:title="Retrieve an ExifRational value from memory.">
<polygon fill="white" stroke="black" points="774,-190.5 774,-209.5 873,-209.5 873,-190.5 774,-190.5"/>
<text text-anchor="middle" x="823.5" y="-197.5" font-family="Helvetica,sans-Serif" font-size="10.00">exif_get_rational</text>
</a>
</g>
</g>
<!-- Node4&#45;&gt;Node14 -->
<g id="edge25" class="edge">
<title>Node4&#45;&gt;Node14</title>
<path fill="none" stroke="midnightblue" d="M509.14,-266.46C530.51,-258.47 562.43,-247.25 591,-240 649.01,-225.28 716.57,-214.29 763.68,-207.59"/>
<polygon fill="midnightblue" stroke="midnightblue" points="764.29,-211.04 773.71,-206.19 763.32,-204.11 764.29,-211.04"/>
</g>
<!-- Node15 -->
<g id="node15" class="node">
<title>Node15</title>
<g id="a_node15"><a xlink:href="exif-utils_8c.html#adb97c3499488d5642a82df1cb16dc2cb" target="_top" xlink:title="Retrieve an ExifSRational value from memory.">
<polygon fill="white" stroke="black" points="771.5,-152.5 771.5,-171.5 875.5,-171.5 875.5,-152.5 771.5,-152.5"/>
<text text-anchor="middle" x="823.5" y="-159.5" font-family="Helvetica,sans-Serif" font-size="10.00">exif_get_srational</text>
</a>
</g>
</g>
<!-- Node4&#45;&gt;Node15 -->
<g id="edge27" class="edge">
<title>Node4&#45;&gt;Node15</title>
<path fill="none" stroke="midnightblue" d="M496.15,-266.46C514.92,-251.6 553.55,-223.05 591,-208 646.26,-185.79 713.39,-173.97 761.1,-167.9"/>
<polygon fill="midnightblue" stroke="midnightblue" points="761.77,-171.35 771.28,-166.66 760.92,-164.4 761.77,-171.35"/>
</g>
<!-- Node16 -->
<g id="node16" class="node">
<title>Node16</title>
<g id="a_node16"><a xlink:href="exif-entry_8c.html#ac416e8326bd687f5da299d1b15a731bf" target="_top" xlink:title=" ">
<polygon fill="white" stroke="black" points="616.5,-114.5 616.5,-133.5 702.5,-133.5 702.5,-114.5 616.5,-114.5"/>
<text text-anchor="middle" x="659.5" y="-121.5" font-family="Helvetica,sans-Serif" font-size="10.00">exif_entry_log</text>
</a>
</g>
</g>
<!-- Node4&#45;&gt;Node16 -->
<g id="edge21" class="edge">
<title>Node4&#45;&gt;Node16</title>
<path fill="none" stroke="midnightblue" d="M499.84,-266.42C515.29,-256.17 539.06,-238.7 555,-219 577.25,-191.49 564.44,-171.37 591,-148 595.72,-143.85 601.2,-140.4 606.97,-137.54"/>
<polygon fill="midnightblue" stroke="midnightblue" points="608.43,-140.72 616.19,-133.51 605.63,-134.31 608.43,-140.72"/>
</g>
<!-- Node19 -->
<g id="node19" class="node">
<title>Node19</title>
<g id="a_node19"><a xlink:href="exif-mem_8c.html#ae8c09cfbcb95e435c4c4b7ec3bbd79e4" target="_top" xlink:title=" ">
<polygon fill="white" stroke="black" points="612,-76.5 612,-95.5 707,-95.5 707,-76.5 612,-76.5"/>
<text text-anchor="middle" x="659.5" y="-83.5" font-family="Helvetica,sans-Serif" font-size="10.00">exif_mem_alloc</text>
</a>
</g>
</g>
<!-- Node4&#45;&gt;Node19 -->
<g id="edge28" class="edge">
<title>Node4&#45;&gt;Node19</title>
<path fill="none" stroke="midnightblue" d="M501.43,-266.37C517.42,-256.44 540.99,-239.55 555,-219 584.93,-175.1 552.84,-141.97 591,-105 594.34,-101.77 598.18,-99.08 602.3,-96.84"/>
<polygon fill="midnightblue" stroke="midnightblue" points="603.99,-99.91 611.68,-92.62 601.13,-93.53 603.99,-99.91"/>
</g>
<!-- Node20 -->
<g id="node20" class="node">
<title>Node20</title>
<g id="a_node20"><a xlink:href="exif-mem_8c.html#a43190b81b4b4bdb4ffb89bfb612051b1" target="_top" xlink:title=" ">
<polygon fill="white" stroke="black" points="614,-506.5 614,-525.5 705,-525.5 705,-506.5 614,-506.5"/>
<text text-anchor="middle" x="659.5" y="-513.5" font-family="Helvetica,sans-Serif" font-size="10.00">exif_mem_free</text>
</a>
</g>
</g>
<!-- Node4&#45;&gt;Node20 -->
<g id="edge29" class="edge">
<title>Node4&#45;&gt;Node20</title>
<path fill="none" stroke="midnightblue" d="M486.23,-285.69C492.9,-320.11 520.2,-437.6 591,-497 594.98,-500.34 599.5,-503.09 604.29,-505.36"/>
<polygon fill="midnightblue" stroke="midnightblue" points="603.14,-508.67 613.72,-509.16 605.75,-502.18 603.14,-508.67"/>
</g>
<!-- Node21 -->
<g id="node21" class="node">
<title>Node21</title>
<g id="a_node21"><a xlink:href="exif-entry_8c.html#acfe97d1f369d95332b6e796c690093e4" target="_top" xlink:title="Check if a string consists entirely of a single, repeated character.">
<polygon fill="white" stroke="black" points="598.5,-468.5 598.5,-487.5 720.5,-487.5 720.5,-468.5 598.5,-468.5"/>
<text text-anchor="middle" x="659.5" y="-475.5" font-family="Helvetica,sans-Serif" font-size="10.00">match_repeated_char</text>
</a>
</g>
</g>
<!-- Node4&#45;&gt;Node21 -->
<g id="edge30" class="edge">
<title>Node4&#45;&gt;Node21</title>
<path fill="none" stroke="midnightblue" d="M487.27,-285.7C496.48,-316.21 529.1,-411.05 591,-459 593.35,-460.82 595.86,-462.46 598.48,-463.95"/>
<polygon fill="midnightblue" stroke="midnightblue" points="597.23,-467.23 607.76,-468.42 600.27,-460.92 597.23,-467.23"/>
</g>
<!-- Node6&#45;&gt;Node7 -->
<g id="edge6" class="edge">
<title>Node6&#45;&gt;Node7</title>
<path fill="none" stroke="midnightblue" d="M700.18,-373.07C709.61,-377.34 719.42,-382.38 728,-388 746.15,-399.9 745.25,-410.06 764,-421 767.63,-423.12 771.53,-425.03 775.53,-426.76"/>
<polygon fill="midnightblue" stroke="midnightblue" points="774.37,-430.06 784.96,-430.45 776.92,-423.55 774.37,-430.06"/>
</g>
<!-- Node8 -->
<g id="node8" class="node">
<title>Node8</title>
<g id="a_node8"><a xlink:href="exif-utils_8c.html#a6baf094a71392f9cea23ad633ec13c8b" target="_top" xlink:title="Retrieve an ExifSShort value from memory.">
<polygon fill="white" stroke="black" points="919,-386.5 919,-405.5 1011,-405.5 1011,-386.5 919,-386.5"/>
<text text-anchor="middle" x="965" y="-393.5" font-family="Helvetica,sans-Serif" font-size="10.00">exif_get_sshort</text>
</a>
</g>
</g>
<!-- Node7&#45;&gt;Node8 -->
<g id="edge7" class="edge">
<title>Node7&#45;&gt;Node8</title>
<path fill="none" stroke="midnightblue" d="M854.77,-430.45C875.06,-424.05 902,-415.56 924.05,-408.6"/>
<polygon fill="midnightblue" stroke="midnightblue" points="925.31,-411.87 933.79,-405.53 923.2,-405.2 925.31,-411.87"/>
</g>
<!-- Node10&#45;&gt;Node7 -->
<g id="edge16" class="edge">
<title>Node10&#45;&gt;Node7</title>
<path fill="none" stroke="midnightblue" d="M675.18,-285.52C690.19,-295.88 713.32,-313.73 728,-334 752.54,-367.9 733.27,-392.59 764,-421 766.28,-423.11 768.79,-424.98 771.46,-426.65"/>
<polygon fill="midnightblue" stroke="midnightblue" points="769.92,-429.79 780.41,-431.29 773.15,-423.58 769.92,-429.79"/>
</g>
<!-- Node10&#45;&gt;Node8 -->
<g id="edge20" class="edge">
<title>Node10&#45;&gt;Node8</title>
<path fill="none" stroke="midnightblue" d="M713.54,-285.56C718.57,-287.35 723.48,-289.48 728,-292 747.76,-303.03 744.79,-316.05 764,-328 777.89,-336.64 869.54,-366.26 923.84,-383.42"/>
<polygon fill="midnightblue" stroke="midnightblue" points="922.92,-386.81 933.51,-386.48 925.03,-380.13 922.92,-386.81"/>
</g>
<!-- Node10&#45;&gt;Node9 -->
<g id="edge10" class="edge">
<title>Node10&#45;&gt;Node9</title>
<path fill="none" stroke="midnightblue" d="M702.32,-285.54C711.47,-289.01 720.62,-293.7 728,-300 753.41,-321.69 740.07,-342.68 764,-366 767.64,-369.54 771.77,-372.76 776.13,-375.66"/>
<polygon fill="midnightblue" stroke="midnightblue" points="774.34,-378.67 784.7,-380.84 777.96,-372.67 774.34,-378.67"/>
</g>
<!-- Node10&#45;&gt;Node11 -->
<g id="edge11" class="edge">
<title>Node10&#45;&gt;Node11</title>
<path fill="none" stroke="midnightblue" d="M701.38,-266.41C722.85,-261.37 749.36,-255.16 772.1,-249.82"/>
<polygon fill="midnightblue" stroke="midnightblue" points="772.98,-253.21 781.91,-247.52 771.38,-246.4 772.98,-253.21"/>
</g>
<!-- Node12 -->
<g id="node12" class="node">
<title>Node12</title>
<g id="a_node12"><a xlink:href="exif-utils_8c.html#a4ad94614630897766dd0a5c9bc2a59bf" target="_top" xlink:title="Retrieve an ExifLong value from memory.">
<polygon fill="white" stroke="black" points="923.5,-247.5 923.5,-266.5 1006.5,-266.5 1006.5,-247.5 923.5,-247.5"/>
<text text-anchor="middle" x="965" y="-254.5" font-family="Helvetica,sans-Serif" font-size="10.00">exif_get_long</text>
</a>
</g>
</g>
<!-- Node10&#45;&gt;Node12 -->
<g id="edge12" class="edge">
<title>Node10&#45;&gt;Node12</title>
<path fill="none" stroke="midnightblue" d="M728.23,-271.76C784.29,-268.25 862.69,-263.34 913.41,-260.17"/>
<polygon fill="midnightblue" stroke="midnightblue" points="913.72,-263.65 923.48,-259.54 913.28,-256.67 913.72,-263.65"/>
</g>
<!-- Node13 -->
<g id="node13" class="node">
<title>Node13</title>
<g id="a_node13"><a xlink:href="exif-utils_8c.html#a56b96f076a13da6ed926e1ef29cb2dc3" target="_top" xlink:title="Retrieve an ExifSLong value from memory.">
<polygon fill="white" stroke="black" points="1047,-247.5 1047,-266.5 1135,-266.5 1135,-247.5 1047,-247.5"/>
<text text-anchor="middle" x="1091" y="-254.5" font-family="Helvetica,sans-Serif" font-size="10.00">exif_get_slong</text>
</a>
</g>
</g>
<!-- Node10&#45;&gt;Node13 -->
<g id="edge17" class="edge">
<title>Node10&#45;&gt;Node13</title>
<path fill="none" stroke="midnightblue" d="M728.03,-281.16C798.86,-285.37 913.25,-288.75 1011,-276 1022.9,-274.45 1035.62,-271.83 1047.29,-269.02"/>
<polygon fill="midnightblue" stroke="midnightblue" points="1048.39,-272.36 1057.24,-266.53 1046.69,-265.57 1048.39,-272.36"/>
</g>
<!-- Node10&#45;&gt;Node14 -->
<g id="edge14" class="edge">
<title>Node10&#45;&gt;Node14</title>
<path fill="none" stroke="midnightblue" d="M675.81,-266.36C695.62,-254.18 731.43,-233.1 764,-219 769.02,-216.82 774.38,-214.76 779.73,-212.85"/>
<polygon fill="midnightblue" stroke="midnightblue" points="780.97,-216.12 789.3,-209.58 778.7,-209.5 780.97,-216.12"/>
</g>
<!-- Node10&#45;&gt;Node15 -->
<g id="edge18" class="edge">
<title>Node10&#45;&gt;Node15</title>
<path fill="none" stroke="midnightblue" d="M668.33,-266.47C684.37,-247.55 722.92,-204.97 764,-181 767.63,-178.88 771.53,-176.96 775.53,-175.24"/>
<polygon fill="midnightblue" stroke="midnightblue" points="776.92,-178.45 784.95,-171.55 774.37,-171.93 776.92,-178.45"/>
</g>
<!-- Node12&#45;&gt;Node13 -->
<g id="edge13" class="edge">
<title>Node12&#45;&gt;Node13</title>
<path fill="none" stroke="midnightblue" d="M1006.6,-257C1016.14,-257 1026.45,-257 1036.47,-257"/>
<polygon fill="midnightblue" stroke="midnightblue" points="1036.75,-260.5 1046.75,-257 1036.75,-253.5 1036.75,-260.5"/>
</g>
<!-- Node14&#45;&gt;Node12 -->
<g id="edge15" class="edge">
<title>Node14&#45;&gt;Node12</title>
<path fill="none" stroke="midnightblue" d="M856.33,-209.54C865.05,-212.37 874.46,-215.62 883,-219 901.06,-226.14 920.81,-235.37 936.28,-242.95"/>
<polygon fill="midnightblue" stroke="midnightblue" points="934.79,-246.12 945.31,-247.42 937.9,-239.84 934.79,-246.12"/>
</g>
<!-- Node15&#45;&gt;Node13 -->
<g id="edge19" class="edge">
<title>Node15&#45;&gt;Node13</title>
<path fill="none" stroke="midnightblue" d="M854.63,-171.55C863.77,-174.51 873.82,-177.82 883,-181 944,-202.1 1014.44,-228.37 1055.42,-243.85"/>
<polygon fill="midnightblue" stroke="midnightblue" points="1054.35,-247.18 1064.94,-247.45 1056.82,-240.64 1054.35,-247.18"/>
</g>
<!-- Node17 -->
<g id="node17" class="node">
<title>Node17</title>
<g id="a_node17"><a xlink:href="exif-entry_8c.html#ad5b86e68c3c96618a946a5c6fcd5f394" target="_top" xlink:title=" ">
<polygon fill="white" stroke="black" points="771.5,-114.5 771.5,-133.5 875.5,-133.5 875.5,-114.5 771.5,-114.5"/>
<text text-anchor="middle" x="823.5" y="-121.5" font-family="Helvetica,sans-Serif" font-size="10.00">exif_data_get_log</text>
</a>
</g>
</g>
<!-- Node16&#45;&gt;Node17 -->
<g id="edge22" class="edge">
<title>Node16&#45;&gt;Node17</title>
<path fill="none" stroke="midnightblue" d="M702.64,-124C720.52,-124 741.72,-124 761.27,-124"/>
<polygon fill="midnightblue" stroke="midnightblue" points="761.33,-127.5 771.33,-124 761.33,-120.5 761.33,-127.5"/>
</g>
<!-- Node18 -->
<g id="node18" class="node">
<title>Node18</title>
<g id="a_node18"><a xlink:href="exif-log_8c.html#a99101b5ad01b2d82ce9d43c9e8534627" target="_top" xlink:title=" ">
<polygon fill="white" stroke="black" points="792.5,-76.5 792.5,-95.5 854.5,-95.5 854.5,-76.5 792.5,-76.5"/>
<text text-anchor="middle" x="823.5" y="-83.5" font-family="Helvetica,sans-Serif" font-size="10.00">exif_logv</text>
</a>
</g>
</g>
<!-- Node16&#45;&gt;Node18 -->
<g id="edge23" class="edge">
<title>Node16&#45;&gt;Node18</title>
<path fill="none" stroke="midnightblue" d="M701.38,-114.41C726.26,-108.58 757.89,-101.15 782.59,-95.36"/>
<polygon fill="midnightblue" stroke="midnightblue" points="783.44,-98.76 792.37,-93.07 781.84,-91.94 783.44,-98.76"/>
</g>
<!-- Node24 -->
<g id="node24" class="node">
<title>Node24</title>
<g id="a_node24"><a xlink:href="exif-tag_8c.html#a389f8ff3411e0525b28367892f1e78d3" target="_top" xlink:title="Finds the first entry in the EXIF tag table with the given tag number using a binary search.">
<polygon fill="white" stroke="black" points="604,-38.5 604,-57.5 715,-57.5 715,-38.5 604,-38.5"/>
<text text-anchor="middle" x="659.5" y="-45.5" font-family="Helvetica,sans-Serif" font-size="10.00">exif_tag_table_first</text>
</a>
</g>
</g>
<!-- Node23&#45;&gt;Node24 -->
<g id="edge33" class="edge">
<title>Node23&#45;&gt;Node24</title>
<path fill="none" stroke="midnightblue" d="M528.41,-76.41C551.68,-71.33 580.45,-65.04 605.02,-59.68"/>
<polygon fill="midnightblue" stroke="midnightblue" points="605.89,-63.07 614.91,-57.52 604.39,-56.23 605.89,-63.07"/>
</g>
<!-- Node25 -->
<g id="node25" class="node">
<title>Node25</title>
<g id="a_node25"><a xlink:href="exif-tag_8c.html#a87563ee64809f5f0deb4d780098508c1" target="_top" xlink:title="Return the number of entries in the EXIF tag table, including the terminating NULL entry.">
<polygon fill="white" stroke="black" points="764,-38.5 764,-57.5 883,-57.5 883,-38.5 764,-38.5"/>
<text text-anchor="middle" x="823.5" y="-45.5" font-family="Helvetica,sans-Serif" font-size="10.00">exif_tag_table_count</text>
</a>
</g>
</g>
<!-- Node24&#45;&gt;Node25 -->
<g id="edge34" class="edge">
<title>Node24&#45;&gt;Node25</title>
<path fill="none" stroke="midnightblue" d="M715.35,-48C727.66,-48 740.88,-48 753.68,-48"/>
<polygon fill="midnightblue" stroke="midnightblue" points="753.83,-51.5 763.83,-48 753.83,-44.5 753.83,-51.5"/>
</g>
<!-- Node26 -->
<g id="node26" class="node">
<title>Node26</title>
<g id="a_node26"><a xlink:href="exif-tag_8c.html#a220c1b18832f113bc84ff9551754915f" target="_top" xlink:title="Compares the tag with that in entry.">
<polygon fill="white" stroke="black" points="789.5,-0.5 789.5,-19.5 857.5,-19.5 857.5,-0.5 789.5,-0.5"/>
<text text-anchor="middle" x="823.5" y="-7.5" font-family="Helvetica,sans-Serif" font-size="10.00">match_tag</text>
</a>
</g>
</g>
<!-- Node24&#45;&gt;Node26 -->
<g id="edge35" class="edge">
<title>Node24&#45;&gt;Node26</title>
<path fill="none" stroke="midnightblue" d="M701.38,-38.41C725.16,-32.83 755.12,-25.8 779.29,-20.13"/>
<polygon fill="midnightblue" stroke="midnightblue" points="780.33,-23.49 789.26,-17.8 778.73,-16.67 780.33,-23.49"/>
</g>
</g>
</svg>
