<?xml version="1.0" encoding="UTF-8" standalone="no"?>
<!DOCTYPE svg PUBLIC "-//W3C//DTD SVG 1.1//EN"
 "http://www.w3.org/Graphics/SVG/1.1/DTD/svg11.dtd">
<!-- Generated by graphviz version 2.44.1 (0)
 -->
<!-- Title: exif_array_set_byte_order Pages: 1 -->
<svg width="540pt" height="474pt"
 viewBox="0.00 0.00 540.00 474.00" xmlns="http://www.w3.org/2000/svg" xmlns:xlink="http://www.w3.org/1999/xlink">
<g id="graph0" class="graph" transform="scale(1 1) rotate(0) translate(4 470)">
<title>exif_array_set_byte_order</title>
<polygon fill="white" stroke="transparent" points="-4,4 -4,-470 536,-470 536,4 -4,4"/>
<!-- Node1 -->
<g id="node1" class="node">
<title>Node1</title>
<g id="a_node1"><a xlink:title=" ">
<polygon fill="#bfbfbf" stroke="black" points="0,-213 0,-243 113,-243 113,-213 0,-213"/>
<text text-anchor="start" x="8" y="-231" font-family="Helvetica,sans-Serif" font-size="10.00">exif_array_set_byte</text>
<text text-anchor="middle" x="56.5" y="-220" font-family="Helvetica,sans-Serif" font-size="10.00">_order</text>
</a>
</g>
</g>
<!-- Node2 -->
<g id="node2" class="node">
<title>Node2</title>
<g id="a_node2"><a xlink:href="exif-format_8c.html#a924038efe0cd8ebade8f44619dd794f3" target="_top" xlink:title="Return the raw size of the given EXIF data type.">
<polygon fill="white" stroke="black" points="149,-446.5 149,-465.5 268,-465.5 268,-446.5 149,-446.5"/>
<text text-anchor="middle" x="208.5" y="-453.5" font-family="Helvetica,sans-Serif" font-size="10.00">exif_format_get_size</text>
</a>
</g>
</g>
<!-- Node1&#45;&gt;Node2 -->
<g id="edge1" class="edge">
<title>Node1&#45;&gt;Node2</title>
<path fill="none" stroke="midnightblue" d="M60.25,-243.01C67.79,-280.08 92.11,-376.92 149,-432 153.04,-435.91 157.81,-439.22 162.85,-442.01"/>
<polygon fill="midnightblue" stroke="midnightblue" points="161.6,-445.29 172.12,-446.49 164.64,-438.99 161.6,-445.29"/>
</g>
<!-- Node3 -->
<g id="node3" class="node">
<title>Node3</title>
<g id="a_node3"><a xlink:href="exif-utils_8c.html#a4ad94614630897766dd0a5c9bc2a59bf" target="_top" xlink:title="Retrieve an ExifLong value from memory.">
<polygon fill="white" stroke="black" points="314.5,-370.5 314.5,-389.5 397.5,-389.5 397.5,-370.5 314.5,-370.5"/>
<text text-anchor="middle" x="356" y="-377.5" font-family="Helvetica,sans-Serif" font-size="10.00">exif_get_long</text>
</a>
</g>
</g>
<!-- Node1&#45;&gt;Node3 -->
<g id="edge2" class="edge">
<title>Node1&#45;&gt;Node3</title>
<path fill="none" stroke="midnightblue" d="M60.26,-243.21C67.53,-278.21 90.8,-364.13 149,-399 203.76,-431.81 281.79,-409.9 324.38,-393.44"/>
<polygon fill="midnightblue" stroke="midnightblue" points="325.93,-396.59 333.9,-389.61 323.32,-390.09 325.93,-396.59"/>
</g>
<!-- Node4 -->
<g id="node4" class="node">
<title>Node4</title>
<g id="a_node4"><a xlink:href="exif-utils_8c.html#a56b96f076a13da6ed926e1ef29cb2dc3" target="_top" xlink:title="Retrieve an ExifSLong value from memory.">
<polygon fill="white" stroke="black" points="444,-332.5 444,-351.5 532,-351.5 532,-332.5 444,-332.5"/>
<text text-anchor="middle" x="488" y="-339.5" font-family="Helvetica,sans-Serif" font-size="10.00">exif_get_slong</text>
</a>
</g>
</g>
<!-- Node1&#45;&gt;Node4 -->
<g id="edge8" class="edge">
<title>Node1&#45;&gt;Node4</title>
<path fill="none" stroke="midnightblue" d="M66.76,-243.23C81.19,-265.38 111.33,-305.72 149,-323 241.86,-365.6 364.45,-359.11 433.58,-350.55"/>
<polygon fill="midnightblue" stroke="midnightblue" points="434.33,-353.99 443.8,-349.22 433.43,-347.04 434.33,-353.99"/>
</g>
<!-- Node5 -->
<g id="node5" class="node">
<title>Node5</title>
<g id="a_node5"><a xlink:href="exif-utils_8c.html#a1feb547c289aa57a4d2119338b03706c" target="_top" xlink:title="Retrieve an ExifRational value from memory.">
<polygon fill="white" stroke="black" points="159,-370.5 159,-389.5 258,-389.5 258,-370.5 159,-370.5"/>
<text text-anchor="middle" x="208.5" y="-377.5" font-family="Helvetica,sans-Serif" font-size="10.00">exif_get_rational</text>
</a>
</g>
</g>
<!-- Node1&#45;&gt;Node5 -->
<g id="edge4" class="edge">
<title>Node1&#45;&gt;Node5</title>
<path fill="none" stroke="midnightblue" d="M64.7,-243.13C77.94,-269.46 108.53,-323.95 149,-356 154.03,-359.98 159.8,-363.39 165.73,-366.29"/>
<polygon fill="midnightblue" stroke="midnightblue" points="164.51,-369.58 175.07,-370.43 167.35,-363.18 164.51,-369.58"/>
</g>
<!-- Node6 -->
<g id="node6" class="node">
<title>Node6</title>
<g id="a_node6"><a xlink:href="exif-utils_8c.html#a4b4acf537a8c6b9405e7b53be868e4d7" target="_top" xlink:title="Retrieve an ExifShort value from memory.">
<polygon fill="white" stroke="black" points="165.5,-294.5 165.5,-313.5 251.5,-313.5 251.5,-294.5 165.5,-294.5"/>
<text text-anchor="middle" x="208.5" y="-301.5" font-family="Helvetica,sans-Serif" font-size="10.00">exif_get_short</text>
</a>
</g>
</g>
<!-- Node1&#45;&gt;Node6 -->
<g id="edge6" class="edge">
<title>Node1&#45;&gt;Node6</title>
<path fill="none" stroke="midnightblue" d="M82.28,-243.23C100.43,-254.09 125.84,-268.72 149,-280 156.58,-283.69 164.87,-287.32 172.77,-290.61"/>
<polygon fill="midnightblue" stroke="midnightblue" points="171.56,-293.89 182.14,-294.41 174.19,-287.41 171.56,-293.89"/>
</g>
<!-- Node7 -->
<g id="node7" class="node">
<title>Node7</title>
<g id="a_node7"><a xlink:href="exif-utils_8c.html#a6baf094a71392f9cea23ad633ec13c8b" target="_top" xlink:title="Retrieve an ExifSShort value from memory.">
<polygon fill="white" stroke="black" points="310,-285.5 310,-304.5 402,-304.5 402,-285.5 310,-285.5"/>
<text text-anchor="middle" x="356" y="-292.5" font-family="Helvetica,sans-Serif" font-size="10.00">exif_get_sshort</text>
</a>
</g>
</g>
<!-- Node1&#45;&gt;Node7 -->
<g id="edge11" class="edge">
<title>Node1&#45;&gt;Node7</title>
<path fill="none" stroke="midnightblue" d="M113.07,-242.31C124.91,-245.26 137.35,-248.29 149,-251 200.01,-262.85 258.4,-275.21 299.97,-283.8"/>
<polygon fill="midnightblue" stroke="midnightblue" points="299.39,-287.26 309.89,-285.85 300.8,-280.4 299.39,-287.26"/>
</g>
<!-- Node8 -->
<g id="node8" class="node">
<title>Node8</title>
<g id="a_node8"><a xlink:href="exif-utils_8c.html#adb97c3499488d5642a82df1cb16dc2cb" target="_top" xlink:title="Retrieve an ExifSRational value from memory.">
<polygon fill="white" stroke="black" points="304,-237.5 304,-256.5 408,-256.5 408,-237.5 304,-237.5"/>
<text text-anchor="middle" x="356" y="-244.5" font-family="Helvetica,sans-Serif" font-size="10.00">exif_get_srational</text>
</a>
</g>
</g>
<!-- Node1&#45;&gt;Node8 -->
<g id="edge9" class="edge">
<title>Node1&#45;&gt;Node8</title>
<path fill="none" stroke="midnightblue" d="M113.11,-231.55C164.35,-234.82 240.27,-239.67 293.34,-243.06"/>
<polygon fill="midnightblue" stroke="midnightblue" points="293.44,-246.58 303.64,-243.72 293.89,-239.59 293.44,-246.58"/>
</g>
<!-- Node9 -->
<g id="node9" class="node">
<title>Node9</title>
<g id="a_node9"><a xlink:href="exif-utils_8c.html#ac90147d0cc97bec7a577bf9576191bf8" target="_top" xlink:title="Store an ExifLong value into memory in EXIF format.">
<polygon fill="white" stroke="black" points="315,-142.5 315,-161.5 397,-161.5 397,-142.5 315,-142.5"/>
<text text-anchor="middle" x="356" y="-149.5" font-family="Helvetica,sans-Serif" font-size="10.00">exif_set_long</text>
</a>
</g>
</g>
<!-- Node1&#45;&gt;Node9 -->
<g id="edge12" class="edge">
<title>Node1&#45;&gt;Node9</title>
<path fill="none" stroke="midnightblue" d="M113.11,-213.79C169.2,-199.47 254.85,-177.58 307.75,-164.07"/>
<polygon fill="midnightblue" stroke="midnightblue" points="308.73,-167.43 317.56,-161.57 307,-160.65 308.73,-167.43"/>
</g>
<!-- Node10 -->
<g id="node10" class="node">
<title>Node10</title>
<g id="a_node10"><a xlink:href="exif-utils_8c.html#ae6e3b9d1663f9ab9bd462d73a310ca03" target="_top" xlink:title="Store an ExifSLong value into memory in EXIF format.">
<polygon fill="white" stroke="black" points="444.5,-104.5 444.5,-123.5 531.5,-123.5 531.5,-104.5 444.5,-104.5"/>
<text text-anchor="middle" x="488" y="-111.5" font-family="Helvetica,sans-Serif" font-size="10.00">exif_set_slong</text>
</a>
</g>
</g>
<!-- Node1&#45;&gt;Node10 -->
<g id="edge18" class="edge">
<title>Node1&#45;&gt;Node10</title>
<path fill="none" stroke="midnightblue" d="M66.76,-212.77C81.19,-190.62 111.33,-150.28 149,-133 242.11,-90.28 365.12,-96.93 434.15,-105.52"/>
<polygon fill="midnightblue" stroke="midnightblue" points="433.97,-109.02 444.34,-106.85 434.88,-102.08 433.97,-109.02"/>
</g>
<!-- Node11 -->
<g id="node11" class="node">
<title>Node11</title>
<g id="a_node11"><a xlink:href="exif-utils_8c.html#a400a16b1754150f721e9fca67ad89a52" target="_top" xlink:title="Store an ExifRational value into memory in EXIF format.">
<polygon fill="white" stroke="black" points="159.5,-142.5 159.5,-161.5 257.5,-161.5 257.5,-142.5 159.5,-142.5"/>
<text text-anchor="middle" x="208.5" y="-149.5" font-family="Helvetica,sans-Serif" font-size="10.00">exif_set_rational</text>
</a>
</g>
</g>
<!-- Node1&#45;&gt;Node11 -->
<g id="edge14" class="edge">
<title>Node1&#45;&gt;Node11</title>
<path fill="none" stroke="midnightblue" d="M82.28,-212.77C100.43,-201.91 125.84,-187.28 149,-176 156.58,-172.31 164.87,-168.68 172.77,-165.39"/>
<polygon fill="midnightblue" stroke="midnightblue" points="174.19,-168.59 182.14,-161.59 171.56,-162.11 174.19,-168.59"/>
</g>
<!-- Node12 -->
<g id="node12" class="node">
<title>Node12</title>
<g id="a_node12"><a xlink:href="exif-utils_8c.html#ad905d16e26b4052a1db34dbebdc37341" target="_top" xlink:title="Store an ExifShort value into memory in EXIF format.">
<polygon fill="white" stroke="black" points="165.5,-66.5 165.5,-85.5 251.5,-85.5 251.5,-66.5 165.5,-66.5"/>
<text text-anchor="middle" x="208.5" y="-73.5" font-family="Helvetica,sans-Serif" font-size="10.00">exif_set_short</text>
</a>
</g>
</g>
<!-- Node1&#45;&gt;Node12 -->
<g id="edge16" class="edge">
<title>Node1&#45;&gt;Node12</title>
<path fill="none" stroke="midnightblue" d="M64.7,-212.87C77.94,-186.54 108.53,-132.05 149,-100 154.03,-96.02 159.8,-92.61 165.73,-89.71"/>
<polygon fill="midnightblue" stroke="midnightblue" points="167.35,-92.82 175.07,-85.57 164.51,-86.42 167.35,-92.82"/>
</g>
<!-- Node13 -->
<g id="node13" class="node">
<title>Node13</title>
<g id="a_node13"><a xlink:href="exif-utils_8c.html#a6504651147702fc6db9a5cd4aa997023" target="_top" xlink:title="Store an ExifSShort value into memory in EXIF format.">
<polygon fill="white" stroke="black" points="310.5,-57.5 310.5,-76.5 401.5,-76.5 401.5,-57.5 310.5,-57.5"/>
<text text-anchor="middle" x="356" y="-64.5" font-family="Helvetica,sans-Serif" font-size="10.00">exif_set_sshort</text>
</a>
</g>
</g>
<!-- Node1&#45;&gt;Node13 -->
<g id="edge21" class="edge">
<title>Node1&#45;&gt;Node13</title>
<path fill="none" stroke="midnightblue" d="M60.26,-212.79C67.53,-177.79 90.8,-91.87 149,-57 202,-25.25 277.15,-40.84 320.5,-54.39"/>
<polygon fill="midnightblue" stroke="midnightblue" points="319.44,-57.72 330.03,-57.49 321.61,-51.06 319.44,-57.72"/>
</g>
<!-- Node14 -->
<g id="node14" class="node">
<title>Node14</title>
<g id="a_node14"><a xlink:href="exif-utils_8c.html#aca1790a72b1833dff1b0bf728052c3c5" target="_top" xlink:title="Store an ExifSRational value into memory in EXIF format.">
<polygon fill="white" stroke="black" points="304,-0.5 304,-19.5 408,-19.5 408,-0.5 304,-0.5"/>
<text text-anchor="middle" x="356" y="-7.5" font-family="Helvetica,sans-Serif" font-size="10.00">exif_set_srational</text>
</a>
</g>
</g>
<!-- Node1&#45;&gt;Node14 -->
<g id="edge19" class="edge">
<title>Node1&#45;&gt;Node14</title>
<path fill="none" stroke="midnightblue" d="M59.66,-212.73C65.83,-175.2 87.31,-78.33 149,-34 190.64,-4.08 249.7,-0.02 293.91,-2.31"/>
<polygon fill="midnightblue" stroke="midnightblue" points="293.76,-5.81 303.96,-2.95 294.2,1.18 293.76,-5.81"/>
</g>
<!-- Node3&#45;&gt;Node4 -->
<g id="edge3" class="edge">
<title>Node3&#45;&gt;Node4</title>
<path fill="none" stroke="midnightblue" d="M389.8,-370.41C406.28,-365.6 426.44,-359.7 444.13,-354.53"/>
<polygon fill="midnightblue" stroke="midnightblue" points="445.59,-357.75 454.21,-351.59 443.63,-351.03 445.59,-357.75"/>
</g>
<!-- Node5&#45;&gt;Node3 -->
<g id="edge5" class="edge">
<title>Node5&#45;&gt;Node3</title>
<path fill="none" stroke="midnightblue" d="M258.35,-380C273.11,-380 289.34,-380 304.22,-380"/>
<polygon fill="midnightblue" stroke="midnightblue" points="304.27,-383.5 314.27,-380 304.27,-376.5 304.27,-383.5"/>
</g>
<!-- Node6&#45;&gt;Node7 -->
<g id="edge7" class="edge">
<title>Node6&#45;&gt;Node7</title>
<path fill="none" stroke="midnightblue" d="M251.58,-301.4C266.59,-300.47 283.73,-299.41 299.69,-298.42"/>
<polygon fill="midnightblue" stroke="midnightblue" points="300.2,-301.9 309.96,-297.79 299.77,-294.91 300.2,-301.9"/>
</g>
<!-- Node8&#45;&gt;Node4 -->
<g id="edge10" class="edge">
<title>Node8&#45;&gt;Node4</title>
<path fill="none" stroke="midnightblue" d="M375.9,-256.7C385.73,-262 397.79,-268.92 408,-276 430.05,-291.3 453.42,-311.36 468.97,-325.34"/>
<polygon fill="midnightblue" stroke="midnightblue" points="466.99,-328.27 476.75,-332.4 471.7,-323.09 466.99,-328.27"/>
</g>
<!-- Node9&#45;&gt;Node10 -->
<g id="edge13" class="edge">
<title>Node9&#45;&gt;Node10</title>
<path fill="none" stroke="midnightblue" d="M389.8,-142.41C406.28,-137.6 426.44,-131.7 444.13,-126.53"/>
<polygon fill="midnightblue" stroke="midnightblue" points="445.59,-129.75 454.21,-123.59 443.63,-123.03 445.59,-129.75"/>
</g>
<!-- Node11&#45;&gt;Node9 -->
<g id="edge15" class="edge">
<title>Node11&#45;&gt;Node9</title>
<path fill="none" stroke="midnightblue" d="M257.55,-152C272.61,-152 289.28,-152 304.51,-152"/>
<polygon fill="midnightblue" stroke="midnightblue" points="304.78,-155.5 314.78,-152 304.78,-148.5 304.78,-155.5"/>
</g>
<!-- Node12&#45;&gt;Node13 -->
<g id="edge17" class="edge">
<title>Node12&#45;&gt;Node13</title>
<path fill="none" stroke="midnightblue" d="M251.58,-73.4C266.73,-72.46 284.05,-71.39 300.12,-70.39"/>
<polygon fill="midnightblue" stroke="midnightblue" points="300.71,-73.86 310.47,-69.75 300.28,-66.88 300.71,-73.86"/>
</g>
<!-- Node14&#45;&gt;Node10 -->
<g id="edge20" class="edge">
<title>Node14&#45;&gt;Node10</title>
<path fill="none" stroke="midnightblue" d="M370.58,-19.8C380.94,-27.36 395.52,-38.15 408,-48 428.83,-64.44 452.08,-84.02 467.93,-97.56"/>
<polygon fill="midnightblue" stroke="midnightblue" points="466.04,-100.55 475.91,-104.4 470.6,-95.24 466.04,-100.55"/>
</g>
</g>
</svg>
