<?xml version="1.0" encoding="UTF-8" standalone="no"?>
<!DOCTYPE svg PUBLIC "-//W3C//DTD SVG 1.1//EN"
 "http://www.w3.org/Graphics/SVG/1.1/DTD/svg11.dtd">
<!-- Generated by graphviz version 7.0.1 (0)
 -->
<!-- Title: exif_content_add_entry Pages: 1 -->
<svg width="785pt" height="193pt"
 viewBox="0.00 0.00 785.00 193.00" xmlns="http://www.w3.org/2000/svg" xmlns:xlink="http://www.w3.org/1999/xlink">
<g id="graph0" class="graph" transform="scale(1 1) rotate(0) translate(4 189)">
<title>exif_content_add_entry</title>
<!-- Node1 -->
<g id="Node000001" class="node">
<title>Node1</title>
<g id="a_Node000001"><a xlink:title="Add an EXIF tag to an IFD.">
<polygon fill="#999999" stroke="#666666" points="131,-111 0,-111 0,-92 131,-92 131,-111"/>
<text text-anchor="middle" x="65.5" y="-99" font-family="Helvetica,sans-Serif" font-size="10.00">exif_content_add_entry</text>
</a>
</g>
</g>
<!-- Node2 -->
<g id="Node000002" class="node">
<title>Node2</title>
<g id="a_Node000002"><a xlink:href="exif-content_8c.html#a5d98a5c58c31b49691694b010b29117d" target="_top" xlink:title="Return the ExifEntry in this IFD corresponding to the given tag.">
<polygon fill="white" stroke="#666666" points="296,-185 167,-185 167,-166 296,-166 296,-185"/>
<text text-anchor="middle" x="231.5" y="-173" font-family="Helvetica,sans-Serif" font-size="10.00">exif_content_get_entry</text>
</a>
</g>
</g>
<!-- Node1&#45;&gt;Node2 -->
<g id="edge1_Node000001_Node000002" class="edge">
<title>Node1&#45;&gt;Node2</title>
<g id="a_edge1_Node000001_Node000002"><a xlink:title=" ">
<path fill="none" stroke="#63b8ff" d="M81.61,-111.39C100.8,-123.6 135.25,-144.37 167,-157.5 171,-159.15 175.19,-160.71 179.45,-162.16"/>
<polygon fill="#63b8ff" stroke="#63b8ff" points="178.01,-165.38 188.61,-165.1 180.15,-158.71 178.01,-165.38"/>
</a>
</g>
</g>
<!-- Node3 -->
<g id="Node000003" class="node">
<title>Node3</title>
<g id="a_Node000003"><a xlink:href="exif-entry_8c.html#afd537c2d20109a1ee3923584e969d3d7" target="_top" xlink:title="Increase reference counter for ExifEntry.">
<polygon fill="white" stroke="#666666" points="274,-148 189,-148 189,-129 274,-129 274,-148"/>
<text text-anchor="middle" x="231.5" y="-136" font-family="Helvetica,sans-Serif" font-size="10.00">exif_entry_ref</text>
</a>
</g>
</g>
<!-- Node1&#45;&gt;Node3 -->
<g id="edge2_Node000001_Node000003" class="edge">
<title>Node1&#45;&gt;Node3</title>
<g id="a_edge2_Node000001_Node000003"><a xlink:title=" ">
<path fill="none" stroke="#63b8ff" d="M110.45,-111.42C131.13,-116.08 155.97,-121.68 177.67,-126.58"/>
<polygon fill="#63b8ff" stroke="#63b8ff" points="176.69,-129.95 187.22,-128.73 178.23,-123.12 176.69,-129.95"/>
</a>
</g>
</g>
<!-- Node4 -->
<g id="Node000004" class="node">
<title>Node4</title>
<g id="a_Node000004"><a xlink:href="exif-log_8c.html#a025d4a5d96544913ea6f6ebbec69cb68" target="_top" xlink:title=" ">
<polygon fill="white" stroke="#666666" points="259.5,-111 203.5,-111 203.5,-92 259.5,-92 259.5,-111"/>
<text text-anchor="middle" x="231.5" y="-99" font-family="Helvetica,sans-Serif" font-size="10.00">exif_log</text>
</a>
</g>
</g>
<!-- Node1&#45;&gt;Node4 -->
<g id="edge3_Node000001_Node000004" class="edge">
<title>Node1&#45;&gt;Node4</title>
<g id="a_edge3_Node000001_Node000004"><a xlink:title=" ">
<path fill="none" stroke="#63b8ff" d="M131.32,-101.5C151.88,-101.5 173.96,-101.5 192.05,-101.5"/>
<polygon fill="#63b8ff" stroke="#63b8ff" points="191.79,-105 201.79,-101.5 191.79,-98 191.79,-105"/>
</a>
</g>
</g>
<!-- Node6 -->
<g id="Node000006" class="node">
<title>Node6</title>
<g id="a_Node000006"><a xlink:href="exif-mem_8c.html#a7302da5374a74202e03a781b7c4b7ebe" target="_top" xlink:title=" ">
<polygon fill="white" stroke="#666666" points="283.5,-74 179.5,-74 179.5,-55 283.5,-55 283.5,-74"/>
<text text-anchor="middle" x="231.5" y="-62" font-family="Helvetica,sans-Serif" font-size="10.00">exif_mem_realloc</text>
</a>
</g>
</g>
<!-- Node1&#45;&gt;Node6 -->
<g id="edge5_Node000001_Node000006" class="edge">
<title>Node1&#45;&gt;Node6</title>
<g id="a_edge5_Node000001_Node000006"><a xlink:title=" ">
<path fill="none" stroke="#63b8ff" d="M110.45,-91.58C130.39,-87.08 154.2,-81.71 175.33,-76.95"/>
<polygon fill="#63b8ff" stroke="#63b8ff" points="175.97,-80.39 184.95,-74.78 174.43,-73.56 175.97,-80.39"/>
</a>
</g>
</g>
<!-- Node7 -->
<g id="Node000007" class="node">
<title>Node7</title>
<g id="a_Node000007"><a xlink:href="exif-tag_8c.html#aad15f6b821d77857c42c1514ba8bf930" target="_top" xlink:title=" ">
<polygon fill="white" stroke="#666666" points="286.5,-37 176.5,-37 176.5,-18 286.5,-18 286.5,-37"/>
<text text-anchor="middle" x="231.5" y="-25" font-family="Helvetica,sans-Serif" font-size="10.00">exif_tag_get_name</text>
</a>
</g>
</g>
<!-- Node1&#45;&gt;Node7 -->
<g id="edge6_Node000001_Node000007" class="edge">
<title>Node1&#45;&gt;Node7</title>
<g id="a_edge6_Node000001_Node000007"><a xlink:title=" ">
<path fill="none" stroke="#63b8ff" d="M82,-91.67C101.32,-79.75 135.62,-59.61 167,-46.5 171.67,-44.55 176.6,-42.71 181.57,-41"/>
<polygon fill="#63b8ff" stroke="#63b8ff" points="182.57,-44.36 191,-37.94 180.4,-37.7 182.57,-44.36"/>
</a>
</g>
</g>
<!-- Node5 -->
<g id="Node000005" class="node">
<title>Node5</title>
<g id="a_Node000005"><a xlink:href="exif-log_8c.html#a99101b5ad01b2d82ce9d43c9e8534627" target="_top" xlink:title=" ">
<polygon fill="white" stroke="#666666" points="434.5,-111 372.5,-111 372.5,-92 434.5,-92 434.5,-111"/>
<text text-anchor="middle" x="403.5" y="-99" font-family="Helvetica,sans-Serif" font-size="10.00">exif_logv</text>
</a>
</g>
</g>
<!-- Node4&#45;&gt;Node5 -->
<g id="edge4_Node000004_Node000005" class="edge">
<title>Node4&#45;&gt;Node5</title>
<g id="a_edge4_Node000004_Node000005"><a xlink:title=" ">
<path fill="none" stroke="#63b8ff" d="M259.81,-101.5C287.03,-101.5 329.18,-101.5 360.62,-101.5"/>
<polygon fill="#63b8ff" stroke="#63b8ff" points="360.58,-105 370.58,-101.5 360.58,-98 360.58,-105"/>
</a>
</g>
</g>
<!-- Node8 -->
<g id="Node000008" class="node">
<title>Node8</title>
<g id="a_Node000008"><a xlink:href="exif-tag_8c.html#a6b4f26f6f8f243e1f8a9e123b9cca589" target="_top" xlink:title="Return a textual name of the given tag when found in the given IFD.">
<polygon fill="white" stroke="#666666" points="475,-56 332,-56 332,-37 475,-37 475,-56"/>
<text text-anchor="middle" x="403.5" y="-44" font-family="Helvetica,sans-Serif" font-size="10.00">exif_tag_get_name_in_ifd</text>
</a>
</g>
</g>
<!-- Node7&#45;&gt;Node8 -->
<g id="edge7_Node000007_Node000008" class="edge">
<title>Node7&#45;&gt;Node8</title>
<g id="a_edge7_Node000007_Node000008"><a xlink:title=" ">
<path fill="none" stroke="#63b8ff" d="M286.76,-33.56C297.47,-34.76 308.94,-36.04 320.33,-37.32"/>
<polygon fill="#63b8ff" stroke="#63b8ff" points="319.85,-40.78 330.17,-38.42 320.63,-33.83 319.85,-40.78"/>
</a>
</g>
</g>
<!-- Node12 -->
<g id="Node000012" class="node">
<title>Node12</title>
<g id="a_Node000012"><a xlink:href="exif-tag_8c.html#a51b998fa5d181e968cdd4cc2666150e2" target="_top" xlink:title=" ">
<polygon fill="white" stroke="#666666" points="456,-19 351,-19 351,0 456,0 456,-19"/>
<text text-anchor="middle" x="403.5" y="-7" font-family="Helvetica,sans-Serif" font-size="10.00">exif_tag_get_stuff</text>
</a>
</g>
</g>
<!-- Node7&#45;&gt;Node12 -->
<g id="edge11_Node000007_Node000012" class="edge">
<title>Node7&#45;&gt;Node12</title>
<g id="a_edge11_Node000007_Node000012"><a xlink:title=" ">
<path fill="none" stroke="#63b8ff" d="M286.76,-21.76C303.58,-19.97 322.25,-18 339.6,-16.16"/>
<polygon fill="#63b8ff" stroke="#63b8ff" points="339.7,-19.67 349.28,-15.14 338.97,-12.71 339.7,-19.67"/>
</a>
</g>
</g>
<!-- Node9 -->
<g id="Node000009" class="node">
<title>Node9</title>
<g id="a_Node000009"><a xlink:href="exif-tag_8c.html#a389f8ff3411e0525b28367892f1e78d3" target="_top" xlink:title="Finds the first entry in the EXIF tag table with the given tag number using a binary search.">
<polygon fill="white" stroke="#666666" points="622,-56 511,-56 511,-37 622,-37 622,-56"/>
<text text-anchor="middle" x="566.5" y="-44" font-family="Helvetica,sans-Serif" font-size="10.00">exif_tag_table_first</text>
</a>
</g>
</g>
<!-- Node8&#45;&gt;Node9 -->
<g id="edge8_Node000008_Node000009" class="edge">
<title>Node8&#45;&gt;Node9</title>
<g id="a_edge8_Node000008_Node000009"><a xlink:title=" ">
<path fill="none" stroke="#63b8ff" d="M475.12,-46.5C483.27,-46.5 491.56,-46.5 499.65,-46.5"/>
<polygon fill="#63b8ff" stroke="#63b8ff" points="499.4,-50 509.4,-46.5 499.4,-43 499.4,-50"/>
</a>
</g>
</g>
<!-- Node10 -->
<g id="Node000010" class="node">
<title>Node10</title>
<g id="a_Node000010"><a xlink:href="exif-tag_8c.html#a87563ee64809f5f0deb4d780098508c1" target="_top" xlink:title="Return the number of entries in the EXIF tag table, including the terminating NULL entry.">
<polygon fill="white" stroke="#666666" points="777,-75 658,-75 658,-56 777,-56 777,-75"/>
<text text-anchor="middle" x="717.5" y="-63" font-family="Helvetica,sans-Serif" font-size="10.00">exif_tag_table_count</text>
</a>
</g>
</g>
<!-- Node9&#45;&gt;Node10 -->
<g id="edge9_Node000009_Node000010" class="edge">
<title>Node9&#45;&gt;Node10</title>
<g id="a_edge9_Node000009_Node000010"><a xlink:title=" ">
<path fill="none" stroke="#63b8ff" d="M622.14,-53.47C629.98,-54.47 638.15,-55.51 646.24,-56.54"/>
<polygon fill="#63b8ff" stroke="#63b8ff" points="645.74,-60.01 656.1,-57.8 646.63,-53.06 645.74,-60.01"/>
</a>
</g>
</g>
<!-- Node11 -->
<g id="Node000011" class="node">
<title>Node11</title>
<g id="a_Node000011"><a xlink:href="exif-tag_8c.html#a220c1b18832f113bc84ff9551754915f" target="_top" xlink:title="Compares the tag with that in entry.">
<polygon fill="white" stroke="#666666" points="751.5,-38 683.5,-38 683.5,-19 751.5,-19 751.5,-38"/>
<text text-anchor="middle" x="717.5" y="-26" font-family="Helvetica,sans-Serif" font-size="10.00">match_tag</text>
</a>
</g>
</g>
<!-- Node9&#45;&gt;Node11 -->
<g id="edge10_Node000009_Node000011" class="edge">
<title>Node9&#45;&gt;Node11</title>
<g id="a_edge10_Node000009_Node000011"><a xlink:title=" ">
<path fill="none" stroke="#63b8ff" d="M622.14,-39.9C638.58,-37.91 656.41,-35.76 672.1,-33.86"/>
<polygon fill="#63b8ff" stroke="#63b8ff" points="672.09,-37.39 681.6,-32.72 671.25,-30.44 672.09,-37.39"/>
</a>
</g>
</g>
</g>
</svg>
