<?xml version="1.0" encoding="UTF-8" standalone="no"?>
<!DOCTYPE svg PUBLIC "-//W3C//DTD SVG 1.1//EN"
 "http://www.w3.org/Graphics/SVG/1.1/DTD/svg11.dtd">
<!-- Generated by graphviz version 7.0.1 (0)
 -->
<!-- Title: cmp_func Pages: 1 -->
<svg width="322pt" height="27pt"
 viewBox="0.00 0.00 322.00 27.00" xmlns="http://www.w3.org/2000/svg" xmlns:xlink="http://www.w3.org/1999/xlink">
<g id="graph0" class="graph" transform="scale(1 1) rotate(0) translate(4 23)">
<title>cmp_func</title>
<!-- Node1 -->
<g id="Node000001" class="node">
<title>Node1</title>
<g id="a_Node000001"><a xlink:title=" ">
<polygon fill="#999999" stroke="#666666" points="64,-19 0,-19 0,0 64,0 64,-19"/>
<text text-anchor="middle" x="32" y="-7" font-family="Helvetica,sans-Serif" font-size="10.00">cmp_func</text>
</a>
</g>
</g>
<!-- Node2 -->
<g id="Node000002" class="node">
<title>Node2</title>
<g id="a_Node000002"><a xlink:href="exif-utils_8c.html#a4b4acf537a8c6b9405e7b53be868e4d7" target="_top" xlink:title="Retrieve an ExifShort value from memory.">
<polygon fill="white" stroke="#666666" points="186,-19 100,-19 100,0 186,0 186,-19"/>
<text text-anchor="middle" x="143" y="-7" font-family="Helvetica,sans-Serif" font-size="10.00">exif_get_short</text>
</a>
</g>
</g>
<!-- Node1&#45;&gt;Node2 -->
<g id="edge1_Node000001_Node000002" class="edge">
<title>Node1&#45;&gt;Node2</title>
<g id="a_edge1_Node000001_Node000002"><a xlink:title=" ">
<path fill="none" stroke="#63b8ff" d="M64.24,-9.5C71.85,-9.5 80.2,-9.5 88.53,-9.5"/>
<polygon fill="#63b8ff" stroke="#63b8ff" points="88.28,-13 98.28,-9.5 88.28,-6 88.28,-13"/>
</a>
</g>
</g>
<!-- Node3 -->
<g id="Node000003" class="node">
<title>Node3</title>
<g id="a_Node000003"><a xlink:href="exif-utils_8c.html#a6baf094a71392f9cea23ad633ec13c8b" target="_top" xlink:title="Retrieve an ExifSShort value from memory.">
<polygon fill="white" stroke="#666666" points="314,-19 222,-19 222,0 314,0 314,-19"/>
<text text-anchor="middle" x="268" y="-7" font-family="Helvetica,sans-Serif" font-size="10.00">exif_get_sshort</text>
</a>
</g>
</g>
<!-- Node2&#45;&gt;Node3 -->
<g id="edge2_Node000002_Node000003" class="edge">
<title>Node2&#45;&gt;Node3</title>
<g id="a_edge2_Node000002_Node000003"><a xlink:title=" ">
<path fill="none" stroke="#63b8ff" d="M186.33,-9.5C194.08,-9.5 202.27,-9.5 210.36,-9.5"/>
<polygon fill="#63b8ff" stroke="#63b8ff" points="210.14,-13 220.14,-9.5 210.14,-6 210.14,-13"/>
</a>
</g>
</g>
</g>
</svg>
