<?xml version="1.0" encoding="UTF-8" standalone="no"?>
<!DOCTYPE svg PUBLIC "-//W3C//DTD SVG 1.1//EN"
 "http://www.w3.org/Graphics/SVG/1.1/DTD/svg11.dtd">
<!-- Generated by graphviz version 2.44.1 (0)
 -->
<!-- Title: libexif/exif&#45;content.c Pages: 1 -->
<svg width="658pt" height="431pt"
 viewBox="0.00 0.00 657.50 431.00" xmlns="http://www.w3.org/2000/svg" xmlns:xlink="http://www.w3.org/1999/xlink">
<g id="graph0" class="graph" transform="scale(1 1) rotate(0) translate(4 427)">
<title>libexif/exif&#45;content.c</title>
<polygon fill="white" stroke="transparent" points="-4,4 -4,-427 653.5,-427 653.5,4 -4,4"/>
<!-- Node1 -->
<g id="node1" class="node">
<title>Node1</title>
<g id="a_node1"><a xlink:title=" ">
<polygon fill="#bfbfbf" stroke="black" points="373,-403.5 373,-422.5 489,-422.5 489,-403.5 373,-403.5"/>
<text text-anchor="middle" x="431" y="-410.5" font-family="Helvetica,sans-Serif" font-size="10.00">libexif/exif&#45;content.c</text>
</a>
</g>
</g>
<!-- Node2 -->
<g id="node2" class="node">
<title>Node2</title>
<g id="a_node2"><a xlink:title=" ">
<polygon fill="white" stroke="#bfbfbf" points="112,-347.5 112,-366.5 168,-366.5 168,-347.5 112,-347.5"/>
<text text-anchor="middle" x="140" y="-354.5" font-family="Helvetica,sans-Serif" font-size="10.00">config.h</text>
</a>
</g>
</g>
<!-- Node1&#45;&gt;Node2 -->
<g id="edge1" class="edge">
<title>Node1&#45;&gt;Node2</title>
<path fill="none" stroke="midnightblue" d="M377.29,-403.5C327.97,-395.46 252.63,-382.61 178.25,-367.16"/>
<polygon fill="midnightblue" stroke="midnightblue" points="178.75,-363.69 168.24,-365.06 177.31,-370.54 178.75,-363.69"/>
</g>
<!-- Node3 -->
<g id="node3" class="node">
<title>Node3</title>
<g id="a_node3"><a xlink:href="exif-content_8h.html" target="_top" xlink:title="Handling EXIF IFDs.">
<polygon fill="white" stroke="black" points="186.5,-347.5 186.5,-366.5 303.5,-366.5 303.5,-347.5 186.5,-347.5"/>
<text text-anchor="middle" x="245" y="-354.5" font-family="Helvetica,sans-Serif" font-size="10.00">libexif/exif&#45;content.h</text>
</a>
</g>
</g>
<!-- Node1&#45;&gt;Node3 -->
<g id="edge2" class="edge">
<title>Node1&#45;&gt;Node3</title>
<path fill="none" stroke="midnightblue" d="M401.53,-403.44C369.83,-394.24 319.27,-379.56 284.23,-369.39"/>
<polygon fill="midnightblue" stroke="midnightblue" points="284.91,-365.94 274.33,-366.52 282.96,-372.67 284.91,-365.94"/>
</g>
<!-- Node17 -->
<g id="node17" class="node">
<title>Node17</title>
<g id="a_node17"><a xlink:href="exif-system_8h.html" target="_top" xlink:title="System specific definitions, not for installation!">
<polygon fill="white" stroke="black" points="322,-347.5 322,-366.5 438,-366.5 438,-347.5 322,-347.5"/>
<text text-anchor="middle" x="380" y="-354.5" font-family="Helvetica,sans-Serif" font-size="10.00">libexif/exif&#45;system.h</text>
</a>
</g>
</g>
<!-- Node1&#45;&gt;Node17 -->
<g id="edge28" class="edge">
<title>Node1&#45;&gt;Node17</title>
<path fill="none" stroke="midnightblue" d="M422.58,-403.08C415.15,-395.22 404.15,-383.57 395.19,-374.08"/>
<polygon fill="midnightblue" stroke="midnightblue" points="397.68,-371.62 388.26,-366.75 392.59,-376.42 397.68,-371.62"/>
</g>
<!-- Node18 -->
<g id="node18" class="node">
<title>Node18</title>
<g id="a_node18"><a xlink:title=" ">
<polygon fill="white" stroke="#bfbfbf" points="456.5,-347.5 456.5,-366.5 509.5,-366.5 509.5,-347.5 456.5,-347.5"/>
<text text-anchor="middle" x="483" y="-354.5" font-family="Helvetica,sans-Serif" font-size="10.00">stdlib.h</text>
</a>
</g>
</g>
<!-- Node1&#45;&gt;Node18 -->
<g id="edge29" class="edge">
<title>Node1&#45;&gt;Node18</title>
<path fill="none" stroke="midnightblue" d="M439.59,-403.08C447.16,-395.22 458.38,-383.57 467.51,-374.08"/>
<polygon fill="midnightblue" stroke="midnightblue" points="470.16,-376.38 474.57,-366.75 465.12,-371.53 470.16,-376.38"/>
</g>
<!-- Node19 -->
<g id="node19" class="node">
<title>Node19</title>
<g id="a_node19"><a xlink:title=" ">
<polygon fill="white" stroke="#bfbfbf" points="528,-347.5 528,-366.5 578,-366.5 578,-347.5 528,-347.5"/>
<text text-anchor="middle" x="553" y="-354.5" font-family="Helvetica,sans-Serif" font-size="10.00">stdio.h</text>
</a>
</g>
</g>
<!-- Node1&#45;&gt;Node19 -->
<g id="edge30" class="edge">
<title>Node1&#45;&gt;Node19</title>
<path fill="none" stroke="midnightblue" d="M450.33,-403.44C470.32,-394.6 501.74,-380.69 524.56,-370.59"/>
<polygon fill="midnightblue" stroke="midnightblue" points="526.03,-373.76 533.76,-366.52 523.2,-367.36 526.03,-373.76"/>
</g>
<!-- Node20 -->
<g id="node20" class="node">
<title>Node20</title>
<g id="a_node20"><a xlink:title=" ">
<polygon fill="white" stroke="#bfbfbf" points="596.5,-347.5 596.5,-366.5 649.5,-366.5 649.5,-347.5 596.5,-347.5"/>
<text text-anchor="middle" x="623" y="-354.5" font-family="Helvetica,sans-Serif" font-size="10.00">string.h</text>
</a>
</g>
</g>
<!-- Node1&#45;&gt;Node20 -->
<g id="edge31" class="edge">
<title>Node1&#45;&gt;Node20</title>
<path fill="none" stroke="midnightblue" d="M461.42,-403.44C495.44,-393.87 550.51,-378.39 586.74,-368.2"/>
<polygon fill="midnightblue" stroke="midnightblue" points="587.75,-371.55 596.43,-365.47 585.86,-364.81 587.75,-371.55"/>
</g>
<!-- Node4 -->
<g id="node4" class="node">
<title>Node4</title>
<g id="a_node4"><a xlink:href="exif-tag_8h.html" target="_top" xlink:title="Handling EXIF tags.">
<polygon fill="white" stroke="black" points="197,-230 197,-249 293,-249 293,-230 197,-230"/>
<text text-anchor="middle" x="245" y="-237" font-family="Helvetica,sans-Serif" font-size="10.00">libexif/exif&#45;tag.h</text>
</a>
</g>
</g>
<!-- Node3&#45;&gt;Node4 -->
<g id="edge3" class="edge">
<title>Node3&#45;&gt;Node4</title>
<path fill="none" stroke="midnightblue" d="M245,-347.32C245,-328.76 245,-284.84 245,-259.47"/>
<polygon fill="midnightblue" stroke="midnightblue" points="248.5,-259.28 245,-249.28 241.5,-259.28 248.5,-259.28"/>
</g>
<!-- Node7 -->
<g id="node7" class="node">
<title>Node7</title>
<g id="a_node7"><a xlink:href="exif-entry_8h.html" target="_top" xlink:title="Handling EXIF entries.">
<polygon fill="white" stroke="black" points="0,-291.5 0,-310.5 104,-310.5 104,-291.5 0,-291.5"/>
<text text-anchor="middle" x="52" y="-298.5" font-family="Helvetica,sans-Serif" font-size="10.00">libexif/exif&#45;entry.h</text>
</a>
</g>
</g>
<!-- Node3&#45;&gt;Node7 -->
<g id="edge6" class="edge">
<title>Node3&#45;&gt;Node7</title>
<path fill="none" stroke="midnightblue" d="M209.33,-347.44C174.42,-338.24 121.78,-323.56 87.08,-313.39"/>
<polygon fill="midnightblue" stroke="midnightblue" points="87.94,-309.99 77.36,-310.52 85.96,-316.71 87.94,-309.99"/>
</g>
<!-- Node9 -->
<g id="node9" class="node">
<title>Node9</title>
<g id="a_node9"><a xlink:href="exif-mem_8h.html" target="_top" xlink:title="Define the ExifMem data type and the associated functions.">
<polygon fill="white" stroke="black" points="219,-112.5 219,-131.5 325,-131.5 325,-112.5 219,-112.5"/>
<text text-anchor="middle" x="272" y="-119.5" font-family="Helvetica,sans-Serif" font-size="10.00">libexif/exif&#45;mem.h</text>
</a>
</g>
</g>
<!-- Node3&#45;&gt;Node9 -->
<g id="edge27" class="edge">
<title>Node3&#45;&gt;Node9</title>
<path fill="none" stroke="midnightblue" d="M233.82,-347.3C199.7,-319.7 101.92,-232.14 147,-168 161.22,-147.77 185.44,-136.6 208.8,-130.44"/>
<polygon fill="midnightblue" stroke="midnightblue" points="209.8,-133.8 218.73,-128.09 208.19,-126.98 209.8,-133.8"/>
</g>
<!-- Node13 -->
<g id="node13" class="node">
<title>Node13</title>
<g id="a_node13"><a xlink:href="exif-data_8h.html" target="_top" xlink:title="Defines the ExifData type and the associated functions.">
<polygon fill="white" stroke="black" points="308,-291.5 308,-310.5 410,-310.5 410,-291.5 308,-291.5"/>
<text text-anchor="middle" x="359" y="-298.5" font-family="Helvetica,sans-Serif" font-size="10.00">libexif/exif&#45;data.h</text>
</a>
</g>
</g>
<!-- Node3&#45;&gt;Node13 -->
<g id="edge14" class="edge">
<title>Node3&#45;&gt;Node13</title>
<path fill="none" stroke="midnightblue" d="M258.2,-347.32C274.91,-338.51 303.71,-324.75 326.35,-314.71"/>
<polygon fill="midnightblue" stroke="midnightblue" points="327.86,-317.87 335.62,-310.65 325.05,-311.45 327.86,-317.87"/>
</g>
<!-- Node14 -->
<g id="node14" class="node">
<title>Node14</title>
<g id="a_node14"><a xlink:href="exif-log_8h.html" target="_top" xlink:title="Log message infrastructure.">
<polygon fill="white" stroke="black" points="534.5,-168.5 534.5,-187.5 629.5,-187.5 629.5,-168.5 534.5,-168.5"/>
<text text-anchor="middle" x="582" y="-175.5" font-family="Helvetica,sans-Serif" font-size="10.00">libexif/exif&#45;log.h</text>
</a>
</g>
</g>
<!-- Node3&#45;&gt;Node14 -->
<g id="edge26" class="edge">
<title>Node3&#45;&gt;Node14</title>
<path fill="none" stroke="midnightblue" d="M287.94,-347.46C381.84,-328.37 598.68,-281.79 619,-255 633.33,-236.11 614.83,-210.79 599.24,-194.68"/>
<polygon fill="midnightblue" stroke="midnightblue" points="601.57,-192.07 591.97,-187.59 596.68,-197.08 601.57,-192.07"/>
</g>
<!-- Node5 -->
<g id="node5" class="node">
<title>Node5</title>
<g id="a_node5"><a xlink:href="exif-ifd_8h.html" target="_top" xlink:title=" ">
<polygon fill="white" stroke="black" points="156.5,-168.5 156.5,-187.5 249.5,-187.5 249.5,-168.5 156.5,-168.5"/>
<text text-anchor="middle" x="203" y="-175.5" font-family="Helvetica,sans-Serif" font-size="10.00">libexif/exif&#45;ifd.h</text>
</a>
</g>
</g>
<!-- Node4&#45;&gt;Node5 -->
<g id="edge4" class="edge">
<title>Node4&#45;&gt;Node5</title>
<path fill="none" stroke="midnightblue" d="M238.98,-229.98C232.74,-221.14 222.83,-207.09 214.98,-195.98"/>
<polygon fill="midnightblue" stroke="midnightblue" points="217.63,-193.66 209.01,-187.51 211.91,-197.7 217.63,-193.66"/>
</g>
<!-- Node6 -->
<g id="node6" class="node">
<title>Node6</title>
<g id="a_node6"><a xlink:href="exif-data-type_8h.html" target="_top" xlink:title=" ">
<polygon fill="white" stroke="black" points="268,-168.5 268,-187.5 396,-187.5 396,-168.5 268,-168.5"/>
<text text-anchor="middle" x="332" y="-175.5" font-family="Helvetica,sans-Serif" font-size="10.00">libexif/exif&#45;data&#45;type.h</text>
</a>
</g>
</g>
<!-- Node4&#45;&gt;Node6 -->
<g id="edge5" class="edge">
<title>Node4&#45;&gt;Node6</title>
<path fill="none" stroke="midnightblue" d="M257.46,-229.98C271.42,-220.43 294.26,-204.81 310.99,-193.37"/>
<polygon fill="midnightblue" stroke="midnightblue" points="313.28,-196.04 319.56,-187.51 309.33,-190.27 313.28,-196.04"/>
</g>
<!-- Node7&#45;&gt;Node3 -->
<g id="edge7" class="edge">
<title>Node7&#45;&gt;Node3</title>
<path fill="none" stroke="midnightblue" d="M87.52,-310.52C122.38,-319.7 175.02,-334.38 209.77,-344.57"/>
<polygon fill="midnightblue" stroke="midnightblue" points="208.93,-347.97 219.51,-347.44 210.91,-341.25 208.93,-347.97"/>
</g>
<!-- Node8 -->
<g id="node8" class="node">
<title>Node8</title>
<g id="a_node8"><a xlink:href="exif-format_8h.html" target="_top" xlink:title="Handling native EXIF data types.">
<polygon fill="white" stroke="black" points="15.5,-0.5 15.5,-19.5 128.5,-19.5 128.5,-0.5 15.5,-0.5"/>
<text text-anchor="middle" x="72" y="-7.5" font-family="Helvetica,sans-Serif" font-size="10.00">libexif/exif&#45;format.h</text>
</a>
</g>
</g>
<!-- Node7&#45;&gt;Node8 -->
<g id="edge8" class="edge">
<title>Node7&#45;&gt;Node8</title>
<path fill="none" stroke="midnightblue" d="M52,-291.49C52,-271.74 52,-221.22 52,-179 52,-179 52,-179 52,-121 52,-88.44 60.59,-51.32 66.51,-29.59"/>
<polygon fill="midnightblue" stroke="midnightblue" points="69.94,-30.32 69.3,-19.74 63.21,-28.41 69.94,-30.32"/>
</g>
<!-- Node7&#45;&gt;Node9 -->
<g id="edge9" class="edge">
<title>Node7&#45;&gt;Node9</title>
<path fill="none" stroke="midnightblue" d="M55.05,-291.18C64.45,-264.5 93.55,-185.38 114,-168 140.37,-145.58 177.25,-134.3 208.75,-128.64"/>
<polygon fill="midnightblue" stroke="midnightblue" points="209.46,-132.07 218.76,-127 208.33,-125.17 209.46,-132.07"/>
</g>
<!-- Node10 -->
<g id="node10" class="node">
<title>Node10</title>
<g id="a_node10"><a xlink:href="exif-utils_8h.html" target="_top" xlink:title="EXIF data manipulation functions and types.">
<polygon fill="white" stroke="black" points="221.5,-56.5 221.5,-75.5 322.5,-75.5 322.5,-56.5 221.5,-56.5"/>
<text text-anchor="middle" x="272" y="-63.5" font-family="Helvetica,sans-Serif" font-size="10.00">libexif/exif&#45;utils.h</text>
</a>
</g>
</g>
<!-- Node9&#45;&gt;Node10 -->
<g id="edge10" class="edge">
<title>Node9&#45;&gt;Node10</title>
<path fill="none" stroke="midnightblue" d="M272,-112.08C272,-105.01 272,-94.86 272,-85.99"/>
<polygon fill="midnightblue" stroke="midnightblue" points="275.5,-85.75 272,-75.75 268.5,-85.75 275.5,-85.75"/>
</g>
<!-- Node10&#45;&gt;Node8 -->
<g id="edge12" class="edge">
<title>Node10&#45;&gt;Node8</title>
<path fill="none" stroke="midnightblue" d="M240.31,-56.44C205.93,-47.16 150.92,-32.31 113.21,-22.13"/>
<polygon fill="midnightblue" stroke="midnightblue" points="114.11,-18.74 103.54,-19.52 112.28,-25.5 114.11,-18.74"/>
</g>
<!-- Node11 -->
<g id="node11" class="node">
<title>Node11</title>
<g id="a_node11"><a xlink:href="exif-byte-order_8h.html" target="_top" xlink:title="Defines the ExifByteOrder enum and the associated functions.">
<polygon fill="white" stroke="black" points="376.5,-0.5 376.5,-19.5 507.5,-19.5 507.5,-0.5 376.5,-0.5"/>
<text text-anchor="middle" x="442" y="-7.5" font-family="Helvetica,sans-Serif" font-size="10.00">libexif/exif&#45;byte&#45;order.h</text>
</a>
</g>
</g>
<!-- Node10&#45;&gt;Node11 -->
<g id="edge11" class="edge">
<title>Node10&#45;&gt;Node11</title>
<path fill="none" stroke="midnightblue" d="M298.94,-56.44C327.66,-47.32 373.33,-32.81 405.32,-22.65"/>
<polygon fill="midnightblue" stroke="midnightblue" points="406.72,-25.88 415.19,-19.52 404.6,-19.21 406.72,-25.88"/>
</g>
<!-- Node12 -->
<g id="node12" class="node">
<title>Node12</title>
<g id="a_node12"><a xlink:title=" ">
<polygon fill="white" stroke="#bfbfbf" points="226,-0.5 226,-19.5 318,-19.5 318,-0.5 226,-0.5"/>
<text text-anchor="middle" x="272" y="-7.5" font-family="Helvetica,sans-Serif" font-size="10.00">libexif/_stdint.h</text>
</a>
</g>
</g>
<!-- Node10&#45;&gt;Node12 -->
<g id="edge13" class="edge">
<title>Node10&#45;&gt;Node12</title>
<path fill="none" stroke="midnightblue" d="M272,-56.08C272,-49.01 272,-38.86 272,-29.99"/>
<polygon fill="midnightblue" stroke="midnightblue" points="275.5,-29.75 272,-19.75 268.5,-29.75 275.5,-29.75"/>
</g>
<!-- Node13&#45;&gt;Node3 -->
<g id="edge22" class="edge">
<title>Node13&#45;&gt;Node3</title>
<path fill="none" stroke="midnightblue" d="M346.1,-310.52C329.4,-319.35 300.29,-333.26 277.48,-343.37"/>
<polygon fill="midnightblue" stroke="midnightblue" points="275.92,-340.23 268.15,-347.44 278.72,-346.65 275.92,-340.23"/>
</g>
<!-- Node13&#45;&gt;Node4 -->
<g id="edge21" class="edge">
<title>Node13&#45;&gt;Node4</title>
<path fill="none" stroke="midnightblue" d="M342.67,-291.48C323.79,-281.62 292.49,-265.29 270.42,-253.77"/>
<polygon fill="midnightblue" stroke="midnightblue" points="271.79,-250.53 261.3,-249.01 268.55,-256.74 271.79,-250.53"/>
</g>
<!-- Node13&#45;&gt;Node5 -->
<g id="edge17" class="edge">
<title>Node13&#45;&gt;Node5</title>
<path fill="none" stroke="midnightblue" d="M354.46,-291.36C345.99,-275.99 326.43,-243.63 302,-224 283.87,-209.43 260.27,-198.46 240.65,-191"/>
<polygon fill="midnightblue" stroke="midnightblue" points="241.69,-187.66 231.1,-187.52 239.3,-194.24 241.69,-187.66"/>
</g>
<!-- Node13&#45;&gt;Node6 -->
<g id="edge16" class="edge">
<title>Node13&#45;&gt;Node6</title>
<path fill="none" stroke="midnightblue" d="M357.06,-291.3C352.7,-271.76 342.06,-224.06 336.14,-197.55"/>
<polygon fill="midnightblue" stroke="midnightblue" points="339.52,-196.62 333.92,-187.62 332.69,-198.15 339.52,-196.62"/>
</g>
<!-- Node13&#45;&gt;Node9 -->
<g id="edge25" class="edge">
<title>Node13&#45;&gt;Node9</title>
<path fill="none" stroke="midnightblue" d="M367.2,-291.18C387.06,-268.75 434,-208.42 405,-168 388.94,-145.61 361.12,-134.22 335.07,-128.48"/>
<polygon fill="midnightblue" stroke="midnightblue" points="335.68,-125.03 325.2,-126.54 334.34,-131.9 335.68,-125.03"/>
</g>
<!-- Node13&#45;&gt;Node11 -->
<g id="edge15" class="edge">
<title>Node13&#45;&gt;Node11</title>
<path fill="none" stroke="midnightblue" d="M374.64,-291.3C403.46,-273.98 462,-232.24 462,-179 462,-179 462,-179 462,-121 462,-88.44 453.41,-51.32 447.49,-29.59"/>
<polygon fill="midnightblue" stroke="midnightblue" points="450.79,-28.41 444.7,-19.74 444.06,-30.32 450.79,-28.41"/>
</g>
<!-- Node13&#45;&gt;Node14 -->
<g id="edge18" class="edge">
<title>Node13&#45;&gt;Node14</title>
<path fill="none" stroke="midnightblue" d="M410.2,-297.96C474.15,-294.2 578.1,-283.74 602,-255 615.86,-238.34 604.82,-213.1 594.45,-196.34"/>
<polygon fill="midnightblue" stroke="midnightblue" points="597.07,-193.96 588.61,-187.58 591.24,-197.84 597.07,-193.96"/>
</g>
<!-- Node16 -->
<g id="node16" class="node">
<title>Node16</title>
<g id="a_node16"><a xlink:href="exif-mnote-data_8h.html" target="_top" xlink:title="Handling EXIF MakerNote tags.">
<polygon fill="white" stroke="black" points="490.5,-224.5 490.5,-254.5 593.5,-254.5 593.5,-224.5 490.5,-224.5"/>
<text text-anchor="start" x="498.5" y="-242.5" font-family="Helvetica,sans-Serif" font-size="10.00">libexif/exif&#45;mnote</text>
<text text-anchor="middle" x="542" y="-231.5" font-family="Helvetica,sans-Serif" font-size="10.00">&#45;data.h</text>
</a>
</g>
</g>
<!-- Node13&#45;&gt;Node16 -->
<g id="edge23" class="edge">
<title>Node13&#45;&gt;Node16</title>
<path fill="none" stroke="midnightblue" d="M385.22,-291.48C412.2,-282.7 455,-268.79 489.06,-257.71"/>
<polygon fill="midnightblue" stroke="midnightblue" points="490.44,-260.94 498.87,-254.52 488.28,-254.29 490.44,-260.94"/>
</g>
<!-- Node14&#45;&gt;Node9 -->
<g id="edge19" class="edge">
<title>Node14&#45;&gt;Node9</title>
<path fill="none" stroke="midnightblue" d="M534.24,-168.68C479.49,-159.14 389.73,-143.51 330.75,-133.23"/>
<polygon fill="midnightblue" stroke="midnightblue" points="331.29,-129.77 320.84,-131.51 330.09,-136.67 331.29,-129.77"/>
</g>
<!-- Node15 -->
<g id="node15" class="node">
<title>Node15</title>
<g id="a_node15"><a xlink:title=" ">
<polygon fill="white" stroke="#bfbfbf" points="554,-112.5 554,-131.5 610,-131.5 610,-112.5 554,-112.5"/>
<text text-anchor="middle" x="582" y="-119.5" font-family="Helvetica,sans-Serif" font-size="10.00">stdarg.h</text>
</a>
</g>
</g>
<!-- Node14&#45;&gt;Node15 -->
<g id="edge20" class="edge">
<title>Node14&#45;&gt;Node15</title>
<path fill="none" stroke="midnightblue" d="M582,-168.08C582,-161.01 582,-150.86 582,-141.99"/>
<polygon fill="midnightblue" stroke="midnightblue" points="585.5,-141.75 582,-131.75 578.5,-141.75 585.5,-141.75"/>
</g>
<!-- Node16&#45;&gt;Node14 -->
<g id="edge24" class="edge">
<title>Node16&#45;&gt;Node14</title>
<path fill="none" stroke="midnightblue" d="M551.48,-224.4C557.17,-215.93 564.45,-205.1 570.48,-196.14"/>
<polygon fill="midnightblue" stroke="midnightblue" points="573.51,-197.91 576.18,-187.66 567.7,-194 573.51,-197.91"/>
</g>
</g>
</svg>
