<?xml version="1.0" encoding="UTF-8" standalone="no"?>
<!DOCTYPE svg PUBLIC "-//W3C//DTD SVG 1.1//EN"
 "http://www.w3.org/Graphics/SVG/1.1/DTD/svg11.dtd">
<!-- Generated by graphviz version 2.44.1 (0)
 -->
<!-- Title: exif_get_short_convert Pages: 1 -->
<svg width="386pt" height="117pt"
 viewBox="0.00 0.00 386.00 117.42" xmlns="http://www.w3.org/2000/svg" xmlns:xlink="http://www.w3.org/1999/xlink">
<g id="graph0" class="graph" transform="scale(1 1) rotate(0) translate(4 113.42)">
<title>exif_get_short_convert</title>
<polygon fill="white" stroke="transparent" points="-4,4 -4,-113.42 382,-113.42 382,4 -4,4"/>
<!-- Node1 -->
<g id="node1" class="node">
<title>Node1</title>
<g id="a_node1"><a xlink:title="Get a value and convert it to an ExifShort.">
<polygon fill="#bfbfbf" stroke="black" points="0,-32.92 0,-51.92 128,-51.92 128,-32.92 0,-32.92"/>
<text text-anchor="middle" x="64" y="-39.92" font-family="Helvetica,sans-Serif" font-size="10.00">exif_get_short_convert</text>
</a>
</g>
</g>
<!-- Node2 -->
<g id="node2" class="node">
<title>Node2</title>
<g id="a_node2"><a xlink:href="exif-utils_8c.html#a4ad94614630897766dd0a5c9bc2a59bf" target="_top" xlink:title="Retrieve an ExifLong value from memory.">
<polygon fill="white" stroke="black" points="165.5,-89.92 165.5,-108.92 248.5,-108.92 248.5,-89.92 165.5,-89.92"/>
<text text-anchor="middle" x="207" y="-96.92" font-family="Helvetica,sans-Serif" font-size="10.00">exif_get_long</text>
</a>
</g>
</g>
<!-- Node1&#45;&gt;Node2 -->
<g id="edge1" class="edge">
<title>Node1&#45;&gt;Node2</title>
<path fill="none" stroke="midnightblue" d="M88.6,-51.96C111.68,-61.29 147.03,-75.58 172.91,-86.04"/>
<polygon fill="midnightblue" stroke="midnightblue" points="171.74,-89.34 182.32,-89.85 174.36,-82.85 171.74,-89.34"/>
</g>
<!-- Node3 -->
<g id="node3" class="node">
<title>Node3</title>
<g id="a_node3"><a xlink:href="exif-utils_8c.html#a56b96f076a13da6ed926e1ef29cb2dc3" target="_top" xlink:title="Retrieve an ExifSLong value from memory.">
<polygon fill="white" stroke="black" points="288,-60.92 288,-79.92 376,-79.92 376,-60.92 288,-60.92"/>
<text text-anchor="middle" x="332" y="-67.92" font-family="Helvetica,sans-Serif" font-size="10.00">exif_get_slong</text>
</a>
</g>
</g>
<!-- Node1&#45;&gt;Node3 -->
<g id="edge5" class="edge">
<title>Node1&#45;&gt;Node3</title>
<path fill="none" stroke="midnightblue" d="M128.04,-49.05C173.69,-53.86 234.73,-60.28 277.9,-64.83"/>
<polygon fill="midnightblue" stroke="midnightblue" points="277.62,-68.32 287.93,-65.88 278.35,-61.36 277.62,-68.32"/>
</g>
<!-- Node4 -->
<g id="node4" class="node">
<title>Node4</title>
<g id="a_node4"><a xlink:href="exif-utils_8c.html#a4b4acf537a8c6b9405e7b53be868e4d7" target="_top" xlink:title="Retrieve an ExifShort value from memory.">
<polygon fill="white" stroke="black" points="164,-13.92 164,-32.92 250,-32.92 250,-13.92 164,-13.92"/>
<text text-anchor="middle" x="207" y="-20.92" font-family="Helvetica,sans-Serif" font-size="10.00">exif_get_short</text>
</a>
</g>
</g>
<!-- Node1&#45;&gt;Node4 -->
<g id="edge3" class="edge">
<title>Node1&#45;&gt;Node4</title>
<path fill="none" stroke="midnightblue" d="M128.08,-33.92C136.63,-32.77 145.32,-31.6 153.66,-30.47"/>
<polygon fill="midnightblue" stroke="midnightblue" points="154.16,-33.94 163.61,-29.13 153.23,-27 154.16,-33.94"/>
</g>
<!-- Node5 -->
<g id="node5" class="node">
<title>Node5</title>
<g id="a_node5"><a xlink:href="exif-utils_8c.html#a6baf094a71392f9cea23ad633ec13c8b" target="_top" xlink:title="Retrieve an ExifSShort value from memory.">
<polygon fill="white" stroke="black" points="286,-3.92 286,-22.92 378,-22.92 378,-3.92 286,-3.92"/>
<text text-anchor="middle" x="332" y="-10.92" font-family="Helvetica,sans-Serif" font-size="10.00">exif_get_sshort</text>
</a>
</g>
</g>
<!-- Node1&#45;&gt;Node5 -->
<g id="edge6" class="edge">
<title>Node1&#45;&gt;Node5</title>
<path fill="none" stroke="midnightblue" d="M83.74,-32.84C103.21,-23.46 134.86,-9.82 164,-4.42 200.84,2.41 242.97,0.07 275.7,-3.94"/>
<polygon fill="midnightblue" stroke="midnightblue" points="275.6,-7.45 285.97,-5.28 276.51,-0.51 275.6,-7.45"/>
</g>
<!-- Node2&#45;&gt;Node3 -->
<g id="edge2" class="edge">
<title>Node2&#45;&gt;Node3</title>
<path fill="none" stroke="midnightblue" d="M248.62,-89.84C258.8,-87.44 269.84,-84.84 280.44,-82.34"/>
<polygon fill="midnightblue" stroke="midnightblue" points="281.5,-85.69 290.43,-79.98 279.89,-78.87 281.5,-85.69"/>
</g>
<!-- Node4&#45;&gt;Node5 -->
<g id="edge4" class="edge">
<title>Node4&#45;&gt;Node5</title>
<path fill="none" stroke="midnightblue" d="M250.33,-19.98C258.43,-19.32 267.03,-18.62 275.47,-17.93"/>
<polygon fill="midnightblue" stroke="midnightblue" points="275.97,-21.4 285.65,-17.11 275.4,-14.43 275.97,-21.4"/>
</g>
</g>
</svg>
