<?xml version="1.0" encoding="UTF-8" standalone="no"?>
<!DOCTYPE svg PUBLIC "-//W3C//DTD SVG 1.1//EN"
 "http://www.w3.org/Graphics/SVG/1.1/DTD/svg11.dtd">
<!-- Generated by graphviz version 2.44.1 (0)
 -->
<!-- Title: exif_mnote_data_canon_identify Pages: 1 -->
<svg width="877pt" height="458pt"
 viewBox="0.00 0.00 877.00 458.00" xmlns="http://www.w3.org/2000/svg" xmlns:xlink="http://www.w3.org/1999/xlink">
<g id="graph0" class="graph" transform="scale(1 1) rotate(0) translate(4 454)">
<title>exif_mnote_data_canon_identify</title>
<polygon fill="white" stroke="transparent" points="-4,4 -4,-454 873,-454 873,4 -4,4"/>
<!-- Node1 -->
<g id="node1" class="node">
<title>Node1</title>
<g id="a_node1"><a xlink:title="Detect if MakerNote is recognized as one handled by the Canon module.">
<polygon fill="#bfbfbf" stroke="black" points="0,-204 0,-234 134,-234 134,-204 0,-204"/>
<text text-anchor="start" x="8" y="-222" font-family="Helvetica,sans-Serif" font-size="10.00">exif_mnote_data_canon</text>
<text text-anchor="middle" x="67" y="-211" font-family="Helvetica,sans-Serif" font-size="10.00">_identify</text>
</a>
</g>
</g>
<!-- Node2 -->
<g id="node2" class="node">
<title>Node2</title>
<g id="a_node2"><a xlink:href="exif-entry_8c.html#afda0f9d242fd7db960778502414c9885" target="_top" xlink:title="Return a localized textual representation of the value of the EXIF entry.">
<polygon fill="white" stroke="black" points="170,-209.5 170,-228.5 289,-228.5 289,-209.5 170,-209.5"/>
<text text-anchor="middle" x="229.5" y="-216.5" font-family="Helvetica,sans-Serif" font-size="10.00">exif_entry_get_value</text>
</a>
</g>
</g>
<!-- Node1&#45;&gt;Node2 -->
<g id="edge1" class="edge">
<title>Node1&#45;&gt;Node2</title>
<path fill="none" stroke="midnightblue" d="M134.21,-219C142.62,-219 151.24,-219 159.69,-219"/>
<polygon fill="midnightblue" stroke="midnightblue" points="159.89,-222.5 169.89,-219 159.89,-215.5 159.89,-222.5"/>
</g>
<!-- Node3 -->
<g id="node3" class="node">
<title>Node3</title>
<g id="a_node3"><a xlink:href="exif-content_8c.html#ac72bb2dacf0da27156c2c4dce08eef5d" target="_top" xlink:title="Return the ExifEntry in this IFD corresponding to the given tag.">
<polygon fill="white" stroke="black" points="329,-430.5 329,-449.5 458,-449.5 458,-430.5 329,-430.5"/>
<text text-anchor="middle" x="393.5" y="-437.5" font-family="Helvetica,sans-Serif" font-size="10.00">exif_content_get_entry</text>
</a>
</g>
</g>
<!-- Node2&#45;&gt;Node3 -->
<g id="edge2" class="edge">
<title>Node2&#45;&gt;Node3</title>
<path fill="none" stroke="midnightblue" d="M232.42,-228.78C239.16,-260.52 264.65,-361.71 325,-416 329.5,-420.05 334.73,-423.43 340.25,-426.24"/>
<polygon fill="midnightblue" stroke="midnightblue" points="339.18,-429.59 349.74,-430.47 342.03,-423.2 339.18,-429.59"/>
</g>
<!-- Node4 -->
<g id="node4" class="node">
<title>Node4</title>
<g id="a_node4"><a xlink:href="exif-utils_8c.html#af43ad07a0e309c42ead4897c29319f4c" target="_top" xlink:title="This function converts rather UCS&#45;2LE than UTF&#45;16 to UTF&#45;8.">
<polygon fill="white" stroke="black" points="339.5,-343 339.5,-373 447.5,-373 447.5,-343 339.5,-343"/>
<text text-anchor="start" x="347.5" y="-361" font-family="Helvetica,sans-Serif" font-size="10.00">exif_convert_utf16</text>
<text text-anchor="middle" x="393.5" y="-350" font-family="Helvetica,sans-Serif" font-size="10.00">_to_utf8</text>
</a>
</g>
</g>
<!-- Node2&#45;&gt;Node4 -->
<g id="edge3" class="edge">
<title>Node2&#45;&gt;Node4</title>
<path fill="none" stroke="midnightblue" d="M236.72,-228.71C250.41,-249.42 285.15,-298.49 325,-328 330.14,-331.81 335.84,-335.27 341.69,-338.38"/>
<polygon fill="midnightblue" stroke="midnightblue" points="340.42,-341.65 350.93,-342.96 343.53,-335.38 340.42,-341.65"/>
</g>
<!-- Node5 -->
<g id="node5" class="node">
<title>Node5</title>
<g id="a_node5"><a xlink:href="exif-utils_8c.html#a4b4acf537a8c6b9405e7b53be868e4d7" target="_top" xlink:title="Retrieve an ExifShort value from memory.">
<polygon fill="white" stroke="black" points="514.5,-430.5 514.5,-449.5 600.5,-449.5 600.5,-430.5 514.5,-430.5"/>
<text text-anchor="middle" x="557.5" y="-437.5" font-family="Helvetica,sans-Serif" font-size="10.00">exif_get_short</text>
</a>
</g>
</g>
<!-- Node2&#45;&gt;Node5 -->
<g id="edge24" class="edge">
<title>Node2&#45;&gt;Node5</title>
<path fill="none" stroke="midnightblue" d="M233.1,-228.56C241.32,-256.94 269.58,-341.33 325,-383 339.37,-393.8 440.82,-416.19 504.57,-429.47"/>
<polygon fill="midnightblue" stroke="midnightblue" points="503.95,-432.91 514.46,-431.51 505.37,-426.06 503.95,-432.91"/>
</g>
<!-- Node7 -->
<g id="node7" class="node">
<title>Node7</title>
<g id="a_node7"><a xlink:href="exif-data_8c.html#a2d8d50e6a9c19d28fe8192ef7cc52777" target="_top" xlink:title="Return the byte order in use by this EXIF structure.">
<polygon fill="white" stroke="black" points="502.5,-381 502.5,-411 612.5,-411 612.5,-381 502.5,-381"/>
<text text-anchor="start" x="510.5" y="-399" font-family="Helvetica,sans-Serif" font-size="10.00">exif_data_get_byte</text>
<text text-anchor="middle" x="557.5" y="-388" font-family="Helvetica,sans-Serif" font-size="10.00">_order</text>
</a>
</g>
</g>
<!-- Node2&#45;&gt;Node7 -->
<g id="edge6" class="edge">
<title>Node2&#45;&gt;Node7</title>
<path fill="none" stroke="midnightblue" d="M239.77,-228.65C255.73,-244.7 290.03,-276.91 325,-295 381.23,-324.08 405.78,-304.89 462,-334 480.25,-343.45 481,-351.47 498,-363 504.58,-367.46 511.81,-371.89 518.87,-375.98"/>
<polygon fill="midnightblue" stroke="midnightblue" points="517.24,-379.08 527.67,-380.97 520.69,-372.99 517.24,-379.08"/>
</g>
<!-- Node8 -->
<g id="node8" class="node">
<title>Node8</title>
<g id="a_node8"><a xlink:href="exif-entry_8c.html#ae02e9d58318a3cd50eb6730b5e657e5a" target="_top" xlink:title="Format the value of an ExifEntry for human display in a generic way.">
<polygon fill="white" stroke="black" points="325,-266.5 325,-285.5 462,-285.5 462,-266.5 325,-266.5"/>
<text text-anchor="middle" x="393.5" y="-273.5" font-family="Helvetica,sans-Serif" font-size="10.00">exif_entry_format_value</text>
</a>
</g>
</g>
<!-- Node2&#45;&gt;Node8 -->
<g id="edge7" class="edge">
<title>Node2&#45;&gt;Node8</title>
<path fill="none" stroke="midnightblue" d="M257.62,-228.54C284.48,-237.99 325.82,-252.54 355.66,-263.04"/>
<polygon fill="midnightblue" stroke="midnightblue" points="354.7,-266.41 365.3,-266.43 357.02,-259.81 354.7,-266.41"/>
</g>
<!-- Node9 -->
<g id="node9" class="node">
<title>Node9</title>
<g id="a_node9"><a xlink:href="exif-format_8c.html#a924038efe0cd8ebade8f44619dd794f3" target="_top" xlink:title="Return the raw size of the given EXIF data type.">
<polygon fill="white" stroke="black" points="498,-228.5 498,-247.5 617,-247.5 617,-228.5 498,-228.5"/>
<text text-anchor="middle" x="557.5" y="-235.5" font-family="Helvetica,sans-Serif" font-size="10.00">exif_format_get_size</text>
</a>
</g>
</g>
<!-- Node2&#45;&gt;Node9 -->
<g id="edge22" class="edge">
<title>Node2&#45;&gt;Node9</title>
<path fill="none" stroke="midnightblue" d="M289.16,-222.42C344.84,-225.66 428.55,-230.54 487.44,-233.97"/>
<polygon fill="midnightblue" stroke="midnightblue" points="487.58,-237.49 497.76,-234.58 487.98,-230.5 487.58,-237.49"/>
</g>
<!-- Node12 -->
<g id="node12" class="node">
<title>Node12</title>
<g id="a_node12"><a xlink:href="exif-utils_8c.html#a1feb547c289aa57a4d2119338b03706c" target="_top" xlink:title="Retrieve an ExifRational value from memory.">
<polygon fill="white" stroke="black" points="508,-190.5 508,-209.5 607,-209.5 607,-190.5 508,-190.5"/>
<text text-anchor="middle" x="557.5" y="-197.5" font-family="Helvetica,sans-Serif" font-size="10.00">exif_get_rational</text>
</a>
</g>
</g>
<!-- Node2&#45;&gt;Node12 -->
<g id="edge23" class="edge">
<title>Node2&#45;&gt;Node12</title>
<path fill="none" stroke="midnightblue" d="M289.16,-215.58C348.13,-212.14 438.53,-206.88 497.59,-203.43"/>
<polygon fill="midnightblue" stroke="midnightblue" points="498.1,-206.91 507.88,-202.83 497.69,-199.92 498.1,-206.91"/>
</g>
<!-- Node13 -->
<g id="node13" class="node">
<title>Node13</title>
<g id="a_node13"><a xlink:href="exif-utils_8c.html#adb97c3499488d5642a82df1cb16dc2cb" target="_top" xlink:title="Retrieve an ExifSRational value from memory.">
<polygon fill="white" stroke="black" points="505.5,-152.5 505.5,-171.5 609.5,-171.5 609.5,-152.5 505.5,-152.5"/>
<text text-anchor="middle" x="557.5" y="-159.5" font-family="Helvetica,sans-Serif" font-size="10.00">exif_get_srational</text>
</a>
</g>
</g>
<!-- Node2&#45;&gt;Node13 -->
<g id="edge25" class="edge">
<title>Node2&#45;&gt;Node13</title>
<path fill="none" stroke="midnightblue" d="M279.51,-209.46C294.13,-206.67 310.21,-203.65 325,-201 382.74,-190.64 448.74,-179.6 495.45,-171.92"/>
<polygon fill="midnightblue" stroke="midnightblue" points="496.11,-175.36 505.41,-170.29 494.98,-168.45 496.11,-175.36"/>
</g>
<!-- Node14 -->
<g id="node14" class="node">
<title>Node14</title>
<g id="a_node14"><a xlink:href="exif-entry_8c.html#ac416e8326bd687f5da299d1b15a731bf" target="_top" xlink:title=" ">
<polygon fill="white" stroke="black" points="350.5,-114.5 350.5,-133.5 436.5,-133.5 436.5,-114.5 350.5,-114.5"/>
<text text-anchor="middle" x="393.5" y="-121.5" font-family="Helvetica,sans-Serif" font-size="10.00">exif_entry_log</text>
</a>
</g>
</g>
<!-- Node2&#45;&gt;Node14 -->
<g id="edge19" class="edge">
<title>Node2&#45;&gt;Node14</title>
<path fill="none" stroke="midnightblue" d="M241.1,-209.31C257.84,-194.42 291.92,-165.77 325,-148 332.72,-143.85 341.3,-140.17 349.68,-137.01"/>
<polygon fill="midnightblue" stroke="midnightblue" points="351.13,-140.21 359.37,-133.55 348.78,-133.62 351.13,-140.21"/>
</g>
<!-- Node17 -->
<g id="node17" class="node">
<title>Node17</title>
<g id="a_node17"><a xlink:href="exif-mem_8c.html#ae8c09cfbcb95e435c4c4b7ec3bbd79e4" target="_top" xlink:title=" ">
<polygon fill="white" stroke="black" points="346,-76.5 346,-95.5 441,-95.5 441,-76.5 346,-76.5"/>
<text text-anchor="middle" x="393.5" y="-83.5" font-family="Helvetica,sans-Serif" font-size="10.00">exif_mem_alloc</text>
</a>
</g>
</g>
<!-- Node2&#45;&gt;Node17 -->
<g id="edge26" class="edge">
<title>Node2&#45;&gt;Node17</title>
<path fill="none" stroke="midnightblue" d="M235.71,-209.38C248.13,-187.38 281.68,-133.17 325,-105 328.56,-102.69 332.4,-100.65 336.38,-98.86"/>
<polygon fill="midnightblue" stroke="midnightblue" points="337.85,-102.04 345.86,-95.11 335.28,-95.53 337.85,-102.04"/>
</g>
<!-- Node18 -->
<g id="node18" class="node">
<title>Node18</title>
<g id="a_node18"><a xlink:href="exif-mem_8c.html#a43190b81b4b4bdb4ffb89bfb612051b1" target="_top" xlink:title=" ">
<polygon fill="white" stroke="black" points="348,-38.5 348,-57.5 439,-57.5 439,-38.5 348,-38.5"/>
<text text-anchor="middle" x="393.5" y="-45.5" font-family="Helvetica,sans-Serif" font-size="10.00">exif_mem_free</text>
</a>
</g>
</g>
<!-- Node2&#45;&gt;Node18 -->
<g id="edge27" class="edge">
<title>Node2&#45;&gt;Node18</title>
<path fill="none" stroke="midnightblue" d="M233.64,-209.46C242.95,-182.64 273.08,-106.02 325,-67 329.09,-63.92 333.66,-61.35 338.44,-59.19"/>
<polygon fill="midnightblue" stroke="midnightblue" points="339.78,-62.42 347.82,-55.52 337.23,-55.9 339.78,-62.42"/>
</g>
<!-- Node19 -->
<g id="node19" class="node">
<title>Node19</title>
<g id="a_node19"><a xlink:href="exif-entry_8c.html#acfe97d1f369d95332b6e796c690093e4" target="_top" xlink:title="Check if a string consists entirely of a single, repeated character.">
<polygon fill="white" stroke="black" points="332.5,-0.5 332.5,-19.5 454.5,-19.5 454.5,-0.5 332.5,-0.5"/>
<text text-anchor="middle" x="393.5" y="-7.5" font-family="Helvetica,sans-Serif" font-size="10.00">match_repeated_char</text>
</a>
</g>
</g>
<!-- Node2&#45;&gt;Node19 -->
<g id="edge28" class="edge">
<title>Node2&#45;&gt;Node19</title>
<path fill="none" stroke="midnightblue" d="M232.39,-209.4C239.04,-178.27 264.29,-79.29 325,-29 327.05,-27.3 329.24,-25.75 331.54,-24.34"/>
<polygon fill="midnightblue" stroke="midnightblue" points="333.54,-27.25 340.82,-19.57 330.33,-21.03 333.54,-27.25"/>
</g>
<!-- Node4&#45;&gt;Node5 -->
<g id="edge4" class="edge">
<title>Node4&#45;&gt;Node5</title>
<path fill="none" stroke="midnightblue" d="M434.18,-373.07C443.61,-377.34 453.42,-382.38 462,-388 480.15,-399.9 479.25,-410.06 498,-421 501.63,-423.12 505.53,-425.03 509.53,-426.76"/>
<polygon fill="midnightblue" stroke="midnightblue" points="508.37,-430.06 518.96,-430.45 510.92,-423.55 508.37,-430.06"/>
</g>
<!-- Node6 -->
<g id="node6" class="node">
<title>Node6</title>
<g id="a_node6"><a xlink:href="exif-utils_8c.html#a6baf094a71392f9cea23ad633ec13c8b" target="_top" xlink:title="Retrieve an ExifSShort value from memory.">
<polygon fill="white" stroke="black" points="653,-386.5 653,-405.5 745,-405.5 745,-386.5 653,-386.5"/>
<text text-anchor="middle" x="699" y="-393.5" font-family="Helvetica,sans-Serif" font-size="10.00">exif_get_sshort</text>
</a>
</g>
</g>
<!-- Node5&#45;&gt;Node6 -->
<g id="edge5" class="edge">
<title>Node5&#45;&gt;Node6</title>
<path fill="none" stroke="midnightblue" d="M588.77,-430.45C609.06,-424.05 636,-415.56 658.05,-408.6"/>
<polygon fill="midnightblue" stroke="midnightblue" points="659.31,-411.87 667.79,-405.53 657.2,-405.2 659.31,-411.87"/>
</g>
<!-- Node8&#45;&gt;Node5 -->
<g id="edge14" class="edge">
<title>Node8&#45;&gt;Node5</title>
<path fill="none" stroke="midnightblue" d="M409.18,-285.52C424.19,-295.88 447.32,-313.73 462,-334 486.54,-367.9 467.27,-392.59 498,-421 500.28,-423.11 502.79,-424.98 505.46,-426.65"/>
<polygon fill="midnightblue" stroke="midnightblue" points="503.92,-429.79 514.41,-431.29 507.15,-423.58 503.92,-429.79"/>
</g>
<!-- Node8&#45;&gt;Node6 -->
<g id="edge18" class="edge">
<title>Node8&#45;&gt;Node6</title>
<path fill="none" stroke="midnightblue" d="M428.03,-285.56C439.17,-289.35 451.42,-294.2 462,-300 479.78,-309.74 480.16,-318.38 498,-328 525.69,-342.93 606.09,-368.39 656.12,-383.56"/>
<polygon fill="midnightblue" stroke="midnightblue" points="655.11,-386.91 665.69,-386.45 657.13,-380.21 655.11,-386.91"/>
</g>
<!-- Node8&#45;&gt;Node7 -->
<g id="edge8" class="edge">
<title>Node8&#45;&gt;Node7</title>
<path fill="none" stroke="midnightblue" d="M436.32,-285.54C445.47,-289.01 454.62,-293.7 462,-300 487.41,-321.69 474.07,-342.68 498,-366 501.64,-369.54 505.77,-372.76 510.13,-375.66"/>
<polygon fill="midnightblue" stroke="midnightblue" points="508.34,-378.67 518.7,-380.84 511.96,-372.67 508.34,-378.67"/>
</g>
<!-- Node8&#45;&gt;Node9 -->
<g id="edge9" class="edge">
<title>Node8&#45;&gt;Node9</title>
<path fill="none" stroke="midnightblue" d="M435.38,-266.41C456.85,-261.37 483.36,-255.16 506.1,-249.82"/>
<polygon fill="midnightblue" stroke="midnightblue" points="506.98,-253.21 515.91,-247.52 505.38,-246.4 506.98,-253.21"/>
</g>
<!-- Node10 -->
<g id="node10" class="node">
<title>Node10</title>
<g id="a_node10"><a xlink:href="exif-utils_8c.html#a4ad94614630897766dd0a5c9bc2a59bf" target="_top" xlink:title="Retrieve an ExifLong value from memory.">
<polygon fill="white" stroke="black" points="657.5,-228.5 657.5,-247.5 740.5,-247.5 740.5,-228.5 657.5,-228.5"/>
<text text-anchor="middle" x="699" y="-235.5" font-family="Helvetica,sans-Serif" font-size="10.00">exif_get_long</text>
</a>
</g>
</g>
<!-- Node8&#45;&gt;Node10 -->
<g id="edge10" class="edge">
<title>Node8&#45;&gt;Node10</title>
<path fill="none" stroke="midnightblue" d="M462.48,-272.76C506.7,-270.02 565.5,-265.19 617,-257 628.58,-255.16 640.97,-252.57 652.48,-249.9"/>
<polygon fill="midnightblue" stroke="midnightblue" points="653.42,-253.27 662.33,-247.55 651.8,-246.47 653.42,-253.27"/>
</g>
<!-- Node11 -->
<g id="node11" class="node">
<title>Node11</title>
<g id="a_node11"><a xlink:href="exif-utils_8c.html#a56b96f076a13da6ed926e1ef29cb2dc3" target="_top" xlink:title="Retrieve an ExifSLong value from memory.">
<polygon fill="white" stroke="black" points="781,-228.5 781,-247.5 869,-247.5 869,-228.5 781,-228.5"/>
<text text-anchor="middle" x="825" y="-235.5" font-family="Helvetica,sans-Serif" font-size="10.00">exif_get_slong</text>
</a>
</g>
</g>
<!-- Node8&#45;&gt;Node11 -->
<g id="edge15" class="edge">
<title>Node8&#45;&gt;Node11</title>
<path fill="none" stroke="midnightblue" d="M462.14,-276.75C474.09,-276.85 486.41,-276.94 498,-277 550.89,-277.26 564.27,-281.09 617,-277 674.41,-272.54 688.52,-268.19 745,-257 755.49,-254.92 766.69,-252.41 777.26,-249.9"/>
<polygon fill="midnightblue" stroke="midnightblue" points="778.26,-253.26 787.16,-247.51 776.62,-246.46 778.26,-253.26"/>
</g>
<!-- Node8&#45;&gt;Node12 -->
<g id="edge12" class="edge">
<title>Node8&#45;&gt;Node12</title>
<path fill="none" stroke="midnightblue" d="M409.81,-266.36C429.62,-254.18 465.43,-233.1 498,-219 503.02,-216.82 508.38,-214.76 513.73,-212.85"/>
<polygon fill="midnightblue" stroke="midnightblue" points="514.97,-216.12 523.3,-209.58 512.7,-209.5 514.97,-216.12"/>
</g>
<!-- Node8&#45;&gt;Node13 -->
<g id="edge16" class="edge">
<title>Node8&#45;&gt;Node13</title>
<path fill="none" stroke="midnightblue" d="M402.33,-266.47C418.37,-247.55 456.92,-204.97 498,-181 501.63,-178.88 505.53,-176.96 509.53,-175.24"/>
<polygon fill="midnightblue" stroke="midnightblue" points="510.92,-178.45 518.95,-171.55 508.37,-171.93 510.92,-178.45"/>
</g>
<!-- Node10&#45;&gt;Node11 -->
<g id="edge11" class="edge">
<title>Node10&#45;&gt;Node11</title>
<path fill="none" stroke="midnightblue" d="M740.6,-238C750.14,-238 760.45,-238 770.47,-238"/>
<polygon fill="midnightblue" stroke="midnightblue" points="770.75,-241.5 780.75,-238 770.75,-234.5 770.75,-241.5"/>
</g>
<!-- Node12&#45;&gt;Node10 -->
<g id="edge13" class="edge">
<title>Node12&#45;&gt;Node10</title>
<path fill="none" stroke="midnightblue" d="M593.7,-209.59C611.71,-214.49 633.83,-220.52 653.06,-225.76"/>
<polygon fill="midnightblue" stroke="midnightblue" points="652.24,-229.16 662.81,-228.41 654.08,-222.41 652.24,-229.16"/>
</g>
<!-- Node13&#45;&gt;Node11 -->
<g id="edge17" class="edge">
<title>Node13&#45;&gt;Node11</title>
<path fill="none" stroke="midnightblue" d="M591.86,-171.55C639.74,-185.26 728.01,-210.52 780.82,-225.64"/>
<polygon fill="midnightblue" stroke="midnightblue" points="779.99,-229.04 790.57,-228.43 781.92,-222.31 779.99,-229.04"/>
</g>
<!-- Node15 -->
<g id="node15" class="node">
<title>Node15</title>
<g id="a_node15"><a xlink:href="exif-entry_8c.html#ad5b86e68c3c96618a946a5c6fcd5f394" target="_top" xlink:title=" ">
<polygon fill="white" stroke="black" points="505.5,-114.5 505.5,-133.5 609.5,-133.5 609.5,-114.5 505.5,-114.5"/>
<text text-anchor="middle" x="557.5" y="-121.5" font-family="Helvetica,sans-Serif" font-size="10.00">exif_data_get_log</text>
</a>
</g>
</g>
<!-- Node14&#45;&gt;Node15 -->
<g id="edge20" class="edge">
<title>Node14&#45;&gt;Node15</title>
<path fill="none" stroke="midnightblue" d="M436.64,-124C454.52,-124 475.72,-124 495.27,-124"/>
<polygon fill="midnightblue" stroke="midnightblue" points="495.33,-127.5 505.33,-124 495.33,-120.5 495.33,-127.5"/>
</g>
<!-- Node16 -->
<g id="node16" class="node">
<title>Node16</title>
<g id="a_node16"><a xlink:href="exif-log_8c.html#a99101b5ad01b2d82ce9d43c9e8534627" target="_top" xlink:title=" ">
<polygon fill="white" stroke="black" points="526.5,-76.5 526.5,-95.5 588.5,-95.5 588.5,-76.5 526.5,-76.5"/>
<text text-anchor="middle" x="557.5" y="-83.5" font-family="Helvetica,sans-Serif" font-size="10.00">exif_logv</text>
</a>
</g>
</g>
<!-- Node14&#45;&gt;Node16 -->
<g id="edge21" class="edge">
<title>Node14&#45;&gt;Node16</title>
<path fill="none" stroke="midnightblue" d="M435.38,-114.41C460.26,-108.58 491.89,-101.15 516.59,-95.36"/>
<polygon fill="midnightblue" stroke="midnightblue" points="517.44,-98.76 526.37,-93.07 515.84,-91.94 517.44,-98.76"/>
</g>
</g>
</svg>
