<?xml version="1.0" encoding="UTF-8" standalone="no"?>
<!DOCTYPE svg PUBLIC "-//W3C//DTD SVG 1.1//EN"
 "http://www.w3.org/Graphics/SVG/1.1/DTD/svg11.dtd">
<!-- Generated by graphviz version 7.0.1 (0)
 -->
<!-- Title: exif_mnote_data_pentax_free Pages: 1 -->
<svg width="472pt" height="38pt"
 viewBox="0.00 0.00 472.00 38.00" xmlns="http://www.w3.org/2000/svg" xmlns:xlink="http://www.w3.org/1999/xlink">
<g id="graph0" class="graph" transform="scale(1 1) rotate(0) translate(4 34)">
<title>exif_mnote_data_pentax_free</title>
<!-- Node1 -->
<g id="Node000001" class="node">
<title>Node1</title>
<g id="a_Node000001"><a xlink:title=" ">
<polygon fill="#999999" stroke="#666666" points="163,-24.5 0,-24.5 0,-5.5 163,-5.5 163,-24.5"/>
<text text-anchor="middle" x="81.5" y="-12.5" font-family="Helvetica,sans-Serif" font-size="10.00">exif_mnote_data_pentax_free</text>
</a>
</g>
</g>
<!-- Node2 -->
<g id="Node000002" class="node">
<title>Node2</title>
<g id="a_Node000002"><a xlink:href="exif-mnote-data-pentax_8c.html#a5692961f9f5ea8ac552d06fbfae94608" target="_top" xlink:title=" ">
<polygon fill="white" stroke="#666666" points="337,-30 199,-30 199,0 337,0 337,-30"/>
<text text-anchor="start" x="207" y="-18" font-family="Helvetica,sans-Serif" font-size="10.00">exif_mnote_data_pentax</text>
<text text-anchor="middle" x="268" y="-7" font-family="Helvetica,sans-Serif" font-size="10.00">_clear</text>
</a>
</g>
</g>
<!-- Node1&#45;&gt;Node2 -->
<g id="edge1_Node000001_Node000002" class="edge">
<title>Node1&#45;&gt;Node2</title>
<g id="a_edge1_Node000001_Node000002"><a xlink:title=" ">
<path fill="none" stroke="#63b8ff" d="M163.42,-15C171.3,-15 179.28,-15 187.14,-15"/>
<polygon fill="#63b8ff" stroke="#63b8ff" points="187.03,-18.5 197.03,-15 187.03,-11.5 187.03,-18.5"/>
</a>
</g>
</g>
<!-- Node3 -->
<g id="Node000003" class="node">
<title>Node3</title>
<g id="a_Node000003"><a xlink:href="exif-mem_8c.html#a43190b81b4b4bdb4ffb89bfb612051b1" target="_top" xlink:title=" ">
<polygon fill="white" stroke="#666666" points="464,-24.5 373,-24.5 373,-5.5 464,-5.5 464,-24.5"/>
<text text-anchor="middle" x="418.5" y="-12.5" font-family="Helvetica,sans-Serif" font-size="10.00">exif_mem_free</text>
</a>
</g>
</g>
<!-- Node2&#45;&gt;Node3 -->
<g id="edge2_Node000002_Node000003" class="edge">
<title>Node2&#45;&gt;Node3</title>
<g id="a_edge2_Node000002_Node000003"><a xlink:title=" ">
<path fill="none" stroke="#63b8ff" d="M337.17,-15C345.26,-15 353.45,-15 361.35,-15"/>
<polygon fill="#63b8ff" stroke="#63b8ff" points="361.16,-18.5 371.16,-15 361.16,-11.5 361.16,-18.5"/>
</a>
</g>
</g>
</g>
</svg>
