<?xml version="1.0" encoding="UTF-8" standalone="no"?>
<!DOCTYPE svg PUBLIC "-//W3C//DTD SVG 1.1//EN"
 "http://www.w3.org/Graphics/SVG/1.1/DTD/svg11.dtd">
<!-- Generated by graphviz version 2.44.1 (0)
 -->
<!-- Title: exif_mnote_data_canon_get_value Pages: 1 -->
<svg width="800pt" height="359pt"
 viewBox="0.00 0.00 800.00 358.98" xmlns="http://www.w3.org/2000/svg" xmlns:xlink="http://www.w3.org/1999/xlink">
<g id="graph0" class="graph" transform="scale(1 1) rotate(0) translate(4 354.98)">
<title>exif_mnote_data_canon_get_value</title>
<polygon fill="white" stroke="transparent" points="-4,4 -4,-354.98 796,-354.98 796,4 -4,4"/>
<!-- Node1 -->
<g id="node1" class="node">
<title>Node1</title>
<g id="a_node1"><a xlink:title=" ">
<polygon fill="#bfbfbf" stroke="black" points="0,-213.98 0,-243.98 134,-243.98 134,-213.98 0,-213.98"/>
<text text-anchor="start" x="8" y="-231.98" font-family="Helvetica,sans-Serif" font-size="10.00">exif_mnote_data_canon</text>
<text text-anchor="middle" x="67" y="-220.98" font-family="Helvetica,sans-Serif" font-size="10.00">_get_value</text>
</a>
</g>
</g>
<!-- Node2 -->
<g id="node2" class="node">
<title>Node2</title>
<g id="a_node2"><a xlink:href="exif-mnote-data-canon_8c.html#ae9824e7901a9cd61dc6d81713af3d34b" target="_top" xlink:title=" ">
<polygon fill="white" stroke="black" points="170,-236.98 170,-266.98 304,-266.98 304,-236.98 170,-236.98"/>
<text text-anchor="start" x="178" y="-254.98" font-family="Helvetica,sans-Serif" font-size="10.00">exif_mnote_data_canon</text>
<text text-anchor="middle" x="237" y="-243.98" font-family="Helvetica,sans-Serif" font-size="10.00">_get_tags</text>
</a>
</g>
</g>
<!-- Node1&#45;&gt;Node2 -->
<g id="edge1" class="edge">
<title>Node1&#45;&gt;Node2</title>
<path fill="none" stroke="midnightblue" d="M134.4,-238.07C142.77,-239.22 151.39,-240.4 159.89,-241.56"/>
<polygon fill="midnightblue" stroke="midnightblue" points="159.43,-245.03 169.81,-242.92 160.38,-238.1 159.43,-245.03"/>
</g>
<!-- Node6 -->
<g id="node6" class="node">
<title>Node6</title>
<g id="a_node6"><a xlink:href="mnote-canon-entry_8c.html#a89b5ffb4fb194043e60f4c521cec7cc9" target="_top" xlink:title=" ">
<polygon fill="white" stroke="black" points="346,-189.98 346,-219.98 480,-219.98 480,-189.98 346,-189.98"/>
<text text-anchor="start" x="354" y="-207.98" font-family="Helvetica,sans-Serif" font-size="10.00">mnote_canon_entry_get</text>
<text text-anchor="middle" x="413" y="-196.98" font-family="Helvetica,sans-Serif" font-size="10.00">_value</text>
</a>
</g>
</g>
<!-- Node1&#45;&gt;Node6 -->
<g id="edge5" class="edge">
<title>Node1&#45;&gt;Node6</title>
<path fill="none" stroke="midnightblue" d="M134.33,-224.35C191.91,-220.34 275.29,-214.52 335.64,-210.31"/>
<polygon fill="midnightblue" stroke="midnightblue" points="336.14,-213.78 345.88,-209.59 335.66,-206.8 336.14,-213.78"/>
</g>
<!-- Node3 -->
<g id="node3" class="node">
<title>Node3</title>
<g id="a_node3"><a xlink:href="mnote-canon-entry_8c.html#a9d343f3faec828b2467bacbab0919f47" target="_top" xlink:title=" ">
<polygon fill="white" stroke="black" points="340,-281.98 340,-311.98 486,-311.98 486,-281.98 340,-281.98"/>
<text text-anchor="start" x="348" y="-299.98" font-family="Helvetica,sans-Serif" font-size="10.00">mnote_canon_entry_count</text>
<text text-anchor="middle" x="413" y="-288.98" font-family="Helvetica,sans-Serif" font-size="10.00">_values</text>
</a>
</g>
</g>
<!-- Node2&#45;&gt;Node3 -->
<g id="edge2" class="edge">
<title>Node2&#45;&gt;Node3</title>
<path fill="none" stroke="midnightblue" d="M296.42,-267.09C311.57,-271.01 328.01,-275.26 343.62,-279.3"/>
<polygon fill="midnightblue" stroke="midnightblue" points="343.17,-282.8 353.73,-281.91 344.93,-276.02 343.17,-282.8"/>
</g>
<!-- Node4 -->
<g id="node4" class="node">
<title>Node4</title>
<g id="a_node4"><a xlink:href="exif-utils_8c.html#a4b4acf537a8c6b9405e7b53be868e4d7" target="_top" xlink:title="Retrieve an ExifShort value from memory.">
<polygon fill="white" stroke="black" points="550,-331.48 550,-350.48 636,-350.48 636,-331.48 550,-331.48"/>
<text text-anchor="middle" x="593" y="-338.48" font-family="Helvetica,sans-Serif" font-size="10.00">exif_get_short</text>
</a>
</g>
</g>
<!-- Node3&#45;&gt;Node4 -->
<g id="edge3" class="edge">
<title>Node3&#45;&gt;Node4</title>
<path fill="none" stroke="midnightblue" d="M474.76,-312C497.28,-317.57 522.49,-323.8 543.74,-329.05"/>
<polygon fill="midnightblue" stroke="midnightblue" points="542.97,-332.47 553.52,-331.47 544.65,-325.67 542.97,-332.47"/>
</g>
<!-- Node5 -->
<g id="node5" class="node">
<title>Node5</title>
<g id="a_node5"><a xlink:href="exif-utils_8c.html#a6baf094a71392f9cea23ad633ec13c8b" target="_top" xlink:title="Retrieve an ExifSShort value from memory.">
<polygon fill="white" stroke="black" points="700,-312.48 700,-331.48 792,-331.48 792,-312.48 700,-312.48"/>
<text text-anchor="middle" x="746" y="-319.48" font-family="Helvetica,sans-Serif" font-size="10.00">exif_get_sshort</text>
</a>
</g>
</g>
<!-- Node4&#45;&gt;Node5 -->
<g id="edge4" class="edge">
<title>Node4&#45;&gt;Node5</title>
<path fill="none" stroke="midnightblue" d="M636.06,-335.69C652.69,-333.6 672.04,-331.16 689.77,-328.93"/>
<polygon fill="midnightblue" stroke="midnightblue" points="690.51,-332.37 700,-327.64 689.64,-325.42 690.51,-332.37"/>
</g>
<!-- Node6&#45;&gt;Node4 -->
<g id="edge13" class="edge">
<title>Node6&#45;&gt;Node4</title>
<path fill="none" stroke="midnightblue" d="M431.18,-220.06C446.15,-233.47 468.19,-253.86 486,-272.98 503.22,-291.47 501.26,-302.55 522,-316.98 528.09,-321.22 535,-324.76 542.04,-327.72"/>
<polygon fill="midnightblue" stroke="midnightblue" points="541.07,-331.09 551.66,-331.38 543.56,-324.55 541.07,-331.09"/>
</g>
<!-- Node6&#45;&gt;Node5 -->
<g id="edge15" class="edge">
<title>Node6&#45;&gt;Node5</title>
<path fill="none" stroke="midnightblue" d="M429.71,-220.21C449.52,-238.46 485.41,-268.51 522,-283.98 576.14,-306.88 643.2,-315.99 689.57,-319.61"/>
<polygon fill="midnightblue" stroke="midnightblue" points="689.5,-323.12 699.72,-320.34 690,-316.13 689.5,-323.12"/>
</g>
<!-- Node7 -->
<g id="node7" class="node">
<title>Node7</title>
<g id="a_node7"><a xlink:href="mnote-canon-entry_8c.html#a06e73d7e72da3d1aa6914c8bf3d69c0d" target="_top" xlink:title=" ">
<polygon fill="white" stroke="black" points="526,-255.48 526,-274.48 660,-274.48 660,-255.48 526,-255.48"/>
<text text-anchor="middle" x="593" y="-262.48" font-family="Helvetica,sans-Serif" font-size="10.00">apex_value_to_aperture</text>
</a>
</g>
</g>
<!-- Node6&#45;&gt;Node7 -->
<g id="edge6" class="edge">
<title>Node6&#45;&gt;Node7</title>
<path fill="none" stroke="midnightblue" d="M451.17,-220.12C471.85,-228.28 498.16,-238.24 522,-245.98 529.16,-248.31 536.8,-250.58 544.29,-252.7"/>
<polygon fill="midnightblue" stroke="midnightblue" points="543.45,-256.1 554.02,-255.4 545.32,-249.36 543.45,-256.1"/>
</g>
<!-- Node8 -->
<g id="node8" class="node">
<title>Node8</title>
<g id="a_node8"><a xlink:href="mnote-canon-entry_8c.html#a04ae2e21068f2ad8f6c7657cfddd9674" target="_top" xlink:title=" ">
<polygon fill="white" stroke="black" points="522,-217.48 522,-236.48 664,-236.48 664,-217.48 522,-217.48"/>
<text text-anchor="middle" x="593" y="-224.48" font-family="Helvetica,sans-Serif" font-size="10.00">apex_value_to_iso_speed</text>
</a>
</g>
</g>
<!-- Node6&#45;&gt;Node8 -->
<g id="edge7" class="edge">
<title>Node6&#45;&gt;Node8</title>
<path fill="none" stroke="midnightblue" d="M480.03,-213.14C490.37,-214.42 501.17,-215.75 511.79,-217.07"/>
<polygon fill="midnightblue" stroke="midnightblue" points="511.55,-220.56 521.9,-218.32 512.41,-213.62 511.55,-220.56"/>
</g>
<!-- Node9 -->
<g id="node9" class="node">
<title>Node9</title>
<g id="a_node9"><a xlink:href="mnote-canon-entry_8c.html#a1d6fc4e311ea9cd21992df9bd38c90ce" target="_top" xlink:title=" ">
<polygon fill="white" stroke="black" points="529,-167.98 529,-197.98 657,-197.98 657,-167.98 529,-167.98"/>
<text text-anchor="start" x="537" y="-185.98" font-family="Helvetica,sans-Serif" font-size="10.00">apex_value_to_shutter</text>
<text text-anchor="middle" x="593" y="-174.98" font-family="Helvetica,sans-Serif" font-size="10.00">_speed</text>
</a>
</g>
</g>
<!-- Node6&#45;&gt;Node9 -->
<g id="edge8" class="edge">
<title>Node6&#45;&gt;Node9</title>
<path fill="none" stroke="midnightblue" d="M480.03,-196.82C492.6,-195.27 505.82,-193.63 518.6,-192.05"/>
<polygon fill="midnightblue" stroke="midnightblue" points="519.24,-195.5 528.74,-190.8 518.39,-188.55 519.24,-195.5"/>
</g>
<!-- Node10 -->
<g id="node10" class="node">
<title>Node10</title>
<g id="a_node10"><a xlink:href="mnote-canon-entry_8c.html#add2f1f2c87fe2684b11d79a9b6e43742" target="_top" xlink:title=" ">
<polygon fill="white" stroke="black" points="536.5,-118.98 536.5,-148.98 649.5,-148.98 649.5,-118.98 536.5,-118.98"/>
<text text-anchor="start" x="544.5" y="-136.98" font-family="Helvetica,sans-Serif" font-size="10.00">canon_search_table</text>
<text text-anchor="middle" x="593" y="-125.98" font-family="Helvetica,sans-Serif" font-size="10.00">_bitfield</text>
</a>
</g>
</g>
<!-- Node6&#45;&gt;Node10 -->
<g id="edge9" class="edge">
<title>Node6&#45;&gt;Node10</title>
<path fill="none" stroke="midnightblue" d="M446.8,-189.89C468.06,-180.31 496.46,-167.9 522,-157.98 526.74,-156.14 531.7,-154.29 536.68,-152.49"/>
<polygon fill="midnightblue" stroke="midnightblue" points="538,-155.73 546.25,-149.08 535.65,-149.14 538,-155.73"/>
</g>
<!-- Node11 -->
<g id="node11" class="node">
<title>Node11</title>
<g id="a_node11"><a xlink:href="mnote-canon-entry_8c.html#a8b4d32c58f704230c465d3af23f8501e" target="_top" xlink:title=" ">
<polygon fill="white" stroke="black" points="536.5,-69.98 536.5,-99.98 649.5,-99.98 649.5,-69.98 536.5,-69.98"/>
<text text-anchor="start" x="544.5" y="-87.98" font-family="Helvetica,sans-Serif" font-size="10.00">canon_search_table</text>
<text text-anchor="middle" x="593" y="-76.98" font-family="Helvetica,sans-Serif" font-size="10.00">_value</text>
</a>
</g>
</g>
<!-- Node6&#45;&gt;Node11 -->
<g id="edge10" class="edge">
<title>Node6&#45;&gt;Node11</title>
<path fill="none" stroke="midnightblue" d="M427.23,-189.95C446.29,-169.11 483.44,-131.5 522,-108.98 524.97,-107.24 528.09,-105.61 531.3,-104.07"/>
<polygon fill="midnightblue" stroke="midnightblue" points="532.76,-107.25 540.48,-100 529.92,-100.85 532.76,-107.25"/>
</g>
<!-- Node12 -->
<g id="node12" class="node">
<title>Node12</title>
<g id="a_node12"><a xlink:href="exif-utils_8c.html#a4ad94614630897766dd0a5c9bc2a59bf" target="_top" xlink:title="Retrieve an ExifLong value from memory.">
<polygon fill="white" stroke="black" points="551.5,-31.48 551.5,-50.48 634.5,-50.48 634.5,-31.48 551.5,-31.48"/>
<text text-anchor="middle" x="593" y="-38.48" font-family="Helvetica,sans-Serif" font-size="10.00">exif_get_long</text>
</a>
</g>
</g>
<!-- Node6&#45;&gt;Node12 -->
<g id="edge11" class="edge">
<title>Node6&#45;&gt;Node12</title>
<path fill="none" stroke="midnightblue" d="M421.08,-189.62C435.6,-159.85 471.67,-94.26 522,-59.98 527.8,-56.03 534.4,-52.9 541.17,-50.42"/>
<polygon fill="midnightblue" stroke="midnightblue" points="542.68,-53.61 551.14,-47.23 540.55,-46.94 542.68,-53.61"/>
</g>
<!-- Node13 -->
<g id="node13" class="node">
<title>Node13</title>
<g id="a_node13"><a xlink:href="exif-utils_8c.html#a56b96f076a13da6ed926e1ef29cb2dc3" target="_top" xlink:title="Retrieve an ExifSLong value from memory.">
<polygon fill="white" stroke="black" points="702,-12.48 702,-31.48 790,-31.48 790,-12.48 702,-12.48"/>
<text text-anchor="middle" x="746" y="-19.48" font-family="Helvetica,sans-Serif" font-size="10.00">exif_get_slong</text>
</a>
</g>
</g>
<!-- Node6&#45;&gt;Node13 -->
<g id="edge14" class="edge">
<title>Node6&#45;&gt;Node13</title>
<path fill="none" stroke="midnightblue" d="M417.54,-189.75C427.02,-152.89 456.81,-59.21 522,-21.98 577.75,9.85 654.85,0.44 702.24,-10.13"/>
<polygon fill="midnightblue" stroke="midnightblue" points="701.64,-13.59 712.18,-12.46 703.24,-6.77 701.64,-13.59"/>
</g>
<!-- Node12&#45;&gt;Node13 -->
<g id="edge12" class="edge">
<title>Node12&#45;&gt;Node13</title>
<path fill="none" stroke="midnightblue" d="M634.86,-35.84C652.4,-33.63 673.13,-31.03 691.84,-28.67"/>
<polygon fill="midnightblue" stroke="midnightblue" points="692.51,-32.11 701.99,-27.39 691.63,-25.17 692.51,-32.11"/>
</g>
</g>
</svg>
