<?xml version="1.0" encoding="UTF-8" standalone="no"?>
<!DOCTYPE svg PUBLIC "-//W3C//DTD SVG 1.1//EN"
 "http://www.w3.org/Graphics/SVG/1.1/DTD/svg11.dtd">
<!-- Generated by graphviz version 7.0.1 (0)
 -->
<!-- Title: libexif/apple/exif&#45;mnote&#45;data&#45;apple.c Pages: 1 -->
<svg width="1056pt" height="467pt"
 viewBox="0.00 0.00 1056.00 467.00" xmlns="http://www.w3.org/2000/svg" xmlns:xlink="http://www.w3.org/1999/xlink">
<g id="graph0" class="graph" transform="scale(1 1) rotate(0) translate(4 463)">
<title>libexif/apple/exif&#45;mnote&#45;data&#45;apple.c</title>
<!-- Node1 -->
<g id="Node000001" class="node">
<title>Node1</title>
<g id="a_Node000001"><a xlink:title=" ">
<polygon fill="#999999" stroke="#666666" points="553,-459 437,-459 437,-429 553,-429 553,-459"/>
<text text-anchor="start" x="445" y="-447" font-family="Helvetica,sans-Serif" font-size="10.00">libexif/apple/exif</text>
<text text-anchor="middle" x="495" y="-436" font-family="Helvetica,sans-Serif" font-size="10.00">&#45;mnote&#45;data&#45;apple.c</text>
</a>
</g>
</g>
<!-- Node2 -->
<g id="Node000002" class="node">
<title>Node2</title>
<g id="a_Node000002"><a xlink:title=" ">
<polygon fill="#e0e0e0" stroke="#999999" points="268,-393 212,-393 212,-374 268,-374 268,-393"/>
<text text-anchor="middle" x="240" y="-381" font-family="Helvetica,sans-Serif" font-size="10.00">config.h</text>
</a>
</g>
</g>
<!-- Node1&#45;&gt;Node2 -->
<g id="edge1_Node000001_Node000002" class="edge">
<title>Node1&#45;&gt;Node2</title>
<g id="a_edge1_Node000001_Node000002"><a xlink:title=" ">
<path fill="none" stroke="#63b8ff" d="M436.82,-429.65C388.72,-418.62 321.7,-403.24 279.6,-393.59"/>
<polygon fill="#63b8ff" stroke="#63b8ff" points="280.43,-390.18 269.9,-391.36 278.86,-397.01 280.43,-390.18"/>
</a>
</g>
</g>
<!-- Node3 -->
<g id="Node000003" class="node">
<title>Node3</title>
<g id="a_Node000003"><a xlink:href="exif-mnote-data-apple_8h.html" target="_top" xlink:title=" ">
<polygon fill="white" stroke="#666666" points="467,-393 333,-393 333,-374 467,-374 467,-393"/>
<text text-anchor="middle" x="400" y="-381" font-family="Helvetica,sans-Serif" font-size="10.00">exif&#45;mnote&#45;data&#45;apple.h</text>
</a>
</g>
</g>
<!-- Node1&#45;&gt;Node3 -->
<g id="edge2_Node000001_Node000003" class="edge">
<title>Node1&#45;&gt;Node3</title>
<g id="a_edge2_Node000001_Node000003"><a xlink:title=" ">
<path fill="none" stroke="#63b8ff" d="M471.52,-428.54C457.1,-419.66 438.69,-408.32 424.15,-399.37"/>
<polygon fill="#63b8ff" stroke="#63b8ff" points="426,-396.4 415.65,-394.14 422.33,-402.36 426,-396.4"/>
</a>
</g>
</g>
<!-- Node5 -->
<g id="Node000005" class="node">
<title>Node5</title>
<g id="a_Node000005"><a xlink:href="exif-data_8h.html" target="_top" xlink:title="Defines the ExifData type and the associated functions.">
<polygon fill="white" stroke="#666666" points="822,-332.5 720,-332.5 720,-313.5 822,-313.5 822,-332.5"/>
<text text-anchor="middle" x="771" y="-320.5" font-family="Helvetica,sans-Serif" font-size="10.00">libexif/exif&#45;data.h</text>
</a>
</g>
</g>
<!-- Node1&#45;&gt;Node5 -->
<g id="edge42_Node000001_Node000005" class="edge">
<title>Node1&#45;&gt;Node5</title>
<g id="a_edge42_Node000001_Node000005"><a xlink:title=" ">
<path fill="none" stroke="#63b8ff" d="M494.78,-428.61C495.37,-412.87 498.87,-388.02 514,-374 541.7,-348.34 641.69,-334.93 708.47,-328.67"/>
<polygon fill="#63b8ff" stroke="#63b8ff" points="708.56,-332.18 718.2,-327.79 707.93,-325.21 708.56,-332.18"/>
</a>
</g>
</g>
<!-- Node10 -->
<g id="Node000010" class="node">
<title>Node10</title>
<g id="a_Node000010"><a xlink:href="exif-utils_8h.html" target="_top" xlink:title="EXIF data manipulation functions and types.">
<polygon fill="white" stroke="#666666" points="345.5,-90.5 244.5,-90.5 244.5,-71.5 345.5,-71.5 345.5,-90.5"/>
<text text-anchor="middle" x="295" y="-78.5" font-family="Helvetica,sans-Serif" font-size="10.00">libexif/exif&#45;utils.h</text>
</a>
</g>
</g>
<!-- Node1&#45;&gt;Node10 -->
<g id="edge43_Node000001_Node000010" class="edge">
<title>Node1&#45;&gt;Node10</title>
<g id="a_edge43_Node000001_Node000010"><a xlink:title=" ">
<path fill="none" stroke="#63b8ff" d="M436.86,-438.75C400.5,-433.28 354.86,-420.89 324,-393 299.45,-370.81 296,-357.1 296,-324 296,-324 296,-324 296,-195.5 296,-162.88 295.58,-125 295.29,-102.29"/>
<polygon fill="#63b8ff" stroke="#63b8ff" points="298.79,-102.29 295.15,-92.34 291.79,-102.39 298.79,-102.29"/>
</a>
</g>
</g>
<!-- Node21 -->
<g id="Node000021" class="node">
<title>Node21</title>
<g id="a_Node000021"><a xlink:title=" ">
<polygon fill="#e0e0e0" stroke="#999999" points="573,-393 523,-393 523,-374 573,-374 573,-393"/>
<text text-anchor="middle" x="548" y="-381" font-family="Helvetica,sans-Serif" font-size="10.00">stdio.h</text>
</a>
</g>
</g>
<!-- Node1&#45;&gt;Node21 -->
<g id="edge39_Node000001_Node000021" class="edge">
<title>Node1&#45;&gt;Node21</title>
<g id="a_edge39_Node000001_Node000021"><a xlink:title=" ">
<path fill="none" stroke="#63b8ff" d="M508.1,-428.54C515.48,-420.39 524.75,-410.16 532.5,-401.61"/>
<polygon fill="#63b8ff" stroke="#63b8ff" points="535,-404.06 539.12,-394.3 529.82,-399.36 535,-404.06"/>
</a>
</g>
</g>
<!-- Node22 -->
<g id="Node000022" class="node">
<title>Node22</title>
<g id="a_Node000022"><a xlink:title=" ">
<polygon fill="#e0e0e0" stroke="#999999" points="644.5,-393 591.5,-393 591.5,-374 644.5,-374 644.5,-393"/>
<text text-anchor="middle" x="618" y="-381" font-family="Helvetica,sans-Serif" font-size="10.00">stdlib.h</text>
</a>
</g>
</g>
<!-- Node1&#45;&gt;Node22 -->
<g id="edge40_Node000001_Node000022" class="edge">
<title>Node1&#45;&gt;Node22</title>
<g id="a_edge40_Node000001_Node000022"><a xlink:title=" ">
<path fill="none" stroke="#63b8ff" d="M525.4,-428.54C544.88,-419.28 570.01,-407.33 589.17,-398.21"/>
<polygon fill="#63b8ff" stroke="#63b8ff" points="590.51,-401.45 598.03,-394 587.5,-395.13 590.51,-401.45"/>
</a>
</g>
</g>
<!-- Node23 -->
<g id="Node000023" class="node">
<title>Node23</title>
<g id="a_Node000023"><a xlink:title=" ">
<polygon fill="#e0e0e0" stroke="#999999" points="715.5,-393 662.5,-393 662.5,-374 715.5,-374 715.5,-393"/>
<text text-anchor="middle" x="689" y="-381" font-family="Helvetica,sans-Serif" font-size="10.00">string.h</text>
</a>
</g>
</g>
<!-- Node1&#45;&gt;Node23 -->
<g id="edge41_Node000001_Node000023" class="edge">
<title>Node1&#45;&gt;Node23</title>
<g id="a_edge41_Node000001_Node000023"><a xlink:title=" ">
<path fill="none" stroke="#63b8ff" d="M542.96,-428.54C576.43,-418.44 620.49,-405.16 651.42,-395.83"/>
<polygon fill="#63b8ff" stroke="#63b8ff" points="652.17,-399.26 660.73,-393.02 650.15,-392.56 652.17,-399.26"/>
</a>
</g>
</g>
<!-- Node4 -->
<g id="Node000004" class="node">
<title>Node4</title>
<g id="a_Node000004"><a xlink:href="exif-byte-order_8h.html" target="_top" xlink:title="Defines the ExifByteOrder enum and the associated functions.">
<polygon fill="white" stroke="#666666" points="503.5,-24.5 372.5,-24.5 372.5,-5.5 503.5,-5.5 503.5,-24.5"/>
<text text-anchor="middle" x="438" y="-12.5" font-family="Helvetica,sans-Serif" font-size="10.00">libexif/exif&#45;byte&#45;order.h</text>
</a>
</g>
</g>
<!-- Node3&#45;&gt;Node4 -->
<g id="edge3_Node000003_Node000004" class="edge">
<title>Node3&#45;&gt;Node4</title>
<g id="a_edge3_Node000003_Node000004"><a xlink:title=" ">
<path fill="none" stroke="#63b8ff" d="M400.9,-373.8C405.76,-326.96 428.85,-104.29 435.93,-35.98"/>
<polygon fill="#63b8ff" stroke="#63b8ff" points="439.38,-36.59 436.93,-26.28 432.42,-35.87 439.38,-36.59"/>
</a>
</g>
</g>
<!-- Node3&#45;&gt;Node5 -->
<g id="edge4_Node000003_Node000005" class="edge">
<title>Node3&#45;&gt;Node5</title>
<g id="a_edge4_Node000003_Node000005"><a xlink:title=" ">
<path fill="none" stroke="#63b8ff" d="M456.75,-373.55C524.63,-362.85 637.88,-344.99 708.29,-333.89"/>
<polygon fill="#63b8ff" stroke="#63b8ff" points="708.81,-337.35 718.14,-332.34 707.72,-330.44 708.81,-337.35"/>
</a>
</g>
</g>
<!-- Node9 -->
<g id="Node000009" class="node">
<title>Node9</title>
<g id="a_Node000009"><a xlink:href="exif-mem_8h.html" target="_top" xlink:title="Define the ExifMem data type and the associated functions.">
<polygon fill="white" stroke="#666666" points="656,-151 550,-151 550,-132 656,-132 656,-151"/>
<text text-anchor="middle" x="603" y="-139" font-family="Helvetica,sans-Serif" font-size="10.00">libexif/exif&#45;mem.h</text>
</a>
</g>
</g>
<!-- Node3&#45;&gt;Node9 -->
<g id="edge30_Node000003_Node000009" class="edge">
<title>Node3&#45;&gt;Node9</title>
<g id="a_edge30_Node000003_Node000009"><a xlink:title=" ">
<path fill="none" stroke="#63b8ff" d="M402.57,-373.93C406.99,-359.75 416.75,-330.72 429,-308 460.32,-249.93 464.99,-230.03 515,-187 530.48,-173.68 550.63,-163.12 567.74,-155.63"/>
<polygon fill="#63b8ff" stroke="#63b8ff" points="568.67,-159.04 576.54,-151.95 565.96,-152.58 568.67,-159.04"/>
</a>
</g>
</g>
<!-- Node18 -->
<g id="Node000018" class="node">
<title>Node18</title>
<g id="a_Node000018"><a xlink:href="exif-mnote-data-priv_8h.html" target="_top" xlink:title=" ">
<polygon fill="white" stroke="#666666" points="541.5,-338 438.5,-338 438.5,-308 541.5,-308 541.5,-338"/>
<text text-anchor="start" x="446.5" y="-326" font-family="Helvetica,sans-Serif" font-size="10.00">libexif/exif&#45;mnote</text>
<text text-anchor="middle" x="490" y="-315" font-family="Helvetica,sans-Serif" font-size="10.00">&#45;data&#45;priv.h</text>
</a>
</g>
</g>
<!-- Node3&#45;&gt;Node18 -->
<g id="edge31_Node000003_Node000018" class="edge">
<title>Node3&#45;&gt;Node18</title>
<g id="a_edge31_Node000003_Node000018"><a xlink:title=" ">
<path fill="none" stroke="#63b8ff" d="M413.67,-373.62C425.45,-365.96 442.91,-354.61 458.16,-344.69"/>
<polygon fill="#63b8ff" stroke="#63b8ff" points="460.04,-347.65 466.52,-339.26 456.22,-341.78 460.04,-347.65"/>
</a>
</g>
</g>
<!-- Node19 -->
<g id="Node000019" class="node">
<title>Node19</title>
<g id="a_Node000019"><a xlink:href="mnote-apple-entry_8h.html" target="_top" xlink:title=" ">
<polygon fill="white" stroke="#666666" points="226,-96 114,-96 114,-66 226,-66 226,-96"/>
<text text-anchor="start" x="122" y="-84" font-family="Helvetica,sans-Serif" font-size="10.00">libexif/apple/mnote</text>
<text text-anchor="middle" x="170" y="-73" font-family="Helvetica,sans-Serif" font-size="10.00">&#45;apple&#45;entry.h</text>
</a>
</g>
</g>
<!-- Node3&#45;&gt;Node19 -->
<g id="edge35_Node000003_Node000019" class="edge">
<title>Node3&#45;&gt;Node19</title>
<g id="a_edge35_Node000003_Node000019"><a xlink:title=" ">
<path fill="none" stroke="#63b8ff" d="M389.21,-373.68C379.72,-365.39 366.19,-352.16 358,-338 339.43,-305.86 334,-295.12 334,-258 334,-258 334,-258 334,-195.5 334,-145.81 282.47,-116.17 237.18,-99.71"/>
<polygon fill="#63b8ff" stroke="#63b8ff" points="238.46,-96.45 227.87,-96.49 236.18,-103.06 238.46,-96.45"/>
</a>
</g>
</g>
<!-- Node5&#45;&gt;Node4 -->
<g id="edge5_Node000005_Node000004" class="edge">
<title>Node5&#45;&gt;Node4</title>
<g id="a_edge5_Node000005_Node000004"><a xlink:title=" ">
<path fill="none" stroke="#63b8ff" d="M822.45,-321.13C902.56,-316.74 1048,-295.3 1048,-197.5 1048,-197.5 1048,-197.5 1048,-140.5 1048,-32.97 679.49,-17.38 515.32,-15.77"/>
<polygon fill="#63b8ff" stroke="#63b8ff" points="515.4,-12.27 505.37,-15.69 515.35,-19.27 515.4,-12.27"/>
</a>
</g>
</g>
<!-- Node6 -->
<g id="Node000006" class="node">
<title>Node6</title>
<g id="a_Node000006"><a xlink:href="exif-data-type_8h.html" target="_top" xlink:title=" ">
<polygon fill="white" stroke="#666666" points="908,-151 780,-151 780,-132 908,-132 908,-151"/>
<text text-anchor="middle" x="844" y="-139" font-family="Helvetica,sans-Serif" font-size="10.00">libexif/exif&#45;data&#45;type.h</text>
</a>
</g>
</g>
<!-- Node5&#45;&gt;Node6 -->
<g id="edge6_Node000005_Node000006" class="edge">
<title>Node5&#45;&gt;Node6</title>
<g id="a_edge6_Node000005_Node000006"><a xlink:title=" ">
<path fill="none" stroke="#63b8ff" d="M791.67,-313.04C807.7,-304.88 828.84,-291.16 839,-272 857.48,-237.15 853,-189.3 848.33,-162.6"/>
<polygon fill="#63b8ff" stroke="#63b8ff" points="851.77,-161.97 846.42,-152.83 844.9,-163.31 851.77,-161.97"/>
</a>
</g>
</g>
<!-- Node7 -->
<g id="Node000007" class="node">
<title>Node7</title>
<g id="a_Node000007"><a xlink:href="exif-ifd_8h.html" target="_top" xlink:title=" ">
<polygon fill="white" stroke="#666666" points="1019.5,-151 926.5,-151 926.5,-132 1019.5,-132 1019.5,-151"/>
<text text-anchor="middle" x="973" y="-139" font-family="Helvetica,sans-Serif" font-size="10.00">libexif/exif&#45;ifd.h</text>
</a>
</g>
</g>
<!-- Node5&#45;&gt;Node7 -->
<g id="edge7_Node000005_Node000007" class="edge">
<title>Node5&#45;&gt;Node7</title>
<g id="a_edge7_Node000005_Node000007"><a xlink:title=" ">
<path fill="none" stroke="#63b8ff" d="M817.24,-313.06C869.91,-299.99 952.71,-269.91 984,-206 990.78,-192.15 987.07,-174.81 982.2,-161.75"/>
<polygon fill="#63b8ff" stroke="#63b8ff" points="985.43,-160.39 978.27,-152.58 978.99,-163.15 985.43,-160.39"/>
</a>
</g>
</g>
<!-- Node8 -->
<g id="Node000008" class="node">
<title>Node8</title>
<g id="a_Node000008"><a xlink:href="exif-log_8h.html" target="_top" xlink:title="Log message infrastructure.">
<polygon fill="white" stroke="#666666" points="618.5,-206 523.5,-206 523.5,-187 618.5,-187 618.5,-206"/>
<text text-anchor="middle" x="571" y="-194" font-family="Helvetica,sans-Serif" font-size="10.00">libexif/exif&#45;log.h</text>
</a>
</g>
</g>
<!-- Node5&#45;&gt;Node8 -->
<g id="edge8_Node000005_Node000008" class="edge">
<title>Node5&#45;&gt;Node8</title>
<g id="a_edge8_Node000005_Node000008"><a xlink:title=" ">
<path fill="none" stroke="#63b8ff" d="M750.29,-313.11C729.44,-303.85 696.65,-288.43 670,-272 654.31,-262.33 615.26,-232.22 591.15,-213.37"/>
<polygon fill="#63b8ff" stroke="#63b8ff" points="593.36,-210.65 583.33,-207.23 589.04,-216.16 593.36,-210.65"/>
</a>
</g>
</g>
<!-- Node5&#45;&gt;Node9 -->
<g id="edge29_Node000005_Node000009" class="edge">
<title>Node5&#45;&gt;Node9</title>
<g id="a_edge29_Node000005_Node000009"><a xlink:title=" ">
<path fill="none" stroke="#63b8ff" d="M756.8,-313.03C742.62,-303.72 720.59,-288.25 704,-272 667.47,-236.24 632.57,-187.05 614.93,-160.78"/>
<polygon fill="#63b8ff" stroke="#63b8ff" points="617.94,-158.99 609.5,-152.58 612.11,-162.85 617.94,-158.99"/>
</a>
</g>
</g>
<!-- Node14 -->
<g id="Node000014" class="node">
<title>Node14</title>
<g id="a_Node000014"><a xlink:href="exif-tag_8h.html" target="_top" xlink:title="Handling EXIF tags.">
<polygon fill="white" stroke="#666666" points="975,-206 879,-206 879,-187 975,-187 975,-206"/>
<text text-anchor="middle" x="927" y="-194" font-family="Helvetica,sans-Serif" font-size="10.00">libexif/exif&#45;tag.h</text>
</a>
</g>
</g>
<!-- Node5&#45;&gt;Node14 -->
<g id="edge15_Node000005_Node000014" class="edge">
<title>Node5&#45;&gt;Node14</title>
<g id="a_edge15_Node000005_Node000014"><a xlink:title=" ">
<path fill="none" stroke="#63b8ff" d="M797.04,-313.07C818.69,-304.77 849.5,-290.85 872,-272 891.01,-256.08 907.07,-232.3 916.84,-215.92"/>
<polygon fill="#63b8ff" stroke="#63b8ff" points="919.63,-218.1 921.57,-207.68 913.56,-214.61 919.63,-218.1"/>
</a>
</g>
</g>
<!-- Node15 -->
<g id="Node000015" class="node">
<title>Node15</title>
<g id="a_Node000015"><a xlink:href="exif-content_8h.html" target="_top" xlink:title="Handling EXIF IFDs.">
<polygon fill="white" stroke="#666666" points="829.5,-266.5 712.5,-266.5 712.5,-247.5 829.5,-247.5 829.5,-266.5"/>
<text text-anchor="middle" x="771" y="-254.5" font-family="Helvetica,sans-Serif" font-size="10.00">libexif/exif&#45;content.h</text>
</a>
</g>
</g>
<!-- Node5&#45;&gt;Node15 -->
<g id="edge18_Node000005_Node000015" class="edge">
<title>Node5&#45;&gt;Node15</title>
<g id="a_edge18_Node000005_Node000015"><a xlink:title=" ">
<path fill="none" stroke="#63b8ff" d="M766.16,-313.1C764.29,-304.12 763.79,-289.95 764.67,-278.22"/>
<polygon fill="#63b8ff" stroke="#63b8ff" points="768.14,-278.69 765.97,-268.32 761.2,-277.78 768.14,-278.69"/>
</a>
</g>
</g>
<!-- Node17 -->
<g id="Node000017" class="node">
<title>Node17</title>
<g id="a_Node000017"><a xlink:href="exif-mnote-data_8h.html" target="_top" xlink:title="Handling EXIF MakerNote tags.">
<polygon fill="white" stroke="#666666" points="617.5,-272 514.5,-272 514.5,-242 617.5,-242 617.5,-272"/>
<text text-anchor="start" x="522.5" y="-260" font-family="Helvetica,sans-Serif" font-size="10.00">libexif/exif&#45;mnote</text>
<text text-anchor="middle" x="566" y="-249" font-family="Helvetica,sans-Serif" font-size="10.00">&#45;data.h</text>
</a>
</g>
</g>
<!-- Node5&#45;&gt;Node17 -->
<g id="edge27_Node000005_Node000017" class="edge">
<title>Node5&#45;&gt;Node17</title>
<g id="a_edge27_Node000005_Node000017"><a xlink:title=" ">
<path fill="none" stroke="#63b8ff" d="M742.5,-313.1C711.72,-303.49 661.9,-287.94 623.02,-275.8"/>
<polygon fill="#63b8ff" stroke="#63b8ff" points="624.41,-272.57 613.82,-272.93 622.32,-279.25 624.41,-272.57"/>
</a>
</g>
</g>
<!-- Node8&#45;&gt;Node9 -->
<g id="edge9_Node000008_Node000009" class="edge">
<title>Node8&#45;&gt;Node9</title>
<g id="a_edge9_Node000008_Node000009"><a xlink:title=" ">
<path fill="none" stroke="#63b8ff" d="M576.28,-186.75C580.47,-179.81 586.48,-169.86 591.73,-161.16"/>
<polygon fill="#63b8ff" stroke="#63b8ff" points="594.65,-163.11 596.82,-152.74 588.65,-159.49 594.65,-163.11"/>
</a>
</g>
</g>
<!-- Node13 -->
<g id="Node000013" class="node">
<title>Node13</title>
<g id="a_Node000013"><a xlink:title=" ">
<polygon fill="#e0e0e0" stroke="#999999" points="532,-151 476,-151 476,-132 532,-132 532,-151"/>
<text text-anchor="middle" x="504" y="-139" font-family="Helvetica,sans-Serif" font-size="10.00">stdarg.h</text>
</a>
</g>
</g>
<!-- Node8&#45;&gt;Node13 -->
<g id="edge14_Node000008_Node000013" class="edge">
<title>Node8&#45;&gt;Node13</title>
<g id="a_edge14_Node000008_Node000013"><a xlink:title=" ">
<path fill="none" stroke="#63b8ff" d="M559.63,-186.51C549.95,-178.85 535.8,-167.66 524.19,-158.47"/>
<polygon fill="#63b8ff" stroke="#63b8ff" points="526.4,-155.76 516.38,-152.3 522.06,-161.25 526.4,-155.76"/>
</a>
</g>
</g>
<!-- Node9&#45;&gt;Node10 -->
<g id="edge10_Node000009_Node000010" class="edge">
<title>Node9&#45;&gt;Node10</title>
<g id="a_edge10_Node000009_Node000010"><a xlink:title=" ">
<path fill="none" stroke="#63b8ff" d="M551.24,-131.5C501.99,-122.82 425.83,-109.11 360,-96 355.67,-95.14 351.17,-94.22 346.67,-93.28"/>
<polygon fill="#63b8ff" stroke="#63b8ff" points="347.52,-89.88 337.01,-91.24 346.07,-96.73 347.52,-89.88"/>
</a>
</g>
</g>
<!-- Node10&#45;&gt;Node4 -->
<g id="edge11_Node000010_Node000004" class="edge">
<title>Node10&#45;&gt;Node4</title>
<g id="a_edge11_Node000010_Node000004"><a xlink:title=" ">
<path fill="none" stroke="#63b8ff" d="M314.88,-71.1C339,-60.31 379.9,-42 407.89,-29.48"/>
<polygon fill="#63b8ff" stroke="#63b8ff" points="409.21,-32.72 416.9,-25.44 406.35,-26.33 409.21,-32.72"/>
</a>
</g>
</g>
<!-- Node11 -->
<g id="Node000011" class="node">
<title>Node11</title>
<g id="a_Node000011"><a xlink:href="exif-format_8h.html" target="_top" xlink:title="Handling native EXIF data types.">
<polygon fill="white" stroke="#666666" points="243.5,-24.5 130.5,-24.5 130.5,-5.5 243.5,-5.5 243.5,-24.5"/>
<text text-anchor="middle" x="187" y="-12.5" font-family="Helvetica,sans-Serif" font-size="10.00">libexif/exif&#45;format.h</text>
</a>
</g>
</g>
<!-- Node10&#45;&gt;Node11 -->
<g id="edge12_Node000010_Node000011" class="edge">
<title>Node10&#45;&gt;Node11</title>
<g id="a_edge12_Node000010_Node000011"><a xlink:title=" ">
<path fill="none" stroke="#63b8ff" d="M279.98,-71.1C262.33,-60.64 232.78,-43.13 211.73,-30.66"/>
<polygon fill="#63b8ff" stroke="#63b8ff" points="213.58,-27.68 203.19,-25.59 210.01,-33.7 213.58,-27.68"/>
</a>
</g>
</g>
<!-- Node12 -->
<g id="Node000012" class="node">
<title>Node12</title>
<g id="a_Node000012"><a xlink:title=" ">
<polygon fill="#e0e0e0" stroke="#999999" points="354,-24.5 262,-24.5 262,-5.5 354,-5.5 354,-24.5"/>
<text text-anchor="middle" x="308" y="-12.5" font-family="Helvetica,sans-Serif" font-size="10.00">libexif/_stdint.h</text>
</a>
</g>
</g>
<!-- Node10&#45;&gt;Node12 -->
<g id="edge13_Node000010_Node000012" class="edge">
<title>Node10&#45;&gt;Node12</title>
<g id="a_edge13_Node000010_Node000012"><a xlink:title=" ">
<path fill="none" stroke="#63b8ff" d="M296.81,-71.1C298.65,-62.03 301.57,-47.64 303.97,-35.85"/>
<polygon fill="#63b8ff" stroke="#63b8ff" points="307.35,-36.8 305.91,-26.31 300.49,-35.41 307.35,-36.8"/>
</a>
</g>
</g>
<!-- Node14&#45;&gt;Node6 -->
<g id="edge17_Node000014_Node000006" class="edge">
<title>Node14&#45;&gt;Node6</title>
<g id="a_edge17_Node000014_Node000006"><a xlink:title=" ">
<path fill="none" stroke="#63b8ff" d="M912.92,-186.51C900.44,-178.54 881.98,-166.75 867.31,-157.38"/>
<polygon fill="#63b8ff" stroke="#63b8ff" points="869.46,-154.6 859.15,-152.17 865.69,-160.5 869.46,-154.6"/>
</a>
</g>
</g>
<!-- Node14&#45;&gt;Node7 -->
<g id="edge16_Node000014_Node000007" class="edge">
<title>Node14&#45;&gt;Node7</title>
<g id="a_edge16_Node000014_Node000007"><a xlink:title=" ">
<path fill="none" stroke="#63b8ff" d="M934.6,-186.75C940.88,-179.5 950.01,-168.98 957.8,-160.02"/>
<polygon fill="#63b8ff" stroke="#63b8ff" points="960.34,-162.43 964.25,-152.59 955.05,-157.84 960.34,-162.43"/>
</a>
</g>
</g>
<!-- Node15&#45;&gt;Node5 -->
<g id="edge24_Node000015_Node000005" class="edge">
<title>Node15&#45;&gt;Node5</title>
<g id="a_edge24_Node000015_Node000005"><a xlink:title=" ">
<path fill="none" stroke="#63b8ff" d="M775.83,-266.82C777.73,-275.87 778.22,-290.24 777.31,-302.05"/>
<polygon fill="#63b8ff" stroke="#63b8ff" points="773.88,-301.23 776.04,-311.6 780.82,-302.15 773.88,-301.23"/>
</a>
</g>
</g>
<!-- Node15&#45;&gt;Node8 -->
<g id="edge25_Node000015_Node000008" class="edge">
<title>Node15&#45;&gt;Node8</title>
<g id="a_edge25_Node000015_Node000008"><a xlink:title=" ">
<path fill="none" stroke="#63b8ff" d="M740.62,-247.12C706.41,-237.11 650.61,-220.79 612.42,-209.62"/>
<polygon fill="#63b8ff" stroke="#63b8ff" points="613.69,-206.34 603.11,-206.89 611.73,-213.06 613.69,-206.34"/>
</a>
</g>
</g>
<!-- Node15&#45;&gt;Node9 -->
<g id="edge26_Node000015_Node000009" class="edge">
<title>Node15&#45;&gt;Node9</title>
<g id="a_edge26_Node000015_Node000009"><a xlink:title=" ">
<path fill="none" stroke="#63b8ff" d="M757.82,-247.09C729.23,-227.78 661.27,-181.86 625.65,-157.8"/>
<polygon fill="#63b8ff" stroke="#63b8ff" points="627.62,-154.91 617.38,-152.21 623.7,-160.71 627.62,-154.91"/>
</a>
</g>
</g>
<!-- Node15&#45;&gt;Node14 -->
<g id="edge19_Node000015_Node000014" class="edge">
<title>Node15&#45;&gt;Node14</title>
<g id="a_edge19_Node000015_Node000014"><a xlink:title=" ">
<path fill="none" stroke="#63b8ff" d="M794.69,-247.12C820.69,-237.37 862.67,-221.62 892.36,-210.49"/>
<polygon fill="#63b8ff" stroke="#63b8ff" points="893.53,-213.79 901.67,-207 891.07,-207.23 893.53,-213.79"/>
</a>
</g>
</g>
<!-- Node16 -->
<g id="Node000016" class="node">
<title>Node16</title>
<g id="a_Node000016"><a xlink:href="exif-entry_8h.html" target="_top" xlink:title="Handling EXIF entries.">
<polygon fill="white" stroke="#666666" points="823,-206 719,-206 719,-187 823,-187 823,-206"/>
<text text-anchor="middle" x="771" y="-194" font-family="Helvetica,sans-Serif" font-size="10.00">libexif/exif&#45;entry.h</text>
</a>
</g>
</g>
<!-- Node15&#45;&gt;Node16 -->
<g id="edge20_Node000015_Node000016" class="edge">
<title>Node15&#45;&gt;Node16</title>
<g id="a_edge20_Node000015_Node000016"><a xlink:title=" ">
<path fill="none" stroke="#63b8ff" d="M766.04,-247.37C764.35,-239.5 763.85,-227.6 764.57,-217.39"/>
<polygon fill="#63b8ff" stroke="#63b8ff" points="768.01,-218.04 765.84,-207.67 761.07,-217.13 768.01,-218.04"/>
</a>
</g>
</g>
<!-- Node16&#45;&gt;Node9 -->
<g id="edge23_Node000016_Node000009" class="edge">
<title>Node16&#45;&gt;Node9</title>
<g id="a_edge23_Node000016_Node000009"><a xlink:title=" ">
<path fill="none" stroke="#63b8ff" d="M742.5,-186.51C714.9,-177.8 672.84,-164.53 642.12,-154.84"/>
<polygon fill="#63b8ff" stroke="#63b8ff" points="643.39,-151.57 632.8,-151.9 641.28,-158.25 643.39,-151.57"/>
</a>
</g>
</g>
<!-- Node16&#45;&gt;Node11 -->
<g id="edge22_Node000016_Node000011" class="edge">
<title>Node16&#45;&gt;Node11</title>
<g id="a_edge22_Node000016_Node000011"><a xlink:title=" ">
<path fill="none" stroke="#63b8ff" d="M758.92,-186.59C739.88,-172.94 701.33,-146.89 665,-132 625.23,-115.71 352.46,-53.31 237.7,-27.39"/>
<polygon fill="#63b8ff" stroke="#63b8ff" points="238.78,-24.05 228.26,-25.26 237.24,-30.88 238.78,-24.05"/>
</a>
</g>
</g>
<!-- Node16&#45;&gt;Node15 -->
<g id="edge21_Node000016_Node000015" class="edge">
<title>Node16&#45;&gt;Node15</title>
<g id="a_edge21_Node000016_Node000015"><a xlink:title=" ">
<path fill="none" stroke="#63b8ff" d="M775.96,-206.17C777.66,-214.04 778.15,-225.95 777.43,-236.16"/>
<polygon fill="#63b8ff" stroke="#63b8ff" points="773.99,-235.5 776.15,-245.87 780.93,-236.41 773.99,-235.5"/>
</a>
</g>
</g>
<!-- Node17&#45;&gt;Node8 -->
<g id="edge28_Node000017_Node000008" class="edge">
<title>Node17&#45;&gt;Node8</title>
<g id="a_edge28_Node000017_Node000008"><a xlink:title=" ">
<path fill="none" stroke="#63b8ff" d="M567.24,-241.54C567.86,-234.26 568.62,-225.31 569.3,-217.39"/>
<polygon fill="#63b8ff" stroke="#63b8ff" points="572.77,-217.94 570.13,-207.68 565.79,-217.35 572.77,-217.94"/>
</a>
</g>
</g>
<!-- Node18&#45;&gt;Node4 -->
<g id="edge33_Node000018_Node000004" class="edge">
<title>Node18&#45;&gt;Node4</title>
<g id="a_edge33_Node000018_Node000004"><a xlink:title=" ">
<path fill="none" stroke="#63b8ff" d="M487.56,-307.65C479.12,-258 451.15,-93.39 441.39,-35.97"/>
<polygon fill="#63b8ff" stroke="#63b8ff" points="444.89,-35.64 439.76,-26.37 437.99,-36.81 444.89,-35.64"/>
</a>
</g>
</g>
<!-- Node18&#45;&gt;Node8 -->
<g id="edge34_Node000018_Node000008" class="edge">
<title>Node18&#45;&gt;Node8</title>
<g id="a_edge34_Node000018_Node000008"><a xlink:title=" ">
<path fill="none" stroke="#63b8ff" d="M489.71,-307.78C490.03,-290.78 492.73,-262.09 506,-242 514.36,-229.34 527.69,-219.3 540.1,-211.98"/>
<polygon fill="#63b8ff" stroke="#63b8ff" points="541.75,-215.06 548.85,-207.2 538.4,-208.92 541.75,-215.06"/>
</a>
</g>
</g>
<!-- Node18&#45;&gt;Node17 -->
<g id="edge32_Node000018_Node000017" class="edge">
<title>Node18&#45;&gt;Node17</title>
<g id="a_edge32_Node000018_Node000017"><a xlink:title=" ">
<path fill="none" stroke="#63b8ff" d="M506.87,-307.8C516.64,-299.57 529.14,-289.04 540.13,-279.78"/>
<polygon fill="#63b8ff" stroke="#63b8ff" points="542.37,-282.48 547.76,-273.36 537.86,-277.12 542.37,-282.48"/>
</a>
</g>
</g>
<!-- Node19&#45;&gt;Node4 -->
<g id="edge36_Node000019_Node000004" class="edge">
<title>Node19&#45;&gt;Node4</title>
<g id="a_edge36_Node000019_Node000004"><a xlink:title=" ">
<path fill="none" stroke="#63b8ff" d="M226.18,-66.58C274.43,-55.06 343.28,-38.62 389.25,-27.64"/>
<polygon fill="#63b8ff" stroke="#63b8ff" points="390.03,-31.05 398.94,-25.33 388.4,-24.25 390.03,-31.05"/>
</a>
</g>
</g>
<!-- Node19&#45;&gt;Node11 -->
<g id="edge37_Node000019_Node000011" class="edge">
<title>Node19&#45;&gt;Node11</title>
<g id="a_edge37_Node000019_Node000011"><a xlink:title=" ">
<path fill="none" stroke="#63b8ff" d="M173.77,-65.8C176.11,-56.99 179.15,-45.55 181.72,-35.86"/>
<polygon fill="#63b8ff" stroke="#63b8ff" points="185.08,-36.87 184.26,-26.31 178.31,-35.07 185.08,-36.87"/>
</a>
</g>
</g>
<!-- Node20 -->
<g id="Node000020" class="node">
<title>Node20</title>
<g id="a_Node000020"><a xlink:href="mnote-apple-tag_8h.html" target="_top" xlink:title=" ">
<polygon fill="white" stroke="#666666" points="112,-30 0,-30 0,0 112,0 112,-30"/>
<text text-anchor="start" x="8" y="-18" font-family="Helvetica,sans-Serif" font-size="10.00">libexif/apple/mnote</text>
<text text-anchor="middle" x="56" y="-7" font-family="Helvetica,sans-Serif" font-size="10.00">&#45;apple&#45;tag.h</text>
</a>
</g>
</g>
<!-- Node19&#45;&gt;Node20 -->
<g id="edge38_Node000019_Node000020" class="edge">
<title>Node19&#45;&gt;Node20</title>
<g id="a_edge38_Node000019_Node000020"><a xlink:title=" ">
<path fill="none" stroke="#63b8ff" d="M144.42,-65.64C128.72,-56.83 108.41,-45.42 91.21,-35.77"/>
<polygon fill="#63b8ff" stroke="#63b8ff" points="93.25,-32.9 82.82,-31.06 89.82,-39 93.25,-32.9"/>
</a>
</g>
</g>
</g>
</svg>
