<?xml version="1.0" encoding="UTF-8" standalone="no"?>
<!DOCTYPE svg PUBLIC "-//W3C//DTD SVG 1.1//EN"
 "http://www.w3.org/Graphics/SVG/1.1/DTD/svg11.dtd">
<!-- Generated by graphviz version 2.44.1 (0)
 -->
<!-- Title: exif_loader_free Pages: 1 -->
<svg width="623pt" height="142pt"
 viewBox="0.00 0.00 623.00 142.00" xmlns="http://www.w3.org/2000/svg" xmlns:xlink="http://www.w3.org/1999/xlink">
<g id="graph0" class="graph" transform="scale(1 1) rotate(0) translate(4 138)">
<title>exif_loader_free</title>
<polygon fill="white" stroke="transparent" points="-4,4 -4,-138 619,-138 619,4 -4,4"/>
<!-- Node1 -->
<g id="node1" class="node">
<title>Node1</title>
<g id="a_node1"><a xlink:title=" ">
<polygon fill="#bfbfbf" stroke="black" points="0,-57.5 0,-76.5 96,-76.5 96,-57.5 0,-57.5"/>
<text text-anchor="middle" x="48" y="-64.5" font-family="Helvetica,sans-Serif" font-size="10.00">exif_loader_free</text>
</a>
</g>
</g>
<!-- Node2 -->
<g id="node2" class="node">
<title>Node2</title>
<g id="a_node2"><a xlink:href="exif-loader_8c.html#a080d8ebb5006c1306a3a798ff60253a5" target="_top" xlink:title="Free any data previously loaded and reset the ExifLoader to its newly&#45;initialized state.">
<polygon fill="white" stroke="black" points="254,-114.5 254,-133.5 355,-133.5 355,-114.5 254,-114.5"/>
<text text-anchor="middle" x="304.5" y="-121.5" font-family="Helvetica,sans-Serif" font-size="10.00">exif_loader_reset</text>
</a>
</g>
</g>
<!-- Node1&#45;&gt;Node2 -->
<g id="edge1" class="edge">
<title>Node1&#45;&gt;Node2</title>
<path fill="none" stroke="midnightblue" d="M69.01,-76.53C85.54,-84.02 109.81,-94.13 132,-100 168.48,-109.65 210.41,-115.61 243.69,-119.18"/>
<polygon fill="midnightblue" stroke="midnightblue" points="243.41,-122.67 253.72,-120.21 244.13,-115.7 243.41,-122.67"/>
</g>
<!-- Node3 -->
<g id="node3" class="node">
<title>Node3</title>
<g id="a_node3"><a xlink:href="exif-mem_8c.html#a43190b81b4b4bdb4ffb89bfb612051b1" target="_top" xlink:title=" ">
<polygon fill="white" stroke="black" points="524,-57.5 524,-76.5 615,-76.5 615,-57.5 524,-57.5"/>
<text text-anchor="middle" x="569.5" y="-64.5" font-family="Helvetica,sans-Serif" font-size="10.00">exif_mem_free</text>
</a>
</g>
</g>
<!-- Node1&#45;&gt;Node3 -->
<g id="edge8" class="edge">
<title>Node1&#45;&gt;Node3</title>
<path fill="none" stroke="midnightblue" d="M96.11,-68.48C176.5,-70.76 345.32,-74.54 488,-71 496.35,-70.79 505.17,-70.46 513.8,-70.08"/>
<polygon fill="midnightblue" stroke="midnightblue" points="513.98,-73.58 523.81,-69.62 513.65,-66.59 513.98,-73.58"/>
</g>
<!-- Node4 -->
<g id="node4" class="node">
<title>Node4</title>
<g id="a_node4"><a xlink:href="exif-log_8c.html#a7a9b738a7429197d68c80ffedac7d8fb" target="_top" xlink:title=" ">
<polygon fill="white" stroke="black" points="132,-38.5 132,-57.5 218,-57.5 218,-38.5 132,-38.5"/>
<text text-anchor="middle" x="175" y="-45.5" font-family="Helvetica,sans-Serif" font-size="10.00">exif_log_unref</text>
</a>
</g>
</g>
<!-- Node1&#45;&gt;Node4 -->
<g id="edge3" class="edge">
<title>Node1&#45;&gt;Node4</title>
<path fill="none" stroke="midnightblue" d="M96.26,-59.82C104.51,-58.56 113.15,-57.25 121.54,-55.97"/>
<polygon fill="midnightblue" stroke="midnightblue" points="122.24,-59.41 131.6,-54.44 121.19,-52.49 122.24,-59.41"/>
</g>
<!-- Node6 -->
<g id="node6" class="node">
<title>Node6</title>
<g id="a_node6"><a xlink:href="exif-mem_8c.html#a66744e0987af08c443df247ce55f7d87" target="_top" xlink:title="Unrefcount an ExifMem.">
<polygon fill="white" stroke="black" points="391,-0.5 391,-19.5 488,-19.5 488,-0.5 391,-0.5"/>
<text text-anchor="middle" x="439.5" y="-7.5" font-family="Helvetica,sans-Serif" font-size="10.00">exif_mem_unref</text>
</a>
</g>
</g>
<!-- Node1&#45;&gt;Node6 -->
<g id="edge9" class="edge">
<title>Node1&#45;&gt;Node6</title>
<path fill="none" stroke="midnightblue" d="M65.19,-57.41C81.46,-48.3 107.56,-35.13 132,-29 216.75,-7.75 318.59,-5.92 380.92,-7.36"/>
<polygon fill="midnightblue" stroke="midnightblue" points="380.86,-10.86 390.95,-7.62 381.05,-3.86 380.86,-10.86"/>
</g>
<!-- Node2&#45;&gt;Node3 -->
<g id="edge2" class="edge">
<title>Node2&#45;&gt;Node3</title>
<path fill="none" stroke="midnightblue" d="M355.36,-120.93C392.43,-117.81 443.99,-111.7 488,-100 505.72,-95.29 524.74,-87.62 539.84,-80.87"/>
<polygon fill="midnightblue" stroke="midnightblue" points="541.51,-83.95 549.14,-76.6 538.59,-77.59 541.51,-83.95"/>
</g>
<!-- Node5 -->
<g id="node5" class="node">
<title>Node5</title>
<g id="a_node5"><a xlink:href="exif-log_8c.html#acd0808d6d5be73f28059797c2e2e67dc" target="_top" xlink:title="Delete instance of ExifLog.">
<polygon fill="white" stroke="black" points="264.5,-38.5 264.5,-57.5 344.5,-57.5 344.5,-38.5 264.5,-38.5"/>
<text text-anchor="middle" x="304.5" y="-45.5" font-family="Helvetica,sans-Serif" font-size="10.00">exif_log_free</text>
</a>
</g>
</g>
<!-- Node4&#45;&gt;Node5 -->
<g id="edge4" class="edge">
<title>Node4&#45;&gt;Node5</title>
<path fill="none" stroke="midnightblue" d="M218.1,-48C229.66,-48 242.29,-48 254.21,-48"/>
<polygon fill="midnightblue" stroke="midnightblue" points="254.46,-51.5 264.46,-48 254.46,-44.5 254.46,-51.5"/>
</g>
<!-- Node5&#45;&gt;Node3 -->
<g id="edge5" class="edge">
<title>Node5&#45;&gt;Node3</title>
<path fill="none" stroke="midnightblue" d="M344.59,-50.82C389.44,-54.06 463.28,-59.4 513.81,-63.05"/>
<polygon fill="midnightblue" stroke="midnightblue" points="513.68,-66.55 523.91,-63.78 514.19,-59.57 513.68,-66.55"/>
</g>
<!-- Node5&#45;&gt;Node6 -->
<g id="edge6" class="edge">
<title>Node5&#45;&gt;Node6</title>
<path fill="none" stroke="midnightblue" d="M339.06,-38.41C356.07,-33.55 376.93,-27.59 395.14,-22.39"/>
<polygon fill="midnightblue" stroke="midnightblue" points="396.3,-25.7 404.95,-19.59 394.37,-18.97 396.3,-25.7"/>
</g>
<!-- Node6&#45;&gt;Node3 -->
<g id="edge7" class="edge">
<title>Node6&#45;&gt;Node3</title>
<path fill="none" stroke="midnightblue" d="M461.92,-19.54C482.69,-28.79 514.4,-42.91 537.84,-53.35"/>
<polygon fill="midnightblue" stroke="midnightblue" points="536.45,-56.56 547.01,-57.43 539.29,-50.16 536.45,-56.56"/>
</g>
</g>
</svg>
