<?xml version="1.0" encoding="UTF-8" standalone="no"?>
<!DOCTYPE svg PUBLIC "-//W3C//DTD SVG 1.1//EN"
 "http://www.w3.org/Graphics/SVG/1.1/DTD/svg11.dtd">
<!-- Generated by graphviz version 2.44.1 (0)
 -->
<!-- Title: exif_mnote_data_pentax_get_value Pages: 1 -->
<svg width="550pt" height="118pt"
 viewBox="0.00 0.00 550.00 117.68" xmlns="http://www.w3.org/2000/svg" xmlns:xlink="http://www.w3.org/1999/xlink">
<g id="graph0" class="graph" transform="scale(1 1) rotate(0) translate(4 113.68)">
<title>exif_mnote_data_pentax_get_value</title>
<polygon fill="white" stroke="transparent" points="-4,4 -4,-113.68 546,-113.68 546,4 -4,4"/>
<!-- Node1 -->
<g id="node1" class="node">
<title>Node1</title>
<g id="a_node1"><a xlink:title=" ">
<polygon fill="#bfbfbf" stroke="black" points="0,-27.68 0,-57.68 138,-57.68 138,-27.68 0,-27.68"/>
<text text-anchor="start" x="8" y="-45.68" font-family="Helvetica,sans-Serif" font-size="10.00">exif_mnote_data_pentax</text>
<text text-anchor="middle" x="69" y="-34.68" font-family="Helvetica,sans-Serif" font-size="10.00">_get_value</text>
</a>
</g>
</g>
<!-- Node2 -->
<g id="node2" class="node">
<title>Node2</title>
<g id="a_node2"><a xlink:href="mnote-pentax-entry_8c.html#adb79ea438e2552d504077606912af8ac" target="_top" xlink:title=" ">
<polygon fill="white" stroke="black" points="174,-27.68 174,-57.68 292,-57.68 292,-27.68 174,-27.68"/>
<text text-anchor="start" x="182" y="-45.68" font-family="Helvetica,sans-Serif" font-size="10.00">mnote_pentax_entry</text>
<text text-anchor="middle" x="233" y="-34.68" font-family="Helvetica,sans-Serif" font-size="10.00">_get_value</text>
</a>
</g>
</g>
<!-- Node1&#45;&gt;Node2 -->
<g id="edge1" class="edge">
<title>Node1&#45;&gt;Node2</title>
<path fill="none" stroke="midnightblue" d="M138.23,-42.68C146.66,-42.68 155.27,-42.68 163.69,-42.68"/>
<polygon fill="midnightblue" stroke="midnightblue" points="163.85,-46.18 173.85,-42.68 163.85,-39.18 163.85,-46.18"/>
</g>
<!-- Node3 -->
<g id="node3" class="node">
<title>Node3</title>
<g id="a_node3"><a xlink:href="exif-utils_8c.html#a4ad94614630897766dd0a5c9bc2a59bf" target="_top" xlink:title="Retrieve an ExifLong value from memory.">
<polygon fill="white" stroke="black" points="329.5,-90.18 329.5,-109.18 412.5,-109.18 412.5,-90.18 329.5,-90.18"/>
<text text-anchor="middle" x="371" y="-97.18" font-family="Helvetica,sans-Serif" font-size="10.00">exif_get_long</text>
</a>
</g>
</g>
<!-- Node2&#45;&gt;Node3 -->
<g id="edge2" class="edge">
<title>Node2&#45;&gt;Node3</title>
<path fill="none" stroke="midnightblue" d="M270.09,-57.8C291.05,-66.59 317.25,-77.57 337.56,-86.08"/>
<polygon fill="midnightblue" stroke="midnightblue" points="336.43,-89.4 347.01,-90.04 339.14,-82.95 336.43,-89.4"/>
</g>
<!-- Node4 -->
<g id="node4" class="node">
<title>Node4</title>
<g id="a_node4"><a xlink:href="exif-utils_8c.html#a56b96f076a13da6ed926e1ef29cb2dc3" target="_top" xlink:title="Retrieve an ExifSLong value from memory.">
<polygon fill="white" stroke="black" points="452,-61.18 452,-80.18 540,-80.18 540,-61.18 452,-61.18"/>
<text text-anchor="middle" x="496" y="-68.18" font-family="Helvetica,sans-Serif" font-size="10.00">exif_get_slong</text>
</a>
</g>
</g>
<!-- Node2&#45;&gt;Node4 -->
<g id="edge6" class="edge">
<title>Node2&#45;&gt;Node4</title>
<path fill="none" stroke="midnightblue" d="M292.25,-48.93C337.04,-53.73 398.4,-60.31 441.86,-64.98"/>
<polygon fill="midnightblue" stroke="midnightblue" points="441.63,-68.47 451.95,-66.06 442.38,-61.51 441.63,-68.47"/>
</g>
<!-- Node5 -->
<g id="node5" class="node">
<title>Node5</title>
<g id="a_node5"><a xlink:href="exif-utils_8c.html#a4b4acf537a8c6b9405e7b53be868e4d7" target="_top" xlink:title="Retrieve an ExifShort value from memory.">
<polygon fill="white" stroke="black" points="328,-14.18 328,-33.18 414,-33.18 414,-14.18 328,-14.18"/>
<text text-anchor="middle" x="371" y="-21.18" font-family="Helvetica,sans-Serif" font-size="10.00">exif_get_short</text>
</a>
</g>
</g>
<!-- Node2&#45;&gt;Node5 -->
<g id="edge4" class="edge">
<title>Node2&#45;&gt;Node5</title>
<path fill="none" stroke="midnightblue" d="M292.07,-34.56C300.59,-33.37 309.32,-32.15 317.72,-30.98"/>
<polygon fill="midnightblue" stroke="midnightblue" points="318.33,-34.43 327.75,-29.58 317.37,-27.5 318.33,-34.43"/>
</g>
<!-- Node6 -->
<g id="node6" class="node">
<title>Node6</title>
<g id="a_node6"><a xlink:href="exif-utils_8c.html#a6baf094a71392f9cea23ad633ec13c8b" target="_top" xlink:title="Retrieve an ExifSShort value from memory.">
<polygon fill="white" stroke="black" points="450,-4.18 450,-23.18 542,-23.18 542,-4.18 450,-4.18"/>
<text text-anchor="middle" x="496" y="-11.18" font-family="Helvetica,sans-Serif" font-size="10.00">exif_get_sshort</text>
</a>
</g>
</g>
<!-- Node2&#45;&gt;Node6 -->
<g id="edge7" class="edge">
<title>Node2&#45;&gt;Node6</title>
<path fill="none" stroke="midnightblue" d="M263.16,-27.49C281.28,-18.93 305.36,-9.08 328,-4.68 364.78,2.48 406.91,0.13 439.65,-3.95"/>
<polygon fill="midnightblue" stroke="midnightblue" points="439.56,-7.47 449.93,-5.33 440.49,-0.53 439.56,-7.47"/>
</g>
<!-- Node3&#45;&gt;Node4 -->
<g id="edge3" class="edge">
<title>Node3&#45;&gt;Node4</title>
<path fill="none" stroke="midnightblue" d="M412.62,-90.1C422.8,-87.7 433.84,-85.1 444.44,-82.6"/>
<polygon fill="midnightblue" stroke="midnightblue" points="445.5,-85.94 454.43,-80.24 443.89,-79.13 445.5,-85.94"/>
</g>
<!-- Node5&#45;&gt;Node6 -->
<g id="edge5" class="edge">
<title>Node5&#45;&gt;Node6</title>
<path fill="none" stroke="midnightblue" d="M414.33,-20.24C422.43,-19.58 431.03,-18.88 439.47,-18.19"/>
<polygon fill="midnightblue" stroke="midnightblue" points="439.97,-21.66 449.65,-17.36 439.4,-14.69 439.97,-21.66"/>
</g>
</g>
</svg>
