<?xml version="1.0" encoding="UTF-8" standalone="no"?>
<!DOCTYPE svg PUBLIC "-//W3C//DTD SVG 1.1//EN"
 "http://www.w3.org/Graphics/SVG/1.1/DTD/svg11.dtd">
<!-- Generated by graphviz version 7.0.1 (0)
 -->
<!-- Title: libexif/fuji/exif&#45;mnote&#45;data&#45;fuji.c Pages: 1 -->
<svg width="896pt" height="577pt"
 viewBox="0.00 0.00 895.50 577.00" xmlns="http://www.w3.org/2000/svg" xmlns:xlink="http://www.w3.org/1999/xlink">
<g id="graph0" class="graph" transform="scale(1 1) rotate(0) translate(4 573)">
<title>libexif/fuji/exif&#45;mnote&#45;data&#45;fuji.c</title>
<!-- Node1 -->
<g id="Node000001" class="node">
<title>Node1</title>
<g id="a_Node000001"><a xlink:title=" ">
<polygon fill="#999999" stroke="#666666" points="259.5,-569 137.5,-569 137.5,-539 259.5,-539 259.5,-569"/>
<text text-anchor="start" x="145.5" y="-557" font-family="Helvetica,sans-Serif" font-size="10.00">libexif/fuji/exif&#45;mnote</text>
<text text-anchor="middle" x="198.5" y="-546" font-family="Helvetica,sans-Serif" font-size="10.00">&#45;data&#45;fuji.c</text>
</a>
</g>
</g>
<!-- Node2 -->
<g id="Node000002" class="node">
<title>Node2</title>
<g id="a_Node000002"><a xlink:title=" ">
<polygon fill="#e0e0e0" stroke="#999999" points="53,-503 0,-503 0,-484 53,-484 53,-503"/>
<text text-anchor="middle" x="26.5" y="-491" font-family="Helvetica,sans-Serif" font-size="10.00">stdlib.h</text>
</a>
</g>
</g>
<!-- Node1&#45;&gt;Node2 -->
<g id="edge1_Node000001_Node000002" class="edge">
<title>Node1&#45;&gt;Node2</title>
<g id="a_edge1_Node000001_Node000002"><a xlink:title=" ">
<path fill="none" stroke="#63b8ff" d="M155.98,-538.54C127.57,-528.87 90.56,-516.29 63.38,-507.04"/>
<polygon fill="#63b8ff" stroke="#63b8ff" points="64.79,-503.83 54.19,-503.92 62.54,-510.45 64.79,-503.83"/>
</a>
</g>
</g>
<!-- Node3 -->
<g id="Node000003" class="node">
<title>Node3</title>
<g id="a_Node000003"><a xlink:title=" ">
<polygon fill="#e0e0e0" stroke="#999999" points="124,-503 71,-503 71,-484 124,-484 124,-503"/>
<text text-anchor="middle" x="97.5" y="-491" font-family="Helvetica,sans-Serif" font-size="10.00">string.h</text>
</a>
</g>
</g>
<!-- Node1&#45;&gt;Node3 -->
<g id="edge2_Node000001_Node000003" class="edge">
<title>Node1&#45;&gt;Node3</title>
<g id="a_edge2_Node000001_Node000003"><a xlink:title=" ">
<path fill="none" stroke="#63b8ff" d="M173.53,-538.54C158.06,-529.58 138.25,-518.1 122.73,-509.11"/>
<polygon fill="#63b8ff" stroke="#63b8ff" points="124.49,-506.09 114.08,-504.1 120.98,-512.15 124.49,-506.09"/>
</a>
</g>
</g>
<!-- Node4 -->
<g id="Node000004" class="node">
<title>Node4</title>
<g id="a_Node000004"><a xlink:title=" ">
<polygon fill="#e0e0e0" stroke="#999999" points="198.5,-503 142.5,-503 142.5,-484 198.5,-484 198.5,-503"/>
<text text-anchor="middle" x="170.5" y="-491" font-family="Helvetica,sans-Serif" font-size="10.00">config.h</text>
</a>
</g>
</g>
<!-- Node1&#45;&gt;Node4 -->
<g id="edge3_Node000001_Node000004" class="edge">
<title>Node1&#45;&gt;Node4</title>
<g id="a_edge3_Node000001_Node000004"><a xlink:title=" ">
<path fill="none" stroke="#63b8ff" d="M191.58,-538.54C187.97,-531 183.51,-521.67 179.62,-513.55"/>
<polygon fill="#63b8ff" stroke="#63b8ff" points="182.78,-512.05 175.31,-504.54 176.47,-515.07 182.78,-512.05"/>
</a>
</g>
</g>
<!-- Node5 -->
<g id="Node000005" class="node">
<title>Node5</title>
<g id="a_Node000005"><a xlink:href="exif-byte-order_8h.html" target="_top" xlink:title="Defines the ExifByteOrder enum and the associated functions.">
<polygon fill="white" stroke="#666666" points="446,-19 315,-19 315,0 446,0 446,-19"/>
<text text-anchor="middle" x="380.5" y="-7" font-family="Helvetica,sans-Serif" font-size="10.00">libexif/exif&#45;byte&#45;order.h</text>
</a>
</g>
</g>
<!-- Node1&#45;&gt;Node5 -->
<g id="edge4_Node000001_Node000005" class="edge">
<title>Node1&#45;&gt;Node5</title>
<g id="a_edge4_Node000001_Node000005"><a xlink:title=" ">
<path fill="none" stroke="#63b8ff" d="M204.17,-538.6C212.35,-516.48 226.5,-472.63 226.5,-434 226.5,-434 226.5,-434 226.5,-118.5 226.5,-66.46 286.18,-37.36 331.23,-22.8"/>
<polygon fill="#63b8ff" stroke="#63b8ff" points="332.05,-26.21 340.59,-19.94 330,-19.52 332.05,-26.21"/>
</a>
</g>
</g>
<!-- Node6 -->
<g id="Node000006" class="node">
<title>Node6</title>
<g id="a_Node000006"><a xlink:href="exif-utils_8h.html" target="_top" xlink:title="EXIF data manipulation functions and types.">
<polygon fill="white" stroke="#666666" points="697,-74 596,-74 596,-55 697,-55 697,-74"/>
<text text-anchor="middle" x="646.5" y="-62" font-family="Helvetica,sans-Serif" font-size="10.00">libexif/exif&#45;utils.h</text>
</a>
</g>
</g>
<!-- Node1&#45;&gt;Node6 -->
<g id="edge5_Node000001_Node000006" class="edge">
<title>Node1&#45;&gt;Node6</title>
<g id="a_edge5_Node000001_Node000006"><a xlink:title=" ">
<path fill="none" stroke="#63b8ff" d="M212.82,-538.66C232.23,-517.62 264.5,-476.29 264.5,-434 264.5,-434 264.5,-434 264.5,-300 264.5,-211.71 255.29,-167.25 322.5,-110 360.84,-77.34 501.64,-68.58 584.48,-66.27"/>
<polygon fill="#63b8ff" stroke="#63b8ff" points="584.34,-69.78 594.25,-66.03 584.17,-62.78 584.34,-69.78"/>
</a>
</g>
</g>
<!-- Node9 -->
<g id="Node000009" class="node">
<title>Node9</title>
<g id="a_Node000009"><a xlink:href="exif-mnote-data-fuji_8h.html" target="_top" xlink:title=" ">
<polygon fill="white" stroke="#666666" points="748,-503 625,-503 625,-484 748,-484 748,-503"/>
<text text-anchor="middle" x="686.5" y="-491" font-family="Helvetica,sans-Serif" font-size="10.00">exif&#45;mnote&#45;data&#45;fuji.h</text>
</a>
</g>
</g>
<!-- Node1&#45;&gt;Node9 -->
<g id="edge9_Node000001_Node000009" class="edge">
<title>Node1&#45;&gt;Node9</title>
<g id="a_edge9_Node000001_Node000009"><a xlink:title=" ">
<path fill="none" stroke="#63b8ff" d="M259.81,-545.65C349.72,-534.87 517.07,-514.81 613.3,-503.28"/>
<polygon fill="#63b8ff" stroke="#63b8ff" points="613.66,-506.76 623.17,-502.09 612.82,-499.81 613.66,-506.76"/>
</a>
</g>
</g>
<!-- Node6&#45;&gt;Node5 -->
<g id="edge6_Node000006_Node000005" class="edge">
<title>Node6&#45;&gt;Node5</title>
<g id="a_edge6_Node000006_Node000005"><a xlink:title=" ">
<path fill="none" stroke="#63b8ff" d="M601.38,-54.51C555.86,-45.44 485.49,-31.42 436.45,-21.65"/>
<polygon fill="#63b8ff" stroke="#63b8ff" points="437.38,-18.26 426.88,-19.74 436.01,-25.13 437.38,-18.26"/>
</a>
</g>
</g>
<!-- Node7 -->
<g id="Node000007" class="node">
<title>Node7</title>
<g id="a_Node000007"><a xlink:href="exif-format_8h.html" target="_top" xlink:title="Handling native EXIF data types.">
<polygon fill="white" stroke="#666666" points="804,-19 691,-19 691,0 804,0 804,-19"/>
<text text-anchor="middle" x="747.5" y="-7" font-family="Helvetica,sans-Serif" font-size="10.00">libexif/exif&#45;format.h</text>
</a>
</g>
</g>
<!-- Node6&#45;&gt;Node7 -->
<g id="edge7_Node000006_Node000007" class="edge">
<title>Node6&#45;&gt;Node7</title>
<g id="a_edge7_Node000006_Node000007"><a xlink:title=" ">
<path fill="none" stroke="#63b8ff" d="M663.63,-54.51C679.25,-46.31 702.58,-34.07 720.67,-24.58"/>
<polygon fill="#63b8ff" stroke="#63b8ff" points="722.05,-27.81 729.28,-20.06 718.8,-21.61 722.05,-27.81"/>
</a>
</g>
</g>
<!-- Node8 -->
<g id="Node000008" class="node">
<title>Node8</title>
<g id="a_Node000008"><a xlink:title=" ">
<polygon fill="#e0e0e0" stroke="#999999" points="672.5,-19 580.5,-19 580.5,0 672.5,0 672.5,-19"/>
<text text-anchor="middle" x="626.5" y="-7" font-family="Helvetica,sans-Serif" font-size="10.00">libexif/_stdint.h</text>
</a>
</g>
</g>
<!-- Node6&#45;&gt;Node8 -->
<g id="edge8_Node000006_Node000008" class="edge">
<title>Node6&#45;&gt;Node8</title>
<g id="a_edge8_Node000006_Node000008"><a xlink:title=" ">
<path fill="none" stroke="#63b8ff" d="M643.2,-54.75C640.67,-48.04 637.07,-38.52 633.87,-30.02"/>
<polygon fill="#63b8ff" stroke="#63b8ff" points="637.21,-28.98 630.41,-20.86 630.66,-31.45 637.21,-28.98"/>
</a>
</g>
</g>
<!-- Node10 -->
<g id="Node000010" class="node">
<title>Node10</title>
<g id="a_Node000010"><a xlink:href="exif-mnote-data_8h.html" target="_top" xlink:title="Handling EXIF MakerNote tags.">
<polygon fill="white" stroke="#666666" points="783,-250 680,-250 680,-220 783,-220 783,-250"/>
<text text-anchor="start" x="688" y="-238" font-family="Helvetica,sans-Serif" font-size="10.00">libexif/exif&#45;mnote</text>
<text text-anchor="middle" x="731.5" y="-227" font-family="Helvetica,sans-Serif" font-size="10.00">&#45;data.h</text>
</a>
</g>
</g>
<!-- Node9&#45;&gt;Node10 -->
<g id="edge10_Node000009_Node000010" class="edge">
<title>Node9&#45;&gt;Node10</title>
<g id="a_edge10_Node000009_Node000010"><a xlink:title=" ">
<path fill="none" stroke="#63b8ff" d="M686.2,-483.74C685.84,-469.78 685.61,-441.63 688.5,-418 695.78,-358.38 702.95,-344.28 717.5,-286 719.52,-277.89 721.92,-269.1 724.15,-261.18"/>
<polygon fill="#63b8ff" stroke="#63b8ff" points="727.44,-262.42 726.82,-251.84 720.71,-260.49 727.44,-262.42"/>
</a>
</g>
</g>
<!-- Node14 -->
<g id="Node000014" class="node">
<title>Node14</title>
<g id="a_Node000014"><a xlink:href="exif-mnote-data-priv_8h.html" target="_top" xlink:title=" ">
<polygon fill="white" stroke="#666666" points="829,-316 726,-316 726,-286 829,-286 829,-316"/>
<text text-anchor="start" x="734" y="-304" font-family="Helvetica,sans-Serif" font-size="10.00">libexif/exif&#45;mnote</text>
<text text-anchor="middle" x="777.5" y="-293" font-family="Helvetica,sans-Serif" font-size="10.00">&#45;data&#45;priv.h</text>
</a>
</g>
</g>
<!-- Node9&#45;&gt;Node14 -->
<g id="edge15_Node000009_Node000014" class="edge">
<title>Node9&#45;&gt;Node14</title>
<g id="a_edge15_Node000009_Node000014"><a xlink:title=" ">
<path fill="none" stroke="#63b8ff" d="M687.32,-483.64C689.81,-460.47 698.78,-396.78 725.5,-352 731.71,-341.59 740.65,-331.91 749.37,-323.89"/>
<polygon fill="#63b8ff" stroke="#63b8ff" points="751.53,-326.66 756.77,-317.46 746.93,-321.38 751.53,-326.66"/>
</a>
</g>
</g>
<!-- Node15 -->
<g id="Node000015" class="node">
<title>Node15</title>
<g id="a_Node000015"><a xlink:href="exif-data_8h.html" target="_top" xlink:title="Defines the ExifData type and the associated functions.">
<polygon fill="white" stroke="#666666" points="615.5,-310.5 513.5,-310.5 513.5,-291.5 615.5,-291.5 615.5,-310.5"/>
<text text-anchor="middle" x="564.5" y="-298.5" font-family="Helvetica,sans-Serif" font-size="10.00">libexif/exif&#45;data.h</text>
</a>
</g>
</g>
<!-- Node9&#45;&gt;Node15 -->
<g id="edge19_Node000009_Node000015" class="edge">
<title>Node9&#45;&gt;Node15</title>
<g id="a_edge19_Node000009_Node000015"><a xlink:title=" ">
<path fill="none" stroke="#63b8ff" d="M679.69,-483.8C672.84,-474.96 662.1,-460.76 653.5,-448 623.34,-403.22 591.12,-348.39 574.98,-320.38"/>
<polygon fill="#63b8ff" stroke="#63b8ff" points="578.21,-318.98 570.2,-312.04 572.14,-322.46 578.21,-318.98"/>
</a>
</g>
</g>
<!-- Node21 -->
<g id="Node000021" class="node">
<title>Node21</title>
<g id="a_Node000021"><a xlink:href="mnote-fuji-entry_8h.html" target="_top" xlink:title=" ">
<polygon fill="white" stroke="#666666" points="835,-448 734,-448 734,-418 835,-418 835,-448"/>
<text text-anchor="start" x="742" y="-436" font-family="Helvetica,sans-Serif" font-size="10.00">libexif/fuji/mnote</text>
<text text-anchor="middle" x="784.5" y="-425" font-family="Helvetica,sans-Serif" font-size="10.00">&#45;fuji&#45;entry.h</text>
</a>
</g>
</g>
<!-- Node9&#45;&gt;Node21 -->
<g id="edge38_Node000009_Node000021" class="edge">
<title>Node9&#45;&gt;Node21</title>
<g id="a_edge38_Node000009_Node000021"><a xlink:title=" ">
<path fill="none" stroke="#63b8ff" d="M696.37,-483.62C707.91,-475.74 727.18,-463.96 744.82,-453.85"/>
<polygon fill="#63b8ff" stroke="#63b8ff" points="746.09,-457.15 753.08,-449.18 742.65,-451.05 746.09,-457.15"/>
</a>
</g>
</g>
<!-- Node11 -->
<g id="Node000011" class="node">
<title>Node11</title>
<g id="a_Node000011"><a xlink:href="exif-log_8h.html" target="_top" xlink:title="Log message infrastructure.">
<polygon fill="white" stroke="#666666" points="814,-184 719,-184 719,-165 814,-165 814,-184"/>
<text text-anchor="middle" x="766.5" y="-172" font-family="Helvetica,sans-Serif" font-size="10.00">libexif/exif&#45;log.h</text>
</a>
</g>
</g>
<!-- Node10&#45;&gt;Node11 -->
<g id="edge11_Node000010_Node000011" class="edge">
<title>Node10&#45;&gt;Node11</title>
<g id="a_edge11_Node000010_Node000011"><a xlink:title=" ">
<path fill="none" stroke="#63b8ff" d="M740.15,-219.54C744.77,-211.82 750.5,-202.24 755.44,-193.99"/>
<polygon fill="#63b8ff" stroke="#63b8ff" points="758.4,-195.85 760.53,-185.47 752.39,-192.26 758.4,-195.85"/>
</a>
</g>
</g>
<!-- Node12 -->
<g id="Node000012" class="node">
<title>Node12</title>
<g id="a_Node000012"><a xlink:href="exif-mem_8h.html" target="_top" xlink:title="Define the ExifMem data type and the associated functions.">
<polygon fill="white" stroke="#666666" points="698.5,-129 592.5,-129 592.5,-110 698.5,-110 698.5,-129"/>
<text text-anchor="middle" x="645.5" y="-117" font-family="Helvetica,sans-Serif" font-size="10.00">libexif/exif&#45;mem.h</text>
</a>
</g>
</g>
<!-- Node11&#45;&gt;Node12 -->
<g id="edge12_Node000011_Node000012" class="edge">
<title>Node11&#45;&gt;Node12</title>
<g id="a_edge12_Node000011_Node000012"><a xlink:title=" ">
<path fill="none" stroke="#63b8ff" d="M745.97,-164.51C726.82,-156.12 698,-143.5 676.13,-133.92"/>
<polygon fill="#63b8ff" stroke="#63b8ff" points="677.67,-130.77 667.11,-129.97 674.86,-137.18 677.67,-130.77"/>
</a>
</g>
</g>
<!-- Node13 -->
<g id="Node000013" class="node">
<title>Node13</title>
<g id="a_Node000013"><a xlink:title=" ">
<polygon fill="#e0e0e0" stroke="#999999" points="810.5,-129 754.5,-129 754.5,-110 810.5,-110 810.5,-129"/>
<text text-anchor="middle" x="782.5" y="-117" font-family="Helvetica,sans-Serif" font-size="10.00">stdarg.h</text>
</a>
</g>
</g>
<!-- Node11&#45;&gt;Node13 -->
<g id="edge14_Node000011_Node000013" class="edge">
<title>Node11&#45;&gt;Node13</title>
<g id="a_edge14_Node000011_Node000013"><a xlink:title=" ">
<path fill="none" stroke="#63b8ff" d="M769.14,-164.75C771.14,-158.11 773.98,-148.73 776.52,-140.31"/>
<polygon fill="#63b8ff" stroke="#63b8ff" points="779.82,-141.48 779.36,-130.89 773.12,-139.45 779.82,-141.48"/>
</a>
</g>
</g>
<!-- Node12&#45;&gt;Node6 -->
<g id="edge13_Node000012_Node000006" class="edge">
<title>Node12&#45;&gt;Node6</title>
<g id="a_edge13_Node000012_Node000006"><a xlink:title=" ">
<path fill="none" stroke="#63b8ff" d="M645.67,-109.75C645.79,-103.27 645.96,-94.16 646.12,-85.9"/>
<polygon fill="#63b8ff" stroke="#63b8ff" points="649.61,-86.02 646.3,-75.96 642.61,-85.89 649.61,-86.02"/>
</a>
</g>
</g>
<!-- Node14&#45;&gt;Node5 -->
<g id="edge17_Node000014_Node000005" class="edge">
<title>Node14&#45;&gt;Node5</title>
<g id="a_edge17_Node000014_Node000005"><a xlink:title=" ">
<path fill="none" stroke="#63b8ff" d="M787.95,-285.68C812.07,-250.79 866.09,-160.55 819.5,-110 784.14,-71.64 638.35,-85.68 587.5,-74 526.38,-59.96 457.02,-37.26 416.11,-23.14"/>
<polygon fill="#63b8ff" stroke="#63b8ff" points="417.38,-19.88 406.79,-19.9 415.08,-26.49 417.38,-19.88"/>
</a>
</g>
</g>
<!-- Node14&#45;&gt;Node10 -->
<g id="edge16_Node000014_Node000010" class="edge">
<title>Node14&#45;&gt;Node10</title>
<g id="a_edge16_Node000014_Node000010"><a xlink:title=" ">
<path fill="none" stroke="#63b8ff" d="M767.29,-285.8C761.69,-278.01 754.61,-268.16 748.23,-259.28"/>
<polygon fill="#63b8ff" stroke="#63b8ff" points="751.24,-257.47 742.56,-251.39 745.56,-261.56 751.24,-257.47"/>
</a>
</g>
</g>
<!-- Node14&#45;&gt;Node11 -->
<g id="edge18_Node000014_Node000011" class="edge">
<title>Node14&#45;&gt;Node11</title>
<g id="a_edge18_Node000014_Node000011"><a xlink:title=" ">
<path fill="none" stroke="#63b8ff" d="M784.03,-285.68C790.5,-269.56 798.63,-242.64 792.5,-220 789.99,-210.74 785.02,-201.42 780.09,-193.73"/>
<polygon fill="#63b8ff" stroke="#63b8ff" points="783.06,-191.87 774.49,-185.64 777.31,-195.86 783.06,-191.87"/>
</a>
</g>
</g>
<!-- Node15&#45;&gt;Node5 -->
<g id="edge20_Node000015_Node000005" class="edge">
<title>Node15&#45;&gt;Node5</title>
<g id="a_edge20_Node000015_Node000005"><a xlink:title=" ">
<path fill="none" stroke="#63b8ff" d="M513.15,-296.39C474.65,-291.31 422.59,-279.13 386.5,-250 333.26,-207.03 304.66,-176.05 322.5,-110 330.94,-78.75 351.91,-47.23 366.17,-28.28"/>
<polygon fill="#63b8ff" stroke="#63b8ff" points="368.81,-30.6 372.18,-20.55 363.28,-26.3 368.81,-30.6"/>
</a>
</g>
</g>
<!-- Node15&#45;&gt;Node10 -->
<g id="edge36_Node000015_Node000010" class="edge">
<title>Node15&#45;&gt;Node10</title>
<g id="a_edge36_Node000015_Node000010"><a xlink:title=" ">
<path fill="none" stroke="#63b8ff" d="M587.72,-291.1C612.25,-281.7 651.65,-266.6 683,-254.59"/>
<polygon fill="#63b8ff" stroke="#63b8ff" points="684.22,-257.87 692.31,-251.02 681.72,-251.33 684.22,-257.87"/>
</a>
</g>
</g>
<!-- Node15&#45;&gt;Node11 -->
<g id="edge23_Node000015_Node000011" class="edge">
<title>Node15&#45;&gt;Node11</title>
<g id="a_edge23_Node000015_Node000011"><a xlink:title=" ">
<path fill="none" stroke="#63b8ff" d="M576.6,-291.23C590.24,-281.3 613.06,-264.62 632.5,-250 649.98,-236.86 652.82,-231.37 671.5,-220 691.27,-207.97 714.81,-196.91 733.52,-188.84"/>
<polygon fill="#63b8ff" stroke="#63b8ff" points="734.67,-192.15 742.52,-185.03 731.94,-185.7 734.67,-192.15"/>
</a>
</g>
</g>
<!-- Node15&#45;&gt;Node12 -->
<g id="edge37_Node000015_Node000012" class="edge">
<title>Node15&#45;&gt;Node12</title>
<g id="a_edge37_Node000015_Node000012"><a xlink:title=" ">
<path fill="none" stroke="#63b8ff" d="M543.93,-291.06C528.02,-282.91 507.13,-269.2 497.5,-250 491.52,-238.08 491.44,-231.87 497.5,-220 519.9,-176.15 571.59,-148.38 607.53,-133.63"/>
<polygon fill="#63b8ff" stroke="#63b8ff" points="608.69,-136.94 616.72,-130.03 606.14,-130.42 608.69,-136.94"/>
</a>
</g>
</g>
<!-- Node16 -->
<g id="Node000016" class="node">
<title>Node16</title>
<g id="a_Node000016"><a xlink:href="exif-data-type_8h.html" target="_top" xlink:title=" ">
<polygon fill="white" stroke="#666666" points="570.5,-129 442.5,-129 442.5,-110 570.5,-110 570.5,-129"/>
<text text-anchor="middle" x="506.5" y="-117" font-family="Helvetica,sans-Serif" font-size="10.00">libexif/exif&#45;data&#45;type.h</text>
</a>
</g>
</g>
<!-- Node15&#45;&gt;Node16 -->
<g id="edge21_Node000015_Node000016" class="edge">
<title>Node15&#45;&gt;Node16</title>
<g id="a_edge21_Node000015_Node000016"><a xlink:title=" ">
<path fill="none" stroke="#63b8ff" d="M532.41,-291.03C507.73,-283.04 473.71,-269.56 448.5,-250 419.21,-227.27 409.48,-219.08 397.5,-184 388.52,-157.7 415.23,-141.87 444.46,-132.59"/>
<polygon fill="#63b8ff" stroke="#63b8ff" points="445.19,-136.02 453.82,-129.88 443.24,-129.3 445.19,-136.02"/>
</a>
</g>
</g>
<!-- Node17 -->
<g id="Node000017" class="node">
<title>Node17</title>
<g id="a_Node000017"><a xlink:href="exif-ifd_8h.html" target="_top" xlink:title=" ">
<polygon fill="white" stroke="#666666" points="424,-129 331,-129 331,-110 424,-110 424,-129"/>
<text text-anchor="middle" x="377.5" y="-117" font-family="Helvetica,sans-Serif" font-size="10.00">libexif/exif&#45;ifd.h</text>
</a>
</g>
</g>
<!-- Node15&#45;&gt;Node17 -->
<g id="edge22_Node000015_Node000017" class="edge">
<title>Node15&#45;&gt;Node17</title>
<g id="a_edge22_Node000015_Node000017"><a xlink:title=" ">
<path fill="none" stroke="#63b8ff" d="M513.33,-295.64C479.8,-290.15 437.37,-277.79 410.5,-250 381.69,-220.2 377.02,-168.93 376.83,-140.67"/>
<polygon fill="#63b8ff" stroke="#63b8ff" points="380.32,-141.02 376.96,-130.97 373.32,-140.92 380.32,-141.02"/>
</a>
</g>
</g>
<!-- Node18 -->
<g id="Node000018" class="node">
<title>Node18</title>
<g id="a_Node000018"><a xlink:href="exif-tag_8h.html" target="_top" xlink:title="Handling EXIF tags.">
<polygon fill="white" stroke="#666666" points="502.5,-184 406.5,-184 406.5,-165 502.5,-165 502.5,-184"/>
<text text-anchor="middle" x="454.5" y="-172" font-family="Helvetica,sans-Serif" font-size="10.00">libexif/exif&#45;tag.h</text>
</a>
</g>
</g>
<!-- Node15&#45;&gt;Node18 -->
<g id="edge24_Node000015_Node000018" class="edge">
<title>Node15&#45;&gt;Node18</title>
<g id="a_edge24_Node000015_Node000018"><a xlink:title=" ">
<path fill="none" stroke="#63b8ff" d="M526.86,-291.01C504.8,-283.72 478.42,-271.08 463.5,-250 452.34,-234.22 451.09,-211.71 452.01,-195.57"/>
<polygon fill="#63b8ff" stroke="#63b8ff" points="455.49,-196.03 452.93,-185.75 448.52,-195.38 455.49,-196.03"/>
</a>
</g>
</g>
<!-- Node19 -->
<g id="Node000019" class="node">
<title>Node19</title>
<g id="a_Node000019"><a xlink:href="exif-content_8h.html" target="_top" xlink:title="Handling EXIF IFDs.">
<polygon fill="white" stroke="#666666" points="623,-244.5 506,-244.5 506,-225.5 623,-225.5 623,-244.5"/>
<text text-anchor="middle" x="564.5" y="-232.5" font-family="Helvetica,sans-Serif" font-size="10.00">libexif/exif&#45;content.h</text>
</a>
</g>
</g>
<!-- Node15&#45;&gt;Node19 -->
<g id="edge27_Node000015_Node000019" class="edge">
<title>Node15&#45;&gt;Node19</title>
<g id="a_edge27_Node000015_Node000019"><a xlink:title=" ">
<path fill="none" stroke="#63b8ff" d="M559.66,-291.1C557.79,-282.12 557.29,-267.95 558.17,-256.22"/>
<polygon fill="#63b8ff" stroke="#63b8ff" points="561.64,-256.69 559.47,-246.32 554.7,-255.78 561.64,-256.69"/>
</a>
</g>
</g>
<!-- Node18&#45;&gt;Node16 -->
<g id="edge26_Node000018_Node000016" class="edge">
<title>Node18&#45;&gt;Node16</title>
<g id="a_edge26_Node000018_Node000016"><a xlink:title=" ">
<path fill="none" stroke="#63b8ff" d="M463.09,-164.75C470.34,-157.35 480.95,-146.54 489.87,-137.45"/>
<polygon fill="#63b8ff" stroke="#63b8ff" points="492.16,-140.11 496.67,-130.52 487.16,-135.21 492.16,-140.11"/>
</a>
</g>
</g>
<!-- Node18&#45;&gt;Node17 -->
<g id="edge25_Node000018_Node000017" class="edge">
<title>Node18&#45;&gt;Node17</title>
<g id="a_edge25_Node000018_Node000017"><a xlink:title=" ">
<path fill="none" stroke="#63b8ff" d="M441.44,-164.51C429.98,-156.62 413.07,-144.98 399.52,-135.65"/>
<polygon fill="#63b8ff" stroke="#63b8ff" points="401.84,-133 391.62,-130.22 397.87,-138.77 401.84,-133"/>
</a>
</g>
</g>
<!-- Node19&#45;&gt;Node11 -->
<g id="edge34_Node000019_Node000011" class="edge">
<title>Node19&#45;&gt;Node11</title>
<g id="a_edge34_Node000019_Node000011"><a xlink:title=" ">
<path fill="none" stroke="#63b8ff" d="M595.18,-225.12C629.74,-215.11 686.09,-198.79 724.67,-187.62"/>
<polygon fill="#63b8ff" stroke="#63b8ff" points="725.45,-191.03 734.08,-184.89 723.5,-184.31 725.45,-191.03"/>
</a>
</g>
</g>
<!-- Node19&#45;&gt;Node12 -->
<g id="edge35_Node000019_Node000012" class="edge">
<title>Node19&#45;&gt;Node12</title>
<g id="a_edge35_Node000019_Node000012"><a xlink:title=" ">
<path fill="none" stroke="#63b8ff" d="M565.74,-225.19C568.03,-211.29 574.02,-183.92 587.5,-165 595.93,-153.17 608.42,-143.02 619.65,-135.42"/>
<polygon fill="#63b8ff" stroke="#63b8ff" points="621.24,-138.55 627.79,-130.22 617.47,-132.65 621.24,-138.55"/>
</a>
</g>
</g>
<!-- Node19&#45;&gt;Node15 -->
<g id="edge33_Node000019_Node000015" class="edge">
<title>Node19&#45;&gt;Node15</title>
<g id="a_edge33_Node000019_Node000015"><a xlink:title=" ">
<path fill="none" stroke="#63b8ff" d="M569.33,-244.82C571.23,-253.87 571.72,-268.24 570.81,-280.05"/>
<polygon fill="#63b8ff" stroke="#63b8ff" points="567.38,-279.23 569.54,-289.6 574.32,-280.15 567.38,-279.23"/>
</a>
</g>
</g>
<!-- Node19&#45;&gt;Node18 -->
<g id="edge28_Node000019_Node000018" class="edge">
<title>Node19&#45;&gt;Node18</title>
<g id="a_edge28_Node000019_Node000018"><a xlink:title=" ">
<path fill="none" stroke="#63b8ff" d="M547.79,-225.12C530.19,-215.75 502.19,-200.86 481.45,-189.83"/>
<polygon fill="#63b8ff" stroke="#63b8ff" points="483.17,-186.78 472.7,-185.18 479.89,-192.96 483.17,-186.78"/>
</a>
</g>
</g>
<!-- Node20 -->
<g id="Node000020" class="node">
<title>Node20</title>
<g id="a_Node000020"><a xlink:href="exif-entry_8h.html" target="_top" xlink:title="Handling EXIF entries.">
<polygon fill="white" stroke="#666666" points="700.5,-184 596.5,-184 596.5,-165 700.5,-165 700.5,-184"/>
<text text-anchor="middle" x="648.5" y="-172" font-family="Helvetica,sans-Serif" font-size="10.00">libexif/exif&#45;entry.h</text>
</a>
</g>
</g>
<!-- Node19&#45;&gt;Node20 -->
<g id="edge29_Node000019_Node000020" class="edge">
<title>Node19&#45;&gt;Node20</title>
<g id="a_edge29_Node000019_Node000020"><a xlink:title=" ">
<path fill="none" stroke="#63b8ff" d="M572.25,-225.12C583.51,-215.92 604.04,-201.41 621.07,-190.44"/>
<polygon fill="#63b8ff" stroke="#63b8ff" points="622.7,-193.55 629.31,-185.27 618.98,-187.62 622.7,-193.55"/>
</a>
</g>
</g>
<!-- Node20&#45;&gt;Node7 -->
<g id="edge31_Node000020_Node000007" class="edge">
<title>Node20&#45;&gt;Node7</title>
<g id="a_edge31_Node000020_Node000007"><a xlink:title=" ">
<path fill="none" stroke="#63b8ff" d="M665.21,-164.64C678.41,-156.87 696.39,-144.4 707.5,-129 729.36,-98.71 739.9,-55.62 744.47,-30.61"/>
<polygon fill="#63b8ff" stroke="#63b8ff" points="747.9,-31.28 746.09,-20.84 741,-30.13 747.9,-31.28"/>
</a>
</g>
</g>
<!-- Node20&#45;&gt;Node12 -->
<g id="edge32_Node000020_Node000012" class="edge">
<title>Node20&#45;&gt;Node12</title>
<g id="a_edge32_Node000020_Node000012"><a xlink:title=" ">
<path fill="none" stroke="#63b8ff" d="M648,-164.75C647.64,-158.27 647.12,-149.16 646.65,-140.9"/>
<polygon fill="#63b8ff" stroke="#63b8ff" points="650.15,-140.74 646.09,-130.95 643.16,-141.13 650.15,-140.74"/>
</a>
</g>
</g>
<!-- Node20&#45;&gt;Node19 -->
<g id="edge30_Node000020_Node000019" class="edge">
<title>Node20&#45;&gt;Node19</title>
<g id="a_edge30_Node000020_Node000019"><a xlink:title=" ">
<path fill="none" stroke="#63b8ff" d="M640.65,-184.47C629.33,-193.69 608.79,-208.22 591.78,-219.16"/>
<polygon fill="#63b8ff" stroke="#63b8ff" points="590.16,-216.04 583.55,-224.31 593.88,-221.97 590.16,-216.04"/>
</a>
</g>
</g>
<!-- Node21&#45;&gt;Node7 -->
<g id="edge39_Node000021_Node000007" class="edge">
<title>Node21&#45;&gt;Node7</title>
<g id="a_edge39_Node000021_Node000007"><a xlink:title=" ">
<path fill="none" stroke="#63b8ff" d="M807.1,-417.6C837.42,-396.32 887.5,-353.4 887.5,-302 887.5,-302 887.5,-302 887.5,-118.5 887.5,-68.62 831.1,-38.55 789.9,-23.24"/>
<polygon fill="#63b8ff" stroke="#63b8ff" points="791.29,-20.02 780.7,-19.99 788.96,-26.62 791.29,-20.02"/>
</a>
</g>
</g>
<!-- Node21&#45;&gt;Node9 -->
<g id="edge42_Node000021_Node000009" class="edge">
<title>Node21&#45;&gt;Node9</title>
<g id="a_edge42_Node000021_Node000009"><a xlink:title=" ">
<path fill="none" stroke="#63b8ff" d="M766.22,-448.44C752.07,-457.56 732.4,-469.3 716.06,-478.36"/>
<polygon fill="#63b8ff" stroke="#63b8ff" points="714.84,-475.04 707.72,-482.89 718.18,-481.19 714.84,-475.04"/>
</a>
</g>
</g>
<!-- Node22 -->
<g id="Node000022" class="node">
<title>Node22</title>
<g id="a_Node000022"><a xlink:href="mnote-fuji-tag_8h.html" target="_top" xlink:title=" ">
<polygon fill="white" stroke="#666666" points="835,-382 734,-382 734,-352 835,-352 835,-382"/>
<text text-anchor="start" x="742" y="-370" font-family="Helvetica,sans-Serif" font-size="10.00">libexif/fuji/mnote</text>
<text text-anchor="middle" x="784.5" y="-359" font-family="Helvetica,sans-Serif" font-size="10.00">&#45;fuji&#45;tag.h</text>
</a>
</g>
</g>
<!-- Node21&#45;&gt;Node22 -->
<g id="edge40_Node000021_Node000022" class="edge">
<title>Node21&#45;&gt;Node22</title>
<g id="a_edge40_Node000021_Node000022"><a xlink:title=" ">
<path fill="none" stroke="#63b8ff" d="M784.5,-417.8C784.5,-410.67 784.5,-401.82 784.5,-393.56"/>
<polygon fill="#63b8ff" stroke="#63b8ff" points="788,-393.68 784.5,-383.68 781,-393.68 788,-393.68"/>
</a>
</g>
</g>
<!-- Node22&#45;&gt;Node15 -->
<g id="edge41_Node000022_Node000015" class="edge">
<title>Node22&#45;&gt;Node15</title>
<g id="a_edge41_Node000022_Node000015"><a xlink:title=" ">
<path fill="none" stroke="#63b8ff" d="M734.85,-351.56C696.03,-340.26 642.69,-324.75 606.09,-314.1"/>
<polygon fill="#63b8ff" stroke="#63b8ff" points="607.34,-310.82 596.76,-311.39 605.39,-317.54 607.34,-310.82"/>
</a>
</g>
</g>
</g>
</svg>
