<?xml version="1.0" encoding="UTF-8" standalone="no"?>
<!DOCTYPE svg PUBLIC "-//W3C//DTD SVG 1.1//EN"
 "http://www.w3.org/Graphics/SVG/1.1/DTD/svg11.dtd">
<!-- Generated by graphviz version 7.0.1 (0)
 -->
<!-- Title: exif_data_save_data_entry Pages: 1 -->
<svg width="417pt" height="298pt"
 viewBox="0.00 0.00 417.00 298.00" xmlns="http://www.w3.org/2000/svg" xmlns:xlink="http://www.w3.org/1999/xlink">
<g id="graph0" class="graph" transform="scale(1 1) rotate(0) translate(4 294)">
<title>exif_data_save_data_entry</title>
<!-- Node1 -->
<g id="Node000001" class="node">
<title>Node1</title>
<g id="a_Node000001"><a xlink:title=" ">
<polygon fill="#999999" stroke="#666666" points="118,-165.5 0,-165.5 0,-135.5 118,-135.5 118,-165.5"/>
<text text-anchor="start" x="8" y="-153.5" font-family="Helvetica,sans-Serif" font-size="10.00">exif_data_save_data</text>
<text text-anchor="middle" x="59" y="-142.5" font-family="Helvetica,sans-Serif" font-size="10.00">_entry</text>
</a>
</g>
</g>
<!-- Node2 -->
<g id="Node000002" class="node">
<title>Node2</title>
<g id="a_Node000002"><a xlink:href="exif-format_8c.html#a924038efe0cd8ebade8f44619dd794f3" target="_top" xlink:title="Return the raw size of the given EXIF data type.">
<polygon fill="white" stroke="#666666" points="277.5,-290 158.5,-290 158.5,-271 277.5,-271 277.5,-290"/>
<text text-anchor="middle" x="218" y="-278" font-family="Helvetica,sans-Serif" font-size="10.00">exif_format_get_size</text>
</a>
</g>
</g>
<!-- Node1&#45;&gt;Node2 -->
<g id="edge1_Node000001_Node000002" class="edge">
<title>Node1&#45;&gt;Node2</title>
<g id="a_edge1_Node000001_Node000002"><a xlink:title=" ">
<path fill="none" stroke="#63b8ff" d="M68.59,-165.67C83.06,-189.83 114.6,-236.94 154,-262.5 155.86,-263.71 157.8,-264.83 159.81,-265.89"/>
<polygon fill="#63b8ff" stroke="#63b8ff" points="158.26,-269.03 168.82,-269.94 161.13,-262.65 158.26,-269.03"/>
</a>
</g>
</g>
<!-- Node3 -->
<g id="Node000003" class="node">
<title>Node3</title>
<g id="a_Node000003"><a xlink:href="exif-log_8c.html#a025d4a5d96544913ea6f6ebbec69cb68" target="_top" xlink:title=" ">
<polygon fill="white" stroke="#666666" points="246,-253 190,-253 190,-234 246,-234 246,-253"/>
<text text-anchor="middle" x="218" y="-241" font-family="Helvetica,sans-Serif" font-size="10.00">exif_log</text>
</a>
</g>
</g>
<!-- Node1&#45;&gt;Node3 -->
<g id="edge2_Node000001_Node000003" class="edge">
<title>Node1&#45;&gt;Node3</title>
<g id="a_edge2_Node000001_Node000003"><a xlink:title=" ">
<path fill="none" stroke="#63b8ff" d="M75.26,-165.9C92.82,-182.8 123.19,-209.62 154,-225.5 161.73,-229.49 170.47,-232.7 178.92,-235.24"/>
<polygon fill="#63b8ff" stroke="#63b8ff" points="177.72,-238.54 188.29,-237.81 179.57,-231.79 177.72,-238.54"/>
</a>
</g>
</g>
<!-- Node5 -->
<g id="Node000005" class="node">
<title>Node5</title>
<g id="a_Node000005"><a xlink:href="exif-mem_8c.html#a43190b81b4b4bdb4ffb89bfb612051b1" target="_top" xlink:title=" ">
<polygon fill="white" stroke="#666666" points="263.5,-216 172.5,-216 172.5,-197 263.5,-197 263.5,-216"/>
<text text-anchor="middle" x="218" y="-204" font-family="Helvetica,sans-Serif" font-size="10.00">exif_mem_free</text>
</a>
</g>
</g>
<!-- Node1&#45;&gt;Node5 -->
<g id="edge4_Node000001_Node000005" class="edge">
<title>Node1&#45;&gt;Node5</title>
<g id="a_edge4_Node000001_Node000005"><a xlink:title=" ">
<path fill="none" stroke="#63b8ff" d="M95.37,-165.83C112.85,-173.14 134.36,-181.75 154,-188.5 158.79,-190.15 163.82,-191.77 168.86,-193.32"/>
<polygon fill="#63b8ff" stroke="#63b8ff" points="167.78,-196.65 178.37,-196.15 169.79,-189.94 167.78,-196.65"/>
</a>
</g>
</g>
<!-- Node6 -->
<g id="Node000006" class="node">
<title>Node6</title>
<g id="a_Node000006"><a xlink:href="exif-mem_8c.html#a7302da5374a74202e03a781b7c4b7ebe" target="_top" xlink:title=" ">
<polygon fill="white" stroke="#666666" points="270,-179 166,-179 166,-160 270,-160 270,-179"/>
<text text-anchor="middle" x="218" y="-167" font-family="Helvetica,sans-Serif" font-size="10.00">exif_mem_realloc</text>
</a>
</g>
</g>
<!-- Node1&#45;&gt;Node6 -->
<g id="edge5_Node000001_Node000006" class="edge">
<title>Node1&#45;&gt;Node6</title>
<g id="a_edge5_Node000001_Node000006"><a xlink:title=" ">
<path fill="none" stroke="#63b8ff" d="M118.46,-157.57C130.22,-159 142.62,-160.5 154.52,-161.94"/>
<polygon fill="#63b8ff" stroke="#63b8ff" points="153.87,-165.39 164.22,-163.11 154.71,-158.44 153.87,-165.39"/>
</a>
</g>
</g>
<!-- Node7 -->
<g id="Node000007" class="node">
<title>Node7</title>
<g id="a_Node000007"><a xlink:href="exif-mnote-data_8c.html#a704500ea880e6727d8b4a98ff38c0a25" target="_top" xlink:title="Save the raw MakerNote data into a memory buffer.">
<polygon fill="white" stroke="#666666" points="282,-142 154,-142 154,-123 282,-123 282,-142"/>
<text text-anchor="middle" x="218" y="-130" font-family="Helvetica,sans-Serif" font-size="10.00">exif_mnote_data_save</text>
</a>
</g>
</g>
<!-- Node1&#45;&gt;Node7 -->
<g id="edge6_Node000001_Node000007" class="edge">
<title>Node1&#45;&gt;Node7</title>
<g id="a_edge6_Node000001_Node000007"><a xlink:title=" ">
<path fill="none" stroke="#63b8ff" d="M118.46,-143.8C126.28,-142.9 134.39,-141.97 142.44,-141.05"/>
<polygon fill="#63b8ff" stroke="#63b8ff" points="142.71,-144.54 152.25,-139.92 141.91,-137.59 142.71,-144.54"/>
</a>
</g>
</g>
<!-- Node8 -->
<g id="Node000008" class="node">
<title>Node8</title>
<g id="a_Node000008"><a xlink:href="exif-mnote-data_8c.html#ac965af14567723ab062e11910e7bc6f2" target="_top" xlink:title=" ">
<polygon fill="white" stroke="#666666" points="277.5,-104.5 158.5,-104.5 158.5,-74.5 277.5,-74.5 277.5,-104.5"/>
<text text-anchor="start" x="166.5" y="-92.5" font-family="Helvetica,sans-Serif" font-size="10.00">exif_mnote_data_set</text>
<text text-anchor="middle" x="218" y="-81.5" font-family="Helvetica,sans-Serif" font-size="10.00">_offset</text>
</a>
</g>
</g>
<!-- Node1&#45;&gt;Node8 -->
<g id="edge7_Node000001_Node000008" class="edge">
<title>Node1&#45;&gt;Node8</title>
<g id="a_edge7_Node000001_Node000008"><a xlink:title=" ">
<path fill="none" stroke="#63b8ff" d="M99.62,-135.11C119.9,-127.23 144.82,-117.55 166.47,-109.13"/>
<polygon fill="#63b8ff" stroke="#63b8ff" points="167.66,-112.43 175.71,-105.54 165.12,-105.9 167.66,-112.43"/>
</a>
</g>
</g>
<!-- Node9 -->
<g id="Node000009" class="node">
<title>Node9</title>
<g id="a_Node000009"><a xlink:href="exif-utils_8c.html#ac90147d0cc97bec7a577bf9576191bf8" target="_top" xlink:title="Store an ExifLong value into memory in EXIF format.">
<polygon fill="white" stroke="#666666" points="259,-56 177,-56 177,-37 259,-37 259,-56"/>
<text text-anchor="middle" x="218" y="-44" font-family="Helvetica,sans-Serif" font-size="10.00">exif_set_long</text>
</a>
</g>
</g>
<!-- Node1&#45;&gt;Node9 -->
<g id="edge8_Node000001_Node000009" class="edge">
<title>Node1&#45;&gt;Node9</title>
<g id="a_edge8_Node000001_Node000009"><a xlink:title=" ">
<path fill="none" stroke="#63b8ff" d="M73.08,-135.06C89.94,-116.08 121.05,-84.11 154,-65.5 157.81,-63.35 161.89,-61.42 166.07,-59.69"/>
<polygon fill="#63b8ff" stroke="#63b8ff" points="167,-63.07 175.16,-56.31 164.57,-56.51 167,-63.07"/>
</a>
</g>
</g>
<!-- Node11 -->
<g id="Node000011" class="node">
<title>Node11</title>
<g id="a_Node000011"><a xlink:href="exif-utils_8c.html#ad905d16e26b4052a1db34dbebdc37341" target="_top" xlink:title="Store an ExifShort value into memory in EXIF format.">
<polygon fill="white" stroke="#666666" points="261,-19 175,-19 175,0 261,0 261,-19"/>
<text text-anchor="middle" x="218" y="-7" font-family="Helvetica,sans-Serif" font-size="10.00">exif_set_short</text>
</a>
</g>
</g>
<!-- Node1&#45;&gt;Node11 -->
<g id="edge10_Node000001_Node000011" class="edge">
<title>Node1&#45;&gt;Node11</title>
<g id="a_edge10_Node000001_Node000011"><a xlink:title=" ">
<path fill="none" stroke="#63b8ff" d="M67.54,-135.1C81.12,-108.95 112.25,-55.96 154,-27.5 157.2,-25.32 160.66,-23.4 164.26,-21.71"/>
<polygon fill="#63b8ff" stroke="#63b8ff" points="165.27,-25.08 173.25,-18.1 162.67,-18.58 165.27,-25.08"/>
</a>
</g>
</g>
<!-- Node4 -->
<g id="Node000004" class="node">
<title>Node4</title>
<g id="a_Node000004"><a xlink:href="exif-log_8c.html#a99101b5ad01b2d82ce9d43c9e8534627" target="_top" xlink:title=" ">
<polygon fill="white" stroke="#666666" points="394.5,-253 332.5,-253 332.5,-234 394.5,-234 394.5,-253"/>
<text text-anchor="middle" x="363.5" y="-241" font-family="Helvetica,sans-Serif" font-size="10.00">exif_logv</text>
</a>
</g>
</g>
<!-- Node3&#45;&gt;Node4 -->
<g id="edge3_Node000003_Node000004" class="edge">
<title>Node3&#45;&gt;Node4</title>
<g id="a_edge3_Node000003_Node000004"><a xlink:title=" ">
<path fill="none" stroke="#63b8ff" d="M246.33,-243.5C267.36,-243.5 296.8,-243.5 320.77,-243.5"/>
<polygon fill="#63b8ff" stroke="#63b8ff" points="320.53,-247 330.53,-243.5 320.53,-240 320.53,-247"/>
</a>
</g>
</g>
<!-- Node10 -->
<g id="Node000010" class="node">
<title>Node10</title>
<g id="a_Node000010"><a xlink:href="exif-utils_8c.html#ae6e3b9d1663f9ab9bd462d73a310ca03" target="_top" xlink:title="Store an ExifSLong value into memory in EXIF format.">
<polygon fill="white" stroke="#666666" points="407,-56 320,-56 320,-37 407,-37 407,-56"/>
<text text-anchor="middle" x="363.5" y="-44" font-family="Helvetica,sans-Serif" font-size="10.00">exif_set_slong</text>
</a>
</g>
</g>
<!-- Node9&#45;&gt;Node10 -->
<g id="edge9_Node000009_Node000010" class="edge">
<title>Node9&#45;&gt;Node10</title>
<g id="a_edge9_Node000009_Node000010"><a xlink:title=" ">
<path fill="none" stroke="#63b8ff" d="M259.35,-46.5C274.64,-46.5 292.3,-46.5 308.64,-46.5"/>
<polygon fill="#63b8ff" stroke="#63b8ff" points="308.18,-50 318.18,-46.5 308.18,-43 308.18,-50"/>
</a>
</g>
</g>
<!-- Node12 -->
<g id="Node000012" class="node">
<title>Node12</title>
<g id="a_Node000012"><a xlink:href="exif-utils_8c.html#a6504651147702fc6db9a5cd4aa997023" target="_top" xlink:title="Store an ExifSShort value into memory in EXIF format.">
<polygon fill="white" stroke="#666666" points="409,-19 318,-19 318,0 409,0 409,-19"/>
<text text-anchor="middle" x="363.5" y="-7" font-family="Helvetica,sans-Serif" font-size="10.00">exif_set_sshort</text>
</a>
</g>
</g>
<!-- Node11&#45;&gt;Node12 -->
<g id="edge11_Node000011_Node000012" class="edge">
<title>Node11&#45;&gt;Node12</title>
<g id="a_edge11_Node000011_Node000012"><a xlink:title=" ">
<path fill="none" stroke="#63b8ff" d="M261.28,-9.5C275.38,-9.5 291.31,-9.5 306.3,-9.5"/>
<polygon fill="#63b8ff" stroke="#63b8ff" points="306.01,-13 316.01,-9.5 306.01,-6 306.01,-13"/>
</a>
</g>
</g>
</g>
</svg>
