<?xml version="1.0" encoding="UTF-8" standalone="no"?>
<!DOCTYPE svg PUBLIC "-//W3C//DTD SVG 1.1//EN"
 "http://www.w3.org/Graphics/SVG/1.1/DTD/svg11.dtd">
<!-- Generated by graphviz version 2.44.1 (0)
 -->
<!-- Title: libexif/exif&#45;content.h Pages: 1 -->
<svg width="2860pt" height="352pt"
 viewBox="0.00 0.00 2860.41 352.00" xmlns="http://www.w3.org/2000/svg" xmlns:xlink="http://www.w3.org/1999/xlink">
<g id="graph0" class="graph" transform="scale(1 1) rotate(0) translate(4 348)">
<title>libexif/exif&#45;content.h</title>
<polygon fill="white" stroke="transparent" points="-4,4 -4,-348 2856.41,-348 2856.41,4 -4,4"/>
<!-- Node1 -->
<g id="node1" class="node">
<title>Node1</title>
<g id="a_node1"><a xlink:title="Handling EXIF IFDs.">
<polygon fill="#bfbfbf" stroke="black" points="1291.91,-324.5 1291.91,-343.5 1408.91,-343.5 1408.91,-324.5 1291.91,-324.5"/>
<text text-anchor="middle" x="1350.41" y="-331.5" font-family="Helvetica,sans-Serif" font-size="10.00">libexif/exif&#45;content.h</text>
</a>
</g>
</g>
<!-- Node2 -->
<g id="node2" class="node">
<title>Node2</title>
<g id="a_node2"><a xlink:href="exif-content_8c.html" target="_top" xlink:title=" ">
<polygon fill="white" stroke="black" points="1165.41,-268.5 1165.41,-287.5 1281.41,-287.5 1281.41,-268.5 1165.41,-268.5"/>
<text text-anchor="middle" x="1223.41" y="-275.5" font-family="Helvetica,sans-Serif" font-size="10.00">libexif/exif&#45;content.c</text>
</a>
</g>
</g>
<!-- Node1&#45;&gt;Node2 -->
<g id="edge1" class="edge">
<title>Node1&#45;&gt;Node2</title>
<path fill="none" stroke="midnightblue" d="M1321.02,-320.5C1297.21,-310.38 1264.3,-296.39 1243.44,-287.52"/>
<polygon fill="midnightblue" stroke="midnightblue" points="1319.71,-323.75 1330.28,-324.44 1322.45,-317.31 1319.71,-323.75"/>
</g>
<!-- Node3 -->
<g id="node3" class="node">
<title>Node3</title>
<g id="a_node3"><a xlink:href="exif-data_8h.html" target="_top" xlink:title="Defines the ExifData type and the associated functions.">
<polygon fill="white" stroke="black" points="1299.41,-268.5 1299.41,-287.5 1401.41,-287.5 1401.41,-268.5 1299.41,-268.5"/>
<text text-anchor="middle" x="1350.41" y="-275.5" font-family="Helvetica,sans-Serif" font-size="10.00">libexif/exif&#45;data.h</text>
</a>
</g>
</g>
<!-- Node1&#45;&gt;Node3 -->
<g id="edge2" class="edge">
<title>Node1&#45;&gt;Node3</title>
<path fill="none" stroke="midnightblue" d="M1343.94,-314.1C1343.3,-305.14 1343.75,-294.86 1345.28,-287.75"/>
<polygon fill="midnightblue" stroke="midnightblue" points="1340.47,-314.62 1345.24,-324.08 1347.41,-313.71 1340.47,-314.62"/>
</g>
<!-- Node35 -->
<g id="node35" class="node">
<title>Node35</title>
<g id="a_node35"><a xlink:href="exif-entry_8h.html" target="_top" xlink:title="Handling EXIF entries.">
<polygon fill="white" stroke="black" points="2347.41,-268.5 2347.41,-287.5 2451.41,-287.5 2451.41,-268.5 2347.41,-268.5"/>
<text text-anchor="middle" x="2399.41" y="-275.5" font-family="Helvetica,sans-Serif" font-size="10.00">libexif/exif&#45;entry.h</text>
</a>
</g>
</g>
<!-- Node1&#45;&gt;Node35 -->
<g id="edge51" class="edge">
<title>Node1&#45;&gt;Node35</title>
<path fill="none" stroke="midnightblue" d="M1419.27,-329.27C1615.42,-318.95 2173.73,-290.22 2347.31,-281.52"/>
<polygon fill="midnightblue" stroke="midnightblue" points="1418.9,-325.78 1409.09,-329.8 1419.26,-332.77 1418.9,-325.78"/>
</g>
<!-- Node3&#45;&gt;Node1 -->
<g id="edge16" class="edge">
<title>Node3&#45;&gt;Node1</title>
<path fill="none" stroke="midnightblue" d="M1356.87,-297.69C1357.51,-306.64 1357.08,-316.93 1355.57,-324.08"/>
<polygon fill="midnightblue" stroke="midnightblue" points="1360.33,-297.2 1355.54,-287.75 1353.39,-298.13 1360.33,-297.2"/>
</g>
<!-- Node4 -->
<g id="node4" class="node">
<title>Node4</title>
<g id="a_node4"><a xlink:href="exif-mnote-data-apple_8c.html" target="_top" xlink:title=" ">
<polygon fill="white" stroke="black" points="813.41,-134.5 813.41,-164.5 929.41,-164.5 929.41,-134.5 813.41,-134.5"/>
<text text-anchor="start" x="821.41" y="-152.5" font-family="Helvetica,sans-Serif" font-size="10.00">libexif/apple/exif</text>
<text text-anchor="middle" x="871.41" y="-141.5" font-family="Helvetica,sans-Serif" font-size="10.00">&#45;mnote&#45;data&#45;apple.c</text>
</a>
</g>
</g>
<!-- Node3&#45;&gt;Node4 -->
<g id="edge3" class="edge">
<title>Node3&#45;&gt;Node4</title>
<path fill="none" stroke="midnightblue" d="M1289.12,-268.33C1187.47,-263.68 537.15,-262.1 508.41,-232 498.89,-222.04 499.36,-211.39 508.41,-201 528.09,-178.38 715.6,-161.69 813.11,-154.46"/>
<polygon fill="midnightblue" stroke="midnightblue" points="1289.19,-271.85 1299.39,-268.98 1289.63,-264.86 1289.19,-271.85"/>
</g>
<!-- Node5 -->
<g id="node5" class="node">
<title>Node5</title>
<g id="a_node5"><a xlink:href="exif-mnote-data-apple_8h.html" target="_top" xlink:title=" ">
<polygon fill="white" stroke="black" points="1224.91,-201.5 1224.91,-231.5 1341.91,-231.5 1341.91,-201.5 1224.91,-201.5"/>
<text text-anchor="start" x="1232.91" y="-219.5" font-family="Helvetica,sans-Serif" font-size="10.00">libexif/apple/exif</text>
<text text-anchor="middle" x="1283.41" y="-208.5" font-family="Helvetica,sans-Serif" font-size="10.00">&#45;mnote&#45;data&#45;apple.h</text>
</a>
</g>
</g>
<!-- Node3&#45;&gt;Node5 -->
<g id="edge4" class="edge">
<title>Node3&#45;&gt;Node5</title>
<path fill="none" stroke="midnightblue" d="M1333.12,-261.65C1322.65,-252.35 1309.39,-240.57 1299.2,-231.52"/>
<polygon fill="midnightblue" stroke="midnightblue" points="1331.01,-264.45 1340.81,-268.48 1335.65,-259.22 1331.01,-264.45"/>
</g>
<!-- Node6 -->
<g id="node6" class="node">
<title>Node6</title>
<g id="a_node6"><a xlink:href="exif-data_8c.html" target="_top" xlink:title=" ">
<polygon fill="white" stroke="black" points="1083.91,-6 1083.91,-25 1184.91,-25 1184.91,-6 1083.91,-6"/>
<text text-anchor="middle" x="1134.41" y="-13" font-family="Helvetica,sans-Serif" font-size="10.00">libexif/exif&#45;data.c</text>
</a>
</g>
</g>
<!-- Node3&#45;&gt;Node6 -->
<g id="edge17" class="edge">
<title>Node3&#45;&gt;Node6</title>
<path fill="none" stroke="midnightblue" d="M1289.24,-268.16C1115.05,-257.2 189.68,-286.57 68.41,-232 31.13,-215.23 20.47,-203 5.41,-165 -24.76,-88.88 81.66,-85.57 161.41,-67 339.43,-25.55 910.36,-18.09 1083.9,-16.78"/>
<polygon fill="midnightblue" stroke="midnightblue" points="1289.16,-271.67 1299.39,-268.92 1289.68,-264.69 1289.16,-271.67"/>
</g>
<!-- Node7 -->
<g id="node7" class="node">
<title>Node7</title>
<g id="a_node7"><a xlink:href="exif-mnote-data-canon_8c.html" target="_top" xlink:title=" ">
<polygon fill="white" stroke="black" points="1825.91,-0.5 1825.91,-30.5 1944.91,-30.5 1944.91,-0.5 1825.91,-0.5"/>
<text text-anchor="start" x="1833.91" y="-18.5" font-family="Helvetica,sans-Serif" font-size="10.00">libexif/canon/exif</text>
<text text-anchor="middle" x="1885.41" y="-7.5" font-family="Helvetica,sans-Serif" font-size="10.00">&#45;mnote&#45;data&#45;canon.c</text>
</a>
</g>
</g>
<!-- Node3&#45;&gt;Node7 -->
<g id="edge7" class="edge">
<title>Node3&#45;&gt;Node7</title>
<path fill="none" stroke="midnightblue" d="M1411.93,-275.53C1569.29,-271.43 1983.55,-258.38 2118.41,-232 2209.17,-214.25 2261.56,-240.19 2315.41,-165 2408.76,-34.65 2083.68,-17.65 1945.07,-16.2"/>
<polygon fill="midnightblue" stroke="midnightblue" points="1411.4,-272.04 1401.49,-275.8 1411.58,-279.04 1411.4,-272.04"/>
</g>
<!-- Node8 -->
<g id="node8" class="node">
<title>Node8</title>
<g id="a_node8"><a xlink:href="exif-mnote-data-canon_8h.html" target="_top" xlink:title=" ">
<polygon fill="white" stroke="black" points="1376.91,-67.5 1376.91,-97.5 1495.91,-97.5 1495.91,-67.5 1376.91,-67.5"/>
<text text-anchor="start" x="1384.91" y="-85.5" font-family="Helvetica,sans-Serif" font-size="10.00">libexif/canon/exif</text>
<text text-anchor="middle" x="1436.41" y="-74.5" font-family="Helvetica,sans-Serif" font-size="10.00">&#45;mnote&#45;data&#45;canon.h</text>
</a>
</g>
</g>
<!-- Node3&#45;&gt;Node8 -->
<g id="edge8" class="edge">
<title>Node3&#45;&gt;Node8</title>
<path fill="none" stroke="midnightblue" d="M1411.64,-271.92C1438.21,-266.31 1466.97,-254.92 1483.41,-232 1491.44,-220.8 1487.76,-214.07 1483.41,-201 1477.08,-182.03 1464.96,-183.08 1456.41,-165 1445.87,-142.75 1440.53,-114.36 1438.12,-97.63"/>
<polygon fill="midnightblue" stroke="midnightblue" points="1410.78,-268.52 1401.59,-273.8 1412.06,-275.4 1410.78,-268.52"/>
</g>
<!-- Node9 -->
<g id="node9" class="node">
<title>Node9</title>
<g id="a_node9"><a xlink:href="mnote-canon-tag_8h.html" target="_top" xlink:title=" ">
<polygon fill="white" stroke="black" points="1360.41,-201.5 1360.41,-231.5 1474.41,-231.5 1474.41,-201.5 1360.41,-201.5"/>
<text text-anchor="start" x="1368.41" y="-219.5" font-family="Helvetica,sans-Serif" font-size="10.00">libexif/canon/mnote</text>
<text text-anchor="middle" x="1417.41" y="-208.5" font-family="Helvetica,sans-Serif" font-size="10.00">&#45;canon&#45;tag.h</text>
</a>
</g>
</g>
<!-- Node3&#45;&gt;Node9 -->
<g id="edge11" class="edge">
<title>Node3&#45;&gt;Node9</title>
<path fill="none" stroke="midnightblue" d="M1367.7,-261.65C1378.17,-252.35 1391.43,-240.57 1401.62,-231.52"/>
<polygon fill="midnightblue" stroke="midnightblue" points="1365.16,-259.22 1360.01,-268.48 1369.81,-264.45 1365.16,-259.22"/>
</g>
<!-- Node13 -->
<g id="node13" class="node">
<title>Node13</title>
<g id="a_node13"><a xlink:href="exif-loader_8h.html" target="_top" xlink:title="Defines the ExifLoader type.">
<polygon fill="white" stroke="black" points="1893.91,-207 1893.91,-226 2004.91,-226 2004.91,-207 1893.91,-207"/>
<text text-anchor="middle" x="1949.41" y="-214" font-family="Helvetica,sans-Serif" font-size="10.00">libexif/exif&#45;loader.h</text>
</a>
</g>
</g>
<!-- Node3&#45;&gt;Node13 -->
<g id="edge18" class="edge">
<title>Node3&#45;&gt;Node13</title>
<path fill="none" stroke="midnightblue" d="M1411.77,-271.8C1503.1,-263.93 1680.17,-248.19 1830.41,-232 1851.1,-229.77 1873.78,-227.07 1893.75,-224.61"/>
<polygon fill="midnightblue" stroke="midnightblue" points="1411.27,-268.33 1401.6,-272.67 1411.87,-275.3 1411.27,-268.33"/>
</g>
<!-- Node15 -->
<g id="node15" class="node">
<title>Node15</title>
<g id="a_node15"><a xlink:href="test-fuzzer-persistent_8c.html" target="_top" xlink:title=" ">
<polygon fill="white" stroke="black" points="1652.91,-140 1652.91,-159 1803.91,-159 1803.91,-140 1652.91,-140"/>
<text text-anchor="middle" x="1728.41" y="-147" font-family="Helvetica,sans-Serif" font-size="10.00">test/test&#45;fuzzer&#45;persistent.c</text>
</a>
</g>
</g>
<!-- Node3&#45;&gt;Node15 -->
<g id="edge42" class="edge">
<title>Node3&#45;&gt;Node15</title>
<path fill="none" stroke="midnightblue" d="M1411.71,-277.49C1502.56,-276.9 1666.83,-270.35 1709.41,-232 1730.35,-213.14 1730.46,-176.06 1729.29,-159.21"/>
<polygon fill="midnightblue" stroke="midnightblue" points="1411.53,-273.99 1401.54,-277.53 1411.56,-280.99 1411.53,-273.99"/>
</g>
<!-- Node16 -->
<g id="node16" class="node">
<title>Node16</title>
<g id="a_node16"><a xlink:href="test-fuzzer_8c.html" target="_top" xlink:title=" ">
<polygon fill="white" stroke="black" points="1821.91,-140 1821.91,-159 1920.91,-159 1920.91,-140 1821.91,-140"/>
<text text-anchor="middle" x="1871.41" y="-147" font-family="Helvetica,sans-Serif" font-size="10.00">test/test&#45;fuzzer.c</text>
</a>
</g>
</g>
<!-- Node3&#45;&gt;Node16 -->
<g id="edge43" class="edge">
<title>Node3&#45;&gt;Node16</title>
<path fill="none" stroke="midnightblue" d="M1411.89,-277.36C1488.62,-276.1 1622.95,-268.23 1731.41,-232 1783.42,-214.62 1837.43,-176.43 1860.21,-159.22"/>
<polygon fill="midnightblue" stroke="midnightblue" points="1411.41,-273.87 1401.45,-277.5 1411.5,-280.87 1411.41,-273.87"/>
</g>
<!-- Node17 -->
<g id="node17" class="node">
<title>Node17</title>
<g id="a_node17"><a xlink:href="test-mem_8c.html" target="_top" xlink:title=" ">
<polygon fill="white" stroke="black" points="2105.91,-140 2105.91,-159 2200.91,-159 2200.91,-140 2105.91,-140"/>
<text text-anchor="middle" x="2153.41" y="-147" font-family="Helvetica,sans-Serif" font-size="10.00">test/test&#45;mem.c</text>
</a>
</g>
</g>
<!-- Node3&#45;&gt;Node17 -->
<g id="edge45" class="edge">
<title>Node3&#45;&gt;Node17</title>
<path fill="none" stroke="midnightblue" d="M1411.8,-276.42C1554.13,-274.51 1902.92,-266.36 2014.41,-232 2066.8,-215.85 2120.45,-176.66 2142.71,-159.17"/>
<polygon fill="midnightblue" stroke="midnightblue" points="1411.47,-272.93 1401.51,-276.56 1411.56,-279.93 1411.47,-272.93"/>
</g>
<!-- Node18 -->
<g id="node18" class="node">
<title>Node18</title>
<g id="a_node18"><a xlink:href="test-null_8c.html" target="_top" xlink:title="Pass NULL values into libexif APIs and ensure it doesn&#39;t crash.">
<polygon fill="white" stroke="black" points="2218.91,-140 2218.91,-159 2305.91,-159 2305.91,-140 2218.91,-140"/>
<text text-anchor="middle" x="2262.41" y="-147" font-family="Helvetica,sans-Serif" font-size="10.00">test/test&#45;null.c</text>
</a>
</g>
</g>
<!-- Node3&#45;&gt;Node18 -->
<g id="edge47" class="edge">
<title>Node3&#45;&gt;Node18</title>
<path fill="none" stroke="midnightblue" d="M1411.94,-275.6C1560.77,-271.81 1936.94,-259.72 2059.41,-232 2132.01,-215.57 2212.43,-176.52 2246.15,-159.12"/>
<polygon fill="midnightblue" stroke="midnightblue" points="1411.53,-272.11 1401.62,-275.86 1411.71,-279.11 1411.53,-272.11"/>
</g>
<!-- Node19 -->
<g id="node19" class="node">
<title>Node19</title>
<g id="a_node19"><a xlink:href="exif-mnote-data-fuji_8h.html" target="_top" xlink:title=" ">
<polygon fill="white" stroke="black" points="77.41,-201.5 77.41,-231.5 199.41,-231.5 199.41,-201.5 77.41,-201.5"/>
<text text-anchor="start" x="85.41" y="-219.5" font-family="Helvetica,sans-Serif" font-size="10.00">libexif/fuji/exif&#45;mnote</text>
<text text-anchor="middle" x="138.41" y="-208.5" font-family="Helvetica,sans-Serif" font-size="10.00">&#45;data&#45;fuji.h</text>
</a>
</g>
</g>
<!-- Node3&#45;&gt;Node19 -->
<g id="edge25" class="edge">
<title>Node3&#45;&gt;Node19</title>
<path fill="none" stroke="midnightblue" d="M1289.43,-268.04C809.52,-225.12 682.91,-288.62 208.41,-232 205.57,-231.66 202.68,-231.27 199.77,-230.83"/>
<polygon fill="midnightblue" stroke="midnightblue" points="1289.12,-271.52 1299.39,-268.94 1289.75,-264.55 1289.12,-271.52"/>
</g>
<!-- Node23 -->
<g id="node23" class="node">
<title>Node23</title>
<g id="a_node23"><a xlink:href="mnote-fuji-tag_8h.html" target="_top" xlink:title=" ">
<polygon fill="white" stroke="black" points="217.91,-201.5 217.91,-231.5 318.91,-231.5 318.91,-201.5 217.91,-201.5"/>
<text text-anchor="start" x="225.91" y="-219.5" font-family="Helvetica,sans-Serif" font-size="10.00">libexif/fuji/mnote</text>
<text text-anchor="middle" x="268.41" y="-208.5" font-family="Helvetica,sans-Serif" font-size="10.00">&#45;fuji&#45;tag.h</text>
</a>
</g>
</g>
<!-- Node3&#45;&gt;Node23 -->
<g id="edge31" class="edge">
<title>Node3&#45;&gt;Node23</title>
<path fill="none" stroke="midnightblue" d="M1289.26,-268.02C862.64,-229.17 748.93,-290.09 328.41,-232 325.33,-231.57 322.18,-231.06 319.01,-230.48"/>
<polygon fill="midnightblue" stroke="midnightblue" points="1289.11,-271.52 1299.39,-268.95 1289.76,-264.55 1289.11,-271.52"/>
</g>
<!-- Node25 -->
<g id="node25" class="node">
<title>Node25</title>
<g id="a_node25"><a xlink:href="exif-mnote-data-olympus_8c.html" target="_top" xlink:title=" ">
<polygon fill="white" stroke="black" points="1464.91,-134.5 1464.91,-164.5 1595.91,-164.5 1595.91,-134.5 1464.91,-134.5"/>
<text text-anchor="start" x="1472.91" y="-152.5" font-family="Helvetica,sans-Serif" font-size="10.00">libexif/olympus/exif</text>
<text text-anchor="middle" x="1530.41" y="-141.5" font-family="Helvetica,sans-Serif" font-size="10.00">&#45;mnote&#45;data&#45;olympus.c</text>
</a>
</g>
</g>
<!-- Node3&#45;&gt;Node25 -->
<g id="edge34" class="edge">
<title>Node3&#45;&gt;Node25</title>
<path fill="none" stroke="midnightblue" d="M1411.98,-275.95C1447.49,-271.97 1490.17,-260.85 1516.41,-232 1533.22,-213.52 1533.64,-182.51 1532.19,-164.54"/>
<polygon fill="midnightblue" stroke="midnightblue" points="1411.32,-272.5 1401.7,-276.93 1411.99,-279.47 1411.32,-272.5"/>
</g>
<!-- Node26 -->
<g id="node26" class="node">
<title>Node26</title>
<g id="a_node26"><a xlink:href="exif-mnote-data-olympus_8h.html" target="_top" xlink:title=" ">
<polygon fill="white" stroke="black" points="1568.41,-201.5 1568.41,-231.5 1700.41,-231.5 1700.41,-201.5 1568.41,-201.5"/>
<text text-anchor="start" x="1576.41" y="-219.5" font-family="Helvetica,sans-Serif" font-size="10.00">libexif/olympus/exif</text>
<text text-anchor="middle" x="1634.41" y="-208.5" font-family="Helvetica,sans-Serif" font-size="10.00">&#45;mnote&#45;data&#45;olympus.h</text>
</a>
</g>
</g>
<!-- Node3&#45;&gt;Node26 -->
<g id="edge35" class="edge">
<title>Node3&#45;&gt;Node26</title>
<path fill="none" stroke="midnightblue" d="M1400.98,-266.4C1447.65,-256.63 1517.24,-242.05 1568.29,-231.35"/>
<polygon fill="midnightblue" stroke="midnightblue" points="1400.17,-263 1391.1,-268.48 1401.6,-269.85 1400.17,-263"/>
</g>
<!-- Node27 -->
<g id="node27" class="node">
<title>Node27</title>
<g id="a_node27"><a xlink:href="exif-mnote-data-pentax_8h.html" target="_top" xlink:title=" ">
<polygon fill="white" stroke="black" points="337.41,-201.5 337.41,-231.5 461.41,-231.5 461.41,-201.5 337.41,-201.5"/>
<text text-anchor="start" x="345.41" y="-219.5" font-family="Helvetica,sans-Serif" font-size="10.00">libexif/pentax/exif</text>
<text text-anchor="middle" x="399.41" y="-208.5" font-family="Helvetica,sans-Serif" font-size="10.00">&#45;mnote&#45;data&#45;pentax.h</text>
</a>
</g>
</g>
<!-- Node3&#45;&gt;Node27 -->
<g id="edge38" class="edge">
<title>Node3&#45;&gt;Node27</title>
<path fill="none" stroke="midnightblue" d="M1289.43,-268.02C927.8,-233.79 832.28,-273.7 475.41,-232 470.87,-231.47 466.2,-230.82 461.51,-230.1"/>
<polygon fill="midnightblue" stroke="midnightblue" points="1289.1,-271.51 1299.39,-268.98 1289.77,-264.54 1289.1,-271.51"/>
</g>
<!-- Node29 -->
<g id="node29" class="node">
<title>Node29</title>
<g id="a_node29"><a xlink:href="test-extract_8c.html" target="_top" xlink:title="Extract EXIF data from a file and write it to another file.">
<polygon fill="white" stroke="black" points="517.41,-207 517.41,-226 621.41,-226 621.41,-207 517.41,-207"/>
<text text-anchor="middle" x="569.41" y="-214" font-family="Helvetica,sans-Serif" font-size="10.00">test/test&#45;extract.c</text>
</a>
</g>
</g>
<!-- Node3&#45;&gt;Node29 -->
<g id="edge41" class="edge">
<title>Node3&#45;&gt;Node29</title>
<path fill="none" stroke="midnightblue" d="M1289.32,-268C996.4,-238.98 917.87,-273.66 630.41,-232 620.6,-230.58 610.06,-228.34 600.55,-226.04"/>
<polygon fill="midnightblue" stroke="midnightblue" points="1289.09,-271.49 1299.39,-269.01 1289.79,-264.53 1289.09,-271.49"/>
</g>
<!-- Node30 -->
<g id="node30" class="node">
<title>Node30</title>
<g id="a_node30"><a xlink:href="test-gps_8c.html" target="_top" xlink:title=" ">
<polygon fill="white" stroke="black" points="639.41,-207 639.41,-226 725.41,-226 725.41,-207 639.41,-207"/>
<text text-anchor="middle" x="682.41" y="-214" font-family="Helvetica,sans-Serif" font-size="10.00">test/test&#45;gps.c</text>
</a>
</g>
</g>
<!-- Node3&#45;&gt;Node30 -->
<g id="edge44" class="edge">
<title>Node3&#45;&gt;Node30</title>
<path fill="none" stroke="midnightblue" d="M1289.4,-267.99C1042.88,-242.45 975.98,-272.28 735.41,-232 726.85,-230.57 717.67,-228.32 709.41,-226.02"/>
<polygon fill="midnightblue" stroke="midnightblue" points="1289.07,-271.48 1299.38,-269.05 1289.8,-264.52 1289.07,-271.48"/>
</g>
<!-- Node31 -->
<g id="node31" class="node">
<title>Node31</title>
<g id="a_node31"><a xlink:href="test-mnote_8c.html" target="_top" xlink:title=" ">
<polygon fill="white" stroke="black" points="743.91,-207 743.91,-226 844.91,-226 844.91,-207 743.91,-207"/>
<text text-anchor="middle" x="794.41" y="-214" font-family="Helvetica,sans-Serif" font-size="10.00">test/test&#45;mnote.c</text>
</a>
</g>
</g>
<!-- Node3&#45;&gt;Node31 -->
<g id="edge46" class="edge">
<title>Node3&#45;&gt;Node31</title>
<path fill="none" stroke="midnightblue" d="M1289.43,-267.97C1095.54,-246.13 1043.18,-262.42 854.41,-232 844.99,-230.48 834.87,-228.27 825.67,-226.02"/>
<polygon fill="midnightblue" stroke="midnightblue" points="1289.04,-271.45 1299.38,-269.11 1289.84,-264.49 1289.04,-271.45"/>
</g>
<!-- Node32 -->
<g id="node32" class="node">
<title>Node32</title>
<g id="a_node32"><a xlink:href="test-parse-from-data_8c.html" target="_top" xlink:title="Completely parse all files given on the command line.">
<polygon fill="white" stroke="black" points="862.91,-201.5 862.91,-231.5 977.91,-231.5 977.91,-201.5 862.91,-201.5"/>
<text text-anchor="start" x="870.91" y="-219.5" font-family="Helvetica,sans-Serif" font-size="10.00">test/test&#45;parse&#45;from</text>
<text text-anchor="middle" x="920.41" y="-208.5" font-family="Helvetica,sans-Serif" font-size="10.00">&#45;data.c</text>
</a>
</g>
</g>
<!-- Node3&#45;&gt;Node32 -->
<g id="edge48" class="edge">
<title>Node3&#45;&gt;Node32</title>
<path fill="none" stroke="midnightblue" d="M1289.05,-267.86C1154.24,-250.14 1117.9,-253.82 987.41,-232 984.36,-231.49 981.23,-230.93 978.08,-230.35"/>
<polygon fill="midnightblue" stroke="midnightblue" points="1288.99,-271.38 1299.36,-269.23 1289.91,-264.45 1288.99,-271.38"/>
</g>
<!-- Node33 -->
<g id="node33" class="node">
<title>Node33</title>
<g id="a_node33"><a xlink:href="test-parse_8c.html" target="_top" xlink:title="Completely parse all files given on the command line.">
<polygon fill="white" stroke="black" points="996.41,-207 996.41,-226 1092.41,-226 1092.41,-207 996.41,-207"/>
<text text-anchor="middle" x="1044.41" y="-214" font-family="Helvetica,sans-Serif" font-size="10.00">test/test&#45;parse.c</text>
</a>
</g>
</g>
<!-- Node3&#45;&gt;Node33 -->
<g id="edge49" class="edge">
<title>Node3&#45;&gt;Node33</title>
<path fill="none" stroke="midnightblue" d="M1289.06,-267.15C1238.52,-258.74 1165.06,-245.83 1101.41,-232 1093.23,-230.22 1084.44,-228.1 1076.27,-226.03"/>
<polygon fill="midnightblue" stroke="midnightblue" points="1288.74,-270.64 1299.17,-268.82 1289.88,-263.74 1288.74,-270.64"/>
</g>
<!-- Node34 -->
<g id="node34" class="node">
<title>Node34</title>
<g id="a_node34"><a xlink:href="test-value_8c.html" target="_top" xlink:title=" ">
<polygon fill="white" stroke="black" points="1110.41,-207 1110.41,-226 1206.41,-226 1206.41,-207 1110.41,-207"/>
<text text-anchor="middle" x="1158.41" y="-214" font-family="Helvetica,sans-Serif" font-size="10.00">test/test&#45;value.c</text>
</a>
</g>
</g>
<!-- Node3&#45;&gt;Node34 -->
<g id="edge50" class="edge">
<title>Node3&#45;&gt;Node34</title>
<path fill="none" stroke="midnightblue" d="M1312.91,-265.38C1275.59,-253.82 1219.2,-236.34 1185.87,-226.01"/>
<polygon fill="midnightblue" stroke="midnightblue" points="1312.31,-268.86 1322.9,-268.48 1314.38,-262.17 1312.31,-268.86"/>
</g>
<!-- Node5&#45;&gt;Node4 -->
<g id="edge5" class="edge">
<title>Node5&#45;&gt;Node4</title>
<path fill="none" stroke="midnightblue" d="M1214.88,-200.98C1108.24,-182.03 995.87,-166.54 929.41,-157.86"/>
<polygon fill="midnightblue" stroke="midnightblue" points="1214.39,-204.45 1224.85,-202.76 1215.62,-197.56 1214.39,-204.45"/>
</g>
<!-- Node5&#45;&gt;Node6 -->
<g id="edge6" class="edge">
<title>Node5&#45;&gt;Node6</title>
<path fill="none" stroke="midnightblue" d="M1222.41,-198.39C1193.22,-188.95 1162.62,-176.78 1153.41,-165 1119.94,-122.21 1128.45,-50.31 1132.71,-25.35"/>
<polygon fill="midnightblue" stroke="midnightblue" points="1221.63,-201.82 1232.22,-201.48 1223.74,-195.14 1221.63,-201.82"/>
</g>
<!-- Node8&#45;&gt;Node6 -->
<g id="edge10" class="edge">
<title>Node8&#45;&gt;Node6</title>
<path fill="none" stroke="midnightblue" d="M1366.63,-66.48C1306.93,-53.63 1223.12,-35.59 1174.21,-25.07"/>
<polygon fill="midnightblue" stroke="midnightblue" points="1366.23,-69.98 1376.74,-68.66 1367.7,-63.13 1366.23,-69.98"/>
</g>
<!-- Node8&#45;&gt;Node7 -->
<g id="edge9" class="edge">
<title>Node8&#45;&gt;Node7</title>
<path fill="none" stroke="midnightblue" d="M1506.16,-71.4C1593.95,-58.69 1743.23,-37.08 1825.9,-25.12"/>
<polygon fill="midnightblue" stroke="midnightblue" points="1505.43,-67.97 1496.03,-72.87 1506.43,-74.9 1505.43,-67.97"/>
</g>
<!-- Node10 -->
<g id="node10" class="node">
<title>Node10</title>
<g id="a_node10"><a xlink:href="mnote-canon-entry_8h.html" target="_top" xlink:title=" ">
<polygon fill="white" stroke="black" points="1294.41,-134.5 1294.41,-164.5 1408.41,-164.5 1408.41,-134.5 1294.41,-134.5"/>
<text text-anchor="start" x="1302.41" y="-152.5" font-family="Helvetica,sans-Serif" font-size="10.00">libexif/canon/mnote</text>
<text text-anchor="middle" x="1351.41" y="-141.5" font-family="Helvetica,sans-Serif" font-size="10.00">&#45;canon&#45;entry.h</text>
</a>
</g>
</g>
<!-- Node9&#45;&gt;Node10 -->
<g id="edge12" class="edge">
<title>Node9&#45;&gt;Node10</title>
<path fill="none" stroke="midnightblue" d="M1395.89,-194.31C1385.99,-184.56 1374.52,-173.26 1365.7,-164.58"/>
<polygon fill="midnightblue" stroke="midnightblue" points="1393.51,-196.87 1403.09,-201.4 1398.42,-191.89 1393.51,-196.87"/>
</g>
<!-- Node12 -->
<g id="node12" class="node">
<title>Node12</title>
<g id="a_node12"><a xlink:href="mnote-canon-tag_8c.html" target="_top" xlink:title=" ">
<polygon fill="white" stroke="black" points="1162.41,-134.5 1162.41,-164.5 1276.41,-164.5 1276.41,-134.5 1162.41,-134.5"/>
<text text-anchor="start" x="1170.41" y="-152.5" font-family="Helvetica,sans-Serif" font-size="10.00">libexif/canon/mnote</text>
<text text-anchor="middle" x="1219.41" y="-141.5" font-family="Helvetica,sans-Serif" font-size="10.00">&#45;canon&#45;tag.c</text>
</a>
</g>
</g>
<!-- Node9&#45;&gt;Node12 -->
<g id="edge15" class="edge">
<title>Node9&#45;&gt;Node12</title>
<path fill="none" stroke="midnightblue" d="M1364.79,-198.23C1332.76,-187.71 1292.37,-174.45 1262.29,-164.58"/>
<polygon fill="midnightblue" stroke="midnightblue" points="1363.85,-201.6 1374.44,-201.4 1366.04,-194.95 1363.85,-201.6"/>
</g>
<!-- Node10&#45;&gt;Node8 -->
<g id="edge13" class="edge">
<title>Node10&#45;&gt;Node8</title>
<path fill="none" stroke="midnightblue" d="M1378,-128.17C1390.99,-118.23 1406.31,-106.51 1418,-97.58"/>
<polygon fill="midnightblue" stroke="midnightblue" points="1375.67,-125.54 1369.85,-134.4 1379.92,-131.1 1375.67,-125.54"/>
</g>
<!-- Node11 -->
<g id="node11" class="node">
<title>Node11</title>
<g id="a_node11"><a xlink:href="mnote-canon-entry_8c.html" target="_top" xlink:title=" ">
<polygon fill="white" stroke="black" points="1244.41,-67.5 1244.41,-97.5 1358.41,-97.5 1358.41,-67.5 1244.41,-67.5"/>
<text text-anchor="start" x="1252.41" y="-85.5" font-family="Helvetica,sans-Serif" font-size="10.00">libexif/canon/mnote</text>
<text text-anchor="middle" x="1301.41" y="-74.5" font-family="Helvetica,sans-Serif" font-size="10.00">&#45;canon&#45;entry.c</text>
</a>
</g>
</g>
<!-- Node10&#45;&gt;Node11 -->
<g id="edge14" class="edge">
<title>Node10&#45;&gt;Node11</title>
<path fill="none" stroke="midnightblue" d="M1334.44,-126.45C1327.1,-116.9 1318.72,-106 1312.24,-97.58"/>
<polygon fill="midnightblue" stroke="midnightblue" points="1331.69,-128.6 1340.56,-134.4 1337.24,-124.34 1331.69,-128.6"/>
</g>
<!-- Node13&#45;&gt;Node6 -->
<g id="edge19" class="edge">
<title>Node13&#45;&gt;Node6</title>
<path fill="none" stroke="midnightblue" d="M1950.52,-196.69C1950.51,-178.05 1947.35,-150.05 1930.41,-134 1822.4,-31.68 1343.07,-18.29 1185.1,-16.67"/>
<polygon fill="midnightblue" stroke="midnightblue" points="1947.01,-196.78 1950.2,-206.89 1954.01,-197 1947.01,-196.78"/>
</g>
<!-- Node14 -->
<g id="node14" class="node">
<title>Node14</title>
<g id="a_node14"><a xlink:href="exif-loader_8c.html" target="_top" xlink:title=" ">
<polygon fill="white" stroke="black" points="1977.41,-140 1977.41,-159 2087.41,-159 2087.41,-140 1977.41,-140"/>
<text text-anchor="middle" x="2032.41" y="-147" font-family="Helvetica,sans-Serif" font-size="10.00">libexif/exif&#45;loader.c</text>
</a>
</g>
</g>
<!-- Node13&#45;&gt;Node14 -->
<g id="edge20" class="edge">
<title>Node13&#45;&gt;Node14</title>
<path fill="none" stroke="midnightblue" d="M1968.47,-200.57C1984.86,-187.74 2007.91,-169.69 2021.39,-159.13"/>
<polygon fill="midnightblue" stroke="midnightblue" points="1966.32,-197.81 1960.6,-206.73 1970.63,-203.32 1966.32,-197.81"/>
</g>
<!-- Node13&#45;&gt;Node15 -->
<g id="edge21" class="edge">
<title>Node13&#45;&gt;Node15</title>
<path fill="none" stroke="midnightblue" d="M1910.34,-204.01C1866.6,-191.15 1796.73,-170.59 1757.52,-159.06"/>
<polygon fill="midnightblue" stroke="midnightblue" points="1909.48,-207.4 1920.06,-206.87 1911.45,-200.69 1909.48,-207.4"/>
</g>
<!-- Node13&#45;&gt;Node16 -->
<g id="edge22" class="edge">
<title>Node13&#45;&gt;Node16</title>
<path fill="none" stroke="midnightblue" d="M1931.06,-200.21C1915.7,-187.41 1894.31,-169.59 1881.76,-159.13"/>
<polygon fill="midnightblue" stroke="midnightblue" points="1928.97,-203.02 1938.89,-206.73 1933.45,-197.64 1928.97,-203.02"/>
</g>
<!-- Node13&#45;&gt;Node17 -->
<g id="edge23" class="edge">
<title>Node13&#45;&gt;Node17</title>
<path fill="none" stroke="midnightblue" d="M1986.24,-203.77C2026.66,-190.89 2090.57,-170.52 2126.53,-159.06"/>
<polygon fill="midnightblue" stroke="midnightblue" points="1984.96,-200.5 1976.5,-206.87 1987.09,-207.17 1984.96,-200.5"/>
</g>
<!-- Node13&#45;&gt;Node18 -->
<g id="edge24" class="edge">
<title>Node13&#45;&gt;Node18</title>
<path fill="none" stroke="midnightblue" d="M2010.12,-205.19C2063.21,-195.83 2142.25,-181.07 2210.41,-165 2217.89,-163.24 2225.91,-161.12 2233.36,-159.05"/>
<polygon fill="midnightblue" stroke="midnightblue" points="2009.43,-201.75 2000.19,-206.93 2010.64,-208.65 2009.43,-201.75"/>
</g>
<!-- Node19&#45;&gt;Node6 -->
<g id="edge26" class="edge">
<title>Node19&#45;&gt;Node6</title>
<path fill="none" stroke="midnightblue" d="M142.32,-191.25C148.99,-153.24 163.77,-82.39 183.41,-67 219.09,-39.03 891.97,-21.91 1083.77,-17.59"/>
<polygon fill="midnightblue" stroke="midnightblue" points="138.81,-191.01 140.59,-201.46 145.71,-192.19 138.81,-191.01"/>
</g>
<!-- Node20 -->
<g id="node20" class="node">
<title>Node20</title>
<g id="a_node20"><a xlink:href="exif-mnote-data-fuji_8c.html" target="_top" xlink:title=" ">
<polygon fill="white" stroke="black" points="14.41,-134.5 14.41,-164.5 136.41,-164.5 136.41,-134.5 14.41,-134.5"/>
<text text-anchor="start" x="22.41" y="-152.5" font-family="Helvetica,sans-Serif" font-size="10.00">libexif/fuji/exif&#45;mnote</text>
<text text-anchor="middle" x="75.41" y="-141.5" font-family="Helvetica,sans-Serif" font-size="10.00">&#45;data&#45;fuji.c</text>
</a>
</g>
</g>
<!-- Node19&#45;&gt;Node20 -->
<g id="edge27" class="edge">
<title>Node19&#45;&gt;Node20</title>
<path fill="none" stroke="midnightblue" d="M117.59,-194.02C108.21,-184.34 97.38,-173.17 89.05,-164.58"/>
<polygon fill="midnightblue" stroke="midnightblue" points="115.26,-196.65 124.74,-201.4 120.29,-191.78 115.26,-196.65"/>
</g>
<!-- Node21 -->
<g id="node21" class="node">
<title>Node21</title>
<g id="a_node21"><a xlink:href="mnote-fuji-entry_8h.html" target="_top" xlink:title=" ">
<polygon fill="white" stroke="black" points="192.91,-134.5 192.91,-164.5 293.91,-164.5 293.91,-134.5 192.91,-134.5"/>
<text text-anchor="start" x="200.91" y="-152.5" font-family="Helvetica,sans-Serif" font-size="10.00">libexif/fuji/mnote</text>
<text text-anchor="middle" x="243.41" y="-141.5" font-family="Helvetica,sans-Serif" font-size="10.00">&#45;fuji&#45;entry.h</text>
</a>
</g>
</g>
<!-- Node19&#45;&gt;Node21 -->
<g id="edge28" class="edge">
<title>Node19&#45;&gt;Node21</title>
<path fill="none" stroke="midnightblue" d="M164.07,-195.73C179.52,-185.68 199.08,-173.68 214.99,-164.58"/>
<polygon fill="midnightblue" stroke="midnightblue" points="161.92,-192.96 155.51,-201.4 165.78,-198.8 161.92,-192.96"/>
</g>
<!-- Node21&#45;&gt;Node19 -->
<g id="edge29" class="edge">
<title>Node21&#45;&gt;Node19</title>
<path fill="none" stroke="midnightblue" d="M217.79,-170.24C202.35,-180.29 182.79,-192.28 166.87,-201.4"/>
<polygon fill="midnightblue" stroke="midnightblue" points="219.94,-173.01 226.34,-164.58 216.07,-167.18 219.94,-173.01"/>
</g>
<!-- Node22 -->
<g id="node22" class="node">
<title>Node22</title>
<g id="a_node22"><a xlink:href="mnote-fuji-entry_8c.html" target="_top" xlink:title=" ">
<polygon fill="white" stroke="black" points="192.91,-67.5 192.91,-97.5 293.91,-97.5 293.91,-67.5 192.91,-67.5"/>
<text text-anchor="start" x="200.91" y="-85.5" font-family="Helvetica,sans-Serif" font-size="10.00">libexif/fuji/mnote</text>
<text text-anchor="middle" x="243.41" y="-74.5" font-family="Helvetica,sans-Serif" font-size="10.00">&#45;fuji&#45;entry.c</text>
</a>
</g>
</g>
<!-- Node21&#45;&gt;Node22 -->
<g id="edge30" class="edge">
<title>Node21&#45;&gt;Node22</title>
<path fill="none" stroke="midnightblue" d="M243.41,-124.11C243.41,-115.15 243.41,-105.32 243.41,-97.58"/>
<polygon fill="midnightblue" stroke="midnightblue" points="239.91,-124.4 243.41,-134.4 246.91,-124.4 239.91,-124.4"/>
</g>
<!-- Node23&#45;&gt;Node21 -->
<g id="edge32" class="edge">
<title>Node23&#45;&gt;Node21</title>
<path fill="none" stroke="midnightblue" d="M259.37,-191.99C255.83,-182.8 251.9,-172.58 248.82,-164.58"/>
<polygon fill="midnightblue" stroke="midnightblue" points="256.13,-193.32 262.98,-201.4 262.66,-190.81 256.13,-193.32"/>
</g>
<!-- Node24 -->
<g id="node24" class="node">
<title>Node24</title>
<g id="a_node24"><a xlink:href="mnote-fuji-tag_8c.html" target="_top" xlink:title=" ">
<polygon fill="white" stroke="black" points="311.91,-134.5 311.91,-164.5 412.91,-164.5 412.91,-134.5 311.91,-134.5"/>
<text text-anchor="start" x="319.91" y="-152.5" font-family="Helvetica,sans-Serif" font-size="10.00">libexif/fuji/mnote</text>
<text text-anchor="middle" x="362.41" y="-141.5" font-family="Helvetica,sans-Serif" font-size="10.00">&#45;fuji&#45;tag.c</text>
</a>
</g>
</g>
<!-- Node23&#45;&gt;Node24 -->
<g id="edge33" class="edge">
<title>Node23&#45;&gt;Node24</title>
<path fill="none" stroke="midnightblue" d="M297.4,-195.45C311.86,-185.45 329,-173.6 342.05,-164.58"/>
<polygon fill="midnightblue" stroke="midnightblue" points="295.04,-192.83 288.8,-201.4 299.02,-198.59 295.04,-192.83"/>
</g>
<!-- Node26&#45;&gt;Node6 -->
<g id="edge36" class="edge">
<title>Node26&#45;&gt;Node6</title>
<path fill="none" stroke="midnightblue" d="M1630.03,-191.28C1625.95,-173.94 1618.47,-150.79 1605.41,-134 1572.56,-91.78 1555.42,-85.99 1505.41,-67 1396.47,-25.65 1258.2,-17.45 1185.08,-16.25"/>
<polygon fill="midnightblue" stroke="midnightblue" points="1626.64,-192.17 1632.15,-201.22 1633.49,-190.71 1626.64,-192.17"/>
</g>
<!-- Node26&#45;&gt;Node25 -->
<g id="edge37" class="edge">
<title>Node26&#45;&gt;Node25</title>
<path fill="none" stroke="midnightblue" d="M1603.23,-196.02C1587.05,-185.9 1567.64,-173.77 1552.93,-164.58"/>
<polygon fill="midnightblue" stroke="midnightblue" points="1601.51,-199.06 1611.84,-201.4 1605.22,-193.13 1601.51,-199.06"/>
</g>
<!-- Node27&#45;&gt;Node6 -->
<g id="edge39" class="edge">
<title>Node27&#45;&gt;Node6</title>
<path fill="none" stroke="midnightblue" d="M410.66,-192.49C421.13,-173.65 438.54,-147.91 461.41,-134 566.78,-69.88 945.21,-32.39 1083.41,-20.58"/>
<polygon fill="midnightblue" stroke="midnightblue" points="407.55,-190.89 405.96,-201.36 413.73,-194.17 407.55,-190.89"/>
</g>
<!-- Node28 -->
<g id="node28" class="node">
<title>Node28</title>
<g id="a_node28"><a xlink:href="exif-mnote-data-pentax_8c.html" target="_top" xlink:title=" ">
<polygon fill="white" stroke="black" points="469.91,-134.5 469.91,-164.5 592.91,-164.5 592.91,-134.5 469.91,-134.5"/>
<text text-anchor="start" x="477.91" y="-152.5" font-family="Helvetica,sans-Serif" font-size="10.00">libexif/pentax/exif</text>
<text text-anchor="middle" x="531.41" y="-141.5" font-family="Helvetica,sans-Serif" font-size="10.00">&#45;mnote&#45;data&#45;pentax.c</text>
</a>
</g>
</g>
<!-- Node27&#45;&gt;Node28 -->
<g id="edge40" class="edge">
<title>Node27&#45;&gt;Node28</title>
<path fill="none" stroke="midnightblue" d="M437.27,-196.85C458.15,-186.58 483.63,-174.03 502.82,-164.58"/>
<polygon fill="midnightblue" stroke="midnightblue" points="435.47,-193.84 428.05,-201.4 438.57,-200.12 435.47,-193.84"/>
</g>
<!-- Node35&#45;&gt;Node1 -->
<g id="edge53" class="edge">
<title>Node35&#45;&gt;Node1</title>
<path fill="none" stroke="midnightblue" d="M2337.13,-282.39C2149.48,-292.27 1591.55,-320.99 1408.93,-330.15"/>
<polygon fill="midnightblue" stroke="midnightblue" points="2337.57,-285.87 2347.37,-281.84 2337.2,-278.88 2337.57,-285.87"/>
</g>
<!-- Node35&#45;&gt;Node18 -->
<g id="edge57" class="edge">
<title>Node35&#45;&gt;Node18</title>
<path fill="none" stroke="midnightblue" d="M2373.4,-263.6C2359.02,-255.51 2341.31,-244.39 2327.41,-232 2301.6,-209 2278.12,-174.95 2267.86,-159.15"/>
<polygon fill="midnightblue" stroke="midnightblue" points="2371.84,-266.73 2382.3,-268.46 2375.2,-260.59 2371.84,-266.73"/>
</g>
<!-- Node36 -->
<g id="node36" class="node">
<title>Node36</title>
<g id="a_node36"><a xlink:href="mnote-apple-entry_8c.html" target="_top" xlink:title=" ">
<polygon fill="white" stroke="black" points="2618.41,-201.5 2618.41,-231.5 2730.41,-231.5 2730.41,-201.5 2618.41,-201.5"/>
<text text-anchor="start" x="2626.41" y="-219.5" font-family="Helvetica,sans-Serif" font-size="10.00">libexif/apple/mnote</text>
<text text-anchor="middle" x="2674.41" y="-208.5" font-family="Helvetica,sans-Serif" font-size="10.00">&#45;apple&#45;entry.c</text>
</a>
</g>
</g>
<!-- Node35&#45;&gt;Node36 -->
<g id="edge52" class="edge">
<title>Node35&#45;&gt;Node36</title>
<path fill="none" stroke="midnightblue" d="M2449.52,-266.38C2492.08,-257.34 2554.78,-243.95 2609.41,-232 2612.34,-231.36 2615.35,-230.7 2618.39,-230.03"/>
<polygon fill="midnightblue" stroke="midnightblue" points="2448.74,-262.97 2439.69,-268.47 2450.2,-269.82 2448.74,-262.97"/>
</g>
<!-- Node37 -->
<g id="node37" class="node">
<title>Node37</title>
<g id="a_node37"><a xlink:href="exif-entry_8c.html" target="_top" xlink:title=" ">
<polygon fill="white" stroke="black" points="2748.41,-207 2748.41,-226 2852.41,-226 2852.41,-207 2748.41,-207"/>
<text text-anchor="middle" x="2800.41" y="-214" font-family="Helvetica,sans-Serif" font-size="10.00">libexif/exif&#45;entry.c</text>
</a>
</g>
</g>
<!-- Node35&#45;&gt;Node37 -->
<g id="edge54" class="edge">
<title>Node35&#45;&gt;Node37</title>
<path fill="none" stroke="midnightblue" d="M2461.68,-270.68C2530.09,-263.3 2643.06,-249.78 2739.41,-232 2748.51,-230.32 2758.29,-228.16 2767.3,-226.02"/>
<polygon fill="midnightblue" stroke="midnightblue" points="2461.08,-267.23 2451.51,-271.77 2461.82,-274.19 2461.08,-267.23"/>
</g>
<!-- Node38 -->
<g id="node38" class="node">
<title>Node38</title>
<g id="a_node38"><a xlink:href="mnote-olympus-entry_8c.html" target="_top" xlink:title=" ">
<polygon fill="white" stroke="black" points="2335.91,-201.5 2335.91,-231.5 2462.91,-231.5 2462.91,-201.5 2335.91,-201.5"/>
<text text-anchor="start" x="2343.91" y="-219.5" font-family="Helvetica,sans-Serif" font-size="10.00">libexif/olympus/mnote</text>
<text text-anchor="middle" x="2399.41" y="-208.5" font-family="Helvetica,sans-Serif" font-size="10.00">&#45;olympus&#45;entry.c</text>
</a>
</g>
</g>
<!-- Node35&#45;&gt;Node38 -->
<g id="edge55" class="edge">
<title>Node35&#45;&gt;Node38</title>
<path fill="none" stroke="midnightblue" d="M2399.41,-258.23C2399.41,-249.59 2399.41,-239.5 2399.41,-231.52"/>
<polygon fill="midnightblue" stroke="midnightblue" points="2395.91,-258.48 2399.41,-268.48 2402.91,-258.48 2395.91,-258.48"/>
</g>
<!-- Node39 -->
<g id="node39" class="node">
<title>Node39</title>
<g id="a_node39"><a xlink:href="mnote-pentax-entry_8c.html" target="_top" xlink:title=" ">
<polygon fill="white" stroke="black" points="2480.91,-201.5 2480.91,-231.5 2599.91,-231.5 2599.91,-201.5 2480.91,-201.5"/>
<text text-anchor="start" x="2488.91" y="-219.5" font-family="Helvetica,sans-Serif" font-size="10.00">libexif/pentax/mnote</text>
<text text-anchor="middle" x="2540.41" y="-208.5" font-family="Helvetica,sans-Serif" font-size="10.00">&#45;pentax&#45;entry.c</text>
</a>
</g>
</g>
<!-- Node35&#45;&gt;Node39 -->
<g id="edge56" class="edge">
<title>Node35&#45;&gt;Node39</title>
<path fill="none" stroke="midnightblue" d="M2429.12,-264.46C2451.96,-254.82 2483.5,-241.51 2507.18,-231.52"/>
<polygon fill="midnightblue" stroke="midnightblue" points="2427.46,-261.36 2419.61,-268.48 2430.18,-267.81 2427.46,-261.36"/>
</g>
</g>
</svg>
