<?xml version="1.0" encoding="UTF-8" standalone="no"?>
<!DOCTYPE svg PUBLIC "-//W3C//DTD SVG 1.1//EN"
 "http://www.w3.org/Graphics/SVG/1.1/DTD/svg11.dtd">
<!-- Generated by graphviz version 2.44.1 (0)
 -->
<!-- Title: exif_entry_unref Pages: 1 -->
<svg width="492pt" height="47pt"
 viewBox="0.00 0.00 492.00 47.00" xmlns="http://www.w3.org/2000/svg" xmlns:xlink="http://www.w3.org/1999/xlink">
<g id="graph0" class="graph" transform="scale(1 1) rotate(0) translate(4 43)">
<title>exif_entry_unref</title>
<polygon fill="white" stroke="transparent" points="-4,4 -4,-43 488,-43 488,4 -4,4"/>
<!-- Node1 -->
<g id="node1" class="node">
<title>Node1</title>
<g id="a_node1"><a xlink:title="Decrease reference counter for ExifEntry.">
<polygon fill="#bfbfbf" stroke="black" points="0,-19.5 0,-38.5 97,-38.5 97,-19.5 0,-19.5"/>
<text text-anchor="middle" x="48.5" y="-26.5" font-family="Helvetica,sans-Serif" font-size="10.00">exif_entry_unref</text>
</a>
</g>
</g>
<!-- Node2 -->
<g id="node2" class="node">
<title>Node2</title>
<g id="a_node2"><a xlink:href="exif-entry_8c.html#a2879215e3863186650d3f32eb63bbaf4" target="_top" xlink:title="Actually free the ExifEntry.">
<polygon fill="white" stroke="black" points="133,-19.5 133,-38.5 224,-38.5 224,-19.5 133,-19.5"/>
<text text-anchor="middle" x="178.5" y="-26.5" font-family="Helvetica,sans-Serif" font-size="10.00">exif_entry_free</text>
</a>
</g>
</g>
<!-- Node1&#45;&gt;Node2 -->
<g id="edge1" class="edge">
<title>Node1&#45;&gt;Node2</title>
<path fill="none" stroke="midnightblue" d="M97.16,-29C105.45,-29 114.13,-29 122.59,-29"/>
<polygon fill="midnightblue" stroke="midnightblue" points="122.77,-32.5 132.77,-29 122.77,-25.5 122.77,-32.5"/>
</g>
<!-- Node3 -->
<g id="node3" class="node">
<title>Node3</title>
<g id="a_node3"><a xlink:href="exif-mem_8c.html#a43190b81b4b4bdb4ffb89bfb612051b1" target="_top" xlink:title=" ">
<polygon fill="white" stroke="black" points="393,-19.5 393,-38.5 484,-38.5 484,-19.5 393,-19.5"/>
<text text-anchor="middle" x="438.5" y="-26.5" font-family="Helvetica,sans-Serif" font-size="10.00">exif_mem_free</text>
</a>
</g>
</g>
<!-- Node2&#45;&gt;Node3 -->
<g id="edge2" class="edge">
<title>Node2&#45;&gt;Node3</title>
<path fill="none" stroke="midnightblue" d="M224.15,-29C268.22,-29 335.68,-29 382.92,-29"/>
<polygon fill="midnightblue" stroke="midnightblue" points="382.97,-32.5 392.97,-29 382.97,-25.5 382.97,-32.5"/>
</g>
<!-- Node4 -->
<g id="node4" class="node">
<title>Node4</title>
<g id="a_node4"><a xlink:href="exif-mem_8c.html#a66744e0987af08c443df247ce55f7d87" target="_top" xlink:title="Unrefcount an ExifMem.">
<polygon fill="white" stroke="black" points="260,-0.5 260,-19.5 357,-19.5 357,-0.5 260,-0.5"/>
<text text-anchor="middle" x="308.5" y="-7.5" font-family="Helvetica,sans-Serif" font-size="10.00">exif_mem_unref</text>
</a>
</g>
</g>
<!-- Node2&#45;&gt;Node4 -->
<g id="edge3" class="edge">
<title>Node2&#45;&gt;Node4</title>
<path fill="none" stroke="midnightblue" d="M224.27,-22.35C232.56,-21.12 241.32,-19.82 249.93,-18.55"/>
<polygon fill="midnightblue" stroke="midnightblue" points="250.55,-21.99 259.93,-17.06 249.52,-15.07 250.55,-21.99"/>
</g>
<!-- Node4&#45;&gt;Node3 -->
<g id="edge4" class="edge">
<title>Node4&#45;&gt;Node3</title>
<path fill="none" stroke="midnightblue" d="M357.16,-17.07C365.54,-18.32 374.32,-19.62 382.87,-20.89"/>
<polygon fill="midnightblue" stroke="midnightblue" points="382.36,-24.35 392.77,-22.36 383.39,-17.43 382.36,-24.35"/>
</g>
</g>
</svg>
