<?xml version="1.0" encoding="UTF-8" standalone="no"?>
<!DOCTYPE svg PUBLIC "-//W3C//DTD SVG 1.1//EN"
 "http://www.w3.org/Graphics/SVG/1.1/DTD/svg11.dtd">
<!-- Generated by graphviz version 7.0.1 (0)
 -->
<!-- Title: exif_mnote_data_apple_set_byte_order Pages: 1 -->
<svg width="707pt" height="473pt"
 viewBox="0.00 0.00 707.00 473.00" xmlns="http://www.w3.org/2000/svg" xmlns:xlink="http://www.w3.org/1999/xlink">
<g id="graph0" class="graph" transform="scale(1 1) rotate(0) translate(4 469)">
<title>exif_mnote_data_apple_set_byte_order</title>
<!-- Node1 -->
<g id="Node000001" class="node">
<title>Node1</title>
<g id="a_Node000001"><a xlink:title=" ">
<polygon fill="#999999" stroke="#666666" points="131,-282.5 0,-282.5 0,-252.5 131,-252.5 131,-282.5"/>
<text text-anchor="start" x="8" y="-270.5" font-family="Helvetica,sans-Serif" font-size="10.00">exif_mnote_data_apple</text>
<text text-anchor="middle" x="65.5" y="-259.5" font-family="Helvetica,sans-Serif" font-size="10.00">_set_byte_order</text>
</a>
</g>
</g>
<!-- Node2 -->
<g id="Node000002" class="node">
<title>Node2</title>
<g id="a_Node000002"><a xlink:href="exif-utils_8c.html#a54ef3b86ffeb643e9c4434b85ccf2992" target="_top" xlink:title=" ">
<polygon fill="white" stroke="#666666" points="280,-261.5 167,-261.5 167,-231.5 280,-231.5 280,-261.5"/>
<text text-anchor="start" x="175" y="-249.5" font-family="Helvetica,sans-Serif" font-size="10.00">exif_array_set_byte</text>
<text text-anchor="middle" x="223.5" y="-238.5" font-family="Helvetica,sans-Serif" font-size="10.00">_order</text>
</a>
</g>
</g>
<!-- Node1&#45;&gt;Node2 -->
<g id="edge1_Node000001_Node000002" class="edge">
<title>Node1&#45;&gt;Node2</title>
<g id="a_edge1_Node000001_Node000002"><a xlink:title=" ">
<path fill="none" stroke="#63b8ff" d="M131.3,-258.78C139.27,-257.7 147.42,-256.61 155.42,-255.53"/>
<polygon fill="#63b8ff" stroke="#63b8ff" points="155.65,-259.03 165.09,-254.23 154.71,-252.09 155.65,-259.03"/>
</a>
</g>
</g>
<!-- Node3 -->
<g id="Node000003" class="node">
<title>Node3</title>
<g id="a_Node000003"><a xlink:href="exif-format_8c.html#a924038efe0cd8ebade8f44619dd794f3" target="_top" xlink:title="Return the raw size of the given EXIF data type.">
<polygon fill="white" stroke="#666666" points="435,-465 316,-465 316,-446 435,-446 435,-465"/>
<text text-anchor="middle" x="375.5" y="-453" font-family="Helvetica,sans-Serif" font-size="10.00">exif_format_get_size</text>
</a>
</g>
</g>
<!-- Node1&#45;&gt;Node3 -->
<g id="edge23_Node000001_Node000003" class="edge">
<title>Node1&#45;&gt;Node3</title>
<g id="a_edge23_Node000001_Node000003"><a xlink:title=" ">
<path fill="none" stroke="#63b8ff" d="M91.23,-282.79C135.99,-310.43 233.43,-370.48 316,-420.5 326.44,-426.83 337.97,-433.74 348.01,-439.73"/>
<polygon fill="#63b8ff" stroke="#63b8ff" points="346.15,-442.7 356.53,-444.82 349.73,-436.69 346.15,-442.7"/>
</a>
</g>
</g>
<!-- Node2&#45;&gt;Node3 -->
<g id="edge2_Node000002_Node000003" class="edge">
<title>Node2&#45;&gt;Node3</title>
<g id="a_edge2_Node000002_Node000003"><a xlink:title=" ">
<path fill="none" stroke="#63b8ff" d="M232.05,-261.71C242.74,-283.25 262.88,-323.87 280,-358.5 296.03,-390.93 289.56,-406.82 316,-431.5 319.71,-434.96 323.99,-437.96 328.51,-440.54"/>
<polygon fill="#63b8ff" stroke="#63b8ff" points="326.8,-443.6 337.31,-444.89 329.9,-437.33 326.8,-443.6"/>
</a>
</g>
</g>
<!-- Node4 -->
<g id="Node000004" class="node">
<title>Node4</title>
<g id="a_Node000004"><a xlink:href="exif-utils_8c.html#a4ad94614630897766dd0a5c9bc2a59bf" target="_top" xlink:title="Retrieve an ExifLong value from memory.">
<polygon fill="white" stroke="#666666" points="564.5,-389 481.5,-389 481.5,-370 564.5,-370 564.5,-389"/>
<text text-anchor="middle" x="523" y="-377" font-family="Helvetica,sans-Serif" font-size="10.00">exif_get_long</text>
</a>
</g>
</g>
<!-- Node2&#45;&gt;Node4 -->
<g id="edge3_Node000002_Node000004" class="edge">
<title>Node2&#45;&gt;Node4</title>
<g id="a_edge3_Node000002_Node000004"><a xlink:title=" ">
<path fill="none" stroke="#63b8ff" d="M231.38,-261.89C247.6,-297.4 288.92,-383.19 316,-398.5 370.39,-429.24 445.98,-409.43 488.85,-393.58"/>
<polygon fill="#63b8ff" stroke="#63b8ff" points="490.03,-396.87 498.1,-390 487.51,-390.34 490.03,-396.87"/>
</a>
</g>
</g>
<!-- Node5 -->
<g id="Node000005" class="node">
<title>Node5</title>
<g id="a_Node000005"><a xlink:href="exif-utils_8c.html#a56b96f076a13da6ed926e1ef29cb2dc3" target="_top" xlink:title="Retrieve an ExifSLong value from memory.">
<polygon fill="white" stroke="#666666" points="699,-351 611,-351 611,-332 699,-332 699,-351"/>
<text text-anchor="middle" x="655" y="-339" font-family="Helvetica,sans-Serif" font-size="10.00">exif_get_slong</text>
</a>
</g>
</g>
<!-- Node2&#45;&gt;Node5 -->
<g id="edge9_Node000002_Node000005" class="edge">
<title>Node2&#45;&gt;Node5</title>
<g id="a_edge9_Node000002_Node000005"><a xlink:title=" ">
<path fill="none" stroke="#63b8ff" d="M237.19,-261.8C253.35,-280.01 283.14,-309.58 316,-322.5 410.1,-359.5 530.38,-355.35 599.15,-348.65"/>
<polygon fill="#63b8ff" stroke="#63b8ff" points="599.46,-352.14 609.05,-347.62 598.74,-345.17 599.46,-352.14"/>
</a>
</g>
</g>
<!-- Node6 -->
<g id="Node000006" class="node">
<title>Node6</title>
<g id="a_Node000006"><a xlink:href="exif-utils_8c.html#a1feb547c289aa57a4d2119338b03706c" target="_top" xlink:title="Retrieve an ExifRational value from memory.">
<polygon fill="white" stroke="#666666" points="425,-389 326,-389 326,-370 425,-370 425,-389"/>
<text text-anchor="middle" x="375.5" y="-377" font-family="Helvetica,sans-Serif" font-size="10.00">exif_get_rational</text>
</a>
</g>
</g>
<!-- Node2&#45;&gt;Node6 -->
<g id="edge5_Node000002_Node000006" class="edge">
<title>Node2&#45;&gt;Node6</title>
<g id="a_edge5_Node000002_Node000006"><a xlink:title=" ">
<path fill="none" stroke="#63b8ff" d="M233.91,-261.91C248.76,-285.07 279.69,-328.98 316,-355.5 320.93,-359.1 326.48,-362.27 332.15,-365.03"/>
<polygon fill="#63b8ff" stroke="#63b8ff" points="330.42,-368.09 340.98,-368.93 333.25,-361.69 330.42,-368.09"/>
</a>
</g>
</g>
<!-- Node7 -->
<g id="Node000007" class="node">
<title>Node7</title>
<g id="a_Node000007"><a xlink:href="exif-utils_8c.html#a4b4acf537a8c6b9405e7b53be868e4d7" target="_top" xlink:title="Retrieve an ExifShort value from memory.">
<polygon fill="white" stroke="#666666" points="418.5,-313 332.5,-313 332.5,-294 418.5,-294 418.5,-313"/>
<text text-anchor="middle" x="375.5" y="-301" font-family="Helvetica,sans-Serif" font-size="10.00">exif_get_short</text>
</a>
</g>
</g>
<!-- Node2&#45;&gt;Node7 -->
<g id="edge7_Node000002_Node000007" class="edge">
<title>Node2&#45;&gt;Node7</title>
<g id="a_edge7_Node000002_Node000007"><a xlink:title=" ">
<path fill="none" stroke="#63b8ff" d="M265.09,-261.93C287.8,-270.56 315.89,-281.23 337.92,-289.6"/>
<polygon fill="#63b8ff" stroke="#63b8ff" points="336.51,-292.81 347.1,-293.09 338.99,-286.26 336.51,-292.81"/>
</a>
</g>
</g>
<!-- Node8 -->
<g id="Node000008" class="node">
<title>Node8</title>
<g id="a_Node000008"><a xlink:href="exif-utils_8c.html#a6baf094a71392f9cea23ad633ec13c8b" target="_top" xlink:title="Retrieve an ExifSShort value from memory.">
<polygon fill="white" stroke="#666666" points="569,-294 477,-294 477,-275 569,-275 569,-294"/>
<text text-anchor="middle" x="523" y="-282" font-family="Helvetica,sans-Serif" font-size="10.00">exif_get_sshort</text>
</a>
</g>
</g>
<!-- Node2&#45;&gt;Node8 -->
<g id="edge12_Node000002_Node000008" class="edge">
<title>Node2&#45;&gt;Node8</title>
<g id="a_edge12_Node000002_Node000008"><a xlink:title=" ">
<path fill="none" stroke="#63b8ff" d="M280.46,-253.65C333.3,-260.4 412.16,-270.47 465.26,-277.25"/>
<polygon fill="#63b8ff" stroke="#63b8ff" points="464.65,-280.7 475.01,-278.5 465.54,-273.76 464.65,-280.7"/>
</a>
</g>
</g>
<!-- Node9 -->
<g id="Node000009" class="node">
<title>Node9</title>
<g id="a_Node000009"><a xlink:href="exif-utils_8c.html#adb97c3499488d5642a82df1cb16dc2cb" target="_top" xlink:title="Retrieve an ExifSRational value from memory.">
<polygon fill="white" stroke="#666666" points="575,-237 471,-237 471,-218 575,-218 575,-237"/>
<text text-anchor="middle" x="523" y="-225" font-family="Helvetica,sans-Serif" font-size="10.00">exif_get_srational</text>
</a>
</g>
</g>
<!-- Node2&#45;&gt;Node9 -->
<g id="edge10_Node000002_Node000009" class="edge">
<title>Node2&#45;&gt;Node9</title>
<g id="a_edge10_Node000002_Node000009"><a xlink:title=" ">
<path fill="none" stroke="#63b8ff" d="M280.46,-242.93C331.42,-239.67 406.58,-234.87 459.5,-231.49"/>
<polygon fill="#63b8ff" stroke="#63b8ff" points="459.5,-235 469.25,-230.87 459.05,-228.01 459.5,-235"/>
</a>
</g>
</g>
<!-- Node10 -->
<g id="Node000010" class="node">
<title>Node10</title>
<g id="a_Node000010"><a xlink:href="exif-utils_8c.html#ac90147d0cc97bec7a577bf9576191bf8" target="_top" xlink:title="Store an ExifLong value into memory in EXIF format.">
<polygon fill="white" stroke="#666666" points="564,-161 482,-161 482,-142 564,-142 564,-161"/>
<text text-anchor="middle" x="523" y="-149" font-family="Helvetica,sans-Serif" font-size="10.00">exif_set_long</text>
</a>
</g>
</g>
<!-- Node2&#45;&gt;Node10 -->
<g id="edge13_Node000002_Node000010" class="edge">
<title>Node2&#45;&gt;Node10</title>
<g id="a_edge13_Node000002_Node000010"><a xlink:title=" ">
<path fill="none" stroke="#63b8ff" d="M272.96,-231.03C330.57,-212.63 425.75,-182.24 480.24,-164.84"/>
<polygon fill="#63b8ff" stroke="#63b8ff" points="480.99,-168.27 489.46,-161.89 478.86,-161.6 480.99,-168.27"/>
</a>
</g>
</g>
<!-- Node11 -->
<g id="Node000011" class="node">
<title>Node11</title>
<g id="a_Node000011"><a xlink:href="exif-utils_8c.html#ae6e3b9d1663f9ab9bd462d73a310ca03" target="_top" xlink:title="Store an ExifSLong value into memory in EXIF format.">
<polygon fill="white" stroke="#666666" points="698.5,-123 611.5,-123 611.5,-104 698.5,-104 698.5,-123"/>
<text text-anchor="middle" x="655" y="-111" font-family="Helvetica,sans-Serif" font-size="10.00">exif_set_slong</text>
</a>
</g>
</g>
<!-- Node2&#45;&gt;Node11 -->
<g id="edge19_Node000002_Node000011" class="edge">
<title>Node2&#45;&gt;Node11</title>
<g id="a_edge19_Node000002_Node000011"><a xlink:title=" ">
<path fill="none" stroke="#63b8ff" d="M231.5,-231.41C244.23,-205.96 273.79,-155.19 316,-133.5 406.88,-86.8 530.18,-94.3 599.97,-103.92"/>
<polygon fill="#63b8ff" stroke="#63b8ff" points="599.22,-107.35 609.62,-105.32 600.22,-100.42 599.22,-107.35"/>
</a>
</g>
</g>
<!-- Node12 -->
<g id="Node000012" class="node">
<title>Node12</title>
<g id="a_Node000012"><a xlink:href="exif-utils_8c.html#a400a16b1754150f721e9fca67ad89a52" target="_top" xlink:title="Store an ExifRational value into memory in EXIF format.">
<polygon fill="white" stroke="#666666" points="424.5,-161 326.5,-161 326.5,-142 424.5,-142 424.5,-161"/>
<text text-anchor="middle" x="375.5" y="-149" font-family="Helvetica,sans-Serif" font-size="10.00">exif_set_rational</text>
</a>
</g>
</g>
<!-- Node2&#45;&gt;Node12 -->
<g id="edge15_Node000002_Node000012" class="edge">
<title>Node2&#45;&gt;Node12</title>
<g id="a_edge15_Node000002_Node000012"><a xlink:title=" ">
<path fill="none" stroke="#63b8ff" d="M241.37,-231.12C259.01,-215.62 287.98,-191.71 316,-175.5 322.11,-171.96 328.84,-168.69 335.5,-165.77"/>
<polygon fill="#63b8ff" stroke="#63b8ff" points="336.51,-169.14 344.4,-162.07 333.82,-162.68 336.51,-169.14"/>
</a>
</g>
</g>
<!-- Node13 -->
<g id="Node000013" class="node">
<title>Node13</title>
<g id="a_Node000013"><a xlink:href="exif-utils_8c.html#ad905d16e26b4052a1db34dbebdc37341" target="_top" xlink:title="Store an ExifShort value into memory in EXIF format.">
<polygon fill="white" stroke="#666666" points="418.5,-85 332.5,-85 332.5,-66 418.5,-66 418.5,-85"/>
<text text-anchor="middle" x="375.5" y="-73" font-family="Helvetica,sans-Serif" font-size="10.00">exif_set_short</text>
</a>
</g>
</g>
<!-- Node2&#45;&gt;Node13 -->
<g id="edge17_Node000002_Node000013" class="edge">
<title>Node2&#45;&gt;Node13</title>
<g id="a_edge17_Node000002_Node000013"><a xlink:title=" ">
<path fill="none" stroke="#63b8ff" d="M230.16,-231.43C241.88,-202.15 271.46,-137.14 316,-99.5 320.18,-95.97 324.95,-92.9 329.93,-90.25"/>
<polygon fill="#63b8ff" stroke="#63b8ff" points="331.36,-93.44 338.93,-86.03 328.39,-87.1 331.36,-93.44"/>
</a>
</g>
</g>
<!-- Node14 -->
<g id="Node000014" class="node">
<title>Node14</title>
<g id="a_Node000014"><a xlink:href="exif-utils_8c.html#a6504651147702fc6db9a5cd4aa997023" target="_top" xlink:title="Store an ExifSShort value into memory in EXIF format.">
<polygon fill="white" stroke="#666666" points="568.5,-75 477.5,-75 477.5,-56 568.5,-56 568.5,-75"/>
<text text-anchor="middle" x="523" y="-63" font-family="Helvetica,sans-Serif" font-size="10.00">exif_set_sshort</text>
</a>
</g>
</g>
<!-- Node2&#45;&gt;Node14 -->
<g id="edge22_Node000002_Node000014" class="edge">
<title>Node2&#45;&gt;Node14</title>
<g id="a_edge22_Node000002_Node000014"><a xlink:title=" ">
<path fill="none" stroke="#63b8ff" d="M226.49,-231.16C232.3,-193.56 252.99,-97 316,-57.5 367.19,-25.41 440.44,-39.12 484.4,-52.18"/>
<polygon fill="#63b8ff" stroke="#63b8ff" points="483.15,-55.45 493.74,-55.09 485.23,-48.77 483.15,-55.45"/>
</a>
</g>
</g>
<!-- Node15 -->
<g id="Node000015" class="node">
<title>Node15</title>
<g id="a_Node000015"><a xlink:href="exif-utils_8c.html#aca1790a72b1833dff1b0bf728052c3c5" target="_top" xlink:title="Store an ExifSRational value into memory in EXIF format.">
<polygon fill="white" stroke="#666666" points="575,-19 471,-19 471,0 575,0 575,-19"/>
<text text-anchor="middle" x="523" y="-7" font-family="Helvetica,sans-Serif" font-size="10.00">exif_set_srational</text>
</a>
</g>
</g>
<!-- Node2&#45;&gt;Node15 -->
<g id="edge20_Node000002_Node000015" class="edge">
<title>Node2&#45;&gt;Node15</title>
<g id="a_edge20_Node000002_Node000015"><a xlink:title=" ">
<path fill="none" stroke="#63b8ff" d="M225.97,-231.26C230.69,-191.3 249.36,-83.17 316,-33.5 356.77,-3.12 415.24,1.05 459.48,-1.32"/>
<polygon fill="#63b8ff" stroke="#63b8ff" points="458.96,-4.79 469.17,-1.97 459.43,2.19 458.96,-4.79"/>
</a>
</g>
</g>
<!-- Node4&#45;&gt;Node5 -->
<g id="edge4_Node000004_Node000005" class="edge">
<title>Node4&#45;&gt;Node5</title>
<g id="a_edge4_Node000004_Node000005"><a xlink:title=" ">
<path fill="none" stroke="#63b8ff" d="M558.16,-369.52C573.83,-364.93 592.62,-359.44 609.39,-354.54"/>
<polygon fill="#63b8ff" stroke="#63b8ff" points="610,-358.01 618.62,-351.84 608.04,-351.29 610,-358.01"/>
</a>
</g>
</g>
<!-- Node6&#45;&gt;Node4 -->
<g id="edge6_Node000006_Node000004" class="edge">
<title>Node6&#45;&gt;Node4</title>
<g id="a_edge6_Node000006_Node000004"><a xlink:title=" ">
<path fill="none" stroke="#63b8ff" d="M425.35,-379.5C439.69,-379.5 455.41,-379.5 469.93,-379.5"/>
<polygon fill="#63b8ff" stroke="#63b8ff" points="469.76,-383 479.76,-379.5 469.76,-376 469.76,-383"/>
</a>
</g>
</g>
<!-- Node7&#45;&gt;Node8 -->
<g id="edge8_Node000007_Node000008" class="edge">
<title>Node7&#45;&gt;Node8</title>
<g id="a_edge8_Node000007_Node000008"><a xlink:title=" ">
<path fill="none" stroke="#63b8ff" d="M418.98,-297.95C433.56,-296.05 450.11,-293.89 465.62,-291.86"/>
<polygon fill="#63b8ff" stroke="#63b8ff" points="465.72,-295.38 475.18,-290.61 464.81,-288.44 465.72,-295.38"/>
</a>
</g>
</g>
<!-- Node9&#45;&gt;Node5 -->
<g id="edge11_Node000009_Node000005" class="edge">
<title>Node9&#45;&gt;Node5</title>
<g id="a_edge11_Node000009_Node000005"><a xlink:title=" ">
<path fill="none" stroke="#63b8ff" d="M537.73,-237.38C548.18,-245.05 562.79,-256.08 575,-266.5 597.1,-285.34 621.11,-308.57 636.79,-324.14"/>
<polygon fill="#63b8ff" stroke="#63b8ff" points="633.96,-326.26 643.51,-330.85 638.91,-321.31 633.96,-326.26"/>
</a>
</g>
</g>
<!-- Node10&#45;&gt;Node11 -->
<g id="edge14_Node000010_Node000011" class="edge">
<title>Node10&#45;&gt;Node11</title>
<g id="a_edge14_Node000010_Node000011"><a xlink:title=" ">
<path fill="none" stroke="#63b8ff" d="M558.16,-141.52C573.83,-136.93 592.62,-131.44 609.39,-126.54"/>
<polygon fill="#63b8ff" stroke="#63b8ff" points="610,-130.01 618.62,-123.84 608.04,-123.29 610,-130.01"/>
</a>
</g>
</g>
<!-- Node12&#45;&gt;Node10 -->
<g id="edge16_Node000012_Node000010" class="edge">
<title>Node12&#45;&gt;Node10</title>
<g id="a_edge16_Node000012_Node000010"><a xlink:title=" ">
<path fill="none" stroke="#63b8ff" d="M424.95,-151.5C439.43,-151.5 455.36,-151.5 470.06,-151.5"/>
<polygon fill="#63b8ff" stroke="#63b8ff" points="470.01,-155 480.01,-151.5 470.01,-148 470.01,-155"/>
</a>
</g>
</g>
<!-- Node13&#45;&gt;Node14 -->
<g id="edge18_Node000013_Node000014" class="edge">
<title>Node13&#45;&gt;Node14</title>
<g id="a_edge18_Node000013_Node000014"><a xlink:title=" ">
<path fill="none" stroke="#63b8ff" d="M418.98,-72.58C433.69,-71.57 450.42,-70.42 466.05,-69.35"/>
<polygon fill="#63b8ff" stroke="#63b8ff" points="465.94,-72.86 475.68,-68.68 465.46,-65.88 465.94,-72.86"/>
</a>
</g>
</g>
<!-- Node15&#45;&gt;Node11 -->
<g id="edge21_Node000015_Node000011" class="edge">
<title>Node15&#45;&gt;Node11</title>
<g id="a_edge21_Node000015_Node000011"><a xlink:title=" ">
<path fill="none" stroke="#63b8ff" d="M537.58,-19.3C547.94,-26.86 562.52,-37.65 575,-47.5 595.52,-63.7 618.39,-82.94 634.22,-96.45"/>
<polygon fill="#63b8ff" stroke="#63b8ff" points="631.63,-98.84 641.5,-102.69 636.19,-93.53 631.63,-98.84"/>
</a>
</g>
</g>
</g>
</svg>
