<?xml version="1.0" encoding="UTF-8" standalone="no"?>
<!DOCTYPE svg PUBLIC "-//W3C//DTD SVG 1.1//EN"
 "http://www.w3.org/Graphics/SVG/1.1/DTD/svg11.dtd">
<!-- Generated by graphviz version 2.44.1 (0)
 -->
<!-- Title: libexif/canon/exif&#45;mnote&#45;data&#45;canon.c Pages: 1 -->
<svg width="1096pt" height="587pt"
 viewBox="0.00 0.00 1095.50 587.00" xmlns="http://www.w3.org/2000/svg" xmlns:xlink="http://www.w3.org/1999/xlink">
<g id="graph0" class="graph" transform="scale(1 1) rotate(0) translate(4 583)">
<title>libexif/canon/exif&#45;mnote&#45;data&#45;canon.c</title>
<polygon fill="white" stroke="transparent" points="-4,4 -4,-583 1091.5,-583 1091.5,4 -4,4"/>
<!-- Node1 -->
<g id="node1" class="node">
<title>Node1</title>
<g id="a_node1"><a xlink:title=" ">
<polygon fill="#bfbfbf" stroke="black" points="782.5,-548.5 782.5,-578.5 901.5,-578.5 901.5,-548.5 782.5,-548.5"/>
<text text-anchor="start" x="790.5" y="-566.5" font-family="Helvetica,sans-Serif" font-size="10.00">libexif/canon/exif</text>
<text text-anchor="middle" x="842" y="-555.5" font-family="Helvetica,sans-Serif" font-size="10.00">&#45;mnote&#45;data&#45;canon.c</text>
</a>
</g>
</g>
<!-- Node2 -->
<g id="node2" class="node">
<title>Node2</title>
<g id="a_node2"><a xlink:title=" ">
<polygon fill="white" stroke="#bfbfbf" points="0,-492.5 0,-511.5 56,-511.5 56,-492.5 0,-492.5"/>
<text text-anchor="middle" x="28" y="-499.5" font-family="Helvetica,sans-Serif" font-size="10.00">config.h</text>
</a>
</g>
</g>
<!-- Node1&#45;&gt;Node2 -->
<g id="edge1" class="edge">
<title>Node1&#45;&gt;Node2</title>
<path fill="none" stroke="midnightblue" d="M782.13,-561.55C651.97,-558.84 333.74,-548.68 70,-512 68.75,-511.83 67.49,-511.64 66.21,-511.43"/>
<polygon fill="midnightblue" stroke="midnightblue" points="66.83,-507.99 56.37,-509.66 65.59,-514.88 66.83,-507.99"/>
</g>
<!-- Node3 -->
<g id="node3" class="node">
<title>Node3</title>
<g id="a_node3"><a xlink:href="exif-mnote-data-canon_8h.html" target="_top" xlink:title=" ">
<polygon fill="white" stroke="black" points="289.5,-492.5 289.5,-511.5 426.5,-511.5 426.5,-492.5 289.5,-492.5"/>
<text text-anchor="middle" x="358" y="-499.5" font-family="Helvetica,sans-Serif" font-size="10.00">exif&#45;mnote&#45;data&#45;canon.h</text>
</a>
</g>
</g>
<!-- Node1&#45;&gt;Node3 -->
<g id="edge2" class="edge">
<title>Node1&#45;&gt;Node3</title>
<path fill="none" stroke="midnightblue" d="M782.17,-555.14C695.08,-544.44 533.3,-524.55 436.67,-512.67"/>
<polygon fill="midnightblue" stroke="midnightblue" points="437.01,-509.19 426.66,-511.44 436.16,-516.13 437.01,-509.19"/>
</g>
<!-- Node4 -->
<g id="node4" class="node">
<title>Node4</title>
<g id="a_node4"><a xlink:href="exif-byte-order_8h.html" target="_top" xlink:title="Defines the ExifByteOrder enum and the associated functions.">
<polygon fill="white" stroke="black" points="539.5,-0.5 539.5,-19.5 670.5,-19.5 670.5,-0.5 539.5,-0.5"/>
<text text-anchor="middle" x="605" y="-7.5" font-family="Helvetica,sans-Serif" font-size="10.00">libexif/exif&#45;byte&#45;order.h</text>
</a>
</g>
</g>
<!-- Node1&#45;&gt;Node4 -->
<g id="edge44" class="edge">
<title>Node1&#45;&gt;Node4</title>
<path fill="none" stroke="midnightblue" d="M846.6,-548.3C858.62,-509.92 890,-400.75 890,-307.5 890,-307.5 890,-307.5 890,-121 890,-85.09 872.4,-75.11 842,-56 815.56,-39.38 739.51,-26.85 680.61,-19.29"/>
<polygon fill="midnightblue" stroke="midnightblue" points="680.93,-15.8 670.57,-18.03 680.06,-22.75 680.93,-15.8"/>
</g>
<!-- Node8 -->
<g id="node8" class="node">
<title>Node8</title>
<g id="a_node8"><a xlink:href="exif-utils_8h.html" target="_top" xlink:title="EXIF data manipulation functions and types.">
<polygon fill="white" stroke="black" points="118.5,-56.5 118.5,-75.5 219.5,-75.5 219.5,-56.5 118.5,-56.5"/>
<text text-anchor="middle" x="169" y="-63.5" font-family="Helvetica,sans-Serif" font-size="10.00">libexif/exif&#45;utils.h</text>
</a>
</g>
</g>
<!-- Node1&#45;&gt;Node8 -->
<g id="edge45" class="edge">
<title>Node1&#45;&gt;Node8</title>
<path fill="none" stroke="midnightblue" d="M782.29,-562.07C678.93,-560.24 460.54,-551.53 281,-512 190.18,-492 84,-534.49 84,-441.5 84,-441.5 84,-441.5 84,-177 84,-135.76 121.86,-100.57 147.05,-81.73"/>
<polygon fill="midnightblue" stroke="midnightblue" points="149.27,-84.44 155.34,-75.76 145.18,-78.76 149.27,-84.44"/>
</g>
<!-- Node13 -->
<g id="node13" class="node">
<title>Node13</title>
<g id="a_node13"><a xlink:href="exif-data_8h.html" target="_top" xlink:title="Defines the ExifData type and the associated functions.">
<polygon fill="white" stroke="black" points="508,-297 508,-316 610,-316 610,-297 508,-297"/>
<text text-anchor="middle" x="559" y="-304" font-family="Helvetica,sans-Serif" font-size="10.00">libexif/exif&#45;data.h</text>
</a>
</g>
</g>
<!-- Node1&#45;&gt;Node13 -->
<g id="edge46" class="edge">
<title>Node1&#45;&gt;Node13</title>
<path fill="none" stroke="midnightblue" d="M826.38,-548.43C777.43,-504.32 627.21,-368.96 576.17,-322.97"/>
<polygon fill="midnightblue" stroke="midnightblue" points="578.38,-320.25 568.61,-316.16 573.69,-325.45 578.38,-320.25"/>
</g>
<!-- Node21 -->
<g id="node21" class="node">
<title>Node21</title>
<g id="a_node21"><a xlink:title=" ">
<polygon fill="white" stroke="#bfbfbf" points="894.5,-492.5 894.5,-511.5 947.5,-511.5 947.5,-492.5 894.5,-492.5"/>
<text text-anchor="middle" x="921" y="-499.5" font-family="Helvetica,sans-Serif" font-size="10.00">stdlib.h</text>
</a>
</g>
</g>
<!-- Node1&#45;&gt;Node21 -->
<g id="edge41" class="edge">
<title>Node1&#45;&gt;Node21</title>
<path fill="none" stroke="midnightblue" d="M860.72,-548.4C872.91,-539.22 888.79,-527.26 901.19,-517.92"/>
<polygon fill="midnightblue" stroke="midnightblue" points="903.62,-520.47 909.5,-511.66 899.41,-514.88 903.62,-520.47"/>
</g>
<!-- Node22 -->
<g id="node22" class="node">
<title>Node22</title>
<g id="a_node22"><a xlink:title=" ">
<polygon fill="white" stroke="#bfbfbf" points="966,-492.5 966,-511.5 1016,-511.5 1016,-492.5 966,-492.5"/>
<text text-anchor="middle" x="991" y="-499.5" font-family="Helvetica,sans-Serif" font-size="10.00">stdio.h</text>
</a>
</g>
</g>
<!-- Node1&#45;&gt;Node22 -->
<g id="edge42" class="edge">
<title>Node1&#45;&gt;Node22</title>
<path fill="none" stroke="midnightblue" d="M877.31,-548.4C902.42,-538.37 935.84,-525.03 959.94,-515.4"/>
<polygon fill="midnightblue" stroke="midnightblue" points="961.33,-518.62 969.32,-511.66 958.73,-512.12 961.33,-518.62"/>
</g>
<!-- Node23 -->
<g id="node23" class="node">
<title>Node23</title>
<g id="a_node23"><a xlink:title=" ">
<polygon fill="white" stroke="#bfbfbf" points="1034.5,-492.5 1034.5,-511.5 1087.5,-511.5 1087.5,-492.5 1034.5,-492.5"/>
<text text-anchor="middle" x="1061" y="-499.5" font-family="Helvetica,sans-Serif" font-size="10.00">string.h</text>
</a>
</g>
</g>
<!-- Node1&#45;&gt;Node23 -->
<g id="edge43" class="edge">
<title>Node1&#45;&gt;Node23</title>
<path fill="none" stroke="midnightblue" d="M893.62,-548.47C933.79,-537.56 988.54,-522.69 1024.32,-512.97"/>
<polygon fill="midnightblue" stroke="midnightblue" points="1025.6,-516.25 1034.33,-510.25 1023.76,-509.49 1025.6,-516.25"/>
</g>
<!-- Node3&#45;&gt;Node4 -->
<g id="edge3" class="edge">
<title>Node3&#45;&gt;Node4</title>
<path fill="none" stroke="midnightblue" d="M408.09,-492.43C533.68,-469.53 852,-402.14 852,-307.5 852,-307.5 852,-307.5 852,-121 852,-45.01 753.23,-21.14 680.6,-13.86"/>
<polygon fill="midnightblue" stroke="midnightblue" points="680.82,-10.36 670.54,-12.94 680.18,-17.33 680.82,-10.36"/>
</g>
<!-- Node5 -->
<g id="node5" class="node">
<title>Node5</title>
<g id="a_node5"><a xlink:href="exif-mnote-data_8h.html" target="_top" xlink:title="Handling EXIF MakerNote tags.">
<polygon fill="white" stroke="black" points="302.5,-224.5 302.5,-254.5 405.5,-254.5 405.5,-224.5 302.5,-224.5"/>
<text text-anchor="start" x="310.5" y="-242.5" font-family="Helvetica,sans-Serif" font-size="10.00">libexif/exif&#45;mnote</text>
<text text-anchor="middle" x="354" y="-231.5" font-family="Helvetica,sans-Serif" font-size="10.00">&#45;data.h</text>
</a>
</g>
</g>
<!-- Node3&#45;&gt;Node5 -->
<g id="edge4" class="edge">
<title>Node3&#45;&gt;Node5</title>
<path fill="none" stroke="midnightblue" d="M357.87,-492.33C357.32,-456.66 355.23,-320.45 354.37,-264.6"/>
<polygon fill="midnightblue" stroke="midnightblue" points="357.87,-264.5 354.22,-254.56 350.87,-264.61 357.87,-264.5"/>
</g>
<!-- Node7 -->
<g id="node7" class="node">
<title>Node7</title>
<g id="a_node7"><a xlink:href="exif-mem_8h.html" target="_top" xlink:title="Define the ExifMem data type and the associated functions.">
<polygon fill="white" stroke="black" points="373,-112.5 373,-131.5 479,-131.5 479,-112.5 373,-112.5"/>
<text text-anchor="middle" x="426" y="-119.5" font-family="Helvetica,sans-Serif" font-size="10.00">libexif/exif&#45;mem.h</text>
</a>
</g>
</g>
<!-- Node3&#45;&gt;Node7 -->
<g id="edge16" class="edge">
<title>Node3&#45;&gt;Node7</title>
<path fill="none" stroke="midnightblue" d="M289.39,-495.49C235.12,-489.54 165.64,-477.82 148,-456 139.34,-445.29 144.72,-438.38 148,-425 179.32,-297.42 191.27,-249.88 294,-168 314.72,-151.49 341.84,-140.87 366.11,-134.12"/>
<polygon fill="midnightblue" stroke="midnightblue" points="367.16,-137.47 375.95,-131.55 365.39,-130.69 367.16,-137.47"/>
</g>
<!-- Node12 -->
<g id="node12" class="node">
<title>Node12</title>
<g id="a_node12"><a xlink:href="exif-mnote-data-priv_8h.html" target="_top" xlink:title=" ">
<polygon fill="white" stroke="black" points="226.5,-291.5 226.5,-321.5 329.5,-321.5 329.5,-291.5 226.5,-291.5"/>
<text text-anchor="start" x="234.5" y="-309.5" font-family="Helvetica,sans-Serif" font-size="10.00">libexif/exif&#45;mnote</text>
<text text-anchor="middle" x="278" y="-298.5" font-family="Helvetica,sans-Serif" font-size="10.00">&#45;data&#45;priv.h</text>
</a>
</g>
</g>
<!-- Node3&#45;&gt;Node12 -->
<g id="edge12" class="edge">
<title>Node3&#45;&gt;Node12</title>
<path fill="none" stroke="midnightblue" d="M354.46,-492.44C342.84,-464.34 305.61,-374.27 287.74,-331.06"/>
<polygon fill="midnightblue" stroke="midnightblue" points="290.9,-329.53 283.84,-321.63 284.43,-332.21 290.9,-329.53"/>
</g>
<!-- Node3&#45;&gt;Node13 -->
<g id="edge17" class="edge">
<title>Node3&#45;&gt;Node13</title>
<path fill="none" stroke="midnightblue" d="M377.55,-492.4C411.59,-476.54 482.1,-439.62 524,-389 539.53,-370.24 549.23,-343.55 554.38,-325.89"/>
<polygon fill="midnightblue" stroke="midnightblue" points="557.76,-326.78 557,-316.21 551.01,-324.95 557.76,-326.78"/>
</g>
<!-- Node19 -->
<g id="node19" class="node">
<title>Node19</title>
<g id="a_node19"><a xlink:href="mnote-canon-entry_8h.html" target="_top" xlink:title=" ">
<polygon fill="white" stroke="black" points="157,-425.5 157,-455.5 271,-455.5 271,-425.5 157,-425.5"/>
<text text-anchor="start" x="165" y="-443.5" font-family="Helvetica,sans-Serif" font-size="10.00">libexif/canon/mnote</text>
<text text-anchor="middle" x="214" y="-432.5" font-family="Helvetica,sans-Serif" font-size="10.00">&#45;canon&#45;entry.h</text>
</a>
</g>
</g>
<!-- Node3&#45;&gt;Node19 -->
<g id="edge36" class="edge">
<title>Node3&#45;&gt;Node19</title>
<path fill="none" stroke="midnightblue" d="M337.37,-492.48C316.59,-483.89 283.9,-470.38 257.39,-459.43"/>
<polygon fill="midnightblue" stroke="midnightblue" points="258.52,-456.11 247.94,-455.52 255.84,-462.58 258.52,-456.11"/>
</g>
<!-- Node6 -->
<g id="node6" class="node">
<title>Node6</title>
<g id="a_node6"><a xlink:href="exif-log_8h.html" target="_top" xlink:title="Log message infrastructure.">
<polygon fill="white" stroke="black" points="302.5,-168.5 302.5,-187.5 397.5,-187.5 397.5,-168.5 302.5,-168.5"/>
<text text-anchor="middle" x="350" y="-175.5" font-family="Helvetica,sans-Serif" font-size="10.00">libexif/exif&#45;log.h</text>
</a>
</g>
</g>
<!-- Node5&#45;&gt;Node6 -->
<g id="edge5" class="edge">
<title>Node5&#45;&gt;Node6</title>
<path fill="none" stroke="midnightblue" d="M353.05,-224.4C352.52,-216.47 351.85,-206.46 351.27,-197.86"/>
<polygon fill="midnightblue" stroke="midnightblue" points="354.74,-197.4 350.58,-187.66 347.76,-197.87 354.74,-197.4"/>
</g>
<!-- Node6&#45;&gt;Node7 -->
<g id="edge6" class="edge">
<title>Node6&#45;&gt;Node7</title>
<path fill="none" stroke="midnightblue" d="M362.21,-168.32C373.78,-160.11 391.38,-147.6 405.16,-137.81"/>
<polygon fill="midnightblue" stroke="midnightblue" points="407.44,-140.48 413.57,-131.83 403.39,-134.77 407.44,-140.48"/>
</g>
<!-- Node11 -->
<g id="node11" class="node">
<title>Node11</title>
<g id="a_node11"><a xlink:title=" ">
<polygon fill="white" stroke="#bfbfbf" points="299,-112.5 299,-131.5 355,-131.5 355,-112.5 299,-112.5"/>
<text text-anchor="middle" x="327" y="-119.5" font-family="Helvetica,sans-Serif" font-size="10.00">stdarg.h</text>
</a>
</g>
</g>
<!-- Node6&#45;&gt;Node11 -->
<g id="edge11" class="edge">
<title>Node6&#45;&gt;Node11</title>
<path fill="none" stroke="midnightblue" d="M346.2,-168.08C343.09,-160.77 338.58,-150.18 334.71,-141.1"/>
<polygon fill="midnightblue" stroke="midnightblue" points="337.87,-139.58 330.73,-131.75 331.43,-142.32 337.87,-139.58"/>
</g>
<!-- Node7&#45;&gt;Node8 -->
<g id="edge7" class="edge">
<title>Node7&#45;&gt;Node8</title>
<path fill="none" stroke="midnightblue" d="M385.28,-112.44C340.35,-103 268,-87.8 219.5,-77.61"/>
<polygon fill="midnightblue" stroke="midnightblue" points="220.04,-74.15 209.53,-75.52 218.6,-81 220.04,-74.15"/>
</g>
<!-- Node8&#45;&gt;Node4 -->
<g id="edge8" class="edge">
<title>Node8&#45;&gt;Node4</title>
<path fill="none" stroke="midnightblue" d="M219.73,-57.89C224.55,-57.24 229.37,-56.6 234,-56 336.01,-42.75 453.96,-28.65 528.99,-19.84"/>
<polygon fill="midnightblue" stroke="midnightblue" points="529.76,-23.27 539.28,-18.63 528.94,-16.32 529.76,-23.27"/>
</g>
<!-- Node9 -->
<g id="node9" class="node">
<title>Node9</title>
<g id="a_node9"><a xlink:href="exif-format_8h.html" target="_top" xlink:title="Handling native EXIF data types.">
<polygon fill="white" stroke="black" points="172.5,-0.5 172.5,-19.5 285.5,-19.5 285.5,-0.5 172.5,-0.5"/>
<text text-anchor="middle" x="229" y="-7.5" font-family="Helvetica,sans-Serif" font-size="10.00">libexif/exif&#45;format.h</text>
</a>
</g>
</g>
<!-- Node8&#45;&gt;Node9 -->
<g id="edge9" class="edge">
<title>Node8&#45;&gt;Node9</title>
<path fill="none" stroke="midnightblue" d="M178.64,-56.32C187.51,-48.34 200.87,-36.31 211.61,-26.65"/>
<polygon fill="midnightblue" stroke="midnightblue" points="214.09,-29.13 219.18,-19.83 209.41,-23.92 214.09,-29.13"/>
</g>
<!-- Node10 -->
<g id="node10" class="node">
<title>Node10</title>
<g id="a_node10"><a xlink:title=" ">
<polygon fill="white" stroke="#bfbfbf" points="62,-0.5 62,-19.5 154,-19.5 154,-0.5 62,-0.5"/>
<text text-anchor="middle" x="108" y="-7.5" font-family="Helvetica,sans-Serif" font-size="10.00">libexif/_stdint.h</text>
</a>
</g>
</g>
<!-- Node8&#45;&gt;Node10 -->
<g id="edge10" class="edge">
<title>Node8&#45;&gt;Node10</title>
<path fill="none" stroke="midnightblue" d="M159.2,-56.32C150.18,-48.34 136.59,-36.31 125.68,-26.65"/>
<polygon fill="midnightblue" stroke="midnightblue" points="127.79,-23.84 117.98,-19.83 123.15,-29.08 127.79,-23.84"/>
</g>
<!-- Node12&#45;&gt;Node4 -->
<g id="edge14" class="edge">
<title>Node12&#45;&gt;Node4</title>
<path fill="none" stroke="midnightblue" d="M273.92,-291.38C264.76,-256.5 246.63,-165.23 290,-112 347.86,-40.98 455.89,-19.25 529.13,-12.96"/>
<polygon fill="midnightblue" stroke="midnightblue" points="529.52,-16.44 539.22,-12.17 528.98,-9.46 529.52,-16.44"/>
</g>
<!-- Node12&#45;&gt;Node5 -->
<g id="edge13" class="edge">
<title>Node12&#45;&gt;Node5</title>
<path fill="none" stroke="midnightblue" d="M294.49,-291.4C304.85,-282.54 318.38,-270.96 329.93,-261.09"/>
<polygon fill="midnightblue" stroke="midnightblue" points="332.22,-263.74 337.54,-254.58 327.67,-258.42 332.22,-263.74"/>
</g>
<!-- Node12&#45;&gt;Node6 -->
<g id="edge15" class="edge">
<title>Node12&#45;&gt;Node6</title>
<path fill="none" stroke="midnightblue" d="M277.9,-291.49C278.39,-274.38 281.24,-245.1 294,-224 301.64,-211.37 314.18,-200.8 325.47,-193.08"/>
<polygon fill="midnightblue" stroke="midnightblue" points="327.6,-195.87 334.13,-187.52 323.82,-189.98 327.6,-195.87"/>
</g>
<!-- Node13&#45;&gt;Node4 -->
<g id="edge18" class="edge">
<title>Node13&#45;&gt;Node4</title>
<path fill="none" stroke="midnightblue" d="M610.3,-302.48C684.76,-295.01 814,-269.07 814,-179 814,-179 814,-179 814,-121 814,-58.66 740.28,-31.57 680.41,-19.85"/>
<polygon fill="midnightblue" stroke="midnightblue" points="681.02,-16.4 670.56,-18.03 679.75,-23.28 681.02,-16.4"/>
</g>
<!-- Node13&#45;&gt;Node5 -->
<g id="edge34" class="edge">
<title>Node13&#45;&gt;Node5</title>
<path fill="none" stroke="midnightblue" d="M531.78,-296.87C500.28,-286.88 447.66,-270.2 407.82,-257.56"/>
<polygon fill="midnightblue" stroke="midnightblue" points="408.83,-254.21 398.24,-254.53 406.72,-260.89 408.83,-254.21"/>
</g>
<!-- Node13&#45;&gt;Node6 -->
<g id="edge21" class="edge">
<title>Node13&#45;&gt;Node6</title>
<path fill="none" stroke="midnightblue" d="M539.52,-296.9C518.81,-287.49 485.34,-271.54 458,-255 437.84,-242.8 434.24,-237.59 415,-224 400.39,-213.68 383.8,-202.2 371.04,-193.42"/>
<polygon fill="midnightblue" stroke="midnightblue" points="372.73,-190.33 362.51,-187.56 368.77,-196.1 372.73,-190.33"/>
</g>
<!-- Node13&#45;&gt;Node7 -->
<g id="edge35" class="edge">
<title>Node13&#45;&gt;Node7</title>
<path fill="none" stroke="midnightblue" d="M543.84,-296.89C529.12,-287.94 506.87,-272.75 492,-255 462.21,-219.44 441.55,-168.15 432,-141.17"/>
<polygon fill="midnightblue" stroke="midnightblue" points="435.24,-139.84 428.69,-131.51 428.62,-142.1 435.24,-139.84"/>
</g>
<!-- Node14 -->
<g id="node14" class="node">
<title>Node14</title>
<g id="a_node14"><a xlink:href="exif-data-type_8h.html" target="_top" xlink:title=" ">
<polygon fill="white" stroke="black" points="658,-112.5 658,-131.5 786,-131.5 786,-112.5 658,-112.5"/>
<text text-anchor="middle" x="722" y="-119.5" font-family="Helvetica,sans-Serif" font-size="10.00">libexif/exif&#45;data&#45;type.h</text>
</a>
</g>
</g>
<!-- Node13&#45;&gt;Node14 -->
<g id="edge19" class="edge">
<title>Node13&#45;&gt;Node14</title>
<path fill="none" stroke="midnightblue" d="M597.47,-296.89C646.66,-283.43 728.85,-252.04 757,-188 764.6,-170.7 751.85,-151.78 739.65,-138.83"/>
<polygon fill="midnightblue" stroke="midnightblue" points="741.9,-136.13 732.32,-131.61 736.99,-141.12 741.9,-136.13"/>
</g>
<!-- Node15 -->
<g id="node15" class="node">
<title>Node15</title>
<g id="a_node15"><a xlink:href="exif-ifd_8h.html" target="_top" xlink:title=" ">
<polygon fill="white" stroke="black" points="546.5,-112.5 546.5,-131.5 639.5,-131.5 639.5,-112.5 546.5,-112.5"/>
<text text-anchor="middle" x="593" y="-119.5" font-family="Helvetica,sans-Serif" font-size="10.00">libexif/exif&#45;ifd.h</text>
</a>
</g>
</g>
<!-- Node13&#45;&gt;Node15 -->
<g id="edge20" class="edge">
<title>Node13&#45;&gt;Node15</title>
<path fill="none" stroke="midnightblue" d="M578.9,-296.99C595.16,-288.84 617.02,-274.84 627,-255 646.32,-216.59 621.09,-166.21 604.82,-140.2"/>
<polygon fill="midnightblue" stroke="midnightblue" points="607.72,-138.25 599.32,-131.79 601.86,-142.07 607.72,-138.25"/>
</g>
<!-- Node16 -->
<g id="node16" class="node">
<title>Node16</title>
<g id="a_node16"><a xlink:href="exif-tag_8h.html" target="_top" xlink:title="Handling EXIF tags.">
<polygon fill="white" stroke="black" points="652,-168.5 652,-187.5 748,-187.5 748,-168.5 652,-168.5"/>
<text text-anchor="middle" x="700" y="-175.5" font-family="Helvetica,sans-Serif" font-size="10.00">libexif/exif&#45;tag.h</text>
</a>
</g>
</g>
<!-- Node13&#45;&gt;Node16 -->
<g id="edge22" class="edge">
<title>Node13&#45;&gt;Node16</title>
<path fill="none" stroke="midnightblue" d="M586.69,-296.96C608.75,-289.01 639.27,-275.3 660,-255 676.6,-238.74 687.82,-214.11 694.05,-197.33"/>
<polygon fill="midnightblue" stroke="midnightblue" points="697.45,-198.19 697.43,-187.6 690.84,-195.89 697.45,-198.19"/>
</g>
<!-- Node17 -->
<g id="node17" class="node">
<title>Node17</title>
<g id="a_node17"><a xlink:href="exif-content_8h.html" target="_top" xlink:title="Handling EXIF IFDs.">
<polygon fill="white" stroke="black" points="500.5,-230 500.5,-249 617.5,-249 617.5,-230 500.5,-230"/>
<text text-anchor="middle" x="559" y="-237" font-family="Helvetica,sans-Serif" font-size="10.00">libexif/exif&#45;content.h</text>
</a>
</g>
</g>
<!-- Node13&#45;&gt;Node17 -->
<g id="edge25" class="edge">
<title>Node13&#45;&gt;Node17</title>
<path fill="none" stroke="midnightblue" d="M554.21,-296.73C552.2,-287.18 551.74,-271.62 552.82,-259.28"/>
<polygon fill="midnightblue" stroke="midnightblue" points="556.32,-259.52 554.24,-249.13 549.38,-258.54 556.32,-259.52"/>
</g>
<!-- Node16&#45;&gt;Node14 -->
<g id="edge24" class="edge">
<title>Node16&#45;&gt;Node14</title>
<path fill="none" stroke="midnightblue" d="M703.63,-168.08C706.61,-160.77 710.93,-150.18 714.62,-141.1"/>
<polygon fill="midnightblue" stroke="midnightblue" points="717.9,-142.33 718.43,-131.75 711.42,-139.69 717.9,-142.33"/>
</g>
<!-- Node16&#45;&gt;Node15 -->
<g id="edge23" class="edge">
<title>Node16&#45;&gt;Node15</title>
<path fill="none" stroke="midnightblue" d="M682.81,-168.32C665.65,-159.66 639.05,-146.24 619.25,-136.25"/>
<polygon fill="midnightblue" stroke="midnightblue" points="620.65,-133.04 610.15,-131.65 617.5,-139.28 620.65,-133.04"/>
</g>
<!-- Node17&#45;&gt;Node6 -->
<g id="edge32" class="edge">
<title>Node17&#45;&gt;Node6</title>
<path fill="none" stroke="midnightblue" d="M529.06,-229.98C492.43,-219.55 430.3,-201.86 389.72,-190.31"/>
<polygon fill="midnightblue" stroke="midnightblue" points="390.47,-186.88 379.89,-187.51 388.55,-193.61 390.47,-186.88"/>
</g>
<!-- Node17&#45;&gt;Node7 -->
<g id="edge33" class="edge">
<title>Node17&#45;&gt;Node7</title>
<path fill="none" stroke="midnightblue" d="M543.6,-229.91C527.62,-220.63 502.32,-204.9 483,-188 466.13,-173.25 449.55,-153.59 438.66,-139.77"/>
<polygon fill="midnightblue" stroke="midnightblue" points="441.26,-137.42 432.38,-131.65 435.73,-141.7 441.26,-137.42"/>
</g>
<!-- Node17&#45;&gt;Node13 -->
<g id="edge31" class="edge">
<title>Node17&#45;&gt;Node13</title>
<path fill="none" stroke="midnightblue" d="M563.76,-249.13C565.78,-258.62 566.26,-274.17 565.2,-286.54"/>
<polygon fill="midnightblue" stroke="midnightblue" points="561.69,-286.35 563.79,-296.73 568.63,-287.31 561.69,-286.35"/>
</g>
<!-- Node17&#45;&gt;Node16 -->
<g id="edge26" class="edge">
<title>Node17&#45;&gt;Node16</title>
<path fill="none" stroke="midnightblue" d="M579.2,-229.98C603.07,-219.9 643,-203.05 670.37,-191.5"/>
<polygon fill="midnightblue" stroke="midnightblue" points="671.98,-194.62 679.84,-187.51 669.26,-188.17 671.98,-194.62"/>
</g>
<!-- Node18 -->
<g id="node18" class="node">
<title>Node18</title>
<g id="a_node18"><a xlink:href="exif-entry_8h.html" target="_top" xlink:title="Handling EXIF entries.">
<polygon fill="white" stroke="black" points="492,-168.5 492,-187.5 596,-187.5 596,-168.5 492,-168.5"/>
<text text-anchor="middle" x="544" y="-175.5" font-family="Helvetica,sans-Serif" font-size="10.00">libexif/exif&#45;entry.h</text>
</a>
</g>
</g>
<!-- Node17&#45;&gt;Node18 -->
<g id="edge27" class="edge">
<title>Node17&#45;&gt;Node18</title>
<path fill="none" stroke="midnightblue" d="M551.95,-229.98C548,-221.58 544.23,-208.48 542.39,-197.66"/>
<polygon fill="midnightblue" stroke="midnightblue" points="545.84,-197.06 541.25,-187.51 538.89,-197.84 545.84,-197.06"/>
</g>
<!-- Node18&#45;&gt;Node7 -->
<g id="edge30" class="edge">
<title>Node18&#45;&gt;Node7</title>
<path fill="none" stroke="midnightblue" d="M525.3,-168.44C506.06,-159.64 475.85,-145.81 453.8,-135.72"/>
<polygon fill="midnightblue" stroke="midnightblue" points="455.16,-132.5 444.61,-131.52 452.25,-138.86 455.16,-132.5"/>
</g>
<!-- Node18&#45;&gt;Node9 -->
<g id="edge29" class="edge">
<title>Node18&#45;&gt;Node9</title>
<path fill="none" stroke="midnightblue" d="M538.51,-168.22C529.51,-154.48 510.37,-127.83 488,-112 421.98,-65.29 331.42,-36.46 276.73,-22.11"/>
<polygon fill="midnightblue" stroke="midnightblue" points="277.5,-18.69 266.95,-19.6 275.76,-25.47 277.5,-18.69"/>
</g>
<!-- Node18&#45;&gt;Node17 -->
<g id="edge28" class="edge">
<title>Node18&#45;&gt;Node17</title>
<path fill="none" stroke="midnightblue" d="M551.04,-187.51C554.99,-195.9 558.77,-209 560.61,-219.82"/>
<polygon fill="midnightblue" stroke="midnightblue" points="557.15,-220.43 561.75,-229.98 564.11,-219.65 557.15,-220.43"/>
</g>
<!-- Node19&#45;&gt;Node4 -->
<g id="edge38" class="edge">
<title>Node19&#45;&gt;Node4</title>
<path fill="none" stroke="midnightblue" d="M213.12,-425.46C211.74,-398.96 209.99,-339.87 218,-291 231.47,-208.87 230.74,-183.7 273,-112 290.56,-82.21 296.36,-72.03 327,-56 361.27,-38.07 459.37,-25.11 529.31,-17.83"/>
<polygon fill="midnightblue" stroke="midnightblue" points="529.82,-21.3 539.41,-16.8 529.11,-14.33 529.82,-21.3"/>
</g>
<!-- Node19&#45;&gt;Node9 -->
<g id="edge37" class="edge">
<title>Node19&#45;&gt;Node9</title>
<path fill="none" stroke="midnightblue" d="M204.3,-425.44C197.84,-415.59 189.56,-401.93 184,-389 154.03,-319.32 65.79,-118.35 109,-56 121.42,-38.08 141.91,-27.29 162.47,-20.79"/>
<polygon fill="midnightblue" stroke="midnightblue" points="163.56,-24.12 172.22,-18.01 161.64,-17.39 163.56,-24.12"/>
</g>
<!-- Node20 -->
<g id="node20" class="node">
<title>Node20</title>
<g id="a_node20"><a xlink:href="mnote-canon-tag_8h.html" target="_top" xlink:title=" ">
<polygon fill="white" stroke="black" points="401,-358.5 401,-388.5 515,-388.5 515,-358.5 401,-358.5"/>
<text text-anchor="start" x="409" y="-376.5" font-family="Helvetica,sans-Serif" font-size="10.00">libexif/canon/mnote</text>
<text text-anchor="middle" x="458" y="-365.5" font-family="Helvetica,sans-Serif" font-size="10.00">&#45;canon&#45;tag.h</text>
</a>
</g>
</g>
<!-- Node19&#45;&gt;Node20 -->
<g id="edge39" class="edge">
<title>Node19&#45;&gt;Node20</title>
<path fill="none" stroke="midnightblue" d="M266.64,-425.48C304.36,-415.43 355.31,-401.86 395.15,-391.24"/>
<polygon fill="midnightblue" stroke="midnightblue" points="396.27,-394.57 405.03,-388.61 394.47,-387.8 396.27,-394.57"/>
</g>
<!-- Node20&#45;&gt;Node13 -->
<g id="edge40" class="edge">
<title>Node20&#45;&gt;Node13</title>
<path fill="none" stroke="midnightblue" d="M479.92,-358.4C496.85,-347.5 520.19,-332.48 537.12,-321.58"/>
<polygon fill="midnightblue" stroke="midnightblue" points="539.27,-324.36 545.78,-316.01 535.48,-318.48 539.27,-324.36"/>
</g>
</g>
</svg>
