<?xml version="1.0" encoding="UTF-8" standalone="no"?>
<!DOCTYPE svg PUBLIC "-//W3C//DTD SVG 1.1//EN"
 "http://www.w3.org/Graphics/SVG/1.1/DTD/svg11.dtd">
<!-- Generated by graphviz version 7.0.1 (0)
 -->
<!-- Title: exif_content_unref Pages: 1 -->
<svg width="774pt" height="130pt"
 viewBox="0.00 0.00 774.00 130.36" xmlns="http://www.w3.org/2000/svg" xmlns:xlink="http://www.w3.org/1999/xlink">
<g id="graph0" class="graph" transform="scale(1 1) rotate(0) translate(4 126.36)">
<title>exif_content_unref</title>
<!-- Node1 -->
<g id="Node000001" class="node">
<title>Node1</title>
<g id="a_Node000001"><a xlink:title="Decrease reference counter for ExifContent.">
<polygon fill="#999999" stroke="#666666" points="108,-76 0,-76 0,-57 108,-57 108,-76"/>
<text text-anchor="middle" x="54" y="-64" font-family="Helvetica,sans-Serif" font-size="10.00">exif_content_unref</text>
</a>
</g>
</g>
<!-- Node2 -->
<g id="Node000002" class="node">
<title>Node2</title>
<g id="a_Node000002"><a xlink:href="exif-content_8c.html#af77d27f5949aa4249fd54a5146c28289" target="_top" xlink:title="Actually free the ExifContent.">
<polygon fill="white" stroke="#666666" points="246,-76 144,-76 144,-57 246,-57 246,-76"/>
<text text-anchor="middle" x="195" y="-64" font-family="Helvetica,sans-Serif" font-size="10.00">exif_content_free</text>
</a>
</g>
</g>
<!-- Node1&#45;&gt;Node2 -->
<g id="edge1_Node000001_Node000002" class="edge">
<title>Node1&#45;&gt;Node2</title>
<g id="a_edge1_Node000001_Node000002"><a xlink:title=" ">
<path fill="none" stroke="#63b8ff" d="M108.34,-66.5C116.25,-66.5 124.46,-66.5 132.52,-66.5"/>
<polygon fill="#63b8ff" stroke="#63b8ff" points="132.26,-70 142.26,-66.5 132.26,-63 132.26,-70"/>
</a>
</g>
</g>
<!-- Node3 -->
<g id="Node000003" class="node">
<title>Node3</title>
<g id="a_Node000003"><a xlink:href="exif-entry_8c.html#a82d5d923121488d847d341727cdd2ef4" target="_top" xlink:title="Decrease reference counter for ExifEntry.">
<polygon fill="white" stroke="#666666" points="379,-95 282,-95 282,-76 379,-76 379,-95"/>
<text text-anchor="middle" x="330.5" y="-83" font-family="Helvetica,sans-Serif" font-size="10.00">exif_entry_unref</text>
</a>
</g>
</g>
<!-- Node2&#45;&gt;Node3 -->
<g id="edge2_Node000002_Node000003" class="edge">
<title>Node2&#45;&gt;Node3</title>
<g id="a_edge2_Node000002_Node000003"><a xlink:title=" ">
<path fill="none" stroke="#63b8ff" d="M246.47,-73.68C254.3,-74.8 262.45,-75.96 270.44,-77.1"/>
<polygon fill="#63b8ff" stroke="#63b8ff" points="269.71,-80.53 280.11,-78.47 270.7,-73.6 269.71,-80.53"/>
</a>
</g>
</g>
<!-- Node5 -->
<g id="Node000005" class="node">
<title>Node5</title>
<g id="a_Node000005"><a xlink:href="exif-mem_8c.html#a43190b81b4b4bdb4ffb89bfb612051b1" target="_top" xlink:title=" ">
<polygon fill="white" stroke="#666666" points="766,-76 675,-76 675,-57 766,-57 766,-76"/>
<text text-anchor="middle" x="720.5" y="-64" font-family="Helvetica,sans-Serif" font-size="10.00">exif_mem_free</text>
</a>
</g>
</g>
<!-- Node2&#45;&gt;Node5 -->
<g id="edge11_Node000002_Node000005" class="edge">
<title>Node2&#45;&gt;Node5</title>
<g id="a_edge11_Node000002_Node000005"><a xlink:title=" ">
<path fill="none" stroke="#63b8ff" d="M212.75,-76.42C229.58,-85.78 256.61,-99.14 282,-104.5 437.38,-137.3 483.21,-120.32 639,-89.5 651.88,-86.95 665.7,-83.34 678.18,-79.73"/>
<polygon fill="#63b8ff" stroke="#63b8ff" points="679.17,-83.08 687.76,-76.88 677.18,-76.37 679.17,-83.08"/>
</a>
</g>
</g>
<!-- Node6 -->
<g id="Node000006" class="node">
<title>Node6</title>
<g id="a_Node000006"><a xlink:href="exif-mem_8c.html#a66744e0987af08c443df247ce55f7d87" target="_top" xlink:title="Unrefcount an ExifMem.">
<polygon fill="white" stroke="#666666" points="639,-57 542,-57 542,-38 639,-38 639,-57"/>
<text text-anchor="middle" x="590.5" y="-45" font-family="Helvetica,sans-Serif" font-size="10.00">exif_mem_unref</text>
</a>
</g>
</g>
<!-- Node2&#45;&gt;Node6 -->
<g id="edge12_Node000002_Node000006" class="edge">
<title>Node2&#45;&gt;Node6</title>
<g id="a_edge12_Node000002_Node000006"><a xlink:title=" ">
<path fill="none" stroke="#63b8ff" d="M246.24,-64.07C318.86,-60.57 452.92,-54.09 530.27,-50.36"/>
<polygon fill="#63b8ff" stroke="#63b8ff" points="530.38,-53.86 540.2,-49.88 530.05,-46.87 530.38,-53.86"/>
</a>
</g>
</g>
<!-- Node7 -->
<g id="Node000007" class="node">
<title>Node7</title>
<g id="a_Node000007"><a xlink:href="exif-log_8c.html#a7a9b738a7429197d68c80ffedac7d8fb" target="_top" xlink:title=" ">
<polygon fill="white" stroke="#666666" points="373.5,-19 287.5,-19 287.5,0 373.5,0 373.5,-19"/>
<text text-anchor="middle" x="330.5" y="-7" font-family="Helvetica,sans-Serif" font-size="10.00">exif_log_unref</text>
</a>
</g>
</g>
<!-- Node2&#45;&gt;Node7 -->
<g id="edge7_Node000002_Node000007" class="edge">
<title>Node2&#45;&gt;Node7</title>
<g id="a_edge7_Node000002_Node000007"><a xlink:title=" ">
<path fill="none" stroke="#63b8ff" d="M219.25,-56.57C240.5,-47.5 272.17,-33.98 296.12,-23.75"/>
<polygon fill="#63b8ff" stroke="#63b8ff" points="297.3,-27.05 305.12,-19.91 294.55,-20.62 297.3,-27.05"/>
</a>
</g>
</g>
<!-- Node4 -->
<g id="Node000004" class="node">
<title>Node4</title>
<g id="a_Node000004"><a xlink:href="exif-entry_8c.html#a2879215e3863186650d3f32eb63bbaf4" target="_top" xlink:title="Actually free the ExifEntry.">
<polygon fill="white" stroke="#666666" points="506,-95 415,-95 415,-76 506,-76 506,-95"/>
<text text-anchor="middle" x="460.5" y="-83" font-family="Helvetica,sans-Serif" font-size="10.00">exif_entry_free</text>
</a>
</g>
</g>
<!-- Node3&#45;&gt;Node4 -->
<g id="edge3_Node000003_Node000004" class="edge">
<title>Node3&#45;&gt;Node4</title>
<g id="a_edge3_Node000003_Node000004"><a xlink:title=" ">
<path fill="none" stroke="#63b8ff" d="M379.16,-85.5C387.09,-85.5 395.37,-85.5 403.47,-85.5"/>
<polygon fill="#63b8ff" stroke="#63b8ff" points="403.25,-89 413.25,-85.5 403.25,-82 403.25,-89"/>
</a>
</g>
</g>
<!-- Node4&#45;&gt;Node5 -->
<g id="edge4_Node000004_Node000005" class="edge">
<title>Node4&#45;&gt;Node5</title>
<g id="a_edge4_Node000004_Node000005"><a xlink:title=" ">
<path fill="none" stroke="#63b8ff" d="M506.44,-82.19C550.05,-78.98 616.37,-74.09 663.42,-70.63"/>
<polygon fill="#63b8ff" stroke="#63b8ff" points="663.42,-74.14 673.13,-69.91 662.9,-67.16 663.42,-74.14"/>
</a>
</g>
</g>
<!-- Node4&#45;&gt;Node6 -->
<g id="edge5_Node000004_Node000006" class="edge">
<title>Node4&#45;&gt;Node6</title>
<g id="a_edge5_Node000004_Node000006"><a xlink:title=" ">
<path fill="none" stroke="#63b8ff" d="M495.13,-75.52C510.42,-70.98 528.71,-65.55 545.11,-60.68"/>
<polygon fill="#63b8ff" stroke="#63b8ff" points="546.05,-64.05 554.64,-57.85 544.06,-57.34 546.05,-64.05"/>
</a>
</g>
</g>
<!-- Node6&#45;&gt;Node5 -->
<g id="edge6_Node000006_Node000005" class="edge">
<title>Node6&#45;&gt;Node5</title>
<g id="a_edge6_Node000006_Node000005"><a xlink:title=" ">
<path fill="none" stroke="#63b8ff" d="M639.16,-54.57C647.09,-55.75 655.37,-56.98 663.47,-58.18"/>
<polygon fill="#63b8ff" stroke="#63b8ff" points="662.86,-61.63 673.27,-59.64 663.89,-54.71 662.86,-61.63"/>
</a>
</g>
</g>
<!-- Node8 -->
<g id="Node000008" class="node">
<title>Node8</title>
<g id="a_Node000008"><a xlink:href="exif-log_8c.html#acd0808d6d5be73f28059797c2e2e67dc" target="_top" xlink:title="Delete instance of ExifLog.">
<polygon fill="white" stroke="#666666" points="500.5,-19 420.5,-19 420.5,0 500.5,0 500.5,-19"/>
<text text-anchor="middle" x="460.5" y="-7" font-family="Helvetica,sans-Serif" font-size="10.00">exif_log_free</text>
</a>
</g>
</g>
<!-- Node7&#45;&gt;Node8 -->
<g id="edge8_Node000007_Node000008" class="edge">
<title>Node7&#45;&gt;Node8</title>
<g id="a_edge8_Node000007_Node000008"><a xlink:title=" ">
<path fill="none" stroke="#63b8ff" d="M373.77,-9.5C385.02,-9.5 397.28,-9.5 408.93,-9.5"/>
<polygon fill="#63b8ff" stroke="#63b8ff" points="408.8,-13 418.8,-9.5 408.8,-6 408.8,-13"/>
</a>
</g>
</g>
<!-- Node8&#45;&gt;Node5 -->
<g id="edge9_Node000008_Node000005" class="edge">
<title>Node8&#45;&gt;Node5</title>
<g id="a_edge9_Node000008_Node000005"><a xlink:title=" ">
<path fill="none" stroke="#63b8ff" d="M500.99,-9.97C537.44,-11.28 592.75,-15.51 639,-28.5 657.86,-33.8 677.78,-43.16 693.08,-51.27"/>
<polygon fill="#63b8ff" stroke="#63b8ff" points="691.09,-54.17 701.54,-55.89 694.44,-48.03 691.09,-54.17"/>
</a>
</g>
</g>
<!-- Node8&#45;&gt;Node6 -->
<g id="edge10_Node000008_Node000006" class="edge">
<title>Node8&#45;&gt;Node6</title>
<g id="a_edge10_Node000008_Node000006"><a xlink:title=" ">
<path fill="none" stroke="#63b8ff" d="M495.13,-19.48C510.42,-24.02 528.71,-29.45 545.11,-34.32"/>
<polygon fill="#63b8ff" stroke="#63b8ff" points="544.06,-37.66 554.64,-37.15 546.05,-30.95 544.06,-37.66"/>
</a>
</g>
</g>
</g>
</svg>
