<?xml version="1.0" encoding="UTF-8" standalone="no"?>
<!DOCTYPE svg PUBLIC "-//W3C//DTD SVG 1.1//EN"
 "http://www.w3.org/Graphics/SVG/1.1/DTD/svg11.dtd">
<!-- Generated by graphviz version 7.0.1 (0)
 -->
<!-- Title: exif_data_save_data Pages: 1 -->
<svg width="853pt" height="454pt"
 viewBox="0.00 0.00 853.00 454.00" xmlns="http://www.w3.org/2000/svg" xmlns:xlink="http://www.w3.org/1999/xlink">
<g id="graph0" class="graph" transform="scale(1 1) rotate(0) translate(4 450)">
<title>exif_data_save_data</title>
<!-- Node1 -->
<g id="Node000001" class="node">
<title>Node1</title>
<g id="a_Node000001"><a xlink:title="Store raw EXIF data representing the ExifData structure into a memory buffer.">
<polygon fill="#999999" stroke="#666666" points="118,-332 0,-332 0,-313 118,-313 118,-332"/>
<text text-anchor="middle" x="59" y="-320" font-family="Helvetica,sans-Serif" font-size="10.00">exif_data_save_data</text>
</a>
</g>
</g>
<!-- Node2 -->
<g id="Node000002" class="node">
<title>Node2</title>
<g id="a_Node000002"><a xlink:href="exif-data_8c.html#a4611ba081e31af8bd3ab47dd8de21bef" target="_top" xlink:title=" ">
<polygon fill="white" stroke="#666666" points="258.5,-446 167.5,-446 167.5,-427 258.5,-427 258.5,-446"/>
<text text-anchor="middle" x="213" y="-434" font-family="Helvetica,sans-Serif" font-size="10.00">exif_data_alloc</text>
</a>
</g>
</g>
<!-- Node1&#45;&gt;Node2 -->
<g id="edge1_Node000001_Node000002" class="edge">
<title>Node1&#45;&gt;Node2</title>
<g id="a_edge1_Node000001_Node000002"><a xlink:title=" ">
<path fill="none" stroke="#63b8ff" d="M68.11,-332.4C83.32,-350.43 117.86,-388.92 154,-412.5 159.5,-416.09 165.62,-419.31 171.76,-422.15"/>
<polygon fill="#63b8ff" stroke="#63b8ff" points="170.06,-425.23 180.63,-425.96 172.82,-418.8 170.06,-425.23"/>
</a>
</g>
</g>
<!-- Node4 -->
<g id="Node000004" class="node">
<title>Node4</title>
<g id="a_Node000004"><a xlink:href="exif-data_8c.html#ad1aed9b7d36e7cd97d6ead35de491603" target="_top" xlink:title=" ">
<polygon fill="white" stroke="#666666" points="272,-218.5 154,-218.5 154,-188.5 272,-188.5 272,-218.5"/>
<text text-anchor="start" x="162" y="-206.5" font-family="Helvetica,sans-Serif" font-size="10.00">exif_data_save_data</text>
<text text-anchor="middle" x="213" y="-195.5" font-family="Helvetica,sans-Serif" font-size="10.00">_content</text>
</a>
</g>
</g>
<!-- Node1&#45;&gt;Node4 -->
<g id="edge3_Node000001_Node000004" class="edge">
<title>Node1&#45;&gt;Node4</title>
<g id="a_edge3_Node000001_Node000004"><a xlink:title=" ">
<path fill="none" stroke="#63b8ff" d="M72.7,-312.56C96.96,-293.56 150.44,-251.7 183.62,-225.72"/>
<polygon fill="#63b8ff" stroke="#63b8ff" points="185.5,-228.7 191.21,-219.78 181.18,-223.18 185.5,-228.7"/>
</a>
</g>
</g>
<!-- Node12 -->
<g id="Node000012" class="node">
<title>Node12</title>
<g id="a_Node000012"><a xlink:href="exif-log_8c.html#a025d4a5d96544913ea6f6ebbec69cb68" target="_top" xlink:title=" ">
<polygon fill="white" stroke="#666666" points="554,-370 498,-370 498,-351 554,-351 554,-370"/>
<text text-anchor="middle" x="526" y="-358" font-family="Helvetica,sans-Serif" font-size="10.00">exif_log</text>
</a>
</g>
</g>
<!-- Node1&#45;&gt;Node12 -->
<g id="edge28_Node000001_Node000012" class="edge">
<title>Node1&#45;&gt;Node12</title>
<g id="a_edge28_Node000001_Node000012"><a xlink:title=" ">
<path fill="none" stroke="#63b8ff" d="M118.34,-331.22C130.13,-332.79 142.45,-334.31 154,-335.5 275.16,-347.94 419.25,-355.63 486.65,-358.8"/>
<polygon fill="#63b8ff" stroke="#63b8ff" points="486.28,-362.29 496.43,-359.26 486.61,-355.3 486.28,-362.29"/>
</a>
</g>
</g>
<!-- Node18 -->
<g id="Node000018" class="node">
<title>Node18</title>
<g id="a_Node000018"><a xlink:href="exif-utils_8c.html#ac90147d0cc97bec7a577bf9576191bf8" target="_top" xlink:title="Store an ExifLong value into memory in EXIF format.">
<polygon fill="white" stroke="#666666" points="567,-331 485,-331 485,-312 567,-312 567,-331"/>
<text text-anchor="middle" x="526" y="-319" font-family="Helvetica,sans-Serif" font-size="10.00">exif_set_long</text>
</a>
</g>
</g>
<!-- Node1&#45;&gt;Node18 -->
<g id="edge29_Node000001_Node000018" class="edge">
<title>Node1&#45;&gt;Node18</title>
<g id="a_edge29_Node000001_Node000018"><a xlink:title=" ">
<path fill="none" stroke="#63b8ff" d="M118.42,-322.37C209.95,-322.18 385.71,-321.8 473.07,-321.61"/>
<polygon fill="#63b8ff" stroke="#63b8ff" points="473.03,-325.11 483.03,-321.59 473.02,-318.11 473.03,-325.11"/>
</a>
</g>
</g>
<!-- Node20 -->
<g id="Node000020" class="node">
<title>Node20</title>
<g id="a_Node000020"><a xlink:href="exif-utils_8c.html#ad905d16e26b4052a1db34dbebdc37341" target="_top" xlink:title="Store an ExifShort value into memory in EXIF format.">
<polygon fill="white" stroke="#666666" points="569,-97 483,-97 483,-78 569,-78 569,-97"/>
<text text-anchor="middle" x="526" y="-85" font-family="Helvetica,sans-Serif" font-size="10.00">exif_set_short</text>
</a>
</g>
</g>
<!-- Node1&#45;&gt;Node20 -->
<g id="edge30_Node000001_Node000020" class="edge">
<title>Node1&#45;&gt;Node20</title>
<g id="a_edge30_Node000001_Node000020"><a xlink:title=" ">
<path fill="none" stroke="#63b8ff" d="M64.26,-312.52C75.5,-287.22 108.26,-219.72 154,-179.5 211.17,-129.23 234.54,-124.49 308,-104.5 362.22,-89.74 426.68,-86.4 471.18,-86.18"/>
<polygon fill="#63b8ff" stroke="#63b8ff" points="471.09,-89.68 481.09,-86.19 471.1,-82.68 471.09,-89.68"/>
</a>
</g>
</g>
<!-- Node3 -->
<g id="Node000003" class="node">
<title>Node3</title>
<g id="a_Node000003"><a xlink:href="exif-mem_8c.html#a68be7c7afc8cff75adc3b1a28b5ae9a2" target="_top" xlink:title=" ">
<polygon fill="white" stroke="#666666" points="414.5,-446 319.5,-446 319.5,-427 414.5,-427 414.5,-446"/>
<text text-anchor="middle" x="367" y="-434" font-family="Helvetica,sans-Serif" font-size="10.00">exif_mem_alloc</text>
</a>
</g>
</g>
<!-- Node2&#45;&gt;Node3 -->
<g id="edge2_Node000002_Node000003" class="edge">
<title>Node2&#45;&gt;Node3</title>
<g id="a_edge2_Node000002_Node000003"><a xlink:title=" ">
<path fill="none" stroke="#63b8ff" d="M258.78,-436.5C274.22,-436.5 291.74,-436.5 308.08,-436.5"/>
<polygon fill="#63b8ff" stroke="#63b8ff" points="307.65,-440 317.65,-436.5 307.65,-433 307.65,-440"/>
</a>
</g>
</g>
<!-- Node4&#45;&gt;Node4 -->
<g id="edge10_Node000004_Node000004" class="edge">
<title>Node4&#45;&gt;Node4</title>
<g id="a_edge10_Node000004_Node000004"><a xlink:title=" ">
<path fill="none" stroke="#63b8ff" d="M185.93,-218.78C179.91,-227.91 188.94,-236.5 213,-236.5 226.16,-236.5 234.82,-233.93 238.98,-230.11"/>
<polygon fill="#63b8ff" stroke="#63b8ff" points="242.46,-230.57 239.93,-220.28 235.49,-229.9 242.46,-230.57"/>
</a>
</g>
</g>
<!-- Node5 -->
<g id="Node000005" class="node">
<title>Node5</title>
<g id="a_Node000005"><a xlink:href="exif-data_8c.html#abf711bc683af4b46370d8e22e3e102d1" target="_top" xlink:title=" ">
<polygon fill="white" stroke="#666666" points="412.5,-56 321.5,-56 321.5,-37 412.5,-37 412.5,-56"/>
<text text-anchor="middle" x="367" y="-44" font-family="Helvetica,sans-Serif" font-size="10.00">cmp_func_intel</text>
</a>
</g>
</g>
<!-- Node4&#45;&gt;Node5 -->
<g id="edge4_Node000004_Node000005" class="edge">
<title>Node4&#45;&gt;Node5</title>
<g id="a_edge4_Node000004_Node000005"><a xlink:title=" ">
<path fill="none" stroke="#63b8ff" d="M228.85,-188.16C257.13,-158.95 318.59,-95.47 348.69,-64.38"/>
<polygon fill="#63b8ff" stroke="#63b8ff" points="351.13,-66.89 355.57,-57.28 346.1,-62.03 351.13,-66.89"/>
</a>
</g>
</g>
<!-- Node9 -->
<g id="Node000009" class="node">
<title>Node9</title>
<g id="a_Node000009"><a xlink:href="exif-data_8c.html#ae10308432fc54768805c6ae0ad0ebf9c" target="_top" xlink:title=" ">
<polygon fill="white" stroke="#666666" points="423.5,-19 310.5,-19 310.5,0 423.5,0 423.5,-19"/>
<text text-anchor="middle" x="367" y="-7" font-family="Helvetica,sans-Serif" font-size="10.00">cmp_func_motorola</text>
</a>
</g>
</g>
<!-- Node4&#45;&gt;Node9 -->
<g id="edge8_Node000004_Node000009" class="edge">
<title>Node4&#45;&gt;Node9</title>
<g id="a_edge8_Node000004_Node000009"><a xlink:title=" ">
<path fill="none" stroke="#63b8ff" d="M217.86,-188.25C227.26,-154.23 254.59,-71.63 308,-27.5 309.1,-26.59 310.24,-25.73 311.42,-24.91"/>
<polygon fill="#63b8ff" stroke="#63b8ff" points="312.78,-28.17 319.76,-20.2 309.33,-22.07 312.78,-28.17"/>
</a>
</g>
</g>
<!-- Node10 -->
<g id="Node000010" class="node">
<title>Node10</title>
<g id="a_Node000010"><a xlink:href="exif-data_8c.html#a88e57798676ccd2df6243dd8b7a4d33c" target="_top" xlink:title=" ">
<polygon fill="white" stroke="#666666" points="426,-218.5 308,-218.5 308,-188.5 426,-188.5 426,-218.5"/>
<text text-anchor="start" x="316" y="-206.5" font-family="Helvetica,sans-Serif" font-size="10.00">exif_data_save_data</text>
<text text-anchor="middle" x="367" y="-195.5" font-family="Helvetica,sans-Serif" font-size="10.00">_entry</text>
</a>
</g>
</g>
<!-- Node4&#45;&gt;Node10 -->
<g id="edge11_Node000004_Node000010" class="edge">
<title>Node4&#45;&gt;Node10</title>
<g id="a_edge11_Node000004_Node000010"><a xlink:title=" ">
<path fill="none" stroke="#63b8ff" d="M272.33,-203.5C280.19,-203.5 288.3,-203.5 296.33,-203.5"/>
<polygon fill="#63b8ff" stroke="#63b8ff" points="296.06,-207 306.06,-203.5 296.06,-200 296.06,-207"/>
</a>
</g>
</g>
<!-- Node4&#45;&gt;Node12 -->
<g id="edge24_Node000004_Node000012" class="edge">
<title>Node4&#45;&gt;Node12</title>
<g id="a_edge24_Node000004_Node000012"><a xlink:title=" ">
<path fill="none" stroke="#63b8ff" d="M224.19,-218.91C239.64,-241.04 271.14,-281.57 308,-303.5 364.55,-337.13 440.94,-351.2 486.38,-356.88"/>
<polygon fill="#63b8ff" stroke="#63b8ff" points="485.94,-360.35 496.27,-358.03 486.75,-353.39 485.94,-360.35"/>
</a>
</g>
</g>
<!-- Node15 -->
<g id="Node000015" class="node">
<title>Node15</title>
<g id="a_Node000015"><a xlink:href="exif-mem_8c.html#a7302da5374a74202e03a781b7c4b7ebe" target="_top" xlink:title=" ">
<polygon fill="white" stroke="#666666" points="578,-134 474,-134 474,-115 578,-115 578,-134"/>
<text text-anchor="middle" x="526" y="-122" font-family="Helvetica,sans-Serif" font-size="10.00">exif_mem_realloc</text>
</a>
</g>
</g>
<!-- Node4&#45;&gt;Node15 -->
<g id="edge25_Node000004_Node000015" class="edge">
<title>Node4&#45;&gt;Node15</title>
<g id="a_edge25_Node000004_Node000015"><a xlink:title=" ">
<path fill="none" stroke="#63b8ff" d="M272.41,-188.57C284.19,-185.56 296.49,-182.43 308,-179.5 365.17,-164.96 430.83,-148.32 474.82,-137.19"/>
<polygon fill="#63b8ff" stroke="#63b8ff" points="475.49,-140.63 484.33,-134.79 473.77,-133.85 475.49,-140.63"/>
</a>
</g>
</g>
<!-- Node4&#45;&gt;Node18 -->
<g id="edge26_Node000004_Node000018" class="edge">
<title>Node4&#45;&gt;Node18</title>
<g id="a_edge26_Node000004_Node000018"><a xlink:title=" ">
<path fill="none" stroke="#63b8ff" d="M271.51,-218.98C329.57,-234.86 412.55,-258.37 426,-266.5 445.63,-278.37 442.31,-291.73 462,-303.5 465.79,-305.77 469.88,-307.76 474.09,-309.51"/>
<polygon fill="#63b8ff" stroke="#63b8ff" points="472.69,-312.72 483.29,-312.86 475.09,-306.15 472.69,-312.72"/>
</a>
</g>
</g>
<!-- Node4&#45;&gt;Node20 -->
<g id="edge27_Node000004_Node000020" class="edge">
<title>Node4&#45;&gt;Node20</title>
<g id="a_edge27_Node000004_Node000020"><a xlink:title=" ">
<path fill="none" stroke="#63b8ff" d="M235.47,-188.08C253.94,-175.42 281.69,-157.79 308,-146.5 361.63,-123.49 426.62,-107.23 471.42,-97.69"/>
<polygon fill="#63b8ff" stroke="#63b8ff" points="472.08,-101.13 481.15,-95.66 470.65,-94.28 472.08,-101.13"/>
</a>
</g>
</g>
<!-- Node22 -->
<g id="Node000022" class="node">
<title>Node22</title>
<g id="a_Node000022"><a xlink:href="exif-ifd_8c.html#a7877a28898c084bd8311812d550181f2" target="_top" xlink:title="Return a textual name of the given IFD.">
<polygon fill="white" stroke="#666666" points="420.5,-294 313.5,-294 313.5,-275 420.5,-275 420.5,-294"/>
<text text-anchor="middle" x="367" y="-282" font-family="Helvetica,sans-Serif" font-size="10.00">exif_ifd_get_name</text>
</a>
</g>
</g>
<!-- Node4&#45;&gt;Node22 -->
<g id="edge23_Node000004_Node000022" class="edge">
<title>Node4&#45;&gt;Node22</title>
<g id="a_edge23_Node000004_Node000022"><a xlink:title=" ">
<path fill="none" stroke="#63b8ff" d="M237,-218.81C255.69,-230.91 282.97,-247.83 308,-260.5 314.71,-263.9 322.03,-267.21 329.13,-270.24"/>
<polygon fill="#63b8ff" stroke="#63b8ff" points="327.66,-273.42 338.23,-274 330.33,-266.95 327.66,-273.42"/>
</a>
</g>
</g>
<!-- Node6 -->
<g id="Node000006" class="node">
<title>Node6</title>
<g id="a_Node000006"><a xlink:href="exif-data_8c.html#a0b662825b4c76063b1ba549bf1259a6d" target="_top" xlink:title=" ">
<polygon fill="white" stroke="#666666" points="558,-38 494,-38 494,-19 558,-19 558,-38"/>
<text text-anchor="middle" x="526" y="-26" font-family="Helvetica,sans-Serif" font-size="10.00">cmp_func</text>
</a>
</g>
</g>
<!-- Node5&#45;&gt;Node6 -->
<g id="edge5_Node000005_Node000006" class="edge">
<title>Node5&#45;&gt;Node6</title>
<g id="a_edge5_Node000005_Node000006"><a xlink:title=" ">
<path fill="none" stroke="#63b8ff" d="M412.99,-41.34C434.86,-38.84 460.99,-35.84 482.52,-33.37"/>
<polygon fill="#63b8ff" stroke="#63b8ff" points="482.9,-36.85 492.44,-32.23 482.1,-29.9 482.9,-36.85"/>
</a>
</g>
</g>
<!-- Node7 -->
<g id="Node000007" class="node">
<title>Node7</title>
<g id="a_Node000007"><a xlink:href="exif-utils_8c.html#a4b4acf537a8c6b9405e7b53be868e4d7" target="_top" xlink:title="Retrieve an ExifShort value from memory.">
<polygon fill="white" stroke="#666666" points="714.5,-38 628.5,-38 628.5,-19 714.5,-19 714.5,-38"/>
<text text-anchor="middle" x="671.5" y="-26" font-family="Helvetica,sans-Serif" font-size="10.00">exif_get_short</text>
</a>
</g>
</g>
<!-- Node6&#45;&gt;Node7 -->
<g id="edge6_Node000006_Node000007" class="edge">
<title>Node6&#45;&gt;Node7</title>
<g id="a_edge6_Node000006_Node000007"><a xlink:title=" ">
<path fill="none" stroke="#63b8ff" d="M558.49,-28.5C575.6,-28.5 597.21,-28.5 616.88,-28.5"/>
<polygon fill="#63b8ff" stroke="#63b8ff" points="616.68,-32 626.68,-28.5 616.68,-25 616.68,-32"/>
</a>
</g>
</g>
<!-- Node8 -->
<g id="Node000008" class="node">
<title>Node8</title>
<g id="a_Node000008"><a xlink:href="exif-utils_8c.html#a6baf094a71392f9cea23ad633ec13c8b" target="_top" xlink:title="Retrieve an ExifSShort value from memory.">
<polygon fill="white" stroke="#666666" points="845,-38 753,-38 753,-19 845,-19 845,-38"/>
<text text-anchor="middle" x="799" y="-26" font-family="Helvetica,sans-Serif" font-size="10.00">exif_get_sshort</text>
</a>
</g>
</g>
<!-- Node7&#45;&gt;Node8 -->
<g id="edge7_Node000007_Node000008" class="edge">
<title>Node7&#45;&gt;Node8</title>
<g id="a_edge7_Node000007_Node000008"><a xlink:title=" ">
<path fill="none" stroke="#63b8ff" d="M714.99,-28.5C723.39,-28.5 732.34,-28.5 741.14,-28.5"/>
<polygon fill="#63b8ff" stroke="#63b8ff" points="741.03,-32 751.03,-28.5 741.03,-25 741.03,-32"/>
</a>
</g>
</g>
<!-- Node9&#45;&gt;Node6 -->
<g id="edge9_Node000009_Node000006" class="edge">
<title>Node9&#45;&gt;Node6</title>
<g id="a_edge9_Node000009_Node000006"><a xlink:title=" ">
<path fill="none" stroke="#63b8ff" d="M423.79,-16.25C443.03,-18.58 464.25,-21.15 482.27,-23.33"/>
<polygon fill="#63b8ff" stroke="#63b8ff" points="481.75,-26.79 492.09,-24.52 482.59,-19.84 481.75,-26.79"/>
</a>
</g>
</g>
<!-- Node11 -->
<g id="Node000011" class="node">
<title>Node11</title>
<g id="a_Node000011"><a xlink:href="exif-format_8c.html#a924038efe0cd8ebade8f44619dd794f3" target="_top" xlink:title="Return the raw size of the given EXIF data type.">
<polygon fill="white" stroke="#666666" points="585.5,-171 466.5,-171 466.5,-152 585.5,-152 585.5,-171"/>
<text text-anchor="middle" x="526" y="-159" font-family="Helvetica,sans-Serif" font-size="10.00">exif_format_get_size</text>
</a>
</g>
</g>
<!-- Node10&#45;&gt;Node11 -->
<g id="edge12_Node000010_Node000011" class="edge">
<title>Node10&#45;&gt;Node11</title>
<g id="a_edge12_Node000010_Node000011"><a xlink:title=" ">
<path fill="none" stroke="#63b8ff" d="M425.57,-188.1C442.49,-183.57 460.82,-178.67 477.07,-174.32"/>
<polygon fill="#63b8ff" stroke="#63b8ff" points="477.73,-177.77 486.48,-171.8 475.92,-171.01 477.73,-177.77"/>
</a>
</g>
</g>
<!-- Node10&#45;&gt;Node12 -->
<g id="edge13_Node000010_Node000012" class="edge">
<title>Node10&#45;&gt;Node12</title>
<g id="a_edge13_Node000010_Node000012"><a xlink:title=" ">
<path fill="none" stroke="#63b8ff" d="M384.67,-218.97C397.1,-231.09 413.94,-248.81 426,-266.5 446.6,-296.72 434.33,-316.58 462,-340.5 469.02,-346.57 477.89,-350.8 486.74,-353.74"/>
<polygon fill="#63b8ff" stroke="#63b8ff" points="485.77,-357.11 496.35,-356.43 487.66,-350.37 485.77,-357.11"/>
</a>
</g>
</g>
<!-- Node14 -->
<g id="Node000014" class="node">
<title>Node14</title>
<g id="a_Node000014"><a xlink:href="exif-mem_8c.html#a43190b81b4b4bdb4ffb89bfb612051b1" target="_top" xlink:title=" ">
<polygon fill="white" stroke="#666666" points="571.5,-294 480.5,-294 480.5,-275 571.5,-275 571.5,-294"/>
<text text-anchor="middle" x="526" y="-282" font-family="Helvetica,sans-Serif" font-size="10.00">exif_mem_free</text>
</a>
</g>
</g>
<!-- Node10&#45;&gt;Node14 -->
<g id="edge15_Node000010_Node000014" class="edge">
<title>Node10&#45;&gt;Node14</title>
<g id="a_edge15_Node000010_Node000014"><a xlink:title=" ">
<path fill="none" stroke="#63b8ff" d="M403,-218.92C410.82,-222.93 418.9,-227.53 426,-232.5 444.04,-245.11 442.87,-255.61 462,-266.5 464.47,-267.9 467.05,-269.2 469.7,-270.41"/>
<polygon fill="#63b8ff" stroke="#63b8ff" points="468.2,-273.58 478.79,-274.03 470.8,-267.08 468.2,-273.58"/>
</a>
</g>
</g>
<!-- Node10&#45;&gt;Node15 -->
<g id="edge16_Node000010_Node000015" class="edge">
<title>Node10&#45;&gt;Node15</title>
<g id="a_edge16_Node000010_Node000015"><a xlink:title=" ">
<path fill="none" stroke="#63b8ff" d="M402.22,-188.15C410.24,-184.08 418.6,-179.43 426,-174.5 443.58,-162.8 443.49,-153.66 462,-143.5 465.36,-141.66 468.91,-139.97 472.56,-138.43"/>
<polygon fill="#63b8ff" stroke="#63b8ff" points="473.47,-141.83 481.58,-135.02 470.99,-135.29 473.47,-141.83"/>
</a>
</g>
</g>
<!-- Node16 -->
<g id="Node000016" class="node">
<title>Node16</title>
<g id="a_Node000016"><a xlink:href="exif-mnote-data_8c.html#a704500ea880e6727d8b4a98ff38c0a25" target="_top" xlink:title="Save the raw MakerNote data into a memory buffer.">
<polygon fill="white" stroke="#666666" points="590,-257 462,-257 462,-238 590,-238 590,-257"/>
<text text-anchor="middle" x="526" y="-245" font-family="Helvetica,sans-Serif" font-size="10.00">exif_mnote_data_save</text>
</a>
</g>
</g>
<!-- Node10&#45;&gt;Node16 -->
<g id="edge17_Node000010_Node000016" class="edge">
<title>Node10&#45;&gt;Node16</title>
<g id="a_edge17_Node000010_Node000016"><a xlink:title=" ">
<path fill="none" stroke="#63b8ff" d="M422.91,-218.89C441.05,-223.97 461.03,-229.57 478.48,-234.46"/>
<polygon fill="#63b8ff" stroke="#63b8ff" points="477.5,-237.82 488.07,-237.15 479.39,-231.08 477.5,-237.82"/>
</a>
</g>
</g>
<!-- Node17 -->
<g id="Node000017" class="node">
<title>Node17</title>
<g id="a_Node000017"><a xlink:href="exif-mnote-data_8c.html#ac965af14567723ab062e11910e7bc6f2" target="_top" xlink:title=" ">
<polygon fill="white" stroke="#666666" points="585.5,-219.5 466.5,-219.5 466.5,-189.5 585.5,-189.5 585.5,-219.5"/>
<text text-anchor="start" x="474.5" y="-207.5" font-family="Helvetica,sans-Serif" font-size="10.00">exif_mnote_data_set</text>
<text text-anchor="middle" x="526" y="-196.5" font-family="Helvetica,sans-Serif" font-size="10.00">_offset</text>
</a>
</g>
</g>
<!-- Node10&#45;&gt;Node17 -->
<g id="edge18_Node000010_Node000017" class="edge">
<title>Node10&#45;&gt;Node17</title>
<g id="a_edge18_Node000010_Node000017"><a xlink:title=" ">
<path fill="none" stroke="#63b8ff" d="M426.46,-203.87C435.7,-203.93 445.33,-203.99 454.8,-204.05"/>
<polygon fill="#63b8ff" stroke="#63b8ff" points="454.69,-207.55 464.71,-204.12 454.74,-200.55 454.69,-207.55"/>
</a>
</g>
</g>
<!-- Node10&#45;&gt;Node18 -->
<g id="edge19_Node000010_Node000018" class="edge">
<title>Node10&#45;&gt;Node18</title>
<g id="a_edge19_Node000010_Node000018"><a xlink:title=" ">
<path fill="none" stroke="#63b8ff" d="M407.42,-218.88C414.13,-222.66 420.65,-227.18 426,-232.5 451.09,-257.45 434.71,-280.98 462,-303.5 465.65,-306.51 469.78,-309.02 474.14,-311.11"/>
<polygon fill="#63b8ff" stroke="#63b8ff" points="472.6,-314.27 483.19,-314.71 475.19,-307.76 472.6,-314.27"/>
</a>
</g>
</g>
<!-- Node10&#45;&gt;Node20 -->
<g id="edge21_Node000010_Node000020" class="edge">
<title>Node10&#45;&gt;Node20</title>
<g id="a_edge21_Node000010_Node000020"><a xlink:title=" ">
<path fill="none" stroke="#63b8ff" d="M381.06,-188.25C402.19,-163.91 443.37,-117.84 462,-106.5 465.17,-104.57 468.55,-102.82 472.04,-101.24"/>
<polygon fill="#63b8ff" stroke="#63b8ff" points="473.31,-104.51 481.31,-97.56 470.72,-98 473.31,-104.51"/>
</a>
</g>
</g>
<!-- Node13 -->
<g id="Node000013" class="node">
<title>Node13</title>
<g id="a_Node000013"><a xlink:href="exif-log_8c.html#a99101b5ad01b2d82ce9d43c9e8534627" target="_top" xlink:title=" ">
<polygon fill="white" stroke="#666666" points="702.5,-370 640.5,-370 640.5,-351 702.5,-351 702.5,-370"/>
<text text-anchor="middle" x="671.5" y="-358" font-family="Helvetica,sans-Serif" font-size="10.00">exif_logv</text>
</a>
</g>
</g>
<!-- Node12&#45;&gt;Node13 -->
<g id="edge14_Node000012_Node000013" class="edge">
<title>Node12&#45;&gt;Node13</title>
<g id="a_edge14_Node000012_Node000013"><a xlink:title=" ">
<path fill="none" stroke="#63b8ff" d="M554.33,-360.5C575.36,-360.5 604.8,-360.5 628.77,-360.5"/>
<polygon fill="#63b8ff" stroke="#63b8ff" points="628.53,-364 638.53,-360.5 628.53,-357 628.53,-364"/>
</a>
</g>
</g>
<!-- Node19 -->
<g id="Node000019" class="node">
<title>Node19</title>
<g id="a_Node000019"><a xlink:href="exif-utils_8c.html#ae6e3b9d1663f9ab9bd462d73a310ca03" target="_top" xlink:title="Store an ExifSLong value into memory in EXIF format.">
<polygon fill="white" stroke="#666666" points="715,-331 628,-331 628,-312 715,-312 715,-331"/>
<text text-anchor="middle" x="671.5" y="-319" font-family="Helvetica,sans-Serif" font-size="10.00">exif_set_slong</text>
</a>
</g>
</g>
<!-- Node18&#45;&gt;Node19 -->
<g id="edge20_Node000018_Node000019" class="edge">
<title>Node18&#45;&gt;Node19</title>
<g id="a_edge20_Node000018_Node000019"><a xlink:title=" ">
<path fill="none" stroke="#63b8ff" d="M567.35,-321.5C582.64,-321.5 600.3,-321.5 616.64,-321.5"/>
<polygon fill="#63b8ff" stroke="#63b8ff" points="616.18,-325 626.18,-321.5 616.18,-318 616.18,-325"/>
</a>
</g>
</g>
<!-- Node21 -->
<g id="Node000021" class="node">
<title>Node21</title>
<g id="a_Node000021"><a xlink:href="exif-utils_8c.html#a6504651147702fc6db9a5cd4aa997023" target="_top" xlink:title="Store an ExifSShort value into memory in EXIF format.">
<polygon fill="white" stroke="#666666" points="717,-97 626,-97 626,-78 717,-78 717,-97"/>
<text text-anchor="middle" x="671.5" y="-85" font-family="Helvetica,sans-Serif" font-size="10.00">exif_set_sshort</text>
</a>
</g>
</g>
<!-- Node20&#45;&gt;Node21 -->
<g id="edge22_Node000020_Node000021" class="edge">
<title>Node20&#45;&gt;Node21</title>
<g id="a_edge22_Node000020_Node000021"><a xlink:title=" ">
<path fill="none" stroke="#63b8ff" d="M569.28,-87.5C583.38,-87.5 599.31,-87.5 614.3,-87.5"/>
<polygon fill="#63b8ff" stroke="#63b8ff" points="614.01,-91 624.01,-87.5 614.01,-84 614.01,-91"/>
</a>
</g>
</g>
</g>
</svg>
