<?xml version="1.0" encoding="UTF-8" standalone="no"?>
<!DOCTYPE svg PUBLIC "-//W3C//DTD SVG 1.1//EN"
 "http://www.w3.org/Graphics/SVG/1.1/DTD/svg11.dtd">
<!-- Generated by graphviz version 2.44.1 (0)
 -->
<!-- Title: libexif/exif&#45;format.c Pages: 1 -->
<svg width="305pt" height="140pt"
 viewBox="0.00 0.00 304.87 140.00" xmlns="http://www.w3.org/2000/svg" xmlns:xlink="http://www.w3.org/1999/xlink">
<g id="graph0" class="graph" transform="scale(1 1) rotate(0) translate(4 136)">
<title>libexif/exif&#45;format.c</title>
<polygon fill="white" stroke="transparent" points="-4,4 -4,-136 300.87,-136 300.87,4 -4,4"/>
<!-- Node1 -->
<g id="node1" class="node">
<title>Node1</title>
<g id="a_node1"><a xlink:title=" ">
<polygon fill="#bfbfbf" stroke="black" points="70.87,-112.5 70.87,-131.5 183.87,-131.5 183.87,-112.5 70.87,-112.5"/>
<text text-anchor="middle" x="127.37" y="-119.5" font-family="Helvetica,sans-Serif" font-size="10.00">libexif/exif&#45;format.c</text>
</a>
</g>
</g>
<!-- Node2 -->
<g id="node2" class="node">
<title>Node2</title>
<g id="a_node2"><a xlink:title=" ">
<polygon fill="white" stroke="#bfbfbf" points="57.37,-0.5 57.37,-19.5 113.37,-19.5 113.37,-0.5 57.37,-0.5"/>
<text text-anchor="middle" x="85.37" y="-7.5" font-family="Helvetica,sans-Serif" font-size="10.00">config.h</text>
</a>
</g>
</g>
<!-- Node1&#45;&gt;Node2 -->
<g id="edge1" class="edge">
<title>Node1&#45;&gt;Node2</title>
<path fill="none" stroke="midnightblue" d="M70.8,-114.74C46.15,-108.89 19.48,-97.62 4.37,-76 -11.41,-53.43 20.47,-34.65 48.76,-23.18"/>
<polygon fill="midnightblue" stroke="midnightblue" points="50.06,-26.43 58.14,-19.57 47.55,-19.89 50.06,-26.43"/>
</g>
<!-- Node3 -->
<g id="node3" class="node">
<title>Node3</title>
<g id="a_node3"><a xlink:href="exif-format_8h.html" target="_top" xlink:title="Handling native EXIF data types.">
<polygon fill="white" stroke="black" points="13.87,-56.5 13.87,-75.5 126.87,-75.5 126.87,-56.5 13.87,-56.5"/>
<text text-anchor="middle" x="70.37" y="-63.5" font-family="Helvetica,sans-Serif" font-size="10.00">libexif/exif&#45;format.h</text>
</a>
</g>
</g>
<!-- Node1&#45;&gt;Node3 -->
<g id="edge2" class="edge">
<title>Node1&#45;&gt;Node3</title>
<path fill="none" stroke="midnightblue" d="M118.21,-112.32C109.86,-104.42 97.33,-92.55 87.19,-82.94"/>
<polygon fill="midnightblue" stroke="midnightblue" points="89.36,-80.17 79.69,-75.83 84.54,-85.25 89.36,-80.17"/>
</g>
<!-- Node4 -->
<g id="node4" class="node">
<title>Node4</title>
<g id="a_node4"><a xlink:href="i18n_8h.html" target="_top" xlink:title=" ">
<polygon fill="white" stroke="black" points="145.37,-56.5 145.37,-75.5 225.37,-75.5 225.37,-56.5 145.37,-56.5"/>
<text text-anchor="middle" x="185.37" y="-63.5" font-family="Helvetica,sans-Serif" font-size="10.00">libexif/i18n.h</text>
</a>
</g>
</g>
<!-- Node1&#45;&gt;Node4 -->
<g id="edge3" class="edge">
<title>Node1&#45;&gt;Node4</title>
<path fill="none" stroke="midnightblue" d="M136.68,-112.32C145.26,-104.34 158.18,-92.31 168.55,-82.65"/>
<polygon fill="midnightblue" stroke="midnightblue" points="170.94,-85.21 175.88,-75.83 166.17,-80.09 170.94,-85.21"/>
</g>
<!-- Node5 -->
<g id="node5" class="node">
<title>Node5</title>
<g id="a_node5"><a xlink:title=" ">
<polygon fill="white" stroke="#bfbfbf" points="243.87,-56.5 243.87,-75.5 296.87,-75.5 296.87,-56.5 243.87,-56.5"/>
<text text-anchor="middle" x="270.37" y="-63.5" font-family="Helvetica,sans-Serif" font-size="10.00">stdlib.h</text>
</a>
</g>
</g>
<!-- Node1&#45;&gt;Node5 -->
<g id="edge5" class="edge">
<title>Node1&#45;&gt;Node5</title>
<path fill="none" stroke="midnightblue" d="M150.02,-112.44C173.77,-103.48 211.27,-89.31 238.1,-79.18"/>
<polygon fill="midnightblue" stroke="midnightblue" points="239.69,-82.32 247.81,-75.52 237.22,-75.77 239.69,-82.32"/>
</g>
<!-- Node4&#45;&gt;Node2 -->
<g id="edge4" class="edge">
<title>Node4&#45;&gt;Node2</title>
<path fill="none" stroke="midnightblue" d="M169.3,-56.32C153.41,-47.74 128.86,-34.49 110.41,-24.52"/>
<polygon fill="midnightblue" stroke="midnightblue" points="111.85,-21.33 101.39,-19.65 108.53,-27.49 111.85,-21.33"/>
</g>
</g>
</svg>
