<?xml version="1.0" encoding="UTF-8" standalone="no"?>
<!DOCTYPE svg PUBLIC "-//W3C//DTD SVG 1.1//EN"
 "http://www.w3.org/Graphics/SVG/1.1/DTD/svg11.dtd">
<!-- Generated by graphviz version 7.0.1 (0)
 -->
<!-- Title: content_set_byte_order Pages: 1 -->
<svg width="863pt" height="473pt"
 viewBox="0.00 0.00 863.00 473.00" xmlns="http://www.w3.org/2000/svg" xmlns:xlink="http://www.w3.org/1999/xlink">
<g id="graph0" class="graph" transform="scale(1 1) rotate(0) translate(4 469)">
<title>content_set_byte_order</title>
<!-- Node1 -->
<g id="Node000001" class="node">
<title>Node1</title>
<g id="a_Node000001"><a xlink:title=" ">
<polygon fill="#999999" stroke="#666666" points="131,-215 0,-215 0,-196 131,-196 131,-215"/>
<text text-anchor="middle" x="65.5" y="-203" font-family="Helvetica,sans-Serif" font-size="10.00">content_set_byte_order</text>
</a>
</g>
</g>
<!-- Node2 -->
<g id="Node000002" class="node">
<title>Node2</title>
<g id="a_Node000002"><a xlink:href="exif-data_8c.html#a94ca6e374374d20636e7f72a3605345c" target="_top" xlink:title=" ">
<polygon fill="white" stroke="#666666" points="287,-237 167,-237 167,-218 287,-218 287,-237"/>
<text text-anchor="middle" x="227" y="-225" font-family="Helvetica,sans-Serif" font-size="10.00">entry_set_byte_order</text>
</a>
</g>
</g>
<!-- Node1&#45;&gt;Node2 -->
<g id="edge1_Node000001_Node000002" class="edge">
<title>Node1&#45;&gt;Node2</title>
<g id="a_edge1_Node000001_Node000002"><a xlink:title=" ">
<path fill="none" stroke="#63b8ff" d="M131.37,-214.45C139.29,-215.54 147.41,-216.66 155.4,-217.76"/>
<polygon fill="#63b8ff" stroke="#63b8ff" points="154.7,-221.2 165.08,-219.1 155.65,-214.26 154.7,-221.2"/>
</a>
</g>
</g>
<!-- Node17 -->
<g id="Node000017" class="node">
<title>Node17</title>
<g id="a_Node000017"><a xlink:href="exif-content_8c.html#af7372b1342146e73a9d5b671c717a730" target="_top" xlink:title="Executes function on each EXIF tag in this IFD in turn.">
<polygon fill="white" stroke="#666666" points="286.5,-199.5 167.5,-199.5 167.5,-169.5 286.5,-169.5 286.5,-199.5"/>
<text text-anchor="start" x="175.5" y="-187.5" font-family="Helvetica,sans-Serif" font-size="10.00">exif_content_foreach</text>
<text text-anchor="middle" x="227" y="-176.5" font-family="Helvetica,sans-Serif" font-size="10.00">_entry</text>
</a>
</g>
</g>
<!-- Node1&#45;&gt;Node17 -->
<g id="edge24_Node000001_Node000017" class="edge">
<title>Node1&#45;&gt;Node17</title>
<g id="a_edge24_Node000001_Node000017"><a xlink:title=" ">
<path fill="none" stroke="#63b8ff" d="M131.37,-196.96C139.41,-195.9 147.65,-194.82 155.75,-193.75"/>
<polygon fill="#63b8ff" stroke="#63b8ff" points="156.13,-197.23 165.59,-192.45 155.22,-190.29 156.13,-197.23"/>
</a>
</g>
</g>
<!-- Node3 -->
<g id="Node000003" class="node">
<title>Node3</title>
<g id="a_Node000003"><a xlink:href="exif-utils_8c.html#a54ef3b86ffeb643e9c4434b85ccf2992" target="_top" xlink:title=" ">
<polygon fill="white" stroke="#666666" points="436,-242.5 323,-242.5 323,-212.5 436,-212.5 436,-242.5"/>
<text text-anchor="start" x="331" y="-230.5" font-family="Helvetica,sans-Serif" font-size="10.00">exif_array_set_byte</text>
<text text-anchor="middle" x="379.5" y="-219.5" font-family="Helvetica,sans-Serif" font-size="10.00">_order</text>
</a>
</g>
</g>
<!-- Node2&#45;&gt;Node3 -->
<g id="edge2_Node000002_Node000003" class="edge">
<title>Node2&#45;&gt;Node3</title>
<g id="a_edge2_Node000002_Node000003"><a xlink:title=" ">
<path fill="none" stroke="#63b8ff" d="M287.48,-227.5C295.41,-227.5 303.59,-227.5 311.63,-227.5"/>
<polygon fill="#63b8ff" stroke="#63b8ff" points="311.37,-231 321.37,-227.5 311.37,-224 311.37,-231"/>
</a>
</g>
</g>
<!-- Node4 -->
<g id="Node000004" class="node">
<title>Node4</title>
<g id="a_Node000004"><a xlink:href="exif-format_8c.html#a924038efe0cd8ebade8f44619dd794f3" target="_top" xlink:title="Return the raw size of the given EXIF data type.">
<polygon fill="white" stroke="#666666" points="591,-465 472,-465 472,-446 591,-446 591,-465"/>
<text text-anchor="middle" x="531.5" y="-453" font-family="Helvetica,sans-Serif" font-size="10.00">exif_format_get_size</text>
</a>
</g>
</g>
<!-- Node3&#45;&gt;Node4 -->
<g id="edge3_Node000003_Node000004" class="edge">
<title>Node3&#45;&gt;Node4</title>
<g id="a_edge3_Node000003_Node000004"><a xlink:title=" ">
<path fill="none" stroke="#63b8ff" d="M383.31,-242.79C390.9,-280.06 415.25,-376.55 472,-431.5 475.6,-434.99 479.78,-437.99 484.22,-440.58"/>
<polygon fill="#63b8ff" stroke="#63b8ff" points="482.35,-443.56 492.86,-444.92 485.49,-437.3 482.35,-443.56"/>
</a>
</g>
</g>
<!-- Node5 -->
<g id="Node000005" class="node">
<title>Node5</title>
<g id="a_Node000005"><a xlink:href="exif-utils_8c.html#a4ad94614630897766dd0a5c9bc2a59bf" target="_top" xlink:title="Retrieve an ExifLong value from memory.">
<polygon fill="white" stroke="#666666" points="720.5,-389 637.5,-389 637.5,-370 720.5,-370 720.5,-389"/>
<text text-anchor="middle" x="679" y="-377" font-family="Helvetica,sans-Serif" font-size="10.00">exif_get_long</text>
</a>
</g>
</g>
<!-- Node3&#45;&gt;Node5 -->
<g id="edge4_Node000003_Node000005" class="edge">
<title>Node3&#45;&gt;Node5</title>
<g id="a_edge4_Node000003_Node000005"><a xlink:title=" ">
<path fill="none" stroke="#63b8ff" d="M383.32,-242.97C390.65,-278.14 413.94,-363.72 472,-398.5 526.02,-430.86 602.67,-409.98 645.62,-393.61"/>
<polygon fill="#63b8ff" stroke="#63b8ff" points="646.88,-396.88 654.88,-389.93 644.29,-390.37 646.88,-396.88"/>
</a>
</g>
</g>
<!-- Node6 -->
<g id="Node000006" class="node">
<title>Node6</title>
<g id="a_Node000006"><a xlink:href="exif-utils_8c.html#a56b96f076a13da6ed926e1ef29cb2dc3" target="_top" xlink:title="Retrieve an ExifSLong value from memory.">
<polygon fill="white" stroke="#666666" points="855,-351 767,-351 767,-332 855,-332 855,-351"/>
<text text-anchor="middle" x="811" y="-339" font-family="Helvetica,sans-Serif" font-size="10.00">exif_get_slong</text>
</a>
</g>
</g>
<!-- Node3&#45;&gt;Node6 -->
<g id="edge10_Node000003_Node000006" class="edge">
<title>Node3&#45;&gt;Node6</title>
<g id="a_edge10_Node000003_Node000006"><a xlink:title=" ">
<path fill="none" stroke="#63b8ff" d="M389.76,-242.73C404.19,-264.88 434.33,-305.22 472,-322.5 564.35,-364.87 686.11,-358.68 755.44,-350.19"/>
<polygon fill="#63b8ff" stroke="#63b8ff" points="755.55,-353.71 765.02,-348.96 754.65,-346.77 755.55,-353.71"/>
</a>
</g>
</g>
<!-- Node7 -->
<g id="Node000007" class="node">
<title>Node7</title>
<g id="a_Node000007"><a xlink:href="exif-utils_8c.html#a1feb547c289aa57a4d2119338b03706c" target="_top" xlink:title="Retrieve an ExifRational value from memory.">
<polygon fill="white" stroke="#666666" points="581,-389 482,-389 482,-370 581,-370 581,-389"/>
<text text-anchor="middle" x="531.5" y="-377" font-family="Helvetica,sans-Serif" font-size="10.00">exif_get_rational</text>
</a>
</g>
</g>
<!-- Node3&#45;&gt;Node7 -->
<g id="edge6_Node000003_Node000007" class="edge">
<title>Node3&#45;&gt;Node7</title>
<g id="a_edge6_Node000003_Node000007"><a xlink:title=" ">
<path fill="none" stroke="#63b8ff" d="M387.7,-242.63C400.94,-268.96 431.53,-323.45 472,-355.5 476.51,-359.07 481.63,-362.19 486.91,-364.88"/>
<polygon fill="#63b8ff" stroke="#63b8ff" points="485.23,-367.96 495.78,-368.93 488.14,-361.6 485.23,-367.96"/>
</a>
</g>
</g>
<!-- Node8 -->
<g id="Node000008" class="node">
<title>Node8</title>
<g id="a_Node000008"><a xlink:href="exif-utils_8c.html#a4b4acf537a8c6b9405e7b53be868e4d7" target="_top" xlink:title="Retrieve an ExifShort value from memory.">
<polygon fill="white" stroke="#666666" points="574.5,-313 488.5,-313 488.5,-294 574.5,-294 574.5,-313"/>
<text text-anchor="middle" x="531.5" y="-301" font-family="Helvetica,sans-Serif" font-size="10.00">exif_get_short</text>
</a>
</g>
</g>
<!-- Node3&#45;&gt;Node8 -->
<g id="edge8_Node000003_Node000008" class="edge">
<title>Node3&#45;&gt;Node8</title>
<g id="a_edge8_Node000003_Node000008"><a xlink:title=" ">
<path fill="none" stroke="#63b8ff" d="M405.67,-242.96C423.79,-253.8 449,-268.3 472,-279.5 478.96,-282.89 486.53,-286.23 493.84,-289.3"/>
<polygon fill="#63b8ff" stroke="#63b8ff" points="492.29,-292.45 502.87,-292.99 494.94,-285.97 492.29,-292.45"/>
</a>
</g>
</g>
<!-- Node9 -->
<g id="Node000009" class="node">
<title>Node9</title>
<g id="a_Node000009"><a xlink:href="exif-utils_8c.html#a6baf094a71392f9cea23ad633ec13c8b" target="_top" xlink:title="Retrieve an ExifSShort value from memory.">
<polygon fill="white" stroke="#666666" points="725,-294 633,-294 633,-275 725,-275 725,-294"/>
<text text-anchor="middle" x="679" y="-282" font-family="Helvetica,sans-Serif" font-size="10.00">exif_get_sshort</text>
</a>
</g>
</g>
<!-- Node3&#45;&gt;Node9 -->
<g id="edge13_Node000003_Node000009" class="edge">
<title>Node3&#45;&gt;Node9</title>
<g id="a_edge13_Node000003_Node000009"><a xlink:title=" ">
<path fill="none" stroke="#63b8ff" d="M436.46,-238.22C489.3,-248.35 568.16,-263.46 621.26,-273.63"/>
<polygon fill="#63b8ff" stroke="#63b8ff" points="620.55,-277.06 631.03,-275.5 621.87,-270.18 620.55,-277.06"/>
</a>
</g>
</g>
<!-- Node10 -->
<g id="Node000010" class="node">
<title>Node10</title>
<g id="a_Node000010"><a xlink:href="exif-utils_8c.html#adb97c3499488d5642a82df1cb16dc2cb" target="_top" xlink:title="Retrieve an ExifSRational value from memory.">
<polygon fill="white" stroke="#666666" points="731,-237 627,-237 627,-218 731,-218 731,-237"/>
<text text-anchor="middle" x="679" y="-225" font-family="Helvetica,sans-Serif" font-size="10.00">exif_get_srational</text>
</a>
</g>
</g>
<!-- Node3&#45;&gt;Node10 -->
<g id="edge11_Node000003_Node000010" class="edge">
<title>Node3&#45;&gt;Node10</title>
<g id="a_edge11_Node000003_Node000010"><a xlink:title=" ">
<path fill="none" stroke="#63b8ff" d="M436.46,-227.5C487.42,-227.5 562.58,-227.5 615.5,-227.5"/>
<polygon fill="#63b8ff" stroke="#63b8ff" points="615.25,-231 625.25,-227.5 615.25,-224 615.25,-231"/>
</a>
</g>
</g>
<!-- Node11 -->
<g id="Node000011" class="node">
<title>Node11</title>
<g id="a_Node000011"><a xlink:href="exif-utils_8c.html#ac90147d0cc97bec7a577bf9576191bf8" target="_top" xlink:title="Store an ExifLong value into memory in EXIF format.">
<polygon fill="white" stroke="#666666" points="720,-161 638,-161 638,-142 720,-142 720,-161"/>
<text text-anchor="middle" x="679" y="-149" font-family="Helvetica,sans-Serif" font-size="10.00">exif_set_long</text>
</a>
</g>
</g>
<!-- Node3&#45;&gt;Node11 -->
<g id="edge14_Node000003_Node000011" class="edge">
<title>Node3&#45;&gt;Node11</title>
<g id="a_edge14_Node000003_Node000011"><a xlink:title=" ">
<path fill="none" stroke="#63b8ff" d="M436.46,-213.2C491.5,-199.14 574.76,-177.87 627.74,-164.34"/>
<polygon fill="#63b8ff" stroke="#63b8ff" points="628.61,-167.73 637.43,-161.86 626.87,-160.95 628.61,-167.73"/>
</a>
</g>
</g>
<!-- Node12 -->
<g id="Node000012" class="node">
<title>Node12</title>
<g id="a_Node000012"><a xlink:href="exif-utils_8c.html#ae6e3b9d1663f9ab9bd462d73a310ca03" target="_top" xlink:title="Store an ExifSLong value into memory in EXIF format.">
<polygon fill="white" stroke="#666666" points="854.5,-123 767.5,-123 767.5,-104 854.5,-104 854.5,-123"/>
<text text-anchor="middle" x="811" y="-111" font-family="Helvetica,sans-Serif" font-size="10.00">exif_set_slong</text>
</a>
</g>
</g>
<!-- Node3&#45;&gt;Node12 -->
<g id="edge20_Node000003_Node000012" class="edge">
<title>Node3&#45;&gt;Node12</title>
<g id="a_edge20_Node000003_Node000012"><a xlink:title=" ">
<path fill="none" stroke="#63b8ff" d="M390.05,-212.07C404.63,-190.1 434.72,-150.55 472,-133.5 564.67,-91.11 686.82,-96.96 756.03,-105.15"/>
<polygon fill="#63b8ff" stroke="#63b8ff" points="755.23,-108.58 765.58,-106.35 756.1,-101.63 755.23,-108.58"/>
</a>
</g>
</g>
<!-- Node13 -->
<g id="Node000013" class="node">
<title>Node13</title>
<g id="a_Node000013"><a xlink:href="exif-utils_8c.html#a400a16b1754150f721e9fca67ad89a52" target="_top" xlink:title="Store an ExifRational value into memory in EXIF format.">
<polygon fill="white" stroke="#666666" points="580.5,-161 482.5,-161 482.5,-142 580.5,-142 580.5,-161"/>
<text text-anchor="middle" x="531.5" y="-149" font-family="Helvetica,sans-Serif" font-size="10.00">exif_set_rational</text>
</a>
</g>
</g>
<!-- Node3&#45;&gt;Node13 -->
<g id="edge16_Node000003_Node000013" class="edge">
<title>Node3&#45;&gt;Node13</title>
<g id="a_edge16_Node000003_Node000013"><a xlink:title=" ">
<path fill="none" stroke="#63b8ff" d="M405.67,-212.04C423.79,-201.2 449,-186.7 472,-175.5 478.96,-172.11 486.53,-168.77 493.84,-165.7"/>
<polygon fill="#63b8ff" stroke="#63b8ff" points="494.94,-169.03 502.87,-162.01 492.29,-162.55 494.94,-169.03"/>
</a>
</g>
</g>
<!-- Node14 -->
<g id="Node000014" class="node">
<title>Node14</title>
<g id="a_Node000014"><a xlink:href="exif-utils_8c.html#ad905d16e26b4052a1db34dbebdc37341" target="_top" xlink:title="Store an ExifShort value into memory in EXIF format.">
<polygon fill="white" stroke="#666666" points="574.5,-85 488.5,-85 488.5,-66 574.5,-66 574.5,-85"/>
<text text-anchor="middle" x="531.5" y="-73" font-family="Helvetica,sans-Serif" font-size="10.00">exif_set_short</text>
</a>
</g>
</g>
<!-- Node3&#45;&gt;Node14 -->
<g id="edge18_Node000003_Node000014" class="edge">
<title>Node3&#45;&gt;Node14</title>
<g id="a_edge18_Node000003_Node000014"><a xlink:title=" ">
<path fill="none" stroke="#63b8ff" d="M387.7,-212.37C400.94,-186.04 431.53,-131.55 472,-99.5 476.51,-95.93 481.63,-92.81 486.91,-90.12"/>
<polygon fill="#63b8ff" stroke="#63b8ff" points="488.14,-93.4 495.78,-86.07 485.23,-87.04 488.14,-93.4"/>
</a>
</g>
</g>
<!-- Node15 -->
<g id="Node000015" class="node">
<title>Node15</title>
<g id="a_Node000015"><a xlink:href="exif-utils_8c.html#a6504651147702fc6db9a5cd4aa997023" target="_top" xlink:title="Store an ExifSShort value into memory in EXIF format.">
<polygon fill="white" stroke="#666666" points="724.5,-75 633.5,-75 633.5,-56 724.5,-56 724.5,-75"/>
<text text-anchor="middle" x="679" y="-63" font-family="Helvetica,sans-Serif" font-size="10.00">exif_set_sshort</text>
</a>
</g>
</g>
<!-- Node3&#45;&gt;Node15 -->
<g id="edge23_Node000003_Node000015" class="edge">
<title>Node3&#45;&gt;Node15</title>
<g id="a_edge23_Node000003_Node000015"><a xlink:title=" ">
<path fill="none" stroke="#63b8ff" d="M383.35,-212.12C390.74,-177.15 414.16,-92.05 472,-57.5 523.44,-26.77 595.71,-39.66 639.56,-52.25"/>
<polygon fill="#63b8ff" stroke="#63b8ff" points="638.3,-55.53 648.88,-55.07 640.32,-48.83 638.3,-55.53"/>
</a>
</g>
</g>
<!-- Node16 -->
<g id="Node000016" class="node">
<title>Node16</title>
<g id="a_Node000016"><a xlink:href="exif-utils_8c.html#aca1790a72b1833dff1b0bf728052c3c5" target="_top" xlink:title="Store an ExifSRational value into memory in EXIF format.">
<polygon fill="white" stroke="#666666" points="731,-19 627,-19 627,0 731,0 731,-19"/>
<text text-anchor="middle" x="679" y="-7" font-family="Helvetica,sans-Serif" font-size="10.00">exif_set_srational</text>
</a>
</g>
</g>
<!-- Node3&#45;&gt;Node16 -->
<g id="edge21_Node000003_Node000016" class="edge">
<title>Node3&#45;&gt;Node16</title>
<g id="a_edge21_Node000003_Node000016"><a xlink:title=" ">
<path fill="none" stroke="#63b8ff" d="M382.74,-212.04C389.07,-174.55 410.78,-78.62 472,-34.5 513.05,-4.92 571.06,-0.27 615.07,-2.1"/>
<polygon fill="#63b8ff" stroke="#63b8ff" points="614.82,-5.59 625,-2.65 615.21,1.4 614.82,-5.59"/>
</a>
</g>
</g>
<!-- Node5&#45;&gt;Node6 -->
<g id="edge5_Node000005_Node000006" class="edge">
<title>Node5&#45;&gt;Node6</title>
<g id="a_edge5_Node000005_Node000006"><a xlink:title=" ">
<path fill="none" stroke="#63b8ff" d="M714.16,-369.52C729.83,-364.93 748.62,-359.44 765.39,-354.54"/>
<polygon fill="#63b8ff" stroke="#63b8ff" points="766,-358.01 774.62,-351.84 764.04,-351.29 766,-358.01"/>
</a>
</g>
</g>
<!-- Node7&#45;&gt;Node5 -->
<g id="edge7_Node000007_Node000005" class="edge">
<title>Node7&#45;&gt;Node5</title>
<g id="a_edge7_Node000007_Node000005"><a xlink:title=" ">
<path fill="none" stroke="#63b8ff" d="M581.35,-379.5C595.69,-379.5 611.41,-379.5 625.93,-379.5"/>
<polygon fill="#63b8ff" stroke="#63b8ff" points="625.76,-383 635.76,-379.5 625.76,-376 625.76,-383"/>
</a>
</g>
</g>
<!-- Node8&#45;&gt;Node9 -->
<g id="edge9_Node000008_Node000009" class="edge">
<title>Node8&#45;&gt;Node9</title>
<g id="a_edge9_Node000008_Node000009"><a xlink:title=" ">
<path fill="none" stroke="#63b8ff" d="M574.98,-297.95C589.56,-296.05 606.11,-293.89 621.62,-291.86"/>
<polygon fill="#63b8ff" stroke="#63b8ff" points="621.72,-295.38 631.18,-290.61 620.81,-288.44 621.72,-295.38"/>
</a>
</g>
</g>
<!-- Node10&#45;&gt;Node6 -->
<g id="edge12_Node000010_Node000006" class="edge">
<title>Node10&#45;&gt;Node6</title>
<g id="a_edge12_Node000010_Node000006"><a xlink:title=" ">
<path fill="none" stroke="#63b8ff" d="M693.73,-237.38C704.18,-245.05 718.79,-256.08 731,-266.5 753.1,-285.34 777.11,-308.57 792.79,-324.14"/>
<polygon fill="#63b8ff" stroke="#63b8ff" points="789.96,-326.26 799.51,-330.85 794.91,-321.31 789.96,-326.26"/>
</a>
</g>
</g>
<!-- Node11&#45;&gt;Node12 -->
<g id="edge15_Node000011_Node000012" class="edge">
<title>Node11&#45;&gt;Node12</title>
<g id="a_edge15_Node000011_Node000012"><a xlink:title=" ">
<path fill="none" stroke="#63b8ff" d="M714.16,-141.52C729.83,-136.93 748.62,-131.44 765.39,-126.54"/>
<polygon fill="#63b8ff" stroke="#63b8ff" points="766,-130.01 774.62,-123.84 764.04,-123.29 766,-130.01"/>
</a>
</g>
</g>
<!-- Node13&#45;&gt;Node11 -->
<g id="edge17_Node000013_Node000011" class="edge">
<title>Node13&#45;&gt;Node11</title>
<g id="a_edge17_Node000013_Node000011"><a xlink:title=" ">
<path fill="none" stroke="#63b8ff" d="M580.95,-151.5C595.43,-151.5 611.36,-151.5 626.06,-151.5"/>
<polygon fill="#63b8ff" stroke="#63b8ff" points="626.01,-155 636.01,-151.5 626.01,-148 626.01,-155"/>
</a>
</g>
</g>
<!-- Node14&#45;&gt;Node15 -->
<g id="edge19_Node000014_Node000015" class="edge">
<title>Node14&#45;&gt;Node15</title>
<g id="a_edge19_Node000014_Node000015"><a xlink:title=" ">
<path fill="none" stroke="#63b8ff" d="M574.98,-72.58C589.69,-71.57 606.42,-70.42 622.05,-69.35"/>
<polygon fill="#63b8ff" stroke="#63b8ff" points="621.94,-72.86 631.68,-68.68 621.46,-65.88 621.94,-72.86"/>
</a>
</g>
</g>
<!-- Node16&#45;&gt;Node12 -->
<g id="edge22_Node000016_Node000012" class="edge">
<title>Node16&#45;&gt;Node12</title>
<g id="a_edge22_Node000016_Node000012"><a xlink:title=" ">
<path fill="none" stroke="#63b8ff" d="M693.58,-19.3C703.94,-26.86 718.52,-37.65 731,-47.5 751.52,-63.7 774.39,-82.94 790.22,-96.45"/>
<polygon fill="#63b8ff" stroke="#63b8ff" points="787.63,-98.84 797.5,-102.69 792.19,-93.53 787.63,-98.84"/>
</a>
</g>
</g>
</g>
</svg>
