<?xml version="1.0" encoding="UTF-8" standalone="no"?>
<!DOCTYPE svg PUBLIC "-//W3C//DTD SVG 1.1//EN"
 "http://www.w3.org/Graphics/SVG/1.1/DTD/svg11.dtd">
<!-- Generated by graphviz version 7.0.1 (0)
 -->
<!-- Title: libexif/exif&#45;mnote&#45;data&#45;priv.h Pages: 1 -->
<svg width="984pt" height="236pt"
 viewBox="0.00 0.00 983.50 236.00" xmlns="http://www.w3.org/2000/svg" xmlns:xlink="http://www.w3.org/1999/xlink">
<g id="graph0" class="graph" transform="scale(1 1) rotate(0) translate(4 232)">
<title>libexif/exif&#45;mnote&#45;data&#45;priv.h</title>
<!-- Node1 -->
<g id="Node000001" class="node">
<title>Node1</title>
<g id="a_Node000001"><a xlink:title=" ">
<polygon fill="#999999" stroke="#666666" points="603.5,-228 500.5,-228 500.5,-198 603.5,-198 603.5,-228"/>
<text text-anchor="start" x="508.5" y="-216" font-family="Helvetica,sans-Serif" font-size="10.00">libexif/exif&#45;mnote</text>
<text text-anchor="middle" x="552" y="-205" font-family="Helvetica,sans-Serif" font-size="10.00">&#45;data&#45;priv.h</text>
</a>
</g>
</g>
<!-- Node2 -->
<g id="Node000002" class="node">
<title>Node2</title>
<g id="a_Node000002"><a xlink:href="exif-mnote-data-apple_8h.html" target="_top" xlink:title=" ">
<polygon fill="white" stroke="#666666" points="181.5,-162 64.5,-162 64.5,-132 181.5,-132 181.5,-162"/>
<text text-anchor="start" x="72.5" y="-150" font-family="Helvetica,sans-Serif" font-size="10.00">libexif/apple/exif</text>
<text text-anchor="middle" x="123" y="-139" font-family="Helvetica,sans-Serif" font-size="10.00">&#45;mnote&#45;data&#45;apple.h</text>
</a>
</g>
</g>
<!-- Node1&#45;&gt;Node2 -->
<g id="edge1_Node000001_Node000002" class="edge">
<title>Node1&#45;&gt;Node2</title>
<g id="a_edge1_Node000001_Node000002"><a xlink:title=" ">
<path fill="none" stroke="#63b8ff" d="M489.01,-202.6C406.34,-190.27 262.32,-168.78 181.79,-156.77"/>
<polygon fill="#63b8ff" stroke="#63b8ff" points="488.35,-206.04 498.76,-204.06 489.38,-199.12 488.35,-206.04"/>
</a>
</g>
</g>
<!-- Node4 -->
<g id="Node000004" class="node">
<title>Node4</title>
<g id="a_Node000004"><a xlink:href="exif-mnote-data-canon_8h.html" target="_top" xlink:title=" ">
<polygon fill="white" stroke="#666666" points="383.5,-162 264.5,-162 264.5,-132 383.5,-132 383.5,-162"/>
<text text-anchor="start" x="272.5" y="-150" font-family="Helvetica,sans-Serif" font-size="10.00">libexif/canon/exif</text>
<text text-anchor="middle" x="324" y="-139" font-family="Helvetica,sans-Serif" font-size="10.00">&#45;mnote&#45;data&#45;canon.h</text>
</a>
</g>
</g>
<!-- Node1&#45;&gt;Node4 -->
<g id="edge3_Node000001_Node000004" class="edge">
<title>Node1&#45;&gt;Node4</title>
<g id="a_edge3_Node000001_Node000004"><a xlink:title=" ">
<path fill="none" stroke="#63b8ff" d="M489.7,-194.51C453.77,-184.43 409.15,-171.9 375.26,-162.39"/>
<polygon fill="#63b8ff" stroke="#63b8ff" points="488.52,-197.82 499.09,-197.15 490.41,-191.08 488.52,-197.82"/>
</a>
</g>
</g>
<!-- Node6 -->
<g id="Node000006" class="node">
<title>Node6</title>
<g id="a_Node000006"><a xlink:href="exif-data_8c.html" target="_top" xlink:title=" ">
<polygon fill="white" stroke="#666666" points="632.5,-90.5 531.5,-90.5 531.5,-71.5 632.5,-71.5 632.5,-90.5"/>
<text text-anchor="middle" x="582" y="-78.5" font-family="Helvetica,sans-Serif" font-size="10.00">libexif/exif&#45;data.c</text>
</a>
</g>
</g>
<!-- Node1&#45;&gt;Node6 -->
<g id="edge6_Node000001_Node000006" class="edge">
<title>Node1&#45;&gt;Node6</title>
<g id="a_edge6_Node000001_Node000006"><a xlink:title=" ">
<path fill="none" stroke="#63b8ff" d="M557.88,-186.51C564.69,-157.01 575.54,-110.01 579.99,-90.71"/>
<polygon fill="#63b8ff" stroke="#63b8ff" points="554.5,-185.59 555.67,-196.12 561.32,-187.16 554.5,-185.59"/>
</a>
</g>
</g>
<!-- Node7 -->
<g id="Node000007" class="node">
<title>Node7</title>
<g id="a_Node000007"><a xlink:href="exif-mnote-data_8c.html" target="_top" xlink:title=" ">
<polygon fill="white" stroke="#666666" points="975.5,-162 872.5,-162 872.5,-132 975.5,-132 975.5,-162"/>
<text text-anchor="start" x="880.5" y="-150" font-family="Helvetica,sans-Serif" font-size="10.00">libexif/exif&#45;mnote</text>
<text text-anchor="middle" x="924" y="-139" font-family="Helvetica,sans-Serif" font-size="10.00">&#45;data.c</text>
</a>
</g>
</g>
<!-- Node1&#45;&gt;Node7 -->
<g id="edge7_Node000001_Node000007" class="edge">
<title>Node1&#45;&gt;Node7</title>
<g id="a_edge7_Node000001_Node000007"><a xlink:title=" ">
<path fill="none" stroke="#63b8ff" d="M615.24,-203.09C678.23,-193.91 777.6,-178.65 863,-162 865.99,-161.42 869.05,-160.8 872.14,-160.15"/>
<polygon fill="#63b8ff" stroke="#63b8ff" points="614.8,-199.61 605.41,-204.51 615.81,-206.54 614.8,-199.61"/>
</a>
</g>
</g>
<!-- Node8 -->
<g id="Node000008" class="node">
<title>Node8</title>
<g id="a_Node000008"><a xlink:href="exif-mnote-data-fuji_8h.html" target="_top" xlink:title=" ">
<polygon fill="white" stroke="#666666" points="524,-162 402,-162 402,-132 524,-132 524,-162"/>
<text text-anchor="start" x="410" y="-150" font-family="Helvetica,sans-Serif" font-size="10.00">libexif/fuji/exif&#45;mnote</text>
<text text-anchor="middle" x="463" y="-139" font-family="Helvetica,sans-Serif" font-size="10.00">&#45;data&#45;fuji.h</text>
</a>
</g>
</g>
<!-- Node1&#45;&gt;Node8 -->
<g id="edge8_Node000001_Node000008" class="edge">
<title>Node1&#45;&gt;Node8</title>
<g id="a_edge8_Node000001_Node000008"><a xlink:title=" ">
<path fill="none" stroke="#63b8ff" d="M523.14,-191.25C510.03,-181.82 494.84,-170.9 483,-162.39"/>
<polygon fill="#63b8ff" stroke="#63b8ff" points="520.86,-193.92 531.02,-196.91 524.94,-188.23 520.86,-193.92"/>
</a>
</g>
</g>
<!-- Node12 -->
<g id="Node000012" class="node">
<title>Node12</title>
<g id="a_Node000012"><a xlink:href="exif-mnote-data-olympus_8h.html" target="_top" xlink:title=" ">
<polygon fill="white" stroke="#666666" points="712,-162 580,-162 580,-132 712,-132 712,-162"/>
<text text-anchor="start" x="588" y="-150" font-family="Helvetica,sans-Serif" font-size="10.00">libexif/olympus/exif</text>
<text text-anchor="middle" x="646" y="-139" font-family="Helvetica,sans-Serif" font-size="10.00">&#45;mnote&#45;data&#45;olympus.h</text>
</a>
</g>
</g>
<!-- Node1&#45;&gt;Node12 -->
<g id="edge14_Node000001_Node000012" class="edge">
<title>Node1&#45;&gt;Node12</title>
<g id="a_edge14_Node000001_Node000012"><a xlink:title=" ">
<path fill="none" stroke="#63b8ff" d="M582.07,-191.52C596.02,-182.03 612.25,-170.98 624.87,-162.39"/>
<polygon fill="#63b8ff" stroke="#63b8ff" points="580.41,-188.42 574.11,-196.94 584.35,-194.21 580.41,-188.42"/>
</a>
</g>
</g>
<!-- Node14 -->
<g id="Node000014" class="node">
<title>Node14</title>
<g id="a_Node000014"><a xlink:href="exif-mnote-data-pentax_8h.html" target="_top" xlink:title=" ">
<polygon fill="white" stroke="#666666" points="854,-162 730,-162 730,-132 854,-132 854,-162"/>
<text text-anchor="start" x="738" y="-150" font-family="Helvetica,sans-Serif" font-size="10.00">libexif/pentax/exif</text>
<text text-anchor="middle" x="792" y="-139" font-family="Helvetica,sans-Serif" font-size="10.00">&#45;mnote&#45;data&#45;pentax.h</text>
</a>
</g>
</g>
<!-- Node1&#45;&gt;Node14 -->
<g id="edge17_Node000001_Node000014" class="edge">
<title>Node1&#45;&gt;Node14</title>
<g id="a_edge17_Node000001_Node000014"><a xlink:title=" ">
<path fill="none" stroke="#63b8ff" d="M614.78,-195.26C652.98,-185.07 701.29,-172.19 737.81,-162.45"/>
<polygon fill="#63b8ff" stroke="#63b8ff" points="614,-191.84 605.24,-197.8 615.81,-198.61 614,-191.84"/>
</a>
</g>
</g>
<!-- Node3 -->
<g id="Node000003" class="node">
<title>Node3</title>
<g id="a_Node000003"><a xlink:href="exif-mnote-data-apple_8c.html" target="_top" xlink:title=" ">
<polygon fill="white" stroke="#666666" points="116,-96 0,-96 0,-66 116,-66 116,-96"/>
<text text-anchor="start" x="8" y="-84" font-family="Helvetica,sans-Serif" font-size="10.00">libexif/apple/exif</text>
<text text-anchor="middle" x="58" y="-73" font-family="Helvetica,sans-Serif" font-size="10.00">&#45;mnote&#45;data&#45;apple.c</text>
</a>
</g>
</g>
<!-- Node2&#45;&gt;Node3 -->
<g id="edge2_Node000002_Node000003" class="edge">
<title>Node2&#45;&gt;Node3</title>
<g id="a_edge2_Node000002_Node000003"><a xlink:title=" ">
<path fill="none" stroke="#63b8ff" d="M100.46,-123.81C91.15,-114.64 80.62,-104.28 72.39,-96.16"/>
<polygon fill="#63b8ff" stroke="#63b8ff" points="97.91,-126.21 107.5,-130.73 102.83,-121.22 97.91,-126.21"/>
</a>
</g>
</g>
<!-- Node5 -->
<g id="Node000005" class="node">
<title>Node5</title>
<g id="a_Node000005"><a xlink:href="exif-mnote-data-canon_8c.html" target="_top" xlink:title=" ">
<polygon fill="white" stroke="#666666" points="253.5,-96 134.5,-96 134.5,-66 253.5,-66 253.5,-96"/>
<text text-anchor="start" x="142.5" y="-84" font-family="Helvetica,sans-Serif" font-size="10.00">libexif/canon/exif</text>
<text text-anchor="middle" x="194" y="-73" font-family="Helvetica,sans-Serif" font-size="10.00">&#45;mnote&#45;data&#45;canon.c</text>
</a>
</g>
</g>
<!-- Node4&#45;&gt;Node5 -->
<g id="edge4_Node000004_Node000005" class="edge">
<title>Node4&#45;&gt;Node5</title>
<g id="a_edge4_Node000004_Node000005"><a xlink:title=" ">
<path fill="none" stroke="#63b8ff" d="M284.57,-126.59C264.77,-116.84 241.21,-105.24 223.08,-96.31"/>
<polygon fill="#63b8ff" stroke="#63b8ff" points="282.95,-129.69 293.47,-130.97 286.04,-123.41 282.95,-129.69"/>
</a>
</g>
</g>
<!-- Node4&#45;&gt;Node6 -->
<g id="edge5_Node000004_Node000006" class="edge">
<title>Node4&#45;&gt;Node6</title>
<g id="a_edge5_Node000004_Node000006"><a xlink:title=" ">
<path fill="none" stroke="#63b8ff" d="M393.11,-128.86C442.3,-116.66 506.41,-100.75 545.87,-90.96"/>
<polygon fill="#63b8ff" stroke="#63b8ff" points="392.55,-125.39 383.69,-131.19 394.24,-132.18 392.55,-125.39"/>
</a>
</g>
</g>
<!-- Node8&#45;&gt;Node6 -->
<g id="edge9_Node000008_Node000006" class="edge">
<title>Node8&#45;&gt;Node6</title>
<g id="a_edge9_Node000008_Node000006"><a xlink:title=" ">
<path fill="none" stroke="#63b8ff" d="M499.69,-126.27C521.59,-114.49 548.35,-100.1 565.29,-90.99"/>
<polygon fill="#63b8ff" stroke="#63b8ff" points="498.19,-123.1 491.04,-130.92 501.5,-129.27 498.19,-123.1"/>
</a>
</g>
</g>
<!-- Node9 -->
<g id="Node000009" class="node">
<title>Node9</title>
<g id="a_Node000009"><a xlink:href="exif-mnote-data-fuji_8c.html" target="_top" xlink:title=" ">
<polygon fill="white" stroke="#666666" points="394,-96 272,-96 272,-66 394,-66 394,-96"/>
<text text-anchor="start" x="280" y="-84" font-family="Helvetica,sans-Serif" font-size="10.00">libexif/fuji/exif&#45;mnote</text>
<text text-anchor="middle" x="333" y="-73" font-family="Helvetica,sans-Serif" font-size="10.00">&#45;data&#45;fuji.c</text>
</a>
</g>
</g>
<!-- Node8&#45;&gt;Node9 -->
<g id="edge10_Node000008_Node000009" class="edge">
<title>Node8&#45;&gt;Node9</title>
<g id="a_edge10_Node000008_Node000009"><a xlink:title=" ">
<path fill="none" stroke="#63b8ff" d="M423.57,-126.59C403.77,-116.84 380.21,-105.24 362.08,-96.31"/>
<polygon fill="#63b8ff" stroke="#63b8ff" points="421.95,-129.69 432.47,-130.97 425.04,-123.41 421.95,-129.69"/>
</a>
</g>
</g>
<!-- Node10 -->
<g id="Node000010" class="node">
<title>Node10</title>
<g id="a_Node000010"><a xlink:href="mnote-fuji-entry_8h.html" target="_top" xlink:title=" ">
<polygon fill="white" stroke="#666666" points="513.5,-96 412.5,-96 412.5,-66 513.5,-66 513.5,-96"/>
<text text-anchor="start" x="420.5" y="-84" font-family="Helvetica,sans-Serif" font-size="10.00">libexif/fuji/mnote</text>
<text text-anchor="middle" x="463" y="-73" font-family="Helvetica,sans-Serif" font-size="10.00">&#45;fuji&#45;entry.h</text>
</a>
</g>
</g>
<!-- Node8&#45;&gt;Node10 -->
<g id="edge11_Node000008_Node000010" class="edge">
<title>Node8&#45;&gt;Node10</title>
<g id="a_edge11_Node000008_Node000010"><a xlink:title=" ">
<path fill="none" stroke="#63b8ff" d="M456.37,-120.39C456.05,-112.13 456.36,-103.28 457.29,-96.16"/>
<polygon fill="#63b8ff" stroke="#63b8ff" points="452.88,-120.6 457.16,-130.29 459.85,-120.04 452.88,-120.6"/>
</a>
</g>
</g>
<!-- Node10&#45;&gt;Node8 -->
<g id="edge12_Node000010_Node000008" class="edge">
<title>Node10&#45;&gt;Node8</title>
<g id="a_edge12_Node000010_Node000008"><a xlink:title=" ">
<path fill="none" stroke="#63b8ff" d="M469.63,-107.56C469.95,-115.82 469.64,-124.67 468.72,-131.8"/>
<polygon fill="#63b8ff" stroke="#63b8ff" points="473.12,-107.36 468.84,-97.67 466.14,-107.92 473.12,-107.36"/>
</a>
</g>
</g>
<!-- Node11 -->
<g id="Node000011" class="node">
<title>Node11</title>
<g id="a_Node000011"><a xlink:href="mnote-fuji-entry_8c.html" target="_top" xlink:title=" ">
<polygon fill="white" stroke="#666666" points="513.5,-30 412.5,-30 412.5,0 513.5,0 513.5,-30"/>
<text text-anchor="start" x="420.5" y="-18" font-family="Helvetica,sans-Serif" font-size="10.00">libexif/fuji/mnote</text>
<text text-anchor="middle" x="463" y="-7" font-family="Helvetica,sans-Serif" font-size="10.00">&#45;fuji&#45;entry.c</text>
</a>
</g>
</g>
<!-- Node10&#45;&gt;Node11 -->
<g id="edge13_Node000010_Node000011" class="edge">
<title>Node10&#45;&gt;Node11</title>
<g id="a_edge13_Node000010_Node000011"><a xlink:title=" ">
<path fill="none" stroke="#63b8ff" d="M463,-54.39C463,-46.13 463,-37.28 463,-30.16"/>
<polygon fill="#63b8ff" stroke="#63b8ff" points="459.5,-54.28 463,-64.28 466.5,-54.28 459.5,-54.28"/>
</a>
</g>
</g>
<!-- Node12&#45;&gt;Node6 -->
<g id="edge15_Node000012_Node000006" class="edge">
<title>Node12&#45;&gt;Node6</title>
<g id="a_edge15_Node000012_Node000006"><a xlink:title=" ">
<path fill="none" stroke="#63b8ff" d="M623.94,-123.94C612.58,-112.58 599.36,-99.36 590.84,-90.84"/>
<polygon fill="#63b8ff" stroke="#63b8ff" points="621.18,-126.13 630.73,-130.73 626.13,-121.18 621.18,-126.13"/>
</a>
</g>
</g>
<!-- Node13 -->
<g id="Node000013" class="node">
<title>Node13</title>
<g id="a_Node000013"><a xlink:href="exif-mnote-data-olympus_8c.html" target="_top" xlink:title=" ">
<polygon fill="white" stroke="#666666" points="781.5,-96 650.5,-96 650.5,-66 781.5,-66 781.5,-96"/>
<text text-anchor="start" x="658.5" y="-84" font-family="Helvetica,sans-Serif" font-size="10.00">libexif/olympus/exif</text>
<text text-anchor="middle" x="716" y="-73" font-family="Helvetica,sans-Serif" font-size="10.00">&#45;mnote&#45;data&#45;olympus.c</text>
</a>
</g>
</g>
<!-- Node12&#45;&gt;Node13 -->
<g id="edge16_Node000012_Node000013" class="edge">
<title>Node12&#45;&gt;Node13</title>
<g id="a_edge16_Node000012_Node000013"><a xlink:title=" ">
<path fill="none" stroke="#63b8ff" d="M669.97,-124.09C680.07,-114.85 691.54,-104.36 700.51,-96.16"/>
<polygon fill="#63b8ff" stroke="#63b8ff" points="667.67,-121.44 662.65,-130.78 672.39,-126.61 667.67,-121.44"/>
</a>
</g>
</g>
<!-- Node14&#45;&gt;Node6 -->
<g id="edge18_Node000014_Node000006" class="edge">
<title>Node14&#45;&gt;Node6</title>
<g id="a_edge18_Node000014_Node000006"><a xlink:title=" ">
<path fill="none" stroke="#63b8ff" d="M733.72,-128.24C693.96,-116.12 642.98,-100.59 611.41,-90.96"/>
<polygon fill="#63b8ff" stroke="#63b8ff" points="732.58,-131.55 743.16,-131.12 734.62,-124.85 732.58,-131.55"/>
</a>
</g>
</g>
<!-- Node15 -->
<g id="Node000015" class="node">
<title>Node15</title>
<g id="a_Node000015"><a xlink:href="exif-mnote-data-pentax_8c.html" target="_top" xlink:title=" ">
<polygon fill="white" stroke="#666666" points="922.5,-96 799.5,-96 799.5,-66 922.5,-66 922.5,-96"/>
<text text-anchor="start" x="807.5" y="-84" font-family="Helvetica,sans-Serif" font-size="10.00">libexif/pentax/exif</text>
<text text-anchor="middle" x="861" y="-73" font-family="Helvetica,sans-Serif" font-size="10.00">&#45;mnote&#45;data&#45;pentax.c</text>
</a>
</g>
</g>
<!-- Node14&#45;&gt;Node15 -->
<g id="edge19_Node000014_Node000015" class="edge">
<title>Node14&#45;&gt;Node15</title>
<g id="a_edge19_Node000014_Node000015"><a xlink:title=" ">
<path fill="none" stroke="#63b8ff" d="M815.62,-124.09C825.59,-114.85 836.89,-104.36 845.73,-96.16"/>
<polygon fill="#63b8ff" stroke="#63b8ff" points="813.37,-121.4 808.42,-130.77 818.13,-126.53 813.37,-121.4"/>
</a>
</g>
</g>
</g>
</svg>
