<?xml version="1.0" encoding="UTF-8" standalone="no"?>
<!DOCTYPE svg PUBLIC "-//W3C//DTD SVG 1.1//EN"
 "http://www.w3.org/Graphics/SVG/1.1/DTD/svg11.dtd">
<!-- Generated by graphviz version 7.0.1 (0)
 -->
<!-- Title: exif_log_free Pages: 1 -->
<svg width="348pt" height="46pt"
 viewBox="0.00 0.00 348.00 46.00" xmlns="http://www.w3.org/2000/svg" xmlns:xlink="http://www.w3.org/1999/xlink">
<g id="graph0" class="graph" transform="scale(1 1) rotate(0) translate(4 42)">
<title>exif_log_free</title>
<!-- Node1 -->
<g id="Node000001" class="node">
<title>Node1</title>
<g id="a_Node000001"><a xlink:title="Delete instance of ExifLog.">
<polygon fill="#999999" stroke="#666666" points="80,-38 0,-38 0,-19 80,-19 80,-38"/>
<text text-anchor="middle" x="40" y="-26" font-family="Helvetica,sans-Serif" font-size="10.00">exif_log_free</text>
</a>
</g>
</g>
<!-- Node2 -->
<g id="Node000002" class="node">
<title>Node2</title>
<g id="a_Node000002"><a xlink:href="exif-mem_8c.html#a43190b81b4b4bdb4ffb89bfb612051b1" target="_top" xlink:title=" ">
<polygon fill="white" stroke="#666666" points="340,-38 249,-38 249,-19 340,-19 340,-38"/>
<text text-anchor="middle" x="294.5" y="-26" font-family="Helvetica,sans-Serif" font-size="10.00">exif_mem_free</text>
</a>
</g>
</g>
<!-- Node1&#45;&gt;Node2 -->
<g id="edge1_Node000001_Node000002" class="edge">
<title>Node1&#45;&gt;Node2</title>
<g id="a_edge1_Node000001_Node000002"><a xlink:title=" ">
<path fill="none" stroke="#63b8ff" d="M80.45,-28.5C122.61,-28.5 189.79,-28.5 237.43,-28.5"/>
<polygon fill="#63b8ff" stroke="#63b8ff" points="237.28,-32 247.28,-28.5 237.28,-25 237.28,-32"/>
</a>
</g>
</g>
<!-- Node3 -->
<g id="Node000003" class="node">
<title>Node3</title>
<g id="a_Node000003"><a xlink:href="exif-mem_8c.html#a66744e0987af08c443df247ce55f7d87" target="_top" xlink:title="Unrefcount an ExifMem.">
<polygon fill="white" stroke="#666666" points="213,-19 116,-19 116,0 213,0 213,-19"/>
<text text-anchor="middle" x="164.5" y="-7" font-family="Helvetica,sans-Serif" font-size="10.00">exif_mem_unref</text>
</a>
</g>
</g>
<!-- Node1&#45;&gt;Node3 -->
<g id="edge2_Node000001_Node000003" class="edge">
<title>Node1&#45;&gt;Node3</title>
<g id="a_edge2_Node000001_Node000003"><a xlink:title=" ">
<path fill="none" stroke="#63b8ff" d="M80.43,-22.38C88.04,-21.2 96.16,-19.94 104.24,-18.69"/>
<polygon fill="#63b8ff" stroke="#63b8ff" points="104.73,-22.16 114.07,-17.17 103.65,-15.24 104.73,-22.16"/>
</a>
</g>
</g>
<!-- Node3&#45;&gt;Node2 -->
<g id="edge3_Node000003_Node000002" class="edge">
<title>Node3&#45;&gt;Node2</title>
<g id="a_edge3_Node000003_Node000002"><a xlink:title=" ">
<path fill="none" stroke="#63b8ff" d="M213.16,-16.57C221.09,-17.75 229.37,-18.98 237.47,-20.18"/>
<polygon fill="#63b8ff" stroke="#63b8ff" points="236.86,-23.63 247.27,-21.64 237.89,-16.71 236.86,-23.63"/>
</a>
</g>
</g>
</g>
</svg>
