<?xml version="1.0" encoding="UTF-8" standalone="no"?>
<!DOCTYPE svg PUBLIC "-//W3C//DTD SVG 1.1//EN"
 "http://www.w3.org/Graphics/SVG/1.1/DTD/svg11.dtd">
<!-- Generated by graphviz version 7.0.1 (0)
 -->
<!-- Title: exif_content_remove_entry Pages: 1 -->
<svg width="655pt" height="115pt"
 viewBox="0.00 0.00 655.00 115.05" xmlns="http://www.w3.org/2000/svg" xmlns:xlink="http://www.w3.org/1999/xlink">
<g id="graph0" class="graph" transform="scale(1 1) rotate(0) translate(4 111.05)">
<title>exif_content_remove_entry</title>
<!-- Node1 -->
<g id="Node000001" class="node">
<title>Node1</title>
<g id="a_Node000001"><a xlink:title="Remove an EXIF tag from an IFD.">
<polygon fill="#999999" stroke="#666666" points="120,-62.5 0,-62.5 0,-32.5 120,-32.5 120,-62.5"/>
<text text-anchor="start" x="8" y="-50.5" font-family="Helvetica,sans-Serif" font-size="10.00">exif_content_remove</text>
<text text-anchor="middle" x="60" y="-39.5" font-family="Helvetica,sans-Serif" font-size="10.00">_entry</text>
</a>
</g>
</g>
<!-- Node2 -->
<g id="Node000002" class="node">
<title>Node2</title>
<g id="a_Node000002"><a xlink:href="exif-entry_8c.html#a82d5d923121488d847d341727cdd2ef4" target="_top" xlink:title="Decrease reference counter for ExifEntry.">
<polygon fill="white" stroke="#666666" points="256.5,-95 159.5,-95 159.5,-76 256.5,-76 256.5,-95"/>
<text text-anchor="middle" x="208" y="-83" font-family="Helvetica,sans-Serif" font-size="10.00">exif_entry_unref</text>
</a>
</g>
</g>
<!-- Node1&#45;&gt;Node2 -->
<g id="edge1_Node000001_Node000002" class="edge">
<title>Node1&#45;&gt;Node2</title>
<g id="a_edge1_Node000001_Node000002"><a xlink:title=" ">
<path fill="none" stroke="#63b8ff" d="M120.38,-62.96C132.71,-66.16 145.57,-69.51 157.49,-72.61"/>
<polygon fill="#63b8ff" stroke="#63b8ff" points="156.57,-75.99 167.13,-75.12 158.33,-69.22 156.57,-75.99"/>
</a>
</g>
</g>
<!-- Node4 -->
<g id="Node000004" class="node">
<title>Node4</title>
<g id="a_Node000004"><a xlink:href="exif-mem_8c.html#a43190b81b4b4bdb4ffb89bfb612051b1" target="_top" xlink:title=" ">
<polygon fill="white" stroke="#666666" points="647,-95 556,-95 556,-76 647,-76 647,-95"/>
<text text-anchor="middle" x="601.5" y="-83" font-family="Helvetica,sans-Serif" font-size="10.00">exif_mem_free</text>
</a>
</g>
</g>
<!-- Node1&#45;&gt;Node4 -->
<g id="edge6_Node000001_Node000004" class="edge">
<title>Node1&#45;&gt;Node4</title>
<g id="a_edge6_Node000001_Node000004"><a xlink:title=" ">
<path fill="none" stroke="#63b8ff" d="M120.37,-46.36C208.16,-45.5 377.58,-46.93 520,-66.5 530.98,-68.01 542.66,-70.34 553.61,-72.85"/>
<polygon fill="#63b8ff" stroke="#63b8ff" points="552.7,-76.23 563.24,-75.16 554.33,-69.42 552.7,-76.23"/>
</a>
</g>
</g>
<!-- Node6 -->
<g id="Node000006" class="node">
<title>Node6</title>
<g id="a_Node000006"><a xlink:href="exif-mem_8c.html#a7302da5374a74202e03a781b7c4b7ebe" target="_top" xlink:title=" ">
<polygon fill="white" stroke="#666666" points="260,-19 156,-19 156,0 260,0 260,-19"/>
<text text-anchor="middle" x="208" y="-7" font-family="Helvetica,sans-Serif" font-size="10.00">exif_mem_realloc</text>
</a>
</g>
</g>
<!-- Node1&#45;&gt;Node6 -->
<g id="edge7_Node000001_Node000006" class="edge">
<title>Node1&#45;&gt;Node6</title>
<g id="a_edge7_Node000001_Node000006"><a xlink:title=" ">
<path fill="none" stroke="#63b8ff" d="M120.38,-32.04C132.71,-28.84 145.57,-25.49 157.49,-22.39"/>
<polygon fill="#63b8ff" stroke="#63b8ff" points="158.33,-25.78 167.13,-19.88 156.57,-19.01 158.33,-25.78"/>
</a>
</g>
</g>
<!-- Node3 -->
<g id="Node000003" class="node">
<title>Node3</title>
<g id="a_Node000003"><a xlink:href="exif-entry_8c.html#a2879215e3863186650d3f32eb63bbaf4" target="_top" xlink:title="Actually free the ExifEntry.">
<polygon fill="white" stroke="#666666" points="387,-95 296,-95 296,-76 387,-76 387,-95"/>
<text text-anchor="middle" x="341.5" y="-83" font-family="Helvetica,sans-Serif" font-size="10.00">exif_entry_free</text>
</a>
</g>
</g>
<!-- Node2&#45;&gt;Node3 -->
<g id="edge2_Node000002_Node000003" class="edge">
<title>Node2&#45;&gt;Node3</title>
<g id="a_edge2_Node000002_Node000003"><a xlink:title=" ">
<path fill="none" stroke="#63b8ff" d="M256.85,-85.5C265.73,-85.5 275.08,-85.5 284.19,-85.5"/>
<polygon fill="#63b8ff" stroke="#63b8ff" points="284.02,-89 294.02,-85.5 284.02,-82 284.02,-89"/>
</a>
</g>
</g>
<!-- Node3&#45;&gt;Node4 -->
<g id="edge3_Node000003_Node000004" class="edge">
<title>Node3&#45;&gt;Node4</title>
<g id="a_edge3_Node000003_Node000004"><a xlink:title=" ">
<path fill="none" stroke="#63b8ff" d="M379.08,-95.46C392.75,-98.71 408.48,-101.9 423,-103.5 465.85,-108.23 477.15,-108.23 520,-103.5 530.78,-102.31 542.22,-100.25 552.99,-97.94"/>
<polygon fill="#63b8ff" stroke="#63b8ff" points="553.46,-101.42 562.44,-95.8 551.92,-94.59 553.46,-101.42"/>
</a>
</g>
</g>
<!-- Node5 -->
<g id="Node000005" class="node">
<title>Node5</title>
<g id="a_Node000005"><a xlink:href="exif-mem_8c.html#a66744e0987af08c443df247ce55f7d87" target="_top" xlink:title="Unrefcount an ExifMem.">
<polygon fill="white" stroke="#666666" points="520,-95 423,-95 423,-76 520,-76 520,-95"/>
<text text-anchor="middle" x="471.5" y="-83" font-family="Helvetica,sans-Serif" font-size="10.00">exif_mem_unref</text>
</a>
</g>
</g>
<!-- Node3&#45;&gt;Node5 -->
<g id="edge4_Node000003_Node000005" class="edge">
<title>Node3&#45;&gt;Node5</title>
<g id="a_edge4_Node000003_Node000005"><a xlink:title=" ">
<path fill="none" stroke="#63b8ff" d="M387.27,-85.5C395.11,-85.5 403.37,-85.5 411.53,-85.5"/>
<polygon fill="#63b8ff" stroke="#63b8ff" points="411.41,-89 421.41,-85.5 411.41,-82 411.41,-89"/>
</a>
</g>
</g>
<!-- Node5&#45;&gt;Node4 -->
<g id="edge5_Node000005_Node000004" class="edge">
<title>Node5&#45;&gt;Node4</title>
<g id="a_edge5_Node000005_Node000004"><a xlink:title=" ">
<path fill="none" stroke="#63b8ff" d="M520.16,-85.5C528.09,-85.5 536.37,-85.5 544.47,-85.5"/>
<polygon fill="#63b8ff" stroke="#63b8ff" points="544.25,-89 554.25,-85.5 544.25,-82 544.25,-89"/>
</a>
</g>
</g>
</g>
</svg>
