<?xml version="1.0" encoding="UTF-8" standalone="no"?>
<!DOCTYPE svg PUBLIC "-//W3C//DTD SVG 1.1//EN"
 "http://www.w3.org/Graphics/SVG/1.1/DTD/svg11.dtd">
<!-- Generated by graphviz version 7.0.1 (0)
 -->
<!-- Title: exif_data_log Pages: 1 -->
<svg width="723pt" height="83pt"
 viewBox="0.00 0.00 723.00 83.00" xmlns="http://www.w3.org/2000/svg" xmlns:xlink="http://www.w3.org/1999/xlink">
<g id="graph0" class="graph" transform="scale(1 1) rotate(0) translate(4 79)">
<title>exif_data_log</title>
<!-- Node1 -->
<g id="Node000001" class="node">
<title>Node1</title>
<g id="a_Node000001"><a xlink:title="Set the log message object for all IFDs.">
<polygon fill="#999999" stroke="#666666" points="83,-57 0,-57 0,-38 83,-38 83,-57"/>
<text text-anchor="middle" x="41.5" y="-45" font-family="Helvetica,sans-Serif" font-size="10.00">exif_data_log</text>
</a>
</g>
</g>
<!-- Node2 -->
<g id="Node000002" class="node">
<title>Node2</title>
<g id="a_Node000002"><a xlink:href="exif-content_8c.html#acdc250f9237c430642c2c71ba022070a" target="_top" xlink:title="Set the log message object for this IFD.">
<polygon fill="white" stroke="#666666" points="217,-57 119,-57 119,-38 217,-38 217,-57"/>
<text text-anchor="middle" x="168" y="-45" font-family="Helvetica,sans-Serif" font-size="10.00">exif_content_log</text>
</a>
</g>
</g>
<!-- Node1&#45;&gt;Node2 -->
<g id="edge1_Node000001_Node000002" class="edge">
<title>Node1&#45;&gt;Node2</title>
<g id="a_edge1_Node000001_Node000002"><a xlink:title=" ">
<path fill="none" stroke="#63b8ff" d="M83.27,-47.5C90.98,-47.5 99.19,-47.5 107.35,-47.5"/>
<polygon fill="#63b8ff" stroke="#63b8ff" points="107.26,-51 117.26,-47.5 107.26,-44 107.26,-51"/>
</a>
</g>
</g>
<!-- Node3 -->
<g id="Node000003" class="node">
<title>Node3</title>
<g id="a_Node000003"><a xlink:href="exif-log_8c.html#aafd7e5d40ca73440976a3b684bfa1059" target="_top" xlink:title=" ">
<polygon fill="white" stroke="#666666" points="333,-75 259,-75 259,-56 333,-56 333,-75"/>
<text text-anchor="middle" x="296" y="-63" font-family="Helvetica,sans-Serif" font-size="10.00">exif_log_ref</text>
</a>
</g>
</g>
<!-- Node1&#45;&gt;Node3 -->
<g id="edge8_Node000001_Node000003" class="edge">
<title>Node1&#45;&gt;Node3</title>
<g id="a_edge8_Node000001_Node000003"><a xlink:title=" ">
<path fill="none" stroke="#63b8ff" d="M74.93,-57.41C88.42,-61.04 104.33,-64.71 119,-66.5 162.19,-71.78 211.79,-70.88 247.3,-69.04"/>
<polygon fill="#63b8ff" stroke="#63b8ff" points="247.48,-72.53 257.27,-68.47 247.08,-65.54 247.48,-72.53"/>
</a>
</g>
</g>
<!-- Node4 -->
<g id="Node000004" class="node">
<title>Node4</title>
<g id="a_Node000004"><a xlink:href="exif-log_8c.html#a7a9b738a7429197d68c80ffedac7d8fb" target="_top" xlink:title=" ">
<polygon fill="white" stroke="#666666" points="339,-38 253,-38 253,-19 339,-19 339,-38"/>
<text text-anchor="middle" x="296" y="-26" font-family="Helvetica,sans-Serif" font-size="10.00">exif_log_unref</text>
</a>
</g>
</g>
<!-- Node1&#45;&gt;Node4 -->
<g id="edge9_Node000001_Node000004" class="edge">
<title>Node1&#45;&gt;Node4</title>
<g id="a_edge9_Node000001_Node000004"><a xlink:title=" ">
<path fill="none" stroke="#63b8ff" d="M74.93,-37.59C88.42,-33.96 104.33,-30.29 119,-28.5 159.74,-23.52 206.18,-23.76 241.12,-25.12"/>
<polygon fill="#63b8ff" stroke="#63b8ff" points="240.85,-28.61 250.99,-25.55 241.16,-21.62 240.85,-28.61"/>
</a>
</g>
</g>
<!-- Node2&#45;&gt;Node3 -->
<g id="edge2_Node000002_Node000003" class="edge">
<title>Node2&#45;&gt;Node3</title>
<g id="a_edge2_Node000002_Node000003"><a xlink:title=" ">
<path fill="none" stroke="#63b8ff" d="M217.35,-54.41C227.23,-55.82 237.62,-57.3 247.46,-58.71"/>
<polygon fill="#63b8ff" stroke="#63b8ff" points="246.82,-62.15 257.22,-60.1 247.81,-55.22 246.82,-62.15"/>
</a>
</g>
</g>
<!-- Node2&#45;&gt;Node4 -->
<g id="edge3_Node000002_Node000004" class="edge">
<title>Node2&#45;&gt;Node4</title>
<g id="a_edge3_Node000002_Node000004"><a xlink:title=" ">
<path fill="none" stroke="#63b8ff" d="M217.35,-40.21C225.28,-39.01 233.53,-37.77 241.57,-36.56"/>
<polygon fill="#63b8ff" stroke="#63b8ff" points="241.87,-40.05 251.24,-35.1 240.83,-33.13 241.87,-40.05"/>
</a>
</g>
</g>
<!-- Node5 -->
<g id="Node000005" class="node">
<title>Node5</title>
<g id="a_Node000005"><a xlink:href="exif-log_8c.html#acd0808d6d5be73f28059797c2e2e67dc" target="_top" xlink:title="Delete instance of ExifLog.">
<polygon fill="white" stroke="#666666" points="455,-38 375,-38 375,-19 455,-19 455,-38"/>
<text text-anchor="middle" x="415" y="-26" font-family="Helvetica,sans-Serif" font-size="10.00">exif_log_free</text>
</a>
</g>
</g>
<!-- Node4&#45;&gt;Node5 -->
<g id="edge4_Node000004_Node000005" class="edge">
<title>Node4&#45;&gt;Node5</title>
<g id="a_edge4_Node000004_Node000005"><a xlink:title=" ">
<path fill="none" stroke="#63b8ff" d="M339.24,-28.5C346.98,-28.5 355.13,-28.5 363.09,-28.5"/>
<polygon fill="#63b8ff" stroke="#63b8ff" points="363.04,-32 373.04,-28.5 363.04,-25 363.04,-32"/>
</a>
</g>
</g>
<!-- Node6 -->
<g id="Node000006" class="node">
<title>Node6</title>
<g id="a_Node000006"><a xlink:href="exif-mem_8c.html#a43190b81b4b4bdb4ffb89bfb612051b1" target="_top" xlink:title=" ">
<polygon fill="white" stroke="#666666" points="715,-38 624,-38 624,-19 715,-19 715,-38"/>
<text text-anchor="middle" x="669.5" y="-26" font-family="Helvetica,sans-Serif" font-size="10.00">exif_mem_free</text>
</a>
</g>
</g>
<!-- Node5&#45;&gt;Node6 -->
<g id="edge5_Node000005_Node000006" class="edge">
<title>Node5&#45;&gt;Node6</title>
<g id="a_edge5_Node000005_Node000006"><a xlink:title=" ">
<path fill="none" stroke="#63b8ff" d="M455.45,-28.5C497.61,-28.5 564.79,-28.5 612.43,-28.5"/>
<polygon fill="#63b8ff" stroke="#63b8ff" points="612.28,-32 622.28,-28.5 612.28,-25 612.28,-32"/>
</a>
</g>
</g>
<!-- Node7 -->
<g id="Node000007" class="node">
<title>Node7</title>
<g id="a_Node000007"><a xlink:href="exif-mem_8c.html#a66744e0987af08c443df247ce55f7d87" target="_top" xlink:title="Unrefcount an ExifMem.">
<polygon fill="white" stroke="#666666" points="588,-19 491,-19 491,0 588,0 588,-19"/>
<text text-anchor="middle" x="539.5" y="-7" font-family="Helvetica,sans-Serif" font-size="10.00">exif_mem_unref</text>
</a>
</g>
</g>
<!-- Node5&#45;&gt;Node7 -->
<g id="edge6_Node000005_Node000007" class="edge">
<title>Node5&#45;&gt;Node7</title>
<g id="a_edge6_Node000005_Node000007"><a xlink:title=" ">
<path fill="none" stroke="#63b8ff" d="M455.43,-22.38C463.04,-21.2 471.16,-19.94 479.24,-18.69"/>
<polygon fill="#63b8ff" stroke="#63b8ff" points="479.73,-22.16 489.07,-17.17 478.65,-15.24 479.73,-22.16"/>
</a>
</g>
</g>
<!-- Node7&#45;&gt;Node6 -->
<g id="edge7_Node000007_Node000006" class="edge">
<title>Node7&#45;&gt;Node6</title>
<g id="a_edge7_Node000007_Node000006"><a xlink:title=" ">
<path fill="none" stroke="#63b8ff" d="M588.16,-16.57C596.09,-17.75 604.37,-18.98 612.47,-20.18"/>
<polygon fill="#63b8ff" stroke="#63b8ff" points="611.86,-23.63 622.27,-21.64 612.89,-16.71 611.86,-23.63"/>
</a>
</g>
</g>
</g>
</svg>
