<?xml version="1.0" encoding="UTF-8" standalone="no"?>
<!DOCTYPE svg PUBLIC "-//W3C//DTD SVG 1.1//EN"
 "http://www.w3.org/Graphics/SVG/1.1/DTD/svg11.dtd">
<!-- Generated by graphviz version 2.44.1 (0)
 -->
<!-- Title: exif_mnote_data_olympus_free Pages: 1 -->
<svg width="488pt" height="39pt"
 viewBox="0.00 0.00 488.00 39.00" xmlns="http://www.w3.org/2000/svg" xmlns:xlink="http://www.w3.org/1999/xlink">
<g id="graph0" class="graph" transform="scale(1 1) rotate(0) translate(4 35)">
<title>exif_mnote_data_olympus_free</title>
<polygon fill="white" stroke="transparent" points="-4,4 -4,-35 484,-35 484,4 -4,4"/>
<!-- Node1 -->
<g id="node1" class="node">
<title>Node1</title>
<g id="a_node1"><a xlink:title=" ">
<polygon fill="#bfbfbf" stroke="black" points="0,-6 0,-25 171,-25 171,-6 0,-6"/>
<text text-anchor="middle" x="85.5" y="-13" font-family="Helvetica,sans-Serif" font-size="10.00">exif_mnote_data_olympus_free</text>
</a>
</g>
</g>
<!-- Node2 -->
<g id="node2" class="node">
<title>Node2</title>
<g id="a_node2"><a xlink:href="exif-mnote-data-olympus_8c.html#abbf48c8c4866eb54430bb8db5f8a83c2" target="_top" xlink:title=" ">
<polygon fill="white" stroke="black" points="207,-0.5 207,-30.5 353,-30.5 353,-0.5 207,-0.5"/>
<text text-anchor="start" x="215" y="-18.5" font-family="Helvetica,sans-Serif" font-size="10.00">exif_mnote_data_olympus</text>
<text text-anchor="middle" x="280" y="-7.5" font-family="Helvetica,sans-Serif" font-size="10.00">_clear</text>
</a>
</g>
</g>
<!-- Node1&#45;&gt;Node2 -->
<g id="edge1" class="edge">
<title>Node1&#45;&gt;Node2</title>
<path fill="none" stroke="midnightblue" d="M171.21,-15.5C179.68,-15.5 188.26,-15.5 196.69,-15.5"/>
<polygon fill="midnightblue" stroke="midnightblue" points="196.9,-19 206.9,-15.5 196.9,-12 196.9,-19"/>
</g>
<!-- Node3 -->
<g id="node3" class="node">
<title>Node3</title>
<g id="a_node3"><a xlink:href="exif-mem_8c.html#a43190b81b4b4bdb4ffb89bfb612051b1" target="_top" xlink:title=" ">
<polygon fill="white" stroke="black" points="389,-6 389,-25 480,-25 480,-6 389,-6"/>
<text text-anchor="middle" x="434.5" y="-13" font-family="Helvetica,sans-Serif" font-size="10.00">exif_mem_free</text>
</a>
</g>
</g>
<!-- Node2&#45;&gt;Node3 -->
<g id="edge2" class="edge">
<title>Node2&#45;&gt;Node3</title>
<path fill="none" stroke="midnightblue" d="M353.23,-15.5C361.78,-15.5 370.4,-15.5 378.66,-15.5"/>
<polygon fill="midnightblue" stroke="midnightblue" points="378.89,-19 388.89,-15.5 378.89,-12 378.89,-19"/>
</g>
</g>
</svg>
