<?xml version="1.0" encoding="UTF-8" standalone="no"?>
<!DOCTYPE svg PUBLIC "-//W3C//DTD SVG 1.1//EN"
 "http://www.w3.org/Graphics/SVG/1.1/DTD/svg11.dtd">
<!-- Generated by graphviz version 7.0.1 (0)
 -->
<!-- Title: exif_mnote_data_canon_get_value Pages: 1 -->
<svg width="800pt" height="353pt"
 viewBox="0.00 0.00 800.00 353.38" xmlns="http://www.w3.org/2000/svg" xmlns:xlink="http://www.w3.org/1999/xlink">
<g id="graph0" class="graph" transform="scale(1 1) rotate(0) translate(4 349.38)">
<title>exif_mnote_data_canon_get_value</title>
<!-- Node1 -->
<g id="Node000001" class="node">
<title>Node1</title>
<g id="a_Node000001"><a xlink:title=" ">
<polygon fill="#999999" stroke="#666666" points="134,-238.88 0,-238.88 0,-208.88 134,-208.88 134,-238.88"/>
<text text-anchor="start" x="8" y="-226.88" font-family="Helvetica,sans-Serif" font-size="10.00">exif_mnote_data_canon</text>
<text text-anchor="middle" x="67" y="-215.88" font-family="Helvetica,sans-Serif" font-size="10.00">_get_value</text>
</a>
</g>
</g>
<!-- Node2 -->
<g id="Node000002" class="node">
<title>Node2</title>
<g id="a_Node000002"><a xlink:href="exif-mnote-data-canon_8c.html#ae9824e7901a9cd61dc6d81713af3d34b" target="_top" xlink:title=" ">
<polygon fill="white" stroke="#666666" points="304,-261.88 170,-261.88 170,-231.88 304,-231.88 304,-261.88"/>
<text text-anchor="start" x="178" y="-249.88" font-family="Helvetica,sans-Serif" font-size="10.00">exif_mnote_data_canon</text>
<text text-anchor="middle" x="237" y="-238.88" font-family="Helvetica,sans-Serif" font-size="10.00">_get_tags</text>
</a>
</g>
</g>
<!-- Node1&#45;&gt;Node2 -->
<g id="edge1_Node000001_Node000002" class="edge">
<title>Node1&#45;&gt;Node2</title>
<g id="a_edge1_Node000001_Node000002"><a xlink:title=" ">
<path fill="none" stroke="#63b8ff" d="M134.4,-232.97C142.25,-234.04 150.32,-235.15 158.32,-236.24"/>
<polygon fill="#63b8ff" stroke="#63b8ff" points="157.65,-239.68 168.03,-237.57 158.6,-232.75 157.65,-239.68"/>
</a>
</g>
</g>
<!-- Node6 -->
<g id="Node000006" class="node">
<title>Node6</title>
<g id="a_Node000006"><a xlink:href="mnote-canon-entry_8c.html#a13dd559bf47b5f99a5ecc8389c72e324" target="_top" xlink:title=" ">
<polygon fill="white" stroke="#666666" points="480,-215.88 346,-215.88 346,-185.88 480,-185.88 480,-215.88"/>
<text text-anchor="start" x="354" y="-203.88" font-family="Helvetica,sans-Serif" font-size="10.00">mnote_canon_entry_get</text>
<text text-anchor="middle" x="413" y="-192.88" font-family="Helvetica,sans-Serif" font-size="10.00">_value</text>
</a>
</g>
</g>
<!-- Node1&#45;&gt;Node6 -->
<g id="edge5_Node000001_Node000006" class="edge">
<title>Node1&#45;&gt;Node6</title>
<g id="a_edge5_Node000001_Node000006"><a xlink:title=" ">
<path fill="none" stroke="#63b8ff" d="M134.33,-219.44C191.46,-215.62 274,-210.11 334.23,-206.08"/>
<polygon fill="#63b8ff" stroke="#63b8ff" points="334.33,-209.58 344.07,-205.42 333.86,-202.59 334.33,-209.58"/>
</a>
</g>
</g>
<!-- Node3 -->
<g id="Node000003" class="node">
<title>Node3</title>
<g id="a_Node000003"><a xlink:href="mnote-canon-entry_8c.html#a9d343f3faec828b2467bacbab0919f47" target="_top" xlink:title=" ">
<polygon fill="white" stroke="#666666" points="486,-306.88 340,-306.88 340,-276.88 486,-276.88 486,-306.88"/>
<text text-anchor="start" x="348" y="-294.88" font-family="Helvetica,sans-Serif" font-size="10.00">mnote_canon_entry_count</text>
<text text-anchor="middle" x="413" y="-283.88" font-family="Helvetica,sans-Serif" font-size="10.00">_values</text>
</a>
</g>
</g>
<!-- Node2&#45;&gt;Node3 -->
<g id="edge2_Node000002_Node000003" class="edge">
<title>Node2&#45;&gt;Node3</title>
<g id="a_edge2_Node000002_Node000003"><a xlink:title=" ">
<path fill="none" stroke="#63b8ff" d="M297.88,-262.36C311.9,-265.99 326.97,-269.89 341.41,-273.62"/>
<polygon fill="#63b8ff" stroke="#63b8ff" points="340.28,-276.95 350.84,-276.06 342.03,-270.17 340.28,-276.95"/>
</a>
</g>
</g>
<!-- Node4 -->
<g id="Node000004" class="node">
<title>Node4</title>
<g id="a_Node000004"><a xlink:href="exif-utils_8c.html#a4b4acf537a8c6b9405e7b53be868e4d7" target="_top" xlink:title="Retrieve an ExifShort value from memory.">
<polygon fill="white" stroke="#666666" points="636,-345.38 550,-345.38 550,-326.38 636,-326.38 636,-345.38"/>
<text text-anchor="middle" x="593" y="-333.38" font-family="Helvetica,sans-Serif" font-size="10.00">exif_get_short</text>
</a>
</g>
</g>
<!-- Node3&#45;&gt;Node4 -->
<g id="edge3_Node000003_Node000004" class="edge">
<title>Node3&#45;&gt;Node4</title>
<g id="a_edge3_Node000003_Node000004"><a xlink:title=" ">
<path fill="none" stroke="#63b8ff" d="M476.51,-307.33C497.45,-312.51 520.56,-318.22 540.56,-323.16"/>
<polygon fill="#63b8ff" stroke="#63b8ff" points="539.61,-326.53 550.16,-325.54 541.29,-319.74 539.61,-326.53"/>
</a>
</g>
</g>
<!-- Node5 -->
<g id="Node000005" class="node">
<title>Node5</title>
<g id="a_Node000005"><a xlink:href="exif-utils_8c.html#a6baf094a71392f9cea23ad633ec13c8b" target="_top" xlink:title="Retrieve an ExifSShort value from memory.">
<polygon fill="white" stroke="#666666" points="792,-326.38 700,-326.38 700,-307.38 792,-307.38 792,-326.38"/>
<text text-anchor="middle" x="746" y="-314.38" font-family="Helvetica,sans-Serif" font-size="10.00">exif_get_sshort</text>
</a>
</g>
</g>
<!-- Node4&#45;&gt;Node5 -->
<g id="edge4_Node000004_Node000005" class="edge">
<title>Node4&#45;&gt;Node5</title>
<g id="a_edge4_Node000004_Node000005"><a xlink:title=" ">
<path fill="none" stroke="#63b8ff" d="M636.46,-330.54C652.64,-328.5 671.33,-326.15 688.59,-323.98"/>
<polygon fill="#63b8ff" stroke="#63b8ff" points="688.7,-327.49 698.19,-322.77 687.83,-320.54 688.7,-327.49"/>
</a>
</g>
</g>
<!-- Node6&#45;&gt;Node4 -->
<g id="edge13_Node000006_Node000004" class="edge">
<title>Node6&#45;&gt;Node4</title>
<g id="a_edge13_Node000006_Node000004"><a xlink:title=" ">
<path fill="none" stroke="#63b8ff" d="M431.8,-216.22C446.77,-229.41 468.48,-249.2 486,-267.88 503.29,-286.3 501.26,-297.45 522,-311.88 527.47,-315.68 533.6,-318.93 539.9,-321.7"/>
<polygon fill="#63b8ff" stroke="#63b8ff" points="538.57,-324.93 549.16,-325.34 541.14,-318.42 538.57,-324.93"/>
</a>
</g>
</g>
<!-- Node6&#45;&gt;Node5 -->
<g id="edge15_Node000006_Node000005" class="edge">
<title>Node6&#45;&gt;Node5</title>
<g id="a_edge15_Node000006_Node000005"><a xlink:title=" ">
<path fill="none" stroke="#63b8ff" d="M430.1,-216.22C450.01,-234.26 485.74,-263.67 522,-278.88 575.75,-301.42 642.14,-310.6 688.43,-314.33"/>
<polygon fill="#63b8ff" stroke="#63b8ff" points="688.01,-317.81 698.24,-315.06 688.53,-310.83 688.01,-317.81"/>
</a>
</g>
</g>
<!-- Node7 -->
<g id="Node000007" class="node">
<title>Node7</title>
<g id="a_Node000007"><a xlink:href="mnote-canon-entry_8c.html#a06e73d7e72da3d1aa6914c8bf3d69c0d" target="_top" xlink:title=" ">
<polygon fill="white" stroke="#666666" points="660,-269.38 526,-269.38 526,-250.38 660,-250.38 660,-269.38"/>
<text text-anchor="middle" x="593" y="-257.38" font-family="Helvetica,sans-Serif" font-size="10.00">apex_value_to_aperture</text>
</a>
</g>
</g>
<!-- Node6&#45;&gt;Node7 -->
<g id="edge6_Node000006_Node000007" class="edge">
<title>Node6&#45;&gt;Node7</title>
<g id="a_edge6_Node000006_Node000007"><a xlink:title=" ">
<path fill="none" stroke="#63b8ff" d="M451.62,-216.34C472.22,-224.5 498.3,-234.36 522,-241.88 527.68,-243.68 533.66,-245.43 539.64,-247.09"/>
<polygon fill="#63b8ff" stroke="#63b8ff" points="538.3,-250.36 548.87,-249.58 540.12,-243.6 538.3,-250.36"/>
</a>
</g>
</g>
<!-- Node8 -->
<g id="Node000008" class="node">
<title>Node8</title>
<g id="a_Node000008"><a xlink:href="mnote-canon-entry_8c.html#a04ae2e21068f2ad8f6c7657cfddd9674" target="_top" xlink:title=" ">
<polygon fill="white" stroke="#666666" points="664,-232.38 522,-232.38 522,-213.38 664,-213.38 664,-232.38"/>
<text text-anchor="middle" x="593" y="-220.38" font-family="Helvetica,sans-Serif" font-size="10.00">apex_value_to_iso_speed</text>
</a>
</g>
</g>
<!-- Node6&#45;&gt;Node8 -->
<g id="edge7_Node000006_Node000008" class="edge">
<title>Node6&#45;&gt;Node8</title>
<g id="a_edge7_Node000006_Node000008"><a xlink:title=" ">
<path fill="none" stroke="#63b8ff" d="M480.28,-209.07C490.12,-210.29 500.36,-211.55 510.46,-212.8"/>
<polygon fill="#63b8ff" stroke="#63b8ff" points="509.93,-216.26 520.29,-214.01 510.79,-209.31 509.93,-216.26"/>
</a>
</g>
</g>
<!-- Node9 -->
<g id="Node000009" class="node">
<title>Node9</title>
<g id="a_Node000009"><a xlink:href="mnote-canon-entry_8c.html#a1d6fc4e311ea9cd21992df9bd38c90ce" target="_top" xlink:title=" ">
<polygon fill="white" stroke="#666666" points="657,-194.88 529,-194.88 529,-164.88 657,-164.88 657,-194.88"/>
<text text-anchor="start" x="537" y="-182.88" font-family="Helvetica,sans-Serif" font-size="10.00">apex_value_to_shutter</text>
<text text-anchor="middle" x="593" y="-171.88" font-family="Helvetica,sans-Serif" font-size="10.00">_speed</text>
</a>
</g>
</g>
<!-- Node6&#45;&gt;Node9 -->
<g id="edge8_Node000006_Node000009" class="edge">
<title>Node6&#45;&gt;Node9</title>
<g id="a_edge8_Node000006_Node000009"><a xlink:title=" ">
<path fill="none" stroke="#63b8ff" d="M480.28,-193.06C492.39,-191.63 505.1,-190.13 517.43,-188.68"/>
<polygon fill="#63b8ff" stroke="#63b8ff" points="517.59,-192.18 527.11,-187.53 516.77,-185.23 517.59,-192.18"/>
</a>
</g>
</g>
<!-- Node10 -->
<g id="Node000010" class="node">
<title>Node10</title>
<g id="a_Node000010"><a xlink:href="mnote-canon-entry_8c.html#add2f1f2c87fe2684b11d79a9b6e43742" target="_top" xlink:title=" ">
<polygon fill="white" stroke="#666666" points="649.5,-146.88 536.5,-146.88 536.5,-116.88 649.5,-116.88 649.5,-146.88"/>
<text text-anchor="start" x="544.5" y="-134.88" font-family="Helvetica,sans-Serif" font-size="10.00">canon_search_table</text>
<text text-anchor="middle" x="593" y="-123.88" font-family="Helvetica,sans-Serif" font-size="10.00">_bitfield</text>
</a>
</g>
</g>
<!-- Node6&#45;&gt;Node10 -->
<g id="edge9_Node000006_Node000010" class="edge">
<title>Node6&#45;&gt;Node10</title>
<g id="a_edge9_Node000006_Node000010"><a xlink:title=" ">
<path fill="none" stroke="#63b8ff" d="M449.28,-185.5C470.27,-176.53 497.5,-165.17 522,-155.88 526.14,-154.31 530.43,-152.73 534.76,-151.16"/>
<polygon fill="#63b8ff" stroke="#63b8ff" points="535.86,-154.49 544.11,-147.85 533.51,-147.89 535.86,-154.49"/>
</a>
</g>
</g>
<!-- Node11 -->
<g id="Node000011" class="node">
<title>Node11</title>
<g id="a_Node000011"><a xlink:href="mnote-canon-entry_8c.html#a8b4d32c58f704230c465d3af23f8501e" target="_top" xlink:title=" ">
<polygon fill="white" stroke="#666666" points="649.5,-98.88 536.5,-98.88 536.5,-68.88 649.5,-68.88 649.5,-98.88"/>
<text text-anchor="start" x="544.5" y="-86.88" font-family="Helvetica,sans-Serif" font-size="10.00">canon_search_table</text>
<text text-anchor="middle" x="593" y="-75.88" font-family="Helvetica,sans-Serif" font-size="10.00">_value</text>
</a>
</g>
</g>
<!-- Node6&#45;&gt;Node11 -->
<g id="edge10_Node000006_Node000011" class="edge">
<title>Node6&#45;&gt;Node11</title>
<g id="a_edge10_Node000006_Node000011"><a xlink:title=" ">
<path fill="none" stroke="#63b8ff" d="M427.98,-185.65C447.34,-165.37 484.22,-129.54 522,-107.88 524.44,-106.48 526.97,-105.15 529.56,-103.87"/>
<polygon fill="#63b8ff" stroke="#63b8ff" points="530.72,-107.19 538.41,-99.9 527.86,-100.81 530.72,-107.19"/>
</a>
</g>
</g>
<!-- Node12 -->
<g id="Node000012" class="node">
<title>Node12</title>
<g id="a_Node000012"><a xlink:href="exif-utils_8c.html#a4ad94614630897766dd0a5c9bc2a59bf" target="_top" xlink:title="Retrieve an ExifLong value from memory.">
<polygon fill="white" stroke="#666666" points="634.5,-50.38 551.5,-50.38 551.5,-31.38 634.5,-31.38 634.5,-50.38"/>
<text text-anchor="middle" x="593" y="-38.38" font-family="Helvetica,sans-Serif" font-size="10.00">exif_get_long</text>
</a>
</g>
</g>
<!-- Node6&#45;&gt;Node12 -->
<g id="edge11_Node000006_Node000012" class="edge">
<title>Node6&#45;&gt;Node12</title>
<g id="a_edge11_Node000006_Node000012"><a xlink:title=" ">
<path fill="none" stroke="#63b8ff" d="M421.43,-185.49C436.29,-156.34 472.59,-93.04 522,-59.88 527.56,-56.15 533.83,-53.15 540.27,-50.73"/>
<polygon fill="#63b8ff" stroke="#63b8ff" points="541.32,-54.07 549.75,-47.67 539.16,-47.41 541.32,-54.07"/>
</a>
</g>
</g>
<!-- Node13 -->
<g id="Node000013" class="node">
<title>Node13</title>
<g id="a_Node000013"><a xlink:href="exif-utils_8c.html#a56b96f076a13da6ed926e1ef29cb2dc3" target="_top" xlink:title="Retrieve an ExifSLong value from memory.">
<polygon fill="white" stroke="#666666" points="790,-31.38 702,-31.38 702,-12.38 790,-12.38 790,-31.38"/>
<text text-anchor="middle" x="746" y="-19.38" font-family="Helvetica,sans-Serif" font-size="10.00">exif_get_slong</text>
</a>
</g>
</g>
<!-- Node6&#45;&gt;Node13 -->
<g id="edge14_Node000006_Node000013" class="edge">
<title>Node6&#45;&gt;Node13</title>
<g id="a_edge14_Node000006_Node000013"><a xlink:title=" ">
<path fill="none" stroke="#63b8ff" d="M417.79,-185.43C427.67,-148.98 458,-58.01 522,-21.88 576.66,8.98 651.53,0.75 699.09,-9.43"/>
<polygon fill="#63b8ff" stroke="#63b8ff" points="698.27,-12.83 708.79,-11.63 699.81,-6.01 698.27,-12.83"/>
</a>
</g>
</g>
<!-- Node12&#45;&gt;Node13 -->
<g id="edge12_Node000012_Node000013" class="edge">
<title>Node12&#45;&gt;Node13</title>
<g id="a_edge12_Node000012_Node000013"><a xlink:title=" ">
<path fill="none" stroke="#63b8ff" d="M634.86,-35.74C652.01,-33.58 672.19,-31.04 690.56,-28.73"/>
<polygon fill="#63b8ff" stroke="#63b8ff" points="690.74,-32.23 700.23,-27.51 689.87,-25.29 690.74,-32.23"/>
</a>
</g>
</g>
</g>
</svg>
