<?xml version="1.0" encoding="UTF-8" standalone="no"?>
<!DOCTYPE svg PUBLIC "-//W3C//DTD SVG 1.1//EN"
 "http://www.w3.org/Graphics/SVG/1.1/DTD/svg11.dtd">
<!-- Generated by graphviz version 2.44.1 (0)
 -->
<!-- Title: exif_loader_write Pages: 1 -->
<svg width="513pt" height="104pt"
 viewBox="0.00 0.00 513.00 104.00" xmlns="http://www.w3.org/2000/svg" xmlns:xlink="http://www.w3.org/1999/xlink">
<g id="graph0" class="graph" transform="scale(1 1) rotate(0) translate(4 100)">
<title>exif_loader_write</title>
<polygon fill="white" stroke="transparent" points="-4,4 -4,-100 509,-100 509,4 -4,4"/>
<!-- Node1 -->
<g id="node1" class="node">
<title>Node1</title>
<g id="a_node1"><a xlink:title="Load a buffer into the ExifLoader from a memory buffer.">
<polygon fill="#bfbfbf" stroke="black" points="0,-38.5 0,-57.5 101,-57.5 101,-38.5 0,-38.5"/>
<text text-anchor="middle" x="50.5" y="-45.5" font-family="Helvetica,sans-Serif" font-size="10.00">exif_loader_write</text>
</a>
</g>
</g>
<!-- Node2 -->
<g id="node2" class="node">
<title>Node2</title>
<g id="a_node2"><a xlink:href="exif-loader_8c.html#ac83d06f410cd71f8ea82f3030707ec19" target="_top" xlink:title=" ">
<polygon fill="white" stroke="black" points="137.5,-76.5 137.5,-95.5 237.5,-95.5 237.5,-76.5 137.5,-76.5"/>
<text text-anchor="middle" x="187.5" y="-83.5" font-family="Helvetica,sans-Serif" font-size="10.00">exif_loader_copy</text>
</a>
</g>
</g>
<!-- Node1&#45;&gt;Node2 -->
<g id="edge1" class="edge">
<title>Node1&#45;&gt;Node2</title>
<path fill="none" stroke="midnightblue" d="M85.57,-57.59C102.91,-62.47 124.2,-68.46 142.75,-73.68"/>
<polygon fill="midnightblue" stroke="midnightblue" points="141.87,-77.07 152.44,-76.41 143.77,-70.34 141.87,-77.07"/>
</g>
<!-- Node5 -->
<g id="node5" class="node">
<title>Node5</title>
<g id="a_node5"><a xlink:href="exif-loader_8c.html#a080d8ebb5006c1306a3a798ff60253a5" target="_top" xlink:title="Free any data previously loaded and reset the ExifLoader to its newly&#45;initialized state.">
<polygon fill="white" stroke="black" points="137,-38.5 137,-57.5 238,-57.5 238,-38.5 137,-38.5"/>
<text text-anchor="middle" x="187.5" y="-45.5" font-family="Helvetica,sans-Serif" font-size="10.00">exif_loader_reset</text>
</a>
</g>
</g>
<!-- Node1&#45;&gt;Node5 -->
<g id="edge4" class="edge">
<title>Node1&#45;&gt;Node5</title>
<path fill="none" stroke="midnightblue" d="M101,-48C109.24,-48 117.87,-48 126.34,-48"/>
<polygon fill="midnightblue" stroke="midnightblue" points="126.55,-51.5 136.55,-48 126.55,-44.5 126.55,-51.5"/>
</g>
<!-- Node7 -->
<g id="node7" class="node">
<title>Node7</title>
<g id="a_node7"><a xlink:href="exif-log_8c.html#a025d4a5d96544913ea6f6ebbec69cb68" target="_top" xlink:title=" ">
<polygon fill="white" stroke="black" points="159.5,-0.5 159.5,-19.5 215.5,-19.5 215.5,-0.5 159.5,-0.5"/>
<text text-anchor="middle" x="187.5" y="-7.5" font-family="Helvetica,sans-Serif" font-size="10.00">exif_log</text>
</a>
</g>
</g>
<!-- Node1&#45;&gt;Node7 -->
<g id="edge6" class="edge">
<title>Node1&#45;&gt;Node7</title>
<path fill="none" stroke="midnightblue" d="M85.57,-38.41C105.08,-32.92 129.58,-26.02 149.55,-20.4"/>
<polygon fill="midnightblue" stroke="midnightblue" points="150.56,-23.75 159.24,-17.67 148.67,-17.01 150.56,-23.75"/>
</g>
<!-- Node3 -->
<g id="node3" class="node">
<title>Node3</title>
<g id="a_node3"><a xlink:href="exif-loader_8c.html#af5432ecf056b1facede9da071bb9d6a2" target="_top" xlink:title=" ">
<polygon fill="white" stroke="black" points="274,-76.5 274,-95.5 374,-95.5 374,-76.5 274,-76.5"/>
<text text-anchor="middle" x="324" y="-83.5" font-family="Helvetica,sans-Serif" font-size="10.00">exif_loader_alloc</text>
</a>
</g>
</g>
<!-- Node2&#45;&gt;Node3 -->
<g id="edge2" class="edge">
<title>Node2&#45;&gt;Node3</title>
<path fill="none" stroke="midnightblue" d="M237.82,-86C246.23,-86 255.04,-86 263.67,-86"/>
<polygon fill="midnightblue" stroke="midnightblue" points="263.69,-89.5 273.69,-86 263.69,-82.5 263.69,-89.5"/>
</g>
<!-- Node4 -->
<g id="node4" class="node">
<title>Node4</title>
<g id="a_node4"><a xlink:href="exif-mem_8c.html#ae8c09cfbcb95e435c4c4b7ec3bbd79e4" target="_top" xlink:title=" ">
<polygon fill="white" stroke="black" points="410,-76.5 410,-95.5 505,-95.5 505,-76.5 410,-76.5"/>
<text text-anchor="middle" x="457.5" y="-83.5" font-family="Helvetica,sans-Serif" font-size="10.00">exif_mem_alloc</text>
</a>
</g>
</g>
<!-- Node3&#45;&gt;Node4 -->
<g id="edge3" class="edge">
<title>Node3&#45;&gt;Node4</title>
<path fill="none" stroke="midnightblue" d="M374.34,-86C382.63,-86 391.29,-86 399.75,-86"/>
<polygon fill="midnightblue" stroke="midnightblue" points="399.93,-89.5 409.93,-86 399.93,-82.5 399.93,-89.5"/>
</g>
<!-- Node6 -->
<g id="node6" class="node">
<title>Node6</title>
<g id="a_node6"><a xlink:href="exif-mem_8c.html#a43190b81b4b4bdb4ffb89bfb612051b1" target="_top" xlink:title=" ">
<polygon fill="white" stroke="black" points="278.5,-38.5 278.5,-57.5 369.5,-57.5 369.5,-38.5 278.5,-38.5"/>
<text text-anchor="middle" x="324" y="-45.5" font-family="Helvetica,sans-Serif" font-size="10.00">exif_mem_free</text>
</a>
</g>
</g>
<!-- Node5&#45;&gt;Node6 -->
<g id="edge5" class="edge">
<title>Node5&#45;&gt;Node6</title>
<path fill="none" stroke="midnightblue" d="M238.2,-48C247.98,-48 258.28,-48 268.21,-48"/>
<polygon fill="midnightblue" stroke="midnightblue" points="268.39,-51.5 278.39,-48 268.39,-44.5 268.39,-51.5"/>
</g>
<!-- Node8 -->
<g id="node8" class="node">
<title>Node8</title>
<g id="a_node8"><a xlink:href="exif-log_8c.html#a99101b5ad01b2d82ce9d43c9e8534627" target="_top" xlink:title=" ">
<polygon fill="white" stroke="black" points="293,-0.5 293,-19.5 355,-19.5 355,-0.5 293,-0.5"/>
<text text-anchor="middle" x="324" y="-7.5" font-family="Helvetica,sans-Serif" font-size="10.00">exif_logv</text>
</a>
</g>
</g>
<!-- Node7&#45;&gt;Node8 -->
<g id="edge7" class="edge">
<title>Node7&#45;&gt;Node8</title>
<path fill="none" stroke="midnightblue" d="M215.72,-10C234.85,-10 260.77,-10 282.35,-10"/>
<polygon fill="midnightblue" stroke="midnightblue" points="282.54,-13.5 292.54,-10 282.54,-6.5 282.54,-13.5"/>
</g>
</g>
</svg>
