<?xml version="1.0" encoding="UTF-8" standalone="no"?>
<!DOCTYPE svg PUBLIC "-//W3C//DTD SVG 1.1//EN"
 "http://www.w3.org/Graphics/SVG/1.1/DTD/svg11.dtd">
<!-- Generated by graphviz version 2.44.1 (0)
 -->
<!-- Title: libexif/fuji/exif&#45;mnote&#45;data&#45;fuji.c Pages: 1 -->
<svg width="896pt" height="587pt"
 viewBox="0.00 0.00 895.50 587.00" xmlns="http://www.w3.org/2000/svg" xmlns:xlink="http://www.w3.org/1999/xlink">
<g id="graph0" class="graph" transform="scale(1 1) rotate(0) translate(4 583)">
<title>libexif/fuji/exif&#45;mnote&#45;data&#45;fuji.c</title>
<polygon fill="white" stroke="transparent" points="-4,4 -4,-583 891.5,-583 891.5,4 -4,4"/>
<!-- Node1 -->
<g id="node1" class="node">
<title>Node1</title>
<g id="a_node1"><a xlink:title=" ">
<polygon fill="#bfbfbf" stroke="black" points="137.5,-548.5 137.5,-578.5 259.5,-578.5 259.5,-548.5 137.5,-548.5"/>
<text text-anchor="start" x="145.5" y="-566.5" font-family="Helvetica,sans-Serif" font-size="10.00">libexif/fuji/exif&#45;mnote</text>
<text text-anchor="middle" x="198.5" y="-555.5" font-family="Helvetica,sans-Serif" font-size="10.00">&#45;data&#45;fuji.c</text>
</a>
</g>
</g>
<!-- Node2 -->
<g id="node2" class="node">
<title>Node2</title>
<g id="a_node2"><a xlink:title=" ">
<polygon fill="white" stroke="#bfbfbf" points="0,-492.5 0,-511.5 53,-511.5 53,-492.5 0,-492.5"/>
<text text-anchor="middle" x="26.5" y="-499.5" font-family="Helvetica,sans-Serif" font-size="10.00">stdlib.h</text>
</a>
</g>
</g>
<!-- Node1&#45;&gt;Node2 -->
<g id="edge1" class="edge">
<title>Node1&#45;&gt;Node2</title>
<path fill="none" stroke="midnightblue" d="M157.74,-548.4C128.28,-538.21 88.91,-524.59 61,-514.93"/>
<polygon fill="midnightblue" stroke="midnightblue" points="61.87,-511.53 51.28,-511.57 59.58,-518.15 61.87,-511.53"/>
</g>
<!-- Node3 -->
<g id="node3" class="node">
<title>Node3</title>
<g id="a_node3"><a xlink:title=" ">
<polygon fill="white" stroke="#bfbfbf" points="71,-492.5 71,-511.5 124,-511.5 124,-492.5 71,-492.5"/>
<text text-anchor="middle" x="97.5" y="-499.5" font-family="Helvetica,sans-Serif" font-size="10.00">string.h</text>
</a>
</g>
</g>
<!-- Node1&#45;&gt;Node3 -->
<g id="edge2" class="edge">
<title>Node1&#45;&gt;Node3</title>
<path fill="none" stroke="midnightblue" d="M174.56,-548.4C158.37,-538.86 137.09,-526.32 121,-516.84"/>
<polygon fill="midnightblue" stroke="midnightblue" points="122.59,-513.72 112.2,-511.66 119.04,-519.75 122.59,-513.72"/>
</g>
<!-- Node4 -->
<g id="node4" class="node">
<title>Node4</title>
<g id="a_node4"><a xlink:title=" ">
<polygon fill="white" stroke="#bfbfbf" points="142.5,-492.5 142.5,-511.5 198.5,-511.5 198.5,-492.5 142.5,-492.5"/>
<text text-anchor="middle" x="170.5" y="-499.5" font-family="Helvetica,sans-Serif" font-size="10.00">config.h</text>
</a>
</g>
</g>
<!-- Node1&#45;&gt;Node4 -->
<g id="edge3" class="edge">
<title>Node1&#45;&gt;Node4</title>
<path fill="none" stroke="midnightblue" d="M191.86,-548.4C187.96,-540.11 183,-529.55 178.83,-520.71"/>
<polygon fill="midnightblue" stroke="midnightblue" points="182,-519.22 174.57,-511.66 175.67,-522.2 182,-519.22"/>
</g>
<!-- Node5 -->
<g id="node5" class="node">
<title>Node5</title>
<g id="a_node5"><a xlink:href="exif-byte-order_8h.html" target="_top" xlink:title="Defines the ExifByteOrder enum and the associated functions.">
<polygon fill="white" stroke="black" points="315,-0.5 315,-19.5 446,-19.5 446,-0.5 315,-0.5"/>
<text text-anchor="middle" x="380.5" y="-7.5" font-family="Helvetica,sans-Serif" font-size="10.00">libexif/exif&#45;byte&#45;order.h</text>
</a>
</g>
</g>
<!-- Node1&#45;&gt;Node5 -->
<g id="edge4" class="edge">
<title>Node1&#45;&gt;Node5</title>
<path fill="none" stroke="midnightblue" d="M204.03,-548.22C212.19,-525.83 226.5,-480.96 226.5,-441.5 226.5,-441.5 226.5,-441.5 226.5,-121 226.5,-67.13 289.68,-37.14 335.1,-22.54"/>
<polygon fill="midnightblue" stroke="midnightblue" points="336.25,-25.85 344.78,-19.57 334.2,-19.16 336.25,-25.85"/>
</g>
<!-- Node6 -->
<g id="node6" class="node">
<title>Node6</title>
<g id="a_node6"><a xlink:href="exif-utils_8h.html" target="_top" xlink:title="EXIF data manipulation functions and types.">
<polygon fill="white" stroke="black" points="596,-56.5 596,-75.5 697,-75.5 697,-56.5 596,-56.5"/>
<text text-anchor="middle" x="646.5" y="-63.5" font-family="Helvetica,sans-Serif" font-size="10.00">libexif/exif&#45;utils.h</text>
</a>
</g>
</g>
<!-- Node1&#45;&gt;Node6 -->
<g id="edge5" class="edge">
<title>Node1&#45;&gt;Node6</title>
<path fill="none" stroke="midnightblue" d="M212.93,-548.11C221.87,-538.54 233.03,-525.33 240.5,-512 256.69,-483.13 264.5,-474.6 264.5,-441.5 264.5,-441.5 264.5,-441.5 264.5,-305.5 264.5,-215.72 254.34,-170.44 322.5,-112 360.94,-79.04 503.02,-70.17 585.72,-67.81"/>
<polygon fill="midnightblue" stroke="midnightblue" points="585.84,-71.31 595.74,-67.55 585.65,-64.31 585.84,-71.31"/>
</g>
<!-- Node9 -->
<g id="node9" class="node">
<title>Node9</title>
<g id="a_node9"><a xlink:href="exif-mnote-data-fuji_8h.html" target="_top" xlink:title=" ">
<polygon fill="white" stroke="black" points="625,-492.5 625,-511.5 748,-511.5 748,-492.5 625,-492.5"/>
<text text-anchor="middle" x="686.5" y="-499.5" font-family="Helvetica,sans-Serif" font-size="10.00">exif&#45;mnote&#45;data&#45;fuji.h</text>
</a>
</g>
</g>
<!-- Node1&#45;&gt;Node9 -->
<g id="edge9" class="edge">
<title>Node1&#45;&gt;Node9</title>
<path fill="none" stroke="midnightblue" d="M259.81,-555.02C350.09,-544.02 518.43,-523.49 614.47,-511.78"/>
<polygon fill="midnightblue" stroke="midnightblue" points="615.17,-515.22 624.67,-510.54 614.32,-508.27 615.17,-515.22"/>
</g>
<!-- Node6&#45;&gt;Node5 -->
<g id="edge6" class="edge">
<title>Node6&#45;&gt;Node5</title>
<path fill="none" stroke="midnightblue" d="M604.35,-56.44C557.75,-46.98 482.66,-31.74 432.45,-21.55"/>
<polygon fill="midnightblue" stroke="midnightblue" points="432.95,-18.08 422.45,-19.52 431.56,-24.94 432.95,-18.08"/>
</g>
<!-- Node7 -->
<g id="node7" class="node">
<title>Node7</title>
<g id="a_node7"><a xlink:href="exif-format_8h.html" target="_top" xlink:title="Handling native EXIF data types.">
<polygon fill="white" stroke="black" points="691,-0.5 691,-19.5 804,-19.5 804,-0.5 691,-0.5"/>
<text text-anchor="middle" x="747.5" y="-7.5" font-family="Helvetica,sans-Serif" font-size="10.00">libexif/exif&#45;format.h</text>
</a>
</g>
</g>
<!-- Node6&#45;&gt;Node7 -->
<g id="edge7" class="edge">
<title>Node6&#45;&gt;Node7</title>
<path fill="none" stroke="midnightblue" d="M662.73,-56.32C678.85,-47.7 703.8,-34.36 722.46,-24.39"/>
<polygon fill="midnightblue" stroke="midnightblue" points="724.14,-27.46 731.31,-19.65 720.84,-21.28 724.14,-27.46"/>
</g>
<!-- Node8 -->
<g id="node8" class="node">
<title>Node8</title>
<g id="a_node8"><a xlink:title=" ">
<polygon fill="white" stroke="#bfbfbf" points="580.5,-0.5 580.5,-19.5 672.5,-19.5 672.5,-0.5 580.5,-0.5"/>
<text text-anchor="middle" x="626.5" y="-7.5" font-family="Helvetica,sans-Serif" font-size="10.00">libexif/_stdint.h</text>
</a>
</g>
</g>
<!-- Node6&#45;&gt;Node8 -->
<g id="edge8" class="edge">
<title>Node6&#45;&gt;Node8</title>
<path fill="none" stroke="midnightblue" d="M643.2,-56.08C640.52,-48.85 636.65,-38.41 633.31,-29.4"/>
<polygon fill="midnightblue" stroke="midnightblue" points="636.5,-27.91 629.74,-19.75 629.93,-30.34 636.5,-27.91"/>
</g>
<!-- Node10 -->
<g id="node10" class="node">
<title>Node10</title>
<g id="a_node10"><a xlink:href="exif-mnote-data_8h.html" target="_top" xlink:title="Handling EXIF MakerNote tags.">
<polygon fill="white" stroke="black" points="680,-224.5 680,-254.5 783,-254.5 783,-224.5 680,-224.5"/>
<text text-anchor="start" x="688" y="-242.5" font-family="Helvetica,sans-Serif" font-size="10.00">libexif/exif&#45;mnote</text>
<text text-anchor="middle" x="731.5" y="-231.5" font-family="Helvetica,sans-Serif" font-size="10.00">&#45;data.h</text>
</a>
</g>
</g>
<!-- Node9&#45;&gt;Node10 -->
<g id="edge10" class="edge">
<title>Node9&#45;&gt;Node10</title>
<path fill="none" stroke="midnightblue" d="M686.2,-492.07C685.84,-477.82 685.6,-449.11 688.5,-425 695.78,-364.5 702.91,-350.16 717.5,-291 719.64,-282.3 722.21,-272.83 724.55,-264.46"/>
<polygon fill="midnightblue" stroke="midnightblue" points="727.99,-265.17 727.36,-254.59 721.26,-263.25 727.99,-265.17"/>
</g>
<!-- Node14 -->
<g id="node14" class="node">
<title>Node14</title>
<g id="a_node14"><a xlink:href="exif-mnote-data-priv_8h.html" target="_top" xlink:title=" ">
<polygon fill="white" stroke="black" points="726,-291.5 726,-321.5 829,-321.5 829,-291.5 726,-291.5"/>
<text text-anchor="start" x="734" y="-309.5" font-family="Helvetica,sans-Serif" font-size="10.00">libexif/exif&#45;mnote</text>
<text text-anchor="middle" x="777.5" y="-298.5" font-family="Helvetica,sans-Serif" font-size="10.00">&#45;data&#45;priv.h</text>
</a>
</g>
</g>
<!-- Node9&#45;&gt;Node14 -->
<g id="edge15" class="edge">
<title>Node9&#45;&gt;Node14</title>
<path fill="none" stroke="midnightblue" d="M687.26,-492.33C689.64,-469.06 698.43,-403.87 725.5,-358 731.98,-347.02 741.48,-336.82 750.59,-328.5"/>
<polygon fill="midnightblue" stroke="midnightblue" points="753.15,-330.91 758.41,-321.71 748.56,-325.62 753.15,-330.91"/>
</g>
<!-- Node15 -->
<g id="node15" class="node">
<title>Node15</title>
<g id="a_node15"><a xlink:href="exif-data_8h.html" target="_top" xlink:title="Defines the ExifData type and the associated functions.">
<polygon fill="white" stroke="black" points="513.5,-297 513.5,-316 615.5,-316 615.5,-297 513.5,-297"/>
<text text-anchor="middle" x="564.5" y="-304" font-family="Helvetica,sans-Serif" font-size="10.00">libexif/exif&#45;data.h</text>
</a>
</g>
</g>
<!-- Node9&#45;&gt;Node15 -->
<g id="edge19" class="edge">
<title>Node9&#45;&gt;Node15</title>
<path fill="none" stroke="midnightblue" d="M679.68,-492.21C672.82,-483.26 662.08,-468.91 653.5,-456 622.84,-409.84 590.18,-353.15 574.31,-325.04"/>
<polygon fill="midnightblue" stroke="midnightblue" points="577.2,-323.04 569.25,-316.04 571.1,-326.47 577.2,-323.04"/>
</g>
<!-- Node21 -->
<g id="node21" class="node">
<title>Node21</title>
<g id="a_node21"><a xlink:href="mnote-fuji-entry_8h.html" target="_top" xlink:title=" ">
<polygon fill="white" stroke="black" points="734,-425.5 734,-455.5 835,-455.5 835,-425.5 734,-425.5"/>
<text text-anchor="start" x="742" y="-443.5" font-family="Helvetica,sans-Serif" font-size="10.00">libexif/fuji/mnote</text>
<text text-anchor="middle" x="784.5" y="-432.5" font-family="Helvetica,sans-Serif" font-size="10.00">&#45;fuji&#45;entry.h</text>
</a>
</g>
</g>
<!-- Node9&#45;&gt;Node21 -->
<g id="edge38" class="edge">
<title>Node9&#45;&gt;Node21</title>
<path fill="none" stroke="midnightblue" d="M695.64,-492.48C707.48,-484.19 728.19,-471.32 746.71,-460.59"/>
<polygon fill="midnightblue" stroke="midnightblue" points="748.63,-463.52 755.57,-455.52 745.15,-457.45 748.63,-463.52"/>
</g>
<!-- Node11 -->
<g id="node11" class="node">
<title>Node11</title>
<g id="a_node11"><a xlink:href="exif-log_8h.html" target="_top" xlink:title="Log message infrastructure.">
<polygon fill="white" stroke="black" points="719,-168.5 719,-187.5 814,-187.5 814,-168.5 719,-168.5"/>
<text text-anchor="middle" x="766.5" y="-175.5" font-family="Helvetica,sans-Serif" font-size="10.00">libexif/exif&#45;log.h</text>
</a>
</g>
</g>
<!-- Node10&#45;&gt;Node11 -->
<g id="edge11" class="edge">
<title>Node10&#45;&gt;Node11</title>
<path fill="none" stroke="midnightblue" d="M739.79,-224.4C744.72,-216.02 751.01,-205.33 756.25,-196.42"/>
<polygon fill="midnightblue" stroke="midnightblue" points="759.35,-198.05 761.41,-187.66 753.32,-194.5 759.35,-198.05"/>
</g>
<!-- Node12 -->
<g id="node12" class="node">
<title>Node12</title>
<g id="a_node12"><a xlink:href="exif-mem_8h.html" target="_top" xlink:title="Define the ExifMem data type and the associated functions.">
<polygon fill="white" stroke="black" points="592.5,-112.5 592.5,-131.5 698.5,-131.5 698.5,-112.5 592.5,-112.5"/>
<text text-anchor="middle" x="645.5" y="-119.5" font-family="Helvetica,sans-Serif" font-size="10.00">libexif/exif&#45;mem.h</text>
</a>
</g>
</g>
<!-- Node11&#45;&gt;Node12 -->
<g id="edge12" class="edge">
<title>Node11&#45;&gt;Node12</title>
<path fill="none" stroke="midnightblue" d="M747.33,-168.44C727.59,-159.64 696.61,-145.81 674.01,-135.72"/>
<polygon fill="midnightblue" stroke="midnightblue" points="675.14,-132.4 664.58,-131.52 672.29,-138.79 675.14,-132.4"/>
</g>
<!-- Node13 -->
<g id="node13" class="node">
<title>Node13</title>
<g id="a_node13"><a xlink:title=" ">
<polygon fill="white" stroke="#bfbfbf" points="754.5,-112.5 754.5,-131.5 810.5,-131.5 810.5,-112.5 754.5,-112.5"/>
<text text-anchor="middle" x="782.5" y="-119.5" font-family="Helvetica,sans-Serif" font-size="10.00">stdarg.h</text>
</a>
</g>
</g>
<!-- Node11&#45;&gt;Node13 -->
<g id="edge14" class="edge">
<title>Node11&#45;&gt;Node13</title>
<path fill="none" stroke="midnightblue" d="M769.14,-168.08C771.29,-160.85 774.38,-150.41 777.05,-141.4"/>
<polygon fill="midnightblue" stroke="midnightblue" points="780.42,-142.33 779.91,-131.75 773.71,-140.34 780.42,-142.33"/>
</g>
<!-- Node12&#45;&gt;Node6 -->
<g id="edge13" class="edge">
<title>Node12&#45;&gt;Node6</title>
<path fill="none" stroke="midnightblue" d="M645.67,-112.08C645.8,-105.01 645.98,-94.86 646.15,-85.99"/>
<polygon fill="midnightblue" stroke="midnightblue" points="649.65,-85.81 646.34,-75.75 642.65,-85.68 649.65,-85.81"/>
</g>
<!-- Node14&#45;&gt;Node5 -->
<g id="edge17" class="edge">
<title>Node14&#45;&gt;Node5</title>
<path fill="none" stroke="midnightblue" d="M787.7,-291.44C811.86,-256.29 867.11,-163.72 819.5,-112 784.16,-73.62 638.31,-87.85 587.5,-76 524.94,-61.41 453.86,-37.41 413.38,-23.02"/>
<polygon fill="midnightblue" stroke="midnightblue" points="414.37,-19.65 403.77,-19.57 412.01,-26.24 414.37,-19.65"/>
</g>
<!-- Node14&#45;&gt;Node10 -->
<g id="edge16" class="edge">
<title>Node14&#45;&gt;Node10</title>
<path fill="none" stroke="midnightblue" d="M767.52,-291.4C761.61,-283.05 754,-272.29 747.29,-262.81"/>
<polygon fill="midnightblue" stroke="midnightblue" points="750.1,-260.72 741.46,-254.58 744.38,-264.76 750.1,-260.72"/>
</g>
<!-- Node14&#45;&gt;Node11 -->
<g id="edge18" class="edge">
<title>Node14&#45;&gt;Node11</title>
<path fill="none" stroke="midnightblue" d="M783.93,-291.21C790.44,-274.82 798.72,-247.21 792.5,-224 789.85,-214.1 784.43,-204.13 779.23,-196.1"/>
<polygon fill="midnightblue" stroke="midnightblue" points="781.96,-193.91 773.39,-187.68 776.21,-197.89 781.96,-193.91"/>
</g>
<!-- Node15&#45;&gt;Node5 -->
<g id="edge20" class="edge">
<title>Node15&#45;&gt;Node5</title>
<path fill="none" stroke="midnightblue" d="M513.49,-301.85C474.92,-296.72 422.61,-284.42 386.5,-255 332.52,-211.02 304.56,-179.28 322.5,-112 331.14,-79.62 352.9,-46.83 367.18,-27.73"/>
<polygon fill="midnightblue" stroke="midnightblue" points="370,-29.81 373.31,-19.75 364.45,-25.54 370,-29.81"/>
</g>
<!-- Node15&#45;&gt;Node10 -->
<g id="edge36" class="edge">
<title>Node15&#45;&gt;Node10</title>
<path fill="none" stroke="midnightblue" d="M586.68,-296.87C611.84,-287.07 653.58,-270.83 685.79,-258.29"/>
<polygon fill="midnightblue" stroke="midnightblue" points="687.41,-261.42 695.46,-254.53 684.87,-254.89 687.41,-261.42"/>
</g>
<!-- Node15&#45;&gt;Node11 -->
<g id="edge23" class="edge">
<title>Node15&#45;&gt;Node11</title>
<path fill="none" stroke="midnightblue" d="M576.63,-296.68C590.3,-286.69 613.14,-269.87 632.5,-255 650.06,-241.51 652.7,-235.71 671.5,-224 691.95,-211.27 716.56,-199.7 735.62,-191.48"/>
<polygon fill="midnightblue" stroke="midnightblue" points="737.17,-194.62 745.02,-187.5 734.45,-188.18 737.17,-194.62"/>
</g>
<!-- Node15&#45;&gt;Node12 -->
<g id="edge37" class="edge">
<title>Node15&#45;&gt;Node12</title>
<path fill="none" stroke="midnightblue" d="M544.88,-296.92C528.86,-288.72 507.31,-274.68 497.5,-255 491.35,-242.67 491.33,-236.32 497.5,-224 520.25,-178.63 574.12,-150.06 610.2,-135.31"/>
<polygon fill="midnightblue" stroke="midnightblue" points="611.84,-138.43 619.86,-131.52 609.28,-131.92 611.84,-138.43"/>
</g>
<!-- Node16 -->
<g id="node16" class="node">
<title>Node16</title>
<g id="a_node16"><a xlink:href="exif-data-type_8h.html" target="_top" xlink:title=" ">
<polygon fill="white" stroke="black" points="442.5,-112.5 442.5,-131.5 570.5,-131.5 570.5,-112.5 442.5,-112.5"/>
<text text-anchor="middle" x="506.5" y="-119.5" font-family="Helvetica,sans-Serif" font-size="10.00">libexif/exif&#45;data&#45;type.h</text>
</a>
</g>
</g>
<!-- Node15&#45;&gt;Node16 -->
<g id="edge21" class="edge">
<title>Node15&#45;&gt;Node16</title>
<path fill="none" stroke="midnightblue" d="M534.14,-297C509.32,-289 474.25,-275.2 448.5,-255 419.06,-231.9 409.46,-223.46 397.5,-188 394.66,-179.58 392.56,-175.39 397.5,-168 408.41,-151.7 426.41,-141.3 444.68,-134.66"/>
<polygon fill="midnightblue" stroke="midnightblue" points="445.82,-137.97 454.22,-131.52 443.63,-131.32 445.82,-137.97"/>
</g>
<!-- Node17 -->
<g id="node17" class="node">
<title>Node17</title>
<g id="a_node17"><a xlink:href="exif-ifd_8h.html" target="_top" xlink:title=" ">
<polygon fill="white" stroke="black" points="331,-112.5 331,-131.5 424,-131.5 424,-112.5 331,-112.5"/>
<text text-anchor="middle" x="377.5" y="-119.5" font-family="Helvetica,sans-Serif" font-size="10.00">libexif/exif&#45;ifd.h</text>
</a>
</g>
</g>
<!-- Node15&#45;&gt;Node17 -->
<g id="edge22" class="edge">
<title>Node15&#45;&gt;Node17</title>
<path fill="none" stroke="midnightblue" d="M513.4,-300.87C479.91,-295.23 437.49,-282.72 410.5,-255 380.52,-224.21 376.49,-170.51 376.66,-142.02"/>
<polygon fill="midnightblue" stroke="midnightblue" points="380.16,-141.89 376.92,-131.81 373.17,-141.72 380.16,-141.89"/>
</g>
<!-- Node18 -->
<g id="node18" class="node">
<title>Node18</title>
<g id="a_node18"><a xlink:href="exif-tag_8h.html" target="_top" xlink:title="Handling EXIF tags.">
<polygon fill="white" stroke="black" points="406.5,-168.5 406.5,-187.5 502.5,-187.5 502.5,-168.5 406.5,-168.5"/>
<text text-anchor="middle" x="454.5" y="-175.5" font-family="Helvetica,sans-Serif" font-size="10.00">libexif/exif&#45;tag.h</text>
</a>
</g>
</g>
<!-- Node15&#45;&gt;Node18 -->
<g id="edge24" class="edge">
<title>Node15&#45;&gt;Node18</title>
<path fill="none" stroke="midnightblue" d="M528.83,-296.99C506.38,-289.7 478.83,-276.82 463.5,-255 451.83,-238.39 450.88,-214.55 452.02,-198.01"/>
<polygon fill="midnightblue" stroke="midnightblue" points="455.51,-198.21 453.03,-187.91 448.55,-197.51 455.51,-198.21"/>
</g>
<!-- Node19 -->
<g id="node19" class="node">
<title>Node19</title>
<g id="a_node19"><a xlink:href="exif-content_8h.html" target="_top" xlink:title="Handling EXIF IFDs.">
<polygon fill="white" stroke="black" points="506,-230 506,-249 623,-249 623,-230 506,-230"/>
<text text-anchor="middle" x="564.5" y="-237" font-family="Helvetica,sans-Serif" font-size="10.00">libexif/exif&#45;content.h</text>
</a>
</g>
</g>
<!-- Node15&#45;&gt;Node19 -->
<g id="edge27" class="edge">
<title>Node15&#45;&gt;Node19</title>
<path fill="none" stroke="midnightblue" d="M559.71,-296.73C557.7,-287.18 557.24,-271.62 558.32,-259.28"/>
<polygon fill="midnightblue" stroke="midnightblue" points="561.82,-259.52 559.74,-249.13 554.88,-258.54 561.82,-259.52"/>
</g>
<!-- Node18&#45;&gt;Node16 -->
<g id="edge26" class="edge">
<title>Node18&#45;&gt;Node16</title>
<path fill="none" stroke="midnightblue" d="M463.09,-168.08C470.66,-160.22 481.88,-148.57 491.01,-139.08"/>
<polygon fill="midnightblue" stroke="midnightblue" points="493.66,-141.38 498.07,-131.75 488.62,-136.53 493.66,-141.38"/>
</g>
<!-- Node18&#45;&gt;Node17 -->
<g id="edge25" class="edge">
<title>Node18&#45;&gt;Node17</title>
<path fill="none" stroke="midnightblue" d="M442.13,-168.32C430.34,-160.06 412.37,-147.45 398.36,-137.63"/>
<polygon fill="midnightblue" stroke="midnightblue" points="400.04,-134.53 389.84,-131.65 396.02,-140.26 400.04,-134.53"/>
</g>
<!-- Node19&#45;&gt;Node11 -->
<g id="edge34" class="edge">
<title>Node19&#45;&gt;Node11</title>
<path fill="none" stroke="midnightblue" d="M593.44,-229.98C628.77,-219.57 688.63,-201.94 727.86,-190.38"/>
<polygon fill="midnightblue" stroke="midnightblue" points="729.01,-193.69 737.61,-187.51 727.03,-186.98 729.01,-193.69"/>
</g>
<!-- Node19&#45;&gt;Node12 -->
<g id="edge35" class="edge">
<title>Node19&#45;&gt;Node12</title>
<path fill="none" stroke="midnightblue" d="M565.63,-229.96C567.82,-215.93 573.72,-187.58 587.5,-168 596.32,-155.46 609.67,-144.76 621.33,-136.95"/>
<polygon fill="midnightblue" stroke="midnightblue" points="623.26,-139.88 629.82,-131.56 619.5,-133.97 623.26,-139.88"/>
</g>
<!-- Node19&#45;&gt;Node15 -->
<g id="edge33" class="edge">
<title>Node19&#45;&gt;Node15</title>
<path fill="none" stroke="midnightblue" d="M569.26,-249.13C571.28,-258.62 571.76,-274.17 570.7,-286.54"/>
<polygon fill="midnightblue" stroke="midnightblue" points="567.19,-286.35 569.29,-296.73 574.13,-287.31 567.19,-286.35"/>
</g>
<!-- Node19&#45;&gt;Node18 -->
<g id="edge28" class="edge">
<title>Node19&#45;&gt;Node18</title>
<path fill="none" stroke="midnightblue" d="M548.74,-229.98C530.52,-220.12 500.33,-203.79 479.03,-192.27"/>
<polygon fill="midnightblue" stroke="midnightblue" points="480.69,-189.19 470.23,-187.51 477.36,-195.35 480.69,-189.19"/>
</g>
<!-- Node20 -->
<g id="node20" class="node">
<title>Node20</title>
<g id="a_node20"><a xlink:href="exif-entry_8h.html" target="_top" xlink:title="Handling EXIF entries.">
<polygon fill="white" stroke="black" points="596.5,-168.5 596.5,-187.5 700.5,-187.5 700.5,-168.5 596.5,-168.5"/>
<text text-anchor="middle" x="648.5" y="-175.5" font-family="Helvetica,sans-Serif" font-size="10.00">libexif/exif&#45;entry.h</text>
</a>
</g>
</g>
<!-- Node19&#45;&gt;Node20 -->
<g id="edge29" class="edge">
<title>Node19&#45;&gt;Node20</title>
<path fill="none" stroke="midnightblue" d="M571.63,-229.98C583.13,-220.34 605.16,-204.52 622.83,-193.05"/>
<polygon fill="midnightblue" stroke="midnightblue" points="625.01,-195.81 631.59,-187.51 621.27,-189.9 625.01,-195.81"/>
</g>
<!-- Node20&#45;&gt;Node7 -->
<g id="edge31" class="edge">
<title>Node20&#45;&gt;Node7</title>
<path fill="none" stroke="midnightblue" d="M664.44,-168.49C677.71,-160.65 696.21,-147.84 707.5,-132 730.11,-100.28 740.54,-54.97 744.85,-29.76"/>
<polygon fill="midnightblue" stroke="midnightblue" points="748.33,-30.13 746.42,-19.71 741.42,-29.05 748.33,-30.13"/>
</g>
<!-- Node20&#45;&gt;Node12 -->
<g id="edge32" class="edge">
<title>Node20&#45;&gt;Node12</title>
<path fill="none" stroke="midnightblue" d="M648,-168.08C647.61,-161.01 647.05,-150.86 646.55,-141.99"/>
<polygon fill="midnightblue" stroke="midnightblue" points="650.04,-141.54 645.99,-131.75 643.05,-141.93 650.04,-141.54"/>
</g>
<!-- Node20&#45;&gt;Node19 -->
<g id="edge30" class="edge">
<title>Node20&#45;&gt;Node19</title>
<path fill="none" stroke="midnightblue" d="M641.38,-187.51C629.9,-197.13 607.87,-212.96 590.2,-224.43"/>
<polygon fill="midnightblue" stroke="midnightblue" points="588.01,-221.67 581.44,-229.98 591.76,-227.59 588.01,-221.67"/>
</g>
<!-- Node21&#45;&gt;Node7 -->
<g id="edge39" class="edge">
<title>Node21&#45;&gt;Node7</title>
<path fill="none" stroke="midnightblue" d="M806.34,-425.34C836.58,-403.83 887.5,-359.82 887.5,-307.5 887.5,-307.5 887.5,-307.5 887.5,-121 887.5,-69.35 827.85,-38.26 786.42,-22.9"/>
<polygon fill="midnightblue" stroke="midnightblue" points="787.44,-19.54 776.85,-19.5 785.1,-26.14 787.44,-19.54"/>
</g>
<!-- Node21&#45;&gt;Node9 -->
<g id="edge42" class="edge">
<title>Node21&#45;&gt;Node9</title>
<path fill="none" stroke="midnightblue" d="M767.23,-455.52C752.55,-465.2 731.45,-477.99 714.42,-487.54"/>
<polygon fill="midnightblue" stroke="midnightblue" points="712.52,-484.59 705.44,-492.48 715.89,-490.73 712.52,-484.59"/>
</g>
<!-- Node22 -->
<g id="node22" class="node">
<title>Node22</title>
<g id="a_node22"><a xlink:href="mnote-fuji-tag_8h.html" target="_top" xlink:title=" ">
<polygon fill="white" stroke="black" points="734,-358.5 734,-388.5 835,-388.5 835,-358.5 734,-358.5"/>
<text text-anchor="start" x="742" y="-376.5" font-family="Helvetica,sans-Serif" font-size="10.00">libexif/fuji/mnote</text>
<text text-anchor="middle" x="784.5" y="-365.5" font-family="Helvetica,sans-Serif" font-size="10.00">&#45;fuji&#45;tag.h</text>
</a>
</g>
</g>
<!-- Node21&#45;&gt;Node22 -->
<g id="edge40" class="edge">
<title>Node21&#45;&gt;Node22</title>
<path fill="none" stroke="midnightblue" d="M784.5,-425.4C784.5,-417.64 784.5,-407.81 784.5,-398.86"/>
<polygon fill="midnightblue" stroke="midnightblue" points="788,-398.58 784.5,-388.58 781,-398.58 788,-398.58"/>
</g>
<!-- Node22&#45;&gt;Node15 -->
<g id="edge41" class="edge">
<title>Node22&#45;&gt;Node15</title>
<path fill="none" stroke="midnightblue" d="M737.03,-358.48C697.08,-346.67 640.66,-330 603.35,-318.98"/>
<polygon fill="midnightblue" stroke="midnightblue" points="603.95,-315.51 593.37,-316.03 601.96,-322.22 603.95,-315.51"/>
</g>
</g>
</svg>
