<?xml version="1.0" encoding="UTF-8" standalone="no"?>
<!DOCTYPE svg PUBLIC "-//W3C//DTD SVG 1.1//EN"
 "http://www.w3.org/Graphics/SVG/1.1/DTD/svg11.dtd">
<!-- Generated by graphviz version 2.44.1 (0)
 -->
<!-- Title: libexif/exif&#45;data.h Pages: 1 -->
<svg width="2882pt" height="296pt"
 viewBox="0.00 0.00 2881.50 296.00" xmlns="http://www.w3.org/2000/svg" xmlns:xlink="http://www.w3.org/1999/xlink">
<g id="graph0" class="graph" transform="scale(1 1) rotate(0) translate(4 292)">
<title>libexif/exif&#45;data.h</title>
<polygon fill="white" stroke="transparent" points="-4,4 -4,-292 2877.5,-292 2877.5,4 -4,4"/>
<!-- Node1 -->
<g id="node1" class="node">
<title>Node1</title>
<g id="a_node1"><a xlink:title="Defines the ExifData type and the associated functions.">
<polygon fill="#bfbfbf" stroke="black" points="1453.5,-268.5 1453.5,-287.5 1555.5,-287.5 1555.5,-268.5 1453.5,-268.5"/>
<text text-anchor="middle" x="1504.5" y="-275.5" font-family="Helvetica,sans-Serif" font-size="10.00">libexif/exif&#45;data.h</text>
</a>
</g>
</g>
<!-- Node2 -->
<g id="node2" class="node">
<title>Node2</title>
<g id="a_node2"><a xlink:href="exif-mnote-data-apple_8c.html" target="_top" xlink:title=" ">
<polygon fill="white" stroke="black" points="748.5,-134.5 748.5,-164.5 864.5,-164.5 864.5,-134.5 748.5,-134.5"/>
<text text-anchor="start" x="756.5" y="-152.5" font-family="Helvetica,sans-Serif" font-size="10.00">libexif/apple/exif</text>
<text text-anchor="middle" x="806.5" y="-141.5" font-family="Helvetica,sans-Serif" font-size="10.00">&#45;mnote&#45;data&#45;apple.c</text>
</a>
</g>
</g>
<!-- Node1&#45;&gt;Node2 -->
<g id="edge1" class="edge">
<title>Node1&#45;&gt;Node2</title>
<path fill="none" stroke="midnightblue" d="M1443.3,-277.03C1285.15,-276.54 871.98,-271.47 825.5,-232 806.01,-215.45 804.34,-183.13 805.2,-164.55"/>
<polygon fill="midnightblue" stroke="midnightblue" points="1443.33,-280.53 1453.34,-277.06 1443.35,-273.53 1443.33,-280.53"/>
</g>
<!-- Node3 -->
<g id="node3" class="node">
<title>Node3</title>
<g id="a_node3"><a xlink:href="exif-mnote-data-apple_8h.html" target="_top" xlink:title=" ">
<polygon fill="white" stroke="black" points="835,-201.5 835,-231.5 952,-231.5 952,-201.5 835,-201.5"/>
<text text-anchor="start" x="843" y="-219.5" font-family="Helvetica,sans-Serif" font-size="10.00">libexif/apple/exif</text>
<text text-anchor="middle" x="893.5" y="-208.5" font-family="Helvetica,sans-Serif" font-size="10.00">&#45;mnote&#45;data&#45;apple.h</text>
</a>
</g>
</g>
<!-- Node1&#45;&gt;Node3 -->
<g id="edge2" class="edge">
<title>Node1&#45;&gt;Node3</title>
<path fill="none" stroke="midnightblue" d="M1443.17,-271.03C1325.25,-259.54 1068.33,-234.53 952.37,-223.23"/>
<polygon fill="midnightblue" stroke="midnightblue" points="1443.17,-274.54 1453.46,-272.03 1443.84,-267.58 1443.17,-274.54"/>
</g>
<!-- Node4 -->
<g id="node4" class="node">
<title>Node4</title>
<g id="a_node4"><a xlink:href="exif-data_8c.html" target="_top" xlink:title=" ">
<polygon fill="white" stroke="black" points="1485,-6 1485,-25 1586,-25 1586,-6 1485,-6"/>
<text text-anchor="middle" x="1535.5" y="-13" font-family="Helvetica,sans-Serif" font-size="10.00">libexif/exif&#45;data.c</text>
</a>
</g>
</g>
<!-- Node1&#45;&gt;Node4 -->
<g id="edge24" class="edge">
<title>Node1&#45;&gt;Node4</title>
<path fill="none" stroke="midnightblue" d="M1565.93,-277.02C1703.35,-276.37 2031.58,-270.66 2134.5,-232 2155.89,-223.97 2155.06,-211.2 2175.5,-201 2227.61,-175 2266.43,-211.5 2301.5,-165 2390.57,-46.92 1770.3,-22.23 1586.05,-17.53"/>
<polygon fill="midnightblue" stroke="midnightblue" points="1565.57,-273.52 1555.59,-277.06 1565.6,-280.52 1565.57,-273.52"/>
</g>
<!-- Node5 -->
<g id="node5" class="node">
<title>Node5</title>
<g id="a_node5"><a xlink:href="exif-mnote-data-canon_8c.html" target="_top" xlink:title=" ">
<polygon fill="white" stroke="black" points="0,-0.5 0,-30.5 119,-30.5 119,-0.5 0,-0.5"/>
<text text-anchor="start" x="8" y="-18.5" font-family="Helvetica,sans-Serif" font-size="10.00">libexif/canon/exif</text>
<text text-anchor="middle" x="59.5" y="-7.5" font-family="Helvetica,sans-Serif" font-size="10.00">&#45;mnote&#45;data&#45;canon.c</text>
</a>
</g>
</g>
<!-- Node1&#45;&gt;Node5 -->
<g id="edge5" class="edge">
<title>Node1&#45;&gt;Node5</title>
<path fill="none" stroke="midnightblue" d="M1443.14,-276.93C1203.44,-276.36 337.65,-271.58 221.5,-232 124.72,-199.02 81.22,-188.95 34.5,-98 23.07,-75.75 37.63,-47.36 48.84,-30.63"/>
<polygon fill="midnightblue" stroke="midnightblue" points="1443.41,-280.43 1453.42,-276.95 1443.42,-273.43 1443.41,-280.43"/>
</g>
<!-- Node6 -->
<g id="node6" class="node">
<title>Node6</title>
<g id="a_node6"><a xlink:href="exif-mnote-data-canon_8h.html" target="_top" xlink:title=" ">
<polygon fill="white" stroke="black" points="44,-67.5 44,-97.5 163,-97.5 163,-67.5 44,-67.5"/>
<text text-anchor="start" x="52" y="-85.5" font-family="Helvetica,sans-Serif" font-size="10.00">libexif/canon/exif</text>
<text text-anchor="middle" x="103.5" y="-74.5" font-family="Helvetica,sans-Serif" font-size="10.00">&#45;mnote&#45;data&#45;canon.h</text>
</a>
</g>
</g>
<!-- Node1&#45;&gt;Node6 -->
<g id="edge6" class="edge">
<title>Node1&#45;&gt;Node6</title>
<path fill="none" stroke="midnightblue" d="M1443.33,-276.19C1214.82,-272.98 418.73,-259.87 308.5,-232 243.17,-215.48 225.61,-206.47 172.5,-165 147.37,-145.37 124.86,-115.33 112.79,-97.73"/>
<polygon fill="midnightblue" stroke="midnightblue" points="1443.41,-279.7 1453.46,-276.34 1443.5,-272.7 1443.41,-279.7"/>
</g>
<!-- Node7 -->
<g id="node7" class="node">
<title>Node7</title>
<g id="a_node7"><a xlink:href="mnote-canon-tag_8h.html" target="_top" xlink:title=" ">
<polygon fill="white" stroke="black" points="317.5,-201.5 317.5,-231.5 431.5,-231.5 431.5,-201.5 317.5,-201.5"/>
<text text-anchor="start" x="325.5" y="-219.5" font-family="Helvetica,sans-Serif" font-size="10.00">libexif/canon/mnote</text>
<text text-anchor="middle" x="374.5" y="-208.5" font-family="Helvetica,sans-Serif" font-size="10.00">&#45;canon&#45;tag.h</text>
</a>
</g>
</g>
<!-- Node1&#45;&gt;Node7 -->
<g id="edge9" class="edge">
<title>Node1&#45;&gt;Node7</title>
<path fill="none" stroke="midnightblue" d="M1443.08,-274.62C1293.33,-268.71 897.49,-252.32 567.5,-232 521.89,-229.19 470.27,-225.28 431.9,-222.22"/>
<polygon fill="midnightblue" stroke="midnightblue" points="1443.3,-278.14 1453.43,-275.03 1443.58,-271.14 1443.3,-278.14"/>
</g>
<!-- Node11 -->
<g id="node11" class="node">
<title>Node11</title>
<g id="a_node11"><a xlink:href="exif-content_8h.html" target="_top" xlink:title="Handling EXIF IFDs.">
<polygon fill="white" stroke="black" points="577,-207 577,-226 694,-226 694,-207 577,-207"/>
<text text-anchor="middle" x="635.5" y="-214" font-family="Helvetica,sans-Serif" font-size="10.00">libexif/exif&#45;content.h</text>
</a>
</g>
</g>
<!-- Node1&#45;&gt;Node11 -->
<g id="edge14" class="edge">
<title>Node1&#45;&gt;Node11</title>
<path fill="none" stroke="midnightblue" d="M1443.17,-276.51C1308.04,-274.78 975.18,-267 699.5,-232 687.96,-230.54 675.52,-228.31 664.62,-226.04"/>
<polygon fill="midnightblue" stroke="midnightblue" points="1443.29,-280.01 1453.33,-276.63 1443.37,-273.01 1443.29,-280.01"/>
</g>
<!-- Node18 -->
<g id="node18" class="node">
<title>Node18</title>
<g id="a_node18"><a xlink:href="test-null_8c.html" target="_top" xlink:title="Pass NULL values into libexif APIs and ensure it doesn&#39;t crash.">
<polygon fill="white" stroke="black" points="849,-73 849,-92 936,-92 936,-73 849,-73"/>
<text text-anchor="middle" x="892.5" y="-80" font-family="Helvetica,sans-Serif" font-size="10.00">test/test&#45;null.c</text>
</a>
</g>
</g>
<!-- Node1&#45;&gt;Node18 -->
<g id="edge54" class="edge">
<title>Node1&#45;&gt;Node18</title>
<path fill="none" stroke="midnightblue" d="M1443.29,-275.58C1283.4,-271.51 861.67,-258.39 804.5,-232 757.04,-210.1 708.88,-176.35 739.5,-134 743.26,-128.8 820.24,-105.11 863.54,-92.11"/>
<polygon fill="midnightblue" stroke="midnightblue" points="1443.35,-279.08 1453.43,-275.83 1443.52,-272.08 1443.35,-279.08"/>
</g>
<!-- Node19 -->
<g id="node19" class="node">
<title>Node19</title>
<g id="a_node19"><a xlink:href="exif-loader_8h.html" target="_top" xlink:title="Defines the ExifLoader type.">
<polygon fill="white" stroke="black" points="1211,-207 1211,-226 1322,-226 1322,-207 1211,-207"/>
<text text-anchor="middle" x="1266.5" y="-214" font-family="Helvetica,sans-Serif" font-size="10.00">libexif/exif&#45;loader.h</text>
</a>
</g>
</g>
<!-- Node1&#45;&gt;Node19 -->
<g id="edge25" class="edge">
<title>Node1&#45;&gt;Node19</title>
<path fill="none" stroke="midnightblue" d="M1460.66,-266.04C1414.46,-254.49 1342.66,-236.54 1300.54,-226.01"/>
<polygon fill="midnightblue" stroke="midnightblue" points="1459.85,-269.45 1470.4,-268.48 1461.55,-262.65 1459.85,-269.45"/>
</g>
<!-- Node21 -->
<g id="node21" class="node">
<title>Node21</title>
<g id="a_node21"><a xlink:href="test-fuzzer-persistent_8c.html" target="_top" xlink:title=" ">
<polygon fill="white" stroke="black" points="921,-140 921,-159 1072,-159 1072,-140 921,-140"/>
<text text-anchor="middle" x="996.5" y="-147" font-family="Helvetica,sans-Serif" font-size="10.00">test/test&#45;fuzzer&#45;persistent.c</text>
</a>
</g>
</g>
<!-- Node1&#45;&gt;Node21 -->
<g id="edge49" class="edge">
<title>Node1&#45;&gt;Node21</title>
<path fill="none" stroke="midnightblue" d="M1443.39,-272.1C1381.59,-266.18 1283.71,-254.13 1201.5,-232 1129.75,-212.69 1049.02,-175.84 1014.12,-159.13"/>
<polygon fill="midnightblue" stroke="midnightblue" points="1443.09,-275.59 1453.37,-273.03 1443.74,-268.62 1443.09,-275.59"/>
</g>
<!-- Node22 -->
<g id="node22" class="node">
<title>Node22</title>
<g id="a_node22"><a xlink:href="test-fuzzer_8c.html" target="_top" xlink:title=" ">
<polygon fill="white" stroke="black" points="1295,-140 1295,-159 1394,-159 1394,-140 1295,-140"/>
<text text-anchor="middle" x="1344.5" y="-147" font-family="Helvetica,sans-Serif" font-size="10.00">test/test&#45;fuzzer.c</text>
</a>
</g>
</g>
<!-- Node1&#45;&gt;Node22 -->
<g id="edge50" class="edge">
<title>Node1&#45;&gt;Node22</title>
<path fill="none" stroke="midnightblue" d="M1485.35,-261.86C1451.59,-235.17 1382.49,-180.53 1355.57,-159.26"/>
<polygon fill="midnightblue" stroke="midnightblue" points="1483.49,-264.85 1493.5,-268.31 1487.83,-259.36 1483.49,-264.85"/>
</g>
<!-- Node23 -->
<g id="node23" class="node">
<title>Node23</title>
<g id="a_node23"><a xlink:href="test-mem_8c.html" target="_top" xlink:title=" ">
<polygon fill="white" stroke="black" points="1412,-140 1412,-159 1507,-159 1507,-140 1412,-140"/>
<text text-anchor="middle" x="1459.5" y="-147" font-family="Helvetica,sans-Serif" font-size="10.00">test/test&#45;mem.c</text>
</a>
</g>
</g>
<!-- Node1&#45;&gt;Node23 -->
<g id="edge52" class="edge">
<title>Node1&#45;&gt;Node23</title>
<path fill="none" stroke="midnightblue" d="M1493,-259.87C1487.95,-251.71 1482.31,-241.65 1478.5,-232 1468.46,-206.6 1462.92,-174.55 1460.68,-159.32"/>
<polygon fill="midnightblue" stroke="midnightblue" points="1490.15,-261.91 1498.51,-268.43 1496.04,-258.12 1490.15,-261.91"/>
</g>
<!-- Node24 -->
<g id="node24" class="node">
<title>Node24</title>
<g id="a_node24"><a xlink:href="exif-mnote-data-fuji_8h.html" target="_top" xlink:title=" ">
<polygon fill="white" stroke="black" points="1698.5,-201.5 1698.5,-231.5 1820.5,-231.5 1820.5,-201.5 1698.5,-201.5"/>
<text text-anchor="start" x="1706.5" y="-219.5" font-family="Helvetica,sans-Serif" font-size="10.00">libexif/fuji/exif&#45;mnote</text>
<text text-anchor="middle" x="1759.5" y="-208.5" font-family="Helvetica,sans-Serif" font-size="10.00">&#45;data&#45;fuji.h</text>
</a>
</g>
</g>
<!-- Node1&#45;&gt;Node24 -->
<g id="edge32" class="edge">
<title>Node1&#45;&gt;Node24</title>
<path fill="none" stroke="midnightblue" d="M1550.92,-266.17C1592.59,-256.45 1654,-242.12 1699.4,-231.52"/>
<polygon fill="midnightblue" stroke="midnightblue" points="1549.98,-262.79 1541.04,-268.48 1551.57,-269.61 1549.98,-262.79"/>
</g>
<!-- Node28 -->
<g id="node28" class="node">
<title>Node28</title>
<g id="a_node28"><a xlink:href="mnote-fuji-tag_8h.html" target="_top" xlink:title=" ">
<polygon fill="white" stroke="black" points="1839,-201.5 1839,-231.5 1940,-231.5 1940,-201.5 1839,-201.5"/>
<text text-anchor="start" x="1847" y="-219.5" font-family="Helvetica,sans-Serif" font-size="10.00">libexif/fuji/mnote</text>
<text text-anchor="middle" x="1889.5" y="-208.5" font-family="Helvetica,sans-Serif" font-size="10.00">&#45;fuji&#45;tag.h</text>
</a>
</g>
</g>
<!-- Node1&#45;&gt;Node28 -->
<g id="edge38" class="edge">
<title>Node1&#45;&gt;Node28</title>
<path fill="none" stroke="midnightblue" d="M1565.86,-270.35C1631.43,-262.81 1738.26,-249.3 1829.5,-232 1832.55,-231.42 1835.68,-230.79 1838.84,-230.12"/>
<polygon fill="midnightblue" stroke="midnightblue" points="1565.24,-266.9 1555.7,-271.51 1566.03,-273.85 1565.24,-266.9"/>
</g>
<!-- Node30 -->
<g id="node30" class="node">
<title>Node30</title>
<g id="a_node30"><a xlink:href="exif-mnote-data-olympus_8c.html" target="_top" xlink:title=" ">
<polygon fill="white" stroke="black" points="2161,-134.5 2161,-164.5 2292,-164.5 2292,-134.5 2161,-134.5"/>
<text text-anchor="start" x="2169" y="-152.5" font-family="Helvetica,sans-Serif" font-size="10.00">libexif/olympus/exif</text>
<text text-anchor="middle" x="2226.5" y="-141.5" font-family="Helvetica,sans-Serif" font-size="10.00">&#45;mnote&#45;data&#45;olympus.c</text>
</a>
</g>
</g>
<!-- Node1&#45;&gt;Node30 -->
<g id="edge41" class="edge">
<title>Node1&#45;&gt;Node30</title>
<path fill="none" stroke="midnightblue" d="M1566.21,-276.55C1698.01,-274.9 2002.86,-267.28 2099.5,-232 2121.63,-223.92 2122.83,-213.97 2142.5,-201 2162.1,-188.07 2184.98,-174.41 2201.91,-164.56"/>
<polygon fill="midnightblue" stroke="midnightblue" points="1565.85,-273.05 1555.89,-276.67 1565.93,-280.05 1565.85,-273.05"/>
</g>
<!-- Node31 -->
<g id="node31" class="node">
<title>Node31</title>
<g id="a_node31"><a xlink:href="exif-mnote-data-olympus_8h.html" target="_top" xlink:title=" ">
<polygon fill="white" stroke="black" points="1958.5,-201.5 1958.5,-231.5 2090.5,-231.5 2090.5,-201.5 1958.5,-201.5"/>
<text text-anchor="start" x="1966.5" y="-219.5" font-family="Helvetica,sans-Serif" font-size="10.00">libexif/olympus/exif</text>
<text text-anchor="middle" x="2024.5" y="-208.5" font-family="Helvetica,sans-Serif" font-size="10.00">&#45;mnote&#45;data&#45;olympus.h</text>
</a>
</g>
</g>
<!-- Node1&#45;&gt;Node31 -->
<g id="edge42" class="edge">
<title>Node1&#45;&gt;Node31</title>
<path fill="none" stroke="midnightblue" d="M1565.85,-272.56C1651.88,-265.93 1813.11,-252.04 1949.5,-232 1952.39,-231.58 1955.33,-231.12 1958.3,-230.63"/>
<polygon fill="midnightblue" stroke="midnightblue" points="1565.44,-269.08 1555.74,-273.33 1565.98,-276.06 1565.44,-269.08"/>
</g>
<!-- Node32 -->
<g id="node32" class="node">
<title>Node32</title>
<g id="a_node32"><a xlink:href="exif-mnote-data-pentax_8h.html" target="_top" xlink:title=" ">
<polygon fill="white" stroke="black" points="1487.5,-201.5 1487.5,-231.5 1611.5,-231.5 1611.5,-201.5 1487.5,-201.5"/>
<text text-anchor="start" x="1495.5" y="-219.5" font-family="Helvetica,sans-Serif" font-size="10.00">libexif/pentax/exif</text>
<text text-anchor="middle" x="1549.5" y="-208.5" font-family="Helvetica,sans-Serif" font-size="10.00">&#45;mnote&#45;data&#45;pentax.h</text>
</a>
</g>
</g>
<!-- Node1&#45;&gt;Node32 -->
<g id="edge45" class="edge">
<title>Node1&#45;&gt;Node32</title>
<path fill="none" stroke="midnightblue" d="M1517.17,-260.25C1524.02,-251.19 1532.39,-240.12 1538.89,-231.52"/>
<polygon fill="midnightblue" stroke="midnightblue" points="1514.19,-258.39 1510.95,-268.48 1519.77,-262.61 1514.19,-258.39"/>
</g>
<!-- Node34 -->
<g id="node34" class="node">
<title>Node34</title>
<g id="a_node34"><a xlink:href="test-extract_8c.html" target="_top" xlink:title="Extract EXIF data from a file and write it to another file.">
<polygon fill="white" stroke="black" points="2184.5,-207 2184.5,-226 2288.5,-226 2288.5,-207 2184.5,-207"/>
<text text-anchor="middle" x="2236.5" y="-214" font-family="Helvetica,sans-Serif" font-size="10.00">test/test&#45;extract.c</text>
</a>
</g>
</g>
<!-- Node1&#45;&gt;Node34 -->
<g id="edge48" class="edge">
<title>Node1&#45;&gt;Node34</title>
<path fill="none" stroke="midnightblue" d="M1566,-275.9C1683.85,-273.11 1949.44,-263.57 2170.5,-232 2180.95,-230.51 2192.21,-228.27 2202.42,-226"/>
<polygon fill="midnightblue" stroke="midnightblue" points="1565.66,-272.4 1555.74,-276.13 1565.82,-279.4 1565.66,-272.4"/>
</g>
<!-- Node35 -->
<g id="node35" class="node">
<title>Node35</title>
<g id="a_node35"><a xlink:href="test-gps_8c.html" target="_top" xlink:title=" ">
<polygon fill="white" stroke="black" points="2306.5,-207 2306.5,-226 2392.5,-226 2392.5,-207 2306.5,-207"/>
<text text-anchor="middle" x="2349.5" y="-214" font-family="Helvetica,sans-Serif" font-size="10.00">test/test&#45;gps.c</text>
</a>
</g>
</g>
<!-- Node1&#45;&gt;Node35 -->
<g id="edge51" class="edge">
<title>Node1&#45;&gt;Node35</title>
<path fill="none" stroke="midnightblue" d="M1565.73,-275.23C1726.32,-270.32 2156.9,-255.31 2297.5,-232 2305.91,-230.6 2314.92,-228.37 2323.03,-226.07"/>
<polygon fill="midnightblue" stroke="midnightblue" points="1565.44,-271.74 1555.55,-275.54 1565.65,-278.73 1565.44,-271.74"/>
</g>
<!-- Node36 -->
<g id="node36" class="node">
<title>Node36</title>
<g id="a_node36"><a xlink:href="test-mnote_8c.html" target="_top" xlink:title=" ">
<polygon fill="white" stroke="black" points="2411,-207 2411,-226 2512,-226 2512,-207 2411,-207"/>
<text text-anchor="middle" x="2461.5" y="-214" font-family="Helvetica,sans-Serif" font-size="10.00">test/test&#45;mnote.c</text>
</a>
</g>
</g>
<!-- Node1&#45;&gt;Node36 -->
<g id="edge53" class="edge">
<title>Node1&#45;&gt;Node36</title>
<path fill="none" stroke="midnightblue" d="M1565.73,-275.42C1740.52,-270.68 2239.6,-255.41 2401.5,-232 2411.15,-230.6 2421.52,-228.37 2430.88,-226.07"/>
<polygon fill="midnightblue" stroke="midnightblue" points="1565.58,-271.92 1555.68,-275.69 1565.77,-278.92 1565.58,-271.92"/>
</g>
<!-- Node37 -->
<g id="node37" class="node">
<title>Node37</title>
<g id="a_node37"><a xlink:href="test-parse-from-data_8c.html" target="_top" xlink:title="Completely parse all files given on the command line.">
<polygon fill="white" stroke="black" points="2530,-201.5 2530,-231.5 2645,-231.5 2645,-201.5 2530,-201.5"/>
<text text-anchor="start" x="2538" y="-219.5" font-family="Helvetica,sans-Serif" font-size="10.00">test/test&#45;parse&#45;from</text>
<text text-anchor="middle" x="2587.5" y="-208.5" font-family="Helvetica,sans-Serif" font-size="10.00">&#45;data.c</text>
</a>
</g>
</g>
<!-- Node1&#45;&gt;Node37 -->
<g id="edge55" class="edge">
<title>Node1&#45;&gt;Node37</title>
<path fill="none" stroke="midnightblue" d="M1565.92,-275.67C1756.33,-271.32 2335.12,-256.41 2521.5,-232 2524.18,-231.65 2526.9,-231.25 2529.65,-230.8"/>
<polygon fill="midnightblue" stroke="midnightblue" points="1565.72,-272.17 1555.81,-275.9 1565.88,-279.17 1565.72,-272.17"/>
</g>
<!-- Node38 -->
<g id="node38" class="node">
<title>Node38</title>
<g id="a_node38"><a xlink:href="test-parse_8c.html" target="_top" xlink:title="Completely parse all files given on the command line.">
<polygon fill="white" stroke="black" points="2663.5,-207 2663.5,-226 2759.5,-226 2759.5,-207 2663.5,-207"/>
<text text-anchor="middle" x="2711.5" y="-214" font-family="Helvetica,sans-Serif" font-size="10.00">test/test&#45;parse.c</text>
</a>
</g>
</g>
<!-- Node1&#45;&gt;Node38 -->
<g id="edge56" class="edge">
<title>Node1&#45;&gt;Node38</title>
<path fill="none" stroke="midnightblue" d="M1565.78,-276.3C1772.25,-273.67 2441.45,-262.92 2654.5,-232 2663.8,-230.65 2673.77,-228.4 2682.74,-226.07"/>
<polygon fill="midnightblue" stroke="midnightblue" points="1565.68,-272.8 1555.72,-276.42 1565.77,-279.8 1565.68,-272.8"/>
</g>
<!-- Node39 -->
<g id="node39" class="node">
<title>Node39</title>
<g id="a_node39"><a xlink:href="test-value_8c.html" target="_top" xlink:title=" ">
<polygon fill="white" stroke="black" points="2777.5,-207 2777.5,-226 2873.5,-226 2873.5,-207 2777.5,-207"/>
<text text-anchor="middle" x="2825.5" y="-214" font-family="Helvetica,sans-Serif" font-size="10.00">test/test&#45;value.c</text>
</a>
</g>
</g>
<!-- Node1&#45;&gt;Node39 -->
<g id="edge57" class="edge">
<title>Node1&#45;&gt;Node39</title>
<path fill="none" stroke="midnightblue" d="M1565.86,-276.55C1785.52,-274.67 2532.2,-265.86 2768.5,-232 2777.9,-230.65 2787.99,-228.37 2797.03,-226.01"/>
<polygon fill="midnightblue" stroke="midnightblue" points="1565.77,-273.05 1555.8,-276.63 1565.83,-280.05 1565.77,-273.05"/>
</g>
<!-- Node3&#45;&gt;Node2 -->
<g id="edge3" class="edge">
<title>Node3&#45;&gt;Node2</title>
<path fill="none" stroke="midnightblue" d="M866.29,-195.17C852.98,-185.23 837.3,-173.51 825.34,-164.58"/>
<polygon fill="midnightblue" stroke="midnightblue" points="864.52,-198.21 874.62,-201.4 868.71,-192.61 864.52,-198.21"/>
</g>
<!-- Node3&#45;&gt;Node4 -->
<g id="edge4" class="edge">
<title>Node3&#45;&gt;Node4</title>
<path fill="none" stroke="midnightblue" d="M892.2,-191.3C892.61,-173.03 896.35,-148.68 911.5,-134 993.43,-54.59 1350.85,-26.78 1484.67,-19.04"/>
<polygon fill="midnightblue" stroke="midnightblue" points="888.7,-191.52 892.3,-201.49 895.7,-191.45 888.7,-191.52"/>
</g>
<!-- Node6&#45;&gt;Node4 -->
<g id="edge8" class="edge">
<title>Node6&#45;&gt;Node4</title>
<path fill="none" stroke="midnightblue" d="M173.39,-67.08C454.14,-34.59 1272.24,-20.43 1484.66,-17.23"/>
<polygon fill="midnightblue" stroke="midnightblue" points="172.75,-63.64 163.23,-68.3 173.58,-70.59 172.75,-63.64"/>
</g>
<!-- Node6&#45;&gt;Node5 -->
<g id="edge7" class="edge">
<title>Node6&#45;&gt;Node5</title>
<path fill="none" stroke="midnightblue" d="M88.18,-58.87C81.81,-49.46 74.62,-38.83 69.03,-30.58"/>
<polygon fill="midnightblue" stroke="midnightblue" points="85.45,-61.08 93.95,-67.4 91.25,-57.15 85.45,-61.08"/>
</g>
<!-- Node8 -->
<g id="node8" class="node">
<title>Node8</title>
<g id="a_node8"><a xlink:href="mnote-canon-entry_8h.html" target="_top" xlink:title=" ">
<polygon fill="white" stroke="black" points="181.5,-134.5 181.5,-164.5 295.5,-164.5 295.5,-134.5 181.5,-134.5"/>
<text text-anchor="start" x="189.5" y="-152.5" font-family="Helvetica,sans-Serif" font-size="10.00">libexif/canon/mnote</text>
<text text-anchor="middle" x="238.5" y="-141.5" font-family="Helvetica,sans-Serif" font-size="10.00">&#45;canon&#45;entry.h</text>
</a>
</g>
</g>
<!-- Node7&#45;&gt;Node8 -->
<g id="edge10" class="edge">
<title>Node7&#45;&gt;Node8</title>
<path fill="none" stroke="midnightblue" d="M335.78,-196.99C314.22,-186.69 287.81,-174.07 267.95,-164.58"/>
<polygon fill="midnightblue" stroke="midnightblue" points="334.46,-200.24 344.99,-201.4 337.48,-193.93 334.46,-200.24"/>
</g>
<!-- Node10 -->
<g id="node10" class="node">
<title>Node10</title>
<g id="a_node10"><a xlink:href="mnote-canon-tag_8c.html" target="_top" xlink:title=" ">
<polygon fill="white" stroke="black" points="317.5,-134.5 317.5,-164.5 431.5,-164.5 431.5,-134.5 317.5,-134.5"/>
<text text-anchor="start" x="325.5" y="-152.5" font-family="Helvetica,sans-Serif" font-size="10.00">libexif/canon/mnote</text>
<text text-anchor="middle" x="374.5" y="-141.5" font-family="Helvetica,sans-Serif" font-size="10.00">&#45;canon&#45;tag.c</text>
</a>
</g>
</g>
<!-- Node7&#45;&gt;Node10 -->
<g id="edge13" class="edge">
<title>Node7&#45;&gt;Node10</title>
<path fill="none" stroke="midnightblue" d="M374.5,-191.11C374.5,-182.15 374.5,-172.32 374.5,-164.58"/>
<polygon fill="midnightblue" stroke="midnightblue" points="371,-191.4 374.5,-201.4 378,-191.4 371,-191.4"/>
</g>
<!-- Node8&#45;&gt;Node6 -->
<g id="edge11" class="edge">
<title>Node8&#45;&gt;Node6</title>
<path fill="none" stroke="midnightblue" d="M200.06,-129.99C178.66,-119.69 152.45,-107.07 132.74,-97.58"/>
<polygon fill="midnightblue" stroke="midnightblue" points="198.68,-133.21 209.21,-134.4 201.72,-126.9 198.68,-133.21"/>
</g>
<!-- Node9 -->
<g id="node9" class="node">
<title>Node9</title>
<g id="a_node9"><a xlink:href="mnote-canon-entry_8c.html" target="_top" xlink:title=" ">
<polygon fill="white" stroke="black" points="181.5,-67.5 181.5,-97.5 295.5,-97.5 295.5,-67.5 181.5,-67.5"/>
<text text-anchor="start" x="189.5" y="-85.5" font-family="Helvetica,sans-Serif" font-size="10.00">libexif/canon/mnote</text>
<text text-anchor="middle" x="238.5" y="-74.5" font-family="Helvetica,sans-Serif" font-size="10.00">&#45;canon&#45;entry.c</text>
</a>
</g>
</g>
<!-- Node8&#45;&gt;Node9 -->
<g id="edge12" class="edge">
<title>Node8&#45;&gt;Node9</title>
<path fill="none" stroke="midnightblue" d="M238.5,-124.11C238.5,-115.15 238.5,-105.32 238.5,-97.58"/>
<polygon fill="midnightblue" stroke="midnightblue" points="235,-124.4 238.5,-134.4 242,-124.4 235,-124.4"/>
</g>
<!-- Node11&#45;&gt;Node1 -->
<g id="edge16" class="edge">
<title>Node11&#45;&gt;Node1</title>
<path fill="none" stroke="midnightblue" d="M691.83,-227.93C700.45,-229.5 709.21,-230.95 717.5,-232 993.84,-267.08 1327.63,-274.82 1453.39,-276.52"/>
<polygon fill="midnightblue" stroke="midnightblue" points="692.31,-224.45 681.83,-226.04 691.01,-231.33 692.31,-224.45"/>
</g>
<!-- Node12 -->
<g id="node12" class="node">
<title>Node12</title>
<g id="a_node12"><a xlink:href="exif-content_8c.html" target="_top" xlink:title=" ">
<polygon fill="white" stroke="black" points="451.5,-140 451.5,-159 567.5,-159 567.5,-140 451.5,-140"/>
<text text-anchor="middle" x="509.5" y="-147" font-family="Helvetica,sans-Serif" font-size="10.00">libexif/exif&#45;content.c</text>
</a>
</g>
</g>
<!-- Node11&#45;&gt;Node12 -->
<g id="edge15" class="edge">
<title>Node11&#45;&gt;Node12</title>
<path fill="none" stroke="midnightblue" d="M609.86,-202.27C584.91,-189.4 547.7,-170.21 526.3,-159.17"/>
<polygon fill="midnightblue" stroke="midnightblue" points="608.28,-205.39 618.77,-206.87 611.49,-199.17 608.28,-205.39"/>
</g>
<!-- Node13 -->
<g id="node13" class="node">
<title>Node13</title>
<g id="a_node13"><a xlink:href="exif-entry_8h.html" target="_top" xlink:title="Handling EXIF entries.">
<polygon fill="white" stroke="black" points="585.5,-140 585.5,-159 689.5,-159 689.5,-140 585.5,-140"/>
<text text-anchor="middle" x="637.5" y="-147" font-family="Helvetica,sans-Serif" font-size="10.00">libexif/exif&#45;entry.h</text>
</a>
</g>
</g>
<!-- Node11&#45;&gt;Node13 -->
<g id="edge17" class="edge">
<title>Node11&#45;&gt;Node13</title>
<path fill="none" stroke="midnightblue" d="M629.88,-196.54C629.2,-184.17 630.16,-168.62 632.48,-159.13"/>
<polygon fill="midnightblue" stroke="midnightblue" points="626.43,-197.17 630.98,-206.73 633.39,-196.42 626.43,-197.17"/>
</g>
<!-- Node13&#45;&gt;Node11 -->
<g id="edge19" class="edge">
<title>Node13&#45;&gt;Node11</title>
<path fill="none" stroke="midnightblue" d="M643.11,-169.28C643.81,-181.62 642.86,-197.18 640.56,-206.73"/>
<polygon fill="midnightblue" stroke="midnightblue" points="646.56,-168.69 641.99,-159.13 639.6,-169.45 646.56,-168.69"/>
</g>
<!-- Node14 -->
<g id="node14" class="node">
<title>Node14</title>
<g id="a_node14"><a xlink:href="mnote-apple-entry_8c.html" target="_top" xlink:title=" ">
<polygon fill="white" stroke="black" points="718.5,-67.5 718.5,-97.5 830.5,-97.5 830.5,-67.5 718.5,-67.5"/>
<text text-anchor="start" x="726.5" y="-85.5" font-family="Helvetica,sans-Serif" font-size="10.00">libexif/apple/mnote</text>
<text text-anchor="middle" x="774.5" y="-74.5" font-family="Helvetica,sans-Serif" font-size="10.00">&#45;apple&#45;entry.c</text>
</a>
</g>
</g>
<!-- Node13&#45;&gt;Node14 -->
<g id="edge18" class="edge">
<title>Node13&#45;&gt;Node14</title>
<path fill="none" stroke="midnightblue" d="M664.96,-135.47C688.12,-124.49 721.19,-108.79 744.93,-97.53"/>
<polygon fill="midnightblue" stroke="midnightblue" points="663.23,-132.42 655.69,-139.87 666.23,-138.74 663.23,-132.42"/>
</g>
<!-- Node15 -->
<g id="node15" class="node">
<title>Node15</title>
<g id="a_node15"><a xlink:href="exif-entry_8c.html" target="_top" xlink:title=" ">
<polygon fill="white" stroke="black" points="313.5,-73 313.5,-92 417.5,-92 417.5,-73 313.5,-73"/>
<text text-anchor="middle" x="365.5" y="-80" font-family="Helvetica,sans-Serif" font-size="10.00">libexif/exif&#45;entry.c</text>
</a>
</g>
</g>
<!-- Node13&#45;&gt;Node15 -->
<g id="edge20" class="edge">
<title>Node13&#45;&gt;Node15</title>
<path fill="none" stroke="midnightblue" d="M591.74,-137.56C538.11,-124.75 450.38,-103.78 401.42,-92.08"/>
<polygon fill="midnightblue" stroke="midnightblue" points="591.12,-141.02 601.66,-139.94 592.75,-134.21 591.12,-141.02"/>
</g>
<!-- Node16 -->
<g id="node16" class="node">
<title>Node16</title>
<g id="a_node16"><a xlink:href="mnote-olympus-entry_8c.html" target="_top" xlink:title=" ">
<polygon fill="white" stroke="black" points="436,-67.5 436,-97.5 563,-97.5 563,-67.5 436,-67.5"/>
<text text-anchor="start" x="444" y="-85.5" font-family="Helvetica,sans-Serif" font-size="10.00">libexif/olympus/mnote</text>
<text text-anchor="middle" x="499.5" y="-74.5" font-family="Helvetica,sans-Serif" font-size="10.00">&#45;olympus&#45;entry.c</text>
</a>
</g>
</g>
<!-- Node13&#45;&gt;Node16 -->
<g id="edge21" class="edge">
<title>Node13&#45;&gt;Node16</title>
<path fill="none" stroke="midnightblue" d="M609.84,-135.47C586.51,-124.49 553.19,-108.79 529.28,-97.53"/>
<polygon fill="midnightblue" stroke="midnightblue" points="608.64,-138.77 619.17,-139.87 611.62,-132.44 608.64,-138.77"/>
</g>
<!-- Node17 -->
<g id="node17" class="node">
<title>Node17</title>
<g id="a_node17"><a xlink:href="mnote-pentax-entry_8c.html" target="_top" xlink:title=" ">
<polygon fill="white" stroke="black" points="581,-67.5 581,-97.5 700,-97.5 700,-67.5 581,-67.5"/>
<text text-anchor="start" x="589" y="-85.5" font-family="Helvetica,sans-Serif" font-size="10.00">libexif/pentax/mnote</text>
<text text-anchor="middle" x="640.5" y="-74.5" font-family="Helvetica,sans-Serif" font-size="10.00">&#45;pentax&#45;entry.c</text>
</a>
</g>
</g>
<!-- Node13&#45;&gt;Node17 -->
<g id="edge22" class="edge">
<title>Node13&#45;&gt;Node17</title>
<path fill="none" stroke="midnightblue" d="M638.37,-129.74C638.84,-119.49 639.42,-107 639.85,-97.59"/>
<polygon fill="midnightblue" stroke="midnightblue" points="634.87,-129.58 637.9,-139.73 641.86,-129.91 634.87,-129.58"/>
</g>
<!-- Node13&#45;&gt;Node18 -->
<g id="edge23" class="edge">
<title>Node13&#45;&gt;Node18</title>
<path fill="none" stroke="midnightblue" d="M682.54,-137.54C723.52,-127.5 785.66,-112.09 839.5,-98 846.7,-96.12 854.43,-94.03 861.7,-92.05"/>
<polygon fill="midnightblue" stroke="midnightblue" points="681.47,-134.2 672.59,-139.98 683.14,-141 681.47,-134.2"/>
</g>
<!-- Node19&#45;&gt;Node4 -->
<g id="edge26" class="edge">
<title>Node19&#45;&gt;Node4</title>
<path fill="none" stroke="midnightblue" d="M1266.37,-196.74C1267.2,-178.79 1271.04,-151.87 1285.5,-134 1337.83,-69.31 1434.06,-38.34 1490.65,-25.09"/>
<polygon fill="midnightblue" stroke="midnightblue" points="1262.87,-196.77 1266.18,-206.83 1269.87,-196.9 1262.87,-196.77"/>
</g>
<!-- Node19&#45;&gt;Node18 -->
<g id="edge31" class="edge">
<title>Node19&#45;&gt;Node18</title>
<path fill="none" stroke="midnightblue" d="M1221.17,-204.26C1191.23,-195.81 1151.71,-182.65 1119.5,-165 1100.08,-154.36 1100.27,-143.97 1080.5,-134 1034.03,-110.57 975.43,-97.05 936.12,-90"/>
<polygon fill="midnightblue" stroke="midnightblue" points="1220.37,-207.67 1230.94,-206.95 1222.22,-200.92 1220.37,-207.67"/>
</g>
<!-- Node20 -->
<g id="node20" class="node">
<title>Node20</title>
<g id="a_node20"><a xlink:href="exif-loader_8c.html" target="_top" xlink:title=" ">
<polygon fill="white" stroke="black" points="1128.5,-140 1128.5,-159 1238.5,-159 1238.5,-140 1128.5,-140"/>
<text text-anchor="middle" x="1183.5" y="-147" font-family="Helvetica,sans-Serif" font-size="10.00">libexif/exif&#45;loader.c</text>
</a>
</g>
</g>
<!-- Node19&#45;&gt;Node20 -->
<g id="edge27" class="edge">
<title>Node19&#45;&gt;Node20</title>
<path fill="none" stroke="midnightblue" d="M1247.43,-200.57C1231.05,-187.74 1208,-169.69 1194.52,-159.13"/>
<polygon fill="midnightblue" stroke="midnightblue" points="1245.28,-203.32 1255.31,-206.73 1249.59,-197.81 1245.28,-203.32"/>
</g>
<!-- Node19&#45;&gt;Node21 -->
<g id="edge28" class="edge">
<title>Node19&#45;&gt;Node21</title>
<path fill="none" stroke="midnightblue" d="M1221.07,-204.56C1167.85,-191.75 1080.76,-170.78 1032.15,-159.08"/>
<polygon fill="midnightblue" stroke="midnightblue" points="1220.38,-208 1230.92,-206.94 1222.02,-201.19 1220.38,-208"/>
</g>
<!-- Node19&#45;&gt;Node22 -->
<g id="edge29" class="edge">
<title>Node19&#45;&gt;Node22</title>
<path fill="none" stroke="midnightblue" d="M1284.84,-200.21C1300.21,-187.41 1321.59,-169.59 1334.15,-159.13"/>
<polygon fill="midnightblue" stroke="midnightblue" points="1282.46,-197.64 1277.02,-206.73 1286.94,-203.02 1282.46,-197.64"/>
</g>
<!-- Node19&#45;&gt;Node23 -->
<g id="edge30" class="edge">
<title>Node19&#45;&gt;Node23</title>
<path fill="none" stroke="midnightblue" d="M1301.83,-203.6C1340.1,-190.71 1400.2,-170.47 1434.07,-159.06"/>
<polygon fill="midnightblue" stroke="midnightblue" points="1300.49,-200.36 1292.13,-206.87 1302.72,-206.99 1300.49,-200.36"/>
</g>
<!-- Node24&#45;&gt;Node4 -->
<g id="edge33" class="edge">
<title>Node24&#45;&gt;Node4</title>
<path fill="none" stroke="midnightblue" d="M1744.66,-192.94C1732.77,-175.75 1715.06,-152.05 1696.5,-134 1647.88,-86.71 1579.34,-42.96 1549.87,-25.04"/>
<polygon fill="midnightblue" stroke="midnightblue" points="1741.81,-194.96 1750.33,-201.26 1747.6,-191.03 1741.81,-194.96"/>
</g>
<!-- Node25 -->
<g id="node25" class="node">
<title>Node25</title>
<g id="a_node25"><a xlink:href="exif-mnote-data-fuji_8c.html" target="_top" xlink:title=" ">
<polygon fill="white" stroke="black" points="1743.5,-134.5 1743.5,-164.5 1865.5,-164.5 1865.5,-134.5 1743.5,-134.5"/>
<text text-anchor="start" x="1751.5" y="-152.5" font-family="Helvetica,sans-Serif" font-size="10.00">libexif/fuji/exif&#45;mnote</text>
<text text-anchor="middle" x="1804.5" y="-141.5" font-family="Helvetica,sans-Serif" font-size="10.00">&#45;data&#45;fuji.c</text>
</a>
</g>
</g>
<!-- Node24&#45;&gt;Node25 -->
<g id="edge34" class="edge">
<title>Node24&#45;&gt;Node25</title>
<path fill="none" stroke="midnightblue" d="M1774.97,-193.16C1781.53,-183.68 1788.98,-172.92 1794.75,-164.58"/>
<polygon fill="midnightblue" stroke="midnightblue" points="1772.08,-191.18 1769.26,-201.4 1777.83,-195.17 1772.08,-191.18"/>
</g>
<!-- Node26 -->
<g id="node26" class="node">
<title>Node26</title>
<g id="a_node26"><a xlink:href="mnote-fuji-entry_8h.html" target="_top" xlink:title=" ">
<polygon fill="white" stroke="black" points="1884,-134.5 1884,-164.5 1985,-164.5 1985,-134.5 1884,-134.5"/>
<text text-anchor="start" x="1892" y="-152.5" font-family="Helvetica,sans-Serif" font-size="10.00">libexif/fuji/mnote</text>
<text text-anchor="middle" x="1934.5" y="-141.5" font-family="Helvetica,sans-Serif" font-size="10.00">&#45;fuji&#45;entry.h</text>
</a>
</g>
</g>
<!-- Node24&#45;&gt;Node26 -->
<g id="edge35" class="edge">
<title>Node24&#45;&gt;Node26</title>
<path fill="none" stroke="midnightblue" d="M1801.38,-197.68C1828.45,-187.26 1863.52,-174.28 1890.93,-164.58"/>
<polygon fill="midnightblue" stroke="midnightblue" points="1799.85,-194.52 1791.79,-201.4 1802.38,-201.05 1799.85,-194.52"/>
</g>
<!-- Node26&#45;&gt;Node24 -->
<g id="edge36" class="edge">
<title>Node26&#45;&gt;Node24</title>
<path fill="none" stroke="midnightblue" d="M1892.7,-168.29C1865.64,-178.71 1830.57,-191.69 1803.15,-201.4"/>
<polygon fill="midnightblue" stroke="midnightblue" points="1894.22,-171.45 1902.28,-164.58 1891.69,-164.93 1894.22,-171.45"/>
</g>
<!-- Node27 -->
<g id="node27" class="node">
<title>Node27</title>
<g id="a_node27"><a xlink:href="mnote-fuji-entry_8c.html" target="_top" xlink:title=" ">
<polygon fill="white" stroke="black" points="1884,-67.5 1884,-97.5 1985,-97.5 1985,-67.5 1884,-67.5"/>
<text text-anchor="start" x="1892" y="-85.5" font-family="Helvetica,sans-Serif" font-size="10.00">libexif/fuji/mnote</text>
<text text-anchor="middle" x="1934.5" y="-74.5" font-family="Helvetica,sans-Serif" font-size="10.00">&#45;fuji&#45;entry.c</text>
</a>
</g>
</g>
<!-- Node26&#45;&gt;Node27 -->
<g id="edge37" class="edge">
<title>Node26&#45;&gt;Node27</title>
<path fill="none" stroke="midnightblue" d="M1934.5,-124.11C1934.5,-115.15 1934.5,-105.32 1934.5,-97.58"/>
<polygon fill="midnightblue" stroke="midnightblue" points="1931,-124.4 1934.5,-134.4 1938,-124.4 1931,-124.4"/>
</g>
<!-- Node28&#45;&gt;Node26 -->
<g id="edge39" class="edge">
<title>Node28&#45;&gt;Node26</title>
<path fill="none" stroke="midnightblue" d="M1904.97,-193.16C1911.53,-183.68 1918.98,-172.92 1924.75,-164.58"/>
<polygon fill="midnightblue" stroke="midnightblue" points="1902.08,-191.18 1899.26,-201.4 1907.83,-195.17 1902.08,-191.18"/>
</g>
<!-- Node29 -->
<g id="node29" class="node">
<title>Node29</title>
<g id="a_node29"><a xlink:href="mnote-fuji-tag_8c.html" target="_top" xlink:title=" ">
<polygon fill="white" stroke="black" points="2003,-134.5 2003,-164.5 2104,-164.5 2104,-134.5 2003,-134.5"/>
<text text-anchor="start" x="2011" y="-152.5" font-family="Helvetica,sans-Serif" font-size="10.00">libexif/fuji/mnote</text>
<text text-anchor="middle" x="2053.5" y="-141.5" font-family="Helvetica,sans-Serif" font-size="10.00">&#45;fuji&#45;tag.c</text>
</a>
</g>
</g>
<!-- Node28&#45;&gt;Node29 -->
<g id="edge40" class="edge">
<title>Node28&#45;&gt;Node29</title>
<path fill="none" stroke="midnightblue" d="M1934.46,-197.68C1960.76,-187.26 1993.5,-174.28 2017.98,-164.58"/>
<polygon fill="midnightblue" stroke="midnightblue" points="1933.09,-194.46 1925.09,-201.4 1935.67,-200.97 1933.09,-194.46"/>
</g>
<!-- Node31&#45;&gt;Node4 -->
<g id="edge43" class="edge">
<title>Node31&#45;&gt;Node4</title>
<path fill="none" stroke="midnightblue" d="M2077.98,-196.82C2092,-189.21 2105.43,-178.85 2113.5,-165 2120.43,-153.09 2120.45,-145.89 2113.5,-134 2082.87,-81.6 2052.28,-85.58 1994.5,-67 1851.59,-21.04 1672.17,-15.29 1586.11,-15.53"/>
<polygon fill="midnightblue" stroke="midnightblue" points="2076.11,-193.84 2068.73,-201.44 2079.24,-200.1 2076.11,-193.84"/>
</g>
<!-- Node31&#45;&gt;Node30 -->
<g id="edge44" class="edge">
<title>Node31&#45;&gt;Node30</title>
<path fill="none" stroke="midnightblue" d="M2078.18,-198.23C2110.85,-187.71 2152.07,-174.45 2182.75,-164.58"/>
<polygon fill="midnightblue" stroke="midnightblue" points="2076.78,-195 2068.33,-201.4 2078.92,-201.66 2076.78,-195"/>
</g>
<!-- Node32&#45;&gt;Node4 -->
<g id="edge46" class="edge">
<title>Node32&#45;&gt;Node4</title>
<path fill="none" stroke="midnightblue" d="M1547.77,-190.96C1544.64,-146.43 1538.16,-54.25 1536.12,-25.36"/>
<polygon fill="midnightblue" stroke="midnightblue" points="1544.3,-191.46 1548.49,-201.19 1551.28,-190.97 1544.3,-191.46"/>
</g>
<!-- Node33 -->
<g id="node33" class="node">
<title>Node33</title>
<g id="a_node33"><a xlink:href="exif-mnote-data-pentax_8c.html" target="_top" xlink:title=" ">
<polygon fill="white" stroke="black" points="1564,-134.5 1564,-164.5 1687,-164.5 1687,-134.5 1564,-134.5"/>
<text text-anchor="start" x="1572" y="-152.5" font-family="Helvetica,sans-Serif" font-size="10.00">libexif/pentax/exif</text>
<text text-anchor="middle" x="1625.5" y="-141.5" font-family="Helvetica,sans-Serif" font-size="10.00">&#45;mnote&#45;data&#45;pentax.c</text>
</a>
</g>
</g>
<!-- Node32&#45;&gt;Node33 -->
<g id="edge47" class="edge">
<title>Node32&#45;&gt;Node33</title>
<path fill="none" stroke="midnightblue" d="M1573.61,-194.88C1585.16,-185.01 1598.69,-173.43 1609.04,-164.58"/>
<polygon fill="midnightblue" stroke="midnightblue" points="1571.32,-192.24 1565.99,-201.4 1575.87,-197.56 1571.32,-192.24"/>
</g>
</g>
</svg>
