<?xml version="1.0" encoding="UTF-8" standalone="no"?>
<!DOCTYPE svg PUBLIC "-//W3C//DTD SVG 1.1//EN"
 "http://www.w3.org/Graphics/SVG/1.1/DTD/svg11.dtd">
<!-- Generated by graphviz version 2.44.1 (0)
 -->
<!-- Title: exif_data_load_data_content Pages: 1 -->
<svg width="937pt" height="545pt"
 viewBox="0.00 0.00 937.00 545.00" xmlns="http://www.w3.org/2000/svg" xmlns:xlink="http://www.w3.org/1999/xlink">
<g id="graph0" class="graph" transform="scale(1 1) rotate(0) translate(4 541)">
<title>exif_data_load_data_content</title>
<polygon fill="white" stroke="transparent" points="-4,4 -4,-541 933,-541 933,4 -4,4"/>
<!-- Node1 -->
<g id="node1" class="node">
<title>Node1</title>
<g id="a_node1"><a xlink:title="Load data for an IFD.">
<polygon fill="#bfbfbf" stroke="black" points="0,-207 0,-237 116,-237 116,-207 0,-207"/>
<text text-anchor="start" x="8" y="-225" font-family="Helvetica,sans-Serif" font-size="10.00">exif_data_load_data</text>
<text text-anchor="middle" x="58" y="-214" font-family="Helvetica,sans-Serif" font-size="10.00">_content</text>
</a>
</g>
</g>
<!-- Node2 -->
<g id="node2" class="node">
<title>Node2</title>
<g id="a_node2"><a xlink:href="exif-content_8c.html#a89876388ea2f732f8c8cd2c8ef199908" target="_top" xlink:title="Add an EXIF tag to an IFD.">
<polygon fill="white" stroke="black" points="152,-441.5 152,-460.5 283,-460.5 283,-441.5 152,-441.5"/>
<text text-anchor="middle" x="217.5" y="-448.5" font-family="Helvetica,sans-Serif" font-size="10.00">exif_content_add_entry</text>
</a>
</g>
</g>
<!-- Node1&#45;&gt;Node2 -->
<g id="edge1" class="edge">
<title>Node1&#45;&gt;Node2</title>
<path fill="none" stroke="midnightblue" d="M61.74,-237.21C69.26,-274.73 93.7,-372.62 152,-427 156.31,-431.02 161.35,-434.38 166.69,-437.19"/>
<polygon fill="midnightblue" stroke="midnightblue" points="165.32,-440.41 175.86,-441.41 168.24,-434.05 165.32,-440.41"/>
</g>
<!-- Node5 -->
<g id="node5" class="node">
<title>Node5</title>
<g id="a_node5"><a xlink:href="exif-log_8c.html#a025d4a5d96544913ea6f6ebbec69cb68" target="_top" xlink:title=" ">
<polygon fill="white" stroke="black" points="355.5,-327.5 355.5,-346.5 411.5,-346.5 411.5,-327.5 355.5,-327.5"/>
<text text-anchor="middle" x="383.5" y="-334.5" font-family="Helvetica,sans-Serif" font-size="10.00">exif_log</text>
</a>
</g>
</g>
<!-- Node1&#45;&gt;Node5 -->
<g id="edge39" class="edge">
<title>Node1&#45;&gt;Node5</title>
<path fill="none" stroke="midnightblue" d="M68.49,-237.27C83.26,-259.49 114.03,-300.04 152,-318 214.77,-347.68 297.91,-345.94 345.26,-341.67"/>
<polygon fill="midnightblue" stroke="midnightblue" points="345.76,-345.14 355.37,-340.68 345.07,-338.18 345.76,-345.14"/>
</g>
<!-- Node8 -->
<g id="node8" class="node">
<title>Node8</title>
<g id="a_node8"><a xlink:href="exif-tag_8c.html#a09dab484396dbcd277161df07aa09cf1" target="_top" xlink:title=" ">
<polygon fill="white" stroke="black" points="328.5,-365.5 328.5,-384.5 438.5,-384.5 438.5,-365.5 328.5,-365.5"/>
<text text-anchor="middle" x="383.5" y="-372.5" font-family="Helvetica,sans-Serif" font-size="10.00">exif_tag_get_name</text>
</a>
</g>
</g>
<!-- Node1&#45;&gt;Node8 -->
<g id="edge40" class="edge">
<title>Node1&#45;&gt;Node8</title>
<path fill="none" stroke="midnightblue" d="M65.63,-237.07C78.21,-263.68 108.25,-318.57 152,-344 202.51,-373.37 269.57,-379.44 318.33,-379.17"/>
<polygon fill="midnightblue" stroke="midnightblue" points="318.49,-382.67 328.44,-379.02 318.39,-375.67 318.49,-382.67"/>
</g>
<!-- Node9 -->
<g id="node9" class="node">
<title>Node9</title>
<g id="a_node9"><a xlink:href="exif-tag_8c.html#a82b5a88d44d27d432afb5a1db74268b0" target="_top" xlink:title="Return a textual name of the given tag when found in the given IFD.">
<polygon fill="white" stroke="black" points="484,-403.5 484,-422.5 627,-422.5 627,-403.5 484,-403.5"/>
<text text-anchor="middle" x="555.5" y="-410.5" font-family="Helvetica,sans-Serif" font-size="10.00">exif_tag_get_name_in_ifd</text>
</a>
</g>
</g>
<!-- Node1&#45;&gt;Node9 -->
<g id="edge41" class="edge">
<title>Node1&#45;&gt;Node9</title>
<path fill="none" stroke="midnightblue" d="M63.37,-237.26C73.28,-268.82 100.71,-341.09 152,-374 254.92,-440.03 404.1,-434.27 488.96,-423.83"/>
<polygon fill="midnightblue" stroke="midnightblue" points="489.51,-427.29 498.98,-422.54 488.62,-420.35 489.51,-427.29"/>
</g>
<!-- Node14 -->
<g id="node14" class="node">
<title>Node14</title>
<g id="a_node14"><a xlink:href="exif-data_8c.html#abf9859cd2ae8c4c67f927e633d9a5bce" target="_top" xlink:title=" ">
<polygon fill="white" stroke="black" points="159.5,-229 159.5,-259 275.5,-259 275.5,-229 159.5,-229"/>
<text text-anchor="start" x="167.5" y="-247" font-family="Helvetica,sans-Serif" font-size="10.00">exif_data_load_data</text>
<text text-anchor="middle" x="217.5" y="-236" font-family="Helvetica,sans-Serif" font-size="10.00">_entry</text>
</a>
</g>
</g>
<!-- Node1&#45;&gt;Node14 -->
<g id="edge13" class="edge">
<title>Node1&#45;&gt;Node14</title>
<path fill="none" stroke="midnightblue" d="M116.31,-230C127.08,-231.51 138.44,-233.1 149.48,-234.64"/>
<polygon fill="midnightblue" stroke="midnightblue" points="149.11,-238.12 159.5,-236.04 150.08,-231.19 149.11,-238.12"/>
</g>
<!-- Node18 -->
<g id="node18" class="node">
<title>Node18</title>
<g id="a_node18"><a xlink:href="exif-utils_8c.html#a4ad94614630897766dd0a5c9bc2a59bf" target="_top" xlink:title="Retrieve an ExifLong value from memory.">
<polygon fill="white" stroke="black" points="342,-175.5 342,-194.5 425,-194.5 425,-175.5 342,-175.5"/>
<text text-anchor="middle" x="383.5" y="-182.5" font-family="Helvetica,sans-Serif" font-size="10.00">exif_get_long</text>
</a>
</g>
</g>
<!-- Node1&#45;&gt;Node18 -->
<g id="edge36" class="edge">
<title>Node1&#45;&gt;Node18</title>
<path fill="none" stroke="midnightblue" d="M116.09,-215.47C177.18,-208.48 273.17,-197.5 331.71,-190.81"/>
<polygon fill="midnightblue" stroke="midnightblue" points="332.3,-194.26 341.84,-189.65 331.51,-187.31 332.3,-194.26"/>
</g>
<!-- Node20 -->
<g id="node20" class="node">
<title>Node20</title>
<g id="a_node20"><a xlink:href="exif-utils_8c.html#a4b4acf537a8c6b9405e7b53be868e4d7" target="_top" xlink:title="Retrieve an ExifShort value from memory.">
<polygon fill="white" stroke="black" points="340.5,-99.5 340.5,-118.5 426.5,-118.5 426.5,-99.5 340.5,-99.5"/>
<text text-anchor="middle" x="383.5" y="-106.5" font-family="Helvetica,sans-Serif" font-size="10.00">exif_get_short</text>
</a>
</g>
</g>
<!-- Node1&#45;&gt;Node20 -->
<g id="edge37" class="edge">
<title>Node1&#45;&gt;Node20</title>
<path fill="none" stroke="midnightblue" d="M76.66,-206.98C94.52,-192.55 123.49,-171.2 152,-159 210.22,-134.08 282.22,-121.02 330.1,-114.59"/>
<polygon fill="midnightblue" stroke="midnightblue" points="330.77,-118.03 340.23,-113.27 329.87,-111.09 330.77,-118.03"/>
</g>
<!-- Node22 -->
<g id="node22" class="node">
<title>Node22</title>
<g id="a_node22"><a xlink:href="exif-data_8c.html#a0666b1f113a3ddf35cce04df20779cc8" target="_top" xlink:title=" ">
<polygon fill="white" stroke="black" points="159.5,-278 159.5,-308 275.5,-308 275.5,-278 159.5,-278"/>
<text text-anchor="start" x="167.5" y="-296" font-family="Helvetica,sans-Serif" font-size="10.00">exif_data_load_data</text>
<text text-anchor="middle" x="217.5" y="-285" font-family="Helvetica,sans-Serif" font-size="10.00">_thumbnail</text>
</a>
</g>
</g>
<!-- Node1&#45;&gt;Node22 -->
<g id="edge23" class="edge">
<title>Node1&#45;&gt;Node22</title>
<path fill="none" stroke="midnightblue" d="M86.69,-237.02C104.98,-246.68 129.62,-259.22 152,-269 156.05,-270.77 160.28,-272.53 164.55,-274.25"/>
<polygon fill="midnightblue" stroke="midnightblue" points="163.31,-277.52 173.9,-277.92 165.87,-271.01 163.31,-277.52"/>
</g>
<!-- Node24 -->
<g id="node24" class="node">
<title>Node24</title>
<g id="a_node24"><a xlink:href="exif-entry_8c.html#a67580bc5b16e6f2793f9a5e580569a7b" target="_top" xlink:title="Reserve memory for and initialize new ExifEntry using the specified memory allocator.">
<polygon fill="white" stroke="black" points="322.5,-137.5 322.5,-156.5 444.5,-156.5 444.5,-137.5 322.5,-137.5"/>
<text text-anchor="middle" x="383.5" y="-144.5" font-family="Helvetica,sans-Serif" font-size="10.00">exif_entry_new_mem</text>
</a>
</g>
</g>
<!-- Node1&#45;&gt;Node24 -->
<g id="edge27" class="edge">
<title>Node1&#45;&gt;Node24</title>
<path fill="none" stroke="midnightblue" d="M102.21,-206.88C117.79,-201.74 135.57,-196.24 152,-192 205.7,-178.15 267.41,-166.31 313.45,-158.26"/>
<polygon fill="midnightblue" stroke="midnightblue" points="314.07,-161.71 323.33,-156.55 312.88,-154.81 314.07,-161.71"/>
</g>
<!-- Node26 -->
<g id="node26" class="node">
<title>Node26</title>
<g id="a_node26"><a xlink:href="exif-entry_8c.html#a82d5d923121488d847d341727cdd2ef4" target="_top" xlink:title="Decrease reference counter for ExifEntry.">
<polygon fill="white" stroke="black" points="169,-76.5 169,-95.5 266,-95.5 266,-76.5 169,-76.5"/>
<text text-anchor="middle" x="217.5" y="-83.5" font-family="Helvetica,sans-Serif" font-size="10.00">exif_entry_unref</text>
</a>
</g>
</g>
<!-- Node1&#45;&gt;Node26 -->
<g id="edge31" class="edge">
<title>Node1&#45;&gt;Node26</title>
<path fill="none" stroke="midnightblue" d="M67.93,-206.79C82.62,-182.99 114.07,-136.91 152,-110 157.76,-105.91 164.3,-102.43 170.96,-99.5"/>
<polygon fill="midnightblue" stroke="midnightblue" points="172.73,-102.56 180.7,-95.58 170.12,-96.06 172.73,-102.56"/>
</g>
<!-- Node29 -->
<g id="node29" class="node">
<title>Node29</title>
<g id="a_node29"><a xlink:href="exif-ifd_8c.html#a57651cc68698f037cd9fb8f9d3a021a2" target="_top" xlink:title="Return a textual name of the given IFD.">
<polygon fill="white" stroke="black" points="164,-38.5 164,-57.5 271,-57.5 271,-38.5 164,-38.5"/>
<text text-anchor="middle" x="217.5" y="-45.5" font-family="Helvetica,sans-Serif" font-size="10.00">exif_ifd_get_name</text>
</a>
</g>
</g>
<!-- Node1&#45;&gt;Node29 -->
<g id="edge38" class="edge">
<title>Node1&#45;&gt;Node29</title>
<path fill="none" stroke="midnightblue" d="M63.91,-206.65C74.68,-175.5 103.35,-104.64 152,-67 154.34,-65.19 156.84,-63.56 159.46,-62.08"/>
<polygon fill="midnightblue" stroke="midnightblue" points="161.22,-65.11 168.71,-57.62 158.18,-58.8 161.22,-65.11"/>
</g>
<!-- Node30 -->
<g id="node30" class="node">
<title>Node30</title>
<g id="a_node30"><a xlink:href="exif-data_8c.html#a06c7c2490aedda09581cbb6115532198" target="_top" xlink:title="Calculate the recursion cost added by one level of IFD loading.">
<polygon fill="white" stroke="black" points="184.5,-0.5 184.5,-19.5 250.5,-19.5 250.5,-0.5 184.5,-0.5"/>
<text text-anchor="middle" x="217.5" y="-7.5" font-family="Helvetica,sans-Serif" font-size="10.00">level_cost</text>
</a>
</g>
</g>
<!-- Node1&#45;&gt;Node30 -->
<g id="edge42" class="edge">
<title>Node1&#45;&gt;Node30</title>
<path fill="none" stroke="midnightblue" d="M61.91,-206.89C69.69,-170.6 94.45,-77.88 152,-29 158.45,-23.52 166.42,-19.62 174.54,-16.84"/>
<polygon fill="midnightblue" stroke="midnightblue" points="175.78,-20.13 184.41,-13.99 173.83,-13.41 175.78,-20.13"/>
</g>
<!-- Node3 -->
<g id="node3" class="node">
<title>Node3</title>
<g id="a_node3"><a xlink:href="exif-content_8c.html#ac72bb2dacf0da27156c2c4dce08eef5d" target="_top" xlink:title="Return the ExifEntry in this IFD corresponding to the given tag.">
<polygon fill="white" stroke="black" points="319,-479.5 319,-498.5 448,-498.5 448,-479.5 319,-479.5"/>
<text text-anchor="middle" x="383.5" y="-486.5" font-family="Helvetica,sans-Serif" font-size="10.00">exif_content_get_entry</text>
</a>
</g>
</g>
<!-- Node2&#45;&gt;Node3 -->
<g id="edge2" class="edge">
<title>Node2&#45;&gt;Node3</title>
<path fill="none" stroke="midnightblue" d="M259.88,-460.59C281.62,-465.63 308.46,-471.84 331.47,-477.18"/>
<polygon fill="midnightblue" stroke="midnightblue" points="330.88,-480.63 341.41,-479.48 332.46,-473.81 330.88,-480.63"/>
</g>
<!-- Node4 -->
<g id="node4" class="node">
<title>Node4</title>
<g id="a_node4"><a xlink:href="exif-entry_8c.html#afd537c2d20109a1ee3923584e969d3d7" target="_top" xlink:title="Increase reference counter for ExifEntry.">
<polygon fill="white" stroke="black" points="341,-441.5 341,-460.5 426,-460.5 426,-441.5 341,-441.5"/>
<text text-anchor="middle" x="383.5" y="-448.5" font-family="Helvetica,sans-Serif" font-size="10.00">exif_entry_ref</text>
</a>
</g>
</g>
<!-- Node2&#45;&gt;Node4 -->
<g id="edge3" class="edge">
<title>Node2&#45;&gt;Node4</title>
<path fill="none" stroke="midnightblue" d="M283.32,-451C299.03,-451 315.62,-451 330.65,-451"/>
<polygon fill="midnightblue" stroke="midnightblue" points="330.77,-454.5 340.77,-451 330.77,-447.5 330.77,-454.5"/>
</g>
<!-- Node2&#45;&gt;Node5 -->
<g id="edge4" class="edge">
<title>Node2&#45;&gt;Node5</title>
<path fill="none" stroke="midnightblue" d="M225.99,-441.38C241.37,-422.28 278.46,-379.43 319,-356 327.19,-351.26 336.68,-347.61 345.78,-344.83"/>
<polygon fill="midnightblue" stroke="midnightblue" points="346.72,-348.2 355.42,-342.15 344.85,-341.46 346.72,-348.2"/>
</g>
<!-- Node7 -->
<g id="node7" class="node">
<title>Node7</title>
<g id="a_node7"><a xlink:href="exif-mem_8c.html#a3dcfe6794d82e79e92da5e2c62484b17" target="_top" xlink:title=" ">
<polygon fill="white" stroke="black" points="331.5,-517.5 331.5,-536.5 435.5,-536.5 435.5,-517.5 331.5,-517.5"/>
<text text-anchor="middle" x="383.5" y="-524.5" font-family="Helvetica,sans-Serif" font-size="10.00">exif_mem_realloc</text>
</a>
</g>
</g>
<!-- Node2&#45;&gt;Node7 -->
<g id="edge6" class="edge">
<title>Node2&#45;&gt;Node7</title>
<path fill="none" stroke="midnightblue" d="M232.95,-460.58C252.01,-472.89 286.9,-494.3 319,-508 324.36,-510.29 330.08,-512.41 335.81,-514.35"/>
<polygon fill="midnightblue" stroke="midnightblue" points="334.81,-517.7 345.4,-517.43 336.95,-511.04 334.81,-517.7"/>
</g>
<!-- Node2&#45;&gt;Node8 -->
<g id="edge7" class="edge">
<title>Node2&#45;&gt;Node8</title>
<path fill="none" stroke="midnightblue" d="M239.27,-441.37C267.98,-428.07 319.96,-403.98 352.78,-388.77"/>
<polygon fill="midnightblue" stroke="midnightblue" points="354.3,-391.93 361.9,-384.55 351.35,-385.58 354.3,-391.93"/>
</g>
<!-- Node6 -->
<g id="node6" class="node">
<title>Node6</title>
<g id="a_node6"><a xlink:href="exif-log_8c.html#a99101b5ad01b2d82ce9d43c9e8534627" target="_top" xlink:title=" ">
<polygon fill="white" stroke="black" points="524.5,-327.5 524.5,-346.5 586.5,-346.5 586.5,-327.5 524.5,-327.5"/>
<text text-anchor="middle" x="555.5" y="-334.5" font-family="Helvetica,sans-Serif" font-size="10.00">exif_logv</text>
</a>
</g>
</g>
<!-- Node5&#45;&gt;Node6 -->
<g id="edge5" class="edge">
<title>Node5&#45;&gt;Node6</title>
<path fill="none" stroke="midnightblue" d="M411.81,-337C439.47,-337 482.56,-337 514.15,-337"/>
<polygon fill="midnightblue" stroke="midnightblue" points="514.39,-340.5 524.39,-337 514.39,-333.5 514.39,-340.5"/>
</g>
<!-- Node8&#45;&gt;Node9 -->
<g id="edge8" class="edge">
<title>Node8&#45;&gt;Node9</title>
<path fill="none" stroke="midnightblue" d="M427.4,-384.59C450.03,-389.65 478,-395.9 501.93,-401.25"/>
<polygon fill="midnightblue" stroke="midnightblue" points="501.39,-404.71 511.91,-403.48 502.91,-397.88 501.39,-404.71"/>
</g>
<!-- Node13 -->
<g id="node13" class="node">
<title>Node13</title>
<g id="a_node13"><a xlink:href="exif-tag_8c.html#ab05bf3c8af3747529c62226eb35226bb" target="_top" xlink:title=" ">
<polygon fill="white" stroke="black" points="503,-365.5 503,-384.5 608,-384.5 608,-365.5 503,-365.5"/>
<text text-anchor="middle" x="555.5" y="-372.5" font-family="Helvetica,sans-Serif" font-size="10.00">exif_tag_get_stuff</text>
</a>
</g>
</g>
<!-- Node8&#45;&gt;Node13 -->
<g id="edge12" class="edge">
<title>Node8&#45;&gt;Node13</title>
<path fill="none" stroke="midnightblue" d="M438.76,-375C455.9,-375 474.96,-375 492.59,-375"/>
<polygon fill="midnightblue" stroke="midnightblue" points="492.78,-378.5 502.78,-375 492.78,-371.5 492.78,-378.5"/>
</g>
<!-- Node10 -->
<g id="node10" class="node">
<title>Node10</title>
<g id="a_node10"><a xlink:href="exif-tag_8c.html#a389f8ff3411e0525b28367892f1e78d3" target="_top" xlink:title="Finds the first entry in the EXIF tag table with the given tag number using a binary search.">
<polygon fill="white" stroke="black" points="663,-403.5 663,-422.5 774,-422.5 774,-403.5 663,-403.5"/>
<text text-anchor="middle" x="718.5" y="-410.5" font-family="Helvetica,sans-Serif" font-size="10.00">exif_tag_table_first</text>
</a>
</g>
</g>
<!-- Node9&#45;&gt;Node10 -->
<g id="edge9" class="edge">
<title>Node9&#45;&gt;Node10</title>
<path fill="none" stroke="midnightblue" d="M627.12,-413C635.65,-413 644.33,-413 652.77,-413"/>
<polygon fill="midnightblue" stroke="midnightblue" points="652.91,-416.5 662.91,-413 652.91,-409.5 652.91,-416.5"/>
</g>
<!-- Node11 -->
<g id="node11" class="node">
<title>Node11</title>
<g id="a_node11"><a xlink:href="exif-tag_8c.html#a87563ee64809f5f0deb4d780098508c1" target="_top" xlink:title="Return the number of entries in the EXIF tag table, including the terminating NULL entry.">
<polygon fill="white" stroke="black" points="810,-422.5 810,-441.5 929,-441.5 929,-422.5 810,-422.5"/>
<text text-anchor="middle" x="869.5" y="-429.5" font-family="Helvetica,sans-Serif" font-size="10.00">exif_tag_table_count</text>
</a>
</g>
</g>
<!-- Node10&#45;&gt;Node11 -->
<g id="edge10" class="edge">
<title>Node10&#45;&gt;Node11</title>
<path fill="none" stroke="midnightblue" d="M774.14,-419.97C782.49,-421.03 791.21,-422.14 799.82,-423.24"/>
<polygon fill="midnightblue" stroke="midnightblue" points="799.5,-426.73 809.86,-424.52 800.38,-419.79 799.5,-426.73"/>
</g>
<!-- Node12 -->
<g id="node12" class="node">
<title>Node12</title>
<g id="a_node12"><a xlink:href="exif-tag_8c.html#a220c1b18832f113bc84ff9551754915f" target="_top" xlink:title="Compares the tag with that in entry.">
<polygon fill="white" stroke="black" points="835.5,-384.5 835.5,-403.5 903.5,-403.5 903.5,-384.5 835.5,-384.5"/>
<text text-anchor="middle" x="869.5" y="-391.5" font-family="Helvetica,sans-Serif" font-size="10.00">match_tag</text>
</a>
</g>
</g>
<!-- Node10&#45;&gt;Node12 -->
<g id="edge11" class="edge">
<title>Node10&#45;&gt;Node12</title>
<path fill="none" stroke="midnightblue" d="M774.14,-406.03C790.9,-403.9 809.1,-401.57 825.01,-399.55"/>
<polygon fill="midnightblue" stroke="midnightblue" points="825.62,-403 835.1,-398.26 824.74,-396.05 825.62,-403"/>
</g>
<!-- Node14&#45;&gt;Node5 -->
<g id="edge21" class="edge">
<title>Node14&#45;&gt;Node5</title>
<path fill="none" stroke="midnightblue" d="M261.45,-259.05C268.77,-262.07 276.2,-265.42 283,-269 312.06,-284.3 342.89,-306.4 362.39,-321.21"/>
<polygon fill="midnightblue" stroke="midnightblue" points="360.45,-324.13 370.51,-327.45 364.72,-318.58 360.45,-324.13"/>
</g>
<!-- Node14&#45;&gt;Node8 -->
<g id="edge22" class="edge">
<title>Node14&#45;&gt;Node8</title>
<path fill="none" stroke="midnightblue" d="M269.53,-259.07C274.44,-261.86 279.05,-265.14 283,-269 312.92,-298.25 287.95,-327.95 319,-356 320.73,-357.57 322.59,-359 324.55,-360.32"/>
<polygon fill="midnightblue" stroke="midnightblue" points="323.18,-363.57 333.62,-365.38 326.59,-357.45 323.18,-363.57"/>
</g>
<!-- Node15 -->
<g id="node15" class="node">
<title>Node15</title>
<g id="a_node15"><a xlink:href="exif-data_8c.html#a77cbef422b7a511d6405285ad9e00152" target="_top" xlink:title=" ">
<polygon fill="white" stroke="black" points="338,-251.5 338,-270.5 429,-270.5 429,-251.5 338,-251.5"/>
<text text-anchor="middle" x="383.5" y="-258.5" font-family="Helvetica,sans-Serif" font-size="10.00">exif_data_alloc</text>
</a>
</g>
</g>
<!-- Node14&#45;&gt;Node15 -->
<g id="edge14" class="edge">
<title>Node14&#45;&gt;Node15</title>
<path fill="none" stroke="midnightblue" d="M275.86,-249.95C292.69,-251.69 311.04,-253.59 327.71,-255.32"/>
<polygon fill="midnightblue" stroke="midnightblue" points="327.53,-258.82 337.84,-256.37 328.25,-251.86 327.53,-258.82"/>
</g>
<!-- Node17 -->
<g id="node17" class="node">
<title>Node17</title>
<g id="a_node17"><a xlink:href="exif-format_8c.html#a924038efe0cd8ebade8f44619dd794f3" target="_top" xlink:title="Return the raw size of the given EXIF data type.">
<polygon fill="white" stroke="black" points="324,-213.5 324,-232.5 443,-232.5 443,-213.5 324,-213.5"/>
<text text-anchor="middle" x="383.5" y="-220.5" font-family="Helvetica,sans-Serif" font-size="10.00">exif_format_get_size</text>
</a>
</g>
</g>
<!-- Node14&#45;&gt;Node17 -->
<g id="edge16" class="edge">
<title>Node14&#45;&gt;Node17</title>
<path fill="none" stroke="midnightblue" d="M275.86,-236.66C288.1,-235.09 301.16,-233.42 313.78,-231.8"/>
<polygon fill="midnightblue" stroke="midnightblue" points="314.31,-235.26 323.78,-230.52 313.42,-228.32 314.31,-235.26"/>
</g>
<!-- Node14&#45;&gt;Node18 -->
<g id="edge17" class="edge">
<title>Node14&#45;&gt;Node18</title>
<path fill="none" stroke="midnightblue" d="M254.03,-228.97C273.13,-221.12 297.18,-211.59 319,-204 325.43,-201.76 332.27,-199.55 339,-197.46"/>
<polygon fill="midnightblue" stroke="midnightblue" points="340.16,-200.77 348.71,-194.51 338.12,-194.07 340.16,-200.77"/>
</g>
<!-- Node14&#45;&gt;Node20 -->
<g id="edge19" class="edge">
<title>Node14&#45;&gt;Node20</title>
<path fill="none" stroke="midnightblue" d="M227.6,-228.76C243.18,-203.95 277.38,-154.9 319,-128 322.74,-125.58 326.81,-123.46 331.01,-121.6"/>
<polygon fill="midnightblue" stroke="midnightblue" points="332.33,-124.84 340.36,-117.93 329.77,-118.32 332.33,-124.84"/>
</g>
<!-- Node16 -->
<g id="node16" class="node">
<title>Node16</title>
<g id="a_node16"><a xlink:href="exif-mem_8c.html#ae8c09cfbcb95e435c4c4b7ec3bbd79e4" target="_top" xlink:title=" ">
<polygon fill="white" stroke="black" points="508,-251.5 508,-270.5 603,-270.5 603,-251.5 508,-251.5"/>
<text text-anchor="middle" x="555.5" y="-258.5" font-family="Helvetica,sans-Serif" font-size="10.00">exif_mem_alloc</text>
</a>
</g>
</g>
<!-- Node15&#45;&gt;Node16 -->
<g id="edge15" class="edge">
<title>Node15&#45;&gt;Node16</title>
<path fill="none" stroke="midnightblue" d="M429.17,-261C450.15,-261 475.41,-261 497.73,-261"/>
<polygon fill="midnightblue" stroke="midnightblue" points="497.76,-264.5 507.76,-261 497.76,-257.5 497.76,-264.5"/>
</g>
<!-- Node19 -->
<g id="node19" class="node">
<title>Node19</title>
<g id="a_node19"><a xlink:href="exif-utils_8c.html#a56b96f076a13da6ed926e1ef29cb2dc3" target="_top" xlink:title="Retrieve an ExifSLong value from memory.">
<polygon fill="white" stroke="black" points="511.5,-213.5 511.5,-232.5 599.5,-232.5 599.5,-213.5 511.5,-213.5"/>
<text text-anchor="middle" x="555.5" y="-220.5" font-family="Helvetica,sans-Serif" font-size="10.00">exif_get_slong</text>
</a>
</g>
</g>
<!-- Node18&#45;&gt;Node19 -->
<g id="edge18" class="edge">
<title>Node18&#45;&gt;Node19</title>
<path fill="none" stroke="midnightblue" d="M425.22,-194.1C448.18,-199.24 477.13,-205.71 501.81,-211.22"/>
<polygon fill="midnightblue" stroke="midnightblue" points="501.22,-214.68 511.74,-213.44 502.75,-207.84 501.22,-214.68"/>
</g>
<!-- Node21 -->
<g id="node21" class="node">
<title>Node21</title>
<g id="a_node21"><a xlink:href="exif-utils_8c.html#a6baf094a71392f9cea23ad633ec13c8b" target="_top" xlink:title="Retrieve an ExifSShort value from memory.">
<polygon fill="white" stroke="black" points="509.5,-99.5 509.5,-118.5 601.5,-118.5 601.5,-99.5 509.5,-99.5"/>
<text text-anchor="middle" x="555.5" y="-106.5" font-family="Helvetica,sans-Serif" font-size="10.00">exif_get_sshort</text>
</a>
</g>
</g>
<!-- Node20&#45;&gt;Node21 -->
<g id="edge20" class="edge">
<title>Node20&#45;&gt;Node21</title>
<path fill="none" stroke="midnightblue" d="M426.52,-109C448.45,-109 475.55,-109 499.16,-109"/>
<polygon fill="midnightblue" stroke="midnightblue" points="499.39,-112.5 509.39,-109 499.39,-105.5 499.39,-112.5"/>
</g>
<!-- Node22&#45;&gt;Node5 -->
<g id="edge25" class="edge">
<title>Node22&#45;&gt;Node5</title>
<path fill="none" stroke="midnightblue" d="M274.48,-308.02C297.93,-314.31 324.54,-321.45 345.48,-327.07"/>
<polygon fill="midnightblue" stroke="midnightblue" points="344.7,-330.48 355.26,-329.69 346.51,-323.72 344.7,-330.48"/>
</g>
<!-- Node22&#45;&gt;Node15 -->
<g id="edge24" class="edge">
<title>Node22&#45;&gt;Node15</title>
<path fill="none" stroke="midnightblue" d="M275.86,-281.81C292.69,-278.52 311.04,-274.94 327.71,-271.69"/>
<polygon fill="midnightblue" stroke="midnightblue" points="328.69,-275.07 337.84,-269.72 327.35,-268.2 328.69,-275.07"/>
</g>
<!-- Node23 -->
<g id="node23" class="node">
<title>Node23</title>
<g id="a_node23"><a xlink:href="exif-mem_8c.html#a43190b81b4b4bdb4ffb89bfb612051b1" target="_top" xlink:title=" ">
<polygon fill="white" stroke="black" points="673,-99.5 673,-118.5 764,-118.5 764,-99.5 673,-99.5"/>
<text text-anchor="middle" x="718.5" y="-106.5" font-family="Helvetica,sans-Serif" font-size="10.00">exif_mem_free</text>
</a>
</g>
</g>
<!-- Node22&#45;&gt;Node23 -->
<g id="edge26" class="edge">
<title>Node22&#45;&gt;Node23</title>
<path fill="none" stroke="midnightblue" d="M275.72,-298.06C374.05,-305.64 570.04,-315.55 627,-280 682,-245.67 705.51,-165.89 713.75,-128.72"/>
<polygon fill="midnightblue" stroke="midnightblue" points="717.24,-129.15 715.84,-118.65 710.38,-127.73 717.24,-129.15"/>
</g>
<!-- Node24&#45;&gt;Node16 -->
<g id="edge28" class="edge">
<title>Node24&#45;&gt;Node16</title>
<path fill="none" stroke="midnightblue" d="M432.56,-156.54C438.15,-159 443.46,-162.1 448,-166 476.35,-190.35 455.31,-218.04 484,-242 488.26,-245.56 493.12,-248.45 498.25,-250.81"/>
<polygon fill="midnightblue" stroke="midnightblue" points="497.13,-254.12 507.72,-254.49 499.67,-247.6 497.13,-254.12"/>
</g>
<!-- Node24&#45;&gt;Node23 -->
<g id="edge29" class="edge">
<title>Node24&#45;&gt;Node23</title>
<path fill="none" stroke="midnightblue" d="M444.53,-144.45C493.75,-141.84 565.13,-136.88 627,-128 640.3,-126.09 654.57,-123.4 667.76,-120.64"/>
<polygon fill="midnightblue" stroke="midnightblue" points="668.56,-124.05 677.6,-118.53 667.09,-117.21 668.56,-124.05"/>
</g>
<!-- Node25 -->
<g id="node25" class="node">
<title>Node25</title>
<g id="a_node25"><a xlink:href="exif-mem_8c.html#af28c61972f529be46907956e0b3e7a60" target="_top" xlink:title="Refcount an ExifMem.">
<polygon fill="white" stroke="black" points="513,-175.5 513,-194.5 598,-194.5 598,-175.5 513,-175.5"/>
<text text-anchor="middle" x="555.5" y="-182.5" font-family="Helvetica,sans-Serif" font-size="10.00">exif_mem_ref</text>
</a>
</g>
</g>
<!-- Node24&#45;&gt;Node25 -->
<g id="edge30" class="edge">
<title>Node24&#45;&gt;Node25</title>
<path fill="none" stroke="midnightblue" d="M427.4,-156.59C450.29,-161.71 478.64,-168.04 502.75,-173.43"/>
<polygon fill="midnightblue" stroke="midnightblue" points="502.27,-176.91 512.79,-175.68 503.8,-170.08 502.27,-176.91"/>
</g>
<!-- Node27 -->
<g id="node27" class="node">
<title>Node27</title>
<g id="a_node27"><a xlink:href="exif-entry_8c.html#a2879215e3863186650d3f32eb63bbaf4" target="_top" xlink:title="Actually free the ExifEntry.">
<polygon fill="white" stroke="black" points="338,-61.5 338,-80.5 429,-80.5 429,-61.5 338,-61.5"/>
<text text-anchor="middle" x="383.5" y="-68.5" font-family="Helvetica,sans-Serif" font-size="10.00">exif_entry_free</text>
</a>
</g>
</g>
<!-- Node26&#45;&gt;Node27 -->
<g id="edge32" class="edge">
<title>Node26&#45;&gt;Node27</title>
<path fill="none" stroke="midnightblue" d="M266.38,-81.62C285.62,-79.86 307.91,-77.82 327.79,-76"/>
<polygon fill="midnightblue" stroke="midnightblue" points="328.3,-79.47 337.94,-75.08 327.66,-72.5 328.3,-79.47"/>
</g>
<!-- Node27&#45;&gt;Node23 -->
<g id="edge33" class="edge">
<title>Node27&#45;&gt;Node23</title>
<path fill="none" stroke="midnightblue" d="M429.39,-72.79C478.2,-75.13 558.45,-80.16 627,-90 640.3,-91.91 654.57,-94.6 667.76,-97.36"/>
<polygon fill="midnightblue" stroke="midnightblue" points="667.09,-100.79 677.6,-99.47 668.56,-93.95 667.09,-100.79"/>
</g>
<!-- Node28 -->
<g id="node28" class="node">
<title>Node28</title>
<g id="a_node28"><a xlink:href="exif-mem_8c.html#a66744e0987af08c443df247ce55f7d87" target="_top" xlink:title="Unrefcount an ExifMem.">
<polygon fill="white" stroke="black" points="507,-23.5 507,-42.5 604,-42.5 604,-23.5 507,-23.5"/>
<text text-anchor="middle" x="555.5" y="-30.5" font-family="Helvetica,sans-Serif" font-size="10.00">exif_mem_unref</text>
</a>
</g>
</g>
<!-- Node27&#45;&gt;Node28 -->
<g id="edge34" class="edge">
<title>Node27&#45;&gt;Node28</title>
<path fill="none" stroke="midnightblue" d="M427.4,-61.41C450.03,-56.35 478,-50.1 501.93,-44.75"/>
<polygon fill="midnightblue" stroke="midnightblue" points="502.91,-48.12 511.91,-42.52 501.39,-41.29 502.91,-48.12"/>
</g>
<!-- Node28&#45;&gt;Node23 -->
<g id="edge35" class="edge">
<title>Node28&#45;&gt;Node23</title>
<path fill="none" stroke="midnightblue" d="M588.94,-42.59C601.08,-46.55 614.87,-51.51 627,-57 650.76,-67.75 676.41,-82.85 694.31,-94.01"/>
<polygon fill="midnightblue" stroke="midnightblue" points="692.59,-97.06 702.92,-99.44 696.33,-91.14 692.59,-97.06"/>
</g>
</g>
</svg>
