<?xml version="1.0" encoding="UTF-8" standalone="no"?>
<!DOCTYPE svg PUBLIC "-//W3C//DTD SVG 1.1//EN"
 "http://www.w3.org/Graphics/SVG/1.1/DTD/svg11.dtd">
<!-- Generated by graphviz version 7.0.1 (0)
 -->
<!-- Title: exif_mnote_data_olympus_get_value Pages: 1 -->
<svg width="715pt" height="187pt"
 viewBox="0.00 0.00 715.00 187.33" xmlns="http://www.w3.org/2000/svg" xmlns:xlink="http://www.w3.org/1999/xlink">
<g id="graph0" class="graph" transform="scale(1 1) rotate(0) translate(4 183.33)">
<title>exif_mnote_data_olympus_get_value</title>
<!-- Node1 -->
<g id="Node000001" class="node">
<title>Node1</title>
<g id="a_Node000001"><a xlink:title=" ">
<polygon fill="#999999" stroke="#666666" points="146,-109.5 0,-109.5 0,-79.5 146,-79.5 146,-109.5"/>
<text text-anchor="start" x="8" y="-97.5" font-family="Helvetica,sans-Serif" font-size="10.00">exif_mnote_data_olympus</text>
<text text-anchor="middle" x="73" y="-86.5" font-family="Helvetica,sans-Serif" font-size="10.00">_get_value</text>
</a>
</g>
</g>
<!-- Node2 -->
<g id="Node000002" class="node">
<title>Node2</title>
<g id="a_Node000002"><a xlink:href="mnote-olympus-entry_8c.html#a212180e89fa24eb4b0ac52bc5b87a137" target="_top" xlink:title=" ">
<polygon fill="white" stroke="#666666" points="308,-109.5 182,-109.5 182,-79.5 308,-79.5 308,-109.5"/>
<text text-anchor="start" x="190" y="-97.5" font-family="Helvetica,sans-Serif" font-size="10.00">mnote_olympus_entry</text>
<text text-anchor="middle" x="245" y="-86.5" font-family="Helvetica,sans-Serif" font-size="10.00">_get_value</text>
</a>
</g>
</g>
<!-- Node1&#45;&gt;Node2 -->
<g id="edge1_Node000001_Node000002" class="edge">
<title>Node1&#45;&gt;Node2</title>
<g id="a_edge1_Node000001_Node000002"><a xlink:title=" ">
<path fill="none" stroke="#63b8ff" d="M146.1,-94.5C154.15,-94.5 162.37,-94.5 170.44,-94.5"/>
<polygon fill="#63b8ff" stroke="#63b8ff" points="170.22,-98 180.22,-94.5 170.22,-91 170.22,-98"/>
</a>
</g>
</g>
<!-- Node3 -->
<g id="Node000003" class="node">
<title>Node3</title>
<g id="a_Node000003"><a xlink:href="exif-utils_8c.html#a4ad94614630897766dd0a5c9bc2a59bf" target="_top" xlink:title="Retrieve an ExifLong value from memory.">
<polygon fill="white" stroke="#666666" points="572.5,-161 489.5,-161 489.5,-142 572.5,-142 572.5,-161"/>
<text text-anchor="middle" x="531" y="-149" font-family="Helvetica,sans-Serif" font-size="10.00">exif_get_long</text>
</a>
</g>
</g>
<!-- Node2&#45;&gt;Node3 -->
<g id="edge2_Node000002_Node000003" class="edge">
<title>Node2&#45;&gt;Node3</title>
<g id="a_edge2_Node000002_Node000003"><a xlink:title=" ">
<path fill="none" stroke="#63b8ff" d="M259.41,-109.8C276.77,-128.32 308.96,-158.51 344,-170.5 393.05,-187.29 453.31,-175.73 491.69,-164.66"/>
<polygon fill="#63b8ff" stroke="#63b8ff" points="492.37,-168.11 500.93,-161.87 490.35,-161.41 492.37,-168.11"/>
</a>
</g>
</g>
<!-- Node4 -->
<g id="Node000004" class="node">
<title>Node4</title>
<g id="a_Node000004"><a xlink:href="exif-utils_8c.html#a56b96f076a13da6ed926e1ef29cb2dc3" target="_top" xlink:title="Retrieve an ExifSLong value from memory.">
<polygon fill="white" stroke="#666666" points="707,-123 619,-123 619,-104 707,-104 707,-123"/>
<text text-anchor="middle" x="663" y="-111" font-family="Helvetica,sans-Serif" font-size="10.00">exif_get_slong</text>
</a>
</g>
</g>
<!-- Node2&#45;&gt;Node4 -->
<g id="edge8_Node000002_Node000004" class="edge">
<title>Node2&#45;&gt;Node4</title>
<g id="a_edge8_Node000002_Node000004"><a xlink:title=" ">
<path fill="none" stroke="#63b8ff" d="M308.28,-97.34C389.45,-101.05 530.12,-107.48 607.35,-111"/>
<polygon fill="#63b8ff" stroke="#63b8ff" points="607.06,-114.49 617.21,-111.45 607.38,-107.5 607.06,-114.49"/>
</a>
</g>
</g>
<!-- Node5 -->
<g id="Node000005" class="node">
<title>Node5</title>
<g id="a_Node000005"><a xlink:href="exif-utils_8c.html#a1feb547c289aa57a4d2119338b03706c" target="_top" xlink:title="Retrieve an ExifRational value from memory.">
<polygon fill="white" stroke="#666666" points="443,-161 344,-161 344,-142 443,-142 443,-161"/>
<text text-anchor="middle" x="393.5" y="-149" font-family="Helvetica,sans-Serif" font-size="10.00">exif_get_rational</text>
</a>
</g>
</g>
<!-- Node2&#45;&gt;Node5 -->
<g id="edge4_Node000002_Node000005" class="edge">
<title>Node2&#45;&gt;Node5</title>
<g id="a_edge4_Node000002_Node000005"><a xlink:title=" ">
<path fill="none" stroke="#63b8ff" d="M285.65,-109.93C307.73,-118.52 335.01,-129.13 356.48,-137.49"/>
<polygon fill="#63b8ff" stroke="#63b8ff" points="355.12,-140.71 365.71,-141.08 357.66,-134.19 355.12,-140.71"/>
</a>
</g>
</g>
<!-- Node6 -->
<g id="Node000006" class="node">
<title>Node6</title>
<g id="a_Node000006"><a xlink:href="exif-utils_8c.html#a4b4acf537a8c6b9405e7b53be868e4d7" target="_top" xlink:title="Retrieve an ExifShort value from memory.">
<polygon fill="white" stroke="#666666" points="436.5,-85 350.5,-85 350.5,-66 436.5,-66 436.5,-85"/>
<text text-anchor="middle" x="393.5" y="-73" font-family="Helvetica,sans-Serif" font-size="10.00">exif_get_short</text>
</a>
</g>
</g>
<!-- Node2&#45;&gt;Node6 -->
<g id="edge6_Node000002_Node000006" class="edge">
<title>Node2&#45;&gt;Node6</title>
<g id="a_edge6_Node000002_Node000006"><a xlink:title=" ">
<path fill="none" stroke="#63b8ff" d="M308.13,-86.44C318.44,-85.1 329.05,-83.73 339.13,-82.42"/>
<polygon fill="#63b8ff" stroke="#63b8ff" points="339.25,-85.94 348.72,-81.18 338.35,-78.99 339.25,-85.94"/>
</a>
</g>
</g>
<!-- Node7 -->
<g id="Node000007" class="node">
<title>Node7</title>
<g id="a_Node000007"><a xlink:href="exif-utils_8c.html#a6baf094a71392f9cea23ad633ec13c8b" target="_top" xlink:title="Retrieve an ExifSShort value from memory.">
<polygon fill="white" stroke="#666666" points="577,-75 485,-75 485,-56 577,-56 577,-75"/>
<text text-anchor="middle" x="531" y="-63" font-family="Helvetica,sans-Serif" font-size="10.00">exif_get_sshort</text>
</a>
</g>
</g>
<!-- Node2&#45;&gt;Node7 -->
<g id="edge11_Node000002_Node000007" class="edge">
<title>Node2&#45;&gt;Node7</title>
<g id="a_edge11_Node000002_Node000007"><a xlink:title=" ">
<path fill="none" stroke="#63b8ff" d="M277.82,-79.13C296.6,-70.93 321.1,-61.68 344,-57.5 386.94,-49.66 436.33,-52.32 473.42,-56.58"/>
<polygon fill="#63b8ff" stroke="#63b8ff" points="472.66,-60.01 483.01,-57.76 473.51,-53.07 472.66,-60.01"/>
</a>
</g>
</g>
<!-- Node8 -->
<g id="Node000008" class="node">
<title>Node8</title>
<g id="a_Node000008"><a xlink:href="exif-utils_8c.html#adb97c3499488d5642a82df1cb16dc2cb" target="_top" xlink:title="Retrieve an ExifSRational value from memory.">
<polygon fill="white" stroke="#666666" points="583,-19 479,-19 479,0 583,0 583,-19"/>
<text text-anchor="middle" x="531" y="-7" font-family="Helvetica,sans-Serif" font-size="10.00">exif_get_srational</text>
</a>
</g>
</g>
<!-- Node2&#45;&gt;Node8 -->
<g id="edge9_Node000002_Node000008" class="edge">
<title>Node2&#45;&gt;Node8</title>
<g id="a_edge9_Node000002_Node000008"><a xlink:title=" ">
<path fill="none" stroke="#63b8ff" d="M273.54,-79.04C292.77,-68.81 319.32,-55.8 344,-47.5 384.2,-33.98 430.99,-24.45 467.58,-18.32"/>
<polygon fill="#63b8ff" stroke="#63b8ff" points="467.79,-21.83 477.09,-16.77 466.66,-14.92 467.79,-21.83"/>
</a>
</g>
</g>
<!-- Node3&#45;&gt;Node4 -->
<g id="edge3_Node000003_Node000004" class="edge">
<title>Node3&#45;&gt;Node4</title>
<g id="a_edge3_Node000003_Node000004"><a xlink:title=" ">
<path fill="none" stroke="#63b8ff" d="M566.16,-141.52C581.83,-136.93 600.62,-131.44 617.39,-126.54"/>
<polygon fill="#63b8ff" stroke="#63b8ff" points="618,-130.01 626.62,-123.84 616.04,-123.29 618,-130.01"/>
</a>
</g>
</g>
<!-- Node5&#45;&gt;Node3 -->
<g id="edge5_Node000005_Node000003" class="edge">
<title>Node5&#45;&gt;Node3</title>
<g id="a_edge5_Node000005_Node000003"><a xlink:title=" ">
<path fill="none" stroke="#63b8ff" d="M443.42,-151.5C454.56,-151.5 466.44,-151.5 477.71,-151.5"/>
<polygon fill="#63b8ff" stroke="#63b8ff" points="477.67,-155 487.67,-151.5 477.67,-148 477.67,-155"/>
</a>
</g>
</g>
<!-- Node6&#45;&gt;Node7 -->
<g id="edge7_Node000006_Node000007" class="edge">
<title>Node6&#45;&gt;Node7</title>
<g id="a_edge7_Node000006_Node000007"><a xlink:title=" ">
<path fill="none" stroke="#63b8ff" d="M436.63,-72.39C448.29,-71.53 461.13,-70.58 473.47,-69.67"/>
<polygon fill="#63b8ff" stroke="#63b8ff" points="473.38,-73.19 483.09,-68.96 472.86,-66.21 473.38,-73.19"/>
</a>
</g>
</g>
<!-- Node8&#45;&gt;Node4 -->
<g id="edge10_Node000008_Node000004" class="edge">
<title>Node8&#45;&gt;Node4</title>
<g id="a_edge10_Node000008_Node000004"><a xlink:title=" ">
<path fill="none" stroke="#63b8ff" d="M545.58,-19.3C555.94,-26.86 570.52,-37.65 583,-47.5 603.52,-63.7 626.39,-82.94 642.22,-96.45"/>
<polygon fill="#63b8ff" stroke="#63b8ff" points="639.63,-98.84 649.5,-102.69 644.19,-93.53 639.63,-98.84"/>
</a>
</g>
</g>
</g>
</svg>
