<?xml version="1.0" encoding="UTF-8" standalone="no"?>
<!DOCTYPE svg PUBLIC "-//W3C//DTD SVG 1.1//EN"
 "http://www.w3.org/Graphics/SVG/1.1/DTD/svg11.dtd">
<!-- Generated by graphviz version 7.0.1 (0)
 -->
<!-- Title: exif_mnote_data_pentax_get_value Pages: 1 -->
<svg width="550pt" height="122pt"
 viewBox="0.00 0.00 550.00 122.00" xmlns="http://www.w3.org/2000/svg" xmlns:xlink="http://www.w3.org/1999/xlink">
<g id="graph0" class="graph" transform="scale(1 1) rotate(0) translate(4 118)">
<title>exif_mnote_data_pentax_get_value</title>
<!-- Node1 -->
<g id="Node000001" class="node">
<title>Node1</title>
<g id="a_Node000001"><a xlink:title=" ">
<polygon fill="#999999" stroke="#666666" points="138,-62.5 0,-62.5 0,-32.5 138,-32.5 138,-62.5"/>
<text text-anchor="start" x="8" y="-50.5" font-family="Helvetica,sans-Serif" font-size="10.00">exif_mnote_data_pentax</text>
<text text-anchor="middle" x="69" y="-39.5" font-family="Helvetica,sans-Serif" font-size="10.00">_get_value</text>
</a>
</g>
</g>
<!-- Node2 -->
<g id="Node000002" class="node">
<title>Node2</title>
<g id="a_Node000002"><a xlink:href="mnote-pentax-entry_8c.html#a1cf7e845c11aac083637f202f15630e0" target="_top" xlink:title=" ">
<polygon fill="white" stroke="#666666" points="292,-62.5 174,-62.5 174,-32.5 292,-32.5 292,-62.5"/>
<text text-anchor="start" x="182" y="-50.5" font-family="Helvetica,sans-Serif" font-size="10.00">mnote_pentax_entry</text>
<text text-anchor="middle" x="233" y="-39.5" font-family="Helvetica,sans-Serif" font-size="10.00">_get_value</text>
</a>
</g>
</g>
<!-- Node1&#45;&gt;Node2 -->
<g id="edge1_Node000001_Node000002" class="edge">
<title>Node1&#45;&gt;Node2</title>
<g id="a_edge1_Node000001_Node000002"><a xlink:title=" ">
<path fill="none" stroke="#63b8ff" d="M138.23,-47.5C146.13,-47.5 154.2,-47.5 162.12,-47.5"/>
<polygon fill="#63b8ff" stroke="#63b8ff" points="162.08,-51 172.08,-47.5 162.08,-44 162.08,-51"/>
</a>
</g>
</g>
<!-- Node3 -->
<g id="Node000003" class="node">
<title>Node3</title>
<g id="a_Node000003"><a xlink:href="exif-utils_8c.html#a4ad94614630897766dd0a5c9bc2a59bf" target="_top" xlink:title="Retrieve an ExifLong value from memory.">
<polygon fill="white" stroke="#666666" points="412.5,-114 329.5,-114 329.5,-95 412.5,-95 412.5,-114"/>
<text text-anchor="middle" x="371" y="-102" font-family="Helvetica,sans-Serif" font-size="10.00">exif_get_long</text>
</a>
</g>
</g>
<!-- Node2&#45;&gt;Node3 -->
<g id="edge2_Node000002_Node000003" class="edge">
<title>Node2&#45;&gt;Node3</title>
<g id="a_edge2_Node000002_Node000003"><a xlink:title=" ">
<path fill="none" stroke="#63b8ff" d="M270.8,-62.93C291.11,-71.44 316.17,-81.94 336.01,-90.25"/>
<polygon fill="#63b8ff" stroke="#63b8ff" points="334.47,-93.4 345.04,-94.04 337.17,-86.95 334.47,-93.4"/>
</a>
</g>
</g>
<!-- Node4 -->
<g id="Node000004" class="node">
<title>Node4</title>
<g id="a_Node000004"><a xlink:href="exif-utils_8c.html#a56b96f076a13da6ed926e1ef29cb2dc3" target="_top" xlink:title="Retrieve an ExifSLong value from memory.">
<polygon fill="white" stroke="#666666" points="540,-95 452,-95 452,-76 540,-76 540,-95"/>
<text text-anchor="middle" x="496" y="-83" font-family="Helvetica,sans-Serif" font-size="10.00">exif_get_slong</text>
</a>
</g>
</g>
<!-- Node2&#45;&gt;Node4 -->
<g id="edge6_Node000002_Node000004" class="edge">
<title>Node2&#45;&gt;Node4</title>
<g id="a_edge6_Node000002_Node000004"><a xlink:title=" ">
<path fill="none" stroke="#63b8ff" d="M292.25,-55.98C336.52,-62.43 396.99,-71.23 440.35,-77.54"/>
<polygon fill="#63b8ff" stroke="#63b8ff" points="439.64,-80.98 450.04,-78.95 440.65,-74.05 439.64,-80.98"/>
</a>
</g>
</g>
<!-- Node5 -->
<g id="Node000005" class="node">
<title>Node5</title>
<g id="a_Node000005"><a xlink:href="exif-utils_8c.html#a4b4acf537a8c6b9405e7b53be868e4d7" target="_top" xlink:title="Retrieve an ExifShort value from memory.">
<polygon fill="white" stroke="#666666" points="414,-38 328,-38 328,-19 414,-19 414,-38"/>
<text text-anchor="middle" x="371" y="-26" font-family="Helvetica,sans-Serif" font-size="10.00">exif_get_short</text>
</a>
</g>
</g>
<!-- Node2&#45;&gt;Node5 -->
<g id="edge4_Node000002_Node000005" class="edge">
<title>Node2&#45;&gt;Node5</title>
<g id="a_edge4_Node000002_Node000005"><a xlink:title=" ">
<path fill="none" stroke="#63b8ff" d="M292.47,-39.33C300.4,-38.22 308.51,-37.09 316.35,-36"/>
<polygon fill="#63b8ff" stroke="#63b8ff" points="316.68,-39.48 326.1,-34.63 315.71,-32.55 316.68,-39.48"/>
</a>
</g>
</g>
<!-- Node6 -->
<g id="Node000006" class="node">
<title>Node6</title>
<g id="a_Node000006"><a xlink:href="exif-utils_8c.html#a6baf094a71392f9cea23ad633ec13c8b" target="_top" xlink:title="Retrieve an ExifSShort value from memory.">
<polygon fill="white" stroke="#666666" points="542,-19 450,-19 450,0 542,0 542,-19"/>
<text text-anchor="middle" x="496" y="-7" font-family="Helvetica,sans-Serif" font-size="10.00">exif_get_sshort</text>
</a>
</g>
</g>
<!-- Node2&#45;&gt;Node6 -->
<g id="edge7_Node000002_Node000006" class="edge">
<title>Node2&#45;&gt;Node6</title>
<g id="a_edge7_Node000002_Node000006"><a xlink:title=" ">
<path fill="none" stroke="#63b8ff" d="M263.57,-32.12C281.65,-23.6 305.54,-13.87 328,-9.5 364.28,-2.44 405.83,-2.42 438.42,-4.16"/>
<polygon fill="#63b8ff" stroke="#63b8ff" points="437.84,-7.64 448.03,-4.76 438.27,-0.65 437.84,-7.64"/>
</a>
</g>
</g>
<!-- Node3&#45;&gt;Node4 -->
<g id="edge3_Node000003_Node000004" class="edge">
<title>Node3&#45;&gt;Node4</title>
<g id="a_edge3_Node000003_Node000004"><a xlink:title=" ">
<path fill="none" stroke="#63b8ff" d="M412.96,-98.17C421.8,-96.81 431.28,-95.34 440.55,-93.91"/>
<polygon fill="#63b8ff" stroke="#63b8ff" points="440.85,-97.41 450.2,-92.42 439.78,-90.49 440.85,-97.41"/>
</a>
</g>
</g>
<!-- Node5&#45;&gt;Node6 -->
<g id="edge5_Node000005_Node000006" class="edge">
<title>Node5&#45;&gt;Node6</title>
<g id="a_edge5_Node000005_Node000006"><a xlink:title=" ">
<path fill="none" stroke="#63b8ff" d="M414.33,-21.96C422.08,-20.76 430.27,-19.5 438.36,-18.25"/>
<polygon fill="#63b8ff" stroke="#63b8ff" points="438.81,-21.72 448.16,-16.74 437.74,-14.8 438.81,-21.72"/>
</a>
</g>
</g>
</g>
</svg>
