<?xml version="1.0" encoding="UTF-8" standalone="no"?>
<!DOCTYPE svg PUBLIC "-//W3C//DTD SVG 1.1//EN"
 "http://www.w3.org/Graphics/SVG/1.1/DTD/svg11.dtd">
<!-- Generated by graphviz version 2.44.1 (0)
 -->
<!-- Title: exif_mnote_data_olympus_set_byte_order Pages: 1 -->
<svg width="722pt" height="474pt"
 viewBox="0.00 0.00 722.00 474.00" xmlns="http://www.w3.org/2000/svg" xmlns:xlink="http://www.w3.org/1999/xlink">
<g id="graph0" class="graph" transform="scale(1 1) rotate(0) translate(4 470)">
<title>exif_mnote_data_olympus_set_byte_order</title>
<polygon fill="white" stroke="transparent" points="-4,4 -4,-470 718,-470 718,4 -4,4"/>
<!-- Node1 -->
<g id="node1" class="node">
<title>Node1</title>
<g id="a_node1"><a xlink:title=" ">
<polygon fill="#bfbfbf" stroke="black" points="0,-254 0,-284 146,-284 146,-254 0,-254"/>
<text text-anchor="start" x="8" y="-272" font-family="Helvetica,sans-Serif" font-size="10.00">exif_mnote_data_olympus</text>
<text text-anchor="middle" x="73" y="-261" font-family="Helvetica,sans-Serif" font-size="10.00">_set_byte_order</text>
</a>
</g>
</g>
<!-- Node2 -->
<g id="node2" class="node">
<title>Node2</title>
<g id="a_node2"><a xlink:href="exif-utils_8c.html#a54ef3b86ffeb643e9c4434b85ccf2992" target="_top" xlink:title=" ">
<polygon fill="white" stroke="black" points="182,-232 182,-262 295,-262 295,-232 182,-232"/>
<text text-anchor="start" x="190" y="-250" font-family="Helvetica,sans-Serif" font-size="10.00">exif_array_set_byte</text>
<text text-anchor="middle" x="238.5" y="-239" font-family="Helvetica,sans-Serif" font-size="10.00">_order</text>
</a>
</g>
</g>
<!-- Node1&#45;&gt;Node2 -->
<g id="edge1" class="edge">
<title>Node1&#45;&gt;Node2</title>
<path fill="none" stroke="midnightblue" d="M146.19,-259.29C154.7,-258.14 163.36,-256.98 171.78,-255.84"/>
<polygon fill="midnightblue" stroke="midnightblue" points="172.46,-259.28 181.9,-254.48 171.53,-252.35 172.46,-259.28"/>
</g>
<!-- Node3 -->
<g id="node3" class="node">
<title>Node3</title>
<g id="a_node3"><a xlink:href="exif-format_8c.html#a924038efe0cd8ebade8f44619dd794f3" target="_top" xlink:title="Return the raw size of the given EXIF data type.">
<polygon fill="white" stroke="black" points="331,-446.5 331,-465.5 450,-465.5 450,-446.5 331,-446.5"/>
<text text-anchor="middle" x="390.5" y="-453.5" font-family="Helvetica,sans-Serif" font-size="10.00">exif_format_get_size</text>
</a>
</g>
</g>
<!-- Node1&#45;&gt;Node3 -->
<g id="edge23" class="edge">
<title>Node1&#45;&gt;Node3</title>
<path fill="none" stroke="midnightblue" d="M99.55,-284.14C159.01,-319.39 306.04,-406.53 364.72,-441.32"/>
<polygon fill="midnightblue" stroke="midnightblue" points="362.97,-444.34 373.36,-446.43 366.54,-438.32 362.97,-444.34"/>
</g>
<!-- Node2&#45;&gt;Node3 -->
<g id="edge2" class="edge">
<title>Node2&#45;&gt;Node3</title>
<path fill="none" stroke="midnightblue" d="M247.05,-262.21C257.74,-283.75 277.88,-324.37 295,-359 311.03,-391.43 304.56,-407.32 331,-432 335.16,-435.89 340.04,-439.18 345.17,-441.97"/>
<polygon fill="midnightblue" stroke="midnightblue" points="344.05,-445.31 354.59,-446.45 347.06,-438.99 344.05,-445.31"/>
</g>
<!-- Node4 -->
<g id="node4" class="node">
<title>Node4</title>
<g id="a_node4"><a xlink:href="exif-utils_8c.html#a4ad94614630897766dd0a5c9bc2a59bf" target="_top" xlink:title="Retrieve an ExifLong value from memory.">
<polygon fill="white" stroke="black" points="496.5,-370.5 496.5,-389.5 579.5,-389.5 579.5,-370.5 496.5,-370.5"/>
<text text-anchor="middle" x="538" y="-377.5" font-family="Helvetica,sans-Serif" font-size="10.00">exif_get_long</text>
</a>
</g>
</g>
<!-- Node2&#45;&gt;Node4 -->
<g id="edge3" class="edge">
<title>Node2&#45;&gt;Node4</title>
<path fill="none" stroke="midnightblue" d="M246.26,-262.13C262.4,-297.48 303.85,-383.65 331,-399 386.29,-430.25 463.48,-409.27 505.94,-393.3"/>
<polygon fill="midnightblue" stroke="midnightblue" points="507.41,-396.48 515.45,-389.58 504.86,-389.96 507.41,-396.48"/>
</g>
<!-- Node5 -->
<g id="node5" class="node">
<title>Node5</title>
<g id="a_node5"><a xlink:href="exif-utils_8c.html#a56b96f076a13da6ed926e1ef29cb2dc3" target="_top" xlink:title="Retrieve an ExifSLong value from memory.">
<polygon fill="white" stroke="black" points="626,-332.5 626,-351.5 714,-351.5 714,-332.5 626,-332.5"/>
<text text-anchor="middle" x="670" y="-339.5" font-family="Helvetica,sans-Serif" font-size="10.00">exif_get_slong</text>
</a>
</g>
</g>
<!-- Node2&#45;&gt;Node5 -->
<g id="edge9" class="edge">
<title>Node2&#45;&gt;Node5</title>
<path fill="none" stroke="midnightblue" d="M252.19,-262.3C268.35,-280.51 298.14,-310.08 331,-323 425.82,-360.28 547.21,-355.79 615.71,-349"/>
<polygon fill="midnightblue" stroke="midnightblue" points="616.25,-352.46 625.83,-347.94 615.52,-345.5 616.25,-352.46"/>
</g>
<!-- Node6 -->
<g id="node6" class="node">
<title>Node6</title>
<g id="a_node6"><a xlink:href="exif-utils_8c.html#a1feb547c289aa57a4d2119338b03706c" target="_top" xlink:title="Retrieve an ExifRational value from memory.">
<polygon fill="white" stroke="black" points="341,-370.5 341,-389.5 440,-389.5 440,-370.5 341,-370.5"/>
<text text-anchor="middle" x="390.5" y="-377.5" font-family="Helvetica,sans-Serif" font-size="10.00">exif_get_rational</text>
</a>
</g>
</g>
<!-- Node2&#45;&gt;Node6 -->
<g id="edge5" class="edge">
<title>Node2&#45;&gt;Node6</title>
<path fill="none" stroke="midnightblue" d="M248.67,-262.03C263.42,-285.09 294.49,-329.33 331,-356 336.48,-360 342.72,-363.47 349.04,-366.43"/>
<polygon fill="midnightblue" stroke="midnightblue" points="347.71,-369.67 358.28,-370.41 350.48,-363.24 347.71,-369.67"/>
</g>
<!-- Node7 -->
<g id="node7" class="node">
<title>Node7</title>
<g id="a_node7"><a xlink:href="exif-utils_8c.html#a4b4acf537a8c6b9405e7b53be868e4d7" target="_top" xlink:title="Retrieve an ExifShort value from memory.">
<polygon fill="white" stroke="black" points="347.5,-294.5 347.5,-313.5 433.5,-313.5 433.5,-294.5 347.5,-294.5"/>
<text text-anchor="middle" x="390.5" y="-301.5" font-family="Helvetica,sans-Serif" font-size="10.00">exif_get_short</text>
</a>
</g>
</g>
<!-- Node2&#45;&gt;Node7 -->
<g id="edge7" class="edge">
<title>Node2&#45;&gt;Node7</title>
<path fill="none" stroke="midnightblue" d="M279.3,-262.13C302.74,-271.03 332.11,-282.19 354.63,-290.75"/>
<polygon fill="midnightblue" stroke="midnightblue" points="353.55,-294.08 364.14,-294.36 356.04,-287.54 353.55,-294.08"/>
</g>
<!-- Node8 -->
<g id="node8" class="node">
<title>Node8</title>
<g id="a_node8"><a xlink:href="exif-utils_8c.html#a6baf094a71392f9cea23ad633ec13c8b" target="_top" xlink:title="Retrieve an ExifSShort value from memory.">
<polygon fill="white" stroke="black" points="492,-284.5 492,-303.5 584,-303.5 584,-284.5 492,-284.5"/>
<text text-anchor="middle" x="538" y="-291.5" font-family="Helvetica,sans-Serif" font-size="10.00">exif_get_sshort</text>
</a>
</g>
</g>
<!-- Node2&#45;&gt;Node8 -->
<g id="edge12" class="edge">
<title>Node2&#45;&gt;Node8</title>
<path fill="none" stroke="midnightblue" d="M295.11,-255.79C348.51,-264.22 428.71,-276.89 481.93,-285.3"/>
<polygon fill="midnightblue" stroke="midnightblue" points="481.45,-288.77 491.87,-286.87 482.54,-281.85 481.45,-288.77"/>
</g>
<!-- Node9 -->
<g id="node9" class="node">
<title>Node9</title>
<g id="a_node9"><a xlink:href="exif-utils_8c.html#adb97c3499488d5642a82df1cb16dc2cb" target="_top" xlink:title="Retrieve an ExifSRational value from memory.">
<polygon fill="white" stroke="black" points="486,-227.5 486,-246.5 590,-246.5 590,-227.5 486,-227.5"/>
<text text-anchor="middle" x="538" y="-234.5" font-family="Helvetica,sans-Serif" font-size="10.00">exif_get_srational</text>
</a>
</g>
</g>
<!-- Node2&#45;&gt;Node9 -->
<g id="edge10" class="edge">
<title>Node2&#45;&gt;Node9</title>
<path fill="none" stroke="midnightblue" d="M295.11,-245.13C346.35,-243.41 422.27,-240.86 475.34,-239.07"/>
<polygon fill="midnightblue" stroke="midnightblue" points="475.76,-242.56 485.64,-238.73 475.53,-235.56 475.76,-242.56"/>
</g>
<!-- Node10 -->
<g id="node10" class="node">
<title>Node10</title>
<g id="a_node10"><a xlink:href="exif-utils_8c.html#ac90147d0cc97bec7a577bf9576191bf8" target="_top" xlink:title="Store an ExifLong value into memory in EXIF format.">
<polygon fill="white" stroke="black" points="497,-142.5 497,-161.5 579,-161.5 579,-142.5 497,-142.5"/>
<text text-anchor="middle" x="538" y="-149.5" font-family="Helvetica,sans-Serif" font-size="10.00">exif_set_long</text>
</a>
</g>
</g>
<!-- Node2&#45;&gt;Node10 -->
<g id="edge13" class="edge">
<title>Node2&#45;&gt;Node10</title>
<path fill="none" stroke="midnightblue" d="M286.64,-231.95C344.79,-213.38 442.62,-182.14 497.18,-164.72"/>
<polygon fill="midnightblue" stroke="midnightblue" points="498.38,-168.01 506.84,-161.63 496.25,-161.34 498.38,-168.01"/>
</g>
<!-- Node11 -->
<g id="node11" class="node">
<title>Node11</title>
<g id="a_node11"><a xlink:href="exif-utils_8c.html#ae6e3b9d1663f9ab9bd462d73a310ca03" target="_top" xlink:title="Store an ExifSLong value into memory in EXIF format.">
<polygon fill="white" stroke="black" points="626.5,-104.5 626.5,-123.5 713.5,-123.5 713.5,-104.5 626.5,-104.5"/>
<text text-anchor="middle" x="670" y="-111.5" font-family="Helvetica,sans-Serif" font-size="10.00">exif_set_slong</text>
</a>
</g>
</g>
<!-- Node2&#45;&gt;Node11 -->
<g id="edge19" class="edge">
<title>Node2&#45;&gt;Node11</title>
<path fill="none" stroke="midnightblue" d="M246.46,-231.76C259.12,-206.08 288.58,-154.83 331,-133 422.34,-85.99 546.5,-94.32 616.1,-104.33"/>
<polygon fill="midnightblue" stroke="midnightblue" points="615.97,-107.85 626.38,-105.88 617.01,-100.93 615.97,-107.85"/>
</g>
<!-- Node12 -->
<g id="node12" class="node">
<title>Node12</title>
<g id="a_node12"><a xlink:href="exif-utils_8c.html#a400a16b1754150f721e9fca67ad89a52" target="_top" xlink:title="Store an ExifRational value into memory in EXIF format.">
<polygon fill="white" stroke="black" points="341.5,-142.5 341.5,-161.5 439.5,-161.5 439.5,-142.5 341.5,-142.5"/>
<text text-anchor="middle" x="390.5" y="-149.5" font-family="Helvetica,sans-Serif" font-size="10.00">exif_set_rational</text>
</a>
</g>
</g>
<!-- Node2&#45;&gt;Node12 -->
<g id="edge15" class="edge">
<title>Node2&#45;&gt;Node12</title>
<path fill="none" stroke="midnightblue" d="M256.05,-231.91C273.65,-216.41 302.81,-192.32 331,-176 337.66,-172.14 345.07,-168.6 352.3,-165.49"/>
<polygon fill="midnightblue" stroke="midnightblue" points="354.06,-168.55 361.98,-161.52 351.4,-162.07 354.06,-168.55"/>
</g>
<!-- Node13 -->
<g id="node13" class="node">
<title>Node13</title>
<g id="a_node13"><a xlink:href="exif-utils_8c.html#ad905d16e26b4052a1db34dbebdc37341" target="_top" xlink:title="Store an ExifShort value into memory in EXIF format.">
<polygon fill="white" stroke="black" points="347.5,-66.5 347.5,-85.5 433.5,-85.5 433.5,-66.5 347.5,-66.5"/>
<text text-anchor="middle" x="390.5" y="-73.5" font-family="Helvetica,sans-Serif" font-size="10.00">exif_set_short</text>
</a>
</g>
</g>
<!-- Node2&#45;&gt;Node13 -->
<g id="edge17" class="edge">
<title>Node2&#45;&gt;Node13</title>
<path fill="none" stroke="midnightblue" d="M245.16,-231.93C256.88,-202.65 286.46,-137.64 331,-100 335.67,-96.05 341.08,-92.68 346.69,-89.83"/>
<polygon fill="midnightblue" stroke="midnightblue" points="348.56,-92.83 356.21,-85.51 345.66,-86.46 348.56,-92.83"/>
</g>
<!-- Node14 -->
<g id="node14" class="node">
<title>Node14</title>
<g id="a_node14"><a xlink:href="exif-utils_8c.html#a6504651147702fc6db9a5cd4aa997023" target="_top" xlink:title="Store an ExifSShort value into memory in EXIF format.">
<polygon fill="white" stroke="black" points="492.5,-57.5 492.5,-76.5 583.5,-76.5 583.5,-57.5 492.5,-57.5"/>
<text text-anchor="middle" x="538" y="-64.5" font-family="Helvetica,sans-Serif" font-size="10.00">exif_set_sshort</text>
</a>
</g>
</g>
<!-- Node2&#45;&gt;Node14 -->
<g id="edge22" class="edge">
<title>Node2&#45;&gt;Node14</title>
<path fill="none" stroke="midnightblue" d="M241.42,-231.86C247.1,-194.27 267.6,-96.83 331,-57 383.6,-23.95 459.51,-40.29 502.99,-54.25"/>
<polygon fill="midnightblue" stroke="midnightblue" points="501.93,-57.59 512.53,-57.45 504.16,-50.95 501.93,-57.59"/>
</g>
<!-- Node15 -->
<g id="node15" class="node">
<title>Node15</title>
<g id="a_node15"><a xlink:href="exif-utils_8c.html#aca1790a72b1833dff1b0bf728052c3c5" target="_top" xlink:title="Store an ExifSRational value into memory in EXIF format.">
<polygon fill="white" stroke="black" points="486,-0.5 486,-19.5 590,-19.5 590,-0.5 486,-0.5"/>
<text text-anchor="middle" x="538" y="-7.5" font-family="Helvetica,sans-Serif" font-size="10.00">exif_set_srational</text>
</a>
</g>
</g>
<!-- Node2&#45;&gt;Node15 -->
<g id="edge20" class="edge">
<title>Node2&#45;&gt;Node15</title>
<path fill="none" stroke="midnightblue" d="M240.89,-231.96C245.47,-192.01 263.86,-82.88 331,-33 372.14,-2.44 431.25,1.24 475.61,-1.51"/>
<polygon fill="midnightblue" stroke="midnightblue" points="475.46,-5.01 485.7,-2.27 475.98,1.97 475.46,-5.01"/>
</g>
<!-- Node4&#45;&gt;Node5 -->
<g id="edge4" class="edge">
<title>Node4&#45;&gt;Node5</title>
<path fill="none" stroke="midnightblue" d="M571.8,-370.41C588.28,-365.6 608.44,-359.7 626.13,-354.53"/>
<polygon fill="midnightblue" stroke="midnightblue" points="627.59,-357.75 636.21,-351.59 625.63,-351.03 627.59,-357.75"/>
</g>
<!-- Node6&#45;&gt;Node4 -->
<g id="edge6" class="edge">
<title>Node6&#45;&gt;Node4</title>
<path fill="none" stroke="midnightblue" d="M440.35,-380C455.11,-380 471.34,-380 486.22,-380"/>
<polygon fill="midnightblue" stroke="midnightblue" points="486.27,-383.5 496.27,-380 486.27,-376.5 486.27,-383.5"/>
</g>
<!-- Node7&#45;&gt;Node8 -->
<g id="edge8" class="edge">
<title>Node7&#45;&gt;Node8</title>
<path fill="none" stroke="midnightblue" d="M433.58,-301.11C448.59,-300.08 465.73,-298.9 481.69,-297.8"/>
<polygon fill="midnightblue" stroke="midnightblue" points="482.23,-301.27 491.96,-297.1 481.75,-294.29 482.23,-301.27"/>
</g>
<!-- Node9&#45;&gt;Node5 -->
<g id="edge11" class="edge">
<title>Node9&#45;&gt;Node5</title>
<path fill="none" stroke="midnightblue" d="M552.6,-246.77C562.97,-254.32 577.56,-265.1 590,-275 611.09,-291.78 634.57,-311.87 650.4,-325.65"/>
<polygon fill="midnightblue" stroke="midnightblue" points="648.1,-328.29 657.93,-332.23 652.71,-323.02 648.1,-328.29"/>
</g>
<!-- Node10&#45;&gt;Node11 -->
<g id="edge14" class="edge">
<title>Node10&#45;&gt;Node11</title>
<path fill="none" stroke="midnightblue" d="M571.8,-142.41C588.28,-137.6 608.44,-131.7 626.13,-126.53"/>
<polygon fill="midnightblue" stroke="midnightblue" points="627.59,-129.75 636.21,-123.59 625.63,-123.03 627.59,-129.75"/>
</g>
<!-- Node12&#45;&gt;Node10 -->
<g id="edge16" class="edge">
<title>Node12&#45;&gt;Node10</title>
<path fill="none" stroke="midnightblue" d="M439.55,-152C454.61,-152 471.28,-152 486.51,-152"/>
<polygon fill="midnightblue" stroke="midnightblue" points="486.78,-155.5 496.78,-152 486.78,-148.5 486.78,-155.5"/>
</g>
<!-- Node13&#45;&gt;Node14 -->
<g id="edge18" class="edge">
<title>Node13&#45;&gt;Node14</title>
<path fill="none" stroke="midnightblue" d="M433.58,-73.4C448.73,-72.46 466.05,-71.39 482.12,-70.39"/>
<polygon fill="midnightblue" stroke="midnightblue" points="482.71,-73.86 492.47,-69.75 482.28,-66.88 482.71,-73.86"/>
</g>
<!-- Node15&#45;&gt;Node11 -->
<g id="edge21" class="edge">
<title>Node15&#45;&gt;Node11</title>
<path fill="none" stroke="midnightblue" d="M552.58,-19.8C562.94,-27.36 577.52,-38.15 590,-48 610.83,-64.44 634.08,-84.02 649.93,-97.56"/>
<polygon fill="midnightblue" stroke="midnightblue" points="648.04,-100.55 657.91,-104.4 652.6,-95.24 648.04,-100.55"/>
</g>
</g>
</svg>
