<?xml version="1.0" encoding="UTF-8" standalone="no"?>
<!DOCTYPE svg PUBLIC "-//W3C//DTD SVG 1.1//EN"
 "http://www.w3.org/Graphics/SVG/1.1/DTD/svg11.dtd">
<!-- Generated by graphviz version 7.0.1 (0)
 -->
<!-- Title: exif_mnote_data_pentax_new Pages: 1 -->
<svg width="992pt" height="904pt"
 viewBox="0.00 0.00 992.00 903.82" xmlns="http://www.w3.org/2000/svg" xmlns:xlink="http://www.w3.org/1999/xlink">
<g id="graph0" class="graph" transform="scale(1 1) rotate(0) translate(4 899.82)">
<title>exif_mnote_data_pentax_new</title>
<!-- Node1 -->
<g id="Node000001" class="node">
<title>Node1</title>
<g id="a_Node000001"><a xlink:title=" ">
<polygon fill="#999999" stroke="#666666" points="164,-627.32 0,-627.32 0,-608.32 164,-608.32 164,-627.32"/>
<text text-anchor="middle" x="82" y="-615.32" font-family="Helvetica,sans-Serif" font-size="10.00">exif_mnote_data_pentax_new</text>
</a>
</g>
</g>
<!-- Node2 -->
<g id="Node000002" class="node">
<title>Node2</title>
<g id="a_Node000002"><a xlink:href="exif-mem_8c.html#a68be7c7afc8cff75adc3b1a28b5ae9a2" target="_top" xlink:title=" ">
<polygon fill="white" stroke="#666666" points="531.5,-713.32 436.5,-713.32 436.5,-694.32 531.5,-694.32 531.5,-713.32"/>
<text text-anchor="middle" x="484" y="-701.32" font-family="Helvetica,sans-Serif" font-size="10.00">exif_mem_alloc</text>
</a>
</g>
</g>
<!-- Node1&#45;&gt;Node2 -->
<g id="edge1_Node000001_Node000002" class="edge">
<title>Node1&#45;&gt;Node2</title>
<g id="a_edge1_Node000001_Node000002"><a xlink:title=" ">
<path fill="none" stroke="#63b8ff" d="M95.78,-627.78C116.37,-643.2 158.77,-672.36 200,-684.82 275.23,-707.56 366.66,-709.33 424.85,-707.44"/>
<polygon fill="#63b8ff" stroke="#63b8ff" points="424.65,-710.95 434.51,-707.08 424.39,-703.96 424.65,-710.95"/>
</a>
</g>
</g>
<!-- Node3 -->
<g id="Node000003" class="node">
<title>Node3</title>
<g id="a_Node000003"><a xlink:href="exif-mnote-data_8c.html#a504fc0507df0413e6356f9ab2a4e2584" target="_top" xlink:title=" ">
<polygon fill="white" stroke="#666666" points="358,-751.32 209,-751.32 209,-732.32 358,-732.32 358,-751.32"/>
<text text-anchor="middle" x="283.5" y="-739.32" font-family="Helvetica,sans-Serif" font-size="10.00">exif_mnote_data_construct</text>
</a>
</g>
</g>
<!-- Node1&#45;&gt;Node3 -->
<g id="edge2_Node000001_Node000003" class="edge">
<title>Node1&#45;&gt;Node3</title>
<g id="a_edge2_Node000001_Node000003"><a xlink:title=" ">
<path fill="none" stroke="#63b8ff" d="M91.67,-627.63C109.82,-647.54 153.92,-692.94 200,-717.82 207.75,-722.01 216.32,-725.54 224.91,-728.5"/>
<polygon fill="#63b8ff" stroke="#63b8ff" points="223.72,-731.79 234.31,-731.48 225.84,-725.12 223.72,-731.79"/>
</a>
</g>
</g>
<!-- Node5 -->
<g id="Node000005" class="node">
<title>Node5</title>
<g id="a_Node000005"><a xlink:href="exif-mnote-data-pentax_8c.html#a19bed17d86d273b41f5ee6e93c00d57b" target="_top" xlink:title=" ">
<polygon fill="white" stroke="#666666" points="352.5,-799.82 214.5,-799.82 214.5,-769.82 352.5,-769.82 352.5,-799.82"/>
<text text-anchor="start" x="222.5" y="-787.82" font-family="Helvetica,sans-Serif" font-size="10.00">exif_mnote_data_pentax</text>
<text text-anchor="middle" x="283.5" y="-776.82" font-family="Helvetica,sans-Serif" font-size="10.00">_count</text>
</a>
</g>
</g>
<!-- Node1&#45;&gt;Node5 -->
<g id="edge5_Node000001_Node000005" class="edge">
<title>Node1&#45;&gt;Node5</title>
<g id="a_edge5_Node000001_Node000005"><a xlink:title=" ">
<path fill="none" stroke="#63b8ff" d="M88.38,-627.78C102.85,-653.62 145.25,-723.33 200,-759.82 202.54,-761.51 205.2,-763.1 207.94,-764.57"/>
<polygon fill="#63b8ff" stroke="#63b8ff" points="206.28,-767.66 216.81,-768.83 209.3,-761.35 206.28,-767.66"/>
</a>
</g>
</g>
<!-- Node6 -->
<g id="Node000006" class="node">
<title>Node6</title>
<g id="a_Node000006"><a xlink:href="exif-mnote-data-pentax_8c.html#a82d158e7f9acb024ff6278598615256c" target="_top" xlink:title=" ">
<polygon fill="white" stroke="#666666" points="365,-627.32 202,-627.32 202,-608.32 365,-608.32 365,-627.32"/>
<text text-anchor="middle" x="283.5" y="-615.32" font-family="Helvetica,sans-Serif" font-size="10.00">exif_mnote_data_pentax_free</text>
</a>
</g>
</g>
<!-- Node1&#45;&gt;Node6 -->
<g id="edge6_Node000001_Node000006" class="edge">
<title>Node1&#45;&gt;Node6</title>
<g id="a_edge6_Node000001_Node000006"><a xlink:title=" ">
<path fill="none" stroke="#63b8ff" d="M164.43,-617.82C172.97,-617.82 181.7,-617.82 190.35,-617.82"/>
<polygon fill="#63b8ff" stroke="#63b8ff" points="190.14,-621.32 200.14,-617.82 190.14,-614.32 190.14,-621.32"/>
</a>
</g>
</g>
<!-- Node9 -->
<g id="Node000009" class="node">
<title>Node9</title>
<g id="a_Node000009"><a xlink:href="exif-mnote-data-pentax_8c.html#a60ea408cb82e3fbe77ac931e2e728cf5" target="_top" xlink:title=" ">
<polygon fill="white" stroke="#666666" points="352.5,-895.82 214.5,-895.82 214.5,-865.82 352.5,-865.82 352.5,-895.82"/>
<text text-anchor="start" x="222.5" y="-883.82" font-family="Helvetica,sans-Serif" font-size="10.00">exif_mnote_data_pentax</text>
<text text-anchor="middle" x="283.5" y="-872.82" font-family="Helvetica,sans-Serif" font-size="10.00">_get_description</text>
</a>
</g>
</g>
<!-- Node1&#45;&gt;Node9 -->
<g id="edge9_Node000001_Node000009" class="edge">
<title>Node1&#45;&gt;Node9</title>
<g id="a_edge9_Node000001_Node000009"><a xlink:title=" ">
<path fill="none" stroke="#63b8ff" d="M84.87,-627.77C92.28,-664.26 122.93,-791.99 200,-856.82 201.49,-858.08 203.04,-859.27 204.65,-860.39"/>
<polygon fill="#63b8ff" stroke="#63b8ff" points="202.67,-863.29 213.05,-865.41 206.26,-857.28 202.67,-863.29"/>
</a>
</g>
</g>
<!-- Node11 -->
<g id="Node000011" class="node">
<title>Node11</title>
<g id="a_Node000011"><a xlink:href="exif-mnote-data-pentax_8c.html#a9dbd1aba48c7214b7f0d96c483655ae9" target="_top" xlink:title=" ">
<polygon fill="white" stroke="#666666" points="352.5,-675.82 214.5,-675.82 214.5,-645.82 352.5,-645.82 352.5,-675.82"/>
<text text-anchor="start" x="222.5" y="-663.82" font-family="Helvetica,sans-Serif" font-size="10.00">exif_mnote_data_pentax</text>
<text text-anchor="middle" x="283.5" y="-652.82" font-family="Helvetica,sans-Serif" font-size="10.00">_get_id</text>
</a>
</g>
</g>
<!-- Node1&#45;&gt;Node11 -->
<g id="edge11_Node000001_Node000011" class="edge">
<title>Node1&#45;&gt;Node11</title>
<g id="a_edge11_Node000001_Node000011"><a xlink:title=" ">
<path fill="none" stroke="#63b8ff" d="M129.27,-627.8C151.23,-632.53 178.1,-638.32 203.17,-643.72"/>
<polygon fill="#63b8ff" stroke="#63b8ff" points="202.16,-647.09 212.68,-645.77 203.64,-640.24 202.16,-647.09"/>
</a>
</g>
</g>
<!-- Node12 -->
<g id="Node000012" class="node">
<title>Node12</title>
<g id="a_Node000012"><a xlink:href="exif-mnote-data-pentax_8c.html#ae8e6ae51eb606a1a49015b93b0404327" target="_top" xlink:title=" ">
<polygon fill="white" stroke="#666666" points="352.5,-589.82 214.5,-589.82 214.5,-559.82 352.5,-559.82 352.5,-589.82"/>
<text text-anchor="start" x="222.5" y="-577.82" font-family="Helvetica,sans-Serif" font-size="10.00">exif_mnote_data_pentax</text>
<text text-anchor="middle" x="283.5" y="-566.82" font-family="Helvetica,sans-Serif" font-size="10.00">_get_name</text>
</a>
</g>
</g>
<!-- Node1&#45;&gt;Node12 -->
<g id="edge12_Node000001_Node000012" class="edge">
<title>Node1&#45;&gt;Node12</title>
<g id="a_edge12_Node000001_Node000012"><a xlink:title=" ">
<path fill="none" stroke="#63b8ff" d="M129.27,-607.85C151.23,-603.12 178.1,-597.32 203.17,-591.92"/>
<polygon fill="#63b8ff" stroke="#63b8ff" points="203.64,-595.4 212.68,-589.87 202.16,-588.56 203.64,-595.4"/>
</a>
</g>
</g>
<!-- Node14 -->
<g id="Node000014" class="node">
<title>Node14</title>
<g id="a_Node000014"><a xlink:href="exif-mnote-data-pentax_8c.html#a1f4d7c7eb6cc169271c82c6e0b383d02" target="_top" xlink:title=" ">
<polygon fill="white" stroke="#666666" points="352.5,-847.82 214.5,-847.82 214.5,-817.82 352.5,-817.82 352.5,-847.82"/>
<text text-anchor="start" x="222.5" y="-835.82" font-family="Helvetica,sans-Serif" font-size="10.00">exif_mnote_data_pentax</text>
<text text-anchor="middle" x="283.5" y="-824.82" font-family="Helvetica,sans-Serif" font-size="10.00">_get_title</text>
</a>
</g>
</g>
<!-- Node1&#45;&gt;Node14 -->
<g id="edge14_Node000001_Node000014" class="edge">
<title>Node1&#45;&gt;Node14</title>
<g id="a_edge14_Node000001_Node000014"><a xlink:title=" ">
<path fill="none" stroke="#63b8ff" d="M86.07,-627.48C96.54,-658.78 133.86,-758.32 200,-808.82 201.51,-809.97 203.07,-811.07 204.68,-812.11"/>
<polygon fill="#63b8ff" stroke="#63b8ff" points="202.55,-814.93 212.98,-816.79 205.99,-808.84 202.55,-814.93"/>
</a>
</g>
</g>
<!-- Node16 -->
<g id="Node000016" class="node">
<title>Node16</title>
<g id="a_Node000016"><a xlink:href="exif-mnote-data-pentax_8c.html#a2aa841a686ea884a7d8f278cdfb3c800" target="_top" xlink:title=" ">
<polygon fill="white" stroke="#666666" points="352.5,-503.82 214.5,-503.82 214.5,-473.82 352.5,-473.82 352.5,-503.82"/>
<text text-anchor="start" x="222.5" y="-491.82" font-family="Helvetica,sans-Serif" font-size="10.00">exif_mnote_data_pentax</text>
<text text-anchor="middle" x="283.5" y="-480.82" font-family="Helvetica,sans-Serif" font-size="10.00">_get_value</text>
</a>
</g>
</g>
<!-- Node1&#45;&gt;Node16 -->
<g id="edge16_Node000001_Node000016" class="edge">
<title>Node1&#45;&gt;Node16</title>
<g id="a_edge16_Node000001_Node000016"><a xlink:title=" ">
<path fill="none" stroke="#63b8ff" d="M91.29,-607.82C109.05,-587.04 153,-538.94 200,-512.82 202.66,-511.34 205.42,-509.95 208.24,-508.63"/>
<polygon fill="#63b8ff" stroke="#63b8ff" points="209.47,-511.92 217.31,-504.8 206.74,-505.47 209.47,-511.92"/>
</a>
</g>
</g>
<!-- Node22 -->
<g id="Node000022" class="node">
<title>Node22</title>
<g id="a_Node000022"><a xlink:href="exif-mnote-data-pentax_8c.html#a15b400b4eddbdda7f4a929105d5224f0" target="_top" xlink:title=" ">
<polygon fill="white" stroke="#666666" points="365.5,-541.32 201.5,-541.32 201.5,-522.32 365.5,-522.32 365.5,-541.32"/>
<text text-anchor="middle" x="283.5" y="-529.32" font-family="Helvetica,sans-Serif" font-size="10.00">exif_mnote_data_pentax_load</text>
</a>
</g>
</g>
<!-- Node1&#45;&gt;Node22 -->
<g id="edge24_Node000001_Node000022" class="edge">
<title>Node1&#45;&gt;Node22</title>
<g id="a_edge24_Node000001_Node000022"><a xlink:title=" ">
<path fill="none" stroke="#63b8ff" d="M97.08,-607.92C118.4,-593.37 160.55,-566.27 200,-550.82 205.73,-548.58 211.79,-546.56 217.93,-544.75"/>
<polygon fill="#63b8ff" stroke="#63b8ff" points="218.81,-548.14 227.53,-542.13 216.96,-541.39 218.81,-548.14"/>
</a>
</g>
</g>
<!-- Node26 -->
<g id="Node000026" class="node">
<title>Node26</title>
<g id="a_Node000026"><a xlink:href="exif-mnote-data-pentax_8c.html#ad22a94b7c0413edbd6315576a8cb0df8" target="_top" xlink:title="save the MnoteData from ne to buf">
<polygon fill="white" stroke="#666666" points="367,-390.32 200,-390.32 200,-371.32 367,-371.32 367,-390.32"/>
<text text-anchor="middle" x="283.5" y="-378.32" font-family="Helvetica,sans-Serif" font-size="10.00">exif_mnote_data_pentax_save</text>
</a>
</g>
</g>
<!-- Node1&#45;&gt;Node26 -->
<g id="edge33_Node000001_Node000026" class="edge">
<title>Node1&#45;&gt;Node26</title>
<g id="a_edge33_Node000001_Node000026"><a xlink:title=" ">
<path fill="none" stroke="#63b8ff" d="M89.99,-607.83C107.54,-582.91 155.3,-516.35 200,-464.82 220.76,-440.89 246.62,-415.15 263.8,-398.56"/>
<polygon fill="#63b8ff" stroke="#63b8ff" points="266.03,-401.27 270.82,-391.82 261.18,-396.22 266.03,-401.27"/>
</a>
</g>
</g>
<!-- Node32 -->
<g id="Node000032" class="node">
<title>Node32</title>
<g id="a_Node000032"><a xlink:href="exif-mnote-data-pentax_8c.html#a086e5b21d67069237955d8f30bd6c3c5" target="_top" xlink:title=" ">
<polygon fill="white" stroke="#666666" points="352.5,-317.82 214.5,-317.82 214.5,-287.82 352.5,-287.82 352.5,-317.82"/>
<text text-anchor="start" x="222.5" y="-305.82" font-family="Helvetica,sans-Serif" font-size="10.00">exif_mnote_data_pentax</text>
<text text-anchor="middle" x="283.5" y="-294.82" font-family="Helvetica,sans-Serif" font-size="10.00">_set_byte_order</text>
</a>
</g>
</g>
<!-- Node1&#45;&gt;Node32 -->
<g id="edge42_Node000001_Node000032" class="edge">
<title>Node1&#45;&gt;Node32</title>
<g id="a_edge42_Node000001_Node000032"><a xlink:title=" ">
<path fill="none" stroke="#63b8ff" d="M85.49,-608.01C95.04,-571.87 132.25,-444.03 200,-361.82 212.13,-347.11 228.75,-334.29 243.91,-324.39"/>
<polygon fill="#63b8ff" stroke="#63b8ff" points="245.69,-327.4 252.31,-319.12 241.97,-321.47 245.69,-327.4"/>
</a>
</g>
</g>
<!-- Node38 -->
<g id="Node000038" class="node">
<title>Node38</title>
<g id="a_Node000038"><a xlink:href="exif-mnote-data-pentax_8c.html#a0fc18a8b6cd347be2eb68b4a05b200d6" target="_top" xlink:title=" ">
<polygon fill="white" stroke="#666666" points="352.5,-269.82 214.5,-269.82 214.5,-239.82 352.5,-239.82 352.5,-269.82"/>
<text text-anchor="start" x="222.5" y="-257.82" font-family="Helvetica,sans-Serif" font-size="10.00">exif_mnote_data_pentax</text>
<text text-anchor="middle" x="283.5" y="-246.82" font-family="Helvetica,sans-Serif" font-size="10.00">_set_offset</text>
</a>
</g>
</g>
<!-- Node1&#45;&gt;Node38 -->
<g id="edge62_Node000001_Node000038" class="edge">
<title>Node1&#45;&gt;Node38</title>
<g id="a_edge62_Node000001_Node000038"><a xlink:title=" ">
<path fill="none" stroke="#63b8ff" d="M83.28,-608.06C85.11,-563.25 98.76,-375.2 200,-278.82 201.58,-277.32 203.25,-275.91 204.99,-274.58"/>
<polygon fill="#63b8ff" stroke="#63b8ff" points="206.42,-277.82 212.97,-269.49 202.66,-271.92 206.42,-277.82"/>
</a>
</g>
</g>
<!-- Node3&#45;&gt;Node2 -->
<g id="edge3_Node000003_Node000002" class="edge">
<title>Node3&#45;&gt;Node2</title>
<g id="a_edge3_Node000003_Node000002"><a xlink:title=" ">
<path fill="none" stroke="#63b8ff" d="M336.65,-731.84C363.81,-726.64 397.09,-720.27 425.05,-714.92"/>
<polygon fill="#63b8ff" stroke="#63b8ff" points="425.63,-718.37 434.79,-713.05 424.31,-711.49 425.63,-718.37"/>
</a>
</g>
</g>
<!-- Node4 -->
<g id="Node000004" class="node">
<title>Node4</title>
<g id="a_Node000004"><a xlink:href="exif-mem_8c.html#af28c61972f529be46907956e0b3e7a60" target="_top" xlink:title="Refcount an ExifMem.">
<polygon fill="white" stroke="#666666" points="526.5,-751.32 441.5,-751.32 441.5,-732.32 526.5,-732.32 526.5,-751.32"/>
<text text-anchor="middle" x="484" y="-739.32" font-family="Helvetica,sans-Serif" font-size="10.00">exif_mem_ref</text>
</a>
</g>
</g>
<!-- Node3&#45;&gt;Node4 -->
<g id="edge4_Node000003_Node000004" class="edge">
<title>Node3&#45;&gt;Node4</title>
<g id="a_edge4_Node000003_Node000004"><a xlink:title=" ">
<path fill="none" stroke="#63b8ff" d="M358.41,-741.82C382.05,-741.82 407.75,-741.82 429.63,-741.82"/>
<polygon fill="#63b8ff" stroke="#63b8ff" points="429.51,-745.32 439.51,-741.82 429.51,-738.32 429.51,-745.32"/>
</a>
</g>
</g>
<!-- Node7 -->
<g id="Node000007" class="node">
<title>Node7</title>
<g id="a_Node000007"><a xlink:href="exif-mnote-data-pentax_8c.html#a5692961f9f5ea8ac552d06fbfae94608" target="_top" xlink:title=" ">
<polygon fill="white" stroke="#666666" points="553,-675.82 415,-675.82 415,-645.82 553,-645.82 553,-675.82"/>
<text text-anchor="start" x="423" y="-663.82" font-family="Helvetica,sans-Serif" font-size="10.00">exif_mnote_data_pentax</text>
<text text-anchor="middle" x="484" y="-652.82" font-family="Helvetica,sans-Serif" font-size="10.00">_clear</text>
</a>
</g>
</g>
<!-- Node6&#45;&gt;Node7 -->
<g id="edge7_Node000006_Node000007" class="edge">
<title>Node6&#45;&gt;Node7</title>
<g id="a_edge7_Node000006_Node000007"><a xlink:title=" ">
<path fill="none" stroke="#63b8ff" d="M330.54,-627.8C352.19,-632.49 378.64,-638.21 403.39,-643.58"/>
<polygon fill="#63b8ff" stroke="#63b8ff" points="402.62,-646.99 413.14,-645.69 404.11,-640.15 402.62,-646.99"/>
</a>
</g>
</g>
<!-- Node8 -->
<g id="Node000008" class="node">
<title>Node8</title>
<g id="a_Node000008"><a xlink:href="exif-mem_8c.html#a43190b81b4b4bdb4ffb89bfb612051b1" target="_top" xlink:title=" ">
<polygon fill="white" stroke="#666666" points="706,-693.32 615,-693.32 615,-674.32 706,-674.32 706,-693.32"/>
<text text-anchor="middle" x="660.5" y="-681.32" font-family="Helvetica,sans-Serif" font-size="10.00">exif_mem_free</text>
</a>
</g>
</g>
<!-- Node7&#45;&gt;Node8 -->
<g id="edge8_Node000007_Node000008" class="edge">
<title>Node7&#45;&gt;Node8</title>
<g id="a_edge8_Node000007_Node000008"><a xlink:title=" ">
<path fill="none" stroke="#63b8ff" d="M553.47,-669.85C569.99,-672.02 587.45,-674.33 603.33,-676.42"/>
<polygon fill="#63b8ff" stroke="#63b8ff" points="602.71,-679.87 613.08,-677.7 603.62,-672.93 602.71,-679.87"/>
</a>
</g>
</g>
<!-- Node10 -->
<g id="Node000010" class="node">
<title>Node10</title>
<g id="a_Node000010"><a xlink:href="mnote-pentax-tag_8c.html#a5d655c0e6f83aacbf11b617381fbb92f" target="_top" xlink:title=" ">
<polygon fill="white" stroke="#666666" points="548.5,-895.82 419.5,-895.82 419.5,-865.82 548.5,-865.82 548.5,-895.82"/>
<text text-anchor="start" x="427.5" y="-883.82" font-family="Helvetica,sans-Serif" font-size="10.00">mnote_pentax_tag_get</text>
<text text-anchor="middle" x="484" y="-872.82" font-family="Helvetica,sans-Serif" font-size="10.00">_description</text>
</a>
</g>
</g>
<!-- Node9&#45;&gt;Node10 -->
<g id="edge10_Node000009_Node000010" class="edge">
<title>Node9&#45;&gt;Node10</title>
<g id="a_edge10_Node000009_Node000010"><a xlink:title=" ">
<path fill="none" stroke="#63b8ff" d="M352.81,-880.82C370.56,-880.82 389.77,-880.82 407.85,-880.82"/>
<polygon fill="#63b8ff" stroke="#63b8ff" points="407.72,-884.32 417.72,-880.82 407.72,-877.32 407.72,-884.32"/>
</a>
</g>
</g>
<!-- Node13 -->
<g id="Node000013" class="node">
<title>Node13</title>
<g id="a_Node000013"><a xlink:href="mnote-pentax-tag_8c.html#acdaa78f9ce11f169fb2eba9ae3444eab" target="_top" xlink:title=" ">
<polygon fill="white" stroke="#666666" points="565,-627.32 403,-627.32 403,-608.32 565,-608.32 565,-627.32"/>
<text text-anchor="middle" x="484" y="-615.32" font-family="Helvetica,sans-Serif" font-size="10.00">mnote_pentax_tag_get_name</text>
</a>
</g>
</g>
<!-- Node12&#45;&gt;Node13 -->
<g id="edge13_Node000012_Node000013" class="edge">
<title>Node12&#45;&gt;Node13</title>
<g id="a_edge13_Node000012_Node000013"><a xlink:title=" ">
<path fill="none" stroke="#63b8ff" d="M352.81,-589.62C376.61,-594.77 403.03,-600.5 425.83,-605.44"/>
<polygon fill="#63b8ff" stroke="#63b8ff" points="425.05,-608.85 435.56,-607.55 426.53,-602.01 425.05,-608.85"/>
</a>
</g>
</g>
<!-- Node15 -->
<g id="Node000015" class="node">
<title>Node15</title>
<g id="a_Node000015"><a xlink:href="mnote-pentax-tag_8c.html#ab6c3c4bef3006591de6b5df813b4b4ff" target="_top" xlink:title=" ">
<polygon fill="white" stroke="#666666" points="548.5,-847.82 419.5,-847.82 419.5,-817.82 548.5,-817.82 548.5,-847.82"/>
<text text-anchor="start" x="427.5" y="-835.82" font-family="Helvetica,sans-Serif" font-size="10.00">mnote_pentax_tag_get</text>
<text text-anchor="middle" x="484" y="-824.82" font-family="Helvetica,sans-Serif" font-size="10.00">_title</text>
</a>
</g>
</g>
<!-- Node14&#45;&gt;Node15 -->
<g id="edge15_Node000014_Node000015" class="edge">
<title>Node14&#45;&gt;Node15</title>
<g id="a_edge15_Node000014_Node000015"><a xlink:title=" ">
<path fill="none" stroke="#63b8ff" d="M352.81,-832.82C370.56,-832.82 389.77,-832.82 407.85,-832.82"/>
<polygon fill="#63b8ff" stroke="#63b8ff" points="407.72,-836.32 417.72,-832.82 407.72,-829.32 407.72,-836.32"/>
</a>
</g>
</g>
<!-- Node17 -->
<g id="Node000017" class="node">
<title>Node17</title>
<g id="a_Node000017"><a xlink:href="mnote-pentax-entry_8c.html#a1cf7e845c11aac083637f202f15630e0" target="_top" xlink:title=" ">
<polygon fill="white" stroke="#666666" points="543,-552.82 425,-552.82 425,-522.82 543,-522.82 543,-552.82"/>
<text text-anchor="start" x="433" y="-540.82" font-family="Helvetica,sans-Serif" font-size="10.00">mnote_pentax_entry</text>
<text text-anchor="middle" x="484" y="-529.82" font-family="Helvetica,sans-Serif" font-size="10.00">_get_value</text>
</a>
</g>
</g>
<!-- Node16&#45;&gt;Node17 -->
<g id="edge17_Node000016_Node000017" class="edge">
<title>Node16&#45;&gt;Node17</title>
<g id="a_edge17_Node000016_Node000017"><a xlink:title=" ">
<path fill="none" stroke="#63b8ff" d="M347.03,-504.26C368.23,-509.49 392.02,-515.36 413.71,-520.72"/>
<polygon fill="#63b8ff" stroke="#63b8ff" points="412.82,-524.1 423.36,-523.1 414.49,-517.31 412.82,-524.1"/>
</a>
</g>
</g>
<!-- Node18 -->
<g id="Node000018" class="node">
<title>Node18</title>
<g id="a_Node000018"><a xlink:href="exif-utils_8c.html#a4ad94614630897766dd0a5c9bc2a59bf" target="_top" xlink:title="Retrieve an ExifLong value from memory.">
<polygon fill="white" stroke="#666666" points="849.5,-315.32 766.5,-315.32 766.5,-296.32 849.5,-296.32 849.5,-315.32"/>
<text text-anchor="middle" x="808" y="-303.32" font-family="Helvetica,sans-Serif" font-size="10.00">exif_get_long</text>
</a>
</g>
</g>
<!-- Node17&#45;&gt;Node18 -->
<g id="edge18_Node000017_Node000018" class="edge">
<title>Node17&#45;&gt;Node18</title>
<g id="a_edge18_Node000017_Node000018"><a xlink:title=" ">
<path fill="none" stroke="#63b8ff" d="M543.23,-538.24C603.61,-537.54 692.92,-532.96 720,-512.82 781.36,-467.19 799.77,-369.94 805.02,-326.98"/>
<polygon fill="#63b8ff" stroke="#63b8ff" points="808.48,-327.55 806.08,-317.23 801.52,-326.79 808.48,-327.55"/>
</a>
</g>
</g>
<!-- Node19 -->
<g id="Node000019" class="node">
<title>Node19</title>
<g id="a_Node000019"><a xlink:href="exif-utils_8c.html#a56b96f076a13da6ed926e1ef29cb2dc3" target="_top" xlink:title="Retrieve an ExifSLong value from memory.">
<polygon fill="white" stroke="#666666" points="984,-258.32 896,-258.32 896,-239.32 984,-239.32 984,-258.32"/>
<text text-anchor="middle" x="940" y="-246.32" font-family="Helvetica,sans-Serif" font-size="10.00">exif_get_slong</text>
</a>
</g>
</g>
<!-- Node17&#45;&gt;Node19 -->
<g id="edge22_Node000017_Node000019" class="edge">
<title>Node17&#45;&gt;Node19</title>
<g id="a_edge22_Node000017_Node000019"><a xlink:title=" ">
<path fill="none" stroke="#63b8ff" d="M535.62,-553.3C617.39,-574.8 777.68,-601.77 860,-512.82 925.48,-442.07 936.82,-319.15 938.69,-270.01"/>
<polygon fill="#63b8ff" stroke="#63b8ff" points="942.18,-270.3 938.95,-260.2 935.18,-270.11 942.18,-270.3"/>
</a>
</g>
</g>
<!-- Node20 -->
<g id="Node000020" class="node">
<title>Node20</title>
<g id="a_Node000020"><a xlink:href="exif-utils_8c.html#a4b4acf537a8c6b9405e7b53be868e4d7" target="_top" xlink:title="Retrieve an ExifShort value from memory.">
<polygon fill="white" stroke="#666666" points="703.5,-504.32 617.5,-504.32 617.5,-485.32 703.5,-485.32 703.5,-504.32"/>
<text text-anchor="middle" x="660.5" y="-492.32" font-family="Helvetica,sans-Serif" font-size="10.00">exif_get_short</text>
</a>
</g>
</g>
<!-- Node17&#45;&gt;Node20 -->
<g id="edge20_Node000017_Node000020" class="edge">
<title>Node17&#45;&gt;Node20</title>
<g id="a_edge20_Node000017_Node000020"><a xlink:title=" ">
<path fill="none" stroke="#63b8ff" d="M543.11,-523.5C564.1,-518.33 587.64,-512.53 608.03,-507.5"/>
<polygon fill="#63b8ff" stroke="#63b8ff" points="608.66,-510.96 617.53,-505.16 606.98,-504.16 608.66,-510.96"/>
</a>
</g>
</g>
<!-- Node21 -->
<g id="Node000021" class="node">
<title>Node21</title>
<g id="a_Node000021"><a xlink:href="exif-utils_8c.html#a6baf094a71392f9cea23ad633ec13c8b" target="_top" xlink:title="Retrieve an ExifSShort value from memory.">
<polygon fill="white" stroke="#666666" points="854,-504.32 762,-504.32 762,-485.32 854,-485.32 854,-504.32"/>
<text text-anchor="middle" x="808" y="-492.32" font-family="Helvetica,sans-Serif" font-size="10.00">exif_get_sshort</text>
</a>
</g>
</g>
<!-- Node17&#45;&gt;Node21 -->
<g id="edge23_Node000017_Node000021" class="edge">
<title>Node17&#45;&gt;Node21</title>
<g id="a_edge23_Node000017_Node000021"><a xlink:title=" ">
<path fill="none" stroke="#63b8ff" d="M543.11,-549.71C591.37,-557.31 661.36,-563.01 720,-546.82 744.81,-539.97 769.68,-523.97 786.43,-511.51"/>
<polygon fill="#63b8ff" stroke="#63b8ff" points="788.31,-514.48 794.1,-505.61 784.04,-508.94 788.31,-514.48"/>
</a>
</g>
</g>
<!-- Node18&#45;&gt;Node19 -->
<g id="edge19_Node000018_Node000019" class="edge">
<title>Node18&#45;&gt;Node19</title>
<g id="a_edge19_Node000018_Node000019"><a xlink:title=" ">
<path fill="none" stroke="#63b8ff" d="M831.64,-295.89C852.24,-286.86 882.89,-273.42 906.18,-263.21"/>
<polygon fill="#63b8ff" stroke="#63b8ff" points="907.48,-266.47 915.23,-259.24 904.67,-260.05 907.48,-266.47"/>
</a>
</g>
</g>
<!-- Node20&#45;&gt;Node21 -->
<g id="edge21_Node000020_Node000021" class="edge">
<title>Node20&#45;&gt;Node21</title>
<g id="a_edge21_Node000020_Node000021"><a xlink:title=" ">
<path fill="none" stroke="#63b8ff" d="M703.98,-494.82C718.56,-494.82 735.11,-494.82 750.62,-494.82"/>
<polygon fill="#63b8ff" stroke="#63b8ff" points="750.17,-498.32 760.17,-494.82 750.17,-491.32 750.17,-498.32"/>
</a>
</g>
</g>
<!-- Node22&#45;&gt;Node2 -->
<g id="edge30_Node000022_Node000002" class="edge">
<title>Node22&#45;&gt;Node2</title>
<g id="a_edge30_Node000022_Node000002"><a xlink:title=" ">
<path fill="none" stroke="#63b8ff" d="M354.13,-541.66C358.82,-544.13 363.19,-547.15 367,-550.82 411.39,-593.63 358.76,-641.86 403,-684.82 409.19,-690.84 416.93,-695.07 425.13,-698.03"/>
<polygon fill="#63b8ff" stroke="#63b8ff" points="424.05,-701.36 434.63,-700.8 426.01,-694.64 424.05,-701.36"/>
</a>
</g>
</g>
<!-- Node22&#45;&gt;Node7 -->
<g id="edge31_Node000022_Node000007" class="edge">
<title>Node22&#45;&gt;Node7</title>
<g id="a_edge31_Node000022_Node000007"><a xlink:title=" ">
<path fill="none" stroke="#63b8ff" d="M352.38,-541.69C357.64,-544.13 362.61,-547.14 367,-550.82 398.42,-577.2 372.61,-608.26 403,-635.82 404.41,-637.1 405.88,-638.31 407.41,-639.46"/>
<polygon fill="#63b8ff" stroke="#63b8ff" points="405.09,-642.13 415.4,-644.58 408.86,-636.24 405.09,-642.13"/>
</a>
</g>
</g>
<!-- Node22&#45;&gt;Node13 -->
<g id="edge32_Node000022_Node000013" class="edge">
<title>Node22&#45;&gt;Node13</title>
<g id="a_edge32_Node000022_Node000013"><a xlink:title=" ">
<path fill="none" stroke="#63b8ff" d="M348.53,-541.76C355.04,-544.16 361.33,-547.13 367,-550.82 389.35,-565.37 380.7,-584.2 403,-598.82 405.54,-600.49 408.22,-602.01 410.98,-603.4"/>
<polygon fill="#63b8ff" stroke="#63b8ff" points="409.36,-606.51 419.93,-607.26 412.14,-600.08 409.36,-606.51"/>
</a>
</g>
</g>
<!-- Node22&#45;&gt;Node18 -->
<g id="edge26_Node000022_Node000018" class="edge">
<title>Node22&#45;&gt;Node18</title>
<g id="a_edge26_Node000022_Node000018"><a xlink:title=" ">
<path fill="none" stroke="#63b8ff" d="M334.66,-521.89C345.44,-519.31 356.68,-516.27 367,-512.82 383.61,-507.28 386.29,-502.04 403,-496.82 471.44,-475.45 660.26,-476.46 720,-436.82 760.99,-409.63 787.38,-355.82 799.41,-326.33"/>
<polygon fill="#63b8ff" stroke="#63b8ff" points="802.65,-327.66 803.02,-317.07 796.13,-325.12 802.65,-327.66"/>
</a>
</g>
</g>
<!-- Node22&#45;&gt;Node20 -->
<g id="edge27_Node000022_Node000020" class="edge">
<title>Node22&#45;&gt;Node20</title>
<g id="a_edge27_Node000022_Node000020"><a xlink:title=" ">
<path fill="none" stroke="#63b8ff" d="M344.06,-521.86C362.87,-518.96 383.77,-515.99 403,-513.82 472.92,-505.93 553.95,-500.56 605.92,-497.59"/>
<polygon fill="#63b8ff" stroke="#63b8ff" points="605.9,-501.1 615.69,-497.04 605.5,-494.11 605.9,-501.1"/>
</a>
</g>
</g>
<!-- Node23 -->
<g id="Node000023" class="node">
<title>Node23</title>
<g id="a_Node000023"><a xlink:href="exif-format_8c.html#a924038efe0cd8ebade8f44619dd794f3" target="_top" xlink:title="Return the raw size of the given EXIF data type.">
<polygon fill="white" stroke="#666666" points="720,-428.32 601,-428.32 601,-409.32 720,-409.32 720,-428.32"/>
<text text-anchor="middle" x="660.5" y="-416.32" font-family="Helvetica,sans-Serif" font-size="10.00">exif_format_get_size</text>
</a>
</g>
</g>
<!-- Node22&#45;&gt;Node23 -->
<g id="edge25_Node000022_Node000023" class="edge">
<title>Node22&#45;&gt;Node23</title>
<g id="a_edge25_Node000022_Node000023"><a xlink:title=" ">
<path fill="none" stroke="#63b8ff" d="M351.26,-521.96C356.89,-519.52 362.24,-516.52 367,-512.82 394.61,-491.34 374.02,-462.42 403,-442.82 457.48,-405.99 534,-403.55 589.26,-408.14"/>
<polygon fill="#63b8ff" stroke="#63b8ff" points="588.93,-411.63 599.21,-409.08 589.58,-404.66 588.93,-411.63"/>
</a>
</g>
</g>
<!-- Node24 -->
<g id="Node000024" class="node">
<title>Node24</title>
<g id="a_Node000024"><a xlink:href="exif-log_8c.html#a025d4a5d96544913ea6f6ebbec69cb68" target="_top" xlink:title=" ">
<polygon fill="white" stroke="#666666" points="512,-590.32 456,-590.32 456,-571.32 512,-571.32 512,-590.32"/>
<text text-anchor="middle" x="484" y="-578.32" font-family="Helvetica,sans-Serif" font-size="10.00">exif_log</text>
</a>
</g>
</g>
<!-- Node22&#45;&gt;Node24 -->
<g id="edge28_Node000022_Node000024" class="edge">
<title>Node22&#45;&gt;Node24</title>
<g id="a_edge28_Node000022_Node000024"><a xlink:title=" ">
<path fill="none" stroke="#63b8ff" d="M330.46,-541.81C342.4,-544.56 355.22,-547.67 367,-550.82 383.16,-555.15 386.85,-557.44 403,-561.82 416.53,-565.49 431.46,-569.14 444.72,-572.25"/>
<polygon fill="#63b8ff" stroke="#63b8ff" points="443.85,-575.64 454.39,-574.49 445.43,-568.82 443.85,-575.64"/>
</a>
</g>
</g>
<!-- Node25 -->
<g id="Node000025" class="node">
<title>Node25</title>
<g id="a_Node000025"><a xlink:href="exif-log_8c.html#a99101b5ad01b2d82ce9d43c9e8534627" target="_top" xlink:title=" ">
<polygon fill="white" stroke="#666666" points="691.5,-656.32 629.5,-656.32 629.5,-637.32 691.5,-637.32 691.5,-656.32"/>
<text text-anchor="middle" x="660.5" y="-644.32" font-family="Helvetica,sans-Serif" font-size="10.00">exif_logv</text>
</a>
</g>
</g>
<!-- Node24&#45;&gt;Node25 -->
<g id="edge29_Node000024_Node000025" class="edge">
<title>Node24&#45;&gt;Node25</title>
<g id="a_edge29_Node000024_Node000025"><a xlink:title=" ">
<path fill="none" stroke="#63b8ff" d="M512.44,-584.44C528.25,-587.15 548.25,-591.65 565,-598.82 582.68,-606.39 584.02,-613.79 601,-622.82 607.64,-626.35 614.92,-629.71 622.02,-632.74"/>
<polygon fill="#63b8ff" stroke="#63b8ff" points="620.21,-635.78 630.79,-636.35 622.87,-629.31 620.21,-635.78"/>
</a>
</g>
</g>
<!-- Node26&#45;&gt;Node2 -->
<g id="edge36_Node000026_Node000002" class="edge">
<title>Node26&#45;&gt;Node2</title>
<g id="a_edge36_Node000026_Node000002"><a xlink:title=" ">
<path fill="none" stroke="#63b8ff" d="M298.55,-390.66C317.46,-404.75 350.64,-432.55 367,-464.82 411.81,-553.19 335.47,-612.32 403,-684.82 409.09,-691.36 416.98,-695.84 425.43,-698.87"/>
<polygon fill="#63b8ff" stroke="#63b8ff" points="424.31,-702.19 434.88,-701.57 426.23,-695.46 424.31,-702.19"/>
</a>
</g>
</g>
<!-- Node26&#45;&gt;Node23 -->
<g id="edge34_Node000026_Node000023" class="edge">
<title>Node26&#45;&gt;Node23</title>
<g id="a_edge34_Node000026_Node000023"><a xlink:title=" ">
<path fill="none" stroke="#63b8ff" d="M367.48,-386.57C423.39,-390.78 498.73,-397.09 565,-404.82 572.93,-405.75 581.21,-406.82 589.45,-407.95"/>
<polygon fill="#63b8ff" stroke="#63b8ff" points="588.71,-411.38 599.1,-409.31 589.68,-404.45 588.71,-411.38"/>
</a>
</g>
</g>
<!-- Node26&#45;&gt;Node24 -->
<g id="edge35_Node000026_Node000024" class="edge">
<title>Node26&#45;&gt;Node24</title>
<g id="a_edge35_Node000026_Node000024"><a xlink:title=" ">
<path fill="none" stroke="#63b8ff" d="M297.08,-390.67C314.86,-405.17 347.38,-433.94 367,-464.82 391.66,-503.64 368.56,-531.35 403,-561.82 414.3,-571.82 429.92,-576.8 444.35,-579.21"/>
<polygon fill="#63b8ff" stroke="#63b8ff" points="443.71,-582.65 454.07,-580.44 444.59,-575.71 443.71,-582.65"/>
</a>
</g>
</g>
<!-- Node27 -->
<g id="Node000027" class="node">
<title>Node27</title>
<g id="a_Node000027"><a xlink:href="exif-mem_8c.html#a7302da5374a74202e03a781b7c4b7ebe" target="_top" xlink:title=" ">
<polygon fill="white" stroke="#666666" points="536,-352.32 432,-352.32 432,-333.32 536,-333.32 536,-352.32"/>
<text text-anchor="middle" x="484" y="-340.32" font-family="Helvetica,sans-Serif" font-size="10.00">exif_mem_realloc</text>
</a>
</g>
</g>
<!-- Node26&#45;&gt;Node27 -->
<g id="edge37_Node000026_Node000027" class="edge">
<title>Node26&#45;&gt;Node27</title>
<g id="a_edge37_Node000026_Node000027"><a xlink:title=" ">
<path fill="none" stroke="#63b8ff" d="M336.65,-370.84C362.28,-365.93 393.37,-359.98 420.29,-354.83"/>
<polygon fill="#63b8ff" stroke="#63b8ff" points="420.89,-358.28 430.05,-352.96 419.57,-351.4 420.89,-358.28"/>
</a>
</g>
</g>
<!-- Node28 -->
<g id="Node000028" class="node">
<title>Node28</title>
<g id="a_Node000028"><a xlink:href="exif-utils_8c.html#ac90147d0cc97bec7a577bf9576191bf8" target="_top" xlink:title="Store an ExifLong value into memory in EXIF format.">
<polygon fill="white" stroke="#666666" points="849,-86.32 767,-86.32 767,-67.32 849,-67.32 849,-86.32"/>
<text text-anchor="middle" x="808" y="-74.32" font-family="Helvetica,sans-Serif" font-size="10.00">exif_set_long</text>
</a>
</g>
</g>
<!-- Node26&#45;&gt;Node28 -->
<g id="edge38_Node000026_Node000028" class="edge">
<title>Node26&#45;&gt;Node28</title>
<g id="a_edge38_Node000026_Node000028"><a xlink:title=" ">
<path fill="none" stroke="#63b8ff" d="M308.15,-371C326.77,-362.1 352,-347.24 367,-326.82 401.74,-279.55 368.46,-247.24 403,-199.82 465.27,-114.33 499.78,-98.47 601,-67.82 651.84,-52.43 712.96,-57.9 755.36,-65.23"/>
<polygon fill="#63b8ff" stroke="#63b8ff" points="754.57,-68.64 765.04,-67 755.83,-61.76 754.57,-68.64"/>
</a>
</g>
</g>
<!-- Node30 -->
<g id="Node000030" class="node">
<title>Node30</title>
<g id="a_Node000030"><a xlink:href="exif-utils_8c.html#ad905d16e26b4052a1db34dbebdc37341" target="_top" xlink:title="Store an ExifShort value into memory in EXIF format.">
<polygon fill="white" stroke="#666666" points="703.5,-391.32 617.5,-391.32 617.5,-372.32 703.5,-372.32 703.5,-391.32"/>
<text text-anchor="middle" x="660.5" y="-379.32" font-family="Helvetica,sans-Serif" font-size="10.00">exif_set_short</text>
</a>
</g>
</g>
<!-- Node26&#45;&gt;Node30 -->
<g id="edge40_Node000026_Node000030" class="edge">
<title>Node26&#45;&gt;Node30</title>
<g id="a_edge40_Node000026_Node000030"><a xlink:title=" ">
<path fill="none" stroke="#63b8ff" d="M299.4,-370.92C321.1,-357.15 363.16,-332.91 403,-323.82 473.2,-307.82 498.09,-297.22 565,-323.82 585.45,-331.95 582.51,-345.89 601,-357.82 606.55,-361.41 612.73,-364.63 618.93,-367.47"/>
<polygon fill="#63b8ff" stroke="#63b8ff" points="617.32,-370.59 627.89,-371.28 620.06,-364.15 617.32,-370.59"/>
</a>
</g>
</g>
<!-- Node29 -->
<g id="Node000029" class="node">
<title>Node29</title>
<g id="a_Node000029"><a xlink:href="exif-utils_8c.html#ae6e3b9d1663f9ab9bd462d73a310ca03" target="_top" xlink:title="Store an ExifSLong value into memory in EXIF format.">
<polygon fill="white" stroke="#666666" points="983.5,-49.32 896.5,-49.32 896.5,-30.32 983.5,-30.32 983.5,-49.32"/>
<text text-anchor="middle" x="940" y="-37.32" font-family="Helvetica,sans-Serif" font-size="10.00">exif_set_slong</text>
</a>
</g>
</g>
<!-- Node28&#45;&gt;Node29 -->
<g id="edge39_Node000028_Node000029" class="edge">
<title>Node28&#45;&gt;Node29</title>
<g id="a_edge39_Node000028_Node000029"><a xlink:title=" ">
<path fill="none" stroke="#63b8ff" d="M843.84,-66.91C858.99,-62.59 876.96,-57.48 893.17,-52.86"/>
<polygon fill="#63b8ff" stroke="#63b8ff" points="893.95,-56.28 902.61,-50.18 892.03,-49.55 893.95,-56.28"/>
</a>
</g>
</g>
<!-- Node31 -->
<g id="Node000031" class="node">
<title>Node31</title>
<g id="a_Node000031"><a xlink:href="exif-utils_8c.html#a6504651147702fc6db9a5cd4aa997023" target="_top" xlink:title="Store an ExifSShort value into memory in EXIF format.">
<polygon fill="white" stroke="#666666" points="853.5,-259.32 762.5,-259.32 762.5,-240.32 853.5,-240.32 853.5,-259.32"/>
<text text-anchor="middle" x="808" y="-247.32" font-family="Helvetica,sans-Serif" font-size="10.00">exif_set_sshort</text>
</a>
</g>
</g>
<!-- Node30&#45;&gt;Node31 -->
<g id="edge41_Node000030_Node000031" class="edge">
<title>Node30&#45;&gt;Node31</title>
<g id="a_edge41_Node000030_Node000031"><a xlink:title=" ">
<path fill="none" stroke="#63b8ff" d="M671.49,-372.02C683.18,-360.54 703.09,-340.89 720,-323.82 736.15,-307.52 738.65,-301.84 756,-286.82 764.41,-279.54 774.19,-272.2 782.92,-266.01"/>
<polygon fill="#63b8ff" stroke="#63b8ff" points="784.75,-269 790.97,-260.42 780.76,-263.25 784.75,-269"/>
</a>
</g>
</g>
<!-- Node32&#45;&gt;Node23 -->
<g id="edge61_Node000032_Node000023" class="edge">
<title>Node32&#45;&gt;Node23</title>
<g id="a_edge61_Node000032_Node000023"><a xlink:title=" ">
<path fill="none" stroke="#63b8ff" d="M352.78,-289.93C413.8,-282.31 502.9,-281.19 565,-323.82 595.81,-344.97 572.93,-375.14 601,-399.82 602.43,-401.08 603.95,-402.26 605.54,-403.36"/>
<polygon fill="#63b8ff" stroke="#63b8ff" points="603.46,-406.21 613.89,-408.09 606.92,-400.12 603.46,-406.21"/>
</a>
</g>
</g>
<!-- Node33 -->
<g id="Node000033" class="node">
<title>Node33</title>
<g id="a_Node000033"><a xlink:href="exif-utils_8c.html#a54ef3b86ffeb643e9c4434b85ccf2992" target="_top" xlink:title=" ">
<polygon fill="white" stroke="#666666" points="540.5,-238.82 427.5,-238.82 427.5,-208.82 540.5,-208.82 540.5,-238.82"/>
<text text-anchor="start" x="435.5" y="-226.82" font-family="Helvetica,sans-Serif" font-size="10.00">exif_array_set_byte</text>
<text text-anchor="middle" x="484" y="-215.82" font-family="Helvetica,sans-Serif" font-size="10.00">_order</text>
</a>
</g>
</g>
<!-- Node32&#45;&gt;Node33 -->
<g id="edge43_Node000032_Node000033" class="edge">
<title>Node32&#45;&gt;Node33</title>
<g id="a_edge43_Node000032_Node000033"><a xlink:title=" ">
<path fill="none" stroke="#63b8ff" d="M346.21,-287.41C353.36,-284.89 360.43,-282.03 367,-278.82 384.73,-270.16 385.55,-262.05 403,-252.82 409.49,-249.39 416.48,-246.19 423.53,-243.27"/>
<polygon fill="#63b8ff" stroke="#63b8ff" points="424.42,-246.69 432.43,-239.76 421.85,-240.18 424.42,-246.69"/>
</a>
</g>
</g>
<!-- Node33&#45;&gt;Node18 -->
<g id="edge45_Node000033_Node000018" class="edge">
<title>Node33&#45;&gt;Node18</title>
<g id="a_edge45_Node000033_Node000018"><a xlink:title=" ">
<path fill="none" stroke="#63b8ff" d="M540.72,-238.01C601.77,-253.56 698.77,-278.26 757.32,-293.17"/>
<polygon fill="#63b8ff" stroke="#63b8ff" points="756.11,-296.48 766.67,-295.55 757.84,-289.69 756.11,-296.48"/>
</a>
</g>
</g>
<!-- Node33&#45;&gt;Node19 -->
<g id="edge49_Node000033_Node000019" class="edge">
<title>Node33&#45;&gt;Node19</title>
<g id="a_edge49_Node000033_Node000019"><a xlink:title=" ">
<path fill="none" stroke="#63b8ff" d="M540.84,-221.31C614.33,-218.81 747.37,-217.09 860,-230.82 870.36,-232.08 881.34,-234.13 891.73,-236.39"/>
<polygon fill="#63b8ff" stroke="#63b8ff" points="890.69,-239.74 901.22,-238.57 892.26,-232.92 890.69,-239.74"/>
</a>
</g>
</g>
<!-- Node33&#45;&gt;Node20 -->
<g id="edge48_Node000033_Node000020" class="edge">
<title>Node33&#45;&gt;Node20</title>
<g id="a_edge48_Node000033_Node000020"><a xlink:title=" ">
<path fill="none" stroke="#63b8ff" d="M500.29,-239.14C518.08,-257.73 547.26,-290.7 565,-323.82 589.88,-370.29 573.49,-391.86 601,-436.82 610.64,-452.57 625.43,-467.19 637.73,-477.8"/>
<polygon fill="#63b8ff" stroke="#63b8ff" points="635.43,-480.44 645.36,-484.13 639.89,-475.05 635.43,-480.44"/>
</a>
</g>
</g>
<!-- Node33&#45;&gt;Node21 -->
<g id="edge52_Node000033_Node000021" class="edge">
<title>Node33&#45;&gt;Node21</title>
<g id="a_edge52_Node000033_Node000021"><a xlink:title=" ">
<path fill="none" stroke="#63b8ff" d="M508.43,-239.12C524.95,-250.37 547.2,-266.48 565,-282.82 582.86,-299.22 580.76,-310.46 601,-323.82 647.45,-354.48 675.77,-329.03 720,-362.82 759.1,-392.7 786.11,-445.47 798.78,-474.42"/>
<polygon fill="#63b8ff" stroke="#63b8ff" points="795.5,-475.65 802.61,-483.51 801.95,-472.93 795.5,-475.65"/>
</a>
</g>
</g>
<!-- Node33&#45;&gt;Node23 -->
<g id="edge44_Node000033_Node000023" class="edge">
<title>Node33&#45;&gt;Node23</title>
<g id="a_edge44_Node000033_Node000023"><a xlink:title=" ">
<path fill="none" stroke="#63b8ff" d="M540.62,-235.86C549.76,-239.96 558.39,-245.46 565,-252.82 609.94,-302.87 555.23,-350.54 601,-399.82 601.85,-400.74 602.75,-401.62 603.69,-402.45"/>
<polygon fill="#63b8ff" stroke="#63b8ff" points="601.55,-405.22 611.77,-408 605.51,-399.46 601.55,-405.22"/>
</a>
</g>
</g>
<!-- Node33&#45;&gt;Node28 -->
<g id="edge53_Node000033_Node000028" class="edge">
<title>Node33&#45;&gt;Node28</title>
<g id="a_edge53_Node000033_Node000028"><a xlink:title=" ">
<path fill="none" stroke="#63b8ff" d="M493.77,-208.35C510.52,-180.47 549.99,-122.33 601,-96.82 649.28,-72.68 711.83,-69.98 755.28,-71.88"/>
<polygon fill="#63b8ff" stroke="#63b8ff" points="755.04,-75.37 765.22,-72.42 755.42,-68.38 755.04,-75.37"/>
</a>
</g>
</g>
<!-- Node33&#45;&gt;Node29 -->
<g id="edge57_Node000033_Node000029" class="edge">
<title>Node33&#45;&gt;Node29</title>
<g id="a_edge57_Node000033_Node000029"><a xlink:title=" ">
<path fill="none" stroke="#63b8ff" d="M489.19,-208.34C500.25,-170.83 534.08,-75.14 601,-33.82 694.94,24.18 833.33,-6.3 900.12,-26.54"/>
<polygon fill="#63b8ff" stroke="#63b8ff" points="898.94,-29.84 909.53,-29.48 901.03,-23.16 898.94,-29.84"/>
</a>
</g>
</g>
<!-- Node33&#45;&gt;Node30 -->
<g id="edge56_Node000033_Node000030" class="edge">
<title>Node33&#45;&gt;Node30</title>
<g id="a_edge56_Node000033_Node000030"><a xlink:title=" ">
<path fill="none" stroke="#63b8ff" d="M540.91,-236.72C549.8,-240.73 558.27,-245.97 565,-252.82 599.58,-288.01 567.16,-321.92 601,-357.82 604.22,-361.24 607.99,-364.18 612.05,-366.72"/>
<polygon fill="#63b8ff" stroke="#63b8ff" points="610.08,-369.63 620.56,-371.21 613.35,-363.44 610.08,-369.63"/>
</a>
</g>
</g>
<!-- Node33&#45;&gt;Node31 -->
<g id="edge60_Node000033_Node000031" class="edge">
<title>Node33&#45;&gt;Node31</title>
<g id="a_edge60_Node000033_Node000031"><a xlink:title=" ">
<path fill="none" stroke="#63b8ff" d="M540.72,-228.32C599.61,-233.08 691.98,-240.53 750.98,-245.3"/>
<polygon fill="#63b8ff" stroke="#63b8ff" points="750.56,-248.78 760.81,-246.09 751.13,-241.8 750.56,-248.78"/>
</a>
</g>
</g>
<!-- Node34 -->
<g id="Node000034" class="node">
<title>Node34</title>
<g id="a_Node000034"><a xlink:href="exif-utils_8c.html#a1feb547c289aa57a4d2119338b03706c" target="_top" xlink:title="Retrieve an ExifRational value from memory.">
<polygon fill="white" stroke="#666666" points="710,-315.32 611,-315.32 611,-296.32 710,-296.32 710,-315.32"/>
<text text-anchor="middle" x="660.5" y="-303.32" font-family="Helvetica,sans-Serif" font-size="10.00">exif_get_rational</text>
</a>
</g>
</g>
<!-- Node33&#45;&gt;Node34 -->
<g id="edge46_Node000033_Node000034" class="edge">
<title>Node33&#45;&gt;Node34</title>
<g id="a_edge46_Node000033_Node000034"><a xlink:title=" ">
<path fill="none" stroke="#63b8ff" d="M535.63,-239.3C545.64,-243.15 555.86,-247.67 565,-252.82 582.9,-262.9 583.31,-271.37 601,-281.82 607.08,-285.41 613.79,-288.72 620.44,-291.65"/>
<polygon fill="#63b8ff" stroke="#63b8ff" points="618.77,-294.74 629.34,-295.35 621.46,-288.28 618.77,-294.74"/>
</a>
</g>
</g>
<!-- Node35 -->
<g id="Node000035" class="node">
<title>Node35</title>
<g id="a_Node000035"><a xlink:href="exif-utils_8c.html#adb97c3499488d5642a82df1cb16dc2cb" target="_top" xlink:title="Retrieve an ExifSRational value from memory.">
<polygon fill="white" stroke="#666666" points="860,-163.32 756,-163.32 756,-144.32 860,-144.32 860,-163.32"/>
<text text-anchor="middle" x="808" y="-151.32" font-family="Helvetica,sans-Serif" font-size="10.00">exif_get_srational</text>
</a>
</g>
</g>
<!-- Node33&#45;&gt;Node35 -->
<g id="edge50_Node000033_Node000035" class="edge">
<title>Node33&#45;&gt;Node35</title>
<g id="a_edge50_Node000033_Node000035"><a xlink:title=" ">
<path fill="none" stroke="#63b8ff" d="M517.24,-208.39C540.11,-198.11 571.8,-185.18 601,-177.82 648.23,-165.92 703.07,-159.9 744.29,-156.86"/>
<polygon fill="#63b8ff" stroke="#63b8ff" points="744.29,-160.37 754.03,-156.19 743.81,-153.39 744.29,-160.37"/>
</a>
</g>
</g>
<!-- Node36 -->
<g id="Node000036" class="node">
<title>Node36</title>
<g id="a_Node000036"><a xlink:href="exif-utils_8c.html#a400a16b1754150f721e9fca67ad89a52" target="_top" xlink:title="Store an ExifRational value into memory in EXIF format.">
<polygon fill="white" stroke="#666666" points="709.5,-125.32 611.5,-125.32 611.5,-106.32 709.5,-106.32 709.5,-125.32"/>
<text text-anchor="middle" x="660.5" y="-113.32" font-family="Helvetica,sans-Serif" font-size="10.00">exif_set_rational</text>
</a>
</g>
</g>
<!-- Node33&#45;&gt;Node36 -->
<g id="edge54_Node000033_Node000036" class="edge">
<title>Node33&#45;&gt;Node36</title>
<g id="a_edge54_Node000033_Node000036"><a xlink:title=" ">
<path fill="none" stroke="#63b8ff" d="M503.37,-208.39C525.49,-190.32 564.29,-160.26 601,-139.82 607.29,-136.32 614.21,-133.03 621,-130.09"/>
<polygon fill="#63b8ff" stroke="#63b8ff" points="622.19,-133.38 630.09,-126.33 619.51,-126.91 622.19,-133.38"/>
</a>
</g>
</g>
<!-- Node37 -->
<g id="Node000037" class="node">
<title>Node37</title>
<g id="a_Node000037"><a xlink:href="exif-utils_8c.html#aca1790a72b1833dff1b0bf728052c3c5" target="_top" xlink:title="Store an ExifSRational value into memory in EXIF format.">
<polygon fill="white" stroke="#666666" points="860,-49.32 756,-49.32 756,-30.32 860,-30.32 860,-49.32"/>
<text text-anchor="middle" x="808" y="-37.32" font-family="Helvetica,sans-Serif" font-size="10.00">exif_set_srational</text>
</a>
</g>
</g>
<!-- Node33&#45;&gt;Node37 -->
<g id="edge58_Node000033_Node000037" class="edge">
<title>Node33&#45;&gt;Node37</title>
<g id="a_edge58_Node000033_Node000037"><a xlink:title=" ">
<path fill="none" stroke="#63b8ff" d="M491.3,-208.66C505.53,-176.53 543.45,-101.79 601,-67.82 644.13,-42.36 701.04,-36.28 744.11,-36.04"/>
<polygon fill="#63b8ff" stroke="#63b8ff" points="744.05,-39.54 754.07,-36.11 744.09,-32.54 744.05,-39.54"/>
</a>
</g>
</g>
<!-- Node34&#45;&gt;Node18 -->
<g id="edge47_Node000034_Node000018" class="edge">
<title>Node34&#45;&gt;Node18</title>
<g id="a_edge47_Node000034_Node000018"><a xlink:title=" ">
<path fill="none" stroke="#63b8ff" d="M710.35,-305.82C724.69,-305.82 740.41,-305.82 754.93,-305.82"/>
<polygon fill="#63b8ff" stroke="#63b8ff" points="754.76,-309.32 764.76,-305.82 754.76,-302.32 754.76,-309.32"/>
</a>
</g>
</g>
<!-- Node35&#45;&gt;Node19 -->
<g id="edge51_Node000035_Node000019" class="edge">
<title>Node35&#45;&gt;Node19</title>
<g id="a_edge51_Node000035_Node000019"><a xlink:title=" ">
<path fill="none" stroke="#63b8ff" d="M833.91,-163.79C842.47,-167.66 851.93,-172.46 860,-177.82 883.37,-193.34 906.87,-215.49 922.08,-230.91"/>
<polygon fill="#63b8ff" stroke="#63b8ff" points="919.5,-233.27 928.97,-238.02 924.53,-228.4 919.5,-233.27"/>
</a>
</g>
</g>
<!-- Node36&#45;&gt;Node28 -->
<g id="edge55_Node000036_Node000028" class="edge">
<title>Node36&#45;&gt;Node28</title>
<g id="a_edge55_Node000036_Node000028"><a xlink:title=" ">
<path fill="none" stroke="#63b8ff" d="M698.59,-105.88C716.91,-100.97 739.23,-94.99 758.84,-89.73"/>
<polygon fill="#63b8ff" stroke="#63b8ff" points="759.51,-93.18 768.26,-87.21 757.7,-86.41 759.51,-93.18"/>
</a>
</g>
</g>
<!-- Node37&#45;&gt;Node29 -->
<g id="edge59_Node000037_Node000029" class="edge">
<title>Node37&#45;&gt;Node29</title>
<g id="a_edge59_Node000037_Node000029"><a xlink:title=" ">
<path fill="none" stroke="#63b8ff" d="M860.38,-39.82C868.48,-39.82 876.88,-39.82 885.04,-39.82"/>
<polygon fill="#63b8ff" stroke="#63b8ff" points="884.85,-43.32 894.85,-39.82 884.85,-36.32 884.85,-43.32"/>
</a>
</g>
</g>
</g>
</svg>
