<?xml version="1.0" encoding="UTF-8" standalone="no"?>
<!DOCTYPE svg PUBLIC "-//W3C//DTD SVG 1.1//EN"
 "http://www.w3.org/Graphics/SVG/1.1/DTD/svg11.dtd">
<!-- Generated by graphviz version 7.0.1 (0)
 -->
<!-- Title: exif_mnote_data_unref Pages: 1 -->
<svg width="796pt" height="83pt"
 viewBox="0.00 0.00 796.00 82.67" xmlns="http://www.w3.org/2000/svg" xmlns:xlink="http://www.w3.org/1999/xlink">
<g id="graph0" class="graph" transform="scale(1 1) rotate(0) translate(4 78.67)">
<title>exif_mnote_data_unref</title>
<!-- Node1 -->
<g id="Node000001" class="node">
<title>Node1</title>
<g id="a_Node000001"><a xlink:title=" ">
<polygon fill="#999999" stroke="#666666" points="130,-57 0,-57 0,-38 130,-38 130,-57"/>
<text text-anchor="middle" x="65" y="-45" font-family="Helvetica,sans-Serif" font-size="10.00">exif_mnote_data_unref</text>
</a>
</g>
</g>
<!-- Node2 -->
<g id="Node000002" class="node">
<title>Node2</title>
<g id="a_Node000002"><a xlink:href="exif-mnote-data_8c.html#a2f715582f27a9821560931aeaa139abd" target="_top" xlink:title=" ">
<polygon fill="white" stroke="#666666" points="290,-57 166,-57 166,-38 290,-38 290,-57"/>
<text text-anchor="middle" x="228" y="-45" font-family="Helvetica,sans-Serif" font-size="10.00">exif_mnote_data_free</text>
</a>
</g>
</g>
<!-- Node1&#45;&gt;Node2 -->
<g id="edge1_Node000001_Node000002" class="edge">
<title>Node1&#45;&gt;Node2</title>
<g id="a_edge1_Node000001_Node000002"><a xlink:title=" ">
<path fill="none" stroke="#63b8ff" d="M130.09,-47.5C138.08,-47.5 146.29,-47.5 154.4,-47.5"/>
<polygon fill="#63b8ff" stroke="#63b8ff" points="154.23,-51 164.23,-47.5 154.23,-44 154.23,-51"/>
</a>
</g>
</g>
<!-- Node3 -->
<g id="Node000003" class="node">
<title>Node3</title>
<g id="a_Node000003"><a xlink:href="exif-log_8c.html#a7a9b738a7429197d68c80ffedac7d8fb" target="_top" xlink:title=" ">
<polygon fill="white" stroke="#666666" points="412,-57 326,-57 326,-38 412,-38 412,-57"/>
<text text-anchor="middle" x="369" y="-45" font-family="Helvetica,sans-Serif" font-size="10.00">exif_log_unref</text>
</a>
</g>
</g>
<!-- Node2&#45;&gt;Node3 -->
<g id="edge2_Node000002_Node000003" class="edge">
<title>Node2&#45;&gt;Node3</title>
<g id="a_edge2_Node000002_Node000003"><a xlink:title=" ">
<path fill="none" stroke="#63b8ff" d="M290.37,-47.5C298.39,-47.5 306.55,-47.5 314.42,-47.5"/>
<polygon fill="#63b8ff" stroke="#63b8ff" points="314.18,-51 324.18,-47.5 314.18,-44 314.18,-51"/>
</a>
</g>
</g>
<!-- Node5 -->
<g id="Node000005" class="node">
<title>Node5</title>
<g id="a_Node000005"><a xlink:href="exif-mem_8c.html#a43190b81b4b4bdb4ffb89bfb612051b1" target="_top" xlink:title=" ">
<polygon fill="white" stroke="#666666" points="788,-57 697,-57 697,-38 788,-38 788,-57"/>
<text text-anchor="middle" x="742.5" y="-45" font-family="Helvetica,sans-Serif" font-size="10.00">exif_mem_free</text>
</a>
</g>
</g>
<!-- Node2&#45;&gt;Node5 -->
<g id="edge7_Node000002_Node000005" class="edge">
<title>Node2&#45;&gt;Node5</title>
<g id="a_edge7_Node000002_Node000005"><a xlink:title=" ">
<path fill="none" stroke="#63b8ff" d="M273.19,-57.47C289.67,-60.72 308.6,-63.9 326,-65.5 474.27,-79.14 512.86,-76.53 661,-61.5 668.87,-60.7 677.12,-59.59 685.23,-58.33"/>
<polygon fill="#63b8ff" stroke="#63b8ff" points="685.73,-61.8 695.03,-56.73 684.6,-54.89 685.73,-61.8"/>
</a>
</g>
</g>
<!-- Node6 -->
<g id="Node000006" class="node">
<title>Node6</title>
<g id="a_Node000006"><a xlink:href="exif-mem_8c.html#a66744e0987af08c443df247ce55f7d87" target="_top" xlink:title="Unrefcount an ExifMem.">
<polygon fill="white" stroke="#666666" points="661,-19 564,-19 564,0 661,0 661,-19"/>
<text text-anchor="middle" x="612.5" y="-7" font-family="Helvetica,sans-Serif" font-size="10.00">exif_mem_unref</text>
</a>
</g>
</g>
<!-- Node2&#45;&gt;Node6 -->
<g id="edge8_Node000002_Node000006" class="edge">
<title>Node2&#45;&gt;Node6</title>
<g id="a_edge8_Node000002_Node000006"><a xlink:title=" ">
<path fill="none" stroke="#63b8ff" d="M273.72,-37.51C290.09,-34.18 308.81,-30.75 326,-28.5 403.76,-18.34 494.19,-13.48 552.09,-11.26"/>
<polygon fill="#63b8ff" stroke="#63b8ff" points="552.2,-14.75 562.07,-10.89 551.95,-7.76 552.2,-14.75"/>
</a>
</g>
</g>
<!-- Node4 -->
<g id="Node000004" class="node">
<title>Node4</title>
<g id="a_Node000004"><a xlink:href="exif-log_8c.html#acd0808d6d5be73f28059797c2e2e67dc" target="_top" xlink:title="Delete instance of ExifLog.">
<polygon fill="white" stroke="#666666" points="528,-57 448,-57 448,-38 528,-38 528,-57"/>
<text text-anchor="middle" x="488" y="-45" font-family="Helvetica,sans-Serif" font-size="10.00">exif_log_free</text>
</a>
</g>
</g>
<!-- Node3&#45;&gt;Node4 -->
<g id="edge3_Node000003_Node000004" class="edge">
<title>Node3&#45;&gt;Node4</title>
<g id="a_edge3_Node000003_Node000004"><a xlink:title=" ">
<path fill="none" stroke="#63b8ff" d="M412.24,-47.5C419.98,-47.5 428.13,-47.5 436.09,-47.5"/>
<polygon fill="#63b8ff" stroke="#63b8ff" points="436.04,-51 446.04,-47.5 436.04,-44 436.04,-51"/>
</a>
</g>
</g>
<!-- Node4&#45;&gt;Node5 -->
<g id="edge4_Node000004_Node000005" class="edge">
<title>Node4&#45;&gt;Node5</title>
<g id="a_edge4_Node000004_Node000005"><a xlink:title=" ">
<path fill="none" stroke="#63b8ff" d="M528.45,-47.5C570.61,-47.5 637.79,-47.5 685.43,-47.5"/>
<polygon fill="#63b8ff" stroke="#63b8ff" points="685.28,-51 695.28,-47.5 685.28,-44 685.28,-51"/>
</a>
</g>
</g>
<!-- Node4&#45;&gt;Node6 -->
<g id="edge5_Node000004_Node000006" class="edge">
<title>Node4&#45;&gt;Node6</title>
<g id="a_edge5_Node000004_Node000006"><a xlink:title=" ">
<path fill="none" stroke="#63b8ff" d="M521.19,-37.52C535.67,-33.02 552.99,-27.65 568.56,-22.82"/>
<polygon fill="#63b8ff" stroke="#63b8ff" points="569.57,-26.17 578.08,-19.87 567.5,-19.49 569.57,-26.17"/>
</a>
</g>
</g>
<!-- Node6&#45;&gt;Node5 -->
<g id="edge6_Node000006_Node000005" class="edge">
<title>Node6&#45;&gt;Node5</title>
<g id="a_edge6_Node000006_Node000005"><a xlink:title=" ">
<path fill="none" stroke="#63b8ff" d="M647.13,-19.48C662.42,-24.02 680.71,-29.45 697.11,-34.32"/>
<polygon fill="#63b8ff" stroke="#63b8ff" points="696.06,-37.66 706.64,-37.15 698.05,-30.95 696.06,-37.66"/>
</a>
</g>
</g>
</g>
</svg>
