<?xml version="1.0" encoding="UTF-8" standalone="no"?>
<!DOCTYPE svg PUBLIC "-//W3C//DTD SVG 1.1//EN"
 "http://www.w3.org/Graphics/SVG/1.1/DTD/svg11.dtd">
<!-- Generated by graphviz version 2.44.1 (0)
 -->
<!-- Title: exif_data_save_data_entry Pages: 1 -->
<svg width="417pt" height="268pt"
 viewBox="0.00 0.00 417.00 268.00" xmlns="http://www.w3.org/2000/svg" xmlns:xlink="http://www.w3.org/1999/xlink">
<g id="graph0" class="graph" transform="scale(1 1) rotate(0) translate(4 264)">
<title>exif_data_save_data_entry</title>
<polygon fill="white" stroke="transparent" points="-4,4 -4,-264 413,-264 413,4 -4,4"/>
<!-- Node1 -->
<g id="node1" class="node">
<title>Node1</title>
<g id="a_node1"><a xlink:title=" ">
<polygon fill="#bfbfbf" stroke="black" points="0,-121 0,-151 118,-151 118,-121 0,-121"/>
<text text-anchor="start" x="8" y="-139" font-family="Helvetica,sans-Serif" font-size="10.00">exif_data_save_data</text>
<text text-anchor="middle" x="59" y="-128" font-family="Helvetica,sans-Serif" font-size="10.00">_entry</text>
</a>
</g>
</g>
<!-- Node2 -->
<g id="node2" class="node">
<title>Node2</title>
<g id="a_node2"><a xlink:href="exif-format_8c.html#a924038efe0cd8ebade8f44619dd794f3" target="_top" xlink:title="Return the raw size of the given EXIF data type.">
<polygon fill="white" stroke="black" points="158.5,-240.5 158.5,-259.5 277.5,-259.5 277.5,-240.5 158.5,-240.5"/>
<text text-anchor="middle" x="218" y="-247.5" font-family="Helvetica,sans-Serif" font-size="10.00">exif_format_get_size</text>
</a>
</g>
</g>
<!-- Node1&#45;&gt;Node2 -->
<g id="edge1" class="edge">
<title>Node1&#45;&gt;Node2</title>
<path fill="none" stroke="midnightblue" d="M71.01,-151.15C86.99,-172.09 118.61,-209.7 154,-231 157.58,-233.15 161.42,-235.08 165.38,-236.8"/>
<polygon fill="midnightblue" stroke="midnightblue" points="164.16,-240.08 174.75,-240.45 166.7,-233.56 164.16,-240.08"/>
</g>
<!-- Node3 -->
<g id="node3" class="node">
<title>Node3</title>
<g id="a_node3"><a xlink:href="exif-mem_8c.html#a43190b81b4b4bdb4ffb89bfb612051b1" target="_top" xlink:title=" ">
<polygon fill="white" stroke="black" points="172.5,-202.5 172.5,-221.5 263.5,-221.5 263.5,-202.5 172.5,-202.5"/>
<text text-anchor="middle" x="218" y="-209.5" font-family="Helvetica,sans-Serif" font-size="10.00">exif_mem_free</text>
</a>
</g>
</g>
<!-- Node1&#45;&gt;Node3 -->
<g id="edge2" class="edge">
<title>Node1&#45;&gt;Node3</title>
<path fill="none" stroke="midnightblue" d="M81.55,-151.23C100.07,-163.79 127.85,-181.35 154,-193 159.09,-195.27 164.52,-197.36 169.99,-199.26"/>
<polygon fill="midnightblue" stroke="midnightblue" points="169.19,-202.68 179.79,-202.47 171.38,-196.03 169.19,-202.68"/>
</g>
<!-- Node4 -->
<g id="node4" class="node">
<title>Node4</title>
<g id="a_node4"><a xlink:href="exif-mem_8c.html#a3dcfe6794d82e79e92da5e2c62484b17" target="_top" xlink:title=" ">
<polygon fill="white" stroke="black" points="166,-164.5 166,-183.5 270,-183.5 270,-164.5 166,-164.5"/>
<text text-anchor="middle" x="218" y="-171.5" font-family="Helvetica,sans-Serif" font-size="10.00">exif_mem_realloc</text>
</a>
</g>
</g>
<!-- Node1&#45;&gt;Node4 -->
<g id="edge3" class="edge">
<title>Node1&#45;&gt;Node4</title>
<path fill="none" stroke="midnightblue" d="M118.01,-150.04C134.21,-153.96 151.65,-158.18 167.32,-161.98"/>
<polygon fill="midnightblue" stroke="midnightblue" points="166.78,-165.45 177.33,-164.4 168.43,-158.64 166.78,-165.45"/>
</g>
<!-- Node5 -->
<g id="node5" class="node">
<title>Node5</title>
<g id="a_node5"><a xlink:href="exif-mnote-data_8c.html#a704500ea880e6727d8b4a98ff38c0a25" target="_top" xlink:title="Save the raw MakerNote data into a memory buffer.">
<polygon fill="white" stroke="black" points="154,-126.5 154,-145.5 282,-145.5 282,-126.5 154,-126.5"/>
<text text-anchor="middle" x="218" y="-133.5" font-family="Helvetica,sans-Serif" font-size="10.00">exif_mnote_data_save</text>
</a>
</g>
</g>
<!-- Node1&#45;&gt;Node5 -->
<g id="edge4" class="edge">
<title>Node1&#45;&gt;Node5</title>
<path fill="none" stroke="midnightblue" d="M118.01,-136C126.43,-136 135.18,-136 143.84,-136"/>
<polygon fill="midnightblue" stroke="midnightblue" points="143.95,-139.5 153.95,-136 143.95,-132.5 143.95,-139.5"/>
</g>
<!-- Node6 -->
<g id="node6" class="node">
<title>Node6</title>
<g id="a_node6"><a xlink:href="exif-mnote-data-priv_8h.html#a17548c880619140855af60b037a8c730" target="_top" xlink:title=" ">
<polygon fill="white" stroke="black" points="158.5,-77 158.5,-107 277.5,-107 277.5,-77 158.5,-77"/>
<text text-anchor="start" x="166.5" y="-95" font-family="Helvetica,sans-Serif" font-size="10.00">exif_mnote_data_set</text>
<text text-anchor="middle" x="218" y="-84" font-family="Helvetica,sans-Serif" font-size="10.00">_offset</text>
</a>
</g>
</g>
<!-- Node1&#45;&gt;Node6 -->
<g id="edge5" class="edge">
<title>Node1&#45;&gt;Node6</title>
<path fill="none" stroke="midnightblue" d="M113.59,-120.98C126.4,-117.39 140.2,-113.52 153.42,-109.82"/>
<polygon fill="midnightblue" stroke="midnightblue" points="154.7,-113.1 163.38,-107.03 152.81,-106.35 154.7,-113.1"/>
</g>
<!-- Node7 -->
<g id="node7" class="node">
<title>Node7</title>
<g id="a_node7"><a xlink:href="exif-utils_8c.html#ac90147d0cc97bec7a577bf9576191bf8" target="_top" xlink:title="Store an ExifLong value into memory in EXIF format.">
<polygon fill="white" stroke="black" points="177,-38.5 177,-57.5 259,-57.5 259,-38.5 177,-38.5"/>
<text text-anchor="middle" x="218" y="-45.5" font-family="Helvetica,sans-Serif" font-size="10.00">exif_set_long</text>
</a>
</g>
</g>
<!-- Node1&#45;&gt;Node7 -->
<g id="edge6" class="edge">
<title>Node1&#45;&gt;Node7</title>
<path fill="none" stroke="midnightblue" d="M77.26,-120.89C95.33,-105.73 125.04,-82.59 154,-68 159.25,-65.35 164.93,-62.96 170.64,-60.84"/>
<polygon fill="midnightblue" stroke="midnightblue" points="171.94,-64.09 180.24,-57.5 169.64,-57.48 171.94,-64.09"/>
</g>
<!-- Node9 -->
<g id="node9" class="node">
<title>Node9</title>
<g id="a_node9"><a xlink:href="exif-utils_8c.html#ad905d16e26b4052a1db34dbebdc37341" target="_top" xlink:title="Store an ExifShort value into memory in EXIF format.">
<polygon fill="white" stroke="black" points="175,-0.5 175,-19.5 261,-19.5 261,-0.5 175,-0.5"/>
<text text-anchor="middle" x="218" y="-7.5" font-family="Helvetica,sans-Serif" font-size="10.00">exif_set_short</text>
</a>
</g>
</g>
<!-- Node1&#45;&gt;Node9 -->
<g id="edge8" class="edge">
<title>Node1&#45;&gt;Node9</title>
<path fill="none" stroke="midnightblue" d="M69.29,-120.83C84.26,-97.63 115.94,-53.47 154,-29 157.57,-26.71 161.42,-24.68 165.41,-22.89"/>
<polygon fill="midnightblue" stroke="midnightblue" points="166.88,-26.07 174.88,-19.12 164.3,-19.56 166.88,-26.07"/>
</g>
<!-- Node8 -->
<g id="node8" class="node">
<title>Node8</title>
<g id="a_node8"><a xlink:href="exif-utils_8c.html#ae6e3b9d1663f9ab9bd462d73a310ca03" target="_top" xlink:title="Store an ExifSLong value into memory in EXIF format.">
<polygon fill="white" stroke="black" points="320,-38.5 320,-57.5 407,-57.5 407,-38.5 320,-38.5"/>
<text text-anchor="middle" x="363.5" y="-45.5" font-family="Helvetica,sans-Serif" font-size="10.00">exif_set_slong</text>
</a>
</g>
</g>
<!-- Node7&#45;&gt;Node8 -->
<g id="edge7" class="edge">
<title>Node7&#45;&gt;Node8</title>
<path fill="none" stroke="midnightblue" d="M259.35,-48C275.01,-48 293.14,-48 309.8,-48"/>
<polygon fill="midnightblue" stroke="midnightblue" points="309.95,-51.5 319.95,-48 309.95,-44.5 309.95,-51.5"/>
</g>
<!-- Node10 -->
<g id="node10" class="node">
<title>Node10</title>
<g id="a_node10"><a xlink:href="exif-utils_8c.html#a6504651147702fc6db9a5cd4aa997023" target="_top" xlink:title="Store an ExifSShort value into memory in EXIF format.">
<polygon fill="white" stroke="black" points="318,-0.5 318,-19.5 409,-19.5 409,-0.5 318,-0.5"/>
<text text-anchor="middle" x="363.5" y="-7.5" font-family="Helvetica,sans-Serif" font-size="10.00">exif_set_sshort</text>
</a>
</g>
</g>
<!-- Node9&#45;&gt;Node10 -->
<g id="edge9" class="edge">
<title>Node9&#45;&gt;Node10</title>
<path fill="none" stroke="midnightblue" d="M261.28,-10C275.72,-10 292.09,-10 307.39,-10"/>
<polygon fill="midnightblue" stroke="midnightblue" points="307.78,-13.5 317.78,-10 307.78,-6.5 307.78,-13.5"/>
</g>
</g>
</svg>
