<?xml version="1.0" encoding="UTF-8" standalone="no"?>
<!DOCTYPE svg PUBLIC "-//W3C//DTD SVG 1.1//EN"
 "http://www.w3.org/Graphics/SVG/1.1/DTD/svg11.dtd">
<!-- Generated by graphviz version 2.44.1 (0)
 -->
<!-- Title: libexif/pentax/exif&#45;mnote&#45;data&#45;pentax.h Pages: 1 -->
<svg width="766pt" height="419pt"
 viewBox="0.00 0.00 765.50 419.00" xmlns="http://www.w3.org/2000/svg" xmlns:xlink="http://www.w3.org/1999/xlink">
<g id="graph0" class="graph" transform="scale(1 1) rotate(0) translate(4 415)">
<title>libexif/pentax/exif&#45;mnote&#45;data&#45;pentax.h</title>
<polygon fill="white" stroke="transparent" points="-4,4 -4,-415 761.5,-415 761.5,4 -4,4"/>
<!-- Node1 -->
<g id="node1" class="node">
<title>Node1</title>
<g id="a_node1"><a xlink:title=" ">
<polygon fill="#bfbfbf" stroke="black" points="96,-380.5 96,-410.5 220,-410.5 220,-380.5 96,-380.5"/>
<text text-anchor="start" x="104" y="-398.5" font-family="Helvetica,sans-Serif" font-size="10.00">libexif/pentax/exif</text>
<text text-anchor="middle" x="158" y="-387.5" font-family="Helvetica,sans-Serif" font-size="10.00">&#45;mnote&#45;data&#45;pentax.h</text>
</a>
</g>
</g>
<!-- Node2 -->
<g id="node2" class="node">
<title>Node2</title>
<g id="a_node2"><a xlink:href="exif-byte-order_8h.html" target="_top" xlink:title="Defines the ExifByteOrder enum and the associated functions.">
<polygon fill="white" stroke="black" points="28.5,-6 28.5,-25 159.5,-25 159.5,-6 28.5,-6"/>
<text text-anchor="middle" x="94" y="-13" font-family="Helvetica,sans-Serif" font-size="10.00">libexif/exif&#45;byte&#45;order.h</text>
</a>
</g>
</g>
<!-- Node1&#45;&gt;Node2 -->
<g id="edge1" class="edge">
<title>Node1&#45;&gt;Node2</title>
<path fill="none" stroke="midnightblue" d="M112.55,-380.42C91.48,-372.25 67.16,-360.3 49,-344 17.55,-315.76 0,-304.76 0,-262.5 0,-262.5 0,-262.5 0,-143 0,-94.61 44.86,-52.7 72.6,-31.42"/>
<polygon fill="midnightblue" stroke="midnightblue" points="74.98,-34.02 80.93,-25.25 70.81,-28.39 74.98,-34.02"/>
</g>
<!-- Node3 -->
<g id="node3" class="node">
<title>Node3</title>
<g id="a_node3"><a xlink:href="exif-mnote-data_8h.html" target="_top" xlink:title="Handling EXIF MakerNote tags.">
<polygon fill="white" stroke="black" points="142.5,-246.5 142.5,-276.5 245.5,-276.5 245.5,-246.5 142.5,-246.5"/>
<text text-anchor="start" x="150.5" y="-264.5" font-family="Helvetica,sans-Serif" font-size="10.00">libexif/exif&#45;mnote</text>
<text text-anchor="middle" x="194" y="-253.5" font-family="Helvetica,sans-Serif" font-size="10.00">&#45;data.h</text>
</a>
</g>
</g>
<!-- Node1&#45;&gt;Node3 -->
<g id="edge2" class="edge">
<title>Node1&#45;&gt;Node3</title>
<path fill="none" stroke="midnightblue" d="M164.49,-380.16C168.81,-370.19 174.34,-356.49 178,-344 183.54,-325.11 187.72,-303.2 190.42,-286.85"/>
<polygon fill="midnightblue" stroke="midnightblue" points="193.95,-286.95 192.05,-276.53 187.03,-285.86 193.95,-286.95"/>
</g>
<!-- Node5 -->
<g id="node5" class="node">
<title>Node5</title>
<g id="a_node5"><a xlink:href="exif-mem_8h.html" target="_top" xlink:title="Define the ExifMem data type and the associated functions.">
<polygon fill="white" stroke="black" points="311,-134.5 311,-153.5 417,-153.5 417,-134.5 311,-134.5"/>
<text text-anchor="middle" x="364" y="-141.5" font-family="Helvetica,sans-Serif" font-size="10.00">libexif/exif&#45;mem.h</text>
</a>
</g>
</g>
<!-- Node1&#45;&gt;Node5 -->
<g id="edge37" class="edge">
<title>Node1&#45;&gt;Node5</title>
<path fill="none" stroke="midnightblue" d="M169.67,-380.37C205.17,-337.37 311.81,-208.22 350.11,-161.82"/>
<polygon fill="midnightblue" stroke="midnightblue" points="352.96,-163.87 356.63,-153.93 347.56,-159.41 352.96,-163.87"/>
</g>
<!-- Node10 -->
<g id="node10" class="node">
<title>Node10</title>
<g id="a_node10"><a xlink:href="exif-mnote-data-priv_8h.html" target="_top" xlink:title=" ">
<polygon fill="white" stroke="black" points="66.5,-313.5 66.5,-343.5 169.5,-343.5 169.5,-313.5 66.5,-313.5"/>
<text text-anchor="start" x="74.5" y="-331.5" font-family="Helvetica,sans-Serif" font-size="10.00">libexif/exif&#45;mnote</text>
<text text-anchor="middle" x="118" y="-320.5" font-family="Helvetica,sans-Serif" font-size="10.00">&#45;data&#45;priv.h</text>
</a>
</g>
</g>
<!-- Node1&#45;&gt;Node10 -->
<g id="edge10" class="edge">
<title>Node1&#45;&gt;Node10</title>
<path fill="none" stroke="midnightblue" d="M149.32,-380.4C144.24,-372.13 137.7,-361.51 131.91,-352.1"/>
<polygon fill="midnightblue" stroke="midnightblue" points="134.88,-350.26 126.66,-343.58 128.92,-353.93 134.88,-350.26"/>
</g>
<!-- Node11 -->
<g id="node11" class="node">
<title>Node11</title>
<g id="a_node11"><a xlink:href="mnote-pentax-entry_8h.html" target="_top" xlink:title=" ">
<polygon fill="white" stroke="black" points="177.5,-67.5 177.5,-97.5 296.5,-97.5 296.5,-67.5 177.5,-67.5"/>
<text text-anchor="start" x="185.5" y="-85.5" font-family="Helvetica,sans-Serif" font-size="10.00">libexif/pentax/mnote</text>
<text text-anchor="middle" x="237" y="-74.5" font-family="Helvetica,sans-Serif" font-size="10.00">&#45;pentax&#45;entry.h</text>
</a>
</g>
</g>
<!-- Node1&#45;&gt;Node11 -->
<g id="edge14" class="edge">
<title>Node1&#45;&gt;Node11</title>
<path fill="none" stroke="midnightblue" d="M104.53,-380.46C86.22,-372.82 67.67,-361.26 57,-344 49.76,-332.28 52.7,-326.09 57,-313 86.8,-222.39 170.19,-140.87 212.18,-104.12"/>
<polygon fill="midnightblue" stroke="midnightblue" points="214.48,-106.77 219.76,-97.58 209.9,-101.47 214.48,-106.77"/>
</g>
<!-- Node13 -->
<g id="node13" class="node">
<title>Node13</title>
<g id="a_node13"><a xlink:href="exif-data_8h.html" target="_top" xlink:title="Defines the ExifData type and the associated functions.">
<polygon fill="white" stroke="black" points="380,-319 380,-338 482,-338 482,-319 380,-319"/>
<text text-anchor="middle" x="431" y="-326" font-family="Helvetica,sans-Serif" font-size="10.00">libexif/exif&#45;data.h</text>
</a>
</g>
</g>
<!-- Node1&#45;&gt;Node13 -->
<g id="edge18" class="edge">
<title>Node1&#45;&gt;Node13</title>
<path fill="none" stroke="midnightblue" d="M216.9,-380.48C267.43,-368.45 339.2,-351.36 385.43,-340.35"/>
<polygon fill="midnightblue" stroke="midnightblue" points="386.26,-343.75 395.18,-338.03 384.64,-336.94 386.26,-343.75"/>
</g>
<!-- Node4 -->
<g id="node4" class="node">
<title>Node4</title>
<g id="a_node4"><a xlink:href="exif-log_8h.html" target="_top" xlink:title="Log message infrastructure.">
<polygon fill="white" stroke="black" points="178.5,-190.5 178.5,-209.5 273.5,-209.5 273.5,-190.5 178.5,-190.5"/>
<text text-anchor="middle" x="226" y="-197.5" font-family="Helvetica,sans-Serif" font-size="10.00">libexif/exif&#45;log.h</text>
</a>
</g>
</g>
<!-- Node3&#45;&gt;Node4 -->
<g id="edge3" class="edge">
<title>Node3&#45;&gt;Node4</title>
<path fill="none" stroke="midnightblue" d="M201.58,-246.4C206.04,-238.11 211.72,-227.55 216.48,-218.71"/>
<polygon fill="midnightblue" stroke="midnightblue" points="219.69,-220.12 221.34,-209.66 213.52,-216.81 219.69,-220.12"/>
</g>
<!-- Node4&#45;&gt;Node5 -->
<g id="edge4" class="edge">
<title>Node4&#45;&gt;Node5</title>
<path fill="none" stroke="midnightblue" d="M247.87,-190.44C270.78,-181.48 306.98,-167.31 332.87,-157.18"/>
<polygon fill="midnightblue" stroke="midnightblue" points="334.2,-160.42 342.24,-153.52 331.65,-153.9 334.2,-160.42"/>
</g>
<!-- Node9 -->
<g id="node9" class="node">
<title>Node9</title>
<g id="a_node9"><a xlink:title=" ">
<polygon fill="white" stroke="#bfbfbf" points="198,-134.5 198,-153.5 254,-153.5 254,-134.5 198,-134.5"/>
<text text-anchor="middle" x="226" y="-141.5" font-family="Helvetica,sans-Serif" font-size="10.00">stdarg.h</text>
</a>
</g>
</g>
<!-- Node4&#45;&gt;Node9 -->
<g id="edge9" class="edge">
<title>Node4&#45;&gt;Node9</title>
<path fill="none" stroke="midnightblue" d="M226,-190.08C226,-183.01 226,-172.86 226,-163.99"/>
<polygon fill="midnightblue" stroke="midnightblue" points="229.5,-163.75 226,-153.75 222.5,-163.75 229.5,-163.75"/>
</g>
<!-- Node6 -->
<g id="node6" class="node">
<title>Node6</title>
<g id="a_node6"><a xlink:href="exif-utils_8h.html" target="_top" xlink:title="EXIF data manipulation functions and types.">
<polygon fill="white" stroke="black" points="314.5,-73 314.5,-92 415.5,-92 415.5,-73 314.5,-73"/>
<text text-anchor="middle" x="365" y="-80" font-family="Helvetica,sans-Serif" font-size="10.00">libexif/exif&#45;utils.h</text>
</a>
</g>
</g>
<!-- Node5&#45;&gt;Node6 -->
<g id="edge5" class="edge">
<title>Node5&#45;&gt;Node6</title>
<path fill="none" stroke="midnightblue" d="M364.14,-134.48C364.28,-126.08 364.5,-112.98 364.69,-102.16"/>
<polygon fill="midnightblue" stroke="midnightblue" points="368.19,-102.07 364.86,-92.01 361.19,-101.95 368.19,-102.07"/>
</g>
<!-- Node6&#45;&gt;Node2 -->
<g id="edge6" class="edge">
<title>Node6&#45;&gt;Node2</title>
<path fill="none" stroke="midnightblue" d="M329.79,-72.98C321.65,-71.01 313.02,-68.93 305,-67 248.04,-53.3 182.41,-37.61 139.67,-27.4"/>
<polygon fill="midnightblue" stroke="midnightblue" points="140.39,-23.97 129.85,-25.05 138.76,-30.78 140.39,-23.97"/>
</g>
<!-- Node7 -->
<g id="node7" class="node">
<title>Node7</title>
<g id="a_node7"><a xlink:href="exif-format_8h.html" target="_top" xlink:title="Handling native EXIF data types.">
<polygon fill="white" stroke="black" points="425.5,-6 425.5,-25 538.5,-25 538.5,-6 425.5,-6"/>
<text text-anchor="middle" x="482" y="-13" font-family="Helvetica,sans-Serif" font-size="10.00">libexif/exif&#45;format.h</text>
</a>
</g>
</g>
<!-- Node6&#45;&gt;Node7 -->
<g id="edge7" class="edge">
<title>Node6&#45;&gt;Node7</title>
<path fill="none" stroke="midnightblue" d="M380.78,-72.73C400.51,-61.77 434.51,-42.88 457.61,-30.05"/>
<polygon fill="midnightblue" stroke="midnightblue" points="459.43,-33.04 466.47,-25.13 456.03,-26.92 459.43,-33.04"/>
</g>
<!-- Node8 -->
<g id="node8" class="node">
<title>Node8</title>
<g id="a_node8"><a xlink:title=" ">
<polygon fill="white" stroke="#bfbfbf" points="315,-6 315,-25 407,-25 407,-6 315,-6"/>
<text text-anchor="middle" x="361" y="-13" font-family="Helvetica,sans-Serif" font-size="10.00">libexif/_stdint.h</text>
</a>
</g>
</g>
<!-- Node6&#45;&gt;Node8 -->
<g id="edge8" class="edge">
<title>Node6&#45;&gt;Node8</title>
<path fill="none" stroke="midnightblue" d="M364.46,-72.73C363.87,-63.18 362.91,-47.62 362.16,-35.28"/>
<polygon fill="midnightblue" stroke="midnightblue" points="365.64,-34.89 361.53,-25.13 358.65,-35.32 365.64,-34.89"/>
</g>
<!-- Node10&#45;&gt;Node2 -->
<g id="edge12" class="edge">
<title>Node10&#45;&gt;Node2</title>
<path fill="none" stroke="midnightblue" d="M116.91,-313.33C113.02,-262.97 99.87,-92.61 95.46,-35.41"/>
<polygon fill="midnightblue" stroke="midnightblue" points="98.94,-34.97 94.68,-25.27 91.96,-35.51 98.94,-34.97"/>
</g>
<!-- Node10&#45;&gt;Node3 -->
<g id="edge11" class="edge">
<title>Node10&#45;&gt;Node3</title>
<path fill="none" stroke="midnightblue" d="M134.49,-313.4C144.85,-304.54 158.38,-292.96 169.93,-283.09"/>
<polygon fill="midnightblue" stroke="midnightblue" points="172.22,-285.74 177.54,-276.58 167.67,-280.42 172.22,-285.74"/>
</g>
<!-- Node10&#45;&gt;Node4 -->
<g id="edge13" class="edge">
<title>Node10&#45;&gt;Node4</title>
<path fill="none" stroke="midnightblue" d="M116.94,-313.29C116.39,-295.71 118,-265.68 133,-246 144.83,-230.47 163.41,-220.01 180.87,-213.12"/>
<polygon fill="midnightblue" stroke="midnightblue" points="182.2,-216.36 190.4,-209.65 179.8,-209.78 182.2,-216.36"/>
</g>
<!-- Node11&#45;&gt;Node2 -->
<g id="edge16" class="edge">
<title>Node11&#45;&gt;Node2</title>
<path fill="none" stroke="midnightblue" d="M205.97,-67.4C180.99,-56.04 146.18,-40.22 122.04,-29.24"/>
<polygon fill="midnightblue" stroke="midnightblue" points="123.27,-25.96 112.72,-25.01 120.37,-32.33 123.27,-25.96"/>
</g>
<!-- Node11&#45;&gt;Node7 -->
<g id="edge15" class="edge">
<title>Node11&#45;&gt;Node7</title>
<path fill="none" stroke="midnightblue" d="M289.86,-67.48C334.82,-55.55 398.53,-38.64 440.06,-27.63"/>
<polygon fill="midnightblue" stroke="midnightblue" points="441.09,-30.98 449.85,-25.03 439.29,-24.21 441.09,-30.98"/>
</g>
<!-- Node12 -->
<g id="node12" class="node">
<title>Node12</title>
<g id="a_node12"><a xlink:href="mnote-pentax-tag_8h.html" target="_top" xlink:title=" ">
<polygon fill="white" stroke="black" points="177.5,-0.5 177.5,-30.5 296.5,-30.5 296.5,-0.5 177.5,-0.5"/>
<text text-anchor="start" x="185.5" y="-18.5" font-family="Helvetica,sans-Serif" font-size="10.00">libexif/pentax/mnote</text>
<text text-anchor="middle" x="237" y="-7.5" font-family="Helvetica,sans-Serif" font-size="10.00">&#45;pentax&#45;tag.h</text>
</a>
</g>
</g>
<!-- Node11&#45;&gt;Node12 -->
<g id="edge17" class="edge">
<title>Node11&#45;&gt;Node12</title>
<path fill="none" stroke="midnightblue" d="M237,-67.4C237,-59.64 237,-49.81 237,-40.86"/>
<polygon fill="midnightblue" stroke="midnightblue" points="240.5,-40.58 237,-30.58 233.5,-40.58 240.5,-40.58"/>
</g>
<!-- Node13&#45;&gt;Node2 -->
<g id="edge19" class="edge">
<title>Node13&#45;&gt;Node2</title>
<path fill="none" stroke="midnightblue" d="M412.99,-318.98C381.09,-303.95 312.48,-271.84 254,-246 216.47,-229.42 197.52,-239.49 169,-210 121.66,-161.05 138.76,-130.43 114,-67 109.77,-56.16 104.97,-44.04 101.14,-34.39"/>
<polygon fill="midnightblue" stroke="midnightblue" points="104.37,-33.06 97.42,-25.07 97.87,-35.65 104.37,-33.06"/>
</g>
<!-- Node13&#45;&gt;Node3 -->
<g id="edge35" class="edge">
<title>Node13&#45;&gt;Node3</title>
<path fill="none" stroke="midnightblue" d="M399.53,-318.87C362.81,-308.8 301.25,-291.91 255.05,-279.24"/>
<polygon fill="midnightblue" stroke="midnightblue" points="255.72,-275.8 245.15,-276.53 253.87,-282.55 255.72,-275.8"/>
</g>
<!-- Node13&#45;&gt;Node4 -->
<g id="edge22" class="edge">
<title>Node13&#45;&gt;Node4</title>
<path fill="none" stroke="midnightblue" d="M421.43,-318.8C403.63,-302.9 363.77,-268.72 326,-246 304.41,-233.01 278.42,-221.43 258.34,-213.27"/>
<polygon fill="midnightblue" stroke="midnightblue" points="259.59,-210 249.01,-209.54 257,-216.5 259.59,-210"/>
</g>
<!-- Node13&#45;&gt;Node5 -->
<g id="edge36" class="edge">
<title>Node13&#45;&gt;Node5</title>
<path fill="none" stroke="midnightblue" d="M426.4,-318.71C421.29,-308.76 412.97,-291.97 407,-277 391.22,-237.41 376.72,-189.53 369.27,-163.7"/>
<polygon fill="midnightblue" stroke="midnightblue" points="372.55,-162.44 366.44,-153.79 365.81,-164.36 372.55,-162.44"/>
</g>
<!-- Node14 -->
<g id="node14" class="node">
<title>Node14</title>
<g id="a_node14"><a xlink:href="exif-data-type_8h.html" target="_top" xlink:title=" ">
<polygon fill="white" stroke="black" points="515,-134.5 515,-153.5 643,-153.5 643,-134.5 515,-134.5"/>
<text text-anchor="middle" x="579" y="-141.5" font-family="Helvetica,sans-Serif" font-size="10.00">libexif/exif&#45;data&#45;type.h</text>
</a>
</g>
</g>
<!-- Node13&#45;&gt;Node14 -->
<g id="edge20" class="edge">
<title>Node13&#45;&gt;Node14</title>
<path fill="none" stroke="midnightblue" d="M469.88,-319C494.18,-311.74 524.3,-298.9 543,-277 570.94,-244.28 577.36,-191.78 578.73,-163.87"/>
<polygon fill="midnightblue" stroke="midnightblue" points="582.24,-163.65 579.06,-153.55 575.24,-163.43 582.24,-163.65"/>
</g>
<!-- Node15 -->
<g id="node15" class="node">
<title>Node15</title>
<g id="a_node15"><a xlink:href="exif-ifd_8h.html" target="_top" xlink:title=" ">
<polygon fill="white" stroke="black" points="664.5,-134.5 664.5,-153.5 757.5,-153.5 757.5,-134.5 664.5,-134.5"/>
<text text-anchor="middle" x="711" y="-141.5" font-family="Helvetica,sans-Serif" font-size="10.00">libexif/exif&#45;ifd.h</text>
</a>
</g>
</g>
<!-- Node13&#45;&gt;Node15 -->
<g id="edge21" class="edge">
<title>Node13&#45;&gt;Node15</title>
<path fill="none" stroke="midnightblue" d="M476.62,-318.94C512.71,-311.08 563.73,-297.51 605,-277 649.66,-254.81 667.42,-251.54 695,-210 704.14,-196.23 708.06,-177.71 709.74,-163.96"/>
<polygon fill="midnightblue" stroke="midnightblue" points="713.25,-164.02 710.69,-153.74 706.28,-163.37 713.25,-164.02"/>
</g>
<!-- Node16 -->
<g id="node16" class="node">
<title>Node16</title>
<g id="a_node16"><a xlink:href="exif-tag_8h.html" target="_top" xlink:title="Handling EXIF tags.">
<polygon fill="white" stroke="black" points="590,-190.5 590,-209.5 686,-209.5 686,-190.5 590,-190.5"/>
<text text-anchor="middle" x="638" y="-197.5" font-family="Helvetica,sans-Serif" font-size="10.00">libexif/exif&#45;tag.h</text>
</a>
</g>
</g>
<!-- Node13&#45;&gt;Node16 -->
<g id="edge23" class="edge">
<title>Node13&#45;&gt;Node16</title>
<path fill="none" stroke="midnightblue" d="M474.5,-318.97C504.93,-311.5 545.43,-298.4 576,-277 598.27,-261.41 616.88,-235.7 627.73,-218.56"/>
<polygon fill="midnightblue" stroke="midnightblue" points="630.98,-219.96 633.19,-209.6 625,-216.32 630.98,-219.96"/>
</g>
<!-- Node17 -->
<g id="node17" class="node">
<title>Node17</title>
<g id="a_node17"><a xlink:href="exif-content_8h.html" target="_top" xlink:title="Handling EXIF IFDs.">
<polygon fill="white" stroke="black" points="416.5,-252 416.5,-271 533.5,-271 533.5,-252 416.5,-252"/>
<text text-anchor="middle" x="475" y="-259" font-family="Helvetica,sans-Serif" font-size="10.00">libexif/exif&#45;content.h</text>
</a>
</g>
</g>
<!-- Node13&#45;&gt;Node17 -->
<g id="edge26" class="edge">
<title>Node13&#45;&gt;Node17</title>
<path fill="none" stroke="midnightblue" d="M432.15,-318.73C436.87,-308.6 447.93,-291.69 457.82,-279.06"/>
<polygon fill="midnightblue" stroke="midnightblue" points="460.71,-281.06 464.4,-271.13 455.32,-276.59 460.71,-281.06"/>
</g>
<!-- Node16&#45;&gt;Node14 -->
<g id="edge25" class="edge">
<title>Node16&#45;&gt;Node14</title>
<path fill="none" stroke="midnightblue" d="M628.52,-190.32C619.8,-182.34 606.66,-170.31 596.1,-160.65"/>
<polygon fill="midnightblue" stroke="midnightblue" points="598.39,-158 588.65,-153.83 593.67,-163.17 598.39,-158"/>
</g>
<!-- Node16&#45;&gt;Node15 -->
<g id="edge24" class="edge">
<title>Node16&#45;&gt;Node15</title>
<path fill="none" stroke="midnightblue" d="M649.73,-190.32C660.84,-182.11 677.74,-169.6 690.98,-159.81"/>
<polygon fill="midnightblue" stroke="midnightblue" points="693.1,-162.59 699.06,-153.83 688.94,-156.97 693.1,-162.59"/>
</g>
<!-- Node17&#45;&gt;Node4 -->
<g id="edge33" class="edge">
<title>Node17&#45;&gt;Node4</title>
<path fill="none" stroke="midnightblue" d="M439.32,-251.98C395.13,-241.42 319.79,-223.41 271.49,-211.87"/>
<polygon fill="midnightblue" stroke="midnightblue" points="272.15,-208.43 261.61,-209.51 270.52,-215.24 272.15,-208.43"/>
</g>
<!-- Node17&#45;&gt;Node5 -->
<g id="edge34" class="edge">
<title>Node17&#45;&gt;Node5</title>
<path fill="none" stroke="midnightblue" d="M465.17,-251.84C454.13,-242 435.82,-225.31 421,-210 405.58,-194.08 388.99,-174.9 377.7,-161.52"/>
<polygon fill="midnightblue" stroke="midnightblue" points="380.22,-159.08 371.12,-153.65 374.85,-163.57 380.22,-159.08"/>
</g>
<!-- Node17&#45;&gt;Node13 -->
<g id="edge32" class="edge">
<title>Node17&#45;&gt;Node13</title>
<path fill="none" stroke="midnightblue" d="M473.92,-271.13C469.25,-281.2 458.22,-298.1 448.31,-310.77"/>
<polygon fill="midnightblue" stroke="midnightblue" points="445.4,-308.8 441.72,-318.73 450.79,-313.26 445.4,-308.8"/>
</g>
<!-- Node17&#45;&gt;Node16 -->
<g id="edge27" class="edge">
<title>Node17&#45;&gt;Node16</title>
<path fill="none" stroke="midnightblue" d="M498.35,-251.98C526.31,-241.77 573.33,-224.61 604.99,-213.05"/>
<polygon fill="midnightblue" stroke="midnightblue" points="606.5,-216.23 614.69,-209.51 604.1,-209.65 606.5,-216.23"/>
</g>
<!-- Node18 -->
<g id="node18" class="node">
<title>Node18</title>
<g id="a_node18"><a xlink:href="exif-entry_8h.html" target="_top" xlink:title="Handling EXIF entries.">
<polygon fill="white" stroke="black" points="430,-190.5 430,-209.5 534,-209.5 534,-190.5 430,-190.5"/>
<text text-anchor="middle" x="482" y="-197.5" font-family="Helvetica,sans-Serif" font-size="10.00">libexif/exif&#45;entry.h</text>
</a>
</g>
</g>
<!-- Node17&#45;&gt;Node18 -->
<g id="edge28" class="edge">
<title>Node17&#45;&gt;Node18</title>
<path fill="none" stroke="midnightblue" d="M471.1,-251.98C470.25,-243.49 471.35,-230.2 473.56,-219.32"/>
<polygon fill="midnightblue" stroke="midnightblue" points="476.98,-220.07 476.1,-209.51 470.2,-218.31 476.98,-220.07"/>
</g>
<!-- Node18&#45;&gt;Node5 -->
<g id="edge31" class="edge">
<title>Node18&#45;&gt;Node5</title>
<path fill="none" stroke="midnightblue" d="M463.3,-190.44C444.06,-181.64 413.85,-167.81 391.8,-157.72"/>
<polygon fill="midnightblue" stroke="midnightblue" points="393.16,-154.5 382.61,-153.52 390.25,-160.86 393.16,-154.5"/>
</g>
<!-- Node18&#45;&gt;Node7 -->
<g id="edge30" class="edge">
<title>Node18&#45;&gt;Node7</title>
<path fill="none" stroke="midnightblue" d="M482,-190.2C482,-162.19 482,-74.71 482,-35.66"/>
<polygon fill="midnightblue" stroke="midnightblue" points="485.5,-35.21 482,-25.21 478.5,-35.21 485.5,-35.21"/>
</g>
<!-- Node18&#45;&gt;Node17 -->
<g id="edge29" class="edge">
<title>Node18&#45;&gt;Node17</title>
<path fill="none" stroke="midnightblue" d="M485.9,-209.51C486.75,-217.99 485.65,-231.27 483.45,-242.16"/>
<polygon fill="midnightblue" stroke="midnightblue" points="480.02,-241.42 480.9,-251.98 486.8,-243.17 480.02,-241.42"/>
</g>
</g>
</svg>
