<?xml version="1.0" encoding="UTF-8" standalone="no"?>
<!DOCTYPE svg PUBLIC "-//W3C//DTD SVG 1.1//EN"
 "http://www.w3.org/Graphics/SVG/1.1/DTD/svg11.dtd">
<!-- Generated by graphviz version 7.0.1 (0)
 -->
<!-- Title: exif_data_save_data_content Pages: 1 -->
<svg width="699pt" height="369pt"
 viewBox="0.00 0.00 699.00 369.00" xmlns="http://www.w3.org/2000/svg" xmlns:xlink="http://www.w3.org/1999/xlink">
<g id="graph0" class="graph" transform="scale(1 1) rotate(0) translate(4 365)">
<title>exif_data_save_data_content</title>
<!-- Node1 -->
<g id="Node000001" class="node">
<title>Node1</title>
<g id="a_Node000001"><a xlink:title=" ">
<polygon fill="#999999" stroke="#666666" points="118,-159.5 0,-159.5 0,-129.5 118,-129.5 118,-159.5"/>
<text text-anchor="start" x="8" y="-147.5" font-family="Helvetica,sans-Serif" font-size="10.00">exif_data_save_data</text>
<text text-anchor="middle" x="59" y="-136.5" font-family="Helvetica,sans-Serif" font-size="10.00">_content</text>
</a>
</g>
</g>
<!-- Node1&#45;&gt;Node1 -->
<g id="edge7_Node000001_Node000001" class="edge">
<title>Node1&#45;&gt;Node1</title>
<g id="a_edge7_Node000001_Node000001"><a xlink:title=" ">
<path fill="none" stroke="#63b8ff" d="M31.93,-159.78C25.91,-168.91 34.94,-177.5 59,-177.5 72.16,-177.5 80.82,-174.93 84.98,-171.11"/>
<polygon fill="#63b8ff" stroke="#63b8ff" points="88.46,-171.57 85.93,-161.28 81.49,-170.9 88.46,-171.57"/>
</a>
</g>
</g>
<!-- Node2 -->
<g id="Node000002" class="node">
<title>Node2</title>
<g id="a_Node000002"><a xlink:href="exif-data_8c.html#abf711bc683af4b46370d8e22e3e102d1" target="_top" xlink:title=" ">
<polygon fill="white" stroke="#666666" points="258.5,-356 167.5,-356 167.5,-337 258.5,-337 258.5,-356"/>
<text text-anchor="middle" x="213" y="-344" font-family="Helvetica,sans-Serif" font-size="10.00">cmp_func_intel</text>
</a>
</g>
</g>
<!-- Node1&#45;&gt;Node2 -->
<g id="edge1_Node000001_Node000002" class="edge">
<title>Node1&#45;&gt;Node2</title>
<g id="a_edge1_Node000001_Node000002"><a xlink:title=" ">
<path fill="none" stroke="#63b8ff" d="M64.56,-159.91C75.13,-193.17 104.23,-272.5 154,-319.5 159.09,-324.3 165.18,-328.38 171.48,-331.79"/>
<polygon fill="#63b8ff" stroke="#63b8ff" points="169.55,-334.74 180.07,-335.96 172.61,-328.45 169.55,-334.74"/>
</a>
</g>
</g>
<!-- Node6 -->
<g id="Node000006" class="node">
<title>Node6</title>
<g id="a_Node000006"><a xlink:href="exif-data_8c.html#ae10308432fc54768805c6ae0ad0ebf9c" target="_top" xlink:title=" ">
<polygon fill="white" stroke="#666666" points="269.5,-310 156.5,-310 156.5,-291 269.5,-291 269.5,-310"/>
<text text-anchor="middle" x="213" y="-298" font-family="Helvetica,sans-Serif" font-size="10.00">cmp_func_motorola</text>
</a>
</g>
</g>
<!-- Node1&#45;&gt;Node6 -->
<g id="edge5_Node000001_Node000006" class="edge">
<title>Node1&#45;&gt;Node6</title>
<g id="a_edge5_Node000001_Node000006"><a xlink:title=" ">
<path fill="none" stroke="#63b8ff" d="M70.76,-159.94C87.18,-182.89 120.15,-226.72 154,-258.5 164.13,-268.01 176.47,-277.23 187.16,-284.59"/>
<polygon fill="#63b8ff" stroke="#63b8ff" points="184.89,-287.28 195.15,-289.94 188.79,-281.47 184.89,-287.28"/>
</a>
</g>
</g>
<!-- Node7 -->
<g id="Node000007" class="node">
<title>Node7</title>
<g id="a_Node000007"><a xlink:href="exif-data_8c.html#a88e57798676ccd2df6243dd8b7a4d33c" target="_top" xlink:title=" ">
<polygon fill="white" stroke="#666666" points="272,-181.5 154,-181.5 154,-151.5 272,-151.5 272,-181.5"/>
<text text-anchor="start" x="162" y="-169.5" font-family="Helvetica,sans-Serif" font-size="10.00">exif_data_save_data</text>
<text text-anchor="middle" x="213" y="-158.5" font-family="Helvetica,sans-Serif" font-size="10.00">_entry</text>
</a>
</g>
</g>
<!-- Node1&#45;&gt;Node7 -->
<g id="edge8_Node000001_Node000007" class="edge">
<title>Node1&#45;&gt;Node7</title>
<g id="a_edge8_Node000001_Node000007"><a xlink:title=" ">
<path fill="none" stroke="#63b8ff" d="M118.33,-152.94C126.19,-154.08 134.3,-155.25 142.33,-156.42"/>
<polygon fill="#63b8ff" stroke="#63b8ff" points="141.68,-159.86 152.07,-157.83 142.68,-152.93 141.68,-159.86"/>
</a>
</g>
</g>
<!-- Node9 -->
<g id="Node000009" class="node">
<title>Node9</title>
<g id="a_Node000009"><a xlink:href="exif-log_8c.html#a025d4a5d96544913ea6f6ebbec69cb68" target="_top" xlink:title=" ">
<polygon fill="white" stroke="#666666" points="400,-324 344,-324 344,-305 400,-305 400,-324"/>
<text text-anchor="middle" x="372" y="-312" font-family="Helvetica,sans-Serif" font-size="10.00">exif_log</text>
</a>
</g>
</g>
<!-- Node1&#45;&gt;Node9 -->
<g id="edge21_Node000001_Node000009" class="edge">
<title>Node1&#45;&gt;Node9</title>
<g id="a_edge21_Node000001_Node000009"><a xlink:title=" ">
<path fill="none" stroke="#63b8ff" d="M80.81,-159.99C122.14,-190.12 218.31,-257.08 308,-296.5 315.8,-299.93 324.44,-302.89 332.75,-305.37"/>
<polygon fill="#63b8ff" stroke="#63b8ff" points="331.74,-308.72 342.31,-308.04 333.62,-301.98 331.74,-308.72"/>
</a>
</g>
</g>
<!-- Node12 -->
<g id="Node000012" class="node">
<title>Node12</title>
<g id="a_Node000012"><a xlink:href="exif-mem_8c.html#a7302da5374a74202e03a781b7c4b7ebe" target="_top" xlink:title=" ">
<polygon fill="white" stroke="#666666" points="424,-127 320,-127 320,-108 424,-108 424,-127"/>
<text text-anchor="middle" x="372" y="-115" font-family="Helvetica,sans-Serif" font-size="10.00">exif_mem_realloc</text>
</a>
</g>
</g>
<!-- Node1&#45;&gt;Node12 -->
<g id="edge22_Node000001_Node000012" class="edge">
<title>Node1&#45;&gt;Node12</title>
<g id="a_edge22_Node000001_Node000012"><a xlink:title=" ">
<path fill="none" stroke="#63b8ff" d="M118.5,-139.42C172.62,-134.72 252.86,-127.76 308.29,-122.94"/>
<polygon fill="#63b8ff" stroke="#63b8ff" points="308.56,-126.43 318.22,-122.08 307.95,-119.46 308.56,-126.43"/>
</a>
</g>
</g>
<!-- Node15 -->
<g id="Node000015" class="node">
<title>Node15</title>
<g id="a_Node000015"><a xlink:href="exif-utils_8c.html#ac90147d0cc97bec7a577bf9576191bf8" target="_top" xlink:title="Store an ExifLong value into memory in EXIF format.">
<polygon fill="white" stroke="#666666" points="413,-90 331,-90 331,-71 413,-71 413,-90"/>
<text text-anchor="middle" x="372" y="-78" font-family="Helvetica,sans-Serif" font-size="10.00">exif_set_long</text>
</a>
</g>
</g>
<!-- Node1&#45;&gt;Node15 -->
<g id="edge23_Node000001_Node000015" class="edge">
<title>Node1&#45;&gt;Node15</title>
<g id="a_edge23_Node000001_Node000015"><a xlink:title=" ">
<path fill="none" stroke="#63b8ff" d="M118.31,-129.72C130.09,-126.88 142.42,-124.01 154,-121.5 210.41,-109.28 275.52,-97.25 319.59,-89.42"/>
<polygon fill="#63b8ff" stroke="#63b8ff" points="320.15,-92.87 329.39,-87.68 318.93,-85.98 320.15,-92.87"/>
</a>
</g>
</g>
<!-- Node17 -->
<g id="Node000017" class="node">
<title>Node17</title>
<g id="a_Node000017"><a xlink:href="exif-utils_8c.html#ad905d16e26b4052a1db34dbebdc37341" target="_top" xlink:title="Store an ExifShort value into memory in EXIF format.">
<polygon fill="white" stroke="#666666" points="415,-53 329,-53 329,-34 415,-34 415,-53"/>
<text text-anchor="middle" x="372" y="-41" font-family="Helvetica,sans-Serif" font-size="10.00">exif_set_short</text>
</a>
</g>
</g>
<!-- Node1&#45;&gt;Node17 -->
<g id="edge24_Node000001_Node000017" class="edge">
<title>Node1&#45;&gt;Node17</title>
<g id="a_edge24_Node000001_Node000017"><a xlink:title=" ">
<path fill="none" stroke="#63b8ff" d="M83.87,-129.19C102.38,-117.92 128.99,-102.96 154,-93.5 208.05,-73.04 272.97,-59.43 317.63,-51.64"/>
<polygon fill="#63b8ff" stroke="#63b8ff" points="318.05,-55.12 327.33,-49.99 316.88,-48.22 318.05,-55.12"/>
</a>
</g>
</g>
<!-- Node19 -->
<g id="Node000019" class="node">
<title>Node19</title>
<g id="a_Node000019"><a xlink:href="exif-ifd_8c.html#a7877a28898c084bd8311812d550181f2" target="_top" xlink:title="Return a textual name of the given IFD.">
<polygon fill="white" stroke="#666666" points="266.5,-19 159.5,-19 159.5,0 266.5,0 266.5,-19"/>
<text text-anchor="middle" x="213" y="-7" font-family="Helvetica,sans-Serif" font-size="10.00">exif_ifd_get_name</text>
</a>
</g>
</g>
<!-- Node1&#45;&gt;Node19 -->
<g id="edge20_Node000001_Node000019" class="edge">
<title>Node1&#45;&gt;Node19</title>
<g id="a_edge20_Node000001_Node000019"><a xlink:title=" ">
<path fill="none" stroke="#63b8ff" d="M69.46,-129.21C84.67,-105.75 116.67,-60.73 154,-33.5 158.95,-29.89 164.53,-26.7 170.22,-23.93"/>
<polygon fill="#63b8ff" stroke="#63b8ff" points="171.35,-27.26 179.08,-20.01 168.52,-20.86 171.35,-27.26"/>
</a>
</g>
</g>
<!-- Node3 -->
<g id="Node000003" class="node">
<title>Node3</title>
<g id="a_Node000003"><a xlink:href="exif-data_8c.html#a0b662825b4c76063b1ba549bf1259a6d" target="_top" xlink:title=" ">
<polygon fill="white" stroke="#666666" points="404,-361 340,-361 340,-342 404,-342 404,-361"/>
<text text-anchor="middle" x="372" y="-349" font-family="Helvetica,sans-Serif" font-size="10.00">cmp_func</text>
</a>
</g>
</g>
<!-- Node2&#45;&gt;Node3 -->
<g id="edge2_Node000002_Node000003" class="edge">
<title>Node2&#45;&gt;Node3</title>
<g id="a_edge2_Node000002_Node000003"><a xlink:title=" ">
<path fill="none" stroke="#63b8ff" d="M258.99,-347.93C280.86,-348.63 306.99,-349.46 328.52,-350.15"/>
<polygon fill="#63b8ff" stroke="#63b8ff" points="328.32,-353.64 338.43,-350.46 328.55,-346.65 328.32,-353.64"/>
</a>
</g>
</g>
<!-- Node4 -->
<g id="Node000004" class="node">
<title>Node4</title>
<g id="a_Node000004"><a xlink:href="exif-utils_8c.html#a4b4acf537a8c6b9405e7b53be868e4d7" target="_top" xlink:title="Retrieve an ExifShort value from memory.">
<polygon fill="white" stroke="#666666" points="560.5,-361 474.5,-361 474.5,-342 560.5,-342 560.5,-361"/>
<text text-anchor="middle" x="517.5" y="-349" font-family="Helvetica,sans-Serif" font-size="10.00">exif_get_short</text>
</a>
</g>
</g>
<!-- Node3&#45;&gt;Node4 -->
<g id="edge3_Node000003_Node000004" class="edge">
<title>Node3&#45;&gt;Node4</title>
<g id="a_edge3_Node000003_Node000004"><a xlink:title=" ">
<path fill="none" stroke="#63b8ff" d="M404.49,-351.5C421.6,-351.5 443.21,-351.5 462.88,-351.5"/>
<polygon fill="#63b8ff" stroke="#63b8ff" points="462.68,-355 472.68,-351.5 462.68,-348 462.68,-355"/>
</a>
</g>
</g>
<!-- Node5 -->
<g id="Node000005" class="node">
<title>Node5</title>
<g id="a_Node000005"><a xlink:href="exif-utils_8c.html#a6baf094a71392f9cea23ad633ec13c8b" target="_top" xlink:title="Retrieve an ExifSShort value from memory.">
<polygon fill="white" stroke="#666666" points="691,-361 599,-361 599,-342 691,-342 691,-361"/>
<text text-anchor="middle" x="645" y="-349" font-family="Helvetica,sans-Serif" font-size="10.00">exif_get_sshort</text>
</a>
</g>
</g>
<!-- Node4&#45;&gt;Node5 -->
<g id="edge4_Node000004_Node000005" class="edge">
<title>Node4&#45;&gt;Node5</title>
<g id="a_edge4_Node000004_Node000005"><a xlink:title=" ">
<path fill="none" stroke="#63b8ff" d="M560.99,-351.5C569.39,-351.5 578.34,-351.5 587.14,-351.5"/>
<polygon fill="#63b8ff" stroke="#63b8ff" points="587.03,-355 597.03,-351.5 587.03,-348 587.03,-355"/>
</a>
</g>
</g>
<!-- Node6&#45;&gt;Node3 -->
<g id="edge6_Node000006_Node000003" class="edge">
<title>Node6&#45;&gt;Node3</title>
<g id="a_edge6_Node000006_Node000003"><a xlink:title=" ">
<path fill="none" stroke="#63b8ff" d="M241.01,-310.46C259.72,-317.24 285.25,-326.27 308,-333.5 314.76,-335.65 321.96,-337.82 328.99,-339.87"/>
<polygon fill="#63b8ff" stroke="#63b8ff" points="327.78,-343.17 338.35,-342.57 329.71,-336.44 327.78,-343.17"/>
</a>
</g>
</g>
<!-- Node8 -->
<g id="Node000008" class="node">
<title>Node8</title>
<g id="a_Node000008"><a xlink:href="exif-format_8c.html#a924038efe0cd8ebade8f44619dd794f3" target="_top" xlink:title="Return the raw size of the given EXIF data type.">
<polygon fill="white" stroke="#666666" points="431.5,-164 312.5,-164 312.5,-145 431.5,-145 431.5,-164"/>
<text text-anchor="middle" x="372" y="-152" font-family="Helvetica,sans-Serif" font-size="10.00">exif_format_get_size</text>
</a>
</g>
</g>
<!-- Node7&#45;&gt;Node8 -->
<g id="edge9_Node000007_Node000008" class="edge">
<title>Node7&#45;&gt;Node8</title>
<g id="a_edge9_Node000007_Node000008"><a xlink:title=" ">
<path fill="none" stroke="#63b8ff" d="M272.46,-162.03C281.7,-161.33 291.33,-160.59 300.8,-159.87"/>
<polygon fill="#63b8ff" stroke="#63b8ff" points="301.02,-163.36 310.72,-159.11 300.48,-156.38 301.02,-163.36"/>
</a>
</g>
</g>
<!-- Node7&#45;&gt;Node9 -->
<g id="edge10_Node000007_Node000009" class="edge">
<title>Node7&#45;&gt;Node9</title>
<g id="a_edge10_Node000007_Node000009"><a xlink:title=" ">
<path fill="none" stroke="#63b8ff" d="M229.9,-181.91C242.24,-194.35 259.32,-212.65 272,-230.5 291.35,-257.74 281.91,-275.62 308,-296.5 315.12,-302.2 323.96,-306.09 332.74,-308.75"/>
<polygon fill="#63b8ff" stroke="#63b8ff" points="331.68,-312.1 342.23,-311.14 333.39,-305.31 331.68,-312.1"/>
</a>
</g>
</g>
<!-- Node11 -->
<g id="Node000011" class="node">
<title>Node11</title>
<g id="a_Node000011"><a xlink:href="exif-mem_8c.html#a43190b81b4b4bdb4ffb89bfb612051b1" target="_top" xlink:title=" ">
<polygon fill="white" stroke="#666666" points="417.5,-287 326.5,-287 326.5,-268 417.5,-268 417.5,-287"/>
<text text-anchor="middle" x="372" y="-275" font-family="Helvetica,sans-Serif" font-size="10.00">exif_mem_free</text>
</a>
</g>
</g>
<!-- Node7&#45;&gt;Node11 -->
<g id="edge12_Node000007_Node000011" class="edge">
<title>Node7&#45;&gt;Node11</title>
<g id="a_edge12_Node000007_Node000011"><a xlink:title=" ">
<path fill="none" stroke="#63b8ff" d="M227.8,-181.9C249.18,-205.46 289.77,-248.84 308,-259.5 310.45,-260.93 313.02,-262.26 315.66,-263.48"/>
<polygon fill="#63b8ff" stroke="#63b8ff" points="314.14,-266.64 324.72,-267.15 316.77,-260.15 314.14,-266.64"/>
</a>
</g>
</g>
<!-- Node7&#45;&gt;Node12 -->
<g id="edge13_Node000007_Node000012" class="edge">
<title>Node7&#45;&gt;Node12</title>
<g id="a_edge13_Node000007_Node000012"><a xlink:title=" ">
<path fill="none" stroke="#63b8ff" d="M261.77,-151.09C276.57,-146.36 292.95,-141.17 308,-136.5 314.15,-134.59 320.65,-132.6 327.04,-130.66"/>
<polygon fill="#63b8ff" stroke="#63b8ff" points="327.61,-134.14 336.17,-127.9 325.59,-127.44 327.61,-134.14"/>
</a>
</g>
</g>
<!-- Node13 -->
<g id="Node000013" class="node">
<title>Node13</title>
<g id="a_Node000013"><a xlink:href="exif-mnote-data_8c.html#a704500ea880e6727d8b4a98ff38c0a25" target="_top" xlink:title="Save the raw MakerNote data into a memory buffer.">
<polygon fill="white" stroke="#666666" points="436,-250 308,-250 308,-231 436,-231 436,-250"/>
<text text-anchor="middle" x="372" y="-238" font-family="Helvetica,sans-Serif" font-size="10.00">exif_mnote_data_save</text>
</a>
</g>
</g>
<!-- Node7&#45;&gt;Node13 -->
<g id="edge14_Node000007_Node000013" class="edge">
<title>Node7&#45;&gt;Node13</title>
<g id="a_edge14_Node000007_Node000013"><a xlink:title=" ">
<path fill="none" stroke="#63b8ff" d="M236.76,-181.88C255.31,-193.91 282.52,-210.39 308,-221.5 312.54,-223.48 317.35,-225.33 322.21,-227.05"/>
<polygon fill="#63b8ff" stroke="#63b8ff" points="320.8,-230.27 331.4,-230.1 323.01,-223.63 320.8,-230.27"/>
</a>
</g>
</g>
<!-- Node14 -->
<g id="Node000014" class="node">
<title>Node14</title>
<g id="a_Node000014"><a xlink:href="exif-mnote-data_8c.html#ac965af14567723ab062e11910e7bc6f2" target="_top" xlink:title=" ">
<polygon fill="white" stroke="#666666" points="431.5,-212.5 312.5,-212.5 312.5,-182.5 431.5,-182.5 431.5,-212.5"/>
<text text-anchor="start" x="320.5" y="-200.5" font-family="Helvetica,sans-Serif" font-size="10.00">exif_mnote_data_set</text>
<text text-anchor="middle" x="372" y="-189.5" font-family="Helvetica,sans-Serif" font-size="10.00">_offset</text>
</a>
</g>
</g>
<!-- Node7&#45;&gt;Node14 -->
<g id="edge15_Node000007_Node000014" class="edge">
<title>Node7&#45;&gt;Node14</title>
<g id="a_edge15_Node000007_Node000014"><a xlink:title=" ">
<path fill="none" stroke="#63b8ff" d="M272.46,-178.04C281.8,-179.89 291.54,-181.81 301.11,-183.7"/>
<polygon fill="#63b8ff" stroke="#63b8ff" points="300.26,-187.1 310.74,-185.6 301.61,-180.23 300.26,-187.1"/>
</a>
</g>
</g>
<!-- Node7&#45;&gt;Node15 -->
<g id="edge16_Node000007_Node000015" class="edge">
<title>Node7&#45;&gt;Node15</title>
<g id="a_edge16_Node000007_Node000015"><a xlink:title=" ">
<path fill="none" stroke="#63b8ff" d="M231.6,-151.26C249.69,-136.26 279.21,-113.62 308,-99.5 311.93,-97.57 316.09,-95.8 320.32,-94.17"/>
<polygon fill="#63b8ff" stroke="#63b8ff" points="321.23,-97.57 329.5,-90.94 318.9,-90.96 321.23,-97.57"/>
</a>
</g>
</g>
<!-- Node7&#45;&gt;Node17 -->
<g id="edge18_Node000007_Node000017" class="edge">
<title>Node7&#45;&gt;Node17</title>
<g id="a_edge18_Node000007_Node000017"><a xlink:title=" ">
<path fill="none" stroke="#63b8ff" d="M223.56,-151.18C238.67,-128.23 270.26,-85.13 308,-61.5 311.13,-59.54 314.49,-57.78 317.95,-56.22"/>
<polygon fill="#63b8ff" stroke="#63b8ff" points="319.14,-59.51 327.18,-52.61 316.59,-52.99 319.14,-59.51"/>
</a>
</g>
</g>
<!-- Node10 -->
<g id="Node000010" class="node">
<title>Node10</title>
<g id="a_Node000010"><a xlink:href="exif-log_8c.html#a99101b5ad01b2d82ce9d43c9e8534627" target="_top" xlink:title=" ">
<polygon fill="white" stroke="#666666" points="548.5,-324 486.5,-324 486.5,-305 548.5,-305 548.5,-324"/>
<text text-anchor="middle" x="517.5" y="-312" font-family="Helvetica,sans-Serif" font-size="10.00">exif_logv</text>
</a>
</g>
</g>
<!-- Node9&#45;&gt;Node10 -->
<g id="edge11_Node000009_Node000010" class="edge">
<title>Node9&#45;&gt;Node10</title>
<g id="a_edge11_Node000009_Node000010"><a xlink:title=" ">
<path fill="none" stroke="#63b8ff" d="M400.33,-314.5C421.36,-314.5 450.8,-314.5 474.77,-314.5"/>
<polygon fill="#63b8ff" stroke="#63b8ff" points="474.53,-318 484.53,-314.5 474.53,-311 474.53,-318"/>
</a>
</g>
</g>
<!-- Node16 -->
<g id="Node000016" class="node">
<title>Node16</title>
<g id="a_Node000016"><a xlink:href="exif-utils_8c.html#ae6e3b9d1663f9ab9bd462d73a310ca03" target="_top" xlink:title="Store an ExifSLong value into memory in EXIF format.">
<polygon fill="white" stroke="#666666" points="561,-90 474,-90 474,-71 561,-71 561,-90"/>
<text text-anchor="middle" x="517.5" y="-78" font-family="Helvetica,sans-Serif" font-size="10.00">exif_set_slong</text>
</a>
</g>
</g>
<!-- Node15&#45;&gt;Node16 -->
<g id="edge17_Node000015_Node000016" class="edge">
<title>Node15&#45;&gt;Node16</title>
<g id="a_edge17_Node000015_Node000016"><a xlink:title=" ">
<path fill="none" stroke="#63b8ff" d="M413.35,-80.5C428.64,-80.5 446.3,-80.5 462.64,-80.5"/>
<polygon fill="#63b8ff" stroke="#63b8ff" points="462.18,-84 472.18,-80.5 462.18,-77 462.18,-84"/>
</a>
</g>
</g>
<!-- Node18 -->
<g id="Node000018" class="node">
<title>Node18</title>
<g id="a_Node000018"><a xlink:href="exif-utils_8c.html#a6504651147702fc6db9a5cd4aa997023" target="_top" xlink:title="Store an ExifSShort value into memory in EXIF format.">
<polygon fill="white" stroke="#666666" points="563,-53 472,-53 472,-34 563,-34 563,-53"/>
<text text-anchor="middle" x="517.5" y="-41" font-family="Helvetica,sans-Serif" font-size="10.00">exif_set_sshort</text>
</a>
</g>
</g>
<!-- Node17&#45;&gt;Node18 -->
<g id="edge19_Node000017_Node000018" class="edge">
<title>Node17&#45;&gt;Node18</title>
<g id="a_edge19_Node000017_Node000018"><a xlink:title=" ">
<path fill="none" stroke="#63b8ff" d="M415.28,-43.5C429.38,-43.5 445.31,-43.5 460.3,-43.5"/>
<polygon fill="#63b8ff" stroke="#63b8ff" points="460.01,-47 470.01,-43.5 460.01,-40 460.01,-47"/>
</a>
</g>
</g>
</g>
</svg>
