<?xml version="1.0" encoding="UTF-8" standalone="no"?>
<!DOCTYPE svg PUBLIC "-//W3C//DTD SVG 1.1//EN"
 "http://www.w3.org/Graphics/SVG/1.1/DTD/svg11.dtd">
<!-- Generated by graphviz version 2.44.1 (0)
 -->
<!-- Title: exif_content_dump Pages: 1 -->
<svg width="1012pt" height="534pt"
 viewBox="0.00 0.00 1012.00 534.00" xmlns="http://www.w3.org/2000/svg" xmlns:xlink="http://www.w3.org/1999/xlink">
<g id="graph0" class="graph" transform="scale(1 1) rotate(0) translate(4 530)">
<title>exif_content_dump</title>
<polygon fill="white" stroke="transparent" points="-4,4 -4,-530 1008,-530 1008,4 -4,4"/>
<!-- Node1 -->
<g id="node1" class="node">
<title>Node1</title>
<g id="a_node1"><a xlink:title="Dump contents of the IFD to stdout.">
<polygon fill="#bfbfbf" stroke="black" points="0,-190.5 0,-209.5 110,-209.5 110,-190.5 0,-190.5"/>
<text text-anchor="middle" x="55" y="-197.5" font-family="Helvetica,sans-Serif" font-size="10.00">exif_content_dump</text>
</a>
</g>
</g>
<!-- Node2 -->
<g id="node2" class="node">
<title>Node2</title>
<g id="a_node2"><a xlink:href="exif-entry_8c.html#addd6fdf3f0e4bd8777aff249ebe25da5" target="_top" xlink:title="Dump text representation of ExifEntry to stdout.">
<polygon fill="white" stroke="black" points="146,-190.5 146,-209.5 245,-209.5 245,-190.5 146,-190.5"/>
<text text-anchor="middle" x="195.5" y="-197.5" font-family="Helvetica,sans-Serif" font-size="10.00">exif_entry_dump</text>
</a>
</g>
</g>
<!-- Node1&#45;&gt;Node2 -->
<g id="edge1" class="edge">
<title>Node1&#45;&gt;Node2</title>
<path fill="none" stroke="midnightblue" d="M110.34,-200C118.64,-200 127.24,-200 135.62,-200"/>
<polygon fill="midnightblue" stroke="midnightblue" points="135.72,-203.5 145.72,-200 135.72,-196.5 135.72,-203.5"/>
</g>
<!-- Node3 -->
<g id="node3" class="node">
<title>Node3</title>
<g id="a_node3"><a xlink:href="exif-entry_8c.html#afda0f9d242fd7db960778502414c9885" target="_top" xlink:title="Return a localized textual representation of the value of the EXIF entry.">
<polygon fill="white" stroke="black" points="293,-266.5 293,-285.5 412,-285.5 412,-266.5 293,-266.5"/>
<text text-anchor="middle" x="352.5" y="-273.5" font-family="Helvetica,sans-Serif" font-size="10.00">exif_entry_get_value</text>
</a>
</g>
</g>
<!-- Node2&#45;&gt;Node3 -->
<g id="edge2" class="edge">
<title>Node2&#45;&gt;Node3</title>
<path fill="none" stroke="midnightblue" d="M216.13,-209.63C243.15,-222.87 291.97,-246.81 323.01,-262.03"/>
<polygon fill="midnightblue" stroke="midnightblue" points="321.51,-265.19 332.03,-266.45 324.59,-258.91 321.51,-265.19"/>
</g>
<!-- Node21 -->
<g id="node21" class="node">
<title>Node21</title>
<g id="a_node21"><a xlink:href="exif-format_8c.html#a59375a5939c716b826311c22571680f3" target="_top" xlink:title="Return a textual representation of the given EXIF data type.">
<polygon fill="white" stroke="black" points="288.5,-190.5 288.5,-209.5 416.5,-209.5 416.5,-190.5 288.5,-190.5"/>
<text text-anchor="middle" x="352.5" y="-197.5" font-family="Helvetica,sans-Serif" font-size="10.00">exif_format_get_name</text>
</a>
</g>
</g>
<!-- Node2&#45;&gt;Node21 -->
<g id="edge30" class="edge">
<title>Node2&#45;&gt;Node21</title>
<path fill="none" stroke="midnightblue" d="M245.12,-200C255.59,-200 266.87,-200 278.05,-200"/>
<polygon fill="midnightblue" stroke="midnightblue" points="278.25,-203.5 288.25,-200 278.25,-196.5 278.25,-203.5"/>
</g>
<!-- Node22 -->
<g id="node22" class="node">
<title>Node22</title>
<g id="a_node22"><a xlink:href="exif-tag_8c.html#a82b5a88d44d27d432afb5a1db74268b0" target="_top" xlink:title="Return a textual name of the given tag when found in the given IFD.">
<polygon fill="white" stroke="black" points="281,-76.5 281,-95.5 424,-95.5 424,-76.5 281,-76.5"/>
<text text-anchor="middle" x="352.5" y="-83.5" font-family="Helvetica,sans-Serif" font-size="10.00">exif_tag_get_name_in_ifd</text>
</a>
</g>
</g>
<!-- Node2&#45;&gt;Node22 -->
<g id="edge31" class="edge">
<title>Node2&#45;&gt;Node22</title>
<path fill="none" stroke="midnightblue" d="M209.45,-190.48C236.05,-170.91 297.1,-126.01 329.83,-101.94"/>
<polygon fill="midnightblue" stroke="midnightblue" points="332.28,-104.48 338.26,-95.74 328.13,-98.84 332.28,-104.48"/>
</g>
<!-- Node4 -->
<g id="node4" class="node">
<title>Node4</title>
<g id="a_node4"><a xlink:href="exif-content_8c.html#ac72bb2dacf0da27156c2c4dce08eef5d" target="_top" xlink:title="Return the ExifEntry in this IFD corresponding to the given tag.">
<polygon fill="white" stroke="black" points="464,-430.5 464,-449.5 593,-449.5 593,-430.5 464,-430.5"/>
<text text-anchor="middle" x="528.5" y="-437.5" font-family="Helvetica,sans-Serif" font-size="10.00">exif_content_get_entry</text>
</a>
</g>
</g>
<!-- Node3&#45;&gt;Node4 -->
<g id="edge3" class="edge">
<title>Node3&#45;&gt;Node4</title>
<path fill="none" stroke="midnightblue" d="M358.29,-285.69C371.2,-310.85 409.21,-378.88 460,-416 465.67,-420.14 472.12,-423.62 478.73,-426.53"/>
<polygon fill="midnightblue" stroke="midnightblue" points="477.87,-429.96 488.46,-430.4 480.46,-423.46 477.87,-429.96"/>
</g>
<!-- Node5 -->
<g id="node5" class="node">
<title>Node5</title>
<g id="a_node5"><a xlink:href="exif-utils_8c.html#af43ad07a0e309c42ead4897c29319f4c" target="_top" xlink:title="This function converts rather UCS&#45;2LE than UTF&#45;16 to UTF&#45;8.">
<polygon fill="white" stroke="black" points="474.5,-343 474.5,-373 582.5,-373 582.5,-343 474.5,-343"/>
<text text-anchor="start" x="482.5" y="-361" font-family="Helvetica,sans-Serif" font-size="10.00">exif_convert_utf16</text>
<text text-anchor="middle" x="528.5" y="-350" font-family="Helvetica,sans-Serif" font-size="10.00">_to_utf8</text>
</a>
</g>
</g>
<!-- Node3&#45;&gt;Node5 -->
<g id="edge4" class="edge">
<title>Node3&#45;&gt;Node5</title>
<path fill="none" stroke="midnightblue" d="M372.64,-285.6C393.88,-296.2 429.23,-313.66 460,-328 467.69,-331.58 475.9,-335.32 483.87,-338.88"/>
<polygon fill="midnightblue" stroke="midnightblue" points="482.49,-342.1 493.05,-342.98 485.34,-335.71 482.49,-342.1"/>
</g>
<!-- Node6 -->
<g id="node6" class="node">
<title>Node6</title>
<g id="a_node6"><a xlink:href="exif-utils_8c.html#a4b4acf537a8c6b9405e7b53be868e4d7" target="_top" xlink:title="Retrieve an ExifShort value from memory.">
<polygon fill="white" stroke="black" points="649.5,-430.5 649.5,-449.5 735.5,-449.5 735.5,-430.5 649.5,-430.5"/>
<text text-anchor="middle" x="692.5" y="-437.5" font-family="Helvetica,sans-Serif" font-size="10.00">exif_get_short</text>
</a>
</g>
</g>
<!-- Node3&#45;&gt;Node6 -->
<g id="edge25" class="edge">
<title>Node3&#45;&gt;Node6</title>
<path fill="none" stroke="midnightblue" d="M360.24,-285.73C375.43,-306.91 414.6,-357.33 460,-383 475.6,-391.82 576.1,-414.81 639.44,-428.74"/>
<polygon fill="midnightblue" stroke="midnightblue" points="638.76,-432.18 649.27,-430.9 640.26,-425.34 638.76,-432.18"/>
</g>
<!-- Node8 -->
<g id="node8" class="node">
<title>Node8</title>
<g id="a_node8"><a xlink:href="exif-data_8c.html#a2d8d50e6a9c19d28fe8192ef7cc52777" target="_top" xlink:title="Return the byte order in use by this EXIF structure.">
<polygon fill="white" stroke="black" points="637.5,-381 637.5,-411 747.5,-411 747.5,-381 637.5,-381"/>
<text text-anchor="start" x="645.5" y="-399" font-family="Helvetica,sans-Serif" font-size="10.00">exif_data_get_byte</text>
<text text-anchor="middle" x="692.5" y="-388" font-family="Helvetica,sans-Serif" font-size="10.00">_order</text>
</a>
</g>
</g>
<!-- Node3&#45;&gt;Node8 -->
<g id="edge7" class="edge">
<title>Node3&#45;&gt;Node8</title>
<path fill="none" stroke="midnightblue" d="M406.66,-285.51C467.89,-297.02 564.29,-316.96 597,-334 615.99,-343.89 615.33,-353.91 633,-366 638.19,-369.55 643.86,-372.97 649.56,-376.14"/>
<polygon fill="midnightblue" stroke="midnightblue" points="648.01,-379.28 658.48,-380.9 651.31,-373.1 648.01,-379.28"/>
</g>
<!-- Node9 -->
<g id="node9" class="node">
<title>Node9</title>
<g id="a_node9"><a xlink:href="exif-entry_8c.html#ae02e9d58318a3cd50eb6730b5e657e5a" target="_top" xlink:title="Format the value of an ExifEntry for human display in a generic way.">
<polygon fill="white" stroke="black" points="460,-266.5 460,-285.5 597,-285.5 597,-266.5 460,-266.5"/>
<text text-anchor="middle" x="528.5" y="-273.5" font-family="Helvetica,sans-Serif" font-size="10.00">exif_entry_format_value</text>
</a>
</g>
</g>
<!-- Node3&#45;&gt;Node9 -->
<g id="edge8" class="edge">
<title>Node3&#45;&gt;Node9</title>
<path fill="none" stroke="midnightblue" d="M412.41,-276C424.47,-276 437.33,-276 449.93,-276"/>
<polygon fill="midnightblue" stroke="midnightblue" points="449.95,-279.5 459.95,-276 449.95,-272.5 449.95,-279.5"/>
</g>
<!-- Node10 -->
<g id="node10" class="node">
<title>Node10</title>
<g id="a_node10"><a xlink:href="exif-format_8c.html#a924038efe0cd8ebade8f44619dd794f3" target="_top" xlink:title="Return the raw size of the given EXIF data type.">
<polygon fill="white" stroke="black" points="633,-228.5 633,-247.5 752,-247.5 752,-228.5 633,-228.5"/>
<text text-anchor="middle" x="692.5" y="-235.5" font-family="Helvetica,sans-Serif" font-size="10.00">exif_format_get_size</text>
</a>
</g>
</g>
<!-- Node3&#45;&gt;Node10 -->
<g id="edge23" class="edge">
<title>Node3&#45;&gt;Node10</title>
<path fill="none" stroke="midnightblue" d="M401.33,-266.47C419.63,-263.09 440.72,-259.5 460,-257 514.47,-249.92 576.5,-245 622.64,-241.94"/>
<polygon fill="midnightblue" stroke="midnightblue" points="623.07,-245.42 632.83,-241.28 622.62,-238.43 623.07,-245.42"/>
</g>
<!-- Node13 -->
<g id="node13" class="node">
<title>Node13</title>
<g id="a_node13"><a xlink:href="exif-utils_8c.html#a1feb547c289aa57a4d2119338b03706c" target="_top" xlink:title="Retrieve an ExifRational value from memory.">
<polygon fill="white" stroke="black" points="643,-190.5 643,-209.5 742,-209.5 742,-190.5 643,-190.5"/>
<text text-anchor="middle" x="692.5" y="-197.5" font-family="Helvetica,sans-Serif" font-size="10.00">exif_get_rational</text>
</a>
</g>
</g>
<!-- Node3&#45;&gt;Node13 -->
<g id="edge24" class="edge">
<title>Node3&#45;&gt;Node13</title>
<path fill="none" stroke="midnightblue" d="M378.14,-266.46C399.51,-258.47 431.43,-247.25 460,-240 518.01,-225.28 585.57,-214.29 632.68,-207.59"/>
<polygon fill="midnightblue" stroke="midnightblue" points="633.29,-211.04 642.71,-206.19 632.32,-204.11 633.29,-211.04"/>
</g>
<!-- Node14 -->
<g id="node14" class="node">
<title>Node14</title>
<g id="a_node14"><a xlink:href="exif-utils_8c.html#adb97c3499488d5642a82df1cb16dc2cb" target="_top" xlink:title="Retrieve an ExifSRational value from memory.">
<polygon fill="white" stroke="black" points="640.5,-152.5 640.5,-171.5 744.5,-171.5 744.5,-152.5 640.5,-152.5"/>
<text text-anchor="middle" x="692.5" y="-159.5" font-family="Helvetica,sans-Serif" font-size="10.00">exif_get_srational</text>
</a>
</g>
</g>
<!-- Node3&#45;&gt;Node14 -->
<g id="edge26" class="edge">
<title>Node3&#45;&gt;Node14</title>
<path fill="none" stroke="midnightblue" d="M365.15,-266.46C383.92,-251.6 422.55,-223.05 460,-208 515.26,-185.79 582.39,-173.97 630.1,-167.9"/>
<polygon fill="midnightblue" stroke="midnightblue" points="630.77,-171.35 640.28,-166.66 629.92,-164.4 630.77,-171.35"/>
</g>
<!-- Node15 -->
<g id="node15" class="node">
<title>Node15</title>
<g id="a_node15"><a xlink:href="exif-entry_8c.html#ac416e8326bd687f5da299d1b15a731bf" target="_top" xlink:title=" ">
<polygon fill="white" stroke="black" points="485.5,-114.5 485.5,-133.5 571.5,-133.5 571.5,-114.5 485.5,-114.5"/>
<text text-anchor="middle" x="528.5" y="-121.5" font-family="Helvetica,sans-Serif" font-size="10.00">exif_entry_log</text>
</a>
</g>
</g>
<!-- Node3&#45;&gt;Node15 -->
<g id="edge20" class="edge">
<title>Node3&#45;&gt;Node15</title>
<path fill="none" stroke="midnightblue" d="M368.84,-266.42C384.29,-256.17 408.06,-238.7 424,-219 446.25,-191.49 433.44,-171.37 460,-148 464.72,-143.85 470.2,-140.4 475.97,-137.54"/>
<polygon fill="midnightblue" stroke="midnightblue" points="477.43,-140.72 485.19,-133.51 474.63,-134.31 477.43,-140.72"/>
</g>
<!-- Node18 -->
<g id="node18" class="node">
<title>Node18</title>
<g id="a_node18"><a xlink:href="exif-mem_8c.html#ae8c09cfbcb95e435c4c4b7ec3bbd79e4" target="_top" xlink:title=" ">
<polygon fill="white" stroke="black" points="481,-76.5 481,-95.5 576,-95.5 576,-76.5 481,-76.5"/>
<text text-anchor="middle" x="528.5" y="-83.5" font-family="Helvetica,sans-Serif" font-size="10.00">exif_mem_alloc</text>
</a>
</g>
</g>
<!-- Node3&#45;&gt;Node18 -->
<g id="edge27" class="edge">
<title>Node3&#45;&gt;Node18</title>
<path fill="none" stroke="midnightblue" d="M370.43,-266.37C386.42,-256.44 409.99,-239.55 424,-219 453.93,-175.1 421.84,-141.97 460,-105 463.34,-101.77 467.18,-99.08 471.3,-96.84"/>
<polygon fill="midnightblue" stroke="midnightblue" points="472.99,-99.91 480.68,-92.62 470.13,-93.53 472.99,-99.91"/>
</g>
<!-- Node19 -->
<g id="node19" class="node">
<title>Node19</title>
<g id="a_node19"><a xlink:href="exif-mem_8c.html#a43190b81b4b4bdb4ffb89bfb612051b1" target="_top" xlink:title=" ">
<polygon fill="white" stroke="black" points="483,-506.5 483,-525.5 574,-525.5 574,-506.5 483,-506.5"/>
<text text-anchor="middle" x="528.5" y="-513.5" font-family="Helvetica,sans-Serif" font-size="10.00">exif_mem_free</text>
</a>
</g>
</g>
<!-- Node3&#45;&gt;Node19 -->
<g id="edge28" class="edge">
<title>Node3&#45;&gt;Node19</title>
<path fill="none" stroke="midnightblue" d="M355.23,-285.69C361.9,-320.11 389.2,-437.6 460,-497 463.98,-500.34 468.5,-503.09 473.29,-505.36"/>
<polygon fill="midnightblue" stroke="midnightblue" points="472.14,-508.67 482.72,-509.16 474.75,-502.18 472.14,-508.67"/>
</g>
<!-- Node20 -->
<g id="node20" class="node">
<title>Node20</title>
<g id="a_node20"><a xlink:href="exif-entry_8c.html#acfe97d1f369d95332b6e796c690093e4" target="_top" xlink:title="Check if a string consists entirely of a single, repeated character.">
<polygon fill="white" stroke="black" points="467.5,-468.5 467.5,-487.5 589.5,-487.5 589.5,-468.5 467.5,-468.5"/>
<text text-anchor="middle" x="528.5" y="-475.5" font-family="Helvetica,sans-Serif" font-size="10.00">match_repeated_char</text>
</a>
</g>
</g>
<!-- Node3&#45;&gt;Node20 -->
<g id="edge29" class="edge">
<title>Node3&#45;&gt;Node20</title>
<path fill="none" stroke="midnightblue" d="M356.27,-285.7C365.48,-316.21 398.1,-411.05 460,-459 462.35,-460.82 464.86,-462.46 467.48,-463.95"/>
<polygon fill="midnightblue" stroke="midnightblue" points="466.23,-467.23 476.76,-468.42 469.27,-460.92 466.23,-467.23"/>
</g>
<!-- Node5&#45;&gt;Node6 -->
<g id="edge5" class="edge">
<title>Node5&#45;&gt;Node6</title>
<path fill="none" stroke="midnightblue" d="M569.18,-373.07C578.61,-377.34 588.42,-382.38 597,-388 615.15,-399.9 614.25,-410.06 633,-421 636.63,-423.12 640.53,-425.03 644.53,-426.76"/>
<polygon fill="midnightblue" stroke="midnightblue" points="643.37,-430.06 653.96,-430.45 645.92,-423.55 643.37,-430.06"/>
</g>
<!-- Node7 -->
<g id="node7" class="node">
<title>Node7</title>
<g id="a_node7"><a xlink:href="exif-utils_8c.html#a6baf094a71392f9cea23ad633ec13c8b" target="_top" xlink:title="Retrieve an ExifSShort value from memory.">
<polygon fill="white" stroke="black" points="788,-386.5 788,-405.5 880,-405.5 880,-386.5 788,-386.5"/>
<text text-anchor="middle" x="834" y="-393.5" font-family="Helvetica,sans-Serif" font-size="10.00">exif_get_sshort</text>
</a>
</g>
</g>
<!-- Node6&#45;&gt;Node7 -->
<g id="edge6" class="edge">
<title>Node6&#45;&gt;Node7</title>
<path fill="none" stroke="midnightblue" d="M723.77,-430.45C744.06,-424.05 771,-415.56 793.05,-408.6"/>
<polygon fill="midnightblue" stroke="midnightblue" points="794.31,-411.87 802.79,-405.53 792.2,-405.2 794.31,-411.87"/>
</g>
<!-- Node9&#45;&gt;Node6 -->
<g id="edge15" class="edge">
<title>Node9&#45;&gt;Node6</title>
<path fill="none" stroke="midnightblue" d="M544.18,-285.52C559.19,-295.88 582.32,-313.73 597,-334 621.54,-367.9 602.27,-392.59 633,-421 635.28,-423.11 637.79,-424.98 640.46,-426.65"/>
<polygon fill="midnightblue" stroke="midnightblue" points="638.92,-429.79 649.41,-431.29 642.15,-423.58 638.92,-429.79"/>
</g>
<!-- Node9&#45;&gt;Node7 -->
<g id="edge19" class="edge">
<title>Node9&#45;&gt;Node7</title>
<path fill="none" stroke="midnightblue" d="M582.54,-285.56C587.57,-287.35 592.48,-289.48 597,-292 616.76,-303.03 613.79,-316.05 633,-328 646.89,-336.64 738.54,-366.26 792.84,-383.42"/>
<polygon fill="midnightblue" stroke="midnightblue" points="791.92,-386.81 802.51,-386.48 794.03,-380.13 791.92,-386.81"/>
</g>
<!-- Node9&#45;&gt;Node8 -->
<g id="edge9" class="edge">
<title>Node9&#45;&gt;Node8</title>
<path fill="none" stroke="midnightblue" d="M571.32,-285.54C580.47,-289.01 589.62,-293.7 597,-300 622.41,-321.69 609.07,-342.68 633,-366 636.64,-369.54 640.77,-372.76 645.13,-375.66"/>
<polygon fill="midnightblue" stroke="midnightblue" points="643.34,-378.67 653.7,-380.84 646.96,-372.67 643.34,-378.67"/>
</g>
<!-- Node9&#45;&gt;Node10 -->
<g id="edge10" class="edge">
<title>Node9&#45;&gt;Node10</title>
<path fill="none" stroke="midnightblue" d="M570.38,-266.41C591.85,-261.37 618.36,-255.16 641.1,-249.82"/>
<polygon fill="midnightblue" stroke="midnightblue" points="641.98,-253.21 650.91,-247.52 640.38,-246.4 641.98,-253.21"/>
</g>
<!-- Node11 -->
<g id="node11" class="node">
<title>Node11</title>
<g id="a_node11"><a xlink:href="exif-utils_8c.html#a4ad94614630897766dd0a5c9bc2a59bf" target="_top" xlink:title="Retrieve an ExifLong value from memory.">
<polygon fill="white" stroke="black" points="792.5,-247.5 792.5,-266.5 875.5,-266.5 875.5,-247.5 792.5,-247.5"/>
<text text-anchor="middle" x="834" y="-254.5" font-family="Helvetica,sans-Serif" font-size="10.00">exif_get_long</text>
</a>
</g>
</g>
<!-- Node9&#45;&gt;Node11 -->
<g id="edge11" class="edge">
<title>Node9&#45;&gt;Node11</title>
<path fill="none" stroke="midnightblue" d="M597.23,-271.76C653.29,-268.25 731.69,-263.34 782.41,-260.17"/>
<polygon fill="midnightblue" stroke="midnightblue" points="782.72,-263.65 792.48,-259.54 782.28,-256.67 782.72,-263.65"/>
</g>
<!-- Node12 -->
<g id="node12" class="node">
<title>Node12</title>
<g id="a_node12"><a xlink:href="exif-utils_8c.html#a56b96f076a13da6ed926e1ef29cb2dc3" target="_top" xlink:title="Retrieve an ExifSLong value from memory.">
<polygon fill="white" stroke="black" points="916,-247.5 916,-266.5 1004,-266.5 1004,-247.5 916,-247.5"/>
<text text-anchor="middle" x="960" y="-254.5" font-family="Helvetica,sans-Serif" font-size="10.00">exif_get_slong</text>
</a>
</g>
</g>
<!-- Node9&#45;&gt;Node12 -->
<g id="edge16" class="edge">
<title>Node9&#45;&gt;Node12</title>
<path fill="none" stroke="midnightblue" d="M597.03,-281.16C667.86,-285.37 782.25,-288.75 880,-276 891.9,-274.45 904.62,-271.83 916.29,-269.02"/>
<polygon fill="midnightblue" stroke="midnightblue" points="917.39,-272.36 926.24,-266.53 915.69,-265.57 917.39,-272.36"/>
</g>
<!-- Node9&#45;&gt;Node13 -->
<g id="edge13" class="edge">
<title>Node9&#45;&gt;Node13</title>
<path fill="none" stroke="midnightblue" d="M544.81,-266.36C564.62,-254.18 600.43,-233.1 633,-219 638.02,-216.82 643.38,-214.76 648.73,-212.85"/>
<polygon fill="midnightblue" stroke="midnightblue" points="649.97,-216.12 658.3,-209.58 647.7,-209.5 649.97,-216.12"/>
</g>
<!-- Node9&#45;&gt;Node14 -->
<g id="edge17" class="edge">
<title>Node9&#45;&gt;Node14</title>
<path fill="none" stroke="midnightblue" d="M537.33,-266.47C553.37,-247.55 591.92,-204.97 633,-181 636.63,-178.88 640.53,-176.96 644.53,-175.24"/>
<polygon fill="midnightblue" stroke="midnightblue" points="645.92,-178.45 653.95,-171.55 643.37,-171.93 645.92,-178.45"/>
</g>
<!-- Node11&#45;&gt;Node12 -->
<g id="edge12" class="edge">
<title>Node11&#45;&gt;Node12</title>
<path fill="none" stroke="midnightblue" d="M875.6,-257C885.14,-257 895.45,-257 905.47,-257"/>
<polygon fill="midnightblue" stroke="midnightblue" points="905.75,-260.5 915.75,-257 905.75,-253.5 905.75,-260.5"/>
</g>
<!-- Node13&#45;&gt;Node11 -->
<g id="edge14" class="edge">
<title>Node13&#45;&gt;Node11</title>
<path fill="none" stroke="midnightblue" d="M725.33,-209.54C734.05,-212.37 743.46,-215.62 752,-219 770.06,-226.14 789.81,-235.37 805.28,-242.95"/>
<polygon fill="midnightblue" stroke="midnightblue" points="803.79,-246.12 814.31,-247.42 806.9,-239.84 803.79,-246.12"/>
</g>
<!-- Node14&#45;&gt;Node12 -->
<g id="edge18" class="edge">
<title>Node14&#45;&gt;Node12</title>
<path fill="none" stroke="midnightblue" d="M723.63,-171.55C732.77,-174.51 742.82,-177.82 752,-181 813,-202.1 883.44,-228.37 924.42,-243.85"/>
<polygon fill="midnightblue" stroke="midnightblue" points="923.35,-247.18 933.94,-247.45 925.82,-240.64 923.35,-247.18"/>
</g>
<!-- Node16 -->
<g id="node16" class="node">
<title>Node16</title>
<g id="a_node16"><a xlink:href="exif-entry_8c.html#ad5b86e68c3c96618a946a5c6fcd5f394" target="_top" xlink:title=" ">
<polygon fill="white" stroke="black" points="640.5,-114.5 640.5,-133.5 744.5,-133.5 744.5,-114.5 640.5,-114.5"/>
<text text-anchor="middle" x="692.5" y="-121.5" font-family="Helvetica,sans-Serif" font-size="10.00">exif_data_get_log</text>
</a>
</g>
</g>
<!-- Node15&#45;&gt;Node16 -->
<g id="edge21" class="edge">
<title>Node15&#45;&gt;Node16</title>
<path fill="none" stroke="midnightblue" d="M571.64,-124C589.52,-124 610.72,-124 630.27,-124"/>
<polygon fill="midnightblue" stroke="midnightblue" points="630.33,-127.5 640.33,-124 630.33,-120.5 630.33,-127.5"/>
</g>
<!-- Node17 -->
<g id="node17" class="node">
<title>Node17</title>
<g id="a_node17"><a xlink:href="exif-log_8c.html#a99101b5ad01b2d82ce9d43c9e8534627" target="_top" xlink:title=" ">
<polygon fill="white" stroke="black" points="661.5,-76.5 661.5,-95.5 723.5,-95.5 723.5,-76.5 661.5,-76.5"/>
<text text-anchor="middle" x="692.5" y="-83.5" font-family="Helvetica,sans-Serif" font-size="10.00">exif_logv</text>
</a>
</g>
</g>
<!-- Node15&#45;&gt;Node17 -->
<g id="edge22" class="edge">
<title>Node15&#45;&gt;Node17</title>
<path fill="none" stroke="midnightblue" d="M570.38,-114.41C595.26,-108.58 626.89,-101.15 651.59,-95.36"/>
<polygon fill="midnightblue" stroke="midnightblue" points="652.44,-98.76 661.37,-93.07 650.84,-91.94 652.44,-98.76"/>
</g>
<!-- Node23 -->
<g id="node23" class="node">
<title>Node23</title>
<g id="a_node23"><a xlink:href="exif-tag_8c.html#a389f8ff3411e0525b28367892f1e78d3" target="_top" xlink:title="Finds the first entry in the EXIF tag table with the given tag number using a binary search.">
<polygon fill="white" stroke="black" points="473,-38.5 473,-57.5 584,-57.5 584,-38.5 473,-38.5"/>
<text text-anchor="middle" x="528.5" y="-45.5" font-family="Helvetica,sans-Serif" font-size="10.00">exif_tag_table_first</text>
</a>
</g>
</g>
<!-- Node22&#45;&gt;Node23 -->
<g id="edge32" class="edge">
<title>Node22&#45;&gt;Node23</title>
<path fill="none" stroke="midnightblue" d="M397.41,-76.41C420.68,-71.33 449.45,-65.04 474.02,-59.68"/>
<polygon fill="midnightblue" stroke="midnightblue" points="474.89,-63.07 483.91,-57.52 473.39,-56.23 474.89,-63.07"/>
</g>
<!-- Node24 -->
<g id="node24" class="node">
<title>Node24</title>
<g id="a_node24"><a xlink:href="exif-tag_8c.html#a87563ee64809f5f0deb4d780098508c1" target="_top" xlink:title="Return the number of entries in the EXIF tag table, including the terminating NULL entry.">
<polygon fill="white" stroke="black" points="633,-38.5 633,-57.5 752,-57.5 752,-38.5 633,-38.5"/>
<text text-anchor="middle" x="692.5" y="-45.5" font-family="Helvetica,sans-Serif" font-size="10.00">exif_tag_table_count</text>
</a>
</g>
</g>
<!-- Node23&#45;&gt;Node24 -->
<g id="edge33" class="edge">
<title>Node23&#45;&gt;Node24</title>
<path fill="none" stroke="midnightblue" d="M584.35,-48C596.66,-48 609.88,-48 622.68,-48"/>
<polygon fill="midnightblue" stroke="midnightblue" points="622.83,-51.5 632.83,-48 622.83,-44.5 622.83,-51.5"/>
</g>
<!-- Node25 -->
<g id="node25" class="node">
<title>Node25</title>
<g id="a_node25"><a xlink:href="exif-tag_8c.html#a220c1b18832f113bc84ff9551754915f" target="_top" xlink:title="Compares the tag with that in entry.">
<polygon fill="white" stroke="black" points="658.5,-0.5 658.5,-19.5 726.5,-19.5 726.5,-0.5 658.5,-0.5"/>
<text text-anchor="middle" x="692.5" y="-7.5" font-family="Helvetica,sans-Serif" font-size="10.00">match_tag</text>
</a>
</g>
</g>
<!-- Node23&#45;&gt;Node25 -->
<g id="edge34" class="edge">
<title>Node23&#45;&gt;Node25</title>
<path fill="none" stroke="midnightblue" d="M570.38,-38.41C594.16,-32.83 624.12,-25.8 648.29,-20.13"/>
<polygon fill="midnightblue" stroke="midnightblue" points="649.33,-23.49 658.26,-17.8 647.73,-16.67 649.33,-23.49"/>
</g>
</g>
</svg>
