<?xml version="1.0" encoding="UTF-8" standalone="no"?>
<!DOCTYPE svg PUBLIC "-//W3C//DTD SVG 1.1//EN"
 "http://www.w3.org/Graphics/SVG/1.1/DTD/svg11.dtd">
<!-- Generated by graphviz version 7.0.1 (0)
 -->
<!-- Title: exif_mnote_data_canon_identify Pages: 1 -->
<svg width="877pt" height="452pt"
 viewBox="0.00 0.00 877.00 452.00" xmlns="http://www.w3.org/2000/svg" xmlns:xlink="http://www.w3.org/1999/xlink">
<g id="graph0" class="graph" transform="scale(1 1) rotate(0) translate(4 448)">
<title>exif_mnote_data_canon_identify</title>
<!-- Node1 -->
<g id="Node000001" class="node">
<title>Node1</title>
<g id="a_Node000001"><a xlink:title="Detect if MakerNote is recognized as one handled by the Canon module.">
<polygon fill="#999999" stroke="#666666" points="134,-230.5 0,-230.5 0,-200.5 134,-200.5 134,-230.5"/>
<text text-anchor="start" x="8" y="-218.5" font-family="Helvetica,sans-Serif" font-size="10.00">exif_mnote_data_canon</text>
<text text-anchor="middle" x="67" y="-207.5" font-family="Helvetica,sans-Serif" font-size="10.00">_identify</text>
</a>
</g>
</g>
<!-- Node2 -->
<g id="Node000002" class="node">
<title>Node2</title>
<g id="a_Node000002"><a xlink:href="exif-entry_8c.html#a60425f657af3e00dc8bbb675f91cdb84" target="_top" xlink:title="Return a localized textual representation of the value of the EXIF entry.">
<polygon fill="white" stroke="#666666" points="289,-225 170,-225 170,-206 289,-206 289,-225"/>
<text text-anchor="middle" x="229.5" y="-213" font-family="Helvetica,sans-Serif" font-size="10.00">exif_entry_get_value</text>
</a>
</g>
</g>
<!-- Node1&#45;&gt;Node2 -->
<g id="edge1_Node000001_Node000002" class="edge">
<title>Node1&#45;&gt;Node2</title>
<g id="a_edge1_Node000001_Node000002"><a xlink:title=" ">
<path fill="none" stroke="#63b8ff" d="M134.21,-215.5C142.1,-215.5 150.18,-215.5 158.12,-215.5"/>
<polygon fill="#63b8ff" stroke="#63b8ff" points="158.12,-219 168.12,-215.5 158.12,-212 158.12,-219"/>
</a>
</g>
</g>
<!-- Node3 -->
<g id="Node000003" class="node">
<title>Node3</title>
<g id="a_Node000003"><a xlink:href="exif-content_8c.html#a5d98a5c58c31b49691694b010b29117d" target="_top" xlink:title="Return the ExifEntry in this IFD corresponding to the given tag.">
<polygon fill="white" stroke="#666666" points="458,-444 329,-444 329,-425 458,-425 458,-444"/>
<text text-anchor="middle" x="393.5" y="-432" font-family="Helvetica,sans-Serif" font-size="10.00">exif_content_get_entry</text>
</a>
</g>
</g>
<!-- Node2&#45;&gt;Node3 -->
<g id="edge2_Node000002_Node000003" class="edge">
<title>Node2&#45;&gt;Node3</title>
<g id="a_edge2_Node000002_Node000003"><a xlink:title=" ">
<path fill="none" stroke="#63b8ff" d="M232.45,-225.19C239.29,-256.61 265.04,-356.78 325,-410.5 329.02,-414.1 333.61,-417.16 338.46,-419.78"/>
<polygon fill="#63b8ff" stroke="#63b8ff" points="336.79,-422.86 347.33,-423.89 339.73,-416.51 336.79,-422.86"/>
</a>
</g>
</g>
<!-- Node4 -->
<g id="Node000004" class="node">
<title>Node4</title>
<g id="a_Node000004"><a xlink:href="exif-utils_8c.html#a0c51156312ff6ca97f4d587f776ded8f" target="_top" xlink:title="This function converts rather UCS&#45;2LE than UTF&#45;16 to UTF&#45;8.">
<polygon fill="white" stroke="#666666" points="447.5,-368.5 339.5,-368.5 339.5,-338.5 447.5,-338.5 447.5,-368.5"/>
<text text-anchor="start" x="347.5" y="-356.5" font-family="Helvetica,sans-Serif" font-size="10.00">exif_convert_utf16</text>
<text text-anchor="middle" x="393.5" y="-345.5" font-family="Helvetica,sans-Serif" font-size="10.00">_to_utf8</text>
</a>
</g>
</g>
<!-- Node2&#45;&gt;Node4 -->
<g id="edge3_Node000002_Node000004" class="edge">
<title>Node2&#45;&gt;Node4</title>
<g id="a_edge3_Node000002_Node000004"><a xlink:title=" ">
<path fill="none" stroke="#63b8ff" d="M236.69,-225.24C250.33,-246.04 284.96,-295.24 325,-324.5 329.28,-327.63 333.95,-330.5 338.77,-333.13"/>
<polygon fill="#63b8ff" stroke="#63b8ff" points="336.94,-336.13 347.44,-337.48 340.08,-329.87 336.94,-336.13"/>
</a>
</g>
</g>
<!-- Node5 -->
<g id="Node000005" class="node">
<title>Node5</title>
<g id="a_Node000005"><a xlink:href="exif-utils_8c.html#a4b4acf537a8c6b9405e7b53be868e4d7" target="_top" xlink:title="Retrieve an ExifShort value from memory.">
<polygon fill="white" stroke="#666666" points="600.5,-441 514.5,-441 514.5,-422 600.5,-422 600.5,-441"/>
<text text-anchor="middle" x="557.5" y="-429" font-family="Helvetica,sans-Serif" font-size="10.00">exif_get_short</text>
</a>
</g>
</g>
<!-- Node2&#45;&gt;Node5 -->
<g id="edge24_Node000002_Node000005" class="edge">
<title>Node2&#45;&gt;Node5</title>
<g id="a_edge24_Node000002_Node000005"><a xlink:title=" ">
<path fill="none" stroke="#63b8ff" d="M233.23,-225.38C241.64,-253.89 269.99,-336.89 325,-377.5 339.31,-388.06 439.33,-408.89 503.14,-421.36"/>
<polygon fill="#63b8ff" stroke="#63b8ff" points="502.24,-424.76 512.73,-423.23 503.58,-417.88 502.24,-424.76"/>
</a>
</g>
</g>
<!-- Node7 -->
<g id="Node000007" class="node">
<title>Node7</title>
<g id="a_Node000007"><a xlink:href="exif-data_8c.html#a2d8d50e6a9c19d28fe8192ef7cc52777" target="_top" xlink:title="Return the byte order in use by this EXIF structure.">
<polygon fill="white" stroke="#666666" points="612.5,-403.5 502.5,-403.5 502.5,-373.5 612.5,-373.5 612.5,-403.5"/>
<text text-anchor="start" x="510.5" y="-391.5" font-family="Helvetica,sans-Serif" font-size="10.00">exif_data_get_byte</text>
<text text-anchor="middle" x="557.5" y="-380.5" font-family="Helvetica,sans-Serif" font-size="10.00">_order</text>
</a>
</g>
</g>
<!-- Node2&#45;&gt;Node7 -->
<g id="edge6_Node000002_Node000007" class="edge">
<title>Node2&#45;&gt;Node7</title>
<g id="a_edge6_Node000002_Node000007"><a xlink:title=" ">
<path fill="none" stroke="#63b8ff" d="M240.02,-225.43C256.06,-241.61 290.16,-273.63 325,-291.5 381.22,-320.34 405.05,-302.13 462,-329.5 479.79,-338.05 481.38,-344.86 498,-355.5 504.33,-359.56 511.19,-363.66 517.9,-367.54"/>
<polygon fill="#63b8ff" stroke="#63b8ff" points="515.82,-370.38 526.24,-372.27 519.27,-364.29 515.82,-370.38"/>
</a>
</g>
</g>
<!-- Node8 -->
<g id="Node000008" class="node">
<title>Node8</title>
<g id="a_Node000008"><a xlink:href="exif-entry_8c.html#ae02e9d58318a3cd50eb6730b5e657e5a" target="_top" xlink:title="Format the value of an ExifEntry for human display in a generic way.">
<polygon fill="white" stroke="#666666" points="462,-282 325,-282 325,-263 462,-263 462,-282"/>
<text text-anchor="middle" x="393.5" y="-270" font-family="Helvetica,sans-Serif" font-size="10.00">exif_entry_format_value</text>
</a>
</g>
</g>
<!-- Node2&#45;&gt;Node8 -->
<g id="edge7_Node000002_Node000008" class="edge">
<title>Node2&#45;&gt;Node8</title>
<g id="a_edge7_Node000002_Node000008"><a xlink:title=" ">
<path fill="none" stroke="#63b8ff" d="M258.72,-225.43C285,-234.68 324.42,-248.55 353.67,-258.84"/>
<polygon fill="#63b8ff" stroke="#63b8ff" points="352.31,-262.07 362.91,-262.09 354.63,-255.47 352.31,-262.07"/>
</a>
</g>
</g>
<!-- Node9 -->
<g id="Node000009" class="node">
<title>Node9</title>
<g id="a_Node000009"><a xlink:href="exif-format_8c.html#a924038efe0cd8ebade8f44619dd794f3" target="_top" xlink:title="Return the raw size of the given EXIF data type.">
<polygon fill="white" stroke="#666666" points="617,-241 498,-241 498,-222 617,-222 617,-241"/>
<text text-anchor="middle" x="557.5" y="-229" font-family="Helvetica,sans-Serif" font-size="10.00">exif_format_get_size</text>
</a>
</g>
</g>
<!-- Node2&#45;&gt;Node9 -->
<g id="edge22_Node000002_Node000009" class="edge">
<title>Node2&#45;&gt;Node9</title>
<g id="a_edge22_Node000002_Node000009"><a xlink:title=" ">
<path fill="none" stroke="#63b8ff" d="M289.16,-218.38C344.5,-221.09 427.52,-225.17 486.34,-228.06"/>
<polygon fill="#63b8ff" stroke="#63b8ff" points="486.09,-231.55 496.25,-228.54 486.44,-224.56 486.09,-231.55"/>
</a>
</g>
</g>
<!-- Node12 -->
<g id="Node000012" class="node">
<title>Node12</title>
<g id="a_Node000012"><a xlink:href="exif-utils_8c.html#a1feb547c289aa57a4d2119338b03706c" target="_top" xlink:title="Retrieve an ExifRational value from memory.">
<polygon fill="white" stroke="#666666" points="607,-204 508,-204 508,-185 607,-185 607,-204"/>
<text text-anchor="middle" x="557.5" y="-192" font-family="Helvetica,sans-Serif" font-size="10.00">exif_get_rational</text>
</a>
</g>
</g>
<!-- Node2&#45;&gt;Node12 -->
<g id="edge23_Node000002_Node000012" class="edge">
<title>Node2&#45;&gt;Node12</title>
<g id="a_edge23_Node000002_Node000012"><a xlink:title=" ">
<path fill="none" stroke="#63b8ff" d="M289.16,-211.72C347.68,-207.95 437.15,-202.19 496.23,-198.38"/>
<polygon fill="#63b8ff" stroke="#63b8ff" points="496.35,-201.88 506.11,-197.75 495.9,-194.9 496.35,-201.88"/>
</a>
</g>
</g>
<!-- Node13 -->
<g id="Node000013" class="node">
<title>Node13</title>
<g id="a_Node000013"><a xlink:href="exif-utils_8c.html#adb97c3499488d5642a82df1cb16dc2cb" target="_top" xlink:title="Retrieve an ExifSRational value from memory.">
<polygon fill="white" stroke="#666666" points="609.5,-167 505.5,-167 505.5,-148 609.5,-148 609.5,-167"/>
<text text-anchor="middle" x="557.5" y="-155" font-family="Helvetica,sans-Serif" font-size="10.00">exif_get_srational</text>
</a>
</g>
</g>
<!-- Node2&#45;&gt;Node13 -->
<g id="edge25_Node000002_Node000013" class="edge">
<title>Node2&#45;&gt;Node13</title>
<g id="a_edge25_Node000002_Node000013"><a xlink:title=" ">
<path fill="none" stroke="#63b8ff" d="M278.52,-205.54C293.4,-202.54 309.86,-199.3 325,-196.5 382.21,-185.93 447.59,-175.03 494.24,-167.44"/>
<polygon fill="#63b8ff" stroke="#63b8ff" points="494.58,-170.93 503.89,-165.88 493.46,-164.02 494.58,-170.93"/>
</a>
</g>
</g>
<!-- Node14 -->
<g id="Node000014" class="node">
<title>Node14</title>
<g id="a_Node000014"><a xlink:href="exif-entry_8c.html#ac416e8326bd687f5da299d1b15a731bf" target="_top" xlink:title=" ">
<polygon fill="white" stroke="#666666" points="436.5,-130 350.5,-130 350.5,-111 436.5,-111 436.5,-130"/>
<text text-anchor="middle" x="393.5" y="-118" font-family="Helvetica,sans-Serif" font-size="10.00">exif_entry_log</text>
</a>
</g>
</g>
<!-- Node2&#45;&gt;Node14 -->
<g id="edge19_Node000002_Node000014" class="edge">
<title>Node2&#45;&gt;Node14</title>
<g id="a_edge19_Node000002_Node000014"><a xlink:title=" ">
<path fill="none" stroke="#63b8ff" d="M241.38,-205.56C258.22,-190.6 292.1,-162.18 325,-144.5 332.07,-140.7 339.87,-137.29 347.58,-134.31"/>
<polygon fill="#63b8ff" stroke="#63b8ff" points="348.71,-137.63 356.92,-130.92 346.32,-131.05 348.71,-137.63"/>
</a>
</g>
</g>
<!-- Node17 -->
<g id="Node000017" class="node">
<title>Node17</title>
<g id="a_Node000017"><a xlink:href="exif-mem_8c.html#a68be7c7afc8cff75adc3b1a28b5ae9a2" target="_top" xlink:title=" ">
<polygon fill="white" stroke="#666666" points="441,-93 346,-93 346,-74 441,-74 441,-93"/>
<text text-anchor="middle" x="393.5" y="-81" font-family="Helvetica,sans-Serif" font-size="10.00">exif_mem_alloc</text>
</a>
</g>
</g>
<!-- Node2&#45;&gt;Node17 -->
<g id="edge26_Node000002_Node000017" class="edge">
<title>Node2&#45;&gt;Node17</title>
<g id="a_edge26_Node000002_Node000017"><a xlink:title=" ">
<path fill="none" stroke="#63b8ff" d="M235.87,-205.5C248.38,-183.21 281.7,-129.23 325,-101.5 328.12,-99.5 331.45,-97.73 334.9,-96.15"/>
<polygon fill="#63b8ff" stroke="#63b8ff" points="336.08,-99.45 344.11,-92.53 333.52,-92.93 336.08,-99.45"/>
</a>
</g>
</g>
<!-- Node18 -->
<g id="Node000018" class="node">
<title>Node18</title>
<g id="a_Node000018"><a xlink:href="exif-mem_8c.html#a43190b81b4b4bdb4ffb89bfb612051b1" target="_top" xlink:title=" ">
<polygon fill="white" stroke="#666666" points="439,-56 348,-56 348,-37 439,-37 439,-56"/>
<text text-anchor="middle" x="393.5" y="-44" font-family="Helvetica,sans-Serif" font-size="10.00">exif_mem_free</text>
</a>
</g>
</g>
<!-- Node2&#45;&gt;Node18 -->
<g id="edge27_Node000002_Node000018" class="edge">
<title>Node2&#45;&gt;Node18</title>
<g id="a_edge27_Node000002_Node000018"><a xlink:title=" ">
<path fill="none" stroke="#63b8ff" d="M233.76,-205.6C243.21,-178.51 273.26,-102.71 325,-64.5 328.79,-61.7 332.98,-59.34 337.36,-57.35"/>
<polygon fill="#63b8ff" stroke="#63b8ff" points="338.35,-60.72 346.43,-53.87 335.84,-54.18 338.35,-60.72"/>
</a>
</g>
</g>
<!-- Node19 -->
<g id="Node000019" class="node">
<title>Node19</title>
<g id="a_Node000019"><a xlink:href="exif-entry_8c.html#acfe97d1f369d95332b6e796c690093e4" target="_top" xlink:title="Check if a string consists entirely of a single, repeated character.">
<polygon fill="white" stroke="#666666" points="454.5,-19 332.5,-19 332.5,0 454.5,0 454.5,-19"/>
<text text-anchor="middle" x="393.5" y="-7" font-family="Helvetica,sans-Serif" font-size="10.00">match_repeated_char</text>
</a>
</g>
</g>
<!-- Node2&#45;&gt;Node19 -->
<g id="edge28_Node000002_Node000019" class="edge">
<title>Node2&#45;&gt;Node19</title>
<g id="a_edge28_Node000002_Node000019"><a xlink:title=" ">
<path fill="none" stroke="#63b8ff" d="M232.49,-205.52C239.3,-174.14 264.64,-76.6 325,-27.5 326.11,-26.6 327.26,-25.74 328.45,-24.92"/>
<polygon fill="#63b8ff" stroke="#63b8ff" points="329.82,-28.17 336.82,-20.21 326.39,-22.07 329.82,-28.17"/>
</a>
</g>
</g>
<!-- Node4&#45;&gt;Node5 -->
<g id="edge4_Node000004_Node000005" class="edge">
<title>Node4&#45;&gt;Node5</title>
<g id="a_edge4_Node000004_Node000005"><a xlink:title=" ">
<path fill="none" stroke="#63b8ff" d="M435.79,-368.99C444.68,-372.94 453.85,-377.5 462,-382.5 479.75,-393.39 479.77,-402.43 498,-412.5 501.23,-414.28 504.64,-415.93 508.14,-417.44"/>
<polygon fill="#63b8ff" stroke="#63b8ff" points="506.79,-420.67 517.37,-421.05 509.33,-414.15 506.79,-420.67"/>
</a>
</g>
</g>
<!-- Node6 -->
<g id="Node000006" class="node">
<title>Node6</title>
<g id="a_Node000006"><a xlink:href="exif-utils_8c.html#a6baf094a71392f9cea23ad633ec13c8b" target="_top" xlink:title="Retrieve an ExifSShort value from memory.">
<polygon fill="white" stroke="#666666" points="745,-398 653,-398 653,-379 745,-379 745,-398"/>
<text text-anchor="middle" x="699" y="-386" font-family="Helvetica,sans-Serif" font-size="10.00">exif_get_sshort</text>
</a>
</g>
</g>
<!-- Node5&#45;&gt;Node6 -->
<g id="edge5_Node000005_Node000006" class="edge">
<title>Node5&#45;&gt;Node6</title>
<g id="a_edge5_Node000005_Node000006"><a xlink:title=" ">
<path fill="none" stroke="#63b8ff" d="M590.85,-421.53C609.96,-415.64 634.37,-408.11 655.07,-401.73"/>
<polygon fill="#63b8ff" stroke="#63b8ff" points="655.85,-405.16 664.37,-398.86 653.79,-398.47 655.85,-405.16"/>
</a>
</g>
</g>
<!-- Node8&#45;&gt;Node5 -->
<g id="edge14_Node000008_Node000005" class="edge">
<title>Node8&#45;&gt;Node5</title>
<g id="a_edge14_Node000008_Node000005"><a xlink:title=" ">
<path fill="none" stroke="#63b8ff" d="M409.96,-282.42C424.93,-292.68 447.45,-309.93 462,-329.5 485.99,-361.77 468.25,-385.45 498,-412.5 499.89,-414.22 501.95,-415.79 504.11,-417.21"/>
<polygon fill="#63b8ff" stroke="#63b8ff" points="502.37,-420.25 512.84,-421.88 505.67,-414.08 502.37,-420.25"/>
</a>
</g>
</g>
<!-- Node8&#45;&gt;Node6 -->
<g id="edge18_Node000008_Node000006" class="edge">
<title>Node8&#45;&gt;Node6</title>
<g id="a_edge18_Node000008_Node000006"><a xlink:title=" ">
<path fill="none" stroke="#63b8ff" d="M427.85,-282.4C438.98,-286.21 451.27,-290.99 462,-296.5 479.33,-305.4 480.59,-312.76 498,-321.5 525.61,-335.36 603.72,-360.06 653.75,-375.28"/>
<polygon fill="#63b8ff" stroke="#63b8ff" points="652.56,-378.58 663.14,-378.13 654.59,-371.88 652.56,-378.58"/>
</a>
</g>
</g>
<!-- Node8&#45;&gt;Node7 -->
<g id="edge8_Node000008_Node000007" class="edge">
<title>Node8&#45;&gt;Node7</title>
<g id="a_edge8_Node000008_Node000007"><a xlink:title=" ">
<path fill="none" stroke="#63b8ff" d="M436.93,-282.41C445.86,-285.86 454.75,-290.43 462,-296.5 486.74,-317.19 474.53,-337.38 498,-359.5 500.98,-362.31 504.28,-364.9 507.76,-367.29"/>
<polygon fill="#63b8ff" stroke="#63b8ff" points="505.62,-370.08 515.97,-372.32 509.27,-364.11 505.62,-370.08"/>
</a>
</g>
</g>
<!-- Node8&#45;&gt;Node9 -->
<g id="edge9_Node000008_Node000009" class="edge">
<title>Node8&#45;&gt;Node9</title>
<g id="a_edge9_Node000008_Node000009"><a xlink:title=" ">
<path fill="none" stroke="#63b8ff" d="M433.72,-262.58C455.44,-257.08 482.69,-250.18 506,-244.28"/>
<polygon fill="#63b8ff" stroke="#63b8ff" points="506.78,-247.69 515.62,-241.85 505.06,-240.91 506.78,-247.69"/>
</a>
</g>
</g>
<!-- Node10 -->
<g id="Node000010" class="node">
<title>Node10</title>
<g id="a_Node000010"><a xlink:href="exif-utils_8c.html#a4ad94614630897766dd0a5c9bc2a59bf" target="_top" xlink:title="Retrieve an ExifLong value from memory.">
<polygon fill="white" stroke="#666666" points="740.5,-261 657.5,-261 657.5,-242 740.5,-242 740.5,-261"/>
<text text-anchor="middle" x="699" y="-249" font-family="Helvetica,sans-Serif" font-size="10.00">exif_get_long</text>
</a>
</g>
</g>
<!-- Node8&#45;&gt;Node10 -->
<g id="edge10_Node000008_Node000010" class="edge">
<title>Node8&#45;&gt;Node10</title>
<g id="a_edge10_Node000008_Node000010"><a xlink:title=" ">
<path fill="none" stroke="#63b8ff" d="M462.23,-267.81C517.66,-263.98 594.93,-258.63 645.69,-255.12"/>
<polygon fill="#63b8ff" stroke="#63b8ff" points="645.8,-258.62 655.54,-254.44 645.32,-251.64 645.8,-258.62"/>
</a>
</g>
</g>
<!-- Node11 -->
<g id="Node000011" class="node">
<title>Node11</title>
<g id="a_Node000011"><a xlink:href="exif-utils_8c.html#a56b96f076a13da6ed926e1ef29cb2dc3" target="_top" xlink:title="Retrieve an ExifSLong value from memory.">
<polygon fill="white" stroke="#666666" points="869,-261 781,-261 781,-242 869,-242 869,-261"/>
<text text-anchor="middle" x="825" y="-249" font-family="Helvetica,sans-Serif" font-size="10.00">exif_get_slong</text>
</a>
</g>
</g>
<!-- Node8&#45;&gt;Node11 -->
<g id="edge15_Node000008_Node000011" class="edge">
<title>Node8&#45;&gt;Node11</title>
<g id="a_edge15_Node000008_Node000011"><a xlink:title=" ">
<path fill="none" stroke="#63b8ff" d="M462.38,-277.22C533.25,-280.95 647.45,-283.61 745,-270.5 755.9,-269.04 767.48,-266.7 778.32,-264.16"/>
<polygon fill="#63b8ff" stroke="#63b8ff" points="778.94,-267.62 787.82,-261.83 777.27,-260.82 778.94,-267.62"/>
</a>
</g>
</g>
<!-- Node8&#45;&gt;Node12 -->
<g id="edge12_Node000008_Node000012" class="edge">
<title>Node8&#45;&gt;Node12</title>
<g id="a_edge12_Node000008_Node000012"><a xlink:title=" ">
<path fill="none" stroke="#63b8ff" d="M409.42,-262.69C429.1,-250.07 465.08,-228.05 498,-213.5 502.29,-211.61 506.82,-209.8 511.39,-208.12"/>
<polygon fill="#63b8ff" stroke="#63b8ff" points="512.32,-211.5 520.6,-204.9 510.01,-204.89 512.32,-211.5"/>
</a>
</g>
</g>
<!-- Node8&#45;&gt;Node13 -->
<g id="edge16_Node000008_Node000013" class="edge">
<title>Node8&#45;&gt;Node13</title>
<g id="a_edge16_Node000008_Node000013"><a xlink:title=" ">
<path fill="none" stroke="#63b8ff" d="M402.56,-262.57C418.7,-243.29 457,-200.57 498,-176.5 500.94,-174.77 504.06,-173.18 507.27,-171.71"/>
<polygon fill="#63b8ff" stroke="#63b8ff" points="508.36,-175.05 516.3,-168.04 505.72,-168.57 508.36,-175.05"/>
</a>
</g>
</g>
<!-- Node10&#45;&gt;Node11 -->
<g id="edge11_Node000010_Node000011" class="edge">
<title>Node10&#45;&gt;Node11</title>
<g id="a_edge11_Node000010_Node000011"><a xlink:title=" ">
<path fill="none" stroke="#63b8ff" d="M740.95,-251.5C749.97,-251.5 759.68,-251.5 769.15,-251.5"/>
<polygon fill="#63b8ff" stroke="#63b8ff" points="769.03,-255 779.03,-251.5 769.03,-248 769.03,-255"/>
</a>
</g>
</g>
<!-- Node12&#45;&gt;Node10 -->
<g id="edge13_Node000012_Node000010" class="edge">
<title>Node12&#45;&gt;Node10</title>
<g id="a_edge13_Node000012_Node000010"><a xlink:title=" ">
<path fill="none" stroke="#63b8ff" d="M591.55,-204.44C599.93,-207.18 608.86,-210.28 617,-213.5 634.32,-220.34 653.18,-229.11 668.35,-236.5"/>
<polygon fill="#63b8ff" stroke="#63b8ff" points="666.78,-239.63 677.3,-240.92 669.88,-233.36 666.78,-239.63"/>
</a>
</g>
</g>
<!-- Node13&#45;&gt;Node11 -->
<g id="edge17_Node000013_Node000011" class="edge">
<title>Node13&#45;&gt;Node11</title>
<g id="a_edge17_Node000013_Node000011"><a xlink:title=" ">
<path fill="none" stroke="#63b8ff" d="M589.84,-167.46C598.64,-170.32 608.21,-173.48 617,-176.5 676.61,-196.97 745.3,-222.19 786.65,-237.54"/>
<polygon fill="#63b8ff" stroke="#63b8ff" points="785.29,-240.77 795.89,-240.98 787.73,-234.21 785.29,-240.77"/>
</a>
</g>
</g>
<!-- Node15 -->
<g id="Node000015" class="node">
<title>Node15</title>
<g id="a_Node000015"><a xlink:href="exif-data_8c.html#a9403ed4fde8ef603e9db173eb122efaf" target="_top" xlink:title=" ">
<polygon fill="white" stroke="#666666" points="609.5,-130 505.5,-130 505.5,-111 609.5,-111 609.5,-130"/>
<text text-anchor="middle" x="557.5" y="-118" font-family="Helvetica,sans-Serif" font-size="10.00">exif_data_get_log</text>
</a>
</g>
</g>
<!-- Node14&#45;&gt;Node15 -->
<g id="edge20_Node000014_Node000015" class="edge">
<title>Node14&#45;&gt;Node15</title>
<g id="a_edge20_Node000014_Node000015"><a xlink:title=" ">
<path fill="none" stroke="#63b8ff" d="M436.64,-120.5C454.04,-120.5 474.56,-120.5 493.67,-120.5"/>
<polygon fill="#63b8ff" stroke="#63b8ff" points="493.52,-124 503.52,-120.5 493.52,-117 493.52,-124"/>
</a>
</g>
</g>
<!-- Node16 -->
<g id="Node000016" class="node">
<title>Node16</title>
<g id="a_Node000016"><a xlink:href="exif-log_8c.html#a99101b5ad01b2d82ce9d43c9e8534627" target="_top" xlink:title=" ">
<polygon fill="white" stroke="#666666" points="588.5,-93 526.5,-93 526.5,-74 588.5,-74 588.5,-93"/>
<text text-anchor="middle" x="557.5" y="-81" font-family="Helvetica,sans-Serif" font-size="10.00">exif_logv</text>
</a>
</g>
</g>
<!-- Node14&#45;&gt;Node16 -->
<g id="edge21_Node000014_Node000016" class="edge">
<title>Node14&#45;&gt;Node16</title>
<g id="a_edge21_Node000014_Node000016"><a xlink:title=" ">
<path fill="none" stroke="#63b8ff" d="M436.64,-110.88C460.84,-105.35 491.1,-98.44 515.16,-92.94"/>
<polygon fill="#63b8ff" stroke="#63b8ff" points="515.64,-96.42 524.61,-90.78 514.08,-89.6 515.64,-96.42"/>
</a>
</g>
</g>
</g>
</svg>
