<?xml version="1.0" encoding="UTF-8" standalone="no"?>
<!DOCTYPE svg PUBLIC "-//W3C//DTD SVG 1.1//EN"
 "http://www.w3.org/Graphics/SVG/1.1/DTD/svg11.dtd">
<!-- Generated by graphviz version 2.44.1 (0)
 -->
<!-- Title: libexif/olympus/exif&#45;mnote&#45;data&#45;olympus.c Pages: 1 -->
<svg width="1107pt" height="475pt"
 viewBox="0.00 0.00 1106.50 475.00" xmlns="http://www.w3.org/2000/svg" xmlns:xlink="http://www.w3.org/1999/xlink">
<g id="graph0" class="graph" transform="scale(1 1) rotate(0) translate(4 471)">
<title>libexif/olympus/exif&#45;mnote&#45;data&#45;olympus.c</title>
<polygon fill="white" stroke="transparent" points="-4,4 -4,-471 1102.5,-471 1102.5,4 -4,4"/>
<!-- Node1 -->
<g id="node1" class="node">
<title>Node1</title>
<g id="a_node1"><a xlink:title=" ">
<polygon fill="#bfbfbf" stroke="black" points="812,-436.5 812,-466.5 943,-466.5 943,-436.5 812,-436.5"/>
<text text-anchor="start" x="820" y="-454.5" font-family="Helvetica,sans-Serif" font-size="10.00">libexif/olympus/exif</text>
<text text-anchor="middle" x="877.5" y="-443.5" font-family="Helvetica,sans-Serif" font-size="10.00">&#45;mnote&#45;data&#45;olympus.c</text>
</a>
</g>
</g>
<!-- Node2 -->
<g id="node2" class="node">
<title>Node2</title>
<g id="a_node2"><a xlink:title=" ">
<polygon fill="white" stroke="#bfbfbf" points="419.5,-380.5 419.5,-399.5 475.5,-399.5 475.5,-380.5 419.5,-380.5"/>
<text text-anchor="middle" x="447.5" y="-387.5" font-family="Helvetica,sans-Serif" font-size="10.00">config.h</text>
</a>
</g>
</g>
<!-- Node1&#45;&gt;Node2 -->
<g id="edge1" class="edge">
<title>Node1&#45;&gt;Node2</title>
<path fill="none" stroke="midnightblue" d="M811.79,-444.31C735.61,-436.62 606.13,-422.01 485.83,-400.07"/>
<polygon fill="midnightblue" stroke="midnightblue" points="486.18,-396.58 475.71,-398.2 484.91,-403.46 486.18,-396.58"/>
</g>
<!-- Node3 -->
<g id="node3" class="node">
<title>Node3</title>
<g id="a_node3"><a xlink:href="exif-mnote-data-olympus_8h.html" target="_top" xlink:title=" ">
<polygon fill="white" stroke="black" points="493,-380.5 493,-399.5 642,-399.5 642,-380.5 493,-380.5"/>
<text text-anchor="middle" x="567.5" y="-387.5" font-family="Helvetica,sans-Serif" font-size="10.00">exif&#45;mnote&#45;data&#45;olympus.h</text>
</a>
</g>
</g>
<!-- Node1&#45;&gt;Node3 -->
<g id="edge2" class="edge">
<title>Node1&#45;&gt;Node3</title>
<path fill="none" stroke="midnightblue" d="M811.76,-437.88C755.32,-427.05 674.94,-411.62 622.02,-401.46"/>
<polygon fill="midnightblue" stroke="midnightblue" points="622.62,-398.02 612.14,-399.57 621.3,-404.89 622.62,-398.02"/>
</g>
<!-- Node8 -->
<g id="node8" class="node">
<title>Node8</title>
<g id="a_node8"><a xlink:href="exif-utils_8h.html" target="_top" xlink:title="EXIF data manipulation functions and types.">
<polygon fill="white" stroke="black" points="488,-73 488,-92 589,-92 589,-73 488,-73"/>
<text text-anchor="middle" x="538.5" y="-80" font-family="Helvetica,sans-Serif" font-size="10.00">libexif/exif&#45;utils.h</text>
</a>
</g>
</g>
<!-- Node1&#45;&gt;Node8 -->
<g id="edge42" class="edge">
<title>Node1&#45;&gt;Node8</title>
<path fill="none" stroke="midnightblue" d="M877.5,-436.34C877.5,-413.75 877.5,-368.15 877.5,-329.5 877.5,-329.5 877.5,-329.5 877.5,-199 877.5,-168.9 881.1,-153.88 858.5,-134 820.94,-100.96 681.06,-89.45 599.2,-85.51"/>
<polygon fill="midnightblue" stroke="midnightblue" points="599.18,-82 589.03,-85.04 598.86,-89 599.18,-82"/>
</g>
<!-- Node15 -->
<g id="node15" class="node">
<title>Node15</title>
<g id="a_node15"><a xlink:href="exif-data_8h.html" target="_top" xlink:title="Defines the ExifData type and the associated functions.">
<polygon fill="white" stroke="black" points="516.5,-319 516.5,-338 618.5,-338 618.5,-319 516.5,-319"/>
<text text-anchor="middle" x="567.5" y="-326" font-family="Helvetica,sans-Serif" font-size="10.00">libexif/exif&#45;data.h</text>
</a>
</g>
</g>
<!-- Node1&#45;&gt;Node15 -->
<g id="edge43" class="edge">
<title>Node1&#45;&gt;Node15</title>
<path fill="none" stroke="midnightblue" d="M841.33,-436.38C780.03,-412.46 656.77,-364.34 598.88,-341.75"/>
<polygon fill="midnightblue" stroke="midnightblue" points="600.1,-338.47 589.51,-338.09 597.56,-344.99 600.1,-338.47"/>
</g>
<!-- Node21 -->
<g id="node21" class="node">
<title>Node21</title>
<g id="a_node21"><a xlink:title=" ">
<polygon fill="white" stroke="#bfbfbf" points="906,-380.5 906,-399.5 959,-399.5 959,-380.5 906,-380.5"/>
<text text-anchor="middle" x="932.5" y="-387.5" font-family="Helvetica,sans-Serif" font-size="10.00">stdlib.h</text>
</a>
</g>
</g>
<!-- Node1&#45;&gt;Node21 -->
<g id="edge39" class="edge">
<title>Node1&#45;&gt;Node21</title>
<path fill="none" stroke="midnightblue" d="M890.53,-436.4C898.69,-427.58 909.22,-416.18 917.69,-407.02"/>
<polygon fill="midnightblue" stroke="midnightblue" points="920.28,-409.38 924.5,-399.66 915.14,-404.63 920.28,-409.38"/>
</g>
<!-- Node22 -->
<g id="node22" class="node">
<title>Node22</title>
<g id="a_node22"><a xlink:title=" ">
<polygon fill="white" stroke="#bfbfbf" points="977,-380.5 977,-399.5 1030,-399.5 1030,-380.5 977,-380.5"/>
<text text-anchor="middle" x="1003.5" y="-387.5" font-family="Helvetica,sans-Serif" font-size="10.00">string.h</text>
</a>
</g>
</g>
<!-- Node1&#45;&gt;Node22 -->
<g id="edge40" class="edge">
<title>Node1&#45;&gt;Node22</title>
<path fill="none" stroke="midnightblue" d="M907.36,-436.4C928.12,-426.59 955.6,-413.62 975.86,-404.05"/>
<polygon fill="midnightblue" stroke="midnightblue" points="977.62,-407.09 985.17,-399.66 974.63,-400.76 977.62,-407.09"/>
</g>
<!-- Node23 -->
<g id="node23" class="node">
<title>Node23</title>
<g id="a_node23"><a xlink:title=" ">
<polygon fill="white" stroke="#bfbfbf" points="1048.5,-380.5 1048.5,-399.5 1098.5,-399.5 1098.5,-380.5 1048.5,-380.5"/>
<text text-anchor="middle" x="1073.5" y="-387.5" font-family="Helvetica,sans-Serif" font-size="10.00">stdio.h</text>
</a>
</g>
</g>
<!-- Node1&#45;&gt;Node23 -->
<g id="edge41" class="edge">
<title>Node1&#45;&gt;Node23</title>
<path fill="none" stroke="midnightblue" d="M923.95,-436.4C959.09,-425.73 1006.59,-411.31 1038.55,-401.61"/>
<polygon fill="midnightblue" stroke="midnightblue" points="1039.79,-404.89 1048.34,-398.64 1037.75,-398.19 1039.79,-404.89"/>
</g>
<!-- Node4 -->
<g id="node4" class="node">
<title>Node4</title>
<g id="a_node4"><a xlink:href="exif-mnote-data-priv_8h.html" target="_top" xlink:title=" ">
<polygon fill="white" stroke="black" points="230,-313.5 230,-343.5 333,-343.5 333,-313.5 230,-313.5"/>
<text text-anchor="start" x="238" y="-331.5" font-family="Helvetica,sans-Serif" font-size="10.00">libexif/exif&#45;mnote</text>
<text text-anchor="middle" x="281.5" y="-320.5" font-family="Helvetica,sans-Serif" font-size="10.00">&#45;data&#45;priv.h</text>
</a>
</g>
</g>
<!-- Node3&#45;&gt;Node4 -->
<g id="edge3" class="edge">
<title>Node3&#45;&gt;Node4</title>
<path fill="none" stroke="midnightblue" d="M526.52,-380.48C478.54,-370.49 398.58,-353.86 343.11,-342.32"/>
<polygon fill="midnightblue" stroke="midnightblue" points="343.55,-338.83 333.05,-340.22 342.13,-345.69 343.55,-338.83"/>
</g>
<!-- Node7 -->
<g id="node7" class="node">
<title>Node7</title>
<g id="a_node7"><a xlink:href="exif-mem_8h.html" target="_top" xlink:title="Define the ExifMem data type and the associated functions.">
<polygon fill="white" stroke="black" points="485.5,-134.5 485.5,-153.5 591.5,-153.5 591.5,-134.5 485.5,-134.5"/>
<text text-anchor="middle" x="538.5" y="-141.5" font-family="Helvetica,sans-Serif" font-size="10.00">libexif/exif&#45;mem.h</text>
</a>
</g>
</g>
<!-- Node3&#45;&gt;Node7 -->
<g id="edge38" class="edge">
<title>Node3&#45;&gt;Node7</title>
<path fill="none" stroke="midnightblue" d="M586.8,-380.48C600.93,-373.08 619.06,-360.89 627.5,-344 633.66,-331.68 629.49,-326.63 627.5,-313 619.21,-256.25 620.05,-237.89 588.5,-190 580.85,-178.38 569.49,-167.84 559.54,-159.88"/>
<polygon fill="midnightblue" stroke="midnightblue" points="561.35,-156.86 551.28,-153.59 557.11,-162.43 561.35,-156.86"/>
</g>
<!-- Node9 -->
<g id="node9" class="node">
<title>Node9</title>
<g id="a_node9"><a xlink:href="exif-byte-order_8h.html" target="_top" xlink:title="Defines the ExifByteOrder enum and the associated functions.">
<polygon fill="white" stroke="black" points="145,-6 145,-25 276,-25 276,-6 145,-6"/>
<text text-anchor="middle" x="210.5" y="-13" font-family="Helvetica,sans-Serif" font-size="10.00">libexif/exif&#45;byte&#45;order.h</text>
</a>
</g>
</g>
<!-- Node3&#45;&gt;Node9 -->
<g id="edge18" class="edge">
<title>Node3&#45;&gt;Node9</title>
<path fill="none" stroke="midnightblue" d="M492.88,-380.87C394.39,-369.92 232.03,-350.98 220.5,-344 182.7,-321.1 163.5,-306.7 163.5,-262.5 163.5,-262.5 163.5,-262.5 163.5,-143 163.5,-101.82 185.66,-57.55 199.55,-33.85"/>
<polygon fill="midnightblue" stroke="midnightblue" points="202.55,-35.65 204.74,-25.28 196.56,-32.02 202.55,-35.65"/>
</g>
<!-- Node13 -->
<g id="node13" class="node">
<title>Node13</title>
<g id="a_node13"><a xlink:href="mnote-olympus-entry_8h.html" target="_top" xlink:title=" ">
<polygon fill="white" stroke="black" points="8,-67.5 8,-97.5 135,-97.5 135,-67.5 8,-67.5"/>
<text text-anchor="start" x="16" y="-85.5" font-family="Helvetica,sans-Serif" font-size="10.00">libexif/olympus/mnote</text>
<text text-anchor="middle" x="71.5" y="-74.5" font-family="Helvetica,sans-Serif" font-size="10.00">&#45;olympus&#45;entry.h</text>
</a>
</g>
</g>
<!-- Node3&#45;&gt;Node13 -->
<g id="edge14" class="edge">
<title>Node3&#45;&gt;Node13</title>
<path fill="none" stroke="midnightblue" d="M492.84,-380.9C490.03,-380.6 487.24,-380.3 484.5,-380 410.06,-371.96 212.96,-383.73 149.5,-344 113.28,-321.33 98.5,-305.23 98.5,-262.5 98.5,-262.5 98.5,-262.5 98.5,-199 98.5,-166.68 88.35,-130.57 80.5,-107.47"/>
<polygon fill="midnightblue" stroke="midnightblue" points="83.72,-106.1 77.09,-97.83 77.12,-108.43 83.72,-106.1"/>
</g>
<!-- Node3&#45;&gt;Node15 -->
<g id="edge19" class="edge">
<title>Node3&#45;&gt;Node15</title>
<path fill="none" stroke="midnightblue" d="M567.5,-380.48C567.5,-372.08 567.5,-358.98 567.5,-348.16"/>
<polygon fill="midnightblue" stroke="midnightblue" points="571,-348.01 567.5,-338.01 564,-348.01 571,-348.01"/>
</g>
<!-- Node5 -->
<g id="node5" class="node">
<title>Node5</title>
<g id="a_node5"><a xlink:href="exif-mnote-data_8h.html" target="_top" xlink:title="Handling EXIF MakerNote tags.">
<polygon fill="white" stroke="black" points="268,-246.5 268,-276.5 371,-276.5 371,-246.5 268,-246.5"/>
<text text-anchor="start" x="276" y="-264.5" font-family="Helvetica,sans-Serif" font-size="10.00">libexif/exif&#45;mnote</text>
<text text-anchor="middle" x="319.5" y="-253.5" font-family="Helvetica,sans-Serif" font-size="10.00">&#45;data.h</text>
</a>
</g>
</g>
<!-- Node4&#45;&gt;Node5 -->
<g id="edge4" class="edge">
<title>Node4&#45;&gt;Node5</title>
<path fill="none" stroke="midnightblue" d="M289.75,-313.4C294.53,-305.22 300.66,-294.73 306.12,-285.39"/>
<polygon fill="midnightblue" stroke="midnightblue" points="309.25,-286.98 311.27,-276.58 303.2,-283.44 309.25,-286.98"/>
</g>
<!-- Node6 -->
<g id="node6" class="node">
<title>Node6</title>
<g id="a_node6"><a xlink:href="exif-log_8h.html" target="_top" xlink:title="Log message infrastructure.">
<polygon fill="white" stroke="black" points="290,-190.5 290,-209.5 385,-209.5 385,-190.5 290,-190.5"/>
<text text-anchor="middle" x="337.5" y="-197.5" font-family="Helvetica,sans-Serif" font-size="10.00">libexif/exif&#45;log.h</text>
</a>
</g>
</g>
<!-- Node4&#45;&gt;Node6 -->
<g id="edge13" class="edge">
<title>Node4&#45;&gt;Node6</title>
<path fill="none" stroke="midnightblue" d="M271.2,-313.4C260.2,-296.46 245.94,-267.61 258.5,-246 267.24,-230.97 283.08,-220.54 298.29,-213.54"/>
<polygon fill="midnightblue" stroke="midnightblue" points="299.76,-216.72 307.62,-209.61 297.04,-210.27 299.76,-216.72"/>
</g>
<!-- Node4&#45;&gt;Node9 -->
<g id="edge12" class="edge">
<title>Node4&#45;&gt;Node9</title>
<path fill="none" stroke="midnightblue" d="M264.92,-313.4C241.49,-291.79 201.5,-248.03 201.5,-201 201.5,-201 201.5,-201 201.5,-143 201.5,-104.61 205.68,-59.82 208.34,-35.17"/>
<polygon fill="midnightblue" stroke="midnightblue" points="211.83,-35.4 209.47,-25.07 204.88,-34.62 211.83,-35.4"/>
</g>
<!-- Node5&#45;&gt;Node6 -->
<g id="edge5" class="edge">
<title>Node5&#45;&gt;Node6</title>
<path fill="none" stroke="midnightblue" d="M323.77,-246.4C326.22,-238.29 329.33,-228.01 331.97,-219.28"/>
<polygon fill="midnightblue" stroke="midnightblue" points="335.34,-220.24 334.88,-209.66 328.64,-218.22 335.34,-220.24"/>
</g>
<!-- Node6&#45;&gt;Node7 -->
<g id="edge6" class="edge">
<title>Node6&#45;&gt;Node7</title>
<path fill="none" stroke="midnightblue" d="M369.35,-190.44C403.9,-181.16 459.18,-166.31 497.08,-156.13"/>
<polygon fill="midnightblue" stroke="midnightblue" points="498.05,-159.49 506.8,-153.52 496.23,-152.73 498.05,-159.49"/>
</g>
<!-- Node12 -->
<g id="node12" class="node">
<title>Node12</title>
<g id="a_node12"><a xlink:title=" ">
<polygon fill="white" stroke="#bfbfbf" points="309.5,-134.5 309.5,-153.5 365.5,-153.5 365.5,-134.5 309.5,-134.5"/>
<text text-anchor="middle" x="337.5" y="-141.5" font-family="Helvetica,sans-Serif" font-size="10.00">stdarg.h</text>
</a>
</g>
</g>
<!-- Node6&#45;&gt;Node12 -->
<g id="edge11" class="edge">
<title>Node6&#45;&gt;Node12</title>
<path fill="none" stroke="midnightblue" d="M337.5,-190.08C337.5,-183.01 337.5,-172.86 337.5,-163.99"/>
<polygon fill="midnightblue" stroke="midnightblue" points="341,-163.75 337.5,-153.75 334,-163.75 341,-163.75"/>
</g>
<!-- Node7&#45;&gt;Node8 -->
<g id="edge7" class="edge">
<title>Node7&#45;&gt;Node8</title>
<path fill="none" stroke="midnightblue" d="M538.5,-134.48C538.5,-126.08 538.5,-112.98 538.5,-102.16"/>
<polygon fill="midnightblue" stroke="midnightblue" points="542,-102.01 538.5,-92.01 535,-102.01 542,-102.01"/>
</g>
<!-- Node8&#45;&gt;Node9 -->
<g id="edge8" class="edge">
<title>Node8&#45;&gt;Node9</title>
<path fill="none" stroke="midnightblue" d="M495.28,-72.94C435.59,-61.11 327.99,-39.78 263.52,-27.01"/>
<polygon fill="midnightblue" stroke="midnightblue" points="264.04,-23.54 253.55,-25.03 262.68,-30.41 264.04,-23.54"/>
</g>
<!-- Node10 -->
<g id="node10" class="node">
<title>Node10</title>
<g id="a_node10"><a xlink:href="exif-format_8h.html" target="_top" xlink:title="Handling native EXIF data types.">
<polygon fill="white" stroke="black" points="380,-6 380,-25 493,-25 493,-6 380,-6"/>
<text text-anchor="middle" x="436.5" y="-13" font-family="Helvetica,sans-Serif" font-size="10.00">libexif/exif&#45;format.h</text>
</a>
</g>
</g>
<!-- Node8&#45;&gt;Node10 -->
<g id="edge9" class="edge">
<title>Node8&#45;&gt;Node10</title>
<path fill="none" stroke="midnightblue" d="M524.74,-72.73C507.77,-61.92 478.69,-43.38 458.57,-30.57"/>
<polygon fill="midnightblue" stroke="midnightblue" points="460.35,-27.55 450.04,-25.13 456.59,-33.45 460.35,-27.55"/>
</g>
<!-- Node11 -->
<g id="node11" class="node">
<title>Node11</title>
<g id="a_node11"><a xlink:title=" ">
<polygon fill="white" stroke="#bfbfbf" points="511.5,-6 511.5,-25 603.5,-25 603.5,-6 511.5,-6"/>
<text text-anchor="middle" x="557.5" y="-13" font-family="Helvetica,sans-Serif" font-size="10.00">libexif/_stdint.h</text>
</a>
</g>
</g>
<!-- Node8&#45;&gt;Node11 -->
<g id="edge10" class="edge">
<title>Node8&#45;&gt;Node11</title>
<path fill="none" stroke="midnightblue" d="M541.06,-72.73C543.88,-63.09 548.5,-47.3 552.12,-34.91"/>
<polygon fill="midnightblue" stroke="midnightblue" points="555.53,-35.71 554.98,-25.13 548.81,-33.74 555.53,-35.71"/>
</g>
<!-- Node13&#45;&gt;Node9 -->
<g id="edge16" class="edge">
<title>Node13&#45;&gt;Node9</title>
<path fill="none" stroke="midnightblue" d="M101.66,-67.4C125.94,-56.04 159.78,-40.22 183.25,-29.24"/>
<polygon fill="midnightblue" stroke="midnightblue" points="184.73,-32.41 192.31,-25.01 181.77,-26.07 184.73,-32.41"/>
</g>
<!-- Node13&#45;&gt;Node10 -->
<g id="edge15" class="edge">
<title>Node13&#45;&gt;Node10</title>
<path fill="none" stroke="midnightblue" d="M135.08,-70.18C203.85,-57.93 312.53,-38.58 378.89,-26.76"/>
<polygon fill="midnightblue" stroke="midnightblue" points="379.53,-30.2 388.76,-25 378.3,-23.31 379.53,-30.2"/>
</g>
<!-- Node14 -->
<g id="node14" class="node">
<title>Node14</title>
<g id="a_node14"><a xlink:href="mnote-olympus-tag_8h.html" target="_top" xlink:title=" ">
<polygon fill="white" stroke="black" points="0,-0.5 0,-30.5 127,-30.5 127,-0.5 0,-0.5"/>
<text text-anchor="start" x="8" y="-18.5" font-family="Helvetica,sans-Serif" font-size="10.00">libexif/olympus/mnote</text>
<text text-anchor="middle" x="63.5" y="-7.5" font-family="Helvetica,sans-Serif" font-size="10.00">&#45;olympus&#45;tag.h</text>
</a>
</g>
</g>
<!-- Node13&#45;&gt;Node14 -->
<g id="edge17" class="edge">
<title>Node13&#45;&gt;Node14</title>
<path fill="none" stroke="midnightblue" d="M69.76,-67.4C68.8,-59.56 67.57,-49.6 66.46,-40.57"/>
<polygon fill="midnightblue" stroke="midnightblue" points="69.93,-40.07 65.23,-30.58 62.98,-40.93 69.93,-40.07"/>
</g>
<!-- Node15&#45;&gt;Node5 -->
<g id="edge36" class="edge">
<title>Node15&#45;&gt;Node5</title>
<path fill="none" stroke="midnightblue" d="M534.82,-318.94C495.82,-308.71 429.75,-291.4 381.07,-278.64"/>
<polygon fill="midnightblue" stroke="midnightblue" points="381.83,-275.22 371.27,-276.07 380.05,-281.99 381.83,-275.22"/>
</g>
<!-- Node15&#45;&gt;Node6 -->
<g id="edge23" class="edge">
<title>Node15&#45;&gt;Node6</title>
<path fill="none" stroke="midnightblue" d="M531.21,-318.96C501.03,-310.9 457.66,-297.04 423.5,-277 395.44,-260.54 368.19,-234.16 352.13,-217.21"/>
<polygon fill="midnightblue" stroke="midnightblue" points="354.56,-214.68 345.19,-209.73 349.43,-219.44 354.56,-214.68"/>
</g>
<!-- Node15&#45;&gt;Node7 -->
<g id="edge37" class="edge">
<title>Node15&#45;&gt;Node7</title>
<path fill="none" stroke="midnightblue" d="M573.45,-318.67C579.61,-308.95 588.84,-292.62 592.5,-277 595.64,-263.58 595.27,-259.5 592.5,-246 585.87,-213.69 565.16,-180.85 551.4,-161.73"/>
<polygon fill="midnightblue" stroke="midnightblue" points="554.07,-159.45 545.3,-153.51 548.45,-163.63 554.07,-159.45"/>
</g>
<!-- Node15&#45;&gt;Node9 -->
<g id="edge20" class="edge">
<title>Node15&#45;&gt;Node9</title>
<path fill="none" stroke="midnightblue" d="M536.6,-318.97C512.79,-311.16 480.2,-297.63 457.5,-277 403.12,-227.58 423.91,-188.39 374.5,-134 332.95,-88.27 270.78,-49.77 236.15,-30.25"/>
<polygon fill="midnightblue" stroke="midnightblue" points="237.59,-27.05 227.15,-25.26 234.2,-33.17 237.59,-27.05"/>
</g>
<!-- Node16 -->
<g id="node16" class="node">
<title>Node16</title>
<g id="a_node16"><a xlink:href="exif-data-type_8h.html" target="_top" xlink:title=" ">
<polygon fill="white" stroke="black" points="609.5,-134.5 609.5,-153.5 737.5,-153.5 737.5,-134.5 609.5,-134.5"/>
<text text-anchor="middle" x="673.5" y="-141.5" font-family="Helvetica,sans-Serif" font-size="10.00">libexif/exif&#45;data&#45;type.h</text>
</a>
</g>
</g>
<!-- Node15&#45;&gt;Node16 -->
<g id="edge21" class="edge">
<title>Node15&#45;&gt;Node16</title>
<path fill="none" stroke="midnightblue" d="M575.16,-318.97C583.67,-309.25 597.53,-292.66 607.5,-277 632.16,-238.24 654.66,-189.03 665.92,-163.01"/>
<polygon fill="midnightblue" stroke="midnightblue" points="669.2,-164.24 669.91,-153.67 662.76,-161.49 669.2,-164.24"/>
</g>
<!-- Node17 -->
<g id="node17" class="node">
<title>Node17</title>
<g id="a_node17"><a xlink:href="exif-ifd_8h.html" target="_top" xlink:title=" ">
<polygon fill="white" stroke="black" points="756,-134.5 756,-153.5 849,-153.5 849,-134.5 756,-134.5"/>
<text text-anchor="middle" x="802.5" y="-141.5" font-family="Helvetica,sans-Serif" font-size="10.00">libexif/exif&#45;ifd.h</text>
</a>
</g>
</g>
<!-- Node15&#45;&gt;Node17 -->
<g id="edge22" class="edge">
<title>Node15&#45;&gt;Node17</title>
<path fill="none" stroke="midnightblue" d="M618.71,-320.81C679.61,-309.76 778.33,-281.27 820.5,-210 829.23,-195.24 822.08,-176.1 814.36,-162.41"/>
<polygon fill="midnightblue" stroke="midnightblue" points="817.11,-160.2 808.86,-153.56 811.17,-163.9 817.11,-160.2"/>
</g>
<!-- Node18 -->
<g id="node18" class="node">
<title>Node18</title>
<g id="a_node18"><a xlink:href="exif-tag_8h.html" target="_top" xlink:title="Handling EXIF tags.">
<polygon fill="white" stroke="black" points="715.5,-190.5 715.5,-209.5 811.5,-209.5 811.5,-190.5 715.5,-190.5"/>
<text text-anchor="middle" x="763.5" y="-197.5" font-family="Helvetica,sans-Serif" font-size="10.00">libexif/exif&#45;tag.h</text>
</a>
</g>
</g>
<!-- Node15&#45;&gt;Node18 -->
<g id="edge24" class="edge">
<title>Node15&#45;&gt;Node18</title>
<path fill="none" stroke="midnightblue" d="M586.05,-318.88C605.77,-309.45 637.61,-293.49 663.5,-277 693.62,-257.82 726.13,-232.08 745.64,-216.02"/>
<polygon fill="midnightblue" stroke="midnightblue" points="747.94,-218.66 753.4,-209.58 743.47,-213.27 747.94,-218.66"/>
</g>
<!-- Node19 -->
<g id="node19" class="node">
<title>Node19</title>
<g id="a_node19"><a xlink:href="exif-content_8h.html" target="_top" xlink:title="Handling EXIF IFDs.">
<polygon fill="white" stroke="black" points="466,-252 466,-271 583,-271 583,-252 466,-252"/>
<text text-anchor="middle" x="524.5" y="-259" font-family="Helvetica,sans-Serif" font-size="10.00">libexif/exif&#45;content.h</text>
</a>
</g>
</g>
<!-- Node15&#45;&gt;Node19 -->
<g id="edge27" class="edge">
<title>Node15&#45;&gt;Node19</title>
<path fill="none" stroke="midnightblue" d="M556.91,-318.73C548.33,-308.89 537.16,-292.66 530.1,-280.16"/>
<polygon fill="midnightblue" stroke="midnightblue" points="533.14,-278.41 525.45,-271.13 526.92,-281.62 533.14,-278.41"/>
</g>
<!-- Node18&#45;&gt;Node16 -->
<g id="edge26" class="edge">
<title>Node18&#45;&gt;Node16</title>
<path fill="none" stroke="midnightblue" d="M749.04,-190.32C735,-181.9 713.45,-168.97 696.96,-159.07"/>
<polygon fill="midnightblue" stroke="midnightblue" points="698.3,-155.8 687.92,-153.65 694.7,-161.8 698.3,-155.8"/>
</g>
<!-- Node18&#45;&gt;Node17 -->
<g id="edge25" class="edge">
<title>Node18&#45;&gt;Node17</title>
<path fill="none" stroke="midnightblue" d="M769.94,-190.08C775.45,-182.46 783.53,-171.26 790.26,-161.94"/>
<polygon fill="midnightblue" stroke="midnightblue" points="793.16,-163.91 796.18,-153.75 787.49,-159.81 793.16,-163.91"/>
</g>
<!-- Node19&#45;&gt;Node6 -->
<g id="edge34" class="edge">
<title>Node19&#45;&gt;Node6</title>
<path fill="none" stroke="midnightblue" d="M497.71,-251.98C465.21,-241.64 410.29,-224.16 373.96,-212.6"/>
<polygon fill="midnightblue" stroke="midnightblue" points="374.83,-209.21 364.24,-209.51 372.71,-215.88 374.83,-209.21"/>
</g>
<!-- Node19&#45;&gt;Node7 -->
<g id="edge35" class="edge">
<title>Node19&#45;&gt;Node7</title>
<path fill="none" stroke="midnightblue" d="M531.62,-251.87C539,-242.32 550.07,-226.13 554.5,-210 558.82,-194.26 553.59,-176.23 547.98,-163.15"/>
<polygon fill="midnightblue" stroke="midnightblue" points="551.02,-161.41 543.58,-153.87 544.7,-164.41 551.02,-161.41"/>
</g>
<!-- Node19&#45;&gt;Node15 -->
<g id="edge33" class="edge">
<title>Node19&#45;&gt;Node15</title>
<path fill="none" stroke="midnightblue" d="M534.97,-271.13C543.53,-280.91 554.7,-297.13 561.8,-309.66"/>
<polygon fill="midnightblue" stroke="midnightblue" points="558.79,-311.46 566.49,-318.73 565,-308.24 558.79,-311.46"/>
</g>
<!-- Node19&#45;&gt;Node18 -->
<g id="edge28" class="edge">
<title>Node19&#45;&gt;Node18</title>
<path fill="none" stroke="midnightblue" d="M558.74,-251.98C601.07,-241.44 673.18,-223.49 719.55,-211.94"/>
<polygon fill="midnightblue" stroke="midnightblue" points="720.46,-215.32 729.32,-209.51 718.77,-208.53 720.46,-215.32"/>
</g>
<!-- Node20 -->
<g id="node20" class="node">
<title>Node20</title>
<g id="a_node20"><a xlink:href="exif-entry_8h.html" target="_top" xlink:title="Handling EXIF entries.">
<polygon fill="white" stroke="black" points="441.5,-190.5 441.5,-209.5 545.5,-209.5 545.5,-190.5 441.5,-190.5"/>
<text text-anchor="middle" x="493.5" y="-197.5" font-family="Helvetica,sans-Serif" font-size="10.00">libexif/exif&#45;entry.h</text>
</a>
</g>
</g>
<!-- Node19&#45;&gt;Node20 -->
<g id="edge29" class="edge">
<title>Node19&#45;&gt;Node20</title>
<path fill="none" stroke="midnightblue" d="M515.16,-251.98C508.82,-243.4 501.35,-229.93 496.61,-218.98"/>
<polygon fill="midnightblue" stroke="midnightblue" points="499.84,-217.63 493.04,-209.51 493.29,-220.1 499.84,-217.63"/>
</g>
<!-- Node20&#45;&gt;Node7 -->
<g id="edge32" class="edge">
<title>Node20&#45;&gt;Node7</title>
<path fill="none" stroke="midnightblue" d="M500.93,-190.08C507.35,-182.38 516.81,-171.03 524.62,-161.65"/>
<polygon fill="midnightblue" stroke="midnightblue" points="527.49,-163.67 531.21,-153.75 522.12,-159.19 527.49,-163.67"/>
</g>
<!-- Node20&#45;&gt;Node10 -->
<g id="edge31" class="edge">
<title>Node20&#45;&gt;Node10</title>
<path fill="none" stroke="midnightblue" d="M490.04,-190.44C486.45,-181.44 480.78,-166.83 476.5,-154 462.45,-111.91 448.55,-61.66 441.42,-35.1"/>
<polygon fill="midnightblue" stroke="midnightblue" points="444.75,-34.02 438.79,-25.26 437.99,-35.82 444.75,-34.02"/>
</g>
<!-- Node20&#45;&gt;Node19 -->
<g id="edge30" class="edge">
<title>Node20&#45;&gt;Node19</title>
<path fill="none" stroke="midnightblue" d="M502.83,-209.51C509.16,-218.07 516.64,-231.55 521.38,-242.5"/>
<polygon fill="midnightblue" stroke="midnightblue" points="518.15,-243.86 524.96,-251.98 524.7,-241.38 518.15,-243.86"/>
</g>
</g>
</svg>
