<?xml version="1.0" encoding="UTF-8" standalone="no"?>
<!DOCTYPE svg PUBLIC "-//W3C//DTD SVG 1.1//EN"
 "http://www.w3.org/Graphics/SVG/1.1/DTD/svg11.dtd">
<!-- Generated by graphviz version 2.44.1 (0)
 -->
<!-- Title: exif_tag_get_support_level_in_ifd Pages: 1 -->
<svg width="619pt" height="66pt"
 viewBox="0.00 0.00 619.00 66.00" xmlns="http://www.w3.org/2000/svg" xmlns:xlink="http://www.w3.org/1999/xlink">
<g id="graph0" class="graph" transform="scale(1 1) rotate(0) translate(4 62)">
<title>exif_tag_get_support_level_in_ifd</title>
<polygon fill="white" stroke="transparent" points="-4,4 -4,-62 615,-62 615,4 -4,4"/>
<!-- Node1 -->
<g id="node1" class="node">
<title>Node1</title>
<g id="a_node1"><a xlink:title="Return whether the given tag is mandatory or not in the given IFD and data type according to the EXIF...">
<polygon fill="#bfbfbf" stroke="black" points="0,-14 0,-44 119,-44 119,-14 0,-14"/>
<text text-anchor="start" x="8" y="-32" font-family="Helvetica,sans-Serif" font-size="10.00">exif_tag_get_support</text>
<text text-anchor="middle" x="59.5" y="-21" font-family="Helvetica,sans-Serif" font-size="10.00">_level_in_ifd</text>
</a>
</g>
</g>
<!-- Node2 -->
<g id="node2" class="node">
<title>Node2</title>
<g id="a_node2"><a xlink:href="exif-tag_8c.html#a92f313f59c9f2fc4bebe2438be038bd9" target="_top" xlink:title="Return the support level of a tag in the given IFD, regardless of the data type.">
<polygon fill="white" stroke="black" points="155,-38.5 155,-57.5 309,-57.5 309,-38.5 155,-38.5"/>
<text text-anchor="middle" x="232" y="-45.5" font-family="Helvetica,sans-Serif" font-size="10.00">get_support_level_any_type</text>
</a>
</g>
</g>
<!-- Node1&#45;&gt;Node2 -->
<g id="edge1" class="edge">
<title>Node1&#45;&gt;Node2</title>
<path fill="none" stroke="midnightblue" d="M119.18,-35.54C127.42,-36.46 136.02,-37.42 144.64,-38.38"/>
<polygon fill="midnightblue" stroke="midnightblue" points="144.43,-41.87 154.75,-39.5 145.2,-34.92 144.43,-41.87"/>
</g>
<!-- Node6 -->
<g id="node6" class="node">
<title>Node6</title>
<g id="a_node6"><a xlink:href="exif-tag_8c.html#a1581a40dbcb0f27d4a3f8181b272c55b" target="_top" xlink:title="Return the support level of a tag in the given IFD with the given data type.">
<polygon fill="white" stroke="black" points="164,-0.5 164,-19.5 300,-19.5 300,-0.5 164,-0.5"/>
<text text-anchor="middle" x="232" y="-7.5" font-family="Helvetica,sans-Serif" font-size="10.00">get_support_level_in_ifd</text>
</a>
</g>
</g>
<!-- Node1&#45;&gt;Node6 -->
<g id="edge5" class="edge">
<title>Node1&#45;&gt;Node6</title>
<path fill="none" stroke="midnightblue" d="M119.18,-22.46C130.28,-21.22 142.05,-19.91 153.62,-18.62"/>
<polygon fill="midnightblue" stroke="midnightblue" points="154.17,-22.08 163.72,-17.5 153.39,-15.13 154.17,-22.08"/>
</g>
<!-- Node3 -->
<g id="node3" class="node">
<title>Node3</title>
<g id="a_node3"><a xlink:href="exif-tag_8c.html#a389f8ff3411e0525b28367892f1e78d3" target="_top" xlink:title="Finds the first entry in the EXIF tag table with the given tag number using a binary search.">
<polygon fill="white" stroke="black" points="345,-19.5 345,-38.5 456,-38.5 456,-19.5 345,-19.5"/>
<text text-anchor="middle" x="400.5" y="-26.5" font-family="Helvetica,sans-Serif" font-size="10.00">exif_tag_table_first</text>
</a>
</g>
</g>
<!-- Node2&#45;&gt;Node3 -->
<g id="edge2" class="edge">
<title>Node2&#45;&gt;Node3</title>
<path fill="none" stroke="midnightblue" d="M309.43,-39.28C317.94,-38.31 326.54,-37.33 334.88,-36.37"/>
<polygon fill="midnightblue" stroke="midnightblue" points="335.36,-39.84 344.9,-35.23 334.57,-32.89 335.36,-39.84"/>
</g>
<!-- Node4 -->
<g id="node4" class="node">
<title>Node4</title>
<g id="a_node4"><a xlink:href="exif-tag_8c.html#a87563ee64809f5f0deb4d780098508c1" target="_top" xlink:title="Return the number of entries in the EXIF tag table, including the terminating NULL entry.">
<polygon fill="white" stroke="black" points="492,-38.5 492,-57.5 611,-57.5 611,-38.5 492,-38.5"/>
<text text-anchor="middle" x="551.5" y="-45.5" font-family="Helvetica,sans-Serif" font-size="10.00">exif_tag_table_count</text>
</a>
</g>
</g>
<!-- Node3&#45;&gt;Node4 -->
<g id="edge3" class="edge">
<title>Node3&#45;&gt;Node4</title>
<path fill="none" stroke="midnightblue" d="M456.14,-35.97C464.49,-37.03 473.21,-38.14 481.82,-39.24"/>
<polygon fill="midnightblue" stroke="midnightblue" points="481.5,-42.73 491.86,-40.52 482.38,-35.79 481.5,-42.73"/>
</g>
<!-- Node5 -->
<g id="node5" class="node">
<title>Node5</title>
<g id="a_node5"><a xlink:href="exif-tag_8c.html#a220c1b18832f113bc84ff9551754915f" target="_top" xlink:title="Compares the tag with that in entry.">
<polygon fill="white" stroke="black" points="517.5,-0.5 517.5,-19.5 585.5,-19.5 585.5,-0.5 517.5,-0.5"/>
<text text-anchor="middle" x="551.5" y="-7.5" font-family="Helvetica,sans-Serif" font-size="10.00">match_tag</text>
</a>
</g>
</g>
<!-- Node3&#45;&gt;Node5 -->
<g id="edge4" class="edge">
<title>Node3&#45;&gt;Node5</title>
<path fill="none" stroke="midnightblue" d="M456.14,-22.03C472.9,-19.9 491.1,-17.57 507.01,-15.55"/>
<polygon fill="midnightblue" stroke="midnightblue" points="507.62,-19 517.1,-14.26 506.74,-12.05 507.62,-19"/>
</g>
<!-- Node6&#45;&gt;Node3 -->
<g id="edge6" class="edge">
<title>Node6&#45;&gt;Node3</title>
<path fill="none" stroke="midnightblue" d="M300.24,-17.67C311.57,-18.97 323.32,-20.31 334.59,-21.59"/>
<polygon fill="midnightblue" stroke="midnightblue" points="334.45,-25.1 344.78,-22.76 335.24,-18.14 334.45,-25.1"/>
</g>
</g>
</svg>
