<?xml version="1.0" encoding="UTF-8" standalone="no"?>
<!DOCTYPE svg PUBLIC "-//W3C//DTD SVG 1.1//EN"
 "http://www.w3.org/Graphics/SVG/1.1/DTD/svg11.dtd">
<!-- Generated by graphviz version 2.44.1 (0)
 -->
<!-- Title: exif_entry_free Pages: 1 -->
<svg width="359pt" height="47pt"
 viewBox="0.00 0.00 359.00 47.00" xmlns="http://www.w3.org/2000/svg" xmlns:xlink="http://www.w3.org/1999/xlink">
<g id="graph0" class="graph" transform="scale(1 1) rotate(0) translate(4 43)">
<title>exif_entry_free</title>
<polygon fill="white" stroke="transparent" points="-4,4 -4,-43 355,-43 355,4 -4,4"/>
<!-- Node1 -->
<g id="node1" class="node">
<title>Node1</title>
<g id="a_node1"><a xlink:title="Actually free the ExifEntry.">
<polygon fill="#bfbfbf" stroke="black" points="0,-19.5 0,-38.5 91,-38.5 91,-19.5 0,-19.5"/>
<text text-anchor="middle" x="45.5" y="-26.5" font-family="Helvetica,sans-Serif" font-size="10.00">exif_entry_free</text>
</a>
</g>
</g>
<!-- Node2 -->
<g id="node2" class="node">
<title>Node2</title>
<g id="a_node2"><a xlink:href="exif-mem_8c.html#a43190b81b4b4bdb4ffb89bfb612051b1" target="_top" xlink:title=" ">
<polygon fill="white" stroke="black" points="260,-19.5 260,-38.5 351,-38.5 351,-19.5 260,-19.5"/>
<text text-anchor="middle" x="305.5" y="-26.5" font-family="Helvetica,sans-Serif" font-size="10.00">exif_mem_free</text>
</a>
</g>
</g>
<!-- Node1&#45;&gt;Node2 -->
<g id="edge1" class="edge">
<title>Node1&#45;&gt;Node2</title>
<path fill="none" stroke="midnightblue" d="M91.15,-29C135.22,-29 202.68,-29 249.92,-29"/>
<polygon fill="midnightblue" stroke="midnightblue" points="249.97,-32.5 259.97,-29 249.97,-25.5 249.97,-32.5"/>
</g>
<!-- Node3 -->
<g id="node3" class="node">
<title>Node3</title>
<g id="a_node3"><a xlink:href="exif-mem_8c.html#a66744e0987af08c443df247ce55f7d87" target="_top" xlink:title="Unrefcount an ExifMem.">
<polygon fill="white" stroke="black" points="127,-0.5 127,-19.5 224,-19.5 224,-0.5 127,-0.5"/>
<text text-anchor="middle" x="175.5" y="-7.5" font-family="Helvetica,sans-Serif" font-size="10.00">exif_mem_unref</text>
</a>
</g>
</g>
<!-- Node1&#45;&gt;Node3 -->
<g id="edge2" class="edge">
<title>Node1&#45;&gt;Node3</title>
<path fill="none" stroke="midnightblue" d="M91.27,-22.35C99.56,-21.12 108.32,-19.82 116.93,-18.55"/>
<polygon fill="midnightblue" stroke="midnightblue" points="117.55,-21.99 126.93,-17.06 116.52,-15.07 117.55,-21.99"/>
</g>
<!-- Node3&#45;&gt;Node2 -->
<g id="edge3" class="edge">
<title>Node3&#45;&gt;Node2</title>
<path fill="none" stroke="midnightblue" d="M224.16,-17.07C232.54,-18.32 241.32,-19.62 249.87,-20.89"/>
<polygon fill="midnightblue" stroke="midnightblue" points="249.36,-24.35 259.77,-22.36 250.39,-17.43 249.36,-24.35"/>
</g>
</g>
</svg>
