<?xml version="1.0" encoding="UTF-8" standalone="no"?>
<!DOCTYPE svg PUBLIC "-//W3C//DTD SVG 1.1//EN"
 "http://www.w3.org/Graphics/SVG/1.1/DTD/svg11.dtd">
<!-- Generated by graphviz version 7.0.1 (0)
 -->
<!-- Title: exif_content_new Pages: 1 -->
<svg width="448pt" height="249pt"
 viewBox="0.00 0.00 448.00 249.00" xmlns="http://www.w3.org/2000/svg" xmlns:xlink="http://www.w3.org/1999/xlink">
<g id="graph0" class="graph" transform="scale(1 1) rotate(0) translate(4 245)">
<title>exif_content_new</title>
<!-- Node1 -->
<g id="Node000001" class="node">
<title>Node1</title>
<g id="a_Node000001"><a xlink:title="Reserve memory for and initialize a new ExifContent.">
<polygon fill="#999999" stroke="#666666" points="103,-167 0,-167 0,-148 103,-148 103,-167"/>
<text text-anchor="middle" x="51.5" y="-155" font-family="Helvetica,sans-Serif" font-size="10.00">exif_content_new</text>
</a>
</g>
</g>
<!-- Node2 -->
<g id="Node000002" class="node">
<title>Node2</title>
<g id="a_Node000002"><a xlink:href="exif-content_8c.html#a5c62559b8623211854276df1536c3dac" target="_top" xlink:title="Reserve memory for and initialize new ExifContent using the specified memory allocator.">
<polygon fill="white" stroke="#666666" points="273,-204 139,-204 139,-185 273,-185 273,-204"/>
<text text-anchor="middle" x="206" y="-192" font-family="Helvetica,sans-Serif" font-size="10.00">exif_content_new_mem</text>
</a>
</g>
</g>
<!-- Node1&#45;&gt;Node2 -->
<g id="edge1_Node000001_Node000002" class="edge">
<title>Node1&#45;&gt;Node2</title>
<g id="a_edge1_Node000001_Node000002"><a xlink:title=" ">
<path fill="none" stroke="#63b8ff" d="M93.37,-167.42C111.66,-171.85 133.44,-177.14 152.88,-181.86"/>
<polygon fill="#63b8ff" stroke="#63b8ff" points="152.01,-185.24 162.55,-184.2 153.66,-178.44 152.01,-185.24"/>
</a>
</g>
</g>
<!-- Node6 -->
<g id="Node000006" class="node">
<title>Node6</title>
<g id="a_Node000006"><a xlink:href="exif-mem_8c.html#acc8fd4e1a319a790581975db6f1a7233" target="_top" xlink:title="Create a new ExifMem with default values for your convenience.">
<polygon fill="white" stroke="#666666" points="271.5,-93 140.5,-93 140.5,-74 271.5,-74 271.5,-93"/>
<text text-anchor="middle" x="206" y="-81" font-family="Helvetica,sans-Serif" font-size="10.00">exif_mem_new_default</text>
</a>
</g>
</g>
<!-- Node1&#45;&gt;Node6 -->
<g id="edge5_Node000001_Node000006" class="edge">
<title>Node1&#45;&gt;Node6</title>
<g id="a_edge5_Node000001_Node000006"><a xlink:title=" ">
<path fill="none" stroke="#63b8ff" d="M73.07,-147.52C99.13,-134.87 144.29,-112.96 174.41,-98.34"/>
<polygon fill="#63b8ff" stroke="#63b8ff" points="175.93,-101.5 183.4,-93.98 172.87,-95.2 175.93,-101.5"/>
</a>
</g>
</g>
<!-- Node11 -->
<g id="Node000011" class="node">
<title>Node11</title>
<g id="a_Node000011"><a xlink:href="exif-mem_8c.html#a66744e0987af08c443df247ce55f7d87" target="_top" xlink:title="Unrefcount an ExifMem.">
<polygon fill="white" stroke="#666666" points="254.5,-167 157.5,-167 157.5,-148 254.5,-148 254.5,-167"/>
<text text-anchor="middle" x="206" y="-155" font-family="Helvetica,sans-Serif" font-size="10.00">exif_mem_unref</text>
</a>
</g>
</g>
<!-- Node1&#45;&gt;Node11 -->
<g id="edge10_Node000001_Node000011" class="edge">
<title>Node1&#45;&gt;Node11</title>
<g id="a_edge10_Node000001_Node000011"><a xlink:title=" ">
<path fill="none" stroke="#63b8ff" d="M103.28,-157.5C116.82,-157.5 131.57,-157.5 145.53,-157.5"/>
<polygon fill="#63b8ff" stroke="#63b8ff" points="145.51,-161 155.51,-157.5 145.51,-154 145.51,-161"/>
</a>
</g>
</g>
<!-- Node3 -->
<g id="Node000003" class="node">
<title>Node3</title>
<g id="a_Node000003"><a xlink:href="exif-mem_8c.html#a68be7c7afc8cff75adc3b1a28b5ae9a2" target="_top" xlink:title=" ">
<polygon fill="white" stroke="#666666" points="422,-241 327,-241 327,-222 422,-222 422,-241"/>
<text text-anchor="middle" x="374.5" y="-229" font-family="Helvetica,sans-Serif" font-size="10.00">exif_mem_alloc</text>
</a>
</g>
</g>
<!-- Node2&#45;&gt;Node3 -->
<g id="edge2_Node000002_Node000003" class="edge">
<title>Node2&#45;&gt;Node3</title>
<g id="a_edge2_Node000002_Node000003"><a xlink:title=" ">
<path fill="none" stroke="#63b8ff" d="M251.62,-204.42C271.96,-208.94 296.26,-214.34 317.79,-219.12"/>
<polygon fill="#63b8ff" stroke="#63b8ff" points="316.76,-222.48 327.28,-221.23 318.28,-215.64 316.76,-222.48"/>
</a>
</g>
</g>
<!-- Node4 -->
<g id="Node000004" class="node">
<title>Node4</title>
<g id="a_Node000004"><a xlink:href="exif-mem_8c.html#a43190b81b4b4bdb4ffb89bfb612051b1" target="_top" xlink:title=" ">
<polygon fill="white" stroke="#666666" points="420,-167 329,-167 329,-148 420,-148 420,-167"/>
<text text-anchor="middle" x="374.5" y="-155" font-family="Helvetica,sans-Serif" font-size="10.00">exif_mem_free</text>
</a>
</g>
</g>
<!-- Node2&#45;&gt;Node4 -->
<g id="edge3_Node000002_Node000004" class="edge">
<title>Node2&#45;&gt;Node4</title>
<g id="a_edge3_Node000002_Node000004"><a xlink:title=" ">
<path fill="none" stroke="#63b8ff" d="M251.62,-184.58C271.96,-180.06 296.26,-174.66 317.79,-169.88"/>
<polygon fill="#63b8ff" stroke="#63b8ff" points="318.28,-173.36 327.28,-167.77 316.76,-166.52 318.28,-173.36"/>
</a>
</g>
</g>
<!-- Node5 -->
<g id="Node000005" class="node">
<title>Node5</title>
<g id="a_Node000005"><a xlink:href="exif-mem_8c.html#af28c61972f529be46907956e0b3e7a60" target="_top" xlink:title="Refcount an ExifMem.">
<polygon fill="white" stroke="#666666" points="417,-204 332,-204 332,-185 417,-185 417,-204"/>
<text text-anchor="middle" x="374.5" y="-192" font-family="Helvetica,sans-Serif" font-size="10.00">exif_mem_ref</text>
</a>
</g>
</g>
<!-- Node2&#45;&gt;Node5 -->
<g id="edge4_Node000002_Node000005" class="edge">
<title>Node2&#45;&gt;Node5</title>
<g id="a_edge4_Node000002_Node000005"><a xlink:title=" ">
<path fill="none" stroke="#63b8ff" d="M273.28,-194.5C289.04,-194.5 305.64,-194.5 320.7,-194.5"/>
<polygon fill="#63b8ff" stroke="#63b8ff" points="320.36,-198 330.36,-194.5 320.36,-191 320.36,-198"/>
</a>
</g>
</g>
<!-- Node7 -->
<g id="Node000007" class="node">
<title>Node7</title>
<g id="a_Node000007"><a xlink:href="exif-mem_8c.html#a9d47487760e137ed23df5e1e79b3d3cd" target="_top" xlink:title="Default memory allocation function.">
<polygon fill="white" stroke="#666666" points="435,-130 314,-130 314,-111 435,-111 435,-130"/>
<text text-anchor="middle" x="374.5" y="-118" font-family="Helvetica,sans-Serif" font-size="10.00">exif_mem_alloc_func</text>
</a>
</g>
</g>
<!-- Node6&#45;&gt;Node7 -->
<g id="edge6_Node000006_Node000007" class="edge">
<title>Node6&#45;&gt;Node7</title>
<g id="a_edge6_Node000006_Node000007"><a xlink:title=" ">
<path fill="none" stroke="#63b8ff" d="M251.62,-93.42C271.96,-97.94 296.26,-103.34 317.79,-108.12"/>
<polygon fill="#63b8ff" stroke="#63b8ff" points="316.76,-111.48 327.28,-110.23 318.28,-104.64 316.76,-111.48"/>
</a>
</g>
</g>
<!-- Node8 -->
<g id="Node000008" class="node">
<title>Node8</title>
<g id="a_Node000008"><a xlink:href="exif-mem_8c.html#a30e654456ffed5baaf5a23f1d8817aa6" target="_top" xlink:title="Default memory free function.">
<polygon fill="white" stroke="#666666" points="433,-93 316,-93 316,-74 433,-74 433,-93"/>
<text text-anchor="middle" x="374.5" y="-81" font-family="Helvetica,sans-Serif" font-size="10.00">exif_mem_free_func</text>
</a>
</g>
</g>
<!-- Node6&#45;&gt;Node8 -->
<g id="edge7_Node000006_Node000008" class="edge">
<title>Node6&#45;&gt;Node8</title>
<g id="a_edge7_Node000006_Node000008"><a xlink:title=" ">
<path fill="none" stroke="#63b8ff" d="M271.85,-83.5C282.44,-83.5 293.46,-83.5 304.16,-83.5"/>
<polygon fill="#63b8ff" stroke="#63b8ff" points="304.09,-87 314.09,-83.5 304.09,-80 304.09,-87"/>
</a>
</g>
</g>
<!-- Node9 -->
<g id="Node000009" class="node">
<title>Node9</title>
<g id="a_Node000009"><a xlink:href="exif-mem_8c.html#a7c75dbf49ec65be9e1aa5b79d79c7ea6" target="_top" xlink:title="Create a new ExifMem.">
<polygon fill="white" stroke="#666666" points="420.5,-56 328.5,-56 328.5,-37 420.5,-37 420.5,-56"/>
<text text-anchor="middle" x="374.5" y="-44" font-family="Helvetica,sans-Serif" font-size="10.00">exif_mem_new</text>
</a>
</g>
</g>
<!-- Node6&#45;&gt;Node9 -->
<g id="edge8_Node000006_Node000009" class="edge">
<title>Node6&#45;&gt;Node9</title>
<g id="a_edge8_Node000006_Node000009"><a xlink:title=" ">
<path fill="none" stroke="#63b8ff" d="M251.62,-73.58C271.96,-69.06 296.26,-63.66 317.79,-58.88"/>
<polygon fill="#63b8ff" stroke="#63b8ff" points="318.28,-62.36 327.28,-56.77 316.76,-55.52 318.28,-62.36"/>
</a>
</g>
</g>
<!-- Node10 -->
<g id="Node000010" class="node">
<title>Node10</title>
<g id="a_Node000010"><a xlink:href="exif-mem_8c.html#a92c900883df8fe466c158d00153404fe" target="_top" xlink:title="Default memory reallocation function.">
<polygon fill="white" stroke="#666666" points="440,-19 309,-19 309,0 440,0 440,-19"/>
<text text-anchor="middle" x="374.5" y="-7" font-family="Helvetica,sans-Serif" font-size="10.00">exif_mem_realloc_func</text>
</a>
</g>
</g>
<!-- Node6&#45;&gt;Node10 -->
<g id="edge9_Node000006_Node000010" class="edge">
<title>Node6&#45;&gt;Node10</title>
<g id="a_edge9_Node000006_Node000010"><a xlink:title=" ">
<path fill="none" stroke="#63b8ff" d="M222.75,-73.67C242.36,-61.74 277.19,-41.6 309,-28.5 313.87,-26.49 319.03,-24.61 324.22,-22.86"/>
<polygon fill="#63b8ff" stroke="#63b8ff" points="324.94,-26.3 333.4,-19.92 322.81,-19.63 324.94,-26.3"/>
</a>
</g>
</g>
<!-- Node11&#45;&gt;Node4 -->
<g id="edge11_Node000011_Node000004" class="edge">
<title>Node11&#45;&gt;Node4</title>
<g id="a_edge11_Node000011_Node000004"><a xlink:title=" ">
<path fill="none" stroke="#63b8ff" d="M254.71,-157.5C274.24,-157.5 296.99,-157.5 317.31,-157.5"/>
<polygon fill="#63b8ff" stroke="#63b8ff" points="317.13,-161 327.13,-157.5 317.13,-154 317.13,-161"/>
</a>
</g>
</g>
</g>
</svg>
