<?xml version="1.0" encoding="UTF-8" standalone="no"?>
<!DOCTYPE svg PUBLIC "-//W3C//DTD SVG 1.1//EN"
 "http://www.w3.org/Graphics/SVG/1.1/DTD/svg11.dtd">
<!-- Generated by graphviz version 2.44.1 (0)
 -->
<!-- Title: exif_entry_get_value Pages: 1 -->
<svg width="707pt" height="458pt"
 viewBox="0.00 0.00 707.00 458.00" xmlns="http://www.w3.org/2000/svg" xmlns:xlink="http://www.w3.org/1999/xlink">
<g id="graph0" class="graph" transform="scale(1 1) rotate(0) translate(4 454)">
<title>exif_entry_get_value</title>
<polygon fill="white" stroke="transparent" points="-4,4 -4,-454 703,-454 703,4 -4,4"/>
<!-- Node1 -->
<g id="node1" class="node">
<title>Node1</title>
<g id="a_node1"><a xlink:title="Return a localized textual representation of the value of the EXIF entry.">
<polygon fill="#bfbfbf" stroke="black" points="0,-209.5 0,-228.5 119,-228.5 119,-209.5 0,-209.5"/>
<text text-anchor="middle" x="59.5" y="-216.5" font-family="Helvetica,sans-Serif" font-size="10.00">exif_entry_get_value</text>
</a>
</g>
</g>
<!-- Node2 -->
<g id="node2" class="node">
<title>Node2</title>
<g id="a_node2"><a xlink:href="exif-content_8c.html#ac72bb2dacf0da27156c2c4dce08eef5d" target="_top" xlink:title="Return the ExifEntry in this IFD corresponding to the given tag.">
<polygon fill="white" stroke="black" points="159,-430.5 159,-449.5 288,-449.5 288,-430.5 159,-430.5"/>
<text text-anchor="middle" x="223.5" y="-437.5" font-family="Helvetica,sans-Serif" font-size="10.00">exif_content_get_entry</text>
</a>
</g>
</g>
<!-- Node1&#45;&gt;Node2 -->
<g id="edge1" class="edge">
<title>Node1&#45;&gt;Node2</title>
<path fill="none" stroke="midnightblue" d="M62.42,-228.78C69.16,-260.52 94.65,-361.71 155,-416 159.5,-420.05 164.73,-423.43 170.25,-426.24"/>
<polygon fill="midnightblue" stroke="midnightblue" points="169.18,-429.59 179.74,-430.47 172.03,-423.2 169.18,-429.59"/>
</g>
<!-- Node3 -->
<g id="node3" class="node">
<title>Node3</title>
<g id="a_node3"><a xlink:href="exif-utils_8c.html#af43ad07a0e309c42ead4897c29319f4c" target="_top" xlink:title="This function converts rather UCS&#45;2LE than UTF&#45;16 to UTF&#45;8.">
<polygon fill="white" stroke="black" points="169.5,-343 169.5,-373 277.5,-373 277.5,-343 169.5,-343"/>
<text text-anchor="start" x="177.5" y="-361" font-family="Helvetica,sans-Serif" font-size="10.00">exif_convert_utf16</text>
<text text-anchor="middle" x="223.5" y="-350" font-family="Helvetica,sans-Serif" font-size="10.00">_to_utf8</text>
</a>
</g>
</g>
<!-- Node1&#45;&gt;Node3 -->
<g id="edge2" class="edge">
<title>Node1&#45;&gt;Node3</title>
<path fill="none" stroke="midnightblue" d="M66.72,-228.71C80.41,-249.42 115.15,-298.49 155,-328 160.14,-331.81 165.84,-335.27 171.69,-338.38"/>
<polygon fill="midnightblue" stroke="midnightblue" points="170.42,-341.65 180.93,-342.96 173.53,-335.38 170.42,-341.65"/>
</g>
<!-- Node4 -->
<g id="node4" class="node">
<title>Node4</title>
<g id="a_node4"><a xlink:href="exif-utils_8c.html#a4b4acf537a8c6b9405e7b53be868e4d7" target="_top" xlink:title="Retrieve an ExifShort value from memory.">
<polygon fill="white" stroke="black" points="344.5,-430.5 344.5,-449.5 430.5,-449.5 430.5,-430.5 344.5,-430.5"/>
<text text-anchor="middle" x="387.5" y="-437.5" font-family="Helvetica,sans-Serif" font-size="10.00">exif_get_short</text>
</a>
</g>
</g>
<!-- Node1&#45;&gt;Node4 -->
<g id="edge23" class="edge">
<title>Node1&#45;&gt;Node4</title>
<path fill="none" stroke="midnightblue" d="M63.1,-228.56C71.32,-256.94 99.58,-341.33 155,-383 169.37,-393.8 270.82,-416.19 334.57,-429.47"/>
<polygon fill="midnightblue" stroke="midnightblue" points="333.95,-432.91 344.46,-431.51 335.37,-426.06 333.95,-432.91"/>
</g>
<!-- Node6 -->
<g id="node6" class="node">
<title>Node6</title>
<g id="a_node6"><a xlink:href="exif-data_8c.html#a2d8d50e6a9c19d28fe8192ef7cc52777" target="_top" xlink:title="Return the byte order in use by this EXIF structure.">
<polygon fill="white" stroke="black" points="332.5,-381 332.5,-411 442.5,-411 442.5,-381 332.5,-381"/>
<text text-anchor="start" x="340.5" y="-399" font-family="Helvetica,sans-Serif" font-size="10.00">exif_data_get_byte</text>
<text text-anchor="middle" x="387.5" y="-388" font-family="Helvetica,sans-Serif" font-size="10.00">_order</text>
</a>
</g>
</g>
<!-- Node1&#45;&gt;Node6 -->
<g id="edge5" class="edge">
<title>Node1&#45;&gt;Node6</title>
<path fill="none" stroke="midnightblue" d="M69.77,-228.65C85.73,-244.7 120.03,-276.91 155,-295 211.23,-324.08 235.78,-304.89 292,-334 310.25,-343.45 311,-351.47 328,-363 334.58,-367.46 341.81,-371.89 348.87,-375.98"/>
<polygon fill="midnightblue" stroke="midnightblue" points="347.24,-379.08 357.67,-380.97 350.69,-372.99 347.24,-379.08"/>
</g>
<!-- Node7 -->
<g id="node7" class="node">
<title>Node7</title>
<g id="a_node7"><a xlink:href="exif-entry_8c.html#ae02e9d58318a3cd50eb6730b5e657e5a" target="_top" xlink:title="Format the value of an ExifEntry for human display in a generic way.">
<polygon fill="white" stroke="black" points="155,-266.5 155,-285.5 292,-285.5 292,-266.5 155,-266.5"/>
<text text-anchor="middle" x="223.5" y="-273.5" font-family="Helvetica,sans-Serif" font-size="10.00">exif_entry_format_value</text>
</a>
</g>
</g>
<!-- Node1&#45;&gt;Node7 -->
<g id="edge6" class="edge">
<title>Node1&#45;&gt;Node7</title>
<path fill="none" stroke="midnightblue" d="M87.62,-228.54C114.48,-237.99 155.82,-252.54 185.66,-263.04"/>
<polygon fill="midnightblue" stroke="midnightblue" points="184.7,-266.41 195.3,-266.43 187.02,-259.81 184.7,-266.41"/>
</g>
<!-- Node8 -->
<g id="node8" class="node">
<title>Node8</title>
<g id="a_node8"><a xlink:href="exif-format_8c.html#a924038efe0cd8ebade8f44619dd794f3" target="_top" xlink:title="Return the raw size of the given EXIF data type.">
<polygon fill="white" stroke="black" points="328,-228.5 328,-247.5 447,-247.5 447,-228.5 328,-228.5"/>
<text text-anchor="middle" x="387.5" y="-235.5" font-family="Helvetica,sans-Serif" font-size="10.00">exif_format_get_size</text>
</a>
</g>
</g>
<!-- Node1&#45;&gt;Node8 -->
<g id="edge21" class="edge">
<title>Node1&#45;&gt;Node8</title>
<path fill="none" stroke="midnightblue" d="M119.16,-222.42C174.84,-225.66 258.55,-230.54 317.44,-233.97"/>
<polygon fill="midnightblue" stroke="midnightblue" points="317.58,-237.49 327.76,-234.58 317.98,-230.5 317.58,-237.49"/>
</g>
<!-- Node11 -->
<g id="node11" class="node">
<title>Node11</title>
<g id="a_node11"><a xlink:href="exif-utils_8c.html#a1feb547c289aa57a4d2119338b03706c" target="_top" xlink:title="Retrieve an ExifRational value from memory.">
<polygon fill="white" stroke="black" points="338,-190.5 338,-209.5 437,-209.5 437,-190.5 338,-190.5"/>
<text text-anchor="middle" x="387.5" y="-197.5" font-family="Helvetica,sans-Serif" font-size="10.00">exif_get_rational</text>
</a>
</g>
</g>
<!-- Node1&#45;&gt;Node11 -->
<g id="edge22" class="edge">
<title>Node1&#45;&gt;Node11</title>
<path fill="none" stroke="midnightblue" d="M119.16,-215.58C178.13,-212.14 268.53,-206.88 327.59,-203.43"/>
<polygon fill="midnightblue" stroke="midnightblue" points="328.1,-206.91 337.88,-202.83 327.69,-199.92 328.1,-206.91"/>
</g>
<!-- Node12 -->
<g id="node12" class="node">
<title>Node12</title>
<g id="a_node12"><a xlink:href="exif-utils_8c.html#adb97c3499488d5642a82df1cb16dc2cb" target="_top" xlink:title="Retrieve an ExifSRational value from memory.">
<polygon fill="white" stroke="black" points="335.5,-152.5 335.5,-171.5 439.5,-171.5 439.5,-152.5 335.5,-152.5"/>
<text text-anchor="middle" x="387.5" y="-159.5" font-family="Helvetica,sans-Serif" font-size="10.00">exif_get_srational</text>
</a>
</g>
</g>
<!-- Node1&#45;&gt;Node12 -->
<g id="edge24" class="edge">
<title>Node1&#45;&gt;Node12</title>
<path fill="none" stroke="midnightblue" d="M109.51,-209.46C124.13,-206.67 140.21,-203.65 155,-201 212.74,-190.64 278.74,-179.6 325.45,-171.92"/>
<polygon fill="midnightblue" stroke="midnightblue" points="326.11,-175.36 335.41,-170.29 324.98,-168.45 326.11,-175.36"/>
</g>
<!-- Node13 -->
<g id="node13" class="node">
<title>Node13</title>
<g id="a_node13"><a xlink:href="exif-entry_8c.html#ac416e8326bd687f5da299d1b15a731bf" target="_top" xlink:title=" ">
<polygon fill="white" stroke="black" points="180.5,-114.5 180.5,-133.5 266.5,-133.5 266.5,-114.5 180.5,-114.5"/>
<text text-anchor="middle" x="223.5" y="-121.5" font-family="Helvetica,sans-Serif" font-size="10.00">exif_entry_log</text>
</a>
</g>
</g>
<!-- Node1&#45;&gt;Node13 -->
<g id="edge18" class="edge">
<title>Node1&#45;&gt;Node13</title>
<path fill="none" stroke="midnightblue" d="M71.1,-209.31C87.84,-194.42 121.92,-165.77 155,-148 162.72,-143.85 171.3,-140.17 179.68,-137.01"/>
<polygon fill="midnightblue" stroke="midnightblue" points="181.13,-140.21 189.37,-133.55 178.78,-133.62 181.13,-140.21"/>
</g>
<!-- Node16 -->
<g id="node16" class="node">
<title>Node16</title>
<g id="a_node16"><a xlink:href="exif-mem_8c.html#ae8c09cfbcb95e435c4c4b7ec3bbd79e4" target="_top" xlink:title=" ">
<polygon fill="white" stroke="black" points="176,-76.5 176,-95.5 271,-95.5 271,-76.5 176,-76.5"/>
<text text-anchor="middle" x="223.5" y="-83.5" font-family="Helvetica,sans-Serif" font-size="10.00">exif_mem_alloc</text>
</a>
</g>
</g>
<!-- Node1&#45;&gt;Node16 -->
<g id="edge25" class="edge">
<title>Node1&#45;&gt;Node16</title>
<path fill="none" stroke="midnightblue" d="M65.71,-209.38C78.13,-187.38 111.68,-133.17 155,-105 158.56,-102.69 162.4,-100.65 166.38,-98.86"/>
<polygon fill="midnightblue" stroke="midnightblue" points="167.85,-102.04 175.86,-95.11 165.28,-95.53 167.85,-102.04"/>
</g>
<!-- Node17 -->
<g id="node17" class="node">
<title>Node17</title>
<g id="a_node17"><a xlink:href="exif-mem_8c.html#a43190b81b4b4bdb4ffb89bfb612051b1" target="_top" xlink:title=" ">
<polygon fill="white" stroke="black" points="178,-38.5 178,-57.5 269,-57.5 269,-38.5 178,-38.5"/>
<text text-anchor="middle" x="223.5" y="-45.5" font-family="Helvetica,sans-Serif" font-size="10.00">exif_mem_free</text>
</a>
</g>
</g>
<!-- Node1&#45;&gt;Node17 -->
<g id="edge26" class="edge">
<title>Node1&#45;&gt;Node17</title>
<path fill="none" stroke="midnightblue" d="M63.64,-209.46C72.95,-182.64 103.08,-106.02 155,-67 159.09,-63.92 163.66,-61.35 168.44,-59.19"/>
<polygon fill="midnightblue" stroke="midnightblue" points="169.78,-62.42 177.82,-55.52 167.23,-55.9 169.78,-62.42"/>
</g>
<!-- Node18 -->
<g id="node18" class="node">
<title>Node18</title>
<g id="a_node18"><a xlink:href="exif-entry_8c.html#acfe97d1f369d95332b6e796c690093e4" target="_top" xlink:title="Check if a string consists entirely of a single, repeated character.">
<polygon fill="white" stroke="black" points="162.5,-0.5 162.5,-19.5 284.5,-19.5 284.5,-0.5 162.5,-0.5"/>
<text text-anchor="middle" x="223.5" y="-7.5" font-family="Helvetica,sans-Serif" font-size="10.00">match_repeated_char</text>
</a>
</g>
</g>
<!-- Node1&#45;&gt;Node18 -->
<g id="edge27" class="edge">
<title>Node1&#45;&gt;Node18</title>
<path fill="none" stroke="midnightblue" d="M62.39,-209.4C69.04,-178.27 94.29,-79.29 155,-29 157.05,-27.3 159.24,-25.75 161.54,-24.34"/>
<polygon fill="midnightblue" stroke="midnightblue" points="163.54,-27.25 170.82,-19.57 160.33,-21.03 163.54,-27.25"/>
</g>
<!-- Node3&#45;&gt;Node4 -->
<g id="edge3" class="edge">
<title>Node3&#45;&gt;Node4</title>
<path fill="none" stroke="midnightblue" d="M264.18,-373.07C273.61,-377.34 283.42,-382.38 292,-388 310.15,-399.9 309.25,-410.06 328,-421 331.63,-423.12 335.53,-425.03 339.53,-426.76"/>
<polygon fill="midnightblue" stroke="midnightblue" points="338.37,-430.06 348.96,-430.45 340.92,-423.55 338.37,-430.06"/>
</g>
<!-- Node5 -->
<g id="node5" class="node">
<title>Node5</title>
<g id="a_node5"><a xlink:href="exif-utils_8c.html#a6baf094a71392f9cea23ad633ec13c8b" target="_top" xlink:title="Retrieve an ExifSShort value from memory.">
<polygon fill="white" stroke="black" points="483,-386.5 483,-405.5 575,-405.5 575,-386.5 483,-386.5"/>
<text text-anchor="middle" x="529" y="-393.5" font-family="Helvetica,sans-Serif" font-size="10.00">exif_get_sshort</text>
</a>
</g>
</g>
<!-- Node4&#45;&gt;Node5 -->
<g id="edge4" class="edge">
<title>Node4&#45;&gt;Node5</title>
<path fill="none" stroke="midnightblue" d="M418.77,-430.45C439.06,-424.05 466,-415.56 488.05,-408.6"/>
<polygon fill="midnightblue" stroke="midnightblue" points="489.31,-411.87 497.79,-405.53 487.2,-405.2 489.31,-411.87"/>
</g>
<!-- Node7&#45;&gt;Node4 -->
<g id="edge13" class="edge">
<title>Node7&#45;&gt;Node4</title>
<path fill="none" stroke="midnightblue" d="M239.18,-285.52C254.19,-295.88 277.32,-313.73 292,-334 316.54,-367.9 297.27,-392.59 328,-421 330.28,-423.11 332.79,-424.98 335.46,-426.65"/>
<polygon fill="midnightblue" stroke="midnightblue" points="333.92,-429.79 344.41,-431.29 337.15,-423.58 333.92,-429.79"/>
</g>
<!-- Node7&#45;&gt;Node5 -->
<g id="edge17" class="edge">
<title>Node7&#45;&gt;Node5</title>
<path fill="none" stroke="midnightblue" d="M258.03,-285.56C269.17,-289.35 281.42,-294.2 292,-300 309.78,-309.74 310.16,-318.38 328,-328 355.69,-342.93 436.09,-368.39 486.12,-383.56"/>
<polygon fill="midnightblue" stroke="midnightblue" points="485.11,-386.91 495.69,-386.45 487.13,-380.21 485.11,-386.91"/>
</g>
<!-- Node7&#45;&gt;Node6 -->
<g id="edge7" class="edge">
<title>Node7&#45;&gt;Node6</title>
<path fill="none" stroke="midnightblue" d="M266.32,-285.54C275.47,-289.01 284.62,-293.7 292,-300 317.41,-321.69 304.07,-342.68 328,-366 331.64,-369.54 335.77,-372.76 340.13,-375.66"/>
<polygon fill="midnightblue" stroke="midnightblue" points="338.34,-378.67 348.7,-380.84 341.96,-372.67 338.34,-378.67"/>
</g>
<!-- Node7&#45;&gt;Node8 -->
<g id="edge8" class="edge">
<title>Node7&#45;&gt;Node8</title>
<path fill="none" stroke="midnightblue" d="M265.38,-266.41C286.85,-261.37 313.36,-255.16 336.1,-249.82"/>
<polygon fill="midnightblue" stroke="midnightblue" points="336.98,-253.21 345.91,-247.52 335.38,-246.4 336.98,-253.21"/>
</g>
<!-- Node9 -->
<g id="node9" class="node">
<title>Node9</title>
<g id="a_node9"><a xlink:href="exif-utils_8c.html#a4ad94614630897766dd0a5c9bc2a59bf" target="_top" xlink:title="Retrieve an ExifLong value from memory.">
<polygon fill="white" stroke="black" points="487.5,-228.5 487.5,-247.5 570.5,-247.5 570.5,-228.5 487.5,-228.5"/>
<text text-anchor="middle" x="529" y="-235.5" font-family="Helvetica,sans-Serif" font-size="10.00">exif_get_long</text>
</a>
</g>
</g>
<!-- Node7&#45;&gt;Node9 -->
<g id="edge9" class="edge">
<title>Node7&#45;&gt;Node9</title>
<path fill="none" stroke="midnightblue" d="M292.48,-272.76C336.7,-270.02 395.5,-265.19 447,-257 458.58,-255.16 470.97,-252.57 482.48,-249.9"/>
<polygon fill="midnightblue" stroke="midnightblue" points="483.42,-253.27 492.33,-247.55 481.8,-246.47 483.42,-253.27"/>
</g>
<!-- Node10 -->
<g id="node10" class="node">
<title>Node10</title>
<g id="a_node10"><a xlink:href="exif-utils_8c.html#a56b96f076a13da6ed926e1ef29cb2dc3" target="_top" xlink:title="Retrieve an ExifSLong value from memory.">
<polygon fill="white" stroke="black" points="611,-228.5 611,-247.5 699,-247.5 699,-228.5 611,-228.5"/>
<text text-anchor="middle" x="655" y="-235.5" font-family="Helvetica,sans-Serif" font-size="10.00">exif_get_slong</text>
</a>
</g>
</g>
<!-- Node7&#45;&gt;Node10 -->
<g id="edge14" class="edge">
<title>Node7&#45;&gt;Node10</title>
<path fill="none" stroke="midnightblue" d="M292.14,-276.75C304.09,-276.85 316.41,-276.94 328,-277 380.89,-277.26 394.27,-281.09 447,-277 504.41,-272.54 518.52,-268.19 575,-257 585.49,-254.92 596.69,-252.41 607.26,-249.9"/>
<polygon fill="midnightblue" stroke="midnightblue" points="608.26,-253.26 617.16,-247.51 606.62,-246.46 608.26,-253.26"/>
</g>
<!-- Node7&#45;&gt;Node11 -->
<g id="edge11" class="edge">
<title>Node7&#45;&gt;Node11</title>
<path fill="none" stroke="midnightblue" d="M239.81,-266.36C259.62,-254.18 295.43,-233.1 328,-219 333.02,-216.82 338.38,-214.76 343.73,-212.85"/>
<polygon fill="midnightblue" stroke="midnightblue" points="344.97,-216.12 353.3,-209.58 342.7,-209.5 344.97,-216.12"/>
</g>
<!-- Node7&#45;&gt;Node12 -->
<g id="edge15" class="edge">
<title>Node7&#45;&gt;Node12</title>
<path fill="none" stroke="midnightblue" d="M232.33,-266.47C248.37,-247.55 286.92,-204.97 328,-181 331.63,-178.88 335.53,-176.96 339.53,-175.24"/>
<polygon fill="midnightblue" stroke="midnightblue" points="340.92,-178.45 348.95,-171.55 338.37,-171.93 340.92,-178.45"/>
</g>
<!-- Node9&#45;&gt;Node10 -->
<g id="edge10" class="edge">
<title>Node9&#45;&gt;Node10</title>
<path fill="none" stroke="midnightblue" d="M570.6,-238C580.14,-238 590.45,-238 600.47,-238"/>
<polygon fill="midnightblue" stroke="midnightblue" points="600.75,-241.5 610.75,-238 600.75,-234.5 600.75,-241.5"/>
</g>
<!-- Node11&#45;&gt;Node9 -->
<g id="edge12" class="edge">
<title>Node11&#45;&gt;Node9</title>
<path fill="none" stroke="midnightblue" d="M423.7,-209.59C441.71,-214.49 463.83,-220.52 483.06,-225.76"/>
<polygon fill="midnightblue" stroke="midnightblue" points="482.24,-229.16 492.81,-228.41 484.08,-222.41 482.24,-229.16"/>
</g>
<!-- Node12&#45;&gt;Node10 -->
<g id="edge16" class="edge">
<title>Node12&#45;&gt;Node10</title>
<path fill="none" stroke="midnightblue" d="M421.86,-171.55C469.74,-185.26 558.01,-210.52 610.82,-225.64"/>
<polygon fill="midnightblue" stroke="midnightblue" points="609.99,-229.04 620.57,-228.43 611.92,-222.31 609.99,-229.04"/>
</g>
<!-- Node14 -->
<g id="node14" class="node">
<title>Node14</title>
<g id="a_node14"><a xlink:href="exif-entry_8c.html#ad5b86e68c3c96618a946a5c6fcd5f394" target="_top" xlink:title=" ">
<polygon fill="white" stroke="black" points="335.5,-114.5 335.5,-133.5 439.5,-133.5 439.5,-114.5 335.5,-114.5"/>
<text text-anchor="middle" x="387.5" y="-121.5" font-family="Helvetica,sans-Serif" font-size="10.00">exif_data_get_log</text>
</a>
</g>
</g>
<!-- Node13&#45;&gt;Node14 -->
<g id="edge19" class="edge">
<title>Node13&#45;&gt;Node14</title>
<path fill="none" stroke="midnightblue" d="M266.64,-124C284.52,-124 305.72,-124 325.27,-124"/>
<polygon fill="midnightblue" stroke="midnightblue" points="325.33,-127.5 335.33,-124 325.33,-120.5 325.33,-127.5"/>
</g>
<!-- Node15 -->
<g id="node15" class="node">
<title>Node15</title>
<g id="a_node15"><a xlink:href="exif-log_8c.html#a99101b5ad01b2d82ce9d43c9e8534627" target="_top" xlink:title=" ">
<polygon fill="white" stroke="black" points="356.5,-76.5 356.5,-95.5 418.5,-95.5 418.5,-76.5 356.5,-76.5"/>
<text text-anchor="middle" x="387.5" y="-83.5" font-family="Helvetica,sans-Serif" font-size="10.00">exif_logv</text>
</a>
</g>
</g>
<!-- Node13&#45;&gt;Node15 -->
<g id="edge20" class="edge">
<title>Node13&#45;&gt;Node15</title>
<path fill="none" stroke="midnightblue" d="M265.38,-114.41C290.26,-108.58 321.89,-101.15 346.59,-95.36"/>
<polygon fill="midnightblue" stroke="midnightblue" points="347.44,-98.76 356.37,-93.07 345.84,-91.94 347.44,-98.76"/>
</g>
</g>
</svg>
