<?xml version="1.0" encoding="UTF-8" standalone="no"?>
<!DOCTYPE svg PUBLIC "-//W3C//DTD SVG 1.1//EN"
 "http://www.w3.org/Graphics/SVG/1.1/DTD/svg11.dtd">
<!-- Generated by graphviz version 7.0.1 (0)
 -->
<!-- Title: exif_mnote_data_pentax_save Pages: 1 -->
<svg width="457pt" height="212pt"
 viewBox="0.00 0.00 457.00 212.00" xmlns="http://www.w3.org/2000/svg" xmlns:xlink="http://www.w3.org/1999/xlink">
<g id="graph0" class="graph" transform="scale(1 1) rotate(0) translate(4 208)">
<title>exif_mnote_data_pentax_save</title>
<!-- Node1 -->
<g id="Node000001" class="node">
<title>Node1</title>
<g id="a_Node000001"><a xlink:title="save the MnoteData from ne to buf">
<polygon fill="#999999" stroke="#666666" points="167,-111 0,-111 0,-92 167,-92 167,-111"/>
<text text-anchor="middle" x="83.5" y="-99" font-family="Helvetica,sans-Serif" font-size="10.00">exif_mnote_data_pentax_save</text>
</a>
</g>
</g>
<!-- Node2 -->
<g id="Node000002" class="node">
<title>Node2</title>
<g id="a_Node000002"><a xlink:href="exif-format_8c.html#a924038efe0cd8ebade8f44619dd794f3" target="_top" xlink:title="Return the raw size of the given EXIF data type.">
<polygon fill="white" stroke="#666666" points="322,-204 203,-204 203,-185 322,-185 322,-204"/>
<text text-anchor="middle" x="262.5" y="-192" font-family="Helvetica,sans-Serif" font-size="10.00">exif_format_get_size</text>
</a>
</g>
</g>
<!-- Node1&#45;&gt;Node2 -->
<g id="edge1_Node000001_Node000002" class="edge">
<title>Node1&#45;&gt;Node2</title>
<g id="a_edge1_Node000001_Node000002"><a xlink:title=" ">
<path fill="none" stroke="#63b8ff" d="M97.35,-111.26C118.42,-126.89 162.08,-157.67 203,-176.5 206.28,-178.01 209.72,-179.44 213.23,-180.78"/>
<polygon fill="#63b8ff" stroke="#63b8ff" points="211.79,-183.98 222.38,-184.02 214.12,-177.38 211.79,-183.98"/>
</a>
</g>
</g>
<!-- Node3 -->
<g id="Node000003" class="node">
<title>Node3</title>
<g id="a_Node000003"><a xlink:href="exif-log_8c.html#a025d4a5d96544913ea6f6ebbec69cb68" target="_top" xlink:title=" ">
<polygon fill="white" stroke="#666666" points="290.5,-167 234.5,-167 234.5,-148 290.5,-148 290.5,-167"/>
<text text-anchor="middle" x="262.5" y="-155" font-family="Helvetica,sans-Serif" font-size="10.00">exif_log</text>
</a>
</g>
</g>
<!-- Node1&#45;&gt;Node3 -->
<g id="edge2_Node000001_Node000003" class="edge">
<title>Node1&#45;&gt;Node3</title>
<g id="a_edge2_Node000001_Node000003"><a xlink:title=" ">
<path fill="none" stroke="#63b8ff" d="M115.16,-111.44C139.07,-119.17 173.11,-130.11 203,-139.5 209.49,-141.54 216.4,-143.69 223.11,-145.76"/>
<polygon fill="#63b8ff" stroke="#63b8ff" points="222.07,-149.1 232.65,-148.7 224.13,-142.41 222.07,-149.1"/>
</a>
</g>
</g>
<!-- Node5 -->
<g id="Node000005" class="node">
<title>Node5</title>
<g id="a_Node000005"><a xlink:href="exif-mem_8c.html#a68be7c7afc8cff75adc3b1a28b5ae9a2" target="_top" xlink:title=" ">
<polygon fill="white" stroke="#666666" points="310,-130 215,-130 215,-111 310,-111 310,-130"/>
<text text-anchor="middle" x="262.5" y="-118" font-family="Helvetica,sans-Serif" font-size="10.00">exif_mem_alloc</text>
</a>
</g>
</g>
<!-- Node1&#45;&gt;Node5 -->
<g id="edge4_Node000001_Node000005" class="edge">
<title>Node1&#45;&gt;Node5</title>
<g id="a_edge4_Node000001_Node000005"><a xlink:title=" ">
<path fill="none" stroke="#63b8ff" d="M167.3,-110.39C179.58,-111.71 192.01,-113.04 203.63,-114.29"/>
<polygon fill="#63b8ff" stroke="#63b8ff" points="203.13,-117.75 213.45,-115.34 203.88,-110.79 203.13,-117.75"/>
</a>
</g>
</g>
<!-- Node6 -->
<g id="Node000006" class="node">
<title>Node6</title>
<g id="a_Node000006"><a xlink:href="exif-mem_8c.html#a7302da5374a74202e03a781b7c4b7ebe" target="_top" xlink:title=" ">
<polygon fill="white" stroke="#666666" points="314.5,-93 210.5,-93 210.5,-74 314.5,-74 314.5,-93"/>
<text text-anchor="middle" x="262.5" y="-81" font-family="Helvetica,sans-Serif" font-size="10.00">exif_mem_realloc</text>
</a>
</g>
</g>
<!-- Node1&#45;&gt;Node6 -->
<g id="edge5_Node000001_Node000006" class="edge">
<title>Node1&#45;&gt;Node6</title>
<g id="a_edge5_Node000001_Node000006"><a xlink:title=" ">
<path fill="none" stroke="#63b8ff" d="M167.3,-93.08C177.89,-92 188.59,-90.91 198.79,-89.88"/>
<polygon fill="#63b8ff" stroke="#63b8ff" points="198.96,-93.38 208.55,-88.88 198.25,-86.41 198.96,-93.38"/>
</a>
</g>
</g>
<!-- Node7 -->
<g id="Node000007" class="node">
<title>Node7</title>
<g id="a_Node000007"><a xlink:href="exif-utils_8c.html#ac90147d0cc97bec7a577bf9576191bf8" target="_top" xlink:title="Store an ExifLong value into memory in EXIF format.">
<polygon fill="white" stroke="#666666" points="303.5,-56 221.5,-56 221.5,-37 303.5,-37 303.5,-56"/>
<text text-anchor="middle" x="262.5" y="-44" font-family="Helvetica,sans-Serif" font-size="10.00">exif_set_long</text>
</a>
</g>
</g>
<!-- Node1&#45;&gt;Node7 -->
<g id="edge6_Node000001_Node000007" class="edge">
<title>Node1&#45;&gt;Node7</title>
<g id="a_edge6_Node000001_Node000007"><a xlink:title=" ">
<path fill="none" stroke="#63b8ff" d="M116.55,-91.54C145.16,-82.65 187.27,-69.57 218.74,-59.79"/>
<polygon fill="#63b8ff" stroke="#63b8ff" points="219.43,-63.24 227.94,-56.93 217.35,-56.55 219.43,-63.24"/>
</a>
</g>
</g>
<!-- Node9 -->
<g id="Node000009" class="node">
<title>Node9</title>
<g id="a_Node000009"><a xlink:href="exif-utils_8c.html#ad905d16e26b4052a1db34dbebdc37341" target="_top" xlink:title="Store an ExifShort value into memory in EXIF format.">
<polygon fill="white" stroke="#666666" points="305.5,-19 219.5,-19 219.5,0 305.5,0 305.5,-19"/>
<text text-anchor="middle" x="262.5" y="-7" font-family="Helvetica,sans-Serif" font-size="10.00">exif_set_short</text>
</a>
</g>
</g>
<!-- Node1&#45;&gt;Node9 -->
<g id="edge8_Node000001_Node000009" class="edge">
<title>Node1&#45;&gt;Node9</title>
<g id="a_edge8_Node000001_Node000009"><a xlink:title=" ">
<path fill="none" stroke="#63b8ff" d="M98.12,-91.6C119.56,-76.39 162.86,-47.06 203,-28.5 207.03,-26.64 211.29,-24.88 215.61,-23.24"/>
<polygon fill="#63b8ff" stroke="#63b8ff" points="216.66,-26.58 224.91,-19.93 214.31,-19.98 216.66,-26.58"/>
</a>
</g>
</g>
<!-- Node4 -->
<g id="Node000004" class="node">
<title>Node4</title>
<g id="a_Node000004"><a xlink:href="exif-log_8c.html#a99101b5ad01b2d82ce9d43c9e8534627" target="_top" xlink:title=" ">
<polygon fill="white" stroke="#666666" points="434.5,-167 372.5,-167 372.5,-148 434.5,-148 434.5,-167"/>
<text text-anchor="middle" x="403.5" y="-155" font-family="Helvetica,sans-Serif" font-size="10.00">exif_logv</text>
</a>
</g>
</g>
<!-- Node3&#45;&gt;Node4 -->
<g id="edge3_Node000003_Node000004" class="edge">
<title>Node3&#45;&gt;Node4</title>
<g id="a_edge3_Node000003_Node000004"><a xlink:title=" ">
<path fill="none" stroke="#63b8ff" d="M290.96,-157.5C310.9,-157.5 338.24,-157.5 360.87,-157.5"/>
<polygon fill="#63b8ff" stroke="#63b8ff" points="360.69,-161 370.69,-157.5 360.69,-154 360.69,-161"/>
</a>
</g>
</g>
<!-- Node8 -->
<g id="Node000008" class="node">
<title>Node8</title>
<g id="a_Node000008"><a xlink:href="exif-utils_8c.html#ae6e3b9d1663f9ab9bd462d73a310ca03" target="_top" xlink:title="Store an ExifSLong value into memory in EXIF format.">
<polygon fill="white" stroke="#666666" points="447,-56 360,-56 360,-37 447,-37 447,-56"/>
<text text-anchor="middle" x="403.5" y="-44" font-family="Helvetica,sans-Serif" font-size="10.00">exif_set_slong</text>
</a>
</g>
</g>
<!-- Node7&#45;&gt;Node8 -->
<g id="edge7_Node000007_Node000008" class="edge">
<title>Node7&#45;&gt;Node8</title>
<g id="a_edge7_Node000007_Node000008"><a xlink:title=" ">
<path fill="none" stroke="#63b8ff" d="M303.7,-46.5C317.76,-46.5 333.77,-46.5 348.76,-46.5"/>
<polygon fill="#63b8ff" stroke="#63b8ff" points="348.45,-50 358.45,-46.5 348.45,-43 348.45,-50"/>
</a>
</g>
</g>
<!-- Node10 -->
<g id="Node000010" class="node">
<title>Node10</title>
<g id="a_Node000010"><a xlink:href="exif-utils_8c.html#a6504651147702fc6db9a5cd4aa997023" target="_top" xlink:title="Store an ExifSShort value into memory in EXIF format.">
<polygon fill="white" stroke="#666666" points="449,-19 358,-19 358,0 449,0 449,-19"/>
<text text-anchor="middle" x="403.5" y="-7" font-family="Helvetica,sans-Serif" font-size="10.00">exif_set_sshort</text>
</a>
</g>
</g>
<!-- Node9&#45;&gt;Node10 -->
<g id="edge9_Node000009_Node000010" class="edge">
<title>Node9&#45;&gt;Node10</title>
<g id="a_edge9_Node000009_Node000010"><a xlink:title=" ">
<path fill="none" stroke="#63b8ff" d="M305.96,-9.5C318.81,-9.5 333.12,-9.5 346.7,-9.5"/>
<polygon fill="#63b8ff" stroke="#63b8ff" points="346.38,-13 356.38,-9.5 346.38,-6 346.38,-13"/>
</a>
</g>
</g>
</g>
</svg>
