<?xml version="1.0" encoding="UTF-8" standalone="no"?>
<!DOCTYPE svg PUBLIC "-//W3C//DTD SVG 1.1//EN"
 "http://www.w3.org/Graphics/SVG/1.1/DTD/svg11.dtd">
<!-- Generated by graphviz version 7.0.1 (0)
 -->
<!-- Title: exif_entry_realloc Pages: 1 -->
<svg width="252pt" height="101pt"
 viewBox="0.00 0.00 252.00 101.00" xmlns="http://www.w3.org/2000/svg" xmlns:xlink="http://www.w3.org/1999/xlink">
<g id="graph0" class="graph" transform="scale(1 1) rotate(0) translate(4 97)">
<title>exif_entry_realloc</title>
<!-- Node1 -->
<g id="Node000001" class="node">
<title>Node1</title>
<g id="a_Node000001"><a xlink:title=" ">
<polygon fill="#999999" stroke="#666666" points="104,-56 0,-56 0,-37 104,-37 104,-56"/>
<text text-anchor="middle" x="52" y="-44" font-family="Helvetica,sans-Serif" font-size="10.00">exif_entry_realloc</text>
</a>
</g>
</g>
<!-- Node2 -->
<g id="Node000002" class="node">
<title>Node2</title>
<g id="a_Node000002"><a xlink:href="exif-data_8c.html#a9403ed4fde8ef603e9db173eb122efaf" target="_top" xlink:title=" ">
<polygon fill="white" stroke="#666666" points="244,-93 140,-93 140,-74 244,-74 244,-93"/>
<text text-anchor="middle" x="192" y="-81" font-family="Helvetica,sans-Serif" font-size="10.00">exif_data_get_log</text>
</a>
</g>
</g>
<!-- Node1&#45;&gt;Node2 -->
<g id="edge1_Node000001_Node000002" class="edge">
<title>Node1&#45;&gt;Node2</title>
<g id="a_edge1_Node000001_Node000002"><a xlink:title=" ">
<path fill="none" stroke="#63b8ff" d="M89.98,-56.42C106.22,-60.77 125.51,-65.94 142.85,-70.59"/>
<polygon fill="#63b8ff" stroke="#63b8ff" points="141.89,-73.96 152.45,-73.17 143.7,-67.19 141.89,-73.96"/>
</a>
</g>
</g>
<!-- Node3 -->
<g id="Node000003" class="node">
<title>Node3</title>
<g id="a_Node000003"><a xlink:href="exif-mem_8c.html#a43190b81b4b4bdb4ffb89bfb612051b1" target="_top" xlink:title=" ">
<polygon fill="white" stroke="#666666" points="237.5,-56 146.5,-56 146.5,-37 237.5,-37 237.5,-56"/>
<text text-anchor="middle" x="192" y="-44" font-family="Helvetica,sans-Serif" font-size="10.00">exif_mem_free</text>
</a>
</g>
</g>
<!-- Node1&#45;&gt;Node3 -->
<g id="edge2_Node000001_Node000003" class="edge">
<title>Node1&#45;&gt;Node3</title>
<g id="a_edge2_Node000001_Node000003"><a xlink:title=" ">
<path fill="none" stroke="#63b8ff" d="M104.39,-46.5C114.41,-46.5 124.96,-46.5 135.12,-46.5"/>
<polygon fill="#63b8ff" stroke="#63b8ff" points="134.86,-50 144.86,-46.5 134.86,-43 134.86,-50"/>
</a>
</g>
</g>
<!-- Node4 -->
<g id="Node000004" class="node">
<title>Node4</title>
<g id="a_Node000004"><a xlink:href="exif-mem_8c.html#a7302da5374a74202e03a781b7c4b7ebe" target="_top" xlink:title=" ">
<polygon fill="white" stroke="#666666" points="244,-19 140,-19 140,0 244,0 244,-19"/>
<text text-anchor="middle" x="192" y="-7" font-family="Helvetica,sans-Serif" font-size="10.00">exif_mem_realloc</text>
</a>
</g>
</g>
<!-- Node1&#45;&gt;Node4 -->
<g id="edge3_Node000001_Node000004" class="edge">
<title>Node1&#45;&gt;Node4</title>
<g id="a_edge3_Node000001_Node000004"><a xlink:title=" ">
<path fill="none" stroke="#63b8ff" d="M89.98,-36.58C106.22,-32.23 125.51,-27.06 142.85,-22.41"/>
<polygon fill="#63b8ff" stroke="#63b8ff" points="143.7,-25.81 152.45,-19.83 141.89,-19.04 143.7,-25.81"/>
</a>
</g>
</g>
</g>
</svg>
