<?xml version="1.0" encoding="UTF-8" standalone="no"?>
<!DOCTYPE svg PUBLIC "-//W3C//DTD SVG 1.1//EN"
 "http://www.w3.org/Graphics/SVG/1.1/DTD/svg11.dtd">
<!-- Generated by graphviz version 7.0.1 (0)
 -->
<!-- Title: exif_entry_format_value Pages: 1 -->
<svg width="564pt" height="294pt"
 viewBox="0.00 0.00 564.00 293.50" xmlns="http://www.w3.org/2000/svg" xmlns:xlink="http://www.w3.org/1999/xlink">
<g id="graph0" class="graph" transform="scale(1 1) rotate(0) translate(4 289.5)">
<title>exif_entry_format_value</title>
<!-- Node1 -->
<g id="Node000001" class="node">
<title>Node1</title>
<g id="a_Node000001"><a xlink:title="Format the value of an ExifEntry for human display in a generic way.">
<polygon fill="#999999" stroke="#666666" points="137,-142 0,-142 0,-123 137,-123 137,-142"/>
<text text-anchor="middle" x="68.5" y="-130" font-family="Helvetica,sans-Serif" font-size="10.00">exif_entry_format_value</text>
</a>
</g>
</g>
<!-- Node2 -->
<g id="Node000002" class="node">
<title>Node2</title>
<g id="a_Node000002"><a xlink:href="exif-data_8c.html#a2d8d50e6a9c19d28fe8192ef7cc52777" target="_top" xlink:title="Return the byte order in use by this EXIF structure.">
<polygon fill="white" stroke="#666666" points="287.5,-285.5 177.5,-285.5 177.5,-255.5 287.5,-255.5 287.5,-285.5"/>
<text text-anchor="start" x="185.5" y="-273.5" font-family="Helvetica,sans-Serif" font-size="10.00">exif_data_get_byte</text>
<text text-anchor="middle" x="232.5" y="-262.5" font-family="Helvetica,sans-Serif" font-size="10.00">_order</text>
</a>
</g>
</g>
<!-- Node1&#45;&gt;Node2 -->
<g id="edge1_Node000001_Node000002" class="edge">
<title>Node1&#45;&gt;Node2</title>
<g id="a_edge1_Node000001_Node000002"><a xlink:title=" ">
<path fill="none" stroke="#63b8ff" d="M76.13,-142.4C91.06,-164.01 129.44,-215.96 173,-246.5 174.54,-247.58 176.15,-248.63 177.79,-249.64"/>
<polygon fill="#63b8ff" stroke="#63b8ff" points="175.78,-252.53 186.23,-254.28 179.15,-246.39 175.78,-252.53"/>
</a>
</g>
</g>
<!-- Node3 -->
<g id="Node000003" class="node">
<title>Node3</title>
<g id="a_Node000003"><a xlink:href="exif-format_8c.html#a924038efe0cd8ebade8f44619dd794f3" target="_top" xlink:title="Return the raw size of the given EXIF data type.">
<polygon fill="white" stroke="#666666" points="292,-237 173,-237 173,-218 292,-218 292,-237"/>
<text text-anchor="middle" x="232.5" y="-225" font-family="Helvetica,sans-Serif" font-size="10.00">exif_format_get_size</text>
</a>
</g>
</g>
<!-- Node1&#45;&gt;Node3 -->
<g id="edge2_Node000001_Node000003" class="edge">
<title>Node1&#45;&gt;Node3</title>
<g id="a_edge2_Node000001_Node000003"><a xlink:title=" ">
<path fill="none" stroke="#63b8ff" d="M82.01,-142.38C100.93,-157.02 138.3,-184.75 173,-203.5 179.4,-206.96 186.41,-210.23 193.28,-213.19"/>
<polygon fill="#63b8ff" stroke="#63b8ff" points="191.88,-216.4 202.46,-216.98 194.55,-209.93 191.88,-216.4"/>
</a>
</g>
</g>
<!-- Node4 -->
<g id="Node000004" class="node">
<title>Node4</title>
<g id="a_Node000004"><a xlink:href="exif-utils_8c.html#a4ad94614630897766dd0a5c9bc2a59bf" target="_top" xlink:title="Retrieve an ExifLong value from memory.">
<polygon fill="white" stroke="#666666" points="421.5,-161 338.5,-161 338.5,-142 421.5,-142 421.5,-161"/>
<text text-anchor="middle" x="380" y="-149" font-family="Helvetica,sans-Serif" font-size="10.00">exif_get_long</text>
</a>
</g>
</g>
<!-- Node1&#45;&gt;Node4 -->
<g id="edge3_Node000001_Node000004" class="edge">
<title>Node1&#45;&gt;Node4</title>
<g id="a_edge3_Node000001_Node000004"><a xlink:title=" ">
<path fill="none" stroke="#63b8ff" d="M89.91,-142.44C110.37,-151.8 143.03,-165.17 173,-170.5 225.07,-179.76 239.42,-176.18 292,-170.5 304.71,-169.13 318.29,-166.66 330.84,-163.95"/>
<polygon fill="#63b8ff" stroke="#63b8ff" points="331.58,-167.37 340.56,-161.75 330.03,-160.54 331.58,-167.37"/>
</a>
</g>
</g>
<!-- Node5 -->
<g id="Node000005" class="node">
<title>Node5</title>
<g id="a_Node000005"><a xlink:href="exif-utils_8c.html#a56b96f076a13da6ed926e1ef29cb2dc3" target="_top" xlink:title="Retrieve an ExifSLong value from memory.">
<polygon fill="white" stroke="#666666" points="556,-123 468,-123 468,-104 556,-104 556,-123"/>
<text text-anchor="middle" x="512" y="-111" font-family="Helvetica,sans-Serif" font-size="10.00">exif_get_slong</text>
</a>
</g>
</g>
<!-- Node1&#45;&gt;Node5 -->
<g id="edge9_Node000001_Node000005" class="edge">
<title>Node1&#45;&gt;Node5</title>
<g id="a_edge9_Node000001_Node000005"><a xlink:title=" ">
<path fill="none" stroke="#63b8ff" d="M137.03,-129.59C224.52,-125.83 375.37,-119.34 456.16,-115.86"/>
<polygon fill="#63b8ff" stroke="#63b8ff" points="456.2,-119.36 466.04,-115.43 455.9,-112.37 456.2,-119.36"/>
</a>
</g>
</g>
<!-- Node6 -->
<g id="Node000006" class="node">
<title>Node6</title>
<g id="a_Node000006"><a xlink:href="exif-utils_8c.html#a1feb547c289aa57a4d2119338b03706c" target="_top" xlink:title="Retrieve an ExifRational value from memory.">
<polygon fill="white" stroke="#666666" points="282,-161 183,-161 183,-142 282,-142 282,-161"/>
<text text-anchor="middle" x="232.5" y="-149" font-family="Helvetica,sans-Serif" font-size="10.00">exif_get_rational</text>
</a>
</g>
</g>
<!-- Node1&#45;&gt;Node6 -->
<g id="edge5_Node000001_Node000006" class="edge">
<title>Node1&#45;&gt;Node6</title>
<g id="a_edge5_Node000001_Node000006"><a xlink:title=" ">
<path fill="none" stroke="#63b8ff" d="M137.26,-140.45C148.59,-141.78 160.27,-143.15 171.39,-144.45"/>
<polygon fill="#63b8ff" stroke="#63b8ff" points="170.89,-147.91 181.23,-145.6 171.7,-140.96 170.89,-147.91"/>
</a>
</g>
</g>
<!-- Node7 -->
<g id="Node000007" class="node">
<title>Node7</title>
<g id="a_Node000007"><a xlink:href="exif-utils_8c.html#a4b4acf537a8c6b9405e7b53be868e4d7" target="_top" xlink:title="Retrieve an ExifShort value from memory.">
<polygon fill="white" stroke="#666666" points="275.5,-85 189.5,-85 189.5,-66 275.5,-66 275.5,-85"/>
<text text-anchor="middle" x="232.5" y="-73" font-family="Helvetica,sans-Serif" font-size="10.00">exif_get_short</text>
</a>
</g>
</g>
<!-- Node1&#45;&gt;Node7 -->
<g id="edge7_Node000001_Node000007" class="edge">
<title>Node1&#45;&gt;Node7</title>
<g id="a_edge7_Node000001_Node000007"><a xlink:title=" ">
<path fill="none" stroke="#63b8ff" d="M97.72,-122.57C124,-113.32 163.42,-99.45 192.67,-89.16"/>
<polygon fill="#63b8ff" stroke="#63b8ff" points="193.63,-92.53 201.91,-85.91 191.31,-85.93 193.63,-92.53"/>
</a>
</g>
</g>
<!-- Node8 -->
<g id="Node000008" class="node">
<title>Node8</title>
<g id="a_Node000008"><a xlink:href="exif-utils_8c.html#a6baf094a71392f9cea23ad633ec13c8b" target="_top" xlink:title="Retrieve an ExifSShort value from memory.">
<polygon fill="white" stroke="#666666" points="426,-75 334,-75 334,-56 426,-56 426,-75"/>
<text text-anchor="middle" x="380" y="-63" font-family="Helvetica,sans-Serif" font-size="10.00">exif_get_sshort</text>
</a>
</g>
</g>
<!-- Node1&#45;&gt;Node8 -->
<g id="edge12_Node000001_Node000008" class="edge">
<title>Node1&#45;&gt;Node8</title>
<g id="a_edge12_Node000001_Node000008"><a xlink:title=" ">
<path fill="none" stroke="#63b8ff" d="M78.59,-122.71C95.31,-105.52 132.89,-70.5 173,-57.5 222.9,-41.32 283.18,-46.29 325.61,-53.49"/>
<polygon fill="#63b8ff" stroke="#63b8ff" points="324.85,-56.91 335.31,-55.25 326.09,-50.03 324.85,-56.91"/>
</a>
</g>
</g>
<!-- Node9 -->
<g id="Node000009" class="node">
<title>Node9</title>
<g id="a_Node000009"><a xlink:href="exif-utils_8c.html#adb97c3499488d5642a82df1cb16dc2cb" target="_top" xlink:title="Retrieve an ExifSRational value from memory.">
<polygon fill="white" stroke="#666666" points="432,-19 328,-19 328,0 432,0 432,-19"/>
<text text-anchor="middle" x="380" y="-7" font-family="Helvetica,sans-Serif" font-size="10.00">exif_get_srational</text>
</a>
</g>
</g>
<!-- Node1&#45;&gt;Node9 -->
<g id="edge10_Node000001_Node000009" class="edge">
<title>Node1&#45;&gt;Node9</title>
<g id="a_edge10_Node000001_Node000009"><a xlink:title=" ">
<path fill="none" stroke="#63b8ff" d="M77.41,-122.66C93.29,-103.66 131.15,-62.06 173,-42.5 218.08,-21.42 274.12,-13.47 316.36,-10.62"/>
<polygon fill="#63b8ff" stroke="#63b8ff" points="316.32,-14.12 326.1,-10.04 315.91,-7.14 316.32,-14.12"/>
</a>
</g>
</g>
<!-- Node4&#45;&gt;Node5 -->
<g id="edge4_Node000004_Node000005" class="edge">
<title>Node4&#45;&gt;Node5</title>
<g id="a_edge4_Node000004_Node000005"><a xlink:title=" ">
<path fill="none" stroke="#63b8ff" d="M415.16,-141.52C430.83,-136.93 449.62,-131.44 466.39,-126.54"/>
<polygon fill="#63b8ff" stroke="#63b8ff" points="467,-130.01 475.62,-123.84 465.04,-123.29 467,-130.01"/>
</a>
</g>
</g>
<!-- Node6&#45;&gt;Node4 -->
<g id="edge6_Node000006_Node000004" class="edge">
<title>Node6&#45;&gt;Node4</title>
<g id="a_edge6_Node000006_Node000004"><a xlink:title=" ">
<path fill="none" stroke="#63b8ff" d="M282.35,-151.5C296.69,-151.5 312.41,-151.5 326.93,-151.5"/>
<polygon fill="#63b8ff" stroke="#63b8ff" points="326.76,-155 336.76,-151.5 326.76,-148 326.76,-155"/>
</a>
</g>
</g>
<!-- Node7&#45;&gt;Node8 -->
<g id="edge8_Node000007_Node000008" class="edge">
<title>Node7&#45;&gt;Node8</title>
<g id="a_edge8_Node000007_Node000008"><a xlink:title=" ">
<path fill="none" stroke="#63b8ff" d="M275.98,-72.58C290.56,-71.58 307.11,-70.44 322.62,-69.38"/>
<polygon fill="#63b8ff" stroke="#63b8ff" points="322.43,-72.9 332.17,-68.72 321.95,-65.91 322.43,-72.9"/>
</a>
</g>
</g>
<!-- Node9&#45;&gt;Node5 -->
<g id="edge11_Node000009_Node000005" class="edge">
<title>Node9&#45;&gt;Node5</title>
<g id="a_edge11_Node000009_Node000005"><a xlink:title=" ">
<path fill="none" stroke="#63b8ff" d="M394.58,-19.3C404.94,-26.86 419.52,-37.65 432,-47.5 452.52,-63.7 475.39,-82.94 491.22,-96.45"/>
<polygon fill="#63b8ff" stroke="#63b8ff" points="488.63,-98.84 498.5,-102.69 493.19,-93.53 488.63,-98.84"/>
</a>
</g>
</g>
</g>
</svg>
