<?xml version="1.0" encoding="UTF-8" standalone="no"?>
<!DOCTYPE svg PUBLIC "-//W3C//DTD SVG 1.1//EN"
 "http://www.w3.org/Graphics/SVG/1.1/DTD/svg11.dtd">
<!-- Generated by graphviz version 2.44.1 (0)
 -->
<!-- Title: libexif/exif&#45;entry.h Pages: 1 -->
<svg width="2559pt" height="419pt"
 viewBox="0.00 0.00 2558.50 419.00" xmlns="http://www.w3.org/2000/svg" xmlns:xlink="http://www.w3.org/1999/xlink">
<g id="graph0" class="graph" transform="scale(1 1) rotate(0) translate(4 415)">
<title>libexif/exif&#45;entry.h</title>
<polygon fill="white" stroke="transparent" points="-4,4 -4,-415 2554.5,-415 2554.5,4 -4,4"/>
<!-- Node1 -->
<g id="node1" class="node">
<title>Node1</title>
<g id="a_node1"><a xlink:title="Handling EXIF entries.">
<polygon fill="#bfbfbf" stroke="black" points="865.5,-391.5 865.5,-410.5 969.5,-410.5 969.5,-391.5 865.5,-391.5"/>
<text text-anchor="middle" x="917.5" y="-398.5" font-family="Helvetica,sans-Serif" font-size="10.00">libexif/exif&#45;entry.h</text>
</a>
</g>
</g>
<!-- Node2 -->
<g id="node2" class="node">
<title>Node2</title>
<g id="a_node2"><a xlink:href="mnote-apple-entry_8c.html" target="_top" xlink:title=" ">
<polygon fill="white" stroke="black" points="491.5,-324.5 491.5,-354.5 603.5,-354.5 603.5,-324.5 491.5,-324.5"/>
<text text-anchor="start" x="499.5" y="-342.5" font-family="Helvetica,sans-Serif" font-size="10.00">libexif/apple/mnote</text>
<text text-anchor="middle" x="547.5" y="-331.5" font-family="Helvetica,sans-Serif" font-size="10.00">&#45;apple&#45;entry.c</text>
</a>
</g>
</g>
<!-- Node1&#45;&gt;Node2 -->
<g id="edge1" class="edge">
<title>Node1&#45;&gt;Node2</title>
<path fill="none" stroke="midnightblue" d="M855.13,-391.67C794.34,-383.31 699.35,-369.6 617.5,-355 612.98,-354.19 608.3,-353.32 603.61,-352.41"/>
<polygon fill="midnightblue" stroke="midnightblue" points="854.95,-395.18 865.33,-393.07 855.9,-388.24 854.95,-395.18"/>
</g>
<!-- Node3 -->
<g id="node3" class="node">
<title>Node3</title>
<g id="a_node3"><a xlink:href="exif-content_8h.html" target="_top" xlink:title="Handling EXIF IFDs.">
<polygon fill="white" stroke="black" points="859,-330 859,-349 976,-349 976,-330 859,-330"/>
<text text-anchor="middle" x="917.5" y="-337" font-family="Helvetica,sans-Serif" font-size="10.00">libexif/exif&#45;content.h</text>
</a>
</g>
</g>
<!-- Node1&#45;&gt;Node3 -->
<g id="edge2" class="edge">
<title>Node1&#45;&gt;Node3</title>
<path fill="none" stroke="midnightblue" d="M911.18,-381.32C910.3,-370.5 910.77,-357.4 912.6,-349.01"/>
<polygon fill="midnightblue" stroke="midnightblue" points="907.75,-382.05 912.6,-391.48 914.69,-381.09 907.75,-382.05"/>
</g>
<!-- Node20 -->
<g id="node20" class="node">
<title>Node20</title>
<g id="a_node20"><a xlink:href="test-null_8c.html" target="_top" xlink:title="Pass NULL values into libexif APIs and ensure it doesn&#39;t crash.">
<polygon fill="white" stroke="black" points="346,-140 346,-159 433,-159 433,-140 346,-140"/>
<text text-anchor="middle" x="389.5" y="-147" font-family="Helvetica,sans-Serif" font-size="10.00">test/test&#45;null.c</text>
</a>
</g>
</g>
<!-- Node1&#45;&gt;Node20 -->
<g id="edge57" class="edge">
<title>Node1&#45;&gt;Node20</title>
<path fill="none" stroke="midnightblue" d="M890.15,-387.07C795.86,-342.52 485.91,-196.06 407.6,-159.05"/>
<polygon fill="midnightblue" stroke="midnightblue" points="888.79,-390.3 899.33,-391.41 891.78,-383.97 888.79,-390.3"/>
</g>
<!-- Node37 -->
<g id="node37" class="node">
<title>Node37</title>
<g id="a_node37"><a xlink:href="exif-entry_8c.html" target="_top" xlink:title=" ">
<polygon fill="white" stroke="black" points="994.5,-330 994.5,-349 1098.5,-349 1098.5,-330 994.5,-330"/>
<text text-anchor="middle" x="1046.5" y="-337" font-family="Helvetica,sans-Serif" font-size="10.00">libexif/exif&#45;entry.c</text>
</a>
</g>
</g>
<!-- Node1&#45;&gt;Node37 -->
<g id="edge54" class="edge">
<title>Node1&#45;&gt;Node37</title>
<path fill="none" stroke="midnightblue" d="M945.31,-387.17C970.34,-375.63 1006.42,-358.99 1028.05,-349.01"/>
<polygon fill="midnightblue" stroke="midnightblue" points="943.6,-384.11 935.98,-391.48 946.53,-390.46 943.6,-384.11"/>
</g>
<!-- Node38 -->
<g id="node38" class="node">
<title>Node38</title>
<g id="a_node38"><a xlink:href="mnote-olympus-entry_8c.html" target="_top" xlink:title=" ">
<polygon fill="white" stroke="black" points="1117,-324.5 1117,-354.5 1244,-354.5 1244,-324.5 1117,-324.5"/>
<text text-anchor="start" x="1125" y="-342.5" font-family="Helvetica,sans-Serif" font-size="10.00">libexif/olympus/mnote</text>
<text text-anchor="middle" x="1180.5" y="-331.5" font-family="Helvetica,sans-Serif" font-size="10.00">&#45;olympus&#45;entry.c</text>
</a>
</g>
</g>
<!-- Node1&#45;&gt;Node38 -->
<g id="edge55" class="edge">
<title>Node1&#45;&gt;Node38</title>
<path fill="none" stroke="midnightblue" d="M965.1,-389.23C1008.08,-379.51 1071.59,-365.14 1118.52,-354.52"/>
<polygon fill="midnightblue" stroke="midnightblue" points="964.16,-385.85 955.18,-391.48 965.71,-392.68 964.16,-385.85"/>
</g>
<!-- Node39 -->
<g id="node39" class="node">
<title>Node39</title>
<g id="a_node39"><a xlink:href="mnote-pentax-entry_8c.html" target="_top" xlink:title=" ">
<polygon fill="white" stroke="black" points="1262,-324.5 1262,-354.5 1381,-354.5 1381,-324.5 1262,-324.5"/>
<text text-anchor="start" x="1270" y="-342.5" font-family="Helvetica,sans-Serif" font-size="10.00">libexif/pentax/mnote</text>
<text text-anchor="middle" x="1321.5" y="-331.5" font-family="Helvetica,sans-Serif" font-size="10.00">&#45;pentax&#45;entry.c</text>
</a>
</g>
</g>
<!-- Node1&#45;&gt;Node39 -->
<g id="edge56" class="edge">
<title>Node1&#45;&gt;Node39</title>
<path fill="none" stroke="midnightblue" d="M979.84,-393.11C1047.47,-385.29 1158.49,-371.47 1253.5,-355 1256.24,-354.53 1259.03,-354.02 1261.85,-353.49"/>
<polygon fill="midnightblue" stroke="midnightblue" points="979.32,-389.64 969.78,-394.26 980.12,-396.6 979.32,-389.64"/>
</g>
<!-- Node3&#45;&gt;Node1 -->
<g id="edge53" class="edge">
<title>Node3&#45;&gt;Node1</title>
<path fill="none" stroke="midnightblue" d="M923.81,-359.16C924.7,-369.98 924.23,-383.08 922.4,-391.48"/>
<polygon fill="midnightblue" stroke="midnightblue" points="927.25,-358.43 922.4,-349.01 920.31,-359.4 927.25,-358.43"/>
</g>
<!-- Node4 -->
<g id="node4" class="node">
<title>Node4</title>
<g id="a_node4"><a xlink:href="exif-content_8c.html" target="_top" xlink:title=" ">
<polygon fill="white" stroke="black" points="859.5,-268.5 859.5,-287.5 975.5,-287.5 975.5,-268.5 859.5,-268.5"/>
<text text-anchor="middle" x="917.5" y="-275.5" font-family="Helvetica,sans-Serif" font-size="10.00">libexif/exif&#45;content.c</text>
</a>
</g>
</g>
<!-- Node3&#45;&gt;Node4 -->
<g id="edge3" class="edge">
<title>Node3&#45;&gt;Node4</title>
<path fill="none" stroke="midnightblue" d="M917.5,-319.82C917.5,-309 917.5,-295.9 917.5,-287.51"/>
<polygon fill="midnightblue" stroke="midnightblue" points="914,-319.98 917.5,-329.98 921,-319.98 914,-319.98"/>
</g>
<!-- Node5 -->
<g id="node5" class="node">
<title>Node5</title>
<g id="a_node5"><a xlink:href="exif-data_8h.html" target="_top" xlink:title="Defines the ExifData type and the associated functions.">
<polygon fill="white" stroke="black" points="1200.5,-268.5 1200.5,-287.5 1302.5,-287.5 1302.5,-268.5 1200.5,-268.5"/>
<text text-anchor="middle" x="1251.5" y="-275.5" font-family="Helvetica,sans-Serif" font-size="10.00">libexif/exif&#45;data.h</text>
</a>
</g>
</g>
<!-- Node3&#45;&gt;Node5 -->
<g id="edge4" class="edge">
<title>Node3&#45;&gt;Node5</title>
<path fill="none" stroke="midnightblue" d="M957.37,-327.83C963.74,-326.5 970.28,-325.19 976.5,-324 1054.02,-309.19 1144.73,-294.38 1200.25,-285.99"/>
<polygon fill="midnightblue" stroke="midnightblue" points="956.6,-324.42 947.55,-329.93 958.06,-331.27 956.6,-324.42"/>
</g>
<!-- Node5&#45;&gt;Node3 -->
<g id="edge18" class="edge">
<title>Node5&#45;&gt;Node3</title>
<path fill="none" stroke="midnightblue" d="M1193.66,-289.22C1141.48,-297.88 1062.86,-310.94 994.5,-324 985.01,-325.81 974.82,-327.91 965,-329.93"/>
<polygon fill="midnightblue" stroke="midnightblue" points="1194.44,-292.64 1203.73,-287.55 1193.29,-285.73 1194.44,-292.64"/>
</g>
<!-- Node6 -->
<g id="node6" class="node">
<title>Node6</title>
<g id="a_node6"><a xlink:href="exif-mnote-data-apple_8c.html" target="_top" xlink:title=" ">
<polygon fill="white" stroke="black" points="2434.5,-134.5 2434.5,-164.5 2550.5,-164.5 2550.5,-134.5 2434.5,-134.5"/>
<text text-anchor="start" x="2442.5" y="-152.5" font-family="Helvetica,sans-Serif" font-size="10.00">libexif/apple/exif</text>
<text text-anchor="middle" x="2492.5" y="-141.5" font-family="Helvetica,sans-Serif" font-size="10.00">&#45;mnote&#45;data&#45;apple.c</text>
</a>
</g>
</g>
<!-- Node5&#45;&gt;Node6 -->
<g id="edge5" class="edge">
<title>Node5&#45;&gt;Node6</title>
<path fill="none" stroke="midnightblue" d="M1312.99,-277.16C1560.84,-277.49 2475.27,-275.76 2517.5,-232 2535.38,-213.47 2517.41,-182.48 2504.06,-164.53"/>
<polygon fill="midnightblue" stroke="midnightblue" points="1312.73,-273.66 1302.73,-277.14 1312.72,-280.66 1312.73,-273.66"/>
</g>
<!-- Node7 -->
<g id="node7" class="node">
<title>Node7</title>
<g id="a_node7"><a xlink:href="exif-mnote-data-apple_8h.html" target="_top" xlink:title=" ">
<polygon fill="white" stroke="black" points="2391,-201.5 2391,-231.5 2508,-231.5 2508,-201.5 2391,-201.5"/>
<text text-anchor="start" x="2399" y="-219.5" font-family="Helvetica,sans-Serif" font-size="10.00">libexif/apple/exif</text>
<text text-anchor="middle" x="2449.5" y="-208.5" font-family="Helvetica,sans-Serif" font-size="10.00">&#45;mnote&#45;data&#45;apple.h</text>
</a>
</g>
</g>
<!-- Node5&#45;&gt;Node7 -->
<g id="edge6" class="edge">
<title>Node5&#45;&gt;Node7</title>
<path fill="none" stroke="midnightblue" d="M1313.02,-275.93C1517.32,-272.17 2172.07,-258.3 2381.5,-232 2384.49,-231.62 2387.55,-231.18 2390.63,-230.69"/>
<polygon fill="midnightblue" stroke="midnightblue" points="1312.71,-272.44 1302.78,-276.12 1312.84,-279.44 1312.71,-272.44"/>
</g>
<!-- Node8 -->
<g id="node8" class="node">
<title>Node8</title>
<g id="a_node8"><a xlink:href="exif-data_8c.html" target="_top" xlink:title=" ">
<polygon fill="white" stroke="black" points="1157,-6 1157,-25 1258,-25 1258,-6 1157,-6"/>
<text text-anchor="middle" x="1207.5" y="-13" font-family="Helvetica,sans-Serif" font-size="10.00">libexif/exif&#45;data.c</text>
</a>
</g>
</g>
<!-- Node5&#45;&gt;Node8 -->
<g id="edge19" class="edge">
<title>Node5&#45;&gt;Node8</title>
<path fill="none" stroke="midnightblue" d="M1239.66,-259.72C1234.73,-251.65 1229.48,-241.7 1226.5,-232 1202.83,-154.8 1205.52,-55.27 1206.98,-25.37"/>
<polygon fill="midnightblue" stroke="midnightblue" points="1236.77,-261.7 1245.13,-268.2 1242.65,-257.9 1236.77,-261.7"/>
</g>
<!-- Node9 -->
<g id="node9" class="node">
<title>Node9</title>
<g id="a_node9"><a xlink:href="exif-mnote-data-canon_8c.html" target="_top" xlink:title=" ">
<polygon fill="white" stroke="black" points="0,-0.5 0,-30.5 119,-30.5 119,-0.5 0,-0.5"/>
<text text-anchor="start" x="8" y="-18.5" font-family="Helvetica,sans-Serif" font-size="10.00">libexif/canon/exif</text>
<text text-anchor="middle" x="59.5" y="-7.5" font-family="Helvetica,sans-Serif" font-size="10.00">&#45;mnote&#45;data&#45;canon.c</text>
</a>
</g>
</g>
<!-- Node5&#45;&gt;Node9 -->
<g id="edge9" class="edge">
<title>Node5&#45;&gt;Node9</title>
<path fill="none" stroke="midnightblue" d="M1190.3,-274.81C952.97,-266.29 106.33,-235.64 100.5,-232 44.2,-196.83 48.37,-162.92 34.5,-98 31.62,-84.53 31.36,-80.42 34.5,-67 37.53,-54.05 44.4,-40.6 50.17,-30.85"/>
<polygon fill="midnightblue" stroke="midnightblue" points="1190.35,-278.31 1200.47,-275.17 1190.6,-271.32 1190.35,-278.31"/>
</g>
<!-- Node10 -->
<g id="node10" class="node">
<title>Node10</title>
<g id="a_node10"><a xlink:href="exif-mnote-data-canon_8h.html" target="_top" xlink:title=" ">
<polygon fill="white" stroke="black" points="44,-67.5 44,-97.5 163,-97.5 163,-67.5 44,-67.5"/>
<text text-anchor="start" x="52" y="-85.5" font-family="Helvetica,sans-Serif" font-size="10.00">libexif/canon/exif</text>
<text text-anchor="middle" x="103.5" y="-74.5" font-family="Helvetica,sans-Serif" font-size="10.00">&#45;mnote&#45;data&#45;canon.h</text>
</a>
</g>
</g>
<!-- Node5&#45;&gt;Node10 -->
<g id="edge10" class="edge">
<title>Node5&#45;&gt;Node10</title>
<path fill="none" stroke="midnightblue" d="M1190.1,-274.71C969.45,-266.44 228.46,-238.28 204.5,-232 140.86,-215.32 106.92,-221.07 72.5,-165 59.12,-143.2 76.91,-114.66 90.56,-97.79"/>
<polygon fill="midnightblue" stroke="midnightblue" points="1190.08,-278.21 1200.21,-275.09 1190.34,-271.22 1190.08,-278.21"/>
</g>
<!-- Node11 -->
<g id="node11" class="node">
<title>Node11</title>
<g id="a_node11"><a xlink:href="mnote-canon-tag_8h.html" target="_top" xlink:title=" ">
<polygon fill="white" stroke="black" points="213.5,-201.5 213.5,-231.5 327.5,-231.5 327.5,-201.5 213.5,-201.5"/>
<text text-anchor="start" x="221.5" y="-219.5" font-family="Helvetica,sans-Serif" font-size="10.00">libexif/canon/mnote</text>
<text text-anchor="middle" x="270.5" y="-208.5" font-family="Helvetica,sans-Serif" font-size="10.00">&#45;canon&#45;tag.h</text>
</a>
</g>
</g>
<!-- Node5&#45;&gt;Node11 -->
<g id="edge13" class="edge">
<title>Node5&#45;&gt;Node11</title>
<path fill="none" stroke="midnightblue" d="M1190.28,-273.29C1012.87,-262.53 500.08,-231.42 327.76,-220.97"/>
<polygon fill="midnightblue" stroke="midnightblue" points="1190.29,-276.79 1200.48,-273.91 1190.71,-269.81 1190.29,-276.79"/>
</g>
<!-- Node15 -->
<g id="node15" class="node">
<title>Node15</title>
<g id="a_node15"><a xlink:href="exif-loader_8h.html" target="_top" xlink:title="Defines the ExifLoader type.">
<polygon fill="white" stroke="black" points="774,-207 774,-226 885,-226 885,-207 774,-207"/>
<text text-anchor="middle" x="829.5" y="-214" font-family="Helvetica,sans-Serif" font-size="10.00">libexif/exif&#45;loader.h</text>
</a>
</g>
</g>
<!-- Node5&#45;&gt;Node15 -->
<g id="edge20" class="edge">
<title>Node5&#45;&gt;Node15</title>
<path fill="none" stroke="midnightblue" d="M1190.26,-268.36C1108.3,-256.81 964.15,-236.48 885.15,-225.35"/>
<polygon fill="midnightblue" stroke="midnightblue" points="1189.79,-271.83 1200.18,-269.76 1190.76,-264.9 1189.79,-271.83"/>
</g>
<!-- Node17 -->
<g id="node17" class="node">
<title>Node17</title>
<g id="a_node17"><a xlink:href="test-fuzzer-persistent_8c.html" target="_top" xlink:title=" ">
<polygon fill="white" stroke="black" points="451,-140 451,-159 602,-159 602,-140 451,-140"/>
<text text-anchor="middle" x="526.5" y="-147" font-family="Helvetica,sans-Serif" font-size="10.00">test/test&#45;fuzzer&#45;persistent.c</text>
</a>
</g>
</g>
<!-- Node5&#45;&gt;Node17 -->
<g id="edge44" class="edge">
<title>Node5&#45;&gt;Node17</title>
<path fill="none" stroke="midnightblue" d="M1189.96,-273.82C1059.6,-266.8 764.01,-249.2 721.5,-232 701.3,-223.82 702.65,-211.41 683.5,-201 646.27,-180.77 599.61,-167.05 566.87,-159.08"/>
<polygon fill="midnightblue" stroke="midnightblue" points="1190.01,-277.33 1200.18,-274.37 1190.39,-270.34 1190.01,-277.33"/>
</g>
<!-- Node18 -->
<g id="node18" class="node">
<title>Node18</title>
<g id="a_node18"><a xlink:href="test-fuzzer_8c.html" target="_top" xlink:title=" ">
<polygon fill="white" stroke="black" points="620,-140 620,-159 719,-159 719,-140 620,-140"/>
<text text-anchor="middle" x="669.5" y="-147" font-family="Helvetica,sans-Serif" font-size="10.00">test/test&#45;fuzzer.c</text>
</a>
</g>
</g>
<!-- Node5&#45;&gt;Node18 -->
<g id="edge45" class="edge">
<title>Node5&#45;&gt;Node18</title>
<path fill="none" stroke="midnightblue" d="M1189.92,-275.94C1076.58,-273.23 839.66,-263.83 764.5,-232 744.49,-223.53 697.76,-178.55 678.28,-159.28"/>
<polygon fill="midnightblue" stroke="midnightblue" points="1190.09,-279.44 1200.16,-276.17 1190.25,-272.45 1190.09,-279.44"/>
</g>
<!-- Node19 -->
<g id="node19" class="node">
<title>Node19</title>
<g id="a_node19"><a xlink:href="test-mem_8c.html" target="_top" xlink:title=" ">
<polygon fill="white" stroke="black" points="904,-140 904,-159 999,-159 999,-140 904,-140"/>
<text text-anchor="middle" x="951.5" y="-147" font-family="Helvetica,sans-Serif" font-size="10.00">test/test&#45;mem.c</text>
</a>
</g>
</g>
<!-- Node5&#45;&gt;Node19 -->
<g id="edge47" class="edge">
<title>Node5&#45;&gt;Node19</title>
<path fill="none" stroke="midnightblue" d="M1190.19,-271.5C1148.02,-265.86 1091.69,-254.53 1046.5,-232 1008.77,-213.19 973.67,-176.08 958.88,-159.22"/>
<polygon fill="midnightblue" stroke="midnightblue" points="1189.96,-275 1200.32,-272.79 1190.84,-268.06 1189.96,-275"/>
</g>
<!-- Node5&#45;&gt;Node20 -->
<g id="edge49" class="edge">
<title>Node5&#45;&gt;Node20</title>
<path fill="none" stroke="midnightblue" d="M1190.03,-274.2C1052.73,-267.66 729.58,-250.49 683.5,-232 663.27,-223.88 665.32,-210.08 645.5,-201 561.79,-162.66 531.28,-185.39 441.5,-165 433.91,-163.28 425.78,-161.15 418.25,-159.06"/>
<polygon fill="midnightblue" stroke="midnightblue" points="1190.22,-277.72 1200.37,-274.69 1190.55,-270.72 1190.22,-277.72"/>
</g>
<!-- Node21 -->
<g id="node21" class="node">
<title>Node21</title>
<g id="a_node21"><a xlink:href="exif-mnote-data-fuji_8h.html" target="_top" xlink:title=" ">
<polygon fill="white" stroke="black" points="1235.5,-201.5 1235.5,-231.5 1357.5,-231.5 1357.5,-201.5 1235.5,-201.5"/>
<text text-anchor="start" x="1243.5" y="-219.5" font-family="Helvetica,sans-Serif" font-size="10.00">libexif/fuji/exif&#45;mnote</text>
<text text-anchor="middle" x="1296.5" y="-208.5" font-family="Helvetica,sans-Serif" font-size="10.00">&#45;data&#45;fuji.h</text>
</a>
</g>
</g>
<!-- Node5&#45;&gt;Node21 -->
<g id="edge27" class="edge">
<title>Node5&#45;&gt;Node21</title>
<path fill="none" stroke="midnightblue" d="M1264.17,-260.25C1271.02,-251.19 1279.39,-240.12 1285.89,-231.52"/>
<polygon fill="midnightblue" stroke="midnightblue" points="1261.19,-258.39 1257.95,-268.48 1266.77,-262.61 1261.19,-258.39"/>
</g>
<!-- Node25 -->
<g id="node25" class="node">
<title>Node25</title>
<g id="a_node25"><a xlink:href="mnote-fuji-tag_8h.html" target="_top" xlink:title=" ">
<polygon fill="white" stroke="black" points="1376,-201.5 1376,-231.5 1477,-231.5 1477,-201.5 1376,-201.5"/>
<text text-anchor="start" x="1384" y="-219.5" font-family="Helvetica,sans-Serif" font-size="10.00">libexif/fuji/mnote</text>
<text text-anchor="middle" x="1426.5" y="-208.5" font-family="Helvetica,sans-Serif" font-size="10.00">&#45;fuji&#45;tag.h</text>
</a>
</g>
</g>
<!-- Node5&#45;&gt;Node25 -->
<g id="edge33" class="edge">
<title>Node5&#45;&gt;Node25</title>
<path fill="none" stroke="midnightblue" d="M1286.12,-265.23C1314.61,-255.54 1355.08,-241.78 1385.26,-231.52"/>
<polygon fill="midnightblue" stroke="midnightblue" points="1284.91,-261.94 1276.57,-268.48 1287.17,-268.57 1284.91,-261.94"/>
</g>
<!-- Node27 -->
<g id="node27" class="node">
<title>Node27</title>
<g id="a_node27"><a xlink:href="exif-mnote-data-olympus_8c.html" target="_top" xlink:title=" ">
<polygon fill="white" stroke="black" points="1691,-134.5 1691,-164.5 1822,-164.5 1822,-134.5 1691,-134.5"/>
<text text-anchor="start" x="1699" y="-152.5" font-family="Helvetica,sans-Serif" font-size="10.00">libexif/olympus/exif</text>
<text text-anchor="middle" x="1756.5" y="-141.5" font-family="Helvetica,sans-Serif" font-size="10.00">&#45;mnote&#45;data&#45;olympus.c</text>
</a>
</g>
</g>
<!-- Node5&#45;&gt;Node27 -->
<g id="edge36" class="edge">
<title>Node5&#45;&gt;Node27</title>
<path fill="none" stroke="midnightblue" d="M1312.79,-274.02C1406.26,-268.77 1579.6,-256.08 1636.5,-232 1656.57,-223.51 1656.74,-213.63 1674.5,-201 1693.03,-187.82 1715.02,-174.39 1731.55,-164.7"/>
<polygon fill="midnightblue" stroke="midnightblue" points="1312.41,-270.53 1302.62,-274.58 1312.8,-277.52 1312.41,-270.53"/>
</g>
<!-- Node28 -->
<g id="node28" class="node">
<title>Node28</title>
<g id="a_node28"><a xlink:href="exif-mnote-data-olympus_8h.html" target="_top" xlink:title=" ">
<polygon fill="white" stroke="black" points="1495.5,-201.5 1495.5,-231.5 1627.5,-231.5 1627.5,-201.5 1495.5,-201.5"/>
<text text-anchor="start" x="1503.5" y="-219.5" font-family="Helvetica,sans-Serif" font-size="10.00">libexif/olympus/exif</text>
<text text-anchor="middle" x="1561.5" y="-208.5" font-family="Helvetica,sans-Serif" font-size="10.00">&#45;mnote&#45;data&#45;olympus.h</text>
</a>
</g>
</g>
<!-- Node5&#45;&gt;Node28 -->
<g id="edge37" class="edge">
<title>Node5&#45;&gt;Node28</title>
<path fill="none" stroke="midnightblue" d="M1306.21,-266.55C1353.85,-257.45 1424.74,-243.88 1486.5,-232 1489.37,-231.45 1492.29,-230.89 1495.25,-230.32"/>
<polygon fill="midnightblue" stroke="midnightblue" points="1305.28,-263.17 1296.12,-268.48 1306.6,-270.04 1305.28,-263.17"/>
</g>
<!-- Node29 -->
<g id="node29" class="node">
<title>Node29</title>
<g id="a_node29"><a xlink:href="exif-mnote-data-pentax_8h.html" target="_top" xlink:title=" ">
<polygon fill="white" stroke="black" points="1055.5,-201.5 1055.5,-231.5 1179.5,-231.5 1179.5,-201.5 1055.5,-201.5"/>
<text text-anchor="start" x="1063.5" y="-219.5" font-family="Helvetica,sans-Serif" font-size="10.00">libexif/pentax/exif</text>
<text text-anchor="middle" x="1117.5" y="-208.5" font-family="Helvetica,sans-Serif" font-size="10.00">&#45;mnote&#45;data&#45;pentax.h</text>
</a>
</g>
</g>
<!-- Node5&#45;&gt;Node29 -->
<g id="edge40" class="edge">
<title>Node5&#45;&gt;Node29</title>
<path fill="none" stroke="midnightblue" d="M1222.97,-264.33C1201.29,-254.7 1171.48,-241.47 1149.08,-231.52"/>
<polygon fill="midnightblue" stroke="midnightblue" points="1221.74,-267.62 1232.3,-268.48 1224.58,-261.22 1221.74,-267.62"/>
</g>
<!-- Node31 -->
<g id="node31" class="node">
<title>Node31</title>
<g id="a_node31"><a xlink:href="test-extract_8c.html" target="_top" xlink:title="Extract EXIF data from a file and write it to another file.">
<polygon fill="white" stroke="black" points="1683.5,-207 1683.5,-226 1787.5,-226 1787.5,-207 1683.5,-207"/>
<text text-anchor="middle" x="1735.5" y="-214" font-family="Helvetica,sans-Serif" font-size="10.00">test/test&#45;extract.c</text>
</a>
</g>
</g>
<!-- Node5&#45;&gt;Node31 -->
<g id="edge43" class="edge">
<title>Node5&#45;&gt;Node31</title>
<path fill="none" stroke="midnightblue" d="M1312.68,-272.52C1394.37,-266.05 1543.43,-252.57 1669.5,-232 1679.46,-230.38 1690.17,-228.21 1700.01,-226.04"/>
<polygon fill="midnightblue" stroke="midnightblue" points="1312.27,-269.04 1302.57,-273.31 1312.82,-276.02 1312.27,-269.04"/>
</g>
<!-- Node32 -->
<g id="node32" class="node">
<title>Node32</title>
<g id="a_node32"><a xlink:href="test-gps_8c.html" target="_top" xlink:title=" ">
<polygon fill="white" stroke="black" points="1805.5,-207 1805.5,-226 1891.5,-226 1891.5,-207 1805.5,-207"/>
<text text-anchor="middle" x="1848.5" y="-214" font-family="Helvetica,sans-Serif" font-size="10.00">test/test&#45;gps.c</text>
</a>
</g>
</g>
<!-- Node5&#45;&gt;Node32 -->
<g id="edge46" class="edge">
<title>Node5&#45;&gt;Node32</title>
<path fill="none" stroke="midnightblue" d="M1312.69,-275.72C1414.04,-272.76 1622.8,-263.1 1796.5,-232 1804.8,-230.51 1813.69,-228.28 1821.74,-226.01"/>
<polygon fill="midnightblue" stroke="midnightblue" points="1312.53,-272.22 1302.63,-276 1312.73,-279.22 1312.53,-272.22"/>
</g>
<!-- Node33 -->
<g id="node33" class="node">
<title>Node33</title>
<g id="a_node33"><a xlink:href="test-mnote_8c.html" target="_top" xlink:title=" ">
<polygon fill="white" stroke="black" points="1910,-207 1910,-226 2011,-226 2011,-207 1910,-207"/>
<text text-anchor="middle" x="1960.5" y="-214" font-family="Helvetica,sans-Serif" font-size="10.00">test/test&#45;mnote.c</text>
</a>
</g>
</g>
<!-- Node5&#45;&gt;Node33 -->
<g id="edge48" class="edge">
<title>Node5&#45;&gt;Node33</title>
<path fill="none" stroke="midnightblue" d="M1312.8,-276.17C1428.4,-273.85 1686.23,-265.08 1900.5,-232 1910.03,-230.53 1920.28,-228.3 1929.56,-226.03"/>
<polygon fill="midnightblue" stroke="midnightblue" points="1312.66,-272.67 1302.73,-276.36 1312.79,-279.67 1312.66,-272.67"/>
</g>
<!-- Node34 -->
<g id="node34" class="node">
<title>Node34</title>
<g id="a_node34"><a xlink:href="test-parse-from-data_8c.html" target="_top" xlink:title="Completely parse all files given on the command line.">
<polygon fill="white" stroke="black" points="2029,-201.5 2029,-231.5 2144,-231.5 2144,-201.5 2029,-201.5"/>
<text text-anchor="start" x="2037" y="-219.5" font-family="Helvetica,sans-Serif" font-size="10.00">test/test&#45;parse&#45;from</text>
<text text-anchor="middle" x="2086.5" y="-208.5" font-family="Helvetica,sans-Serif" font-size="10.00">&#45;data.c</text>
</a>
</g>
</g>
<!-- Node5&#45;&gt;Node34 -->
<g id="edge50" class="edge">
<title>Node5&#45;&gt;Node34</title>
<path fill="none" stroke="midnightblue" d="M1312.82,-276.69C1443.53,-275.31 1758.99,-268.15 2020.5,-232 2023.17,-231.63 2025.9,-231.21 2028.64,-230.75"/>
<polygon fill="midnightblue" stroke="midnightblue" points="1312.58,-273.19 1302.61,-276.79 1312.65,-280.19 1312.58,-273.19"/>
</g>
<!-- Node35 -->
<g id="node35" class="node">
<title>Node35</title>
<g id="a_node35"><a xlink:href="test-parse_8c.html" target="_top" xlink:title="Completely parse all files given on the command line.">
<polygon fill="white" stroke="black" points="2162.5,-207 2162.5,-226 2258.5,-226 2258.5,-207 2162.5,-207"/>
<text text-anchor="middle" x="2210.5" y="-214" font-family="Helvetica,sans-Serif" font-size="10.00">test/test&#45;parse.c</text>
</a>
</g>
</g>
<!-- Node5&#45;&gt;Node35 -->
<g id="edge51" class="edge">
<title>Node5&#45;&gt;Node35</title>
<path fill="none" stroke="midnightblue" d="M1312.78,-275.53C1488.3,-271.08 1990.75,-256.51 2153.5,-232 2162.79,-230.6 2172.76,-228.33 2181.73,-226.01"/>
<polygon fill="midnightblue" stroke="midnightblue" points="1312.59,-272.04 1302.68,-275.79 1312.77,-279.04 1312.59,-272.04"/>
</g>
<!-- Node36 -->
<g id="node36" class="node">
<title>Node36</title>
<g id="a_node36"><a xlink:href="test-value_8c.html" target="_top" xlink:title=" ">
<polygon fill="white" stroke="black" points="2276.5,-207 2276.5,-226 2372.5,-226 2372.5,-207 2276.5,-207"/>
<text text-anchor="middle" x="2324.5" y="-214" font-family="Helvetica,sans-Serif" font-size="10.00">test/test&#45;value.c</text>
</a>
</g>
</g>
<!-- Node5&#45;&gt;Node36 -->
<g id="edge52" class="edge">
<title>Node5&#45;&gt;Node36</title>
<path fill="none" stroke="midnightblue" d="M1312.89,-275.93C1503.23,-272.35 2081.73,-259.45 2267.5,-232 2276.79,-230.63 2286.77,-228.37 2295.74,-226.04"/>
<polygon fill="midnightblue" stroke="midnightblue" points="1312.72,-272.43 1302.79,-276.12 1312.85,-279.43 1312.72,-272.43"/>
</g>
<!-- Node7&#45;&gt;Node6 -->
<g id="edge7" class="edge">
<title>Node7&#45;&gt;Node6</title>
<path fill="none" stroke="midnightblue" d="M2464.47,-192.87C2470.7,-183.46 2477.73,-172.83 2483.19,-164.58"/>
<polygon fill="midnightblue" stroke="midnightblue" points="2461.43,-191.12 2458.83,-201.4 2467.27,-194.99 2461.43,-191.12"/>
</g>
<!-- Node7&#45;&gt;Node8 -->
<g id="edge8" class="edge">
<title>Node7&#45;&gt;Node8</title>
<path fill="none" stroke="midnightblue" d="M2380.88,-200.93C2025.66,-133.37 1934.65,-120.4 1581.5,-67 1466.02,-49.54 1330.04,-31.91 1258.08,-22.81"/>
<polygon fill="midnightblue" stroke="midnightblue" points="2380.45,-204.41 2390.93,-202.84 2381.76,-197.53 2380.45,-204.41"/>
</g>
<!-- Node10&#45;&gt;Node8 -->
<g id="edge12" class="edge">
<title>Node10&#45;&gt;Node8</title>
<path fill="none" stroke="midnightblue" d="M173.41,-67.04C556.35,-18.6 1007.66,-15.68 1156.9,-16.14"/>
<polygon fill="midnightblue" stroke="midnightblue" points="172.72,-63.6 163.24,-68.34 173.6,-70.55 172.72,-63.6"/>
</g>
<!-- Node10&#45;&gt;Node9 -->
<g id="edge11" class="edge">
<title>Node10&#45;&gt;Node9</title>
<path fill="none" stroke="midnightblue" d="M88.18,-58.87C81.81,-49.46 74.62,-38.83 69.03,-30.58"/>
<polygon fill="midnightblue" stroke="midnightblue" points="85.45,-61.08 93.95,-67.4 91.25,-57.15 85.45,-61.08"/>
</g>
<!-- Node12 -->
<g id="node12" class="node">
<title>Node12</title>
<g id="a_node12"><a xlink:href="mnote-canon-entry_8h.html" target="_top" xlink:title=" ">
<polygon fill="white" stroke="black" points="81.5,-134.5 81.5,-164.5 195.5,-164.5 195.5,-134.5 81.5,-134.5"/>
<text text-anchor="start" x="89.5" y="-152.5" font-family="Helvetica,sans-Serif" font-size="10.00">libexif/canon/mnote</text>
<text text-anchor="middle" x="138.5" y="-141.5" font-family="Helvetica,sans-Serif" font-size="10.00">&#45;canon&#45;entry.h</text>
</a>
</g>
</g>
<!-- Node11&#45;&gt;Node12 -->
<g id="edge14" class="edge">
<title>Node11&#45;&gt;Node12</title>
<path fill="none" stroke="midnightblue" d="M232.63,-196.85C211.76,-186.58 186.27,-174.03 167.09,-164.58"/>
<polygon fill="midnightblue" stroke="midnightblue" points="231.34,-200.12 241.86,-201.4 234.43,-193.84 231.34,-200.12"/>
</g>
<!-- Node14 -->
<g id="node14" class="node">
<title>Node14</title>
<g id="a_node14"><a xlink:href="mnote-canon-tag_8c.html" target="_top" xlink:title=" ">
<polygon fill="white" stroke="black" points="213.5,-134.5 213.5,-164.5 327.5,-164.5 327.5,-134.5 213.5,-134.5"/>
<text text-anchor="start" x="221.5" y="-152.5" font-family="Helvetica,sans-Serif" font-size="10.00">libexif/canon/mnote</text>
<text text-anchor="middle" x="270.5" y="-141.5" font-family="Helvetica,sans-Serif" font-size="10.00">&#45;canon&#45;tag.c</text>
</a>
</g>
</g>
<!-- Node11&#45;&gt;Node14 -->
<g id="edge17" class="edge">
<title>Node11&#45;&gt;Node14</title>
<path fill="none" stroke="midnightblue" d="M270.5,-191.11C270.5,-182.15 270.5,-172.32 270.5,-164.58"/>
<polygon fill="midnightblue" stroke="midnightblue" points="267,-191.4 270.5,-201.4 274,-191.4 267,-191.4"/>
</g>
<!-- Node12&#45;&gt;Node10 -->
<g id="edge15" class="edge">
<title>Node12&#45;&gt;Node10</title>
<path fill="none" stroke="midnightblue" d="M126.16,-125.58C121.13,-116.24 115.48,-105.75 111.08,-97.58"/>
<polygon fill="midnightblue" stroke="midnightblue" points="123.08,-127.25 130.91,-134.4 129.25,-123.93 123.08,-127.25"/>
</g>
<!-- Node13 -->
<g id="node13" class="node">
<title>Node13</title>
<g id="a_node13"><a xlink:href="mnote-canon-entry_8c.html" target="_top" xlink:title=" ">
<polygon fill="white" stroke="black" points="181.5,-67.5 181.5,-97.5 295.5,-97.5 295.5,-67.5 181.5,-67.5"/>
<text text-anchor="start" x="189.5" y="-85.5" font-family="Helvetica,sans-Serif" font-size="10.00">libexif/canon/mnote</text>
<text text-anchor="middle" x="238.5" y="-74.5" font-family="Helvetica,sans-Serif" font-size="10.00">&#45;canon&#45;entry.c</text>
</a>
</g>
</g>
<!-- Node12&#45;&gt;Node13 -->
<g id="edge16" class="edge">
<title>Node12&#45;&gt;Node13</title>
<path fill="none" stroke="midnightblue" d="M168.91,-128.73C184.38,-118.68 202.83,-106.68 216.84,-97.58"/>
<polygon fill="midnightblue" stroke="midnightblue" points="166.68,-126.01 160.2,-134.4 170.49,-131.88 166.68,-126.01"/>
</g>
<!-- Node15&#45;&gt;Node8 -->
<g id="edge21" class="edge">
<title>Node15&#45;&gt;Node8</title>
<path fill="none" stroke="midnightblue" d="M839.78,-197.61C851.09,-179.35 870.84,-151.31 894.5,-134 978.94,-72.23 1099.64,-39.19 1163.68,-25.05"/>
<polygon fill="midnightblue" stroke="midnightblue" points="836.53,-196.23 834.4,-206.61 842.53,-199.83 836.53,-196.23"/>
</g>
<!-- Node16 -->
<g id="node16" class="node">
<title>Node16</title>
<g id="a_node16"><a xlink:href="exif-loader_8c.html" target="_top" xlink:title=" ">
<polygon fill="white" stroke="black" points="737.5,-140 737.5,-159 847.5,-159 847.5,-140 737.5,-140"/>
<text text-anchor="middle" x="792.5" y="-147" font-family="Helvetica,sans-Serif" font-size="10.00">libexif/exif&#45;loader.c</text>
</a>
</g>
</g>
<!-- Node15&#45;&gt;Node16 -->
<g id="edge22" class="edge">
<title>Node15&#45;&gt;Node16</title>
<path fill="none" stroke="midnightblue" d="M819.56,-198.03C812.39,-185.45 803.03,-169.01 797.41,-159.13"/>
<polygon fill="midnightblue" stroke="midnightblue" points="816.52,-199.77 824.51,-206.73 822.6,-196.31 816.52,-199.77"/>
</g>
<!-- Node15&#45;&gt;Node17 -->
<g id="edge23" class="edge">
<title>Node15&#45;&gt;Node17</title>
<path fill="none" stroke="midnightblue" d="M779.64,-204.8C720.01,-192.01 621.4,-170.86 566.51,-159.08"/>
<polygon fill="midnightblue" stroke="midnightblue" points="779.06,-208.26 789.58,-206.94 780.53,-201.42 779.06,-208.26"/>
</g>
<!-- Node15&#45;&gt;Node18 -->
<g id="edge24" class="edge">
<title>Node15&#45;&gt;Node18</title>
<path fill="none" stroke="midnightblue" d="M798.99,-203.1C767.22,-190.2 718.31,-170.33 690.58,-159.06"/>
<polygon fill="midnightblue" stroke="midnightblue" points="797.67,-206.35 808.25,-206.87 800.31,-199.86 797.67,-206.35"/>
</g>
<!-- Node15&#45;&gt;Node19 -->
<g id="edge25" class="edge">
<title>Node15&#45;&gt;Node19</title>
<path fill="none" stroke="midnightblue" d="M854.64,-202.1C878.81,-189.23 914.6,-170.16 935.23,-159.17"/>
<polygon fill="midnightblue" stroke="midnightblue" points="852.88,-199.08 845.7,-206.87 856.17,-205.26 852.88,-199.08"/>
</g>
<!-- Node15&#45;&gt;Node20 -->
<g id="edge26" class="edge">
<title>Node15&#45;&gt;Node20</title>
<path fill="none" stroke="midnightblue" d="M763.72,-208.09C669.69,-197.3 501.55,-177.22 441.5,-165 433.6,-163.39 425.14,-161.23 417.39,-159.06"/>
<polygon fill="midnightblue" stroke="midnightblue" points="763.36,-211.57 773.7,-209.23 764.16,-204.62 763.36,-211.57"/>
</g>
<!-- Node21&#45;&gt;Node8 -->
<g id="edge28" class="edge">
<title>Node21&#45;&gt;Node8</title>
<path fill="none" stroke="midnightblue" d="M1336.47,-196.12C1348.33,-188.23 1359.91,-177.88 1366.5,-165 1372.78,-152.73 1372.71,-146.3 1366.5,-134 1337.59,-76.69 1266.08,-40.41 1229.63,-25.02"/>
<polygon fill="midnightblue" stroke="midnightblue" points="1334.52,-193.21 1327.84,-201.44 1338.19,-199.17 1334.52,-193.21"/>
</g>
<!-- Node22 -->
<g id="node22" class="node">
<title>Node22</title>
<g id="a_node22"><a xlink:href="exif-mnote-data-fuji_8c.html" target="_top" xlink:title=" ">
<polygon fill="white" stroke="black" points="1235.5,-134.5 1235.5,-164.5 1357.5,-164.5 1357.5,-134.5 1235.5,-134.5"/>
<text text-anchor="start" x="1243.5" y="-152.5" font-family="Helvetica,sans-Serif" font-size="10.00">libexif/fuji/exif&#45;mnote</text>
<text text-anchor="middle" x="1296.5" y="-141.5" font-family="Helvetica,sans-Serif" font-size="10.00">&#45;data&#45;fuji.c</text>
</a>
</g>
</g>
<!-- Node21&#45;&gt;Node22 -->
<g id="edge29" class="edge">
<title>Node21&#45;&gt;Node22</title>
<path fill="none" stroke="midnightblue" d="M1296.5,-191.11C1296.5,-182.15 1296.5,-172.32 1296.5,-164.58"/>
<polygon fill="midnightblue" stroke="midnightblue" points="1293,-191.4 1296.5,-201.4 1300,-191.4 1293,-191.4"/>
</g>
<!-- Node23 -->
<g id="node23" class="node">
<title>Node23</title>
<g id="a_node23"><a xlink:href="mnote-fuji-entry_8h.html" target="_top" xlink:title=" ">
<polygon fill="white" stroke="black" points="1414,-134.5 1414,-164.5 1515,-164.5 1515,-134.5 1414,-134.5"/>
<text text-anchor="start" x="1422" y="-152.5" font-family="Helvetica,sans-Serif" font-size="10.00">libexif/fuji/mnote</text>
<text text-anchor="middle" x="1464.5" y="-141.5" font-family="Helvetica,sans-Serif" font-size="10.00">&#45;fuji&#45;entry.h</text>
</a>
</g>
</g>
<!-- Node21&#45;&gt;Node23 -->
<g id="edge30" class="edge">
<title>Node21&#45;&gt;Node23</title>
<path fill="none" stroke="midnightblue" d="M1336.8,-197.54C1362.7,-187.14 1396.2,-174.24 1422.44,-164.58"/>
<polygon fill="midnightblue" stroke="midnightblue" points="1335.23,-194.4 1327.28,-201.4 1337.86,-200.89 1335.23,-194.4"/>
</g>
<!-- Node23&#45;&gt;Node21 -->
<g id="edge31" class="edge">
<title>Node23&#45;&gt;Node21</title>
<path fill="none" stroke="midnightblue" d="M1424.27,-168.43C1398.39,-178.82 1364.89,-191.73 1338.63,-201.4"/>
<polygon fill="midnightblue" stroke="midnightblue" points="1425.83,-171.57 1433.79,-164.58 1423.21,-165.08 1425.83,-171.57"/>
</g>
<!-- Node24 -->
<g id="node24" class="node">
<title>Node24</title>
<g id="a_node24"><a xlink:href="mnote-fuji-entry_8c.html" target="_top" xlink:title=" ">
<polygon fill="white" stroke="black" points="1414,-67.5 1414,-97.5 1515,-97.5 1515,-67.5 1414,-67.5"/>
<text text-anchor="start" x="1422" y="-85.5" font-family="Helvetica,sans-Serif" font-size="10.00">libexif/fuji/mnote</text>
<text text-anchor="middle" x="1464.5" y="-74.5" font-family="Helvetica,sans-Serif" font-size="10.00">&#45;fuji&#45;entry.c</text>
</a>
</g>
</g>
<!-- Node23&#45;&gt;Node24 -->
<g id="edge32" class="edge">
<title>Node23&#45;&gt;Node24</title>
<path fill="none" stroke="midnightblue" d="M1464.5,-124.11C1464.5,-115.15 1464.5,-105.32 1464.5,-97.58"/>
<polygon fill="midnightblue" stroke="midnightblue" points="1461,-124.4 1464.5,-134.4 1468,-124.4 1461,-124.4"/>
</g>
<!-- Node25&#45;&gt;Node23 -->
<g id="edge34" class="edge">
<title>Node25&#45;&gt;Node23</title>
<path fill="none" stroke="midnightblue" d="M1439.9,-192.58C1445.36,-183.24 1451.49,-172.75 1456.27,-164.58"/>
<polygon fill="midnightblue" stroke="midnightblue" points="1436.77,-191 1434.75,-201.4 1442.81,-194.53 1436.77,-191"/>
</g>
<!-- Node26 -->
<g id="node26" class="node">
<title>Node26</title>
<g id="a_node26"><a xlink:href="mnote-fuji-tag_8c.html" target="_top" xlink:title=" ">
<polygon fill="white" stroke="black" points="1533,-134.5 1533,-164.5 1634,-164.5 1634,-134.5 1533,-134.5"/>
<text text-anchor="start" x="1541" y="-152.5" font-family="Helvetica,sans-Serif" font-size="10.00">libexif/fuji/mnote</text>
<text text-anchor="middle" x="1583.5" y="-141.5" font-family="Helvetica,sans-Serif" font-size="10.00">&#45;fuji&#45;tag.c</text>
</a>
</g>
</g>
<!-- Node25&#45;&gt;Node26 -->
<g id="edge35" class="edge">
<title>Node25&#45;&gt;Node26</title>
<path fill="none" stroke="midnightblue" d="M1469.87,-197.54C1494.99,-187.14 1526.16,-174.24 1549.5,-164.58"/>
<polygon fill="midnightblue" stroke="midnightblue" points="1468.47,-194.34 1460.57,-201.4 1471.14,-200.8 1468.47,-194.34"/>
</g>
<!-- Node28&#45;&gt;Node8 -->
<g id="edge38" class="edge">
<title>Node28&#45;&gt;Node8</title>
<path fill="none" stroke="midnightblue" d="M1609.45,-196.79C1622.88,-189.07 1635.88,-178.65 1643.5,-165 1650.22,-152.97 1650.45,-145.89 1643.5,-134 1612.87,-81.6 1581.81,-86.98 1524.5,-67 1433.99,-35.45 1322,-23.5 1258.26,-19.05"/>
<polygon fill="midnightblue" stroke="midnightblue" points="1607.81,-193.7 1600.62,-201.48 1611.09,-199.88 1607.81,-193.7"/>
</g>
<!-- Node28&#45;&gt;Node27 -->
<g id="edge39" class="edge">
<title>Node28&#45;&gt;Node27</title>
<path fill="none" stroke="midnightblue" d="M1613.32,-198.23C1644.86,-187.71 1684.65,-174.45 1714.27,-164.58"/>
<polygon fill="midnightblue" stroke="midnightblue" points="1612.19,-194.91 1603.81,-201.4 1614.41,-201.55 1612.19,-194.91"/>
</g>
<!-- Node29&#45;&gt;Node8 -->
<g id="edge41" class="edge">
<title>Node29&#45;&gt;Node8</title>
<path fill="none" stroke="midnightblue" d="M1076.68,-196.04C1064.75,-188.18 1053.14,-177.87 1046.5,-165 1040.18,-152.76 1040.26,-146.28 1046.5,-134 1075.74,-76.47 1147.82,-40.4 1184.81,-25.06"/>
<polygon fill="midnightblue" stroke="midnightblue" points="1074.99,-199.12 1085.35,-201.34 1078.64,-193.14 1074.99,-199.12"/>
</g>
<!-- Node30 -->
<g id="node30" class="node">
<title>Node30</title>
<g id="a_node30"><a xlink:href="exif-mnote-data-pentax_8c.html" target="_top" xlink:title=" ">
<polygon fill="white" stroke="black" points="1056,-134.5 1056,-164.5 1179,-164.5 1179,-134.5 1056,-134.5"/>
<text text-anchor="start" x="1064" y="-152.5" font-family="Helvetica,sans-Serif" font-size="10.00">libexif/pentax/exif</text>
<text text-anchor="middle" x="1117.5" y="-141.5" font-family="Helvetica,sans-Serif" font-size="10.00">&#45;mnote&#45;data&#45;pentax.c</text>
</a>
</g>
</g>
<!-- Node29&#45;&gt;Node30 -->
<g id="edge42" class="edge">
<title>Node29&#45;&gt;Node30</title>
<path fill="none" stroke="midnightblue" d="M1117.5,-191.11C1117.5,-182.15 1117.5,-172.32 1117.5,-164.58"/>
<polygon fill="midnightblue" stroke="midnightblue" points="1114,-191.4 1117.5,-201.4 1121,-191.4 1114,-191.4"/>
</g>
</g>
</svg>
