<?xml version="1.0" encoding="UTF-8" standalone="no"?>
<!DOCTYPE svg PUBLIC "-//W3C//DTD SVG 1.1//EN"
 "http://www.w3.org/Graphics/SVG/1.1/DTD/svg11.dtd">
<!-- Generated by graphviz version 7.0.1 (0)
 -->
<!-- Title: exif_entry_dump Pages: 1 -->
<svg width="866pt" height="525pt"
 viewBox="0.00 0.00 866.00 525.00" xmlns="http://www.w3.org/2000/svg" xmlns:xlink="http://www.w3.org/1999/xlink">
<g id="graph0" class="graph" transform="scale(1 1) rotate(0) translate(4 521)">
<title>exif_entry_dump</title>
<!-- Node1 -->
<g id="Node000001" class="node">
<title>Node1</title>
<g id="a_Node000001"><a xlink:title="Dump text representation of ExifEntry to stdout.">
<polygon fill="#999999" stroke="#666666" points="99,-206 0,-206 0,-187 99,-187 99,-206"/>
<text text-anchor="middle" x="49.5" y="-194" font-family="Helvetica,sans-Serif" font-size="10.00">exif_entry_dump</text>
</a>
</g>
</g>
<!-- Node2 -->
<g id="Node000002" class="node">
<title>Node2</title>
<g id="a_Node000002"><a xlink:href="exif-entry_8c.html#a60425f657af3e00dc8bbb675f91cdb84" target="_top" xlink:title="Return a localized textual representation of the value of the EXIF entry.">
<polygon fill="white" stroke="#666666" points="266,-281 147,-281 147,-262 266,-262 266,-281"/>
<text text-anchor="middle" x="206.5" y="-269" font-family="Helvetica,sans-Serif" font-size="10.00">exif_entry_get_value</text>
</a>
</g>
</g>
<!-- Node1&#45;&gt;Node2 -->
<g id="edge1_Node000001_Node000002" class="edge">
<title>Node1&#45;&gt;Node2</title>
<g id="a_edge1_Node000001_Node000002"><a xlink:title=" ">
<path fill="none" stroke="#63b8ff" d="M71.08,-206.46C97.75,-219.36 144.45,-241.96 175.18,-256.83"/>
<polygon fill="#63b8ff" stroke="#63b8ff" points="173.44,-259.87 183.96,-261.08 176.49,-253.57 173.44,-259.87"/>
</a>
</g>
</g>
<!-- Node20 -->
<g id="Node000020" class="node">
<title>Node20</title>
<g id="a_Node000020"><a xlink:href="exif-format_8c.html#a513bc6b9980641d7e6ff1fe74810b3e0" target="_top" xlink:title="Return a textual representation of the given EXIF data type.">
<polygon fill="white" stroke="#666666" points="270.5,-206 142.5,-206 142.5,-187 270.5,-187 270.5,-206"/>
<text text-anchor="middle" x="206.5" y="-194" font-family="Helvetica,sans-Serif" font-size="10.00">exif_format_get_name</text>
</a>
</g>
</g>
<!-- Node1&#45;&gt;Node20 -->
<g id="edge29_Node000001_Node000020" class="edge">
<title>Node1&#45;&gt;Node20</title>
<g id="a_edge29_Node000001_Node000020"><a xlink:title=" ">
<path fill="none" stroke="#63b8ff" d="M99.12,-196.5C109.27,-196.5 120.18,-196.5 131.02,-196.5"/>
<polygon fill="#63b8ff" stroke="#63b8ff" points="130.74,-200 140.74,-196.5 130.74,-193 130.74,-200"/>
</a>
</g>
</g>
<!-- Node21 -->
<g id="Node000021" class="node">
<title>Node21</title>
<g id="a_Node000021"><a xlink:href="exif-tag_8c.html#a6b4f26f6f8f243e1f8a9e123b9cca589" target="_top" xlink:title="Return a textual name of the given tag when found in the given IFD.">
<polygon fill="white" stroke="#666666" points="278,-93 135,-93 135,-74 278,-74 278,-93"/>
<text text-anchor="middle" x="206.5" y="-81" font-family="Helvetica,sans-Serif" font-size="10.00">exif_tag_get_name_in_ifd</text>
</a>
</g>
</g>
<!-- Node1&#45;&gt;Node21 -->
<g id="edge30_Node000001_Node000021" class="edge">
<title>Node1&#45;&gt;Node21</title>
<g id="a_edge30_Node000001_Node000021"><a xlink:title=" ">
<path fill="none" stroke="#63b8ff" d="M63.98,-186.67C90.55,-167.3 149.92,-124.02 182.69,-100.13"/>
<polygon fill="#63b8ff" stroke="#63b8ff" points="184.69,-103 190.71,-94.28 180.57,-97.34 184.69,-103"/>
</a>
</g>
</g>
<!-- Node3 -->
<g id="Node000003" class="node">
<title>Node3</title>
<g id="a_Node000003"><a xlink:href="exif-content_8c.html#a5d98a5c58c31b49691694b010b29117d" target="_top" xlink:title="Return the ExifEntry in this IFD corresponding to the given tag.">
<polygon fill="white" stroke="#666666" points="447,-443 318,-443 318,-424 447,-424 447,-443"/>
<text text-anchor="middle" x="382.5" y="-431" font-family="Helvetica,sans-Serif" font-size="10.00">exif_content_get_entry</text>
</a>
</g>
</g>
<!-- Node2&#45;&gt;Node3 -->
<g id="edge2_Node000002_Node000003" class="edge">
<title>Node2&#45;&gt;Node3</title>
<g id="a_edge2_Node000002_Node000003"><a xlink:title=" ">
<path fill="none" stroke="#63b8ff" d="M212.52,-281.41C225.7,-306.49 263.78,-373.07 314,-409.5 319.29,-413.34 325.25,-416.61 331.38,-419.39"/>
<polygon fill="#63b8ff" stroke="#63b8ff" points="329.8,-422.52 340.38,-423.04 332.43,-416.04 329.8,-422.52"/>
</a>
</g>
</g>
<!-- Node4 -->
<g id="Node000004" class="node">
<title>Node4</title>
<g id="a_Node000004"><a xlink:href="exif-utils_8c.html#a0c51156312ff6ca97f4d587f776ded8f" target="_top" xlink:title="This function converts rather UCS&#45;2LE than UTF&#45;16 to UTF&#45;8.">
<polygon fill="white" stroke="#666666" points="436.5,-367.5 328.5,-367.5 328.5,-337.5 436.5,-337.5 436.5,-367.5"/>
<text text-anchor="start" x="336.5" y="-355.5" font-family="Helvetica,sans-Serif" font-size="10.00">exif_convert_utf16</text>
<text text-anchor="middle" x="382.5" y="-344.5" font-family="Helvetica,sans-Serif" font-size="10.00">_to_utf8</text>
</a>
</g>
</g>
<!-- Node2&#45;&gt;Node4 -->
<g id="edge3_Node000002_Node000004" class="edge">
<title>Node2&#45;&gt;Node4</title>
<g id="a_edge3_Node000002_Node000004"><a xlink:title=" ">
<path fill="none" stroke="#63b8ff" d="M226.99,-281.37C248.25,-292.05 283.33,-309.43 314,-323.5 320.47,-326.47 327.32,-329.52 334.09,-332.47"/>
<polygon fill="#63b8ff" stroke="#63b8ff" points="332.62,-335.65 343.18,-336.42 335.4,-329.23 332.62,-335.65"/>
</a>
</g>
</g>
<!-- Node5 -->
<g id="Node000005" class="node">
<title>Node5</title>
<g id="a_Node000005"><a xlink:href="exif-utils_8c.html#a4b4acf537a8c6b9405e7b53be868e4d7" target="_top" xlink:title="Retrieve an ExifShort value from memory.">
<polygon fill="white" stroke="#666666" points="589.5,-441 503.5,-441 503.5,-422 589.5,-422 589.5,-441"/>
<text text-anchor="middle" x="546.5" y="-429" font-family="Helvetica,sans-Serif" font-size="10.00">exif_get_short</text>
</a>
</g>
</g>
<!-- Node2&#45;&gt;Node5 -->
<g id="edge24_Node000002_Node000005" class="edge">
<title>Node2&#45;&gt;Node5</title>
<g id="a_edge24_Node000002_Node000005"><a xlink:title=" ">
<path fill="none" stroke="#63b8ff" d="M214.5,-281.39C229.91,-302.4 269.03,-351.59 314,-376.5 344.15,-393.2 433.36,-411.5 491.82,-422.21"/>
<polygon fill="#63b8ff" stroke="#63b8ff" points="491.13,-425.65 501.59,-423.98 492.38,-418.76 491.13,-425.65"/>
</a>
</g>
</g>
<!-- Node7 -->
<g id="Node000007" class="node">
<title>Node7</title>
<g id="a_Node000007"><a xlink:href="exif-data_8c.html#a2d8d50e6a9c19d28fe8192ef7cc52777" target="_top" xlink:title="Return the byte order in use by this EXIF structure.">
<polygon fill="white" stroke="#666666" points="601.5,-403.5 491.5,-403.5 491.5,-373.5 601.5,-373.5 601.5,-403.5"/>
<text text-anchor="start" x="499.5" y="-391.5" font-family="Helvetica,sans-Serif" font-size="10.00">exif_data_get_byte</text>
<text text-anchor="middle" x="546.5" y="-380.5" font-family="Helvetica,sans-Serif" font-size="10.00">_order</text>
</a>
</g>
</g>
<!-- Node2&#45;&gt;Node7 -->
<g id="edge6_Node000002_Node000007" class="edge">
<title>Node2&#45;&gt;Node7</title>
<g id="a_edge6_Node000002_Node000007"><a xlink:title=" ">
<path fill="none" stroke="#63b8ff" d="M263.89,-281.47C325.19,-292.88 418.73,-312.09 451,-328.5 469.82,-338.07 469.4,-347.83 487,-359.5 491.38,-362.4 496.08,-365.2 500.86,-367.84"/>
<polygon fill="#63b8ff" stroke="#63b8ff" points="498.85,-370.74 509.33,-372.32 502.12,-364.55 498.85,-370.74"/>
</a>
</g>
</g>
<!-- Node8 -->
<g id="Node000008" class="node">
<title>Node8</title>
<g id="a_Node000008"><a xlink:href="exif-entry_8c.html#ae02e9d58318a3cd50eb6730b5e657e5a" target="_top" xlink:title="Format the value of an ExifEntry for human display in a generic way.">
<polygon fill="white" stroke="#666666" points="451,-281 314,-281 314,-262 451,-262 451,-281"/>
<text text-anchor="middle" x="382.5" y="-269" font-family="Helvetica,sans-Serif" font-size="10.00">exif_entry_format_value</text>
</a>
</g>
</g>
<!-- Node2&#45;&gt;Node8 -->
<g id="edge7_Node000002_Node000008" class="edge">
<title>Node2&#45;&gt;Node8</title>
<g id="a_edge7_Node000002_Node000008"><a xlink:title=" ">
<path fill="none" stroke="#63b8ff" d="M266.41,-271.5C277.91,-271.5 290.15,-271.5 302.2,-271.5"/>
<polygon fill="#63b8ff" stroke="#63b8ff" points="302.14,-275 312.14,-271.5 302.14,-268 302.14,-275"/>
</a>
</g>
</g>
<!-- Node9 -->
<g id="Node000009" class="node">
<title>Node9</title>
<g id="a_Node000009"><a xlink:href="exif-format_8c.html#a924038efe0cd8ebade8f44619dd794f3" target="_top" xlink:title="Return the raw size of the given EXIF data type.">
<polygon fill="white" stroke="#666666" points="606,-241 487,-241 487,-222 606,-222 606,-241"/>
<text text-anchor="middle" x="546.5" y="-229" font-family="Helvetica,sans-Serif" font-size="10.00">exif_format_get_size</text>
</a>
</g>
</g>
<!-- Node2&#45;&gt;Node9 -->
<g id="edge22_Node000002_Node000009" class="edge">
<title>Node2&#45;&gt;Node9</title>
<g id="a_edge22_Node000002_Node000009"><a xlink:title=" ">
<path fill="none" stroke="#63b8ff" d="M261.84,-261.53C278.53,-258.68 296.99,-255.74 314,-253.5 368.06,-246.37 429.51,-240.64 475.51,-236.82"/>
<polygon fill="#63b8ff" stroke="#63b8ff" points="475.67,-240.32 485.35,-236.01 475.09,-233.34 475.67,-240.32"/>
</a>
</g>
</g>
<!-- Node12 -->
<g id="Node000012" class="node">
<title>Node12</title>
<g id="a_Node000012"><a xlink:href="exif-utils_8c.html#a1feb547c289aa57a4d2119338b03706c" target="_top" xlink:title="Retrieve an ExifRational value from memory.">
<polygon fill="white" stroke="#666666" points="596,-204 497,-204 497,-185 596,-185 596,-204"/>
<text text-anchor="middle" x="546.5" y="-192" font-family="Helvetica,sans-Serif" font-size="10.00">exif_get_rational</text>
</a>
</g>
</g>
<!-- Node2&#45;&gt;Node12 -->
<g id="edge23_Node000002_Node000012" class="edge">
<title>Node2&#45;&gt;Node12</title>
<g id="a_edge23_Node000002_Node000012"><a xlink:title=" ">
<path fill="none" stroke="#63b8ff" d="M232.11,-261.66C253.47,-253.44 285.38,-241.89 314,-234.5 371.46,-219.66 438.39,-208.77 485.46,-202.13"/>
<polygon fill="#63b8ff" stroke="#63b8ff" points="485.76,-205.62 495.18,-200.78 484.8,-198.69 485.76,-205.62"/>
</a>
</g>
</g>
<!-- Node13 -->
<g id="Node000013" class="node">
<title>Node13</title>
<g id="a_Node000013"><a xlink:href="exif-utils_8c.html#adb97c3499488d5642a82df1cb16dc2cb" target="_top" xlink:title="Retrieve an ExifSRational value from memory.">
<polygon fill="white" stroke="#666666" points="598.5,-167 494.5,-167 494.5,-148 598.5,-148 598.5,-167"/>
<text text-anchor="middle" x="546.5" y="-155" font-family="Helvetica,sans-Serif" font-size="10.00">exif_get_srational</text>
</a>
</g>
</g>
<!-- Node2&#45;&gt;Node13 -->
<g id="edge25_Node000002_Node000013" class="edge">
<title>Node2&#45;&gt;Node13</title>
<g id="a_edge25_Node000002_Node000013"><a xlink:title=" ">
<path fill="none" stroke="#63b8ff" d="M219.42,-261.55C238.25,-246.36 276.61,-217.58 314,-202.5 368.72,-180.43 435.2,-168.94 482.85,-163.12"/>
<polygon fill="#63b8ff" stroke="#63b8ff" points="483.21,-166.61 492.74,-161.97 482.4,-159.65 483.21,-166.61"/>
</a>
</g>
</g>
<!-- Node14 -->
<g id="Node000014" class="node">
<title>Node14</title>
<g id="a_Node000014"><a xlink:href="exif-entry_8c.html#ac416e8326bd687f5da299d1b15a731bf" target="_top" xlink:title=" ">
<polygon fill="white" stroke="#666666" points="425.5,-129 339.5,-129 339.5,-110 425.5,-110 425.5,-129"/>
<text text-anchor="middle" x="382.5" y="-117" font-family="Helvetica,sans-Serif" font-size="10.00">exif_entry_log</text>
</a>
</g>
</g>
<!-- Node2&#45;&gt;Node14 -->
<g id="edge19_Node000002_Node000014" class="edge">
<title>Node2&#45;&gt;Node14</title>
<g id="a_edge19_Node000002_Node000014"><a xlink:title=" ">
<path fill="none" stroke="#63b8ff" d="M223.74,-261.6C239.23,-251.52 262.44,-234.68 278,-215.5 300.54,-187.72 287.21,-167.21 314,-143.5 318.37,-139.63 323.41,-136.38 328.72,-133.64"/>
<polygon fill="#63b8ff" stroke="#63b8ff" points="330.07,-136.87 337.78,-129.6 327.22,-130.47 330.07,-136.87"/>
</a>
</g>
</g>
<!-- Node17 -->
<g id="Node000017" class="node">
<title>Node17</title>
<g id="a_Node000017"><a xlink:href="exif-mem_8c.html#a68be7c7afc8cff75adc3b1a28b5ae9a2" target="_top" xlink:title=" ">
<polygon fill="white" stroke="#666666" points="430,-92 335,-92 335,-73 430,-73 430,-92"/>
<text text-anchor="middle" x="382.5" y="-80" font-family="Helvetica,sans-Serif" font-size="10.00">exif_mem_alloc</text>
</a>
</g>
</g>
<!-- Node2&#45;&gt;Node17 -->
<g id="edge26_Node000002_Node000017" class="edge">
<title>Node2&#45;&gt;Node17</title>
<g id="a_edge26_Node000002_Node000017"><a xlink:title=" ">
<path fill="none" stroke="#63b8ff" d="M225.35,-261.55C241.32,-251.78 264.27,-235.46 278,-215.5 308.12,-171.73 275.84,-138.47 314,-101.5 317.07,-98.53 320.56,-96.02 324.3,-93.89"/>
<polygon fill="#63b8ff" stroke="#63b8ff" points="325.68,-97.11 333.31,-89.75 322.76,-90.75 325.68,-97.11"/>
</a>
</g>
</g>
<!-- Node18 -->
<g id="Node000018" class="node">
<title>Node18</title>
<g id="a_Node000018"><a xlink:href="exif-mem_8c.html#a43190b81b4b4bdb4ffb89bfb612051b1" target="_top" xlink:title=" ">
<polygon fill="white" stroke="#666666" points="428,-517 337,-517 337,-498 428,-498 428,-517"/>
<text text-anchor="middle" x="382.5" y="-505" font-family="Helvetica,sans-Serif" font-size="10.00">exif_mem_free</text>
</a>
</g>
</g>
<!-- Node2&#45;&gt;Node18 -->
<g id="edge27_Node000002_Node000018" class="edge">
<title>Node2&#45;&gt;Node18</title>
<g id="a_edge27_Node000002_Node000018"><a xlink:title=" ">
<path fill="none" stroke="#63b8ff" d="M209.25,-281.09C215.97,-315.17 243.42,-431.42 314,-489.5 317.69,-492.53 321.84,-495.06 326.22,-497.16"/>
<polygon fill="#63b8ff" stroke="#63b8ff" points="324.77,-500.35 335.36,-500.79 327.35,-493.85 324.77,-500.35"/>
</a>
</g>
</g>
<!-- Node19 -->
<g id="Node000019" class="node">
<title>Node19</title>
<g id="a_Node000019"><a xlink:href="exif-entry_8c.html#acfe97d1f369d95332b6e796c690093e4" target="_top" xlink:title="Check if a string consists entirely of a single, repeated character.">
<polygon fill="white" stroke="#666666" points="443.5,-480 321.5,-480 321.5,-461 443.5,-461 443.5,-480"/>
<text text-anchor="middle" x="382.5" y="-468" font-family="Helvetica,sans-Serif" font-size="10.00">match_repeated_char</text>
</a>
</g>
</g>
<!-- Node2&#45;&gt;Node19 -->
<g id="edge28_Node000002_Node000019" class="edge">
<title>Node2&#45;&gt;Node19</title>
<g id="a_edge28_Node000002_Node000019"><a xlink:title=" ">
<path fill="none" stroke="#63b8ff" d="M210.27,-281.13C219.5,-311.41 252.17,-405.52 314,-452.5 315.33,-453.51 316.71,-454.46 318.13,-455.36"/>
<polygon fill="#63b8ff" stroke="#63b8ff" points="316.22,-458.31 326.7,-459.85 319.47,-452.11 316.22,-458.31"/>
</a>
</g>
</g>
<!-- Node4&#45;&gt;Node5 -->
<g id="edge4_Node000004_Node000005" class="edge">
<title>Node4&#45;&gt;Node5</title>
<g id="a_edge4_Node000004_Node000005"><a xlink:title=" ">
<path fill="none" stroke="#63b8ff" d="M424.85,-367.89C433.73,-371.84 442.89,-376.43 451,-381.5 468.91,-392.69 468.6,-402.15 487,-412.5 490.16,-414.28 493.52,-415.92 496.96,-417.43"/>
<polygon fill="#63b8ff" stroke="#63b8ff" points="495.43,-420.59 506.02,-421.01 498.01,-414.08 495.43,-420.59"/>
</a>
</g>
</g>
<!-- Node6 -->
<g id="Node000006" class="node">
<title>Node6</title>
<g id="a_Node000006"><a xlink:href="exif-utils_8c.html#a6baf094a71392f9cea23ad633ec13c8b" target="_top" xlink:title="Retrieve an ExifSShort value from memory.">
<polygon fill="white" stroke="#666666" points="734,-398 642,-398 642,-379 734,-379 734,-398"/>
<text text-anchor="middle" x="688" y="-386" font-family="Helvetica,sans-Serif" font-size="10.00">exif_get_sshort</text>
</a>
</g>
</g>
<!-- Node5&#45;&gt;Node6 -->
<g id="edge5_Node000005_Node000006" class="edge">
<title>Node5&#45;&gt;Node6</title>
<g id="a_edge5_Node000005_Node000006"><a xlink:title=" ">
<path fill="none" stroke="#63b8ff" d="M579.85,-421.53C598.96,-415.64 623.37,-408.11 644.07,-401.73"/>
<polygon fill="#63b8ff" stroke="#63b8ff" points="644.85,-405.16 653.37,-398.86 642.79,-398.47 644.85,-405.16"/>
</a>
</g>
</g>
<!-- Node8&#45;&gt;Node5 -->
<g id="edge14_Node000008_Node000005" class="edge">
<title>Node8&#45;&gt;Node5</title>
<g id="a_edge14_Node000008_Node000005"><a xlink:title=" ">
<path fill="none" stroke="#63b8ff" d="M398.98,-281.41C413.97,-291.66 436.49,-308.9 451,-328.5 475.17,-361.15 457,-385.11 487,-412.5 488.89,-414.23 490.94,-415.79 493.1,-417.22"/>
<polygon fill="#63b8ff" stroke="#63b8ff" points="491.35,-420.26 501.82,-421.89 494.66,-414.09 491.35,-420.26"/>
</a>
</g>
</g>
<!-- Node8&#45;&gt;Node6 -->
<g id="edge18_Node000008_Node000006" class="edge">
<title>Node8&#45;&gt;Node6</title>
<g id="a_edge18_Node000008_Node000006"><a xlink:title=" ">
<path fill="none" stroke="#63b8ff" d="M437.17,-281.44C441.97,-283.15 446.65,-285.16 451,-287.5 470.37,-297.95 468.12,-310.18 487,-321.5 500.77,-329.76 589.58,-358.16 644.12,-375.22"/>
<polygon fill="#63b8ff" stroke="#63b8ff" points="642.83,-378.48 653.42,-378.12 644.92,-371.8 642.83,-378.48"/>
</a>
</g>
</g>
<!-- Node8&#45;&gt;Node7 -->
<g id="edge8_Node000008_Node000007" class="edge">
<title>Node8&#45;&gt;Node7</title>
<g id="a_edge8_Node000008_Node000007"><a xlink:title=" ">
<path fill="none" stroke="#63b8ff" d="M425.96,-281.38C434.88,-284.82 443.77,-289.41 451,-295.5 475.96,-316.52 463.33,-337.03 487,-359.5 489.97,-362.32 493.27,-364.92 496.74,-367.31"/>
<polygon fill="#63b8ff" stroke="#63b8ff" points="494.59,-370.1 504.95,-372.35 498.25,-364.13 494.59,-370.1"/>
</a>
</g>
</g>
<!-- Node8&#45;&gt;Node9 -->
<g id="edge9_Node000008_Node000009" class="edge">
<title>Node8&#45;&gt;Node9</title>
<g id="a_edge9_Node000008_Node000009"><a xlink:title=" ">
<path fill="none" stroke="#63b8ff" d="M423.96,-261.51C445.21,-256.26 471.47,-249.78 494.13,-244.18"/>
<polygon fill="#63b8ff" stroke="#63b8ff" points="494.93,-247.59 503.8,-241.8 493.26,-240.79 494.93,-247.59"/>
</a>
</g>
</g>
<!-- Node10 -->
<g id="Node000010" class="node">
<title>Node10</title>
<g id="a_Node000010"><a xlink:href="exif-utils_8c.html#a4ad94614630897766dd0a5c9bc2a59bf" target="_top" xlink:title="Retrieve an ExifLong value from memory.">
<polygon fill="white" stroke="#666666" points="729.5,-261 646.5,-261 646.5,-242 729.5,-242 729.5,-261"/>
<text text-anchor="middle" x="688" y="-249" font-family="Helvetica,sans-Serif" font-size="10.00">exif_get_long</text>
</a>
</g>
</g>
<!-- Node8&#45;&gt;Node10 -->
<g id="edge10_Node000008_Node000010" class="edge">
<title>Node8&#45;&gt;Node10</title>
<g id="a_edge10_Node000008_Node000010"><a xlink:title=" ">
<path fill="none" stroke="#63b8ff" d="M451.23,-267.04C506.66,-263.38 583.93,-258.29 634.69,-254.95"/>
<polygon fill="#63b8ff" stroke="#63b8ff" points="634.79,-258.45 644.53,-254.3 634.33,-251.46 634.79,-258.45"/>
</a>
</g>
</g>
<!-- Node11 -->
<g id="Node000011" class="node">
<title>Node11</title>
<g id="a_Node000011"><a xlink:href="exif-utils_8c.html#a56b96f076a13da6ed926e1ef29cb2dc3" target="_top" xlink:title="Retrieve an ExifSLong value from memory.">
<polygon fill="white" stroke="#666666" points="858,-261 770,-261 770,-242 858,-242 858,-261"/>
<text text-anchor="middle" x="814" y="-249" font-family="Helvetica,sans-Serif" font-size="10.00">exif_get_slong</text>
</a>
</g>
</g>
<!-- Node8&#45;&gt;Node11 -->
<g id="edge15_Node000008_Node000011" class="edge">
<title>Node8&#45;&gt;Node11</title>
<g id="a_edge15_Node000008_Node000011"><a xlink:title=" ">
<path fill="none" stroke="#63b8ff" d="M451.38,-276.53C522.25,-280.56 636.45,-283.61 734,-270.5 744.9,-269.04 756.48,-266.7 767.32,-264.16"/>
<polygon fill="#63b8ff" stroke="#63b8ff" points="767.94,-267.62 776.82,-261.83 766.27,-260.82 767.94,-267.62"/>
</a>
</g>
</g>
<!-- Node8&#45;&gt;Node12 -->
<g id="edge12_Node000008_Node000012" class="edge">
<title>Node8&#45;&gt;Node12</title>
<g id="a_edge12_Node000008_Node000012"><a xlink:title=" ">
<path fill="none" stroke="#63b8ff" d="M398.79,-261.67C418.56,-249.25 454.35,-227.78 487,-213.5 491.29,-211.62 495.83,-209.83 500.41,-208.15"/>
<polygon fill="#63b8ff" stroke="#63b8ff" points="501.33,-211.53 509.62,-204.94 499.03,-204.92 501.33,-211.53"/>
</a>
</g>
</g>
<!-- Node8&#45;&gt;Node13 -->
<g id="edge16_Node000008_Node000013" class="edge">
<title>Node8&#45;&gt;Node13</title>
<g id="a_edge16_Node000008_Node000013"><a xlink:title=" ">
<path fill="none" stroke="#63b8ff" d="M391.58,-261.68C407.77,-242.61 446.13,-200.35 487,-176.5 489.95,-174.78 493.07,-173.19 496.28,-171.73"/>
<polygon fill="#63b8ff" stroke="#63b8ff" points="497.37,-175.07 505.32,-168.06 494.73,-168.58 497.37,-175.07"/>
</a>
</g>
</g>
<!-- Node10&#45;&gt;Node11 -->
<g id="edge11_Node000010_Node000011" class="edge">
<title>Node10&#45;&gt;Node11</title>
<g id="a_edge11_Node000010_Node000011"><a xlink:title=" ">
<path fill="none" stroke="#63b8ff" d="M729.95,-251.5C738.97,-251.5 748.68,-251.5 758.15,-251.5"/>
<polygon fill="#63b8ff" stroke="#63b8ff" points="758.03,-255 768.03,-251.5 758.03,-248 758.03,-255"/>
</a>
</g>
</g>
<!-- Node12&#45;&gt;Node10 -->
<g id="edge13_Node000012_Node000010" class="edge">
<title>Node12&#45;&gt;Node10</title>
<g id="a_edge13_Node000012_Node000010"><a xlink:title=" ">
<path fill="none" stroke="#63b8ff" d="M580.55,-204.44C588.93,-207.18 597.86,-210.28 606,-213.5 623.32,-220.34 642.18,-229.11 657.35,-236.5"/>
<polygon fill="#63b8ff" stroke="#63b8ff" points="655.78,-239.63 666.3,-240.92 658.88,-233.36 655.78,-239.63"/>
</a>
</g>
</g>
<!-- Node13&#45;&gt;Node11 -->
<g id="edge17_Node000013_Node000011" class="edge">
<title>Node13&#45;&gt;Node11</title>
<g id="a_edge17_Node000013_Node000011"><a xlink:title=" ">
<path fill="none" stroke="#63b8ff" d="M578.84,-167.46C587.64,-170.32 597.21,-173.48 606,-176.5 665.61,-196.97 734.3,-222.19 775.65,-237.54"/>
<polygon fill="#63b8ff" stroke="#63b8ff" points="774.29,-240.77 784.89,-240.98 776.73,-234.21 774.29,-240.77"/>
</a>
</g>
</g>
<!-- Node15 -->
<g id="Node000015" class="node">
<title>Node15</title>
<g id="a_Node000015"><a xlink:href="exif-data_8c.html#a9403ed4fde8ef603e9db173eb122efaf" target="_top" xlink:title=" ">
<polygon fill="white" stroke="#666666" points="598.5,-130 494.5,-130 494.5,-111 598.5,-111 598.5,-130"/>
<text text-anchor="middle" x="546.5" y="-118" font-family="Helvetica,sans-Serif" font-size="10.00">exif_data_get_log</text>
</a>
</g>
</g>
<!-- Node14&#45;&gt;Node15 -->
<g id="edge20_Node000014_Node000015" class="edge">
<title>Node14&#45;&gt;Node15</title>
<g id="a_edge20_Node000014_Node000015"><a xlink:title=" ">
<path fill="none" stroke="#63b8ff" d="M425.64,-119.76C443.04,-119.87 463.56,-119.99 482.67,-120.11"/>
<polygon fill="#63b8ff" stroke="#63b8ff" points="482.49,-123.61 492.52,-120.17 482.54,-116.61 482.49,-123.61"/>
</a>
</g>
</g>
<!-- Node16 -->
<g id="Node000016" class="node">
<title>Node16</title>
<g id="a_Node000016"><a xlink:href="exif-log_8c.html#a99101b5ad01b2d82ce9d43c9e8534627" target="_top" xlink:title=" ">
<polygon fill="white" stroke="#666666" points="577.5,-93 515.5,-93 515.5,-74 577.5,-74 577.5,-93"/>
<text text-anchor="middle" x="546.5" y="-81" font-family="Helvetica,sans-Serif" font-size="10.00">exif_logv</text>
</a>
</g>
</g>
<!-- Node14&#45;&gt;Node16 -->
<g id="edge21_Node000014_Node000016" class="edge">
<title>Node14&#45;&gt;Node16</title>
<g id="a_edge21_Node000014_Node000016"><a xlink:title=" ">
<path fill="none" stroke="#63b8ff" d="M425.64,-110.14C449.84,-104.76 480.1,-98.03 504.16,-92.69"/>
<polygon fill="#63b8ff" stroke="#63b8ff" points="504.6,-96.17 513.6,-90.59 503.08,-89.34 504.6,-96.17"/>
</a>
</g>
</g>
<!-- Node22 -->
<g id="Node000022" class="node">
<title>Node22</title>
<g id="a_Node000022"><a xlink:href="exif-tag_8c.html#a389f8ff3411e0525b28367892f1e78d3" target="_top" xlink:title="Finds the first entry in the EXIF tag table with the given tag number using a binary search.">
<polygon fill="white" stroke="#666666" points="438,-55 327,-55 327,-36 438,-36 438,-55"/>
<text text-anchor="middle" x="382.5" y="-43" font-family="Helvetica,sans-Serif" font-size="10.00">exif_tag_table_first</text>
</a>
</g>
</g>
<!-- Node21&#45;&gt;Node22 -->
<g id="edge31_Node000021_Node000022" class="edge">
<title>Node21&#45;&gt;Node22</title>
<g id="a_edge31_Node000021_Node000022"><a xlink:title=" ">
<path fill="none" stroke="#63b8ff" d="M253.22,-73.52C275.11,-68.73 301.54,-62.96 324.71,-57.9"/>
<polygon fill="#63b8ff" stroke="#63b8ff" points="325.29,-61.36 334.31,-55.81 323.79,-54.52 325.29,-61.36"/>
</a>
</g>
</g>
<!-- Node23 -->
<g id="Node000023" class="node">
<title>Node23</title>
<g id="a_Node000023"><a xlink:href="exif-tag_8c.html#a87563ee64809f5f0deb4d780098508c1" target="_top" xlink:title="Return the number of entries in the EXIF tag table, including the terminating NULL entry.">
<polygon fill="white" stroke="#666666" points="606,-56 487,-56 487,-37 606,-37 606,-56"/>
<text text-anchor="middle" x="546.5" y="-44" font-family="Helvetica,sans-Serif" font-size="10.00">exif_tag_table_count</text>
</a>
</g>
</g>
<!-- Node22&#45;&gt;Node23 -->
<g id="edge32_Node000022_Node000023" class="edge">
<title>Node22&#45;&gt;Node23</title>
<g id="a_edge32_Node000022_Node000023"><a xlink:title=" ">
<path fill="none" stroke="#63b8ff" d="M438.35,-45.84C450.22,-45.91 462.94,-45.99 475.31,-46.07"/>
<polygon fill="#63b8ff" stroke="#63b8ff" points="475.01,-49.56 485.04,-46.13 475.06,-42.56 475.01,-49.56"/>
</a>
</g>
</g>
<!-- Node24 -->
<g id="Node000024" class="node">
<title>Node24</title>
<g id="a_Node000024"><a xlink:href="exif-tag_8c.html#a220c1b18832f113bc84ff9551754915f" target="_top" xlink:title="Compares the tag with that in entry.">
<polygon fill="white" stroke="#666666" points="580.5,-19 512.5,-19 512.5,0 580.5,0 580.5,-19"/>
<text text-anchor="middle" x="546.5" y="-7" font-family="Helvetica,sans-Serif" font-size="10.00">match_tag</text>
</a>
</g>
</g>
<!-- Node22&#45;&gt;Node24 -->
<g id="edge33_Node000022_Node000024" class="edge">
<title>Node22&#45;&gt;Node24</title>
<g id="a_edge33_Node000022_Node000024"><a xlink:title=" ">
<path fill="none" stroke="#63b8ff" d="M428.2,-35.57C450.95,-30.51 478.52,-24.38 501.22,-19.34"/>
<polygon fill="#63b8ff" stroke="#63b8ff" points="501.78,-22.8 510.78,-17.22 500.26,-15.97 501.78,-22.8"/>
</a>
</g>
</g>
</g>
</svg>
