<?xml version="1.0" encoding="UTF-8" standalone="no"?>
<!DOCTYPE svg PUBLIC "-//W3C//DTD SVG 1.1//EN"
 "http://www.w3.org/Graphics/SVG/1.1/DTD/svg11.dtd">
<!-- Generated by graphviz version 2.44.1 (0)
 -->
<!-- Title: exif_data_load_data_entry Pages: 1 -->
<svg width="760pt" height="256pt"
 viewBox="0.00 0.00 760.00 256.00" xmlns="http://www.w3.org/2000/svg" xmlns:xlink="http://www.w3.org/1999/xlink">
<g id="graph0" class="graph" transform="scale(1 1) rotate(0) translate(4 252)">
<title>exif_data_load_data_entry</title>
<polygon fill="white" stroke="transparent" points="-4,4 -4,-252 756,-252 756,4 -4,4"/>
<!-- Node1 -->
<g id="node1" class="node">
<title>Node1</title>
<g id="a_node1"><a xlink:title=" ">
<polygon fill="#bfbfbf" stroke="black" points="0,-128 0,-158 116,-158 116,-128 0,-128"/>
<text text-anchor="start" x="8" y="-146" font-family="Helvetica,sans-Serif" font-size="10.00">exif_data_load_data</text>
<text text-anchor="middle" x="58" y="-135" font-family="Helvetica,sans-Serif" font-size="10.00">_entry</text>
</a>
</g>
</g>
<!-- Node2 -->
<g id="node2" class="node">
<title>Node2</title>
<g id="a_node2"><a xlink:href="exif-data_8c.html#a77cbef422b7a511d6405285ad9e00152" target="_top" xlink:title=" ">
<polygon fill="white" stroke="black" points="166,-228.5 166,-247.5 257,-247.5 257,-228.5 166,-228.5"/>
<text text-anchor="middle" x="211.5" y="-235.5" font-family="Helvetica,sans-Serif" font-size="10.00">exif_data_alloc</text>
</a>
</g>
</g>
<!-- Node1&#45;&gt;Node2 -->
<g id="edge1" class="edge">
<title>Node1&#45;&gt;Node2</title>
<path fill="none" stroke="midnightblue" d="M73.82,-158.12C91.17,-175.06 121.43,-202.32 152,-219 155.96,-221.16 160.2,-223.12 164.52,-224.9"/>
<polygon fill="midnightblue" stroke="midnightblue" points="163.46,-228.23 174.05,-228.48 165.92,-221.68 163.46,-228.23"/>
</g>
<!-- Node4 -->
<g id="node4" class="node">
<title>Node4</title>
<g id="a_node4"><a xlink:href="exif-format_8c.html#a924038efe0cd8ebade8f44619dd794f3" target="_top" xlink:title="Return the raw size of the given EXIF data type.">
<polygon fill="white" stroke="black" points="152,-190.5 152,-209.5 271,-209.5 271,-190.5 152,-190.5"/>
<text text-anchor="middle" x="211.5" y="-197.5" font-family="Helvetica,sans-Serif" font-size="10.00">exif_format_get_size</text>
</a>
</g>
</g>
<!-- Node1&#45;&gt;Node4 -->
<g id="edge3" class="edge">
<title>Node1&#45;&gt;Node4</title>
<path fill="none" stroke="midnightblue" d="M94.09,-158.05C111.4,-165.3 132.67,-173.92 152,-181 157.72,-183.09 163.79,-185.2 169.78,-187.2"/>
<polygon fill="midnightblue" stroke="midnightblue" points="169.1,-190.66 179.69,-190.46 171.28,-184.01 169.1,-190.66"/>
</g>
<!-- Node5 -->
<g id="node5" class="node">
<title>Node5</title>
<g id="a_node5"><a xlink:href="exif-utils_8c.html#a4ad94614630897766dd0a5c9bc2a59bf" target="_top" xlink:title="Retrieve an ExifLong value from memory.">
<polygon fill="white" stroke="black" points="170,-152.5 170,-171.5 253,-171.5 253,-152.5 170,-152.5"/>
<text text-anchor="middle" x="211.5" y="-159.5" font-family="Helvetica,sans-Serif" font-size="10.00">exif_get_long</text>
</a>
</g>
</g>
<!-- Node1&#45;&gt;Node5 -->
<g id="edge4" class="edge">
<title>Node1&#45;&gt;Node5</title>
<path fill="none" stroke="midnightblue" d="M116.28,-150.18C130.43,-151.96 145.5,-153.85 159.35,-155.58"/>
<polygon fill="midnightblue" stroke="midnightblue" points="159.3,-159.11 169.66,-156.88 160.17,-152.16 159.3,-159.11"/>
</g>
<!-- Node7 -->
<g id="node7" class="node">
<title>Node7</title>
<g id="a_node7"><a xlink:href="exif-utils_8c.html#a4b4acf537a8c6b9405e7b53be868e4d7" target="_top" xlink:title="Retrieve an ExifShort value from memory.">
<polygon fill="white" stroke="black" points="168.5,-114.5 168.5,-133.5 254.5,-133.5 254.5,-114.5 168.5,-114.5"/>
<text text-anchor="middle" x="211.5" y="-121.5" font-family="Helvetica,sans-Serif" font-size="10.00">exif_get_short</text>
</a>
</g>
</g>
<!-- Node1&#45;&gt;Node7 -->
<g id="edge6" class="edge">
<title>Node1&#45;&gt;Node7</title>
<path fill="none" stroke="midnightblue" d="M116.28,-135.82C130.03,-134.09 144.65,-132.26 158.17,-130.56"/>
<polygon fill="midnightblue" stroke="midnightblue" points="158.77,-134.01 168.26,-129.3 157.9,-127.07 158.77,-134.01"/>
</g>
<!-- Node9 -->
<g id="node9" class="node">
<title>Node9</title>
<g id="a_node9"><a xlink:href="exif-log_8c.html#a025d4a5d96544913ea6f6ebbec69cb68" target="_top" xlink:title=" ">
<polygon fill="white" stroke="black" points="183.5,-76.5 183.5,-95.5 239.5,-95.5 239.5,-76.5 183.5,-76.5"/>
<text text-anchor="middle" x="211.5" y="-83.5" font-family="Helvetica,sans-Serif" font-size="10.00">exif_log</text>
</a>
</g>
</g>
<!-- Node1&#45;&gt;Node9 -->
<g id="edge8" class="edge">
<title>Node1&#45;&gt;Node9</title>
<path fill="none" stroke="midnightblue" d="M94.09,-127.95C111.4,-120.7 132.67,-112.08 152,-105 158.96,-102.45 166.45,-99.89 173.67,-97.5"/>
<polygon fill="midnightblue" stroke="midnightblue" points="174.84,-100.8 183.27,-94.38 172.68,-94.15 174.84,-100.8"/>
</g>
<!-- Node11 -->
<g id="node11" class="node">
<title>Node11</title>
<g id="a_node11"><a xlink:href="exif-tag_8c.html#a09dab484396dbcd277161df07aa09cf1" target="_top" xlink:title=" ">
<polygon fill="white" stroke="black" points="156.5,-38.5 156.5,-57.5 266.5,-57.5 266.5,-38.5 156.5,-38.5"/>
<text text-anchor="middle" x="211.5" y="-45.5" font-family="Helvetica,sans-Serif" font-size="10.00">exif_tag_get_name</text>
</a>
</g>
</g>
<!-- Node1&#45;&gt;Node11 -->
<g id="edge10" class="edge">
<title>Node1&#45;&gt;Node11</title>
<path fill="none" stroke="midnightblue" d="M73.82,-127.88C91.17,-110.94 121.43,-83.68 152,-67 155.96,-64.84 160.2,-62.88 164.52,-61.1"/>
<polygon fill="midnightblue" stroke="midnightblue" points="165.92,-64.32 174.05,-57.52 163.46,-57.77 165.92,-64.32"/>
</g>
<!-- Node3 -->
<g id="node3" class="node">
<title>Node3</title>
<g id="a_node3"><a xlink:href="exif-mem_8c.html#ae8c09cfbcb95e435c4c4b7ec3bbd79e4" target="_top" xlink:title=" ">
<polygon fill="white" stroke="black" points="331,-228.5 331,-247.5 426,-247.5 426,-228.5 331,-228.5"/>
<text text-anchor="middle" x="378.5" y="-235.5" font-family="Helvetica,sans-Serif" font-size="10.00">exif_mem_alloc</text>
</a>
</g>
</g>
<!-- Node2&#45;&gt;Node3 -->
<g id="edge2" class="edge">
<title>Node2&#45;&gt;Node3</title>
<path fill="none" stroke="midnightblue" d="M257.15,-238C276.66,-238 299.78,-238 320.52,-238"/>
<polygon fill="midnightblue" stroke="midnightblue" points="320.8,-241.5 330.8,-238 320.8,-234.5 320.8,-241.5"/>
</g>
<!-- Node6 -->
<g id="node6" class="node">
<title>Node6</title>
<g id="a_node6"><a xlink:href="exif-utils_8c.html#a56b96f076a13da6ed926e1ef29cb2dc3" target="_top" xlink:title="Retrieve an ExifSLong value from memory.">
<polygon fill="white" stroke="black" points="334.5,-152.5 334.5,-171.5 422.5,-171.5 422.5,-152.5 334.5,-152.5"/>
<text text-anchor="middle" x="378.5" y="-159.5" font-family="Helvetica,sans-Serif" font-size="10.00">exif_get_slong</text>
</a>
</g>
</g>
<!-- Node5&#45;&gt;Node6 -->
<g id="edge5" class="edge">
<title>Node5&#45;&gt;Node6</title>
<path fill="none" stroke="midnightblue" d="M253.29,-162C274.64,-162 301.05,-162 324.02,-162"/>
<polygon fill="midnightblue" stroke="midnightblue" points="324.3,-165.5 334.3,-162 324.3,-158.5 324.3,-165.5"/>
</g>
<!-- Node8 -->
<g id="node8" class="node">
<title>Node8</title>
<g id="a_node8"><a xlink:href="exif-utils_8c.html#a6baf094a71392f9cea23ad633ec13c8b" target="_top" xlink:title="Retrieve an ExifSShort value from memory.">
<polygon fill="white" stroke="black" points="332.5,-114.5 332.5,-133.5 424.5,-133.5 424.5,-114.5 332.5,-114.5"/>
<text text-anchor="middle" x="378.5" y="-121.5" font-family="Helvetica,sans-Serif" font-size="10.00">exif_get_sshort</text>
</a>
</g>
</g>
<!-- Node7&#45;&gt;Node8 -->
<g id="edge7" class="edge">
<title>Node7&#45;&gt;Node8</title>
<path fill="none" stroke="midnightblue" d="M254.56,-124C275.09,-124 300.05,-124 322.1,-124"/>
<polygon fill="midnightblue" stroke="midnightblue" points="322.33,-127.5 332.33,-124 322.33,-120.5 322.33,-127.5"/>
</g>
<!-- Node10 -->
<g id="node10" class="node">
<title>Node10</title>
<g id="a_node10"><a xlink:href="exif-log_8c.html#a99101b5ad01b2d82ce9d43c9e8534627" target="_top" xlink:title=" ">
<polygon fill="white" stroke="black" points="347.5,-76.5 347.5,-95.5 409.5,-95.5 409.5,-76.5 347.5,-76.5"/>
<text text-anchor="middle" x="378.5" y="-83.5" font-family="Helvetica,sans-Serif" font-size="10.00">exif_logv</text>
</a>
</g>
</g>
<!-- Node9&#45;&gt;Node10 -->
<g id="edge9" class="edge">
<title>Node9&#45;&gt;Node10</title>
<path fill="none" stroke="midnightblue" d="M239.75,-86C266.28,-86 306.91,-86 337.18,-86"/>
<polygon fill="midnightblue" stroke="midnightblue" points="337.42,-89.5 347.42,-86 337.42,-82.5 337.42,-89.5"/>
</g>
<!-- Node12 -->
<g id="node12" class="node">
<title>Node12</title>
<g id="a_node12"><a xlink:href="exif-tag_8c.html#a82b5a88d44d27d432afb5a1db74268b0" target="_top" xlink:title="Return a textual name of the given tag when found in the given IFD.">
<polygon fill="white" stroke="black" points="307,-38.5 307,-57.5 450,-57.5 450,-38.5 307,-38.5"/>
<text text-anchor="middle" x="378.5" y="-45.5" font-family="Helvetica,sans-Serif" font-size="10.00">exif_tag_get_name_in_ifd</text>
</a>
</g>
</g>
<!-- Node11&#45;&gt;Node12 -->
<g id="edge11" class="edge">
<title>Node11&#45;&gt;Node12</title>
<path fill="none" stroke="midnightblue" d="M266.53,-48C276.18,-48 286.43,-48 296.65,-48"/>
<polygon fill="midnightblue" stroke="midnightblue" points="296.83,-51.5 306.83,-48 296.83,-44.5 296.83,-51.5"/>
</g>
<!-- Node16 -->
<g id="node16" class="node">
<title>Node16</title>
<g id="a_node16"><a xlink:href="exif-tag_8c.html#ab05bf3c8af3747529c62226eb35226bb" target="_top" xlink:title=" ">
<polygon fill="white" stroke="black" points="326,-0.5 326,-19.5 431,-19.5 431,-0.5 326,-0.5"/>
<text text-anchor="middle" x="378.5" y="-7.5" font-family="Helvetica,sans-Serif" font-size="10.00">exif_tag_get_stuff</text>
</a>
</g>
</g>
<!-- Node11&#45;&gt;Node16 -->
<g id="edge15" class="edge">
<title>Node11&#45;&gt;Node16</title>
<path fill="none" stroke="midnightblue" d="M254.14,-38.41C276.01,-33.37 303.01,-27.16 326.16,-21.82"/>
<polygon fill="midnightblue" stroke="midnightblue" points="327.2,-25.18 336.16,-19.52 325.63,-18.35 327.2,-25.18"/>
</g>
<!-- Node13 -->
<g id="node13" class="node">
<title>Node13</title>
<g id="a_node13"><a xlink:href="exif-tag_8c.html#a389f8ff3411e0525b28367892f1e78d3" target="_top" xlink:title="Finds the first entry in the EXIF tag table with the given tag number using a binary search.">
<polygon fill="white" stroke="black" points="486,-38.5 486,-57.5 597,-57.5 597,-38.5 486,-38.5"/>
<text text-anchor="middle" x="541.5" y="-45.5" font-family="Helvetica,sans-Serif" font-size="10.00">exif_tag_table_first</text>
</a>
</g>
</g>
<!-- Node12&#45;&gt;Node13 -->
<g id="edge12" class="edge">
<title>Node12&#45;&gt;Node13</title>
<path fill="none" stroke="midnightblue" d="M450.12,-48C458.65,-48 467.33,-48 475.77,-48"/>
<polygon fill="midnightblue" stroke="midnightblue" points="475.91,-51.5 485.91,-48 475.91,-44.5 475.91,-51.5"/>
</g>
<!-- Node14 -->
<g id="node14" class="node">
<title>Node14</title>
<g id="a_node14"><a xlink:href="exif-tag_8c.html#a87563ee64809f5f0deb4d780098508c1" target="_top" xlink:title="Return the number of entries in the EXIF tag table, including the terminating NULL entry.">
<polygon fill="white" stroke="black" points="633,-57.5 633,-76.5 752,-76.5 752,-57.5 633,-57.5"/>
<text text-anchor="middle" x="692.5" y="-64.5" font-family="Helvetica,sans-Serif" font-size="10.00">exif_tag_table_count</text>
</a>
</g>
</g>
<!-- Node13&#45;&gt;Node14 -->
<g id="edge13" class="edge">
<title>Node13&#45;&gt;Node14</title>
<path fill="none" stroke="midnightblue" d="M597.14,-54.97C605.49,-56.03 614.21,-57.14 622.82,-58.24"/>
<polygon fill="midnightblue" stroke="midnightblue" points="622.5,-61.73 632.86,-59.52 623.38,-54.79 622.5,-61.73"/>
</g>
<!-- Node15 -->
<g id="node15" class="node">
<title>Node15</title>
<g id="a_node15"><a xlink:href="exif-tag_8c.html#a220c1b18832f113bc84ff9551754915f" target="_top" xlink:title="Compares the tag with that in entry.">
<polygon fill="white" stroke="black" points="658.5,-19.5 658.5,-38.5 726.5,-38.5 726.5,-19.5 658.5,-19.5"/>
<text text-anchor="middle" x="692.5" y="-26.5" font-family="Helvetica,sans-Serif" font-size="10.00">match_tag</text>
</a>
</g>
</g>
<!-- Node13&#45;&gt;Node15 -->
<g id="edge14" class="edge">
<title>Node13&#45;&gt;Node15</title>
<path fill="none" stroke="midnightblue" d="M597.14,-41.03C613.9,-38.9 632.1,-36.57 648.01,-34.55"/>
<polygon fill="midnightblue" stroke="midnightblue" points="648.62,-38 658.1,-33.26 647.74,-31.05 648.62,-38"/>
</g>
</g>
</svg>
