<?xml version="1.0" encoding="UTF-8" standalone="no"?>
<!DOCTYPE svg PUBLIC "-//W3C//DTD SVG 1.1//EN"
 "http://www.w3.org/Graphics/SVG/1.1/DTD/svg11.dtd">
<!-- Generated by graphviz version 7.0.1 (0)
 -->
<!-- Title: libexif/exif&#45;loader.h Pages: 1 -->
<svg width="698pt" height="368pt"
 viewBox="0.00 0.00 698.00 368.00" xmlns="http://www.w3.org/2000/svg" xmlns:xlink="http://www.w3.org/1999/xlink">
<g id="graph0" class="graph" transform="scale(1 1) rotate(0) translate(4 364)">
<title>libexif/exif&#45;loader.h</title>
<!-- Node1 -->
<g id="Node000001" class="node">
<title>Node1</title>
<g id="a_Node000001"><a xlink:title="Defines the ExifLoader type.">
<polygon fill="#999999" stroke="#666666" points="220,-360 109,-360 109,-341 220,-341 220,-360"/>
<text text-anchor="middle" x="164.5" y="-348" font-family="Helvetica,sans-Serif" font-size="10.00">libexif/exif&#45;loader.h</text>
</a>
</g>
</g>
<!-- Node2 -->
<g id="Node000002" class="node">
<title>Node2</title>
<g id="a_Node000002"><a xlink:href="exif-data_8h.html" target="_top" xlink:title="Defines the ExifData type and the associated functions.">
<polygon fill="white" stroke="#666666" points="397.5,-305 295.5,-305 295.5,-286 397.5,-286 397.5,-305"/>
<text text-anchor="middle" x="346.5" y="-293" font-family="Helvetica,sans-Serif" font-size="10.00">libexif/exif&#45;data.h</text>
</a>
</g>
</g>
<!-- Node1&#45;&gt;Node2 -->
<g id="edge1_Node000001_Node000002" class="edge">
<title>Node1&#45;&gt;Node2</title>
<g id="a_edge1_Node000001_Node000002"><a xlink:title=" ">
<path fill="none" stroke="#63b8ff" d="M195.37,-340.51C225.53,-331.73 271.64,-318.3 305,-308.59"/>
<polygon fill="#63b8ff" stroke="#63b8ff" points="305.7,-312.03 314.33,-305.87 303.75,-305.31 305.7,-312.03"/>
</a>
</g>
</g>
<!-- Node6 -->
<g id="Node000006" class="node">
<title>Node6</title>
<g id="a_Node000006"><a xlink:href="exif-log_8h.html" target="_top" xlink:title="Log message infrastructure.">
<polygon fill="white" stroke="#666666" points="299,-184 204,-184 204,-165 299,-165 299,-184"/>
<text text-anchor="middle" x="251.5" y="-172" font-family="Helvetica,sans-Serif" font-size="10.00">libexif/exif&#45;log.h</text>
</a>
</g>
</g>
<!-- Node1&#45;&gt;Node6 -->
<g id="edge27_Node000001_Node000006" class="edge">
<title>Node1&#45;&gt;Node6</title>
<g id="a_edge27_Node000001_Node000006"><a xlink:title=" ">
<path fill="none" stroke="#63b8ff" d="M166.74,-340.55C172.4,-318.82 188.65,-262 213.5,-220 219.3,-210.2 227.31,-200.44 234.48,-192.58"/>
<polygon fill="#63b8ff" stroke="#63b8ff" points="236.93,-195.08 241.29,-185.42 231.86,-190.25 236.93,-195.08"/>
</a>
</g>
</g>
<!-- Node7 -->
<g id="Node000007" class="node">
<title>Node7</title>
<g id="a_Node000007"><a xlink:href="exif-mem_8h.html" target="_top" xlink:title="Define the ExifMem data type and the associated functions.">
<polygon fill="white" stroke="#666666" points="257.5,-129 151.5,-129 151.5,-110 257.5,-110 257.5,-129"/>
<text text-anchor="middle" x="204.5" y="-117" font-family="Helvetica,sans-Serif" font-size="10.00">libexif/exif&#45;mem.h</text>
</a>
</g>
</g>
<!-- Node1&#45;&gt;Node7 -->
<g id="edge28_Node000001_Node000007" class="edge">
<title>Node1&#45;&gt;Node7</title>
<g id="a_edge28_Node000001_Node000007"><a xlink:title=" ">
<path fill="none" stroke="#63b8ff" d="M165.11,-340.56C167.05,-313.68 173.96,-231.41 189.5,-165 191.45,-156.66 194.32,-147.68 197.04,-139.98"/>
<polygon fill="#63b8ff" stroke="#63b8ff" points="200.3,-141.23 200.48,-130.64 193.74,-138.81 200.3,-141.23"/>
</a>
</g>
</g>
<!-- Node3 -->
<g id="Node000003" class="node">
<title>Node3</title>
<g id="a_Node000003"><a xlink:href="exif-byte-order_8h.html" target="_top" xlink:title="Defines the ExifByteOrder enum and the associated functions.">
<polygon fill="white" stroke="#666666" points="131,-19 0,-19 0,0 131,0 131,-19"/>
<text text-anchor="middle" x="65.5" y="-7" font-family="Helvetica,sans-Serif" font-size="10.00">libexif/exif&#45;byte&#45;order.h</text>
</a>
</g>
</g>
<!-- Node2&#45;&gt;Node3 -->
<g id="edge2_Node000002_Node000003" class="edge">
<title>Node2&#45;&gt;Node3</title>
<g id="a_edge2_Node000002_Node000003"><a xlink:title=" ">
<path fill="none" stroke="#63b8ff" d="M298.61,-285.54C214.84,-268.5 50.5,-228.32 50.5,-175.5 50.5,-175.5 50.5,-175.5 50.5,-118.5 50.5,-87.63 56.59,-52.26 61.01,-30.66"/>
<polygon fill="#63b8ff" stroke="#63b8ff" points="64.43,-31.39 63.1,-20.88 57.58,-29.93 64.43,-31.39"/>
</a>
</g>
</g>
<!-- Node4 -->
<g id="Node000004" class="node">
<title>Node4</title>
<g id="a_Node000004"><a xlink:href="exif-data-type_8h.html" target="_top" xlink:title=" ">
<polygon fill="white" stroke="#666666" points="567.5,-129 439.5,-129 439.5,-110 567.5,-110 567.5,-129"/>
<text text-anchor="middle" x="503.5" y="-117" font-family="Helvetica,sans-Serif" font-size="10.00">libexif/exif&#45;data&#45;type.h</text>
</a>
</g>
</g>
<!-- Node2&#45;&gt;Node4 -->
<g id="edge3_Node000002_Node000004" class="edge">
<title>Node2&#45;&gt;Node4</title>
<g id="a_edge3_Node000002_Node000004"><a xlink:title=" ">
<path fill="none" stroke="#63b8ff" d="M397.76,-289.38C425.23,-283.96 457.45,-272.83 477.5,-250 504.41,-219.36 506.48,-168.8 505.24,-140.78"/>
<polygon fill="#63b8ff" stroke="#63b8ff" points="508.73,-140.59 504.58,-130.84 501.75,-141.05 508.73,-140.59"/>
</a>
</g>
</g>
<!-- Node5 -->
<g id="Node000005" class="node">
<title>Node5</title>
<g id="a_Node000005"><a xlink:href="exif-ifd_8h.html" target="_top" xlink:title=" ">
<polygon fill="white" stroke="#666666" points="690,-129 597,-129 597,-110 690,-110 690,-129"/>
<text text-anchor="middle" x="643.5" y="-117" font-family="Helvetica,sans-Serif" font-size="10.00">libexif/exif&#45;ifd.h</text>
</a>
</g>
</g>
<!-- Node2&#45;&gt;Node5 -->
<g id="edge4_Node000002_Node000005" class="edge">
<title>Node2&#45;&gt;Node5</title>
<g id="a_edge4_Node000002_Node000005"><a xlink:title=" ">
<path fill="none" stroke="#63b8ff" d="M397.64,-288.71C438.1,-282.76 495.29,-271.26 541.5,-250 586.24,-229.42 604.04,-225.53 630.5,-184 638.75,-171.05 641.9,-153.88 643.04,-140.65"/>
<polygon fill="#63b8ff" stroke="#63b8ff" points="646.52,-141.13 643.54,-130.96 639.53,-140.77 646.52,-141.13"/>
</a>
</g>
</g>
<!-- Node2&#45;&gt;Node6 -->
<g id="edge5_Node000002_Node000006" class="edge">
<title>Node2&#45;&gt;Node6</title>
<g id="a_edge5_Node000002_Node000006"><a xlink:title=" ">
<path fill="none" stroke="#63b8ff" d="M295.16,-290.01C268.53,-284.78 238.17,-273.62 221.5,-250 209,-232.29 222.75,-208.61 235.48,-192.74"/>
<polygon fill="#63b8ff" stroke="#63b8ff" points="237.79,-195.42 241.66,-185.56 232.48,-190.86 237.79,-195.42"/>
</a>
</g>
</g>
<!-- Node2&#45;&gt;Node7 -->
<g id="edge26_Node000002_Node000007" class="edge">
<title>Node2&#45;&gt;Node7</title>
<g id="a_edge26_Node000002_Node000007"><a xlink:title=" ">
<path fill="none" stroke="#63b8ff" d="M295.19,-288.93C267.54,-283.36 234.81,-272.24 213.5,-250 186.72,-222.05 190.23,-203.47 194.5,-165 195.41,-156.83 197.22,-147.98 199.06,-140.33"/>
<polygon fill="#63b8ff" stroke="#63b8ff" points="202.42,-141.29 201.55,-130.73 195.65,-139.53 202.42,-141.29"/>
</a>
</g>
</g>
<!-- Node12 -->
<g id="Node000012" class="node">
<title>Node12</title>
<g id="a_Node000012"><a xlink:href="exif-tag_8h.html" target="_top" xlink:title="Handling EXIF tags.">
<polygon fill="white" stroke="#666666" points="621.5,-184 525.5,-184 525.5,-165 621.5,-165 621.5,-184"/>
<text text-anchor="middle" x="573.5" y="-172" font-family="Helvetica,sans-Serif" font-size="10.00">libexif/exif&#45;tag.h</text>
</a>
</g>
</g>
<!-- Node2&#45;&gt;Node12 -->
<g id="edge12_Node000002_Node000012" class="edge">
<title>Node2&#45;&gt;Node12</title>
<g id="a_edge12_Node000002_Node000012"><a xlink:title=" ">
<path fill="none" stroke="#63b8ff" d="M397.76,-288.88C432.1,-283.22 477.16,-272.02 511.5,-250 533.79,-235.71 552.1,-210.84 562.9,-193.8"/>
<polygon fill="#63b8ff" stroke="#63b8ff" points="565.65,-196.02 567.84,-185.66 559.66,-192.39 565.65,-196.02"/>
</a>
</g>
</g>
<!-- Node13 -->
<g id="Node000013" class="node">
<title>Node13</title>
<g id="a_Node000013"><a xlink:href="exif-content_8h.html" target="_top" xlink:title="Handling EXIF IFDs.">
<polygon fill="white" stroke="#666666" points="469,-244.5 352,-244.5 352,-225.5 469,-225.5 469,-244.5"/>
<text text-anchor="middle" x="410.5" y="-232.5" font-family="Helvetica,sans-Serif" font-size="10.00">libexif/exif&#45;content.h</text>
</a>
</g>
</g>
<!-- Node2&#45;&gt;Node13 -->
<g id="edge15_Node000002_Node000013" class="edge">
<title>Node2&#45;&gt;Node13</title>
<g id="a_edge15_Node000002_Node000013"><a xlink:title=" ">
<path fill="none" stroke="#63b8ff" d="M350.99,-285.87C358.83,-276.93 373.95,-262.78 387.11,-251.82"/>
<polygon fill="#63b8ff" stroke="#63b8ff" points="389.01,-254.79 394.62,-245.81 384.63,-249.33 389.01,-254.79"/>
</a>
</g>
</g>
<!-- Node15 -->
<g id="Node000015" class="node">
<title>Node15</title>
<g id="a_Node000015"><a xlink:href="exif-mnote-data_8h.html" target="_top" xlink:title="Handling EXIF MakerNote tags.">
<polygon fill="white" stroke="#666666" points="334,-250 231,-250 231,-220 334,-220 334,-250"/>
<text text-anchor="start" x="239" y="-238" font-family="Helvetica,sans-Serif" font-size="10.00">libexif/exif&#45;mnote</text>
<text text-anchor="middle" x="282.5" y="-227" font-family="Helvetica,sans-Serif" font-size="10.00">&#45;data.h</text>
</a>
</g>
</g>
<!-- Node2&#45;&gt;Node15 -->
<g id="edge24_Node000002_Node000015" class="edge">
<title>Node2&#45;&gt;Node15</title>
<g id="a_edge24_Node000002_Node000015"><a xlink:title=" ">
<path fill="none" stroke="#63b8ff" d="M336.78,-285.62C328.8,-278.32 317.16,-267.68 306.7,-258.12"/>
<polygon fill="#63b8ff" stroke="#63b8ff" points="309.16,-255.62 299.41,-251.46 304.43,-260.79 309.16,-255.62"/>
</a>
</g>
</g>
<!-- Node6&#45;&gt;Node7 -->
<g id="edge6_Node000006_Node000007" class="edge">
<title>Node6&#45;&gt;Node7</title>
<g id="a_edge6_Node000006_Node000007"><a xlink:title=" ">
<path fill="none" stroke="#63b8ff" d="M243.74,-164.75C237.31,-157.5 227.99,-146.98 220.04,-138.02"/>
<polygon fill="#63b8ff" stroke="#63b8ff" points="222.69,-135.73 213.43,-130.57 217.45,-140.38 222.69,-135.73"/>
</a>
</g>
</g>
<!-- Node11 -->
<g id="Node000011" class="node">
<title>Node11</title>
<g id="a_Node000011"><a xlink:title=" ">
<polygon fill="#e0e0e0" stroke="#999999" points="331.5,-129 275.5,-129 275.5,-110 331.5,-110 331.5,-129"/>
<text text-anchor="middle" x="303.5" y="-117" font-family="Helvetica,sans-Serif" font-size="10.00">stdarg.h</text>
</a>
</g>
</g>
<!-- Node6&#45;&gt;Node11 -->
<g id="edge11_Node000006_Node000011" class="edge">
<title>Node6&#45;&gt;Node11</title>
<g id="a_edge11_Node000006_Node000011"><a xlink:title=" ">
<path fill="none" stroke="#63b8ff" d="M260.09,-164.75C267.34,-157.35 277.95,-146.54 286.87,-137.45"/>
<polygon fill="#63b8ff" stroke="#63b8ff" points="289.16,-140.11 293.67,-130.52 284.16,-135.21 289.16,-140.11"/>
</a>
</g>
</g>
<!-- Node8 -->
<g id="Node000008" class="node">
<title>Node8</title>
<g id="a_Node000008"><a xlink:href="exif-utils_8h.html" target="_top" xlink:title="EXIF data manipulation functions and types.">
<polygon fill="white" stroke="#666666" points="255,-74 154,-74 154,-55 255,-55 255,-74"/>
<text text-anchor="middle" x="204.5" y="-62" font-family="Helvetica,sans-Serif" font-size="10.00">libexif/exif&#45;utils.h</text>
</a>
</g>
</g>
<!-- Node7&#45;&gt;Node8 -->
<g id="edge7_Node000007_Node000008" class="edge">
<title>Node7&#45;&gt;Node8</title>
<g id="a_edge7_Node000007_Node000008"><a xlink:title=" ">
<path fill="none" stroke="#63b8ff" d="M204.5,-109.75C204.5,-103.27 204.5,-94.16 204.5,-85.9"/>
<polygon fill="#63b8ff" stroke="#63b8ff" points="208,-85.96 204.5,-75.96 201,-85.96 208,-85.96"/>
</a>
</g>
</g>
<!-- Node8&#45;&gt;Node3 -->
<g id="edge8_Node000008_Node000003" class="edge">
<title>Node8&#45;&gt;Node3</title>
<g id="a_edge8_Node000008_Node000003"><a xlink:title=" ">
<path fill="none" stroke="#63b8ff" d="M180.92,-54.51C158.52,-45.97 124.6,-33.03 99.32,-23.4"/>
<polygon fill="#63b8ff" stroke="#63b8ff" points="100.74,-20.19 90.15,-19.9 98.24,-26.73 100.74,-20.19"/>
</a>
</g>
</g>
<!-- Node9 -->
<g id="Node000009" class="node">
<title>Node9</title>
<g id="a_Node000009"><a xlink:href="exif-format_8h.html" target="_top" xlink:title="Handling native EXIF data types.">
<polygon fill="white" stroke="#666666" points="417,-19 304,-19 304,0 417,0 417,-19"/>
<text text-anchor="middle" x="360.5" y="-7" font-family="Helvetica,sans-Serif" font-size="10.00">libexif/exif&#45;format.h</text>
</a>
</g>
</g>
<!-- Node8&#45;&gt;Node9 -->
<g id="edge9_Node000008_Node000009" class="edge">
<title>Node8&#45;&gt;Node9</title>
<g id="a_edge9_Node000008_Node000009"><a xlink:title=" ">
<path fill="none" stroke="#63b8ff" d="M230.96,-54.51C256.36,-45.88 294.97,-32.76 323.42,-23.1"/>
<polygon fill="#63b8ff" stroke="#63b8ff" points="324.39,-26.46 332.73,-19.93 322.14,-19.84 324.39,-26.46"/>
</a>
</g>
</g>
<!-- Node10 -->
<g id="Node000010" class="node">
<title>Node10</title>
<g id="a_Node000010"><a xlink:title=" ">
<polygon fill="#e0e0e0" stroke="#999999" points="250.5,-19 158.5,-19 158.5,0 250.5,0 250.5,-19"/>
<text text-anchor="middle" x="204.5" y="-7" font-family="Helvetica,sans-Serif" font-size="10.00">libexif/_stdint.h</text>
</a>
</g>
</g>
<!-- Node8&#45;&gt;Node10 -->
<g id="edge10_Node000008_Node000010" class="edge">
<title>Node8&#45;&gt;Node10</title>
<g id="a_edge10_Node000008_Node000010"><a xlink:title=" ">
<path fill="none" stroke="#63b8ff" d="M204.5,-54.75C204.5,-48.27 204.5,-39.16 204.5,-30.9"/>
<polygon fill="#63b8ff" stroke="#63b8ff" points="208,-30.96 204.5,-20.96 201,-30.96 208,-30.96"/>
</a>
</g>
</g>
<!-- Node12&#45;&gt;Node4 -->
<g id="edge14_Node000012_Node000004" class="edge">
<title>Node12&#45;&gt;Node4</title>
<g id="a_edge14_Node000012_Node000004"><a xlink:title=" ">
<path fill="none" stroke="#63b8ff" d="M561.63,-164.51C551.41,-156.77 536.43,-145.43 524.24,-136.2"/>
<polygon fill="#63b8ff" stroke="#63b8ff" points="526.49,-133.52 516.41,-130.27 522.27,-139.1 526.49,-133.52"/>
</a>
</g>
</g>
<!-- Node12&#45;&gt;Node5 -->
<g id="edge13_Node000012_Node000005" class="edge">
<title>Node12&#45;&gt;Node5</title>
<g id="a_edge13_Node000012_Node000005"><a xlink:title=" ">
<path fill="none" stroke="#63b8ff" d="M585.37,-164.51C595.59,-156.77 610.57,-145.43 622.76,-136.2"/>
<polygon fill="#63b8ff" stroke="#63b8ff" points="624.73,-139.1 630.59,-130.27 620.51,-133.52 624.73,-139.1"/>
</a>
</g>
</g>
<!-- Node13&#45;&gt;Node2 -->
<g id="edge21_Node000013_Node000002" class="edge">
<title>Node13&#45;&gt;Node2</title>
<g id="a_edge21_Node000013_Node000002"><a xlink:title=" ">
<path fill="none" stroke="#63b8ff" d="M405.72,-244.97C397.86,-253.85 383.13,-267.64 370.2,-278.41"/>
<polygon fill="#63b8ff" stroke="#63b8ff" points="368.02,-275.68 362.41,-284.67 372.4,-281.14 368.02,-275.68"/>
</a>
</g>
</g>
<!-- Node13&#45;&gt;Node6 -->
<g id="edge22_Node000013_Node000006" class="edge">
<title>Node13&#45;&gt;Node6</title>
<g id="a_edge22_Node000013_Node000006"><a xlink:title=" ">
<path fill="none" stroke="#63b8ff" d="M386.35,-225.12C359.74,-215.32 316.69,-199.48 286.4,-188.34"/>
<polygon fill="#63b8ff" stroke="#63b8ff" points="287.89,-185.16 277.3,-184.99 285.47,-191.73 287.89,-185.16"/>
</a>
</g>
</g>
<!-- Node13&#45;&gt;Node7 -->
<g id="edge23_Node000013_Node000007" class="edge">
<title>Node13&#45;&gt;Node7</title>
<g id="a_edge23_Node000013_Node000007"><a xlink:title=" ">
<path fill="none" stroke="#63b8ff" d="M398.89,-225.19C380.27,-211.31 342.27,-183.95 307.5,-165 285.42,-152.97 259.42,-141.75 239.06,-133.59"/>
<polygon fill="#63b8ff" stroke="#63b8ff" points="240.39,-130.35 229.8,-129.94 237.82,-136.87 240.39,-130.35"/>
</a>
</g>
</g>
<!-- Node13&#45;&gt;Node12 -->
<g id="edge16_Node000013_Node000012" class="edge">
<title>Node13&#45;&gt;Node12</title>
<g id="a_edge16_Node000013_Node000012"><a xlink:title=" ">
<path fill="none" stroke="#63b8ff" d="M435.26,-225.12C462.54,-215.32 506.67,-199.48 537.72,-188.34"/>
<polygon fill="#63b8ff" stroke="#63b8ff" points="538.86,-191.65 547.09,-184.98 536.49,-185.06 538.86,-191.65"/>
</a>
</g>
</g>
<!-- Node14 -->
<g id="Node000014" class="node">
<title>Node14</title>
<g id="a_Node000014"><a xlink:href="exif-entry_8h.html" target="_top" xlink:title="Handling EXIF entries.">
<polygon fill="white" stroke="#666666" points="460.5,-184 356.5,-184 356.5,-165 460.5,-165 460.5,-184"/>
<text text-anchor="middle" x="408.5" y="-172" font-family="Helvetica,sans-Serif" font-size="10.00">libexif/exif&#45;entry.h</text>
</a>
</g>
</g>
<!-- Node13&#45;&gt;Node14 -->
<g id="edge17_Node000013_Node000014" class="edge">
<title>Node13&#45;&gt;Node14</title>
<g id="a_edge17_Node000013_Node000014"><a xlink:title=" ">
<path fill="none" stroke="#63b8ff" d="M405.25,-225.37C403.28,-217.5 402.38,-205.6 402.75,-195.39"/>
<polygon fill="#63b8ff" stroke="#63b8ff" points="406.21,-195.96 403.69,-185.67 399.24,-195.29 406.21,-195.96"/>
</a>
</g>
</g>
<!-- Node14&#45;&gt;Node7 -->
<g id="edge20_Node000014_Node000007" class="edge">
<title>Node14&#45;&gt;Node7</title>
<g id="a_edge20_Node000014_Node000007"><a xlink:title=" ">
<path fill="none" stroke="#63b8ff" d="M373.89,-164.51C339.79,-155.65 287.51,-142.07 250.05,-132.33"/>
<polygon fill="#63b8ff" stroke="#63b8ff" points="250.96,-128.95 240.4,-129.83 249.2,-135.73 250.96,-128.95"/>
</a>
</g>
</g>
<!-- Node14&#45;&gt;Node9 -->
<g id="edge19_Node000014_Node000009" class="edge">
<title>Node14&#45;&gt;Node9</title>
<g id="a_edge19_Node000014_Node000009"><a xlink:title=" ">
<path fill="none" stroke="#63b8ff" d="M405.92,-164.74C398.46,-139.42 376.76,-65.72 366.29,-30.16"/>
<polygon fill="#63b8ff" stroke="#63b8ff" points="369.7,-29.36 363.52,-20.76 362.99,-31.34 369.7,-29.36"/>
</a>
</g>
</g>
<!-- Node14&#45;&gt;Node13 -->
<g id="edge18_Node000014_Node000013" class="edge">
<title>Node14&#45;&gt;Node13</title>
<g id="a_edge18_Node000014_Node000013"><a xlink:title=" ">
<path fill="none" stroke="#63b8ff" d="M413.76,-184.17C415.72,-192.04 416.62,-203.95 416.25,-214.16"/>
<polygon fill="#63b8ff" stroke="#63b8ff" points="412.79,-213.57 415.31,-223.86 419.76,-214.25 412.79,-213.57"/>
</a>
</g>
</g>
<!-- Node15&#45;&gt;Node6 -->
<g id="edge25_Node000015_Node000006" class="edge">
<title>Node15&#45;&gt;Node6</title>
<g id="a_edge25_Node000015_Node000006"><a xlink:title=" ">
<path fill="none" stroke="#63b8ff" d="M274.84,-219.54C270.79,-211.91 265.79,-202.46 261.45,-194.27"/>
<polygon fill="#63b8ff" stroke="#63b8ff" points="264.58,-192.71 256.81,-185.51 258.4,-195.99 264.58,-192.71"/>
</a>
</g>
</g>
</g>
</svg>
