<?xml version="1.0" encoding="UTF-8" standalone="no"?>
<!DOCTYPE svg PUBLIC "-//W3C//DTD SVG 1.1//EN"
 "http://www.w3.org/Graphics/SVG/1.1/DTD/svg11.dtd">
<!-- Generated by graphviz version 2.44.1 (0)
 -->
<!-- Title: exif_mnote_data_pentax_save Pages: 1 -->
<svg width="457pt" height="218pt"
 viewBox="0.00 0.00 457.00 218.00" xmlns="http://www.w3.org/2000/svg" xmlns:xlink="http://www.w3.org/1999/xlink">
<g id="graph0" class="graph" transform="scale(1 1) rotate(0) translate(4 214)">
<title>exif_mnote_data_pentax_save</title>
<polygon fill="white" stroke="transparent" points="-4,4 -4,-214 453,-214 453,4 -4,4"/>
<!-- Node1 -->
<g id="node1" class="node">
<title>Node1</title>
<g id="a_node1"><a xlink:title="save the MnoteData from ne to buf">
<polygon fill="#bfbfbf" stroke="black" points="0,-95.5 0,-114.5 167,-114.5 167,-95.5 0,-95.5"/>
<text text-anchor="middle" x="83.5" y="-102.5" font-family="Helvetica,sans-Serif" font-size="10.00">exif_mnote_data_pentax_save</text>
</a>
</g>
</g>
<!-- Node2 -->
<g id="node2" class="node">
<title>Node2</title>
<g id="a_node2"><a xlink:href="exif-format_8c.html#a924038efe0cd8ebade8f44619dd794f3" target="_top" xlink:title="Return the raw size of the given EXIF data type.">
<polygon fill="white" stroke="black" points="203,-190.5 203,-209.5 322,-209.5 322,-190.5 203,-190.5"/>
<text text-anchor="middle" x="262.5" y="-197.5" font-family="Helvetica,sans-Serif" font-size="10.00">exif_format_get_size</text>
</a>
</g>
</g>
<!-- Node1&#45;&gt;Node2 -->
<g id="edge1" class="edge">
<title>Node1&#45;&gt;Node2</title>
<path fill="none" stroke="midnightblue" d="M97.02,-114.58C117.97,-130.24 161.91,-161.55 203,-181 207.65,-183.2 212.61,-185.24 217.62,-187.11"/>
<polygon fill="midnightblue" stroke="midnightblue" points="216.61,-190.47 227.21,-190.49 218.94,-183.87 216.61,-190.47"/>
</g>
<!-- Node3 -->
<g id="node3" class="node">
<title>Node3</title>
<g id="a_node3"><a xlink:href="exif-log_8c.html#a025d4a5d96544913ea6f6ebbec69cb68" target="_top" xlink:title=" ">
<polygon fill="white" stroke="black" points="234.5,-152.5 234.5,-171.5 290.5,-171.5 290.5,-152.5 234.5,-152.5"/>
<text text-anchor="middle" x="262.5" y="-159.5" font-family="Helvetica,sans-Serif" font-size="10.00">exif_log</text>
</a>
</g>
</g>
<!-- Node1&#45;&gt;Node3 -->
<g id="edge2" class="edge">
<title>Node1&#45;&gt;Node3</title>
<path fill="none" stroke="midnightblue" d="M114.13,-114.54C144.54,-124.33 191.93,-139.6 224.72,-150.16"/>
<polygon fill="midnightblue" stroke="midnightblue" points="223.8,-153.54 234.39,-153.27 225.95,-146.87 223.8,-153.54"/>
</g>
<!-- Node5 -->
<g id="node5" class="node">
<title>Node5</title>
<g id="a_node5"><a xlink:href="exif-mem_8c.html#ae8c09cfbcb95e435c4c4b7ec3bbd79e4" target="_top" xlink:title=" ">
<polygon fill="white" stroke="black" points="215,-114.5 215,-133.5 310,-133.5 310,-114.5 215,-114.5"/>
<text text-anchor="middle" x="262.5" y="-121.5" font-family="Helvetica,sans-Serif" font-size="10.00">exif_mem_alloc</text>
</a>
</g>
</g>
<!-- Node1&#45;&gt;Node5 -->
<g id="edge4" class="edge">
<title>Node1&#45;&gt;Node5</title>
<path fill="none" stroke="midnightblue" d="M167.04,-113.86C179.73,-115.22 192.58,-116.6 204.54,-117.89"/>
<polygon fill="midnightblue" stroke="midnightblue" points="204.49,-121.4 214.8,-118.99 205.24,-114.44 204.49,-121.4"/>
</g>
<!-- Node6 -->
<g id="node6" class="node">
<title>Node6</title>
<g id="a_node6"><a xlink:href="exif-mem_8c.html#a3dcfe6794d82e79e92da5e2c62484b17" target="_top" xlink:title=" ">
<polygon fill="white" stroke="black" points="210.5,-76.5 210.5,-95.5 314.5,-95.5 314.5,-76.5 210.5,-76.5"/>
<text text-anchor="middle" x="262.5" y="-83.5" font-family="Helvetica,sans-Serif" font-size="10.00">exif_mem_realloc</text>
</a>
</g>
</g>
<!-- Node1&#45;&gt;Node6 -->
<g id="edge5" class="edge">
<title>Node1&#45;&gt;Node6</title>
<path fill="none" stroke="midnightblue" d="M167.04,-96.14C178.24,-94.94 189.57,-93.72 200.31,-92.57"/>
<polygon fill="midnightblue" stroke="midnightblue" points="200.82,-96.03 210.39,-91.49 200.08,-89.07 200.82,-96.03"/>
</g>
<!-- Node7 -->
<g id="node7" class="node">
<title>Node7</title>
<g id="a_node7"><a xlink:href="exif-utils_8c.html#ac90147d0cc97bec7a577bf9576191bf8" target="_top" xlink:title="Store an ExifLong value into memory in EXIF format.">
<polygon fill="white" stroke="black" points="221.5,-38.5 221.5,-57.5 303.5,-57.5 303.5,-38.5 221.5,-38.5"/>
<text text-anchor="middle" x="262.5" y="-45.5" font-family="Helvetica,sans-Serif" font-size="10.00">exif_set_long</text>
</a>
</g>
</g>
<!-- Node1&#45;&gt;Node7 -->
<g id="edge6" class="edge">
<title>Node1&#45;&gt;Node7</title>
<path fill="none" stroke="midnightblue" d="M114.13,-95.46C143.74,-85.92 189.44,-71.21 222.09,-60.69"/>
<polygon fill="midnightblue" stroke="midnightblue" points="223.33,-63.97 231.78,-57.57 221.19,-57.31 223.33,-63.97"/>
</g>
<!-- Node9 -->
<g id="node9" class="node">
<title>Node9</title>
<g id="a_node9"><a xlink:href="exif-utils_8c.html#ad905d16e26b4052a1db34dbebdc37341" target="_top" xlink:title="Store an ExifShort value into memory in EXIF format.">
<polygon fill="white" stroke="black" points="219.5,-0.5 219.5,-19.5 305.5,-19.5 305.5,-0.5 219.5,-0.5"/>
<text text-anchor="middle" x="262.5" y="-7.5" font-family="Helvetica,sans-Serif" font-size="10.00">exif_set_short</text>
</a>
</g>
</g>
<!-- Node1&#45;&gt;Node9 -->
<g id="edge8" class="edge">
<title>Node1&#45;&gt;Node9</title>
<path fill="none" stroke="midnightblue" d="M97.02,-95.42C117.97,-79.76 161.91,-48.45 203,-29 207.65,-26.8 212.61,-24.76 217.62,-22.89"/>
<polygon fill="midnightblue" stroke="midnightblue" points="218.94,-26.13 227.21,-19.51 216.61,-19.53 218.94,-26.13"/>
</g>
<!-- Node4 -->
<g id="node4" class="node">
<title>Node4</title>
<g id="a_node4"><a xlink:href="exif-log_8c.html#a99101b5ad01b2d82ce9d43c9e8534627" target="_top" xlink:title=" ">
<polygon fill="white" stroke="black" points="372.5,-152.5 372.5,-171.5 434.5,-171.5 434.5,-152.5 372.5,-152.5"/>
<text text-anchor="middle" x="403.5" y="-159.5" font-family="Helvetica,sans-Serif" font-size="10.00">exif_logv</text>
</a>
</g>
</g>
<!-- Node3&#45;&gt;Node4 -->
<g id="edge3" class="edge">
<title>Node3&#45;&gt;Node4</title>
<path fill="none" stroke="midnightblue" d="M290.63,-162C310.91,-162 338.97,-162 361.92,-162"/>
<polygon fill="midnightblue" stroke="midnightblue" points="362.05,-165.5 372.05,-162 362.05,-158.5 362.05,-165.5"/>
</g>
<!-- Node8 -->
<g id="node8" class="node">
<title>Node8</title>
<g id="a_node8"><a xlink:href="exif-utils_8c.html#ae6e3b9d1663f9ab9bd462d73a310ca03" target="_top" xlink:title="Store an ExifSLong value into memory in EXIF format.">
<polygon fill="white" stroke="black" points="360,-38.5 360,-57.5 447,-57.5 447,-38.5 360,-38.5"/>
<text text-anchor="middle" x="403.5" y="-45.5" font-family="Helvetica,sans-Serif" font-size="10.00">exif_set_slong</text>
</a>
</g>
</g>
<!-- Node7&#45;&gt;Node8 -->
<g id="edge7" class="edge">
<title>Node7&#45;&gt;Node8</title>
<path fill="none" stroke="midnightblue" d="M303.7,-48C318.04,-48 334.4,-48 349.64,-48"/>
<polygon fill="midnightblue" stroke="midnightblue" points="349.96,-51.5 359.96,-48 349.96,-44.5 349.96,-51.5"/>
</g>
<!-- Node10 -->
<g id="node10" class="node">
<title>Node10</title>
<g id="a_node10"><a xlink:href="exif-utils_8c.html#a6504651147702fc6db9a5cd4aa997023" target="_top" xlink:title="Store an ExifSShort value into memory in EXIF format.">
<polygon fill="white" stroke="black" points="358,-0.5 358,-19.5 449,-19.5 449,-0.5 358,-0.5"/>
<text text-anchor="middle" x="403.5" y="-7.5" font-family="Helvetica,sans-Serif" font-size="10.00">exif_set_sshort</text>
</a>
</g>
</g>
<!-- Node9&#45;&gt;Node10 -->
<g id="edge9" class="edge">
<title>Node9&#45;&gt;Node10</title>
<path fill="none" stroke="midnightblue" d="M305.58,-10C318.83,-10 333.66,-10 347.65,-10"/>
<polygon fill="midnightblue" stroke="midnightblue" points="347.66,-13.5 357.66,-10 347.66,-6.5 347.66,-13.5"/>
</g>
</g>
</svg>
