<?xml version="1.0" encoding="UTF-8" standalone="no"?>
<!DOCTYPE svg PUBLIC "-//W3C//DTD SVG 1.1//EN"
 "http://www.w3.org/Graphics/SVG/1.1/DTD/svg11.dtd">
<!-- Generated by graphviz version 7.0.1 (0)
 -->
<!-- Title: libexif/pentax/exif&#45;mnote&#45;data&#45;pentax.c Pages: 1 -->
<svg width="1081pt" height="467pt"
 viewBox="0.00 0.00 1081.00 467.00" xmlns="http://www.w3.org/2000/svg" xmlns:xlink="http://www.w3.org/1999/xlink">
<g id="graph0" class="graph" transform="scale(1 1) rotate(0) translate(4 463)">
<title>libexif/pentax/exif&#45;mnote&#45;data&#45;pentax.c</title>
<!-- Node1 -->
<g id="Node000001" class="node">
<title>Node1</title>
<g id="a_Node000001"><a xlink:title=" ">
<polygon fill="#999999" stroke="#666666" points="913.5,-459 790.5,-459 790.5,-429 913.5,-429 913.5,-459"/>
<text text-anchor="start" x="798.5" y="-447" font-family="Helvetica,sans-Serif" font-size="10.00">libexif/pentax/exif</text>
<text text-anchor="middle" x="852" y="-436" font-family="Helvetica,sans-Serif" font-size="10.00">&#45;mnote&#45;data&#45;pentax.c</text>
</a>
</g>
</g>
<!-- Node2 -->
<g id="Node000002" class="node">
<title>Node2</title>
<g id="a_Node000002"><a xlink:title=" ">
<polygon fill="#e0e0e0" stroke="#999999" points="56,-393 0,-393 0,-374 56,-374 56,-393"/>
<text text-anchor="middle" x="28" y="-381" font-family="Helvetica,sans-Serif" font-size="10.00">config.h</text>
</a>
</g>
</g>
<!-- Node1&#45;&gt;Node2 -->
<g id="edge1_Node000001_Node000002" class="edge">
<title>Node1&#45;&gt;Node2</title>
<g id="a_edge1_Node000001_Node000002"><a xlink:title=" ">
<path fill="none" stroke="#63b8ff" d="M790.13,-441.9C657.57,-438.91 336.52,-428.32 70,-393 69.17,-392.89 68.33,-392.77 67.49,-392.65"/>
<polygon fill="#63b8ff" stroke="#63b8ff" points="68.31,-389.24 57.87,-391.04 67.15,-396.14 68.31,-389.24"/>
</a>
</g>
</g>
<!-- Node3 -->
<g id="Node000003" class="node">
<title>Node3</title>
<g id="a_Node000003"><a xlink:href="exif-mnote-data-pentax_8h.html" target="_top" xlink:title=" ">
<polygon fill="white" stroke="#666666" points="553.5,-393 412.5,-393 412.5,-374 553.5,-374 553.5,-393"/>
<text text-anchor="middle" x="483" y="-381" font-family="Helvetica,sans-Serif" font-size="10.00">exif&#45;mnote&#45;data&#45;pentax.h</text>
</a>
</g>
</g>
<!-- Node1&#45;&gt;Node3 -->
<g id="edge2_Node000001_Node000003" class="edge">
<title>Node1&#45;&gt;Node3</title>
<g id="a_edge2_Node000001_Node000003"><a xlink:title=" ">
<path fill="none" stroke="#63b8ff" d="M790.24,-433.21C723.97,-422.7 619.03,-406.07 550.59,-395.21"/>
<polygon fill="#63b8ff" stroke="#63b8ff" points="551.43,-391.8 541,-393.7 550.33,-398.72 551.43,-391.8"/>
</a>
</g>
</g>
<!-- Node4 -->
<g id="Node000004" class="node">
<title>Node4</title>
<g id="a_Node000004"><a xlink:href="exif-byte-order_8h.html" target="_top" xlink:title="Defines the ExifByteOrder enum and the associated functions.">
<polygon fill="white" stroke="#666666" points="703.5,-24.5 572.5,-24.5 572.5,-5.5 703.5,-5.5 703.5,-24.5"/>
<text text-anchor="middle" x="638" y="-12.5" font-family="Helvetica,sans-Serif" font-size="10.00">libexif/exif&#45;byte&#45;order.h</text>
</a>
</g>
</g>
<!-- Node1&#45;&gt;Node4 -->
<g id="edge43_Node000001_Node000004" class="edge">
<title>Node1&#45;&gt;Node4</title>
<g id="a_edge43_Node000001_Node000004"><a xlink:title=" ">
<path fill="none" stroke="#63b8ff" d="M852,-428.71C852,-406.37 852,-361.81 852,-324 852,-324 852,-324 852,-140.5 852,-103.92 844.93,-89.62 817,-66 798.94,-50.73 742.88,-36.55 698.26,-27.23"/>
<polygon fill="#63b8ff" stroke="#63b8ff" points="699.17,-23.84 688.67,-25.26 697.76,-30.7 699.17,-23.84"/>
</a>
</g>
</g>
<!-- Node8 -->
<g id="Node000008" class="node">
<title>Node8</title>
<g id="a_Node000008"><a xlink:href="exif-utils_8h.html" target="_top" xlink:title="EXIF data manipulation functions and types.">
<polygon fill="white" stroke="#666666" points="134.5,-90.5 33.5,-90.5 33.5,-71.5 134.5,-71.5 134.5,-90.5"/>
<text text-anchor="middle" x="84" y="-78.5" font-family="Helvetica,sans-Serif" font-size="10.00">libexif/exif&#45;utils.h</text>
</a>
</g>
</g>
<!-- Node1&#45;&gt;Node8 -->
<g id="edge44_Node000001_Node000008" class="edge">
<title>Node1&#45;&gt;Node8</title>
<g id="a_edge44_Node000001_Node000008"><a xlink:title=" ">
<path fill="none" stroke="#63b8ff" d="M790.13,-439.91C607.59,-429.99 84,-395.3 84,-324 84,-324 84,-324 84,-195.5 84,-162.89 84,-125 84,-102.29"/>
<polygon fill="#63b8ff" stroke="#63b8ff" points="87.5,-102.34 84,-92.34 80.5,-102.34 87.5,-102.34"/>
</a>
</g>
</g>
<!-- Node21 -->
<g id="Node000021" class="node">
<title>Node21</title>
<g id="a_Node000021"><a xlink:title=" ">
<polygon fill="#e0e0e0" stroke="#999999" points="933.5,-393 880.5,-393 880.5,-374 933.5,-374 933.5,-393"/>
<text text-anchor="middle" x="907" y="-381" font-family="Helvetica,sans-Serif" font-size="10.00">stdlib.h</text>
</a>
</g>
</g>
<!-- Node1&#45;&gt;Node21 -->
<g id="edge40_Node000001_Node000021" class="edge">
<title>Node1&#45;&gt;Node21</title>
<g id="a_edge40_Node000001_Node000021"><a xlink:title=" ">
<path fill="none" stroke="#63b8ff" d="M865.6,-428.54C873.34,-420.3 883.08,-409.94 891.17,-401.34"/>
<polygon fill="#63b8ff" stroke="#63b8ff" points="893.51,-403.96 897.81,-394.28 888.41,-399.17 893.51,-403.96"/>
</a>
</g>
</g>
<!-- Node22 -->
<g id="Node000022" class="node">
<title>Node22</title>
<g id="a_Node000022"><a xlink:title=" ">
<polygon fill="#e0e0e0" stroke="#999999" points="1004.5,-393 951.5,-393 951.5,-374 1004.5,-374 1004.5,-393"/>
<text text-anchor="middle" x="978" y="-381" font-family="Helvetica,sans-Serif" font-size="10.00">string.h</text>
</a>
</g>
</g>
<!-- Node1&#45;&gt;Node22 -->
<g id="edge41_Node000001_Node000022" class="edge">
<title>Node1&#45;&gt;Node22</title>
<g id="a_edge41_Node000001_Node000022"><a xlink:title=" ">
<path fill="none" stroke="#63b8ff" d="M883.15,-428.54C903.19,-419.23 929.08,-407.22 948.74,-398.09"/>
<polygon fill="#63b8ff" stroke="#63b8ff" points="949.98,-401.37 957.57,-393.98 947.03,-395.02 949.98,-401.37"/>
</a>
</g>
</g>
<!-- Node23 -->
<g id="Node000023" class="node">
<title>Node23</title>
<g id="a_Node000023"><a xlink:title=" ">
<polygon fill="#e0e0e0" stroke="#999999" points="1073,-393 1023,-393 1023,-374 1073,-374 1073,-393"/>
<text text-anchor="middle" x="1048" y="-381" font-family="Helvetica,sans-Serif" font-size="10.00">stdio.h</text>
</a>
</g>
</g>
<!-- Node1&#45;&gt;Node23 -->
<g id="edge42_Node000001_Node000023" class="edge">
<title>Node1&#45;&gt;Node23</title>
<g id="a_edge42_Node000001_Node000023"><a xlink:title=" ">
<path fill="none" stroke="#63b8ff" d="M900.45,-428.54C934.88,-418.26 980.38,-404.68 1011.7,-395.33"/>
<polygon fill="#63b8ff" stroke="#63b8ff" points="1012.52,-398.74 1021.1,-392.53 1010.52,-392.03 1012.52,-398.74"/>
</a>
</g>
</g>
<!-- Node3&#45;&gt;Node4 -->
<g id="edge3_Node000003_Node000004" class="edge">
<title>Node3&#45;&gt;Node4</title>
<g id="a_edge3_Node000003_Node000004"><a xlink:title=" ">
<path fill="none" stroke="#63b8ff" d="M553.84,-377.52C624.34,-371.45 726.69,-359.26 760,-338 796.16,-314.92 814,-300.9 814,-258 814,-258 814,-258 814,-140.5 814,-106.33 818.44,-90.86 795,-66 780.77,-50.91 732.28,-36.87 692.91,-27.53"/>
<polygon fill="#63b8ff" stroke="#63b8ff" points="693.83,-24.15 683.29,-25.31 692.25,-30.97 693.83,-24.15"/>
</a>
</g>
</g>
<!-- Node5 -->
<g id="Node000005" class="node">
<title>Node5</title>
<g id="a_Node000005"><a xlink:href="exif-mnote-data_8h.html" target="_top" xlink:title="Handling EXIF MakerNote tags.">
<polygon fill="white" stroke="#666666" points="329.5,-272 226.5,-272 226.5,-242 329.5,-242 329.5,-272"/>
<text text-anchor="start" x="234.5" y="-260" font-family="Helvetica,sans-Serif" font-size="10.00">libexif/exif&#45;mnote</text>
<text text-anchor="middle" x="278" y="-249" font-family="Helvetica,sans-Serif" font-size="10.00">&#45;data.h</text>
</a>
</g>
</g>
<!-- Node3&#45;&gt;Node5 -->
<g id="edge4_Node000003_Node000005" class="edge">
<title>Node3&#45;&gt;Node5</title>
<g id="a_edge4_Node000003_Node000005"><a xlink:title=" ">
<path fill="none" stroke="#63b8ff" d="M468.26,-373.55C435.65,-353.75 356.74,-305.82 311.45,-278.31"/>
<polygon fill="#63b8ff" stroke="#63b8ff" points="313.44,-275.43 303.08,-273.23 309.81,-281.41 313.44,-275.43"/>
</a>
</g>
</g>
<!-- Node7 -->
<g id="Node000007" class="node">
<title>Node7</title>
<g id="a_Node000007"><a xlink:href="exif-mem_8h.html" target="_top" xlink:title="Define the ExifMem data type and the associated functions.">
<polygon fill="white" stroke="#666666" points="403,-151 297,-151 297,-132 403,-132 403,-151"/>
<text text-anchor="middle" x="350" y="-139" font-family="Helvetica,sans-Serif" font-size="10.00">libexif/exif&#45;mem.h</text>
</a>
</g>
</g>
<!-- Node3&#45;&gt;Node7 -->
<g id="edge39_Node000003_Node000007" class="edge">
<title>Node3&#45;&gt;Node7</title>
<g id="a_edge39_Node000003_Node000007"><a xlink:title=" ">
<path fill="none" stroke="#63b8ff" d="M412.1,-382.4C331.88,-380.6 208.52,-372.15 179,-338 147.58,-301.64 138.82,-266.64 217,-187 228.91,-174.86 267.43,-162.72 299.97,-154.19"/>
<polygon fill="#63b8ff" stroke="#63b8ff" points="300.44,-157.68 309.27,-151.82 298.71,-150.9 300.44,-157.68"/>
</a>
</g>
</g>
<!-- Node12 -->
<g id="Node000012" class="node">
<title>Node12</title>
<g id="a_Node000012"><a xlink:href="exif-mnote-data-priv_8h.html" target="_top" xlink:title=" ">
<polygon fill="white" stroke="#666666" points="291.5,-338 188.5,-338 188.5,-308 291.5,-308 291.5,-338"/>
<text text-anchor="start" x="196.5" y="-326" font-family="Helvetica,sans-Serif" font-size="10.00">libexif/exif&#45;mnote</text>
<text text-anchor="middle" x="240" y="-315" font-family="Helvetica,sans-Serif" font-size="10.00">&#45;data&#45;priv.h</text>
</a>
</g>
</g>
<!-- Node3&#45;&gt;Node12 -->
<g id="edge12_Node000003_Node000012" class="edge">
<title>Node3&#45;&gt;Node12</title>
<g id="a_edge12_Node000003_Node000012"><a xlink:title=" ">
<path fill="none" stroke="#63b8ff" d="M445.83,-373.55C407.75,-364.39 347.87,-349.97 302.5,-339.05"/>
<polygon fill="#63b8ff" stroke="#63b8ff" points="303.6,-335.71 293.06,-336.77 301.96,-342.52 303.6,-335.71"/>
</a>
</g>
</g>
<!-- Node13 -->
<g id="Node000013" class="node">
<title>Node13</title>
<g id="a_Node000013"><a xlink:href="mnote-pentax-entry_8h.html" target="_top" xlink:title=" ">
<polygon fill="white" stroke="#666666" points="785.5,-96 666.5,-96 666.5,-66 785.5,-66 785.5,-96"/>
<text text-anchor="start" x="674.5" y="-84" font-family="Helvetica,sans-Serif" font-size="10.00">libexif/pentax/mnote</text>
<text text-anchor="middle" x="726" y="-73" font-family="Helvetica,sans-Serif" font-size="10.00">&#45;pentax&#45;entry.h</text>
</a>
</g>
</g>
<!-- Node3&#45;&gt;Node13 -->
<g id="edge16_Node000003_Node000013" class="edge">
<title>Node3&#45;&gt;Node13</title>
<g id="a_edge16_Node000003_Node000013"><a xlink:title=" ">
<path fill="none" stroke="#63b8ff" d="M553.93,-381.96C640.64,-377.12 776,-354.17 776,-258 776,-258 776,-258 776,-195.5 776,-162.08 757.62,-127.46 743.14,-105.38"/>
<polygon fill="#63b8ff" stroke="#63b8ff" points="746.23,-103.7 737.7,-97.42 740.46,-107.65 746.23,-103.7"/>
</a>
</g>
</g>
<!-- Node15 -->
<g id="Node000015" class="node">
<title>Node15</title>
<g id="a_Node000015"><a xlink:href="exif-data_8h.html" target="_top" xlink:title="Defines the ExifData type and the associated functions.">
<polygon fill="white" stroke="#666666" points="534,-332.5 432,-332.5 432,-313.5 534,-313.5 534,-332.5"/>
<text text-anchor="middle" x="483" y="-320.5" font-family="Helvetica,sans-Serif" font-size="10.00">libexif/exif&#45;data.h</text>
</a>
</g>
</g>
<!-- Node3&#45;&gt;Node15 -->
<g id="edge20_Node000003_Node000015" class="edge">
<title>Node3&#45;&gt;Node15</title>
<g id="a_edge20_Node000003_Node000015"><a xlink:title=" ">
<path fill="none" stroke="#63b8ff" d="M483,-373.87C483,-366 483,-354.1 483,-343.89"/>
<polygon fill="#63b8ff" stroke="#63b8ff" points="486.5,-344.18 483,-334.18 479.5,-344.18 486.5,-344.18"/>
</a>
</g>
</g>
<!-- Node6 -->
<g id="Node000006" class="node">
<title>Node6</title>
<g id="a_Node000006"><a xlink:href="exif-log_8h.html" target="_top" xlink:title="Log message infrastructure.">
<polygon fill="white" stroke="#666666" points="321.5,-206 226.5,-206 226.5,-187 321.5,-187 321.5,-206"/>
<text text-anchor="middle" x="274" y="-194" font-family="Helvetica,sans-Serif" font-size="10.00">libexif/exif&#45;log.h</text>
</a>
</g>
</g>
<!-- Node5&#45;&gt;Node6 -->
<g id="edge5_Node000005_Node000006" class="edge">
<title>Node5&#45;&gt;Node6</title>
<g id="a_edge5_Node000005_Node000006"><a xlink:title=" ">
<path fill="none" stroke="#63b8ff" d="M277.01,-241.54C276.51,-234.26 275.9,-225.31 275.36,-217.39"/>
<polygon fill="#63b8ff" stroke="#63b8ff" points="278.87,-217.42 274.7,-207.69 271.89,-217.9 278.87,-217.42"/>
</a>
</g>
</g>
<!-- Node6&#45;&gt;Node7 -->
<g id="edge6_Node000006_Node000007" class="edge">
<title>Node6&#45;&gt;Node7</title>
<g id="a_edge6_Node000006_Node000007"><a xlink:title=" ">
<path fill="none" stroke="#63b8ff" d="M286.89,-186.51C298.1,-178.7 314.57,-167.21 327.88,-157.93"/>
<polygon fill="#63b8ff" stroke="#63b8ff" points="329.86,-160.81 336.06,-152.22 325.85,-155.07 329.86,-160.81"/>
</a>
</g>
</g>
<!-- Node11 -->
<g id="Node000011" class="node">
<title>Node11</title>
<g id="a_Node000011"><a xlink:title=" ">
<polygon fill="#e0e0e0" stroke="#999999" points="279,-151 223,-151 223,-132 279,-132 279,-151"/>
<text text-anchor="middle" x="251" y="-139" font-family="Helvetica,sans-Serif" font-size="10.00">stdarg.h</text>
</a>
</g>
</g>
<!-- Node6&#45;&gt;Node11 -->
<g id="edge11_Node000006_Node000011" class="edge">
<title>Node6&#45;&gt;Node11</title>
<g id="a_edge11_Node000006_Node000011"><a xlink:title=" ">
<path fill="none" stroke="#63b8ff" d="M270.2,-186.75C267.26,-179.96 263.06,-170.3 259.35,-161.73"/>
<polygon fill="#63b8ff" stroke="#63b8ff" points="262.67,-160.61 255.48,-152.83 256.25,-163.4 262.67,-160.61"/>
</a>
</g>
</g>
<!-- Node7&#45;&gt;Node8 -->
<g id="edge7_Node000007_Node000008" class="edge">
<title>Node7&#45;&gt;Node8</title>
<g id="a_edge7_Node000007_Node000008"><a xlink:title=" ">
<path fill="none" stroke="#63b8ff" d="M309.31,-131.55C262.77,-121.32 186.46,-104.53 135.73,-93.38"/>
<polygon fill="#63b8ff" stroke="#63b8ff" points="136.68,-90 126.16,-91.27 135.18,-96.84 136.68,-90"/>
</a>
</g>
</g>
<!-- Node8&#45;&gt;Node4 -->
<g id="edge8_Node000008_Node000004" class="edge">
<title>Node8&#45;&gt;Node4</title>
<g id="a_edge8_Node000008_Node000004"><a xlink:title=" ">
<path fill="none" stroke="#63b8ff" d="M122.02,-71.06C130.84,-69.2 140.22,-67.38 149,-66 307.41,-41.08 348.5,-46.59 508,-30 525.13,-28.22 543.53,-26.26 560.94,-24.39"/>
<polygon fill="#63b8ff" stroke="#63b8ff" points="561.14,-27.89 570.7,-23.34 560.39,-20.93 561.14,-27.89"/>
</a>
</g>
</g>
<!-- Node9 -->
<g id="Node000009" class="node">
<title>Node9</title>
<g id="a_Node000009"><a xlink:href="exif-format_8h.html" target="_top" xlink:title="Handling native EXIF data types.">
<polygon fill="white" stroke="#666666" points="498.5,-24.5 385.5,-24.5 385.5,-5.5 498.5,-5.5 498.5,-24.5"/>
<text text-anchor="middle" x="442" y="-12.5" font-family="Helvetica,sans-Serif" font-size="10.00">libexif/exif&#45;format.h</text>
</a>
</g>
</g>
<!-- Node8&#45;&gt;Node9 -->
<g id="edge9_Node000008_Node000009" class="edge">
<title>Node8&#45;&gt;Node9</title>
<g id="a_edge9_Node000008_Node000009"><a xlink:title=" ">
<path fill="none" stroke="#63b8ff" d="M124.17,-71.07C132.37,-69.32 140.95,-67.55 149,-66 225.88,-51.17 314.54,-36.35 374.03,-26.75"/>
<polygon fill="#63b8ff" stroke="#63b8ff" points="374.34,-30.24 383.66,-25.2 373.23,-23.33 374.34,-30.24"/>
</a>
</g>
</g>
<!-- Node10 -->
<g id="Node000010" class="node">
<title>Node10</title>
<g id="a_Node000010"><a xlink:title=" ">
<polygon fill="#e0e0e0" stroke="#999999" points="130,-24.5 38,-24.5 38,-5.5 130,-5.5 130,-24.5"/>
<text text-anchor="middle" x="84" y="-12.5" font-family="Helvetica,sans-Serif" font-size="10.00">libexif/_stdint.h</text>
</a>
</g>
</g>
<!-- Node8&#45;&gt;Node10 -->
<g id="edge10_Node000008_Node000010" class="edge">
<title>Node8&#45;&gt;Node10</title>
<g id="a_edge10_Node000008_Node000010"><a xlink:title=" ">
<path fill="none" stroke="#63b8ff" d="M84,-71.1C84,-62.12 84,-47.95 84,-36.22"/>
<polygon fill="#63b8ff" stroke="#63b8ff" points="87.5,-36.34 84,-26.34 80.5,-36.34 87.5,-36.34"/>
</a>
</g>
</g>
<!-- Node12&#45;&gt;Node4 -->
<g id="edge14_Node000012_Node000004" class="edge">
<title>Node12&#45;&gt;Node4</title>
<g id="a_edge14_Node000012_Node000004"><a xlink:title=" ">
<path fill="none" stroke="#63b8ff" d="M228.52,-307.66C221.67,-298.16 213.62,-285.07 210,-272 200.29,-236.94 184.19,-169.63 214,-132 256.86,-77.91 450.76,-42.35 560.92,-26.14"/>
<polygon fill="#63b8ff" stroke="#63b8ff" points="561.39,-29.6 570.79,-24.71 560.39,-22.68 561.39,-29.6"/>
</a>
</g>
</g>
<!-- Node12&#45;&gt;Node5 -->
<g id="edge13_Node000012_Node000005" class="edge">
<title>Node12&#45;&gt;Node5</title>
<g id="a_edge13_Node000012_Node000005"><a xlink:title=" ">
<path fill="none" stroke="#63b8ff" d="M248.43,-307.8C252.96,-300.17 258.66,-290.57 263.84,-281.84"/>
<polygon fill="#63b8ff" stroke="#63b8ff" points="266.72,-283.85 268.82,-273.47 260.7,-280.28 266.72,-283.85"/>
</a>
</g>
</g>
<!-- Node12&#45;&gt;Node6 -->
<g id="edge15_Node000012_Node000006" class="edge">
<title>Node12&#45;&gt;Node6</title>
<g id="a_edge15_Node000012_Node000006"><a xlink:title=" ">
<path fill="none" stroke="#63b8ff" d="M229.76,-307.58C219.43,-291.13 206.42,-263.69 217,-242 223.03,-229.65 234.33,-219.72 245.28,-212.41"/>
<polygon fill="#63b8ff" stroke="#63b8ff" points="247.08,-215.41 253.8,-207.21 243.44,-209.43 247.08,-215.41"/>
</a>
</g>
</g>
<!-- Node13&#45;&gt;Node4 -->
<g id="edge18_Node000013_Node000004" class="edge">
<title>Node13&#45;&gt;Node4</title>
<g id="a_edge18_Node000013_Node000004"><a xlink:title=" ">
<path fill="none" stroke="#63b8ff" d="M706.47,-65.8C692.48,-55.62 673.66,-41.93 659.28,-31.48"/>
<polygon fill="#63b8ff" stroke="#63b8ff" points="661.53,-28.79 651.38,-25.73 657.41,-34.45 661.53,-28.79"/>
</a>
</g>
</g>
<!-- Node13&#45;&gt;Node9 -->
<g id="edge17_Node000013_Node000009" class="edge">
<title>Node13&#45;&gt;Node9</title>
<g id="a_edge17_Node000013_Node000009"><a xlink:title=" ">
<path fill="none" stroke="#63b8ff" d="M666.12,-66.51C614.74,-54.93 541.52,-38.43 492.92,-27.47"/>
<polygon fill="#63b8ff" stroke="#63b8ff" points="493.73,-24.07 483.21,-25.29 492.19,-30.9 493.73,-24.07"/>
</a>
</g>
</g>
<!-- Node14 -->
<g id="Node000014" class="node">
<title>Node14</title>
<g id="a_Node000014"><a xlink:href="mnote-pentax-tag_8h.html" target="_top" xlink:title=" ">
<polygon fill="white" stroke="#666666" points="840.5,-30 721.5,-30 721.5,0 840.5,0 840.5,-30"/>
<text text-anchor="start" x="729.5" y="-18" font-family="Helvetica,sans-Serif" font-size="10.00">libexif/pentax/mnote</text>
<text text-anchor="middle" x="781" y="-7" font-family="Helvetica,sans-Serif" font-size="10.00">&#45;pentax&#45;tag.h</text>
</a>
</g>
</g>
<!-- Node13&#45;&gt;Node14 -->
<g id="edge19_Node000013_Node000014" class="edge">
<title>Node13&#45;&gt;Node14</title>
<g id="a_edge19_Node000013_Node000014"><a xlink:title=" ">
<path fill="none" stroke="#63b8ff" d="M738.21,-65.8C745.04,-57.84 753.73,-47.74 761.48,-38.71"/>
<polygon fill="#63b8ff" stroke="#63b8ff" points="763.98,-41.18 767.84,-31.31 758.67,-36.61 763.98,-41.18"/>
</a>
</g>
</g>
<!-- Node15&#45;&gt;Node4 -->
<g id="edge21_Node000015_Node000004" class="edge">
<title>Node15&#45;&gt;Node4</title>
<g id="a_edge21_Node000015_Node000004"><a xlink:title=" ">
<path fill="none" stroke="#63b8ff" d="M534.41,-316.16C570.21,-309.99 617.52,-297.42 652,-272 680.38,-251.08 679.34,-237.07 696,-206 712.27,-175.64 736.08,-161.91 719,-132 703.39,-104.66 676.83,-121.23 658,-96 644.97,-78.55 640.36,-53.58 638.77,-36.2"/>
<polygon fill="#63b8ff" stroke="#63b8ff" points="642.27,-36.14 638.15,-26.37 635.29,-36.57 642.27,-36.14"/>
</a>
</g>
</g>
<!-- Node15&#45;&gt;Node5 -->
<g id="edge37_Node000015_Node000005" class="edge">
<title>Node15&#45;&gt;Node5</title>
<g id="a_edge37_Node000015_Node000005"><a xlink:title=" ">
<path fill="none" stroke="#63b8ff" d="M454.5,-313.1C423.72,-303.49 373.9,-287.94 335.02,-275.8"/>
<polygon fill="#63b8ff" stroke="#63b8ff" points="336.41,-272.57 325.82,-272.93 334.32,-279.25 336.41,-272.57"/>
</a>
</g>
</g>
<!-- Node15&#45;&gt;Node6 -->
<g id="edge24_Node000015_Node000006" class="edge">
<title>Node15&#45;&gt;Node6</title>
<g id="a_edge24_Node000015_Node000006"><a xlink:title=" ">
<path fill="none" stroke="#63b8ff" d="M462.8,-313.08C442.07,-303.68 409.11,-288.04 382,-272 361.95,-260.13 358.17,-255.25 339,-242 324.8,-232.18 308.79,-221.23 296.22,-212.64"/>
<polygon fill="#63b8ff" stroke="#63b8ff" points="298.46,-209.93 288.22,-207.18 294.51,-215.71 298.46,-209.93"/>
</a>
</g>
</g>
<!-- Node15&#45;&gt;Node7 -->
<g id="edge38_Node000015_Node000007" class="edge">
<title>Node15&#45;&gt;Node7</title>
<g id="a_edge38_Node000015_Node000007"><a xlink:title=" ">
<path fill="none" stroke="#63b8ff" d="M467.28,-313.17C452.56,-304.28 430.69,-289.42 416,-272 387.22,-237.87 366.7,-189.07 356.77,-162.17"/>
<polygon fill="#63b8ff" stroke="#63b8ff" points="360.12,-161.16 353.46,-152.91 353.53,-163.51 360.12,-161.16"/>
</a>
</g>
</g>
<!-- Node16 -->
<g id="Node000016" class="node">
<title>Node16</title>
<g id="a_Node000016"><a xlink:href="exif-data-type_8h.html" target="_top" xlink:title=" ">
<polygon fill="white" stroke="#666666" points="598,-151 470,-151 470,-132 598,-132 598,-151"/>
<text text-anchor="middle" x="534" y="-139" font-family="Helvetica,sans-Serif" font-size="10.00">libexif/exif&#45;data&#45;type.h</text>
</a>
</g>
</g>
<!-- Node15&#45;&gt;Node16 -->
<g id="edge22_Node000015_Node000016" class="edge">
<title>Node15&#45;&gt;Node16</title>
<g id="a_edge22_Node000015_Node000016"><a xlink:title=" ">
<path fill="none" stroke="#63b8ff" d="M503.87,-313.14C520.01,-305.04 541.21,-291.35 551,-272 569.11,-236.21 554.07,-188.04 543.05,-161.7"/>
<polygon fill="#63b8ff" stroke="#63b8ff" points="546.28,-160.35 539.02,-152.63 539.89,-163.19 546.28,-160.35"/>
</a>
</g>
</g>
<!-- Node17 -->
<g id="Node000017" class="node">
<title>Node17</title>
<g id="a_Node000017"><a xlink:href="exif-ifd_8h.html" target="_top" xlink:title=" ">
<polygon fill="white" stroke="#666666" points="709.5,-151 616.5,-151 616.5,-132 709.5,-132 709.5,-151"/>
<text text-anchor="middle" x="663" y="-139" font-family="Helvetica,sans-Serif" font-size="10.00">libexif/exif&#45;ifd.h</text>
</a>
</g>
</g>
<!-- Node15&#45;&gt;Node17 -->
<g id="edge23_Node000015_Node000017" class="edge">
<title>Node15&#45;&gt;Node17</title>
<g id="a_edge23_Node000015_Node000017"><a xlink:title=" ">
<path fill="none" stroke="#63b8ff" d="M523.55,-313.07C572.91,-299.64 653.11,-268.81 681,-206 687.47,-191.44 681.6,-173.96 674.88,-161.03"/>
<polygon fill="#63b8ff" stroke="#63b8ff" points="678.1,-159.6 670.06,-152.71 672.05,-163.12 678.1,-159.6"/>
</a>
</g>
</g>
<!-- Node18 -->
<g id="Node000018" class="node">
<title>Node18</title>
<g id="a_Node000018"><a xlink:href="exif-tag_8h.html" target="_top" xlink:title="Handling EXIF tags.">
<polygon fill="white" stroke="#666666" points="672,-206 576,-206 576,-187 672,-187 672,-206"/>
<text text-anchor="middle" x="624" y="-194" font-family="Helvetica,sans-Serif" font-size="10.00">libexif/exif&#45;tag.h</text>
</a>
</g>
</g>
<!-- Node15&#45;&gt;Node18 -->
<g id="edge25_Node000015_Node000018" class="edge">
<title>Node15&#45;&gt;Node18</title>
<g id="a_edge25_Node000015_Node000018"><a xlink:title=" ">
<path fill="none" stroke="#63b8ff" d="M512,-313.08C533.92,-305.15 563.61,-291.73 584,-272 599.96,-256.56 611.03,-233.35 617.41,-216.95"/>
<polygon fill="#63b8ff" stroke="#63b8ff" points="620.59,-218.43 620.71,-207.84 614.01,-216.04 620.59,-218.43"/>
</a>
</g>
</g>
<!-- Node19 -->
<g id="Node000019" class="node">
<title>Node19</title>
<g id="a_Node000019"><a xlink:href="exif-content_8h.html" target="_top" xlink:title="Handling EXIF IFDs.">
<polygon fill="white" stroke="#666666" points="541.5,-266.5 424.5,-266.5 424.5,-247.5 541.5,-247.5 541.5,-266.5"/>
<text text-anchor="middle" x="483" y="-254.5" font-family="Helvetica,sans-Serif" font-size="10.00">libexif/exif&#45;content.h</text>
</a>
</g>
</g>
<!-- Node15&#45;&gt;Node19 -->
<g id="edge28_Node000015_Node000019" class="edge">
<title>Node15&#45;&gt;Node19</title>
<g id="a_edge28_Node000015_Node000019"><a xlink:title=" ">
<path fill="none" stroke="#63b8ff" d="M478.16,-313.1C476.29,-304.12 475.79,-289.95 476.67,-278.22"/>
<polygon fill="#63b8ff" stroke="#63b8ff" points="480.14,-278.69 477.97,-268.32 473.2,-277.78 480.14,-278.69"/>
</a>
</g>
</g>
<!-- Node18&#45;&gt;Node16 -->
<g id="edge27_Node000018_Node000016" class="edge">
<title>Node18&#45;&gt;Node16</title>
<g id="a_edge27_Node000018_Node000016"><a xlink:title=" ">
<path fill="none" stroke="#63b8ff" d="M608.73,-186.51C595.07,-178.47 574.8,-166.53 558.82,-157.11"/>
<polygon fill="#63b8ff" stroke="#63b8ff" points="560.74,-154.18 550.35,-152.13 557.19,-160.22 560.74,-154.18"/>
</a>
</g>
</g>
<!-- Node18&#45;&gt;Node17 -->
<g id="edge26_Node000018_Node000017" class="edge">
<title>Node18&#45;&gt;Node17</title>
<g id="a_edge26_Node000018_Node000017"><a xlink:title=" ">
<path fill="none" stroke="#63b8ff" d="M630.44,-186.75C635.66,-179.66 643.19,-169.42 649.69,-160.59"/>
<polygon fill="#63b8ff" stroke="#63b8ff" points="652.42,-162.79 655.52,-152.66 646.78,-158.64 652.42,-162.79"/>
</a>
</g>
</g>
<!-- Node19&#45;&gt;Node6 -->
<g id="edge35_Node000019_Node000006" class="edge">
<title>Node19&#45;&gt;Node6</title>
<g id="a_edge35_Node000019_Node000006"><a xlink:title=" ">
<path fill="none" stroke="#63b8ff" d="M451.26,-247.12C415.43,-237.09 356.94,-220.72 317.03,-209.54"/>
<polygon fill="#63b8ff" stroke="#63b8ff" points="318.07,-206.2 307.5,-206.88 316.19,-212.94 318.07,-206.2"/>
</a>
</g>
</g>
<!-- Node19&#45;&gt;Node7 -->
<g id="edge36_Node000019_Node000007" class="edge">
<title>Node19&#45;&gt;Node7</title>
<g id="a_edge36_Node000019_Node000007"><a xlink:title=" ">
<path fill="none" stroke="#63b8ff" d="M467.03,-247.13C451.05,-237.89 426.15,-222.48 407,-206 390.74,-192 374.63,-173.52 363.71,-160.1"/>
<polygon fill="#63b8ff" stroke="#63b8ff" points="366.66,-158.19 357.69,-152.55 361.18,-162.55 366.66,-158.19"/>
</a>
</g>
</g>
<!-- Node19&#45;&gt;Node15 -->
<g id="edge34_Node000019_Node000015" class="edge">
<title>Node19&#45;&gt;Node15</title>
<g id="a_edge34_Node000019_Node000015"><a xlink:title=" ">
<path fill="none" stroke="#63b8ff" d="M487.83,-266.82C489.73,-275.87 490.22,-290.24 489.31,-302.05"/>
<polygon fill="#63b8ff" stroke="#63b8ff" points="485.88,-301.23 488.04,-311.6 492.82,-302.15 485.88,-301.23"/>
</a>
</g>
</g>
<!-- Node19&#45;&gt;Node18 -->
<g id="edge29_Node000019_Node000018" class="edge">
<title>Node19&#45;&gt;Node18</title>
<g id="a_edge29_Node000019_Node000018"><a xlink:title=" ">
<path fill="none" stroke="#63b8ff" d="M504.41,-247.12C527.71,-237.45 565.19,-221.9 591.98,-210.78"/>
<polygon fill="#63b8ff" stroke="#63b8ff" points="593.09,-214.11 600.99,-207.05 590.41,-207.65 593.09,-214.11"/>
</a>
</g>
</g>
<!-- Node20 -->
<g id="Node000020" class="node">
<title>Node20</title>
<g id="a_Node000020"><a xlink:href="exif-entry_8h.html" target="_top" xlink:title="Handling EXIF entries.">
<polygon fill="white" stroke="#666666" points="520,-206 416,-206 416,-187 520,-187 520,-206"/>
<text text-anchor="middle" x="468" y="-194" font-family="Helvetica,sans-Serif" font-size="10.00">libexif/exif&#45;entry.h</text>
</a>
</g>
</g>
<!-- Node19&#45;&gt;Node20 -->
<g id="edge30_Node000019_Node000020" class="edge">
<title>Node19&#45;&gt;Node20</title>
<g id="a_edge30_Node000019_Node000020"><a xlink:title=" ">
<path fill="none" stroke="#63b8ff" d="M475.83,-247.37C472.12,-239.5 468.57,-227.6 466.67,-217.39"/>
<polygon fill="#63b8ff" stroke="#63b8ff" points="470.17,-217.16 465.45,-207.67 463.22,-218.03 470.17,-217.16"/>
</a>
</g>
</g>
<!-- Node20&#45;&gt;Node7 -->
<g id="edge33_Node000020_Node000007" class="edge">
<title>Node20&#45;&gt;Node7</title>
<g id="a_edge33_Node000020_Node000007"><a xlink:title=" ">
<path fill="none" stroke="#63b8ff" d="M447.98,-186.51C429.39,-178.16 401.46,-165.61 380.17,-156.05"/>
<polygon fill="#63b8ff" stroke="#63b8ff" points="381.66,-152.88 371.1,-151.98 378.79,-159.27 381.66,-152.88"/>
</a>
</g>
</g>
<!-- Node20&#45;&gt;Node9 -->
<g id="edge32_Node000020_Node000009" class="edge">
<title>Node20&#45;&gt;Node9</title>
<g id="a_edge32_Node000020_Node000009"><a xlink:title=" ">
<path fill="none" stroke="#63b8ff" d="M466.56,-186.64C465.12,-177.67 462.84,-163.38 461,-151 454.91,-110.16 448.3,-62.29 444.7,-35.94"/>
<polygon fill="#63b8ff" stroke="#63b8ff" points="448.22,-35.79 443.4,-26.35 441.28,-36.73 448.22,-35.79"/>
</a>
</g>
</g>
<!-- Node20&#45;&gt;Node19 -->
<g id="edge31_Node000020_Node000019" class="edge">
<title>Node20&#45;&gt;Node19</title>
<g id="a_edge31_Node000020_Node000019"><a xlink:title=" ">
<path fill="none" stroke="#63b8ff" d="M475.19,-206.17C478.9,-214.04 482.44,-225.95 484.34,-236.16"/>
<polygon fill="#63b8ff" stroke="#63b8ff" points="480.84,-236.38 485.55,-245.87 487.79,-235.51 480.84,-236.38"/>
</a>
</g>
</g>
</g>
</svg>
