<?xml version="1.0" encoding="UTF-8" standalone="no"?>
<!DOCTYPE svg PUBLIC "-//W3C//DTD SVG 1.1//EN"
 "http://www.w3.org/Graphics/SVG/1.1/DTD/svg11.dtd">
<!-- Generated by graphviz version 2.44.1 (0)
 -->
<!-- Title: remove_not_recorded Pages: 1 -->
<svg width="923pt" height="278pt"
 viewBox="0.00 0.00 923.00 278.42" xmlns="http://www.w3.org/2000/svg" xmlns:xlink="http://www.w3.org/1999/xlink">
<g id="graph0" class="graph" transform="scale(1 1) rotate(0) translate(4 274.42)">
<title>remove_not_recorded</title>
<polygon fill="white" stroke="transparent" points="-4,4 -4,-274.42 919,-274.42 919,4 -4,4"/>
<!-- Node1 -->
<g id="node1" class="node">
<title>Node1</title>
<g id="a_node1"><a xlink:title="Check if this entry is unknown and if so, delete it.">
<polygon fill="#bfbfbf" stroke="black" points="0,-117.5 0,-136.5 123,-136.5 123,-117.5 0,-117.5"/>
<text text-anchor="middle" x="61.5" y="-124.5" font-family="Helvetica,sans-Serif" font-size="10.00">remove_not_recorded</text>
</a>
</g>
</g>
<!-- Node2 -->
<g id="node2" class="node">
<title>Node2</title>
<g id="a_node2"><a xlink:href="exif-content_8c.html#a04f76832f82ea29ce05cd7c4e51932b1" target="_top" xlink:title="Remove an EXIF tag from an IFD.">
<polygon fill="white" stroke="black" points="167.5,-194 167.5,-224 287.5,-224 287.5,-194 167.5,-194"/>
<text text-anchor="start" x="175.5" y="-212" font-family="Helvetica,sans-Serif" font-size="10.00">exif_content_remove</text>
<text text-anchor="middle" x="227.5" y="-201" font-family="Helvetica,sans-Serif" font-size="10.00">_entry</text>
</a>
</g>
</g>
<!-- Node1&#45;&gt;Node2 -->
<g id="edge1" class="edge">
<title>Node1&#45;&gt;Node2</title>
<path fill="none" stroke="midnightblue" d="M76.77,-136.53C95.22,-148.59 128.6,-169.54 159,-184 163.54,-186.16 168.32,-188.26 173.15,-190.26"/>
<polygon fill="midnightblue" stroke="midnightblue" points="171.87,-193.52 182.45,-193.98 174.47,-187.02 171.87,-193.52"/>
</g>
<!-- Node8 -->
<g id="node8" class="node">
<title>Node8</title>
<g id="a_node8"><a xlink:href="exif-data_8c.html#a4fb5dada09c9fdcab3eb7fe7e840ec84" target="_top" xlink:title="Return the data type for the given ExifData.">
<polygon fill="white" stroke="black" points="159,-155.5 159,-174.5 296,-174.5 296,-155.5 159,-155.5"/>
<text text-anchor="middle" x="227.5" y="-162.5" font-family="Helvetica,sans-Serif" font-size="10.00">exif_data_get_data_type</text>
</a>
</g>
</g>
<!-- Node1&#45;&gt;Node8 -->
<g id="edge9" class="edge">
<title>Node1&#45;&gt;Node8</title>
<path fill="none" stroke="midnightblue" d="M103.88,-136.59C125.62,-141.63 152.46,-147.84 175.47,-153.18"/>
<polygon fill="midnightblue" stroke="midnightblue" points="174.88,-156.63 185.41,-155.48 176.46,-149.81 174.88,-156.63"/>
</g>
<!-- Node9 -->
<g id="node9" class="node">
<title>Node9</title>
<g id="a_node9"><a xlink:href="exif-ifd_8c.html#a57651cc68698f037cd9fb8f9d3a021a2" target="_top" xlink:title="Return a textual name of the given IFD.">
<polygon fill="white" stroke="black" points="174,-117.5 174,-136.5 281,-136.5 281,-117.5 174,-117.5"/>
<text text-anchor="middle" x="227.5" y="-124.5" font-family="Helvetica,sans-Serif" font-size="10.00">exif_ifd_get_name</text>
</a>
</g>
</g>
<!-- Node1&#45;&gt;Node9 -->
<g id="edge10" class="edge">
<title>Node1&#45;&gt;Node9</title>
<path fill="none" stroke="midnightblue" d="M123.1,-127C136.41,-127 150.52,-127 163.9,-127"/>
<polygon fill="midnightblue" stroke="midnightblue" points="163.97,-130.5 173.97,-127 163.97,-123.5 163.97,-130.5"/>
</g>
<!-- Node10 -->
<g id="node10" class="node">
<title>Node10</title>
<g id="a_node10"><a xlink:href="exif-log_8c.html#a025d4a5d96544913ea6f6ebbec69cb68" target="_top" xlink:title=" ">
<polygon fill="white" stroke="black" points="199.5,-79.5 199.5,-98.5 255.5,-98.5 255.5,-79.5 199.5,-79.5"/>
<text text-anchor="middle" x="227.5" y="-86.5" font-family="Helvetica,sans-Serif" font-size="10.00">exif_log</text>
</a>
</g>
</g>
<!-- Node1&#45;&gt;Node10 -->
<g id="edge11" class="edge">
<title>Node1&#45;&gt;Node10</title>
<path fill="none" stroke="midnightblue" d="M103.88,-117.41C130.07,-111.34 163.65,-103.56 189.05,-97.68"/>
<polygon fill="midnightblue" stroke="midnightblue" points="190.09,-101.03 199.04,-95.36 188.51,-94.21 190.09,-101.03"/>
</g>
<!-- Node12 -->
<g id="node12" class="node">
<title>Node12</title>
<g id="a_node12"><a xlink:href="exif-tag_8c.html#a90f76ad051d48ed87fafa8aca39f98e2" target="_top" xlink:title="Return whether the given tag is mandatory or not in the given IFD and data type according to the EXIF...">
<polygon fill="white" stroke="black" points="168,-30 168,-60 287,-60 287,-30 168,-30"/>
<text text-anchor="start" x="176" y="-48" font-family="Helvetica,sans-Serif" font-size="10.00">exif_tag_get_support</text>
<text text-anchor="middle" x="227.5" y="-37" font-family="Helvetica,sans-Serif" font-size="10.00">_level_in_ifd</text>
</a>
</g>
</g>
<!-- Node1&#45;&gt;Node12 -->
<g id="edge13" class="edge">
<title>Node1&#45;&gt;Node12</title>
<path fill="none" stroke="midnightblue" d="M76.77,-117.47C95.22,-105.41 128.6,-84.46 159,-70 163.54,-67.84 168.32,-65.74 173.15,-63.74"/>
<polygon fill="midnightblue" stroke="midnightblue" points="174.47,-66.98 182.45,-60.02 171.87,-60.48 174.47,-66.98"/>
</g>
<!-- Node3 -->
<g id="node3" class="node">
<title>Node3</title>
<g id="a_node3"><a xlink:href="exif-entry_8c.html#a82d5d923121488d847d341727cdd2ef4" target="_top" xlink:title="Decrease reference counter for ExifEntry.">
<polygon fill="white" stroke="black" points="360.5,-237.5 360.5,-256.5 457.5,-256.5 457.5,-237.5 360.5,-237.5"/>
<text text-anchor="middle" x="409" y="-244.5" font-family="Helvetica,sans-Serif" font-size="10.00">exif_entry_unref</text>
</a>
</g>
</g>
<!-- Node2&#45;&gt;Node3 -->
<g id="edge2" class="edge">
<title>Node2&#45;&gt;Node3</title>
<path fill="none" stroke="midnightblue" d="M287.77,-221.55C308.83,-226.01 332.44,-231 353.12,-235.38"/>
<polygon fill="midnightblue" stroke="midnightblue" points="352.5,-238.83 363.01,-237.48 353.95,-231.98 352.5,-238.83"/>
</g>
<!-- Node5 -->
<g id="node5" class="node">
<title>Node5</title>
<g id="a_node5"><a xlink:href="exif-mem_8c.html#a43190b81b4b4bdb4ffb89bfb612051b1" target="_top" xlink:title=" ">
<polygon fill="white" stroke="black" points="824,-237.5 824,-256.5 915,-256.5 915,-237.5 824,-237.5"/>
<text text-anchor="middle" x="869.5" y="-244.5" font-family="Helvetica,sans-Serif" font-size="10.00">exif_mem_free</text>
</a>
</g>
</g>
<!-- Node2&#45;&gt;Node5 -->
<g id="edge7" class="edge">
<title>Node2&#45;&gt;Node5</title>
<path fill="none" stroke="midnightblue" d="M287.62,-207.19C390.04,-204.89 606.89,-203.79 788,-228 800,-229.6 812.83,-232.21 824.63,-234.99"/>
<polygon fill="midnightblue" stroke="midnightblue" points="824.15,-238.47 834.7,-237.45 825.82,-231.68 824.15,-238.47"/>
</g>
<!-- Node7 -->
<g id="node7" class="node">
<title>Node7</title>
<g id="a_node7"><a xlink:href="exif-mem_8c.html#a3dcfe6794d82e79e92da5e2c62484b17" target="_top" xlink:title=" ">
<polygon fill="white" stroke="black" points="357,-161.5 357,-180.5 461,-180.5 461,-161.5 357,-161.5"/>
<text text-anchor="middle" x="409" y="-168.5" font-family="Helvetica,sans-Serif" font-size="10.00">exif_mem_realloc</text>
</a>
</g>
</g>
<!-- Node2&#45;&gt;Node7 -->
<g id="edge8" class="edge">
<title>Node2&#45;&gt;Node7</title>
<path fill="none" stroke="midnightblue" d="M287.77,-196.45C308.83,-191.99 332.44,-187 353.12,-182.62"/>
<polygon fill="midnightblue" stroke="midnightblue" points="353.95,-186.02 363.01,-180.52 352.5,-179.17 353.95,-186.02"/>
</g>
<!-- Node4 -->
<g id="node4" class="node">
<title>Node4</title>
<g id="a_node4"><a xlink:href="exif-entry_8c.html#a2879215e3863186650d3f32eb63bbaf4" target="_top" xlink:title="Actually free the ExifEntry.">
<polygon fill="white" stroke="black" points="532,-237.5 532,-256.5 623,-256.5 623,-237.5 532,-237.5"/>
<text text-anchor="middle" x="577.5" y="-244.5" font-family="Helvetica,sans-Serif" font-size="10.00">exif_entry_free</text>
</a>
</g>
</g>
<!-- Node3&#45;&gt;Node4 -->
<g id="edge3" class="edge">
<title>Node3&#45;&gt;Node4</title>
<path fill="none" stroke="midnightblue" d="M457.71,-247C477.69,-247 501.03,-247 521.7,-247"/>
<polygon fill="midnightblue" stroke="midnightblue" points="521.92,-250.5 531.92,-247 521.92,-243.5 521.92,-250.5"/>
</g>
<!-- Node4&#45;&gt;Node5 -->
<g id="edge4" class="edge">
<title>Node4&#45;&gt;Node5</title>
<path fill="none" stroke="midnightblue" d="M615.21,-256.51C631.56,-260.27 651.12,-264.14 669,-266 721.61,-271.46 735.47,-272.12 788,-266 800.48,-264.55 813.83,-261.87 826.01,-258.97"/>
<polygon fill="midnightblue" stroke="midnightblue" points="827.05,-262.32 835.91,-256.51 825.36,-255.52 827.05,-262.32"/>
</g>
<!-- Node6 -->
<g id="node6" class="node">
<title>Node6</title>
<g id="a_node6"><a xlink:href="exif-mem_8c.html#a66744e0987af08c443df247ce55f7d87" target="_top" xlink:title="Unrefcount an ExifMem.">
<polygon fill="white" stroke="black" points="680,-237.5 680,-256.5 777,-256.5 777,-237.5 680,-237.5"/>
<text text-anchor="middle" x="728.5" y="-244.5" font-family="Helvetica,sans-Serif" font-size="10.00">exif_mem_unref</text>
</a>
</g>
</g>
<!-- Node4&#45;&gt;Node6 -->
<g id="edge5" class="edge">
<title>Node4&#45;&gt;Node6</title>
<path fill="none" stroke="midnightblue" d="M623.2,-247C637.9,-247 654.45,-247 669.96,-247"/>
<polygon fill="midnightblue" stroke="midnightblue" points="669.98,-250.5 679.98,-247 669.98,-243.5 669.98,-250.5"/>
</g>
<!-- Node6&#45;&gt;Node5 -->
<g id="edge6" class="edge">
<title>Node6&#45;&gt;Node5</title>
<path fill="none" stroke="midnightblue" d="M777.34,-247C789,-247 801.56,-247 813.53,-247"/>
<polygon fill="midnightblue" stroke="midnightblue" points="813.85,-250.5 823.85,-247 813.85,-243.5 813.85,-250.5"/>
</g>
<!-- Node11 -->
<g id="node11" class="node">
<title>Node11</title>
<g id="a_node11"><a xlink:href="exif-log_8c.html#a99101b5ad01b2d82ce9d43c9e8534627" target="_top" xlink:title=" ">
<polygon fill="white" stroke="black" points="378,-79.5 378,-98.5 440,-98.5 440,-79.5 378,-79.5"/>
<text text-anchor="middle" x="409" y="-86.5" font-family="Helvetica,sans-Serif" font-size="10.00">exif_logv</text>
</a>
</g>
</g>
<!-- Node10&#45;&gt;Node11 -->
<g id="edge12" class="edge">
<title>Node10&#45;&gt;Node11</title>
<path fill="none" stroke="midnightblue" d="M255.76,-89C285.54,-89 333.53,-89 367.66,-89"/>
<polygon fill="midnightblue" stroke="midnightblue" points="367.78,-92.5 377.78,-89 367.78,-85.5 367.78,-92.5"/>
</g>
<!-- Node13 -->
<g id="node13" class="node">
<title>Node13</title>
<g id="a_node13"><a xlink:href="exif-tag_8c.html#a92f313f59c9f2fc4bebe2438be038bd9" target="_top" xlink:title="Return the support level of a tag in the given IFD, regardless of the data type.">
<polygon fill="white" stroke="black" points="332,-38.5 332,-57.5 486,-57.5 486,-38.5 332,-38.5"/>
<text text-anchor="middle" x="409" y="-45.5" font-family="Helvetica,sans-Serif" font-size="10.00">get_support_level_any_type</text>
</a>
</g>
</g>
<!-- Node12&#45;&gt;Node13 -->
<g id="edge14" class="edge">
<title>Node12&#45;&gt;Node13</title>
<path fill="none" stroke="midnightblue" d="M287.28,-45.98C298.27,-46.17 309.97,-46.36 321.59,-46.56"/>
<polygon fill="midnightblue" stroke="midnightblue" points="321.71,-50.06 331.77,-46.73 321.83,-43.06 321.71,-50.06"/>
</g>
<!-- Node17 -->
<g id="node17" class="node">
<title>Node17</title>
<g id="a_node17"><a xlink:href="exif-tag_8c.html#a1581a40dbcb0f27d4a3f8181b272c55b" target="_top" xlink:title="Return the support level of a tag in the given IFD with the given data type.">
<polygon fill="white" stroke="black" points="341,-0.5 341,-19.5 477,-19.5 477,-0.5 341,-0.5"/>
<text text-anchor="middle" x="409" y="-7.5" font-family="Helvetica,sans-Serif" font-size="10.00">get_support_level_in_ifd</text>
</a>
</g>
</g>
<!-- Node12&#45;&gt;Node17 -->
<g id="edge18" class="edge">
<title>Node12&#45;&gt;Node17</title>
<path fill="none" stroke="midnightblue" d="M287.28,-33.54C307.13,-29.67 329.29,-25.35 349.15,-21.47"/>
<polygon fill="midnightblue" stroke="midnightblue" points="349.85,-24.9 359,-19.55 348.51,-18.03 349.85,-24.9"/>
</g>
<!-- Node14 -->
<g id="node14" class="node">
<title>Node14</title>
<g id="a_node14"><a xlink:href="exif-tag_8c.html#a389f8ff3411e0525b28367892f1e78d3" target="_top" xlink:title="Finds the first entry in the EXIF tag table with the given tag number using a binary search.">
<polygon fill="white" stroke="black" points="522,-19.5 522,-38.5 633,-38.5 633,-19.5 522,-19.5"/>
<text text-anchor="middle" x="577.5" y="-26.5" font-family="Helvetica,sans-Serif" font-size="10.00">exif_tag_table_first</text>
</a>
</g>
</g>
<!-- Node13&#45;&gt;Node14 -->
<g id="edge15" class="edge">
<title>Node13&#45;&gt;Node14</title>
<path fill="none" stroke="midnightblue" d="M486.43,-39.28C494.94,-38.31 503.54,-37.33 511.88,-36.37"/>
<polygon fill="midnightblue" stroke="midnightblue" points="512.36,-39.84 521.9,-35.23 511.57,-32.89 512.36,-39.84"/>
</g>
<!-- Node15 -->
<g id="node15" class="node">
<title>Node15</title>
<g id="a_node15"><a xlink:href="exif-tag_8c.html#a87563ee64809f5f0deb4d780098508c1" target="_top" xlink:title="Return the number of entries in the EXIF tag table, including the terminating NULL entry.">
<polygon fill="white" stroke="black" points="669,-38.5 669,-57.5 788,-57.5 788,-38.5 669,-38.5"/>
<text text-anchor="middle" x="728.5" y="-45.5" font-family="Helvetica,sans-Serif" font-size="10.00">exif_tag_table_count</text>
</a>
</g>
</g>
<!-- Node14&#45;&gt;Node15 -->
<g id="edge16" class="edge">
<title>Node14&#45;&gt;Node15</title>
<path fill="none" stroke="midnightblue" d="M633.14,-35.97C641.49,-37.03 650.21,-38.14 658.82,-39.24"/>
<polygon fill="midnightblue" stroke="midnightblue" points="658.5,-42.73 668.86,-40.52 659.38,-35.79 658.5,-42.73"/>
</g>
<!-- Node16 -->
<g id="node16" class="node">
<title>Node16</title>
<g id="a_node16"><a xlink:href="exif-tag_8c.html#a220c1b18832f113bc84ff9551754915f" target="_top" xlink:title="Compares the tag with that in entry.">
<polygon fill="white" stroke="black" points="694.5,-0.5 694.5,-19.5 762.5,-19.5 762.5,-0.5 694.5,-0.5"/>
<text text-anchor="middle" x="728.5" y="-7.5" font-family="Helvetica,sans-Serif" font-size="10.00">match_tag</text>
</a>
</g>
</g>
<!-- Node14&#45;&gt;Node16 -->
<g id="edge17" class="edge">
<title>Node14&#45;&gt;Node16</title>
<path fill="none" stroke="midnightblue" d="M633.14,-22.03C649.9,-19.9 668.1,-17.57 684.01,-15.55"/>
<polygon fill="midnightblue" stroke="midnightblue" points="684.62,-19 694.1,-14.26 683.74,-12.05 684.62,-19"/>
</g>
<!-- Node17&#45;&gt;Node14 -->
<g id="edge19" class="edge">
<title>Node17&#45;&gt;Node14</title>
<path fill="none" stroke="midnightblue" d="M477.24,-17.67C488.57,-18.97 500.32,-20.31 511.59,-21.59"/>
<polygon fill="midnightblue" stroke="midnightblue" points="511.45,-25.1 521.78,-22.76 512.24,-18.14 511.45,-25.1"/>
</g>
</g>
</svg>
