<?xml version="1.0" encoding="UTF-8" standalone="no"?>
<!DOCTYPE svg PUBLIC "-//W3C//DTD SVG 1.1//EN"
 "http://www.w3.org/Graphics/SVG/1.1/DTD/svg11.dtd">
<!-- Generated by graphviz version 2.44.1 (0)
 -->
<!-- Title: exif_mnote_data_pentax_set_byte_order Pages: 1 -->
<svg width="714pt" height="474pt"
 viewBox="0.00 0.00 714.00 474.00" xmlns="http://www.w3.org/2000/svg" xmlns:xlink="http://www.w3.org/1999/xlink">
<g id="graph0" class="graph" transform="scale(1 1) rotate(0) translate(4 470)">
<title>exif_mnote_data_pentax_set_byte_order</title>
<polygon fill="white" stroke="transparent" points="-4,4 -4,-470 710,-470 710,4 -4,4"/>
<!-- Node1 -->
<g id="node1" class="node">
<title>Node1</title>
<g id="a_node1"><a xlink:title=" ">
<polygon fill="#bfbfbf" stroke="black" points="0,-254 0,-284 138,-284 138,-254 0,-254"/>
<text text-anchor="start" x="8" y="-272" font-family="Helvetica,sans-Serif" font-size="10.00">exif_mnote_data_pentax</text>
<text text-anchor="middle" x="69" y="-261" font-family="Helvetica,sans-Serif" font-size="10.00">_set_byte_order</text>
</a>
</g>
</g>
<!-- Node2 -->
<g id="node2" class="node">
<title>Node2</title>
<g id="a_node2"><a xlink:href="exif-utils_8c.html#a54ef3b86ffeb643e9c4434b85ccf2992" target="_top" xlink:title=" ">
<polygon fill="white" stroke="black" points="174,-232 174,-262 287,-262 287,-232 174,-232"/>
<text text-anchor="start" x="182" y="-250" font-family="Helvetica,sans-Serif" font-size="10.00">exif_array_set_byte</text>
<text text-anchor="middle" x="230.5" y="-239" font-family="Helvetica,sans-Serif" font-size="10.00">_order</text>
</a>
</g>
</g>
<!-- Node1&#45;&gt;Node2 -->
<g id="edge1" class="edge">
<title>Node1&#45;&gt;Node2</title>
<path fill="none" stroke="midnightblue" d="M138.11,-259.61C146.53,-258.44 155.14,-257.26 163.53,-256.1"/>
<polygon fill="midnightblue" stroke="midnightblue" points="164.21,-259.54 173.64,-254.7 163.26,-252.6 164.21,-259.54"/>
</g>
<!-- Node3 -->
<g id="node3" class="node">
<title>Node3</title>
<g id="a_node3"><a xlink:href="exif-format_8c.html#a924038efe0cd8ebade8f44619dd794f3" target="_top" xlink:title="Return the raw size of the given EXIF data type.">
<polygon fill="white" stroke="black" points="323,-446.5 323,-465.5 442,-465.5 442,-446.5 323,-446.5"/>
<text text-anchor="middle" x="382.5" y="-453.5" font-family="Helvetica,sans-Serif" font-size="10.00">exif_format_get_size</text>
</a>
</g>
</g>
<!-- Node1&#45;&gt;Node3 -->
<g id="edge23" class="edge">
<title>Node1&#45;&gt;Node3</title>
<path fill="none" stroke="midnightblue" d="M95.13,-284.12C140.58,-311.46 239.5,-370.94 323,-421 333.88,-427.52 345.91,-434.72 356.21,-440.88"/>
<polygon fill="midnightblue" stroke="midnightblue" points="354.73,-444.07 365.1,-446.2 358.32,-438.07 354.73,-444.07"/>
</g>
<!-- Node2&#45;&gt;Node3 -->
<g id="edge2" class="edge">
<title>Node2&#45;&gt;Node3</title>
<path fill="none" stroke="midnightblue" d="M239.05,-262.21C249.74,-283.75 269.88,-324.37 287,-359 303.03,-391.43 296.56,-407.32 323,-432 327.16,-435.89 332.04,-439.18 337.17,-441.97"/>
<polygon fill="midnightblue" stroke="midnightblue" points="336.05,-445.31 346.59,-446.45 339.06,-438.99 336.05,-445.31"/>
</g>
<!-- Node4 -->
<g id="node4" class="node">
<title>Node4</title>
<g id="a_node4"><a xlink:href="exif-utils_8c.html#a4ad94614630897766dd0a5c9bc2a59bf" target="_top" xlink:title="Retrieve an ExifLong value from memory.">
<polygon fill="white" stroke="black" points="488.5,-370.5 488.5,-389.5 571.5,-389.5 571.5,-370.5 488.5,-370.5"/>
<text text-anchor="middle" x="530" y="-377.5" font-family="Helvetica,sans-Serif" font-size="10.00">exif_get_long</text>
</a>
</g>
</g>
<!-- Node2&#45;&gt;Node4 -->
<g id="edge3" class="edge">
<title>Node2&#45;&gt;Node4</title>
<path fill="none" stroke="midnightblue" d="M238.26,-262.13C254.4,-297.48 295.85,-383.65 323,-399 378.29,-430.25 455.48,-409.27 497.94,-393.3"/>
<polygon fill="midnightblue" stroke="midnightblue" points="499.41,-396.48 507.45,-389.58 496.86,-389.96 499.41,-396.48"/>
</g>
<!-- Node5 -->
<g id="node5" class="node">
<title>Node5</title>
<g id="a_node5"><a xlink:href="exif-utils_8c.html#a56b96f076a13da6ed926e1ef29cb2dc3" target="_top" xlink:title="Retrieve an ExifSLong value from memory.">
<polygon fill="white" stroke="black" points="618,-332.5 618,-351.5 706,-351.5 706,-332.5 618,-332.5"/>
<text text-anchor="middle" x="662" y="-339.5" font-family="Helvetica,sans-Serif" font-size="10.00">exif_get_slong</text>
</a>
</g>
</g>
<!-- Node2&#45;&gt;Node5 -->
<g id="edge9" class="edge">
<title>Node2&#45;&gt;Node5</title>
<path fill="none" stroke="midnightblue" d="M244.19,-262.3C260.35,-280.51 290.14,-310.08 323,-323 417.82,-360.28 539.21,-355.79 607.71,-349"/>
<polygon fill="midnightblue" stroke="midnightblue" points="608.25,-352.46 617.83,-347.94 607.52,-345.5 608.25,-352.46"/>
</g>
<!-- Node6 -->
<g id="node6" class="node">
<title>Node6</title>
<g id="a_node6"><a xlink:href="exif-utils_8c.html#a1feb547c289aa57a4d2119338b03706c" target="_top" xlink:title="Retrieve an ExifRational value from memory.">
<polygon fill="white" stroke="black" points="333,-370.5 333,-389.5 432,-389.5 432,-370.5 333,-370.5"/>
<text text-anchor="middle" x="382.5" y="-377.5" font-family="Helvetica,sans-Serif" font-size="10.00">exif_get_rational</text>
</a>
</g>
</g>
<!-- Node2&#45;&gt;Node6 -->
<g id="edge5" class="edge">
<title>Node2&#45;&gt;Node6</title>
<path fill="none" stroke="midnightblue" d="M240.67,-262.03C255.42,-285.09 286.49,-329.33 323,-356 328.48,-360 334.72,-363.47 341.04,-366.43"/>
<polygon fill="midnightblue" stroke="midnightblue" points="339.71,-369.67 350.28,-370.41 342.48,-363.24 339.71,-369.67"/>
</g>
<!-- Node7 -->
<g id="node7" class="node">
<title>Node7</title>
<g id="a_node7"><a xlink:href="exif-utils_8c.html#a4b4acf537a8c6b9405e7b53be868e4d7" target="_top" xlink:title="Retrieve an ExifShort value from memory.">
<polygon fill="white" stroke="black" points="339.5,-294.5 339.5,-313.5 425.5,-313.5 425.5,-294.5 339.5,-294.5"/>
<text text-anchor="middle" x="382.5" y="-301.5" font-family="Helvetica,sans-Serif" font-size="10.00">exif_get_short</text>
</a>
</g>
</g>
<!-- Node2&#45;&gt;Node7 -->
<g id="edge7" class="edge">
<title>Node2&#45;&gt;Node7</title>
<path fill="none" stroke="midnightblue" d="M271.3,-262.13C294.74,-271.03 324.11,-282.19 346.63,-290.75"/>
<polygon fill="midnightblue" stroke="midnightblue" points="345.55,-294.08 356.14,-294.36 348.04,-287.54 345.55,-294.08"/>
</g>
<!-- Node8 -->
<g id="node8" class="node">
<title>Node8</title>
<g id="a_node8"><a xlink:href="exif-utils_8c.html#a6baf094a71392f9cea23ad633ec13c8b" target="_top" xlink:title="Retrieve an ExifSShort value from memory.">
<polygon fill="white" stroke="black" points="484,-284.5 484,-303.5 576,-303.5 576,-284.5 484,-284.5"/>
<text text-anchor="middle" x="530" y="-291.5" font-family="Helvetica,sans-Serif" font-size="10.00">exif_get_sshort</text>
</a>
</g>
</g>
<!-- Node2&#45;&gt;Node8 -->
<g id="edge12" class="edge">
<title>Node2&#45;&gt;Node8</title>
<path fill="none" stroke="midnightblue" d="M287.11,-255.79C340.51,-264.22 420.71,-276.89 473.93,-285.3"/>
<polygon fill="midnightblue" stroke="midnightblue" points="473.45,-288.77 483.87,-286.87 474.54,-281.85 473.45,-288.77"/>
</g>
<!-- Node9 -->
<g id="node9" class="node">
<title>Node9</title>
<g id="a_node9"><a xlink:href="exif-utils_8c.html#adb97c3499488d5642a82df1cb16dc2cb" target="_top" xlink:title="Retrieve an ExifSRational value from memory.">
<polygon fill="white" stroke="black" points="478,-227.5 478,-246.5 582,-246.5 582,-227.5 478,-227.5"/>
<text text-anchor="middle" x="530" y="-234.5" font-family="Helvetica,sans-Serif" font-size="10.00">exif_get_srational</text>
</a>
</g>
</g>
<!-- Node2&#45;&gt;Node9 -->
<g id="edge10" class="edge">
<title>Node2&#45;&gt;Node9</title>
<path fill="none" stroke="midnightblue" d="M287.11,-245.13C338.35,-243.41 414.27,-240.86 467.34,-239.07"/>
<polygon fill="midnightblue" stroke="midnightblue" points="467.76,-242.56 477.64,-238.73 467.53,-235.56 467.76,-242.56"/>
</g>
<!-- Node10 -->
<g id="node10" class="node">
<title>Node10</title>
<g id="a_node10"><a xlink:href="exif-utils_8c.html#ac90147d0cc97bec7a577bf9576191bf8" target="_top" xlink:title="Store an ExifLong value into memory in EXIF format.">
<polygon fill="white" stroke="black" points="489,-142.5 489,-161.5 571,-161.5 571,-142.5 489,-142.5"/>
<text text-anchor="middle" x="530" y="-149.5" font-family="Helvetica,sans-Serif" font-size="10.00">exif_set_long</text>
</a>
</g>
</g>
<!-- Node2&#45;&gt;Node10 -->
<g id="edge13" class="edge">
<title>Node2&#45;&gt;Node10</title>
<path fill="none" stroke="midnightblue" d="M278.64,-231.95C336.79,-213.38 434.62,-182.14 489.18,-164.72"/>
<polygon fill="midnightblue" stroke="midnightblue" points="490.38,-168.01 498.84,-161.63 488.25,-161.34 490.38,-168.01"/>
</g>
<!-- Node11 -->
<g id="node11" class="node">
<title>Node11</title>
<g id="a_node11"><a xlink:href="exif-utils_8c.html#ae6e3b9d1663f9ab9bd462d73a310ca03" target="_top" xlink:title="Store an ExifSLong value into memory in EXIF format.">
<polygon fill="white" stroke="black" points="618.5,-104.5 618.5,-123.5 705.5,-123.5 705.5,-104.5 618.5,-104.5"/>
<text text-anchor="middle" x="662" y="-111.5" font-family="Helvetica,sans-Serif" font-size="10.00">exif_set_slong</text>
</a>
</g>
</g>
<!-- Node2&#45;&gt;Node11 -->
<g id="edge19" class="edge">
<title>Node2&#45;&gt;Node11</title>
<path fill="none" stroke="midnightblue" d="M238.46,-231.76C251.12,-206.08 280.58,-154.83 323,-133 414.34,-85.99 538.5,-94.32 608.1,-104.33"/>
<polygon fill="midnightblue" stroke="midnightblue" points="607.97,-107.85 618.38,-105.88 609.01,-100.93 607.97,-107.85"/>
</g>
<!-- Node12 -->
<g id="node12" class="node">
<title>Node12</title>
<g id="a_node12"><a xlink:href="exif-utils_8c.html#a400a16b1754150f721e9fca67ad89a52" target="_top" xlink:title="Store an ExifRational value into memory in EXIF format.">
<polygon fill="white" stroke="black" points="333.5,-142.5 333.5,-161.5 431.5,-161.5 431.5,-142.5 333.5,-142.5"/>
<text text-anchor="middle" x="382.5" y="-149.5" font-family="Helvetica,sans-Serif" font-size="10.00">exif_set_rational</text>
</a>
</g>
</g>
<!-- Node2&#45;&gt;Node12 -->
<g id="edge15" class="edge">
<title>Node2&#45;&gt;Node12</title>
<path fill="none" stroke="midnightblue" d="M248.05,-231.91C265.65,-216.41 294.81,-192.32 323,-176 329.66,-172.14 337.07,-168.6 344.3,-165.49"/>
<polygon fill="midnightblue" stroke="midnightblue" points="346.06,-168.55 353.98,-161.52 343.4,-162.07 346.06,-168.55"/>
</g>
<!-- Node13 -->
<g id="node13" class="node">
<title>Node13</title>
<g id="a_node13"><a xlink:href="exif-utils_8c.html#ad905d16e26b4052a1db34dbebdc37341" target="_top" xlink:title="Store an ExifShort value into memory in EXIF format.">
<polygon fill="white" stroke="black" points="339.5,-66.5 339.5,-85.5 425.5,-85.5 425.5,-66.5 339.5,-66.5"/>
<text text-anchor="middle" x="382.5" y="-73.5" font-family="Helvetica,sans-Serif" font-size="10.00">exif_set_short</text>
</a>
</g>
</g>
<!-- Node2&#45;&gt;Node13 -->
<g id="edge17" class="edge">
<title>Node2&#45;&gt;Node13</title>
<path fill="none" stroke="midnightblue" d="M237.16,-231.93C248.88,-202.65 278.46,-137.64 323,-100 327.67,-96.05 333.08,-92.68 338.69,-89.83"/>
<polygon fill="midnightblue" stroke="midnightblue" points="340.56,-92.83 348.21,-85.51 337.66,-86.46 340.56,-92.83"/>
</g>
<!-- Node14 -->
<g id="node14" class="node">
<title>Node14</title>
<g id="a_node14"><a xlink:href="exif-utils_8c.html#a6504651147702fc6db9a5cd4aa997023" target="_top" xlink:title="Store an ExifSShort value into memory in EXIF format.">
<polygon fill="white" stroke="black" points="484.5,-57.5 484.5,-76.5 575.5,-76.5 575.5,-57.5 484.5,-57.5"/>
<text text-anchor="middle" x="530" y="-64.5" font-family="Helvetica,sans-Serif" font-size="10.00">exif_set_sshort</text>
</a>
</g>
</g>
<!-- Node2&#45;&gt;Node14 -->
<g id="edge22" class="edge">
<title>Node2&#45;&gt;Node14</title>
<path fill="none" stroke="midnightblue" d="M233.42,-231.86C239.1,-194.27 259.6,-96.83 323,-57 375.6,-23.95 451.51,-40.29 494.99,-54.25"/>
<polygon fill="midnightblue" stroke="midnightblue" points="493.93,-57.59 504.53,-57.45 496.16,-50.95 493.93,-57.59"/>
</g>
<!-- Node15 -->
<g id="node15" class="node">
<title>Node15</title>
<g id="a_node15"><a xlink:href="exif-utils_8c.html#aca1790a72b1833dff1b0bf728052c3c5" target="_top" xlink:title="Store an ExifSRational value into memory in EXIF format.">
<polygon fill="white" stroke="black" points="478,-0.5 478,-19.5 582,-19.5 582,-0.5 478,-0.5"/>
<text text-anchor="middle" x="530" y="-7.5" font-family="Helvetica,sans-Serif" font-size="10.00">exif_set_srational</text>
</a>
</g>
</g>
<!-- Node2&#45;&gt;Node15 -->
<g id="edge20" class="edge">
<title>Node2&#45;&gt;Node15</title>
<path fill="none" stroke="midnightblue" d="M232.89,-231.96C237.47,-192.01 255.86,-82.88 323,-33 364.14,-2.44 423.25,1.24 467.61,-1.51"/>
<polygon fill="midnightblue" stroke="midnightblue" points="467.46,-5.01 477.7,-2.27 467.98,1.97 467.46,-5.01"/>
</g>
<!-- Node4&#45;&gt;Node5 -->
<g id="edge4" class="edge">
<title>Node4&#45;&gt;Node5</title>
<path fill="none" stroke="midnightblue" d="M563.8,-370.41C580.28,-365.6 600.44,-359.7 618.13,-354.53"/>
<polygon fill="midnightblue" stroke="midnightblue" points="619.59,-357.75 628.21,-351.59 617.63,-351.03 619.59,-357.75"/>
</g>
<!-- Node6&#45;&gt;Node4 -->
<g id="edge6" class="edge">
<title>Node6&#45;&gt;Node4</title>
<path fill="none" stroke="midnightblue" d="M432.35,-380C447.11,-380 463.34,-380 478.22,-380"/>
<polygon fill="midnightblue" stroke="midnightblue" points="478.27,-383.5 488.27,-380 478.27,-376.5 478.27,-383.5"/>
</g>
<!-- Node7&#45;&gt;Node8 -->
<g id="edge8" class="edge">
<title>Node7&#45;&gt;Node8</title>
<path fill="none" stroke="midnightblue" d="M425.58,-301.11C440.59,-300.08 457.73,-298.9 473.69,-297.8"/>
<polygon fill="midnightblue" stroke="midnightblue" points="474.23,-301.27 483.96,-297.1 473.75,-294.29 474.23,-301.27"/>
</g>
<!-- Node9&#45;&gt;Node5 -->
<g id="edge11" class="edge">
<title>Node9&#45;&gt;Node5</title>
<path fill="none" stroke="midnightblue" d="M544.6,-246.77C554.97,-254.32 569.56,-265.1 582,-275 603.09,-291.78 626.57,-311.87 642.4,-325.65"/>
<polygon fill="midnightblue" stroke="midnightblue" points="640.1,-328.29 649.93,-332.23 644.71,-323.02 640.1,-328.29"/>
</g>
<!-- Node10&#45;&gt;Node11 -->
<g id="edge14" class="edge">
<title>Node10&#45;&gt;Node11</title>
<path fill="none" stroke="midnightblue" d="M563.8,-142.41C580.28,-137.6 600.44,-131.7 618.13,-126.53"/>
<polygon fill="midnightblue" stroke="midnightblue" points="619.59,-129.75 628.21,-123.59 617.63,-123.03 619.59,-129.75"/>
</g>
<!-- Node12&#45;&gt;Node10 -->
<g id="edge16" class="edge">
<title>Node12&#45;&gt;Node10</title>
<path fill="none" stroke="midnightblue" d="M431.55,-152C446.61,-152 463.28,-152 478.51,-152"/>
<polygon fill="midnightblue" stroke="midnightblue" points="478.78,-155.5 488.78,-152 478.78,-148.5 478.78,-155.5"/>
</g>
<!-- Node13&#45;&gt;Node14 -->
<g id="edge18" class="edge">
<title>Node13&#45;&gt;Node14</title>
<path fill="none" stroke="midnightblue" d="M425.58,-73.4C440.73,-72.46 458.05,-71.39 474.12,-70.39"/>
<polygon fill="midnightblue" stroke="midnightblue" points="474.71,-73.86 484.47,-69.75 474.28,-66.88 474.71,-73.86"/>
</g>
<!-- Node15&#45;&gt;Node11 -->
<g id="edge21" class="edge">
<title>Node15&#45;&gt;Node11</title>
<path fill="none" stroke="midnightblue" d="M544.58,-19.8C554.94,-27.36 569.52,-38.15 582,-48 602.83,-64.44 626.08,-84.02 641.93,-97.56"/>
<polygon fill="midnightblue" stroke="midnightblue" points="640.04,-100.55 649.91,-104.4 644.6,-95.24 640.04,-100.55"/>
</g>
</g>
</svg>
