<?xml version="1.0" encoding="UTF-8" standalone="no"?>
<!DOCTYPE svg PUBLIC "-//W3C//DTD SVG 1.1//EN"
 "http://www.w3.org/Graphics/SVG/1.1/DTD/svg11.dtd">
<!-- Generated by graphviz version 2.44.1 (0)
 -->
<!-- Title: exif_mnote_data_pentax_new Pages: 1 -->
<svg width="992pt" height="913pt"
 viewBox="0.00 0.00 992.00 913.34" xmlns="http://www.w3.org/2000/svg" xmlns:xlink="http://www.w3.org/1999/xlink">
<g id="graph0" class="graph" transform="scale(1 1) rotate(0) translate(4 909.34)">
<title>exif_mnote_data_pentax_new</title>
<polygon fill="white" stroke="transparent" points="-4,4 -4,-909.34 988,-909.34 988,4 -4,4"/>
<!-- Node1 -->
<g id="node1" class="node">
<title>Node1</title>
<g id="a_node1"><a xlink:title=" ">
<polygon fill="#bfbfbf" stroke="black" points="0,-612.34 0,-631.34 164,-631.34 164,-612.34 0,-612.34"/>
<text text-anchor="middle" x="82" y="-619.34" font-family="Helvetica,sans-Serif" font-size="10.00">exif_mnote_data_pentax_new</text>
</a>
</g>
</g>
<!-- Node2 -->
<g id="node2" class="node">
<title>Node2</title>
<g id="a_node2"><a xlink:href="exif-mem_8c.html#ae8c09cfbcb95e435c4c4b7ec3bbd79e4" target="_top" xlink:title=" ">
<polygon fill="white" stroke="black" points="436.5,-700.34 436.5,-719.34 531.5,-719.34 531.5,-700.34 436.5,-700.34"/>
<text text-anchor="middle" x="484" y="-707.34" font-family="Helvetica,sans-Serif" font-size="10.00">exif_mem_alloc</text>
</a>
</g>
</g>
<!-- Node1&#45;&gt;Node2 -->
<g id="edge1" class="edge">
<title>Node1&#45;&gt;Node2</title>
<path fill="none" stroke="midnightblue" d="M95.09,-631.43C115.4,-646.92 158.23,-676.99 200,-689.84 275.83,-713.18 368.28,-715.06 426.41,-713.26"/>
<polygon fill="midnightblue" stroke="midnightblue" points="426.63,-716.75 436.49,-712.89 426.38,-709.76 426.63,-716.75"/>
</g>
<!-- Node3 -->
<g id="node3" class="node">
<title>Node3</title>
<g id="a_node3"><a xlink:href="exif-mnote-data-priv_8h.html#a06db5604f65a97b1c5ea3fcc4bfec7dc" target="_top" xlink:title=" ">
<polygon fill="white" stroke="black" points="209,-738.34 209,-757.34 358,-757.34 358,-738.34 209,-738.34"/>
<text text-anchor="middle" x="283.5" y="-745.34" font-family="Helvetica,sans-Serif" font-size="10.00">exif_mnote_data_construct</text>
</a>
</g>
</g>
<!-- Node1&#45;&gt;Node3 -->
<g id="edge2" class="edge">
<title>Node1&#45;&gt;Node3</title>
<path fill="none" stroke="midnightblue" d="M91.36,-631.54C109.24,-651.71 153.41,-698.39 200,-723.84 208.36,-728.41 217.67,-732.19 226.95,-735.29"/>
<polygon fill="midnightblue" stroke="midnightblue" points="225.98,-738.65 236.57,-738.29 228.06,-731.97 225.98,-738.65"/>
</g>
<!-- Node5 -->
<g id="node5" class="node">
<title>Node5</title>
<g id="a_node5"><a xlink:href="exif-mnote-data-pentax_8c.html#a19bed17d86d273b41f5ee6e93c00d57b" target="_top" xlink:title=" ">
<polygon fill="white" stroke="black" points="214.5,-776.84 214.5,-806.84 352.5,-806.84 352.5,-776.84 214.5,-776.84"/>
<text text-anchor="start" x="222.5" y="-794.84" font-family="Helvetica,sans-Serif" font-size="10.00">exif_mnote_data_pentax</text>
<text text-anchor="middle" x="283.5" y="-783.84" font-family="Helvetica,sans-Serif" font-size="10.00">_count</text>
</a>
</g>
</g>
<!-- Node1&#45;&gt;Node5 -->
<g id="edge5" class="edge">
<title>Node1&#45;&gt;Node5</title>
<path fill="none" stroke="midnightblue" d="M88.12,-631.63C102.25,-657.71 144.48,-729.42 200,-766.84 202.94,-768.83 206.05,-770.66 209.26,-772.35"/>
<polygon fill="midnightblue" stroke="midnightblue" points="208.02,-775.63 218.56,-776.74 211.01,-769.3 208.02,-775.63"/>
</g>
<!-- Node6 -->
<g id="node6" class="node">
<title>Node6</title>
<g id="a_node6"><a xlink:href="exif-mnote-data-pentax_8c.html#a82d158e7f9acb024ff6278598615256c" target="_top" xlink:title=" ">
<polygon fill="white" stroke="black" points="202,-612.34 202,-631.34 365,-631.34 365,-612.34 202,-612.34"/>
<text text-anchor="middle" x="283.5" y="-619.34" font-family="Helvetica,sans-Serif" font-size="10.00">exif_mnote_data_pentax_free</text>
</a>
</g>
</g>
<!-- Node1&#45;&gt;Node6 -->
<g id="edge6" class="edge">
<title>Node1&#45;&gt;Node6</title>
<path fill="none" stroke="midnightblue" d="M164.14,-621.84C173.16,-621.84 182.38,-621.84 191.51,-621.84"/>
<polygon fill="midnightblue" stroke="midnightblue" points="191.75,-625.34 201.75,-621.84 191.75,-618.34 191.75,-625.34"/>
</g>
<!-- Node9 -->
<g id="node9" class="node">
<title>Node9</title>
<g id="a_node9"><a xlink:href="exif-mnote-data-pentax_8c.html#ab93a4d276686f71eb66c5d8842ecb5ea" target="_top" xlink:title=" ">
<polygon fill="white" stroke="black" points="214.5,-874.84 214.5,-904.84 352.5,-904.84 352.5,-874.84 214.5,-874.84"/>
<text text-anchor="start" x="222.5" y="-892.84" font-family="Helvetica,sans-Serif" font-size="10.00">exif_mnote_data_pentax</text>
<text text-anchor="middle" x="283.5" y="-881.84" font-family="Helvetica,sans-Serif" font-size="10.00">_get_description</text>
</a>
</g>
</g>
<!-- Node1&#45;&gt;Node9 -->
<g id="edge9" class="edge">
<title>Node1&#45;&gt;Node9</title>
<path fill="none" stroke="midnightblue" d="M84.74,-631.42C91.86,-667.73 122.11,-798.15 200,-864.84 201.99,-866.55 204.09,-868.13 206.28,-869.61"/>
<polygon fill="midnightblue" stroke="midnightblue" points="204.73,-872.76 215.12,-874.8 208.27,-866.72 204.73,-872.76"/>
</g>
<!-- Node11 -->
<g id="node11" class="node">
<title>Node11</title>
<g id="a_node11"><a xlink:href="exif-mnote-data-pentax_8c.html#a9dbd1aba48c7214b7f0d96c483655ae9" target="_top" xlink:title=" ">
<polygon fill="white" stroke="black" points="214.5,-650.84 214.5,-680.84 352.5,-680.84 352.5,-650.84 214.5,-650.84"/>
<text text-anchor="start" x="222.5" y="-668.84" font-family="Helvetica,sans-Serif" font-size="10.00">exif_mnote_data_pentax</text>
<text text-anchor="middle" x="283.5" y="-657.84" font-family="Helvetica,sans-Serif" font-size="10.00">_get_id</text>
</a>
</g>
</g>
<!-- Node1&#45;&gt;Node11 -->
<g id="edge11" class="edge">
<title>Node1&#45;&gt;Node11</title>
<path fill="none" stroke="midnightblue" d="M126.29,-631.39C149.05,-636.41 177.66,-642.72 204.16,-648.56"/>
<polygon fill="midnightblue" stroke="midnightblue" points="203.67,-652.04 214.19,-650.78 205.18,-645.21 203.67,-652.04"/>
</g>
<!-- Node12 -->
<g id="node12" class="node">
<title>Node12</title>
<g id="a_node12"><a xlink:href="exif-mnote-data-pentax_8c.html#a96600e3e6e7f5f086901c75c641d67e1" target="_top" xlink:title=" ">
<polygon fill="white" stroke="black" points="214.5,-562.84 214.5,-592.84 352.5,-592.84 352.5,-562.84 214.5,-562.84"/>
<text text-anchor="start" x="222.5" y="-580.84" font-family="Helvetica,sans-Serif" font-size="10.00">exif_mnote_data_pentax</text>
<text text-anchor="middle" x="283.5" y="-569.84" font-family="Helvetica,sans-Serif" font-size="10.00">_get_name</text>
</a>
</g>
</g>
<!-- Node1&#45;&gt;Node12 -->
<g id="edge12" class="edge">
<title>Node1&#45;&gt;Node12</title>
<path fill="none" stroke="midnightblue" d="M126.29,-612.29C149.05,-607.27 177.66,-600.96 204.16,-595.12"/>
<polygon fill="midnightblue" stroke="midnightblue" points="205.18,-598.48 214.19,-592.91 203.67,-591.64 205.18,-598.48"/>
</g>
<!-- Node14 -->
<g id="node14" class="node">
<title>Node14</title>
<g id="a_node14"><a xlink:href="exif-mnote-data-pentax_8c.html#a8ae95c8342e4d90900ef782fb7d4f469" target="_top" xlink:title=" ">
<polygon fill="white" stroke="black" points="214.5,-825.84 214.5,-855.84 352.5,-855.84 352.5,-825.84 214.5,-825.84"/>
<text text-anchor="start" x="222.5" y="-843.84" font-family="Helvetica,sans-Serif" font-size="10.00">exif_mnote_data_pentax</text>
<text text-anchor="middle" x="283.5" y="-832.84" font-family="Helvetica,sans-Serif" font-size="10.00">_get_title</text>
</a>
</g>
</g>
<!-- Node1&#45;&gt;Node14 -->
<g id="edge14" class="edge">
<title>Node1&#45;&gt;Node14</title>
<path fill="none" stroke="midnightblue" d="M86.05,-631.62C96.44,-663.32 133.57,-764.16 200,-815.84 202.33,-817.65 204.78,-819.33 207.33,-820.89"/>
<polygon fill="midnightblue" stroke="midnightblue" points="205.87,-824.07 216.33,-825.73 209.19,-817.91 205.87,-824.07"/>
</g>
<!-- Node16 -->
<g id="node16" class="node">
<title>Node16</title>
<g id="a_node16"><a xlink:href="exif-mnote-data-pentax_8c.html#aae77b40af2bb904239a48f0b42143e9c" target="_top" xlink:title=" ">
<polygon fill="white" stroke="black" points="214.5,-474.84 214.5,-504.84 352.5,-504.84 352.5,-474.84 214.5,-474.84"/>
<text text-anchor="start" x="222.5" y="-492.84" font-family="Helvetica,sans-Serif" font-size="10.00">exif_mnote_data_pentax</text>
<text text-anchor="middle" x="283.5" y="-481.84" font-family="Helvetica,sans-Serif" font-size="10.00">_get_value</text>
</a>
</g>
</g>
<!-- Node1&#45;&gt;Node16 -->
<g id="edge16" class="edge">
<title>Node1&#45;&gt;Node16</title>
<path fill="none" stroke="midnightblue" d="M90.74,-612.32C108.1,-591.57 152.4,-541.94 200,-514.84 203.73,-512.72 207.66,-510.76 211.7,-508.95"/>
<polygon fill="midnightblue" stroke="midnightblue" points="213.37,-512.05 221.28,-505 210.7,-505.57 213.37,-512.05"/>
</g>
<!-- Node22 -->
<g id="node22" class="node">
<title>Node22</title>
<g id="a_node22"><a xlink:href="exif-mnote-data-pentax_8c.html#a15b400b4eddbdda7f4a929105d5224f0" target="_top" xlink:title=" ">
<polygon fill="white" stroke="black" points="201.5,-524.34 201.5,-543.34 365.5,-543.34 365.5,-524.34 201.5,-524.34"/>
<text text-anchor="middle" x="283.5" y="-531.34" font-family="Helvetica,sans-Serif" font-size="10.00">exif_mnote_data_pentax_load</text>
</a>
</g>
</g>
<!-- Node1&#45;&gt;Node22 -->
<g id="edge24" class="edge">
<title>Node1&#45;&gt;Node22</title>
<path fill="none" stroke="midnightblue" d="M96.34,-612.11C117.35,-597.22 159.92,-568.83 200,-552.84 206.33,-550.32 213.07,-548.08 219.87,-546.12"/>
<polygon fill="midnightblue" stroke="midnightblue" points="221.09,-549.42 229.83,-543.43 219.26,-542.66 221.09,-549.42"/>
</g>
<!-- Node26 -->
<g id="node26" class="node">
<title>Node26</title>
<g id="a_node26"><a xlink:href="exif-mnote-data-pentax_8c.html#ad22a94b7c0413edbd6315576a8cb0df8" target="_top" xlink:title="save the MnoteData from ne to buf">
<polygon fill="white" stroke="black" points="200,-372.34 200,-391.34 367,-391.34 367,-372.34 200,-372.34"/>
<text text-anchor="middle" x="283.5" y="-379.34" font-family="Helvetica,sans-Serif" font-size="10.00">exif_mnote_data_pentax_save</text>
</a>
</g>
</g>
<!-- Node1&#45;&gt;Node26 -->
<g id="edge33" class="edge">
<title>Node1&#45;&gt;Node26</title>
<path fill="none" stroke="midnightblue" d="M89.41,-612.28C106.38,-587.22 154.28,-517.88 200,-464.84 220.86,-440.64 247.23,-414.85 264.46,-398.56"/>
<polygon fill="midnightblue" stroke="midnightblue" points="267.22,-400.76 272.12,-391.37 262.43,-395.66 267.22,-400.76"/>
</g>
<!-- Node32 -->
<g id="node32" class="node">
<title>Node32</title>
<g id="a_node32"><a xlink:href="exif-mnote-data-pentax_8c.html#a086e5b21d67069237955d8f30bd6c3c5" target="_top" xlink:title=" ">
<polygon fill="white" stroke="black" points="214.5,-287.84 214.5,-317.84 352.5,-317.84 352.5,-287.84 214.5,-287.84"/>
<text text-anchor="start" x="222.5" y="-305.84" font-family="Helvetica,sans-Serif" font-size="10.00">exif_mnote_data_pentax</text>
<text text-anchor="middle" x="283.5" y="-294.84" font-family="Helvetica,sans-Serif" font-size="10.00">_set_byte_order</text>
</a>
</g>
</g>
<!-- Node1&#45;&gt;Node32 -->
<g id="edge42" class="edge">
<title>Node1&#45;&gt;Node32</title>
<path fill="none" stroke="midnightblue" d="M85.48,-611.93C95,-575.42 132.1,-446.27 200,-362.84 212.73,-347.2 230.47,-333.59 246.23,-323.32"/>
<polygon fill="midnightblue" stroke="midnightblue" points="248.15,-326.25 254.75,-317.96 244.42,-320.32 248.15,-326.25"/>
</g>
<!-- Node38 -->
<g id="node38" class="node">
<title>Node38</title>
<g id="a_node38"><a xlink:href="exif-mnote-data-pentax_8c.html#a0fc18a8b6cd347be2eb68b4a05b200d6" target="_top" xlink:title=" ">
<polygon fill="white" stroke="black" points="214.5,-238.84 214.5,-268.84 352.5,-268.84 352.5,-238.84 214.5,-238.84"/>
<text text-anchor="start" x="222.5" y="-256.84" font-family="Helvetica,sans-Serif" font-size="10.00">exif_mnote_data_pentax</text>
<text text-anchor="middle" x="283.5" y="-245.84" font-family="Helvetica,sans-Serif" font-size="10.00">_set_offset</text>
</a>
</g>
</g>
<!-- Node1&#45;&gt;Node38 -->
<g id="edge62" class="edge">
<title>Node1&#45;&gt;Node38</title>
<path fill="none" stroke="midnightblue" d="M83.22,-612.25C84.78,-567.33 97.42,-375.93 200,-277.84 201.71,-276.21 203.52,-274.69 205.42,-273.27"/>
<polygon fill="midnightblue" stroke="midnightblue" points="207.66,-275.99 214.22,-267.67 203.91,-270.08 207.66,-275.99"/>
</g>
<!-- Node3&#45;&gt;Node2 -->
<g id="edge3" class="edge">
<title>Node3&#45;&gt;Node2</title>
<path fill="none" stroke="midnightblue" d="M334.33,-738.3C362.28,-732.95 397.24,-726.26 426.23,-720.71"/>
<polygon fill="midnightblue" stroke="midnightblue" points="427.05,-724.12 436.22,-718.8 425.74,-717.24 427.05,-724.12"/>
</g>
<!-- Node4 -->
<g id="node4" class="node">
<title>Node4</title>
<g id="a_node4"><a xlink:href="exif-mem_8c.html#af28c61972f529be46907956e0b3e7a60" target="_top" xlink:title="Refcount an ExifMem.">
<polygon fill="white" stroke="black" points="441.5,-738.34 441.5,-757.34 526.5,-757.34 526.5,-738.34 441.5,-738.34"/>
<text text-anchor="middle" x="484" y="-745.34" font-family="Helvetica,sans-Serif" font-size="10.00">exif_mem_ref</text>
</a>
</g>
</g>
<!-- Node3&#45;&gt;Node4 -->
<g id="edge4" class="edge">
<title>Node3&#45;&gt;Node4</title>
<path fill="none" stroke="midnightblue" d="M358.13,-747.84C382.42,-747.84 408.91,-747.84 431.21,-747.84"/>
<polygon fill="midnightblue" stroke="midnightblue" points="431.47,-751.34 441.47,-747.84 431.47,-744.34 431.47,-751.34"/>
</g>
<!-- Node7 -->
<g id="node7" class="node">
<title>Node7</title>
<g id="a_node7"><a xlink:href="exif-mnote-data-pentax_8c.html#a5692961f9f5ea8ac552d06fbfae94608" target="_top" xlink:title=" ">
<polygon fill="white" stroke="black" points="415,-650.84 415,-680.84 553,-680.84 553,-650.84 415,-650.84"/>
<text text-anchor="start" x="423" y="-668.84" font-family="Helvetica,sans-Serif" font-size="10.00">exif_mnote_data_pentax</text>
<text text-anchor="middle" x="484" y="-657.84" font-family="Helvetica,sans-Serif" font-size="10.00">_clear</text>
</a>
</g>
</g>
<!-- Node6&#45;&gt;Node7 -->
<g id="edge7" class="edge">
<title>Node6&#45;&gt;Node7</title>
<path fill="none" stroke="midnightblue" d="M327.57,-631.39C350.22,-636.41 378.69,-642.72 405.05,-648.56"/>
<polygon fill="midnightblue" stroke="midnightblue" points="404.51,-652.03 415.03,-650.78 406.03,-645.2 404.51,-652.03"/>
</g>
<!-- Node8 -->
<g id="node8" class="node">
<title>Node8</title>
<g id="a_node8"><a xlink:href="exif-mem_8c.html#a43190b81b4b4bdb4ffb89bfb612051b1" target="_top" xlink:title=" ">
<polygon fill="white" stroke="black" points="615,-676.34 615,-695.34 706,-695.34 706,-676.34 615,-676.34"/>
<text text-anchor="middle" x="660.5" y="-683.34" font-family="Helvetica,sans-Serif" font-size="10.00">exif_mem_free</text>
</a>
</g>
</g>
<!-- Node7&#45;&gt;Node8 -->
<g id="edge8" class="edge">
<title>Node7&#45;&gt;Node8</title>
<path fill="none" stroke="midnightblue" d="M553.22,-673.66C570.39,-675.63 588.61,-677.72 605.01,-679.6"/>
<polygon fill="midnightblue" stroke="midnightblue" points="604.63,-683.08 614.97,-680.74 605.43,-676.12 604.63,-683.08"/>
</g>
<!-- Node10 -->
<g id="node10" class="node">
<title>Node10</title>
<g id="a_node10"><a xlink:href="mnote-pentax-tag_8c.html#a30ee5edeecdce79957826fd41dfe2e2d" target="_top" xlink:title=" ">
<polygon fill="white" stroke="black" points="419.5,-874.84 419.5,-904.84 548.5,-904.84 548.5,-874.84 419.5,-874.84"/>
<text text-anchor="start" x="427.5" y="-892.84" font-family="Helvetica,sans-Serif" font-size="10.00">mnote_pentax_tag_get</text>
<text text-anchor="middle" x="484" y="-881.84" font-family="Helvetica,sans-Serif" font-size="10.00">_description</text>
</a>
</g>
</g>
<!-- Node9&#45;&gt;Node10 -->
<g id="edge10" class="edge">
<title>Node9&#45;&gt;Node10</title>
<path fill="none" stroke="midnightblue" d="M352.53,-889.84C370.81,-889.84 390.66,-889.84 409.23,-889.84"/>
<polygon fill="midnightblue" stroke="midnightblue" points="409.4,-893.34 419.4,-889.84 409.4,-886.34 409.4,-893.34"/>
</g>
<!-- Node13 -->
<g id="node13" class="node">
<title>Node13</title>
<g id="a_node13"><a xlink:href="mnote-pentax-tag_8c.html#aff5ff8ef6f5f5d183146b9f867036851" target="_top" xlink:title=" ">
<polygon fill="white" stroke="black" points="403,-612.34 403,-631.34 565,-631.34 565,-612.34 403,-612.34"/>
<text text-anchor="middle" x="484" y="-619.34" font-family="Helvetica,sans-Serif" font-size="10.00">mnote_pentax_tag_get_name</text>
</a>
</g>
</g>
<!-- Node12&#45;&gt;Node13 -->
<g id="edge13" class="edge">
<title>Node12&#45;&gt;Node13</title>
<path fill="none" stroke="midnightblue" d="M352.26,-592.86C377.71,-598.5 406.25,-604.83 430.15,-610.13"/>
<polygon fill="midnightblue" stroke="midnightblue" points="429.57,-613.58 440.09,-612.33 431.08,-606.75 429.57,-613.58"/>
</g>
<!-- Node15 -->
<g id="node15" class="node">
<title>Node15</title>
<g id="a_node15"><a xlink:href="mnote-pentax-tag_8c.html#a6324d52fb2344ccfccedcf8af394c7d0" target="_top" xlink:title=" ">
<polygon fill="white" stroke="black" points="419.5,-825.84 419.5,-855.84 548.5,-855.84 548.5,-825.84 419.5,-825.84"/>
<text text-anchor="start" x="427.5" y="-843.84" font-family="Helvetica,sans-Serif" font-size="10.00">mnote_pentax_tag_get</text>
<text text-anchor="middle" x="484" y="-832.84" font-family="Helvetica,sans-Serif" font-size="10.00">_title</text>
</a>
</g>
</g>
<!-- Node14&#45;&gt;Node15 -->
<g id="edge15" class="edge">
<title>Node14&#45;&gt;Node15</title>
<path fill="none" stroke="midnightblue" d="M352.53,-840.84C370.81,-840.84 390.66,-840.84 409.23,-840.84"/>
<polygon fill="midnightblue" stroke="midnightblue" points="409.4,-844.34 419.4,-840.84 409.4,-837.34 409.4,-844.34"/>
</g>
<!-- Node17 -->
<g id="node17" class="node">
<title>Node17</title>
<g id="a_node17"><a xlink:href="mnote-pentax-entry_8c.html#adb79ea438e2552d504077606912af8ac" target="_top" xlink:title=" ">
<polygon fill="white" stroke="black" points="425,-524.84 425,-554.84 543,-554.84 543,-524.84 425,-524.84"/>
<text text-anchor="start" x="433" y="-542.84" font-family="Helvetica,sans-Serif" font-size="10.00">mnote_pentax_entry</text>
<text text-anchor="middle" x="484" y="-531.84" font-family="Helvetica,sans-Serif" font-size="10.00">_get_value</text>
</a>
</g>
</g>
<!-- Node16&#45;&gt;Node17 -->
<g id="edge17" class="edge">
<title>Node16&#45;&gt;Node17</title>
<path fill="none" stroke="midnightblue" d="M344.06,-504.84C366.44,-510.48 392.05,-516.93 415.13,-522.75"/>
<polygon fill="midnightblue" stroke="midnightblue" points="414.3,-526.15 424.85,-525.2 416.01,-519.36 414.3,-526.15"/>
</g>
<!-- Node18 -->
<g id="node18" class="node">
<title>Node18</title>
<g id="a_node18"><a xlink:href="exif-utils_8c.html#a4ad94614630897766dd0a5c9bc2a59bf" target="_top" xlink:title="Retrieve an ExifLong value from memory.">
<polygon fill="white" stroke="black" points="766.5,-296.34 766.5,-315.34 849.5,-315.34 849.5,-296.34 766.5,-296.34"/>
<text text-anchor="middle" x="808" y="-303.34" font-family="Helvetica,sans-Serif" font-size="10.00">exif_get_long</text>
</a>
</g>
</g>
<!-- Node17&#45;&gt;Node18 -->
<g id="edge18" class="edge">
<title>Node17&#45;&gt;Node18</title>
<path fill="none" stroke="midnightblue" d="M543.24,-540.28C603.63,-539.59 692.96,-535.03 720,-514.84 782.61,-468.11 800.44,-367.95 805.29,-325.5"/>
<polygon fill="midnightblue" stroke="midnightblue" points="808.79,-325.67 806.32,-315.36 801.82,-324.96 808.79,-325.67"/>
</g>
<!-- Node19 -->
<g id="node19" class="node">
<title>Node19</title>
<g id="a_node19"><a xlink:href="exif-utils_8c.html#a56b96f076a13da6ed926e1ef29cb2dc3" target="_top" xlink:title="Retrieve an ExifSLong value from memory.">
<polygon fill="white" stroke="black" points="896,-239.34 896,-258.34 984,-258.34 984,-239.34 896,-239.34"/>
<text text-anchor="middle" x="940" y="-246.34" font-family="Helvetica,sans-Serif" font-size="10.00">exif_get_slong</text>
</a>
</g>
</g>
<!-- Node17&#45;&gt;Node19 -->
<g id="edge22" class="edge">
<title>Node17&#45;&gt;Node19</title>
<path fill="none" stroke="midnightblue" d="M533.94,-554.85C615.13,-576.36 776.94,-604.22 860,-514.84 926.79,-442.97 937.31,-317.09 938.82,-268.63"/>
<polygon fill="midnightblue" stroke="midnightblue" points="942.32,-268.61 939.03,-258.54 935.32,-268.46 942.32,-268.61"/>
</g>
<!-- Node20 -->
<g id="node20" class="node">
<title>Node20</title>
<g id="a_node20"><a xlink:href="exif-utils_8c.html#a4b4acf537a8c6b9405e7b53be868e4d7" target="_top" xlink:title="Retrieve an ExifShort value from memory.">
<polygon fill="white" stroke="black" points="617.5,-486.34 617.5,-505.34 703.5,-505.34 703.5,-486.34 617.5,-486.34"/>
<text text-anchor="middle" x="660.5" y="-493.34" font-family="Helvetica,sans-Serif" font-size="10.00">exif_get_short</text>
</a>
</g>
</g>
<!-- Node17&#45;&gt;Node20 -->
<g id="edge20" class="edge">
<title>Node17&#45;&gt;Node20</title>
<path fill="none" stroke="midnightblue" d="M543.11,-525.19C565.44,-519.56 590.66,-513.2 611.9,-507.84"/>
<polygon fill="midnightblue" stroke="midnightblue" points="612.82,-511.22 621.66,-505.38 611.11,-504.43 612.82,-511.22"/>
</g>
<!-- Node21 -->
<g id="node21" class="node">
<title>Node21</title>
<g id="a_node21"><a xlink:href="exif-utils_8c.html#a6baf094a71392f9cea23ad633ec13c8b" target="_top" xlink:title="Retrieve an ExifSShort value from memory.">
<polygon fill="white" stroke="black" points="762,-486.34 762,-505.34 854,-505.34 854,-486.34 762,-486.34"/>
<text text-anchor="middle" x="808" y="-493.34" font-family="Helvetica,sans-Serif" font-size="10.00">exif_get_sshort</text>
</a>
</g>
</g>
<!-- Node17&#45;&gt;Node21 -->
<g id="edge23" class="edge">
<title>Node17&#45;&gt;Node21</title>
<path fill="none" stroke="midnightblue" d="M543.11,-551.35C591.38,-558.66 661.37,-564.03 720,-547.84 745.42,-540.82 770.9,-524.2 787.65,-511.62"/>
<polygon fill="midnightblue" stroke="midnightblue" points="789.81,-514.38 795.57,-505.49 785.52,-508.85 789.81,-514.38"/>
</g>
<!-- Node18&#45;&gt;Node19 -->
<g id="edge19" class="edge">
<title>Node18&#45;&gt;Node19</title>
<path fill="none" stroke="midnightblue" d="M830.76,-296.3C851.85,-287.05 884.06,-272.93 907.86,-262.5"/>
<polygon fill="midnightblue" stroke="midnightblue" points="909.42,-265.63 917.17,-258.41 906.61,-259.22 909.42,-265.63"/>
</g>
<!-- Node20&#45;&gt;Node21 -->
<g id="edge21" class="edge">
<title>Node20&#45;&gt;Node21</title>
<path fill="none" stroke="midnightblue" d="M703.58,-495.84C718.59,-495.84 735.73,-495.84 751.69,-495.84"/>
<polygon fill="midnightblue" stroke="midnightblue" points="751.96,-499.34 761.96,-495.84 751.96,-492.34 751.96,-499.34"/>
</g>
<!-- Node22&#45;&gt;Node2 -->
<g id="edge30" class="edge">
<title>Node22&#45;&gt;Node2</title>
<path fill="none" stroke="midnightblue" d="M353.76,-543.45C358.6,-545.97 363.1,-549.06 367,-552.84 412.19,-596.67 358.22,-645.59 403,-689.84 409.58,-696.35 417.94,-700.84 426.75,-703.92"/>
<polygon fill="midnightblue" stroke="midnightblue" points="425.86,-707.31 436.44,-706.75 427.82,-700.59 425.86,-707.31"/>
</g>
<!-- Node22&#45;&gt;Node7 -->
<g id="edge31" class="edge">
<title>Node22&#45;&gt;Node7</title>
<path fill="none" stroke="midnightblue" d="M352.02,-543.46C357.43,-545.95 362.52,-549.04 367,-552.84 399.2,-580.21 371.87,-612.27 403,-640.84 404.7,-642.4 406.49,-643.86 408.37,-645.23"/>
<polygon fill="midnightblue" stroke="midnightblue" points="406.69,-648.31 417.02,-650.68 410.42,-642.39 406.69,-648.31"/>
</g>
<!-- Node22&#45;&gt;Node13 -->
<g id="edge32" class="edge">
<title>Node22&#45;&gt;Node13</title>
<path fill="none" stroke="midnightblue" d="M347.75,-543.36C354.55,-545.83 361.12,-548.94 367,-552.84 389.81,-568 380.25,-587.61 403,-602.84 406.09,-604.91 409.37,-606.75 412.79,-608.4"/>
<polygon fill="midnightblue" stroke="midnightblue" points="411.5,-611.65 422.07,-612.3 414.21,-605.2 411.5,-611.65"/>
</g>
<!-- Node22&#45;&gt;Node18 -->
<g id="edge26" class="edge">
<title>Node22&#45;&gt;Node18</title>
<path fill="none" stroke="midnightblue" d="M330.31,-524.29C342.37,-521.36 355.28,-517.83 367,-513.84 383.58,-508.2 386.28,-503.04 403,-497.84 471.43,-476.59 660.37,-478.57 720,-438.84 762.13,-410.77 788.56,-354.62 800.15,-325.06"/>
<polygon fill="midnightblue" stroke="midnightblue" points="803.51,-326.07 803.75,-315.47 796.96,-323.6 803.51,-326.07"/>
</g>
<!-- Node22&#45;&gt;Node20 -->
<g id="edge27" class="edge">
<title>Node22&#45;&gt;Node20</title>
<path fill="none" stroke="midnightblue" d="M337.75,-524.32C358.11,-520.93 381.58,-517.35 403,-514.84 473.33,-506.61 554.95,-501.29 606.89,-498.43"/>
<polygon fill="midnightblue" stroke="midnightblue" points="607.39,-501.91 617.18,-497.87 607.01,-494.92 607.39,-501.91"/>
</g>
<!-- Node23 -->
<g id="node23" class="node">
<title>Node23</title>
<g id="a_node23"><a xlink:href="exif-format_8c.html#a924038efe0cd8ebade8f44619dd794f3" target="_top" xlink:title="Return the raw size of the given EXIF data type.">
<polygon fill="white" stroke="black" points="601,-410.34 601,-429.34 720,-429.34 720,-410.34 601,-410.34"/>
<text text-anchor="middle" x="660.5" y="-417.34" font-family="Helvetica,sans-Serif" font-size="10.00">exif_format_get_size</text>
</a>
</g>
</g>
<!-- Node22&#45;&gt;Node23 -->
<g id="edge25" class="edge">
<title>Node22&#45;&gt;Node23</title>
<path fill="none" stroke="midnightblue" d="M348.8,-524.18C355.33,-521.51 361.56,-518.13 367,-513.84 394.49,-492.21 374.02,-463.44 403,-443.84 458.2,-406.52 536.02,-404.51 591.44,-409.35"/>
<polygon fill="midnightblue" stroke="midnightblue" points="591.22,-412.85 601.51,-410.33 591.9,-405.88 591.22,-412.85"/>
</g>
<!-- Node24 -->
<g id="node24" class="node">
<title>Node24</title>
<g id="a_node24"><a xlink:href="exif-log_8c.html#a025d4a5d96544913ea6f6ebbec69cb68" target="_top" xlink:title=" ">
<polygon fill="white" stroke="black" points="456,-574.34 456,-593.34 512,-593.34 512,-574.34 456,-574.34"/>
<text text-anchor="middle" x="484" y="-581.34" font-family="Helvetica,sans-Serif" font-size="10.00">exif_log</text>
</a>
</g>
</g>
<!-- Node22&#45;&gt;Node24 -->
<g id="edge28" class="edge">
<title>Node22&#45;&gt;Node24</title>
<path fill="none" stroke="midnightblue" d="M328.74,-543.43C341.16,-546.28 354.65,-549.54 367,-552.84 383.16,-557.17 386.88,-559.37 403,-563.84 416.96,-567.72 432.39,-571.65 445.94,-575"/>
<polygon fill="midnightblue" stroke="midnightblue" points="445.33,-578.45 455.88,-577.43 446.99,-571.65 445.33,-578.45"/>
</g>
<!-- Node25 -->
<g id="node25" class="node">
<title>Node25</title>
<g id="a_node25"><a xlink:href="exif-log_8c.html#a99101b5ad01b2d82ce9d43c9e8534627" target="_top" xlink:title=" ">
<polygon fill="white" stroke="black" points="629.5,-638.34 629.5,-657.34 691.5,-657.34 691.5,-638.34 629.5,-638.34"/>
<text text-anchor="middle" x="660.5" y="-645.34" font-family="Helvetica,sans-Serif" font-size="10.00">exif_logv</text>
</a>
</g>
</g>
<!-- Node24&#45;&gt;Node25 -->
<g id="edge29" class="edge">
<title>Node24&#45;&gt;Node25</title>
<path fill="none" stroke="midnightblue" d="M512.28,-588.25C528.04,-591.3 548.04,-596.05 565,-602.84 582.2,-609.72 584.39,-615.64 601,-623.84 608.56,-627.57 616.84,-631.23 624.74,-634.51"/>
<polygon fill="midnightblue" stroke="midnightblue" points="623.53,-637.8 634.11,-638.32 626.16,-631.31 623.53,-637.8"/>
</g>
<!-- Node26&#45;&gt;Node2 -->
<g id="edge36" class="edge">
<title>Node26&#45;&gt;Node2</title>
<path fill="none" stroke="midnightblue" d="M298.56,-391.52C317.5,-405.38 350.7,-432.79 367,-464.84 412.91,-555.11 334.55,-615.21 403,-689.84 409.32,-696.74 417.63,-701.42 426.5,-704.56"/>
<polygon fill="midnightblue" stroke="midnightblue" points="425.7,-707.97 436.28,-707.4 427.65,-701.25 425.7,-707.97"/>
</g>
<!-- Node26&#45;&gt;Node23 -->
<g id="edge34" class="edge">
<title>Node26&#45;&gt;Node23</title>
<path fill="none" stroke="midnightblue" d="M367.18,-387.57C423.11,-391.77 498.61,-398.09 565,-405.84 573.35,-406.82 582.09,-407.95 590.75,-409.15"/>
<polygon fill="midnightblue" stroke="midnightblue" points="590.46,-412.64 600.85,-410.58 591.44,-405.71 590.46,-412.64"/>
</g>
<!-- Node26&#45;&gt;Node24 -->
<g id="edge35" class="edge">
<title>Node26&#45;&gt;Node24</title>
<path fill="none" stroke="midnightblue" d="M297.11,-391.52C314.94,-405.79 347.51,-434.14 367,-464.84 392.09,-504.37 368.22,-532.5 403,-563.84 414.66,-574.36 431.02,-579.53 445.91,-582.01"/>
<polygon fill="midnightblue" stroke="midnightblue" points="445.53,-585.49 455.9,-583.33 446.44,-578.55 445.53,-585.49"/>
</g>
<!-- Node27 -->
<g id="node27" class="node">
<title>Node27</title>
<g id="a_node27"><a xlink:href="exif-mem_8c.html#a3dcfe6794d82e79e92da5e2c62484b17" target="_top" xlink:title=" ">
<polygon fill="white" stroke="black" points="432,-334.34 432,-353.34 536,-353.34 536,-334.34 432,-334.34"/>
<text text-anchor="middle" x="484" y="-341.34" font-family="Helvetica,sans-Serif" font-size="10.00">exif_mem_realloc</text>
</a>
</g>
</g>
<!-- Node26&#45;&gt;Node27 -->
<g id="edge37" class="edge">
<title>Node26&#45;&gt;Node27</title>
<path fill="none" stroke="midnightblue" d="M334.33,-372.3C361.23,-367.15 394.64,-360.76 422.96,-355.34"/>
<polygon fill="midnightblue" stroke="midnightblue" points="423.98,-358.7 433.15,-353.39 422.67,-351.83 423.98,-358.7"/>
</g>
<!-- Node28 -->
<g id="node28" class="node">
<title>Node28</title>
<g id="a_node28"><a xlink:href="exif-utils_8c.html#ac90147d0cc97bec7a577bf9576191bf8" target="_top" xlink:title="Store an ExifLong value into memory in EXIF format.">
<polygon fill="white" stroke="black" points="767,-68.34 767,-87.34 849,-87.34 849,-68.34 767,-68.34"/>
<text text-anchor="middle" x="808" y="-75.34" font-family="Helvetica,sans-Serif" font-size="10.00">exif_set_long</text>
</a>
</g>
</g>
<!-- Node26&#45;&gt;Node28 -->
<g id="edge38" class="edge">
<title>Node26&#45;&gt;Node28</title>
<path fill="none" stroke="midnightblue" d="M307.04,-372.29C325.76,-363.23 351.72,-347.87 367,-326.84 401.74,-279.04 368.09,-246.52 403,-198.84 465.19,-113.9 500.14,-98.99 601,-68.84 652.49,-53.45 714.43,-59.21 756.86,-66.6"/>
<polygon fill="midnightblue" stroke="midnightblue" points="756.47,-70.09 766.94,-68.45 757.74,-63.2 756.47,-70.09"/>
</g>
<!-- Node30 -->
<g id="node30" class="node">
<title>Node30</title>
<g id="a_node30"><a xlink:href="exif-utils_8c.html#ad905d16e26b4052a1db34dbebdc37341" target="_top" xlink:title="Store an ExifShort value into memory in EXIF format.">
<polygon fill="white" stroke="black" points="617.5,-372.34 617.5,-391.34 703.5,-391.34 703.5,-372.34 617.5,-372.34"/>
<text text-anchor="middle" x="660.5" y="-379.34" font-family="Helvetica,sans-Serif" font-size="10.00">exif_set_short</text>
</a>
</g>
</g>
<!-- Node26&#45;&gt;Node30 -->
<g id="edge40" class="edge">
<title>Node26&#45;&gt;Node30</title>
<path fill="none" stroke="midnightblue" d="M299.04,-372.17C320.63,-358.45 362.94,-333.98 403,-324.84 473.2,-308.84 497.9,-298.74 565,-324.84 585.23,-332.71 582.68,-346.21 601,-357.84 607.24,-361.81 614.25,-365.35 621.19,-368.41"/>
<polygon fill="midnightblue" stroke="midnightblue" points="619.96,-371.69 630.53,-372.29 622.64,-365.22 619.96,-371.69"/>
</g>
<!-- Node29 -->
<g id="node29" class="node">
<title>Node29</title>
<g id="a_node29"><a xlink:href="exif-utils_8c.html#ae6e3b9d1663f9ab9bd462d73a310ca03" target="_top" xlink:title="Store an ExifSLong value into memory in EXIF format.">
<polygon fill="white" stroke="black" points="896.5,-30.34 896.5,-49.34 983.5,-49.34 983.5,-30.34 896.5,-30.34"/>
<text text-anchor="middle" x="940" y="-37.34" font-family="Helvetica,sans-Serif" font-size="10.00">exif_set_slong</text>
</a>
</g>
</g>
<!-- Node28&#45;&gt;Node29 -->
<g id="edge39" class="edge">
<title>Node28&#45;&gt;Node29</title>
<path fill="none" stroke="midnightblue" d="M841.8,-68.25C858.28,-63.44 878.44,-57.54 896.13,-52.37"/>
<polygon fill="midnightblue" stroke="midnightblue" points="897.59,-55.59 906.21,-49.43 895.63,-48.87 897.59,-55.59"/>
</g>
<!-- Node31 -->
<g id="node31" class="node">
<title>Node31</title>
<g id="a_node31"><a xlink:href="exif-utils_8c.html#a6504651147702fc6db9a5cd4aa997023" target="_top" xlink:title="Store an ExifSShort value into memory in EXIF format.">
<polygon fill="white" stroke="black" points="762.5,-239.34 762.5,-258.34 853.5,-258.34 853.5,-239.34 762.5,-239.34"/>
<text text-anchor="middle" x="808" y="-246.34" font-family="Helvetica,sans-Serif" font-size="10.00">exif_set_sshort</text>
</a>
</g>
</g>
<!-- Node30&#45;&gt;Node31 -->
<g id="edge41" class="edge">
<title>Node30&#45;&gt;Node31</title>
<path fill="none" stroke="midnightblue" d="M671.56,-372.28C683.31,-361.05 703.27,-341.81 720,-324.84 736.33,-308.28 738.61,-302.29 756,-286.84 764.88,-278.95 775.31,-270.98 784.41,-264.39"/>
<polygon fill="midnightblue" stroke="midnightblue" points="786.52,-267.19 792.64,-258.54 782.46,-261.48 786.52,-267.19"/>
</g>
<!-- Node32&#45;&gt;Node23 -->
<g id="edge61" class="edge">
<title>Node32&#45;&gt;Node23</title>
<path fill="none" stroke="midnightblue" d="M352.51,-290.28C413.55,-282.87 502.86,-282.02 565,-324.84 595.78,-346.05 572.93,-376.16 601,-400.84 602.93,-402.54 605.01,-404.08 607.21,-405.49"/>
<polygon fill="midnightblue" stroke="midnightblue" points="605.63,-408.62 616.1,-410.27 608.94,-402.45 605.63,-408.62"/>
</g>
<!-- Node33 -->
<g id="node33" class="node">
<title>Node33</title>
<g id="a_node33"><a xlink:href="exif-utils_8c.html#a54ef3b86ffeb643e9c4434b85ccf2992" target="_top" xlink:title=" ">
<polygon fill="white" stroke="black" points="427.5,-208.84 427.5,-238.84 540.5,-238.84 540.5,-208.84 427.5,-208.84"/>
<text text-anchor="start" x="435.5" y="-226.84" font-family="Helvetica,sans-Serif" font-size="10.00">exif_array_set_byte</text>
<text text-anchor="middle" x="484" y="-215.84" font-family="Helvetica,sans-Serif" font-size="10.00">_order</text>
</a>
</g>
</g>
<!-- Node32&#45;&gt;Node33 -->
<g id="edge43" class="edge">
<title>Node32&#45;&gt;Node33</title>
<path fill="none" stroke="midnightblue" d="M342.13,-287.76C350.62,-284.86 359.15,-281.55 367,-277.84 384.39,-269.63 385.89,-262.61 403,-253.84 410.87,-249.81 419.4,-246.03 427.87,-242.61"/>
<polygon fill="midnightblue" stroke="midnightblue" points="429.33,-245.8 437.37,-238.89 426.78,-239.28 429.33,-245.8"/>
</g>
<!-- Node33&#45;&gt;Node18 -->
<g id="edge45" class="edge">
<title>Node33&#45;&gt;Node18</title>
<path fill="none" stroke="midnightblue" d="M540.72,-238.03C602.53,-253.77 701.2,-278.9 759.49,-293.74"/>
<polygon fill="midnightblue" stroke="midnightblue" points="758.98,-297.23 769.54,-296.3 760.71,-290.44 758.98,-297.23"/>
</g>
<!-- Node33&#45;&gt;Node19 -->
<g id="edge49" class="edge">
<title>Node33&#45;&gt;Node19</title>
<path fill="none" stroke="midnightblue" d="M540.55,-220.94C613.99,-217.96 747.28,-215.56 860,-229.84 871.91,-231.35 884.62,-233.95 896.3,-236.76"/>
<polygon fill="midnightblue" stroke="midnightblue" points="895.69,-240.22 906.24,-239.25 897.4,-233.43 895.69,-240.22"/>
</g>
<!-- Node33&#45;&gt;Node20 -->
<g id="edge48" class="edge">
<title>Node33&#45;&gt;Node20</title>
<path fill="none" stroke="midnightblue" d="M499.98,-239.01C517.75,-257.73 547.17,-291.25 565,-324.84 589.91,-371.78 573.13,-393.6 601,-438.84 610.79,-454.73 625.98,-469.35 638.42,-479.81"/>
<polygon fill="midnightblue" stroke="midnightblue" points="636.53,-482.77 646.5,-486.34 640.93,-477.33 636.53,-482.77"/>
</g>
<!-- Node33&#45;&gt;Node21 -->
<g id="edge52" class="edge">
<title>Node33&#45;&gt;Node21</title>
<path fill="none" stroke="midnightblue" d="M508.49,-239.07C525.04,-250.29 547.3,-266.39 565,-282.84 583.01,-299.58 580.51,-311.25 601,-324.84 647.27,-355.53 675.81,-329.23 720,-362.84 760.09,-393.34 787.25,-447.99 799.53,-476.82"/>
<polygon fill="midnightblue" stroke="midnightblue" points="796.34,-478.27 803.38,-486.19 802.81,-475.61 796.34,-478.27"/>
</g>
<!-- Node33&#45;&gt;Node23 -->
<g id="edge44" class="edge">
<title>Node33&#45;&gt;Node23</title>
<path fill="none" stroke="midnightblue" d="M540.64,-236.6C549.78,-240.81 558.4,-246.41 565,-253.84 609.66,-304.14 555.23,-351.56 601,-400.84 602.36,-402.31 603.84,-403.66 605.41,-404.91"/>
<polygon fill="midnightblue" stroke="midnightblue" points="603.57,-407.89 613.88,-410.33 607.34,-402 603.57,-407.89"/>
</g>
<!-- Node33&#45;&gt;Node28 -->
<g id="edge53" class="edge">
<title>Node33&#45;&gt;Node28</title>
<path fill="none" stroke="midnightblue" d="M493.5,-208.78C510.08,-181.04 549.66,-122.36 601,-96.84 649.83,-72.57 713.2,-70.41 756.69,-72.66"/>
<polygon fill="midnightblue" stroke="midnightblue" points="756.55,-76.16 766.74,-73.28 756.98,-69.17 756.55,-76.16"/>
</g>
<!-- Node33&#45;&gt;Node29 -->
<g id="edge57" class="edge">
<title>Node33&#45;&gt;Node29</title>
<path fill="none" stroke="midnightblue" d="M489.11,-208.64C500.09,-171.32 533.92,-75.26 601,-33.84 696,24.82 836.45,-7.02 902.35,-27.24"/>
<polygon fill="midnightblue" stroke="midnightblue" points="901.3,-30.58 911.89,-30.25 903.41,-23.91 901.3,-30.58"/>
</g>
<!-- Node33&#45;&gt;Node30 -->
<g id="edge56" class="edge">
<title>Node33&#45;&gt;Node30</title>
<path fill="none" stroke="midnightblue" d="M540.91,-237.49C549.8,-241.61 558.27,-246.94 565,-253.84 599.14,-288.87 567.4,-322.3 601,-357.84 604.63,-361.68 608.96,-364.93 613.61,-367.66"/>
<polygon fill="midnightblue" stroke="midnightblue" points="612.32,-370.93 622.82,-372.33 615.48,-364.69 612.32,-370.93"/>
</g>
<!-- Node33&#45;&gt;Node31 -->
<g id="edge60" class="edge">
<title>Node33&#45;&gt;Node31</title>
<path fill="none" stroke="midnightblue" d="M540.72,-228.17C599.98,-232.77 693.13,-240 752.09,-244.58"/>
<polygon fill="midnightblue" stroke="midnightblue" points="752.08,-248.09 762.32,-245.37 752.62,-241.11 752.08,-248.09"/>
</g>
<!-- Node34 -->
<g id="node34" class="node">
<title>Node34</title>
<g id="a_node34"><a xlink:href="exif-utils_8c.html#a1feb547c289aa57a4d2119338b03706c" target="_top" xlink:title="Retrieve an ExifRational value from memory.">
<polygon fill="white" stroke="black" points="611,-296.34 611,-315.34 710,-315.34 710,-296.34 611,-296.34"/>
<text text-anchor="middle" x="660.5" y="-303.34" font-family="Helvetica,sans-Serif" font-size="10.00">exif_get_rational</text>
</a>
</g>
</g>
<!-- Node33&#45;&gt;Node34 -->
<g id="edge46" class="edge">
<title>Node33&#45;&gt;Node34</title>
<path fill="none" stroke="midnightblue" d="M532.6,-238.99C543.53,-243.2 554.9,-248.2 565,-253.84 582.69,-263.74 583.46,-271.68 601,-281.84 607.66,-285.7 615.06,-289.25 622.3,-292.36"/>
<polygon fill="midnightblue" stroke="midnightblue" points="621.4,-295.78 631.98,-296.33 624.05,-289.3 621.4,-295.78"/>
</g>
<!-- Node35 -->
<g id="node35" class="node">
<title>Node35</title>
<g id="a_node35"><a xlink:href="exif-utils_8c.html#adb97c3499488d5642a82df1cb16dc2cb" target="_top" xlink:title="Retrieve an ExifSRational value from memory.">
<polygon fill="white" stroke="black" points="756,-144.34 756,-163.34 860,-163.34 860,-144.34 756,-144.34"/>
<text text-anchor="middle" x="808" y="-151.34" font-family="Helvetica,sans-Serif" font-size="10.00">exif_get_srational</text>
</a>
</g>
</g>
<!-- Node33&#45;&gt;Node35 -->
<g id="edge50" class="edge">
<title>Node33&#45;&gt;Node35</title>
<path fill="none" stroke="midnightblue" d="M516.75,-208.63C539.65,-198.31 571.59,-185.25 601,-177.84 648.8,-165.8 704.38,-159.78 745.76,-156.77"/>
<polygon fill="midnightblue" stroke="midnightblue" points="746.22,-160.25 755.96,-156.08 745.74,-153.27 746.22,-160.25"/>
</g>
<!-- Node36 -->
<g id="node36" class="node">
<title>Node36</title>
<g id="a_node36"><a xlink:href="exif-utils_8c.html#a400a16b1754150f721e9fca67ad89a52" target="_top" xlink:title="Store an ExifRational value into memory in EXIF format.">
<polygon fill="white" stroke="black" points="611.5,-106.34 611.5,-125.34 709.5,-125.34 709.5,-106.34 611.5,-106.34"/>
<text text-anchor="middle" x="660.5" y="-113.34" font-family="Helvetica,sans-Serif" font-size="10.00">exif_set_rational</text>
</a>
</g>
</g>
<!-- Node33&#45;&gt;Node36 -->
<g id="edge54" class="edge">
<title>Node33&#45;&gt;Node36</title>
<path fill="none" stroke="midnightblue" d="M502.97,-208.73C525.03,-190.7 564.07,-160.4 601,-139.84 607.95,-135.97 615.64,-132.37 623.11,-129.2"/>
<polygon fill="midnightblue" stroke="midnightblue" points="624.44,-132.44 632.38,-125.42 621.79,-125.96 624.44,-132.44"/>
</g>
<!-- Node37 -->
<g id="node37" class="node">
<title>Node37</title>
<g id="a_node37"><a xlink:href="exif-utils_8c.html#aca1790a72b1833dff1b0bf728052c3c5" target="_top" xlink:title="Store an ExifSRational value into memory in EXIF format.">
<polygon fill="white" stroke="black" points="756,-30.34 756,-49.34 860,-49.34 860,-30.34 756,-30.34"/>
<text text-anchor="middle" x="808" y="-37.34" font-family="Helvetica,sans-Serif" font-size="10.00">exif_set_srational</text>
</a>
</g>
</g>
<!-- Node33&#45;&gt;Node37 -->
<g id="edge58" class="edge">
<title>Node33&#45;&gt;Node37</title>
<path fill="none" stroke="midnightblue" d="M491.34,-208.8C505.65,-176.92 543.72,-102.72 601,-68.84 644.6,-43.06 702.26,-36.82 745.49,-36.45"/>
<polygon fill="midnightblue" stroke="midnightblue" points="745.58,-39.95 755.59,-36.47 745.6,-32.95 745.58,-39.95"/>
</g>
<!-- Node34&#45;&gt;Node18 -->
<g id="edge47" class="edge">
<title>Node34&#45;&gt;Node18</title>
<path fill="none" stroke="midnightblue" d="M710.35,-305.84C725.11,-305.84 741.34,-305.84 756.22,-305.84"/>
<polygon fill="midnightblue" stroke="midnightblue" points="756.27,-309.34 766.27,-305.84 756.27,-302.34 756.27,-309.34"/>
</g>
<!-- Node35&#45;&gt;Node19 -->
<g id="edge51" class="edge">
<title>Node35&#45;&gt;Node19</title>
<path fill="none" stroke="midnightblue" d="M833.13,-163.46C841.9,-167.39 851.68,-172.32 860,-177.84 883.81,-193.65 907.75,-216.34 922.93,-231.78"/>
<polygon fill="midnightblue" stroke="midnightblue" points="920.56,-234.37 930.02,-239.13 925.59,-229.5 920.56,-234.37"/>
</g>
<!-- Node36&#45;&gt;Node28 -->
<g id="edge55" class="edge">
<title>Node36&#45;&gt;Node28</title>
<path fill="none" stroke="midnightblue" d="M698.22,-106.25C717.16,-101.31 740.46,-95.22 760.63,-89.95"/>
<polygon fill="midnightblue" stroke="midnightblue" points="761.76,-93.28 770.55,-87.36 759.99,-86.5 761.76,-93.28"/>
</g>
<!-- Node37&#45;&gt;Node29 -->
<g id="edge59" class="edge">
<title>Node37&#45;&gt;Node29</title>
<path fill="none" stroke="midnightblue" d="M860.01,-39.84C868.5,-39.84 877.33,-39.84 885.88,-39.84"/>
<polygon fill="midnightblue" stroke="midnightblue" points="886.12,-43.34 896.12,-39.84 886.12,-36.34 886.12,-43.34"/>
</g>
</g>
</svg>
