<?xml version="1.0" encoding="UTF-8" standalone="no"?>
<!DOCTYPE svg PUBLIC "-//W3C//DTD SVG 1.1//EN"
 "http://www.w3.org/Graphics/SVG/1.1/DTD/svg11.dtd">
<!-- Generated by graphviz version 2.44.1 (0)
 -->
<!-- Title: exif_content_add_entry Pages: 1 -->
<svg width="785pt" height="199pt"
 viewBox="0.00 0.00 785.00 199.00" xmlns="http://www.w3.org/2000/svg" xmlns:xlink="http://www.w3.org/1999/xlink">
<g id="graph0" class="graph" transform="scale(1 1) rotate(0) translate(4 195)">
<title>exif_content_add_entry</title>
<polygon fill="white" stroke="transparent" points="-4,4 -4,-195 781,-195 781,4 -4,4"/>
<!-- Node1 -->
<g id="node1" class="node">
<title>Node1</title>
<g id="a_node1"><a xlink:title="Add an EXIF tag to an IFD.">
<polygon fill="#bfbfbf" stroke="black" points="0,-95.5 0,-114.5 131,-114.5 131,-95.5 0,-95.5"/>
<text text-anchor="middle" x="65.5" y="-102.5" font-family="Helvetica,sans-Serif" font-size="10.00">exif_content_add_entry</text>
</a>
</g>
</g>
<!-- Node2 -->
<g id="node2" class="node">
<title>Node2</title>
<g id="a_node2"><a xlink:href="exif-content_8c.html#ac72bb2dacf0da27156c2c4dce08eef5d" target="_top" xlink:title="Return the ExifEntry in this IFD corresponding to the given tag.">
<polygon fill="white" stroke="black" points="167,-171.5 167,-190.5 296,-190.5 296,-171.5 167,-171.5"/>
<text text-anchor="middle" x="231.5" y="-178.5" font-family="Helvetica,sans-Serif" font-size="10.00">exif_content_get_entry</text>
</a>
</g>
</g>
<!-- Node1&#45;&gt;Node2 -->
<g id="edge1" class="edge">
<title>Node1&#45;&gt;Node2</title>
<path fill="none" stroke="midnightblue" d="M80.95,-114.58C100.01,-126.89 134.9,-148.3 167,-162 172.36,-164.29 178.08,-166.41 183.81,-168.35"/>
<polygon fill="midnightblue" stroke="midnightblue" points="182.81,-171.7 193.4,-171.43 184.95,-165.04 182.81,-171.7"/>
</g>
<!-- Node3 -->
<g id="node3" class="node">
<title>Node3</title>
<g id="a_node3"><a xlink:href="exif-entry_8c.html#afd537c2d20109a1ee3923584e969d3d7" target="_top" xlink:title="Increase reference counter for ExifEntry.">
<polygon fill="white" stroke="black" points="189,-133.5 189,-152.5 274,-152.5 274,-133.5 189,-133.5"/>
<text text-anchor="middle" x="231.5" y="-140.5" font-family="Helvetica,sans-Serif" font-size="10.00">exif_entry_ref</text>
</a>
</g>
</g>
<!-- Node1&#45;&gt;Node3 -->
<g id="edge2" class="edge">
<title>Node1&#45;&gt;Node3</title>
<path fill="none" stroke="midnightblue" d="M107.88,-114.59C129.62,-119.63 156.46,-125.84 179.47,-131.18"/>
<polygon fill="midnightblue" stroke="midnightblue" points="178.88,-134.63 189.41,-133.48 180.46,-127.81 178.88,-134.63"/>
</g>
<!-- Node4 -->
<g id="node4" class="node">
<title>Node4</title>
<g id="a_node4"><a xlink:href="exif-log_8c.html#a025d4a5d96544913ea6f6ebbec69cb68" target="_top" xlink:title=" ">
<polygon fill="white" stroke="black" points="203.5,-95.5 203.5,-114.5 259.5,-114.5 259.5,-95.5 203.5,-95.5"/>
<text text-anchor="middle" x="231.5" y="-102.5" font-family="Helvetica,sans-Serif" font-size="10.00">exif_log</text>
</a>
</g>
</g>
<!-- Node1&#45;&gt;Node4 -->
<g id="edge3" class="edge">
<title>Node1&#45;&gt;Node4</title>
<path fill="none" stroke="midnightblue" d="M131.32,-105C152.27,-105 174.8,-105 193.08,-105"/>
<polygon fill="midnightblue" stroke="midnightblue" points="193.3,-108.5 203.3,-105 193.3,-101.5 193.3,-108.5"/>
</g>
<!-- Node6 -->
<g id="node6" class="node">
<title>Node6</title>
<g id="a_node6"><a xlink:href="exif-mem_8c.html#a3dcfe6794d82e79e92da5e2c62484b17" target="_top" xlink:title=" ">
<polygon fill="white" stroke="black" points="179.5,-57.5 179.5,-76.5 283.5,-76.5 283.5,-57.5 179.5,-57.5"/>
<text text-anchor="middle" x="231.5" y="-64.5" font-family="Helvetica,sans-Serif" font-size="10.00">exif_mem_realloc</text>
</a>
</g>
</g>
<!-- Node1&#45;&gt;Node6 -->
<g id="edge5" class="edge">
<title>Node1&#45;&gt;Node6</title>
<path fill="none" stroke="midnightblue" d="M107.88,-95.41C129.62,-90.37 156.46,-84.16 179.47,-78.82"/>
<polygon fill="midnightblue" stroke="midnightblue" points="180.46,-82.19 189.41,-76.52 178.88,-75.37 180.46,-82.19"/>
</g>
<!-- Node7 -->
<g id="node7" class="node">
<title>Node7</title>
<g id="a_node7"><a xlink:href="exif-tag_8c.html#a09dab484396dbcd277161df07aa09cf1" target="_top" xlink:title=" ">
<polygon fill="white" stroke="black" points="176.5,-19.5 176.5,-38.5 286.5,-38.5 286.5,-19.5 176.5,-19.5"/>
<text text-anchor="middle" x="231.5" y="-26.5" font-family="Helvetica,sans-Serif" font-size="10.00">exif_tag_get_name</text>
</a>
</g>
</g>
<!-- Node1&#45;&gt;Node7 -->
<g id="edge6" class="edge">
<title>Node1&#45;&gt;Node7</title>
<path fill="none" stroke="midnightblue" d="M80.95,-95.42C100.01,-83.11 134.9,-61.7 167,-48 172.36,-45.71 178.08,-43.59 183.81,-41.65"/>
<polygon fill="midnightblue" stroke="midnightblue" points="184.95,-44.96 193.4,-38.57 182.81,-38.3 184.95,-44.96"/>
</g>
<!-- Node5 -->
<g id="node5" class="node">
<title>Node5</title>
<g id="a_node5"><a xlink:href="exif-log_8c.html#a99101b5ad01b2d82ce9d43c9e8534627" target="_top" xlink:title=" ">
<polygon fill="white" stroke="black" points="372.5,-95.5 372.5,-114.5 434.5,-114.5 434.5,-95.5 372.5,-95.5"/>
<text text-anchor="middle" x="403.5" y="-102.5" font-family="Helvetica,sans-Serif" font-size="10.00">exif_logv</text>
</a>
</g>
</g>
<!-- Node4&#45;&gt;Node5 -->
<g id="edge4" class="edge">
<title>Node4&#45;&gt;Node5</title>
<path fill="none" stroke="midnightblue" d="M259.81,-105C287.47,-105 330.56,-105 362.15,-105"/>
<polygon fill="midnightblue" stroke="midnightblue" points="362.39,-108.5 372.39,-105 362.39,-101.5 362.39,-108.5"/>
</g>
<!-- Node8 -->
<g id="node8" class="node">
<title>Node8</title>
<g id="a_node8"><a xlink:href="exif-tag_8c.html#a82b5a88d44d27d432afb5a1db74268b0" target="_top" xlink:title="Return a textual name of the given tag when found in the given IFD.">
<polygon fill="white" stroke="black" points="332,-38.5 332,-57.5 475,-57.5 475,-38.5 332,-38.5"/>
<text text-anchor="middle" x="403.5" y="-45.5" font-family="Helvetica,sans-Serif" font-size="10.00">exif_tag_get_name_in_ifd</text>
</a>
</g>
</g>
<!-- Node7&#45;&gt;Node8 -->
<g id="edge7" class="edge">
<title>Node7&#45;&gt;Node8</title>
<path fill="none" stroke="midnightblue" d="M286.76,-35.06C297.99,-36.32 310.06,-37.67 322,-39"/>
<polygon fill="midnightblue" stroke="midnightblue" points="321.66,-42.49 331.99,-40.12 322.44,-35.53 321.66,-42.49"/>
</g>
<!-- Node12 -->
<g id="node12" class="node">
<title>Node12</title>
<g id="a_node12"><a xlink:href="exif-tag_8c.html#ab05bf3c8af3747529c62226eb35226bb" target="_top" xlink:title=" ">
<polygon fill="white" stroke="black" points="351,-0.5 351,-19.5 456,-19.5 456,-0.5 351,-0.5"/>
<text text-anchor="middle" x="403.5" y="-7.5" font-family="Helvetica,sans-Serif" font-size="10.00">exif_tag_get_stuff</text>
</a>
</g>
</g>
<!-- Node7&#45;&gt;Node12 -->
<g id="edge11" class="edge">
<title>Node7&#45;&gt;Node12</title>
<path fill="none" stroke="midnightblue" d="M286.76,-22.94C303.9,-21.02 322.96,-18.89 340.59,-16.92"/>
<polygon fill="midnightblue" stroke="midnightblue" points="341.24,-20.37 350.78,-15.78 340.46,-13.41 341.24,-20.37"/>
</g>
<!-- Node9 -->
<g id="node9" class="node">
<title>Node9</title>
<g id="a_node9"><a xlink:href="exif-tag_8c.html#a389f8ff3411e0525b28367892f1e78d3" target="_top" xlink:title="Finds the first entry in the EXIF tag table with the given tag number using a binary search.">
<polygon fill="white" stroke="black" points="511,-38.5 511,-57.5 622,-57.5 622,-38.5 511,-38.5"/>
<text text-anchor="middle" x="566.5" y="-45.5" font-family="Helvetica,sans-Serif" font-size="10.00">exif_tag_table_first</text>
</a>
</g>
</g>
<!-- Node8&#45;&gt;Node9 -->
<g id="edge8" class="edge">
<title>Node8&#45;&gt;Node9</title>
<path fill="none" stroke="midnightblue" d="M475.12,-48C483.65,-48 492.33,-48 500.77,-48"/>
<polygon fill="midnightblue" stroke="midnightblue" points="500.91,-51.5 510.91,-48 500.91,-44.5 500.91,-51.5"/>
</g>
<!-- Node10 -->
<g id="node10" class="node">
<title>Node10</title>
<g id="a_node10"><a xlink:href="exif-tag_8c.html#a87563ee64809f5f0deb4d780098508c1" target="_top" xlink:title="Return the number of entries in the EXIF tag table, including the terminating NULL entry.">
<polygon fill="white" stroke="black" points="658,-57.5 658,-76.5 777,-76.5 777,-57.5 658,-57.5"/>
<text text-anchor="middle" x="717.5" y="-64.5" font-family="Helvetica,sans-Serif" font-size="10.00">exif_tag_table_count</text>
</a>
</g>
</g>
<!-- Node9&#45;&gt;Node10 -->
<g id="edge9" class="edge">
<title>Node9&#45;&gt;Node10</title>
<path fill="none" stroke="midnightblue" d="M622.14,-54.97C630.49,-56.03 639.21,-57.14 647.82,-58.24"/>
<polygon fill="midnightblue" stroke="midnightblue" points="647.5,-61.73 657.86,-59.52 648.38,-54.79 647.5,-61.73"/>
</g>
<!-- Node11 -->
<g id="node11" class="node">
<title>Node11</title>
<g id="a_node11"><a xlink:href="exif-tag_8c.html#a220c1b18832f113bc84ff9551754915f" target="_top" xlink:title="Compares the tag with that in entry.">
<polygon fill="white" stroke="black" points="683.5,-19.5 683.5,-38.5 751.5,-38.5 751.5,-19.5 683.5,-19.5"/>
<text text-anchor="middle" x="717.5" y="-26.5" font-family="Helvetica,sans-Serif" font-size="10.00">match_tag</text>
</a>
</g>
</g>
<!-- Node9&#45;&gt;Node11 -->
<g id="edge10" class="edge">
<title>Node9&#45;&gt;Node11</title>
<path fill="none" stroke="midnightblue" d="M622.14,-41.03C638.9,-38.9 657.1,-36.57 673.01,-34.55"/>
<polygon fill="midnightblue" stroke="midnightblue" points="673.62,-38 683.1,-33.26 672.74,-31.05 673.62,-38"/>
</g>
</g>
</svg>
