<?xml version="1.0" encoding="UTF-8" standalone="no"?>
<!DOCTYPE svg PUBLIC "-//W3C//DTD SVG 1.1//EN"
 "http://www.w3.org/Graphics/SVG/1.1/DTD/svg11.dtd">
<!-- Generated by graphviz version 7.0.1 (0)
 -->
<!-- Title: exif_mnote_data_canon_set_byte_order Pages: 1 -->
<svg width="710pt" height="473pt"
 viewBox="0.00 0.00 710.00 473.00" xmlns="http://www.w3.org/2000/svg" xmlns:xlink="http://www.w3.org/1999/xlink">
<g id="graph0" class="graph" transform="scale(1 1) rotate(0) translate(4 469)">
<title>exif_mnote_data_canon_set_byte_order</title>
<!-- Node1 -->
<g id="Node000001" class="node">
<title>Node1</title>
<g id="a_Node000001"><a xlink:title=" ">
<polygon fill="#999999" stroke="#666666" points="134,-282.5 0,-282.5 0,-252.5 134,-252.5 134,-282.5"/>
<text text-anchor="start" x="8" y="-270.5" font-family="Helvetica,sans-Serif" font-size="10.00">exif_mnote_data_canon</text>
<text text-anchor="middle" x="67" y="-259.5" font-family="Helvetica,sans-Serif" font-size="10.00">_set_byte_order</text>
</a>
</g>
</g>
<!-- Node2 -->
<g id="Node000002" class="node">
<title>Node2</title>
<g id="a_Node000002"><a xlink:href="exif-utils_8c.html#a54ef3b86ffeb643e9c4434b85ccf2992" target="_top" xlink:title=" ">
<polygon fill="white" stroke="#666666" points="283,-261.5 170,-261.5 170,-231.5 283,-231.5 283,-261.5"/>
<text text-anchor="start" x="178" y="-249.5" font-family="Helvetica,sans-Serif" font-size="10.00">exif_array_set_byte</text>
<text text-anchor="middle" x="226.5" y="-238.5" font-family="Helvetica,sans-Serif" font-size="10.00">_order</text>
</a>
</g>
</g>
<!-- Node1&#45;&gt;Node2 -->
<g id="edge1_Node000001_Node000002" class="edge">
<title>Node1&#45;&gt;Node2</title>
<g id="a_edge1_Node000001_Node000002"><a xlink:title=" ">
<path fill="none" stroke="#63b8ff" d="M134.34,-258.65C142.34,-257.59 150.51,-256.5 158.52,-255.43"/>
<polygon fill="#63b8ff" stroke="#63b8ff" points="158.75,-258.93 168.2,-254.14 157.82,-251.99 158.75,-258.93"/>
</a>
</g>
</g>
<!-- Node3 -->
<g id="Node000003" class="node">
<title>Node3</title>
<g id="a_Node000003"><a xlink:href="exif-format_8c.html#a924038efe0cd8ebade8f44619dd794f3" target="_top" xlink:title="Return the raw size of the given EXIF data type.">
<polygon fill="white" stroke="#666666" points="438,-465 319,-465 319,-446 438,-446 438,-465"/>
<text text-anchor="middle" x="378.5" y="-453" font-family="Helvetica,sans-Serif" font-size="10.00">exif_format_get_size</text>
</a>
</g>
</g>
<!-- Node1&#45;&gt;Node3 -->
<g id="edge23_Node000001_Node000003" class="edge">
<title>Node1&#45;&gt;Node3</title>
<g id="a_edge23_Node000001_Node000003"><a xlink:title=" ">
<path fill="none" stroke="#63b8ff" d="M93.25,-282.99C138.46,-310.69 236.22,-370.51 319,-420.5 329.45,-426.81 340.98,-433.72 351.02,-439.72"/>
<polygon fill="#63b8ff" stroke="#63b8ff" points="349.16,-442.68 359.54,-444.8 352.74,-436.67 349.16,-442.68"/>
</a>
</g>
</g>
<!-- Node2&#45;&gt;Node3 -->
<g id="edge2_Node000002_Node000003" class="edge">
<title>Node2&#45;&gt;Node3</title>
<g id="a_edge2_Node000002_Node000003"><a xlink:title=" ">
<path fill="none" stroke="#63b8ff" d="M235.05,-261.71C245.74,-283.25 265.88,-323.87 283,-358.5 299.03,-390.93 292.56,-406.82 319,-431.5 322.71,-434.96 326.99,-437.96 331.51,-440.54"/>
<polygon fill="#63b8ff" stroke="#63b8ff" points="329.8,-443.6 340.31,-444.89 332.9,-437.33 329.8,-443.6"/>
</a>
</g>
</g>
<!-- Node4 -->
<g id="Node000004" class="node">
<title>Node4</title>
<g id="a_Node000004"><a xlink:href="exif-utils_8c.html#a4ad94614630897766dd0a5c9bc2a59bf" target="_top" xlink:title="Retrieve an ExifLong value from memory.">
<polygon fill="white" stroke="#666666" points="567.5,-389 484.5,-389 484.5,-370 567.5,-370 567.5,-389"/>
<text text-anchor="middle" x="526" y="-377" font-family="Helvetica,sans-Serif" font-size="10.00">exif_get_long</text>
</a>
</g>
</g>
<!-- Node2&#45;&gt;Node4 -->
<g id="edge3_Node000002_Node000004" class="edge">
<title>Node2&#45;&gt;Node4</title>
<g id="a_edge3_Node000002_Node000004"><a xlink:title=" ">
<path fill="none" stroke="#63b8ff" d="M234.38,-261.89C250.6,-297.4 291.92,-383.19 319,-398.5 373.39,-429.24 448.98,-409.43 491.85,-393.58"/>
<polygon fill="#63b8ff" stroke="#63b8ff" points="493.03,-396.87 501.1,-390 490.51,-390.34 493.03,-396.87"/>
</a>
</g>
</g>
<!-- Node5 -->
<g id="Node000005" class="node">
<title>Node5</title>
<g id="a_Node000005"><a xlink:href="exif-utils_8c.html#a56b96f076a13da6ed926e1ef29cb2dc3" target="_top" xlink:title="Retrieve an ExifSLong value from memory.">
<polygon fill="white" stroke="#666666" points="702,-351 614,-351 614,-332 702,-332 702,-351"/>
<text text-anchor="middle" x="658" y="-339" font-family="Helvetica,sans-Serif" font-size="10.00">exif_get_slong</text>
</a>
</g>
</g>
<!-- Node2&#45;&gt;Node5 -->
<g id="edge9_Node000002_Node000005" class="edge">
<title>Node2&#45;&gt;Node5</title>
<g id="a_edge9_Node000002_Node000005"><a xlink:title=" ">
<path fill="none" stroke="#63b8ff" d="M240.19,-261.8C256.35,-280.01 286.14,-309.58 319,-322.5 413.1,-359.5 533.38,-355.35 602.15,-348.65"/>
<polygon fill="#63b8ff" stroke="#63b8ff" points="602.46,-352.14 612.05,-347.62 601.74,-345.17 602.46,-352.14"/>
</a>
</g>
</g>
<!-- Node6 -->
<g id="Node000006" class="node">
<title>Node6</title>
<g id="a_Node000006"><a xlink:href="exif-utils_8c.html#a1feb547c289aa57a4d2119338b03706c" target="_top" xlink:title="Retrieve an ExifRational value from memory.">
<polygon fill="white" stroke="#666666" points="428,-389 329,-389 329,-370 428,-370 428,-389"/>
<text text-anchor="middle" x="378.5" y="-377" font-family="Helvetica,sans-Serif" font-size="10.00">exif_get_rational</text>
</a>
</g>
</g>
<!-- Node2&#45;&gt;Node6 -->
<g id="edge5_Node000002_Node000006" class="edge">
<title>Node2&#45;&gt;Node6</title>
<g id="a_edge5_Node000002_Node000006"><a xlink:title=" ">
<path fill="none" stroke="#63b8ff" d="M236.91,-261.91C251.76,-285.07 282.69,-328.98 319,-355.5 323.93,-359.1 329.48,-362.27 335.15,-365.03"/>
<polygon fill="#63b8ff" stroke="#63b8ff" points="333.42,-368.09 343.98,-368.93 336.25,-361.69 333.42,-368.09"/>
</a>
</g>
</g>
<!-- Node7 -->
<g id="Node000007" class="node">
<title>Node7</title>
<g id="a_Node000007"><a xlink:href="exif-utils_8c.html#a4b4acf537a8c6b9405e7b53be868e4d7" target="_top" xlink:title="Retrieve an ExifShort value from memory.">
<polygon fill="white" stroke="#666666" points="421.5,-313 335.5,-313 335.5,-294 421.5,-294 421.5,-313"/>
<text text-anchor="middle" x="378.5" y="-301" font-family="Helvetica,sans-Serif" font-size="10.00">exif_get_short</text>
</a>
</g>
</g>
<!-- Node2&#45;&gt;Node7 -->
<g id="edge7_Node000002_Node000007" class="edge">
<title>Node2&#45;&gt;Node7</title>
<g id="a_edge7_Node000002_Node000007"><a xlink:title=" ">
<path fill="none" stroke="#63b8ff" d="M268.09,-261.93C290.8,-270.56 318.89,-281.23 340.92,-289.6"/>
<polygon fill="#63b8ff" stroke="#63b8ff" points="339.51,-292.81 350.1,-293.09 341.99,-286.26 339.51,-292.81"/>
</a>
</g>
</g>
<!-- Node8 -->
<g id="Node000008" class="node">
<title>Node8</title>
<g id="a_Node000008"><a xlink:href="exif-utils_8c.html#a6baf094a71392f9cea23ad633ec13c8b" target="_top" xlink:title="Retrieve an ExifSShort value from memory.">
<polygon fill="white" stroke="#666666" points="572,-294 480,-294 480,-275 572,-275 572,-294"/>
<text text-anchor="middle" x="526" y="-282" font-family="Helvetica,sans-Serif" font-size="10.00">exif_get_sshort</text>
</a>
</g>
</g>
<!-- Node2&#45;&gt;Node8 -->
<g id="edge12_Node000002_Node000008" class="edge">
<title>Node2&#45;&gt;Node8</title>
<g id="a_edge12_Node000002_Node000008"><a xlink:title=" ">
<path fill="none" stroke="#63b8ff" d="M283.46,-253.65C336.3,-260.4 415.16,-270.47 468.26,-277.25"/>
<polygon fill="#63b8ff" stroke="#63b8ff" points="467.65,-280.7 478.01,-278.5 468.54,-273.76 467.65,-280.7"/>
</a>
</g>
</g>
<!-- Node9 -->
<g id="Node000009" class="node">
<title>Node9</title>
<g id="a_Node000009"><a xlink:href="exif-utils_8c.html#adb97c3499488d5642a82df1cb16dc2cb" target="_top" xlink:title="Retrieve an ExifSRational value from memory.">
<polygon fill="white" stroke="#666666" points="578,-237 474,-237 474,-218 578,-218 578,-237"/>
<text text-anchor="middle" x="526" y="-225" font-family="Helvetica,sans-Serif" font-size="10.00">exif_get_srational</text>
</a>
</g>
</g>
<!-- Node2&#45;&gt;Node9 -->
<g id="edge10_Node000002_Node000009" class="edge">
<title>Node2&#45;&gt;Node9</title>
<g id="a_edge10_Node000002_Node000009"><a xlink:title=" ">
<path fill="none" stroke="#63b8ff" d="M283.46,-242.93C334.42,-239.67 409.58,-234.87 462.5,-231.49"/>
<polygon fill="#63b8ff" stroke="#63b8ff" points="462.5,-235 472.25,-230.87 462.05,-228.01 462.5,-235"/>
</a>
</g>
</g>
<!-- Node10 -->
<g id="Node000010" class="node">
<title>Node10</title>
<g id="a_Node000010"><a xlink:href="exif-utils_8c.html#ac90147d0cc97bec7a577bf9576191bf8" target="_top" xlink:title="Store an ExifLong value into memory in EXIF format.">
<polygon fill="white" stroke="#666666" points="567,-161 485,-161 485,-142 567,-142 567,-161"/>
<text text-anchor="middle" x="526" y="-149" font-family="Helvetica,sans-Serif" font-size="10.00">exif_set_long</text>
</a>
</g>
</g>
<!-- Node2&#45;&gt;Node10 -->
<g id="edge13_Node000002_Node000010" class="edge">
<title>Node2&#45;&gt;Node10</title>
<g id="a_edge13_Node000002_Node000010"><a xlink:title=" ">
<path fill="none" stroke="#63b8ff" d="M275.96,-231.03C333.57,-212.63 428.75,-182.24 483.24,-164.84"/>
<polygon fill="#63b8ff" stroke="#63b8ff" points="483.99,-168.27 492.46,-161.89 481.86,-161.6 483.99,-168.27"/>
</a>
</g>
</g>
<!-- Node11 -->
<g id="Node000011" class="node">
<title>Node11</title>
<g id="a_Node000011"><a xlink:href="exif-utils_8c.html#ae6e3b9d1663f9ab9bd462d73a310ca03" target="_top" xlink:title="Store an ExifSLong value into memory in EXIF format.">
<polygon fill="white" stroke="#666666" points="701.5,-123 614.5,-123 614.5,-104 701.5,-104 701.5,-123"/>
<text text-anchor="middle" x="658" y="-111" font-family="Helvetica,sans-Serif" font-size="10.00">exif_set_slong</text>
</a>
</g>
</g>
<!-- Node2&#45;&gt;Node11 -->
<g id="edge19_Node000002_Node000011" class="edge">
<title>Node2&#45;&gt;Node11</title>
<g id="a_edge19_Node000002_Node000011"><a xlink:title=" ">
<path fill="none" stroke="#63b8ff" d="M234.5,-231.41C247.23,-205.96 276.79,-155.19 319,-133.5 409.88,-86.8 533.18,-94.3 602.97,-103.92"/>
<polygon fill="#63b8ff" stroke="#63b8ff" points="602.22,-107.35 612.62,-105.32 603.22,-100.42 602.22,-107.35"/>
</a>
</g>
</g>
<!-- Node12 -->
<g id="Node000012" class="node">
<title>Node12</title>
<g id="a_Node000012"><a xlink:href="exif-utils_8c.html#a400a16b1754150f721e9fca67ad89a52" target="_top" xlink:title="Store an ExifRational value into memory in EXIF format.">
<polygon fill="white" stroke="#666666" points="427.5,-161 329.5,-161 329.5,-142 427.5,-142 427.5,-161"/>
<text text-anchor="middle" x="378.5" y="-149" font-family="Helvetica,sans-Serif" font-size="10.00">exif_set_rational</text>
</a>
</g>
</g>
<!-- Node2&#45;&gt;Node12 -->
<g id="edge15_Node000002_Node000012" class="edge">
<title>Node2&#45;&gt;Node12</title>
<g id="a_edge15_Node000002_Node000012"><a xlink:title=" ">
<path fill="none" stroke="#63b8ff" d="M244.37,-231.12C262.01,-215.62 290.98,-191.71 319,-175.5 325.11,-171.96 331.84,-168.69 338.5,-165.77"/>
<polygon fill="#63b8ff" stroke="#63b8ff" points="339.51,-169.14 347.4,-162.07 336.82,-162.68 339.51,-169.14"/>
</a>
</g>
</g>
<!-- Node13 -->
<g id="Node000013" class="node">
<title>Node13</title>
<g id="a_Node000013"><a xlink:href="exif-utils_8c.html#ad905d16e26b4052a1db34dbebdc37341" target="_top" xlink:title="Store an ExifShort value into memory in EXIF format.">
<polygon fill="white" stroke="#666666" points="421.5,-85 335.5,-85 335.5,-66 421.5,-66 421.5,-85"/>
<text text-anchor="middle" x="378.5" y="-73" font-family="Helvetica,sans-Serif" font-size="10.00">exif_set_short</text>
</a>
</g>
</g>
<!-- Node2&#45;&gt;Node13 -->
<g id="edge17_Node000002_Node000013" class="edge">
<title>Node2&#45;&gt;Node13</title>
<g id="a_edge17_Node000002_Node000013"><a xlink:title=" ">
<path fill="none" stroke="#63b8ff" d="M233.16,-231.43C244.88,-202.15 274.46,-137.14 319,-99.5 323.18,-95.97 327.95,-92.9 332.93,-90.25"/>
<polygon fill="#63b8ff" stroke="#63b8ff" points="334.36,-93.44 341.93,-86.03 331.39,-87.1 334.36,-93.44"/>
</a>
</g>
</g>
<!-- Node14 -->
<g id="Node000014" class="node">
<title>Node14</title>
<g id="a_Node000014"><a xlink:href="exif-utils_8c.html#a6504651147702fc6db9a5cd4aa997023" target="_top" xlink:title="Store an ExifSShort value into memory in EXIF format.">
<polygon fill="white" stroke="#666666" points="571.5,-75 480.5,-75 480.5,-56 571.5,-56 571.5,-75"/>
<text text-anchor="middle" x="526" y="-63" font-family="Helvetica,sans-Serif" font-size="10.00">exif_set_sshort</text>
</a>
</g>
</g>
<!-- Node2&#45;&gt;Node14 -->
<g id="edge22_Node000002_Node000014" class="edge">
<title>Node2&#45;&gt;Node14</title>
<g id="a_edge22_Node000002_Node000014"><a xlink:title=" ">
<path fill="none" stroke="#63b8ff" d="M229.49,-231.16C235.3,-193.56 255.99,-97 319,-57.5 370.19,-25.41 443.44,-39.12 487.4,-52.18"/>
<polygon fill="#63b8ff" stroke="#63b8ff" points="486.15,-55.45 496.74,-55.09 488.23,-48.77 486.15,-55.45"/>
</a>
</g>
</g>
<!-- Node15 -->
<g id="Node000015" class="node">
<title>Node15</title>
<g id="a_Node000015"><a xlink:href="exif-utils_8c.html#aca1790a72b1833dff1b0bf728052c3c5" target="_top" xlink:title="Store an ExifSRational value into memory in EXIF format.">
<polygon fill="white" stroke="#666666" points="578,-19 474,-19 474,0 578,0 578,-19"/>
<text text-anchor="middle" x="526" y="-7" font-family="Helvetica,sans-Serif" font-size="10.00">exif_set_srational</text>
</a>
</g>
</g>
<!-- Node2&#45;&gt;Node15 -->
<g id="edge20_Node000002_Node000015" class="edge">
<title>Node2&#45;&gt;Node15</title>
<g id="a_edge20_Node000002_Node000015"><a xlink:title=" ">
<path fill="none" stroke="#63b8ff" d="M228.97,-231.26C233.69,-191.3 252.36,-83.17 319,-33.5 359.77,-3.12 418.24,1.05 462.48,-1.32"/>
<polygon fill="#63b8ff" stroke="#63b8ff" points="461.96,-4.79 472.17,-1.97 462.43,2.19 461.96,-4.79"/>
</a>
</g>
</g>
<!-- Node4&#45;&gt;Node5 -->
<g id="edge4_Node000004_Node000005" class="edge">
<title>Node4&#45;&gt;Node5</title>
<g id="a_edge4_Node000004_Node000005"><a xlink:title=" ">
<path fill="none" stroke="#63b8ff" d="M561.16,-369.52C576.83,-364.93 595.62,-359.44 612.39,-354.54"/>
<polygon fill="#63b8ff" stroke="#63b8ff" points="613,-358.01 621.62,-351.84 611.04,-351.29 613,-358.01"/>
</a>
</g>
</g>
<!-- Node6&#45;&gt;Node4 -->
<g id="edge6_Node000006_Node000004" class="edge">
<title>Node6&#45;&gt;Node4</title>
<g id="a_edge6_Node000006_Node000004"><a xlink:title=" ">
<path fill="none" stroke="#63b8ff" d="M428.35,-379.5C442.69,-379.5 458.41,-379.5 472.93,-379.5"/>
<polygon fill="#63b8ff" stroke="#63b8ff" points="472.76,-383 482.76,-379.5 472.76,-376 472.76,-383"/>
</a>
</g>
</g>
<!-- Node7&#45;&gt;Node8 -->
<g id="edge8_Node000007_Node000008" class="edge">
<title>Node7&#45;&gt;Node8</title>
<g id="a_edge8_Node000007_Node000008"><a xlink:title=" ">
<path fill="none" stroke="#63b8ff" d="M421.98,-297.95C436.56,-296.05 453.11,-293.89 468.62,-291.86"/>
<polygon fill="#63b8ff" stroke="#63b8ff" points="468.72,-295.38 478.18,-290.61 467.81,-288.44 468.72,-295.38"/>
</a>
</g>
</g>
<!-- Node9&#45;&gt;Node5 -->
<g id="edge11_Node000009_Node000005" class="edge">
<title>Node9&#45;&gt;Node5</title>
<g id="a_edge11_Node000009_Node000005"><a xlink:title=" ">
<path fill="none" stroke="#63b8ff" d="M540.73,-237.38C551.18,-245.05 565.79,-256.08 578,-266.5 600.1,-285.34 624.11,-308.57 639.79,-324.14"/>
<polygon fill="#63b8ff" stroke="#63b8ff" points="636.96,-326.26 646.51,-330.85 641.91,-321.31 636.96,-326.26"/>
</a>
</g>
</g>
<!-- Node10&#45;&gt;Node11 -->
<g id="edge14_Node000010_Node000011" class="edge">
<title>Node10&#45;&gt;Node11</title>
<g id="a_edge14_Node000010_Node000011"><a xlink:title=" ">
<path fill="none" stroke="#63b8ff" d="M561.16,-141.52C576.83,-136.93 595.62,-131.44 612.39,-126.54"/>
<polygon fill="#63b8ff" stroke="#63b8ff" points="613,-130.01 621.62,-123.84 611.04,-123.29 613,-130.01"/>
</a>
</g>
</g>
<!-- Node12&#45;&gt;Node10 -->
<g id="edge16_Node000012_Node000010" class="edge">
<title>Node12&#45;&gt;Node10</title>
<g id="a_edge16_Node000012_Node000010"><a xlink:title=" ">
<path fill="none" stroke="#63b8ff" d="M427.95,-151.5C442.43,-151.5 458.36,-151.5 473.06,-151.5"/>
<polygon fill="#63b8ff" stroke="#63b8ff" points="473.01,-155 483.01,-151.5 473.01,-148 473.01,-155"/>
</a>
</g>
</g>
<!-- Node13&#45;&gt;Node14 -->
<g id="edge18_Node000013_Node000014" class="edge">
<title>Node13&#45;&gt;Node14</title>
<g id="a_edge18_Node000013_Node000014"><a xlink:title=" ">
<path fill="none" stroke="#63b8ff" d="M421.98,-72.58C436.69,-71.57 453.42,-70.42 469.05,-69.35"/>
<polygon fill="#63b8ff" stroke="#63b8ff" points="468.94,-72.86 478.68,-68.68 468.46,-65.88 468.94,-72.86"/>
</a>
</g>
</g>
<!-- Node15&#45;&gt;Node11 -->
<g id="edge21_Node000015_Node000011" class="edge">
<title>Node15&#45;&gt;Node11</title>
<g id="a_edge21_Node000015_Node000011"><a xlink:title=" ">
<path fill="none" stroke="#63b8ff" d="M540.58,-19.3C550.94,-26.86 565.52,-37.65 578,-47.5 598.52,-63.7 621.39,-82.94 637.22,-96.45"/>
<polygon fill="#63b8ff" stroke="#63b8ff" points="634.63,-98.84 644.5,-102.69 639.19,-93.53 634.63,-98.84"/>
</a>
</g>
</g>
</g>
</svg>
