<?xml version="1.0" encoding="UTF-8" standalone="no"?>
<!DOCTYPE svg PUBLIC "-//W3C//DTD SVG 1.1//EN"
 "http://www.w3.org/Graphics/SVG/1.1/DTD/svg11.dtd">
<!-- Generated by graphviz version 2.44.1 (0)
 -->
<!-- Title: exif_data_save_data_content Pages: 1 -->
<svg width="699pt" height="344pt"
 viewBox="0.00 0.00 699.00 344.00" xmlns="http://www.w3.org/2000/svg" xmlns:xlink="http://www.w3.org/1999/xlink">
<g id="graph0" class="graph" transform="scale(1 1) rotate(0) translate(4 340)">
<title>exif_data_save_data_content</title>
<polygon fill="white" stroke="transparent" points="-4,4 -4,-340 695,-340 695,4 -4,4"/>
<!-- Node1 -->
<g id="node1" class="node">
<title>Node1</title>
<g id="a_node1"><a xlink:title=" ">
<polygon fill="#bfbfbf" stroke="black" points="0,-131 0,-161 118,-161 118,-131 0,-131"/>
<text text-anchor="start" x="8" y="-149" font-family="Helvetica,sans-Serif" font-size="10.00">exif_data_save_data</text>
<text text-anchor="middle" x="59" y="-138" font-family="Helvetica,sans-Serif" font-size="10.00">_content</text>
</a>
</g>
</g>
<!-- Node2 -->
<g id="node2" class="node">
<title>Node2</title>
<g id="a_node2"><a xlink:href="exif-data_8c.html#abf711bc683af4b46370d8e22e3e102d1" target="_top" xlink:title=" ">
<polygon fill="white" stroke="black" points="167.5,-311.5 167.5,-330.5 258.5,-330.5 258.5,-311.5 167.5,-311.5"/>
<text text-anchor="middle" x="213" y="-318.5" font-family="Helvetica,sans-Serif" font-size="10.00">cmp_func_intel</text>
</a>
</g>
</g>
<!-- Node1&#45;&gt;Node2 -->
<g id="edge1" class="edge">
<title>Node1&#45;&gt;Node2</title>
<path fill="none" stroke="midnightblue" d="M65.64,-161C77.57,-190.83 108.07,-258.06 154,-297 158.63,-300.93 164,-304.28 169.56,-307.13"/>
<polygon fill="midnightblue" stroke="midnightblue" points="168.45,-310.47 179,-311.45 171.36,-304.1 168.45,-310.47"/>
</g>
<!-- Node6 -->
<g id="node6" class="node">
<title>Node6</title>
<g id="a_node6"><a xlink:href="exif-data_8c.html#ae10308432fc54768805c6ae0ad0ebf9c" target="_top" xlink:title=" ">
<polygon fill="white" stroke="black" points="156.5,-268.5 156.5,-287.5 269.5,-287.5 269.5,-268.5 156.5,-268.5"/>
<text text-anchor="middle" x="213" y="-275.5" font-family="Helvetica,sans-Serif" font-size="10.00">cmp_func_motorola</text>
</a>
</g>
</g>
<!-- Node1&#45;&gt;Node6 -->
<g id="edge5" class="edge">
<title>Node1&#45;&gt;Node6</title>
<path fill="none" stroke="midnightblue" d="M71.89,-161.08C88.68,-181.71 120.97,-219.14 154,-245 162.92,-251.98 173.48,-258.44 183.14,-263.76"/>
<polygon fill="midnightblue" stroke="midnightblue" points="181.56,-266.89 192.03,-268.5 184.84,-260.71 181.56,-266.89"/>
</g>
<!-- Node7 -->
<g id="node7" class="node">
<title>Node7</title>
<g id="a_node7"><a xlink:href="exif-data_8c.html#a88e57798676ccd2df6243dd8b7a4d33c" target="_top" xlink:title=" ">
<polygon fill="white" stroke="black" points="154,-153 154,-183 272,-183 272,-153 154,-153"/>
<text text-anchor="start" x="162" y="-171" font-family="Helvetica,sans-Serif" font-size="10.00">exif_data_save_data</text>
<text text-anchor="middle" x="213" y="-160" font-family="Helvetica,sans-Serif" font-size="10.00">_entry</text>
</a>
</g>
</g>
<!-- Node1&#45;&gt;Node7 -->
<g id="edge7" class="edge">
<title>Node1&#45;&gt;Node7</title>
<path fill="none" stroke="midnightblue" d="M118.33,-154.44C126.7,-155.65 135.36,-156.91 143.9,-158.14"/>
<polygon fill="midnightblue" stroke="midnightblue" points="143.43,-161.61 153.82,-159.58 144.43,-154.68 143.43,-161.61"/>
</g>
<!-- Node10 -->
<g id="node10" class="node">
<title>Node10</title>
<g id="a_node10"><a xlink:href="exif-mem_8c.html#a3dcfe6794d82e79e92da5e2c62484b17" target="_top" xlink:title=" ">
<polygon fill="white" stroke="black" points="320,-278.5 320,-297.5 424,-297.5 424,-278.5 320,-278.5"/>
<text text-anchor="middle" x="372" y="-285.5" font-family="Helvetica,sans-Serif" font-size="10.00">exif_mem_realloc</text>
</a>
</g>
</g>
<!-- Node1&#45;&gt;Node10 -->
<g id="edge20" class="edge">
<title>Node1&#45;&gt;Node10</title>
<path fill="none" stroke="midnightblue" d="M86.47,-161C131.1,-185.86 224.62,-236.11 308,-269 313.79,-271.28 319.97,-273.45 326.1,-275.46"/>
<polygon fill="midnightblue" stroke="midnightblue" points="325.07,-278.8 335.66,-278.46 327.17,-272.12 325.07,-278.8"/>
</g>
<!-- Node13 -->
<g id="node13" class="node">
<title>Node13</title>
<g id="a_node13"><a xlink:href="exif-utils_8c.html#ac90147d0cc97bec7a577bf9576191bf8" target="_top" xlink:title="Store an ExifLong value into memory in EXIF format.">
<polygon fill="white" stroke="black" points="331,-76.5 331,-95.5 413,-95.5 413,-76.5 331,-76.5"/>
<text text-anchor="middle" x="372" y="-83.5" font-family="Helvetica,sans-Serif" font-size="10.00">exif_set_long</text>
</a>
</g>
</g>
<!-- Node1&#45;&gt;Node13 -->
<g id="edge21" class="edge">
<title>Node1&#45;&gt;Node13</title>
<path fill="none" stroke="midnightblue" d="M118.13,-134.78C176.56,-123.51 265.67,-106.32 321.02,-95.64"/>
<polygon fill="midnightblue" stroke="midnightblue" points="321.79,-99.06 330.94,-93.73 320.46,-92.19 321.79,-99.06"/>
</g>
<!-- Node15 -->
<g id="node15" class="node">
<title>Node15</title>
<g id="a_node15"><a xlink:href="exif-utils_8c.html#ad905d16e26b4052a1db34dbebdc37341" target="_top" xlink:title="Store an ExifShort value into memory in EXIF format.">
<polygon fill="white" stroke="black" points="329,-38.5 329,-57.5 415,-57.5 415,-38.5 329,-38.5"/>
<text text-anchor="middle" x="372" y="-45.5" font-family="Helvetica,sans-Serif" font-size="10.00">exif_set_short</text>
</a>
</g>
</g>
<!-- Node1&#45;&gt;Node15 -->
<g id="edge22" class="edge">
<title>Node1&#45;&gt;Node15</title>
<path fill="none" stroke="midnightblue" d="M87.73,-130.85C106.11,-121.28 131,-109.22 154,-101 208.89,-81.4 274.12,-66.54 318.63,-57.62"/>
<polygon fill="midnightblue" stroke="midnightblue" points="319.51,-61.01 328.64,-55.64 318.16,-54.15 319.51,-61.01"/>
</g>
<!-- Node17 -->
<g id="node17" class="node">
<title>Node17</title>
<g id="a_node17"><a xlink:href="exif-ifd_8c.html#a57651cc68698f037cd9fb8f9d3a021a2" target="_top" xlink:title="Return a textual name of the given IFD.">
<polygon fill="white" stroke="black" points="159.5,-38.5 159.5,-57.5 266.5,-57.5 266.5,-38.5 159.5,-38.5"/>
<text text-anchor="middle" x="213" y="-45.5" font-family="Helvetica,sans-Serif" font-size="10.00">exif_ifd_get_name</text>
</a>
</g>
</g>
<!-- Node1&#45;&gt;Node17 -->
<g id="edge17" class="edge">
<title>Node1&#45;&gt;Node17</title>
<path fill="none" stroke="midnightblue" d="M76.31,-130.87C94.29,-114.74 124.6,-89.21 154,-72 160.59,-68.14 167.93,-64.59 175.1,-61.48"/>
<polygon fill="midnightblue" stroke="midnightblue" points="176.8,-64.57 184.7,-57.51 174.12,-58.1 176.8,-64.57"/>
</g>
<!-- Node18 -->
<g id="node18" class="node">
<title>Node18</title>
<g id="a_node18"><a xlink:href="exif-log_8c.html#a025d4a5d96544913ea6f6ebbec69cb68" target="_top" xlink:title=" ">
<polygon fill="white" stroke="black" points="185,-0.5 185,-19.5 241,-19.5 241,-0.5 185,-0.5"/>
<text text-anchor="middle" x="213" y="-7.5" font-family="Helvetica,sans-Serif" font-size="10.00">exif_log</text>
</a>
</g>
</g>
<!-- Node1&#45;&gt;Node18 -->
<g id="edge18" class="edge">
<title>Node1&#45;&gt;Node18</title>
<path fill="none" stroke="midnightblue" d="M68.3,-130.73C82.58,-105.84 114.15,-56.58 154,-29 160.29,-24.65 167.64,-21.24 174.96,-18.59"/>
<polygon fill="midnightblue" stroke="midnightblue" points="176.37,-21.81 184.82,-15.43 174.23,-15.15 176.37,-21.81"/>
</g>
<!-- Node3 -->
<g id="node3" class="node">
<title>Node3</title>
<g id="a_node3"><a xlink:href="exif-data_8c.html#a0b662825b4c76063b1ba549bf1259a6d" target="_top" xlink:title=" ">
<polygon fill="white" stroke="black" points="340,-316.5 340,-335.5 404,-335.5 404,-316.5 340,-316.5"/>
<text text-anchor="middle" x="372" y="-323.5" font-family="Helvetica,sans-Serif" font-size="10.00">cmp_func</text>
</a>
</g>
</g>
<!-- Node2&#45;&gt;Node3 -->
<g id="edge2" class="edge">
<title>Node2&#45;&gt;Node3</title>
<path fill="none" stroke="midnightblue" d="M258.57,-322.42C280.85,-323.13 307.65,-323.98 329.49,-324.68"/>
<polygon fill="midnightblue" stroke="midnightblue" points="329.67,-328.19 339.78,-325.01 329.89,-321.19 329.67,-328.19"/>
</g>
<!-- Node4 -->
<g id="node4" class="node">
<title>Node4</title>
<g id="a_node4"><a xlink:href="exif-utils_8c.html#a4b4acf537a8c6b9405e7b53be868e4d7" target="_top" xlink:title="Retrieve an ExifShort value from memory.">
<polygon fill="white" stroke="black" points="474.5,-316.5 474.5,-335.5 560.5,-335.5 560.5,-316.5 474.5,-316.5"/>
<text text-anchor="middle" x="517.5" y="-323.5" font-family="Helvetica,sans-Serif" font-size="10.00">exif_get_short</text>
</a>
</g>
</g>
<!-- Node3&#45;&gt;Node4 -->
<g id="edge3" class="edge">
<title>Node3&#45;&gt;Node4</title>
<path fill="none" stroke="midnightblue" d="M404.14,-326C421.62,-326 443.89,-326 463.99,-326"/>
<polygon fill="midnightblue" stroke="midnightblue" points="464.26,-329.5 474.26,-326 464.26,-322.5 464.26,-329.5"/>
</g>
<!-- Node5 -->
<g id="node5" class="node">
<title>Node5</title>
<g id="a_node5"><a xlink:href="exif-utils_8c.html#a6baf094a71392f9cea23ad633ec13c8b" target="_top" xlink:title="Retrieve an ExifSShort value from memory.">
<polygon fill="white" stroke="black" points="599,-316.5 599,-335.5 691,-335.5 691,-316.5 599,-316.5"/>
<text text-anchor="middle" x="645" y="-323.5" font-family="Helvetica,sans-Serif" font-size="10.00">exif_get_sshort</text>
</a>
</g>
</g>
<!-- Node4&#45;&gt;Node5 -->
<g id="edge4" class="edge">
<title>Node4&#45;&gt;Node5</title>
<path fill="none" stroke="midnightblue" d="M560.64,-326C569.63,-326 579.26,-326 588.67,-326"/>
<polygon fill="midnightblue" stroke="midnightblue" points="588.74,-329.5 598.74,-326 588.74,-322.5 588.74,-329.5"/>
</g>
<!-- Node6&#45;&gt;Node3 -->
<g id="edge6" class="edge">
<title>Node6&#45;&gt;Node3</title>
<path fill="none" stroke="midnightblue" d="M244.89,-287.58C263.22,-293.26 286.93,-300.57 308,-307 315.14,-309.18 322.73,-311.48 330.09,-313.7"/>
<polygon fill="midnightblue" stroke="midnightblue" points="329.32,-317.13 339.91,-316.66 331.34,-310.43 329.32,-317.13"/>
</g>
<!-- Node8 -->
<g id="node8" class="node">
<title>Node8</title>
<g id="a_node8"><a xlink:href="exif-format_8c.html#a924038efe0cd8ebade8f44619dd794f3" target="_top" xlink:title="Return the raw size of the given EXIF data type.">
<polygon fill="white" stroke="black" points="312.5,-114.5 312.5,-133.5 431.5,-133.5 431.5,-114.5 312.5,-114.5"/>
<text text-anchor="middle" x="372" y="-121.5" font-family="Helvetica,sans-Serif" font-size="10.00">exif_format_get_size</text>
</a>
</g>
</g>
<!-- Node7&#45;&gt;Node8 -->
<g id="edge8" class="edge">
<title>Node7&#45;&gt;Node8</title>
<path fill="none" stroke="midnightblue" d="M267.59,-152.98C286.93,-147.56 308.52,-141.51 326.94,-136.35"/>
<polygon fill="midnightblue" stroke="midnightblue" points="328.14,-139.65 336.82,-133.58 326.25,-132.91 328.14,-139.65"/>
</g>
<!-- Node9 -->
<g id="node9" class="node">
<title>Node9</title>
<g id="a_node9"><a xlink:href="exif-mem_8c.html#a43190b81b4b4bdb4ffb89bfb612051b1" target="_top" xlink:title=" ">
<polygon fill="white" stroke="black" points="326.5,-240.5 326.5,-259.5 417.5,-259.5 417.5,-240.5 326.5,-240.5"/>
<text text-anchor="middle" x="372" y="-247.5" font-family="Helvetica,sans-Serif" font-size="10.00">exif_mem_free</text>
</a>
</g>
</g>
<!-- Node7&#45;&gt;Node9 -->
<g id="edge9" class="edge">
<title>Node7&#45;&gt;Node9</title>
<path fill="none" stroke="midnightblue" d="M232.79,-183.06C251.08,-197.11 280.12,-217.82 308,-231 312.72,-233.23 317.76,-235.27 322.86,-237.12"/>
<polygon fill="midnightblue" stroke="midnightblue" points="322.08,-240.55 332.67,-240.43 324.31,-233.91 322.08,-240.55"/>
</g>
<!-- Node7&#45;&gt;Node10 -->
<g id="edge10" class="edge">
<title>Node7&#45;&gt;Node10</title>
<path fill="none" stroke="midnightblue" d="M234.49,-183.13C246.15,-192.26 260.65,-204.51 272,-217 290.9,-237.81 285.27,-252.46 308,-269 310.68,-270.95 313.56,-272.7 316.56,-274.27"/>
<polygon fill="midnightblue" stroke="midnightblue" points="315.3,-277.54 325.85,-278.48 318.18,-271.17 315.3,-277.54"/>
</g>
<!-- Node11 -->
<g id="node11" class="node">
<title>Node11</title>
<g id="a_node11"><a xlink:href="exif-mnote-data_8c.html#a704500ea880e6727d8b4a98ff38c0a25" target="_top" xlink:title="Save the raw MakerNote data into a memory buffer.">
<polygon fill="white" stroke="black" points="308,-202.5 308,-221.5 436,-221.5 436,-202.5 308,-202.5"/>
<text text-anchor="middle" x="372" y="-209.5" font-family="Helvetica,sans-Serif" font-size="10.00">exif_mnote_data_save</text>
</a>
</g>
</g>
<!-- Node7&#45;&gt;Node11 -->
<g id="edge11" class="edge">
<title>Node7&#45;&gt;Node11</title>
<path fill="none" stroke="midnightblue" d="M267.59,-183.02C286.93,-188.44 308.52,-194.49 326.94,-199.65"/>
<polygon fill="midnightblue" stroke="midnightblue" points="326.25,-203.09 336.82,-202.42 328.14,-196.35 326.25,-203.09"/>
</g>
<!-- Node12 -->
<g id="node12" class="node">
<title>Node12</title>
<g id="a_node12"><a xlink:href="exif-mnote-data-priv_8h.html#a17548c880619140855af60b037a8c730" target="_top" xlink:title=" ">
<polygon fill="white" stroke="black" points="312.5,-153 312.5,-183 431.5,-183 431.5,-153 312.5,-153"/>
<text text-anchor="start" x="320.5" y="-171" font-family="Helvetica,sans-Serif" font-size="10.00">exif_mnote_data_set</text>
<text text-anchor="middle" x="372" y="-160" font-family="Helvetica,sans-Serif" font-size="10.00">_offset</text>
</a>
</g>
</g>
<!-- Node7&#45;&gt;Node12 -->
<g id="edge12" class="edge">
<title>Node7&#45;&gt;Node12</title>
<path fill="none" stroke="midnightblue" d="M272.01,-168C281.91,-168 292.27,-168 302.4,-168"/>
<polygon fill="midnightblue" stroke="midnightblue" points="302.44,-171.5 312.44,-168 302.44,-164.5 302.44,-171.5"/>
</g>
<!-- Node7&#45;&gt;Node13 -->
<g id="edge13" class="edge">
<title>Node7&#45;&gt;Node13</title>
<path fill="none" stroke="midnightblue" d="M246.79,-152.95C255.26,-148.56 264.19,-143.45 272,-138 289.79,-125.57 289.14,-115.74 308,-105 312.19,-102.62 316.7,-100.5 321.32,-98.64"/>
<polygon fill="midnightblue" stroke="midnightblue" points="322.7,-101.86 330.89,-95.14 320.3,-95.29 322.7,-101.86"/>
</g>
<!-- Node7&#45;&gt;Node15 -->
<g id="edge15" class="edge">
<title>Node7&#45;&gt;Node15</title>
<path fill="none" stroke="midnightblue" d="M226.33,-152.93C247.15,-127.79 288.89,-78.91 308,-67 311.6,-64.76 315.48,-62.77 319.48,-61"/>
<polygon fill="midnightblue" stroke="midnightblue" points="320.95,-64.19 328.98,-57.27 318.39,-57.67 320.95,-64.19"/>
</g>
<!-- Node14 -->
<g id="node14" class="node">
<title>Node14</title>
<g id="a_node14"><a xlink:href="exif-utils_8c.html#ae6e3b9d1663f9ab9bd462d73a310ca03" target="_top" xlink:title="Store an ExifSLong value into memory in EXIF format.">
<polygon fill="white" stroke="black" points="474,-76.5 474,-95.5 561,-95.5 561,-76.5 474,-76.5"/>
<text text-anchor="middle" x="517.5" y="-83.5" font-family="Helvetica,sans-Serif" font-size="10.00">exif_set_slong</text>
</a>
</g>
</g>
<!-- Node13&#45;&gt;Node14 -->
<g id="edge14" class="edge">
<title>Node13&#45;&gt;Node14</title>
<path fill="none" stroke="midnightblue" d="M413.35,-86C429.01,-86 447.14,-86 463.8,-86"/>
<polygon fill="midnightblue" stroke="midnightblue" points="463.95,-89.5 473.95,-86 463.95,-82.5 463.95,-89.5"/>
</g>
<!-- Node16 -->
<g id="node16" class="node">
<title>Node16</title>
<g id="a_node16"><a xlink:href="exif-utils_8c.html#a6504651147702fc6db9a5cd4aa997023" target="_top" xlink:title="Store an ExifSShort value into memory in EXIF format.">
<polygon fill="white" stroke="black" points="472,-38.5 472,-57.5 563,-57.5 563,-38.5 472,-38.5"/>
<text text-anchor="middle" x="517.5" y="-45.5" font-family="Helvetica,sans-Serif" font-size="10.00">exif_set_sshort</text>
</a>
</g>
</g>
<!-- Node15&#45;&gt;Node16 -->
<g id="edge16" class="edge">
<title>Node15&#45;&gt;Node16</title>
<path fill="none" stroke="midnightblue" d="M415.28,-48C429.72,-48 446.09,-48 461.39,-48"/>
<polygon fill="midnightblue" stroke="midnightblue" points="461.78,-51.5 471.78,-48 461.78,-44.5 461.78,-51.5"/>
</g>
<!-- Node19 -->
<g id="node19" class="node">
<title>Node19</title>
<g id="a_node19"><a xlink:href="exif-log_8c.html#a99101b5ad01b2d82ce9d43c9e8534627" target="_top" xlink:title=" ">
<polygon fill="white" stroke="black" points="341,-0.5 341,-19.5 403,-19.5 403,-0.5 341,-0.5"/>
<text text-anchor="middle" x="372" y="-7.5" font-family="Helvetica,sans-Serif" font-size="10.00">exif_logv</text>
</a>
</g>
</g>
<!-- Node18&#45;&gt;Node19 -->
<g id="edge19" class="edge">
<title>Node18&#45;&gt;Node19</title>
<path fill="none" stroke="midnightblue" d="M241.35,-10C265.96,-10 302.47,-10 330.48,-10"/>
<polygon fill="midnightblue" stroke="midnightblue" points="330.75,-13.5 340.75,-10 330.75,-6.5 330.75,-13.5"/>
</g>
</g>
</svg>
