<?xml version="1.0" encoding="UTF-8" standalone="no"?>
<!DOCTYPE svg PUBLIC "-//W3C//DTD SVG 1.1//EN"
 "http://www.w3.org/Graphics/SVG/1.1/DTD/svg11.dtd">
<!-- Generated by graphviz version 2.44.1 (0)
 -->
<!-- Title: libexif/apple/exif&#45;mnote&#45;data&#45;apple.c Pages: 1 -->
<svg width="1056pt" height="475pt"
 viewBox="0.00 0.00 1056.00 475.00" xmlns="http://www.w3.org/2000/svg" xmlns:xlink="http://www.w3.org/1999/xlink">
<g id="graph0" class="graph" transform="scale(1 1) rotate(0) translate(4 471)">
<title>libexif/apple/exif&#45;mnote&#45;data&#45;apple.c</title>
<polygon fill="white" stroke="transparent" points="-4,4 -4,-471 1052,-471 1052,4 -4,4"/>
<!-- Node1 -->
<g id="node1" class="node">
<title>Node1</title>
<g id="a_node1"><a xlink:title=" ">
<polygon fill="#bfbfbf" stroke="black" points="437,-436.5 437,-466.5 553,-466.5 553,-436.5 437,-436.5"/>
<text text-anchor="start" x="445" y="-454.5" font-family="Helvetica,sans-Serif" font-size="10.00">libexif/apple/exif</text>
<text text-anchor="middle" x="495" y="-443.5" font-family="Helvetica,sans-Serif" font-size="10.00">&#45;mnote&#45;data&#45;apple.c</text>
</a>
</g>
</g>
<!-- Node2 -->
<g id="node2" class="node">
<title>Node2</title>
<g id="a_node2"><a xlink:title=" ">
<polygon fill="white" stroke="#bfbfbf" points="212,-380.5 212,-399.5 268,-399.5 268,-380.5 212,-380.5"/>
<text text-anchor="middle" x="240" y="-387.5" font-family="Helvetica,sans-Serif" font-size="10.00">config.h</text>
</a>
</g>
</g>
<!-- Node1&#45;&gt;Node2 -->
<g id="edge1" class="edge">
<title>Node1&#45;&gt;Node2</title>
<path fill="none" stroke="midnightblue" d="M436.82,-436.92C388.07,-425.55 319.89,-409.64 277.91,-399.85"/>
<polygon fill="midnightblue" stroke="midnightblue" points="278.62,-396.42 268.09,-397.55 277.03,-403.23 278.62,-396.42"/>
</g>
<!-- Node3 -->
<g id="node3" class="node">
<title>Node3</title>
<g id="a_node3"><a xlink:href="exif-mnote-data-apple_8h.html" target="_top" xlink:title=" ">
<polygon fill="white" stroke="black" points="333,-380.5 333,-399.5 467,-399.5 467,-380.5 333,-380.5"/>
<text text-anchor="middle" x="400" y="-387.5" font-family="Helvetica,sans-Serif" font-size="10.00">exif&#45;mnote&#45;data&#45;apple.h</text>
</a>
</g>
</g>
<!-- Node1&#45;&gt;Node3 -->
<g id="edge2" class="edge">
<title>Node1&#45;&gt;Node3</title>
<path fill="none" stroke="midnightblue" d="M472.49,-436.4C457.4,-426.95 437.61,-414.56 422.53,-405.11"/>
<polygon fill="midnightblue" stroke="midnightblue" points="424.16,-402 413.82,-399.66 420.44,-407.93 424.16,-402"/>
</g>
<!-- Node5 -->
<g id="node5" class="node">
<title>Node5</title>
<g id="a_node5"><a xlink:href="exif-data_8h.html" target="_top" xlink:title="Defines the ExifData type and the associated functions.">
<polygon fill="white" stroke="black" points="720,-319 720,-338 822,-338 822,-319 720,-319"/>
<text text-anchor="middle" x="771" y="-326" font-family="Helvetica,sans-Serif" font-size="10.00">libexif/exif&#45;data.h</text>
</a>
</g>
</g>
<!-- Node1&#45;&gt;Node5 -->
<g id="edge42" class="edge">
<title>Node1&#45;&gt;Node5</title>
<path fill="none" stroke="midnightblue" d="M494.67,-436.39C495.11,-420.35 498.43,-394.53 514,-380 541.83,-354.03 643.16,-340.43 709.96,-334.13"/>
<polygon fill="midnightblue" stroke="midnightblue" points="710.32,-337.61 719.96,-333.22 709.69,-330.64 710.32,-337.61"/>
</g>
<!-- Node10 -->
<g id="node10" class="node">
<title>Node10</title>
<g id="a_node10"><a xlink:href="exif-utils_8h.html" target="_top" xlink:title="EXIF data manipulation functions and types.">
<polygon fill="white" stroke="black" points="244.5,-73 244.5,-92 345.5,-92 345.5,-73 244.5,-73"/>
<text text-anchor="middle" x="295" y="-80" font-family="Helvetica,sans-Serif" font-size="10.00">libexif/exif&#45;utils.h</text>
</a>
</g>
</g>
<!-- Node1&#45;&gt;Node10 -->
<g id="edge43" class="edge">
<title>Node1&#45;&gt;Node10</title>
<path fill="none" stroke="midnightblue" d="M436.78,-446.14C400.39,-440.59 354.75,-428.07 324,-400 299.1,-377.27 296,-363.21 296,-329.5 296,-329.5 296,-329.5 296,-199 296,-164.86 295.56,-125.05 295.26,-102.21"/>
<polygon fill="midnightblue" stroke="midnightblue" points="298.76,-102.15 295.13,-92.19 291.76,-102.24 298.76,-102.15"/>
</g>
<!-- Node21 -->
<g id="node21" class="node">
<title>Node21</title>
<g id="a_node21"><a xlink:title=" ">
<polygon fill="white" stroke="#bfbfbf" points="523,-380.5 523,-399.5 573,-399.5 573,-380.5 523,-380.5"/>
<text text-anchor="middle" x="548" y="-387.5" font-family="Helvetica,sans-Serif" font-size="10.00">stdio.h</text>
</a>
</g>
</g>
<!-- Node1&#45;&gt;Node21 -->
<g id="edge39" class="edge">
<title>Node1&#45;&gt;Node21</title>
<path fill="none" stroke="midnightblue" d="M507.56,-436.4C515.34,-427.66 525.36,-416.41 533.48,-407.3"/>
<polygon fill="midnightblue" stroke="midnightblue" points="536.25,-409.45 540.29,-399.66 531.02,-404.8 536.25,-409.45"/>
</g>
<!-- Node22 -->
<g id="node22" class="node">
<title>Node22</title>
<g id="a_node22"><a xlink:title=" ">
<polygon fill="white" stroke="#bfbfbf" points="591.5,-380.5 591.5,-399.5 644.5,-399.5 644.5,-380.5 591.5,-380.5"/>
<text text-anchor="middle" x="618" y="-387.5" font-family="Helvetica,sans-Serif" font-size="10.00">stdlib.h</text>
</a>
</g>
</g>
<!-- Node1&#45;&gt;Node22 -->
<g id="edge40" class="edge">
<title>Node1&#45;&gt;Node22</title>
<path fill="none" stroke="midnightblue" d="M524.15,-436.4C544.42,-426.59 571.24,-413.62 591.02,-404.05"/>
<polygon fill="midnightblue" stroke="midnightblue" points="592.62,-407.16 600.1,-399.66 589.58,-400.86 592.62,-407.16"/>
</g>
<!-- Node23 -->
<g id="node23" class="node">
<title>Node23</title>
<g id="a_node23"><a xlink:title=" ">
<polygon fill="white" stroke="#bfbfbf" points="662.5,-380.5 662.5,-399.5 715.5,-399.5 715.5,-380.5 662.5,-380.5"/>
<text text-anchor="middle" x="689" y="-387.5" font-family="Helvetica,sans-Serif" font-size="10.00">string.h</text>
</a>
</g>
</g>
<!-- Node1&#45;&gt;Node23 -->
<g id="edge41" class="edge">
<title>Node1&#45;&gt;Node23</title>
<path fill="none" stroke="midnightblue" d="M540.98,-436.4C575.15,-425.92 621.13,-411.81 652.73,-402.12"/>
<polygon fill="midnightblue" stroke="midnightblue" points="653.92,-405.42 662.45,-399.14 651.87,-398.73 653.92,-405.42"/>
</g>
<!-- Node4 -->
<g id="node4" class="node">
<title>Node4</title>
<g id="a_node4"><a xlink:href="exif-byte-order_8h.html" target="_top" xlink:title="Defines the ExifByteOrder enum and the associated functions.">
<polygon fill="white" stroke="black" points="372.5,-6 372.5,-25 503.5,-25 503.5,-6 372.5,-6"/>
<text text-anchor="middle" x="438" y="-13" font-family="Helvetica,sans-Serif" font-size="10.00">libexif/exif&#45;byte&#45;order.h</text>
</a>
</g>
</g>
<!-- Node3&#45;&gt;Node4 -->
<g id="edge3" class="edge">
<title>Node3&#45;&gt;Node4</title>
<path fill="none" stroke="midnightblue" d="M400.9,-380.16C405.8,-332.15 429.24,-102.41 436.1,-35.08"/>
<polygon fill="midnightblue" stroke="midnightblue" points="439.59,-35.4 437.12,-25.09 432.63,-34.69 439.59,-35.4"/>
</g>
<!-- Node3&#45;&gt;Node5 -->
<g id="edge4" class="edge">
<title>Node3&#45;&gt;Node5</title>
<path fill="none" stroke="midnightblue" d="M453.16,-380.48C520.95,-369.6 637.95,-350.84 709.52,-339.36"/>
<polygon fill="midnightblue" stroke="midnightblue" points="710.41,-342.76 719.73,-337.72 709.31,-335.85 710.41,-342.76"/>
</g>
<!-- Node9 -->
<g id="node9" class="node">
<title>Node9</title>
<g id="a_node9"><a xlink:href="exif-mem_8h.html" target="_top" xlink:title="Define the ExifMem data type and the associated functions.">
<polygon fill="white" stroke="black" points="550,-134.5 550,-153.5 656,-153.5 656,-134.5 550,-134.5"/>
<text text-anchor="middle" x="603" y="-141.5" font-family="Helvetica,sans-Serif" font-size="10.00">libexif/exif&#45;mem.h</text>
</a>
</g>
</g>
<!-- Node3&#45;&gt;Node9 -->
<g id="edge30" class="edge">
<title>Node3&#45;&gt;Node9</title>
<path fill="none" stroke="midnightblue" d="M402.56,-380.27C406.96,-365.81 416.7,-336.21 429,-313 460.24,-254.06 464.71,-233.82 515,-190 531.05,-176.02 552.2,-165.02 569.75,-157.4"/>
<polygon fill="midnightblue" stroke="midnightblue" points="571.19,-160.59 579.07,-153.52 568.49,-154.13 571.19,-160.59"/>
</g>
<!-- Node18 -->
<g id="node18" class="node">
<title>Node18</title>
<g id="a_node18"><a xlink:href="exif-mnote-data-priv_8h.html" target="_top" xlink:title=" ">
<polygon fill="white" stroke="black" points="438.5,-313.5 438.5,-343.5 541.5,-343.5 541.5,-313.5 438.5,-313.5"/>
<text text-anchor="start" x="446.5" y="-331.5" font-family="Helvetica,sans-Serif" font-size="10.00">libexif/exif&#45;mnote</text>
<text text-anchor="middle" x="490" y="-320.5" font-family="Helvetica,sans-Serif" font-size="10.00">&#45;data&#45;priv.h</text>
</a>
</g>
</g>
<!-- Node3&#45;&gt;Node18 -->
<g id="edge31" class="edge">
<title>Node3&#45;&gt;Node18</title>
<path fill="none" stroke="midnightblue" d="M412.89,-380.48C425.2,-372.34 444.18,-359.79 460.23,-349.18"/>
<polygon fill="midnightblue" stroke="midnightblue" points="462.38,-351.96 468.79,-343.52 458.52,-346.12 462.38,-351.96"/>
</g>
<!-- Node19 -->
<g id="node19" class="node">
<title>Node19</title>
<g id="a_node19"><a xlink:href="mnote-apple-entry_8h.html" target="_top" xlink:title=" ">
<polygon fill="white" stroke="black" points="114,-67.5 114,-97.5 226,-97.5 226,-67.5 114,-67.5"/>
<text text-anchor="start" x="122" y="-85.5" font-family="Helvetica,sans-Serif" font-size="10.00">libexif/apple/mnote</text>
<text text-anchor="middle" x="170" y="-74.5" font-family="Helvetica,sans-Serif" font-size="10.00">&#45;apple&#45;entry.h</text>
</a>
</g>
</g>
<!-- Node3&#45;&gt;Node19 -->
<g id="edge35" class="edge">
<title>Node3&#45;&gt;Node19</title>
<path fill="none" stroke="midnightblue" d="M389.56,-380.39C380.05,-372.02 366.26,-358.48 358,-344 339.28,-311.21 334,-300.26 334,-262.5 334,-262.5 334,-262.5 334,-199 334,-148.12 280.58,-117.69 234.72,-100.95"/>
<polygon fill="midnightblue" stroke="midnightblue" points="235.66,-97.57 225.07,-97.58 233.35,-104.18 235.66,-97.57"/>
</g>
<!-- Node5&#45;&gt;Node4 -->
<g id="edge5" class="edge">
<title>Node5&#45;&gt;Node4</title>
<path fill="none" stroke="midnightblue" d="M822.13,-326.34C902.17,-321.49 1048,-299.2 1048,-201 1048,-201 1048,-201 1048,-143 1048,-35.12 677.56,-18.56 514.04,-16.5"/>
<polygon fill="midnightblue" stroke="midnightblue" points="513.61,-13 503.57,-16.39 513.53,-20 513.61,-13"/>
</g>
<!-- Node6 -->
<g id="node6" class="node">
<title>Node6</title>
<g id="a_node6"><a xlink:href="exif-data-type_8h.html" target="_top" xlink:title=" ">
<polygon fill="white" stroke="black" points="780,-134.5 780,-153.5 908,-153.5 908,-134.5 780,-134.5"/>
<text text-anchor="middle" x="844" y="-141.5" font-family="Helvetica,sans-Serif" font-size="10.00">libexif/exif&#45;data&#45;type.h</text>
</a>
</g>
</g>
<!-- Node5&#45;&gt;Node6 -->
<g id="edge6" class="edge">
<title>Node5&#45;&gt;Node6</title>
<path fill="none" stroke="midnightblue" d="M790.71,-318.9C806.85,-310.68 828.65,-296.64 839,-277 858.18,-240.61 852.93,-190.41 848.08,-163.62"/>
<polygon fill="midnightblue" stroke="midnightblue" points="851.48,-162.8 846.09,-153.68 844.62,-164.17 851.48,-162.8"/>
</g>
<!-- Node7 -->
<g id="node7" class="node">
<title>Node7</title>
<g id="a_node7"><a xlink:href="exif-ifd_8h.html" target="_top" xlink:title=" ">
<polygon fill="white" stroke="black" points="926.5,-134.5 926.5,-153.5 1019.5,-153.5 1019.5,-134.5 926.5,-134.5"/>
<text text-anchor="middle" x="973" y="-141.5" font-family="Helvetica,sans-Serif" font-size="10.00">libexif/exif&#45;ifd.h</text>
</a>
</g>
</g>
<!-- Node5&#45;&gt;Node7 -->
<g id="edge7" class="edge">
<title>Node5&#45;&gt;Node7</title>
<path fill="none" stroke="midnightblue" d="M814.51,-318.96C867.04,-305.93 952.3,-275.36 984,-210 991.16,-195.23 986.85,-176.6 981.67,-163.08"/>
<polygon fill="midnightblue" stroke="midnightblue" points="984.88,-161.69 977.71,-153.88 978.45,-164.45 984.88,-161.69"/>
</g>
<!-- Node8 -->
<g id="node8" class="node">
<title>Node8</title>
<g id="a_node8"><a xlink:href="exif-log_8h.html" target="_top" xlink:title="Log message infrastructure.">
<polygon fill="white" stroke="black" points="523.5,-190.5 523.5,-209.5 618.5,-209.5 618.5,-190.5 523.5,-190.5"/>
<text text-anchor="middle" x="571" y="-197.5" font-family="Helvetica,sans-Serif" font-size="10.00">libexif/exif&#45;log.h</text>
</a>
</g>
</g>
<!-- Node5&#45;&gt;Node8 -->
<g id="edge8" class="edge">
<title>Node5&#45;&gt;Node8</title>
<path fill="none" stroke="midnightblue" d="M751.04,-318.89C730.22,-309.6 696.92,-293.85 670,-277 653.97,-266.97 613.77,-235.28 589.81,-216.13"/>
<polygon fill="midnightblue" stroke="midnightblue" points="591.79,-213.23 581.8,-209.71 587.41,-218.7 591.79,-213.23"/>
</g>
<!-- Node5&#45;&gt;Node9 -->
<g id="edge29" class="edge">
<title>Node5&#45;&gt;Node9</title>
<path fill="none" stroke="midnightblue" d="M757.57,-318.97C743.4,-309.63 720.85,-293.73 704,-277 666.61,-239.88 631.18,-188.57 613.93,-162.19"/>
<polygon fill="midnightblue" stroke="midnightblue" points="616.8,-160.17 608.43,-153.67 610.92,-163.97 616.8,-160.17"/>
</g>
<!-- Node14 -->
<g id="node14" class="node">
<title>Node14</title>
<g id="a_node14"><a xlink:href="exif-tag_8h.html" target="_top" xlink:title="Handling EXIF tags.">
<polygon fill="white" stroke="black" points="879,-190.5 879,-209.5 975,-209.5 975,-190.5 879,-190.5"/>
<text text-anchor="middle" x="927" y="-197.5" font-family="Helvetica,sans-Serif" font-size="10.00">libexif/exif&#45;tag.h</text>
</a>
</g>
</g>
<!-- Node5&#45;&gt;Node14 -->
<g id="edge15" class="edge">
<title>Node5&#45;&gt;Node14</title>
<path fill="none" stroke="midnightblue" d="M795.79,-318.98C817.53,-310.66 849.14,-296.41 872,-277 891.72,-260.26 908.14,-235.03 917.77,-218.3"/>
<polygon fill="midnightblue" stroke="midnightblue" points="920.83,-220 922.62,-209.56 914.71,-216.6 920.83,-220"/>
</g>
<!-- Node15 -->
<g id="node15" class="node">
<title>Node15</title>
<g id="a_node15"><a xlink:href="exif-content_8h.html" target="_top" xlink:title="Handling EXIF IFDs.">
<polygon fill="white" stroke="black" points="712.5,-252 712.5,-271 829.5,-271 829.5,-252 712.5,-252"/>
<text text-anchor="middle" x="771" y="-259" font-family="Helvetica,sans-Serif" font-size="10.00">libexif/exif&#45;content.h</text>
</a>
</g>
</g>
<!-- Node5&#45;&gt;Node15 -->
<g id="edge18" class="edge">
<title>Node5&#45;&gt;Node15</title>
<path fill="none" stroke="midnightblue" d="M766.21,-318.73C764.2,-309.18 763.74,-293.62 764.82,-281.28"/>
<polygon fill="midnightblue" stroke="midnightblue" points="768.32,-281.52 766.24,-271.13 761.38,-280.54 768.32,-281.52"/>
</g>
<!-- Node17 -->
<g id="node17" class="node">
<title>Node17</title>
<g id="a_node17"><a xlink:href="exif-mnote-data_8h.html" target="_top" xlink:title="Handling EXIF MakerNote tags.">
<polygon fill="white" stroke="black" points="514.5,-246.5 514.5,-276.5 617.5,-276.5 617.5,-246.5 514.5,-246.5"/>
<text text-anchor="start" x="522.5" y="-264.5" font-family="Helvetica,sans-Serif" font-size="10.00">libexif/exif&#45;mnote</text>
<text text-anchor="middle" x="566" y="-253.5" font-family="Helvetica,sans-Serif" font-size="10.00">&#45;data.h</text>
</a>
</g>
</g>
<!-- Node5&#45;&gt;Node17 -->
<g id="edge27" class="edge">
<title>Node5&#45;&gt;Node17</title>
<path fill="none" stroke="midnightblue" d="M743.78,-318.87C712.28,-308.88 659.66,-292.2 619.82,-279.56"/>
<polygon fill="midnightblue" stroke="midnightblue" points="620.83,-276.21 610.24,-276.53 618.72,-282.89 620.83,-276.21"/>
</g>
<!-- Node8&#45;&gt;Node9 -->
<g id="edge9" class="edge">
<title>Node8&#45;&gt;Node9</title>
<path fill="none" stroke="midnightblue" d="M576.28,-190.08C580.71,-182.61 587.16,-171.72 592.62,-162.52"/>
<polygon fill="midnightblue" stroke="midnightblue" points="595.73,-164.14 597.81,-153.75 589.71,-160.57 595.73,-164.14"/>
</g>
<!-- Node13 -->
<g id="node13" class="node">
<title>Node13</title>
<g id="a_node13"><a xlink:title=" ">
<polygon fill="white" stroke="#bfbfbf" points="476,-134.5 476,-153.5 532,-153.5 532,-134.5 476,-134.5"/>
<text text-anchor="middle" x="504" y="-141.5" font-family="Helvetica,sans-Serif" font-size="10.00">stdarg.h</text>
</a>
</g>
</g>
<!-- Node8&#45;&gt;Node13 -->
<g id="edge14" class="edge">
<title>Node8&#45;&gt;Node13</title>
<path fill="none" stroke="midnightblue" d="M560.24,-190.32C550.23,-182.26 535.11,-170.08 523.07,-160.37"/>
<polygon fill="midnightblue" stroke="midnightblue" points="524.94,-157.38 514.96,-153.83 520.55,-162.83 524.94,-157.38"/>
</g>
<!-- Node9&#45;&gt;Node10 -->
<g id="edge10" class="edge">
<title>Node9&#45;&gt;Node10</title>
<path fill="none" stroke="midnightblue" d="M554.03,-134.47C504.88,-125.78 427.05,-111.68 360,-98 354.19,-96.82 348.11,-95.52 342.09,-94.22"/>
<polygon fill="midnightblue" stroke="midnightblue" points="342.59,-90.74 332.07,-92.01 341.09,-97.58 342.59,-90.74"/>
</g>
<!-- Node10&#45;&gt;Node4 -->
<g id="edge11" class="edge">
<title>Node10&#45;&gt;Node4</title>
<path fill="none" stroke="midnightblue" d="M313.99,-72.87C338.46,-61.75 381.2,-42.32 409.56,-29.43"/>
<polygon fill="midnightblue" stroke="midnightblue" points="411.28,-32.49 418.93,-25.17 408.38,-26.12 411.28,-32.49"/>
</g>
<!-- Node11 -->
<g id="node11" class="node">
<title>Node11</title>
<g id="a_node11"><a xlink:href="exif-format_8h.html" target="_top" xlink:title="Handling native EXIF data types.">
<polygon fill="white" stroke="black" points="130.5,-6 130.5,-25 243.5,-25 243.5,-6 130.5,-6"/>
<text text-anchor="middle" x="187" y="-13" font-family="Helvetica,sans-Serif" font-size="10.00">libexif/exif&#45;format.h</text>
</a>
</g>
</g>
<!-- Node10&#45;&gt;Node11 -->
<g id="edge12" class="edge">
<title>Node10&#45;&gt;Node11</title>
<path fill="none" stroke="midnightblue" d="M280.43,-72.73C262.38,-61.87 231.39,-43.22 210.08,-30.39"/>
<polygon fill="midnightblue" stroke="midnightblue" points="211.71,-27.29 201.33,-25.13 208.1,-33.28 211.71,-27.29"/>
</g>
<!-- Node12 -->
<g id="node12" class="node">
<title>Node12</title>
<g id="a_node12"><a xlink:title=" ">
<polygon fill="white" stroke="#bfbfbf" points="262,-6 262,-25 354,-25 354,-6 262,-6"/>
<text text-anchor="middle" x="308" y="-13" font-family="Helvetica,sans-Serif" font-size="10.00">libexif/_stdint.h</text>
</a>
</g>
</g>
<!-- Node10&#45;&gt;Node12 -->
<g id="edge13" class="edge">
<title>Node10&#45;&gt;Node12</title>
<path fill="none" stroke="midnightblue" d="M296.75,-72.73C298.66,-63.18 301.78,-47.62 304.24,-35.28"/>
<polygon fill="midnightblue" stroke="midnightblue" points="307.75,-35.62 306.27,-25.13 300.88,-34.25 307.75,-35.62"/>
</g>
<!-- Node14&#45;&gt;Node6 -->
<g id="edge17" class="edge">
<title>Node14&#45;&gt;Node6</title>
<path fill="none" stroke="midnightblue" d="M913.66,-190.32C900.84,-181.98 881.22,-169.21 866.06,-159.35"/>
<polygon fill="midnightblue" stroke="midnightblue" points="867.59,-156.17 857.3,-153.65 863.78,-162.04 867.59,-156.17"/>
</g>
<!-- Node14&#45;&gt;Node7 -->
<g id="edge16" class="edge">
<title>Node14&#45;&gt;Node7</title>
<path fill="none" stroke="midnightblue" d="M934.6,-190.08C941.23,-182.3 951.02,-170.8 959.06,-161.37"/>
<polygon fill="midnightblue" stroke="midnightblue" points="961.73,-163.63 965.55,-153.75 956.4,-159.09 961.73,-163.63"/>
</g>
<!-- Node15&#45;&gt;Node5 -->
<g id="edge24" class="edge">
<title>Node15&#45;&gt;Node5</title>
<path fill="none" stroke="midnightblue" d="M775.76,-271.13C777.78,-280.62 778.26,-296.17 777.2,-308.54"/>
<polygon fill="midnightblue" stroke="midnightblue" points="773.69,-308.35 775.79,-318.73 780.63,-309.31 773.69,-308.35"/>
</g>
<!-- Node15&#45;&gt;Node8 -->
<g id="edge25" class="edge">
<title>Node15&#45;&gt;Node8</title>
<path fill="none" stroke="midnightblue" d="M742.34,-251.98C707.44,-241.59 648.35,-224.01 609.5,-212.45"/>
<polygon fill="midnightblue" stroke="midnightblue" points="610.18,-209.01 599.6,-209.51 608.19,-215.72 610.18,-209.01"/>
</g>
<!-- Node15&#45;&gt;Node9 -->
<g id="edge26" class="edge">
<title>Node15&#45;&gt;Node9</title>
<path fill="none" stroke="midnightblue" d="M758.37,-251.82C729.79,-232.17 659.89,-184.11 624.41,-159.72"/>
<polygon fill="midnightblue" stroke="midnightblue" points="626,-156.56 615.77,-153.78 622.03,-162.33 626,-156.56"/>
</g>
<!-- Node15&#45;&gt;Node14 -->
<g id="edge19" class="edge">
<title>Node15&#45;&gt;Node14</title>
<path fill="none" stroke="midnightblue" d="M793.35,-251.98C819.99,-241.81 864.71,-224.76 895.01,-213.2"/>
<polygon fill="midnightblue" stroke="midnightblue" points="896.59,-216.34 904.69,-209.51 894.1,-209.8 896.59,-216.34"/>
</g>
<!-- Node16 -->
<g id="node16" class="node">
<title>Node16</title>
<g id="a_node16"><a xlink:href="exif-entry_8h.html" target="_top" xlink:title="Handling EXIF entries.">
<polygon fill="white" stroke="black" points="719,-190.5 719,-209.5 823,-209.5 823,-190.5 719,-190.5"/>
<text text-anchor="middle" x="771" y="-197.5" font-family="Helvetica,sans-Serif" font-size="10.00">libexif/exif&#45;entry.h</text>
</a>
</g>
</g>
<!-- Node15&#45;&gt;Node16 -->
<g id="edge20" class="edge">
<title>Node15&#45;&gt;Node16</title>
<path fill="none" stroke="midnightblue" d="M766.1,-251.98C764.27,-243.58 763.8,-230.48 764.69,-219.66"/>
<polygon fill="midnightblue" stroke="midnightblue" points="768.19,-219.9 766.1,-209.51 761.25,-218.93 768.19,-219.9"/>
</g>
<!-- Node16&#45;&gt;Node9 -->
<g id="edge23" class="edge">
<title>Node16&#45;&gt;Node9</title>
<path fill="none" stroke="midnightblue" d="M744.38,-190.44C715.99,-181.32 670.86,-166.81 639.25,-156.65"/>
<polygon fill="midnightblue" stroke="midnightblue" points="640.09,-153.24 629.5,-153.52 637.94,-159.91 640.09,-153.24"/>
</g>
<!-- Node16&#45;&gt;Node11 -->
<g id="edge22" class="edge">
<title>Node16&#45;&gt;Node11</title>
<path fill="none" stroke="midnightblue" d="M759.57,-190.32C740.8,-176.48 701.85,-149.39 665,-134 624.95,-117.28 347.43,-53.1 234.57,-27.31"/>
<polygon fill="midnightblue" stroke="midnightblue" points="235.02,-23.83 224.5,-25.01 233.47,-30.65 235.02,-23.83"/>
</g>
<!-- Node16&#45;&gt;Node15 -->
<g id="edge21" class="edge">
<title>Node16&#45;&gt;Node15</title>
<path fill="none" stroke="midnightblue" d="M775.9,-209.51C777.73,-217.9 778.2,-231 777.32,-241.82"/>
<polygon fill="midnightblue" stroke="midnightblue" points="773.81,-241.59 775.9,-251.98 780.75,-242.55 773.81,-241.59"/>
</g>
<!-- Node17&#45;&gt;Node8 -->
<g id="edge28" class="edge">
<title>Node17&#45;&gt;Node8</title>
<path fill="none" stroke="midnightblue" d="M567.18,-246.4C567.85,-238.47 568.69,-228.46 569.42,-219.86"/>
<polygon fill="midnightblue" stroke="midnightblue" points="572.92,-219.92 570.27,-209.66 565.95,-219.33 572.92,-219.92"/>
</g>
<!-- Node18&#45;&gt;Node4 -->
<g id="edge33" class="edge">
<title>Node18&#45;&gt;Node4</title>
<path fill="none" stroke="midnightblue" d="M487.63,-313.33C479.21,-262.97 450.73,-92.61 441.16,-35.41"/>
<polygon fill="midnightblue" stroke="midnightblue" points="444.57,-34.56 439.47,-25.27 437.66,-35.71 444.57,-34.56"/>
</g>
<!-- Node18&#45;&gt;Node8 -->
<g id="edge34" class="edge">
<title>Node18&#45;&gt;Node8</title>
<path fill="none" stroke="midnightblue" d="M489.65,-313.34C489.89,-296.06 492.5,-266.63 506,-246 514.77,-232.6 529.05,-222.07 541.99,-214.57"/>
<polygon fill="midnightblue" stroke="midnightblue" points="543.95,-217.49 551.08,-209.65 540.62,-211.33 543.95,-217.49"/>
</g>
<!-- Node18&#45;&gt;Node17 -->
<g id="edge32" class="edge">
<title>Node18&#45;&gt;Node17</title>
<path fill="none" stroke="midnightblue" d="M506.49,-313.4C516.85,-304.54 530.38,-292.96 541.93,-283.09"/>
<polygon fill="midnightblue" stroke="midnightblue" points="544.22,-285.74 549.54,-276.58 539.67,-280.42 544.22,-285.74"/>
</g>
<!-- Node19&#45;&gt;Node4 -->
<g id="edge36" class="edge">
<title>Node19&#45;&gt;Node4</title>
<path fill="none" stroke="midnightblue" d="M226.18,-67.87C275.7,-55.86 346.91,-38.59 392.82,-27.46"/>
<polygon fill="midnightblue" stroke="midnightblue" points="393.88,-30.8 402.78,-25.04 392.23,-24 393.88,-30.8"/>
</g>
<!-- Node19&#45;&gt;Node11 -->
<g id="edge37" class="edge">
<title>Node19&#45;&gt;Node11</title>
<path fill="none" stroke="midnightblue" d="M173.69,-67.4C176.16,-57.96 179.43,-45.45 182.11,-35.19"/>
<polygon fill="midnightblue" stroke="midnightblue" points="185.58,-35.75 184.73,-25.19 178.81,-33.98 185.58,-35.75"/>
</g>
<!-- Node20 -->
<g id="node20" class="node">
<title>Node20</title>
<g id="a_node20"><a xlink:href="mnote-apple-tag_8h.html" target="_top" xlink:title=" ">
<polygon fill="white" stroke="black" points="0,-0.5 0,-30.5 112,-30.5 112,-0.5 0,-0.5"/>
<text text-anchor="start" x="8" y="-18.5" font-family="Helvetica,sans-Serif" font-size="10.00">libexif/apple/mnote</text>
<text text-anchor="middle" x="56" y="-7.5" font-family="Helvetica,sans-Serif" font-size="10.00">&#45;apple&#45;tag.h</text>
</a>
</g>
</g>
<!-- Node19&#45;&gt;Node20 -->
<g id="edge38" class="edge">
<title>Node19&#45;&gt;Node20</title>
<path fill="none" stroke="midnightblue" d="M145.26,-67.4C128.98,-58.11 107.46,-45.84 89.63,-35.67"/>
<polygon fill="midnightblue" stroke="midnightblue" points="91.11,-32.49 80.69,-30.58 87.64,-38.57 91.11,-32.49"/>
</g>
</g>
</svg>
