<?xml version="1.0" encoding="UTF-8" standalone="no"?>
<!DOCTYPE svg PUBLIC "-//W3C//DTD SVG 1.1//EN"
 "http://www.w3.org/Graphics/SVG/1.1/DTD/svg11.dtd">
<!-- Generated by graphviz version 7.0.1 (0)
 -->
<!-- Title: libexif/apple/exif&#45;mnote&#45;data&#45;apple.h Pages: 1 -->
<svg width="772pt" height="412pt"
 viewBox="0.00 0.00 772.43 412.00" xmlns="http://www.w3.org/2000/svg" xmlns:xlink="http://www.w3.org/1999/xlink">
<g id="graph0" class="graph" transform="scale(1 1) rotate(0) translate(4 408)">
<title>libexif/apple/exif&#45;mnote&#45;data&#45;apple.h</title>
<!-- Node1 -->
<g id="Node000001" class="node">
<title>Node1</title>
<g id="a_Node000001"><a xlink:title=" ">
<polygon fill="#999999" stroke="#666666" points="332.5,-404 215.5,-404 215.5,-374 332.5,-374 332.5,-404"/>
<text text-anchor="start" x="223.5" y="-392" font-family="Helvetica,sans-Serif" font-size="10.00">libexif/apple/exif</text>
<text text-anchor="middle" x="274" y="-381" font-family="Helvetica,sans-Serif" font-size="10.00">&#45;mnote&#45;data&#45;apple.h</text>
</a>
</g>
</g>
<!-- Node2 -->
<g id="Node000002" class="node">
<title>Node2</title>
<g id="a_Node000002"><a xlink:href="exif-byte-order_8h.html" target="_top" xlink:title="Defines the ExifByteOrder enum and the associated functions.">
<polygon fill="white" stroke="#666666" points="302.5,-24.5 171.5,-24.5 171.5,-5.5 302.5,-5.5 302.5,-24.5"/>
<text text-anchor="middle" x="237" y="-12.5" font-family="Helvetica,sans-Serif" font-size="10.00">libexif/exif&#45;byte&#45;order.h</text>
</a>
</g>
</g>
<!-- Node1&#45;&gt;Node2 -->
<g id="edge1_Node000001_Node000002" class="edge">
<title>Node1&#45;&gt;Node2</title>
<g id="a_edge1_Node000001_Node000002"><a xlink:title=" ">
<path fill="none" stroke="#63b8ff" d="M215.22,-385.43C134.71,-378.4 0,-352.51 0,-258 0,-258 0,-258 0,-140.5 0,-66.87 90.77,-36.69 159.96,-24.38"/>
<polygon fill="#63b8ff" stroke="#63b8ff" points="160.52,-27.84 169.8,-22.74 159.36,-20.93 160.52,-27.84"/>
</a>
</g>
</g>
<!-- Node3 -->
<g id="Node000003" class="node">
<title>Node3</title>
<g id="a_Node000003"><a xlink:href="exif-data_8h.html" target="_top" xlink:title="Defines the ExifData type and the associated functions.">
<polygon fill="white" stroke="#666666" points="446,-332.5 344,-332.5 344,-313.5 446,-313.5 446,-332.5"/>
<text text-anchor="middle" x="395" y="-320.5" font-family="Helvetica,sans-Serif" font-size="10.00">libexif/exif&#45;data.h</text>
</a>
</g>
</g>
<!-- Node1&#45;&gt;Node3 -->
<g id="edge2_Node000001_Node000003" class="edge">
<title>Node1&#45;&gt;Node3</title>
<g id="a_edge2_Node000001_Node000003"><a xlink:title=" ">
<path fill="none" stroke="#63b8ff" d="M301.15,-373.64C321.12,-363.08 348.13,-348.79 368.04,-338.26"/>
<polygon fill="#63b8ff" stroke="#63b8ff" points="369.47,-341.46 376.67,-333.69 366.2,-335.28 369.47,-341.46"/>
</a>
</g>
</g>
<!-- Node7 -->
<g id="Node000007" class="node">
<title>Node7</title>
<g id="a_Node000007"><a xlink:href="exif-mem_8h.html" target="_top" xlink:title="Define the ExifMem data type and the associated functions.">
<polygon fill="white" stroke="#666666" points="440,-151 334,-151 334,-132 440,-132 440,-151"/>
<text text-anchor="middle" x="387" y="-139" font-family="Helvetica,sans-Serif" font-size="10.00">libexif/exif&#45;mem.h</text>
</a>
</g>
</g>
<!-- Node1&#45;&gt;Node7 -->
<g id="edge28_Node000001_Node000007" class="edge">
<title>Node1&#45;&gt;Node7</title>
<g id="a_edge28_Node000001_Node000007"><a xlink:title=" ">
<path fill="none" stroke="#63b8ff" d="M280.23,-373.79C294.75,-340.81 332.06,-256.59 365,-187 368.96,-178.63 373.48,-169.44 377.38,-161.6"/>
<polygon fill="#63b8ff" stroke="#63b8ff" points="380.5,-163.18 381.85,-152.68 374.24,-160.05 380.5,-163.18"/>
</a>
</g>
</g>
<!-- Node16 -->
<g id="Node000016" class="node">
<title>Node16</title>
<g id="a_Node000016"><a xlink:href="exif-mnote-data-priv_8h.html" target="_top" xlink:title=" ">
<polygon fill="white" stroke="#666666" points="169.5,-338 66.5,-338 66.5,-308 169.5,-308 169.5,-338"/>
<text text-anchor="start" x="74.5" y="-326" font-family="Helvetica,sans-Serif" font-size="10.00">libexif/exif&#45;mnote</text>
<text text-anchor="middle" x="118" y="-315" font-family="Helvetica,sans-Serif" font-size="10.00">&#45;data&#45;priv.h</text>
</a>
</g>
</g>
<!-- Node1&#45;&gt;Node16 -->
<g id="edge29_Node000001_Node000016" class="edge">
<title>Node1&#45;&gt;Node16</title>
<g id="a_edge29_Node000001_Node000016"><a xlink:title=" ">
<path fill="none" stroke="#63b8ff" d="M238.99,-373.64C216.79,-364.53 187.83,-352.65 163.81,-342.79"/>
<polygon fill="#63b8ff" stroke="#63b8ff" points="165.14,-339.56 154.56,-339 162.49,-346.03 165.14,-339.56"/>
</a>
</g>
</g>
<!-- Node17 -->
<g id="Node000017" class="node">
<title>Node17</title>
<g id="a_Node000017"><a xlink:href="mnote-apple-entry_8h.html" target="_top" xlink:title=" ">
<polygon fill="white" stroke="#666666" points="641,-96 529,-96 529,-66 641,-66 641,-96"/>
<text text-anchor="start" x="537" y="-84" font-family="Helvetica,sans-Serif" font-size="10.00">libexif/apple/mnote</text>
<text text-anchor="middle" x="585" y="-73" font-family="Helvetica,sans-Serif" font-size="10.00">&#45;apple&#45;entry.h</text>
</a>
</g>
</g>
<!-- Node1&#45;&gt;Node17 -->
<g id="edge33_Node000001_Node000017" class="edge">
<title>Node1&#45;&gt;Node17</title>
<g id="a_edge33_Node000001_Node000017"><a xlink:title=" ">
<path fill="none" stroke="#63b8ff" d="M332.62,-384.79C462.68,-376.07 764,-346.34 764,-258 764,-258 764,-258 764,-195.5 764,-166.04 765.7,-152.96 745,-132 720.67,-107.37 684.39,-94.83 652.53,-88.47"/>
<polygon fill="#63b8ff" stroke="#63b8ff" points="653.43,-85.07 642.96,-86.74 652.18,-91.96 653.43,-85.07"/>
</a>
</g>
</g>
<!-- Node3&#45;&gt;Node2 -->
<g id="edge3_Node000003_Node000002" class="edge">
<title>Node3&#45;&gt;Node2</title>
<g id="a_edge3_Node000003_Node000002"><a xlink:title=" ">
<path fill="none" stroke="#63b8ff" d="M388.55,-313.01C381.62,-303.17 370.46,-286.81 362,-272 312.91,-186.02 264.16,-77.97 245.24,-34.94"/>
<polygon fill="#63b8ff" stroke="#63b8ff" points="248.53,-33.75 241.32,-25.99 242.12,-36.55 248.53,-33.75"/>
</a>
</g>
</g>
<!-- Node4 -->
<g id="Node000004" class="node">
<title>Node4</title>
<g id="a_Node000004"><a xlink:href="exif-data-type_8h.html" target="_top" xlink:title=" ">
<polygon fill="white" stroke="#666666" points="624,-151 496,-151 496,-132 624,-132 624,-151"/>
<text text-anchor="middle" x="560" y="-139" font-family="Helvetica,sans-Serif" font-size="10.00">libexif/exif&#45;data&#45;type.h</text>
</a>
</g>
</g>
<!-- Node3&#45;&gt;Node4 -->
<g id="edge4_Node000003_Node000004" class="edge">
<title>Node3&#45;&gt;Node4</title>
<g id="a_edge4_Node000003_Node000004"><a xlink:title=" ">
<path fill="none" stroke="#63b8ff" d="M430.94,-313.05C454.62,-305.54 484.86,-292.65 505,-272 535.47,-240.76 550.2,-190.06 556.31,-162.27"/>
<polygon fill="#63b8ff" stroke="#63b8ff" points="559.69,-163.25 558.25,-152.75 552.83,-161.86 559.69,-163.25"/>
</a>
</g>
</g>
<!-- Node5 -->
<g id="Node000005" class="node">
<title>Node5</title>
<g id="a_Node000005"><a xlink:href="exif-ifd_8h.html" target="_top" xlink:title=" ">
<polygon fill="white" stroke="#666666" points="735.5,-151 642.5,-151 642.5,-132 735.5,-132 735.5,-151"/>
<text text-anchor="middle" x="689" y="-139" font-family="Helvetica,sans-Serif" font-size="10.00">libexif/exif&#45;ifd.h</text>
</a>
</g>
</g>
<!-- Node3&#45;&gt;Node5 -->
<g id="edge5_Node000003_Node000005" class="edge">
<title>Node3&#45;&gt;Node5</title>
<g id="a_edge5_Node000003_Node000005"><a xlink:title=" ">
<path fill="none" stroke="#63b8ff" d="M446.37,-314.44C487.02,-307.17 544.48,-293.97 591,-272 635.85,-250.82 655.85,-248.76 681,-206 688.68,-192.94 690.45,-175.76 690.42,-162.57"/>
<polygon fill="#63b8ff" stroke="#63b8ff" points="693.94,-162.78 690.04,-152.92 686.94,-163.05 693.94,-162.78"/>
</a>
</g>
</g>
<!-- Node6 -->
<g id="Node000006" class="node">
<title>Node6</title>
<g id="a_Node000006"><a xlink:href="exif-log_8h.html" target="_top" xlink:title="Log message infrastructure.">
<polygon fill="white" stroke="#666666" points="245.5,-206 150.5,-206 150.5,-187 245.5,-187 245.5,-206"/>
<text text-anchor="middle" x="198" y="-194" font-family="Helvetica,sans-Serif" font-size="10.00">libexif/exif&#45;log.h</text>
</a>
</g>
</g>
<!-- Node3&#45;&gt;Node6 -->
<g id="edge6_Node000003_Node000006" class="edge">
<title>Node3&#45;&gt;Node6</title>
<g id="a_edge6_Node000003_Node000006"><a xlink:title=" ">
<path fill="none" stroke="#63b8ff" d="M375.53,-313.13C355.57,-303.77 323.87,-288.15 298,-272 268.78,-253.76 237.25,-229.41 217.57,-213.6"/>
<polygon fill="#63b8ff" stroke="#63b8ff" points="219.83,-210.92 209.86,-207.33 215.42,-216.35 219.83,-210.92"/>
</a>
</g>
</g>
<!-- Node3&#45;&gt;Node7 -->
<g id="edge27_Node000003_Node000007" class="edge">
<title>Node3&#45;&gt;Node7</title>
<g id="a_edge27_Node000003_Node000007"><a xlink:title=" ">
<path fill="none" stroke="#63b8ff" d="M389.05,-313.27C382.89,-303.65 373.66,-287.49 370,-272 360.96,-233.69 371.99,-187.79 380.04,-162.21"/>
<polygon fill="#63b8ff" stroke="#63b8ff" points="383.32,-163.43 383.17,-152.84 376.68,-161.22 383.32,-163.43"/>
</a>
</g>
</g>
<!-- Node12 -->
<g id="Node000012" class="node">
<title>Node12</title>
<g id="a_Node000012"><a xlink:href="exif-tag_8h.html" target="_top" xlink:title="Handling EXIF tags.">
<polygon fill="white" stroke="#666666" points="672,-206 576,-206 576,-187 672,-187 672,-206"/>
<text text-anchor="middle" x="624" y="-194" font-family="Helvetica,sans-Serif" font-size="10.00">libexif/exif&#45;tag.h</text>
</a>
</g>
</g>
<!-- Node3&#45;&gt;Node12 -->
<g id="edge13_Node000003_Node000012" class="edge">
<title>Node3&#45;&gt;Node12</title>
<g id="a_edge13_Node000003_Node000012"><a xlink:title=" ">
<path fill="none" stroke="#63b8ff" d="M446.15,-314.67C481.01,-307.84 527.03,-295.1 562,-272 584.09,-257.41 602.45,-232.61 613.32,-215.66"/>
<polygon fill="#63b8ff" stroke="#63b8ff" points="616.03,-217.93 618.29,-207.58 610.07,-214.26 616.03,-217.93"/>
</a>
</g>
</g>
<!-- Node13 -->
<g id="Node000013" class="node">
<title>Node13</title>
<g id="a_Node000013"><a xlink:href="exif-content_8h.html" target="_top" xlink:title="Handling EXIF IFDs.">
<polygon fill="white" stroke="#666666" points="495.5,-266.5 378.5,-266.5 378.5,-247.5 495.5,-247.5 495.5,-266.5"/>
<text text-anchor="middle" x="437" y="-254.5" font-family="Helvetica,sans-Serif" font-size="10.00">libexif/exif&#45;content.h</text>
</a>
</g>
</g>
<!-- Node3&#45;&gt;Node13 -->
<g id="edge16_Node000003_Node000013" class="edge">
<title>Node3&#45;&gt;Node13</title>
<g id="a_edge16_Node000003_Node000013"><a xlink:title=" ">
<path fill="none" stroke="#63b8ff" d="M395.99,-313.1C400.32,-303.45 410.17,-287.81 419.31,-275.65"/>
<polygon fill="#63b8ff" stroke="#63b8ff" points="421.91,-278 425.43,-268 416.45,-273.62 421.91,-278"/>
</a>
</g>
</g>
<!-- Node15 -->
<g id="Node000015" class="node">
<title>Node15</title>
<g id="a_Node000015"><a xlink:href="exif-mnote-data_8h.html" target="_top" xlink:title="Handling EXIF MakerNote tags.">
<polygon fill="white" stroke="#666666" points="207.5,-272 104.5,-272 104.5,-242 207.5,-242 207.5,-272"/>
<text text-anchor="start" x="112.5" y="-260" font-family="Helvetica,sans-Serif" font-size="10.00">libexif/exif&#45;mnote</text>
<text text-anchor="middle" x="156" y="-249" font-family="Helvetica,sans-Serif" font-size="10.00">&#45;data.h</text>
</a>
</g>
</g>
<!-- Node3&#45;&gt;Node15 -->
<g id="edge25_Node000003_Node000015" class="edge">
<title>Node3&#45;&gt;Node15</title>
<g id="a_edge25_Node000003_Node000015"><a xlink:title=" ">
<path fill="none" stroke="#63b8ff" d="M361.52,-313.03C324.61,-303.15 264.4,-287.03 218.67,-274.78"/>
<polygon fill="#63b8ff" stroke="#63b8ff" points="219.71,-271.44 209.14,-272.23 217.9,-278.2 219.71,-271.44"/>
</a>
</g>
</g>
<!-- Node6&#45;&gt;Node7 -->
<g id="edge7_Node000006_Node000007" class="edge">
<title>Node6&#45;&gt;Node7</title>
<g id="a_edge7_Node000006_Node000007"><a xlink:title=" ">
<path fill="none" stroke="#63b8ff" d="M230.06,-186.51C261.52,-177.69 309.68,-164.18 344.35,-154.46"/>
<polygon fill="#63b8ff" stroke="#63b8ff" points="344.96,-157.93 353.64,-151.85 343.07,-151.19 344.96,-157.93"/>
</a>
</g>
</g>
<!-- Node11 -->
<g id="Node000011" class="node">
<title>Node11</title>
<g id="a_Node000011"><a xlink:title=" ">
<polygon fill="#e0e0e0" stroke="#999999" points="226,-151 170,-151 170,-132 226,-132 226,-151"/>
<text text-anchor="middle" x="198" y="-139" font-family="Helvetica,sans-Serif" font-size="10.00">stdarg.h</text>
</a>
</g>
</g>
<!-- Node6&#45;&gt;Node11 -->
<g id="edge12_Node000006_Node000011" class="edge">
<title>Node6&#45;&gt;Node11</title>
<g id="a_edge12_Node000006_Node000011"><a xlink:title=" ">
<path fill="none" stroke="#63b8ff" d="M198,-186.75C198,-180.27 198,-171.16 198,-162.9"/>
<polygon fill="#63b8ff" stroke="#63b8ff" points="201.5,-162.96 198,-152.96 194.5,-162.96 201.5,-162.96"/>
</a>
</g>
</g>
<!-- Node8 -->
<g id="Node000008" class="node">
<title>Node8</title>
<g id="a_Node000008"><a xlink:href="exif-utils_8h.html" target="_top" xlink:title="EXIF data manipulation functions and types.">
<polygon fill="white" stroke="#666666" points="436.5,-90.5 335.5,-90.5 335.5,-71.5 436.5,-71.5 436.5,-90.5"/>
<text text-anchor="middle" x="386" y="-78.5" font-family="Helvetica,sans-Serif" font-size="10.00">libexif/exif&#45;utils.h</text>
</a>
</g>
</g>
<!-- Node7&#45;&gt;Node8 -->
<g id="edge8_Node000007_Node000008" class="edge">
<title>Node7&#45;&gt;Node8</title>
<g id="a_edge8_Node000007_Node000008"><a xlink:title=" ">
<path fill="none" stroke="#63b8ff" d="M386.85,-131.87C386.72,-124 386.51,-112.1 386.34,-101.89"/>
<polygon fill="#63b8ff" stroke="#63b8ff" points="389.84,-102.12 386.17,-92.18 382.85,-102.24 389.84,-102.12"/>
</a>
</g>
</g>
<!-- Node8&#45;&gt;Node2 -->
<g id="edge9_Node000008_Node000002" class="edge">
<title>Node8&#45;&gt;Node2</title>
<g id="a_edge9_Node000008_Node000002"><a xlink:title=" ">
<path fill="none" stroke="#63b8ff" d="M365.28,-71.1C340.04,-60.26 297.16,-41.84 267.99,-29.31"/>
<polygon fill="#63b8ff" stroke="#63b8ff" points="269.5,-26.15 258.93,-25.42 266.74,-32.58 269.5,-26.15"/>
</a>
</g>
</g>
<!-- Node9 -->
<g id="Node000009" class="node">
<title>Node9</title>
<g id="a_Node000009"><a xlink:href="exif-format_8h.html" target="_top" xlink:title="Handling native EXIF data types.">
<polygon fill="white" stroke="#666666" points="544.5,-24.5 431.5,-24.5 431.5,-5.5 544.5,-5.5 544.5,-24.5"/>
<text text-anchor="middle" x="488" y="-12.5" font-family="Helvetica,sans-Serif" font-size="10.00">libexif/exif&#45;format.h</text>
</a>
</g>
</g>
<!-- Node8&#45;&gt;Node9 -->
<g id="edge10_Node000008_Node000009" class="edge">
<title>Node8&#45;&gt;Node9</title>
<g id="a_edge10_Node000008_Node000009"><a xlink:title=" ">
<path fill="none" stroke="#63b8ff" d="M400.18,-71.1C416.78,-60.69 444.51,-43.29 464.37,-30.83"/>
<polygon fill="#63b8ff" stroke="#63b8ff" points="466.05,-33.91 472.66,-25.63 462.32,-27.98 466.05,-33.91"/>
</a>
</g>
</g>
<!-- Node10 -->
<g id="Node000010" class="node">
<title>Node10</title>
<g id="a_Node000010"><a xlink:title=" ">
<polygon fill="#e0e0e0" stroke="#999999" points="413,-24.5 321,-24.5 321,-5.5 413,-5.5 413,-24.5"/>
<text text-anchor="middle" x="367" y="-12.5" font-family="Helvetica,sans-Serif" font-size="10.00">libexif/_stdint.h</text>
</a>
</g>
</g>
<!-- Node8&#45;&gt;Node10 -->
<g id="edge11_Node000008_Node000010" class="edge">
<title>Node8&#45;&gt;Node10</title>
<g id="a_edge11_Node000008_Node000010"><a xlink:title=" ">
<path fill="none" stroke="#63b8ff" d="M383.36,-71.1C380.66,-62.03 376.39,-47.64 372.89,-35.85"/>
<polygon fill="#63b8ff" stroke="#63b8ff" points="376.25,-34.86 370.05,-26.27 369.54,-36.86 376.25,-34.86"/>
</a>
</g>
</g>
<!-- Node12&#45;&gt;Node4 -->
<g id="edge15_Node000012_Node000004" class="edge">
<title>Node12&#45;&gt;Node4</title>
<g id="a_edge15_Node000012_Node000004"><a xlink:title=" ">
<path fill="none" stroke="#63b8ff" d="M613.14,-186.51C603.89,-178.85 590.38,-167.66 579.29,-158.47"/>
<polygon fill="#63b8ff" stroke="#63b8ff" points="581.8,-156.01 571.86,-152.32 577.33,-161.4 581.8,-156.01"/>
</a>
</g>
</g>
<!-- Node12&#45;&gt;Node5 -->
<g id="edge14_Node000012_Node000005" class="edge">
<title>Node12&#45;&gt;Node5</title>
<g id="a_edge14_Node000012_Node000005"><a xlink:title=" ">
<path fill="none" stroke="#63b8ff" d="M635.03,-186.51C644.42,-178.85 658.15,-167.66 669.41,-158.47"/>
<polygon fill="#63b8ff" stroke="#63b8ff" points="671.43,-161.35 676.96,-152.31 667,-155.92 671.43,-161.35"/>
</a>
</g>
</g>
<!-- Node13&#45;&gt;Node3 -->
<g id="edge22_Node000013_Node000003" class="edge">
<title>Node13&#45;&gt;Node3</title>
<g id="a_edge22_Node000013_Node000003"><a xlink:title=" ">
<path fill="none" stroke="#63b8ff" d="M436.04,-266.82C431.74,-276.44 421.91,-292.08 412.76,-304.26"/>
<polygon fill="#63b8ff" stroke="#63b8ff" points="410.14,-301.92 406.63,-311.92 415.61,-306.3 410.14,-301.92"/>
</a>
</g>
</g>
<!-- Node13&#45;&gt;Node6 -->
<g id="edge23_Node000013_Node000006" class="edge">
<title>Node13&#45;&gt;Node6</title>
<g id="a_edge23_Node000013_Node000006"><a xlink:title=" ">
<path fill="none" stroke="#63b8ff" d="M400.44,-247.05C358.97,-236.9 291.21,-220.31 245.63,-209.16"/>
<polygon fill="#63b8ff" stroke="#63b8ff" points="246.57,-205.79 236.03,-206.81 244.91,-212.58 246.57,-205.79"/>
</a>
</g>
</g>
<!-- Node13&#45;&gt;Node7 -->
<g id="edge24_Node000013_Node000007" class="edge">
<title>Node13&#45;&gt;Node7</title>
<g id="a_edge24_Node000013_Node000007"><a xlink:title=" ">
<path fill="none" stroke="#63b8ff" d="M430.8,-247.13C424.21,-237.4 413.81,-221.14 407,-206 400.6,-191.78 395.39,-174.92 391.9,-162.14"/>
<polygon fill="#63b8ff" stroke="#63b8ff" points="395.38,-161.62 389.47,-152.83 388.61,-163.39 395.38,-161.62"/>
</a>
</g>
</g>
<!-- Node13&#45;&gt;Node12 -->
<g id="edge17_Node000013_Node000012" class="edge">
<title>Node13&#45;&gt;Node12</title>
<g id="a_edge17_Node000013_Node000012"><a xlink:title=" ">
<path fill="none" stroke="#63b8ff" d="M465.4,-247.12C497.12,-237.19 548.67,-221.07 584.35,-209.9"/>
<polygon fill="#63b8ff" stroke="#63b8ff" points="585.39,-213.25 593.89,-206.92 583.3,-206.57 585.39,-213.25"/>
</a>
</g>
</g>
<!-- Node14 -->
<g id="Node000014" class="node">
<title>Node14</title>
<g id="a_Node000014"><a xlink:href="exif-entry_8h.html" target="_top" xlink:title="Handling EXIF entries.">
<polygon fill="white" stroke="#666666" points="520,-206 416,-206 416,-187 520,-187 520,-206"/>
<text text-anchor="middle" x="468" y="-194" font-family="Helvetica,sans-Serif" font-size="10.00">libexif/exif&#45;entry.h</text>
</a>
</g>
</g>
<!-- Node13&#45;&gt;Node14 -->
<g id="edge18_Node000013_Node000014" class="edge">
<title>Node13&#45;&gt;Node14</title>
<g id="a_edge18_Node000013_Node000014"><a xlink:title=" ">
<path fill="none" stroke="#63b8ff" d="M436.62,-247.37C439.22,-239.07 445.55,-226.28 452.04,-215.72"/>
<polygon fill="#63b8ff" stroke="#63b8ff" points="454.94,-217.68 457.6,-207.42 449.13,-213.78 454.94,-217.68"/>
</a>
</g>
</g>
<!-- Node14&#45;&gt;Node7 -->
<g id="edge21_Node000014_Node000007" class="edge">
<title>Node14&#45;&gt;Node7</title>
<g id="a_edge21_Node000014_Node000007"><a xlink:title=" ">
<path fill="none" stroke="#63b8ff" d="M454.26,-186.51C442.2,-178.62 424.41,-166.98 410.16,-157.65"/>
<polygon fill="#63b8ff" stroke="#63b8ff" points="412.09,-154.73 401.8,-152.19 408.26,-160.59 412.09,-154.73"/>
</a>
</g>
</g>
<!-- Node14&#45;&gt;Node9 -->
<g id="edge20_Node000014_Node000009" class="edge">
<title>Node14&#45;&gt;Node9</title>
<g id="a_edge20_Node000014_Node000009"><a xlink:title=" ">
<path fill="none" stroke="#63b8ff" d="M468.96,-186.84C471.99,-159.66 481.37,-75.52 485.73,-36.39"/>
<polygon fill="#63b8ff" stroke="#63b8ff" points="489.2,-36.82 486.83,-26.5 482.24,-36.05 489.2,-36.82"/>
</a>
</g>
</g>
<!-- Node14&#45;&gt;Node13 -->
<g id="edge19_Node000014_Node000013" class="edge">
<title>Node14&#45;&gt;Node13</title>
<g id="a_edge19_Node000014_Node000013"><a xlink:title=" ">
<path fill="none" stroke="#63b8ff" d="M468.37,-206.17C465.76,-214.48 459.42,-227.28 452.93,-237.82"/>
<polygon fill="#63b8ff" stroke="#63b8ff" points="450.04,-235.86 447.37,-246.11 455.85,-239.76 450.04,-235.86"/>
</a>
</g>
</g>
<!-- Node15&#45;&gt;Node6 -->
<g id="edge26_Node000015_Node000006" class="edge">
<title>Node15&#45;&gt;Node6</title>
<g id="a_edge26_Node000015_Node000006"><a xlink:title=" ">
<path fill="none" stroke="#63b8ff" d="M166.38,-241.54C172.05,-233.65 179.11,-223.81 185.12,-215.44"/>
<polygon fill="#63b8ff" stroke="#63b8ff" points="187.9,-217.57 190.89,-207.4 182.21,-213.49 187.9,-217.57"/>
</a>
</g>
</g>
<!-- Node16&#45;&gt;Node2 -->
<g id="edge31_Node000016_Node000002" class="edge">
<title>Node16&#45;&gt;Node2</title>
<g id="a_edge31_Node000016_Node000002"><a xlink:title=" ">
<path fill="none" stroke="#63b8ff" d="M101.03,-307.82C77.55,-286.51 38,-243.75 38,-197.5 38,-197.5 38,-197.5 38,-140.5 38,-74.94 116.59,-42.61 175,-27.64"/>
<polygon fill="#63b8ff" stroke="#63b8ff" points="175.65,-31.08 184.54,-25.31 174,-24.28 175.65,-31.08"/>
</a>
</g>
</g>
<!-- Node16&#45;&gt;Node6 -->
<g id="edge32_Node000016_Node000006" class="edge">
<title>Node16&#45;&gt;Node6</title>
<g id="a_edge32_Node000016_Node000006"><a xlink:title=" ">
<path fill="none" stroke="#63b8ff" d="M107.48,-307.62C96.52,-290.71 82.67,-262.37 96,-242 106.04,-226.67 122.63,-216.6 139.55,-209.98"/>
<polygon fill="#63b8ff" stroke="#63b8ff" points="140.36,-213.41 148.64,-206.79 138.04,-206.8 140.36,-213.41"/>
</a>
</g>
</g>
<!-- Node16&#45;&gt;Node15 -->
<g id="edge30_Node000016_Node000015" class="edge">
<title>Node16&#45;&gt;Node15</title>
<g id="a_edge30_Node000016_Node000015"><a xlink:title=" ">
<path fill="none" stroke="#63b8ff" d="M126.43,-307.8C130.96,-300.17 136.66,-290.57 141.84,-281.84"/>
<polygon fill="#63b8ff" stroke="#63b8ff" points="144.72,-283.85 146.82,-273.47 138.7,-280.28 144.72,-283.85"/>
</a>
</g>
</g>
<!-- Node17&#45;&gt;Node2 -->
<g id="edge34_Node000017_Node000002" class="edge">
<title>Node17&#45;&gt;Node2</title>
<g id="a_edge34_Node000017_Node000002"><a xlink:title=" ">
<path fill="none" stroke="#63b8ff" d="M528.52,-69.71C473.31,-59.64 386.86,-43.84 312,-30 306.82,-29.04 301.44,-28.04 296.04,-27.04"/>
<polygon fill="#63b8ff" stroke="#63b8ff" points="296.97,-23.65 286.5,-25.26 295.69,-30.53 296.97,-23.65"/>
</a>
</g>
</g>
<!-- Node17&#45;&gt;Node9 -->
<g id="edge35_Node000017_Node000009" class="edge">
<title>Node17&#45;&gt;Node9</title>
<g id="a_edge35_Node000017_Node000009"><a xlink:title=" ">
<path fill="none" stroke="#63b8ff" d="M563.47,-65.8C547.91,-55.53 526.9,-41.67 511.01,-31.18"/>
<polygon fill="#63b8ff" stroke="#63b8ff" points="512.94,-28.26 502.67,-25.68 509.09,-34.11 512.94,-28.26"/>
</a>
</g>
</g>
<!-- Node18 -->
<g id="Node000018" class="node">
<title>Node18</title>
<g id="a_Node000018"><a xlink:href="mnote-apple-tag_8h.html" target="_top" xlink:title=" ">
<polygon fill="white" stroke="#666666" points="675,-30 563,-30 563,0 675,0 675,-30"/>
<text text-anchor="start" x="571" y="-18" font-family="Helvetica,sans-Serif" font-size="10.00">libexif/apple/mnote</text>
<text text-anchor="middle" x="619" y="-7" font-family="Helvetica,sans-Serif" font-size="10.00">&#45;apple&#45;tag.h</text>
</a>
</g>
</g>
<!-- Node17&#45;&gt;Node18 -->
<g id="edge36_Node000017_Node000018" class="edge">
<title>Node17&#45;&gt;Node18</title>
<g id="a_edge36_Node000017_Node000018"><a xlink:title=" ">
<path fill="none" stroke="#63b8ff" d="M592.55,-65.8C596.55,-58.26 601.58,-48.78 606.18,-40.13"/>
<polygon fill="#63b8ff" stroke="#63b8ff" points="609.16,-41.97 610.77,-31.5 602.98,-38.69 609.16,-41.97"/>
</a>
</g>
</g>
</g>
</svg>
