<?xml version="1.0" encoding="UTF-8" standalone="no"?>
<!DOCTYPE svg PUBLIC "-//W3C//DTD SVG 1.1//EN"
 "http://www.w3.org/Graphics/SVG/1.1/DTD/svg11.dtd">
<!-- Generated by graphviz version 7.0.1 (0)
 -->
<!-- Title: exif_mnote_data_olympus_set_byte_order Pages: 1 -->
<svg width="722pt" height="473pt"
 viewBox="0.00 0.00 722.00 473.00" xmlns="http://www.w3.org/2000/svg" xmlns:xlink="http://www.w3.org/1999/xlink">
<g id="graph0" class="graph" transform="scale(1 1) rotate(0) translate(4 469)">
<title>exif_mnote_data_olympus_set_byte_order</title>
<!-- Node1 -->
<g id="Node000001" class="node">
<title>Node1</title>
<g id="a_Node000001"><a xlink:title=" ">
<polygon fill="#999999" stroke="#666666" points="146,-282.5 0,-282.5 0,-252.5 146,-252.5 146,-282.5"/>
<text text-anchor="start" x="8" y="-270.5" font-family="Helvetica,sans-Serif" font-size="10.00">exif_mnote_data_olympus</text>
<text text-anchor="middle" x="73" y="-259.5" font-family="Helvetica,sans-Serif" font-size="10.00">_set_byte_order</text>
</a>
</g>
</g>
<!-- Node2 -->
<g id="Node000002" class="node">
<title>Node2</title>
<g id="a_Node000002"><a xlink:href="exif-utils_8c.html#a54ef3b86ffeb643e9c4434b85ccf2992" target="_top" xlink:title=" ">
<polygon fill="white" stroke="#666666" points="295,-261.5 182,-261.5 182,-231.5 295,-231.5 295,-261.5"/>
<text text-anchor="start" x="190" y="-249.5" font-family="Helvetica,sans-Serif" font-size="10.00">exif_array_set_byte</text>
<text text-anchor="middle" x="238.5" y="-238.5" font-family="Helvetica,sans-Serif" font-size="10.00">_order</text>
</a>
</g>
</g>
<!-- Node1&#45;&gt;Node2 -->
<g id="edge1_Node000001_Node000002" class="edge">
<title>Node1&#45;&gt;Node2</title>
<g id="a_edge1_Node000001_Node000002"><a xlink:title=" ">
<path fill="none" stroke="#63b8ff" d="M146.19,-258.23C154.33,-257.18 162.6,-256.12 170.67,-255.08"/>
<polygon fill="#63b8ff" stroke="#63b8ff" points="170.93,-258.58 180.4,-253.83 170.04,-251.64 170.93,-258.58"/>
</a>
</g>
</g>
<!-- Node3 -->
<g id="Node000003" class="node">
<title>Node3</title>
<g id="a_Node000003"><a xlink:href="exif-format_8c.html#a924038efe0cd8ebade8f44619dd794f3" target="_top" xlink:title="Return the raw size of the given EXIF data type.">
<polygon fill="white" stroke="#666666" points="450,-465 331,-465 331,-446 450,-446 450,-465"/>
<text text-anchor="middle" x="390.5" y="-453" font-family="Helvetica,sans-Serif" font-size="10.00">exif_format_get_size</text>
</a>
</g>
</g>
<!-- Node1&#45;&gt;Node3 -->
<g id="edge23_Node000001_Node000003" class="edge">
<title>Node1&#45;&gt;Node3</title>
<g id="a_edge23_Node000001_Node000003"><a xlink:title=" ">
<path fill="none" stroke="#63b8ff" d="M99.82,-282.88C158.96,-318.13 303.73,-404.39 363.27,-439.87"/>
<polygon fill="#63b8ff" stroke="#63b8ff" points="361.35,-442.8 371.73,-444.91 364.93,-436.79 361.35,-442.8"/>
</a>
</g>
</g>
<!-- Node2&#45;&gt;Node3 -->
<g id="edge2_Node000002_Node000003" class="edge">
<title>Node2&#45;&gt;Node3</title>
<g id="a_edge2_Node000002_Node000003"><a xlink:title=" ">
<path fill="none" stroke="#63b8ff" d="M247.05,-261.71C257.74,-283.25 277.88,-323.87 295,-358.5 311.03,-390.93 304.56,-406.82 331,-431.5 334.71,-434.96 338.99,-437.96 343.51,-440.54"/>
<polygon fill="#63b8ff" stroke="#63b8ff" points="341.8,-443.6 352.31,-444.89 344.9,-437.33 341.8,-443.6"/>
</a>
</g>
</g>
<!-- Node4 -->
<g id="Node000004" class="node">
<title>Node4</title>
<g id="a_Node000004"><a xlink:href="exif-utils_8c.html#a4ad94614630897766dd0a5c9bc2a59bf" target="_top" xlink:title="Retrieve an ExifLong value from memory.">
<polygon fill="white" stroke="#666666" points="579.5,-389 496.5,-389 496.5,-370 579.5,-370 579.5,-389"/>
<text text-anchor="middle" x="538" y="-377" font-family="Helvetica,sans-Serif" font-size="10.00">exif_get_long</text>
</a>
</g>
</g>
<!-- Node2&#45;&gt;Node4 -->
<g id="edge3_Node000002_Node000004" class="edge">
<title>Node2&#45;&gt;Node4</title>
<g id="a_edge3_Node000002_Node000004"><a xlink:title=" ">
<path fill="none" stroke="#63b8ff" d="M246.38,-261.89C262.6,-297.4 303.92,-383.19 331,-398.5 385.39,-429.24 460.98,-409.43 503.85,-393.58"/>
<polygon fill="#63b8ff" stroke="#63b8ff" points="505.03,-396.87 513.1,-390 502.51,-390.34 505.03,-396.87"/>
</a>
</g>
</g>
<!-- Node5 -->
<g id="Node000005" class="node">
<title>Node5</title>
<g id="a_Node000005"><a xlink:href="exif-utils_8c.html#a56b96f076a13da6ed926e1ef29cb2dc3" target="_top" xlink:title="Retrieve an ExifSLong value from memory.">
<polygon fill="white" stroke="#666666" points="714,-351 626,-351 626,-332 714,-332 714,-351"/>
<text text-anchor="middle" x="670" y="-339" font-family="Helvetica,sans-Serif" font-size="10.00">exif_get_slong</text>
</a>
</g>
</g>
<!-- Node2&#45;&gt;Node5 -->
<g id="edge9_Node000002_Node000005" class="edge">
<title>Node2&#45;&gt;Node5</title>
<g id="a_edge9_Node000002_Node000005"><a xlink:title=" ">
<path fill="none" stroke="#63b8ff" d="M252.19,-261.8C268.35,-280.01 298.14,-309.58 331,-322.5 425.1,-359.5 545.38,-355.35 614.15,-348.65"/>
<polygon fill="#63b8ff" stroke="#63b8ff" points="614.46,-352.14 624.05,-347.62 613.74,-345.17 614.46,-352.14"/>
</a>
</g>
</g>
<!-- Node6 -->
<g id="Node000006" class="node">
<title>Node6</title>
<g id="a_Node000006"><a xlink:href="exif-utils_8c.html#a1feb547c289aa57a4d2119338b03706c" target="_top" xlink:title="Retrieve an ExifRational value from memory.">
<polygon fill="white" stroke="#666666" points="440,-389 341,-389 341,-370 440,-370 440,-389"/>
<text text-anchor="middle" x="390.5" y="-377" font-family="Helvetica,sans-Serif" font-size="10.00">exif_get_rational</text>
</a>
</g>
</g>
<!-- Node2&#45;&gt;Node6 -->
<g id="edge5_Node000002_Node000006" class="edge">
<title>Node2&#45;&gt;Node6</title>
<g id="a_edge5_Node000002_Node000006"><a xlink:title=" ">
<path fill="none" stroke="#63b8ff" d="M248.91,-261.91C263.76,-285.07 294.69,-328.98 331,-355.5 335.93,-359.1 341.48,-362.27 347.15,-365.03"/>
<polygon fill="#63b8ff" stroke="#63b8ff" points="345.42,-368.09 355.98,-368.93 348.25,-361.69 345.42,-368.09"/>
</a>
</g>
</g>
<!-- Node7 -->
<g id="Node000007" class="node">
<title>Node7</title>
<g id="a_Node000007"><a xlink:href="exif-utils_8c.html#a4b4acf537a8c6b9405e7b53be868e4d7" target="_top" xlink:title="Retrieve an ExifShort value from memory.">
<polygon fill="white" stroke="#666666" points="433.5,-313 347.5,-313 347.5,-294 433.5,-294 433.5,-313"/>
<text text-anchor="middle" x="390.5" y="-301" font-family="Helvetica,sans-Serif" font-size="10.00">exif_get_short</text>
</a>
</g>
</g>
<!-- Node2&#45;&gt;Node7 -->
<g id="edge7_Node000002_Node000007" class="edge">
<title>Node2&#45;&gt;Node7</title>
<g id="a_edge7_Node000002_Node000007"><a xlink:title=" ">
<path fill="none" stroke="#63b8ff" d="M280.09,-261.93C302.8,-270.56 330.89,-281.23 352.92,-289.6"/>
<polygon fill="#63b8ff" stroke="#63b8ff" points="351.51,-292.81 362.1,-293.09 353.99,-286.26 351.51,-292.81"/>
</a>
</g>
</g>
<!-- Node8 -->
<g id="Node000008" class="node">
<title>Node8</title>
<g id="a_Node000008"><a xlink:href="exif-utils_8c.html#a6baf094a71392f9cea23ad633ec13c8b" target="_top" xlink:title="Retrieve an ExifSShort value from memory.">
<polygon fill="white" stroke="#666666" points="584,-294 492,-294 492,-275 584,-275 584,-294"/>
<text text-anchor="middle" x="538" y="-282" font-family="Helvetica,sans-Serif" font-size="10.00">exif_get_sshort</text>
</a>
</g>
</g>
<!-- Node2&#45;&gt;Node8 -->
<g id="edge12_Node000002_Node000008" class="edge">
<title>Node2&#45;&gt;Node8</title>
<g id="a_edge12_Node000002_Node000008"><a xlink:title=" ">
<path fill="none" stroke="#63b8ff" d="M295.46,-253.65C348.3,-260.4 427.16,-270.47 480.26,-277.25"/>
<polygon fill="#63b8ff" stroke="#63b8ff" points="479.65,-280.7 490.01,-278.5 480.54,-273.76 479.65,-280.7"/>
</a>
</g>
</g>
<!-- Node9 -->
<g id="Node000009" class="node">
<title>Node9</title>
<g id="a_Node000009"><a xlink:href="exif-utils_8c.html#adb97c3499488d5642a82df1cb16dc2cb" target="_top" xlink:title="Retrieve an ExifSRational value from memory.">
<polygon fill="white" stroke="#666666" points="590,-237 486,-237 486,-218 590,-218 590,-237"/>
<text text-anchor="middle" x="538" y="-225" font-family="Helvetica,sans-Serif" font-size="10.00">exif_get_srational</text>
</a>
</g>
</g>
<!-- Node2&#45;&gt;Node9 -->
<g id="edge10_Node000002_Node000009" class="edge">
<title>Node2&#45;&gt;Node9</title>
<g id="a_edge10_Node000002_Node000009"><a xlink:title=" ">
<path fill="none" stroke="#63b8ff" d="M295.46,-242.93C346.42,-239.67 421.58,-234.87 474.5,-231.49"/>
<polygon fill="#63b8ff" stroke="#63b8ff" points="474.5,-235 484.25,-230.87 474.05,-228.01 474.5,-235"/>
</a>
</g>
</g>
<!-- Node10 -->
<g id="Node000010" class="node">
<title>Node10</title>
<g id="a_Node000010"><a xlink:href="exif-utils_8c.html#ac90147d0cc97bec7a577bf9576191bf8" target="_top" xlink:title="Store an ExifLong value into memory in EXIF format.">
<polygon fill="white" stroke="#666666" points="579,-161 497,-161 497,-142 579,-142 579,-161"/>
<text text-anchor="middle" x="538" y="-149" font-family="Helvetica,sans-Serif" font-size="10.00">exif_set_long</text>
</a>
</g>
</g>
<!-- Node2&#45;&gt;Node10 -->
<g id="edge13_Node000002_Node000010" class="edge">
<title>Node2&#45;&gt;Node10</title>
<g id="a_edge13_Node000002_Node000010"><a xlink:title=" ">
<path fill="none" stroke="#63b8ff" d="M287.96,-231.03C345.57,-212.63 440.75,-182.24 495.24,-164.84"/>
<polygon fill="#63b8ff" stroke="#63b8ff" points="495.99,-168.27 504.46,-161.89 493.86,-161.6 495.99,-168.27"/>
</a>
</g>
</g>
<!-- Node11 -->
<g id="Node000011" class="node">
<title>Node11</title>
<g id="a_Node000011"><a xlink:href="exif-utils_8c.html#ae6e3b9d1663f9ab9bd462d73a310ca03" target="_top" xlink:title="Store an ExifSLong value into memory in EXIF format.">
<polygon fill="white" stroke="#666666" points="713.5,-123 626.5,-123 626.5,-104 713.5,-104 713.5,-123"/>
<text text-anchor="middle" x="670" y="-111" font-family="Helvetica,sans-Serif" font-size="10.00">exif_set_slong</text>
</a>
</g>
</g>
<!-- Node2&#45;&gt;Node11 -->
<g id="edge19_Node000002_Node000011" class="edge">
<title>Node2&#45;&gt;Node11</title>
<g id="a_edge19_Node000002_Node000011"><a xlink:title=" ">
<path fill="none" stroke="#63b8ff" d="M246.5,-231.41C259.23,-205.96 288.79,-155.19 331,-133.5 421.88,-86.8 545.18,-94.3 614.97,-103.92"/>
<polygon fill="#63b8ff" stroke="#63b8ff" points="614.22,-107.35 624.62,-105.32 615.22,-100.42 614.22,-107.35"/>
</a>
</g>
</g>
<!-- Node12 -->
<g id="Node000012" class="node">
<title>Node12</title>
<g id="a_Node000012"><a xlink:href="exif-utils_8c.html#a400a16b1754150f721e9fca67ad89a52" target="_top" xlink:title="Store an ExifRational value into memory in EXIF format.">
<polygon fill="white" stroke="#666666" points="439.5,-161 341.5,-161 341.5,-142 439.5,-142 439.5,-161"/>
<text text-anchor="middle" x="390.5" y="-149" font-family="Helvetica,sans-Serif" font-size="10.00">exif_set_rational</text>
</a>
</g>
</g>
<!-- Node2&#45;&gt;Node12 -->
<g id="edge15_Node000002_Node000012" class="edge">
<title>Node2&#45;&gt;Node12</title>
<g id="a_edge15_Node000002_Node000012"><a xlink:title=" ">
<path fill="none" stroke="#63b8ff" d="M256.37,-231.12C274.01,-215.62 302.98,-191.71 331,-175.5 337.11,-171.96 343.84,-168.69 350.5,-165.77"/>
<polygon fill="#63b8ff" stroke="#63b8ff" points="351.51,-169.14 359.4,-162.07 348.82,-162.68 351.51,-169.14"/>
</a>
</g>
</g>
<!-- Node13 -->
<g id="Node000013" class="node">
<title>Node13</title>
<g id="a_Node000013"><a xlink:href="exif-utils_8c.html#ad905d16e26b4052a1db34dbebdc37341" target="_top" xlink:title="Store an ExifShort value into memory in EXIF format.">
<polygon fill="white" stroke="#666666" points="433.5,-85 347.5,-85 347.5,-66 433.5,-66 433.5,-85"/>
<text text-anchor="middle" x="390.5" y="-73" font-family="Helvetica,sans-Serif" font-size="10.00">exif_set_short</text>
</a>
</g>
</g>
<!-- Node2&#45;&gt;Node13 -->
<g id="edge17_Node000002_Node000013" class="edge">
<title>Node2&#45;&gt;Node13</title>
<g id="a_edge17_Node000002_Node000013"><a xlink:title=" ">
<path fill="none" stroke="#63b8ff" d="M245.16,-231.43C256.88,-202.15 286.46,-137.14 331,-99.5 335.18,-95.97 339.95,-92.9 344.93,-90.25"/>
<polygon fill="#63b8ff" stroke="#63b8ff" points="346.36,-93.44 353.93,-86.03 343.39,-87.1 346.36,-93.44"/>
</a>
</g>
</g>
<!-- Node14 -->
<g id="Node000014" class="node">
<title>Node14</title>
<g id="a_Node000014"><a xlink:href="exif-utils_8c.html#a6504651147702fc6db9a5cd4aa997023" target="_top" xlink:title="Store an ExifSShort value into memory in EXIF format.">
<polygon fill="white" stroke="#666666" points="583.5,-75 492.5,-75 492.5,-56 583.5,-56 583.5,-75"/>
<text text-anchor="middle" x="538" y="-63" font-family="Helvetica,sans-Serif" font-size="10.00">exif_set_sshort</text>
</a>
</g>
</g>
<!-- Node2&#45;&gt;Node14 -->
<g id="edge22_Node000002_Node000014" class="edge">
<title>Node2&#45;&gt;Node14</title>
<g id="a_edge22_Node000002_Node000014"><a xlink:title=" ">
<path fill="none" stroke="#63b8ff" d="M241.49,-231.16C247.3,-193.56 267.99,-97 331,-57.5 382.19,-25.41 455.44,-39.12 499.4,-52.18"/>
<polygon fill="#63b8ff" stroke="#63b8ff" points="498.15,-55.45 508.74,-55.09 500.23,-48.77 498.15,-55.45"/>
</a>
</g>
</g>
<!-- Node15 -->
<g id="Node000015" class="node">
<title>Node15</title>
<g id="a_Node000015"><a xlink:href="exif-utils_8c.html#aca1790a72b1833dff1b0bf728052c3c5" target="_top" xlink:title="Store an ExifSRational value into memory in EXIF format.">
<polygon fill="white" stroke="#666666" points="590,-19 486,-19 486,0 590,0 590,-19"/>
<text text-anchor="middle" x="538" y="-7" font-family="Helvetica,sans-Serif" font-size="10.00">exif_set_srational</text>
</a>
</g>
</g>
<!-- Node2&#45;&gt;Node15 -->
<g id="edge20_Node000002_Node000015" class="edge">
<title>Node2&#45;&gt;Node15</title>
<g id="a_edge20_Node000002_Node000015"><a xlink:title=" ">
<path fill="none" stroke="#63b8ff" d="M240.97,-231.26C245.69,-191.3 264.36,-83.17 331,-33.5 371.77,-3.12 430.24,1.05 474.48,-1.32"/>
<polygon fill="#63b8ff" stroke="#63b8ff" points="473.96,-4.79 484.17,-1.97 474.43,2.19 473.96,-4.79"/>
</a>
</g>
</g>
<!-- Node4&#45;&gt;Node5 -->
<g id="edge4_Node000004_Node000005" class="edge">
<title>Node4&#45;&gt;Node5</title>
<g id="a_edge4_Node000004_Node000005"><a xlink:title=" ">
<path fill="none" stroke="#63b8ff" d="M573.16,-369.52C588.83,-364.93 607.62,-359.44 624.39,-354.54"/>
<polygon fill="#63b8ff" stroke="#63b8ff" points="625,-358.01 633.62,-351.84 623.04,-351.29 625,-358.01"/>
</a>
</g>
</g>
<!-- Node6&#45;&gt;Node4 -->
<g id="edge6_Node000006_Node000004" class="edge">
<title>Node6&#45;&gt;Node4</title>
<g id="a_edge6_Node000006_Node000004"><a xlink:title=" ">
<path fill="none" stroke="#63b8ff" d="M440.35,-379.5C454.69,-379.5 470.41,-379.5 484.93,-379.5"/>
<polygon fill="#63b8ff" stroke="#63b8ff" points="484.76,-383 494.76,-379.5 484.76,-376 484.76,-383"/>
</a>
</g>
</g>
<!-- Node7&#45;&gt;Node8 -->
<g id="edge8_Node000007_Node000008" class="edge">
<title>Node7&#45;&gt;Node8</title>
<g id="a_edge8_Node000007_Node000008"><a xlink:title=" ">
<path fill="none" stroke="#63b8ff" d="M433.98,-297.95C448.56,-296.05 465.11,-293.89 480.62,-291.86"/>
<polygon fill="#63b8ff" stroke="#63b8ff" points="480.72,-295.38 490.18,-290.61 479.81,-288.44 480.72,-295.38"/>
</a>
</g>
</g>
<!-- Node9&#45;&gt;Node5 -->
<g id="edge11_Node000009_Node000005" class="edge">
<title>Node9&#45;&gt;Node5</title>
<g id="a_edge11_Node000009_Node000005"><a xlink:title=" ">
<path fill="none" stroke="#63b8ff" d="M552.73,-237.38C563.18,-245.05 577.79,-256.08 590,-266.5 612.1,-285.34 636.11,-308.57 651.79,-324.14"/>
<polygon fill="#63b8ff" stroke="#63b8ff" points="648.96,-326.26 658.51,-330.85 653.91,-321.31 648.96,-326.26"/>
</a>
</g>
</g>
<!-- Node10&#45;&gt;Node11 -->
<g id="edge14_Node000010_Node000011" class="edge">
<title>Node10&#45;&gt;Node11</title>
<g id="a_edge14_Node000010_Node000011"><a xlink:title=" ">
<path fill="none" stroke="#63b8ff" d="M573.16,-141.52C588.83,-136.93 607.62,-131.44 624.39,-126.54"/>
<polygon fill="#63b8ff" stroke="#63b8ff" points="625,-130.01 633.62,-123.84 623.04,-123.29 625,-130.01"/>
</a>
</g>
</g>
<!-- Node12&#45;&gt;Node10 -->
<g id="edge16_Node000012_Node000010" class="edge">
<title>Node12&#45;&gt;Node10</title>
<g id="a_edge16_Node000012_Node000010"><a xlink:title=" ">
<path fill="none" stroke="#63b8ff" d="M439.95,-151.5C454.43,-151.5 470.36,-151.5 485.06,-151.5"/>
<polygon fill="#63b8ff" stroke="#63b8ff" points="485.01,-155 495.01,-151.5 485.01,-148 485.01,-155"/>
</a>
</g>
</g>
<!-- Node13&#45;&gt;Node14 -->
<g id="edge18_Node000013_Node000014" class="edge">
<title>Node13&#45;&gt;Node14</title>
<g id="a_edge18_Node000013_Node000014"><a xlink:title=" ">
<path fill="none" stroke="#63b8ff" d="M433.98,-72.58C448.69,-71.57 465.42,-70.42 481.05,-69.35"/>
<polygon fill="#63b8ff" stroke="#63b8ff" points="480.94,-72.86 490.68,-68.68 480.46,-65.88 480.94,-72.86"/>
</a>
</g>
</g>
<!-- Node15&#45;&gt;Node11 -->
<g id="edge21_Node000015_Node000011" class="edge">
<title>Node15&#45;&gt;Node11</title>
<g id="a_edge21_Node000015_Node000011"><a xlink:title=" ">
<path fill="none" stroke="#63b8ff" d="M552.58,-19.3C562.94,-26.86 577.52,-37.65 590,-47.5 610.52,-63.7 633.39,-82.94 649.22,-96.45"/>
<polygon fill="#63b8ff" stroke="#63b8ff" points="646.63,-98.84 656.5,-102.69 651.19,-93.53 646.63,-98.84"/>
</a>
</g>
</g>
</g>
</svg>
