<?xml version="1.0" encoding="UTF-8" standalone="no"?>
<!DOCTYPE svg PUBLIC "-//W3C//DTD SVG 1.1//EN"
 "http://www.w3.org/Graphics/SVG/1.1/DTD/svg11.dtd">
<!-- Generated by graphviz version 7.0.1 (0)
 -->
<!-- Title: exif_content_dump Pages: 1 -->
<svg width="1012pt" height="525pt"
 viewBox="0.00 0.00 1012.00 525.00" xmlns="http://www.w3.org/2000/svg" xmlns:xlink="http://www.w3.org/1999/xlink">
<g id="graph0" class="graph" transform="scale(1 1) rotate(0) translate(4 521)">
<title>exif_content_dump</title>
<!-- Node1 -->
<g id="Node000001" class="node">
<title>Node1</title>
<g id="a_Node000001"><a xlink:title="Dump contents of the IFD to stdout.">
<polygon fill="#999999" stroke="#666666" points="110,-206 0,-206 0,-187 110,-187 110,-206"/>
<text text-anchor="middle" x="55" y="-194" font-family="Helvetica,sans-Serif" font-size="10.00">exif_content_dump</text>
</a>
</g>
</g>
<!-- Node2 -->
<g id="Node000002" class="node">
<title>Node2</title>
<g id="a_Node000002"><a xlink:href="exif-entry_8c.html#addd6fdf3f0e4bd8777aff249ebe25da5" target="_top" xlink:title="Dump text representation of ExifEntry to stdout.">
<polygon fill="white" stroke="#666666" points="245,-206 146,-206 146,-187 245,-187 245,-206"/>
<text text-anchor="middle" x="195.5" y="-194" font-family="Helvetica,sans-Serif" font-size="10.00">exif_entry_dump</text>
</a>
</g>
</g>
<!-- Node1&#45;&gt;Node2 -->
<g id="edge1_Node000001_Node000002" class="edge">
<title>Node1&#45;&gt;Node2</title>
<g id="a_edge1_Node000001_Node000002"><a xlink:title=" ">
<path fill="none" stroke="#63b8ff" d="M110.34,-196.5C118.18,-196.5 126.29,-196.5 134.24,-196.5"/>
<polygon fill="#63b8ff" stroke="#63b8ff" points="134.21,-200 144.21,-196.5 134.21,-193 134.21,-200"/>
</a>
</g>
</g>
<!-- Node3 -->
<g id="Node000003" class="node">
<title>Node3</title>
<g id="a_Node000003"><a xlink:href="exif-entry_8c.html#a60425f657af3e00dc8bbb675f91cdb84" target="_top" xlink:title="Return a localized textual representation of the value of the EXIF entry.">
<polygon fill="white" stroke="#666666" points="412,-281 293,-281 293,-262 412,-262 412,-281"/>
<text text-anchor="middle" x="352.5" y="-269" font-family="Helvetica,sans-Serif" font-size="10.00">exif_entry_get_value</text>
</a>
</g>
</g>
<!-- Node2&#45;&gt;Node3 -->
<g id="edge2_Node000002_Node000003" class="edge">
<title>Node2&#45;&gt;Node3</title>
<g id="a_edge2_Node000002_Node000003"><a xlink:title=" ">
<path fill="none" stroke="#63b8ff" d="M217.08,-206.46C243.75,-219.36 290.45,-241.96 321.18,-256.83"/>
<polygon fill="#63b8ff" stroke="#63b8ff" points="319.44,-259.87 329.96,-261.08 322.49,-253.57 319.44,-259.87"/>
</a>
</g>
</g>
<!-- Node21 -->
<g id="Node000021" class="node">
<title>Node21</title>
<g id="a_Node000021"><a xlink:href="exif-format_8c.html#a513bc6b9980641d7e6ff1fe74810b3e0" target="_top" xlink:title="Return a textual representation of the given EXIF data type.">
<polygon fill="white" stroke="#666666" points="416.5,-206 288.5,-206 288.5,-187 416.5,-187 416.5,-206"/>
<text text-anchor="middle" x="352.5" y="-194" font-family="Helvetica,sans-Serif" font-size="10.00">exif_format_get_name</text>
</a>
</g>
</g>
<!-- Node2&#45;&gt;Node21 -->
<g id="edge30_Node000002_Node000021" class="edge">
<title>Node2&#45;&gt;Node21</title>
<g id="a_edge30_Node000002_Node000021"><a xlink:title=" ">
<path fill="none" stroke="#63b8ff" d="M245.12,-196.5C255.27,-196.5 266.18,-196.5 277.02,-196.5"/>
<polygon fill="#63b8ff" stroke="#63b8ff" points="276.74,-200 286.74,-196.5 276.74,-193 276.74,-200"/>
</a>
</g>
</g>
<!-- Node22 -->
<g id="Node000022" class="node">
<title>Node22</title>
<g id="a_Node000022"><a xlink:href="exif-tag_8c.html#a6b4f26f6f8f243e1f8a9e123b9cca589" target="_top" xlink:title="Return a textual name of the given tag when found in the given IFD.">
<polygon fill="white" stroke="#666666" points="424,-93 281,-93 281,-74 424,-74 424,-93"/>
<text text-anchor="middle" x="352.5" y="-81" font-family="Helvetica,sans-Serif" font-size="10.00">exif_tag_get_name_in_ifd</text>
</a>
</g>
</g>
<!-- Node2&#45;&gt;Node22 -->
<g id="edge31_Node000002_Node000022" class="edge">
<title>Node2&#45;&gt;Node22</title>
<g id="a_edge31_Node000002_Node000022"><a xlink:title=" ">
<path fill="none" stroke="#63b8ff" d="M209.98,-186.67C236.55,-167.3 295.92,-124.02 328.69,-100.13"/>
<polygon fill="#63b8ff" stroke="#63b8ff" points="330.69,-103 336.71,-94.28 326.57,-97.34 330.69,-103"/>
</a>
</g>
</g>
<!-- Node4 -->
<g id="Node000004" class="node">
<title>Node4</title>
<g id="a_Node000004"><a xlink:href="exif-content_8c.html#a5d98a5c58c31b49691694b010b29117d" target="_top" xlink:title="Return the ExifEntry in this IFD corresponding to the given tag.">
<polygon fill="white" stroke="#666666" points="593,-443 464,-443 464,-424 593,-424 593,-443"/>
<text text-anchor="middle" x="528.5" y="-431" font-family="Helvetica,sans-Serif" font-size="10.00">exif_content_get_entry</text>
</a>
</g>
</g>
<!-- Node3&#45;&gt;Node4 -->
<g id="edge3_Node000003_Node000004" class="edge">
<title>Node3&#45;&gt;Node4</title>
<g id="a_edge3_Node000003_Node000004"><a xlink:title=" ">
<path fill="none" stroke="#63b8ff" d="M358.52,-281.41C371.7,-306.49 409.78,-373.07 460,-409.5 465.29,-413.34 471.25,-416.61 477.38,-419.39"/>
<polygon fill="#63b8ff" stroke="#63b8ff" points="475.8,-422.52 486.38,-423.04 478.43,-416.04 475.8,-422.52"/>
</a>
</g>
</g>
<!-- Node5 -->
<g id="Node000005" class="node">
<title>Node5</title>
<g id="a_Node000005"><a xlink:href="exif-utils_8c.html#a0c51156312ff6ca97f4d587f776ded8f" target="_top" xlink:title="This function converts rather UCS&#45;2LE than UTF&#45;16 to UTF&#45;8.">
<polygon fill="white" stroke="#666666" points="582.5,-367.5 474.5,-367.5 474.5,-337.5 582.5,-337.5 582.5,-367.5"/>
<text text-anchor="start" x="482.5" y="-355.5" font-family="Helvetica,sans-Serif" font-size="10.00">exif_convert_utf16</text>
<text text-anchor="middle" x="528.5" y="-344.5" font-family="Helvetica,sans-Serif" font-size="10.00">_to_utf8</text>
</a>
</g>
</g>
<!-- Node3&#45;&gt;Node5 -->
<g id="edge4_Node000003_Node000005" class="edge">
<title>Node3&#45;&gt;Node5</title>
<g id="a_edge4_Node000003_Node000005"><a xlink:title=" ">
<path fill="none" stroke="#63b8ff" d="M372.99,-281.37C394.25,-292.05 429.33,-309.43 460,-323.5 466.47,-326.47 473.32,-329.52 480.09,-332.47"/>
<polygon fill="#63b8ff" stroke="#63b8ff" points="478.62,-335.65 489.18,-336.42 481.4,-329.23 478.62,-335.65"/>
</a>
</g>
</g>
<!-- Node6 -->
<g id="Node000006" class="node">
<title>Node6</title>
<g id="a_Node000006"><a xlink:href="exif-utils_8c.html#a4b4acf537a8c6b9405e7b53be868e4d7" target="_top" xlink:title="Retrieve an ExifShort value from memory.">
<polygon fill="white" stroke="#666666" points="735.5,-441 649.5,-441 649.5,-422 735.5,-422 735.5,-441"/>
<text text-anchor="middle" x="692.5" y="-429" font-family="Helvetica,sans-Serif" font-size="10.00">exif_get_short</text>
</a>
</g>
</g>
<!-- Node3&#45;&gt;Node6 -->
<g id="edge25_Node000003_Node000006" class="edge">
<title>Node3&#45;&gt;Node6</title>
<g id="a_edge25_Node000003_Node000006"><a xlink:title=" ">
<path fill="none" stroke="#63b8ff" d="M360.5,-281.39C375.91,-302.4 415.03,-351.59 460,-376.5 490.15,-393.2 579.36,-411.5 637.82,-422.21"/>
<polygon fill="#63b8ff" stroke="#63b8ff" points="637.13,-425.65 647.59,-423.98 638.38,-418.76 637.13,-425.65"/>
</a>
</g>
</g>
<!-- Node8 -->
<g id="Node000008" class="node">
<title>Node8</title>
<g id="a_Node000008"><a xlink:href="exif-data_8c.html#a2d8d50e6a9c19d28fe8192ef7cc52777" target="_top" xlink:title="Return the byte order in use by this EXIF structure.">
<polygon fill="white" stroke="#666666" points="747.5,-403.5 637.5,-403.5 637.5,-373.5 747.5,-373.5 747.5,-403.5"/>
<text text-anchor="start" x="645.5" y="-391.5" font-family="Helvetica,sans-Serif" font-size="10.00">exif_data_get_byte</text>
<text text-anchor="middle" x="692.5" y="-380.5" font-family="Helvetica,sans-Serif" font-size="10.00">_order</text>
</a>
</g>
</g>
<!-- Node3&#45;&gt;Node8 -->
<g id="edge7_Node000003_Node000008" class="edge">
<title>Node3&#45;&gt;Node8</title>
<g id="a_edge7_Node000003_Node000008"><a xlink:title=" ">
<path fill="none" stroke="#63b8ff" d="M409.89,-281.47C471.19,-292.88 564.73,-312.09 597,-328.5 615.82,-338.07 615.4,-347.83 633,-359.5 637.38,-362.4 642.08,-365.2 646.86,-367.84"/>
<polygon fill="#63b8ff" stroke="#63b8ff" points="644.85,-370.74 655.33,-372.32 648.12,-364.55 644.85,-370.74"/>
</a>
</g>
</g>
<!-- Node9 -->
<g id="Node000009" class="node">
<title>Node9</title>
<g id="a_Node000009"><a xlink:href="exif-entry_8c.html#ae02e9d58318a3cd50eb6730b5e657e5a" target="_top" xlink:title="Format the value of an ExifEntry for human display in a generic way.">
<polygon fill="white" stroke="#666666" points="597,-281 460,-281 460,-262 597,-262 597,-281"/>
<text text-anchor="middle" x="528.5" y="-269" font-family="Helvetica,sans-Serif" font-size="10.00">exif_entry_format_value</text>
</a>
</g>
</g>
<!-- Node3&#45;&gt;Node9 -->
<g id="edge8_Node000003_Node000009" class="edge">
<title>Node3&#45;&gt;Node9</title>
<g id="a_edge8_Node000003_Node000009"><a xlink:title=" ">
<path fill="none" stroke="#63b8ff" d="M412.41,-271.5C423.91,-271.5 436.15,-271.5 448.2,-271.5"/>
<polygon fill="#63b8ff" stroke="#63b8ff" points="448.14,-275 458.14,-271.5 448.14,-268 448.14,-275"/>
</a>
</g>
</g>
<!-- Node10 -->
<g id="Node000010" class="node">
<title>Node10</title>
<g id="a_Node000010"><a xlink:href="exif-format_8c.html#a924038efe0cd8ebade8f44619dd794f3" target="_top" xlink:title="Return the raw size of the given EXIF data type.">
<polygon fill="white" stroke="#666666" points="752,-241 633,-241 633,-222 752,-222 752,-241"/>
<text text-anchor="middle" x="692.5" y="-229" font-family="Helvetica,sans-Serif" font-size="10.00">exif_format_get_size</text>
</a>
</g>
</g>
<!-- Node3&#45;&gt;Node10 -->
<g id="edge23_Node000003_Node000010" class="edge">
<title>Node3&#45;&gt;Node10</title>
<g id="a_edge23_Node000003_Node000010"><a xlink:title=" ">
<path fill="none" stroke="#63b8ff" d="M407.84,-261.53C424.53,-258.68 442.99,-255.74 460,-253.5 514.06,-246.37 575.51,-240.64 621.51,-236.82"/>
<polygon fill="#63b8ff" stroke="#63b8ff" points="621.67,-240.32 631.35,-236.01 621.09,-233.34 621.67,-240.32"/>
</a>
</g>
</g>
<!-- Node13 -->
<g id="Node000013" class="node">
<title>Node13</title>
<g id="a_Node000013"><a xlink:href="exif-utils_8c.html#a1feb547c289aa57a4d2119338b03706c" target="_top" xlink:title="Retrieve an ExifRational value from memory.">
<polygon fill="white" stroke="#666666" points="742,-204 643,-204 643,-185 742,-185 742,-204"/>
<text text-anchor="middle" x="692.5" y="-192" font-family="Helvetica,sans-Serif" font-size="10.00">exif_get_rational</text>
</a>
</g>
</g>
<!-- Node3&#45;&gt;Node13 -->
<g id="edge24_Node000003_Node000013" class="edge">
<title>Node3&#45;&gt;Node13</title>
<g id="a_edge24_Node000003_Node000013"><a xlink:title=" ">
<path fill="none" stroke="#63b8ff" d="M378.11,-261.66C399.47,-253.44 431.38,-241.89 460,-234.5 517.46,-219.66 584.39,-208.77 631.46,-202.13"/>
<polygon fill="#63b8ff" stroke="#63b8ff" points="631.76,-205.62 641.18,-200.78 630.8,-198.69 631.76,-205.62"/>
</a>
</g>
</g>
<!-- Node14 -->
<g id="Node000014" class="node">
<title>Node14</title>
<g id="a_Node000014"><a xlink:href="exif-utils_8c.html#adb97c3499488d5642a82df1cb16dc2cb" target="_top" xlink:title="Retrieve an ExifSRational value from memory.">
<polygon fill="white" stroke="#666666" points="744.5,-167 640.5,-167 640.5,-148 744.5,-148 744.5,-167"/>
<text text-anchor="middle" x="692.5" y="-155" font-family="Helvetica,sans-Serif" font-size="10.00">exif_get_srational</text>
</a>
</g>
</g>
<!-- Node3&#45;&gt;Node14 -->
<g id="edge26_Node000003_Node000014" class="edge">
<title>Node3&#45;&gt;Node14</title>
<g id="a_edge26_Node000003_Node000014"><a xlink:title=" ">
<path fill="none" stroke="#63b8ff" d="M365.42,-261.55C384.25,-246.36 422.61,-217.58 460,-202.5 514.72,-180.43 581.2,-168.94 628.85,-163.12"/>
<polygon fill="#63b8ff" stroke="#63b8ff" points="629.21,-166.61 638.74,-161.97 628.4,-159.65 629.21,-166.61"/>
</a>
</g>
</g>
<!-- Node15 -->
<g id="Node000015" class="node">
<title>Node15</title>
<g id="a_Node000015"><a xlink:href="exif-entry_8c.html#ac416e8326bd687f5da299d1b15a731bf" target="_top" xlink:title=" ">
<polygon fill="white" stroke="#666666" points="571.5,-129 485.5,-129 485.5,-110 571.5,-110 571.5,-129"/>
<text text-anchor="middle" x="528.5" y="-117" font-family="Helvetica,sans-Serif" font-size="10.00">exif_entry_log</text>
</a>
</g>
</g>
<!-- Node3&#45;&gt;Node15 -->
<g id="edge20_Node000003_Node000015" class="edge">
<title>Node3&#45;&gt;Node15</title>
<g id="a_edge20_Node000003_Node000015"><a xlink:title=" ">
<path fill="none" stroke="#63b8ff" d="M369.74,-261.6C385.23,-251.52 408.44,-234.68 424,-215.5 446.54,-187.72 433.21,-167.21 460,-143.5 464.37,-139.63 469.41,-136.38 474.72,-133.64"/>
<polygon fill="#63b8ff" stroke="#63b8ff" points="476.07,-136.87 483.78,-129.6 473.22,-130.47 476.07,-136.87"/>
</a>
</g>
</g>
<!-- Node18 -->
<g id="Node000018" class="node">
<title>Node18</title>
<g id="a_Node000018"><a xlink:href="exif-mem_8c.html#a68be7c7afc8cff75adc3b1a28b5ae9a2" target="_top" xlink:title=" ">
<polygon fill="white" stroke="#666666" points="576,-92 481,-92 481,-73 576,-73 576,-92"/>
<text text-anchor="middle" x="528.5" y="-80" font-family="Helvetica,sans-Serif" font-size="10.00">exif_mem_alloc</text>
</a>
</g>
</g>
<!-- Node3&#45;&gt;Node18 -->
<g id="edge27_Node000003_Node000018" class="edge">
<title>Node3&#45;&gt;Node18</title>
<g id="a_edge27_Node000003_Node000018"><a xlink:title=" ">
<path fill="none" stroke="#63b8ff" d="M371.35,-261.55C387.32,-251.78 410.27,-235.46 424,-215.5 454.12,-171.73 421.84,-138.47 460,-101.5 463.07,-98.53 466.56,-96.02 470.3,-93.89"/>
<polygon fill="#63b8ff" stroke="#63b8ff" points="471.68,-97.11 479.31,-89.75 468.76,-90.75 471.68,-97.11"/>
</a>
</g>
</g>
<!-- Node19 -->
<g id="Node000019" class="node">
<title>Node19</title>
<g id="a_Node000019"><a xlink:href="exif-mem_8c.html#a43190b81b4b4bdb4ffb89bfb612051b1" target="_top" xlink:title=" ">
<polygon fill="white" stroke="#666666" points="574,-517 483,-517 483,-498 574,-498 574,-517"/>
<text text-anchor="middle" x="528.5" y="-505" font-family="Helvetica,sans-Serif" font-size="10.00">exif_mem_free</text>
</a>
</g>
</g>
<!-- Node3&#45;&gt;Node19 -->
<g id="edge28_Node000003_Node000019" class="edge">
<title>Node3&#45;&gt;Node19</title>
<g id="a_edge28_Node000003_Node000019"><a xlink:title=" ">
<path fill="none" stroke="#63b8ff" d="M355.25,-281.09C361.97,-315.17 389.42,-431.42 460,-489.5 463.69,-492.53 467.84,-495.06 472.22,-497.16"/>
<polygon fill="#63b8ff" stroke="#63b8ff" points="470.77,-500.35 481.36,-500.79 473.35,-493.85 470.77,-500.35"/>
</a>
</g>
</g>
<!-- Node20 -->
<g id="Node000020" class="node">
<title>Node20</title>
<g id="a_Node000020"><a xlink:href="exif-entry_8c.html#acfe97d1f369d95332b6e796c690093e4" target="_top" xlink:title="Check if a string consists entirely of a single, repeated character.">
<polygon fill="white" stroke="#666666" points="589.5,-480 467.5,-480 467.5,-461 589.5,-461 589.5,-480"/>
<text text-anchor="middle" x="528.5" y="-468" font-family="Helvetica,sans-Serif" font-size="10.00">match_repeated_char</text>
</a>
</g>
</g>
<!-- Node3&#45;&gt;Node20 -->
<g id="edge29_Node000003_Node000020" class="edge">
<title>Node3&#45;&gt;Node20</title>
<g id="a_edge29_Node000003_Node000020"><a xlink:title=" ">
<path fill="none" stroke="#63b8ff" d="M356.27,-281.13C365.5,-311.41 398.17,-405.52 460,-452.5 461.33,-453.51 462.71,-454.46 464.13,-455.36"/>
<polygon fill="#63b8ff" stroke="#63b8ff" points="462.22,-458.31 472.7,-459.85 465.47,-452.11 462.22,-458.31"/>
</a>
</g>
</g>
<!-- Node5&#45;&gt;Node6 -->
<g id="edge5_Node000005_Node000006" class="edge">
<title>Node5&#45;&gt;Node6</title>
<g id="a_edge5_Node000005_Node000006"><a xlink:title=" ">
<path fill="none" stroke="#63b8ff" d="M570.85,-367.89C579.73,-371.84 588.89,-376.43 597,-381.5 614.91,-392.69 614.6,-402.15 633,-412.5 636.16,-414.28 639.52,-415.92 642.96,-417.43"/>
<polygon fill="#63b8ff" stroke="#63b8ff" points="641.43,-420.59 652.02,-421.01 644.01,-414.08 641.43,-420.59"/>
</a>
</g>
</g>
<!-- Node7 -->
<g id="Node000007" class="node">
<title>Node7</title>
<g id="a_Node000007"><a xlink:href="exif-utils_8c.html#a6baf094a71392f9cea23ad633ec13c8b" target="_top" xlink:title="Retrieve an ExifSShort value from memory.">
<polygon fill="white" stroke="#666666" points="880,-398 788,-398 788,-379 880,-379 880,-398"/>
<text text-anchor="middle" x="834" y="-386" font-family="Helvetica,sans-Serif" font-size="10.00">exif_get_sshort</text>
</a>
</g>
</g>
<!-- Node6&#45;&gt;Node7 -->
<g id="edge6_Node000006_Node000007" class="edge">
<title>Node6&#45;&gt;Node7</title>
<g id="a_edge6_Node000006_Node000007"><a xlink:title=" ">
<path fill="none" stroke="#63b8ff" d="M725.85,-421.53C744.96,-415.64 769.37,-408.11 790.07,-401.73"/>
<polygon fill="#63b8ff" stroke="#63b8ff" points="790.85,-405.16 799.37,-398.86 788.79,-398.47 790.85,-405.16"/>
</a>
</g>
</g>
<!-- Node9&#45;&gt;Node6 -->
<g id="edge15_Node000009_Node000006" class="edge">
<title>Node9&#45;&gt;Node6</title>
<g id="a_edge15_Node000009_Node000006"><a xlink:title=" ">
<path fill="none" stroke="#63b8ff" d="M544.98,-281.41C559.97,-291.66 582.49,-308.9 597,-328.5 621.17,-361.15 603,-385.11 633,-412.5 634.89,-414.23 636.94,-415.79 639.1,-417.22"/>
<polygon fill="#63b8ff" stroke="#63b8ff" points="637.35,-420.26 647.82,-421.89 640.66,-414.09 637.35,-420.26"/>
</a>
</g>
</g>
<!-- Node9&#45;&gt;Node7 -->
<g id="edge19_Node000009_Node000007" class="edge">
<title>Node9&#45;&gt;Node7</title>
<g id="a_edge19_Node000009_Node000007"><a xlink:title=" ">
<path fill="none" stroke="#63b8ff" d="M583.17,-281.44C587.97,-283.15 592.65,-285.16 597,-287.5 616.37,-297.95 614.12,-310.18 633,-321.5 646.77,-329.76 735.58,-358.16 790.12,-375.22"/>
<polygon fill="#63b8ff" stroke="#63b8ff" points="788.83,-378.48 799.42,-378.12 790.92,-371.8 788.83,-378.48"/>
</a>
</g>
</g>
<!-- Node9&#45;&gt;Node8 -->
<g id="edge9_Node000009_Node000008" class="edge">
<title>Node9&#45;&gt;Node8</title>
<g id="a_edge9_Node000009_Node000008"><a xlink:title=" ">
<path fill="none" stroke="#63b8ff" d="M571.96,-281.38C580.88,-284.82 589.77,-289.41 597,-295.5 621.96,-316.52 609.33,-337.03 633,-359.5 635.97,-362.32 639.27,-364.92 642.74,-367.31"/>
<polygon fill="#63b8ff" stroke="#63b8ff" points="640.59,-370.1 650.95,-372.35 644.25,-364.13 640.59,-370.1"/>
</a>
</g>
</g>
<!-- Node9&#45;&gt;Node10 -->
<g id="edge10_Node000009_Node000010" class="edge">
<title>Node9&#45;&gt;Node10</title>
<g id="a_edge10_Node000009_Node000010"><a xlink:title=" ">
<path fill="none" stroke="#63b8ff" d="M569.96,-261.51C591.21,-256.26 617.47,-249.78 640.13,-244.18"/>
<polygon fill="#63b8ff" stroke="#63b8ff" points="640.93,-247.59 649.8,-241.8 639.26,-240.79 640.93,-247.59"/>
</a>
</g>
</g>
<!-- Node11 -->
<g id="Node000011" class="node">
<title>Node11</title>
<g id="a_Node000011"><a xlink:href="exif-utils_8c.html#a4ad94614630897766dd0a5c9bc2a59bf" target="_top" xlink:title="Retrieve an ExifLong value from memory.">
<polygon fill="white" stroke="#666666" points="875.5,-261 792.5,-261 792.5,-242 875.5,-242 875.5,-261"/>
<text text-anchor="middle" x="834" y="-249" font-family="Helvetica,sans-Serif" font-size="10.00">exif_get_long</text>
</a>
</g>
</g>
<!-- Node9&#45;&gt;Node11 -->
<g id="edge11_Node000009_Node000011" class="edge">
<title>Node9&#45;&gt;Node11</title>
<g id="a_edge11_Node000009_Node000011"><a xlink:title=" ">
<path fill="none" stroke="#63b8ff" d="M597.23,-267.04C652.66,-263.38 729.93,-258.29 780.69,-254.95"/>
<polygon fill="#63b8ff" stroke="#63b8ff" points="780.79,-258.45 790.53,-254.3 780.33,-251.46 780.79,-258.45"/>
</a>
</g>
</g>
<!-- Node12 -->
<g id="Node000012" class="node">
<title>Node12</title>
<g id="a_Node000012"><a xlink:href="exif-utils_8c.html#a56b96f076a13da6ed926e1ef29cb2dc3" target="_top" xlink:title="Retrieve an ExifSLong value from memory.">
<polygon fill="white" stroke="#666666" points="1004,-261 916,-261 916,-242 1004,-242 1004,-261"/>
<text text-anchor="middle" x="960" y="-249" font-family="Helvetica,sans-Serif" font-size="10.00">exif_get_slong</text>
</a>
</g>
</g>
<!-- Node9&#45;&gt;Node12 -->
<g id="edge16_Node000009_Node000012" class="edge">
<title>Node9&#45;&gt;Node12</title>
<g id="a_edge16_Node000009_Node000012"><a xlink:title=" ">
<path fill="none" stroke="#63b8ff" d="M597.38,-276.53C668.25,-280.56 782.45,-283.61 880,-270.5 890.9,-269.04 902.48,-266.7 913.32,-264.16"/>
<polygon fill="#63b8ff" stroke="#63b8ff" points="913.94,-267.62 922.82,-261.83 912.27,-260.82 913.94,-267.62"/>
</a>
</g>
</g>
<!-- Node9&#45;&gt;Node13 -->
<g id="edge13_Node000009_Node000013" class="edge">
<title>Node9&#45;&gt;Node13</title>
<g id="a_edge13_Node000009_Node000013"><a xlink:title=" ">
<path fill="none" stroke="#63b8ff" d="M544.79,-261.67C564.56,-249.25 600.35,-227.78 633,-213.5 637.29,-211.62 641.83,-209.83 646.41,-208.15"/>
<polygon fill="#63b8ff" stroke="#63b8ff" points="647.33,-211.53 655.62,-204.94 645.03,-204.92 647.33,-211.53"/>
</a>
</g>
</g>
<!-- Node9&#45;&gt;Node14 -->
<g id="edge17_Node000009_Node000014" class="edge">
<title>Node9&#45;&gt;Node14</title>
<g id="a_edge17_Node000009_Node000014"><a xlink:title=" ">
<path fill="none" stroke="#63b8ff" d="M537.58,-261.68C553.77,-242.61 592.13,-200.35 633,-176.5 635.95,-174.78 639.07,-173.19 642.28,-171.73"/>
<polygon fill="#63b8ff" stroke="#63b8ff" points="643.37,-175.07 651.32,-168.06 640.73,-168.58 643.37,-175.07"/>
</a>
</g>
</g>
<!-- Node11&#45;&gt;Node12 -->
<g id="edge12_Node000011_Node000012" class="edge">
<title>Node11&#45;&gt;Node12</title>
<g id="a_edge12_Node000011_Node000012"><a xlink:title=" ">
<path fill="none" stroke="#63b8ff" d="M875.95,-251.5C884.97,-251.5 894.68,-251.5 904.15,-251.5"/>
<polygon fill="#63b8ff" stroke="#63b8ff" points="904.03,-255 914.03,-251.5 904.03,-248 904.03,-255"/>
</a>
</g>
</g>
<!-- Node13&#45;&gt;Node11 -->
<g id="edge14_Node000013_Node000011" class="edge">
<title>Node13&#45;&gt;Node11</title>
<g id="a_edge14_Node000013_Node000011"><a xlink:title=" ">
<path fill="none" stroke="#63b8ff" d="M726.55,-204.44C734.93,-207.18 743.86,-210.28 752,-213.5 769.32,-220.34 788.18,-229.11 803.35,-236.5"/>
<polygon fill="#63b8ff" stroke="#63b8ff" points="801.78,-239.63 812.3,-240.92 804.88,-233.36 801.78,-239.63"/>
</a>
</g>
</g>
<!-- Node14&#45;&gt;Node12 -->
<g id="edge18_Node000014_Node000012" class="edge">
<title>Node14&#45;&gt;Node12</title>
<g id="a_edge18_Node000014_Node000012"><a xlink:title=" ">
<path fill="none" stroke="#63b8ff" d="M724.84,-167.46C733.64,-170.32 743.21,-173.48 752,-176.5 811.61,-196.97 880.3,-222.19 921.65,-237.54"/>
<polygon fill="#63b8ff" stroke="#63b8ff" points="920.29,-240.77 930.89,-240.98 922.73,-234.21 920.29,-240.77"/>
</a>
</g>
</g>
<!-- Node16 -->
<g id="Node000016" class="node">
<title>Node16</title>
<g id="a_Node000016"><a xlink:href="exif-data_8c.html#a9403ed4fde8ef603e9db173eb122efaf" target="_top" xlink:title=" ">
<polygon fill="white" stroke="#666666" points="744.5,-130 640.5,-130 640.5,-111 744.5,-111 744.5,-130"/>
<text text-anchor="middle" x="692.5" y="-118" font-family="Helvetica,sans-Serif" font-size="10.00">exif_data_get_log</text>
</a>
</g>
</g>
<!-- Node15&#45;&gt;Node16 -->
<g id="edge21_Node000015_Node000016" class="edge">
<title>Node15&#45;&gt;Node16</title>
<g id="a_edge21_Node000015_Node000016"><a xlink:title=" ">
<path fill="none" stroke="#63b8ff" d="M571.64,-119.76C589.04,-119.87 609.56,-119.99 628.67,-120.11"/>
<polygon fill="#63b8ff" stroke="#63b8ff" points="628.49,-123.61 638.52,-120.17 628.54,-116.61 628.49,-123.61"/>
</a>
</g>
</g>
<!-- Node17 -->
<g id="Node000017" class="node">
<title>Node17</title>
<g id="a_Node000017"><a xlink:href="exif-log_8c.html#a99101b5ad01b2d82ce9d43c9e8534627" target="_top" xlink:title=" ">
<polygon fill="white" stroke="#666666" points="723.5,-93 661.5,-93 661.5,-74 723.5,-74 723.5,-93"/>
<text text-anchor="middle" x="692.5" y="-81" font-family="Helvetica,sans-Serif" font-size="10.00">exif_logv</text>
</a>
</g>
</g>
<!-- Node15&#45;&gt;Node17 -->
<g id="edge22_Node000015_Node000017" class="edge">
<title>Node15&#45;&gt;Node17</title>
<g id="a_edge22_Node000015_Node000017"><a xlink:title=" ">
<path fill="none" stroke="#63b8ff" d="M571.64,-110.14C595.84,-104.76 626.1,-98.03 650.16,-92.69"/>
<polygon fill="#63b8ff" stroke="#63b8ff" points="650.6,-96.17 659.6,-90.59 649.08,-89.34 650.6,-96.17"/>
</a>
</g>
</g>
<!-- Node23 -->
<g id="Node000023" class="node">
<title>Node23</title>
<g id="a_Node000023"><a xlink:href="exif-tag_8c.html#a389f8ff3411e0525b28367892f1e78d3" target="_top" xlink:title="Finds the first entry in the EXIF tag table with the given tag number using a binary search.">
<polygon fill="white" stroke="#666666" points="584,-55 473,-55 473,-36 584,-36 584,-55"/>
<text text-anchor="middle" x="528.5" y="-43" font-family="Helvetica,sans-Serif" font-size="10.00">exif_tag_table_first</text>
</a>
</g>
</g>
<!-- Node22&#45;&gt;Node23 -->
<g id="edge32_Node000022_Node000023" class="edge">
<title>Node22&#45;&gt;Node23</title>
<g id="a_edge32_Node000022_Node000023"><a xlink:title=" ">
<path fill="none" stroke="#63b8ff" d="M399.22,-73.52C421.11,-68.73 447.54,-62.96 470.71,-57.9"/>
<polygon fill="#63b8ff" stroke="#63b8ff" points="471.29,-61.36 480.31,-55.81 469.79,-54.52 471.29,-61.36"/>
</a>
</g>
</g>
<!-- Node24 -->
<g id="Node000024" class="node">
<title>Node24</title>
<g id="a_Node000024"><a xlink:href="exif-tag_8c.html#a87563ee64809f5f0deb4d780098508c1" target="_top" xlink:title="Return the number of entries in the EXIF tag table, including the terminating NULL entry.">
<polygon fill="white" stroke="#666666" points="752,-56 633,-56 633,-37 752,-37 752,-56"/>
<text text-anchor="middle" x="692.5" y="-44" font-family="Helvetica,sans-Serif" font-size="10.00">exif_tag_table_count</text>
</a>
</g>
</g>
<!-- Node23&#45;&gt;Node24 -->
<g id="edge33_Node000023_Node000024" class="edge">
<title>Node23&#45;&gt;Node24</title>
<g id="a_edge33_Node000023_Node000024"><a xlink:title=" ">
<path fill="none" stroke="#63b8ff" d="M584.35,-45.84C596.22,-45.91 608.94,-45.99 621.31,-46.07"/>
<polygon fill="#63b8ff" stroke="#63b8ff" points="621.01,-49.56 631.04,-46.13 621.06,-42.56 621.01,-49.56"/>
</a>
</g>
</g>
<!-- Node25 -->
<g id="Node000025" class="node">
<title>Node25</title>
<g id="a_Node000025"><a xlink:href="exif-tag_8c.html#a220c1b18832f113bc84ff9551754915f" target="_top" xlink:title="Compares the tag with that in entry.">
<polygon fill="white" stroke="#666666" points="726.5,-19 658.5,-19 658.5,0 726.5,0 726.5,-19"/>
<text text-anchor="middle" x="692.5" y="-7" font-family="Helvetica,sans-Serif" font-size="10.00">match_tag</text>
</a>
</g>
</g>
<!-- Node23&#45;&gt;Node25 -->
<g id="edge34_Node000023_Node000025" class="edge">
<title>Node23&#45;&gt;Node25</title>
<g id="a_edge34_Node000023_Node000025"><a xlink:title=" ">
<path fill="none" stroke="#63b8ff" d="M574.2,-35.57C596.95,-30.51 624.52,-24.38 647.22,-19.34"/>
<polygon fill="#63b8ff" stroke="#63b8ff" points="647.78,-22.8 656.78,-17.22 646.26,-15.97 647.78,-22.8"/>
</a>
</g>
</g>
</g>
</svg>
