<?xml version="1.0" encoding="UTF-8" standalone="no"?>
<!DOCTYPE svg PUBLIC "-//W3C//DTD SVG 1.1//EN"
 "http://www.w3.org/Graphics/SVG/1.1/DTD/svg11.dtd">
<!-- Generated by graphviz version 2.44.1 (0)
 -->
<!-- Title: exif_data_save_data Pages: 1 -->
<svg width="853pt" height="420pt"
 viewBox="0.00 0.00 853.00 420.00" xmlns="http://www.w3.org/2000/svg" xmlns:xlink="http://www.w3.org/1999/xlink">
<g id="graph0" class="graph" transform="scale(1 1) rotate(0) translate(4 416)">
<title>exif_data_save_data</title>
<polygon fill="white" stroke="transparent" points="-4,4 -4,-416 849,-416 849,4 -4,4"/>
<!-- Node1 -->
<g id="node1" class="node">
<title>Node1</title>
<g id="a_node1"><a xlink:title="Store raw EXIF data representing the ExifData structure into a memory buffer.">
<polygon fill="#bfbfbf" stroke="black" points="0,-180.5 0,-199.5 118,-199.5 118,-180.5 0,-180.5"/>
<text text-anchor="middle" x="59" y="-187.5" font-family="Helvetica,sans-Serif" font-size="10.00">exif_data_save_data</text>
</a>
</g>
</g>
<!-- Node2 -->
<g id="node2" class="node">
<title>Node2</title>
<g id="a_node2"><a xlink:href="exif-data_8c.html#a77cbef422b7a511d6405285ad9e00152" target="_top" xlink:title=" ">
<polygon fill="white" stroke="black" points="167.5,-392.5 167.5,-411.5 258.5,-411.5 258.5,-392.5 167.5,-392.5"/>
<text text-anchor="middle" x="213" y="-399.5" font-family="Helvetica,sans-Serif" font-size="10.00">exif_data_alloc</text>
</a>
</g>
</g>
<!-- Node1&#45;&gt;Node2 -->
<g id="edge1" class="edge">
<title>Node1&#45;&gt;Node2</title>
<path fill="none" stroke="midnightblue" d="M62.25,-199.65C69.82,-230.06 97.11,-325.03 154,-378 158.14,-381.85 162.98,-385.13 168.07,-387.9"/>
<polygon fill="midnightblue" stroke="midnightblue" points="166.88,-391.21 177.41,-392.38 169.9,-384.9 166.88,-391.21"/>
</g>
<!-- Node4 -->
<g id="node4" class="node">
<title>Node4</title>
<g id="a_node4"><a xlink:href="exif-data_8c.html#ad1aed9b7d36e7cd97d6ead35de491603" target="_top" xlink:title=" ">
<polygon fill="white" stroke="black" points="154,-175 154,-205 272,-205 272,-175 154,-175"/>
<text text-anchor="start" x="162" y="-193" font-family="Helvetica,sans-Serif" font-size="10.00">exif_data_save_data</text>
<text text-anchor="middle" x="213" y="-182" font-family="Helvetica,sans-Serif" font-size="10.00">_content</text>
</a>
</g>
</g>
<!-- Node1&#45;&gt;Node4 -->
<g id="edge3" class="edge">
<title>Node1&#45;&gt;Node4</title>
<path fill="none" stroke="midnightblue" d="M118.33,-190C126.61,-190 135.17,-190 143.62,-190"/>
<polygon fill="midnightblue" stroke="midnightblue" points="143.82,-193.5 153.82,-190 143.82,-186.5 143.82,-193.5"/>
</g>
<!-- Node16 -->
<g id="node16" class="node">
<title>Node16</title>
<g id="a_node16"><a xlink:href="exif-utils_8c.html#ac90147d0cc97bec7a577bf9576191bf8" target="_top" xlink:title="Store an ExifLong value into memory in EXIF format.">
<polygon fill="white" stroke="black" points="485,-38.5 485,-57.5 567,-57.5 567,-38.5 485,-38.5"/>
<text text-anchor="middle" x="526" y="-45.5" font-family="Helvetica,sans-Serif" font-size="10.00">exif_set_long</text>
</a>
</g>
</g>
<!-- Node1&#45;&gt;Node16 -->
<g id="edge27" class="edge">
<title>Node1&#45;&gt;Node16</title>
<path fill="none" stroke="midnightblue" d="M73.42,-180.49C109.35,-155.62 211.58,-88.73 308,-62 363.69,-46.56 430.37,-44.58 474.98,-45.48"/>
<polygon fill="midnightblue" stroke="midnightblue" points="474.9,-48.98 484.99,-45.74 475.08,-41.98 474.9,-48.98"/>
</g>
<!-- Node18 -->
<g id="node18" class="node">
<title>Node18</title>
<g id="a_node18"><a xlink:href="exif-utils_8c.html#ad905d16e26b4052a1db34dbebdc37341" target="_top" xlink:title="Store an ExifShort value into memory in EXIF format.">
<polygon fill="white" stroke="black" points="483,-278.5 483,-297.5 569,-297.5 569,-278.5 483,-278.5"/>
<text text-anchor="middle" x="526" y="-285.5" font-family="Helvetica,sans-Serif" font-size="10.00">exif_set_short</text>
</a>
</g>
</g>
<!-- Node1&#45;&gt;Node18 -->
<g id="edge28" class="edge">
<title>Node1&#45;&gt;Node18</title>
<path fill="none" stroke="midnightblue" d="M70.29,-199.53C102.36,-228.5 204.53,-315.33 308,-345 358.41,-359.46 377.82,-365.72 426,-345 447.37,-335.81 442.2,-319.21 462,-307 465.56,-304.81 469.38,-302.85 473.32,-301.11"/>
<polygon fill="midnightblue" stroke="midnightblue" points="474.65,-304.35 482.68,-297.44 472.09,-297.84 474.65,-304.35"/>
</g>
<!-- Node21 -->
<g id="node21" class="node">
<title>Node21</title>
<g id="a_node21"><a xlink:href="exif-log_8c.html#a025d4a5d96544913ea6f6ebbec69cb68" target="_top" xlink:title=" ">
<polygon fill="white" stroke="black" points="339,-0.5 339,-19.5 395,-19.5 395,-0.5 339,-0.5"/>
<text text-anchor="middle" x="367" y="-7.5" font-family="Helvetica,sans-Serif" font-size="10.00">exif_log</text>
</a>
</g>
</g>
<!-- Node1&#45;&gt;Node21 -->
<g id="edge26" class="edge">
<title>Node1&#45;&gt;Node21</title>
<path fill="none" stroke="midnightblue" d="M62.6,-180.17C70.66,-151.86 98.12,-69.87 154,-34 207.1,0.08 283.4,-0.57 328.51,-4.82"/>
<polygon fill="midnightblue" stroke="midnightblue" points="328.42,-8.33 338.74,-5.89 329.16,-1.36 328.42,-8.33"/>
</g>
<!-- Node3 -->
<g id="node3" class="node">
<title>Node3</title>
<g id="a_node3"><a xlink:href="exif-mem_8c.html#ae8c09cfbcb95e435c4c4b7ec3bbd79e4" target="_top" xlink:title=" ">
<polygon fill="white" stroke="black" points="319.5,-392.5 319.5,-411.5 414.5,-411.5 414.5,-392.5 319.5,-392.5"/>
<text text-anchor="middle" x="367" y="-399.5" font-family="Helvetica,sans-Serif" font-size="10.00">exif_mem_alloc</text>
</a>
</g>
</g>
<!-- Node2&#45;&gt;Node3 -->
<g id="edge2" class="edge">
<title>Node2&#45;&gt;Node3</title>
<path fill="none" stroke="midnightblue" d="M258.78,-402C274.59,-402 292.58,-402 309.25,-402"/>
<polygon fill="midnightblue" stroke="midnightblue" points="309.43,-405.5 319.43,-402 309.43,-398.5 309.43,-405.5"/>
</g>
<!-- Node5 -->
<g id="node5" class="node">
<title>Node5</title>
<g id="a_node5"><a xlink:href="exif-data_8c.html#abf711bc683af4b46370d8e22e3e102d1" target="_top" xlink:title=" ">
<polygon fill="white" stroke="black" points="321.5,-316.5 321.5,-335.5 412.5,-335.5 412.5,-316.5 321.5,-316.5"/>
<text text-anchor="middle" x="367" y="-323.5" font-family="Helvetica,sans-Serif" font-size="10.00">cmp_func_intel</text>
</a>
</g>
</g>
<!-- Node4&#45;&gt;Node5 -->
<g id="edge4" class="edge">
<title>Node4&#45;&gt;Node5</title>
<path fill="none" stroke="midnightblue" d="M222.3,-205.27C236.58,-230.16 268.15,-279.42 308,-307 310.88,-308.99 313.97,-310.78 317.19,-312.39"/>
<polygon fill="midnightblue" stroke="midnightblue" points="315.91,-315.66 326.47,-316.48 318.73,-309.25 315.91,-315.66"/>
</g>
<!-- Node9 -->
<g id="node9" class="node">
<title>Node9</title>
<g id="a_node9"><a xlink:href="exif-data_8c.html#ae10308432fc54768805c6ae0ad0ebf9c" target="_top" xlink:title=" ">
<polygon fill="white" stroke="black" points="310.5,-278.5 310.5,-297.5 423.5,-297.5 423.5,-278.5 310.5,-278.5"/>
<text text-anchor="middle" x="367" y="-285.5" font-family="Helvetica,sans-Serif" font-size="10.00">cmp_func_motorola</text>
</a>
</g>
</g>
<!-- Node4&#45;&gt;Node9 -->
<g id="edge8" class="edge">
<title>Node4&#45;&gt;Node9</title>
<path fill="none" stroke="midnightblue" d="M230.31,-205.13C248.29,-221.26 278.6,-246.79 308,-264 314.59,-267.86 321.93,-271.41 329.1,-274.52"/>
<polygon fill="midnightblue" stroke="midnightblue" points="328.12,-277.9 338.7,-278.49 330.8,-271.43 328.12,-277.9"/>
</g>
<!-- Node10 -->
<g id="node10" class="node">
<title>Node10</title>
<g id="a_node10"><a xlink:href="exif-data_8c.html#a88e57798676ccd2df6243dd8b7a4d33c" target="_top" xlink:title=" ">
<polygon fill="white" stroke="black" points="308,-153 308,-183 426,-183 426,-153 308,-153"/>
<text text-anchor="start" x="316" y="-171" font-family="Helvetica,sans-Serif" font-size="10.00">exif_data_save_data</text>
<text text-anchor="middle" x="367" y="-160" font-family="Helvetica,sans-Serif" font-size="10.00">_entry</text>
</a>
</g>
</g>
<!-- Node4&#45;&gt;Node10 -->
<g id="edge10" class="edge">
<title>Node4&#45;&gt;Node10</title>
<path fill="none" stroke="midnightblue" d="M272.33,-181.56C280.7,-180.35 289.36,-179.09 297.9,-177.86"/>
<polygon fill="midnightblue" stroke="midnightblue" points="298.43,-181.32 307.82,-176.42 297.43,-174.39 298.43,-181.32"/>
</g>
<!-- Node13 -->
<g id="node13" class="node">
<title>Node13</title>
<g id="a_node13"><a xlink:href="exif-mem_8c.html#a3dcfe6794d82e79e92da5e2c62484b17" target="_top" xlink:title=" ">
<polygon fill="white" stroke="black" points="474,-76.5 474,-95.5 578,-95.5 578,-76.5 474,-76.5"/>
<text text-anchor="middle" x="526" y="-83.5" font-family="Helvetica,sans-Serif" font-size="10.00">exif_mem_realloc</text>
</a>
</g>
</g>
<!-- Node4&#45;&gt;Node13 -->
<g id="edge23" class="edge">
<title>Node4&#45;&gt;Node13</title>
<path fill="none" stroke="midnightblue" d="M240.48,-174.91C258.96,-164.84 284.44,-151.88 308,-143 360.59,-123.19 422.82,-107.61 467.12,-97.78"/>
<polygon fill="midnightblue" stroke="midnightblue" points="468.11,-101.14 477.13,-95.58 466.62,-94.3 468.11,-101.14"/>
</g>
<!-- Node4&#45;&gt;Node16 -->
<g id="edge24" class="edge">
<title>Node4&#45;&gt;Node16</title>
<path fill="none" stroke="midnightblue" d="M226.34,-174.83C242.9,-155.48 274.17,-122.34 308,-104 360.95,-75.3 429.2,-60.83 474.9,-53.88"/>
<polygon fill="midnightblue" stroke="midnightblue" points="475.47,-57.33 484.86,-52.43 474.46,-50.41 475.47,-57.33"/>
</g>
<!-- Node4&#45;&gt;Node18 -->
<g id="edge25" class="edge">
<title>Node4&#45;&gt;Node18</title>
<path fill="none" stroke="midnightblue" d="M245.28,-205.09C263.34,-213.44 286.64,-223.59 308,-231 363.3,-250.2 428.47,-266.5 472.85,-276.69"/>
<polygon fill="midnightblue" stroke="midnightblue" points="472.3,-280.15 482.83,-278.96 473.85,-273.33 472.3,-280.15"/>
</g>
<!-- Node20 -->
<g id="node20" class="node">
<title>Node20</title>
<g id="a_node20"><a xlink:href="exif-ifd_8c.html#a57651cc68698f037cd9fb8f9d3a021a2" target="_top" xlink:title="Return a textual name of the given IFD.">
<polygon fill="white" stroke="black" points="313.5,-202.5 313.5,-221.5 420.5,-221.5 420.5,-202.5 313.5,-202.5"/>
<text text-anchor="middle" x="367" y="-209.5" font-family="Helvetica,sans-Serif" font-size="10.00">exif_ifd_get_name</text>
</a>
</g>
</g>
<!-- Node4&#45;&gt;Node20 -->
<g id="edge20" class="edge">
<title>Node4&#45;&gt;Node20</title>
<path fill="none" stroke="midnightblue" d="M272.33,-198.44C282.38,-199.9 292.86,-201.41 303.02,-202.89"/>
<polygon fill="midnightblue" stroke="midnightblue" points="302.65,-206.37 313.05,-204.34 303.66,-199.44 302.65,-206.37"/>
</g>
<!-- Node4&#45;&gt;Node21 -->
<g id="edge21" class="edge">
<title>Node4&#45;&gt;Node21</title>
<path fill="none" stroke="midnightblue" d="M225.5,-174.79C242.85,-152.01 277.01,-107.88 308,-72 321.44,-56.44 337.44,-39.44 349.24,-27.18"/>
<polygon fill="midnightblue" stroke="midnightblue" points="351.87,-29.49 356.31,-19.87 346.84,-24.62 351.87,-29.49"/>
</g>
<!-- Node6 -->
<g id="node6" class="node">
<title>Node6</title>
<g id="a_node6"><a xlink:href="exif-data_8c.html#a0b662825b4c76063b1ba549bf1259a6d" target="_top" xlink:title=" ">
<polygon fill="white" stroke="black" points="494,-316.5 494,-335.5 558,-335.5 558,-316.5 494,-316.5"/>
<text text-anchor="middle" x="526" y="-323.5" font-family="Helvetica,sans-Serif" font-size="10.00">cmp_func</text>
</a>
</g>
</g>
<!-- Node5&#45;&gt;Node6 -->
<g id="edge5" class="edge">
<title>Node5&#45;&gt;Node6</title>
<path fill="none" stroke="midnightblue" d="M412.57,-326C434.85,-326 461.65,-326 483.49,-326"/>
<polygon fill="midnightblue" stroke="midnightblue" points="483.78,-329.5 493.78,-326 483.78,-322.5 483.78,-329.5"/>
</g>
<!-- Node7 -->
<g id="node7" class="node">
<title>Node7</title>
<g id="a_node7"><a xlink:href="exif-utils_8c.html#a4b4acf537a8c6b9405e7b53be868e4d7" target="_top" xlink:title="Retrieve an ExifShort value from memory.">
<polygon fill="white" stroke="black" points="628.5,-316.5 628.5,-335.5 714.5,-335.5 714.5,-316.5 628.5,-316.5"/>
<text text-anchor="middle" x="671.5" y="-323.5" font-family="Helvetica,sans-Serif" font-size="10.00">exif_get_short</text>
</a>
</g>
</g>
<!-- Node6&#45;&gt;Node7 -->
<g id="edge6" class="edge">
<title>Node6&#45;&gt;Node7</title>
<path fill="none" stroke="midnightblue" d="M558.14,-326C575.62,-326 597.89,-326 617.99,-326"/>
<polygon fill="midnightblue" stroke="midnightblue" points="618.26,-329.5 628.26,-326 618.26,-322.5 618.26,-329.5"/>
</g>
<!-- Node8 -->
<g id="node8" class="node">
<title>Node8</title>
<g id="a_node8"><a xlink:href="exif-utils_8c.html#a6baf094a71392f9cea23ad633ec13c8b" target="_top" xlink:title="Retrieve an ExifSShort value from memory.">
<polygon fill="white" stroke="black" points="753,-316.5 753,-335.5 845,-335.5 845,-316.5 753,-316.5"/>
<text text-anchor="middle" x="799" y="-323.5" font-family="Helvetica,sans-Serif" font-size="10.00">exif_get_sshort</text>
</a>
</g>
</g>
<!-- Node7&#45;&gt;Node8 -->
<g id="edge7" class="edge">
<title>Node7&#45;&gt;Node8</title>
<path fill="none" stroke="midnightblue" d="M714.64,-326C723.63,-326 733.26,-326 742.67,-326"/>
<polygon fill="midnightblue" stroke="midnightblue" points="742.74,-329.5 752.74,-326 742.74,-322.5 742.74,-329.5"/>
</g>
<!-- Node9&#45;&gt;Node6 -->
<g id="edge9" class="edge">
<title>Node9&#45;&gt;Node6</title>
<path fill="none" stroke="midnightblue" d="M407.62,-297.59C430.88,-303.22 460.24,-310.33 483.78,-316.02"/>
<polygon fill="midnightblue" stroke="midnightblue" points="483.26,-319.5 493.81,-318.45 484.91,-312.7 483.26,-319.5"/>
</g>
<!-- Node11 -->
<g id="node11" class="node">
<title>Node11</title>
<g id="a_node11"><a xlink:href="exif-format_8c.html#a924038efe0cd8ebade8f44619dd794f3" target="_top" xlink:title="Return the raw size of the given EXIF data type.">
<polygon fill="white" stroke="black" points="466.5,-240.5 466.5,-259.5 585.5,-259.5 585.5,-240.5 466.5,-240.5"/>
<text text-anchor="middle" x="526" y="-247.5" font-family="Helvetica,sans-Serif" font-size="10.00">exif_format_get_size</text>
</a>
</g>
</g>
<!-- Node10&#45;&gt;Node11 -->
<g id="edge11" class="edge">
<title>Node10&#45;&gt;Node11</title>
<path fill="none" stroke="midnightblue" d="M408.76,-183.05C414.76,-185.97 420.7,-189.3 426,-193 445.07,-206.32 442.2,-218.79 462,-231 465.4,-233.1 469.05,-234.98 472.82,-236.66"/>
<polygon fill="midnightblue" stroke="midnightblue" points="471.76,-240.01 482.34,-240.45 474.34,-233.5 471.76,-240.01"/>
</g>
<!-- Node12 -->
<g id="node12" class="node">
<title>Node12</title>
<g id="a_node12"><a xlink:href="exif-mem_8c.html#a43190b81b4b4bdb4ffb89bfb612051b1" target="_top" xlink:title=" ">
<polygon fill="white" stroke="black" points="480.5,-202.5 480.5,-221.5 571.5,-221.5 571.5,-202.5 480.5,-202.5"/>
<text text-anchor="middle" x="526" y="-209.5" font-family="Helvetica,sans-Serif" font-size="10.00">exif_mem_free</text>
</a>
</g>
</g>
<!-- Node10&#45;&gt;Node12 -->
<g id="edge12" class="edge">
<title>Node10&#45;&gt;Node12</title>
<path fill="none" stroke="midnightblue" d="M421.59,-183.02C440.93,-188.44 462.52,-194.49 480.94,-199.65"/>
<polygon fill="midnightblue" stroke="midnightblue" points="480.25,-203.09 490.82,-202.42 482.14,-196.35 480.25,-203.09"/>
</g>
<!-- Node10&#45;&gt;Node13 -->
<g id="edge13" class="edge">
<title>Node10&#45;&gt;Node13</title>
<path fill="none" stroke="midnightblue" d="M400.79,-152.95C409.26,-148.56 418.19,-143.45 426,-138 443.79,-125.57 443.14,-115.74 462,-105 465.85,-102.81 469.97,-100.85 474.2,-99.1"/>
<polygon fill="midnightblue" stroke="midnightblue" points="475.43,-102.37 483.56,-95.59 472.97,-95.82 475.43,-102.37"/>
</g>
<!-- Node14 -->
<g id="node14" class="node">
<title>Node14</title>
<g id="a_node14"><a xlink:href="exif-mnote-data_8c.html#a704500ea880e6727d8b4a98ff38c0a25" target="_top" xlink:title="Save the raw MakerNote data into a memory buffer.">
<polygon fill="white" stroke="black" points="462,-164.5 462,-183.5 590,-183.5 590,-164.5 462,-164.5"/>
<text text-anchor="middle" x="526" y="-171.5" font-family="Helvetica,sans-Serif" font-size="10.00">exif_mnote_data_save</text>
</a>
</g>
</g>
<!-- Node10&#45;&gt;Node14 -->
<g id="edge14" class="edge">
<title>Node10&#45;&gt;Node14</title>
<path fill="none" stroke="midnightblue" d="M426.01,-170.22C434.43,-170.54 443.18,-170.87 451.84,-171.2"/>
<polygon fill="midnightblue" stroke="midnightblue" points="451.82,-174.71 461.95,-171.59 452.09,-167.71 451.82,-174.71"/>
</g>
<!-- Node15 -->
<g id="node15" class="node">
<title>Node15</title>
<g id="a_node15"><a xlink:href="exif-mnote-data-priv_8h.html#a17548c880619140855af60b037a8c730" target="_top" xlink:title=" ">
<polygon fill="white" stroke="black" points="466.5,-115 466.5,-145 585.5,-145 585.5,-115 466.5,-115"/>
<text text-anchor="start" x="474.5" y="-133" font-family="Helvetica,sans-Serif" font-size="10.00">exif_mnote_data_set</text>
<text text-anchor="middle" x="526" y="-122" font-family="Helvetica,sans-Serif" font-size="10.00">_offset</text>
</a>
</g>
</g>
<!-- Node10&#45;&gt;Node15 -->
<g id="edge15" class="edge">
<title>Node10&#45;&gt;Node15</title>
<path fill="none" stroke="midnightblue" d="M426.01,-153.96C435.91,-151.56 446.27,-149.06 456.4,-146.6"/>
<polygon fill="midnightblue" stroke="midnightblue" points="457.54,-149.93 466.44,-144.17 455.89,-143.13 457.54,-149.93"/>
</g>
<!-- Node10&#45;&gt;Node16 -->
<g id="edge16" class="edge">
<title>Node10&#45;&gt;Node16</title>
<path fill="none" stroke="midnightblue" d="M380.33,-152.93C401.15,-127.79 442.89,-78.91 462,-67 466.15,-64.42 470.66,-62.17 475.31,-60.21"/>
<polygon fill="midnightblue" stroke="midnightblue" points="476.83,-63.38 484.97,-56.6 474.37,-56.83 476.83,-63.38"/>
</g>
<!-- Node10&#45;&gt;Node18 -->
<g id="edge18" class="edge">
<title>Node10&#45;&gt;Node18</title>
<path fill="none" stroke="midnightblue" d="M412.56,-183.12C417.44,-185.92 422.06,-189.19 426,-193 452.89,-218.96 433.67,-244.62 462,-269 465.45,-271.97 469.36,-274.48 473.5,-276.6"/>
<polygon fill="midnightblue" stroke="midnightblue" points="472.26,-279.87 482.83,-280.63 475.04,-273.45 472.26,-279.87"/>
</g>
<!-- Node17 -->
<g id="node17" class="node">
<title>Node17</title>
<g id="a_node17"><a xlink:href="exif-utils_8c.html#ae6e3b9d1663f9ab9bd462d73a310ca03" target="_top" xlink:title="Store an ExifSLong value into memory in EXIF format.">
<polygon fill="white" stroke="black" points="628,-38.5 628,-57.5 715,-57.5 715,-38.5 628,-38.5"/>
<text text-anchor="middle" x="671.5" y="-45.5" font-family="Helvetica,sans-Serif" font-size="10.00">exif_set_slong</text>
</a>
</g>
</g>
<!-- Node16&#45;&gt;Node17 -->
<g id="edge17" class="edge">
<title>Node16&#45;&gt;Node17</title>
<path fill="none" stroke="midnightblue" d="M567.35,-48C583.01,-48 601.14,-48 617.8,-48"/>
<polygon fill="midnightblue" stroke="midnightblue" points="617.95,-51.5 627.95,-48 617.95,-44.5 617.95,-51.5"/>
</g>
<!-- Node19 -->
<g id="node19" class="node">
<title>Node19</title>
<g id="a_node19"><a xlink:href="exif-utils_8c.html#a6504651147702fc6db9a5cd4aa997023" target="_top" xlink:title="Store an ExifSShort value into memory in EXIF format.">
<polygon fill="white" stroke="black" points="626,-278.5 626,-297.5 717,-297.5 717,-278.5 626,-278.5"/>
<text text-anchor="middle" x="671.5" y="-285.5" font-family="Helvetica,sans-Serif" font-size="10.00">exif_set_sshort</text>
</a>
</g>
</g>
<!-- Node18&#45;&gt;Node19 -->
<g id="edge19" class="edge">
<title>Node18&#45;&gt;Node19</title>
<path fill="none" stroke="midnightblue" d="M569.28,-288C583.72,-288 600.09,-288 615.39,-288"/>
<polygon fill="midnightblue" stroke="midnightblue" points="615.78,-291.5 625.78,-288 615.78,-284.5 615.78,-291.5"/>
</g>
<!-- Node22 -->
<g id="node22" class="node">
<title>Node22</title>
<g id="a_node22"><a xlink:href="exif-log_8c.html#a99101b5ad01b2d82ce9d43c9e8534627" target="_top" xlink:title=" ">
<polygon fill="white" stroke="black" points="495,-0.5 495,-19.5 557,-19.5 557,-0.5 495,-0.5"/>
<text text-anchor="middle" x="526" y="-7.5" font-family="Helvetica,sans-Serif" font-size="10.00">exif_logv</text>
</a>
</g>
</g>
<!-- Node21&#45;&gt;Node22 -->
<g id="edge22" class="edge">
<title>Node21&#45;&gt;Node22</title>
<path fill="none" stroke="midnightblue" d="M395.35,-10C419.96,-10 456.47,-10 484.48,-10"/>
<polygon fill="midnightblue" stroke="midnightblue" points="484.75,-13.5 494.75,-10 484.75,-6.5 484.75,-13.5"/>
</g>
</g>
</svg>
