<?xml version="1.0" encoding="UTF-8" standalone="no"?>
<!DOCTYPE svg PUBLIC "-//W3C//DTD SVG 1.1//EN"
 "http://www.w3.org/Graphics/SVG/1.1/DTD/svg11.dtd">
<!-- Generated by graphviz version 7.0.1 (0)
 -->
<!-- Title: exif_mnote_data_free Pages: 1 -->
<svg width="630pt" height="83pt"
 viewBox="0.00 0.00 630.00 82.67" xmlns="http://www.w3.org/2000/svg" xmlns:xlink="http://www.w3.org/1999/xlink">
<g id="graph0" class="graph" transform="scale(1 1) rotate(0) translate(4 78.67)">
<title>exif_mnote_data_free</title>
<!-- Node1 -->
<g id="Node000001" class="node">
<title>Node1</title>
<g id="a_Node000001"><a xlink:title=" ">
<polygon fill="#999999" stroke="#666666" points="124,-57 0,-57 0,-38 124,-38 124,-57"/>
<text text-anchor="middle" x="62" y="-45" font-family="Helvetica,sans-Serif" font-size="10.00">exif_mnote_data_free</text>
</a>
</g>
</g>
<!-- Node2 -->
<g id="Node000002" class="node">
<title>Node2</title>
<g id="a_Node000002"><a xlink:href="exif-log_8c.html#a7a9b738a7429197d68c80ffedac7d8fb" target="_top" xlink:title=" ">
<polygon fill="white" stroke="#666666" points="246,-57 160,-57 160,-38 246,-38 246,-57"/>
<text text-anchor="middle" x="203" y="-45" font-family="Helvetica,sans-Serif" font-size="10.00">exif_log_unref</text>
</a>
</g>
</g>
<!-- Node1&#45;&gt;Node2 -->
<g id="edge1_Node000001_Node000002" class="edge">
<title>Node1&#45;&gt;Node2</title>
<g id="a_edge1_Node000001_Node000002"><a xlink:title=" ">
<path fill="none" stroke="#63b8ff" d="M124.37,-47.5C132.39,-47.5 140.55,-47.5 148.42,-47.5"/>
<polygon fill="#63b8ff" stroke="#63b8ff" points="148.18,-51 158.18,-47.5 148.18,-44 148.18,-51"/>
</a>
</g>
</g>
<!-- Node4 -->
<g id="Node000004" class="node">
<title>Node4</title>
<g id="a_Node000004"><a xlink:href="exif-mem_8c.html#a43190b81b4b4bdb4ffb89bfb612051b1" target="_top" xlink:title=" ">
<polygon fill="white" stroke="#666666" points="622,-57 531,-57 531,-38 622,-38 622,-57"/>
<text text-anchor="middle" x="576.5" y="-45" font-family="Helvetica,sans-Serif" font-size="10.00">exif_mem_free</text>
</a>
</g>
</g>
<!-- Node1&#45;&gt;Node4 -->
<g id="edge6_Node000001_Node000004" class="edge">
<title>Node1&#45;&gt;Node4</title>
<g id="a_edge6_Node000001_Node000004"><a xlink:title=" ">
<path fill="none" stroke="#63b8ff" d="M107.19,-57.47C123.67,-60.72 142.6,-63.9 160,-65.5 308.27,-79.14 346.86,-76.53 495,-61.5 502.87,-60.7 511.12,-59.59 519.23,-58.33"/>
<polygon fill="#63b8ff" stroke="#63b8ff" points="519.73,-61.8 529.03,-56.73 518.6,-54.89 519.73,-61.8"/>
</a>
</g>
</g>
<!-- Node5 -->
<g id="Node000005" class="node">
<title>Node5</title>
<g id="a_Node000005"><a xlink:href="exif-mem_8c.html#a66744e0987af08c443df247ce55f7d87" target="_top" xlink:title="Unrefcount an ExifMem.">
<polygon fill="white" stroke="#666666" points="495,-19 398,-19 398,0 495,0 495,-19"/>
<text text-anchor="middle" x="446.5" y="-7" font-family="Helvetica,sans-Serif" font-size="10.00">exif_mem_unref</text>
</a>
</g>
</g>
<!-- Node1&#45;&gt;Node5 -->
<g id="edge7_Node000001_Node000005" class="edge">
<title>Node1&#45;&gt;Node5</title>
<g id="a_edge7_Node000001_Node000005"><a xlink:title=" ">
<path fill="none" stroke="#63b8ff" d="M107.72,-37.51C124.09,-34.18 142.81,-30.75 160,-28.5 237.76,-18.34 328.19,-13.48 386.09,-11.26"/>
<polygon fill="#63b8ff" stroke="#63b8ff" points="386.2,-14.75 396.07,-10.89 385.95,-7.76 386.2,-14.75"/>
</a>
</g>
</g>
<!-- Node3 -->
<g id="Node000003" class="node">
<title>Node3</title>
<g id="a_Node000003"><a xlink:href="exif-log_8c.html#acd0808d6d5be73f28059797c2e2e67dc" target="_top" xlink:title="Delete instance of ExifLog.">
<polygon fill="white" stroke="#666666" points="362,-57 282,-57 282,-38 362,-38 362,-57"/>
<text text-anchor="middle" x="322" y="-45" font-family="Helvetica,sans-Serif" font-size="10.00">exif_log_free</text>
</a>
</g>
</g>
<!-- Node2&#45;&gt;Node3 -->
<g id="edge2_Node000002_Node000003" class="edge">
<title>Node2&#45;&gt;Node3</title>
<g id="a_edge2_Node000002_Node000003"><a xlink:title=" ">
<path fill="none" stroke="#63b8ff" d="M246.24,-47.5C253.98,-47.5 262.13,-47.5 270.09,-47.5"/>
<polygon fill="#63b8ff" stroke="#63b8ff" points="270.04,-51 280.04,-47.5 270.04,-44 270.04,-51"/>
</a>
</g>
</g>
<!-- Node3&#45;&gt;Node4 -->
<g id="edge3_Node000003_Node000004" class="edge">
<title>Node3&#45;&gt;Node4</title>
<g id="a_edge3_Node000003_Node000004"><a xlink:title=" ">
<path fill="none" stroke="#63b8ff" d="M362.45,-47.5C404.61,-47.5 471.79,-47.5 519.43,-47.5"/>
<polygon fill="#63b8ff" stroke="#63b8ff" points="519.28,-51 529.28,-47.5 519.28,-44 519.28,-51"/>
</a>
</g>
</g>
<!-- Node3&#45;&gt;Node5 -->
<g id="edge4_Node000003_Node000005" class="edge">
<title>Node3&#45;&gt;Node5</title>
<g id="a_edge4_Node000003_Node000005"><a xlink:title=" ">
<path fill="none" stroke="#63b8ff" d="M355.19,-37.52C369.67,-33.02 386.99,-27.65 402.56,-22.82"/>
<polygon fill="#63b8ff" stroke="#63b8ff" points="403.57,-26.17 412.08,-19.87 401.5,-19.49 403.57,-26.17"/>
</a>
</g>
</g>
<!-- Node5&#45;&gt;Node4 -->
<g id="edge5_Node000005_Node000004" class="edge">
<title>Node5&#45;&gt;Node4</title>
<g id="a_edge5_Node000005_Node000004"><a xlink:title=" ">
<path fill="none" stroke="#63b8ff" d="M481.13,-19.48C496.42,-24.02 514.71,-29.45 531.11,-34.32"/>
<polygon fill="#63b8ff" stroke="#63b8ff" points="530.06,-37.66 540.64,-37.15 532.05,-30.95 530.06,-37.66"/>
</a>
</g>
</g>
</g>
</svg>
