<?xml version="1.0" encoding="UTF-8" standalone="no"?>
<!DOCTYPE svg PUBLIC "-//W3C//DTD SVG 1.1//EN"
 "http://www.w3.org/Graphics/SVG/1.1/DTD/svg11.dtd">
<!-- Generated by graphviz version 7.0.1 (0)
 -->
<!-- Title: libexif/exif&#45;mnote&#45;data.c Pages: 1 -->
<svg width="463pt" height="390pt"
 viewBox="0.00 0.00 463.00 390.00" xmlns="http://www.w3.org/2000/svg" xmlns:xlink="http://www.w3.org/1999/xlink">
<g id="graph0" class="graph" transform="scale(1 1) rotate(0) translate(4 386)">
<title>libexif/exif&#45;mnote&#45;data.c</title>
<!-- Node1 -->
<g id="Node000001" class="node">
<title>Node1</title>
<g id="a_Node000001"><a xlink:title=" ">
<polygon fill="#999999" stroke="#666666" points="313,-382 210,-382 210,-352 313,-352 313,-382"/>
<text text-anchor="start" x="218" y="-370" font-family="Helvetica,sans-Serif" font-size="10.00">libexif/exif&#45;mnote</text>
<text text-anchor="middle" x="261.5" y="-359" font-family="Helvetica,sans-Serif" font-size="10.00">&#45;data.c</text>
</a>
</g>
</g>
<!-- Node2 -->
<g id="Node000002" class="node">
<title>Node2</title>
<g id="a_Node000002"><a xlink:title=" ">
<polygon fill="#e0e0e0" stroke="#999999" points="153.5,-310.5 97.5,-310.5 97.5,-291.5 153.5,-291.5 153.5,-310.5"/>
<text text-anchor="middle" x="125.5" y="-298.5" font-family="Helvetica,sans-Serif" font-size="10.00">config.h</text>
</a>
</g>
</g>
<!-- Node1&#45;&gt;Node2 -->
<g id="edge1_Node000001_Node000002" class="edge">
<title>Node1&#45;&gt;Node2</title>
<g id="a_edge1_Node000001_Node000002"><a xlink:title=" ">
<path fill="none" stroke="#63b8ff" d="M230.98,-351.64C208.23,-340.93 177.34,-326.4 154.88,-315.82"/>
<polygon fill="#63b8ff" stroke="#63b8ff" points="156.5,-312.72 145.96,-311.63 153.52,-319.06 156.5,-312.72"/>
</a>
</g>
</g>
<!-- Node3 -->
<g id="Node000003" class="node">
<title>Node3</title>
<g id="a_Node000003"><a xlink:href="exif-mnote-data_8h.html" target="_top" xlink:title="Handling EXIF MakerNote tags.">
<polygon fill="white" stroke="#666666" points="233,-250 130,-250 130,-220 233,-220 233,-250"/>
<text text-anchor="start" x="138" y="-238" font-family="Helvetica,sans-Serif" font-size="10.00">libexif/exif&#45;mnote</text>
<text text-anchor="middle" x="181.5" y="-227" font-family="Helvetica,sans-Serif" font-size="10.00">&#45;data.h</text>
</a>
</g>
</g>
<!-- Node1&#45;&gt;Node3 -->
<g id="edge2_Node000001_Node000003" class="edge">
<title>Node1&#45;&gt;Node3</title>
<g id="a_edge2_Node000001_Node000003"><a xlink:title=" ">
<path fill="none" stroke="#63b8ff" d="M237.06,-351.52C224.33,-342.78 209.57,-330.51 200.5,-316 190.21,-299.54 185.49,-277.99 183.33,-261.41"/>
<polygon fill="#63b8ff" stroke="#63b8ff" points="186.85,-261.43 182.32,-251.86 179.89,-262.17 186.85,-261.43"/>
</a>
</g>
</g>
<!-- Node11 -->
<g id="Node000011" class="node">
<title>Node11</title>
<g id="a_Node000011"><a xlink:href="exif-mnote-data-priv_8h.html" target="_top" xlink:title=" ">
<polygon fill="white" stroke="#666666" points="313,-316 210,-316 210,-286 313,-286 313,-316"/>
<text text-anchor="start" x="218" y="-304" font-family="Helvetica,sans-Serif" font-size="10.00">libexif/exif&#45;mnote</text>
<text text-anchor="middle" x="261.5" y="-293" font-family="Helvetica,sans-Serif" font-size="10.00">&#45;data&#45;priv.h</text>
</a>
</g>
</g>
<!-- Node1&#45;&gt;Node11 -->
<g id="edge10_Node000001_Node000011" class="edge">
<title>Node1&#45;&gt;Node11</title>
<g id="a_edge10_Node000001_Node000011"><a xlink:title=" ">
<path fill="none" stroke="#63b8ff" d="M261.5,-351.8C261.5,-344.67 261.5,-335.82 261.5,-327.56"/>
<polygon fill="#63b8ff" stroke="#63b8ff" points="265,-327.68 261.5,-317.68 258,-327.68 265,-327.68"/>
</a>
</g>
</g>
<!-- Node12 -->
<g id="Node000012" class="node">
<title>Node12</title>
<g id="a_Node000012"><a xlink:title=" ">
<polygon fill="#e0e0e0" stroke="#999999" points="384,-310.5 331,-310.5 331,-291.5 384,-291.5 384,-310.5"/>
<text text-anchor="middle" x="357.5" y="-298.5" font-family="Helvetica,sans-Serif" font-size="10.00">stdlib.h</text>
</a>
</g>
</g>
<!-- Node1&#45;&gt;Node12 -->
<g id="edge14_Node000001_Node000012" class="edge">
<title>Node1&#45;&gt;Node12</title>
<g id="a_edge14_Node000001_Node000012"><a xlink:title=" ">
<path fill="none" stroke="#63b8ff" d="M282.81,-351.8C298.21,-341.53 319,-327.67 334.73,-317.18"/>
<polygon fill="#63b8ff" stroke="#63b8ff" points="336.6,-320.14 342.97,-311.68 332.71,-314.32 336.6,-320.14"/>
</a>
</g>
</g>
<!-- Node13 -->
<g id="Node000013" class="node">
<title>Node13</title>
<g id="a_Node000013"><a xlink:title=" ">
<polygon fill="#e0e0e0" stroke="#999999" points="455,-310.5 402,-310.5 402,-291.5 455,-291.5 455,-310.5"/>
<text text-anchor="middle" x="428.5" y="-298.5" font-family="Helvetica,sans-Serif" font-size="10.00">string.h</text>
</a>
</g>
</g>
<!-- Node1&#45;&gt;Node13 -->
<g id="edge15_Node000001_Node000013" class="edge">
<title>Node1&#45;&gt;Node13</title>
<g id="a_edge15_Node000001_Node000013"><a xlink:title=" ">
<path fill="none" stroke="#63b8ff" d="M300.27,-351.53C326.61,-341.64 362.22,-328.18 393.5,-316 394.28,-315.7 395.06,-315.39 395.86,-315.08"/>
<polygon fill="#63b8ff" stroke="#63b8ff" points="396.89,-318.44 404.9,-311.51 394.31,-311.93 396.89,-318.44"/>
</a>
</g>
</g>
<!-- Node4 -->
<g id="Node000004" class="node">
<title>Node4</title>
<g id="a_Node000004"><a xlink:href="exif-log_8h.html" target="_top" xlink:title="Log message infrastructure.">
<polygon fill="white" stroke="#666666" points="229,-184 134,-184 134,-165 229,-165 229,-184"/>
<text text-anchor="middle" x="181.5" y="-172" font-family="Helvetica,sans-Serif" font-size="10.00">libexif/exif&#45;log.h</text>
</a>
</g>
</g>
<!-- Node3&#45;&gt;Node4 -->
<g id="edge3_Node000003_Node000004" class="edge">
<title>Node3&#45;&gt;Node4</title>
<g id="a_edge3_Node000003_Node000004"><a xlink:title=" ">
<path fill="none" stroke="#63b8ff" d="M181.5,-219.54C181.5,-212.34 181.5,-203.53 181.5,-195.68"/>
<polygon fill="#63b8ff" stroke="#63b8ff" points="185,-195.69 181.5,-185.69 178,-195.69 185,-195.69"/>
</a>
</g>
</g>
<!-- Node5 -->
<g id="Node000005" class="node">
<title>Node5</title>
<g id="a_Node000005"><a xlink:href="exif-mem_8h.html" target="_top" xlink:title="Define the ExifMem data type and the associated functions.">
<polygon fill="white" stroke="#666666" points="234.5,-129 128.5,-129 128.5,-110 234.5,-110 234.5,-129"/>
<text text-anchor="middle" x="181.5" y="-117" font-family="Helvetica,sans-Serif" font-size="10.00">libexif/exif&#45;mem.h</text>
</a>
</g>
</g>
<!-- Node4&#45;&gt;Node5 -->
<g id="edge4_Node000004_Node000005" class="edge">
<title>Node4&#45;&gt;Node5</title>
<g id="a_edge4_Node000004_Node000005"><a xlink:title=" ">
<path fill="none" stroke="#63b8ff" d="M181.5,-164.75C181.5,-158.27 181.5,-149.16 181.5,-140.9"/>
<polygon fill="#63b8ff" stroke="#63b8ff" points="185,-140.96 181.5,-130.96 178,-140.96 185,-140.96"/>
</a>
</g>
</g>
<!-- Node10 -->
<g id="Node000010" class="node">
<title>Node10</title>
<g id="a_Node000010"><a xlink:title=" ">
<polygon fill="#e0e0e0" stroke="#999999" points="110.5,-129 54.5,-129 54.5,-110 110.5,-110 110.5,-129"/>
<text text-anchor="middle" x="82.5" y="-117" font-family="Helvetica,sans-Serif" font-size="10.00">stdarg.h</text>
</a>
</g>
</g>
<!-- Node4&#45;&gt;Node10 -->
<g id="edge9_Node000004_Node000010" class="edge">
<title>Node4&#45;&gt;Node10</title>
<g id="a_edge9_Node000004_Node000010"><a xlink:title=" ">
<path fill="none" stroke="#63b8ff" d="M164.71,-164.51C149.4,-156.31 126.53,-144.07 108.8,-134.58"/>
<polygon fill="#63b8ff" stroke="#63b8ff" points="110.85,-131.71 100.38,-130.07 107.54,-137.88 110.85,-131.71"/>
</a>
</g>
</g>
<!-- Node6 -->
<g id="Node000006" class="node">
<title>Node6</title>
<g id="a_Node000006"><a xlink:href="exif-utils_8h.html" target="_top" xlink:title="EXIF data manipulation functions and types.">
<polygon fill="white" stroke="#666666" points="231,-74 130,-74 130,-55 231,-55 231,-74"/>
<text text-anchor="middle" x="180.5" y="-62" font-family="Helvetica,sans-Serif" font-size="10.00">libexif/exif&#45;utils.h</text>
</a>
</g>
</g>
<!-- Node5&#45;&gt;Node6 -->
<g id="edge5_Node000005_Node000006" class="edge">
<title>Node5&#45;&gt;Node6</title>
<g id="a_edge5_Node000005_Node000006"><a xlink:title=" ">
<path fill="none" stroke="#63b8ff" d="M181.33,-109.75C181.21,-103.27 181.04,-94.16 180.88,-85.9"/>
<polygon fill="#63b8ff" stroke="#63b8ff" points="184.39,-85.89 180.7,-75.96 177.39,-86.02 184.39,-85.89"/>
</a>
</g>
</g>
<!-- Node7 -->
<g id="Node000007" class="node">
<title>Node7</title>
<g id="a_Node000007"><a xlink:href="exif-byte-order_8h.html" target="_top" xlink:title="Defines the ExifByteOrder enum and the associated functions.">
<polygon fill="white" stroke="#666666" points="373,-19 242,-19 242,0 373,0 373,-19"/>
<text text-anchor="middle" x="307.5" y="-7" font-family="Helvetica,sans-Serif" font-size="10.00">libexif/exif&#45;byte&#45;order.h</text>
</a>
</g>
</g>
<!-- Node6&#45;&gt;Node7 -->
<g id="edge6_Node000006_Node000007" class="edge">
<title>Node6&#45;&gt;Node7</title>
<g id="a_edge6_Node000006_Node000007"><a xlink:title=" ">
<path fill="none" stroke="#63b8ff" d="M202.04,-54.51C222.24,-46.08 252.67,-33.38 275.66,-23.79"/>
<polygon fill="#63b8ff" stroke="#63b8ff" points="277,-27.02 284.88,-19.94 274.3,-20.56 277,-27.02"/>
</a>
</g>
</g>
<!-- Node8 -->
<g id="Node000008" class="node">
<title>Node8</title>
<g id="a_Node000008"><a xlink:href="exif-format_8h.html" target="_top" xlink:title="Handling native EXIF data types.">
<polygon fill="white" stroke="#666666" points="113,-19 0,-19 0,0 113,0 113,-19"/>
<text text-anchor="middle" x="56.5" y="-7" font-family="Helvetica,sans-Serif" font-size="10.00">libexif/exif&#45;format.h</text>
</a>
</g>
</g>
<!-- Node6&#45;&gt;Node8 -->
<g id="edge7_Node000006_Node000008" class="edge">
<title>Node6&#45;&gt;Node8</title>
<g id="a_edge7_Node000006_Node000008"><a xlink:title=" ">
<path fill="none" stroke="#63b8ff" d="M159.47,-54.51C139.75,-46.08 110.03,-33.38 87.59,-23.79"/>
<polygon fill="#63b8ff" stroke="#63b8ff" points="89.19,-20.66 78.62,-19.95 86.44,-27.1 89.19,-20.66"/>
</a>
</g>
</g>
<!-- Node9 -->
<g id="Node000009" class="node">
<title>Node9</title>
<g id="a_Node000009"><a xlink:title=" ">
<polygon fill="#e0e0e0" stroke="#999999" points="223.5,-19 131.5,-19 131.5,0 223.5,0 223.5,-19"/>
<text text-anchor="middle" x="177.5" y="-7" font-family="Helvetica,sans-Serif" font-size="10.00">libexif/_stdint.h</text>
</a>
</g>
</g>
<!-- Node6&#45;&gt;Node9 -->
<g id="edge8_Node000006_Node000009" class="edge">
<title>Node6&#45;&gt;Node9</title>
<g id="a_edge8_Node000006_Node000009"><a xlink:title=" ">
<path fill="none" stroke="#63b8ff" d="M180,-54.75C179.64,-48.27 179.12,-39.16 178.65,-30.9"/>
<polygon fill="#63b8ff" stroke="#63b8ff" points="182.15,-30.74 178.09,-20.95 175.16,-31.13 182.15,-30.74"/>
</a>
</g>
</g>
<!-- Node11&#45;&gt;Node3 -->
<g id="edge11_Node000011_Node000003" class="edge">
<title>Node11&#45;&gt;Node3</title>
<g id="a_edge11_Node000011_Node000003"><a xlink:title=" ">
<path fill="none" stroke="#63b8ff" d="M243.75,-285.8C233.36,-277.49 220.03,-266.83 208.38,-257.5"/>
<polygon fill="#63b8ff" stroke="#63b8ff" points="210.66,-254.84 200.66,-251.33 206.29,-260.31 210.66,-254.84"/>
</a>
</g>
</g>
<!-- Node11&#45;&gt;Node4 -->
<g id="edge13_Node000011_Node000004" class="edge">
<title>Node11&#45;&gt;Node4</title>
<g id="a_edge13_Node000011_Node000004"><a xlink:title=" ">
<path fill="none" stroke="#63b8ff" d="M260.8,-285.53C259.35,-268.54 254.94,-240.12 241.5,-220 233.37,-207.82 220.73,-197.73 209.15,-190.25"/>
<polygon fill="#63b8ff" stroke="#63b8ff" points="211.06,-187.31 200.69,-185.15 207.44,-193.31 211.06,-187.31"/>
</a>
</g>
</g>
<!-- Node11&#45;&gt;Node7 -->
<g id="edge12_Node000011_Node000007" class="edge">
<title>Node11&#45;&gt;Node7</title>
<g id="a_edge12_Node000011_Node000007"><a xlink:title=" ">
<path fill="none" stroke="#63b8ff" d="M270.19,-285.64C283.02,-263.05 305.5,-217.45 305.5,-175.5 305.5,-175.5 305.5,-175.5 305.5,-118.5 305.5,-87.92 306.31,-52.47 306.9,-30.77"/>
<polygon fill="#63b8ff" stroke="#63b8ff" points="310.39,-31.07 307.18,-20.97 303.4,-30.87 310.39,-31.07"/>
</a>
</g>
</g>
</g>
</svg>
