<?xml version="1.0" encoding="UTF-8" standalone="no"?>
<!DOCTYPE svg PUBLIC "-//W3C//DTD SVG 1.1//EN"
 "http://www.w3.org/Graphics/SVG/1.1/DTD/svg11.dtd">
<!-- Generated by graphviz version 2.44.1 (0)
 -->
<!-- Title: libexif/exif&#45;loader.h Pages: 1 -->
<svg width="698pt" height="375pt"
 viewBox="0.00 0.00 698.00 375.00" xmlns="http://www.w3.org/2000/svg" xmlns:xlink="http://www.w3.org/1999/xlink">
<g id="graph0" class="graph" transform="scale(1 1) rotate(0) translate(4 371)">
<title>libexif/exif&#45;loader.h</title>
<polygon fill="white" stroke="transparent" points="-4,4 -4,-371 694,-371 694,4 -4,4"/>
<!-- Node1 -->
<g id="node1" class="node">
<title>Node1</title>
<g id="a_node1"><a xlink:title="Defines the ExifLoader type.">
<polygon fill="#bfbfbf" stroke="black" points="109,-347.5 109,-366.5 220,-366.5 220,-347.5 109,-347.5"/>
<text text-anchor="middle" x="164.5" y="-354.5" font-family="Helvetica,sans-Serif" font-size="10.00">libexif/exif&#45;loader.h</text>
</a>
</g>
</g>
<!-- Node2 -->
<g id="node2" class="node">
<title>Node2</title>
<g id="a_node2"><a xlink:href="exif-data_8h.html" target="_top" xlink:title="Defines the ExifData type and the associated functions.">
<polygon fill="white" stroke="black" points="295.5,-291.5 295.5,-310.5 397.5,-310.5 397.5,-291.5 295.5,-291.5"/>
<text text-anchor="middle" x="346.5" y="-298.5" font-family="Helvetica,sans-Serif" font-size="10.00">libexif/exif&#45;data.h</text>
</a>
</g>
</g>
<!-- Node1&#45;&gt;Node2 -->
<g id="edge1" class="edge">
<title>Node1&#45;&gt;Node2</title>
<path fill="none" stroke="midnightblue" d="M193.34,-347.44C224.36,-338.24 273.83,-323.56 308.12,-313.39"/>
<polygon fill="midnightblue" stroke="midnightblue" points="309.21,-316.72 317.8,-310.52 307.21,-310.01 309.21,-316.72"/>
</g>
<!-- Node6 -->
<g id="node6" class="node">
<title>Node6</title>
<g id="a_node6"><a xlink:href="exif-log_8h.html" target="_top" xlink:title="Log message infrastructure.">
<polygon fill="white" stroke="black" points="204,-168.5 204,-187.5 299,-187.5 299,-168.5 204,-168.5"/>
<text text-anchor="middle" x="251.5" y="-175.5" font-family="Helvetica,sans-Serif" font-size="10.00">libexif/exif&#45;log.h</text>
</a>
</g>
</g>
<!-- Node1&#45;&gt;Node6 -->
<g id="edge27" class="edge">
<title>Node1&#45;&gt;Node6</title>
<path fill="none" stroke="midnightblue" d="M166.52,-347.18C171.78,-325.24 187.29,-266.88 212.5,-224 218.71,-213.44 227.53,-203.01 235.21,-194.86"/>
<polygon fill="midnightblue" stroke="midnightblue" points="237.87,-197.14 242.37,-187.54 232.87,-192.24 237.87,-197.14"/>
</g>
<!-- Node7 -->
<g id="node7" class="node">
<title>Node7</title>
<g id="a_node7"><a xlink:href="exif-mem_8h.html" target="_top" xlink:title="Define the ExifMem data type and the associated functions.">
<polygon fill="white" stroke="black" points="151.5,-112.5 151.5,-131.5 257.5,-131.5 257.5,-112.5 151.5,-112.5"/>
<text text-anchor="middle" x="204.5" y="-119.5" font-family="Helvetica,sans-Serif" font-size="10.00">libexif/exif&#45;mem.h</text>
</a>
</g>
</g>
<!-- Node1&#45;&gt;Node7 -->
<g id="edge28" class="edge">
<title>Node1&#45;&gt;Node7</title>
<path fill="none" stroke="midnightblue" d="M164.95,-347.26C166.47,-320.25 172.31,-235.85 188.5,-168 190.64,-159.03 193.94,-149.36 196.99,-141.29"/>
<polygon fill="midnightblue" stroke="midnightblue" points="200.32,-142.38 200.74,-131.79 193.81,-139.81 200.32,-142.38"/>
</g>
<!-- Node3 -->
<g id="node3" class="node">
<title>Node3</title>
<g id="a_node3"><a xlink:href="exif-byte-order_8h.html" target="_top" xlink:title="Defines the ExifByteOrder enum and the associated functions.">
<polygon fill="white" stroke="black" points="0,-0.5 0,-19.5 131,-19.5 131,-0.5 0,-0.5"/>
<text text-anchor="middle" x="65.5" y="-7.5" font-family="Helvetica,sans-Serif" font-size="10.00">libexif/exif&#45;byte&#45;order.h</text>
</a>
</g>
</g>
<!-- Node2&#45;&gt;Node3 -->
<g id="edge2" class="edge">
<title>Node2&#45;&gt;Node3</title>
<path fill="none" stroke="midnightblue" d="M302.19,-291.49C219.61,-274.36 50.5,-232.71 50.5,-179 50.5,-179 50.5,-179 50.5,-121 50.5,-88.5 57.01,-51.1 61.45,-29.34"/>
<polygon fill="midnightblue" stroke="midnightblue" points="64.89,-30.01 63.54,-19.5 58.04,-28.56 64.89,-30.01"/>
</g>
<!-- Node4 -->
<g id="node4" class="node">
<title>Node4</title>
<g id="a_node4"><a xlink:href="exif-data-type_8h.html" target="_top" xlink:title=" ">
<polygon fill="white" stroke="black" points="439.5,-112.5 439.5,-131.5 567.5,-131.5 567.5,-112.5 439.5,-112.5"/>
<text text-anchor="middle" x="503.5" y="-119.5" font-family="Helvetica,sans-Serif" font-size="10.00">libexif/exif&#45;data&#45;type.h</text>
</a>
</g>
</g>
<!-- Node2&#45;&gt;Node4 -->
<g id="edge3" class="edge">
<title>Node2&#45;&gt;Node4</title>
<path fill="none" stroke="midnightblue" d="M397.8,-294.7C425.28,-289.18 457.51,-277.93 477.5,-255 505.43,-222.97 506.79,-169.8 505.24,-141.71"/>
<polygon fill="midnightblue" stroke="midnightblue" points="508.73,-141.37 504.5,-131.65 501.75,-141.88 508.73,-141.37"/>
</g>
<!-- Node5 -->
<g id="node5" class="node">
<title>Node5</title>
<g id="a_node5"><a xlink:href="exif-ifd_8h.html" target="_top" xlink:title=" ">
<polygon fill="white" stroke="black" points="597,-112.5 597,-131.5 690,-131.5 690,-112.5 597,-112.5"/>
<text text-anchor="middle" x="643.5" y="-119.5" font-family="Helvetica,sans-Serif" font-size="10.00">libexif/exif&#45;ifd.h</text>
</a>
</g>
</g>
<!-- Node2&#45;&gt;Node5 -->
<g id="edge4" class="edge">
<title>Node2&#45;&gt;Node5</title>
<path fill="none" stroke="midnightblue" d="M397.56,-294.32C438.3,-288.38 496.03,-276.78 542.5,-255 587.01,-234.14 604.44,-229.68 630.5,-188 639.17,-174.13 642.22,-155.61 643.22,-141.89"/>
<polygon fill="midnightblue" stroke="midnightblue" points="646.72,-141.84 643.65,-131.7 639.73,-141.54 646.72,-141.84"/>
</g>
<!-- Node2&#45;&gt;Node6 -->
<g id="edge5" class="edge">
<title>Node2&#45;&gt;Node6</title>
<path fill="none" stroke="midnightblue" d="M295.46,-295.37C268.75,-290.05 238.21,-278.78 221.5,-255 208.56,-236.59 223.18,-211.82 236.16,-195.63"/>
<polygon fill="midnightblue" stroke="midnightblue" points="239.18,-197.49 243.03,-187.62 233.86,-192.94 239.18,-197.49"/>
</g>
<!-- Node2&#45;&gt;Node7 -->
<g id="edge26" class="edge">
<title>Node2&#45;&gt;Node7</title>
<path fill="none" stroke="midnightblue" d="M295.31,-294.6C267.26,-289.05 233.93,-277.79 212.5,-255 183.62,-224.29 192.05,-169.72 199.13,-141.32"/>
<polygon fill="midnightblue" stroke="midnightblue" points="202.55,-142.08 201.79,-131.51 195.8,-140.25 202.55,-142.08"/>
</g>
<!-- Node12 -->
<g id="node12" class="node">
<title>Node12</title>
<g id="a_node12"><a xlink:href="exif-tag_8h.html" target="_top" xlink:title="Handling EXIF tags.">
<polygon fill="white" stroke="black" points="525.5,-168.5 525.5,-187.5 621.5,-187.5 621.5,-168.5 525.5,-168.5"/>
<text text-anchor="middle" x="573.5" y="-175.5" font-family="Helvetica,sans-Serif" font-size="10.00">libexif/exif&#45;tag.h</text>
</a>
</g>
</g>
<!-- Node2&#45;&gt;Node12 -->
<g id="edge12" class="edge">
<title>Node2&#45;&gt;Node12</title>
<path fill="none" stroke="midnightblue" d="M397.83,-294.3C432.21,-288.58 477.27,-277.25 511.5,-255 534.41,-240.11 552.97,-214.01 563.62,-196.62"/>
<polygon fill="midnightblue" stroke="midnightblue" points="566.91,-197.93 568.95,-187.53 560.87,-194.39 566.91,-197.93"/>
</g>
<!-- Node13 -->
<g id="node13" class="node">
<title>Node13</title>
<g id="a_node13"><a xlink:href="exif-content_8h.html" target="_top" xlink:title="Handling EXIF IFDs.">
<polygon fill="white" stroke="black" points="352,-230 352,-249 469,-249 469,-230 352,-230"/>
<text text-anchor="middle" x="410.5" y="-237" font-family="Helvetica,sans-Serif" font-size="10.00">libexif/exif&#45;content.h</text>
</a>
</g>
</g>
<!-- Node2&#45;&gt;Node13 -->
<g id="edge15" class="edge">
<title>Node2&#45;&gt;Node13</title>
<path fill="none" stroke="midnightblue" d="M350.77,-291.48C358.8,-282.11 374.83,-266.88 388.41,-255.51"/>
<polygon fill="midnightblue" stroke="midnightblue" points="390.87,-258.02 396.45,-249.01 386.47,-252.57 390.87,-258.02"/>
</g>
<!-- Node15 -->
<g id="node15" class="node">
<title>Node15</title>
<g id="a_node15"><a xlink:href="exif-mnote-data_8h.html" target="_top" xlink:title="Handling EXIF MakerNote tags.">
<polygon fill="white" stroke="black" points="231,-224.5 231,-254.5 334,-254.5 334,-224.5 231,-224.5"/>
<text text-anchor="start" x="239" y="-242.5" font-family="Helvetica,sans-Serif" font-size="10.00">libexif/exif&#45;mnote</text>
<text text-anchor="middle" x="282.5" y="-231.5" font-family="Helvetica,sans-Serif" font-size="10.00">&#45;data.h</text>
</a>
</g>
</g>
<!-- Node2&#45;&gt;Node15 -->
<g id="edge24" class="edge">
<title>Node2&#45;&gt;Node15</title>
<path fill="none" stroke="midnightblue" d="M337.33,-291.48C328.91,-283.64 316.08,-271.71 304.94,-261.37"/>
<polygon fill="midnightblue" stroke="midnightblue" points="307.29,-258.77 297.58,-254.52 302.52,-263.9 307.29,-258.77"/>
</g>
<!-- Node6&#45;&gt;Node7 -->
<g id="edge6" class="edge">
<title>Node6&#45;&gt;Node7</title>
<path fill="none" stroke="midnightblue" d="M243.74,-168.08C236.96,-160.3 226.96,-148.8 218.74,-139.37"/>
<polygon fill="midnightblue" stroke="midnightblue" points="221.32,-137 212.12,-131.75 216.04,-141.59 221.32,-137"/>
</g>
<!-- Node11 -->
<g id="node11" class="node">
<title>Node11</title>
<g id="a_node11"><a xlink:title=" ">
<polygon fill="white" stroke="#bfbfbf" points="275.5,-112.5 275.5,-131.5 331.5,-131.5 331.5,-112.5 275.5,-112.5"/>
<text text-anchor="middle" x="303.5" y="-119.5" font-family="Helvetica,sans-Serif" font-size="10.00">stdarg.h</text>
</a>
</g>
</g>
<!-- Node6&#45;&gt;Node11 -->
<g id="edge11" class="edge">
<title>Node6&#45;&gt;Node11</title>
<path fill="none" stroke="midnightblue" d="M260.09,-168.08C267.66,-160.22 278.88,-148.57 288.01,-139.08"/>
<polygon fill="midnightblue" stroke="midnightblue" points="290.66,-141.38 295.07,-131.75 285.62,-136.53 290.66,-141.38"/>
</g>
<!-- Node8 -->
<g id="node8" class="node">
<title>Node8</title>
<g id="a_node8"><a xlink:href="exif-utils_8h.html" target="_top" xlink:title="EXIF data manipulation functions and types.">
<polygon fill="white" stroke="black" points="154,-56.5 154,-75.5 255,-75.5 255,-56.5 154,-56.5"/>
<text text-anchor="middle" x="204.5" y="-63.5" font-family="Helvetica,sans-Serif" font-size="10.00">libexif/exif&#45;utils.h</text>
</a>
</g>
</g>
<!-- Node7&#45;&gt;Node8 -->
<g id="edge7" class="edge">
<title>Node7&#45;&gt;Node8</title>
<path fill="none" stroke="midnightblue" d="M204.5,-112.08C204.5,-105.01 204.5,-94.86 204.5,-85.99"/>
<polygon fill="midnightblue" stroke="midnightblue" points="208,-85.75 204.5,-75.75 201,-85.75 208,-85.75"/>
</g>
<!-- Node8&#45;&gt;Node3 -->
<g id="edge8" class="edge">
<title>Node8&#45;&gt;Node3</title>
<path fill="none" stroke="midnightblue" d="M182.48,-56.44C159.4,-47.48 122.94,-33.31 96.86,-23.18"/>
<polygon fill="midnightblue" stroke="midnightblue" points="98.01,-19.88 87.42,-19.52 95.48,-26.4 98.01,-19.88"/>
</g>
<!-- Node9 -->
<g id="node9" class="node">
<title>Node9</title>
<g id="a_node9"><a xlink:href="exif-format_8h.html" target="_top" xlink:title="Handling native EXIF data types.">
<polygon fill="white" stroke="black" points="304,-0.5 304,-19.5 417,-19.5 417,-0.5 304,-0.5"/>
<text text-anchor="middle" x="360.5" y="-7.5" font-family="Helvetica,sans-Serif" font-size="10.00">libexif/exif&#45;format.h</text>
</a>
</g>
</g>
<!-- Node8&#45;&gt;Node9 -->
<g id="edge9" class="edge">
<title>Node8&#45;&gt;Node9</title>
<path fill="none" stroke="midnightblue" d="M229.22,-56.44C255.35,-47.4 296.76,-33.06 326.08,-22.92"/>
<polygon fill="midnightblue" stroke="midnightblue" points="327.59,-26.1 335.9,-19.52 325.3,-19.48 327.59,-26.1"/>
</g>
<!-- Node10 -->
<g id="node10" class="node">
<title>Node10</title>
<g id="a_node10"><a xlink:title=" ">
<polygon fill="white" stroke="#bfbfbf" points="158.5,-0.5 158.5,-19.5 250.5,-19.5 250.5,-0.5 158.5,-0.5"/>
<text text-anchor="middle" x="204.5" y="-7.5" font-family="Helvetica,sans-Serif" font-size="10.00">libexif/_stdint.h</text>
</a>
</g>
</g>
<!-- Node8&#45;&gt;Node10 -->
<g id="edge10" class="edge">
<title>Node8&#45;&gt;Node10</title>
<path fill="none" stroke="midnightblue" d="M204.5,-56.08C204.5,-49.01 204.5,-38.86 204.5,-29.99"/>
<polygon fill="midnightblue" stroke="midnightblue" points="208,-29.75 204.5,-19.75 201,-29.75 208,-29.75"/>
</g>
<!-- Node12&#45;&gt;Node4 -->
<g id="edge14" class="edge">
<title>Node12&#45;&gt;Node4</title>
<path fill="none" stroke="midnightblue" d="M562.25,-168.32C551.7,-160.18 535.7,-147.84 523.06,-138.09"/>
<polygon fill="midnightblue" stroke="midnightblue" points="525.01,-135.17 514.95,-131.83 520.73,-140.71 525.01,-135.17"/>
</g>
<!-- Node12&#45;&gt;Node5 -->
<g id="edge13" class="edge">
<title>Node12&#45;&gt;Node5</title>
<path fill="none" stroke="midnightblue" d="M584.75,-168.32C595.3,-160.18 611.3,-147.84 623.94,-138.09"/>
<polygon fill="midnightblue" stroke="midnightblue" points="626.27,-140.71 632.05,-131.83 621.99,-135.17 626.27,-140.71"/>
</g>
<!-- Node13&#45;&gt;Node2 -->
<g id="edge21" class="edge">
<title>Node13&#45;&gt;Node2</title>
<path fill="none" stroke="midnightblue" d="M406.24,-249.01C398.22,-258.37 382.2,-273.59 368.62,-284.97"/>
<polygon fill="midnightblue" stroke="midnightblue" points="366.15,-282.47 360.57,-291.48 370.55,-287.91 366.15,-282.47"/>
</g>
<!-- Node13&#45;&gt;Node6 -->
<g id="edge22" class="edge">
<title>Node13&#45;&gt;Node6</title>
<path fill="none" stroke="midnightblue" d="M387.72,-229.98C360.45,-219.77 314.59,-202.61 283.7,-191.05"/>
<polygon fill="midnightblue" stroke="midnightblue" points="284.83,-187.74 274.24,-187.51 282.38,-194.29 284.83,-187.74"/>
</g>
<!-- Node13&#45;&gt;Node7 -->
<g id="edge23" class="edge">
<title>Node13&#45;&gt;Node7</title>
<path fill="none" stroke="midnightblue" d="M399.52,-229.95C381.15,-215.9 342.75,-187.54 307.5,-168 284.76,-155.4 257.8,-143.73 237.17,-135.43"/>
<polygon fill="midnightblue" stroke="midnightblue" points="238.18,-132.07 227.59,-131.64 235.6,-138.58 238.18,-132.07"/>
</g>
<!-- Node13&#45;&gt;Node12 -->
<g id="edge16" class="edge">
<title>Node13&#45;&gt;Node12</title>
<path fill="none" stroke="midnightblue" d="M433.85,-229.98C461.81,-219.77 508.83,-202.61 540.49,-191.05"/>
<polygon fill="midnightblue" stroke="midnightblue" points="542,-194.23 550.19,-187.51 539.6,-187.65 542,-194.23"/>
</g>
<!-- Node14 -->
<g id="node14" class="node">
<title>Node14</title>
<g id="a_node14"><a xlink:href="exif-entry_8h.html" target="_top" xlink:title="Handling EXIF entries.">
<polygon fill="white" stroke="black" points="356.5,-168.5 356.5,-187.5 460.5,-187.5 460.5,-168.5 356.5,-168.5"/>
<text text-anchor="middle" x="408.5" y="-175.5" font-family="Helvetica,sans-Serif" font-size="10.00">libexif/exif&#45;entry.h</text>
</a>
</g>
</g>
<!-- Node13&#45;&gt;Node14 -->
<g id="edge17" class="edge">
<title>Node13&#45;&gt;Node14</title>
<path fill="none" stroke="midnightblue" d="M405.31,-229.98C403.2,-221.58 402.29,-208.48 402.81,-197.66"/>
<polygon fill="midnightblue" stroke="midnightblue" points="406.32,-197.82 403.89,-187.51 399.35,-197.08 406.32,-197.82"/>
</g>
<!-- Node14&#45;&gt;Node7 -->
<g id="edge20" class="edge">
<title>Node14&#45;&gt;Node7</title>
<path fill="none" stroke="midnightblue" d="M376.18,-168.44C341.11,-159.16 285,-144.31 246.54,-134.13"/>
<polygon fill="midnightblue" stroke="midnightblue" points="247.24,-130.69 236.67,-131.52 245.44,-137.46 247.24,-130.69"/>
</g>
<!-- Node14&#45;&gt;Node9 -->
<g id="edge19" class="edge">
<title>Node14&#45;&gt;Node9</title>
<path fill="none" stroke="midnightblue" d="M405.92,-168.08C398.36,-141.95 376.18,-65.21 365.87,-29.58"/>
<polygon fill="midnightblue" stroke="midnightblue" points="369.12,-28.2 362.98,-19.57 362.39,-30.15 369.12,-28.2"/>
</g>
<!-- Node14&#45;&gt;Node13 -->
<g id="edge18" class="edge">
<title>Node14&#45;&gt;Node13</title>
<path fill="none" stroke="midnightblue" d="M413.68,-187.51C415.8,-195.9 416.71,-209 416.19,-219.82"/>
<polygon fill="midnightblue" stroke="midnightblue" points="412.69,-219.66 415.11,-229.98 419.65,-220.4 412.69,-219.66"/>
</g>
<!-- Node15&#45;&gt;Node6 -->
<g id="edge25" class="edge">
<title>Node15&#45;&gt;Node6</title>
<path fill="none" stroke="midnightblue" d="M275.15,-224.4C270.83,-216.11 265.33,-205.55 260.73,-196.71"/>
<polygon fill="midnightblue" stroke="midnightblue" points="263.74,-194.91 256.01,-187.66 257.53,-198.14 263.74,-194.91"/>
</g>
</g>
</svg>
