<?xml version="1.0" encoding="UTF-8" standalone="no"?>
<!DOCTYPE svg PUBLIC "-//W3C//DTD SVG 1.1//EN"
 "http://www.w3.org/Graphics/SVG/1.1/DTD/svg11.dtd">
<!-- Generated by graphviz version 2.44.1 (0)
 -->
<!-- Title: libexif/pentax/exif&#45;mnote&#45;data&#45;pentax.c Pages: 1 -->
<svg width="1081pt" height="475pt"
 viewBox="0.00 0.00 1081.00 475.00" xmlns="http://www.w3.org/2000/svg" xmlns:xlink="http://www.w3.org/1999/xlink">
<g id="graph0" class="graph" transform="scale(1 1) rotate(0) translate(4 471)">
<title>libexif/pentax/exif&#45;mnote&#45;data&#45;pentax.c</title>
<polygon fill="white" stroke="transparent" points="-4,4 -4,-471 1077,-471 1077,4 -4,4"/>
<!-- Node1 -->
<g id="node1" class="node">
<title>Node1</title>
<g id="a_node1"><a xlink:title=" ">
<polygon fill="#bfbfbf" stroke="black" points="790.5,-436.5 790.5,-466.5 913.5,-466.5 913.5,-436.5 790.5,-436.5"/>
<text text-anchor="start" x="798.5" y="-454.5" font-family="Helvetica,sans-Serif" font-size="10.00">libexif/pentax/exif</text>
<text text-anchor="middle" x="852" y="-443.5" font-family="Helvetica,sans-Serif" font-size="10.00">&#45;mnote&#45;data&#45;pentax.c</text>
</a>
</g>
</g>
<!-- Node2 -->
<g id="node2" class="node">
<title>Node2</title>
<g id="a_node2"><a xlink:title=" ">
<polygon fill="white" stroke="#bfbfbf" points="0,-380.5 0,-399.5 56,-399.5 56,-380.5 0,-380.5"/>
<text text-anchor="middle" x="28" y="-387.5" font-family="Helvetica,sans-Serif" font-size="10.00">config.h</text>
</a>
</g>
</g>
<!-- Node1&#45;&gt;Node2 -->
<g id="edge1" class="edge">
<title>Node1&#45;&gt;Node2</title>
<path fill="none" stroke="midnightblue" d="M790.35,-449.59C657.89,-446.95 336.48,-436.95 70,-400 68.75,-399.83 67.49,-399.64 66.21,-399.44"/>
<polygon fill="midnightblue" stroke="midnightblue" points="66.83,-395.99 56.37,-397.67 65.59,-402.88 66.83,-395.99"/>
</g>
<!-- Node3 -->
<g id="node3" class="node">
<title>Node3</title>
<g id="a_node3"><a xlink:href="exif-mnote-data-pentax_8h.html" target="_top" xlink:title=" ">
<polygon fill="white" stroke="black" points="412.5,-380.5 412.5,-399.5 553.5,-399.5 553.5,-380.5 412.5,-380.5"/>
<text text-anchor="middle" x="483" y="-387.5" font-family="Helvetica,sans-Serif" font-size="10.00">exif&#45;mnote&#45;data&#45;pentax.h</text>
</a>
</g>
</g>
<!-- Node1&#45;&gt;Node3 -->
<g id="edge2" class="edge">
<title>Node1&#45;&gt;Node3</title>
<path fill="none" stroke="midnightblue" d="M790.24,-440.54C722.52,-429.62 614.43,-412.19 546.17,-401.19"/>
<polygon fill="midnightblue" stroke="midnightblue" points="546.41,-397.68 535.98,-399.54 545.29,-404.59 546.41,-397.68"/>
</g>
<!-- Node4 -->
<g id="node4" class="node">
<title>Node4</title>
<g id="a_node4"><a xlink:href="exif-byte-order_8h.html" target="_top" xlink:title="Defines the ExifByteOrder enum and the associated functions.">
<polygon fill="white" stroke="black" points="572.5,-6 572.5,-25 703.5,-25 703.5,-6 572.5,-6"/>
<text text-anchor="middle" x="638" y="-13" font-family="Helvetica,sans-Serif" font-size="10.00">libexif/exif&#45;byte&#45;order.h</text>
</a>
</g>
</g>
<!-- Node1&#45;&gt;Node4 -->
<g id="edge43" class="edge">
<title>Node1&#45;&gt;Node4</title>
<path fill="none" stroke="midnightblue" d="M852,-436.34C852,-413.75 852,-368.15 852,-329.5 852,-329.5 852,-329.5 852,-143 852,-105.81 845.27,-91.16 817,-67 798.51,-51.2 739.82,-36.52 694.63,-27.1"/>
<polygon fill="midnightblue" stroke="midnightblue" points="695.13,-23.63 684.64,-25.05 693.73,-30.49 695.13,-23.63"/>
</g>
<!-- Node8 -->
<g id="node8" class="node">
<title>Node8</title>
<g id="a_node8"><a xlink:href="exif-utils_8h.html" target="_top" xlink:title="EXIF data manipulation functions and types.">
<polygon fill="white" stroke="black" points="33.5,-73 33.5,-92 134.5,-92 134.5,-73 33.5,-73"/>
<text text-anchor="middle" x="84" y="-80" font-family="Helvetica,sans-Serif" font-size="10.00">libexif/exif&#45;utils.h</text>
</a>
</g>
</g>
<!-- Node1&#45;&gt;Node8 -->
<g id="edge44" class="edge">
<title>Node1&#45;&gt;Node8</title>
<path fill="none" stroke="midnightblue" d="M790.45,-447.27C608.21,-436.9 84,-400.87 84,-329.5 84,-329.5 84,-329.5 84,-199 84,-164.86 84,-125.05 84,-102.21"/>
<polygon fill="midnightblue" stroke="midnightblue" points="87.5,-102.19 84,-92.19 80.5,-102.19 87.5,-102.19"/>
</g>
<!-- Node21 -->
<g id="node21" class="node">
<title>Node21</title>
<g id="a_node21"><a xlink:title=" ">
<polygon fill="white" stroke="#bfbfbf" points="880.5,-380.5 880.5,-399.5 933.5,-399.5 933.5,-380.5 880.5,-380.5"/>
<text text-anchor="middle" x="907" y="-387.5" font-family="Helvetica,sans-Serif" font-size="10.00">stdlib.h</text>
</a>
</g>
</g>
<!-- Node1&#45;&gt;Node21 -->
<g id="edge40" class="edge">
<title>Node1&#45;&gt;Node21</title>
<path fill="none" stroke="midnightblue" d="M865.03,-436.4C873.19,-427.58 883.72,-416.18 892.19,-407.02"/>
<polygon fill="midnightblue" stroke="midnightblue" points="894.78,-409.38 899,-399.66 889.64,-404.63 894.78,-409.38"/>
</g>
<!-- Node22 -->
<g id="node22" class="node">
<title>Node22</title>
<g id="a_node22"><a xlink:title=" ">
<polygon fill="white" stroke="#bfbfbf" points="951.5,-380.5 951.5,-399.5 1004.5,-399.5 1004.5,-380.5 951.5,-380.5"/>
<text text-anchor="middle" x="978" y="-387.5" font-family="Helvetica,sans-Serif" font-size="10.00">string.h</text>
</a>
</g>
</g>
<!-- Node1&#45;&gt;Node22 -->
<g id="edge41" class="edge">
<title>Node1&#45;&gt;Node22</title>
<path fill="none" stroke="midnightblue" d="M881.86,-436.4C902.62,-426.59 930.1,-413.62 950.36,-404.05"/>
<polygon fill="midnightblue" stroke="midnightblue" points="952.12,-407.09 959.67,-399.66 949.13,-400.76 952.12,-407.09"/>
</g>
<!-- Node23 -->
<g id="node23" class="node">
<title>Node23</title>
<g id="a_node23"><a xlink:title=" ">
<polygon fill="white" stroke="#bfbfbf" points="1023,-380.5 1023,-399.5 1073,-399.5 1073,-380.5 1023,-380.5"/>
<text text-anchor="middle" x="1048" y="-387.5" font-family="Helvetica,sans-Serif" font-size="10.00">stdio.h</text>
</a>
</g>
</g>
<!-- Node1&#45;&gt;Node23 -->
<g id="edge42" class="edge">
<title>Node1&#45;&gt;Node23</title>
<path fill="none" stroke="midnightblue" d="M898.45,-436.4C933.59,-425.73 981.09,-411.31 1013.05,-401.61"/>
<polygon fill="midnightblue" stroke="midnightblue" points="1014.29,-404.89 1022.84,-398.64 1012.25,-398.19 1014.29,-404.89"/>
</g>
<!-- Node3&#45;&gt;Node4 -->
<g id="edge3" class="edge">
<title>Node3&#45;&gt;Node4</title>
<path fill="none" stroke="midnightblue" d="M553.55,-383.97C624.1,-377.82 726.74,-365.47 760,-344 796.5,-320.43 814,-305.95 814,-262.5 814,-262.5 814,-262.5 814,-143 814,-108.18 818.79,-92.42 795,-67 780.39,-51.39 729.4,-36.81 689.44,-27.36"/>
<polygon fill="midnightblue" stroke="midnightblue" points="690.08,-23.92 679.55,-25.08 688.5,-30.74 690.08,-23.92"/>
</g>
<!-- Node5 -->
<g id="node5" class="node">
<title>Node5</title>
<g id="a_node5"><a xlink:href="exif-mnote-data_8h.html" target="_top" xlink:title="Handling EXIF MakerNote tags.">
<polygon fill="white" stroke="black" points="226.5,-246.5 226.5,-276.5 329.5,-276.5 329.5,-246.5 226.5,-246.5"/>
<text text-anchor="start" x="234.5" y="-264.5" font-family="Helvetica,sans-Serif" font-size="10.00">libexif/exif&#45;mnote</text>
<text text-anchor="middle" x="278" y="-253.5" font-family="Helvetica,sans-Serif" font-size="10.00">&#45;data.h</text>
</a>
</g>
</g>
<!-- Node3&#45;&gt;Node5 -->
<g id="edge4" class="edge">
<title>Node3&#45;&gt;Node5</title>
<path fill="none" stroke="midnightblue" d="M468.91,-380.31C436.26,-360.16 354.77,-309.87 309.52,-281.95"/>
<polygon fill="midnightblue" stroke="midnightblue" points="311.33,-278.95 300.98,-276.68 307.65,-284.91 311.33,-278.95"/>
</g>
<!-- Node7 -->
<g id="node7" class="node">
<title>Node7</title>
<g id="a_node7"><a xlink:href="exif-mem_8h.html" target="_top" xlink:title="Define the ExifMem data type and the associated functions.">
<polygon fill="white" stroke="black" points="297,-134.5 297,-153.5 403,-153.5 403,-134.5 297,-134.5"/>
<text text-anchor="middle" x="350" y="-141.5" font-family="Helvetica,sans-Serif" font-size="10.00">libexif/exif&#45;mem.h</text>
</a>
</g>
</g>
<!-- Node3&#45;&gt;Node7 -->
<g id="edge39" class="edge">
<title>Node3&#45;&gt;Node7</title>
<path fill="none" stroke="midnightblue" d="M412.45,-388.78C332.23,-386.86 208.54,-378.23 179,-344 147.24,-307.19 139.84,-269.24 217,-190 229.25,-177.42 269.85,-164.74 303,-156.07"/>
<polygon fill="midnightblue" stroke="midnightblue" points="304.19,-159.37 313.01,-153.51 302.45,-152.59 304.19,-159.37"/>
</g>
<!-- Node12 -->
<g id="node12" class="node">
<title>Node12</title>
<g id="a_node12"><a xlink:href="exif-mnote-data-priv_8h.html" target="_top" xlink:title=" ">
<polygon fill="white" stroke="black" points="188.5,-313.5 188.5,-343.5 291.5,-343.5 291.5,-313.5 188.5,-313.5"/>
<text text-anchor="start" x="196.5" y="-331.5" font-family="Helvetica,sans-Serif" font-size="10.00">libexif/exif&#45;mnote</text>
<text text-anchor="middle" x="240" y="-320.5" font-family="Helvetica,sans-Serif" font-size="10.00">&#45;data&#45;priv.h</text>
</a>
</g>
</g>
<!-- Node3&#45;&gt;Node12 -->
<g id="edge12" class="edge">
<title>Node3&#45;&gt;Node12</title>
<path fill="none" stroke="midnightblue" d="M448.18,-380.48C410.04,-371.13 348.11,-355.97 301.69,-344.61"/>
<polygon fill="midnightblue" stroke="midnightblue" points="302.28,-341.15 291.74,-342.17 300.62,-347.95 302.28,-341.15"/>
</g>
<!-- Node13 -->
<g id="node13" class="node">
<title>Node13</title>
<g id="a_node13"><a xlink:href="mnote-pentax-entry_8h.html" target="_top" xlink:title=" ">
<polygon fill="white" stroke="black" points="666.5,-67.5 666.5,-97.5 785.5,-97.5 785.5,-67.5 666.5,-67.5"/>
<text text-anchor="start" x="674.5" y="-85.5" font-family="Helvetica,sans-Serif" font-size="10.00">libexif/pentax/mnote</text>
<text text-anchor="middle" x="726" y="-74.5" font-family="Helvetica,sans-Serif" font-size="10.00">&#45;pentax&#45;entry.h</text>
</a>
</g>
</g>
<!-- Node3&#45;&gt;Node13 -->
<g id="edge16" class="edge">
<title>Node3&#45;&gt;Node13</title>
<path fill="none" stroke="midnightblue" d="M553.55,-388.08C640.25,-382.77 776,-359.05 776,-262.5 776,-262.5 776,-262.5 776,-199 776,-164.43 756.9,-128.48 742.32,-106.05"/>
<polygon fill="midnightblue" stroke="midnightblue" points="745.1,-103.92 736.6,-97.6 739.3,-107.84 745.1,-103.92"/>
</g>
<!-- Node15 -->
<g id="node15" class="node">
<title>Node15</title>
<g id="a_node15"><a xlink:href="exif-data_8h.html" target="_top" xlink:title="Defines the ExifData type and the associated functions.">
<polygon fill="white" stroke="black" points="432,-319 432,-338 534,-338 534,-319 432,-319"/>
<text text-anchor="middle" x="483" y="-326" font-family="Helvetica,sans-Serif" font-size="10.00">libexif/exif&#45;data.h</text>
</a>
</g>
</g>
<!-- Node3&#45;&gt;Node15 -->
<g id="edge20" class="edge">
<title>Node3&#45;&gt;Node15</title>
<path fill="none" stroke="midnightblue" d="M483,-380.48C483,-372.08 483,-358.98 483,-348.16"/>
<polygon fill="midnightblue" stroke="midnightblue" points="486.5,-348.01 483,-338.01 479.5,-348.01 486.5,-348.01"/>
</g>
<!-- Node6 -->
<g id="node6" class="node">
<title>Node6</title>
<g id="a_node6"><a xlink:href="exif-log_8h.html" target="_top" xlink:title="Log message infrastructure.">
<polygon fill="white" stroke="black" points="226.5,-190.5 226.5,-209.5 321.5,-209.5 321.5,-190.5 226.5,-190.5"/>
<text text-anchor="middle" x="274" y="-197.5" font-family="Helvetica,sans-Serif" font-size="10.00">libexif/exif&#45;log.h</text>
</a>
</g>
</g>
<!-- Node5&#45;&gt;Node6 -->
<g id="edge5" class="edge">
<title>Node5&#45;&gt;Node6</title>
<path fill="none" stroke="midnightblue" d="M277.05,-246.4C276.52,-238.47 275.85,-228.46 275.27,-219.86"/>
<polygon fill="midnightblue" stroke="midnightblue" points="278.74,-219.4 274.58,-209.66 271.76,-219.87 278.74,-219.4"/>
</g>
<!-- Node6&#45;&gt;Node7 -->
<g id="edge6" class="edge">
<title>Node6&#45;&gt;Node7</title>
<path fill="none" stroke="midnightblue" d="M286.21,-190.32C297.78,-182.11 315.38,-169.6 329.16,-159.81"/>
<polygon fill="midnightblue" stroke="midnightblue" points="331.44,-162.48 337.57,-153.83 327.39,-156.77 331.44,-162.48"/>
</g>
<!-- Node11 -->
<g id="node11" class="node">
<title>Node11</title>
<g id="a_node11"><a xlink:title=" ">
<polygon fill="white" stroke="#bfbfbf" points="223,-134.5 223,-153.5 279,-153.5 279,-134.5 223,-134.5"/>
<text text-anchor="middle" x="251" y="-141.5" font-family="Helvetica,sans-Serif" font-size="10.00">stdarg.h</text>
</a>
</g>
</g>
<!-- Node6&#45;&gt;Node11 -->
<g id="edge11" class="edge">
<title>Node6&#45;&gt;Node11</title>
<path fill="none" stroke="midnightblue" d="M270.2,-190.08C267.09,-182.77 262.58,-172.18 258.71,-163.1"/>
<polygon fill="midnightblue" stroke="midnightblue" points="261.87,-161.58 254.73,-153.75 255.43,-164.32 261.87,-161.58"/>
</g>
<!-- Node7&#45;&gt;Node8 -->
<g id="edge7" class="edge">
<title>Node7&#45;&gt;Node8</title>
<path fill="none" stroke="midnightblue" d="M311.89,-134.48C264.48,-123.87 183.52,-105.76 131.94,-94.22"/>
<polygon fill="midnightblue" stroke="midnightblue" points="132.56,-90.78 122.04,-92.01 131.04,-97.61 132.56,-90.78"/>
</g>
<!-- Node8&#45;&gt;Node4 -->
<g id="edge8" class="edge">
<title>Node8&#45;&gt;Node4</title>
<path fill="none" stroke="midnightblue" d="M118.6,-72.98C128.38,-70.79 139.07,-68.6 149,-67 307.31,-41.5 348.54,-47.89 508,-31 525.46,-29.15 544.24,-27.1 561.94,-25.13"/>
<polygon fill="midnightblue" stroke="midnightblue" points="562.66,-28.57 572.21,-23.98 561.89,-21.61 562.66,-28.57"/>
</g>
<!-- Node9 -->
<g id="node9" class="node">
<title>Node9</title>
<g id="a_node9"><a xlink:href="exif-format_8h.html" target="_top" xlink:title="Handling native EXIF data types.">
<polygon fill="white" stroke="black" points="385.5,-6 385.5,-25 498.5,-25 498.5,-6 385.5,-6"/>
<text text-anchor="middle" x="442" y="-13" font-family="Helvetica,sans-Serif" font-size="10.00">libexif/exif&#45;format.h</text>
</a>
</g>
</g>
<!-- Node8&#45;&gt;Node9 -->
<g id="edge9" class="edge">
<title>Node8&#45;&gt;Node9</title>
<path fill="none" stroke="midnightblue" d="M120.72,-72.98C129.93,-70.93 139.81,-68.82 149,-67 227.51,-51.49 318.38,-36.24 377.85,-26.63"/>
<polygon fill="midnightblue" stroke="midnightblue" points="378.54,-30.07 387.85,-25.02 377.42,-23.16 378.54,-30.07"/>
</g>
<!-- Node10 -->
<g id="node10" class="node">
<title>Node10</title>
<g id="a_node10"><a xlink:title=" ">
<polygon fill="white" stroke="#bfbfbf" points="38,-6 38,-25 130,-25 130,-6 38,-6"/>
<text text-anchor="middle" x="84" y="-13" font-family="Helvetica,sans-Serif" font-size="10.00">libexif/_stdint.h</text>
</a>
</g>
</g>
<!-- Node8&#45;&gt;Node10 -->
<g id="edge10" class="edge">
<title>Node8&#45;&gt;Node10</title>
<path fill="none" stroke="midnightblue" d="M84,-72.73C84,-63.18 84,-47.62 84,-35.28"/>
<polygon fill="midnightblue" stroke="midnightblue" points="87.5,-35.13 84,-25.13 80.5,-35.13 87.5,-35.13"/>
</g>
<!-- Node12&#45;&gt;Node4 -->
<g id="edge14" class="edge">
<title>Node12&#45;&gt;Node4</title>
<path fill="none" stroke="midnightblue" d="M228.83,-313.43C221.91,-303.79 213.67,-290.37 210,-277 200.21,-241.34 184.42,-171.48 214,-134 257.13,-79.34 453.86,-42.94 563.55,-26.52"/>
<polygon fill="midnightblue" stroke="midnightblue" points="564.18,-29.96 573.56,-25.04 563.16,-23.04 564.18,-29.96"/>
</g>
<!-- Node12&#45;&gt;Node5 -->
<g id="edge13" class="edge">
<title>Node12&#45;&gt;Node5</title>
<path fill="none" stroke="midnightblue" d="M248.25,-313.4C253.03,-305.22 259.16,-294.73 264.62,-285.39"/>
<polygon fill="midnightblue" stroke="midnightblue" points="267.75,-286.98 269.77,-276.58 261.7,-283.44 267.75,-286.98"/>
</g>
<!-- Node12&#45;&gt;Node6 -->
<g id="edge15" class="edge">
<title>Node12&#45;&gt;Node6</title>
<path fill="none" stroke="midnightblue" d="M230.08,-313.41C219.66,-296.72 206.16,-268.36 217,-246 223.4,-232.8 235.75,-222.3 247.33,-214.78"/>
<polygon fill="midnightblue" stroke="midnightblue" points="249.16,-217.77 255.92,-209.61 245.55,-211.77 249.16,-217.77"/>
</g>
<!-- Node13&#45;&gt;Node4 -->
<g id="edge18" class="edge">
<title>Node13&#45;&gt;Node4</title>
<path fill="none" stroke="midnightblue" d="M706.91,-67.4C692.42,-56.7 672.57,-42.03 657.89,-31.19"/>
<polygon fill="midnightblue" stroke="midnightblue" points="659.64,-28.13 649.52,-25.01 655.48,-33.76 659.64,-28.13"/>
</g>
<!-- Node13&#45;&gt;Node9 -->
<g id="edge17" class="edge">
<title>Node13&#45;&gt;Node9</title>
<path fill="none" stroke="midnightblue" d="M666.46,-67.87C613.77,-55.81 537.9,-38.45 489.27,-27.32"/>
<polygon fill="midnightblue" stroke="midnightblue" points="489.85,-23.86 479.33,-25.04 488.29,-30.69 489.85,-23.86"/>
</g>
<!-- Node14 -->
<g id="node14" class="node">
<title>Node14</title>
<g id="a_node14"><a xlink:href="mnote-pentax-tag_8h.html" target="_top" xlink:title=" ">
<polygon fill="white" stroke="black" points="721.5,-0.5 721.5,-30.5 840.5,-30.5 840.5,-0.5 721.5,-0.5"/>
<text text-anchor="start" x="729.5" y="-18.5" font-family="Helvetica,sans-Serif" font-size="10.00">libexif/pentax/mnote</text>
<text text-anchor="middle" x="781" y="-7.5" font-family="Helvetica,sans-Serif" font-size="10.00">&#45;pentax&#45;tag.h</text>
</a>
</g>
</g>
<!-- Node13&#45;&gt;Node14 -->
<g id="edge19" class="edge">
<title>Node13&#45;&gt;Node14</title>
<path fill="none" stroke="midnightblue" d="M737.93,-67.4C745.14,-58.88 754.48,-47.85 762.61,-38.23"/>
<polygon fill="midnightblue" stroke="midnightblue" points="765.3,-40.47 769.09,-30.58 759.96,-35.95 765.3,-40.47"/>
</g>
<!-- Node15&#45;&gt;Node4 -->
<g id="edge21" class="edge">
<title>Node15&#45;&gt;Node4</title>
<path fill="none" stroke="midnightblue" d="M534.09,-321.63C569.96,-315.4 617.49,-302.7 652,-277 680.57,-255.72 679.38,-241.51 696,-210 712.47,-178.79 736.5,-164.65 719,-134 703.39,-106.66 676.78,-123.27 658,-98 644.31,-79.58 639.9,-52.98 638.53,-35.23"/>
<polygon fill="midnightblue" stroke="midnightblue" points="642.01,-34.83 638,-25.02 635.02,-35.19 642.01,-34.83"/>
</g>
<!-- Node15&#45;&gt;Node5 -->
<g id="edge37" class="edge">
<title>Node15&#45;&gt;Node5</title>
<path fill="none" stroke="midnightblue" d="M455.78,-318.87C424.28,-308.88 371.66,-292.2 331.82,-279.56"/>
<polygon fill="midnightblue" stroke="midnightblue" points="332.83,-276.21 322.24,-276.53 330.72,-282.89 332.83,-276.21"/>
</g>
<!-- Node15&#45;&gt;Node6 -->
<g id="edge24" class="edge">
<title>Node15&#45;&gt;Node6</title>
<path fill="none" stroke="midnightblue" d="M463.52,-318.9C442.81,-309.49 409.34,-293.54 382,-277 361.84,-264.8 358.24,-259.59 339,-246 324.39,-235.68 307.8,-224.2 295.04,-215.42"/>
<polygon fill="midnightblue" stroke="midnightblue" points="296.73,-212.33 286.51,-209.56 292.77,-218.1 296.73,-212.33"/>
</g>
<!-- Node15&#45;&gt;Node7 -->
<g id="edge38" class="edge">
<title>Node15&#45;&gt;Node7</title>
<path fill="none" stroke="midnightblue" d="M467.84,-318.89C453.12,-309.94 430.87,-294.75 416,-277 386.21,-241.44 365.55,-190.15 356,-163.17"/>
<polygon fill="midnightblue" stroke="midnightblue" points="359.24,-161.84 352.69,-153.51 352.62,-164.1 359.24,-161.84"/>
</g>
<!-- Node16 -->
<g id="node16" class="node">
<title>Node16</title>
<g id="a_node16"><a xlink:href="exif-data-type_8h.html" target="_top" xlink:title=" ">
<polygon fill="white" stroke="black" points="470,-134.5 470,-153.5 598,-153.5 598,-134.5 470,-134.5"/>
<text text-anchor="middle" x="534" y="-141.5" font-family="Helvetica,sans-Serif" font-size="10.00">libexif/exif&#45;data&#45;type.h</text>
</a>
</g>
</g>
<!-- Node15&#45;&gt;Node16 -->
<g id="edge22" class="edge">
<title>Node15&#45;&gt;Node16</title>
<path fill="none" stroke="midnightblue" d="M502.9,-318.99C519.16,-310.84 541.02,-296.84 551,-277 569.79,-239.64 553.52,-189.14 542.37,-162.74"/>
<polygon fill="midnightblue" stroke="midnightblue" points="545.56,-161.3 538.29,-153.59 539.16,-164.15 545.56,-161.3"/>
</g>
<!-- Node17 -->
<g id="node17" class="node">
<title>Node17</title>
<g id="a_node17"><a xlink:href="exif-ifd_8h.html" target="_top" xlink:title=" ">
<polygon fill="white" stroke="black" points="616.5,-134.5 616.5,-153.5 709.5,-153.5 709.5,-134.5 616.5,-134.5"/>
<text text-anchor="middle" x="663" y="-141.5" font-family="Helvetica,sans-Serif" font-size="10.00">libexif/exif&#45;ifd.h</text>
</a>
</g>
</g>
<!-- Node15&#45;&gt;Node17 -->
<g id="edge23" class="edge">
<title>Node15&#45;&gt;Node17</title>
<path fill="none" stroke="midnightblue" d="M521.47,-318.89C570.66,-305.43 652.85,-274.04 681,-210 687.82,-194.47 681.16,-175.71 674.09,-162.34"/>
<polygon fill="midnightblue" stroke="midnightblue" points="677.11,-160.57 669.06,-153.68 671.06,-164.09 677.11,-160.57"/>
</g>
<!-- Node18 -->
<g id="node18" class="node">
<title>Node18</title>
<g id="a_node18"><a xlink:href="exif-tag_8h.html" target="_top" xlink:title="Handling EXIF tags.">
<polygon fill="white" stroke="black" points="576,-190.5 576,-209.5 672,-209.5 672,-190.5 576,-190.5"/>
<text text-anchor="middle" x="624" y="-197.5" font-family="Helvetica,sans-Serif" font-size="10.00">libexif/exif&#45;tag.h</text>
</a>
</g>
</g>
<!-- Node15&#45;&gt;Node18 -->
<g id="edge25" class="edge">
<title>Node15&#45;&gt;Node18</title>
<path fill="none" stroke="midnightblue" d="M510.69,-318.96C532.75,-311.01 563.27,-297.3 584,-277 600.6,-260.74 611.82,-236.11 618.05,-219.33"/>
<polygon fill="midnightblue" stroke="midnightblue" points="621.45,-220.19 621.43,-209.6 614.84,-217.89 621.45,-220.19"/>
</g>
<!-- Node19 -->
<g id="node19" class="node">
<title>Node19</title>
<g id="a_node19"><a xlink:href="exif-content_8h.html" target="_top" xlink:title="Handling EXIF IFDs.">
<polygon fill="white" stroke="black" points="424.5,-252 424.5,-271 541.5,-271 541.5,-252 424.5,-252"/>
<text text-anchor="middle" x="483" y="-259" font-family="Helvetica,sans-Serif" font-size="10.00">libexif/exif&#45;content.h</text>
</a>
</g>
</g>
<!-- Node15&#45;&gt;Node19 -->
<g id="edge28" class="edge">
<title>Node15&#45;&gt;Node19</title>
<path fill="none" stroke="midnightblue" d="M478.21,-318.73C476.2,-309.18 475.74,-293.62 476.82,-281.28"/>
<polygon fill="midnightblue" stroke="midnightblue" points="480.32,-281.52 478.24,-271.13 473.38,-280.54 480.32,-281.52"/>
</g>
<!-- Node18&#45;&gt;Node16 -->
<g id="edge27" class="edge">
<title>Node18&#45;&gt;Node16</title>
<path fill="none" stroke="midnightblue" d="M609.54,-190.32C595.5,-181.9 573.95,-168.97 557.46,-159.07"/>
<polygon fill="midnightblue" stroke="midnightblue" points="558.8,-155.8 548.42,-153.65 555.2,-161.8 558.8,-155.8"/>
</g>
<!-- Node18&#45;&gt;Node17 -->
<g id="edge26" class="edge">
<title>Node18&#45;&gt;Node17</title>
<path fill="none" stroke="midnightblue" d="M630.44,-190.08C635.95,-182.46 644.03,-171.26 650.76,-161.94"/>
<polygon fill="midnightblue" stroke="midnightblue" points="653.66,-163.91 656.68,-153.75 647.99,-159.81 653.66,-163.91"/>
</g>
<!-- Node19&#45;&gt;Node6 -->
<g id="edge35" class="edge">
<title>Node19&#45;&gt;Node6</title>
<path fill="none" stroke="midnightblue" d="M453.06,-251.98C416.43,-241.55 354.3,-223.86 313.72,-212.31"/>
<polygon fill="midnightblue" stroke="midnightblue" points="314.47,-208.88 303.89,-209.51 312.55,-215.61 314.47,-208.88"/>
</g>
<!-- Node19&#45;&gt;Node7 -->
<g id="edge36" class="edge">
<title>Node19&#45;&gt;Node7</title>
<path fill="none" stroke="midnightblue" d="M467.6,-251.91C451.62,-242.63 426.32,-226.9 407,-210 390.13,-195.25 373.55,-175.59 362.66,-161.77"/>
<polygon fill="midnightblue" stroke="midnightblue" points="365.26,-159.42 356.38,-153.65 359.73,-163.7 365.26,-159.42"/>
</g>
<!-- Node19&#45;&gt;Node15 -->
<g id="edge34" class="edge">
<title>Node19&#45;&gt;Node15</title>
<path fill="none" stroke="midnightblue" d="M487.76,-271.13C489.78,-280.62 490.26,-296.17 489.2,-308.54"/>
<polygon fill="midnightblue" stroke="midnightblue" points="485.69,-308.35 487.79,-318.73 492.63,-309.31 485.69,-308.35"/>
</g>
<!-- Node19&#45;&gt;Node18 -->
<g id="edge29" class="edge">
<title>Node19&#45;&gt;Node18</title>
<path fill="none" stroke="midnightblue" d="M503.2,-251.98C527.07,-241.9 567,-225.05 594.37,-213.5"/>
<polygon fill="midnightblue" stroke="midnightblue" points="595.98,-216.62 603.84,-209.51 593.26,-210.17 595.98,-216.62"/>
</g>
<!-- Node20 -->
<g id="node20" class="node">
<title>Node20</title>
<g id="a_node20"><a xlink:href="exif-entry_8h.html" target="_top" xlink:title="Handling EXIF entries.">
<polygon fill="white" stroke="black" points="416,-190.5 416,-209.5 520,-209.5 520,-190.5 416,-190.5"/>
<text text-anchor="middle" x="468" y="-197.5" font-family="Helvetica,sans-Serif" font-size="10.00">libexif/exif&#45;entry.h</text>
</a>
</g>
</g>
<!-- Node19&#45;&gt;Node20 -->
<g id="edge30" class="edge">
<title>Node19&#45;&gt;Node20</title>
<path fill="none" stroke="midnightblue" d="M475.95,-251.98C472,-243.58 468.23,-230.48 466.39,-219.66"/>
<polygon fill="midnightblue" stroke="midnightblue" points="469.84,-219.06 465.25,-209.51 462.89,-219.84 469.84,-219.06"/>
</g>
<!-- Node20&#45;&gt;Node7 -->
<g id="edge33" class="edge">
<title>Node20&#45;&gt;Node7</title>
<path fill="none" stroke="midnightblue" d="M449.3,-190.44C430.06,-181.64 399.85,-167.81 377.8,-157.72"/>
<polygon fill="midnightblue" stroke="midnightblue" points="379.16,-154.5 368.61,-153.52 376.25,-160.86 379.16,-154.5"/>
</g>
<!-- Node20&#45;&gt;Node9 -->
<g id="edge32" class="edge">
<title>Node20&#45;&gt;Node9</title>
<path fill="none" stroke="midnightblue" d="M466.61,-190.38C465.17,-181.33 462.86,-166.67 461,-154 454.78,-111.63 448.04,-61.83 444.5,-35.33"/>
<polygon fill="midnightblue" stroke="midnightblue" points="447.94,-34.64 443.15,-25.19 441,-35.57 447.94,-34.64"/>
</g>
<!-- Node20&#45;&gt;Node19 -->
<g id="edge31" class="edge">
<title>Node20&#45;&gt;Node19</title>
<path fill="none" stroke="midnightblue" d="M475.04,-209.51C478.99,-217.9 482.77,-231 484.61,-241.82"/>
<polygon fill="midnightblue" stroke="midnightblue" points="481.15,-242.43 485.75,-251.98 488.11,-241.65 481.15,-242.43"/>
</g>
</g>
</svg>
