<?xml version="1.0" encoding="UTF-8" standalone="no"?>
<!DOCTYPE svg PUBLIC "-//W3C//DTD SVG 1.1//EN"
 "http://www.w3.org/Graphics/SVG/1.1/DTD/svg11.dtd">
<!-- Generated by graphviz version 7.0.1 (0)
 -->
<!-- Title: exif_get_short_convert Pages: 1 -->
<svg width="386pt" height="122pt"
 viewBox="0.00 0.00 386.00 122.00" xmlns="http://www.w3.org/2000/svg" xmlns:xlink="http://www.w3.org/1999/xlink">
<g id="graph0" class="graph" transform="scale(1 1) rotate(0) translate(4 118)">
<title>exif_get_short_convert</title>
<!-- Node1 -->
<g id="Node000001" class="node">
<title>Node1</title>
<g id="a_Node000001"><a xlink:title="Get a value and convert it to an ExifShort.">
<polygon fill="#999999" stroke="#666666" points="128,-57 0,-57 0,-38 128,-38 128,-57"/>
<text text-anchor="middle" x="64" y="-45" font-family="Helvetica,sans-Serif" font-size="10.00">exif_get_short_convert</text>
</a>
</g>
</g>
<!-- Node2 -->
<g id="Node000002" class="node">
<title>Node2</title>
<g id="a_Node000002"><a xlink:href="exif-utils_8c.html#a4ad94614630897766dd0a5c9bc2a59bf" target="_top" xlink:title="Retrieve an ExifLong value from memory.">
<polygon fill="white" stroke="#666666" points="248.5,-114 165.5,-114 165.5,-95 248.5,-95 248.5,-114"/>
<text text-anchor="middle" x="207" y="-102" font-family="Helvetica,sans-Serif" font-size="10.00">exif_get_long</text>
</a>
</g>
</g>
<!-- Node1&#45;&gt;Node2 -->
<g id="edge1_Node000001_Node000002" class="edge">
<title>Node1&#45;&gt;Node2</title>
<g id="a_edge1_Node000001_Node000002"><a xlink:title=" ">
<path fill="none" stroke="#63b8ff" d="M89.56,-57.43C112.1,-66.54 145.75,-80.14 171.08,-90.38"/>
<polygon fill="#63b8ff" stroke="#63b8ff" points="169.74,-93.61 180.32,-94.12 172.36,-87.13 169.74,-93.61"/>
</a>
</g>
</g>
<!-- Node3 -->
<g id="Node000003" class="node">
<title>Node3</title>
<g id="a_Node000003"><a xlink:href="exif-utils_8c.html#a56b96f076a13da6ed926e1ef29cb2dc3" target="_top" xlink:title="Retrieve an ExifSLong value from memory.">
<polygon fill="white" stroke="#666666" points="376,-95 288,-95 288,-76 376,-76 376,-95"/>
<text text-anchor="middle" x="332" y="-83" font-family="Helvetica,sans-Serif" font-size="10.00">exif_get_slong</text>
</a>
</g>
</g>
<!-- Node1&#45;&gt;Node3 -->
<g id="edge5_Node000001_Node000003" class="edge">
<title>Node1&#45;&gt;Node3</title>
<g id="a_edge5_Node000001_Node000003"><a xlink:title=" ">
<path fill="none" stroke="#63b8ff" d="M128.38,-56.55C173.42,-62.99 233.3,-71.54 276.27,-77.68"/>
<polygon fill="#63b8ff" stroke="#63b8ff" points="275.74,-81.14 286.14,-79.09 276.73,-74.21 275.74,-81.14"/>
</a>
</g>
</g>
<!-- Node4 -->
<g id="Node000004" class="node">
<title>Node4</title>
<g id="a_Node000004"><a xlink:href="exif-utils_8c.html#a4b4acf537a8c6b9405e7b53be868e4d7" target="_top" xlink:title="Retrieve an ExifShort value from memory.">
<polygon fill="white" stroke="#666666" points="250,-38 164,-38 164,-19 250,-19 250,-38"/>
<text text-anchor="middle" x="207" y="-26" font-family="Helvetica,sans-Serif" font-size="10.00">exif_get_short</text>
</a>
</g>
</g>
<!-- Node1&#45;&gt;Node4 -->
<g id="edge3_Node000001_Node000004" class="edge">
<title>Node1&#45;&gt;Node4</title>
<g id="a_edge3_Node000001_Node000004"><a xlink:title=" ">
<path fill="none" stroke="#63b8ff" d="M128.49,-38.94C136.54,-37.86 144.72,-36.76 152.59,-35.7"/>
<polygon fill="#63b8ff" stroke="#63b8ff" points="152.92,-39.18 162.37,-34.38 151.99,-32.25 152.92,-39.18"/>
</a>
</g>
</g>
<!-- Node5 -->
<g id="Node000005" class="node">
<title>Node5</title>
<g id="a_Node000005"><a xlink:href="exif-utils_8c.html#a6baf094a71392f9cea23ad633ec13c8b" target="_top" xlink:title="Retrieve an ExifSShort value from memory.">
<polygon fill="white" stroke="#666666" points="378,-19 286,-19 286,0 378,0 378,-19"/>
<text text-anchor="middle" x="332" y="-7" font-family="Helvetica,sans-Serif" font-size="10.00">exif_get_sshort</text>
</a>
</g>
</g>
<!-- Node1&#45;&gt;Node5 -->
<g id="edge6_Node000001_Node000005" class="edge">
<title>Node1&#45;&gt;Node5</title>
<g id="a_edge6_Node000001_Node000005"><a xlink:title=" ">
<path fill="none" stroke="#63b8ff" d="M84.47,-37.56C104,-28.2 135.22,-14.83 164,-9.5 200.34,-2.77 241.89,-2.74 274.46,-4.41"/>
<polygon fill="#63b8ff" stroke="#63b8ff" points="273.88,-7.88 284.07,-4.97 274.29,-0.89 273.88,-7.88"/>
</a>
</g>
</g>
<!-- Node2&#45;&gt;Node3 -->
<g id="edge2_Node000002_Node000003" class="edge">
<title>Node2&#45;&gt;Node3</title>
<g id="a_edge2_Node000002_Node000003"><a xlink:title=" ">
<path fill="none" stroke="#63b8ff" d="M248.96,-98.17C257.8,-96.81 267.28,-95.34 276.55,-93.91"/>
<polygon fill="#63b8ff" stroke="#63b8ff" points="276.85,-97.41 286.2,-92.42 275.78,-90.49 276.85,-97.41"/>
</a>
</g>
</g>
<!-- Node4&#45;&gt;Node5 -->
<g id="edge4_Node000004_Node000005" class="edge">
<title>Node4&#45;&gt;Node5</title>
<g id="a_edge4_Node000004_Node000005"><a xlink:title=" ">
<path fill="none" stroke="#63b8ff" d="M250.33,-21.96C258.08,-20.76 266.27,-19.5 274.36,-18.25"/>
<polygon fill="#63b8ff" stroke="#63b8ff" points="274.81,-21.72 284.16,-16.74 273.74,-14.8 274.81,-21.72"/>
</a>
</g>
</g>
</g>
</svg>
