<?xml version="1.0" encoding="UTF-8" standalone="no"?>
<!DOCTYPE svg PUBLIC "-//W3C//DTD SVG 1.1//EN"
 "http://www.w3.org/Graphics/SVG/1.1/DTD/svg11.dtd">
<!-- Generated by graphviz version 7.0.1 (0)
 -->
<!-- Title: fix_func Pages: 1 -->
<svg width="665pt" height="581pt"
 viewBox="0.00 0.00 665.00 581.00" xmlns="http://www.w3.org/2000/svg" xmlns:xlink="http://www.w3.org/1999/xlink">
<g id="graph0" class="graph" transform="scale(1 1) rotate(0) translate(4 577)">
<title>fix_func</title>
<!-- Node1 -->
<g id="Node000001" class="node">
<title>Node1</title>
<g id="a_Node000001"><a xlink:title=" ">
<polygon fill="#999999" stroke="#666666" points="56,-300 0,-300 0,-281 56,-281 56,-300"/>
<text text-anchor="middle" x="28" y="-288" font-family="Helvetica,sans-Serif" font-size="10.00">fix_func</text>
</a>
</g>
</g>
<!-- Node2 -->
<g id="Node000002" class="node">
<title>Node2</title>
<g id="a_Node000002"><a xlink:href="exif-entry_8c.html#aa19ef4321004b1ce44187c12ff4f78c6" target="_top" xlink:title="Fix the type or format of the given EXIF entry to bring it into spec.">
<polygon fill="white" stroke="#666666" points="176,-300 92,-300 92,-281 176,-281 176,-300"/>
<text text-anchor="middle" x="134" y="-288" font-family="Helvetica,sans-Serif" font-size="10.00">exif_entry_fix</text>
</a>
</g>
</g>
<!-- Node1&#45;&gt;Node2 -->
<g id="edge1_Node000001_Node000002" class="edge">
<title>Node1&#45;&gt;Node2</title>
<g id="a_edge1_Node000001_Node000002"><a xlink:title=" ">
<path fill="none" stroke="#63b8ff" d="M56.32,-290.5C63.77,-290.5 72.1,-290.5 80.44,-290.5"/>
<polygon fill="#63b8ff" stroke="#63b8ff" points="80.24,-294 90.24,-290.5 80.24,-287 80.24,-294"/>
</a>
</g>
</g>
<!-- Node3 -->
<g id="Node000003" class="node">
<title>Node3</title>
<g id="a_Node000003"><a xlink:href="exif-entry_8c.html#a01d57aa3b858af0ffbbef108ed332939" target="_top" xlink:title=" ">
<polygon fill="white" stroke="#666666" points="319,-573 248,-573 248,-554 319,-554 319,-573"/>
<text text-anchor="middle" x="283.5" y="-561" font-family="Helvetica,sans-Serif" font-size="10.00">clear_entry</text>
</a>
</g>
</g>
<!-- Node2&#45;&gt;Node3 -->
<g id="edge2_Node000002_Node000003" class="edge">
<title>Node2&#45;&gt;Node3</title>
<g id="a_edge2_Node000002_Node000003"><a xlink:title=" ">
<path fill="none" stroke="#63b8ff" d="M134.82,-300.48C134.7,-338.31 139.54,-474.26 212,-544.5 218.79,-551.09 227.62,-555.45 236.72,-558.32"/>
<polygon fill="#63b8ff" stroke="#63b8ff" points="235.81,-561.7 246.36,-560.76 237.53,-554.91 235.81,-561.7"/>
</a>
</g>
</g>
<!-- Node4 -->
<g id="Node000004" class="node">
<title>Node4</title>
<g id="a_Node000004"><a xlink:href="exif-data_8c.html#a2d8d50e6a9c19d28fe8192ef7cc52777" target="_top" xlink:title="Return the byte order in use by this EXIF structure.">
<polygon fill="white" stroke="#666666" points="338.5,-535.5 228.5,-535.5 228.5,-505.5 338.5,-505.5 338.5,-535.5"/>
<text text-anchor="start" x="236.5" y="-523.5" font-family="Helvetica,sans-Serif" font-size="10.00">exif_data_get_byte</text>
<text text-anchor="middle" x="283.5" y="-512.5" font-family="Helvetica,sans-Serif" font-size="10.00">_order</text>
</a>
</g>
</g>
<!-- Node2&#45;&gt;Node4 -->
<g id="edge3_Node000002_Node000004" class="edge">
<title>Node2&#45;&gt;Node4</title>
<g id="a_edge3_Node000002_Node000004"><a xlink:title=" ">
<path fill="none" stroke="#63b8ff" d="M135.76,-300.26C138.82,-332.88 153.1,-439.32 212,-496.5 214.03,-498.47 216.23,-500.28 218.55,-501.94"/>
<polygon fill="#63b8ff" stroke="#63b8ff" points="216.36,-504.71 226.73,-506.86 219.96,-498.71 216.36,-504.71"/>
</a>
</g>
</g>
<!-- Node5 -->
<g id="Node000005" class="node">
<title>Node5</title>
<g id="a_Node000005"><a xlink:href="exif-entry_8c.html#acba1916cfb1741aa17f022d2e5b8bccc" target="_top" xlink:title=" ">
<polygon fill="white" stroke="#666666" points="331,-450 236,-450 236,-431 331,-431 331,-450"/>
<text text-anchor="middle" x="283.5" y="-438" font-family="Helvetica,sans-Serif" font-size="10.00">exif_entry_alloc</text>
</a>
</g>
</g>
<!-- Node2&#45;&gt;Node5 -->
<g id="edge4_Node000002_Node000005" class="edge">
<title>Node2&#45;&gt;Node5</title>
<g id="a_edge4_Node000002_Node000005"><a xlink:title=" ">
<path fill="none" stroke="#63b8ff" d="M137.78,-300.23C145.32,-324.8 168.58,-389.74 212,-422.5 216.02,-425.53 220.5,-428.06 225.2,-430.16"/>
<polygon fill="#63b8ff" stroke="#63b8ff" points="223.73,-433.35 234.33,-433.59 226.19,-426.8 223.73,-433.35"/>
</a>
</g>
</g>
<!-- Node8 -->
<g id="Node000008" class="node">
<title>Node8</title>
<g id="a_Node000008"><a xlink:href="exif-entry_8c.html#ac416e8326bd687f5da299d1b15a731bf" target="_top" xlink:title=" ">
<polygon fill="white" stroke="#666666" points="326.5,-487 240.5,-487 240.5,-468 326.5,-468 326.5,-487"/>
<text text-anchor="middle" x="283.5" y="-475" font-family="Helvetica,sans-Serif" font-size="10.00">exif_entry_log</text>
</a>
</g>
</g>
<!-- Node2&#45;&gt;Node8 -->
<g id="edge7_Node000002_Node000008" class="edge">
<title>Node2&#45;&gt;Node8</title>
<g id="a_edge7_Node000002_Node000008"><a xlink:title=" ">
<path fill="none" stroke="#63b8ff" d="M136.46,-300.28C141.35,-329.35 159.82,-415.85 212,-459.5 217.09,-463.76 223.06,-467.03 229.33,-469.53"/>
<polygon fill="#63b8ff" stroke="#63b8ff" points="228.05,-472.79 238.64,-472.6 230.24,-466.14 228.05,-472.79"/>
</a>
</g>
</g>
<!-- Node10 -->
<g id="Node000010" class="node">
<title>Node10</title>
<g id="a_Node000010"><a xlink:href="exif-entry_8c.html#a29ecd66c8570aeb5d64fa26d327fcbe0" target="_top" xlink:title=" ">
<polygon fill="white" stroke="#666666" points="335.5,-413 231.5,-413 231.5,-394 335.5,-394 335.5,-413"/>
<text text-anchor="middle" x="283.5" y="-401" font-family="Helvetica,sans-Serif" font-size="10.00">exif_entry_realloc</text>
</a>
</g>
</g>
<!-- Node2&#45;&gt;Node10 -->
<g id="edge10_Node000002_Node000010" class="edge">
<title>Node2&#45;&gt;Node10</title>
<g id="a_edge10_Node000002_Node000010"><a xlink:title=" ">
<path fill="none" stroke="#63b8ff" d="M140.93,-300.3C152.42,-318.48 179.47,-357.58 212,-379.5 217.77,-383.39 224.23,-386.7 230.83,-389.51"/>
<polygon fill="#63b8ff" stroke="#63b8ff" points="229.25,-392.65 239.84,-392.98 231.76,-386.12 229.25,-392.65"/>
</a>
</g>
</g>
<!-- Node11 -->
<g id="Node000011" class="node">
<title>Node11</title>
<g id="a_Node000011"><a xlink:href="exif-mem_8c.html#a43190b81b4b4bdb4ffb89bfb612051b1" target="_top" xlink:title=" ">
<polygon fill="white" stroke="#666666" points="492,-376 401,-376 401,-357 492,-357 492,-376"/>
<text text-anchor="middle" x="446.5" y="-364" font-family="Helvetica,sans-Serif" font-size="10.00">exif_mem_free</text>
</a>
</g>
</g>
<!-- Node2&#45;&gt;Node11 -->
<g id="edge27_Node000002_Node000011" class="edge">
<title>Node2&#45;&gt;Node11</title>
<g id="a_edge27_Node000002_Node000011"><a xlink:title=" ">
<path fill="none" stroke="#63b8ff" d="M144.41,-300.06C157.98,-313.16 184.43,-336.21 212,-346.5 269.88,-368.09 341.23,-371.11 389.72,-369.99"/>
<polygon fill="#63b8ff" stroke="#63b8ff" points="389.53,-373.5 399.41,-369.69 389.31,-366.5 389.53,-373.5"/>
</a>
</g>
</g>
<!-- Node13 -->
<g id="Node000013" class="node">
<title>Node13</title>
<g id="a_Node000013"><a xlink:href="exif-format_8c.html#a513bc6b9980641d7e6ff1fe74810b3e0" target="_top" xlink:title="Return a textual representation of the given EXIF data type.">
<polygon fill="white" stroke="#666666" points="347.5,-337 219.5,-337 219.5,-318 347.5,-318 347.5,-337"/>
<text text-anchor="middle" x="283.5" y="-325" font-family="Helvetica,sans-Serif" font-size="10.00">exif_format_get_name</text>
</a>
</g>
</g>
<!-- Node2&#45;&gt;Node13 -->
<g id="edge14_Node000002_Node000013" class="edge">
<title>Node2&#45;&gt;Node13</title>
<g id="a_edge14_Node000002_Node000013"><a xlink:title=" ">
<path fill="none" stroke="#63b8ff" d="M174.53,-300.42C192.14,-304.83 213.09,-310.09 231.83,-314.79"/>
<polygon fill="#63b8ff" stroke="#63b8ff" points="230.84,-318.15 241.4,-317.19 232.55,-311.36 230.84,-318.15"/>
</a>
</g>
</g>
<!-- Node14 -->
<g id="Node000014" class="node">
<title>Node14</title>
<g id="a_Node000014"><a xlink:href="exif-format_8c.html#a924038efe0cd8ebade8f44619dd794f3" target="_top" xlink:title="Return the raw size of the given EXIF data type.">
<polygon fill="white" stroke="#666666" points="343,-300 224,-300 224,-281 343,-281 343,-300"/>
<text text-anchor="middle" x="283.5" y="-288" font-family="Helvetica,sans-Serif" font-size="10.00">exif_format_get_size</text>
</a>
</g>
</g>
<!-- Node2&#45;&gt;Node14 -->
<g id="edge15_Node000002_Node000014" class="edge">
<title>Node2&#45;&gt;Node14</title>
<g id="a_edge15_Node000002_Node000014"><a xlink:title=" ">
<path fill="none" stroke="#63b8ff" d="M176.48,-290.5C187.7,-290.5 200.16,-290.5 212.49,-290.5"/>
<polygon fill="#63b8ff" stroke="#63b8ff" points="212.21,-294 222.21,-290.5 212.21,-287 212.21,-294"/>
</a>
</g>
</g>
<!-- Node15 -->
<g id="Node000015" class="node">
<title>Node15</title>
<g id="a_Node000015"><a xlink:href="exif-utils_8c.html#a1feb547c289aa57a4d2119338b03706c" target="_top" xlink:title="Retrieve an ExifRational value from memory.">
<polygon fill="white" stroke="#666666" points="333,-226 234,-226 234,-207 333,-207 333,-226"/>
<text text-anchor="middle" x="283.5" y="-214" font-family="Helvetica,sans-Serif" font-size="10.00">exif_get_rational</text>
</a>
</g>
</g>
<!-- Node2&#45;&gt;Node15 -->
<g id="edge16_Node000002_Node000015" class="edge">
<title>Node2&#45;&gt;Node15</title>
<g id="a_edge16_Node000002_Node000015"><a xlink:title=" ">
<path fill="none" stroke="#63b8ff" d="M146.18,-280.52C160.48,-268.26 186.46,-247.58 212,-235.5 216.25,-233.49 220.76,-231.66 225.35,-230"/>
<polygon fill="#63b8ff" stroke="#63b8ff" points="226.3,-233.38 234.7,-226.93 224.11,-226.73 226.3,-233.38"/>
</a>
</g>
</g>
<!-- Node18 -->
<g id="Node000018" class="node">
<title>Node18</title>
<g id="a_Node000018"><a xlink:href="exif-entry_8c.html#afed3fb2fdd564d50c88f237cc6353ef8" target="_top" xlink:title="Get a value and convert it to an ExifShort.">
<polygon fill="white" stroke="#666666" points="347.5,-263 219.5,-263 219.5,-244 347.5,-244 347.5,-263"/>
<text text-anchor="middle" x="283.5" y="-251" font-family="Helvetica,sans-Serif" font-size="10.00">exif_get_short_convert</text>
</a>
</g>
</g>
<!-- Node2&#45;&gt;Node18 -->
<g id="edge19_Node000002_Node000018" class="edge">
<title>Node2&#45;&gt;Node18</title>
<g id="a_edge19_Node000002_Node000018"><a xlink:title=" ">
<path fill="none" stroke="#63b8ff" d="M174.53,-280.58C192.14,-276.17 213.09,-270.91 231.83,-266.21"/>
<polygon fill="#63b8ff" stroke="#63b8ff" points="232.55,-269.64 241.4,-263.81 230.84,-262.85 232.55,-269.64"/>
</a>
</g>
</g>
<!-- Node21 -->
<g id="Node000021" class="node">
<title>Node21</title>
<g id="a_Node000021"><a xlink:href="exif-utils_8c.html#adb97c3499488d5642a82df1cb16dc2cb" target="_top" xlink:title="Retrieve an ExifSRational value from memory.">
<polygon fill="white" stroke="#666666" points="498.5,-187 394.5,-187 394.5,-168 498.5,-168 498.5,-187"/>
<text text-anchor="middle" x="446.5" y="-175" font-family="Helvetica,sans-Serif" font-size="10.00">exif_get_srational</text>
</a>
</g>
</g>
<!-- Node2&#45;&gt;Node21 -->
<g id="edge25_Node000002_Node000021" class="edge">
<title>Node2&#45;&gt;Node21</title>
<g id="a_edge25_Node000002_Node000021"><a xlink:title=" ">
<path fill="none" stroke="#63b8ff" d="M139.9,-280.52C150.17,-260.85 176.01,-217.32 212,-198.5 264.76,-170.91 333.46,-167.99 382.66,-170.56"/>
<polygon fill="#63b8ff" stroke="#63b8ff" points="382.39,-174.05 392.59,-171.18 382.82,-167.07 382.39,-174.05"/>
</a>
</g>
</g>
<!-- Node22 -->
<g id="Node000022" class="node">
<title>Node22</title>
<g id="a_Node000022"><a xlink:href="exif-utils_8c.html#a400a16b1754150f721e9fca67ad89a52" target="_top" xlink:title="Store an ExifRational value into memory in EXIF format.">
<polygon fill="white" stroke="#666666" points="332.5,-150 234.5,-150 234.5,-131 332.5,-131 332.5,-150"/>
<text text-anchor="middle" x="283.5" y="-138" font-family="Helvetica,sans-Serif" font-size="10.00">exif_set_rational</text>
</a>
</g>
</g>
<!-- Node2&#45;&gt;Node22 -->
<g id="edge28_Node000002_Node000022" class="edge">
<title>Node2&#45;&gt;Node22</title>
<g id="a_edge28_Node000002_Node000022"><a xlink:title=" ">
<path fill="none" stroke="#63b8ff" d="M138.31,-280.72C146.76,-257.2 171.38,-197.03 212,-164.5 216.73,-160.71 222.09,-157.51 227.7,-154.8"/>
<polygon fill="#63b8ff" stroke="#63b8ff" points="228.73,-158.16 236.57,-151.03 225.99,-151.72 228.73,-158.16"/>
</a>
</g>
</g>
<!-- Node25 -->
<g id="Node000025" class="node">
<title>Node25</title>
<g id="a_Node000025"><a xlink:href="exif-utils_8c.html#ad905d16e26b4052a1db34dbebdc37341" target="_top" xlink:title="Store an ExifShort value into memory in EXIF format.">
<polygon fill="white" stroke="#666666" points="326.5,-74 240.5,-74 240.5,-55 326.5,-55 326.5,-74"/>
<text text-anchor="middle" x="283.5" y="-62" font-family="Helvetica,sans-Serif" font-size="10.00">exif_set_short</text>
</a>
</g>
</g>
<!-- Node2&#45;&gt;Node25 -->
<g id="edge31_Node000002_Node000025" class="edge">
<title>Node2&#45;&gt;Node25</title>
<g id="a_edge31_Node000002_Node000025"><a xlink:title=" ">
<path fill="none" stroke="#63b8ff" d="M135.82,-280.93C139.09,-248.92 153.92,-144.52 212,-88.5 217.07,-83.61 223.17,-79.72 229.64,-76.61"/>
<polygon fill="#63b8ff" stroke="#63b8ff" points="230.68,-79.97 238.61,-72.93 228.03,-73.49 230.68,-79.97"/>
</a>
</g>
</g>
<!-- Node27 -->
<g id="Node000027" class="node">
<title>Node27</title>
<g id="a_Node000027"><a xlink:href="exif-utils_8c.html#aca1790a72b1833dff1b0bf728052c3c5" target="_top" xlink:title="Store an ExifSRational value into memory in EXIF format.">
<polygon fill="white" stroke="#666666" points="498.5,-112 394.5,-112 394.5,-93 498.5,-93 498.5,-112"/>
<text text-anchor="middle" x="446.5" y="-100" font-family="Helvetica,sans-Serif" font-size="10.00">exif_set_srational</text>
</a>
</g>
</g>
<!-- Node2&#45;&gt;Node27 -->
<g id="edge33_Node000002_Node000027" class="edge">
<title>Node2&#45;&gt;Node27</title>
<g id="a_edge33_Node000002_Node000027"><a xlink:title=" ">
<path fill="none" stroke="#63b8ff" d="M136.11,-280.79C140.07,-251.17 156.38,-161.65 212,-122.5 261.49,-87.67 332.31,-86.56 382.95,-91.75"/>
<polygon fill="#63b8ff" stroke="#63b8ff" points="382.24,-95.19 392.57,-92.85 383.04,-88.24 382.24,-95.19"/>
</a>
</g>
</g>
<!-- Node28 -->
<g id="Node000028" class="node">
<title>Node28</title>
<g id="a_Node000028"><a xlink:href="exif-tag_8c.html#a6b4f26f6f8f243e1f8a9e123b9cca589" target="_top" xlink:title="Return a textual name of the given tag when found in the given IFD.">
<polygon fill="white" stroke="#666666" points="355,-37 212,-37 212,-18 355,-18 355,-37"/>
<text text-anchor="middle" x="283.5" y="-25" font-family="Helvetica,sans-Serif" font-size="10.00">exif_tag_get_name_in_ifd</text>
</a>
</g>
</g>
<!-- Node2&#45;&gt;Node28 -->
<g id="edge35_Node000002_Node000028" class="edge">
<title>Node2&#45;&gt;Node28</title>
<g id="a_edge35_Node000002_Node000028"><a xlink:title=" ">
<path fill="none" stroke="#63b8ff" d="M134.92,-280.58C135.18,-243.6 141.26,-112.48 212,-45.5 212.64,-44.9 213.29,-44.31 213.96,-43.75"/>
<polygon fill="#63b8ff" stroke="#63b8ff" points="215.81,-46.73 222.18,-38.26 211.92,-40.9 215.81,-46.73"/>
</a>
</g>
</g>
<!-- Node6 -->
<g id="Node000006" class="node">
<title>Node6</title>
<g id="a_Node000006"><a xlink:href="exif-data_8c.html#a9403ed4fde8ef603e9db173eb122efaf" target="_top" xlink:title=" ">
<polygon fill="white" stroke="#666666" points="498.5,-487 394.5,-487 394.5,-468 498.5,-468 498.5,-487"/>
<text text-anchor="middle" x="446.5" y="-475" font-family="Helvetica,sans-Serif" font-size="10.00">exif_data_get_log</text>
</a>
</g>
</g>
<!-- Node5&#45;&gt;Node6 -->
<g id="edge5_Node000005_Node000006" class="edge">
<title>Node5&#45;&gt;Node6</title>
<g id="a_edge5_Node000005_Node000006"><a xlink:title=" ">
<path fill="none" stroke="#63b8ff" d="M327.65,-450.42C347.14,-454.89 370.38,-460.24 391.05,-464.99"/>
<polygon fill="#63b8ff" stroke="#63b8ff" points="390.23,-468.39 400.76,-467.22 391.8,-461.57 390.23,-468.39"/>
</a>
</g>
</g>
<!-- Node7 -->
<g id="Node000007" class="node">
<title>Node7</title>
<g id="a_Node000007"><a xlink:href="exif-mem_8c.html#a68be7c7afc8cff75adc3b1a28b5ae9a2" target="_top" xlink:title=" ">
<polygon fill="white" stroke="#666666" points="494,-450 399,-450 399,-431 494,-431 494,-450"/>
<text text-anchor="middle" x="446.5" y="-438" font-family="Helvetica,sans-Serif" font-size="10.00">exif_mem_alloc</text>
</a>
</g>
</g>
<!-- Node5&#45;&gt;Node7 -->
<g id="edge6_Node000005_Node000007" class="edge">
<title>Node5&#45;&gt;Node7</title>
<g id="a_edge6_Node000005_Node000007"><a xlink:title=" ">
<path fill="none" stroke="#63b8ff" d="M331.07,-440.5C348.68,-440.5 368.94,-440.5 387.48,-440.5"/>
<polygon fill="#63b8ff" stroke="#63b8ff" points="387.24,-444 397.24,-440.5 387.24,-437 387.24,-444"/>
</a>
</g>
</g>
<!-- Node8&#45;&gt;Node6 -->
<g id="edge8_Node000008_Node000006" class="edge">
<title>Node8&#45;&gt;Node6</title>
<g id="a_edge8_Node000008_Node000006"><a xlink:title=" ">
<path fill="none" stroke="#63b8ff" d="M326.8,-477.5C343.85,-477.5 363.88,-477.5 382.58,-477.5"/>
<polygon fill="#63b8ff" stroke="#63b8ff" points="382.5,-481 392.5,-477.5 382.5,-474 382.5,-481"/>
</a>
</g>
</g>
<!-- Node9 -->
<g id="Node000009" class="node">
<title>Node9</title>
<g id="a_Node000009"><a xlink:href="exif-log_8c.html#a99101b5ad01b2d82ce9d43c9e8534627" target="_top" xlink:title=" ">
<polygon fill="white" stroke="#666666" points="477.5,-524 415.5,-524 415.5,-505 477.5,-505 477.5,-524"/>
<text text-anchor="middle" x="446.5" y="-512" font-family="Helvetica,sans-Serif" font-size="10.00">exif_logv</text>
</a>
</g>
</g>
<!-- Node8&#45;&gt;Node9 -->
<g id="edge9_Node000008_Node000009" class="edge">
<title>Node8&#45;&gt;Node9</title>
<g id="a_edge9_Node000008_Node000009"><a xlink:title=" ">
<path fill="none" stroke="#63b8ff" d="M326.8,-487.22C350.66,-492.7 380.35,-499.53 404.06,-504.98"/>
<polygon fill="#63b8ff" stroke="#63b8ff" points="403.17,-508.36 413.7,-507.19 404.74,-501.54 403.17,-508.36"/>
</a>
</g>
</g>
<!-- Node10&#45;&gt;Node6 -->
<g id="edge11_Node000010_Node000006" class="edge">
<title>Node10&#45;&gt;Node6</title>
<g id="a_edge11_Node000010_Node000006"><a xlink:title=" ">
<path fill="none" stroke="#63b8ff" d="M334.78,-413.46C341.82,-415.87 348.77,-418.84 355,-422.5 374.78,-434.12 371.55,-447.33 391,-459.5 392.98,-460.74 395.05,-461.9 397.19,-462.99"/>
<polygon fill="#63b8ff" stroke="#63b8ff" points="395.55,-466.09 406.11,-466.96 398.4,-459.7 395.55,-466.09"/>
</a>
</g>
</g>
<!-- Node10&#45;&gt;Node11 -->
<g id="edge12_Node000010_Node000011" class="edge">
<title>Node10&#45;&gt;Node11</title>
<g id="a_edge12_Node000010_Node000011"><a xlink:title=" ">
<path fill="none" stroke="#63b8ff" d="M327.65,-393.58C347.14,-389.11 370.38,-383.76 391.05,-379.01"/>
<polygon fill="#63b8ff" stroke="#63b8ff" points="391.8,-382.43 400.76,-376.78 390.23,-375.61 391.8,-382.43"/>
</a>
</g>
</g>
<!-- Node12 -->
<g id="Node000012" class="node">
<title>Node12</title>
<g id="a_Node000012"><a xlink:href="exif-mem_8c.html#a7302da5374a74202e03a781b7c4b7ebe" target="_top" xlink:title=" ">
<polygon fill="white" stroke="#666666" points="498.5,-413 394.5,-413 394.5,-394 498.5,-394 498.5,-413"/>
<text text-anchor="middle" x="446.5" y="-401" font-family="Helvetica,sans-Serif" font-size="10.00">exif_mem_realloc</text>
</a>
</g>
</g>
<!-- Node10&#45;&gt;Node12 -->
<g id="edge13_Node000010_Node000012" class="edge">
<title>Node10&#45;&gt;Node12</title>
<g id="a_edge13_Node000010_Node000012"><a xlink:title=" ">
<path fill="none" stroke="#63b8ff" d="M335.88,-403.5C350.84,-403.5 367.35,-403.5 382.92,-403.5"/>
<polygon fill="#63b8ff" stroke="#63b8ff" points="382.54,-407 392.54,-403.5 382.54,-400 382.54,-407"/>
</a>
</g>
</g>
<!-- Node16 -->
<g id="Node000016" class="node">
<title>Node16</title>
<g id="a_Node000016"><a xlink:href="exif-utils_8c.html#a4ad94614630897766dd0a5c9bc2a59bf" target="_top" xlink:title="Retrieve an ExifLong value from memory.">
<polygon fill="white" stroke="#666666" points="488,-224 405,-224 405,-205 488,-205 488,-224"/>
<text text-anchor="middle" x="446.5" y="-212" font-family="Helvetica,sans-Serif" font-size="10.00">exif_get_long</text>
</a>
</g>
</g>
<!-- Node15&#45;&gt;Node16 -->
<g id="edge17_Node000015_Node000016" class="edge">
<title>Node15&#45;&gt;Node16</title>
<g id="a_edge17_Node000015_Node000016"><a xlink:title=" ">
<path fill="none" stroke="#63b8ff" d="M333.24,-215.89C352.19,-215.66 373.92,-215.39 393.19,-215.15"/>
<polygon fill="#63b8ff" stroke="#63b8ff" points="393.05,-218.65 403.01,-215.03 392.96,-211.65 393.05,-218.65"/>
</a>
</g>
</g>
<!-- Node17 -->
<g id="Node000017" class="node">
<title>Node17</title>
<g id="a_Node000017"><a xlink:href="exif-utils_8c.html#a56b96f076a13da6ed926e1ef29cb2dc3" target="_top" xlink:title="Retrieve an ExifSLong value from memory.">
<polygon fill="white" stroke="#666666" points="641.5,-224 553.5,-224 553.5,-205 641.5,-205 641.5,-224"/>
<text text-anchor="middle" x="597.5" y="-212" font-family="Helvetica,sans-Serif" font-size="10.00">exif_get_slong</text>
</a>
</g>
</g>
<!-- Node16&#45;&gt;Node17 -->
<g id="edge18_Node000016_Node000017" class="edge">
<title>Node16&#45;&gt;Node17</title>
<g id="a_edge18_Node000016_Node000017"><a xlink:title=" ">
<path fill="none" stroke="#63b8ff" d="M488.21,-214.5C504.75,-214.5 524.11,-214.5 541.85,-214.5"/>
<polygon fill="#63b8ff" stroke="#63b8ff" points="541.71,-218 551.71,-214.5 541.71,-211 541.71,-218"/>
</a>
</g>
</g>
<!-- Node18&#45;&gt;Node16 -->
<g id="edge20_Node000018_Node000016" class="edge">
<title>Node18&#45;&gt;Node16</title>
<g id="a_edge20_Node000018_Node000016"><a xlink:title=" ">
<path fill="none" stroke="#63b8ff" d="M325.54,-243.56C346.17,-238.56 371.39,-232.45 393.37,-227.13"/>
<polygon fill="#63b8ff" stroke="#63b8ff" points="394.17,-230.54 403.06,-224.78 392.52,-223.73 394.17,-230.54"/>
</a>
</g>
</g>
<!-- Node18&#45;&gt;Node17 -->
<g id="edge23_Node000018_Node000017" class="edge">
<title>Node18&#45;&gt;Node17</title>
<g id="a_edge23_Node000018_Node000017"><a xlink:title=" ">
<path fill="none" stroke="#63b8ff" d="M347.53,-249.49C391.06,-246.28 450.22,-241.06 502,-233.5 515.06,-231.59 529.05,-229.06 542.15,-226.46"/>
<polygon fill="#63b8ff" stroke="#63b8ff" points="542.8,-229.9 551.9,-224.48 541.41,-223.04 542.8,-229.9"/>
</a>
</g>
</g>
<!-- Node19 -->
<g id="Node000019" class="node">
<title>Node19</title>
<g id="a_Node000019"><a xlink:href="exif-utils_8c.html#a4b4acf537a8c6b9405e7b53be868e4d7" target="_top" xlink:title="Retrieve an ExifShort value from memory.">
<polygon fill="white" stroke="#666666" points="489.5,-300 403.5,-300 403.5,-281 489.5,-281 489.5,-300"/>
<text text-anchor="middle" x="446.5" y="-288" font-family="Helvetica,sans-Serif" font-size="10.00">exif_get_short</text>
</a>
</g>
</g>
<!-- Node18&#45;&gt;Node19 -->
<g id="edge21_Node000018_Node000019" class="edge">
<title>Node18&#45;&gt;Node19</title>
<g id="a_edge21_Node000018_Node000019"><a xlink:title=" ">
<path fill="none" stroke="#63b8ff" d="M327.65,-263.42C347.46,-267.97 371.16,-273.42 392.09,-278.23"/>
<polygon fill="#63b8ff" stroke="#63b8ff" points="391.07,-281.58 401.6,-280.41 392.64,-274.76 391.07,-281.58"/>
</a>
</g>
</g>
<!-- Node20 -->
<g id="Node000020" class="node">
<title>Node20</title>
<g id="a_Node000020"><a xlink:href="exif-utils_8c.html#a6baf094a71392f9cea23ad633ec13c8b" target="_top" xlink:title="Retrieve an ExifSShort value from memory.">
<polygon fill="white" stroke="#666666" points="643.5,-319 551.5,-319 551.5,-300 643.5,-300 643.5,-319"/>
<text text-anchor="middle" x="597.5" y="-307" font-family="Helvetica,sans-Serif" font-size="10.00">exif_get_sshort</text>
</a>
</g>
</g>
<!-- Node18&#45;&gt;Node20 -->
<g id="edge24_Node000018_Node000020" class="edge">
<title>Node18&#45;&gt;Node20</title>
<g id="a_edge24_Node000018_Node000020"><a xlink:title=" ">
<path fill="none" stroke="#63b8ff" d="M334.78,-263.46C341.82,-265.87 348.77,-268.84 355,-272.5 374.78,-284.12 369.86,-300.57 391,-309.5 438.27,-329.46 497.28,-326.99 539.93,-321"/>
<polygon fill="#63b8ff" stroke="#63b8ff" points="540.37,-324.47 549.73,-319.5 539.31,-317.55 540.37,-324.47"/>
</a>
</g>
</g>
<!-- Node19&#45;&gt;Node20 -->
<g id="edge22_Node000019_Node000020" class="edge">
<title>Node19&#45;&gt;Node20</title>
<g id="a_edge22_Node000019_Node000020"><a xlink:title=" ">
<path fill="none" stroke="#63b8ff" d="M489.8,-295.89C505.39,-297.88 523.31,-300.17 539.95,-302.29"/>
<polygon fill="#63b8ff" stroke="#63b8ff" points="539.37,-305.74 549.73,-303.54 540.25,-298.8 539.37,-305.74"/>
</a>
</g>
</g>
<!-- Node21&#45;&gt;Node17 -->
<g id="edge26_Node000021_Node000017" class="edge">
<title>Node21&#45;&gt;Node17</title>
<g id="a_edge26_Node000021_Node000017"><a xlink:title=" ">
<path fill="none" stroke="#63b8ff" d="M487.43,-187.42C505.22,-191.83 526.38,-197.09 545.31,-201.79"/>
<polygon fill="#63b8ff" stroke="#63b8ff" points="544.44,-205.18 554.99,-204.19 546.13,-198.39 544.44,-205.18"/>
</a>
</g>
</g>
<!-- Node23 -->
<g id="Node000023" class="node">
<title>Node23</title>
<g id="a_Node000023"><a xlink:href="exif-utils_8c.html#ac90147d0cc97bec7a577bf9576191bf8" target="_top" xlink:title="Store an ExifLong value into memory in EXIF format.">
<polygon fill="white" stroke="#666666" points="487.5,-150 405.5,-150 405.5,-131 487.5,-131 487.5,-150"/>
<text text-anchor="middle" x="446.5" y="-138" font-family="Helvetica,sans-Serif" font-size="10.00">exif_set_long</text>
</a>
</g>
</g>
<!-- Node22&#45;&gt;Node23 -->
<g id="edge29_Node000022_Node000023" class="edge">
<title>Node22&#45;&gt;Node23</title>
<g id="a_edge29_Node000022_Node000023"><a xlink:title=" ">
<path fill="none" stroke="#63b8ff" d="M332.81,-140.5C351.99,-140.5 374.11,-140.5 393.63,-140.5"/>
<polygon fill="#63b8ff" stroke="#63b8ff" points="393.59,-144 403.59,-140.5 393.58,-137 393.59,-144"/>
</a>
</g>
</g>
<!-- Node24 -->
<g id="Node000024" class="node">
<title>Node24</title>
<g id="a_Node000024"><a xlink:href="exif-utils_8c.html#ae6e3b9d1663f9ab9bd462d73a310ca03" target="_top" xlink:title="Store an ExifSLong value into memory in EXIF format.">
<polygon fill="white" stroke="#666666" points="641,-131 554,-131 554,-112 641,-112 641,-131"/>
<text text-anchor="middle" x="597.5" y="-119" font-family="Helvetica,sans-Serif" font-size="10.00">exif_set_slong</text>
</a>
</g>
</g>
<!-- Node23&#45;&gt;Node24 -->
<g id="edge30_Node000023_Node000024" class="edge">
<title>Node23&#45;&gt;Node24</title>
<g id="a_edge30_Node000023_Node000024"><a xlink:title=" ">
<path fill="none" stroke="#63b8ff" d="M487.82,-135.36C504.59,-133.22 524.3,-130.71 542.3,-128.41"/>
<polygon fill="#63b8ff" stroke="#63b8ff" points="542.56,-131.91 552.04,-127.17 541.67,-124.96 542.56,-131.91"/>
</a>
</g>
</g>
<!-- Node26 -->
<g id="Node000026" class="node">
<title>Node26</title>
<g id="a_Node000026"><a xlink:href="exif-utils_8c.html#a6504651147702fc6db9a5cd4aa997023" target="_top" xlink:title="Store an ExifSShort value into memory in EXIF format.">
<polygon fill="white" stroke="#666666" points="492,-74 401,-74 401,-55 492,-55 492,-74"/>
<text text-anchor="middle" x="446.5" y="-62" font-family="Helvetica,sans-Serif" font-size="10.00">exif_set_sshort</text>
</a>
</g>
</g>
<!-- Node25&#45;&gt;Node26 -->
<g id="edge32_Node000025_Node000026" class="edge">
<title>Node25&#45;&gt;Node26</title>
<g id="a_edge32_Node000025_Node000026"><a xlink:title=" ">
<path fill="none" stroke="#63b8ff" d="M326.8,-64.5C345.89,-64.5 368.72,-64.5 389.23,-64.5"/>
<polygon fill="#63b8ff" stroke="#63b8ff" points="389.15,-68 399.15,-64.5 389.15,-61 389.15,-68"/>
</a>
</g>
</g>
<!-- Node27&#45;&gt;Node24 -->
<g id="edge34_Node000027_Node000024" class="edge">
<title>Node27&#45;&gt;Node24</title>
<g id="a_edge34_Node000027_Node000024"><a xlink:title=" ">
<path fill="none" stroke="#63b8ff" d="M498.78,-109.04C512.86,-110.83 528.17,-112.79 542.41,-114.6"/>
<polygon fill="#63b8ff" stroke="#63b8ff" points="541.68,-118.04 552.05,-115.83 542.57,-111.09 541.68,-118.04"/>
</a>
</g>
</g>
<!-- Node29 -->
<g id="Node000029" class="node">
<title>Node29</title>
<g id="a_Node000029"><a xlink:href="exif-tag_8c.html#a389f8ff3411e0525b28367892f1e78d3" target="_top" xlink:title="Finds the first entry in the EXIF tag table with the given tag number using a binary search.">
<polygon fill="white" stroke="#666666" points="502,-37 391,-37 391,-18 502,-18 502,-37"/>
<text text-anchor="middle" x="446.5" y="-25" font-family="Helvetica,sans-Serif" font-size="10.00">exif_tag_table_first</text>
</a>
</g>
</g>
<!-- Node28&#45;&gt;Node29 -->
<g id="edge36_Node000028_Node000029" class="edge">
<title>Node28&#45;&gt;Node29</title>
<g id="a_edge36_Node000028_Node000029"><a xlink:title=" ">
<path fill="none" stroke="#63b8ff" d="M355.12,-27.5C363.27,-27.5 371.56,-27.5 379.65,-27.5"/>
<polygon fill="#63b8ff" stroke="#63b8ff" points="379.4,-31 389.4,-27.5 379.4,-24 379.4,-31"/>
</a>
</g>
</g>
<!-- Node30 -->
<g id="Node000030" class="node">
<title>Node30</title>
<g id="a_Node000030"><a xlink:href="exif-tag_8c.html#a87563ee64809f5f0deb4d780098508c1" target="_top" xlink:title="Return the number of entries in the EXIF tag table, including the terminating NULL entry.">
<polygon fill="white" stroke="#666666" points="657,-19 538,-19 538,0 657,0 657,-19"/>
<text text-anchor="middle" x="597.5" y="-7" font-family="Helvetica,sans-Serif" font-size="10.00">exif_tag_table_count</text>
</a>
</g>
</g>
<!-- Node29&#45;&gt;Node30 -->
<g id="edge37_Node000029_Node000030" class="edge">
<title>Node29&#45;&gt;Node30</title>
<g id="a_edge37_Node000029_Node000030"><a xlink:title=" ">
<path fill="none" stroke="#63b8ff" d="M502.14,-20.9C509.98,-19.95 518.15,-18.97 526.24,-17.99"/>
<polygon fill="#63b8ff" stroke="#63b8ff" points="526.6,-21.47 536.1,-16.8 525.76,-14.52 526.6,-21.47"/>
</a>
</g>
</g>
<!-- Node31 -->
<g id="Node000031" class="node">
<title>Node31</title>
<g id="a_Node000031"><a xlink:href="exif-tag_8c.html#a220c1b18832f113bc84ff9551754915f" target="_top" xlink:title="Compares the tag with that in entry.">
<polygon fill="white" stroke="#666666" points="631.5,-56 563.5,-56 563.5,-37 631.5,-37 631.5,-56"/>
<text text-anchor="middle" x="597.5" y="-44" font-family="Helvetica,sans-Serif" font-size="10.00">match_tag</text>
</a>
</g>
</g>
<!-- Node29&#45;&gt;Node31 -->
<g id="edge38_Node000029_Node000031" class="edge">
<title>Node29&#45;&gt;Node31</title>
<g id="a_edge38_Node000029_Node000031"><a xlink:title=" ">
<path fill="none" stroke="#63b8ff" d="M502.14,-34.47C518.58,-36.56 536.41,-38.84 552.1,-40.84"/>
<polygon fill="#63b8ff" stroke="#63b8ff" points="551.24,-44.26 561.6,-42.05 552.12,-37.31 551.24,-44.26"/>
</a>
</g>
</g>
</g>
</svg>
