<?xml version="1.0" encoding="UTF-8" standalone="no"?>
<!DOCTYPE svg PUBLIC "-//W3C//DTD SVG 1.1//EN"
 "http://www.w3.org/Graphics/SVG/1.1/DTD/svg11.dtd">
<!-- Generated by graphviz version 7.0.1 (0)
 -->
<!-- Title: exif_mnote_data_apple_get_value Pages: 1 -->
<svg width="726pt" height="245pt"
 viewBox="0.00 0.00 726.00 245.00" xmlns="http://www.w3.org/2000/svg" xmlns:xlink="http://www.w3.org/1999/xlink">
<g id="graph0" class="graph" transform="scale(1 1) rotate(0) translate(4 241)">
<title>exif_mnote_data_apple_get_value</title>
<!-- Node1 -->
<g id="Node000001" class="node">
<title>Node1</title>
<g id="a_Node000001"><a xlink:title=" ">
<polygon fill="#999999" stroke="#666666" points="131,-128.5 0,-128.5 0,-98.5 131,-98.5 131,-128.5"/>
<text text-anchor="start" x="8" y="-116.5" font-family="Helvetica,sans-Serif" font-size="10.00">exif_mnote_data_apple</text>
<text text-anchor="middle" x="65.5" y="-105.5" font-family="Helvetica,sans-Serif" font-size="10.00">_get_value</text>
</a>
</g>
</g>
<!-- Node2 -->
<g id="Node000002" class="node">
<title>Node2</title>
<g id="a_Node000002"><a xlink:href="mnote-apple-entry_8c.html#aeee027539a601bfbe4b3b010a00d6b8e" target="_top" xlink:title=" ">
<polygon fill="white" stroke="#666666" points="299,-128.5 167,-128.5 167,-98.5 299,-98.5 299,-128.5"/>
<text text-anchor="start" x="175" y="-116.5" font-family="Helvetica,sans-Serif" font-size="10.00">mnote_apple_entry_get</text>
<text text-anchor="middle" x="233" y="-105.5" font-family="Helvetica,sans-Serif" font-size="10.00">_value</text>
</a>
</g>
</g>
<!-- Node1&#45;&gt;Node2 -->
<g id="edge1_Node000001_Node000002" class="edge">
<title>Node1&#45;&gt;Node2</title>
<g id="a_edge1_Node000001_Node000002"><a xlink:title=" ">
<path fill="none" stroke="#63b8ff" d="M131.43,-113.5C139.31,-113.5 147.42,-113.5 155.44,-113.5"/>
<polygon fill="#63b8ff" stroke="#63b8ff" points="155.2,-117 165.2,-113.5 155.2,-110 155.2,-117"/>
</a>
</g>
</g>
<!-- Node3 -->
<g id="Node000003" class="node">
<title>Node3</title>
<g id="a_Node000003"><a xlink:href="exif-format_8c.html#a924038efe0cd8ebade8f44619dd794f3" target="_top" xlink:title="Return the raw size of the given EXIF data type.">
<polygon fill="white" stroke="#666666" points="454,-237 335,-237 335,-218 454,-218 454,-237"/>
<text text-anchor="middle" x="394.5" y="-225" font-family="Helvetica,sans-Serif" font-size="10.00">exif_format_get_size</text>
</a>
</g>
</g>
<!-- Node2&#45;&gt;Node3 -->
<g id="edge2_Node000002_Node000003" class="edge">
<title>Node2&#45;&gt;Node3</title>
<g id="a_edge2_Node000002_Node000003"><a xlink:title=" ">
<path fill="none" stroke="#63b8ff" d="M248.1,-128.96C266.53,-148.44 300.54,-181.97 335,-203.5 340.67,-207.04 346.94,-210.25 353.22,-213.1"/>
<polygon fill="#63b8ff" stroke="#63b8ff" points="351.72,-216.26 362.29,-216.93 354.44,-209.81 351.72,-216.26"/>
</a>
</g>
</g>
<!-- Node4 -->
<g id="Node000004" class="node">
<title>Node4</title>
<g id="a_Node000004"><a xlink:href="exif-utils_8c.html#a4ad94614630897766dd0a5c9bc2a59bf" target="_top" xlink:title="Retrieve an ExifLong value from memory.">
<polygon fill="white" stroke="#666666" points="583.5,-161 500.5,-161 500.5,-142 583.5,-142 583.5,-161"/>
<text text-anchor="middle" x="542" y="-149" font-family="Helvetica,sans-Serif" font-size="10.00">exif_get_long</text>
</a>
</g>
</g>
<!-- Node2&#45;&gt;Node4 -->
<g id="edge3_Node000002_Node000004" class="edge">
<title>Node2&#45;&gt;Node4</title>
<g id="a_edge3_Node000002_Node000004"><a xlink:title=" ">
<path fill="none" stroke="#63b8ff" d="M253.91,-128.88C273.37,-142.85 304.43,-162.47 335,-170.5 389.57,-184.84 454.74,-174.42 496.95,-164.24"/>
<polygon fill="#63b8ff" stroke="#63b8ff" points="497.65,-167.67 506.49,-161.83 495.94,-160.88 497.65,-167.67"/>
</a>
</g>
</g>
<!-- Node5 -->
<g id="Node000005" class="node">
<title>Node5</title>
<g id="a_Node000005"><a xlink:href="exif-utils_8c.html#a56b96f076a13da6ed926e1ef29cb2dc3" target="_top" xlink:title="Retrieve an ExifSLong value from memory.">
<polygon fill="white" stroke="#666666" points="718,-123 630,-123 630,-104 718,-104 718,-123"/>
<text text-anchor="middle" x="674" y="-111" font-family="Helvetica,sans-Serif" font-size="10.00">exif_get_slong</text>
</a>
</g>
</g>
<!-- Node2&#45;&gt;Node5 -->
<g id="edge9_Node000002_Node000005" class="edge">
<title>Node2&#45;&gt;Node5</title>
<g id="a_edge9_Node000002_Node000005"><a xlink:title=" ">
<path fill="none" stroke="#63b8ff" d="M299.25,-113.5C385.87,-113.5 537.3,-113.5 618.27,-113.5"/>
<polygon fill="#63b8ff" stroke="#63b8ff" points="618.17,-117 628.17,-113.5 618.17,-110 618.17,-117"/>
</a>
</g>
</g>
<!-- Node6 -->
<g id="Node000006" class="node">
<title>Node6</title>
<g id="a_Node000006"><a xlink:href="exif-utils_8c.html#a1feb547c289aa57a4d2119338b03706c" target="_top" xlink:title="Retrieve an ExifRational value from memory.">
<polygon fill="white" stroke="#666666" points="444,-161 345,-161 345,-142 444,-142 444,-161"/>
<text text-anchor="middle" x="394.5" y="-149" font-family="Helvetica,sans-Serif" font-size="10.00">exif_get_rational</text>
</a>
</g>
</g>
<!-- Node2&#45;&gt;Node6 -->
<g id="edge5_Node000002_Node000006" class="edge">
<title>Node2&#45;&gt;Node6</title>
<g id="a_edge5_Node000002_Node000006"><a xlink:title=" ">
<path fill="none" stroke="#63b8ff" d="M298.87,-128.96C312.76,-132.26 327.26,-135.72 340.62,-138.9"/>
<polygon fill="#63b8ff" stroke="#63b8ff" points="339.53,-142.24 350.07,-141.15 341.15,-135.43 339.53,-142.24"/>
</a>
</g>
</g>
<!-- Node7 -->
<g id="Node000007" class="node">
<title>Node7</title>
<g id="a_Node000007"><a xlink:href="exif-utils_8c.html#a4b4acf537a8c6b9405e7b53be868e4d7" target="_top" xlink:title="Retrieve an ExifShort value from memory.">
<polygon fill="white" stroke="#666666" points="437.5,-85 351.5,-85 351.5,-66 437.5,-66 437.5,-85"/>
<text text-anchor="middle" x="394.5" y="-73" font-family="Helvetica,sans-Serif" font-size="10.00">exif_get_short</text>
</a>
</g>
</g>
<!-- Node2&#45;&gt;Node7 -->
<g id="edge7_Node000002_Node000007" class="edge">
<title>Node2&#45;&gt;Node7</title>
<g id="a_edge7_Node000002_Node000007"><a xlink:title=" ">
<path fill="none" stroke="#63b8ff" d="M298.87,-98.04C312.76,-94.74 327.26,-91.28 340.62,-88.1"/>
<polygon fill="#63b8ff" stroke="#63b8ff" points="341.15,-91.57 350.07,-85.85 339.53,-84.76 341.15,-91.57"/>
</a>
</g>
</g>
<!-- Node8 -->
<g id="Node000008" class="node">
<title>Node8</title>
<g id="a_Node000008"><a xlink:href="exif-utils_8c.html#a6baf094a71392f9cea23ad633ec13c8b" target="_top" xlink:title="Retrieve an ExifSShort value from memory.">
<polygon fill="white" stroke="#666666" points="588,-75 496,-75 496,-56 588,-56 588,-75"/>
<text text-anchor="middle" x="542" y="-63" font-family="Helvetica,sans-Serif" font-size="10.00">exif_get_sshort</text>
</a>
</g>
</g>
<!-- Node2&#45;&gt;Node8 -->
<g id="edge12_Node000002_Node000008" class="edge">
<title>Node2&#45;&gt;Node8</title>
<g id="a_edge12_Node000002_Node000008"><a xlink:title=" ">
<path fill="none" stroke="#63b8ff" d="M254.33,-98.13C273.84,-84.41 304.72,-65.33 335,-57.5 384.25,-44.76 442.32,-48.63 484.22,-54.6"/>
<polygon fill="#63b8ff" stroke="#63b8ff" points="483.69,-58.06 494.1,-56.1 484.74,-51.14 483.69,-58.06"/>
</a>
</g>
</g>
<!-- Node9 -->
<g id="Node000009" class="node">
<title>Node9</title>
<g id="a_Node000009"><a xlink:href="exif-utils_8c.html#adb97c3499488d5642a82df1cb16dc2cb" target="_top" xlink:title="Retrieve an ExifSRational value from memory.">
<polygon fill="white" stroke="#666666" points="594,-19 490,-19 490,0 594,0 594,-19"/>
<text text-anchor="middle" x="542" y="-7" font-family="Helvetica,sans-Serif" font-size="10.00">exif_get_srational</text>
</a>
</g>
</g>
<!-- Node2&#45;&gt;Node9 -->
<g id="edge10_Node000002_Node000009" class="edge">
<title>Node2&#45;&gt;Node9</title>
<g id="a_edge10_Node000002_Node000009"><a xlink:title=" ">
<path fill="none" stroke="#63b8ff" d="M251.25,-98.22C270.34,-82.19 302.71,-57.54 335,-44.5 380.97,-25.94 436.56,-17.22 478.4,-13.12"/>
<polygon fill="#63b8ff" stroke="#63b8ff" points="478.67,-16.61 488.31,-12.22 478.03,-9.64 478.67,-16.61"/>
</a>
</g>
</g>
<!-- Node4&#45;&gt;Node5 -->
<g id="edge4_Node000004_Node000005" class="edge">
<title>Node4&#45;&gt;Node5</title>
<g id="a_edge4_Node000004_Node000005"><a xlink:title=" ">
<path fill="none" stroke="#63b8ff" d="M577.16,-141.52C592.83,-136.93 611.62,-131.44 628.39,-126.54"/>
<polygon fill="#63b8ff" stroke="#63b8ff" points="629,-130.01 637.62,-123.84 627.04,-123.29 629,-130.01"/>
</a>
</g>
</g>
<!-- Node6&#45;&gt;Node4 -->
<g id="edge6_Node000006_Node000004" class="edge">
<title>Node6&#45;&gt;Node4</title>
<g id="a_edge6_Node000006_Node000004"><a xlink:title=" ">
<path fill="none" stroke="#63b8ff" d="M444.35,-151.5C458.69,-151.5 474.41,-151.5 488.93,-151.5"/>
<polygon fill="#63b8ff" stroke="#63b8ff" points="488.76,-155 498.76,-151.5 488.76,-148 488.76,-155"/>
</a>
</g>
</g>
<!-- Node7&#45;&gt;Node8 -->
<g id="edge8_Node000007_Node000008" class="edge">
<title>Node7&#45;&gt;Node8</title>
<g id="a_edge8_Node000007_Node000008"><a xlink:title=" ">
<path fill="none" stroke="#63b8ff" d="M437.98,-72.58C452.56,-71.58 469.11,-70.44 484.62,-69.38"/>
<polygon fill="#63b8ff" stroke="#63b8ff" points="484.43,-72.9 494.17,-68.72 483.95,-65.91 484.43,-72.9"/>
</a>
</g>
</g>
<!-- Node9&#45;&gt;Node5 -->
<g id="edge11_Node000009_Node000005" class="edge">
<title>Node9&#45;&gt;Node5</title>
<g id="a_edge11_Node000009_Node000005"><a xlink:title=" ">
<path fill="none" stroke="#63b8ff" d="M556.58,-19.3C566.94,-26.86 581.52,-37.65 594,-47.5 614.52,-63.7 637.39,-82.94 653.22,-96.45"/>
<polygon fill="#63b8ff" stroke="#63b8ff" points="650.63,-98.84 660.5,-102.69 655.19,-93.53 650.63,-98.84"/>
</a>
</g>
</g>
</g>
</svg>
