<?xml version="1.0" encoding="UTF-8" standalone="no"?>
<!DOCTYPE svg PUBLIC "-//W3C//DTD SVG 1.1//EN"
 "http://www.w3.org/Graphics/SVG/1.1/DTD/svg11.dtd">
<!-- Generated by graphviz version 7.0.1 (0)
 -->
<!-- Title: exif_entry_fix Pages: 1 -->
<svg width="573pt" height="581pt"
 viewBox="0.00 0.00 573.00 581.00" xmlns="http://www.w3.org/2000/svg" xmlns:xlink="http://www.w3.org/1999/xlink">
<g id="graph0" class="graph" transform="scale(1 1) rotate(0) translate(4 577)">
<title>exif_entry_fix</title>
<!-- Node1 -->
<g id="Node000001" class="node">
<title>Node1</title>
<g id="a_Node000001"><a xlink:title="Fix the type or format of the given EXIF entry to bring it into spec.">
<polygon fill="#999999" stroke="#666666" points="84,-300 0,-300 0,-281 84,-281 84,-300"/>
<text text-anchor="middle" x="42" y="-288" font-family="Helvetica,sans-Serif" font-size="10.00">exif_entry_fix</text>
</a>
</g>
</g>
<!-- Node2 -->
<g id="Node000002" class="node">
<title>Node2</title>
<g id="a_Node000002"><a xlink:href="exif-entry_8c.html#a01d57aa3b858af0ffbbef108ed332939" target="_top" xlink:title=" ">
<polygon fill="white" stroke="#666666" points="227,-573 156,-573 156,-554 227,-554 227,-573"/>
<text text-anchor="middle" x="191.5" y="-561" font-family="Helvetica,sans-Serif" font-size="10.00">clear_entry</text>
</a>
</g>
</g>
<!-- Node1&#45;&gt;Node2 -->
<g id="edge1_Node000001_Node000002" class="edge">
<title>Node1&#45;&gt;Node2</title>
<g id="a_edge1_Node000001_Node000002"><a xlink:title=" ">
<path fill="none" stroke="#63b8ff" d="M42.82,-300.48C42.7,-338.31 47.54,-474.26 120,-544.5 126.79,-551.09 135.62,-555.45 144.72,-558.32"/>
<polygon fill="#63b8ff" stroke="#63b8ff" points="143.81,-561.7 154.36,-560.76 145.53,-554.91 143.81,-561.7"/>
</a>
</g>
</g>
<!-- Node3 -->
<g id="Node000003" class="node">
<title>Node3</title>
<g id="a_Node000003"><a xlink:href="exif-data_8c.html#a2d8d50e6a9c19d28fe8192ef7cc52777" target="_top" xlink:title="Return the byte order in use by this EXIF structure.">
<polygon fill="white" stroke="#666666" points="246.5,-535.5 136.5,-535.5 136.5,-505.5 246.5,-505.5 246.5,-535.5"/>
<text text-anchor="start" x="144.5" y="-523.5" font-family="Helvetica,sans-Serif" font-size="10.00">exif_data_get_byte</text>
<text text-anchor="middle" x="191.5" y="-512.5" font-family="Helvetica,sans-Serif" font-size="10.00">_order</text>
</a>
</g>
</g>
<!-- Node1&#45;&gt;Node3 -->
<g id="edge2_Node000001_Node000003" class="edge">
<title>Node1&#45;&gt;Node3</title>
<g id="a_edge2_Node000001_Node000003"><a xlink:title=" ">
<path fill="none" stroke="#63b8ff" d="M43.76,-300.26C46.82,-332.88 61.1,-439.32 120,-496.5 122.03,-498.47 124.23,-500.28 126.55,-501.94"/>
<polygon fill="#63b8ff" stroke="#63b8ff" points="124.36,-504.71 134.73,-506.86 127.96,-498.71 124.36,-504.71"/>
</a>
</g>
</g>
<!-- Node4 -->
<g id="Node000004" class="node">
<title>Node4</title>
<g id="a_Node000004"><a xlink:href="exif-entry_8c.html#acba1916cfb1741aa17f022d2e5b8bccc" target="_top" xlink:title=" ">
<polygon fill="white" stroke="#666666" points="239,-450 144,-450 144,-431 239,-431 239,-450"/>
<text text-anchor="middle" x="191.5" y="-438" font-family="Helvetica,sans-Serif" font-size="10.00">exif_entry_alloc</text>
</a>
</g>
</g>
<!-- Node1&#45;&gt;Node4 -->
<g id="edge3_Node000001_Node000004" class="edge">
<title>Node1&#45;&gt;Node4</title>
<g id="a_edge3_Node000001_Node000004"><a xlink:title=" ">
<path fill="none" stroke="#63b8ff" d="M45.78,-300.23C53.32,-324.8 76.58,-389.74 120,-422.5 124.02,-425.53 128.5,-428.06 133.2,-430.16"/>
<polygon fill="#63b8ff" stroke="#63b8ff" points="131.73,-433.35 142.33,-433.59 134.19,-426.8 131.73,-433.35"/>
</a>
</g>
</g>
<!-- Node7 -->
<g id="Node000007" class="node">
<title>Node7</title>
<g id="a_Node000007"><a xlink:href="exif-entry_8c.html#ac416e8326bd687f5da299d1b15a731bf" target="_top" xlink:title=" ">
<polygon fill="white" stroke="#666666" points="234.5,-487 148.5,-487 148.5,-468 234.5,-468 234.5,-487"/>
<text text-anchor="middle" x="191.5" y="-475" font-family="Helvetica,sans-Serif" font-size="10.00">exif_entry_log</text>
</a>
</g>
</g>
<!-- Node1&#45;&gt;Node7 -->
<g id="edge6_Node000001_Node000007" class="edge">
<title>Node1&#45;&gt;Node7</title>
<g id="a_edge6_Node000001_Node000007"><a xlink:title=" ">
<path fill="none" stroke="#63b8ff" d="M44.46,-300.28C49.35,-329.35 67.82,-415.85 120,-459.5 125.09,-463.76 131.06,-467.03 137.33,-469.53"/>
<polygon fill="#63b8ff" stroke="#63b8ff" points="136.05,-472.79 146.64,-472.6 138.24,-466.14 136.05,-472.79"/>
</a>
</g>
</g>
<!-- Node9 -->
<g id="Node000009" class="node">
<title>Node9</title>
<g id="a_Node000009"><a xlink:href="exif-entry_8c.html#a29ecd66c8570aeb5d64fa26d327fcbe0" target="_top" xlink:title=" ">
<polygon fill="white" stroke="#666666" points="243.5,-413 139.5,-413 139.5,-394 243.5,-394 243.5,-413"/>
<text text-anchor="middle" x="191.5" y="-401" font-family="Helvetica,sans-Serif" font-size="10.00">exif_entry_realloc</text>
</a>
</g>
</g>
<!-- Node1&#45;&gt;Node9 -->
<g id="edge9_Node000001_Node000009" class="edge">
<title>Node1&#45;&gt;Node9</title>
<g id="a_edge9_Node000001_Node000009"><a xlink:title=" ">
<path fill="none" stroke="#63b8ff" d="M48.93,-300.3C60.42,-318.48 87.47,-357.58 120,-379.5 125.77,-383.39 132.23,-386.7 138.83,-389.51"/>
<polygon fill="#63b8ff" stroke="#63b8ff" points="137.25,-392.65 147.84,-392.98 139.76,-386.12 137.25,-392.65"/>
</a>
</g>
</g>
<!-- Node10 -->
<g id="Node000010" class="node">
<title>Node10</title>
<g id="a_Node000010"><a xlink:href="exif-mem_8c.html#a43190b81b4b4bdb4ffb89bfb612051b1" target="_top" xlink:title=" ">
<polygon fill="white" stroke="#666666" points="400,-376 309,-376 309,-357 400,-357 400,-376"/>
<text text-anchor="middle" x="354.5" y="-364" font-family="Helvetica,sans-Serif" font-size="10.00">exif_mem_free</text>
</a>
</g>
</g>
<!-- Node1&#45;&gt;Node10 -->
<g id="edge26_Node000001_Node000010" class="edge">
<title>Node1&#45;&gt;Node10</title>
<g id="a_edge26_Node000001_Node000010"><a xlink:title=" ">
<path fill="none" stroke="#63b8ff" d="M52.41,-300.06C65.98,-313.16 92.43,-336.21 120,-346.5 177.88,-368.09 249.23,-371.11 297.72,-369.99"/>
<polygon fill="#63b8ff" stroke="#63b8ff" points="297.53,-373.5 307.41,-369.69 297.31,-366.5 297.53,-373.5"/>
</a>
</g>
</g>
<!-- Node12 -->
<g id="Node000012" class="node">
<title>Node12</title>
<g id="a_Node000012"><a xlink:href="exif-format_8c.html#a513bc6b9980641d7e6ff1fe74810b3e0" target="_top" xlink:title="Return a textual representation of the given EXIF data type.">
<polygon fill="white" stroke="#666666" points="255.5,-337 127.5,-337 127.5,-318 255.5,-318 255.5,-337"/>
<text text-anchor="middle" x="191.5" y="-325" font-family="Helvetica,sans-Serif" font-size="10.00">exif_format_get_name</text>
</a>
</g>
</g>
<!-- Node1&#45;&gt;Node12 -->
<g id="edge13_Node000001_Node000012" class="edge">
<title>Node1&#45;&gt;Node12</title>
<g id="a_edge13_Node000001_Node000012"><a xlink:title=" ">
<path fill="none" stroke="#63b8ff" d="M82.53,-300.42C100.14,-304.83 121.09,-310.09 139.83,-314.79"/>
<polygon fill="#63b8ff" stroke="#63b8ff" points="138.84,-318.15 149.4,-317.19 140.55,-311.36 138.84,-318.15"/>
</a>
</g>
</g>
<!-- Node13 -->
<g id="Node000013" class="node">
<title>Node13</title>
<g id="a_Node000013"><a xlink:href="exif-format_8c.html#a924038efe0cd8ebade8f44619dd794f3" target="_top" xlink:title="Return the raw size of the given EXIF data type.">
<polygon fill="white" stroke="#666666" points="251,-300 132,-300 132,-281 251,-281 251,-300"/>
<text text-anchor="middle" x="191.5" y="-288" font-family="Helvetica,sans-Serif" font-size="10.00">exif_format_get_size</text>
</a>
</g>
</g>
<!-- Node1&#45;&gt;Node13 -->
<g id="edge14_Node000001_Node000013" class="edge">
<title>Node1&#45;&gt;Node13</title>
<g id="a_edge14_Node000001_Node000013"><a xlink:title=" ">
<path fill="none" stroke="#63b8ff" d="M84.48,-290.5C95.7,-290.5 108.16,-290.5 120.49,-290.5"/>
<polygon fill="#63b8ff" stroke="#63b8ff" points="120.21,-294 130.21,-290.5 120.21,-287 120.21,-294"/>
</a>
</g>
</g>
<!-- Node14 -->
<g id="Node000014" class="node">
<title>Node14</title>
<g id="a_Node000014"><a xlink:href="exif-utils_8c.html#a1feb547c289aa57a4d2119338b03706c" target="_top" xlink:title="Retrieve an ExifRational value from memory.">
<polygon fill="white" stroke="#666666" points="241,-226 142,-226 142,-207 241,-207 241,-226"/>
<text text-anchor="middle" x="191.5" y="-214" font-family="Helvetica,sans-Serif" font-size="10.00">exif_get_rational</text>
</a>
</g>
</g>
<!-- Node1&#45;&gt;Node14 -->
<g id="edge15_Node000001_Node000014" class="edge">
<title>Node1&#45;&gt;Node14</title>
<g id="a_edge15_Node000001_Node000014"><a xlink:title=" ">
<path fill="none" stroke="#63b8ff" d="M54.18,-280.52C68.48,-268.26 94.46,-247.58 120,-235.5 124.25,-233.49 128.76,-231.66 133.35,-230"/>
<polygon fill="#63b8ff" stroke="#63b8ff" points="134.3,-233.38 142.7,-226.93 132.11,-226.73 134.3,-233.38"/>
</a>
</g>
</g>
<!-- Node17 -->
<g id="Node000017" class="node">
<title>Node17</title>
<g id="a_Node000017"><a xlink:href="exif-entry_8c.html#afed3fb2fdd564d50c88f237cc6353ef8" target="_top" xlink:title="Get a value and convert it to an ExifShort.">
<polygon fill="white" stroke="#666666" points="255.5,-263 127.5,-263 127.5,-244 255.5,-244 255.5,-263"/>
<text text-anchor="middle" x="191.5" y="-251" font-family="Helvetica,sans-Serif" font-size="10.00">exif_get_short_convert</text>
</a>
</g>
</g>
<!-- Node1&#45;&gt;Node17 -->
<g id="edge18_Node000001_Node000017" class="edge">
<title>Node1&#45;&gt;Node17</title>
<g id="a_edge18_Node000001_Node000017"><a xlink:title=" ">
<path fill="none" stroke="#63b8ff" d="M82.53,-280.58C100.14,-276.17 121.09,-270.91 139.83,-266.21"/>
<polygon fill="#63b8ff" stroke="#63b8ff" points="140.55,-269.64 149.4,-263.81 138.84,-262.85 140.55,-269.64"/>
</a>
</g>
</g>
<!-- Node20 -->
<g id="Node000020" class="node">
<title>Node20</title>
<g id="a_Node000020"><a xlink:href="exif-utils_8c.html#adb97c3499488d5642a82df1cb16dc2cb" target="_top" xlink:title="Retrieve an ExifSRational value from memory.">
<polygon fill="white" stroke="#666666" points="406.5,-187 302.5,-187 302.5,-168 406.5,-168 406.5,-187"/>
<text text-anchor="middle" x="354.5" y="-175" font-family="Helvetica,sans-Serif" font-size="10.00">exif_get_srational</text>
</a>
</g>
</g>
<!-- Node1&#45;&gt;Node20 -->
<g id="edge24_Node000001_Node000020" class="edge">
<title>Node1&#45;&gt;Node20</title>
<g id="a_edge24_Node000001_Node000020"><a xlink:title=" ">
<path fill="none" stroke="#63b8ff" d="M47.9,-280.52C58.17,-260.85 84.01,-217.32 120,-198.5 172.76,-170.91 241.46,-167.99 290.66,-170.56"/>
<polygon fill="#63b8ff" stroke="#63b8ff" points="290.39,-174.05 300.59,-171.18 290.82,-167.07 290.39,-174.05"/>
</a>
</g>
</g>
<!-- Node21 -->
<g id="Node000021" class="node">
<title>Node21</title>
<g id="a_Node000021"><a xlink:href="exif-utils_8c.html#a400a16b1754150f721e9fca67ad89a52" target="_top" xlink:title="Store an ExifRational value into memory in EXIF format.">
<polygon fill="white" stroke="#666666" points="240.5,-150 142.5,-150 142.5,-131 240.5,-131 240.5,-150"/>
<text text-anchor="middle" x="191.5" y="-138" font-family="Helvetica,sans-Serif" font-size="10.00">exif_set_rational</text>
</a>
</g>
</g>
<!-- Node1&#45;&gt;Node21 -->
<g id="edge27_Node000001_Node000021" class="edge">
<title>Node1&#45;&gt;Node21</title>
<g id="a_edge27_Node000001_Node000021"><a xlink:title=" ">
<path fill="none" stroke="#63b8ff" d="M46.31,-280.72C54.76,-257.2 79.38,-197.03 120,-164.5 124.73,-160.71 130.09,-157.51 135.7,-154.8"/>
<polygon fill="#63b8ff" stroke="#63b8ff" points="136.73,-158.16 144.57,-151.03 133.99,-151.72 136.73,-158.16"/>
</a>
</g>
</g>
<!-- Node24 -->
<g id="Node000024" class="node">
<title>Node24</title>
<g id="a_Node000024"><a xlink:href="exif-utils_8c.html#ad905d16e26b4052a1db34dbebdc37341" target="_top" xlink:title="Store an ExifShort value into memory in EXIF format.">
<polygon fill="white" stroke="#666666" points="234.5,-74 148.5,-74 148.5,-55 234.5,-55 234.5,-74"/>
<text text-anchor="middle" x="191.5" y="-62" font-family="Helvetica,sans-Serif" font-size="10.00">exif_set_short</text>
</a>
</g>
</g>
<!-- Node1&#45;&gt;Node24 -->
<g id="edge30_Node000001_Node000024" class="edge">
<title>Node1&#45;&gt;Node24</title>
<g id="a_edge30_Node000001_Node000024"><a xlink:title=" ">
<path fill="none" stroke="#63b8ff" d="M43.82,-280.93C47.09,-248.92 61.92,-144.52 120,-88.5 125.07,-83.61 131.17,-79.72 137.64,-76.61"/>
<polygon fill="#63b8ff" stroke="#63b8ff" points="138.68,-79.97 146.61,-72.93 136.03,-73.49 138.68,-79.97"/>
</a>
</g>
</g>
<!-- Node26 -->
<g id="Node000026" class="node">
<title>Node26</title>
<g id="a_Node000026"><a xlink:href="exif-utils_8c.html#aca1790a72b1833dff1b0bf728052c3c5" target="_top" xlink:title="Store an ExifSRational value into memory in EXIF format.">
<polygon fill="white" stroke="#666666" points="406.5,-112 302.5,-112 302.5,-93 406.5,-93 406.5,-112"/>
<text text-anchor="middle" x="354.5" y="-100" font-family="Helvetica,sans-Serif" font-size="10.00">exif_set_srational</text>
</a>
</g>
</g>
<!-- Node1&#45;&gt;Node26 -->
<g id="edge32_Node000001_Node000026" class="edge">
<title>Node1&#45;&gt;Node26</title>
<g id="a_edge32_Node000001_Node000026"><a xlink:title=" ">
<path fill="none" stroke="#63b8ff" d="M44.11,-280.79C48.07,-251.17 64.38,-161.65 120,-122.5 169.49,-87.67 240.31,-86.56 290.95,-91.75"/>
<polygon fill="#63b8ff" stroke="#63b8ff" points="290.24,-95.19 300.57,-92.85 291.04,-88.24 290.24,-95.19"/>
</a>
</g>
</g>
<!-- Node27 -->
<g id="Node000027" class="node">
<title>Node27</title>
<g id="a_Node000027"><a xlink:href="exif-tag_8c.html#a6b4f26f6f8f243e1f8a9e123b9cca589" target="_top" xlink:title="Return a textual name of the given tag when found in the given IFD.">
<polygon fill="white" stroke="#666666" points="263,-37 120,-37 120,-18 263,-18 263,-37"/>
<text text-anchor="middle" x="191.5" y="-25" font-family="Helvetica,sans-Serif" font-size="10.00">exif_tag_get_name_in_ifd</text>
</a>
</g>
</g>
<!-- Node1&#45;&gt;Node27 -->
<g id="edge34_Node000001_Node000027" class="edge">
<title>Node1&#45;&gt;Node27</title>
<g id="a_edge34_Node000001_Node000027"><a xlink:title=" ">
<path fill="none" stroke="#63b8ff" d="M42.92,-280.58C43.18,-243.6 49.26,-112.48 120,-45.5 120.64,-44.9 121.29,-44.31 121.96,-43.75"/>
<polygon fill="#63b8ff" stroke="#63b8ff" points="123.81,-46.73 130.18,-38.26 119.92,-40.9 123.81,-46.73"/>
</a>
</g>
</g>
<!-- Node5 -->
<g id="Node000005" class="node">
<title>Node5</title>
<g id="a_Node000005"><a xlink:href="exif-data_8c.html#a9403ed4fde8ef603e9db173eb122efaf" target="_top" xlink:title=" ">
<polygon fill="white" stroke="#666666" points="406.5,-487 302.5,-487 302.5,-468 406.5,-468 406.5,-487"/>
<text text-anchor="middle" x="354.5" y="-475" font-family="Helvetica,sans-Serif" font-size="10.00">exif_data_get_log</text>
</a>
</g>
</g>
<!-- Node4&#45;&gt;Node5 -->
<g id="edge4_Node000004_Node000005" class="edge">
<title>Node4&#45;&gt;Node5</title>
<g id="a_edge4_Node000004_Node000005"><a xlink:title=" ">
<path fill="none" stroke="#63b8ff" d="M235.65,-450.42C255.14,-454.89 278.38,-460.24 299.05,-464.99"/>
<polygon fill="#63b8ff" stroke="#63b8ff" points="298.23,-468.39 308.76,-467.22 299.8,-461.57 298.23,-468.39"/>
</a>
</g>
</g>
<!-- Node6 -->
<g id="Node000006" class="node">
<title>Node6</title>
<g id="a_Node000006"><a xlink:href="exif-mem_8c.html#a68be7c7afc8cff75adc3b1a28b5ae9a2" target="_top" xlink:title=" ">
<polygon fill="white" stroke="#666666" points="402,-450 307,-450 307,-431 402,-431 402,-450"/>
<text text-anchor="middle" x="354.5" y="-438" font-family="Helvetica,sans-Serif" font-size="10.00">exif_mem_alloc</text>
</a>
</g>
</g>
<!-- Node4&#45;&gt;Node6 -->
<g id="edge5_Node000004_Node000006" class="edge">
<title>Node4&#45;&gt;Node6</title>
<g id="a_edge5_Node000004_Node000006"><a xlink:title=" ">
<path fill="none" stroke="#63b8ff" d="M239.07,-440.5C256.68,-440.5 276.94,-440.5 295.48,-440.5"/>
<polygon fill="#63b8ff" stroke="#63b8ff" points="295.24,-444 305.24,-440.5 295.24,-437 295.24,-444"/>
</a>
</g>
</g>
<!-- Node7&#45;&gt;Node5 -->
<g id="edge7_Node000007_Node000005" class="edge">
<title>Node7&#45;&gt;Node5</title>
<g id="a_edge7_Node000007_Node000005"><a xlink:title=" ">
<path fill="none" stroke="#63b8ff" d="M234.8,-477.5C251.85,-477.5 271.88,-477.5 290.58,-477.5"/>
<polygon fill="#63b8ff" stroke="#63b8ff" points="290.5,-481 300.5,-477.5 290.5,-474 290.5,-481"/>
</a>
</g>
</g>
<!-- Node8 -->
<g id="Node000008" class="node">
<title>Node8</title>
<g id="a_Node000008"><a xlink:href="exif-log_8c.html#a99101b5ad01b2d82ce9d43c9e8534627" target="_top" xlink:title=" ">
<polygon fill="white" stroke="#666666" points="385.5,-524 323.5,-524 323.5,-505 385.5,-505 385.5,-524"/>
<text text-anchor="middle" x="354.5" y="-512" font-family="Helvetica,sans-Serif" font-size="10.00">exif_logv</text>
</a>
</g>
</g>
<!-- Node7&#45;&gt;Node8 -->
<g id="edge8_Node000007_Node000008" class="edge">
<title>Node7&#45;&gt;Node8</title>
<g id="a_edge8_Node000007_Node000008"><a xlink:title=" ">
<path fill="none" stroke="#63b8ff" d="M234.8,-487.22C258.66,-492.7 288.35,-499.53 312.06,-504.98"/>
<polygon fill="#63b8ff" stroke="#63b8ff" points="311.17,-508.36 321.7,-507.19 312.74,-501.54 311.17,-508.36"/>
</a>
</g>
</g>
<!-- Node9&#45;&gt;Node5 -->
<g id="edge10_Node000009_Node000005" class="edge">
<title>Node9&#45;&gt;Node5</title>
<g id="a_edge10_Node000009_Node000005"><a xlink:title=" ">
<path fill="none" stroke="#63b8ff" d="M242.78,-413.46C249.82,-415.87 256.77,-418.84 263,-422.5 282.78,-434.12 279.55,-447.33 299,-459.5 300.98,-460.74 303.05,-461.9 305.19,-462.99"/>
<polygon fill="#63b8ff" stroke="#63b8ff" points="303.55,-466.09 314.11,-466.96 306.4,-459.7 303.55,-466.09"/>
</a>
</g>
</g>
<!-- Node9&#45;&gt;Node10 -->
<g id="edge11_Node000009_Node000010" class="edge">
<title>Node9&#45;&gt;Node10</title>
<g id="a_edge11_Node000009_Node000010"><a xlink:title=" ">
<path fill="none" stroke="#63b8ff" d="M235.65,-393.58C255.14,-389.11 278.38,-383.76 299.05,-379.01"/>
<polygon fill="#63b8ff" stroke="#63b8ff" points="299.8,-382.43 308.76,-376.78 298.23,-375.61 299.8,-382.43"/>
</a>
</g>
</g>
<!-- Node11 -->
<g id="Node000011" class="node">
<title>Node11</title>
<g id="a_Node000011"><a xlink:href="exif-mem_8c.html#a7302da5374a74202e03a781b7c4b7ebe" target="_top" xlink:title=" ">
<polygon fill="white" stroke="#666666" points="406.5,-413 302.5,-413 302.5,-394 406.5,-394 406.5,-413"/>
<text text-anchor="middle" x="354.5" y="-401" font-family="Helvetica,sans-Serif" font-size="10.00">exif_mem_realloc</text>
</a>
</g>
</g>
<!-- Node9&#45;&gt;Node11 -->
<g id="edge12_Node000009_Node000011" class="edge">
<title>Node9&#45;&gt;Node11</title>
<g id="a_edge12_Node000009_Node000011"><a xlink:title=" ">
<path fill="none" stroke="#63b8ff" d="M243.88,-403.5C258.84,-403.5 275.35,-403.5 290.92,-403.5"/>
<polygon fill="#63b8ff" stroke="#63b8ff" points="290.54,-407 300.54,-403.5 290.54,-400 290.54,-407"/>
</a>
</g>
</g>
<!-- Node15 -->
<g id="Node000015" class="node">
<title>Node15</title>
<g id="a_Node000015"><a xlink:href="exif-utils_8c.html#a4ad94614630897766dd0a5c9bc2a59bf" target="_top" xlink:title="Retrieve an ExifLong value from memory.">
<polygon fill="white" stroke="#666666" points="396,-224 313,-224 313,-205 396,-205 396,-224"/>
<text text-anchor="middle" x="354.5" y="-212" font-family="Helvetica,sans-Serif" font-size="10.00">exif_get_long</text>
</a>
</g>
</g>
<!-- Node14&#45;&gt;Node15 -->
<g id="edge16_Node000014_Node000015" class="edge">
<title>Node14&#45;&gt;Node15</title>
<g id="a_edge16_Node000014_Node000015"><a xlink:title=" ">
<path fill="none" stroke="#63b8ff" d="M241.24,-215.89C260.19,-215.66 281.92,-215.39 301.19,-215.15"/>
<polygon fill="#63b8ff" stroke="#63b8ff" points="301.05,-218.65 311.01,-215.03 300.96,-211.65 301.05,-218.65"/>
</a>
</g>
</g>
<!-- Node16 -->
<g id="Node000016" class="node">
<title>Node16</title>
<g id="a_Node000016"><a xlink:href="exif-utils_8c.html#a56b96f076a13da6ed926e1ef29cb2dc3" target="_top" xlink:title="Retrieve an ExifSLong value from memory.">
<polygon fill="white" stroke="#666666" points="549.5,-224 461.5,-224 461.5,-205 549.5,-205 549.5,-224"/>
<text text-anchor="middle" x="505.5" y="-212" font-family="Helvetica,sans-Serif" font-size="10.00">exif_get_slong</text>
</a>
</g>
</g>
<!-- Node15&#45;&gt;Node16 -->
<g id="edge17_Node000015_Node000016" class="edge">
<title>Node15&#45;&gt;Node16</title>
<g id="a_edge17_Node000015_Node000016"><a xlink:title=" ">
<path fill="none" stroke="#63b8ff" d="M396.21,-214.5C412.75,-214.5 432.11,-214.5 449.85,-214.5"/>
<polygon fill="#63b8ff" stroke="#63b8ff" points="449.71,-218 459.71,-214.5 449.71,-211 449.71,-218"/>
</a>
</g>
</g>
<!-- Node17&#45;&gt;Node15 -->
<g id="edge19_Node000017_Node000015" class="edge">
<title>Node17&#45;&gt;Node15</title>
<g id="a_edge19_Node000017_Node000015"><a xlink:title=" ">
<path fill="none" stroke="#63b8ff" d="M233.54,-243.56C254.17,-238.56 279.39,-232.45 301.37,-227.13"/>
<polygon fill="#63b8ff" stroke="#63b8ff" points="302.17,-230.54 311.06,-224.78 300.52,-223.73 302.17,-230.54"/>
</a>
</g>
</g>
<!-- Node17&#45;&gt;Node16 -->
<g id="edge22_Node000017_Node000016" class="edge">
<title>Node17&#45;&gt;Node16</title>
<g id="a_edge22_Node000017_Node000016"><a xlink:title=" ">
<path fill="none" stroke="#63b8ff" d="M255.53,-249.49C299.06,-246.28 358.22,-241.06 410,-233.5 423.06,-231.59 437.05,-229.06 450.15,-226.46"/>
<polygon fill="#63b8ff" stroke="#63b8ff" points="450.8,-229.9 459.9,-224.48 449.41,-223.04 450.8,-229.9"/>
</a>
</g>
</g>
<!-- Node18 -->
<g id="Node000018" class="node">
<title>Node18</title>
<g id="a_Node000018"><a xlink:href="exif-utils_8c.html#a4b4acf537a8c6b9405e7b53be868e4d7" target="_top" xlink:title="Retrieve an ExifShort value from memory.">
<polygon fill="white" stroke="#666666" points="397.5,-300 311.5,-300 311.5,-281 397.5,-281 397.5,-300"/>
<text text-anchor="middle" x="354.5" y="-288" font-family="Helvetica,sans-Serif" font-size="10.00">exif_get_short</text>
</a>
</g>
</g>
<!-- Node17&#45;&gt;Node18 -->
<g id="edge20_Node000017_Node000018" class="edge">
<title>Node17&#45;&gt;Node18</title>
<g id="a_edge20_Node000017_Node000018"><a xlink:title=" ">
<path fill="none" stroke="#63b8ff" d="M235.65,-263.42C255.46,-267.97 279.16,-273.42 300.09,-278.23"/>
<polygon fill="#63b8ff" stroke="#63b8ff" points="299.07,-281.58 309.6,-280.41 300.64,-274.76 299.07,-281.58"/>
</a>
</g>
</g>
<!-- Node19 -->
<g id="Node000019" class="node">
<title>Node19</title>
<g id="a_Node000019"><a xlink:href="exif-utils_8c.html#a6baf094a71392f9cea23ad633ec13c8b" target="_top" xlink:title="Retrieve an ExifSShort value from memory.">
<polygon fill="white" stroke="#666666" points="551.5,-319 459.5,-319 459.5,-300 551.5,-300 551.5,-319"/>
<text text-anchor="middle" x="505.5" y="-307" font-family="Helvetica,sans-Serif" font-size="10.00">exif_get_sshort</text>
</a>
</g>
</g>
<!-- Node17&#45;&gt;Node19 -->
<g id="edge23_Node000017_Node000019" class="edge">
<title>Node17&#45;&gt;Node19</title>
<g id="a_edge23_Node000017_Node000019"><a xlink:title=" ">
<path fill="none" stroke="#63b8ff" d="M242.78,-263.46C249.82,-265.87 256.77,-268.84 263,-272.5 282.78,-284.12 277.86,-300.57 299,-309.5 346.27,-329.46 405.28,-326.99 447.93,-321"/>
<polygon fill="#63b8ff" stroke="#63b8ff" points="448.37,-324.47 457.73,-319.5 447.31,-317.55 448.37,-324.47"/>
</a>
</g>
</g>
<!-- Node18&#45;&gt;Node19 -->
<g id="edge21_Node000018_Node000019" class="edge">
<title>Node18&#45;&gt;Node19</title>
<g id="a_edge21_Node000018_Node000019"><a xlink:title=" ">
<path fill="none" stroke="#63b8ff" d="M397.8,-295.89C413.39,-297.88 431.31,-300.17 447.95,-302.29"/>
<polygon fill="#63b8ff" stroke="#63b8ff" points="447.37,-305.74 457.73,-303.54 448.25,-298.8 447.37,-305.74"/>
</a>
</g>
</g>
<!-- Node20&#45;&gt;Node16 -->
<g id="edge25_Node000020_Node000016" class="edge">
<title>Node20&#45;&gt;Node16</title>
<g id="a_edge25_Node000020_Node000016"><a xlink:title=" ">
<path fill="none" stroke="#63b8ff" d="M395.43,-187.42C413.22,-191.83 434.38,-197.09 453.31,-201.79"/>
<polygon fill="#63b8ff" stroke="#63b8ff" points="452.44,-205.18 462.99,-204.19 454.13,-198.39 452.44,-205.18"/>
</a>
</g>
</g>
<!-- Node22 -->
<g id="Node000022" class="node">
<title>Node22</title>
<g id="a_Node000022"><a xlink:href="exif-utils_8c.html#ac90147d0cc97bec7a577bf9576191bf8" target="_top" xlink:title="Store an ExifLong value into memory in EXIF format.">
<polygon fill="white" stroke="#666666" points="395.5,-150 313.5,-150 313.5,-131 395.5,-131 395.5,-150"/>
<text text-anchor="middle" x="354.5" y="-138" font-family="Helvetica,sans-Serif" font-size="10.00">exif_set_long</text>
</a>
</g>
</g>
<!-- Node21&#45;&gt;Node22 -->
<g id="edge28_Node000021_Node000022" class="edge">
<title>Node21&#45;&gt;Node22</title>
<g id="a_edge28_Node000021_Node000022"><a xlink:title=" ">
<path fill="none" stroke="#63b8ff" d="M240.81,-140.5C259.99,-140.5 282.11,-140.5 301.63,-140.5"/>
<polygon fill="#63b8ff" stroke="#63b8ff" points="301.59,-144 311.59,-140.5 301.58,-137 301.59,-144"/>
</a>
</g>
</g>
<!-- Node23 -->
<g id="Node000023" class="node">
<title>Node23</title>
<g id="a_Node000023"><a xlink:href="exif-utils_8c.html#ae6e3b9d1663f9ab9bd462d73a310ca03" target="_top" xlink:title="Store an ExifSLong value into memory in EXIF format.">
<polygon fill="white" stroke="#666666" points="549,-131 462,-131 462,-112 549,-112 549,-131"/>
<text text-anchor="middle" x="505.5" y="-119" font-family="Helvetica,sans-Serif" font-size="10.00">exif_set_slong</text>
</a>
</g>
</g>
<!-- Node22&#45;&gt;Node23 -->
<g id="edge29_Node000022_Node000023" class="edge">
<title>Node22&#45;&gt;Node23</title>
<g id="a_edge29_Node000022_Node000023"><a xlink:title=" ">
<path fill="none" stroke="#63b8ff" d="M395.82,-135.36C412.59,-133.22 432.3,-130.71 450.3,-128.41"/>
<polygon fill="#63b8ff" stroke="#63b8ff" points="450.56,-131.91 460.04,-127.17 449.67,-124.96 450.56,-131.91"/>
</a>
</g>
</g>
<!-- Node25 -->
<g id="Node000025" class="node">
<title>Node25</title>
<g id="a_Node000025"><a xlink:href="exif-utils_8c.html#a6504651147702fc6db9a5cd4aa997023" target="_top" xlink:title="Store an ExifSShort value into memory in EXIF format.">
<polygon fill="white" stroke="#666666" points="400,-74 309,-74 309,-55 400,-55 400,-74"/>
<text text-anchor="middle" x="354.5" y="-62" font-family="Helvetica,sans-Serif" font-size="10.00">exif_set_sshort</text>
</a>
</g>
</g>
<!-- Node24&#45;&gt;Node25 -->
<g id="edge31_Node000024_Node000025" class="edge">
<title>Node24&#45;&gt;Node25</title>
<g id="a_edge31_Node000024_Node000025"><a xlink:title=" ">
<path fill="none" stroke="#63b8ff" d="M234.8,-64.5C253.89,-64.5 276.72,-64.5 297.23,-64.5"/>
<polygon fill="#63b8ff" stroke="#63b8ff" points="297.15,-68 307.15,-64.5 297.15,-61 297.15,-68"/>
</a>
</g>
</g>
<!-- Node26&#45;&gt;Node23 -->
<g id="edge33_Node000026_Node000023" class="edge">
<title>Node26&#45;&gt;Node23</title>
<g id="a_edge33_Node000026_Node000023"><a xlink:title=" ">
<path fill="none" stroke="#63b8ff" d="M406.78,-109.04C420.86,-110.83 436.17,-112.79 450.41,-114.6"/>
<polygon fill="#63b8ff" stroke="#63b8ff" points="449.68,-118.04 460.05,-115.83 450.57,-111.09 449.68,-118.04"/>
</a>
</g>
</g>
<!-- Node28 -->
<g id="Node000028" class="node">
<title>Node28</title>
<g id="a_Node000028"><a xlink:href="exif-tag_8c.html#a389f8ff3411e0525b28367892f1e78d3" target="_top" xlink:title="Finds the first entry in the EXIF tag table with the given tag number using a binary search.">
<polygon fill="white" stroke="#666666" points="410,-37 299,-37 299,-18 410,-18 410,-37"/>
<text text-anchor="middle" x="354.5" y="-25" font-family="Helvetica,sans-Serif" font-size="10.00">exif_tag_table_first</text>
</a>
</g>
</g>
<!-- Node27&#45;&gt;Node28 -->
<g id="edge35_Node000027_Node000028" class="edge">
<title>Node27&#45;&gt;Node28</title>
<g id="a_edge35_Node000027_Node000028"><a xlink:title=" ">
<path fill="none" stroke="#63b8ff" d="M263.12,-27.5C271.27,-27.5 279.56,-27.5 287.65,-27.5"/>
<polygon fill="#63b8ff" stroke="#63b8ff" points="287.4,-31 297.4,-27.5 287.4,-24 287.4,-31"/>
</a>
</g>
</g>
<!-- Node29 -->
<g id="Node000029" class="node">
<title>Node29</title>
<g id="a_Node000029"><a xlink:href="exif-tag_8c.html#a87563ee64809f5f0deb4d780098508c1" target="_top" xlink:title="Return the number of entries in the EXIF tag table, including the terminating NULL entry.">
<polygon fill="white" stroke="#666666" points="565,-19 446,-19 446,0 565,0 565,-19"/>
<text text-anchor="middle" x="505.5" y="-7" font-family="Helvetica,sans-Serif" font-size="10.00">exif_tag_table_count</text>
</a>
</g>
</g>
<!-- Node28&#45;&gt;Node29 -->
<g id="edge36_Node000028_Node000029" class="edge">
<title>Node28&#45;&gt;Node29</title>
<g id="a_edge36_Node000028_Node000029"><a xlink:title=" ">
<path fill="none" stroke="#63b8ff" d="M410.14,-20.9C417.98,-19.95 426.15,-18.97 434.24,-17.99"/>
<polygon fill="#63b8ff" stroke="#63b8ff" points="434.6,-21.47 444.1,-16.8 433.76,-14.52 434.6,-21.47"/>
</a>
</g>
</g>
<!-- Node30 -->
<g id="Node000030" class="node">
<title>Node30</title>
<g id="a_Node000030"><a xlink:href="exif-tag_8c.html#a220c1b18832f113bc84ff9551754915f" target="_top" xlink:title="Compares the tag with that in entry.">
<polygon fill="white" stroke="#666666" points="539.5,-56 471.5,-56 471.5,-37 539.5,-37 539.5,-56"/>
<text text-anchor="middle" x="505.5" y="-44" font-family="Helvetica,sans-Serif" font-size="10.00">match_tag</text>
</a>
</g>
</g>
<!-- Node28&#45;&gt;Node30 -->
<g id="edge37_Node000028_Node000030" class="edge">
<title>Node28&#45;&gt;Node30</title>
<g id="a_edge37_Node000028_Node000030"><a xlink:title=" ">
<path fill="none" stroke="#63b8ff" d="M410.14,-34.47C426.58,-36.56 444.41,-38.84 460.1,-40.84"/>
<polygon fill="#63b8ff" stroke="#63b8ff" points="459.24,-44.26 469.6,-42.05 460.12,-37.31 459.24,-44.26"/>
</a>
</g>
</g>
</g>
</svg>
