<?xml version="1.0" encoding="UTF-8" standalone="no"?>
<!DOCTYPE svg PUBLIC "-//W3C//DTD SVG 1.1//EN"
 "http://www.w3.org/Graphics/SVG/1.1/DTD/svg11.dtd">
<!-- Generated by graphviz version 2.44.1 (0)
 -->
<!-- Title: exif_mnote_data_unref Pages: 1 -->
<svg width="796pt" height="84pt"
 viewBox="0.00 0.00 796.00 84.29" xmlns="http://www.w3.org/2000/svg" xmlns:xlink="http://www.w3.org/1999/xlink">
<g id="graph0" class="graph" transform="scale(1 1) rotate(0) translate(4 80.29)">
<title>exif_mnote_data_unref</title>
<polygon fill="white" stroke="transparent" points="-4,4 -4,-80.29 792,-80.29 792,4 -4,4"/>
<!-- Node1 -->
<g id="node1" class="node">
<title>Node1</title>
<g id="a_node1"><a xlink:title=" ">
<polygon fill="#bfbfbf" stroke="black" points="0,-38.5 0,-57.5 130,-57.5 130,-38.5 0,-38.5"/>
<text text-anchor="middle" x="65" y="-45.5" font-family="Helvetica,sans-Serif" font-size="10.00">exif_mnote_data_unref</text>
</a>
</g>
</g>
<!-- Node2 -->
<g id="node2" class="node">
<title>Node2</title>
<g id="a_node2"><a xlink:href="exif-mnote-data_8c.html#a2f715582f27a9821560931aeaa139abd" target="_top" xlink:title=" ">
<polygon fill="white" stroke="black" points="166,-38.5 166,-57.5 290,-57.5 290,-38.5 166,-38.5"/>
<text text-anchor="middle" x="228" y="-45.5" font-family="Helvetica,sans-Serif" font-size="10.00">exif_mnote_data_free</text>
</a>
</g>
</g>
<!-- Node1&#45;&gt;Node2 -->
<g id="edge1" class="edge">
<title>Node1&#45;&gt;Node2</title>
<path fill="none" stroke="midnightblue" d="M130.09,-48C138.45,-48 147.05,-48 155.51,-48"/>
<polygon fill="midnightblue" stroke="midnightblue" points="155.75,-51.5 165.75,-48 155.75,-44.5 155.75,-51.5"/>
</g>
<!-- Node3 -->
<g id="node3" class="node">
<title>Node3</title>
<g id="a_node3"><a xlink:href="exif-log_8c.html#a7a9b738a7429197d68c80ffedac7d8fb" target="_top" xlink:title=" ">
<polygon fill="white" stroke="black" points="326,-38.5 326,-57.5 412,-57.5 412,-38.5 326,-38.5"/>
<text text-anchor="middle" x="369" y="-45.5" font-family="Helvetica,sans-Serif" font-size="10.00">exif_log_unref</text>
</a>
</g>
</g>
<!-- Node2&#45;&gt;Node3 -->
<g id="edge2" class="edge">
<title>Node2&#45;&gt;Node3</title>
<path fill="none" stroke="midnightblue" d="M290.37,-48C298.76,-48 307.3,-48 315.51,-48"/>
<polygon fill="midnightblue" stroke="midnightblue" points="315.69,-51.5 325.69,-48 315.69,-44.5 315.69,-51.5"/>
</g>
<!-- Node5 -->
<g id="node5" class="node">
<title>Node5</title>
<g id="a_node5"><a xlink:href="exif-mem_8c.html#a43190b81b4b4bdb4ffb89bfb612051b1" target="_top" xlink:title=" ">
<polygon fill="white" stroke="black" points="697,-38.5 697,-57.5 788,-57.5 788,-38.5 697,-38.5"/>
<text text-anchor="middle" x="742.5" y="-45.5" font-family="Helvetica,sans-Serif" font-size="10.00">exif_mem_free</text>
</a>
</g>
</g>
<!-- Node2&#45;&gt;Node5 -->
<g id="edge7" class="edge">
<title>Node2&#45;&gt;Node5</title>
<path fill="none" stroke="midnightblue" d="M268.39,-57.51C285.91,-61.28 306.87,-65.14 326,-67 474.21,-81.38 512.91,-77.59 661,-62 669.42,-61.11 678.28,-59.88 686.93,-58.51"/>
<polygon fill="midnightblue" stroke="midnightblue" points="687.65,-61.94 696.94,-56.85 686.5,-55.03 687.65,-61.94"/>
</g>
<!-- Node6 -->
<g id="node6" class="node">
<title>Node6</title>
<g id="a_node6"><a xlink:href="exif-mem_8c.html#a66744e0987af08c443df247ce55f7d87" target="_top" xlink:title="Unrefcount an ExifMem.">
<polygon fill="white" stroke="black" points="564,-0.5 564,-19.5 661,-19.5 661,-0.5 564,-0.5"/>
<text text-anchor="middle" x="612.5" y="-7.5" font-family="Helvetica,sans-Serif" font-size="10.00">exif_mem_unref</text>
</a>
</g>
</g>
<!-- Node2&#45;&gt;Node6 -->
<g id="edge8" class="edge">
<title>Node2&#45;&gt;Node6</title>
<path fill="none" stroke="midnightblue" d="M271.78,-38.4C288.61,-34.95 308.13,-31.33 326,-29 404.53,-18.74 495.97,-13.89 553.79,-11.69"/>
<polygon fill="midnightblue" stroke="midnightblue" points="553.97,-15.19 563.83,-11.32 553.71,-8.19 553.97,-15.19"/>
</g>
<!-- Node4 -->
<g id="node4" class="node">
<title>Node4</title>
<g id="a_node4"><a xlink:href="exif-log_8c.html#acd0808d6d5be73f28059797c2e2e67dc" target="_top" xlink:title="Delete instance of ExifLog.">
<polygon fill="white" stroke="black" points="448,-38.5 448,-57.5 528,-57.5 528,-38.5 448,-38.5"/>
<text text-anchor="middle" x="488" y="-45.5" font-family="Helvetica,sans-Serif" font-size="10.00">exif_log_free</text>
</a>
</g>
</g>
<!-- Node3&#45;&gt;Node4 -->
<g id="edge3" class="edge">
<title>Node3&#45;&gt;Node4</title>
<path fill="none" stroke="midnightblue" d="M412.24,-48C420.52,-48 429.28,-48 437.77,-48"/>
<polygon fill="midnightblue" stroke="midnightblue" points="437.94,-51.5 447.94,-48 437.94,-44.5 437.94,-51.5"/>
</g>
<!-- Node4&#45;&gt;Node5 -->
<g id="edge4" class="edge">
<title>Node4&#45;&gt;Node5</title>
<path fill="none" stroke="midnightblue" d="M528.18,-48C570.63,-48 638.71,-48 686.51,-48"/>
<polygon fill="midnightblue" stroke="midnightblue" points="686.69,-51.5 696.69,-48 686.69,-44.5 686.69,-51.5"/>
</g>
<!-- Node4&#45;&gt;Node6 -->
<g id="edge5" class="edge">
<title>Node4&#45;&gt;Node6</title>
<path fill="none" stroke="midnightblue" d="M519.91,-38.41C535.29,-33.64 554.08,-27.81 570.63,-22.68"/>
<polygon fill="midnightblue" stroke="midnightblue" points="572.08,-25.89 580.6,-19.59 570.01,-19.21 572.08,-25.89"/>
</g>
<!-- Node6&#45;&gt;Node5 -->
<g id="edge6" class="edge">
<title>Node6&#45;&gt;Node5</title>
<path fill="none" stroke="midnightblue" d="M645.8,-19.59C662.02,-24.4 681.88,-30.3 699.29,-35.47"/>
<polygon fill="midnightblue" stroke="midnightblue" points="698.63,-38.92 709.21,-38.41 700.62,-32.21 698.63,-38.92"/>
</g>
</g>
</svg>
