<?xml version="1.0" encoding="UTF-8" standalone="no"?>
<!DOCTYPE svg PUBLIC "-//W3C//DTD SVG 1.1//EN"
 "http://www.w3.org/Graphics/SVG/1.1/DTD/svg11.dtd">
<!-- Generated by graphviz version 7.0.1 (0)
 -->
<!-- Title: exif_mnote_data_fuji_new Pages: 1 -->
<svg width="938pt" height="927pt"
 viewBox="0.00 0.00 938.00 926.50" xmlns="http://www.w3.org/2000/svg" xmlns:xlink="http://www.w3.org/1999/xlink">
<g id="graph0" class="graph" transform="scale(1 1) rotate(0) translate(4 922.5)">
<title>exif_mnote_data_fuji_new</title>
<!-- Node1 -->
<g id="Node000001" class="node">
<title>Node1</title>
<g id="a_Node000001"><a xlink:title=" ">
<polygon fill="#999999" stroke="#666666" points="146,-552.5 0,-552.5 0,-533.5 146,-533.5 146,-552.5"/>
<text text-anchor="middle" x="73" y="-540.5" font-family="Helvetica,sans-Serif" font-size="10.00">exif_mnote_data_fuji_new</text>
</a>
</g>
</g>
<!-- Node2 -->
<g id="Node000002" class="node">
<title>Node2</title>
<g id="a_Node000002"><a xlink:href="exif-mem_8c.html#a68be7c7afc8cff75adc3b1a28b5ae9a2" target="_top" xlink:title=" ">
<polygon fill="white" stroke="#666666" points="486.5,-881.5 391.5,-881.5 391.5,-862.5 486.5,-862.5 486.5,-881.5"/>
<text text-anchor="middle" x="439" y="-869.5" font-family="Helvetica,sans-Serif" font-size="10.00">exif_mem_alloc</text>
</a>
</g>
</g>
<!-- Node1&#45;&gt;Node2 -->
<g id="edge1_Node000001_Node000002" class="edge">
<title>Node1&#45;&gt;Node2</title>
<g id="a_edge1_Node000001_Node000002"><a xlink:title=" ">
<path fill="none" stroke="#63b8ff" d="M75.73,-552.58C82.57,-587.75 110.87,-711.25 182,-779 236.78,-831.17 323.07,-854.46 380.09,-864.58"/>
<polygon fill="#63b8ff" stroke="#63b8ff" points="379.5,-868.03 389.95,-866.24 380.67,-861.13 379.5,-868.03"/>
</a>
</g>
</g>
<!-- Node3 -->
<g id="Node000003" class="node">
<title>Node3</title>
<g id="a_Node000003"><a xlink:href="exif-mnote-data_8c.html#a504fc0507df0413e6356f9ab2a4e2584" target="_top" xlink:title=" ">
<polygon fill="white" stroke="#666666" points="331,-881.5 182,-881.5 182,-862.5 331,-862.5 331,-881.5"/>
<text text-anchor="middle" x="256.5" y="-869.5" font-family="Helvetica,sans-Serif" font-size="10.00">exif_mnote_data_construct</text>
</a>
</g>
</g>
<!-- Node1&#45;&gt;Node3 -->
<g id="edge2_Node000001_Node000003" class="edge">
<title>Node1&#45;&gt;Node3</title>
<g id="a_edge2_Node000001_Node000003"><a xlink:title=" ">
<path fill="none" stroke="#63b8ff" d="M75,-552.95C79.56,-593.32 101.72,-747.06 182,-836 190.15,-845.03 201.08,-852.05 212,-857.39"/>
<polygon fill="#63b8ff" stroke="#63b8ff" points="210.45,-860.53 221.01,-861.39 213.29,-854.13 210.45,-860.53"/>
</a>
</g>
</g>
<!-- Node5 -->
<g id="Node000005" class="node">
<title>Node5</title>
<g id="a_Node000005"><a xlink:href="exif-mnote-data-fuji_8c.html#a8b01b3449bab44bac36ade6f267e6e78" target="_top" xlink:title=" ">
<polygon fill="white" stroke="#666666" points="316.5,-472 196.5,-472 196.5,-442 316.5,-442 316.5,-472"/>
<text text-anchor="start" x="204.5" y="-460" font-family="Helvetica,sans-Serif" font-size="10.00">exif_mnote_data_fuji</text>
<text text-anchor="middle" x="256.5" y="-449" font-family="Helvetica,sans-Serif" font-size="10.00">_count</text>
</a>
</g>
</g>
<!-- Node1&#45;&gt;Node5 -->
<g id="edge5_Node000001_Node000005" class="edge">
<title>Node1&#45;&gt;Node5</title>
<g id="a_edge5_Node000001_Node000005"><a xlink:title=" ">
<path fill="none" stroke="#63b8ff" d="M89.26,-533.17C109.77,-520.25 147.61,-497.4 182,-482 186.29,-480.08 190.78,-478.22 195.32,-476.43"/>
<polygon fill="#63b8ff" stroke="#63b8ff" points="196.44,-479.75 204.57,-472.96 193.98,-473.2 196.44,-479.75"/>
</a>
</g>
</g>
<!-- Node6 -->
<g id="Node000006" class="node">
<title>Node6</title>
<g id="a_Node000006"><a xlink:href="exif-mnote-data-fuji_8c.html#ad282f699d52c22a676dfaafbf74e61fb" target="_top" xlink:title=" ">
<polygon fill="white" stroke="#666666" points="329,-769.5 184,-769.5 184,-750.5 329,-750.5 329,-769.5"/>
<text text-anchor="middle" x="256.5" y="-757.5" font-family="Helvetica,sans-Serif" font-size="10.00">exif_mnote_data_fuji_free</text>
</a>
</g>
</g>
<!-- Node1&#45;&gt;Node6 -->
<g id="edge6_Node000001_Node000006" class="edge">
<title>Node1&#45;&gt;Node6</title>
<g id="a_edge6_Node000001_Node000006"><a xlink:title=" ">
<path fill="none" stroke="#63b8ff" d="M76.68,-552.59C85.87,-583.67 119.04,-682.71 182,-735 187.05,-739.19 192.83,-742.7 198.9,-745.62"/>
<polygon fill="#63b8ff" stroke="#63b8ff" points="197.31,-748.75 207.88,-749.42 200.03,-742.3 197.31,-748.75"/>
</a>
</g>
</g>
<!-- Node9 -->
<g id="Node000009" class="node">
<title>Node9</title>
<g id="a_Node000009"><a xlink:href="exif-mnote-data-fuji_8c.html#a3d42b05a75a2cd6ed2da532f59338bf1" target="_top" xlink:title=" ">
<polygon fill="white" stroke="#666666" points="316.5,-424 196.5,-424 196.5,-394 316.5,-394 316.5,-424"/>
<text text-anchor="start" x="204.5" y="-412" font-family="Helvetica,sans-Serif" font-size="10.00">exif_mnote_data_fuji</text>
<text text-anchor="middle" x="256.5" y="-401" font-family="Helvetica,sans-Serif" font-size="10.00">_get_description</text>
</a>
</g>
</g>
<!-- Node1&#45;&gt;Node9 -->
<g id="edge9_Node000001_Node000009" class="edge">
<title>Node1&#45;&gt;Node9</title>
<g id="a_edge9_Node000001_Node000009"><a xlink:title=" ">
<path fill="none" stroke="#63b8ff" d="M80.95,-533.24C96.58,-511.97 136.74,-461.07 182,-433 184.13,-431.68 186.34,-430.42 188.61,-429.23"/>
<polygon fill="#63b8ff" stroke="#63b8ff" points="189.95,-432.47 197.49,-425.03 186.96,-426.14 189.95,-432.47"/>
</a>
</g>
</g>
<!-- Node11 -->
<g id="Node000011" class="node">
<title>Node11</title>
<g id="a_Node000011"><a xlink:href="exif-mnote-data-fuji_8c.html#abacb7c63f6f0e09ef55ea1f632f3c562" target="_top" xlink:title=" ">
<polygon fill="white" stroke="#666666" points="316.5,-376 196.5,-376 196.5,-346 316.5,-346 316.5,-376"/>
<text text-anchor="start" x="204.5" y="-364" font-family="Helvetica,sans-Serif" font-size="10.00">exif_mnote_data_fuji</text>
<text text-anchor="middle" x="256.5" y="-353" font-family="Helvetica,sans-Serif" font-size="10.00">_get_id</text>
</a>
</g>
</g>
<!-- Node1&#45;&gt;Node11 -->
<g id="edge11_Node000001_Node000011" class="edge">
<title>Node1&#45;&gt;Node11</title>
<g id="a_edge11_Node000001_Node000011"><a xlink:title=" ">
<path fill="none" stroke="#63b8ff" d="M77.97,-533.19C89.62,-505.61 126.44,-426.66 182,-385 183.51,-383.87 185.08,-382.78 186.7,-381.75"/>
<polygon fill="#63b8ff" stroke="#63b8ff" points="188.01,-385.02 195.05,-377.1 184.61,-378.91 188.01,-385.02"/>
</a>
</g>
</g>
<!-- Node12 -->
<g id="Node000012" class="node">
<title>Node12</title>
<g id="a_Node000012"><a xlink:href="exif-mnote-data-fuji_8c.html#ac64ff453eff340c0a9ba5e78b89517b2" target="_top" xlink:title=" ">
<polygon fill="white" stroke="#666666" points="316.5,-654 196.5,-654 196.5,-624 316.5,-624 316.5,-654"/>
<text text-anchor="start" x="204.5" y="-642" font-family="Helvetica,sans-Serif" font-size="10.00">exif_mnote_data_fuji</text>
<text text-anchor="middle" x="256.5" y="-631" font-family="Helvetica,sans-Serif" font-size="10.00">_get_name</text>
</a>
</g>
</g>
<!-- Node1&#45;&gt;Node12 -->
<g id="edge12_Node000001_Node000012" class="edge">
<title>Node1&#45;&gt;Node12</title>
<g id="a_edge12_Node000001_Node000012"><a xlink:title=" ">
<path fill="none" stroke="#63b8ff" d="M86.29,-552.83C105.65,-567.94 144.9,-597 182,-615 185.1,-616.5 188.32,-617.95 191.6,-619.33"/>
<polygon fill="#63b8ff" stroke="#63b8ff" points="190.23,-622.55 200.81,-622.96 192.79,-616.04 190.23,-622.55"/>
</a>
</g>
</g>
<!-- Node14 -->
<g id="Node000014" class="node">
<title>Node14</title>
<g id="a_Node000014"><a xlink:href="exif-mnote-data-fuji_8c.html#a05d768432bf19ec663b78d4eb4199d38" target="_top" xlink:title=" ">
<polygon fill="white" stroke="#666666" points="316.5,-328 196.5,-328 196.5,-298 316.5,-298 316.5,-328"/>
<text text-anchor="start" x="204.5" y="-316" font-family="Helvetica,sans-Serif" font-size="10.00">exif_mnote_data_fuji</text>
<text text-anchor="middle" x="256.5" y="-305" font-family="Helvetica,sans-Serif" font-size="10.00">_get_title</text>
</a>
</g>
</g>
<!-- Node1&#45;&gt;Node14 -->
<g id="edge14_Node000001_Node000014" class="edge">
<title>Node1&#45;&gt;Node14</title>
<g id="a_edge14_Node000001_Node000014"><a xlink:title=" ">
<path fill="none" stroke="#63b8ff" d="M76.32,-533.15C84.59,-500.25 115.7,-393.05 182,-337 183.48,-335.75 185.03,-334.56 186.63,-333.44"/>
<polygon fill="#63b8ff" stroke="#63b8ff" points="188.23,-336.56 195.01,-328.42 184.63,-330.55 188.23,-336.56"/>
</a>
</g>
</g>
<!-- Node16 -->
<g id="Node000016" class="node">
<title>Node16</title>
<g id="a_Node000016"><a xlink:href="exif-mnote-data-fuji_8c.html#ae3b4f8621d8f553088c81c2b2faf7652" target="_top" xlink:title=" ">
<polygon fill="white" stroke="#666666" points="316.5,-606 196.5,-606 196.5,-576 316.5,-576 316.5,-606"/>
<text text-anchor="start" x="204.5" y="-594" font-family="Helvetica,sans-Serif" font-size="10.00">exif_mnote_data_fuji</text>
<text text-anchor="middle" x="256.5" y="-583" font-family="Helvetica,sans-Serif" font-size="10.00">_get_value</text>
</a>
</g>
</g>
<!-- Node1&#45;&gt;Node16 -->
<g id="edge16_Node000001_Node000016" class="edge">
<title>Node1&#45;&gt;Node16</title>
<g id="a_edge16_Node000001_Node000016"><a xlink:title=" ">
<path fill="none" stroke="#63b8ff" d="M111.61,-552.95C133.13,-558.64 160.82,-565.96 186.15,-572.66"/>
<polygon fill="#63b8ff" stroke="#63b8ff" points="185.18,-576.02 195.75,-575.2 186.97,-569.26 185.18,-576.02"/>
</a>
</g>
</g>
<!-- Node24 -->
<g id="Node000024" class="node">
<title>Node24</title>
<g id="a_Node000024"><a xlink:href="exif-mnote-data-fuji_8c.html#a1d5da1c769e40ac0cc2f95804676a9a5" target="_top" xlink:title=" ">
<polygon fill="white" stroke="#666666" points="329.5,-725.5 183.5,-725.5 183.5,-706.5 329.5,-706.5 329.5,-725.5"/>
<text text-anchor="middle" x="256.5" y="-713.5" font-family="Helvetica,sans-Serif" font-size="10.00">exif_mnote_data_fuji_load</text>
</a>
</g>
</g>
<!-- Node1&#45;&gt;Node24 -->
<g id="edge28_Node000001_Node000024" class="edge">
<title>Node1&#45;&gt;Node24</title>
<g id="a_edge28_Node000001_Node000024"><a xlink:title=" ">
<path fill="none" stroke="#63b8ff" d="M81.76,-552.98C98.68,-574.42 140.7,-625.94 182,-663 197.13,-676.57 215.7,-689.94 230.4,-699.86"/>
<polygon fill="#63b8ff" stroke="#63b8ff" points="228.33,-702.69 238.6,-705.3 232.2,-696.85 228.33,-702.69"/>
</a>
</g>
</g>
<!-- Node28 -->
<g id="Node000028" class="node">
<title>Node28</title>
<g id="a_Node000028"><a xlink:href="exif-mnote-data-fuji_8c.html#a74ad9a2de52f9cef8e9ec0a5c7ec26ac" target="_top" xlink:title=" ">
<polygon fill="white" stroke="#666666" points="331,-509.5 182,-509.5 182,-490.5 331,-490.5 331,-509.5"/>
<text text-anchor="middle" x="256.5" y="-497.5" font-family="Helvetica,sans-Serif" font-size="10.00">exif_mnote_data_fuji_save</text>
</a>
</g>
</g>
<!-- Node1&#45;&gt;Node28 -->
<g id="edge37_Node000001_Node000028" class="edge">
<title>Node1&#45;&gt;Node28</title>
<g id="a_edge37_Node000001_Node000028"><a xlink:title=" ">
<path fill="none" stroke="#63b8ff" d="M116.1,-533.03C141.77,-526.94 174.83,-519.11 202.31,-512.6"/>
<polygon fill="#63b8ff" stroke="#63b8ff" points="202.92,-516.05 211.85,-510.34 201.31,-509.24 202.92,-516.05"/>
</a>
</g>
</g>
<!-- Node34 -->
<g id="Node000034" class="node">
<title>Node34</title>
<g id="a_Node000034"><a xlink:href="exif-mnote-data-fuji_8c.html#ae26a761ead33e72d0c19770c98b6d014" target="_top" xlink:title=" ">
<polygon fill="white" stroke="#666666" points="316.5,-558 196.5,-558 196.5,-528 316.5,-528 316.5,-558"/>
<text text-anchor="start" x="204.5" y="-546" font-family="Helvetica,sans-Serif" font-size="10.00">exif_mnote_data_fuji</text>
<text text-anchor="middle" x="256.5" y="-535" font-family="Helvetica,sans-Serif" font-size="10.00">_set_byte_order</text>
</a>
</g>
</g>
<!-- Node1&#45;&gt;Node34 -->
<g id="edge45_Node000001_Node000034" class="edge">
<title>Node1&#45;&gt;Node34</title>
<g id="a_edge45_Node000001_Node000034"><a xlink:title=" ">
<path fill="none" stroke="#63b8ff" d="M146.26,-543C158.89,-543 172.03,-543 184.64,-543"/>
<polygon fill="#63b8ff" stroke="#63b8ff" points="184.51,-546.5 194.51,-543 184.51,-539.5 184.51,-546.5"/>
</a>
</g>
</g>
<!-- Node38 -->
<g id="Node000038" class="node">
<title>Node38</title>
<g id="a_Node000038"><a xlink:href="exif-mnote-data-fuji_8c.html#a2b05c9bad8947095e92dcf0b58d0b07b" target="_top" xlink:title=" ">
<polygon fill="white" stroke="#666666" points="316.5,-280 196.5,-280 196.5,-250 316.5,-250 316.5,-280"/>
<text text-anchor="start" x="204.5" y="-268" font-family="Helvetica,sans-Serif" font-size="10.00">exif_mnote_data_fuji</text>
<text text-anchor="middle" x="256.5" y="-257" font-family="Helvetica,sans-Serif" font-size="10.00">_set_offset</text>
</a>
</g>
</g>
<!-- Node1&#45;&gt;Node38 -->
<g id="edge63_Node000001_Node000038" class="edge">
<title>Node1&#45;&gt;Node38</title>
<g id="a_edge63_Node000001_Node000038"><a xlink:title=" ">
<path fill="none" stroke="#63b8ff" d="M75.27,-533.06C80.61,-495.39 104.66,-359.93 182,-289 183.46,-287.66 185,-286.39 186.6,-285.2"/>
<polygon fill="#63b8ff" stroke="#63b8ff" points="188.45,-288.17 195.08,-279.9 184.74,-282.23 188.45,-288.17"/>
</a>
</g>
</g>
<!-- Node3&#45;&gt;Node2 -->
<g id="edge3_Node000003_Node000002" class="edge">
<title>Node3&#45;&gt;Node2</title>
<g id="a_edge3_Node000003_Node000002"><a xlink:title=" ">
<path fill="none" stroke="#63b8ff" d="M331.44,-872C347.5,-872 364.27,-872 379.63,-872"/>
<polygon fill="#63b8ff" stroke="#63b8ff" points="379.55,-875.5 389.55,-872 379.55,-868.5 379.55,-875.5"/>
</a>
</g>
</g>
<!-- Node4 -->
<g id="Node000004" class="node">
<title>Node4</title>
<g id="a_Node000004"><a xlink:href="exif-mem_8c.html#af28c61972f529be46907956e0b3e7a60" target="_top" xlink:title="Refcount an ExifMem.">
<polygon fill="white" stroke="#666666" points="481.5,-918.5 396.5,-918.5 396.5,-899.5 481.5,-899.5 481.5,-918.5"/>
<text text-anchor="middle" x="439" y="-906.5" font-family="Helvetica,sans-Serif" font-size="10.00">exif_mem_ref</text>
</a>
</g>
</g>
<!-- Node3&#45;&gt;Node4 -->
<g id="edge4_Node000003_Node000004" class="edge">
<title>Node3&#45;&gt;Node4</title>
<g id="a_edge4_Node000003_Node000004"><a xlink:title=" ">
<path fill="none" stroke="#63b8ff" d="M305.87,-881.92C330.32,-886.93 360.04,-893.02 385.1,-898.16"/>
<polygon fill="#63b8ff" stroke="#63b8ff" points="384.26,-901.56 394.76,-900.14 385.67,-894.7 384.26,-901.56"/>
</a>
</g>
</g>
<!-- Node7 -->
<g id="Node000007" class="node">
<title>Node7</title>
<g id="a_Node000007"><a xlink:href="exif-mnote-data-fuji_8c.html#ad97d8d547619a920d374e179be91282c" target="_top" xlink:title=" ">
<polygon fill="white" stroke="#666666" points="499,-844 379,-844 379,-814 499,-814 499,-844"/>
<text text-anchor="start" x="387" y="-832" font-family="Helvetica,sans-Serif" font-size="10.00">exif_mnote_data_fuji</text>
<text text-anchor="middle" x="439" y="-821" font-family="Helvetica,sans-Serif" font-size="10.00">_clear</text>
</a>
</g>
</g>
<!-- Node6&#45;&gt;Node7 -->
<g id="edge7_Node000006_Node000007" class="edge">
<title>Node6&#45;&gt;Node7</title>
<g id="a_edge7_Node000006_Node000007"><a xlink:title=" ">
<path fill="none" stroke="#63b8ff" d="M280.4,-769.91C302.44,-779.33 336.78,-793.69 367,-805 371.32,-806.62 375.8,-808.24 380.32,-809.85"/>
<polygon fill="#63b8ff" stroke="#63b8ff" points="378.85,-813.04 389.45,-813.04 381.16,-806.44 378.85,-813.04"/>
</a>
</g>
</g>
<!-- Node8 -->
<g id="Node000008" class="node">
<title>Node8</title>
<g id="a_Node000008"><a xlink:href="exif-mem_8c.html#a43190b81b4b4bdb4ffb89bfb612051b1" target="_top" xlink:title=" ">
<polygon fill="white" stroke="#666666" points="652,-838.5 561,-838.5 561,-819.5 652,-819.5 652,-838.5"/>
<text text-anchor="middle" x="606.5" y="-826.5" font-family="Helvetica,sans-Serif" font-size="10.00">exif_mem_free</text>
</a>
</g>
</g>
<!-- Node7&#45;&gt;Node8 -->
<g id="edge8_Node000007_Node000008" class="edge">
<title>Node7&#45;&gt;Node8</title>
<g id="a_edge8_Node000007_Node000008"><a xlink:title=" ">
<path fill="none" stroke="#63b8ff" d="M499.28,-829C515.55,-829 533.14,-829 549.24,-829"/>
<polygon fill="#63b8ff" stroke="#63b8ff" points="549.14,-832.5 559.14,-829 549.14,-825.5 549.14,-832.5"/>
</a>
</g>
</g>
<!-- Node10 -->
<g id="Node000010" class="node">
<title>Node10</title>
<g id="a_Node000010"><a xlink:href="mnote-fuji-tag_8c.html#af0ddcb8496466247d8dbc82ad23f9a21" target="_top" xlink:title=" ">
<polygon fill="white" stroke="#666666" points="494.5,-78 383.5,-78 383.5,-48 494.5,-48 494.5,-78"/>
<text text-anchor="start" x="391.5" y="-66" font-family="Helvetica,sans-Serif" font-size="10.00">mnote_fuji_tag_get</text>
<text text-anchor="middle" x="439" y="-55" font-family="Helvetica,sans-Serif" font-size="10.00">_description</text>
</a>
</g>
</g>
<!-- Node9&#45;&gt;Node10 -->
<g id="edge10_Node000009_Node000010" class="edge">
<title>Node9&#45;&gt;Node10</title>
<g id="a_edge10_Node000009_Node000010"><a xlink:title=" ">
<path fill="none" stroke="#63b8ff" d="M316.81,-396.67C322.19,-393.6 327.08,-389.77 331,-385 414.38,-283.7 287.32,-196.24 367,-92 369.05,-89.32 371.38,-86.89 373.93,-84.68"/>
<polygon fill="#63b8ff" stroke="#63b8ff" points="375.96,-87.54 382.07,-78.88 371.89,-81.84 375.96,-87.54"/>
</a>
</g>
</g>
<!-- Node13 -->
<g id="Node000013" class="node">
<title>Node13</title>
<g id="a_Node000013"><a xlink:href="mnote-fuji-tag_8c.html#a259cd671430ac55895eec4cd9235028a" target="_top" xlink:title=" ">
<polygon fill="white" stroke="#666666" points="511,-643.5 367,-643.5 367,-624.5 511,-624.5 511,-643.5"/>
<text text-anchor="middle" x="439" y="-631.5" font-family="Helvetica,sans-Serif" font-size="10.00">mnote_fuji_tag_get_name</text>
</a>
</g>
</g>
<!-- Node12&#45;&gt;Node13 -->
<g id="edge13_Node000012_Node000013" class="edge">
<title>Node12&#45;&gt;Node13</title>
<g id="a_edge13_Node000012_Node000013"><a xlink:title=" ">
<path fill="none" stroke="#63b8ff" d="M316.85,-637.36C329.17,-637.01 342.36,-636.65 355.34,-636.29"/>
<polygon fill="#63b8ff" stroke="#63b8ff" points="355.26,-639.79 365.16,-636.02 355.06,-632.8 355.26,-639.79"/>
</a>
</g>
</g>
<!-- Node15 -->
<g id="Node000015" class="node">
<title>Node15</title>
<g id="a_Node000015"><a xlink:href="mnote-fuji-tag_8c.html#adb4592a7e36b0ed03fccc25574dcbdc0" target="_top" xlink:title=" ">
<polygon fill="white" stroke="#666666" points="494.5,-30 383.5,-30 383.5,0 494.5,0 494.5,-30"/>
<text text-anchor="start" x="391.5" y="-18" font-family="Helvetica,sans-Serif" font-size="10.00">mnote_fuji_tag_get</text>
<text text-anchor="middle" x="439" y="-7" font-family="Helvetica,sans-Serif" font-size="10.00">_title</text>
</a>
</g>
</g>
<!-- Node14&#45;&gt;Node15 -->
<g id="edge15_Node000014_Node000015" class="edge">
<title>Node14&#45;&gt;Node15</title>
<g id="a_edge15_Node000014_Node000015"><a xlink:title=" ">
<path fill="none" stroke="#63b8ff" d="M316.71,-300.59C322.11,-297.53 327.03,-293.73 331,-289 403.24,-203.08 295.21,-125.3 367,-39 369,-36.6 371.25,-34.44 373.68,-32.49"/>
<polygon fill="#63b8ff" stroke="#63b8ff" points="375.42,-35.53 381.92,-27.16 371.62,-29.65 375.42,-35.53"/>
</a>
</g>
</g>
<!-- Node17 -->
<g id="Node000017" class="node">
<title>Node17</title>
<g id="a_Node000017"><a xlink:href="mnote-fuji-entry_8c.html#ae8881087b707c3c3d1d2fa98b38df2d4" target="_top" xlink:title=" ">
<polygon fill="white" stroke="#666666" points="499.5,-606 378.5,-606 378.5,-576 499.5,-576 499.5,-606"/>
<text text-anchor="start" x="386.5" y="-594" font-family="Helvetica,sans-Serif" font-size="10.00">mnote_fuji_entry_get</text>
<text text-anchor="middle" x="439" y="-583" font-family="Helvetica,sans-Serif" font-size="10.00">_value</text>
</a>
</g>
</g>
<!-- Node16&#45;&gt;Node17 -->
<g id="edge17_Node000016_Node000017" class="edge">
<title>Node16&#45;&gt;Node17</title>
<g id="a_edge17_Node000016_Node000017"><a xlink:title=" ">
<path fill="none" stroke="#63b8ff" d="M316.85,-591C332.88,-591 350.39,-591 366.99,-591"/>
<polygon fill="#63b8ff" stroke="#63b8ff" points="366.79,-594.5 376.79,-591 366.79,-587.5 366.79,-594.5"/>
</a>
</g>
</g>
<!-- Node18 -->
<g id="Node000018" class="node">
<title>Node18</title>
<g id="a_Node000018"><a xlink:href="exif-utils_8c.html#a4ad94614630897766dd0a5c9bc2a59bf" target="_top" xlink:title="Retrieve an ExifLong value from memory.">
<polygon fill="white" stroke="#666666" points="795.5,-719.5 712.5,-719.5 712.5,-700.5 795.5,-700.5 795.5,-719.5"/>
<text text-anchor="middle" x="754" y="-707.5" font-family="Helvetica,sans-Serif" font-size="10.00">exif_get_long</text>
</a>
</g>
</g>
<!-- Node17&#45;&gt;Node18 -->
<g id="edge18_Node000017_Node000018" class="edge">
<title>Node17&#45;&gt;Node18</title>
<g id="a_edge18_Node000017_Node000018"><a xlink:title=" ">
<path fill="none" stroke="#63b8ff" d="M496.87,-606.45C501.95,-609.15 506.76,-612.31 511,-616 537.37,-638.99 518.24,-666.08 547,-686 592.06,-717.22 656.38,-719.79 701.12,-716.75"/>
<polygon fill="#63b8ff" stroke="#63b8ff" points="701.14,-720.26 710.82,-715.97 700.58,-713.29 701.14,-720.26"/>
</a>
</g>
</g>
<!-- Node19 -->
<g id="Node000019" class="node">
<title>Node19</title>
<g id="a_Node000019"><a xlink:href="exif-utils_8c.html#a56b96f076a13da6ed926e1ef29cb2dc3" target="_top" xlink:title="Retrieve an ExifSLong value from memory.">
<polygon fill="white" stroke="#666666" points="930,-605.5 842,-605.5 842,-586.5 930,-586.5 930,-605.5"/>
<text text-anchor="middle" x="886" y="-593.5" font-family="Helvetica,sans-Serif" font-size="10.00">exif_get_slong</text>
</a>
</g>
</g>
<!-- Node17&#45;&gt;Node19 -->
<g id="edge24_Node000017_Node000019" class="edge">
<title>Node17&#45;&gt;Node19</title>
<g id="a_edge24_Node000017_Node000019"><a xlink:title=" ">
<path fill="none" stroke="#63b8ff" d="M485.21,-606.49C493.81,-609.56 502.7,-612.81 511,-616 527.18,-622.21 530,-627.6 547,-631 651.23,-651.85 776.18,-626.01 841.05,-608.88"/>
<polygon fill="#63b8ff" stroke="#63b8ff" points="841.86,-612.28 850.6,-606.29 840.04,-605.52 841.86,-612.28"/>
</a>
</g>
</g>
<!-- Node20 -->
<g id="Node000020" class="node">
<title>Node20</title>
<g id="a_Node000020"><a xlink:href="exif-utils_8c.html#a1feb547c289aa57a4d2119338b03706c" target="_top" xlink:title="Retrieve an ExifRational value from memory.">
<polygon fill="white" stroke="#666666" points="656,-531.5 557,-531.5 557,-512.5 656,-512.5 656,-531.5"/>
<text text-anchor="middle" x="606.5" y="-519.5" font-family="Helvetica,sans-Serif" font-size="10.00">exif_get_rational</text>
</a>
</g>
</g>
<!-- Node17&#45;&gt;Node20 -->
<g id="edge20_Node000017_Node000020" class="edge">
<title>Node17&#45;&gt;Node20</title>
<g id="a_edge20_Node000017_Node000020"><a xlink:title=" ">
<path fill="none" stroke="#63b8ff" d="M470.46,-575.54C491.64,-565.1 520.68,-551.38 547,-541 551.71,-539.14 556.68,-537.32 561.66,-535.59"/>
<polygon fill="#63b8ff" stroke="#63b8ff" points="562.66,-538.94 571.02,-532.43 560.42,-532.31 562.66,-538.94"/>
</a>
</g>
</g>
<!-- Node21 -->
<g id="Node000021" class="node">
<title>Node21</title>
<g id="a_Node000021"><a xlink:href="exif-utils_8c.html#a4b4acf537a8c6b9405e7b53be868e4d7" target="_top" xlink:title="Retrieve an ExifShort value from memory.">
<polygon fill="white" stroke="#666666" points="649.5,-605.5 563.5,-605.5 563.5,-586.5 649.5,-586.5 649.5,-605.5"/>
<text text-anchor="middle" x="606.5" y="-593.5" font-family="Helvetica,sans-Serif" font-size="10.00">exif_get_short</text>
</a>
</g>
</g>
<!-- Node17&#45;&gt;Node21 -->
<g id="edge22_Node000017_Node000021" class="edge">
<title>Node17&#45;&gt;Node21</title>
<g id="a_edge22_Node000017_Node000021"><a xlink:title=" ">
<path fill="none" stroke="#63b8ff" d="M499.75,-592.81C516.83,-593.32 535.32,-593.88 552,-594.38"/>
<polygon fill="#63b8ff" stroke="#63b8ff" points="551.6,-597.87 561.7,-594.68 551.81,-590.88 551.6,-597.87"/>
</a>
</g>
</g>
<!-- Node22 -->
<g id="Node000022" class="node">
<title>Node22</title>
<g id="a_Node000022"><a xlink:href="exif-utils_8c.html#a6baf094a71392f9cea23ad633ec13c8b" target="_top" xlink:title="Retrieve an ExifSShort value from memory.">
<polygon fill="white" stroke="#666666" points="800,-605.5 708,-605.5 708,-586.5 800,-586.5 800,-605.5"/>
<text text-anchor="middle" x="754" y="-593.5" font-family="Helvetica,sans-Serif" font-size="10.00">exif_get_sshort</text>
</a>
</g>
</g>
<!-- Node17&#45;&gt;Node22 -->
<g id="edge27_Node000017_Node000022" class="edge">
<title>Node17&#45;&gt;Node22</title>
<g id="a_edge27_Node000017_Node000022"><a xlink:title=" ">
<path fill="none" stroke="#63b8ff" d="M498.19,-606.5C513.92,-610.01 531.01,-613.23 547,-615 599.57,-620.82 613.42,-620.68 666,-615 678.71,-613.63 692.29,-611.16 704.84,-608.45"/>
<polygon fill="#63b8ff" stroke="#63b8ff" points="705.58,-611.87 714.56,-606.25 704.03,-605.04 705.58,-611.87"/>
</a>
</g>
</g>
<!-- Node23 -->
<g id="Node000023" class="node">
<title>Node23</title>
<g id="a_Node000023"><a xlink:href="exif-utils_8c.html#adb97c3499488d5642a82df1cb16dc2cb" target="_top" xlink:title="Retrieve an ExifSRational value from memory.">
<polygon fill="white" stroke="#666666" points="658.5,-494.5 554.5,-494.5 554.5,-475.5 658.5,-475.5 658.5,-494.5"/>
<text text-anchor="middle" x="606.5" y="-482.5" font-family="Helvetica,sans-Serif" font-size="10.00">exif_get_srational</text>
</a>
</g>
</g>
<!-- Node17&#45;&gt;Node23 -->
<g id="edge25_Node000017_Node000023" class="edge">
<title>Node17&#45;&gt;Node23</title>
<g id="a_edge25_Node000017_Node000023"><a xlink:title=" ">
<path fill="none" stroke="#63b8ff" d="M454.98,-575.74C474.54,-556.57 510.62,-523.8 547,-504 550.24,-502.24 553.66,-500.61 557.17,-499.1"/>
<polygon fill="#63b8ff" stroke="#63b8ff" points="558.35,-502.4 566.41,-495.51 555.82,-495.87 558.35,-502.4"/>
</a>
</g>
</g>
<!-- Node18&#45;&gt;Node19 -->
<g id="edge19_Node000018_Node000019" class="edge">
<title>Node18&#45;&gt;Node19</title>
<g id="a_edge19_Node000018_Node000019"><a xlink:title=" ">
<path fill="none" stroke="#63b8ff" d="M781.33,-700.09C789.63,-696.34 798.57,-691.59 806,-686 833.02,-665.67 857.6,-634.84 871.93,-615.06"/>
<polygon fill="#63b8ff" stroke="#63b8ff" points="874.66,-617.26 877.57,-607.08 868.94,-613.22 874.66,-617.26"/>
</a>
</g>
</g>
<!-- Node20&#45;&gt;Node18 -->
<g id="edge21_Node000020_Node000018" class="edge">
<title>Node20&#45;&gt;Node18</title>
<g id="a_edge21_Node000020_Node000018"><a xlink:title=" ">
<path fill="none" stroke="#63b8ff" d="M651.46,-531.89C656.72,-534.29 661.73,-537.29 666,-541 693.59,-565.01 685.35,-582.44 702,-615 715.39,-641.19 731.56,-671.03 742.05,-690.16"/>
<polygon fill="#63b8ff" stroke="#63b8ff" points="738.89,-691.68 746.78,-698.76 745.03,-688.31 738.89,-691.68"/>
</a>
</g>
</g>
<!-- Node21&#45;&gt;Node22 -->
<g id="edge23_Node000021_Node000022" class="edge">
<title>Node21&#45;&gt;Node22</title>
<g id="a_edge23_Node000021_Node000022"><a xlink:title=" ">
<path fill="none" stroke="#63b8ff" d="M649.98,-596C664.56,-596 681.11,-596 696.62,-596"/>
<polygon fill="#63b8ff" stroke="#63b8ff" points="696.17,-599.5 706.17,-596 696.17,-592.5 696.17,-599.5"/>
</a>
</g>
</g>
<!-- Node23&#45;&gt;Node19 -->
<g id="edge26_Node000023_Node000019" class="edge">
<title>Node23&#45;&gt;Node19</title>
<g id="a_edge26_Node000023_Node000019"><a xlink:title=" ">
<path fill="none" stroke="#63b8ff" d="M639.85,-494.97C648.4,-497.75 657.59,-500.87 666,-504 733.39,-529.05 810.55,-562.64 852.93,-581.53"/>
<polygon fill="#63b8ff" stroke="#63b8ff" points="851.23,-584.61 861.79,-585.5 854.09,-578.22 851.23,-584.61"/>
</a>
</g>
</g>
<!-- Node24&#45;&gt;Node2 -->
<g id="edge34_Node000024_Node000002" class="edge">
<title>Node24&#45;&gt;Node2</title>
<g id="a_edge34_Node000024_Node000002"><a xlink:title=" ">
<path fill="none" stroke="#63b8ff" d="M305.53,-725.86C314.92,-729.63 324.01,-734.82 331,-742 367.19,-779.15 329.38,-817.3 367,-853 370.96,-856.76 375.57,-859.79 380.51,-862.23"/>
<polygon fill="#63b8ff" stroke="#63b8ff" points="379.03,-865.41 389.61,-865.9 381.65,-858.91 379.03,-865.41"/>
</a>
</g>
</g>
<!-- Node24&#45;&gt;Node7 -->
<g id="edge35_Node000024_Node000007" class="edge">
<title>Node24&#45;&gt;Node7</title>
<g id="a_edge35_Node000024_Node000007"><a xlink:title=" ">
<path fill="none" stroke="#63b8ff" d="M301.78,-725.99C312.14,-729.79 322.59,-734.97 331,-742 355.75,-762.67 342.1,-784.5 367,-805 368.13,-805.93 369.3,-806.83 370.5,-807.69"/>
<polygon fill="#63b8ff" stroke="#63b8ff" points="368.59,-810.62 378.95,-812.85 372.24,-804.65 368.59,-810.62"/>
</a>
</g>
</g>
<!-- Node24&#45;&gt;Node13 -->
<g id="edge36_Node000024_Node000013" class="edge">
<title>Node24&#45;&gt;Node13</title>
<g id="a_edge36_Node000024_Node000013"><a xlink:title=" ">
<path fill="none" stroke="#63b8ff" d="M274.15,-706.09C295.27,-693.78 333.01,-672.63 367,-658 375.67,-654.27 385.12,-650.73 394.22,-647.56"/>
<polygon fill="#63b8ff" stroke="#63b8ff" points="395.27,-650.9 403.63,-644.39 393.04,-644.27 395.27,-650.9"/>
</a>
</g>
</g>
<!-- Node24&#45;&gt;Node18 -->
<g id="edge30_Node000024_Node000018" class="edge">
<title>Node24&#45;&gt;Node18</title>
<g id="a_edge30_Node000024_Node000018"><a xlink:title=" ">
<path fill="none" stroke="#63b8ff" d="M329.83,-717.02C411.5,-717.9 548.32,-718.52 666,-715 677.34,-714.66 689.51,-714.09 701.04,-713.45"/>
<polygon fill="#63b8ff" stroke="#63b8ff" points="701.01,-716.96 710.79,-712.89 700.6,-709.97 701.01,-716.96"/>
</a>
</g>
</g>
<!-- Node24&#45;&gt;Node21 -->
<g id="edge31_Node000024_Node000021" class="edge">
<title>Node24&#45;&gt;Node21</title>
<g id="a_edge31_Node000024_Node000021"><a xlink:title=" ">
<path fill="none" stroke="#63b8ff" d="M329.93,-719.38C382.53,-719.05 454.15,-712.72 511,-686 545.34,-669.86 575.19,-636.32 591.73,-615.05"/>
<polygon fill="#63b8ff" stroke="#63b8ff" points="594.43,-617.29 597.65,-607.2 588.83,-613.08 594.43,-617.29"/>
</a>
</g>
</g>
<!-- Node25 -->
<g id="Node000025" class="node">
<title>Node25</title>
<g id="a_Node000025"><a xlink:href="exif-format_8c.html#a924038efe0cd8ebade8f44619dd794f3" target="_top" xlink:title="Return the raw size of the given EXIF data type.">
<polygon fill="white" stroke="#666666" points="666,-568.5 547,-568.5 547,-549.5 666,-549.5 666,-568.5"/>
<text text-anchor="middle" x="606.5" y="-556.5" font-family="Helvetica,sans-Serif" font-size="10.00">exif_format_get_size</text>
</a>
</g>
</g>
<!-- Node24&#45;&gt;Node25 -->
<g id="edge29_Node000024_Node000025" class="edge">
<title>Node24&#45;&gt;Node25</title>
<g id="a_edge29_Node000024_Node000025"><a xlink:title=" ">
<path fill="none" stroke="#63b8ff" d="M292.41,-706.03C313.87,-700 341.96,-692.3 367,-686 430.68,-669.99 459.71,-693.99 511,-653 539.88,-629.92 519.17,-602.34 547,-578 548.46,-576.72 550.02,-575.52 551.64,-574.41"/>
<polygon fill="#63b8ff" stroke="#63b8ff" points="553.19,-577.55 560.2,-569.61 549.77,-571.45 553.19,-577.55"/>
</a>
</g>
</g>
<!-- Node26 -->
<g id="Node000026" class="node">
<title>Node26</title>
<g id="a_Node000026"><a xlink:href="exif-log_8c.html#a025d4a5d96544913ea6f6ebbec69cb68" target="_top" xlink:title=" ">
<polygon fill="white" stroke="#666666" points="467,-795.5 411,-795.5 411,-776.5 467,-776.5 467,-795.5"/>
<text text-anchor="middle" x="439" y="-783.5" font-family="Helvetica,sans-Serif" font-size="10.00">exif_log</text>
</a>
</g>
</g>
<!-- Node24&#45;&gt;Node26 -->
<g id="edge32_Node000024_Node000026" class="edge">
<title>Node24&#45;&gt;Node26</title>
<g id="a_edge32_Node000024_Node000026"><a xlink:title=" ">
<path fill="none" stroke="#63b8ff" d="M289.43,-726C302.51,-730.43 317.67,-735.99 331,-742 347.69,-749.52 350.26,-754.59 367,-762 377.42,-766.61 389.02,-770.88 399.77,-774.49"/>
<polygon fill="#63b8ff" stroke="#63b8ff" points="398.56,-777.78 409.15,-777.54 400.72,-771.12 398.56,-777.78"/>
</a>
</g>
</g>
<!-- Node27 -->
<g id="Node000027" class="node">
<title>Node27</title>
<g id="a_Node000027"><a xlink:href="exif-log_8c.html#a99101b5ad01b2d82ce9d43c9e8534627" target="_top" xlink:title=" ">
<polygon fill="white" stroke="#666666" points="637.5,-795.5 575.5,-795.5 575.5,-776.5 637.5,-776.5 637.5,-795.5"/>
<text text-anchor="middle" x="606.5" y="-783.5" font-family="Helvetica,sans-Serif" font-size="10.00">exif_logv</text>
</a>
</g>
</g>
<!-- Node26&#45;&gt;Node27 -->
<g id="edge33_Node000026_Node000027" class="edge">
<title>Node26&#45;&gt;Node27</title>
<g id="a_edge33_Node000026_Node000027"><a xlink:title=" ">
<path fill="none" stroke="#63b8ff" d="M467.33,-786C493.51,-786 533.38,-786 563.58,-786"/>
<polygon fill="#63b8ff" stroke="#63b8ff" points="563.53,-789.5 573.53,-786 563.53,-782.5 563.53,-789.5"/>
</a>
</g>
</g>
<!-- Node28&#45;&gt;Node2 -->
<g id="edge39_Node000028_Node000002" class="edge">
<title>Node28&#45;&gt;Node2</title>
<g id="a_edge39_Node000028_Node000002"><a xlink:title=" ">
<path fill="none" stroke="#63b8ff" d="M319.84,-509.82C324.01,-512.29 327.81,-515.31 331,-519 428.62,-631.97 269.87,-739.61 367,-853 370.79,-857.43 375.5,-860.88 380.66,-863.57"/>
<polygon fill="#63b8ff" stroke="#63b8ff" points="379.07,-866.7 389.65,-867.26 381.73,-860.22 379.07,-866.7"/>
</a>
</g>
</g>
<!-- Node28&#45;&gt;Node25 -->
<g id="edge38_Node000028_Node000025" class="edge">
<title>Node28&#45;&gt;Node25</title>
<g id="a_edge38_Node000028_Node000025"><a xlink:title=" ">
<path fill="none" stroke="#63b8ff" d="M316.14,-509.94C376.62,-520.2 470.96,-536.19 535.36,-547.11"/>
<polygon fill="#63b8ff" stroke="#63b8ff" points="534.68,-550.54 545.13,-548.76 535.85,-543.64 534.68,-550.54"/>
</a>
</g>
</g>
<!-- Node29 -->
<g id="Node000029" class="node">
<title>Node29</title>
<g id="a_Node000029"><a xlink:href="exif-mem_8c.html#a7302da5374a74202e03a781b7c4b7ebe" target="_top" xlink:title=" ">
<polygon fill="white" stroke="#666666" points="491,-375.5 387,-375.5 387,-356.5 491,-356.5 491,-375.5"/>
<text text-anchor="middle" x="439" y="-363.5" font-family="Helvetica,sans-Serif" font-size="10.00">exif_mem_realloc</text>
</a>
</g>
</g>
<!-- Node28&#45;&gt;Node29 -->
<g id="edge40_Node000028_Node000029" class="edge">
<title>Node28&#45;&gt;Node29</title>
<g id="a_edge40_Node000028_Node000029"><a xlink:title=" ">
<path fill="none" stroke="#63b8ff" d="M317.09,-490.13C322.14,-487.7 326.88,-484.7 331,-481 364.88,-450.53 333.25,-415.62 367,-385 369.92,-382.35 373.18,-380.06 376.64,-378.08"/>
<polygon fill="#63b8ff" stroke="#63b8ff" points="377.9,-381.36 385.47,-373.95 374.93,-375.02 377.9,-381.36"/>
</a>
</g>
</g>
<!-- Node30 -->
<g id="Node000030" class="node">
<title>Node30</title>
<g id="a_Node000030"><a xlink:href="exif-utils_8c.html#ac90147d0cc97bec7a577bf9576191bf8" target="_top" xlink:title="Store an ExifLong value into memory in EXIF format.">
<polygon fill="white" stroke="#666666" points="795,-209.5 713,-209.5 713,-190.5 795,-190.5 795,-209.5"/>
<text text-anchor="middle" x="754" y="-197.5" font-family="Helvetica,sans-Serif" font-size="10.00">exif_set_long</text>
</a>
</g>
</g>
<!-- Node28&#45;&gt;Node30 -->
<g id="edge41_Node000028_Node000030" class="edge">
<title>Node28&#45;&gt;Node30</title>
<g id="a_edge41_Node000028_Node000030"><a xlink:title=" ">
<path fill="none" stroke="#63b8ff" d="M319.79,-490.13C323.97,-487.68 327.79,-484.67 331,-481 419.14,-380.27 281.34,-284.85 367,-182 453.53,-78.12 539.11,-79.33 666,-126 695.95,-137.02 722.63,-163.43 738.31,-181.53"/>
<polygon fill="#63b8ff" stroke="#63b8ff" points="735.41,-183.51 744.5,-188.94 740.78,-179.02 735.41,-183.51"/>
</a>
</g>
</g>
<!-- Node32 -->
<g id="Node000032" class="node">
<title>Node32</title>
<g id="a_Node000032"><a xlink:href="exif-utils_8c.html#ad905d16e26b4052a1db34dbebdc37341" target="_top" xlink:title="Store an ExifShort value into memory in EXIF format.">
<polygon fill="white" stroke="#666666" points="649.5,-153.5 563.5,-153.5 563.5,-134.5 649.5,-134.5 649.5,-153.5"/>
<text text-anchor="middle" x="606.5" y="-141.5" font-family="Helvetica,sans-Serif" font-size="10.00">exif_set_short</text>
</a>
</g>
</g>
<!-- Node28&#45;&gt;Node32 -->
<g id="edge43_Node000028_Node000032" class="edge">
<title>Node28&#45;&gt;Node32</title>
<g id="a_edge43_Node000028_Node000032"><a xlink:title=" ">
<path fill="none" stroke="#63b8ff" d="M318.17,-490.16C322.88,-487.72 327.25,-484.71 331,-481 374.55,-437.95 336.68,-401.2 367,-348 423.8,-248.33 449.59,-223.6 547,-163 549.72,-161.31 552.61,-159.75 555.58,-158.32"/>
<polygon fill="#63b8ff" stroke="#63b8ff" points="556.7,-161.65 564.54,-154.53 553.97,-155.2 556.7,-161.65"/>
</a>
</g>
</g>
<!-- Node31 -->
<g id="Node000031" class="node">
<title>Node31</title>
<g id="a_Node000031"><a xlink:href="exif-utils_8c.html#ae6e3b9d1663f9ab9bd462d73a310ca03" target="_top" xlink:title="Store an ExifSLong value into memory in EXIF format.">
<polygon fill="white" stroke="#666666" points="929.5,-304.5 842.5,-304.5 842.5,-285.5 929.5,-285.5 929.5,-304.5"/>
<text text-anchor="middle" x="886" y="-292.5" font-family="Helvetica,sans-Serif" font-size="10.00">exif_set_slong</text>
</a>
</g>
</g>
<!-- Node30&#45;&gt;Node31 -->
<g id="edge42_Node000030_Node000031" class="edge">
<title>Node30&#45;&gt;Node31</title>
<g id="a_edge42_Node000030_Node000031"><a xlink:title=" ">
<path fill="none" stroke="#63b8ff" d="M768.42,-209.81C790.61,-226.02 835.17,-258.59 862.32,-278.42"/>
<polygon fill="#63b8ff" stroke="#63b8ff" points="860.09,-281.13 870.23,-284.21 864.22,-275.48 860.09,-281.13"/>
</a>
</g>
</g>
<!-- Node33 -->
<g id="Node000033" class="node">
<title>Node33</title>
<g id="a_Node000033"><a xlink:href="exif-utils_8c.html#a6504651147702fc6db9a5cd4aa997023" target="_top" xlink:title="Store an ExifSShort value into memory in EXIF format.">
<polygon fill="white" stroke="#666666" points="799.5,-266.5 708.5,-266.5 708.5,-247.5 799.5,-247.5 799.5,-266.5"/>
<text text-anchor="middle" x="754" y="-254.5" font-family="Helvetica,sans-Serif" font-size="10.00">exif_set_sshort</text>
</a>
</g>
</g>
<!-- Node32&#45;&gt;Node33 -->
<g id="edge44_Node000032_Node000033" class="edge">
<title>Node32&#45;&gt;Node33</title>
<g id="a_edge44_Node000032_Node000033"><a xlink:title=" ">
<path fill="none" stroke="#63b8ff" d="M649.85,-153.86C655.61,-156.28 661.18,-159.28 666,-163 689.43,-181.06 681.81,-197.37 702,-219 709.44,-226.98 718.74,-234.46 727.35,-240.64"/>
<polygon fill="#63b8ff" stroke="#63b8ff" points="725.17,-243.38 735.39,-246.16 729.13,-237.61 725.17,-243.38"/>
</a>
</g>
</g>
<!-- Node34&#45;&gt;Node25 -->
<g id="edge62_Node000034_Node000025" class="edge">
<title>Node34&#45;&gt;Node25</title>
<g id="a_edge62_Node000034_Node000025"><a xlink:title=" ">
<path fill="none" stroke="#63b8ff" d="M316.93,-545.73C377.45,-548.52 471.27,-552.83 535.39,-555.78"/>
<polygon fill="#63b8ff" stroke="#63b8ff" points="534.95,-559.26 545.1,-556.22 535.27,-552.27 534.95,-559.26"/>
</a>
</g>
</g>
<!-- Node35 -->
<g id="Node000035" class="node">
<title>Node35</title>
<g id="a_Node000035"><a xlink:href="exif-utils_8c.html#a54ef3b86ffeb643e9c4434b85ccf2992" target="_top" xlink:title=" ">
<polygon fill="white" stroke="#666666" points="495.5,-424 382.5,-424 382.5,-394 495.5,-394 495.5,-424"/>
<text text-anchor="start" x="390.5" y="-412" font-family="Helvetica,sans-Serif" font-size="10.00">exif_array_set_byte</text>
<text text-anchor="middle" x="439" y="-401" font-family="Helvetica,sans-Serif" font-size="10.00">_order</text>
</a>
</g>
</g>
<!-- Node34&#45;&gt;Node35 -->
<g id="edge46_Node000034_Node000035" class="edge">
<title>Node34&#45;&gt;Node35</title>
<g id="a_edge46_Node000034_Node000035"><a xlink:title=" ">
<path fill="none" stroke="#63b8ff" d="M314.16,-527.64C320.03,-525.13 325.76,-522.27 331,-519 367.53,-496.23 400.56,-458.39 419.97,-433.57"/>
<polygon fill="#63b8ff" stroke="#63b8ff" points="422.74,-435.71 426.03,-425.64 417.18,-431.46 422.74,-435.71"/>
</a>
</g>
</g>
<!-- Node35&#45;&gt;Node18 -->
<g id="edge48_Node000035_Node000018" class="edge">
<title>Node35&#45;&gt;Node18</title>
<g id="a_edge48_Node000035_Node000018"><a xlink:title=" ">
<path fill="none" stroke="#63b8ff" d="M495.84,-420.21C558.77,-433.32 653.94,-454.79 666,-467 713.57,-515.17 677.8,-551.78 702,-615 712.46,-642.33 729.16,-671.7 740.58,-690.44"/>
<polygon fill="#63b8ff" stroke="#63b8ff" points="737.56,-692.21 745.81,-698.85 743.51,-688.51 737.56,-692.21"/>
</a>
</g>
</g>
<!-- Node35&#45;&gt;Node19 -->
<g id="edge51_Node000035_Node000019" class="edge">
<title>Node35&#45;&gt;Node19</title>
<g id="a_edge51_Node000035_Node000019"><a xlink:title=" ">
<path fill="none" stroke="#63b8ff" d="M495.65,-393.82C542.52,-383.81 610.58,-375.89 666,-396 763.03,-431.21 842.39,-533.92 872.25,-576.82"/>
<polygon fill="#63b8ff" stroke="#63b8ff" points="869.23,-578.6 877.76,-584.89 875.02,-574.66 869.23,-578.6"/>
</a>
</g>
</g>
<!-- Node35&#45;&gt;Node20 -->
<g id="edge49_Node000035_Node000020" class="edge">
<title>Node35&#45;&gt;Node20</title>
<g id="a_edge49_Node000035_Node000020"><a xlink:title=" ">
<path fill="none" stroke="#63b8ff" d="M453.33,-424.4C472.2,-445.28 508.67,-482.45 547,-504 549.47,-505.39 552.06,-506.69 554.72,-507.89"/>
<polygon fill="#63b8ff" stroke="#63b8ff" points="553.23,-511.06 563.81,-511.54 555.84,-504.57 553.23,-511.06"/>
</a>
</g>
</g>
<!-- Node35&#45;&gt;Node21 -->
<g id="edge50_Node000035_Node000021" class="edge">
<title>Node35&#45;&gt;Node21</title>
<g id="a_edge50_Node000035_Node000021"><a xlink:title=" ">
<path fill="none" stroke="#63b8ff" d="M445.48,-424.41C458.06,-457.59 492.23,-536.15 547,-578 548.88,-579.44 550.88,-580.76 552.95,-581.98"/>
<polygon fill="#63b8ff" stroke="#63b8ff" points="551.25,-585.04 561.77,-586.28 554.32,-578.75 551.25,-585.04"/>
</a>
</g>
</g>
<!-- Node35&#45;&gt;Node22 -->
<g id="edge53_Node000035_Node000022" class="edge">
<title>Node35&#45;&gt;Node22</title>
<g id="a_edge53_Node000035_Node000022"><a xlink:title=" ">
<path fill="none" stroke="#63b8ff" d="M495.53,-401.18C544.53,-397.26 615.78,-399.14 666,-433 716.2,-466.84 739.67,-539.39 748.54,-575.17"/>
<polygon fill="#63b8ff" stroke="#63b8ff" points="745.08,-575.74 750.74,-584.69 751.9,-574.16 745.08,-575.74"/>
</a>
</g>
</g>
<!-- Node35&#45;&gt;Node23 -->
<g id="edge52_Node000035_Node000023" class="edge">
<title>Node35&#45;&gt;Node23</title>
<g id="a_edge52_Node000035_Node000023"><a xlink:title=" ">
<path fill="none" stroke="#63b8ff" d="M470.2,-424.31C491.5,-434.95 520.8,-449.27 547,-461 554.36,-464.29 562.3,-467.67 569.9,-470.81"/>
<polygon fill="#63b8ff" stroke="#63b8ff" points="568.32,-473.95 578.9,-474.49 570.97,-467.47 568.32,-473.95"/>
</a>
</g>
</g>
<!-- Node35&#45;&gt;Node25 -->
<g id="edge47_Node000035_Node000025" class="edge">
<title>Node35&#45;&gt;Node25</title>
<g id="a_edge47_Node000035_Node000025"><a xlink:title=" ">
<path fill="none" stroke="#63b8ff" d="M454.72,-424.45C469.5,-440.22 492.65,-465.63 511,-489 528.36,-511.11 524.32,-524.4 547,-541 548.37,-542 549.79,-542.95 551.26,-543.84"/>
<polygon fill="#63b8ff" stroke="#63b8ff" points="549.6,-546.92 560.1,-548.33 552.77,-540.68 549.6,-546.92"/>
</a>
</g>
</g>
<!-- Node35&#45;&gt;Node30 -->
<g id="edge54_Node000035_Node000030" class="edge">
<title>Node35&#45;&gt;Node30</title>
<g id="a_edge54_Node000035_Node000030"><a xlink:title=" ">
<path fill="none" stroke="#63b8ff" d="M495.69,-396.47C501.39,-393.44 506.67,-389.68 511,-385 554.96,-337.56 500.37,-288.82 547,-244 568.74,-223.1 647.94,-210.87 701.56,-204.81"/>
<polygon fill="#63b8ff" stroke="#63b8ff" points="701.85,-208.3 711.42,-203.74 701.1,-201.34 701.85,-208.3"/>
</a>
</g>
</g>
<!-- Node35&#45;&gt;Node31 -->
<g id="edge58_Node000035_Node000031" class="edge">
<title>Node35&#45;&gt;Node31</title>
<g id="a_edge58_Node000035_Node000031"><a xlink:title=" ">
<path fill="none" stroke="#63b8ff" d="M492.43,-393.53C498.82,-390.99 505.16,-388.14 511,-385 528.85,-375.4 528.43,-365.13 547,-357 653.89,-310.19 691.65,-337.21 806,-314 815.44,-312.08 825.46,-309.84 835.09,-307.58"/>
<polygon fill="#63b8ff" stroke="#63b8ff" points="835.76,-311.01 844.67,-305.28 834.13,-304.2 835.76,-311.01"/>
</a>
</g>
</g>
<!-- Node35&#45;&gt;Node32 -->
<g id="edge57_Node000035_Node000032" class="edge">
<title>Node35&#45;&gt;Node32</title>
<g id="a_edge57_Node000035_Node000032"><a xlink:title=" ">
<path fill="none" stroke="#63b8ff" d="M495.76,-397.03C501.52,-393.9 506.79,-389.96 511,-385 575.61,-308.73 481.94,-238.88 547,-163 548.89,-160.8 551.03,-158.85 553.35,-157.13"/>
<polygon fill="#63b8ff" stroke="#63b8ff" points="554.83,-160.32 561.74,-152.29 551.33,-154.26 554.83,-160.32"/>
</a>
</g>
</g>
<!-- Node35&#45;&gt;Node33 -->
<g id="edge61_Node000035_Node000033" class="edge">
<title>Node35&#45;&gt;Node33</title>
<g id="a_edge61_Node000035_Node000033"><a xlink:title=" ">
<path fill="none" stroke="#63b8ff" d="M496,-395.72C501.5,-392.82 506.65,-389.3 511,-385 545.22,-351.23 509.57,-313.17 547,-283 588.69,-249.39 651.37,-246.03 696.64,-249.13"/>
<polygon fill="#63b8ff" stroke="#63b8ff" points="696.28,-252.62 706.53,-249.95 696.85,-245.64 696.28,-252.62"/>
</a>
</g>
</g>
<!-- Node36 -->
<g id="Node000036" class="node">
<title>Node36</title>
<g id="a_Node000036"><a xlink:href="exif-utils_8c.html#a400a16b1754150f721e9fca67ad89a52" target="_top" xlink:title="Store an ExifRational value into memory in EXIF format.">
<polygon fill="white" stroke="#666666" points="655.5,-190.5 557.5,-190.5 557.5,-171.5 655.5,-171.5 655.5,-190.5"/>
<text text-anchor="middle" x="606.5" y="-178.5" font-family="Helvetica,sans-Serif" font-size="10.00">exif_set_rational</text>
</a>
</g>
</g>
<!-- Node35&#45;&gt;Node36 -->
<g id="edge55_Node000035_Node000036" class="edge">
<title>Node35&#45;&gt;Node36</title>
<g id="a_edge55_Node000035_Node000036"><a xlink:title=" ">
<path fill="none" stroke="#63b8ff" d="M495.94,-396.69C501.59,-393.62 506.79,-389.79 511,-385 564.86,-323.72 495.1,-267.95 547,-205 549.67,-201.76 552.85,-198.95 556.33,-196.52"/>
<polygon fill="#63b8ff" stroke="#63b8ff" points="557.83,-199.69 564.76,-191.67 554.34,-193.62 557.83,-199.69"/>
</a>
</g>
</g>
<!-- Node37 -->
<g id="Node000037" class="node">
<title>Node37</title>
<g id="a_Node000037"><a xlink:href="exif-utils_8c.html#aca1790a72b1833dff1b0bf728052c3c5" target="_top" xlink:title="Store an ExifSRational value into memory in EXIF format.">
<polygon fill="white" stroke="#666666" points="806,-304.5 702,-304.5 702,-285.5 806,-285.5 806,-304.5"/>
<text text-anchor="middle" x="754" y="-292.5" font-family="Helvetica,sans-Serif" font-size="10.00">exif_set_srational</text>
</a>
</g>
</g>
<!-- Node35&#45;&gt;Node37 -->
<g id="edge59_Node000035_Node000037" class="edge">
<title>Node35&#45;&gt;Node37</title>
<g id="a_edge59_Node000035_Node000037"><a xlink:title=" ">
<path fill="none" stroke="#63b8ff" d="M495.7,-394.82C501.19,-392.09 506.42,-388.85 511,-385 536.58,-363.51 519.3,-337.69 547,-319 588.78,-290.8 646.47,-286.27 690.17,-287.95"/>
<polygon fill="#63b8ff" stroke="#63b8ff" points="689.85,-291.43 700.02,-288.46 690.21,-284.44 689.85,-291.43"/>
</a>
</g>
</g>
<!-- Node36&#45;&gt;Node30 -->
<g id="edge56_Node000036_Node000030" class="edge">
<title>Node36&#45;&gt;Node30</title>
<g id="a_edge56_Node000036_Node000030"><a xlink:title=" ">
<path fill="none" stroke="#63b8ff" d="M655.95,-187.33C670.57,-189.24 686.68,-191.34 701.49,-193.27"/>
<polygon fill="#63b8ff" stroke="#63b8ff" points="700.66,-196.69 711.03,-194.52 701.56,-189.75 700.66,-196.69"/>
</a>
</g>
</g>
<!-- Node37&#45;&gt;Node31 -->
<g id="edge60_Node000037_Node000031" class="edge">
<title>Node37&#45;&gt;Node31</title>
<g id="a_edge60_Node000037_Node000031"><a xlink:title=" ">
<path fill="none" stroke="#63b8ff" d="M806.38,-295C814.48,-295 822.88,-295 831.04,-295"/>
<polygon fill="#63b8ff" stroke="#63b8ff" points="830.85,-298.5 840.85,-295 830.85,-291.5 830.85,-298.5"/>
</a>
</g>
</g>
</g>
</svg>
