<?xml version="1.0" encoding="UTF-8" standalone="no"?>
<!DOCTYPE svg PUBLIC "-//W3C//DTD SVG 1.1//EN"
 "http://www.w3.org/Graphics/SVG/1.1/DTD/svg11.dtd">
<!-- Generated by graphviz version 2.44.1 (0)
 -->
<!-- Title: exif_mnote_data_canon_get_description Pages: 1 -->
<svg width="744pt" height="88pt"
 viewBox="0.00 0.00 744.00 88.00" xmlns="http://www.w3.org/2000/svg" xmlns:xlink="http://www.w3.org/1999/xlink">
<g id="graph0" class="graph" transform="scale(1 1) rotate(0) translate(4 84)">
<title>exif_mnote_data_canon_get_description</title>
<polygon fill="white" stroke="transparent" points="-4,4 -4,-84 740,-84 740,4 -4,4"/>
<!-- Node1 -->
<g id="node1" class="node">
<title>Node1</title>
<g id="a_node1"><a xlink:title=" ">
<polygon fill="#bfbfbf" stroke="black" points="0,-24.5 0,-54.5 134,-54.5 134,-24.5 0,-24.5"/>
<text text-anchor="start" x="8" y="-42.5" font-family="Helvetica,sans-Serif" font-size="10.00">exif_mnote_data_canon</text>
<text text-anchor="middle" x="67" y="-31.5" font-family="Helvetica,sans-Serif" font-size="10.00">_get_description</text>
</a>
</g>
</g>
<!-- Node2 -->
<g id="node2" class="node">
<title>Node2</title>
<g id="a_node2"><a xlink:href="exif-mnote-data-canon_8c.html#ae9824e7901a9cd61dc6d81713af3d34b" target="_top" xlink:title=" ">
<polygon fill="white" stroke="black" points="170,-49.5 170,-79.5 304,-79.5 304,-49.5 170,-49.5"/>
<text text-anchor="start" x="178" y="-67.5" font-family="Helvetica,sans-Serif" font-size="10.00">exif_mnote_data_canon</text>
<text text-anchor="middle" x="237" y="-56.5" font-family="Helvetica,sans-Serif" font-size="10.00">_get_tags</text>
</a>
</g>
</g>
<!-- Node1&#45;&gt;Node2 -->
<g id="edge1" class="edge">
<title>Node1&#45;&gt;Node2</title>
<path fill="none" stroke="midnightblue" d="M134.4,-49.38C142.77,-50.63 151.39,-51.91 159.89,-53.17"/>
<polygon fill="midnightblue" stroke="midnightblue" points="159.4,-56.64 169.81,-54.65 160.43,-49.72 159.4,-56.64"/>
</g>
<!-- Node6 -->
<g id="node6" class="node">
<title>Node6</title>
<g id="a_node6"><a xlink:href="mnote-canon-tag_8c.html#a74e4d64803187610d0174fe315492d45" target="_top" xlink:title=" ">
<polygon fill="white" stroke="black" points="174.5,-0.5 174.5,-30.5 299.5,-30.5 299.5,-0.5 174.5,-0.5"/>
<text text-anchor="start" x="182.5" y="-18.5" font-family="Helvetica,sans-Serif" font-size="10.00">mnote_canon_tag_get</text>
<text text-anchor="middle" x="237" y="-7.5" font-family="Helvetica,sans-Serif" font-size="10.00">_description</text>
</a>
</g>
</g>
<!-- Node1&#45;&gt;Node6 -->
<g id="edge5" class="edge">
<title>Node1&#45;&gt;Node6</title>
<path fill="none" stroke="midnightblue" d="M134.4,-30.01C144.3,-28.6 154.55,-27.14 164.55,-25.71"/>
<polygon fill="midnightblue" stroke="midnightblue" points="165.05,-29.17 174.46,-24.29 164.06,-22.24 165.05,-29.17"/>
</g>
<!-- Node3 -->
<g id="node3" class="node">
<title>Node3</title>
<g id="a_node3"><a xlink:href="mnote-canon-entry_8c.html#a9d343f3faec828b2467bacbab0919f47" target="_top" xlink:title=" ">
<polygon fill="white" stroke="black" points="340,-49.5 340,-79.5 486,-79.5 486,-49.5 340,-49.5"/>
<text text-anchor="start" x="348" y="-67.5" font-family="Helvetica,sans-Serif" font-size="10.00">mnote_canon_entry_count</text>
<text text-anchor="middle" x="413" y="-56.5" font-family="Helvetica,sans-Serif" font-size="10.00">_values</text>
</a>
</g>
</g>
<!-- Node2&#45;&gt;Node3 -->
<g id="edge2" class="edge">
<title>Node2&#45;&gt;Node3</title>
<path fill="none" stroke="midnightblue" d="M304.28,-64.5C312.63,-64.5 321.25,-64.5 329.81,-64.5"/>
<polygon fill="midnightblue" stroke="midnightblue" points="329.82,-68 339.82,-64.5 329.82,-61 329.82,-68"/>
</g>
<!-- Node4 -->
<g id="node4" class="node">
<title>Node4</title>
<g id="a_node4"><a xlink:href="exif-utils_8c.html#a4b4acf537a8c6b9405e7b53be868e4d7" target="_top" xlink:title="Retrieve an ExifShort value from memory.">
<polygon fill="white" stroke="black" points="522,-55 522,-74 608,-74 608,-55 522,-55"/>
<text text-anchor="middle" x="565" y="-62" font-family="Helvetica,sans-Serif" font-size="10.00">exif_get_short</text>
</a>
</g>
</g>
<!-- Node3&#45;&gt;Node4 -->
<g id="edge3" class="edge">
<title>Node3&#45;&gt;Node4</title>
<path fill="none" stroke="midnightblue" d="M486.36,-64.5C494.9,-64.5 503.48,-64.5 511.66,-64.5"/>
<polygon fill="midnightblue" stroke="midnightblue" points="511.78,-68 521.78,-64.5 511.78,-61 511.78,-68"/>
</g>
<!-- Node5 -->
<g id="node5" class="node">
<title>Node5</title>
<g id="a_node5"><a xlink:href="exif-utils_8c.html#a6baf094a71392f9cea23ad633ec13c8b" target="_top" xlink:title="Retrieve an ExifSShort value from memory.">
<polygon fill="white" stroke="black" points="644,-55 644,-74 736,-74 736,-55 644,-55"/>
<text text-anchor="middle" x="690" y="-62" font-family="Helvetica,sans-Serif" font-size="10.00">exif_get_sshort</text>
</a>
</g>
</g>
<!-- Node4&#45;&gt;Node5 -->
<g id="edge4" class="edge">
<title>Node4&#45;&gt;Node5</title>
<path fill="none" stroke="midnightblue" d="M608.33,-64.5C616.43,-64.5 625.03,-64.5 633.47,-64.5"/>
<polygon fill="midnightblue" stroke="midnightblue" points="633.65,-68 643.65,-64.5 633.65,-61 633.65,-68"/>
</g>
</g>
</svg>
