<?xml version="1.0" encoding="UTF-8" standalone="no"?>
<!DOCTYPE svg PUBLIC "-//W3C//DTD SVG 1.1//EN"
 "http://www.w3.org/Graphics/SVG/1.1/DTD/svg11.dtd">
<!-- Generated by graphviz version 2.44.1 (0)
 -->
<!-- Title: exif_data_unref Pages: 1 -->
<svg width="1070pt" height="271pt"
 viewBox="0.00 0.00 1070.00 270.96" xmlns="http://www.w3.org/2000/svg" xmlns:xlink="http://www.w3.org/1999/xlink">
<g id="graph0" class="graph" transform="scale(1 1) rotate(0) translate(4 266.96)">
<title>exif_data_unref</title>
<polygon fill="white" stroke="transparent" points="-4,4 -4,-266.96 1066,-266.96 1066,4 -4,4"/>
<!-- Node1 -->
<g id="node1" class="node">
<title>Node1</title>
<g id="a_node1"><a xlink:title=" ">
<polygon fill="#bfbfbf" stroke="black" points="0,-101.46 0,-120.46 93,-120.46 93,-101.46 0,-101.46"/>
<text text-anchor="middle" x="46.5" y="-108.46" font-family="Helvetica,sans-Serif" font-size="10.00">exif_data_unref</text>
</a>
</g>
</g>
<!-- Node2 -->
<g id="node2" class="node">
<title>Node2</title>
<g id="a_node2"><a xlink:href="exif-data_8c.html#a2d2f8fee30176bd6460d51d33d080674" target="_top" xlink:title=" ">
<polygon fill="white" stroke="black" points="129,-101.46 129,-120.46 216,-120.46 216,-101.46 129,-101.46"/>
<text text-anchor="middle" x="172.5" y="-108.46" font-family="Helvetica,sans-Serif" font-size="10.00">exif_data_free</text>
</a>
</g>
</g>
<!-- Node1&#45;&gt;Node2 -->
<g id="edge1" class="edge">
<title>Node1&#45;&gt;Node2</title>
<path fill="none" stroke="midnightblue" d="M93.32,-110.96C101.56,-110.96 110.21,-110.96 118.63,-110.96"/>
<polygon fill="midnightblue" stroke="midnightblue" points="118.74,-114.46 128.74,-110.96 118.74,-107.46 118.74,-114.46"/>
</g>
<!-- Node3 -->
<g id="node3" class="node">
<title>Node3</title>
<g id="a_node3"><a xlink:href="exif-content_8c.html#a5e72c0f223d5d1aa33b34f388a5c9d37" target="_top" xlink:title="Decrease reference counter for ExifContent.">
<polygon fill="white" stroke="black" points="263,-139.46 263,-158.46 371,-158.46 371,-139.46 263,-139.46"/>
<text text-anchor="middle" x="317" y="-146.46" font-family="Helvetica,sans-Serif" font-size="10.00">exif_content_unref</text>
</a>
</g>
</g>
<!-- Node2&#45;&gt;Node3 -->
<g id="edge2" class="edge">
<title>Node2&#45;&gt;Node3</title>
<path fill="none" stroke="midnightblue" d="M209.46,-120.55C227.94,-125.48 250.66,-131.54 270.36,-136.79"/>
<polygon fill="midnightblue" stroke="midnightblue" points="269.49,-140.18 280.05,-139.38 271.29,-133.42 269.49,-140.18"/>
</g>
<!-- Node7 -->
<g id="node7" class="node">
<title>Node7</title>
<g id="a_node7"><a xlink:href="exif-mem_8c.html#a43190b81b4b4bdb4ffb89bfb612051b1" target="_top" xlink:title=" ">
<polygon fill="white" stroke="black" points="971,-148.46 971,-167.46 1062,-167.46 1062,-148.46 971,-148.46"/>
<text text-anchor="middle" x="1016.5" y="-155.46" font-family="Helvetica,sans-Serif" font-size="10.00">exif_mem_free</text>
</a>
</g>
</g>
<!-- Node2&#45;&gt;Node7 -->
<g id="edge16" class="edge">
<title>Node2&#45;&gt;Node7</title>
<path fill="none" stroke="midnightblue" d="M183.66,-120.47C220.32,-153.75 350.45,-262.96 479,-262.96 479,-262.96 479,-262.96 757.5,-262.96 839.7,-262.96 860.4,-245.5 935,-210.96 956.71,-200.91 979.27,-185.56 994.97,-173.96"/>
<polygon fill="midnightblue" stroke="midnightblue" points="997.48,-176.45 1003.36,-167.64 993.27,-170.86 997.48,-176.45"/>
</g>
<!-- Node8 -->
<g id="node8" class="node">
<title>Node8</title>
<g id="a_node8"><a xlink:href="exif-mem_8c.html#a66744e0987af08c443df247ce55f7d87" target="_top" xlink:title="Unrefcount an ExifMem.">
<polygon fill="white" stroke="black" points="838,-110.46 838,-129.46 935,-129.46 935,-110.46 838,-110.46"/>
<text text-anchor="middle" x="886.5" y="-117.46" font-family="Helvetica,sans-Serif" font-size="10.00">exif_mem_unref</text>
</a>
</g>
</g>
<!-- Node2&#45;&gt;Node8 -->
<g id="edge17" class="edge">
<title>Node2&#45;&gt;Node8</title>
<path fill="none" stroke="midnightblue" d="M216,-110.96C275.02,-110.96 385.12,-110.96 479,-110.96 479,-110.96 479,-110.96 627.5,-110.96 696.41,-110.96 775.61,-114.21 827.88,-116.8"/>
<polygon fill="midnightblue" stroke="midnightblue" points="827.8,-120.3 837.97,-117.31 828.15,-113.31 827.8,-120.3"/>
</g>
<!-- Node9 -->
<g id="node9" class="node">
<title>Node9</title>
<g id="a_node9"><a xlink:href="exif-log_8c.html#a7a9b738a7429197d68c80ffedac7d8fb" target="_top" xlink:title=" ">
<polygon fill="white" stroke="black" points="583.5,-25.46 583.5,-44.46 669.5,-44.46 669.5,-25.46 583.5,-25.46"/>
<text text-anchor="middle" x="626.5" y="-32.46" font-family="Helvetica,sans-Serif" font-size="10.00">exif_log_unref</text>
</a>
</g>
</g>
<!-- Node2&#45;&gt;Node9 -->
<g id="edge15" class="edge">
<title>Node2&#45;&gt;Node9</title>
<path fill="none" stroke="midnightblue" d="M183.05,-101.09C196.82,-87.6 223.73,-63.94 252,-53.96 361.2,-15.41 499.54,-21.35 573.41,-28.51"/>
<polygon fill="midnightblue" stroke="midnightblue" points="573.09,-31.99 583.39,-29.52 573.8,-25.03 573.09,-31.99"/>
</g>
<!-- Node11 -->
<g id="node11" class="node">
<title>Node11</title>
<g id="a_node11"><a xlink:href="exif-mnote-data_8c.html#af910e5c862e5aba351b84b2142d98192" target="_top" xlink:title=" ">
<polygon fill="white" stroke="black" points="252,-63.46 252,-82.46 382,-82.46 382,-63.46 252,-63.46"/>
<text text-anchor="middle" x="317" y="-70.46" font-family="Helvetica,sans-Serif" font-size="10.00">exif_mnote_data_unref</text>
</a>
</g>
</g>
<!-- Node2&#45;&gt;Node11 -->
<g id="edge18" class="edge">
<title>Node2&#45;&gt;Node11</title>
<path fill="none" stroke="midnightblue" d="M209.46,-101.37C227.94,-96.45 250.66,-90.39 270.36,-85.13"/>
<polygon fill="midnightblue" stroke="midnightblue" points="271.29,-88.51 280.05,-82.55 269.49,-81.74 271.29,-88.51"/>
</g>
<!-- Node4 -->
<g id="node4" class="node">
<title>Node4</title>
<g id="a_node4"><a xlink:href="exif-content_8c.html#af77d27f5949aa4249fd54a5146c28289" target="_top" xlink:title="Actually free the ExifContent.">
<polygon fill="white" stroke="black" points="429,-139.46 429,-158.46 531,-158.46 531,-139.46 429,-139.46"/>
<text text-anchor="middle" x="480" y="-146.46" font-family="Helvetica,sans-Serif" font-size="10.00">exif_content_free</text>
</a>
</g>
</g>
<!-- Node3&#45;&gt;Node4 -->
<g id="edge3" class="edge">
<title>Node3&#45;&gt;Node4</title>
<path fill="none" stroke="midnightblue" d="M371.16,-148.96C386.42,-148.96 403.15,-148.96 418.8,-148.96"/>
<polygon fill="midnightblue" stroke="midnightblue" points="418.89,-152.46 428.89,-148.96 418.89,-145.46 418.89,-152.46"/>
</g>
<!-- Node5 -->
<g id="node5" class="node">
<title>Node5</title>
<g id="a_node5"><a xlink:href="exif-entry_8c.html#a82d5d923121488d847d341727cdd2ef4" target="_top" xlink:title="Decrease reference counter for ExifEntry.">
<polygon fill="white" stroke="black" points="578,-177.46 578,-196.46 675,-196.46 675,-177.46 578,-177.46"/>
<text text-anchor="middle" x="626.5" y="-184.46" font-family="Helvetica,sans-Serif" font-size="10.00">exif_entry_unref</text>
</a>
</g>
</g>
<!-- Node4&#45;&gt;Node5 -->
<g id="edge4" class="edge">
<title>Node4&#45;&gt;Node5</title>
<path fill="none" stroke="midnightblue" d="M517.46,-158.55C536.27,-163.5 559.41,-169.58 579.45,-174.85"/>
<polygon fill="midnightblue" stroke="midnightblue" points="578.74,-178.28 589.3,-177.44 580.52,-171.51 578.74,-178.28"/>
</g>
<!-- Node4&#45;&gt;Node7 -->
<g id="edge13" class="edge">
<title>Node4&#45;&gt;Node7</title>
<path fill="none" stroke="midnightblue" d="M492.6,-158.61C509.9,-172.3 544.07,-196.73 578,-205.96 731.34,-247.68 780.72,-224.05 935,-185.96 950.87,-182.04 968.04,-176.29 982.43,-171.02"/>
<polygon fill="midnightblue" stroke="midnightblue" points="983.76,-174.26 991.9,-167.47 981.3,-167.7 983.76,-174.26"/>
</g>
<!-- Node4&#45;&gt;Node8 -->
<g id="edge14" class="edge">
<title>Node4&#45;&gt;Node8</title>
<path fill="none" stroke="midnightblue" d="M531.01,-145.38C606.16,-139.99 747.88,-129.83 827.47,-124.12"/>
<polygon fill="midnightblue" stroke="midnightblue" points="828.08,-127.59 837.81,-123.38 827.58,-120.61 828.08,-127.59"/>
</g>
<!-- Node4&#45;&gt;Node9 -->
<g id="edge9" class="edge">
<title>Node4&#45;&gt;Node9</title>
<path fill="none" stroke="midnightblue" d="M493.32,-139.24C518.17,-119.64 574.51,-75.19 604.99,-51.14"/>
<polygon fill="midnightblue" stroke="midnightblue" points="607.53,-53.6 613.21,-44.66 603.19,-48.1 607.53,-53.6"/>
</g>
<!-- Node6 -->
<g id="node6" class="node">
<title>Node6</title>
<g id="a_node6"><a xlink:href="exif-entry_8c.html#a2879215e3863186650d3f32eb63bbaf4" target="_top" xlink:title="Actually free the ExifEntry.">
<polygon fill="white" stroke="black" points="711,-177.46 711,-196.46 802,-196.46 802,-177.46 711,-177.46"/>
<text text-anchor="middle" x="756.5" y="-184.46" font-family="Helvetica,sans-Serif" font-size="10.00">exif_entry_free</text>
</a>
</g>
</g>
<!-- Node5&#45;&gt;Node6 -->
<g id="edge5" class="edge">
<title>Node5&#45;&gt;Node6</title>
<path fill="none" stroke="midnightblue" d="M675.16,-186.96C683.45,-186.96 692.13,-186.96 700.59,-186.96"/>
<polygon fill="midnightblue" stroke="midnightblue" points="700.77,-190.46 710.77,-186.96 700.77,-183.46 700.77,-190.46"/>
</g>
<!-- Node6&#45;&gt;Node7 -->
<g id="edge6" class="edge">
<title>Node6&#45;&gt;Node7</title>
<path fill="none" stroke="midnightblue" d="M802.15,-181.94C846.22,-176.99 913.68,-169.41 960.92,-164.1"/>
<polygon fill="midnightblue" stroke="midnightblue" points="961.42,-167.56 970.97,-162.97 960.64,-160.61 961.42,-167.56"/>
</g>
<!-- Node6&#45;&gt;Node8 -->
<g id="edge7" class="edge">
<title>Node6&#45;&gt;Node8</title>
<path fill="none" stroke="midnightblue" d="M775.84,-177.36C797.42,-166.07 833.44,-147.21 858.28,-134.21"/>
<polygon fill="midnightblue" stroke="midnightblue" points="859.96,-137.28 867.19,-129.54 856.71,-131.08 859.96,-137.28"/>
</g>
<!-- Node8&#45;&gt;Node7 -->
<g id="edge8" class="edge">
<title>Node8&#45;&gt;Node7</title>
<path fill="none" stroke="midnightblue" d="M919.8,-129.55C936.02,-134.37 955.88,-140.26 973.29,-145.43"/>
<polygon fill="midnightblue" stroke="midnightblue" points="972.63,-148.89 983.21,-148.38 974.62,-142.18 972.63,-148.89"/>
</g>
<!-- Node10 -->
<g id="node10" class="node">
<title>Node10</title>
<g id="a_node10"><a xlink:href="exif-log_8c.html#acd0808d6d5be73f28059797c2e2e67dc" target="_top" xlink:title="Delete instance of ExifLog.">
<polygon fill="white" stroke="black" points="716.5,-25.46 716.5,-44.46 796.5,-44.46 796.5,-25.46 716.5,-25.46"/>
<text text-anchor="middle" x="756.5" y="-32.46" font-family="Helvetica,sans-Serif" font-size="10.00">exif_log_free</text>
</a>
</g>
</g>
<!-- Node9&#45;&gt;Node10 -->
<g id="edge10" class="edge">
<title>Node9&#45;&gt;Node10</title>
<path fill="none" stroke="midnightblue" d="M669.77,-34.96C681.37,-34.96 694.05,-34.96 706.02,-34.96"/>
<polygon fill="midnightblue" stroke="midnightblue" points="706.31,-38.46 716.31,-34.96 706.31,-31.46 706.31,-38.46"/>
</g>
<!-- Node10&#45;&gt;Node7 -->
<g id="edge11" class="edge">
<title>Node10&#45;&gt;Node7</title>
<path fill="none" stroke="midnightblue" d="M790.99,-44.55C827.53,-55.65 887.18,-75.7 935,-100.96 957.23,-112.71 980.44,-129.73 996.19,-142.11"/>
<polygon fill="midnightblue" stroke="midnightblue" points="994.13,-144.94 1004.12,-148.45 998.5,-139.47 994.13,-144.94"/>
</g>
<!-- Node10&#45;&gt;Node8 -->
<g id="edge12" class="edge">
<title>Node10&#45;&gt;Node8</title>
<path fill="none" stroke="midnightblue" d="M776.88,-44.68C784.81,-48.84 793.98,-53.9 802,-58.96 824.5,-73.16 848.93,-91.35 865.51,-104.17"/>
<polygon fill="midnightblue" stroke="midnightblue" points="863.38,-106.94 873.42,-110.33 867.68,-101.42 863.38,-106.94"/>
</g>
<!-- Node12 -->
<g id="node12" class="node">
<title>Node12</title>
<g id="a_node12"><a xlink:href="exif-mnote-data_8c.html#a2f715582f27a9821560931aeaa139abd" target="_top" xlink:title=" ">
<polygon fill="white" stroke="black" points="418,-63.46 418,-82.46 542,-82.46 542,-63.46 418,-63.46"/>
<text text-anchor="middle" x="480" y="-70.46" font-family="Helvetica,sans-Serif" font-size="10.00">exif_mnote_data_free</text>
</a>
</g>
</g>
<!-- Node11&#45;&gt;Node12 -->
<g id="edge19" class="edge">
<title>Node11&#45;&gt;Node12</title>
<path fill="none" stroke="midnightblue" d="M382.09,-72.96C390.45,-72.96 399.05,-72.96 407.51,-72.96"/>
<polygon fill="midnightblue" stroke="midnightblue" points="407.75,-76.46 417.75,-72.96 407.75,-69.46 407.75,-76.46"/>
</g>
<!-- Node12&#45;&gt;Node7 -->
<g id="edge21" class="edge">
<title>Node12&#45;&gt;Node7</title>
<path fill="none" stroke="midnightblue" d="M492.6,-63.31C509.9,-49.62 544.07,-25.19 578,-15.96 674.06,10.17 703.5,-1.47 802,-15.96 863.07,-24.95 883.96,-21.24 935,-55.96 967.15,-77.84 992.5,-116.5 1005.63,-139.42"/>
<polygon fill="midnightblue" stroke="midnightblue" points="1002.59,-141.14 1010.5,-148.19 1008.71,-137.75 1002.59,-141.14"/>
</g>
<!-- Node12&#45;&gt;Node8 -->
<g id="edge22" class="edge">
<title>Node12&#45;&gt;Node8</title>
<path fill="none" stroke="midnightblue" d="M542.07,-74.01C606.98,-75.94 712.39,-81.42 802,-96.96 816.66,-99.51 832.47,-103.52 846.34,-107.49"/>
<polygon fill="midnightblue" stroke="midnightblue" points="845.48,-110.88 856.06,-110.35 847.46,-104.17 845.48,-110.88"/>
</g>
<!-- Node12&#45;&gt;Node9 -->
<g id="edge20" class="edge">
<title>Node12&#45;&gt;Node9</title>
<path fill="none" stroke="midnightblue" d="M517.46,-63.37C536.27,-58.43 559.41,-52.34 579.45,-47.07"/>
<polygon fill="midnightblue" stroke="midnightblue" points="580.52,-50.41 589.3,-44.48 578.74,-43.64 580.52,-50.41"/>
</g>
</g>
</svg>
