<?xml version="1.0" encoding="UTF-8" standalone="no"?>
<!DOCTYPE svg PUBLIC "-//W3C//DTD SVG 1.1//EN"
 "http://www.w3.org/Graphics/SVG/1.1/DTD/svg11.dtd">
<!-- Generated by graphviz version 7.0.1 (0)
 -->
<!-- Title: exif_mnote_data_pentax_load Pages: 1 -->
<svg width="498pt" height="261pt"
 viewBox="0.00 0.00 498.00 261.00" xmlns="http://www.w3.org/2000/svg" xmlns:xlink="http://www.w3.org/1999/xlink">
<g id="graph0" class="graph" transform="scale(1 1) rotate(0) translate(4 257)">
<title>exif_mnote_data_pentax_load</title>
<!-- Node1 -->
<g id="Node000001" class="node">
<title>Node1</title>
<g id="a_Node000001"><a xlink:title=" ">
<polygon fill="#999999" stroke="#666666" points="164,-142 0,-142 0,-123 164,-123 164,-142"/>
<text text-anchor="middle" x="82" y="-130" font-family="Helvetica,sans-Serif" font-size="10.00">exif_mnote_data_pentax_load</text>
</a>
</g>
</g>
<!-- Node2 -->
<g id="Node000002" class="node">
<title>Node2</title>
<g id="a_Node000002"><a xlink:href="exif-format_8c.html#a924038efe0cd8ebade8f44619dd794f3" target="_top" xlink:title="Return the raw size of the given EXIF data type.">
<polygon fill="white" stroke="#666666" points="340.5,-253 221.5,-253 221.5,-234 340.5,-234 340.5,-253"/>
<text text-anchor="middle" x="281" y="-241" font-family="Helvetica,sans-Serif" font-size="10.00">exif_format_get_size</text>
</a>
</g>
</g>
<!-- Node1&#45;&gt;Node2 -->
<g id="edge1_Node000001_Node000002" class="edge">
<title>Node1&#45;&gt;Node2</title>
<g id="a_edge1_Node000001_Node000002"><a xlink:title=" ">
<path fill="none" stroke="#63b8ff" d="M92.27,-142.4C110.82,-161.56 154.6,-203.77 200,-225.5 203.34,-227.1 206.82,-228.56 210.39,-229.89"/>
<polygon fill="#63b8ff" stroke="#63b8ff" points="209.25,-233.2 219.85,-233.04 211.46,-226.56 209.25,-233.2"/>
</a>
</g>
</g>
<!-- Node3 -->
<g id="Node000003" class="node">
<title>Node3</title>
<g id="a_Node000003"><a xlink:href="exif-utils_8c.html#a4ad94614630897766dd0a5c9bc2a59bf" target="_top" xlink:title="Retrieve an ExifLong value from memory.">
<polygon fill="white" stroke="#666666" points="322.5,-216 239.5,-216 239.5,-197 322.5,-197 322.5,-216"/>
<text text-anchor="middle" x="281" y="-204" font-family="Helvetica,sans-Serif" font-size="10.00">exif_get_long</text>
</a>
</g>
</g>
<!-- Node1&#45;&gt;Node3 -->
<g id="edge2_Node000001_Node000003" class="edge">
<title>Node1&#45;&gt;Node3</title>
<g id="a_edge2_Node000001_Node000003"><a xlink:title=" ">
<path fill="none" stroke="#63b8ff" d="M100.31,-142.32C122.7,-154.65 163.19,-175.73 200,-188.5 208.99,-191.62 218.74,-194.34 228.24,-196.65"/>
<polygon fill="#63b8ff" stroke="#63b8ff" points="227.21,-200 237.74,-198.84 228.78,-193.18 227.21,-200"/>
</a>
</g>
</g>
<!-- Node5 -->
<g id="Node000005" class="node">
<title>Node5</title>
<g id="a_Node000005"><a xlink:href="exif-utils_8c.html#a4b4acf537a8c6b9405e7b53be868e4d7" target="_top" xlink:title="Retrieve an ExifShort value from memory.">
<polygon fill="white" stroke="#666666" points="324,-179 238,-179 238,-160 324,-160 324,-179"/>
<text text-anchor="middle" x="281" y="-167" font-family="Helvetica,sans-Serif" font-size="10.00">exif_get_short</text>
</a>
</g>
</g>
<!-- Node1&#45;&gt;Node5 -->
<g id="edge4_Node000001_Node000005" class="edge">
<title>Node1&#45;&gt;Node5</title>
<g id="a_edge4_Node000001_Node000005"><a xlink:title=" ">
<path fill="none" stroke="#63b8ff" d="M136.05,-142.46C164.1,-147.73 198.44,-154.18 226.54,-159.46"/>
<polygon fill="#63b8ff" stroke="#63b8ff" points="225.81,-162.88 236.29,-161.29 227.1,-156 225.81,-162.88"/>
</a>
</g>
</g>
<!-- Node7 -->
<g id="Node000007" class="node">
<title>Node7</title>
<g id="a_Node000007"><a xlink:href="exif-log_8c.html#a025d4a5d96544913ea6f6ebbec69cb68" target="_top" xlink:title=" ">
<polygon fill="white" stroke="#666666" points="309,-142 253,-142 253,-123 309,-123 309,-142"/>
<text text-anchor="middle" x="281" y="-130" font-family="Helvetica,sans-Serif" font-size="10.00">exif_log</text>
</a>
</g>
</g>
<!-- Node1&#45;&gt;Node7 -->
<g id="edge6_Node000001_Node000007" class="edge">
<title>Node1&#45;&gt;Node7</title>
<g id="a_edge6_Node000001_Node000007"><a xlink:title=" ">
<path fill="none" stroke="#63b8ff" d="M164.26,-132.5C190.91,-132.5 219.3,-132.5 241.29,-132.5"/>
<polygon fill="#63b8ff" stroke="#63b8ff" points="241.29,-136 251.29,-132.5 241.29,-129 241.29,-136"/>
</a>
</g>
</g>
<!-- Node9 -->
<g id="Node000009" class="node">
<title>Node9</title>
<g id="a_Node000009"><a xlink:href="exif-mem_8c.html#a68be7c7afc8cff75adc3b1a28b5ae9a2" target="_top" xlink:title=" ">
<polygon fill="white" stroke="#666666" points="328.5,-105 233.5,-105 233.5,-86 328.5,-86 328.5,-105"/>
<text text-anchor="middle" x="281" y="-93" font-family="Helvetica,sans-Serif" font-size="10.00">exif_mem_alloc</text>
</a>
</g>
</g>
<!-- Node1&#45;&gt;Node9 -->
<g id="edge8_Node000001_Node000009" class="edge">
<title>Node1&#45;&gt;Node9</title>
<g id="a_edge8_Node000001_Node000009"><a xlink:title=" ">
<path fill="none" stroke="#63b8ff" d="M136.05,-122.54C162.69,-117.53 195.02,-111.46 222.28,-106.34"/>
<polygon fill="#63b8ff" stroke="#63b8ff" points="222.57,-109.85 231.75,-104.56 221.27,-102.97 222.57,-109.85"/>
</a>
</g>
</g>
<!-- Node10 -->
<g id="Node000010" class="node">
<title>Node10</title>
<g id="a_Node000010"><a xlink:href="exif-mnote-data-pentax_8c.html#a5692961f9f5ea8ac552d06fbfae94608" target="_top" xlink:title=" ">
<polygon fill="white" stroke="#666666" points="350,-67.5 212,-67.5 212,-37.5 350,-37.5 350,-67.5"/>
<text text-anchor="start" x="220" y="-55.5" font-family="Helvetica,sans-Serif" font-size="10.00">exif_mnote_data_pentax</text>
<text text-anchor="middle" x="281" y="-44.5" font-family="Helvetica,sans-Serif" font-size="10.00">_clear</text>
</a>
</g>
</g>
<!-- Node1&#45;&gt;Node10 -->
<g id="edge9_Node000001_Node000010" class="edge">
<title>Node1&#45;&gt;Node10</title>
<g id="a_edge9_Node000001_Node000010"><a xlink:title=" ">
<path fill="none" stroke="#63b8ff" d="M101.25,-122.67C123.95,-110.71 164.08,-90.39 200,-76.5 204.41,-74.79 209,-73.13 213.65,-71.53"/>
<polygon fill="#63b8ff" stroke="#63b8ff" points="214.71,-74.87 223.1,-68.4 212.51,-68.22 214.71,-74.87"/>
</a>
</g>
</g>
<!-- Node12 -->
<g id="Node000012" class="node">
<title>Node12</title>
<g id="a_Node000012"><a xlink:href="mnote-pentax-tag_8c.html#acdaa78f9ce11f169fb2eba9ae3444eab" target="_top" xlink:title=" ">
<polygon fill="white" stroke="#666666" points="362,-19 200,-19 200,0 362,0 362,-19"/>
<text text-anchor="middle" x="281" y="-7" font-family="Helvetica,sans-Serif" font-size="10.00">mnote_pentax_tag_get_name</text>
</a>
</g>
</g>
<!-- Node1&#45;&gt;Node12 -->
<g id="edge11_Node000001_Node000012" class="edge">
<title>Node1&#45;&gt;Node12</title>
<g id="a_edge11_Node000001_Node000012"><a xlink:title=" ">
<path fill="none" stroke="#63b8ff" d="M90.95,-122.73C108.38,-101.97 152.27,-53.34 200,-28.5 203.88,-26.48 207.97,-24.67 212.18,-23.06"/>
<polygon fill="#63b8ff" stroke="#63b8ff" points="213.04,-26.46 221.36,-19.9 210.77,-19.84 213.04,-26.46"/>
</a>
</g>
</g>
<!-- Node4 -->
<g id="Node000004" class="node">
<title>Node4</title>
<g id="a_Node000004"><a xlink:href="exif-utils_8c.html#a56b96f076a13da6ed926e1ef29cb2dc3" target="_top" xlink:title="Retrieve an ExifSLong value from memory.">
<polygon fill="white" stroke="#666666" points="488,-216 400,-216 400,-197 488,-197 488,-216"/>
<text text-anchor="middle" x="444" y="-204" font-family="Helvetica,sans-Serif" font-size="10.00">exif_get_slong</text>
</a>
</g>
</g>
<!-- Node3&#45;&gt;Node4 -->
<g id="edge3_Node000003_Node000004" class="edge">
<title>Node3&#45;&gt;Node4</title>
<g id="a_edge3_Node000003_Node000004"><a xlink:title=" ">
<path fill="none" stroke="#63b8ff" d="M322.63,-206.5C342.53,-206.5 366.77,-206.5 388.28,-206.5"/>
<polygon fill="#63b8ff" stroke="#63b8ff" points="388.05,-210 398.05,-206.5 388.05,-203 388.05,-210"/>
</a>
</g>
</g>
<!-- Node6 -->
<g id="Node000006" class="node">
<title>Node6</title>
<g id="a_Node000006"><a xlink:href="exif-utils_8c.html#a6baf094a71392f9cea23ad633ec13c8b" target="_top" xlink:title="Retrieve an ExifSShort value from memory.">
<polygon fill="white" stroke="#666666" points="490,-179 398,-179 398,-160 490,-160 490,-179"/>
<text text-anchor="middle" x="444" y="-167" font-family="Helvetica,sans-Serif" font-size="10.00">exif_get_sshort</text>
</a>
</g>
</g>
<!-- Node5&#45;&gt;Node6 -->
<g id="edge5_Node000005_Node000006" class="edge">
<title>Node5&#45;&gt;Node6</title>
<g id="a_edge5_Node000005_Node000006"><a xlink:title=" ">
<path fill="none" stroke="#63b8ff" d="M324.3,-169.5C343.24,-169.5 365.84,-169.5 386.22,-169.5"/>
<polygon fill="#63b8ff" stroke="#63b8ff" points="386.08,-173 396.08,-169.5 386.08,-166 386.08,-173"/>
</a>
</g>
</g>
<!-- Node8 -->
<g id="Node000008" class="node">
<title>Node8</title>
<g id="a_Node000008"><a xlink:href="exif-log_8c.html#a99101b5ad01b2d82ce9d43c9e8534627" target="_top" xlink:title=" ">
<polygon fill="white" stroke="#666666" points="475,-142 413,-142 413,-123 475,-123 475,-142"/>
<text text-anchor="middle" x="444" y="-130" font-family="Helvetica,sans-Serif" font-size="10.00">exif_logv</text>
</a>
</g>
</g>
<!-- Node7&#45;&gt;Node8 -->
<g id="edge7_Node000007_Node000008" class="edge">
<title>Node7&#45;&gt;Node8</title>
<g id="a_edge7_Node000007_Node000008"><a xlink:title=" ">
<path fill="none" stroke="#63b8ff" d="M309.31,-132.5C334.46,-132.5 372.16,-132.5 401.12,-132.5"/>
<polygon fill="#63b8ff" stroke="#63b8ff" points="401.02,-136 411.02,-132.5 401.02,-129 401.02,-136"/>
</a>
</g>
</g>
<!-- Node11 -->
<g id="Node000011" class="node">
<title>Node11</title>
<g id="a_Node000011"><a xlink:href="exif-mem_8c.html#a43190b81b4b4bdb4ffb89bfb612051b1" target="_top" xlink:title=" ">
<polygon fill="white" stroke="#666666" points="489.5,-62 398.5,-62 398.5,-43 489.5,-43 489.5,-62"/>
<text text-anchor="middle" x="444" y="-50" font-family="Helvetica,sans-Serif" font-size="10.00">exif_mem_free</text>
</a>
</g>
</g>
<!-- Node10&#45;&gt;Node11 -->
<g id="edge10_Node000010_Node000011" class="edge">
<title>Node10&#45;&gt;Node11</title>
<g id="a_edge10_Node000010_Node000011"><a xlink:title=" ">
<path fill="none" stroke="#63b8ff" d="M350.28,-52.5C362.62,-52.5 375.35,-52.5 387.28,-52.5"/>
<polygon fill="#63b8ff" stroke="#63b8ff" points="386.92,-56 396.92,-52.5 386.92,-49 386.92,-56"/>
</a>
</g>
</g>
</g>
</svg>
