<?xml version="1.0" encoding="UTF-8" standalone="no"?>
<!DOCTYPE svg PUBLIC "-//W3C//DTD SVG 1.1//EN"
 "http://www.w3.org/Graphics/SVG/1.1/DTD/svg11.dtd">
<!-- Generated by graphviz version 7.0.1 (0)
 -->
<!-- Title: exif_mnote_data_fuji_load Pages: 1 -->
<svg width="462pt" height="261pt"
 viewBox="0.00 0.00 462.00 261.00" xmlns="http://www.w3.org/2000/svg" xmlns:xlink="http://www.w3.org/1999/xlink">
<g id="graph0" class="graph" transform="scale(1 1) rotate(0) translate(4 257)">
<title>exif_mnote_data_fuji_load</title>
<!-- Node1 -->
<g id="Node000001" class="node">
<title>Node1</title>
<g id="a_Node000001"><a xlink:title=" ">
<polygon fill="#999999" stroke="#666666" points="146,-142 0,-142 0,-123 146,-123 146,-142"/>
<text text-anchor="middle" x="73" y="-130" font-family="Helvetica,sans-Serif" font-size="10.00">exif_mnote_data_fuji_load</text>
</a>
</g>
</g>
<!-- Node2 -->
<g id="Node000002" class="node">
<title>Node2</title>
<g id="a_Node000002"><a xlink:href="exif-format_8c.html#a924038efe0cd8ebade8f44619dd794f3" target="_top" xlink:title="Return the raw size of the given EXIF data type.">
<polygon fill="white" stroke="#666666" points="313.5,-253 194.5,-253 194.5,-234 313.5,-234 313.5,-253"/>
<text text-anchor="middle" x="254" y="-241" font-family="Helvetica,sans-Serif" font-size="10.00">exif_format_get_size</text>
</a>
</g>
</g>
<!-- Node1&#45;&gt;Node2 -->
<g id="edge1_Node000001_Node000002" class="edge">
<title>Node1&#45;&gt;Node2</title>
<g id="a_edge1_Node000001_Node000002"><a xlink:title=" ">
<path fill="none" stroke="#63b8ff" d="M82.44,-142.32C99.35,-161.36 139.41,-203.35 182,-225.5 185.01,-227.06 188.15,-228.5 191.38,-229.81"/>
<polygon fill="#63b8ff" stroke="#63b8ff" points="189.88,-232.99 200.48,-233.09 192.26,-226.4 189.88,-232.99"/>
</a>
</g>
</g>
<!-- Node3 -->
<g id="Node000003" class="node">
<title>Node3</title>
<g id="a_Node000003"><a xlink:href="exif-utils_8c.html#a4ad94614630897766dd0a5c9bc2a59bf" target="_top" xlink:title="Retrieve an ExifLong value from memory.">
<polygon fill="white" stroke="#666666" points="295.5,-216 212.5,-216 212.5,-197 295.5,-197 295.5,-216"/>
<text text-anchor="middle" x="254" y="-204" font-family="Helvetica,sans-Serif" font-size="10.00">exif_get_long</text>
</a>
</g>
</g>
<!-- Node1&#45;&gt;Node3 -->
<g id="edge2_Node000001_Node000003" class="edge">
<title>Node1&#45;&gt;Node3</title>
<g id="a_edge2_Node000001_Node000003"><a xlink:title=" ">
<path fill="none" stroke="#63b8ff" d="M90.29,-142.46C110.96,-154.75 148.04,-175.59 182,-188.5 188.17,-190.85 194.75,-192.98 201.33,-194.89"/>
<polygon fill="#63b8ff" stroke="#63b8ff" points="200.29,-198.24 210.86,-197.5 202.14,-191.48 200.29,-198.24"/>
</a>
</g>
</g>
<!-- Node5 -->
<g id="Node000005" class="node">
<title>Node5</title>
<g id="a_Node000005"><a xlink:href="exif-utils_8c.html#a4b4acf537a8c6b9405e7b53be868e4d7" target="_top" xlink:title="Retrieve an ExifShort value from memory.">
<polygon fill="white" stroke="#666666" points="297,-179 211,-179 211,-160 297,-160 297,-179"/>
<text text-anchor="middle" x="254" y="-167" font-family="Helvetica,sans-Serif" font-size="10.00">exif_get_short</text>
</a>
</g>
</g>
<!-- Node1&#45;&gt;Node5 -->
<g id="edge4_Node000001_Node000005" class="edge">
<title>Node1&#45;&gt;Node5</title>
<g id="a_edge4_Node000001_Node000005"><a xlink:title=" ">
<path fill="none" stroke="#63b8ff" d="M121.97,-142.42C145.95,-147.37 175.03,-153.38 199.71,-158.48"/>
<polygon fill="#63b8ff" stroke="#63b8ff" points="198.71,-161.85 209.22,-160.45 200.13,-155 198.71,-161.85"/>
</a>
</g>
</g>
<!-- Node7 -->
<g id="Node000007" class="node">
<title>Node7</title>
<g id="a_Node000007"><a xlink:href="exif-log_8c.html#a025d4a5d96544913ea6f6ebbec69cb68" target="_top" xlink:title=" ">
<polygon fill="white" stroke="#666666" points="282,-142 226,-142 226,-123 282,-123 282,-142"/>
<text text-anchor="middle" x="254" y="-130" font-family="Helvetica,sans-Serif" font-size="10.00">exif_log</text>
</a>
</g>
</g>
<!-- Node1&#45;&gt;Node7 -->
<g id="edge6_Node000001_Node000007" class="edge">
<title>Node1&#45;&gt;Node7</title>
<g id="a_edge6_Node000001_Node000007"><a xlink:title=" ">
<path fill="none" stroke="#63b8ff" d="M146.29,-132.5C169.54,-132.5 194.4,-132.5 214.27,-132.5"/>
<polygon fill="#63b8ff" stroke="#63b8ff" points="214.13,-136 224.13,-132.5 214.13,-129 214.13,-136"/>
</a>
</g>
</g>
<!-- Node9 -->
<g id="Node000009" class="node">
<title>Node9</title>
<g id="a_Node000009"><a xlink:href="exif-mem_8c.html#a68be7c7afc8cff75adc3b1a28b5ae9a2" target="_top" xlink:title=" ">
<polygon fill="white" stroke="#666666" points="301.5,-105 206.5,-105 206.5,-86 301.5,-86 301.5,-105"/>
<text text-anchor="middle" x="254" y="-93" font-family="Helvetica,sans-Serif" font-size="10.00">exif_mem_alloc</text>
</a>
</g>
</g>
<!-- Node1&#45;&gt;Node9 -->
<g id="edge8_Node000001_Node000009" class="edge">
<title>Node1&#45;&gt;Node9</title>
<g id="a_edge8_Node000001_Node000009"><a xlink:title=" ">
<path fill="none" stroke="#63b8ff" d="M121.97,-122.58C144.4,-117.95 171.29,-112.39 194.87,-107.52"/>
<polygon fill="#63b8ff" stroke="#63b8ff" points="195.57,-110.94 204.66,-105.49 194.15,-104.09 195.57,-110.94"/>
</a>
</g>
</g>
<!-- Node10 -->
<g id="Node000010" class="node">
<title>Node10</title>
<g id="a_Node000010"><a xlink:href="exif-mnote-data-fuji_8c.html#ad97d8d547619a920d374e179be91282c" target="_top" xlink:title=" ">
<polygon fill="white" stroke="#666666" points="314,-67.5 194,-67.5 194,-37.5 314,-37.5 314,-67.5"/>
<text text-anchor="start" x="202" y="-55.5" font-family="Helvetica,sans-Serif" font-size="10.00">exif_mnote_data_fuji</text>
<text text-anchor="middle" x="254" y="-44.5" font-family="Helvetica,sans-Serif" font-size="10.00">_clear</text>
</a>
</g>
</g>
<!-- Node1&#45;&gt;Node10 -->
<g id="edge9_Node000001_Node000010" class="edge">
<title>Node1&#45;&gt;Node10</title>
<g id="a_edge9_Node000001_Node000010"><a xlink:title=" ">
<path fill="none" stroke="#63b8ff" d="M91.19,-122.54C112.18,-110.64 148.96,-90.55 182,-76.5 185.75,-74.9 189.65,-73.34 193.6,-71.82"/>
<polygon fill="#63b8ff" stroke="#63b8ff" points="194.54,-75.2 202.71,-68.45 192.11,-68.64 194.54,-75.2"/>
</a>
</g>
</g>
<!-- Node12 -->
<g id="Node000012" class="node">
<title>Node12</title>
<g id="a_Node000012"><a xlink:href="mnote-fuji-tag_8c.html#a259cd671430ac55895eec4cd9235028a" target="_top" xlink:title=" ">
<polygon fill="white" stroke="#666666" points="326,-19 182,-19 182,0 326,0 326,-19"/>
<text text-anchor="middle" x="254" y="-7" font-family="Helvetica,sans-Serif" font-size="10.00">mnote_fuji_tag_get_name</text>
</a>
</g>
</g>
<!-- Node1&#45;&gt;Node12 -->
<g id="edge11_Node000001_Node000012" class="edge">
<title>Node1&#45;&gt;Node12</title>
<g id="a_edge11_Node000001_Node000012"><a xlink:title=" ">
<path fill="none" stroke="#63b8ff" d="M81.21,-122.81C97.06,-102.2 137.12,-53.84 182,-28.5 185.22,-26.68 188.63,-25.03 192.13,-23.53"/>
<polygon fill="#63b8ff" stroke="#63b8ff" points="193.31,-26.83 201.43,-20.02 190.84,-20.28 193.31,-26.83"/>
</a>
</g>
</g>
<!-- Node4 -->
<g id="Node000004" class="node">
<title>Node4</title>
<g id="a_Node000004"><a xlink:href="exif-utils_8c.html#a56b96f076a13da6ed926e1ef29cb2dc3" target="_top" xlink:title="Retrieve an ExifSLong value from memory.">
<polygon fill="white" stroke="#666666" points="452,-216 364,-216 364,-197 452,-197 452,-216"/>
<text text-anchor="middle" x="408" y="-204" font-family="Helvetica,sans-Serif" font-size="10.00">exif_get_slong</text>
</a>
</g>
</g>
<!-- Node3&#45;&gt;Node4 -->
<g id="edge3_Node000003_Node000004" class="edge">
<title>Node3&#45;&gt;Node4</title>
<g id="a_edge3_Node000003_Node000004"><a xlink:title=" ">
<path fill="none" stroke="#63b8ff" d="M295.73,-206.5C313.14,-206.5 333.71,-206.5 352.41,-206.5"/>
<polygon fill="#63b8ff" stroke="#63b8ff" points="352.25,-210 362.25,-206.5 352.25,-203 352.25,-210"/>
</a>
</g>
</g>
<!-- Node6 -->
<g id="Node000006" class="node">
<title>Node6</title>
<g id="a_Node000006"><a xlink:href="exif-utils_8c.html#a6baf094a71392f9cea23ad633ec13c8b" target="_top" xlink:title="Retrieve an ExifSShort value from memory.">
<polygon fill="white" stroke="#666666" points="454,-179 362,-179 362,-160 454,-160 454,-179"/>
<text text-anchor="middle" x="408" y="-167" font-family="Helvetica,sans-Serif" font-size="10.00">exif_get_sshort</text>
</a>
</g>
</g>
<!-- Node5&#45;&gt;Node6 -->
<g id="edge5_Node000005_Node000006" class="edge">
<title>Node5&#45;&gt;Node6</title>
<g id="a_edge5_Node000005_Node000006"><a xlink:title=" ">
<path fill="none" stroke="#63b8ff" d="M297.34,-169.5C313.77,-169.5 332.83,-169.5 350.4,-169.5"/>
<polygon fill="#63b8ff" stroke="#63b8ff" points="350.18,-173 360.18,-169.5 350.18,-166 350.18,-173"/>
</a>
</g>
</g>
<!-- Node8 -->
<g id="Node000008" class="node">
<title>Node8</title>
<g id="a_Node000008"><a xlink:href="exif-log_8c.html#a99101b5ad01b2d82ce9d43c9e8534627" target="_top" xlink:title=" ">
<polygon fill="white" stroke="#666666" points="439,-142 377,-142 377,-123 439,-123 439,-142"/>
<text text-anchor="middle" x="408" y="-130" font-family="Helvetica,sans-Serif" font-size="10.00">exif_logv</text>
</a>
</g>
</g>
<!-- Node7&#45;&gt;Node8 -->
<g id="edge7_Node000007_Node000008" class="edge">
<title>Node7&#45;&gt;Node8</title>
<g id="a_edge7_Node000007_Node000008"><a xlink:title=" ">
<path fill="none" stroke="#63b8ff" d="M282.17,-132.5C305.31,-132.5 338.91,-132.5 365.42,-132.5"/>
<polygon fill="#63b8ff" stroke="#63b8ff" points="365.16,-136 375.16,-132.5 365.16,-129 365.16,-136"/>
</a>
</g>
</g>
<!-- Node11 -->
<g id="Node000011" class="node">
<title>Node11</title>
<g id="a_Node000011"><a xlink:href="exif-mem_8c.html#a43190b81b4b4bdb4ffb89bfb612051b1" target="_top" xlink:title=" ">
<polygon fill="white" stroke="#666666" points="453.5,-62 362.5,-62 362.5,-43 453.5,-43 453.5,-62"/>
<text text-anchor="middle" x="408" y="-50" font-family="Helvetica,sans-Serif" font-size="10.00">exif_mem_free</text>
</a>
</g>
</g>
<!-- Node10&#45;&gt;Node11 -->
<g id="edge10_Node000010_Node000011" class="edge">
<title>Node10&#45;&gt;Node11</title>
<g id="a_edge10_Node000010_Node000011"><a xlink:title=" ">
<path fill="none" stroke="#63b8ff" d="M314.2,-52.5C326.33,-52.5 339.06,-52.5 351.07,-52.5"/>
<polygon fill="#63b8ff" stroke="#63b8ff" points="350.81,-56 360.81,-52.5 350.81,-49 350.81,-56"/>
</a>
</g>
</g>
</g>
</svg>
