<?xml version="1.0" encoding="UTF-8" standalone="no"?>
<!DOCTYPE svg PUBLIC "-//W3C//DTD SVG 1.1//EN"
 "http://www.w3.org/Graphics/SVG/1.1/DTD/svg11.dtd">
<!-- Generated by graphviz version 2.44.1 (0)
 -->
<!-- Title: exif_content_remove_entry Pages: 1 -->
<svg width="655pt" height="117pt"
 viewBox="0.00 0.00 655.00 116.74" xmlns="http://www.w3.org/2000/svg" xmlns:xlink="http://www.w3.org/1999/xlink">
<g id="graph0" class="graph" transform="scale(1 1) rotate(0) translate(4 112.74)">
<title>exif_content_remove_entry</title>
<polygon fill="white" stroke="transparent" points="-4,4 -4,-112.74 651,-112.74 651,4 -4,4"/>
<!-- Node1 -->
<g id="node1" class="node">
<title>Node1</title>
<g id="a_node1"><a xlink:title="Remove an EXIF tag from an IFD.">
<polygon fill="#bfbfbf" stroke="black" points="0,-33 0,-63 120,-63 120,-33 0,-33"/>
<text text-anchor="start" x="8" y="-51" font-family="Helvetica,sans-Serif" font-size="10.00">exif_content_remove</text>
<text text-anchor="middle" x="60" y="-40" font-family="Helvetica,sans-Serif" font-size="10.00">_entry</text>
</a>
</g>
</g>
<!-- Node2 -->
<g id="node2" class="node">
<title>Node2</title>
<g id="a_node2"><a xlink:href="exif-entry_8c.html#a82d5d923121488d847d341727cdd2ef4" target="_top" xlink:title="Decrease reference counter for ExifEntry.">
<polygon fill="white" stroke="black" points="159.5,-76.5 159.5,-95.5 256.5,-95.5 256.5,-76.5 159.5,-76.5"/>
<text text-anchor="middle" x="208" y="-83.5" font-family="Helvetica,sans-Serif" font-size="10.00">exif_entry_unref</text>
</a>
</g>
</g>
<!-- Node1&#45;&gt;Node2 -->
<g id="edge1" class="edge">
<title>Node1&#45;&gt;Node2</title>
<path fill="none" stroke="midnightblue" d="M118.7,-63.02C132.55,-66.62 147.16,-70.43 160.43,-73.88"/>
<polygon fill="midnightblue" stroke="midnightblue" points="159.72,-77.31 170.28,-76.44 161.49,-70.54 159.72,-77.31"/>
</g>
<!-- Node4 -->
<g id="node4" class="node">
<title>Node4</title>
<g id="a_node4"><a xlink:href="exif-mem_8c.html#a43190b81b4b4bdb4ffb89bfb612051b1" target="_top" xlink:title=" ">
<polygon fill="white" stroke="black" points="556,-76.5 556,-95.5 647,-95.5 647,-76.5 556,-76.5"/>
<text text-anchor="middle" x="601.5" y="-83.5" font-family="Helvetica,sans-Serif" font-size="10.00">exif_mem_free</text>
</a>
</g>
</g>
<!-- Node1&#45;&gt;Node4 -->
<g id="edge6" class="edge">
<title>Node1&#45;&gt;Node4</title>
<path fill="none" stroke="midnightblue" d="M120.01,-46.87C207.69,-45.99 377.38,-47.4 520,-67 531.88,-68.63 544.58,-71.22 556.3,-73.97"/>
<polygon fill="midnightblue" stroke="midnightblue" points="555.75,-77.44 566.3,-76.41 557.41,-70.64 555.75,-77.44"/>
</g>
<!-- Node6 -->
<g id="node6" class="node">
<title>Node6</title>
<g id="a_node6"><a xlink:href="exif-mem_8c.html#a3dcfe6794d82e79e92da5e2c62484b17" target="_top" xlink:title=" ">
<polygon fill="white" stroke="black" points="156,-0.5 156,-19.5 260,-19.5 260,-0.5 156,-0.5"/>
<text text-anchor="middle" x="208" y="-7.5" font-family="Helvetica,sans-Serif" font-size="10.00">exif_mem_realloc</text>
</a>
</g>
</g>
<!-- Node1&#45;&gt;Node6 -->
<g id="edge7" class="edge">
<title>Node1&#45;&gt;Node6</title>
<path fill="none" stroke="midnightblue" d="M118.7,-32.98C132.55,-29.38 147.16,-25.57 160.43,-22.12"/>
<polygon fill="midnightblue" stroke="midnightblue" points="161.49,-25.46 170.28,-19.56 159.72,-18.69 161.49,-25.46"/>
</g>
<!-- Node3 -->
<g id="node3" class="node">
<title>Node3</title>
<g id="a_node3"><a xlink:href="exif-entry_8c.html#a2879215e3863186650d3f32eb63bbaf4" target="_top" xlink:title="Actually free the ExifEntry.">
<polygon fill="white" stroke="black" points="296,-76.5 296,-95.5 387,-95.5 387,-76.5 296,-76.5"/>
<text text-anchor="middle" x="341.5" y="-83.5" font-family="Helvetica,sans-Serif" font-size="10.00">exif_entry_free</text>
</a>
</g>
</g>
<!-- Node2&#45;&gt;Node3 -->
<g id="edge2" class="edge">
<title>Node2&#45;&gt;Node3</title>
<path fill="none" stroke="midnightblue" d="M256.85,-86C266.23,-86 276.14,-86 285.73,-86"/>
<polygon fill="midnightblue" stroke="midnightblue" points="285.97,-89.5 295.97,-86 285.97,-82.5 285.97,-89.5"/>
</g>
<!-- Node3&#45;&gt;Node4 -->
<g id="edge3" class="edge">
<title>Node3&#45;&gt;Node4</title>
<path fill="none" stroke="midnightblue" d="M375.09,-95.51C389.62,-99.27 407.03,-103.14 423,-105 465.82,-109.99 477.18,-109.99 520,-105 532.48,-103.55 545.83,-100.87 558.01,-97.97"/>
<polygon fill="midnightblue" stroke="midnightblue" points="559.05,-101.32 567.91,-95.51 557.36,-94.52 559.05,-101.32"/>
</g>
<!-- Node5 -->
<g id="node5" class="node">
<title>Node5</title>
<g id="a_node5"><a xlink:href="exif-mem_8c.html#a66744e0987af08c443df247ce55f7d87" target="_top" xlink:title="Unrefcount an ExifMem.">
<polygon fill="white" stroke="black" points="423,-76.5 423,-95.5 520,-95.5 520,-76.5 423,-76.5"/>
<text text-anchor="middle" x="471.5" y="-83.5" font-family="Helvetica,sans-Serif" font-size="10.00">exif_mem_unref</text>
</a>
</g>
</g>
<!-- Node3&#45;&gt;Node5 -->
<g id="edge4" class="edge">
<title>Node3&#45;&gt;Node5</title>
<path fill="none" stroke="midnightblue" d="M387.27,-86C395.47,-86 404.13,-86 412.65,-86"/>
<polygon fill="midnightblue" stroke="midnightblue" points="412.93,-89.5 422.93,-86 412.93,-82.5 412.93,-89.5"/>
</g>
<!-- Node5&#45;&gt;Node4 -->
<g id="edge5" class="edge">
<title>Node5&#45;&gt;Node4</title>
<path fill="none" stroke="midnightblue" d="M520.16,-86C528.45,-86 537.13,-86 545.59,-86"/>
<polygon fill="midnightblue" stroke="midnightblue" points="545.77,-89.5 555.77,-86 545.77,-82.5 545.77,-89.5"/>
</g>
</g>
</svg>
