<?xml version="1.0" encoding="UTF-8" standalone="no"?>
<!DOCTYPE svg PUBLIC "-//W3C//DTD SVG 1.1//EN"
 "http://www.w3.org/Graphics/SVG/1.1/DTD/svg11.dtd">
<!-- Generated by graphviz version 2.44.1 (0)
 -->
<!-- Title: libexif/apple/exif&#45;mnote&#45;data&#45;apple.h Pages: 1 -->
<svg width="773pt" height="419pt"
 viewBox="0.00 0.00 772.51 419.00" xmlns="http://www.w3.org/2000/svg" xmlns:xlink="http://www.w3.org/1999/xlink">
<g id="graph0" class="graph" transform="scale(1 1) rotate(0) translate(4 415)">
<title>libexif/apple/exif&#45;mnote&#45;data&#45;apple.h</title>
<polygon fill="white" stroke="transparent" points="-4,4 -4,-415 768.51,-415 768.51,4 -4,4"/>
<!-- Node1 -->
<g id="node1" class="node">
<title>Node1</title>
<g id="a_node1"><a xlink:title=" ">
<polygon fill="#bfbfbf" stroke="black" points="215.5,-380.5 215.5,-410.5 332.5,-410.5 332.5,-380.5 215.5,-380.5"/>
<text text-anchor="start" x="223.5" y="-398.5" font-family="Helvetica,sans-Serif" font-size="10.00">libexif/apple/exif</text>
<text text-anchor="middle" x="274" y="-387.5" font-family="Helvetica,sans-Serif" font-size="10.00">&#45;mnote&#45;data&#45;apple.h</text>
</a>
</g>
</g>
<!-- Node2 -->
<g id="node2" class="node">
<title>Node2</title>
<g id="a_node2"><a xlink:href="exif-byte-order_8h.html" target="_top" xlink:title="Defines the ExifByteOrder enum and the associated functions.">
<polygon fill="white" stroke="black" points="171.5,-6 171.5,-25 302.5,-25 302.5,-6 171.5,-6"/>
<text text-anchor="middle" x="237" y="-13" font-family="Helvetica,sans-Serif" font-size="10.00">libexif/exif&#45;byte&#45;order.h</text>
</a>
</g>
</g>
<!-- Node1&#45;&gt;Node2 -->
<g id="edge1" class="edge">
<title>Node1&#45;&gt;Node2</title>
<path fill="none" stroke="midnightblue" d="M215.22,-391.57C134.71,-384.04 0,-357.28 0,-262.5 0,-262.5 0,-262.5 0,-143 0,-68.65 91.9,-37.85 161.24,-25.18"/>
<polygon fill="midnightblue" stroke="midnightblue" points="162.04,-28.6 171.3,-23.44 160.85,-21.7 162.04,-28.6"/>
</g>
<!-- Node3 -->
<g id="node3" class="node">
<title>Node3</title>
<g id="a_node3"><a xlink:href="exif-data_8h.html" target="_top" xlink:title="Defines the ExifData type and the associated functions.">
<polygon fill="white" stroke="black" points="344,-319 344,-338 446,-338 446,-319 344,-319"/>
<text text-anchor="middle" x="395" y="-326" font-family="Helvetica,sans-Serif" font-size="10.00">libexif/exif&#45;data.h</text>
</a>
</g>
</g>
<!-- Node1&#45;&gt;Node3 -->
<g id="edge2" class="edge">
<title>Node1&#45;&gt;Node3</title>
<path fill="none" stroke="midnightblue" d="M300.26,-380.4C321.02,-369.24 349.8,-353.78 370.18,-342.83"/>
<polygon fill="midnightblue" stroke="midnightblue" points="372.01,-345.82 379.16,-338.01 368.7,-339.66 372.01,-345.82"/>
</g>
<!-- Node7 -->
<g id="node7" class="node">
<title>Node7</title>
<g id="a_node7"><a xlink:href="exif-mem_8h.html" target="_top" xlink:title="Define the ExifMem data type and the associated functions.">
<polygon fill="white" stroke="black" points="334,-134.5 334,-153.5 440,-153.5 440,-134.5 334,-134.5"/>
<text text-anchor="middle" x="387" y="-141.5" font-family="Helvetica,sans-Serif" font-size="10.00">libexif/exif&#45;mem.h</text>
</a>
</g>
</g>
<!-- Node1&#45;&gt;Node7 -->
<g id="edge28" class="edge">
<title>Node1&#45;&gt;Node7</title>
<path fill="none" stroke="midnightblue" d="M280.22,-380.04C294.71,-346.48 331.96,-260.78 365,-190 369.24,-180.92 374.11,-170.91 378.2,-162.63"/>
<polygon fill="midnightblue" stroke="midnightblue" points="381.38,-164.1 382.69,-153.58 375.11,-160.98 381.38,-164.1"/>
</g>
<!-- Node16 -->
<g id="node16" class="node">
<title>Node16</title>
<g id="a_node16"><a xlink:href="exif-mnote-data-priv_8h.html" target="_top" xlink:title=" ">
<polygon fill="white" stroke="black" points="66.5,-313.5 66.5,-343.5 169.5,-343.5 169.5,-313.5 66.5,-313.5"/>
<text text-anchor="start" x="74.5" y="-331.5" font-family="Helvetica,sans-Serif" font-size="10.00">libexif/exif&#45;mnote</text>
<text text-anchor="middle" x="118" y="-320.5" font-family="Helvetica,sans-Serif" font-size="10.00">&#45;data&#45;priv.h</text>
</a>
</g>
</g>
<!-- Node1&#45;&gt;Node16 -->
<g id="edge29" class="edge">
<title>Node1&#45;&gt;Node16</title>
<path fill="none" stroke="midnightblue" d="M240.15,-380.4C216.95,-370.73 185.97,-357.82 161.02,-347.43"/>
<polygon fill="midnightblue" stroke="midnightblue" points="162.36,-344.19 151.78,-343.58 159.67,-350.65 162.36,-344.19"/>
</g>
<!-- Node17 -->
<g id="node17" class="node">
<title>Node17</title>
<g id="a_node17"><a xlink:href="mnote-apple-entry_8h.html" target="_top" xlink:title=" ">
<polygon fill="white" stroke="black" points="529,-67.5 529,-97.5 641,-97.5 641,-67.5 529,-67.5"/>
<text text-anchor="start" x="537" y="-85.5" font-family="Helvetica,sans-Serif" font-size="10.00">libexif/apple/mnote</text>
<text text-anchor="middle" x="585" y="-74.5" font-family="Helvetica,sans-Serif" font-size="10.00">&#45;apple&#45;entry.h</text>
</a>
</g>
</g>
<!-- Node1&#45;&gt;Node17 -->
<g id="edge33" class="edge">
<title>Node1&#45;&gt;Node17</title>
<path fill="none" stroke="midnightblue" d="M332.62,-391.07C462.68,-381.84 764,-350.93 764,-262.5 764,-262.5 764,-262.5 764,-199 764,-168.9 766.05,-155.51 745,-134 720.45,-108.92 683.58,-96.27 651.42,-89.89"/>
<polygon fill="midnightblue" stroke="midnightblue" points="651.62,-86.37 641.16,-88.03 650.38,-93.26 651.62,-86.37"/>
</g>
<!-- Node3&#45;&gt;Node2 -->
<g id="edge3" class="edge">
<title>Node3&#45;&gt;Node2</title>
<path fill="none" stroke="midnightblue" d="M388.8,-318.78C381.88,-308.88 370.53,-292.15 362,-277 312.29,-188.77 263.24,-77.68 244.73,-34.67"/>
<polygon fill="midnightblue" stroke="midnightblue" points="247.85,-33.07 240.7,-25.25 241.42,-35.82 247.85,-33.07"/>
</g>
<!-- Node4 -->
<g id="node4" class="node">
<title>Node4</title>
<g id="a_node4"><a xlink:href="exif-data-type_8h.html" target="_top" xlink:title=" ">
<polygon fill="white" stroke="black" points="496,-134.5 496,-153.5 624,-153.5 624,-134.5 496,-134.5"/>
<text text-anchor="middle" x="560" y="-141.5" font-family="Helvetica,sans-Serif" font-size="10.00">libexif/exif&#45;data&#45;type.h</text>
</a>
</g>
</g>
<!-- Node3&#45;&gt;Node4 -->
<g id="edge4" class="edge">
<title>Node3&#45;&gt;Node4</title>
<path fill="none" stroke="midnightblue" d="M429.19,-318.99C453.15,-311.47 484.43,-298.32 505,-277 536.36,-244.5 550.93,-191.52 556.73,-163.59"/>
<polygon fill="midnightblue" stroke="midnightblue" points="560.2,-164.07 558.65,-153.59 553.33,-162.75 560.2,-164.07"/>
</g>
<!-- Node5 -->
<g id="node5" class="node">
<title>Node5</title>
<g id="a_node5"><a xlink:href="exif-ifd_8h.html" target="_top" xlink:title=" ">
<polygon fill="white" stroke="black" points="642.5,-134.5 642.5,-153.5 735.5,-153.5 735.5,-134.5 642.5,-134.5"/>
<text text-anchor="middle" x="689" y="-141.5" font-family="Helvetica,sans-Serif" font-size="10.00">libexif/exif&#45;ifd.h</text>
</a>
</g>
</g>
<!-- Node3&#45;&gt;Node5 -->
<g id="edge5" class="edge">
<title>Node3&#45;&gt;Node5</title>
<path fill="none" stroke="midnightblue" d="M446.41,-319.88C487.08,-312.54 544.56,-299.21 591,-277 635.99,-255.49 655.93,-253.11 681,-210 689.13,-196.02 690.69,-177.52 690.48,-163.83"/>
<polygon fill="midnightblue" stroke="midnightblue" points="693.97,-163.49 689.99,-153.67 686.98,-163.83 693.97,-163.49"/>
</g>
<!-- Node6 -->
<g id="node6" class="node">
<title>Node6</title>
<g id="a_node6"><a xlink:href="exif-log_8h.html" target="_top" xlink:title="Log message infrastructure.">
<polygon fill="white" stroke="black" points="150.5,-190.5 150.5,-209.5 245.5,-209.5 245.5,-190.5 150.5,-190.5"/>
<text text-anchor="middle" x="198" y="-197.5" font-family="Helvetica,sans-Serif" font-size="10.00">libexif/exif&#45;log.h</text>
</a>
</g>
</g>
<!-- Node3&#45;&gt;Node6 -->
<g id="edge6" class="edge">
<title>Node3&#45;&gt;Node6</title>
<path fill="none" stroke="midnightblue" d="M376.25,-318.91C356.32,-309.51 324.14,-293.57 298,-277 267.84,-257.88 235.34,-232.12 215.84,-216.04"/>
<polygon fill="midnightblue" stroke="midnightblue" points="218.02,-213.3 208.09,-209.59 213.54,-218.68 218.02,-213.3"/>
</g>
<!-- Node3&#45;&gt;Node7 -->
<g id="edge27" class="edge">
<title>Node3&#45;&gt;Node7</title>
<path fill="none" stroke="midnightblue" d="M389.05,-318.67C382.89,-308.95 373.66,-292.62 370,-277 360.65,-237.04 372.46,-188.98 380.57,-163.3"/>
<polygon fill="midnightblue" stroke="midnightblue" points="383.91,-164.35 383.74,-153.76 377.26,-162.14 383.91,-164.35"/>
</g>
<!-- Node12 -->
<g id="node12" class="node">
<title>Node12</title>
<g id="a_node12"><a xlink:href="exif-tag_8h.html" target="_top" xlink:title="Handling EXIF tags.">
<polygon fill="white" stroke="black" points="576,-190.5 576,-209.5 672,-209.5 672,-190.5 576,-190.5"/>
<text text-anchor="middle" x="624" y="-197.5" font-family="Helvetica,sans-Serif" font-size="10.00">libexif/exif&#45;tag.h</text>
</a>
</g>
</g>
<!-- Node3&#45;&gt;Node12 -->
<g id="edge13" class="edge">
<title>Node3&#45;&gt;Node12</title>
<path fill="none" stroke="midnightblue" d="M446.22,-320.1C481.12,-313.21 527.14,-300.34 562,-277 584.59,-261.87 603.12,-236.05 613.87,-218.76"/>
<polygon fill="midnightblue" stroke="midnightblue" points="617.15,-220.09 619.27,-209.71 611.14,-216.5 617.15,-220.09"/>
</g>
<!-- Node13 -->
<g id="node13" class="node">
<title>Node13</title>
<g id="a_node13"><a xlink:href="exif-content_8h.html" target="_top" xlink:title="Handling EXIF IFDs.">
<polygon fill="white" stroke="black" points="378.5,-252 378.5,-271 495.5,-271 495.5,-252 378.5,-252"/>
<text text-anchor="middle" x="437" y="-259" font-family="Helvetica,sans-Serif" font-size="10.00">libexif/exif&#45;content.h</text>
</a>
</g>
</g>
<!-- Node3&#45;&gt;Node13 -->
<g id="edge16" class="edge">
<title>Node3&#45;&gt;Node13</title>
<path fill="none" stroke="midnightblue" d="M395.88,-318.73C400.29,-308.6 410.82,-291.69 420.33,-279.06"/>
<polygon fill="midnightblue" stroke="midnightblue" points="423.16,-281.13 426.67,-271.13 417.69,-276.76 423.16,-281.13"/>
</g>
<!-- Node15 -->
<g id="node15" class="node">
<title>Node15</title>
<g id="a_node15"><a xlink:href="exif-mnote-data_8h.html" target="_top" xlink:title="Handling EXIF MakerNote tags.">
<polygon fill="white" stroke="black" points="104.5,-246.5 104.5,-276.5 207.5,-276.5 207.5,-246.5 104.5,-246.5"/>
<text text-anchor="start" x="112.5" y="-264.5" font-family="Helvetica,sans-Serif" font-size="10.00">libexif/exif&#45;mnote</text>
<text text-anchor="middle" x="156" y="-253.5" font-family="Helvetica,sans-Serif" font-size="10.00">&#45;data.h</text>
</a>
</g>
</g>
<!-- Node3&#45;&gt;Node15 -->
<g id="edge25" class="edge">
<title>Node3&#45;&gt;Node15</title>
<path fill="none" stroke="midnightblue" d="M363.26,-318.87C326.16,-308.78 263.89,-291.84 217.28,-279.16"/>
<polygon fill="midnightblue" stroke="midnightblue" points="218.15,-275.78 207.58,-276.53 216.31,-282.53 218.15,-275.78"/>
</g>
<!-- Node6&#45;&gt;Node7 -->
<g id="edge7" class="edge">
<title>Node6&#45;&gt;Node7</title>
<path fill="none" stroke="midnightblue" d="M227.95,-190.44C260.16,-181.24 311.53,-166.56 347.14,-156.39"/>
<polygon fill="midnightblue" stroke="midnightblue" points="348.54,-159.63 357.19,-153.52 346.62,-152.9 348.54,-159.63"/>
</g>
<!-- Node11 -->
<g id="node11" class="node">
<title>Node11</title>
<g id="a_node11"><a xlink:title=" ">
<polygon fill="white" stroke="#bfbfbf" points="170,-134.5 170,-153.5 226,-153.5 226,-134.5 170,-134.5"/>
<text text-anchor="middle" x="198" y="-141.5" font-family="Helvetica,sans-Serif" font-size="10.00">stdarg.h</text>
</a>
</g>
</g>
<!-- Node6&#45;&gt;Node11 -->
<g id="edge12" class="edge">
<title>Node6&#45;&gt;Node11</title>
<path fill="none" stroke="midnightblue" d="M198,-190.08C198,-183.01 198,-172.86 198,-163.99"/>
<polygon fill="midnightblue" stroke="midnightblue" points="201.5,-163.75 198,-153.75 194.5,-163.75 201.5,-163.75"/>
</g>
<!-- Node8 -->
<g id="node8" class="node">
<title>Node8</title>
<g id="a_node8"><a xlink:href="exif-utils_8h.html" target="_top" xlink:title="EXIF data manipulation functions and types.">
<polygon fill="white" stroke="black" points="335.5,-73 335.5,-92 436.5,-92 436.5,-73 335.5,-73"/>
<text text-anchor="middle" x="386" y="-80" font-family="Helvetica,sans-Serif" font-size="10.00">libexif/exif&#45;utils.h</text>
</a>
</g>
</g>
<!-- Node7&#45;&gt;Node8 -->
<g id="edge8" class="edge">
<title>Node7&#45;&gt;Node8</title>
<path fill="none" stroke="midnightblue" d="M386.86,-134.48C386.72,-126.08 386.5,-112.98 386.31,-102.16"/>
<polygon fill="midnightblue" stroke="midnightblue" points="389.81,-101.95 386.14,-92.01 382.81,-102.07 389.81,-101.95"/>
</g>
<!-- Node8&#45;&gt;Node2 -->
<g id="edge9" class="edge">
<title>Node8&#45;&gt;Node2</title>
<path fill="none" stroke="midnightblue" d="M366.21,-72.87C340.61,-61.7 295.79,-42.15 266.25,-29.26"/>
<polygon fill="midnightblue" stroke="midnightblue" points="267.43,-25.96 256.87,-25.17 264.63,-32.37 267.43,-25.96"/>
</g>
<!-- Node9 -->
<g id="node9" class="node">
<title>Node9</title>
<g id="a_node9"><a xlink:href="exif-format_8h.html" target="_top" xlink:title="Handling native EXIF data types.">
<polygon fill="white" stroke="black" points="431.5,-6 431.5,-25 544.5,-25 544.5,-6 431.5,-6"/>
<text text-anchor="middle" x="488" y="-13" font-family="Helvetica,sans-Serif" font-size="10.00">libexif/exif&#45;format.h</text>
</a>
</g>
</g>
<!-- Node8&#45;&gt;Node9 -->
<g id="edge10" class="edge">
<title>Node8&#45;&gt;Node9</title>
<path fill="none" stroke="midnightblue" d="M399.76,-72.73C416.73,-61.92 445.81,-43.38 465.93,-30.57"/>
<polygon fill="midnightblue" stroke="midnightblue" points="467.91,-33.45 474.46,-25.13 464.15,-27.55 467.91,-33.45"/>
</g>
<!-- Node10 -->
<g id="node10" class="node">
<title>Node10</title>
<g id="a_node10"><a xlink:title=" ">
<polygon fill="white" stroke="#bfbfbf" points="321,-6 321,-25 413,-25 413,-6 321,-6"/>
<text text-anchor="middle" x="367" y="-13" font-family="Helvetica,sans-Serif" font-size="10.00">libexif/_stdint.h</text>
</a>
</g>
</g>
<!-- Node8&#45;&gt;Node10 -->
<g id="edge11" class="edge">
<title>Node8&#45;&gt;Node10</title>
<path fill="none" stroke="midnightblue" d="M383.44,-72.73C380.62,-63.09 376,-47.3 372.38,-34.91"/>
<polygon fill="midnightblue" stroke="midnightblue" points="375.69,-33.74 369.52,-25.13 368.97,-35.71 375.69,-33.74"/>
</g>
<!-- Node12&#45;&gt;Node4 -->
<g id="edge15" class="edge">
<title>Node12&#45;&gt;Node4</title>
<path fill="none" stroke="midnightblue" d="M613.72,-190.32C604.16,-182.26 589.72,-170.08 578.22,-160.37"/>
<polygon fill="midnightblue" stroke="midnightblue" points="580.37,-157.61 570.47,-153.83 575.86,-162.96 580.37,-157.61"/>
</g>
<!-- Node12&#45;&gt;Node5 -->
<g id="edge14" class="edge">
<title>Node12&#45;&gt;Node5</title>
<path fill="none" stroke="midnightblue" d="M634.44,-190.32C644.15,-182.26 658.82,-170.08 670.5,-160.37"/>
<polygon fill="midnightblue" stroke="midnightblue" points="672.91,-162.92 678.37,-153.83 668.44,-157.53 672.91,-162.92"/>
</g>
<!-- Node13&#45;&gt;Node3 -->
<g id="edge22" class="edge">
<title>Node13&#45;&gt;Node3</title>
<path fill="none" stroke="midnightblue" d="M436.18,-271.13C431.82,-281.2 421.32,-298.1 411.8,-310.77"/>
<polygon fill="midnightblue" stroke="midnightblue" points="408.95,-308.73 405.45,-318.73 414.42,-313.09 408.95,-308.73"/>
</g>
<!-- Node13&#45;&gt;Node6 -->
<g id="edge23" class="edge">
<title>Node13&#45;&gt;Node6</title>
<path fill="none" stroke="midnightblue" d="M402.76,-251.98C360.43,-241.44 288.32,-223.49 241.95,-211.94"/>
<polygon fill="midnightblue" stroke="midnightblue" points="242.73,-208.53 232.18,-209.51 241.04,-215.32 242.73,-208.53"/>
</g>
<!-- Node13&#45;&gt;Node7 -->
<g id="edge24" class="edge">
<title>Node13&#45;&gt;Node7</title>
<path fill="none" stroke="midnightblue" d="M431.03,-251.9C424.44,-242.12 413.86,-225.48 407,-210 400.27,-194.82 394.9,-176.7 391.43,-163.46"/>
<polygon fill="midnightblue" stroke="midnightblue" points="394.79,-162.5 388.96,-153.65 388,-164.2 394.79,-162.5"/>
</g>
<!-- Node13&#45;&gt;Node12 -->
<g id="edge17" class="edge">
<title>Node13&#45;&gt;Node12</title>
<path fill="none" stroke="midnightblue" d="M463.79,-251.98C496.29,-241.64 551.21,-224.16 587.54,-212.6"/>
<polygon fill="midnightblue" stroke="midnightblue" points="588.79,-215.88 597.26,-209.51 586.67,-209.21 588.79,-215.88"/>
</g>
<!-- Node14 -->
<g id="node14" class="node">
<title>Node14</title>
<g id="a_node14"><a xlink:href="exif-entry_8h.html" target="_top" xlink:title="Handling EXIF entries.">
<polygon fill="white" stroke="black" points="416,-190.5 416,-209.5 520,-209.5 520,-190.5 416,-190.5"/>
<text text-anchor="middle" x="468" y="-197.5" font-family="Helvetica,sans-Serif" font-size="10.00">libexif/exif&#45;entry.h</text>
</a>
</g>
</g>
<!-- Node13&#45;&gt;Node14 -->
<g id="edge18" class="edge">
<title>Node13&#45;&gt;Node14</title>
<path fill="none" stroke="midnightblue" d="M436.54,-251.98C439.22,-243.14 446.12,-229.09 452.99,-217.98"/>
<polygon fill="midnightblue" stroke="midnightblue" points="456.01,-219.76 458.67,-209.51 450.19,-215.87 456.01,-219.76"/>
</g>
<!-- Node14&#45;&gt;Node7 -->
<g id="edge21" class="edge">
<title>Node14&#45;&gt;Node7</title>
<path fill="none" stroke="midnightblue" d="M454.99,-190.32C442.47,-181.98 423.32,-169.21 408.53,-159.35"/>
<polygon fill="midnightblue" stroke="midnightblue" points="410.24,-156.29 399.98,-153.65 406.36,-162.11 410.24,-156.29"/>
</g>
<!-- Node14&#45;&gt;Node9 -->
<g id="edge20" class="edge">
<title>Node14&#45;&gt;Node9</title>
<path fill="none" stroke="midnightblue" d="M468.96,-190.2C472.05,-162.07 481.7,-73.96 485.96,-35.16"/>
<polygon fill="midnightblue" stroke="midnightblue" points="489.43,-35.54 487.05,-25.21 482.48,-34.77 489.43,-35.54"/>
</g>
<!-- Node14&#45;&gt;Node13 -->
<g id="edge19" class="edge">
<title>Node14&#45;&gt;Node13</title>
<path fill="none" stroke="midnightblue" d="M468.46,-209.51C465.79,-218.34 458.9,-232.39 452.02,-243.51"/>
<polygon fill="midnightblue" stroke="midnightblue" points="449,-241.72 446.34,-251.98 454.82,-245.62 449,-241.72"/>
</g>
<!-- Node15&#45;&gt;Node6 -->
<g id="edge26" class="edge">
<title>Node15&#45;&gt;Node6</title>
<path fill="none" stroke="midnightblue" d="M165.95,-246.4C171.99,-237.84 179.74,-226.87 186.1,-217.86"/>
<polygon fill="midnightblue" stroke="midnightblue" points="188.98,-219.85 191.89,-209.66 183.26,-215.81 188.98,-219.85"/>
</g>
<!-- Node16&#45;&gt;Node2 -->
<g id="edge31" class="edge">
<title>Node16&#45;&gt;Node2</title>
<path fill="none" stroke="midnightblue" d="M101.42,-313.4C77.99,-291.79 38,-248.03 38,-201 38,-201 38,-201 38,-143 38,-75.37 120.86,-42.35 179.65,-27.43"/>
<polygon fill="midnightblue" stroke="midnightblue" points="180.69,-30.78 189.59,-25.02 179.04,-23.98 180.69,-30.78"/>
</g>
<!-- Node16&#45;&gt;Node6 -->
<g id="edge32" class="edge">
<title>Node16&#45;&gt;Node6</title>
<path fill="none" stroke="midnightblue" d="M107.81,-313.46C96.73,-296.31 82.32,-267 96,-246 106.48,-229.92 124.14,-219.55 141.85,-212.87"/>
<polygon fill="midnightblue" stroke="midnightblue" points="143.31,-216.07 151.64,-209.53 141.05,-209.45 143.31,-216.07"/>
</g>
<!-- Node16&#45;&gt;Node15 -->
<g id="edge30" class="edge">
<title>Node16&#45;&gt;Node15</title>
<path fill="none" stroke="midnightblue" d="M126.25,-313.4C131.03,-305.22 137.16,-294.73 142.62,-285.39"/>
<polygon fill="midnightblue" stroke="midnightblue" points="145.75,-286.98 147.77,-276.58 139.7,-283.44 145.75,-286.98"/>
</g>
<!-- Node17&#45;&gt;Node2 -->
<g id="edge34" class="edge">
<title>Node17&#45;&gt;Node2</title>
<path fill="none" stroke="midnightblue" d="M528.77,-71.24C473.56,-61.12 386.95,-45.18 312,-31 305.26,-29.72 298.18,-28.37 291.17,-27.03"/>
<polygon fill="midnightblue" stroke="midnightblue" points="291.49,-23.52 281.01,-25.07 290.17,-30.4 291.49,-23.52"/>
</g>
<!-- Node17&#45;&gt;Node9 -->
<g id="edge35" class="edge">
<title>Node17&#45;&gt;Node9</title>
<path fill="none" stroke="midnightblue" d="M563.95,-67.4C547.69,-56.5 525.28,-41.48 509.02,-30.58"/>
<polygon fill="midnightblue" stroke="midnightblue" points="510.95,-27.67 500.7,-25.01 507.05,-33.48 510.95,-27.67"/>
</g>
<!-- Node18 -->
<g id="node18" class="node">
<title>Node18</title>
<g id="a_node18"><a xlink:href="mnote-apple-tag_8h.html" target="_top" xlink:title=" ">
<polygon fill="white" stroke="black" points="563,-0.5 563,-30.5 675,-30.5 675,-0.5 563,-0.5"/>
<text text-anchor="start" x="571" y="-18.5" font-family="Helvetica,sans-Serif" font-size="10.00">libexif/apple/mnote</text>
<text text-anchor="middle" x="619" y="-7.5" font-family="Helvetica,sans-Serif" font-size="10.00">&#45;apple&#45;tag.h</text>
</a>
</g>
</g>
<!-- Node17&#45;&gt;Node18 -->
<g id="edge36" class="edge">
<title>Node17&#45;&gt;Node18</title>
<path fill="none" stroke="midnightblue" d="M592.38,-67.4C596.61,-59.3 602.03,-48.94 606.87,-39.69"/>
<polygon fill="midnightblue" stroke="midnightblue" points="610.1,-41.06 611.64,-30.58 603.9,-37.82 610.1,-41.06"/>
</g>
</g>
</svg>
