<?xml version="1.0" encoding="UTF-8" standalone="no"?>
<!DOCTYPE svg PUBLIC "-//W3C//DTD SVG 1.1//EN"
 "http://www.w3.org/Graphics/SVG/1.1/DTD/svg11.dtd">
<!-- Generated by graphviz version 7.0.1 (0)
 -->
<!-- Title: exif_mnote_data_apple_new Pages: 1 -->
<svg width="970pt" height="710pt"
 viewBox="0.00 0.00 970.00 709.61" xmlns="http://www.w3.org/2000/svg" xmlns:xlink="http://www.w3.org/1999/xlink">
<g id="graph0" class="graph" transform="scale(1 1) rotate(0) translate(4 705.61)">
<title>exif_mnote_data_apple_new</title>
<!-- Node1 -->
<g id="Node000001" class="node">
<title>Node1</title>
<g id="a_Node000001"><a xlink:title=" ">
<polygon fill="#999999" stroke="#666666" points="157,-360.61 0,-360.61 0,-341.61 157,-341.61 157,-360.61"/>
<text text-anchor="middle" x="78.5" y="-348.61" font-family="Helvetica,sans-Serif" font-size="10.00">exif_mnote_data_apple_new</text>
</a>
</g>
</g>
<!-- Node2 -->
<g id="Node000002" class="node">
<title>Node2</title>
<g id="a_Node000002"><a xlink:href="exif-mem_8c.html#a68be7c7afc8cff75adc3b1a28b5ae9a2" target="_top" xlink:title=" ">
<polygon fill="white" stroke="#666666" points="512.5,-512.61 417.5,-512.61 417.5,-493.61 512.5,-493.61 512.5,-512.61"/>
<text text-anchor="middle" x="465" y="-500.61" font-family="Helvetica,sans-Serif" font-size="10.00">exif_mem_alloc</text>
</a>
</g>
</g>
<!-- Node1&#45;&gt;Node2 -->
<g id="edge1_Node000001_Node000002" class="edge">
<title>Node1&#45;&gt;Node2</title>
<g id="a_edge1_Node000001_Node000002"><a xlink:title=" ">
<path fill="none" stroke="#63b8ff" d="M84.19,-360.83C97.22,-386.62 136.65,-456.69 193,-485.11 259.96,-518.88 348.31,-517.64 405.64,-511.85"/>
<polygon fill="#63b8ff" stroke="#63b8ff" points="405.97,-515.34 415.52,-510.77 405.2,-508.38 405.97,-515.34"/>
</a>
</g>
</g>
<!-- Node3 -->
<g id="Node000003" class="node">
<title>Node3</title>
<g id="a_Node000003"><a xlink:href="exif-mnote-data-apple_8c.html#ab43d0be8b2d2b3d703b307a91e6dbcfb" target="_top" xlink:title=" ">
<polygon fill="white" stroke="#666666" points="337.5,-342.11 206.5,-342.11 206.5,-312.11 337.5,-312.11 337.5,-342.11"/>
<text text-anchor="start" x="214.5" y="-330.11" font-family="Helvetica,sans-Serif" font-size="10.00">exif_mnote_data_apple</text>
<text text-anchor="middle" x="272" y="-319.11" font-family="Helvetica,sans-Serif" font-size="10.00">_count</text>
</a>
</g>
</g>
<!-- Node1&#45;&gt;Node3 -->
<g id="edge2_Node000001_Node000003" class="edge">
<title>Node1&#45;&gt;Node3</title>
<g id="a_edge2_Node000001_Node000003"><a xlink:title=" ">
<path fill="none" stroke="#63b8ff" d="M157.39,-341.35C169.76,-339.8 182.54,-338.2 194.86,-336.65"/>
<polygon fill="#63b8ff" stroke="#63b8ff" points="195.04,-340.16 204.53,-335.44 194.17,-333.21 195.04,-340.16"/>
</a>
</g>
</g>
<!-- Node4 -->
<g id="Node000004" class="node">
<title>Node4</title>
<g id="a_Node000004"><a xlink:href="exif-mnote-data-apple_8c.html#a777bb9ad0cb336b9994b3b820d6567a9" target="_top" xlink:title=" ">
<polygon fill="white" stroke="#666666" points="543,-701.61 387,-701.61 387,-682.61 543,-682.61 543,-701.61"/>
<text text-anchor="middle" x="465" y="-689.61" font-family="Helvetica,sans-Serif" font-size="10.00">exif_mnote_data_apple_free</text>
</a>
</g>
</g>
<!-- Node1&#45;&gt;Node4 -->
<g id="edge3_Node000001_Node000004" class="edge">
<title>Node1&#45;&gt;Node4</title>
<g id="a_edge3_Node000001_Node000004"><a xlink:title=" ">
<path fill="none" stroke="#63b8ff" d="M81.27,-360.9C88.35,-397.43 118.03,-527.32 193,-598.11 242.83,-645.16 317.41,-668.79 375.73,-680.58"/>
<polygon fill="#63b8ff" stroke="#63b8ff" points="374.82,-683.97 385.3,-682.43 376.14,-677.1 374.82,-683.97"/>
</a>
</g>
</g>
<!-- Node6 -->
<g id="Node000006" class="node">
<title>Node6</title>
<g id="a_Node000006"><a xlink:href="exif-mnote-data-apple_8c.html#a5e1d5f0e1082c9fd3e4c765e70b5ec3d" target="_top" xlink:title=" ">
<polygon fill="white" stroke="#666666" points="337.5,-294.11 206.5,-294.11 206.5,-264.11 337.5,-264.11 337.5,-294.11"/>
<text text-anchor="start" x="214.5" y="-282.11" font-family="Helvetica,sans-Serif" font-size="10.00">exif_mnote_data_apple</text>
<text text-anchor="middle" x="272" y="-271.11" font-family="Helvetica,sans-Serif" font-size="10.00">_get_description</text>
</a>
</g>
</g>
<!-- Node1&#45;&gt;Node6 -->
<g id="edge5_Node000001_Node000006" class="edge">
<title>Node1&#45;&gt;Node6</title>
<g id="a_edge5_Node000001_Node000006"><a xlink:title=" ">
<path fill="none" stroke="#63b8ff" d="M101,-341.25C123.63,-331.04 160.43,-314.97 193,-303.11 197.69,-301.4 202.58,-299.71 207.5,-298.06"/>
<polygon fill="#63b8ff" stroke="#63b8ff" points="208.45,-301.43 216.87,-294.99 206.28,-294.77 208.45,-301.43"/>
</a>
</g>
</g>
<!-- Node8 -->
<g id="Node000008" class="node">
<title>Node8</title>
<g id="a_Node000008"><a xlink:href="exif-mnote-data-apple_8c.html#aa0f18630bfaf4c224719ea7e7478734b" target="_top" xlink:title=" ">
<polygon fill="white" stroke="#666666" points="337.5,-246.11 206.5,-246.11 206.5,-216.11 337.5,-216.11 337.5,-246.11"/>
<text text-anchor="start" x="214.5" y="-234.11" font-family="Helvetica,sans-Serif" font-size="10.00">exif_mnote_data_apple</text>
<text text-anchor="middle" x="272" y="-223.11" font-family="Helvetica,sans-Serif" font-size="10.00">_get_id</text>
</a>
</g>
</g>
<!-- Node1&#45;&gt;Node8 -->
<g id="edge7_Node000001_Node000008" class="edge">
<title>Node1&#45;&gt;Node8</title>
<g id="a_edge7_Node000001_Node000008"><a xlink:title=" ">
<path fill="none" stroke="#63b8ff" d="M88.52,-341.17C106.54,-321.87 149.07,-279.13 193,-255.11 195.65,-253.66 198.39,-252.29 201.21,-250.99"/>
<polygon fill="#63b8ff" stroke="#63b8ff" points="202.36,-254.3 210.21,-247.18 199.64,-247.85 202.36,-254.3"/>
</a>
</g>
</g>
<!-- Node9 -->
<g id="Node000009" class="node">
<title>Node9</title>
<g id="a_Node000009"><a xlink:href="exif-mnote-data-apple_8c.html#a0fdf678bd84b0c6ec3c53043fbe8492e" target="_top" xlink:title=" ">
<polygon fill="white" stroke="#666666" points="337.5,-198.11 206.5,-198.11 206.5,-168.11 337.5,-168.11 337.5,-198.11"/>
<text text-anchor="start" x="214.5" y="-186.11" font-family="Helvetica,sans-Serif" font-size="10.00">exif_mnote_data_apple</text>
<text text-anchor="middle" x="272" y="-175.11" font-family="Helvetica,sans-Serif" font-size="10.00">_get_name</text>
</a>
</g>
</g>
<!-- Node1&#45;&gt;Node9 -->
<g id="edge8_Node000001_Node000009" class="edge">
<title>Node1&#45;&gt;Node9</title>
<g id="a_edge8_Node000001_Node000009"><a xlink:title=" ">
<path fill="none" stroke="#63b8ff" d="M84.41,-341.4C97.99,-315.52 138.65,-244.36 193,-207.11 194.8,-205.88 196.66,-204.71 198.57,-203.6"/>
<polygon fill="#63b8ff" stroke="#63b8ff" points="199.85,-206.88 207.15,-199.2 196.66,-200.65 199.85,-206.88"/>
</a>
</g>
</g>
<!-- Node11 -->
<g id="Node000011" class="node">
<title>Node11</title>
<g id="a_Node000011"><a xlink:href="exif-mnote-data-apple_8c.html#ae2e93d6b0616d7626d780ee7da06c55f" target="_top" xlink:title=" ">
<polygon fill="white" stroke="#666666" points="337.5,-150.11 206.5,-150.11 206.5,-120.11 337.5,-120.11 337.5,-150.11"/>
<text text-anchor="start" x="214.5" y="-138.11" font-family="Helvetica,sans-Serif" font-size="10.00">exif_mnote_data_apple</text>
<text text-anchor="middle" x="272" y="-127.11" font-family="Helvetica,sans-Serif" font-size="10.00">_get_title</text>
</a>
</g>
</g>
<!-- Node1&#45;&gt;Node11 -->
<g id="edge10_Node000001_Node000011" class="edge">
<title>Node1&#45;&gt;Node11</title>
<g id="a_edge10_Node000001_Node000011"><a xlink:title=" ">
<path fill="none" stroke="#63b8ff" d="M82.41,-341.44C92.34,-310.11 127.93,-210.42 193,-159.11 194.32,-158.07 195.69,-157.07 197.09,-156.12"/>
<polygon fill="#63b8ff" stroke="#63b8ff" points="198.66,-159.25 205.54,-151.19 195.13,-153.21 198.66,-159.25"/>
</a>
</g>
</g>
<!-- Node13 -->
<g id="Node000013" class="node">
<title>Node13</title>
<g id="a_Node000013"><a xlink:href="exif-mnote-data-apple_8c.html#a1cadfd31c2134fbd42de82f8e53553a4" target="_top" xlink:title=" ">
<polygon fill="white" stroke="#666666" points="337.5,-438.11 206.5,-438.11 206.5,-408.11 337.5,-408.11 337.5,-438.11"/>
<text text-anchor="start" x="214.5" y="-426.11" font-family="Helvetica,sans-Serif" font-size="10.00">exif_mnote_data_apple</text>
<text text-anchor="middle" x="272" y="-415.11" font-family="Helvetica,sans-Serif" font-size="10.00">_get_value</text>
</a>
</g>
</g>
<!-- Node1&#45;&gt;Node13 -->
<g id="edge12_Node000001_Node000013" class="edge">
<title>Node1&#45;&gt;Node13</title>
<g id="a_edge12_Node000001_Node000013"><a xlink:title=" ">
<path fill="none" stroke="#63b8ff" d="M101,-360.97C123.63,-371.18 160.43,-387.25 193,-399.11 197.69,-400.82 202.58,-402.51 207.5,-404.16"/>
<polygon fill="#63b8ff" stroke="#63b8ff" points="206.28,-407.45 216.87,-407.23 208.45,-400.79 206.28,-407.45"/>
</a>
</g>
</g>
<!-- Node22 -->
<g id="Node000022" class="node">
<title>Node22</title>
<g id="a_Node000022"><a xlink:href="exif-mnote-data-apple_8c.html#a422b74c28b6d2990183bf6ac43fb60c1" target="_top" xlink:title=" ">
<polygon fill="white" stroke="#666666" points="351,-588.61 193,-588.61 193,-569.61 351,-569.61 351,-588.61"/>
<text text-anchor="middle" x="272" y="-576.61" font-family="Helvetica,sans-Serif" font-size="10.00">exif_mnote_data_apple_load</text>
</a>
</g>
</g>
<!-- Node1&#45;&gt;Node22 -->
<g id="edge25_Node000001_Node000022" class="edge">
<title>Node1&#45;&gt;Node22</title>
<g id="a_edge25_Node000001_Node000022"><a xlink:title=" ">
<path fill="none" stroke="#63b8ff" d="M84.72,-360.91C99.39,-387.89 143.19,-464.86 193,-518.11 208.95,-535.16 229.93,-551.29 246.11,-562.67"/>
<polygon fill="#63b8ff" stroke="#63b8ff" points="244.01,-565.48 254.23,-568.26 247.98,-559.71 244.01,-565.48"/>
</a>
</g>
</g>
<!-- Node25 -->
<g id="Node000025" class="node">
<title>Node25</title>
<g id="a_Node000025"><a xlink:href="exif-mnote-data-apple_8c.html#aeb7e2af3d82c2ff5e1cf5d633c3da145" target="_top" xlink:title=" ">
<polygon fill="white" stroke="#666666" points="337.5,-390.11 206.5,-390.11 206.5,-360.11 337.5,-360.11 337.5,-390.11"/>
<text text-anchor="start" x="214.5" y="-378.11" font-family="Helvetica,sans-Serif" font-size="10.00">exif_mnote_data_apple</text>
<text text-anchor="middle" x="272" y="-367.11" font-family="Helvetica,sans-Serif" font-size="10.00">_set_byte_order</text>
</a>
</g>
</g>
<!-- Node1&#45;&gt;Node25 -->
<g id="edge33_Node000001_Node000025" class="edge">
<title>Node1&#45;&gt;Node25</title>
<g id="a_edge33_Node000001_Node000025"><a xlink:title=" ">
<path fill="none" stroke="#63b8ff" d="M157.39,-360.87C169.76,-362.42 182.54,-364.02 194.86,-365.57"/>
<polygon fill="#63b8ff" stroke="#63b8ff" points="194.17,-369.01 204.53,-366.78 195.04,-362.06 194.17,-369.01"/>
</a>
</g>
</g>
<!-- Node33 -->
<g id="Node000033" class="node">
<title>Node33</title>
<g id="a_Node000033"><a xlink:href="exif-mnote-data-apple_8c.html#a32a8f180504cd9a34fc7ac14a582ccee" target="_top" xlink:title=" ">
<polygon fill="white" stroke="#666666" points="337.5,-102.11 206.5,-102.11 206.5,-72.11 337.5,-72.11 337.5,-102.11"/>
<text text-anchor="start" x="214.5" y="-90.11" font-family="Helvetica,sans-Serif" font-size="10.00">exif_mnote_data_apple</text>
<text text-anchor="middle" x="272" y="-79.11" font-family="Helvetica,sans-Serif" font-size="10.00">_set_offset</text>
</a>
</g>
</g>
<!-- Node1&#45;&gt;Node33 -->
<g id="edge53_Node000001_Node000033" class="edge">
<title>Node1&#45;&gt;Node33</title>
<g id="a_edge53_Node000001_Node000033"><a xlink:title=" ">
<path fill="none" stroke="#63b8ff" d="M81.24,-341.16C88.15,-304.68 117.05,-176.89 193,-111.11 194.11,-110.14 195.27,-109.22 196.45,-108.33"/>
<polygon fill="#63b8ff" stroke="#63b8ff" points="198.26,-111.33 204.84,-103.02 194.52,-105.41 198.26,-111.33"/>
</a>
</g>
</g>
<!-- Node34 -->
<g id="Node000034" class="node">
<title>Node34</title>
<g id="a_Node000034"><a xlink:href="exif-mnote-data_8c.html#a504fc0507df0413e6356f9ab2a4e2584" target="_top" xlink:title=" ">
<polygon fill="white" stroke="#666666" points="346.5,-475.61 197.5,-475.61 197.5,-456.61 346.5,-456.61 346.5,-475.61"/>
<text text-anchor="middle" x="272" y="-463.61" font-family="Helvetica,sans-Serif" font-size="10.00">exif_mnote_data_construct</text>
</a>
</g>
</g>
<!-- Node1&#45;&gt;Node34 -->
<g id="edge54_Node000001_Node000034" class="edge">
<title>Node1&#45;&gt;Node34</title>
<g id="a_edge54_Node000001_Node000034"><a xlink:title=" ">
<path fill="none" stroke="#63b8ff" d="M88.12,-360.98C105.77,-380.54 148.14,-424.3 193,-447.11 196.94,-449.11 201.1,-450.91 205.37,-452.53"/>
<polygon fill="#63b8ff" stroke="#63b8ff" points="204.1,-455.79 214.69,-455.68 206.35,-449.16 204.1,-455.79"/>
</a>
</g>
</g>
<!-- Node5 -->
<g id="Node000005" class="node">
<title>Node5</title>
<g id="a_Node000005"><a xlink:href="exif-mem_8c.html#a43190b81b4b4bdb4ffb89bfb612051b1" target="_top" xlink:title=" ">
<polygon fill="white" stroke="#666666" points="684,-701.61 593,-701.61 593,-682.61 684,-682.61 684,-701.61"/>
<text text-anchor="middle" x="638.5" y="-689.61" font-family="Helvetica,sans-Serif" font-size="10.00">exif_mem_free</text>
</a>
</g>
</g>
<!-- Node4&#45;&gt;Node5 -->
<g id="edge4_Node000004_Node000005" class="edge">
<title>Node4&#45;&gt;Node5</title>
<g id="a_edge4_Node000004_Node000005"><a xlink:title=" ">
<path fill="none" stroke="#63b8ff" d="M543.47,-692.11C556.25,-692.11 569.28,-692.11 581.41,-692.11"/>
<polygon fill="#63b8ff" stroke="#63b8ff" points="581.21,-695.61 591.21,-692.11 581.21,-688.61 581.21,-695.61"/>
</a>
</g>
</g>
<!-- Node7 -->
<g id="Node000007" class="node">
<title>Node7</title>
<g id="a_Node000007"><a xlink:href="mnote-apple-tag_8c.html#a0a7cd1b7e194b24907a79b1cdb8cd161" target="_top" xlink:title=" ">
<polygon fill="white" stroke="#666666" points="526,-244.11 404,-244.11 404,-214.11 526,-214.11 526,-244.11"/>
<text text-anchor="start" x="412" y="-232.11" font-family="Helvetica,sans-Serif" font-size="10.00">mnote_apple_tag_get</text>
<text text-anchor="middle" x="465" y="-221.11" font-family="Helvetica,sans-Serif" font-size="10.00">_description</text>
</a>
</g>
</g>
<!-- Node6&#45;&gt;Node7 -->
<g id="edge6_Node000006_Node000007" class="edge">
<title>Node6&#45;&gt;Node7</title>
<g id="a_edge6_Node000006_Node000007"><a xlink:title=" ">
<path fill="none" stroke="#63b8ff" d="M332.13,-263.63C351.63,-258.53 373.52,-252.8 393.77,-247.5"/>
<polygon fill="#63b8ff" stroke="#63b8ff" points="394.57,-250.9 403.36,-244.98 392.8,-244.13 394.57,-250.9"/>
</a>
</g>
</g>
<!-- Node10 -->
<g id="Node000010" class="node">
<title>Node10</title>
<g id="a_Node000010"><a xlink:href="mnote-apple-tag_8c.html#a00181a90e81f7acde11840ea8fb1cb53" target="_top" xlink:title=" ">
<polygon fill="white" stroke="#666666" points="542.5,-192.61 387.5,-192.61 387.5,-173.61 542.5,-173.61 542.5,-192.61"/>
<text text-anchor="middle" x="465" y="-180.61" font-family="Helvetica,sans-Serif" font-size="10.00">mnote_apple_tag_get_name</text>
</a>
</g>
</g>
<!-- Node9&#45;&gt;Node10 -->
<g id="edge9_Node000009_Node000010" class="edge">
<title>Node9&#45;&gt;Node10</title>
<g id="a_edge9_Node000009_Node000010"><a xlink:title=" ">
<path fill="none" stroke="#63b8ff" d="M337.93,-183.11C350.14,-183.11 363.1,-183.11 375.88,-183.11"/>
<polygon fill="#63b8ff" stroke="#63b8ff" points="375.53,-186.61 385.53,-183.11 375.53,-179.61 375.53,-186.61"/>
</a>
</g>
</g>
<!-- Node12 -->
<g id="Node000012" class="node">
<title>Node12</title>
<g id="a_Node000012"><a xlink:href="mnote-apple-tag_8c.html#afbb3e4e4df480d9a3042e1a05ab121ee" target="_top" xlink:title=" ">
<polygon fill="white" stroke="#666666" points="526,-150.11 404,-150.11 404,-120.11 526,-120.11 526,-150.11"/>
<text text-anchor="start" x="412" y="-138.11" font-family="Helvetica,sans-Serif" font-size="10.00">mnote_apple_tag_get</text>
<text text-anchor="middle" x="465" y="-127.11" font-family="Helvetica,sans-Serif" font-size="10.00">_title</text>
</a>
</g>
</g>
<!-- Node11&#45;&gt;Node12 -->
<g id="edge11_Node000011_Node000012" class="edge">
<title>Node11&#45;&gt;Node12</title>
<g id="a_edge11_Node000011_Node000012"><a xlink:title=" ">
<path fill="none" stroke="#63b8ff" d="M337.93,-135.11C355.49,-135.11 374.59,-135.11 392.49,-135.11"/>
<polygon fill="#63b8ff" stroke="#63b8ff" points="392.24,-138.61 402.24,-135.11 392.24,-131.61 392.24,-138.61"/>
</a>
</g>
</g>
<!-- Node14 -->
<g id="Node000014" class="node">
<title>Node14</title>
<g id="a_Node000014"><a xlink:href="mnote-apple-entry_8c.html#aeee027539a601bfbe4b3b010a00d6b8e" target="_top" xlink:title=" ">
<polygon fill="white" stroke="#666666" points="531,-438.11 399,-438.11 399,-408.11 531,-408.11 531,-438.11"/>
<text text-anchor="start" x="407" y="-426.11" font-family="Helvetica,sans-Serif" font-size="10.00">mnote_apple_entry_get</text>
<text text-anchor="middle" x="465" y="-415.11" font-family="Helvetica,sans-Serif" font-size="10.00">_value</text>
</a>
</g>
</g>
<!-- Node13&#45;&gt;Node14 -->
<g id="edge13_Node000013_Node000014" class="edge">
<title>Node13&#45;&gt;Node14</title>
<g id="a_edge13_Node000013_Node000014"><a xlink:title=" ">
<path fill="none" stroke="#63b8ff" d="M337.93,-423.11C353.83,-423.11 371,-423.11 387.4,-423.11"/>
<polygon fill="#63b8ff" stroke="#63b8ff" points="387.09,-426.61 397.09,-423.11 387.09,-419.61 387.09,-426.61"/>
</a>
</g>
</g>
<!-- Node15 -->
<g id="Node000015" class="node">
<title>Node15</title>
<g id="a_Node000015"><a xlink:href="exif-format_8c.html#a924038efe0cd8ebade8f44619dd794f3" target="_top" xlink:title="Return the raw size of the given EXIF data type.">
<polygon fill="white" stroke="#666666" points="698,-436.61 579,-436.61 579,-417.61 698,-417.61 698,-436.61"/>
<text text-anchor="middle" x="638.5" y="-424.61" font-family="Helvetica,sans-Serif" font-size="10.00">exif_format_get_size</text>
</a>
</g>
</g>
<!-- Node14&#45;&gt;Node15 -->
<g id="edge14_Node000014_Node000015" class="edge">
<title>Node14&#45;&gt;Node15</title>
<g id="a_edge14_Node000014_Node000015"><a xlink:title=" ">
<path fill="none" stroke="#63b8ff" d="M531.33,-424.63C543.09,-424.91 555.4,-425.19 567.3,-425.47"/>
<polygon fill="#63b8ff" stroke="#63b8ff" points="566.95,-428.97 577.03,-425.7 567.11,-421.97 566.95,-428.97"/>
</a>
</g>
</g>
<!-- Node16 -->
<g id="Node000016" class="node">
<title>Node16</title>
<g id="a_Node000016"><a xlink:href="exif-utils_8c.html#a4ad94614630897766dd0a5c9bc2a59bf" target="_top" xlink:title="Retrieve an ExifLong value from memory.">
<polygon fill="white" stroke="#666666" points="827.5,-400.61 744.5,-400.61 744.5,-381.61 827.5,-381.61 827.5,-400.61"/>
<text text-anchor="middle" x="786" y="-388.61" font-family="Helvetica,sans-Serif" font-size="10.00">exif_get_long</text>
</a>
</g>
</g>
<!-- Node14&#45;&gt;Node16 -->
<g id="edge15_Node000014_Node000016" class="edge">
<title>Node14&#45;&gt;Node16</title>
<g id="a_edge15_Node000014_Node000016"><a xlink:title=" ">
<path fill="none" stroke="#63b8ff" d="M515.41,-438.58C563.06,-451.05 636.77,-463.84 698,-446.11 723.4,-438.76 748.5,-421.53 765.16,-408.3"/>
<polygon fill="#63b8ff" stroke="#63b8ff" points="767.27,-411.1 772.77,-402.04 762.82,-405.69 767.27,-411.1"/>
</a>
</g>
</g>
<!-- Node17 -->
<g id="Node000017" class="node">
<title>Node17</title>
<g id="a_Node000017"><a xlink:href="exif-utils_8c.html#a56b96f076a13da6ed926e1ef29cb2dc3" target="_top" xlink:title="Retrieve an ExifSLong value from memory.">
<polygon fill="white" stroke="#666666" points="962,-381.61 874,-381.61 874,-362.61 962,-362.61 962,-381.61"/>
<text text-anchor="middle" x="918" y="-369.61" font-family="Helvetica,sans-Serif" font-size="10.00">exif_get_slong</text>
</a>
</g>
</g>
<!-- Node14&#45;&gt;Node17 -->
<g id="edge21_Node000014_Node000017" class="edge">
<title>Node14&#45;&gt;Node17</title>
<g id="a_edge21_Node000014_Node000017"><a xlink:title=" ">
<path fill="none" stroke="#63b8ff" d="M530.58,-438.61C535.11,-441.29 539.33,-444.43 543,-448.11 579.92,-485.14 536.75,-529.31 579,-560.11 621.74,-591.26 645.57,-567.1 698,-560.11 761.91,-551.59 787.69,-562.43 838,-522.11 880.36,-488.16 902.69,-425.27 911.86,-392.76"/>
<polygon fill="#63b8ff" stroke="#63b8ff" points="915.17,-393.94 914.36,-383.38 908.41,-392.14 915.17,-393.94"/>
</a>
</g>
</g>
<!-- Node18 -->
<g id="Node000018" class="node">
<title>Node18</title>
<g id="a_Node000018"><a xlink:href="exif-utils_8c.html#a1feb547c289aa57a4d2119338b03706c" target="_top" xlink:title="Retrieve an ExifRational value from memory.">
<polygon fill="white" stroke="#666666" points="688,-399.61 589,-399.61 589,-380.61 688,-380.61 688,-399.61"/>
<text text-anchor="middle" x="638.5" y="-387.61" font-family="Helvetica,sans-Serif" font-size="10.00">exif_get_rational</text>
</a>
</g>
</g>
<!-- Node14&#45;&gt;Node18 -->
<g id="edge17_Node000014_Node000018" class="edge">
<title>Node14&#45;&gt;Node18</title>
<g id="a_edge17_Node000014_Node000018"><a xlink:title=" ">
<path fill="none" stroke="#63b8ff" d="M531.33,-410.54C546.49,-407.62 562.55,-404.53 577.48,-401.66"/>
<polygon fill="#63b8ff" stroke="#63b8ff" points="577.98,-405.13 587.14,-399.8 576.66,-398.25 577.98,-405.13"/>
</a>
</g>
</g>
<!-- Node19 -->
<g id="Node000019" class="node">
<title>Node19</title>
<g id="a_Node000019"><a xlink:href="exif-utils_8c.html#a4b4acf537a8c6b9405e7b53be868e4d7" target="_top" xlink:title="Retrieve an ExifShort value from memory.">
<polygon fill="white" stroke="#666666" points="681.5,-550.61 595.5,-550.61 595.5,-531.61 681.5,-531.61 681.5,-550.61"/>
<text text-anchor="middle" x="638.5" y="-538.61" font-family="Helvetica,sans-Serif" font-size="10.00">exif_get_short</text>
</a>
</g>
</g>
<!-- Node14&#45;&gt;Node19 -->
<g id="edge19_Node000014_Node000019" class="edge">
<title>Node14&#45;&gt;Node19</title>
<g id="a_edge19_Node000014_Node000019"><a xlink:title=" ">
<path fill="none" stroke="#63b8ff" d="M528.4,-438.52C533.63,-441.22 538.6,-444.39 543,-448.11 569.41,-470.44 553.45,-493.8 579,-517.11 582.8,-520.57 587.16,-523.57 591.76,-526.16"/>
<polygon fill="#63b8ff" stroke="#63b8ff" points="590.19,-529.29 600.71,-530.54 593.26,-523 590.19,-529.29"/>
</a>
</g>
</g>
<!-- Node20 -->
<g id="Node000020" class="node">
<title>Node20</title>
<g id="a_Node000020"><a xlink:href="exif-utils_8c.html#a6baf094a71392f9cea23ad633ec13c8b" target="_top" xlink:title="Retrieve an ExifSShort value from memory.">
<polygon fill="white" stroke="#666666" points="832,-512.61 740,-512.61 740,-493.61 832,-493.61 832,-512.61"/>
<text text-anchor="middle" x="786" y="-500.61" font-family="Helvetica,sans-Serif" font-size="10.00">exif_get_sshort</text>
</a>
</g>
</g>
<!-- Node14&#45;&gt;Node20 -->
<g id="edge24_Node000014_Node000020" class="edge">
<title>Node14&#45;&gt;Node20</title>
<g id="a_edge24_Node000014_Node000020"><a xlink:title=" ">
<path fill="none" stroke="#63b8ff" d="M515.97,-438.49C525.02,-441.52 534.34,-444.79 543,-448.11 559.35,-454.38 562.29,-458.89 579,-464.11 628.38,-479.53 686.43,-489.85 728.3,-495.98"/>
<polygon fill="#63b8ff" stroke="#63b8ff" points="727.77,-499.44 738.16,-497.38 728.76,-492.51 727.77,-499.44"/>
</a>
</g>
</g>
<!-- Node21 -->
<g id="Node000021" class="node">
<title>Node21</title>
<g id="a_Node000021"><a xlink:href="exif-utils_8c.html#adb97c3499488d5642a82df1cb16dc2cb" target="_top" xlink:title="Retrieve an ExifSRational value from memory.">
<polygon fill="white" stroke="#666666" points="690.5,-362.61 586.5,-362.61 586.5,-343.61 690.5,-343.61 690.5,-362.61"/>
<text text-anchor="middle" x="638.5" y="-350.61" font-family="Helvetica,sans-Serif" font-size="10.00">exif_get_srational</text>
</a>
</g>
</g>
<!-- Node14&#45;&gt;Node21 -->
<g id="edge22_Node000014_Node000021" class="edge">
<title>Node14&#45;&gt;Node21</title>
<g id="a_edge22_Node000014_Node000021"><a xlink:title=" ">
<path fill="none" stroke="#63b8ff" d="M497.75,-407.65C520.18,-397.01 551.1,-382.9 579,-372.11 583.91,-370.21 589.09,-368.34 594.27,-366.56"/>
<polygon fill="#63b8ff" stroke="#63b8ff" points="594.98,-370.01 603.35,-363.51 592.76,-363.37 594.98,-370.01"/>
</a>
</g>
</g>
<!-- Node16&#45;&gt;Node17 -->
<g id="edge16_Node000016_Node000017" class="edge">
<title>Node16&#45;&gt;Node17</title>
<g id="a_edge16_Node000016_Node000017"><a xlink:title=" ">
<path fill="none" stroke="#63b8ff" d="M827.78,-385.15C838.72,-383.55 850.74,-381.79 862.31,-380.1"/>
<polygon fill="#63b8ff" stroke="#63b8ff" points="862.78,-383.57 872.17,-378.66 861.77,-376.64 862.78,-383.57"/>
</a>
</g>
</g>
<!-- Node18&#45;&gt;Node16 -->
<g id="edge18_Node000018_Node000016" class="edge">
<title>Node18&#45;&gt;Node16</title>
<g id="a_edge18_Node000018_Node000016"><a xlink:title=" ">
<path fill="none" stroke="#63b8ff" d="M688.35,-390.45C702.69,-390.54 718.41,-390.65 732.93,-390.75"/>
<polygon fill="#63b8ff" stroke="#63b8ff" points="732.74,-394.25 742.76,-390.82 732.78,-387.25 732.74,-394.25"/>
</a>
</g>
</g>
<!-- Node19&#45;&gt;Node20 -->
<g id="edge20_Node000019_Node000020" class="edge">
<title>Node19&#45;&gt;Node20</title>
<g id="a_edge20_Node000019_Node000020"><a xlink:title=" ">
<path fill="none" stroke="#63b8ff" d="M677.73,-531.13C695.45,-526.5 716.74,-520.94 735.65,-516"/>
<polygon fill="#63b8ff" stroke="#63b8ff" points="736.52,-519.39 745.31,-513.48 734.75,-512.62 736.52,-519.39"/>
</a>
</g>
</g>
<!-- Node21&#45;&gt;Node17 -->
<g id="edge23_Node000021_Node000017" class="edge">
<title>Node21&#45;&gt;Node17</title>
<g id="a_edge23_Node000021_Node000017"><a xlink:title=" ">
<path fill="none" stroke="#63b8ff" d="M690.72,-356.62C739.54,-359.96 812.79,-364.97 862.62,-368.39"/>
<polygon fill="#63b8ff" stroke="#63b8ff" points="862.1,-371.86 872.31,-369.05 862.57,-364.88 862.1,-371.86"/>
</a>
</g>
</g>
<!-- Node22&#45;&gt;Node2 -->
<g id="edge31_Node000022_Node000002" class="edge">
<title>Node22&#45;&gt;Node2</title>
<g id="a_edge31_Node000022_Node000002"><a xlink:title=" ">
<path fill="none" stroke="#63b8ff" d="M292.86,-569.13C315.35,-558.04 353.27,-540 387,-527.11 396.89,-523.33 407.66,-519.69 417.93,-516.43"/>
<polygon fill="#63b8ff" stroke="#63b8ff" points="418.84,-519.81 427.35,-513.51 416.77,-513.13 418.84,-519.81"/>
</a>
</g>
</g>
<!-- Node22&#45;&gt;Node4 -->
<g id="edge32_Node000022_Node000004" class="edge">
<title>Node22&#45;&gt;Node4</title>
<g id="a_edge32_Node000022_Node000004"><a xlink:title=" ">
<path fill="none" stroke="#63b8ff" d="M286.55,-589.1C302.35,-600.89 329.1,-621.28 351,-640.11 367.69,-654.46 367.62,-663.69 387,-674.11 389.83,-675.63 392.79,-677.03 395.83,-678.31"/>
<polygon fill="#63b8ff" stroke="#63b8ff" points="394.4,-681.51 404.99,-681.69 396.82,-674.94 394.4,-681.51"/>
</a>
</g>
</g>
<!-- Node22&#45;&gt;Node15 -->
<g id="edge26_Node000022_Node000015" class="edge">
<title>Node22&#45;&gt;Node15</title>
<g id="a_edge26_Node000022_Node000015"><a xlink:title=" ">
<path fill="none" stroke="#63b8ff" d="M320.27,-569.15C397.61,-552.86 542.69,-522.28 543,-522.11 577.4,-503.4 607.42,-468.22 623.95,-446.32"/>
<polygon fill="#63b8ff" stroke="#63b8ff" points="626.77,-448.39 629.85,-438.25 621.12,-444.25 626.77,-448.39"/>
</a>
</g>
</g>
<!-- Node22&#45;&gt;Node16 -->
<g id="edge27_Node000022_Node000016" class="edge">
<title>Node22&#45;&gt;Node16</title>
<g id="a_edge27_Node000022_Node000016"><a xlink:title=" ">
<path fill="none" stroke="#63b8ff" d="M351.44,-585.37C458.73,-592.31 644.09,-598.04 698,-560.11 728.24,-538.84 717.18,-518.04 734,-485.11 747.27,-459.13 763.47,-429.62 774,-410.71"/>
<polygon fill="#63b8ff" stroke="#63b8ff" points="776.92,-412.66 778.74,-402.23 770.81,-409.25 776.92,-412.66"/>
</a>
</g>
</g>
<!-- Node22&#45;&gt;Node19 -->
<g id="edge28_Node000022_Node000019" class="edge">
<title>Node22&#45;&gt;Node19</title>
<g id="a_edge28_Node000022_Node000019"><a xlink:title=" ">
<path fill="none" stroke="#63b8ff" d="M351.4,-573.36C405.35,-569.1 478.62,-562.73 543,-555.11 556.38,-553.53 570.79,-551.54 584.22,-549.56"/>
<polygon fill="#63b8ff" stroke="#63b8ff" points="584.36,-553.08 593.74,-548.13 583.33,-546.15 584.36,-553.08"/>
</a>
</g>
</g>
<!-- Node23 -->
<g id="Node000023" class="node">
<title>Node23</title>
<g id="a_Node000023"><a xlink:href="exif-log_8c.html#a025d4a5d96544913ea6f6ebbec69cb68" target="_top" xlink:title=" ">
<polygon fill="white" stroke="#666666" points="493,-664.61 437,-664.61 437,-645.61 493,-645.61 493,-664.61"/>
<text text-anchor="middle" x="465" y="-652.61" font-family="Helvetica,sans-Serif" font-size="10.00">exif_log</text>
</a>
</g>
</g>
<!-- Node22&#45;&gt;Node23 -->
<g id="edge29_Node000022_Node000023" class="edge">
<title>Node22&#45;&gt;Node23</title>
<g id="a_edge29_Node000022_Node000023"><a xlink:title=" ">
<path fill="none" stroke="#63b8ff" d="M292.86,-589.09C315.35,-600.18 353.27,-618.22 387,-631.11 399.42,-635.86 413.21,-640.38 425.66,-644.2"/>
<polygon fill="#63b8ff" stroke="#63b8ff" points="424.6,-647.53 435.18,-647.06 426.61,-640.83 424.6,-647.53"/>
</a>
</g>
</g>
<!-- Node24 -->
<g id="Node000024" class="node">
<title>Node24</title>
<g id="a_Node000024"><a xlink:href="exif-log_8c.html#a99101b5ad01b2d82ce9d43c9e8534627" target="_top" xlink:title=" ">
<polygon fill="white" stroke="#666666" points="669.5,-664.61 607.5,-664.61 607.5,-645.61 669.5,-645.61 669.5,-664.61"/>
<text text-anchor="middle" x="638.5" y="-652.61" font-family="Helvetica,sans-Serif" font-size="10.00">exif_logv</text>
</a>
</g>
</g>
<!-- Node23&#45;&gt;Node24 -->
<g id="edge30_Node000023_Node000024" class="edge">
<title>Node23&#45;&gt;Node24</title>
<g id="a_edge30_Node000023_Node000024"><a xlink:title=" ">
<path fill="none" stroke="#63b8ff" d="M493.17,-655.11C520.85,-655.11 564.12,-655.11 596.07,-655.11"/>
<polygon fill="#63b8ff" stroke="#63b8ff" points="595.76,-658.61 605.76,-655.11 595.76,-651.61 595.76,-658.61"/>
</a>
</g>
</g>
<!-- Node25&#45;&gt;Node15 -->
<g id="edge52_Node000025_Node000015" class="edge">
<title>Node25&#45;&gt;Node15</title>
<g id="a_edge52_Node000025_Node000015"><a xlink:title=" ">
<path fill="none" stroke="#63b8ff" d="M337.87,-377.25C392.88,-379.92 473.66,-385.89 543,-399.11 548.38,-400.14 572.02,-407.14 594.31,-413.89"/>
<polygon fill="#63b8ff" stroke="#63b8ff" points="593.02,-417.15 603.61,-416.71 595.06,-410.46 593.02,-417.15"/>
</a>
</g>
</g>
<!-- Node26 -->
<g id="Node000026" class="node">
<title>Node26</title>
<g id="a_Node000026"><a xlink:href="exif-utils_8c.html#a54ef3b86ffeb643e9c4434b85ccf2992" target="_top" xlink:title=" ">
<polygon fill="white" stroke="#666666" points="521.5,-292.11 408.5,-292.11 408.5,-262.11 521.5,-262.11 521.5,-292.11"/>
<text text-anchor="start" x="416.5" y="-280.11" font-family="Helvetica,sans-Serif" font-size="10.00">exif_array_set_byte</text>
<text text-anchor="middle" x="465" y="-269.11" font-family="Helvetica,sans-Serif" font-size="10.00">_order</text>
</a>
</g>
</g>
<!-- Node25&#45;&gt;Node26 -->
<g id="edge34_Node000025_Node000026" class="edge">
<title>Node25&#45;&gt;Node26</title>
<g id="a_edge34_Node000025_Node000026"><a xlink:title=" ">
<path fill="none" stroke="#63b8ff" d="M329.95,-359.65C337.15,-357.09 344.33,-354.24 351,-351.11 381.32,-336.87 412.99,-315.48 435.06,-299.35"/>
<polygon fill="#63b8ff" stroke="#63b8ff" points="437.03,-302.25 442.98,-293.48 432.86,-296.62 437.03,-302.25"/>
</a>
</g>
</g>
<!-- Node26&#45;&gt;Node15 -->
<g id="edge35_Node000026_Node000015" class="edge">
<title>Node26&#45;&gt;Node15</title>
<g id="a_edge35_Node000026_Node000015"><a xlink:title=" ">
<path fill="none" stroke="#63b8ff" d="M480.22,-292.37C495.92,-309.36 521.77,-337.76 543,-363.11 559.67,-383.01 557.61,-394.39 579,-409.11 580.59,-410.21 582.26,-411.24 583.97,-412.21"/>
<polygon fill="#63b8ff" stroke="#63b8ff" points="582.34,-415.31 592.87,-416.47 585.37,-409 582.34,-415.31"/>
</a>
</g>
</g>
<!-- Node26&#45;&gt;Node16 -->
<g id="edge36_Node000026_Node000016" class="edge">
<title>Node26&#45;&gt;Node16</title>
<g id="a_edge36_Node000026_Node000016"><a xlink:title=" ">
<path fill="none" stroke="#63b8ff" d="M521.87,-272.46C570.77,-270.75 642.47,-274.1 698,-301.11 730.75,-317.04 757.9,-350.68 772.75,-372.02"/>
<polygon fill="#63b8ff" stroke="#63b8ff" points="769.71,-373.76 778.18,-380.12 775.52,-369.86 769.71,-373.76"/>
</a>
</g>
</g>
<!-- Node26&#45;&gt;Node17 -->
<g id="edge39_Node000026_Node000017" class="edge">
<title>Node26&#45;&gt;Node17</title>
<g id="a_edge39_Node000026_Node000017"><a xlink:title=" ">
<path fill="none" stroke="#63b8ff" d="M521.57,-267.42C569.03,-260.97 638.81,-255.88 698,-269.11 773.28,-285.93 853.22,-331.6 892.42,-356.09"/>
<polygon fill="#63b8ff" stroke="#63b8ff" points="890.32,-358.9 900.64,-361.3 894.07,-352.99 890.32,-358.9"/>
</a>
</g>
</g>
<!-- Node26&#45;&gt;Node18 -->
<g id="edge37_Node000026_Node000018" class="edge">
<title>Node26&#45;&gt;Node18</title>
<g id="a_edge37_Node000026_Node000018"><a xlink:title=" ">
<path fill="none" stroke="#63b8ff" d="M480.26,-292.47C500.39,-313.3 539.16,-350.41 579,-372.11 581.53,-373.49 584.18,-374.78 586.9,-375.98"/>
<polygon fill="#63b8ff" stroke="#63b8ff" points="585.6,-379.23 596.19,-379.64 588.17,-372.72 585.6,-379.23"/>
</a>
</g>
</g>
<!-- Node26&#45;&gt;Node19 -->
<g id="edge38_Node000026_Node000019" class="edge">
<title>Node26&#45;&gt;Node19</title>
<g id="a_edge38_Node000026_Node000019"><a xlink:title=" ">
<path fill="none" stroke="#63b8ff" d="M475.96,-292.44C505.46,-337.86 592.34,-471.59 624.95,-521.78"/>
<polygon fill="#63b8ff" stroke="#63b8ff" points="621.83,-523.42 630.21,-529.89 627.7,-519.6 621.83,-523.42"/>
</a>
</g>
</g>
<!-- Node26&#45;&gt;Node20 -->
<g id="edge41_Node000026_Node000020" class="edge">
<title>Node26&#45;&gt;Node20</title>
<g id="a_edge41_Node000026_Node000020"><a xlink:title=" ">
<path fill="none" stroke="#63b8ff" d="M521.73,-289.79C588.14,-305.08 691.06,-329.45 698,-335.11 726.65,-358.48 717.1,-377.22 734,-410.11 747.09,-435.59 763.11,-464.45 773.66,-483.17"/>
<polygon fill="#63b8ff" stroke="#63b8ff" points="770.59,-484.86 778.57,-491.84 776.69,-481.41 770.59,-484.86"/>
</a>
</g>
</g>
<!-- Node26&#45;&gt;Node21 -->
<g id="edge40_Node000026_Node000021" class="edge">
<title>Node26&#45;&gt;Node21</title>
<g id="a_edge40_Node000026_Node000021"><a xlink:title=" ">
<path fill="none" stroke="#63b8ff" d="M498.47,-292.49C520.97,-303.04 551.67,-317.22 579,-329.11 586.46,-332.35 594.5,-335.73 602.16,-338.89"/>
<polygon fill="#63b8ff" stroke="#63b8ff" points="600.66,-342.06 611.24,-342.61 603.31,-335.58 600.66,-342.06"/>
</a>
</g>
</g>
<!-- Node27 -->
<g id="Node000027" class="node">
<title>Node27</title>
<g id="a_Node000027"><a xlink:href="exif-utils_8c.html#ac90147d0cc97bec7a577bf9576191bf8" target="_top" xlink:title="Store an ExifLong value into memory in EXIF format.">
<polygon fill="white" stroke="#666666" points="827,-86.61 745,-86.61 745,-67.61 827,-67.61 827,-86.61"/>
<text text-anchor="middle" x="786" y="-74.61" font-family="Helvetica,sans-Serif" font-size="10.00">exif_set_long</text>
</a>
</g>
</g>
<!-- Node26&#45;&gt;Node27 -->
<g id="edge42_Node000026_Node000027" class="edge">
<title>Node26&#45;&gt;Node27</title>
<g id="a_edge42_Node000026_Node000027"><a xlink:title=" ">
<path fill="none" stroke="#63b8ff" d="M521.79,-267.38C529.72,-263.95 537.15,-259.33 543,-253.11 589.07,-204.1 529.11,-151.23 579,-106.11 620.49,-68.59 687.17,-65.85 733.38,-69.55"/>
<polygon fill="#63b8ff" stroke="#63b8ff" points="732.87,-73.01 743.16,-70.47 733.53,-66.04 732.87,-73.01"/>
</a>
</g>
</g>
<!-- Node28 -->
<g id="Node000028" class="node">
<title>Node28</title>
<g id="a_Node000028"><a xlink:href="exif-utils_8c.html#ae6e3b9d1663f9ab9bd462d73a310ca03" target="_top" xlink:title="Store an ExifSLong value into memory in EXIF format.">
<polygon fill="white" stroke="#666666" points="961.5,-86.61 874.5,-86.61 874.5,-67.61 961.5,-67.61 961.5,-86.61"/>
<text text-anchor="middle" x="918" y="-74.61" font-family="Helvetica,sans-Serif" font-size="10.00">exif_set_slong</text>
</a>
</g>
</g>
<!-- Node26&#45;&gt;Node28 -->
<g id="edge48_Node000026_Node000028" class="edge">
<title>Node26&#45;&gt;Node28</title>
<g id="a_edge48_Node000026_Node000028"><a xlink:title=" ">
<path fill="none" stroke="#63b8ff" d="M521.79,-269.14C598.03,-256.28 736.83,-225.67 838,-162.11 865.48,-144.85 889.65,-115.66 903.8,-96.39"/>
<polygon fill="#63b8ff" stroke="#63b8ff" points="906.6,-98.5 909.54,-88.32 900.89,-94.44 906.6,-98.5"/>
</a>
</g>
</g>
<!-- Node29 -->
<g id="Node000029" class="node">
<title>Node29</title>
<g id="a_Node000029"><a xlink:href="exif-utils_8c.html#a400a16b1754150f721e9fca67ad89a52" target="_top" xlink:title="Store an ExifRational value into memory in EXIF format.">
<polygon fill="white" stroke="#666666" points="687.5,-58.61 589.5,-58.61 589.5,-39.61 687.5,-39.61 687.5,-58.61"/>
<text text-anchor="middle" x="638.5" y="-46.61" font-family="Helvetica,sans-Serif" font-size="10.00">exif_set_rational</text>
</a>
</g>
</g>
<!-- Node26&#45;&gt;Node29 -->
<g id="edge44_Node000026_Node000029" class="edge">
<title>Node26&#45;&gt;Node29</title>
<g id="a_edge44_Node000026_Node000029"><a xlink:title=" ">
<path fill="none" stroke="#63b8ff" d="M521.63,-267.77C529.68,-264.3 537.19,-259.56 543,-253.11 597.59,-192.48 527.1,-136.06 579,-73.11 581.67,-69.87 584.85,-67.06 588.33,-64.63"/>
<polygon fill="#63b8ff" stroke="#63b8ff" points="589.83,-67.8 596.76,-59.78 586.34,-61.73 589.83,-67.8"/>
</a>
</g>
</g>
<!-- Node30 -->
<g id="Node000030" class="node">
<title>Node30</title>
<g id="a_Node000030"><a xlink:href="exif-utils_8c.html#ad905d16e26b4052a1db34dbebdc37341" target="_top" xlink:title="Store an ExifShort value into memory in EXIF format.">
<polygon fill="white" stroke="#666666" points="681.5,-134.61 595.5,-134.61 595.5,-115.61 681.5,-115.61 681.5,-134.61"/>
<text text-anchor="middle" x="638.5" y="-122.61" font-family="Helvetica,sans-Serif" font-size="10.00">exif_set_short</text>
</a>
</g>
</g>
<!-- Node26&#45;&gt;Node30 -->
<g id="edge46_Node000026_Node000030" class="edge">
<title>Node26&#45;&gt;Node30</title>
<g id="a_edge46_Node000026_Node000030"><a xlink:title=" ">
<path fill="none" stroke="#63b8ff" d="M521.69,-266.73C529.53,-263.38 536.97,-258.96 543,-253.11 578.12,-219.07 545.4,-184.65 579,-149.11 582.22,-145.7 586,-142.76 590.06,-140.23"/>
<polygon fill="#63b8ff" stroke="#63b8ff" points="591.36,-143.5 598.57,-135.74 588.09,-137.31 591.36,-143.5"/>
</a>
</g>
</g>
<!-- Node31 -->
<g id="Node000031" class="node">
<title>Node31</title>
<g id="a_Node000031"><a xlink:href="exif-utils_8c.html#a6504651147702fc6db9a5cd4aa997023" target="_top" xlink:title="Store an ExifSShort value into memory in EXIF format.">
<polygon fill="white" stroke="#666666" points="831.5,-153.61 740.5,-153.61 740.5,-134.61 831.5,-134.61 831.5,-153.61"/>
<text text-anchor="middle" x="786" y="-141.61" font-family="Helvetica,sans-Serif" font-size="10.00">exif_set_sshort</text>
</a>
</g>
</g>
<!-- Node26&#45;&gt;Node31 -->
<g id="edge51_Node000026_Node000031" class="edge">
<title>Node26&#45;&gt;Node31</title>
<g id="a_edge51_Node000026_Node000031"><a xlink:title=" ">
<path fill="none" stroke="#63b8ff" d="M521.66,-265.49C529.33,-262.31 536.72,-258.26 543,-253.11 568.84,-231.92 552.17,-207.03 579,-187.11 622.31,-154.96 684.19,-145.59 728.81,-143.42"/>
<polygon fill="#63b8ff" stroke="#63b8ff" points="728.66,-146.93 738.53,-143.06 728.41,-139.93 728.66,-146.93"/>
</a>
</g>
</g>
<!-- Node32 -->
<g id="Node000032" class="node">
<title>Node32</title>
<g id="a_Node000032"><a xlink:href="exif-utils_8c.html#aca1790a72b1833dff1b0bf728052c3c5" target="_top" xlink:title="Store an ExifSRational value into memory in EXIF format.">
<polygon fill="white" stroke="#666666" points="838,-30.61 734,-30.61 734,-11.61 838,-11.61 838,-30.61"/>
<text text-anchor="middle" x="786" y="-18.61" font-family="Helvetica,sans-Serif" font-size="10.00">exif_set_srational</text>
</a>
</g>
</g>
<!-- Node26&#45;&gt;Node32 -->
<g id="edge49_Node000026_Node000032" class="edge">
<title>Node26&#45;&gt;Node32</title>
<g id="a_edge49_Node000026_Node000032"><a xlink:title=" ">
<path fill="none" stroke="#63b8ff" d="M521.84,-267.95C529.86,-264.46 537.31,-259.67 543,-253.11 608.77,-177.26 504,-96.85 579,-30.11 622.64,8.72 694.34,1.71 740.6,-8.48"/>
<polygon fill="#63b8ff" stroke="#63b8ff" points="739.77,-11.88 750.31,-10.77 741.37,-5.07 739.77,-11.88"/>
</a>
</g>
</g>
<!-- Node27&#45;&gt;Node28 -->
<g id="edge43_Node000027_Node000028" class="edge">
<title>Node27&#45;&gt;Node28</title>
<g id="a_edge43_Node000027_Node000028"><a xlink:title=" ">
<path fill="none" stroke="#63b8ff" d="M827.42,-77.11C838.72,-77.11 851.18,-77.11 863.12,-77.11"/>
<polygon fill="#63b8ff" stroke="#63b8ff" points="862.84,-80.61 872.84,-77.11 862.84,-73.61 862.84,-80.61"/>
</a>
</g>
</g>
<!-- Node29&#45;&gt;Node27 -->
<g id="edge45_Node000029_Node000027" class="edge">
<title>Node29&#45;&gt;Node27</title>
<g id="a_edge45_Node000029_Node000027"><a xlink:title=" ">
<path fill="none" stroke="#63b8ff" d="M687.95,-58.43C702.57,-61.25 718.68,-64.35 733.49,-67.2"/>
<polygon fill="#63b8ff" stroke="#63b8ff" points="732.56,-70.58 743.04,-69.04 733.88,-63.71 732.56,-70.58"/>
</a>
</g>
</g>
<!-- Node30&#45;&gt;Node31 -->
<g id="edge47_Node000030_Node000031" class="edge">
<title>Node30&#45;&gt;Node31</title>
<g id="a_edge47_Node000030_Node000031"><a xlink:title=" ">
<path fill="none" stroke="#63b8ff" d="M681.98,-130.66C696.69,-132.58 713.42,-134.76 729.05,-136.8"/>
<polygon fill="#63b8ff" stroke="#63b8ff" points="728.32,-140.24 738.69,-138.06 729.23,-133.3 728.32,-140.24"/>
</a>
</g>
</g>
<!-- Node32&#45;&gt;Node28 -->
<g id="edge50_Node000032_Node000028" class="edge">
<title>Node32&#45;&gt;Node28</title>
<g id="a_edge50_Node000032_Node000028"><a xlink:title=" ">
<path fill="none" stroke="#63b8ff" d="M809.94,-30.99C830.33,-39.78 860.39,-52.73 883.47,-62.67"/>
<polygon fill="#63b8ff" stroke="#63b8ff" points="881.89,-65.8 892.46,-66.54 884.66,-59.37 881.89,-65.8"/>
</a>
</g>
</g>
<!-- Node34&#45;&gt;Node2 -->
<g id="edge55_Node000034_Node000002" class="edge">
<title>Node34&#45;&gt;Node2</title>
<g id="a_edge55_Node000034_Node000002"><a xlink:title=" ">
<path fill="none" stroke="#63b8ff" d="M324.44,-476.07C349.56,-480.94 379.89,-486.82 405.85,-491.84"/>
<polygon fill="#63b8ff" stroke="#63b8ff" points="405.08,-495.26 415.57,-493.73 406.42,-488.39 405.08,-495.26"/>
</a>
</g>
</g>
<!-- Node35 -->
<g id="Node000035" class="node">
<title>Node35</title>
<g id="a_Node000035"><a xlink:href="exif-mem_8c.html#af28c61972f529be46907956e0b3e7a60" target="_top" xlink:title="Refcount an ExifMem.">
<polygon fill="white" stroke="#666666" points="507.5,-475.61 422.5,-475.61 422.5,-456.61 507.5,-456.61 507.5,-475.61"/>
<text text-anchor="middle" x="465" y="-463.61" font-family="Helvetica,sans-Serif" font-size="10.00">exif_mem_ref</text>
</a>
</g>
</g>
<!-- Node34&#45;&gt;Node35 -->
<g id="edge56_Node000034_Node000035" class="edge">
<title>Node34&#45;&gt;Node35</title>
<g id="a_edge56_Node000034_Node000035"><a xlink:title=" ">
<path fill="none" stroke="#63b8ff" d="M346.85,-466.11C368.17,-466.11 391.01,-466.11 410.82,-466.11"/>
<polygon fill="#63b8ff" stroke="#63b8ff" points="410.58,-469.61 420.58,-466.11 410.58,-462.61 410.58,-469.61"/>
</a>
</g>
</g>
</g>
</svg>
