<?xml version="1.0" encoding="UTF-8" standalone="no"?>
<!DOCTYPE svg PUBLIC "-//W3C//DTD SVG 1.1//EN"
 "http://www.w3.org/Graphics/SVG/1.1/DTD/svg11.dtd">
<!-- Generated by graphviz version 2.44.1 (0)
 -->
<!-- Title: exif_mnote_data_canon_set_byte_order Pages: 1 -->
<svg width="710pt" height="474pt"
 viewBox="0.00 0.00 710.00 474.00" xmlns="http://www.w3.org/2000/svg" xmlns:xlink="http://www.w3.org/1999/xlink">
<g id="graph0" class="graph" transform="scale(1 1) rotate(0) translate(4 470)">
<title>exif_mnote_data_canon_set_byte_order</title>
<polygon fill="white" stroke="transparent" points="-4,4 -4,-470 706,-470 706,4 -4,4"/>
<!-- Node1 -->
<g id="node1" class="node">
<title>Node1</title>
<g id="a_node1"><a xlink:title=" ">
<polygon fill="#bfbfbf" stroke="black" points="0,-254 0,-284 134,-284 134,-254 0,-254"/>
<text text-anchor="start" x="8" y="-272" font-family="Helvetica,sans-Serif" font-size="10.00">exif_mnote_data_canon</text>
<text text-anchor="middle" x="67" y="-261" font-family="Helvetica,sans-Serif" font-size="10.00">_set_byte_order</text>
</a>
</g>
</g>
<!-- Node2 -->
<g id="node2" class="node">
<title>Node2</title>
<g id="a_node2"><a xlink:href="exif-utils_8c.html#a54ef3b86ffeb643e9c4434b85ccf2992" target="_top" xlink:title=" ">
<polygon fill="white" stroke="black" points="170,-232 170,-262 283,-262 283,-232 170,-232"/>
<text text-anchor="start" x="178" y="-250" font-family="Helvetica,sans-Serif" font-size="10.00">exif_array_set_byte</text>
<text text-anchor="middle" x="226.5" y="-239" font-family="Helvetica,sans-Serif" font-size="10.00">_order</text>
</a>
</g>
</g>
<!-- Node1&#45;&gt;Node2 -->
<g id="edge1" class="edge">
<title>Node1&#45;&gt;Node2</title>
<path fill="none" stroke="midnightblue" d="M134.34,-259.73C142.71,-258.56 151.26,-257.37 159.62,-256.2"/>
<polygon fill="midnightblue" stroke="midnightblue" points="160.28,-259.64 169.7,-254.79 159.31,-252.71 160.28,-259.64"/>
</g>
<!-- Node3 -->
<g id="node3" class="node">
<title>Node3</title>
<g id="a_node3"><a xlink:href="exif-format_8c.html#a924038efe0cd8ebade8f44619dd794f3" target="_top" xlink:title="Return the raw size of the given EXIF data type.">
<polygon fill="white" stroke="black" points="319,-446.5 319,-465.5 438,-465.5 438,-446.5 319,-446.5"/>
<text text-anchor="middle" x="378.5" y="-453.5" font-family="Helvetica,sans-Serif" font-size="10.00">exif_format_get_size</text>
</a>
</g>
</g>
<!-- Node1&#45;&gt;Node3 -->
<g id="edge23" class="edge">
<title>Node1&#45;&gt;Node3</title>
<path fill="none" stroke="midnightblue" d="M92.91,-284.15C137.98,-311.53 236.07,-371.08 319,-421 330.06,-427.66 342.31,-434.99 352.73,-441.22"/>
<polygon fill="midnightblue" stroke="midnightblue" points="350.97,-444.24 361.35,-446.37 354.56,-438.23 350.97,-444.24"/>
</g>
<!-- Node2&#45;&gt;Node3 -->
<g id="edge2" class="edge">
<title>Node2&#45;&gt;Node3</title>
<path fill="none" stroke="midnightblue" d="M235.05,-262.21C245.74,-283.75 265.88,-324.37 283,-359 299.03,-391.43 292.56,-407.32 319,-432 323.16,-435.89 328.04,-439.18 333.17,-441.97"/>
<polygon fill="midnightblue" stroke="midnightblue" points="332.05,-445.31 342.59,-446.45 335.06,-438.99 332.05,-445.31"/>
</g>
<!-- Node4 -->
<g id="node4" class="node">
<title>Node4</title>
<g id="a_node4"><a xlink:href="exif-utils_8c.html#a4ad94614630897766dd0a5c9bc2a59bf" target="_top" xlink:title="Retrieve an ExifLong value from memory.">
<polygon fill="white" stroke="black" points="484.5,-370.5 484.5,-389.5 567.5,-389.5 567.5,-370.5 484.5,-370.5"/>
<text text-anchor="middle" x="526" y="-377.5" font-family="Helvetica,sans-Serif" font-size="10.00">exif_get_long</text>
</a>
</g>
</g>
<!-- Node2&#45;&gt;Node4 -->
<g id="edge3" class="edge">
<title>Node2&#45;&gt;Node4</title>
<path fill="none" stroke="midnightblue" d="M234.26,-262.13C250.4,-297.48 291.85,-383.65 319,-399 374.29,-430.25 451.48,-409.27 493.94,-393.3"/>
<polygon fill="midnightblue" stroke="midnightblue" points="495.41,-396.48 503.45,-389.58 492.86,-389.96 495.41,-396.48"/>
</g>
<!-- Node5 -->
<g id="node5" class="node">
<title>Node5</title>
<g id="a_node5"><a xlink:href="exif-utils_8c.html#a56b96f076a13da6ed926e1ef29cb2dc3" target="_top" xlink:title="Retrieve an ExifSLong value from memory.">
<polygon fill="white" stroke="black" points="614,-332.5 614,-351.5 702,-351.5 702,-332.5 614,-332.5"/>
<text text-anchor="middle" x="658" y="-339.5" font-family="Helvetica,sans-Serif" font-size="10.00">exif_get_slong</text>
</a>
</g>
</g>
<!-- Node2&#45;&gt;Node5 -->
<g id="edge9" class="edge">
<title>Node2&#45;&gt;Node5</title>
<path fill="none" stroke="midnightblue" d="M240.19,-262.3C256.35,-280.51 286.14,-310.08 319,-323 413.82,-360.28 535.21,-355.79 603.71,-349"/>
<polygon fill="midnightblue" stroke="midnightblue" points="604.25,-352.46 613.83,-347.94 603.52,-345.5 604.25,-352.46"/>
</g>
<!-- Node6 -->
<g id="node6" class="node">
<title>Node6</title>
<g id="a_node6"><a xlink:href="exif-utils_8c.html#a1feb547c289aa57a4d2119338b03706c" target="_top" xlink:title="Retrieve an ExifRational value from memory.">
<polygon fill="white" stroke="black" points="329,-370.5 329,-389.5 428,-389.5 428,-370.5 329,-370.5"/>
<text text-anchor="middle" x="378.5" y="-377.5" font-family="Helvetica,sans-Serif" font-size="10.00">exif_get_rational</text>
</a>
</g>
</g>
<!-- Node2&#45;&gt;Node6 -->
<g id="edge5" class="edge">
<title>Node2&#45;&gt;Node6</title>
<path fill="none" stroke="midnightblue" d="M236.67,-262.03C251.42,-285.09 282.49,-329.33 319,-356 324.48,-360 330.72,-363.47 337.04,-366.43"/>
<polygon fill="midnightblue" stroke="midnightblue" points="335.71,-369.67 346.28,-370.41 338.48,-363.24 335.71,-369.67"/>
</g>
<!-- Node7 -->
<g id="node7" class="node">
<title>Node7</title>
<g id="a_node7"><a xlink:href="exif-utils_8c.html#a4b4acf537a8c6b9405e7b53be868e4d7" target="_top" xlink:title="Retrieve an ExifShort value from memory.">
<polygon fill="white" stroke="black" points="335.5,-294.5 335.5,-313.5 421.5,-313.5 421.5,-294.5 335.5,-294.5"/>
<text text-anchor="middle" x="378.5" y="-301.5" font-family="Helvetica,sans-Serif" font-size="10.00">exif_get_short</text>
</a>
</g>
</g>
<!-- Node2&#45;&gt;Node7 -->
<g id="edge7" class="edge">
<title>Node2&#45;&gt;Node7</title>
<path fill="none" stroke="midnightblue" d="M267.3,-262.13C290.74,-271.03 320.11,-282.19 342.63,-290.75"/>
<polygon fill="midnightblue" stroke="midnightblue" points="341.55,-294.08 352.14,-294.36 344.04,-287.54 341.55,-294.08"/>
</g>
<!-- Node8 -->
<g id="node8" class="node">
<title>Node8</title>
<g id="a_node8"><a xlink:href="exif-utils_8c.html#a6baf094a71392f9cea23ad633ec13c8b" target="_top" xlink:title="Retrieve an ExifSShort value from memory.">
<polygon fill="white" stroke="black" points="480,-284.5 480,-303.5 572,-303.5 572,-284.5 480,-284.5"/>
<text text-anchor="middle" x="526" y="-291.5" font-family="Helvetica,sans-Serif" font-size="10.00">exif_get_sshort</text>
</a>
</g>
</g>
<!-- Node2&#45;&gt;Node8 -->
<g id="edge12" class="edge">
<title>Node2&#45;&gt;Node8</title>
<path fill="none" stroke="midnightblue" d="M283.11,-255.79C336.51,-264.22 416.71,-276.89 469.93,-285.3"/>
<polygon fill="midnightblue" stroke="midnightblue" points="469.45,-288.77 479.87,-286.87 470.54,-281.85 469.45,-288.77"/>
</g>
<!-- Node9 -->
<g id="node9" class="node">
<title>Node9</title>
<g id="a_node9"><a xlink:href="exif-utils_8c.html#adb97c3499488d5642a82df1cb16dc2cb" target="_top" xlink:title="Retrieve an ExifSRational value from memory.">
<polygon fill="white" stroke="black" points="474,-227.5 474,-246.5 578,-246.5 578,-227.5 474,-227.5"/>
<text text-anchor="middle" x="526" y="-234.5" font-family="Helvetica,sans-Serif" font-size="10.00">exif_get_srational</text>
</a>
</g>
</g>
<!-- Node2&#45;&gt;Node9 -->
<g id="edge10" class="edge">
<title>Node2&#45;&gt;Node9</title>
<path fill="none" stroke="midnightblue" d="M283.11,-245.13C334.35,-243.41 410.27,-240.86 463.34,-239.07"/>
<polygon fill="midnightblue" stroke="midnightblue" points="463.76,-242.56 473.64,-238.73 463.53,-235.56 463.76,-242.56"/>
</g>
<!-- Node10 -->
<g id="node10" class="node">
<title>Node10</title>
<g id="a_node10"><a xlink:href="exif-utils_8c.html#ac90147d0cc97bec7a577bf9576191bf8" target="_top" xlink:title="Store an ExifLong value into memory in EXIF format.">
<polygon fill="white" stroke="black" points="485,-142.5 485,-161.5 567,-161.5 567,-142.5 485,-142.5"/>
<text text-anchor="middle" x="526" y="-149.5" font-family="Helvetica,sans-Serif" font-size="10.00">exif_set_long</text>
</a>
</g>
</g>
<!-- Node2&#45;&gt;Node10 -->
<g id="edge13" class="edge">
<title>Node2&#45;&gt;Node10</title>
<path fill="none" stroke="midnightblue" d="M274.64,-231.95C332.79,-213.38 430.62,-182.14 485.18,-164.72"/>
<polygon fill="midnightblue" stroke="midnightblue" points="486.38,-168.01 494.84,-161.63 484.25,-161.34 486.38,-168.01"/>
</g>
<!-- Node11 -->
<g id="node11" class="node">
<title>Node11</title>
<g id="a_node11"><a xlink:href="exif-utils_8c.html#ae6e3b9d1663f9ab9bd462d73a310ca03" target="_top" xlink:title="Store an ExifSLong value into memory in EXIF format.">
<polygon fill="white" stroke="black" points="614.5,-104.5 614.5,-123.5 701.5,-123.5 701.5,-104.5 614.5,-104.5"/>
<text text-anchor="middle" x="658" y="-111.5" font-family="Helvetica,sans-Serif" font-size="10.00">exif_set_slong</text>
</a>
</g>
</g>
<!-- Node2&#45;&gt;Node11 -->
<g id="edge19" class="edge">
<title>Node2&#45;&gt;Node11</title>
<path fill="none" stroke="midnightblue" d="M234.46,-231.76C247.12,-206.08 276.58,-154.83 319,-133 410.34,-85.99 534.5,-94.32 604.1,-104.33"/>
<polygon fill="midnightblue" stroke="midnightblue" points="603.97,-107.85 614.38,-105.88 605.01,-100.93 603.97,-107.85"/>
</g>
<!-- Node12 -->
<g id="node12" class="node">
<title>Node12</title>
<g id="a_node12"><a xlink:href="exif-utils_8c.html#a400a16b1754150f721e9fca67ad89a52" target="_top" xlink:title="Store an ExifRational value into memory in EXIF format.">
<polygon fill="white" stroke="black" points="329.5,-142.5 329.5,-161.5 427.5,-161.5 427.5,-142.5 329.5,-142.5"/>
<text text-anchor="middle" x="378.5" y="-149.5" font-family="Helvetica,sans-Serif" font-size="10.00">exif_set_rational</text>
</a>
</g>
</g>
<!-- Node2&#45;&gt;Node12 -->
<g id="edge15" class="edge">
<title>Node2&#45;&gt;Node12</title>
<path fill="none" stroke="midnightblue" d="M244.05,-231.91C261.65,-216.41 290.81,-192.32 319,-176 325.66,-172.14 333.07,-168.6 340.3,-165.49"/>
<polygon fill="midnightblue" stroke="midnightblue" points="342.06,-168.55 349.98,-161.52 339.4,-162.07 342.06,-168.55"/>
</g>
<!-- Node13 -->
<g id="node13" class="node">
<title>Node13</title>
<g id="a_node13"><a xlink:href="exif-utils_8c.html#ad905d16e26b4052a1db34dbebdc37341" target="_top" xlink:title="Store an ExifShort value into memory in EXIF format.">
<polygon fill="white" stroke="black" points="335.5,-66.5 335.5,-85.5 421.5,-85.5 421.5,-66.5 335.5,-66.5"/>
<text text-anchor="middle" x="378.5" y="-73.5" font-family="Helvetica,sans-Serif" font-size="10.00">exif_set_short</text>
</a>
</g>
</g>
<!-- Node2&#45;&gt;Node13 -->
<g id="edge17" class="edge">
<title>Node2&#45;&gt;Node13</title>
<path fill="none" stroke="midnightblue" d="M233.16,-231.93C244.88,-202.65 274.46,-137.64 319,-100 323.67,-96.05 329.08,-92.68 334.69,-89.83"/>
<polygon fill="midnightblue" stroke="midnightblue" points="336.56,-92.83 344.21,-85.51 333.66,-86.46 336.56,-92.83"/>
</g>
<!-- Node14 -->
<g id="node14" class="node">
<title>Node14</title>
<g id="a_node14"><a xlink:href="exif-utils_8c.html#a6504651147702fc6db9a5cd4aa997023" target="_top" xlink:title="Store an ExifSShort value into memory in EXIF format.">
<polygon fill="white" stroke="black" points="480.5,-57.5 480.5,-76.5 571.5,-76.5 571.5,-57.5 480.5,-57.5"/>
<text text-anchor="middle" x="526" y="-64.5" font-family="Helvetica,sans-Serif" font-size="10.00">exif_set_sshort</text>
</a>
</g>
</g>
<!-- Node2&#45;&gt;Node14 -->
<g id="edge22" class="edge">
<title>Node2&#45;&gt;Node14</title>
<path fill="none" stroke="midnightblue" d="M229.42,-231.86C235.1,-194.27 255.6,-96.83 319,-57 371.6,-23.95 447.51,-40.29 490.99,-54.25"/>
<polygon fill="midnightblue" stroke="midnightblue" points="489.93,-57.59 500.53,-57.45 492.16,-50.95 489.93,-57.59"/>
</g>
<!-- Node15 -->
<g id="node15" class="node">
<title>Node15</title>
<g id="a_node15"><a xlink:href="exif-utils_8c.html#aca1790a72b1833dff1b0bf728052c3c5" target="_top" xlink:title="Store an ExifSRational value into memory in EXIF format.">
<polygon fill="white" stroke="black" points="474,-0.5 474,-19.5 578,-19.5 578,-0.5 474,-0.5"/>
<text text-anchor="middle" x="526" y="-7.5" font-family="Helvetica,sans-Serif" font-size="10.00">exif_set_srational</text>
</a>
</g>
</g>
<!-- Node2&#45;&gt;Node15 -->
<g id="edge20" class="edge">
<title>Node2&#45;&gt;Node15</title>
<path fill="none" stroke="midnightblue" d="M228.89,-231.96C233.47,-192.01 251.86,-82.88 319,-33 360.14,-2.44 419.25,1.24 463.61,-1.51"/>
<polygon fill="midnightblue" stroke="midnightblue" points="463.46,-5.01 473.7,-2.27 463.98,1.97 463.46,-5.01"/>
</g>
<!-- Node4&#45;&gt;Node5 -->
<g id="edge4" class="edge">
<title>Node4&#45;&gt;Node5</title>
<path fill="none" stroke="midnightblue" d="M559.8,-370.41C576.28,-365.6 596.44,-359.7 614.13,-354.53"/>
<polygon fill="midnightblue" stroke="midnightblue" points="615.59,-357.75 624.21,-351.59 613.63,-351.03 615.59,-357.75"/>
</g>
<!-- Node6&#45;&gt;Node4 -->
<g id="edge6" class="edge">
<title>Node6&#45;&gt;Node4</title>
<path fill="none" stroke="midnightblue" d="M428.35,-380C443.11,-380 459.34,-380 474.22,-380"/>
<polygon fill="midnightblue" stroke="midnightblue" points="474.27,-383.5 484.27,-380 474.27,-376.5 474.27,-383.5"/>
</g>
<!-- Node7&#45;&gt;Node8 -->
<g id="edge8" class="edge">
<title>Node7&#45;&gt;Node8</title>
<path fill="none" stroke="midnightblue" d="M421.58,-301.11C436.59,-300.08 453.73,-298.9 469.69,-297.8"/>
<polygon fill="midnightblue" stroke="midnightblue" points="470.23,-301.27 479.96,-297.1 469.75,-294.29 470.23,-301.27"/>
</g>
<!-- Node9&#45;&gt;Node5 -->
<g id="edge11" class="edge">
<title>Node9&#45;&gt;Node5</title>
<path fill="none" stroke="midnightblue" d="M540.6,-246.77C550.97,-254.32 565.56,-265.1 578,-275 599.09,-291.78 622.57,-311.87 638.4,-325.65"/>
<polygon fill="midnightblue" stroke="midnightblue" points="636.1,-328.29 645.93,-332.23 640.71,-323.02 636.1,-328.29"/>
</g>
<!-- Node10&#45;&gt;Node11 -->
<g id="edge14" class="edge">
<title>Node10&#45;&gt;Node11</title>
<path fill="none" stroke="midnightblue" d="M559.8,-142.41C576.28,-137.6 596.44,-131.7 614.13,-126.53"/>
<polygon fill="midnightblue" stroke="midnightblue" points="615.59,-129.75 624.21,-123.59 613.63,-123.03 615.59,-129.75"/>
</g>
<!-- Node12&#45;&gt;Node10 -->
<g id="edge16" class="edge">
<title>Node12&#45;&gt;Node10</title>
<path fill="none" stroke="midnightblue" d="M427.55,-152C442.61,-152 459.28,-152 474.51,-152"/>
<polygon fill="midnightblue" stroke="midnightblue" points="474.78,-155.5 484.78,-152 474.78,-148.5 474.78,-155.5"/>
</g>
<!-- Node13&#45;&gt;Node14 -->
<g id="edge18" class="edge">
<title>Node13&#45;&gt;Node14</title>
<path fill="none" stroke="midnightblue" d="M421.58,-73.4C436.73,-72.46 454.05,-71.39 470.12,-70.39"/>
<polygon fill="midnightblue" stroke="midnightblue" points="470.71,-73.86 480.47,-69.75 470.28,-66.88 470.71,-73.86"/>
</g>
<!-- Node15&#45;&gt;Node11 -->
<g id="edge21" class="edge">
<title>Node15&#45;&gt;Node11</title>
<path fill="none" stroke="midnightblue" d="M540.58,-19.8C550.94,-27.36 565.52,-38.15 578,-48 598.83,-64.44 622.08,-84.02 637.93,-97.56"/>
<polygon fill="midnightblue" stroke="midnightblue" points="636.04,-100.55 645.91,-104.4 640.6,-95.24 636.04,-100.55"/>
</g>
</g>
</svg>
