<?xml version="1.0" encoding="UTF-8" standalone="no"?>
<!DOCTYPE svg PUBLIC "-//W3C//DTD SVG 1.1//EN"
 "http://www.w3.org/Graphics/SVG/1.1/DTD/svg11.dtd">
<!-- Generated by graphviz version 7.0.1 (0)
 -->
<!-- Title: exif_data_unref Pages: 1 -->
<svg width="1070pt" height="271pt"
 viewBox="0.00 0.00 1070.00 271.28" xmlns="http://www.w3.org/2000/svg" xmlns:xlink="http://www.w3.org/1999/xlink">
<g id="graph0" class="graph" transform="scale(1 1) rotate(0) translate(4 267.28)">
<title>exif_data_unref</title>
<!-- Node1 -->
<g id="Node000001" class="node">
<title>Node1</title>
<g id="a_Node000001"><a xlink:title=" ">
<polygon fill="#999999" stroke="#666666" points="93,-120.78 0,-120.78 0,-101.78 93,-101.78 93,-120.78"/>
<text text-anchor="middle" x="46.5" y="-108.78" font-family="Helvetica,sans-Serif" font-size="10.00">exif_data_unref</text>
</a>
</g>
</g>
<!-- Node2 -->
<g id="Node000002" class="node">
<title>Node2</title>
<g id="a_Node000002"><a xlink:href="exif-data_8c.html#a2d2f8fee30176bd6460d51d33d080674" target="_top" xlink:title=" ">
<polygon fill="white" stroke="#666666" points="216,-120.78 129,-120.78 129,-101.78 216,-101.78 216,-120.78"/>
<text text-anchor="middle" x="172.5" y="-108.78" font-family="Helvetica,sans-Serif" font-size="10.00">exif_data_free</text>
</a>
</g>
</g>
<!-- Node1&#45;&gt;Node2 -->
<g id="edge1_Node000001_Node000002" class="edge">
<title>Node1&#45;&gt;Node2</title>
<g id="a_edge1_Node000001_Node000002"><a xlink:title=" ">
<path fill="none" stroke="#63b8ff" d="M93.32,-111.28C101.11,-111.28 109.26,-111.28 117.24,-111.28"/>
<polygon fill="#63b8ff" stroke="#63b8ff" points="117.23,-114.78 127.23,-111.28 117.23,-107.78 117.23,-114.78"/>
</a>
</g>
</g>
<!-- Node3 -->
<g id="Node000003" class="node">
<title>Node3</title>
<g id="a_Node000003"><a xlink:href="exif-content_8c.html#a5e72c0f223d5d1aa33b34f388a5c9d37" target="_top" xlink:title="Decrease reference counter for ExifContent.">
<polygon fill="white" stroke="#666666" points="371,-158.78 263,-158.78 263,-139.78 371,-139.78 371,-158.78"/>
<text text-anchor="middle" x="317" y="-146.78" font-family="Helvetica,sans-Serif" font-size="10.00">exif_content_unref</text>
</a>
</g>
</g>
<!-- Node2&#45;&gt;Node3 -->
<g id="edge2_Node000002_Node000003" class="edge">
<title>Node2&#45;&gt;Node3</title>
<g id="a_edge2_Node000002_Node000003"><a xlink:title=" ">
<path fill="none" stroke="#63b8ff" d="M210.94,-121.26C228.37,-125.91 249.31,-131.49 267.89,-136.45"/>
<polygon fill="#63b8ff" stroke="#63b8ff" points="266.78,-139.78 277.35,-138.97 268.59,-133.01 266.78,-139.78"/>
</a>
</g>
</g>
<!-- Node7 -->
<g id="Node000007" class="node">
<title>Node7</title>
<g id="a_Node000007"><a xlink:href="exif-mem_8c.html#a43190b81b4b4bdb4ffb89bfb612051b1" target="_top" xlink:title=" ">
<polygon fill="white" stroke="#666666" points="1062,-157.78 971,-157.78 971,-138.78 1062,-138.78 1062,-157.78"/>
<text text-anchor="middle" x="1016.5" y="-145.78" font-family="Helvetica,sans-Serif" font-size="10.00">exif_mem_free</text>
</a>
</g>
</g>
<!-- Node2&#45;&gt;Node7 -->
<g id="edge16_Node000002_Node000007" class="edge">
<title>Node2&#45;&gt;Node7</title>
<g id="a_edge16_Node000002_Node000007"><a xlink:title=" ">
<path fill="none" stroke="#63b8ff" d="M184.17,-121.25C221.52,-155.07 351.04,-263.28 479,-263.28 479,-263.28 479,-263.28 757.5,-263.28 839.96,-263.28 861.55,-246.76 935,-209.28 958.24,-197.42 981.66,-178.74 997.2,-165.17"/>
<polygon fill="#63b8ff" stroke="#63b8ff" points="999.12,-168.15 1004.25,-158.87 994.46,-162.93 999.12,-168.15"/>
</a>
</g>
</g>
<!-- Node8 -->
<g id="Node000008" class="node">
<title>Node8</title>
<g id="a_Node000008"><a xlink:href="exif-mem_8c.html#a66744e0987af08c443df247ce55f7d87" target="_top" xlink:title="Unrefcount an ExifMem.">
<polygon fill="white" stroke="#666666" points="935,-129.78 838,-129.78 838,-110.78 935,-110.78 935,-129.78"/>
<text text-anchor="middle" x="886.5" y="-117.78" font-family="Helvetica,sans-Serif" font-size="10.00">exif_mem_unref</text>
</a>
</g>
</g>
<!-- Node2&#45;&gt;Node8 -->
<g id="edge17_Node000002_Node000008" class="edge">
<title>Node2&#45;&gt;Node8</title>
<g id="a_edge17_Node000002_Node000008"><a xlink:title=" ">
<path fill="none" stroke="#63b8ff" d="M216.25,-111.28C275.33,-111.28 385.25,-111.28 479,-111.28 479,-111.28 479,-111.28 627.5,-111.28 695.83,-111.28 774.29,-114.47 826.57,-117.05"/>
<polygon fill="#63b8ff" stroke="#63b8ff" points="826.29,-120.54 836.45,-117.55 826.64,-113.55 826.29,-120.54"/>
</a>
</g>
</g>
<!-- Node9 -->
<g id="Node000009" class="node">
<title>Node9</title>
<g id="a_Node000009"><a xlink:href="exif-log_8c.html#a7a9b738a7429197d68c80ffedac7d8fb" target="_top" xlink:title=" ">
<polygon fill="white" stroke="#666666" points="669.5,-44.78 583.5,-44.78 583.5,-25.78 669.5,-25.78 669.5,-44.78"/>
<text text-anchor="middle" x="626.5" y="-32.78" font-family="Helvetica,sans-Serif" font-size="10.00">exif_log_unref</text>
</a>
</g>
</g>
<!-- Node2&#45;&gt;Node9 -->
<g id="edge15_Node000002_Node000009" class="edge">
<title>Node2&#45;&gt;Node9</title>
<g id="a_edge15_Node000002_Node000009"><a xlink:title=" ">
<path fill="none" stroke="#63b8ff" d="M183.05,-101.41C196.82,-87.92 223.73,-64.26 252,-54.28 360.38,-16.01 497.48,-21.58 571.74,-28.66"/>
<polygon fill="#63b8ff" stroke="#63b8ff" points="571.3,-32.14 581.6,-29.65 572,-25.17 571.3,-32.14"/>
</a>
</g>
</g>
<!-- Node11 -->
<g id="Node000011" class="node">
<title>Node11</title>
<g id="a_Node000011"><a xlink:href="exif-mnote-data_8c.html#af910e5c862e5aba351b84b2142d98192" target="_top" xlink:title=" ">
<polygon fill="white" stroke="#666666" points="382,-82.78 252,-82.78 252,-63.78 382,-63.78 382,-82.78"/>
<text text-anchor="middle" x="317" y="-70.78" font-family="Helvetica,sans-Serif" font-size="10.00">exif_mnote_data_unref</text>
</a>
</g>
</g>
<!-- Node2&#45;&gt;Node11 -->
<g id="edge18_Node000002_Node000011" class="edge">
<title>Node2&#45;&gt;Node11</title>
<g id="a_edge18_Node000002_Node000011"><a xlink:title=" ">
<path fill="none" stroke="#63b8ff" d="M210.94,-101.29C228.37,-96.65 249.31,-91.06 267.89,-86.11"/>
<polygon fill="#63b8ff" stroke="#63b8ff" points="268.59,-89.54 277.35,-83.59 266.78,-82.78 268.59,-89.54"/>
</a>
</g>
</g>
<!-- Node4 -->
<g id="Node000004" class="node">
<title>Node4</title>
<g id="a_Node000004"><a xlink:href="exif-content_8c.html#af77d27f5949aa4249fd54a5146c28289" target="_top" xlink:title="Actually free the ExifContent.">
<polygon fill="white" stroke="#666666" points="531,-158.78 429,-158.78 429,-139.78 531,-139.78 531,-158.78"/>
<text text-anchor="middle" x="480" y="-146.78" font-family="Helvetica,sans-Serif" font-size="10.00">exif_content_free</text>
</a>
</g>
</g>
<!-- Node3&#45;&gt;Node4 -->
<g id="edge3_Node000003_Node000004" class="edge">
<title>Node3&#45;&gt;Node4</title>
<g id="a_edge3_Node000003_Node000004"><a xlink:title=" ">
<path fill="none" stroke="#63b8ff" d="M371.16,-149.28C385.91,-149.28 402.04,-149.28 417.23,-149.28"/>
<polygon fill="#63b8ff" stroke="#63b8ff" points="417.11,-152.78 427.11,-149.28 417.11,-145.78 417.11,-152.78"/>
</a>
</g>
</g>
<!-- Node5 -->
<g id="Node000005" class="node">
<title>Node5</title>
<g id="a_Node000005"><a xlink:href="exif-entry_8c.html#a82d5d923121488d847d341727cdd2ef4" target="_top" xlink:title="Decrease reference counter for ExifEntry.">
<polygon fill="white" stroke="#666666" points="675,-196.78 578,-196.78 578,-177.78 675,-177.78 675,-196.78"/>
<text text-anchor="middle" x="626.5" y="-184.78" font-family="Helvetica,sans-Serif" font-size="10.00">exif_entry_unref</text>
</a>
</g>
</g>
<!-- Node4&#45;&gt;Node5 -->
<g id="edge4_Node000004_Node000005" class="edge">
<title>Node4&#45;&gt;Node5</title>
<g id="a_edge4_Node000004_Node000005"><a xlink:title=" ">
<path fill="none" stroke="#63b8ff" d="M518.97,-159.26C536.57,-163.89 557.7,-169.45 576.49,-174.39"/>
<polygon fill="#63b8ff" stroke="#63b8ff" points="575.51,-177.75 586.07,-176.91 577.29,-170.98 575.51,-177.75"/>
</a>
</g>
</g>
<!-- Node4&#45;&gt;Node7 -->
<g id="edge13_Node000004_Node000007" class="edge">
<title>Node4&#45;&gt;Node7</title>
<g id="a_edge13_Node000004_Node000007"><a xlink:title=" ">
<path fill="none" stroke="#63b8ff" d="M492.89,-159.16C510.28,-172.89 544.26,-197.1 578,-206.28 731.48,-248.03 782.47,-226.37 935,-181.28 951.78,-176.32 969.87,-169.09 984.63,-162.66"/>
<polygon fill="#63b8ff" stroke="#63b8ff" points="985.64,-166.04 993.35,-158.78 982.79,-159.65 985.64,-166.04"/>
</a>
</g>
</g>
<!-- Node4&#45;&gt;Node8 -->
<g id="edge14_Node000004_Node000008" class="edge">
<title>Node4&#45;&gt;Node8</title>
<g id="a_edge14_Node000004_Node000008"><a xlink:title=" ">
<path fill="none" stroke="#63b8ff" d="M531.41,-145.66C606.3,-140.3 746.64,-130.23 826.31,-124.52"/>
<polygon fill="#63b8ff" stroke="#63b8ff" points="826.37,-128.03 836.1,-123.82 825.87,-121.04 826.37,-128.03"/>
</a>
</g>
</g>
<!-- Node4&#45;&gt;Node9 -->
<g id="edge9_Node000004_Node000009" class="edge">
<title>Node4&#45;&gt;Node9</title>
<g id="a_edge9_Node000004_Node000009"><a xlink:title=" ">
<path fill="none" stroke="#63b8ff" d="M493.57,-139.36C518.23,-119.91 573.21,-76.54 603.84,-52.37"/>
<polygon fill="#63b8ff" stroke="#63b8ff" points="605.98,-55.13 611.67,-46.19 601.65,-49.64 605.98,-55.13"/>
</a>
</g>
</g>
<!-- Node6 -->
<g id="Node000006" class="node">
<title>Node6</title>
<g id="a_Node000006"><a xlink:href="exif-entry_8c.html#a2879215e3863186650d3f32eb63bbaf4" target="_top" xlink:title="Actually free the ExifEntry.">
<polygon fill="white" stroke="#666666" points="802,-196.78 711,-196.78 711,-177.78 802,-177.78 802,-196.78"/>
<text text-anchor="middle" x="756.5" y="-184.78" font-family="Helvetica,sans-Serif" font-size="10.00">exif_entry_free</text>
</a>
</g>
</g>
<!-- Node5&#45;&gt;Node6 -->
<g id="edge5_Node000005_Node000006" class="edge">
<title>Node5&#45;&gt;Node6</title>
<g id="a_edge5_Node000005_Node000006"><a xlink:title=" ">
<path fill="none" stroke="#63b8ff" d="M675.16,-187.28C683.09,-187.28 691.37,-187.28 699.47,-187.28"/>
<polygon fill="#63b8ff" stroke="#63b8ff" points="699.25,-190.78 709.25,-187.28 699.25,-183.78 699.25,-190.78"/>
</a>
</g>
</g>
<!-- Node6&#45;&gt;Node7 -->
<g id="edge6_Node000006_Node000007" class="edge">
<title>Node6&#45;&gt;Node7</title>
<g id="a_edge6_Node000006_Node000007"><a xlink:title=" ">
<path fill="none" stroke="#63b8ff" d="M802.44,-180.49C846.05,-173.89 912.37,-163.87 959.42,-156.76"/>
<polygon fill="#63b8ff" stroke="#63b8ff" points="959.78,-160.24 969.15,-155.29 958.74,-153.32 959.78,-160.24"/>
</a>
</g>
</g>
<!-- Node6&#45;&gt;Node8 -->
<g id="edge7_Node000006_Node000008" class="edge">
<title>Node6&#45;&gt;Node8</title>
<g id="a_edge7_Node000006_Node000008"><a xlink:title=" ">
<path fill="none" stroke="#63b8ff" d="M776.39,-177.39C797.47,-166.36 831.84,-148.37 856.37,-135.53"/>
<polygon fill="#63b8ff" stroke="#63b8ff" points="857.96,-138.65 865.19,-130.91 854.71,-132.44 857.96,-138.65"/>
</a>
</g>
</g>
<!-- Node8&#45;&gt;Node7 -->
<g id="edge8_Node000008_Node000007" class="edge">
<title>Node8&#45;&gt;Node7</title>
<g id="a_edge8_Node000008_Node000007"><a xlink:title=" ">
<path fill="none" stroke="#63b8ff" d="M932.99,-130.23C941.58,-132.11 950.65,-134.09 959.52,-136.03"/>
<polygon fill="#63b8ff" stroke="#63b8ff" points="958.59,-139.41 969.11,-138.13 960.09,-132.57 958.59,-139.41"/>
</a>
</g>
</g>
<!-- Node10 -->
<g id="Node000010" class="node">
<title>Node10</title>
<g id="a_Node000010"><a xlink:href="exif-log_8c.html#acd0808d6d5be73f28059797c2e2e67dc" target="_top" xlink:title="Delete instance of ExifLog.">
<polygon fill="white" stroke="#666666" points="796.5,-44.78 716.5,-44.78 716.5,-25.78 796.5,-25.78 796.5,-44.78"/>
<text text-anchor="middle" x="756.5" y="-32.78" font-family="Helvetica,sans-Serif" font-size="10.00">exif_log_free</text>
</a>
</g>
</g>
<!-- Node9&#45;&gt;Node10 -->
<g id="edge10_Node000009_Node000010" class="edge">
<title>Node9&#45;&gt;Node10</title>
<g id="a_edge10_Node000009_Node000010"><a xlink:title=" ">
<path fill="none" stroke="#63b8ff" d="M669.77,-35.28C681.02,-35.28 693.28,-35.28 704.93,-35.28"/>
<polygon fill="#63b8ff" stroke="#63b8ff" points="704.8,-38.78 714.8,-35.28 704.8,-31.78 704.8,-38.78"/>
</a>
</g>
</g>
<!-- Node10&#45;&gt;Node7 -->
<g id="edge11_Node000010_Node000007" class="edge">
<title>Node10&#45;&gt;Node7</title>
<g id="a_edge11_Node000010_Node000007"><a xlink:title=" ">
<path fill="none" stroke="#63b8ff" d="M788.26,-45.23C824.14,-57.22 884.94,-78.71 935,-102.28 954.11,-111.28 974.79,-123.14 990.4,-132.57"/>
<polygon fill="#63b8ff" stroke="#63b8ff" points="988.21,-135.33 998.57,-137.56 991.86,-129.36 988.21,-135.33"/>
</a>
</g>
</g>
<!-- Node10&#45;&gt;Node8 -->
<g id="edge12_Node000010_Node000008" class="edge">
<title>Node10&#45;&gt;Node8</title>
<g id="a_edge12_Node000010_Node000008"><a xlink:title=" ">
<path fill="none" stroke="#63b8ff" d="M777.32,-45.23C785.15,-49.35 794.13,-54.31 802,-59.28 823.96,-73.13 847.76,-90.8 864.31,-103.55"/>
<polygon fill="#63b8ff" stroke="#63b8ff" points="861.91,-106.12 871.95,-109.5 866.2,-100.59 861.91,-106.12"/>
</a>
</g>
</g>
<!-- Node12 -->
<g id="Node000012" class="node">
<title>Node12</title>
<g id="a_Node000012"><a xlink:href="exif-mnote-data_8c.html#a2f715582f27a9821560931aeaa139abd" target="_top" xlink:title=" ">
<polygon fill="white" stroke="#666666" points="542,-82.78 418,-82.78 418,-63.78 542,-63.78 542,-82.78"/>
<text text-anchor="middle" x="480" y="-70.78" font-family="Helvetica,sans-Serif" font-size="10.00">exif_mnote_data_free</text>
</a>
</g>
</g>
<!-- Node11&#45;&gt;Node12 -->
<g id="edge19_Node000011_Node000012" class="edge">
<title>Node11&#45;&gt;Node12</title>
<g id="a_edge19_Node000011_Node000012"><a xlink:title=" ">
<path fill="none" stroke="#63b8ff" d="M382.09,-73.28C390.08,-73.28 398.29,-73.28 406.4,-73.28"/>
<polygon fill="#63b8ff" stroke="#63b8ff" points="406.23,-76.78 416.23,-73.28 406.23,-69.78 406.23,-76.78"/>
</a>
</g>
</g>
<!-- Node12&#45;&gt;Node7 -->
<g id="edge21_Node000012_Node000007" class="edge">
<title>Node12&#45;&gt;Node7</title>
<g id="a_edge21_Node000012_Node000007"><a xlink:title=" ">
<path fill="none" stroke="#63b8ff" d="M492.89,-63.4C510.28,-49.67 544.26,-25.46 578,-16.28 674.06,9.86 703.66,-0.78 802,-16.28 863.37,-25.95 882.84,-25.54 935,-59.28 963.6,-77.78 988.51,-108.95 1002.77,-129.06"/>
<polygon fill="#63b8ff" stroke="#63b8ff" points="999.81,-130.94 1008.36,-137.2 1005.58,-126.98 999.81,-130.94"/>
</a>
</g>
</g>
<!-- Node12&#45;&gt;Node8 -->
<g id="edge22_Node000012_Node000008" class="edge">
<title>Node12&#45;&gt;Node8</title>
<g id="a_edge22_Node000012_Node000008"><a xlink:title=" ">
<path fill="none" stroke="#63b8ff" d="M542.37,-74.34C607.3,-76.27 712.52,-81.76 802,-97.28 815.89,-99.69 830.8,-103.42 844.13,-107.18"/>
<polygon fill="#63b8ff" stroke="#63b8ff" points="842.86,-110.45 853.44,-109.89 844.82,-103.73 842.86,-110.45"/>
</a>
</g>
</g>
<!-- Node12&#45;&gt;Node9 -->
<g id="edge20_Node000012_Node000009" class="edge">
<title>Node12&#45;&gt;Node9</title>
<g id="a_edge20_Node000012_Node000009"><a xlink:title=" ">
<path fill="none" stroke="#63b8ff" d="M518.97,-63.29C536.57,-58.67 557.7,-53.11 576.49,-48.17"/>
<polygon fill="#63b8ff" stroke="#63b8ff" points="577.29,-51.58 586.07,-45.65 575.51,-44.81 577.29,-51.58"/>
</a>
</g>
</g>
</g>
</svg>
