<?xml version="1.0" encoding="UTF-8" standalone="no"?>
<!DOCTYPE svg PUBLIC "-//W3C//DTD SVG 1.1//EN"
 "http://www.w3.org/Graphics/SVG/1.1/DTD/svg11.dtd">
<!-- Generated by graphviz version 2.44.1 (0)
 -->
<!-- Title: exif_tag_get_description_in_ifd Pages: 1 -->
<svg width="447pt" height="66pt"
 viewBox="0.00 0.00 447.00 66.00" xmlns="http://www.w3.org/2000/svg" xmlns:xlink="http://www.w3.org/1999/xlink">
<g id="graph0" class="graph" transform="scale(1 1) rotate(0) translate(4 62)">
<title>exif_tag_get_description_in_ifd</title>
<polygon fill="white" stroke="transparent" points="-4,4 -4,-62 443,-62 443,4 -4,4"/>
<!-- Node1 -->
<g id="node1" class="node">
<title>Node1</title>
<g id="a_node1"><a xlink:title="Return a verbose textual description of the given tag when found in the given IFD.">
<polygon fill="#bfbfbf" stroke="black" points="0,-14 0,-44 137,-44 137,-14 0,-14"/>
<text text-anchor="start" x="8" y="-32" font-family="Helvetica,sans-Serif" font-size="10.00">exif_tag_get_description</text>
<text text-anchor="middle" x="68.5" y="-21" font-family="Helvetica,sans-Serif" font-size="10.00">_in_ifd</text>
</a>
</g>
</g>
<!-- Node2 -->
<g id="node2" class="node">
<title>Node2</title>
<g id="a_node2"><a xlink:href="exif-tag_8c.html#a389f8ff3411e0525b28367892f1e78d3" target="_top" xlink:title="Finds the first entry in the EXIF tag table with the given tag number using a binary search.">
<polygon fill="white" stroke="black" points="173,-19.5 173,-38.5 284,-38.5 284,-19.5 173,-19.5"/>
<text text-anchor="middle" x="228.5" y="-26.5" font-family="Helvetica,sans-Serif" font-size="10.00">exif_tag_table_first</text>
</a>
</g>
</g>
<!-- Node1&#45;&gt;Node2 -->
<g id="edge1" class="edge">
<title>Node1&#45;&gt;Node2</title>
<path fill="none" stroke="midnightblue" d="M137.42,-29C145.87,-29 154.48,-29 162.87,-29"/>
<polygon fill="midnightblue" stroke="midnightblue" points="162.97,-32.5 172.97,-29 162.97,-25.5 162.97,-32.5"/>
</g>
<!-- Node3 -->
<g id="node3" class="node">
<title>Node3</title>
<g id="a_node3"><a xlink:href="exif-tag_8c.html#a87563ee64809f5f0deb4d780098508c1" target="_top" xlink:title="Return the number of entries in the EXIF tag table, including the terminating NULL entry.">
<polygon fill="white" stroke="black" points="320,-38.5 320,-57.5 439,-57.5 439,-38.5 320,-38.5"/>
<text text-anchor="middle" x="379.5" y="-45.5" font-family="Helvetica,sans-Serif" font-size="10.00">exif_tag_table_count</text>
</a>
</g>
</g>
<!-- Node2&#45;&gt;Node3 -->
<g id="edge2" class="edge">
<title>Node2&#45;&gt;Node3</title>
<path fill="none" stroke="midnightblue" d="M284.14,-35.97C292.49,-37.03 301.21,-38.14 309.82,-39.24"/>
<polygon fill="midnightblue" stroke="midnightblue" points="309.5,-42.73 319.86,-40.52 310.38,-35.79 309.5,-42.73"/>
</g>
<!-- Node4 -->
<g id="node4" class="node">
<title>Node4</title>
<g id="a_node4"><a xlink:href="exif-tag_8c.html#a220c1b18832f113bc84ff9551754915f" target="_top" xlink:title="Compares the tag with that in entry.">
<polygon fill="white" stroke="black" points="345.5,-0.5 345.5,-19.5 413.5,-19.5 413.5,-0.5 345.5,-0.5"/>
<text text-anchor="middle" x="379.5" y="-7.5" font-family="Helvetica,sans-Serif" font-size="10.00">match_tag</text>
</a>
</g>
</g>
<!-- Node2&#45;&gt;Node4 -->
<g id="edge3" class="edge">
<title>Node2&#45;&gt;Node4</title>
<path fill="none" stroke="midnightblue" d="M284.14,-22.03C300.9,-19.9 319.1,-17.57 335.01,-15.55"/>
<polygon fill="midnightblue" stroke="midnightblue" points="335.62,-19 345.1,-14.26 334.74,-12.05 335.62,-19"/>
</g>
</g>
</svg>
