<?xml version="1.0" encoding="UTF-8" standalone="no"?>
<!DOCTYPE svg PUBLIC "-//W3C//DTD SVG 1.1//EN"
 "http://www.w3.org/Graphics/SVG/1.1/DTD/svg11.dtd">
<!-- Generated by graphviz version 2.44.1 (0)
 -->
<!-- Title: libexif/exif&#45;ifd.h Pages: 1 -->
<svg width="2926pt" height="408pt"
 viewBox="0.00 0.00 2926.00 408.00" xmlns="http://www.w3.org/2000/svg" xmlns:xlink="http://www.w3.org/1999/xlink">
<g id="graph0" class="graph" transform="scale(1 1) rotate(0) translate(4 404)">
<title>libexif/exif&#45;ifd.h</title>
<polygon fill="white" stroke="transparent" points="-4,4 -4,-404 2922,-404 2922,4 -4,4"/>
<!-- Node1 -->
<g id="node1" class="node">
<title>Node1</title>
<g id="a_node1"><a xlink:title=" ">
<polygon fill="#bfbfbf" stroke="black" points="2226.5,-380.5 2226.5,-399.5 2319.5,-399.5 2319.5,-380.5 2226.5,-380.5"/>
<text text-anchor="middle" x="2273" y="-387.5" font-family="Helvetica,sans-Serif" font-size="10.00">libexif/exif&#45;ifd.h</text>
</a>
</g>
</g>
<!-- Node2 -->
<g id="node2" class="node">
<title>Node2</title>
<g id="a_node2"><a xlink:href="exif-data_8c.html" target="_top" xlink:title=" ">
<polygon fill="white" stroke="black" points="291.5,-6 291.5,-25 392.5,-25 392.5,-6 291.5,-6"/>
<text text-anchor="middle" x="342" y="-13" font-family="Helvetica,sans-Serif" font-size="10.00">libexif/exif&#45;data.c</text>
</a>
</g>
</g>
<!-- Node1&#45;&gt;Node2 -->
<g id="edge1" class="edge">
<title>Node1&#45;&gt;Node2</title>
<path fill="none" stroke="midnightblue" d="M2216.1,-389.3C1864.27,-390.83 0,-393.5 0,-279 0,-279 0,-279 0,-148.5 0,-95.19 40.51,-91.22 88,-67 153.08,-33.8 237.88,-22.4 291.15,-18.5"/>
<polygon fill="midnightblue" stroke="midnightblue" points="2216.32,-392.8 2226.31,-389.26 2216.29,-385.8 2216.32,-392.8"/>
</g>
<!-- Node3 -->
<g id="node3" class="node">
<title>Node3</title>
<g id="a_node3"><a xlink:href="exif-data_8h.html" target="_top" xlink:title="Defines the ExifData type and the associated functions.">
<polygon fill="white" stroke="black" points="1276,-268.5 1276,-287.5 1378,-287.5 1378,-268.5 1276,-268.5"/>
<text text-anchor="middle" x="1327" y="-275.5" font-family="Helvetica,sans-Serif" font-size="10.00">libexif/exif&#45;data.h</text>
</a>
</g>
</g>
<!-- Node1&#45;&gt;Node3 -->
<g id="edge2" class="edge">
<title>Node1&#45;&gt;Node3</title>
<path fill="none" stroke="midnightblue" d="M2216.41,-382.42C2046.28,-362.64 1541.14,-303.9 1378.25,-284.96"/>
<polygon fill="midnightblue" stroke="midnightblue" points="2216.07,-385.9 2226.41,-383.58 2216.88,-378.95 2216.07,-385.9"/>
</g>
<!-- Node16 -->
<g id="node16" class="node">
<title>Node16</title>
<g id="a_node16"><a xlink:href="exif-entry_8c.html" target="_top" xlink:title=" ">
<polygon fill="white" stroke="black" points="2746,-73 2746,-92 2850,-92 2850,-73 2746,-73"/>
<text text-anchor="middle" x="2798" y="-80" font-family="Helvetica,sans-Serif" font-size="10.00">libexif/exif&#45;entry.c</text>
</a>
</g>
</g>
<!-- Node1&#45;&gt;Node16 -->
<g id="edge60" class="edge">
<title>Node1&#45;&gt;Node16</title>
<path fill="none" stroke="midnightblue" d="M2329.8,-388.98C2465.62,-387.4 2798,-373.84 2798,-279 2798,-279 2798,-279 2798,-215.5 2798,-168.98 2798,-113.24 2798,-92.15"/>
<polygon fill="midnightblue" stroke="midnightblue" points="2329.56,-385.48 2319.59,-389.08 2329.62,-392.48 2329.56,-385.48"/>
</g>
<!-- Node24 -->
<g id="node24" class="node">
<title>Node24</title>
<g id="a_node24"><a xlink:href="test-mem_8c.html" target="_top" xlink:title=" ">
<polygon fill="white" stroke="black" points="1437.5,-140 1437.5,-159 1532.5,-159 1532.5,-140 1437.5,-140"/>
<text text-anchor="middle" x="1485" y="-147" font-family="Helvetica,sans-Serif" font-size="10.00">test/test&#45;mem.c</text>
</a>
</g>
</g>
<!-- Node1&#45;&gt;Node24 -->
<g id="edge71" class="edge">
<title>Node1&#45;&gt;Node24</title>
<path fill="none" stroke="midnightblue" d="M2262.67,-371.39C2237.11,-328.52 2170.4,-220.77 2134,-201 2018.17,-138.11 1672.22,-185.34 1542,-165 1532.82,-163.57 1522.96,-161.32 1514.07,-159.02"/>
<polygon fill="midnightblue" stroke="midnightblue" points="2259.75,-373.33 2267.85,-380.16 2265.77,-369.77 2259.75,-373.33"/>
</g>
<!-- Node41 -->
<g id="node41" class="node">
<title>Node41</title>
<g id="a_node41"><a xlink:href="exif-ifd_8c.html" target="_top" xlink:title=" ">
<polygon fill="white" stroke="black" points="2826,-324.5 2826,-343.5 2918,-343.5 2918,-324.5 2826,-324.5"/>
<text text-anchor="middle" x="2872" y="-331.5" font-family="Helvetica,sans-Serif" font-size="10.00">libexif/exif&#45;ifd.c</text>
</a>
</g>
</g>
<!-- Node1&#45;&gt;Node41 -->
<g id="edge61" class="edge">
<title>Node1&#45;&gt;Node41</title>
<path fill="none" stroke="midnightblue" d="M2329.62,-385.5C2427.95,-379.15 2636.57,-364.46 2812,-344 2816.5,-343.48 2821.18,-342.87 2825.85,-342.23"/>
<polygon fill="midnightblue" stroke="midnightblue" points="2329.36,-382.01 2319.61,-386.14 2329.81,-388.99 2329.36,-382.01"/>
</g>
<!-- Node42 -->
<g id="node42" class="node">
<title>Node42</title>
<g id="a_node42"><a xlink:href="exif-tag_8h.html" target="_top" xlink:title="Handling EXIF tags.">
<polygon fill="white" stroke="black" points="2348,-324.5 2348,-343.5 2444,-343.5 2444,-324.5 2348,-324.5"/>
<text text-anchor="middle" x="2396" y="-331.5" font-family="Helvetica,sans-Serif" font-size="10.00">libexif/exif&#45;tag.h</text>
</a>
</g>
</g>
<!-- Node1&#45;&gt;Node42 -->
<g id="edge62" class="edge">
<title>Node1&#45;&gt;Node42</title>
<path fill="none" stroke="midnightblue" d="M2301.77,-376.37C2324.81,-366.26 2356.48,-352.35 2376.6,-343.52"/>
<polygon fill="midnightblue" stroke="midnightblue" points="2300.24,-373.22 2292.49,-380.44 2303.05,-379.63 2300.24,-373.22"/>
</g>
<!-- Node3&#45;&gt;Node2 -->
<g id="edge26" class="edge">
<title>Node3&#45;&gt;Node2</title>
<path fill="none" stroke="midnightblue" d="M1265.6,-276.61C1045.72,-274.92 308.79,-266.67 273,-232 220.16,-180.82 247.57,-129.72 286,-67 296.81,-49.36 315.61,-34.26 328.41,-25.28"/>
<polygon fill="midnightblue" stroke="midnightblue" points="1265.65,-280.11 1275.67,-276.68 1265.7,-273.11 1265.65,-280.11"/>
</g>
<!-- Node4 -->
<g id="node4" class="node">
<title>Node4</title>
<g id="a_node4"><a xlink:href="exif-mnote-data-apple_8c.html" target="_top" xlink:title=" ">
<polygon fill="white" stroke="black" points="284,-134.5 284,-164.5 400,-164.5 400,-134.5 284,-134.5"/>
<text text-anchor="start" x="292" y="-152.5" font-family="Helvetica,sans-Serif" font-size="10.00">libexif/apple/exif</text>
<text text-anchor="middle" x="342" y="-141.5" font-family="Helvetica,sans-Serif" font-size="10.00">&#45;mnote&#45;data&#45;apple.c</text>
</a>
</g>
</g>
<!-- Node3&#45;&gt;Node4 -->
<g id="edge3" class="edge">
<title>Node3&#45;&gt;Node4</title>
<path fill="none" stroke="midnightblue" d="M1265.62,-276.03C1078.45,-272.75 522.97,-260.71 447,-232 426.29,-224.17 425.46,-214.62 408,-201 392.07,-188.58 373.83,-174.64 360.56,-164.56"/>
<polygon fill="midnightblue" stroke="midnightblue" points="1265.78,-279.53 1275.84,-276.2 1265.9,-272.53 1265.78,-279.53"/>
</g>
<!-- Node5 -->
<g id="node5" class="node">
<title>Node5</title>
<g id="a_node5"><a xlink:href="exif-mnote-data-apple_8h.html" target="_top" xlink:title=" ">
<polygon fill="white" stroke="black" points="282.5,-201.5 282.5,-231.5 399.5,-231.5 399.5,-201.5 282.5,-201.5"/>
<text text-anchor="start" x="290.5" y="-219.5" font-family="Helvetica,sans-Serif" font-size="10.00">libexif/apple/exif</text>
<text text-anchor="middle" x="341" y="-208.5" font-family="Helvetica,sans-Serif" font-size="10.00">&#45;mnote&#45;data&#45;apple.h</text>
</a>
</g>
</g>
<!-- Node3&#45;&gt;Node5 -->
<g id="edge4" class="edge">
<title>Node3&#45;&gt;Node5</title>
<path fill="none" stroke="midnightblue" d="M1265.6,-277.08C1118.17,-276.59 732.78,-271.3 414,-232 409.38,-231.43 404.62,-230.74 399.85,-229.96"/>
<polygon fill="midnightblue" stroke="midnightblue" points="1265.79,-280.58 1275.8,-277.1 1265.81,-273.58 1265.79,-280.58"/>
</g>
<!-- Node6 -->
<g id="node6" class="node">
<title>Node6</title>
<g id="a_node6"><a xlink:href="exif-mnote-data-canon_8c.html" target="_top" xlink:title=" ">
<polygon fill="white" stroke="black" points="1707.5,-0.5 1707.5,-30.5 1826.5,-30.5 1826.5,-0.5 1707.5,-0.5"/>
<text text-anchor="start" x="1715.5" y="-18.5" font-family="Helvetica,sans-Serif" font-size="10.00">libexif/canon/exif</text>
<text text-anchor="middle" x="1767" y="-7.5" font-family="Helvetica,sans-Serif" font-size="10.00">&#45;mnote&#45;data&#45;canon.c</text>
</a>
</g>
</g>
<!-- Node3&#45;&gt;Node6 -->
<g id="edge7" class="edge">
<title>Node3&#45;&gt;Node6</title>
<path fill="none" stroke="midnightblue" d="M1388.27,-276.5C1598.6,-274.51 2280.02,-265.47 2312,-232 2459.95,-77.14 1996.11,-31.25 1826.55,-19.83"/>
<polygon fill="midnightblue" stroke="midnightblue" points="1388,-273.01 1378.03,-276.6 1388.06,-280.01 1388,-273.01"/>
</g>
<!-- Node7 -->
<g id="node7" class="node">
<title>Node7</title>
<g id="a_node7"><a xlink:href="exif-mnote-data-canon_8h.html" target="_top" xlink:title=" ">
<polygon fill="white" stroke="black" points="1211.5,-67.5 1211.5,-97.5 1330.5,-97.5 1330.5,-67.5 1211.5,-67.5"/>
<text text-anchor="start" x="1219.5" y="-85.5" font-family="Helvetica,sans-Serif" font-size="10.00">libexif/canon/exif</text>
<text text-anchor="middle" x="1271" y="-74.5" font-family="Helvetica,sans-Serif" font-size="10.00">&#45;mnote&#45;data&#45;canon.h</text>
</a>
</g>
</g>
<!-- Node3&#45;&gt;Node7 -->
<g id="edge8" class="edge">
<title>Node3&#45;&gt;Node7</title>
<path fill="none" stroke="midnightblue" d="M1279.32,-264.81C1262.66,-258.02 1245.72,-247.64 1236,-232 1228.73,-220.3 1228.57,-212.61 1236,-201 1256.58,-168.84 1293.42,-197.16 1314,-165 1328.49,-142.36 1305.44,-114.34 1287.88,-97.74"/>
<polygon fill="midnightblue" stroke="midnightblue" points="1278.44,-268.22 1289.03,-268.41 1280.87,-261.65 1278.44,-268.22"/>
</g>
<!-- Node8 -->
<g id="node8" class="node">
<title>Node8</title>
<g id="a_node8"><a xlink:href="mnote-canon-tag_8h.html" target="_top" xlink:title=" ">
<polygon fill="white" stroke="black" points="738,-201.5 738,-231.5 852,-231.5 852,-201.5 738,-201.5"/>
<text text-anchor="start" x="746" y="-219.5" font-family="Helvetica,sans-Serif" font-size="10.00">libexif/canon/mnote</text>
<text text-anchor="middle" x="795" y="-208.5" font-family="Helvetica,sans-Serif" font-size="10.00">&#45;canon&#45;tag.h</text>
</a>
</g>
</g>
<!-- Node3&#45;&gt;Node8 -->
<g id="edge11" class="edge">
<title>Node3&#45;&gt;Node8</title>
<path fill="none" stroke="midnightblue" d="M1265.99,-270.18C1162.34,-258.58 953.28,-235.2 852.25,-223.9"/>
<polygon fill="midnightblue" stroke="midnightblue" points="1265.66,-273.66 1275.99,-271.29 1266.44,-266.7 1265.66,-273.66"/>
</g>
<!-- Node12 -->
<g id="node12" class="node">
<title>Node12</title>
<g id="a_node12"><a xlink:href="exif-content_8h.html" target="_top" xlink:title="Handling EXIF IFDs.">
<polygon fill="white" stroke="black" points="2359.5,-207 2359.5,-226 2476.5,-226 2476.5,-207 2359.5,-207"/>
<text text-anchor="middle" x="2418" y="-214" font-family="Helvetica,sans-Serif" font-size="10.00">libexif/exif&#45;content.h</text>
</a>
</g>
</g>
<!-- Node3&#45;&gt;Node12 -->
<g id="edge16" class="edge">
<title>Node3&#45;&gt;Node12</title>
<path fill="none" stroke="midnightblue" d="M1388.71,-277.54C1546.86,-278.13 1978.89,-275.11 2336,-232 2347.67,-230.59 2360.27,-228.35 2372.07,-226.05"/>
<polygon fill="midnightblue" stroke="midnightblue" points="1388.26,-274.04 1378.24,-277.5 1388.23,-281.04 1388.26,-274.04"/>
</g>
<!-- Node19 -->
<g id="node19" class="node">
<title>Node19</title>
<g id="a_node19"><a xlink:href="test-null_8c.html" target="_top" xlink:title="Pass NULL values into libexif APIs and ensure it doesn&#39;t crash.">
<polygon fill="white" stroke="black" points="1365.5,-73 1365.5,-92 1452.5,-92 1452.5,-73 1365.5,-73"/>
<text text-anchor="middle" x="1409" y="-80" font-family="Helvetica,sans-Serif" font-size="10.00">test/test&#45;null.c</text>
</a>
</g>
</g>
<!-- Node3&#45;&gt;Node19 -->
<g id="edge56" class="edge">
<title>Node3&#45;&gt;Node19</title>
<path fill="none" stroke="midnightblue" d="M1312.36,-260.52C1300.28,-244.82 1286.67,-220.72 1297,-201 1310.05,-176.1 1328.84,-184.59 1349,-165 1373.07,-141.62 1394.62,-107.76 1404.02,-92.07"/>
<polygon fill="midnightblue" stroke="midnightblue" points="1309.7,-262.8 1318.75,-268.3 1315.11,-258.35 1309.7,-262.8"/>
</g>
<!-- Node20 -->
<g id="node20" class="node">
<title>Node20</title>
<g id="a_node20"><a xlink:href="exif-loader_8h.html" target="_top" xlink:title="Defines the ExifLoader type.">
<polygon fill="white" stroke="black" points="1072.5,-207 1072.5,-226 1183.5,-226 1183.5,-207 1072.5,-207"/>
<text text-anchor="middle" x="1128" y="-214" font-family="Helvetica,sans-Serif" font-size="10.00">libexif/exif&#45;loader.h</text>
</a>
</g>
</g>
<!-- Node3&#45;&gt;Node20 -->
<g id="edge27" class="edge">
<title>Node3&#45;&gt;Node20</title>
<path fill="none" stroke="midnightblue" d="M1288.63,-265.53C1249.96,-253.96 1191.16,-236.38 1156.46,-226.01"/>
<polygon fill="midnightblue" stroke="midnightblue" points="1287.9,-268.96 1298.49,-268.48 1289.91,-262.26 1287.9,-268.96"/>
</g>
<!-- Node22 -->
<g id="node22" class="node">
<title>Node22</title>
<g id="a_node22"><a xlink:href="test-fuzzer-persistent_8c.html" target="_top" xlink:title=" ">
<polygon fill="white" stroke="black" points="870.5,-140 870.5,-159 1021.5,-159 1021.5,-140 870.5,-140"/>
<text text-anchor="middle" x="946" y="-147" font-family="Helvetica,sans-Serif" font-size="10.00">test/test&#45;fuzzer&#45;persistent.c</text>
</a>
</g>
</g>
<!-- Node3&#45;&gt;Node22 -->
<g id="edge51" class="edge">
<title>Node3&#45;&gt;Node22</title>
<path fill="none" stroke="midnightblue" d="M1265.63,-275.37C1208.48,-271.93 1121.98,-261.72 1053,-232 1011.18,-213.98 970.99,-176.13 954.21,-159.11"/>
<polygon fill="midnightblue" stroke="midnightblue" points="1265.78,-278.89 1275.95,-275.94 1266.16,-271.9 1265.78,-278.89"/>
</g>
<!-- Node23 -->
<g id="node23" class="node">
<title>Node23</title>
<g id="a_node23"><a xlink:href="test-fuzzer_8c.html" target="_top" xlink:title=" ">
<polygon fill="white" stroke="black" points="1039.5,-140 1039.5,-159 1138.5,-159 1138.5,-140 1039.5,-140"/>
<text text-anchor="middle" x="1089" y="-147" font-family="Helvetica,sans-Serif" font-size="10.00">test/test&#45;fuzzer.c</text>
</a>
</g>
</g>
<!-- Node3&#45;&gt;Node23 -->
<g id="edge52" class="edge">
<title>Node3&#45;&gt;Node23</title>
<path fill="none" stroke="midnightblue" d="M1265.84,-275.38C1196.11,-272.1 1088.44,-262.14 1063,-232 1044.61,-210.21 1068.43,-175.26 1081.49,-159.15"/>
<polygon fill="midnightblue" stroke="midnightblue" points="1265.7,-278.88 1275.84,-275.82 1266.01,-271.89 1265.7,-278.88"/>
</g>
<!-- Node3&#45;&gt;Node24 -->
<g id="edge54" class="edge">
<title>Node3&#45;&gt;Node24</title>
<path fill="none" stroke="midnightblue" d="M1314.93,-259.39C1305.22,-242.82 1295.13,-218.06 1308,-201 1312.4,-195.17 1400.96,-171.87 1451.1,-159.05"/>
<polygon fill="midnightblue" stroke="midnightblue" points="1312.13,-261.5 1320.43,-268.08 1318.04,-257.76 1312.13,-261.5"/>
</g>
<!-- Node25 -->
<g id="node25" class="node">
<title>Node25</title>
<g id="a_node25"><a xlink:href="exif-mnote-data-fuji_8h.html" target="_top" xlink:title=" ">
<polygon fill="white" stroke="black" points="2181,-201.5 2181,-231.5 2303,-231.5 2303,-201.5 2181,-201.5"/>
<text text-anchor="start" x="2189" y="-219.5" font-family="Helvetica,sans-Serif" font-size="10.00">libexif/fuji/exif&#45;mnote</text>
<text text-anchor="middle" x="2242" y="-208.5" font-family="Helvetica,sans-Serif" font-size="10.00">&#45;data&#45;fuji.h</text>
</a>
</g>
</g>
<!-- Node3&#45;&gt;Node25 -->
<g id="edge34" class="edge">
<title>Node3&#45;&gt;Node25</title>
<path fill="none" stroke="midnightblue" d="M1388.23,-275.21C1523.17,-270.91 1856.26,-258.35 2134,-232 2149.26,-230.55 2165.67,-228.57 2180.98,-226.53"/>
<polygon fill="midnightblue" stroke="midnightblue" points="1387.97,-271.72 1378.09,-275.53 1388.19,-278.71 1387.97,-271.72"/>
</g>
<!-- Node29 -->
<g id="node29" class="node">
<title>Node29</title>
<g id="a_node29"><a xlink:href="mnote-fuji-tag_8h.html" target="_top" xlink:title=" ">
<polygon fill="white" stroke="black" points="1316.5,-201.5 1316.5,-231.5 1417.5,-231.5 1417.5,-201.5 1316.5,-201.5"/>
<text text-anchor="start" x="1324.5" y="-219.5" font-family="Helvetica,sans-Serif" font-size="10.00">libexif/fuji/mnote</text>
<text text-anchor="middle" x="1367" y="-208.5" font-family="Helvetica,sans-Serif" font-size="10.00">&#45;fuji&#45;tag.h</text>
</a>
</g>
</g>
<!-- Node3&#45;&gt;Node29 -->
<g id="edge40" class="edge">
<title>Node3&#45;&gt;Node29</title>
<path fill="none" stroke="midnightblue" d="M1338.45,-259.96C1344.51,-250.96 1351.85,-240.03 1357.57,-231.52"/>
<polygon fill="midnightblue" stroke="midnightblue" points="1335.41,-258.22 1332.73,-268.48 1341.21,-262.13 1335.41,-258.22"/>
</g>
<!-- Node31 -->
<g id="node31" class="node">
<title>Node31</title>
<g id="a_node31"><a xlink:href="exif-mnote-data-olympus_8c.html" target="_top" xlink:title=" ">
<polygon fill="white" stroke="black" points="456.5,-134.5 456.5,-164.5 587.5,-164.5 587.5,-134.5 456.5,-134.5"/>
<text text-anchor="start" x="464.5" y="-152.5" font-family="Helvetica,sans-Serif" font-size="10.00">libexif/olympus/exif</text>
<text text-anchor="middle" x="522" y="-141.5" font-family="Helvetica,sans-Serif" font-size="10.00">&#45;mnote&#45;data&#45;olympus.c</text>
</a>
</g>
</g>
<!-- Node3&#45;&gt;Node31 -->
<g id="edge43" class="edge">
<title>Node3&#45;&gt;Node31</title>
<path fill="none" stroke="midnightblue" d="M1265.53,-274.71C1134.15,-269.43 829.79,-255.08 729,-232 662.36,-216.74 588.92,-183.62 549.93,-164.63"/>
<polygon fill="midnightblue" stroke="midnightblue" points="1265.69,-278.22 1275.82,-275.12 1265.96,-271.22 1265.69,-278.22"/>
</g>
<!-- Node32 -->
<g id="node32" class="node">
<title>Node32</title>
<g id="a_node32"><a xlink:href="exif-mnote-data-olympus_8h.html" target="_top" xlink:title=" ">
<polygon fill="white" stroke="black" points="456,-201.5 456,-231.5 588,-231.5 588,-201.5 456,-201.5"/>
<text text-anchor="start" x="464" y="-219.5" font-family="Helvetica,sans-Serif" font-size="10.00">libexif/olympus/exif</text>
<text text-anchor="middle" x="522" y="-208.5" font-family="Helvetica,sans-Serif" font-size="10.00">&#45;mnote&#45;data&#45;olympus.h</text>
</a>
</g>
</g>
<!-- Node3&#45;&gt;Node32 -->
<g id="edge44" class="edge">
<title>Node3&#45;&gt;Node32</title>
<path fill="none" stroke="midnightblue" d="M1265.9,-273.92C1146.98,-267.7 876.18,-252.5 649,-232 629.22,-230.22 607.75,-227.91 588.18,-225.66"/>
<polygon fill="midnightblue" stroke="midnightblue" points="1265.74,-277.41 1275.9,-274.44 1266.1,-270.42 1265.74,-277.41"/>
</g>
<!-- Node33 -->
<g id="node33" class="node">
<title>Node33</title>
<g id="a_node33"><a xlink:href="exif-mnote-data-pentax_8h.html" target="_top" xlink:title=" ">
<polygon fill="white" stroke="black" points="66,-201.5 66,-231.5 190,-231.5 190,-201.5 66,-201.5"/>
<text text-anchor="start" x="74" y="-219.5" font-family="Helvetica,sans-Serif" font-size="10.00">libexif/pentax/exif</text>
<text text-anchor="middle" x="128" y="-208.5" font-family="Helvetica,sans-Serif" font-size="10.00">&#45;mnote&#45;data&#45;pentax.h</text>
</a>
</g>
</g>
<!-- Node3&#45;&gt;Node33 -->
<g id="edge47" class="edge">
<title>Node3&#45;&gt;Node33</title>
<path fill="none" stroke="midnightblue" d="M1265.53,-275.74C1062.17,-271.39 412.28,-255.91 204,-232 199.46,-231.48 194.79,-230.84 190.1,-230.13"/>
<polygon fill="midnightblue" stroke="midnightblue" points="1265.66,-279.24 1275.73,-275.96 1265.81,-272.25 1265.66,-279.24"/>
</g>
<!-- Node35 -->
<g id="node35" class="node">
<title>Node35</title>
<g id="a_node35"><a xlink:href="test-extract_8c.html" target="_top" xlink:title="Extract EXIF data from a file and write it to another file.">
<polygon fill="white" stroke="black" points="1436,-207 1436,-226 1540,-226 1540,-207 1436,-207"/>
<text text-anchor="middle" x="1488" y="-214" font-family="Helvetica,sans-Serif" font-size="10.00">test/test&#45;extract.c</text>
</a>
</g>
</g>
<!-- Node3&#45;&gt;Node35 -->
<g id="edge50" class="edge">
<title>Node3&#45;&gt;Node35</title>
<path fill="none" stroke="midnightblue" d="M1359.65,-264.93C1390.94,-253.37 1437.38,-236.21 1464.98,-226.01"/>
<polygon fill="midnightblue" stroke="midnightblue" points="1358.23,-261.73 1350.07,-268.48 1360.66,-268.29 1358.23,-261.73"/>
</g>
<!-- Node36 -->
<g id="node36" class="node">
<title>Node36</title>
<g id="a_node36"><a xlink:href="test-gps_8c.html" target="_top" xlink:title=" ">
<polygon fill="white" stroke="black" points="1558,-207 1558,-226 1644,-226 1644,-207 1558,-207"/>
<text text-anchor="middle" x="1601" y="-214" font-family="Helvetica,sans-Serif" font-size="10.00">test/test&#45;gps.c</text>
</a>
</g>
</g>
<!-- Node3&#45;&gt;Node36 -->
<g id="edge53" class="edge">
<title>Node3&#45;&gt;Node36</title>
<path fill="none" stroke="midnightblue" d="M1383.86,-266.64C1428.85,-258.16 1493.19,-245.42 1549,-232 1556.38,-230.23 1564.3,-228.12 1571.67,-226.08"/>
<polygon fill="midnightblue" stroke="midnightblue" points="1383.17,-263.21 1373.99,-268.49 1384.46,-270.09 1383.17,-263.21"/>
</g>
<!-- Node37 -->
<g id="node37" class="node">
<title>Node37</title>
<g id="a_node37"><a xlink:href="test-mnote_8c.html" target="_top" xlink:title=" ">
<polygon fill="white" stroke="black" points="1662.5,-207 1662.5,-226 1763.5,-226 1763.5,-207 1662.5,-207"/>
<text text-anchor="middle" x="1713" y="-214" font-family="Helvetica,sans-Serif" font-size="10.00">test/test&#45;mnote.c</text>
</a>
</g>
</g>
<!-- Node3&#45;&gt;Node37 -->
<g id="edge55" class="edge">
<title>Node3&#45;&gt;Node37</title>
<path fill="none" stroke="midnightblue" d="M1388.26,-270.4C1454,-262.88 1561.35,-249.36 1653,-232 1661.84,-230.33 1671.35,-228.19 1680.12,-226.07"/>
<polygon fill="midnightblue" stroke="midnightblue" points="1387.62,-266.95 1378.08,-271.55 1388.41,-273.9 1387.62,-266.95"/>
</g>
<!-- Node38 -->
<g id="node38" class="node">
<title>Node38</title>
<g id="a_node38"><a xlink:href="test-parse-from-data_8c.html" target="_top" xlink:title="Completely parse all files given on the command line.">
<polygon fill="white" stroke="black" points="1781.5,-201.5 1781.5,-231.5 1896.5,-231.5 1896.5,-201.5 1781.5,-201.5"/>
<text text-anchor="start" x="1789.5" y="-219.5" font-family="Helvetica,sans-Serif" font-size="10.00">test/test&#45;parse&#45;from</text>
<text text-anchor="middle" x="1839" y="-208.5" font-family="Helvetica,sans-Serif" font-size="10.00">&#45;data.c</text>
</a>
</g>
</g>
<!-- Node3&#45;&gt;Node38 -->
<g id="edge57" class="edge">
<title>Node3&#45;&gt;Node38</title>
<path fill="none" stroke="midnightblue" d="M1388.21,-273.08C1474.43,-267.04 1636.38,-253.82 1773,-232 1775.78,-231.56 1778.62,-231.07 1781.48,-230.55"/>
<polygon fill="midnightblue" stroke="midnightblue" points="1387.82,-269.59 1378.08,-273.78 1388.3,-276.58 1387.82,-269.59"/>
</g>
<!-- Node39 -->
<g id="node39" class="node">
<title>Node39</title>
<g id="a_node39"><a xlink:href="test-parse_8c.html" target="_top" xlink:title="Completely parse all files given on the command line.">
<polygon fill="white" stroke="black" points="1915,-207 1915,-226 2011,-226 2011,-207 1915,-207"/>
<text text-anchor="middle" x="1963" y="-214" font-family="Helvetica,sans-Serif" font-size="10.00">test/test&#45;parse.c</text>
</a>
</g>
</g>
<!-- Node3&#45;&gt;Node39 -->
<g id="edge58" class="edge">
<title>Node3&#45;&gt;Node39</title>
<path fill="none" stroke="midnightblue" d="M1388.28,-275.69C1494.41,-272.64 1718.98,-262.82 1906,-232 1914.97,-230.52 1924.59,-228.32 1933.33,-226.07"/>
<polygon fill="midnightblue" stroke="midnightblue" points="1387.98,-272.19 1378.08,-275.97 1388.17,-279.19 1387.98,-272.19"/>
</g>
<!-- Node40 -->
<g id="node40" class="node">
<title>Node40</title>
<g id="a_node40"><a xlink:href="test-value_8c.html" target="_top" xlink:title=" ">
<polygon fill="white" stroke="black" points="2029,-207 2029,-226 2125,-226 2125,-207 2029,-207"/>
<text text-anchor="middle" x="2077" y="-214" font-family="Helvetica,sans-Serif" font-size="10.00">test/test&#45;value.c</text>
</a>
</g>
</g>
<!-- Node3&#45;&gt;Node40 -->
<g id="edge59" class="edge">
<title>Node3&#45;&gt;Node40</title>
<path fill="none" stroke="midnightblue" d="M1388.43,-276.8C1509.86,-275.56 1788.87,-268.58 2020,-232 2029.08,-230.56 2038.82,-228.34 2047.63,-226.07"/>
<polygon fill="midnightblue" stroke="midnightblue" points="1388.18,-273.3 1378.22,-276.89 1388.25,-280.3 1388.18,-273.3"/>
</g>
<!-- Node5&#45;&gt;Node2 -->
<g id="edge6" class="edge">
<title>Node5&#45;&gt;Node2</title>
<path fill="none" stroke="midnightblue" d="M303.5,-195.83C292.22,-187.88 281.21,-177.58 275,-165 268.9,-152.65 271.47,-147.32 275,-134 286.85,-89.28 320.14,-43.81 334.85,-25.22"/>
<polygon fill="midnightblue" stroke="midnightblue" points="301.8,-198.91 312.09,-201.45 305.63,-193.05 301.8,-198.91"/>
</g>
<!-- Node5&#45;&gt;Node4 -->
<g id="edge5" class="edge">
<title>Node5&#45;&gt;Node4</title>
<path fill="none" stroke="midnightblue" d="M341.38,-191.11C341.51,-182.15 341.66,-172.32 341.78,-164.58"/>
<polygon fill="midnightblue" stroke="midnightblue" points="337.87,-191.34 341.22,-201.4 344.87,-191.45 337.87,-191.34"/>
</g>
<!-- Node7&#45;&gt;Node2 -->
<g id="edge10" class="edge">
<title>Node7&#45;&gt;Node2</title>
<path fill="none" stroke="midnightblue" d="M1201.16,-69.55C1194.36,-68.6 1187.55,-67.72 1181,-67 883.3,-34.14 523.64,-21.51 392.75,-17.79"/>
<polygon fill="midnightblue" stroke="midnightblue" points="1200.68,-73.02 1211.08,-70.99 1201.69,-66.09 1200.68,-73.02"/>
</g>
<!-- Node7&#45;&gt;Node6 -->
<g id="edge9" class="edge">
<title>Node7&#45;&gt;Node6</title>
<path fill="none" stroke="midnightblue" d="M1340.6,-69.49C1346.14,-68.62 1351.66,-67.78 1357,-67 1481.37,-48.86 1627.6,-31.89 1707.48,-22.99"/>
<polygon fill="midnightblue" stroke="midnightblue" points="1339.95,-66.05 1330.63,-71.09 1341.05,-72.97 1339.95,-66.05"/>
</g>
<!-- Node9 -->
<g id="node9" class="node">
<title>Node9</title>
<g id="a_node9"><a xlink:href="mnote-canon-entry_8h.html" target="_top" xlink:title=" ">
<polygon fill="white" stroke="black" points="606,-134.5 606,-164.5 720,-164.5 720,-134.5 606,-134.5"/>
<text text-anchor="start" x="614" y="-152.5" font-family="Helvetica,sans-Serif" font-size="10.00">libexif/canon/mnote</text>
<text text-anchor="middle" x="663" y="-141.5" font-family="Helvetica,sans-Serif" font-size="10.00">&#45;canon&#45;entry.h</text>
</a>
</g>
</g>
<!-- Node8&#45;&gt;Node9 -->
<g id="edge12" class="edge">
<title>Node8&#45;&gt;Node9</title>
<path fill="none" stroke="midnightblue" d="M757.13,-196.85C736.26,-186.58 710.77,-174.03 691.59,-164.58"/>
<polygon fill="midnightblue" stroke="midnightblue" points="755.84,-200.12 766.36,-201.4 758.93,-193.84 755.84,-200.12"/>
</g>
<!-- Node11 -->
<g id="node11" class="node">
<title>Node11</title>
<g id="a_node11"><a xlink:href="mnote-canon-tag_8c.html" target="_top" xlink:title=" ">
<polygon fill="white" stroke="black" points="738,-134.5 738,-164.5 852,-164.5 852,-134.5 738,-134.5"/>
<text text-anchor="start" x="746" y="-152.5" font-family="Helvetica,sans-Serif" font-size="10.00">libexif/canon/mnote</text>
<text text-anchor="middle" x="795" y="-141.5" font-family="Helvetica,sans-Serif" font-size="10.00">&#45;canon&#45;tag.c</text>
</a>
</g>
</g>
<!-- Node8&#45;&gt;Node11 -->
<g id="edge15" class="edge">
<title>Node8&#45;&gt;Node11</title>
<path fill="none" stroke="midnightblue" d="M795,-191.11C795,-182.15 795,-172.32 795,-164.58"/>
<polygon fill="midnightblue" stroke="midnightblue" points="791.5,-191.4 795,-201.4 798.5,-191.4 791.5,-191.4"/>
</g>
<!-- Node9&#45;&gt;Node7 -->
<g id="edge13" class="edge">
<title>Node9&#45;&gt;Node7</title>
<path fill="none" stroke="midnightblue" d="M730.1,-133.95C910.63,-106.35 1113.03,-92.36 1211.35,-86.64"/>
<polygon fill="midnightblue" stroke="midnightblue" points="729.5,-130.5 720.16,-135.49 730.57,-137.42 729.5,-130.5"/>
</g>
<!-- Node10 -->
<g id="node10" class="node">
<title>Node10</title>
<g id="a_node10"><a xlink:href="mnote-canon-entry_8c.html" target="_top" xlink:title=" ">
<polygon fill="white" stroke="black" points="606,-67.5 606,-97.5 720,-97.5 720,-67.5 606,-67.5"/>
<text text-anchor="start" x="614" y="-85.5" font-family="Helvetica,sans-Serif" font-size="10.00">libexif/canon/mnote</text>
<text text-anchor="middle" x="663" y="-74.5" font-family="Helvetica,sans-Serif" font-size="10.00">&#45;canon&#45;entry.c</text>
</a>
</g>
</g>
<!-- Node9&#45;&gt;Node10 -->
<g id="edge14" class="edge">
<title>Node9&#45;&gt;Node10</title>
<path fill="none" stroke="midnightblue" d="M663,-124.11C663,-115.15 663,-105.32 663,-97.58"/>
<polygon fill="midnightblue" stroke="midnightblue" points="659.5,-124.4 663,-134.4 666.5,-124.4 659.5,-124.4"/>
</g>
<!-- Node12&#45;&gt;Node3 -->
<g id="edge18" class="edge">
<title>Node12&#45;&gt;Node3</title>
<path fill="none" stroke="midnightblue" d="M2379.39,-228.01C2371.07,-229.58 2362.3,-231 2354,-232 1981.88,-276.92 1528.41,-278.31 1378.04,-277.45"/>
<polygon fill="midnightblue" stroke="midnightblue" points="2380.13,-231.43 2389.26,-226.05 2378.77,-224.57 2380.13,-231.43"/>
</g>
<!-- Node13 -->
<g id="node13" class="node">
<title>Node13</title>
<g id="a_node13"><a xlink:href="exif-content_8c.html" target="_top" xlink:title=" ">
<polygon fill="white" stroke="black" points="2484,-140 2484,-159 2600,-159 2600,-140 2484,-140"/>
<text text-anchor="middle" x="2542" y="-147" font-family="Helvetica,sans-Serif" font-size="10.00">libexif/exif&#45;content.c</text>
</a>
</g>
</g>
<!-- Node12&#45;&gt;Node13 -->
<g id="edge17" class="edge">
<title>Node12&#45;&gt;Node13</title>
<path fill="none" stroke="midnightblue" d="M2443.56,-202.1C2468.11,-189.23 2504.49,-170.16 2525.47,-159.17"/>
<polygon fill="midnightblue" stroke="midnightblue" points="2441.7,-199.13 2434.47,-206.87 2444.95,-205.33 2441.7,-199.13"/>
</g>
<!-- Node14 -->
<g id="node14" class="node">
<title>Node14</title>
<g id="a_node14"><a xlink:href="exif-entry_8h.html" target="_top" xlink:title="Handling EXIF entries.">
<polygon fill="white" stroke="black" points="2362,-140 2362,-159 2466,-159 2466,-140 2362,-140"/>
<text text-anchor="middle" x="2414" y="-147" font-family="Helvetica,sans-Serif" font-size="10.00">libexif/exif&#45;entry.h</text>
</a>
</g>
</g>
<!-- Node12&#45;&gt;Node14 -->
<g id="edge19" class="edge">
<title>Node12&#45;&gt;Node14</title>
<path fill="none" stroke="midnightblue" d="M2410.69,-196.91C2408.82,-184.49 2408.32,-168.72 2409.77,-159.13"/>
<polygon fill="midnightblue" stroke="midnightblue" points="2407.26,-197.62 2412.67,-206.73 2414.12,-196.24 2407.26,-197.62"/>
</g>
<!-- Node14&#45;&gt;Node12 -->
<g id="edge21" class="edge">
<title>Node14&#45;&gt;Node12</title>
<path fill="none" stroke="midnightblue" d="M2421.34,-169.28C2423.18,-181.62 2423.67,-197.18 2422.25,-206.73"/>
<polygon fill="midnightblue" stroke="midnightblue" points="2424.7,-168.24 2419.29,-159.13 2417.84,-169.62 2424.7,-168.24"/>
</g>
<!-- Node15 -->
<g id="node15" class="node">
<title>Node15</title>
<g id="a_node15"><a xlink:href="mnote-apple-entry_8c.html" target="_top" xlink:title=" ">
<polygon fill="white" stroke="black" points="2333,-67.5 2333,-97.5 2445,-97.5 2445,-67.5 2333,-67.5"/>
<text text-anchor="start" x="2341" y="-85.5" font-family="Helvetica,sans-Serif" font-size="10.00">libexif/apple/mnote</text>
<text text-anchor="middle" x="2389" y="-74.5" font-family="Helvetica,sans-Serif" font-size="10.00">&#45;apple&#45;entry.c</text>
</a>
</g>
</g>
<!-- Node14&#45;&gt;Node15 -->
<g id="edge20" class="edge">
<title>Node14&#45;&gt;Node15</title>
<path fill="none" stroke="midnightblue" d="M2407.03,-130.39C2403.05,-120.02 2398.12,-107.2 2394.42,-97.59"/>
<polygon fill="midnightblue" stroke="midnightblue" points="2403.77,-131.66 2410.63,-139.73 2410.31,-129.14 2403.77,-131.66"/>
</g>
<!-- Node14&#45;&gt;Node16 -->
<g id="edge22" class="edge">
<title>Node14&#45;&gt;Node16</title>
<path fill="none" stroke="midnightblue" d="M2457.27,-137.67C2463.21,-136.34 2469.24,-135.08 2475,-134 2590.53,-112.38 2621.47,-119.62 2737,-98 2745.99,-96.32 2755.64,-94.18 2764.56,-92.06"/>
<polygon fill="midnightblue" stroke="midnightblue" points="2456.39,-134.28 2447.44,-139.94 2457.97,-141.1 2456.39,-134.28"/>
</g>
<!-- Node17 -->
<g id="node17" class="node">
<title>Node17</title>
<g id="a_node17"><a xlink:href="mnote-olympus-entry_8c.html" target="_top" xlink:title=" ">
<polygon fill="white" stroke="black" points="2463.5,-67.5 2463.5,-97.5 2590.5,-97.5 2590.5,-67.5 2463.5,-67.5"/>
<text text-anchor="start" x="2471.5" y="-85.5" font-family="Helvetica,sans-Serif" font-size="10.00">libexif/olympus/mnote</text>
<text text-anchor="middle" x="2527" y="-74.5" font-family="Helvetica,sans-Serif" font-size="10.00">&#45;olympus&#45;entry.c</text>
</a>
</g>
</g>
<!-- Node14&#45;&gt;Node17 -->
<g id="edge23" class="edge">
<title>Node14&#45;&gt;Node17</title>
<path fill="none" stroke="midnightblue" d="M2438.16,-134.6C2457.13,-123.69 2483.45,-108.55 2502.51,-97.59"/>
<polygon fill="midnightblue" stroke="midnightblue" points="2436.16,-131.71 2429.24,-139.73 2439.65,-137.78 2436.16,-131.71"/>
</g>
<!-- Node18 -->
<g id="node18" class="node">
<title>Node18</title>
<g id="a_node18"><a xlink:href="mnote-pentax-entry_8c.html" target="_top" xlink:title=" ">
<polygon fill="white" stroke="black" points="2608.5,-67.5 2608.5,-97.5 2727.5,-97.5 2727.5,-67.5 2608.5,-67.5"/>
<text text-anchor="start" x="2616.5" y="-85.5" font-family="Helvetica,sans-Serif" font-size="10.00">libexif/pentax/mnote</text>
<text text-anchor="middle" x="2668" y="-74.5" font-family="Helvetica,sans-Serif" font-size="10.00">&#45;pentax&#45;entry.c</text>
</a>
</g>
</g>
<!-- Node14&#45;&gt;Node18 -->
<g id="edge24" class="edge">
<title>Node14&#45;&gt;Node18</title>
<path fill="none" stroke="midnightblue" d="M2457.34,-137.41C2500.35,-126.4 2566.4,-109.5 2613.06,-97.56"/>
<polygon fill="midnightblue" stroke="midnightblue" points="2456.29,-134.07 2447.47,-139.94 2458.02,-140.85 2456.29,-134.07"/>
</g>
<!-- Node14&#45;&gt;Node19 -->
<g id="edge25" class="edge">
<title>Node14&#45;&gt;Node19</title>
<path fill="none" stroke="midnightblue" d="M2352.02,-138.83C2338.84,-137.01 2324.98,-135.28 2312,-134 1982.69,-101.45 1583.6,-88.27 1452.8,-84.62"/>
<polygon fill="midnightblue" stroke="midnightblue" points="2351.56,-142.3 2361.95,-140.23 2352.54,-135.37 2351.56,-142.3"/>
</g>
<!-- Node20&#45;&gt;Node2 -->
<g id="edge28" class="edge">
<title>Node20&#45;&gt;Node2</title>
<path fill="none" stroke="midnightblue" d="M1139.98,-197.85C1150.6,-179.79 1162.27,-151.91 1147,-134 1097.66,-76.13 561.56,-32.47 392.66,-20.07"/>
<polygon fill="midnightblue" stroke="midnightblue" points="1136.74,-196.42 1134.36,-206.75 1142.66,-200.16 1136.74,-196.42"/>
</g>
<!-- Node20&#45;&gt;Node19 -->
<g id="edge33" class="edge">
<title>Node20&#45;&gt;Node19</title>
<path fill="none" stroke="midnightblue" d="M1193.83,-205.03C1230.67,-197.39 1276.57,-184.83 1314,-165 1351.25,-145.27 1386.6,-108.64 1401.54,-92.05"/>
<polygon fill="midnightblue" stroke="midnightblue" points="1192.82,-201.67 1183.7,-207.06 1194.19,-208.53 1192.82,-201.67"/>
</g>
<!-- Node21 -->
<g id="node21" class="node">
<title>Node21</title>
<g id="a_node21"><a xlink:href="exif-loader_8c.html" target="_top" xlink:title=" ">
<polygon fill="white" stroke="black" points="1195,-140 1195,-159 1305,-159 1305,-140 1195,-140"/>
<text text-anchor="middle" x="1250" y="-147" font-family="Helvetica,sans-Serif" font-size="10.00">libexif/exif&#45;loader.c</text>
</a>
</g>
</g>
<!-- Node20&#45;&gt;Node21 -->
<g id="edge29" class="edge">
<title>Node20&#45;&gt;Node21</title>
<path fill="none" stroke="midnightblue" d="M1153.14,-202.1C1177.31,-189.23 1213.1,-170.16 1233.73,-159.17"/>
<polygon fill="midnightblue" stroke="midnightblue" points="1151.38,-199.08 1144.2,-206.87 1154.67,-205.26 1151.38,-199.08"/>
</g>
<!-- Node20&#45;&gt;Node22 -->
<g id="edge30" class="edge">
<title>Node20&#45;&gt;Node22</title>
<path fill="none" stroke="midnightblue" d="M1094.22,-203.44C1058.12,-190.54 1001.79,-170.42 969.98,-159.06"/>
<polygon fill="midnightblue" stroke="midnightblue" points="1093.24,-206.8 1103.83,-206.87 1095.59,-200.21 1093.24,-206.8"/>
</g>
<!-- Node20&#45;&gt;Node23 -->
<g id="edge31" class="edge">
<title>Node20&#45;&gt;Node23</title>
<path fill="none" stroke="midnightblue" d="M1117.52,-198.03C1109.97,-185.45 1100.1,-169.01 1094.18,-159.13"/>
<polygon fill="midnightblue" stroke="midnightblue" points="1114.59,-199.96 1122.74,-206.73 1120.6,-196.36 1114.59,-199.96"/>
</g>
<!-- Node20&#45;&gt;Node24 -->
<g id="edge32" class="edge">
<title>Node20&#45;&gt;Node24</title>
<path fill="none" stroke="midnightblue" d="M1185.03,-205.12C1255.2,-192.34 1373,-170.89 1438.14,-159.03"/>
<polygon fill="midnightblue" stroke="midnightblue" points="1184.25,-201.7 1175.04,-206.94 1185.5,-208.59 1184.25,-201.7"/>
</g>
<!-- Node25&#45;&gt;Node2 -->
<g id="edge35" class="edge">
<title>Node25&#45;&gt;Node2</title>
<path fill="none" stroke="midnightblue" d="M2206.7,-195.84C2194.41,-187.61 2181.36,-177.12 2172,-165 2143.44,-128.03 2172.17,-93.93 2134,-67 2097.45,-41.2 680.09,-21 392.57,-17.16"/>
<polygon fill="midnightblue" stroke="midnightblue" points="2205.14,-199 2215.45,-201.43 2208.91,-193.1 2205.14,-199"/>
</g>
<!-- Node26 -->
<g id="node26" class="node">
<title>Node26</title>
<g id="a_node26"><a xlink:href="exif-mnote-data-fuji_8c.html" target="_top" xlink:title=" ">
<polygon fill="white" stroke="black" points="2181,-134.5 2181,-164.5 2303,-164.5 2303,-134.5 2181,-134.5"/>
<text text-anchor="start" x="2189" y="-152.5" font-family="Helvetica,sans-Serif" font-size="10.00">libexif/fuji/exif&#45;mnote</text>
<text text-anchor="middle" x="2242" y="-141.5" font-family="Helvetica,sans-Serif" font-size="10.00">&#45;data&#45;fuji.c</text>
</a>
</g>
</g>
<!-- Node25&#45;&gt;Node26 -->
<g id="edge36" class="edge">
<title>Node25&#45;&gt;Node26</title>
<path fill="none" stroke="midnightblue" d="M2242,-191.11C2242,-182.15 2242,-172.32 2242,-164.58"/>
<polygon fill="midnightblue" stroke="midnightblue" points="2238.5,-191.4 2242,-201.4 2245.5,-191.4 2238.5,-191.4"/>
</g>
<!-- Node27 -->
<g id="node27" class="node">
<title>Node27</title>
<g id="a_node27"><a xlink:href="mnote-fuji-entry_8h.html" target="_top" xlink:title=" ">
<polygon fill="white" stroke="black" points="2023.5,-134.5 2023.5,-164.5 2124.5,-164.5 2124.5,-134.5 2023.5,-134.5"/>
<text text-anchor="start" x="2031.5" y="-152.5" font-family="Helvetica,sans-Serif" font-size="10.00">libexif/fuji/mnote</text>
<text text-anchor="middle" x="2074" y="-141.5" font-family="Helvetica,sans-Serif" font-size="10.00">&#45;fuji&#45;entry.h</text>
</a>
</g>
</g>
<!-- Node25&#45;&gt;Node27 -->
<g id="edge37" class="edge">
<title>Node25&#45;&gt;Node27</title>
<path fill="none" stroke="midnightblue" d="M2190.22,-197.82C2162.2,-187.37 2128.62,-174.32 2104.71,-164.58"/>
<polygon fill="midnightblue" stroke="midnightblue" points="2189.28,-201.2 2199.87,-201.4 2191.71,-194.64 2189.28,-201.2"/>
</g>
<!-- Node27&#45;&gt;Node25 -->
<g id="edge38" class="edge">
<title>Node27&#45;&gt;Node25</title>
<path fill="none" stroke="midnightblue" d="M2125.7,-168.15C2153.71,-178.59 2187.3,-191.64 2211.22,-201.4"/>
<polygon fill="midnightblue" stroke="midnightblue" points="2126.65,-164.77 2116.06,-164.58 2124.22,-171.33 2126.65,-164.77"/>
</g>
<!-- Node28 -->
<g id="node28" class="node">
<title>Node28</title>
<g id="a_node28"><a xlink:href="mnote-fuji-entry_8c.html" target="_top" xlink:title=" ">
<polygon fill="white" stroke="black" points="2023.5,-67.5 2023.5,-97.5 2124.5,-97.5 2124.5,-67.5 2023.5,-67.5"/>
<text text-anchor="start" x="2031.5" y="-85.5" font-family="Helvetica,sans-Serif" font-size="10.00">libexif/fuji/mnote</text>
<text text-anchor="middle" x="2074" y="-74.5" font-family="Helvetica,sans-Serif" font-size="10.00">&#45;fuji&#45;entry.c</text>
</a>
</g>
</g>
<!-- Node27&#45;&gt;Node28 -->
<g id="edge39" class="edge">
<title>Node27&#45;&gt;Node28</title>
<path fill="none" stroke="midnightblue" d="M2074,-124.11C2074,-115.15 2074,-105.32 2074,-97.58"/>
<polygon fill="midnightblue" stroke="midnightblue" points="2070.5,-124.4 2074,-134.4 2077.5,-124.4 2070.5,-124.4"/>
</g>
<!-- Node29&#45;&gt;Node27 -->
<g id="edge41" class="edge">
<title>Node29&#45;&gt;Node27</title>
<path fill="none" stroke="midnightblue" d="M1427.74,-201.07C1655.1,-165.69 1915.48,-154.89 2023.34,-151.71"/>
<polygon fill="midnightblue" stroke="midnightblue" points="1426.96,-197.65 1417.62,-202.67 1428.05,-204.57 1426.96,-197.65"/>
</g>
<!-- Node30 -->
<g id="node30" class="node">
<title>Node30</title>
<g id="a_node30"><a xlink:href="mnote-fuji-tag_8c.html" target="_top" xlink:title=" ">
<polygon fill="white" stroke="black" points="1550.5,-134.5 1550.5,-164.5 1651.5,-164.5 1651.5,-134.5 1550.5,-134.5"/>
<text text-anchor="start" x="1558.5" y="-152.5" font-family="Helvetica,sans-Serif" font-size="10.00">libexif/fuji/mnote</text>
<text text-anchor="middle" x="1601" y="-141.5" font-family="Helvetica,sans-Serif" font-size="10.00">&#45;fuji&#45;tag.c</text>
</a>
</g>
</g>
<!-- Node29&#45;&gt;Node30 -->
<g id="edge42" class="edge">
<title>Node29&#45;&gt;Node30</title>
<path fill="none" stroke="midnightblue" d="M1427.43,-198.71C1465.51,-188.14 1514.11,-174.63 1550.2,-164.61"/>
<polygon fill="midnightblue" stroke="midnightblue" points="1426.18,-195.43 1417.49,-201.48 1428.06,-202.17 1426.18,-195.43"/>
</g>
<!-- Node32&#45;&gt;Node2 -->
<g id="edge45" class="edge">
<title>Node32&#45;&gt;Node2</title>
<path fill="none" stroke="midnightblue" d="M487.74,-196.13C474.21,-187.58 459.06,-176.79 447,-165 399.81,-118.87 359.69,-49.08 346.55,-25.01"/>
<polygon fill="midnightblue" stroke="midnightblue" points="485.98,-199.17 496.34,-201.42 489.65,-193.2 485.98,-199.17"/>
</g>
<!-- Node32&#45;&gt;Node31 -->
<g id="edge46" class="edge">
<title>Node32&#45;&gt;Node31</title>
<path fill="none" stroke="midnightblue" d="M522,-191.11C522,-182.15 522,-172.32 522,-164.58"/>
<polygon fill="midnightblue" stroke="midnightblue" points="518.5,-191.4 522,-201.4 525.5,-191.4 518.5,-191.4"/>
</g>
<!-- Node33&#45;&gt;Node2 -->
<g id="edge48" class="edge">
<title>Node33&#45;&gt;Node2</title>
<path fill="none" stroke="midnightblue" d="M87.18,-196.04C75.25,-188.18 63.64,-177.87 57,-165 50.68,-152.76 49.55,-145.59 57,-134 108.1,-54.55 224.21,-28.8 291.4,-20.47"/>
<polygon fill="midnightblue" stroke="midnightblue" points="85.49,-199.12 95.85,-201.34 89.14,-193.14 85.49,-199.12"/>
</g>
<!-- Node34 -->
<g id="node34" class="node">
<title>Node34</title>
<g id="a_node34"><a xlink:href="exif-mnote-data-pentax_8c.html" target="_top" xlink:title=" ">
<polygon fill="white" stroke="black" points="66.5,-134.5 66.5,-164.5 189.5,-164.5 189.5,-134.5 66.5,-134.5"/>
<text text-anchor="start" x="74.5" y="-152.5" font-family="Helvetica,sans-Serif" font-size="10.00">libexif/pentax/exif</text>
<text text-anchor="middle" x="128" y="-141.5" font-family="Helvetica,sans-Serif" font-size="10.00">&#45;mnote&#45;data&#45;pentax.c</text>
</a>
</g>
</g>
<!-- Node33&#45;&gt;Node34 -->
<g id="edge49" class="edge">
<title>Node33&#45;&gt;Node34</title>
<path fill="none" stroke="midnightblue" d="M128,-191.11C128,-182.15 128,-172.32 128,-164.58"/>
<polygon fill="midnightblue" stroke="midnightblue" points="124.5,-191.4 128,-201.4 131.5,-191.4 124.5,-191.4"/>
</g>
<!-- Node42&#45;&gt;Node3 -->
<g id="edge64" class="edge">
<title>Node42&#45;&gt;Node3</title>
<path fill="none" stroke="midnightblue" d="M2337.73,-330.06C2149.02,-320.52 1556.59,-290.6 1378.28,-281.59"/>
<polygon fill="midnightblue" stroke="midnightblue" points="2337.83,-333.57 2347.99,-330.57 2338.18,-326.57 2337.83,-333.57"/>
</g>
<!-- Node42&#45;&gt;Node12 -->
<g id="edge63" class="edge">
<title>Node42&#45;&gt;Node12</title>
<path fill="none" stroke="midnightblue" d="M2399.59,-314.16C2404.41,-288.87 2412.77,-244.94 2416.33,-226.28"/>
<polygon fill="midnightblue" stroke="midnightblue" points="2396.09,-313.84 2397.65,-324.32 2402.96,-315.15 2396.09,-313.84"/>
</g>
<!-- Node43 -->
<g id="node43" class="node">
<title>Node43</title>
<g id="a_node43"><a xlink:href="exif-gps-ifd_8h.html" target="_top" xlink:title="Info about GPS tags.">
<polygon fill="white" stroke="black" points="2424,-268.5 2424,-287.5 2538,-287.5 2538,-268.5 2424,-268.5"/>
<text text-anchor="middle" x="2481" y="-275.5" font-family="Helvetica,sans-Serif" font-size="10.00">libexif/exif&#45;gps&#45;ifd.h</text>
</a>
</g>
</g>
<!-- Node42&#45;&gt;Node43 -->
<g id="edge65" class="edge">
<title>Node42&#45;&gt;Node43</title>
<path fill="none" stroke="midnightblue" d="M2418.19,-318.9C2433.78,-309 2454.13,-296.07 2467.38,-287.65"/>
<polygon fill="midnightblue" stroke="midnightblue" points="2416.22,-316.01 2409.66,-324.32 2419.97,-321.92 2416.22,-316.01"/>
</g>
<!-- Node45 -->
<g id="node45" class="node">
<title>Node45</title>
<g id="a_node45"><a xlink:href="exif-tag_8c.html" target="_top" xlink:title=" ">
<polygon fill="white" stroke="black" points="2556.5,-268.5 2556.5,-287.5 2651.5,-287.5 2651.5,-268.5 2556.5,-268.5"/>
<text text-anchor="middle" x="2604" y="-275.5" font-family="Helvetica,sans-Serif" font-size="10.00">libexif/exif&#45;tag.c</text>
</a>
</g>
</g>
<!-- Node42&#45;&gt;Node45 -->
<g id="edge68" class="edge">
<title>Node42&#45;&gt;Node45</title>
<path fill="none" stroke="midnightblue" d="M2438.78,-321.89C2478.06,-311.7 2535.43,-296.8 2571.2,-287.52"/>
<polygon fill="midnightblue" stroke="midnightblue" points="2437.76,-318.54 2428.96,-324.44 2439.52,-325.32 2437.76,-318.54"/>
</g>
<!-- Node46 -->
<g id="node46" class="node">
<title>Node46</title>
<g id="a_node46"><a xlink:href="test-sorted_8c.html" target="_top" xlink:title=" ">
<polygon fill="white" stroke="black" points="2670,-268.5 2670,-287.5 2770,-287.5 2770,-268.5 2670,-268.5"/>
<text text-anchor="middle" x="2720" y="-275.5" font-family="Helvetica,sans-Serif" font-size="10.00">test/test&#45;sorted.c</text>
</a>
</g>
</g>
<!-- Node42&#45;&gt;Node46 -->
<g id="edge69" class="edge">
<title>Node42&#45;&gt;Node46</title>
<path fill="none" stroke="midnightblue" d="M2454.1,-323.32C2515.61,-313.06 2611.72,-297.05 2669.98,-287.34"/>
<polygon fill="midnightblue" stroke="midnightblue" points="2453.44,-319.88 2444.16,-324.97 2454.6,-326.78 2453.44,-319.88"/>
</g>
<!-- Node47 -->
<g id="node47" class="node">
<title>Node47</title>
<g id="a_node47"><a xlink:href="test-tagtable_8c.html" target="_top" xlink:title=" ">
<polygon fill="white" stroke="black" points="2258,-268.5 2258,-287.5 2368,-287.5 2368,-268.5 2258,-268.5"/>
<text text-anchor="middle" x="2313" y="-275.5" font-family="Helvetica,sans-Serif" font-size="10.00">test/test&#45;tagtable.c</text>
</a>
</g>
</g>
<!-- Node42&#45;&gt;Node47 -->
<g id="edge70" class="edge">
<title>Node42&#45;&gt;Node47</title>
<path fill="none" stroke="midnightblue" d="M2373.9,-318.62C2358.74,-308.76 2339.12,-295.99 2326.3,-287.65"/>
<polygon fill="midnightblue" stroke="midnightblue" points="2372.37,-321.8 2382.66,-324.32 2376.19,-315.94 2372.37,-321.8"/>
</g>
<!-- Node43&#45;&gt;Node16 -->
<g id="edge66" class="edge">
<title>Node43&#45;&gt;Node16</title>
<path fill="none" stroke="midnightblue" d="M2503.61,-263.2C2565.02,-225.71 2733.65,-122.78 2783.77,-92.18"/>
<polygon fill="midnightblue" stroke="midnightblue" points="2501.74,-260.24 2495.03,-268.44 2505.39,-266.21 2501.74,-260.24"/>
</g>
<!-- Node44 -->
<g id="node44" class="node">
<title>Node44</title>
<g id="a_node44"><a xlink:href="exif-gps-ifd_8c.html" target="_top" xlink:title="Info about GPS tags.">
<polygon fill="white" stroke="black" points="2656.5,-207 2656.5,-226 2769.5,-226 2769.5,-207 2656.5,-207"/>
<text text-anchor="middle" x="2713" y="-214" font-family="Helvetica,sans-Serif" font-size="10.00">libexif/exif&#45;gps&#45;ifd.c</text>
</a>
</g>
</g>
<!-- Node43&#45;&gt;Node44 -->
<g id="edge67" class="edge">
<title>Node43&#45;&gt;Node44</title>
<path fill="none" stroke="midnightblue" d="M2524.01,-265.97C2569.06,-254.41 2638.85,-236.52 2679.82,-226.01"/>
<polygon fill="midnightblue" stroke="midnightblue" points="2523.06,-262.6 2514.24,-268.48 2524.8,-269.38 2523.06,-262.6"/>
</g>
</g>
</svg>
