<?xml version="1.0" encoding="UTF-8" standalone="no"?>
<!DOCTYPE svg PUBLIC "-//W3C//DTD SVG 1.1//EN"
 "http://www.w3.org/Graphics/SVG/1.1/DTD/svg11.dtd">
<!-- Generated by graphviz version 7.0.1 (0)
 -->
<!-- Title: remove_not_recorded Pages: 1 -->
<svg width="923pt" height="273pt"
 viewBox="0.00 0.00 923.00 272.92" xmlns="http://www.w3.org/2000/svg" xmlns:xlink="http://www.w3.org/1999/xlink">
<g id="graph0" class="graph" transform="scale(1 1) rotate(0) translate(4 268.92)">
<title>remove_not_recorded</title>
<!-- Node1 -->
<g id="Node000001" class="node">
<title>Node1</title>
<g id="a_Node000001"><a xlink:title="Check if this entry is unknown and if so, delete it.">
<polygon fill="#999999" stroke="#666666" points="123,-133 0,-133 0,-114 123,-114 123,-133"/>
<text text-anchor="middle" x="61.5" y="-121" font-family="Helvetica,sans-Serif" font-size="10.00">remove_not_recorded</text>
</a>
</g>
</g>
<!-- Node2 -->
<g id="Node000002" class="node">
<title>Node2</title>
<g id="a_Node000002"><a xlink:href="exif-content_8c.html#a04f76832f82ea29ce05cd7c4e51932b1" target="_top" xlink:title="Remove an EXIF tag from an IFD.">
<polygon fill="white" stroke="#666666" points="287.5,-218.5 167.5,-218.5 167.5,-188.5 287.5,-188.5 287.5,-218.5"/>
<text text-anchor="start" x="175.5" y="-206.5" font-family="Helvetica,sans-Serif" font-size="10.00">exif_content_remove</text>
<text text-anchor="middle" x="227.5" y="-195.5" font-family="Helvetica,sans-Serif" font-size="10.00">_entry</text>
</a>
</g>
</g>
<!-- Node1&#45;&gt;Node2 -->
<g id="edge1_Node000001_Node000002" class="edge">
<title>Node1&#45;&gt;Node2</title>
<g id="a_edge1_Node000001_Node000002"><a xlink:title=" ">
<path fill="none" stroke="#63b8ff" d="M77.41,-133.32C95.98,-145.27 128.94,-165.58 159,-179.5 162.27,-181.02 165.67,-182.5 169.12,-183.93"/>
<polygon fill="#63b8ff" stroke="#63b8ff" points="167.58,-187.08 178.16,-187.52 170.16,-180.58 167.58,-187.08"/>
</a>
</g>
</g>
<!-- Node8 -->
<g id="Node000008" class="node">
<title>Node8</title>
<g id="a_Node000008"><a xlink:href="exif-data_8c.html#a4fb5dada09c9fdcab3eb7fe7e840ec84" target="_top" xlink:title="Return the data type for the given ExifData.">
<polygon fill="white" stroke="#666666" points="296,-170 159,-170 159,-151 296,-151 296,-170"/>
<text text-anchor="middle" x="227.5" y="-158" font-family="Helvetica,sans-Serif" font-size="10.00">exif_data_get_data_type</text>
</a>
</g>
</g>
<!-- Node1&#45;&gt;Node8 -->
<g id="edge9_Node000001_Node000008" class="edge">
<title>Node1&#45;&gt;Node8</title>
<g id="a_edge9_Node000001_Node000008"><a xlink:title=" ">
<path fill="none" stroke="#63b8ff" d="M106.45,-133.42C126.39,-137.92 150.2,-143.29 171.33,-148.05"/>
<polygon fill="#63b8ff" stroke="#63b8ff" points="170.43,-151.44 180.95,-150.22 171.97,-144.61 170.43,-151.44"/>
</a>
</g>
</g>
<!-- Node9 -->
<g id="Node000009" class="node">
<title>Node9</title>
<g id="a_Node000009"><a xlink:href="exif-ifd_8c.html#a7877a28898c084bd8311812d550181f2" target="_top" xlink:title="Return a textual name of the given IFD.">
<polygon fill="white" stroke="#666666" points="281,-133 174,-133 174,-114 281,-114 281,-133"/>
<text text-anchor="middle" x="227.5" y="-121" font-family="Helvetica,sans-Serif" font-size="10.00">exif_ifd_get_name</text>
</a>
</g>
</g>
<!-- Node1&#45;&gt;Node9 -->
<g id="edge10_Node000001_Node000009" class="edge">
<title>Node1&#45;&gt;Node9</title>
<g id="a_edge10_Node000001_Node000009"><a xlink:title=" ">
<path fill="none" stroke="#63b8ff" d="M123.1,-123.5C135.95,-123.5 149.54,-123.5 162.51,-123.5"/>
<polygon fill="#63b8ff" stroke="#63b8ff" points="162.19,-127 172.19,-123.5 162.19,-120 162.19,-127"/>
</a>
</g>
</g>
<!-- Node10 -->
<g id="Node000010" class="node">
<title>Node10</title>
<g id="a_Node000010"><a xlink:href="exif-log_8c.html#a025d4a5d96544913ea6f6ebbec69cb68" target="_top" xlink:title=" ">
<polygon fill="white" stroke="#666666" points="255.5,-96 199.5,-96 199.5,-77 255.5,-77 255.5,-96"/>
<text text-anchor="middle" x="227.5" y="-84" font-family="Helvetica,sans-Serif" font-size="10.00">exif_log</text>
</a>
</g>
</g>
<!-- Node1&#45;&gt;Node10 -->
<g id="edge11_Node000001_Node000010" class="edge">
<title>Node1&#45;&gt;Node10</title>
<g id="a_edge11_Node000001_Node000010"><a xlink:title=" ">
<path fill="none" stroke="#63b8ff" d="M106.45,-113.58C132,-107.82 163.9,-100.62 188.38,-95.1"/>
<polygon fill="#63b8ff" stroke="#63b8ff" points="188.95,-98.56 197.93,-92.95 187.41,-91.73 188.95,-98.56"/>
</a>
</g>
</g>
<!-- Node12 -->
<g id="Node000012" class="node">
<title>Node12</title>
<g id="a_Node000012"><a xlink:href="exif-tag_8c.html#a90f76ad051d48ed87fafa8aca39f98e2" target="_top" xlink:title="Return whether the given tag is mandatory or not in the given IFD and data type according to the EXIF...">
<polygon fill="white" stroke="#666666" points="287,-58.5 168,-58.5 168,-28.5 287,-28.5 287,-58.5"/>
<text text-anchor="start" x="176" y="-46.5" font-family="Helvetica,sans-Serif" font-size="10.00">exif_tag_get_support</text>
<text text-anchor="middle" x="227.5" y="-35.5" font-family="Helvetica,sans-Serif" font-size="10.00">_level_in_ifd</text>
</a>
</g>
</g>
<!-- Node1&#45;&gt;Node12 -->
<g id="edge13_Node000001_Node000012" class="edge">
<title>Node1&#45;&gt;Node12</title>
<g id="a_edge13_Node000001_Node000012"><a xlink:title=" ">
<path fill="none" stroke="#63b8ff" d="M78.13,-113.53C96.87,-101.83 129.46,-82.27 159,-68.5 162.96,-66.65 167.11,-64.84 171.3,-63.09"/>
<polygon fill="#63b8ff" stroke="#63b8ff" points="172.4,-66.43 180.37,-59.45 169.79,-59.93 172.4,-66.43"/>
</a>
</g>
</g>
<!-- Node3 -->
<g id="Node000003" class="node">
<title>Node3</title>
<g id="a_Node000003"><a xlink:href="exif-entry_8c.html#a82d5d923121488d847d341727cdd2ef4" target="_top" xlink:title="Decrease reference counter for ExifEntry.">
<polygon fill="white" stroke="#666666" points="457.5,-251 360.5,-251 360.5,-232 457.5,-232 457.5,-251"/>
<text text-anchor="middle" x="409" y="-239" font-family="Helvetica,sans-Serif" font-size="10.00">exif_entry_unref</text>
</a>
</g>
</g>
<!-- Node2&#45;&gt;Node3 -->
<g id="edge2_Node000002_Node000003" class="edge">
<title>Node2&#45;&gt;Node3</title>
<g id="a_edge2_Node000002_Node000003"><a xlink:title=" ">
<path fill="none" stroke="#63b8ff" d="M287.77,-216.05C307.76,-220.28 330.03,-224.99 349.92,-229.2"/>
<polygon fill="#63b8ff" stroke="#63b8ff" points="349.01,-232.59 359.52,-231.24 350.46,-225.74 349.01,-232.59"/>
</a>
</g>
</g>
<!-- Node5 -->
<g id="Node000005" class="node">
<title>Node5</title>
<g id="a_Node000005"><a xlink:href="exif-mem_8c.html#a43190b81b4b4bdb4ffb89bfb612051b1" target="_top" xlink:title=" ">
<polygon fill="white" stroke="#666666" points="915,-251 824,-251 824,-232 915,-232 915,-251"/>
<text text-anchor="middle" x="869.5" y="-239" font-family="Helvetica,sans-Serif" font-size="10.00">exif_mem_free</text>
</a>
</g>
</g>
<!-- Node2&#45;&gt;Node5 -->
<g id="edge7_Node000002_Node000005" class="edge">
<title>Node2&#45;&gt;Node5</title>
<g id="a_edge7_Node000002_Node000005"><a xlink:title=" ">
<path fill="none" stroke="#63b8ff" d="M287.59,-202.05C389.97,-200.34 606.76,-200.2 788,-223.5 798.33,-224.83 809.28,-226.85 819.67,-229.07"/>
<polygon fill="#63b8ff" stroke="#63b8ff" points="818.67,-232.44 829.19,-231.2 820.2,-225.6 818.67,-232.44"/>
</a>
</g>
</g>
<!-- Node7 -->
<g id="Node000007" class="node">
<title>Node7</title>
<g id="a_Node000007"><a xlink:href="exif-mem_8c.html#a7302da5374a74202e03a781b7c4b7ebe" target="_top" xlink:title=" ">
<polygon fill="white" stroke="#666666" points="461,-175 357,-175 357,-156 461,-156 461,-175"/>
<text text-anchor="middle" x="409" y="-163" font-family="Helvetica,sans-Serif" font-size="10.00">exif_mem_realloc</text>
</a>
</g>
</g>
<!-- Node2&#45;&gt;Node7 -->
<g id="edge8_Node000002_Node000007" class="edge">
<title>Node2&#45;&gt;Node7</title>
<g id="a_edge8_Node000002_Node000007"><a xlink:title=" ">
<path fill="none" stroke="#63b8ff" d="M287.77,-190.95C307.76,-186.72 330.03,-182.01 349.92,-177.8"/>
<polygon fill="#63b8ff" stroke="#63b8ff" points="350.46,-181.26 359.52,-175.76 349.01,-174.41 350.46,-181.26"/>
</a>
</g>
</g>
<!-- Node4 -->
<g id="Node000004" class="node">
<title>Node4</title>
<g id="a_Node000004"><a xlink:href="exif-entry_8c.html#a2879215e3863186650d3f32eb63bbaf4" target="_top" xlink:title="Actually free the ExifEntry.">
<polygon fill="white" stroke="#666666" points="623,-251 532,-251 532,-232 623,-232 623,-251"/>
<text text-anchor="middle" x="577.5" y="-239" font-family="Helvetica,sans-Serif" font-size="10.00">exif_entry_free</text>
</a>
</g>
</g>
<!-- Node3&#45;&gt;Node4 -->
<g id="edge3_Node000003_Node000004" class="edge">
<title>Node3&#45;&gt;Node4</title>
<g id="a_edge3_Node000003_Node000004"><a xlink:title=" ">
<path fill="none" stroke="#63b8ff" d="M457.71,-241.5C477.24,-241.5 499.99,-241.5 520.31,-241.5"/>
<polygon fill="#63b8ff" stroke="#63b8ff" points="520.13,-245 530.13,-241.5 520.13,-238 520.13,-245"/>
</a>
</g>
</g>
<!-- Node4&#45;&gt;Node5 -->
<g id="edge4_Node000004_Node000005" class="edge">
<title>Node4&#45;&gt;Node5</title>
<g id="a_edge4_Node000004_Node000005"><a xlink:title=" ">
<path fill="none" stroke="#63b8ff" d="M616.98,-251.41C632.95,-255.05 651.75,-258.71 669,-260.5 721.61,-265.96 735.47,-266.62 788,-260.5 799.55,-259.16 811.85,-256.76 823.27,-254.11"/>
<polygon fill="#63b8ff" stroke="#63b8ff" points="823.98,-257.54 832.87,-251.77 822.32,-250.74 823.98,-257.54"/>
</a>
</g>
</g>
<!-- Node6 -->
<g id="Node000006" class="node">
<title>Node6</title>
<g id="a_Node000006"><a xlink:href="exif-mem_8c.html#a66744e0987af08c443df247ce55f7d87" target="_top" xlink:title="Unrefcount an ExifMem.">
<polygon fill="white" stroke="#666666" points="777,-251 680,-251 680,-232 777,-232 777,-251"/>
<text text-anchor="middle" x="728.5" y="-239" font-family="Helvetica,sans-Serif" font-size="10.00">exif_mem_unref</text>
</a>
</g>
</g>
<!-- Node4&#45;&gt;Node6 -->
<g id="edge5_Node000004_Node000006" class="edge">
<title>Node4&#45;&gt;Node6</title>
<g id="a_edge5_Node000004_Node000006"><a xlink:title=" ">
<path fill="none" stroke="#63b8ff" d="M623.2,-241.5C637.41,-241.5 653.35,-241.5 668.41,-241.5"/>
<polygon fill="#63b8ff" stroke="#63b8ff" points="668.2,-245 678.2,-241.5 668.2,-238 668.2,-245"/>
</a>
</g>
</g>
<!-- Node6&#45;&gt;Node5 -->
<g id="edge6_Node000006_Node000005" class="edge">
<title>Node6&#45;&gt;Node5</title>
<g id="a_edge6_Node000006_Node000005"><a xlink:title=" ">
<path fill="none" stroke="#63b8ff" d="M777.34,-241.5C788.64,-241.5 800.8,-241.5 812.44,-241.5"/>
<polygon fill="#63b8ff" stroke="#63b8ff" points="812.34,-245 822.34,-241.5 812.34,-238 812.34,-245"/>
</a>
</g>
</g>
<!-- Node11 -->
<g id="Node000011" class="node">
<title>Node11</title>
<g id="a_Node000011"><a xlink:href="exif-log_8c.html#a99101b5ad01b2d82ce9d43c9e8534627" target="_top" xlink:title=" ">
<polygon fill="white" stroke="#666666" points="440,-96 378,-96 378,-77 440,-77 440,-96"/>
<text text-anchor="middle" x="409" y="-84" font-family="Helvetica,sans-Serif" font-size="10.00">exif_logv</text>
</a>
</g>
</g>
<!-- Node10&#45;&gt;Node11 -->
<g id="edge12_Node000010_Node000011" class="edge">
<title>Node10&#45;&gt;Node11</title>
<g id="a_edge12_Node000010_Node000011"><a xlink:title=" ">
<path fill="none" stroke="#63b8ff" d="M255.76,-86.5C285.15,-86.5 332.29,-86.5 366.33,-86.5"/>
<polygon fill="#63b8ff" stroke="#63b8ff" points="366.26,-90 376.26,-86.5 366.26,-83 366.26,-90"/>
</a>
</g>
</g>
<!-- Node13 -->
<g id="Node000013" class="node">
<title>Node13</title>
<g id="a_Node000013"><a xlink:href="exif-tag_8c.html#a92f313f59c9f2fc4bebe2438be038bd9" target="_top" xlink:title="Return the support level of a tag in the given IFD, regardless of the data type.">
<polygon fill="white" stroke="#666666" points="486,-56 332,-56 332,-37 486,-37 486,-56"/>
<text text-anchor="middle" x="409" y="-44" font-family="Helvetica,sans-Serif" font-size="10.00">get_support_level_any_type</text>
</a>
</g>
</g>
<!-- Node12&#45;&gt;Node13 -->
<g id="edge14_Node000012_Node000013" class="edge">
<title>Node12&#45;&gt;Node13</title>
<g id="a_edge14_Node000012_Node000013"><a xlink:title=" ">
<path fill="none" stroke="#63b8ff" d="M287.28,-44.48C297.93,-44.66 309.26,-44.85 320.53,-45.04"/>
<polygon fill="#63b8ff" stroke="#63b8ff" points="320.2,-48.53 330.25,-45.2 320.31,-41.53 320.2,-48.53"/>
</a>
</g>
</g>
<!-- Node17 -->
<g id="Node000017" class="node">
<title>Node17</title>
<g id="a_Node000017"><a xlink:href="exif-tag_8c.html#a1581a40dbcb0f27d4a3f8181b272c55b" target="_top" xlink:title="Return the support level of a tag in the given IFD with the given data type.">
<polygon fill="white" stroke="#666666" points="477,-19 341,-19 341,0 477,0 477,-19"/>
<text text-anchor="middle" x="409" y="-7" font-family="Helvetica,sans-Serif" font-size="10.00">get_support_level_in_ifd</text>
</a>
</g>
</g>
<!-- Node12&#45;&gt;Node17 -->
<g id="edge18_Node000012_Node000017" class="edge">
<title>Node12&#45;&gt;Node17</title>
<g id="a_edge18_Node000012_Node000017"><a xlink:title=" ">
<path fill="none" stroke="#63b8ff" d="M287.28,-32.37C305.48,-28.92 325.62,-25.1 344.15,-21.59"/>
<polygon fill="#63b8ff" stroke="#63b8ff" points="344.79,-25.04 353.96,-19.74 343.49,-18.16 344.79,-25.04"/>
</a>
</g>
</g>
<!-- Node14 -->
<g id="Node000014" class="node">
<title>Node14</title>
<g id="a_Node000014"><a xlink:href="exif-tag_8c.html#a389f8ff3411e0525b28367892f1e78d3" target="_top" xlink:title="Finds the first entry in the EXIF tag table with the given tag number using a binary search.">
<polygon fill="white" stroke="#666666" points="633,-38 522,-38 522,-19 633,-19 633,-38"/>
<text text-anchor="middle" x="577.5" y="-26" font-family="Helvetica,sans-Serif" font-size="10.00">exif_tag_table_first</text>
</a>
</g>
</g>
<!-- Node13&#45;&gt;Node14 -->
<g id="edge15_Node000013_Node000014" class="edge">
<title>Node13&#45;&gt;Node14</title>
<g id="a_edge15_Node000013_Node000014"><a xlink:title=" ">
<path fill="none" stroke="#63b8ff" d="M486.43,-38.24C494.47,-37.37 502.6,-36.49 510.51,-35.63"/>
<polygon fill="#63b8ff" stroke="#63b8ff" points="510.83,-39.12 520.4,-34.57 510.08,-32.16 510.83,-39.12"/>
</a>
</g>
</g>
<!-- Node15 -->
<g id="Node000015" class="node">
<title>Node15</title>
<g id="a_Node000015"><a xlink:href="exif-tag_8c.html#a87563ee64809f5f0deb4d780098508c1" target="_top" xlink:title="Return the number of entries in the EXIF tag table, including the terminating NULL entry.">
<polygon fill="white" stroke="#666666" points="788,-57 669,-57 669,-38 788,-38 788,-57"/>
<text text-anchor="middle" x="728.5" y="-45" font-family="Helvetica,sans-Serif" font-size="10.00">exif_tag_table_count</text>
</a>
</g>
</g>
<!-- Node14&#45;&gt;Node15 -->
<g id="edge16_Node000014_Node000015" class="edge">
<title>Node14&#45;&gt;Node15</title>
<g id="a_edge16_Node000014_Node000015"><a xlink:title=" ">
<path fill="none" stroke="#63b8ff" d="M633.14,-35.47C640.98,-36.47 649.15,-37.51 657.24,-38.54"/>
<polygon fill="#63b8ff" stroke="#63b8ff" points="656.74,-42.01 667.1,-39.8 657.63,-35.06 656.74,-42.01"/>
</a>
</g>
</g>
<!-- Node16 -->
<g id="Node000016" class="node">
<title>Node16</title>
<g id="a_Node000016"><a xlink:href="exif-tag_8c.html#a220c1b18832f113bc84ff9551754915f" target="_top" xlink:title="Compares the tag with that in entry.">
<polygon fill="white" stroke="#666666" points="762.5,-20 694.5,-20 694.5,-1 762.5,-1 762.5,-20"/>
<text text-anchor="middle" x="728.5" y="-8" font-family="Helvetica,sans-Serif" font-size="10.00">match_tag</text>
</a>
</g>
</g>
<!-- Node14&#45;&gt;Node16 -->
<g id="edge17_Node000014_Node000016" class="edge">
<title>Node14&#45;&gt;Node16</title>
<g id="a_edge17_Node000014_Node000016"><a xlink:title=" ">
<path fill="none" stroke="#63b8ff" d="M633.14,-21.9C649.58,-19.91 667.41,-17.76 683.1,-15.86"/>
<polygon fill="#63b8ff" stroke="#63b8ff" points="683.09,-19.39 692.6,-14.72 682.25,-12.44 683.09,-19.39"/>
</a>
</g>
</g>
<!-- Node17&#45;&gt;Node14 -->
<g id="edge19_Node000017_Node000014" class="edge">
<title>Node17&#45;&gt;Node14</title>
<g id="a_edge19_Node000017_Node000014"><a xlink:title=" ">
<path fill="none" stroke="#63b8ff" d="M477.24,-17.17C488.16,-18.42 499.46,-19.71 510.35,-20.95"/>
<polygon fill="#63b8ff" stroke="#63b8ff" points="509.69,-24.4 520.02,-22.05 510.48,-17.44 509.69,-24.4"/>
</a>
</g>
</g>
</g>
</svg>
