<?xml version="1.0" encoding="UTF-8" standalone="no"?>
<!DOCTYPE svg PUBLIC "-//W3C//DTD SVG 1.1//EN"
 "http://www.w3.org/Graphics/SVG/1.1/DTD/svg11.dtd">
<!-- Generated by graphviz version 2.44.1 (0)
 -->
<!-- Title: exif_loader_write_file Pages: 1 -->
<svg width="671pt" height="104pt"
 viewBox="0.00 0.00 671.00 104.00" xmlns="http://www.w3.org/2000/svg" xmlns:xlink="http://www.w3.org/1999/xlink">
<g id="graph0" class="graph" transform="scale(1 1) rotate(0) translate(4 100)">
<title>exif_loader_write_file</title>
<polygon fill="white" stroke="transparent" points="-4,4 -4,-100 667,-100 667,4 -4,4"/>
<!-- Node1 -->
<g id="node1" class="node">
<title>Node1</title>
<g id="a_node1"><a xlink:title="Load a file into the given ExifLoader from the filesystem.">
<polygon fill="#bfbfbf" stroke="black" points="0,-19.5 0,-38.5 122,-38.5 122,-19.5 0,-19.5"/>
<text text-anchor="middle" x="61" y="-26.5" font-family="Helvetica,sans-Serif" font-size="10.00">exif_loader_write_file</text>
</a>
</g>
</g>
<!-- Node2 -->
<g id="node2" class="node">
<title>Node2</title>
<g id="a_node2"><a xlink:href="exif-loader_8c.html#ac25a1f0626855195944f53788284e32f" target="_top" xlink:title="Load a buffer into the ExifLoader from a memory buffer.">
<polygon fill="white" stroke="black" points="158,-38.5 158,-57.5 259,-57.5 259,-38.5 158,-38.5"/>
<text text-anchor="middle" x="208.5" y="-45.5" font-family="Helvetica,sans-Serif" font-size="10.00">exif_loader_write</text>
</a>
</g>
</g>
<!-- Node1&#45;&gt;Node2 -->
<g id="edge1" class="edge">
<title>Node1&#45;&gt;Node2</title>
<path fill="none" stroke="midnightblue" d="M122.02,-36.84C130.48,-37.94 139.18,-39.08 147.63,-40.18"/>
<polygon fill="midnightblue" stroke="midnightblue" points="147.43,-43.69 157.8,-41.51 148.33,-36.74 147.43,-43.69"/>
</g>
<!-- Node8 -->
<g id="node8" class="node">
<title>Node8</title>
<g id="a_node8"><a xlink:href="exif-log_8c.html#a025d4a5d96544913ea6f6ebbec69cb68" target="_top" xlink:title=" ">
<polygon fill="white" stroke="black" points="317.5,-0.5 317.5,-19.5 373.5,-19.5 373.5,-0.5 317.5,-0.5"/>
<text text-anchor="middle" x="345.5" y="-7.5" font-family="Helvetica,sans-Serif" font-size="10.00">exif_log</text>
</a>
</g>
</g>
<!-- Node1&#45;&gt;Node8 -->
<g id="edge9" class="edge">
<title>Node1&#45;&gt;Node8</title>
<path fill="none" stroke="midnightblue" d="M122.26,-24.95C178.3,-21.18 260.03,-15.68 307.18,-12.51"/>
<polygon fill="midnightblue" stroke="midnightblue" points="307.52,-16 317.26,-11.83 307.05,-9.01 307.52,-16"/>
</g>
<!-- Node3 -->
<g id="node3" class="node">
<title>Node3</title>
<g id="a_node3"><a xlink:href="exif-loader_8c.html#ac83d06f410cd71f8ea82f3030707ec19" target="_top" xlink:title=" ">
<polygon fill="white" stroke="black" points="295.5,-76.5 295.5,-95.5 395.5,-95.5 395.5,-76.5 295.5,-76.5"/>
<text text-anchor="middle" x="345.5" y="-83.5" font-family="Helvetica,sans-Serif" font-size="10.00">exif_loader_copy</text>
</a>
</g>
</g>
<!-- Node2&#45;&gt;Node3 -->
<g id="edge2" class="edge">
<title>Node2&#45;&gt;Node3</title>
<path fill="none" stroke="midnightblue" d="M243.57,-57.59C260.91,-62.47 282.2,-68.46 300.75,-73.68"/>
<polygon fill="midnightblue" stroke="midnightblue" points="299.87,-77.07 310.44,-76.41 301.77,-70.34 299.87,-77.07"/>
</g>
<!-- Node6 -->
<g id="node6" class="node">
<title>Node6</title>
<g id="a_node6"><a xlink:href="exif-loader_8c.html#a080d8ebb5006c1306a3a798ff60253a5" target="_top" xlink:title="Free any data previously loaded and reset the ExifLoader to its newly&#45;initialized state.">
<polygon fill="white" stroke="black" points="295,-38.5 295,-57.5 396,-57.5 396,-38.5 295,-38.5"/>
<text text-anchor="middle" x="345.5" y="-45.5" font-family="Helvetica,sans-Serif" font-size="10.00">exif_loader_reset</text>
</a>
</g>
</g>
<!-- Node2&#45;&gt;Node6 -->
<g id="edge5" class="edge">
<title>Node2&#45;&gt;Node6</title>
<path fill="none" stroke="midnightblue" d="M259,-48C267.24,-48 275.87,-48 284.34,-48"/>
<polygon fill="midnightblue" stroke="midnightblue" points="284.55,-51.5 294.55,-48 284.55,-44.5 284.55,-51.5"/>
</g>
<!-- Node2&#45;&gt;Node8 -->
<g id="edge7" class="edge">
<title>Node2&#45;&gt;Node8</title>
<path fill="none" stroke="midnightblue" d="M243.57,-38.41C263.08,-32.92 287.58,-26.02 307.55,-20.4"/>
<polygon fill="midnightblue" stroke="midnightblue" points="308.56,-23.75 317.24,-17.67 306.67,-17.01 308.56,-23.75"/>
</g>
<!-- Node4 -->
<g id="node4" class="node">
<title>Node4</title>
<g id="a_node4"><a xlink:href="exif-loader_8c.html#af5432ecf056b1facede9da071bb9d6a2" target="_top" xlink:title=" ">
<polygon fill="white" stroke="black" points="432,-76.5 432,-95.5 532,-95.5 532,-76.5 432,-76.5"/>
<text text-anchor="middle" x="482" y="-83.5" font-family="Helvetica,sans-Serif" font-size="10.00">exif_loader_alloc</text>
</a>
</g>
</g>
<!-- Node3&#45;&gt;Node4 -->
<g id="edge3" class="edge">
<title>Node3&#45;&gt;Node4</title>
<path fill="none" stroke="midnightblue" d="M395.82,-86C404.23,-86 413.04,-86 421.67,-86"/>
<polygon fill="midnightblue" stroke="midnightblue" points="421.69,-89.5 431.69,-86 421.69,-82.5 421.69,-89.5"/>
</g>
<!-- Node5 -->
<g id="node5" class="node">
<title>Node5</title>
<g id="a_node5"><a xlink:href="exif-mem_8c.html#ae8c09cfbcb95e435c4c4b7ec3bbd79e4" target="_top" xlink:title=" ">
<polygon fill="white" stroke="black" points="568,-76.5 568,-95.5 663,-95.5 663,-76.5 568,-76.5"/>
<text text-anchor="middle" x="615.5" y="-83.5" font-family="Helvetica,sans-Serif" font-size="10.00">exif_mem_alloc</text>
</a>
</g>
</g>
<!-- Node4&#45;&gt;Node5 -->
<g id="edge4" class="edge">
<title>Node4&#45;&gt;Node5</title>
<path fill="none" stroke="midnightblue" d="M532.34,-86C540.63,-86 549.29,-86 557.75,-86"/>
<polygon fill="midnightblue" stroke="midnightblue" points="557.93,-89.5 567.93,-86 557.93,-82.5 557.93,-89.5"/>
</g>
<!-- Node7 -->
<g id="node7" class="node">
<title>Node7</title>
<g id="a_node7"><a xlink:href="exif-mem_8c.html#a43190b81b4b4bdb4ffb89bfb612051b1" target="_top" xlink:title=" ">
<polygon fill="white" stroke="black" points="436.5,-38.5 436.5,-57.5 527.5,-57.5 527.5,-38.5 436.5,-38.5"/>
<text text-anchor="middle" x="482" y="-45.5" font-family="Helvetica,sans-Serif" font-size="10.00">exif_mem_free</text>
</a>
</g>
</g>
<!-- Node6&#45;&gt;Node7 -->
<g id="edge6" class="edge">
<title>Node6&#45;&gt;Node7</title>
<path fill="none" stroke="midnightblue" d="M396.2,-48C405.98,-48 416.28,-48 426.21,-48"/>
<polygon fill="midnightblue" stroke="midnightblue" points="426.39,-51.5 436.39,-48 426.39,-44.5 426.39,-51.5"/>
</g>
<!-- Node9 -->
<g id="node9" class="node">
<title>Node9</title>
<g id="a_node9"><a xlink:href="exif-log_8c.html#a99101b5ad01b2d82ce9d43c9e8534627" target="_top" xlink:title=" ">
<polygon fill="white" stroke="black" points="451,-0.5 451,-19.5 513,-19.5 513,-0.5 451,-0.5"/>
<text text-anchor="middle" x="482" y="-7.5" font-family="Helvetica,sans-Serif" font-size="10.00">exif_logv</text>
</a>
</g>
</g>
<!-- Node8&#45;&gt;Node9 -->
<g id="edge8" class="edge">
<title>Node8&#45;&gt;Node9</title>
<path fill="none" stroke="midnightblue" d="M373.72,-10C392.85,-10 418.77,-10 440.35,-10"/>
<polygon fill="midnightblue" stroke="midnightblue" points="440.54,-13.5 450.54,-10 440.54,-6.5 440.54,-13.5"/>
</g>
</g>
</svg>
