<?xml version="1.0" encoding="UTF-8" standalone="no"?>
<!DOCTYPE svg PUBLIC "-//W3C//DTD SVG 1.1//EN"
 "http://www.w3.org/Graphics/SVG/1.1/DTD/svg11.dtd">
<!-- Generated by graphviz version 2.44.1 (0)
 -->
<!-- Title: exif_mnote_data_olympus_new Pages: 1 -->
<svg width="1016pt" height="984pt"
 viewBox="0.00 0.00 1016.00 983.50" xmlns="http://www.w3.org/2000/svg" xmlns:xlink="http://www.w3.org/1999/xlink">
<g id="graph0" class="graph" transform="scale(1 1) rotate(0) translate(4 979.5)">
<title>exif_mnote_data_olympus_new</title>
<polygon fill="white" stroke="transparent" points="-4,4 -4,-979.5 1012,-979.5 1012,4 -4,4"/>
<!-- Node1 -->
<g id="node1" class="node">
<title>Node1</title>
<g id="a_node1"><a xlink:title=" ">
<polygon fill="#bfbfbf" stroke="black" points="0,-540 0,-559 172,-559 172,-540 0,-540"/>
<text text-anchor="middle" x="86" y="-547" font-family="Helvetica,sans-Serif" font-size="10.00">exif_mnote_data_olympus_new</text>
</a>
</g>
</g>
<!-- Node2 -->
<g id="node2" class="node">
<title>Node2</title>
<g id="a_node2"><a xlink:href="exif-mem_8c.html#ae8c09cfbcb95e435c4c4b7ec3bbd79e4" target="_top" xlink:title=" ">
<polygon fill="white" stroke="black" points="456.5,-918 456.5,-937 551.5,-937 551.5,-918 456.5,-918"/>
<text text-anchor="middle" x="504" y="-925" font-family="Helvetica,sans-Serif" font-size="10.00">exif_mem_alloc</text>
</a>
</g>
</g>
<!-- Node1&#45;&gt;Node2 -->
<g id="edge1" class="edge">
<title>Node1&#45;&gt;Node2</title>
<path fill="none" stroke="midnightblue" d="M87.42,-559.26C89.86,-603.23 106.02,-784.5 208,-870.5 217.1,-878.18 363.36,-903.91 446.44,-918.03"/>
<polygon fill="midnightblue" stroke="midnightblue" points="446.05,-921.51 456.49,-919.73 447.22,-914.61 446.05,-921.51"/>
</g>
<!-- Node3 -->
<g id="node3" class="node">
<title>Node3</title>
<g id="a_node3"><a xlink:href="exif-mnote-data-priv_8h.html#a06db5604f65a97b1c5ea3fcc4bfec7dc" target="_top" xlink:title=" ">
<polygon fill="white" stroke="black" points="221,-918 221,-937 370,-937 370,-918 221,-918"/>
<text text-anchor="middle" x="295.5" y="-925" font-family="Helvetica,sans-Serif" font-size="10.00">exif_mnote_data_construct</text>
</a>
</g>
</g>
<!-- Node1&#45;&gt;Node3 -->
<g id="edge2" class="edge">
<title>Node1&#45;&gt;Node3</title>
<path fill="none" stroke="midnightblue" d="M87.21,-559.1C88.72,-604.88 101.44,-803.02 208,-903.5 212.29,-907.54 217.19,-910.91 222.44,-913.72"/>
<polygon fill="midnightblue" stroke="midnightblue" points="221.01,-916.92 231.55,-917.94 223.95,-910.56 221.01,-916.92"/>
</g>
<!-- Node5 -->
<g id="node5" class="node">
<title>Node5</title>
<g id="a_node5"><a xlink:href="exif-mnote-data-olympus_8c.html#a1bfa54d5a44ce710589abed129b911d8" target="_top" xlink:title=" ">
<polygon fill="white" stroke="black" points="222.5,-446.5 222.5,-476.5 368.5,-476.5 368.5,-446.5 222.5,-446.5"/>
<text text-anchor="start" x="230.5" y="-464.5" font-family="Helvetica,sans-Serif" font-size="10.00">exif_mnote_data_olympus</text>
<text text-anchor="middle" x="295.5" y="-453.5" font-family="Helvetica,sans-Serif" font-size="10.00">_count</text>
</a>
</g>
</g>
<!-- Node1&#45;&gt;Node5 -->
<g id="edge5" class="edge">
<title>Node1&#45;&gt;Node5</title>
<path fill="none" stroke="midnightblue" d="M102.95,-539.88C125.65,-526.5 168.86,-502.16 208,-486.5 213.9,-484.14 220.12,-481.89 226.39,-479.79"/>
<polygon fill="midnightblue" stroke="midnightblue" points="227.82,-483.01 236.27,-476.61 225.67,-476.35 227.82,-483.01"/>
</g>
<!-- Node6 -->
<g id="node6" class="node">
<title>Node6</title>
<g id="a_node6"><a xlink:href="exif-mnote-data-olympus_8c.html#a4868c6e4138f9c8ad8ddae9cc268f8e7" target="_top" xlink:title=" ">
<polygon fill="white" stroke="black" points="210,-842 210,-861 381,-861 381,-842 210,-842"/>
<text text-anchor="middle" x="295.5" y="-849" font-family="Helvetica,sans-Serif" font-size="10.00">exif_mnote_data_olympus_free</text>
</a>
</g>
</g>
<!-- Node1&#45;&gt;Node6 -->
<g id="edge6" class="edge">
<title>Node1&#45;&gt;Node6</title>
<path fill="none" stroke="midnightblue" d="M88,-559.15C92.73,-599.59 116.62,-756.86 208,-832.5 210.02,-834.17 212.16,-835.71 214.38,-837.11"/>
<polygon fill="midnightblue" stroke="midnightblue" points="212.9,-840.29 223.37,-841.93 216.21,-834.12 212.9,-840.29"/>
</g>
<!-- Node9 -->
<g id="node9" class="node">
<title>Node9</title>
<g id="a_node9"><a xlink:href="exif-mnote-data-olympus_8c.html#ad20e5efd2e38ef32ffbf1ed59301c4ec" target="_top" xlink:title=" ">
<polygon fill="white" stroke="black" points="222.5,-397.5 222.5,-427.5 368.5,-427.5 368.5,-397.5 222.5,-397.5"/>
<text text-anchor="start" x="230.5" y="-415.5" font-family="Helvetica,sans-Serif" font-size="10.00">exif_mnote_data_olympus</text>
<text text-anchor="middle" x="295.5" y="-404.5" font-family="Helvetica,sans-Serif" font-size="10.00">_get_description</text>
</a>
</g>
</g>
<!-- Node1&#45;&gt;Node9 -->
<g id="edge9" class="edge">
<title>Node1&#45;&gt;Node9</title>
<path fill="none" stroke="midnightblue" d="M94.68,-539.81C112.34,-518.18 158.15,-465.65 208,-437.5 211.93,-435.28 216.08,-433.24 220.35,-431.37"/>
<polygon fill="midnightblue" stroke="midnightblue" points="221.87,-434.53 229.83,-427.55 219.25,-428.04 221.87,-434.53"/>
</g>
<!-- Node11 -->
<g id="node11" class="node">
<title>Node11</title>
<g id="a_node11"><a xlink:href="exif-mnote-data-olympus_8c.html#ac3e52fa6d3b1e2cf3c6a7c56ff0694c9" target="_top" xlink:title=" ">
<polygon fill="white" stroke="black" points="222.5,-348.5 222.5,-378.5 368.5,-378.5 368.5,-348.5 222.5,-348.5"/>
<text text-anchor="start" x="230.5" y="-366.5" font-family="Helvetica,sans-Serif" font-size="10.00">exif_mnote_data_olympus</text>
<text text-anchor="middle" x="295.5" y="-355.5" font-family="Helvetica,sans-Serif" font-size="10.00">_get_id</text>
</a>
</g>
</g>
<!-- Node1&#45;&gt;Node11 -->
<g id="edge11" class="edge">
<title>Node1&#45;&gt;Node11</title>
<path fill="none" stroke="midnightblue" d="M91.46,-539.81C104.86,-511.82 147.56,-430.19 208,-388.5 210.92,-386.49 214,-384.63 217.19,-382.93"/>
<polygon fill="midnightblue" stroke="midnightblue" points="218.93,-385.98 226.44,-378.5 215.9,-379.66 218.93,-385.98"/>
</g>
<!-- Node12 -->
<g id="node12" class="node">
<title>Node12</title>
<g id="a_node12"><a xlink:href="exif-mnote-data-olympus_8c.html#a0f2f5f30e5f41ff48057894f32cd6db4" target="_top" xlink:title=" ">
<polygon fill="white" stroke="black" points="222.5,-792.5 222.5,-822.5 368.5,-822.5 368.5,-792.5 222.5,-792.5"/>
<text text-anchor="start" x="230.5" y="-810.5" font-family="Helvetica,sans-Serif" font-size="10.00">exif_mnote_data_olympus</text>
<text text-anchor="middle" x="295.5" y="-799.5" font-family="Helvetica,sans-Serif" font-size="10.00">_get_name</text>
</a>
</g>
</g>
<!-- Node1&#45;&gt;Node12 -->
<g id="edge12" class="edge">
<title>Node1&#45;&gt;Node12</title>
<path fill="none" stroke="midnightblue" d="M89.13,-559.21C97.44,-594.84 131.15,-719.51 208,-782.5 210.06,-784.19 212.23,-785.77 214.49,-787.24"/>
<polygon fill="midnightblue" stroke="midnightblue" points="213.15,-790.5 223.57,-792.39 216.61,-784.41 213.15,-790.5"/>
</g>
<!-- Node14 -->
<g id="node14" class="node">
<title>Node14</title>
<g id="a_node14"><a xlink:href="exif-mnote-data-olympus_8c.html#a59e02c1592f8629e8c2d4a2ee835fc42" target="_top" xlink:title=" ">
<polygon fill="white" stroke="black" points="222.5,-299.5 222.5,-329.5 368.5,-329.5 368.5,-299.5 222.5,-299.5"/>
<text text-anchor="start" x="230.5" y="-317.5" font-family="Helvetica,sans-Serif" font-size="10.00">exif_mnote_data_olympus</text>
<text text-anchor="middle" x="295.5" y="-306.5" font-family="Helvetica,sans-Serif" font-size="10.00">_get_title</text>
</a>
</g>
</g>
<!-- Node1&#45;&gt;Node14 -->
<g id="edge14" class="edge">
<title>Node1&#45;&gt;Node14</title>
<path fill="none" stroke="midnightblue" d="M89.7,-539.83C99.5,-506.52 136.46,-395.56 208,-339.5 210.31,-337.69 212.74,-336.01 215.27,-334.46"/>
<polygon fill="midnightblue" stroke="midnightblue" points="217.06,-337.47 224.19,-329.62 213.73,-331.31 217.06,-337.47"/>
</g>
<!-- Node16 -->
<g id="node16" class="node">
<title>Node16</title>
<g id="a_node16"><a xlink:href="exif-mnote-data-olympus_8c.html#ab208837124e0e2627b4da08b0640a964" target="_top" xlink:title=" ">
<polygon fill="white" stroke="black" points="222.5,-583.5 222.5,-613.5 368.5,-613.5 368.5,-583.5 222.5,-583.5"/>
<text text-anchor="start" x="230.5" y="-601.5" font-family="Helvetica,sans-Serif" font-size="10.00">exif_mnote_data_olympus</text>
<text text-anchor="middle" x="295.5" y="-590.5" font-family="Helvetica,sans-Serif" font-size="10.00">_get_value</text>
</a>
</g>
</g>
<!-- Node1&#45;&gt;Node16 -->
<g id="edge16" class="edge">
<title>Node1&#45;&gt;Node16</title>
<path fill="none" stroke="midnightblue" d="M127.5,-559.06C154,-565.32 189.4,-573.68 220.79,-581.09"/>
<polygon fill="midnightblue" stroke="midnightblue" points="220.29,-584.57 230.82,-583.46 221.9,-577.76 220.29,-584.57"/>
</g>
<!-- Node24 -->
<g id="node24" class="node">
<title>Node24</title>
<g id="a_node24"><a xlink:href="exif-mnote-data-olympus_8c.html#a51652cef97d613c60f506d939dad2958" target="_top" xlink:title=" ">
<polygon fill="white" stroke="black" points="209,-754 209,-773 382,-773 382,-754 209,-754"/>
<text text-anchor="middle" x="295.5" y="-761" font-family="Helvetica,sans-Serif" font-size="10.00">exif_mnote_data_olympus_load</text>
</a>
</g>
</g>
<!-- Node1&#45;&gt;Node24 -->
<g id="edge28" class="edge">
<title>Node1&#45;&gt;Node24</title>
<path fill="none" stroke="midnightblue" d="M96.46,-559.25C128.93,-592.74 236.19,-703.37 277.8,-746.28"/>
<polygon fill="midnightblue" stroke="midnightblue" points="275.52,-748.95 284.99,-753.69 280.54,-744.08 275.52,-748.95"/>
</g>
<!-- Node29 -->
<g id="node29" class="node">
<title>Node29</title>
<g id="a_node29"><a xlink:href="exif-mnote-data-olympus_8c.html#a96ff3434fcdfe32ec3fa865ba56035e8" target="_top" xlink:title="save the MnoteData from ne to buf">
<polygon fill="white" stroke="black" points="208,-496 208,-515 383,-515 383,-496 208,-496"/>
<text text-anchor="middle" x="295.5" y="-503" font-family="Helvetica,sans-Serif" font-size="10.00">exif_mnote_data_olympus_save</text>
</a>
</g>
</g>
<!-- Node1&#45;&gt;Node29 -->
<g id="edge38" class="edge">
<title>Node1&#45;&gt;Node29</title>
<path fill="none" stroke="midnightblue" d="M132.02,-539.95C163.57,-533.26 205.91,-524.29 239.46,-517.17"/>
<polygon fill="midnightblue" stroke="midnightblue" points="240.51,-520.53 249.56,-515.03 239.05,-513.68 240.51,-520.53"/>
</g>
<!-- Node35 -->
<g id="node35" class="node">
<title>Node35</title>
<g id="a_node35"><a xlink:href="exif-mnote-data-olympus_8c.html#aa4b1f2f306f5cb10cd5282b5c9aa6aae" target="_top" xlink:title=" ">
<polygon fill="white" stroke="black" points="222.5,-534.5 222.5,-564.5 368.5,-564.5 368.5,-534.5 222.5,-534.5"/>
<text text-anchor="start" x="230.5" y="-552.5" font-family="Helvetica,sans-Serif" font-size="10.00">exif_mnote_data_olympus</text>
<text text-anchor="middle" x="295.5" y="-541.5" font-family="Helvetica,sans-Serif" font-size="10.00">_set_byte_order</text>
</a>
</g>
</g>
<!-- Node1&#45;&gt;Node35 -->
<g id="edge46" class="edge">
<title>Node1&#45;&gt;Node35</title>
<path fill="none" stroke="midnightblue" d="M172.3,-549.5C185.44,-549.5 198.99,-549.5 212.07,-549.5"/>
<polygon fill="midnightblue" stroke="midnightblue" points="212.44,-553 222.44,-549.5 212.44,-546 212.44,-553"/>
</g>
<!-- Node39 -->
<g id="node39" class="node">
<title>Node39</title>
<g id="a_node39"><a xlink:href="exif-mnote-data-olympus_8c.html#a11b2dd84a3a62db75052aeaafc4e9f7b" target="_top" xlink:title=" ">
<polygon fill="white" stroke="black" points="222.5,-250.5 222.5,-280.5 368.5,-280.5 368.5,-250.5 222.5,-250.5"/>
<text text-anchor="start" x="230.5" y="-268.5" font-family="Helvetica,sans-Serif" font-size="10.00">exif_mnote_data_olympus</text>
<text text-anchor="middle" x="295.5" y="-257.5" font-family="Helvetica,sans-Serif" font-size="10.00">_set_offset</text>
</a>
</g>
</g>
<!-- Node1&#45;&gt;Node39 -->
<g id="edge64" class="edge">
<title>Node1&#45;&gt;Node39</title>
<path fill="none" stroke="midnightblue" d="M88.58,-539.79C95.3,-501.74 125.02,-361.47 208,-290.5 209.97,-288.81 212.06,-287.24 214.23,-285.77"/>
<polygon fill="midnightblue" stroke="midnightblue" points="216.14,-288.7 222.97,-280.61 212.58,-282.67 216.14,-288.7"/>
</g>
<!-- Node3&#45;&gt;Node2 -->
<g id="edge3" class="edge">
<title>Node3&#45;&gt;Node2</title>
<path fill="none" stroke="midnightblue" d="M370.18,-927.5C395.2,-927.5 422.75,-927.5 446.25,-927.5"/>
<polygon fill="midnightblue" stroke="midnightblue" points="446.39,-931 456.39,-927.5 446.39,-924 446.39,-931"/>
</g>
<!-- Node4 -->
<g id="node4" class="node">
<title>Node4</title>
<g id="a_node4"><a xlink:href="exif-mem_8c.html#af28c61972f529be46907956e0b3e7a60" target="_top" xlink:title="Refcount an ExifMem.">
<polygon fill="white" stroke="black" points="461.5,-956 461.5,-975 546.5,-975 546.5,-956 461.5,-956"/>
<text text-anchor="middle" x="504" y="-963" font-family="Helvetica,sans-Serif" font-size="10.00">exif_mem_ref</text>
</a>
</g>
</g>
<!-- Node3&#45;&gt;Node4 -->
<g id="edge4" class="edge">
<title>Node3&#45;&gt;Node4</title>
<path fill="none" stroke="midnightblue" d="M348.34,-937.04C379.82,-942.83 419.86,-950.2 451.31,-955.99"/>
<polygon fill="midnightblue" stroke="midnightblue" points="450.73,-959.44 461.2,-957.81 452,-952.56 450.73,-959.44"/>
</g>
<!-- Node7 -->
<g id="node7" class="node">
<title>Node7</title>
<g id="a_node7"><a xlink:href="exif-mnote-data-olympus_8c.html#abbf48c8c4866eb54430bb8db5f8a83c2" target="_top" xlink:title=" ">
<polygon fill="white" stroke="black" points="431,-868.5 431,-898.5 577,-898.5 577,-868.5 431,-868.5"/>
<text text-anchor="start" x="439" y="-886.5" font-family="Helvetica,sans-Serif" font-size="10.00">exif_mnote_data_olympus</text>
<text text-anchor="middle" x="504" y="-875.5" font-family="Helvetica,sans-Serif" font-size="10.00">_clear</text>
</a>
</g>
</g>
<!-- Node6&#45;&gt;Node7 -->
<g id="edge7" class="edge">
<title>Node6&#45;&gt;Node7</title>
<path fill="none" stroke="midnightblue" d="M357.9,-861.01C377.71,-864.08 399.99,-867.54 421.04,-870.8"/>
<polygon fill="midnightblue" stroke="midnightblue" points="420.51,-874.26 430.93,-872.33 421.58,-867.34 420.51,-874.26"/>
</g>
<!-- Node8 -->
<g id="node8" class="node">
<title>Node8</title>
<g id="a_node8"><a xlink:href="exif-mem_8c.html#a43190b81b4b4bdb4ffb89bfb612051b1" target="_top" xlink:title=" ">
<polygon fill="white" stroke="black" points="639,-874 639,-893 730,-893 730,-874 639,-874"/>
<text text-anchor="middle" x="684.5" y="-881" font-family="Helvetica,sans-Serif" font-size="10.00">exif_mem_free</text>
</a>
</g>
</g>
<!-- Node7&#45;&gt;Node8 -->
<g id="edge8" class="edge">
<title>Node7&#45;&gt;Node8</title>
<path fill="none" stroke="midnightblue" d="M577.09,-883.5C594.23,-883.5 612.26,-883.5 628.49,-883.5"/>
<polygon fill="midnightblue" stroke="midnightblue" points="628.88,-887 638.88,-883.5 628.88,-880 628.88,-887"/>
</g>
<!-- Node10 -->
<g id="node10" class="node">
<title>Node10</title>
<g id="a_node10"><a xlink:href="mnote-olympus-tag_8c.html#a9ccf27b95e59d54cc780ab4d81e78ec5" target="_top" xlink:title="Return a verbose textual description of the given tag within the Olympus&#45;style MakerNote.">
<polygon fill="white" stroke="black" points="435.5,-49.5 435.5,-79.5 572.5,-79.5 572.5,-49.5 435.5,-49.5"/>
<text text-anchor="start" x="443.5" y="-67.5" font-family="Helvetica,sans-Serif" font-size="10.00">mnote_olympus_tag_get</text>
<text text-anchor="middle" x="504" y="-56.5" font-family="Helvetica,sans-Serif" font-size="10.00">_description</text>
</a>
</g>
</g>
<!-- Node9&#45;&gt;Node10 -->
<g id="edge10" class="edge">
<title>Node9&#45;&gt;Node10</title>
<path fill="none" stroke="midnightblue" d="M368.64,-400.16C374.02,-397.06 378.93,-393.22 383,-388.5 468.91,-288.75 336.76,-197.29 419,-94.5 421.85,-90.93 425.16,-87.79 428.79,-85.02"/>
<polygon fill="midnightblue" stroke="midnightblue" points="430.72,-87.94 437.16,-79.54 426.88,-82.09 430.72,-87.94"/>
</g>
<!-- Node13 -->
<g id="node13" class="node">
<title>Node13</title>
<g id="a_node13"><a xlink:href="mnote-olympus-tag_8c.html#a8cec7b3e56cc000ece3544ba2c87c67d" target="_top" xlink:title="Return a textual name of the given tag within the Olympus&#45;style MakerNote.">
<polygon fill="white" stroke="black" points="419,-830 419,-849 589,-849 589,-830 419,-830"/>
<text text-anchor="middle" x="504" y="-837" font-family="Helvetica,sans-Serif" font-size="10.00">mnote_olympus_tag_get_name</text>
</a>
</g>
</g>
<!-- Node12&#45;&gt;Node13 -->
<g id="edge13" class="edge">
<title>Node12&#45;&gt;Node13</title>
<path fill="none" stroke="midnightblue" d="M368.72,-818.69C389.02,-821.84 411.08,-825.26 431.35,-828.4"/>
<polygon fill="midnightblue" stroke="midnightblue" points="431.03,-831.89 441.45,-829.96 432.1,-824.97 431.03,-831.89"/>
</g>
<!-- Node15 -->
<g id="node15" class="node">
<title>Node15</title>
<g id="a_node15"><a xlink:href="mnote-olympus-tag_8c.html#a8127c365ca03c71eac9af757e68a575f" target="_top" xlink:title="Return a textual title of the given tag within the Olympus&#45;style MakerNote.">
<polygon fill="white" stroke="black" points="435.5,-0.5 435.5,-30.5 572.5,-30.5 572.5,-0.5 435.5,-0.5"/>
<text text-anchor="start" x="443.5" y="-18.5" font-family="Helvetica,sans-Serif" font-size="10.00">mnote_olympus_tag_get</text>
<text text-anchor="middle" x="504" y="-7.5" font-family="Helvetica,sans-Serif" font-size="10.00">_title</text>
</a>
</g>
</g>
<!-- Node14&#45;&gt;Node15 -->
<g id="edge15" class="edge">
<title>Node14&#45;&gt;Node15</title>
<path fill="none" stroke="midnightblue" d="M368.53,-302.07C373.94,-298.99 378.88,-295.18 383,-290.5 457.42,-205.87 344.9,-124.41 419,-39.5 421.37,-36.79 424.01,-34.38 426.87,-32.23"/>
<polygon fill="midnightblue" stroke="midnightblue" points="428.82,-35.13 435.42,-26.84 425.09,-29.21 428.82,-35.13"/>
</g>
<!-- Node17 -->
<g id="node17" class="node">
<title>Node17</title>
<g id="a_node17"><a xlink:href="mnote-olympus-entry_8c.html#ac037be3986826d7e73f647376e19a220" target="_top" xlink:title=" ">
<polygon fill="white" stroke="black" points="441,-578.5 441,-608.5 567,-608.5 567,-578.5 441,-578.5"/>
<text text-anchor="start" x="449" y="-596.5" font-family="Helvetica,sans-Serif" font-size="10.00">mnote_olympus_entry</text>
<text text-anchor="middle" x="504" y="-585.5" font-family="Helvetica,sans-Serif" font-size="10.00">_get_value</text>
</a>
</g>
</g>
<!-- Node16&#45;&gt;Node17 -->
<g id="edge17" class="edge">
<title>Node16&#45;&gt;Node17</title>
<path fill="none" stroke="midnightblue" d="M368.72,-596.75C388.82,-596.26 410.65,-595.74 430.75,-595.25"/>
<polygon fill="midnightblue" stroke="midnightblue" points="430.86,-598.75 440.77,-595.01 430.69,-591.75 430.86,-598.75"/>
</g>
<!-- Node18 -->
<g id="node18" class="node">
<title>Node18</title>
<g id="a_node18"><a xlink:href="exif-utils_8c.html#a4ad94614630897766dd0a5c9bc2a59bf" target="_top" xlink:title="Retrieve an ExifLong value from memory.">
<polygon fill="white" stroke="black" points="790.5,-707 790.5,-726 873.5,-726 873.5,-707 790.5,-707"/>
<text text-anchor="middle" x="832" y="-714" font-family="Helvetica,sans-Serif" font-size="10.00">exif_get_long</text>
</a>
</g>
</g>
<!-- Node17&#45;&gt;Node18 -->
<g id="edge18" class="edge">
<title>Node17&#45;&gt;Node18</title>
<path fill="none" stroke="midnightblue" d="M524.15,-608.73C541.26,-622.41 566.96,-643.1 589,-661.5 605.21,-675.03 605.66,-684.02 625,-692.5 674.65,-714.28 737.17,-718.74 780.23,-718.72"/>
<polygon fill="midnightblue" stroke="midnightblue" points="780.5,-722.22 790.47,-718.63 780.44,-715.22 780.5,-722.22"/>
</g>
<!-- Node19 -->
<g id="node19" class="node">
<title>Node19</title>
<g id="a_node19"><a xlink:href="exif-utils_8c.html#a56b96f076a13da6ed926e1ef29cb2dc3" target="_top" xlink:title="Retrieve an ExifSLong value from memory.">
<polygon fill="white" stroke="black" points="920,-593 920,-612 1008,-612 1008,-593 920,-593"/>
<text text-anchor="middle" x="964" y="-600" font-family="Helvetica,sans-Serif" font-size="10.00">exif_get_slong</text>
</a>
</g>
</g>
<!-- Node17&#45;&gt;Node19 -->
<g id="edge24" class="edge">
<title>Node17&#45;&gt;Node19</title>
<path fill="none" stroke="midnightblue" d="M536.74,-608.63C560.45,-619.06 593.98,-631.99 625,-637.5 730.03,-656.15 855.33,-630.99 919.85,-614.61"/>
<polygon fill="midnightblue" stroke="midnightblue" points="920.87,-617.96 929.67,-612.06 919.12,-611.18 920.87,-617.96"/>
</g>
<!-- Node20 -->
<g id="node20" class="node">
<title>Node20</title>
<g id="a_node20"><a xlink:href="exif-utils_8c.html#a1feb547c289aa57a4d2119338b03706c" target="_top" xlink:title="Retrieve an ExifRational value from memory.">
<polygon fill="white" stroke="black" points="635,-517 635,-536 734,-536 734,-517 635,-517"/>
<text text-anchor="middle" x="684.5" y="-524" font-family="Helvetica,sans-Serif" font-size="10.00">exif_get_rational</text>
</a>
</g>
</g>
<!-- Node17&#45;&gt;Node20 -->
<g id="edge20" class="edge">
<title>Node17&#45;&gt;Node20</title>
<path fill="none" stroke="midnightblue" d="M540.73,-578.48C564.47,-568.69 596.41,-555.85 625,-545.5 630.72,-543.43 636.8,-541.34 642.79,-539.34"/>
<polygon fill="midnightblue" stroke="midnightblue" points="644.3,-542.53 652.7,-536.08 642.11,-535.88 644.3,-542.53"/>
</g>
<!-- Node21 -->
<g id="node21" class="node">
<title>Node21</title>
<g id="a_node21"><a xlink:href="exif-utils_8c.html#a4b4acf537a8c6b9405e7b53be868e4d7" target="_top" xlink:title="Retrieve an ExifShort value from memory.">
<polygon fill="white" stroke="black" points="641.5,-593 641.5,-612 727.5,-612 727.5,-593 641.5,-593"/>
<text text-anchor="middle" x="684.5" y="-600" font-family="Helvetica,sans-Serif" font-size="10.00">exif_get_short</text>
</a>
</g>
</g>
<!-- Node17&#45;&gt;Node21 -->
<g id="edge22" class="edge">
<title>Node17&#45;&gt;Node21</title>
<path fill="none" stroke="midnightblue" d="M567.18,-596.64C588.09,-597.69 611.18,-598.85 631.24,-599.87"/>
<polygon fill="midnightblue" stroke="midnightblue" points="631.27,-603.37 641.43,-600.38 631.62,-596.38 631.27,-603.37"/>
</g>
<!-- Node22 -->
<g id="node22" class="node">
<title>Node22</title>
<g id="a_node22"><a xlink:href="exif-utils_8c.html#a6baf094a71392f9cea23ad633ec13c8b" target="_top" xlink:title="Retrieve an ExifSShort value from memory.">
<polygon fill="white" stroke="black" points="786,-593 786,-612 878,-612 878,-593 786,-593"/>
<text text-anchor="middle" x="832" y="-600" font-family="Helvetica,sans-Serif" font-size="10.00">exif_get_sshort</text>
</a>
</g>
</g>
<!-- Node17&#45;&gt;Node22 -->
<g id="edge27" class="edge">
<title>Node17&#45;&gt;Node22</title>
<path fill="none" stroke="midnightblue" d="M557.71,-608.55C578.49,-613.76 602.68,-618.93 625,-621.5 677.54,-627.55 691.42,-627.18 744,-621.5 757.72,-620.02 772.45,-617.26 785.81,-614.3"/>
<polygon fill="midnightblue" stroke="midnightblue" points="786.77,-617.67 795.73,-612.01 785.2,-610.85 786.77,-617.67"/>
</g>
<!-- Node23 -->
<g id="node23" class="node">
<title>Node23</title>
<g id="a_node23"><a xlink:href="exif-utils_8c.html#adb97c3499488d5642a82df1cb16dc2cb" target="_top" xlink:title="Retrieve an ExifSRational value from memory.">
<polygon fill="white" stroke="black" points="632.5,-479 632.5,-498 736.5,-498 736.5,-479 632.5,-479"/>
<text text-anchor="middle" x="684.5" y="-486" font-family="Helvetica,sans-Serif" font-size="10.00">exif_get_srational</text>
</a>
</g>
</g>
<!-- Node17&#45;&gt;Node23 -->
<g id="edge25" class="edge">
<title>Node17&#45;&gt;Node23</title>
<path fill="none" stroke="midnightblue" d="M522.57,-578.22C545.01,-559.37 585.65,-527.38 625,-507.5 629.3,-505.33 633.9,-503.33 638.57,-501.51"/>
<polygon fill="midnightblue" stroke="midnightblue" points="639.94,-504.74 648.15,-498.04 637.55,-498.16 639.94,-504.74"/>
</g>
<!-- Node18&#45;&gt;Node19 -->
<g id="edge19" class="edge">
<title>Node18&#45;&gt;Node19</title>
<path fill="none" stroke="midnightblue" d="M858.54,-706.95C867.07,-703.13 876.34,-698.27 884,-692.5 911.53,-671.78 936.53,-640.16 950.73,-620.44"/>
<polygon fill="midnightblue" stroke="midnightblue" points="953.74,-622.25 956.64,-612.06 948.02,-618.22 953.74,-622.25"/>
</g>
<!-- Node20&#45;&gt;Node18 -->
<g id="edge21" class="edge">
<title>Node20&#45;&gt;Node18</title>
<path fill="none" stroke="midnightblue" d="M728.9,-536.07C734.37,-538.53 739.59,-541.62 744,-545.5 772.07,-570.18 763.16,-588.14 780,-621.5 793.58,-648.39 810.24,-679.02 820.74,-698.06"/>
<polygon fill="midnightblue" stroke="midnightblue" points="817.72,-699.82 825.63,-706.87 823.84,-696.43 817.72,-699.82"/>
</g>
<!-- Node21&#45;&gt;Node22 -->
<g id="edge23" class="edge">
<title>Node21&#45;&gt;Node22</title>
<path fill="none" stroke="midnightblue" d="M727.58,-602.5C742.59,-602.5 759.73,-602.5 775.69,-602.5"/>
<polygon fill="midnightblue" stroke="midnightblue" points="775.96,-606 785.96,-602.5 775.96,-599 775.96,-606"/>
</g>
<!-- Node23&#45;&gt;Node19 -->
<g id="edge26" class="edge">
<title>Node23&#45;&gt;Node19</title>
<path fill="none" stroke="midnightblue" d="M716.66,-498.01C725.55,-500.89 735.21,-504.18 744,-507.5 812.9,-533.57 891.7,-569.23 933.44,-588.6"/>
<polygon fill="midnightblue" stroke="midnightblue" points="932.19,-591.89 942.74,-592.94 935.15,-585.54 932.19,-591.89"/>
</g>
<!-- Node24&#45;&gt;Node2 -->
<g id="edge34" class="edge">
<title>Node24&#45;&gt;Node2</title>
<path fill="none" stroke="midnightblue" d="M367.77,-773.13C373.34,-775.85 378.53,-779.26 383,-783.5 424.95,-823.28 376.95,-868.82 419,-908.5 426.58,-915.65 436.26,-920.32 446.34,-923.32"/>
<polygon fill="midnightblue" stroke="midnightblue" points="445.52,-926.73 456.07,-925.72 447.19,-919.93 445.52,-926.73"/>
</g>
<!-- Node24&#45;&gt;Node7 -->
<g id="edge35" class="edge">
<title>Node24&#45;&gt;Node7</title>
<path fill="none" stroke="midnightblue" d="M364.89,-773.03C371.4,-775.73 377.59,-779.16 383,-783.5 411.86,-806.61 390.87,-834.5 419,-858.5 420.98,-860.18 423.06,-861.76 425.23,-863.22"/>
<polygon fill="midnightblue" stroke="midnightblue" points="423.59,-866.32 433.99,-868.37 427.14,-860.28 423.59,-866.32"/>
</g>
<!-- Node24&#45;&gt;Node13 -->
<g id="edge37" class="edge">
<title>Node24&#45;&gt;Node13</title>
<path fill="none" stroke="midnightblue" d="M357.71,-773.01C366.51,-775.68 375.21,-779.11 383,-783.5 402.99,-794.76 398.98,-809.28 419,-820.5 423,-822.74 427.24,-824.72 431.61,-826.46"/>
<polygon fill="midnightblue" stroke="midnightblue" points="430.76,-829.87 441.35,-829.91 433.1,-823.27 430.76,-829.87"/>
</g>
<!-- Node24&#45;&gt;Node18 -->
<g id="edge30" class="edge">
<title>Node24&#45;&gt;Node18</title>
<path fill="none" stroke="midnightblue" d="M308.8,-753.83C329.9,-737.93 374.97,-706.9 419,-695.5 492.14,-676.56 516.48,-674.31 589,-695.5 607.22,-700.82 606.78,-713.18 625,-718.5 675.77,-733.33 691.11,-719.11 744,-718.5 755.68,-718.37 768.25,-718.13 780.1,-717.87"/>
<polygon fill="midnightblue" stroke="midnightblue" points="780.37,-721.36 790.28,-717.63 780.21,-714.36 780.37,-721.36"/>
</g>
<!-- Node24&#45;&gt;Node21 -->
<g id="edge31" class="edge">
<title>Node24&#45;&gt;Node21</title>
<path fill="none" stroke="midnightblue" d="M304.94,-753.89C323.44,-733.47 369.82,-685.67 419,-661.5 455.82,-643.4 565.25,-622.57 631.25,-611.14"/>
<polygon fill="midnightblue" stroke="midnightblue" points="632.19,-614.53 641.46,-609.39 631.01,-607.63 632.19,-614.53"/>
</g>
<!-- Node25 -->
<g id="node25" class="node">
<title>Node25</title>
<g id="a_node25"><a xlink:href="exif-format_8c.html#a924038efe0cd8ebade8f44619dd794f3" target="_top" xlink:title="Return the raw size of the given EXIF data type.">
<polygon fill="white" stroke="black" points="625,-555 625,-574 744,-574 744,-555 625,-555"/>
<text text-anchor="middle" x="684.5" y="-562" font-family="Helvetica,sans-Serif" font-size="10.00">exif_format_get_size</text>
</a>
</g>
</g>
<!-- Node24&#45;&gt;Node25 -->
<g id="edge29" class="edge">
<title>Node24&#45;&gt;Node25</title>
<path fill="none" stroke="midnightblue" d="M382.08,-768.9C457.15,-771.71 558.89,-770.27 589,-744.5 644.71,-696.83 575.65,-637.73 625,-583.5 626.21,-582.17 627.52,-580.93 628.9,-579.78"/>
<polygon fill="midnightblue" stroke="midnightblue" points="631.1,-582.52 637.52,-574.09 627.24,-576.68 631.1,-582.52"/>
</g>
<!-- Node26 -->
<g id="node26" class="node">
<title>Node26</title>
<g id="a_node26"><a xlink:href="exif-log_8c.html#a025d4a5d96544913ea6f6ebbec69cb68" target="_top" xlink:title=" ">
<polygon fill="white" stroke="black" points="476,-792 476,-811 532,-811 532,-792 476,-792"/>
<text text-anchor="middle" x="504" y="-799" font-family="Helvetica,sans-Serif" font-size="10.00">exif_log</text>
</a>
</g>
</g>
<!-- Node24&#45;&gt;Node26 -->
<g id="edge32" class="edge">
<title>Node24&#45;&gt;Node26</title>
<path fill="none" stroke="midnightblue" d="M348.34,-773.04C384.89,-779.77 432.97,-788.61 465.76,-794.65"/>
<polygon fill="midnightblue" stroke="midnightblue" points="465.36,-798.13 475.83,-796.5 466.63,-791.25 465.36,-798.13"/>
</g>
<!-- Node28 -->
<g id="node28" class="node">
<title>Node28</title>
<g id="a_node28"><a xlink:href="exif-mnote-data-olympus_8c.html#a2c0a03d9462fd2a2f2f0a3f7e017a858" target="_top" xlink:title=" ">
<polygon fill="white" stroke="black" points="431,-704.5 431,-734.5 577,-734.5 577,-704.5 431,-704.5"/>
<text text-anchor="start" x="439" y="-722.5" font-family="Helvetica,sans-Serif" font-size="10.00">exif_mnote_data_olympus</text>
<text text-anchor="middle" x="504" y="-711.5" font-family="Helvetica,sans-Serif" font-size="10.00">_identify_variant</text>
</a>
</g>
</g>
<!-- Node24&#45;&gt;Node28 -->
<g id="edge36" class="edge">
<title>Node24&#45;&gt;Node28</title>
<path fill="none" stroke="midnightblue" d="M341.31,-753.95C364.97,-748.91 394.74,-742.57 422.27,-736.7"/>
<polygon fill="midnightblue" stroke="midnightblue" points="423.24,-740.07 432.3,-734.57 421.79,-733.23 423.24,-740.07"/>
</g>
<!-- Node27 -->
<g id="node27" class="node">
<title>Node27</title>
<g id="a_node27"><a xlink:href="exif-log_8c.html#a99101b5ad01b2d82ce9d43c9e8534627" target="_top" xlink:title=" ">
<polygon fill="white" stroke="black" points="653.5,-792 653.5,-811 715.5,-811 715.5,-792 653.5,-792"/>
<text text-anchor="middle" x="684.5" y="-799" font-family="Helvetica,sans-Serif" font-size="10.00">exif_logv</text>
</a>
</g>
</g>
<!-- Node26&#45;&gt;Node27 -->
<g id="edge33" class="edge">
<title>Node26&#45;&gt;Node27</title>
<path fill="none" stroke="midnightblue" d="M532.11,-801.5C561.72,-801.5 609.44,-801.5 643.39,-801.5"/>
<polygon fill="midnightblue" stroke="midnightblue" points="643.45,-805 653.45,-801.5 643.45,-798 643.45,-805"/>
</g>
<!-- Node29&#45;&gt;Node2 -->
<g id="edge40" class="edge">
<title>Node29&#45;&gt;Node2</title>
<path fill="none" stroke="midnightblue" d="M370.26,-515.17C375.01,-517.93 379.35,-521.32 383,-525.5 439.28,-589.85 362.57,-844.29 419,-908.5 426.11,-916.59 435.86,-921.63 446.21,-924.69"/>
<polygon fill="midnightblue" stroke="midnightblue" points="445.71,-928.17 456.24,-927.07 447.32,-921.36 445.71,-928.17"/>
</g>
<!-- Node29&#45;&gt;Node25 -->
<g id="edge39" class="edge">
<title>Node29&#45;&gt;Node25</title>
<path fill="none" stroke="midnightblue" d="M360.72,-515.01C419.99,-523.82 510.46,-537.36 589,-549.5 597.32,-550.79 606.05,-552.15 614.7,-553.51"/>
<polygon fill="midnightblue" stroke="midnightblue" points="614.36,-557 624.78,-555.1 615.45,-550.09 614.36,-557"/>
</g>
<!-- Node30 -->
<g id="node30" class="node">
<title>Node30</title>
<g id="a_node30"><a xlink:href="exif-mem_8c.html#a3dcfe6794d82e79e92da5e2c62484b17" target="_top" xlink:title=" ">
<polygon fill="white" stroke="black" points="452,-359 452,-378 556,-378 556,-359 452,-359"/>
<text text-anchor="middle" x="504" y="-366" font-family="Helvetica,sans-Serif" font-size="10.00">exif_mem_realloc</text>
</a>
</g>
</g>
<!-- Node29&#45;&gt;Node30 -->
<g id="edge41" class="edge">
<title>Node29&#45;&gt;Node30</title>
<path fill="none" stroke="midnightblue" d="M368.27,-495.99C373.6,-493.46 378.6,-490.34 383,-486.5 417.96,-455.99 384.31,-419.31 419,-388.5 425.6,-382.64 433.6,-378.42 442.01,-375.39"/>
<polygon fill="midnightblue" stroke="midnightblue" points="443.09,-378.72 451.63,-372.46 441.05,-372.03 443.09,-378.72"/>
</g>
<!-- Node31 -->
<g id="node31" class="node">
<title>Node31</title>
<g id="a_node31"><a xlink:href="exif-utils_8c.html#ac90147d0cc97bec7a577bf9576191bf8" target="_top" xlink:title="Store an ExifLong value into memory in EXIF format.">
<polygon fill="white" stroke="black" points="791,-194 791,-213 873,-213 873,-194 791,-194"/>
<text text-anchor="middle" x="832" y="-201" font-family="Helvetica,sans-Serif" font-size="10.00">exif_set_long</text>
</a>
</g>
</g>
<!-- Node29&#45;&gt;Node31 -->
<g id="edge42" class="edge">
<title>Node29&#45;&gt;Node31</title>
<path fill="none" stroke="midnightblue" d="M371.3,-495.92C375.62,-493.36 379.59,-490.26 383,-486.5 473.81,-386.37 330.92,-287.03 419,-184.5 514.56,-73.26 606.7,-75.98 744,-127.5 774.96,-139.12 802.13,-167.3 817.55,-185.89"/>
<polygon fill="midnightblue" stroke="midnightblue" points="814.98,-188.27 823.96,-193.89 820.44,-183.9 814.98,-188.27"/>
</g>
<!-- Node33 -->
<g id="node33" class="node">
<title>Node33</title>
<g id="a_node33"><a xlink:href="exif-utils_8c.html#ad905d16e26b4052a1db34dbebdc37341" target="_top" xlink:title="Store an ExifShort value into memory in EXIF format.">
<polygon fill="white" stroke="black" points="641.5,-137 641.5,-156 727.5,-156 727.5,-137 641.5,-137"/>
<text text-anchor="middle" x="684.5" y="-144" font-family="Helvetica,sans-Serif" font-size="10.00">exif_set_short</text>
</a>
</g>
</g>
<!-- Node29&#45;&gt;Node33 -->
<g id="edge44" class="edge">
<title>Node29&#45;&gt;Node33</title>
<path fill="none" stroke="midnightblue" d="M369.91,-495.8C374.68,-493.29 379.12,-490.23 383,-486.5 428.41,-442.9 386.13,-403.19 419,-349.5 483.1,-244.8 518.56,-226.66 625,-165.5 628.7,-163.38 632.67,-161.45 636.73,-159.72"/>
<polygon fill="midnightblue" stroke="midnightblue" points="638.24,-162.88 646.3,-156.01 635.71,-156.36 638.24,-162.88"/>
</g>
<!-- Node32 -->
<g id="node32" class="node">
<title>Node32</title>
<g id="a_node32"><a xlink:href="exif-utils_8c.html#ae6e3b9d1663f9ab9bd462d73a310ca03" target="_top" xlink:title="Store an ExifSLong value into memory in EXIF format.">
<polygon fill="white" stroke="black" points="920.5,-289 920.5,-308 1007.5,-308 1007.5,-289 920.5,-289"/>
<text text-anchor="middle" x="964" y="-296" font-family="Helvetica,sans-Serif" font-size="10.00">exif_set_slong</text>
</a>
</g>
</g>
<!-- Node31&#45;&gt;Node32 -->
<g id="edge43" class="edge">
<title>Node31&#45;&gt;Node32</title>
<path fill="none" stroke="midnightblue" d="M851.9,-213.2C861.73,-218.5 873.79,-225.42 884,-232.5 906.05,-247.8 929.42,-267.86 944.97,-281.84"/>
<polygon fill="midnightblue" stroke="midnightblue" points="942.99,-284.77 952.75,-288.9 947.7,-279.59 942.99,-284.77"/>
</g>
<!-- Node34 -->
<g id="node34" class="node">
<title>Node34</title>
<g id="a_node34"><a xlink:href="exif-utils_8c.html#a6504651147702fc6db9a5cd4aa997023" target="_top" xlink:title="Store an ExifSShort value into memory in EXIF format.">
<polygon fill="white" stroke="black" points="786.5,-242 786.5,-261 877.5,-261 877.5,-242 786.5,-242"/>
<text text-anchor="middle" x="832" y="-249" font-family="Helvetica,sans-Serif" font-size="10.00">exif_set_sshort</text>
</a>
</g>
</g>
<!-- Node33&#45;&gt;Node34 -->
<g id="edge45" class="edge">
<title>Node33&#45;&gt;Node34</title>
<path fill="none" stroke="midnightblue" d="M727.27,-156.07C733.24,-158.54 739.03,-161.63 744,-165.5 767.66,-183.89 758.33,-201.81 780,-222.5 785.85,-228.09 792.99,-233 800.04,-237.12"/>
<polygon fill="midnightblue" stroke="midnightblue" points="798.37,-240.2 808.83,-241.9 801.72,-234.05 798.37,-240.2"/>
</g>
<!-- Node35&#45;&gt;Node25 -->
<g id="edge63" class="edge">
<title>Node35&#45;&gt;Node25</title>
<path fill="none" stroke="midnightblue" d="M368.84,-552.3C439.17,-555.03 545.24,-559.14 614.44,-561.82"/>
<polygon fill="midnightblue" stroke="midnightblue" points="614.67,-565.33 624.8,-562.22 614.94,-558.34 614.67,-565.33"/>
</g>
<!-- Node36 -->
<g id="node36" class="node">
<title>Node36</title>
<g id="a_node36"><a xlink:href="exif-utils_8c.html#a54ef3b86ffeb643e9c4434b85ccf2992" target="_top" xlink:title=" ">
<polygon fill="white" stroke="black" points="447.5,-397.5 447.5,-427.5 560.5,-427.5 560.5,-397.5 447.5,-397.5"/>
<text text-anchor="start" x="455.5" y="-415.5" font-family="Helvetica,sans-Serif" font-size="10.00">exif_array_set_byte</text>
<text text-anchor="middle" x="504" y="-404.5" font-family="Helvetica,sans-Serif" font-size="10.00">_order</text>
</a>
</g>
</g>
<!-- Node35&#45;&gt;Node36 -->
<g id="edge47" class="edge">
<title>Node35&#45;&gt;Node36</title>
<path fill="none" stroke="midnightblue" d="M361.18,-534.48C368.76,-531.66 376.2,-528.36 383,-524.5 424.37,-501.02 462.82,-460.54 484.56,-435.21"/>
<polygon fill="midnightblue" stroke="midnightblue" points="487.24,-437.46 491.01,-427.56 481.89,-432.95 487.24,-437.46"/>
</g>
<!-- Node36&#45;&gt;Node18 -->
<g id="edge49" class="edge">
<title>Node36&#45;&gt;Node18</title>
<path fill="none" stroke="midnightblue" d="M560.54,-422.58C627,-435.13 731,-456.48 744,-469.5 793.05,-518.63 755.37,-556.59 780,-621.5 790.63,-649.52 807.91,-679.65 819.37,-698.29"/>
<polygon fill="midnightblue" stroke="midnightblue" points="816.49,-700.29 824.76,-706.92 822.43,-696.58 816.49,-700.29"/>
</g>
<!-- Node36&#45;&gt;Node19 -->
<g id="edge52" class="edge">
<title>Node36&#45;&gt;Node19</title>
<path fill="none" stroke="midnightblue" d="M558.53,-397.41C608.19,-386.16 683.34,-376.2 744,-398.5 842.84,-434.83 922.44,-541.5 951.32,-584.36"/>
<polygon fill="midnightblue" stroke="midnightblue" points="948.55,-586.52 956.98,-592.93 954.39,-582.66 948.55,-586.52"/>
</g>
<!-- Node36&#45;&gt;Node20 -->
<g id="edge50" class="edge">
<title>Node36&#45;&gt;Node20</title>
<path fill="none" stroke="midnightblue" d="M520.39,-427.71C542.05,-448.38 583.54,-485.29 625,-507.5 628.97,-509.63 633.23,-511.57 637.56,-513.33"/>
<polygon fill="midnightblue" stroke="midnightblue" points="636.5,-516.67 647.09,-516.9 638.95,-510.12 636.5,-516.67"/>
</g>
<!-- Node36&#45;&gt;Node21 -->
<g id="edge51" class="edge">
<title>Node36&#45;&gt;Node21</title>
<path fill="none" stroke="midnightblue" d="M511.45,-427.53C526.44,-460.67 566.81,-540.5 625,-583.5 627.62,-585.44 630.44,-587.18 633.39,-588.75"/>
<polygon fill="midnightblue" stroke="midnightblue" points="631.95,-591.94 642.5,-592.96 634.89,-585.59 631.95,-591.94"/>
</g>
<!-- Node36&#45;&gt;Node22 -->
<g id="edge54" class="edge">
<title>Node36&#45;&gt;Node22</title>
<path fill="none" stroke="midnightblue" d="M560.74,-404C612.64,-399.13 689.92,-399.97 744,-436.5 795.58,-471.34 818.65,-546.8 827.02,-582.72"/>
<polygon fill="midnightblue" stroke="midnightblue" points="823.69,-583.87 829.24,-592.9 830.53,-582.38 823.69,-583.87"/>
</g>
<!-- Node36&#45;&gt;Node23 -->
<g id="edge53" class="edge">
<title>Node36&#45;&gt;Node23</title>
<path fill="none" stroke="midnightblue" d="M539.32,-427.58C563.28,-438.06 596.02,-452.28 625,-464.5 633.22,-467.96 642.11,-471.65 650.42,-475.06"/>
<polygon fill="midnightblue" stroke="midnightblue" points="649.25,-478.36 659.83,-478.91 651.9,-471.89 649.25,-478.36"/>
</g>
<!-- Node36&#45;&gt;Node25 -->
<g id="edge48" class="edge">
<title>Node36&#45;&gt;Node25</title>
<path fill="none" stroke="midnightblue" d="M522.32,-427.68C539.98,-443.54 567.71,-469.53 589,-494.5 607,-515.61 602.66,-529.04 625,-545.5 627.62,-547.43 630.45,-549.17 633.4,-550.74"/>
<polygon fill="midnightblue" stroke="midnightblue" points="631.96,-553.94 642.51,-554.95 634.9,-547.58 631.96,-553.94"/>
</g>
<!-- Node36&#45;&gt;Node31 -->
<g id="edge55" class="edge">
<title>Node36&#45;&gt;Node31</title>
<path fill="none" stroke="midnightblue" d="M560.64,-404.75C571.2,-401.02 581.33,-395.53 589,-387.5 634.86,-339.48 576.75,-288.11 625,-242.5 646.99,-221.71 727.33,-211.47 780.93,-206.85"/>
<polygon fill="midnightblue" stroke="midnightblue" points="781.26,-210.34 790.94,-206.03 780.69,-203.36 781.26,-210.34"/>
</g>
<!-- Node36&#45;&gt;Node32 -->
<g id="edge59" class="edge">
<title>Node36&#45;&gt;Node32</title>
<path fill="none" stroke="midnightblue" d="M560.75,-398.94C570.4,-395.75 580.17,-391.95 589,-387.5 606.86,-378.51 606.61,-368.36 625,-360.5 732.29,-314.63 769.65,-340.71 884,-317.5 894.37,-315.39 905.45,-312.89 915.93,-310.4"/>
<polygon fill="midnightblue" stroke="midnightblue" points="916.85,-313.78 925.75,-308.04 915.21,-306.98 916.85,-313.78"/>
</g>
<!-- Node36&#45;&gt;Node33 -->
<g id="edge58" class="edge">
<title>Node36&#45;&gt;Node33</title>
<path fill="none" stroke="midnightblue" d="M560.73,-405.38C571.41,-401.61 581.57,-395.96 589,-387.5 655,-312.43 559.94,-241.38 625,-165.5 627.19,-162.95 629.73,-160.73 632.49,-158.82"/>
<polygon fill="midnightblue" stroke="midnightblue" points="634.3,-161.81 641.35,-153.91 630.91,-155.69 634.3,-161.81"/>
</g>
<!-- Node36&#45;&gt;Node34 -->
<g id="edge62" class="edge">
<title>Node36&#45;&gt;Node34</title>
<path fill="none" stroke="midnightblue" d="M560.92,-403.85C571.21,-400.17 581.16,-394.93 589,-387.5 623.58,-354.71 588.5,-317.14 625,-286.5 666.85,-251.37 730.75,-245.46 776.28,-246.55"/>
<polygon fill="midnightblue" stroke="midnightblue" points="776.16,-250.05 786.28,-246.91 776.41,-243.05 776.16,-250.05"/>
</g>
<!-- Node37 -->
<g id="node37" class="node">
<title>Node37</title>
<g id="a_node37"><a xlink:href="exif-utils_8c.html#a400a16b1754150f721e9fca67ad89a52" target="_top" xlink:title="Store an ExifRational value into memory in EXIF format.">
<polygon fill="white" stroke="black" points="635.5,-175 635.5,-194 733.5,-194 733.5,-175 635.5,-175"/>
<text text-anchor="middle" x="684.5" y="-182" font-family="Helvetica,sans-Serif" font-size="10.00">exif_set_rational</text>
</a>
</g>
</g>
<!-- Node36&#45;&gt;Node37 -->
<g id="edge56" class="edge">
<title>Node36&#45;&gt;Node37</title>
<path fill="none" stroke="midnightblue" d="M560.92,-405.01C571.46,-401.26 581.51,-395.7 589,-387.5 643.72,-327.57 573.35,-271.09 625,-208.5 628.11,-204.73 631.91,-201.54 636.06,-198.86"/>
<polygon fill="midnightblue" stroke="midnightblue" points="637.87,-201.86 644.98,-194 634.52,-195.71 637.87,-201.86"/>
</g>
<!-- Node38 -->
<g id="node38" class="node">
<title>Node38</title>
<g id="a_node38"><a xlink:href="exif-utils_8c.html#aca1790a72b1833dff1b0bf728052c3c5" target="_top" xlink:title="Store an ExifSRational value into memory in EXIF format.">
<polygon fill="white" stroke="black" points="780,-289 780,-308 884,-308 884,-289 780,-289"/>
<text text-anchor="middle" x="832" y="-296" font-family="Helvetica,sans-Serif" font-size="10.00">exif_set_srational</text>
</a>
</g>
</g>
<!-- Node36&#45;&gt;Node38 -->
<g id="edge60" class="edge">
<title>Node36&#45;&gt;Node38</title>
<path fill="none" stroke="midnightblue" d="M560.88,-402.5C570.94,-398.93 580.82,-394.08 589,-387.5 614.74,-366.81 597.57,-340.89 625,-322.5 667.23,-294.2 725.53,-289.81 769.34,-291.57"/>
<polygon fill="midnightblue" stroke="midnightblue" points="769.41,-295.08 779.58,-292.11 769.77,-288.09 769.41,-295.08"/>
</g>
<!-- Node37&#45;&gt;Node31 -->
<g id="edge57" class="edge">
<title>Node37&#45;&gt;Node31</title>
<path fill="none" stroke="midnightblue" d="M733.55,-190.77C748.61,-192.74 765.28,-194.92 780.51,-196.91"/>
<polygon fill="midnightblue" stroke="midnightblue" points="780.41,-200.42 790.78,-198.25 781.32,-193.48 780.41,-200.42"/>
</g>
<!-- Node38&#45;&gt;Node32 -->
<g id="edge61" class="edge">
<title>Node38&#45;&gt;Node32</title>
<path fill="none" stroke="midnightblue" d="M884.01,-298.5C892.5,-298.5 901.33,-298.5 909.88,-298.5"/>
<polygon fill="midnightblue" stroke="midnightblue" points="910.12,-302 920.12,-298.5 910.12,-295 910.12,-302"/>
</g>
</g>
</svg>
