<?xml version="1.0" encoding="UTF-8" standalone="no"?>
<!DOCTYPE svg PUBLIC "-//W3C//DTD SVG 1.1//EN"
 "http://www.w3.org/Graphics/SVG/1.1/DTD/svg11.dtd">
<!-- Generated by graphviz version 2.44.1 (0)
 -->
<!-- Title: exif_loader_new Pages: 1 -->
<svg width="439pt" height="256pt"
 viewBox="0.00 0.00 439.00 256.00" xmlns="http://www.w3.org/2000/svg" xmlns:xlink="http://www.w3.org/1999/xlink">
<g id="graph0" class="graph" transform="scale(1 1) rotate(0) translate(4 252)">
<title>exif_loader_new</title>
<polygon fill="white" stroke="transparent" points="-4,4 -4,-252 435,-252 435,4 -4,4"/>
<!-- Node1 -->
<g id="node1" class="node">
<title>Node1</title>
<g id="a_node1"><a xlink:title="Allocate a new ExifLoader.">
<polygon fill="#bfbfbf" stroke="black" points="0,-95.5 0,-114.5 97,-114.5 97,-95.5 0,-95.5"/>
<text text-anchor="middle" x="48.5" y="-102.5" font-family="Helvetica,sans-Serif" font-size="10.00">exif_loader_new</text>
</a>
</g>
</g>
<!-- Node2 -->
<g id="node2" class="node">
<title>Node2</title>
<g id="a_node2"><a xlink:href="exif-loader_8c.html#a95c8505132b2465c1078b0842285bfc7" target="_top" xlink:title="Allocate a new ExifLoader using the specified memory allocator.">
<polygon fill="white" stroke="black" points="134.5,-190.5 134.5,-209.5 262.5,-209.5 262.5,-190.5 134.5,-190.5"/>
<text text-anchor="middle" x="198.5" y="-197.5" font-family="Helvetica,sans-Serif" font-size="10.00">exif_loader_new_mem</text>
</a>
</g>
</g>
<!-- Node1&#45;&gt;Node2 -->
<g id="edge1" class="edge">
<title>Node1&#45;&gt;Node2</title>
<path fill="none" stroke="midnightblue" d="M64.51,-114.63C90.21,-131.13 142.87,-164.94 173.66,-184.7"/>
<polygon fill="midnightblue" stroke="midnightblue" points="172.15,-187.89 182.45,-190.34 175.93,-182 172.15,-187.89"/>
</g>
<!-- Node5 -->
<g id="node5" class="node">
<title>Node5</title>
<g id="a_node5"><a xlink:href="exif-mem_8c.html#acd2926c29b470c9d43f84567a84d5acb" target="_top" xlink:title="Create a new ExifMem with default values for your convenience.">
<polygon fill="white" stroke="black" points="133,-95.5 133,-114.5 264,-114.5 264,-95.5 133,-95.5"/>
<text text-anchor="middle" x="198.5" y="-102.5" font-family="Helvetica,sans-Serif" font-size="10.00">exif_mem_new_default</text>
</a>
</g>
</g>
<!-- Node1&#45;&gt;Node5 -->
<g id="edge4" class="edge">
<title>Node1&#45;&gt;Node5</title>
<path fill="none" stroke="midnightblue" d="M97.14,-105C105.34,-105 114.04,-105 122.75,-105"/>
<polygon fill="midnightblue" stroke="midnightblue" points="122.95,-108.5 132.95,-105 122.95,-101.5 122.95,-108.5"/>
</g>
<!-- Node10 -->
<g id="node10" class="node">
<title>Node10</title>
<g id="a_node10"><a xlink:href="exif-mem_8c.html#a66744e0987af08c443df247ce55f7d87" target="_top" xlink:title="Unrefcount an ExifMem.">
<polygon fill="white" stroke="black" points="150,-19.5 150,-38.5 247,-38.5 247,-19.5 150,-19.5"/>
<text text-anchor="middle" x="198.5" y="-26.5" font-family="Helvetica,sans-Serif" font-size="10.00">exif_mem_unref</text>
</a>
</g>
</g>
<!-- Node1&#45;&gt;Node10 -->
<g id="edge9" class="edge">
<title>Node1&#45;&gt;Node10</title>
<path fill="none" stroke="midnightblue" d="M68.24,-95.37C93.93,-82.18 140.26,-58.39 169.91,-43.17"/>
<polygon fill="midnightblue" stroke="midnightblue" points="171.61,-46.23 178.91,-38.55 168.41,-40 171.61,-46.23"/>
</g>
<!-- Node3 -->
<g id="node3" class="node">
<title>Node3</title>
<g id="a_node3"><a xlink:href="exif-mem_8c.html#ae8c09cfbcb95e435c4c4b7ec3bbd79e4" target="_top" xlink:title=" ">
<polygon fill="white" stroke="black" points="318,-228.5 318,-247.5 413,-247.5 413,-228.5 318,-228.5"/>
<text text-anchor="middle" x="365.5" y="-235.5" font-family="Helvetica,sans-Serif" font-size="10.00">exif_mem_alloc</text>
</a>
</g>
</g>
<!-- Node2&#45;&gt;Node3 -->
<g id="edge2" class="edge">
<title>Node2&#45;&gt;Node3</title>
<path fill="none" stroke="midnightblue" d="M241.14,-209.59C263.01,-214.63 290.01,-220.84 313.16,-226.18"/>
<polygon fill="midnightblue" stroke="midnightblue" points="312.63,-229.65 323.16,-228.48 314.2,-222.82 312.63,-229.65"/>
</g>
<!-- Node4 -->
<g id="node4" class="node">
<title>Node4</title>
<g id="a_node4"><a xlink:href="exif-mem_8c.html#af28c61972f529be46907956e0b3e7a60" target="_top" xlink:title="Refcount an ExifMem.">
<polygon fill="white" stroke="black" points="323,-190.5 323,-209.5 408,-209.5 408,-190.5 323,-190.5"/>
<text text-anchor="middle" x="365.5" y="-197.5" font-family="Helvetica,sans-Serif" font-size="10.00">exif_mem_ref</text>
</a>
</g>
</g>
<!-- Node2&#45;&gt;Node4 -->
<g id="edge3" class="edge">
<title>Node2&#45;&gt;Node4</title>
<path fill="none" stroke="midnightblue" d="M262.82,-200C279.22,-200 296.69,-200 312.44,-200"/>
<polygon fill="midnightblue" stroke="midnightblue" points="312.52,-203.5 322.52,-200 312.52,-196.5 312.52,-203.5"/>
</g>
<!-- Node6 -->
<g id="node6" class="node">
<title>Node6</title>
<g id="a_node6"><a xlink:href="exif-mem_8c.html#ae96feb62e763070ed3d70ca66f15feaa" target="_top" xlink:title="Default memory allocation function.">
<polygon fill="white" stroke="black" points="305,-152.5 305,-171.5 426,-171.5 426,-152.5 305,-152.5"/>
<text text-anchor="middle" x="365.5" y="-159.5" font-family="Helvetica,sans-Serif" font-size="10.00">exif_mem_alloc_func</text>
</a>
</g>
</g>
<!-- Node5&#45;&gt;Node6 -->
<g id="edge5" class="edge">
<title>Node5&#45;&gt;Node6</title>
<path fill="none" stroke="midnightblue" d="M223.28,-114.57C243.53,-122.58 273.48,-134.09 300,-143 306.54,-145.2 313.5,-147.39 320.34,-149.47"/>
<polygon fill="midnightblue" stroke="midnightblue" points="319.62,-152.91 330.21,-152.42 321.63,-146.2 319.62,-152.91"/>
</g>
<!-- Node7 -->
<g id="node7" class="node">
<title>Node7</title>
<g id="a_node7"><a xlink:href="exif-mem_8c.html#a30e654456ffed5baaf5a23f1d8817aa6" target="_top" xlink:title="Default memory free function.">
<polygon fill="white" stroke="black" points="307,-114.5 307,-133.5 424,-133.5 424,-114.5 307,-114.5"/>
<text text-anchor="middle" x="365.5" y="-121.5" font-family="Helvetica,sans-Serif" font-size="10.00">exif_mem_free_func</text>
</a>
</g>
</g>
<!-- Node5&#45;&gt;Node7 -->
<g id="edge6" class="edge">
<title>Node5&#45;&gt;Node7</title>
<path fill="none" stroke="midnightblue" d="M264.24,-112.45C274.91,-113.68 286,-114.96 296.75,-116.2"/>
<polygon fill="midnightblue" stroke="midnightblue" points="296.58,-119.7 306.92,-117.37 297.38,-112.75 296.58,-119.7"/>
</g>
<!-- Node8 -->
<g id="node8" class="node">
<title>Node8</title>
<g id="a_node8"><a xlink:href="exif-mem_8c.html#a5db78241cb6c1752209e8e28f295ea41" target="_top" xlink:title="Create a new ExifMem.">
<polygon fill="white" stroke="black" points="319.5,-76.5 319.5,-95.5 411.5,-95.5 411.5,-76.5 319.5,-76.5"/>
<text text-anchor="middle" x="365.5" y="-83.5" font-family="Helvetica,sans-Serif" font-size="10.00">exif_mem_new</text>
</a>
</g>
</g>
<!-- Node5&#45;&gt;Node8 -->
<g id="edge7" class="edge">
<title>Node5&#45;&gt;Node8</title>
<path fill="none" stroke="midnightblue" d="M264.24,-97.55C279.06,-95.84 294.68,-94.04 309.07,-92.38"/>
<polygon fill="midnightblue" stroke="midnightblue" points="309.77,-95.83 319.3,-91.2 308.97,-88.87 309.77,-95.83"/>
</g>
<!-- Node9 -->
<g id="node9" class="node">
<title>Node9</title>
<g id="a_node9"><a xlink:href="exif-mem_8c.html#ace345dfcefc8f8a8aa04a7f47ab419c9" target="_top" xlink:title="Default memory reallocation function.">
<polygon fill="white" stroke="black" points="300,-38.5 300,-57.5 431,-57.5 431,-38.5 300,-38.5"/>
<text text-anchor="middle" x="365.5" y="-45.5" font-family="Helvetica,sans-Serif" font-size="10.00">exif_mem_realloc_func</text>
</a>
</g>
</g>
<!-- Node5&#45;&gt;Node9 -->
<g id="edge8" class="edge">
<title>Node5&#45;&gt;Node9</title>
<path fill="none" stroke="midnightblue" d="M223.28,-95.43C243.53,-87.42 273.48,-75.91 300,-67 306.54,-64.8 313.5,-62.61 320.34,-60.53"/>
<polygon fill="midnightblue" stroke="midnightblue" points="321.63,-63.8 330.21,-57.58 319.62,-57.09 321.63,-63.8"/>
</g>
<!-- Node11 -->
<g id="node11" class="node">
<title>Node11</title>
<g id="a_node11"><a xlink:href="exif-mem_8c.html#a43190b81b4b4bdb4ffb89bfb612051b1" target="_top" xlink:title=" ">
<polygon fill="white" stroke="black" points="320,-0.5 320,-19.5 411,-19.5 411,-0.5 320,-0.5"/>
<text text-anchor="middle" x="365.5" y="-7.5" font-family="Helvetica,sans-Serif" font-size="10.00">exif_mem_free</text>
</a>
</g>
</g>
<!-- Node10&#45;&gt;Node11 -->
<g id="edge10" class="edge">
<title>Node10&#45;&gt;Node11</title>
<path fill="none" stroke="midnightblue" d="M247.22,-23.5C266.85,-21.24 289.68,-18.62 309.96,-16.28"/>
<polygon fill="midnightblue" stroke="midnightblue" points="310.46,-19.75 319.99,-15.13 309.66,-12.79 310.46,-19.75"/>
</g>
</g>
</svg>
