<?xml version="1.0" encoding="UTF-8" standalone="no"?>
<!DOCTYPE svg PUBLIC "-//W3C//DTD SVG 1.1//EN"
 "http://www.w3.org/Graphics/SVG/1.1/DTD/svg11.dtd">
<!-- Generated by graphviz version 7.0.1 (0)
 -->
<!-- Title: entry_set_byte_order Pages: 1 -->
<svg width="696pt" height="473pt"
 viewBox="0.00 0.00 696.00 473.00" xmlns="http://www.w3.org/2000/svg" xmlns:xlink="http://www.w3.org/1999/xlink">
<g id="graph0" class="graph" transform="scale(1 1) rotate(0) translate(4 469)">
<title>entry_set_byte_order</title>
<!-- Node1 -->
<g id="Node000001" class="node">
<title>Node1</title>
<g id="a_Node000001"><a xlink:title=" ">
<polygon fill="#999999" stroke="#666666" points="120,-237 0,-237 0,-218 120,-218 120,-237"/>
<text text-anchor="middle" x="60" y="-225" font-family="Helvetica,sans-Serif" font-size="10.00">entry_set_byte_order</text>
</a>
</g>
</g>
<!-- Node2 -->
<g id="Node000002" class="node">
<title>Node2</title>
<g id="a_Node000002"><a xlink:href="exif-utils_8c.html#a54ef3b86ffeb643e9c4434b85ccf2992" target="_top" xlink:title=" ">
<polygon fill="white" stroke="#666666" points="269,-242.5 156,-242.5 156,-212.5 269,-212.5 269,-242.5"/>
<text text-anchor="start" x="164" y="-230.5" font-family="Helvetica,sans-Serif" font-size="10.00">exif_array_set_byte</text>
<text text-anchor="middle" x="212.5" y="-219.5" font-family="Helvetica,sans-Serif" font-size="10.00">_order</text>
</a>
</g>
</g>
<!-- Node1&#45;&gt;Node2 -->
<g id="edge1_Node000001_Node000002" class="edge">
<title>Node1&#45;&gt;Node2</title>
<g id="a_edge1_Node000001_Node000002"><a xlink:title=" ">
<path fill="none" stroke="#63b8ff" d="M120.48,-227.5C128.41,-227.5 136.59,-227.5 144.63,-227.5"/>
<polygon fill="#63b8ff" stroke="#63b8ff" points="144.37,-231 154.37,-227.5 144.37,-224 144.37,-231"/>
</a>
</g>
</g>
<!-- Node3 -->
<g id="Node000003" class="node">
<title>Node3</title>
<g id="a_Node000003"><a xlink:href="exif-format_8c.html#a924038efe0cd8ebade8f44619dd794f3" target="_top" xlink:title="Return the raw size of the given EXIF data type.">
<polygon fill="white" stroke="#666666" points="424,-465 305,-465 305,-446 424,-446 424,-465"/>
<text text-anchor="middle" x="364.5" y="-453" font-family="Helvetica,sans-Serif" font-size="10.00">exif_format_get_size</text>
</a>
</g>
</g>
<!-- Node2&#45;&gt;Node3 -->
<g id="edge2_Node000002_Node000003" class="edge">
<title>Node2&#45;&gt;Node3</title>
<g id="a_edge2_Node000002_Node000003"><a xlink:title=" ">
<path fill="none" stroke="#63b8ff" d="M216.31,-242.79C223.9,-280.06 248.25,-376.55 305,-431.5 308.6,-434.99 312.78,-437.99 317.22,-440.58"/>
<polygon fill="#63b8ff" stroke="#63b8ff" points="315.35,-443.56 325.86,-444.92 318.49,-437.3 315.35,-443.56"/>
</a>
</g>
</g>
<!-- Node4 -->
<g id="Node000004" class="node">
<title>Node4</title>
<g id="a_Node000004"><a xlink:href="exif-utils_8c.html#a4ad94614630897766dd0a5c9bc2a59bf" target="_top" xlink:title="Retrieve an ExifLong value from memory.">
<polygon fill="white" stroke="#666666" points="553.5,-389 470.5,-389 470.5,-370 553.5,-370 553.5,-389"/>
<text text-anchor="middle" x="512" y="-377" font-family="Helvetica,sans-Serif" font-size="10.00">exif_get_long</text>
</a>
</g>
</g>
<!-- Node2&#45;&gt;Node4 -->
<g id="edge3_Node000002_Node000004" class="edge">
<title>Node2&#45;&gt;Node4</title>
<g id="a_edge3_Node000002_Node000004"><a xlink:title=" ">
<path fill="none" stroke="#63b8ff" d="M216.32,-242.97C223.65,-278.14 246.94,-363.72 305,-398.5 359.02,-430.86 435.67,-409.98 478.62,-393.61"/>
<polygon fill="#63b8ff" stroke="#63b8ff" points="479.88,-396.88 487.88,-389.93 477.29,-390.37 479.88,-396.88"/>
</a>
</g>
</g>
<!-- Node5 -->
<g id="Node000005" class="node">
<title>Node5</title>
<g id="a_Node000005"><a xlink:href="exif-utils_8c.html#a56b96f076a13da6ed926e1ef29cb2dc3" target="_top" xlink:title="Retrieve an ExifSLong value from memory.">
<polygon fill="white" stroke="#666666" points="688,-351 600,-351 600,-332 688,-332 688,-351"/>
<text text-anchor="middle" x="644" y="-339" font-family="Helvetica,sans-Serif" font-size="10.00">exif_get_slong</text>
</a>
</g>
</g>
<!-- Node2&#45;&gt;Node5 -->
<g id="edge9_Node000002_Node000005" class="edge">
<title>Node2&#45;&gt;Node5</title>
<g id="a_edge9_Node000002_Node000005"><a xlink:title=" ">
<path fill="none" stroke="#63b8ff" d="M222.76,-242.73C237.19,-264.88 267.33,-305.22 305,-322.5 397.35,-364.87 519.11,-358.68 588.44,-350.19"/>
<polygon fill="#63b8ff" stroke="#63b8ff" points="588.55,-353.71 598.02,-348.96 587.65,-346.77 588.55,-353.71"/>
</a>
</g>
</g>
<!-- Node6 -->
<g id="Node000006" class="node">
<title>Node6</title>
<g id="a_Node000006"><a xlink:href="exif-utils_8c.html#a1feb547c289aa57a4d2119338b03706c" target="_top" xlink:title="Retrieve an ExifRational value from memory.">
<polygon fill="white" stroke="#666666" points="414,-389 315,-389 315,-370 414,-370 414,-389"/>
<text text-anchor="middle" x="364.5" y="-377" font-family="Helvetica,sans-Serif" font-size="10.00">exif_get_rational</text>
</a>
</g>
</g>
<!-- Node2&#45;&gt;Node6 -->
<g id="edge5_Node000002_Node000006" class="edge">
<title>Node2&#45;&gt;Node6</title>
<g id="a_edge5_Node000002_Node000006"><a xlink:title=" ">
<path fill="none" stroke="#63b8ff" d="M220.7,-242.63C233.94,-268.96 264.53,-323.45 305,-355.5 309.51,-359.07 314.63,-362.19 319.91,-364.88"/>
<polygon fill="#63b8ff" stroke="#63b8ff" points="318.23,-367.96 328.78,-368.93 321.14,-361.6 318.23,-367.96"/>
</a>
</g>
</g>
<!-- Node7 -->
<g id="Node000007" class="node">
<title>Node7</title>
<g id="a_Node000007"><a xlink:href="exif-utils_8c.html#a4b4acf537a8c6b9405e7b53be868e4d7" target="_top" xlink:title="Retrieve an ExifShort value from memory.">
<polygon fill="white" stroke="#666666" points="407.5,-313 321.5,-313 321.5,-294 407.5,-294 407.5,-313"/>
<text text-anchor="middle" x="364.5" y="-301" font-family="Helvetica,sans-Serif" font-size="10.00">exif_get_short</text>
</a>
</g>
</g>
<!-- Node2&#45;&gt;Node7 -->
<g id="edge7_Node000002_Node000007" class="edge">
<title>Node2&#45;&gt;Node7</title>
<g id="a_edge7_Node000002_Node000007"><a xlink:title=" ">
<path fill="none" stroke="#63b8ff" d="M238.67,-242.96C256.79,-253.8 282,-268.3 305,-279.5 311.96,-282.89 319.53,-286.23 326.84,-289.3"/>
<polygon fill="#63b8ff" stroke="#63b8ff" points="325.29,-292.45 335.87,-292.99 327.94,-285.97 325.29,-292.45"/>
</a>
</g>
</g>
<!-- Node8 -->
<g id="Node000008" class="node">
<title>Node8</title>
<g id="a_Node000008"><a xlink:href="exif-utils_8c.html#a6baf094a71392f9cea23ad633ec13c8b" target="_top" xlink:title="Retrieve an ExifSShort value from memory.">
<polygon fill="white" stroke="#666666" points="558,-294 466,-294 466,-275 558,-275 558,-294"/>
<text text-anchor="middle" x="512" y="-282" font-family="Helvetica,sans-Serif" font-size="10.00">exif_get_sshort</text>
</a>
</g>
</g>
<!-- Node2&#45;&gt;Node8 -->
<g id="edge12_Node000002_Node000008" class="edge">
<title>Node2&#45;&gt;Node8</title>
<g id="a_edge12_Node000002_Node000008"><a xlink:title=" ">
<path fill="none" stroke="#63b8ff" d="M269.46,-238.22C322.3,-248.35 401.16,-263.46 454.26,-273.63"/>
<polygon fill="#63b8ff" stroke="#63b8ff" points="453.55,-277.06 464.03,-275.5 454.87,-270.18 453.55,-277.06"/>
</a>
</g>
</g>
<!-- Node9 -->
<g id="Node000009" class="node">
<title>Node9</title>
<g id="a_Node000009"><a xlink:href="exif-utils_8c.html#adb97c3499488d5642a82df1cb16dc2cb" target="_top" xlink:title="Retrieve an ExifSRational value from memory.">
<polygon fill="white" stroke="#666666" points="564,-237 460,-237 460,-218 564,-218 564,-237"/>
<text text-anchor="middle" x="512" y="-225" font-family="Helvetica,sans-Serif" font-size="10.00">exif_get_srational</text>
</a>
</g>
</g>
<!-- Node2&#45;&gt;Node9 -->
<g id="edge10_Node000002_Node000009" class="edge">
<title>Node2&#45;&gt;Node9</title>
<g id="a_edge10_Node000002_Node000009"><a xlink:title=" ">
<path fill="none" stroke="#63b8ff" d="M269.46,-227.5C320.42,-227.5 395.58,-227.5 448.5,-227.5"/>
<polygon fill="#63b8ff" stroke="#63b8ff" points="448.25,-231 458.25,-227.5 448.25,-224 448.25,-231"/>
</a>
</g>
</g>
<!-- Node10 -->
<g id="Node000010" class="node">
<title>Node10</title>
<g id="a_Node000010"><a xlink:href="exif-utils_8c.html#ac90147d0cc97bec7a577bf9576191bf8" target="_top" xlink:title="Store an ExifLong value into memory in EXIF format.">
<polygon fill="white" stroke="#666666" points="553,-161 471,-161 471,-142 553,-142 553,-161"/>
<text text-anchor="middle" x="512" y="-149" font-family="Helvetica,sans-Serif" font-size="10.00">exif_set_long</text>
</a>
</g>
</g>
<!-- Node2&#45;&gt;Node10 -->
<g id="edge13_Node000002_Node000010" class="edge">
<title>Node2&#45;&gt;Node10</title>
<g id="a_edge13_Node000002_Node000010"><a xlink:title=" ">
<path fill="none" stroke="#63b8ff" d="M269.46,-213.2C324.5,-199.14 407.76,-177.87 460.74,-164.34"/>
<polygon fill="#63b8ff" stroke="#63b8ff" points="461.61,-167.73 470.43,-161.86 459.87,-160.95 461.61,-167.73"/>
</a>
</g>
</g>
<!-- Node11 -->
<g id="Node000011" class="node">
<title>Node11</title>
<g id="a_Node000011"><a xlink:href="exif-utils_8c.html#ae6e3b9d1663f9ab9bd462d73a310ca03" target="_top" xlink:title="Store an ExifSLong value into memory in EXIF format.">
<polygon fill="white" stroke="#666666" points="687.5,-123 600.5,-123 600.5,-104 687.5,-104 687.5,-123"/>
<text text-anchor="middle" x="644" y="-111" font-family="Helvetica,sans-Serif" font-size="10.00">exif_set_slong</text>
</a>
</g>
</g>
<!-- Node2&#45;&gt;Node11 -->
<g id="edge19_Node000002_Node000011" class="edge">
<title>Node2&#45;&gt;Node11</title>
<g id="a_edge19_Node000002_Node000011"><a xlink:title=" ">
<path fill="none" stroke="#63b8ff" d="M223.05,-212.07C237.63,-190.1 267.72,-150.55 305,-133.5 397.67,-91.11 519.82,-96.96 589.03,-105.15"/>
<polygon fill="#63b8ff" stroke="#63b8ff" points="588.23,-108.58 598.58,-106.35 589.1,-101.63 588.23,-108.58"/>
</a>
</g>
</g>
<!-- Node12 -->
<g id="Node000012" class="node">
<title>Node12</title>
<g id="a_Node000012"><a xlink:href="exif-utils_8c.html#a400a16b1754150f721e9fca67ad89a52" target="_top" xlink:title="Store an ExifRational value into memory in EXIF format.">
<polygon fill="white" stroke="#666666" points="413.5,-161 315.5,-161 315.5,-142 413.5,-142 413.5,-161"/>
<text text-anchor="middle" x="364.5" y="-149" font-family="Helvetica,sans-Serif" font-size="10.00">exif_set_rational</text>
</a>
</g>
</g>
<!-- Node2&#45;&gt;Node12 -->
<g id="edge15_Node000002_Node000012" class="edge">
<title>Node2&#45;&gt;Node12</title>
<g id="a_edge15_Node000002_Node000012"><a xlink:title=" ">
<path fill="none" stroke="#63b8ff" d="M238.67,-212.04C256.79,-201.2 282,-186.7 305,-175.5 311.96,-172.11 319.53,-168.77 326.84,-165.7"/>
<polygon fill="#63b8ff" stroke="#63b8ff" points="327.94,-169.03 335.87,-162.01 325.29,-162.55 327.94,-169.03"/>
</a>
</g>
</g>
<!-- Node13 -->
<g id="Node000013" class="node">
<title>Node13</title>
<g id="a_Node000013"><a xlink:href="exif-utils_8c.html#ad905d16e26b4052a1db34dbebdc37341" target="_top" xlink:title="Store an ExifShort value into memory in EXIF format.">
<polygon fill="white" stroke="#666666" points="407.5,-85 321.5,-85 321.5,-66 407.5,-66 407.5,-85"/>
<text text-anchor="middle" x="364.5" y="-73" font-family="Helvetica,sans-Serif" font-size="10.00">exif_set_short</text>
</a>
</g>
</g>
<!-- Node2&#45;&gt;Node13 -->
<g id="edge17_Node000002_Node000013" class="edge">
<title>Node2&#45;&gt;Node13</title>
<g id="a_edge17_Node000002_Node000013"><a xlink:title=" ">
<path fill="none" stroke="#63b8ff" d="M220.7,-212.37C233.94,-186.04 264.53,-131.55 305,-99.5 309.51,-95.93 314.63,-92.81 319.91,-90.12"/>
<polygon fill="#63b8ff" stroke="#63b8ff" points="321.14,-93.4 328.78,-86.07 318.23,-87.04 321.14,-93.4"/>
</a>
</g>
</g>
<!-- Node14 -->
<g id="Node000014" class="node">
<title>Node14</title>
<g id="a_Node000014"><a xlink:href="exif-utils_8c.html#a6504651147702fc6db9a5cd4aa997023" target="_top" xlink:title="Store an ExifSShort value into memory in EXIF format.">
<polygon fill="white" stroke="#666666" points="557.5,-75 466.5,-75 466.5,-56 557.5,-56 557.5,-75"/>
<text text-anchor="middle" x="512" y="-63" font-family="Helvetica,sans-Serif" font-size="10.00">exif_set_sshort</text>
</a>
</g>
</g>
<!-- Node2&#45;&gt;Node14 -->
<g id="edge22_Node000002_Node000014" class="edge">
<title>Node2&#45;&gt;Node14</title>
<g id="a_edge22_Node000002_Node000014"><a xlink:title=" ">
<path fill="none" stroke="#63b8ff" d="M216.35,-212.12C223.74,-177.15 247.16,-92.05 305,-57.5 356.44,-26.77 428.71,-39.66 472.56,-52.25"/>
<polygon fill="#63b8ff" stroke="#63b8ff" points="471.3,-55.53 481.88,-55.07 473.32,-48.83 471.3,-55.53"/>
</a>
</g>
</g>
<!-- Node15 -->
<g id="Node000015" class="node">
<title>Node15</title>
<g id="a_Node000015"><a xlink:href="exif-utils_8c.html#aca1790a72b1833dff1b0bf728052c3c5" target="_top" xlink:title="Store an ExifSRational value into memory in EXIF format.">
<polygon fill="white" stroke="#666666" points="564,-19 460,-19 460,0 564,0 564,-19"/>
<text text-anchor="middle" x="512" y="-7" font-family="Helvetica,sans-Serif" font-size="10.00">exif_set_srational</text>
</a>
</g>
</g>
<!-- Node2&#45;&gt;Node15 -->
<g id="edge20_Node000002_Node000015" class="edge">
<title>Node2&#45;&gt;Node15</title>
<g id="a_edge20_Node000002_Node000015"><a xlink:title=" ">
<path fill="none" stroke="#63b8ff" d="M215.74,-212.04C222.07,-174.55 243.78,-78.62 305,-34.5 346.05,-4.92 404.06,-0.27 448.07,-2.1"/>
<polygon fill="#63b8ff" stroke="#63b8ff" points="447.82,-5.59 458,-2.65 448.21,1.4 447.82,-5.59"/>
</a>
</g>
</g>
<!-- Node4&#45;&gt;Node5 -->
<g id="edge4_Node000004_Node000005" class="edge">
<title>Node4&#45;&gt;Node5</title>
<g id="a_edge4_Node000004_Node000005"><a xlink:title=" ">
<path fill="none" stroke="#63b8ff" d="M547.16,-369.52C562.83,-364.93 581.62,-359.44 598.39,-354.54"/>
<polygon fill="#63b8ff" stroke="#63b8ff" points="599,-358.01 607.62,-351.84 597.04,-351.29 599,-358.01"/>
</a>
</g>
</g>
<!-- Node6&#45;&gt;Node4 -->
<g id="edge6_Node000006_Node000004" class="edge">
<title>Node6&#45;&gt;Node4</title>
<g id="a_edge6_Node000006_Node000004"><a xlink:title=" ">
<path fill="none" stroke="#63b8ff" d="M414.35,-379.5C428.69,-379.5 444.41,-379.5 458.93,-379.5"/>
<polygon fill="#63b8ff" stroke="#63b8ff" points="458.76,-383 468.76,-379.5 458.76,-376 458.76,-383"/>
</a>
</g>
</g>
<!-- Node7&#45;&gt;Node8 -->
<g id="edge8_Node000007_Node000008" class="edge">
<title>Node7&#45;&gt;Node8</title>
<g id="a_edge8_Node000007_Node000008"><a xlink:title=" ">
<path fill="none" stroke="#63b8ff" d="M407.98,-297.95C422.56,-296.05 439.11,-293.89 454.62,-291.86"/>
<polygon fill="#63b8ff" stroke="#63b8ff" points="454.72,-295.38 464.18,-290.61 453.81,-288.44 454.72,-295.38"/>
</a>
</g>
</g>
<!-- Node9&#45;&gt;Node5 -->
<g id="edge11_Node000009_Node000005" class="edge">
<title>Node9&#45;&gt;Node5</title>
<g id="a_edge11_Node000009_Node000005"><a xlink:title=" ">
<path fill="none" stroke="#63b8ff" d="M526.73,-237.38C537.18,-245.05 551.79,-256.08 564,-266.5 586.1,-285.34 610.11,-308.57 625.79,-324.14"/>
<polygon fill="#63b8ff" stroke="#63b8ff" points="622.96,-326.26 632.51,-330.85 627.91,-321.31 622.96,-326.26"/>
</a>
</g>
</g>
<!-- Node10&#45;&gt;Node11 -->
<g id="edge14_Node000010_Node000011" class="edge">
<title>Node10&#45;&gt;Node11</title>
<g id="a_edge14_Node000010_Node000011"><a xlink:title=" ">
<path fill="none" stroke="#63b8ff" d="M547.16,-141.52C562.83,-136.93 581.62,-131.44 598.39,-126.54"/>
<polygon fill="#63b8ff" stroke="#63b8ff" points="599,-130.01 607.62,-123.84 597.04,-123.29 599,-130.01"/>
</a>
</g>
</g>
<!-- Node12&#45;&gt;Node10 -->
<g id="edge16_Node000012_Node000010" class="edge">
<title>Node12&#45;&gt;Node10</title>
<g id="a_edge16_Node000012_Node000010"><a xlink:title=" ">
<path fill="none" stroke="#63b8ff" d="M413.95,-151.5C428.43,-151.5 444.36,-151.5 459.06,-151.5"/>
<polygon fill="#63b8ff" stroke="#63b8ff" points="459.01,-155 469.01,-151.5 459.01,-148 459.01,-155"/>
</a>
</g>
</g>
<!-- Node13&#45;&gt;Node14 -->
<g id="edge18_Node000013_Node000014" class="edge">
<title>Node13&#45;&gt;Node14</title>
<g id="a_edge18_Node000013_Node000014"><a xlink:title=" ">
<path fill="none" stroke="#63b8ff" d="M407.98,-72.58C422.69,-71.57 439.42,-70.42 455.05,-69.35"/>
<polygon fill="#63b8ff" stroke="#63b8ff" points="454.94,-72.86 464.68,-68.68 454.46,-65.88 454.94,-72.86"/>
</a>
</g>
</g>
<!-- Node15&#45;&gt;Node11 -->
<g id="edge21_Node000015_Node000011" class="edge">
<title>Node15&#45;&gt;Node11</title>
<g id="a_edge21_Node000015_Node000011"><a xlink:title=" ">
<path fill="none" stroke="#63b8ff" d="M526.58,-19.3C536.94,-26.86 551.52,-37.65 564,-47.5 584.52,-63.7 607.39,-82.94 623.22,-96.45"/>
<polygon fill="#63b8ff" stroke="#63b8ff" points="620.63,-98.84 630.5,-102.69 625.19,-93.53 620.63,-98.84"/>
</a>
</g>
</g>
</g>
</svg>
