<?xml version="1.0" encoding="UTF-8" standalone="no"?>
<!DOCTYPE svg PUBLIC "-//W3C//DTD SVG 1.1//EN"
 "http://www.w3.org/Graphics/SVG/1.1/DTD/svg11.dtd">
<!-- Generated by graphviz version 2.44.1 (0)
 -->
<!-- Title: exif_entry_new Pages: 1 -->
<svg width="434pt" height="256pt"
 viewBox="0.00 0.00 434.00 256.00" xmlns="http://www.w3.org/2000/svg" xmlns:xlink="http://www.w3.org/1999/xlink">
<g id="graph0" class="graph" transform="scale(1 1) rotate(0) translate(4 252)">
<title>exif_entry_new</title>
<polygon fill="white" stroke="transparent" points="-4,4 -4,-252 430,-252 430,4 -4,4"/>
<!-- Node1 -->
<g id="node1" class="node">
<title>Node1</title>
<g id="a_node1"><a xlink:title="Reserve memory for and initialize a new ExifEntry.">
<polygon fill="#bfbfbf" stroke="black" points="0,-152.5 0,-171.5 92,-171.5 92,-152.5 0,-152.5"/>
<text text-anchor="middle" x="46" y="-159.5" font-family="Helvetica,sans-Serif" font-size="10.00">exif_entry_new</text>
</a>
</g>
</g>
<!-- Node2 -->
<g id="node2" class="node">
<title>Node2</title>
<g id="a_node2"><a xlink:href="exif-entry_8c.html#a67580bc5b16e6f2793f9a5e580569a7b" target="_top" xlink:title="Reserve memory for and initialize new ExifEntry using the specified memory allocator.">
<polygon fill="white" stroke="black" points="132.5,-190.5 132.5,-209.5 254.5,-209.5 254.5,-190.5 132.5,-190.5"/>
<text text-anchor="middle" x="193.5" y="-197.5" font-family="Helvetica,sans-Serif" font-size="10.00">exif_entry_new_mem</text>
</a>
</g>
</g>
<!-- Node1&#45;&gt;Node2 -->
<g id="edge1" class="edge">
<title>Node1&#45;&gt;Node2</title>
<path fill="none" stroke="midnightblue" d="M83.72,-171.59C102.66,-176.54 125.96,-182.62 146.13,-187.89"/>
<polygon fill="midnightblue" stroke="midnightblue" points="145.49,-191.34 156.05,-190.48 147.26,-184.57 145.49,-191.34"/>
</g>
<!-- Node6 -->
<g id="node6" class="node">
<title>Node6</title>
<g id="a_node6"><a xlink:href="exif-mem_8c.html#acd2926c29b470c9d43f84567a84d5acb" target="_top" xlink:title="Create a new ExifMem with default values for your convenience.">
<polygon fill="white" stroke="black" points="128,-76.5 128,-95.5 259,-95.5 259,-76.5 128,-76.5"/>
<text text-anchor="middle" x="193.5" y="-83.5" font-family="Helvetica,sans-Serif" font-size="10.00">exif_mem_new_default</text>
</a>
</g>
</g>
<!-- Node1&#45;&gt;Node6 -->
<g id="edge5" class="edge">
<title>Node1&#45;&gt;Node6</title>
<path fill="none" stroke="midnightblue" d="M65.43,-152.37C90.57,-139.24 135.83,-115.6 165,-100.36"/>
<polygon fill="midnightblue" stroke="midnightblue" points="166.98,-103.28 174.22,-95.55 163.74,-97.07 166.98,-103.28"/>
</g>
<!-- Node11 -->
<g id="node11" class="node">
<title>Node11</title>
<g id="a_node11"><a xlink:href="exif-mem_8c.html#a66744e0987af08c443df247ce55f7d87" target="_top" xlink:title="Unrefcount an ExifMem.">
<polygon fill="white" stroke="black" points="145,-152.5 145,-171.5 242,-171.5 242,-152.5 145,-152.5"/>
<text text-anchor="middle" x="193.5" y="-159.5" font-family="Helvetica,sans-Serif" font-size="10.00">exif_mem_unref</text>
</a>
</g>
</g>
<!-- Node1&#45;&gt;Node11 -->
<g id="edge10" class="edge">
<title>Node1&#45;&gt;Node11</title>
<path fill="none" stroke="midnightblue" d="M92.24,-162C105.67,-162 120.56,-162 134.67,-162"/>
<polygon fill="midnightblue" stroke="midnightblue" points="134.77,-165.5 144.77,-162 134.77,-158.5 134.77,-165.5"/>
</g>
<!-- Node3 -->
<g id="node3" class="node">
<title>Node3</title>
<g id="a_node3"><a xlink:href="exif-mem_8c.html#ae8c09cfbcb95e435c4c4b7ec3bbd79e4" target="_top" xlink:title=" ">
<polygon fill="white" stroke="black" points="313,-228.5 313,-247.5 408,-247.5 408,-228.5 313,-228.5"/>
<text text-anchor="middle" x="360.5" y="-235.5" font-family="Helvetica,sans-Serif" font-size="10.00">exif_mem_alloc</text>
</a>
</g>
</g>
<!-- Node2&#45;&gt;Node3 -->
<g id="edge2" class="edge">
<title>Node2&#45;&gt;Node3</title>
<path fill="none" stroke="midnightblue" d="M236.14,-209.59C258.01,-214.63 285.01,-220.84 308.16,-226.18"/>
<polygon fill="midnightblue" stroke="midnightblue" points="307.63,-229.65 318.16,-228.48 309.2,-222.82 307.63,-229.65"/>
</g>
<!-- Node4 -->
<g id="node4" class="node">
<title>Node4</title>
<g id="a_node4"><a xlink:href="exif-mem_8c.html#a43190b81b4b4bdb4ffb89bfb612051b1" target="_top" xlink:title=" ">
<polygon fill="white" stroke="black" points="315,-152.5 315,-171.5 406,-171.5 406,-152.5 315,-152.5"/>
<text text-anchor="middle" x="360.5" y="-159.5" font-family="Helvetica,sans-Serif" font-size="10.00">exif_mem_free</text>
</a>
</g>
</g>
<!-- Node2&#45;&gt;Node4 -->
<g id="edge3" class="edge">
<title>Node2&#45;&gt;Node4</title>
<path fill="none" stroke="midnightblue" d="M236.14,-190.41C258.01,-185.37 285.01,-179.16 308.16,-173.82"/>
<polygon fill="midnightblue" stroke="midnightblue" points="309.2,-177.18 318.16,-171.52 307.63,-170.35 309.2,-177.18"/>
</g>
<!-- Node5 -->
<g id="node5" class="node">
<title>Node5</title>
<g id="a_node5"><a xlink:href="exif-mem_8c.html#af28c61972f529be46907956e0b3e7a60" target="_top" xlink:title="Refcount an ExifMem.">
<polygon fill="white" stroke="black" points="318,-190.5 318,-209.5 403,-209.5 403,-190.5 318,-190.5"/>
<text text-anchor="middle" x="360.5" y="-197.5" font-family="Helvetica,sans-Serif" font-size="10.00">exif_mem_ref</text>
</a>
</g>
</g>
<!-- Node2&#45;&gt;Node5 -->
<g id="edge4" class="edge">
<title>Node2&#45;&gt;Node5</title>
<path fill="none" stroke="midnightblue" d="M254.54,-200C271.93,-200 290.77,-200 307.63,-200"/>
<polygon fill="midnightblue" stroke="midnightblue" points="307.83,-203.5 317.83,-200 307.83,-196.5 307.83,-203.5"/>
</g>
<!-- Node7 -->
<g id="node7" class="node">
<title>Node7</title>
<g id="a_node7"><a xlink:href="exif-mem_8c.html#ae96feb62e763070ed3d70ca66f15feaa" target="_top" xlink:title="Default memory allocation function.">
<polygon fill="white" stroke="black" points="300,-114.5 300,-133.5 421,-133.5 421,-114.5 300,-114.5"/>
<text text-anchor="middle" x="360.5" y="-121.5" font-family="Helvetica,sans-Serif" font-size="10.00">exif_mem_alloc_func</text>
</a>
</g>
</g>
<!-- Node6&#45;&gt;Node7 -->
<g id="edge6" class="edge">
<title>Node6&#45;&gt;Node7</title>
<path fill="none" stroke="midnightblue" d="M236.14,-95.59C258.01,-100.63 285.01,-106.84 308.16,-112.18"/>
<polygon fill="midnightblue" stroke="midnightblue" points="307.63,-115.65 318.16,-114.48 309.2,-108.82 307.63,-115.65"/>
</g>
<!-- Node8 -->
<g id="node8" class="node">
<title>Node8</title>
<g id="a_node8"><a xlink:href="exif-mem_8c.html#a30e654456ffed5baaf5a23f1d8817aa6" target="_top" xlink:title="Default memory free function.">
<polygon fill="white" stroke="black" points="302,-76.5 302,-95.5 419,-95.5 419,-76.5 302,-76.5"/>
<text text-anchor="middle" x="360.5" y="-83.5" font-family="Helvetica,sans-Serif" font-size="10.00">exif_mem_free_func</text>
</a>
</g>
</g>
<!-- Node6&#45;&gt;Node8 -->
<g id="edge7" class="edge">
<title>Node6&#45;&gt;Node8</title>
<path fill="none" stroke="midnightblue" d="M259.24,-86C269.91,-86 281,-86 291.75,-86"/>
<polygon fill="midnightblue" stroke="midnightblue" points="291.92,-89.5 301.92,-86 291.92,-82.5 291.92,-89.5"/>
</g>
<!-- Node9 -->
<g id="node9" class="node">
<title>Node9</title>
<g id="a_node9"><a xlink:href="exif-mem_8c.html#a5db78241cb6c1752209e8e28f295ea41" target="_top" xlink:title="Create a new ExifMem.">
<polygon fill="white" stroke="black" points="314.5,-38.5 314.5,-57.5 406.5,-57.5 406.5,-38.5 314.5,-38.5"/>
<text text-anchor="middle" x="360.5" y="-45.5" font-family="Helvetica,sans-Serif" font-size="10.00">exif_mem_new</text>
</a>
</g>
</g>
<!-- Node6&#45;&gt;Node9 -->
<g id="edge8" class="edge">
<title>Node6&#45;&gt;Node9</title>
<path fill="none" stroke="midnightblue" d="M236.14,-76.41C258.01,-71.37 285.01,-65.16 308.16,-59.82"/>
<polygon fill="midnightblue" stroke="midnightblue" points="309.2,-63.18 318.16,-57.52 307.63,-56.35 309.2,-63.18"/>
</g>
<!-- Node10 -->
<g id="node10" class="node">
<title>Node10</title>
<g id="a_node10"><a xlink:href="exif-mem_8c.html#ace345dfcefc8f8a8aa04a7f47ab419c9" target="_top" xlink:title="Default memory reallocation function.">
<polygon fill="white" stroke="black" points="295,-0.5 295,-19.5 426,-19.5 426,-0.5 295,-0.5"/>
<text text-anchor="middle" x="360.5" y="-7.5" font-family="Helvetica,sans-Serif" font-size="10.00">exif_mem_realloc_func</text>
</a>
</g>
</g>
<!-- Node6&#45;&gt;Node10 -->
<g id="edge9" class="edge">
<title>Node6&#45;&gt;Node10</title>
<path fill="none" stroke="midnightblue" d="M208.94,-76.4C227.99,-64.06 262.87,-42.63 295,-29 300.44,-26.69 306.25,-24.56 312.07,-22.61"/>
<polygon fill="midnightblue" stroke="midnightblue" points="313.34,-25.88 321.81,-19.52 311.22,-19.21 313.34,-25.88"/>
</g>
<!-- Node11&#45;&gt;Node4 -->
<g id="edge11" class="edge">
<title>Node11&#45;&gt;Node4</title>
<path fill="none" stroke="midnightblue" d="M242.22,-162C261.85,-162 284.68,-162 304.96,-162"/>
<polygon fill="midnightblue" stroke="midnightblue" points="304.99,-165.5 314.99,-162 304.99,-158.5 304.99,-165.5"/>
</g>
</g>
</svg>
