<?xml version="1.0" encoding="UTF-8" standalone="no"?>
<!DOCTYPE svg PUBLIC "-//W3C//DTD SVG 1.1//EN"
 "http://www.w3.org/Graphics/SVG/1.1/DTD/svg11.dtd">
<!-- Generated by graphviz version 2.44.1 (0)
 -->
<!-- Title: exif_mnote_data_apple_new Pages: 1 -->
<svg width="970pt" height="713pt"
 viewBox="0.00 0.00 970.00 713.10" xmlns="http://www.w3.org/2000/svg" xmlns:xlink="http://www.w3.org/1999/xlink">
<g id="graph0" class="graph" transform="scale(1 1) rotate(0) translate(4 709.1)">
<title>exif_mnote_data_apple_new</title>
<polygon fill="white" stroke="transparent" points="-4,4 -4,-709.1 966,-709.1 966,4 -4,4"/>
<!-- Node1 -->
<g id="node1" class="node">
<title>Node1</title>
<g id="a_node1"><a xlink:title=" ">
<polygon fill="#bfbfbf" stroke="black" points="0,-339.6 0,-358.6 157,-358.6 157,-339.6 0,-339.6"/>
<text text-anchor="middle" x="78.5" y="-346.6" font-family="Helvetica,sans-Serif" font-size="10.00">exif_mnote_data_apple_new</text>
</a>
</g>
</g>
<!-- Node2 -->
<g id="node2" class="node">
<title>Node2</title>
<g id="a_node2"><a xlink:href="exif-mem_8c.html#ae8c09cfbcb95e435c4c4b7ec3bbd79e4" target="_top" xlink:title=" ">
<polygon fill="white" stroke="black" points="417.5,-495.6 417.5,-514.6 512.5,-514.6 512.5,-495.6 417.5,-495.6"/>
<text text-anchor="middle" x="465" y="-502.6" font-family="Helvetica,sans-Serif" font-size="10.00">exif_mem_alloc</text>
</a>
</g>
</g>
<!-- Node1&#45;&gt;Node2 -->
<g id="edge1" class="edge">
<title>Node1&#45;&gt;Node2</title>
<path fill="none" stroke="midnightblue" d="M83.95,-358.65C96.64,-384.66 135.85,-456.75 193,-486.1 260.48,-520.76 350.14,-519.37 407.48,-513.55"/>
<polygon fill="midnightblue" stroke="midnightblue" points="407.88,-517.02 417.44,-512.46 407.12,-510.06 407.88,-517.02"/>
</g>
<!-- Node3 -->
<g id="node3" class="node">
<title>Node3</title>
<g id="a_node3"><a xlink:href="exif-mnote-data-apple_8c.html#ab43d0be8b2d2b3d703b307a91e6dbcfb" target="_top" xlink:title=" ">
<polygon fill="white" stroke="black" points="206.5,-310.1 206.5,-340.1 337.5,-340.1 337.5,-310.1 206.5,-310.1"/>
<text text-anchor="start" x="214.5" y="-328.1" font-family="Helvetica,sans-Serif" font-size="10.00">exif_mnote_data_apple</text>
<text text-anchor="middle" x="272" y="-317.1" font-family="Helvetica,sans-Serif" font-size="10.00">_count</text>
</a>
</g>
</g>
<!-- Node1&#45;&gt;Node3 -->
<g id="edge2" class="edge">
<title>Node1&#45;&gt;Node3</title>
<path fill="none" stroke="midnightblue" d="M155.46,-339.58C168.86,-337.91 182.8,-336.16 196.16,-334.48"/>
<polygon fill="midnightblue" stroke="midnightblue" points="196.77,-337.94 206.25,-333.22 195.9,-330.99 196.77,-337.94"/>
</g>
<!-- Node4 -->
<g id="node4" class="node">
<title>Node4</title>
<g id="a_node4"><a xlink:href="exif-mnote-data-apple_8c.html#a777bb9ad0cb336b9994b3b820d6567a9" target="_top" xlink:title=" ">
<polygon fill="white" stroke="black" points="387,-685.6 387,-704.6 543,-704.6 543,-685.6 387,-685.6"/>
<text text-anchor="middle" x="465" y="-692.6" font-family="Helvetica,sans-Serif" font-size="10.00">exif_mnote_data_apple_free</text>
</a>
</g>
</g>
<!-- Node1&#45;&gt;Node4 -->
<g id="edge3" class="edge">
<title>Node1&#45;&gt;Node4</title>
<path fill="none" stroke="midnightblue" d="M81.17,-358.8C87.99,-395.56 117.07,-527.97 193,-600.1 243.23,-647.82 318.78,-671.73 377.36,-683.61"/>
<polygon fill="midnightblue" stroke="midnightblue" points="376.86,-687.08 387.35,-685.56 378.2,-680.21 376.86,-687.08"/>
</g>
<!-- Node6 -->
<g id="node6" class="node">
<title>Node6</title>
<g id="a_node6"><a xlink:href="exif-mnote-data-apple_8c.html#ab583ad6b1b71a02c2ff9da74c0fac9d1" target="_top" xlink:title=" ">
<polygon fill="white" stroke="black" points="206.5,-261.1 206.5,-291.1 337.5,-291.1 337.5,-261.1 206.5,-261.1"/>
<text text-anchor="start" x="214.5" y="-279.1" font-family="Helvetica,sans-Serif" font-size="10.00">exif_mnote_data_apple</text>
<text text-anchor="middle" x="272" y="-268.1" font-family="Helvetica,sans-Serif" font-size="10.00">_get_description</text>
</a>
</g>
</g>
<!-- Node1&#45;&gt;Node6 -->
<g id="edge5" class="edge">
<title>Node1&#45;&gt;Node6</title>
<path fill="none" stroke="midnightblue" d="M100.61,-339.5C123.23,-329.37 160.3,-313.23 193,-301.1 199.04,-298.87 205.38,-296.64 211.73,-294.48"/>
<polygon fill="midnightblue" stroke="midnightblue" points="213.29,-297.65 221.67,-291.17 211.08,-291.01 213.29,-297.65"/>
</g>
<!-- Node8 -->
<g id="node8" class="node">
<title>Node8</title>
<g id="a_node8"><a xlink:href="exif-mnote-data-apple_8c.html#aa0f18630bfaf4c224719ea7e7478734b" target="_top" xlink:title=" ">
<polygon fill="white" stroke="black" points="206.5,-212.1 206.5,-242.1 337.5,-242.1 337.5,-212.1 206.5,-212.1"/>
<text text-anchor="start" x="214.5" y="-230.1" font-family="Helvetica,sans-Serif" font-size="10.00">exif_mnote_data_apple</text>
<text text-anchor="middle" x="272" y="-219.1" font-family="Helvetica,sans-Serif" font-size="10.00">_get_id</text>
</a>
</g>
</g>
<!-- Node1&#45;&gt;Node8 -->
<g id="edge7" class="edge">
<title>Node1&#45;&gt;Node8</title>
<path fill="none" stroke="midnightblue" d="M88.24,-339.4C106.11,-320.12 148.85,-276.72 193,-252.1 196.88,-249.94 200.97,-247.94 205.16,-246.08"/>
<polygon fill="midnightblue" stroke="midnightblue" points="206.56,-249.29 214.47,-242.25 203.9,-242.82 206.56,-249.29"/>
</g>
<!-- Node9 -->
<g id="node9" class="node">
<title>Node9</title>
<g id="a_node9"><a xlink:href="exif-mnote-data-apple_8c.html#a5f73dde63e8f981e41bfb82c4927034e" target="_top" xlink:title=" ">
<polygon fill="white" stroke="black" points="206.5,-163.1 206.5,-193.1 337.5,-193.1 337.5,-163.1 206.5,-163.1"/>
<text text-anchor="start" x="214.5" y="-181.1" font-family="Helvetica,sans-Serif" font-size="10.00">exif_mnote_data_apple</text>
<text text-anchor="middle" x="272" y="-170.1" font-family="Helvetica,sans-Serif" font-size="10.00">_get_name</text>
</a>
</g>
</g>
<!-- Node1&#45;&gt;Node9 -->
<g id="edge8" class="edge">
<title>Node1&#45;&gt;Node9</title>
<path fill="none" stroke="midnightblue" d="M84.4,-339.29C97.94,-313.14 138.53,-241.18 193,-203.1 195.74,-201.19 198.63,-199.42 201.63,-197.77"/>
<polygon fill="midnightblue" stroke="midnightblue" points="203.44,-200.78 210.88,-193.23 200.36,-194.5 203.44,-200.78"/>
</g>
<!-- Node11 -->
<g id="node11" class="node">
<title>Node11</title>
<g id="a_node11"><a xlink:href="exif-mnote-data-apple_8c.html#a6dbeb59bcc5ddf090dc2f79bfcf65db2" target="_top" xlink:title=" ">
<polygon fill="white" stroke="black" points="206.5,-114.1 206.5,-144.1 337.5,-144.1 337.5,-114.1 206.5,-114.1"/>
<text text-anchor="start" x="214.5" y="-132.1" font-family="Helvetica,sans-Serif" font-size="10.00">exif_mnote_data_apple</text>
<text text-anchor="middle" x="272" y="-121.1" font-family="Helvetica,sans-Serif" font-size="10.00">_get_title</text>
</a>
</g>
</g>
<!-- Node1&#45;&gt;Node11 -->
<g id="edge10" class="edge">
<title>Node1&#45;&gt;Node11</title>
<path fill="none" stroke="midnightblue" d="M82.35,-339.24C92.08,-307.26 127.16,-205.5 193,-153.1 194.76,-151.71 196.59,-150.39 198.5,-149.15"/>
<polygon fill="midnightblue" stroke="midnightblue" points="200.25,-152.18 207.2,-144.19 196.78,-146.1 200.25,-152.18"/>
</g>
<!-- Node13 -->
<g id="node13" class="node">
<title>Node13</title>
<g id="a_node13"><a xlink:href="exif-mnote-data-apple_8c.html#a49279e0a93893973bdb8661059e41f1b" target="_top" xlink:title=" ">
<polygon fill="white" stroke="black" points="206.5,-408.1 206.5,-438.1 337.5,-438.1 337.5,-408.1 206.5,-408.1"/>
<text text-anchor="start" x="214.5" y="-426.1" font-family="Helvetica,sans-Serif" font-size="10.00">exif_mnote_data_apple</text>
<text text-anchor="middle" x="272" y="-415.1" font-family="Helvetica,sans-Serif" font-size="10.00">_get_value</text>
</a>
</g>
</g>
<!-- Node1&#45;&gt;Node13 -->
<g id="edge12" class="edge">
<title>Node1&#45;&gt;Node13</title>
<path fill="none" stroke="midnightblue" d="M99.3,-358.67C121.73,-369.3 159.51,-386.62 193,-399.1 198.23,-401.05 203.69,-402.97 209.2,-404.82"/>
<polygon fill="midnightblue" stroke="midnightblue" points="208.52,-408.28 219.11,-408.06 210.69,-401.63 208.52,-408.28"/>
</g>
<!-- Node22 -->
<g id="node22" class="node">
<title>Node22</title>
<g id="a_node22"><a xlink:href="exif-mnote-data-apple_8c.html#a422b74c28b6d2990183bf6ac43fb60c1" target="_top" xlink:title=" ">
<polygon fill="white" stroke="black" points="193,-571.6 193,-590.6 351,-590.6 351,-571.6 193,-571.6"/>
<text text-anchor="middle" x="272" y="-578.6" font-family="Helvetica,sans-Serif" font-size="10.00">exif_mnote_data_apple_load</text>
</a>
</g>
</g>
<!-- Node1&#45;&gt;Node22 -->
<g id="edge25" class="edge">
<title>Node1&#45;&gt;Node22</title>
<path fill="none" stroke="midnightblue" d="M84.49,-358.67C98.91,-385.76 142.77,-464.53 193,-519.1 209.51,-537.04 231.47,-554.01 247.89,-565.65"/>
<polygon fill="midnightblue" stroke="midnightblue" points="246.16,-568.71 256.37,-571.54 250.15,-562.96 246.16,-568.71"/>
</g>
<!-- Node25 -->
<g id="node25" class="node">
<title>Node25</title>
<g id="a_node25"><a xlink:href="exif-mnote-data-apple_8c.html#aeb7e2af3d82c2ff5e1cf5d633c3da145" target="_top" xlink:title=" ">
<polygon fill="white" stroke="black" points="206.5,-359.1 206.5,-389.1 337.5,-389.1 337.5,-359.1 206.5,-359.1"/>
<text text-anchor="start" x="214.5" y="-377.1" font-family="Helvetica,sans-Serif" font-size="10.00">exif_mnote_data_apple</text>
<text text-anchor="middle" x="272" y="-366.1" font-family="Helvetica,sans-Serif" font-size="10.00">_set_byte_order</text>
</a>
</g>
</g>
<!-- Node1&#45;&gt;Node25 -->
<g id="edge33" class="edge">
<title>Node1&#45;&gt;Node25</title>
<path fill="none" stroke="midnightblue" d="M152.44,-358.63C166.73,-360.49 181.74,-362.45 196.09,-364.33"/>
<polygon fill="midnightblue" stroke="midnightblue" points="196.04,-367.85 206.41,-365.67 196.95,-360.91 196.04,-367.85"/>
</g>
<!-- Node33 -->
<g id="node33" class="node">
<title>Node33</title>
<g id="a_node33"><a xlink:href="exif-mnote-data-apple_8c.html#a32a8f180504cd9a34fc7ac14a582ccee" target="_top" xlink:title=" ">
<polygon fill="white" stroke="black" points="206.5,-65.1 206.5,-95.1 337.5,-95.1 337.5,-65.1 206.5,-65.1"/>
<text text-anchor="start" x="214.5" y="-83.1" font-family="Helvetica,sans-Serif" font-size="10.00">exif_mnote_data_apple</text>
<text text-anchor="middle" x="272" y="-72.1" font-family="Helvetica,sans-Serif" font-size="10.00">_set_offset</text>
</a>
</g>
</g>
<!-- Node1&#45;&gt;Node33 -->
<g id="edge53" class="edge">
<title>Node1&#45;&gt;Node33</title>
<path fill="none" stroke="midnightblue" d="M81.08,-339.46C87.58,-302.92 115.67,-171.62 193,-104.1 194.52,-102.78 196.11,-101.52 197.77,-100.34"/>
<polygon fill="midnightblue" stroke="midnightblue" points="199.79,-103.2 206.47,-94.97 196.12,-97.24 199.79,-103.2"/>
</g>
<!-- Node34 -->
<g id="node34" class="node">
<title>Node34</title>
<g id="a_node34"><a xlink:href="exif-mnote-data-priv_8h.html#a06db5604f65a97b1c5ea3fcc4bfec7dc" target="_top" xlink:title=" ">
<polygon fill="white" stroke="black" points="197.5,-457.6 197.5,-476.6 346.5,-476.6 346.5,-457.6 197.5,-457.6"/>
<text text-anchor="middle" x="272" y="-464.6" font-family="Helvetica,sans-Serif" font-size="10.00">exif_mnote_data_construct</text>
</a>
</g>
</g>
<!-- Node1&#45;&gt;Node34 -->
<g id="edge54" class="edge">
<title>Node1&#45;&gt;Node34</title>
<path fill="none" stroke="midnightblue" d="M87.52,-358.68C104.71,-378.55 147.27,-424.4 193,-448.1 197.52,-450.45 202.35,-452.51 207.29,-454.32"/>
<polygon fill="midnightblue" stroke="midnightblue" points="206.31,-457.69 216.9,-457.51 208.51,-451.04 206.31,-457.69"/>
</g>
<!-- Node5 -->
<g id="node5" class="node">
<title>Node5</title>
<g id="a_node5"><a xlink:href="exif-mem_8c.html#a43190b81b4b4bdb4ffb89bfb612051b1" target="_top" xlink:title=" ">
<polygon fill="white" stroke="black" points="593,-685.6 593,-704.6 684,-704.6 684,-685.6 593,-685.6"/>
<text text-anchor="middle" x="638.5" y="-692.6" font-family="Helvetica,sans-Serif" font-size="10.00">exif_mem_free</text>
</a>
</g>
</g>
<!-- Node4&#45;&gt;Node5 -->
<g id="edge4" class="edge">
<title>Node4&#45;&gt;Node5</title>
<path fill="none" stroke="midnightblue" d="M543.22,-695.1C556.42,-695.1 569.89,-695.1 582.36,-695.1"/>
<polygon fill="midnightblue" stroke="midnightblue" points="582.58,-698.6 592.58,-695.1 582.58,-691.6 582.58,-698.6"/>
</g>
<!-- Node7 -->
<g id="node7" class="node">
<title>Node7</title>
<g id="a_node7"><a xlink:href="mnote-apple-tag_8c.html#adce703db6ea7cadc4528c3ee14432552" target="_top" xlink:title=" ">
<polygon fill="white" stroke="black" points="404,-213.1 404,-243.1 526,-243.1 526,-213.1 404,-213.1"/>
<text text-anchor="start" x="412" y="-231.1" font-family="Helvetica,sans-Serif" font-size="10.00">mnote_apple_tag_get</text>
<text text-anchor="middle" x="465" y="-220.1" font-family="Helvetica,sans-Serif" font-size="10.00">_description</text>
</a>
</g>
</g>
<!-- Node6&#45;&gt;Node7 -->
<g id="edge6" class="edge">
<title>Node6&#45;&gt;Node7</title>
<path fill="none" stroke="midnightblue" d="M332.91,-261.05C352.47,-256.13 374.34,-250.64 394.54,-245.56"/>
<polygon fill="midnightblue" stroke="midnightblue" points="395.46,-248.94 404.3,-243.11 393.75,-242.15 395.46,-248.94"/>
</g>
<!-- Node10 -->
<g id="node10" class="node">
<title>Node10</title>
<g id="a_node10"><a xlink:href="mnote-apple-tag_8c.html#ae9adcc6e9b524c9b4a77ccce7d57e474" target="_top" xlink:title=" ">
<polygon fill="white" stroke="black" points="387.5,-168.6 387.5,-187.6 542.5,-187.6 542.5,-168.6 387.5,-168.6"/>
<text text-anchor="middle" x="465" y="-175.6" font-family="Helvetica,sans-Serif" font-size="10.00">mnote_apple_tag_get_name</text>
</a>
</g>
</g>
<!-- Node9&#45;&gt;Node10 -->
<g id="edge9" class="edge">
<title>Node9&#45;&gt;Node10</title>
<path fill="none" stroke="midnightblue" d="M337.66,-178.1C350.34,-178.1 363.83,-178.1 377.1,-178.1"/>
<polygon fill="midnightblue" stroke="midnightblue" points="377.18,-181.6 387.18,-178.1 377.18,-174.6 377.18,-181.6"/>
</g>
<!-- Node12 -->
<g id="node12" class="node">
<title>Node12</title>
<g id="a_node12"><a xlink:href="mnote-apple-tag_8c.html#a9fe2f8ff66042ca20734bf6065ef4705" target="_top" xlink:title=" ">
<polygon fill="white" stroke="black" points="404,-114.1 404,-144.1 526,-144.1 526,-114.1 404,-114.1"/>
<text text-anchor="start" x="412" y="-132.1" font-family="Helvetica,sans-Serif" font-size="10.00">mnote_apple_tag_get</text>
<text text-anchor="middle" x="465" y="-121.1" font-family="Helvetica,sans-Serif" font-size="10.00">_title</text>
</a>
</g>
</g>
<!-- Node11&#45;&gt;Node12 -->
<g id="edge11" class="edge">
<title>Node11&#45;&gt;Node12</title>
<path fill="none" stroke="midnightblue" d="M337.66,-129.1C355.74,-129.1 375.48,-129.1 393.86,-129.1"/>
<polygon fill="midnightblue" stroke="midnightblue" points="393.91,-132.6 403.91,-129.1 393.91,-125.6 393.91,-132.6"/>
</g>
<!-- Node14 -->
<g id="node14" class="node">
<title>Node14</title>
<g id="a_node14"><a xlink:href="mnote-apple-entry_8c.html#a3d93b384e325e0df3ca7616e8ea0a6e1" target="_top" xlink:title=" ">
<polygon fill="white" stroke="black" points="399,-408.1 399,-438.1 531,-438.1 531,-408.1 399,-408.1"/>
<text text-anchor="start" x="407" y="-426.1" font-family="Helvetica,sans-Serif" font-size="10.00">mnote_apple_entry_get</text>
<text text-anchor="middle" x="465" y="-415.1" font-family="Helvetica,sans-Serif" font-size="10.00">_value</text>
</a>
</g>
</g>
<!-- Node13&#45;&gt;Node14 -->
<g id="edge13" class="edge">
<title>Node13&#45;&gt;Node14</title>
<path fill="none" stroke="midnightblue" d="M337.66,-423.1C353.98,-423.1 371.63,-423.1 388.43,-423.1"/>
<polygon fill="midnightblue" stroke="midnightblue" points="388.75,-426.6 398.75,-423.1 388.75,-419.6 388.75,-426.6"/>
</g>
<!-- Node15 -->
<g id="node15" class="node">
<title>Node15</title>
<g id="a_node15"><a xlink:href="exif-format_8c.html#a924038efe0cd8ebade8f44619dd794f3" target="_top" xlink:title="Return the raw size of the given EXIF data type.">
<polygon fill="white" stroke="black" points="579,-419.6 579,-438.6 698,-438.6 698,-419.6 579,-419.6"/>
<text text-anchor="middle" x="638.5" y="-426.6" font-family="Helvetica,sans-Serif" font-size="10.00">exif_format_get_size</text>
</a>
</g>
</g>
<!-- Node14&#45;&gt;Node15 -->
<g id="edge14" class="edge">
<title>Node14&#45;&gt;Node15</title>
<path fill="none" stroke="midnightblue" d="M531.33,-425.39C543.53,-425.82 556.32,-426.26 568.62,-426.69"/>
<polygon fill="midnightblue" stroke="midnightblue" points="568.71,-430.2 578.82,-427.05 568.95,-423.2 568.71,-430.2"/>
</g>
<!-- Node16 -->
<g id="node16" class="node">
<title>Node16</title>
<g id="a_node16"><a xlink:href="exif-utils_8c.html#a4ad94614630897766dd0a5c9bc2a59bf" target="_top" xlink:title="Retrieve an ExifLong value from memory.">
<polygon fill="white" stroke="black" points="744.5,-381.6 744.5,-400.6 827.5,-400.6 827.5,-381.6 744.5,-381.6"/>
<text text-anchor="middle" x="786" y="-388.6" font-family="Helvetica,sans-Serif" font-size="10.00">exif_get_long</text>
</a>
</g>
</g>
<!-- Node14&#45;&gt;Node16 -->
<g id="edge15" class="edge">
<title>Node14&#45;&gt;Node16</title>
<path fill="none" stroke="midnightblue" d="M510.99,-438.21C558.44,-451.78 634.92,-466.93 698,-448.1 724.52,-440.19 750.47,-421.32 767.03,-407.45"/>
<polygon fill="midnightblue" stroke="midnightblue" points="769.51,-409.93 774.78,-400.74 764.93,-404.63 769.51,-409.93"/>
</g>
<!-- Node17 -->
<g id="node17" class="node">
<title>Node17</title>
<g id="a_node17"><a xlink:href="exif-utils_8c.html#a56b96f076a13da6ed926e1ef29cb2dc3" target="_top" xlink:title="Retrieve an ExifSLong value from memory.">
<polygon fill="white" stroke="black" points="874,-362.6 874,-381.6 962,-381.6 962,-362.6 874,-362.6"/>
<text text-anchor="middle" x="918" y="-369.6" font-family="Helvetica,sans-Serif" font-size="10.00">exif_get_slong</text>
</a>
</g>
</g>
<!-- Node14&#45;&gt;Node17 -->
<g id="edge21" class="edge">
<title>Node14&#45;&gt;Node17</title>
<path fill="none" stroke="midnightblue" d="M529.86,-438.15C534.67,-440.93 539.14,-444.21 543,-448.1 580.42,-485.83 536.14,-530.7 579,-562.1 621.66,-593.37 645.57,-569.09 698,-562.1 761.91,-553.59 787.8,-564.56 838,-524.1 881.29,-489.22 903.49,-424.22 912.31,-391.7"/>
<polygon fill="midnightblue" stroke="midnightblue" points="915.79,-392.21 914.88,-381.65 909.01,-390.47 915.79,-392.21"/>
</g>
<!-- Node18 -->
<g id="node18" class="node">
<title>Node18</title>
<g id="a_node18"><a xlink:href="exif-utils_8c.html#a1feb547c289aa57a4d2119338b03706c" target="_top" xlink:title="Retrieve an ExifRational value from memory.">
<polygon fill="white" stroke="black" points="589,-381.6 589,-400.6 688,-400.6 688,-381.6 589,-381.6"/>
<text text-anchor="middle" x="638.5" y="-388.6" font-family="Helvetica,sans-Serif" font-size="10.00">exif_get_rational</text>
</a>
</g>
</g>
<!-- Node14&#45;&gt;Node18 -->
<g id="edge17" class="edge">
<title>Node14&#45;&gt;Node18</title>
<path fill="none" stroke="midnightblue" d="M531.33,-410.92C547.01,-407.99 563.66,-404.88 579.02,-402.02"/>
<polygon fill="midnightblue" stroke="midnightblue" points="579.71,-405.45 588.89,-400.17 578.42,-398.57 579.71,-405.45"/>
</g>
<!-- Node19 -->
<g id="node19" class="node">
<title>Node19</title>
<g id="a_node19"><a xlink:href="exif-utils_8c.html#a4b4acf537a8c6b9405e7b53be868e4d7" target="_top" xlink:title="Retrieve an ExifShort value from memory.">
<polygon fill="white" stroke="black" points="595.5,-533.6 595.5,-552.6 681.5,-552.6 681.5,-533.6 595.5,-533.6"/>
<text text-anchor="middle" x="638.5" y="-540.6" font-family="Helvetica,sans-Serif" font-size="10.00">exif_get_short</text>
</a>
</g>
</g>
<!-- Node14&#45;&gt;Node19 -->
<g id="edge19" class="edge">
<title>Node14&#45;&gt;Node19</title>
<path fill="none" stroke="midnightblue" d="M528.06,-438.26C533.43,-441.02 538.51,-444.27 543,-448.1 569.88,-471.11 553,-495.11 579,-519.1 583.18,-522.97 588.08,-526.25 593.21,-529.03"/>
<polygon fill="midnightblue" stroke="midnightblue" points="592.1,-532.37 602.63,-533.5 595.1,-526.05 592.1,-532.37"/>
</g>
<!-- Node20 -->
<g id="node20" class="node">
<title>Node20</title>
<g id="a_node20"><a xlink:href="exif-utils_8c.html#a6baf094a71392f9cea23ad633ec13c8b" target="_top" xlink:title="Retrieve an ExifSShort value from memory.">
<polygon fill="white" stroke="black" points="740,-495.6 740,-514.6 832,-514.6 832,-495.6 740,-495.6"/>
<text text-anchor="middle" x="786" y="-502.6" font-family="Helvetica,sans-Serif" font-size="10.00">exif_get_sshort</text>
</a>
</g>
</g>
<!-- Node14&#45;&gt;Node20 -->
<g id="edge24" class="edge">
<title>Node14&#45;&gt;Node20</title>
<path fill="none" stroke="midnightblue" d="M516.1,-438.17C525.14,-441.22 534.42,-444.59 543,-448.1 559.55,-454.89 562.05,-460.39 579,-466.1 628.71,-482.87 687.73,-493.12 729.83,-498.88"/>
<polygon fill="midnightblue" stroke="midnightblue" points="729.51,-502.37 739.89,-500.21 730.43,-495.43 729.51,-502.37"/>
</g>
<!-- Node21 -->
<g id="node21" class="node">
<title>Node21</title>
<g id="a_node21"><a xlink:href="exif-utils_8c.html#adb97c3499488d5642a82df1cb16dc2cb" target="_top" xlink:title="Retrieve an ExifSRational value from memory.">
<polygon fill="white" stroke="black" points="586.5,-343.6 586.5,-362.6 690.5,-362.6 690.5,-343.6 586.5,-343.6"/>
<text text-anchor="middle" x="638.5" y="-350.6" font-family="Helvetica,sans-Serif" font-size="10.00">exif_get_srational</text>
</a>
</g>
</g>
<!-- Node14&#45;&gt;Node21 -->
<g id="edge22" class="edge">
<title>Node14&#45;&gt;Node21</title>
<path fill="none" stroke="midnightblue" d="M496.79,-408.1C519.29,-397.41 550.69,-383.05 579,-372.1 584.55,-369.96 590.46,-367.85 596.3,-365.85"/>
<polygon fill="midnightblue" stroke="midnightblue" points="597.62,-369.11 606.01,-362.63 595.41,-362.46 597.62,-369.11"/>
</g>
<!-- Node16&#45;&gt;Node17 -->
<g id="edge16" class="edge">
<title>Node16&#45;&gt;Node17</title>
<path fill="none" stroke="midnightblue" d="M827.78,-385.15C839.18,-383.48 851.74,-381.64 863.75,-379.89"/>
<polygon fill="midnightblue" stroke="midnightblue" points="864.28,-383.35 873.67,-378.44 863.27,-376.42 864.28,-383.35"/>
</g>
<!-- Node18&#45;&gt;Node16 -->
<g id="edge18" class="edge">
<title>Node18&#45;&gt;Node16</title>
<path fill="none" stroke="midnightblue" d="M688.35,-391.1C703.11,-391.1 719.34,-391.1 734.22,-391.1"/>
<polygon fill="midnightblue" stroke="midnightblue" points="734.27,-394.6 744.27,-391.1 734.27,-387.6 734.27,-394.6"/>
</g>
<!-- Node19&#45;&gt;Node20 -->
<g id="edge20" class="edge">
<title>Node19&#45;&gt;Node20</title>
<path fill="none" stroke="midnightblue" d="M676.22,-533.52C695.16,-528.57 718.46,-522.48 738.63,-517.22"/>
<polygon fill="midnightblue" stroke="midnightblue" points="739.76,-520.54 748.55,-514.62 737.99,-513.77 739.76,-520.54"/>
</g>
<!-- Node21&#45;&gt;Node17 -->
<g id="edge23" class="edge">
<title>Node21&#45;&gt;Node17</title>
<path fill="none" stroke="midnightblue" d="M690.72,-356.61C739.85,-359.98 813.71,-365.03 863.57,-368.45"/>
<polygon fill="midnightblue" stroke="midnightblue" points="863.61,-371.96 873.82,-369.15 864.08,-364.97 863.61,-371.96"/>
</g>
<!-- Node22&#45;&gt;Node2 -->
<g id="edge31" class="edge">
<title>Node22&#45;&gt;Node2</title>
<path fill="none" stroke="midnightblue" d="M292.05,-571.52C314.43,-560.47 352.86,-542.15 387,-529.1 397.61,-525.05 409.24,-521.15 420.16,-517.72"/>
<polygon fill="midnightblue" stroke="midnightblue" points="421.42,-521 429.95,-514.71 419.36,-514.3 421.42,-521"/>
</g>
<!-- Node22&#45;&gt;Node4 -->
<g id="edge32" class="edge">
<title>Node22&#45;&gt;Node4</title>
<path fill="none" stroke="midnightblue" d="M285.65,-590.72C301.26,-602.69 328.51,-623.9 351,-643.1 367.51,-657.2 367.87,-665.85 387,-676.1 391.25,-678.38 395.78,-680.39 400.43,-682.17"/>
<polygon fill="midnightblue" stroke="midnightblue" points="399.51,-685.55 410.11,-685.48 401.78,-678.93 399.51,-685.55"/>
</g>
<!-- Node22&#45;&gt;Node15 -->
<g id="edge26" class="edge">
<title>Node22&#45;&gt;Node15</title>
<path fill="none" stroke="midnightblue" d="M318.13,-571.6C394.89,-555.43 542.69,-524.27 543,-524.1 578.05,-505.05 608.55,-468.89 624.87,-447.09"/>
<polygon fill="midnightblue" stroke="midnightblue" points="627.9,-448.87 630.96,-438.72 622.24,-444.75 627.9,-448.87"/>
</g>
<!-- Node22&#45;&gt;Node16 -->
<g id="edge27" class="edge">
<title>Node22&#45;&gt;Node16</title>
<path fill="none" stroke="midnightblue" d="M351.02,-587.37C458.27,-594.37 644.11,-600.22 698,-562.1 728.51,-540.52 717.16,-519.47 734,-486.1 747.58,-459.21 764.24,-428.58 774.74,-409.55"/>
<polygon fill="midnightblue" stroke="midnightblue" points="777.84,-411.17 779.63,-400.73 771.72,-407.78 777.84,-411.17"/>
</g>
<!-- Node22&#45;&gt;Node19 -->
<g id="edge28" class="edge">
<title>Node22&#45;&gt;Node19</title>
<path fill="none" stroke="midnightblue" d="M351.11,-575.38C405.09,-571.12 478.51,-564.74 543,-557.1 556.65,-555.49 571.37,-553.45 585.03,-551.44"/>
<polygon fill="midnightblue" stroke="midnightblue" points="585.86,-554.85 595.23,-549.91 584.82,-547.93 585.86,-554.85"/>
</g>
<!-- Node23 -->
<g id="node23" class="node">
<title>Node23</title>
<g id="a_node23"><a xlink:href="exif-log_8c.html#a025d4a5d96544913ea6f6ebbec69cb68" target="_top" xlink:title=" ">
<polygon fill="white" stroke="black" points="437,-647.6 437,-666.6 493,-666.6 493,-647.6 437,-647.6"/>
<text text-anchor="middle" x="465" y="-654.6" font-family="Helvetica,sans-Serif" font-size="10.00">exif_log</text>
</a>
</g>
</g>
<!-- Node22&#45;&gt;Node23 -->
<g id="edge29" class="edge">
<title>Node22&#45;&gt;Node23</title>
<path fill="none" stroke="midnightblue" d="M292.05,-590.69C314.43,-601.74 352.86,-620.06 387,-633.1 399.9,-638.04 414.29,-642.73 427.11,-646.64"/>
<polygon fill="midnightblue" stroke="midnightblue" points="426.41,-650.08 436.99,-649.59 428.41,-643.37 426.41,-650.08"/>
</g>
<!-- Node24 -->
<g id="node24" class="node">
<title>Node24</title>
<g id="a_node24"><a xlink:href="exif-log_8c.html#a99101b5ad01b2d82ce9d43c9e8534627" target="_top" xlink:title=" ">
<polygon fill="white" stroke="black" points="607.5,-647.6 607.5,-666.6 669.5,-666.6 669.5,-647.6 607.5,-647.6"/>
<text text-anchor="middle" x="638.5" y="-654.6" font-family="Helvetica,sans-Serif" font-size="10.00">exif_logv</text>
</a>
</g>
</g>
<!-- Node23&#45;&gt;Node24 -->
<g id="edge30" class="edge">
<title>Node23&#45;&gt;Node24</title>
<path fill="none" stroke="midnightblue" d="M493.17,-657.1C521.09,-657.1 564.88,-657.1 596.91,-657.1"/>
<polygon fill="midnightblue" stroke="midnightblue" points="597.28,-660.6 607.28,-657.1 597.28,-653.6 597.28,-660.6"/>
</g>
<!-- Node25&#45;&gt;Node15 -->
<g id="edge52" class="edge">
<title>Node25&#45;&gt;Node15</title>
<path fill="none" stroke="midnightblue" d="M337.67,-376.19C392.72,-378.89 473.68,-385.06 543,-399.1 545.94,-399.7 573.73,-408.55 598.42,-416.49"/>
<polygon fill="midnightblue" stroke="midnightblue" points="597.43,-419.85 608.02,-419.58 599.57,-413.18 597.43,-419.85"/>
</g>
<!-- Node26 -->
<g id="node26" class="node">
<title>Node26</title>
<g id="a_node26"><a xlink:href="exif-utils_8c.html#a54ef3b86ffeb643e9c4434b85ccf2992" target="_top" xlink:title=" ">
<polygon fill="white" stroke="black" points="408.5,-262.1 408.5,-292.1 521.5,-292.1 521.5,-262.1 408.5,-262.1"/>
<text text-anchor="start" x="416.5" y="-280.1" font-family="Helvetica,sans-Serif" font-size="10.00">exif_array_set_byte</text>
<text text-anchor="middle" x="465" y="-269.1" font-family="Helvetica,sans-Serif" font-size="10.00">_order</text>
</a>
</g>
</g>
<!-- Node25&#45;&gt;Node26 -->
<g id="edge34" class="edge">
<title>Node25&#45;&gt;Node26</title>
<path fill="none" stroke="midnightblue" d="M328.68,-359.04C336.31,-356.38 343.94,-353.4 351,-350.1 381.65,-335.82 413.78,-314.35 435.9,-298.38"/>
<polygon fill="midnightblue" stroke="midnightblue" points="438.15,-301.07 444.16,-292.34 434.02,-295.42 438.15,-301.07"/>
</g>
<!-- Node26&#45;&gt;Node15 -->
<g id="edge35" class="edge">
<title>Node26&#45;&gt;Node15</title>
<path fill="none" stroke="midnightblue" d="M480.63,-292.39C496.46,-309.12 522.22,-336.91 543,-362.1 559.97,-382.67 557.31,-394.6 579,-410.1 581.69,-412.03 584.59,-413.77 587.61,-415.33"/>
<polygon fill="midnightblue" stroke="midnightblue" points="586.36,-418.61 596.91,-419.54 589.24,-412.23 586.36,-418.61"/>
</g>
<!-- Node26&#45;&gt;Node16 -->
<g id="edge36" class="edge">
<title>Node26&#45;&gt;Node16</title>
<path fill="none" stroke="midnightblue" d="M521.87,-272.46C570.77,-270.75 642.47,-274.09 698,-301.1 731.2,-317.25 758.64,-351.59 773.35,-372.88"/>
<polygon fill="midnightblue" stroke="midnightblue" points="770.56,-375 779.03,-381.37 776.38,-371.11 770.56,-375"/>
</g>
<!-- Node26&#45;&gt;Node17 -->
<g id="edge39" class="edge">
<title>Node26&#45;&gt;Node17</title>
<path fill="none" stroke="midnightblue" d="M521.57,-267.41C569.03,-260.97 638.81,-255.88 698,-269.1 774.17,-286.12 855.11,-332.68 893.79,-356.94"/>
<polygon fill="midnightblue" stroke="midnightblue" points="892.37,-360.18 902.68,-362.6 896.12,-354.28 892.37,-360.18"/>
</g>
<!-- Node26&#45;&gt;Node18 -->
<g id="edge37" class="edge">
<title>Node26&#45;&gt;Node18</title>
<path fill="none" stroke="midnightblue" d="M480.31,-292.37C500.5,-313.11 539.33,-350.1 579,-372.1 582.89,-374.26 587.06,-376.22 591.31,-377.99"/>
<polygon fill="midnightblue" stroke="midnightblue" points="590.11,-381.27 600.7,-381.55 592.59,-374.73 590.11,-381.27"/>
</g>
<!-- Node26&#45;&gt;Node19 -->
<g id="edge38" class="edge">
<title>Node26&#45;&gt;Node19</title>
<path fill="none" stroke="midnightblue" d="M475.71,-292.17C505.27,-338.01 594.05,-475.71 625.94,-525.17"/>
<polygon fill="midnightblue" stroke="midnightblue" points="623,-527.08 631.36,-533.58 628.88,-523.28 623,-527.08"/>
</g>
<!-- Node26&#45;&gt;Node20 -->
<g id="edge41" class="edge">
<title>Node26&#45;&gt;Node20</title>
<path fill="none" stroke="midnightblue" d="M521.73,-289.54C588.14,-304.53 691.07,-328.45 698,-334.1 726.95,-357.74 717.16,-376.74 734,-410.1 747.58,-437 764.24,-467.63 774.74,-486.66"/>
<polygon fill="midnightblue" stroke="midnightblue" points="771.72,-488.43 779.63,-495.48 777.84,-485.04 771.72,-488.43"/>
</g>
<!-- Node26&#45;&gt;Node21 -->
<g id="edge40" class="edge">
<title>Node26&#45;&gt;Node21</title>
<path fill="none" stroke="midnightblue" d="M497.99,-292.26C520.53,-302.83 551.47,-317.13 579,-329.1 587.1,-332.63 595.9,-336.31 604.14,-339.7"/>
<polygon fill="midnightblue" stroke="midnightblue" points="602.92,-342.98 613.5,-343.52 605.56,-336.5 602.92,-342.98"/>
</g>
<!-- Node27 -->
<g id="node27" class="node">
<title>Node27</title>
<g id="a_node27"><a xlink:href="exif-utils_8c.html#ac90147d0cc97bec7a577bf9576191bf8" target="_top" xlink:title="Store an ExifLong value into memory in EXIF format.">
<polygon fill="white" stroke="black" points="745,-68.6 745,-87.6 827,-87.6 827,-68.6 745,-68.6"/>
<text text-anchor="middle" x="786" y="-75.6" font-family="Helvetica,sans-Serif" font-size="10.00">exif_set_long</text>
</a>
</g>
</g>
<!-- Node26&#45;&gt;Node27 -->
<g id="edge42" class="edge">
<title>Node26&#45;&gt;Node27</title>
<path fill="none" stroke="midnightblue" d="M521.79,-267.38C529.72,-263.95 537.15,-259.33 543,-253.1 589.07,-204.09 529.01,-151.1 579,-106.1 620.9,-68.39 688.35,-66.27 734.58,-70.36"/>
<polygon fill="midnightblue" stroke="midnightblue" points="734.39,-73.85 744.69,-71.38 735.09,-66.89 734.39,-73.85"/>
</g>
<!-- Node28 -->
<g id="node28" class="node">
<title>Node28</title>
<g id="a_node28"><a xlink:href="exif-utils_8c.html#ae6e3b9d1663f9ab9bd462d73a310ca03" target="_top" xlink:title="Store an ExifSLong value into memory in EXIF format.">
<polygon fill="white" stroke="black" points="874.5,-68.6 874.5,-87.6 961.5,-87.6 961.5,-68.6 874.5,-68.6"/>
<text text-anchor="middle" x="918" y="-75.6" font-family="Helvetica,sans-Serif" font-size="10.00">exif_set_slong</text>
</a>
</g>
</g>
<!-- Node26&#45;&gt;Node28 -->
<g id="edge48" class="edge">
<title>Node26&#45;&gt;Node28</title>
<path fill="none" stroke="midnightblue" d="M521.79,-269.32C598.03,-256.69 736.82,-226.49 838,-163.1 866.15,-145.47 890.81,-115.29 904.8,-96.04"/>
<polygon fill="midnightblue" stroke="midnightblue" points="907.7,-98 910.61,-87.81 901.99,-93.96 907.7,-98"/>
</g>
<!-- Node29 -->
<g id="node29" class="node">
<title>Node29</title>
<g id="a_node29"><a xlink:href="exif-utils_8c.html#a400a16b1754150f721e9fca67ad89a52" target="_top" xlink:title="Store an ExifRational value into memory in EXIF format.">
<polygon fill="white" stroke="black" points="589.5,-39.6 589.5,-58.6 687.5,-58.6 687.5,-39.6 589.5,-39.6"/>
<text text-anchor="middle" x="638.5" y="-46.6" font-family="Helvetica,sans-Serif" font-size="10.00">exif_set_rational</text>
</a>
</g>
</g>
<!-- Node26&#45;&gt;Node29 -->
<g id="edge44" class="edge">
<title>Node26&#45;&gt;Node29</title>
<path fill="none" stroke="midnightblue" d="M521.63,-267.76C529.68,-264.29 537.19,-259.56 543,-253.1 597.59,-192.47 527.1,-136.06 579,-73.1 582.07,-69.38 585.81,-66.23 589.89,-63.56"/>
<polygon fill="midnightblue" stroke="midnightblue" points="591.59,-66.63 598.67,-58.74 588.22,-60.49 591.59,-66.63"/>
</g>
<!-- Node30 -->
<g id="node30" class="node">
<title>Node30</title>
<g id="a_node30"><a xlink:href="exif-utils_8c.html#ad905d16e26b4052a1db34dbebdc37341" target="_top" xlink:title="Store an ExifShort value into memory in EXIF format.">
<polygon fill="white" stroke="black" points="595.5,-115.6 595.5,-134.6 681.5,-134.6 681.5,-115.6 595.5,-115.6"/>
<text text-anchor="middle" x="638.5" y="-122.6" font-family="Helvetica,sans-Serif" font-size="10.00">exif_set_short</text>
</a>
</g>
</g>
<!-- Node26&#45;&gt;Node30 -->
<g id="edge46" class="edge">
<title>Node26&#45;&gt;Node30</title>
<path fill="none" stroke="midnightblue" d="M521.69,-266.73C529.53,-263.38 536.97,-258.95 543,-253.1 578.12,-219.06 545.4,-184.65 579,-149.1 582.63,-145.26 586.96,-142.02 591.61,-139.28"/>
<polygon fill="midnightblue" stroke="midnightblue" points="593.48,-142.26 600.82,-134.62 590.32,-136.01 593.48,-142.26"/>
</g>
<!-- Node31 -->
<g id="node31" class="node">
<title>Node31</title>
<g id="a_node31"><a xlink:href="exif-utils_8c.html#a6504651147702fc6db9a5cd4aa997023" target="_top" xlink:title="Store an ExifSShort value into memory in EXIF format.">
<polygon fill="white" stroke="black" points="740.5,-134.6 740.5,-153.6 831.5,-153.6 831.5,-134.6 740.5,-134.6"/>
<text text-anchor="middle" x="786" y="-141.6" font-family="Helvetica,sans-Serif" font-size="10.00">exif_set_sshort</text>
</a>
</g>
</g>
<!-- Node26&#45;&gt;Node31 -->
<g id="edge51" class="edge">
<title>Node26&#45;&gt;Node31</title>
<path fill="none" stroke="midnightblue" d="M521.66,-265.48C529.33,-262.3 536.72,-258.25 543,-253.1 568.84,-231.92 552.17,-207.02 579,-187.1 622.82,-154.58 685.63,-145.37 730.36,-143.34"/>
<polygon fill="midnightblue" stroke="midnightblue" points="730.59,-146.83 740.46,-142.99 730.35,-139.84 730.59,-146.83"/>
</g>
<!-- Node32 -->
<g id="node32" class="node">
<title>Node32</title>
<g id="a_node32"><a xlink:href="exif-utils_8c.html#aca1790a72b1833dff1b0bf728052c3c5" target="_top" xlink:title="Store an ExifSRational value into memory in EXIF format.">
<polygon fill="white" stroke="black" points="734,-11.6 734,-30.6 838,-30.6 838,-11.6 734,-11.6"/>
<text text-anchor="middle" x="786" y="-18.6" font-family="Helvetica,sans-Serif" font-size="10.00">exif_set_srational</text>
</a>
</g>
</g>
<!-- Node26&#45;&gt;Node32 -->
<g id="edge49" class="edge">
<title>Node26&#45;&gt;Node32</title>
<path fill="none" stroke="midnightblue" d="M521.84,-267.95C529.86,-264.45 537.31,-259.66 543,-253.1 608.77,-177.26 504,-96.84 579,-30.1 623.63,9.61 697.61,1.37 743.71,-9.18"/>
<polygon fill="midnightblue" stroke="midnightblue" points="743.12,-12.64 753.67,-11.59 744.77,-5.83 743.12,-12.64"/>
</g>
<!-- Node27&#45;&gt;Node28 -->
<g id="edge43" class="edge">
<title>Node27&#45;&gt;Node28</title>
<path fill="none" stroke="midnightblue" d="M827.07,-78.1C838.72,-78.1 851.64,-78.1 863.96,-78.1"/>
<polygon fill="midnightblue" stroke="midnightblue" points="864.13,-81.6 874.13,-78.1 864.13,-74.6 864.13,-81.6"/>
</g>
<!-- Node29&#45;&gt;Node27 -->
<g id="edge45" class="edge">
<title>Node29&#45;&gt;Node27</title>
<path fill="none" stroke="midnightblue" d="M687.55,-58.68C702.76,-61.71 719.6,-65.07 734.95,-68.13"/>
<polygon fill="midnightblue" stroke="midnightblue" points="734.29,-71.57 744.78,-70.09 735.66,-64.7 734.29,-71.57"/>
</g>
<!-- Node30&#45;&gt;Node31 -->
<g id="edge47" class="edge">
<title>Node30&#45;&gt;Node31</title>
<path fill="none" stroke="midnightblue" d="M681.58,-130.6C696.73,-132.58 714.05,-134.84 730.12,-136.94"/>
<polygon fill="midnightblue" stroke="midnightblue" points="730.11,-140.47 740.47,-138.29 731.01,-133.52 730.11,-140.47"/>
</g>
<!-- Node32&#45;&gt;Node28 -->
<g id="edge50" class="edge">
<title>Node32&#45;&gt;Node28</title>
<path fill="none" stroke="midnightblue" d="M808.76,-30.65C829.85,-39.89 862.06,-54.01 885.86,-64.45"/>
<polygon fill="midnightblue" stroke="midnightblue" points="884.61,-67.72 895.17,-68.53 887.42,-61.31 884.61,-67.72"/>
</g>
<!-- Node34&#45;&gt;Node2 -->
<g id="edge55" class="edge">
<title>Node34&#45;&gt;Node2</title>
<path fill="none" stroke="midnightblue" d="M321.2,-476.69C347.48,-481.92 380.15,-488.42 407.61,-493.89"/>
<polygon fill="midnightblue" stroke="midnightblue" points="406.98,-497.33 417.47,-495.85 408.34,-490.46 406.98,-497.33"/>
</g>
<!-- Node35 -->
<g id="node35" class="node">
<title>Node35</title>
<g id="a_node35"><a xlink:href="exif-mem_8c.html#af28c61972f529be46907956e0b3e7a60" target="_top" xlink:title="Refcount an ExifMem.">
<polygon fill="white" stroke="black" points="422.5,-457.6 422.5,-476.6 507.5,-476.6 507.5,-457.6 422.5,-457.6"/>
<text text-anchor="middle" x="465" y="-464.6" font-family="Helvetica,sans-Serif" font-size="10.00">exif_mem_ref</text>
</a>
</g>
</g>
<!-- Node34&#45;&gt;Node35 -->
<g id="edge56" class="edge">
<title>Node34&#45;&gt;Node35</title>
<path fill="none" stroke="midnightblue" d="M346.57,-467.1C368.41,-467.1 391.86,-467.1 412.02,-467.1"/>
<polygon fill="midnightblue" stroke="midnightblue" points="412.24,-470.6 422.24,-467.1 412.24,-463.6 412.24,-470.6"/>
</g>
</g>
</svg>
