<?xml version="1.0" encoding="UTF-8" standalone="no"?>
<!DOCTYPE svg PUBLIC "-//W3C//DTD SVG 1.1//EN"
 "http://www.w3.org/Graphics/SVG/1.1/DTD/svg11.dtd">
<!-- Generated by graphviz version 2.44.1 (0)
 -->
<!-- Title: entry_set_byte_order Pages: 1 -->
<svg width="696pt" height="474pt"
 viewBox="0.00 0.00 696.00 474.00" xmlns="http://www.w3.org/2000/svg" xmlns:xlink="http://www.w3.org/1999/xlink">
<g id="graph0" class="graph" transform="scale(1 1) rotate(0) translate(4 470)">
<title>entry_set_byte_order</title>
<polygon fill="white" stroke="transparent" points="-4,4 -4,-470 692,-470 692,4 -4,4"/>
<!-- Node1 -->
<g id="node1" class="node">
<title>Node1</title>
<g id="a_node1"><a xlink:title=" ">
<polygon fill="#bfbfbf" stroke="black" points="0,-218.5 0,-237.5 120,-237.5 120,-218.5 0,-218.5"/>
<text text-anchor="middle" x="60" y="-225.5" font-family="Helvetica,sans-Serif" font-size="10.00">entry_set_byte_order</text>
</a>
</g>
</g>
<!-- Node2 -->
<g id="node2" class="node">
<title>Node2</title>
<g id="a_node2"><a xlink:href="exif-utils_8c.html#a54ef3b86ffeb643e9c4434b85ccf2992" target="_top" xlink:title=" ">
<polygon fill="white" stroke="black" points="156,-213 156,-243 269,-243 269,-213 156,-213"/>
<text text-anchor="start" x="164" y="-231" font-family="Helvetica,sans-Serif" font-size="10.00">exif_array_set_byte</text>
<text text-anchor="middle" x="212.5" y="-220" font-family="Helvetica,sans-Serif" font-size="10.00">_order</text>
</a>
</g>
</g>
<!-- Node1&#45;&gt;Node2 -->
<g id="edge1" class="edge">
<title>Node1&#45;&gt;Node2</title>
<path fill="none" stroke="midnightblue" d="M120.05,-228C128.36,-228 136.95,-228 145.39,-228"/>
<polygon fill="midnightblue" stroke="midnightblue" points="145.57,-231.5 155.57,-228 145.57,-224.5 145.57,-231.5"/>
</g>
<!-- Node3 -->
<g id="node3" class="node">
<title>Node3</title>
<g id="a_node3"><a xlink:href="exif-format_8c.html#a924038efe0cd8ebade8f44619dd794f3" target="_top" xlink:title="Return the raw size of the given EXIF data type.">
<polygon fill="white" stroke="black" points="305,-446.5 305,-465.5 424,-465.5 424,-446.5 305,-446.5"/>
<text text-anchor="middle" x="364.5" y="-453.5" font-family="Helvetica,sans-Serif" font-size="10.00">exif_format_get_size</text>
</a>
</g>
</g>
<!-- Node2&#45;&gt;Node3 -->
<g id="edge2" class="edge">
<title>Node2&#45;&gt;Node3</title>
<path fill="none" stroke="midnightblue" d="M216.25,-243.01C223.79,-280.08 248.11,-376.92 305,-432 309.04,-435.91 313.81,-439.22 318.85,-442.01"/>
<polygon fill="midnightblue" stroke="midnightblue" points="317.6,-445.29 328.12,-446.49 320.64,-438.99 317.6,-445.29"/>
</g>
<!-- Node4 -->
<g id="node4" class="node">
<title>Node4</title>
<g id="a_node4"><a xlink:href="exif-utils_8c.html#a4ad94614630897766dd0a5c9bc2a59bf" target="_top" xlink:title="Retrieve an ExifLong value from memory.">
<polygon fill="white" stroke="black" points="470.5,-370.5 470.5,-389.5 553.5,-389.5 553.5,-370.5 470.5,-370.5"/>
<text text-anchor="middle" x="512" y="-377.5" font-family="Helvetica,sans-Serif" font-size="10.00">exif_get_long</text>
</a>
</g>
</g>
<!-- Node2&#45;&gt;Node4 -->
<g id="edge3" class="edge">
<title>Node2&#45;&gt;Node4</title>
<path fill="none" stroke="midnightblue" d="M216.26,-243.21C223.53,-278.21 246.8,-364.13 305,-399 359.76,-431.81 437.79,-409.9 480.38,-393.44"/>
<polygon fill="midnightblue" stroke="midnightblue" points="481.93,-396.59 489.9,-389.61 479.32,-390.09 481.93,-396.59"/>
</g>
<!-- Node5 -->
<g id="node5" class="node">
<title>Node5</title>
<g id="a_node5"><a xlink:href="exif-utils_8c.html#a56b96f076a13da6ed926e1ef29cb2dc3" target="_top" xlink:title="Retrieve an ExifSLong value from memory.">
<polygon fill="white" stroke="black" points="600,-332.5 600,-351.5 688,-351.5 688,-332.5 600,-332.5"/>
<text text-anchor="middle" x="644" y="-339.5" font-family="Helvetica,sans-Serif" font-size="10.00">exif_get_slong</text>
</a>
</g>
</g>
<!-- Node2&#45;&gt;Node5 -->
<g id="edge9" class="edge">
<title>Node2&#45;&gt;Node5</title>
<path fill="none" stroke="midnightblue" d="M222.76,-243.23C237.19,-265.38 267.33,-305.72 305,-323 397.86,-365.6 520.45,-359.11 589.58,-350.55"/>
<polygon fill="midnightblue" stroke="midnightblue" points="590.33,-353.99 599.8,-349.22 589.43,-347.04 590.33,-353.99"/>
</g>
<!-- Node6 -->
<g id="node6" class="node">
<title>Node6</title>
<g id="a_node6"><a xlink:href="exif-utils_8c.html#a1feb547c289aa57a4d2119338b03706c" target="_top" xlink:title="Retrieve an ExifRational value from memory.">
<polygon fill="white" stroke="black" points="315,-370.5 315,-389.5 414,-389.5 414,-370.5 315,-370.5"/>
<text text-anchor="middle" x="364.5" y="-377.5" font-family="Helvetica,sans-Serif" font-size="10.00">exif_get_rational</text>
</a>
</g>
</g>
<!-- Node2&#45;&gt;Node6 -->
<g id="edge5" class="edge">
<title>Node2&#45;&gt;Node6</title>
<path fill="none" stroke="midnightblue" d="M220.7,-243.13C233.94,-269.46 264.53,-323.95 305,-356 310.03,-359.98 315.8,-363.39 321.73,-366.29"/>
<polygon fill="midnightblue" stroke="midnightblue" points="320.51,-369.58 331.07,-370.43 323.35,-363.18 320.51,-369.58"/>
</g>
<!-- Node7 -->
<g id="node7" class="node">
<title>Node7</title>
<g id="a_node7"><a xlink:href="exif-utils_8c.html#a4b4acf537a8c6b9405e7b53be868e4d7" target="_top" xlink:title="Retrieve an ExifShort value from memory.">
<polygon fill="white" stroke="black" points="321.5,-294.5 321.5,-313.5 407.5,-313.5 407.5,-294.5 321.5,-294.5"/>
<text text-anchor="middle" x="364.5" y="-301.5" font-family="Helvetica,sans-Serif" font-size="10.00">exif_get_short</text>
</a>
</g>
</g>
<!-- Node2&#45;&gt;Node7 -->
<g id="edge7" class="edge">
<title>Node2&#45;&gt;Node7</title>
<path fill="none" stroke="midnightblue" d="M238.28,-243.23C256.43,-254.09 281.84,-268.72 305,-280 312.58,-283.69 320.87,-287.32 328.77,-290.61"/>
<polygon fill="midnightblue" stroke="midnightblue" points="327.56,-293.89 338.14,-294.41 330.19,-287.41 327.56,-293.89"/>
</g>
<!-- Node8 -->
<g id="node8" class="node">
<title>Node8</title>
<g id="a_node8"><a xlink:href="exif-utils_8c.html#a6baf094a71392f9cea23ad633ec13c8b" target="_top" xlink:title="Retrieve an ExifSShort value from memory.">
<polygon fill="white" stroke="black" points="466,-285.5 466,-304.5 558,-304.5 558,-285.5 466,-285.5"/>
<text text-anchor="middle" x="512" y="-292.5" font-family="Helvetica,sans-Serif" font-size="10.00">exif_get_sshort</text>
</a>
</g>
</g>
<!-- Node2&#45;&gt;Node8 -->
<g id="edge12" class="edge">
<title>Node2&#45;&gt;Node8</title>
<path fill="none" stroke="midnightblue" d="M269.07,-242.31C280.91,-245.26 293.35,-248.29 305,-251 356.01,-262.85 414.4,-275.21 455.97,-283.8"/>
<polygon fill="midnightblue" stroke="midnightblue" points="455.39,-287.26 465.89,-285.85 456.8,-280.4 455.39,-287.26"/>
</g>
<!-- Node9 -->
<g id="node9" class="node">
<title>Node9</title>
<g id="a_node9"><a xlink:href="exif-utils_8c.html#adb97c3499488d5642a82df1cb16dc2cb" target="_top" xlink:title="Retrieve an ExifSRational value from memory.">
<polygon fill="white" stroke="black" points="460,-237.5 460,-256.5 564,-256.5 564,-237.5 460,-237.5"/>
<text text-anchor="middle" x="512" y="-244.5" font-family="Helvetica,sans-Serif" font-size="10.00">exif_get_srational</text>
</a>
</g>
</g>
<!-- Node2&#45;&gt;Node9 -->
<g id="edge10" class="edge">
<title>Node2&#45;&gt;Node9</title>
<path fill="none" stroke="midnightblue" d="M269.11,-231.55C320.35,-234.82 396.27,-239.67 449.34,-243.06"/>
<polygon fill="midnightblue" stroke="midnightblue" points="449.44,-246.58 459.64,-243.72 449.89,-239.59 449.44,-246.58"/>
</g>
<!-- Node10 -->
<g id="node10" class="node">
<title>Node10</title>
<g id="a_node10"><a xlink:href="exif-utils_8c.html#ac90147d0cc97bec7a577bf9576191bf8" target="_top" xlink:title="Store an ExifLong value into memory in EXIF format.">
<polygon fill="white" stroke="black" points="471,-142.5 471,-161.5 553,-161.5 553,-142.5 471,-142.5"/>
<text text-anchor="middle" x="512" y="-149.5" font-family="Helvetica,sans-Serif" font-size="10.00">exif_set_long</text>
</a>
</g>
</g>
<!-- Node2&#45;&gt;Node10 -->
<g id="edge13" class="edge">
<title>Node2&#45;&gt;Node10</title>
<path fill="none" stroke="midnightblue" d="M269.11,-213.79C325.2,-199.47 410.85,-177.58 463.75,-164.07"/>
<polygon fill="midnightblue" stroke="midnightblue" points="464.73,-167.43 473.56,-161.57 463,-160.65 464.73,-167.43"/>
</g>
<!-- Node11 -->
<g id="node11" class="node">
<title>Node11</title>
<g id="a_node11"><a xlink:href="exif-utils_8c.html#ae6e3b9d1663f9ab9bd462d73a310ca03" target="_top" xlink:title="Store an ExifSLong value into memory in EXIF format.">
<polygon fill="white" stroke="black" points="600.5,-104.5 600.5,-123.5 687.5,-123.5 687.5,-104.5 600.5,-104.5"/>
<text text-anchor="middle" x="644" y="-111.5" font-family="Helvetica,sans-Serif" font-size="10.00">exif_set_slong</text>
</a>
</g>
</g>
<!-- Node2&#45;&gt;Node11 -->
<g id="edge19" class="edge">
<title>Node2&#45;&gt;Node11</title>
<path fill="none" stroke="midnightblue" d="M222.76,-212.77C237.19,-190.62 267.33,-150.28 305,-133 398.11,-90.28 521.12,-96.93 590.15,-105.52"/>
<polygon fill="midnightblue" stroke="midnightblue" points="589.97,-109.02 600.34,-106.85 590.88,-102.08 589.97,-109.02"/>
</g>
<!-- Node12 -->
<g id="node12" class="node">
<title>Node12</title>
<g id="a_node12"><a xlink:href="exif-utils_8c.html#a400a16b1754150f721e9fca67ad89a52" target="_top" xlink:title="Store an ExifRational value into memory in EXIF format.">
<polygon fill="white" stroke="black" points="315.5,-142.5 315.5,-161.5 413.5,-161.5 413.5,-142.5 315.5,-142.5"/>
<text text-anchor="middle" x="364.5" y="-149.5" font-family="Helvetica,sans-Serif" font-size="10.00">exif_set_rational</text>
</a>
</g>
</g>
<!-- Node2&#45;&gt;Node12 -->
<g id="edge15" class="edge">
<title>Node2&#45;&gt;Node12</title>
<path fill="none" stroke="midnightblue" d="M238.28,-212.77C256.43,-201.91 281.84,-187.28 305,-176 312.58,-172.31 320.87,-168.68 328.77,-165.39"/>
<polygon fill="midnightblue" stroke="midnightblue" points="330.19,-168.59 338.14,-161.59 327.56,-162.11 330.19,-168.59"/>
</g>
<!-- Node13 -->
<g id="node13" class="node">
<title>Node13</title>
<g id="a_node13"><a xlink:href="exif-utils_8c.html#ad905d16e26b4052a1db34dbebdc37341" target="_top" xlink:title="Store an ExifShort value into memory in EXIF format.">
<polygon fill="white" stroke="black" points="321.5,-66.5 321.5,-85.5 407.5,-85.5 407.5,-66.5 321.5,-66.5"/>
<text text-anchor="middle" x="364.5" y="-73.5" font-family="Helvetica,sans-Serif" font-size="10.00">exif_set_short</text>
</a>
</g>
</g>
<!-- Node2&#45;&gt;Node13 -->
<g id="edge17" class="edge">
<title>Node2&#45;&gt;Node13</title>
<path fill="none" stroke="midnightblue" d="M220.7,-212.87C233.94,-186.54 264.53,-132.05 305,-100 310.03,-96.02 315.8,-92.61 321.73,-89.71"/>
<polygon fill="midnightblue" stroke="midnightblue" points="323.35,-92.82 331.07,-85.57 320.51,-86.42 323.35,-92.82"/>
</g>
<!-- Node14 -->
<g id="node14" class="node">
<title>Node14</title>
<g id="a_node14"><a xlink:href="exif-utils_8c.html#a6504651147702fc6db9a5cd4aa997023" target="_top" xlink:title="Store an ExifSShort value into memory in EXIF format.">
<polygon fill="white" stroke="black" points="466.5,-57.5 466.5,-76.5 557.5,-76.5 557.5,-57.5 466.5,-57.5"/>
<text text-anchor="middle" x="512" y="-64.5" font-family="Helvetica,sans-Serif" font-size="10.00">exif_set_sshort</text>
</a>
</g>
</g>
<!-- Node2&#45;&gt;Node14 -->
<g id="edge22" class="edge">
<title>Node2&#45;&gt;Node14</title>
<path fill="none" stroke="midnightblue" d="M216.26,-212.79C223.53,-177.79 246.8,-91.87 305,-57 358,-25.25 433.15,-40.84 476.5,-54.39"/>
<polygon fill="midnightblue" stroke="midnightblue" points="475.44,-57.72 486.03,-57.49 477.61,-51.06 475.44,-57.72"/>
</g>
<!-- Node15 -->
<g id="node15" class="node">
<title>Node15</title>
<g id="a_node15"><a xlink:href="exif-utils_8c.html#aca1790a72b1833dff1b0bf728052c3c5" target="_top" xlink:title="Store an ExifSRational value into memory in EXIF format.">
<polygon fill="white" stroke="black" points="460,-0.5 460,-19.5 564,-19.5 564,-0.5 460,-0.5"/>
<text text-anchor="middle" x="512" y="-7.5" font-family="Helvetica,sans-Serif" font-size="10.00">exif_set_srational</text>
</a>
</g>
</g>
<!-- Node2&#45;&gt;Node15 -->
<g id="edge20" class="edge">
<title>Node2&#45;&gt;Node15</title>
<path fill="none" stroke="midnightblue" d="M215.66,-212.73C221.83,-175.2 243.31,-78.33 305,-34 346.64,-4.08 405.7,-0.02 449.91,-2.31"/>
<polygon fill="midnightblue" stroke="midnightblue" points="449.76,-5.81 459.96,-2.95 450.2,1.18 449.76,-5.81"/>
</g>
<!-- Node4&#45;&gt;Node5 -->
<g id="edge4" class="edge">
<title>Node4&#45;&gt;Node5</title>
<path fill="none" stroke="midnightblue" d="M545.8,-370.41C562.28,-365.6 582.44,-359.7 600.13,-354.53"/>
<polygon fill="midnightblue" stroke="midnightblue" points="601.59,-357.75 610.21,-351.59 599.63,-351.03 601.59,-357.75"/>
</g>
<!-- Node6&#45;&gt;Node4 -->
<g id="edge6" class="edge">
<title>Node6&#45;&gt;Node4</title>
<path fill="none" stroke="midnightblue" d="M414.35,-380C429.11,-380 445.34,-380 460.22,-380"/>
<polygon fill="midnightblue" stroke="midnightblue" points="460.27,-383.5 470.27,-380 460.27,-376.5 460.27,-383.5"/>
</g>
<!-- Node7&#45;&gt;Node8 -->
<g id="edge8" class="edge">
<title>Node7&#45;&gt;Node8</title>
<path fill="none" stroke="midnightblue" d="M407.58,-301.4C422.59,-300.47 439.73,-299.41 455.69,-298.42"/>
<polygon fill="midnightblue" stroke="midnightblue" points="456.2,-301.9 465.96,-297.79 455.77,-294.91 456.2,-301.9"/>
</g>
<!-- Node9&#45;&gt;Node5 -->
<g id="edge11" class="edge">
<title>Node9&#45;&gt;Node5</title>
<path fill="none" stroke="midnightblue" d="M531.9,-256.7C541.73,-262 553.79,-268.92 564,-276 586.05,-291.3 609.42,-311.36 624.97,-325.34"/>
<polygon fill="midnightblue" stroke="midnightblue" points="622.99,-328.27 632.75,-332.4 627.7,-323.09 622.99,-328.27"/>
</g>
<!-- Node10&#45;&gt;Node11 -->
<g id="edge14" class="edge">
<title>Node10&#45;&gt;Node11</title>
<path fill="none" stroke="midnightblue" d="M545.8,-142.41C562.28,-137.6 582.44,-131.7 600.13,-126.53"/>
<polygon fill="midnightblue" stroke="midnightblue" points="601.59,-129.75 610.21,-123.59 599.63,-123.03 601.59,-129.75"/>
</g>
<!-- Node12&#45;&gt;Node10 -->
<g id="edge16" class="edge">
<title>Node12&#45;&gt;Node10</title>
<path fill="none" stroke="midnightblue" d="M413.55,-152C428.61,-152 445.28,-152 460.51,-152"/>
<polygon fill="midnightblue" stroke="midnightblue" points="460.78,-155.5 470.78,-152 460.78,-148.5 460.78,-155.5"/>
</g>
<!-- Node13&#45;&gt;Node14 -->
<g id="edge18" class="edge">
<title>Node13&#45;&gt;Node14</title>
<path fill="none" stroke="midnightblue" d="M407.58,-73.4C422.73,-72.46 440.05,-71.39 456.12,-70.39"/>
<polygon fill="midnightblue" stroke="midnightblue" points="456.71,-73.86 466.47,-69.75 456.28,-66.88 456.71,-73.86"/>
</g>
<!-- Node15&#45;&gt;Node11 -->
<g id="edge21" class="edge">
<title>Node15&#45;&gt;Node11</title>
<path fill="none" stroke="midnightblue" d="M526.58,-19.8C536.94,-27.36 551.52,-38.15 564,-48 584.83,-64.44 608.08,-84.02 623.93,-97.56"/>
<polygon fill="midnightblue" stroke="midnightblue" points="622.04,-100.55 631.91,-104.4 626.6,-95.24 622.04,-100.55"/>
</g>
</g>
</svg>
