<?xml version="1.0" encoding="UTF-8" standalone="no"?>
<!DOCTYPE svg PUBLIC "-//W3C//DTD SVG 1.1//EN"
 "http://www.w3.org/Graphics/SVG/1.1/DTD/svg11.dtd">
<!-- Generated by graphviz version 2.44.1 (0)
 -->
<!-- Title: libexif/canon/exif&#45;mnote&#45;data&#45;canon.h Pages: 1 -->
<svg width="786pt" height="531pt"
 viewBox="0.00 0.00 786.00 531.00" xmlns="http://www.w3.org/2000/svg" xmlns:xlink="http://www.w3.org/1999/xlink">
<g id="graph0" class="graph" transform="scale(1 1) rotate(0) translate(4 527)">
<title>libexif/canon/exif&#45;mnote&#45;data&#45;canon.h</title>
<polygon fill="white" stroke="transparent" points="-4,4 -4,-527 782,-527 782,4 -4,4"/>
<!-- Node1 -->
<g id="node1" class="node">
<title>Node1</title>
<g id="a_node1"><a xlink:title=" ">
<polygon fill="#bfbfbf" stroke="black" points="118.5,-492.5 118.5,-522.5 237.5,-522.5 237.5,-492.5 118.5,-492.5"/>
<text text-anchor="start" x="126.5" y="-510.5" font-family="Helvetica,sans-Serif" font-size="10.00">libexif/canon/exif</text>
<text text-anchor="middle" x="178" y="-499.5" font-family="Helvetica,sans-Serif" font-size="10.00">&#45;mnote&#45;data&#45;canon.h</text>
</a>
</g>
</g>
<!-- Node2 -->
<g id="node2" class="node">
<title>Node2</title>
<g id="a_node2"><a xlink:href="exif-byte-order_8h.html" target="_top" xlink:title="Defines the ExifByteOrder enum and the associated functions.">
<polygon fill="white" stroke="black" points="203.5,-0.5 203.5,-19.5 334.5,-19.5 334.5,-0.5 203.5,-0.5"/>
<text text-anchor="middle" x="269" y="-7.5" font-family="Helvetica,sans-Serif" font-size="10.00">libexif/exif&#45;byte&#45;order.h</text>
</a>
</g>
</g>
<!-- Node1&#45;&gt;Node2 -->
<g id="edge1" class="edge">
<title>Node1&#45;&gt;Node2</title>
<path fill="none" stroke="midnightblue" d="M126.52,-492.38C73.94,-474.47 0,-437.98 0,-374.5 0,-374.5 0,-374.5 0,-121 0,-72.02 44.64,-76.77 89,-56 124.45,-39.4 166.79,-28.42 201.51,-21.47"/>
<polygon fill="midnightblue" stroke="midnightblue" points="202.4,-24.86 211.55,-19.52 201.07,-17.99 202.4,-24.86"/>
</g>
<!-- Node3 -->
<g id="node3" class="node">
<title>Node3</title>
<g id="a_node3"><a xlink:href="exif-mnote-data_8h.html" target="_top" xlink:title="Handling EXIF MakerNote tags.">
<polygon fill="white" stroke="black" points="142.5,-224.5 142.5,-254.5 245.5,-254.5 245.5,-224.5 142.5,-224.5"/>
<text text-anchor="start" x="150.5" y="-242.5" font-family="Helvetica,sans-Serif" font-size="10.00">libexif/exif&#45;mnote</text>
<text text-anchor="middle" x="194" y="-231.5" font-family="Helvetica,sans-Serif" font-size="10.00">&#45;data.h</text>
</a>
</g>
</g>
<!-- Node1&#45;&gt;Node3 -->
<g id="edge2" class="edge">
<title>Node1&#45;&gt;Node3</title>
<path fill="none" stroke="midnightblue" d="M178.86,-492.2C181.47,-448.89 189.29,-318.82 192.55,-264.62"/>
<polygon fill="midnightblue" stroke="midnightblue" points="196.05,-264.74 193.15,-254.55 189.06,-264.32 196.05,-264.74"/>
</g>
<!-- Node5 -->
<g id="node5" class="node">
<title>Node5</title>
<g id="a_node5"><a xlink:href="exif-mem_8h.html" target="_top" xlink:title="Define the ExifMem data type and the associated functions.">
<polygon fill="white" stroke="black" points="310,-112.5 310,-131.5 416,-131.5 416,-112.5 310,-112.5"/>
<text text-anchor="middle" x="363" y="-119.5" font-family="Helvetica,sans-Serif" font-size="10.00">libexif/exif&#45;mem.h</text>
</a>
</g>
</g>
<!-- Node1&#45;&gt;Node5 -->
<g id="edge14" class="edge">
<title>Node1&#45;&gt;Node5</title>
<path fill="none" stroke="midnightblue" d="M144.11,-492.44C102.68,-472.72 38,-432.63 38,-374.5 38,-374.5 38,-374.5 38,-305.5 38,-225.26 86.15,-209.21 155,-168 198.87,-141.73 256.11,-130.72 299.43,-126.14"/>
<polygon fill="midnightblue" stroke="midnightblue" points="299.95,-129.6 309.56,-125.15 299.27,-122.63 299.95,-129.6"/>
</g>
<!-- Node10 -->
<g id="node10" class="node">
<title>Node10</title>
<g id="a_node10"><a xlink:href="exif-mnote-data-priv_8h.html" target="_top" xlink:title=" ">
<polygon fill="white" stroke="black" points="66.5,-291.5 66.5,-321.5 169.5,-321.5 169.5,-291.5 66.5,-291.5"/>
<text text-anchor="start" x="74.5" y="-309.5" font-family="Helvetica,sans-Serif" font-size="10.00">libexif/exif&#45;mnote</text>
<text text-anchor="middle" x="118" y="-298.5" font-family="Helvetica,sans-Serif" font-size="10.00">&#45;data&#45;priv.h</text>
</a>
</g>
</g>
<!-- Node1&#45;&gt;Node10 -->
<g id="edge10" class="edge">
<title>Node1&#45;&gt;Node10</title>
<path fill="none" stroke="midnightblue" d="M173.68,-492.19C163.48,-458.34 137.77,-373.08 125.18,-331.31"/>
<polygon fill="midnightblue" stroke="midnightblue" points="128.51,-330.25 122.28,-321.68 121.81,-332.27 128.51,-330.25"/>
</g>
<!-- Node11 -->
<g id="node11" class="node">
<title>Node11</title>
<g id="a_node11"><a xlink:href="exif-data_8h.html" target="_top" xlink:title="Defines the ExifData type and the associated functions.">
<polygon fill="white" stroke="black" points="386,-297 386,-316 488,-316 488,-297 386,-297"/>
<text text-anchor="middle" x="437" y="-304" font-family="Helvetica,sans-Serif" font-size="10.00">libexif/exif&#45;data.h</text>
</a>
</g>
</g>
<!-- Node1&#45;&gt;Node11 -->
<g id="edge15" class="edge">
<title>Node1&#45;&gt;Node11</title>
<path fill="none" stroke="midnightblue" d="M196.63,-492.19C244.13,-455.69 369.42,-359.43 417.67,-322.35"/>
<polygon fill="midnightblue" stroke="midnightblue" points="419.95,-325.01 425.75,-316.14 415.69,-319.46 419.95,-325.01"/>
</g>
<!-- Node17 -->
<g id="node17" class="node">
<title>Node17</title>
<g id="a_node17"><a xlink:href="mnote-canon-entry_8h.html" target="_top" xlink:title=" ">
<polygon fill="white" stroke="black" points="607,-425.5 607,-455.5 721,-455.5 721,-425.5 607,-425.5"/>
<text text-anchor="start" x="615" y="-443.5" font-family="Helvetica,sans-Serif" font-size="10.00">libexif/canon/mnote</text>
<text text-anchor="middle" x="664" y="-432.5" font-family="Helvetica,sans-Serif" font-size="10.00">&#45;canon&#45;entry.h</text>
</a>
</g>
</g>
<!-- Node1&#45;&gt;Node17 -->
<g id="edge34" class="edge">
<title>Node1&#45;&gt;Node17</title>
<path fill="none" stroke="midnightblue" d="M237.59,-498.53C328.57,-486.36 501.54,-463.23 596.84,-450.48"/>
<polygon fill="midnightblue" stroke="midnightblue" points="597.49,-453.93 606.94,-449.13 596.56,-446.99 597.49,-453.93"/>
</g>
<!-- Node4 -->
<g id="node4" class="node">
<title>Node4</title>
<g id="a_node4"><a xlink:href="exif-log_8h.html" target="_top" xlink:title="Log message infrastructure.">
<polygon fill="white" stroke="black" points="164.5,-168.5 164.5,-187.5 259.5,-187.5 259.5,-168.5 164.5,-168.5"/>
<text text-anchor="middle" x="212" y="-175.5" font-family="Helvetica,sans-Serif" font-size="10.00">libexif/exif&#45;log.h</text>
</a>
</g>
</g>
<!-- Node3&#45;&gt;Node4 -->
<g id="edge3" class="edge">
<title>Node3&#45;&gt;Node4</title>
<path fill="none" stroke="midnightblue" d="M198.27,-224.4C200.72,-216.29 203.83,-206.01 206.47,-197.28"/>
<polygon fill="midnightblue" stroke="midnightblue" points="209.84,-198.24 209.38,-187.66 203.14,-196.22 209.84,-198.24"/>
</g>
<!-- Node4&#45;&gt;Node5 -->
<g id="edge4" class="edge">
<title>Node4&#45;&gt;Node5</title>
<path fill="none" stroke="midnightblue" d="M235.93,-168.44C261.22,-159.4 301.3,-145.06 329.68,-134.92"/>
<polygon fill="midnightblue" stroke="midnightblue" points="330.95,-138.18 339.19,-131.52 328.59,-131.59 330.95,-138.18"/>
</g>
<!-- Node9 -->
<g id="node9" class="node">
<title>Node9</title>
<g id="a_node9"><a xlink:title=" ">
<polygon fill="white" stroke="#bfbfbf" points="184,-112.5 184,-131.5 240,-131.5 240,-112.5 184,-112.5"/>
<text text-anchor="middle" x="212" y="-119.5" font-family="Helvetica,sans-Serif" font-size="10.00">stdarg.h</text>
</a>
</g>
</g>
<!-- Node4&#45;&gt;Node9 -->
<g id="edge9" class="edge">
<title>Node4&#45;&gt;Node9</title>
<path fill="none" stroke="midnightblue" d="M212,-168.08C212,-161.01 212,-150.86 212,-141.99"/>
<polygon fill="midnightblue" stroke="midnightblue" points="215.5,-141.75 212,-131.75 208.5,-141.75 215.5,-141.75"/>
</g>
<!-- Node6 -->
<g id="node6" class="node">
<title>Node6</title>
<g id="a_node6"><a xlink:href="exif-utils_8h.html" target="_top" xlink:title="EXIF data manipulation functions and types.">
<polygon fill="white" stroke="black" points="348.5,-56.5 348.5,-75.5 449.5,-75.5 449.5,-56.5 348.5,-56.5"/>
<text text-anchor="middle" x="399" y="-63.5" font-family="Helvetica,sans-Serif" font-size="10.00">libexif/exif&#45;utils.h</text>
</a>
</g>
</g>
<!-- Node5&#45;&gt;Node6 -->
<g id="edge5" class="edge">
<title>Node5&#45;&gt;Node6</title>
<path fill="none" stroke="midnightblue" d="M368.94,-112.08C373.98,-104.53 381.34,-93.49 387.51,-84.23"/>
<polygon fill="midnightblue" stroke="midnightblue" points="390.53,-86.01 393.17,-75.75 384.71,-82.13 390.53,-86.01"/>
</g>
<!-- Node6&#45;&gt;Node2 -->
<g id="edge6" class="edge">
<title>Node6&#45;&gt;Node2</title>
<path fill="none" stroke="midnightblue" d="M378.4,-56.44C357.01,-47.56 323.32,-33.56 298.98,-23.45"/>
<polygon fill="midnightblue" stroke="midnightblue" points="300.08,-20.12 289.5,-19.52 297.39,-26.58 300.08,-20.12"/>
</g>
<!-- Node7 -->
<g id="node7" class="node">
<title>Node7</title>
<g id="a_node7"><a xlink:href="exif-format_8h.html" target="_top" xlink:title="Handling native EXIF data types.">
<polygon fill="white" stroke="black" points="463.5,-0.5 463.5,-19.5 576.5,-19.5 576.5,-0.5 463.5,-0.5"/>
<text text-anchor="middle" x="520" y="-7.5" font-family="Helvetica,sans-Serif" font-size="10.00">libexif/exif&#45;format.h</text>
</a>
</g>
</g>
<!-- Node6&#45;&gt;Node7 -->
<g id="edge7" class="edge">
<title>Node6&#45;&gt;Node7</title>
<path fill="none" stroke="midnightblue" d="M418.17,-56.44C437.91,-47.64 468.89,-33.81 491.49,-23.72"/>
<polygon fill="midnightblue" stroke="midnightblue" points="493.21,-26.79 500.92,-19.52 490.36,-20.4 493.21,-26.79"/>
</g>
<!-- Node8 -->
<g id="node8" class="node">
<title>Node8</title>
<g id="a_node8"><a xlink:title=" ">
<polygon fill="white" stroke="#bfbfbf" points="353,-0.5 353,-19.5 445,-19.5 445,-0.5 353,-0.5"/>
<text text-anchor="middle" x="399" y="-7.5" font-family="Helvetica,sans-Serif" font-size="10.00">libexif/_stdint.h</text>
</a>
</g>
</g>
<!-- Node6&#45;&gt;Node8 -->
<g id="edge8" class="edge">
<title>Node6&#45;&gt;Node8</title>
<path fill="none" stroke="midnightblue" d="M399,-56.08C399,-49.01 399,-38.86 399,-29.99"/>
<polygon fill="midnightblue" stroke="midnightblue" points="402.5,-29.75 399,-19.75 395.5,-29.75 402.5,-29.75"/>
</g>
<!-- Node10&#45;&gt;Node2 -->
<g id="edge12" class="edge">
<title>Node10&#45;&gt;Node2</title>
<path fill="none" stroke="midnightblue" d="M109.9,-291.21C97.7,-268.3 76,-221.58 76,-179 76,-179 76,-179 76,-121 76,-62.42 143.93,-34.63 199.19,-21.72"/>
<polygon fill="midnightblue" stroke="midnightblue" points="199.98,-25.13 208.99,-19.55 198.47,-18.29 199.98,-25.13"/>
</g>
<!-- Node10&#45;&gt;Node3 -->
<g id="edge11" class="edge">
<title>Node10&#45;&gt;Node3</title>
<path fill="none" stroke="midnightblue" d="M134.49,-291.4C144.85,-282.54 158.38,-270.96 169.93,-261.09"/>
<polygon fill="midnightblue" stroke="midnightblue" points="172.22,-263.74 177.54,-254.58 167.67,-258.42 172.22,-263.74"/>
</g>
<!-- Node10&#45;&gt;Node4 -->
<g id="edge13" class="edge">
<title>Node10&#45;&gt;Node4</title>
<path fill="none" stroke="midnightblue" d="M117.16,-291.45C116.83,-274.03 118.67,-244.18 133,-224 143.44,-209.29 160.31,-198.75 175.78,-191.58"/>
<polygon fill="midnightblue" stroke="midnightblue" points="177.35,-194.71 185.16,-187.55 174.59,-188.28 177.35,-194.71"/>
</g>
<!-- Node11&#45;&gt;Node2 -->
<g id="edge16" class="edge">
<title>Node11&#45;&gt;Node2</title>
<path fill="none" stroke="midnightblue" d="M416.02,-296.92C397.8,-288.56 371.8,-274.29 355,-255 295.45,-186.58 276.33,-74.26 270.92,-29.89"/>
<polygon fill="midnightblue" stroke="midnightblue" points="274.37,-29.24 269.77,-19.7 267.41,-30.02 274.37,-29.24"/>
</g>
<!-- Node11&#45;&gt;Node3 -->
<g id="edge32" class="edge">
<title>Node11&#45;&gt;Node3</title>
<path fill="none" stroke="midnightblue" d="M404.98,-296.94C367.08,-286.8 303.11,-269.69 255.53,-256.96"/>
<polygon fill="midnightblue" stroke="midnightblue" points="256.2,-253.52 245.64,-254.31 254.39,-260.28 256.2,-253.52"/>
</g>
<!-- Node11&#45;&gt;Node4 -->
<g id="edge19" class="edge">
<title>Node11&#45;&gt;Node4</title>
<path fill="none" stroke="midnightblue" d="M402.85,-296.98C373.7,-288.81 331.33,-274.8 298,-255 270.03,-238.38 242.75,-212.04 226.66,-195.15"/>
<polygon fill="midnightblue" stroke="midnightblue" points="229.09,-192.62 219.71,-187.69 223.97,-197.39 229.09,-192.62"/>
</g>
<!-- Node11&#45;&gt;Node5 -->
<g id="edge33" class="edge">
<title>Node11&#45;&gt;Node5</title>
<path fill="none" stroke="midnightblue" d="M417.33,-296.88C401.21,-288.65 379.42,-274.61 369,-255 349.68,-218.67 354.49,-168.44 359.1,-141.63"/>
<polygon fill="midnightblue" stroke="midnightblue" points="362.56,-142.16 360.99,-131.69 355.68,-140.86 362.56,-142.16"/>
</g>
<!-- Node12 -->
<g id="node12" class="node">
<title>Node12</title>
<g id="a_node12"><a xlink:href="exif-data-type_8h.html" target="_top" xlink:title=" ">
<polygon fill="white" stroke="black" points="584,-112.5 584,-131.5 712,-131.5 712,-112.5 584,-112.5"/>
<text text-anchor="middle" x="648" y="-119.5" font-family="Helvetica,sans-Serif" font-size="10.00">libexif/exif&#45;data&#45;type.h</text>
</a>
</g>
</g>
<!-- Node11&#45;&gt;Node12 -->
<g id="edge17" class="edge">
<title>Node11&#45;&gt;Node12</title>
<path fill="none" stroke="midnightblue" d="M483.68,-296.93C537.91,-284.07 624.14,-253.87 657,-188 664.3,-173.36 660.58,-154.69 655.9,-141.12"/>
<polygon fill="midnightblue" stroke="midnightblue" points="659.04,-139.54 652.14,-131.5 652.53,-142.09 659.04,-139.54"/>
</g>
<!-- Node13 -->
<g id="node13" class="node">
<title>Node13</title>
<g id="a_node13"><a xlink:href="exif-ifd_8h.html" target="_top" xlink:title=" ">
<polygon fill="white" stroke="black" points="472.5,-112.5 472.5,-131.5 565.5,-131.5 565.5,-112.5 472.5,-112.5"/>
<text text-anchor="middle" x="519" y="-119.5" font-family="Helvetica,sans-Serif" font-size="10.00">libexif/exif&#45;ifd.h</text>
</a>
</g>
</g>
<!-- Node11&#45;&gt;Node13 -->
<g id="edge18" class="edge">
<title>Node11&#45;&gt;Node13</title>
<path fill="none" stroke="midnightblue" d="M455.44,-296.95C471.17,-288.61 492.95,-274.35 504,-255 524.52,-219.08 523.65,-168.69 521.29,-141.74"/>
<polygon fill="midnightblue" stroke="midnightblue" points="524.76,-141.32 520.24,-131.74 517.8,-142.05 524.76,-141.32"/>
</g>
<!-- Node14 -->
<g id="node14" class="node">
<title>Node14</title>
<g id="a_node14"><a xlink:href="exif-tag_8h.html" target="_top" xlink:title="Handling EXIF tags.">
<polygon fill="white" stroke="black" points="552,-168.5 552,-187.5 648,-187.5 648,-168.5 552,-168.5"/>
<text text-anchor="middle" x="600" y="-175.5" font-family="Helvetica,sans-Serif" font-size="10.00">libexif/exif&#45;tag.h</text>
</a>
</g>
</g>
<!-- Node11&#45;&gt;Node14 -->
<g id="edge20" class="edge">
<title>Node11&#45;&gt;Node14</title>
<path fill="none" stroke="midnightblue" d="M460.68,-296.99C482.26,-288.5 514.28,-273.99 538,-255 559.11,-238.1 577.89,-212.91 589.11,-196.23"/>
<polygon fill="midnightblue" stroke="midnightblue" points="592.26,-197.8 594.8,-187.52 586.4,-193.98 592.26,-197.8"/>
</g>
<!-- Node15 -->
<g id="node15" class="node">
<title>Node15</title>
<g id="a_node15"><a xlink:href="exif-content_8h.html" target="_top" xlink:title="Handling EXIF IFDs.">
<polygon fill="white" stroke="black" points="378.5,-230 378.5,-249 495.5,-249 495.5,-230 378.5,-230"/>
<text text-anchor="middle" x="437" y="-237" font-family="Helvetica,sans-Serif" font-size="10.00">libexif/exif&#45;content.h</text>
</a>
</g>
</g>
<!-- Node11&#45;&gt;Node15 -->
<g id="edge23" class="edge">
<title>Node11&#45;&gt;Node15</title>
<path fill="none" stroke="midnightblue" d="M432.21,-296.73C430.2,-287.18 429.74,-271.62 430.82,-259.28"/>
<polygon fill="midnightblue" stroke="midnightblue" points="434.32,-259.52 432.24,-249.13 427.38,-258.54 434.32,-259.52"/>
</g>
<!-- Node14&#45;&gt;Node12 -->
<g id="edge22" class="edge">
<title>Node14&#45;&gt;Node12</title>
<path fill="none" stroke="midnightblue" d="M607.93,-168.08C614.85,-160.3 625.07,-148.8 633.45,-139.37"/>
<polygon fill="midnightblue" stroke="midnightblue" points="636.19,-141.55 640.22,-131.75 630.96,-136.9 636.19,-141.55"/>
</g>
<!-- Node14&#45;&gt;Node13 -->
<g id="edge21" class="edge">
<title>Node14&#45;&gt;Node13</title>
<path fill="none" stroke="midnightblue" d="M586.99,-168.32C574.47,-159.98 555.32,-147.21 540.53,-137.35"/>
<polygon fill="midnightblue" stroke="midnightblue" points="542.24,-134.29 531.98,-131.65 538.36,-140.11 542.24,-134.29"/>
</g>
<!-- Node15&#45;&gt;Node4 -->
<g id="edge30" class="edge">
<title>Node15&#45;&gt;Node4</title>
<path fill="none" stroke="midnightblue" d="M404.76,-229.98C365.08,-219.48 297.6,-201.64 253.93,-190.09"/>
<polygon fill="midnightblue" stroke="midnightblue" points="254.74,-186.68 244.18,-187.51 252.95,-193.45 254.74,-186.68"/>
</g>
<!-- Node15&#45;&gt;Node5 -->
<g id="edge31" class="edge">
<title>Node15&#45;&gt;Node5</title>
<path fill="none" stroke="midnightblue" d="M424.51,-229.87C412.26,-220.79 393.89,-205.41 383,-188 374.1,-173.76 368.92,-155.29 366.07,-141.68"/>
<polygon fill="midnightblue" stroke="midnightblue" points="369.46,-140.78 364.19,-131.59 362.58,-142.06 369.46,-140.78"/>
</g>
<!-- Node15&#45;&gt;Node11 -->
<g id="edge29" class="edge">
<title>Node15&#45;&gt;Node11</title>
<path fill="none" stroke="midnightblue" d="M441.76,-249.13C443.78,-258.62 444.26,-274.17 443.2,-286.54"/>
<polygon fill="midnightblue" stroke="midnightblue" points="439.69,-286.35 441.79,-296.73 446.63,-287.31 439.69,-286.35"/>
</g>
<!-- Node15&#45;&gt;Node14 -->
<g id="edge24" class="edge">
<title>Node15&#45;&gt;Node14</title>
<path fill="none" stroke="midnightblue" d="M460.35,-229.98C488.31,-219.77 535.33,-202.61 566.99,-191.05"/>
<polygon fill="midnightblue" stroke="midnightblue" points="568.5,-194.23 576.69,-187.51 566.1,-187.65 568.5,-194.23"/>
</g>
<!-- Node16 -->
<g id="node16" class="node">
<title>Node16</title>
<g id="a_node16"><a xlink:href="exif-entry_8h.html" target="_top" xlink:title="Handling EXIF entries.">
<polygon fill="white" stroke="black" points="392,-168.5 392,-187.5 496,-187.5 496,-168.5 392,-168.5"/>
<text text-anchor="middle" x="444" y="-175.5" font-family="Helvetica,sans-Serif" font-size="10.00">libexif/exif&#45;entry.h</text>
</a>
</g>
</g>
<!-- Node15&#45;&gt;Node16 -->
<g id="edge25" class="edge">
<title>Node15&#45;&gt;Node16</title>
<path fill="none" stroke="midnightblue" d="M433.1,-229.98C432.25,-221.49 433.35,-208.2 435.56,-197.32"/>
<polygon fill="midnightblue" stroke="midnightblue" points="438.98,-198.07 438.1,-187.51 432.2,-196.31 438.98,-198.07"/>
</g>
<!-- Node16&#45;&gt;Node5 -->
<g id="edge28" class="edge">
<title>Node16&#45;&gt;Node5</title>
<path fill="none" stroke="midnightblue" d="M430.99,-168.32C418.47,-159.98 399.32,-147.21 384.53,-137.35"/>
<polygon fill="midnightblue" stroke="midnightblue" points="386.24,-134.29 375.98,-131.65 382.36,-140.11 386.24,-134.29"/>
</g>
<!-- Node16&#45;&gt;Node7 -->
<g id="edge27" class="edge">
<title>Node16&#45;&gt;Node7</title>
<path fill="none" stroke="midnightblue" d="M445.86,-168.37C448.72,-155.71 454.78,-131.5 463,-112 476.04,-81.07 496.27,-47.59 508.8,-28"/>
<polygon fill="midnightblue" stroke="midnightblue" points="511.76,-29.86 514.26,-19.57 505.88,-26.06 511.76,-29.86"/>
</g>
<!-- Node16&#45;&gt;Node15 -->
<g id="edge26" class="edge">
<title>Node16&#45;&gt;Node15</title>
<path fill="none" stroke="midnightblue" d="M447.9,-187.51C448.75,-195.99 447.65,-209.27 445.45,-220.16"/>
<polygon fill="midnightblue" stroke="midnightblue" points="442.02,-219.42 442.9,-229.98 448.8,-221.17 442.02,-219.42"/>
</g>
<!-- Node17&#45;&gt;Node2 -->
<g id="edge36" class="edge">
<title>Node17&#45;&gt;Node2</title>
<path fill="none" stroke="midnightblue" d="M679.02,-425.23C701.16,-402.55 740,-355.89 740,-307.5 740,-307.5 740,-307.5 740,-177 740,6.79 506.73,-151.14 339,-76 315.21,-65.34 294.25,-43.28 281.61,-27.82"/>
<polygon fill="midnightblue" stroke="midnightblue" points="284.1,-25.33 275.17,-19.62 278.6,-29.65 284.1,-25.33"/>
</g>
<!-- Node17&#45;&gt;Node7 -->
<g id="edge35" class="edge">
<title>Node17&#45;&gt;Node7</title>
<path fill="none" stroke="midnightblue" d="M703.69,-425.29C721.35,-417.15 741.05,-405.25 754,-389 777.53,-359.47 778,-345.26 778,-307.5 778,-307.5 778,-307.5 778,-121 778,-37.82 663.11,-16.67 586.67,-11.8"/>
<polygon fill="midnightblue" stroke="midnightblue" points="586.8,-8.31 576.62,-11.24 586.41,-15.29 586.8,-8.31"/>
</g>
<!-- Node18 -->
<g id="node18" class="node">
<title>Node18</title>
<g id="a_node18"><a xlink:href="mnote-canon-tag_8h.html" target="_top" xlink:title=" ">
<polygon fill="white" stroke="black" points="532,-358.5 532,-388.5 646,-388.5 646,-358.5 532,-358.5"/>
<text text-anchor="start" x="540" y="-376.5" font-family="Helvetica,sans-Serif" font-size="10.00">libexif/canon/mnote</text>
<text text-anchor="middle" x="589" y="-365.5" font-family="Helvetica,sans-Serif" font-size="10.00">&#45;canon&#45;tag.h</text>
</a>
</g>
</g>
<!-- Node17&#45;&gt;Node18 -->
<g id="edge37" class="edge">
<title>Node17&#45;&gt;Node18</title>
<path fill="none" stroke="midnightblue" d="M647.73,-425.4C637.6,-416.62 624.4,-405.18 613.08,-395.37"/>
<polygon fill="midnightblue" stroke="midnightblue" points="615.09,-392.48 605.24,-388.58 610.51,-397.77 615.09,-392.48"/>
</g>
<!-- Node18&#45;&gt;Node11 -->
<g id="edge38" class="edge">
<title>Node18&#45;&gt;Node11</title>
<path fill="none" stroke="midnightblue" d="M556.02,-358.4C529.23,-346.94 491.81,-330.94 466.12,-319.95"/>
<polygon fill="midnightblue" stroke="midnightblue" points="467.46,-316.72 456.89,-316.01 464.71,-323.16 467.46,-316.72"/>
</g>
</g>
</svg>
