<?xml version="1.0" encoding="UTF-8" standalone="no"?>
<!DOCTYPE svg PUBLIC "-//W3C//DTD SVG 1.1//EN"
 "http://www.w3.org/Graphics/SVG/1.1/DTD/svg11.dtd">
<!-- Generated by graphviz version 7.0.1 (0)
 -->
<!-- Title: exif_data_dump Pages: 1 -->
<svg width="1143pt" height="525pt"
 viewBox="0.00 0.00 1143.00 525.00" xmlns="http://www.w3.org/2000/svg" xmlns:xlink="http://www.w3.org/1999/xlink">
<g id="graph0" class="graph" transform="scale(1 1) rotate(0) translate(4 521)">
<title>exif_data_dump</title>
<!-- Node1 -->
<g id="Node000001" class="node">
<title>Node1</title>
<g id="a_Node000001"><a xlink:title="Dump all EXIF data to stdout.">
<polygon fill="#999999" stroke="#666666" points="95,-187 0,-187 0,-168 95,-168 95,-187"/>
<text text-anchor="middle" x="47.5" y="-175" font-family="Helvetica,sans-Serif" font-size="10.00">exif_data_dump</text>
</a>
</g>
</g>
<!-- Node2 -->
<g id="Node000002" class="node">
<title>Node2</title>
<g id="a_Node000002"><a xlink:href="exif-content_8c.html#a941c3522a39280f44329eaf364645620" target="_top" xlink:title="Dump contents of the IFD to stdout.">
<polygon fill="white" stroke="#666666" points="241,-206 131,-206 131,-187 241,-187 241,-206"/>
<text text-anchor="middle" x="186" y="-194" font-family="Helvetica,sans-Serif" font-size="10.00">exif_content_dump</text>
</a>
</g>
</g>
<!-- Node1&#45;&gt;Node2 -->
<g id="edge1_Node000001_Node000002" class="edge">
<title>Node1&#45;&gt;Node2</title>
<g id="a_edge1_Node000001_Node000002"><a xlink:title=" ">
<path fill="none" stroke="#63b8ff" d="M95.48,-184.04C103.23,-185.12 111.4,-186.26 119.51,-187.38"/>
<polygon fill="#63b8ff" stroke="#63b8ff" points="119.01,-190.85 129.4,-188.76 119.98,-183.92 119.01,-190.85"/>
</a>
</g>
</g>
<!-- Node27 -->
<g id="Node000027" class="node">
<title>Node27</title>
<g id="a_Node000027"><a xlink:href="exif-ifd_8c.html#a7877a28898c084bd8311812d550181f2" target="_top" xlink:title="Return a textual name of the given IFD.">
<polygon fill="white" stroke="#666666" points="239.5,-169 132.5,-169 132.5,-150 239.5,-150 239.5,-169"/>
<text text-anchor="middle" x="186" y="-157" font-family="Helvetica,sans-Serif" font-size="10.00">exif_ifd_get_name</text>
</a>
</g>
</g>
<!-- Node1&#45;&gt;Node27 -->
<g id="edge36_Node000001_Node000027" class="edge">
<title>Node1&#45;&gt;Node27</title>
<g id="a_edge36_Node000001_Node000027"><a xlink:title=" ">
<path fill="none" stroke="#63b8ff" d="M95.48,-171.31C103.73,-170.22 112.45,-169.07 121.08,-167.93"/>
<polygon fill="#63b8ff" stroke="#63b8ff" points="121.36,-171.42 130.82,-166.64 120.45,-164.48 121.36,-171.42"/>
</a>
</g>
</g>
<!-- Node3 -->
<g id="Node000003" class="node">
<title>Node3</title>
<g id="a_Node000003"><a xlink:href="exif-entry_8c.html#addd6fdf3f0e4bd8777aff249ebe25da5" target="_top" xlink:title="Dump text representation of ExifEntry to stdout.">
<polygon fill="white" stroke="#666666" points="376,-206 277,-206 277,-187 376,-187 376,-206"/>
<text text-anchor="middle" x="326.5" y="-194" font-family="Helvetica,sans-Serif" font-size="10.00">exif_entry_dump</text>
</a>
</g>
</g>
<!-- Node2&#45;&gt;Node3 -->
<g id="edge2_Node000002_Node000003" class="edge">
<title>Node2&#45;&gt;Node3</title>
<g id="a_edge2_Node000002_Node000003"><a xlink:title=" ">
<path fill="none" stroke="#63b8ff" d="M241.34,-196.5C249.18,-196.5 257.29,-196.5 265.24,-196.5"/>
<polygon fill="#63b8ff" stroke="#63b8ff" points="265.21,-200 275.21,-196.5 265.21,-193 265.21,-200"/>
</a>
</g>
</g>
<!-- Node4 -->
<g id="Node000004" class="node">
<title>Node4</title>
<g id="a_Node000004"><a xlink:href="exif-entry_8c.html#a60425f657af3e00dc8bbb675f91cdb84" target="_top" xlink:title="Return a localized textual representation of the value of the EXIF entry.">
<polygon fill="white" stroke="#666666" points="543,-281 424,-281 424,-262 543,-262 543,-281"/>
<text text-anchor="middle" x="483.5" y="-269" font-family="Helvetica,sans-Serif" font-size="10.00">exif_entry_get_value</text>
</a>
</g>
</g>
<!-- Node3&#45;&gt;Node4 -->
<g id="edge3_Node000003_Node000004" class="edge">
<title>Node3&#45;&gt;Node4</title>
<g id="a_edge3_Node000003_Node000004"><a xlink:title=" ">
<path fill="none" stroke="#63b8ff" d="M348.08,-206.46C374.75,-219.36 421.45,-241.96 452.18,-256.83"/>
<polygon fill="#63b8ff" stroke="#63b8ff" points="450.44,-259.87 460.96,-261.08 453.49,-253.57 450.44,-259.87"/>
</a>
</g>
</g>
<!-- Node22 -->
<g id="Node000022" class="node">
<title>Node22</title>
<g id="a_Node000022"><a xlink:href="exif-format_8c.html#a513bc6b9980641d7e6ff1fe74810b3e0" target="_top" xlink:title="Return a textual representation of the given EXIF data type.">
<polygon fill="white" stroke="#666666" points="547.5,-206 419.5,-206 419.5,-187 547.5,-187 547.5,-206"/>
<text text-anchor="middle" x="483.5" y="-194" font-family="Helvetica,sans-Serif" font-size="10.00">exif_format_get_name</text>
</a>
</g>
</g>
<!-- Node3&#45;&gt;Node22 -->
<g id="edge31_Node000003_Node000022" class="edge">
<title>Node3&#45;&gt;Node22</title>
<g id="a_edge31_Node000003_Node000022"><a xlink:title=" ">
<path fill="none" stroke="#63b8ff" d="M376.12,-196.5C386.27,-196.5 397.18,-196.5 408.02,-196.5"/>
<polygon fill="#63b8ff" stroke="#63b8ff" points="407.74,-200 417.74,-196.5 407.74,-193 407.74,-200"/>
</a>
</g>
</g>
<!-- Node23 -->
<g id="Node000023" class="node">
<title>Node23</title>
<g id="a_Node000023"><a xlink:href="exif-tag_8c.html#a6b4f26f6f8f243e1f8a9e123b9cca589" target="_top" xlink:title="Return a textual name of the given tag when found in the given IFD.">
<polygon fill="white" stroke="#666666" points="555,-93 412,-93 412,-74 555,-74 555,-93"/>
<text text-anchor="middle" x="483.5" y="-81" font-family="Helvetica,sans-Serif" font-size="10.00">exif_tag_get_name_in_ifd</text>
</a>
</g>
</g>
<!-- Node3&#45;&gt;Node23 -->
<g id="edge32_Node000003_Node000023" class="edge">
<title>Node3&#45;&gt;Node23</title>
<g id="a_edge32_Node000003_Node000023"><a xlink:title=" ">
<path fill="none" stroke="#63b8ff" d="M340.98,-186.67C367.55,-167.3 426.92,-124.02 459.69,-100.13"/>
<polygon fill="#63b8ff" stroke="#63b8ff" points="461.69,-103 467.71,-94.28 457.57,-97.34 461.69,-103"/>
</a>
</g>
</g>
<!-- Node5 -->
<g id="Node000005" class="node">
<title>Node5</title>
<g id="a_Node000005"><a xlink:href="exif-content_8c.html#a5d98a5c58c31b49691694b010b29117d" target="_top" xlink:title="Return the ExifEntry in this IFD corresponding to the given tag.">
<polygon fill="white" stroke="#666666" points="724,-443 595,-443 595,-424 724,-424 724,-443"/>
<text text-anchor="middle" x="659.5" y="-431" font-family="Helvetica,sans-Serif" font-size="10.00">exif_content_get_entry</text>
</a>
</g>
</g>
<!-- Node4&#45;&gt;Node5 -->
<g id="edge4_Node000004_Node000005" class="edge">
<title>Node4&#45;&gt;Node5</title>
<g id="a_edge4_Node000004_Node000005"><a xlink:title=" ">
<path fill="none" stroke="#63b8ff" d="M489.52,-281.41C502.7,-306.49 540.78,-373.07 591,-409.5 596.29,-413.34 602.25,-416.61 608.38,-419.39"/>
<polygon fill="#63b8ff" stroke="#63b8ff" points="606.8,-422.52 617.38,-423.04 609.43,-416.04 606.8,-422.52"/>
</a>
</g>
</g>
<!-- Node6 -->
<g id="Node000006" class="node">
<title>Node6</title>
<g id="a_Node000006"><a xlink:href="exif-utils_8c.html#a0c51156312ff6ca97f4d587f776ded8f" target="_top" xlink:title="This function converts rather UCS&#45;2LE than UTF&#45;16 to UTF&#45;8.">
<polygon fill="white" stroke="#666666" points="713.5,-367.5 605.5,-367.5 605.5,-337.5 713.5,-337.5 713.5,-367.5"/>
<text text-anchor="start" x="613.5" y="-355.5" font-family="Helvetica,sans-Serif" font-size="10.00">exif_convert_utf16</text>
<text text-anchor="middle" x="659.5" y="-344.5" font-family="Helvetica,sans-Serif" font-size="10.00">_to_utf8</text>
</a>
</g>
</g>
<!-- Node4&#45;&gt;Node6 -->
<g id="edge5_Node000004_Node000006" class="edge">
<title>Node4&#45;&gt;Node6</title>
<g id="a_edge5_Node000004_Node000006"><a xlink:title=" ">
<path fill="none" stroke="#63b8ff" d="M503.99,-281.37C525.25,-292.05 560.33,-309.43 591,-323.5 597.47,-326.47 604.32,-329.52 611.09,-332.47"/>
<polygon fill="#63b8ff" stroke="#63b8ff" points="609.62,-335.65 620.18,-336.42 612.4,-329.23 609.62,-335.65"/>
</a>
</g>
</g>
<!-- Node7 -->
<g id="Node000007" class="node">
<title>Node7</title>
<g id="a_Node000007"><a xlink:href="exif-utils_8c.html#a4b4acf537a8c6b9405e7b53be868e4d7" target="_top" xlink:title="Retrieve an ExifShort value from memory.">
<polygon fill="white" stroke="#666666" points="866.5,-441 780.5,-441 780.5,-422 866.5,-422 866.5,-441"/>
<text text-anchor="middle" x="823.5" y="-429" font-family="Helvetica,sans-Serif" font-size="10.00">exif_get_short</text>
</a>
</g>
</g>
<!-- Node4&#45;&gt;Node7 -->
<g id="edge26_Node000004_Node000007" class="edge">
<title>Node4&#45;&gt;Node7</title>
<g id="a_edge26_Node000004_Node000007"><a xlink:title=" ">
<path fill="none" stroke="#63b8ff" d="M491.5,-281.39C506.91,-302.4 546.03,-351.59 591,-376.5 621.15,-393.2 710.36,-411.5 768.82,-422.21"/>
<polygon fill="#63b8ff" stroke="#63b8ff" points="768.13,-425.65 778.59,-423.98 769.38,-418.76 768.13,-425.65"/>
</a>
</g>
</g>
<!-- Node9 -->
<g id="Node000009" class="node">
<title>Node9</title>
<g id="a_Node000009"><a xlink:href="exif-data_8c.html#a2d8d50e6a9c19d28fe8192ef7cc52777" target="_top" xlink:title="Return the byte order in use by this EXIF structure.">
<polygon fill="white" stroke="#666666" points="878.5,-403.5 768.5,-403.5 768.5,-373.5 878.5,-373.5 878.5,-403.5"/>
<text text-anchor="start" x="776.5" y="-391.5" font-family="Helvetica,sans-Serif" font-size="10.00">exif_data_get_byte</text>
<text text-anchor="middle" x="823.5" y="-380.5" font-family="Helvetica,sans-Serif" font-size="10.00">_order</text>
</a>
</g>
</g>
<!-- Node4&#45;&gt;Node9 -->
<g id="edge8_Node000004_Node000009" class="edge">
<title>Node4&#45;&gt;Node9</title>
<g id="a_edge8_Node000004_Node000009"><a xlink:title=" ">
<path fill="none" stroke="#63b8ff" d="M540.89,-281.47C602.19,-292.88 695.73,-312.09 728,-328.5 746.82,-338.07 746.4,-347.83 764,-359.5 768.38,-362.4 773.08,-365.2 777.86,-367.84"/>
<polygon fill="#63b8ff" stroke="#63b8ff" points="775.85,-370.74 786.33,-372.32 779.12,-364.55 775.85,-370.74"/>
</a>
</g>
</g>
<!-- Node10 -->
<g id="Node000010" class="node">
<title>Node10</title>
<g id="a_Node000010"><a xlink:href="exif-entry_8c.html#ae02e9d58318a3cd50eb6730b5e657e5a" target="_top" xlink:title="Format the value of an ExifEntry for human display in a generic way.">
<polygon fill="white" stroke="#666666" points="728,-281 591,-281 591,-262 728,-262 728,-281"/>
<text text-anchor="middle" x="659.5" y="-269" font-family="Helvetica,sans-Serif" font-size="10.00">exif_entry_format_value</text>
</a>
</g>
</g>
<!-- Node4&#45;&gt;Node10 -->
<g id="edge9_Node000004_Node000010" class="edge">
<title>Node4&#45;&gt;Node10</title>
<g id="a_edge9_Node000004_Node000010"><a xlink:title=" ">
<path fill="none" stroke="#63b8ff" d="M543.41,-271.5C554.91,-271.5 567.15,-271.5 579.2,-271.5"/>
<polygon fill="#63b8ff" stroke="#63b8ff" points="579.14,-275 589.14,-271.5 579.14,-268 579.14,-275"/>
</a>
</g>
</g>
<!-- Node11 -->
<g id="Node000011" class="node">
<title>Node11</title>
<g id="a_Node000011"><a xlink:href="exif-format_8c.html#a924038efe0cd8ebade8f44619dd794f3" target="_top" xlink:title="Return the raw size of the given EXIF data type.">
<polygon fill="white" stroke="#666666" points="883,-241 764,-241 764,-222 883,-222 883,-241"/>
<text text-anchor="middle" x="823.5" y="-229" font-family="Helvetica,sans-Serif" font-size="10.00">exif_format_get_size</text>
</a>
</g>
</g>
<!-- Node4&#45;&gt;Node11 -->
<g id="edge24_Node000004_Node000011" class="edge">
<title>Node4&#45;&gt;Node11</title>
<g id="a_edge24_Node000004_Node000011"><a xlink:title=" ">
<path fill="none" stroke="#63b8ff" d="M538.84,-261.53C555.53,-258.68 573.99,-255.74 591,-253.5 645.06,-246.37 706.51,-240.64 752.51,-236.82"/>
<polygon fill="#63b8ff" stroke="#63b8ff" points="752.67,-240.32 762.35,-236.01 752.09,-233.34 752.67,-240.32"/>
</a>
</g>
</g>
<!-- Node14 -->
<g id="Node000014" class="node">
<title>Node14</title>
<g id="a_Node000014"><a xlink:href="exif-utils_8c.html#a1feb547c289aa57a4d2119338b03706c" target="_top" xlink:title="Retrieve an ExifRational value from memory.">
<polygon fill="white" stroke="#666666" points="873,-204 774,-204 774,-185 873,-185 873,-204"/>
<text text-anchor="middle" x="823.5" y="-192" font-family="Helvetica,sans-Serif" font-size="10.00">exif_get_rational</text>
</a>
</g>
</g>
<!-- Node4&#45;&gt;Node14 -->
<g id="edge25_Node000004_Node000014" class="edge">
<title>Node4&#45;&gt;Node14</title>
<g id="a_edge25_Node000004_Node000014"><a xlink:title=" ">
<path fill="none" stroke="#63b8ff" d="M509.11,-261.66C530.47,-253.44 562.38,-241.89 591,-234.5 648.46,-219.66 715.39,-208.77 762.46,-202.13"/>
<polygon fill="#63b8ff" stroke="#63b8ff" points="762.76,-205.62 772.18,-200.78 761.8,-198.69 762.76,-205.62"/>
</a>
</g>
</g>
<!-- Node15 -->
<g id="Node000015" class="node">
<title>Node15</title>
<g id="a_Node000015"><a xlink:href="exif-utils_8c.html#adb97c3499488d5642a82df1cb16dc2cb" target="_top" xlink:title="Retrieve an ExifSRational value from memory.">
<polygon fill="white" stroke="#666666" points="875.5,-167 771.5,-167 771.5,-148 875.5,-148 875.5,-167"/>
<text text-anchor="middle" x="823.5" y="-155" font-family="Helvetica,sans-Serif" font-size="10.00">exif_get_srational</text>
</a>
</g>
</g>
<!-- Node4&#45;&gt;Node15 -->
<g id="edge27_Node000004_Node000015" class="edge">
<title>Node4&#45;&gt;Node15</title>
<g id="a_edge27_Node000004_Node000015"><a xlink:title=" ">
<path fill="none" stroke="#63b8ff" d="M496.42,-261.55C515.25,-246.36 553.61,-217.58 591,-202.5 645.72,-180.43 712.2,-168.94 759.85,-163.12"/>
<polygon fill="#63b8ff" stroke="#63b8ff" points="760.21,-166.61 769.74,-161.97 759.4,-159.65 760.21,-166.61"/>
</a>
</g>
</g>
<!-- Node16 -->
<g id="Node000016" class="node">
<title>Node16</title>
<g id="a_Node000016"><a xlink:href="exif-entry_8c.html#ac416e8326bd687f5da299d1b15a731bf" target="_top" xlink:title=" ">
<polygon fill="white" stroke="#666666" points="702.5,-129 616.5,-129 616.5,-110 702.5,-110 702.5,-129"/>
<text text-anchor="middle" x="659.5" y="-117" font-family="Helvetica,sans-Serif" font-size="10.00">exif_entry_log</text>
</a>
</g>
</g>
<!-- Node4&#45;&gt;Node16 -->
<g id="edge21_Node000004_Node000016" class="edge">
<title>Node4&#45;&gt;Node16</title>
<g id="a_edge21_Node000004_Node000016"><a xlink:title=" ">
<path fill="none" stroke="#63b8ff" d="M500.74,-261.6C516.23,-251.52 539.44,-234.68 555,-215.5 577.54,-187.72 564.21,-167.21 591,-143.5 595.37,-139.63 600.41,-136.38 605.72,-133.64"/>
<polygon fill="#63b8ff" stroke="#63b8ff" points="607.07,-136.87 614.78,-129.6 604.22,-130.47 607.07,-136.87"/>
</a>
</g>
</g>
<!-- Node19 -->
<g id="Node000019" class="node">
<title>Node19</title>
<g id="a_Node000019"><a xlink:href="exif-mem_8c.html#a68be7c7afc8cff75adc3b1a28b5ae9a2" target="_top" xlink:title=" ">
<polygon fill="white" stroke="#666666" points="707,-92 612,-92 612,-73 707,-73 707,-92"/>
<text text-anchor="middle" x="659.5" y="-80" font-family="Helvetica,sans-Serif" font-size="10.00">exif_mem_alloc</text>
</a>
</g>
</g>
<!-- Node4&#45;&gt;Node19 -->
<g id="edge28_Node000004_Node000019" class="edge">
<title>Node4&#45;&gt;Node19</title>
<g id="a_edge28_Node000004_Node000019"><a xlink:title=" ">
<path fill="none" stroke="#63b8ff" d="M502.35,-261.55C518.32,-251.78 541.27,-235.46 555,-215.5 585.12,-171.73 552.84,-138.47 591,-101.5 594.07,-98.53 597.56,-96.02 601.3,-93.89"/>
<polygon fill="#63b8ff" stroke="#63b8ff" points="602.68,-97.11 610.31,-89.75 599.76,-90.75 602.68,-97.11"/>
</a>
</g>
</g>
<!-- Node20 -->
<g id="Node000020" class="node">
<title>Node20</title>
<g id="a_Node000020"><a xlink:href="exif-mem_8c.html#a43190b81b4b4bdb4ffb89bfb612051b1" target="_top" xlink:title=" ">
<polygon fill="white" stroke="#666666" points="705,-517 614,-517 614,-498 705,-498 705,-517"/>
<text text-anchor="middle" x="659.5" y="-505" font-family="Helvetica,sans-Serif" font-size="10.00">exif_mem_free</text>
</a>
</g>
</g>
<!-- Node4&#45;&gt;Node20 -->
<g id="edge29_Node000004_Node000020" class="edge">
<title>Node4&#45;&gt;Node20</title>
<g id="a_edge29_Node000004_Node000020"><a xlink:title=" ">
<path fill="none" stroke="#63b8ff" d="M486.25,-281.09C492.97,-315.17 520.42,-431.42 591,-489.5 594.69,-492.53 598.84,-495.06 603.22,-497.16"/>
<polygon fill="#63b8ff" stroke="#63b8ff" points="601.77,-500.35 612.36,-500.79 604.35,-493.85 601.77,-500.35"/>
</a>
</g>
</g>
<!-- Node21 -->
<g id="Node000021" class="node">
<title>Node21</title>
<g id="a_Node000021"><a xlink:href="exif-entry_8c.html#acfe97d1f369d95332b6e796c690093e4" target="_top" xlink:title="Check if a string consists entirely of a single, repeated character.">
<polygon fill="white" stroke="#666666" points="720.5,-480 598.5,-480 598.5,-461 720.5,-461 720.5,-480"/>
<text text-anchor="middle" x="659.5" y="-468" font-family="Helvetica,sans-Serif" font-size="10.00">match_repeated_char</text>
</a>
</g>
</g>
<!-- Node4&#45;&gt;Node21 -->
<g id="edge30_Node000004_Node000021" class="edge">
<title>Node4&#45;&gt;Node21</title>
<g id="a_edge30_Node000004_Node000021"><a xlink:title=" ">
<path fill="none" stroke="#63b8ff" d="M487.27,-281.13C496.5,-311.41 529.17,-405.52 591,-452.5 592.33,-453.51 593.71,-454.46 595.13,-455.36"/>
<polygon fill="#63b8ff" stroke="#63b8ff" points="593.22,-458.31 603.7,-459.85 596.47,-452.11 593.22,-458.31"/>
</a>
</g>
</g>
<!-- Node6&#45;&gt;Node7 -->
<g id="edge6_Node000006_Node000007" class="edge">
<title>Node6&#45;&gt;Node7</title>
<g id="a_edge6_Node000006_Node000007"><a xlink:title=" ">
<path fill="none" stroke="#63b8ff" d="M701.85,-367.89C710.73,-371.84 719.89,-376.43 728,-381.5 745.91,-392.69 745.6,-402.15 764,-412.5 767.16,-414.28 770.52,-415.92 773.96,-417.43"/>
<polygon fill="#63b8ff" stroke="#63b8ff" points="772.43,-420.59 783.02,-421.01 775.01,-414.08 772.43,-420.59"/>
</a>
</g>
</g>
<!-- Node8 -->
<g id="Node000008" class="node">
<title>Node8</title>
<g id="a_Node000008"><a xlink:href="exif-utils_8c.html#a6baf094a71392f9cea23ad633ec13c8b" target="_top" xlink:title="Retrieve an ExifSShort value from memory.">
<polygon fill="white" stroke="#666666" points="1011,-398 919,-398 919,-379 1011,-379 1011,-398"/>
<text text-anchor="middle" x="965" y="-386" font-family="Helvetica,sans-Serif" font-size="10.00">exif_get_sshort</text>
</a>
</g>
</g>
<!-- Node7&#45;&gt;Node8 -->
<g id="edge7_Node000007_Node000008" class="edge">
<title>Node7&#45;&gt;Node8</title>
<g id="a_edge7_Node000007_Node000008"><a xlink:title=" ">
<path fill="none" stroke="#63b8ff" d="M856.85,-421.53C875.96,-415.64 900.37,-408.11 921.07,-401.73"/>
<polygon fill="#63b8ff" stroke="#63b8ff" points="921.85,-405.16 930.37,-398.86 919.79,-398.47 921.85,-405.16"/>
</a>
</g>
</g>
<!-- Node10&#45;&gt;Node7 -->
<g id="edge16_Node000010_Node000007" class="edge">
<title>Node10&#45;&gt;Node7</title>
<g id="a_edge16_Node000010_Node000007"><a xlink:title=" ">
<path fill="none" stroke="#63b8ff" d="M675.98,-281.41C690.97,-291.66 713.49,-308.9 728,-328.5 752.17,-361.15 734,-385.11 764,-412.5 765.89,-414.23 767.94,-415.79 770.1,-417.22"/>
<polygon fill="#63b8ff" stroke="#63b8ff" points="768.35,-420.26 778.82,-421.89 771.66,-414.09 768.35,-420.26"/>
</a>
</g>
</g>
<!-- Node10&#45;&gt;Node8 -->
<g id="edge20_Node000010_Node000008" class="edge">
<title>Node10&#45;&gt;Node8</title>
<g id="a_edge20_Node000010_Node000008"><a xlink:title=" ">
<path fill="none" stroke="#63b8ff" d="M714.17,-281.44C718.97,-283.15 723.65,-285.16 728,-287.5 747.37,-297.95 745.12,-310.18 764,-321.5 777.77,-329.76 866.58,-358.16 921.12,-375.22"/>
<polygon fill="#63b8ff" stroke="#63b8ff" points="919.83,-378.48 930.42,-378.12 921.92,-371.8 919.83,-378.48"/>
</a>
</g>
</g>
<!-- Node10&#45;&gt;Node9 -->
<g id="edge10_Node000010_Node000009" class="edge">
<title>Node10&#45;&gt;Node9</title>
<g id="a_edge10_Node000010_Node000009"><a xlink:title=" ">
<path fill="none" stroke="#63b8ff" d="M702.96,-281.38C711.88,-284.82 720.77,-289.41 728,-295.5 752.96,-316.52 740.33,-337.03 764,-359.5 766.97,-362.32 770.27,-364.92 773.74,-367.31"/>
<polygon fill="#63b8ff" stroke="#63b8ff" points="771.59,-370.1 781.95,-372.35 775.25,-364.13 771.59,-370.1"/>
</a>
</g>
</g>
<!-- Node10&#45;&gt;Node11 -->
<g id="edge11_Node000010_Node000011" class="edge">
<title>Node10&#45;&gt;Node11</title>
<g id="a_edge11_Node000010_Node000011"><a xlink:title=" ">
<path fill="none" stroke="#63b8ff" d="M700.96,-261.51C722.21,-256.26 748.47,-249.78 771.13,-244.18"/>
<polygon fill="#63b8ff" stroke="#63b8ff" points="771.93,-247.59 780.8,-241.8 770.26,-240.79 771.93,-247.59"/>
</a>
</g>
</g>
<!-- Node12 -->
<g id="Node000012" class="node">
<title>Node12</title>
<g id="a_Node000012"><a xlink:href="exif-utils_8c.html#a4ad94614630897766dd0a5c9bc2a59bf" target="_top" xlink:title="Retrieve an ExifLong value from memory.">
<polygon fill="white" stroke="#666666" points="1006.5,-261 923.5,-261 923.5,-242 1006.5,-242 1006.5,-261"/>
<text text-anchor="middle" x="965" y="-249" font-family="Helvetica,sans-Serif" font-size="10.00">exif_get_long</text>
</a>
</g>
</g>
<!-- Node10&#45;&gt;Node12 -->
<g id="edge12_Node000010_Node000012" class="edge">
<title>Node10&#45;&gt;Node12</title>
<g id="a_edge12_Node000010_Node000012"><a xlink:title=" ">
<path fill="none" stroke="#63b8ff" d="M728.23,-267.04C783.66,-263.38 860.93,-258.29 911.69,-254.95"/>
<polygon fill="#63b8ff" stroke="#63b8ff" points="911.79,-258.45 921.53,-254.3 911.33,-251.46 911.79,-258.45"/>
</a>
</g>
</g>
<!-- Node13 -->
<g id="Node000013" class="node">
<title>Node13</title>
<g id="a_Node000013"><a xlink:href="exif-utils_8c.html#a56b96f076a13da6ed926e1ef29cb2dc3" target="_top" xlink:title="Retrieve an ExifSLong value from memory.">
<polygon fill="white" stroke="#666666" points="1135,-261 1047,-261 1047,-242 1135,-242 1135,-261"/>
<text text-anchor="middle" x="1091" y="-249" font-family="Helvetica,sans-Serif" font-size="10.00">exif_get_slong</text>
</a>
</g>
</g>
<!-- Node10&#45;&gt;Node13 -->
<g id="edge17_Node000010_Node000013" class="edge">
<title>Node10&#45;&gt;Node13</title>
<g id="a_edge17_Node000010_Node000013"><a xlink:title=" ">
<path fill="none" stroke="#63b8ff" d="M728.38,-276.53C799.25,-280.56 913.45,-283.61 1011,-270.5 1021.9,-269.04 1033.48,-266.7 1044.32,-264.16"/>
<polygon fill="#63b8ff" stroke="#63b8ff" points="1044.94,-267.62 1053.82,-261.83 1043.27,-260.82 1044.94,-267.62"/>
</a>
</g>
</g>
<!-- Node10&#45;&gt;Node14 -->
<g id="edge14_Node000010_Node000014" class="edge">
<title>Node10&#45;&gt;Node14</title>
<g id="a_edge14_Node000010_Node000014"><a xlink:title=" ">
<path fill="none" stroke="#63b8ff" d="M675.79,-261.67C695.56,-249.25 731.35,-227.78 764,-213.5 768.29,-211.62 772.83,-209.83 777.41,-208.15"/>
<polygon fill="#63b8ff" stroke="#63b8ff" points="778.33,-211.53 786.62,-204.94 776.03,-204.92 778.33,-211.53"/>
</a>
</g>
</g>
<!-- Node10&#45;&gt;Node15 -->
<g id="edge18_Node000010_Node000015" class="edge">
<title>Node10&#45;&gt;Node15</title>
<g id="a_edge18_Node000010_Node000015"><a xlink:title=" ">
<path fill="none" stroke="#63b8ff" d="M668.58,-261.68C684.77,-242.61 723.13,-200.35 764,-176.5 766.95,-174.78 770.07,-173.19 773.28,-171.73"/>
<polygon fill="#63b8ff" stroke="#63b8ff" points="774.37,-175.07 782.32,-168.06 771.73,-168.58 774.37,-175.07"/>
</a>
</g>
</g>
<!-- Node12&#45;&gt;Node13 -->
<g id="edge13_Node000012_Node000013" class="edge">
<title>Node12&#45;&gt;Node13</title>
<g id="a_edge13_Node000012_Node000013"><a xlink:title=" ">
<path fill="none" stroke="#63b8ff" d="M1006.95,-251.5C1015.97,-251.5 1025.68,-251.5 1035.15,-251.5"/>
<polygon fill="#63b8ff" stroke="#63b8ff" points="1035.03,-255 1045.03,-251.5 1035.03,-248 1035.03,-255"/>
</a>
</g>
</g>
<!-- Node14&#45;&gt;Node12 -->
<g id="edge15_Node000014_Node000012" class="edge">
<title>Node14&#45;&gt;Node12</title>
<g id="a_edge15_Node000014_Node000012"><a xlink:title=" ">
<path fill="none" stroke="#63b8ff" d="M857.55,-204.44C865.93,-207.18 874.86,-210.28 883,-213.5 900.32,-220.34 919.18,-229.11 934.35,-236.5"/>
<polygon fill="#63b8ff" stroke="#63b8ff" points="932.78,-239.63 943.3,-240.92 935.88,-233.36 932.78,-239.63"/>
</a>
</g>
</g>
<!-- Node15&#45;&gt;Node13 -->
<g id="edge19_Node000015_Node000013" class="edge">
<title>Node15&#45;&gt;Node13</title>
<g id="a_edge19_Node000015_Node000013"><a xlink:title=" ">
<path fill="none" stroke="#63b8ff" d="M855.84,-167.46C864.64,-170.32 874.21,-173.48 883,-176.5 942.61,-196.97 1011.3,-222.19 1052.65,-237.54"/>
<polygon fill="#63b8ff" stroke="#63b8ff" points="1051.29,-240.77 1061.89,-240.98 1053.73,-234.21 1051.29,-240.77"/>
</a>
</g>
</g>
<!-- Node17 -->
<g id="Node000017" class="node">
<title>Node17</title>
<g id="a_Node000017"><a xlink:href="exif-data_8c.html#a9403ed4fde8ef603e9db173eb122efaf" target="_top" xlink:title=" ">
<polygon fill="white" stroke="#666666" points="875.5,-130 771.5,-130 771.5,-111 875.5,-111 875.5,-130"/>
<text text-anchor="middle" x="823.5" y="-118" font-family="Helvetica,sans-Serif" font-size="10.00">exif_data_get_log</text>
</a>
</g>
</g>
<!-- Node16&#45;&gt;Node17 -->
<g id="edge22_Node000016_Node000017" class="edge">
<title>Node16&#45;&gt;Node17</title>
<g id="a_edge22_Node000016_Node000017"><a xlink:title=" ">
<path fill="none" stroke="#63b8ff" d="M702.64,-119.76C720.04,-119.87 740.56,-119.99 759.67,-120.11"/>
<polygon fill="#63b8ff" stroke="#63b8ff" points="759.49,-123.61 769.52,-120.17 759.54,-116.61 759.49,-123.61"/>
</a>
</g>
</g>
<!-- Node18 -->
<g id="Node000018" class="node">
<title>Node18</title>
<g id="a_Node000018"><a xlink:href="exif-log_8c.html#a99101b5ad01b2d82ce9d43c9e8534627" target="_top" xlink:title=" ">
<polygon fill="white" stroke="#666666" points="854.5,-93 792.5,-93 792.5,-74 854.5,-74 854.5,-93"/>
<text text-anchor="middle" x="823.5" y="-81" font-family="Helvetica,sans-Serif" font-size="10.00">exif_logv</text>
</a>
</g>
</g>
<!-- Node16&#45;&gt;Node18 -->
<g id="edge23_Node000016_Node000018" class="edge">
<title>Node16&#45;&gt;Node18</title>
<g id="a_edge23_Node000016_Node000018"><a xlink:title=" ">
<path fill="none" stroke="#63b8ff" d="M702.64,-110.14C726.84,-104.76 757.1,-98.03 781.16,-92.69"/>
<polygon fill="#63b8ff" stroke="#63b8ff" points="781.6,-96.17 790.6,-90.59 780.08,-89.34 781.6,-96.17"/>
</a>
</g>
</g>
<!-- Node24 -->
<g id="Node000024" class="node">
<title>Node24</title>
<g id="a_Node000024"><a xlink:href="exif-tag_8c.html#a389f8ff3411e0525b28367892f1e78d3" target="_top" xlink:title="Finds the first entry in the EXIF tag table with the given tag number using a binary search.">
<polygon fill="white" stroke="#666666" points="715,-55 604,-55 604,-36 715,-36 715,-55"/>
<text text-anchor="middle" x="659.5" y="-43" font-family="Helvetica,sans-Serif" font-size="10.00">exif_tag_table_first</text>
</a>
</g>
</g>
<!-- Node23&#45;&gt;Node24 -->
<g id="edge33_Node000023_Node000024" class="edge">
<title>Node23&#45;&gt;Node24</title>
<g id="a_edge33_Node000023_Node000024"><a xlink:title=" ">
<path fill="none" stroke="#63b8ff" d="M530.22,-73.52C552.11,-68.73 578.54,-62.96 601.71,-57.9"/>
<polygon fill="#63b8ff" stroke="#63b8ff" points="602.29,-61.36 611.31,-55.81 600.79,-54.52 602.29,-61.36"/>
</a>
</g>
</g>
<!-- Node25 -->
<g id="Node000025" class="node">
<title>Node25</title>
<g id="a_Node000025"><a xlink:href="exif-tag_8c.html#a87563ee64809f5f0deb4d780098508c1" target="_top" xlink:title="Return the number of entries in the EXIF tag table, including the terminating NULL entry.">
<polygon fill="white" stroke="#666666" points="883,-56 764,-56 764,-37 883,-37 883,-56"/>
<text text-anchor="middle" x="823.5" y="-44" font-family="Helvetica,sans-Serif" font-size="10.00">exif_tag_table_count</text>
</a>
</g>
</g>
<!-- Node24&#45;&gt;Node25 -->
<g id="edge34_Node000024_Node000025" class="edge">
<title>Node24&#45;&gt;Node25</title>
<g id="a_edge34_Node000024_Node000025"><a xlink:title=" ">
<path fill="none" stroke="#63b8ff" d="M715.35,-45.84C727.22,-45.91 739.94,-45.99 752.31,-46.07"/>
<polygon fill="#63b8ff" stroke="#63b8ff" points="752.01,-49.56 762.04,-46.13 752.06,-42.56 752.01,-49.56"/>
</a>
</g>
</g>
<!-- Node26 -->
<g id="Node000026" class="node">
<title>Node26</title>
<g id="a_Node000026"><a xlink:href="exif-tag_8c.html#a220c1b18832f113bc84ff9551754915f" target="_top" xlink:title="Compares the tag with that in entry.">
<polygon fill="white" stroke="#666666" points="857.5,-19 789.5,-19 789.5,0 857.5,0 857.5,-19"/>
<text text-anchor="middle" x="823.5" y="-7" font-family="Helvetica,sans-Serif" font-size="10.00">match_tag</text>
</a>
</g>
</g>
<!-- Node24&#45;&gt;Node26 -->
<g id="edge35_Node000024_Node000026" class="edge">
<title>Node24&#45;&gt;Node26</title>
<g id="a_edge35_Node000024_Node000026"><a xlink:title=" ">
<path fill="none" stroke="#63b8ff" d="M705.2,-35.57C727.95,-30.51 755.52,-24.38 778.22,-19.34"/>
<polygon fill="#63b8ff" stroke="#63b8ff" points="778.78,-22.8 787.78,-17.22 777.26,-15.97 778.78,-22.8"/>
</a>
</g>
</g>
</g>
</svg>
