<?xml version="1.0" encoding="UTF-8" standalone="no"?>
<!DOCTYPE svg PUBLIC "-//W3C//DTD SVG 1.1//EN"
 "http://www.w3.org/Graphics/SVG/1.1/DTD/svg11.dtd">
<!-- Generated by graphviz version 7.0.1 (0)
 -->
<!-- Title: exif_mnote_data_canon_get_title Pages: 1 -->
<svg width="744pt" height="86pt"
 viewBox="0.00 0.00 744.00 86.00" xmlns="http://www.w3.org/2000/svg" xmlns:xlink="http://www.w3.org/1999/xlink">
<g id="graph0" class="graph" transform="scale(1 1) rotate(0) translate(4 82)">
<title>exif_mnote_data_canon_get_title</title>
<!-- Node1 -->
<g id="Node000001" class="node">
<title>Node1</title>
<g id="a_Node000001"><a xlink:title=" ">
<polygon fill="#999999" stroke="#666666" points="134,-54 0,-54 0,-24 134,-24 134,-54"/>
<text text-anchor="start" x="8" y="-42" font-family="Helvetica,sans-Serif" font-size="10.00">exif_mnote_data_canon</text>
<text text-anchor="middle" x="67" y="-31" font-family="Helvetica,sans-Serif" font-size="10.00">_get_title</text>
</a>
</g>
</g>
<!-- Node2 -->
<g id="Node000002" class="node">
<title>Node2</title>
<g id="a_Node000002"><a xlink:href="exif-mnote-data-canon_8c.html#ae9824e7901a9cd61dc6d81713af3d34b" target="_top" xlink:title=" ">
<polygon fill="white" stroke="#666666" points="304,-78 170,-78 170,-48 304,-48 304,-78"/>
<text text-anchor="start" x="178" y="-66" font-family="Helvetica,sans-Serif" font-size="10.00">exif_mnote_data_canon</text>
<text text-anchor="middle" x="237" y="-55" font-family="Helvetica,sans-Serif" font-size="10.00">_get_tags</text>
</a>
</g>
</g>
<!-- Node1&#45;&gt;Node2 -->
<g id="edge1_Node000001_Node000002" class="edge">
<title>Node1&#45;&gt;Node2</title>
<g id="a_edge1_Node000001_Node000002"><a xlink:title=" ">
<path fill="none" stroke="#63b8ff" d="M134.4,-48.49C142.25,-49.61 150.32,-50.76 158.32,-51.9"/>
<polygon fill="#63b8ff" stroke="#63b8ff" points="157.64,-55.34 168.04,-53.29 158.63,-48.41 157.64,-55.34"/>
</a>
</g>
</g>
<!-- Node6 -->
<g id="Node000006" class="node">
<title>Node6</title>
<g id="a_Node000006"><a xlink:href="mnote-canon-tag_8c.html#a178fc27fe33f68401862df48a2623700" target="_top" xlink:title=" ">
<polygon fill="white" stroke="#666666" points="299.5,-30 174.5,-30 174.5,0 299.5,0 299.5,-30"/>
<text text-anchor="start" x="182.5" y="-18" font-family="Helvetica,sans-Serif" font-size="10.00">mnote_canon_tag_get</text>
<text text-anchor="middle" x="237" y="-7" font-family="Helvetica,sans-Serif" font-size="10.00">_title_sub</text>
</a>
</g>
</g>
<!-- Node1&#45;&gt;Node6 -->
<g id="edge5_Node000001_Node000006" class="edge">
<title>Node1&#45;&gt;Node6</title>
<g id="a_edge5_Node000001_Node000006"><a xlink:title=" ">
<path fill="none" stroke="#63b8ff" d="M134.4,-29.51C143.72,-28.18 153.35,-26.81 162.79,-25.46"/>
<polygon fill="#63b8ff" stroke="#63b8ff" points="163.28,-28.92 172.69,-24.04 162.29,-21.99 163.28,-28.92"/>
</a>
</g>
</g>
<!-- Node3 -->
<g id="Node000003" class="node">
<title>Node3</title>
<g id="a_Node000003"><a xlink:href="mnote-canon-entry_8c.html#a9d343f3faec828b2467bacbab0919f47" target="_top" xlink:title=" ">
<polygon fill="white" stroke="#666666" points="486,-78 340,-78 340,-48 486,-48 486,-78"/>
<text text-anchor="start" x="348" y="-66" font-family="Helvetica,sans-Serif" font-size="10.00">mnote_canon_entry_count</text>
<text text-anchor="middle" x="413" y="-55" font-family="Helvetica,sans-Serif" font-size="10.00">_values</text>
</a>
</g>
</g>
<!-- Node2&#45;&gt;Node3 -->
<g id="edge2_Node000002_Node000003" class="edge">
<title>Node2&#45;&gt;Node3</title>
<g id="a_edge2_Node000002_Node000003"><a xlink:title=" ">
<path fill="none" stroke="#63b8ff" d="M304.28,-63C312.11,-63 320.18,-63 328.22,-63"/>
<polygon fill="#63b8ff" stroke="#63b8ff" points="328.01,-66.5 338.01,-63 328.01,-59.5 328.01,-66.5"/>
</a>
</g>
</g>
<!-- Node4 -->
<g id="Node000004" class="node">
<title>Node4</title>
<g id="a_Node000004"><a xlink:href="exif-utils_8c.html#a4b4acf537a8c6b9405e7b53be868e4d7" target="_top" xlink:title="Retrieve an ExifShort value from memory.">
<polygon fill="white" stroke="#666666" points="608,-72.5 522,-72.5 522,-53.5 608,-53.5 608,-72.5"/>
<text text-anchor="middle" x="565" y="-60.5" font-family="Helvetica,sans-Serif" font-size="10.00">exif_get_short</text>
</a>
</g>
</g>
<!-- Node3&#45;&gt;Node4 -->
<g id="edge3_Node000003_Node000004" class="edge">
<title>Node3&#45;&gt;Node4</title>
<g id="a_edge3_Node000003_Node000004"><a xlink:title=" ">
<path fill="none" stroke="#63b8ff" d="M486.36,-63C494.42,-63 502.52,-63 510.29,-63"/>
<polygon fill="#63b8ff" stroke="#63b8ff" points="510.26,-66.5 520.26,-63 510.26,-59.5 510.26,-66.5"/>
</a>
</g>
</g>
<!-- Node5 -->
<g id="Node000005" class="node">
<title>Node5</title>
<g id="a_Node000005"><a xlink:href="exif-utils_8c.html#a6baf094a71392f9cea23ad633ec13c8b" target="_top" xlink:title="Retrieve an ExifSShort value from memory.">
<polygon fill="white" stroke="#666666" points="736,-72.5 644,-72.5 644,-53.5 736,-53.5 736,-72.5"/>
<text text-anchor="middle" x="690" y="-60.5" font-family="Helvetica,sans-Serif" font-size="10.00">exif_get_sshort</text>
</a>
</g>
</g>
<!-- Node4&#45;&gt;Node5 -->
<g id="edge4_Node000004_Node000005" class="edge">
<title>Node4&#45;&gt;Node5</title>
<g id="a_edge4_Node000004_Node000005"><a xlink:title=" ">
<path fill="none" stroke="#63b8ff" d="M608.33,-63C616.08,-63 624.27,-63 632.36,-63"/>
<polygon fill="#63b8ff" stroke="#63b8ff" points="632.14,-66.5 642.14,-63 632.14,-59.5 632.14,-66.5"/>
</a>
</g>
</g>
<!-- Node7 -->
<g id="Node000007" class="node">
<title>Node7</title>
<g id="a_Node000007"><a xlink:href="mnote-canon-tag_8c.html#ac754f11bdc6310b58afd8a7543987953" target="_top" xlink:title=" ">
<polygon fill="white" stroke="#666666" points="475.5,-30 350.5,-30 350.5,0 475.5,0 475.5,-30"/>
<text text-anchor="start" x="358.5" y="-18" font-family="Helvetica,sans-Serif" font-size="10.00">mnote_canon_tag_get</text>
<text text-anchor="middle" x="413" y="-7" font-family="Helvetica,sans-Serif" font-size="10.00">_title</text>
</a>
</g>
</g>
<!-- Node6&#45;&gt;Node7 -->
<g id="edge6_Node000006_Node000007" class="edge">
<title>Node6&#45;&gt;Node7</title>
<g id="a_edge6_Node000006_Node000007"><a xlink:title=" ">
<path fill="none" stroke="#63b8ff" d="M299.84,-15C312.45,-15 325.84,-15 338.81,-15"/>
<polygon fill="#63b8ff" stroke="#63b8ff" points="338.56,-18.5 348.56,-15 338.56,-11.5 338.56,-18.5"/>
</a>
</g>
</g>
</g>
</svg>
