<?xml version="1.0" encoding="UTF-8" standalone="no"?>
<!DOCTYPE svg PUBLIC "-//W3C//DTD SVG 1.1//EN"
 "http://www.w3.org/Graphics/SVG/1.1/DTD/svg11.dtd">
<!-- Generated by graphviz version 2.44.1 (0)
 -->
<!-- Title: exif_mnote_data_free Pages: 1 -->
<svg width="630pt" height="84pt"
 viewBox="0.00 0.00 630.00 84.29" xmlns="http://www.w3.org/2000/svg" xmlns:xlink="http://www.w3.org/1999/xlink">
<g id="graph0" class="graph" transform="scale(1 1) rotate(0) translate(4 80.29)">
<title>exif_mnote_data_free</title>
<polygon fill="white" stroke="transparent" points="-4,4 -4,-80.29 626,-80.29 626,4 -4,4"/>
<!-- Node1 -->
<g id="node1" class="node">
<title>Node1</title>
<g id="a_node1"><a xlink:title=" ">
<polygon fill="#bfbfbf" stroke="black" points="0,-38.5 0,-57.5 124,-57.5 124,-38.5 0,-38.5"/>
<text text-anchor="middle" x="62" y="-45.5" font-family="Helvetica,sans-Serif" font-size="10.00">exif_mnote_data_free</text>
</a>
</g>
</g>
<!-- Node2 -->
<g id="node2" class="node">
<title>Node2</title>
<g id="a_node2"><a xlink:href="exif-log_8c.html#a7a9b738a7429197d68c80ffedac7d8fb" target="_top" xlink:title=" ">
<polygon fill="white" stroke="black" points="160,-38.5 160,-57.5 246,-57.5 246,-38.5 160,-38.5"/>
<text text-anchor="middle" x="203" y="-45.5" font-family="Helvetica,sans-Serif" font-size="10.00">exif_log_unref</text>
</a>
</g>
</g>
<!-- Node1&#45;&gt;Node2 -->
<g id="edge1" class="edge">
<title>Node1&#45;&gt;Node2</title>
<path fill="none" stroke="midnightblue" d="M124.37,-48C132.76,-48 141.3,-48 149.51,-48"/>
<polygon fill="midnightblue" stroke="midnightblue" points="149.69,-51.5 159.69,-48 149.69,-44.5 149.69,-51.5"/>
</g>
<!-- Node4 -->
<g id="node4" class="node">
<title>Node4</title>
<g id="a_node4"><a xlink:href="exif-mem_8c.html#a43190b81b4b4bdb4ffb89bfb612051b1" target="_top" xlink:title=" ">
<polygon fill="white" stroke="black" points="531,-38.5 531,-57.5 622,-57.5 622,-38.5 531,-38.5"/>
<text text-anchor="middle" x="576.5" y="-45.5" font-family="Helvetica,sans-Serif" font-size="10.00">exif_mem_free</text>
</a>
</g>
</g>
<!-- Node1&#45;&gt;Node4 -->
<g id="edge6" class="edge">
<title>Node1&#45;&gt;Node4</title>
<path fill="none" stroke="midnightblue" d="M102.39,-57.51C119.91,-61.28 140.87,-65.14 160,-67 308.21,-81.38 346.91,-77.59 495,-62 503.42,-61.11 512.28,-59.88 520.93,-58.51"/>
<polygon fill="midnightblue" stroke="midnightblue" points="521.65,-61.94 530.94,-56.85 520.5,-55.03 521.65,-61.94"/>
</g>
<!-- Node5 -->
<g id="node5" class="node">
<title>Node5</title>
<g id="a_node5"><a xlink:href="exif-mem_8c.html#a66744e0987af08c443df247ce55f7d87" target="_top" xlink:title="Unrefcount an ExifMem.">
<polygon fill="white" stroke="black" points="398,-0.5 398,-19.5 495,-19.5 495,-0.5 398,-0.5"/>
<text text-anchor="middle" x="446.5" y="-7.5" font-family="Helvetica,sans-Serif" font-size="10.00">exif_mem_unref</text>
</a>
</g>
</g>
<!-- Node1&#45;&gt;Node5 -->
<g id="edge7" class="edge">
<title>Node1&#45;&gt;Node5</title>
<path fill="none" stroke="midnightblue" d="M105.78,-38.4C122.61,-34.95 142.13,-31.33 160,-29 238.53,-18.74 329.97,-13.89 387.79,-11.69"/>
<polygon fill="midnightblue" stroke="midnightblue" points="387.97,-15.19 397.83,-11.32 387.71,-8.19 387.97,-15.19"/>
</g>
<!-- Node3 -->
<g id="node3" class="node">
<title>Node3</title>
<g id="a_node3"><a xlink:href="exif-log_8c.html#acd0808d6d5be73f28059797c2e2e67dc" target="_top" xlink:title="Delete instance of ExifLog.">
<polygon fill="white" stroke="black" points="282,-38.5 282,-57.5 362,-57.5 362,-38.5 282,-38.5"/>
<text text-anchor="middle" x="322" y="-45.5" font-family="Helvetica,sans-Serif" font-size="10.00">exif_log_free</text>
</a>
</g>
</g>
<!-- Node2&#45;&gt;Node3 -->
<g id="edge2" class="edge">
<title>Node2&#45;&gt;Node3</title>
<path fill="none" stroke="midnightblue" d="M246.24,-48C254.52,-48 263.28,-48 271.77,-48"/>
<polygon fill="midnightblue" stroke="midnightblue" points="271.94,-51.5 281.94,-48 271.94,-44.5 271.94,-51.5"/>
</g>
<!-- Node3&#45;&gt;Node4 -->
<g id="edge3" class="edge">
<title>Node3&#45;&gt;Node4</title>
<path fill="none" stroke="midnightblue" d="M362.18,-48C404.63,-48 472.71,-48 520.51,-48"/>
<polygon fill="midnightblue" stroke="midnightblue" points="520.69,-51.5 530.69,-48 520.69,-44.5 520.69,-51.5"/>
</g>
<!-- Node3&#45;&gt;Node5 -->
<g id="edge4" class="edge">
<title>Node3&#45;&gt;Node5</title>
<path fill="none" stroke="midnightblue" d="M353.91,-38.41C369.29,-33.64 388.08,-27.81 404.63,-22.68"/>
<polygon fill="midnightblue" stroke="midnightblue" points="406.08,-25.89 414.6,-19.59 404.01,-19.21 406.08,-25.89"/>
</g>
<!-- Node5&#45;&gt;Node4 -->
<g id="edge5" class="edge">
<title>Node5&#45;&gt;Node4</title>
<path fill="none" stroke="midnightblue" d="M479.8,-19.59C496.02,-24.4 515.88,-30.3 533.29,-35.47"/>
<polygon fill="midnightblue" stroke="midnightblue" points="532.63,-38.92 543.21,-38.41 534.62,-32.21 532.63,-38.92"/>
</g>
</g>
</svg>
