<?xml version="1.0" encoding="UTF-8" standalone="no"?>
<!DOCTYPE svg PUBLIC "-//W3C//DTD SVG 1.1//EN"
 "http://www.w3.org/Graphics/SVG/1.1/DTD/svg11.dtd">
<!-- Generated by graphviz version 2.44.1 (0)
 -->
<!-- Title: libexif/olympus/exif&#45;mnote&#45;data&#45;olympus.h Pages: 1 -->
<svg width="768pt" height="419pt"
 viewBox="0.00 0.00 767.50 419.00" xmlns="http://www.w3.org/2000/svg" xmlns:xlink="http://www.w3.org/1999/xlink">
<g id="graph0" class="graph" transform="scale(1 1) rotate(0) translate(4 415)">
<title>libexif/olympus/exif&#45;mnote&#45;data&#45;olympus.h</title>
<polygon fill="white" stroke="transparent" points="-4,4 -4,-415 763.5,-415 763.5,4 -4,4"/>
<!-- Node1 -->
<g id="node1" class="node">
<title>Node1</title>
<g id="a_node1"><a xlink:title=" ">
<polygon fill="#bfbfbf" stroke="black" points="10,-380.5 10,-410.5 142,-410.5 142,-380.5 10,-380.5"/>
<text text-anchor="start" x="18" y="-398.5" font-family="Helvetica,sans-Serif" font-size="10.00">libexif/olympus/exif</text>
<text text-anchor="middle" x="76" y="-387.5" font-family="Helvetica,sans-Serif" font-size="10.00">&#45;mnote&#45;data&#45;olympus.h</text>
</a>
</g>
</g>
<!-- Node2 -->
<g id="node2" class="node">
<title>Node2</title>
<g id="a_node2"><a xlink:href="exif-mnote-data-priv_8h.html" target="_top" xlink:title=" ">
<polygon fill="white" stroke="black" points="104.5,-313.5 104.5,-343.5 207.5,-343.5 207.5,-313.5 104.5,-313.5"/>
<text text-anchor="start" x="112.5" y="-331.5" font-family="Helvetica,sans-Serif" font-size="10.00">libexif/exif&#45;mnote</text>
<text text-anchor="middle" x="156" y="-320.5" font-family="Helvetica,sans-Serif" font-size="10.00">&#45;data&#45;priv.h</text>
</a>
</g>
</g>
<!-- Node1&#45;&gt;Node2 -->
<g id="edge1" class="edge">
<title>Node1&#45;&gt;Node2</title>
<path fill="none" stroke="midnightblue" d="M93.36,-380.4C104.26,-371.54 118.51,-359.96 130.66,-350.09"/>
<polygon fill="midnightblue" stroke="midnightblue" points="133.12,-352.6 138.68,-343.58 128.71,-347.17 133.12,-352.6"/>
</g>
<!-- Node5 -->
<g id="node5" class="node">
<title>Node5</title>
<g id="a_node5"><a xlink:href="exif-mem_8h.html" target="_top" xlink:title="Define the ExifMem data type and the associated functions.">
<polygon fill="white" stroke="black" points="339,-134.5 339,-153.5 445,-153.5 445,-134.5 339,-134.5"/>
<text text-anchor="middle" x="392" y="-141.5" font-family="Helvetica,sans-Serif" font-size="10.00">libexif/exif&#45;mem.h</text>
</a>
</g>
</g>
<!-- Node1&#45;&gt;Node5 -->
<g id="edge36" class="edge">
<title>Node1&#45;&gt;Node5</title>
<path fill="none" stroke="midnightblue" d="M77.58,-380.31C79.87,-363.52 85.09,-335.07 96,-313 127.1,-250.09 135.5,-227.21 195,-190 235.17,-164.88 287.79,-153.74 328.53,-148.82"/>
<polygon fill="midnightblue" stroke="midnightblue" points="329.07,-152.28 338.62,-147.7 328.3,-145.33 329.07,-152.28"/>
</g>
<!-- Node7 -->
<g id="node7" class="node">
<title>Node7</title>
<g id="a_node7"><a xlink:href="exif-byte-order_8h.html" target="_top" xlink:title="Defines the ExifByteOrder enum and the associated functions.">
<polygon fill="white" stroke="black" points="48.5,-6 48.5,-25 179.5,-25 179.5,-6 48.5,-6"/>
<text text-anchor="middle" x="114" y="-13" font-family="Helvetica,sans-Serif" font-size="10.00">libexif/exif&#45;byte&#45;order.h</text>
</a>
</g>
</g>
<!-- Node1&#45;&gt;Node7 -->
<g id="edge16" class="edge">
<title>Node1&#45;&gt;Node7</title>
<path fill="none" stroke="midnightblue" d="M60.98,-380.23C38.84,-357.55 0,-310.89 0,-262.5 0,-262.5 0,-262.5 0,-143 0,-90.57 54.7,-50.08 88.32,-30.14"/>
<polygon fill="midnightblue" stroke="midnightblue" points="90.24,-33.08 97.18,-25.07 86.76,-27 90.24,-33.08"/>
</g>
<!-- Node11 -->
<g id="node11" class="node">
<title>Node11</title>
<g id="a_node11"><a xlink:href="mnote-olympus-entry_8h.html" target="_top" xlink:title=" ">
<polygon fill="white" stroke="black" points="197.5,-67.5 197.5,-97.5 324.5,-97.5 324.5,-67.5 197.5,-67.5"/>
<text text-anchor="start" x="205.5" y="-85.5" font-family="Helvetica,sans-Serif" font-size="10.00">libexif/olympus/mnote</text>
<text text-anchor="middle" x="261" y="-74.5" font-family="Helvetica,sans-Serif" font-size="10.00">&#45;olympus&#45;entry.h</text>
</a>
</g>
</g>
<!-- Node1&#45;&gt;Node11 -->
<g id="edge12" class="edge">
<title>Node1&#45;&gt;Node11</title>
<path fill="none" stroke="midnightblue" d="M69.03,-380.24C58.06,-356.44 38,-306.86 38,-262.5 38,-262.5 38,-262.5 38,-199 38,-130.4 122.23,-102.5 187.16,-91.18"/>
<polygon fill="midnightblue" stroke="midnightblue" points="188.09,-94.57 197.4,-89.5 186.96,-87.66 188.09,-94.57"/>
</g>
<!-- Node13 -->
<g id="node13" class="node">
<title>Node13</title>
<g id="a_node13"><a xlink:href="exif-data_8h.html" target="_top" xlink:title="Defines the ExifData type and the associated functions.">
<polygon fill="white" stroke="black" points="380,-319 380,-338 482,-338 482,-319 380,-319"/>
<text text-anchor="middle" x="431" y="-326" font-family="Helvetica,sans-Serif" font-size="10.00">libexif/exif&#45;data.h</text>
</a>
</g>
</g>
<!-- Node1&#45;&gt;Node13 -->
<g id="edge17" class="edge">
<title>Node1&#45;&gt;Node13</title>
<path fill="none" stroke="midnightblue" d="M142.36,-382.35C209.18,-370.12 311.16,-351.44 374.31,-339.88"/>
<polygon fill="midnightblue" stroke="midnightblue" points="375.28,-343.26 384.49,-338.02 374.02,-336.38 375.28,-343.26"/>
</g>
<!-- Node3 -->
<g id="node3" class="node">
<title>Node3</title>
<g id="a_node3"><a xlink:href="exif-mnote-data_8h.html" target="_top" xlink:title="Handling EXIF MakerNote tags.">
<polygon fill="white" stroke="black" points="180.5,-246.5 180.5,-276.5 283.5,-276.5 283.5,-246.5 180.5,-246.5"/>
<text text-anchor="start" x="188.5" y="-264.5" font-family="Helvetica,sans-Serif" font-size="10.00">libexif/exif&#45;mnote</text>
<text text-anchor="middle" x="232" y="-253.5" font-family="Helvetica,sans-Serif" font-size="10.00">&#45;data.h</text>
</a>
</g>
</g>
<!-- Node2&#45;&gt;Node3 -->
<g id="edge2" class="edge">
<title>Node2&#45;&gt;Node3</title>
<path fill="none" stroke="midnightblue" d="M172.49,-313.4C182.85,-304.54 196.38,-292.96 207.93,-283.09"/>
<polygon fill="midnightblue" stroke="midnightblue" points="210.22,-285.74 215.54,-276.58 205.67,-280.42 210.22,-285.74"/>
</g>
<!-- Node4 -->
<g id="node4" class="node">
<title>Node4</title>
<g id="a_node4"><a xlink:href="exif-log_8h.html" target="_top" xlink:title="Log message infrastructure.">
<polygon fill="white" stroke="black" points="203.5,-190.5 203.5,-209.5 298.5,-209.5 298.5,-190.5 203.5,-190.5"/>
<text text-anchor="middle" x="251" y="-197.5" font-family="Helvetica,sans-Serif" font-size="10.00">libexif/exif&#45;log.h</text>
</a>
</g>
</g>
<!-- Node2&#45;&gt;Node4 -->
<g id="edge11" class="edge">
<title>Node2&#45;&gt;Node4</title>
<path fill="none" stroke="midnightblue" d="M155.36,-313.44C155.28,-296 157.52,-266.14 172,-246 182.53,-231.35 199.4,-220.82 214.86,-213.64"/>
<polygon fill="midnightblue" stroke="midnightblue" points="216.43,-216.77 224.23,-209.6 213.66,-210.34 216.43,-216.77"/>
</g>
<!-- Node2&#45;&gt;Node7 -->
<g id="edge10" class="edge">
<title>Node2&#45;&gt;Node7</title>
<path fill="none" stroke="midnightblue" d="M147.9,-313.21C135.7,-290.3 114,-243.58 114,-201 114,-201 114,-201 114,-143 114,-104.7 114,-59.88 114,-35.2"/>
<polygon fill="midnightblue" stroke="midnightblue" points="117.5,-35.09 114,-25.09 110.5,-35.09 117.5,-35.09"/>
</g>
<!-- Node3&#45;&gt;Node4 -->
<g id="edge3" class="edge">
<title>Node3&#45;&gt;Node4</title>
<path fill="none" stroke="midnightblue" d="M236.5,-246.4C239.09,-238.29 242.38,-228.01 245.16,-219.28"/>
<polygon fill="midnightblue" stroke="midnightblue" points="248.53,-220.25 248.24,-209.66 241.86,-218.12 248.53,-220.25"/>
</g>
<!-- Node4&#45;&gt;Node5 -->
<g id="edge4" class="edge">
<title>Node4&#45;&gt;Node5</title>
<path fill="none" stroke="midnightblue" d="M273.34,-190.44C296.75,-181.48 333.74,-167.31 360.19,-157.18"/>
<polygon fill="midnightblue" stroke="midnightblue" points="361.68,-160.36 369.76,-153.52 359.17,-153.82 361.68,-160.36"/>
</g>
<!-- Node10 -->
<g id="node10" class="node">
<title>Node10</title>
<g id="a_node10"><a xlink:title=" ">
<polygon fill="white" stroke="#bfbfbf" points="223,-134.5 223,-153.5 279,-153.5 279,-134.5 223,-134.5"/>
<text text-anchor="middle" x="251" y="-141.5" font-family="Helvetica,sans-Serif" font-size="10.00">stdarg.h</text>
</a>
</g>
</g>
<!-- Node4&#45;&gt;Node10 -->
<g id="edge9" class="edge">
<title>Node4&#45;&gt;Node10</title>
<path fill="none" stroke="midnightblue" d="M251,-190.08C251,-183.01 251,-172.86 251,-163.99"/>
<polygon fill="midnightblue" stroke="midnightblue" points="254.5,-163.75 251,-153.75 247.5,-163.75 254.5,-163.75"/>
</g>
<!-- Node6 -->
<g id="node6" class="node">
<title>Node6</title>
<g id="a_node6"><a xlink:href="exif-utils_8h.html" target="_top" xlink:title="EXIF data manipulation functions and types.">
<polygon fill="white" stroke="black" points="342.5,-73 342.5,-92 443.5,-92 443.5,-73 342.5,-73"/>
<text text-anchor="middle" x="393" y="-80" font-family="Helvetica,sans-Serif" font-size="10.00">libexif/exif&#45;utils.h</text>
</a>
</g>
</g>
<!-- Node5&#45;&gt;Node6 -->
<g id="edge5" class="edge">
<title>Node5&#45;&gt;Node6</title>
<path fill="none" stroke="midnightblue" d="M392.14,-134.48C392.28,-126.08 392.5,-112.98 392.69,-102.16"/>
<polygon fill="midnightblue" stroke="midnightblue" points="396.19,-102.07 392.86,-92.01 389.19,-101.95 396.19,-102.07"/>
</g>
<!-- Node6&#45;&gt;Node7 -->
<g id="edge6" class="edge">
<title>Node6&#45;&gt;Node7</title>
<path fill="none" stroke="midnightblue" d="M358.7,-72.98C350.61,-70.99 342,-68.9 334,-67 274.93,-52.96 206.78,-37.42 162.18,-27.33"/>
<polygon fill="midnightblue" stroke="midnightblue" points="162.72,-23.87 152.2,-25.08 161.18,-30.7 162.72,-23.87"/>
</g>
<!-- Node8 -->
<g id="node8" class="node">
<title>Node8</title>
<g id="a_node8"><a xlink:href="exif-format_8h.html" target="_top" xlink:title="Handling native EXIF data types.">
<polygon fill="white" stroke="black" points="453.5,-6 453.5,-25 566.5,-25 566.5,-6 453.5,-6"/>
<text text-anchor="middle" x="510" y="-13" font-family="Helvetica,sans-Serif" font-size="10.00">libexif/exif&#45;format.h</text>
</a>
</g>
</g>
<!-- Node6&#45;&gt;Node8 -->
<g id="edge7" class="edge">
<title>Node6&#45;&gt;Node8</title>
<path fill="none" stroke="midnightblue" d="M408.78,-72.73C428.51,-61.77 462.51,-42.88 485.61,-30.05"/>
<polygon fill="midnightblue" stroke="midnightblue" points="487.43,-33.04 494.47,-25.13 484.03,-26.92 487.43,-33.04"/>
</g>
<!-- Node9 -->
<g id="node9" class="node">
<title>Node9</title>
<g id="a_node9"><a xlink:title=" ">
<polygon fill="white" stroke="#bfbfbf" points="343,-6 343,-25 435,-25 435,-6 343,-6"/>
<text text-anchor="middle" x="389" y="-13" font-family="Helvetica,sans-Serif" font-size="10.00">libexif/_stdint.h</text>
</a>
</g>
</g>
<!-- Node6&#45;&gt;Node9 -->
<g id="edge8" class="edge">
<title>Node6&#45;&gt;Node9</title>
<path fill="none" stroke="midnightblue" d="M392.46,-72.73C391.87,-63.18 390.91,-47.62 390.16,-35.28"/>
<polygon fill="midnightblue" stroke="midnightblue" points="393.64,-34.89 389.53,-25.13 386.65,-35.32 393.64,-34.89"/>
</g>
<!-- Node11&#45;&gt;Node7 -->
<g id="edge14" class="edge">
<title>Node11&#45;&gt;Node7</title>
<path fill="none" stroke="midnightblue" d="M229.1,-67.4C203.31,-55.99 167.33,-40.08 142.49,-29.1"/>
<polygon fill="midnightblue" stroke="midnightblue" points="143.8,-25.85 133.24,-25.01 140.97,-32.25 143.8,-25.85"/>
</g>
<!-- Node11&#45;&gt;Node8 -->
<g id="edge13" class="edge">
<title>Node11&#45;&gt;Node8</title>
<path fill="none" stroke="midnightblue" d="M314.72,-67.48C360.52,-55.52 425.44,-38.57 467.64,-27.56"/>
<polygon fill="midnightblue" stroke="midnightblue" points="468.54,-30.94 477.33,-25.03 466.77,-24.17 468.54,-30.94"/>
</g>
<!-- Node12 -->
<g id="node12" class="node">
<title>Node12</title>
<g id="a_node12"><a xlink:href="mnote-olympus-tag_8h.html" target="_top" xlink:title=" ">
<polygon fill="white" stroke="black" points="197.5,-0.5 197.5,-30.5 324.5,-30.5 324.5,-0.5 197.5,-0.5"/>
<text text-anchor="start" x="205.5" y="-18.5" font-family="Helvetica,sans-Serif" font-size="10.00">libexif/olympus/mnote</text>
<text text-anchor="middle" x="261" y="-7.5" font-family="Helvetica,sans-Serif" font-size="10.00">&#45;olympus&#45;tag.h</text>
</a>
</g>
</g>
<!-- Node11&#45;&gt;Node12 -->
<g id="edge15" class="edge">
<title>Node11&#45;&gt;Node12</title>
<path fill="none" stroke="midnightblue" d="M261,-67.4C261,-59.64 261,-49.81 261,-40.86"/>
<polygon fill="midnightblue" stroke="midnightblue" points="264.5,-40.58 261,-30.58 257.5,-40.58 264.5,-40.58"/>
</g>
<!-- Node13&#45;&gt;Node3 -->
<g id="edge34" class="edge">
<title>Node13&#45;&gt;Node3</title>
<path fill="none" stroke="midnightblue" d="M404.57,-318.87C374.07,-308.9 323.13,-292.27 284.49,-279.64"/>
<polygon fill="midnightblue" stroke="midnightblue" points="285.54,-276.31 274.95,-276.53 283.37,-282.96 285.54,-276.31"/>
</g>
<!-- Node13&#45;&gt;Node4 -->
<g id="edge21" class="edge">
<title>Node13&#45;&gt;Node4</title>
<path fill="none" stroke="midnightblue" d="M411.65,-318.91C391.88,-309.74 360.66,-294.2 336,-277 309.77,-258.7 282.79,-233.23 266.46,-216.93"/>
<polygon fill="midnightblue" stroke="midnightblue" points="268.86,-214.38 259.34,-209.73 263.89,-219.3 268.86,-214.38"/>
</g>
<!-- Node13&#45;&gt;Node5 -->
<g id="edge35" class="edge">
<title>Node13&#45;&gt;Node5</title>
<path fill="none" stroke="midnightblue" d="M426.08,-318.87C420.71,-309.06 412.33,-292.4 408,-277 396.95,-237.69 393.53,-189.67 392.47,-163.76"/>
<polygon fill="midnightblue" stroke="midnightblue" points="395.96,-163.39 392.14,-153.51 388.97,-163.62 395.96,-163.39"/>
</g>
<!-- Node13&#45;&gt;Node7 -->
<g id="edge18" class="edge">
<title>Node13&#45;&gt;Node7</title>
<path fill="none" stroke="midnightblue" d="M425.09,-318.9C400.47,-283.2 306.57,-147.87 288,-134 250.49,-105.98 227.96,-123.96 189,-98 162.84,-80.57 139.5,-52.16 126.05,-33.9"/>
<polygon fill="midnightblue" stroke="midnightblue" points="128.63,-31.49 119.96,-25.4 122.94,-35.56 128.63,-31.49"/>
</g>
<!-- Node14 -->
<g id="node14" class="node">
<title>Node14</title>
<g id="a_node14"><a xlink:href="exif-data-type_8h.html" target="_top" xlink:title=" ">
<polygon fill="white" stroke="black" points="517,-134.5 517,-153.5 645,-153.5 645,-134.5 517,-134.5"/>
<text text-anchor="middle" x="581" y="-141.5" font-family="Helvetica,sans-Serif" font-size="10.00">libexif/exif&#45;data&#45;type.h</text>
</a>
</g>
</g>
<!-- Node13&#45;&gt;Node14 -->
<g id="edge19" class="edge">
<title>Node13&#45;&gt;Node14</title>
<path fill="none" stroke="midnightblue" d="M469.51,-318.99C493.81,-311.71 524.08,-298.85 543,-277 571.28,-244.35 578.56,-191.82 580.41,-163.89"/>
<polygon fill="midnightblue" stroke="midnightblue" points="583.92,-163.71 580.91,-153.56 576.93,-163.37 583.92,-163.71"/>
</g>
<!-- Node15 -->
<g id="node15" class="node">
<title>Node15</title>
<g id="a_node15"><a xlink:href="exif-ifd_8h.html" target="_top" xlink:title=" ">
<polygon fill="white" stroke="black" points="666.5,-134.5 666.5,-153.5 759.5,-153.5 759.5,-134.5 666.5,-134.5"/>
<text text-anchor="middle" x="713" y="-141.5" font-family="Helvetica,sans-Serif" font-size="10.00">libexif/exif&#45;ifd.h</text>
</a>
</g>
</g>
<!-- Node13&#45;&gt;Node15 -->
<g id="edge20" class="edge">
<title>Node13&#45;&gt;Node15</title>
<path fill="none" stroke="midnightblue" d="M476.88,-318.98C513.19,-311.15 564.5,-297.58 606,-277 650.67,-254.84 668.12,-251.34 696,-210 705.27,-196.25 709.49,-177.72 711.41,-163.97"/>
<polygon fill="midnightblue" stroke="midnightblue" points="714.92,-164.07 712.54,-153.74 707.96,-163.3 714.92,-164.07"/>
</g>
<!-- Node16 -->
<g id="node16" class="node">
<title>Node16</title>
<g id="a_node16"><a xlink:href="exif-tag_8h.html" target="_top" xlink:title="Handling EXIF tags.">
<polygon fill="white" stroke="black" points="591,-190.5 591,-209.5 687,-209.5 687,-190.5 591,-190.5"/>
<text text-anchor="middle" x="639" y="-197.5" font-family="Helvetica,sans-Serif" font-size="10.00">libexif/exif&#45;tag.h</text>
</a>
</g>
</g>
<!-- Node13&#45;&gt;Node16 -->
<g id="edge22" class="edge">
<title>Node13&#45;&gt;Node16</title>
<path fill="none" stroke="midnightblue" d="M475.13,-318.96C505.73,-311.5 546.33,-298.43 577,-277 599.29,-261.43 617.89,-235.72 628.74,-218.57"/>
<polygon fill="midnightblue" stroke="midnightblue" points="631.98,-219.97 634.2,-209.61 626.01,-216.33 631.98,-219.97"/>
</g>
<!-- Node17 -->
<g id="node17" class="node">
<title>Node17</title>
<g id="a_node17"><a xlink:href="exif-content_8h.html" target="_top" xlink:title="Handling EXIF IFDs.">
<polygon fill="white" stroke="black" points="416.5,-252 416.5,-271 533.5,-271 533.5,-252 416.5,-252"/>
<text text-anchor="middle" x="475" y="-259" font-family="Helvetica,sans-Serif" font-size="10.00">libexif/exif&#45;content.h</text>
</a>
</g>
</g>
<!-- Node13&#45;&gt;Node17 -->
<g id="edge25" class="edge">
<title>Node13&#45;&gt;Node17</title>
<path fill="none" stroke="midnightblue" d="M432.15,-318.73C436.87,-308.6 447.93,-291.69 457.82,-279.06"/>
<polygon fill="midnightblue" stroke="midnightblue" points="460.71,-281.06 464.4,-271.13 455.32,-276.59 460.71,-281.06"/>
</g>
<!-- Node16&#45;&gt;Node14 -->
<g id="edge24" class="edge">
<title>Node16&#45;&gt;Node14</title>
<path fill="none" stroke="midnightblue" d="M629.68,-190.32C621.11,-182.34 608.19,-170.31 597.81,-160.65"/>
<polygon fill="midnightblue" stroke="midnightblue" points="600.19,-158.09 590.49,-153.83 595.42,-163.21 600.19,-158.09"/>
</g>
<!-- Node16&#45;&gt;Node15 -->
<g id="edge23" class="edge">
<title>Node16&#45;&gt;Node15</title>
<path fill="none" stroke="midnightblue" d="M650.89,-190.32C662.15,-182.11 679.29,-169.6 692.71,-159.81"/>
<polygon fill="midnightblue" stroke="midnightblue" points="694.88,-162.56 700.89,-153.83 690.75,-156.9 694.88,-162.56"/>
</g>
<!-- Node17&#45;&gt;Node4 -->
<g id="edge32" class="edge">
<title>Node17&#45;&gt;Node4</title>
<path fill="none" stroke="midnightblue" d="M442.91,-251.98C403.4,-241.48 336.22,-223.64 292.74,-212.09"/>
<polygon fill="midnightblue" stroke="midnightblue" points="293.6,-208.69 283.03,-209.51 291.8,-215.46 293.6,-208.69"/>
</g>
<!-- Node17&#45;&gt;Node5 -->
<g id="edge33" class="edge">
<title>Node17&#45;&gt;Node5</title>
<path fill="none" stroke="midnightblue" d="M463.66,-251.85C452.02,-242.52 433.98,-226.75 422,-210 411.62,-195.48 403.44,-176.8 398.26,-163.19"/>
<polygon fill="midnightblue" stroke="midnightblue" points="401.47,-161.75 394.77,-153.54 394.88,-164.14 401.47,-161.75"/>
</g>
<!-- Node17&#45;&gt;Node13 -->
<g id="edge31" class="edge">
<title>Node17&#45;&gt;Node13</title>
<path fill="none" stroke="midnightblue" d="M473.92,-271.13C469.25,-281.2 458.22,-298.1 448.31,-310.77"/>
<polygon fill="midnightblue" stroke="midnightblue" points="445.4,-308.8 441.72,-318.73 450.79,-313.26 445.4,-308.8"/>
</g>
<!-- Node17&#45;&gt;Node16 -->
<g id="edge26" class="edge">
<title>Node17&#45;&gt;Node16</title>
<path fill="none" stroke="midnightblue" d="M498.5,-251.98C526.63,-241.77 573.93,-224.61 605.79,-213.05"/>
<polygon fill="midnightblue" stroke="midnightblue" points="607.34,-216.21 615.55,-209.51 604.95,-209.63 607.34,-216.21"/>
</g>
<!-- Node18 -->
<g id="node18" class="node">
<title>Node18</title>
<g id="a_node18"><a xlink:href="exif-entry_8h.html" target="_top" xlink:title="Handling EXIF entries.">
<polygon fill="white" stroke="black" points="431,-190.5 431,-209.5 535,-209.5 535,-190.5 431,-190.5"/>
<text text-anchor="middle" x="483" y="-197.5" font-family="Helvetica,sans-Serif" font-size="10.00">libexif/exif&#45;entry.h</text>
</a>
</g>
</g>
<!-- Node17&#45;&gt;Node18 -->
<g id="edge27" class="edge">
<title>Node17&#45;&gt;Node18</title>
<path fill="none" stroke="midnightblue" d="M471.25,-251.98C470.54,-243.49 471.86,-230.2 474.25,-219.32"/>
<polygon fill="midnightblue" stroke="midnightblue" points="477.67,-220.08 476.96,-209.51 470.92,-218.22 477.67,-220.08"/>
</g>
<!-- Node18&#45;&gt;Node5 -->
<g id="edge30" class="edge">
<title>Node18&#45;&gt;Node5</title>
<path fill="none" stroke="midnightblue" d="M468.38,-190.32C454.05,-181.82 431.99,-168.73 415.25,-158.8"/>
<polygon fill="midnightblue" stroke="midnightblue" points="416.97,-155.75 406.58,-153.65 413.4,-161.77 416.97,-155.75"/>
</g>
<!-- Node18&#45;&gt;Node8 -->
<g id="edge29" class="edge">
<title>Node18&#45;&gt;Node8</title>
<path fill="none" stroke="midnightblue" d="M484.3,-190.2C488.46,-162.07 501.5,-73.96 507.24,-35.16"/>
<polygon fill="midnightblue" stroke="midnightblue" points="510.71,-35.62 508.71,-25.21 503.78,-34.59 510.71,-35.62"/>
</g>
<!-- Node18&#45;&gt;Node17 -->
<g id="edge28" class="edge">
<title>Node18&#45;&gt;Node17</title>
<path fill="none" stroke="midnightblue" d="M486.75,-209.51C487.47,-217.99 486.14,-231.27 483.75,-242.16"/>
<polygon fill="midnightblue" stroke="midnightblue" points="480.33,-241.4 481.05,-251.98 487.08,-243.27 480.33,-241.4"/>
</g>
</g>
</svg>
