<?xml version="1.0" encoding="UTF-8" standalone="no"?>
<!DOCTYPE svg PUBLIC "-//W3C//DTD SVG 1.1//EN"
 "http://www.w3.org/Graphics/SVG/1.1/DTD/svg11.dtd">
<!-- Generated by graphviz version 7.0.1 (0)
 -->
<!-- Title: libexif/exif&#45;entry.c Pages: 1 -->
<svg width="1183pt" height="478pt"
 viewBox="0.00 0.00 1182.50 478.00" xmlns="http://www.w3.org/2000/svg" xmlns:xlink="http://www.w3.org/1999/xlink">
<g id="graph0" class="graph" transform="scale(1 1) rotate(0) translate(4 474)">
<title>libexif/exif&#45;entry.c</title>
<!-- Node1 -->
<g id="Node000001" class="node">
<title>Node1</title>
<g id="a_Node000001"><a xlink:title=" ">
<polygon fill="#999999" stroke="#666666" points="825,-470 721,-470 721,-451 825,-451 825,-470"/>
<text text-anchor="middle" x="773" y="-458" font-family="Helvetica,sans-Serif" font-size="10.00">libexif/exif&#45;entry.c</text>
</a>
</g>
</g>
<!-- Node2 -->
<g id="Node000002" class="node">
<title>Node2</title>
<g id="a_Node000002"><a xlink:title=" ">
<polygon fill="#e0e0e0" stroke="#999999" points="56,-360 0,-360 0,-341 56,-341 56,-360"/>
<text text-anchor="middle" x="28" y="-348" font-family="Helvetica,sans-Serif" font-size="10.00">config.h</text>
</a>
</g>
</g>
<!-- Node1&#45;&gt;Node2 -->
<g id="edge1_Node000001_Node000002" class="edge">
<title>Node1&#45;&gt;Node2</title>
<g id="a_edge1_Node000001_Node000002"><a xlink:title=" ">
<path fill="none" stroke="#63b8ff" d="M720.6,-458.38C552.64,-454.55 37.27,-440.74 13,-415 1.6,-402.92 8.18,-383.84 15.88,-369.75"/>
<polygon fill="#63b8ff" stroke="#63b8ff" points="18.73,-371.8 20.93,-361.44 12.75,-368.17 18.73,-371.8"/>
</a>
</g>
</g>
<!-- Node3 -->
<g id="Node000003" class="node">
<title>Node3</title>
<g id="a_Node000003"><a xlink:href="exif-entry_8h.html" target="_top" xlink:title="Handling EXIF entries.">
<polygon fill="white" stroke="#666666" points="532,-415 428,-415 428,-396 532,-396 532,-415"/>
<text text-anchor="middle" x="480" y="-403" font-family="Helvetica,sans-Serif" font-size="10.00">libexif/exif&#45;entry.h</text>
</a>
</g>
</g>
<!-- Node1&#45;&gt;Node3 -->
<g id="edge2_Node000001_Node000003" class="edge">
<title>Node1&#45;&gt;Node3</title>
<g id="a_edge2_Node000001_Node000003"><a xlink:title=" ">
<path fill="none" stroke="#63b8ff" d="M723.3,-450.51C672.84,-441.38 594.66,-427.24 540.61,-417.46"/>
<polygon fill="#63b8ff" stroke="#63b8ff" points="541.41,-414.05 530.95,-415.72 540.16,-420.94 541.41,-414.05"/>
</a>
</g>
</g>
<!-- Node6 -->
<g id="Node000006" class="node">
<title>Node6</title>
<g id="a_Node000006"><a xlink:href="exif-ifd_8h.html" target="_top" xlink:title=" ">
<polygon fill="white" stroke="#666666" points="717.5,-184 624.5,-184 624.5,-165 717.5,-165 717.5,-184"/>
<text text-anchor="middle" x="671" y="-172" font-family="Helvetica,sans-Serif" font-size="10.00">libexif/exif&#45;ifd.h</text>
</a>
</g>
</g>
<!-- Node1&#45;&gt;Node6 -->
<g id="edge28_Node000001_Node000006" class="edge">
<title>Node1&#45;&gt;Node6</title>
<g id="a_edge28_Node000001_Node000006"><a xlink:title=" ">
<path fill="none" stroke="#63b8ff" d="M762.84,-450.5C744.56,-433.26 708,-393.52 708,-351.5 708,-351.5 708,-351.5 708,-294.5 708,-257.85 691.8,-217.61 680.84,-194.56"/>
<polygon fill="#63b8ff" stroke="#63b8ff" points="684.08,-193.22 676.51,-185.82 677.81,-196.33 684.08,-193.22"/>
</a>
</g>
</g>
<!-- Node12 -->
<g id="Node000012" class="node">
<title>Node12</title>
<g id="a_Node000012"><a xlink:href="exif-utils_8h.html" target="_top" xlink:title="EXIF data manipulation functions and types.">
<polygon fill="white" stroke="#666666" points="296.5,-74 195.5,-74 195.5,-55 296.5,-55 296.5,-74"/>
<text text-anchor="middle" x="246" y="-62" font-family="Helvetica,sans-Serif" font-size="10.00">libexif/exif&#45;utils.h</text>
</a>
</g>
</g>
<!-- Node1&#45;&gt;Node12 -->
<g id="edge29_Node000001_Node000012" class="edge">
<title>Node1&#45;&gt;Node12</title>
<g id="a_edge29_Node000001_Node000012"><a xlink:title=" ">
<path fill="none" stroke="#63b8ff" d="M720.65,-456.22C567.33,-445.9 130,-411.25 130,-351.5 130,-351.5 130,-351.5 130,-173.5 130,-127.74 178.95,-95.86 213.25,-79.13"/>
<polygon fill="#63b8ff" stroke="#63b8ff" points="214.4,-82.46 221.99,-75.07 211.44,-76.12 214.4,-82.46"/>
</a>
</g>
</g>
<!-- Node17 -->
<g id="Node000017" class="node">
<title>Node17</title>
<g id="a_Node000017"><a xlink:href="i18n_8h.html" target="_top" xlink:title=" ">
<polygon fill="white" stroke="#666666" points="102,-415 22,-415 22,-396 102,-396 102,-415"/>
<text text-anchor="middle" x="62" y="-403" font-family="Helvetica,sans-Serif" font-size="10.00">libexif/i18n.h</text>
</a>
</g>
</g>
<!-- Node1&#45;&gt;Node17 -->
<g id="edge30_Node000001_Node000017" class="edge">
<title>Node1&#45;&gt;Node17</title>
<g id="a_edge30_Node000001_Node000017"><a xlink:title=" ">
<path fill="none" stroke="#63b8ff" d="M720.91,-457.54C609.59,-453.01 340.38,-440.21 116,-415 115.17,-414.91 114.33,-414.81 113.49,-414.71"/>
<polygon fill="#63b8ff" stroke="#63b8ff" points="114.22,-411.27 103.85,-413.45 113.31,-418.22 114.22,-411.27"/>
</a>
</g>
</g>
<!-- Node18 -->
<g id="Node000018" class="node">
<title>Node18</title>
<g id="a_Node000018"><a xlink:href="exif-gps-ifd_8h.html" target="_top" xlink:title="Info about GPS tags.">
<polygon fill="white" stroke="#666666" points="854,-305 740,-305 740,-286 854,-286 854,-305"/>
<text text-anchor="middle" x="797" y="-293" font-family="Helvetica,sans-Serif" font-size="10.00">libexif/exif&#45;gps&#45;ifd.h</text>
</a>
</g>
</g>
<!-- Node1&#45;&gt;Node18 -->
<g id="edge32_Node000001_Node000018" class="edge">
<title>Node1&#45;&gt;Node18</title>
<g id="a_edge32_Node000001_Node000018"><a xlink:title=" ">
<path fill="none" stroke="#63b8ff" d="M771.2,-450.68C769.47,-441.74 766.98,-427.48 766,-415 763.19,-379.07 777.69,-338.79 787.8,-315.65"/>
<polygon fill="#63b8ff" stroke="#63b8ff" points="790.96,-317.16 791.95,-306.61 784.6,-314.24 790.96,-317.16"/>
</a>
</g>
</g>
<!-- Node20 -->
<g id="Node000020" class="node">
<title>Node20</title>
<g id="a_Node000020"><a xlink:title=" ">
<polygon fill="#e0e0e0" stroke="#999999" points="827.5,-415 774.5,-415 774.5,-396 827.5,-396 827.5,-415"/>
<text text-anchor="middle" x="801" y="-403" font-family="Helvetica,sans-Serif" font-size="10.00">ctype.h</text>
</a>
</g>
</g>
<!-- Node1&#45;&gt;Node20 -->
<g id="edge36_Node000001_Node000020" class="edge">
<title>Node1&#45;&gt;Node20</title>
<g id="a_edge36_Node000001_Node000020"><a xlink:title=" ">
<path fill="none" stroke="#63b8ff" d="M777.62,-450.75C781.25,-443.88 786.43,-434.08 790.99,-425.45"/>
<polygon fill="#63b8ff" stroke="#63b8ff" points="793.99,-427.26 795.57,-416.78 787.8,-423.99 793.99,-427.26"/>
</a>
</g>
</g>
<!-- Node21 -->
<g id="Node000021" class="node">
<title>Node21</title>
<g id="a_Node000021"><a xlink:title=" ">
<polygon fill="#e0e0e0" stroke="#999999" points="898.5,-415 845.5,-415 845.5,-396 898.5,-396 898.5,-415"/>
<text text-anchor="middle" x="872" y="-403" font-family="Helvetica,sans-Serif" font-size="10.00">stdlib.h</text>
</a>
</g>
</g>
<!-- Node1&#45;&gt;Node21 -->
<g id="edge37_Node000001_Node000021" class="edge">
<title>Node1&#45;&gt;Node21</title>
<g id="a_edge37_Node000001_Node000021"><a xlink:title=" ">
<path fill="none" stroke="#63b8ff" d="M789.79,-450.51C805.1,-442.31 827.97,-430.07 845.7,-420.58"/>
<polygon fill="#63b8ff" stroke="#63b8ff" points="846.96,-423.88 854.12,-416.07 843.65,-417.71 846.96,-423.88"/>
</a>
</g>
</g>
<!-- Node22 -->
<g id="Node000022" class="node">
<title>Node22</title>
<g id="a_Node000022"><a xlink:title=" ">
<polygon fill="#e0e0e0" stroke="#999999" points="967,-415 917,-415 917,-396 967,-396 967,-415"/>
<text text-anchor="middle" x="942" y="-403" font-family="Helvetica,sans-Serif" font-size="10.00">stdio.h</text>
</a>
</g>
</g>
<!-- Node1&#45;&gt;Node22 -->
<g id="edge38_Node000001_Node000022" class="edge">
<title>Node1&#45;&gt;Node22</title>
<g id="a_edge38_Node000001_Node000022"><a xlink:title=" ">
<path fill="none" stroke="#63b8ff" d="M801.67,-450.51C830.35,-441.51 874.57,-427.65 905.69,-417.89"/>
<polygon fill="#63b8ff" stroke="#63b8ff" points="906.57,-421.28 915.07,-414.95 904.48,-414.6 906.57,-421.28"/>
</a>
</g>
</g>
<!-- Node23 -->
<g id="Node000023" class="node">
<title>Node23</title>
<g id="a_Node000023"><a xlink:title=" ">
<polygon fill="#e0e0e0" stroke="#999999" points="1038.5,-415 985.5,-415 985.5,-396 1038.5,-396 1038.5,-415"/>
<text text-anchor="middle" x="1012" y="-403" font-family="Helvetica,sans-Serif" font-size="10.00">string.h</text>
</a>
</g>
</g>
<!-- Node1&#45;&gt;Node23 -->
<g id="edge39_Node000001_Node000023" class="edge">
<title>Node1&#45;&gt;Node23</title>
<g id="a_edge39_Node000001_Node000023"><a xlink:title=" ">
<path fill="none" stroke="#63b8ff" d="M814.64,-450.58C853.38,-442.23 913.01,-429.27 974.23,-415.37"/>
<polygon fill="#63b8ff" stroke="#63b8ff" points="974.82,-418.83 983.8,-413.2 973.27,-412 974.82,-418.83"/>
</a>
</g>
</g>
<!-- Node24 -->
<g id="Node000024" class="node">
<title>Node24</title>
<g id="a_Node000024"><a xlink:title=" ">
<polygon fill="#e0e0e0" stroke="#999999" points="1105,-415 1057,-415 1057,-396 1105,-396 1105,-415"/>
<text text-anchor="middle" x="1081" y="-403" font-family="Helvetica,sans-Serif" font-size="10.00">time.h</text>
</a>
</g>
</g>
<!-- Node1&#45;&gt;Node24 -->
<g id="edge40_Node000001_Node000024" class="edge">
<title>Node1&#45;&gt;Node24</title>
<g id="a_edge40_Node000001_Node000024"><a xlink:title=" ">
<path fill="none" stroke="#63b8ff" d="M825.47,-452.47C878.62,-445.02 963.4,-432.25 1045.51,-415.36"/>
<polygon fill="#63b8ff" stroke="#63b8ff" points="1045.99,-418.84 1055.07,-413.37 1044.56,-411.99 1045.99,-418.84"/>
</a>
</g>
</g>
<!-- Node25 -->
<g id="Node000025" class="node">
<title>Node25</title>
<g id="a_Node000025"><a xlink:title=" ">
<polygon fill="#e0e0e0" stroke="#999999" points="1174.5,-415 1123.5,-415 1123.5,-396 1174.5,-396 1174.5,-415"/>
<text text-anchor="middle" x="1149" y="-403" font-family="Helvetica,sans-Serif" font-size="10.00">math.h</text>
</a>
</g>
</g>
<!-- Node1&#45;&gt;Node25 -->
<g id="edge41_Node000001_Node000025" class="edge">
<title>Node1&#45;&gt;Node25</title>
<g id="a_edge41_Node000001_Node000025"><a xlink:title=" ">
<path fill="none" stroke="#63b8ff" d="M825.27,-454.46C890.2,-447.81 1004.54,-434.8 1112.03,-415.17"/>
<polygon fill="#63b8ff" stroke="#63b8ff" points="1112.39,-418.67 1121.59,-413.4 1111.12,-411.78 1112.39,-418.67"/>
</a>
</g>
</g>
<!-- Node4 -->
<g id="Node000004" class="node">
<title>Node4</title>
<g id="a_Node000004"><a xlink:href="exif-content_8h.html" target="_top" xlink:title="Handling EXIF IFDs.">
<polygon fill="white" stroke="#666666" points="538.5,-360 421.5,-360 421.5,-341 538.5,-341 538.5,-360"/>
<text text-anchor="middle" x="480" y="-348" font-family="Helvetica,sans-Serif" font-size="10.00">libexif/exif&#45;content.h</text>
</a>
</g>
</g>
<!-- Node3&#45;&gt;Node4 -->
<g id="edge3_Node000003_Node000004" class="edge">
<title>Node3&#45;&gt;Node4</title>
<g id="a_edge3_Node000003_Node000004"><a xlink:title=" ">
<path fill="none" stroke="#63b8ff" d="M474.83,-395.75C473.42,-389.19 472.96,-379.95 473.43,-371.6"/>
<polygon fill="#63b8ff" stroke="#63b8ff" points="476.87,-372.3 474.61,-361.94 469.92,-371.45 476.87,-372.3"/>
</a>
</g>
</g>
<!-- Node11 -->
<g id="Node000011" class="node">
<title>Node11</title>
<g id="a_Node000011"><a xlink:href="exif-mem_8h.html" target="_top" xlink:title="Define the ExifMem data type and the associated functions.">
<polygon fill="white" stroke="#666666" points="285,-129 179,-129 179,-110 285,-110 285,-129"/>
<text text-anchor="middle" x="232" y="-117" font-family="Helvetica,sans-Serif" font-size="10.00">libexif/exif&#45;mem.h</text>
</a>
</g>
</g>
<!-- Node3&#45;&gt;Node11 -->
<g id="edge27_Node000003_Node000011" class="edge">
<title>Node3&#45;&gt;Node11</title>
<g id="a_edge27_Node000003_Node000011"><a xlink:title=" ">
<path fill="none" stroke="#63b8ff" d="M427.78,-397.42C338.96,-383.89 168,-350.81 168,-296.5 168,-296.5 168,-296.5 168,-234 168,-195.57 196.18,-158.17 215.14,-137.35"/>
<polygon fill="#63b8ff" stroke="#63b8ff" points="217.44,-140.01 221.79,-130.35 212.37,-135.19 217.44,-140.01"/>
</a>
</g>
</g>
<!-- Node13 -->
<g id="Node000013" class="node">
<title>Node13</title>
<g id="a_Node000013"><a xlink:href="exif-format_8h.html" target="_top" xlink:title="Handling native EXIF data types.">
<polygon fill="white" stroke="#666666" points="802.5,-19 689.5,-19 689.5,0 802.5,0 802.5,-19"/>
<text text-anchor="middle" x="746" y="-7" font-family="Helvetica,sans-Serif" font-size="10.00">libexif/exif&#45;format.h</text>
</a>
</g>
</g>
<!-- Node3&#45;&gt;Node13 -->
<g id="edge26_Node000003_Node000013" class="edge">
<title>Node3&#45;&gt;Node13</title>
<g id="a_edge26_Node000003_Node000013"><a xlink:title=" ">
<path fill="none" stroke="#63b8ff" d="M507.96,-395.56C576.26,-371.77 746,-300.12 746,-175.5 746,-175.5 746,-175.5 746,-118.5 746,-87.92 746,-52.48 746,-30.77"/>
<polygon fill="#63b8ff" stroke="#63b8ff" points="749.5,-30.97 746,-20.97 742.5,-30.97 749.5,-30.97"/>
</a>
</g>
</g>
<!-- Node4&#45;&gt;Node3 -->
<g id="edge7_Node000004_Node000003" class="edge">
<title>Node4&#45;&gt;Node3</title>
<g id="a_edge7_Node000004_Node000003"><a xlink:title=" ">
<path fill="none" stroke="#63b8ff" d="M485.21,-360.44C486.58,-366.97 487.04,-376.1 486.57,-384.35"/>
<polygon fill="#63b8ff" stroke="#63b8ff" points="483.1,-383.89 485.35,-394.25 490.05,-384.75 483.1,-383.89"/>
</a>
</g>
</g>
<!-- Node5 -->
<g id="Node000005" class="node">
<title>Node5</title>
<g id="a_Node000005"><a xlink:href="exif-tag_8h.html" target="_top" xlink:title="Handling EXIF tags.">
<polygon fill="white" stroke="#666666" points="680,-244.5 584,-244.5 584,-225.5 680,-225.5 680,-244.5"/>
<text text-anchor="middle" x="632" y="-232.5" font-family="Helvetica,sans-Serif" font-size="10.00">libexif/exif&#45;tag.h</text>
</a>
</g>
</g>
<!-- Node4&#45;&gt;Node5 -->
<g id="edge4_Node000004_Node000005" class="edge">
<title>Node4&#45;&gt;Node5</title>
<g id="a_edge4_Node000004_Node000005"><a xlink:title=" ">
<path fill="none" stroke="#63b8ff" d="M491.97,-340.65C504.09,-331.69 523.37,-317.41 540,-305 564.42,-286.79 592.41,-265.77 611.04,-251.77"/>
<polygon fill="#63b8ff" stroke="#63b8ff" points="613.01,-254.67 618.9,-245.86 608.8,-249.07 613.01,-254.67"/>
</a>
</g>
</g>
<!-- Node8 -->
<g id="Node000008" class="node">
<title>Node8</title>
<g id="a_Node000008"><a xlink:href="exif-data_8h.html" target="_top" xlink:title="Defines the ExifData type and the associated functions.">
<polygon fill="white" stroke="#666666" points="531,-305 429,-305 429,-286 531,-286 531,-305"/>
<text text-anchor="middle" x="480" y="-293" font-family="Helvetica,sans-Serif" font-size="10.00">libexif/exif&#45;data.h</text>
</a>
</g>
</g>
<!-- Node4&#45;&gt;Node8 -->
<g id="edge8_Node000004_Node000008" class="edge">
<title>Node4&#45;&gt;Node8</title>
<g id="a_edge8_Node000004_Node000008"><a xlink:title=" ">
<path fill="none" stroke="#63b8ff" d="M474.83,-340.75C473.42,-334.19 472.96,-324.95 473.43,-316.6"/>
<polygon fill="#63b8ff" stroke="#63b8ff" points="476.87,-317.3 474.61,-306.94 469.92,-316.45 476.87,-317.3"/>
</a>
</g>
</g>
<!-- Node10 -->
<g id="Node000010" class="node">
<title>Node10</title>
<g id="a_Node000010"><a xlink:href="exif-log_8h.html" target="_top" xlink:title="Log message infrastructure.">
<polygon fill="white" stroke="#666666" points="367.5,-184 272.5,-184 272.5,-165 367.5,-165 367.5,-184"/>
<text text-anchor="middle" x="320" y="-172" font-family="Helvetica,sans-Serif" font-size="10.00">libexif/exif&#45;log.h</text>
</a>
</g>
</g>
<!-- Node4&#45;&gt;Node10 -->
<g id="edge24_Node000004_Node000010" class="edge">
<title>Node4&#45;&gt;Node10</title>
<g id="a_edge24_Node000004_Node000010"><a xlink:title=" ">
<path fill="none" stroke="#63b8ff" d="M449.12,-340.5C410.89,-327.51 347.49,-299.47 320,-250 310.78,-233.41 312.13,-211.35 314.96,-195.55"/>
<polygon fill="#63b8ff" stroke="#63b8ff" points="318.35,-196.44 317.06,-185.93 311.51,-194.95 318.35,-196.44"/>
</a>
</g>
</g>
<!-- Node4&#45;&gt;Node11 -->
<g id="edge25_Node000004_Node000011" class="edge">
<title>Node4&#45;&gt;Node11</title>
<g id="a_edge25_Node000004_Node000011"><a xlink:title=" ">
<path fill="none" stroke="#63b8ff" d="M437.91,-340.52C410.25,-333.47 373.95,-321.97 345,-305 285.54,-270.15 273.49,-248.04 248,-184 242.39,-169.9 238.28,-153.24 235.63,-140.52"/>
<polygon fill="#63b8ff" stroke="#63b8ff" points="239.09,-139.99 233.75,-130.84 232.22,-141.33 239.09,-139.99"/>
</a>
</g>
</g>
<!-- Node5&#45;&gt;Node6 -->
<g id="edge5_Node000005_Node000006" class="edge">
<title>Node5&#45;&gt;Node6</title>
<g id="a_edge5_Node000005_Node000006"><a xlink:title=" ">
<path fill="none" stroke="#63b8ff" d="M637.75,-225.37C643.28,-217.07 651.82,-204.28 658.85,-193.72"/>
<polygon fill="#63b8ff" stroke="#63b8ff" points="661.75,-195.69 664.38,-185.43 655.92,-191.81 661.75,-195.69"/>
</a>
</g>
</g>
<!-- Node7 -->
<g id="Node000007" class="node">
<title>Node7</title>
<g id="a_Node000007"><a xlink:href="exif-data-type_8h.html" target="_top" xlink:title=" ">
<polygon fill="white" stroke="#666666" points="606,-184 478,-184 478,-165 606,-165 606,-184"/>
<text text-anchor="middle" x="542" y="-172" font-family="Helvetica,sans-Serif" font-size="10.00">libexif/exif&#45;data&#45;type.h</text>
</a>
</g>
</g>
<!-- Node5&#45;&gt;Node7 -->
<g id="edge6_Node000005_Node000007" class="edge">
<title>Node5&#45;&gt;Node7</title>
<g id="a_edge6_Node000005_Node000007"><a xlink:title=" ">
<path fill="none" stroke="#63b8ff" d="M618.33,-225.12C604.19,-215.92 581.86,-201.41 564.99,-190.44"/>
<polygon fill="#63b8ff" stroke="#63b8ff" points="567.36,-187.81 557.07,-185.29 563.54,-193.68 567.36,-187.81"/>
</a>
</g>
</g>
<!-- Node8&#45;&gt;Node4 -->
<g id="edge20_Node000008_Node000004" class="edge">
<title>Node8&#45;&gt;Node4</title>
<g id="a_edge20_Node000008_Node000004"><a xlink:title=" ">
<path fill="none" stroke="#63b8ff" d="M485.21,-305.44C486.58,-311.97 487.04,-321.1 486.57,-329.35"/>
<polygon fill="#63b8ff" stroke="#63b8ff" points="483.1,-328.89 485.35,-339.25 490.05,-329.75 483.1,-328.89"/>
</a>
</g>
</g>
<!-- Node8&#45;&gt;Node5 -->
<g id="edge19_Node000008_Node000005" class="edge">
<title>Node8&#45;&gt;Node5</title>
<g id="a_edge19_Node000008_Node000005"><a xlink:title=" ">
<path fill="none" stroke="#63b8ff" d="M503.09,-285.62C528.42,-275.87 569.32,-260.12 598.25,-248.99"/>
<polygon fill="#63b8ff" stroke="#63b8ff" points="599.21,-252.37 607.28,-245.51 596.69,-245.84 599.21,-252.37"/>
</a>
</g>
</g>
<!-- Node8&#45;&gt;Node6 -->
<g id="edge11_Node000008_Node000006" class="edge">
<title>Node8&#45;&gt;Node6</title>
<g id="a_edge11_Node000008_Node000006"><a xlink:title=" ">
<path fill="none" stroke="#63b8ff" d="M489.7,-285.64C506.29,-270.79 541.58,-240.47 575,-220 594.9,-207.81 618.7,-196.76 637.62,-188.72"/>
<polygon fill="#63b8ff" stroke="#63b8ff" points="638.84,-192 646.73,-184.93 636.16,-185.53 638.84,-192"/>
</a>
</g>
</g>
<!-- Node8&#45;&gt;Node7 -->
<g id="edge10_Node000008_Node000007" class="edge">
<title>Node8&#45;&gt;Node7</title>
<g id="a_edge10_Node000008_Node000007"><a xlink:title=" ">
<path fill="none" stroke="#63b8ff" d="M484.66,-285.56C494.72,-266.25 518.64,-220.33 532.2,-194.31"/>
<polygon fill="#63b8ff" stroke="#63b8ff" points="535.24,-196.05 536.75,-185.57 529.03,-192.82 535.24,-196.05"/>
</a>
</g>
</g>
<!-- Node9 -->
<g id="Node000009" class="node">
<title>Node9</title>
<g id="a_Node000009"><a xlink:href="exif-byte-order_8h.html" target="_top" xlink:title="Defines the ExifByteOrder enum and the associated functions.">
<polygon fill="white" stroke="#666666" points="466.5,-19 335.5,-19 335.5,0 466.5,0 466.5,-19"/>
<text text-anchor="middle" x="401" y="-7" font-family="Helvetica,sans-Serif" font-size="10.00">libexif/exif&#45;byte&#45;order.h</text>
</a>
</g>
</g>
<!-- Node8&#45;&gt;Node9 -->
<g id="edge9_Node000008_Node000009" class="edge">
<title>Node8&#45;&gt;Node9</title>
<g id="a_edge9_Node000008_Node000009"><a xlink:title=" ">
<path fill="none" stroke="#63b8ff" d="M477.86,-285.76C474.42,-271.82 467.42,-243.71 461,-220 442,-149.78 417.69,-66.87 406.77,-29.93"/>
<polygon fill="#63b8ff" stroke="#63b8ff" points="410.23,-29.3 404.04,-20.71 403.52,-31.29 410.23,-29.3"/>
</a>
</g>
</g>
<!-- Node8&#45;&gt;Node10 -->
<g id="edge12_Node000008_Node000010" class="edge">
<title>Node8&#45;&gt;Node10</title>
<g id="a_edge12_Node000008_Node000010"><a xlink:title=" ">
<path fill="none" stroke="#63b8ff" d="M428.63,-290.25C398.92,-285.16 362.99,-274.06 340,-250 325.99,-235.34 321.56,-211.96 320.27,-195.31"/>
<polygon fill="#63b8ff" stroke="#63b8ff" points="323.78,-195.49 319.86,-185.65 316.79,-195.79 323.78,-195.49"/>
</a>
</g>
</g>
<!-- Node8&#45;&gt;Node11 -->
<g id="edge23_Node000008_Node000011" class="edge">
<title>Node8&#45;&gt;Node11</title>
<g id="a_edge23_Node000008_Node000011"><a xlink:title=" ">
<path fill="none" stroke="#63b8ff" d="M428.59,-288.04C395.57,-282.07 352.88,-270.84 320,-250 278.03,-223.4 251.12,-168.75 239.17,-139.68"/>
<polygon fill="#63b8ff" stroke="#63b8ff" points="242.55,-138.7 235.64,-130.67 236.03,-141.26 242.55,-138.7"/>
</a>
</g>
</g>
<!-- Node16 -->
<g id="Node000016" class="node">
<title>Node16</title>
<g id="a_Node000016"><a xlink:href="exif-mnote-data_8h.html" target="_top" xlink:title="Handling EXIF MakerNote tags.">
<polygon fill="white" stroke="#666666" points="451.5,-250 348.5,-250 348.5,-220 451.5,-220 451.5,-250"/>
<text text-anchor="start" x="356.5" y="-238" font-family="Helvetica,sans-Serif" font-size="10.00">libexif/exif&#45;mnote</text>
<text text-anchor="middle" x="400" y="-227" font-family="Helvetica,sans-Serif" font-size="10.00">&#45;data.h</text>
</a>
</g>
</g>
<!-- Node8&#45;&gt;Node16 -->
<g id="edge21_Node000008_Node000016" class="edge">
<title>Node8&#45;&gt;Node16</title>
<g id="a_edge21_Node000008_Node000016"><a xlink:title=" ">
<path fill="none" stroke="#63b8ff" d="M467.85,-285.62C457.48,-278.03 442.15,-266.82 428.69,-256.98"/>
<polygon fill="#63b8ff" stroke="#63b8ff" points="431.11,-254.41 420.97,-251.33 426.97,-260.06 431.11,-254.41"/>
</a>
</g>
</g>
<!-- Node10&#45;&gt;Node11 -->
<g id="edge13_Node000010_Node000011" class="edge">
<title>Node10&#45;&gt;Node11</title>
<g id="a_edge13_Node000010_Node000011"><a xlink:title=" ">
<path fill="none" stroke="#63b8ff" d="M305.07,-164.51C291.72,-156.47 271.89,-144.53 256.26,-135.11"/>
<polygon fill="#63b8ff" stroke="#63b8ff" points="258.38,-132.3 248,-130.14 254.76,-138.3 258.38,-132.3"/>
</a>
</g>
</g>
<!-- Node15 -->
<g id="Node000015" class="node">
<title>Node15</title>
<g id="a_Node000015"><a xlink:title=" ">
<polygon fill="#e0e0e0" stroke="#999999" points="359,-129 303,-129 303,-110 359,-110 359,-129"/>
<text text-anchor="middle" x="331" y="-117" font-family="Helvetica,sans-Serif" font-size="10.00">stdarg.h</text>
</a>
</g>
</g>
<!-- Node10&#45;&gt;Node15 -->
<g id="edge18_Node000010_Node000015" class="edge">
<title>Node10&#45;&gt;Node15</title>
<g id="a_edge18_Node000010_Node000015"><a xlink:title=" ">
<path fill="none" stroke="#63b8ff" d="M321.82,-164.75C323.18,-158.19 325.1,-148.95 326.83,-140.6"/>
<polygon fill="#63b8ff" stroke="#63b8ff" points="330.23,-141.43 328.84,-130.92 323.38,-140 330.23,-141.43"/>
</a>
</g>
</g>
<!-- Node11&#45;&gt;Node12 -->
<g id="edge14_Node000011_Node000012" class="edge">
<title>Node11&#45;&gt;Node12</title>
<g id="a_edge14_Node000011_Node000012"><a xlink:title=" ">
<path fill="none" stroke="#63b8ff" d="M234.31,-109.75C236.06,-103.11 238.54,-93.73 240.77,-85.31"/>
<polygon fill="#63b8ff" stroke="#63b8ff" points="244.08,-86.47 243.25,-75.91 237.31,-84.68 244.08,-86.47"/>
</a>
</g>
</g>
<!-- Node12&#45;&gt;Node9 -->
<g id="edge15_Node000012_Node000009" class="edge">
<title>Node12&#45;&gt;Node9</title>
<g id="a_edge15_Node000012_Node000009"><a xlink:title=" ">
<path fill="none" stroke="#63b8ff" d="M272.29,-54.51C297.53,-45.88 335.89,-32.76 364.16,-23.1"/>
<polygon fill="#63b8ff" stroke="#63b8ff" points="365.07,-26.48 373.4,-19.94 362.81,-19.86 365.07,-26.48"/>
</a>
</g>
</g>
<!-- Node12&#45;&gt;Node13 -->
<g id="edge16_Node000012_Node000013" class="edge">
<title>Node12&#45;&gt;Node13</title>
<g id="a_edge16_Node000012_Node000013"><a xlink:title=" ">
<path fill="none" stroke="#63b8ff" d="M296.69,-58.13C387.06,-48.55 576,-28.52 677.71,-17.74"/>
<polygon fill="#63b8ff" stroke="#63b8ff" points="677.99,-21.23 687.56,-16.69 677.25,-14.27 677.99,-21.23"/>
</a>
</g>
</g>
<!-- Node14 -->
<g id="Node000014" class="node">
<title>Node14</title>
<g id="a_Node000014"><a xlink:title=" ">
<polygon fill="#e0e0e0" stroke="#999999" points="292,-19 200,-19 200,0 292,0 292,-19"/>
<text text-anchor="middle" x="246" y="-7" font-family="Helvetica,sans-Serif" font-size="10.00">libexif/_stdint.h</text>
</a>
</g>
</g>
<!-- Node12&#45;&gt;Node14 -->
<g id="edge17_Node000012_Node000014" class="edge">
<title>Node12&#45;&gt;Node14</title>
<g id="a_edge17_Node000012_Node000014"><a xlink:title=" ">
<path fill="none" stroke="#63b8ff" d="M246,-54.75C246,-48.27 246,-39.16 246,-30.9"/>
<polygon fill="#63b8ff" stroke="#63b8ff" points="249.5,-30.96 246,-20.96 242.5,-30.96 249.5,-30.96"/>
</a>
</g>
</g>
<!-- Node16&#45;&gt;Node10 -->
<g id="edge22_Node000016_Node000010" class="edge">
<title>Node16&#45;&gt;Node10</title>
<g id="a_edge22_Node000016_Node000010"><a xlink:title=" ">
<path fill="none" stroke="#63b8ff" d="M380.22,-219.54C368.25,-210.78 352.99,-199.63 340.83,-190.73"/>
<polygon fill="#63b8ff" stroke="#63b8ff" points="343.22,-188.15 333.09,-185.07 339.09,-193.8 343.22,-188.15"/>
</a>
</g>
</g>
<!-- Node17&#45;&gt;Node2 -->
<g id="edge31_Node000017_Node000002" class="edge">
<title>Node17&#45;&gt;Node2</title>
<g id="a_edge31_Node000017_Node000002"><a xlink:title=" ">
<path fill="none" stroke="#63b8ff" d="M56.39,-395.75C51.88,-388.73 45.41,-378.64 39.79,-369.87"/>
<polygon fill="#63b8ff" stroke="#63b8ff" points="42.9,-368.24 34.55,-361.72 37.01,-372.02 42.9,-368.24"/>
</a>
</g>
</g>
<!-- Node18&#45;&gt;Node5 -->
<g id="edge35_Node000018_Node000005" class="edge">
<title>Node18&#45;&gt;Node5</title>
<g id="a_edge35_Node000018_Node000005"><a xlink:title=" ">
<path fill="none" stroke="#63b8ff" d="M771.94,-285.62C744.2,-275.78 699.25,-259.84 667.81,-248.69"/>
<polygon fill="#63b8ff" stroke="#63b8ff" points="669.32,-245.52 658.72,-245.47 666.98,-252.11 669.32,-245.52"/>
</a>
</g>
</g>
<!-- Node18&#45;&gt;Node13 -->
<g id="edge34_Node000018_Node000013" class="edge">
<title>Node18&#45;&gt;Node13</title>
<g id="a_edge34_Node000018_Node000013"><a xlink:title=" ">
<path fill="none" stroke="#63b8ff" d="M807.4,-285.66C816.51,-277.35 829.46,-264.11 837,-250 853.11,-219.87 856,-209.67 856,-175.5 856,-175.5 856,-175.5 856,-118.5 856,-73.82 809.23,-41.49 776.68,-24.4"/>
<polygon fill="#63b8ff" stroke="#63b8ff" points="778.55,-21.42 768.04,-20.07 775.41,-27.68 778.55,-21.42"/>
</a>
</g>
</g>
<!-- Node19 -->
<g id="Node000019" class="node">
<title>Node19</title>
<g id="a_Node000019"><a xlink:title=" ">
<polygon fill="#e0e0e0" stroke="#999999" points="827.5,-244.5 774.5,-244.5 774.5,-225.5 827.5,-225.5 827.5,-244.5"/>
<text text-anchor="middle" x="801" y="-232.5" font-family="Helvetica,sans-Serif" font-size="10.00">stdint.h</text>
</a>
</g>
</g>
<!-- Node18&#45;&gt;Node19 -->
<g id="edge33_Node000018_Node000019" class="edge">
<title>Node18&#45;&gt;Node19</title>
<g id="a_edge33_Node000018_Node000019"><a xlink:title=" ">
<path fill="none" stroke="#63b8ff" d="M797.59,-285.87C798.13,-278 798.94,-266.1 799.64,-255.89"/>
<polygon fill="#63b8ff" stroke="#63b8ff" points="803.11,-256.39 800.3,-246.18 796.13,-255.92 803.11,-256.39"/>
</a>
</g>
</g>
</g>
</svg>
