<?xml version="1.0" encoding="UTF-8" standalone="no"?>
<!DOCTYPE svg PUBLIC "-//W3C//DTD SVG 1.1//EN"
 "http://www.w3.org/Graphics/SVG/1.1/DTD/svg11.dtd">
<!-- Generated by graphviz version 7.0.1 (0)
 -->
<!-- Title: exif_content_free Pages: 1 -->
<svg width="630pt" height="130pt"
 viewBox="0.00 0.00 630.00 130.36" xmlns="http://www.w3.org/2000/svg" xmlns:xlink="http://www.w3.org/1999/xlink">
<g id="graph0" class="graph" transform="scale(1 1) rotate(0) translate(4 126.36)">
<title>exif_content_free</title>
<!-- Node1 -->
<g id="Node000001" class="node">
<title>Node1</title>
<g id="a_Node000001"><a xlink:title="Actually free the ExifContent.">
<polygon fill="#999999" stroke="#666666" points="102,-76 0,-76 0,-57 102,-57 102,-76"/>
<text text-anchor="middle" x="51" y="-64" font-family="Helvetica,sans-Serif" font-size="10.00">exif_content_free</text>
</a>
</g>
</g>
<!-- Node2 -->
<g id="Node000002" class="node">
<title>Node2</title>
<g id="a_Node000002"><a xlink:href="exif-entry_8c.html#a82d5d923121488d847d341727cdd2ef4" target="_top" xlink:title="Decrease reference counter for ExifEntry.">
<polygon fill="white" stroke="#666666" points="235,-95 138,-95 138,-76 235,-76 235,-95"/>
<text text-anchor="middle" x="186.5" y="-83" font-family="Helvetica,sans-Serif" font-size="10.00">exif_entry_unref</text>
</a>
</g>
</g>
<!-- Node1&#45;&gt;Node2 -->
<g id="edge1_Node000001_Node000002" class="edge">
<title>Node1&#45;&gt;Node2</title>
<g id="a_edge1_Node000001_Node000002"><a xlink:title=" ">
<path fill="none" stroke="#63b8ff" d="M102.47,-73.68C110.3,-74.8 118.45,-75.96 126.44,-77.1"/>
<polygon fill="#63b8ff" stroke="#63b8ff" points="125.71,-80.53 136.11,-78.47 126.7,-73.6 125.71,-80.53"/>
</a>
</g>
</g>
<!-- Node4 -->
<g id="Node000004" class="node">
<title>Node4</title>
<g id="a_Node000004"><a xlink:href="exif-mem_8c.html#a43190b81b4b4bdb4ffb89bfb612051b1" target="_top" xlink:title=" ">
<polygon fill="white" stroke="#666666" points="622,-76 531,-76 531,-57 622,-57 622,-76"/>
<text text-anchor="middle" x="576.5" y="-64" font-family="Helvetica,sans-Serif" font-size="10.00">exif_mem_free</text>
</a>
</g>
</g>
<!-- Node1&#45;&gt;Node4 -->
<g id="edge10_Node000001_Node000004" class="edge">
<title>Node1&#45;&gt;Node4</title>
<g id="a_edge10_Node000001_Node000004"><a xlink:title=" ">
<path fill="none" stroke="#63b8ff" d="M68.75,-76.42C85.58,-85.78 112.61,-99.14 138,-104.5 293.38,-137.3 339.21,-120.32 495,-89.5 507.88,-86.95 521.7,-83.34 534.18,-79.73"/>
<polygon fill="#63b8ff" stroke="#63b8ff" points="535.17,-83.08 543.76,-76.88 533.18,-76.37 535.17,-83.08"/>
</a>
</g>
</g>
<!-- Node5 -->
<g id="Node000005" class="node">
<title>Node5</title>
<g id="a_Node000005"><a xlink:href="exif-mem_8c.html#a66744e0987af08c443df247ce55f7d87" target="_top" xlink:title="Unrefcount an ExifMem.">
<polygon fill="white" stroke="#666666" points="495,-57 398,-57 398,-38 495,-38 495,-57"/>
<text text-anchor="middle" x="446.5" y="-45" font-family="Helvetica,sans-Serif" font-size="10.00">exif_mem_unref</text>
</a>
</g>
</g>
<!-- Node1&#45;&gt;Node5 -->
<g id="edge11_Node000001_Node000005" class="edge">
<title>Node1&#45;&gt;Node5</title>
<g id="a_edge11_Node000001_Node000005"><a xlink:title=" ">
<path fill="none" stroke="#63b8ff" d="M102.24,-64.07C174.86,-60.57 308.92,-54.09 386.27,-50.36"/>
<polygon fill="#63b8ff" stroke="#63b8ff" points="386.38,-53.86 396.2,-49.88 386.05,-46.87 386.38,-53.86"/>
</a>
</g>
</g>
<!-- Node6 -->
<g id="Node000006" class="node">
<title>Node6</title>
<g id="a_Node000006"><a xlink:href="exif-log_8c.html#a7a9b738a7429197d68c80ffedac7d8fb" target="_top" xlink:title=" ">
<polygon fill="white" stroke="#666666" points="229.5,-19 143.5,-19 143.5,0 229.5,0 229.5,-19"/>
<text text-anchor="middle" x="186.5" y="-7" font-family="Helvetica,sans-Serif" font-size="10.00">exif_log_unref</text>
</a>
</g>
</g>
<!-- Node1&#45;&gt;Node6 -->
<g id="edge6_Node000001_Node000006" class="edge">
<title>Node1&#45;&gt;Node6</title>
<g id="a_edge6_Node000001_Node000006"><a xlink:title=" ">
<path fill="none" stroke="#63b8ff" d="M75.25,-56.57C96.5,-47.5 128.17,-33.98 152.12,-23.75"/>
<polygon fill="#63b8ff" stroke="#63b8ff" points="153.3,-27.05 161.12,-19.91 150.55,-20.62 153.3,-27.05"/>
</a>
</g>
</g>
<!-- Node3 -->
<g id="Node000003" class="node">
<title>Node3</title>
<g id="a_Node000003"><a xlink:href="exif-entry_8c.html#a2879215e3863186650d3f32eb63bbaf4" target="_top" xlink:title="Actually free the ExifEntry.">
<polygon fill="white" stroke="#666666" points="362,-95 271,-95 271,-76 362,-76 362,-95"/>
<text text-anchor="middle" x="316.5" y="-83" font-family="Helvetica,sans-Serif" font-size="10.00">exif_entry_free</text>
</a>
</g>
</g>
<!-- Node2&#45;&gt;Node3 -->
<g id="edge2_Node000002_Node000003" class="edge">
<title>Node2&#45;&gt;Node3</title>
<g id="a_edge2_Node000002_Node000003"><a xlink:title=" ">
<path fill="none" stroke="#63b8ff" d="M235.16,-85.5C243.09,-85.5 251.37,-85.5 259.47,-85.5"/>
<polygon fill="#63b8ff" stroke="#63b8ff" points="259.25,-89 269.25,-85.5 259.25,-82 259.25,-89"/>
</a>
</g>
</g>
<!-- Node3&#45;&gt;Node4 -->
<g id="edge3_Node000003_Node000004" class="edge">
<title>Node3&#45;&gt;Node4</title>
<g id="a_edge3_Node000003_Node000004"><a xlink:title=" ">
<path fill="none" stroke="#63b8ff" d="M362.44,-82.19C406.05,-78.98 472.37,-74.09 519.42,-70.63"/>
<polygon fill="#63b8ff" stroke="#63b8ff" points="519.42,-74.14 529.13,-69.91 518.9,-67.16 519.42,-74.14"/>
</a>
</g>
</g>
<!-- Node3&#45;&gt;Node5 -->
<g id="edge4_Node000003_Node000005" class="edge">
<title>Node3&#45;&gt;Node5</title>
<g id="a_edge4_Node000003_Node000005"><a xlink:title=" ">
<path fill="none" stroke="#63b8ff" d="M351.13,-75.52C366.42,-70.98 384.71,-65.55 401.11,-60.68"/>
<polygon fill="#63b8ff" stroke="#63b8ff" points="402.05,-64.05 410.64,-57.85 400.06,-57.34 402.05,-64.05"/>
</a>
</g>
</g>
<!-- Node5&#45;&gt;Node4 -->
<g id="edge5_Node000005_Node000004" class="edge">
<title>Node5&#45;&gt;Node4</title>
<g id="a_edge5_Node000005_Node000004"><a xlink:title=" ">
<path fill="none" stroke="#63b8ff" d="M495.16,-54.57C503.09,-55.75 511.37,-56.98 519.47,-58.18"/>
<polygon fill="#63b8ff" stroke="#63b8ff" points="518.86,-61.63 529.27,-59.64 519.89,-54.71 518.86,-61.63"/>
</a>
</g>
</g>
<!-- Node7 -->
<g id="Node000007" class="node">
<title>Node7</title>
<g id="a_Node000007"><a xlink:href="exif-log_8c.html#acd0808d6d5be73f28059797c2e2e67dc" target="_top" xlink:title="Delete instance of ExifLog.">
<polygon fill="white" stroke="#666666" points="356.5,-19 276.5,-19 276.5,0 356.5,0 356.5,-19"/>
<text text-anchor="middle" x="316.5" y="-7" font-family="Helvetica,sans-Serif" font-size="10.00">exif_log_free</text>
</a>
</g>
</g>
<!-- Node6&#45;&gt;Node7 -->
<g id="edge7_Node000006_Node000007" class="edge">
<title>Node6&#45;&gt;Node7</title>
<g id="a_edge7_Node000006_Node000007"><a xlink:title=" ">
<path fill="none" stroke="#63b8ff" d="M229.77,-9.5C241.02,-9.5 253.28,-9.5 264.93,-9.5"/>
<polygon fill="#63b8ff" stroke="#63b8ff" points="264.8,-13 274.8,-9.5 264.8,-6 264.8,-13"/>
</a>
</g>
</g>
<!-- Node7&#45;&gt;Node4 -->
<g id="edge8_Node000007_Node000004" class="edge">
<title>Node7&#45;&gt;Node4</title>
<g id="a_edge8_Node000007_Node000004"><a xlink:title=" ">
<path fill="none" stroke="#63b8ff" d="M356.99,-9.97C393.44,-11.28 448.75,-15.51 495,-28.5 513.86,-33.8 533.78,-43.16 549.08,-51.27"/>
<polygon fill="#63b8ff" stroke="#63b8ff" points="547.09,-54.17 557.54,-55.89 550.44,-48.03 547.09,-54.17"/>
</a>
</g>
</g>
<!-- Node7&#45;&gt;Node5 -->
<g id="edge9_Node000007_Node000005" class="edge">
<title>Node7&#45;&gt;Node5</title>
<g id="a_edge9_Node000007_Node000005"><a xlink:title=" ">
<path fill="none" stroke="#63b8ff" d="M351.13,-19.48C366.42,-24.02 384.71,-29.45 401.11,-34.32"/>
<polygon fill="#63b8ff" stroke="#63b8ff" points="400.06,-37.66 410.64,-37.15 402.05,-30.95 400.06,-37.66"/>
</a>
</g>
</g>
</g>
</svg>
