<?xml version="1.0" encoding="UTF-8" standalone="no"?>
<!DOCTYPE svg PUBLIC "-//W3C//DTD SVG 1.1//EN"
 "http://www.w3.org/Graphics/SVG/1.1/DTD/svg11.dtd">
<!-- Generated by graphviz version 7.0.1 (0)
 -->
<!-- Title: exif_entry_new Pages: 1 -->
<svg width="434pt" height="249pt"
 viewBox="0.00 0.00 434.00 249.00" xmlns="http://www.w3.org/2000/svg" xmlns:xlink="http://www.w3.org/1999/xlink">
<g id="graph0" class="graph" transform="scale(1 1) rotate(0) translate(4 245)">
<title>exif_entry_new</title>
<!-- Node1 -->
<g id="Node000001" class="node">
<title>Node1</title>
<g id="a_Node000001"><a xlink:title="Reserve memory for and initialize a new ExifEntry.">
<polygon fill="#999999" stroke="#666666" points="92,-167 0,-167 0,-148 92,-148 92,-167"/>
<text text-anchor="middle" x="46" y="-155" font-family="Helvetica,sans-Serif" font-size="10.00">exif_entry_new</text>
</a>
</g>
</g>
<!-- Node2 -->
<g id="Node000002" class="node">
<title>Node2</title>
<g id="a_Node000002"><a xlink:href="exif-entry_8c.html#a2286e967d408b433d60ebad00c5af648" target="_top" xlink:title="Reserve memory for and initialize new ExifEntry using the specified memory allocator.">
<polygon fill="white" stroke="#666666" points="254.5,-204 132.5,-204 132.5,-185 254.5,-185 254.5,-204"/>
<text text-anchor="middle" x="193.5" y="-192" font-family="Helvetica,sans-Serif" font-size="10.00">exif_entry_new_mem</text>
</a>
</g>
</g>
<!-- Node1&#45;&gt;Node2 -->
<g id="edge1_Node000001_Node000002" class="edge">
<title>Node1&#45;&gt;Node2</title>
<g id="a_edge1_Node000001_Node000002"><a xlink:title=" ">
<path fill="none" stroke="#63b8ff" d="M85.99,-167.42C103.28,-171.81 123.84,-177.04 142.26,-181.72"/>
<polygon fill="#63b8ff" stroke="#63b8ff" points="141.38,-185.11 151.93,-184.18 143.11,-178.33 141.38,-185.11"/>
</a>
</g>
</g>
<!-- Node6 -->
<g id="Node000006" class="node">
<title>Node6</title>
<g id="a_Node000006"><a xlink:href="exif-mem_8c.html#acc8fd4e1a319a790581975db6f1a7233" target="_top" xlink:title="Create a new ExifMem with default values for your convenience.">
<polygon fill="white" stroke="#666666" points="259,-93 128,-93 128,-74 259,-74 259,-93"/>
<text text-anchor="middle" x="193.5" y="-81" font-family="Helvetica,sans-Serif" font-size="10.00">exif_mem_new_default</text>
</a>
</g>
</g>
<!-- Node1&#45;&gt;Node6 -->
<g id="edge5_Node000001_Node000006" class="edge">
<title>Node1&#45;&gt;Node6</title>
<g id="a_edge5_Node000001_Node000006"><a xlink:title=" ">
<path fill="none" stroke="#63b8ff" d="M66.62,-147.52C91.38,-134.93 134.2,-113.15 162.93,-98.54"/>
<polygon fill="#63b8ff" stroke="#63b8ff" points="164.51,-101.66 171.84,-94.01 161.34,-95.42 164.51,-101.66"/>
</a>
</g>
</g>
<!-- Node11 -->
<g id="Node000011" class="node">
<title>Node11</title>
<g id="a_Node000011"><a xlink:href="exif-mem_8c.html#a66744e0987af08c443df247ce55f7d87" target="_top" xlink:title="Unrefcount an ExifMem.">
<polygon fill="white" stroke="#666666" points="242,-167 145,-167 145,-148 242,-148 242,-167"/>
<text text-anchor="middle" x="193.5" y="-155" font-family="Helvetica,sans-Serif" font-size="10.00">exif_mem_unref</text>
</a>
</g>
</g>
<!-- Node1&#45;&gt;Node11 -->
<g id="edge10_Node000001_Node000011" class="edge">
<title>Node1&#45;&gt;Node11</title>
<g id="a_edge10_Node000001_Node000011"><a xlink:title=" ">
<path fill="none" stroke="#63b8ff" d="M92.24,-157.5C105.21,-157.5 119.55,-157.5 133.23,-157.5"/>
<polygon fill="#63b8ff" stroke="#63b8ff" points="133,-161 143,-157.5 133,-154 133,-161"/>
</a>
</g>
</g>
<!-- Node3 -->
<g id="Node000003" class="node">
<title>Node3</title>
<g id="a_Node000003"><a xlink:href="exif-mem_8c.html#a68be7c7afc8cff75adc3b1a28b5ae9a2" target="_top" xlink:title=" ">
<polygon fill="white" stroke="#666666" points="408,-241 313,-241 313,-222 408,-222 408,-241"/>
<text text-anchor="middle" x="360.5" y="-229" font-family="Helvetica,sans-Serif" font-size="10.00">exif_mem_alloc</text>
</a>
</g>
</g>
<!-- Node2&#45;&gt;Node3 -->
<g id="edge2_Node000002_Node000003" class="edge">
<title>Node2&#45;&gt;Node3</title>
<g id="a_edge2_Node000002_Node000003"><a xlink:title=" ">
<path fill="none" stroke="#63b8ff" d="M238.72,-204.42C258.78,-208.92 282.73,-214.29 304,-219.05"/>
<polygon fill="#63b8ff" stroke="#63b8ff" points="303.16,-222.45 313.68,-221.23 304.69,-215.62 303.16,-222.45"/>
</a>
</g>
</g>
<!-- Node4 -->
<g id="Node000004" class="node">
<title>Node4</title>
<g id="a_Node000004"><a xlink:href="exif-mem_8c.html#a43190b81b4b4bdb4ffb89bfb612051b1" target="_top" xlink:title=" ">
<polygon fill="white" stroke="#666666" points="406,-167 315,-167 315,-148 406,-148 406,-167"/>
<text text-anchor="middle" x="360.5" y="-155" font-family="Helvetica,sans-Serif" font-size="10.00">exif_mem_free</text>
</a>
</g>
</g>
<!-- Node2&#45;&gt;Node4 -->
<g id="edge3_Node000002_Node000004" class="edge">
<title>Node2&#45;&gt;Node4</title>
<g id="a_edge3_Node000002_Node000004"><a xlink:title=" ">
<path fill="none" stroke="#63b8ff" d="M238.72,-184.58C258.78,-180.08 282.73,-174.71 304,-169.95"/>
<polygon fill="#63b8ff" stroke="#63b8ff" points="304.69,-173.38 313.68,-167.77 303.16,-166.55 304.69,-173.38"/>
</a>
</g>
</g>
<!-- Node5 -->
<g id="Node000005" class="node">
<title>Node5</title>
<g id="a_Node000005"><a xlink:href="exif-mem_8c.html#af28c61972f529be46907956e0b3e7a60" target="_top" xlink:title="Refcount an ExifMem.">
<polygon fill="white" stroke="#666666" points="403,-204 318,-204 318,-185 403,-185 403,-204"/>
<text text-anchor="middle" x="360.5" y="-192" font-family="Helvetica,sans-Serif" font-size="10.00">exif_mem_ref</text>
</a>
</g>
</g>
<!-- Node2&#45;&gt;Node5 -->
<g id="edge4_Node000002_Node000005" class="edge">
<title>Node2&#45;&gt;Node5</title>
<g id="a_edge4_Node000002_Node000005"><a xlink:title=" ">
<path fill="none" stroke="#63b8ff" d="M254.54,-194.5C271.53,-194.5 289.9,-194.5 306.45,-194.5"/>
<polygon fill="#63b8ff" stroke="#63b8ff" points="306.07,-198 316.07,-194.5 306.07,-191 306.07,-198"/>
</a>
</g>
</g>
<!-- Node7 -->
<g id="Node000007" class="node">
<title>Node7</title>
<g id="a_Node000007"><a xlink:href="exif-mem_8c.html#a9d47487760e137ed23df5e1e79b3d3cd" target="_top" xlink:title="Default memory allocation function.">
<polygon fill="white" stroke="#666666" points="421,-130 300,-130 300,-111 421,-111 421,-130"/>
<text text-anchor="middle" x="360.5" y="-118" font-family="Helvetica,sans-Serif" font-size="10.00">exif_mem_alloc_func</text>
</a>
</g>
</g>
<!-- Node6&#45;&gt;Node7 -->
<g id="edge6_Node000006_Node000007" class="edge">
<title>Node6&#45;&gt;Node7</title>
<g id="a_edge6_Node000006_Node000007"><a xlink:title=" ">
<path fill="none" stroke="#63b8ff" d="M238.72,-93.42C258.78,-97.92 282.73,-103.29 304,-108.05"/>
<polygon fill="#63b8ff" stroke="#63b8ff" points="303.16,-111.45 313.68,-110.23 304.69,-104.62 303.16,-111.45"/>
</a>
</g>
</g>
<!-- Node8 -->
<g id="Node000008" class="node">
<title>Node8</title>
<g id="a_Node000008"><a xlink:href="exif-mem_8c.html#a30e654456ffed5baaf5a23f1d8817aa6" target="_top" xlink:title="Default memory free function.">
<polygon fill="white" stroke="#666666" points="419,-93 302,-93 302,-74 419,-74 419,-93"/>
<text text-anchor="middle" x="360.5" y="-81" font-family="Helvetica,sans-Serif" font-size="10.00">exif_mem_free_func</text>
</a>
</g>
</g>
<!-- Node6&#45;&gt;Node8 -->
<g id="edge7_Node000006_Node000008" class="edge">
<title>Node6&#45;&gt;Node8</title>
<g id="a_edge7_Node000006_Node000008"><a xlink:title=" ">
<path fill="none" stroke="#63b8ff" d="M259.24,-83.5C269.41,-83.5 279.95,-83.5 290.22,-83.5"/>
<polygon fill="#63b8ff" stroke="#63b8ff" points="290.14,-87 300.14,-83.5 290.14,-80 290.14,-87"/>
</a>
</g>
</g>
<!-- Node9 -->
<g id="Node000009" class="node">
<title>Node9</title>
<g id="a_Node000009"><a xlink:href="exif-mem_8c.html#a7c75dbf49ec65be9e1aa5b79d79c7ea6" target="_top" xlink:title="Create a new ExifMem.">
<polygon fill="white" stroke="#666666" points="406.5,-56 314.5,-56 314.5,-37 406.5,-37 406.5,-56"/>
<text text-anchor="middle" x="360.5" y="-44" font-family="Helvetica,sans-Serif" font-size="10.00">exif_mem_new</text>
</a>
</g>
</g>
<!-- Node6&#45;&gt;Node9 -->
<g id="edge8_Node000006_Node000009" class="edge">
<title>Node6&#45;&gt;Node9</title>
<g id="a_edge8_Node000006_Node000009"><a xlink:title=" ">
<path fill="none" stroke="#63b8ff" d="M238.72,-73.58C258.78,-69.08 282.73,-63.71 304,-58.95"/>
<polygon fill="#63b8ff" stroke="#63b8ff" points="304.69,-62.38 313.68,-56.77 303.16,-55.55 304.69,-62.38"/>
</a>
</g>
</g>
<!-- Node10 -->
<g id="Node000010" class="node">
<title>Node10</title>
<g id="a_Node000010"><a xlink:href="exif-mem_8c.html#a92c900883df8fe466c158d00153404fe" target="_top" xlink:title="Default memory reallocation function.">
<polygon fill="white" stroke="#666666" points="426,-19 295,-19 295,0 426,0 426,-19"/>
<text text-anchor="middle" x="360.5" y="-7" font-family="Helvetica,sans-Serif" font-size="10.00">exif_mem_realloc_func</text>
</a>
</g>
</g>
<!-- Node6&#45;&gt;Node10 -->
<g id="edge9_Node000006_Node000010" class="edge">
<title>Node6&#45;&gt;Node10</title>
<g id="a_edge9_Node000006_Node000010"><a xlink:title=" ">
<path fill="none" stroke="#63b8ff" d="M209.99,-73.65C229.3,-61.7 263.59,-41.54 295,-28.5 299.86,-26.48 305.02,-24.58 310.21,-22.82"/>
<polygon fill="#63b8ff" stroke="#63b8ff" points="310.93,-26.27 319.39,-19.89 308.8,-19.6 310.93,-26.27"/>
</a>
</g>
</g>
<!-- Node11&#45;&gt;Node4 -->
<g id="edge11_Node000011_Node000004" class="edge">
<title>Node11&#45;&gt;Node4</title>
<g id="a_edge11_Node000011_Node000004"><a xlink:title=" ">
<path fill="none" stroke="#63b8ff" d="M242.22,-157.5C261.32,-157.5 283.46,-157.5 303.32,-157.5"/>
<polygon fill="#63b8ff" stroke="#63b8ff" points="303.2,-161 313.2,-157.5 303.2,-154 303.2,-161"/>
</a>
</g>
</g>
</g>
</svg>
