<?xml version="1.0" encoding="UTF-8" standalone="no"?>
<!DOCTYPE svg PUBLIC "-//W3C//DTD SVG 1.1//EN"
 "http://www.w3.org/Graphics/SVG/1.1/DTD/svg11.dtd">
<!-- Generated by graphviz version 2.44.1 (0)
 -->
<!-- Title: exif_mnote_data_olympus_get_value Pages: 1 -->
<svg width="715pt" height="188pt"
 viewBox="0.00 0.00 715.00 187.87" xmlns="http://www.w3.org/2000/svg" xmlns:xlink="http://www.w3.org/1999/xlink">
<g id="graph0" class="graph" transform="scale(1 1) rotate(0) translate(4 183.87)">
<title>exif_mnote_data_olympus_get_value</title>
<polygon fill="white" stroke="transparent" points="-4,4 -4,-183.87 711,-183.87 711,4 -4,4"/>
<!-- Node1 -->
<g id="node1" class="node">
<title>Node1</title>
<g id="a_node1"><a xlink:title=" ">
<polygon fill="#bfbfbf" stroke="black" points="0,-80 0,-110 146,-110 146,-80 0,-80"/>
<text text-anchor="start" x="8" y="-98" font-family="Helvetica,sans-Serif" font-size="10.00">exif_mnote_data_olympus</text>
<text text-anchor="middle" x="73" y="-87" font-family="Helvetica,sans-Serif" font-size="10.00">_get_value</text>
</a>
</g>
</g>
<!-- Node2 -->
<g id="node2" class="node">
<title>Node2</title>
<g id="a_node2"><a xlink:href="mnote-olympus-entry_8c.html#ac037be3986826d7e73f647376e19a220" target="_top" xlink:title=" ">
<polygon fill="white" stroke="black" points="182,-80 182,-110 308,-110 308,-80 182,-80"/>
<text text-anchor="start" x="190" y="-98" font-family="Helvetica,sans-Serif" font-size="10.00">mnote_olympus_entry</text>
<text text-anchor="middle" x="245" y="-87" font-family="Helvetica,sans-Serif" font-size="10.00">_get_value</text>
</a>
</g>
</g>
<!-- Node1&#45;&gt;Node2 -->
<g id="edge1" class="edge">
<title>Node1&#45;&gt;Node2</title>
<path fill="none" stroke="midnightblue" d="M146.1,-95C154.52,-95 163.12,-95 171.56,-95"/>
<polygon fill="midnightblue" stroke="midnightblue" points="171.74,-98.5 181.74,-95 171.74,-91.5 171.74,-98.5"/>
</g>
<!-- Node3 -->
<g id="node3" class="node">
<title>Node3</title>
<g id="a_node3"><a xlink:href="exif-utils_8c.html#a4ad94614630897766dd0a5c9bc2a59bf" target="_top" xlink:title="Retrieve an ExifLong value from memory.">
<polygon fill="white" stroke="black" points="489.5,-142.5 489.5,-161.5 572.5,-161.5 572.5,-142.5 489.5,-142.5"/>
<text text-anchor="middle" x="531" y="-149.5" font-family="Helvetica,sans-Serif" font-size="10.00">exif_get_long</text>
</a>
</g>
</g>
<!-- Node2&#45;&gt;Node3 -->
<g id="edge2" class="edge">
<title>Node2&#45;&gt;Node3</title>
<path fill="none" stroke="midnightblue" d="M259.41,-110.3C276.77,-128.82 308.96,-159.01 344,-171 394.04,-188.13 455.73,-175.76 493.97,-164.5"/>
<polygon fill="midnightblue" stroke="midnightblue" points="495.1,-167.81 503.63,-161.53 493.05,-161.12 495.1,-167.81"/>
</g>
<!-- Node4 -->
<g id="node4" class="node">
<title>Node4</title>
<g id="a_node4"><a xlink:href="exif-utils_8c.html#a56b96f076a13da6ed926e1ef29cb2dc3" target="_top" xlink:title="Retrieve an ExifSLong value from memory.">
<polygon fill="white" stroke="black" points="619,-104.5 619,-123.5 707,-123.5 707,-104.5 619,-104.5"/>
<text text-anchor="middle" x="663" y="-111.5" font-family="Helvetica,sans-Serif" font-size="10.00">exif_get_slong</text>
</a>
</g>
</g>
<!-- Node2&#45;&gt;Node4 -->
<g id="edge8" class="edge">
<title>Node2&#45;&gt;Node4</title>
<path fill="none" stroke="midnightblue" d="M308.28,-97.84C389.78,-101.57 531.28,-108.03 608.29,-111.55"/>
<polygon fill="midnightblue" stroke="midnightblue" points="608.57,-115.06 618.72,-112.02 608.89,-108.07 608.57,-115.06"/>
</g>
<!-- Node5 -->
<g id="node5" class="node">
<title>Node5</title>
<g id="a_node5"><a xlink:href="exif-utils_8c.html#a1feb547c289aa57a4d2119338b03706c" target="_top" xlink:title="Retrieve an ExifRational value from memory.">
<polygon fill="white" stroke="black" points="344,-142.5 344,-161.5 443,-161.5 443,-142.5 344,-142.5"/>
<text text-anchor="middle" x="393.5" y="-149.5" font-family="Helvetica,sans-Serif" font-size="10.00">exif_get_rational</text>
</a>
</g>
</g>
<!-- Node2&#45;&gt;Node5 -->
<g id="edge4" class="edge">
<title>Node2&#45;&gt;Node5</title>
<path fill="none" stroke="midnightblue" d="M284.87,-110.13C307.66,-118.99 336.19,-130.09 358.15,-138.64"/>
<polygon fill="midnightblue" stroke="midnightblue" points="357.14,-142 367.73,-142.36 359.68,-135.48 357.14,-142"/>
</g>
<!-- Node6 -->
<g id="node6" class="node">
<title>Node6</title>
<g id="a_node6"><a xlink:href="exif-utils_8c.html#a4b4acf537a8c6b9405e7b53be868e4d7" target="_top" xlink:title="Retrieve an ExifShort value from memory.">
<polygon fill="white" stroke="black" points="350.5,-66.5 350.5,-85.5 436.5,-85.5 436.5,-66.5 350.5,-66.5"/>
<text text-anchor="middle" x="393.5" y="-73.5" font-family="Helvetica,sans-Serif" font-size="10.00">exif_get_short</text>
</a>
</g>
</g>
<!-- Node2&#45;&gt;Node6 -->
<g id="edge6" class="edge">
<title>Node2&#45;&gt;Node6</title>
<path fill="none" stroke="midnightblue" d="M308.13,-86.94C318.77,-85.56 329.74,-84.14 340.1,-82.8"/>
<polygon fill="midnightblue" stroke="midnightblue" points="340.75,-86.24 350.22,-81.48 339.85,-79.3 340.75,-86.24"/>
</g>
<!-- Node7 -->
<g id="node7" class="node">
<title>Node7</title>
<g id="a_node7"><a xlink:href="exif-utils_8c.html#a6baf094a71392f9cea23ad633ec13c8b" target="_top" xlink:title="Retrieve an ExifSShort value from memory.">
<polygon fill="white" stroke="black" points="485,-57.5 485,-76.5 577,-76.5 577,-57.5 485,-57.5"/>
<text text-anchor="middle" x="531" y="-64.5" font-family="Helvetica,sans-Serif" font-size="10.00">exif_get_sshort</text>
</a>
</g>
</g>
<!-- Node2&#45;&gt;Node7 -->
<g id="edge11" class="edge">
<title>Node2&#45;&gt;Node7</title>
<path fill="none" stroke="midnightblue" d="M276.47,-79.81C295.39,-71.24 320.5,-61.4 344,-57 387.44,-48.87 437.5,-52.27 474.74,-57.21"/>
<polygon fill="midnightblue" stroke="midnightblue" points="474.5,-60.71 484.88,-58.63 475.47,-53.78 474.5,-60.71"/>
</g>
<!-- Node8 -->
<g id="node8" class="node">
<title>Node8</title>
<g id="a_node8"><a xlink:href="exif-utils_8c.html#adb97c3499488d5642a82df1cb16dc2cb" target="_top" xlink:title="Retrieve an ExifSRational value from memory.">
<polygon fill="white" stroke="black" points="479,-0.5 479,-19.5 583,-19.5 583,-0.5 479,-0.5"/>
<text text-anchor="middle" x="531" y="-7.5" font-family="Helvetica,sans-Serif" font-size="10.00">exif_get_srational</text>
</a>
</g>
</g>
<!-- Node2&#45;&gt;Node8 -->
<g id="edge9" class="edge">
<title>Node2&#45;&gt;Node8</title>
<path fill="none" stroke="midnightblue" d="M272.71,-79.98C292,-69.69 318.96,-56.42 344,-48 384.69,-34.32 432.13,-24.72 468.91,-18.6"/>
<polygon fill="midnightblue" stroke="midnightblue" points="469.68,-22.02 478.99,-16.96 468.56,-15.11 469.68,-22.02"/>
</g>
<!-- Node3&#45;&gt;Node4 -->
<g id="edge3" class="edge">
<title>Node3&#45;&gt;Node4</title>
<path fill="none" stroke="midnightblue" d="M564.8,-142.41C581.28,-137.6 601.44,-131.7 619.13,-126.53"/>
<polygon fill="midnightblue" stroke="midnightblue" points="620.59,-129.75 629.21,-123.59 618.63,-123.03 620.59,-129.75"/>
</g>
<!-- Node5&#45;&gt;Node3 -->
<g id="edge5" class="edge">
<title>Node5&#45;&gt;Node3</title>
<path fill="none" stroke="midnightblue" d="M443.04,-152C454.78,-152 467.37,-152 479.22,-152"/>
<polygon fill="midnightblue" stroke="midnightblue" points="479.4,-155.5 489.4,-152 479.4,-148.5 479.4,-155.5"/>
</g>
<!-- Node6&#45;&gt;Node7 -->
<g id="edge7" class="edge">
<title>Node6&#45;&gt;Node7</title>
<path fill="none" stroke="midnightblue" d="M436.63,-73.2C448.65,-72.4 461.92,-71.52 474.6,-70.68"/>
<polygon fill="midnightblue" stroke="midnightblue" points="474.86,-74.17 484.6,-70.02 474.39,-67.19 474.86,-74.17"/>
</g>
<!-- Node8&#45;&gt;Node4 -->
<g id="edge10" class="edge">
<title>Node8&#45;&gt;Node4</title>
<path fill="none" stroke="midnightblue" d="M545.58,-19.8C555.94,-27.36 570.52,-38.15 583,-48 603.83,-64.44 627.08,-84.02 642.93,-97.56"/>
<polygon fill="midnightblue" stroke="midnightblue" points="641.04,-100.55 650.91,-104.4 645.6,-95.24 641.04,-100.55"/>
</g>
</g>
</svg>
