<?xml version="1.0" encoding="UTF-8" standalone="no"?>
<!DOCTYPE svg PUBLIC "-//W3C//DTD SVG 1.1//EN"
 "http://www.w3.org/Graphics/SVG/1.1/DTD/svg11.dtd">
<!-- Generated by graphviz version 2.44.1 (0)
 -->
<!-- Title: exif_mnote_data_fuji_load Pages: 1 -->
<svg width="462pt" height="268pt"
 viewBox="0.00 0.00 462.00 268.00" xmlns="http://www.w3.org/2000/svg" xmlns:xlink="http://www.w3.org/1999/xlink">
<g id="graph0" class="graph" transform="scale(1 1) rotate(0) translate(4 264)">
<title>exif_mnote_data_fuji_load</title>
<polygon fill="white" stroke="transparent" points="-4,4 -4,-264 458,-264 458,4 -4,4"/>
<!-- Node1 -->
<g id="node1" class="node">
<title>Node1</title>
<g id="a_node1"><a xlink:title=" ">
<polygon fill="#bfbfbf" stroke="black" points="0,-126.5 0,-145.5 146,-145.5 146,-126.5 0,-126.5"/>
<text text-anchor="middle" x="73" y="-133.5" font-family="Helvetica,sans-Serif" font-size="10.00">exif_mnote_data_fuji_load</text>
</a>
</g>
</g>
<!-- Node2 -->
<g id="node2" class="node">
<title>Node2</title>
<g id="a_node2"><a xlink:href="exif-format_8c.html#a924038efe0cd8ebade8f44619dd794f3" target="_top" xlink:title="Return the raw size of the given EXIF data type.">
<polygon fill="white" stroke="black" points="194.5,-240.5 194.5,-259.5 313.5,-259.5 313.5,-240.5 194.5,-240.5"/>
<text text-anchor="middle" x="254" y="-247.5" font-family="Helvetica,sans-Serif" font-size="10.00">exif_format_get_size</text>
</a>
</g>
</g>
<!-- Node1&#45;&gt;Node2 -->
<g id="edge1" class="edge">
<title>Node1&#45;&gt;Node2</title>
<path fill="none" stroke="midnightblue" d="M82.16,-145.7C98.88,-164.93 139.07,-208.02 182,-231 186.27,-233.29 190.85,-235.32 195.53,-237.11"/>
<polygon fill="midnightblue" stroke="midnightblue" points="194.65,-240.51 205.24,-240.47 196.94,-233.89 194.65,-240.51"/>
</g>
<!-- Node3 -->
<g id="node3" class="node">
<title>Node3</title>
<g id="a_node3"><a xlink:href="exif-utils_8c.html#a4ad94614630897766dd0a5c9bc2a59bf" target="_top" xlink:title="Retrieve an ExifLong value from memory.">
<polygon fill="white" stroke="black" points="212.5,-202.5 212.5,-221.5 295.5,-221.5 295.5,-202.5 212.5,-202.5"/>
<text text-anchor="middle" x="254" y="-209.5" font-family="Helvetica,sans-Serif" font-size="10.00">exif_get_long</text>
</a>
</g>
</g>
<!-- Node1&#45;&gt;Node3 -->
<g id="edge2" class="edge">
<title>Node1&#45;&gt;Node3</title>
<path fill="none" stroke="midnightblue" d="M89.57,-145.65C110.1,-158.04 147.65,-179.54 182,-193 188.47,-195.53 195.39,-197.85 202.29,-199.92"/>
<polygon fill="midnightblue" stroke="midnightblue" points="201.74,-203.41 212.32,-202.79 203.66,-196.68 201.74,-203.41"/>
</g>
<!-- Node5 -->
<g id="node5" class="node">
<title>Node5</title>
<g id="a_node5"><a xlink:href="exif-utils_8c.html#a4b4acf537a8c6b9405e7b53be868e4d7" target="_top" xlink:title="Retrieve an ExifShort value from memory.">
<polygon fill="white" stroke="black" points="211,-164.5 211,-183.5 297,-183.5 297,-164.5 211,-164.5"/>
<text text-anchor="middle" x="254" y="-171.5" font-family="Helvetica,sans-Serif" font-size="10.00">exif_get_short</text>
</a>
</g>
</g>
<!-- Node1&#45;&gt;Node5 -->
<g id="edge4" class="edge">
<title>Node1&#45;&gt;Node5</title>
<path fill="none" stroke="midnightblue" d="M119.17,-145.59C144.04,-150.87 175.02,-157.45 200.91,-162.94"/>
<polygon fill="midnightblue" stroke="midnightblue" points="200.41,-166.41 210.92,-165.07 201.86,-159.57 200.41,-166.41"/>
</g>
<!-- Node7 -->
<g id="node7" class="node">
<title>Node7</title>
<g id="a_node7"><a xlink:href="exif-log_8c.html#a025d4a5d96544913ea6f6ebbec69cb68" target="_top" xlink:title=" ">
<polygon fill="white" stroke="black" points="226,-126.5 226,-145.5 282,-145.5 282,-126.5 226,-126.5"/>
<text text-anchor="middle" x="254" y="-133.5" font-family="Helvetica,sans-Serif" font-size="10.00">exif_log</text>
</a>
</g>
</g>
<!-- Node1&#45;&gt;Node7 -->
<g id="edge6" class="edge">
<title>Node1&#45;&gt;Node7</title>
<path fill="none" stroke="midnightblue" d="M146.03,-136C170.02,-136 195.76,-136 215.97,-136"/>
<polygon fill="midnightblue" stroke="midnightblue" points="216,-139.5 226,-136 216,-132.5 216,-139.5"/>
</g>
<!-- Node9 -->
<g id="node9" class="node">
<title>Node9</title>
<g id="a_node9"><a xlink:href="exif-mem_8c.html#ae8c09cfbcb95e435c4c4b7ec3bbd79e4" target="_top" xlink:title=" ">
<polygon fill="white" stroke="black" points="206.5,-88.5 206.5,-107.5 301.5,-107.5 301.5,-88.5 206.5,-88.5"/>
<text text-anchor="middle" x="254" y="-95.5" font-family="Helvetica,sans-Serif" font-size="10.00">exif_mem_alloc</text>
</a>
</g>
</g>
<!-- Node1&#45;&gt;Node9 -->
<g id="edge8" class="edge">
<title>Node1&#45;&gt;Node9</title>
<path fill="none" stroke="midnightblue" d="M119.17,-126.41C143.22,-121.31 172.97,-114.99 198.32,-109.61"/>
<polygon fill="midnightblue" stroke="midnightblue" points="199.1,-113.02 208.16,-107.52 197.65,-106.17 199.1,-113.02"/>
</g>
<!-- Node10 -->
<g id="node10" class="node">
<title>Node10</title>
<g id="a_node10"><a xlink:href="exif-mnote-data-fuji_8c.html#ad97d8d547619a920d374e179be91282c" target="_top" xlink:title=" ">
<polygon fill="white" stroke="black" points="194,-39 194,-69 314,-69 314,-39 194,-39"/>
<text text-anchor="start" x="202" y="-57" font-family="Helvetica,sans-Serif" font-size="10.00">exif_mnote_data_fuji</text>
<text text-anchor="middle" x="254" y="-46" font-family="Helvetica,sans-Serif" font-size="10.00">_clear</text>
</a>
</g>
</g>
<!-- Node1&#45;&gt;Node10 -->
<g id="edge9" class="edge">
<title>Node1&#45;&gt;Node10</title>
<path fill="none" stroke="midnightblue" d="M90.46,-126.33C111.32,-114.32 148.59,-93.61 182,-79 187.01,-76.81 192.29,-74.66 197.6,-72.61"/>
<polygon fill="midnightblue" stroke="midnightblue" points="199.03,-75.81 207.16,-69.02 196.57,-69.26 199.03,-75.81"/>
</g>
<!-- Node12 -->
<g id="node12" class="node">
<title>Node12</title>
<g id="a_node12"><a xlink:href="mnote-fuji-tag_8c.html#a891352140a24f146838a23d3ff335137" target="_top" xlink:title=" ">
<polygon fill="white" stroke="black" points="182,-0.5 182,-19.5 326,-19.5 326,-0.5 182,-0.5"/>
<text text-anchor="middle" x="254" y="-7.5" font-family="Helvetica,sans-Serif" font-size="10.00">mnote_fuji_tag_get_name</text>
</a>
</g>
</g>
<!-- Node1&#45;&gt;Node12 -->
<g id="edge11" class="edge">
<title>Node1&#45;&gt;Node12</title>
<path fill="none" stroke="midnightblue" d="M80.9,-126.34C96.45,-105.3 136.45,-55.15 182,-29 185.9,-26.76 190.08,-24.78 194.38,-23.02"/>
<polygon fill="midnightblue" stroke="midnightblue" points="195.73,-26.25 203.92,-19.53 193.33,-19.68 195.73,-26.25"/>
</g>
<!-- Node4 -->
<g id="node4" class="node">
<title>Node4</title>
<g id="a_node4"><a xlink:href="exif-utils_8c.html#a56b96f076a13da6ed926e1ef29cb2dc3" target="_top" xlink:title="Retrieve an ExifSLong value from memory.">
<polygon fill="white" stroke="black" points="364,-202.5 364,-221.5 452,-221.5 452,-202.5 364,-202.5"/>
<text text-anchor="middle" x="408" y="-209.5" font-family="Helvetica,sans-Serif" font-size="10.00">exif_get_slong</text>
</a>
</g>
</g>
<!-- Node3&#45;&gt;Node4 -->
<g id="edge3" class="edge">
<title>Node3&#45;&gt;Node4</title>
<path fill="none" stroke="midnightblue" d="M295.73,-212C313.55,-212 334.69,-212 353.73,-212"/>
<polygon fill="midnightblue" stroke="midnightblue" points="353.76,-215.5 363.76,-212 353.76,-208.5 353.76,-215.5"/>
</g>
<!-- Node6 -->
<g id="node6" class="node">
<title>Node6</title>
<g id="a_node6"><a xlink:href="exif-utils_8c.html#a6baf094a71392f9cea23ad633ec13c8b" target="_top" xlink:title="Retrieve an ExifSShort value from memory.">
<polygon fill="white" stroke="black" points="362,-164.5 362,-183.5 454,-183.5 454,-164.5 362,-164.5"/>
<text text-anchor="middle" x="408" y="-171.5" font-family="Helvetica,sans-Serif" font-size="10.00">exif_get_sshort</text>
</a>
</g>
</g>
<!-- Node5&#45;&gt;Node6 -->
<g id="edge5" class="edge">
<title>Node5&#45;&gt;Node6</title>
<path fill="none" stroke="midnightblue" d="M297.34,-174C314.23,-174 333.91,-174 351.89,-174"/>
<polygon fill="midnightblue" stroke="midnightblue" points="351.97,-177.5 361.97,-174 351.97,-170.5 351.97,-177.5"/>
</g>
<!-- Node8 -->
<g id="node8" class="node">
<title>Node8</title>
<g id="a_node8"><a xlink:href="exif-log_8c.html#a99101b5ad01b2d82ce9d43c9e8534627" target="_top" xlink:title=" ">
<polygon fill="white" stroke="black" points="377,-126.5 377,-145.5 439,-145.5 439,-126.5 377,-126.5"/>
<text text-anchor="middle" x="408" y="-133.5" font-family="Helvetica,sans-Serif" font-size="10.00">exif_logv</text>
</a>
</g>
</g>
<!-- Node7&#45;&gt;Node8 -->
<g id="edge7" class="edge">
<title>Node7&#45;&gt;Node8</title>
<path fill="none" stroke="midnightblue" d="M282.17,-136C305.69,-136 340.03,-136 366.74,-136"/>
<polygon fill="midnightblue" stroke="midnightblue" points="366.94,-139.5 376.94,-136 366.94,-132.5 366.94,-139.5"/>
</g>
<!-- Node11 -->
<g id="node11" class="node">
<title>Node11</title>
<g id="a_node11"><a xlink:href="exif-mem_8c.html#a43190b81b4b4bdb4ffb89bfb612051b1" target="_top" xlink:title=" ">
<polygon fill="white" stroke="black" points="362.5,-44.5 362.5,-63.5 453.5,-63.5 453.5,-44.5 362.5,-44.5"/>
<text text-anchor="middle" x="408" y="-51.5" font-family="Helvetica,sans-Serif" font-size="10.00">exif_mem_free</text>
</a>
</g>
</g>
<!-- Node10&#45;&gt;Node11 -->
<g id="edge10" class="edge">
<title>Node10&#45;&gt;Node11</title>
<path fill="none" stroke="midnightblue" d="M314.2,-54C326.71,-54 339.85,-54 352.18,-54"/>
<polygon fill="midnightblue" stroke="midnightblue" points="352.32,-57.5 362.32,-54 352.32,-50.5 352.32,-57.5"/>
</g>
</g>
</svg>
