<?xml version="1.0" encoding="UTF-8" standalone="no"?>
<!DOCTYPE svg PUBLIC "-//W3C//DTD SVG 1.1//EN"
 "http://www.w3.org/Graphics/SVG/1.1/DTD/svg11.dtd">
<!-- Generated by graphviz version 7.0.1 (0)
 -->
<!-- Title: libexif/fuji/exif&#45;mnote&#45;data&#45;fuji.h Pages: 1 -->
<svg width="702pt" height="522pt"
 viewBox="0.00 0.00 702.00 522.00" xmlns="http://www.w3.org/2000/svg" xmlns:xlink="http://www.w3.org/1999/xlink">
<g id="graph0" class="graph" transform="scale(1 1) rotate(0) translate(4 518)">
<title>libexif/fuji/exif&#45;mnote&#45;data&#45;fuji.h</title>
<!-- Node1 -->
<g id="Node000001" class="node">
<title>Node1</title>
<g id="a_Node000001"><a xlink:title=" ">
<polygon fill="#999999" stroke="#666666" points="275,-514 153,-514 153,-484 275,-484 275,-514"/>
<text text-anchor="start" x="161" y="-502" font-family="Helvetica,sans-Serif" font-size="10.00">libexif/fuji/exif&#45;mnote</text>
<text text-anchor="middle" x="214" y="-491" font-family="Helvetica,sans-Serif" font-size="10.00">&#45;data&#45;fuji.h</text>
</a>
</g>
</g>
<!-- Node2 -->
<g id="Node000002" class="node">
<title>Node2</title>
<g id="a_Node000002"><a xlink:href="exif-mnote-data_8h.html" target="_top" xlink:title="Handling EXIF MakerNote tags.">
<polygon fill="white" stroke="#666666" points="169.5,-250 66.5,-250 66.5,-220 169.5,-220 169.5,-250"/>
<text text-anchor="start" x="74.5" y="-238" font-family="Helvetica,sans-Serif" font-size="10.00">libexif/exif&#45;mnote</text>
<text text-anchor="middle" x="118" y="-227" font-family="Helvetica,sans-Serif" font-size="10.00">&#45;data.h</text>
</a>
</g>
</g>
<!-- Node1&#45;&gt;Node2 -->
<g id="edge1_Node000001_Node000002" class="edge">
<title>Node1&#45;&gt;Node2</title>
<g id="a_edge1_Node000001_Node000002"><a xlink:title=" ">
<path fill="none" stroke="#63b8ff" d="M208.7,-483.54C193.07,-440.86 146.97,-315.07 127.19,-261.08"/>
<polygon fill="#63b8ff" stroke="#63b8ff" points="130.53,-260.02 123.8,-251.84 123.96,-262.43 130.53,-260.02"/>
</a>
</g>
</g>
<!-- Node10 -->
<g id="Node000010" class="node">
<title>Node10</title>
<g id="a_Node000010"><a xlink:href="exif-mnote-data-priv_8h.html" target="_top" xlink:title=" ">
<polygon fill="white" stroke="#666666" points="118.5,-316 15.5,-316 15.5,-286 118.5,-286 118.5,-316"/>
<text text-anchor="start" x="23.5" y="-304" font-family="Helvetica,sans-Serif" font-size="10.00">libexif/exif&#45;mnote</text>
<text text-anchor="middle" x="67" y="-293" font-family="Helvetica,sans-Serif" font-size="10.00">&#45;data&#45;priv.h</text>
</a>
</g>
</g>
<!-- Node1&#45;&gt;Node10 -->
<g id="edge9_Node000001_Node000010" class="edge">
<title>Node1&#45;&gt;Node10</title>
<g id="a_edge9_Node000001_Node000010"><a xlink:title=" ">
<path fill="none" stroke="#63b8ff" d="M187.69,-483.69C173.18,-474.83 155.6,-462.41 143,-448 110.64,-411 87.45,-357.8 75.72,-326.88"/>
<polygon fill="#63b8ff" stroke="#63b8ff" points="79.05,-325.8 72.31,-317.62 72.48,-328.21 79.05,-325.8"/>
</a>
</g>
</g>
<!-- Node11 -->
<g id="Node000011" class="node">
<title>Node11</title>
<g id="a_Node000011"><a xlink:href="exif-data_8h.html" target="_top" xlink:title="Defines the ExifData type and the associated functions.">
<polygon fill="white" stroke="#666666" points="344,-310.5 242,-310.5 242,-291.5 344,-291.5 344,-310.5"/>
<text text-anchor="middle" x="293" y="-298.5" font-family="Helvetica,sans-Serif" font-size="10.00">libexif/exif&#45;data.h</text>
</a>
</g>
</g>
<!-- Node1&#45;&gt;Node11 -->
<g id="edge13_Node000001_Node000011" class="edge">
<title>Node1&#45;&gt;Node11</title>
<g id="a_edge13_Node000001_Node000011"><a xlink:title=" ">
<path fill="none" stroke="#63b8ff" d="M212.72,-483.69C210.94,-456.29 210.24,-395.29 234,-352 241.85,-337.7 255.54,-325.71 267.76,-317.06"/>
<polygon fill="#63b8ff" stroke="#63b8ff" points="269.45,-320.14 275.84,-311.69 265.57,-314.31 269.45,-320.14"/>
</a>
</g>
</g>
<!-- Node17 -->
<g id="Node000017" class="node">
<title>Node17</title>
<g id="a_Node000017"><a xlink:href="mnote-fuji-entry_8h.html" target="_top" xlink:title=" ">
<polygon fill="white" stroke="#666666" points="343.5,-448 242.5,-448 242.5,-418 343.5,-418 343.5,-448"/>
<text text-anchor="start" x="250.5" y="-436" font-family="Helvetica,sans-Serif" font-size="10.00">libexif/fuji/mnote</text>
<text text-anchor="middle" x="293" y="-425" font-family="Helvetica,sans-Serif" font-size="10.00">&#45;fuji&#45;entry.h</text>
</a>
</g>
</g>
<!-- Node1&#45;&gt;Node17 -->
<g id="edge32_Node000001_Node000017" class="edge">
<title>Node1&#45;&gt;Node17</title>
<g id="a_edge32_Node000001_Node000017"><a xlink:title=" ">
<path fill="none" stroke="#63b8ff" d="M225.81,-483.8C235.08,-475.4 248.17,-464.62 260.4,-455.23"/>
<polygon fill="#63b8ff" stroke="#63b8ff" points="262.4,-458.1 268.29,-449.29 258.19,-452.51 262.4,-458.1"/>
</a>
</g>
</g>
<!-- Node3 -->
<g id="Node000003" class="node">
<title>Node3</title>
<g id="a_Node000003"><a xlink:href="exif-log_8h.html" target="_top" xlink:title="Log message infrastructure.">
<polygon fill="white" stroke="#666666" points="207.5,-184 112.5,-184 112.5,-165 207.5,-165 207.5,-184"/>
<text text-anchor="middle" x="160" y="-172" font-family="Helvetica,sans-Serif" font-size="10.00">libexif/exif&#45;log.h</text>
</a>
</g>
</g>
<!-- Node2&#45;&gt;Node3 -->
<g id="edge2_Node000002_Node000003" class="edge">
<title>Node2&#45;&gt;Node3</title>
<g id="a_edge2_Node000002_Node000003"><a xlink:title=" ">
<path fill="none" stroke="#63b8ff" d="M128.38,-219.54C134.05,-211.65 141.11,-201.81 147.12,-193.44"/>
<polygon fill="#63b8ff" stroke="#63b8ff" points="149.9,-195.57 152.89,-185.4 144.21,-191.49 149.9,-195.57"/>
</a>
</g>
</g>
<!-- Node4 -->
<g id="Node000004" class="node">
<title>Node4</title>
<g id="a_Node000004"><a xlink:href="exif-mem_8h.html" target="_top" xlink:title="Define the ExifMem data type and the associated functions.">
<polygon fill="white" stroke="#666666" points="370,-129 264,-129 264,-110 370,-110 370,-129"/>
<text text-anchor="middle" x="317" y="-117" font-family="Helvetica,sans-Serif" font-size="10.00">libexif/exif&#45;mem.h</text>
</a>
</g>
</g>
<!-- Node3&#45;&gt;Node4 -->
<g id="edge3_Node000003_Node000004" class="edge">
<title>Node3&#45;&gt;Node4</title>
<g id="a_edge3_Node000003_Node000004"><a xlink:title=" ">
<path fill="none" stroke="#63b8ff" d="M186.63,-164.51C212.2,-155.88 251.05,-142.76 279.69,-133.1"/>
<polygon fill="#63b8ff" stroke="#63b8ff" points="280.71,-136.45 289.06,-129.93 278.47,-129.81 280.71,-136.45"/>
</a>
</g>
</g>
<!-- Node9 -->
<g id="Node000009" class="node">
<title>Node9</title>
<g id="a_Node000009"><a xlink:title=" ">
<polygon fill="#e0e0e0" stroke="#999999" points="188,-129 132,-129 132,-110 188,-110 188,-129"/>
<text text-anchor="middle" x="160" y="-117" font-family="Helvetica,sans-Serif" font-size="10.00">stdarg.h</text>
</a>
</g>
</g>
<!-- Node3&#45;&gt;Node9 -->
<g id="edge8_Node000003_Node000009" class="edge">
<title>Node3&#45;&gt;Node9</title>
<g id="a_edge8_Node000003_Node000009"><a xlink:title=" ">
<path fill="none" stroke="#63b8ff" d="M160,-164.75C160,-158.27 160,-149.16 160,-140.9"/>
<polygon fill="#63b8ff" stroke="#63b8ff" points="163.5,-140.96 160,-130.96 156.5,-140.96 163.5,-140.96"/>
</a>
</g>
</g>
<!-- Node5 -->
<g id="Node000005" class="node">
<title>Node5</title>
<g id="a_Node000005"><a xlink:href="exif-utils_8h.html" target="_top" xlink:title="EXIF data manipulation functions and types.">
<polygon fill="white" stroke="#666666" points="379.5,-74 278.5,-74 278.5,-55 379.5,-55 379.5,-74"/>
<text text-anchor="middle" x="329" y="-62" font-family="Helvetica,sans-Serif" font-size="10.00">libexif/exif&#45;utils.h</text>
</a>
</g>
</g>
<!-- Node4&#45;&gt;Node5 -->
<g id="edge4_Node000004_Node000005" class="edge">
<title>Node4&#45;&gt;Node5</title>
<g id="a_edge4_Node000004_Node000005"><a xlink:title=" ">
<path fill="none" stroke="#63b8ff" d="M318.98,-109.75C320.47,-103.19 322.56,-93.95 324.45,-85.6"/>
<polygon fill="#63b8ff" stroke="#63b8ff" points="327.85,-86.44 326.64,-75.92 321.02,-84.9 327.85,-86.44"/>
</a>
</g>
</g>
<!-- Node6 -->
<g id="Node000006" class="node">
<title>Node6</title>
<g id="a_Node000006"><a xlink:href="exif-byte-order_8h.html" target="_top" xlink:title="Defines the ExifByteOrder enum and the associated functions.">
<polygon fill="white" stroke="#666666" points="277.5,-19 146.5,-19 146.5,0 277.5,0 277.5,-19"/>
<text text-anchor="middle" x="212" y="-7" font-family="Helvetica,sans-Serif" font-size="10.00">libexif/exif&#45;byte&#45;order.h</text>
</a>
</g>
</g>
<!-- Node5&#45;&gt;Node6 -->
<g id="edge5_Node000005_Node000006" class="edge">
<title>Node5&#45;&gt;Node6</title>
<g id="a_edge5_Node000005_Node000006"><a xlink:title=" ">
<path fill="none" stroke="#63b8ff" d="M309.15,-54.51C290.72,-46.16 263.02,-33.61 241.91,-24.05"/>
<polygon fill="#63b8ff" stroke="#63b8ff" points="243.49,-20.92 232.93,-19.98 240.6,-27.3 243.49,-20.92"/>
</a>
</g>
</g>
<!-- Node7 -->
<g id="Node000007" class="node">
<title>Node7</title>
<g id="a_Node000007"><a xlink:href="exif-format_8h.html" target="_top" xlink:title="Handling native EXIF data types.">
<polygon fill="white" stroke="#666666" points="600.5,-19 487.5,-19 487.5,0 600.5,0 600.5,-19"/>
<text text-anchor="middle" x="544" y="-7" font-family="Helvetica,sans-Serif" font-size="10.00">libexif/exif&#45;format.h</text>
</a>
</g>
</g>
<!-- Node5&#45;&gt;Node7 -->
<g id="edge6_Node000005_Node000007" class="edge">
<title>Node5&#45;&gt;Node7</title>
<g id="a_edge6_Node000005_Node000007"><a xlink:title=" ">
<path fill="none" stroke="#63b8ff" d="M365.47,-54.51C401.64,-45.59 457.23,-31.89 496.76,-22.15"/>
<polygon fill="#63b8ff" stroke="#63b8ff" points="497.37,-25.6 506.24,-19.81 495.69,-18.8 497.37,-25.6"/>
</a>
</g>
</g>
<!-- Node8 -->
<g id="Node000008" class="node">
<title>Node8</title>
<g id="a_Node000008"><a xlink:title=" ">
<polygon fill="#e0e0e0" stroke="#999999" points="388,-19 296,-19 296,0 388,0 388,-19"/>
<text text-anchor="middle" x="342" y="-7" font-family="Helvetica,sans-Serif" font-size="10.00">libexif/_stdint.h</text>
</a>
</g>
</g>
<!-- Node5&#45;&gt;Node8 -->
<g id="edge7_Node000005_Node000008" class="edge">
<title>Node5&#45;&gt;Node8</title>
<g id="a_edge7_Node000005_Node000008"><a xlink:title=" ">
<path fill="none" stroke="#63b8ff" d="M331.15,-54.75C332.76,-48.19 335.02,-38.95 337.07,-30.6"/>
<polygon fill="#63b8ff" stroke="#63b8ff" points="340.46,-31.46 339.45,-20.91 333.66,-29.79 340.46,-31.46"/>
</a>
</g>
</g>
<!-- Node10&#45;&gt;Node2 -->
<g id="edge10_Node000010_Node000002" class="edge">
<title>Node10&#45;&gt;Node2</title>
<g id="a_edge10_Node000010_Node000002"><a xlink:title=" ">
<path fill="none" stroke="#63b8ff" d="M78.32,-285.8C84.59,-277.92 92.54,-267.95 99.68,-258.99"/>
<polygon fill="#63b8ff" stroke="#63b8ff" points="102.27,-261.35 105.77,-251.35 96.8,-256.99 102.27,-261.35"/>
</a>
</g>
</g>
<!-- Node10&#45;&gt;Node3 -->
<g id="edge12_Node000010_Node000003" class="edge">
<title>Node10&#45;&gt;Node3</title>
<g id="a_edge12_Node000010_Node000003"><a xlink:title=" ">
<path fill="none" stroke="#63b8ff" d="M59.95,-285.71C52.63,-268.64 43.93,-239.88 57,-220 67.23,-204.43 84.2,-194.28 101.44,-187.68"/>
<polygon fill="#63b8ff" stroke="#63b8ff" points="102.39,-191.05 110.72,-184.5 100.12,-184.43 102.39,-191.05"/>
</a>
</g>
</g>
<!-- Node10&#45;&gt;Node6 -->
<g id="edge11_Node000010_Node000006" class="edge">
<title>Node10&#45;&gt;Node6</title>
<g id="a_edge11_Node000010_Node000006"><a xlink:title=" ">
<path fill="none" stroke="#63b8ff" d="M53.12,-285.64C33.49,-263.77 0,-219.93 0,-175.5 0,-175.5 0,-175.5 0,-118.5 0,-55.89 74.31,-29.56 134.94,-18.5"/>
<polygon fill="#63b8ff" stroke="#63b8ff" points="135.32,-21.99 144.59,-16.86 134.15,-15.08 135.32,-21.99"/>
</a>
</g>
</g>
<!-- Node11&#45;&gt;Node2 -->
<g id="edge30_Node000011_Node000002" class="edge">
<title>Node11&#45;&gt;Node2</title>
<g id="a_edge30_Node000011_Node000002"><a xlink:title=" ">
<path fill="none" stroke="#63b8ff" d="M268.67,-291.1C242.85,-281.66 201.32,-266.47 168.39,-254.43"/>
<polygon fill="#63b8ff" stroke="#63b8ff" points="169.6,-251.15 159.01,-251 167.2,-257.72 169.6,-251.15"/>
</a>
</g>
</g>
<!-- Node11&#45;&gt;Node3 -->
<g id="edge17_Node000011_Node000003" class="edge">
<title>Node11&#45;&gt;Node3</title>
<g id="a_edge17_Node000011_Node000003"><a xlink:title=" ">
<path fill="none" stroke="#63b8ff" d="M278.01,-291.08C263.03,-281.8 239.73,-266.36 222,-250 203.13,-232.59 184.73,-209.47 172.94,-193.63"/>
<polygon fill="#63b8ff" stroke="#63b8ff" points="175.82,-191.64 167.1,-185.63 170.17,-195.77 175.82,-191.64"/>
</a>
</g>
</g>
<!-- Node11&#45;&gt;Node4 -->
<g id="edge31_Node000011_Node000004" class="edge">
<title>Node11&#45;&gt;Node4</title>
<g id="a_edge31_Node000011_Node000004"><a xlink:title=" ">
<path fill="none" stroke="#63b8ff" d="M292.22,-291.01C290.55,-269.13 287.6,-211.46 298,-165 299.95,-156.3 303.55,-147.16 307.09,-139.45"/>
<polygon fill="#63b8ff" stroke="#63b8ff" points="310.11,-141.25 311.38,-130.73 303.83,-138.16 310.11,-141.25"/>
</a>
</g>
</g>
<!-- Node11&#45;&gt;Node6 -->
<g id="edge14_Node000011_Node000006" class="edge">
<title>Node11&#45;&gt;Node6</title>
<g id="a_edge14_Node000011_Node000006"><a xlink:title=" ">
<path fill="none" stroke="#63b8ff" d="M285.78,-291.27C270.44,-271.8 236,-222.81 236,-175.5 236,-175.5 236,-175.5 236,-118.5 236,-87.03 226.17,-51.6 219.09,-30.18"/>
<polygon fill="#63b8ff" stroke="#63b8ff" points="222.41,-29.05 215.83,-20.74 215.79,-31.34 222.41,-29.05"/>
</a>
</g>
</g>
<!-- Node12 -->
<g id="Node000012" class="node">
<title>Node12</title>
<g id="a_Node000012"><a xlink:href="exif-data-type_8h.html" target="_top" xlink:title=" ">
<polygon fill="white" stroke="#666666" points="516,-129 388,-129 388,-110 516,-110 516,-129"/>
<text text-anchor="middle" x="452" y="-117" font-family="Helvetica,sans-Serif" font-size="10.00">libexif/exif&#45;data&#45;type.h</text>
</a>
</g>
</g>
<!-- Node11&#45;&gt;Node12 -->
<g id="edge15_Node000011_Node000012" class="edge">
<title>Node11&#45;&gt;Node12</title>
<g id="a_edge15_Node000011_Node000012"><a xlink:title=" ">
<path fill="none" stroke="#63b8ff" d="M295.75,-291.16C303.5,-267.56 327.71,-202.35 369,-165 383.42,-151.95 402.36,-141.42 418.5,-133.89"/>
<polygon fill="#63b8ff" stroke="#63b8ff" points="419.54,-137.26 427.25,-129.99 416.69,-130.86 419.54,-137.26"/>
</a>
</g>
</g>
<!-- Node13 -->
<g id="Node000013" class="node">
<title>Node13</title>
<g id="a_Node000013"><a xlink:href="exif-ifd_8h.html" target="_top" xlink:title=" ">
<polygon fill="white" stroke="#666666" points="665.5,-129 572.5,-129 572.5,-110 665.5,-110 665.5,-129"/>
<text text-anchor="middle" x="619" y="-117" font-family="Helvetica,sans-Serif" font-size="10.00">libexif/exif&#45;ifd.h</text>
</a>
</g>
</g>
<!-- Node11&#45;&gt;Node13 -->
<g id="edge16_Node000011_Node000013" class="edge">
<title>Node11&#45;&gt;Node13</title>
<g id="a_edge16_Node000011_Node000013"><a xlink:title=" ">
<path fill="none" stroke="#63b8ff" d="M344.23,-292.39C387.03,-284.92 449.07,-271.48 500,-250 550.79,-228.58 573.27,-229.07 605,-184 613.96,-171.27 617.33,-153.82 618.53,-140.44"/>
<polygon fill="#63b8ff" stroke="#63b8ff" points="622.02,-140.82 619.05,-130.65 615.03,-140.45 622.02,-140.82"/>
</a>
</g>
</g>
<!-- Node14 -->
<g id="Node000014" class="node">
<title>Node14</title>
<g id="a_Node000014"><a xlink:href="exif-tag_8h.html" target="_top" xlink:title="Handling EXIF tags.">
<polygon fill="white" stroke="#666666" points="596,-184 500,-184 500,-165 596,-165 596,-184"/>
<text text-anchor="middle" x="548" y="-172" font-family="Helvetica,sans-Serif" font-size="10.00">libexif/exif&#45;tag.h</text>
</a>
</g>
</g>
<!-- Node11&#45;&gt;Node14 -->
<g id="edge18_Node000011_Node000014" class="edge">
<title>Node11&#45;&gt;Node14</title>
<g id="a_edge18_Node000011_Node000014"><a xlink:title=" ">
<path fill="none" stroke="#63b8ff" d="M344.17,-291.78C380.19,-284.48 428.63,-271.55 467,-250 493.71,-235 518.73,-209.57 533.7,-192.66"/>
<polygon fill="#63b8ff" stroke="#63b8ff" points="536.08,-195.27 539.95,-185.4 530.77,-190.7 536.08,-195.27"/>
</a>
</g>
</g>
<!-- Node15 -->
<g id="Node000015" class="node">
<title>Node15</title>
<g id="a_Node000015"><a xlink:href="exif-content_8h.html" target="_top" xlink:title="Handling EXIF IFDs.">
<polygon fill="white" stroke="#666666" points="457.5,-244.5 340.5,-244.5 340.5,-225.5 457.5,-225.5 457.5,-244.5"/>
<text text-anchor="middle" x="399" y="-232.5" font-family="Helvetica,sans-Serif" font-size="10.00">libexif/exif&#45;content.h</text>
</a>
</g>
</g>
<!-- Node11&#45;&gt;Node15 -->
<g id="edge21_Node000011_Node000015" class="edge">
<title>Node11&#45;&gt;Node15</title>
<g id="a_edge21_Node000011_Node000015"><a xlink:title=" ">
<path fill="none" stroke="#63b8ff" d="M302.89,-291.1C318.18,-280.55 347.26,-262.81 369.56,-250.32"/>
<polygon fill="#63b8ff" stroke="#63b8ff" points="371.15,-253.43 378.23,-245.55 367.78,-247.3 371.15,-253.43"/>
</a>
</g>
</g>
<!-- Node14&#45;&gt;Node12 -->
<g id="edge20_Node000014_Node000012" class="edge">
<title>Node14&#45;&gt;Node12</title>
<g id="a_edge20_Node000014_Node000012"><a xlink:title=" ">
<path fill="none" stroke="#63b8ff" d="M531.71,-164.51C517.01,-156.39 495.11,-144.3 477.98,-134.85"/>
<polygon fill="#63b8ff" stroke="#63b8ff" points="479.82,-131.86 469.37,-130.09 476.43,-137.99 479.82,-131.86"/>
</a>
</g>
</g>
<!-- Node14&#45;&gt;Node13 -->
<g id="edge19_Node000014_Node000013" class="edge">
<title>Node14&#45;&gt;Node13</title>
<g id="a_edge19_Node000014_Node000013"><a xlink:title=" ">
<path fill="none" stroke="#63b8ff" d="M560.04,-164.51C570.41,-156.77 585.6,-145.43 597.97,-136.2"/>
<polygon fill="#63b8ff" stroke="#63b8ff" points="600,-139.05 605.92,-130.26 595.81,-133.44 600,-139.05"/>
</a>
</g>
</g>
<!-- Node15&#45;&gt;Node3 -->
<g id="edge28_Node000015_Node000003" class="edge">
<title>Node15&#45;&gt;Node3</title>
<g id="a_edge28_Node000015_Node000003"><a xlink:title=" ">
<path fill="none" stroke="#63b8ff" d="M362.44,-225.05C320.97,-214.9 253.21,-198.31 207.63,-187.16"/>
<polygon fill="#63b8ff" stroke="#63b8ff" points="208.57,-183.79 198.03,-184.81 206.91,-190.58 208.57,-183.79"/>
</a>
</g>
</g>
<!-- Node15&#45;&gt;Node4 -->
<g id="edge29_Node000015_Node000004" class="edge">
<title>Node15&#45;&gt;Node4</title>
<g id="a_edge29_Node000015_Node000004"><a xlink:title=" ">
<path fill="none" stroke="#63b8ff" d="M392.57,-225.09C379.15,-206.53 347.97,-163.37 330.14,-138.69"/>
<polygon fill="#63b8ff" stroke="#63b8ff" points="332.98,-136.65 324.29,-130.59 327.31,-140.75 332.98,-136.65"/>
</a>
</g>
</g>
<!-- Node15&#45;&gt;Node11 -->
<g id="edge27_Node000015_Node000011" class="edge">
<title>Node15&#45;&gt;Node11</title>
<g id="a_edge27_Node000015_Node000011"><a xlink:title=" ">
<path fill="none" stroke="#63b8ff" d="M389.22,-244.82C374,-255.34 344.93,-273.08 322.6,-285.59"/>
<polygon fill="#63b8ff" stroke="#63b8ff" points="320.99,-282.49 313.91,-290.37 324.36,-288.62 320.99,-282.49"/>
</a>
</g>
</g>
<!-- Node15&#45;&gt;Node14 -->
<g id="edge22_Node000015_Node000014" class="edge">
<title>Node15&#45;&gt;Node14</title>
<g id="a_edge22_Node000015_Node000014"><a xlink:title=" ">
<path fill="none" stroke="#63b8ff" d="M421.63,-225.12C446.35,-215.41 486.21,-199.76 514.54,-188.64"/>
<polygon fill="#63b8ff" stroke="#63b8ff" points="515.72,-191.93 523.75,-185.02 513.16,-185.42 515.72,-191.93"/>
</a>
</g>
</g>
<!-- Node16 -->
<g id="Node000016" class="node">
<title>Node16</title>
<g id="a_Node000016"><a xlink:href="exif-entry_8h.html" target="_top" xlink:title="Handling EXIF entries.">
<polygon fill="white" stroke="#666666" points="482,-184 378,-184 378,-165 482,-165 482,-184"/>
<text text-anchor="middle" x="430" y="-172" font-family="Helvetica,sans-Serif" font-size="10.00">libexif/exif&#45;entry.h</text>
</a>
</g>
</g>
<!-- Node15&#45;&gt;Node16 -->
<g id="edge23_Node000015_Node000016" class="edge">
<title>Node15&#45;&gt;Node16</title>
<g id="a_edge23_Node000015_Node000016"><a xlink:title=" ">
<path fill="none" stroke="#63b8ff" d="M398.62,-225.37C401.22,-217.07 407.55,-204.28 414.04,-193.72"/>
<polygon fill="#63b8ff" stroke="#63b8ff" points="416.94,-195.68 419.6,-185.42 411.13,-191.78 416.94,-195.68"/>
</a>
</g>
</g>
<!-- Node16&#45;&gt;Node4 -->
<g id="edge26_Node000016_Node000004" class="edge">
<title>Node16&#45;&gt;Node4</title>
<g id="a_edge26_Node000016_Node000004"><a xlink:title=" ">
<path fill="none" stroke="#63b8ff" d="M410.83,-164.51C393.11,-156.2 366.52,-143.73 346.17,-134.18"/>
<polygon fill="#63b8ff" stroke="#63b8ff" points="347.8,-131.08 337.26,-130 344.82,-137.42 347.8,-131.08"/>
</a>
</g>
</g>
<!-- Node16&#45;&gt;Node7 -->
<g id="edge25_Node000016_Node000007" class="edge">
<title>Node16&#45;&gt;Node7</title>
<g id="a_edge25_Node000016_Node000007"><a xlink:title=" ">
<path fill="none" stroke="#63b8ff" d="M468.88,-164.59C488.69,-158.04 511.41,-147.04 525,-129 546.78,-100.1 547.75,-55.88 546.13,-30.42"/>
<polygon fill="#63b8ff" stroke="#63b8ff" points="549.64,-30.46 545.3,-20.8 542.67,-31.06 549.64,-30.46"/>
</a>
</g>
</g>
<!-- Node16&#45;&gt;Node15 -->
<g id="edge24_Node000016_Node000015" class="edge">
<title>Node16&#45;&gt;Node15</title>
<g id="a_edge24_Node000016_Node000015"><a xlink:title=" ">
<path fill="none" stroke="#63b8ff" d="M430.37,-184.17C427.76,-192.48 421.42,-205.28 414.93,-215.82"/>
<polygon fill="#63b8ff" stroke="#63b8ff" points="412.04,-213.86 409.37,-224.11 417.85,-217.76 412.04,-213.86"/>
</a>
</g>
</g>
<!-- Node17&#45;&gt;Node1 -->
<g id="edge36_Node000017_Node000001" class="edge">
<title>Node17&#45;&gt;Node1</title>
<g id="a_edge36_Node000017_Node000001"><a xlink:title=" ">
<path fill="none" stroke="#63b8ff" d="M281.23,-448.16C271.91,-456.61 258.7,-467.49 246.4,-476.92"/>
<polygon fill="#63b8ff" stroke="#63b8ff" points="244.36,-474.08 238.46,-482.89 248.56,-479.68 244.36,-474.08"/>
</a>
</g>
</g>
<!-- Node17&#45;&gt;Node7 -->
<g id="edge33_Node000017_Node000007" class="edge">
<title>Node17&#45;&gt;Node7</title>
<g id="a_edge33_Node000017_Node000007"><a xlink:title=" ">
<path fill="none" stroke="#63b8ff" d="M343.79,-426.37C451.69,-412.98 694,-374.82 694,-302 694,-302 694,-302 694,-118.5 694,-67.03 635.11,-37.66 591.13,-22.9"/>
<polygon fill="#63b8ff" stroke="#63b8ff" points="592.34,-19.61 581.75,-19.92 590.22,-26.28 592.34,-19.61"/>
</a>
</g>
</g>
<!-- Node18 -->
<g id="Node000018" class="node">
<title>Node18</title>
<g id="a_Node000018"><a xlink:href="mnote-fuji-tag_8h.html" target="_top" xlink:title=" ">
<polygon fill="white" stroke="#666666" points="343.5,-382 242.5,-382 242.5,-352 343.5,-352 343.5,-382"/>
<text text-anchor="start" x="250.5" y="-370" font-family="Helvetica,sans-Serif" font-size="10.00">libexif/fuji/mnote</text>
<text text-anchor="middle" x="293" y="-359" font-family="Helvetica,sans-Serif" font-size="10.00">&#45;fuji&#45;tag.h</text>
</a>
</g>
</g>
<!-- Node17&#45;&gt;Node18 -->
<g id="edge34_Node000017_Node000018" class="edge">
<title>Node17&#45;&gt;Node18</title>
<g id="a_edge34_Node000017_Node000018"><a xlink:title=" ">
<path fill="none" stroke="#63b8ff" d="M293,-417.8C293,-410.67 293,-401.82 293,-393.56"/>
<polygon fill="#63b8ff" stroke="#63b8ff" points="296.5,-393.68 293,-383.68 289.5,-393.68 296.5,-393.68"/>
</a>
</g>
</g>
<!-- Node18&#45;&gt;Node11 -->
<g id="edge35_Node000018_Node000011" class="edge">
<title>Node18&#45;&gt;Node11</title>
<g id="a_edge35_Node000018_Node000011"><a xlink:title=" ">
<path fill="none" stroke="#63b8ff" d="M293,-351.8C293,-343.09 293,-331.81 293,-322.18"/>
<polygon fill="#63b8ff" stroke="#63b8ff" points="296.5,-322.36 293,-312.36 289.5,-322.36 296.5,-322.36"/>
</a>
</g>
</g>
</g>
</svg>
