<?xml version="1.0" encoding="UTF-8" standalone="no"?>
<!DOCTYPE svg PUBLIC "-//W3C//DTD SVG 1.1//EN"
 "http://www.w3.org/Graphics/SVG/1.1/DTD/svg11.dtd">
<!-- Generated by graphviz version 2.44.1 (0)
 -->
<!-- Title: exif_mnote_data_olympus_save Pages: 1 -->
<svg width="465pt" height="180pt"
 viewBox="0.00 0.00 465.00 180.00" xmlns="http://www.w3.org/2000/svg" xmlns:xlink="http://www.w3.org/1999/xlink">
<g id="graph0" class="graph" transform="scale(1 1) rotate(0) translate(4 176)">
<title>exif_mnote_data_olympus_save</title>
<polygon fill="white" stroke="transparent" points="-4,4 -4,-176 461,-176 461,4 -4,4"/>
<!-- Node1 -->
<g id="node1" class="node">
<title>Node1</title>
<g id="a_node1"><a xlink:title="save the MnoteData from ne to buf">
<polygon fill="#bfbfbf" stroke="black" points="0,-76.5 0,-95.5 175,-95.5 175,-76.5 0,-76.5"/>
<text text-anchor="middle" x="87.5" y="-83.5" font-family="Helvetica,sans-Serif" font-size="10.00">exif_mnote_data_olympus_save</text>
</a>
</g>
</g>
<!-- Node2 -->
<g id="node2" class="node">
<title>Node2</title>
<g id="a_node2"><a xlink:href="exif-format_8c.html#a924038efe0cd8ebade8f44619dd794f3" target="_top" xlink:title="Return the raw size of the given EXIF data type.">
<polygon fill="white" stroke="black" points="211,-152.5 211,-171.5 330,-171.5 330,-152.5 211,-152.5"/>
<text text-anchor="middle" x="270.5" y="-159.5" font-family="Helvetica,sans-Serif" font-size="10.00">exif_format_get_size</text>
</a>
</g>
</g>
<!-- Node1&#45;&gt;Node2 -->
<g id="edge1" class="edge">
<title>Node1&#45;&gt;Node2</title>
<path fill="none" stroke="midnightblue" d="M107.28,-95.61C131.06,-107.58 173.45,-128.23 211,-143 216.47,-145.15 222.3,-147.26 228.08,-149.24"/>
<polygon fill="midnightblue" stroke="midnightblue" points="227.08,-152.6 237.68,-152.44 229.3,-145.96 227.08,-152.6"/>
</g>
<!-- Node3 -->
<g id="node3" class="node">
<title>Node3</title>
<g id="a_node3"><a xlink:href="exif-mem_8c.html#ae8c09cfbcb95e435c4c4b7ec3bbd79e4" target="_top" xlink:title=" ">
<polygon fill="white" stroke="black" points="223,-114.5 223,-133.5 318,-133.5 318,-114.5 223,-114.5"/>
<text text-anchor="middle" x="270.5" y="-121.5" font-family="Helvetica,sans-Serif" font-size="10.00">exif_mem_alloc</text>
</a>
</g>
</g>
<!-- Node1&#45;&gt;Node3 -->
<g id="edge2" class="edge">
<title>Node1&#45;&gt;Node3</title>
<path fill="none" stroke="midnightblue" d="M134.17,-95.59C158.49,-100.69 188.58,-107.01 214.21,-112.39"/>
<polygon fill="midnightblue" stroke="midnightblue" points="213.65,-115.85 224.15,-114.48 215.09,-109 213.65,-115.85"/>
</g>
<!-- Node4 -->
<g id="node4" class="node">
<title>Node4</title>
<g id="a_node4"><a xlink:href="exif-mem_8c.html#a3dcfe6794d82e79e92da5e2c62484b17" target="_top" xlink:title=" ">
<polygon fill="white" stroke="black" points="218.5,-76.5 218.5,-95.5 322.5,-95.5 322.5,-76.5 218.5,-76.5"/>
<text text-anchor="middle" x="270.5" y="-83.5" font-family="Helvetica,sans-Serif" font-size="10.00">exif_mem_realloc</text>
</a>
</g>
</g>
<!-- Node1&#45;&gt;Node4 -->
<g id="edge3" class="edge">
<title>Node1&#45;&gt;Node4</title>
<path fill="none" stroke="midnightblue" d="M175.02,-86C186.07,-86 197.19,-86 207.73,-86"/>
<polygon fill="midnightblue" stroke="midnightblue" points="208.06,-89.5 218.06,-86 208.06,-82.5 208.06,-89.5"/>
</g>
<!-- Node5 -->
<g id="node5" class="node">
<title>Node5</title>
<g id="a_node5"><a xlink:href="exif-utils_8c.html#ac90147d0cc97bec7a577bf9576191bf8" target="_top" xlink:title="Store an ExifLong value into memory in EXIF format.">
<polygon fill="white" stroke="black" points="229.5,-38.5 229.5,-57.5 311.5,-57.5 311.5,-38.5 229.5,-38.5"/>
<text text-anchor="middle" x="270.5" y="-45.5" font-family="Helvetica,sans-Serif" font-size="10.00">exif_set_long</text>
</a>
</g>
</g>
<!-- Node1&#45;&gt;Node5 -->
<g id="edge4" class="edge">
<title>Node1&#45;&gt;Node5</title>
<path fill="none" stroke="midnightblue" d="M134.17,-76.41C160.18,-70.95 192.78,-64.11 219.47,-58.5"/>
<polygon fill="midnightblue" stroke="midnightblue" points="220.32,-61.9 229.39,-56.42 218.88,-55.05 220.32,-61.9"/>
</g>
<!-- Node7 -->
<g id="node7" class="node">
<title>Node7</title>
<g id="a_node7"><a xlink:href="exif-utils_8c.html#ad905d16e26b4052a1db34dbebdc37341" target="_top" xlink:title="Store an ExifShort value into memory in EXIF format.">
<polygon fill="white" stroke="black" points="227.5,-0.5 227.5,-19.5 313.5,-19.5 313.5,-0.5 227.5,-0.5"/>
<text text-anchor="middle" x="270.5" y="-7.5" font-family="Helvetica,sans-Serif" font-size="10.00">exif_set_short</text>
</a>
</g>
</g>
<!-- Node1&#45;&gt;Node7 -->
<g id="edge6" class="edge">
<title>Node1&#45;&gt;Node7</title>
<path fill="none" stroke="midnightblue" d="M107.28,-76.39C131.06,-64.42 173.45,-43.77 211,-29 216.47,-26.85 222.3,-24.74 228.08,-22.76"/>
<polygon fill="midnightblue" stroke="midnightblue" points="229.3,-26.04 237.68,-19.56 227.08,-19.4 229.3,-26.04"/>
</g>
<!-- Node6 -->
<g id="node6" class="node">
<title>Node6</title>
<g id="a_node6"><a xlink:href="exif-utils_8c.html#ae6e3b9d1663f9ab9bd462d73a310ca03" target="_top" xlink:title="Store an ExifSLong value into memory in EXIF format.">
<polygon fill="white" stroke="black" points="368,-38.5 368,-57.5 455,-57.5 455,-38.5 368,-38.5"/>
<text text-anchor="middle" x="411.5" y="-45.5" font-family="Helvetica,sans-Serif" font-size="10.00">exif_set_slong</text>
</a>
</g>
</g>
<!-- Node5&#45;&gt;Node6 -->
<g id="edge5" class="edge">
<title>Node5&#45;&gt;Node6</title>
<path fill="none" stroke="midnightblue" d="M311.7,-48C326.04,-48 342.4,-48 357.64,-48"/>
<polygon fill="midnightblue" stroke="midnightblue" points="357.96,-51.5 367.96,-48 357.96,-44.5 357.96,-51.5"/>
</g>
<!-- Node8 -->
<g id="node8" class="node">
<title>Node8</title>
<g id="a_node8"><a xlink:href="exif-utils_8c.html#a6504651147702fc6db9a5cd4aa997023" target="_top" xlink:title="Store an ExifSShort value into memory in EXIF format.">
<polygon fill="white" stroke="black" points="366,-0.5 366,-19.5 457,-19.5 457,-0.5 366,-0.5"/>
<text text-anchor="middle" x="411.5" y="-7.5" font-family="Helvetica,sans-Serif" font-size="10.00">exif_set_sshort</text>
</a>
</g>
</g>
<!-- Node7&#45;&gt;Node8 -->
<g id="edge7" class="edge">
<title>Node7&#45;&gt;Node8</title>
<path fill="none" stroke="midnightblue" d="M313.58,-10C326.83,-10 341.66,-10 355.65,-10"/>
<polygon fill="midnightblue" stroke="midnightblue" points="355.66,-13.5 365.66,-10 355.66,-6.5 355.66,-13.5"/>
</g>
</g>
</svg>
