<?xml version="1.0" encoding="UTF-8" standalone="no"?>
<!DOCTYPE svg PUBLIC "-//W3C//DTD SVG 1.1//EN"
 "http://www.w3.org/Graphics/SVG/1.1/DTD/svg11.dtd">
<!-- Generated by graphviz version 7.0.1 (0)
 -->
<!-- Title: exif_mnote_data_olympus_load Pages: 1 -->
<svg width="515pt" height="309pt"
 viewBox="0.00 0.00 515.00 309.00" xmlns="http://www.w3.org/2000/svg" xmlns:xlink="http://www.w3.org/1999/xlink">
<g id="graph0" class="graph" transform="scale(1 1) rotate(0) translate(4 305)">
<title>exif_mnote_data_olympus_load</title>
<!-- Node1 -->
<g id="Node000001" class="node">
<title>Node1</title>
<g id="a_Node000001"><a xlink:title=" ">
<polygon fill="#999999" stroke="#666666" points="173,-171 0,-171 0,-152 173,-152 173,-171"/>
<text text-anchor="middle" x="86.5" y="-159" font-family="Helvetica,sans-Serif" font-size="10.00">exif_mnote_data_olympus_load</text>
</a>
</g>
</g>
<!-- Node2 -->
<g id="Node000002" class="node">
<title>Node2</title>
<g id="a_Node000002"><a xlink:href="exif-format_8c.html#a924038efe0cd8ebade8f44619dd794f3" target="_top" xlink:title="Return the raw size of the given EXIF data type.">
<polygon fill="white" stroke="#666666" points="353.5,-301 234.5,-301 234.5,-282 353.5,-282 353.5,-301"/>
<text text-anchor="middle" x="294" y="-289" font-family="Helvetica,sans-Serif" font-size="10.00">exif_format_get_size</text>
</a>
</g>
</g>
<!-- Node1&#45;&gt;Node2 -->
<g id="edge1_Node000001_Node000002" class="edge">
<title>Node1&#45;&gt;Node2</title>
<g id="a_edge1_Node000001_Node000002"><a xlink:title=" ">
<path fill="none" stroke="#63b8ff" d="M95.08,-171.45C112.55,-193.6 158.05,-247.11 209,-273.5 213.52,-275.84 218.32,-277.88 223.26,-279.65"/>
<polygon fill="#63b8ff" stroke="#63b8ff" points="222.18,-282.98 232.77,-282.66 224.29,-276.3 222.18,-282.98"/>
</a>
</g>
</g>
<!-- Node3 -->
<g id="Node000003" class="node">
<title>Node3</title>
<g id="a_Node000003"><a xlink:href="exif-utils_8c.html#a4ad94614630897766dd0a5c9bc2a59bf" target="_top" xlink:title="Retrieve an ExifLong value from memory.">
<polygon fill="white" stroke="#666666" points="335.5,-264 252.5,-264 252.5,-245 335.5,-245 335.5,-264"/>
<text text-anchor="middle" x="294" y="-252" font-family="Helvetica,sans-Serif" font-size="10.00">exif_get_long</text>
</a>
</g>
</g>
<!-- Node1&#45;&gt;Node3 -->
<g id="edge2_Node000001_Node000003" class="edge">
<title>Node1&#45;&gt;Node3</title>
<g id="a_edge2_Node000001_Node000003"><a xlink:title=" ">
<path fill="none" stroke="#63b8ff" d="M100.19,-171.4C121.46,-187.51 166.22,-219.31 209,-236.5 219.07,-240.54 230.19,-243.74 240.96,-246.25"/>
<polygon fill="#63b8ff" stroke="#63b8ff" points="240.01,-249.63 250.52,-248.3 241.48,-242.78 240.01,-249.63"/>
</a>
</g>
</g>
<!-- Node5 -->
<g id="Node000005" class="node">
<title>Node5</title>
<g id="a_Node000005"><a xlink:href="exif-utils_8c.html#a4b4acf537a8c6b9405e7b53be868e4d7" target="_top" xlink:title="Retrieve an ExifShort value from memory.">
<polygon fill="white" stroke="#666666" points="337,-227 251,-227 251,-208 337,-208 337,-227"/>
<text text-anchor="middle" x="294" y="-215" font-family="Helvetica,sans-Serif" font-size="10.00">exif_get_short</text>
</a>
</g>
</g>
<!-- Node1&#45;&gt;Node5 -->
<g id="edge4_Node000001_Node000005" class="edge">
<title>Node1&#45;&gt;Node5</title>
<g id="a_edge4_Node000001_Node000005"><a xlink:title=" ">
<path fill="none" stroke="#63b8ff" d="M116.74,-171.48C141.22,-179.63 177.15,-191.13 209,-199.5 218.75,-202.06 229.2,-204.53 239.31,-206.77"/>
<polygon fill="#63b8ff" stroke="#63b8ff" points="238.52,-210.18 249.04,-208.87 240,-203.33 238.52,-210.18"/>
</a>
</g>
</g>
<!-- Node7 -->
<g id="Node000007" class="node">
<title>Node7</title>
<g id="a_Node000007"><a xlink:href="exif-log_8c.html#a025d4a5d96544913ea6f6ebbec69cb68" target="_top" xlink:title=" ">
<polygon fill="white" stroke="#666666" points="322,-190 266,-190 266,-171 322,-171 322,-190"/>
<text text-anchor="middle" x="294" y="-178" font-family="Helvetica,sans-Serif" font-size="10.00">exif_log</text>
</a>
</g>
</g>
<!-- Node1&#45;&gt;Node7 -->
<g id="edge6_Node000001_Node000007" class="edge">
<title>Node1&#45;&gt;Node7</title>
<g id="a_edge6_Node000001_Node000007"><a xlink:title=" ">
<path fill="none" stroke="#63b8ff" d="M173.46,-169.45C201.74,-172.06 231.77,-174.84 254.66,-176.96"/>
<polygon fill="#63b8ff" stroke="#63b8ff" points="254.14,-180.42 264.42,-177.86 254.79,-173.45 254.14,-180.42"/>
</a>
</g>
</g>
<!-- Node9 -->
<g id="Node000009" class="node">
<title>Node9</title>
<g id="a_Node000009"><a xlink:href="exif-mem_8c.html#a68be7c7afc8cff75adc3b1a28b5ae9a2" target="_top" xlink:title=" ">
<polygon fill="white" stroke="#666666" points="341.5,-153 246.5,-153 246.5,-134 341.5,-134 341.5,-153"/>
<text text-anchor="middle" x="294" y="-141" font-family="Helvetica,sans-Serif" font-size="10.00">exif_mem_alloc</text>
</a>
</g>
</g>
<!-- Node1&#45;&gt;Node9 -->
<g id="edge8_Node000001_Node000009" class="edge">
<title>Node1&#45;&gt;Node9</title>
<g id="a_edge8_Node000001_Node000009"><a xlink:title=" ">
<path fill="none" stroke="#63b8ff" d="M173.46,-153.97C194.14,-152.16 215.76,-150.27 234.83,-148.6"/>
<polygon fill="#63b8ff" stroke="#63b8ff" points="234.88,-152.1 244.53,-147.75 234.26,-145.13 234.88,-152.1"/>
</a>
</g>
</g>
<!-- Node10 -->
<g id="Node000010" class="node">
<title>Node10</title>
<g id="a_Node000010"><a xlink:href="exif-mnote-data-olympus_8c.html#abbf48c8c4866eb54430bb8db5f8a83c2" target="_top" xlink:title=" ">
<polygon fill="white" stroke="#666666" points="367,-115.5 221,-115.5 221,-85.5 367,-85.5 367,-115.5"/>
<text text-anchor="start" x="229" y="-103.5" font-family="Helvetica,sans-Serif" font-size="10.00">exif_mnote_data_olympus</text>
<text text-anchor="middle" x="294" y="-92.5" font-family="Helvetica,sans-Serif" font-size="10.00">_clear</text>
</a>
</g>
</g>
<!-- Node1&#45;&gt;Node10 -->
<g id="edge9_Node000001_Node000010" class="edge">
<title>Node1&#45;&gt;Node10</title>
<g id="a_edge9_Node000001_Node000010"><a xlink:title=" ">
<path fill="none" stroke="#63b8ff" d="M119.69,-151.53C144.15,-144 178.65,-133.46 209,-124.5 215.06,-122.71 221.37,-120.87 227.69,-119.04"/>
<polygon fill="#63b8ff" stroke="#63b8ff" points="228.19,-122.54 236.83,-116.4 226.25,-115.81 228.19,-122.54"/>
</a>
</g>
</g>
<!-- Node12 -->
<g id="Node000012" class="node">
<title>Node12</title>
<g id="a_Node000012"><a xlink:href="exif-mnote-data-olympus_8c.html#a2c0a03d9462fd2a2f2f0a3f7e017a858" target="_top" xlink:title=" ">
<polygon fill="white" stroke="#666666" points="367,-67.5 221,-67.5 221,-37.5 367,-37.5 367,-67.5"/>
<text text-anchor="start" x="229" y="-55.5" font-family="Helvetica,sans-Serif" font-size="10.00">exif_mnote_data_olympus</text>
<text text-anchor="middle" x="294" y="-44.5" font-family="Helvetica,sans-Serif" font-size="10.00">_identify_variant</text>
</a>
</g>
</g>
<!-- Node1&#45;&gt;Node12 -->
<g id="edge11_Node000001_Node000012" class="edge">
<title>Node1&#45;&gt;Node12</title>
<g id="a_edge11_Node000001_Node000012"><a xlink:title=" ">
<path fill="none" stroke="#63b8ff" d="M98.76,-151.66C119.3,-134.16 164.84,-97.53 209,-76.5 212.46,-74.85 216.05,-73.3 219.72,-71.83"/>
<polygon fill="#63b8ff" stroke="#63b8ff" points="220.64,-75.22 228.8,-68.46 218.2,-68.66 220.64,-75.22"/>
</a>
</g>
</g>
<!-- Node13 -->
<g id="Node000013" class="node">
<title>Node13</title>
<g id="a_Node000013"><a xlink:href="mnote-olympus-tag_8c.html#a0f6994e7cea9180cc2e5dafc56beb792" target="_top" xlink:title="Return a textual name of the given tag within the Olympus&#45;style MakerNote.">
<polygon fill="white" stroke="#666666" points="379,-19 209,-19 209,0 379,0 379,-19"/>
<text text-anchor="middle" x="294" y="-7" font-family="Helvetica,sans-Serif" font-size="10.00">mnote_olympus_tag_get_name</text>
</a>
</g>
</g>
<!-- Node1&#45;&gt;Node13 -->
<g id="edge12_Node000001_Node000013" class="edge">
<title>Node1&#45;&gt;Node13</title>
<g id="a_edge12_Node000001_Node000013"><a xlink:title=" ">
<path fill="none" stroke="#63b8ff" d="M93.45,-151.6C109,-126.62 153.57,-60.72 209,-28.5 212.17,-26.66 215.5,-25 218.93,-23.5"/>
<polygon fill="#63b8ff" stroke="#63b8ff" points="219.98,-26.84 228.07,-20 217.47,-20.31 219.98,-26.84"/>
</a>
</g>
</g>
<!-- Node4 -->
<g id="Node000004" class="node">
<title>Node4</title>
<g id="a_Node000004"><a xlink:href="exif-utils_8c.html#a56b96f076a13da6ed926e1ef29cb2dc3" target="_top" xlink:title="Retrieve an ExifSLong value from memory.">
<polygon fill="white" stroke="#666666" points="505,-264 417,-264 417,-245 505,-245 505,-264"/>
<text text-anchor="middle" x="461" y="-252" font-family="Helvetica,sans-Serif" font-size="10.00">exif_get_slong</text>
</a>
</g>
</g>
<!-- Node3&#45;&gt;Node4 -->
<g id="edge3_Node000003_Node000004" class="edge">
<title>Node3&#45;&gt;Node4</title>
<g id="a_edge3_Node000003_Node000004"><a xlink:title=" ">
<path fill="none" stroke="#63b8ff" d="M335.79,-254.5C356.67,-254.5 382.4,-254.5 405.01,-254.5"/>
<polygon fill="#63b8ff" stroke="#63b8ff" points="404.99,-258 414.99,-254.5 404.99,-251 404.99,-258"/>
</a>
</g>
</g>
<!-- Node6 -->
<g id="Node000006" class="node">
<title>Node6</title>
<g id="a_Node000006"><a xlink:href="exif-utils_8c.html#a6baf094a71392f9cea23ad633ec13c8b" target="_top" xlink:title="Retrieve an ExifSShort value from memory.">
<polygon fill="white" stroke="#666666" points="507,-227 415,-227 415,-208 507,-208 507,-227"/>
<text text-anchor="middle" x="461" y="-215" font-family="Helvetica,sans-Serif" font-size="10.00">exif_get_sshort</text>
</a>
</g>
</g>
<!-- Node5&#45;&gt;Node6 -->
<g id="edge5_Node000005_Node000006" class="edge">
<title>Node5&#45;&gt;Node6</title>
<g id="a_edge5_Node000005_Node000006"><a xlink:title=" ">
<path fill="none" stroke="#63b8ff" d="M337.49,-217.5C357.56,-217.5 381.81,-217.5 403.41,-217.5"/>
<polygon fill="#63b8ff" stroke="#63b8ff" points="403.25,-221 413.25,-217.5 403.25,-214 403.25,-221"/>
</a>
</g>
</g>
<!-- Node8 -->
<g id="Node000008" class="node">
<title>Node8</title>
<g id="a_Node000008"><a xlink:href="exif-log_8c.html#a99101b5ad01b2d82ce9d43c9e8534627" target="_top" xlink:title=" ">
<polygon fill="white" stroke="#666666" points="492,-190 430,-190 430,-171 492,-171 492,-190"/>
<text text-anchor="middle" x="461" y="-178" font-family="Helvetica,sans-Serif" font-size="10.00">exif_logv</text>
</a>
</g>
</g>
<!-- Node7&#45;&gt;Node8 -->
<g id="edge7_Node000007_Node000008" class="edge">
<title>Node7&#45;&gt;Node8</title>
<g id="a_edge7_Node000007_Node000008"><a xlink:title=" ">
<path fill="none" stroke="#63b8ff" d="M322.25,-180.5C348.35,-180.5 388.1,-180.5 418.21,-180.5"/>
<polygon fill="#63b8ff" stroke="#63b8ff" points="418.12,-184 428.12,-180.5 418.12,-177 418.12,-184"/>
</a>
</g>
</g>
<!-- Node11 -->
<g id="Node000011" class="node">
<title>Node11</title>
<g id="a_Node000011"><a xlink:href="exif-mem_8c.html#a43190b81b4b4bdb4ffb89bfb612051b1" target="_top" xlink:title=" ">
<polygon fill="white" stroke="#666666" points="506.5,-110 415.5,-110 415.5,-91 506.5,-91 506.5,-110"/>
<text text-anchor="middle" x="461" y="-98" font-family="Helvetica,sans-Serif" font-size="10.00">exif_mem_free</text>
</a>
</g>
</g>
<!-- Node10&#45;&gt;Node11 -->
<g id="edge10_Node000010_Node000011" class="edge">
<title>Node10&#45;&gt;Node11</title>
<g id="a_edge10_Node000010_Node000011"><a xlink:title=" ">
<path fill="none" stroke="#63b8ff" d="M367.37,-100.5C379.58,-100.5 392.09,-100.5 403.81,-100.5"/>
<polygon fill="#63b8ff" stroke="#63b8ff" points="403.71,-104 413.71,-100.5 403.71,-97 403.71,-104"/>
</a>
</g>
</g>
</g>
</svg>
