<?xml version="1.0" encoding="UTF-8" standalone="no"?>
<!DOCTYPE svg PUBLIC "-//W3C//DTD SVG 1.1//EN"
 "http://www.w3.org/Graphics/SVG/1.1/DTD/svg11.dtd">
<!-- Generated by graphviz version 7.0.1 (0)
 -->
<!-- Title: libexif/olympus/exif&#45;mnote&#45;data&#45;olympus.h Pages: 1 -->
<svg width="768pt" height="412pt"
 viewBox="0.00 0.00 767.50 412.00" xmlns="http://www.w3.org/2000/svg" xmlns:xlink="http://www.w3.org/1999/xlink">
<g id="graph0" class="graph" transform="scale(1 1) rotate(0) translate(4 408)">
<title>libexif/olympus/exif&#45;mnote&#45;data&#45;olympus.h</title>
<!-- Node1 -->
<g id="Node000001" class="node">
<title>Node1</title>
<g id="a_Node000001"><a xlink:title=" ">
<polygon fill="#999999" stroke="#666666" points="142,-404 10,-404 10,-374 142,-374 142,-404"/>
<text text-anchor="start" x="18" y="-392" font-family="Helvetica,sans-Serif" font-size="10.00">libexif/olympus/exif</text>
<text text-anchor="middle" x="76" y="-381" font-family="Helvetica,sans-Serif" font-size="10.00">&#45;mnote&#45;data&#45;olympus.h</text>
</a>
</g>
</g>
<!-- Node2 -->
<g id="Node000002" class="node">
<title>Node2</title>
<g id="a_Node000002"><a xlink:href="exif-mnote-data-priv_8h.html" target="_top" xlink:title=" ">
<polygon fill="white" stroke="#666666" points="207.5,-338 104.5,-338 104.5,-308 207.5,-308 207.5,-338"/>
<text text-anchor="start" x="112.5" y="-326" font-family="Helvetica,sans-Serif" font-size="10.00">libexif/exif&#45;mnote</text>
<text text-anchor="middle" x="156" y="-315" font-family="Helvetica,sans-Serif" font-size="10.00">&#45;data&#45;priv.h</text>
</a>
</g>
</g>
<!-- Node1&#45;&gt;Node2 -->
<g id="edge1_Node000001_Node000002" class="edge">
<title>Node1&#45;&gt;Node2</title>
<g id="a_edge1_Node000001_Node000002"><a xlink:title=" ">
<path fill="none" stroke="#63b8ff" d="M93.75,-373.8C104.14,-365.49 117.47,-354.83 129.12,-345.5"/>
<polygon fill="#63b8ff" stroke="#63b8ff" points="131.21,-348.31 136.84,-339.33 126.84,-342.84 131.21,-348.31"/>
</a>
</g>
</g>
<!-- Node5 -->
<g id="Node000005" class="node">
<title>Node5</title>
<g id="a_Node000005"><a xlink:href="exif-mem_8h.html" target="_top" xlink:title="Define the ExifMem data type and the associated functions.">
<polygon fill="white" stroke="#666666" points="445,-151 339,-151 339,-132 445,-132 445,-151"/>
<text text-anchor="middle" x="392" y="-139" font-family="Helvetica,sans-Serif" font-size="10.00">libexif/exif&#45;mem.h</text>
</a>
</g>
</g>
<!-- Node1&#45;&gt;Node5 -->
<g id="edge36_Node000001_Node000005" class="edge">
<title>Node1&#45;&gt;Node5</title>
<g id="a_edge36_Node000001_Node000005"><a xlink:title=" ">
<path fill="none" stroke="#63b8ff" d="M77.64,-373.76C79.97,-357.23 85.21,-329.49 96,-308 127.18,-245.9 135.89,-223.53 195,-187 234.85,-162.37 286.78,-151.32 327.31,-146.4"/>
<polygon fill="#63b8ff" stroke="#63b8ff" points="327.63,-149.88 337.18,-145.3 326.86,-142.93 327.63,-149.88"/>
</a>
</g>
</g>
<!-- Node7 -->
<g id="Node000007" class="node">
<title>Node7</title>
<g id="a_Node000007"><a xlink:href="exif-byte-order_8h.html" target="_top" xlink:title="Defines the ExifByteOrder enum and the associated functions.">
<polygon fill="white" stroke="#666666" points="179.5,-24.5 48.5,-24.5 48.5,-5.5 179.5,-5.5 179.5,-24.5"/>
<text text-anchor="middle" x="114" y="-12.5" font-family="Helvetica,sans-Serif" font-size="10.00">libexif/exif&#45;byte&#45;order.h</text>
</a>
</g>
</g>
<!-- Node1&#45;&gt;Node7 -->
<g id="edge16_Node000001_Node000007" class="edge">
<title>Node1&#45;&gt;Node7</title>
<g id="a_edge16_Node000001_Node000007"><a xlink:title=" ">
<path fill="none" stroke="#63b8ff" d="M60.62,-373.62C38.41,-351.21 0,-305.58 0,-258 0,-258 0,-258 0,-140.5 0,-89.51 52.67,-50.32 86.4,-30.44"/>
<polygon fill="#63b8ff" stroke="#63b8ff" points="87.89,-33.62 94.87,-25.65 84.44,-27.53 87.89,-33.62"/>
</a>
</g>
</g>
<!-- Node11 -->
<g id="Node000011" class="node">
<title>Node11</title>
<g id="a_Node000011"><a xlink:href="mnote-olympus-entry_8h.html" target="_top" xlink:title=" ">
<polygon fill="white" stroke="#666666" points="324.5,-96 197.5,-96 197.5,-66 324.5,-66 324.5,-96"/>
<text text-anchor="start" x="205.5" y="-84" font-family="Helvetica,sans-Serif" font-size="10.00">libexif/olympus/mnote</text>
<text text-anchor="middle" x="261" y="-73" font-family="Helvetica,sans-Serif" font-size="10.00">&#45;olympus&#45;entry.h</text>
</a>
</g>
</g>
<!-- Node1&#45;&gt;Node11 -->
<g id="edge12_Node000001_Node000011" class="edge">
<title>Node1&#45;&gt;Node11</title>
<g id="a_edge12_Node000001_Node000011"><a xlink:title=" ">
<path fill="none" stroke="#63b8ff" d="M68.85,-373.59C57.84,-350.02 38,-301.5 38,-258 38,-258 38,-258 38,-195.5 38,-127.54 121.29,-100.25 186.06,-89.31"/>
<polygon fill="#63b8ff" stroke="#63b8ff" points="186.27,-92.82 195.6,-87.81 185.18,-85.91 186.27,-92.82"/>
</a>
</g>
</g>
<!-- Node13 -->
<g id="Node000013" class="node">
<title>Node13</title>
<g id="a_Node000013"><a xlink:href="exif-data_8h.html" target="_top" xlink:title="Defines the ExifData type and the associated functions.">
<polygon fill="white" stroke="#666666" points="482,-332.5 380,-332.5 380,-313.5 482,-313.5 482,-332.5"/>
<text text-anchor="middle" x="431" y="-320.5" font-family="Helvetica,sans-Serif" font-size="10.00">libexif/exif&#45;data.h</text>
</a>
</g>
</g>
<!-- Node1&#45;&gt;Node13 -->
<g id="edge17_Node000001_Node000013" class="edge">
<title>Node1&#45;&gt;Node13</title>
<g id="a_edge17_Node000001_Node000013"><a xlink:title=" ">
<path fill="none" stroke="#63b8ff" d="M142.36,-376.04C207.77,-364.25 306.87,-346.38 370.26,-334.95"/>
<polygon fill="#63b8ff" stroke="#63b8ff" points="370.57,-338.45 379.79,-333.23 369.32,-331.56 370.57,-338.45"/>
</a>
</g>
</g>
<!-- Node3 -->
<g id="Node000003" class="node">
<title>Node3</title>
<g id="a_Node000003"><a xlink:href="exif-mnote-data_8h.html" target="_top" xlink:title="Handling EXIF MakerNote tags.">
<polygon fill="white" stroke="#666666" points="283.5,-272 180.5,-272 180.5,-242 283.5,-242 283.5,-272"/>
<text text-anchor="start" x="188.5" y="-260" font-family="Helvetica,sans-Serif" font-size="10.00">libexif/exif&#45;mnote</text>
<text text-anchor="middle" x="232" y="-249" font-family="Helvetica,sans-Serif" font-size="10.00">&#45;data.h</text>
</a>
</g>
</g>
<!-- Node2&#45;&gt;Node3 -->
<g id="edge2_Node000002_Node000003" class="edge">
<title>Node2&#45;&gt;Node3</title>
<g id="a_edge2_Node000002_Node000003"><a xlink:title=" ">
<path fill="none" stroke="#63b8ff" d="M172.87,-307.8C182.64,-299.57 195.14,-289.04 206.13,-279.78"/>
<polygon fill="#63b8ff" stroke="#63b8ff" points="208.37,-282.48 213.76,-273.36 203.86,-277.12 208.37,-282.48"/>
</a>
</g>
</g>
<!-- Node4 -->
<g id="Node000004" class="node">
<title>Node4</title>
<g id="a_Node000004"><a xlink:href="exif-log_8h.html" target="_top" xlink:title="Log message infrastructure.">
<polygon fill="white" stroke="#666666" points="298.5,-206 203.5,-206 203.5,-187 298.5,-187 298.5,-206"/>
<text text-anchor="middle" x="251" y="-194" font-family="Helvetica,sans-Serif" font-size="10.00">libexif/exif&#45;log.h</text>
</a>
</g>
</g>
<!-- Node2&#45;&gt;Node4 -->
<g id="edge11_Node000002_Node000004" class="edge">
<title>Node2&#45;&gt;Node4</title>
<g id="a_edge11_Node000002_Node000004"><a xlink:title=" ">
<path fill="none" stroke="#63b8ff" d="M155.42,-307.58C155.44,-290.37 157.86,-261.49 172,-242 182.04,-228.16 197.79,-218.05 212.59,-211"/>
<polygon fill="#63b8ff" stroke="#63b8ff" points="213.96,-214.22 221.71,-207.01 211.15,-207.81 213.96,-214.22"/>
</a>
</g>
</g>
<!-- Node2&#45;&gt;Node7 -->
<g id="edge10_Node000002_Node000007" class="edge">
<title>Node2&#45;&gt;Node7</title>
<g id="a_edge10_Node000002_Node000007"><a xlink:title=" ">
<path fill="none" stroke="#63b8ff" d="M147.7,-307.59C135.46,-284.93 114,-239.24 114,-197.5 114,-197.5 114,-197.5 114,-140.5 114,-103.67 114,-60.72 114,-36.11"/>
<polygon fill="#63b8ff" stroke="#63b8ff" points="117.5,-36.27 114,-26.27 110.5,-36.27 117.5,-36.27"/>
</a>
</g>
</g>
<!-- Node3&#45;&gt;Node4 -->
<g id="edge3_Node000003_Node000004" class="edge">
<title>Node3&#45;&gt;Node4</title>
<g id="a_edge3_Node000003_Node000004"><a xlink:title=" ">
<path fill="none" stroke="#63b8ff" d="M236.7,-241.54C239.09,-234.17 242.04,-225.1 244.63,-217.11"/>
<polygon fill="#63b8ff" stroke="#63b8ff" points="247.95,-218.21 247.71,-207.61 241.3,-216.04 247.95,-218.21"/>
</a>
</g>
</g>
<!-- Node4&#45;&gt;Node5 -->
<g id="edge4_Node000004_Node000005" class="edge">
<title>Node4&#45;&gt;Node5</title>
<g id="a_edge4_Node000004_Node000005"><a xlink:title=" ">
<path fill="none" stroke="#63b8ff" d="M274.92,-186.51C297.64,-177.97 332.05,-165.03 357.69,-155.4"/>
<polygon fill="#63b8ff" stroke="#63b8ff" points="358.89,-158.69 367.02,-151.89 356.43,-152.13 358.89,-158.69"/>
</a>
</g>
</g>
<!-- Node10 -->
<g id="Node000010" class="node">
<title>Node10</title>
<g id="a_Node000010"><a xlink:title=" ">
<polygon fill="#e0e0e0" stroke="#999999" points="279,-151 223,-151 223,-132 279,-132 279,-151"/>
<text text-anchor="middle" x="251" y="-139" font-family="Helvetica,sans-Serif" font-size="10.00">stdarg.h</text>
</a>
</g>
</g>
<!-- Node4&#45;&gt;Node10 -->
<g id="edge9_Node000004_Node000010" class="edge">
<title>Node4&#45;&gt;Node10</title>
<g id="a_edge9_Node000004_Node000010"><a xlink:title=" ">
<path fill="none" stroke="#63b8ff" d="M251,-186.75C251,-180.27 251,-171.16 251,-162.9"/>
<polygon fill="#63b8ff" stroke="#63b8ff" points="254.5,-162.96 251,-152.96 247.5,-162.96 254.5,-162.96"/>
</a>
</g>
</g>
<!-- Node6 -->
<g id="Node000006" class="node">
<title>Node6</title>
<g id="a_Node000006"><a xlink:href="exif-utils_8h.html" target="_top" xlink:title="EXIF data manipulation functions and types.">
<polygon fill="white" stroke="#666666" points="443.5,-90.5 342.5,-90.5 342.5,-71.5 443.5,-71.5 443.5,-90.5"/>
<text text-anchor="middle" x="393" y="-78.5" font-family="Helvetica,sans-Serif" font-size="10.00">libexif/exif&#45;utils.h</text>
</a>
</g>
</g>
<!-- Node5&#45;&gt;Node6 -->
<g id="edge5_Node000005_Node000006" class="edge">
<title>Node5&#45;&gt;Node6</title>
<g id="a_edge5_Node000005_Node000006"><a xlink:title=" ">
<path fill="none" stroke="#63b8ff" d="M392.15,-131.87C392.28,-124 392.49,-112.1 392.66,-101.89"/>
<polygon fill="#63b8ff" stroke="#63b8ff" points="396.15,-102.24 392.83,-92.18 389.16,-102.12 396.15,-102.24"/>
</a>
</g>
</g>
<!-- Node6&#45;&gt;Node7 -->
<g id="edge6_Node000006_Node000007" class="edge">
<title>Node6&#45;&gt;Node7</title>
<g id="a_edge6_Node000006_Node000007"><a xlink:title=" ">
<path fill="none" stroke="#63b8ff" d="M355.56,-71.06C348.4,-69.37 340.97,-67.62 334,-66 276.09,-52.55 209.51,-37.47 164.9,-27.42"/>
<polygon fill="#63b8ff" stroke="#63b8ff" points="165.77,-24.03 155.25,-25.25 164.23,-30.86 165.77,-24.03"/>
</a>
</g>
</g>
<!-- Node8 -->
<g id="Node000008" class="node">
<title>Node8</title>
<g id="a_Node000008"><a xlink:href="exif-format_8h.html" target="_top" xlink:title="Handling native EXIF data types.">
<polygon fill="white" stroke="#666666" points="566.5,-24.5 453.5,-24.5 453.5,-5.5 566.5,-5.5 566.5,-24.5"/>
<text text-anchor="middle" x="510" y="-12.5" font-family="Helvetica,sans-Serif" font-size="10.00">libexif/exif&#45;format.h</text>
</a>
</g>
</g>
<!-- Node6&#45;&gt;Node8 -->
<g id="edge7_Node000006_Node000008" class="edge">
<title>Node6&#45;&gt;Node8</title>
<g id="a_edge7_Node000006_Node000008"><a xlink:title=" ">
<path fill="none" stroke="#63b8ff" d="M409.27,-71.1C428.57,-60.55 460.99,-42.81 483.83,-30.32"/>
<polygon fill="#63b8ff" stroke="#63b8ff" points="485.45,-33.42 492.54,-25.55 482.09,-27.28 485.45,-33.42"/>
</a>
</g>
</g>
<!-- Node9 -->
<g id="Node000009" class="node">
<title>Node9</title>
<g id="a_Node000009"><a xlink:title=" ">
<polygon fill="#e0e0e0" stroke="#999999" points="435,-24.5 343,-24.5 343,-5.5 435,-5.5 435,-24.5"/>
<text text-anchor="middle" x="389" y="-12.5" font-family="Helvetica,sans-Serif" font-size="10.00">libexif/_stdint.h</text>
</a>
</g>
</g>
<!-- Node6&#45;&gt;Node9 -->
<g id="edge8_Node000006_Node000009" class="edge">
<title>Node6&#45;&gt;Node9</title>
<g id="a_edge8_Node000006_Node000009"><a xlink:title=" ">
<path fill="none" stroke="#63b8ff" d="M392.44,-71.1C391.88,-62.12 391,-47.95 390.26,-36.22"/>
<polygon fill="#63b8ff" stroke="#63b8ff" points="393.76,-36.1 389.65,-26.33 386.78,-36.53 393.76,-36.1"/>
</a>
</g>
</g>
<!-- Node11&#45;&gt;Node7 -->
<g id="edge14_Node000011_Node000007" class="edge">
<title>Node11&#45;&gt;Node7</title>
<g id="a_edge14_Node000011_Node000007"><a xlink:title=" ">
<path fill="none" stroke="#63b8ff" d="M228.01,-65.64C203.2,-54.83 169.43,-40.13 145.09,-29.54"/>
<polygon fill="#63b8ff" stroke="#63b8ff" points="146.59,-26.37 136.03,-25.59 143.8,-32.79 146.59,-26.37"/>
</a>
</g>
</g>
<!-- Node11&#45;&gt;Node8 -->
<g id="edge13_Node000011_Node000008" class="edge">
<title>Node11&#45;&gt;Node8</title>
<g id="a_edge13_Node000011_Node000008"><a xlink:title=" ">
<path fill="none" stroke="#63b8ff" d="M317.19,-65.56C361.51,-54.17 422.55,-38.48 463.99,-27.83"/>
<polygon fill="#63b8ff" stroke="#63b8ff" points="464.85,-31.22 473.66,-25.34 463.11,-24.44 464.85,-31.22"/>
</a>
</g>
</g>
<!-- Node12 -->
<g id="Node000012" class="node">
<title>Node12</title>
<g id="a_Node000012"><a xlink:href="mnote-olympus-tag_8h.html" target="_top" xlink:title=" ">
<polygon fill="white" stroke="#666666" points="324.5,-30 197.5,-30 197.5,0 324.5,0 324.5,-30"/>
<text text-anchor="start" x="205.5" y="-18" font-family="Helvetica,sans-Serif" font-size="10.00">libexif/olympus/mnote</text>
<text text-anchor="middle" x="261" y="-7" font-family="Helvetica,sans-Serif" font-size="10.00">&#45;olympus&#45;tag.h</text>
</a>
</g>
</g>
<!-- Node11&#45;&gt;Node12 -->
<g id="edge15_Node000011_Node000012" class="edge">
<title>Node11&#45;&gt;Node12</title>
<g id="a_edge15_Node000011_Node000012"><a xlink:title=" ">
<path fill="none" stroke="#63b8ff" d="M261,-65.8C261,-58.67 261,-49.82 261,-41.56"/>
<polygon fill="#63b8ff" stroke="#63b8ff" points="264.5,-41.68 261,-31.68 257.5,-41.68 264.5,-41.68"/>
</a>
</g>
</g>
<!-- Node13&#45;&gt;Node3 -->
<g id="edge34_Node000013_Node000003" class="edge">
<title>Node13&#45;&gt;Node3</title>
<g id="a_edge34_Node000013_Node000003"><a xlink:title=" ">
<path fill="none" stroke="#63b8ff" d="M403.33,-313.1C373.59,-303.54 325.51,-288.07 287.84,-275.96"/>
<polygon fill="#63b8ff" stroke="#63b8ff" points="289.05,-272.67 278.46,-272.94 286.91,-279.33 289.05,-272.67"/>
</a>
</g>
</g>
<!-- Node13&#45;&gt;Node4 -->
<g id="edge21_Node000013_Node000004" class="edge">
<title>Node13&#45;&gt;Node4</title>
<g id="a_edge21_Node000013_Node000004"><a xlink:title=" ">
<path fill="none" stroke="#63b8ff" d="M410.94,-313.13C391.16,-304.01 360.42,-288.78 336,-272 310.35,-254.37 283.85,-229.99 267.4,-213.98"/>
<polygon fill="#63b8ff" stroke="#63b8ff" points="270.02,-211.65 260.45,-207.12 265.1,-216.63 270.02,-211.65"/>
</a>
</g>
</g>
<!-- Node13&#45;&gt;Node5 -->
<g id="edge35_Node000013_Node000005" class="edge">
<title>Node13&#45;&gt;Node5</title>
<g id="a_edge35_Node000013_Node000005"><a xlink:title=" ">
<path fill="none" stroke="#63b8ff" d="M425.88,-313.11C420.52,-303.35 412.29,-287.07 408,-272 397.29,-234.35 393.75,-188.52 392.58,-162.71"/>
<polygon fill="#63b8ff" stroke="#63b8ff" points="396.09,-162.86 392.22,-152.99 389.09,-163.11 396.09,-162.86"/>
</a>
</g>
</g>
<!-- Node13&#45;&gt;Node7 -->
<g id="edge18_Node000013_Node000007" class="edge">
<title>Node13&#45;&gt;Node7</title>
<g id="a_edge18_Node000013_Node000007"><a xlink:title=" ">
<path fill="none" stroke="#63b8ff" d="M424.74,-313.08C399.58,-277.31 306.33,-145.57 288,-132 250.37,-104.15 228.08,-121.78 189,-96 163.51,-79.18 140.52,-52.03 126.9,-34.1"/>
<polygon fill="#63b8ff" stroke="#63b8ff" points="129.83,-32.17 121.08,-26.2 124.19,-36.33 129.83,-32.17"/>
</a>
</g>
</g>
<!-- Node14 -->
<g id="Node000014" class="node">
<title>Node14</title>
<g id="a_Node000014"><a xlink:href="exif-data-type_8h.html" target="_top" xlink:title=" ">
<polygon fill="white" stroke="#666666" points="645,-151 517,-151 517,-132 645,-132 645,-151"/>
<text text-anchor="middle" x="581" y="-139" font-family="Helvetica,sans-Serif" font-size="10.00">libexif/exif&#45;data&#45;type.h</text>
</a>
</g>
</g>
<!-- Node13&#45;&gt;Node14 -->
<g id="edge19_Node000013_Node000014" class="edge">
<title>Node13&#45;&gt;Node14</title>
<g id="a_edge19_Node000013_Node000014"><a xlink:title=" ">
<path fill="none" stroke="#63b8ff" d="M471.36,-313.07C495.31,-305.8 524.5,-293.17 543,-272 570.42,-240.62 578.08,-190.35 580.2,-162.57"/>
<polygon fill="#63b8ff" stroke="#63b8ff" points="583.69,-162.93 580.77,-152.74 576.7,-162.53 583.69,-162.93"/>
</a>
</g>
</g>
<!-- Node15 -->
<g id="Node000015" class="node">
<title>Node15</title>
<g id="a_Node000015"><a xlink:href="exif-ifd_8h.html" target="_top" xlink:title=" ">
<polygon fill="white" stroke="#666666" points="759.5,-151 666.5,-151 666.5,-132 759.5,-132 759.5,-151"/>
<text text-anchor="middle" x="713" y="-139" font-family="Helvetica,sans-Serif" font-size="10.00">libexif/exif&#45;ifd.h</text>
</a>
</g>
</g>
<!-- Node13&#45;&gt;Node15 -->
<g id="edge20_Node000013_Node000015" class="edge">
<title>Node13&#45;&gt;Node15</title>
<g id="a_edge20_Node000013_Node000015"><a xlink:title=" ">
<path fill="none" stroke="#63b8ff" d="M479.09,-313.08C515.22,-305.24 565.28,-291.95 606,-272 650.54,-250.18 668,-246.94 696,-206 704.79,-193.15 709.04,-175.97 711.09,-162.71"/>
<polygon fill="#63b8ff" stroke="#63b8ff" points="714.54,-163.34 712.28,-152.99 707.59,-162.49 714.54,-163.34"/>
</a>
</g>
</g>
<!-- Node16 -->
<g id="Node000016" class="node">
<title>Node16</title>
<g id="a_Node000016"><a xlink:href="exif-tag_8h.html" target="_top" xlink:title="Handling EXIF tags.">
<polygon fill="white" stroke="#666666" points="687,-206 591,-206 591,-187 687,-187 687,-206"/>
<text text-anchor="middle" x="639" y="-194" font-family="Helvetica,sans-Serif" font-size="10.00">libexif/exif&#45;tag.h</text>
</a>
</g>
</g>
<!-- Node13&#45;&gt;Node16 -->
<g id="edge22_Node000013_Node000016" class="edge">
<title>Node13&#45;&gt;Node16</title>
<g id="a_edge22_Node000013_Node000016"><a xlink:title=" ">
<path fill="none" stroke="#63b8ff" d="M477.05,-313.05C507.38,-305.59 546.89,-292.75 577,-272 598.8,-256.98 617.23,-232.28 628.19,-215.47"/>
<polygon fill="#63b8ff" stroke="#63b8ff" points="630.86,-217.8 633.21,-207.47 624.93,-214.08 630.86,-217.8"/>
</a>
</g>
</g>
<!-- Node17 -->
<g id="Node000017" class="node">
<title>Node17</title>
<g id="a_Node000017"><a xlink:href="exif-content_8h.html" target="_top" xlink:title="Handling EXIF IFDs.">
<polygon fill="white" stroke="#666666" points="533.5,-266.5 416.5,-266.5 416.5,-247.5 533.5,-247.5 533.5,-266.5"/>
<text text-anchor="middle" x="475" y="-254.5" font-family="Helvetica,sans-Serif" font-size="10.00">libexif/exif&#45;content.h</text>
</a>
</g>
</g>
<!-- Node13&#45;&gt;Node17 -->
<g id="edge25_Node000013_Node000017" class="edge">
<title>Node13&#45;&gt;Node17</title>
<g id="a_edge25_Node000013_Node000017"><a xlink:title=" ">
<path fill="none" stroke="#63b8ff" d="M432.27,-313.1C436.9,-303.45 447.23,-287.81 456.76,-275.65"/>
<polygon fill="#63b8ff" stroke="#63b8ff" points="459.43,-277.91 463.14,-267.99 454.05,-273.43 459.43,-277.91"/>
</a>
</g>
</g>
<!-- Node16&#45;&gt;Node14 -->
<g id="edge24_Node000016_Node000014" class="edge">
<title>Node16&#45;&gt;Node14</title>
<g id="a_edge24_Node000016_Node000014"><a xlink:title=" ">
<path fill="none" stroke="#63b8ff" d="M629.16,-186.51C620.95,-179 609.02,-168.1 599.09,-159.03"/>
<polygon fill="#63b8ff" stroke="#63b8ff" points="601.55,-156.54 591.81,-152.38 596.83,-161.71 601.55,-156.54"/>
</a>
</g>
</g>
<!-- Node16&#45;&gt;Node15 -->
<g id="edge23_Node000016_Node000015" class="edge">
<title>Node16&#45;&gt;Node15</title>
<g id="a_edge23_Node000016_Node000015"><a xlink:title=" ">
<path fill="none" stroke="#63b8ff" d="M651.55,-186.51C662.46,-178.7 678.5,-167.21 691.46,-157.93"/>
<polygon fill="#63b8ff" stroke="#63b8ff" points="693.31,-160.91 699.4,-152.24 689.23,-155.22 693.31,-160.91"/>
</a>
</g>
</g>
<!-- Node17&#45;&gt;Node4 -->
<g id="edge32_Node000017_Node000004" class="edge">
<title>Node17&#45;&gt;Node4</title>
<g id="a_edge32_Node000017_Node000004"><a xlink:title=" ">
<path fill="none" stroke="#63b8ff" d="M440.98,-247.12C402.33,-237.02 339.09,-220.51 296.29,-209.33"/>
<polygon fill="#63b8ff" stroke="#63b8ff" points="297.37,-205.99 286.81,-206.85 295.6,-212.76 297.37,-205.99"/>
</a>
</g>
</g>
<!-- Node17&#45;&gt;Node5 -->
<g id="edge33_Node000017_Node000005" class="edge">
<title>Node17&#45;&gt;Node5</title>
<g id="a_edge33_Node000017_Node000005"><a xlink:title=" ">
<path fill="none" stroke="#63b8ff" d="M463.25,-247.09C451.62,-237.82 433.89,-222.38 422,-206 412.13,-192.4 404.19,-175.04 398.97,-161.91"/>
<polygon fill="#63b8ff" stroke="#63b8ff" points="402.29,-160.81 395.49,-152.69 395.74,-163.28 402.29,-160.81"/>
</a>
</g>
</g>
<!-- Node17&#45;&gt;Node13 -->
<g id="edge31_Node000017_Node000013" class="edge">
<title>Node17&#45;&gt;Node13</title>
<g id="a_edge31_Node000017_Node000013"><a xlink:title=" ">
<path fill="none" stroke="#63b8ff" d="M473.76,-266.82C469.17,-276.44 458.84,-292.08 449.31,-304.26"/>
<polygon fill="#63b8ff" stroke="#63b8ff" points="446.63,-302.01 442.93,-311.94 452.01,-306.48 446.63,-302.01"/>
</a>
</g>
</g>
<!-- Node17&#45;&gt;Node16 -->
<g id="edge26_Node000017_Node000016" class="edge">
<title>Node17&#45;&gt;Node16</title>
<g id="a_edge26_Node000017_Node000016"><a xlink:title=" ">
<path fill="none" stroke="#63b8ff" d="M499.91,-247.12C527.48,-237.28 572.15,-221.34 603.41,-210.19"/>
<polygon fill="#63b8ff" stroke="#63b8ff" points="604.19,-213.63 612.43,-206.98 601.84,-207.04 604.19,-213.63"/>
</a>
</g>
</g>
<!-- Node18 -->
<g id="Node000018" class="node">
<title>Node18</title>
<g id="a_Node000018"><a xlink:href="exif-entry_8h.html" target="_top" xlink:title="Handling EXIF entries.">
<polygon fill="white" stroke="#666666" points="535,-206 431,-206 431,-187 535,-187 535,-206"/>
<text text-anchor="middle" x="483" y="-194" font-family="Helvetica,sans-Serif" font-size="10.00">libexif/exif&#45;entry.h</text>
</a>
</g>
</g>
<!-- Node17&#45;&gt;Node18 -->
<g id="edge27_Node000017_Node000018" class="edge">
<title>Node17&#45;&gt;Node18</title>
<g id="a_edge27_Node000017_Node000018"><a xlink:title=" ">
<path fill="none" stroke="#63b8ff" d="M471.23,-247.37C470.59,-239.42 471.76,-227.33 473.92,-217.05"/>
<polygon fill="#63b8ff" stroke="#63b8ff" points="477.23,-218.2 476.46,-207.63 470.48,-216.37 477.23,-218.2"/>
</a>
</g>
</g>
<!-- Node18&#45;&gt;Node5 -->
<g id="edge30_Node000018_Node000005" class="edge">
<title>Node18&#45;&gt;Node5</title>
<g id="a_edge30_Node000018_Node000005"><a xlink:title=" ">
<path fill="none" stroke="#63b8ff" d="M467.56,-186.51C453.75,-178.47 433.25,-166.53 417.09,-157.11"/>
<polygon fill="#63b8ff" stroke="#63b8ff" points="418.92,-154.13 408.52,-152.12 415.4,-160.18 418.92,-154.13"/>
</a>
</g>
</g>
<!-- Node18&#45;&gt;Node8 -->
<g id="edge29_Node000018_Node000008" class="edge">
<title>Node18&#45;&gt;Node8</title>
<g id="a_edge29_Node000018_Node000008"><a xlink:title=" ">
<path fill="none" stroke="#63b8ff" d="M484.3,-186.84C488.4,-159.6 501.1,-75.15 506.97,-36.13"/>
<polygon fill="#63b8ff" stroke="#63b8ff" points="510.4,-36.9 508.42,-26.49 503.47,-35.86 510.4,-36.9"/>
</a>
</g>
</g>
<!-- Node18&#45;&gt;Node17 -->
<g id="edge28_Node000018_Node000017" class="edge">
<title>Node18&#45;&gt;Node17</title>
<g id="a_edge28_Node000018_Node000017"><a xlink:title=" ">
<path fill="none" stroke="#63b8ff" d="M486.78,-206.17C487.4,-214.13 486.23,-226.22 484.07,-236.49"/>
<polygon fill="#63b8ff" stroke="#63b8ff" points="480.76,-235.34 481.53,-245.91 487.52,-237.17 480.76,-235.34"/>
</a>
</g>
</g>
</g>
</svg>
