<?xml version="1.0" encoding="UTF-8" standalone="no"?>
<!DOCTYPE svg PUBLIC "-//W3C//DTD SVG 1.1//EN"
 "http://www.w3.org/Graphics/SVG/1.1/DTD/svg11.dtd">
<!-- Generated by graphviz version 2.44.1 (0)
 -->
<!-- Title: libexif/fuji/exif&#45;mnote&#45;data&#45;fuji.h Pages: 1 -->
<svg width="702pt" height="531pt"
 viewBox="0.00 0.00 702.00 531.00" xmlns="http://www.w3.org/2000/svg" xmlns:xlink="http://www.w3.org/1999/xlink">
<g id="graph0" class="graph" transform="scale(1 1) rotate(0) translate(4 527)">
<title>libexif/fuji/exif&#45;mnote&#45;data&#45;fuji.h</title>
<polygon fill="white" stroke="transparent" points="-4,4 -4,-527 698,-527 698,4 -4,4"/>
<!-- Node1 -->
<g id="node1" class="node">
<title>Node1</title>
<g id="a_node1"><a xlink:title=" ">
<polygon fill="#bfbfbf" stroke="black" points="153,-492.5 153,-522.5 275,-522.5 275,-492.5 153,-492.5"/>
<text text-anchor="start" x="161" y="-510.5" font-family="Helvetica,sans-Serif" font-size="10.00">libexif/fuji/exif&#45;mnote</text>
<text text-anchor="middle" x="214" y="-499.5" font-family="Helvetica,sans-Serif" font-size="10.00">&#45;data&#45;fuji.h</text>
</a>
</g>
</g>
<!-- Node2 -->
<g id="node2" class="node">
<title>Node2</title>
<g id="a_node2"><a xlink:href="exif-mnote-data_8h.html" target="_top" xlink:title="Handling EXIF MakerNote tags.">
<polygon fill="white" stroke="black" points="66.5,-224.5 66.5,-254.5 169.5,-254.5 169.5,-224.5 66.5,-224.5"/>
<text text-anchor="start" x="74.5" y="-242.5" font-family="Helvetica,sans-Serif" font-size="10.00">libexif/exif&#45;mnote</text>
<text text-anchor="middle" x="118" y="-231.5" font-family="Helvetica,sans-Serif" font-size="10.00">&#45;data.h</text>
</a>
</g>
</g>
<!-- Node1&#45;&gt;Node2 -->
<g id="edge1" class="edge">
<title>Node1&#45;&gt;Node2</title>
<path fill="none" stroke="midnightblue" d="M208.84,-492.2C193.18,-448.8 146.07,-318.27 126.58,-264.28"/>
<polygon fill="midnightblue" stroke="midnightblue" points="129.76,-262.77 123.07,-254.55 123.17,-265.14 129.76,-262.77"/>
</g>
<!-- Node10 -->
<g id="node10" class="node">
<title>Node10</title>
<g id="a_node10"><a xlink:href="exif-mnote-data-priv_8h.html" target="_top" xlink:title=" ">
<polygon fill="white" stroke="black" points="15.5,-291.5 15.5,-321.5 118.5,-321.5 118.5,-291.5 15.5,-291.5"/>
<text text-anchor="start" x="23.5" y="-309.5" font-family="Helvetica,sans-Serif" font-size="10.00">libexif/exif&#45;mnote</text>
<text text-anchor="middle" x="67" y="-298.5" font-family="Helvetica,sans-Serif" font-size="10.00">&#45;data&#45;priv.h</text>
</a>
</g>
</g>
<!-- Node1&#45;&gt;Node10 -->
<g id="edge9" class="edge">
<title>Node1&#45;&gt;Node10</title>
<path fill="none" stroke="midnightblue" d="M188.34,-492.45C173.69,-483.47 155.76,-470.76 143,-456 109.99,-417.81 86.7,-362.79 75.2,-331.55"/>
<polygon fill="midnightblue" stroke="midnightblue" points="78.42,-330.17 71.75,-321.93 71.83,-332.53 78.42,-330.17"/>
</g>
<!-- Node11 -->
<g id="node11" class="node">
<title>Node11</title>
<g id="a_node11"><a xlink:href="exif-data_8h.html" target="_top" xlink:title="Defines the ExifData type and the associated functions.">
<polygon fill="white" stroke="black" points="242,-297 242,-316 344,-316 344,-297 242,-297"/>
<text text-anchor="middle" x="293" y="-304" font-family="Helvetica,sans-Serif" font-size="10.00">libexif/exif&#45;data.h</text>
</a>
</g>
</g>
<!-- Node1&#45;&gt;Node11 -->
<g id="edge13" class="edge">
<title>Node1&#45;&gt;Node11</title>
<path fill="none" stroke="midnightblue" d="M212.71,-492.39C210.83,-464.75 209.88,-402.33 234,-358 242.09,-343.13 256.43,-330.7 268.95,-321.9"/>
<polygon fill="midnightblue" stroke="midnightblue" points="271.23,-324.58 277.63,-316.14 267.36,-318.75 271.23,-324.58"/>
</g>
<!-- Node17 -->
<g id="node17" class="node">
<title>Node17</title>
<g id="a_node17"><a xlink:href="mnote-fuji-entry_8h.html" target="_top" xlink:title=" ">
<polygon fill="white" stroke="black" points="242.5,-425.5 242.5,-455.5 343.5,-455.5 343.5,-425.5 242.5,-425.5"/>
<text text-anchor="start" x="250.5" y="-443.5" font-family="Helvetica,sans-Serif" font-size="10.00">libexif/fuji/mnote</text>
<text text-anchor="middle" x="293" y="-432.5" font-family="Helvetica,sans-Serif" font-size="10.00">&#45;fuji&#45;entry.h</text>
</a>
</g>
</g>
<!-- Node1&#45;&gt;Node17 -->
<g id="edge32" class="edge">
<title>Node1&#45;&gt;Node17</title>
<path fill="none" stroke="midnightblue" d="M225.46,-492.4C235.16,-483.45 249.19,-471.74 262.02,-461.8"/>
<polygon fill="midnightblue" stroke="midnightblue" points="264.37,-464.41 270.22,-455.58 260.14,-458.84 264.37,-464.41"/>
</g>
<!-- Node3 -->
<g id="node3" class="node">
<title>Node3</title>
<g id="a_node3"><a xlink:href="exif-log_8h.html" target="_top" xlink:title="Log message infrastructure.">
<polygon fill="white" stroke="black" points="112.5,-168.5 112.5,-187.5 207.5,-187.5 207.5,-168.5 112.5,-168.5"/>
<text text-anchor="middle" x="160" y="-175.5" font-family="Helvetica,sans-Serif" font-size="10.00">libexif/exif&#45;log.h</text>
</a>
</g>
</g>
<!-- Node2&#45;&gt;Node3 -->
<g id="edge2" class="edge">
<title>Node2&#45;&gt;Node3</title>
<path fill="none" stroke="midnightblue" d="M127.95,-224.4C133.99,-215.84 141.74,-204.87 148.1,-195.86"/>
<polygon fill="midnightblue" stroke="midnightblue" points="150.98,-197.85 153.89,-187.66 145.26,-193.81 150.98,-197.85"/>
</g>
<!-- Node4 -->
<g id="node4" class="node">
<title>Node4</title>
<g id="a_node4"><a xlink:href="exif-mem_8h.html" target="_top" xlink:title="Define the ExifMem data type and the associated functions.">
<polygon fill="white" stroke="black" points="264,-112.5 264,-131.5 370,-131.5 370,-112.5 264,-112.5"/>
<text text-anchor="middle" x="317" y="-119.5" font-family="Helvetica,sans-Serif" font-size="10.00">libexif/exif&#45;mem.h</text>
</a>
</g>
</g>
<!-- Node3&#45;&gt;Node4 -->
<g id="edge3" class="edge">
<title>Node3&#45;&gt;Node4</title>
<path fill="none" stroke="midnightblue" d="M184.88,-168.44C211.29,-159.36 253.22,-144.94 282.74,-134.78"/>
<polygon fill="midnightblue" stroke="midnightblue" points="283.92,-138.08 292.24,-131.52 281.64,-131.46 283.92,-138.08"/>
</g>
<!-- Node9 -->
<g id="node9" class="node">
<title>Node9</title>
<g id="a_node9"><a xlink:title=" ">
<polygon fill="white" stroke="#bfbfbf" points="132,-112.5 132,-131.5 188,-131.5 188,-112.5 132,-112.5"/>
<text text-anchor="middle" x="160" y="-119.5" font-family="Helvetica,sans-Serif" font-size="10.00">stdarg.h</text>
</a>
</g>
</g>
<!-- Node3&#45;&gt;Node9 -->
<g id="edge8" class="edge">
<title>Node3&#45;&gt;Node9</title>
<path fill="none" stroke="midnightblue" d="M160,-168.08C160,-161.01 160,-150.86 160,-141.99"/>
<polygon fill="midnightblue" stroke="midnightblue" points="163.5,-141.75 160,-131.75 156.5,-141.75 163.5,-141.75"/>
</g>
<!-- Node5 -->
<g id="node5" class="node">
<title>Node5</title>
<g id="a_node5"><a xlink:href="exif-utils_8h.html" target="_top" xlink:title="EXIF data manipulation functions and types.">
<polygon fill="white" stroke="black" points="278.5,-56.5 278.5,-75.5 379.5,-75.5 379.5,-56.5 278.5,-56.5"/>
<text text-anchor="middle" x="329" y="-63.5" font-family="Helvetica,sans-Serif" font-size="10.00">libexif/exif&#45;utils.h</text>
</a>
</g>
</g>
<!-- Node4&#45;&gt;Node5 -->
<g id="edge4" class="edge">
<title>Node4&#45;&gt;Node5</title>
<path fill="none" stroke="midnightblue" d="M318.98,-112.08C320.57,-104.93 322.86,-94.64 324.85,-85.69"/>
<polygon fill="midnightblue" stroke="midnightblue" points="328.3,-86.27 327.06,-75.75 321.47,-84.75 328.3,-86.27"/>
</g>
<!-- Node6 -->
<g id="node6" class="node">
<title>Node6</title>
<g id="a_node6"><a xlink:href="exif-byte-order_8h.html" target="_top" xlink:title="Defines the ExifByteOrder enum and the associated functions.">
<polygon fill="white" stroke="black" points="146.5,-0.5 146.5,-19.5 277.5,-19.5 277.5,-0.5 146.5,-0.5"/>
<text text-anchor="middle" x="212" y="-7.5" font-family="Helvetica,sans-Serif" font-size="10.00">libexif/exif&#45;byte&#45;order.h</text>
</a>
</g>
</g>
<!-- Node5&#45;&gt;Node6 -->
<g id="edge5" class="edge">
<title>Node5&#45;&gt;Node6</title>
<path fill="none" stroke="midnightblue" d="M310.46,-56.44C291.38,-47.64 261.43,-33.81 239.56,-23.72"/>
<polygon fill="midnightblue" stroke="midnightblue" points="241,-20.53 230.45,-19.52 238.07,-26.88 241,-20.53"/>
</g>
<!-- Node7 -->
<g id="node7" class="node">
<title>Node7</title>
<g id="a_node7"><a xlink:href="exif-format_8h.html" target="_top" xlink:title="Handling native EXIF data types.">
<polygon fill="white" stroke="black" points="487.5,-0.5 487.5,-19.5 600.5,-19.5 600.5,-0.5 487.5,-0.5"/>
<text text-anchor="middle" x="544" y="-7.5" font-family="Helvetica,sans-Serif" font-size="10.00">libexif/exif&#45;format.h</text>
</a>
</g>
</g>
<!-- Node5&#45;&gt;Node7 -->
<g id="edge6" class="edge">
<title>Node5&#45;&gt;Node7</title>
<path fill="none" stroke="midnightblue" d="M363.07,-56.44C400.18,-47.12 459.66,-32.18 500.21,-22"/>
<polygon fill="midnightblue" stroke="midnightblue" points="501.25,-25.35 510.09,-19.52 499.54,-18.56 501.25,-25.35"/>
</g>
<!-- Node8 -->
<g id="node8" class="node">
<title>Node8</title>
<g id="a_node8"><a xlink:title=" ">
<polygon fill="white" stroke="#bfbfbf" points="296,-0.5 296,-19.5 388,-19.5 388,-0.5 296,-0.5"/>
<text text-anchor="middle" x="342" y="-7.5" font-family="Helvetica,sans-Serif" font-size="10.00">libexif/_stdint.h</text>
</a>
</g>
</g>
<!-- Node5&#45;&gt;Node8 -->
<g id="edge7" class="edge">
<title>Node5&#45;&gt;Node8</title>
<path fill="none" stroke="midnightblue" d="M331.15,-56.08C332.87,-48.93 335.35,-38.64 337.5,-29.69"/>
<polygon fill="midnightblue" stroke="midnightblue" points="340.96,-30.29 339.89,-19.75 334.15,-28.65 340.96,-30.29"/>
</g>
<!-- Node10&#45;&gt;Node2 -->
<g id="edge10" class="edge">
<title>Node10&#45;&gt;Node2</title>
<path fill="none" stroke="midnightblue" d="M78.07,-291.4C84.68,-282.96 93.23,-272.07 100.72,-262.52"/>
<polygon fill="midnightblue" stroke="midnightblue" points="103.54,-264.6 106.96,-254.58 98.03,-260.28 103.54,-264.6"/>
</g>
<!-- Node10&#45;&gt;Node3 -->
<g id="edge12" class="edge">
<title>Node10&#45;&gt;Node3</title>
<path fill="none" stroke="midnightblue" d="M60.01,-291.26C52.6,-273.91 43.65,-244.4 57,-224 67.5,-207.95 85.13,-197.59 102.85,-190.92"/>
<polygon fill="midnightblue" stroke="midnightblue" points="104.33,-194.11 112.67,-187.58 102.07,-187.49 104.33,-194.11"/>
</g>
<!-- Node10&#45;&gt;Node6 -->
<g id="edge11" class="edge">
<title>Node10&#45;&gt;Node6</title>
<path fill="none" stroke="midnightblue" d="M53.44,-291.24C33.86,-269.09 0,-224.23 0,-179 0,-179 0,-179 0,-121 0,-57.66 75.47,-30.75 136.36,-19.34"/>
<polygon fill="midnightblue" stroke="midnightblue" points="137.13,-22.76 146.37,-17.57 135.92,-15.86 137.13,-22.76"/>
</g>
<!-- Node11&#45;&gt;Node2 -->
<g id="edge30" class="edge">
<title>Node11&#45;&gt;Node2</title>
<path fill="none" stroke="midnightblue" d="M269.76,-296.87C243.27,-287.03 199.28,-270.69 165.46,-258.13"/>
<polygon fill="midnightblue" stroke="midnightblue" points="166.36,-254.73 155.77,-254.53 163.92,-261.29 166.36,-254.73"/>
</g>
<!-- Node11&#45;&gt;Node3 -->
<g id="edge17" class="edge">
<title>Node11&#45;&gt;Node3</title>
<path fill="none" stroke="midnightblue" d="M278.55,-296.85C263.57,-287.52 239.89,-271.75 222,-255 202.46,-236.71 183.55,-212.24 171.85,-196.06"/>
<polygon fill="midnightblue" stroke="midnightblue" points="174.49,-193.74 165.85,-187.61 168.79,-197.79 174.49,-193.74"/>
</g>
<!-- Node11&#45;&gt;Node4 -->
<g id="edge31" class="edge">
<title>Node11&#45;&gt;Node4</title>
<path fill="none" stroke="midnightblue" d="M292.26,-297C290.58,-275.22 287.41,-215.81 298,-168 300.06,-158.69 303.98,-148.87 307.73,-140.79"/>
<polygon fill="midnightblue" stroke="midnightblue" points="310.95,-142.17 312.23,-131.65 304.67,-139.07 310.95,-142.17"/>
</g>
<!-- Node11&#45;&gt;Node6 -->
<g id="edge14" class="edge">
<title>Node11&#45;&gt;Node6</title>
<path fill="none" stroke="midnightblue" d="M286.01,-296.9C270.79,-277.29 236,-227.18 236,-179 236,-179 236,-179 236,-121 236,-88.06 225.6,-50.82 218.49,-29.21"/>
<polygon fill="midnightblue" stroke="midnightblue" points="221.78,-28.03 215.24,-19.7 215.16,-30.29 221.78,-28.03"/>
</g>
<!-- Node12 -->
<g id="node12" class="node">
<title>Node12</title>
<g id="a_node12"><a xlink:href="exif-data-type_8h.html" target="_top" xlink:title=" ">
<polygon fill="white" stroke="black" points="388,-112.5 388,-131.5 516,-131.5 516,-112.5 388,-112.5"/>
<text text-anchor="middle" x="452" y="-119.5" font-family="Helvetica,sans-Serif" font-size="10.00">libexif/exif&#45;data&#45;type.h</text>
</a>
</g>
</g>
<!-- Node11&#45;&gt;Node12 -->
<g id="edge15" class="edge">
<title>Node11&#45;&gt;Node12</title>
<path fill="none" stroke="midnightblue" d="M295.6,-296.85C303.14,-273.15 327.18,-206.33 369,-168 383.95,-154.3 403.84,-143.33 420.39,-135.65"/>
<polygon fill="midnightblue" stroke="midnightblue" points="421.98,-138.78 429.7,-131.52 419.14,-132.38 421.98,-138.78"/>
</g>
<!-- Node13 -->
<g id="node13" class="node">
<title>Node13</title>
<g id="a_node13"><a xlink:href="exif-ifd_8h.html" target="_top" xlink:title=" ">
<polygon fill="white" stroke="black" points="572.5,-112.5 572.5,-131.5 665.5,-131.5 665.5,-112.5 572.5,-112.5"/>
<text text-anchor="middle" x="619" y="-119.5" font-family="Helvetica,sans-Serif" font-size="10.00">libexif/exif&#45;ifd.h</text>
</a>
</g>
</g>
<!-- Node11&#45;&gt;Node13 -->
<g id="edge16" class="edge">
<title>Node11&#45;&gt;Node13</title>
<path fill="none" stroke="midnightblue" d="M344.26,-297.83C387.09,-290.29 449.14,-276.72 500,-255 550.91,-233.26 573.4,-233.45 605,-188 614.37,-174.52 617.65,-155.97 618.71,-142.13"/>
<polygon fill="midnightblue" stroke="midnightblue" points="622.22,-141.98 619.17,-131.83 615.23,-141.66 622.22,-141.98"/>
</g>
<!-- Node14 -->
<g id="node14" class="node">
<title>Node14</title>
<g id="a_node14"><a xlink:href="exif-tag_8h.html" target="_top" xlink:title="Handling EXIF tags.">
<polygon fill="white" stroke="black" points="500,-168.5 500,-187.5 596,-187.5 596,-168.5 500,-168.5"/>
<text text-anchor="middle" x="548" y="-175.5" font-family="Helvetica,sans-Serif" font-size="10.00">libexif/exif&#45;tag.h</text>
</a>
</g>
</g>
<!-- Node11&#45;&gt;Node14 -->
<g id="edge18" class="edge">
<title>Node11&#45;&gt;Node14</title>
<path fill="none" stroke="midnightblue" d="M344.23,-297.22C380.29,-289.86 428.74,-276.81 467,-255 494.25,-239.47 519.57,-213 534.41,-195.75"/>
<polygon fill="midnightblue" stroke="midnightblue" points="537.43,-197.6 541.17,-187.68 532.07,-193.1 537.43,-197.6"/>
</g>
<!-- Node15 -->
<g id="node15" class="node">
<title>Node15</title>
<g id="a_node15"><a xlink:href="exif-content_8h.html" target="_top" xlink:title="Handling EXIF IFDs.">
<polygon fill="white" stroke="black" points="340.5,-230 340.5,-249 457.5,-249 457.5,-230 340.5,-230"/>
<text text-anchor="middle" x="399" y="-237" font-family="Helvetica,sans-Serif" font-size="10.00">libexif/exif&#45;content.h</text>
</a>
</g>
</g>
<!-- Node11&#45;&gt;Node15 -->
<g id="edge21" class="edge">
<title>Node11&#45;&gt;Node15</title>
<path fill="none" stroke="midnightblue" d="M302.51,-296.73C318.08,-285.77 348.61,-266.88 371.3,-254.05"/>
<polygon fill="midnightblue" stroke="midnightblue" points="373.13,-257.04 380.17,-249.13 369.73,-250.92 373.13,-257.04"/>
</g>
<!-- Node14&#45;&gt;Node12 -->
<g id="edge20" class="edge">
<title>Node14&#45;&gt;Node12</title>
<path fill="none" stroke="midnightblue" d="M532.58,-168.32C517.46,-159.82 494.18,-146.73 476.53,-136.8"/>
<polygon fill="midnightblue" stroke="midnightblue" points="477.82,-133.51 467.39,-131.65 474.39,-139.61 477.82,-133.51"/>
</g>
<!-- Node14&#45;&gt;Node13 -->
<g id="edge19" class="edge">
<title>Node14&#45;&gt;Node13</title>
<path fill="none" stroke="midnightblue" d="M559.41,-168.32C570.11,-160.18 586.34,-147.84 599.16,-138.09"/>
<polygon fill="midnightblue" stroke="midnightblue" points="601.54,-140.67 607.39,-131.83 597.31,-135.1 601.54,-140.67"/>
</g>
<!-- Node15&#45;&gt;Node3 -->
<g id="edge28" class="edge">
<title>Node15&#45;&gt;Node3</title>
<path fill="none" stroke="midnightblue" d="M364.76,-229.98C322.43,-219.44 250.32,-201.49 203.95,-189.94"/>
<polygon fill="midnightblue" stroke="midnightblue" points="204.73,-186.53 194.18,-187.51 203.04,-193.32 204.73,-186.53"/>
</g>
<!-- Node15&#45;&gt;Node4 -->
<g id="edge29" class="edge">
<title>Node15&#45;&gt;Node4</title>
<path fill="none" stroke="midnightblue" d="M392.84,-229.82C379.3,-210.76 346.78,-164.95 329.04,-139.96"/>
<polygon fill="midnightblue" stroke="midnightblue" points="331.88,-137.91 323.23,-131.78 326.17,-141.96 331.88,-137.91"/>
</g>
<!-- Node15&#45;&gt;Node11 -->
<g id="edge27" class="edge">
<title>Node15&#45;&gt;Node11</title>
<path fill="none" stroke="midnightblue" d="M389.69,-249.13C374.24,-260.02 343.74,-278.9 320.99,-291.79"/>
<polygon fill="midnightblue" stroke="midnightblue" points="319.13,-288.82 312.08,-296.73 322.53,-294.94 319.13,-288.82"/>
</g>
<!-- Node15&#45;&gt;Node14 -->
<g id="edge22" class="edge">
<title>Node15&#45;&gt;Node14</title>
<path fill="none" stroke="midnightblue" d="M420.35,-229.98C445.69,-219.86 488.14,-202.9 517.07,-191.35"/>
<polygon fill="midnightblue" stroke="midnightblue" points="518.7,-194.47 526.69,-187.51 516.11,-187.97 518.7,-194.47"/>
</g>
<!-- Node16 -->
<g id="node16" class="node">
<title>Node16</title>
<g id="a_node16"><a xlink:href="exif-entry_8h.html" target="_top" xlink:title="Handling EXIF entries.">
<polygon fill="white" stroke="black" points="378,-168.5 378,-187.5 482,-187.5 482,-168.5 378,-168.5"/>
<text text-anchor="middle" x="430" y="-175.5" font-family="Helvetica,sans-Serif" font-size="10.00">libexif/exif&#45;entry.h</text>
</a>
</g>
</g>
<!-- Node15&#45;&gt;Node16 -->
<g id="edge23" class="edge">
<title>Node15&#45;&gt;Node16</title>
<path fill="none" stroke="midnightblue" d="M398.54,-229.98C401.22,-221.14 408.12,-207.09 414.99,-195.98"/>
<polygon fill="midnightblue" stroke="midnightblue" points="418.01,-197.76 420.67,-187.51 412.19,-193.87 418.01,-197.76"/>
</g>
<!-- Node16&#45;&gt;Node4 -->
<g id="edge26" class="edge">
<title>Node16&#45;&gt;Node4</title>
<path fill="none" stroke="midnightblue" d="M412.09,-168.44C393.75,-159.68 364.99,-145.94 343.91,-135.86"/>
<polygon fill="midnightblue" stroke="midnightblue" points="345.35,-132.67 334.82,-131.52 342.33,-138.99 345.35,-132.67"/>
</g>
<!-- Node16&#45;&gt;Node7 -->
<g id="edge25" class="edge">
<title>Node16&#45;&gt;Node7</title>
<path fill="none" stroke="midnightblue" d="M467.48,-168.38C487.63,-161.78 511.12,-150.56 525,-132 547.53,-101.87 547.99,-55.6 546.13,-29.89"/>
<polygon fill="midnightblue" stroke="midnightblue" points="549.59,-29.28 545.18,-19.65 542.62,-29.93 549.59,-29.28"/>
</g>
<!-- Node16&#45;&gt;Node15 -->
<g id="edge24" class="edge">
<title>Node16&#45;&gt;Node15</title>
<path fill="none" stroke="midnightblue" d="M430.46,-187.51C427.79,-196.34 420.9,-210.39 414.02,-221.51"/>
<polygon fill="midnightblue" stroke="midnightblue" points="411,-219.72 408.34,-229.98 416.82,-223.62 411,-219.72"/>
</g>
<!-- Node17&#45;&gt;Node1 -->
<g id="edge36" class="edge">
<title>Node17&#45;&gt;Node1</title>
<path fill="none" stroke="midnightblue" d="M281.57,-455.58C271.88,-464.51 257.85,-476.23 245.02,-486.17"/>
<polygon fill="midnightblue" stroke="midnightblue" points="242.67,-483.56 236.82,-492.4 246.9,-489.14 242.67,-483.56"/>
</g>
<!-- Node17&#45;&gt;Node7 -->
<g id="edge33" class="edge">
<title>Node17&#45;&gt;Node7</title>
<path fill="none" stroke="midnightblue" d="M343.79,-433.63C451.69,-419.74 694,-380.43 694,-307.5 694,-307.5 694,-307.5 694,-121 694,-67.71 631.67,-37.41 587.37,-22.61"/>
<polygon fill="midnightblue" stroke="midnightblue" points="588.25,-19.22 577.66,-19.52 586.13,-25.89 588.25,-19.22"/>
</g>
<!-- Node18 -->
<g id="node18" class="node">
<title>Node18</title>
<g id="a_node18"><a xlink:href="mnote-fuji-tag_8h.html" target="_top" xlink:title=" ">
<polygon fill="white" stroke="black" points="242.5,-358.5 242.5,-388.5 343.5,-388.5 343.5,-358.5 242.5,-358.5"/>
<text text-anchor="start" x="250.5" y="-376.5" font-family="Helvetica,sans-Serif" font-size="10.00">libexif/fuji/mnote</text>
<text text-anchor="middle" x="293" y="-365.5" font-family="Helvetica,sans-Serif" font-size="10.00">&#45;fuji&#45;tag.h</text>
</a>
</g>
</g>
<!-- Node17&#45;&gt;Node18 -->
<g id="edge34" class="edge">
<title>Node17&#45;&gt;Node18</title>
<path fill="none" stroke="midnightblue" d="M293,-425.4C293,-417.64 293,-407.81 293,-398.86"/>
<polygon fill="midnightblue" stroke="midnightblue" points="296.5,-398.58 293,-388.58 289.5,-398.58 296.5,-398.58"/>
</g>
<!-- Node18&#45;&gt;Node11 -->
<g id="edge35" class="edge">
<title>Node18&#45;&gt;Node11</title>
<path fill="none" stroke="midnightblue" d="M293,-358.4C293,-349.06 293,-336.71 293,-326.52"/>
<polygon fill="midnightblue" stroke="midnightblue" points="296.5,-326.19 293,-316.19 289.5,-326.19 296.5,-326.19"/>
</g>
</g>
</svg>
