<?xml version="1.0" encoding="UTF-8" standalone="no"?>
<!DOCTYPE svg PUBLIC "-//W3C//DTD SVG 1.1//EN"
 "http://www.w3.org/Graphics/SVG/1.1/DTD/svg11.dtd">
<!-- Generated by graphviz version 2.44.1 (0)
 -->
<!-- Title: exif_content_log Pages: 1 -->
<svg width="604pt" height="85pt"
 viewBox="0.00 0.00 604.00 85.00" xmlns="http://www.w3.org/2000/svg" xmlns:xlink="http://www.w3.org/1999/xlink">
<g id="graph0" class="graph" transform="scale(1 1) rotate(0) translate(4 81)">
<title>exif_content_log</title>
<polygon fill="white" stroke="transparent" points="-4,4 -4,-81 600,-81 600,4 -4,4"/>
<!-- Node1 -->
<g id="node1" class="node">
<title>Node1</title>
<g id="a_node1"><a xlink:title="Set the log message object for this IFD.">
<polygon fill="#bfbfbf" stroke="black" points="0,-38.5 0,-57.5 98,-57.5 98,-38.5 0,-38.5"/>
<text text-anchor="middle" x="49" y="-45.5" font-family="Helvetica,sans-Serif" font-size="10.00">exif_content_log</text>
</a>
</g>
</g>
<!-- Node2 -->
<g id="node2" class="node">
<title>Node2</title>
<g id="a_node2"><a xlink:href="exif-log_8c.html#aafd7e5d40ca73440976a3b684bfa1059" target="_top" xlink:title=" ">
<polygon fill="white" stroke="black" points="140,-57.5 140,-76.5 214,-76.5 214,-57.5 140,-57.5"/>
<text text-anchor="middle" x="177" y="-64.5" font-family="Helvetica,sans-Serif" font-size="10.00">exif_log_ref</text>
</a>
</g>
</g>
<!-- Node1&#45;&gt;Node2 -->
<g id="edge1" class="edge">
<title>Node1&#45;&gt;Node2</title>
<path fill="none" stroke="midnightblue" d="M98.35,-55.29C108.66,-56.85 119.52,-58.48 129.74,-60.02"/>
<polygon fill="midnightblue" stroke="midnightblue" points="129.3,-63.5 139.71,-61.53 130.35,-56.58 129.3,-63.5"/>
</g>
<!-- Node3 -->
<g id="node3" class="node">
<title>Node3</title>
<g id="a_node3"><a xlink:href="exif-log_8c.html#a7a9b738a7429197d68c80ffedac7d8fb" target="_top" xlink:title=" ">
<polygon fill="white" stroke="black" points="134,-19.5 134,-38.5 220,-38.5 220,-19.5 134,-19.5"/>
<text text-anchor="middle" x="177" y="-26.5" font-family="Helvetica,sans-Serif" font-size="10.00">exif_log_unref</text>
</a>
</g>
</g>
<!-- Node1&#45;&gt;Node3 -->
<g id="edge2" class="edge">
<title>Node1&#45;&gt;Node3</title>
<path fill="none" stroke="midnightblue" d="M98.35,-40.71C106.64,-39.46 115.29,-38.15 123.68,-36.89"/>
<polygon fill="midnightblue" stroke="midnightblue" points="124.37,-40.33 133.74,-35.37 123.33,-33.4 124.37,-40.33"/>
</g>
<!-- Node4 -->
<g id="node4" class="node">
<title>Node4</title>
<g id="a_node4"><a xlink:href="exif-log_8c.html#acd0808d6d5be73f28059797c2e2e67dc" target="_top" xlink:title="Delete instance of ExifLog.">
<polygon fill="white" stroke="black" points="256,-19.5 256,-38.5 336,-38.5 336,-19.5 256,-19.5"/>
<text text-anchor="middle" x="296" y="-26.5" font-family="Helvetica,sans-Serif" font-size="10.00">exif_log_free</text>
</a>
</g>
</g>
<!-- Node3&#45;&gt;Node4 -->
<g id="edge3" class="edge">
<title>Node3&#45;&gt;Node4</title>
<path fill="none" stroke="midnightblue" d="M220.24,-29C228.52,-29 237.28,-29 245.77,-29"/>
<polygon fill="midnightblue" stroke="midnightblue" points="245.94,-32.5 255.94,-29 245.94,-25.5 245.94,-32.5"/>
</g>
<!-- Node5 -->
<g id="node5" class="node">
<title>Node5</title>
<g id="a_node5"><a xlink:href="exif-mem_8c.html#a43190b81b4b4bdb4ffb89bfb612051b1" target="_top" xlink:title=" ">
<polygon fill="white" stroke="black" points="505,-19.5 505,-38.5 596,-38.5 596,-19.5 505,-19.5"/>
<text text-anchor="middle" x="550.5" y="-26.5" font-family="Helvetica,sans-Serif" font-size="10.00">exif_mem_free</text>
</a>
</g>
</g>
<!-- Node4&#45;&gt;Node5 -->
<g id="edge4" class="edge">
<title>Node4&#45;&gt;Node5</title>
<path fill="none" stroke="midnightblue" d="M336.18,-29C378.63,-29 446.71,-29 494.51,-29"/>
<polygon fill="midnightblue" stroke="midnightblue" points="494.69,-32.5 504.69,-29 494.69,-25.5 494.69,-32.5"/>
</g>
<!-- Node6 -->
<g id="node6" class="node">
<title>Node6</title>
<g id="a_node6"><a xlink:href="exif-mem_8c.html#a66744e0987af08c443df247ce55f7d87" target="_top" xlink:title="Unrefcount an ExifMem.">
<polygon fill="white" stroke="black" points="372,-0.5 372,-19.5 469,-19.5 469,-0.5 372,-0.5"/>
<text text-anchor="middle" x="420.5" y="-7.5" font-family="Helvetica,sans-Serif" font-size="10.00">exif_mem_unref</text>
</a>
</g>
</g>
<!-- Node4&#45;&gt;Node6 -->
<g id="edge5" class="edge">
<title>Node4&#45;&gt;Node6</title>
<path fill="none" stroke="midnightblue" d="M336.1,-22.94C344.25,-21.67 353.01,-20.31 361.67,-18.97"/>
<polygon fill="midnightblue" stroke="midnightblue" points="362.42,-22.4 371.76,-17.4 361.35,-15.48 362.42,-22.4"/>
</g>
<!-- Node6&#45;&gt;Node5 -->
<g id="edge6" class="edge">
<title>Node6&#45;&gt;Node5</title>
<path fill="none" stroke="midnightblue" d="M469.16,-17.07C477.54,-18.32 486.32,-19.62 494.87,-20.89"/>
<polygon fill="midnightblue" stroke="midnightblue" points="494.36,-24.35 504.77,-22.36 495.39,-17.43 494.36,-24.35"/>
</g>
</g>
</svg>
