<?xml version="1.0" encoding="UTF-8" standalone="no"?>
<!DOCTYPE svg PUBLIC "-//W3C//DTD SVG 1.1//EN"
 "http://www.w3.org/Graphics/SVG/1.1/DTD/svg11.dtd">
<!-- Generated by graphviz version 7.0.1 (0)
 -->
<!-- Title: libexif/pentax/exif&#45;mnote&#45;data&#45;pentax.h Pages: 1 -->
<svg width="766pt" height="412pt"
 viewBox="0.00 0.00 765.50 412.00" xmlns="http://www.w3.org/2000/svg" xmlns:xlink="http://www.w3.org/1999/xlink">
<g id="graph0" class="graph" transform="scale(1 1) rotate(0) translate(4 408)">
<title>libexif/pentax/exif&#45;mnote&#45;data&#45;pentax.h</title>
<!-- Node1 -->
<g id="Node000001" class="node">
<title>Node1</title>
<g id="a_Node000001"><a xlink:title=" ">
<polygon fill="#999999" stroke="#666666" points="220,-404 96,-404 96,-374 220,-374 220,-404"/>
<text text-anchor="start" x="104" y="-392" font-family="Helvetica,sans-Serif" font-size="10.00">libexif/pentax/exif</text>
<text text-anchor="middle" x="158" y="-381" font-family="Helvetica,sans-Serif" font-size="10.00">&#45;mnote&#45;data&#45;pentax.h</text>
</a>
</g>
</g>
<!-- Node2 -->
<g id="Node000002" class="node">
<title>Node2</title>
<g id="a_Node000002"><a xlink:href="exif-byte-order_8h.html" target="_top" xlink:title="Defines the ExifByteOrder enum and the associated functions.">
<polygon fill="white" stroke="#666666" points="159.5,-24.5 28.5,-24.5 28.5,-5.5 159.5,-5.5 159.5,-24.5"/>
<text text-anchor="middle" x="94" y="-12.5" font-family="Helvetica,sans-Serif" font-size="10.00">libexif/exif&#45;byte&#45;order.h</text>
</a>
</g>
</g>
<!-- Node1&#45;&gt;Node2 -->
<g id="edge1_Node000001_Node000002" class="edge">
<title>Node1&#45;&gt;Node2</title>
<g id="a_edge1_Node000001_Node000002"><a xlink:title=" ">
<path fill="none" stroke="#63b8ff" d="M114.83,-373.63C68.04,-355.01 0,-317.68 0,-258 0,-258 0,-258 0,-140.5 0,-93.26 43.64,-52.59 71.45,-31.47"/>
<polygon fill="#63b8ff" stroke="#63b8ff" points="73.3,-34.46 79.31,-25.73 69.17,-28.81 73.3,-34.46"/>
</a>
</g>
</g>
<!-- Node3 -->
<g id="Node000003" class="node">
<title>Node3</title>
<g id="a_Node000003"><a xlink:href="exif-mnote-data_8h.html" target="_top" xlink:title="Handling EXIF MakerNote tags.">
<polygon fill="white" stroke="#666666" points="245.5,-272 142.5,-272 142.5,-242 245.5,-242 245.5,-272"/>
<text text-anchor="start" x="150.5" y="-260" font-family="Helvetica,sans-Serif" font-size="10.00">libexif/exif&#45;mnote</text>
<text text-anchor="middle" x="194" y="-249" font-family="Helvetica,sans-Serif" font-size="10.00">&#45;data.h</text>
</a>
</g>
</g>
<!-- Node1&#45;&gt;Node3 -->
<g id="edge2_Node000001_Node000003" class="edge">
<title>Node1&#45;&gt;Node3</title>
<g id="a_edge2_Node000001_Node000003"><a xlink:title=" ">
<path fill="none" stroke="#63b8ff" d="M164.49,-373.81C168.8,-363.93 174.32,-350.37 178,-338 183.34,-320.04 187.43,-299.28 190.14,-283.41"/>
<polygon fill="#63b8ff" stroke="#63b8ff" points="193.55,-284.28 191.7,-273.85 186.64,-283.16 193.55,-284.28"/>
</a>
</g>
</g>
<!-- Node5 -->
<g id="Node000005" class="node">
<title>Node5</title>
<g id="a_Node000005"><a xlink:href="exif-mem_8h.html" target="_top" xlink:title="Define the ExifMem data type and the associated functions.">
<polygon fill="white" stroke="#666666" points="417,-151 311,-151 311,-132 417,-132 417,-151"/>
<text text-anchor="middle" x="364" y="-139" font-family="Helvetica,sans-Serif" font-size="10.00">libexif/exif&#45;mem.h</text>
</a>
</g>
</g>
<!-- Node1&#45;&gt;Node5 -->
<g id="edge37_Node000001_Node000005" class="edge">
<title>Node1&#45;&gt;Node5</title>
<g id="a_edge37_Node000001_Node000005"><a xlink:title=" ">
<path fill="none" stroke="#63b8ff" d="M169.97,-373.74C205.56,-331.32 310.7,-206.02 349.45,-159.84"/>
<polygon fill="#63b8ff" stroke="#63b8ff" points="351.94,-162.32 355.69,-152.41 346.58,-157.82 351.94,-162.32"/>
</a>
</g>
</g>
<!-- Node10 -->
<g id="Node000010" class="node">
<title>Node10</title>
<g id="a_Node000010"><a xlink:href="exif-mnote-data-priv_8h.html" target="_top" xlink:title=" ">
<polygon fill="white" stroke="#666666" points="169.5,-338 66.5,-338 66.5,-308 169.5,-308 169.5,-338"/>
<text text-anchor="start" x="74.5" y="-326" font-family="Helvetica,sans-Serif" font-size="10.00">libexif/exif&#45;mnote</text>
<text text-anchor="middle" x="118" y="-315" font-family="Helvetica,sans-Serif" font-size="10.00">&#45;data&#45;priv.h</text>
</a>
</g>
</g>
<!-- Node1&#45;&gt;Node10 -->
<g id="edge10_Node000001_Node000010" class="edge">
<title>Node1&#45;&gt;Node10</title>
<g id="a_edge10_Node000001_Node000010"><a xlink:title=" ">
<path fill="none" stroke="#63b8ff" d="M149.12,-373.8C144.36,-366.17 138.36,-356.57 132.9,-347.84"/>
<polygon fill="#63b8ff" stroke="#63b8ff" points="135.92,-346.07 127.65,-339.45 129.99,-349.78 135.92,-346.07"/>
</a>
</g>
</g>
<!-- Node11 -->
<g id="Node000011" class="node">
<title>Node11</title>
<g id="a_Node000011"><a xlink:href="mnote-pentax-entry_8h.html" target="_top" xlink:title=" ">
<polygon fill="white" stroke="#666666" points="296.5,-96 177.5,-96 177.5,-66 296.5,-66 296.5,-96"/>
<text text-anchor="start" x="185.5" y="-84" font-family="Helvetica,sans-Serif" font-size="10.00">libexif/pentax/mnote</text>
<text text-anchor="middle" x="237" y="-73" font-family="Helvetica,sans-Serif" font-size="10.00">&#45;pentax&#45;entry.h</text>
</a>
</g>
</g>
<!-- Node1&#45;&gt;Node11 -->
<g id="edge14_Node000001_Node000011" class="edge">
<title>Node1&#45;&gt;Node11</title>
<g id="a_edge14_Node000001_Node000011"><a xlink:title=" ">
<path fill="none" stroke="#63b8ff" d="M102.96,-373.56C85.16,-366 67.37,-354.71 57,-338 49.97,-326.67 52.78,-320.65 57,-308 86.48,-219.56 168.03,-140.41 210.51,-103.68"/>
<polygon fill="#63b8ff" stroke="#63b8ff" points="212.69,-106.42 218.04,-97.27 208.15,-101.09 212.69,-106.42"/>
</a>
</g>
</g>
<!-- Node13 -->
<g id="Node000013" class="node">
<title>Node13</title>
<g id="a_Node000013"><a xlink:href="exif-data_8h.html" target="_top" xlink:title="Defines the ExifData type and the associated functions.">
<polygon fill="white" stroke="#666666" points="482,-332.5 380,-332.5 380,-313.5 482,-313.5 482,-332.5"/>
<text text-anchor="middle" x="431" y="-320.5" font-family="Helvetica,sans-Serif" font-size="10.00">libexif/exif&#45;data.h</text>
</a>
</g>
</g>
<!-- Node1&#45;&gt;Node13 -->
<g id="edge18_Node000001_Node000013" class="edge">
<title>Node1&#45;&gt;Node13</title>
<g id="a_edge18_Node000001_Node000013"><a xlink:title=" ">
<path fill="none" stroke="#63b8ff" d="M219.61,-373.56C268.61,-362.07 336.26,-346.21 381.71,-335.55"/>
<polygon fill="#63b8ff" stroke="#63b8ff" points="382.36,-339 391.29,-333.31 380.76,-332.18 382.36,-339"/>
</a>
</g>
</g>
<!-- Node4 -->
<g id="Node000004" class="node">
<title>Node4</title>
<g id="a_Node000004"><a xlink:href="exif-log_8h.html" target="_top" xlink:title="Log message infrastructure.">
<polygon fill="white" stroke="#666666" points="273.5,-206 178.5,-206 178.5,-187 273.5,-187 273.5,-206"/>
<text text-anchor="middle" x="226" y="-194" font-family="Helvetica,sans-Serif" font-size="10.00">libexif/exif&#45;log.h</text>
</a>
</g>
</g>
<!-- Node3&#45;&gt;Node4 -->
<g id="edge3_Node000003_Node000004" class="edge">
<title>Node3&#45;&gt;Node4</title>
<g id="a_edge3_Node000003_Node000004"><a xlink:title=" ">
<path fill="none" stroke="#63b8ff" d="M201.91,-241.54C206.08,-233.91 211.25,-224.46 215.73,-216.27"/>
<polygon fill="#63b8ff" stroke="#63b8ff" points="218.8,-217.96 220.53,-207.5 212.66,-214.6 218.8,-217.96"/>
</a>
</g>
</g>
<!-- Node4&#45;&gt;Node5 -->
<g id="edge4_Node000004_Node000005" class="edge">
<title>Node4&#45;&gt;Node5</title>
<g id="a_edge4_Node000004_Node000005"><a xlink:title=" ">
<path fill="none" stroke="#63b8ff" d="M249.41,-186.51C271.65,-177.97 305.33,-165.03 330.42,-155.4"/>
<polygon fill="#63b8ff" stroke="#63b8ff" points="331.44,-158.75 339.52,-151.9 328.93,-152.22 331.44,-158.75"/>
</a>
</g>
</g>
<!-- Node9 -->
<g id="Node000009" class="node">
<title>Node9</title>
<g id="a_Node000009"><a xlink:title=" ">
<polygon fill="#e0e0e0" stroke="#999999" points="254,-151 198,-151 198,-132 254,-132 254,-151"/>
<text text-anchor="middle" x="226" y="-139" font-family="Helvetica,sans-Serif" font-size="10.00">stdarg.h</text>
</a>
</g>
</g>
<!-- Node4&#45;&gt;Node9 -->
<g id="edge9_Node000004_Node000009" class="edge">
<title>Node4&#45;&gt;Node9</title>
<g id="a_edge9_Node000004_Node000009"><a xlink:title=" ">
<path fill="none" stroke="#63b8ff" d="M226,-186.75C226,-180.27 226,-171.16 226,-162.9"/>
<polygon fill="#63b8ff" stroke="#63b8ff" points="229.5,-162.96 226,-152.96 222.5,-162.96 229.5,-162.96"/>
</a>
</g>
</g>
<!-- Node6 -->
<g id="Node000006" class="node">
<title>Node6</title>
<g id="a_Node000006"><a xlink:href="exif-utils_8h.html" target="_top" xlink:title="EXIF data manipulation functions and types.">
<polygon fill="white" stroke="#666666" points="415.5,-90.5 314.5,-90.5 314.5,-71.5 415.5,-71.5 415.5,-90.5"/>
<text text-anchor="middle" x="365" y="-78.5" font-family="Helvetica,sans-Serif" font-size="10.00">libexif/exif&#45;utils.h</text>
</a>
</g>
</g>
<!-- Node5&#45;&gt;Node6 -->
<g id="edge5_Node000005_Node000006" class="edge">
<title>Node5&#45;&gt;Node6</title>
<g id="a_edge5_Node000005_Node000006"><a xlink:title=" ">
<path fill="none" stroke="#63b8ff" d="M364.15,-131.87C364.28,-124 364.49,-112.1 364.66,-101.89"/>
<polygon fill="#63b8ff" stroke="#63b8ff" points="368.15,-102.24 364.83,-92.18 361.16,-102.12 368.15,-102.24"/>
</a>
</g>
</g>
<!-- Node6&#45;&gt;Node2 -->
<g id="edge6_Node000006_Node000002" class="edge">
<title>Node6&#45;&gt;Node2</title>
<g id="a_edge6_Node000006_Node000002"><a xlink:title=" ">
<path fill="none" stroke="#63b8ff" d="M327.03,-71.03C278.86,-59.66 195.68,-40.01 142.83,-27.53"/>
<polygon fill="#63b8ff" stroke="#63b8ff" points="143.72,-24.15 133.18,-25.25 142.11,-30.96 143.72,-24.15"/>
</a>
</g>
</g>
<!-- Node7 -->
<g id="Node000007" class="node">
<title>Node7</title>
<g id="a_Node000007"><a xlink:href="exif-format_8h.html" target="_top" xlink:title="Handling native EXIF data types.">
<polygon fill="white" stroke="#666666" points="538.5,-24.5 425.5,-24.5 425.5,-5.5 538.5,-5.5 538.5,-24.5"/>
<text text-anchor="middle" x="482" y="-12.5" font-family="Helvetica,sans-Serif" font-size="10.00">libexif/exif&#45;format.h</text>
</a>
</g>
</g>
<!-- Node6&#45;&gt;Node7 -->
<g id="edge7_Node000006_Node000007" class="edge">
<title>Node6&#45;&gt;Node7</title>
<g id="a_edge7_Node000006_Node000007"><a xlink:title=" ">
<path fill="none" stroke="#63b8ff" d="M381.27,-71.1C400.57,-60.55 432.99,-42.81 455.83,-30.32"/>
<polygon fill="#63b8ff" stroke="#63b8ff" points="457.45,-33.42 464.54,-25.55 454.09,-27.28 457.45,-33.42"/>
</a>
</g>
</g>
<!-- Node8 -->
<g id="Node000008" class="node">
<title>Node8</title>
<g id="a_Node000008"><a xlink:title=" ">
<polygon fill="#e0e0e0" stroke="#999999" points="407,-24.5 315,-24.5 315,-5.5 407,-5.5 407,-24.5"/>
<text text-anchor="middle" x="361" y="-12.5" font-family="Helvetica,sans-Serif" font-size="10.00">libexif/_stdint.h</text>
</a>
</g>
</g>
<!-- Node6&#45;&gt;Node8 -->
<g id="edge8_Node000006_Node000008" class="edge">
<title>Node6&#45;&gt;Node8</title>
<g id="a_edge8_Node000006_Node000008"><a xlink:title=" ">
<path fill="none" stroke="#63b8ff" d="M364.44,-71.1C363.88,-62.12 363,-47.95 362.26,-36.22"/>
<polygon fill="#63b8ff" stroke="#63b8ff" points="365.76,-36.1 361.65,-26.33 358.78,-36.53 365.76,-36.1"/>
</a>
</g>
</g>
<!-- Node10&#45;&gt;Node2 -->
<g id="edge12_Node000010_Node000002" class="edge">
<title>Node10&#45;&gt;Node2</title>
<g id="a_edge12_Node000010_Node000002"><a xlink:title=" ">
<path fill="none" stroke="#63b8ff" d="M116.87,-307.65C112.99,-258.1 100.12,-94.08 95.59,-36.33"/>
<polygon fill="#63b8ff" stroke="#63b8ff" points="99.09,-36.08 94.81,-26.39 92.11,-36.63 99.09,-36.08"/>
</a>
</g>
</g>
<!-- Node10&#45;&gt;Node3 -->
<g id="edge11_Node000010_Node000003" class="edge">
<title>Node10&#45;&gt;Node3</title>
<g id="a_edge11_Node000010_Node000003"><a xlink:title=" ">
<path fill="none" stroke="#63b8ff" d="M134.87,-307.8C144.64,-299.57 157.14,-289.04 168.13,-279.78"/>
<polygon fill="#63b8ff" stroke="#63b8ff" points="170.37,-282.48 175.76,-273.36 165.86,-277.12 170.37,-282.48"/>
</a>
</g>
</g>
<!-- Node10&#45;&gt;Node4 -->
<g id="edge13_Node000010_Node000004" class="edge">
<title>Node10&#45;&gt;Node4</title>
<g id="a_edge13_Node000010_Node000004"><a xlink:title=" ">
<path fill="none" stroke="#63b8ff" d="M117,-307.74C116.53,-290.42 118.28,-261.16 133,-242 144.27,-227.33 161.6,-217.25 178.26,-210.45"/>
<polygon fill="#63b8ff" stroke="#63b8ff" points="179.47,-213.73 187.62,-206.96 177.03,-207.17 179.47,-213.73"/>
</a>
</g>
</g>
<!-- Node11&#45;&gt;Node2 -->
<g id="edge16_Node000011_Node000002" class="edge">
<title>Node11&#45;&gt;Node2</title>
<g id="a_edge16_Node000011_Node000002"><a xlink:title=" ">
<path fill="none" stroke="#63b8ff" d="M204.91,-65.64C180.88,-54.88 148.22,-40.27 124.57,-29.68"/>
<polygon fill="#63b8ff" stroke="#63b8ff" points="126.02,-26.49 115.46,-25.6 123.16,-32.88 126.02,-26.49"/>
</a>
</g>
</g>
<!-- Node11&#45;&gt;Node7 -->
<g id="edge15_Node000011_Node000007" class="edge">
<title>Node11&#45;&gt;Node7</title>
<g id="a_edge15_Node000011_Node000007"><a xlink:title=" ">
<path fill="none" stroke="#63b8ff" d="M292.29,-65.56C335.89,-54.17 395.95,-38.48 436.73,-27.83"/>
<polygon fill="#63b8ff" stroke="#63b8ff" points="437.43,-31.26 446.22,-25.35 435.66,-24.49 437.43,-31.26"/>
</a>
</g>
</g>
<!-- Node12 -->
<g id="Node000012" class="node">
<title>Node12</title>
<g id="a_Node000012"><a xlink:href="mnote-pentax-tag_8h.html" target="_top" xlink:title=" ">
<polygon fill="white" stroke="#666666" points="296.5,-30 177.5,-30 177.5,0 296.5,0 296.5,-30"/>
<text text-anchor="start" x="185.5" y="-18" font-family="Helvetica,sans-Serif" font-size="10.00">libexif/pentax/mnote</text>
<text text-anchor="middle" x="237" y="-7" font-family="Helvetica,sans-Serif" font-size="10.00">&#45;pentax&#45;tag.h</text>
</a>
</g>
</g>
<!-- Node11&#45;&gt;Node12 -->
<g id="edge17_Node000011_Node000012" class="edge">
<title>Node11&#45;&gt;Node12</title>
<g id="a_edge17_Node000011_Node000012"><a xlink:title=" ">
<path fill="none" stroke="#63b8ff" d="M237,-65.8C237,-58.67 237,-49.82 237,-41.56"/>
<polygon fill="#63b8ff" stroke="#63b8ff" points="240.5,-41.68 237,-31.68 233.5,-41.68 240.5,-41.68"/>
</a>
</g>
</g>
<!-- Node13&#45;&gt;Node2 -->
<g id="edge19_Node000013_Node000002" class="edge">
<title>Node13&#45;&gt;Node2</title>
<g id="a_edge19_Node000013_Node000002"><a xlink:title=" ">
<path fill="none" stroke="#63b8ff" d="M411.69,-313.09C379.22,-298.15 311.61,-267.22 254,-242 216.42,-225.55 197.63,-235.39 169,-206 122.35,-158.11 138.64,-128.15 114,-66 109.98,-55.86 105.47,-44.57 101.75,-35.29"/>
<polygon fill="#63b8ff" stroke="#63b8ff" points="105.09,-34.23 98.12,-26.25 98.6,-36.83 105.09,-34.23"/>
</a>
</g>
</g>
<!-- Node13&#45;&gt;Node3 -->
<g id="edge35_Node000013_Node000003" class="edge">
<title>Node13&#45;&gt;Node3</title>
<g id="a_edge35_Node000013_Node000003"><a xlink:title=" ">
<path fill="none" stroke="#63b8ff" d="M397.8,-313.03C361.31,-303.18 301.88,-287.13 256.59,-274.9"/>
<polygon fill="#63b8ff" stroke="#63b8ff" points="257.72,-271.58 247.15,-272.35 255.9,-278.34 257.72,-271.58"/>
</a>
</g>
</g>
<!-- Node13&#45;&gt;Node4 -->
<g id="edge22_Node000013_Node000004" class="edge">
<title>Node13&#45;&gt;Node4</title>
<g id="a_edge22_Node000013_Node000004"><a xlink:title=" ">
<path fill="none" stroke="#63b8ff" d="M421.13,-313.22C403.15,-297.51 363.46,-264.2 326,-242 305.27,-229.72 280.54,-218.68 260.86,-210.67"/>
<polygon fill="#63b8ff" stroke="#63b8ff" points="262.2,-207.44 251.62,-207 259.61,-213.95 262.2,-207.44"/>
</a>
</g>
</g>
<!-- Node13&#45;&gt;Node5 -->
<g id="edge36_Node000013_Node000005" class="edge">
<title>Node13&#45;&gt;Node5</title>
<g id="a_edge36_Node000013_Node000005"><a xlink:title=" ">
<path fill="none" stroke="#63b8ff" d="M426.41,-313.3C421.3,-303.44 412.99,-286.82 407,-272 391.59,-233.87 377.31,-187.91 369.71,-162.26"/>
<polygon fill="#63b8ff" stroke="#63b8ff" points="373.13,-161.5 366.96,-152.89 366.41,-163.47 373.13,-161.5"/>
</a>
</g>
</g>
<!-- Node14 -->
<g id="Node000014" class="node">
<title>Node14</title>
<g id="a_Node000014"><a xlink:href="exif-data-type_8h.html" target="_top" xlink:title=" ">
<polygon fill="white" stroke="#666666" points="643,-151 515,-151 515,-132 643,-132 643,-151"/>
<text text-anchor="middle" x="579" y="-139" font-family="Helvetica,sans-Serif" font-size="10.00">libexif/exif&#45;data&#45;type.h</text>
</a>
</g>
</g>
<!-- Node13&#45;&gt;Node14 -->
<g id="edge20_Node000013_Node000014" class="edge">
<title>Node13&#45;&gt;Node14</title>
<g id="a_edge20_Node000013_Node000014"><a xlink:title=" ">
<path fill="none" stroke="#63b8ff" d="M471.74,-313.08C495.67,-305.83 524.73,-293.22 543,-272 570.08,-240.56 576.91,-190.31 578.56,-162.55"/>
<polygon fill="#63b8ff" stroke="#63b8ff" points="582.05,-162.87 578.95,-152.73 575.05,-162.59 582.05,-162.87"/>
</a>
</g>
</g>
<!-- Node15 -->
<g id="Node000015" class="node">
<title>Node15</title>
<g id="a_Node000015"><a xlink:href="exif-ifd_8h.html" target="_top" xlink:title=" ">
<polygon fill="white" stroke="#666666" points="757.5,-151 664.5,-151 664.5,-132 757.5,-132 757.5,-151"/>
<text text-anchor="middle" x="711" y="-139" font-family="Helvetica,sans-Serif" font-size="10.00">libexif/exif&#45;ifd.h</text>
</a>
</g>
</g>
<!-- Node13&#45;&gt;Node15 -->
<g id="edge21_Node000013_Node000015" class="edge">
<title>Node13&#45;&gt;Node15</title>
<g id="a_edge21_Node000013_Node000015"><a xlink:title=" ">
<path fill="none" stroke="#63b8ff" d="M478.82,-313.03C514.74,-305.18 564.51,-291.87 605,-272 649.53,-250.14 667.3,-247.15 695,-206 703.66,-193.13 707.63,-175.95 709.46,-162.7"/>
<polygon fill="#63b8ff" stroke="#63b8ff" points="712.91,-163.29 710.47,-152.98 705.95,-162.57 712.91,-163.29"/>
</a>
</g>
</g>
<!-- Node16 -->
<g id="Node000016" class="node">
<title>Node16</title>
<g id="a_Node000016"><a xlink:href="exif-tag_8h.html" target="_top" xlink:title="Handling EXIF tags.">
<polygon fill="white" stroke="#666666" points="686,-206 590,-206 590,-187 686,-187 686,-206"/>
<text text-anchor="middle" x="638" y="-194" font-family="Helvetica,sans-Serif" font-size="10.00">libexif/exif&#45;tag.h</text>
</a>
</g>
</g>
<!-- Node13&#45;&gt;Node16 -->
<g id="edge23_Node000013_Node000016" class="edge">
<title>Node13&#45;&gt;Node16</title>
<g id="a_edge23_Node000013_Node000016"><a xlink:title=" ">
<path fill="none" stroke="#63b8ff" d="M476.41,-313.07C506.57,-305.59 545.98,-292.73 576,-272 597.79,-256.95 616.21,-232.26 627.18,-215.46"/>
<polygon fill="#63b8ff" stroke="#63b8ff" points="629.85,-217.79 632.2,-207.46 623.92,-214.07 629.85,-217.79"/>
</a>
</g>
</g>
<!-- Node17 -->
<g id="Node000017" class="node">
<title>Node17</title>
<g id="a_Node000017"><a xlink:href="exif-content_8h.html" target="_top" xlink:title="Handling EXIF IFDs.">
<polygon fill="white" stroke="#666666" points="533.5,-266.5 416.5,-266.5 416.5,-247.5 533.5,-247.5 533.5,-266.5"/>
<text text-anchor="middle" x="475" y="-254.5" font-family="Helvetica,sans-Serif" font-size="10.00">libexif/exif&#45;content.h</text>
</a>
</g>
</g>
<!-- Node13&#45;&gt;Node17 -->
<g id="edge26_Node000013_Node000017" class="edge">
<title>Node13&#45;&gt;Node17</title>
<g id="a_edge26_Node000013_Node000017"><a xlink:title=" ">
<path fill="none" stroke="#63b8ff" d="M432.27,-313.1C436.9,-303.45 447.23,-287.81 456.76,-275.65"/>
<polygon fill="#63b8ff" stroke="#63b8ff" points="459.43,-277.91 463.14,-267.99 454.05,-273.43 459.43,-277.91"/>
</a>
</g>
</g>
<!-- Node16&#45;&gt;Node14 -->
<g id="edge25_Node000016_Node000014" class="edge">
<title>Node16&#45;&gt;Node14</title>
<g id="a_edge25_Node000016_Node000014"><a xlink:title=" ">
<path fill="none" stroke="#63b8ff" d="M627.99,-186.51C619.63,-179 607.5,-168.1 597.4,-159.03"/>
<polygon fill="#63b8ff" stroke="#63b8ff" points="599.76,-156.45 589.99,-152.37 595.09,-161.66 599.76,-156.45"/>
</a>
</g>
</g>
<!-- Node16&#45;&gt;Node15 -->
<g id="edge24_Node000016_Node000015" class="edge">
<title>Node16&#45;&gt;Node15</title>
<g id="a_edge24_Node000016_Node000015"><a xlink:title=" ">
<path fill="none" stroke="#63b8ff" d="M650.38,-186.51C661.15,-178.7 676.97,-167.21 689.75,-157.93"/>
<polygon fill="#63b8ff" stroke="#63b8ff" points="691.54,-160.95 697.57,-152.25 687.43,-155.29 691.54,-160.95"/>
</a>
</g>
</g>
<!-- Node17&#45;&gt;Node4 -->
<g id="edge33_Node000017_Node000004" class="edge">
<title>Node17&#45;&gt;Node4</title>
<g id="a_edge33_Node000017_Node000004"><a xlink:title=" ">
<path fill="none" stroke="#63b8ff" d="M436.91,-247.05C393.52,-236.86 322.51,-220.17 275.03,-209.02"/>
<polygon fill="#63b8ff" stroke="#63b8ff" points="276.09,-205.67 265.56,-206.79 274.49,-212.49 276.09,-205.67"/>
</a>
</g>
</g>
<!-- Node17&#45;&gt;Node5 -->
<g id="edge34_Node000017_Node000005" class="edge">
<title>Node17&#45;&gt;Node5</title>
<g id="a_edge34_Node000017_Node000005"><a xlink:title=" ">
<path fill="none" stroke="#63b8ff" d="M464.79,-247.05C453.73,-237.25 435.7,-220.93 421,-206 406.11,-190.88 390.04,-172.8 378.77,-159.81"/>
<polygon fill="#63b8ff" stroke="#63b8ff" points="381.66,-157.8 372.48,-152.51 376.36,-162.37 381.66,-157.8"/>
</a>
</g>
</g>
<!-- Node17&#45;&gt;Node13 -->
<g id="edge32_Node000017_Node000013" class="edge">
<title>Node17&#45;&gt;Node13</title>
<g id="a_edge32_Node000017_Node000013"><a xlink:title=" ">
<path fill="none" stroke="#63b8ff" d="M473.76,-266.82C469.17,-276.44 458.84,-292.08 449.31,-304.26"/>
<polygon fill="#63b8ff" stroke="#63b8ff" points="446.63,-302.01 442.93,-311.94 452.01,-306.48 446.63,-302.01"/>
</a>
</g>
</g>
<!-- Node17&#45;&gt;Node16 -->
<g id="edge27_Node000017_Node000016" class="edge">
<title>Node17&#45;&gt;Node16</title>
<g id="a_edge27_Node000017_Node000016"><a xlink:title=" ">
<path fill="none" stroke="#63b8ff" d="M499.76,-247.12C527.04,-237.32 571.17,-221.48 602.22,-210.34"/>
<polygon fill="#63b8ff" stroke="#63b8ff" points="603.36,-213.65 611.59,-206.98 600.99,-207.06 603.36,-213.65"/>
</a>
</g>
</g>
<!-- Node18 -->
<g id="Node000018" class="node">
<title>Node18</title>
<g id="a_Node000018"><a xlink:href="exif-entry_8h.html" target="_top" xlink:title="Handling EXIF entries.">
<polygon fill="white" stroke="#666666" points="534,-206 430,-206 430,-187 534,-187 534,-206"/>
<text text-anchor="middle" x="482" y="-194" font-family="Helvetica,sans-Serif" font-size="10.00">libexif/exif&#45;entry.h</text>
</a>
</g>
</g>
<!-- Node17&#45;&gt;Node18 -->
<g id="edge28_Node000017_Node000018" class="edge">
<title>Node17&#45;&gt;Node18</title>
<g id="a_edge28_Node000017_Node000018"><a xlink:title=" ">
<path fill="none" stroke="#63b8ff" d="M471.08,-247.37C470.31,-239.42 471.27,-227.33 473.25,-217.05"/>
<polygon fill="#63b8ff" stroke="#63b8ff" points="476.57,-218.19 475.63,-207.63 469.79,-216.47 476.57,-218.19"/>
</a>
</g>
</g>
<!-- Node18&#45;&gt;Node5 -->
<g id="edge31_Node000018_Node000005" class="edge">
<title>Node18&#45;&gt;Node5</title>
<g id="a_edge31_Node000018_Node000005"><a xlink:title=" ">
<path fill="none" stroke="#63b8ff" d="M461.98,-186.51C443.39,-178.16 415.46,-165.61 394.17,-156.05"/>
<polygon fill="#63b8ff" stroke="#63b8ff" points="395.66,-152.88 385.1,-151.98 392.79,-159.27 395.66,-152.88"/>
</a>
</g>
</g>
<!-- Node18&#45;&gt;Node7 -->
<g id="edge30_Node000018_Node000007" class="edge">
<title>Node18&#45;&gt;Node7</title>
<g id="a_edge30_Node000018_Node000007"><a xlink:title=" ">
<path fill="none" stroke="#63b8ff" d="M482,-186.84C482,-159.66 482,-75.52 482,-36.39"/>
<polygon fill="#63b8ff" stroke="#63b8ff" points="485.5,-36.51 482,-26.51 478.5,-36.51 485.5,-36.51"/>
</a>
</g>
</g>
<!-- Node18&#45;&gt;Node17 -->
<g id="edge29_Node000018_Node000017" class="edge">
<title>Node18&#45;&gt;Node17</title>
<g id="a_edge29_Node000018_Node000017"><a xlink:title=" ">
<path fill="none" stroke="#63b8ff" d="M485.93,-206.17C486.69,-214.13 485.72,-226.22 483.74,-236.49"/>
<polygon fill="#63b8ff" stroke="#63b8ff" points="480.42,-235.35 481.36,-245.9 487.21,-237.06 480.42,-235.35"/>
</a>
</g>
</g>
</g>
</svg>
