<?xml version="1.0" encoding="UTF-8" standalone="no"?>
<!DOCTYPE svg PUBLIC "-//W3C//DTD SVG 1.1//EN"
 "http://www.w3.org/Graphics/SVG/1.1/DTD/svg11.dtd">
<!-- Generated by graphviz version 7.0.1 (0)
 -->
<!-- Title: libexif/exif&#45;content.h Pages: 1 -->
<svg width="2860pt" height="346pt"
 viewBox="0.00 0.00 2860.01 346.00" xmlns="http://www.w3.org/2000/svg" xmlns:xlink="http://www.w3.org/1999/xlink">
<g id="graph0" class="graph" transform="scale(1 1) rotate(0) translate(4 342)">
<title>libexif/exif&#45;content.h</title>
<!-- Node1 -->
<g id="Node000001" class="node">
<title>Node1</title>
<g id="a_Node000001"><a xlink:title="Handling EXIF IFDs.">
<polygon fill="#999999" stroke="#666666" points="1213.01,-338 1096.01,-338 1096.01,-319 1213.01,-319 1213.01,-338"/>
<text text-anchor="middle" x="1154.51" y="-326" font-family="Helvetica,sans-Serif" font-size="10.00">libexif/exif&#45;content.h</text>
</a>
</g>
</g>
<!-- Node2 -->
<g id="Node000002" class="node">
<title>Node2</title>
<g id="a_Node000002"><a xlink:href="exif-content_8c.html" target="_top" xlink:title=" ">
<polygon fill="white" stroke="#666666" points="1085.51,-283 969.51,-283 969.51,-264 1085.51,-264 1085.51,-283"/>
<text text-anchor="middle" x="1027.51" y="-271" font-family="Helvetica,sans-Serif" font-size="10.00">libexif/exif&#45;content.c</text>
</a>
</g>
</g>
<!-- Node1&#45;&gt;Node2 -->
<g id="edge1_Node000001_Node000002" class="edge">
<title>Node1&#45;&gt;Node2</title>
<g id="a_edge1_Node000001_Node000002"><a xlink:title=" ">
<path fill="none" stroke="#63b8ff" d="M1122.63,-314.19C1099.52,-304.55 1068.91,-291.78 1048.74,-283.36"/>
<polygon fill="#63b8ff" stroke="#63b8ff" points="1121,-317.31 1131.57,-317.93 1123.69,-310.84 1121,-317.31"/>
</a>
</g>
</g>
<!-- Node3 -->
<g id="Node000003" class="node">
<title>Node3</title>
<g id="a_Node000003"><a xlink:href="exif-data_8h.html" target="_top" xlink:title="Defines the ExifData type and the associated functions.">
<polygon fill="white" stroke="#666666" points="1205.51,-283 1103.51,-283 1103.51,-264 1205.51,-264 1205.51,-283"/>
<text text-anchor="middle" x="1154.51" y="-271" font-family="Helvetica,sans-Serif" font-size="10.00">libexif/exif&#45;data.h</text>
</a>
</g>
</g>
<!-- Node1&#45;&gt;Node3 -->
<g id="edge2_Node000001_Node000003" class="edge">
<title>Node1&#45;&gt;Node3</title>
<g id="a_edge2_Node000001_Node000003"><a xlink:title=" ">
<path fill="none" stroke="#63b8ff" d="M1147.94,-307.35C1147.48,-299.1 1147.93,-289.97 1149.31,-283.44"/>
<polygon fill="#63b8ff" stroke="#63b8ff" points="1144.46,-307.75 1149.16,-317.25 1151.41,-306.89 1144.46,-307.75"/>
</a>
</g>
</g>
<!-- Node35 -->
<g id="Node000035" class="node">
<title>Node35</title>
<g id="a_Node000035"><a xlink:href="exif-entry_8h.html" target="_top" xlink:title="Handling EXIF entries.">
<polygon fill="white" stroke="#666666" points="2446.51,-283 2342.51,-283 2342.51,-264 2446.51,-264 2446.51,-283"/>
<text text-anchor="middle" x="2394.51" y="-271" font-family="Helvetica,sans-Serif" font-size="10.00">libexif/exif&#45;entry.h</text>
</a>
</g>
</g>
<!-- Node1&#45;&gt;Node35 -->
<g id="edge50_Node000001_Node000035" class="edge">
<title>Node1&#45;&gt;Node35</title>
<g id="a_edge50_Node000001_Node000035"><a xlink:title=" ">
<path fill="none" stroke="#63b8ff" d="M1224.53,-324.36C1448.67,-314.58 2145.02,-284.83 2342.11,-276.62"/>
<polygon fill="#63b8ff" stroke="#63b8ff" points="1224.62,-320.85 1214.78,-324.79 1224.93,-327.85 1224.62,-320.85"/>
</a>
</g>
</g>
<!-- Node3&#45;&gt;Node1 -->
<g id="edge15_Node000003_Node000001" class="edge">
<title>Node3&#45;&gt;Node1</title>
<g id="a_edge15_Node000003_Node000001"><a xlink:title=" ">
<path fill="none" stroke="#63b8ff" d="M1161.09,-294.6C1161.56,-302.95 1161.09,-312.19 1159.68,-318.75"/>
<polygon fill="#63b8ff" stroke="#63b8ff" points="1164.59,-294.45 1159.9,-284.94 1157.64,-295.3 1164.59,-294.45"/>
</a>
</g>
</g>
<!-- Node4 -->
<g id="Node000004" class="node">
<title>Node4</title>
<g id="a_Node000004"><a xlink:href="exif-mnote-data-apple_8c.html" target="_top" xlink:title=" ">
<polygon fill="white" stroke="#666666" points="971.51,-162 855.51,-162 855.51,-132 971.51,-132 971.51,-162"/>
<text text-anchor="start" x="863.51" y="-150" font-family="Helvetica,sans-Serif" font-size="10.00">libexif/apple/exif</text>
<text text-anchor="middle" x="913.51" y="-139" font-family="Helvetica,sans-Serif" font-size="10.00">&#45;mnote&#45;data&#45;apple.c</text>
</a>
</g>
</g>
<!-- Node3&#45;&gt;Node4 -->
<g id="edge3_Node000003_Node000004" class="edge">
<title>Node3&#45;&gt;Node4</title>
<g id="a_edge3_Node000003_Node000004"><a xlink:title=" ">
<path fill="none" stroke="#63b8ff" d="M1144.13,-254.24C1133.54,-237.22 1115.55,-212.37 1093.51,-198 1073.41,-184.89 1016.39,-170.23 971.86,-160.19"/>
<polygon fill="#63b8ff" stroke="#63b8ff" points="1140.85,-255.56 1148.97,-262.36 1146.86,-251.97 1140.85,-255.56"/>
</a>
</g>
</g>
<!-- Node5 -->
<g id="Node000005" class="node">
<title>Node5</title>
<g id="a_Node000005"><a xlink:href="exif-mnote-data-apple_8h.html" target="_top" xlink:title=" ">
<polygon fill="white" stroke="#666666" points="1084.01,-228 967.01,-228 967.01,-198 1084.01,-198 1084.01,-228"/>
<text text-anchor="start" x="975.01" y="-216" font-family="Helvetica,sans-Serif" font-size="10.00">libexif/apple/exif</text>
<text text-anchor="middle" x="1025.51" y="-205" font-family="Helvetica,sans-Serif" font-size="10.00">&#45;mnote&#45;data&#45;apple.h</text>
</a>
</g>
</g>
<!-- Node3&#45;&gt;Node5 -->
<g id="edge4_Node000003_Node000005" class="edge">
<title>Node3&#45;&gt;Node5</title>
<g id="a_edge4_Node000003_Node000005"><a xlink:title=" ">
<path fill="none" stroke="#63b8ff" d="M1124.47,-258.87C1104.33,-249.74 1077.85,-237.74 1057.36,-228.44"/>
<polygon fill="#63b8ff" stroke="#63b8ff" points="1122.99,-262.05 1133.54,-262.99 1125.88,-255.67 1122.99,-262.05"/>
</a>
</g>
</g>
<!-- Node6 -->
<g id="Node000006" class="node">
<title>Node6</title>
<g id="a_Node000006"><a xlink:href="exif-mnote-data-canon_8c.html" target="_top" xlink:title=" ">
<polygon fill="white" stroke="#666666" points="508.01,-30 389.01,-30 389.01,0 508.01,0 508.01,-30"/>
<text text-anchor="start" x="397.01" y="-18" font-family="Helvetica,sans-Serif" font-size="10.00">libexif/canon/exif</text>
<text text-anchor="middle" x="448.51" y="-7" font-family="Helvetica,sans-Serif" font-size="10.00">&#45;mnote&#45;data&#45;canon.c</text>
</a>
</g>
</g>
<!-- Node3&#45;&gt;Node6 -->
<g id="edge6_Node000003_Node000006" class="edge">
<title>Node3&#45;&gt;Node6</title>
<g id="a_edge6_Node000003_Node000006"><a xlink:title=" ">
<path fill="none" stroke="#63b8ff" d="M1091.98,-264.26C964.59,-259.63 64.32,-269.17 24.51,-228 -92.19,-107.3 246.35,-44.34 388.69,-23.75"/>
<polygon fill="#63b8ff" stroke="#63b8ff" points="1091.48,-267.73 1101.66,-264.78 1091.86,-260.74 1091.48,-267.73"/>
</a>
</g>
</g>
<!-- Node7 -->
<g id="Node000007" class="node">
<title>Node7</title>
<g id="a_Node000007"><a xlink:href="exif-mnote-data-canon_8h.html" target="_top" xlink:title=" ">
<polygon fill="white" stroke="#666666" points="954.01,-96 835.01,-96 835.01,-66 954.01,-66 954.01,-96"/>
<text text-anchor="start" x="843.01" y="-84" font-family="Helvetica,sans-Serif" font-size="10.00">libexif/canon/exif</text>
<text text-anchor="middle" x="894.51" y="-73" font-family="Helvetica,sans-Serif" font-size="10.00">&#45;mnote&#45;data&#45;canon.h</text>
</a>
</g>
</g>
<!-- Node3&#45;&gt;Node7 -->
<g id="edge7_Node000003_Node000007" class="edge">
<title>Node3&#45;&gt;Node7</title>
<g id="a_edge7_Node000003_Node000007"><a xlink:title=" ">
<path fill="none" stroke="#63b8ff" d="M1092.3,-261.55C1043.87,-252.46 981.07,-239.24 957.51,-228 938.09,-218.73 937.71,-209.49 919.51,-198 888.93,-178.69 865.62,-192.72 846.51,-162 832.32,-139.17 856.71,-112.31 875.62,-96.24"/>
<polygon fill="#63b8ff" stroke="#63b8ff" points="1091.37,-264.94 1101.84,-263.32 1092.64,-258.06 1091.37,-264.94"/>
</a>
</g>
</g>
<!-- Node8 -->
<g id="Node000008" class="node">
<title>Node8</title>
<g id="a_Node000008"><a xlink:href="exif-data_8c.html" target="_top" xlink:title=" ">
<polygon fill="white" stroke="#666666" points="1475.01,-24.5 1374.01,-24.5 1374.01,-5.5 1475.01,-5.5 1475.01,-24.5"/>
<text text-anchor="middle" x="1424.51" y="-12.5" font-family="Helvetica,sans-Serif" font-size="10.00">libexif/exif&#45;data.c</text>
</a>
</g>
</g>
<!-- Node3&#45;&gt;Node8 -->
<g id="edge16_Node000003_Node000008" class="edge">
<title>Node3&#45;&gt;Node8</title>
<g id="a_edge16_Node000003_Node000008"><a xlink:title=" ">
<path fill="none" stroke="#63b8ff" d="M1217.24,-269.44C1282.81,-264.88 1379.72,-253.87 1405.51,-228 1462.39,-170.95 1436.18,-57.33 1427.14,-24.86"/>
<polygon fill="#63b8ff" stroke="#63b8ff" points="1217.04,-265.94 1207.3,-270.09 1217.5,-272.93 1217.04,-265.94"/>
</a>
</g>
</g>
<!-- Node9 -->
<g id="Node000009" class="node">
<title>Node9</title>
<g id="a_Node000009"><a xlink:href="mnote-canon-tag_8h.html" target="_top" xlink:title=" ">
<polygon fill="white" stroke="#666666" points="1254.51,-228 1140.51,-228 1140.51,-198 1254.51,-198 1254.51,-228"/>
<text text-anchor="start" x="1148.51" y="-216" font-family="Helvetica,sans-Serif" font-size="10.00">libexif/canon/mnote</text>
<text text-anchor="middle" x="1197.51" y="-205" font-family="Helvetica,sans-Serif" font-size="10.00">&#45;canon&#45;tag.h</text>
</a>
</g>
</g>
<!-- Node3&#45;&gt;Node9 -->
<g id="edge10_Node000003_Node000009" class="edge">
<title>Node3&#45;&gt;Node9</title>
<g id="a_edge10_Node000003_Node000009"><a xlink:title=" ">
<path fill="none" stroke="#63b8ff" d="M1167.54,-254.78C1173.82,-246.23 1181.25,-236.13 1187.14,-228.11"/>
<polygon fill="#63b8ff" stroke="#63b8ff" points="1164.86,-252.52 1161.76,-262.65 1170.5,-256.66 1164.86,-252.52"/>
</a>
</g>
</g>
<!-- Node13 -->
<g id="Node000013" class="node">
<title>Node13</title>
<g id="a_Node000013"><a xlink:href="exif-loader_8h.html" target="_top" xlink:title="Defines the ExifLoader type.">
<polygon fill="white" stroke="#666666" points="2202.01,-222.5 2091.01,-222.5 2091.01,-203.5 2202.01,-203.5 2202.01,-222.5"/>
<text text-anchor="middle" x="2146.51" y="-210.5" font-family="Helvetica,sans-Serif" font-size="10.00">libexif/exif&#45;loader.h</text>
</a>
</g>
</g>
<!-- Node3&#45;&gt;Node13 -->
<g id="edge17_Node000003_Node000013" class="edge">
<title>Node3&#45;&gt;Node13</title>
<g id="a_edge17_Node000003_Node000013"><a xlink:title=" ">
<path fill="none" stroke="#63b8ff" d="M1216.95,-272.13C1364.94,-270.66 1748.48,-263.45 2066.51,-228 2077.72,-226.75 2089.74,-224.91 2100.96,-222.98"/>
<polygon fill="#63b8ff" stroke="#63b8ff" points="1217.35,-268.62 1207.38,-272.22 1217.41,-275.62 1217.35,-268.62"/>
</a>
</g>
</g>
<!-- Node15 -->
<g id="Node000015" class="node">
<title>Node15</title>
<g id="a_Node000015"><a xlink:href="test-fuzzer-persistent_8c.html" target="_top" xlink:title=" ">
<polygon fill="white" stroke="#666666" points="2040.01,-156.5 1889.01,-156.5 1889.01,-137.5 2040.01,-137.5 2040.01,-156.5"/>
<text text-anchor="middle" x="1964.51" y="-144.5" font-family="Helvetica,sans-Serif" font-size="10.00">test/test&#45;fuzzer&#45;persistent.c</text>
</a>
</g>
</g>
<!-- Node3&#45;&gt;Node15 -->
<g id="edge41_Node000003_Node000015" class="edge">
<title>Node3&#45;&gt;Node15</title>
<g id="a_edge41_Node000003_Node000015"><a xlink:title=" ">
<path fill="none" stroke="#63b8ff" d="M1217.37,-272.49C1322.85,-271.39 1541.66,-264.42 1722.51,-228 1806.45,-211.1 1901.76,-174.04 1943.29,-156.95"/>
<polygon fill="#63b8ff" stroke="#63b8ff" points="1217.48,-268.99 1207.51,-272.58 1217.54,-275.99 1217.48,-268.99"/>
</a>
</g>
</g>
<!-- Node16 -->
<g id="Node000016" class="node">
<title>Node16</title>
<g id="a_Node000016"><a xlink:href="test-fuzzer_8c.html" target="_top" xlink:title=" ">
<polygon fill="white" stroke="#666666" points="2157.01,-156.5 2058.01,-156.5 2058.01,-137.5 2157.01,-137.5 2157.01,-156.5"/>
<text text-anchor="middle" x="2107.51" y="-144.5" font-family="Helvetica,sans-Serif" font-size="10.00">test/test&#45;fuzzer.c</text>
</a>
</g>
</g>
<!-- Node3&#45;&gt;Node16 -->
<g id="edge42_Node000003_Node000016" class="edge">
<title>Node3&#45;&gt;Node16</title>
<g id="a_edge42_Node000003_Node000016"><a xlink:title=" ">
<path fill="none" stroke="#63b8ff" d="M1217.2,-271.76C1331.61,-269.61 1581.66,-261.16 1789.51,-228 1898.29,-210.64 2024.31,-173.82 2079.36,-156.87"/>
<polygon fill="#63b8ff" stroke="#63b8ff" points="1217.34,-268.26 1207.41,-271.94 1217.47,-275.26 1217.34,-268.26"/>
</a>
</g>
</g>
<!-- Node17 -->
<g id="Node000017" class="node">
<title>Node17</title>
<g id="a_Node000017"><a xlink:href="test-mem_8c.html" target="_top" xlink:title=" ">
<polygon fill="white" stroke="#666666" points="2437.01,-156.5 2342.01,-156.5 2342.01,-137.5 2437.01,-137.5 2437.01,-156.5"/>
<text text-anchor="middle" x="2389.51" y="-144.5" font-family="Helvetica,sans-Serif" font-size="10.00">test/test&#45;mem.c</text>
</a>
</g>
</g>
<!-- Node3&#45;&gt;Node17 -->
<g id="edge44_Node000003_Node000017" class="edge">
<title>Node3&#45;&gt;Node17</title>
<g id="a_edge44_Node000003_Node000017"><a xlink:title=" ">
<path fill="none" stroke="#63b8ff" d="M1217.27,-271.9C1430.28,-269.59 2117.59,-259.71 2211.51,-228 2233.59,-220.55 2233.87,-208.8 2254.51,-198 2288.62,-180.16 2330.55,-165.69 2358.54,-156.99"/>
<polygon fill="#63b8ff" stroke="#63b8ff" points="1217.48,-268.4 1207.52,-272 1217.55,-275.4 1217.48,-268.4"/>
</a>
</g>
</g>
<!-- Node18 -->
<g id="Node000018" class="node">
<title>Node18</title>
<g id="a_Node000018"><a xlink:href="test-null_8c.html" target="_top" xlink:title="Pass NULL values into libexif APIs and ensure it doesn&#39;t crash.">
<polygon fill="white" stroke="#666666" points="2542.01,-156.5 2455.01,-156.5 2455.01,-137.5 2542.01,-137.5 2542.01,-156.5"/>
<text text-anchor="middle" x="2498.51" y="-144.5" font-family="Helvetica,sans-Serif" font-size="10.00">test/test&#45;null.c</text>
</a>
</g>
</g>
<!-- Node3&#45;&gt;Node18 -->
<g id="edge46_Node000003_Node000018" class="edge">
<title>Node3&#45;&gt;Node18</title>
<g id="a_edge46_Node000003_Node000018"><a xlink:title=" ">
<path fill="none" stroke="#63b8ff" d="M1217.14,-272.92C1418.63,-273.82 2048.54,-272.86 2246.51,-228 2279.53,-220.52 2284.56,-209.18 2316.51,-198 2323.65,-195.5 2415.03,-170.64 2465.52,-156.94"/>
<polygon fill="#63b8ff" stroke="#63b8ff" points="1217.43,-269.42 1207.41,-272.88 1217.39,-276.42 1217.43,-269.42"/>
</a>
</g>
</g>
<!-- Node19 -->
<g id="Node000019" class="node">
<title>Node19</title>
<g id="a_Node000019"><a xlink:href="exif-mnote-data-fuji_8h.html" target="_top" xlink:title=" ">
<polygon fill="white" stroke="#666666" points="1713.51,-228 1591.51,-228 1591.51,-198 1713.51,-198 1713.51,-228"/>
<text text-anchor="start" x="1599.51" y="-216" font-family="Helvetica,sans-Serif" font-size="10.00">libexif/fuji/exif&#45;mnote</text>
<text text-anchor="middle" x="1652.51" y="-205" font-family="Helvetica,sans-Serif" font-size="10.00">&#45;data&#45;fuji.h</text>
</a>
</g>
</g>
<!-- Node3&#45;&gt;Node19 -->
<g id="edge24_Node000003_Node000019" class="edge">
<title>Node3&#45;&gt;Node19</title>
<g id="a_edge24_Node000003_Node000019"><a xlink:title=" ">
<path fill="none" stroke="#63b8ff" d="M1217.1,-267.84C1300.68,-261.2 1453.24,-247.6 1582.51,-228 1585.33,-227.57 1588.21,-227.11 1591.11,-226.62"/>
<polygon fill="#63b8ff" stroke="#63b8ff" points="1216.97,-264.34 1207.28,-268.62 1217.52,-271.32 1216.97,-264.34"/>
</a>
</g>
</g>
<!-- Node23 -->
<g id="Node000023" class="node">
<title>Node23</title>
<g id="a_Node000023"><a xlink:href="mnote-fuji-tag_8h.html" target="_top" xlink:title=" ">
<polygon fill="white" stroke="#666666" points="1573.01,-228 1472.01,-228 1472.01,-198 1573.01,-198 1573.01,-228"/>
<text text-anchor="start" x="1480.01" y="-216" font-family="Helvetica,sans-Serif" font-size="10.00">libexif/fuji/mnote</text>
<text text-anchor="middle" x="1522.51" y="-205" font-family="Helvetica,sans-Serif" font-size="10.00">&#45;fuji&#45;tag.h</text>
</a>
</g>
</g>
<!-- Node3&#45;&gt;Node23 -->
<g id="edge30_Node000003_Node000023" class="edge">
<title>Node3&#45;&gt;Node23</title>
<g id="a_edge30_Node000003_Node000023"><a xlink:title=" ">
<path fill="none" stroke="#63b8ff" d="M1216.93,-264.56C1278.33,-256.47 1374.64,-242.99 1457.51,-228 1462.17,-227.16 1467,-226.23 1471.84,-225.25"/>
<polygon fill="#63b8ff" stroke="#63b8ff" points="1216.84,-261.05 1207.38,-265.82 1217.75,-267.99 1216.84,-261.05"/>
</a>
</g>
</g>
<!-- Node25 -->
<g id="Node000025" class="node">
<title>Node25</title>
<g id="a_Node000025"><a xlink:href="exif-mnote-data-olympus_8c.html" target="_top" xlink:title=" ">
<polygon fill="white" stroke="#666666" points="761.01,-162 630.01,-162 630.01,-132 761.01,-132 761.01,-162"/>
<text text-anchor="start" x="638.01" y="-150" font-family="Helvetica,sans-Serif" font-size="10.00">libexif/olympus/exif</text>
<text text-anchor="middle" x="695.51" y="-139" font-family="Helvetica,sans-Serif" font-size="10.00">&#45;mnote&#45;data&#45;olympus.c</text>
</a>
</g>
</g>
<!-- Node3&#45;&gt;Node25 -->
<g id="edge33_Node000003_Node000025" class="edge">
<title>Node3&#45;&gt;Node25</title>
<g id="a_edge33_Node000003_Node000025"><a xlink:title=" ">
<path fill="none" stroke="#63b8ff" d="M1092.13,-263.82C947.79,-248.07 896.09,-291.87 769.51,-228 739.95,-213.08 716.23,-181.18 704.17,-162.48"/>
<polygon fill="#63b8ff" stroke="#63b8ff" points="1091.3,-267.25 1101.64,-264.94 1092.12,-260.29 1091.3,-267.25"/>
</a>
</g>
</g>
<!-- Node26 -->
<g id="Node000026" class="node">
<title>Node26</title>
<g id="a_Node000026"><a xlink:href="exif-mnote-data-olympus_8h.html" target="_top" xlink:title=" ">
<polygon fill="white" stroke="#666666" points="910.51,-228 778.51,-228 778.51,-198 910.51,-198 910.51,-228"/>
<text text-anchor="start" x="786.51" y="-216" font-family="Helvetica,sans-Serif" font-size="10.00">libexif/olympus/exif</text>
<text text-anchor="middle" x="844.51" y="-205" font-family="Helvetica,sans-Serif" font-size="10.00">&#45;mnote&#45;data&#45;olympus.h</text>
</a>
</g>
</g>
<!-- Node3&#45;&gt;Node26 -->
<g id="edge34_Node000003_Node000026" class="edge">
<title>Node3&#45;&gt;Node26</title>
<g id="a_edge34_Node000003_Node000026"><a xlink:title=" ">
<path fill="none" stroke="#63b8ff" d="M1095.91,-261.44C1043.21,-251.5 965.86,-236.9 910.9,-226.53"/>
<polygon fill="#63b8ff" stroke="#63b8ff" points="1095.13,-264.86 1105.61,-263.27 1096.43,-257.98 1095.13,-264.86"/>
</a>
</g>
</g>
<!-- Node27 -->
<g id="Node000027" class="node">
<title>Node27</title>
<g id="a_Node000027"><a xlink:href="exif-mnote-data-pentax_8h.html" target="_top" xlink:title=" ">
<polygon fill="white" stroke="#666666" points="1396.51,-228 1272.51,-228 1272.51,-198 1396.51,-198 1396.51,-228"/>
<text text-anchor="start" x="1280.51" y="-216" font-family="Helvetica,sans-Serif" font-size="10.00">libexif/pentax/exif</text>
<text text-anchor="middle" x="1334.51" y="-205" font-family="Helvetica,sans-Serif" font-size="10.00">&#45;mnote&#45;data&#45;pentax.h</text>
</a>
</g>
</g>
<!-- Node3&#45;&gt;Node27 -->
<g id="edge37_Node000003_Node000027" class="edge">
<title>Node3&#45;&gt;Node27</title>
<g id="a_edge37_Node000003_Node000027"><a xlink:title=" ">
<path fill="none" stroke="#63b8ff" d="M1192.6,-260.12C1221.1,-250.86 1260.16,-238.17 1290.08,-228.44"/>
<polygon fill="#63b8ff" stroke="#63b8ff" points="1191.72,-256.73 1183.29,-263.15 1193.88,-263.38 1191.72,-256.73"/>
</a>
</g>
</g>
<!-- Node29 -->
<g id="Node000029" class="node">
<title>Node29</title>
<g id="a_Node000029"><a xlink:href="test-extract_8c.html" target="_top" xlink:title="Extract EXIF data from a file and write it to another file.">
<polygon fill="white" stroke="#666666" points="137.51,-222.5 33.51,-222.5 33.51,-203.5 137.51,-203.5 137.51,-222.5"/>
<text text-anchor="middle" x="85.51" y="-210.5" font-family="Helvetica,sans-Serif" font-size="10.00">test/test&#45;extract.c</text>
</a>
</g>
</g>
<!-- Node3&#45;&gt;Node29 -->
<g id="edge40_Node000003_Node000029" class="edge">
<title>Node3&#45;&gt;Node29</title>
<g id="a_edge40_Node000003_Node000029"><a xlink:title=" ">
<path fill="none" stroke="#63b8ff" d="M1091.94,-263.88C672.6,-227.37 560.82,-282.92 146.51,-228 137.68,-226.83 128.25,-224.97 119.51,-222.99"/>
<polygon fill="#63b8ff" stroke="#63b8ff" points="1091.39,-267.34 1101.66,-264.74 1092.01,-260.37 1091.39,-267.34"/>
</a>
</g>
</g>
<!-- Node30 -->
<g id="Node000030" class="node">
<title>Node30</title>
<g id="a_Node000030"><a xlink:href="test-gps_8c.html" target="_top" xlink:title=" ">
<polygon fill="white" stroke="#666666" points="241.51,-222.5 155.51,-222.5 155.51,-203.5 241.51,-203.5 241.51,-222.5"/>
<text text-anchor="middle" x="198.51" y="-210.5" font-family="Helvetica,sans-Serif" font-size="10.00">test/test&#45;gps.c</text>
</a>
</g>
</g>
<!-- Node3&#45;&gt;Node30 -->
<g id="edge43_Node000003_Node000030" class="edge">
<title>Node3&#45;&gt;Node30</title>
<g id="a_edge43_Node000003_Node000030"><a xlink:title=" ">
<path fill="none" stroke="#63b8ff" d="M1091.76,-263.86C718.63,-230.73 617.88,-284.58 250.51,-228 242.94,-226.83 234.88,-224.98 227.42,-222.99"/>
<polygon fill="#63b8ff" stroke="#63b8ff" points="1091.38,-267.34 1101.66,-264.75 1092.01,-260.36 1091.38,-267.34"/>
</a>
</g>
</g>
<!-- Node31 -->
<g id="Node000031" class="node">
<title>Node31</title>
<g id="a_Node000031"><a xlink:href="test-mnote_8c.html" target="_top" xlink:title=" ">
<polygon fill="white" stroke="#666666" points="361.01,-222.5 260.01,-222.5 260.01,-203.5 361.01,-203.5 361.01,-222.5"/>
<text text-anchor="middle" x="310.51" y="-210.5" font-family="Helvetica,sans-Serif" font-size="10.00">test/test&#45;mnote.c</text>
</a>
</g>
</g>
<!-- Node3&#45;&gt;Node31 -->
<g id="edge45_Node000003_Node000031" class="edge">
<title>Node3&#45;&gt;Node31</title>
<g id="a_edge45_Node000003_Node000031"><a xlink:title=" ">
<path fill="none" stroke="#63b8ff" d="M1092.14,-263.87C771.43,-234.23 685.33,-272.92 369.51,-228 361.07,-226.8 352.07,-224.96 343.7,-223"/>
<polygon fill="#63b8ff" stroke="#63b8ff" points="1091.37,-267.32 1101.66,-264.77 1092.03,-260.35 1091.37,-267.32"/>
</a>
</g>
</g>
<!-- Node32 -->
<g id="Node000032" class="node">
<title>Node32</title>
<g id="a_Node000032"><a xlink:href="test-parse-from-data_8c.html" target="_top" xlink:title="Completely parse all files given on the command line.">
<polygon fill="white" stroke="#666666" points="494.01,-228 379.01,-228 379.01,-198 494.01,-198 494.01,-228"/>
<text text-anchor="start" x="387.01" y="-216" font-family="Helvetica,sans-Serif" font-size="10.00">test/test&#45;parse&#45;from</text>
<text text-anchor="middle" x="436.51" y="-205" font-family="Helvetica,sans-Serif" font-size="10.00">&#45;data.c</text>
</a>
</g>
</g>
<!-- Node3&#45;&gt;Node32 -->
<g id="edge47_Node000003_Node000032" class="edge">
<title>Node3&#45;&gt;Node32</title>
<g id="a_edge47_Node000003_Node000032"><a xlink:title=" ">
<path fill="none" stroke="#63b8ff" d="M1091.79,-263.82C830.72,-238.23 760.64,-262.51 503.51,-228 500.45,-227.59 497.32,-227.12 494.17,-226.6"/>
<polygon fill="#63b8ff" stroke="#63b8ff" points="1091.36,-267.29 1101.65,-264.8 1092.05,-260.32 1091.36,-267.29"/>
</a>
</g>
</g>
<!-- Node33 -->
<g id="Node000033" class="node">
<title>Node33</title>
<g id="a_Node000033"><a xlink:href="test-parse_8c.html" target="_top" xlink:title="Completely parse all files given on the command line.">
<polygon fill="white" stroke="#666666" points="608.51,-222.5 512.51,-222.5 512.51,-203.5 608.51,-203.5 608.51,-222.5"/>
<text text-anchor="middle" x="560.51" y="-210.5" font-family="Helvetica,sans-Serif" font-size="10.00">test/test&#45;parse.c</text>
</a>
</g>
</g>
<!-- Node3&#45;&gt;Node33 -->
<g id="edge48_Node000003_Node000033" class="edge">
<title>Node3&#45;&gt;Node33</title>
<g id="a_edge48_Node000003_Node000033"><a xlink:title=" ">
<path fill="none" stroke="#63b8ff" d="M1092.02,-263.81C881.2,-241.76 823.88,-260.9 617.51,-228 609.46,-226.72 600.88,-224.87 592.88,-222.93"/>
<polygon fill="#63b8ff" stroke="#63b8ff" points="1091.33,-267.26 1101.65,-264.84 1092.08,-260.3 1091.33,-267.26"/>
</a>
</g>
</g>
<!-- Node34 -->
<g id="Node000034" class="node">
<title>Node34</title>
<g id="a_Node000034"><a xlink:href="test-value_8c.html" target="_top" xlink:title=" ">
<polygon fill="white" stroke="#666666" points="722.51,-222.5 626.51,-222.5 626.51,-203.5 722.51,-203.5 722.51,-222.5"/>
<text text-anchor="middle" x="674.51" y="-210.5" font-family="Helvetica,sans-Serif" font-size="10.00">test/test&#45;value.c</text>
</a>
</g>
</g>
<!-- Node3&#45;&gt;Node34 -->
<g id="edge49_Node000003_Node000034" class="edge">
<title>Node3&#45;&gt;Node34</title>
<g id="a_edge49_Node000003_Node000034"><a xlink:title=" ">
<path fill="none" stroke="#63b8ff" d="M1092.05,-263.76C933.84,-245.16 890.81,-253.08 736.51,-228 728.13,-226.64 719.18,-224.83 710.76,-222.96"/>
<polygon fill="#63b8ff" stroke="#63b8ff" points="1091.3,-267.19 1101.64,-264.9 1092.13,-260.24 1091.3,-267.19"/>
</a>
</g>
</g>
<!-- Node5&#45;&gt;Node4 -->
<g id="edge5_Node000005_Node000004" class="edge">
<title>Node5&#45;&gt;Node4</title>
<g id="a_edge5_Node000005_Node000004"><a xlink:title=" ">
<path fill="none" stroke="#63b8ff" d="M990.83,-192.18C973.92,-182.52 953.97,-171.12 938.57,-162.31"/>
<polygon fill="#63b8ff" stroke="#63b8ff" points="988.65,-194.96 999.06,-196.89 992.12,-188.89 988.65,-194.96"/>
</a>
</g>
</g>
<!-- Node7&#45;&gt;Node6 -->
<g id="edge8_Node000007_Node000006" class="edge">
<title>Node7&#45;&gt;Node6</title>
<g id="a_edge8_Node000007_Node000006"><a xlink:title=" ">
<path fill="none" stroke="#63b8ff" d="M823.45,-69.8C736.22,-57.29 589.87,-36.28 508.2,-24.57"/>
<polygon fill="#63b8ff" stroke="#63b8ff" points="822.93,-73.26 833.33,-71.22 823.93,-66.34 822.93,-73.26"/>
</a>
</g>
</g>
<!-- Node7&#45;&gt;Node8 -->
<g id="edge9_Node000007_Node000008" class="edge">
<title>Node7&#45;&gt;Node8</title>
<g id="a_edge9_Node000007_Node000008"><a xlink:title=" ">
<path fill="none" stroke="#63b8ff" d="M965.36,-68.18C970.48,-67.42 975.58,-66.68 980.51,-66 1122.68,-46.44 1291.24,-29.04 1373.81,-20.89"/>
<polygon fill="#63b8ff" stroke="#63b8ff" points="964.99,-64.7 955.63,-69.67 966.05,-71.62 964.99,-64.7"/>
</a>
</g>
</g>
<!-- Node10 -->
<g id="Node000010" class="node">
<title>Node10</title>
<g id="a_Node000010"><a xlink:href="mnote-canon-entry_8h.html" target="_top" xlink:title=" ">
<polygon fill="white" stroke="#666666" points="1103.51,-162 989.51,-162 989.51,-132 1103.51,-132 1103.51,-162"/>
<text text-anchor="start" x="997.51" y="-150" font-family="Helvetica,sans-Serif" font-size="10.00">libexif/canon/mnote</text>
<text text-anchor="middle" x="1046.51" y="-139" font-family="Helvetica,sans-Serif" font-size="10.00">&#45;canon&#45;entry.h</text>
</a>
</g>
</g>
<!-- Node9&#45;&gt;Node10 -->
<g id="edge11_Node000009_Node000010" class="edge">
<title>Node9&#45;&gt;Node10</title>
<g id="a_edge11_Node000009_Node000010"><a xlink:title=" ">
<path fill="none" stroke="#63b8ff" d="M1153.33,-193.27C1130.1,-183.43 1102.07,-171.55 1080.55,-162.43"/>
<polygon fill="#63b8ff" stroke="#63b8ff" points="1151.66,-196.37 1162.23,-197.05 1154.39,-189.92 1151.66,-196.37"/>
</a>
</g>
</g>
<!-- Node12 -->
<g id="Node000012" class="node">
<title>Node12</title>
<g id="a_Node000012"><a xlink:href="mnote-canon-tag_8c.html" target="_top" xlink:title=" ">
<polygon fill="white" stroke="#666666" points="1235.51,-162 1121.51,-162 1121.51,-132 1235.51,-132 1235.51,-162"/>
<text text-anchor="start" x="1129.51" y="-150" font-family="Helvetica,sans-Serif" font-size="10.00">libexif/canon/mnote</text>
<text text-anchor="middle" x="1178.51" y="-139" font-family="Helvetica,sans-Serif" font-size="10.00">&#45;canon&#45;tag.c</text>
</a>
</g>
</g>
<!-- Node9&#45;&gt;Node12 -->
<g id="edge14_Node000009_Node000012" class="edge">
<title>Node9&#45;&gt;Node12</title>
<g id="a_edge14_Node000009_Node000012"><a xlink:title=" ">
<path fill="none" stroke="#63b8ff" d="M1190.08,-186.97C1187.58,-178.55 1184.88,-169.45 1182.72,-162.16"/>
<polygon fill="#63b8ff" stroke="#63b8ff" points="1186.67,-187.76 1192.87,-196.35 1193.38,-185.76 1186.67,-187.76"/>
</a>
</g>
</g>
<!-- Node10&#45;&gt;Node7 -->
<g id="edge12_Node000010_Node000007" class="edge">
<title>Node10&#45;&gt;Node7</title>
<g id="a_edge12_Node000010_Node000007"><a xlink:title=" ">
<path fill="none" stroke="#63b8ff" d="M1002.04,-127.27C978.66,-117.43 950.44,-105.55 928.77,-96.43"/>
<polygon fill="#63b8ff" stroke="#63b8ff" points="1000.43,-130.39 1011.01,-131.05 1003.15,-123.94 1000.43,-130.39"/>
</a>
</g>
</g>
<!-- Node11 -->
<g id="Node000011" class="node">
<title>Node11</title>
<g id="a_Node000011"><a xlink:href="mnote-canon-entry_8c.html" target="_top" xlink:title=" ">
<polygon fill="white" stroke="#666666" points="1103.51,-96 989.51,-96 989.51,-66 1103.51,-66 1103.51,-96"/>
<text text-anchor="start" x="997.51" y="-84" font-family="Helvetica,sans-Serif" font-size="10.00">libexif/canon/mnote</text>
<text text-anchor="middle" x="1046.51" y="-73" font-family="Helvetica,sans-Serif" font-size="10.00">&#45;canon&#45;entry.c</text>
</a>
</g>
</g>
<!-- Node10&#45;&gt;Node11 -->
<g id="edge13_Node000010_Node000011" class="edge">
<title>Node10&#45;&gt;Node11</title>
<g id="a_edge13_Node000010_Node000011"><a xlink:title=" ">
<path fill="none" stroke="#63b8ff" d="M1046.51,-120.39C1046.51,-112.13 1046.51,-103.28 1046.51,-96.16"/>
<polygon fill="#63b8ff" stroke="#63b8ff" points="1043.01,-120.28 1046.51,-130.28 1050.01,-120.28 1043.01,-120.28"/>
</a>
</g>
</g>
<!-- Node13&#45;&gt;Node8 -->
<g id="edge18_Node000013_Node000008" class="edge">
<title>Node13&#45;&gt;Node8</title>
<g id="a_edge18_Node000013_Node000008"><a xlink:title=" ">
<path fill="none" stroke="#63b8ff" d="M2159.16,-193.94C2169.87,-176.23 2181.31,-149.43 2166.51,-132 2077.18,-26.76 1627.97,-16.25 1475.35,-15.77"/>
<polygon fill="#63b8ff" stroke="#63b8ff" points="2156.5,-191.62 2153.98,-201.91 2162.37,-195.44 2156.5,-191.62"/>
</a>
</g>
</g>
<!-- Node14 -->
<g id="Node000014" class="node">
<title>Node14</title>
<g id="a_Node000014"><a xlink:href="exif-loader_8c.html" target="_top" xlink:title=" ">
<polygon fill="white" stroke="#666666" points="2323.51,-156.5 2213.51,-156.5 2213.51,-137.5 2323.51,-137.5 2323.51,-156.5"/>
<text text-anchor="middle" x="2268.51" y="-144.5" font-family="Helvetica,sans-Serif" font-size="10.00">libexif/exif&#45;loader.c</text>
</a>
</g>
</g>
<!-- Node13&#45;&gt;Node14 -->
<g id="edge19_Node000013_Node000014" class="edge">
<title>Node13&#45;&gt;Node14</title>
<g id="a_edge19_Node000013_Node000014"><a xlink:title=" ">
<path fill="none" stroke="#63b8ff" d="M2173.65,-197.76C2197.53,-185.24 2231.55,-167.39 2251.69,-156.82"/>
<polygon fill="#63b8ff" stroke="#63b8ff" points="2172.05,-194.65 2164.82,-202.4 2175.3,-200.85 2172.05,-194.65"/>
</a>
</g>
</g>
<!-- Node13&#45;&gt;Node15 -->
<g id="edge20_Node000013_Node000015" class="edge">
<title>Node13&#45;&gt;Node15</title>
<g id="a_edge20_Node000013_Node000015"><a xlink:title=" ">
<path fill="none" stroke="#63b8ff" d="M2110.78,-199.43C2075.16,-186.91 2021.36,-167.99 1989.9,-156.93"/>
<polygon fill="#63b8ff" stroke="#63b8ff" points="2109.18,-202.58 2119.78,-202.6 2111.51,-195.98 2109.18,-202.58"/>
</a>
</g>
</g>
<!-- Node13&#45;&gt;Node16 -->
<g id="edge21_Node000013_Node000016" class="edge">
<title>Node13&#45;&gt;Node16</title>
<g id="a_edge21_Node000013_Node000016"><a xlink:title=" ">
<path fill="none" stroke="#63b8ff" d="M2135.26,-193.53C2127.91,-181.46 2118.63,-166.25 2112.89,-156.82"/>
<polygon fill="#63b8ff" stroke="#63b8ff" points="2132.11,-195.09 2140.3,-201.81 2138.09,-191.45 2132.11,-195.09"/>
</a>
</g>
</g>
<!-- Node13&#45;&gt;Node17 -->
<g id="edge22_Node000013_Node000017" class="edge">
<title>Node13&#45;&gt;Node17</title>
<g id="a_edge22_Node000013_Node000017"><a xlink:title=" ">
<path fill="none" stroke="#63b8ff" d="M2191.45,-200.16C2238.98,-187.65 2312.88,-168.18 2355.7,-156.91"/>
<polygon fill="#63b8ff" stroke="#63b8ff" points="2190.8,-196.72 2182.02,-202.65 2192.58,-203.49 2190.8,-196.72"/>
</a>
</g>
</g>
<!-- Node13&#45;&gt;Node18 -->
<g id="edge23_Node000013_Node000018" class="edge">
<title>Node13&#45;&gt;Node18</title>
<g id="a_edge23_Node000013_Node000018"><a xlink:title=" ">
<path fill="none" stroke="#63b8ff" d="M2213.41,-202.77C2274.45,-193.89 2366.98,-179.29 2446.51,-162 2453.27,-160.53 2460.47,-158.74 2467.29,-156.94"/>
<polygon fill="#63b8ff" stroke="#63b8ff" points="2213.29,-199.25 2203.89,-204.14 2214.29,-206.18 2213.29,-199.25"/>
</a>
</g>
</g>
<!-- Node19&#45;&gt;Node8 -->
<g id="edge25_Node000019_Node000008" class="edge">
<title>Node19&#45;&gt;Node8</title>
<g id="a_edge25_Node000019_Node000008"><a xlink:title=" ">
<path fill="none" stroke="#63b8ff" d="M1724.76,-195.04C1776.51,-182.55 1837.73,-166.92 1841.51,-162 1849.65,-151.43 1848.65,-143.26 1841.51,-132 1801.98,-69.65 1577.45,-34.67 1475.21,-21.78"/>
<polygon fill="#63b8ff" stroke="#63b8ff" points="1724.26,-191.56 1715.35,-197.3 1725.89,-198.37 1724.26,-191.56"/>
</a>
</g>
</g>
<!-- Node20 -->
<g id="Node000020" class="node">
<title>Node20</title>
<g id="a_Node000020"><a xlink:href="exif-mnote-data-fuji_8c.html" target="_top" xlink:title=" ">
<polygon fill="white" stroke="#666666" points="1832.51,-162 1710.51,-162 1710.51,-132 1832.51,-132 1832.51,-162"/>
<text text-anchor="start" x="1718.51" y="-150" font-family="Helvetica,sans-Serif" font-size="10.00">libexif/fuji/exif&#45;mnote</text>
<text text-anchor="middle" x="1771.51" y="-139" font-family="Helvetica,sans-Serif" font-size="10.00">&#45;data&#45;fuji.c</text>
</a>
</g>
</g>
<!-- Node19&#45;&gt;Node20 -->
<g id="edge26_Node000019_Node000020" class="edge">
<title>Node19&#45;&gt;Node20</title>
<g id="a_edge26_Node000019_Node000020"><a xlink:title=" ">
<path fill="none" stroke="#63b8ff" d="M1689.11,-192.32C1707.13,-182.63 1728.46,-171.16 1744.9,-162.31"/>
<polygon fill="#63b8ff" stroke="#63b8ff" points="1687.7,-189.1 1680.55,-196.92 1691.02,-195.27 1687.7,-189.1"/>
</a>
</g>
</g>
<!-- Node21 -->
<g id="Node000021" class="node">
<title>Node21</title>
<g id="a_Node000021"><a xlink:href="mnote-fuji-entry_8h.html" target="_top" xlink:title=" ">
<polygon fill="white" stroke="#666666" points="1692.01,-162 1591.01,-162 1591.01,-132 1692.01,-132 1692.01,-162"/>
<text text-anchor="start" x="1599.01" y="-150" font-family="Helvetica,sans-Serif" font-size="10.00">libexif/fuji/mnote</text>
<text text-anchor="middle" x="1641.51" y="-139" font-family="Helvetica,sans-Serif" font-size="10.00">&#45;fuji&#45;entry.h</text>
</a>
</g>
</g>
<!-- Node19&#45;&gt;Node21 -->
<g id="edge27_Node000019_Node000021" class="edge">
<title>Node19&#45;&gt;Node21</title>
<g id="a_edge27_Node000019_Node000021"><a xlink:title=" ">
<path fill="none" stroke="#63b8ff" d="M1641.54,-186.68C1639.78,-178.34 1638.53,-169.37 1638.23,-162.16"/>
<polygon fill="#63b8ff" stroke="#63b8ff" points="1638.14,-187.49 1643.98,-196.33 1644.93,-185.78 1638.14,-187.49"/>
</a>
</g>
</g>
<!-- Node21&#45;&gt;Node19 -->
<g id="edge28_Node000021_Node000019" class="edge">
<title>Node21&#45;&gt;Node19</title>
<g id="a_edge28_Node000021_Node000019"><a xlink:title=" ">
<path fill="none" stroke="#63b8ff" d="M1652.47,-173.27C1654.24,-181.61 1655.49,-190.59 1655.79,-197.8"/>
<polygon fill="#63b8ff" stroke="#63b8ff" points="1655.88,-172.47 1650.03,-163.63 1649.09,-174.18 1655.88,-172.47"/>
</a>
</g>
</g>
<!-- Node22 -->
<g id="Node000022" class="node">
<title>Node22</title>
<g id="a_Node000022"><a xlink:href="mnote-fuji-entry_8c.html" target="_top" xlink:title=" ">
<polygon fill="white" stroke="#666666" points="1692.01,-96 1591.01,-96 1591.01,-66 1692.01,-66 1692.01,-96"/>
<text text-anchor="start" x="1599.01" y="-84" font-family="Helvetica,sans-Serif" font-size="10.00">libexif/fuji/mnote</text>
<text text-anchor="middle" x="1641.51" y="-73" font-family="Helvetica,sans-Serif" font-size="10.00">&#45;fuji&#45;entry.c</text>
</a>
</g>
</g>
<!-- Node21&#45;&gt;Node22 -->
<g id="edge29_Node000021_Node000022" class="edge">
<title>Node21&#45;&gt;Node22</title>
<g id="a_edge29_Node000021_Node000022"><a xlink:title=" ">
<path fill="none" stroke="#63b8ff" d="M1641.51,-120.39C1641.51,-112.13 1641.51,-103.28 1641.51,-96.16"/>
<polygon fill="#63b8ff" stroke="#63b8ff" points="1638.01,-120.28 1641.51,-130.28 1645.01,-120.28 1638.01,-120.28"/>
</a>
</g>
</g>
<!-- Node23&#45;&gt;Node21 -->
<g id="edge31_Node000023_Node000021" class="edge">
<title>Node23&#45;&gt;Node21</title>
<g id="a_edge31_Node000023_Node000021"><a xlink:title=" ">
<path fill="none" stroke="#63b8ff" d="M1559.11,-192.32C1577.13,-182.63 1598.46,-171.16 1614.9,-162.31"/>
<polygon fill="#63b8ff" stroke="#63b8ff" points="1557.7,-189.1 1550.55,-196.92 1561.02,-195.27 1557.7,-189.1"/>
</a>
</g>
</g>
<!-- Node24 -->
<g id="Node000024" class="node">
<title>Node24</title>
<g id="a_Node000024"><a xlink:href="mnote-fuji-tag_8c.html" target="_top" xlink:title=" ">
<polygon fill="white" stroke="#666666" points="1573.01,-162 1472.01,-162 1472.01,-132 1573.01,-132 1573.01,-162"/>
<text text-anchor="start" x="1480.01" y="-150" font-family="Helvetica,sans-Serif" font-size="10.00">libexif/fuji/mnote</text>
<text text-anchor="middle" x="1522.51" y="-139" font-family="Helvetica,sans-Serif" font-size="10.00">&#45;fuji&#45;tag.c</text>
</a>
</g>
</g>
<!-- Node23&#45;&gt;Node24 -->
<g id="edge32_Node000023_Node000024" class="edge">
<title>Node23&#45;&gt;Node24</title>
<g id="a_edge32_Node000023_Node000024"><a xlink:title=" ">
<path fill="none" stroke="#63b8ff" d="M1522.51,-186.39C1522.51,-178.13 1522.51,-169.28 1522.51,-162.16"/>
<polygon fill="#63b8ff" stroke="#63b8ff" points="1519.01,-186.28 1522.51,-196.28 1526.01,-186.28 1519.01,-186.28"/>
</a>
</g>
</g>
<!-- Node26&#45;&gt;Node8 -->
<g id="edge35_Node000026_Node000008" class="edge">
<title>Node26&#45;&gt;Node8</title>
<g id="a_edge35_Node000026_Node000008"><a xlink:title=" ">
<path fill="none" stroke="#63b8ff" d="M831.21,-187.89C815.48,-155.76 795.04,-99.13 825.51,-66 862.3,-26.02 1235.62,-18 1373.61,-16.4"/>
<polygon fill="#63b8ff" stroke="#63b8ff" points="827.91,-189.13 835.59,-196.43 834.14,-185.93 827.91,-189.13"/>
</a>
</g>
</g>
<!-- Node26&#45;&gt;Node25 -->
<g id="edge36_Node000026_Node000025" class="edge">
<title>Node26&#45;&gt;Node25</title>
<g id="a_edge36_Node000026_Node000025"><a xlink:title=" ">
<path fill="none" stroke="#63b8ff" d="M800.61,-193.14C777.75,-183.32 750.24,-171.51 729.1,-162.43"/>
<polygon fill="#63b8ff" stroke="#63b8ff" points="799.12,-196.31 809.68,-197.04 801.88,-189.88 799.12,-196.31"/>
</a>
</g>
</g>
<!-- Node27&#45;&gt;Node8 -->
<g id="edge38_Node000027_Node000008" class="edge">
<title>Node27&#45;&gt;Node8</title>
<g id="a_edge38_Node000027_Node000008"><a xlink:title=" ">
<path fill="none" stroke="#63b8ff" d="M1362.74,-190.16C1371.47,-182.15 1380.39,-172.46 1386.51,-162 1413.91,-115.22 1421.85,-48.63 1423.88,-24.86"/>
<polygon fill="#63b8ff" stroke="#63b8ff" points="1360.59,-187.4 1355.32,-196.59 1365.17,-192.69 1360.59,-187.4"/>
</a>
</g>
</g>
<!-- Node28 -->
<g id="Node000028" class="node">
<title>Node28</title>
<g id="a_Node000028"><a xlink:href="exif-mnote-data-pentax_8c.html" target="_top" xlink:title=" ">
<polygon fill="white" stroke="#666666" points="1377.01,-162 1254.01,-162 1254.01,-132 1377.01,-132 1377.01,-162"/>
<text text-anchor="start" x="1262.01" y="-150" font-family="Helvetica,sans-Serif" font-size="10.00">libexif/pentax/exif</text>
<text text-anchor="middle" x="1315.51" y="-139" font-family="Helvetica,sans-Serif" font-size="10.00">&#45;mnote&#45;data&#45;pentax.c</text>
</a>
</g>
</g>
<!-- Node27&#45;&gt;Node28 -->
<g id="edge39_Node000027_Node000028" class="edge">
<title>Node27&#45;&gt;Node28</title>
<g id="a_edge39_Node000027_Node000028"><a xlink:title=" ">
<path fill="none" stroke="#63b8ff" d="M1327.08,-186.97C1324.58,-178.55 1321.88,-169.45 1319.72,-162.16"/>
<polygon fill="#63b8ff" stroke="#63b8ff" points="1323.67,-187.76 1329.87,-196.35 1330.38,-185.76 1323.67,-187.76"/>
</a>
</g>
</g>
<!-- Node35&#45;&gt;Node1 -->
<g id="edge52_Node000035_Node000001" class="edge">
<title>Node35&#45;&gt;Node1</title>
<g id="a_edge52_Node000035_Node000001"><a xlink:title=" ">
<path fill="none" stroke="#63b8ff" d="M2330.98,-277.36C2116.34,-286.73 1420.45,-316.47 1213.22,-325.12"/>
<polygon fill="#63b8ff" stroke="#63b8ff" points="2330.98,-280.86 2340.82,-276.92 2330.68,-273.87 2330.98,-280.86"/>
</a>
</g>
</g>
<!-- Node35&#45;&gt;Node18 -->
<g id="edge56_Node000035_Node000018" class="edge">
<title>Node35&#45;&gt;Node18</title>
<g id="a_edge56_Node000035_Node000018"><a xlink:title=" ">
<path fill="none" stroke="#63b8ff" d="M2359.91,-258.54C2347.02,-251.44 2333.77,-241.42 2326.51,-228 2320.17,-216.27 2318.51,-208.66 2326.51,-198 2328.66,-195.14 2416.58,-170.56 2465.86,-156.96"/>
<polygon fill="#63b8ff" stroke="#63b8ff" points="2358.19,-261.59 2368.7,-262.94 2361.33,-255.33 2358.19,-261.59"/>
</a>
</g>
</g>
<!-- Node36 -->
<g id="Node000036" class="node">
<title>Node36</title>
<g id="a_Node000036"><a xlink:href="mnote-apple-entry_8c.html" target="_top" xlink:title=" ">
<polygon fill="white" stroke="#666666" points="2584.51,-228 2472.51,-228 2472.51,-198 2584.51,-198 2584.51,-228"/>
<text text-anchor="start" x="2480.51" y="-216" font-family="Helvetica,sans-Serif" font-size="10.00">libexif/apple/mnote</text>
<text text-anchor="middle" x="2528.51" y="-205" font-family="Helvetica,sans-Serif" font-size="10.00">&#45;apple&#45;entry.c</text>
</a>
</g>
</g>
<!-- Node35&#45;&gt;Node36 -->
<g id="edge51_Node000035_Node000036" class="edge">
<title>Node35&#45;&gt;Node36</title>
<g id="a_edge51_Node000035_Node000036"><a xlink:title=" ">
<path fill="none" stroke="#63b8ff" d="M2425.15,-259.13C2446.13,-249.96 2473.95,-237.82 2495.44,-228.44"/>
<polygon fill="#63b8ff" stroke="#63b8ff" points="2424.02,-255.8 2416.25,-263.01 2426.82,-262.22 2424.02,-255.8"/>
</a>
</g>
</g>
<!-- Node37 -->
<g id="Node000037" class="node">
<title>Node37</title>
<g id="a_Node000037"><a xlink:href="exif-entry_8c.html" target="_top" xlink:title=" ">
<polygon fill="white" stroke="#666666" points="2706.51,-222.5 2602.51,-222.5 2602.51,-203.5 2706.51,-203.5 2706.51,-222.5"/>
<text text-anchor="middle" x="2654.51" y="-210.5" font-family="Helvetica,sans-Serif" font-size="10.00">libexif/exif&#45;entry.c</text>
</a>
</g>
</g>
<!-- Node35&#45;&gt;Node37 -->
<g id="edge53_Node000035_Node000037" class="edge">
<title>Node35&#45;&gt;Node37</title>
<g id="a_edge53_Node000035_Node000037"><a xlink:title=" ">
<path fill="none" stroke="#63b8ff" d="M2446.05,-261.06C2486.24,-252.12 2543.44,-239.34 2593.51,-228 2600.61,-226.39 2608.18,-224.67 2615.47,-222.99"/>
<polygon fill="#63b8ff" stroke="#63b8ff" points="2445.41,-257.62 2436.41,-263.2 2446.93,-264.45 2445.41,-257.62"/>
</a>
</g>
</g>
<!-- Node38 -->
<g id="Node000038" class="node">
<title>Node38</title>
<g id="a_Node000038"><a xlink:href="mnote-olympus-entry_8c.html" target="_top" xlink:title=" ">
<polygon fill="white" stroke="#666666" points="2852.01,-228 2725.01,-228 2725.01,-198 2852.01,-198 2852.01,-228"/>
<text text-anchor="start" x="2733.01" y="-216" font-family="Helvetica,sans-Serif" font-size="10.00">libexif/olympus/mnote</text>
<text text-anchor="middle" x="2788.51" y="-205" font-family="Helvetica,sans-Serif" font-size="10.00">&#45;olympus&#45;entry.c</text>
</a>
</g>
</g>
<!-- Node35&#45;&gt;Node38 -->
<g id="edge54_Node000035_Node000038" class="edge">
<title>Node35&#45;&gt;Node38</title>
<g id="a_edge54_Node000035_Node000038"><a xlink:title=" ">
<path fill="none" stroke="#63b8ff" d="M2458.16,-264.66C2523.03,-256.44 2626.49,-242.7 2715.51,-228 2718.57,-227.5 2721.69,-226.96 2724.85,-226.41"/>
<polygon fill="#63b8ff" stroke="#63b8ff" points="2457.89,-261.17 2448.41,-265.89 2458.76,-268.11 2457.89,-261.17"/>
</a>
</g>
</g>
<!-- Node39 -->
<g id="Node000039" class="node">
<title>Node39</title>
<g id="a_Node000039"><a xlink:href="mnote-pentax-entry_8c.html" target="_top" xlink:title=" ">
<polygon fill="white" stroke="#666666" points="2454.01,-228 2335.01,-228 2335.01,-198 2454.01,-198 2454.01,-228"/>
<text text-anchor="start" x="2343.01" y="-216" font-family="Helvetica,sans-Serif" font-size="10.00">libexif/pentax/mnote</text>
<text text-anchor="middle" x="2394.51" y="-205" font-family="Helvetica,sans-Serif" font-size="10.00">&#45;pentax&#45;entry.c</text>
</a>
</g>
</g>
<!-- Node35&#45;&gt;Node39 -->
<g id="edge55_Node000035_Node000039" class="edge">
<title>Node35&#45;&gt;Node39</title>
<g id="a_edge55_Node000035_Node000039"><a xlink:title=" ">
<path fill="none" stroke="#63b8ff" d="M2394.51,-252.51C2394.51,-244.49 2394.51,-235.43 2394.51,-228.11"/>
<polygon fill="#63b8ff" stroke="#63b8ff" points="2391.01,-252.35 2394.51,-262.35 2398.01,-252.35 2391.01,-252.35"/>
</a>
</g>
</g>
</g>
</svg>
