<?xml version="1.0" encoding="UTF-8" standalone="no"?>
<!DOCTYPE svg PUBLIC "-//W3C//DTD SVG 1.1//EN"
 "http://www.w3.org/Graphics/SVG/1.1/DTD/svg11.dtd">
<!-- Generated by graphviz version 2.44.1 (0)
 -->
<!-- Title: exif_loader_copy Pages: 1 -->
<svg width="375pt" height="28pt"
 viewBox="0.00 0.00 375.00 28.00" xmlns="http://www.w3.org/2000/svg" xmlns:xlink="http://www.w3.org/1999/xlink">
<g id="graph0" class="graph" transform="scale(1 1) rotate(0) translate(4 24)">
<title>exif_loader_copy</title>
<polygon fill="white" stroke="transparent" points="-4,4 -4,-24 371,-24 371,4 -4,4"/>
<!-- Node1 -->
<g id="node1" class="node">
<title>Node1</title>
<g id="a_node1"><a xlink:title=" ">
<polygon fill="#bfbfbf" stroke="black" points="0,-0.5 0,-19.5 100,-19.5 100,-0.5 0,-0.5"/>
<text text-anchor="middle" x="50" y="-7.5" font-family="Helvetica,sans-Serif" font-size="10.00">exif_loader_copy</text>
</a>
</g>
</g>
<!-- Node2 -->
<g id="node2" class="node">
<title>Node2</title>
<g id="a_node2"><a xlink:href="exif-loader_8c.html#af5432ecf056b1facede9da071bb9d6a2" target="_top" xlink:title=" ">
<polygon fill="white" stroke="black" points="136,-0.5 136,-19.5 236,-19.5 236,-0.5 136,-0.5"/>
<text text-anchor="middle" x="186" y="-7.5" font-family="Helvetica,sans-Serif" font-size="10.00">exif_loader_alloc</text>
</a>
</g>
</g>
<!-- Node1&#45;&gt;Node2 -->
<g id="edge1" class="edge">
<title>Node1&#45;&gt;Node2</title>
<path fill="none" stroke="midnightblue" d="M100.14,-10C108.42,-10 117.1,-10 125.61,-10"/>
<polygon fill="midnightblue" stroke="midnightblue" points="125.87,-13.5 135.87,-10 125.87,-6.5 125.87,-13.5"/>
</g>
<!-- Node3 -->
<g id="node3" class="node">
<title>Node3</title>
<g id="a_node3"><a xlink:href="exif-mem_8c.html#ae8c09cfbcb95e435c4c4b7ec3bbd79e4" target="_top" xlink:title=" ">
<polygon fill="white" stroke="black" points="272,-0.5 272,-19.5 367,-19.5 367,-0.5 272,-0.5"/>
<text text-anchor="middle" x="319.5" y="-7.5" font-family="Helvetica,sans-Serif" font-size="10.00">exif_mem_alloc</text>
</a>
</g>
</g>
<!-- Node2&#45;&gt;Node3 -->
<g id="edge2" class="edge">
<title>Node2&#45;&gt;Node3</title>
<path fill="none" stroke="midnightblue" d="M236.34,-10C244.63,-10 253.29,-10 261.75,-10"/>
<polygon fill="midnightblue" stroke="midnightblue" points="261.93,-13.5 271.93,-10 261.93,-6.5 261.93,-13.5"/>
</g>
</g>
</svg>
