<?xml version="1.0" encoding="UTF-8" standalone="no"?>
<!DOCTYPE svg PUBLIC "-//W3C//DTD SVG 1.1//EN"
 "http://www.w3.org/Graphics/SVG/1.1/DTD/svg11.dtd">
<!-- Generated by graphviz version 7.0.1 (0)
 -->
<!-- Title: exif_mnote_data_canon_free Pages: 1 -->
<svg width="463pt" height="38pt"
 viewBox="0.00 0.00 463.00 38.00" xmlns="http://www.w3.org/2000/svg" xmlns:xlink="http://www.w3.org/1999/xlink">
<g id="graph0" class="graph" transform="scale(1 1) rotate(0) translate(4 34)">
<title>exif_mnote_data_canon_free</title>
<!-- Node1 -->
<g id="Node000001" class="node">
<title>Node1</title>
<g id="a_Node000001"><a xlink:title=" ">
<polygon fill="#999999" stroke="#666666" points="158,-24.5 0,-24.5 0,-5.5 158,-5.5 158,-24.5"/>
<text text-anchor="middle" x="79" y="-12.5" font-family="Helvetica,sans-Serif" font-size="10.00">exif_mnote_data_canon_free</text>
</a>
</g>
</g>
<!-- Node2 -->
<g id="Node000002" class="node">
<title>Node2</title>
<g id="a_Node000002"><a xlink:href="exif-mnote-data-canon_8c.html#a9d89c4c6d3b77e8b33e0711b346d0613" target="_top" xlink:title=" ">
<polygon fill="white" stroke="#666666" points="328,-30 194,-30 194,0 328,0 328,-30"/>
<text text-anchor="start" x="202" y="-18" font-family="Helvetica,sans-Serif" font-size="10.00">exif_mnote_data_canon</text>
<text text-anchor="middle" x="261" y="-7" font-family="Helvetica,sans-Serif" font-size="10.00">_clear</text>
</a>
</g>
</g>
<!-- Node1&#45;&gt;Node2 -->
<g id="edge1_Node000001_Node000002" class="edge">
<title>Node1&#45;&gt;Node2</title>
<g id="a_edge1_Node000001_Node000002"><a xlink:title=" ">
<path fill="none" stroke="#63b8ff" d="M158.43,-15C166.32,-15 174.33,-15 182.22,-15"/>
<polygon fill="#63b8ff" stroke="#63b8ff" points="182.14,-18.5 192.14,-15 182.14,-11.5 182.14,-18.5"/>
</a>
</g>
</g>
<!-- Node3 -->
<g id="Node000003" class="node">
<title>Node3</title>
<g id="a_Node000003"><a xlink:href="exif-mem_8c.html#a43190b81b4b4bdb4ffb89bfb612051b1" target="_top" xlink:title=" ">
<polygon fill="white" stroke="#666666" points="455,-24.5 364,-24.5 364,-5.5 455,-5.5 455,-24.5"/>
<text text-anchor="middle" x="409.5" y="-12.5" font-family="Helvetica,sans-Serif" font-size="10.00">exif_mem_free</text>
</a>
</g>
</g>
<!-- Node2&#45;&gt;Node3 -->
<g id="edge2_Node000002_Node000003" class="edge">
<title>Node2&#45;&gt;Node3</title>
<g id="a_edge2_Node000002_Node000003"><a xlink:title=" ">
<path fill="none" stroke="#63b8ff" d="M328.39,-15C336.43,-15 344.58,-15 352.44,-15"/>
<polygon fill="#63b8ff" stroke="#63b8ff" points="352.21,-18.5 362.21,-15 352.21,-11.5 352.21,-18.5"/>
</a>
</g>
</g>
</g>
</svg>
