<?xml version="1.0" encoding="UTF-8" standalone="no"?>
<!DOCTYPE svg PUBLIC "-//W3C//DTD SVG 1.1//EN"
 "http://www.w3.org/Graphics/SVG/1.1/DTD/svg11.dtd">
<!-- Generated by graphviz version 7.0.1 (0)
 -->
<!-- Title: exif_tag_table_first Pages: 1 -->
<svg width="274pt" height="64pt"
 viewBox="0.00 0.00 274.00 64.00" xmlns="http://www.w3.org/2000/svg" xmlns:xlink="http://www.w3.org/1999/xlink">
<g id="graph0" class="graph" transform="scale(1 1) rotate(0) translate(4 60)">
<title>exif_tag_table_first</title>
<!-- Node1 -->
<g id="Node000001" class="node">
<title>Node1</title>
<g id="a_Node000001"><a xlink:title="Finds the first entry in the EXIF tag table with the given tag number using a binary search.">
<polygon fill="#999999" stroke="#666666" points="111,-37 0,-37 0,-18 111,-18 111,-37"/>
<text text-anchor="middle" x="55.5" y="-25" font-family="Helvetica,sans-Serif" font-size="10.00">exif_tag_table_first</text>
</a>
</g>
</g>
<!-- Node2 -->
<g id="Node000002" class="node">
<title>Node2</title>
<g id="a_Node000002"><a xlink:href="exif-tag_8c.html#a87563ee64809f5f0deb4d780098508c1" target="_top" xlink:title="Return the number of entries in the EXIF tag table, including the terminating NULL entry.">
<polygon fill="white" stroke="#666666" points="266,-56 147,-56 147,-37 266,-37 266,-56"/>
<text text-anchor="middle" x="206.5" y="-44" font-family="Helvetica,sans-Serif" font-size="10.00">exif_tag_table_count</text>
</a>
</g>
</g>
<!-- Node1&#45;&gt;Node2 -->
<g id="edge1_Node000001_Node000002" class="edge">
<title>Node1&#45;&gt;Node2</title>
<g id="a_edge1_Node000001_Node000002"><a xlink:title=" ">
<path fill="none" stroke="#63b8ff" d="M111.14,-34.47C118.98,-35.47 127.15,-36.51 135.24,-37.54"/>
<polygon fill="#63b8ff" stroke="#63b8ff" points="134.74,-41.01 145.1,-38.8 135.63,-34.06 134.74,-41.01"/>
</a>
</g>
</g>
<!-- Node3 -->
<g id="Node000003" class="node">
<title>Node3</title>
<g id="a_Node000003"><a xlink:href="exif-tag_8c.html#a220c1b18832f113bc84ff9551754915f" target="_top" xlink:title="Compares the tag with that in entry.">
<polygon fill="white" stroke="#666666" points="240.5,-19 172.5,-19 172.5,0 240.5,0 240.5,-19"/>
<text text-anchor="middle" x="206.5" y="-7" font-family="Helvetica,sans-Serif" font-size="10.00">match_tag</text>
</a>
</g>
</g>
<!-- Node1&#45;&gt;Node3 -->
<g id="edge2_Node000001_Node000003" class="edge">
<title>Node1&#45;&gt;Node3</title>
<g id="a_edge2_Node000001_Node000003"><a xlink:title=" ">
<path fill="none" stroke="#63b8ff" d="M111.14,-20.9C127.58,-18.91 145.41,-16.76 161.1,-14.86"/>
<polygon fill="#63b8ff" stroke="#63b8ff" points="161.09,-18.39 170.6,-13.72 160.25,-11.44 161.09,-18.39"/>
</a>
</g>
</g>
</g>
</svg>
