<?xml version="1.0" encoding="UTF-8" standalone="no"?>
<!DOCTYPE svg PUBLIC "-//W3C//DTD SVG 1.1//EN"
 "http://www.w3.org/Graphics/SVG/1.1/DTD/svg11.dtd">
<!-- Generated by graphviz version 7.0.1 (0)
 -->
<!-- Title: exif_tag_get_title Pages: 1 -->
<svg width="553pt" height="88pt"
 viewBox="0.00 0.00 553.00 88.00" xmlns="http://www.w3.org/2000/svg" xmlns:xlink="http://www.w3.org/1999/xlink">
<g id="graph0" class="graph" transform="scale(1 1) rotate(0) translate(4 84)">
<title>exif_tag_get_title</title>
<!-- Node1 -->
<g id="Node000001" class="node">
<title>Node1</title>
<g id="a_Node000001"><a xlink:title=" ">
<polygon fill="#999999" stroke="#666666" points="102,-58 0,-58 0,-39 102,-39 102,-58"/>
<text text-anchor="middle" x="51" y="-46" font-family="Helvetica,sans-Serif" font-size="10.00">exif_tag_get_title</text>
</a>
</g>
</g>
<!-- Node2 -->
<g id="Node000002" class="node">
<title>Node2</title>
<g id="a_Node000002"><a xlink:href="exif-tag_8c.html#a51b998fa5d181e968cdd4cc2666150e2" target="_top" xlink:title=" ">
<polygon fill="white" stroke="#666666" points="243,-80 138,-80 138,-61 243,-61 243,-80"/>
<text text-anchor="middle" x="190.5" y="-68" font-family="Helvetica,sans-Serif" font-size="10.00">exif_tag_get_stuff</text>
</a>
</g>
</g>
<!-- Node1&#45;&gt;Node2 -->
<g id="edge1_Node000001_Node000002" class="edge">
<title>Node1&#45;&gt;Node2</title>
<g id="a_edge1_Node000001_Node000002"><a xlink:title=" ">
<path fill="none" stroke="#63b8ff" d="M102.42,-56.57C110.23,-57.82 118.39,-59.12 126.44,-60.41"/>
<polygon fill="#63b8ff" stroke="#63b8ff" points="125.78,-63.85 136.21,-61.97 126.89,-56.94 125.78,-63.85"/>
</a>
</g>
</g>
<!-- Node3 -->
<g id="Node000003" class="node">
<title>Node3</title>
<g id="a_Node000003"><a xlink:href="exif-tag_8c.html#aaf43166385e3a31a12ea5fc2b5ad03a9" target="_top" xlink:title="Return a textual title of the given tag when found in the given IFD.">
<polygon fill="white" stroke="#666666" points="241.5,-42.5 139.5,-42.5 139.5,-12.5 241.5,-12.5 241.5,-42.5"/>
<text text-anchor="start" x="147.5" y="-30.5" font-family="Helvetica,sans-Serif" font-size="10.00">exif_tag_get_title</text>
<text text-anchor="middle" x="190.5" y="-19.5" font-family="Helvetica,sans-Serif" font-size="10.00">_in_ifd</text>
</a>
</g>
</g>
<!-- Node1&#45;&gt;Node3 -->
<g id="edge2_Node000001_Node000003" class="edge">
<title>Node1&#45;&gt;Node3</title>
<g id="a_edge2_Node000001_Node000003"><a xlink:title=" ">
<path fill="none" stroke="#63b8ff" d="M102.42,-40.8C110.73,-39.53 119.43,-38.2 127.98,-36.9"/>
<polygon fill="#63b8ff" stroke="#63b8ff" points="128.23,-40.4 137.59,-35.43 127.18,-33.48 128.23,-40.4"/>
</a>
</g>
</g>
<!-- Node4 -->
<g id="Node000004" class="node">
<title>Node4</title>
<g id="a_Node000004"><a xlink:href="exif-tag_8c.html#a389f8ff3411e0525b28367892f1e78d3" target="_top" xlink:title="Finds the first entry in the EXIF tag table with the given tag number using a binary search.">
<polygon fill="white" stroke="#666666" points="390,-37 279,-37 279,-18 390,-18 390,-37"/>
<text text-anchor="middle" x="334.5" y="-25" font-family="Helvetica,sans-Serif" font-size="10.00">exif_tag_table_first</text>
</a>
</g>
</g>
<!-- Node3&#45;&gt;Node4 -->
<g id="edge3_Node000003_Node000004" class="edge">
<title>Node3&#45;&gt;Node4</title>
<g id="a_edge3_Node000003_Node000004"><a xlink:title=" ">
<path fill="none" stroke="#63b8ff" d="M241.96,-27.5C250.28,-27.5 259,-27.5 267.63,-27.5"/>
<polygon fill="#63b8ff" stroke="#63b8ff" points="267.35,-31 277.35,-27.5 267.35,-24 267.35,-31"/>
</a>
</g>
</g>
<!-- Node5 -->
<g id="Node000005" class="node">
<title>Node5</title>
<g id="a_Node000005"><a xlink:href="exif-tag_8c.html#a87563ee64809f5f0deb4d780098508c1" target="_top" xlink:title="Return the number of entries in the EXIF tag table, including the terminating NULL entry.">
<polygon fill="white" stroke="#666666" points="545,-56 426,-56 426,-37 545,-37 545,-56"/>
<text text-anchor="middle" x="485.5" y="-44" font-family="Helvetica,sans-Serif" font-size="10.00">exif_tag_table_count</text>
</a>
</g>
</g>
<!-- Node4&#45;&gt;Node5 -->
<g id="edge4_Node000004_Node000005" class="edge">
<title>Node4&#45;&gt;Node5</title>
<g id="a_edge4_Node000004_Node000005"><a xlink:title=" ">
<path fill="none" stroke="#63b8ff" d="M390.14,-34.47C397.98,-35.47 406.15,-36.51 414.24,-37.54"/>
<polygon fill="#63b8ff" stroke="#63b8ff" points="413.74,-41.01 424.1,-38.8 414.63,-34.06 413.74,-41.01"/>
</a>
</g>
</g>
<!-- Node6 -->
<g id="Node000006" class="node">
<title>Node6</title>
<g id="a_Node000006"><a xlink:href="exif-tag_8c.html#a220c1b18832f113bc84ff9551754915f" target="_top" xlink:title="Compares the tag with that in entry.">
<polygon fill="white" stroke="#666666" points="519.5,-19 451.5,-19 451.5,0 519.5,0 519.5,-19"/>
<text text-anchor="middle" x="485.5" y="-7" font-family="Helvetica,sans-Serif" font-size="10.00">match_tag</text>
</a>
</g>
</g>
<!-- Node4&#45;&gt;Node6 -->
<g id="edge5_Node000004_Node000006" class="edge">
<title>Node4&#45;&gt;Node6</title>
<g id="a_edge5_Node000004_Node000006"><a xlink:title=" ">
<path fill="none" stroke="#63b8ff" d="M390.14,-20.9C406.58,-18.91 424.41,-16.76 440.1,-14.86"/>
<polygon fill="#63b8ff" stroke="#63b8ff" points="440.09,-18.39 449.6,-13.72 439.25,-11.44 440.09,-18.39"/>
</a>
</g>
</g>
</g>
</svg>
