<?xml version="1.0" encoding="UTF-8" standalone="no"?>
<!DOCTYPE svg PUBLIC "-//W3C//DTD SVG 1.1//EN"
 "http://www.w3.org/Graphics/SVG/1.1/DTD/svg11.dtd">
<!-- Generated by graphviz version 7.0.1 (0)
 -->
<!-- Title: exif_data_load_data_content Pages: 1 -->
<svg width="937pt" height="537pt"
 viewBox="0.00 0.00 937.00 537.00" xmlns="http://www.w3.org/2000/svg" xmlns:xlink="http://www.w3.org/1999/xlink">
<g id="graph0" class="graph" transform="scale(1 1) rotate(0) translate(4 533)">
<title>exif_data_load_data_content</title>
<!-- Node1 -->
<g id="Node000001" class="node">
<title>Node1</title>
<g id="a_Node000001"><a xlink:title="Load data for an IFD.">
<polygon fill="#999999" stroke="#666666" points="116,-233.5 0,-233.5 0,-203.5 116,-203.5 116,-233.5"/>
<text text-anchor="start" x="8" y="-221.5" font-family="Helvetica,sans-Serif" font-size="10.00">exif_data_load_data</text>
<text text-anchor="middle" x="58" y="-210.5" font-family="Helvetica,sans-Serif" font-size="10.00">_content</text>
</a>
</g>
</g>
<!-- Node1&#45;&gt;Node1 -->
<g id="edge13_Node000001_Node000001" class="edge">
<title>Node1&#45;&gt;Node1</title>
<g id="a_edge13_Node000001_Node000001"><a xlink:title=" ">
<path fill="none" stroke="#63b8ff" d="M29.96,-233.78C23.73,-242.91 33.08,-251.5 58,-251.5 71.63,-251.5 80.6,-248.93 84.91,-245.11"/>
<polygon fill="#63b8ff" stroke="#63b8ff" points="88.38,-245.58 85.89,-235.28 81.42,-244.89 88.38,-245.58"/>
</a>
</g>
</g>
<!-- Node2 -->
<g id="Node000002" class="node">
<title>Node2</title>
<g id="a_Node000002"><a xlink:href="exif-content_8c.html#a89876388ea2f732f8c8cd2c8ef199908" target="_top" xlink:title="Add an EXIF tag to an IFD.">
<polygon fill="white" stroke="#666666" points="283,-455 152,-455 152,-436 283,-436 283,-455"/>
<text text-anchor="middle" x="217.5" y="-443" font-family="Helvetica,sans-Serif" font-size="10.00">exif_content_add_entry</text>
</a>
</g>
</g>
<!-- Node1&#45;&gt;Node2 -->
<g id="edge1_Node000001_Node000002" class="edge">
<title>Node1&#45;&gt;Node2</title>
<g id="a_edge1_Node000001_Node000002"><a xlink:title=" ">
<path fill="none" stroke="#63b8ff" d="M61.84,-233.84C69.53,-271.2 94.21,-367.8 152,-421.5 155.9,-425.12 160.39,-428.21 165.15,-430.84"/>
<polygon fill="#63b8ff" stroke="#63b8ff" points="163.31,-433.84 173.84,-434.97 166.31,-427.52 163.31,-433.84"/>
</a>
</g>
</g>
<!-- Node5 -->
<g id="Node000005" class="node">
<title>Node5</title>
<g id="a_Node000005"><a xlink:href="exif-log_8c.html#a025d4a5d96544913ea6f6ebbec69cb68" target="_top" xlink:title=" ">
<polygon fill="white" stroke="#666666" points="411.5,-342 355.5,-342 355.5,-323 411.5,-323 411.5,-342"/>
<text text-anchor="middle" x="383.5" y="-330" font-family="Helvetica,sans-Serif" font-size="10.00">exif_log</text>
</a>
</g>
</g>
<!-- Node1&#45;&gt;Node5 -->
<g id="edge40_Node000001_Node000005" class="edge">
<title>Node1&#45;&gt;Node5</title>
<g id="a_edge40_Node000001_Node000005"><a xlink:title=" ">
<path fill="none" stroke="#63b8ff" d="M68.83,-233.79C83.81,-255.61 114.59,-294.95 152,-312.5 214.19,-341.67 296.15,-340.8 343.71,-337"/>
<polygon fill="#63b8ff" stroke="#63b8ff" points="343.88,-340.5 353.53,-336.12 343.25,-333.52 343.88,-340.5"/>
</a>
</g>
</g>
<!-- Node8 -->
<g id="Node000008" class="node">
<title>Node8</title>
<g id="a_Node000008"><a xlink:href="exif-tag_8c.html#aad15f6b821d77857c42c1514ba8bf930" target="_top" xlink:title=" ">
<polygon fill="white" stroke="#666666" points="438.5,-379 328.5,-379 328.5,-360 438.5,-360 438.5,-379"/>
<text text-anchor="middle" x="383.5" y="-367" font-family="Helvetica,sans-Serif" font-size="10.00">exif_tag_get_name</text>
</a>
</g>
</g>
<!-- Node1&#45;&gt;Node8 -->
<g id="edge41_Node000001_Node000008" class="edge">
<title>Node1&#45;&gt;Node8</title>
<g id="a_edge41_Node000001_Node000008"><a xlink:title=" ">
<path fill="none" stroke="#63b8ff" d="M65.86,-233.89C78.59,-260.47 108.61,-314.51 152,-339.5 202.02,-368.3 268.1,-374.29 316.68,-373.96"/>
<polygon fill="#63b8ff" stroke="#63b8ff" points="316.56,-377.46 326.5,-373.79 316.44,-370.46 316.56,-377.46"/>
</a>
</g>
</g>
<!-- Node9 -->
<g id="Node000009" class="node">
<title>Node9</title>
<g id="a_Node000009"><a xlink:href="exif-tag_8c.html#a6b4f26f6f8f243e1f8a9e123b9cca589" target="_top" xlink:title="Return a textual name of the given tag when found in the given IFD.">
<polygon fill="white" stroke="#666666" points="627,-416 484,-416 484,-397 627,-397 627,-416"/>
<text text-anchor="middle" x="555.5" y="-404" font-family="Helvetica,sans-Serif" font-size="10.00">exif_tag_get_name_in_ifd</text>
</a>
</g>
</g>
<!-- Node1&#45;&gt;Node9 -->
<g id="edge42_Node000001_Node000009" class="edge">
<title>Node1&#45;&gt;Node9</title>
<g id="a_edge42_Node000001_Node000009"><a xlink:title=" ">
<path fill="none" stroke="#63b8ff" d="M63.38,-233.68C73.33,-265.09 100.81,-336.97 152,-369.5 254.21,-434.44 401.52,-428.64 486.68,-417.97"/>
<polygon fill="#63b8ff" stroke="#63b8ff" points="487.06,-421.45 496.52,-416.67 486.15,-414.51 487.06,-421.45"/>
</a>
</g>
</g>
<!-- Node14 -->
<g id="Node000014" class="node">
<title>Node14</title>
<g id="a_Node000014"><a xlink:href="exif-data_8c.html#abf9859cd2ae8c4c67f927e633d9a5bce" target="_top" xlink:title=" ">
<polygon fill="white" stroke="#666666" points="275.5,-255.5 159.5,-255.5 159.5,-225.5 275.5,-225.5 275.5,-255.5"/>
<text text-anchor="start" x="167.5" y="-243.5" font-family="Helvetica,sans-Serif" font-size="10.00">exif_data_load_data</text>
<text text-anchor="middle" x="217.5" y="-232.5" font-family="Helvetica,sans-Serif" font-size="10.00">_entry</text>
</a>
</g>
</g>
<!-- Node1&#45;&gt;Node14 -->
<g id="edge14_Node000001_Node000014" class="edge">
<title>Node1&#45;&gt;Node14</title>
<g id="a_edge14_Node000001_Node000014"><a xlink:title=" ">
<path fill="none" stroke="#63b8ff" d="M116.31,-226.5C126.58,-227.94 137.37,-229.45 147.92,-230.92"/>
<polygon fill="#63b8ff" stroke="#63b8ff" points="147.35,-234.37 157.74,-232.29 148.32,-227.44 147.35,-234.37"/>
</a>
</g>
</g>
<!-- Node18 -->
<g id="Node000018" class="node">
<title>Node18</title>
<g id="a_Node000018"><a xlink:href="exif-utils_8c.html#a4ad94614630897766dd0a5c9bc2a59bf" target="_top" xlink:title="Retrieve an ExifLong value from memory.">
<polygon fill="white" stroke="#666666" points="425,-192 342,-192 342,-173 425,-173 425,-192"/>
<text text-anchor="middle" x="383.5" y="-180" font-family="Helvetica,sans-Serif" font-size="10.00">exif_get_long</text>
</a>
</g>
</g>
<!-- Node1&#45;&gt;Node18 -->
<g id="edge37_Node000001_Node000018" class="edge">
<title>Node1&#45;&gt;Node18</title>
<g id="a_edge37_Node000001_Node000018"><a xlink:title=" ">
<path fill="none" stroke="#63b8ff" d="M116.46,-212.11C177.23,-205.34 272.23,-194.77 330.74,-188.26"/>
<polygon fill="#63b8ff" stroke="#63b8ff" points="330.88,-191.77 340.43,-187.18 330.11,-184.81 330.88,-191.77"/>
</a>
</g>
</g>
<!-- Node20 -->
<g id="Node000020" class="node">
<title>Node20</title>
<g id="a_Node000020"><a xlink:href="exif-utils_8c.html#a4b4acf537a8c6b9405e7b53be868e4d7" target="_top" xlink:title="Retrieve an ExifShort value from memory.">
<polygon fill="white" stroke="#666666" points="426.5,-118 340.5,-118 340.5,-99 426.5,-99 426.5,-118"/>
<text text-anchor="middle" x="383.5" y="-106" font-family="Helvetica,sans-Serif" font-size="10.00">exif_get_short</text>
</a>
</g>
</g>
<!-- Node1&#45;&gt;Node20 -->
<g id="edge38_Node000001_Node000020" class="edge">
<title>Node1&#45;&gt;Node20</title>
<g id="a_edge38_Node000001_Node000020"><a xlink:title=" ">
<path fill="none" stroke="#63b8ff" d="M77.76,-203.15C95.74,-189.21 124.2,-169.09 152,-157.5 209.91,-133.36 281.15,-120.56 328.98,-114.17"/>
<polygon fill="#63b8ff" stroke="#63b8ff" points="329.33,-117.65 338.81,-112.91 328.44,-110.71 329.33,-117.65"/>
</a>
</g>
</g>
<!-- Node22 -->
<g id="Node000022" class="node">
<title>Node22</title>
<g id="a_Node000022"><a xlink:href="exif-data_8c.html#a0666b1f113a3ddf35cce04df20779cc8" target="_top" xlink:title=" ">
<polygon fill="white" stroke="#666666" points="275.5,-303.5 159.5,-303.5 159.5,-273.5 275.5,-273.5 275.5,-303.5"/>
<text text-anchor="start" x="167.5" y="-291.5" font-family="Helvetica,sans-Serif" font-size="10.00">exif_data_load_data</text>
<text text-anchor="middle" x="217.5" y="-280.5" font-family="Helvetica,sans-Serif" font-size="10.00">_thumbnail</text>
</a>
</g>
</g>
<!-- Node1&#45;&gt;Node22 -->
<g id="edge24_Node000001_Node000022" class="edge">
<title>Node1&#45;&gt;Node22</title>
<g id="a_edge24_Node000001_Node000022"><a xlink:title=" ">
<path fill="none" stroke="#63b8ff" d="M88.37,-234C106.49,-243.32 130.34,-255.14 152,-264.5 155.51,-266.01 159.14,-267.53 162.82,-269.01"/>
<polygon fill="#63b8ff" stroke="#63b8ff" points="161.24,-272.15 171.82,-272.55 163.8,-265.63 161.24,-272.15"/>
</a>
</g>
</g>
<!-- Node24 -->
<g id="Node000024" class="node">
<title>Node24</title>
<g id="a_Node000024"><a xlink:href="exif-entry_8c.html#a2286e967d408b433d60ebad00c5af648" target="_top" xlink:title="Reserve memory for and initialize new ExifEntry using the specified memory allocator.">
<polygon fill="white" stroke="#666666" points="444.5,-155 322.5,-155 322.5,-136 444.5,-136 444.5,-155"/>
<text text-anchor="middle" x="383.5" y="-143" font-family="Helvetica,sans-Serif" font-size="10.00">exif_entry_new_mem</text>
</a>
</g>
</g>
<!-- Node1&#45;&gt;Node24 -->
<g id="edge28_Node000001_Node000024" class="edge">
<title>Node1&#45;&gt;Node24</title>
<g id="a_edge28_Node000001_Node000024"><a xlink:title=" ">
<path fill="none" stroke="#63b8ff" d="M104.59,-203.15C119.59,-198.4 136.41,-193.4 152,-189.5 204.83,-176.27 265.33,-164.86 311.09,-156.97"/>
<polygon fill="#63b8ff" stroke="#63b8ff" points="311.63,-160.43 320.9,-155.3 310.46,-153.53 311.63,-160.43"/>
</a>
</g>
</g>
<!-- Node26 -->
<g id="Node000026" class="node">
<title>Node26</title>
<g id="a_Node000026"><a xlink:href="exif-entry_8c.html#a82d5d923121488d847d341727cdd2ef4" target="_top" xlink:title="Decrease reference counter for ExifEntry.">
<polygon fill="white" stroke="#666666" points="266,-93 169,-93 169,-74 266,-74 266,-93"/>
<text text-anchor="middle" x="217.5" y="-81" font-family="Helvetica,sans-Serif" font-size="10.00">exif_entry_unref</text>
</a>
</g>
</g>
<!-- Node1&#45;&gt;Node26 -->
<g id="edge32_Node000001_Node000026" class="edge">
<title>Node1&#45;&gt;Node26</title>
<g id="a_edge32_Node000001_Node000026"><a xlink:title=" ">
<path fill="none" stroke="#63b8ff" d="M68.21,-203.04C83.04,-179.36 114.42,-134.04 152,-107.5 157.31,-103.75 163.29,-100.51 169.4,-97.73"/>
<polygon fill="#63b8ff" stroke="#63b8ff" points="170.4,-101.1 178.32,-94.05 167.74,-94.62 170.4,-101.1"/>
</a>
</g>
</g>
<!-- Node29 -->
<g id="Node000029" class="node">
<title>Node29</title>
<g id="a_Node000029"><a xlink:href="exif-ifd_8c.html#a7877a28898c084bd8311812d550181f2" target="_top" xlink:title="Return a textual name of the given IFD.">
<polygon fill="white" stroke="#666666" points="271,-56 164,-56 164,-37 271,-37 271,-56"/>
<text text-anchor="middle" x="217.5" y="-44" font-family="Helvetica,sans-Serif" font-size="10.00">exif_ifd_get_name</text>
</a>
</g>
</g>
<!-- Node1&#45;&gt;Node29 -->
<g id="edge39_Node000001_Node000029" class="edge">
<title>Node1&#45;&gt;Node29</title>
<g id="a_edge39_Node000001_Node000029"><a xlink:title=" ">
<path fill="none" stroke="#63b8ff" d="M63.9,-203.19C74.64,-172.13 103.26,-101.54 152,-64.5 153.33,-63.49 154.72,-62.53 156.14,-61.63"/>
<polygon fill="#63b8ff" stroke="#63b8ff" points="157.51,-64.87 164.75,-57.13 154.27,-58.66 157.51,-64.87"/>
</a>
</g>
</g>
<!-- Node30 -->
<g id="Node000030" class="node">
<title>Node30</title>
<g id="a_Node000030"><a xlink:href="exif-data_8c.html#a06c7c2490aedda09581cbb6115532198" target="_top" xlink:title="Calculate the recursion cost added by one level of IFD loading.">
<polygon fill="white" stroke="#666666" points="250.5,-19 184.5,-19 184.5,0 250.5,0 250.5,-19"/>
<text text-anchor="middle" x="217.5" y="-7" font-family="Helvetica,sans-Serif" font-size="10.00">level_cost</text>
</a>
</g>
</g>
<!-- Node1&#45;&gt;Node30 -->
<g id="edge43_Node000001_Node000030" class="edge">
<title>Node1&#45;&gt;Node30</title>
<g id="a_edge43_Node000001_Node000030"><a xlink:title=" ">
<path fill="none" stroke="#63b8ff" d="M61.97,-203.23C69.83,-167 94.63,-75.32 152,-27.5 158.13,-22.39 165.61,-18.73 173.28,-16.1"/>
<polygon fill="#63b8ff" stroke="#63b8ff" points="173.99,-19.54 182.66,-13.45 172.08,-12.8 173.99,-19.54"/>
</a>
</g>
</g>
<!-- Node3 -->
<g id="Node000003" class="node">
<title>Node3</title>
<g id="a_Node000003"><a xlink:href="exif-content_8c.html#a5d98a5c58c31b49691694b010b29117d" target="_top" xlink:title="Return the ExifEntry in this IFD corresponding to the given tag.">
<polygon fill="white" stroke="#666666" points="448,-492 319,-492 319,-473 448,-473 448,-492"/>
<text text-anchor="middle" x="383.5" y="-480" font-family="Helvetica,sans-Serif" font-size="10.00">exif_content_get_entry</text>
</a>
</g>
</g>
<!-- Node2&#45;&gt;Node3 -->
<g id="edge2_Node000002_Node000003" class="edge">
<title>Node2&#45;&gt;Node3</title>
<g id="a_edge2_Node000002_Node000003"><a xlink:title=" ">
<path fill="none" stroke="#63b8ff" d="M262.45,-455.42C282.39,-459.92 306.2,-465.29 327.33,-470.05"/>
<polygon fill="#63b8ff" stroke="#63b8ff" points="326.43,-473.44 336.95,-472.22 327.97,-466.61 326.43,-473.44"/>
</a>
</g>
</g>
<!-- Node4 -->
<g id="Node000004" class="node">
<title>Node4</title>
<g id="a_Node000004"><a xlink:href="exif-entry_8c.html#afd537c2d20109a1ee3923584e969d3d7" target="_top" xlink:title="Increase reference counter for ExifEntry.">
<polygon fill="white" stroke="#666666" points="426,-455 341,-455 341,-436 426,-436 426,-455"/>
<text text-anchor="middle" x="383.5" y="-443" font-family="Helvetica,sans-Serif" font-size="10.00">exif_entry_ref</text>
</a>
</g>
</g>
<!-- Node2&#45;&gt;Node4 -->
<g id="edge3_Node000002_Node000004" class="edge">
<title>Node2&#45;&gt;Node4</title>
<g id="a_edge3_Node000002_Node000004"><a xlink:title=" ">
<path fill="none" stroke="#63b8ff" d="M283.32,-445.5C298.58,-445.5 314.67,-445.5 329.35,-445.5"/>
<polygon fill="#63b8ff" stroke="#63b8ff" points="329.26,-449 339.26,-445.5 329.26,-442 329.26,-449"/>
</a>
</g>
</g>
<!-- Node2&#45;&gt;Node5 -->
<g id="edge4_Node000002_Node000005" class="edge">
<title>Node2&#45;&gt;Node5</title>
<g id="a_edge4_Node000002_Node000005"><a xlink:title=" ">
<path fill="none" stroke="#63b8ff" d="M226.26,-435.69C241.82,-416.66 278.81,-374.58 319,-351.5 326.7,-347.08 335.53,-343.59 344.11,-340.89"/>
<polygon fill="#63b8ff" stroke="#63b8ff" points="345,-344.27 353.67,-338.17 343.09,-337.54 345,-344.27"/>
</a>
</g>
</g>
<!-- Node7 -->
<g id="Node000007" class="node">
<title>Node7</title>
<g id="a_Node000007"><a xlink:href="exif-mem_8c.html#a7302da5374a74202e03a781b7c4b7ebe" target="_top" xlink:title=" ">
<polygon fill="white" stroke="#666666" points="435.5,-529 331.5,-529 331.5,-510 435.5,-510 435.5,-529"/>
<text text-anchor="middle" x="383.5" y="-517" font-family="Helvetica,sans-Serif" font-size="10.00">exif_mem_realloc</text>
</a>
</g>
</g>
<!-- Node2&#45;&gt;Node7 -->
<g id="edge6_Node000002_Node000007" class="edge">
<title>Node2&#45;&gt;Node7</title>
<g id="a_edge6_Node000002_Node000007"><a xlink:title=" ">
<path fill="none" stroke="#63b8ff" d="M233.61,-455.39C252.8,-467.6 287.25,-488.37 319,-501.5 323,-503.15 327.19,-504.71 331.45,-506.16"/>
<polygon fill="#63b8ff" stroke="#63b8ff" points="330.01,-509.38 340.61,-509.1 332.15,-502.71 330.01,-509.38"/>
</a>
</g>
</g>
<!-- Node2&#45;&gt;Node8 -->
<g id="edge7_Node000002_Node000008" class="edge">
<title>Node2&#45;&gt;Node8</title>
<g id="a_edge7_Node000002_Node000008"><a xlink:title=" ">
<path fill="none" stroke="#63b8ff" d="M239.94,-435.56C268.18,-422.48 318.07,-399.36 350.7,-384.23"/>
<polygon fill="#63b8ff" stroke="#63b8ff" points="352.08,-387.45 359.68,-380.07 349.14,-381.1 352.08,-387.45"/>
</a>
</g>
</g>
<!-- Node6 -->
<g id="Node000006" class="node">
<title>Node6</title>
<g id="a_Node000006"><a xlink:href="exif-log_8c.html#a99101b5ad01b2d82ce9d43c9e8534627" target="_top" xlink:title=" ">
<polygon fill="white" stroke="#666666" points="586.5,-342 524.5,-342 524.5,-323 586.5,-323 586.5,-342"/>
<text text-anchor="middle" x="555.5" y="-330" font-family="Helvetica,sans-Serif" font-size="10.00">exif_logv</text>
</a>
</g>
</g>
<!-- Node5&#45;&gt;Node6 -->
<g id="edge5_Node000005_Node000006" class="edge">
<title>Node5&#45;&gt;Node6</title>
<g id="a_edge5_Node000005_Node000006"><a xlink:title=" ">
<path fill="none" stroke="#63b8ff" d="M411.81,-332.5C439.03,-332.5 481.18,-332.5 512.62,-332.5"/>
<polygon fill="#63b8ff" stroke="#63b8ff" points="512.58,-336 522.58,-332.5 512.58,-329 512.58,-336"/>
</a>
</g>
</g>
<!-- Node8&#45;&gt;Node9 -->
<g id="edge8_Node000008_Node000009" class="edge">
<title>Node8&#45;&gt;Node9</title>
<g id="a_edge8_Node000008_Node000009"><a xlink:title=" ">
<path fill="none" stroke="#63b8ff" d="M430.06,-379.42C450.83,-383.94 475.64,-389.34 497.62,-394.12"/>
<polygon fill="#63b8ff" stroke="#63b8ff" points="496.82,-397.53 507.34,-396.24 498.31,-390.69 496.82,-397.53"/>
</a>
</g>
</g>
<!-- Node13 -->
<g id="Node000013" class="node">
<title>Node13</title>
<g id="a_Node000013"><a xlink:href="exif-tag_8c.html#a51b998fa5d181e968cdd4cc2666150e2" target="_top" xlink:title=" ">
<polygon fill="white" stroke="#666666" points="608,-379 503,-379 503,-360 608,-360 608,-379"/>
<text text-anchor="middle" x="555.5" y="-367" font-family="Helvetica,sans-Serif" font-size="10.00">exif_tag_get_stuff</text>
</a>
</g>
</g>
<!-- Node8&#45;&gt;Node13 -->
<g id="edge12_Node000008_Node000013" class="edge">
<title>Node8&#45;&gt;Node13</title>
<g id="a_edge12_Node000008_Node000013"><a xlink:title=" ">
<path fill="none" stroke="#63b8ff" d="M438.76,-369.5C455.58,-369.5 474.25,-369.5 491.6,-369.5"/>
<polygon fill="#63b8ff" stroke="#63b8ff" points="491.27,-373 501.27,-369.5 491.27,-366 491.27,-373"/>
</a>
</g>
</g>
<!-- Node10 -->
<g id="Node000010" class="node">
<title>Node10</title>
<g id="a_Node000010"><a xlink:href="exif-tag_8c.html#a389f8ff3411e0525b28367892f1e78d3" target="_top" xlink:title="Finds the first entry in the EXIF tag table with the given tag number using a binary search.">
<polygon fill="white" stroke="#666666" points="774,-416 663,-416 663,-397 774,-397 774,-416"/>
<text text-anchor="middle" x="718.5" y="-404" font-family="Helvetica,sans-Serif" font-size="10.00">exif_tag_table_first</text>
</a>
</g>
</g>
<!-- Node9&#45;&gt;Node10 -->
<g id="edge9_Node000009_Node000010" class="edge">
<title>Node9&#45;&gt;Node10</title>
<g id="a_edge9_Node000009_Node000010"><a xlink:title=" ">
<path fill="none" stroke="#63b8ff" d="M627.12,-406.5C635.27,-406.5 643.56,-406.5 651.65,-406.5"/>
<polygon fill="#63b8ff" stroke="#63b8ff" points="651.4,-410 661.4,-406.5 651.4,-403 651.4,-410"/>
</a>
</g>
</g>
<!-- Node11 -->
<g id="Node000011" class="node">
<title>Node11</title>
<g id="a_Node000011"><a xlink:href="exif-tag_8c.html#a87563ee64809f5f0deb4d780098508c1" target="_top" xlink:title="Return the number of entries in the EXIF tag table, including the terminating NULL entry.">
<polygon fill="white" stroke="#666666" points="929,-434 810,-434 810,-415 929,-415 929,-434"/>
<text text-anchor="middle" x="869.5" y="-422" font-family="Helvetica,sans-Serif" font-size="10.00">exif_tag_table_count</text>
</a>
</g>
</g>
<!-- Node10&#45;&gt;Node11 -->
<g id="edge10_Node000010_Node000011" class="edge">
<title>Node10&#45;&gt;Node11</title>
<g id="a_edge10_Node000010_Node000011"><a xlink:title=" ">
<path fill="none" stroke="#63b8ff" d="M774.14,-413.1C781.98,-414.05 790.15,-415.03 798.24,-416.01"/>
<polygon fill="#63b8ff" stroke="#63b8ff" points="797.76,-419.48 808.1,-417.2 798.6,-412.53 797.76,-419.48"/>
</a>
</g>
</g>
<!-- Node12 -->
<g id="Node000012" class="node">
<title>Node12</title>
<g id="a_Node000012"><a xlink:href="exif-tag_8c.html#a220c1b18832f113bc84ff9551754915f" target="_top" xlink:title="Compares the tag with that in entry.">
<polygon fill="white" stroke="#666666" points="903.5,-397 835.5,-397 835.5,-378 903.5,-378 903.5,-397"/>
<text text-anchor="middle" x="869.5" y="-385" font-family="Helvetica,sans-Serif" font-size="10.00">match_tag</text>
</a>
</g>
</g>
<!-- Node10&#45;&gt;Node12 -->
<g id="edge11_Node000010_Node000012" class="edge">
<title>Node10&#45;&gt;Node12</title>
<g id="a_edge11_Node000010_Node000012"><a xlink:title=" ">
<path fill="none" stroke="#63b8ff" d="M774.14,-399.53C790.58,-397.44 808.41,-395.16 824.1,-393.16"/>
<polygon fill="#63b8ff" stroke="#63b8ff" points="824.12,-396.69 833.6,-391.95 823.24,-389.74 824.12,-396.69"/>
</a>
</g>
</g>
<!-- Node14&#45;&gt;Node5 -->
<g id="edge22_Node000014_Node000005" class="edge">
<title>Node14&#45;&gt;Node5</title>
<g id="a_edge22_Node000014_Node000005"><a xlink:title=" ">
<path fill="none" stroke="#63b8ff" d="M264.21,-255.92C270.63,-258.54 277.06,-261.42 283,-264.5 311.61,-279.32 341.8,-300.91 361.32,-315.77"/>
<polygon fill="#63b8ff" stroke="#63b8ff" points="358.99,-318.39 369.04,-321.73 363.27,-312.85 358.99,-318.39"/>
</a>
</g>
</g>
<!-- Node14&#45;&gt;Node8 -->
<g id="edge23_Node000014_Node000008" class="edge">
<title>Node14&#45;&gt;Node8</title>
<g id="a_edge23_Node000014_Node000008"><a xlink:title=" ">
<path fill="none" stroke="#63b8ff" d="M271.42,-255.84C275.62,-258.32 279.56,-261.18 283,-264.5 313.12,-293.55 287.74,-323.68 319,-351.5 319.79,-352.2 320.6,-352.87 321.43,-353.52"/>
<polygon fill="#63b8ff" stroke="#63b8ff" points="319.47,-356.42 329.82,-358.71 323.15,-350.47 319.47,-356.42"/>
</a>
</g>
</g>
<!-- Node15 -->
<g id="Node000015" class="node">
<title>Node15</title>
<g id="a_Node000015"><a xlink:href="exif-data_8c.html#a4611ba081e31af8bd3ab47dd8de21bef" target="_top" xlink:title=" ">
<polygon fill="white" stroke="#666666" points="429,-266 338,-266 338,-247 429,-247 429,-266"/>
<text text-anchor="middle" x="383.5" y="-254" font-family="Helvetica,sans-Serif" font-size="10.00">exif_data_alloc</text>
</a>
</g>
</g>
<!-- Node14&#45;&gt;Node15 -->
<g id="edge15_Node000014_Node000015" class="edge">
<title>Node14&#45;&gt;Node15</title>
<g id="a_edge15_Node000014_Node000015"><a xlink:title=" ">
<path fill="none" stroke="#63b8ff" d="M275.86,-246.1C292.3,-247.7 310.19,-249.45 326.54,-251.04"/>
<polygon fill="#63b8ff" stroke="#63b8ff" points="325.78,-254.48 336.07,-251.97 326.46,-247.52 325.78,-254.48"/>
</a>
</g>
</g>
<!-- Node17 -->
<g id="Node000017" class="node">
<title>Node17</title>
<g id="a_Node000017"><a xlink:href="exif-format_8c.html#a924038efe0cd8ebade8f44619dd794f3" target="_top" xlink:title="Return the raw size of the given EXIF data type.">
<polygon fill="white" stroke="#666666" points="443,-229 324,-229 324,-210 443,-210 443,-229"/>
<text text-anchor="middle" x="383.5" y="-217" font-family="Helvetica,sans-Serif" font-size="10.00">exif_format_get_size</text>
</a>
</g>
</g>
<!-- Node14&#45;&gt;Node17 -->
<g id="edge17_Node000014_Node000017" class="edge">
<title>Node14&#45;&gt;Node17</title>
<g id="a_edge17_Node000014_Node000017"><a xlink:title=" ">
<path fill="none" stroke="#63b8ff" d="M275.86,-233.16C287.67,-231.64 300.23,-230.03 312.43,-228.47"/>
<polygon fill="#63b8ff" stroke="#63b8ff" points="312.53,-231.99 322,-227.25 311.64,-225.04 312.53,-231.99"/>
</a>
</g>
</g>
<!-- Node14&#45;&gt;Node18 -->
<g id="edge18_Node000014_Node000018" class="edge">
<title>Node14&#45;&gt;Node18</title>
<g id="a_edge18_Node000014_Node000018"><a xlink:title=" ">
<path fill="none" stroke="#63b8ff" d="M255.94,-225.16C274.74,-217.66 297.93,-208.73 319,-201.5 324.71,-199.54 330.76,-197.58 336.75,-195.71"/>
<polygon fill="#63b8ff" stroke="#63b8ff" points="337.42,-199.17 345.96,-192.9 335.37,-192.48 337.42,-199.17"/>
</a>
</g>
</g>
<!-- Node14&#45;&gt;Node20 -->
<g id="edge20_Node000014_Node000020" class="edge">
<title>Node14&#45;&gt;Node20</title>
<g id="a_edge20_Node000014_Node000020"><a xlink:title=" ">
<path fill="none" stroke="#63b8ff" d="M227.95,-225.27C243.79,-200.99 278.04,-153.6 319,-127.5 322.3,-125.4 325.85,-123.52 329.52,-121.84"/>
<polygon fill="#63b8ff" stroke="#63b8ff" points="330.68,-125.14 338.66,-118.18 328.08,-118.64 330.68,-125.14"/>
</a>
</g>
</g>
<!-- Node16 -->
<g id="Node000016" class="node">
<title>Node16</title>
<g id="a_Node000016"><a xlink:href="exif-mem_8c.html#a68be7c7afc8cff75adc3b1a28b5ae9a2" target="_top" xlink:title=" ">
<polygon fill="white" stroke="#666666" points="603,-266 508,-266 508,-247 603,-247 603,-266"/>
<text text-anchor="middle" x="555.5" y="-254" font-family="Helvetica,sans-Serif" font-size="10.00">exif_mem_alloc</text>
</a>
</g>
</g>
<!-- Node15&#45;&gt;Node16 -->
<g id="edge16_Node000015_Node000016" class="edge">
<title>Node15&#45;&gt;Node16</title>
<g id="a_edge16_Node000015_Node000016"><a xlink:title=" ">
<path fill="none" stroke="#63b8ff" d="M429.17,-256.5C449.77,-256.5 474.5,-256.5 496.52,-256.5"/>
<polygon fill="#63b8ff" stroke="#63b8ff" points="496.25,-260 506.25,-256.5 496.25,-253 496.25,-260"/>
</a>
</g>
</g>
<!-- Node19 -->
<g id="Node000019" class="node">
<title>Node19</title>
<g id="a_Node000019"><a xlink:href="exif-utils_8c.html#a56b96f076a13da6ed926e1ef29cb2dc3" target="_top" xlink:title="Retrieve an ExifSLong value from memory.">
<polygon fill="white" stroke="#666666" points="599.5,-229 511.5,-229 511.5,-210 599.5,-210 599.5,-229"/>
<text text-anchor="middle" x="555.5" y="-217" font-family="Helvetica,sans-Serif" font-size="10.00">exif_get_slong</text>
</a>
</g>
</g>
<!-- Node18&#45;&gt;Node19 -->
<g id="edge19_Node000018_Node000019" class="edge">
<title>Node18&#45;&gt;Node19</title>
<g id="a_edge19_Node000018_Node000019"><a xlink:title=" ">
<path fill="none" stroke="#63b8ff" d="M425.22,-191.36C447.61,-196.23 475.68,-202.34 499.94,-207.63"/>
<polygon fill="#63b8ff" stroke="#63b8ff" points="499.15,-211.03 509.66,-209.74 500.64,-204.19 499.15,-211.03"/>
</a>
</g>
</g>
<!-- Node21 -->
<g id="Node000021" class="node">
<title>Node21</title>
<g id="a_Node000021"><a xlink:href="exif-utils_8c.html#a6baf094a71392f9cea23ad633ec13c8b" target="_top" xlink:title="Retrieve an ExifSShort value from memory.">
<polygon fill="white" stroke="#666666" points="601.5,-116 509.5,-116 509.5,-97 601.5,-97 601.5,-116"/>
<text text-anchor="middle" x="555.5" y="-104" font-family="Helvetica,sans-Serif" font-size="10.00">exif_get_sshort</text>
</a>
</g>
</g>
<!-- Node20&#45;&gt;Node21 -->
<g id="edge21_Node000020_Node000021" class="edge">
<title>Node20&#45;&gt;Node21</title>
<g id="a_edge21_Node000020_Node000021"><a xlink:title=" ">
<path fill="none" stroke="#63b8ff" d="M426.96,-108C448.33,-107.75 474.53,-107.44 497.62,-107.17"/>
<polygon fill="#63b8ff" stroke="#63b8ff" points="497.54,-110.67 507.5,-107.05 497.46,-103.67 497.54,-110.67"/>
</a>
</g>
</g>
<!-- Node22&#45;&gt;Node5 -->
<g id="edge26_Node000022_Node000005" class="edge">
<title>Node22&#45;&gt;Node5</title>
<g id="a_edge26_Node000022_Node000005"><a xlink:title=" ">
<path fill="none" stroke="#63b8ff" d="M275.86,-303.89C298.51,-309.97 323.93,-316.79 344.27,-322.24"/>
<polygon fill="#63b8ff" stroke="#63b8ff" points="343.26,-325.6 353.83,-324.81 345.08,-318.84 343.26,-325.6"/>
</a>
</g>
</g>
<!-- Node22&#45;&gt;Node15 -->
<g id="edge25_Node000022_Node000015" class="edge">
<title>Node22&#45;&gt;Node15</title>
<g id="a_edge25_Node000022_Node000015"><a xlink:title=" ">
<path fill="none" stroke="#63b8ff" d="M275.86,-277.31C292.3,-274.1 310.19,-270.61 326.54,-267.42"/>
<polygon fill="#63b8ff" stroke="#63b8ff" points="326.94,-270.91 336.09,-265.56 325.6,-264.04 326.94,-270.91"/>
</a>
</g>
</g>
<!-- Node23 -->
<g id="Node000023" class="node">
<title>Node23</title>
<g id="a_Node000023"><a xlink:href="exif-mem_8c.html#a43190b81b4b4bdb4ffb89bfb612051b1" target="_top" xlink:title=" ">
<polygon fill="white" stroke="#666666" points="764,-116 673,-116 673,-97 764,-97 764,-116"/>
<text text-anchor="middle" x="718.5" y="-104" font-family="Helvetica,sans-Serif" font-size="10.00">exif_mem_free</text>
</a>
</g>
</g>
<!-- Node22&#45;&gt;Node23 -->
<g id="edge27_Node000022_Node000023" class="edge">
<title>Node22&#45;&gt;Node23</title>
<g id="a_edge27_Node000022_Node000023"><a xlink:title=" ">
<path fill="none" stroke="#63b8ff" d="M275.7,-293.53C374,-301.07 569.95,-310.91 627,-275.5 680.86,-242.07 704.67,-164.83 713.33,-127.48"/>
<polygon fill="#63b8ff" stroke="#63b8ff" points="716.7,-128.46 715.39,-117.94 709.86,-126.98 716.7,-128.46"/>
</a>
</g>
</g>
<!-- Node24&#45;&gt;Node16 -->
<g id="edge29_Node000024_Node000016" class="edge">
<title>Node24&#45;&gt;Node16</title>
<g id="a_edge29_Node000024_Node000016"><a xlink:title=" ">
<path fill="none" stroke="#63b8ff" d="M433.16,-155.37C438.52,-157.78 443.62,-160.77 448,-164.5 475.87,-188.18 455.65,-215.39 484,-238.5 487.96,-241.73 492.43,-244.39 497.15,-246.58"/>
<polygon fill="#63b8ff" stroke="#63b8ff" points="495.78,-249.8 506.37,-250.11 498.29,-243.26 495.78,-249.8"/>
</a>
</g>
</g>
<!-- Node24&#45;&gt;Node23 -->
<g id="edge30_Node000024_Node000023" class="edge">
<title>Node24&#45;&gt;Node23</title>
<g id="a_edge30_Node000024_Node000023"><a xlink:title=" ">
<path fill="none" stroke="#63b8ff" d="M444.78,-142.62C493.99,-139.77 565.24,-134.49 627,-125.5 639.16,-123.73 652.15,-121.32 664.37,-118.81"/>
<polygon fill="#63b8ff" stroke="#63b8ff" points="664.8,-122.29 673.86,-116.8 663.35,-115.45 664.8,-122.29"/>
</a>
</g>
</g>
<!-- Node25 -->
<g id="Node000025" class="node">
<title>Node25</title>
<g id="a_Node000025"><a xlink:href="exif-mem_8c.html#af28c61972f529be46907956e0b3e7a60" target="_top" xlink:title="Refcount an ExifMem.">
<polygon fill="white" stroke="#666666" points="598,-192 513,-192 513,-173 598,-173 598,-192"/>
<text text-anchor="middle" x="555.5" y="-180" font-family="Helvetica,sans-Serif" font-size="10.00">exif_mem_ref</text>
</a>
</g>
</g>
<!-- Node24&#45;&gt;Node25 -->
<g id="edge31_Node000024_Node000025" class="edge">
<title>Node24&#45;&gt;Node25</title>
<g id="a_edge31_Node000024_Node000025"><a xlink:title=" ">
<path fill="none" stroke="#63b8ff" d="M430.06,-155.42C452.02,-160.19 478.49,-165.96 501.36,-170.93"/>
<polygon fill="#63b8ff" stroke="#63b8ff" points="500.61,-174.35 511.13,-173.06 502.1,-167.51 500.61,-174.35"/>
</a>
</g>
</g>
<!-- Node27 -->
<g id="Node000027" class="node">
<title>Node27</title>
<g id="a_Node000027"><a xlink:href="exif-entry_8c.html#a2879215e3863186650d3f32eb63bbaf4" target="_top" xlink:title="Actually free the ExifEntry.">
<polygon fill="white" stroke="#666666" points="429,-78 338,-78 338,-59 429,-59 429,-78"/>
<text text-anchor="middle" x="383.5" y="-66" font-family="Helvetica,sans-Serif" font-size="10.00">exif_entry_free</text>
</a>
</g>
</g>
<!-- Node26&#45;&gt;Node27 -->
<g id="edge33_Node000026_Node000027" class="edge">
<title>Node26&#45;&gt;Node27</title>
<g id="a_edge33_Node000026_Node000027"><a xlink:title=" ">
<path fill="none" stroke="#63b8ff" d="M266.38,-79.12C285.19,-77.4 306.91,-75.41 326.45,-73.63"/>
<polygon fill="#63b8ff" stroke="#63b8ff" points="326.51,-77.14 336.15,-72.74 325.87,-70.16 326.51,-77.14"/>
</a>
</g>
</g>
<!-- Node27&#45;&gt;Node23 -->
<g id="edge34_Node000027_Node000023" class="edge">
<title>Node27&#45;&gt;Node23</title>
<g id="a_edge34_Node000027_Node000023"><a xlink:title=" ">
<path fill="none" stroke="#63b8ff" d="M429.39,-70.29C478.2,-72.63 558.45,-77.66 627,-87.5 639.29,-89.26 652.41,-91.7 664.74,-94.23"/>
<polygon fill="#63b8ff" stroke="#63b8ff" points="663.81,-97.61 674.32,-96.26 665.26,-90.76 663.81,-97.61"/>
</a>
</g>
</g>
<!-- Node28 -->
<g id="Node000028" class="node">
<title>Node28</title>
<g id="a_Node000028"><a xlink:href="exif-mem_8c.html#a66744e0987af08c443df247ce55f7d87" target="_top" xlink:title="Unrefcount an ExifMem.">
<polygon fill="white" stroke="#666666" points="604,-40 507,-40 507,-21 604,-21 604,-40"/>
<text text-anchor="middle" x="555.5" y="-28" font-family="Helvetica,sans-Serif" font-size="10.00">exif_mem_unref</text>
</a>
</g>
</g>
<!-- Node27&#45;&gt;Node28 -->
<g id="edge35_Node000027_Node000028" class="edge">
<title>Node27&#45;&gt;Node28</title>
<g id="a_edge35_Node000027_Node000028"><a xlink:title=" ">
<path fill="none" stroke="#63b8ff" d="M429.17,-58.52C450.46,-53.76 476.14,-48.01 498.71,-42.97"/>
<polygon fill="#63b8ff" stroke="#63b8ff" points="499.37,-46.41 508.36,-40.81 497.84,-39.58 499.37,-46.41"/>
</a>
</g>
</g>
<!-- Node28&#45;&gt;Node23 -->
<g id="edge36_Node000028_Node000023" class="edge">
<title>Node28&#45;&gt;Node23</title>
<g id="a_edge36_Node000028_Node000023"><a xlink:title=" ">
<path fill="none" stroke="#63b8ff" d="M590.01,-40.44C601.89,-44.34 615.22,-49.17 627,-54.5 650.05,-64.93 674.87,-79.44 692.68,-90.49"/>
<polygon fill="#63b8ff" stroke="#63b8ff" points="690.68,-93.37 701.01,-95.73 694.41,-87.44 690.68,-93.37"/>
</a>
</g>
</g>
</g>
</svg>
