<?xml version="1.0" encoding="UTF-8" standalone="no"?>
<!DOCTYPE svg PUBLIC "-//W3C//DTD SVG 1.1//EN"
 "http://www.w3.org/Graphics/SVG/1.1/DTD/svg11.dtd">
<!-- Generated by graphviz version 7.0.1 (0)
 -->
<!-- Title: exif_loader_unref Pages: 1 -->
<svg width="761pt" height="141pt"
 viewBox="0.00 0.00 761.00 141.00" xmlns="http://www.w3.org/2000/svg" xmlns:xlink="http://www.w3.org/1999/xlink">
<g id="graph0" class="graph" transform="scale(1 1) rotate(0) translate(4 137)">
<title>exif_loader_unref</title>
<!-- Node1 -->
<g id="Node000001" class="node">
<title>Node1</title>
<g id="a_Node000001"><a xlink:title="Decrease the refcount of the ExifLoader.">
<polygon fill="#999999" stroke="#666666" points="102,-76 0,-76 0,-57 102,-57 102,-76"/>
<text text-anchor="middle" x="51" y="-64" font-family="Helvetica,sans-Serif" font-size="10.00">exif_loader_unref</text>
</a>
</g>
</g>
<!-- Node2 -->
<g id="Node000002" class="node">
<title>Node2</title>
<g id="a_Node000002"><a xlink:href="exif-loader_8c.html#a388dfe484e1ad9c424bf3f029ec50248" target="_top" xlink:title=" ">
<polygon fill="white" stroke="#666666" points="234,-76 138,-76 138,-57 234,-57 234,-76"/>
<text text-anchor="middle" x="186" y="-64" font-family="Helvetica,sans-Serif" font-size="10.00">exif_loader_free</text>
</a>
</g>
</g>
<!-- Node1&#45;&gt;Node2 -->
<g id="edge1_Node000001_Node000002" class="edge">
<title>Node1&#45;&gt;Node2</title>
<g id="a_edge1_Node000001_Node000002"><a xlink:title=" ">
<path fill="none" stroke="#63b8ff" d="M102.28,-66.5C110.18,-66.5 118.41,-66.5 126.47,-66.5"/>
<polygon fill="#63b8ff" stroke="#63b8ff" points="126.21,-70 136.21,-66.5 126.21,-63 126.21,-70"/>
</a>
</g>
</g>
<!-- Node3 -->
<g id="Node000003" class="node">
<title>Node3</title>
<g id="a_Node000003"><a xlink:href="exif-loader_8c.html#a080d8ebb5006c1306a3a798ff60253a5" target="_top" xlink:title="Free any data previously loaded and reset the ExifLoader to its newly&#45;initialized state.">
<polygon fill="white" stroke="#666666" points="493,-133 392,-133 392,-114 493,-114 493,-133"/>
<text text-anchor="middle" x="442.5" y="-121" font-family="Helvetica,sans-Serif" font-size="10.00">exif_loader_reset</text>
</a>
</g>
</g>
<!-- Node2&#45;&gt;Node3 -->
<g id="edge2_Node000002_Node000003" class="edge">
<title>Node2&#45;&gt;Node3</title>
<g id="a_edge2_Node000002_Node000003"><a xlink:title=" ">
<path fill="none" stroke="#63b8ff" d="M208.02,-76.49C224.52,-83.92 248.26,-93.75 270,-99.5 306.01,-109.03 347.33,-114.96 380.39,-118.54"/>
<polygon fill="#63b8ff" stroke="#63b8ff" points="379.91,-122 390.21,-119.55 380.62,-115.04 379.91,-122"/>
</a>
</g>
</g>
<!-- Node4 -->
<g id="Node000004" class="node">
<title>Node4</title>
<g id="a_Node000004"><a xlink:href="exif-mem_8c.html#a43190b81b4b4bdb4ffb89bfb612051b1" target="_top" xlink:title=" ">
<polygon fill="white" stroke="#666666" points="753,-76 662,-76 662,-57 753,-57 753,-76"/>
<text text-anchor="middle" x="707.5" y="-64" font-family="Helvetica,sans-Serif" font-size="10.00">exif_mem_free</text>
</a>
</g>
</g>
<!-- Node2&#45;&gt;Node4 -->
<g id="edge9_Node000002_Node000004" class="edge">
<title>Node2&#45;&gt;Node4</title>
<g id="a_edge9_Node000002_Node000004"><a xlink:title=" ">
<path fill="none" stroke="#63b8ff" d="M234.43,-67.99C314.95,-70.27 483.52,-74.04 626,-70.5 633.89,-70.3 642.21,-70 650.39,-69.65"/>
<polygon fill="#63b8ff" stroke="#63b8ff" points="650.47,-73.15 660.29,-69.19 650.14,-66.15 650.47,-73.15"/>
</a>
</g>
</g>
<!-- Node5 -->
<g id="Node000005" class="node">
<title>Node5</title>
<g id="a_Node000005"><a xlink:href="exif-log_8c.html#a7a9b738a7429197d68c80ffedac7d8fb" target="_top" xlink:title=" ">
<polygon fill="white" stroke="#666666" points="356,-57 270,-57 270,-38 356,-38 356,-57"/>
<text text-anchor="middle" x="313" y="-45" font-family="Helvetica,sans-Serif" font-size="10.00">exif_log_unref</text>
</a>
</g>
</g>
<!-- Node2&#45;&gt;Node5 -->
<g id="edge4_Node000002_Node000005" class="edge">
<title>Node2&#45;&gt;Node5</title>
<g id="a_edge4_Node000002_Node000005"><a xlink:title=" ">
<path fill="none" stroke="#63b8ff" d="M234.26,-59.32C242.15,-58.12 250.39,-56.86 258.43,-55.64"/>
<polygon fill="#63b8ff" stroke="#63b8ff" points="258.75,-59.13 268.11,-54.17 257.7,-52.21 258.75,-59.13"/>
</a>
</g>
</g>
<!-- Node7 -->
<g id="Node000007" class="node">
<title>Node7</title>
<g id="a_Node000007"><a xlink:href="exif-mem_8c.html#a66744e0987af08c443df247ce55f7d87" target="_top" xlink:title="Unrefcount an ExifMem.">
<polygon fill="white" stroke="#666666" points="626,-19 529,-19 529,0 626,0 626,-19"/>
<text text-anchor="middle" x="577.5" y="-7" font-family="Helvetica,sans-Serif" font-size="10.00">exif_mem_unref</text>
</a>
</g>
</g>
<!-- Node2&#45;&gt;Node7 -->
<g id="edge10_Node000002_Node000007" class="edge">
<title>Node2&#45;&gt;Node7</title>
<g id="a_edge10_Node000002_Node000007"><a xlink:title=" ">
<path fill="none" stroke="#63b8ff" d="M204.48,-56.51C220.84,-47.69 246.26,-35.37 270,-29.5 354.19,-8.7 455.11,-6.25 517.52,-7.24"/>
<polygon fill="#63b8ff" stroke="#63b8ff" points="517.13,-10.73 527.2,-7.43 517.27,-3.73 517.13,-10.73"/>
</a>
</g>
</g>
<!-- Node3&#45;&gt;Node4 -->
<g id="edge3_Node000003_Node000004" class="edge">
<title>Node3&#45;&gt;Node4</title>
<g id="a_edge3_Node000003_Node000004"><a xlink:title=" ">
<path fill="none" stroke="#63b8ff" d="M493.36,-120.43C530.43,-117.31 581.99,-111.2 626,-99.5 643.15,-94.94 661.51,-87.61 676.36,-81.02"/>
<polygon fill="#63b8ff" stroke="#63b8ff" points="677.47,-84.37 685.11,-77.03 674.56,-78 677.47,-84.37"/>
</a>
</g>
</g>
<!-- Node6 -->
<g id="Node000006" class="node">
<title>Node6</title>
<g id="a_Node000006"><a xlink:href="exif-log_8c.html#acd0808d6d5be73f28059797c2e2e67dc" target="_top" xlink:title="Delete instance of ExifLog.">
<polygon fill="white" stroke="#666666" points="482.5,-57 402.5,-57 402.5,-38 482.5,-38 482.5,-57"/>
<text text-anchor="middle" x="442.5" y="-45" font-family="Helvetica,sans-Serif" font-size="10.00">exif_log_free</text>
</a>
</g>
</g>
<!-- Node5&#45;&gt;Node6 -->
<g id="edge5_Node000005_Node000006" class="edge">
<title>Node5&#45;&gt;Node6</title>
<g id="a_edge5_Node000005_Node000006"><a xlink:title=" ">
<path fill="none" stroke="#63b8ff" d="M356.46,-47.5C367.54,-47.5 379.59,-47.5 391.05,-47.5"/>
<polygon fill="#63b8ff" stroke="#63b8ff" points="390.73,-51 400.73,-47.5 390.73,-44 390.73,-51"/>
</a>
</g>
</g>
<!-- Node6&#45;&gt;Node4 -->
<g id="edge6_Node000006_Node000004" class="edge">
<title>Node6&#45;&gt;Node4</title>
<g id="a_edge6_Node000006_Node000004"><a xlink:title=" ">
<path fill="none" stroke="#63b8ff" d="M482.87,-50.34C527.28,-53.55 599.84,-58.79 650.22,-62.43"/>
<polygon fill="#63b8ff" stroke="#63b8ff" points="649.83,-65.91 660.05,-63.14 650.33,-58.93 649.83,-65.91"/>
</a>
</g>
</g>
<!-- Node6&#45;&gt;Node7 -->
<g id="edge7_Node000006_Node000007" class="edge">
<title>Node6&#45;&gt;Node7</title>
<g id="a_edge7_Node000006_Node000007"><a xlink:title=" ">
<path fill="none" stroke="#63b8ff" d="M478.44,-37.52C494.48,-32.93 513.7,-27.44 530.86,-22.54"/>
<polygon fill="#63b8ff" stroke="#63b8ff" points="531.68,-25.95 540.33,-19.83 529.76,-19.22 531.68,-25.95"/>
</a>
</g>
</g>
<!-- Node7&#45;&gt;Node4 -->
<g id="edge8_Node000007_Node000004" class="edge">
<title>Node7&#45;&gt;Node4</title>
<g id="a_edge8_Node000007_Node000004"><a xlink:title=" ">
<path fill="none" stroke="#63b8ff" d="M600.8,-19.43C621.08,-28.46 651.26,-41.9 674.18,-52.11"/>
<polygon fill="#63b8ff" stroke="#63b8ff" points="672.52,-55.2 683.08,-56.07 675.37,-48.8 672.52,-55.2"/>
</a>
</g>
</g>
</g>
</svg>
