<?xml version="1.0" encoding="UTF-8" standalone="no"?>
<!DOCTYPE svg PUBLIC "-//W3C//DTD SVG 1.1//EN"
 "http://www.w3.org/Graphics/SVG/1.1/DTD/svg11.dtd">
<!-- Generated by graphviz version 2.44.1 (0)
 -->
<!-- Title: exif_mnote_data_pentax_load Pages: 1 -->
<svg width="498pt" height="268pt"
 viewBox="0.00 0.00 498.00 268.00" xmlns="http://www.w3.org/2000/svg" xmlns:xlink="http://www.w3.org/1999/xlink">
<g id="graph0" class="graph" transform="scale(1 1) rotate(0) translate(4 264)">
<title>exif_mnote_data_pentax_load</title>
<polygon fill="white" stroke="transparent" points="-4,4 -4,-264 494,-264 494,4 -4,4"/>
<!-- Node1 -->
<g id="node1" class="node">
<title>Node1</title>
<g id="a_node1"><a xlink:title=" ">
<polygon fill="#bfbfbf" stroke="black" points="0,-126.5 0,-145.5 164,-145.5 164,-126.5 0,-126.5"/>
<text text-anchor="middle" x="82" y="-133.5" font-family="Helvetica,sans-Serif" font-size="10.00">exif_mnote_data_pentax_load</text>
</a>
</g>
</g>
<!-- Node2 -->
<g id="node2" class="node">
<title>Node2</title>
<g id="a_node2"><a xlink:href="exif-format_8c.html#a924038efe0cd8ebade8f44619dd794f3" target="_top" xlink:title="Return the raw size of the given EXIF data type.">
<polygon fill="white" stroke="black" points="221.5,-240.5 221.5,-259.5 340.5,-259.5 340.5,-240.5 221.5,-240.5"/>
<text text-anchor="middle" x="281" y="-247.5" font-family="Helvetica,sans-Serif" font-size="10.00">exif_format_get_size</text>
</a>
</g>
</g>
<!-- Node1&#45;&gt;Node2 -->
<g id="edge1" class="edge">
<title>Node1&#45;&gt;Node2</title>
<path fill="none" stroke="midnightblue" d="M91.97,-145.77C110.3,-165.14 154.23,-208.46 200,-231 204.88,-233.4 210.09,-235.51 215.4,-237.36"/>
<polygon fill="midnightblue" stroke="midnightblue" points="214.47,-240.74 225.06,-240.42 216.58,-234.06 214.47,-240.74"/>
</g>
<!-- Node3 -->
<g id="node3" class="node">
<title>Node3</title>
<g id="a_node3"><a xlink:href="exif-utils_8c.html#a4ad94614630897766dd0a5c9bc2a59bf" target="_top" xlink:title="Retrieve an ExifLong value from memory.">
<polygon fill="white" stroke="black" points="239.5,-202.5 239.5,-221.5 322.5,-221.5 322.5,-202.5 239.5,-202.5"/>
<text text-anchor="middle" x="281" y="-209.5" font-family="Helvetica,sans-Serif" font-size="10.00">exif_get_long</text>
</a>
</g>
</g>
<!-- Node1&#45;&gt;Node3 -->
<g id="edge2" class="edge">
<title>Node1&#45;&gt;Node3</title>
<path fill="none" stroke="midnightblue" d="M99.54,-145.51C121.76,-157.94 162.77,-179.69 200,-193 209.38,-196.35 219.58,-199.29 229.47,-201.78"/>
<polygon fill="midnightblue" stroke="midnightblue" points="228.67,-205.19 239.21,-204.13 230.31,-198.39 228.67,-205.19"/>
</g>
<!-- Node5 -->
<g id="node5" class="node">
<title>Node5</title>
<g id="a_node5"><a xlink:href="exif-utils_8c.html#a4b4acf537a8c6b9405e7b53be868e4d7" target="_top" xlink:title="Retrieve an ExifShort value from memory.">
<polygon fill="white" stroke="black" points="238,-164.5 238,-183.5 324,-183.5 324,-164.5 238,-164.5"/>
<text text-anchor="middle" x="281" y="-171.5" font-family="Helvetica,sans-Serif" font-size="10.00">exif_get_short</text>
</a>
</g>
</g>
<!-- Node1&#45;&gt;Node5 -->
<g id="edge4" class="edge">
<title>Node1&#45;&gt;Node5</title>
<path fill="none" stroke="midnightblue" d="M132.46,-145.54C161.51,-151.14 198.22,-158.22 227.74,-163.92"/>
<polygon fill="midnightblue" stroke="midnightblue" points="227.38,-167.42 237.87,-165.87 228.71,-160.54 227.38,-167.42"/>
</g>
<!-- Node7 -->
<g id="node7" class="node">
<title>Node7</title>
<g id="a_node7"><a xlink:href="exif-log_8c.html#a025d4a5d96544913ea6f6ebbec69cb68" target="_top" xlink:title=" ">
<polygon fill="white" stroke="black" points="253,-126.5 253,-145.5 309,-145.5 309,-126.5 253,-126.5"/>
<text text-anchor="middle" x="281" y="-133.5" font-family="Helvetica,sans-Serif" font-size="10.00">exif_log</text>
</a>
</g>
</g>
<!-- Node1&#45;&gt;Node7 -->
<g id="edge6" class="edge">
<title>Node1&#45;&gt;Node7</title>
<path fill="none" stroke="midnightblue" d="M164.26,-136C191.41,-136 220.35,-136 242.51,-136"/>
<polygon fill="midnightblue" stroke="midnightblue" points="242.8,-139.5 252.8,-136 242.8,-132.5 242.8,-139.5"/>
</g>
<!-- Node9 -->
<g id="node9" class="node">
<title>Node9</title>
<g id="a_node9"><a xlink:href="exif-mem_8c.html#ae8c09cfbcb95e435c4c4b7ec3bbd79e4" target="_top" xlink:title=" ">
<polygon fill="white" stroke="black" points="233.5,-88.5 233.5,-107.5 328.5,-107.5 328.5,-88.5 233.5,-88.5"/>
<text text-anchor="middle" x="281" y="-95.5" font-family="Helvetica,sans-Serif" font-size="10.00">exif_mem_alloc</text>
</a>
</g>
</g>
<!-- Node1&#45;&gt;Node9 -->
<g id="edge8" class="edge">
<title>Node1&#45;&gt;Node9</title>
<path fill="none" stroke="midnightblue" d="M132.46,-126.46C160.09,-121.13 194.63,-114.47 223.34,-108.93"/>
<polygon fill="midnightblue" stroke="midnightblue" points="224.08,-112.35 233.24,-107.02 222.75,-105.48 224.08,-112.35"/>
</g>
<!-- Node10 -->
<g id="node10" class="node">
<title>Node10</title>
<g id="a_node10"><a xlink:href="exif-mnote-data-pentax_8c.html#a5692961f9f5ea8ac552d06fbfae94608" target="_top" xlink:title=" ">
<polygon fill="white" stroke="black" points="212,-39 212,-69 350,-69 350,-39 212,-39"/>
<text text-anchor="start" x="220" y="-57" font-family="Helvetica,sans-Serif" font-size="10.00">exif_mnote_data_pentax</text>
<text text-anchor="middle" x="281" y="-46" font-family="Helvetica,sans-Serif" font-size="10.00">_clear</text>
</a>
</g>
</g>
<!-- Node1&#45;&gt;Node10 -->
<g id="edge9" class="edge">
<title>Node1&#45;&gt;Node10</title>
<path fill="none" stroke="midnightblue" d="M100.47,-126.46C123.01,-114.39 163.67,-93.43 200,-79 205.86,-76.67 212.02,-74.42 218.22,-72.28"/>
<polygon fill="midnightblue" stroke="midnightblue" points="219.59,-75.51 227.96,-69.01 217.37,-68.87 219.59,-75.51"/>
</g>
<!-- Node12 -->
<g id="node12" class="node">
<title>Node12</title>
<g id="a_node12"><a xlink:href="mnote-pentax-tag_8c.html#aff5ff8ef6f5f5d183146b9f867036851" target="_top" xlink:title=" ">
<polygon fill="white" stroke="black" points="200,-0.5 200,-19.5 362,-19.5 362,-0.5 200,-0.5"/>
<text text-anchor="middle" x="281" y="-7.5" font-family="Helvetica,sans-Serif" font-size="10.00">mnote_pentax_tag_get_name</text>
</a>
</g>
</g>
<!-- Node1&#45;&gt;Node12 -->
<g id="edge11" class="edge">
<title>Node1&#45;&gt;Node12</title>
<path fill="none" stroke="midnightblue" d="M90.62,-126.26C107.74,-105.07 151.59,-54.63 200,-29 204.46,-26.64 209.21,-24.57 214.09,-22.75"/>
<polygon fill="midnightblue" stroke="midnightblue" points="215.22,-26.06 223.59,-19.56 213,-19.43 215.22,-26.06"/>
</g>
<!-- Node4 -->
<g id="node4" class="node">
<title>Node4</title>
<g id="a_node4"><a xlink:href="exif-utils_8c.html#a56b96f076a13da6ed926e1ef29cb2dc3" target="_top" xlink:title="Retrieve an ExifSLong value from memory.">
<polygon fill="white" stroke="black" points="400,-202.5 400,-221.5 488,-221.5 488,-202.5 400,-202.5"/>
<text text-anchor="middle" x="444" y="-209.5" font-family="Helvetica,sans-Serif" font-size="10.00">exif_get_slong</text>
</a>
</g>
</g>
<!-- Node3&#45;&gt;Node4 -->
<g id="edge3" class="edge">
<title>Node3&#45;&gt;Node4</title>
<path fill="none" stroke="midnightblue" d="M322.63,-212C342.97,-212 367.86,-212 389.72,-212"/>
<polygon fill="midnightblue" stroke="midnightblue" points="389.85,-215.5 399.85,-212 389.85,-208.5 389.85,-215.5"/>
</g>
<!-- Node6 -->
<g id="node6" class="node">
<title>Node6</title>
<g id="a_node6"><a xlink:href="exif-utils_8c.html#a6baf094a71392f9cea23ad633ec13c8b" target="_top" xlink:title="Retrieve an ExifSShort value from memory.">
<polygon fill="white" stroke="black" points="398,-164.5 398,-183.5 490,-183.5 490,-164.5 398,-164.5"/>
<text text-anchor="middle" x="444" y="-171.5" font-family="Helvetica,sans-Serif" font-size="10.00">exif_get_sshort</text>
</a>
</g>
</g>
<!-- Node5&#45;&gt;Node6 -->
<g id="edge5" class="edge">
<title>Node5&#45;&gt;Node6</title>
<path fill="none" stroke="midnightblue" d="M324.3,-174C343.67,-174 366.88,-174 387.61,-174"/>
<polygon fill="midnightblue" stroke="midnightblue" points="387.88,-177.5 397.88,-174 387.88,-170.5 387.88,-177.5"/>
</g>
<!-- Node8 -->
<g id="node8" class="node">
<title>Node8</title>
<g id="a_node8"><a xlink:href="exif-log_8c.html#a99101b5ad01b2d82ce9d43c9e8534627" target="_top" xlink:title=" ">
<polygon fill="white" stroke="black" points="413,-126.5 413,-145.5 475,-145.5 475,-126.5 413,-126.5"/>
<text text-anchor="middle" x="444" y="-133.5" font-family="Helvetica,sans-Serif" font-size="10.00">exif_logv</text>
</a>
</g>
</g>
<!-- Node7&#45;&gt;Node8 -->
<g id="edge7" class="edge">
<title>Node7&#45;&gt;Node8</title>
<path fill="none" stroke="midnightblue" d="M309.31,-136C334.88,-136 373.41,-136 402.54,-136"/>
<polygon fill="midnightblue" stroke="midnightblue" points="402.81,-139.5 412.81,-136 402.81,-132.5 402.81,-139.5"/>
</g>
<!-- Node11 -->
<g id="node11" class="node">
<title>Node11</title>
<g id="a_node11"><a xlink:href="exif-mem_8c.html#a43190b81b4b4bdb4ffb89bfb612051b1" target="_top" xlink:title=" ">
<polygon fill="white" stroke="black" points="398.5,-44.5 398.5,-63.5 489.5,-63.5 489.5,-44.5 398.5,-44.5"/>
<text text-anchor="middle" x="444" y="-51.5" font-family="Helvetica,sans-Serif" font-size="10.00">exif_mem_free</text>
</a>
</g>
</g>
<!-- Node10&#45;&gt;Node11 -->
<g id="edge10" class="edge">
<title>Node10&#45;&gt;Node11</title>
<path fill="none" stroke="midnightblue" d="M350.28,-54C363,-54 376.14,-54 388.38,-54"/>
<polygon fill="midnightblue" stroke="midnightblue" points="388.43,-57.5 398.43,-54 388.43,-50.5 388.43,-57.5"/>
</g>
</g>
</svg>
