<?xml version="1.0" encoding="UTF-8" standalone="no"?>
<!DOCTYPE svg PUBLIC "-//W3C//DTD SVG 1.1//EN"
 "http://www.w3.org/Graphics/SVG/1.1/DTD/svg11.dtd">
<!-- Generated by graphviz version 2.44.1 (0)
 -->
<!-- Title: libexif/exif&#45;system.h Pages: 1 -->
<svg width="777pt" height="95pt"
 viewBox="0.00 0.00 777.00 95.00" xmlns="http://www.w3.org/2000/svg" xmlns:xlink="http://www.w3.org/1999/xlink">
<g id="graph0" class="graph" transform="scale(1 1) rotate(0) translate(4 91)">
<title>libexif/exif&#45;system.h</title>
<polygon fill="white" stroke="transparent" points="-4,4 -4,-91 773,-91 773,4 -4,4"/>
<!-- Node1 -->
<g id="node1" class="node">
<title>Node1</title>
<g id="a_node1"><a xlink:title="System specific definitions, not for installation!">
<polygon fill="#bfbfbf" stroke="black" points="342,-67.5 342,-86.5 458,-86.5 458,-67.5 342,-67.5"/>
<text text-anchor="middle" x="400" y="-74.5" font-family="Helvetica,sans-Serif" font-size="10.00">libexif/exif&#45;system.h</text>
</a>
</g>
</g>
<!-- Node2 -->
<g id="node2" class="node">
<title>Node2</title>
<g id="a_node2"><a xlink:href="exif-content_8c.html" target="_top" xlink:title=" ">
<polygon fill="white" stroke="black" points="0,-6 0,-25 116,-25 116,-6 0,-6"/>
<text text-anchor="middle" x="58" y="-13" font-family="Helvetica,sans-Serif" font-size="10.00">libexif/exif&#45;content.c</text>
</a>
</g>
</g>
<!-- Node1&#45;&gt;Node2 -->
<g id="edge1" class="edge">
<title>Node1&#45;&gt;Node2</title>
<path fill="none" stroke="midnightblue" d="M332.59,-65.95C276.82,-57.4 195.58,-44.4 125,-31 115.53,-29.2 105.34,-27.09 95.84,-25.04"/>
<polygon fill="midnightblue" stroke="midnightblue" points="332.29,-69.44 342.7,-67.49 333.35,-62.52 332.29,-69.44"/>
</g>
<!-- Node3 -->
<g id="node3" class="node">
<title>Node3</title>
<g id="a_node3"><a xlink:href="exif-data_8c.html" target="_top" xlink:title=" ">
<polygon fill="white" stroke="black" points="134.5,-6 134.5,-25 235.5,-25 235.5,-6 134.5,-6"/>
<text text-anchor="middle" x="185" y="-13" font-family="Helvetica,sans-Serif" font-size="10.00">libexif/exif&#45;data.c</text>
</a>
</g>
</g>
<!-- Node1&#45;&gt;Node3 -->
<g id="edge2" class="edge">
<title>Node1&#45;&gt;Node3</title>
<path fill="none" stroke="midnightblue" d="M359.35,-64.75C317.58,-53.19 253.48,-35.45 215.75,-25.01"/>
<polygon fill="midnightblue" stroke="midnightblue" points="358.62,-68.18 369.2,-67.48 360.49,-61.43 358.62,-68.18"/>
</g>
<!-- Node4 -->
<g id="node4" class="node">
<title>Node4</title>
<g id="a_node4"><a xlink:href="test-fuzzer-persistent_8c.html" target="_top" xlink:title=" ">
<polygon fill="white" stroke="black" points="253.5,-6 253.5,-25 404.5,-25 404.5,-6 253.5,-6"/>
<text text-anchor="middle" x="329" y="-13" font-family="Helvetica,sans-Serif" font-size="10.00">test/test&#45;fuzzer&#45;persistent.c</text>
</a>
</g>
</g>
<!-- Node1&#45;&gt;Node4 -->
<g id="edge3" class="edge">
<title>Node1&#45;&gt;Node4</title>
<path fill="none" stroke="midnightblue" d="M382.07,-60.97C368.49,-49.59 350.32,-34.37 339.15,-25.01"/>
<polygon fill="midnightblue" stroke="midnightblue" points="379.91,-63.73 389.83,-67.48 384.41,-58.37 379.91,-63.73"/>
</g>
<!-- Node5 -->
<g id="node5" class="node">
<title>Node5</title>
<g id="a_node5"><a xlink:href="test-fuzzer_8c.html" target="_top" xlink:title=" ">
<polygon fill="white" stroke="black" points="422.5,-6 422.5,-25 521.5,-25 521.5,-6 422.5,-6"/>
<text text-anchor="middle" x="472" y="-13" font-family="Helvetica,sans-Serif" font-size="10.00">test/test&#45;fuzzer.c</text>
</a>
</g>
</g>
<!-- Node1&#45;&gt;Node5 -->
<g id="edge4" class="edge">
<title>Node1&#45;&gt;Node5</title>
<path fill="none" stroke="midnightblue" d="M418.18,-60.97C431.96,-49.59 450.38,-34.37 461.7,-25.01"/>
<polygon fill="midnightblue" stroke="midnightblue" points="415.79,-58.41 410.32,-67.48 420.25,-63.8 415.79,-58.41"/>
</g>
<!-- Node6 -->
<g id="node6" class="node">
<title>Node6</title>
<g id="a_node6"><a xlink:href="test-parse-from-data_8c.html" target="_top" xlink:title="Completely parse all files given on the command line.">
<polygon fill="white" stroke="black" points="539.5,-0.5 539.5,-30.5 654.5,-30.5 654.5,-0.5 539.5,-0.5"/>
<text text-anchor="start" x="547.5" y="-18.5" font-family="Helvetica,sans-Serif" font-size="10.00">test/test&#45;parse&#45;from</text>
<text text-anchor="middle" x="597" y="-7.5" font-family="Helvetica,sans-Serif" font-size="10.00">&#45;data.c</text>
</a>
</g>
</g>
<!-- Node1&#45;&gt;Node6 -->
<g id="edge5" class="edge">
<title>Node1&#45;&gt;Node6</title>
<path fill="none" stroke="midnightblue" d="M438.13,-64.48C470.25,-54.78 516.31,-40.87 550.57,-30.52"/>
<polygon fill="midnightblue" stroke="midnightblue" points="436.79,-61.23 428.23,-67.48 438.81,-67.93 436.79,-61.23"/>
</g>
<!-- Node7 -->
<g id="node7" class="node">
<title>Node7</title>
<g id="a_node7"><a xlink:href="test-parse_8c.html" target="_top" xlink:title="Completely parse all files given on the command line.">
<polygon fill="white" stroke="black" points="673,-6 673,-25 769,-25 769,-6 673,-6"/>
<text text-anchor="middle" x="721" y="-13" font-family="Helvetica,sans-Serif" font-size="10.00">test/test&#45;parse.c</text>
</a>
</g>
</g>
<!-- Node1&#45;&gt;Node7 -->
<g id="edge6" class="edge">
<title>Node1&#45;&gt;Node7</title>
<path fill="none" stroke="midnightblue" d="M467.98,-65.95C521.47,-57.67 597.77,-45.04 664,-31 672.29,-29.24 681.2,-27.1 689.45,-25.01"/>
<polygon fill="midnightblue" stroke="midnightblue" points="467.29,-62.52 457.93,-67.49 468.35,-69.43 467.29,-62.52"/>
</g>
</g>
</svg>
