<?xml version="1.0" encoding="UTF-8" standalone="no"?>
<!DOCTYPE svg PUBLIC "-//W3C//DTD SVG 1.1//EN"
 "http://www.w3.org/Graphics/SVG/1.1/DTD/svg11.dtd">
<!-- Generated by graphviz version 7.0.1 (0)
 -->
<!-- Title: exif_data_new Pages: 1 -->
<svg width="1282pt" height="693pt"
 viewBox="0.00 0.00 1282.00 693.34" xmlns="http://www.w3.org/2000/svg" xmlns:xlink="http://www.w3.org/1999/xlink">
<g id="graph0" class="graph" transform="scale(1 1) rotate(0) translate(4 689.34)">
<title>exif_data_new</title>
<!-- Node1 -->
<g id="Node000001" class="node">
<title>Node1</title>
<g id="a_Node000001"><a xlink:title="Allocate a new ExifData.">
<polygon fill="#999999" stroke="#666666" points="88,-168 0,-168 0,-149 88,-149 88,-168"/>
<text text-anchor="middle" x="44" y="-156" font-family="Helvetica,sans-Serif" font-size="10.00">exif_data_new</text>
</a>
</g>
</g>
<!-- Node2 -->
<g id="Node000002" class="node">
<title>Node2</title>
<g id="a_Node000002"><a xlink:href="exif-data_8c.html#a0cda0a73b0d4de2c0eb42ad6c229f31b" target="_top" xlink:title="Allocate a new ExifData using the given memory allocator.">
<polygon fill="white" stroke="#666666" points="249,-567 130,-567 130,-548 249,-548 249,-567"/>
<text text-anchor="middle" x="189.5" y="-555" font-family="Helvetica,sans-Serif" font-size="10.00">exif_data_new_mem</text>
</a>
</g>
</g>
<!-- Node1&#45;&gt;Node2 -->
<g id="edge1_Node000001_Node000002" class="edge">
<title>Node1&#45;&gt;Node2</title>
<g id="a_edge1_Node000001_Node000002"><a xlink:title=" ">
<path fill="none" stroke="#63b8ff" d="M48.55,-168.36C67.31,-220.54 155.13,-464.73 181.19,-537.18"/>
<polygon fill="#63b8ff" stroke="#63b8ff" points="177.76,-537.97 184.44,-546.2 184.35,-535.61 177.76,-537.97"/>
</a>
</g>
</g>
<!-- Node12 -->
<g id="Node000012" class="node">
<title>Node12</title>
<g id="a_Node000012"><a xlink:href="exif-mem_8c.html#a66744e0987af08c443df247ce55f7d87" target="_top" xlink:title="Unrefcount an ExifMem.">
<polygon fill="white" stroke="#666666" points="1147,-320 1050,-320 1050,-301 1147,-301 1147,-320"/>
<text text-anchor="middle" x="1098.5" y="-308" font-family="Helvetica,sans-Serif" font-size="10.00">exif_mem_unref</text>
</a>
</g>
</g>
<!-- Node1&#45;&gt;Node12 -->
<g id="edge38_Node000001_Node000012" class="edge">
<title>Node1&#45;&gt;Node12</title>
<g id="a_edge38_Node000001_Node000012"><a xlink:title=" ">
<path fill="none" stroke="#63b8ff" d="M88.36,-158.5C148.86,-158.5 262.03,-158.5 358.5,-158.5 358.5,-158.5 358.5,-158.5 839.5,-158.5 917.51,-158.5 947.87,-136.11 1014,-177.5 1056.03,-203.81 1080.48,-259.86 1091.12,-290.12"/>
<polygon fill="#63b8ff" stroke="#63b8ff" points="1087.68,-290.85 1094.16,-299.24 1094.32,-288.64 1087.68,-290.85"/>
</a>
</g>
</g>
<!-- Node19 -->
<g id="Node000019" class="node">
<title>Node19</title>
<g id="a_Node000019"><a xlink:href="exif-mem_8c.html#acc8fd4e1a319a790581975db6f1a7233" target="_top" xlink:title="Create a new ExifMem with default values for your convenience.">
<polygon fill="white" stroke="#666666" points="255,-93 124,-93 124,-74 255,-74 255,-93"/>
<text text-anchor="middle" x="189.5" y="-81" font-family="Helvetica,sans-Serif" font-size="10.00">exif_mem_new_default</text>
</a>
</g>
</g>
<!-- Node1&#45;&gt;Node19 -->
<g id="edge33_Node000001_Node000019" class="edge">
<title>Node1&#45;&gt;Node19</title>
<g id="a_edge33_Node000001_Node000019"><a xlink:title=" ">
<path fill="none" stroke="#63b8ff" d="M64.06,-148.54C88.53,-135.75 131.23,-113.43 159.68,-98.56"/>
<polygon fill="#63b8ff" stroke="#63b8ff" points="161.24,-101.7 168.48,-93.96 158,-95.49 161.24,-101.7"/>
</a>
</g>
</g>
<!-- Node3 -->
<g id="Node000003" class="node">
<title>Node3</title>
<g id="a_Node000003"><a xlink:href="exif-content_8c.html#a5c62559b8623211854276df1536c3dac" target="_top" xlink:title="Reserve memory for and initialize new ExifContent using the specified memory allocator.">
<polygon fill="white" stroke="#666666" points="426.5,-586 292.5,-586 292.5,-567 426.5,-567 426.5,-586"/>
<text text-anchor="middle" x="359.5" y="-574" font-family="Helvetica,sans-Serif" font-size="10.00">exif_content_new_mem</text>
</a>
</g>
</g>
<!-- Node2&#45;&gt;Node3 -->
<g id="edge2_Node000002_Node000003" class="edge">
<title>Node2&#45;&gt;Node3</title>
<g id="a_edge2_Node000002_Node000003"><a xlink:title=" ">
<path fill="none" stroke="#63b8ff" d="M249.26,-564.15C259.4,-565.29 270.09,-566.5 280.65,-567.7"/>
<polygon fill="#63b8ff" stroke="#63b8ff" points="280.19,-571.17 290.52,-568.81 280.97,-564.21 280.19,-571.17"/>
</a>
</g>
</g>
<!-- Node4 -->
<g id="Node000004" class="node">
<title>Node4</title>
<g id="a_Node000004"><a xlink:href="exif-mem_8c.html#a68be7c7afc8cff75adc3b1a28b5ae9a2" target="_top" xlink:title=" ">
<polygon fill="white" stroke="#666666" points="576.5,-548 481.5,-548 481.5,-529 576.5,-529 576.5,-548"/>
<text text-anchor="middle" x="529" y="-536" font-family="Helvetica,sans-Serif" font-size="10.00">exif_mem_alloc</text>
</a>
</g>
</g>
<!-- Node2&#45;&gt;Node4 -->
<g id="edge30_Node000002_Node000004" class="edge">
<title>Node2&#45;&gt;Node4</title>
<g id="a_edge30_Node000002_Node000004"><a xlink:title=" ">
<path fill="none" stroke="#63b8ff" d="M249.29,-554.19C311.12,-550.71 407.84,-545.26 469.55,-541.79"/>
<polygon fill="#63b8ff" stroke="#63b8ff" points="469.72,-545.29 479.51,-541.23 469.33,-538.3 469.72,-545.29"/>
</a>
</g>
</g>
<!-- Node5 -->
<g id="Node000005" class="node">
<title>Node5</title>
<g id="a_Node000005"><a xlink:href="exif-mem_8c.html#a43190b81b4b4bdb4ffb89bfb612051b1" target="_top" xlink:title=" ">
<polygon fill="white" stroke="#666666" points="1274,-415 1183,-415 1183,-396 1274,-396 1274,-415"/>
<text text-anchor="middle" x="1228.5" y="-403" font-family="Helvetica,sans-Serif" font-size="10.00">exif_mem_free</text>
</a>
</g>
</g>
<!-- Node2&#45;&gt;Node5 -->
<g id="edge31_Node000002_Node000005" class="edge">
<title>Node2&#45;&gt;Node5</title>
<g id="a_edge31_Node000002_Node000005"><a xlink:title=" ">
<path fill="none" stroke="#63b8ff" d="M225.64,-547.57C286.63,-531.24 416.28,-500.5 528,-500.5 528,-500.5 528,-500.5 969.5,-500.5 1050.67,-500.5 1072.42,-489.53 1147,-457.5 1168.52,-448.26 1190.72,-433.45 1206.34,-422"/>
<polygon fill="#63b8ff" stroke="#63b8ff" points="1208.05,-425.1 1213.94,-416.29 1203.84,-419.5 1208.05,-425.1"/>
</a>
</g>
</g>
<!-- Node6 -->
<g id="Node000006" class="node">
<title>Node6</title>
<g id="a_Node000006"><a xlink:href="exif-mem_8c.html#af28c61972f529be46907956e0b3e7a60" target="_top" xlink:title="Refcount an ExifMem.">
<polygon fill="white" stroke="#666666" points="571.5,-661 486.5,-661 486.5,-642 571.5,-642 571.5,-661"/>
<text text-anchor="middle" x="529" y="-649" font-family="Helvetica,sans-Serif" font-size="10.00">exif_mem_ref</text>
</a>
</g>
</g>
<!-- Node2&#45;&gt;Node6 -->
<g id="edge32_Node000002_Node000006" class="edge">
<title>Node2&#45;&gt;Node6</title>
<g id="a_edge32_Node000002_Node000006"><a xlink:title=" ">
<path fill="none" stroke="#63b8ff" d="M195.6,-567.48C208.1,-590.69 242.81,-647.99 291,-669.5 356.41,-698.69 442.08,-680.02 490.46,-664.97"/>
<polygon fill="#63b8ff" stroke="#63b8ff" points="491.47,-668.32 499.91,-661.91 489.32,-661.66 491.47,-668.32"/>
</a>
</g>
</g>
<!-- Node7 -->
<g id="Node000007" class="node">
<title>Node7</title>
<g id="a_Node000007"><a xlink:href="exif-data_8c.html#a2d2f8fee30176bd6460d51d33d080674" target="_top" xlink:title=" ">
<polygon fill="white" stroke="#666666" points="403,-396 316,-396 316,-377 403,-377 403,-396"/>
<text text-anchor="middle" x="359.5" y="-384" font-family="Helvetica,sans-Serif" font-size="10.00">exif_data_free</text>
</a>
</g>
</g>
<!-- Node2&#45;&gt;Node7 -->
<g id="edge6_Node000002_Node000007" class="edge">
<title>Node2&#45;&gt;Node7</title>
<g id="a_edge6_Node000002_Node000007"><a xlink:title=" ">
<path fill="none" stroke="#63b8ff" d="M200.26,-547.57C227.63,-519.71 305.44,-440.51 340.72,-404.6"/>
<polygon fill="#63b8ff" stroke="#63b8ff" points="343.14,-407.13 347.65,-397.54 338.15,-402.22 343.14,-407.13"/>
</a>
</g>
</g>
<!-- Node17 -->
<g id="Node000017" class="node">
<title>Node17</title>
<g id="a_Node000017"><a xlink:href="exif-data_8c.html#abe6f9020e02df0d550545b50ddcafe24" target="_top" xlink:title="Set the data type for the given ExifData.">
<polygon fill="white" stroke="#666666" points="428,-660 291,-660 291,-641 428,-641 428,-660"/>
<text text-anchor="middle" x="359.5" y="-648" font-family="Helvetica,sans-Serif" font-size="10.00">exif_data_set_data_type</text>
</a>
</g>
</g>
<!-- Node2&#45;&gt;Node17 -->
<g id="edge28_Node000002_Node000017" class="edge">
<title>Node2&#45;&gt;Node17</title>
<g id="a_edge28_Node000002_Node000017"><a xlink:title=" ">
<path fill="none" stroke="#63b8ff" d="M200.76,-567.3C218.01,-583.26 254.55,-614.86 291,-632.5 294.27,-634.09 297.71,-635.55 301.22,-636.89"/>
<polygon fill="#63b8ff" stroke="#63b8ff" points="299.88,-640.13 310.47,-640.08 302.16,-633.51 299.88,-640.13"/>
</a>
</g>
</g>
<!-- Node18 -->
<g id="Node000018" class="node">
<title>Node18</title>
<g id="a_Node000018"><a xlink:href="exif-data_8c.html#af3fd819c29391da3b444cc347b86a3d4" target="_top" xlink:title="Set the given option on the given ExifData.">
<polygon fill="white" stroke="#666666" points="419,-623 300,-623 300,-604 419,-604 419,-623"/>
<text text-anchor="middle" x="359.5" y="-611" font-family="Helvetica,sans-Serif" font-size="10.00">exif_data_set_option</text>
</a>
</g>
</g>
<!-- Node2&#45;&gt;Node18 -->
<g id="edge29_Node000002_Node000018" class="edge">
<title>Node2&#45;&gt;Node18</title>
<g id="a_edge29_Node000002_Node000018"><a xlink:title=" ">
<path fill="none" stroke="#63b8ff" d="M214.63,-567.41C234.84,-575.52 264.54,-586.99 291,-595.5 296.35,-597.22 301.97,-598.91 307.59,-600.51"/>
<polygon fill="#63b8ff" stroke="#63b8ff" points="306.3,-603.79 316.87,-603.1 308.18,-597.04 306.3,-603.79"/>
</a>
</g>
</g>
<!-- Node3&#45;&gt;Node4 -->
<g id="edge3_Node000003_Node000004" class="edge">
<title>Node3&#45;&gt;Node4</title>
<g id="a_edge3_Node000003_Node000004"><a xlink:title=" ">
<path fill="none" stroke="#63b8ff" d="M404.51,-566.52C425.49,-561.76 450.8,-556.01 473.03,-550.97"/>
<polygon fill="#63b8ff" stroke="#63b8ff" points="473.54,-554.44 482.52,-548.82 471.99,-547.62 473.54,-554.44"/>
</a>
</g>
</g>
<!-- Node3&#45;&gt;Node5 -->
<g id="edge4_Node000003_Node000005" class="edge">
<title>Node3&#45;&gt;Node5</title>
<g id="a_edge4_Node000003_Node000005"><a xlink:title=" ">
<path fill="none" stroke="#63b8ff" d="M426.97,-576.5C493.71,-576.5 599.48,-576.5 691,-576.5 691,-576.5 691,-576.5 969.5,-576.5 1053.06,-576.5 1079.74,-564.09 1147,-514.5 1179.36,-490.64 1204.4,-450.05 1217.46,-425.7"/>
<polygon fill="#63b8ff" stroke="#63b8ff" points="1220.56,-427.33 1222.05,-416.84 1214.35,-424.11 1220.56,-427.33"/>
</a>
</g>
</g>
<!-- Node3&#45;&gt;Node6 -->
<g id="edge5_Node000003_Node000006" class="edge">
<title>Node3&#45;&gt;Node6</title>
<g id="a_edge5_Node000003_Node000006"><a xlink:title=" ">
<path fill="none" stroke="#63b8ff" d="M401.72,-586.43C410.52,-589.01 419.68,-592.05 428,-595.5 454.81,-606.59 483.51,-623.22 503.26,-635.47"/>
<polygon fill="#63b8ff" stroke="#63b8ff" points="501.37,-638.42 511.7,-640.79 505.11,-632.5 501.37,-638.42"/>
</a>
</g>
</g>
<!-- Node7&#45;&gt;Node5 -->
<g id="edge21_Node000007_Node000005" class="edge">
<title>Node7&#45;&gt;Node5</title>
<g id="a_edge21_Node000007_Node000005"><a xlink:title=" ">
<path fill="none" stroke="#63b8ff" d="M385.76,-396.44C440.47,-417.04 574.43,-462.5 691,-462.5 691,-462.5 691,-462.5 969.5,-462.5 1049.51,-462.5 1140.25,-436.04 1189.97,-419.18"/>
<polygon fill="#63b8ff" stroke="#63b8ff" points="1191.08,-422.5 1199.38,-415.92 1188.79,-415.88 1191.08,-422.5"/>
</a>
</g>
</g>
<!-- Node8 -->
<g id="Node000008" class="node">
<title>Node8</title>
<g id="a_Node000008"><a xlink:href="exif-content_8c.html#a5e72c0f223d5d1aa33b34f388a5c9d37" target="_top" xlink:title="Decrease reference counter for ExifContent.">
<polygon fill="white" stroke="#666666" points="583,-282 475,-282 475,-263 583,-263 583,-282"/>
<text text-anchor="middle" x="529" y="-270" font-family="Helvetica,sans-Serif" font-size="10.00">exif_content_unref</text>
</a>
</g>
</g>
<!-- Node7&#45;&gt;Node8 -->
<g id="edge7_Node000007_Node000008" class="edge">
<title>Node7&#45;&gt;Node8</title>
<g id="a_edge7_Node000007_Node000008"><a xlink:title=" ">
<path fill="none" stroke="#63b8ff" d="M369.57,-376.54C386.54,-358.42 424.93,-319.78 464,-296.5 470.22,-292.79 477.11,-289.49 484.01,-286.61"/>
<polygon fill="#63b8ff" stroke="#63b8ff" points="485.28,-289.87 493.32,-282.98 482.73,-283.35 485.28,-289.87"/>
</a>
</g>
</g>
<!-- Node7&#45;&gt;Node12 -->
<g id="edge22_Node000007_Node000012" class="edge">
<title>Node7&#45;&gt;Node12</title>
<g id="a_edge22_Node000007_Node000012"><a xlink:title=" ">
<path fill="none" stroke="#63b8ff" d="M383.53,-376.64C404.25,-368.11 435.69,-356 464,-348.5 562.88,-322.31 588.71,-310.5 691,-310.5 691,-310.5 691,-310.5 839.5,-310.5 907.79,-310.5 986.26,-310.5 1038.55,-310.5"/>
<polygon fill="#63b8ff" stroke="#63b8ff" points="1038.43,-314 1048.43,-310.5 1038.43,-307 1038.43,-314"/>
</a>
</g>
</g>
<!-- Node13 -->
<g id="Node000013" class="node">
<title>Node13</title>
<g id="a_Node000013"><a xlink:href="exif-log_8c.html#a7a9b738a7429197d68c80ffedac7d8fb" target="_top" xlink:title=" ">
<polygon fill="white" stroke="#666666" points="881.5,-396 795.5,-396 795.5,-377 881.5,-377 881.5,-396"/>
<text text-anchor="middle" x="838.5" y="-384" font-family="Helvetica,sans-Serif" font-size="10.00">exif_log_unref</text>
</a>
</g>
</g>
<!-- Node7&#45;&gt;Node13 -->
<g id="edge20_Node000007_Node000013" class="edge">
<title>Node7&#45;&gt;Node13</title>
<g id="a_edge20_Node000007_Node000013"><a xlink:title=" ">
<path fill="none" stroke="#63b8ff" d="M403.25,-386.5C490.29,-386.5 687.91,-386.5 783.59,-386.5"/>
<polygon fill="#63b8ff" stroke="#63b8ff" points="783.5,-390 793.5,-386.5 783.5,-383 783.5,-390"/>
</a>
</g>
</g>
<!-- Node15 -->
<g id="Node000015" class="node">
<title>Node15</title>
<g id="a_Node000015"><a xlink:href="exif-mnote-data_8c.html#af910e5c862e5aba351b84b2142d98192" target="_top" xlink:title=" ">
<polygon fill="white" stroke="#666666" points="594,-377 464,-377 464,-358 594,-358 594,-377"/>
<text text-anchor="middle" x="529" y="-365" font-family="Helvetica,sans-Serif" font-size="10.00">exif_mnote_data_unref</text>
</a>
</g>
</g>
<!-- Node7&#45;&gt;Node15 -->
<g id="edge23_Node000007_Node000015" class="edge">
<title>Node7&#45;&gt;Node15</title>
<g id="a_edge23_Node000007_Node000015"><a xlink:title=" ">
<path fill="none" stroke="#63b8ff" d="M403.2,-381.66C418.23,-379.95 435.6,-377.98 452.51,-376.06"/>
<polygon fill="#63b8ff" stroke="#63b8ff" points="452.49,-379.59 462.03,-374.98 451.7,-372.63 452.49,-379.59"/>
</a>
</g>
</g>
<!-- Node9 -->
<g id="Node000009" class="node">
<title>Node9</title>
<g id="a_Node000009"><a xlink:href="exif-content_8c.html#af77d27f5949aa4249fd54a5146c28289" target="_top" xlink:title="Actually free the ExifContent.">
<polygon fill="white" stroke="#666666" points="743,-282 641,-282 641,-263 743,-263 743,-282"/>
<text text-anchor="middle" x="692" y="-270" font-family="Helvetica,sans-Serif" font-size="10.00">exif_content_free</text>
</a>
</g>
</g>
<!-- Node8&#45;&gt;Node9 -->
<g id="edge8_Node000008_Node000009" class="edge">
<title>Node8&#45;&gt;Node9</title>
<g id="a_edge8_Node000008_Node000009"><a xlink:title=" ">
<path fill="none" stroke="#63b8ff" d="M583.16,-272.5C597.91,-272.5 614.04,-272.5 629.23,-272.5"/>
<polygon fill="#63b8ff" stroke="#63b8ff" points="629.11,-276 639.11,-272.5 629.11,-269 629.11,-276"/>
</a>
</g>
</g>
<!-- Node9&#45;&gt;Node5 -->
<g id="edge18_Node000009_Node000005" class="edge">
<title>Node9&#45;&gt;Node5</title>
<g id="a_edge18_Node000009_Node000005"><a xlink:title=" ">
<path fill="none" stroke="#63b8ff" d="M734.54,-262.55C818.63,-244.79 1012.45,-216.13 1147,-291.5 1184.19,-312.34 1208.29,-358.39 1219.72,-385.15"/>
<polygon fill="#63b8ff" stroke="#63b8ff" points="1216.4,-386.26 1223.4,-394.21 1222.88,-383.63 1216.4,-386.26"/>
</a>
</g>
</g>
<!-- Node10 -->
<g id="Node000010" class="node">
<title>Node10</title>
<g id="a_Node000010"><a xlink:href="exif-entry_8c.html#a82d5d923121488d847d341727cdd2ef4" target="_top" xlink:title="Decrease reference counter for ExifEntry.">
<polygon fill="white" stroke="#666666" points="887,-206 790,-206 790,-187 887,-187 887,-206"/>
<text text-anchor="middle" x="838.5" y="-194" font-family="Helvetica,sans-Serif" font-size="10.00">exif_entry_unref</text>
</a>
</g>
</g>
<!-- Node9&#45;&gt;Node10 -->
<g id="edge9_Node000009_Node000010" class="edge">
<title>Node9&#45;&gt;Node10</title>
<g id="a_edge9_Node000009_Node000010"><a xlink:title=" ">
<path fill="none" stroke="#63b8ff" d="M711.17,-262.59C730.6,-252.03 762.37,-234.88 790,-220.5 795.63,-217.57 801.67,-214.48 807.48,-211.53"/>
<polygon fill="#63b8ff" stroke="#63b8ff" points="808.87,-214.75 816.22,-207.12 805.71,-208.5 808.87,-214.75"/>
</a>
</g>
</g>
<!-- Node9&#45;&gt;Node12 -->
<g id="edge19_Node000009_Node000012" class="edge">
<title>Node9&#45;&gt;Node12</title>
<g id="a_edge19_Node000009_Node000012"><a xlink:title=" ">
<path fill="none" stroke="#63b8ff" d="M743.46,-274.84C806.8,-278.11 918.71,-284.97 1014,-296.5 1022.03,-297.47 1030.46,-298.67 1038.75,-299.96"/>
<polygon fill="#63b8ff" stroke="#63b8ff" points="1038,-303.38 1048.43,-301.51 1039.11,-296.47 1038,-303.38"/>
</a>
</g>
</g>
<!-- Node9&#45;&gt;Node13 -->
<g id="edge14_Node000009_Node000013" class="edge">
<title>Node9&#45;&gt;Node13</title>
<g id="a_edge14_Node000009_Node000013"><a xlink:title=" ">
<path fill="none" stroke="#63b8ff" d="M705.57,-282.42C730.23,-301.87 785.21,-345.24 815.84,-369.41"/>
<polygon fill="#63b8ff" stroke="#63b8ff" points="813.65,-372.14 823.67,-375.59 817.98,-366.65 813.65,-372.14"/>
</a>
</g>
</g>
<!-- Node11 -->
<g id="Node000011" class="node">
<title>Node11</title>
<g id="a_Node000011"><a xlink:href="exif-entry_8c.html#a2879215e3863186650d3f32eb63bbaf4" target="_top" xlink:title="Actually free the ExifEntry.">
<polygon fill="white" stroke="#666666" points="1014,-206 923,-206 923,-187 1014,-187 1014,-206"/>
<text text-anchor="middle" x="968.5" y="-194" font-family="Helvetica,sans-Serif" font-size="10.00">exif_entry_free</text>
</a>
</g>
</g>
<!-- Node10&#45;&gt;Node11 -->
<g id="edge10_Node000010_Node000011" class="edge">
<title>Node10&#45;&gt;Node11</title>
<g id="a_edge10_Node000010_Node000011"><a xlink:title=" ">
<path fill="none" stroke="#63b8ff" d="M887.16,-196.5C895.09,-196.5 903.37,-196.5 911.47,-196.5"/>
<polygon fill="#63b8ff" stroke="#63b8ff" points="911.25,-200 921.25,-196.5 911.25,-193 911.25,-200"/>
</a>
</g>
</g>
<!-- Node11&#45;&gt;Node5 -->
<g id="edge11_Node000011_Node000005" class="edge">
<title>Node11&#45;&gt;Node5</title>
<g id="a_edge11_Node000011_Node000005"><a xlink:title=" ">
<path fill="none" stroke="#63b8ff" d="M1014.15,-191.09C1053.06,-188.84 1109.05,-191.81 1147,-220.5 1200.84,-261.2 1219.23,-345.44 1225.04,-384.62"/>
<polygon fill="#63b8ff" stroke="#63b8ff" points="1221.55,-384.9 1226.34,-394.35 1228.49,-383.97 1221.55,-384.9"/>
</a>
</g>
</g>
<!-- Node11&#45;&gt;Node12 -->
<g id="edge12_Node000011_Node000012" class="edge">
<title>Node11&#45;&gt;Node12</title>
<g id="a_edge12_Node000011_Node000012"><a xlink:title=" ">
<path fill="none" stroke="#63b8ff" d="M980.41,-206.22C1002.14,-225.57 1051.05,-269.13 1078.28,-293.38"/>
<polygon fill="#63b8ff" stroke="#63b8ff" points="1075.69,-295.76 1085.48,-299.8 1080.34,-290.53 1075.69,-295.76"/>
</a>
</g>
</g>
<!-- Node12&#45;&gt;Node5 -->
<g id="edge13_Node000012_Node000005" class="edge">
<title>Node12&#45;&gt;Node5</title>
<g id="a_edge13_Node000012_Node000005"><a xlink:title=" ">
<path fill="none" stroke="#63b8ff" d="M1112.72,-320.31C1134.56,-336.52 1178.44,-369.09 1205.17,-388.92"/>
<polygon fill="#63b8ff" stroke="#63b8ff" points="1202.83,-391.55 1212.95,-394.7 1207,-385.93 1202.83,-391.55"/>
</a>
</g>
</g>
<!-- Node14 -->
<g id="Node000014" class="node">
<title>Node14</title>
<g id="a_Node000014"><a xlink:href="exif-log_8c.html#acd0808d6d5be73f28059797c2e2e67dc" target="_top" xlink:title="Delete instance of ExifLog.">
<polygon fill="white" stroke="#666666" points="1008.5,-396 928.5,-396 928.5,-377 1008.5,-377 1008.5,-396"/>
<text text-anchor="middle" x="968.5" y="-384" font-family="Helvetica,sans-Serif" font-size="10.00">exif_log_free</text>
</a>
</g>
</g>
<!-- Node13&#45;&gt;Node14 -->
<g id="edge15_Node000013_Node000014" class="edge">
<title>Node13&#45;&gt;Node14</title>
<g id="a_edge15_Node000013_Node000014"><a xlink:title=" ">
<path fill="none" stroke="#63b8ff" d="M881.77,-386.5C893.02,-386.5 905.28,-386.5 916.93,-386.5"/>
<polygon fill="#63b8ff" stroke="#63b8ff" points="916.8,-390 926.8,-386.5 916.8,-383 916.8,-390"/>
</a>
</g>
</g>
<!-- Node14&#45;&gt;Node5 -->
<g id="edge16_Node000014_Node000005" class="edge">
<title>Node14&#45;&gt;Node5</title>
<g id="a_edge16_Node000014_Node000005"><a xlink:title=" ">
<path fill="none" stroke="#63b8ff" d="M1008.97,-389.41C1052.35,-392.6 1122.4,-397.76 1171.47,-401.37"/>
<polygon fill="#63b8ff" stroke="#63b8ff" points="1171.1,-404.86 1181.33,-402.1 1171.61,-397.87 1171.1,-404.86"/>
</a>
</g>
</g>
<!-- Node14&#45;&gt;Node12 -->
<g id="edge17_Node000014_Node000012" class="edge">
<title>Node14&#45;&gt;Node12</title>
<g id="a_edge17_Node000014_Node000012"><a xlink:title=" ">
<path fill="none" stroke="#63b8ff" d="M988.26,-376.71C996.26,-372.46 1005.65,-367.35 1014,-362.5 1034.06,-350.86 1056.34,-336.93 1072.83,-326.43"/>
<polygon fill="#63b8ff" stroke="#63b8ff" points="1074.47,-329.53 1081.01,-321.19 1070.7,-323.63 1074.47,-329.53"/>
</a>
</g>
</g>
<!-- Node16 -->
<g id="Node000016" class="node">
<title>Node16</title>
<g id="a_Node000016"><a xlink:href="exif-mnote-data_8c.html#a2f715582f27a9821560931aeaa139abd" target="_top" xlink:title=" ">
<polygon fill="white" stroke="#666666" points="754,-377 630,-377 630,-358 754,-358 754,-377"/>
<text text-anchor="middle" x="692" y="-365" font-family="Helvetica,sans-Serif" font-size="10.00">exif_mnote_data_free</text>
</a>
</g>
</g>
<!-- Node15&#45;&gt;Node16 -->
<g id="edge24_Node000015_Node000016" class="edge">
<title>Node15&#45;&gt;Node16</title>
<g id="a_edge24_Node000015_Node000016"><a xlink:title=" ">
<path fill="none" stroke="#63b8ff" d="M594.09,-367.5C602.08,-367.5 610.29,-367.5 618.4,-367.5"/>
<polygon fill="#63b8ff" stroke="#63b8ff" points="618.23,-371 628.23,-367.5 618.23,-364 618.23,-371"/>
</a>
</g>
</g>
<!-- Node16&#45;&gt;Node5 -->
<g id="edge26_Node000016_Node000005" class="edge">
<title>Node16&#45;&gt;Node5</title>
<g id="a_edge26_Node000016_Node000005"><a xlink:title=" ">
<path fill="none" stroke="#63b8ff" d="M712.07,-377.34C731.2,-386.63 761.78,-399.95 790,-405.5 924.7,-432.02 1087.29,-421.09 1171.23,-412.37"/>
<polygon fill="#63b8ff" stroke="#63b8ff" points="1171.47,-415.87 1181.04,-411.32 1170.72,-408.91 1171.47,-415.87"/>
</a>
</g>
</g>
<!-- Node16&#45;&gt;Node12 -->
<g id="edge27_Node000016_Node000012" class="edge">
<title>Node16&#45;&gt;Node12</title>
<g id="a_edge27_Node000016_Node000012"><a xlink:title=" ">
<path fill="none" stroke="#63b8ff" d="M754.32,-359.9C818.99,-351.73 923.79,-338.1 1014,-324.5 1021.99,-323.29 1030.41,-321.96 1038.69,-320.61"/>
<polygon fill="#63b8ff" stroke="#63b8ff" points="1039.06,-324.1 1048.36,-319.01 1037.92,-317.19 1039.06,-324.1"/>
</a>
</g>
</g>
<!-- Node16&#45;&gt;Node13 -->
<g id="edge25_Node000016_Node000013" class="edge">
<title>Node16&#45;&gt;Node13</title>
<g id="a_edge25_Node000016_Node000013"><a xlink:title=" ">
<path fill="none" stroke="#63b8ff" d="M754.28,-375.56C764.23,-376.87 774.47,-378.21 784.21,-379.49"/>
<polygon fill="#63b8ff" stroke="#63b8ff" points="783.5,-382.93 793.87,-380.76 784.41,-375.99 783.5,-382.93"/>
</a>
</g>
</g>
<!-- Node20 -->
<g id="Node000020" class="node">
<title>Node20</title>
<g id="a_Node000020"><a xlink:href="exif-mem_8c.html#a9d47487760e137ed23df5e1e79b3d3cd" target="_top" xlink:title="Default memory allocation function.">
<polygon fill="white" stroke="#666666" points="420,-130 299,-130 299,-111 420,-111 420,-130"/>
<text text-anchor="middle" x="359.5" y="-118" font-family="Helvetica,sans-Serif" font-size="10.00">exif_mem_alloc_func</text>
</a>
</g>
</g>
<!-- Node19&#45;&gt;Node20 -->
<g id="edge34_Node000019_Node000020" class="edge">
<title>Node19&#45;&gt;Node20</title>
<g id="a_edge34_Node000019_Node000020"><a xlink:title=" ">
<path fill="none" stroke="#63b8ff" d="M235.52,-93.42C256.05,-97.94 280.56,-103.34 302.29,-108.12"/>
<polygon fill="#63b8ff" stroke="#63b8ff" points="301.36,-111.5 311.88,-110.23 302.86,-104.66 301.36,-111.5"/>
</a>
</g>
</g>
<!-- Node21 -->
<g id="Node000021" class="node">
<title>Node21</title>
<g id="a_Node000021"><a xlink:href="exif-mem_8c.html#a30e654456ffed5baaf5a23f1d8817aa6" target="_top" xlink:title="Default memory free function.">
<polygon fill="white" stroke="#666666" points="418,-93 301,-93 301,-74 418,-74 418,-93"/>
<text text-anchor="middle" x="359.5" y="-81" font-family="Helvetica,sans-Serif" font-size="10.00">exif_mem_free_func</text>
</a>
</g>
</g>
<!-- Node19&#45;&gt;Node21 -->
<g id="edge35_Node000019_Node000021" class="edge">
<title>Node19&#45;&gt;Node21</title>
<g id="a_edge35_Node000019_Node000021"><a xlink:title=" ">
<path fill="none" stroke="#63b8ff" d="M255.45,-83.5C266.49,-83.5 277.98,-83.5 289.12,-83.5"/>
<polygon fill="#63b8ff" stroke="#63b8ff" points="289.06,-87 299.06,-83.5 289.06,-80 289.06,-87"/>
</a>
</g>
</g>
<!-- Node22 -->
<g id="Node000022" class="node">
<title>Node22</title>
<g id="a_Node000022"><a xlink:href="exif-mem_8c.html#a7c75dbf49ec65be9e1aa5b79d79c7ea6" target="_top" xlink:title="Create a new ExifMem.">
<polygon fill="white" stroke="#666666" points="405.5,-56 313.5,-56 313.5,-37 405.5,-37 405.5,-56"/>
<text text-anchor="middle" x="359.5" y="-44" font-family="Helvetica,sans-Serif" font-size="10.00">exif_mem_new</text>
</a>
</g>
</g>
<!-- Node19&#45;&gt;Node22 -->
<g id="edge36_Node000019_Node000022" class="edge">
<title>Node19&#45;&gt;Node22</title>
<g id="a_edge36_Node000019_Node000022"><a xlink:title=" ">
<path fill="none" stroke="#63b8ff" d="M235.52,-73.58C256.05,-69.06 280.56,-63.66 302.29,-58.88"/>
<polygon fill="#63b8ff" stroke="#63b8ff" points="302.86,-62.34 311.88,-56.77 301.36,-55.5 302.86,-62.34"/>
</a>
</g>
</g>
<!-- Node23 -->
<g id="Node000023" class="node">
<title>Node23</title>
<g id="a_Node000023"><a xlink:href="exif-mem_8c.html#a92c900883df8fe466c158d00153404fe" target="_top" xlink:title="Default memory reallocation function.">
<polygon fill="white" stroke="#666666" points="425,-19 294,-19 294,0 425,0 425,-19"/>
<text text-anchor="middle" x="359.5" y="-7" font-family="Helvetica,sans-Serif" font-size="10.00">exif_mem_realloc_func</text>
</a>
</g>
</g>
<!-- Node19&#45;&gt;Node23 -->
<g id="edge37_Node000019_Node000023" class="edge">
<title>Node19&#45;&gt;Node23</title>
<g id="a_edge37_Node000019_Node000023"><a xlink:title=" ">
<path fill="none" stroke="#63b8ff" d="M205.57,-73.53C224.73,-61.24 259.15,-40.39 291,-27.5 295.12,-25.83 299.44,-24.27 303.83,-22.83"/>
<polygon fill="#63b8ff" stroke="#63b8ff" points="304.79,-26.19 313.32,-19.91 302.73,-19.5 304.79,-26.19"/>
</a>
</g>
</g>
</g>
</svg>
