<?xml version="1.0" encoding="UTF-8" standalone="no"?>
<!DOCTYPE svg PUBLIC "-//W3C//DTD SVG 1.1//EN"
 "http://www.w3.org/Graphics/SVG/1.1/DTD/svg11.dtd">
<!-- Generated by graphviz version 2.44.1 (0)
 -->
<!-- Title: libexif/exif&#45;loader.h Pages: 1 -->
<svg width="742pt" height="84pt"
 viewBox="0.00 0.00 742.00 84.00" xmlns="http://www.w3.org/2000/svg" xmlns:xlink="http://www.w3.org/1999/xlink">
<g id="graph0" class="graph" transform="scale(1 1) rotate(0) translate(4 80)">
<title>libexif/exif&#45;loader.h</title>
<polygon fill="white" stroke="transparent" points="-4,4 -4,-80 738,-80 738,4 -4,4"/>
<!-- Node1 -->
<g id="node1" class="node">
<title>Node1</title>
<g id="a_node1"><a xlink:title="Defines the ExifLoader type.">
<polygon fill="#bfbfbf" stroke="black" points="339,-56.5 339,-75.5 450,-75.5 450,-56.5 339,-56.5"/>
<text text-anchor="middle" x="394.5" y="-63.5" font-family="Helvetica,sans-Serif" font-size="10.00">libexif/exif&#45;loader.h</text>
</a>
</g>
</g>
<!-- Node2 -->
<g id="node2" class="node">
<title>Node2</title>
<g id="a_node2"><a xlink:href="exif-data_8c.html" target="_top" xlink:title=" ">
<polygon fill="white" stroke="black" points="0,-0.5 0,-19.5 101,-19.5 101,-0.5 0,-0.5"/>
<text text-anchor="middle" x="50.5" y="-7.5" font-family="Helvetica,sans-Serif" font-size="10.00">libexif/exif&#45;data.c</text>
</a>
</g>
</g>
<!-- Node1&#45;&gt;Node2 -->
<g id="edge1" class="edge">
<title>Node1&#45;&gt;Node2</title>
<path fill="none" stroke="midnightblue" d="M330.07,-54.89C263.77,-44.48 161.85,-28.48 101.11,-18.94"/>
<polygon fill="midnightblue" stroke="midnightblue" points="329.57,-58.35 339.99,-56.44 330.66,-51.44 329.57,-58.35"/>
</g>
<!-- Node3 -->
<g id="node3" class="node">
<title>Node3</title>
<g id="a_node3"><a xlink:href="exif-loader_8c.html" target="_top" xlink:title=" ">
<polygon fill="white" stroke="black" points="119.5,-0.5 119.5,-19.5 229.5,-19.5 229.5,-0.5 119.5,-0.5"/>
<text text-anchor="middle" x="174.5" y="-7.5" font-family="Helvetica,sans-Serif" font-size="10.00">libexif/exif&#45;loader.c</text>
</a>
</g>
</g>
<!-- Node1&#45;&gt;Node3 -->
<g id="edge2" class="edge">
<title>Node1&#45;&gt;Node3</title>
<path fill="none" stroke="midnightblue" d="M349.78,-54.02C308.22,-43.82 247.19,-28.84 209.2,-19.52"/>
<polygon fill="midnightblue" stroke="midnightblue" points="349.09,-57.46 359.64,-56.44 350.76,-50.66 349.09,-57.46"/>
</g>
<!-- Node4 -->
<g id="node4" class="node">
<title>Node4</title>
<g id="a_node4"><a xlink:href="test-fuzzer-persistent_8c.html" target="_top" xlink:title=" ">
<polygon fill="white" stroke="black" points="248,-0.5 248,-19.5 399,-19.5 399,-0.5 248,-0.5"/>
<text text-anchor="middle" x="323.5" y="-7.5" font-family="Helvetica,sans-Serif" font-size="10.00">test/test&#45;fuzzer&#45;persistent.c</text>
</a>
</g>
</g>
<!-- Node1&#45;&gt;Node4 -->
<g id="edge3" class="edge">
<title>Node1&#45;&gt;Node4</title>
<path fill="none" stroke="midnightblue" d="M374.91,-50.1C362.13,-40.38 345.89,-28.03 335.11,-19.83"/>
<polygon fill="midnightblue" stroke="midnightblue" points="373.01,-53.06 383.09,-56.32 377.25,-47.48 373.01,-53.06"/>
</g>
<!-- Node5 -->
<g id="node5" class="node">
<title>Node5</title>
<g id="a_node5"><a xlink:href="test-fuzzer_8c.html" target="_top" xlink:title=" ">
<polygon fill="white" stroke="black" points="417,-0.5 417,-19.5 516,-19.5 516,-0.5 417,-0.5"/>
<text text-anchor="middle" x="466.5" y="-7.5" font-family="Helvetica,sans-Serif" font-size="10.00">test/test&#45;fuzzer.c</text>
</a>
</g>
</g>
<!-- Node1&#45;&gt;Node5 -->
<g id="edge4" class="edge">
<title>Node1&#45;&gt;Node5</title>
<path fill="none" stroke="midnightblue" d="M414.37,-50.1C427.32,-40.38 443.8,-28.03 454.72,-19.83"/>
<polygon fill="midnightblue" stroke="midnightblue" points="411.97,-47.52 406.07,-56.32 416.17,-53.12 411.97,-47.52"/>
</g>
<!-- Node6 -->
<g id="node6" class="node">
<title>Node6</title>
<g id="a_node6"><a xlink:href="test-mem_8c.html" target="_top" xlink:title=" ">
<polygon fill="white" stroke="black" points="534,-0.5 534,-19.5 629,-19.5 629,-0.5 534,-0.5"/>
<text text-anchor="middle" x="581.5" y="-7.5" font-family="Helvetica,sans-Serif" font-size="10.00">test/test&#45;mem.c</text>
</a>
</g>
</g>
<!-- Node1&#45;&gt;Node6 -->
<g id="edge5" class="edge">
<title>Node1&#45;&gt;Node6</title>
<path fill="none" stroke="midnightblue" d="M434.09,-53.57C469.37,-43.38 520.19,-28.7 552.01,-19.52"/>
<polygon fill="midnightblue" stroke="midnightblue" points="432.77,-50.31 424.13,-56.44 434.71,-57.03 432.77,-50.31"/>
</g>
<!-- Node7 -->
<g id="node7" class="node">
<title>Node7</title>
<g id="a_node7"><a xlink:href="test-null_8c.html" target="_top" xlink:title="Pass NULL values into libexif APIs and ensure it doesn&#39;t crash.">
<polygon fill="white" stroke="black" points="647,-0.5 647,-19.5 734,-19.5 734,-0.5 647,-0.5"/>
<text text-anchor="middle" x="690.5" y="-7.5" font-family="Helvetica,sans-Serif" font-size="10.00">test/test&#45;null.c</text>
</a>
</g>
</g>
<!-- Node1&#45;&gt;Node7 -->
<g id="edge6" class="edge">
<title>Node1&#45;&gt;Node7</title>
<path fill="none" stroke="midnightblue" d="M451.33,-54.63C508.32,-44.24 594.85,-28.45 646.71,-18.99"/>
<polygon fill="midnightblue" stroke="midnightblue" points="450.61,-51.21 441.4,-56.44 451.87,-58.09 450.61,-51.21"/>
</g>
</g>
</svg>
