<?xml version="1.0" encoding="UTF-8" standalone="no"?>
<!DOCTYPE svg PUBLIC "-//W3C//DTD SVG 1.1//EN"
 "http://www.w3.org/Graphics/SVG/1.1/DTD/svg11.dtd">
<!-- Generated by graphviz version 2.44.1 (0)
 -->
<!-- Title: libexif/exif&#45;loader.c Pages: 1 -->
<svg width="778pt" height="431pt"
 viewBox="0.00 0.00 777.50 431.00" xmlns="http://www.w3.org/2000/svg" xmlns:xlink="http://www.w3.org/1999/xlink">
<g id="graph0" class="graph" transform="scale(1 1) rotate(0) translate(4 427)">
<title>libexif/exif&#45;loader.c</title>
<polygon fill="white" stroke="transparent" points="-4,4 -4,-427 773.5,-427 773.5,4 -4,4"/>
<!-- Node1 -->
<g id="node1" class="node">
<title>Node1</title>
<g id="a_node1"><a xlink:title=" ">
<polygon fill="#bfbfbf" stroke="black" points="214,-403.5 214,-422.5 324,-422.5 324,-403.5 214,-403.5"/>
<text text-anchor="middle" x="269" y="-410.5" font-family="Helvetica,sans-Serif" font-size="10.00">libexif/exif&#45;loader.c</text>
</a>
</g>
</g>
<!-- Node2 -->
<g id="node2" class="node">
<title>Node2</title>
<g id="a_node2"><a xlink:title=" ">
<polygon fill="white" stroke="#bfbfbf" points="0,-291.5 0,-310.5 56,-310.5 56,-291.5 0,-291.5"/>
<text text-anchor="middle" x="28" y="-298.5" font-family="Helvetica,sans-Serif" font-size="10.00">config.h</text>
</a>
</g>
</g>
<!-- Node1&#45;&gt;Node2 -->
<g id="edge1" class="edge">
<title>Node1&#45;&gt;Node2</title>
<path fill="none" stroke="midnightblue" d="M213.93,-410.32C146.5,-406.96 38.13,-396.94 13,-367 1.87,-353.74 8.85,-333.8 16.59,-319.5"/>
<polygon fill="midnightblue" stroke="midnightblue" points="19.75,-321.04 21.86,-310.66 13.73,-317.46 19.75,-321.04"/>
</g>
<!-- Node3 -->
<g id="node3" class="node">
<title>Node3</title>
<g id="a_node3"><a xlink:href="exif-loader_8h.html" target="_top" xlink:title="Defines the ExifLoader type.">
<polygon fill="white" stroke="black" points="158.5,-347.5 158.5,-366.5 269.5,-366.5 269.5,-347.5 158.5,-347.5"/>
<text text-anchor="middle" x="214" y="-354.5" font-family="Helvetica,sans-Serif" font-size="10.00">libexif/exif&#45;loader.h</text>
</a>
</g>
</g>
<!-- Node1&#45;&gt;Node3 -->
<g id="edge2" class="edge">
<title>Node1&#45;&gt;Node3</title>
<path fill="none" stroke="midnightblue" d="M259.92,-403.08C251.83,-395.14 239.8,-383.34 230.09,-373.8"/>
<polygon fill="midnightblue" stroke="midnightblue" points="232.5,-371.26 222.91,-366.75 227.6,-376.25 232.5,-371.26"/>
</g>
<!-- Node10 -->
<g id="node10" class="node">
<title>Node10</title>
<g id="a_node10"><a xlink:href="exif-utils_8h.html" target="_top" xlink:title="EXIF data manipulation functions and types.">
<polygon fill="white" stroke="black" points="165.5,-56.5 165.5,-75.5 266.5,-75.5 266.5,-56.5 165.5,-56.5"/>
<text text-anchor="middle" x="216" y="-63.5" font-family="Helvetica,sans-Serif" font-size="10.00">libexif/exif&#45;utils.h</text>
</a>
</g>
</g>
<!-- Node1&#45;&gt;Node10 -->
<g id="edge31" class="edge">
<title>Node1&#45;&gt;Node10</title>
<path fill="none" stroke="midnightblue" d="M218.09,-403.43C194.52,-397.05 167.84,-386 150,-367 129.31,-344.96 130,-332.23 130,-302 130,-302 130,-302 130,-177 130,-146.2 135.4,-136.55 154,-112 163.69,-99.2 178.03,-88.47 190.48,-80.7"/>
<polygon fill="midnightblue" stroke="midnightblue" points="192.29,-83.69 199.11,-75.58 188.72,-77.67 192.29,-83.69"/>
</g>
<!-- Node18 -->
<g id="node18" class="node">
<title>Node18</title>
<g id="a_node18"><a xlink:href="i18n_8h.html" target="_top" xlink:title=" ">
<polygon fill="white" stroke="black" points="22,-347.5 22,-366.5 102,-366.5 102,-347.5 22,-347.5"/>
<text text-anchor="middle" x="62" y="-354.5" font-family="Helvetica,sans-Serif" font-size="10.00">libexif/i18n.h</text>
</a>
</g>
</g>
<!-- Node1&#45;&gt;Node18 -->
<g id="edge32" class="edge">
<title>Node1&#45;&gt;Node18</title>
<path fill="none" stroke="midnightblue" d="M236.2,-403.44C200.62,-394.16 143.69,-379.31 104.65,-369.13"/>
<polygon fill="midnightblue" stroke="midnightblue" points="105.21,-365.65 94.65,-366.52 103.44,-372.43 105.21,-365.65"/>
</g>
<!-- Node19 -->
<g id="node19" class="node">
<title>Node19</title>
<g id="a_node19"><a xlink:title=" ">
<polygon fill="white" stroke="#bfbfbf" points="288,-347.5 288,-366.5 360,-366.5 360,-347.5 288,-347.5"/>
<text text-anchor="middle" x="324" y="-354.5" font-family="Helvetica,sans-Serif" font-size="10.00">sys/types.h</text>
</a>
</g>
</g>
<!-- Node1&#45;&gt;Node19 -->
<g id="edge34" class="edge">
<title>Node1&#45;&gt;Node19</title>
<path fill="none" stroke="midnightblue" d="M278.08,-403.08C286.17,-395.14 298.2,-383.34 307.91,-373.8"/>
<polygon fill="midnightblue" stroke="midnightblue" points="310.4,-376.25 315.09,-366.75 305.5,-371.26 310.4,-376.25"/>
</g>
<!-- Node20 -->
<g id="node20" class="node">
<title>Node20</title>
<g id="a_node20"><a xlink:title=" ">
<polygon fill="white" stroke="#bfbfbf" points="378.5,-347.5 378.5,-366.5 431.5,-366.5 431.5,-347.5 378.5,-347.5"/>
<text text-anchor="middle" x="405" y="-354.5" font-family="Helvetica,sans-Serif" font-size="10.00">stdlib.h</text>
</a>
</g>
</g>
<!-- Node1&#45;&gt;Node20 -->
<g id="edge35" class="edge">
<title>Node1&#45;&gt;Node20</title>
<path fill="none" stroke="midnightblue" d="M290.55,-403.44C313.03,-394.52 348.49,-380.44 373.98,-370.32"/>
<polygon fill="midnightblue" stroke="midnightblue" points="375.55,-373.46 383.55,-366.52 372.97,-366.95 375.55,-373.46"/>
</g>
<!-- Node21 -->
<g id="node21" class="node">
<title>Node21</title>
<g id="a_node21"><a xlink:title=" ">
<polygon fill="white" stroke="#bfbfbf" points="449.5,-347.5 449.5,-366.5 502.5,-366.5 502.5,-347.5 449.5,-347.5"/>
<text text-anchor="middle" x="476" y="-354.5" font-family="Helvetica,sans-Serif" font-size="10.00">string.h</text>
</a>
</g>
</g>
<!-- Node1&#45;&gt;Node21 -->
<g id="edge36" class="edge">
<title>Node1&#45;&gt;Node21</title>
<path fill="none" stroke="midnightblue" d="M301.8,-403.44C339.26,-393.67 400.4,-377.72 439.39,-367.55"/>
<polygon fill="midnightblue" stroke="midnightblue" points="440.49,-370.88 449.28,-364.97 438.72,-364.11 440.49,-370.88"/>
</g>
<!-- Node22 -->
<g id="node22" class="node">
<title>Node22</title>
<g id="a_node22"><a xlink:title=" ">
<polygon fill="white" stroke="#bfbfbf" points="521,-347.5 521,-366.5 571,-366.5 571,-347.5 521,-347.5"/>
<text text-anchor="middle" x="546" y="-354.5" font-family="Helvetica,sans-Serif" font-size="10.00">stdio.h</text>
</a>
</g>
</g>
<!-- Node1&#45;&gt;Node22 -->
<g id="edge37" class="edge">
<title>Node1&#45;&gt;Node22</title>
<path fill="none" stroke="midnightblue" d="M321.37,-403.48C368.53,-395.54 439.93,-382.87 510.81,-367.14"/>
<polygon fill="midnightblue" stroke="midnightblue" points="511.81,-370.5 520.8,-364.9 510.28,-363.67 511.81,-370.5"/>
</g>
<!-- Node4 -->
<g id="node4" class="node">
<title>Node4</title>
<g id="a_node4"><a xlink:href="exif-data_8h.html" target="_top" xlink:title="Defines the ExifData type and the associated functions.">
<polygon fill="white" stroke="black" points="375,-291.5 375,-310.5 477,-310.5 477,-291.5 375,-291.5"/>
<text text-anchor="middle" x="426" y="-298.5" font-family="Helvetica,sans-Serif" font-size="10.00">libexif/exif&#45;data.h</text>
</a>
</g>
</g>
<!-- Node3&#45;&gt;Node4 -->
<g id="edge3" class="edge">
<title>Node3&#45;&gt;Node4</title>
<path fill="none" stroke="midnightblue" d="M247.59,-347.44C284.19,-338.12 342.84,-323.18 382.83,-313"/>
<polygon fill="midnightblue" stroke="midnightblue" points="383.74,-316.38 392.57,-310.52 382.01,-309.59 383.74,-316.38"/>
</g>
<!-- Node8 -->
<g id="node8" class="node">
<title>Node8</title>
<g id="a_node8"><a xlink:href="exif-log_8h.html" target="_top" xlink:title="Log message infrastructure.">
<polygon fill="white" stroke="black" points="253.5,-168.5 253.5,-187.5 348.5,-187.5 348.5,-168.5 253.5,-168.5"/>
<text text-anchor="middle" x="301" y="-175.5" font-family="Helvetica,sans-Serif" font-size="10.00">libexif/exif&#45;log.h</text>
</a>
</g>
</g>
<!-- Node3&#45;&gt;Node8 -->
<g id="edge29" class="edge">
<title>Node3&#45;&gt;Node8</title>
<path fill="none" stroke="midnightblue" d="M218.2,-347.46C231.6,-320.19 273.58,-234.78 292.09,-197.13"/>
<polygon fill="midnightblue" stroke="midnightblue" points="295.37,-198.39 296.64,-187.87 289.09,-195.3 295.37,-198.39"/>
</g>
<!-- Node9 -->
<g id="node9" class="node">
<title>Node9</title>
<g id="a_node9"><a xlink:href="exif-mem_8h.html" target="_top" xlink:title="Define the ExifMem data type and the associated functions.">
<polygon fill="white" stroke="black" points="163,-112.5 163,-131.5 269,-131.5 269,-112.5 163,-112.5"/>
<text text-anchor="middle" x="216" y="-119.5" font-family="Helvetica,sans-Serif" font-size="10.00">libexif/exif&#45;mem.h</text>
</a>
</g>
</g>
<!-- Node3&#45;&gt;Node9 -->
<g id="edge30" class="edge">
<title>Node3&#45;&gt;Node9</title>
<path fill="none" stroke="midnightblue" d="M214.07,-347.43C214.36,-313.75 215.42,-189.99 215.84,-142.1"/>
<polygon fill="midnightblue" stroke="midnightblue" points="219.34,-141.93 215.92,-131.9 212.34,-141.87 219.34,-141.93"/>
</g>
<!-- Node5 -->
<g id="node5" class="node">
<title>Node5</title>
<g id="a_node5"><a xlink:href="exif-byte-order_8h.html" target="_top" xlink:title="Defines the ExifByteOrder enum and the associated functions.">
<polygon fill="white" stroke="black" points="26.5,-0.5 26.5,-19.5 157.5,-19.5 157.5,-0.5 26.5,-0.5"/>
<text text-anchor="middle" x="92" y="-7.5" font-family="Helvetica,sans-Serif" font-size="10.00">libexif/exif&#45;byte&#45;order.h</text>
</a>
</g>
</g>
<!-- Node4&#45;&gt;Node5 -->
<g id="edge4" class="edge">
<title>Node4&#45;&gt;Node5</title>
<path fill="none" stroke="midnightblue" d="M374.91,-292.38C281.35,-276.97 92,-238.44 92,-179 92,-179 92,-179 92,-121 92,-88.95 92,-51.64 92,-29.75"/>
<polygon fill="midnightblue" stroke="midnightblue" points="95.5,-29.56 92,-19.56 88.5,-29.56 95.5,-29.56"/>
</g>
<!-- Node6 -->
<g id="node6" class="node">
<title>Node6</title>
<g id="a_node6"><a xlink:href="exif-data-type_8h.html" target="_top" xlink:title=" ">
<polygon fill="white" stroke="black" points="519,-112.5 519,-131.5 647,-131.5 647,-112.5 519,-112.5"/>
<text text-anchor="middle" x="583" y="-119.5" font-family="Helvetica,sans-Serif" font-size="10.00">libexif/exif&#45;data&#45;type.h</text>
</a>
</g>
</g>
<!-- Node4&#45;&gt;Node6 -->
<g id="edge5" class="edge">
<title>Node4&#45;&gt;Node6</title>
<path fill="none" stroke="midnightblue" d="M477.09,-294.99C504.95,-289.57 537.77,-278.32 558,-255 585.81,-222.95 586.72,-169.79 584.92,-141.71"/>
<polygon fill="midnightblue" stroke="midnightblue" points="588.4,-141.32 584.08,-131.65 581.42,-141.9 588.4,-141.32"/>
</g>
<!-- Node7 -->
<g id="node7" class="node">
<title>Node7</title>
<g id="a_node7"><a xlink:href="exif-ifd_8h.html" target="_top" xlink:title=" ">
<polygon fill="white" stroke="black" points="676.5,-112.5 676.5,-131.5 769.5,-131.5 769.5,-112.5 676.5,-112.5"/>
<text text-anchor="middle" x="723" y="-119.5" font-family="Helvetica,sans-Serif" font-size="10.00">libexif/exif&#45;ifd.h</text>
</a>
</g>
</g>
<!-- Node4&#45;&gt;Node7 -->
<g id="edge6" class="edge">
<title>Node4&#45;&gt;Node7</title>
<path fill="none" stroke="midnightblue" d="M477.19,-294.14C517.67,-288.13 574.86,-276.5 621,-255 665.88,-234.09 683.64,-229.91 710,-188 718.71,-174.15 721.76,-155.63 722.74,-141.91"/>
<polygon fill="midnightblue" stroke="midnightblue" points="726.25,-141.85 723.16,-131.71 719.25,-141.56 726.25,-141.85"/>
</g>
<!-- Node4&#45;&gt;Node8 -->
<g id="edge7" class="edge">
<title>Node4&#45;&gt;Node8</title>
<path fill="none" stroke="midnightblue" d="M374.85,-295.04C348.54,-289.61 318.58,-278.33 302,-255 290.32,-238.57 292.22,-214.69 295.66,-198.1"/>
<polygon fill="midnightblue" stroke="midnightblue" points="299.16,-198.5 298.13,-187.96 292.36,-196.84 299.16,-198.5"/>
</g>
<!-- Node4&#45;&gt;Node9 -->
<g id="edge28" class="edge">
<title>Node4&#45;&gt;Node9</title>
<path fill="none" stroke="midnightblue" d="M374.94,-291.73C347.36,-285.29 313.94,-274.1 289,-255 250.82,-225.76 229.85,-170.55 221.05,-141.68"/>
<polygon fill="midnightblue" stroke="midnightblue" points="224.31,-140.33 218.18,-131.69 217.58,-142.27 224.31,-140.33"/>
</g>
<!-- Node14 -->
<g id="node14" class="node">
<title>Node14</title>
<g id="a_node14"><a xlink:href="exif-tag_8h.html" target="_top" xlink:title="Handling EXIF tags.">
<polygon fill="white" stroke="black" points="605,-168.5 605,-187.5 701,-187.5 701,-168.5 605,-168.5"/>
<text text-anchor="middle" x="653" y="-175.5" font-family="Helvetica,sans-Serif" font-size="10.00">libexif/exif&#45;tag.h</text>
</a>
</g>
</g>
<!-- Node4&#45;&gt;Node14 -->
<g id="edge14" class="edge">
<title>Node4&#45;&gt;Node14</title>
<path fill="none" stroke="midnightblue" d="M477.33,-294.3C511.71,-288.58 556.77,-277.25 591,-255 613.91,-240.11 632.47,-214.01 643.12,-196.62"/>
<polygon fill="midnightblue" stroke="midnightblue" points="646.41,-197.93 648.45,-187.53 640.37,-194.39 646.41,-197.93"/>
</g>
<!-- Node15 -->
<g id="node15" class="node">
<title>Node15</title>
<g id="a_node15"><a xlink:href="exif-content_8h.html" target="_top" xlink:title="Handling EXIF IFDs.">
<polygon fill="white" stroke="black" points="431.5,-230 431.5,-249 548.5,-249 548.5,-230 431.5,-230"/>
<text text-anchor="middle" x="490" y="-237" font-family="Helvetica,sans-Serif" font-size="10.00">libexif/exif&#45;content.h</text>
</a>
</g>
</g>
<!-- Node4&#45;&gt;Node15 -->
<g id="edge17" class="edge">
<title>Node4&#45;&gt;Node15</title>
<path fill="none" stroke="midnightblue" d="M430.27,-291.48C438.3,-282.11 454.33,-266.88 467.91,-255.51"/>
<polygon fill="midnightblue" stroke="midnightblue" points="470.37,-258.02 475.95,-249.01 465.97,-252.57 470.37,-258.02"/>
</g>
<!-- Node17 -->
<g id="node17" class="node">
<title>Node17</title>
<g id="a_node17"><a xlink:href="exif-mnote-data_8h.html" target="_top" xlink:title="Handling EXIF MakerNote tags.">
<polygon fill="white" stroke="black" points="310.5,-224.5 310.5,-254.5 413.5,-254.5 413.5,-224.5 310.5,-224.5"/>
<text text-anchor="start" x="318.5" y="-242.5" font-family="Helvetica,sans-Serif" font-size="10.00">libexif/exif&#45;mnote</text>
<text text-anchor="middle" x="362" y="-231.5" font-family="Helvetica,sans-Serif" font-size="10.00">&#45;data.h</text>
</a>
</g>
</g>
<!-- Node4&#45;&gt;Node17 -->
<g id="edge26" class="edge">
<title>Node4&#45;&gt;Node17</title>
<path fill="none" stroke="midnightblue" d="M416.83,-291.48C408.41,-283.64 395.58,-271.71 384.44,-261.37"/>
<polygon fill="midnightblue" stroke="midnightblue" points="386.79,-258.77 377.08,-254.52 382.02,-263.9 386.79,-258.77"/>
</g>
<!-- Node8&#45;&gt;Node9 -->
<g id="edge8" class="edge">
<title>Node8&#45;&gt;Node9</title>
<path fill="none" stroke="midnightblue" d="M287.34,-168.32C274.08,-159.9 253.73,-146.97 238.15,-137.07"/>
<polygon fill="midnightblue" stroke="midnightblue" points="239.94,-134.06 229.62,-131.65 236.19,-139.97 239.94,-134.06"/>
</g>
<!-- Node13 -->
<g id="node13" class="node">
<title>Node13</title>
<g id="a_node13"><a xlink:title=" ">
<polygon fill="white" stroke="#bfbfbf" points="287,-112.5 287,-131.5 343,-131.5 343,-112.5 287,-112.5"/>
<text text-anchor="middle" x="315" y="-119.5" font-family="Helvetica,sans-Serif" font-size="10.00">stdarg.h</text>
</a>
</g>
</g>
<!-- Node8&#45;&gt;Node13 -->
<g id="edge13" class="edge">
<title>Node8&#45;&gt;Node13</title>
<path fill="none" stroke="midnightblue" d="M303.31,-168.08C305.17,-160.93 307.84,-150.64 310.15,-141.69"/>
<polygon fill="midnightblue" stroke="midnightblue" points="313.61,-142.31 312.73,-131.75 306.83,-140.55 313.61,-142.31"/>
</g>
<!-- Node9&#45;&gt;Node10 -->
<g id="edge9" class="edge">
<title>Node9&#45;&gt;Node10</title>
<path fill="none" stroke="midnightblue" d="M216,-112.08C216,-105.01 216,-94.86 216,-85.99"/>
<polygon fill="midnightblue" stroke="midnightblue" points="219.5,-85.75 216,-75.75 212.5,-85.75 219.5,-85.75"/>
</g>
<!-- Node10&#45;&gt;Node5 -->
<g id="edge10" class="edge">
<title>Node10&#45;&gt;Node5</title>
<path fill="none" stroke="midnightblue" d="M196.35,-56.44C176.04,-47.6 144.1,-33.69 120.9,-23.59"/>
<polygon fill="midnightblue" stroke="midnightblue" points="122.12,-20.3 111.56,-19.52 119.33,-26.72 122.12,-20.3"/>
</g>
<!-- Node11 -->
<g id="node11" class="node">
<title>Node11</title>
<g id="a_node11"><a xlink:href="exif-format_8h.html" target="_top" xlink:title="Handling native EXIF data types.">
<polygon fill="white" stroke="black" points="326.5,-0.5 326.5,-19.5 439.5,-19.5 439.5,-0.5 326.5,-0.5"/>
<text text-anchor="middle" x="383" y="-7.5" font-family="Helvetica,sans-Serif" font-size="10.00">libexif/exif&#45;format.h</text>
</a>
</g>
</g>
<!-- Node10&#45;&gt;Node11 -->
<g id="edge11" class="edge">
<title>Node10&#45;&gt;Node11</title>
<path fill="none" stroke="midnightblue" d="M242.46,-56.44C270.68,-47.32 315.54,-32.81 346.97,-22.65"/>
<polygon fill="midnightblue" stroke="midnightblue" points="348.22,-25.92 356.66,-19.52 346.07,-19.26 348.22,-25.92"/>
</g>
<!-- Node12 -->
<g id="node12" class="node">
<title>Node12</title>
<g id="a_node12"><a xlink:title=" ">
<polygon fill="white" stroke="#bfbfbf" points="176,-0.5 176,-19.5 268,-19.5 268,-0.5 176,-0.5"/>
<text text-anchor="middle" x="222" y="-7.5" font-family="Helvetica,sans-Serif" font-size="10.00">libexif/_stdint.h</text>
</a>
</g>
</g>
<!-- Node10&#45;&gt;Node12 -->
<g id="edge12" class="edge">
<title>Node10&#45;&gt;Node12</title>
<path fill="none" stroke="midnightblue" d="M216.99,-56.08C217.79,-48.93 218.93,-38.64 219.92,-29.69"/>
<polygon fill="midnightblue" stroke="midnightblue" points="223.4,-30.08 221.03,-19.75 216.44,-29.3 223.4,-30.08"/>
</g>
<!-- Node14&#45;&gt;Node6 -->
<g id="edge16" class="edge">
<title>Node14&#45;&gt;Node6</title>
<path fill="none" stroke="midnightblue" d="M641.75,-168.32C631.2,-160.18 615.2,-147.84 602.56,-138.09"/>
<polygon fill="midnightblue" stroke="midnightblue" points="604.51,-135.17 594.45,-131.83 600.23,-140.71 604.51,-135.17"/>
</g>
<!-- Node14&#45;&gt;Node7 -->
<g id="edge15" class="edge">
<title>Node14&#45;&gt;Node7</title>
<path fill="none" stroke="midnightblue" d="M664.25,-168.32C674.8,-160.18 690.8,-147.84 703.44,-138.09"/>
<polygon fill="midnightblue" stroke="midnightblue" points="705.77,-140.71 711.55,-131.83 701.49,-135.17 705.77,-140.71"/>
</g>
<!-- Node15&#45;&gt;Node4 -->
<g id="edge23" class="edge">
<title>Node15&#45;&gt;Node4</title>
<path fill="none" stroke="midnightblue" d="M485.74,-249.01C477.72,-258.37 461.7,-273.59 448.12,-284.97"/>
<polygon fill="midnightblue" stroke="midnightblue" points="445.65,-282.47 440.07,-291.48 450.05,-287.91 445.65,-282.47"/>
</g>
<!-- Node15&#45;&gt;Node8 -->
<g id="edge24" class="edge">
<title>Node15&#45;&gt;Node8</title>
<path fill="none" stroke="midnightblue" d="M462.92,-229.98C430.08,-219.64 374.57,-202.16 337.85,-190.6"/>
<polygon fill="midnightblue" stroke="midnightblue" points="338.62,-187.17 328.03,-187.51 336.52,-193.85 338.62,-187.17"/>
</g>
<!-- Node15&#45;&gt;Node9 -->
<g id="edge25" class="edge">
<title>Node15&#45;&gt;Node9</title>
<path fill="none" stroke="midnightblue" d="M475.78,-229.78C452.04,-215.48 402.53,-186.76 358,-168 325.38,-154.26 287.05,-142.35 258.44,-134.24"/>
<polygon fill="midnightblue" stroke="midnightblue" points="259.33,-130.85 248.76,-131.53 257.44,-137.59 259.33,-130.85"/>
</g>
<!-- Node15&#45;&gt;Node14 -->
<g id="edge18" class="edge">
<title>Node15&#45;&gt;Node14</title>
<path fill="none" stroke="midnightblue" d="M513.35,-229.98C541.31,-219.77 588.33,-202.61 619.99,-191.05"/>
<polygon fill="midnightblue" stroke="midnightblue" points="621.5,-194.23 629.69,-187.51 619.1,-187.65 621.5,-194.23"/>
</g>
<!-- Node16 -->
<g id="node16" class="node">
<title>Node16</title>
<g id="a_node16"><a xlink:href="exif-entry_8h.html" target="_top" xlink:title="Handling EXIF entries.">
<polygon fill="white" stroke="black" points="419,-168.5 419,-187.5 523,-187.5 523,-168.5 419,-168.5"/>
<text text-anchor="middle" x="471" y="-175.5" font-family="Helvetica,sans-Serif" font-size="10.00">libexif/exif&#45;entry.h</text>
</a>
</g>
</g>
<!-- Node15&#45;&gt;Node16 -->
<g id="edge19" class="edge">
<title>Node15&#45;&gt;Node16</title>
<path fill="none" stroke="midnightblue" d="M482.38,-229.98C477.87,-221.58 473.21,-208.48 470.64,-197.66"/>
<polygon fill="midnightblue" stroke="midnightblue" points="474.03,-196.73 468.82,-187.51 467.14,-197.97 474.03,-196.73"/>
</g>
<!-- Node16&#45;&gt;Node9 -->
<g id="edge22" class="edge">
<title>Node16&#45;&gt;Node9</title>
<path fill="none" stroke="midnightblue" d="M430.59,-168.44C386.02,-159 314.23,-143.8 266.11,-133.61"/>
<polygon fill="midnightblue" stroke="midnightblue" points="266.72,-130.16 256.22,-131.52 265.27,-137.01 266.72,-130.16"/>
</g>
<!-- Node16&#45;&gt;Node11 -->
<g id="edge21" class="edge">
<title>Node16&#45;&gt;Node11</title>
<path fill="none" stroke="midnightblue" d="M466.27,-168.08C452.3,-141.72 411.03,-63.88 392.36,-28.66"/>
<polygon fill="midnightblue" stroke="midnightblue" points="395.32,-26.76 387.54,-19.57 389.13,-30.04 395.32,-26.76"/>
</g>
<!-- Node16&#45;&gt;Node15 -->
<g id="edge20" class="edge">
<title>Node16&#45;&gt;Node15</title>
<path fill="none" stroke="midnightblue" d="M478.61,-187.51C483.13,-195.9 487.78,-209 490.35,-219.82"/>
<polygon fill="midnightblue" stroke="midnightblue" points="486.96,-220.75 492.18,-229.98 493.85,-219.51 486.96,-220.75"/>
</g>
<!-- Node17&#45;&gt;Node8 -->
<g id="edge27" class="edge">
<title>Node17&#45;&gt;Node8</title>
<path fill="none" stroke="midnightblue" d="M347.54,-224.4C338.41,-215.49 326.58,-203.95 317.14,-194.74"/>
<polygon fill="midnightblue" stroke="midnightblue" points="319.48,-192.13 309.88,-187.66 314.59,-197.15 319.48,-192.13"/>
</g>
<!-- Node18&#45;&gt;Node2 -->
<g id="edge33" class="edge">
<title>Node18&#45;&gt;Node2</title>
<path fill="none" stroke="midnightblue" d="M56.39,-347.08C51.63,-339.53 44.68,-328.49 38.85,-319.23"/>
<polygon fill="midnightblue" stroke="midnightblue" points="41.8,-317.35 33.51,-310.75 35.88,-321.08 41.8,-317.35"/>
</g>
</g>
</svg>
