<?xml version="1.0" encoding="UTF-8" standalone="no"?>
<!DOCTYPE svg PUBLIC "-//W3C//DTD SVG 1.1//EN"
 "http://www.w3.org/Graphics/SVG/1.1/DTD/svg11.dtd">
<!-- Generated by graphviz version 7.0.1 (0)
 -->
<!-- Title: exif_entry_initialize Pages: 1 -->
<svg width="593pt" height="263pt"
 viewBox="0.00 0.00 593.00 263.00" xmlns="http://www.w3.org/2000/svg" xmlns:xlink="http://www.w3.org/1999/xlink">
<g id="graph0" class="graph" transform="scale(1 1) rotate(0) translate(4 259)">
<title>exif_entry_initialize</title>
<!-- Node1 -->
<g id="Node000001" class="node">
<title>Node1</title>
<g id="a_Node000001"><a xlink:title="Initialize an empty ExifEntry with default data in the correct format for the given tag.">
<polygon fill="#999999" stroke="#666666" points="113,-142 0,-142 0,-123 113,-123 113,-142"/>
<text text-anchor="middle" x="56.5" y="-130" font-family="Helvetica,sans-Serif" font-size="10.00">exif_entry_initialize</text>
</a>
</g>
</g>
<!-- Node2 -->
<g id="Node000002" class="node">
<title>Node2</title>
<g id="a_Node000002"><a xlink:href="exif-entry_8c.html#a01d57aa3b858af0ffbbef108ed332939" target="_top" xlink:title=" ">
<polygon fill="white" stroke="#666666" points="418.5,-255 347.5,-255 347.5,-236 418.5,-236 418.5,-255"/>
<text text-anchor="middle" x="383" y="-243" font-family="Helvetica,sans-Serif" font-size="10.00">clear_entry</text>
</a>
</g>
</g>
<!-- Node1&#45;&gt;Node2 -->
<g id="edge1_Node000001_Node000002" class="edge">
<title>Node1&#45;&gt;Node2</title>
<g id="a_edge1_Node000001_Node000002"><a xlink:title=" ">
<path fill="none" stroke="#63b8ff" d="M65.08,-142.24C79.37,-159.82 112.18,-196.59 149,-213.5 209.33,-241.21 287.02,-246.63 335.67,-246.89"/>
<polygon fill="#63b8ff" stroke="#63b8ff" points="335.59,-250.4 345.58,-246.87 335.57,-243.4 335.59,-250.4"/>
</a>
</g>
</g>
<!-- Node3 -->
<g id="Node000003" class="node">
<title>Node3</title>
<g id="a_Node000003"><a xlink:href="exif-data_8c.html#a2d8d50e6a9c19d28fe8192ef7cc52777" target="_top" xlink:title="Return the byte order in use by this EXIF structure.">
<polygon fill="white" stroke="#666666" points="272,-104.5 162,-104.5 162,-74.5 272,-74.5 272,-104.5"/>
<text text-anchor="start" x="170" y="-92.5" font-family="Helvetica,sans-Serif" font-size="10.00">exif_data_get_byte</text>
<text text-anchor="middle" x="217" y="-81.5" font-family="Helvetica,sans-Serif" font-size="10.00">_order</text>
</a>
</g>
</g>
<!-- Node1&#45;&gt;Node3 -->
<g id="edge2_Node000001_Node000003" class="edge">
<title>Node1&#45;&gt;Node3</title>
<g id="a_edge2_Node000001_Node000003"><a xlink:title=" ">
<path fill="none" stroke="#63b8ff" d="M94.26,-122.53C111.08,-117.96 131.53,-112.42 150.82,-107.18"/>
<polygon fill="#63b8ff" stroke="#63b8ff" points="151.51,-110.62 160.24,-104.63 149.67,-103.87 151.51,-110.62"/>
</a>
</g>
</g>
<!-- Node4 -->
<g id="Node000004" class="node">
<title>Node4</title>
<g id="a_Node000004"><a xlink:href="exif-entry_8c.html#acba1916cfb1741aa17f022d2e5b8bccc" target="_top" xlink:title=" ">
<polygon fill="white" stroke="#666666" points="430.5,-217 335.5,-217 335.5,-198 430.5,-198 430.5,-217"/>
<text text-anchor="middle" x="383" y="-205" font-family="Helvetica,sans-Serif" font-size="10.00">exif_entry_alloc</text>
</a>
</g>
</g>
<!-- Node1&#45;&gt;Node4 -->
<g id="edge3_Node000001_Node000004" class="edge">
<title>Node1&#45;&gt;Node4</title>
<g id="a_edge3_Node000001_Node000004"><a xlink:title=" ">
<path fill="none" stroke="#63b8ff" d="M69.27,-142.48C85.83,-155.88 117.53,-179.17 149,-189.5 206.34,-208.32 275.7,-211.34 323.76,-210.58"/>
<polygon fill="#63b8ff" stroke="#63b8ff" points="323.76,-214.08 333.68,-210.35 323.6,-207.08 323.76,-214.08"/>
</a>
</g>
</g>
<!-- Node7 -->
<g id="Node000007" class="node">
<title>Node7</title>
<g id="a_Node000007"><a xlink:href="exif-entry_8c.html#aee9f2576a834b5f74a420354201a07d0" target="_top" xlink:title=" ">
<polygon fill="white" stroke="#666666" points="285,-180 149,-180 149,-161 285,-161 285,-180"/>
<text text-anchor="middle" x="217" y="-168" font-family="Helvetica,sans-Serif" font-size="10.00">exif_entry_initialize_gps</text>
</a>
</g>
</g>
<!-- Node1&#45;&gt;Node7 -->
<g id="edge6_Node000001_Node000007" class="edge">
<title>Node1&#45;&gt;Node7</title>
<g id="a_edge6_Node000001_Node000007"><a xlink:title=" ">
<path fill="none" stroke="#63b8ff" d="M99.14,-142.48C118.81,-147.2 142.51,-152.88 163.4,-157.89"/>
<polygon fill="#63b8ff" stroke="#63b8ff" points="162.35,-161.24 172.89,-160.16 163.98,-154.43 162.35,-161.24"/>
</a>
</g>
</g>
<!-- Node8 -->
<g id="Node000008" class="node">
<title>Node8</title>
<g id="a_Node000008"><a xlink:href="exif-format_8c.html#a924038efe0cd8ebade8f44619dd794f3" target="_top" xlink:title="Return the raw size of the given EXIF data type.">
<polygon fill="white" stroke="#666666" points="442.5,-142 323.5,-142 323.5,-123 442.5,-123 442.5,-142"/>
<text text-anchor="middle" x="383" y="-130" font-family="Helvetica,sans-Serif" font-size="10.00">exif_format_get_size</text>
</a>
</g>
</g>
<!-- Node1&#45;&gt;Node8 -->
<g id="edge11_Node000001_Node000008" class="edge">
<title>Node1&#45;&gt;Node8</title>
<g id="a_edge11_Node000001_Node000008"><a xlink:title=" ">
<path fill="none" stroke="#63b8ff" d="M113.28,-132.5C168.27,-132.5 252.47,-132.5 311.94,-132.5"/>
<polygon fill="#63b8ff" stroke="#63b8ff" points="311.6,-136 321.6,-132.5 311.6,-129 311.6,-136"/>
</a>
</g>
</g>
<!-- Node10 -->
<g id="Node000010" class="node">
<title>Node10</title>
<g id="a_Node000010"><a xlink:href="exif-utils_8c.html#a400a16b1754150f721e9fca67ad89a52" target="_top" xlink:title="Store an ExifRational value into memory in EXIF format.">
<polygon fill="white" stroke="#666666" points="266,-56 168,-56 168,-37 266,-37 266,-56"/>
<text text-anchor="middle" x="217" y="-44" font-family="Helvetica,sans-Serif" font-size="10.00">exif_set_rational</text>
</a>
</g>
</g>
<!-- Node1&#45;&gt;Node10 -->
<g id="edge12_Node000001_Node000010" class="edge">
<title>Node1&#45;&gt;Node10</title>
<g id="a_edge12_Node000001_Node000010"><a xlink:title=" ">
<path fill="none" stroke="#63b8ff" d="M68.21,-122.64C84.5,-108.15 116.98,-81.13 149,-65.5 152.98,-63.56 157.19,-61.78 161.49,-60.16"/>
<polygon fill="#63b8ff" stroke="#63b8ff" points="162.51,-63.51 170.84,-56.96 160.24,-56.89 162.51,-63.51"/>
</a>
</g>
</g>
<!-- Node13 -->
<g id="Node000013" class="node">
<title>Node13</title>
<g id="a_Node000013"><a xlink:href="exif-utils_8c.html#ad905d16e26b4052a1db34dbebdc37341" target="_top" xlink:title="Store an ExifShort value into memory in EXIF format.">
<polygon fill="white" stroke="#666666" points="260,-19 174,-19 174,0 260,0 260,-19"/>
<text text-anchor="middle" x="217" y="-7" font-family="Helvetica,sans-Serif" font-size="10.00">exif_set_short</text>
</a>
</g>
</g>
<!-- Node1&#45;&gt;Node13 -->
<g id="edge15_Node000001_Node000013" class="edge">
<title>Node1&#45;&gt;Node13</title>
<g id="a_edge15_Node000001_Node000013"><a xlink:title=" ">
<path fill="none" stroke="#63b8ff" d="M63.21,-122.68C75.86,-101.8 108.39,-52.86 149,-27.5 153.31,-24.81 158.02,-22.51 162.88,-20.56"/>
<polygon fill="#63b8ff" stroke="#63b8ff" points="163.95,-23.9 172.24,-17.3 161.65,-17.29 163.95,-23.9"/>
</a>
</g>
</g>
<!-- Node5 -->
<g id="Node000005" class="node">
<title>Node5</title>
<g id="a_Node000005"><a xlink:href="exif-data_8c.html#a9403ed4fde8ef603e9db173eb122efaf" target="_top" xlink:title=" ">
<polygon fill="white" stroke="#666666" points="585,-198 481,-198 481,-179 585,-179 585,-198"/>
<text text-anchor="middle" x="533" y="-186" font-family="Helvetica,sans-Serif" font-size="10.00">exif_data_get_log</text>
</a>
</g>
</g>
<!-- Node4&#45;&gt;Node5 -->
<g id="edge4_Node000004_Node000005" class="edge">
<title>Node4&#45;&gt;Node5</title>
<g id="a_edge4_Node000004_Node000005"><a xlink:title=" ">
<path fill="none" stroke="#63b8ff" d="M430.83,-201.49C443.08,-199.92 456.48,-198.2 469.4,-196.54"/>
<polygon fill="#63b8ff" stroke="#63b8ff" points="469.63,-200.04 479.1,-195.29 468.73,-193.09 469.63,-200.04"/>
</a>
</g>
</g>
<!-- Node6 -->
<g id="Node000006" class="node">
<title>Node6</title>
<g id="a_Node000006"><a xlink:href="exif-mem_8c.html#a68be7c7afc8cff75adc3b1a28b5ae9a2" target="_top" xlink:title=" ">
<polygon fill="white" stroke="#666666" points="580.5,-235 485.5,-235 485.5,-216 580.5,-216 580.5,-235"/>
<text text-anchor="middle" x="533" y="-223" font-family="Helvetica,sans-Serif" font-size="10.00">exif_mem_alloc</text>
</a>
</g>
</g>
<!-- Node4&#45;&gt;Node6 -->
<g id="edge5_Node000004_Node000006" class="edge">
<title>Node4&#45;&gt;Node6</title>
<g id="a_edge5_Node000004_Node000006"><a xlink:title=" ">
<path fill="none" stroke="#63b8ff" d="M430.83,-213.2C444.53,-214.86 459.67,-216.7 473.97,-218.44"/>
<polygon fill="#63b8ff" stroke="#63b8ff" points="473.37,-221.9 483.72,-219.63 474.22,-214.95 473.37,-221.9"/>
</a>
</g>
</g>
<!-- Node7&#45;&gt;Node2 -->
<g id="edge7_Node000007_Node000002" class="edge">
<title>Node7&#45;&gt;Node2</title>
<g id="a_edge7_Node000007_Node000002"><a xlink:title=" ">
<path fill="none" stroke="#63b8ff" d="M233.92,-180.44C253.75,-192.51 288.94,-212.95 321,-226.5 325.91,-228.58 331.13,-230.54 336.37,-232.37"/>
<polygon fill="#63b8ff" stroke="#63b8ff" points="335.03,-235.61 345.62,-235.43 337.23,-228.97 335.03,-235.61"/>
</a>
</g>
</g>
<!-- Node7&#45;&gt;Node4 -->
<g id="edge8_Node000007_Node000004" class="edge">
<title>Node7&#45;&gt;Node4</title>
<g id="a_edge8_Node000007_Node000004"><a xlink:title=" ">
<path fill="none" stroke="#63b8ff" d="M261.95,-180.42C281.89,-184.92 305.7,-190.29 326.83,-195.05"/>
<polygon fill="#63b8ff" stroke="#63b8ff" points="325.93,-198.44 336.45,-197.22 327.47,-191.61 325.93,-198.44"/>
</a>
</g>
</g>
<!-- Node7&#45;&gt;Node8 -->
<g id="edge9_Node000007_Node000008" class="edge">
<title>Node7&#45;&gt;Node8</title>
<g id="a_edge9_Node000007_Node000008"><a xlink:title=" ">
<path fill="none" stroke="#63b8ff" d="M261.09,-160.52C281.54,-155.78 306.18,-150.07 327.88,-145.04"/>
<polygon fill="#63b8ff" stroke="#63b8ff" points="328.49,-148.49 337.44,-142.82 326.91,-141.67 328.49,-148.49"/>
</a>
</g>
</g>
<!-- Node9 -->
<g id="Node000009" class="node">
<title>Node9</title>
<g id="a_Node000009"><a xlink:href="exif-gps-ifd_8c.html#a5355c877082ce0f6f54482ed8a079079" target="_top" xlink:title=" ">
<polygon fill="white" stroke="#666666" points="445,-180 321,-180 321,-161 445,-161 445,-180"/>
<text text-anchor="middle" x="383" y="-168" font-family="Helvetica,sans-Serif" font-size="10.00">exif_get_gps_tag_info</text>
</a>
</g>
</g>
<!-- Node7&#45;&gt;Node9 -->
<g id="edge10_Node000007_Node000009" class="edge">
<title>Node7&#45;&gt;Node9</title>
<g id="a_edge10_Node000007_Node000009"><a xlink:title=" ">
<path fill="none" stroke="#63b8ff" d="M285.18,-170.5C293.17,-170.5 301.37,-170.5 309.43,-170.5"/>
<polygon fill="#63b8ff" stroke="#63b8ff" points="309.21,-174 319.21,-170.5 309.21,-167 309.21,-174"/>
</a>
</g>
</g>
<!-- Node11 -->
<g id="Node000011" class="node">
<title>Node11</title>
<g id="a_Node000011"><a xlink:href="exif-utils_8c.html#ac90147d0cc97bec7a577bf9576191bf8" target="_top" xlink:title="Store an ExifLong value into memory in EXIF format.">
<polygon fill="white" stroke="#666666" points="424,-56 342,-56 342,-37 424,-37 424,-56"/>
<text text-anchor="middle" x="383" y="-44" font-family="Helvetica,sans-Serif" font-size="10.00">exif_set_long</text>
</a>
</g>
</g>
<!-- Node10&#45;&gt;Node11 -->
<g id="edge13_Node000010_Node000011" class="edge">
<title>Node10&#45;&gt;Node11</title>
<g id="a_edge13_Node000010_Node000011"><a xlink:title=" ">
<path fill="none" stroke="#63b8ff" d="M266.32,-46.5C286.47,-46.5 309.92,-46.5 330.41,-46.5"/>
<polygon fill="#63b8ff" stroke="#63b8ff" points="330.25,-50 340.25,-46.5 330.25,-43 330.25,-50"/>
</a>
</g>
</g>
<!-- Node12 -->
<g id="Node000012" class="node">
<title>Node12</title>
<g id="a_Node000012"><a xlink:href="exif-utils_8c.html#ae6e3b9d1663f9ab9bd462d73a310ca03" target="_top" xlink:title="Store an ExifSLong value into memory in EXIF format.">
<polygon fill="white" stroke="#666666" points="576.5,-56 489.5,-56 489.5,-37 576.5,-37 576.5,-56"/>
<text text-anchor="middle" x="533" y="-44" font-family="Helvetica,sans-Serif" font-size="10.00">exif_set_slong</text>
</a>
</g>
</g>
<!-- Node11&#45;&gt;Node12 -->
<g id="edge14_Node000011_Node000012" class="edge">
<title>Node11&#45;&gt;Node12</title>
<g id="a_edge14_Node000011_Node000012"><a xlink:title=" ">
<path fill="none" stroke="#63b8ff" d="M424.44,-46.5C440.87,-46.5 460.1,-46.5 477.72,-46.5"/>
<polygon fill="#63b8ff" stroke="#63b8ff" points="477.5,-50 487.5,-46.5 477.5,-43 477.5,-50"/>
</a>
</g>
</g>
<!-- Node14 -->
<g id="Node000014" class="node">
<title>Node14</title>
<g id="a_Node000014"><a xlink:href="exif-utils_8c.html#a6504651147702fc6db9a5cd4aa997023" target="_top" xlink:title="Store an ExifSShort value into memory in EXIF format.">
<polygon fill="white" stroke="#666666" points="428.5,-19 337.5,-19 337.5,0 428.5,0 428.5,-19"/>
<text text-anchor="middle" x="383" y="-7" font-family="Helvetica,sans-Serif" font-size="10.00">exif_set_sshort</text>
</a>
</g>
</g>
<!-- Node13&#45;&gt;Node14 -->
<g id="edge16_Node000013_Node000014" class="edge">
<title>Node13&#45;&gt;Node14</title>
<g id="a_edge16_Node000013_Node000014"><a xlink:title=" ">
<path fill="none" stroke="#63b8ff" d="M260.23,-9.5C280.19,-9.5 304.28,-9.5 325.75,-9.5"/>
<polygon fill="#63b8ff" stroke="#63b8ff" points="325.52,-13 335.52,-9.5 325.52,-6 325.52,-13"/>
</a>
</g>
</g>
</g>
</svg>
