<?xml version="1.0" encoding="UTF-8" standalone="no"?>
<!DOCTYPE svg PUBLIC "-//W3C//DTD SVG 1.1//EN"
 "http://www.w3.org/Graphics/SVG/1.1/DTD/svg11.dtd">
<!-- Generated by graphviz version 2.44.1 (0)
 -->
<!-- Title: exif_content_new Pages: 1 -->
<svg width="448pt" height="256pt"
 viewBox="0.00 0.00 448.00 256.00" xmlns="http://www.w3.org/2000/svg" xmlns:xlink="http://www.w3.org/1999/xlink">
<g id="graph0" class="graph" transform="scale(1 1) rotate(0) translate(4 252)">
<title>exif_content_new</title>
<polygon fill="white" stroke="transparent" points="-4,4 -4,-252 444,-252 444,4 -4,4"/>
<!-- Node1 -->
<g id="node1" class="node">
<title>Node1</title>
<g id="a_node1"><a xlink:title="Reserve memory for and initialize a new ExifContent.">
<polygon fill="#bfbfbf" stroke="black" points="0,-152.5 0,-171.5 103,-171.5 103,-152.5 0,-152.5"/>
<text text-anchor="middle" x="51.5" y="-159.5" font-family="Helvetica,sans-Serif" font-size="10.00">exif_content_new</text>
</a>
</g>
</g>
<!-- Node2 -->
<g id="node2" class="node">
<title>Node2</title>
<g id="a_node2"><a xlink:href="exif-content_8c.html#a8a359560f5985ec0a74a28871675d902" target="_top" xlink:title="Reserve memory for and initialize new ExifContent using the specified memory allocator.">
<polygon fill="white" stroke="black" points="139,-190.5 139,-209.5 273,-209.5 273,-190.5 139,-190.5"/>
<text text-anchor="middle" x="206" y="-197.5" font-family="Helvetica,sans-Serif" font-size="10.00">exif_content_new_mem</text>
</a>
</g>
</g>
<!-- Node1&#45;&gt;Node2 -->
<g id="edge1" class="edge">
<title>Node1&#45;&gt;Node2</title>
<path fill="none" stroke="midnightblue" d="M90.98,-171.59C111.02,-176.58 135.7,-182.73 156.98,-188.03"/>
<polygon fill="midnightblue" stroke="midnightblue" points="156.24,-191.46 166.79,-190.48 157.94,-184.67 156.24,-191.46"/>
</g>
<!-- Node6 -->
<g id="node6" class="node">
<title>Node6</title>
<g id="a_node6"><a xlink:href="exif-mem_8c.html#acd2926c29b470c9d43f84567a84d5acb" target="_top" xlink:title="Create a new ExifMem with default values for your convenience.">
<polygon fill="white" stroke="black" points="140.5,-76.5 140.5,-95.5 271.5,-95.5 271.5,-76.5 140.5,-76.5"/>
<text text-anchor="middle" x="206" y="-83.5" font-family="Helvetica,sans-Serif" font-size="10.00">exif_mem_new_default</text>
</a>
</g>
</g>
<!-- Node1&#45;&gt;Node6 -->
<g id="edge5" class="edge">
<title>Node1&#45;&gt;Node6</title>
<path fill="none" stroke="midnightblue" d="M71.81,-152.37C98.28,-139.18 146.02,-115.39 176.57,-100.17"/>
<polygon fill="midnightblue" stroke="midnightblue" points="178.45,-103.14 185.84,-95.55 175.33,-96.88 178.45,-103.14"/>
</g>
<!-- Node11 -->
<g id="node11" class="node">
<title>Node11</title>
<g id="a_node11"><a xlink:href="exif-mem_8c.html#a66744e0987af08c443df247ce55f7d87" target="_top" xlink:title="Unrefcount an ExifMem.">
<polygon fill="white" stroke="black" points="157.5,-152.5 157.5,-171.5 254.5,-171.5 254.5,-152.5 157.5,-152.5"/>
<text text-anchor="middle" x="206" y="-159.5" font-family="Helvetica,sans-Serif" font-size="10.00">exif_mem_unref</text>
</a>
</g>
</g>
<!-- Node1&#45;&gt;Node11 -->
<g id="edge10" class="edge">
<title>Node1&#45;&gt;Node11</title>
<path fill="none" stroke="midnightblue" d="M103.28,-162C117.29,-162 132.61,-162 147,-162"/>
<polygon fill="midnightblue" stroke="midnightblue" points="147.28,-165.5 157.28,-162 147.28,-158.5 147.28,-165.5"/>
</g>
<!-- Node3 -->
<g id="node3" class="node">
<title>Node3</title>
<g id="a_node3"><a xlink:href="exif-mem_8c.html#ae8c09cfbcb95e435c4c4b7ec3bbd79e4" target="_top" xlink:title=" ">
<polygon fill="white" stroke="black" points="327,-228.5 327,-247.5 422,-247.5 422,-228.5 327,-228.5"/>
<text text-anchor="middle" x="374.5" y="-235.5" font-family="Helvetica,sans-Serif" font-size="10.00">exif_mem_alloc</text>
</a>
</g>
</g>
<!-- Node2&#45;&gt;Node3 -->
<g id="edge2" class="edge">
<title>Node2&#45;&gt;Node3</title>
<path fill="none" stroke="midnightblue" d="M249.01,-209.59C271.18,-214.65 298.57,-220.9 322.01,-226.25"/>
<polygon fill="midnightblue" stroke="midnightblue" points="321.26,-229.67 331.79,-228.48 322.82,-222.84 321.26,-229.67"/>
</g>
<!-- Node4 -->
<g id="node4" class="node">
<title>Node4</title>
<g id="a_node4"><a xlink:href="exif-mem_8c.html#a43190b81b4b4bdb4ffb89bfb612051b1" target="_top" xlink:title=" ">
<polygon fill="white" stroke="black" points="329,-152.5 329,-171.5 420,-171.5 420,-152.5 329,-152.5"/>
<text text-anchor="middle" x="374.5" y="-159.5" font-family="Helvetica,sans-Serif" font-size="10.00">exif_mem_free</text>
</a>
</g>
</g>
<!-- Node2&#45;&gt;Node4 -->
<g id="edge3" class="edge">
<title>Node2&#45;&gt;Node4</title>
<path fill="none" stroke="midnightblue" d="M249.01,-190.41C271.18,-185.35 298.57,-179.1 322.01,-173.75"/>
<polygon fill="midnightblue" stroke="midnightblue" points="322.82,-177.16 331.79,-171.52 321.26,-170.33 322.82,-177.16"/>
</g>
<!-- Node5 -->
<g id="node5" class="node">
<title>Node5</title>
<g id="a_node5"><a xlink:href="exif-mem_8c.html#af28c61972f529be46907956e0b3e7a60" target="_top" xlink:title="Refcount an ExifMem.">
<polygon fill="white" stroke="black" points="332,-190.5 332,-209.5 417,-209.5 417,-190.5 332,-190.5"/>
<text text-anchor="middle" x="374.5" y="-197.5" font-family="Helvetica,sans-Serif" font-size="10.00">exif_mem_ref</text>
</a>
</g>
</g>
<!-- Node2&#45;&gt;Node5 -->
<g id="edge4" class="edge">
<title>Node2&#45;&gt;Node5</title>
<path fill="none" stroke="midnightblue" d="M273.28,-200C289.35,-200 306.29,-200 321.58,-200"/>
<polygon fill="midnightblue" stroke="midnightblue" points="321.87,-203.5 331.87,-200 321.87,-196.5 321.87,-203.5"/>
</g>
<!-- Node7 -->
<g id="node7" class="node">
<title>Node7</title>
<g id="a_node7"><a xlink:href="exif-mem_8c.html#ae96feb62e763070ed3d70ca66f15feaa" target="_top" xlink:title="Default memory allocation function.">
<polygon fill="white" stroke="black" points="314,-114.5 314,-133.5 435,-133.5 435,-114.5 314,-114.5"/>
<text text-anchor="middle" x="374.5" y="-121.5" font-family="Helvetica,sans-Serif" font-size="10.00">exif_mem_alloc_func</text>
</a>
</g>
</g>
<!-- Node6&#45;&gt;Node7 -->
<g id="edge6" class="edge">
<title>Node6&#45;&gt;Node7</title>
<path fill="none" stroke="midnightblue" d="M249.01,-95.59C271.18,-100.65 298.57,-106.9 322.01,-112.25"/>
<polygon fill="midnightblue" stroke="midnightblue" points="321.26,-115.67 331.79,-114.48 322.82,-108.84 321.26,-115.67"/>
</g>
<!-- Node8 -->
<g id="node8" class="node">
<title>Node8</title>
<g id="a_node8"><a xlink:href="exif-mem_8c.html#a30e654456ffed5baaf5a23f1d8817aa6" target="_top" xlink:title="Default memory free function.">
<polygon fill="white" stroke="black" points="316,-76.5 316,-95.5 433,-95.5 433,-76.5 316,-76.5"/>
<text text-anchor="middle" x="374.5" y="-83.5" font-family="Helvetica,sans-Serif" font-size="10.00">exif_mem_free_func</text>
</a>
</g>
</g>
<!-- Node6&#45;&gt;Node8 -->
<g id="edge7" class="edge">
<title>Node6&#45;&gt;Node8</title>
<path fill="none" stroke="midnightblue" d="M271.85,-86C282.97,-86 294.54,-86 305.73,-86"/>
<polygon fill="midnightblue" stroke="midnightblue" points="305.87,-89.5 315.87,-86 305.87,-82.5 305.87,-89.5"/>
</g>
<!-- Node9 -->
<g id="node9" class="node">
<title>Node9</title>
<g id="a_node9"><a xlink:href="exif-mem_8c.html#a5db78241cb6c1752209e8e28f295ea41" target="_top" xlink:title="Create a new ExifMem.">
<polygon fill="white" stroke="black" points="328.5,-38.5 328.5,-57.5 420.5,-57.5 420.5,-38.5 328.5,-38.5"/>
<text text-anchor="middle" x="374.5" y="-45.5" font-family="Helvetica,sans-Serif" font-size="10.00">exif_mem_new</text>
</a>
</g>
</g>
<!-- Node6&#45;&gt;Node9 -->
<g id="edge8" class="edge">
<title>Node6&#45;&gt;Node9</title>
<path fill="none" stroke="midnightblue" d="M249.01,-76.41C271.18,-71.35 298.57,-65.1 322.01,-59.75"/>
<polygon fill="midnightblue" stroke="midnightblue" points="322.82,-63.16 331.79,-57.52 321.26,-56.33 322.82,-63.16"/>
</g>
<!-- Node10 -->
<g id="node10" class="node">
<title>Node10</title>
<g id="a_node10"><a xlink:href="exif-mem_8c.html#ace345dfcefc8f8a8aa04a7f47ab419c9" target="_top" xlink:title="Default memory reallocation function.">
<polygon fill="white" stroke="black" points="309,-0.5 309,-19.5 440,-19.5 440,-0.5 309,-0.5"/>
<text text-anchor="middle" x="374.5" y="-7.5" font-family="Helvetica,sans-Serif" font-size="10.00">exif_mem_realloc_func</text>
</a>
</g>
</g>
<!-- Node6&#45;&gt;Node10 -->
<g id="edge9" class="edge">
<title>Node6&#45;&gt;Node10</title>
<path fill="none" stroke="midnightblue" d="M221.68,-76.41C241.03,-64.1 276.46,-42.68 309,-29 314.45,-26.71 320.26,-24.58 326.08,-22.64"/>
<polygon fill="midnightblue" stroke="midnightblue" points="327.35,-25.91 335.83,-19.56 325.24,-19.24 327.35,-25.91"/>
</g>
<!-- Node11&#45;&gt;Node4 -->
<g id="edge11" class="edge">
<title>Node11&#45;&gt;Node4</title>
<path fill="none" stroke="midnightblue" d="M254.71,-162C274.69,-162 298.03,-162 318.7,-162"/>
<polygon fill="midnightblue" stroke="midnightblue" points="318.92,-165.5 328.92,-162 318.92,-158.5 318.92,-165.5"/>
</g>
</g>
</svg>
