<?xml version="1.0" encoding="UTF-8" standalone="no"?>
<!DOCTYPE svg PUBLIC "-//W3C//DTD SVG 1.1//EN"
 "http://www.w3.org/Graphics/SVG/1.1/DTD/svg11.dtd">
<!-- Generated by graphviz version 7.0.1 (0)
 -->
<!-- Title: exif_data_load_data_entry Pages: 1 -->
<svg width="760pt" height="249pt"
 viewBox="0.00 0.00 760.00 249.00" xmlns="http://www.w3.org/2000/svg" xmlns:xlink="http://www.w3.org/1999/xlink">
<g id="graph0" class="graph" transform="scale(1 1) rotate(0) translate(4 245)">
<title>exif_data_load_data_entry</title>
<!-- Node1 -->
<g id="Node000001" class="node">
<title>Node1</title>
<g id="a_Node000001"><a xlink:title=" ">
<polygon fill="#999999" stroke="#666666" points="116,-153.5 0,-153.5 0,-123.5 116,-123.5 116,-153.5"/>
<text text-anchor="start" x="8" y="-141.5" font-family="Helvetica,sans-Serif" font-size="10.00">exif_data_load_data</text>
<text text-anchor="middle" x="58" y="-130.5" font-family="Helvetica,sans-Serif" font-size="10.00">_entry</text>
</a>
</g>
</g>
<!-- Node2 -->
<g id="Node000002" class="node">
<title>Node2</title>
<g id="a_Node000002"><a xlink:href="exif-data_8c.html#a4611ba081e31af8bd3ab47dd8de21bef" target="_top" xlink:title=" ">
<polygon fill="white" stroke="#666666" points="257,-241 166,-241 166,-222 257,-222 257,-241"/>
<text text-anchor="middle" x="211.5" y="-229" font-family="Helvetica,sans-Serif" font-size="10.00">exif_data_alloc</text>
</a>
</g>
</g>
<!-- Node1&#45;&gt;Node2 -->
<g id="edge1_Node000001_Node000002" class="edge">
<title>Node1&#45;&gt;Node2</title>
<g id="a_edge1_Node000001_Node000002"><a xlink:title=" ">
<path fill="none" stroke="#63b8ff" d="M74.13,-153.8C91.52,-170.6 121.6,-197.34 152,-213.5 154.68,-214.92 157.49,-216.25 160.36,-217.49"/>
<polygon fill="#63b8ff" stroke="#63b8ff" points="158.96,-220.7 169.55,-221.05 161.49,-214.18 158.96,-220.7"/>
</a>
</g>
</g>
<!-- Node4 -->
<g id="Node000004" class="node">
<title>Node4</title>
<g id="a_Node000004"><a xlink:href="exif-format_8c.html#a924038efe0cd8ebade8f44619dd794f3" target="_top" xlink:title="Return the raw size of the given EXIF data type.">
<polygon fill="white" stroke="#666666" points="271,-204 152,-204 152,-185 271,-185 271,-204"/>
<text text-anchor="middle" x="211.5" y="-192" font-family="Helvetica,sans-Serif" font-size="10.00">exif_format_get_size</text>
</a>
</g>
</g>
<!-- Node1&#45;&gt;Node4 -->
<g id="edge3_Node000001_Node000004" class="edge">
<title>Node1&#45;&gt;Node4</title>
<g id="a_edge3_Node000001_Node000004"><a xlink:title=" ">
<path fill="none" stroke="#63b8ff" d="M94.48,-153.87C111.71,-161.11 132.78,-169.63 152,-176.5 156.39,-178.07 160.99,-179.63 165.61,-181.14"/>
<polygon fill="#63b8ff" stroke="#63b8ff" points="164.27,-184.38 174.86,-184.08 166.39,-177.71 164.27,-184.38"/>
</a>
</g>
</g>
<!-- Node5 -->
<g id="Node000005" class="node">
<title>Node5</title>
<g id="a_Node000005"><a xlink:href="exif-utils_8c.html#a4ad94614630897766dd0a5c9bc2a59bf" target="_top" xlink:title="Retrieve an ExifLong value from memory.">
<polygon fill="white" stroke="#666666" points="253,-167 170,-167 170,-148 253,-148 253,-167"/>
<text text-anchor="middle" x="211.5" y="-155" font-family="Helvetica,sans-Serif" font-size="10.00">exif_get_long</text>
</a>
</g>
</g>
<!-- Node1&#45;&gt;Node5 -->
<g id="edge4_Node000001_Node000005" class="edge">
<title>Node1&#45;&gt;Node5</title>
<g id="a_edge4_Node000001_Node000005"><a xlink:title=" ">
<path fill="none" stroke="#63b8ff" d="M116.28,-145.68C130.15,-147.42 144.91,-149.27 158.53,-150.98"/>
<polygon fill="#63b8ff" stroke="#63b8ff" points="157.8,-154.42 168.16,-152.19 158.67,-147.47 157.8,-154.42"/>
</a>
</g>
</g>
<!-- Node7 -->
<g id="Node000007" class="node">
<title>Node7</title>
<g id="a_Node000007"><a xlink:href="exif-utils_8c.html#a4b4acf537a8c6b9405e7b53be868e4d7" target="_top" xlink:title="Retrieve an ExifShort value from memory.">
<polygon fill="white" stroke="#666666" points="254.5,-130 168.5,-130 168.5,-111 254.5,-111 254.5,-130"/>
<text text-anchor="middle" x="211.5" y="-118" font-family="Helvetica,sans-Serif" font-size="10.00">exif_get_short</text>
</a>
</g>
</g>
<!-- Node1&#45;&gt;Node7 -->
<g id="edge6_Node000001_Node000007" class="edge">
<title>Node1&#45;&gt;Node7</title>
<g id="a_edge6_Node000001_Node000007"><a xlink:title=" ">
<path fill="none" stroke="#63b8ff" d="M116.28,-131.69C129.63,-130.11 143.79,-128.43 156.97,-126.86"/>
<polygon fill="#63b8ff" stroke="#63b8ff" points="157.24,-130.35 166.75,-125.7 156.41,-123.4 157.24,-130.35"/>
</a>
</g>
</g>
<!-- Node9 -->
<g id="Node000009" class="node">
<title>Node9</title>
<g id="a_Node000009"><a xlink:href="exif-log_8c.html#a025d4a5d96544913ea6f6ebbec69cb68" target="_top" xlink:title=" ">
<polygon fill="white" stroke="#666666" points="239.5,-93 183.5,-93 183.5,-74 239.5,-74 239.5,-93"/>
<text text-anchor="middle" x="211.5" y="-81" font-family="Helvetica,sans-Serif" font-size="10.00">exif_log</text>
</a>
</g>
</g>
<!-- Node1&#45;&gt;Node9 -->
<g id="edge8_Node000001_Node000009" class="edge">
<title>Node1&#45;&gt;Node9</title>
<g id="a_edge8_Node000001_Node000009"><a xlink:title=" ">
<path fill="none" stroke="#63b8ff" d="M97.28,-123.13C114,-116.56 133.89,-108.94 152,-102.5 158.6,-100.15 165.66,-97.76 172.52,-95.5"/>
<polygon fill="#63b8ff" stroke="#63b8ff" points="173.15,-98.97 181.57,-92.55 170.98,-92.32 173.15,-98.97"/>
</a>
</g>
</g>
<!-- Node11 -->
<g id="Node000011" class="node">
<title>Node11</title>
<g id="a_Node000011"><a xlink:href="exif-tag_8c.html#aad15f6b821d77857c42c1514ba8bf930" target="_top" xlink:title=" ">
<polygon fill="white" stroke="#666666" points="266.5,-56 156.5,-56 156.5,-37 266.5,-37 266.5,-56"/>
<text text-anchor="middle" x="211.5" y="-44" font-family="Helvetica,sans-Serif" font-size="10.00">exif_tag_get_name</text>
</a>
</g>
</g>
<!-- Node1&#45;&gt;Node11 -->
<g id="edge10_Node000001_Node000011" class="edge">
<title>Node1&#45;&gt;Node11</title>
<g id="a_edge10_Node000001_Node000011"><a xlink:title=" ">
<path fill="none" stroke="#63b8ff" d="M74.89,-123.13C92.48,-106.84 122.29,-81.34 152,-65.5 155.4,-63.69 159.01,-62.01 162.69,-60.46"/>
<polygon fill="#63b8ff" stroke="#63b8ff" points="163.67,-63.83 171.76,-56.99 161.17,-57.29 163.67,-63.83"/>
</a>
</g>
</g>
<!-- Node3 -->
<g id="Node000003" class="node">
<title>Node3</title>
<g id="a_Node000003"><a xlink:href="exif-mem_8c.html#a68be7c7afc8cff75adc3b1a28b5ae9a2" target="_top" xlink:title=" ">
<polygon fill="white" stroke="#666666" points="426,-241 331,-241 331,-222 426,-222 426,-241"/>
<text text-anchor="middle" x="378.5" y="-229" font-family="Helvetica,sans-Serif" font-size="10.00">exif_mem_alloc</text>
</a>
</g>
</g>
<!-- Node2&#45;&gt;Node3 -->
<g id="edge2_Node000002_Node000003" class="edge">
<title>Node2&#45;&gt;Node3</title>
<g id="a_edge2_Node000002_Node000003"><a xlink:title=" ">
<path fill="none" stroke="#63b8ff" d="M257.15,-231.5C276.23,-231.5 298.75,-231.5 319.12,-231.5"/>
<polygon fill="#63b8ff" stroke="#63b8ff" points="318.99,-235 328.99,-231.5 318.99,-228 318.99,-235"/>
</a>
</g>
</g>
<!-- Node6 -->
<g id="Node000006" class="node">
<title>Node6</title>
<g id="a_Node000006"><a xlink:href="exif-utils_8c.html#a56b96f076a13da6ed926e1ef29cb2dc3" target="_top" xlink:title="Retrieve an ExifSLong value from memory.">
<polygon fill="white" stroke="#666666" points="422.5,-167 334.5,-167 334.5,-148 422.5,-148 422.5,-167"/>
<text text-anchor="middle" x="378.5" y="-155" font-family="Helvetica,sans-Serif" font-size="10.00">exif_get_slong</text>
</a>
</g>
</g>
<!-- Node5&#45;&gt;Node6 -->
<g id="edge5_Node000005_Node000006" class="edge">
<title>Node5&#45;&gt;Node6</title>
<g id="a_edge5_Node000005_Node000006"><a xlink:title=" ">
<path fill="none" stroke="#63b8ff" d="M253.29,-157.5C274.17,-157.5 299.9,-157.5 322.51,-157.5"/>
<polygon fill="#63b8ff" stroke="#63b8ff" points="322.49,-161 332.49,-157.5 322.49,-154 322.49,-161"/>
</a>
</g>
</g>
<!-- Node8 -->
<g id="Node000008" class="node">
<title>Node8</title>
<g id="a_Node000008"><a xlink:href="exif-utils_8c.html#a6baf094a71392f9cea23ad633ec13c8b" target="_top" xlink:title="Retrieve an ExifSShort value from memory.">
<polygon fill="white" stroke="#666666" points="424.5,-130 332.5,-130 332.5,-111 424.5,-111 424.5,-130"/>
<text text-anchor="middle" x="378.5" y="-118" font-family="Helvetica,sans-Serif" font-size="10.00">exif_get_sshort</text>
</a>
</g>
</g>
<!-- Node7&#45;&gt;Node8 -->
<g id="edge7_Node000007_Node000008" class="edge">
<title>Node7&#45;&gt;Node8</title>
<g id="a_edge7_Node000007_Node000008"><a xlink:title=" ">
<path fill="none" stroke="#63b8ff" d="M254.99,-120.5C275.06,-120.5 299.31,-120.5 320.91,-120.5"/>
<polygon fill="#63b8ff" stroke="#63b8ff" points="320.75,-124 330.75,-120.5 320.75,-117 320.75,-124"/>
</a>
</g>
</g>
<!-- Node10 -->
<g id="Node000010" class="node">
<title>Node10</title>
<g id="a_Node000010"><a xlink:href="exif-log_8c.html#a99101b5ad01b2d82ce9d43c9e8534627" target="_top" xlink:title=" ">
<polygon fill="white" stroke="#666666" points="409.5,-93 347.5,-93 347.5,-74 409.5,-74 409.5,-93"/>
<text text-anchor="middle" x="378.5" y="-81" font-family="Helvetica,sans-Serif" font-size="10.00">exif_logv</text>
</a>
</g>
</g>
<!-- Node9&#45;&gt;Node10 -->
<g id="edge9_Node000009_Node000010" class="edge">
<title>Node9&#45;&gt;Node10</title>
<g id="a_edge9_Node000009_Node000010"><a xlink:title=" ">
<path fill="none" stroke="#63b8ff" d="M239.75,-83.5C265.85,-83.5 305.6,-83.5 335.71,-83.5"/>
<polygon fill="#63b8ff" stroke="#63b8ff" points="335.62,-87 345.62,-83.5 335.62,-80 335.62,-87"/>
</a>
</g>
</g>
<!-- Node12 -->
<g id="Node000012" class="node">
<title>Node12</title>
<g id="a_Node000012"><a xlink:href="exif-tag_8c.html#a6b4f26f6f8f243e1f8a9e123b9cca589" target="_top" xlink:title="Return a textual name of the given tag when found in the given IFD.">
<polygon fill="white" stroke="#666666" points="450,-56 307,-56 307,-37 450,-37 450,-56"/>
<text text-anchor="middle" x="378.5" y="-44" font-family="Helvetica,sans-Serif" font-size="10.00">exif_tag_get_name_in_ifd</text>
</a>
</g>
</g>
<!-- Node11&#45;&gt;Node12 -->
<g id="edge11_Node000011_Node000012" class="edge">
<title>Node11&#45;&gt;Node12</title>
<g id="a_edge11_Node000011_Node000012"><a xlink:title=" ">
<path fill="none" stroke="#63b8ff" d="M266.98,-46.5C276.09,-46.5 285.72,-46.5 295.34,-46.5"/>
<polygon fill="#63b8ff" stroke="#63b8ff" points="295.08,-50 305.08,-46.5 295.08,-43 295.08,-50"/>
</a>
</g>
</g>
<!-- Node16 -->
<g id="Node000016" class="node">
<title>Node16</title>
<g id="a_Node000016"><a xlink:href="exif-tag_8c.html#a51b998fa5d181e968cdd4cc2666150e2" target="_top" xlink:title=" ">
<polygon fill="white" stroke="#666666" points="431,-19 326,-19 326,0 431,0 431,-19"/>
<text text-anchor="middle" x="378.5" y="-7" font-family="Helvetica,sans-Serif" font-size="10.00">exif_tag_get_stuff</text>
</a>
</g>
</g>
<!-- Node11&#45;&gt;Node16 -->
<g id="edge15_Node000011_Node000016" class="edge">
<title>Node11&#45;&gt;Node16</title>
<g id="a_edge15_Node000011_Node000016"><a xlink:title=" ">
<path fill="none" stroke="#63b8ff" d="M256.72,-36.58C276.78,-32.08 300.73,-26.71 322,-21.95"/>
<polygon fill="#63b8ff" stroke="#63b8ff" points="322.69,-25.38 331.68,-19.77 321.16,-18.55 322.69,-25.38"/>
</a>
</g>
</g>
<!-- Node13 -->
<g id="Node000013" class="node">
<title>Node13</title>
<g id="a_Node000013"><a xlink:href="exif-tag_8c.html#a389f8ff3411e0525b28367892f1e78d3" target="_top" xlink:title="Finds the first entry in the EXIF tag table with the given tag number using a binary search.">
<polygon fill="white" stroke="#666666" points="597,-56 486,-56 486,-37 597,-37 597,-56"/>
<text text-anchor="middle" x="541.5" y="-44" font-family="Helvetica,sans-Serif" font-size="10.00">exif_tag_table_first</text>
</a>
</g>
</g>
<!-- Node12&#45;&gt;Node13 -->
<g id="edge12_Node000012_Node000013" class="edge">
<title>Node12&#45;&gt;Node13</title>
<g id="a_edge12_Node000012_Node000013"><a xlink:title=" ">
<path fill="none" stroke="#63b8ff" d="M450.12,-46.5C458.27,-46.5 466.56,-46.5 474.65,-46.5"/>
<polygon fill="#63b8ff" stroke="#63b8ff" points="474.4,-50 484.4,-46.5 474.4,-43 474.4,-50"/>
</a>
</g>
</g>
<!-- Node14 -->
<g id="Node000014" class="node">
<title>Node14</title>
<g id="a_Node000014"><a xlink:href="exif-tag_8c.html#a87563ee64809f5f0deb4d780098508c1" target="_top" xlink:title="Return the number of entries in the EXIF tag table, including the terminating NULL entry.">
<polygon fill="white" stroke="#666666" points="752,-75 633,-75 633,-56 752,-56 752,-75"/>
<text text-anchor="middle" x="692.5" y="-63" font-family="Helvetica,sans-Serif" font-size="10.00">exif_tag_table_count</text>
</a>
</g>
</g>
<!-- Node13&#45;&gt;Node14 -->
<g id="edge13_Node000013_Node000014" class="edge">
<title>Node13&#45;&gt;Node14</title>
<g id="a_edge13_Node000013_Node000014"><a xlink:title=" ">
<path fill="none" stroke="#63b8ff" d="M597.14,-53.47C604.98,-54.47 613.15,-55.51 621.24,-56.54"/>
<polygon fill="#63b8ff" stroke="#63b8ff" points="620.74,-60.01 631.1,-57.8 621.63,-53.06 620.74,-60.01"/>
</a>
</g>
</g>
<!-- Node15 -->
<g id="Node000015" class="node">
<title>Node15</title>
<g id="a_Node000015"><a xlink:href="exif-tag_8c.html#a220c1b18832f113bc84ff9551754915f" target="_top" xlink:title="Compares the tag with that in entry.">
<polygon fill="white" stroke="#666666" points="726.5,-38 658.5,-38 658.5,-19 726.5,-19 726.5,-38"/>
<text text-anchor="middle" x="692.5" y="-26" font-family="Helvetica,sans-Serif" font-size="10.00">match_tag</text>
</a>
</g>
</g>
<!-- Node13&#45;&gt;Node15 -->
<g id="edge14_Node000013_Node000015" class="edge">
<title>Node13&#45;&gt;Node15</title>
<g id="a_edge14_Node000013_Node000015"><a xlink:title=" ">
<path fill="none" stroke="#63b8ff" d="M597.14,-39.9C613.58,-37.91 631.41,-35.76 647.1,-33.86"/>
<polygon fill="#63b8ff" stroke="#63b8ff" points="647.09,-37.39 656.6,-32.72 646.25,-30.44 647.09,-37.39"/>
</a>
</g>
</g>
</g>
</svg>
