<?xml version="1.0" encoding="UTF-8" standalone="no"?>
<!DOCTYPE svg PUBLIC "-//W3C//DTD SVG 1.1//EN"
 "http://www.w3.org/Graphics/SVG/1.1/DTD/svg11.dtd">
<!-- Generated by graphviz version 2.44.1 (0)
 -->
<!-- Title: libexif/exif&#45;entry.c Pages: 1 -->
<svg width="1183pt" height="487pt"
 viewBox="0.00 0.00 1182.50 487.00" xmlns="http://www.w3.org/2000/svg" xmlns:xlink="http://www.w3.org/1999/xlink">
<g id="graph0" class="graph" transform="scale(1 1) rotate(0) translate(4 483)">
<title>libexif/exif&#45;entry.c</title>
<polygon fill="white" stroke="transparent" points="-4,4 -4,-483 1178.5,-483 1178.5,4 -4,4"/>
<!-- Node1 -->
<g id="node1" class="node">
<title>Node1</title>
<g id="a_node1"><a xlink:title=" ">
<polygon fill="#bfbfbf" stroke="black" points="721,-459.5 721,-478.5 825,-478.5 825,-459.5 721,-459.5"/>
<text text-anchor="middle" x="773" y="-466.5" font-family="Helvetica,sans-Serif" font-size="10.00">libexif/exif&#45;entry.c</text>
</a>
</g>
</g>
<!-- Node2 -->
<g id="node2" class="node">
<title>Node2</title>
<g id="a_node2"><a xlink:title=" ">
<polygon fill="white" stroke="#bfbfbf" points="0,-347.5 0,-366.5 56,-366.5 56,-347.5 0,-347.5"/>
<text text-anchor="middle" x="28" y="-354.5" font-family="Helvetica,sans-Serif" font-size="10.00">config.h</text>
</a>
</g>
</g>
<!-- Node1&#45;&gt;Node2 -->
<g id="edge1" class="edge">
<title>Node1&#45;&gt;Node2</title>
<path fill="none" stroke="midnightblue" d="M720.89,-466.86C553.24,-462.92 37.28,-448.76 13,-423 1.01,-410.28 8.37,-389.96 16.44,-375.43"/>
<polygon fill="midnightblue" stroke="midnightblue" points="19.45,-377.22 21.64,-366.85 13.46,-373.59 19.45,-377.22"/>
</g>
<!-- Node3 -->
<g id="node3" class="node">
<title>Node3</title>
<g id="a_node3"><a xlink:href="exif-entry_8h.html" target="_top" xlink:title="Handling EXIF entries.">
<polygon fill="white" stroke="black" points="428,-403.5 428,-422.5 532,-422.5 532,-403.5 428,-403.5"/>
<text text-anchor="middle" x="480" y="-410.5" font-family="Helvetica,sans-Serif" font-size="10.00">libexif/exif&#45;entry.h</text>
</a>
</g>
</g>
<!-- Node1&#45;&gt;Node3 -->
<g id="edge2" class="edge">
<title>Node1&#45;&gt;Node3</title>
<path fill="none" stroke="midnightblue" d="M726.57,-459.44C674.92,-449.92 591.49,-434.55 536.19,-424.36"/>
<polygon fill="midnightblue" stroke="midnightblue" points="536.68,-420.89 526.21,-422.52 535.41,-427.77 536.68,-420.89"/>
</g>
<!-- Node6 -->
<g id="node6" class="node">
<title>Node6</title>
<g id="a_node6"><a xlink:href="exif-ifd_8h.html" target="_top" xlink:title=" ">
<polygon fill="white" stroke="black" points="624.5,-168.5 624.5,-187.5 717.5,-187.5 717.5,-168.5 624.5,-168.5"/>
<text text-anchor="middle" x="671" y="-175.5" font-family="Helvetica,sans-Serif" font-size="10.00">libexif/exif&#45;ifd.h</text>
</a>
</g>
</g>
<!-- Node1&#45;&gt;Node6 -->
<g id="edge28" class="edge">
<title>Node1&#45;&gt;Node6</title>
<path fill="none" stroke="midnightblue" d="M763.41,-459.34C745.33,-442.02 708,-401.03 708,-358 708,-358 708,-358 708,-300 708,-261.9 691.02,-219.89 680.06,-196.75"/>
<polygon fill="midnightblue" stroke="midnightblue" points="683.09,-194.96 675.54,-187.53 676.8,-198.05 683.09,-194.96"/>
</g>
<!-- Node12 -->
<g id="node12" class="node">
<title>Node12</title>
<g id="a_node12"><a xlink:href="exif-utils_8h.html" target="_top" xlink:title="EXIF data manipulation functions and types.">
<polygon fill="white" stroke="black" points="195.5,-56.5 195.5,-75.5 296.5,-75.5 296.5,-56.5 195.5,-56.5"/>
<text text-anchor="middle" x="246" y="-63.5" font-family="Helvetica,sans-Serif" font-size="10.00">libexif/exif&#45;utils.h</text>
</a>
</g>
</g>
<!-- Node1&#45;&gt;Node12 -->
<g id="edge29" class="edge">
<title>Node1&#45;&gt;Node12</title>
<path fill="none" stroke="midnightblue" d="M720.93,-464.57C567.85,-453.82 130,-417.81 130,-358 130,-358 130,-358 130,-177 130,-129.81 181.16,-96.79 215.53,-79.92"/>
<polygon fill="midnightblue" stroke="midnightblue" points="217.17,-83.02 224.72,-75.6 214.19,-76.69 217.17,-83.02"/>
</g>
<!-- Node17 -->
<g id="node17" class="node">
<title>Node17</title>
<g id="a_node17"><a xlink:href="i18n_8h.html" target="_top" xlink:title=" ">
<polygon fill="white" stroke="black" points="22,-403.5 22,-422.5 102,-422.5 102,-403.5 22,-403.5"/>
<text text-anchor="middle" x="62" y="-410.5" font-family="Helvetica,sans-Serif" font-size="10.00">libexif/i18n.h</text>
</a>
</g>
</g>
<!-- Node1&#45;&gt;Node17 -->
<g id="edge30" class="edge">
<title>Node1&#45;&gt;Node17</title>
<path fill="none" stroke="midnightblue" d="M720.89,-466.15C609.53,-461.81 340.26,-449.31 116,-423 114.73,-422.85 113.44,-422.69 112.13,-422.53"/>
<polygon fill="midnightblue" stroke="midnightblue" points="112.43,-419.03 102.04,-421.12 111.46,-425.97 112.43,-419.03"/>
</g>
<!-- Node18 -->
<g id="node18" class="node">
<title>Node18</title>
<g id="a_node18"><a xlink:href="exif-gps-ifd_8h.html" target="_top" xlink:title="Info about GPS tags.">
<polygon fill="white" stroke="black" points="740,-291.5 740,-310.5 854,-310.5 854,-291.5 740,-291.5"/>
<text text-anchor="middle" x="797" y="-298.5" font-family="Helvetica,sans-Serif" font-size="10.00">libexif/exif&#45;gps&#45;ifd.h</text>
</a>
</g>
</g>
<!-- Node1&#45;&gt;Node18 -->
<g id="edge32" class="edge">
<title>Node1&#45;&gt;Node18</title>
<path fill="none" stroke="midnightblue" d="M771.26,-459.42C769.53,-450.4 766.99,-435.77 766,-423 765.31,-414.14 764.68,-411.79 766,-403 770.47,-373.17 781.99,-339.99 789.66,-320.07"/>
<polygon fill="midnightblue" stroke="midnightblue" points="792.94,-321.3 793.35,-310.71 786.43,-318.73 792.94,-321.3"/>
</g>
<!-- Node20 -->
<g id="node20" class="node">
<title>Node20</title>
<g id="a_node20"><a xlink:title=" ">
<polygon fill="white" stroke="#bfbfbf" points="774.5,-403.5 774.5,-422.5 827.5,-422.5 827.5,-403.5 774.5,-403.5"/>
<text text-anchor="middle" x="801" y="-410.5" font-family="Helvetica,sans-Serif" font-size="10.00">ctype.h</text>
</a>
</g>
</g>
<!-- Node1&#45;&gt;Node20 -->
<g id="edge36" class="edge">
<title>Node1&#45;&gt;Node20</title>
<path fill="none" stroke="midnightblue" d="M777.62,-459.08C781.46,-451.69 787.02,-440.95 791.76,-431.81"/>
<polygon fill="midnightblue" stroke="midnightblue" points="794.97,-433.24 796.46,-422.75 788.75,-430.02 794.97,-433.24"/>
</g>
<!-- Node21 -->
<g id="node21" class="node">
<title>Node21</title>
<g id="a_node21"><a xlink:title=" ">
<polygon fill="white" stroke="#bfbfbf" points="845.5,-403.5 845.5,-422.5 898.5,-422.5 898.5,-403.5 845.5,-403.5"/>
<text text-anchor="middle" x="872" y="-410.5" font-family="Helvetica,sans-Serif" font-size="10.00">stdlib.h</text>
</a>
</g>
</g>
<!-- Node1&#45;&gt;Node21 -->
<g id="edge37" class="edge">
<title>Node1&#45;&gt;Node21</title>
<path fill="none" stroke="midnightblue" d="M788.91,-459.32C804.64,-450.74 828.94,-437.49 847.21,-427.52"/>
<polygon fill="midnightblue" stroke="midnightblue" points="849.03,-430.52 856.13,-422.65 845.68,-424.37 849.03,-430.52"/>
</g>
<!-- Node22 -->
<g id="node22" class="node">
<title>Node22</title>
<g id="a_node22"><a xlink:title=" ">
<polygon fill="white" stroke="#bfbfbf" points="917,-403.5 917,-422.5 967,-422.5 967,-403.5 917,-403.5"/>
<text text-anchor="middle" x="942" y="-410.5" font-family="Helvetica,sans-Serif" font-size="10.00">stdio.h</text>
</a>
</g>
</g>
<!-- Node1&#45;&gt;Node22 -->
<g id="edge38" class="edge">
<title>Node1&#45;&gt;Node22</title>
<path fill="none" stroke="midnightblue" d="M799.78,-459.44C828.84,-450.16 875.34,-435.3 907.21,-425.12"/>
<polygon fill="midnightblue" stroke="midnightblue" points="908.54,-428.37 917,-421.99 906.41,-421.7 908.54,-428.37"/>
</g>
<!-- Node23 -->
<g id="node23" class="node">
<title>Node23</title>
<g id="a_node23"><a xlink:title=" ">
<polygon fill="white" stroke="#bfbfbf" points="985.5,-403.5 985.5,-422.5 1038.5,-422.5 1038.5,-403.5 985.5,-403.5"/>
<text text-anchor="middle" x="1012" y="-410.5" font-family="Helvetica,sans-Serif" font-size="10.00">string.h</text>
</a>
</g>
</g>
<!-- Node1&#45;&gt;Node23 -->
<g id="edge39" class="edge">
<title>Node1&#45;&gt;Node23</title>
<path fill="none" stroke="midnightblue" d="M813.13,-459.44C852.05,-451.06 913.02,-437.74 975.28,-423.12"/>
<polygon fill="midnightblue" stroke="midnightblue" points="976.35,-426.46 985.28,-420.76 974.75,-419.65 976.35,-426.46"/>
</g>
<!-- Node24 -->
<g id="node24" class="node">
<title>Node24</title>
<g id="a_node24"><a xlink:title=" ">
<polygon fill="white" stroke="#bfbfbf" points="1057,-403.5 1057,-422.5 1105,-422.5 1105,-403.5 1057,-403.5"/>
<text text-anchor="middle" x="1081" y="-410.5" font-family="Helvetica,sans-Serif" font-size="10.00">time.h</text>
</a>
</g>
</g>
<!-- Node1&#45;&gt;Node24 -->
<g id="edge40" class="edge">
<title>Node1&#45;&gt;Node24</title>
<path fill="none" stroke="midnightblue" d="M825,-461.14C878.41,-453.72 964.11,-440.8 1047.08,-423.01"/>
<polygon fill="midnightblue" stroke="midnightblue" points="1047.89,-426.42 1056.92,-420.88 1046.41,-419.58 1047.89,-426.42"/>
</g>
<!-- Node25 -->
<g id="node25" class="node">
<title>Node25</title>
<g id="a_node25"><a xlink:title=" ">
<polygon fill="white" stroke="#bfbfbf" points="1123.5,-403.5 1123.5,-422.5 1174.5,-422.5 1174.5,-403.5 1123.5,-403.5"/>
<text text-anchor="middle" x="1149" y="-410.5" font-family="Helvetica,sans-Serif" font-size="10.00">math.h</text>
</a>
</g>
</g>
<!-- Node1&#45;&gt;Node25 -->
<g id="edge41" class="edge">
<title>Node1&#45;&gt;Node25</title>
<path fill="none" stroke="midnightblue" d="M825.02,-463.1C890.13,-456.54 1005.2,-443.51 1113.36,-422.9"/>
<polygon fill="midnightblue" stroke="midnightblue" points="1114.31,-426.28 1123.47,-420.94 1112.98,-419.4 1114.31,-426.28"/>
</g>
<!-- Node4 -->
<g id="node4" class="node">
<title>Node4</title>
<g id="a_node4"><a xlink:href="exif-content_8h.html" target="_top" xlink:title="Handling EXIF IFDs.">
<polygon fill="white" stroke="black" points="421.5,-347.5 421.5,-366.5 538.5,-366.5 538.5,-347.5 421.5,-347.5"/>
<text text-anchor="middle" x="480" y="-354.5" font-family="Helvetica,sans-Serif" font-size="10.00">libexif/exif&#45;content.h</text>
</a>
</g>
</g>
<!-- Node3&#45;&gt;Node4 -->
<g id="edge3" class="edge">
<title>Node3&#45;&gt;Node4</title>
<path fill="none" stroke="midnightblue" d="M474.83,-403.08C473.32,-395.93 472.89,-385.64 473.54,-376.69"/>
<polygon fill="midnightblue" stroke="midnightblue" points="477.02,-377.13 474.87,-366.75 470.08,-376.2 477.02,-377.13"/>
</g>
<!-- Node11 -->
<g id="node11" class="node">
<title>Node11</title>
<g id="a_node11"><a xlink:href="exif-mem_8h.html" target="_top" xlink:title="Define the ExifMem data type and the associated functions.">
<polygon fill="white" stroke="black" points="179,-112.5 179,-131.5 285,-131.5 285,-112.5 179,-112.5"/>
<text text-anchor="middle" x="232" y="-119.5" font-family="Helvetica,sans-Serif" font-size="10.00">libexif/exif&#45;mem.h</text>
</a>
</g>
</g>
<!-- Node3&#45;&gt;Node11 -->
<g id="edge27" class="edge">
<title>Node3&#45;&gt;Node11</title>
<path fill="none" stroke="midnightblue" d="M427.78,-404.6C338.96,-390.55 168,-356.42 168,-302 168,-302 168,-302 168,-238.5 168,-198.83 197.24,-160.02 216.19,-139.03"/>
<polygon fill="midnightblue" stroke="midnightblue" points="218.82,-141.35 223.1,-131.66 213.71,-136.56 218.82,-141.35"/>
</g>
<!-- Node13 -->
<g id="node13" class="node">
<title>Node13</title>
<g id="a_node13"><a xlink:href="exif-format_8h.html" target="_top" xlink:title="Handling native EXIF data types.">
<polygon fill="white" stroke="black" points="689.5,-0.5 689.5,-19.5 802.5,-19.5 802.5,-0.5 689.5,-0.5"/>
<text text-anchor="middle" x="746" y="-7.5" font-family="Helvetica,sans-Serif" font-size="10.00">libexif/exif&#45;format.h</text>
</a>
</g>
</g>
<!-- Node3&#45;&gt;Node13 -->
<g id="edge26" class="edge">
<title>Node3&#45;&gt;Node13</title>
<path fill="none" stroke="midnightblue" d="M505.99,-403.45C572.92,-379.63 746,-305.77 746,-179 746,-179 746,-179 746,-121 746,-88.95 746,-51.64 746,-29.75"/>
<polygon fill="midnightblue" stroke="midnightblue" points="749.5,-29.56 746,-19.56 742.5,-29.56 749.5,-29.56"/>
</g>
<!-- Node4&#45;&gt;Node3 -->
<g id="edge7" class="edge">
<title>Node4&#45;&gt;Node3</title>
<path fill="none" stroke="midnightblue" d="M485.13,-366.75C486.66,-373.86 487.1,-384.14 486.47,-393.1"/>
<polygon fill="midnightblue" stroke="midnightblue" points="482.99,-392.71 485.17,-403.08 489.93,-393.62 482.99,-392.71"/>
</g>
<!-- Node5 -->
<g id="node5" class="node">
<title>Node5</title>
<g id="a_node5"><a xlink:href="exif-tag_8h.html" target="_top" xlink:title="Handling EXIF tags.">
<polygon fill="white" stroke="black" points="584,-230 584,-249 680,-249 680,-230 584,-230"/>
<text text-anchor="middle" x="632" y="-237" font-family="Helvetica,sans-Serif" font-size="10.00">libexif/exif&#45;tag.h</text>
</a>
</g>
</g>
<!-- Node4&#45;&gt;Node5 -->
<g id="edge4" class="edge">
<title>Node4&#45;&gt;Node5</title>
<path fill="none" stroke="midnightblue" d="M491.53,-347.41C503.63,-338.38 523.19,-323.74 540,-311 565.33,-291.79 594.44,-269.44 613.01,-255.15"/>
<polygon fill="midnightblue" stroke="midnightblue" points="615.2,-257.88 620.98,-249 610.92,-252.33 615.2,-257.88"/>
</g>
<!-- Node8 -->
<g id="node8" class="node">
<title>Node8</title>
<g id="a_node8"><a xlink:href="exif-data_8h.html" target="_top" xlink:title="Defines the ExifData type and the associated functions.">
<polygon fill="white" stroke="black" points="429,-291.5 429,-310.5 531,-310.5 531,-291.5 429,-291.5"/>
<text text-anchor="middle" x="480" y="-298.5" font-family="Helvetica,sans-Serif" font-size="10.00">libexif/exif&#45;data.h</text>
</a>
</g>
</g>
<!-- Node4&#45;&gt;Node8 -->
<g id="edge8" class="edge">
<title>Node4&#45;&gt;Node8</title>
<path fill="none" stroke="midnightblue" d="M474.83,-347.08C473.32,-339.93 472.89,-329.64 473.54,-320.69"/>
<polygon fill="midnightblue" stroke="midnightblue" points="477.02,-321.13 474.87,-310.75 470.08,-320.2 477.02,-321.13"/>
</g>
<!-- Node10 -->
<g id="node10" class="node">
<title>Node10</title>
<g id="a_node10"><a xlink:href="exif-log_8h.html" target="_top" xlink:title="Log message infrastructure.">
<polygon fill="white" stroke="black" points="272.5,-168.5 272.5,-187.5 367.5,-187.5 367.5,-168.5 272.5,-168.5"/>
<text text-anchor="middle" x="320" y="-175.5" font-family="Helvetica,sans-Serif" font-size="10.00">libexif/exif&#45;log.h</text>
</a>
</g>
</g>
<!-- Node4&#45;&gt;Node10 -->
<g id="edge24" class="edge">
<title>Node4&#45;&gt;Node10</title>
<path fill="none" stroke="midnightblue" d="M451.07,-347.41C413.07,-334.38 347.91,-305.63 320,-255 310.27,-237.35 312.15,-213.7 315.25,-197.5"/>
<polygon fill="midnightblue" stroke="midnightblue" points="318.69,-198.16 317.46,-187.64 311.86,-196.63 318.69,-198.16"/>
</g>
<!-- Node4&#45;&gt;Node11 -->
<g id="edge25" class="edge">
<title>Node4&#45;&gt;Node11</title>
<path fill="none" stroke="midnightblue" d="M440.66,-347.47C412.72,-340.34 374.98,-328.49 345,-311 312.93,-292.29 305.73,-284.36 283,-255 262.43,-228.43 259.88,-219.43 248,-188 242.28,-172.87 238.05,-154.97 235.38,-141.79"/>
<polygon fill="midnightblue" stroke="midnightblue" points="238.75,-140.78 233.44,-131.61 231.87,-142.09 238.75,-140.78"/>
</g>
<!-- Node5&#45;&gt;Node6 -->
<g id="edge5" class="edge">
<title>Node5&#45;&gt;Node6</title>
<path fill="none" stroke="midnightblue" d="M637.59,-229.98C643.38,-221.14 652.59,-207.09 659.87,-195.98"/>
<polygon fill="midnightblue" stroke="midnightblue" points="662.87,-197.79 665.42,-187.51 657.01,-193.95 662.87,-197.79"/>
</g>
<!-- Node7 -->
<g id="node7" class="node">
<title>Node7</title>
<g id="a_node7"><a xlink:href="exif-data-type_8h.html" target="_top" xlink:title=" ">
<polygon fill="white" stroke="black" points="478,-168.5 478,-187.5 606,-187.5 606,-168.5 478,-168.5"/>
<text text-anchor="middle" x="542" y="-175.5" font-family="Helvetica,sans-Serif" font-size="10.00">libexif/exif&#45;data&#45;type.h</text>
</a>
</g>
</g>
<!-- Node5&#45;&gt;Node7 -->
<g id="edge6" class="edge">
<title>Node5&#45;&gt;Node7</title>
<path fill="none" stroke="midnightblue" d="M619.11,-229.98C604.54,-220.34 580.6,-204.52 563.25,-193.05"/>
<polygon fill="midnightblue" stroke="midnightblue" points="565.14,-190.1 554.87,-187.51 561.28,-195.94 565.14,-190.1"/>
</g>
<!-- Node8&#45;&gt;Node4 -->
<g id="edge20" class="edge">
<title>Node8&#45;&gt;Node4</title>
<path fill="none" stroke="midnightblue" d="M485.13,-310.75C486.66,-317.86 487.1,-328.14 486.47,-337.1"/>
<polygon fill="midnightblue" stroke="midnightblue" points="482.99,-336.71 485.17,-347.08 489.93,-337.62 482.99,-336.71"/>
</g>
<!-- Node8&#45;&gt;Node5 -->
<g id="edge19" class="edge">
<title>Node8&#45;&gt;Node5</title>
<path fill="none" stroke="midnightblue" d="M501.78,-291.48C527.74,-281.31 571.31,-264.26 600.83,-252.7"/>
<polygon fill="midnightblue" stroke="midnightblue" points="602.23,-255.91 610.26,-249.01 599.67,-249.4 602.23,-255.91"/>
</g>
<!-- Node8&#45;&gt;Node6 -->
<g id="edge11" class="edge">
<title>Node8&#45;&gt;Node6</title>
<path fill="none" stroke="midnightblue" d="M489.15,-291.44C505.48,-276.46 541.1,-245.09 575,-224 595.59,-211.19 620.41,-199.65 639.66,-191.46"/>
<polygon fill="midnightblue" stroke="midnightblue" points="641.01,-194.69 648.89,-187.61 638.31,-188.23 641.01,-194.69"/>
</g>
<!-- Node8&#45;&gt;Node7 -->
<g id="edge10" class="edge">
<title>Node8&#45;&gt;Node7</title>
<path fill="none" stroke="midnightblue" d="M484.46,-291.3C494.56,-271.59 519.35,-223.21 532.86,-196.84"/>
<polygon fill="midnightblue" stroke="midnightblue" points="536.14,-198.12 537.58,-187.62 529.91,-194.93 536.14,-198.12"/>
</g>
<!-- Node9 -->
<g id="node9" class="node">
<title>Node9</title>
<g id="a_node9"><a xlink:href="exif-byte-order_8h.html" target="_top" xlink:title="Defines the ExifByteOrder enum and the associated functions.">
<polygon fill="white" stroke="black" points="335.5,-0.5 335.5,-19.5 466.5,-19.5 466.5,-0.5 335.5,-0.5"/>
<text text-anchor="middle" x="401" y="-7.5" font-family="Helvetica,sans-Serif" font-size="10.00">libexif/exif&#45;byte&#45;order.h</text>
</a>
</g>
</g>
<!-- Node8&#45;&gt;Node9 -->
<g id="edge9" class="edge">
<title>Node8&#45;&gt;Node9</title>
<path fill="none" stroke="midnightblue" d="M477.86,-291.09C474.43,-276.87 467.43,-248.19 461,-224 441.86,-151.99 417.29,-66.84 406.49,-29.79"/>
<polygon fill="midnightblue" stroke="midnightblue" points="409.77,-28.52 403.61,-19.9 403.05,-30.48 409.77,-28.52"/>
</g>
<!-- Node8&#45;&gt;Node10 -->
<g id="edge12" class="edge">
<title>Node8&#45;&gt;Node10</title>
<path fill="none" stroke="midnightblue" d="M428.92,-295.65C399.13,-290.49 363.01,-279.28 340,-255 325.51,-239.71 321.22,-215.23 320.1,-198.19"/>
<polygon fill="midnightblue" stroke="midnightblue" points="323.59,-197.67 319.75,-187.8 316.59,-197.91 323.59,-197.67"/>
</g>
<!-- Node8&#45;&gt;Node11 -->
<g id="edge23" class="edge">
<title>Node8&#45;&gt;Node11</title>
<path fill="none" stroke="midnightblue" d="M428.9,-293.5C395.81,-287.47 352.92,-276.1 320,-255 276.84,-227.33 249.92,-170.11 238.44,-140.94"/>
<polygon fill="midnightblue" stroke="midnightblue" points="241.71,-139.7 234.91,-131.57 235.16,-142.16 241.71,-139.7"/>
</g>
<!-- Node16 -->
<g id="node16" class="node">
<title>Node16</title>
<g id="a_node16"><a xlink:href="exif-mnote-data_8h.html" target="_top" xlink:title="Handling EXIF MakerNote tags.">
<polygon fill="white" stroke="black" points="348.5,-224.5 348.5,-254.5 451.5,-254.5 451.5,-224.5 348.5,-224.5"/>
<text text-anchor="start" x="356.5" y="-242.5" font-family="Helvetica,sans-Serif" font-size="10.00">libexif/exif&#45;mnote</text>
<text text-anchor="middle" x="400" y="-231.5" font-family="Helvetica,sans-Serif" font-size="10.00">&#45;data.h</text>
</a>
</g>
</g>
<!-- Node8&#45;&gt;Node16 -->
<g id="edge21" class="edge">
<title>Node8&#45;&gt;Node16</title>
<path fill="none" stroke="midnightblue" d="M468.54,-291.48C457.8,-283.49 441.35,-271.25 427.25,-260.77"/>
<polygon fill="midnightblue" stroke="midnightblue" points="428.97,-257.68 418.85,-254.52 424.79,-263.3 428.97,-257.68"/>
</g>
<!-- Node10&#45;&gt;Node11 -->
<g id="edge13" class="edge">
<title>Node10&#45;&gt;Node11</title>
<path fill="none" stroke="midnightblue" d="M305.86,-168.32C292.13,-159.9 271.06,-146.97 254.94,-137.07"/>
<polygon fill="midnightblue" stroke="midnightblue" points="256.46,-133.9 246.1,-131.65 252.8,-139.87 256.46,-133.9"/>
</g>
<!-- Node15 -->
<g id="node15" class="node">
<title>Node15</title>
<g id="a_node15"><a xlink:title=" ">
<polygon fill="white" stroke="#bfbfbf" points="303,-112.5 303,-131.5 359,-131.5 359,-112.5 303,-112.5"/>
<text text-anchor="middle" x="331" y="-119.5" font-family="Helvetica,sans-Serif" font-size="10.00">stdarg.h</text>
</a>
</g>
</g>
<!-- Node10&#45;&gt;Node15 -->
<g id="edge18" class="edge">
<title>Node10&#45;&gt;Node15</title>
<path fill="none" stroke="midnightblue" d="M321.82,-168.08C323.27,-160.93 325.37,-150.64 327.19,-141.69"/>
<polygon fill="midnightblue" stroke="midnightblue" points="330.65,-142.25 329.22,-131.75 323.79,-140.85 330.65,-142.25"/>
</g>
<!-- Node11&#45;&gt;Node12 -->
<g id="edge14" class="edge">
<title>Node11&#45;&gt;Node12</title>
<path fill="none" stroke="midnightblue" d="M234.31,-112.08C236.17,-104.93 238.84,-94.64 241.15,-85.69"/>
<polygon fill="midnightblue" stroke="midnightblue" points="244.61,-86.31 243.73,-75.75 237.83,-84.55 244.61,-86.31"/>
</g>
<!-- Node12&#45;&gt;Node9 -->
<g id="edge15" class="edge">
<title>Node12&#45;&gt;Node9</title>
<path fill="none" stroke="midnightblue" d="M270.56,-56.44C296.52,-47.4 337.67,-33.06 366.8,-22.92"/>
<polygon fill="midnightblue" stroke="midnightblue" points="368.26,-26.11 376.55,-19.52 365.96,-19.5 368.26,-26.11"/>
</g>
<!-- Node12&#45;&gt;Node13 -->
<g id="edge16" class="edge">
<title>Node12&#45;&gt;Node13</title>
<path fill="none" stroke="midnightblue" d="M296.69,-59.53C387.54,-49.71 578.04,-29.14 679.34,-18.2"/>
<polygon fill="midnightblue" stroke="midnightblue" points="679.89,-21.66 689.46,-17.11 679.14,-14.7 679.89,-21.66"/>
</g>
<!-- Node14 -->
<g id="node14" class="node">
<title>Node14</title>
<g id="a_node14"><a xlink:title=" ">
<polygon fill="white" stroke="#bfbfbf" points="200,-0.5 200,-19.5 292,-19.5 292,-0.5 200,-0.5"/>
<text text-anchor="middle" x="246" y="-7.5" font-family="Helvetica,sans-Serif" font-size="10.00">libexif/_stdint.h</text>
</a>
</g>
</g>
<!-- Node12&#45;&gt;Node14 -->
<g id="edge17" class="edge">
<title>Node12&#45;&gt;Node14</title>
<path fill="none" stroke="midnightblue" d="M246,-56.08C246,-49.01 246,-38.86 246,-29.99"/>
<polygon fill="midnightblue" stroke="midnightblue" points="249.5,-29.75 246,-19.75 242.5,-29.75 249.5,-29.75"/>
</g>
<!-- Node16&#45;&gt;Node10 -->
<g id="edge22" class="edge">
<title>Node16&#45;&gt;Node10</title>
<path fill="none" stroke="midnightblue" d="M381.04,-224.4C368.58,-215.13 352.3,-203.03 339.69,-193.65"/>
<polygon fill="midnightblue" stroke="midnightblue" points="341.75,-190.82 331.64,-187.66 337.58,-196.43 341.75,-190.82"/>
</g>
<!-- Node17&#45;&gt;Node2 -->
<g id="edge31" class="edge">
<title>Node17&#45;&gt;Node2</title>
<path fill="none" stroke="midnightblue" d="M56.39,-403.08C51.63,-395.53 44.68,-384.49 38.85,-375.23"/>
<polygon fill="midnightblue" stroke="midnightblue" points="41.8,-373.35 33.51,-366.75 35.88,-377.08 41.8,-373.35"/>
</g>
<!-- Node18&#45;&gt;Node5 -->
<g id="edge35" class="edge">
<title>Node18&#45;&gt;Node5</title>
<path fill="none" stroke="midnightblue" d="M773.36,-291.48C745.06,-281.27 697.47,-264.11 665.41,-252.55"/>
<polygon fill="midnightblue" stroke="midnightblue" points="666.19,-249.11 655.6,-249.01 663.82,-255.69 666.19,-249.11"/>
</g>
<!-- Node18&#45;&gt;Node13 -->
<g id="edge34" class="edge">
<title>Node18&#45;&gt;Node13</title>
<path fill="none" stroke="midnightblue" d="M807.06,-291.37C816.2,-282.98 829.39,-269.42 837,-255 853.26,-224.21 856,-213.82 856,-179 856,-179 856,-179 856,-121 856,-74.91 807.12,-41.39 774.53,-24.16"/>
<polygon fill="midnightblue" stroke="midnightblue" points="775.91,-20.94 765.41,-19.54 772.75,-27.18 775.91,-20.94"/>
</g>
<!-- Node19 -->
<g id="node19" class="node">
<title>Node19</title>
<g id="a_node19"><a xlink:title=" ">
<polygon fill="white" stroke="#bfbfbf" points="774.5,-230 774.5,-249 827.5,-249 827.5,-230 774.5,-230"/>
<text text-anchor="middle" x="801" y="-237" font-family="Helvetica,sans-Serif" font-size="10.00">stdint.h</text>
</a>
</g>
</g>
<!-- Node18&#45;&gt;Node19 -->
<g id="edge33" class="edge">
<title>Node18&#45;&gt;Node19</title>
<path fill="none" stroke="midnightblue" d="M797.57,-291.48C798.14,-283.08 799.02,-269.98 799.75,-259.16"/>
<polygon fill="midnightblue" stroke="midnightblue" points="803.25,-259.22 800.43,-249.01 796.26,-258.75 803.25,-259.22"/>
</g>
</g>
</svg>
