<?xml version="1.0" encoding="UTF-8" standalone="no"?>
<!DOCTYPE svg PUBLIC "-//W3C//DTD SVG 1.1//EN"
 "http://www.w3.org/Graphics/SVG/1.1/DTD/svg11.dtd">
<!-- Generated by graphviz version 2.44.1 (0)
 -->
<!-- Title: exif_data_set_byte_order Pages: 1 -->
<svg width="1024pt" height="474pt"
 viewBox="0.00 0.00 1024.00 474.00" xmlns="http://www.w3.org/2000/svg" xmlns:xlink="http://www.w3.org/1999/xlink">
<g id="graph0" class="graph" transform="scale(1 1) rotate(0) translate(4 470)">
<title>exif_data_set_byte_order</title>
<polygon fill="white" stroke="transparent" points="-4,4 -4,-470 1020,-470 1020,4 -4,4"/>
<!-- Node1 -->
<g id="node1" class="node">
<title>Node1</title>
<g id="a_node1"><a xlink:title="Set the byte order to use for this EXIF data.">
<polygon fill="#bfbfbf" stroke="black" points="0,-153 0,-183 110,-183 110,-153 0,-153"/>
<text text-anchor="start" x="8" y="-171" font-family="Helvetica,sans-Serif" font-size="10.00">exif_data_set_byte</text>
<text text-anchor="middle" x="55" y="-160" font-family="Helvetica,sans-Serif" font-size="10.00">_order</text>
</a>
</g>
</g>
<!-- Node2 -->
<g id="node2" class="node">
<title>Node2</title>
<g id="a_node2"><a xlink:href="exif-data_8c.html#a581ba94d90b37a4bbda154101162dd90" target="_top" xlink:title=" ">
<polygon fill="white" stroke="black" points="153.5,-196.5 153.5,-215.5 284.5,-215.5 284.5,-196.5 153.5,-196.5"/>
<text text-anchor="middle" x="219" y="-203.5" font-family="Helvetica,sans-Serif" font-size="10.00">content_set_byte_order</text>
</a>
</g>
</g>
<!-- Node1&#45;&gt;Node2 -->
<g id="edge1" class="edge">
<title>Node1&#45;&gt;Node2</title>
<path fill="none" stroke="midnightblue" d="M110.39,-180.76C128.85,-185.09 149.39,-189.91 167.52,-194.16"/>
<polygon fill="midnightblue" stroke="midnightblue" points="166.79,-197.58 177.33,-196.46 168.39,-190.77 166.79,-197.58"/>
</g>
<!-- Node19 -->
<g id="node19" class="node">
<title>Node19</title>
<g id="a_node19"><a xlink:href="exif-data_8c.html#ad3b39ab4a3117ca9fd7d9a1126b5d879" target="_top" xlink:title="Execute a function on each IFD in turn.">
<polygon fill="white" stroke="black" points="146,-158.5 146,-177.5 292,-177.5 292,-158.5 146,-158.5"/>
<text text-anchor="middle" x="219" y="-165.5" font-family="Helvetica,sans-Serif" font-size="10.00">exif_data_foreach_content</text>
</a>
</g>
</g>
<!-- Node1&#45;&gt;Node19 -->
<g id="edge26" class="edge">
<title>Node1&#45;&gt;Node19</title>
<path fill="none" stroke="midnightblue" d="M110.39,-168C118.59,-168 127.19,-168 135.81,-168"/>
<polygon fill="midnightblue" stroke="midnightblue" points="135.91,-171.5 145.91,-168 135.91,-164.5 135.91,-171.5"/>
</g>
<!-- Node20 -->
<g id="node20" class="node">
<title>Node20</title>
<g id="a_node20"><a xlink:href="exif-mnote-data-priv_8h.html#a1b67aad2ff49340ac3f0f15b3a726ce3" target="_top" xlink:title=" ">
<polygon fill="white" stroke="black" points="159.5,-109 159.5,-139 278.5,-139 278.5,-109 159.5,-109"/>
<text text-anchor="start" x="167.5" y="-127" font-family="Helvetica,sans-Serif" font-size="10.00">exif_mnote_data_set</text>
<text text-anchor="middle" x="219" y="-116" font-family="Helvetica,sans-Serif" font-size="10.00">_byte_order</text>
</a>
</g>
</g>
<!-- Node1&#45;&gt;Node20 -->
<g id="edge27" class="edge">
<title>Node1&#45;&gt;Node20</title>
<path fill="none" stroke="midnightblue" d="M110.39,-153.23C124.06,-149.51 138.87,-145.49 152.99,-141.66"/>
<polygon fill="midnightblue" stroke="midnightblue" points="153.91,-145.03 162.64,-139.03 152.08,-138.28 153.91,-145.03"/>
</g>
<!-- Node3 -->
<g id="node3" class="node">
<title>Node3</title>
<g id="a_node3"><a xlink:href="exif-data_8c.html#a94ca6e374374d20636e7f72a3605345c" target="_top" xlink:title=" ">
<polygon fill="white" stroke="black" points="328,-218.5 328,-237.5 448,-237.5 448,-218.5 328,-218.5"/>
<text text-anchor="middle" x="388" y="-225.5" font-family="Helvetica,sans-Serif" font-size="10.00">entry_set_byte_order</text>
</a>
</g>
</g>
<!-- Node2&#45;&gt;Node3 -->
<g id="edge2" class="edge">
<title>Node2&#45;&gt;Node3</title>
<path fill="none" stroke="midnightblue" d="M284.57,-214.51C295.46,-215.94 306.8,-217.44 317.81,-218.89"/>
<polygon fill="midnightblue" stroke="midnightblue" points="317.42,-222.36 327.8,-220.2 318.34,-215.42 317.42,-222.36"/>
</g>
<!-- Node18 -->
<g id="node18" class="node">
<title>Node18</title>
<g id="a_node18"><a xlink:href="exif-content_8c.html#af7372b1342146e73a9d5b671c717a730" target="_top" xlink:title="Executes function on each EXIF tag in this IFD in turn.">
<polygon fill="white" stroke="black" points="328.5,-169 328.5,-199 447.5,-199 447.5,-169 328.5,-169"/>
<text text-anchor="start" x="336.5" y="-187" font-family="Helvetica,sans-Serif" font-size="10.00">exif_content_foreach</text>
<text text-anchor="middle" x="388" y="-176" font-family="Helvetica,sans-Serif" font-size="10.00">_entry</text>
</a>
</g>
</g>
<!-- Node2&#45;&gt;Node18 -->
<g id="edge25" class="edge">
<title>Node2&#45;&gt;Node18</title>
<path fill="none" stroke="midnightblue" d="M284.57,-197.49C295.6,-196.04 307.1,-194.53 318.23,-193.06"/>
<polygon fill="midnightblue" stroke="midnightblue" points="318.88,-196.5 328.34,-191.73 317.97,-189.56 318.88,-196.5"/>
</g>
<!-- Node4 -->
<g id="node4" class="node">
<title>Node4</title>
<g id="a_node4"><a xlink:href="exif-utils_8c.html#a54ef3b86ffeb643e9c4434b85ccf2992" target="_top" xlink:title=" ">
<polygon fill="white" stroke="black" points="484,-213 484,-243 597,-243 597,-213 484,-213"/>
<text text-anchor="start" x="492" y="-231" font-family="Helvetica,sans-Serif" font-size="10.00">exif_array_set_byte</text>
<text text-anchor="middle" x="540.5" y="-220" font-family="Helvetica,sans-Serif" font-size="10.00">_order</text>
</a>
</g>
</g>
<!-- Node3&#45;&gt;Node4 -->
<g id="edge3" class="edge">
<title>Node3&#45;&gt;Node4</title>
<path fill="none" stroke="midnightblue" d="M448.05,-228C456.36,-228 464.95,-228 473.39,-228"/>
<polygon fill="midnightblue" stroke="midnightblue" points="473.57,-231.5 483.57,-228 473.57,-224.5 473.57,-231.5"/>
</g>
<!-- Node5 -->
<g id="node5" class="node">
<title>Node5</title>
<g id="a_node5"><a xlink:href="exif-format_8c.html#a924038efe0cd8ebade8f44619dd794f3" target="_top" xlink:title="Return the raw size of the given EXIF data type.">
<polygon fill="white" stroke="black" points="633,-446.5 633,-465.5 752,-465.5 752,-446.5 633,-446.5"/>
<text text-anchor="middle" x="692.5" y="-453.5" font-family="Helvetica,sans-Serif" font-size="10.00">exif_format_get_size</text>
</a>
</g>
</g>
<!-- Node4&#45;&gt;Node5 -->
<g id="edge4" class="edge">
<title>Node4&#45;&gt;Node5</title>
<path fill="none" stroke="midnightblue" d="M544.25,-243.01C551.79,-280.08 576.11,-376.92 633,-432 637.04,-435.91 641.81,-439.22 646.85,-442.01"/>
<polygon fill="midnightblue" stroke="midnightblue" points="645.6,-445.29 656.12,-446.49 648.64,-438.99 645.6,-445.29"/>
</g>
<!-- Node6 -->
<g id="node6" class="node">
<title>Node6</title>
<g id="a_node6"><a xlink:href="exif-utils_8c.html#a4ad94614630897766dd0a5c9bc2a59bf" target="_top" xlink:title="Retrieve an ExifLong value from memory.">
<polygon fill="white" stroke="black" points="798.5,-370.5 798.5,-389.5 881.5,-389.5 881.5,-370.5 798.5,-370.5"/>
<text text-anchor="middle" x="840" y="-377.5" font-family="Helvetica,sans-Serif" font-size="10.00">exif_get_long</text>
</a>
</g>
</g>
<!-- Node4&#45;&gt;Node6 -->
<g id="edge5" class="edge">
<title>Node4&#45;&gt;Node6</title>
<path fill="none" stroke="midnightblue" d="M544.26,-243.21C551.53,-278.21 574.8,-364.13 633,-399 687.76,-431.81 765.79,-409.9 808.38,-393.44"/>
<polygon fill="midnightblue" stroke="midnightblue" points="809.93,-396.59 817.9,-389.61 807.32,-390.09 809.93,-396.59"/>
</g>
<!-- Node7 -->
<g id="node7" class="node">
<title>Node7</title>
<g id="a_node7"><a xlink:href="exif-utils_8c.html#a56b96f076a13da6ed926e1ef29cb2dc3" target="_top" xlink:title="Retrieve an ExifSLong value from memory.">
<polygon fill="white" stroke="black" points="928,-332.5 928,-351.5 1016,-351.5 1016,-332.5 928,-332.5"/>
<text text-anchor="middle" x="972" y="-339.5" font-family="Helvetica,sans-Serif" font-size="10.00">exif_get_slong</text>
</a>
</g>
</g>
<!-- Node4&#45;&gt;Node7 -->
<g id="edge11" class="edge">
<title>Node4&#45;&gt;Node7</title>
<path fill="none" stroke="midnightblue" d="M550.76,-243.23C565.19,-265.38 595.33,-305.72 633,-323 725.86,-365.6 848.45,-359.11 917.58,-350.55"/>
<polygon fill="midnightblue" stroke="midnightblue" points="918.33,-353.99 927.8,-349.22 917.43,-347.04 918.33,-353.99"/>
</g>
<!-- Node8 -->
<g id="node8" class="node">
<title>Node8</title>
<g id="a_node8"><a xlink:href="exif-utils_8c.html#a1feb547c289aa57a4d2119338b03706c" target="_top" xlink:title="Retrieve an ExifRational value from memory.">
<polygon fill="white" stroke="black" points="643,-370.5 643,-389.5 742,-389.5 742,-370.5 643,-370.5"/>
<text text-anchor="middle" x="692.5" y="-377.5" font-family="Helvetica,sans-Serif" font-size="10.00">exif_get_rational</text>
</a>
</g>
</g>
<!-- Node4&#45;&gt;Node8 -->
<g id="edge7" class="edge">
<title>Node4&#45;&gt;Node8</title>
<path fill="none" stroke="midnightblue" d="M548.7,-243.13C561.94,-269.46 592.53,-323.95 633,-356 638.03,-359.98 643.8,-363.39 649.73,-366.29"/>
<polygon fill="midnightblue" stroke="midnightblue" points="648.51,-369.58 659.07,-370.43 651.35,-363.18 648.51,-369.58"/>
</g>
<!-- Node9 -->
<g id="node9" class="node">
<title>Node9</title>
<g id="a_node9"><a xlink:href="exif-utils_8c.html#a4b4acf537a8c6b9405e7b53be868e4d7" target="_top" xlink:title="Retrieve an ExifShort value from memory.">
<polygon fill="white" stroke="black" points="649.5,-294.5 649.5,-313.5 735.5,-313.5 735.5,-294.5 649.5,-294.5"/>
<text text-anchor="middle" x="692.5" y="-301.5" font-family="Helvetica,sans-Serif" font-size="10.00">exif_get_short</text>
</a>
</g>
</g>
<!-- Node4&#45;&gt;Node9 -->
<g id="edge9" class="edge">
<title>Node4&#45;&gt;Node9</title>
<path fill="none" stroke="midnightblue" d="M566.28,-243.23C584.43,-254.09 609.84,-268.72 633,-280 640.58,-283.69 648.87,-287.32 656.77,-290.61"/>
<polygon fill="midnightblue" stroke="midnightblue" points="655.56,-293.89 666.14,-294.41 658.19,-287.41 655.56,-293.89"/>
</g>
<!-- Node10 -->
<g id="node10" class="node">
<title>Node10</title>
<g id="a_node10"><a xlink:href="exif-utils_8c.html#a6baf094a71392f9cea23ad633ec13c8b" target="_top" xlink:title="Retrieve an ExifSShort value from memory.">
<polygon fill="white" stroke="black" points="794,-284.5 794,-303.5 886,-303.5 886,-284.5 794,-284.5"/>
<text text-anchor="middle" x="840" y="-291.5" font-family="Helvetica,sans-Serif" font-size="10.00">exif_get_sshort</text>
</a>
</g>
</g>
<!-- Node4&#45;&gt;Node10 -->
<g id="edge14" class="edge">
<title>Node4&#45;&gt;Node10</title>
<path fill="none" stroke="midnightblue" d="M597.11,-240.34C651.14,-252.32 732.62,-270.4 785.81,-282.2"/>
<polygon fill="midnightblue" stroke="midnightblue" points="785.21,-285.65 795.73,-284.4 786.73,-278.82 785.21,-285.65"/>
</g>
<!-- Node11 -->
<g id="node11" class="node">
<title>Node11</title>
<g id="a_node11"><a xlink:href="exif-utils_8c.html#adb97c3499488d5642a82df1cb16dc2cb" target="_top" xlink:title="Retrieve an ExifSRational value from memory.">
<polygon fill="white" stroke="black" points="788,-227.5 788,-246.5 892,-246.5 892,-227.5 788,-227.5"/>
<text text-anchor="middle" x="840" y="-234.5" font-family="Helvetica,sans-Serif" font-size="10.00">exif_get_srational</text>
</a>
</g>
</g>
<!-- Node4&#45;&gt;Node11 -->
<g id="edge12" class="edge">
<title>Node4&#45;&gt;Node11</title>
<path fill="none" stroke="midnightblue" d="M597.11,-229.68C648.35,-231.23 724.27,-233.53 777.34,-235.13"/>
<polygon fill="midnightblue" stroke="midnightblue" points="777.54,-238.64 787.64,-235.45 777.75,-231.65 777.54,-238.64"/>
</g>
<!-- Node12 -->
<g id="node12" class="node">
<title>Node12</title>
<g id="a_node12"><a xlink:href="exif-utils_8c.html#ac90147d0cc97bec7a577bf9576191bf8" target="_top" xlink:title="Store an ExifLong value into memory in EXIF format.">
<polygon fill="white" stroke="black" points="799,-142.5 799,-161.5 881,-161.5 881,-142.5 799,-142.5"/>
<text text-anchor="middle" x="840" y="-149.5" font-family="Helvetica,sans-Serif" font-size="10.00">exif_set_long</text>
</a>
</g>
</g>
<!-- Node4&#45;&gt;Node12 -->
<g id="edge15" class="edge">
<title>Node4&#45;&gt;Node12</title>
<path fill="none" stroke="midnightblue" d="M597.11,-213.79C653.2,-199.47 738.85,-177.58 791.75,-164.07"/>
<polygon fill="midnightblue" stroke="midnightblue" points="792.73,-167.43 801.56,-161.57 791,-160.65 792.73,-167.43"/>
</g>
<!-- Node13 -->
<g id="node13" class="node">
<title>Node13</title>
<g id="a_node13"><a xlink:href="exif-utils_8c.html#ae6e3b9d1663f9ab9bd462d73a310ca03" target="_top" xlink:title="Store an ExifSLong value into memory in EXIF format.">
<polygon fill="white" stroke="black" points="928.5,-104.5 928.5,-123.5 1015.5,-123.5 1015.5,-104.5 928.5,-104.5"/>
<text text-anchor="middle" x="972" y="-111.5" font-family="Helvetica,sans-Serif" font-size="10.00">exif_set_slong</text>
</a>
</g>
</g>
<!-- Node4&#45;&gt;Node13 -->
<g id="edge21" class="edge">
<title>Node4&#45;&gt;Node13</title>
<path fill="none" stroke="midnightblue" d="M550.76,-212.77C565.19,-190.62 595.33,-150.28 633,-133 726.11,-90.28 849.12,-96.93 918.15,-105.52"/>
<polygon fill="midnightblue" stroke="midnightblue" points="917.97,-109.02 928.34,-106.85 918.88,-102.08 917.97,-109.02"/>
</g>
<!-- Node14 -->
<g id="node14" class="node">
<title>Node14</title>
<g id="a_node14"><a xlink:href="exif-utils_8c.html#a400a16b1754150f721e9fca67ad89a52" target="_top" xlink:title="Store an ExifRational value into memory in EXIF format.">
<polygon fill="white" stroke="black" points="643.5,-142.5 643.5,-161.5 741.5,-161.5 741.5,-142.5 643.5,-142.5"/>
<text text-anchor="middle" x="692.5" y="-149.5" font-family="Helvetica,sans-Serif" font-size="10.00">exif_set_rational</text>
</a>
</g>
</g>
<!-- Node4&#45;&gt;Node14 -->
<g id="edge17" class="edge">
<title>Node4&#45;&gt;Node14</title>
<path fill="none" stroke="midnightblue" d="M566.28,-212.77C584.43,-201.91 609.84,-187.28 633,-176 640.58,-172.31 648.87,-168.68 656.77,-165.39"/>
<polygon fill="midnightblue" stroke="midnightblue" points="658.19,-168.59 666.14,-161.59 655.56,-162.11 658.19,-168.59"/>
</g>
<!-- Node15 -->
<g id="node15" class="node">
<title>Node15</title>
<g id="a_node15"><a xlink:href="exif-utils_8c.html#ad905d16e26b4052a1db34dbebdc37341" target="_top" xlink:title="Store an ExifShort value into memory in EXIF format.">
<polygon fill="white" stroke="black" points="649.5,-66.5 649.5,-85.5 735.5,-85.5 735.5,-66.5 649.5,-66.5"/>
<text text-anchor="middle" x="692.5" y="-73.5" font-family="Helvetica,sans-Serif" font-size="10.00">exif_set_short</text>
</a>
</g>
</g>
<!-- Node4&#45;&gt;Node15 -->
<g id="edge19" class="edge">
<title>Node4&#45;&gt;Node15</title>
<path fill="none" stroke="midnightblue" d="M548.7,-212.87C561.94,-186.54 592.53,-132.05 633,-100 638.03,-96.02 643.8,-92.61 649.73,-89.71"/>
<polygon fill="midnightblue" stroke="midnightblue" points="651.35,-92.82 659.07,-85.57 648.51,-86.42 651.35,-92.82"/>
</g>
<!-- Node16 -->
<g id="node16" class="node">
<title>Node16</title>
<g id="a_node16"><a xlink:href="exif-utils_8c.html#a6504651147702fc6db9a5cd4aa997023" target="_top" xlink:title="Store an ExifSShort value into memory in EXIF format.">
<polygon fill="white" stroke="black" points="794.5,-57.5 794.5,-76.5 885.5,-76.5 885.5,-57.5 794.5,-57.5"/>
<text text-anchor="middle" x="840" y="-64.5" font-family="Helvetica,sans-Serif" font-size="10.00">exif_set_sshort</text>
</a>
</g>
</g>
<!-- Node4&#45;&gt;Node16 -->
<g id="edge24" class="edge">
<title>Node4&#45;&gt;Node16</title>
<path fill="none" stroke="midnightblue" d="M544.26,-212.79C551.53,-177.79 574.8,-91.87 633,-57 686,-25.25 761.15,-40.84 804.5,-54.39"/>
<polygon fill="midnightblue" stroke="midnightblue" points="803.44,-57.72 814.03,-57.49 805.61,-51.06 803.44,-57.72"/>
</g>
<!-- Node17 -->
<g id="node17" class="node">
<title>Node17</title>
<g id="a_node17"><a xlink:href="exif-utils_8c.html#aca1790a72b1833dff1b0bf728052c3c5" target="_top" xlink:title="Store an ExifSRational value into memory in EXIF format.">
<polygon fill="white" stroke="black" points="788,-0.5 788,-19.5 892,-19.5 892,-0.5 788,-0.5"/>
<text text-anchor="middle" x="840" y="-7.5" font-family="Helvetica,sans-Serif" font-size="10.00">exif_set_srational</text>
</a>
</g>
</g>
<!-- Node4&#45;&gt;Node17 -->
<g id="edge22" class="edge">
<title>Node4&#45;&gt;Node17</title>
<path fill="none" stroke="midnightblue" d="M543.66,-212.73C549.83,-175.2 571.31,-78.33 633,-34 674.64,-4.08 733.7,-0.02 777.91,-2.31"/>
<polygon fill="midnightblue" stroke="midnightblue" points="777.76,-5.81 787.96,-2.95 778.2,1.18 777.76,-5.81"/>
</g>
<!-- Node6&#45;&gt;Node7 -->
<g id="edge6" class="edge">
<title>Node6&#45;&gt;Node7</title>
<path fill="none" stroke="midnightblue" d="M873.8,-370.41C890.28,-365.6 910.44,-359.7 928.13,-354.53"/>
<polygon fill="midnightblue" stroke="midnightblue" points="929.59,-357.75 938.21,-351.59 927.63,-351.03 929.59,-357.75"/>
</g>
<!-- Node8&#45;&gt;Node6 -->
<g id="edge8" class="edge">
<title>Node8&#45;&gt;Node6</title>
<path fill="none" stroke="midnightblue" d="M742.35,-380C757.11,-380 773.34,-380 788.22,-380"/>
<polygon fill="midnightblue" stroke="midnightblue" points="788.27,-383.5 798.27,-380 788.27,-376.5 788.27,-383.5"/>
</g>
<!-- Node9&#45;&gt;Node10 -->
<g id="edge10" class="edge">
<title>Node9&#45;&gt;Node10</title>
<path fill="none" stroke="midnightblue" d="M735.58,-301.11C750.59,-300.08 767.73,-298.9 783.69,-297.8"/>
<polygon fill="midnightblue" stroke="midnightblue" points="784.23,-301.27 793.96,-297.1 783.75,-294.29 784.23,-301.27"/>
</g>
<!-- Node11&#45;&gt;Node7 -->
<g id="edge13" class="edge">
<title>Node11&#45;&gt;Node7</title>
<path fill="none" stroke="midnightblue" d="M854.6,-246.77C864.97,-254.32 879.56,-265.1 892,-275 913.09,-291.78 936.57,-311.87 952.4,-325.65"/>
<polygon fill="midnightblue" stroke="midnightblue" points="950.1,-328.29 959.93,-332.23 954.71,-323.02 950.1,-328.29"/>
</g>
<!-- Node12&#45;&gt;Node13 -->
<g id="edge16" class="edge">
<title>Node12&#45;&gt;Node13</title>
<path fill="none" stroke="midnightblue" d="M873.8,-142.41C890.28,-137.6 910.44,-131.7 928.13,-126.53"/>
<polygon fill="midnightblue" stroke="midnightblue" points="929.59,-129.75 938.21,-123.59 927.63,-123.03 929.59,-129.75"/>
</g>
<!-- Node14&#45;&gt;Node12 -->
<g id="edge18" class="edge">
<title>Node14&#45;&gt;Node12</title>
<path fill="none" stroke="midnightblue" d="M741.55,-152C756.61,-152 773.28,-152 788.51,-152"/>
<polygon fill="midnightblue" stroke="midnightblue" points="788.78,-155.5 798.78,-152 788.78,-148.5 788.78,-155.5"/>
</g>
<!-- Node15&#45;&gt;Node16 -->
<g id="edge20" class="edge">
<title>Node15&#45;&gt;Node16</title>
<path fill="none" stroke="midnightblue" d="M735.58,-73.4C750.73,-72.46 768.05,-71.39 784.12,-70.39"/>
<polygon fill="midnightblue" stroke="midnightblue" points="784.71,-73.86 794.47,-69.75 784.28,-66.88 784.71,-73.86"/>
</g>
<!-- Node17&#45;&gt;Node13 -->
<g id="edge23" class="edge">
<title>Node17&#45;&gt;Node13</title>
<path fill="none" stroke="midnightblue" d="M854.58,-19.8C864.94,-27.36 879.52,-38.15 892,-48 912.83,-64.44 936.08,-84.02 951.93,-97.56"/>
<polygon fill="midnightblue" stroke="midnightblue" points="950.04,-100.55 959.91,-104.4 954.6,-95.24 950.04,-100.55"/>
</g>
</g>
</svg>
