<?xml version="1.0" encoding="UTF-8" standalone="no"?>
<!DOCTYPE svg PUBLIC "-//W3C//DTD SVG 1.1//EN"
 "http://www.w3.org/Graphics/SVG/1.1/DTD/svg11.dtd">
<!-- Generated by graphviz version 7.0.1 (0)
 -->
<!-- Title: libexif/exif&#45;loader.c Pages: 1 -->
<svg width="778pt" height="423pt"
 viewBox="0.00 0.00 777.50 423.00" xmlns="http://www.w3.org/2000/svg" xmlns:xlink="http://www.w3.org/1999/xlink">
<g id="graph0" class="graph" transform="scale(1 1) rotate(0) translate(4 419)">
<title>libexif/exif&#45;loader.c</title>
<!-- Node1 -->
<g id="Node000001" class="node">
<title>Node1</title>
<g id="a_Node000001"><a xlink:title=" ">
<polygon fill="#999999" stroke="#666666" points="324,-415 214,-415 214,-396 324,-396 324,-415"/>
<text text-anchor="middle" x="269" y="-403" font-family="Helvetica,sans-Serif" font-size="10.00">libexif/exif&#45;loader.c</text>
</a>
</g>
</g>
<!-- Node2 -->
<g id="Node000002" class="node">
<title>Node2</title>
<g id="a_Node000002"><a xlink:title=" ">
<polygon fill="#e0e0e0" stroke="#999999" points="56,-305 0,-305 0,-286 56,-286 56,-305"/>
<text text-anchor="middle" x="28" y="-293" font-family="Helvetica,sans-Serif" font-size="10.00">config.h</text>
</a>
</g>
</g>
<!-- Node1&#45;&gt;Node2 -->
<g id="edge1_Node000001_Node000002" class="edge">
<title>Node1&#45;&gt;Node2</title>
<g id="a_edge1_Node000001_Node000002"><a xlink:title=" ">
<path fill="none" stroke="#63b8ff" d="M213.64,-402.92C146.2,-399.69 38.12,-389.86 13,-360 2.53,-347.55 8.53,-329.09 15.81,-315.27"/>
<polygon fill="#63b8ff" stroke="#63b8ff" points="18.8,-317.09 20.87,-306.7 12.77,-313.53 18.8,-317.09"/>
</a>
</g>
</g>
<!-- Node3 -->
<g id="Node000003" class="node">
<title>Node3</title>
<g id="a_Node000003"><a xlink:href="exif-loader_8h.html" target="_top" xlink:title="Defines the ExifLoader type.">
<polygon fill="white" stroke="#666666" points="269.5,-360 158.5,-360 158.5,-341 269.5,-341 269.5,-360"/>
<text text-anchor="middle" x="214" y="-348" font-family="Helvetica,sans-Serif" font-size="10.00">libexif/exif&#45;loader.h</text>
</a>
</g>
</g>
<!-- Node1&#45;&gt;Node3 -->
<g id="edge2_Node000001_Node000003" class="edge">
<title>Node1&#45;&gt;Node3</title>
<g id="a_edge2_Node000001_Node000003"><a xlink:title=" ">
<path fill="none" stroke="#63b8ff" d="M259.92,-395.75C252.16,-388.27 240.79,-377.32 231.3,-368.17"/>
<polygon fill="#63b8ff" stroke="#63b8ff" points="234,-365.91 224.37,-361.49 229.14,-370.95 234,-365.91"/>
</a>
</g>
</g>
<!-- Node10 -->
<g id="Node000010" class="node">
<title>Node10</title>
<g id="a_Node000010"><a xlink:href="exif-utils_8h.html" target="_top" xlink:title="EXIF data manipulation functions and types.">
<polygon fill="white" stroke="#666666" points="266.5,-74 165.5,-74 165.5,-55 266.5,-55 266.5,-74"/>
<text text-anchor="middle" x="216" y="-62" font-family="Helvetica,sans-Serif" font-size="10.00">libexif/exif&#45;utils.h</text>
</a>
</g>
</g>
<!-- Node1&#45;&gt;Node10 -->
<g id="edge31_Node000001_Node000010" class="edge">
<title>Node1&#45;&gt;Node10</title>
<g id="a_edge31_Node000001_Node000010"><a xlink:title=" ">
<path fill="none" stroke="#63b8ff" d="M216.05,-395.54C193.02,-389.16 167.38,-378.32 150,-360 129.64,-338.53 130,-326.09 130,-296.5 130,-296.5 130,-296.5 130,-173.5 130,-143.33 135.63,-133.93 154,-110 163.27,-97.93 176.7,-87.74 188.69,-80.16"/>
<polygon fill="#63b8ff" stroke="#63b8ff" points="190.2,-83.33 197,-75.21 186.62,-77.32 190.2,-83.33"/>
</a>
</g>
</g>
<!-- Node18 -->
<g id="Node000018" class="node">
<title>Node18</title>
<g id="a_Node000018"><a xlink:href="i18n_8h.html" target="_top" xlink:title=" ">
<polygon fill="white" stroke="#666666" points="102,-360 22,-360 22,-341 102,-341 102,-360"/>
<text text-anchor="middle" x="62" y="-348" font-family="Helvetica,sans-Serif" font-size="10.00">libexif/i18n.h</text>
</a>
</g>
</g>
<!-- Node1&#45;&gt;Node18 -->
<g id="edge32_Node000001_Node000018" class="edge">
<title>Node1&#45;&gt;Node18</title>
<g id="a_edge32_Node000001_Node000018"><a xlink:title=" ">
<path fill="none" stroke="#63b8ff" d="M233.89,-395.51C199.14,-386.61 145.77,-372.95 107.73,-363.21"/>
<polygon fill="#63b8ff" stroke="#63b8ff" points="108.96,-359.91 98.41,-360.82 107.23,-366.69 108.96,-359.91"/>
</a>
</g>
</g>
<!-- Node19 -->
<g id="Node000019" class="node">
<title>Node19</title>
<g id="a_Node000019"><a xlink:title=" ">
<polygon fill="#e0e0e0" stroke="#999999" points="360,-360 288,-360 288,-341 360,-341 360,-360"/>
<text text-anchor="middle" x="324" y="-348" font-family="Helvetica,sans-Serif" font-size="10.00">sys/types.h</text>
</a>
</g>
</g>
<!-- Node1&#45;&gt;Node19 -->
<g id="edge34_Node000001_Node000019" class="edge">
<title>Node1&#45;&gt;Node19</title>
<g id="a_edge34_Node000001_Node000019"><a xlink:title=" ">
<path fill="none" stroke="#63b8ff" d="M278.08,-395.75C285.84,-388.27 297.21,-377.32 306.7,-368.17"/>
<polygon fill="#63b8ff" stroke="#63b8ff" points="308.86,-370.95 313.63,-361.49 304,-365.91 308.86,-370.95"/>
</a>
</g>
</g>
<!-- Node20 -->
<g id="Node000020" class="node">
<title>Node20</title>
<g id="a_Node000020"><a xlink:title=" ">
<polygon fill="#e0e0e0" stroke="#999999" points="431.5,-360 378.5,-360 378.5,-341 431.5,-341 431.5,-360"/>
<text text-anchor="middle" x="405" y="-348" font-family="Helvetica,sans-Serif" font-size="10.00">stdlib.h</text>
</a>
</g>
</g>
<!-- Node1&#45;&gt;Node20 -->
<g id="edge35_Node000001_Node000020" class="edge">
<title>Node1&#45;&gt;Node20</title>
<g id="a_edge35_Node000001_Node000020"><a xlink:title=" ">
<path fill="none" stroke="#63b8ff" d="M292.07,-395.51C313.89,-387.01 346.88,-374.15 371.58,-364.53"/>
<polygon fill="#63b8ff" stroke="#63b8ff" points="372.81,-367.8 380.86,-360.91 370.27,-361.28 372.81,-367.8"/>
</a>
</g>
</g>
<!-- Node21 -->
<g id="Node000021" class="node">
<title>Node21</title>
<g id="a_Node000021"><a xlink:title=" ">
<polygon fill="#e0e0e0" stroke="#999999" points="502.5,-360 449.5,-360 449.5,-341 502.5,-341 502.5,-360"/>
<text text-anchor="middle" x="476" y="-348" font-family="Helvetica,sans-Serif" font-size="10.00">string.h</text>
</a>
</g>
</g>
<!-- Node1&#45;&gt;Node21 -->
<g id="edge36_Node000001_Node000021" class="edge">
<title>Node1&#45;&gt;Node21</title>
<g id="a_edge36_Node000001_Node000021"><a xlink:title=" ">
<path fill="none" stroke="#63b8ff" d="M304.11,-395.51C341.49,-385.94 400.4,-370.86 438.62,-361.07"/>
<polygon fill="#63b8ff" stroke="#63b8ff" points="439,-364.59 447.82,-358.71 437.27,-357.8 439,-364.59"/>
</a>
</g>
</g>
<!-- Node22 -->
<g id="Node000022" class="node">
<title>Node22</title>
<g id="a_Node000022"><a xlink:title=" ">
<polygon fill="#e0e0e0" stroke="#999999" points="571,-360 521,-360 521,-341 571,-341 571,-360"/>
<text text-anchor="middle" x="546" y="-348" font-family="Helvetica,sans-Serif" font-size="10.00">stdio.h</text>
</a>
</g>
</g>
<!-- Node1&#45;&gt;Node22 -->
<g id="edge37_Node000001_Node000022" class="edge">
<title>Node1&#45;&gt;Node22</title>
<g id="a_edge37_Node000001_Node000022"><a xlink:title=" ">
<path fill="none" stroke="#63b8ff" d="M323.73,-395.51C370.6,-387.57 440.15,-375.25 509.64,-360.4"/>
<polygon fill="#63b8ff" stroke="#63b8ff" points="510.27,-363.84 519.31,-358.31 508.8,-357 510.27,-363.84"/>
</a>
</g>
</g>
<!-- Node4 -->
<g id="Node000004" class="node">
<title>Node4</title>
<g id="a_Node000004"><a xlink:href="exif-data_8h.html" target="_top" xlink:title="Defines the ExifData type and the associated functions.">
<polygon fill="white" stroke="#666666" points="477,-305 375,-305 375,-286 477,-286 477,-305"/>
<text text-anchor="middle" x="426" y="-293" font-family="Helvetica,sans-Serif" font-size="10.00">libexif/exif&#45;data.h</text>
</a>
</g>
</g>
<!-- Node3&#45;&gt;Node4 -->
<g id="edge3_Node000003_Node000004" class="edge">
<title>Node3&#45;&gt;Node4</title>
<g id="a_edge3_Node000003_Node000004"><a xlink:title=" ">
<path fill="none" stroke="#63b8ff" d="M249.96,-340.51C285.55,-331.61 340.21,-317.95 379.17,-308.21"/>
<polygon fill="#63b8ff" stroke="#63b8ff" points="379.89,-311.63 388.75,-305.81 378.2,-304.84 379.89,-311.63"/>
</a>
</g>
</g>
<!-- Node8 -->
<g id="Node000008" class="node">
<title>Node8</title>
<g id="a_Node000008"><a xlink:href="exif-log_8h.html" target="_top" xlink:title="Log message infrastructure.">
<polygon fill="white" stroke="#666666" points="348.5,-184 253.5,-184 253.5,-165 348.5,-165 348.5,-184"/>
<text text-anchor="middle" x="301" y="-172" font-family="Helvetica,sans-Serif" font-size="10.00">libexif/exif&#45;log.h</text>
</a>
</g>
</g>
<!-- Node3&#45;&gt;Node8 -->
<g id="edge29_Node000003_Node000008" class="edge">
<title>Node3&#45;&gt;Node8</title>
<g id="a_edge29_Node000003_Node000008"><a xlink:title=" ">
<path fill="none" stroke="#63b8ff" d="M218.43,-340.63C231.99,-313.52 273.09,-231.32 291.69,-194.13"/>
<polygon fill="#63b8ff" stroke="#63b8ff" points="294.66,-196.01 296,-185.5 288.4,-192.88 294.66,-196.01"/>
</a>
</g>
</g>
<!-- Node9 -->
<g id="Node000009" class="node">
<title>Node9</title>
<g id="a_Node000009"><a xlink:href="exif-mem_8h.html" target="_top" xlink:title="Define the ExifMem data type and the associated functions.">
<polygon fill="white" stroke="#666666" points="269,-129 163,-129 163,-110 269,-110 269,-129"/>
<text text-anchor="middle" x="216" y="-117" font-family="Helvetica,sans-Serif" font-size="10.00">libexif/exif&#45;mem.h</text>
</a>
</g>
</g>
<!-- Node3&#45;&gt;Node9 -->
<g id="edge30_Node000003_Node000009" class="edge">
<title>Node3&#45;&gt;Node9</title>
<g id="a_edge30_Node000003_Node000009"><a xlink:title=" ">
<path fill="none" stroke="#63b8ff" d="M214.08,-340.52C214.37,-306.96 215.41,-188.36 215.82,-140.63"/>
<polygon fill="#63b8ff" stroke="#63b8ff" points="219.32,-140.71 215.91,-130.68 212.32,-140.65 219.32,-140.71"/>
</a>
</g>
</g>
<!-- Node5 -->
<g id="Node000005" class="node">
<title>Node5</title>
<g id="a_Node000005"><a xlink:href="exif-byte-order_8h.html" target="_top" xlink:title="Defines the ExifByteOrder enum and the associated functions.">
<polygon fill="white" stroke="#666666" points="157.5,-19 26.5,-19 26.5,0 157.5,0 157.5,-19"/>
<text text-anchor="middle" x="92" y="-7" font-family="Helvetica,sans-Serif" font-size="10.00">libexif/exif&#45;byte&#45;order.h</text>
</a>
</g>
</g>
<!-- Node4&#45;&gt;Node5 -->
<g id="edge4_Node000004_Node000005" class="edge">
<title>Node4&#45;&gt;Node5</title>
<g id="a_edge4_Node000004_Node000005"><a xlink:title=" ">
<path fill="none" stroke="#63b8ff" d="M374.54,-287.1C280.85,-272.18 92,-234.75 92,-175.5 92,-175.5 92,-175.5 92,-118.5 92,-87.92 92,-52.48 92,-30.77"/>
<polygon fill="#63b8ff" stroke="#63b8ff" points="95.5,-30.97 92,-20.97 88.5,-30.97 95.5,-30.97"/>
</a>
</g>
</g>
<!-- Node6 -->
<g id="Node000006" class="node">
<title>Node6</title>
<g id="a_Node000006"><a xlink:href="exif-data-type_8h.html" target="_top" xlink:title=" ">
<polygon fill="white" stroke="#666666" points="647,-129 519,-129 519,-110 647,-110 647,-129"/>
<text text-anchor="middle" x="583" y="-117" font-family="Helvetica,sans-Serif" font-size="10.00">libexif/exif&#45;data&#45;type.h</text>
</a>
</g>
</g>
<!-- Node4&#45;&gt;Node6 -->
<g id="edge5_Node000004_Node000006" class="edge">
<title>Node4&#45;&gt;Node6</title>
<g id="a_edge5_Node000004_Node000006"><a xlink:title=" ">
<path fill="none" stroke="#63b8ff" d="M477.38,-289.61C505.15,-284.26 537.79,-273.13 558,-250 584.79,-219.34 586.43,-168.78 584.93,-140.77"/>
<polygon fill="#63b8ff" stroke="#63b8ff" points="588.42,-140.54 584.18,-130.83 581.44,-141.07 588.42,-140.54"/>
</a>
</g>
</g>
<!-- Node7 -->
<g id="Node000007" class="node">
<title>Node7</title>
<g id="a_Node000007"><a xlink:href="exif-ifd_8h.html" target="_top" xlink:title=" ">
<polygon fill="white" stroke="#666666" points="769.5,-129 676.5,-129 676.5,-110 769.5,-110 769.5,-129"/>
<text text-anchor="middle" x="723" y="-117" font-family="Helvetica,sans-Serif" font-size="10.00">libexif/exif&#45;ifd.h</text>
</a>
</g>
</g>
<!-- Node4&#45;&gt;Node7 -->
<g id="edge6_Node000004_Node000007" class="edge">
<title>Node4&#45;&gt;Node7</title>
<g id="a_edge6_Node000004_Node000007"><a xlink:title=" ">
<path fill="none" stroke="#63b8ff" d="M477.26,-288.54C517.48,-282.51 574.12,-270.99 620,-250 665.11,-229.36 683.23,-225.76 710,-184 718.28,-171.08 721.43,-153.9 722.56,-140.67"/>
<polygon fill="#63b8ff" stroke="#63b8ff" points="726.04,-141.13 723.06,-130.97 719.05,-140.78 726.04,-141.13"/>
</a>
</g>
</g>
<!-- Node4&#45;&gt;Node8 -->
<g id="edge7_Node000004_Node000008" class="edge">
<title>Node4&#45;&gt;Node8</title>
<g id="a_edge7_Node000004_Node000008"><a xlink:title=" ">
<path fill="none" stroke="#63b8ff" d="M374.55,-289.69C348.32,-284.34 318.54,-273.18 302,-250 290.74,-234.23 292.32,-211.4 295.56,-195.18"/>
<polygon fill="#63b8ff" stroke="#63b8ff" points="298.89,-196.3 297.83,-185.76 292.09,-194.66 298.89,-196.3"/>
</a>
</g>
</g>
<!-- Node4&#45;&gt;Node9 -->
<g id="edge28_Node000004_Node000009" class="edge">
<title>Node4&#45;&gt;Node9</title>
<g id="a_edge28_Node000004_Node000009"><a xlink:title=" ">
<path fill="none" stroke="#63b8ff" d="M374.66,-286.3C347.16,-279.93 313.92,-268.88 289,-250 251.91,-221.89 230.85,-169.13 221.64,-140.39"/>
<polygon fill="#63b8ff" stroke="#63b8ff" points="224.99,-139.38 218.76,-130.82 218.29,-141.4 224.99,-139.38"/>
</a>
</g>
</g>
<!-- Node14 -->
<g id="Node000014" class="node">
<title>Node14</title>
<g id="a_Node000014"><a xlink:href="exif-tag_8h.html" target="_top" xlink:title="Handling EXIF tags.">
<polygon fill="white" stroke="#666666" points="701,-184 605,-184 605,-165 701,-165 701,-184"/>
<text text-anchor="middle" x="653" y="-172" font-family="Helvetica,sans-Serif" font-size="10.00">libexif/exif&#45;tag.h</text>
</a>
</g>
</g>
<!-- Node4&#45;&gt;Node14 -->
<g id="edge14_Node000004_Node000014" class="edge">
<title>Node4&#45;&gt;Node14</title>
<g id="a_edge14_Node000004_Node000014"><a xlink:title=" ">
<path fill="none" stroke="#63b8ff" d="M477.26,-288.88C511.6,-283.22 556.66,-272.02 591,-250 613.29,-235.71 631.6,-210.84 642.4,-193.8"/>
<polygon fill="#63b8ff" stroke="#63b8ff" points="645.15,-196.02 647.34,-185.66 639.16,-192.39 645.15,-196.02"/>
</a>
</g>
</g>
<!-- Node15 -->
<g id="Node000015" class="node">
<title>Node15</title>
<g id="a_Node000015"><a xlink:href="exif-content_8h.html" target="_top" xlink:title="Handling EXIF IFDs.">
<polygon fill="white" stroke="#666666" points="548.5,-244.5 431.5,-244.5 431.5,-225.5 548.5,-225.5 548.5,-244.5"/>
<text text-anchor="middle" x="490" y="-232.5" font-family="Helvetica,sans-Serif" font-size="10.00">libexif/exif&#45;content.h</text>
</a>
</g>
</g>
<!-- Node4&#45;&gt;Node15 -->
<g id="edge17_Node000004_Node000015" class="edge">
<title>Node4&#45;&gt;Node15</title>
<g id="a_edge17_Node000004_Node000015"><a xlink:title=" ">
<path fill="none" stroke="#63b8ff" d="M430.49,-285.87C438.33,-276.93 453.45,-262.78 466.61,-251.82"/>
<polygon fill="#63b8ff" stroke="#63b8ff" points="468.51,-254.79 474.12,-245.81 464.13,-249.33 468.51,-254.79"/>
</a>
</g>
</g>
<!-- Node17 -->
<g id="Node000017" class="node">
<title>Node17</title>
<g id="a_Node000017"><a xlink:href="exif-mnote-data_8h.html" target="_top" xlink:title="Handling EXIF MakerNote tags.">
<polygon fill="white" stroke="#666666" points="413.5,-250 310.5,-250 310.5,-220 413.5,-220 413.5,-250"/>
<text text-anchor="start" x="318.5" y="-238" font-family="Helvetica,sans-Serif" font-size="10.00">libexif/exif&#45;mnote</text>
<text text-anchor="middle" x="362" y="-227" font-family="Helvetica,sans-Serif" font-size="10.00">&#45;data.h</text>
</a>
</g>
</g>
<!-- Node4&#45;&gt;Node17 -->
<g id="edge26_Node000004_Node000017" class="edge">
<title>Node4&#45;&gt;Node17</title>
<g id="a_edge26_Node000004_Node000017"><a xlink:title=" ">
<path fill="none" stroke="#63b8ff" d="M416.28,-285.62C408.3,-278.32 396.66,-267.68 386.2,-258.12"/>
<polygon fill="#63b8ff" stroke="#63b8ff" points="388.66,-255.62 378.91,-251.46 383.93,-260.79 388.66,-255.62"/>
</a>
</g>
</g>
<!-- Node8&#45;&gt;Node9 -->
<g id="edge8_Node000008_Node000009" class="edge">
<title>Node8&#45;&gt;Node9</title>
<g id="a_edge8_Node000008_Node000009"><a xlink:title=" ">
<path fill="none" stroke="#63b8ff" d="M286.58,-164.51C273.8,-156.54 254.9,-144.75 239.87,-135.38"/>
<polygon fill="#63b8ff" stroke="#63b8ff" points="241.83,-132.48 231.49,-130.16 238.12,-138.42 241.83,-132.48"/>
</a>
</g>
</g>
<!-- Node13 -->
<g id="Node000013" class="node">
<title>Node13</title>
<g id="a_Node000013"><a xlink:title=" ">
<polygon fill="#e0e0e0" stroke="#999999" points="343,-129 287,-129 287,-110 343,-110 343,-129"/>
<text text-anchor="middle" x="315" y="-117" font-family="Helvetica,sans-Serif" font-size="10.00">stdarg.h</text>
</a>
</g>
</g>
<!-- Node8&#45;&gt;Node13 -->
<g id="edge13_Node000008_Node000013" class="edge">
<title>Node8&#45;&gt;Node13</title>
<g id="a_edge13_Node000008_Node000013"><a xlink:title=" ">
<path fill="none" stroke="#63b8ff" d="M303.31,-164.75C305.06,-158.11 307.54,-148.73 309.77,-140.31"/>
<polygon fill="#63b8ff" stroke="#63b8ff" points="313.08,-141.47 312.25,-130.91 306.31,-139.68 313.08,-141.47"/>
</a>
</g>
</g>
<!-- Node9&#45;&gt;Node10 -->
<g id="edge9_Node000009_Node000010" class="edge">
<title>Node9&#45;&gt;Node10</title>
<g id="a_edge9_Node000009_Node000010"><a xlink:title=" ">
<path fill="none" stroke="#63b8ff" d="M216,-109.75C216,-103.27 216,-94.16 216,-85.9"/>
<polygon fill="#63b8ff" stroke="#63b8ff" points="219.5,-85.96 216,-75.96 212.5,-85.96 219.5,-85.96"/>
</a>
</g>
</g>
<!-- Node10&#45;&gt;Node5 -->
<g id="edge10_Node000010_Node000005" class="edge">
<title>Node10&#45;&gt;Node5</title>
<g id="a_edge10_Node000010_Node000005"><a xlink:title=" ">
<path fill="none" stroke="#63b8ff" d="M194.97,-54.51C175.25,-46.08 145.53,-33.38 123.09,-23.79"/>
<polygon fill="#63b8ff" stroke="#63b8ff" points="124.69,-20.66 114.12,-19.95 121.94,-27.1 124.69,-20.66"/>
</a>
</g>
</g>
<!-- Node11 -->
<g id="Node000011" class="node">
<title>Node11</title>
<g id="a_Node000011"><a xlink:href="exif-format_8h.html" target="_top" xlink:title="Handling native EXIF data types.">
<polygon fill="white" stroke="#666666" points="439.5,-19 326.5,-19 326.5,0 439.5,0 439.5,-19"/>
<text text-anchor="middle" x="383" y="-7" font-family="Helvetica,sans-Serif" font-size="10.00">libexif/exif&#45;format.h</text>
</a>
</g>
</g>
<!-- Node10&#45;&gt;Node11 -->
<g id="edge11_Node000010_Node000011" class="edge">
<title>Node10&#45;&gt;Node11</title>
<g id="a_edge11_Node000010_Node000011"><a xlink:title=" ">
<path fill="none" stroke="#63b8ff" d="M244.33,-54.51C271.76,-45.8 313.58,-32.53 344.12,-22.84"/>
<polygon fill="#63b8ff" stroke="#63b8ff" points="344.9,-26.27 353.37,-19.9 342.78,-19.59 344.9,-26.27"/>
</a>
</g>
</g>
<!-- Node12 -->
<g id="Node000012" class="node">
<title>Node12</title>
<g id="a_Node000012"><a xlink:title=" ">
<polygon fill="#e0e0e0" stroke="#999999" points="268,-19 176,-19 176,0 268,0 268,-19"/>
<text text-anchor="middle" x="222" y="-7" font-family="Helvetica,sans-Serif" font-size="10.00">libexif/_stdint.h</text>
</a>
</g>
</g>
<!-- Node10&#45;&gt;Node12 -->
<g id="edge12_Node000010_Node000012" class="edge">
<title>Node10&#45;&gt;Node12</title>
<g id="a_edge12_Node000010_Node000012"><a xlink:title=" ">
<path fill="none" stroke="#63b8ff" d="M216.99,-54.75C217.73,-48.19 218.78,-38.95 219.72,-30.6"/>
<polygon fill="#63b8ff" stroke="#63b8ff" points="223.17,-31.28 220.82,-20.95 216.21,-30.49 223.17,-31.28"/>
</a>
</g>
</g>
<!-- Node14&#45;&gt;Node6 -->
<g id="edge16_Node000014_Node000006" class="edge">
<title>Node14&#45;&gt;Node6</title>
<g id="a_edge16_Node000014_Node000006"><a xlink:title=" ">
<path fill="none" stroke="#63b8ff" d="M641.13,-164.51C630.91,-156.77 615.93,-145.43 603.74,-136.2"/>
<polygon fill="#63b8ff" stroke="#63b8ff" points="605.99,-133.52 595.91,-130.27 601.77,-139.1 605.99,-133.52"/>
</a>
</g>
</g>
<!-- Node14&#45;&gt;Node7 -->
<g id="edge15_Node000014_Node000007" class="edge">
<title>Node14&#45;&gt;Node7</title>
<g id="a_edge15_Node000014_Node000007"><a xlink:title=" ">
<path fill="none" stroke="#63b8ff" d="M664.87,-164.51C675.09,-156.77 690.07,-145.43 702.26,-136.2"/>
<polygon fill="#63b8ff" stroke="#63b8ff" points="704.23,-139.1 710.09,-130.27 700.01,-133.52 704.23,-139.1"/>
</a>
</g>
</g>
<!-- Node15&#45;&gt;Node4 -->
<g id="edge23_Node000015_Node000004" class="edge">
<title>Node15&#45;&gt;Node4</title>
<g id="a_edge23_Node000015_Node000004"><a xlink:title=" ">
<path fill="none" stroke="#63b8ff" d="M485.22,-244.97C477.36,-253.85 462.63,-267.64 449.7,-278.41"/>
<polygon fill="#63b8ff" stroke="#63b8ff" points="447.52,-275.68 441.91,-284.67 451.9,-281.14 447.52,-275.68"/>
</a>
</g>
</g>
<!-- Node15&#45;&gt;Node8 -->
<g id="edge24_Node000015_Node000008" class="edge">
<title>Node15&#45;&gt;Node8</title>
<g id="a_edge24_Node000015_Node000008"><a xlink:title=" ">
<path fill="none" stroke="#63b8ff" d="M461.29,-225.12C429.1,-215.15 376.68,-198.93 340.61,-187.76"/>
<polygon fill="#63b8ff" stroke="#63b8ff" points="342.01,-184.53 331.42,-184.92 339.94,-191.22 342.01,-184.53"/>
</a>
</g>
</g>
<!-- Node15&#45;&gt;Node9 -->
<g id="edge25_Node000015_Node000009" class="edge">
<title>Node15&#45;&gt;Node9</title>
<g id="a_edge25_Node000015_Node000009"><a xlink:title=" ">
<path fill="none" stroke="#63b8ff" d="M474.98,-225.02C450.92,-210.89 401.96,-183.21 358,-165 326.39,-151.91 289.49,-140.45 261.23,-132.45"/>
<polygon fill="#63b8ff" stroke="#63b8ff" points="262.49,-129.16 251.92,-129.85 260.61,-135.91 262.49,-129.16"/>
</a>
</g>
</g>
<!-- Node15&#45;&gt;Node14 -->
<g id="edge18_Node000015_Node000014" class="edge">
<title>Node15&#45;&gt;Node14</title>
<g id="a_edge18_Node000015_Node000014"><a xlink:title=" ">
<path fill="none" stroke="#63b8ff" d="M514.76,-225.12C542.04,-215.32 586.17,-199.48 617.22,-188.34"/>
<polygon fill="#63b8ff" stroke="#63b8ff" points="618.36,-191.65 626.59,-184.98 615.99,-185.06 618.36,-191.65"/>
</a>
</g>
</g>
<!-- Node16 -->
<g id="Node000016" class="node">
<title>Node16</title>
<g id="a_Node000016"><a xlink:href="exif-entry_8h.html" target="_top" xlink:title="Handling EXIF entries.">
<polygon fill="white" stroke="#666666" points="523,-184 419,-184 419,-165 523,-165 523,-184"/>
<text text-anchor="middle" x="471" y="-172" font-family="Helvetica,sans-Serif" font-size="10.00">libexif/exif&#45;entry.h</text>
</a>
</g>
</g>
<!-- Node15&#45;&gt;Node16 -->
<g id="edge19_Node000015_Node000016" class="edge">
<title>Node15&#45;&gt;Node16</title>
<g id="a_edge19_Node000015_Node000016"><a xlink:title=" ">
<path fill="none" stroke="#63b8ff" d="M482.24,-225.37C477.99,-217.5 473.63,-205.6 471.03,-195.39"/>
<polygon fill="#63b8ff" stroke="#63b8ff" points="474.48,-194.8 469.14,-185.65 467.61,-196.14 474.48,-194.8"/>
</a>
</g>
</g>
<!-- Node16&#45;&gt;Node9 -->
<g id="edge22_Node000016_Node000009" class="edge">
<title>Node16&#45;&gt;Node9</title>
<g id="a_edge22_Node000016_Node000009"><a xlink:title=" ">
<path fill="none" stroke="#63b8ff" d="M427.74,-164.51C384.29,-155.48 317.21,-141.54 270.23,-131.77"/>
<polygon fill="#63b8ff" stroke="#63b8ff" points="271.03,-128.36 260.53,-129.75 269.6,-135.22 271.03,-128.36"/>
</a>
</g>
</g>
<!-- Node16&#45;&gt;Node11 -->
<g id="edge21_Node000016_Node000011" class="edge">
<title>Node16&#45;&gt;Node11</title>
<g id="a_edge21_Node000016_Node000011"><a xlink:title=" ">
<path fill="none" stroke="#63b8ff" d="M466.27,-164.74C452.48,-139.2 412.12,-64.43 393.11,-29.23"/>
<polygon fill="#63b8ff" stroke="#63b8ff" points="396.3,-27.78 388.47,-20.64 390.14,-31.1 396.3,-27.78"/>
</a>
</g>
</g>
<!-- Node16&#45;&gt;Node15 -->
<g id="edge20_Node000016_Node000015" class="edge">
<title>Node16&#45;&gt;Node15</title>
<g id="a_edge20_Node000016_Node000015"><a xlink:title=" ">
<path fill="none" stroke="#63b8ff" d="M478.78,-184.17C483.03,-192.04 487.39,-203.95 489.98,-214.16"/>
<polygon fill="#63b8ff" stroke="#63b8ff" points="486.53,-214.73 491.86,-223.88 493.4,-213.4 486.53,-214.73"/>
</a>
</g>
</g>
<!-- Node17&#45;&gt;Node8 -->
<g id="edge27_Node000017_Node000008" class="edge">
<title>Node17&#45;&gt;Node8</title>
<g id="a_edge27_Node000017_Node000008"><a xlink:title=" ">
<path fill="none" stroke="#63b8ff" d="M346.92,-219.54C338.24,-211.22 327.3,-200.72 318.28,-192.07"/>
<polygon fill="#63b8ff" stroke="#63b8ff" points="320.78,-189.62 311.14,-185.22 315.93,-194.67 320.78,-189.62"/>
</a>
</g>
</g>
<!-- Node18&#45;&gt;Node2 -->
<g id="edge33_Node000018_Node000002" class="edge">
<title>Node18&#45;&gt;Node2</title>
<g id="a_edge33_Node000018_Node000002"><a xlink:title=" ">
<path fill="none" stroke="#63b8ff" d="M56.39,-340.75C51.88,-333.73 45.41,-323.64 39.79,-314.87"/>
<polygon fill="#63b8ff" stroke="#63b8ff" points="42.9,-313.24 34.55,-306.72 37.01,-317.02 42.9,-313.24"/>
</a>
</g>
</g>
</g>
</svg>
