<?xml version="1.0" encoding="UTF-8" standalone="no"?>
<!DOCTYPE svg PUBLIC "-//W3C//DTD SVG 1.1//EN"
 "http://www.w3.org/Graphics/SVG/1.1/DTD/svg11.dtd">
<!-- Generated by graphviz version 2.44.1 (0)
 -->
<!-- Title: exif_entry_alloc Pages: 1 -->
<svg width="243pt" height="66pt"
 viewBox="0.00 0.00 243.00 66.00" xmlns="http://www.w3.org/2000/svg" xmlns:xlink="http://www.w3.org/1999/xlink">
<g id="graph0" class="graph" transform="scale(1 1) rotate(0) translate(4 62)">
<title>exif_entry_alloc</title>
<polygon fill="white" stroke="transparent" points="-4,4 -4,-62 239,-62 239,4 -4,4"/>
<!-- Node1 -->
<g id="node1" class="node">
<title>Node1</title>
<g id="a_node1"><a xlink:title=" ">
<polygon fill="#bfbfbf" stroke="black" points="0,-19.5 0,-38.5 95,-38.5 95,-19.5 0,-19.5"/>
<text text-anchor="middle" x="47.5" y="-26.5" font-family="Helvetica,sans-Serif" font-size="10.00">exif_entry_alloc</text>
</a>
</g>
</g>
<!-- Node2 -->
<g id="node2" class="node">
<title>Node2</title>
<g id="a_node2"><a xlink:href="exif-entry_8c.html#ad5b86e68c3c96618a946a5c6fcd5f394" target="_top" xlink:title=" ">
<polygon fill="white" stroke="black" points="131,-38.5 131,-57.5 235,-57.5 235,-38.5 131,-38.5"/>
<text text-anchor="middle" x="183" y="-45.5" font-family="Helvetica,sans-Serif" font-size="10.00">exif_data_get_log</text>
</a>
</g>
</g>
<!-- Node1&#45;&gt;Node2 -->
<g id="edge1" class="edge">
<title>Node1&#45;&gt;Node2</title>
<path fill="none" stroke="midnightblue" d="M95.19,-35.65C103.41,-36.81 112.07,-38.05 120.61,-39.26"/>
<polygon fill="midnightblue" stroke="midnightblue" points="120.16,-42.73 130.55,-40.68 121.15,-35.8 120.16,-42.73"/>
</g>
<!-- Node3 -->
<g id="node3" class="node">
<title>Node3</title>
<g id="a_node3"><a xlink:href="exif-mem_8c.html#ae8c09cfbcb95e435c4c4b7ec3bbd79e4" target="_top" xlink:title=" ">
<polygon fill="white" stroke="black" points="135.5,-0.5 135.5,-19.5 230.5,-19.5 230.5,-0.5 135.5,-0.5"/>
<text text-anchor="middle" x="183" y="-7.5" font-family="Helvetica,sans-Serif" font-size="10.00">exif_mem_alloc</text>
</a>
</g>
</g>
<!-- Node1&#45;&gt;Node3 -->
<g id="edge2" class="edge">
<title>Node1&#45;&gt;Node3</title>
<path fill="none" stroke="midnightblue" d="M95.19,-22.35C104.79,-20.99 115,-19.54 124.92,-18.12"/>
<polygon fill="midnightblue" stroke="midnightblue" points="125.7,-21.55 135.11,-16.67 124.72,-14.62 125.7,-21.55"/>
</g>
</g>
</svg>
