<?xml version="1.0" encoding="UTF-8" standalone="no"?>
<!DOCTYPE svg PUBLIC "-//W3C//DTD SVG 1.1//EN"
 "http://www.w3.org/Graphics/SVG/1.1/DTD/svg11.dtd">
<!-- Generated by graphviz version 2.44.1 (0)
 -->
<!-- Title: exif_mnote_data_olympus_identify Pages: 1 -->
<svg width="916pt" height="458pt"
 viewBox="0.00 0.00 916.00 458.00" xmlns="http://www.w3.org/2000/svg" xmlns:xlink="http://www.w3.org/1999/xlink">
<g id="graph0" class="graph" transform="scale(1 1) rotate(0) translate(4 454)">
<title>exif_mnote_data_olympus_identify</title>
<polygon fill="white" stroke="transparent" points="-4,4 -4,-454 912,-454 912,4 -4,4"/>
<!-- Node1 -->
<g id="node1" class="node">
<title>Node1</title>
<g id="a_node1"><a xlink:title="Detect if MakerNote is recognized as one handled by the Olympus module.">
<polygon fill="#bfbfbf" stroke="black" points="0,-182 0,-212 146,-212 146,-182 0,-182"/>
<text text-anchor="start" x="8" y="-200" font-family="Helvetica,sans-Serif" font-size="10.00">exif_mnote_data_olympus</text>
<text text-anchor="middle" x="73" y="-189" font-family="Helvetica,sans-Serif" font-size="10.00">_identify</text>
</a>
</g>
</g>
<!-- Node2 -->
<g id="node2" class="node">
<title>Node2</title>
<g id="a_node2"><a xlink:href="exif-entry_8c.html#afda0f9d242fd7db960778502414c9885" target="_top" xlink:title="Return a localized textual representation of the value of the EXIF entry.">
<polygon fill="white" stroke="black" points="195.5,-209.5 195.5,-228.5 314.5,-228.5 314.5,-209.5 195.5,-209.5"/>
<text text-anchor="middle" x="255" y="-216.5" font-family="Helvetica,sans-Serif" font-size="10.00">exif_entry_get_value</text>
</a>
</g>
</g>
<!-- Node1&#45;&gt;Node2 -->
<g id="edge1" class="edge">
<title>Node1&#45;&gt;Node2</title>
<path fill="none" stroke="midnightblue" d="M146.18,-205.82C159.06,-207.4 172.46,-209.03 185.25,-210.6"/>
<polygon fill="midnightblue" stroke="midnightblue" points="185,-214.09 195.36,-211.83 185.85,-207.14 185,-214.09"/>
</g>
<!-- Node20 -->
<g id="node20" class="node">
<title>Node20</title>
<g id="a_node20"><a xlink:href="exif-mnote-data-olympus_8c.html#a2c0a03d9462fd2a2f2f0a3f7e017a858" target="_top" xlink:title=" ">
<polygon fill="white" stroke="black" points="182,-160 182,-190 328,-190 328,-160 182,-160"/>
<text text-anchor="start" x="190" y="-178" font-family="Helvetica,sans-Serif" font-size="10.00">exif_mnote_data_olympus</text>
<text text-anchor="middle" x="255" y="-167" font-family="Helvetica,sans-Serif" font-size="10.00">_identify_variant</text>
</a>
</g>
</g>
<!-- Node1&#45;&gt;Node20 -->
<g id="edge29" class="edge">
<title>Node1&#45;&gt;Node20</title>
<path fill="none" stroke="midnightblue" d="M146.18,-188.18C154.61,-187.15 163.27,-186.09 171.82,-185.04"/>
<polygon fill="midnightblue" stroke="midnightblue" points="172.31,-188.51 181.81,-183.82 171.46,-181.56 172.31,-188.51"/>
</g>
<!-- Node3 -->
<g id="node3" class="node">
<title>Node3</title>
<g id="a_node3"><a xlink:href="exif-content_8c.html#ac72bb2dacf0da27156c2c4dce08eef5d" target="_top" xlink:title="Return the ExifEntry in this IFD corresponding to the given tag.">
<polygon fill="white" stroke="black" points="368,-430.5 368,-449.5 497,-449.5 497,-430.5 368,-430.5"/>
<text text-anchor="middle" x="432.5" y="-437.5" font-family="Helvetica,sans-Serif" font-size="10.00">exif_content_get_entry</text>
</a>
</g>
</g>
<!-- Node2&#45;&gt;Node3 -->
<g id="edge2" class="edge">
<title>Node2&#45;&gt;Node3</title>
<path fill="none" stroke="midnightblue" d="M258.64,-228.8C267.68,-260.58 300.45,-361.88 364,-416 368.85,-420.13 374.45,-423.56 380.32,-426.42"/>
<polygon fill="midnightblue" stroke="midnightblue" points="379.12,-429.71 389.69,-430.45 381.89,-423.28 379.12,-429.71"/>
</g>
<!-- Node4 -->
<g id="node4" class="node">
<title>Node4</title>
<g id="a_node4"><a xlink:href="exif-utils_8c.html#af43ad07a0e309c42ead4897c29319f4c" target="_top" xlink:title="This function converts rather UCS&#45;2LE than UTF&#45;16 to UTF&#45;8.">
<polygon fill="white" stroke="black" points="378.5,-343 378.5,-373 486.5,-373 486.5,-343 378.5,-343"/>
<text text-anchor="start" x="386.5" y="-361" font-family="Helvetica,sans-Serif" font-size="10.00">exif_convert_utf16</text>
<text text-anchor="middle" x="432.5" y="-350" font-family="Helvetica,sans-Serif" font-size="10.00">_to_utf8</text>
</a>
</g>
</g>
<!-- Node2&#45;&gt;Node4 -->
<g id="edge3" class="edge">
<title>Node2&#45;&gt;Node4</title>
<path fill="none" stroke="midnightblue" d="M263.43,-228.64C279.72,-249.22 320.59,-298.04 364,-328 369.53,-331.82 375.63,-335.33 381.82,-338.5"/>
<polygon fill="midnightblue" stroke="midnightblue" points="380.39,-341.7 390.92,-342.9 383.44,-335.4 380.39,-341.7"/>
</g>
<!-- Node5 -->
<g id="node5" class="node">
<title>Node5</title>
<g id="a_node5"><a xlink:href="exif-utils_8c.html#a4b4acf537a8c6b9405e7b53be868e4d7" target="_top" xlink:title="Retrieve an ExifShort value from memory.">
<polygon fill="white" stroke="black" points="553.5,-430.5 553.5,-449.5 639.5,-449.5 639.5,-430.5 553.5,-430.5"/>
<text text-anchor="middle" x="596.5" y="-437.5" font-family="Helvetica,sans-Serif" font-size="10.00">exif_get_short</text>
</a>
</g>
</g>
<!-- Node2&#45;&gt;Node5 -->
<g id="edge24" class="edge">
<title>Node2&#45;&gt;Node5</title>
<path fill="none" stroke="midnightblue" d="M259.39,-228.57C269.98,-257 305.24,-341.5 364,-383 378.66,-393.36 479.75,-415.85 543.4,-429.28"/>
<polygon fill="midnightblue" stroke="midnightblue" points="542.77,-432.72 553.28,-431.35 544.21,-425.87 542.77,-432.72"/>
</g>
<!-- Node7 -->
<g id="node7" class="node">
<title>Node7</title>
<g id="a_node7"><a xlink:href="exif-data_8c.html#a2d8d50e6a9c19d28fe8192ef7cc52777" target="_top" xlink:title="Return the byte order in use by this EXIF structure.">
<polygon fill="white" stroke="black" points="541.5,-381 541.5,-411 651.5,-411 651.5,-381 541.5,-381"/>
<text text-anchor="start" x="549.5" y="-399" font-family="Helvetica,sans-Serif" font-size="10.00">exif_data_get_byte</text>
<text text-anchor="middle" x="596.5" y="-388" font-family="Helvetica,sans-Serif" font-size="10.00">_order</text>
</a>
</g>
</g>
<!-- Node2&#45;&gt;Node7 -->
<g id="edge6" class="edge">
<title>Node2&#45;&gt;Node7</title>
<path fill="none" stroke="midnightblue" d="M266.88,-228.56C285.51,-244.49 325.31,-276.53 364,-295 421.14,-322.27 444.78,-304.89 501,-334 519.25,-343.45 520,-351.47 537,-363 543.58,-367.46 550.81,-371.89 557.87,-375.98"/>
<polygon fill="midnightblue" stroke="midnightblue" points="556.24,-379.08 566.67,-380.97 559.69,-372.99 556.24,-379.08"/>
</g>
<!-- Node8 -->
<g id="node8" class="node">
<title>Node8</title>
<g id="a_node8"><a xlink:href="exif-entry_8c.html#ae02e9d58318a3cd50eb6730b5e657e5a" target="_top" xlink:title="Format the value of an ExifEntry for human display in a generic way.">
<polygon fill="white" stroke="black" points="364,-266.5 364,-285.5 501,-285.5 501,-266.5 364,-266.5"/>
<text text-anchor="middle" x="432.5" y="-273.5" font-family="Helvetica,sans-Serif" font-size="10.00">exif_entry_format_value</text>
</a>
</g>
</g>
<!-- Node2&#45;&gt;Node8 -->
<g id="edge7" class="edge">
<title>Node2&#45;&gt;Node8</title>
<path fill="none" stroke="midnightblue" d="M285.37,-228.54C314.73,-238.08 360.05,-252.79 392.43,-263.31"/>
<polygon fill="midnightblue" stroke="midnightblue" points="391.44,-266.67 402.03,-266.43 393.6,-260.01 391.44,-266.67"/>
</g>
<!-- Node9 -->
<g id="node9" class="node">
<title>Node9</title>
<g id="a_node9"><a xlink:href="exif-format_8c.html#a924038efe0cd8ebade8f44619dd794f3" target="_top" xlink:title="Return the raw size of the given EXIF data type.">
<polygon fill="white" stroke="black" points="537,-228.5 537,-247.5 656,-247.5 656,-228.5 537,-228.5"/>
<text text-anchor="middle" x="596.5" y="-235.5" font-family="Helvetica,sans-Serif" font-size="10.00">exif_format_get_size</text>
</a>
</g>
</g>
<!-- Node2&#45;&gt;Node9 -->
<g id="edge22" class="edge">
<title>Node2&#45;&gt;Node9</title>
<path fill="none" stroke="midnightblue" d="M314.75,-222.29C373.72,-225.59 464.5,-230.67 526.78,-234.15"/>
<polygon fill="midnightblue" stroke="midnightblue" points="526.72,-237.66 536.9,-234.72 527.11,-230.67 526.72,-237.66"/>
</g>
<!-- Node12 -->
<g id="node12" class="node">
<title>Node12</title>
<g id="a_node12"><a xlink:href="exif-utils_8c.html#a1feb547c289aa57a4d2119338b03706c" target="_top" xlink:title="Retrieve an ExifRational value from memory.">
<polygon fill="white" stroke="black" points="547,-190.5 547,-209.5 646,-209.5 646,-190.5 547,-190.5"/>
<text text-anchor="middle" x="596.5" y="-197.5" font-family="Helvetica,sans-Serif" font-size="10.00">exif_get_rational</text>
</a>
</g>
</g>
<!-- Node2&#45;&gt;Node12 -->
<g id="edge23" class="edge">
<title>Node2&#45;&gt;Node12</title>
<path fill="none" stroke="midnightblue" d="M314.75,-215.71C376.95,-212.23 474.56,-206.77 536.76,-203.29"/>
<polygon fill="midnightblue" stroke="midnightblue" points="537.02,-206.78 546.81,-202.72 536.63,-199.79 537.02,-206.78"/>
</g>
<!-- Node13 -->
<g id="node13" class="node">
<title>Node13</title>
<g id="a_node13"><a xlink:href="exif-utils_8c.html#adb97c3499488d5642a82df1cb16dc2cb" target="_top" xlink:title="Retrieve an ExifSRational value from memory.">
<polygon fill="white" stroke="black" points="544.5,-152.5 544.5,-171.5 648.5,-171.5 648.5,-152.5 544.5,-152.5"/>
<text text-anchor="middle" x="596.5" y="-159.5" font-family="Helvetica,sans-Serif" font-size="10.00">exif_get_srational</text>
</a>
</g>
</g>
<!-- Node2&#45;&gt;Node13 -->
<g id="edge25" class="edge">
<title>Node2&#45;&gt;Node13</title>
<path fill="none" stroke="midnightblue" d="M312.82,-209.46C374.07,-199.18 471.2,-182.87 534.15,-172.3"/>
<polygon fill="midnightblue" stroke="midnightblue" points="535.05,-175.7 544.33,-170.59 533.89,-168.8 535.05,-175.7"/>
</g>
<!-- Node14 -->
<g id="node14" class="node">
<title>Node14</title>
<g id="a_node14"><a xlink:href="exif-entry_8c.html#ac416e8326bd687f5da299d1b15a731bf" target="_top" xlink:title=" ">
<polygon fill="white" stroke="black" points="389.5,-114.5 389.5,-133.5 475.5,-133.5 475.5,-114.5 389.5,-114.5"/>
<text text-anchor="middle" x="432.5" y="-121.5" font-family="Helvetica,sans-Serif" font-size="10.00">exif_entry_log</text>
</a>
</g>
</g>
<!-- Node2&#45;&gt;Node14 -->
<g id="edge19" class="edge">
<title>Node2&#45;&gt;Node14</title>
<path fill="none" stroke="midnightblue" d="M309.81,-209.39C316.26,-206.94 322.5,-203.86 328,-200 351.01,-183.86 341.68,-165.09 364,-148 369.44,-143.83 375.67,-140.35 382.09,-137.45"/>
<polygon fill="midnightblue" stroke="midnightblue" points="383.62,-140.6 391.56,-133.6 380.98,-134.12 383.62,-140.6"/>
</g>
<!-- Node17 -->
<g id="node17" class="node">
<title>Node17</title>
<g id="a_node17"><a xlink:href="exif-mem_8c.html#ae8c09cfbcb95e435c4c4b7ec3bbd79e4" target="_top" xlink:title=" ">
<polygon fill="white" stroke="black" points="385,-76.5 385,-95.5 480,-95.5 480,-76.5 385,-76.5"/>
<text text-anchor="middle" x="432.5" y="-83.5" font-family="Helvetica,sans-Serif" font-size="10.00">exif_mem_alloc</text>
</a>
</g>
</g>
<!-- Node2&#45;&gt;Node17 -->
<g id="edge26" class="edge">
<title>Node2&#45;&gt;Node17</title>
<path fill="none" stroke="midnightblue" d="M313.3,-209.49C318.65,-207.01 323.68,-203.89 328,-200 361.55,-169.78 330.7,-135.49 364,-105 367.43,-101.86 371.33,-99.24 375.49,-97.04"/>
<polygon fill="midnightblue" stroke="midnightblue" points="377.19,-100.12 384.94,-92.89 374.38,-93.71 377.19,-100.12"/>
</g>
<!-- Node18 -->
<g id="node18" class="node">
<title>Node18</title>
<g id="a_node18"><a xlink:href="exif-mem_8c.html#a43190b81b4b4bdb4ffb89bfb612051b1" target="_top" xlink:title=" ">
<polygon fill="white" stroke="black" points="387,-38.5 387,-57.5 478,-57.5 478,-38.5 387,-38.5"/>
<text text-anchor="middle" x="432.5" y="-45.5" font-family="Helvetica,sans-Serif" font-size="10.00">exif_mem_free</text>
</a>
</g>
</g>
<!-- Node2&#45;&gt;Node18 -->
<g id="edge27" class="edge">
<title>Node2&#45;&gt;Node18</title>
<path fill="none" stroke="midnightblue" d="M314.75,-209.39C319.62,-206.91 324.15,-203.83 328,-200 371.44,-156.84 320.92,-110.52 364,-67 367.91,-63.05 372.57,-59.91 377.58,-57.41"/>
<polygon fill="midnightblue" stroke="midnightblue" points="379.01,-60.61 386.92,-53.56 376.34,-54.13 379.01,-60.61"/>
</g>
<!-- Node19 -->
<g id="node19" class="node">
<title>Node19</title>
<g id="a_node19"><a xlink:href="exif-entry_8c.html#acfe97d1f369d95332b6e796c690093e4" target="_top" xlink:title="Check if a string consists entirely of a single, repeated character.">
<polygon fill="white" stroke="black" points="371.5,-0.5 371.5,-19.5 493.5,-19.5 493.5,-0.5 371.5,-0.5"/>
<text text-anchor="middle" x="432.5" y="-7.5" font-family="Helvetica,sans-Serif" font-size="10.00">match_repeated_char</text>
</a>
</g>
</g>
<!-- Node2&#45;&gt;Node19 -->
<g id="edge28" class="edge">
<title>Node2&#45;&gt;Node19</title>
<path fill="none" stroke="midnightblue" d="M314.63,-209.8C319.59,-207.24 324.17,-204.03 328,-200 381.51,-143.71 310.95,-85.72 364,-29 365.23,-27.69 366.54,-26.46 367.92,-25.32"/>
<polygon fill="midnightblue" stroke="midnightblue" points="370.1,-28.07 376.5,-19.63 366.23,-22.24 370.1,-28.07"/>
</g>
<!-- Node4&#45;&gt;Node5 -->
<g id="edge4" class="edge">
<title>Node4&#45;&gt;Node5</title>
<path fill="none" stroke="midnightblue" d="M473.18,-373.07C482.61,-377.34 492.42,-382.38 501,-388 519.15,-399.9 518.25,-410.06 537,-421 540.63,-423.12 544.53,-425.03 548.53,-426.76"/>
<polygon fill="midnightblue" stroke="midnightblue" points="547.37,-430.06 557.96,-430.45 549.92,-423.55 547.37,-430.06"/>
</g>
<!-- Node6 -->
<g id="node6" class="node">
<title>Node6</title>
<g id="a_node6"><a xlink:href="exif-utils_8c.html#a6baf094a71392f9cea23ad633ec13c8b" target="_top" xlink:title="Retrieve an ExifSShort value from memory.">
<polygon fill="white" stroke="black" points="692,-386.5 692,-405.5 784,-405.5 784,-386.5 692,-386.5"/>
<text text-anchor="middle" x="738" y="-393.5" font-family="Helvetica,sans-Serif" font-size="10.00">exif_get_sshort</text>
</a>
</g>
</g>
<!-- Node5&#45;&gt;Node6 -->
<g id="edge5" class="edge">
<title>Node5&#45;&gt;Node6</title>
<path fill="none" stroke="midnightblue" d="M627.77,-430.45C648.06,-424.05 675,-415.56 697.05,-408.6"/>
<polygon fill="midnightblue" stroke="midnightblue" points="698.31,-411.87 706.79,-405.53 696.2,-405.2 698.31,-411.87"/>
</g>
<!-- Node8&#45;&gt;Node5 -->
<g id="edge14" class="edge">
<title>Node8&#45;&gt;Node5</title>
<path fill="none" stroke="midnightblue" d="M448.18,-285.52C463.19,-295.88 486.32,-313.73 501,-334 525.54,-367.9 506.27,-392.59 537,-421 539.28,-423.11 541.79,-424.98 544.46,-426.65"/>
<polygon fill="midnightblue" stroke="midnightblue" points="542.92,-429.79 553.41,-431.29 546.15,-423.58 542.92,-429.79"/>
</g>
<!-- Node8&#45;&gt;Node6 -->
<g id="edge18" class="edge">
<title>Node8&#45;&gt;Node6</title>
<path fill="none" stroke="midnightblue" d="M467.03,-285.56C478.17,-289.35 490.42,-294.2 501,-300 518.78,-309.74 519.16,-318.38 537,-328 564.69,-342.93 645.09,-368.39 695.12,-383.56"/>
<polygon fill="midnightblue" stroke="midnightblue" points="694.11,-386.91 704.69,-386.45 696.13,-380.21 694.11,-386.91"/>
</g>
<!-- Node8&#45;&gt;Node7 -->
<g id="edge8" class="edge">
<title>Node8&#45;&gt;Node7</title>
<path fill="none" stroke="midnightblue" d="M475.32,-285.54C484.47,-289.01 493.62,-293.7 501,-300 526.41,-321.69 513.07,-342.68 537,-366 540.64,-369.54 544.77,-372.76 549.13,-375.66"/>
<polygon fill="midnightblue" stroke="midnightblue" points="547.34,-378.67 557.7,-380.84 550.96,-372.67 547.34,-378.67"/>
</g>
<!-- Node8&#45;&gt;Node9 -->
<g id="edge9" class="edge">
<title>Node8&#45;&gt;Node9</title>
<path fill="none" stroke="midnightblue" d="M474.38,-266.41C495.85,-261.37 522.36,-255.16 545.1,-249.82"/>
<polygon fill="midnightblue" stroke="midnightblue" points="545.98,-253.21 554.91,-247.52 544.38,-246.4 545.98,-253.21"/>
</g>
<!-- Node10 -->
<g id="node10" class="node">
<title>Node10</title>
<g id="a_node10"><a xlink:href="exif-utils_8c.html#a4ad94614630897766dd0a5c9bc2a59bf" target="_top" xlink:title="Retrieve an ExifLong value from memory.">
<polygon fill="white" stroke="black" points="696.5,-247.5 696.5,-266.5 779.5,-266.5 779.5,-247.5 696.5,-247.5"/>
<text text-anchor="middle" x="738" y="-254.5" font-family="Helvetica,sans-Serif" font-size="10.00">exif_get_long</text>
</a>
</g>
</g>
<!-- Node8&#45;&gt;Node10 -->
<g id="edge10" class="edge">
<title>Node8&#45;&gt;Node10</title>
<path fill="none" stroke="midnightblue" d="M501.23,-271.76C557.29,-268.25 635.69,-263.34 686.41,-260.17"/>
<polygon fill="midnightblue" stroke="midnightblue" points="686.72,-263.65 696.48,-259.54 686.28,-256.67 686.72,-263.65"/>
</g>
<!-- Node11 -->
<g id="node11" class="node">
<title>Node11</title>
<g id="a_node11"><a xlink:href="exif-utils_8c.html#a56b96f076a13da6ed926e1ef29cb2dc3" target="_top" xlink:title="Retrieve an ExifSLong value from memory.">
<polygon fill="white" stroke="black" points="820,-247.5 820,-266.5 908,-266.5 908,-247.5 820,-247.5"/>
<text text-anchor="middle" x="864" y="-254.5" font-family="Helvetica,sans-Serif" font-size="10.00">exif_get_slong</text>
</a>
</g>
</g>
<!-- Node8&#45;&gt;Node11 -->
<g id="edge15" class="edge">
<title>Node8&#45;&gt;Node11</title>
<path fill="none" stroke="midnightblue" d="M501.03,-281.16C571.86,-285.37 686.25,-288.75 784,-276 795.9,-274.45 808.62,-271.83 820.29,-269.02"/>
<polygon fill="midnightblue" stroke="midnightblue" points="821.39,-272.36 830.24,-266.53 819.69,-265.57 821.39,-272.36"/>
</g>
<!-- Node8&#45;&gt;Node12 -->
<g id="edge12" class="edge">
<title>Node8&#45;&gt;Node12</title>
<path fill="none" stroke="midnightblue" d="M448.81,-266.36C468.62,-254.18 504.43,-233.1 537,-219 542.02,-216.82 547.38,-214.76 552.73,-212.85"/>
<polygon fill="midnightblue" stroke="midnightblue" points="553.97,-216.12 562.3,-209.58 551.7,-209.5 553.97,-216.12"/>
</g>
<!-- Node8&#45;&gt;Node13 -->
<g id="edge16" class="edge">
<title>Node8&#45;&gt;Node13</title>
<path fill="none" stroke="midnightblue" d="M441.33,-266.47C457.37,-247.55 495.92,-204.97 537,-181 540.63,-178.88 544.53,-176.96 548.53,-175.24"/>
<polygon fill="midnightblue" stroke="midnightblue" points="549.92,-178.45 557.95,-171.55 547.37,-171.93 549.92,-178.45"/>
</g>
<!-- Node10&#45;&gt;Node11 -->
<g id="edge11" class="edge">
<title>Node10&#45;&gt;Node11</title>
<path fill="none" stroke="midnightblue" d="M779.6,-257C789.14,-257 799.45,-257 809.47,-257"/>
<polygon fill="midnightblue" stroke="midnightblue" points="809.75,-260.5 819.75,-257 809.75,-253.5 809.75,-260.5"/>
</g>
<!-- Node12&#45;&gt;Node10 -->
<g id="edge13" class="edge">
<title>Node12&#45;&gt;Node10</title>
<path fill="none" stroke="midnightblue" d="M629.33,-209.54C638.05,-212.37 647.46,-215.62 656,-219 674.06,-226.14 693.81,-235.37 709.28,-242.95"/>
<polygon fill="midnightblue" stroke="midnightblue" points="707.79,-246.12 718.31,-247.42 710.9,-239.84 707.79,-246.12"/>
</g>
<!-- Node13&#45;&gt;Node11 -->
<g id="edge17" class="edge">
<title>Node13&#45;&gt;Node11</title>
<path fill="none" stroke="midnightblue" d="M627.63,-171.55C636.77,-174.51 646.82,-177.82 656,-181 717,-202.1 787.44,-228.37 828.42,-243.85"/>
<polygon fill="midnightblue" stroke="midnightblue" points="827.35,-247.18 837.94,-247.45 829.82,-240.64 827.35,-247.18"/>
</g>
<!-- Node15 -->
<g id="node15" class="node">
<title>Node15</title>
<g id="a_node15"><a xlink:href="exif-entry_8c.html#ad5b86e68c3c96618a946a5c6fcd5f394" target="_top" xlink:title=" ">
<polygon fill="white" stroke="black" points="544.5,-114.5 544.5,-133.5 648.5,-133.5 648.5,-114.5 544.5,-114.5"/>
<text text-anchor="middle" x="596.5" y="-121.5" font-family="Helvetica,sans-Serif" font-size="10.00">exif_data_get_log</text>
</a>
</g>
</g>
<!-- Node14&#45;&gt;Node15 -->
<g id="edge20" class="edge">
<title>Node14&#45;&gt;Node15</title>
<path fill="none" stroke="midnightblue" d="M475.64,-124C493.52,-124 514.72,-124 534.27,-124"/>
<polygon fill="midnightblue" stroke="midnightblue" points="534.33,-127.5 544.33,-124 534.33,-120.5 534.33,-127.5"/>
</g>
<!-- Node16 -->
<g id="node16" class="node">
<title>Node16</title>
<g id="a_node16"><a xlink:href="exif-log_8c.html#a99101b5ad01b2d82ce9d43c9e8534627" target="_top" xlink:title=" ">
<polygon fill="white" stroke="black" points="565.5,-76.5 565.5,-95.5 627.5,-95.5 627.5,-76.5 565.5,-76.5"/>
<text text-anchor="middle" x="596.5" y="-83.5" font-family="Helvetica,sans-Serif" font-size="10.00">exif_logv</text>
</a>
</g>
</g>
<!-- Node14&#45;&gt;Node16 -->
<g id="edge21" class="edge">
<title>Node14&#45;&gt;Node16</title>
<path fill="none" stroke="midnightblue" d="M474.38,-114.41C499.26,-108.58 530.89,-101.15 555.59,-95.36"/>
<polygon fill="midnightblue" stroke="midnightblue" points="556.44,-98.76 565.37,-93.07 554.84,-91.94 556.44,-98.76"/>
</g>
</g>
</svg>
