<?xml version="1.0" encoding="UTF-8" standalone="no"?>
<!DOCTYPE svg PUBLIC "-//W3C//DTD SVG 1.1//EN"
 "http://www.w3.org/Graphics/SVG/1.1/DTD/svg11.dtd">
<!-- Generated by graphviz version 2.44.1 (0)
 -->
<!-- Title: fix_func Pages: 1 -->
<svg width="665pt" height="591pt"
 viewBox="0.00 0.00 665.00 591.00" xmlns="http://www.w3.org/2000/svg" xmlns:xlink="http://www.w3.org/1999/xlink">
<g id="graph0" class="graph" transform="scale(1 1) rotate(0) translate(4 587)">
<title>fix_func</title>
<polygon fill="white" stroke="transparent" points="-4,4 -4,-587 661,-587 661,4 -4,4"/>
<!-- Node1 -->
<g id="node1" class="node">
<title>Node1</title>
<g id="a_node1"><a xlink:title=" ">
<polygon fill="#bfbfbf" stroke="black" points="0,-285.5 0,-304.5 56,-304.5 56,-285.5 0,-285.5"/>
<text text-anchor="middle" x="28" y="-292.5" font-family="Helvetica,sans-Serif" font-size="10.00">fix_func</text>
</a>
</g>
</g>
<!-- Node2 -->
<g id="node2" class="node">
<title>Node2</title>
<g id="a_node2"><a xlink:href="exif-entry_8c.html#aa19ef4321004b1ce44187c12ff4f78c6" target="_top" xlink:title="Fix the type or format of the given EXIF entry to bring it into spec.">
<polygon fill="white" stroke="black" points="92,-285.5 92,-304.5 176,-304.5 176,-285.5 92,-285.5"/>
<text text-anchor="middle" x="134" y="-292.5" font-family="Helvetica,sans-Serif" font-size="10.00">exif_entry_fix</text>
</a>
</g>
</g>
<!-- Node1&#45;&gt;Node2 -->
<g id="edge1" class="edge">
<title>Node1&#45;&gt;Node2</title>
<path fill="none" stroke="midnightblue" d="M56.05,-295C64.01,-295 72.99,-295 81.94,-295"/>
<polygon fill="midnightblue" stroke="midnightblue" points="81.96,-298.5 91.96,-295 81.96,-291.5 81.96,-298.5"/>
</g>
<!-- Node3 -->
<g id="node3" class="node">
<title>Node3</title>
<g id="a_node3"><a xlink:href="exif-entry_8c.html#a01d57aa3b858af0ffbbef108ed332939" target="_top" xlink:title=" ">
<polygon fill="white" stroke="black" points="248,-563.5 248,-582.5 319,-582.5 319,-563.5 248,-563.5"/>
<text text-anchor="middle" x="283.5" y="-570.5" font-family="Helvetica,sans-Serif" font-size="10.00">clear_entry</text>
</a>
</g>
</g>
<!-- Node2&#45;&gt;Node3 -->
<g id="edge2" class="edge">
<title>Node2&#45;&gt;Node3</title>
<path fill="none" stroke="midnightblue" d="M134.76,-304.65C134.35,-342.46 138.09,-481.97 212,-554 219.07,-560.89 228.37,-565.35 237.89,-568.22"/>
<polygon fill="midnightblue" stroke="midnightblue" points="237.25,-571.67 247.8,-570.66 238.93,-564.87 237.25,-571.67"/>
</g>
<!-- Node4 -->
<g id="node4" class="node">
<title>Node4</title>
<g id="a_node4"><a xlink:href="exif-data_8c.html#a2d8d50e6a9c19d28fe8192ef7cc52777" target="_top" xlink:title="Return the byte order in use by this EXIF structure.">
<polygon fill="white" stroke="black" points="228.5,-514 228.5,-544 338.5,-544 338.5,-514 228.5,-514"/>
<text text-anchor="start" x="236.5" y="-532" font-family="Helvetica,sans-Serif" font-size="10.00">exif_data_get_byte</text>
<text text-anchor="middle" x="283.5" y="-521" font-family="Helvetica,sans-Serif" font-size="10.00">_order</text>
</a>
</g>
</g>
<!-- Node2&#45;&gt;Node4 -->
<g id="edge3" class="edge">
<title>Node2&#45;&gt;Node4</title>
<path fill="none" stroke="midnightblue" d="M135.74,-304.87C138.74,-337.87 152.85,-445.57 212,-504 214.36,-506.33 216.94,-508.44 219.69,-510.35"/>
<polygon fill="midnightblue" stroke="midnightblue" points="217.97,-513.4 228.34,-515.54 221.56,-507.4 217.97,-513.4"/>
</g>
<!-- Node5 -->
<g id="node5" class="node">
<title>Node5</title>
<g id="a_node5"><a xlink:href="exif-entry_8c.html#a98d6b995e251f09b20036c0c9d66efdf" target="_top" xlink:title=" ">
<polygon fill="white" stroke="black" points="236,-437.5 236,-456.5 331,-456.5 331,-437.5 236,-437.5"/>
<text text-anchor="middle" x="283.5" y="-444.5" font-family="Helvetica,sans-Serif" font-size="10.00">exif_entry_alloc</text>
</a>
</g>
</g>
<!-- Node2&#45;&gt;Node5 -->
<g id="edge4" class="edge">
<title>Node2&#45;&gt;Node5</title>
<path fill="none" stroke="midnightblue" d="M137.78,-304.77C145.34,-329.44 168.61,-394.7 212,-428 216.34,-431.33 221.21,-434.07 226.32,-436.34"/>
<polygon fill="midnightblue" stroke="midnightblue" points="225.12,-439.63 235.71,-439.92 227.62,-433.09 225.12,-439.63"/>
</g>
<!-- Node8 -->
<g id="node8" class="node">
<title>Node8</title>
<g id="a_node8"><a xlink:href="exif-entry_8c.html#ac416e8326bd687f5da299d1b15a731bf" target="_top" xlink:title=" ">
<polygon fill="white" stroke="black" points="240.5,-475.5 240.5,-494.5 326.5,-494.5 326.5,-475.5 240.5,-475.5"/>
<text text-anchor="middle" x="283.5" y="-482.5" font-family="Helvetica,sans-Serif" font-size="10.00">exif_entry_log</text>
</a>
</g>
</g>
<!-- Node2&#45;&gt;Node8 -->
<g id="edge7" class="edge">
<title>Node2&#45;&gt;Node8</title>
<path fill="none" stroke="midnightblue" d="M136.45,-304.86C141.3,-334.17 159.7,-421.46 212,-466 217.38,-470.58 223.76,-474.07 230.46,-476.72"/>
<polygon fill="midnightblue" stroke="midnightblue" points="229.81,-480.2 240.4,-480.04 232.02,-473.56 229.81,-480.2"/>
</g>
<!-- Node10 -->
<g id="node10" class="node">
<title>Node10</title>
<g id="a_node10"><a xlink:href="exif-entry_8c.html#aae1f97ae8c40280beacf254b450076a5" target="_top" xlink:title=" ">
<polygon fill="white" stroke="black" points="231.5,-399.5 231.5,-418.5 335.5,-418.5 335.5,-399.5 231.5,-399.5"/>
<text text-anchor="middle" x="283.5" y="-406.5" font-family="Helvetica,sans-Serif" font-size="10.00">exif_entry_realloc</text>
</a>
</g>
</g>
<!-- Node2&#45;&gt;Node10 -->
<g id="edge10" class="edge">
<title>Node2&#45;&gt;Node10</title>
<path fill="none" stroke="midnightblue" d="M140.73,-304.62C152.07,-322.89 179.15,-362.74 212,-385 218.25,-389.24 225.33,-392.79 232.52,-395.75"/>
<polygon fill="midnightblue" stroke="midnightblue" points="231.74,-399.2 242.33,-399.43 234.2,-392.65 231.74,-399.2"/>
</g>
<!-- Node11 -->
<g id="node11" class="node">
<title>Node11</title>
<g id="a_node11"><a xlink:href="exif-mem_8c.html#a43190b81b4b4bdb4ffb89bfb612051b1" target="_top" xlink:title=" ">
<polygon fill="white" stroke="black" points="401,-361.5 401,-380.5 492,-380.5 492,-361.5 401,-361.5"/>
<text text-anchor="middle" x="446.5" y="-368.5" font-family="Helvetica,sans-Serif" font-size="10.00">exif_mem_free</text>
</a>
</g>
</g>
<!-- Node2&#45;&gt;Node11 -->
<g id="edge27" class="edge">
<title>Node2&#45;&gt;Node11</title>
<path fill="none" stroke="midnightblue" d="M144.37,-304.75C157.88,-318.1 184.28,-341.59 212,-352 270.18,-373.85 342.08,-376.38 390.61,-374.88"/>
<polygon fill="midnightblue" stroke="midnightblue" points="391.04,-378.36 400.9,-374.49 390.77,-371.37 391.04,-378.36"/>
</g>
<!-- Node13 -->
<g id="node13" class="node">
<title>Node13</title>
<g id="a_node13"><a xlink:href="exif-format_8c.html#a59375a5939c716b826311c22571680f3" target="_top" xlink:title="Return a textual representation of the given EXIF data type.">
<polygon fill="white" stroke="black" points="219.5,-323.5 219.5,-342.5 347.5,-342.5 347.5,-323.5 219.5,-323.5"/>
<text text-anchor="middle" x="283.5" y="-330.5" font-family="Helvetica,sans-Serif" font-size="10.00">exif_format_get_name</text>
</a>
</g>
</g>
<!-- Node2&#45;&gt;Node13 -->
<g id="edge14" class="edge">
<title>Node2&#45;&gt;Node13</title>
<path fill="none" stroke="midnightblue" d="M172.22,-304.59C191.51,-309.56 215.26,-315.68 235.77,-320.96"/>
<polygon fill="midnightblue" stroke="midnightblue" points="234.99,-324.37 245.55,-323.48 236.74,-317.6 234.99,-324.37"/>
</g>
<!-- Node14 -->
<g id="node14" class="node">
<title>Node14</title>
<g id="a_node14"><a xlink:href="exif-format_8c.html#a924038efe0cd8ebade8f44619dd794f3" target="_top" xlink:title="Return the raw size of the given EXIF data type.">
<polygon fill="white" stroke="black" points="224,-285.5 224,-304.5 343,-304.5 343,-285.5 224,-285.5"/>
<text text-anchor="middle" x="283.5" y="-292.5" font-family="Helvetica,sans-Serif" font-size="10.00">exif_format_get_size</text>
</a>
</g>
</g>
<!-- Node2&#45;&gt;Node14 -->
<g id="edge15" class="edge">
<title>Node2&#45;&gt;Node14</title>
<path fill="none" stroke="midnightblue" d="M176.09,-295C187.79,-295 200.87,-295 213.74,-295"/>
<polygon fill="midnightblue" stroke="midnightblue" points="214,-298.5 224,-295 214,-291.5 214,-298.5"/>
</g>
<!-- Node15 -->
<g id="node15" class="node">
<title>Node15</title>
<g id="a_node15"><a xlink:href="exif-utils_8c.html#a1feb547c289aa57a4d2119338b03706c" target="_top" xlink:title="Retrieve an ExifRational value from memory.">
<polygon fill="white" stroke="black" points="234,-209.5 234,-228.5 333,-228.5 333,-209.5 234,-209.5"/>
<text text-anchor="middle" x="283.5" y="-216.5" font-family="Helvetica,sans-Serif" font-size="10.00">exif_get_rational</text>
</a>
</g>
</g>
<!-- Node2&#45;&gt;Node15 -->
<g id="edge16" class="edge">
<title>Node2&#45;&gt;Node15</title>
<path fill="none" stroke="midnightblue" d="M145.62,-285.08C159.74,-272.4 185.94,-250.59 212,-238 216.92,-235.62 222.19,-233.5 227.54,-231.63"/>
<polygon fill="midnightblue" stroke="midnightblue" points="228.77,-234.91 237.21,-228.51 226.62,-228.25 228.77,-234.91"/>
</g>
<!-- Node18 -->
<g id="node18" class="node">
<title>Node18</title>
<g id="a_node18"><a xlink:href="exif-entry_8c.html#afed3fb2fdd564d50c88f237cc6353ef8" target="_top" xlink:title="Get a value and convert it to an ExifShort.">
<polygon fill="white" stroke="black" points="219.5,-247.5 219.5,-266.5 347.5,-266.5 347.5,-247.5 219.5,-247.5"/>
<text text-anchor="middle" x="283.5" y="-254.5" font-family="Helvetica,sans-Serif" font-size="10.00">exif_get_short_convert</text>
</a>
</g>
</g>
<!-- Node2&#45;&gt;Node18 -->
<g id="edge19" class="edge">
<title>Node2&#45;&gt;Node18</title>
<path fill="none" stroke="midnightblue" d="M172.22,-285.41C191.51,-280.44 215.26,-274.32 235.77,-269.04"/>
<polygon fill="midnightblue" stroke="midnightblue" points="236.74,-272.4 245.55,-266.52 234.99,-265.63 236.74,-272.4"/>
</g>
<!-- Node21 -->
<g id="node21" class="node">
<title>Node21</title>
<g id="a_node21"><a xlink:href="exif-utils_8c.html#adb97c3499488d5642a82df1cb16dc2cb" target="_top" xlink:title="Retrieve an ExifSRational value from memory.">
<polygon fill="white" stroke="black" points="394.5,-171.5 394.5,-190.5 498.5,-190.5 498.5,-171.5 394.5,-171.5"/>
<text text-anchor="middle" x="446.5" y="-178.5" font-family="Helvetica,sans-Serif" font-size="10.00">exif_get_srational</text>
</a>
</g>
</g>
<!-- Node2&#45;&gt;Node21 -->
<g id="edge25" class="edge">
<title>Node2&#45;&gt;Node21</title>
<path fill="none" stroke="midnightblue" d="M139.49,-285.3C149.35,-265.25 175.01,-219.51 212,-200 265.06,-172.01 334.5,-169.97 383.82,-173.26"/>
<polygon fill="midnightblue" stroke="midnightblue" points="383.79,-176.77 394.03,-174.04 384.33,-169.79 383.79,-176.77"/>
</g>
<!-- Node22 -->
<g id="node22" class="node">
<title>Node22</title>
<g id="a_node22"><a xlink:href="exif-utils_8c.html#a400a16b1754150f721e9fca67ad89a52" target="_top" xlink:title="Store an ExifRational value into memory in EXIF format.">
<polygon fill="white" stroke="black" points="234.5,-133.5 234.5,-152.5 332.5,-152.5 332.5,-133.5 234.5,-133.5"/>
<text text-anchor="middle" x="283.5" y="-140.5" font-family="Helvetica,sans-Serif" font-size="10.00">exif_set_rational</text>
</a>
</g>
</g>
<!-- Node2&#45;&gt;Node22 -->
<g id="edge28" class="edge">
<title>Node2&#45;&gt;Node22</title>
<path fill="none" stroke="midnightblue" d="M138.14,-285.41C146.37,-261.77 170.82,-200.21 212,-167 217.09,-162.9 222.91,-159.48 228.98,-156.64"/>
<polygon fill="midnightblue" stroke="midnightblue" points="230.77,-159.69 238.66,-152.63 228.09,-153.22 230.77,-159.69"/>
</g>
<!-- Node25 -->
<g id="node25" class="node">
<title>Node25</title>
<g id="a_node25"><a xlink:href="exif-utils_8c.html#ad905d16e26b4052a1db34dbebdc37341" target="_top" xlink:title="Store an ExifShort value into memory in EXIF format.">
<polygon fill="white" stroke="black" points="240.5,-57.5 240.5,-76.5 326.5,-76.5 326.5,-57.5 240.5,-57.5"/>
<text text-anchor="middle" x="283.5" y="-64.5" font-family="Helvetica,sans-Serif" font-size="10.00">exif_set_short</text>
</a>
</g>
</g>
<!-- Node2&#45;&gt;Node25 -->
<g id="edge31" class="edge">
<title>Node2&#45;&gt;Node25</title>
<path fill="none" stroke="midnightblue" d="M135.79,-285.33C138.95,-253.02 153.51,-147.6 212,-91 217.37,-85.81 223.9,-81.74 230.8,-78.54"/>
<polygon fill="midnightblue" stroke="midnightblue" points="232.38,-81.68 240.36,-74.72 229.77,-75.18 232.38,-81.68"/>
</g>
<!-- Node27 -->
<g id="node27" class="node">
<title>Node27</title>
<g id="a_node27"><a xlink:href="exif-utils_8c.html#aca1790a72b1833dff1b0bf728052c3c5" target="_top" xlink:title="Store an ExifSRational value into memory in EXIF format.">
<polygon fill="white" stroke="black" points="394.5,-95.5 394.5,-114.5 498.5,-114.5 498.5,-95.5 394.5,-95.5"/>
<text text-anchor="middle" x="446.5" y="-102.5" font-family="Helvetica,sans-Serif" font-size="10.00">exif_set_srational</text>
</a>
</g>
</g>
<!-- Node2&#45;&gt;Node27 -->
<g id="edge33" class="edge">
<title>Node2&#45;&gt;Node27</title>
<path fill="none" stroke="midnightblue" d="M136.04,-285.11C139.81,-254.95 155.6,-163.79 212,-124 262.37,-88.46 334.94,-88.34 385.77,-94.16"/>
<polygon fill="midnightblue" stroke="midnightblue" points="385.59,-97.67 395.95,-95.44 386.46,-90.72 385.59,-97.67"/>
</g>
<!-- Node28 -->
<g id="node28" class="node">
<title>Node28</title>
<g id="a_node28"><a xlink:href="exif-tag_8c.html#a82b5a88d44d27d432afb5a1db74268b0" target="_top" xlink:title="Return a textual name of the given tag when found in the given IFD.">
<polygon fill="white" stroke="black" points="212,-19.5 212,-38.5 355,-38.5 355,-19.5 212,-19.5"/>
<text text-anchor="middle" x="283.5" y="-26.5" font-family="Helvetica,sans-Serif" font-size="10.00">exif_tag_get_name_in_ifd</text>
</a>
</g>
</g>
<!-- Node2&#45;&gt;Node28 -->
<g id="edge35" class="edge">
<title>Node2&#45;&gt;Node28</title>
<path fill="none" stroke="midnightblue" d="M134.92,-285.29C135.16,-248.47 141.1,-116.19 212,-48 213.51,-46.55 215.11,-45.21 216.8,-43.97"/>
<polygon fill="midnightblue" stroke="midnightblue" points="219.03,-46.71 225.8,-38.55 215.43,-40.71 219.03,-46.71"/>
</g>
<!-- Node6 -->
<g id="node6" class="node">
<title>Node6</title>
<g id="a_node6"><a xlink:href="exif-entry_8c.html#ad5b86e68c3c96618a946a5c6fcd5f394" target="_top" xlink:title=" ">
<polygon fill="white" stroke="black" points="394.5,-475.5 394.5,-494.5 498.5,-494.5 498.5,-475.5 394.5,-475.5"/>
<text text-anchor="middle" x="446.5" y="-482.5" font-family="Helvetica,sans-Serif" font-size="10.00">exif_data_get_log</text>
</a>
</g>
</g>
<!-- Node5&#45;&gt;Node6 -->
<g id="edge5" class="edge">
<title>Node5&#45;&gt;Node6</title>
<path fill="none" stroke="midnightblue" d="M325.13,-456.59C346.47,-461.63 372.81,-467.84 395.41,-473.18"/>
<polygon fill="midnightblue" stroke="midnightblue" points="394.63,-476.59 405.17,-475.48 396.24,-469.78 394.63,-476.59"/>
</g>
<!-- Node7 -->
<g id="node7" class="node">
<title>Node7</title>
<g id="a_node7"><a xlink:href="exif-mem_8c.html#ae8c09cfbcb95e435c4c4b7ec3bbd79e4" target="_top" xlink:title=" ">
<polygon fill="white" stroke="black" points="399,-437.5 399,-456.5 494,-456.5 494,-437.5 399,-437.5"/>
<text text-anchor="middle" x="446.5" y="-444.5" font-family="Helvetica,sans-Serif" font-size="10.00">exif_mem_alloc</text>
</a>
</g>
</g>
<!-- Node5&#45;&gt;Node7 -->
<g id="edge6" class="edge">
<title>Node5&#45;&gt;Node7</title>
<path fill="none" stroke="midnightblue" d="M331.07,-447C349.01,-447 369.71,-447 388.53,-447"/>
<polygon fill="midnightblue" stroke="midnightblue" points="388.76,-450.5 398.76,-447 388.76,-443.5 388.76,-450.5"/>
</g>
<!-- Node8&#45;&gt;Node6 -->
<g id="edge8" class="edge">
<title>Node8&#45;&gt;Node6</title>
<path fill="none" stroke="midnightblue" d="M326.8,-485C344.33,-485 365.01,-485 384.16,-485"/>
<polygon fill="midnightblue" stroke="midnightblue" points="384.3,-488.5 394.3,-485 384.3,-481.5 384.3,-488.5"/>
</g>
<!-- Node9 -->
<g id="node9" class="node">
<title>Node9</title>
<g id="a_node9"><a xlink:href="exif-log_8c.html#a99101b5ad01b2d82ce9d43c9e8534627" target="_top" xlink:title=" ">
<polygon fill="white" stroke="black" points="415.5,-513.5 415.5,-532.5 477.5,-532.5 477.5,-513.5 415.5,-513.5"/>
<text text-anchor="middle" x="446.5" y="-520.5" font-family="Helvetica,sans-Serif" font-size="10.00">exif_logv</text>
</a>
</g>
</g>
<!-- Node8&#45;&gt;Node9 -->
<g id="edge9" class="edge">
<title>Node8&#45;&gt;Node9</title>
<path fill="none" stroke="midnightblue" d="M325.13,-494.59C349.66,-500.38 380.81,-507.73 405.27,-513.5"/>
<polygon fill="midnightblue" stroke="midnightblue" points="404.77,-516.98 415.31,-515.87 406.38,-510.17 404.77,-516.98"/>
</g>
<!-- Node10&#45;&gt;Node6 -->
<g id="edge11" class="edge">
<title>Node10&#45;&gt;Node6</title>
<path fill="none" stroke="midnightblue" d="M333.71,-418.51C341.13,-420.99 348.47,-424.1 355,-428 374.98,-439.92 371.46,-453.37 391,-466 394.08,-467.99 397.4,-469.81 400.83,-471.45"/>
<polygon fill="midnightblue" stroke="midnightblue" points="399.47,-474.68 410.04,-475.41 402.23,-468.24 399.47,-474.68"/>
</g>
<!-- Node10&#45;&gt;Node11 -->
<g id="edge12" class="edge">
<title>Node10&#45;&gt;Node11</title>
<path fill="none" stroke="midnightblue" d="M325.13,-399.41C346.47,-394.37 372.81,-388.16 395.41,-382.82"/>
<polygon fill="midnightblue" stroke="midnightblue" points="396.24,-386.22 405.17,-380.52 394.63,-379.41 396.24,-386.22"/>
</g>
<!-- Node12 -->
<g id="node12" class="node">
<title>Node12</title>
<g id="a_node12"><a xlink:href="exif-mem_8c.html#a3dcfe6794d82e79e92da5e2c62484b17" target="_top" xlink:title=" ">
<polygon fill="white" stroke="black" points="394.5,-399.5 394.5,-418.5 498.5,-418.5 498.5,-399.5 394.5,-399.5"/>
<text text-anchor="middle" x="446.5" y="-406.5" font-family="Helvetica,sans-Serif" font-size="10.00">exif_mem_realloc</text>
</a>
</g>
</g>
<!-- Node10&#45;&gt;Node12 -->
<g id="edge13" class="edge">
<title>Node10&#45;&gt;Node12</title>
<path fill="none" stroke="midnightblue" d="M335.88,-409C351.21,-409 368.16,-409 384.06,-409"/>
<polygon fill="midnightblue" stroke="midnightblue" points="384.33,-412.5 394.33,-409 384.33,-405.5 384.33,-412.5"/>
</g>
<!-- Node16 -->
<g id="node16" class="node">
<title>Node16</title>
<g id="a_node16"><a xlink:href="exif-utils_8c.html#a4ad94614630897766dd0a5c9bc2a59bf" target="_top" xlink:title="Retrieve an ExifLong value from memory.">
<polygon fill="white" stroke="black" points="405,-209.5 405,-228.5 488,-228.5 488,-209.5 405,-209.5"/>
<text text-anchor="middle" x="446.5" y="-216.5" font-family="Helvetica,sans-Serif" font-size="10.00">exif_get_long</text>
</a>
</g>
</g>
<!-- Node15&#45;&gt;Node16 -->
<g id="edge17" class="edge">
<title>Node15&#45;&gt;Node16</title>
<path fill="none" stroke="midnightblue" d="M333.24,-219C352.62,-219 374.92,-219 394.52,-219"/>
<polygon fill="midnightblue" stroke="midnightblue" points="394.78,-222.5 404.78,-219 394.78,-215.5 394.78,-222.5"/>
</g>
<!-- Node17 -->
<g id="node17" class="node">
<title>Node17</title>
<g id="a_node17"><a xlink:href="exif-utils_8c.html#a56b96f076a13da6ed926e1ef29cb2dc3" target="_top" xlink:title="Retrieve an ExifSLong value from memory.">
<polygon fill="white" stroke="black" points="553.5,-209.5 553.5,-228.5 641.5,-228.5 641.5,-209.5 553.5,-209.5"/>
<text text-anchor="middle" x="597.5" y="-216.5" font-family="Helvetica,sans-Serif" font-size="10.00">exif_get_slong</text>
</a>
</g>
</g>
<!-- Node16&#45;&gt;Node17 -->
<g id="edge18" class="edge">
<title>Node16&#45;&gt;Node17</title>
<path fill="none" stroke="midnightblue" d="M488.21,-219C505.22,-219 525.21,-219 543.35,-219"/>
<polygon fill="midnightblue" stroke="midnightblue" points="543.49,-222.5 553.49,-219 543.49,-215.5 543.49,-222.5"/>
</g>
<!-- Node18&#45;&gt;Node16 -->
<g id="edge20" class="edge">
<title>Node18&#45;&gt;Node16</title>
<path fill="none" stroke="midnightblue" d="M325.13,-247.41C346.47,-242.37 372.81,-236.16 395.41,-230.82"/>
<polygon fill="midnightblue" stroke="midnightblue" points="396.24,-234.22 405.17,-228.52 394.63,-227.41 396.24,-234.22"/>
</g>
<!-- Node18&#45;&gt;Node17 -->
<g id="edge23" class="edge">
<title>Node18&#45;&gt;Node17</title>
<path fill="none" stroke="midnightblue" d="M347.53,-253.36C391.07,-250.38 450.22,-245.44 502,-238 515.86,-236.01 530.76,-233.29 544.54,-230.53"/>
<polygon fill="midnightblue" stroke="midnightblue" points="545.24,-233.96 554.34,-228.52 543.84,-227.1 545.24,-233.96"/>
</g>
<!-- Node19 -->
<g id="node19" class="node">
<title>Node19</title>
<g id="a_node19"><a xlink:href="exif-utils_8c.html#a4b4acf537a8c6b9405e7b53be868e4d7" target="_top" xlink:title="Retrieve an ExifShort value from memory.">
<polygon fill="white" stroke="black" points="403.5,-285.5 403.5,-304.5 489.5,-304.5 489.5,-285.5 403.5,-285.5"/>
<text text-anchor="middle" x="446.5" y="-292.5" font-family="Helvetica,sans-Serif" font-size="10.00">exif_get_short</text>
</a>
</g>
</g>
<!-- Node18&#45;&gt;Node19 -->
<g id="edge21" class="edge">
<title>Node18&#45;&gt;Node19</title>
<path fill="none" stroke="midnightblue" d="M325.13,-266.59C346.47,-271.63 372.81,-277.84 395.41,-283.18"/>
<polygon fill="midnightblue" stroke="midnightblue" points="394.63,-286.59 405.17,-285.48 396.24,-279.78 394.63,-286.59"/>
</g>
<!-- Node20 -->
<g id="node20" class="node">
<title>Node20</title>
<g id="a_node20"><a xlink:href="exif-utils_8c.html#a6baf094a71392f9cea23ad633ec13c8b" target="_top" xlink:title="Retrieve an ExifSShort value from memory.">
<polygon fill="white" stroke="black" points="551.5,-304.5 551.5,-323.5 643.5,-323.5 643.5,-304.5 551.5,-304.5"/>
<text text-anchor="middle" x="597.5" y="-311.5" font-family="Helvetica,sans-Serif" font-size="10.00">exif_get_sshort</text>
</a>
</g>
</g>
<!-- Node18&#45;&gt;Node20 -->
<g id="edge24" class="edge">
<title>Node18&#45;&gt;Node20</title>
<path fill="none" stroke="midnightblue" d="M333.71,-266.51C341.13,-268.99 348.47,-272.1 355,-276 374.98,-287.92 369.63,-304.81 391,-314 439.55,-334.88 500.71,-331.6 543.64,-325.12"/>
<polygon fill="midnightblue" stroke="midnightblue" points="544.29,-328.57 553.6,-323.52 543.17,-321.65 544.29,-328.57"/>
</g>
<!-- Node19&#45;&gt;Node20 -->
<g id="edge22" class="edge">
<title>Node19&#45;&gt;Node20</title>
<path fill="none" stroke="midnightblue" d="M489.8,-300.39C505.76,-302.43 524.16,-304.78 541.14,-306.94"/>
<polygon fill="midnightblue" stroke="midnightblue" points="541.13,-310.47 551.49,-308.26 542.01,-303.52 541.13,-310.47"/>
</g>
<!-- Node21&#45;&gt;Node17 -->
<g id="edge26" class="edge">
<title>Node21&#45;&gt;Node17</title>
<path fill="none" stroke="midnightblue" d="M485.1,-190.59C504.58,-195.56 528.57,-201.68 549.3,-206.96"/>
<polygon fill="midnightblue" stroke="midnightblue" points="548.62,-210.4 559.17,-209.48 550.35,-203.62 548.62,-210.4"/>
</g>
<!-- Node23 -->
<g id="node23" class="node">
<title>Node23</title>
<g id="a_node23"><a xlink:href="exif-utils_8c.html#ac90147d0cc97bec7a577bf9576191bf8" target="_top" xlink:title="Store an ExifLong value into memory in EXIF format.">
<polygon fill="white" stroke="black" points="405.5,-133.5 405.5,-152.5 487.5,-152.5 487.5,-133.5 405.5,-133.5"/>
<text text-anchor="middle" x="446.5" y="-140.5" font-family="Helvetica,sans-Serif" font-size="10.00">exif_set_long</text>
</a>
</g>
</g>
<!-- Node22&#45;&gt;Node23 -->
<g id="edge29" class="edge">
<title>Node22&#45;&gt;Node23</title>
<path fill="none" stroke="midnightblue" d="M332.81,-143C352.52,-143 375.33,-143 395.24,-143"/>
<polygon fill="midnightblue" stroke="midnightblue" points="395.36,-146.5 405.36,-143 395.36,-139.5 395.36,-146.5"/>
</g>
<!-- Node24 -->
<g id="node24" class="node">
<title>Node24</title>
<g id="a_node24"><a xlink:href="exif-utils_8c.html#ae6e3b9d1663f9ab9bd462d73a310ca03" target="_top" xlink:title="Store an ExifSLong value into memory in EXIF format.">
<polygon fill="white" stroke="black" points="554,-114.5 554,-133.5 641,-133.5 641,-114.5 554,-114.5"/>
<text text-anchor="middle" x="597.5" y="-121.5" font-family="Helvetica,sans-Serif" font-size="10.00">exif_set_slong</text>
</a>
</g>
</g>
<!-- Node23&#45;&gt;Node24 -->
<g id="edge30" class="edge">
<title>Node23&#45;&gt;Node24</title>
<path fill="none" stroke="midnightblue" d="M487.82,-137.86C505.06,-135.66 525.41,-133.07 543.81,-130.72"/>
<polygon fill="midnightblue" stroke="midnightblue" points="544.32,-134.18 553.8,-129.44 543.44,-127.24 544.32,-134.18"/>
</g>
<!-- Node26 -->
<g id="node26" class="node">
<title>Node26</title>
<g id="a_node26"><a xlink:href="exif-utils_8c.html#a6504651147702fc6db9a5cd4aa997023" target="_top" xlink:title="Store an ExifSShort value into memory in EXIF format.">
<polygon fill="white" stroke="black" points="401,-57.5 401,-76.5 492,-76.5 492,-57.5 401,-57.5"/>
<text text-anchor="middle" x="446.5" y="-64.5" font-family="Helvetica,sans-Serif" font-size="10.00">exif_set_sshort</text>
</a>
</g>
</g>
<!-- Node25&#45;&gt;Node26 -->
<g id="edge32" class="edge">
<title>Node25&#45;&gt;Node26</title>
<path fill="none" stroke="midnightblue" d="M326.8,-67C346.42,-67 369.97,-67 390.91,-67"/>
<polygon fill="midnightblue" stroke="midnightblue" points="390.95,-70.5 400.95,-67 390.95,-63.5 390.95,-70.5"/>
</g>
<!-- Node27&#45;&gt;Node24 -->
<g id="edge34" class="edge">
<title>Node27&#45;&gt;Node24</title>
<path fill="none" stroke="midnightblue" d="M498.78,-111.54C513.14,-113.37 528.78,-115.36 543.25,-117.21"/>
<polygon fill="midnightblue" stroke="midnightblue" points="543.18,-120.73 553.55,-118.52 544.07,-113.79 543.18,-120.73"/>
</g>
<!-- Node29 -->
<g id="node29" class="node">
<title>Node29</title>
<g id="a_node29"><a xlink:href="exif-tag_8c.html#a389f8ff3411e0525b28367892f1e78d3" target="_top" xlink:title="Finds the first entry in the EXIF tag table with the given tag number using a binary search.">
<polygon fill="white" stroke="black" points="391,-19.5 391,-38.5 502,-38.5 502,-19.5 391,-19.5"/>
<text text-anchor="middle" x="446.5" y="-26.5" font-family="Helvetica,sans-Serif" font-size="10.00">exif_tag_table_first</text>
</a>
</g>
</g>
<!-- Node28&#45;&gt;Node29 -->
<g id="edge36" class="edge">
<title>Node28&#45;&gt;Node29</title>
<path fill="none" stroke="midnightblue" d="M355.12,-29C363.65,-29 372.33,-29 380.77,-29"/>
<polygon fill="midnightblue" stroke="midnightblue" points="380.91,-32.5 390.91,-29 380.91,-25.5 380.91,-32.5"/>
</g>
<!-- Node30 -->
<g id="node30" class="node">
<title>Node30</title>
<g id="a_node30"><a xlink:href="exif-tag_8c.html#a87563ee64809f5f0deb4d780098508c1" target="_top" xlink:title="Return the number of entries in the EXIF tag table, including the terminating NULL entry.">
<polygon fill="white" stroke="black" points="538,-0.5 538,-19.5 657,-19.5 657,-0.5 538,-0.5"/>
<text text-anchor="middle" x="597.5" y="-7.5" font-family="Helvetica,sans-Serif" font-size="10.00">exif_tag_table_count</text>
</a>
</g>
</g>
<!-- Node29&#45;&gt;Node30 -->
<g id="edge37" class="edge">
<title>Node29&#45;&gt;Node30</title>
<path fill="none" stroke="midnightblue" d="M502.14,-22.03C510.49,-20.97 519.21,-19.86 527.82,-18.76"/>
<polygon fill="midnightblue" stroke="midnightblue" points="528.38,-22.21 537.86,-17.48 527.5,-15.27 528.38,-22.21"/>
</g>
<!-- Node31 -->
<g id="node31" class="node">
<title>Node31</title>
<g id="a_node31"><a xlink:href="exif-tag_8c.html#a220c1b18832f113bc84ff9551754915f" target="_top" xlink:title="Compares the tag with that in entry.">
<polygon fill="white" stroke="black" points="563.5,-38.5 563.5,-57.5 631.5,-57.5 631.5,-38.5 563.5,-38.5"/>
<text text-anchor="middle" x="597.5" y="-45.5" font-family="Helvetica,sans-Serif" font-size="10.00">match_tag</text>
</a>
</g>
</g>
<!-- Node29&#45;&gt;Node31 -->
<g id="edge38" class="edge">
<title>Node29&#45;&gt;Node31</title>
<path fill="none" stroke="midnightblue" d="M502.14,-35.97C518.9,-38.1 537.1,-40.43 553.01,-42.45"/>
<polygon fill="midnightblue" stroke="midnightblue" points="552.74,-45.95 563.1,-43.74 553.62,-39 552.74,-45.95"/>
</g>
</g>
</svg>
