<?xml version="1.0" encoding="UTF-8" standalone="no"?>
<!DOCTYPE svg PUBLIC "-//W3C//DTD SVG 1.1//EN"
 "http://www.w3.org/Graphics/SVG/1.1/DTD/svg11.dtd">
<!-- Generated by graphviz version 2.44.1 (0)
 -->
<!-- Title: libexif/exif&#45;gps&#45;ifd.c Pages: 1 -->
<svg width="387pt" height="196pt"
 viewBox="0.00 0.00 386.50 196.00" xmlns="http://www.w3.org/2000/svg" xmlns:xlink="http://www.w3.org/1999/xlink">
<g id="graph0" class="graph" transform="scale(1 1) rotate(0) translate(4 192)">
<title>libexif/exif&#45;gps&#45;ifd.c</title>
<polygon fill="white" stroke="transparent" points="-4,4 -4,-192 382.5,-192 382.5,4 -4,4"/>
<!-- Node1 -->
<g id="node1" class="node">
<title>Node1</title>
<g id="a_node1"><a xlink:title="Info about GPS tags.">
<polygon fill="#bfbfbf" stroke="black" points="28,-168.5 28,-187.5 141,-187.5 141,-168.5 28,-168.5"/>
<text text-anchor="middle" x="84.5" y="-175.5" font-family="Helvetica,sans-Serif" font-size="10.00">libexif/exif&#45;gps&#45;ifd.c</text>
</a>
</g>
</g>
<!-- Node2 -->
<g id="node2" class="node">
<title>Node2</title>
<g id="a_node2"><a xlink:title=" ">
<polygon fill="white" stroke="#bfbfbf" points="13.5,-112.5 13.5,-131.5 69.5,-131.5 69.5,-112.5 13.5,-112.5"/>
<text text-anchor="middle" x="41.5" y="-119.5" font-family="Helvetica,sans-Serif" font-size="10.00">stddef.h</text>
</a>
</g>
</g>
<!-- Node1&#45;&gt;Node2 -->
<g id="edge1" class="edge">
<title>Node1&#45;&gt;Node2</title>
<path fill="none" stroke="midnightblue" d="M77.4,-168.08C71.26,-160.38 62.23,-149.03 54.76,-139.65"/>
<polygon fill="midnightblue" stroke="midnightblue" points="57.44,-137.39 48.47,-131.75 51.96,-141.75 57.44,-137.39"/>
</g>
<!-- Node3 -->
<g id="node3" class="node">
<title>Node3</title>
<g id="a_node3"><a xlink:href="exif-gps-ifd_8h.html" target="_top" xlink:title="Info about GPS tags.">
<polygon fill="white" stroke="black" points="87.5,-112.5 87.5,-131.5 167.5,-131.5 167.5,-112.5 87.5,-112.5"/>
<text text-anchor="middle" x="127.5" y="-119.5" font-family="Helvetica,sans-Serif" font-size="10.00">exif&#45;gps&#45;ifd.h</text>
</a>
</g>
</g>
<!-- Node1&#45;&gt;Node3 -->
<g id="edge2" class="edge">
<title>Node1&#45;&gt;Node3</title>
<path fill="none" stroke="midnightblue" d="M91.6,-168.08C97.74,-160.38 106.77,-149.03 114.24,-139.65"/>
<polygon fill="midnightblue" stroke="midnightblue" points="117.04,-141.75 120.53,-131.75 111.56,-137.39 117.04,-141.75"/>
</g>
<!-- Node4 -->
<g id="node4" class="node">
<title>Node4</title>
<g id="a_node4"><a xlink:title=" ">
<polygon fill="white" stroke="#bfbfbf" points="0,-56.5 0,-75.5 53,-75.5 53,-56.5 0,-56.5"/>
<text text-anchor="middle" x="26.5" y="-63.5" font-family="Helvetica,sans-Serif" font-size="10.00">stdint.h</text>
</a>
</g>
</g>
<!-- Node3&#45;&gt;Node4 -->
<g id="edge3" class="edge">
<title>Node3&#45;&gt;Node4</title>
<path fill="none" stroke="midnightblue" d="M111.27,-112.32C95.15,-103.7 70.2,-90.36 51.54,-80.39"/>
<polygon fill="midnightblue" stroke="midnightblue" points="53.16,-77.28 42.69,-75.65 49.86,-83.46 53.16,-77.28"/>
</g>
<!-- Node5 -->
<g id="node5" class="node">
<title>Node5</title>
<g id="a_node5"><a xlink:href="exif-format_8h.html" target="_top" xlink:title="Handling native EXIF data types.">
<polygon fill="white" stroke="black" points="71,-56.5 71,-75.5 184,-75.5 184,-56.5 71,-56.5"/>
<text text-anchor="middle" x="127.5" y="-63.5" font-family="Helvetica,sans-Serif" font-size="10.00">libexif/exif&#45;format.h</text>
</a>
</g>
</g>
<!-- Node3&#45;&gt;Node5 -->
<g id="edge4" class="edge">
<title>Node3&#45;&gt;Node5</title>
<path fill="none" stroke="midnightblue" d="M127.5,-112.08C127.5,-105.01 127.5,-94.86 127.5,-85.99"/>
<polygon fill="midnightblue" stroke="midnightblue" points="131,-85.75 127.5,-75.75 124,-85.75 131,-85.75"/>
</g>
<!-- Node6 -->
<g id="node6" class="node">
<title>Node6</title>
<g id="a_node6"><a xlink:href="exif-tag_8h.html" target="_top" xlink:title="Handling EXIF tags.">
<polygon fill="white" stroke="black" points="202.5,-56.5 202.5,-75.5 298.5,-75.5 298.5,-56.5 202.5,-56.5"/>
<text text-anchor="middle" x="250.5" y="-63.5" font-family="Helvetica,sans-Serif" font-size="10.00">libexif/exif&#45;tag.h</text>
</a>
</g>
</g>
<!-- Node3&#45;&gt;Node6 -->
<g id="edge5" class="edge">
<title>Node3&#45;&gt;Node6</title>
<path fill="none" stroke="midnightblue" d="M146.99,-112.44C167.14,-103.6 198.82,-89.69 221.83,-79.59"/>
<polygon fill="midnightblue" stroke="midnightblue" points="223.35,-82.74 231.1,-75.52 220.54,-76.33 223.35,-82.74"/>
</g>
<!-- Node7 -->
<g id="node7" class="node">
<title>Node7</title>
<g id="a_node7"><a xlink:href="exif-ifd_8h.html" target="_top" xlink:title=" ">
<polygon fill="white" stroke="black" points="139,-0.5 139,-19.5 232,-19.5 232,-0.5 139,-0.5"/>
<text text-anchor="middle" x="185.5" y="-7.5" font-family="Helvetica,sans-Serif" font-size="10.00">libexif/exif&#45;ifd.h</text>
</a>
</g>
</g>
<!-- Node6&#45;&gt;Node7 -->
<g id="edge6" class="edge">
<title>Node6&#45;&gt;Node7</title>
<path fill="none" stroke="midnightblue" d="M240.06,-56.32C230.35,-48.26 215.68,-36.08 204,-26.37"/>
<polygon fill="midnightblue" stroke="midnightblue" points="206.06,-23.53 196.13,-19.83 201.59,-28.92 206.06,-23.53"/>
</g>
<!-- Node8 -->
<g id="node8" class="node">
<title>Node8</title>
<g id="a_node8"><a xlink:href="exif-data-type_8h.html" target="_top" xlink:title=" ">
<polygon fill="white" stroke="black" points="250.5,-0.5 250.5,-19.5 378.5,-19.5 378.5,-0.5 250.5,-0.5"/>
<text text-anchor="middle" x="314.5" y="-7.5" font-family="Helvetica,sans-Serif" font-size="10.00">libexif/exif&#45;data&#45;type.h</text>
</a>
</g>
</g>
<!-- Node6&#45;&gt;Node8 -->
<g id="edge7" class="edge">
<title>Node6&#45;&gt;Node8</title>
<path fill="none" stroke="midnightblue" d="M260.78,-56.32C270.34,-48.26 284.78,-36.08 296.28,-26.37"/>
<polygon fill="midnightblue" stroke="midnightblue" points="298.64,-28.96 304.03,-19.83 294.13,-23.61 298.64,-28.96"/>
</g>
</g>
</svg>
