<?xml version="1.0" encoding="UTF-8" standalone="no"?>
<!DOCTYPE svg PUBLIC "-//W3C//DTD SVG 1.1//EN"
 "http://www.w3.org/Graphics/SVG/1.1/DTD/svg11.dtd">
<!-- Generated by graphviz version 2.44.1 (0)
 -->
<!-- Title: libexif/exif&#45;entry.h Pages: 1 -->
<svg width="680pt" height="431pt"
 viewBox="0.00 0.00 680.00 431.00" xmlns="http://www.w3.org/2000/svg" xmlns:xlink="http://www.w3.org/1999/xlink">
<g id="graph0" class="graph" transform="scale(1 1) rotate(0) translate(4 427)">
<title>libexif/exif&#45;entry.h</title>
<polygon fill="white" stroke="transparent" points="-4,4 -4,-427 676,-427 676,4 -4,4"/>
<!-- Node1 -->
<g id="node1" class="node">
<title>Node1</title>
<g id="a_node1"><a xlink:title="Handling EXIF entries.">
<polygon fill="#bfbfbf" stroke="black" points="483.5,-403.5 483.5,-422.5 587.5,-422.5 587.5,-403.5 483.5,-403.5"/>
<text text-anchor="middle" x="535.5" y="-410.5" font-family="Helvetica,sans-Serif" font-size="10.00">libexif/exif&#45;entry.h</text>
</a>
</g>
</g>
<!-- Node2 -->
<g id="node2" class="node">
<title>Node2</title>
<g id="a_node2"><a xlink:href="exif-content_8h.html" target="_top" xlink:title="Handling EXIF IFDs.">
<polygon fill="white" stroke="black" points="434,-347.5 434,-366.5 551,-366.5 551,-347.5 434,-347.5"/>
<text text-anchor="middle" x="492.5" y="-354.5" font-family="Helvetica,sans-Serif" font-size="10.00">libexif/exif&#45;content.h</text>
</a>
</g>
</g>
<!-- Node1&#45;&gt;Node2 -->
<g id="edge1" class="edge">
<title>Node1&#45;&gt;Node2</title>
<path fill="none" stroke="midnightblue" d="M523.23,-403.08C515.63,-395.53 506.45,-384.49 499.88,-375.23"/>
<polygon fill="midnightblue" stroke="midnightblue" points="502.74,-373.21 494.34,-366.75 496.88,-377.04 502.74,-373.21"/>
</g>
<!-- Node9 -->
<g id="node9" class="node">
<title>Node9</title>
<g id="a_node9"><a xlink:href="exif-mem_8h.html" target="_top" xlink:title="Define the ExifMem data type and the associated functions.">
<polygon fill="white" stroke="black" points="435.5,-112.5 435.5,-131.5 541.5,-131.5 541.5,-112.5 435.5,-112.5"/>
<text text-anchor="middle" x="488.5" y="-119.5" font-family="Helvetica,sans-Serif" font-size="10.00">libexif/exif&#45;mem.h</text>
</a>
</g>
</g>
<!-- Node1&#45;&gt;Node9 -->
<g id="edge25" class="edge">
<title>Node1&#45;&gt;Node9</title>
<path fill="none" stroke="midnightblue" d="M541.62,-403.35C553.71,-385.38 579.5,-342.31 579.5,-302 579.5,-302 579.5,-302 579.5,-238.5 579.5,-194.23 537.75,-156.94 510.81,-137.49"/>
<polygon fill="midnightblue" stroke="midnightblue" points="512.53,-134.42 502.32,-131.59 508.54,-140.17 512.53,-134.42"/>
</g>
<!-- Node11 -->
<g id="node11" class="node">
<title>Node11</title>
<g id="a_node11"><a xlink:href="exif-format_8h.html" target="_top" xlink:title="Handling native EXIF data types.">
<polygon fill="white" stroke="black" points="559,-0.5 559,-19.5 672,-19.5 672,-0.5 559,-0.5"/>
<text text-anchor="middle" x="615.5" y="-7.5" font-family="Helvetica,sans-Serif" font-size="10.00">libexif/exif&#45;format.h</text>
</a>
</g>
</g>
<!-- Node1&#45;&gt;Node11 -->
<g id="edge24" class="edge">
<title>Node1&#45;&gt;Node11</title>
<path fill="none" stroke="midnightblue" d="M548.31,-403.39C571.38,-386.74 617.5,-347.73 617.5,-302 617.5,-302 617.5,-302 617.5,-121 617.5,-88.94 616.64,-51.64 616.05,-29.75"/>
<polygon fill="midnightblue" stroke="midnightblue" points="619.54,-29.45 615.76,-19.56 612.54,-29.65 619.54,-29.45"/>
</g>
<!-- Node2&#45;&gt;Node1 -->
<g id="edge5" class="edge">
<title>Node2&#45;&gt;Node1</title>
<path fill="none" stroke="midnightblue" d="M504.6,-366.75C512.18,-374.25 521.37,-385.27 527.98,-394.57"/>
<polygon fill="midnightblue" stroke="midnightblue" points="525.15,-396.64 533.57,-403.08 531,-392.8 525.15,-396.64"/>
</g>
<!-- Node3 -->
<g id="node3" class="node">
<title>Node3</title>
<g id="a_node3"><a xlink:href="exif-tag_8h.html" target="_top" xlink:title="Handling EXIF tags.">
<polygon fill="white" stroke="black" points="67.5,-230 67.5,-249 163.5,-249 163.5,-230 67.5,-230"/>
<text text-anchor="middle" x="115.5" y="-237" font-family="Helvetica,sans-Serif" font-size="10.00">libexif/exif&#45;tag.h</text>
</a>
</g>
</g>
<!-- Node2&#45;&gt;Node3 -->
<g id="edge2" class="edge">
<title>Node2&#45;&gt;Node3</title>
<path fill="none" stroke="midnightblue" d="M433.77,-350.59C382.86,-344.67 307.79,-332.93 245.5,-311 204.91,-296.71 161.75,-270.92 136.78,-254.8"/>
<polygon fill="midnightblue" stroke="midnightblue" points="138.43,-251.7 128.15,-249.15 134.6,-257.55 138.43,-251.7"/>
</g>
<!-- Node6 -->
<g id="node6" class="node">
<title>Node6</title>
<g id="a_node6"><a xlink:href="exif-data_8h.html" target="_top" xlink:title="Defines the ExifData type and the associated functions.">
<polygon fill="white" stroke="black" points="254.5,-291.5 254.5,-310.5 356.5,-310.5 356.5,-291.5 254.5,-291.5"/>
<text text-anchor="middle" x="305.5" y="-298.5" font-family="Helvetica,sans-Serif" font-size="10.00">libexif/exif&#45;data.h</text>
</a>
</g>
</g>
<!-- Node2&#45;&gt;Node6 -->
<g id="edge6" class="edge">
<title>Node2&#45;&gt;Node6</title>
<path fill="none" stroke="midnightblue" d="M457.78,-347.44C424.04,-338.28 373.32,-323.69 339.74,-313.52"/>
<polygon fill="midnightblue" stroke="midnightblue" points="340.5,-310.09 329.91,-310.52 338.45,-316.78 340.5,-310.09"/>
</g>
<!-- Node8 -->
<g id="node8" class="node">
<title>Node8</title>
<g id="a_node8"><a xlink:href="exif-log_8h.html" target="_top" xlink:title="Log message infrastructure.">
<polygon fill="white" stroke="black" points="340,-168.5 340,-187.5 435,-187.5 435,-168.5 340,-168.5"/>
<text text-anchor="middle" x="387.5" y="-175.5" font-family="Helvetica,sans-Serif" font-size="10.00">libexif/exif&#45;log.h</text>
</a>
</g>
</g>
<!-- Node2&#45;&gt;Node8 -->
<g id="edge22" class="edge">
<title>Node2&#45;&gt;Node8</title>
<path fill="none" stroke="midnightblue" d="M491.28,-347.49C487.75,-325.28 475.84,-264.48 446.5,-224 437.4,-211.45 423.82,-200.76 411.98,-192.95"/>
<polygon fill="midnightblue" stroke="midnightblue" points="413.71,-189.89 403.37,-187.55 409.99,-195.83 413.71,-189.89"/>
</g>
<!-- Node2&#45;&gt;Node9 -->
<g id="edge23" class="edge">
<title>Node2&#45;&gt;Node9</title>
<path fill="none" stroke="midnightblue" d="M493.35,-347.36C495.85,-320.63 502.58,-236.94 496.5,-168 495.72,-159.2 494.11,-149.54 492.53,-141.43"/>
<polygon fill="midnightblue" stroke="midnightblue" points="495.94,-140.65 490.49,-131.57 489.09,-142.07 495.94,-140.65"/>
</g>
<!-- Node4 -->
<g id="node4" class="node">
<title>Node4</title>
<g id="a_node4"><a xlink:href="exif-ifd_8h.html" target="_top" xlink:title=" ">
<polygon fill="white" stroke="black" points="0,-168.5 0,-187.5 93,-187.5 93,-168.5 0,-168.5"/>
<text text-anchor="middle" x="46.5" y="-175.5" font-family="Helvetica,sans-Serif" font-size="10.00">libexif/exif&#45;ifd.h</text>
</a>
</g>
</g>
<!-- Node3&#45;&gt;Node4 -->
<g id="edge3" class="edge">
<title>Node3&#45;&gt;Node4</title>
<path fill="none" stroke="midnightblue" d="M105.61,-229.98C94.85,-220.7 77.43,-205.67 64.28,-194.33"/>
<polygon fill="midnightblue" stroke="midnightblue" points="66.23,-191.39 56.37,-187.51 61.66,-196.69 66.23,-191.39"/>
</g>
<!-- Node5 -->
<g id="node5" class="node">
<title>Node5</title>
<g id="a_node5"><a xlink:href="exif-data-type_8h.html" target="_top" xlink:title=" ">
<polygon fill="white" stroke="black" points="111.5,-168.5 111.5,-187.5 239.5,-187.5 239.5,-168.5 111.5,-168.5"/>
<text text-anchor="middle" x="175.5" y="-175.5" font-family="Helvetica,sans-Serif" font-size="10.00">libexif/exif&#45;data&#45;type.h</text>
</a>
</g>
</g>
<!-- Node3&#45;&gt;Node5 -->
<g id="edge4" class="edge">
<title>Node3&#45;&gt;Node5</title>
<path fill="none" stroke="midnightblue" d="M124.1,-229.98C133.36,-220.78 148.32,-205.96 159.71,-194.66"/>
<polygon fill="midnightblue" stroke="midnightblue" points="162.28,-197.04 166.92,-187.51 157.35,-192.07 162.28,-197.04"/>
</g>
<!-- Node6&#45;&gt;Node2 -->
<g id="edge18" class="edge">
<title>Node6&#45;&gt;Node2</title>
<path fill="none" stroke="midnightblue" d="M340.07,-310.52C373.77,-319.66 424.48,-334.26 458.11,-344.44"/>
<polygon fill="midnightblue" stroke="midnightblue" points="457.37,-347.87 467.96,-347.44 459.42,-341.18 457.37,-347.87"/>
</g>
<!-- Node6&#45;&gt;Node3 -->
<g id="edge17" class="edge">
<title>Node6&#45;&gt;Node3</title>
<path fill="none" stroke="midnightblue" d="M278.28,-291.48C245.26,-281.14 189.46,-263.66 152.55,-252.1"/>
<polygon fill="midnightblue" stroke="midnightblue" points="153.26,-248.66 142.67,-249.01 151.17,-255.34 153.26,-248.66"/>
</g>
<!-- Node6&#45;&gt;Node4 -->
<g id="edge9" class="edge">
<title>Node6&#45;&gt;Node4</title>
<path fill="none" stroke="midnightblue" d="M286.92,-291.37C268.85,-282.78 240.78,-268.89 217.5,-255 196.64,-242.56 194.12,-235.07 172.5,-224 145.03,-209.94 112.13,-198.35 86.84,-190.46"/>
<polygon fill="midnightblue" stroke="midnightblue" points="87.79,-187.09 77.2,-187.51 85.75,-193.78 87.79,-187.09"/>
</g>
<!-- Node6&#45;&gt;Node5 -->
<g id="edge8" class="edge">
<title>Node6&#45;&gt;Node5</title>
<path fill="none" stroke="midnightblue" d="M294.98,-291.21C284.36,-282.27 267.57,-267.92 253.5,-255 231.44,-234.74 206.82,-210.46 191.25,-194.89"/>
<polygon fill="midnightblue" stroke="midnightblue" points="193.53,-192.22 184,-187.6 188.58,-197.16 193.53,-192.22"/>
</g>
<!-- Node7 -->
<g id="node7" class="node">
<title>Node7</title>
<g id="a_node7"><a xlink:href="exif-byte-order_8h.html" target="_top" xlink:title="Defines the ExifByteOrder enum and the associated functions.">
<polygon fill="white" stroke="black" points="244,-0.5 244,-19.5 375,-19.5 375,-0.5 244,-0.5"/>
<text text-anchor="middle" x="309.5" y="-7.5" font-family="Helvetica,sans-Serif" font-size="10.00">libexif/exif&#45;byte&#45;order.h</text>
</a>
</g>
</g>
<!-- Node6&#45;&gt;Node7 -->
<g id="edge7" class="edge">
<title>Node6&#45;&gt;Node7</title>
<path fill="none" stroke="midnightblue" d="M300.84,-291.48C290.69,-272.12 267.5,-223.04 267.5,-179 267.5,-179 267.5,-179 267.5,-121 267.5,-86.41 285.85,-49.49 298.29,-28.43"/>
<polygon fill="midnightblue" stroke="midnightblue" points="301.41,-30.04 303.66,-19.69 295.44,-26.38 301.41,-30.04"/>
</g>
<!-- Node6&#45;&gt;Node8 -->
<g id="edge10" class="edge">
<title>Node6&#45;&gt;Node8</title>
<path fill="none" stroke="midnightblue" d="M305.92,-291.24C307.02,-276.23 311.01,-245.17 325.5,-224 334.45,-210.93 348.49,-200.28 360.95,-192.63"/>
<polygon fill="midnightblue" stroke="midnightblue" points="362.74,-195.63 369.64,-187.6 359.23,-189.58 362.74,-195.63"/>
</g>
<!-- Node6&#45;&gt;Node9 -->
<g id="edge21" class="edge">
<title>Node6&#45;&gt;Node9</title>
<path fill="none" stroke="midnightblue" d="M356.5,-295.32C386.34,-290.04 422.71,-278.81 446.5,-255 477.42,-224.05 485.61,-170.42 487.75,-141.98"/>
<polygon fill="midnightblue" stroke="midnightblue" points="491.26,-141.97 488.34,-131.79 484.27,-141.57 491.26,-141.97"/>
</g>
<!-- Node14 -->
<g id="node14" class="node">
<title>Node14</title>
<g id="a_node14"><a xlink:href="exif-mnote-data_8h.html" target="_top" xlink:title="Handling EXIF MakerNote tags.">
<polygon fill="white" stroke="black" points="334,-224.5 334,-254.5 437,-254.5 437,-224.5 334,-224.5"/>
<text text-anchor="start" x="342" y="-242.5" font-family="Helvetica,sans-Serif" font-size="10.00">libexif/exif&#45;mnote</text>
<text text-anchor="middle" x="385.5" y="-231.5" font-family="Helvetica,sans-Serif" font-size="10.00">&#45;data.h</text>
</a>
</g>
</g>
<!-- Node6&#45;&gt;Node14 -->
<g id="edge19" class="edge">
<title>Node6&#45;&gt;Node14</title>
<path fill="none" stroke="midnightblue" d="M316.96,-291.48C327.7,-283.49 344.15,-271.25 358.25,-260.77"/>
<polygon fill="midnightblue" stroke="midnightblue" points="360.71,-263.3 366.65,-254.52 356.53,-257.68 360.71,-263.3"/>
</g>
<!-- Node8&#45;&gt;Node9 -->
<g id="edge11" class="edge">
<title>Node8&#45;&gt;Node9</title>
<path fill="none" stroke="midnightblue" d="M403.73,-168.32C419.85,-159.7 444.8,-146.36 463.46,-136.39"/>
<polygon fill="midnightblue" stroke="midnightblue" points="465.14,-139.46 472.31,-131.65 461.84,-133.28 465.14,-139.46"/>
</g>
<!-- Node13 -->
<g id="node13" class="node">
<title>Node13</title>
<g id="a_node13"><a xlink:title=" ">
<polygon fill="white" stroke="#bfbfbf" points="359.5,-112.5 359.5,-131.5 415.5,-131.5 415.5,-112.5 359.5,-112.5"/>
<text text-anchor="middle" x="387.5" y="-119.5" font-family="Helvetica,sans-Serif" font-size="10.00">stdarg.h</text>
</a>
</g>
</g>
<!-- Node8&#45;&gt;Node13 -->
<g id="edge16" class="edge">
<title>Node8&#45;&gt;Node13</title>
<path fill="none" stroke="midnightblue" d="M387.5,-168.08C387.5,-161.01 387.5,-150.86 387.5,-141.99"/>
<polygon fill="midnightblue" stroke="midnightblue" points="391,-141.75 387.5,-131.75 384,-141.75 391,-141.75"/>
</g>
<!-- Node10 -->
<g id="node10" class="node">
<title>Node10</title>
<g id="a_node10"><a xlink:href="exif-utils_8h.html" target="_top" xlink:title="EXIF data manipulation functions and types.">
<polygon fill="white" stroke="black" points="438,-56.5 438,-75.5 539,-75.5 539,-56.5 438,-56.5"/>
<text text-anchor="middle" x="488.5" y="-63.5" font-family="Helvetica,sans-Serif" font-size="10.00">libexif/exif&#45;utils.h</text>
</a>
</g>
</g>
<!-- Node9&#45;&gt;Node10 -->
<g id="edge12" class="edge">
<title>Node9&#45;&gt;Node10</title>
<path fill="none" stroke="midnightblue" d="M488.5,-112.08C488.5,-105.01 488.5,-94.86 488.5,-85.99"/>
<polygon fill="midnightblue" stroke="midnightblue" points="492,-85.75 488.5,-75.75 485,-85.75 492,-85.75"/>
</g>
<!-- Node10&#45;&gt;Node7 -->
<g id="edge13" class="edge">
<title>Node10&#45;&gt;Node7</title>
<path fill="none" stroke="midnightblue" d="M460.14,-56.44C429.76,-47.28 381.39,-32.69 347.68,-22.52"/>
<polygon fill="midnightblue" stroke="midnightblue" points="348.32,-19.05 337.73,-19.52 346.29,-25.76 348.32,-19.05"/>
</g>
<!-- Node10&#45;&gt;Node11 -->
<g id="edge14" class="edge">
<title>Node10&#45;&gt;Node11</title>
<path fill="none" stroke="midnightblue" d="M508.62,-56.44C529.52,-47.56 562.43,-33.56 586.22,-23.45"/>
<polygon fill="midnightblue" stroke="midnightblue" points="587.64,-26.65 595.47,-19.52 584.9,-20.21 587.64,-26.65"/>
</g>
<!-- Node12 -->
<g id="node12" class="node">
<title>Node12</title>
<g id="a_node12"><a xlink:title=" ">
<polygon fill="white" stroke="#bfbfbf" points="442.5,-0.5 442.5,-19.5 534.5,-19.5 534.5,-0.5 442.5,-0.5"/>
<text text-anchor="middle" x="488.5" y="-7.5" font-family="Helvetica,sans-Serif" font-size="10.00">libexif/_stdint.h</text>
</a>
</g>
</g>
<!-- Node10&#45;&gt;Node12 -->
<g id="edge15" class="edge">
<title>Node10&#45;&gt;Node12</title>
<path fill="none" stroke="midnightblue" d="M488.5,-56.08C488.5,-49.01 488.5,-38.86 488.5,-29.99"/>
<polygon fill="midnightblue" stroke="midnightblue" points="492,-29.75 488.5,-19.75 485,-29.75 492,-29.75"/>
</g>
<!-- Node14&#45;&gt;Node8 -->
<g id="edge20" class="edge">
<title>Node14&#45;&gt;Node8</title>
<path fill="none" stroke="midnightblue" d="M385.97,-224.4C386.24,-216.47 386.58,-206.46 386.87,-197.86"/>
<polygon fill="midnightblue" stroke="midnightblue" points="390.37,-197.77 387.21,-187.66 383.37,-197.53 390.37,-197.77"/>
</g>
</g>
</svg>
