<?xml version="1.0" encoding="UTF-8" standalone="no"?>
<!DOCTYPE svg PUBLIC "-//W3C//DTD SVG 1.1//EN"
 "http://www.w3.org/Graphics/SVG/1.1/DTD/svg11.dtd">
<!-- Generated by graphviz version 7.0.1 (0)
 -->
<!-- Title: exif_loader_new Pages: 1 -->
<svg width="439pt" height="249pt"
 viewBox="0.00 0.00 439.00 249.00" xmlns="http://www.w3.org/2000/svg" xmlns:xlink="http://www.w3.org/1999/xlink">
<g id="graph0" class="graph" transform="scale(1 1) rotate(0) translate(4 245)">
<title>exif_loader_new</title>
<!-- Node1 -->
<g id="Node000001" class="node">
<title>Node1</title>
<g id="a_Node000001"><a xlink:title="Allocate a new ExifLoader.">
<polygon fill="#999999" stroke="#666666" points="97,-112 0,-112 0,-93 97,-93 97,-112"/>
<text text-anchor="middle" x="48.5" y="-100" font-family="Helvetica,sans-Serif" font-size="10.00">exif_loader_new</text>
</a>
</g>
</g>
<!-- Node2 -->
<g id="Node000002" class="node">
<title>Node2</title>
<g id="a_Node000002"><a xlink:href="exif-loader_8c.html#a96529c4ed68a4b7085f179f8bc96829d" target="_top" xlink:title="Allocate a new ExifLoader using the specified memory allocator.">
<polygon fill="white" stroke="#666666" points="262.5,-204 134.5,-204 134.5,-185 262.5,-185 262.5,-204"/>
<text text-anchor="middle" x="198.5" y="-192" font-family="Helvetica,sans-Serif" font-size="10.00">exif_loader_new_mem</text>
</a>
</g>
</g>
<!-- Node1&#45;&gt;Node2 -->
<g id="edge1_Node000001_Node000002" class="edge">
<title>Node1&#45;&gt;Node2</title>
<g id="a_edge1_Node000001_Node000002"><a xlink:title=" ">
<path fill="none" stroke="#63b8ff" d="M65.34,-112.35C90.93,-128.25 141.6,-159.75 172.22,-178.79"/>
<polygon fill="#63b8ff" stroke="#63b8ff" points="170.15,-181.62 180.49,-183.93 173.84,-175.67 170.15,-181.62"/>
</a>
</g>
</g>
<!-- Node5 -->
<g id="Node000005" class="node">
<title>Node5</title>
<g id="a_Node000005"><a xlink:href="exif-mem_8c.html#acc8fd4e1a319a790581975db6f1a7233" target="_top" xlink:title="Create a new ExifMem with default values for your convenience.">
<polygon fill="white" stroke="#666666" points="264,-112 133,-112 133,-93 264,-93 264,-112"/>
<text text-anchor="middle" x="198.5" y="-100" font-family="Helvetica,sans-Serif" font-size="10.00">exif_mem_new_default</text>
</a>
</g>
</g>
<!-- Node1&#45;&gt;Node5 -->
<g id="edge4_Node000001_Node000005" class="edge">
<title>Node1&#45;&gt;Node5</title>
<g id="a_edge4_Node000001_Node000005"><a xlink:title=" ">
<path fill="none" stroke="#63b8ff" d="M97.14,-102.5C104.93,-102.5 113.16,-102.5 121.43,-102.5"/>
<polygon fill="#63b8ff" stroke="#63b8ff" points="121.17,-106 131.17,-102.5 121.17,-99 121.17,-106"/>
</a>
</g>
</g>
<!-- Node10 -->
<g id="Node000010" class="node">
<title>Node10</title>
<g id="a_Node000010"><a xlink:href="exif-mem_8c.html#a66744e0987af08c443df247ce55f7d87" target="_top" xlink:title="Unrefcount an ExifMem.">
<polygon fill="white" stroke="#666666" points="247,-38 150,-38 150,-19 247,-19 247,-38"/>
<text text-anchor="middle" x="198.5" y="-26" font-family="Helvetica,sans-Serif" font-size="10.00">exif_mem_unref</text>
</a>
</g>
</g>
<!-- Node1&#45;&gt;Node10 -->
<g id="edge9_Node000001_Node000010" class="edge">
<title>Node1&#45;&gt;Node10</title>
<g id="a_edge9_Node000001_Node000010"><a xlink:title=" ">
<path fill="none" stroke="#63b8ff" d="M69.46,-92.52C94.76,-79.87 138.58,-57.96 167.81,-43.34"/>
<polygon fill="#63b8ff" stroke="#63b8ff" points="169.12,-46.6 176.5,-39 165.99,-40.34 169.12,-46.6"/>
</a>
</g>
</g>
<!-- Node3 -->
<g id="Node000003" class="node">
<title>Node3</title>
<g id="a_Node000003"><a xlink:href="exif-mem_8c.html#a68be7c7afc8cff75adc3b1a28b5ae9a2" target="_top" xlink:title=" ">
<polygon fill="white" stroke="#666666" points="413,-241 318,-241 318,-222 413,-222 413,-241"/>
<text text-anchor="middle" x="365.5" y="-229" font-family="Helvetica,sans-Serif" font-size="10.00">exif_mem_alloc</text>
</a>
</g>
</g>
<!-- Node2&#45;&gt;Node3 -->
<g id="edge2_Node000002_Node000003" class="edge">
<title>Node2&#45;&gt;Node3</title>
<g id="a_edge2_Node000002_Node000003"><a xlink:title=" ">
<path fill="none" stroke="#63b8ff" d="M243.72,-204.42C263.78,-208.92 287.73,-214.29 309,-219.05"/>
<polygon fill="#63b8ff" stroke="#63b8ff" points="308.16,-222.45 318.68,-221.23 309.69,-215.62 308.16,-222.45"/>
</a>
</g>
</g>
<!-- Node4 -->
<g id="Node000004" class="node">
<title>Node4</title>
<g id="a_Node000004"><a xlink:href="exif-mem_8c.html#af28c61972f529be46907956e0b3e7a60" target="_top" xlink:title="Refcount an ExifMem.">
<polygon fill="white" stroke="#666666" points="408,-204 323,-204 323,-185 408,-185 408,-204"/>
<text text-anchor="middle" x="365.5" y="-192" font-family="Helvetica,sans-Serif" font-size="10.00">exif_mem_ref</text>
</a>
</g>
</g>
<!-- Node2&#45;&gt;Node4 -->
<g id="edge3_Node000002_Node000004" class="edge">
<title>Node2&#45;&gt;Node4</title>
<g id="a_edge3_Node000002_Node000004"><a xlink:title=" ">
<path fill="none" stroke="#63b8ff" d="M262.82,-194.5C278.75,-194.5 295.7,-194.5 311.09,-194.5"/>
<polygon fill="#63b8ff" stroke="#63b8ff" points="311,-198 321,-194.5 311,-191 311,-198"/>
</a>
</g>
</g>
<!-- Node6 -->
<g id="Node000006" class="node">
<title>Node6</title>
<g id="a_Node000006"><a xlink:href="exif-mem_8c.html#a9d47487760e137ed23df5e1e79b3d3cd" target="_top" xlink:title="Default memory allocation function.">
<polygon fill="white" stroke="#666666" points="426,-167 305,-167 305,-148 426,-148 426,-167"/>
<text text-anchor="middle" x="365.5" y="-155" font-family="Helvetica,sans-Serif" font-size="10.00">exif_mem_alloc_func</text>
</a>
</g>
</g>
<!-- Node5&#45;&gt;Node6 -->
<g id="edge5_Node000005_Node000006" class="edge">
<title>Node5&#45;&gt;Node6</title>
<g id="a_edge5_Node000005_Node000006"><a xlink:title=" ">
<path fill="none" stroke="#63b8ff" d="M224.5,-112.34C244.71,-120.15 273.99,-131.1 300,-139.5 305.12,-141.16 310.5,-142.8 315.88,-144.39"/>
<polygon fill="#63b8ff" stroke="#63b8ff" points="314.8,-147.72 325.38,-147.12 316.73,-140.99 314.8,-147.72"/>
</a>
</g>
</g>
<!-- Node7 -->
<g id="Node000007" class="node">
<title>Node7</title>
<g id="a_Node000007"><a xlink:href="exif-mem_8c.html#a30e654456ffed5baaf5a23f1d8817aa6" target="_top" xlink:title="Default memory free function.">
<polygon fill="white" stroke="#666666" points="424,-130 307,-130 307,-111 424,-111 424,-130"/>
<text text-anchor="middle" x="365.5" y="-118" font-family="Helvetica,sans-Serif" font-size="10.00">exif_mem_free_func</text>
</a>
</g>
</g>
<!-- Node5&#45;&gt;Node7 -->
<g id="edge6_Node000005_Node000007" class="edge">
<title>Node5&#45;&gt;Node7</title>
<g id="a_edge6_Node000005_Node000007"><a xlink:title=" ">
<path fill="none" stroke="#63b8ff" d="M264.24,-109.56C274.41,-110.67 284.95,-111.82 295.22,-112.94"/>
<polygon fill="#63b8ff" stroke="#63b8ff" points="294.83,-116.42 305.15,-114.03 295.59,-109.46 294.83,-116.42"/>
</a>
</g>
</g>
<!-- Node8 -->
<g id="Node000008" class="node">
<title>Node8</title>
<g id="a_Node000008"><a xlink:href="exif-mem_8c.html#a7c75dbf49ec65be9e1aa5b79d79c7ea6" target="_top" xlink:title="Create a new ExifMem.">
<polygon fill="white" stroke="#666666" points="411.5,-93 319.5,-93 319.5,-74 411.5,-74 411.5,-93"/>
<text text-anchor="middle" x="365.5" y="-81" font-family="Helvetica,sans-Serif" font-size="10.00">exif_mem_new</text>
</a>
</g>
</g>
<!-- Node5&#45;&gt;Node8 -->
<g id="edge7_Node000005_Node000008" class="edge">
<title>Node5&#45;&gt;Node8</title>
<g id="a_edge7_Node000005_Node000008"><a xlink:title=" ">
<path fill="none" stroke="#63b8ff" d="M264.24,-95.05C278.7,-93.38 293.93,-91.63 308.02,-90"/>
<polygon fill="#63b8ff" stroke="#63b8ff" points="308.01,-93.53 317.55,-88.91 307.21,-86.57 308.01,-93.53"/>
</a>
</g>
</g>
<!-- Node9 -->
<g id="Node000009" class="node">
<title>Node9</title>
<g id="a_Node000009"><a xlink:href="exif-mem_8c.html#a92c900883df8fe466c158d00153404fe" target="_top" xlink:title="Default memory reallocation function.">
<polygon fill="white" stroke="#666666" points="431,-56 300,-56 300,-37 431,-37 431,-56"/>
<text text-anchor="middle" x="365.5" y="-44" font-family="Helvetica,sans-Serif" font-size="10.00">exif_mem_realloc_func</text>
</a>
</g>
</g>
<!-- Node5&#45;&gt;Node9 -->
<g id="edge8_Node000005_Node000009" class="edge">
<title>Node5&#45;&gt;Node9</title>
<g id="a_edge8_Node000005_Node000009"><a xlink:title=" ">
<path fill="none" stroke="#63b8ff" d="M224.95,-92.6C245.16,-84.86 274.23,-74.03 300,-65.5 305.89,-63.55 312.11,-61.59 318.27,-59.71"/>
<polygon fill="#63b8ff" stroke="#63b8ff" points="319.19,-63.09 327.77,-56.87 317.19,-56.39 319.19,-63.09"/>
</a>
</g>
</g>
<!-- Node11 -->
<g id="Node000011" class="node">
<title>Node11</title>
<g id="a_Node000011"><a xlink:href="exif-mem_8c.html#a43190b81b4b4bdb4ffb89bfb612051b1" target="_top" xlink:title=" ">
<polygon fill="white" stroke="#666666" points="411,-19 320,-19 320,0 411,0 411,-19"/>
<text text-anchor="middle" x="365.5" y="-7" font-family="Helvetica,sans-Serif" font-size="10.00">exif_mem_free</text>
</a>
</g>
</g>
<!-- Node10&#45;&gt;Node11 -->
<g id="edge10_Node000010_Node000011" class="edge">
<title>Node10&#45;&gt;Node11</title>
<g id="a_edge10_Node000010_Node000011"><a xlink:title=" ">
<path fill="none" stroke="#63b8ff" d="M247.22,-23C266.32,-20.81 288.46,-18.26 308.32,-15.97"/>
<polygon fill="#63b8ff" stroke="#63b8ff" points="308.68,-19.45 318.21,-14.83 307.87,-12.5 308.68,-19.45"/>
</a>
</g>
</g>
</g>
</svg>
