<?xml version="1.0" encoding="UTF-8" standalone="no"?>
<!DOCTYPE svg PUBLIC "-//W3C//DTD SVG 1.1//EN"
 "http://www.w3.org/Graphics/SVG/1.1/DTD/svg11.dtd">
<!-- Generated by graphviz version 7.0.1 (0)
 -->
<!-- Title: exif_mnote_data_olympus_free Pages: 1 -->
<svg width="488pt" height="38pt"
 viewBox="0.00 0.00 488.00 38.00" xmlns="http://www.w3.org/2000/svg" xmlns:xlink="http://www.w3.org/1999/xlink">
<g id="graph0" class="graph" transform="scale(1 1) rotate(0) translate(4 34)">
<title>exif_mnote_data_olympus_free</title>
<!-- Node1 -->
<g id="Node000001" class="node">
<title>Node1</title>
<g id="a_Node000001"><a xlink:title=" ">
<polygon fill="#999999" stroke="#666666" points="171,-24.5 0,-24.5 0,-5.5 171,-5.5 171,-24.5"/>
<text text-anchor="middle" x="85.5" y="-12.5" font-family="Helvetica,sans-Serif" font-size="10.00">exif_mnote_data_olympus_free</text>
</a>
</g>
</g>
<!-- Node2 -->
<g id="Node000002" class="node">
<title>Node2</title>
<g id="a_Node000002"><a xlink:href="exif-mnote-data-olympus_8c.html#abbf48c8c4866eb54430bb8db5f8a83c2" target="_top" xlink:title=" ">
<polygon fill="white" stroke="#666666" points="353,-30 207,-30 207,0 353,0 353,-30"/>
<text text-anchor="start" x="215" y="-18" font-family="Helvetica,sans-Serif" font-size="10.00">exif_mnote_data_olympus</text>
<text text-anchor="middle" x="280" y="-7" font-family="Helvetica,sans-Serif" font-size="10.00">_clear</text>
</a>
</g>
</g>
<!-- Node1&#45;&gt;Node2 -->
<g id="edge1_Node000001_Node000002" class="edge">
<title>Node1&#45;&gt;Node2</title>
<g id="a_edge1_Node000001_Node000002"><a xlink:title=" ">
<path fill="none" stroke="#63b8ff" d="M171.49,-15C179.34,-15 187.29,-15 195.13,-15"/>
<polygon fill="#63b8ff" stroke="#63b8ff" points="195,-18.5 205,-15 195,-11.5 195,-18.5"/>
</a>
</g>
</g>
<!-- Node3 -->
<g id="Node000003" class="node">
<title>Node3</title>
<g id="a_Node000003"><a xlink:href="exif-mem_8c.html#a43190b81b4b4bdb4ffb89bfb612051b1" target="_top" xlink:title=" ">
<polygon fill="white" stroke="#666666" points="480,-24.5 389,-24.5 389,-5.5 480,-5.5 480,-24.5"/>
<text text-anchor="middle" x="434.5" y="-12.5" font-family="Helvetica,sans-Serif" font-size="10.00">exif_mem_free</text>
</a>
</g>
</g>
<!-- Node2&#45;&gt;Node3 -->
<g id="edge2_Node000002_Node000003" class="edge">
<title>Node2&#45;&gt;Node3</title>
<g id="a_edge2_Node000002_Node000003"><a xlink:title=" ">
<path fill="none" stroke="#63b8ff" d="M353.23,-15C361.4,-15 369.64,-15 377.56,-15"/>
<polygon fill="#63b8ff" stroke="#63b8ff" points="377.38,-18.5 387.38,-15 377.38,-11.5 377.38,-18.5"/>
</a>
</g>
</g>
</g>
</svg>
