<?xml version="1.0" encoding="UTF-8" standalone="no"?>
<!DOCTYPE svg PUBLIC "-//W3C//DTD SVG 1.1//EN"
 "http://www.w3.org/Graphics/SVG/1.1/DTD/svg11.dtd">
<!-- Generated by graphviz version 7.0.1 (0)
 -->
<!-- Title: exif_mnote_data_olympus_new Pages: 1 -->
<svg width="1016pt" height="971pt"
 viewBox="0.00 0.00 1016.00 970.50" xmlns="http://www.w3.org/2000/svg" xmlns:xlink="http://www.w3.org/1999/xlink">
<g id="graph0" class="graph" transform="scale(1 1) rotate(0) translate(4 966.5)">
<title>exif_mnote_data_olympus_new</title>
<!-- Node1 -->
<g id="Node000001" class="node">
<title>Node1</title>
<g id="a_Node000001"><a xlink:title=" ">
<polygon fill="#999999" stroke="#666666" points="172,-554.5 0,-554.5 0,-535.5 172,-535.5 172,-554.5"/>
<text text-anchor="middle" x="86" y="-542.5" font-family="Helvetica,sans-Serif" font-size="10.00">exif_mnote_data_olympus_new</text>
</a>
</g>
</g>
<!-- Node2 -->
<g id="Node000002" class="node">
<title>Node2</title>
<g id="a_Node000002"><a xlink:href="exif-mem_8c.html#a68be7c7afc8cff75adc3b1a28b5ae9a2" target="_top" xlink:title=" ">
<polygon fill="white" stroke="#666666" points="551.5,-925.5 456.5,-925.5 456.5,-906.5 551.5,-906.5 551.5,-925.5"/>
<text text-anchor="middle" x="504" y="-913.5" font-family="Helvetica,sans-Serif" font-size="10.00">exif_mem_alloc</text>
</a>
</g>
</g>
<!-- Node1&#45;&gt;Node2 -->
<g id="edge1_Node000001_Node000002" class="edge">
<title>Node1&#45;&gt;Node2</title>
<g id="a_edge1_Node000001_Node000002"><a xlink:title=" ">
<path fill="none" stroke="#63b8ff" d="M87.51,-554.85C90.35,-598.39 107.88,-775.19 208,-859 217.07,-866.59 361.51,-892.06 444.85,-906.25"/>
<polygon fill="#63b8ff" stroke="#63b8ff" points="444.24,-909.7 454.69,-907.92 445.42,-902.8 444.24,-909.7"/>
</a>
</g>
</g>
<!-- Node3 -->
<g id="Node000003" class="node">
<title>Node3</title>
<g id="a_Node000003"><a xlink:href="exif-mnote-data_8c.html#a504fc0507df0413e6356f9ab2a4e2584" target="_top" xlink:title=" ">
<polygon fill="white" stroke="#666666" points="370,-925.5 221,-925.5 221,-906.5 370,-906.5 370,-925.5"/>
<text text-anchor="middle" x="295.5" y="-913.5" font-family="Helvetica,sans-Serif" font-size="10.00">exif_mnote_data_construct</text>
</a>
</g>
</g>
<!-- Node1&#45;&gt;Node3 -->
<g id="edge2_Node000001_Node000003" class="edge">
<title>Node1&#45;&gt;Node3</title>
<g id="a_edge2_Node000001_Node000003"><a xlink:title=" ">
<path fill="none" stroke="#63b8ff" d="M87.29,-554.71C89.16,-600.18 103.26,-793.84 208,-892 211.75,-895.51 215.96,-898.52 220.46,-901.09"/>
<polygon fill="#63b8ff" stroke="#63b8ff" points="218.82,-904.18 229.34,-905.39 221.87,-897.88 218.82,-904.18"/>
</a>
</g>
</g>
<!-- Node5 -->
<g id="Node000005" class="node">
<title>Node5</title>
<g id="a_Node000005"><a xlink:href="exif-mnote-data-olympus_8c.html#a1bfa54d5a44ce710589abed129b911d8" target="_top" xlink:title=" ">
<polygon fill="white" stroke="#666666" points="368.5,-474 222.5,-474 222.5,-444 368.5,-444 368.5,-474"/>
<text text-anchor="start" x="230.5" y="-462" font-family="Helvetica,sans-Serif" font-size="10.00">exif_mnote_data_olympus</text>
<text text-anchor="middle" x="295.5" y="-451" font-family="Helvetica,sans-Serif" font-size="10.00">_count</text>
</a>
</g>
</g>
<!-- Node1&#45;&gt;Node5 -->
<g id="edge5_Node000001_Node000005" class="edge">
<title>Node1&#45;&gt;Node5</title>
<g id="a_edge5_Node000001_Node000005"><a xlink:title=" ">
<path fill="none" stroke="#63b8ff" d="M104.17,-535.06C127.21,-522.03 169.68,-499.05 208,-484 213.32,-481.91 218.88,-479.91 224.52,-478.01"/>
<polygon fill="#63b8ff" stroke="#63b8ff" points="225.5,-481.37 233.94,-474.96 223.35,-474.71 225.5,-481.37"/>
</a>
</g>
</g>
<!-- Node6 -->
<g id="Node000006" class="node">
<title>Node6</title>
<g id="a_Node000006"><a xlink:href="exif-mnote-data-olympus_8c.html#a4868c6e4138f9c8ad8ddae9cc268f8e7" target="_top" xlink:title=" ">
<polygon fill="white" stroke="#666666" points="381,-849.5 210,-849.5 210,-830.5 381,-830.5 381,-849.5"/>
<text text-anchor="middle" x="295.5" y="-837.5" font-family="Helvetica,sans-Serif" font-size="10.00">exif_mnote_data_olympus_free</text>
</a>
</g>
</g>
<!-- Node1&#45;&gt;Node6 -->
<g id="edge6_Node000001_Node000006" class="edge">
<title>Node1&#45;&gt;Node6</title>
<g id="a_edge6_Node000001_Node000006"><a xlink:title=" ">
<path fill="none" stroke="#63b8ff" d="M88.15,-554.95C93.38,-595.26 118.6,-747.67 208,-821 209.69,-822.39 211.47,-823.68 213.31,-824.89"/>
<polygon fill="#63b8ff" stroke="#63b8ff" points="211.2,-827.72 221.65,-829.46 214.57,-821.59 211.2,-827.72"/>
</a>
</g>
</g>
<!-- Node9 -->
<g id="Node000009" class="node">
<title>Node9</title>
<g id="a_Node000009"><a xlink:href="exif-mnote-data-olympus_8c.html#a6a1d434c7beed711c323e05d8dd61008" target="_top" xlink:title=" ">
<polygon fill="white" stroke="#666666" points="368.5,-426 222.5,-426 222.5,-396 368.5,-396 368.5,-426"/>
<text text-anchor="start" x="230.5" y="-414" font-family="Helvetica,sans-Serif" font-size="10.00">exif_mnote_data_olympus</text>
<text text-anchor="middle" x="295.5" y="-403" font-family="Helvetica,sans-Serif" font-size="10.00">_get_description</text>
</a>
</g>
</g>
<!-- Node1&#45;&gt;Node9 -->
<g id="edge9_Node000001_Node000009" class="edge">
<title>Node1&#45;&gt;Node9</title>
<g id="a_edge9_Node000001_Node000009"><a xlink:title=" ">
<path fill="none" stroke="#63b8ff" d="M94.97,-535.13C112.86,-513.62 158.53,-462.3 208,-435 210.66,-433.53 213.41,-432.15 216.24,-430.85"/>
<polygon fill="#63b8ff" stroke="#63b8ff" points="217.42,-434.15 225.29,-427.06 214.72,-427.69 217.42,-434.15"/>
</a>
</g>
</g>
<!-- Node11 -->
<g id="Node000011" class="node">
<title>Node11</title>
<g id="a_Node000011"><a xlink:href="exif-mnote-data-olympus_8c.html#ac3e52fa6d3b1e2cf3c6a7c56ff0694c9" target="_top" xlink:title=" ">
<polygon fill="white" stroke="#666666" points="368.5,-378 222.5,-378 222.5,-348 368.5,-348 368.5,-378"/>
<text text-anchor="start" x="230.5" y="-366" font-family="Helvetica,sans-Serif" font-size="10.00">exif_mnote_data_olympus</text>
<text text-anchor="middle" x="295.5" y="-355" font-family="Helvetica,sans-Serif" font-size="10.00">_get_id</text>
</a>
</g>
</g>
<!-- Node1&#45;&gt;Node11 -->
<g id="edge11_Node000001_Node000011" class="edge">
<title>Node1&#45;&gt;Node11</title>
<g id="a_edge11_Node000001_Node000011"><a xlink:title=" ">
<path fill="none" stroke="#63b8ff" d="M91.69,-535.06C105.38,-507.15 148.16,-427.41 208,-387 209.84,-385.76 211.74,-384.58 213.7,-383.46"/>
<polygon fill="#63b8ff" stroke="#63b8ff" points="215.12,-386.66 222.48,-379.04 211.97,-380.41 215.12,-386.66"/>
</a>
</g>
</g>
<!-- Node12 -->
<g id="Node000012" class="node">
<title>Node12</title>
<g id="a_Node000012"><a xlink:href="exif-mnote-data-olympus_8c.html#ae05d5a5e0fc8a9e7e8b870784d98c42c" target="_top" xlink:title=" ">
<polygon fill="white" stroke="#666666" points="368.5,-812 222.5,-812 222.5,-782 368.5,-782 368.5,-812"/>
<text text-anchor="start" x="230.5" y="-800" font-family="Helvetica,sans-Serif" font-size="10.00">exif_mnote_data_olympus</text>
<text text-anchor="middle" x="295.5" y="-789" font-family="Helvetica,sans-Serif" font-size="10.00">_get_name</text>
</a>
</g>
</g>
<!-- Node1&#45;&gt;Node12 -->
<g id="edge12_Node000001_Node000012" class="edge">
<title>Node1&#45;&gt;Node12</title>
<g id="a_edge12_Node000001_Node000012"><a xlink:title=" ">
<path fill="none" stroke="#63b8ff" d="M89.17,-554.54C97.65,-589.5 131.84,-711.82 208,-773 209.5,-774.21 211.06,-775.35 212.67,-776.44"/>
<polygon fill="#63b8ff" stroke="#63b8ff" points="210.63,-779.31 221.03,-781.31 214.15,-773.26 210.63,-779.31"/>
</a>
</g>
</g>
<!-- Node14 -->
<g id="Node000014" class="node">
<title>Node14</title>
<g id="a_Node000014"><a xlink:href="exif-mnote-data-olympus_8c.html#ac4107d9c6f1df0a30281da960f3ef4f5" target="_top" xlink:title=" ">
<polygon fill="white" stroke="#666666" points="368.5,-330 222.5,-330 222.5,-300 368.5,-300 368.5,-330"/>
<text text-anchor="start" x="230.5" y="-318" font-family="Helvetica,sans-Serif" font-size="10.00">exif_mnote_data_olympus</text>
<text text-anchor="middle" x="295.5" y="-307" font-family="Helvetica,sans-Serif" font-size="10.00">_get_title</text>
</a>
</g>
</g>
<!-- Node1&#45;&gt;Node14 -->
<g id="edge14_Node000001_Node000014" class="edge">
<title>Node1&#45;&gt;Node14</title>
<g id="a_edge14_Node000001_Node000014"><a xlink:title=" ">
<path fill="none" stroke="#63b8ff" d="M89.88,-535.02C100,-501.7 137.29,-393.33 208,-339 209.35,-337.96 210.75,-336.97 212.18,-336.02"/>
<polygon fill="#63b8ff" stroke="#63b8ff" points="213.83,-339.11 220.77,-331.1 210.35,-333.03 213.83,-339.11"/>
</a>
</g>
</g>
<!-- Node16 -->
<g id="Node000016" class="node">
<title>Node16</title>
<g id="a_Node000016"><a xlink:href="exif-mnote-data-olympus_8c.html#a861ff248156d736023a773bcd540096f" target="_top" xlink:title=" ">
<polygon fill="white" stroke="#666666" points="368.5,-608 222.5,-608 222.5,-578 368.5,-578 368.5,-608"/>
<text text-anchor="start" x="230.5" y="-596" font-family="Helvetica,sans-Serif" font-size="10.00">exif_mnote_data_olympus</text>
<text text-anchor="middle" x="295.5" y="-585" font-family="Helvetica,sans-Serif" font-size="10.00">_get_value</text>
</a>
</g>
</g>
<!-- Node1&#45;&gt;Node16 -->
<g id="edge16_Node000001_Node000016" class="edge">
<title>Node1&#45;&gt;Node16</title>
<g id="a_edge16_Node000001_Node000016"><a xlink:title=" ">
<path fill="none" stroke="#63b8ff" d="M129.99,-554.95C155.05,-560.74 187.39,-568.22 216.77,-575.02"/>
<polygon fill="#63b8ff" stroke="#63b8ff" points="215.85,-578.4 226.39,-577.24 217.43,-571.58 215.85,-578.4"/>
</a>
</g>
</g>
<!-- Node24 -->
<g id="Node000024" class="node">
<title>Node24</title>
<g id="a_Node000024"><a xlink:href="exif-mnote-data-olympus_8c.html#a51652cef97d613c60f506d939dad2958" target="_top" xlink:title=" ">
<polygon fill="white" stroke="#666666" points="382,-763.5 209,-763.5 209,-744.5 382,-744.5 382,-763.5"/>
<text text-anchor="middle" x="295.5" y="-751.5" font-family="Helvetica,sans-Serif" font-size="10.00">exif_mnote_data_olympus_load</text>
</a>
</g>
</g>
<!-- Node1&#45;&gt;Node24 -->
<g id="edge28_Node000001_Node000024" class="edge">
<title>Node1&#45;&gt;Node24</title>
<g id="a_edge28_Node000001_Node000024"><a xlink:title=" ">
<path fill="none" stroke="#63b8ff" d="M96.73,-554.8C129.34,-587.65 235.1,-694.17 277.09,-736.46"/>
<polygon fill="#63b8ff" stroke="#63b8ff" points="274.43,-738.76 283.96,-743.39 279.4,-733.83 274.43,-738.76"/>
</a>
</g>
</g>
<!-- Node29 -->
<g id="Node000029" class="node">
<title>Node29</title>
<g id="a_Node000029"><a xlink:href="exif-mnote-data-olympus_8c.html#a96ff3434fcdfe32ec3fa865ba56035e8" target="_top" xlink:title="save the MnoteData from ne to buf">
<polygon fill="white" stroke="#666666" points="383,-511.5 208,-511.5 208,-492.5 383,-492.5 383,-511.5"/>
<text text-anchor="middle" x="295.5" y="-499.5" font-family="Helvetica,sans-Serif" font-size="10.00">exif_mnote_data_olympus_save</text>
</a>
</g>
</g>
<!-- Node1&#45;&gt;Node29 -->
<g id="edge38_Node000001_Node000029" class="edge">
<title>Node1&#45;&gt;Node29</title>
<g id="a_edge38_Node000001_Node000029"><a xlink:title=" ">
<path fill="none" stroke="#63b8ff" d="M135.13,-535.03C165.01,-528.83 203.62,-520.83 235.36,-514.26"/>
<polygon fill="#63b8ff" stroke="#63b8ff" points="235.71,-517.76 244.79,-512.3 234.29,-510.9 235.71,-517.76"/>
</a>
</g>
</g>
<!-- Node35 -->
<g id="Node000035" class="node">
<title>Node35</title>
<g id="a_Node000035"><a xlink:href="exif-mnote-data-olympus_8c.html#aa4b1f2f306f5cb10cd5282b5c9aa6aae" target="_top" xlink:title=" ">
<polygon fill="white" stroke="#666666" points="368.5,-560 222.5,-560 222.5,-530 368.5,-530 368.5,-560"/>
<text text-anchor="start" x="230.5" y="-548" font-family="Helvetica,sans-Serif" font-size="10.00">exif_mnote_data_olympus</text>
<text text-anchor="middle" x="295.5" y="-537" font-family="Helvetica,sans-Serif" font-size="10.00">_set_byte_order</text>
</a>
</g>
</g>
<!-- Node1&#45;&gt;Node35 -->
<g id="edge46_Node000001_Node000035" class="edge">
<title>Node1&#45;&gt;Node35</title>
<g id="a_edge46_Node000001_Node000035"><a xlink:title=" ">
<path fill="none" stroke="#63b8ff" d="M172.3,-545C184.96,-545 198.01,-545 210.64,-545"/>
<polygon fill="#63b8ff" stroke="#63b8ff" points="210.6,-548.5 220.6,-545 210.6,-541.5 210.6,-548.5"/>
</a>
</g>
</g>
<!-- Node39 -->
<g id="Node000039" class="node">
<title>Node39</title>
<g id="a_Node000039"><a xlink:href="exif-mnote-data-olympus_8c.html#a11b2dd84a3a62db75052aeaafc4e9f7b" target="_top" xlink:title=" ">
<polygon fill="white" stroke="#666666" points="368.5,-282 222.5,-282 222.5,-252 368.5,-252 368.5,-282"/>
<text text-anchor="start" x="230.5" y="-270" font-family="Helvetica,sans-Serif" font-size="10.00">exif_mnote_data_olympus</text>
<text text-anchor="middle" x="295.5" y="-259" font-family="Helvetica,sans-Serif" font-size="10.00">_set_offset</text>
</a>
</g>
</g>
<!-- Node1&#45;&gt;Node39 -->
<g id="edge64_Node000001_Node000039" class="edge">
<title>Node1&#45;&gt;Node39</title>
<g id="a_edge64_Node000001_Node000039"><a xlink:title=" ">
<path fill="none" stroke="#63b8ff" d="M88.67,-535.19C95.63,-497.39 125.89,-359.94 208,-291 209.48,-289.76 211.01,-288.58 212.6,-287.47"/>
<polygon fill="#63b8ff" stroke="#63b8ff" points="214.1,-290.65 220.87,-282.5 210.5,-284.65 214.1,-290.65"/>
</a>
</g>
</g>
<!-- Node3&#45;&gt;Node2 -->
<g id="edge3_Node000003_Node000002" class="edge">
<title>Node3&#45;&gt;Node2</title>
<g id="a_edge3_Node000003_Node000002"><a xlink:title=" ">
<path fill="none" stroke="#63b8ff" d="M370.47,-916C394.92,-916 421.76,-916 444.86,-916"/>
<polygon fill="#63b8ff" stroke="#63b8ff" points="444.7,-919.5 454.7,-916 444.7,-912.5 444.7,-919.5"/>
</a>
</g>
</g>
<!-- Node4 -->
<g id="Node000004" class="node">
<title>Node4</title>
<g id="a_Node000004"><a xlink:href="exif-mem_8c.html#af28c61972f529be46907956e0b3e7a60" target="_top" xlink:title="Refcount an ExifMem.">
<polygon fill="white" stroke="#666666" points="546.5,-962.5 461.5,-962.5 461.5,-943.5 546.5,-943.5 546.5,-962.5"/>
<text text-anchor="middle" x="504" y="-950.5" font-family="Helvetica,sans-Serif" font-size="10.00">exif_mem_ref</text>
</a>
</g>
</g>
<!-- Node3&#45;&gt;Node4 -->
<g id="edge4_Node000003_Node000004" class="edge">
<title>Node3&#45;&gt;Node4</title>
<g id="a_edge4_Node000003_Node000004"><a xlink:title=" ">
<path fill="none" stroke="#63b8ff" d="M352.11,-925.96C382.51,-931.41 419.97,-938.12 449.96,-943.5"/>
<polygon fill="#63b8ff" stroke="#63b8ff" points="449.1,-946.9 459.56,-945.22 450.34,-940.01 449.1,-946.9"/>
</a>
</g>
</g>
<!-- Node7 -->
<g id="Node000007" class="node">
<title>Node7</title>
<g id="a_Node000007"><a xlink:href="exif-mnote-data-olympus_8c.html#abbf48c8c4866eb54430bb8db5f8a83c2" target="_top" xlink:title=" ">
<polygon fill="white" stroke="#666666" points="577,-888 431,-888 431,-858 577,-858 577,-888"/>
<text text-anchor="start" x="439" y="-876" font-family="Helvetica,sans-Serif" font-size="10.00">exif_mnote_data_olympus</text>
<text text-anchor="middle" x="504" y="-865" font-family="Helvetica,sans-Serif" font-size="10.00">_clear</text>
</a>
</g>
</g>
<!-- Node6&#45;&gt;Node7 -->
<g id="edge7_Node000006_Node000007" class="edge">
<title>Node6&#45;&gt;Node7</title>
<g id="a_edge7_Node000006_Node000007"><a xlink:title=" ">
<path fill="none" stroke="#63b8ff" d="M359.02,-849.99C377.96,-853.02 399.08,-856.39 419.18,-859.61"/>
<polygon fill="#63b8ff" stroke="#63b8ff" points="418.63,-863.06 429.05,-861.18 419.73,-856.15 418.63,-863.06"/>
</a>
</g>
</g>
<!-- Node8 -->
<g id="Node000008" class="node">
<title>Node8</title>
<g id="a_Node000008"><a xlink:href="exif-mem_8c.html#a43190b81b4b4bdb4ffb89bfb612051b1" target="_top" xlink:title=" ">
<polygon fill="white" stroke="#666666" points="730,-882.5 639,-882.5 639,-863.5 730,-863.5 730,-882.5"/>
<text text-anchor="middle" x="684.5" y="-870.5" font-family="Helvetica,sans-Serif" font-size="10.00">exif_mem_free</text>
</a>
</g>
</g>
<!-- Node7&#45;&gt;Node8 -->
<g id="edge8_Node000007_Node000008" class="edge">
<title>Node7&#45;&gt;Node8</title>
<g id="a_edge8_Node000007_Node000008"><a xlink:title=" ">
<path fill="none" stroke="#63b8ff" d="M577.35,-873C594.06,-873 611.61,-873 627.5,-873"/>
<polygon fill="#63b8ff" stroke="#63b8ff" points="627.24,-876.5 637.24,-873 627.24,-869.5 627.24,-876.5"/>
</a>
</g>
</g>
<!-- Node10 -->
<g id="Node000010" class="node">
<title>Node10</title>
<g id="a_Node000010"><a xlink:href="mnote-olympus-tag_8c.html#a2097b97052d65782b081621f4b3a300a" target="_top" xlink:title="Return a verbose textual description of the given tag within the Olympus&#45;style MakerNote.">
<polygon fill="white" stroke="#666666" points="572.5,-78 435.5,-78 435.5,-48 572.5,-48 572.5,-78"/>
<text text-anchor="start" x="443.5" y="-66" font-family="Helvetica,sans-Serif" font-size="10.00">mnote_olympus_tag_get</text>
<text text-anchor="middle" x="504" y="-55" font-family="Helvetica,sans-Serif" font-size="10.00">_description</text>
</a>
</g>
</g>
<!-- Node9&#45;&gt;Node10 -->
<g id="edge10_Node000009_Node000010" class="edge">
<title>Node9&#45;&gt;Node10</title>
<g id="a_edge10_Node000009_Node000010"><a xlink:title=" ">
<path fill="none" stroke="#63b8ff" d="M368.64,-398.66C374.02,-395.56 378.93,-391.72 383,-387 469.18,-286.9 335.96,-194.71 419,-92 421.09,-89.41 423.43,-87.06 425.95,-84.91"/>
<polygon fill="#63b8ff" stroke="#63b8ff" points="427.79,-87.89 433.93,-79.26 423.75,-82.18 427.79,-87.89"/>
</a>
</g>
</g>
<!-- Node13 -->
<g id="Node000013" class="node">
<title>Node13</title>
<g id="a_Node000013"><a xlink:href="mnote-olympus-tag_8c.html#a0f6994e7cea9180cc2e5dafc56beb792" target="_top" xlink:title="Return a textual name of the given tag within the Olympus&#45;style MakerNote.">
<polygon fill="white" stroke="#666666" points="589,-839.5 419,-839.5 419,-820.5 589,-820.5 589,-839.5"/>
<text text-anchor="middle" x="504" y="-827.5" font-family="Helvetica,sans-Serif" font-size="10.00">mnote_olympus_tag_get_name</text>
</a>
</g>
</g>
<!-- Node12&#45;&gt;Node13 -->
<g id="edge13_Node000012_Node000013" class="edge">
<title>Node12&#45;&gt;Node13</title>
<g id="a_edge13_Node000012_Node000013"><a xlink:title=" ">
<path fill="none" stroke="#63b8ff" d="M368.72,-808.54C388.27,-811.66 409.44,-815.05 429.08,-818.19"/>
<polygon fill="#63b8ff" stroke="#63b8ff" points="428.51,-821.64 438.94,-819.76 429.62,-814.73 428.51,-821.64"/>
</a>
</g>
</g>
<!-- Node15 -->
<g id="Node000015" class="node">
<title>Node15</title>
<g id="a_Node000015"><a xlink:href="mnote-olympus-tag_8c.html#a8fd239ec5be720b67d295555eeda5eae" target="_top" xlink:title="Return a textual title of the given tag within the Olympus&#45;style MakerNote.">
<polygon fill="white" stroke="#666666" points="572.5,-30 435.5,-30 435.5,0 572.5,0 572.5,-30"/>
<text text-anchor="start" x="443.5" y="-18" font-family="Helvetica,sans-Serif" font-size="10.00">mnote_olympus_tag_get</text>
<text text-anchor="middle" x="504" y="-7" font-family="Helvetica,sans-Serif" font-size="10.00">_title</text>
</a>
</g>
</g>
<!-- Node14&#45;&gt;Node15 -->
<g id="edge15_Node000014_Node000015" class="edge">
<title>Node14&#45;&gt;Node15</title>
<g id="a_edge15_Node000014_Node000015"><a xlink:title=" ">
<path fill="none" stroke="#63b8ff" d="M368.94,-302.34C374.19,-299.3 378.99,-295.57 383,-291 457.69,-206.02 344.64,-124.27 419,-39 420.96,-36.75 423.12,-34.7 425.43,-32.84"/>
<polygon fill="#63b8ff" stroke="#63b8ff" points="427.31,-35.8 433.75,-27.38 423.47,-29.94 427.31,-35.8"/>
</a>
</g>
</g>
<!-- Node17 -->
<g id="Node000017" class="node">
<title>Node17</title>
<g id="a_Node000017"><a xlink:href="mnote-olympus-entry_8c.html#a212180e89fa24eb4b0ac52bc5b87a137" target="_top" xlink:title=" ">
<polygon fill="white" stroke="#666666" points="567,-603 441,-603 441,-573 567,-573 567,-603"/>
<text text-anchor="start" x="449" y="-591" font-family="Helvetica,sans-Serif" font-size="10.00">mnote_olympus_entry</text>
<text text-anchor="middle" x="504" y="-580" font-family="Helvetica,sans-Serif" font-size="10.00">_get_value</text>
</a>
</g>
</g>
<!-- Node16&#45;&gt;Node17 -->
<g id="edge17_Node000016_Node000017" class="edge">
<title>Node16&#45;&gt;Node17</title>
<g id="a_edge17_Node000016_Node000017"><a xlink:title=" ">
<path fill="none" stroke="#63b8ff" d="M368.72,-591.25C388.36,-590.78 409.65,-590.26 429.37,-589.78"/>
<polygon fill="#63b8ff" stroke="#63b8ff" points="429.35,-593.28 439.26,-589.54 429.18,-586.29 429.35,-593.28"/>
</a>
</g>
</g>
<!-- Node18 -->
<g id="Node000018" class="node">
<title>Node18</title>
<g id="a_Node000018"><a xlink:href="exif-utils_8c.html#a4ad94614630897766dd0a5c9bc2a59bf" target="_top" xlink:title="Retrieve an ExifLong value from memory.">
<polygon fill="white" stroke="#666666" points="873.5,-719.5 790.5,-719.5 790.5,-700.5 873.5,-700.5 873.5,-719.5"/>
<text text-anchor="middle" x="832" y="-707.5" font-family="Helvetica,sans-Serif" font-size="10.00">exif_get_long</text>
</a>
</g>
</g>
<!-- Node17&#45;&gt;Node18 -->
<g id="edge18_Node000017_Node000018" class="edge">
<title>Node17&#45;&gt;Node18</title>
<g id="a_edge18_Node000017_Node000018"><a xlink:title=" ">
<path fill="none" stroke="#63b8ff" d="M524.86,-603.5C541.99,-616.94 567.31,-637.02 589,-655 605.26,-668.47 605.66,-677.52 625,-686 674.08,-707.53 735.73,-712.14 778.74,-712.22"/>
<polygon fill="#63b8ff" stroke="#63b8ff" points="778.59,-715.72 788.56,-712.15 778.54,-708.72 778.59,-715.72"/>
</a>
</g>
</g>
<!-- Node19 -->
<g id="Node000019" class="node">
<title>Node19</title>
<g id="a_Node000019"><a xlink:href="exif-utils_8c.html#a56b96f076a13da6ed926e1ef29cb2dc3" target="_top" xlink:title="Retrieve an ExifSLong value from memory.">
<polygon fill="white" stroke="#666666" points="1008,-605.5 920,-605.5 920,-586.5 1008,-586.5 1008,-605.5"/>
<text text-anchor="middle" x="964" y="-593.5" font-family="Helvetica,sans-Serif" font-size="10.00">exif_get_slong</text>
</a>
</g>
</g>
<!-- Node17&#45;&gt;Node19 -->
<g id="edge24_Node000017_Node000019" class="edge">
<title>Node17&#45;&gt;Node19</title>
<g id="a_edge24_Node000017_Node000019"><a xlink:title=" ">
<path fill="none" stroke="#63b8ff" d="M538.29,-603.44C561.92,-613.51 594.69,-625.73 625,-631 728.36,-648.96 851.21,-625.08 916.61,-608.82"/>
<polygon fill="#63b8ff" stroke="#63b8ff" points="917.45,-612.22 926.28,-606.36 915.73,-605.44 917.45,-612.22"/>
</a>
</g>
</g>
<!-- Node20 -->
<g id="Node000020" class="node">
<title>Node20</title>
<g id="a_Node000020"><a xlink:href="exif-utils_8c.html#a1feb547c289aa57a4d2119338b03706c" target="_top" xlink:title="Retrieve an ExifRational value from memory.">
<polygon fill="white" stroke="#666666" points="734,-531.5 635,-531.5 635,-512.5 734,-512.5 734,-531.5"/>
<text text-anchor="middle" x="684.5" y="-519.5" font-family="Helvetica,sans-Serif" font-size="10.00">exif_get_rational</text>
</a>
</g>
</g>
<!-- Node17&#45;&gt;Node20 -->
<g id="edge20_Node000017_Node000020" class="edge">
<title>Node17&#45;&gt;Node20</title>
<g id="a_edge20_Node000017_Node000020"><a xlink:title=" ">
<path fill="none" stroke="#63b8ff" d="M542.62,-572.61C566.16,-563.14 597.19,-550.95 625,-541 630.13,-539.16 635.55,-537.3 640.92,-535.5"/>
<polygon fill="#63b8ff" stroke="#63b8ff" points="641.97,-538.84 650.37,-532.39 639.78,-532.19 641.97,-538.84"/>
</a>
</g>
</g>
<!-- Node21 -->
<g id="Node000021" class="node">
<title>Node21</title>
<g id="a_Node000021"><a xlink:href="exif-utils_8c.html#a4b4acf537a8c6b9405e7b53be868e4d7" target="_top" xlink:title="Retrieve an ExifShort value from memory.">
<polygon fill="white" stroke="#666666" points="727.5,-605.5 641.5,-605.5 641.5,-586.5 727.5,-586.5 727.5,-605.5"/>
<text text-anchor="middle" x="684.5" y="-593.5" font-family="Helvetica,sans-Serif" font-size="10.00">exif_get_short</text>
</a>
</g>
</g>
<!-- Node17&#45;&gt;Node21 -->
<g id="edge22_Node000017_Node000021" class="edge">
<title>Node17&#45;&gt;Node21</title>
<g id="a_edge22_Node000017_Node000021"><a xlink:title=" ">
<path fill="none" stroke="#63b8ff" d="M567.43,-590.8C587.67,-591.71 609.95,-592.7 629.52,-593.58"/>
<polygon fill="#63b8ff" stroke="#63b8ff" points="629.35,-597.08 639.49,-594.03 629.66,-590.08 629.35,-597.08"/>
</a>
</g>
</g>
<!-- Node22 -->
<g id="Node000022" class="node">
<title>Node22</title>
<g id="a_Node000022"><a xlink:href="exif-utils_8c.html#a6baf094a71392f9cea23ad633ec13c8b" target="_top" xlink:title="Retrieve an ExifSShort value from memory.">
<polygon fill="white" stroke="#666666" points="878,-605.5 786,-605.5 786,-586.5 878,-586.5 878,-605.5"/>
<text text-anchor="middle" x="832" y="-593.5" font-family="Helvetica,sans-Serif" font-size="10.00">exif_get_sshort</text>
</a>
</g>
</g>
<!-- Node17&#45;&gt;Node22 -->
<g id="edge27_Node000017_Node000022" class="edge">
<title>Node17&#45;&gt;Node22</title>
<g id="a_edge27_Node000017_Node000022"><a xlink:title=" ">
<path fill="none" stroke="#63b8ff" d="M561.64,-603.45C581.51,-608.14 604.09,-612.68 625,-615 677.57,-620.84 691.42,-620.68 744,-615 756.71,-613.63 770.29,-611.16 782.84,-608.45"/>
<polygon fill="#63b8ff" stroke="#63b8ff" points="783.58,-611.87 792.56,-606.25 782.03,-605.04 783.58,-611.87"/>
</a>
</g>
</g>
<!-- Node23 -->
<g id="Node000023" class="node">
<title>Node23</title>
<g id="a_Node000023"><a xlink:href="exif-utils_8c.html#adb97c3499488d5642a82df1cb16dc2cb" target="_top" xlink:title="Retrieve an ExifSRational value from memory.">
<polygon fill="white" stroke="#666666" points="736.5,-494.5 632.5,-494.5 632.5,-475.5 736.5,-475.5 736.5,-494.5"/>
<text text-anchor="middle" x="684.5" y="-482.5" font-family="Helvetica,sans-Serif" font-size="10.00">exif_get_srational</text>
</a>
</g>
</g>
<!-- Node17&#45;&gt;Node23 -->
<g id="edge25_Node000017_Node000023" class="edge">
<title>Node17&#45;&gt;Node23</title>
<g id="a_edge25_Node000017_Node000023"><a xlink:title=" ">
<path fill="none" stroke="#63b8ff" d="M523.03,-572.78C545.61,-554.36 586.08,-523.4 625,-504 628.71,-502.15 632.63,-500.43 636.63,-498.83"/>
<polygon fill="#63b8ff" stroke="#63b8ff" points="637.66,-502.18 645.83,-495.44 635.24,-495.61 637.66,-502.18"/>
</a>
</g>
</g>
<!-- Node18&#45;&gt;Node19 -->
<g id="edge19_Node000018_Node000019" class="edge">
<title>Node18&#45;&gt;Node19</title>
<g id="a_edge19_Node000018_Node000019"><a xlink:title=" ">
<path fill="none" stroke="#63b8ff" d="M859.33,-700.09C867.63,-696.34 876.57,-691.59 884,-686 911.02,-665.67 935.6,-634.84 949.93,-615.06"/>
<polygon fill="#63b8ff" stroke="#63b8ff" points="952.66,-617.26 955.57,-607.08 946.94,-613.22 952.66,-617.26"/>
</a>
</g>
</g>
<!-- Node20&#45;&gt;Node18 -->
<g id="edge21_Node000020_Node000018" class="edge">
<title>Node20&#45;&gt;Node18</title>
<g id="a_edge21_Node000020_Node000018"><a xlink:title=" ">
<path fill="none" stroke="#63b8ff" d="M729.46,-531.89C734.72,-534.29 739.73,-537.29 744,-541 771.59,-565.01 763.35,-582.44 780,-615 793.39,-641.19 809.56,-671.03 820.05,-690.16"/>
<polygon fill="#63b8ff" stroke="#63b8ff" points="816.89,-691.68 824.78,-698.76 823.03,-688.31 816.89,-691.68"/>
</a>
</g>
</g>
<!-- Node21&#45;&gt;Node22 -->
<g id="edge23_Node000021_Node000022" class="edge">
<title>Node21&#45;&gt;Node22</title>
<g id="a_edge23_Node000021_Node000022"><a xlink:title=" ">
<path fill="none" stroke="#63b8ff" d="M727.98,-596C742.56,-596 759.11,-596 774.62,-596"/>
<polygon fill="#63b8ff" stroke="#63b8ff" points="774.17,-599.5 784.17,-596 774.17,-592.5 774.17,-599.5"/>
</a>
</g>
</g>
<!-- Node23&#45;&gt;Node19 -->
<g id="edge26_Node000023_Node000019" class="edge">
<title>Node23&#45;&gt;Node19</title>
<g id="a_edge26_Node000023_Node000019"><a xlink:title=" ">
<path fill="none" stroke="#63b8ff" d="M717.85,-494.97C726.4,-497.75 735.59,-500.87 744,-504 811.39,-529.05 888.55,-562.64 930.93,-581.53"/>
<polygon fill="#63b8ff" stroke="#63b8ff" points="929.23,-584.61 939.79,-585.5 932.09,-578.22 929.23,-584.61"/>
</a>
</g>
</g>
<!-- Node24&#45;&gt;Node2 -->
<g id="edge34_Node000024_Node000002" class="edge">
<title>Node24&#45;&gt;Node2</title>
<g id="a_edge34_Node000024_Node000002"><a xlink:title=" ">
<path fill="none" stroke="#63b8ff" d="M369.81,-763.81C374.6,-766.3 379.07,-769.32 383,-773 424.9,-812.21 377.22,-857.66 419,-897 426.28,-903.85 435.48,-908.42 445.11,-911.43"/>
<polygon fill="#63b8ff" stroke="#63b8ff" points="444.06,-914.78 454.61,-913.84 445.78,-907.99 444.06,-914.78"/>
</a>
</g>
</g>
<!-- Node24&#45;&gt;Node7 -->
<g id="edge35_Node000024_Node000007" class="edge">
<title>Node24&#45;&gt;Node7</title>
<g id="a_edge35_Node000024_Node000007"><a xlink:title=" ">
<path fill="none" stroke="#63b8ff" d="M367.9,-763.95C373.31,-766.38 378.43,-769.36 383,-773 412.24,-796.28 390.49,-824.83 419,-849 420.11,-849.94 421.25,-850.84 422.42,-851.71"/>
<polygon fill="#63b8ff" stroke="#63b8ff" points="420.31,-854.52 430.64,-856.88 424.04,-848.59 420.31,-854.52"/>
</a>
</g>
</g>
<!-- Node24&#45;&gt;Node13 -->
<g id="edge37_Node000024_Node000013" class="edge">
<title>Node24&#45;&gt;Node13</title>
<g id="a_edge37_Node000024_Node000013"><a xlink:title=" ">
<path fill="none" stroke="#63b8ff" d="M362.34,-763.97C369.56,-766.36 376.6,-769.33 383,-773 403.46,-784.74 398.51,-800.32 419,-812 421.49,-813.42 424.09,-814.73 426.75,-815.94"/>
<polygon fill="#63b8ff" stroke="#63b8ff" points="425.32,-819.14 435.91,-819.55 427.89,-812.62 425.32,-819.14"/>
</a>
</g>
</g>
<!-- Node24&#45;&gt;Node18 -->
<g id="edge30_Node000024_Node000018" class="edge">
<title>Node24&#45;&gt;Node18</title>
<g id="a_edge30_Node000024_Node000018"><a xlink:title=" ">
<path fill="none" stroke="#63b8ff" d="M309.54,-744.11C330.99,-728.53 375.67,-698.93 419,-688 492.26,-669.52 516.69,-666.11 589,-688 607.4,-693.57 606.6,-706.43 625,-712 675.62,-727.33 691.11,-712.61 744,-712 755.33,-711.87 767.49,-711.64 779.02,-711.39"/>
<polygon fill="#63b8ff" stroke="#63b8ff" points="778.85,-714.9 788.77,-711.16 778.69,-707.9 778.85,-714.9"/>
</a>
</g>
</g>
<!-- Node24&#45;&gt;Node21 -->
<g id="edge31_Node000024_Node000021" class="edge">
<title>Node24&#45;&gt;Node21</title>
<g id="a_edge31_Node000024_Node000021"><a xlink:title=" ">
<path fill="none" stroke="#63b8ff" d="M305.58,-744.07C324.57,-723.95 370.73,-678.29 419,-655 455.75,-637.27 564.14,-616.48 630.21,-604.91"/>
<polygon fill="#63b8ff" stroke="#63b8ff" points="630.48,-608.42 639.74,-603.26 629.29,-601.52 630.48,-608.42"/>
</a>
</g>
</g>
<!-- Node25 -->
<g id="Node000025" class="node">
<title>Node25</title>
<g id="a_Node000025"><a xlink:href="exif-format_8c.html#a924038efe0cd8ebade8f44619dd794f3" target="_top" xlink:title="Return the raw size of the given EXIF data type.">
<polygon fill="white" stroke="#666666" points="744,-568.5 625,-568.5 625,-549.5 744,-549.5 744,-568.5"/>
<text text-anchor="middle" x="684.5" y="-556.5" font-family="Helvetica,sans-Serif" font-size="10.00">exif_format_get_size</text>
</a>
</g>
</g>
<!-- Node24&#45;&gt;Node25 -->
<g id="edge29_Node000024_Node000025" class="edge">
<title>Node24&#45;&gt;Node25</title>
<g id="a_edge29_Node000024_Node000025"><a xlink:title=" ">
<path fill="none" stroke="#63b8ff" d="M382.4,-759.7C457.41,-762.75 558.85,-761.61 589,-736 643.89,-689.38 576.42,-631.17 625,-578 625.85,-577.07 626.74,-576.19 627.67,-575.35"/>
<polygon fill="#63b8ff" stroke="#63b8ff" points="629.5,-578.35 635.72,-569.77 625.51,-572.59 629.5,-578.35"/>
</a>
</g>
</g>
<!-- Node26 -->
<g id="Node000026" class="node">
<title>Node26</title>
<g id="a_Node000026"><a xlink:href="exif-log_8c.html#a025d4a5d96544913ea6f6ebbec69cb68" target="_top" xlink:title=" ">
<polygon fill="white" stroke="#666666" points="532,-802.5 476,-802.5 476,-783.5 532,-783.5 532,-802.5"/>
<text text-anchor="middle" x="504" y="-790.5" font-family="Helvetica,sans-Serif" font-size="10.00">exif_log</text>
</a>
</g>
</g>
<!-- Node24&#45;&gt;Node26 -->
<g id="edge32_Node000024_Node000026" class="edge">
<title>Node24&#45;&gt;Node26</title>
<g id="a_edge32_Node000024_Node000026"><a xlink:title=" ">
<path fill="none" stroke="#63b8ff" d="M349.41,-763.99C385.28,-770.77 431.87,-779.57 464.29,-785.69"/>
<polygon fill="#63b8ff" stroke="#63b8ff" points="463.59,-789.12 474.06,-787.53 464.89,-782.24 463.59,-789.12"/>
</a>
</g>
</g>
<!-- Node28 -->
<g id="Node000028" class="node">
<title>Node28</title>
<g id="a_Node000028"><a xlink:href="exif-mnote-data-olympus_8c.html#a2c0a03d9462fd2a2f2f0a3f7e017a858" target="_top" xlink:title=" ">
<polygon fill="white" stroke="#666666" points="577,-727 431,-727 431,-697 577,-697 577,-727"/>
<text text-anchor="start" x="439" y="-715" font-family="Helvetica,sans-Serif" font-size="10.00">exif_mnote_data_olympus</text>
<text text-anchor="middle" x="504" y="-704" font-family="Helvetica,sans-Serif" font-size="10.00">_identify_variant</text>
</a>
</g>
</g>
<!-- Node24&#45;&gt;Node28 -->
<g id="edge36_Node000024_Node000028" class="edge">
<title>Node24&#45;&gt;Node28</title>
<g id="a_edge36_Node000024_Node000028"><a xlink:title=" ">
<path fill="none" stroke="#63b8ff" d="M345.44,-744.05C367.57,-739.55 394.35,-734.1 419.51,-728.98"/>
<polygon fill="#63b8ff" stroke="#63b8ff" points="419.96,-732.46 429.06,-727.04 418.57,-725.6 419.96,-732.46"/>
</a>
</g>
</g>
<!-- Node27 -->
<g id="Node000027" class="node">
<title>Node27</title>
<g id="a_Node000027"><a xlink:href="exif-log_8c.html#a99101b5ad01b2d82ce9d43c9e8534627" target="_top" xlink:title=" ">
<polygon fill="white" stroke="#666666" points="715.5,-802.5 653.5,-802.5 653.5,-783.5 715.5,-783.5 715.5,-802.5"/>
<text text-anchor="middle" x="684.5" y="-790.5" font-family="Helvetica,sans-Serif" font-size="10.00">exif_logv</text>
</a>
</g>
</g>
<!-- Node26&#45;&gt;Node27 -->
<g id="edge33_Node000026_Node000027" class="edge">
<title>Node26&#45;&gt;Node27</title>
<g id="a_edge33_Node000026_Node000027"><a xlink:title=" ">
<path fill="none" stroke="#63b8ff" d="M532.5,-793C561.72,-793 608.25,-793 641.95,-793"/>
<polygon fill="#63b8ff" stroke="#63b8ff" points="641.77,-796.5 651.77,-793 641.77,-789.5 641.77,-796.5"/>
</a>
</g>
</g>
<!-- Node29&#45;&gt;Node2 -->
<g id="edge40_Node000029_Node000002" class="edge">
<title>Node29&#45;&gt;Node2</title>
<g id="a_edge40_Node000029_Node000002"><a xlink:title=" ">
<path fill="none" stroke="#63b8ff" d="M372.18,-511.96C376.18,-514.45 379.84,-517.43 383,-521 438.66,-583.83 363.53,-834 419,-897 425.89,-904.83 435.27,-909.8 445.26,-912.89"/>
<polygon fill="#63b8ff" stroke="#63b8ff" points="444.24,-916.25 454.78,-915.2 445.89,-909.45 444.24,-916.25"/>
</a>
</g>
</g>
<!-- Node29&#45;&gt;Node25 -->
<g id="edge39_Node000029_Node000025" class="edge">
<title>Node29&#45;&gt;Node25</title>
<g id="a_edge39_Node000029_Node000025"><a xlink:title=" ">
<path fill="none" stroke="#63b8ff" d="M364.47,-511.97C423.76,-520.67 512.07,-533.65 589,-545 596.9,-546.17 605.16,-547.39 613.38,-548.6"/>
<polygon fill="#63b8ff" stroke="#63b8ff" points="612.62,-552.03 623.02,-550.03 613.64,-545.1 612.62,-552.03"/>
</a>
</g>
</g>
<!-- Node30 -->
<g id="Node000030" class="node">
<title>Node30</title>
<g id="a_Node000030"><a xlink:href="exif-mem_8c.html#a7302da5374a74202e03a781b7c4b7ebe" target="_top" xlink:title=" ">
<polygon fill="white" stroke="#666666" points="556,-375.5 452,-375.5 452,-356.5 556,-356.5 556,-375.5"/>
<text text-anchor="middle" x="504" y="-363.5" font-family="Helvetica,sans-Serif" font-size="10.00">exif_mem_realloc</text>
</a>
</g>
</g>
<!-- Node29&#45;&gt;Node30 -->
<g id="edge41_Node000029_Node000030" class="edge">
<title>Node29&#45;&gt;Node30</title>
<g id="a_edge41_Node000029_Node000030"><a xlink:title=" ">
<path fill="none" stroke="#63b8ff" d="M369.11,-492.08C374.12,-489.63 378.83,-486.64 383,-483 417.96,-452.49 384.13,-415.62 419,-385 425.26,-379.51 432.77,-375.5 440.69,-372.6"/>
<polygon fill="#63b8ff" stroke="#63b8ff" points="441.65,-375.97 450.22,-369.73 439.63,-369.27 441.65,-375.97"/>
</a>
</g>
</g>
<!-- Node31 -->
<g id="Node000031" class="node">
<title>Node31</title>
<g id="a_Node000031"><a xlink:href="exif-utils_8c.html#ac90147d0cc97bec7a577bf9576191bf8" target="_top" xlink:title="Store an ExifLong value into memory in EXIF format.">
<polygon fill="white" stroke="#666666" points="873,-209.5 791,-209.5 791,-190.5 873,-190.5 873,-209.5"/>
<text text-anchor="middle" x="832" y="-197.5" font-family="Helvetica,sans-Serif" font-size="10.00">exif_set_long</text>
</a>
</g>
</g>
<!-- Node29&#45;&gt;Node31 -->
<g id="edge42_Node000029_Node000031" class="edge">
<title>Node29&#45;&gt;Node31</title>
<g id="a_edge42_Node000029_Node000031"><a xlink:title=" ">
<path fill="none" stroke="#63b8ff" d="M371.69,-492.19C375.86,-489.67 379.69,-486.64 383,-483 473.53,-383.22 330.95,-283.98 419,-182 514.79,-71.06 606.44,-75.41 744,-126 773.95,-137.02 800.63,-163.43 816.31,-181.53"/>
<polygon fill="#63b8ff" stroke="#63b8ff" points="813.41,-183.51 822.5,-188.94 818.78,-179.02 813.41,-183.51"/>
</a>
</g>
</g>
<!-- Node33 -->
<g id="Node000033" class="node">
<title>Node33</title>
<g id="a_Node000033"><a xlink:href="exif-utils_8c.html#ad905d16e26b4052a1db34dbebdc37341" target="_top" xlink:title="Store an ExifShort value into memory in EXIF format.">
<polygon fill="white" stroke="#666666" points="727.5,-153.5 641.5,-153.5 641.5,-134.5 727.5,-134.5 727.5,-153.5"/>
<text text-anchor="middle" x="684.5" y="-141.5" font-family="Helvetica,sans-Serif" font-size="10.00">exif_set_short</text>
</a>
</g>
</g>
<!-- Node29&#45;&gt;Node33 -->
<g id="edge44_Node000029_Node000033" class="edge">
<title>Node29&#45;&gt;Node33</title>
<g id="a_edge44_Node000029_Node000033"><a xlink:title=" ">
<path fill="none" stroke="#63b8ff" d="M370.31,-492.07C374.92,-489.6 379.22,-486.61 383,-483 427.87,-440.08 386.55,-400.94 419,-348 483.3,-243.08 518.39,-224.45 625,-163 628,-161.27 631.18,-159.67 634.45,-158.2"/>
<polygon fill="#63b8ff" stroke="#63b8ff" points="635.68,-161.48 643.66,-154.5 633.07,-154.98 635.68,-161.48"/>
</a>
</g>
</g>
<!-- Node32 -->
<g id="Node000032" class="node">
<title>Node32</title>
<g id="a_Node000032"><a xlink:href="exif-utils_8c.html#ae6e3b9d1663f9ab9bd462d73a310ca03" target="_top" xlink:title="Store an ExifSLong value into memory in EXIF format.">
<polygon fill="white" stroke="#666666" points="1007.5,-304.5 920.5,-304.5 920.5,-285.5 1007.5,-285.5 1007.5,-304.5"/>
<text text-anchor="middle" x="964" y="-292.5" font-family="Helvetica,sans-Serif" font-size="10.00">exif_set_slong</text>
</a>
</g>
</g>
<!-- Node31&#45;&gt;Node32 -->
<g id="edge43_Node000031_Node000032" class="edge">
<title>Node31&#45;&gt;Node32</title>
<g id="a_edge43_Node000031_Node000032"><a xlink:title=" ">
<path fill="none" stroke="#63b8ff" d="M846.42,-209.81C868.61,-226.02 913.17,-258.59 940.32,-278.42"/>
<polygon fill="#63b8ff" stroke="#63b8ff" points="938.09,-281.13 948.23,-284.21 942.22,-275.48 938.09,-281.13"/>
</a>
</g>
</g>
<!-- Node34 -->
<g id="Node000034" class="node">
<title>Node34</title>
<g id="a_Node000034"><a xlink:href="exif-utils_8c.html#a6504651147702fc6db9a5cd4aa997023" target="_top" xlink:title="Store an ExifSShort value into memory in EXIF format.">
<polygon fill="white" stroke="#666666" points="877.5,-266.5 786.5,-266.5 786.5,-247.5 877.5,-247.5 877.5,-266.5"/>
<text text-anchor="middle" x="832" y="-254.5" font-family="Helvetica,sans-Serif" font-size="10.00">exif_set_sshort</text>
</a>
</g>
</g>
<!-- Node33&#45;&gt;Node34 -->
<g id="edge45_Node000033_Node000034" class="edge">
<title>Node33&#45;&gt;Node34</title>
<g id="a_edge45_Node000033_Node000034"><a xlink:title=" ">
<path fill="none" stroke="#63b8ff" d="M727.85,-153.86C733.61,-156.28 739.18,-159.28 744,-163 767.43,-181.06 759.81,-197.37 780,-219 787.44,-226.98 796.74,-234.46 805.35,-240.64"/>
<polygon fill="#63b8ff" stroke="#63b8ff" points="803.17,-243.38 813.39,-246.16 807.13,-237.61 803.17,-243.38"/>
</a>
</g>
</g>
<!-- Node35&#45;&gt;Node25 -->
<g id="edge63_Node000035_Node000025" class="edge">
<title>Node35&#45;&gt;Node25</title>
<g id="a_edge63_Node000035_Node000025"><a xlink:title=" ">
<path fill="none" stroke="#63b8ff" d="M368.84,-547.62C438.88,-550.15 544.37,-553.97 613.59,-556.47"/>
<polygon fill="#63b8ff" stroke="#63b8ff" points="613.16,-559.96 623.28,-556.82 613.42,-552.96 613.16,-559.96"/>
</a>
</g>
</g>
<!-- Node36 -->
<g id="Node000036" class="node">
<title>Node36</title>
<g id="a_Node000036"><a xlink:href="exif-utils_8c.html#a54ef3b86ffeb643e9c4434b85ccf2992" target="_top" xlink:title=" ">
<polygon fill="white" stroke="#666666" points="560.5,-424 447.5,-424 447.5,-394 560.5,-394 560.5,-424"/>
<text text-anchor="start" x="455.5" y="-412" font-family="Helvetica,sans-Serif" font-size="10.00">exif_array_set_byte</text>
<text text-anchor="middle" x="504" y="-401" font-family="Helvetica,sans-Serif" font-size="10.00">_order</text>
</a>
</g>
</g>
<!-- Node35&#45;&gt;Node36 -->
<g id="edge47_Node000035_Node000036" class="edge">
<title>Node35&#45;&gt;Node36</title>
<g id="a_edge47_Node000035_Node000036"><a xlink:title=" ">
<path fill="none" stroke="#63b8ff" d="M364.36,-529.61C370.83,-527.13 377.15,-524.28 383,-521 423.96,-498.05 461.9,-458.24 483.75,-432.79"/>
<polygon fill="#63b8ff" stroke="#63b8ff" points="486.31,-435.18 490.07,-425.28 480.95,-430.68 486.31,-435.18"/>
</a>
</g>
</g>
<!-- Node36&#45;&gt;Node18 -->
<g id="edge49_Node000036_Node000018" class="edge">
<title>Node36&#45;&gt;Node18</title>
<g id="a_edge49_Node000036_Node000018"><a xlink:title=" ">
<path fill="none" stroke="#63b8ff" d="M560.83,-419.39C627.29,-432.24 731,-454 744,-467 791.88,-514.86 755.8,-551.78 780,-615 790.46,-642.33 807.16,-671.7 818.58,-690.44"/>
<polygon fill="#63b8ff" stroke="#63b8ff" points="815.56,-692.21 823.81,-698.85 821.51,-688.51 815.56,-692.21"/>
</a>
</g>
</g>
<!-- Node36&#45;&gt;Node19 -->
<g id="edge52_Node000036_Node000019" class="edge">
<title>Node36&#45;&gt;Node19</title>
<g id="a_edge52_Node000036_Node000019"><a xlink:title=" ">
<path fill="none" stroke="#63b8ff" d="M560.44,-393.54C610.08,-382.51 684.07,-373.11 744,-395 841.18,-430.49 920.46,-533.66 950.27,-576.74"/>
<polygon fill="#63b8ff" stroke="#63b8ff" points="947.26,-578.54 955.77,-584.85 953.06,-574.61 947.26,-578.54"/>
</a>
</g>
</g>
<!-- Node36&#45;&gt;Node20 -->
<g id="edge50_Node000036_Node000020" class="edge">
<title>Node36&#45;&gt;Node20</title>
<g id="a_edge50_Node000036_Node000020"><a xlink:title=" ">
<path fill="none" stroke="#63b8ff" d="M520.34,-424.3C541.94,-445.08 583.37,-482.11 625,-504 627.68,-505.41 630.5,-506.73 633.38,-507.96"/>
<polygon fill="#63b8ff" stroke="#63b8ff" points="631.99,-511.18 642.58,-511.5 634.5,-504.65 631.99,-511.18"/>
</a>
</g>
</g>
<!-- Node36&#45;&gt;Node21 -->
<g id="edge51_Node000036_Node000021" class="edge">
<title>Node36&#45;&gt;Node21</title>
<g id="a_edge51_Node000036_Node000021"><a xlink:title=" ">
<path fill="none" stroke="#63b8ff" d="M511.68,-424.41C526.85,-457.59 567.11,-536.15 625,-578 626.81,-579.31 628.71,-580.52 630.69,-581.65"/>
<polygon fill="#63b8ff" stroke="#63b8ff" points="629.11,-584.77 639.64,-585.94 632.13,-578.46 629.11,-584.77"/>
</a>
</g>
</g>
<!-- Node36&#45;&gt;Node22 -->
<g id="edge54_Node000036_Node000022" class="edge">
<title>Node36&#45;&gt;Node22</title>
<g id="a_edge54_Node000036_Node000022"><a xlink:title=" ">
<path fill="none" stroke="#63b8ff" d="M560.68,-400.6C612.53,-395.79 689.78,-396.67 744,-433 794.3,-466.7 817.72,-539.31 826.56,-575.14"/>
<polygon fill="#63b8ff" stroke="#63b8ff" points="823.1,-575.72 828.75,-584.68 829.92,-574.15 823.1,-575.72"/>
</a>
</g>
</g>
<!-- Node36&#45;&gt;Node23 -->
<g id="edge53_Node000036_Node000023" class="edge">
<title>Node36&#45;&gt;Node23</title>
<g id="a_edge53_Node000036_Node000023"><a xlink:title=" ">
<path fill="none" stroke="#63b8ff" d="M540.1,-424.43C563.99,-434.87 596.34,-448.91 625,-461 632.56,-464.19 640.7,-467.56 648.43,-470.74"/>
<polygon fill="#63b8ff" stroke="#63b8ff" points="647,-473.94 657.58,-474.49 649.65,-467.46 647,-473.94"/>
</a>
</g>
</g>
<!-- Node36&#45;&gt;Node25 -->
<g id="edge48_Node000036_Node000025" class="edge">
<title>Node36&#45;&gt;Node25</title>
<g id="a_edge48_Node000036_Node000025"><a xlink:title=" ">
<path fill="none" stroke="#63b8ff" d="M522.27,-424.22C539.89,-440.11 567.59,-466.13 589,-491 606.86,-511.75 602.76,-525.03 625,-541 626.54,-542.11 628.16,-543.15 629.82,-544.13"/>
<polygon fill="#63b8ff" stroke="#63b8ff" points="627.94,-547.1 638.45,-548.39 631.04,-540.83 627.94,-547.1"/>
</a>
</g>
</g>
<!-- Node36&#45;&gt;Node31 -->
<g id="edge55_Node000036_Node000031" class="edge">
<title>Node36&#45;&gt;Node31</title>
<g id="a_edge55_Node000036_Node000031"><a xlink:title=" ">
<path fill="none" stroke="#63b8ff" d="M560.57,-401.91C571.14,-398.3 581.28,-392.94 589,-385 634.08,-338.62 578.37,-288.82 625,-244 646.74,-223.1 725.94,-210.87 779.56,-204.81"/>
<polygon fill="#63b8ff" stroke="#63b8ff" points="779.85,-208.3 789.42,-203.74 779.1,-201.34 779.85,-208.3"/>
</a>
</g>
</g>
<!-- Node36&#45;&gt;Node32 -->
<g id="edge59_Node000036_Node000032" class="edge">
<title>Node36&#45;&gt;Node32</title>
<g id="a_edge59_Node000036_Node000032"><a xlink:title=" ">
<path fill="none" stroke="#63b8ff" d="M560.82,-396.31C570.47,-393.21 580.21,-389.46 589,-385 607.07,-375.83 606.43,-365.13 625,-357 731.89,-310.19 769.65,-337.21 884,-314 893.44,-312.08 903.46,-309.84 913.09,-307.58"/>
<polygon fill="#63b8ff" stroke="#63b8ff" points="913.76,-311.01 922.67,-305.28 912.13,-304.2 913.76,-311.01"/>
</a>
</g>
</g>
<!-- Node36&#45;&gt;Node33 -->
<g id="edge58_Node000036_Node000033" class="edge">
<title>Node36&#45;&gt;Node33</title>
<g id="a_edge58_Node000036_Node000033"><a xlink:title=" ">
<path fill="none" stroke="#63b8ff" d="M560.7,-402.58C571.38,-398.93 581.54,-393.39 589,-385 655.41,-310.29 559.94,-238.88 625,-163 626.89,-160.8 629.03,-158.85 631.35,-157.13"/>
<polygon fill="#63b8ff" stroke="#63b8ff" points="632.83,-160.32 639.74,-152.29 629.33,-154.26 632.83,-160.32"/>
</a>
</g>
</g>
<!-- Node36&#45;&gt;Node34 -->
<g id="edge62_Node000036_Node000034" class="edge">
<title>Node36&#45;&gt;Node34</title>
<g id="a_edge62_Node000036_Node000034"><a xlink:title=" ">
<path fill="none" stroke="#63b8ff" d="M560.91,-401.07C571.2,-397.51 581.16,-392.38 589,-385 624.01,-352.06 587.57,-313.17 625,-283 666.69,-249.39 729.37,-246.03 774.64,-249.13"/>
<polygon fill="#63b8ff" stroke="#63b8ff" points="774.28,-252.62 784.53,-249.95 774.85,-245.64 774.28,-252.62"/>
</a>
</g>
</g>
<!-- Node37 -->
<g id="Node000037" class="node">
<title>Node37</title>
<g id="a_Node000037"><a xlink:href="exif-utils_8c.html#a400a16b1754150f721e9fca67ad89a52" target="_top" xlink:title="Store an ExifRational value into memory in EXIF format.">
<polygon fill="white" stroke="#666666" points="733.5,-190.5 635.5,-190.5 635.5,-171.5 733.5,-171.5 733.5,-190.5"/>
<text text-anchor="middle" x="684.5" y="-178.5" font-family="Helvetica,sans-Serif" font-size="10.00">exif_set_rational</text>
</a>
</g>
</g>
<!-- Node36&#45;&gt;Node37 -->
<g id="edge56_Node000036_Node000037" class="edge">
<title>Node36&#45;&gt;Node37</title>
<g id="a_edge56_Node000036_Node000037"><a xlink:title=" ">
<path fill="none" stroke="#63b8ff" d="M560.9,-402.22C571.44,-398.59 581.49,-393.14 589,-385 644.31,-325.03 573.1,-267.95 625,-205 627.67,-201.76 630.85,-198.95 634.33,-196.52"/>
<polygon fill="#63b8ff" stroke="#63b8ff" points="635.83,-199.69 642.76,-191.67 632.34,-193.62 635.83,-199.69"/>
</a>
</g>
</g>
<!-- Node38 -->
<g id="Node000038" class="node">
<title>Node38</title>
<g id="a_Node000038"><a xlink:href="exif-utils_8c.html#aca1790a72b1833dff1b0bf728052c3c5" target="_top" xlink:title="Store an ExifSRational value into memory in EXIF format.">
<polygon fill="white" stroke="#666666" points="884,-304.5 780,-304.5 780,-285.5 884,-285.5 884,-304.5"/>
<text text-anchor="middle" x="832" y="-292.5" font-family="Helvetica,sans-Serif" font-size="10.00">exif_set_srational</text>
</a>
</g>
</g>
<!-- Node36&#45;&gt;Node38 -->
<g id="edge60_Node000036_Node000038" class="edge">
<title>Node36&#45;&gt;Node38</title>
<g id="a_edge60_Node000036_Node000038"><a xlink:title=" ">
<path fill="none" stroke="#63b8ff" d="M560.9,-399.76C570.96,-396.3 580.83,-391.54 589,-385 615.09,-364.12 597.3,-337.69 625,-319 666.78,-290.8 724.47,-286.27 768.17,-287.95"/>
<polygon fill="#63b8ff" stroke="#63b8ff" points="767.85,-291.43 778.02,-288.46 768.21,-284.44 767.85,-291.43"/>
</a>
</g>
</g>
<!-- Node37&#45;&gt;Node31 -->
<g id="edge57_Node000037_Node000031" class="edge">
<title>Node37&#45;&gt;Node31</title>
<g id="a_edge57_Node000037_Node000031"><a xlink:title=" ">
<path fill="none" stroke="#63b8ff" d="M733.95,-187.33C748.57,-189.24 764.68,-191.34 779.49,-193.27"/>
<polygon fill="#63b8ff" stroke="#63b8ff" points="778.66,-196.69 789.03,-194.52 779.56,-189.75 778.66,-196.69"/>
</a>
</g>
</g>
<!-- Node38&#45;&gt;Node32 -->
<g id="edge61_Node000038_Node000032" class="edge">
<title>Node38&#45;&gt;Node32</title>
<g id="a_edge61_Node000038_Node000032"><a xlink:title=" ">
<path fill="none" stroke="#63b8ff" d="M884.38,-295C892.48,-295 900.88,-295 909.04,-295"/>
<polygon fill="#63b8ff" stroke="#63b8ff" points="908.85,-298.5 918.85,-295 908.85,-291.5 908.85,-298.5"/>
</a>
</g>
</g>
</g>
</svg>
