<?xml version="1.0" encoding="UTF-8" standalone="no"?>
<!DOCTYPE svg PUBLIC "-//W3C//DTD SVG 1.1//EN"
 "http://www.w3.org/Graphics/SVG/1.1/DTD/svg11.dtd">
<!-- Generated by graphviz version 7.0.1 (0)
 -->
<!-- Title: libexif/exif&#45;entry.h Pages: 1 -->
<svg width="680pt" height="423pt"
 viewBox="0.00 0.00 680.00 423.00" xmlns="http://www.w3.org/2000/svg" xmlns:xlink="http://www.w3.org/1999/xlink">
<g id="graph0" class="graph" transform="scale(1 1) rotate(0) translate(4 419)">
<title>libexif/exif&#45;entry.h</title>
<!-- Node1 -->
<g id="Node000001" class="node">
<title>Node1</title>
<g id="a_Node000001"><a xlink:title="Handling EXIF entries.">
<polygon fill="#999999" stroke="#666666" points="587.5,-415 483.5,-415 483.5,-396 587.5,-396 587.5,-415"/>
<text text-anchor="middle" x="535.5" y="-403" font-family="Helvetica,sans-Serif" font-size="10.00">libexif/exif&#45;entry.h</text>
</a>
</g>
</g>
<!-- Node2 -->
<g id="Node000002" class="node">
<title>Node2</title>
<g id="a_Node000002"><a xlink:href="exif-content_8h.html" target="_top" xlink:title="Handling EXIF IFDs.">
<polygon fill="white" stroke="#666666" points="551,-360 434,-360 434,-341 551,-341 551,-360"/>
<text text-anchor="middle" x="492.5" y="-348" font-family="Helvetica,sans-Serif" font-size="10.00">libexif/exif&#45;content.h</text>
</a>
</g>
</g>
<!-- Node1&#45;&gt;Node2 -->
<g id="edge1_Node000001_Node000002" class="edge">
<title>Node1&#45;&gt;Node2</title>
<g id="a_edge1_Node000001_Node000002"><a xlink:title=" ">
<path fill="none" stroke="#63b8ff" d="M523.23,-395.75C516.03,-388.73 507.42,-378.64 500.95,-369.87"/>
<polygon fill="#63b8ff" stroke="#63b8ff" points="503.91,-368 495.4,-361.69 498.12,-371.93 503.91,-368"/>
</a>
</g>
</g>
<!-- Node9 -->
<g id="Node000009" class="node">
<title>Node9</title>
<g id="a_Node000009"><a xlink:href="exif-mem_8h.html" target="_top" xlink:title="Define the ExifMem data type and the associated functions.">
<polygon fill="white" stroke="#666666" points="541.5,-129 435.5,-129 435.5,-110 541.5,-110 541.5,-129"/>
<text text-anchor="middle" x="488.5" y="-117" font-family="Helvetica,sans-Serif" font-size="10.00">libexif/exif&#45;mem.h</text>
</a>
</g>
</g>
<!-- Node1&#45;&gt;Node9 -->
<g id="edge25_Node000001_Node000009" class="edge">
<title>Node1&#45;&gt;Node9</title>
<g id="a_edge25_Node000001_Node000009"><a xlink:title=" ">
<path fill="none" stroke="#63b8ff" d="M541.8,-395.75C553.97,-377.98 579.5,-335.98 579.5,-296.5 579.5,-296.5 579.5,-296.5 579.5,-234 579.5,-191.04 539.32,-155.06 512.36,-135.75"/>
<polygon fill="#63b8ff" stroke="#63b8ff" points="514.59,-133.04 504.37,-130.26 510.63,-138.81 514.59,-133.04"/>
</a>
</g>
</g>
<!-- Node11 -->
<g id="Node000011" class="node">
<title>Node11</title>
<g id="a_Node000011"><a xlink:href="exif-format_8h.html" target="_top" xlink:title="Handling native EXIF data types.">
<polygon fill="white" stroke="#666666" points="672,-19 559,-19 559,0 672,0 672,-19"/>
<text text-anchor="middle" x="615.5" y="-7" font-family="Helvetica,sans-Serif" font-size="10.00">libexif/exif&#45;format.h</text>
</a>
</g>
</g>
<!-- Node1&#45;&gt;Node11 -->
<g id="edge24_Node000001_Node000011" class="edge">
<title>Node1&#45;&gt;Node11</title>
<g id="a_edge24_Node000001_Node000011"><a xlink:title=" ">
<path fill="none" stroke="#63b8ff" d="M549.04,-395.59C572.33,-379.05 617.5,-341.23 617.5,-296.5 617.5,-296.5 617.5,-296.5 617.5,-118.5 617.5,-87.92 616.69,-52.47 616.1,-30.77"/>
<polygon fill="#63b8ff" stroke="#63b8ff" points="619.6,-30.87 615.82,-20.97 612.61,-31.07 619.6,-30.87"/>
</a>
</g>
</g>
<!-- Node2&#45;&gt;Node1 -->
<g id="edge5_Node000002_Node000001" class="edge">
<title>Node2&#45;&gt;Node1</title>
<g id="a_edge5_Node000002_Node000001"><a xlink:title=" ">
<path fill="none" stroke="#63b8ff" d="M504.96,-360.44C512.19,-367.51 520.8,-377.62 527.23,-386.36"/>
<polygon fill="#63b8ff" stroke="#63b8ff" points="524.22,-388.17 532.72,-394.49 530.02,-384.25 524.22,-388.17"/>
</a>
</g>
</g>
<!-- Node3 -->
<g id="Node000003" class="node">
<title>Node3</title>
<g id="a_Node000003"><a xlink:href="exif-tag_8h.html" target="_top" xlink:title="Handling EXIF tags.">
<polygon fill="white" stroke="#666666" points="163.5,-244.5 67.5,-244.5 67.5,-225.5 163.5,-225.5 163.5,-244.5"/>
<text text-anchor="middle" x="115.5" y="-232.5" font-family="Helvetica,sans-Serif" font-size="10.00">libexif/exif&#45;tag.h</text>
</a>
</g>
</g>
<!-- Node2&#45;&gt;Node3 -->
<g id="edge2_Node000002_Node000003" class="edge">
<title>Node2&#45;&gt;Node3</title>
<g id="a_edge2_Node000002_Node000003"><a xlink:title=" ">
<path fill="none" stroke="#63b8ff" d="M433.56,-344.07C382.69,-338.17 307.78,-326.55 245.5,-305 205.81,-291.27 163.5,-266.73 138.29,-250.92"/>
<polygon fill="#63b8ff" stroke="#63b8ff" points="140.49,-248.17 130.18,-245.74 136.73,-254.07 140.49,-248.17"/>
</a>
</g>
</g>
<!-- Node6 -->
<g id="Node000006" class="node">
<title>Node6</title>
<g id="a_Node000006"><a xlink:href="exif-data_8h.html" target="_top" xlink:title="Defines the ExifData type and the associated functions.">
<polygon fill="white" stroke="#666666" points="356.5,-305 254.5,-305 254.5,-286 356.5,-286 356.5,-305"/>
<text text-anchor="middle" x="305.5" y="-293" font-family="Helvetica,sans-Serif" font-size="10.00">libexif/exif&#45;data.h</text>
</a>
</g>
</g>
<!-- Node2&#45;&gt;Node6 -->
<g id="edge6_Node000002_Node000006" class="edge">
<title>Node2&#45;&gt;Node6</title>
<g id="a_edge6_Node000002_Node000006"><a xlink:title=" ">
<path fill="none" stroke="#63b8ff" d="M455.56,-340.51C422.88,-331.76 375.59,-318.42 342.8,-308.71"/>
<polygon fill="#63b8ff" stroke="#63b8ff" points="343.89,-305.39 333.31,-305.88 341.89,-312.09 343.89,-305.39"/>
</a>
</g>
</g>
<!-- Node8 -->
<g id="Node000008" class="node">
<title>Node8</title>
<g id="a_Node000008"><a xlink:href="exif-log_8h.html" target="_top" xlink:title="Log message infrastructure.">
<polygon fill="white" stroke="#666666" points="435,-184 340,-184 340,-165 435,-165 435,-184"/>
<text text-anchor="middle" x="387.5" y="-172" font-family="Helvetica,sans-Serif" font-size="10.00">libexif/exif&#45;log.h</text>
</a>
</g>
</g>
<!-- Node2&#45;&gt;Node8 -->
<g id="edge22_Node000002_Node000008" class="edge">
<title>Node2&#45;&gt;Node8</title>
<g id="a_edge22_Node000002_Node000008"><a xlink:title=" ">
<path fill="none" stroke="#63b8ff" d="M491.2,-340.82C487.53,-318.75 475.43,-259.44 446.5,-220 437.81,-208.16 425.1,-198.01 413.69,-190.41"/>
<polygon fill="#63b8ff" stroke="#63b8ff" points="415.76,-187.57 405.43,-185.21 412.03,-193.49 415.76,-187.57"/>
</a>
</g>
</g>
<!-- Node2&#45;&gt;Node9 -->
<g id="edge23_Node000002_Node000009" class="edge">
<title>Node2&#45;&gt;Node9</title>
<g id="a_edge23_Node000002_Node000009"><a xlink:title=" ">
<path fill="none" stroke="#63b8ff" d="M493.23,-340.65C495.31,-314.03 500.77,-232.39 495.5,-165 494.87,-156.91 493.6,-148.07 492.31,-140.41"/>
<polygon fill="#63b8ff" stroke="#63b8ff" points="495.8,-140.02 490.57,-130.81 488.91,-141.27 495.8,-140.02"/>
</a>
</g>
</g>
<!-- Node4 -->
<g id="Node000004" class="node">
<title>Node4</title>
<g id="a_Node000004"><a xlink:href="exif-ifd_8h.html" target="_top" xlink:title=" ">
<polygon fill="white" stroke="#666666" points="93,-184 0,-184 0,-165 93,-165 93,-184"/>
<text text-anchor="middle" x="46.5" y="-172" font-family="Helvetica,sans-Serif" font-size="10.00">libexif/exif&#45;ifd.h</text>
</a>
</g>
</g>
<!-- Node3&#45;&gt;Node4 -->
<g id="edge3_Node000003_Node000004" class="edge">
<title>Node3&#45;&gt;Node4</title>
<g id="a_edge3_Node000003_Node000004"><a xlink:title=" ">
<path fill="none" stroke="#63b8ff" d="M105.02,-225.12C94.58,-216.27 78.33,-202.48 65.59,-191.69"/>
<polygon fill="#63b8ff" stroke="#63b8ff" points="68.12,-189.24 58.23,-185.45 63.6,-194.58 68.12,-189.24"/>
</a>
</g>
</g>
<!-- Node5 -->
<g id="Node000005" class="node">
<title>Node5</title>
<g id="a_Node000005"><a xlink:href="exif-data-type_8h.html" target="_top" xlink:title=" ">
<polygon fill="white" stroke="#666666" points="239.5,-184 111.5,-184 111.5,-165 239.5,-165 239.5,-184"/>
<text text-anchor="middle" x="175.5" y="-172" font-family="Helvetica,sans-Serif" font-size="10.00">libexif/exif&#45;data&#45;type.h</text>
</a>
</g>
</g>
<!-- Node3&#45;&gt;Node5 -->
<g id="edge4_Node000003_Node000005" class="edge">
<title>Node3&#45;&gt;Node5</title>
<g id="a_edge4_Node000003_Node000005"><a xlink:title=" ">
<path fill="none" stroke="#63b8ff" d="M124.61,-225.12C133.51,-216.44 147.28,-203.02 158.25,-192.32"/>
<polygon fill="#63b8ff" stroke="#63b8ff" points="160.5,-195.01 165.22,-185.53 155.61,-190 160.5,-195.01"/>
</a>
</g>
</g>
<!-- Node6&#45;&gt;Node2 -->
<g id="edge18_Node000006_Node000002" class="edge">
<title>Node6&#45;&gt;Node2</title>
<g id="a_edge18_Node000006_Node000002"><a xlink:title=" ">
<path fill="none" stroke="#63b8ff" d="M342.27,-305.45C374.91,-314.18 422.2,-327.52 455.03,-337.24"/>
<polygon fill="#63b8ff" stroke="#63b8ff" points="453.96,-340.57 464.54,-340.08 455.96,-333.86 453.96,-340.57"/>
</a>
</g>
</g>
<!-- Node6&#45;&gt;Node3 -->
<g id="edge17_Node000006_Node000003" class="edge">
<title>Node6&#45;&gt;Node3</title>
<g id="a_edge17_Node000006_Node000003"><a xlink:title=" ">
<path fill="none" stroke="#63b8ff" d="M276.64,-285.62C244.28,-275.65 191.58,-259.43 155.32,-248.26"/>
<polygon fill="#63b8ff" stroke="#63b8ff" points="156.66,-245.01 146.08,-245.41 154.6,-251.7 156.66,-245.01"/>
</a>
</g>
</g>
<!-- Node6&#45;&gt;Node4 -->
<g id="edge9_Node000006_Node000004" class="edge">
<title>Node6&#45;&gt;Node4</title>
<g id="a_edge9_Node000006_Node000004"><a xlink:title=" ">
<path fill="none" stroke="#63b8ff" d="M287.12,-285.59C269.53,-276.93 242.37,-263.18 219.5,-250 198.03,-237.63 194.77,-230.86 172.5,-220 145.65,-206.9 113.93,-195.72 89.03,-187.84"/>
<polygon fill="#63b8ff" stroke="#63b8ff" points="90.15,-184.53 79.56,-184.91 88.08,-191.21 90.15,-184.53"/>
</a>
</g>
</g>
<!-- Node6&#45;&gt;Node5 -->
<g id="edge8_Node000006_Node000005" class="edge">
<title>Node6&#45;&gt;Node5</title>
<g id="a_edge8_Node000006_Node000005"><a xlink:title=" ">
<path fill="none" stroke="#63b8ff" d="M295,-285.8C284.39,-276.95 267.6,-262.75 253.5,-250 232.14,-230.68 208.29,-207.68 192.65,-192.4"/>
<polygon fill="#63b8ff" stroke="#63b8ff" points="195.14,-189.94 185.55,-185.44 190.24,-194.94 195.14,-189.94"/>
</a>
</g>
</g>
<!-- Node7 -->
<g id="Node000007" class="node">
<title>Node7</title>
<g id="a_Node000007"><a xlink:href="exif-byte-order_8h.html" target="_top" xlink:title="Defines the ExifByteOrder enum and the associated functions.">
<polygon fill="white" stroke="#666666" points="375,-19 244,-19 244,0 375,0 375,-19"/>
<text text-anchor="middle" x="309.5" y="-7" font-family="Helvetica,sans-Serif" font-size="10.00">libexif/exif&#45;byte&#45;order.h</text>
</a>
</g>
</g>
<!-- Node6&#45;&gt;Node7 -->
<g id="edge7_Node000006_Node000007" class="edge">
<title>Node6&#45;&gt;Node7</title>
<g id="a_edge7_Node000006_Node000007"><a xlink:title=" ">
<path fill="none" stroke="#63b8ff" d="M300.53,-285.56C290.23,-266.14 267.5,-218.44 267.5,-175.5 267.5,-175.5 267.5,-175.5 267.5,-118.5 267.5,-85.25 285.01,-49.91 297.42,-29.04"/>
<polygon fill="#63b8ff" stroke="#63b8ff" points="300.37,-30.92 302.68,-20.58 294.43,-27.22 300.37,-30.92"/>
</a>
</g>
</g>
<!-- Node6&#45;&gt;Node8 -->
<g id="edge10_Node000006_Node000008" class="edge">
<title>Node6&#45;&gt;Node8</title>
<g id="a_edge10_Node000006_Node000008"><a xlink:title=" ">
<path fill="none" stroke="#63b8ff" d="M305.95,-285.91C307.1,-271.18 311.17,-240.7 325.5,-220 334.04,-207.66 347.16,-197.52 359.14,-190.06"/>
<polygon fill="#63b8ff" stroke="#63b8ff" points="360.62,-193.25 367.5,-185.19 357.09,-187.2 360.62,-193.25"/>
</a>
</g>
</g>
<!-- Node6&#45;&gt;Node9 -->
<g id="edge21_Node000006_Node000009" class="edge">
<title>Node6&#45;&gt;Node9</title>
<g id="a_edge21_Node000006_Node000009"><a xlink:title=" ">
<path fill="none" stroke="#63b8ff" d="M356.79,-289.91C386.54,-284.7 422.72,-273.59 446.5,-250 476.47,-220.26 485.07,-168.97 487.52,-140.68"/>
<polygon fill="#63b8ff" stroke="#63b8ff" points="491,-141.19 488.17,-130.98 484.01,-140.72 491,-141.19"/>
</a>
</g>
</g>
<!-- Node14 -->
<g id="Node000014" class="node">
<title>Node14</title>
<g id="a_Node000014"><a xlink:href="exif-mnote-data_8h.html" target="_top" xlink:title="Handling EXIF MakerNote tags.">
<polygon fill="white" stroke="#666666" points="437,-250 334,-250 334,-220 437,-220 437,-250"/>
<text text-anchor="start" x="342" y="-238" font-family="Helvetica,sans-Serif" font-size="10.00">libexif/exif&#45;mnote</text>
<text text-anchor="middle" x="385.5" y="-227" font-family="Helvetica,sans-Serif" font-size="10.00">&#45;data.h</text>
</a>
</g>
</g>
<!-- Node6&#45;&gt;Node14 -->
<g id="edge19_Node000006_Node000014" class="edge">
<title>Node6&#45;&gt;Node14</title>
<g id="a_edge19_Node000006_Node000014"><a xlink:title=" ">
<path fill="none" stroke="#63b8ff" d="M317.65,-285.62C328.02,-278.03 343.35,-266.82 356.81,-256.98"/>
<polygon fill="#63b8ff" stroke="#63b8ff" points="358.53,-260.06 364.53,-251.33 354.39,-254.41 358.53,-260.06"/>
</a>
</g>
</g>
<!-- Node8&#45;&gt;Node9 -->
<g id="edge11_Node000008_Node000009" class="edge">
<title>Node8&#45;&gt;Node9</title>
<g id="a_edge11_Node000008_Node000009"><a xlink:title=" ">
<path fill="none" stroke="#63b8ff" d="M404.63,-164.51C420.25,-156.31 443.58,-144.07 461.67,-134.58"/>
<polygon fill="#63b8ff" stroke="#63b8ff" points="463.05,-137.81 470.28,-130.06 459.8,-131.61 463.05,-137.81"/>
</a>
</g>
</g>
<!-- Node13 -->
<g id="Node000013" class="node">
<title>Node13</title>
<g id="a_Node000013"><a xlink:title=" ">
<polygon fill="#e0e0e0" stroke="#999999" points="415.5,-129 359.5,-129 359.5,-110 415.5,-110 415.5,-129"/>
<text text-anchor="middle" x="387.5" y="-117" font-family="Helvetica,sans-Serif" font-size="10.00">stdarg.h</text>
</a>
</g>
</g>
<!-- Node8&#45;&gt;Node13 -->
<g id="edge16_Node000008_Node000013" class="edge">
<title>Node8&#45;&gt;Node13</title>
<g id="a_edge16_Node000008_Node000013"><a xlink:title=" ">
<path fill="none" stroke="#63b8ff" d="M387.5,-164.75C387.5,-158.27 387.5,-149.16 387.5,-140.9"/>
<polygon fill="#63b8ff" stroke="#63b8ff" points="391,-140.96 387.5,-130.96 384,-140.96 391,-140.96"/>
</a>
</g>
</g>
<!-- Node10 -->
<g id="Node000010" class="node">
<title>Node10</title>
<g id="a_Node000010"><a xlink:href="exif-utils_8h.html" target="_top" xlink:title="EXIF data manipulation functions and types.">
<polygon fill="white" stroke="#666666" points="539,-74 438,-74 438,-55 539,-55 539,-74"/>
<text text-anchor="middle" x="488.5" y="-62" font-family="Helvetica,sans-Serif" font-size="10.00">libexif/exif&#45;utils.h</text>
</a>
</g>
</g>
<!-- Node9&#45;&gt;Node10 -->
<g id="edge12_Node000009_Node000010" class="edge">
<title>Node9&#45;&gt;Node10</title>
<g id="a_edge12_Node000009_Node000010"><a xlink:title=" ">
<path fill="none" stroke="#63b8ff" d="M488.5,-109.75C488.5,-103.27 488.5,-94.16 488.5,-85.9"/>
<polygon fill="#63b8ff" stroke="#63b8ff" points="492,-85.96 488.5,-75.96 485,-85.96 492,-85.96"/>
</a>
</g>
</g>
<!-- Node10&#45;&gt;Node7 -->
<g id="edge13_Node000010_Node000007" class="edge">
<title>Node10&#45;&gt;Node7</title>
<g id="a_edge13_Node000010_Node000007"><a xlink:title=" ">
<path fill="none" stroke="#63b8ff" d="M458.14,-54.51C428.6,-45.76 383.52,-32.42 350.75,-22.71"/>
<polygon fill="#63b8ff" stroke="#63b8ff" points="351.75,-19.36 341.17,-19.88 349.76,-26.07 351.75,-19.36"/>
</a>
</g>
</g>
<!-- Node10&#45;&gt;Node11 -->
<g id="edge14_Node000010_Node000011" class="edge">
<title>Node10&#45;&gt;Node11</title>
<g id="a_edge14_Node000010_Node000011"><a xlink:title=" ">
<path fill="none" stroke="#63b8ff" d="M510.04,-54.51C530.24,-46.08 560.67,-33.38 583.66,-23.79"/>
<polygon fill="#63b8ff" stroke="#63b8ff" points="585,-27.02 592.88,-19.94 582.3,-20.56 585,-27.02"/>
</a>
</g>
</g>
<!-- Node12 -->
<g id="Node000012" class="node">
<title>Node12</title>
<g id="a_Node000012"><a xlink:title=" ">
<polygon fill="#e0e0e0" stroke="#999999" points="534.5,-19 442.5,-19 442.5,0 534.5,0 534.5,-19"/>
<text text-anchor="middle" x="488.5" y="-7" font-family="Helvetica,sans-Serif" font-size="10.00">libexif/_stdint.h</text>
</a>
</g>
</g>
<!-- Node10&#45;&gt;Node12 -->
<g id="edge15_Node000010_Node000012" class="edge">
<title>Node10&#45;&gt;Node12</title>
<g id="a_edge15_Node000010_Node000012"><a xlink:title=" ">
<path fill="none" stroke="#63b8ff" d="M488.5,-54.75C488.5,-48.27 488.5,-39.16 488.5,-30.9"/>
<polygon fill="#63b8ff" stroke="#63b8ff" points="492,-30.96 488.5,-20.96 485,-30.96 492,-30.96"/>
</a>
</g>
</g>
<!-- Node14&#45;&gt;Node8 -->
<g id="edge20_Node000014_Node000008" class="edge">
<title>Node14&#45;&gt;Node8</title>
<g id="a_edge20_Node000014_Node000008"><a xlink:title=" ">
<path fill="none" stroke="#63b8ff" d="M385.99,-219.54C386.24,-212.34 386.54,-203.53 386.81,-195.68"/>
<polygon fill="#63b8ff" stroke="#63b8ff" points="390.31,-195.8 387.15,-185.69 383.31,-195.56 390.31,-195.8"/>
</a>
</g>
</g>
</g>
</svg>
