<?xml version="1.0" encoding="UTF-8" standalone="no"?>
<!DOCTYPE svg PUBLIC "-//W3C//DTD SVG 1.1//EN"
 "http://www.w3.org/Graphics/SVG/1.1/DTD/svg11.dtd">
<!-- Generated by graphviz version 7.0.1 (0)
 -->
<!-- Title: exif_log_new Pages: 1 -->
<svg width="423pt" height="249pt"
 viewBox="0.00 0.00 423.00 249.00" xmlns="http://www.w3.org/2000/svg" xmlns:xlink="http://www.w3.org/1999/xlink">
<g id="graph0" class="graph" transform="scale(1 1) rotate(0) translate(4 245)">
<title>exif_log_new</title>
<!-- Node1 -->
<g id="Node000001" class="node">
<title>Node1</title>
<g id="a_Node000001"><a xlink:title="Create a new logging instance.">
<polygon fill="#999999" stroke="#666666" points="81,-112 0,-112 0,-93 81,-93 81,-112"/>
<text text-anchor="middle" x="40.5" y="-100" font-family="Helvetica,sans-Serif" font-size="10.00">exif_log_new</text>
</a>
</g>
</g>
<!-- Node2 -->
<g id="Node000002" class="node">
<title>Node2</title>
<g id="a_Node000002"><a xlink:href="exif-log_8c.html#a35532931934dd5c69d355fc8e51fc2c3" target="_top" xlink:title=" ">
<polygon fill="white" stroke="#666666" points="238.5,-204 126.5,-204 126.5,-185 238.5,-185 238.5,-204"/>
<text text-anchor="middle" x="182.5" y="-192" font-family="Helvetica,sans-Serif" font-size="10.00">exif_log_new_mem</text>
</a>
</g>
</g>
<!-- Node1&#45;&gt;Node2 -->
<g id="edge1_Node000001_Node000002" class="edge">
<title>Node1&#45;&gt;Node2</title>
<g id="a_edge1_Node000001_Node000002"><a xlink:title=" ">
<path fill="none" stroke="#63b8ff" d="M56.48,-112.35C80.59,-128.19 128.2,-159.48 157.21,-178.54"/>
<polygon fill="#63b8ff" stroke="#63b8ff" points="155.08,-181.33 165.36,-183.89 158.93,-175.48 155.08,-181.33"/>
</a>
</g>
</g>
<!-- Node5 -->
<g id="Node000005" class="node">
<title>Node5</title>
<g id="a_Node000005"><a xlink:href="exif-mem_8c.html#acc8fd4e1a319a790581975db6f1a7233" target="_top" xlink:title="Create a new ExifMem with default values for your convenience.">
<polygon fill="white" stroke="#666666" points="248,-112 117,-112 117,-93 248,-93 248,-112"/>
<text text-anchor="middle" x="182.5" y="-100" font-family="Helvetica,sans-Serif" font-size="10.00">exif_mem_new_default</text>
</a>
</g>
</g>
<!-- Node1&#45;&gt;Node5 -->
<g id="edge4_Node000001_Node000005" class="edge">
<title>Node1&#45;&gt;Node5</title>
<g id="a_edge4_Node000001_Node000005"><a xlink:title=" ">
<path fill="none" stroke="#63b8ff" d="M81.24,-102.5C88.86,-102.5 97.06,-102.5 105.39,-102.5"/>
<polygon fill="#63b8ff" stroke="#63b8ff" points="105.25,-106 115.25,-102.5 105.25,-99 105.25,-106"/>
</a>
</g>
</g>
<!-- Node10 -->
<g id="Node000010" class="node">
<title>Node10</title>
<g id="a_Node000010"><a xlink:href="exif-mem_8c.html#a66744e0987af08c443df247ce55f7d87" target="_top" xlink:title="Unrefcount an ExifMem.">
<polygon fill="white" stroke="#666666" points="231,-38 134,-38 134,-19 231,-19 231,-38"/>
<text text-anchor="middle" x="182.5" y="-26" font-family="Helvetica,sans-Serif" font-size="10.00">exif_mem_unref</text>
</a>
</g>
</g>
<!-- Node1&#45;&gt;Node10 -->
<g id="edge9_Node000001_Node000010" class="edge">
<title>Node1&#45;&gt;Node10</title>
<g id="a_edge9_Node000001_Node000010"><a xlink:title=" ">
<path fill="none" stroke="#63b8ff" d="M60.38,-92.52C84.21,-79.93 125.4,-58.15 153.05,-43.54"/>
<polygon fill="#63b8ff" stroke="#63b8ff" points="154.37,-46.8 161.58,-39.03 151.1,-40.61 154.37,-46.8"/>
</a>
</g>
</g>
<!-- Node3 -->
<g id="Node000003" class="node">
<title>Node3</title>
<g id="a_Node000003"><a xlink:href="exif-mem_8c.html#a68be7c7afc8cff75adc3b1a28b5ae9a2" target="_top" xlink:title=" ">
<polygon fill="white" stroke="#666666" points="397,-241 302,-241 302,-222 397,-222 397,-241"/>
<text text-anchor="middle" x="349.5" y="-229" font-family="Helvetica,sans-Serif" font-size="10.00">exif_mem_alloc</text>
</a>
</g>
</g>
<!-- Node2&#45;&gt;Node3 -->
<g id="edge2_Node000002_Node000003" class="edge">
<title>Node2&#45;&gt;Node3</title>
<g id="a_edge2_Node000002_Node000003"><a xlink:title=" ">
<path fill="none" stroke="#63b8ff" d="M227.72,-204.42C247.78,-208.92 271.73,-214.29 293,-219.05"/>
<polygon fill="#63b8ff" stroke="#63b8ff" points="292.16,-222.45 302.68,-221.23 293.69,-215.62 292.16,-222.45"/>
</a>
</g>
</g>
<!-- Node4 -->
<g id="Node000004" class="node">
<title>Node4</title>
<g id="a_Node000004"><a xlink:href="exif-mem_8c.html#af28c61972f529be46907956e0b3e7a60" target="_top" xlink:title="Refcount an ExifMem.">
<polygon fill="white" stroke="#666666" points="392,-204 307,-204 307,-185 392,-185 392,-204"/>
<text text-anchor="middle" x="349.5" y="-192" font-family="Helvetica,sans-Serif" font-size="10.00">exif_mem_ref</text>
</a>
</g>
</g>
<!-- Node2&#45;&gt;Node4 -->
<g id="edge3_Node000002_Node000004" class="edge">
<title>Node2&#45;&gt;Node4</title>
<g id="a_edge3_Node000002_Node000004"><a xlink:title=" ">
<path fill="none" stroke="#63b8ff" d="M238.9,-194.5C257.03,-194.5 277.11,-194.5 295.09,-194.5"/>
<polygon fill="#63b8ff" stroke="#63b8ff" points="295.04,-198 305.04,-194.5 295.04,-191 295.04,-198"/>
</a>
</g>
</g>
<!-- Node6 -->
<g id="Node000006" class="node">
<title>Node6</title>
<g id="a_Node000006"><a xlink:href="exif-mem_8c.html#a9d47487760e137ed23df5e1e79b3d3cd" target="_top" xlink:title="Default memory allocation function.">
<polygon fill="white" stroke="#666666" points="410,-167 289,-167 289,-148 410,-148 410,-167"/>
<text text-anchor="middle" x="349.5" y="-155" font-family="Helvetica,sans-Serif" font-size="10.00">exif_mem_alloc_func</text>
</a>
</g>
</g>
<!-- Node5&#45;&gt;Node6 -->
<g id="edge5_Node000005_Node000006" class="edge">
<title>Node5&#45;&gt;Node6</title>
<g id="a_edge5_Node000005_Node000006"><a xlink:title=" ">
<path fill="none" stroke="#63b8ff" d="M208.5,-112.34C228.71,-120.15 257.99,-131.1 284,-139.5 289.12,-141.16 294.5,-142.8 299.88,-144.39"/>
<polygon fill="#63b8ff" stroke="#63b8ff" points="298.8,-147.72 309.38,-147.12 300.73,-140.99 298.8,-147.72"/>
</a>
</g>
</g>
<!-- Node7 -->
<g id="Node000007" class="node">
<title>Node7</title>
<g id="a_Node000007"><a xlink:href="exif-mem_8c.html#a30e654456ffed5baaf5a23f1d8817aa6" target="_top" xlink:title="Default memory free function.">
<polygon fill="white" stroke="#666666" points="408,-130 291,-130 291,-111 408,-111 408,-130"/>
<text text-anchor="middle" x="349.5" y="-118" font-family="Helvetica,sans-Serif" font-size="10.00">exif_mem_free_func</text>
</a>
</g>
</g>
<!-- Node5&#45;&gt;Node7 -->
<g id="edge6_Node000005_Node000007" class="edge">
<title>Node5&#45;&gt;Node7</title>
<g id="a_edge6_Node000005_Node000007"><a xlink:title=" ">
<path fill="none" stroke="#63b8ff" d="M248.24,-109.56C258.41,-110.67 268.95,-111.82 279.22,-112.94"/>
<polygon fill="#63b8ff" stroke="#63b8ff" points="278.83,-116.42 289.15,-114.03 279.59,-109.46 278.83,-116.42"/>
</a>
</g>
</g>
<!-- Node8 -->
<g id="Node000008" class="node">
<title>Node8</title>
<g id="a_Node000008"><a xlink:href="exif-mem_8c.html#a7c75dbf49ec65be9e1aa5b79d79c7ea6" target="_top" xlink:title="Create a new ExifMem.">
<polygon fill="white" stroke="#666666" points="395.5,-93 303.5,-93 303.5,-74 395.5,-74 395.5,-93"/>
<text text-anchor="middle" x="349.5" y="-81" font-family="Helvetica,sans-Serif" font-size="10.00">exif_mem_new</text>
</a>
</g>
</g>
<!-- Node5&#45;&gt;Node8 -->
<g id="edge7_Node000005_Node000008" class="edge">
<title>Node5&#45;&gt;Node8</title>
<g id="a_edge7_Node000005_Node000008"><a xlink:title=" ">
<path fill="none" stroke="#63b8ff" d="M248.24,-95.05C262.7,-93.38 277.93,-91.63 292.02,-90"/>
<polygon fill="#63b8ff" stroke="#63b8ff" points="292.01,-93.53 301.55,-88.91 291.21,-86.57 292.01,-93.53"/>
</a>
</g>
</g>
<!-- Node9 -->
<g id="Node000009" class="node">
<title>Node9</title>
<g id="a_Node000009"><a xlink:href="exif-mem_8c.html#a92c900883df8fe466c158d00153404fe" target="_top" xlink:title="Default memory reallocation function.">
<polygon fill="white" stroke="#666666" points="415,-56 284,-56 284,-37 415,-37 415,-56"/>
<text text-anchor="middle" x="349.5" y="-44" font-family="Helvetica,sans-Serif" font-size="10.00">exif_mem_realloc_func</text>
</a>
</g>
</g>
<!-- Node5&#45;&gt;Node9 -->
<g id="edge8_Node000005_Node000009" class="edge">
<title>Node5&#45;&gt;Node9</title>
<g id="a_edge8_Node000005_Node000009"><a xlink:title=" ">
<path fill="none" stroke="#63b8ff" d="M208.95,-92.6C229.16,-84.86 258.23,-74.03 284,-65.5 289.89,-63.55 296.11,-61.59 302.27,-59.71"/>
<polygon fill="#63b8ff" stroke="#63b8ff" points="303.19,-63.09 311.77,-56.87 301.19,-56.39 303.19,-63.09"/>
</a>
</g>
</g>
<!-- Node11 -->
<g id="Node000011" class="node">
<title>Node11</title>
<g id="a_Node000011"><a xlink:href="exif-mem_8c.html#a43190b81b4b4bdb4ffb89bfb612051b1" target="_top" xlink:title=" ">
<polygon fill="white" stroke="#666666" points="395,-19 304,-19 304,0 395,0 395,-19"/>
<text text-anchor="middle" x="349.5" y="-7" font-family="Helvetica,sans-Serif" font-size="10.00">exif_mem_free</text>
</a>
</g>
</g>
<!-- Node10&#45;&gt;Node11 -->
<g id="edge10_Node000010_Node000011" class="edge">
<title>Node10&#45;&gt;Node11</title>
<g id="a_edge10_Node000010_Node000011"><a xlink:title=" ">
<path fill="none" stroke="#63b8ff" d="M231.22,-23C250.32,-20.81 272.46,-18.26 292.32,-15.97"/>
<polygon fill="#63b8ff" stroke="#63b8ff" points="292.68,-19.45 302.21,-14.83 291.87,-12.5 292.68,-19.45"/>
</a>
</g>
</g>
</g>
</svg>
