<?xml version="1.0" encoding="UTF-8" standalone="no"?>
<!DOCTYPE svg PUBLIC "-//W3C//DTD SVG 1.1//EN"
 "http://www.w3.org/Graphics/SVG/1.1/DTD/svg11.dtd">
<!-- Generated by graphviz version 2.44.1 (0)
 -->
<!-- Title: exif_loader_unref Pages: 1 -->
<svg width="761pt" height="142pt"
 viewBox="0.00 0.00 761.00 142.00" xmlns="http://www.w3.org/2000/svg" xmlns:xlink="http://www.w3.org/1999/xlink">
<g id="graph0" class="graph" transform="scale(1 1) rotate(0) translate(4 138)">
<title>exif_loader_unref</title>
<polygon fill="white" stroke="transparent" points="-4,4 -4,-138 757,-138 757,4 -4,4"/>
<!-- Node1 -->
<g id="node1" class="node">
<title>Node1</title>
<g id="a_node1"><a xlink:title="Decrease the refcount of the ExifLoader.">
<polygon fill="#bfbfbf" stroke="black" points="0,-57.5 0,-76.5 102,-76.5 102,-57.5 0,-57.5"/>
<text text-anchor="middle" x="51" y="-64.5" font-family="Helvetica,sans-Serif" font-size="10.00">exif_loader_unref</text>
</a>
</g>
</g>
<!-- Node2 -->
<g id="node2" class="node">
<title>Node2</title>
<g id="a_node2"><a xlink:href="exif-loader_8c.html#a388dfe484e1ad9c424bf3f029ec50248" target="_top" xlink:title=" ">
<polygon fill="white" stroke="black" points="138,-57.5 138,-76.5 234,-76.5 234,-57.5 138,-57.5"/>
<text text-anchor="middle" x="186" y="-64.5" font-family="Helvetica,sans-Serif" font-size="10.00">exif_loader_free</text>
</a>
</g>
</g>
<!-- Node1&#45;&gt;Node2 -->
<g id="edge1" class="edge">
<title>Node1&#45;&gt;Node2</title>
<path fill="none" stroke="midnightblue" d="M102.28,-67C110.54,-67 119.16,-67 127.58,-67"/>
<polygon fill="midnightblue" stroke="midnightblue" points="127.72,-70.5 137.72,-67 127.72,-63.5 127.72,-70.5"/>
</g>
<!-- Node3 -->
<g id="node3" class="node">
<title>Node3</title>
<g id="a_node3"><a xlink:href="exif-loader_8c.html#a080d8ebb5006c1306a3a798ff60253a5" target="_top" xlink:title="Free any data previously loaded and reset the ExifLoader to its newly&#45;initialized state.">
<polygon fill="white" stroke="black" points="392,-114.5 392,-133.5 493,-133.5 493,-114.5 392,-114.5"/>
<text text-anchor="middle" x="442.5" y="-121.5" font-family="Helvetica,sans-Serif" font-size="10.00">exif_loader_reset</text>
</a>
</g>
</g>
<!-- Node2&#45;&gt;Node3 -->
<g id="edge2" class="edge">
<title>Node2&#45;&gt;Node3</title>
<path fill="none" stroke="midnightblue" d="M207.01,-76.53C223.54,-84.02 247.81,-94.13 270,-100 306.48,-109.65 348.41,-115.61 381.69,-119.18"/>
<polygon fill="midnightblue" stroke="midnightblue" points="381.41,-122.67 391.72,-120.21 382.13,-115.7 381.41,-122.67"/>
</g>
<!-- Node4 -->
<g id="node4" class="node">
<title>Node4</title>
<g id="a_node4"><a xlink:href="exif-mem_8c.html#a43190b81b4b4bdb4ffb89bfb612051b1" target="_top" xlink:title=" ">
<polygon fill="white" stroke="black" points="662,-57.5 662,-76.5 753,-76.5 753,-57.5 662,-57.5"/>
<text text-anchor="middle" x="707.5" y="-64.5" font-family="Helvetica,sans-Serif" font-size="10.00">exif_mem_free</text>
</a>
</g>
</g>
<!-- Node2&#45;&gt;Node4 -->
<g id="edge9" class="edge">
<title>Node2&#45;&gt;Node4</title>
<path fill="none" stroke="midnightblue" d="M234.11,-68.48C314.5,-70.76 483.32,-74.54 626,-71 634.35,-70.79 643.17,-70.46 651.8,-70.08"/>
<polygon fill="midnightblue" stroke="midnightblue" points="651.98,-73.58 661.81,-69.62 651.65,-66.59 651.98,-73.58"/>
</g>
<!-- Node5 -->
<g id="node5" class="node">
<title>Node5</title>
<g id="a_node5"><a xlink:href="exif-log_8c.html#a7a9b738a7429197d68c80ffedac7d8fb" target="_top" xlink:title=" ">
<polygon fill="white" stroke="black" points="270,-38.5 270,-57.5 356,-57.5 356,-38.5 270,-38.5"/>
<text text-anchor="middle" x="313" y="-45.5" font-family="Helvetica,sans-Serif" font-size="10.00">exif_log_unref</text>
</a>
</g>
</g>
<!-- Node2&#45;&gt;Node5 -->
<g id="edge4" class="edge">
<title>Node2&#45;&gt;Node5</title>
<path fill="none" stroke="midnightblue" d="M234.26,-59.82C242.51,-58.56 251.15,-57.25 259.54,-55.97"/>
<polygon fill="midnightblue" stroke="midnightblue" points="260.24,-59.41 269.6,-54.44 259.19,-52.49 260.24,-59.41"/>
</g>
<!-- Node7 -->
<g id="node7" class="node">
<title>Node7</title>
<g id="a_node7"><a xlink:href="exif-mem_8c.html#a66744e0987af08c443df247ce55f7d87" target="_top" xlink:title="Unrefcount an ExifMem.">
<polygon fill="white" stroke="black" points="529,-0.5 529,-19.5 626,-19.5 626,-0.5 529,-0.5"/>
<text text-anchor="middle" x="577.5" y="-7.5" font-family="Helvetica,sans-Serif" font-size="10.00">exif_mem_unref</text>
</a>
</g>
</g>
<!-- Node2&#45;&gt;Node7 -->
<g id="edge10" class="edge">
<title>Node2&#45;&gt;Node7</title>
<path fill="none" stroke="midnightblue" d="M203.19,-57.41C219.46,-48.3 245.56,-35.13 270,-29 354.75,-7.75 456.59,-5.92 518.92,-7.36"/>
<polygon fill="midnightblue" stroke="midnightblue" points="518.86,-10.86 528.95,-7.62 519.05,-3.86 518.86,-10.86"/>
</g>
<!-- Node3&#45;&gt;Node4 -->
<g id="edge3" class="edge">
<title>Node3&#45;&gt;Node4</title>
<path fill="none" stroke="midnightblue" d="M493.36,-120.93C530.43,-117.81 581.99,-111.7 626,-100 643.72,-95.29 662.74,-87.62 677.84,-80.87"/>
<polygon fill="midnightblue" stroke="midnightblue" points="679.51,-83.95 687.14,-76.6 676.59,-77.59 679.51,-83.95"/>
</g>
<!-- Node6 -->
<g id="node6" class="node">
<title>Node6</title>
<g id="a_node6"><a xlink:href="exif-log_8c.html#acd0808d6d5be73f28059797c2e2e67dc" target="_top" xlink:title="Delete instance of ExifLog.">
<polygon fill="white" stroke="black" points="402.5,-38.5 402.5,-57.5 482.5,-57.5 482.5,-38.5 402.5,-38.5"/>
<text text-anchor="middle" x="442.5" y="-45.5" font-family="Helvetica,sans-Serif" font-size="10.00">exif_log_free</text>
</a>
</g>
</g>
<!-- Node5&#45;&gt;Node6 -->
<g id="edge5" class="edge">
<title>Node5&#45;&gt;Node6</title>
<path fill="none" stroke="midnightblue" d="M356.1,-48C367.66,-48 380.29,-48 392.21,-48"/>
<polygon fill="midnightblue" stroke="midnightblue" points="392.46,-51.5 402.46,-48 392.46,-44.5 392.46,-51.5"/>
</g>
<!-- Node6&#45;&gt;Node4 -->
<g id="edge6" class="edge">
<title>Node6&#45;&gt;Node4</title>
<path fill="none" stroke="midnightblue" d="M482.59,-50.82C527.44,-54.06 601.28,-59.4 651.81,-63.05"/>
<polygon fill="midnightblue" stroke="midnightblue" points="651.68,-66.55 661.91,-63.78 652.19,-59.57 651.68,-66.55"/>
</g>
<!-- Node6&#45;&gt;Node7 -->
<g id="edge7" class="edge">
<title>Node6&#45;&gt;Node7</title>
<path fill="none" stroke="midnightblue" d="M477.06,-38.41C494.07,-33.55 514.93,-27.59 533.14,-22.39"/>
<polygon fill="midnightblue" stroke="midnightblue" points="534.3,-25.7 542.95,-19.59 532.37,-18.97 534.3,-25.7"/>
</g>
<!-- Node7&#45;&gt;Node4 -->
<g id="edge8" class="edge">
<title>Node7&#45;&gt;Node4</title>
<path fill="none" stroke="midnightblue" d="M599.92,-19.54C620.69,-28.79 652.4,-42.91 675.84,-53.35"/>
<polygon fill="midnightblue" stroke="midnightblue" points="674.45,-56.56 685.01,-57.43 677.29,-50.16 674.45,-56.56"/>
</g>
</g>
</svg>
