<?xml version="1.0" encoding="UTF-8" standalone="no"?>
<!DOCTYPE svg PUBLIC "-//W3C//DTD SVG 1.1//EN"
 "http://www.w3.org/Graphics/SVG/1.1/DTD/svg11.dtd">
<!-- Generated by graphviz version 2.44.1 (0)
 -->
<!-- Title: libexif/exif&#45;tag.h Pages: 1 -->
<svg width="2815pt" height="408pt"
 viewBox="0.00 0.00 2815.41 408.00" xmlns="http://www.w3.org/2000/svg" xmlns:xlink="http://www.w3.org/1999/xlink">
<g id="graph0" class="graph" transform="scale(1 1) rotate(0) translate(4 404)">
<title>libexif/exif&#45;tag.h</title>
<polygon fill="white" stroke="transparent" points="-4,4 -4,-404 2811.41,-404 2811.41,4 -4,4"/>
<!-- Node1 -->
<g id="node1" class="node">
<title>Node1</title>
<g id="a_node1"><a xlink:title="Handling EXIF tags.">
<polygon fill="#bfbfbf" stroke="black" points="2403.41,-380.5 2403.41,-399.5 2499.41,-399.5 2499.41,-380.5 2403.41,-380.5"/>
<text text-anchor="middle" x="2451.41" y="-387.5" font-family="Helvetica,sans-Serif" font-size="10.00">libexif/exif&#45;tag.h</text>
</a>
</g>
</g>
<!-- Node2 -->
<g id="node2" class="node">
<title>Node2</title>
<g id="a_node2"><a xlink:href="exif-content_8h.html" target="_top" xlink:title="Handling EXIF IFDs.">
<polygon fill="white" stroke="black" points="2160.91,-324.5 2160.91,-343.5 2277.91,-343.5 2277.91,-324.5 2160.91,-324.5"/>
<text text-anchor="middle" x="2219.41" y="-331.5" font-family="Helvetica,sans-Serif" font-size="10.00">libexif/exif&#45;content.h</text>
</a>
</g>
</g>
<!-- Node1&#45;&gt;Node2 -->
<g id="edge1" class="edge">
<title>Node1&#45;&gt;Node2</title>
<path fill="none" stroke="midnightblue" d="M2404.8,-378.15C2360.97,-367.95 2296.23,-352.88 2256,-343.52"/>
<polygon fill="midnightblue" stroke="midnightblue" points="2404.11,-381.59 2414.65,-380.44 2405.7,-374.77 2404.11,-381.59"/>
</g>
<!-- Node4 -->
<g id="node4" class="node">
<title>Node4</title>
<g id="a_node4"><a xlink:href="exif-data_8h.html" target="_top" xlink:title="Defines the ExifData type and the associated functions.">
<polygon fill="white" stroke="black" points="1366.41,-268.5 1366.41,-287.5 1468.41,-287.5 1468.41,-268.5 1366.41,-268.5"/>
<text text-anchor="middle" x="1417.41" y="-275.5" font-family="Helvetica,sans-Serif" font-size="10.00">libexif/exif&#45;data.h</text>
</a>
</g>
</g>
<!-- Node1&#45;&gt;Node4 -->
<g id="edge59" class="edge">
<title>Node1&#45;&gt;Node4</title>
<path fill="none" stroke="midnightblue" d="M2393.25,-382.81C2209.35,-363.25 1642.35,-302.93 1468.57,-284.44"/>
<polygon fill="midnightblue" stroke="midnightblue" points="2392.95,-386.3 2403.27,-383.88 2393.69,-379.34 2392.95,-386.3"/>
</g>
<!-- Node41 -->
<g id="node41" class="node">
<title>Node41</title>
<g id="a_node41"><a xlink:href="exif-gps-ifd_8h.html" target="_top" xlink:title="Info about GPS tags.">
<polygon fill="white" stroke="black" points="2333.41,-324.5 2333.41,-343.5 2447.41,-343.5 2447.41,-324.5 2333.41,-324.5"/>
<text text-anchor="middle" x="2390.41" y="-331.5" font-family="Helvetica,sans-Serif" font-size="10.00">libexif/exif&#45;gps&#45;ifd.h</text>
</a>
</g>
</g>
<!-- Node1&#45;&gt;Node41 -->
<g id="edge60" class="edge">
<title>Node1&#45;&gt;Node41</title>
<path fill="none" stroke="midnightblue" d="M2433.94,-373.54C2423.06,-363.91 2409.46,-351.87 2400.39,-343.83"/>
<polygon fill="midnightblue" stroke="midnightblue" points="2431.8,-376.32 2441.61,-380.32 2436.44,-371.07 2431.8,-376.32"/>
</g>
<!-- Node43 -->
<g id="node43" class="node">
<title>Node43</title>
<g id="a_node43"><a xlink:href="exif-tag_8c.html" target="_top" xlink:title=" ">
<polygon fill="white" stroke="black" points="2465.91,-324.5 2465.91,-343.5 2560.91,-343.5 2560.91,-324.5 2465.91,-324.5"/>
<text text-anchor="middle" x="2513.41" y="-331.5" font-family="Helvetica,sans-Serif" font-size="10.00">libexif/exif&#45;tag.c</text>
</a>
</g>
</g>
<!-- Node1&#45;&gt;Node43 -->
<g id="edge63" class="edge">
<title>Node1&#45;&gt;Node43</title>
<path fill="none" stroke="midnightblue" d="M2469.16,-373.54C2480.22,-363.91 2494.04,-351.87 2503.26,-343.83"/>
<polygon fill="midnightblue" stroke="midnightblue" points="2466.61,-371.12 2461.37,-380.32 2471.21,-376.4 2466.61,-371.12"/>
</g>
<!-- Node44 -->
<g id="node44" class="node">
<title>Node44</title>
<g id="a_node44"><a xlink:href="test-sorted_8c.html" target="_top" xlink:title=" ">
<polygon fill="white" stroke="black" points="2579.41,-324.5 2579.41,-343.5 2679.41,-343.5 2679.41,-324.5 2579.41,-324.5"/>
<text text-anchor="middle" x="2629.41" y="-331.5" font-family="Helvetica,sans-Serif" font-size="10.00">test/test&#45;sorted.c</text>
</a>
</g>
</g>
<!-- Node1&#45;&gt;Node44 -->
<g id="edge64" class="edge">
<title>Node1&#45;&gt;Node44</title>
<path fill="none" stroke="midnightblue" d="M2489.52,-377.44C2523.09,-367.26 2571.18,-352.66 2601.33,-343.52"/>
<polygon fill="midnightblue" stroke="midnightblue" points="2488.17,-374.19 2479.61,-380.44 2490.2,-380.89 2488.17,-374.19"/>
</g>
<!-- Node45 -->
<g id="node45" class="node">
<title>Node45</title>
<g id="a_node45"><a xlink:href="test-tagtable_8c.html" target="_top" xlink:title=" ">
<polygon fill="white" stroke="black" points="2697.41,-324.5 2697.41,-343.5 2807.41,-343.5 2807.41,-324.5 2697.41,-324.5"/>
<text text-anchor="middle" x="2752.41" y="-331.5" font-family="Helvetica,sans-Serif" font-size="10.00">test/test&#45;tagtable.c</text>
</a>
</g>
</g>
<!-- Node1&#45;&gt;Node45 -->
<g id="edge65" class="edge">
<title>Node1&#45;&gt;Node45</title>
<path fill="none" stroke="midnightblue" d="M2509.02,-378.66C2565.9,-368.46 2651.86,-353.04 2704.94,-343.52"/>
<polygon fill="midnightblue" stroke="midnightblue" points="2508.33,-375.23 2499.1,-380.44 2509.56,-382.12 2508.33,-375.23"/>
</g>
<!-- Node3 -->
<g id="node3" class="node">
<title>Node3</title>
<g id="a_node3"><a xlink:href="exif-content_8c.html" target="_top" xlink:title=" ">
<polygon fill="white" stroke="black" points="2143.41,-268.5 2143.41,-287.5 2259.41,-287.5 2259.41,-268.5 2143.41,-268.5"/>
<text text-anchor="middle" x="2201.41" y="-275.5" font-family="Helvetica,sans-Serif" font-size="10.00">libexif/exif&#45;content.c</text>
</a>
</g>
</g>
<!-- Node2&#45;&gt;Node3 -->
<g id="edge2" class="edge">
<title>Node2&#45;&gt;Node3</title>
<path fill="none" stroke="midnightblue" d="M2213.21,-314.4C2210.19,-305.36 2206.72,-294.94 2204.32,-287.75"/>
<polygon fill="midnightblue" stroke="midnightblue" points="2209.95,-315.7 2216.43,-324.08 2216.59,-313.49 2209.95,-315.7"/>
</g>
<!-- Node2&#45;&gt;Node4 -->
<g id="edge3" class="edge">
<title>Node2&#45;&gt;Node4</title>
<path fill="none" stroke="midnightblue" d="M2150.58,-328.63C1992.68,-318.26 1607.59,-292.32 1468.5,-282.68"/>
<polygon fill="midnightblue" stroke="midnightblue" points="2150.44,-332.13 2160.65,-329.29 2150.9,-325.14 2150.44,-332.13"/>
</g>
<!-- Node36 -->
<g id="node36" class="node">
<title>Node36</title>
<g id="a_node36"><a xlink:href="exif-entry_8h.html" target="_top" xlink:title="Handling EXIF entries.">
<polygon fill="white" stroke="black" points="2277.41,-268.5 2277.41,-287.5 2381.41,-287.5 2381.41,-268.5 2277.41,-268.5"/>
<text text-anchor="middle" x="2329.41" y="-275.5" font-family="Helvetica,sans-Serif" font-size="10.00">libexif/exif&#45;entry.h</text>
</a>
</g>
</g>
<!-- Node2&#45;&gt;Node36 -->
<g id="edge52" class="edge">
<title>Node2&#45;&gt;Node36</title>
<path fill="none" stroke="midnightblue" d="M2240.8,-319.59C2259.81,-309.61 2287.25,-296.27 2306.67,-287.65"/>
<polygon fill="midnightblue" stroke="midnightblue" points="2239.13,-316.52 2231.97,-324.32 2242.43,-322.69 2239.13,-316.52"/>
</g>
<!-- Node4&#45;&gt;Node2 -->
<g id="edge17" class="edge">
<title>Node4&#45;&gt;Node2</title>
<path fill="none" stroke="midnightblue" d="M1479.04,-282.9C1629.42,-292.76 2013.28,-318.6 2160.64,-328.79"/>
<polygon fill="midnightblue" stroke="midnightblue" points="1478.83,-279.38 1468.62,-282.22 1478.37,-286.36 1478.83,-279.38"/>
</g>
<!-- Node5 -->
<g id="node5" class="node">
<title>Node5</title>
<g id="a_node5"><a xlink:href="exif-mnote-data-apple_8c.html" target="_top" xlink:title=" ">
<polygon fill="white" stroke="black" points="838.41,-134.5 838.41,-164.5 954.41,-164.5 954.41,-134.5 838.41,-134.5"/>
<text text-anchor="start" x="846.41" y="-152.5" font-family="Helvetica,sans-Serif" font-size="10.00">libexif/apple/exif</text>
<text text-anchor="middle" x="896.41" y="-141.5" font-family="Helvetica,sans-Serif" font-size="10.00">&#45;mnote&#45;data&#45;apple.c</text>
</a>
</g>
</g>
<!-- Node4&#45;&gt;Node5 -->
<g id="edge4" class="edge">
<title>Node4&#45;&gt;Node5</title>
<path fill="none" stroke="midnightblue" d="M1356.19,-276.26C1156.87,-273.56 537.63,-262.71 508.41,-232 498.91,-222.02 499.32,-211.35 508.41,-201 529.81,-176.63 735.26,-160.51 838.21,-153.9"/>
<polygon fill="midnightblue" stroke="midnightblue" points="1356.15,-279.76 1366.2,-276.39 1356.25,-272.76 1356.15,-279.76"/>
</g>
<!-- Node6 -->
<g id="node6" class="node">
<title>Node6</title>
<g id="a_node6"><a xlink:href="exif-mnote-data-apple_8h.html" target="_top" xlink:title=" ">
<polygon fill="white" stroke="black" points="1224.91,-201.5 1224.91,-231.5 1341.91,-231.5 1341.91,-201.5 1224.91,-201.5"/>
<text text-anchor="start" x="1232.91" y="-219.5" font-family="Helvetica,sans-Serif" font-size="10.00">libexif/apple/exif</text>
<text text-anchor="middle" x="1283.41" y="-208.5" font-family="Helvetica,sans-Serif" font-size="10.00">&#45;mnote&#45;data&#45;apple.h</text>
</a>
</g>
</g>
<!-- Node4&#45;&gt;Node6 -->
<g id="edge5" class="edge">
<title>Node4&#45;&gt;Node6</title>
<path fill="none" stroke="midnightblue" d="M1388.87,-264.33C1367.19,-254.7 1337.39,-241.47 1314.99,-231.52"/>
<polygon fill="midnightblue" stroke="midnightblue" points="1387.65,-267.62 1398.21,-268.48 1390.49,-261.22 1387.65,-267.62"/>
</g>
<!-- Node7 -->
<g id="node7" class="node">
<title>Node7</title>
<g id="a_node7"><a xlink:href="exif-data_8c.html" target="_top" xlink:title=" ">
<polygon fill="white" stroke="black" points="1058.91,-6 1058.91,-25 1159.91,-25 1159.91,-6 1058.91,-6"/>
<text text-anchor="middle" x="1109.41" y="-13" font-family="Helvetica,sans-Serif" font-size="10.00">libexif/exif&#45;data.c</text>
</a>
</g>
</g>
<!-- Node4&#45;&gt;Node7 -->
<g id="edge18" class="edge">
<title>Node4&#45;&gt;Node7</title>
<path fill="none" stroke="midnightblue" d="M1356.07,-276.26C1100.1,-272.98 127.7,-258.82 68.41,-232 31.16,-215.16 20.47,-203 5.41,-165 -24.76,-88.88 81.67,-85.62 161.41,-67 334.34,-26.61 887.9,-18.43 1058.72,-16.86"/>
<polygon fill="midnightblue" stroke="midnightblue" points="1356.25,-279.76 1366.29,-276.39 1356.34,-272.76 1356.25,-279.76"/>
</g>
<!-- Node8 -->
<g id="node8" class="node">
<title>Node8</title>
<g id="a_node8"><a xlink:href="exif-mnote-data-canon_8c.html" target="_top" xlink:title=" ">
<polygon fill="white" stroke="black" points="1800.91,-0.5 1800.91,-30.5 1919.91,-30.5 1919.91,-0.5 1800.91,-0.5"/>
<text text-anchor="start" x="1808.91" y="-18.5" font-family="Helvetica,sans-Serif" font-size="10.00">libexif/canon/exif</text>
<text text-anchor="middle" x="1860.41" y="-7.5" font-family="Helvetica,sans-Serif" font-size="10.00">&#45;mnote&#45;data&#45;canon.c</text>
</a>
</g>
</g>
<!-- Node4&#45;&gt;Node8 -->
<g id="edge8" class="edge">
<title>Node4&#45;&gt;Node8</title>
<path fill="none" stroke="midnightblue" d="M1479,-274.96C1622.7,-269.86 1976.8,-255.29 2093.41,-232 2184.1,-213.89 2236.56,-240.19 2290.41,-165 2383.76,-34.65 2058.68,-17.65 1920.07,-16.2"/>
<polygon fill="midnightblue" stroke="midnightblue" points="1478.48,-271.47 1468.61,-275.32 1478.73,-278.47 1478.48,-271.47"/>
</g>
<!-- Node9 -->
<g id="node9" class="node">
<title>Node9</title>
<g id="a_node9"><a xlink:href="exif-mnote-data-canon_8h.html" target="_top" xlink:title=" ">
<polygon fill="white" stroke="black" points="1351.91,-67.5 1351.91,-97.5 1470.91,-97.5 1470.91,-67.5 1351.91,-67.5"/>
<text text-anchor="start" x="1359.91" y="-85.5" font-family="Helvetica,sans-Serif" font-size="10.00">libexif/canon/exif</text>
<text text-anchor="middle" x="1411.41" y="-74.5" font-family="Helvetica,sans-Serif" font-size="10.00">&#45;mnote&#45;data&#45;canon.h</text>
</a>
</g>
</g>
<!-- Node4&#45;&gt;Node9 -->
<g id="edge9" class="edge">
<title>Node4&#45;&gt;Node9</title>
<path fill="none" stroke="midnightblue" d="M1448.79,-263.83C1461.99,-256.53 1475.98,-246.05 1483.41,-232 1489.85,-219.82 1489.86,-213.18 1483.41,-201 1470.08,-175.84 1446.52,-188.48 1430.41,-165 1416.35,-144.52 1412.59,-115.03 1411.65,-97.71"/>
<polygon fill="midnightblue" stroke="midnightblue" points="1447.18,-260.72 1439.87,-268.38 1450.36,-266.96 1447.18,-260.72"/>
</g>
<!-- Node10 -->
<g id="node10" class="node">
<title>Node10</title>
<g id="a_node10"><a xlink:href="mnote-canon-tag_8h.html" target="_top" xlink:title=" ">
<polygon fill="white" stroke="black" points="1360.41,-201.5 1360.41,-231.5 1474.41,-231.5 1474.41,-201.5 1360.41,-201.5"/>
<text text-anchor="start" x="1368.41" y="-219.5" font-family="Helvetica,sans-Serif" font-size="10.00">libexif/canon/mnote</text>
<text text-anchor="middle" x="1417.41" y="-208.5" font-family="Helvetica,sans-Serif" font-size="10.00">&#45;canon&#45;tag.h</text>
</a>
</g>
</g>
<!-- Node4&#45;&gt;Node10 -->
<g id="edge12" class="edge">
<title>Node4&#45;&gt;Node10</title>
<path fill="none" stroke="midnightblue" d="M1417.41,-258.23C1417.41,-249.59 1417.41,-239.5 1417.41,-231.52"/>
<polygon fill="midnightblue" stroke="midnightblue" points="1413.91,-258.48 1417.41,-268.48 1420.91,-258.48 1413.91,-258.48"/>
</g>
<!-- Node14 -->
<g id="node14" class="node">
<title>Node14</title>
<g id="a_node14"><a xlink:href="exif-loader_8h.html" target="_top" xlink:title="Defines the ExifLoader type.">
<polygon fill="white" stroke="black" points="1868.91,-207 1868.91,-226 1979.91,-226 1979.91,-207 1868.91,-207"/>
<text text-anchor="middle" x="1924.41" y="-214" font-family="Helvetica,sans-Serif" font-size="10.00">libexif/exif&#45;loader.h</text>
</a>
</g>
</g>
<!-- Node4&#45;&gt;Node14 -->
<g id="edge19" class="edge">
<title>Node4&#45;&gt;Node14</title>
<path fill="none" stroke="midnightblue" d="M1478.52,-271.15C1559.05,-263.25 1705.06,-248.27 1829.41,-232 1842.97,-230.22 1857.59,-228.1 1871.2,-226.03"/>
<polygon fill="midnightblue" stroke="midnightblue" points="1478.17,-267.67 1468.55,-272.12 1478.85,-274.63 1478.17,-267.67"/>
</g>
<!-- Node16 -->
<g id="node16" class="node">
<title>Node16</title>
<g id="a_node16"><a xlink:href="test-fuzzer-persistent_8c.html" target="_top" xlink:title=" ">
<polygon fill="white" stroke="black" points="1627.91,-140 1627.91,-159 1778.91,-159 1778.91,-140 1627.91,-140"/>
<text text-anchor="middle" x="1703.41" y="-147" font-family="Helvetica,sans-Serif" font-size="10.00">test/test&#45;fuzzer&#45;persistent.c</text>
</a>
</g>
</g>
<!-- Node4&#45;&gt;Node16 -->
<g id="edge43" class="edge">
<title>Node4&#45;&gt;Node16</title>
<path fill="none" stroke="midnightblue" d="M1478.6,-276.55C1555.3,-274.53 1680.29,-265.95 1709.41,-232 1727.14,-211.32 1714.9,-175.82 1707.67,-159.36"/>
<polygon fill="midnightblue" stroke="midnightblue" points="1478.49,-273.05 1468.57,-276.78 1478.65,-280.05 1478.49,-273.05"/>
</g>
<!-- Node17 -->
<g id="node17" class="node">
<title>Node17</title>
<g id="a_node17"><a xlink:href="test-fuzzer_8c.html" target="_top" xlink:title=" ">
<polygon fill="white" stroke="black" points="1796.91,-140 1796.91,-159 1895.91,-159 1895.91,-140 1796.91,-140"/>
<text text-anchor="middle" x="1846.41" y="-147" font-family="Helvetica,sans-Serif" font-size="10.00">test/test&#45;fuzzer.c</text>
</a>
</g>
</g>
<!-- Node4&#45;&gt;Node17 -->
<g id="edge44" class="edge">
<title>Node4&#45;&gt;Node17</title>
<path fill="none" stroke="midnightblue" d="M1478.87,-276.33C1543.17,-273.76 1646.03,-264.34 1728.41,-232 1773.6,-214.26 1818.41,-176.26 1837.2,-159.16"/>
<polygon fill="midnightblue" stroke="midnightblue" points="1478.37,-272.84 1468.5,-276.69 1478.62,-279.84 1478.37,-272.84"/>
</g>
<!-- Node18 -->
<g id="node18" class="node">
<title>Node18</title>
<g id="a_node18"><a xlink:href="test-mem_8c.html" target="_top" xlink:title=" ">
<polygon fill="white" stroke="black" points="2080.91,-140 2080.91,-159 2175.91,-159 2175.91,-140 2080.91,-140"/>
<text text-anchor="middle" x="2128.41" y="-147" font-family="Helvetica,sans-Serif" font-size="10.00">test/test&#45;mem.c</text>
</a>
</g>
</g>
<!-- Node4&#45;&gt;Node18 -->
<g id="edge46" class="edge">
<title>Node4&#45;&gt;Node18</title>
<path fill="none" stroke="midnightblue" d="M1479.23,-275.63C1606.93,-272.23 1895.7,-261.44 1989.41,-232 2041.72,-215.57 2095.41,-176.52 2117.7,-159.12"/>
<polygon fill="midnightblue" stroke="midnightblue" points="1478.76,-272.14 1468.85,-275.9 1478.94,-279.14 1478.76,-272.14"/>
</g>
<!-- Node19 -->
<g id="node19" class="node">
<title>Node19</title>
<g id="a_node19"><a xlink:href="test-null_8c.html" target="_top" xlink:title="Pass NULL values into libexif APIs and ensure it doesn&#39;t crash.">
<polygon fill="white" stroke="black" points="2193.91,-140 2193.91,-159 2280.91,-159 2280.91,-140 2193.91,-140"/>
<text text-anchor="middle" x="2237.41" y="-147" font-family="Helvetica,sans-Serif" font-size="10.00">test/test&#45;null.c</text>
</a>
</g>
</g>
<!-- Node4&#45;&gt;Node19 -->
<g id="edge48" class="edge">
<title>Node4&#45;&gt;Node19</title>
<path fill="none" stroke="midnightblue" d="M1478.95,-274.92C1613.46,-269.99 1930,-256.15 2034.41,-232 2106.93,-215.23 2187.4,-176.36 2221.13,-159.07"/>
<polygon fill="midnightblue" stroke="midnightblue" points="1478.68,-271.43 1468.81,-275.29 1478.93,-278.43 1478.68,-271.43"/>
</g>
<!-- Node20 -->
<g id="node20" class="node">
<title>Node20</title>
<g id="a_node20"><a xlink:href="exif-mnote-data-fuji_8h.html" target="_top" xlink:title=" ">
<polygon fill="white" stroke="black" points="77.41,-201.5 77.41,-231.5 199.41,-231.5 199.41,-201.5 77.41,-201.5"/>
<text text-anchor="start" x="85.41" y="-219.5" font-family="Helvetica,sans-Serif" font-size="10.00">libexif/fuji/exif&#45;mnote</text>
<text text-anchor="middle" x="138.41" y="-208.5" font-family="Helvetica,sans-Serif" font-size="10.00">&#45;data&#45;fuji.h</text>
</a>
</g>
</g>
<!-- Node4&#45;&gt;Node20 -->
<g id="edge26" class="edge">
<title>Node4&#45;&gt;Node20</title>
<path fill="none" stroke="midnightblue" d="M1356.29,-276.08C1143.27,-272.64 434.2,-259.39 208.41,-232 205.57,-231.66 202.68,-231.26 199.77,-230.82"/>
<polygon fill="midnightblue" stroke="midnightblue" points="1356.3,-279.58 1366.35,-276.24 1356.41,-272.58 1356.3,-279.58"/>
</g>
<!-- Node24 -->
<g id="node24" class="node">
<title>Node24</title>
<g id="a_node24"><a xlink:href="mnote-fuji-tag_8h.html" target="_top" xlink:title=" ">
<polygon fill="white" stroke="black" points="217.91,-201.5 217.91,-231.5 318.91,-231.5 318.91,-201.5 217.91,-201.5"/>
<text text-anchor="start" x="225.91" y="-219.5" font-family="Helvetica,sans-Serif" font-size="10.00">libexif/fuji/mnote</text>
<text text-anchor="middle" x="268.41" y="-208.5" font-family="Helvetica,sans-Serif" font-size="10.00">&#45;fuji&#45;tag.h</text>
</a>
</g>
</g>
<!-- Node4&#45;&gt;Node24 -->
<g id="edge32" class="edge">
<title>Node4&#45;&gt;Node24</title>
<path fill="none" stroke="midnightblue" d="M1356.09,-276.05C1156.89,-272.7 529.19,-260.13 328.41,-232 325.33,-231.57 322.18,-231.05 319.01,-230.47"/>
<polygon fill="midnightblue" stroke="midnightblue" points="1356.31,-279.55 1366.37,-276.22 1356.43,-272.55 1356.31,-279.55"/>
</g>
<!-- Node26 -->
<g id="node26" class="node">
<title>Node26</title>
<g id="a_node26"><a xlink:href="exif-mnote-data-olympus_8c.html" target="_top" xlink:title=" ">
<polygon fill="white" stroke="black" points="1439.91,-134.5 1439.91,-164.5 1570.91,-164.5 1570.91,-134.5 1439.91,-134.5"/>
<text text-anchor="start" x="1447.91" y="-152.5" font-family="Helvetica,sans-Serif" font-size="10.00">libexif/olympus/exif</text>
<text text-anchor="middle" x="1505.41" y="-141.5" font-family="Helvetica,sans-Serif" font-size="10.00">&#45;mnote&#45;data&#45;olympus.c</text>
</a>
</g>
</g>
<!-- Node4&#45;&gt;Node26 -->
<g id="edge35" class="edge">
<title>Node4&#45;&gt;Node26</title>
<path fill="none" stroke="midnightblue" d="M1471.07,-265.08C1488.56,-258.38 1506.1,-248.01 1516.41,-232 1529.63,-211.47 1520.28,-182 1512.61,-164.7"/>
<polygon fill="midnightblue" stroke="midnightblue" points="1469.71,-261.85 1461.41,-268.44 1472.01,-268.46 1469.71,-261.85"/>
</g>
<!-- Node27 -->
<g id="node27" class="node">
<title>Node27</title>
<g id="a_node27"><a xlink:href="exif-mnote-data-olympus_8h.html" target="_top" xlink:title=" ">
<polygon fill="white" stroke="black" points="1568.41,-201.5 1568.41,-231.5 1700.41,-231.5 1700.41,-201.5 1568.41,-201.5"/>
<text text-anchor="start" x="1576.41" y="-219.5" font-family="Helvetica,sans-Serif" font-size="10.00">libexif/olympus/exif</text>
<text text-anchor="middle" x="1634.41" y="-208.5" font-family="Helvetica,sans-Serif" font-size="10.00">&#45;mnote&#45;data&#45;olympus.h</text>
</a>
</g>
</g>
<!-- Node4&#45;&gt;Node27 -->
<g id="edge36" class="edge">
<title>Node4&#45;&gt;Node27</title>
<path fill="none" stroke="midnightblue" d="M1458.49,-265.73C1493.91,-256.02 1545.2,-241.96 1583.26,-231.52"/>
<polygon fill="midnightblue" stroke="midnightblue" points="1457.22,-262.46 1448.5,-268.48 1459.07,-269.21 1457.22,-262.46"/>
</g>
<!-- Node28 -->
<g id="node28" class="node">
<title>Node28</title>
<g id="a_node28"><a xlink:href="exif-mnote-data-pentax_8h.html" target="_top" xlink:title=" ">
<polygon fill="white" stroke="black" points="337.41,-201.5 337.41,-231.5 461.41,-231.5 461.41,-201.5 337.41,-201.5"/>
<text text-anchor="start" x="345.41" y="-219.5" font-family="Helvetica,sans-Serif" font-size="10.00">libexif/pentax/exif</text>
<text text-anchor="middle" x="399.41" y="-208.5" font-family="Helvetica,sans-Serif" font-size="10.00">&#45;mnote&#45;data&#45;pentax.h</text>
</a>
</g>
</g>
<!-- Node4&#45;&gt;Node28 -->
<g id="edge39" class="edge">
<title>Node4&#45;&gt;Node28</title>
<path fill="none" stroke="midnightblue" d="M1355.99,-277.05C1205.37,-276.53 805.86,-271.22 475.41,-232 470.87,-231.46 466.2,-230.81 461.51,-230.09"/>
<polygon fill="midnightblue" stroke="midnightblue" points="1356.39,-280.55 1366.4,-277.08 1356.41,-273.55 1356.39,-280.55"/>
</g>
<!-- Node30 -->
<g id="node30" class="node">
<title>Node30</title>
<g id="a_node30"><a xlink:href="test-extract_8c.html" target="_top" xlink:title="Extract EXIF data from a file and write it to another file.">
<polygon fill="white" stroke="black" points="517.41,-207 517.41,-226 621.41,-226 621.41,-207 517.41,-207"/>
<text text-anchor="middle" x="569.41" y="-214" font-family="Helvetica,sans-Serif" font-size="10.00">test/test&#45;extract.c</text>
</a>
</g>
</g>
<!-- Node4&#45;&gt;Node30 -->
<g id="edge42" class="edge">
<title>Node4&#45;&gt;Node30</title>
<path fill="none" stroke="midnightblue" d="M1355.99,-277.16C1222.98,-276.7 898.65,-271.24 630.41,-232 620.61,-230.57 610.06,-228.32 600.55,-226.02"/>
<polygon fill="midnightblue" stroke="midnightblue" points="1355.98,-280.66 1365.99,-277.18 1356,-273.66 1355.98,-280.66"/>
</g>
<!-- Node31 -->
<g id="node31" class="node">
<title>Node31</title>
<g id="a_node31"><a xlink:href="test-gps_8c.html" target="_top" xlink:title=" ">
<polygon fill="white" stroke="black" points="639.41,-207 639.41,-226 725.41,-226 725.41,-207 639.41,-207"/>
<text text-anchor="middle" x="682.41" y="-214" font-family="Helvetica,sans-Serif" font-size="10.00">test/test&#45;gps.c</text>
</a>
</g>
</g>
<!-- Node4&#45;&gt;Node31 -->
<g id="edge45" class="edge">
<title>Node4&#45;&gt;Node31</title>
<path fill="none" stroke="midnightblue" d="M1355.89,-277.17C1235.6,-276.59 961.2,-270.67 734.41,-232 726,-230.57 717,-228.32 708.89,-226.02"/>
<polygon fill="midnightblue" stroke="midnightblue" points="1355.99,-280.67 1366.01,-277.21 1356.02,-273.67 1355.99,-280.67"/>
</g>
<!-- Node32 -->
<g id="node32" class="node">
<title>Node32</title>
<g id="a_node32"><a xlink:href="test-mnote_8c.html" target="_top" xlink:title=" ">
<polygon fill="white" stroke="black" points="743.91,-207 743.91,-226 844.91,-226 844.91,-207 743.91,-207"/>
<text text-anchor="middle" x="794.41" y="-214" font-family="Helvetica,sans-Serif" font-size="10.00">test/test&#45;mnote.c</text>
</a>
</g>
</g>
<!-- Node4&#45;&gt;Node32 -->
<g id="edge47" class="edge">
<title>Node4&#45;&gt;Node32</title>
<path fill="none" stroke="midnightblue" d="M1356.13,-275.35C1252.15,-271.82 1034.76,-261.32 853.41,-232 844.14,-230.5 834.19,-228.29 825.14,-226.05"/>
<polygon fill="midnightblue" stroke="midnightblue" points="1356.03,-278.84 1366.14,-275.68 1356.26,-271.85 1356.03,-278.84"/>
</g>
<!-- Node33 -->
<g id="node33" class="node">
<title>Node33</title>
<g id="a_node33"><a xlink:href="test-parse-from-data_8c.html" target="_top" xlink:title="Completely parse all files given on the command line.">
<polygon fill="white" stroke="black" points="862.91,-201.5 862.91,-231.5 977.91,-231.5 977.91,-201.5 862.91,-201.5"/>
<text text-anchor="start" x="870.91" y="-219.5" font-family="Helvetica,sans-Serif" font-size="10.00">test/test&#45;parse&#45;from</text>
<text text-anchor="middle" x="920.41" y="-208.5" font-family="Helvetica,sans-Serif" font-size="10.00">&#45;data.c</text>
</a>
</g>
</g>
<!-- Node4&#45;&gt;Node33 -->
<g id="edge49" class="edge">
<title>Node4&#45;&gt;Node33</title>
<path fill="none" stroke="midnightblue" d="M1356.11,-272.7C1272.45,-266.34 1117.97,-252.9 987.41,-232 984.35,-231.51 981.23,-230.97 978.08,-230.4"/>
<polygon fill="midnightblue" stroke="midnightblue" points="1355.97,-276.2 1366.2,-273.45 1356.49,-269.21 1355.97,-276.2"/>
</g>
<!-- Node34 -->
<g id="node34" class="node">
<title>Node34</title>
<g id="a_node34"><a xlink:href="test-parse_8c.html" target="_top" xlink:title="Completely parse all files given on the command line.">
<polygon fill="white" stroke="black" points="996.41,-207 996.41,-226 1092.41,-226 1092.41,-207 996.41,-207"/>
<text text-anchor="middle" x="1044.41" y="-214" font-family="Helvetica,sans-Serif" font-size="10.00">test/test&#45;parse.c</text>
</a>
</g>
</g>
<!-- Node4&#45;&gt;Node34 -->
<g id="edge50" class="edge">
<title>Node4&#45;&gt;Node34</title>
<path fill="none" stroke="midnightblue" d="M1355.92,-270.23C1292,-262.73 1189.21,-249.37 1101.41,-232 1092.89,-230.32 1083.75,-228.15 1075.33,-226.01"/>
<polygon fill="midnightblue" stroke="midnightblue" points="1355.89,-273.75 1366.22,-271.43 1356.69,-266.8 1355.89,-273.75"/>
</g>
<!-- Node35 -->
<g id="node35" class="node">
<title>Node35</title>
<g id="a_node35"><a xlink:href="test-value_8c.html" target="_top" xlink:title=" ">
<polygon fill="white" stroke="black" points="1110.41,-207 1110.41,-226 1206.41,-226 1206.41,-207 1110.41,-207"/>
<text text-anchor="middle" x="1158.41" y="-214" font-family="Helvetica,sans-Serif" font-size="10.00">test/test&#45;value.c</text>
</a>
</g>
</g>
<!-- Node4&#45;&gt;Node35 -->
<g id="edge51" class="edge">
<title>Node4&#45;&gt;Node35</title>
<path fill="none" stroke="midnightblue" d="M1367.47,-266.31C1326.53,-257.44 1267.12,-244.33 1215.41,-232 1207.56,-230.13 1199.13,-228.03 1191.22,-226.03"/>
<polygon fill="midnightblue" stroke="midnightblue" points="1366.95,-269.78 1377.47,-268.47 1368.43,-262.94 1366.95,-269.78"/>
</g>
<!-- Node6&#45;&gt;Node5 -->
<g id="edge6" class="edge">
<title>Node6&#45;&gt;Node5</title>
<path fill="none" stroke="midnightblue" d="M1214.84,-200.95C1117.59,-183.08 1016.41,-167.76 954.48,-158.75"/>
<polygon fill="midnightblue" stroke="midnightblue" points="1214.37,-204.43 1224.84,-202.81 1215.64,-197.54 1214.37,-204.43"/>
</g>
<!-- Node6&#45;&gt;Node7 -->
<g id="edge7" class="edge">
<title>Node6&#45;&gt;Node7</title>
<path fill="none" stroke="midnightblue" d="M1214.54,-200.71C1178.69,-191.57 1139.96,-178.95 1128.41,-165 1093.6,-122.96 1103.11,-49.96 1107.66,-25.09"/>
<polygon fill="midnightblue" stroke="midnightblue" points="1214.01,-204.18 1224.56,-203.19 1215.69,-197.39 1214.01,-204.18"/>
</g>
<!-- Node9&#45;&gt;Node7 -->
<g id="edge11" class="edge">
<title>Node9&#45;&gt;Node7</title>
<path fill="none" stroke="midnightblue" d="M1341.63,-66.48C1281.93,-53.63 1198.12,-35.59 1149.21,-25.07"/>
<polygon fill="midnightblue" stroke="midnightblue" points="1341.23,-69.98 1351.74,-68.66 1342.7,-63.13 1341.23,-69.98"/>
</g>
<!-- Node9&#45;&gt;Node8 -->
<g id="edge10" class="edge">
<title>Node9&#45;&gt;Node8</title>
<path fill="none" stroke="midnightblue" d="M1481.16,-71.4C1568.95,-58.69 1718.23,-37.08 1800.89,-25.12"/>
<polygon fill="midnightblue" stroke="midnightblue" points="1480.43,-67.97 1471.03,-72.87 1481.43,-74.9 1480.43,-67.97"/>
</g>
<!-- Node11 -->
<g id="node11" class="node">
<title>Node11</title>
<g id="a_node11"><a xlink:href="mnote-canon-entry_8h.html" target="_top" xlink:title=" ">
<polygon fill="white" stroke="black" points="1269.41,-134.5 1269.41,-164.5 1383.41,-164.5 1383.41,-134.5 1269.41,-134.5"/>
<text text-anchor="start" x="1277.41" y="-152.5" font-family="Helvetica,sans-Serif" font-size="10.00">libexif/canon/mnote</text>
<text text-anchor="middle" x="1326.41" y="-141.5" font-family="Helvetica,sans-Serif" font-size="10.00">&#45;canon&#45;entry.h</text>
</a>
</g>
</g>
<!-- Node10&#45;&gt;Node11 -->
<g id="edge13" class="edge">
<title>Node10&#45;&gt;Node11</title>
<path fill="none" stroke="midnightblue" d="M1389.34,-195.45C1375.34,-185.45 1358.75,-173.6 1346.11,-164.58"/>
<polygon fill="midnightblue" stroke="midnightblue" points="1387.49,-198.43 1397.66,-201.4 1391.56,-192.74 1387.49,-198.43"/>
</g>
<!-- Node13 -->
<g id="node13" class="node">
<title>Node13</title>
<g id="a_node13"><a xlink:href="mnote-canon-tag_8c.html" target="_top" xlink:title=" ">
<polygon fill="white" stroke="black" points="1137.41,-134.5 1137.41,-164.5 1251.41,-164.5 1251.41,-134.5 1137.41,-134.5"/>
<text text-anchor="start" x="1145.41" y="-152.5" font-family="Helvetica,sans-Serif" font-size="10.00">libexif/canon/mnote</text>
<text text-anchor="middle" x="1194.41" y="-141.5" font-family="Helvetica,sans-Serif" font-size="10.00">&#45;canon&#45;tag.c</text>
</a>
</g>
</g>
<!-- Node10&#45;&gt;Node13 -->
<g id="edge16" class="edge">
<title>Node10&#45;&gt;Node13</title>
<path fill="none" stroke="midnightblue" d="M1359.36,-198.58C1323.14,-188.02 1277.06,-174.59 1242.82,-164.61"/>
<polygon fill="midnightblue" stroke="midnightblue" points="1358.71,-202.04 1369.29,-201.48 1360.67,-195.32 1358.71,-202.04"/>
</g>
<!-- Node11&#45;&gt;Node9 -->
<g id="edge14" class="edge">
<title>Node11&#45;&gt;Node9</title>
<path fill="none" stroke="midnightblue" d="M1353,-128.17C1365.99,-118.23 1381.31,-106.51 1393,-97.58"/>
<polygon fill="midnightblue" stroke="midnightblue" points="1350.67,-125.54 1344.85,-134.4 1354.92,-131.1 1350.67,-125.54"/>
</g>
<!-- Node12 -->
<g id="node12" class="node">
<title>Node12</title>
<g id="a_node12"><a xlink:href="mnote-canon-entry_8c.html" target="_top" xlink:title=" ">
<polygon fill="white" stroke="black" points="1219.41,-67.5 1219.41,-97.5 1333.41,-97.5 1333.41,-67.5 1219.41,-67.5"/>
<text text-anchor="start" x="1227.41" y="-85.5" font-family="Helvetica,sans-Serif" font-size="10.00">libexif/canon/mnote</text>
<text text-anchor="middle" x="1276.41" y="-74.5" font-family="Helvetica,sans-Serif" font-size="10.00">&#45;canon&#45;entry.c</text>
</a>
</g>
</g>
<!-- Node11&#45;&gt;Node12 -->
<g id="edge15" class="edge">
<title>Node11&#45;&gt;Node12</title>
<path fill="none" stroke="midnightblue" d="M1309.44,-126.45C1302.1,-116.9 1293.72,-106 1287.24,-97.58"/>
<polygon fill="midnightblue" stroke="midnightblue" points="1306.69,-128.6 1315.56,-134.4 1312.24,-124.34 1306.69,-128.6"/>
</g>
<!-- Node14&#45;&gt;Node7 -->
<g id="edge20" class="edge">
<title>Node14&#45;&gt;Node7</title>
<path fill="none" stroke="midnightblue" d="M1925.52,-196.68C1925.52,-178.05 1922.36,-150.05 1905.41,-134 1797.36,-31.73 1318.06,-18.3 1160.09,-16.68"/>
<polygon fill="midnightblue" stroke="midnightblue" points="1922.01,-196.78 1925.21,-206.88 1929.01,-197 1922.01,-196.78"/>
</g>
<!-- Node15 -->
<g id="node15" class="node">
<title>Node15</title>
<g id="a_node15"><a xlink:href="exif-loader_8c.html" target="_top" xlink:title=" ">
<polygon fill="white" stroke="black" points="1952.41,-140 1952.41,-159 2062.41,-159 2062.41,-140 1952.41,-140"/>
<text text-anchor="middle" x="2007.41" y="-147" font-family="Helvetica,sans-Serif" font-size="10.00">libexif/exif&#45;loader.c</text>
</a>
</g>
</g>
<!-- Node14&#45;&gt;Node15 -->
<g id="edge21" class="edge">
<title>Node14&#45;&gt;Node15</title>
<path fill="none" stroke="midnightblue" d="M1943.47,-200.57C1959.86,-187.74 1982.91,-169.69 1996.39,-159.13"/>
<polygon fill="midnightblue" stroke="midnightblue" points="1941.32,-197.81 1935.6,-206.73 1945.63,-203.32 1941.32,-197.81"/>
</g>
<!-- Node14&#45;&gt;Node16 -->
<g id="edge22" class="edge">
<title>Node14&#45;&gt;Node16</title>
<path fill="none" stroke="midnightblue" d="M1885.34,-204.01C1841.6,-191.15 1771.73,-170.59 1732.52,-159.06"/>
<polygon fill="midnightblue" stroke="midnightblue" points="1884.48,-207.4 1895.06,-206.87 1886.45,-200.69 1884.48,-207.4"/>
</g>
<!-- Node14&#45;&gt;Node17 -->
<g id="edge23" class="edge">
<title>Node14&#45;&gt;Node17</title>
<path fill="none" stroke="midnightblue" d="M1906.06,-200.21C1890.7,-187.41 1869.31,-169.59 1856.76,-159.13"/>
<polygon fill="midnightblue" stroke="midnightblue" points="1903.96,-203.02 1913.89,-206.73 1908.45,-197.64 1903.96,-203.02"/>
</g>
<!-- Node14&#45;&gt;Node18 -->
<g id="edge24" class="edge">
<title>Node14&#45;&gt;Node18</title>
<path fill="none" stroke="midnightblue" d="M1961.24,-203.77C2001.66,-190.89 2065.57,-170.52 2101.53,-159.06"/>
<polygon fill="midnightblue" stroke="midnightblue" points="1959.96,-200.5 1951.5,-206.87 1962.09,-207.17 1959.96,-200.5"/>
</g>
<!-- Node14&#45;&gt;Node19 -->
<g id="edge25" class="edge">
<title>Node14&#45;&gt;Node19</title>
<path fill="none" stroke="midnightblue" d="M1985.12,-205.19C2038.21,-195.83 2117.25,-181.07 2185.41,-165 2192.89,-163.24 2200.91,-161.12 2208.36,-159.05"/>
<polygon fill="midnightblue" stroke="midnightblue" points="1984.43,-201.75 1975.19,-206.93 1985.64,-208.65 1984.43,-201.75"/>
</g>
<!-- Node20&#45;&gt;Node7 -->
<g id="edge27" class="edge">
<title>Node20&#45;&gt;Node7</title>
<path fill="none" stroke="midnightblue" d="M142.32,-191.25C149,-153.25 163.78,-82.4 183.41,-67 218.06,-39.8 870.36,-22.2 1058.82,-17.66"/>
<polygon fill="midnightblue" stroke="midnightblue" points="138.82,-191.02 140.59,-201.46 145.72,-192.19 138.82,-191.02"/>
</g>
<!-- Node21 -->
<g id="node21" class="node">
<title>Node21</title>
<g id="a_node21"><a xlink:href="exif-mnote-data-fuji_8c.html" target="_top" xlink:title=" ">
<polygon fill="white" stroke="black" points="14.41,-134.5 14.41,-164.5 136.41,-164.5 136.41,-134.5 14.41,-134.5"/>
<text text-anchor="start" x="22.41" y="-152.5" font-family="Helvetica,sans-Serif" font-size="10.00">libexif/fuji/exif&#45;mnote</text>
<text text-anchor="middle" x="75.41" y="-141.5" font-family="Helvetica,sans-Serif" font-size="10.00">&#45;data&#45;fuji.c</text>
</a>
</g>
</g>
<!-- Node20&#45;&gt;Node21 -->
<g id="edge28" class="edge">
<title>Node20&#45;&gt;Node21</title>
<path fill="none" stroke="midnightblue" d="M117.59,-194.02C108.21,-184.34 97.38,-173.17 89.05,-164.58"/>
<polygon fill="midnightblue" stroke="midnightblue" points="115.26,-196.65 124.74,-201.4 120.29,-191.78 115.26,-196.65"/>
</g>
<!-- Node22 -->
<g id="node22" class="node">
<title>Node22</title>
<g id="a_node22"><a xlink:href="mnote-fuji-entry_8h.html" target="_top" xlink:title=" ">
<polygon fill="white" stroke="black" points="192.91,-134.5 192.91,-164.5 293.91,-164.5 293.91,-134.5 192.91,-134.5"/>
<text text-anchor="start" x="200.91" y="-152.5" font-family="Helvetica,sans-Serif" font-size="10.00">libexif/fuji/mnote</text>
<text text-anchor="middle" x="243.41" y="-141.5" font-family="Helvetica,sans-Serif" font-size="10.00">&#45;fuji&#45;entry.h</text>
</a>
</g>
</g>
<!-- Node20&#45;&gt;Node22 -->
<g id="edge29" class="edge">
<title>Node20&#45;&gt;Node22</title>
<path fill="none" stroke="midnightblue" d="M164.07,-195.73C179.52,-185.68 199.08,-173.68 214.99,-164.58"/>
<polygon fill="midnightblue" stroke="midnightblue" points="161.92,-192.96 155.51,-201.4 165.78,-198.8 161.92,-192.96"/>
</g>
<!-- Node22&#45;&gt;Node20 -->
<g id="edge30" class="edge">
<title>Node22&#45;&gt;Node20</title>
<path fill="none" stroke="midnightblue" d="M217.79,-170.24C202.35,-180.29 182.79,-192.28 166.87,-201.4"/>
<polygon fill="midnightblue" stroke="midnightblue" points="219.94,-173.01 226.34,-164.58 216.07,-167.18 219.94,-173.01"/>
</g>
<!-- Node23 -->
<g id="node23" class="node">
<title>Node23</title>
<g id="a_node23"><a xlink:href="mnote-fuji-entry_8c.html" target="_top" xlink:title=" ">
<polygon fill="white" stroke="black" points="192.91,-67.5 192.91,-97.5 293.91,-97.5 293.91,-67.5 192.91,-67.5"/>
<text text-anchor="start" x="200.91" y="-85.5" font-family="Helvetica,sans-Serif" font-size="10.00">libexif/fuji/mnote</text>
<text text-anchor="middle" x="243.41" y="-74.5" font-family="Helvetica,sans-Serif" font-size="10.00">&#45;fuji&#45;entry.c</text>
</a>
</g>
</g>
<!-- Node22&#45;&gt;Node23 -->
<g id="edge31" class="edge">
<title>Node22&#45;&gt;Node23</title>
<path fill="none" stroke="midnightblue" d="M243.41,-124.11C243.41,-115.15 243.41,-105.32 243.41,-97.58"/>
<polygon fill="midnightblue" stroke="midnightblue" points="239.91,-124.4 243.41,-134.4 246.91,-124.4 239.91,-124.4"/>
</g>
<!-- Node24&#45;&gt;Node22 -->
<g id="edge33" class="edge">
<title>Node24&#45;&gt;Node22</title>
<path fill="none" stroke="midnightblue" d="M259.37,-191.99C255.83,-182.8 251.9,-172.58 248.82,-164.58"/>
<polygon fill="midnightblue" stroke="midnightblue" points="256.13,-193.32 262.98,-201.4 262.66,-190.81 256.13,-193.32"/>
</g>
<!-- Node25 -->
<g id="node25" class="node">
<title>Node25</title>
<g id="a_node25"><a xlink:href="mnote-fuji-tag_8c.html" target="_top" xlink:title=" ">
<polygon fill="white" stroke="black" points="311.91,-134.5 311.91,-164.5 412.91,-164.5 412.91,-134.5 311.91,-134.5"/>
<text text-anchor="start" x="319.91" y="-152.5" font-family="Helvetica,sans-Serif" font-size="10.00">libexif/fuji/mnote</text>
<text text-anchor="middle" x="362.41" y="-141.5" font-family="Helvetica,sans-Serif" font-size="10.00">&#45;fuji&#45;tag.c</text>
</a>
</g>
</g>
<!-- Node24&#45;&gt;Node25 -->
<g id="edge34" class="edge">
<title>Node24&#45;&gt;Node25</title>
<path fill="none" stroke="midnightblue" d="M297.4,-195.45C311.86,-185.45 329,-173.6 342.05,-164.58"/>
<polygon fill="midnightblue" stroke="midnightblue" points="295.04,-192.83 288.8,-201.4 299.02,-198.59 295.04,-192.83"/>
</g>
<!-- Node27&#45;&gt;Node7 -->
<g id="edge37" class="edge">
<title>Node27&#45;&gt;Node7</title>
<path fill="none" stroke="midnightblue" d="M1622.09,-192.42C1612.1,-175.06 1596.85,-151.39 1579.41,-134 1541.52,-96.23 1529.42,-85.99 1479.41,-67 1370.77,-25.74 1232.87,-17.5 1159.94,-16.27"/>
<polygon fill="midnightblue" stroke="midnightblue" points="1619.14,-194.31 1627.08,-201.33 1625.25,-190.89 1619.14,-194.31"/>
</g>
<!-- Node27&#45;&gt;Node26 -->
<g id="edge38" class="edge">
<title>Node27&#45;&gt;Node26</title>
<path fill="none" stroke="midnightblue" d="M1597.4,-196.85C1577,-186.58 1552.1,-174.03 1533.34,-164.58"/>
<polygon fill="midnightblue" stroke="midnightblue" points="1595.91,-200.02 1606.42,-201.4 1599.06,-193.77 1595.91,-200.02"/>
</g>
<!-- Node28&#45;&gt;Node7 -->
<g id="edge40" class="edge">
<title>Node28&#45;&gt;Node7</title>
<path fill="none" stroke="midnightblue" d="M410.55,-192.28C420.82,-173.48 437.88,-147.93 460.41,-134 561.33,-71.61 924.2,-33.23 1058.75,-20.87"/>
<polygon fill="midnightblue" stroke="midnightblue" points="407.32,-190.9 405.8,-201.39 413.53,-194.14 407.32,-190.9"/>
</g>
<!-- Node29 -->
<g id="node29" class="node">
<title>Node29</title>
<g id="a_node29"><a xlink:href="exif-mnote-data-pentax_8c.html" target="_top" xlink:title=" ">
<polygon fill="white" stroke="black" points="469.91,-134.5 469.91,-164.5 592.91,-164.5 592.91,-134.5 469.91,-134.5"/>
<text text-anchor="start" x="477.91" y="-152.5" font-family="Helvetica,sans-Serif" font-size="10.00">libexif/pentax/exif</text>
<text text-anchor="middle" x="531.41" y="-141.5" font-family="Helvetica,sans-Serif" font-size="10.00">&#45;mnote&#45;data&#45;pentax.c</text>
</a>
</g>
</g>
<!-- Node28&#45;&gt;Node29 -->
<g id="edge41" class="edge">
<title>Node28&#45;&gt;Node29</title>
<path fill="none" stroke="midnightblue" d="M437.27,-196.85C458.15,-186.58 483.63,-174.03 502.82,-164.58"/>
<polygon fill="midnightblue" stroke="midnightblue" points="435.47,-193.84 428.05,-201.4 438.57,-200.12 435.47,-193.84"/>
</g>
<!-- Node36&#45;&gt;Node2 -->
<g id="edge54" class="edge">
<title>Node36&#45;&gt;Node2</title>
<path fill="none" stroke="midnightblue" d="M2308.28,-292.27C2289.19,-302.31 2261.44,-315.79 2241.93,-324.44"/>
<polygon fill="midnightblue" stroke="midnightblue" points="2309.98,-295.33 2317.14,-287.52 2306.67,-289.16 2309.98,-295.33"/>
</g>
<!-- Node36&#45;&gt;Node19 -->
<g id="edge58" class="edge">
<title>Node36&#45;&gt;Node19</title>
<path fill="none" stroke="midnightblue" d="M2297.83,-264.02C2283.51,-256.63 2267.54,-246.01 2257.41,-232 2241.09,-209.46 2237.99,-175.18 2237.47,-159.23"/>
<polygon fill="midnightblue" stroke="midnightblue" points="2296.4,-267.22 2306.93,-268.42 2299.45,-260.92 2296.4,-267.22"/>
</g>
<!-- Node37 -->
<g id="node37" class="node">
<title>Node37</title>
<g id="a_node37"><a xlink:href="mnote-apple-entry_8c.html" target="_top" xlink:title=" ">
<polygon fill="white" stroke="black" points="2548.41,-201.5 2548.41,-231.5 2660.41,-231.5 2660.41,-201.5 2548.41,-201.5"/>
<text text-anchor="start" x="2556.41" y="-219.5" font-family="Helvetica,sans-Serif" font-size="10.00">libexif/apple/mnote</text>
<text text-anchor="middle" x="2604.41" y="-208.5" font-family="Helvetica,sans-Serif" font-size="10.00">&#45;apple&#45;entry.c</text>
</a>
</g>
</g>
<!-- Node36&#45;&gt;Node37 -->
<g id="edge53" class="edge">
<title>Node36&#45;&gt;Node37</title>
<path fill="none" stroke="midnightblue" d="M2379.52,-266.38C2422.08,-257.34 2484.78,-243.95 2539.41,-232 2542.34,-231.36 2545.35,-230.7 2548.39,-230.03"/>
<polygon fill="midnightblue" stroke="midnightblue" points="2378.74,-262.97 2369.69,-268.47 2380.2,-269.82 2378.74,-262.97"/>
</g>
<!-- Node38 -->
<g id="node38" class="node">
<title>Node38</title>
<g id="a_node38"><a xlink:href="exif-entry_8c.html" target="_top" xlink:title=" ">
<polygon fill="white" stroke="black" points="2678.41,-207 2678.41,-226 2782.41,-226 2782.41,-207 2678.41,-207"/>
<text text-anchor="middle" x="2730.41" y="-214" font-family="Helvetica,sans-Serif" font-size="10.00">libexif/exif&#45;entry.c</text>
</a>
</g>
</g>
<!-- Node36&#45;&gt;Node38 -->
<g id="edge55" class="edge">
<title>Node36&#45;&gt;Node38</title>
<path fill="none" stroke="midnightblue" d="M2391.6,-268.51C2392.88,-268.34 2394.15,-268.17 2395.41,-268 2517.15,-251.7 2548.61,-254.23 2669.41,-232 2678.51,-230.33 2688.29,-228.16 2697.3,-226.02"/>
<polygon fill="midnightblue" stroke="midnightblue" points="2391.09,-265.05 2381.64,-269.85 2392.02,-271.99 2391.09,-265.05"/>
</g>
<!-- Node39 -->
<g id="node39" class="node">
<title>Node39</title>
<g id="a_node39"><a xlink:href="mnote-olympus-entry_8c.html" target="_top" xlink:title=" ">
<polygon fill="white" stroke="black" points="2265.91,-201.5 2265.91,-231.5 2392.91,-231.5 2392.91,-201.5 2265.91,-201.5"/>
<text text-anchor="start" x="2273.91" y="-219.5" font-family="Helvetica,sans-Serif" font-size="10.00">libexif/olympus/mnote</text>
<text text-anchor="middle" x="2329.41" y="-208.5" font-family="Helvetica,sans-Serif" font-size="10.00">&#45;olympus&#45;entry.c</text>
</a>
</g>
</g>
<!-- Node36&#45;&gt;Node39 -->
<g id="edge56" class="edge">
<title>Node36&#45;&gt;Node39</title>
<path fill="none" stroke="midnightblue" d="M2329.41,-258.23C2329.41,-249.59 2329.41,-239.5 2329.41,-231.52"/>
<polygon fill="midnightblue" stroke="midnightblue" points="2325.91,-258.48 2329.41,-268.48 2332.91,-258.48 2325.91,-258.48"/>
</g>
<!-- Node40 -->
<g id="node40" class="node">
<title>Node40</title>
<g id="a_node40"><a xlink:href="mnote-pentax-entry_8c.html" target="_top" xlink:title=" ">
<polygon fill="white" stroke="black" points="2410.91,-201.5 2410.91,-231.5 2529.91,-231.5 2529.91,-201.5 2410.91,-201.5"/>
<text text-anchor="start" x="2418.91" y="-219.5" font-family="Helvetica,sans-Serif" font-size="10.00">libexif/pentax/mnote</text>
<text text-anchor="middle" x="2470.41" y="-208.5" font-family="Helvetica,sans-Serif" font-size="10.00">&#45;pentax&#45;entry.c</text>
</a>
</g>
</g>
<!-- Node36&#45;&gt;Node40 -->
<g id="edge57" class="edge">
<title>Node36&#45;&gt;Node40</title>
<path fill="none" stroke="midnightblue" d="M2359.12,-264.46C2381.96,-254.82 2413.5,-241.51 2437.18,-231.52"/>
<polygon fill="midnightblue" stroke="midnightblue" points="2357.46,-261.36 2349.61,-268.48 2360.18,-267.81 2357.46,-261.36"/>
</g>
<!-- Node41&#45;&gt;Node38 -->
<g id="edge61" class="edge">
<title>Node41&#45;&gt;Node38</title>
<path fill="none" stroke="midnightblue" d="M2396.53,-314.34C2402.48,-299.32 2413.04,-278.95 2429.41,-268 2519.05,-208.02 2563.51,-252.49 2669.41,-232 2678.28,-230.28 2687.81,-228.16 2696.64,-226.06"/>
<polygon fill="midnightblue" stroke="midnightblue" points="2393.1,-313.54 2393,-324.13 2399.68,-315.91 2393.1,-313.54"/>
</g>
<!-- Node42 -->
<g id="node42" class="node">
<title>Node42</title>
<g id="a_node42"><a xlink:href="exif-gps-ifd_8c.html" target="_top" xlink:title="Info about GPS tags.">
<polygon fill="white" stroke="black" points="2437.91,-268.5 2437.91,-287.5 2550.91,-287.5 2550.91,-268.5 2437.91,-268.5"/>
<text text-anchor="middle" x="2494.41" y="-275.5" font-family="Helvetica,sans-Serif" font-size="10.00">libexif/exif&#45;gps&#45;ifd.c</text>
</a>
</g>
</g>
<!-- Node41&#45;&gt;Node42 -->
<g id="edge62" class="edge">
<title>Node41&#45;&gt;Node42</title>
<path fill="none" stroke="midnightblue" d="M2416.23,-319.59C2435.46,-309.61 2461.15,-296.27 2477.74,-287.65"/>
<polygon fill="midnightblue" stroke="midnightblue" points="2414.38,-316.61 2407.12,-324.32 2417.6,-322.82 2414.38,-316.61"/>
</g>
</g>
</svg>
