<?xml version="1.0" encoding="UTF-8" standalone="no"?>
<!DOCTYPE svg PUBLIC "-//W3C//DTD SVG 1.1//EN"
 "http://www.w3.org/Graphics/SVG/1.1/DTD/svg11.dtd">
<!-- Generated by graphviz version 7.0.1 (0)
 -->
<!-- Title: exif_data_new_mem Pages: 1 -->
<svg width="1146pt" height="398pt"
 viewBox="0.00 0.00 1146.00 397.50" xmlns="http://www.w3.org/2000/svg" xmlns:xlink="http://www.w3.org/1999/xlink">
<g id="graph0" class="graph" transform="scale(1 1) rotate(0) translate(4 393.5)">
<title>exif_data_new_mem</title>
<!-- Node1 -->
<g id="Node000001" class="node">
<title>Node1</title>
<g id="a_Node000001"><a xlink:title="Allocate a new ExifData using the given memory allocator.">
<polygon fill="#999999" stroke="#666666" points="119,-275.5 0,-275.5 0,-256.5 119,-256.5 119,-275.5"/>
<text text-anchor="middle" x="59.5" y="-263.5" font-family="Helvetica,sans-Serif" font-size="10.00">exif_data_new_mem</text>
</a>
</g>
</g>
<!-- Node2 -->
<g id="Node000002" class="node">
<title>Node2</title>
<g id="a_Node000002"><a xlink:href="exif-content_8c.html#a5c62559b8623211854276df1536c3dac" target="_top" xlink:title="Reserve memory for and initialize new ExifContent using the specified memory allocator.">
<polygon fill="white" stroke="#666666" points="290.5,-351.5 156.5,-351.5 156.5,-332.5 290.5,-332.5 290.5,-351.5"/>
<text text-anchor="middle" x="223.5" y="-339.5" font-family="Helvetica,sans-Serif" font-size="10.00">exif_content_new_mem</text>
</a>
</g>
</g>
<!-- Node1&#45;&gt;Node2 -->
<g id="edge1_Node000001_Node000002" class="edge">
<title>Node1&#45;&gt;Node2</title>
<g id="a_edge1_Node000001_Node000002"><a xlink:title=" ">
<path fill="none" stroke="#63b8ff" d="M76.48,-275.84C94.95,-286.96 126.48,-305.18 155,-318 163.14,-321.66 172.01,-325.15 180.57,-328.28"/>
<polygon fill="#63b8ff" stroke="#63b8ff" points="179.15,-331.49 189.74,-331.53 181.49,-324.89 179.15,-331.49"/>
</a>
</g>
</g>
<!-- Node3 -->
<g id="Node000003" class="node">
<title>Node3</title>
<g id="a_Node000003"><a xlink:href="exif-mem_8c.html#a68be7c7afc8cff75adc3b1a28b5ae9a2" target="_top" xlink:title=" ">
<polygon fill="white" stroke="#666666" points="440.5,-389.5 345.5,-389.5 345.5,-370.5 440.5,-370.5 440.5,-389.5"/>
<text text-anchor="middle" x="393" y="-377.5" font-family="Helvetica,sans-Serif" font-size="10.00">exif_mem_alloc</text>
</a>
</g>
</g>
<!-- Node1&#45;&gt;Node3 -->
<g id="edge29_Node000001_Node000003" class="edge">
<title>Node1&#45;&gt;Node3</title>
<g id="a_edge29_Node000001_Node000003"><a xlink:title=" ">
<path fill="none" stroke="#63b8ff" d="M66.62,-275.74C79.87,-295.86 113.42,-341.73 155,-361 211.63,-387.25 284.06,-389.12 333.85,-386.25"/>
<polygon fill="#63b8ff" stroke="#63b8ff" points="333.81,-389.76 343.55,-385.6 333.34,-382.78 333.81,-389.76"/>
</a>
</g>
</g>
<!-- Node4 -->
<g id="Node000004" class="node">
<title>Node4</title>
<g id="a_Node000004"><a xlink:href="exif-mem_8c.html#a43190b81b4b4bdb4ffb89bfb612051b1" target="_top" xlink:title=" ">
<polygon fill="white" stroke="#666666" points="1138,-198.5 1047,-198.5 1047,-179.5 1138,-179.5 1138,-198.5"/>
<text text-anchor="middle" x="1092.5" y="-186.5" font-family="Helvetica,sans-Serif" font-size="10.00">exif_mem_free</text>
</a>
</g>
</g>
<!-- Node1&#45;&gt;Node4 -->
<g id="edge30_Node000001_Node000004" class="edge">
<title>Node1&#45;&gt;Node4</title>
<g id="a_edge30_Node000001_Node000004"><a xlink:title=" ">
<path fill="none" stroke="#63b8ff" d="M119.29,-268.76C281.11,-276.06 730.82,-294.32 878,-279 938.08,-272.74 956.14,-276.29 1011,-251 1035.11,-239.89 1058.68,-220.42 1074.03,-206.26"/>
<polygon fill="#63b8ff" stroke="#63b8ff" points="1076.12,-209.1 1080.96,-199.68 1071.29,-204.03 1076.12,-209.1"/>
</a>
</g>
</g>
<!-- Node5 -->
<g id="Node000005" class="node">
<title>Node5</title>
<g id="a_Node000005"><a xlink:href="exif-mem_8c.html#af28c61972f529be46907956e0b3e7a60" target="_top" xlink:title="Refcount an ExifMem.">
<polygon fill="white" stroke="#666666" points="435.5,-313.5 350.5,-313.5 350.5,-294.5 435.5,-294.5 435.5,-313.5"/>
<text text-anchor="middle" x="393" y="-301.5" font-family="Helvetica,sans-Serif" font-size="10.00">exif_mem_ref</text>
</a>
</g>
</g>
<!-- Node1&#45;&gt;Node5 -->
<g id="edge31_Node000001_Node000005" class="edge">
<title>Node1&#45;&gt;Node5</title>
<g id="a_edge31_Node000001_Node000005"><a xlink:title=" ">
<path fill="none" stroke="#63b8ff" d="M119.42,-275.16C131.19,-276.87 143.48,-278.56 155,-280 218.12,-287.87 290.95,-294.95 339.04,-299.34"/>
<polygon fill="#63b8ff" stroke="#63b8ff" points="338.62,-302.82 348.9,-300.24 339.26,-295.85 338.62,-302.82"/>
</a>
</g>
</g>
<!-- Node6 -->
<g id="Node000006" class="node">
<title>Node6</title>
<g id="a_Node000006"><a xlink:href="exif-data_8c.html#a2d2f8fee30176bd6460d51d33d080674" target="_top" xlink:title=" ">
<polygon fill="white" stroke="#666666" points="267,-218.5 180,-218.5 180,-199.5 267,-199.5 267,-218.5"/>
<text text-anchor="middle" x="223.5" y="-206.5" font-family="Helvetica,sans-Serif" font-size="10.00">exif_data_free</text>
</a>
</g>
</g>
<!-- Node1&#45;&gt;Node6 -->
<g id="edge5_Node000001_Node000006" class="edge">
<title>Node1&#45;&gt;Node6</title>
<g id="a_edge5_Node000001_Node000006"><a xlink:title=" ">
<path fill="none" stroke="#63b8ff" d="M88.72,-256.07C115,-246.82 154.42,-232.95 183.67,-222.66"/>
<polygon fill="#63b8ff" stroke="#63b8ff" points="184.63,-226.03 192.91,-219.41 182.31,-219.43 184.63,-226.03"/>
</a>
</g>
</g>
<!-- Node16 -->
<g id="Node000016" class="node">
<title>Node16</title>
<g id="a_Node000016"><a xlink:href="exif-data_8c.html#abe6f9020e02df0d550545b50ddcafe24" target="_top" xlink:title="Set the data type for the given ExifData.">
<polygon fill="white" stroke="#666666" points="292,-181.5 155,-181.5 155,-162.5 292,-162.5 292,-181.5"/>
<text text-anchor="middle" x="223.5" y="-169.5" font-family="Helvetica,sans-Serif" font-size="10.00">exif_data_set_data_type</text>
</a>
</g>
</g>
<!-- Node1&#45;&gt;Node16 -->
<g id="edge27_Node000001_Node000016" class="edge">
<title>Node1&#45;&gt;Node16</title>
<g id="a_edge27_Node000001_Node000016"><a xlink:title=" ">
<path fill="none" stroke="#63b8ff" d="M70,-256.03C86.01,-239.8 120.07,-207.7 155,-190 158.04,-188.46 161.22,-187.04 164.49,-185.74"/>
<polygon fill="#63b8ff" stroke="#63b8ff" points="165.43,-189.12 173.66,-182.45 163.07,-182.53 165.43,-189.12"/>
</a>
</g>
</g>
<!-- Node17 -->
<g id="Node000017" class="node">
<title>Node17</title>
<g id="a_Node000017"><a xlink:href="exif-data_8c.html#af3fd819c29391da3b444cc347b86a3d4" target="_top" xlink:title="Set the given option on the given ExifData.">
<polygon fill="white" stroke="#666666" points="283,-144.5 164,-144.5 164,-125.5 283,-125.5 283,-144.5"/>
<text text-anchor="middle" x="223.5" y="-132.5" font-family="Helvetica,sans-Serif" font-size="10.00">exif_data_set_option</text>
</a>
</g>
</g>
<!-- Node1&#45;&gt;Node17 -->
<g id="edge28_Node000001_Node000017" class="edge">
<title>Node1&#45;&gt;Node17</title>
<g id="a_edge28_Node000001_Node000017"><a xlink:title=" ">
<path fill="none" stroke="#63b8ff" d="M65.9,-256.09C78.45,-234 111.87,-180.49 155,-153 157,-151.73 159.08,-150.54 161.23,-149.44"/>
<polygon fill="#63b8ff" stroke="#63b8ff" points="162.51,-152.7 170.27,-145.48 159.7,-146.29 162.51,-152.7"/>
</a>
</g>
</g>
<!-- Node2&#45;&gt;Node3 -->
<g id="edge2_Node000002_Node000003" class="edge">
<title>Node2&#45;&gt;Node3</title>
<g id="a_edge2_Node000002_Node000003"><a xlink:title=" ">
<path fill="none" stroke="#63b8ff" d="M268.51,-351.98C289.49,-356.74 314.8,-362.49 337.03,-367.53"/>
<polygon fill="#63b8ff" stroke="#63b8ff" points="335.99,-370.88 346.52,-369.68 337.54,-364.06 335.99,-370.88"/>
</a>
</g>
</g>
<!-- Node2&#45;&gt;Node4 -->
<g id="edge3_Node000002_Node000004" class="edge">
<title>Node2&#45;&gt;Node4</title>
<g id="a_edge3_Node000002_Node000004"><a xlink:title=" ">
<path fill="none" stroke="#63b8ff" d="M290.97,-342C357.71,-342 463.48,-342 555,-342 555,-342 555,-342 833.5,-342 913.11,-342 944.14,-361.2 1011,-318 1050.95,-292.19 1074.54,-238.81 1085.01,-209.45"/>
<polygon fill="#63b8ff" stroke="#63b8ff" points="1088.23,-210.85 1088.12,-200.26 1081.6,-208.61 1088.23,-210.85"/>
</a>
</g>
</g>
<!-- Node2&#45;&gt;Node5 -->
<g id="edge4_Node000002_Node000005" class="edge">
<title>Node2&#45;&gt;Node5</title>
<g id="a_edge4_Node000002_Node000005"><a xlink:title=" ">
<path fill="none" stroke="#63b8ff" d="M268.51,-332.02C290.07,-327.12 316.2,-321.2 338.86,-316.05"/>
<polygon fill="#63b8ff" stroke="#63b8ff" points="339.56,-319.49 348.54,-313.86 338.01,-312.66 339.56,-319.49"/>
</a>
</g>
</g>
<!-- Node6&#45;&gt;Node4 -->
<g id="edge20_Node000006_Node000004" class="edge">
<title>Node6&#45;&gt;Node4</title>
<g id="a_edge20_Node000006_Node000004"><a xlink:title=" ">
<path fill="none" stroke="#63b8ff" d="M267.21,-203.41C276.23,-200.57 285.09,-196.33 292,-190 325.3,-159.51 296.62,-127.47 328,-95 404,-16.36 445.63,0 555,0 555,0 555,0 833.5,0 916.63,0 945.77,-7.46 1011,-59 1048.18,-88.37 1072.65,-139.99 1084.06,-168.55"/>
<polygon fill="#63b8ff" stroke="#63b8ff" points="1080.76,-169.74 1087.6,-177.83 1087.3,-167.24 1080.76,-169.74"/>
</a>
</g>
</g>
<!-- Node7 -->
<g id="Node000007" class="node">
<title>Node7</title>
<g id="a_Node000007"><a xlink:href="exif-content_8c.html#a5e72c0f223d5d1aa33b34f388a5c9d37" target="_top" xlink:title="Decrease reference counter for ExifContent.">
<polygon fill="white" stroke="#666666" points="447,-123.5 339,-123.5 339,-104.5 447,-104.5 447,-123.5"/>
<text text-anchor="middle" x="393" y="-111.5" font-family="Helvetica,sans-Serif" font-size="10.00">exif_content_unref</text>
</a>
</g>
</g>
<!-- Node6&#45;&gt;Node7 -->
<g id="edge6_Node000006_Node000007" class="edge">
<title>Node6&#45;&gt;Node7</title>
<g id="a_edge6_Node000006_Node000007"><a xlink:title=" ">
<path fill="none" stroke="#63b8ff" d="M267.22,-201.78C275.93,-199.03 284.67,-195.23 292,-190 314.88,-173.67 305.83,-155.28 328,-138 332.8,-134.26 338.24,-131.06 343.87,-128.33"/>
<polygon fill="#63b8ff" stroke="#63b8ff" points="344.94,-131.68 352.74,-124.5 342.17,-125.25 344.94,-131.68"/>
</a>
</g>
</g>
<!-- Node11 -->
<g id="Node000011" class="node">
<title>Node11</title>
<g id="a_Node000011"><a xlink:href="exif-mem_8c.html#a66744e0987af08c443df247ce55f7d87" target="_top" xlink:title="Unrefcount an ExifMem.">
<polygon fill="white" stroke="#666666" points="1011,-170.5 914,-170.5 914,-151.5 1011,-151.5 1011,-170.5"/>
<text text-anchor="middle" x="962.5" y="-158.5" font-family="Helvetica,sans-Serif" font-size="10.00">exif_mem_unref</text>
</a>
</g>
</g>
<!-- Node6&#45;&gt;Node11 -->
<g id="edge21_Node000006_Node000011" class="edge">
<title>Node6&#45;&gt;Node11</title>
<g id="a_edge21_Node000006_Node000011"><a xlink:title=" ">
<path fill="none" stroke="#63b8ff" d="M265.3,-199.02C274.22,-196.42 283.52,-193.39 292,-190 308.8,-183.29 310.64,-176.08 328,-171 425.17,-142.58 453.76,-152 555,-152 555,-152 555,-152 703.5,-152 771.83,-152 850.29,-155.19 902.57,-157.77"/>
<polygon fill="#63b8ff" stroke="#63b8ff" points="902.29,-161.26 912.45,-158.27 902.64,-154.27 902.29,-161.26"/>
</a>
</g>
</g>
<!-- Node12 -->
<g id="Node000012" class="node">
<title>Node12</title>
<g id="a_Node000012"><a xlink:href="exif-log_8c.html#a7a9b738a7429197d68c80ffedac7d8fb" target="_top" xlink:title=" ">
<polygon fill="white" stroke="#666666" points="745.5,-237.5 659.5,-237.5 659.5,-218.5 745.5,-218.5 745.5,-237.5"/>
<text text-anchor="middle" x="702.5" y="-225.5" font-family="Helvetica,sans-Serif" font-size="10.00">exif_log_unref</text>
</a>
</g>
</g>
<!-- Node6&#45;&gt;Node12 -->
<g id="edge19_Node000006_Node000012" class="edge">
<title>Node6&#45;&gt;Node12</title>
<g id="a_edge19_Node000006_Node000012"><a xlink:title=" ">
<path fill="none" stroke="#63b8ff" d="M267.25,-210.7C354.29,-214.17 551.91,-222.04 647.59,-225.85"/>
<polygon fill="#63b8ff" stroke="#63b8ff" points="647.37,-229.35 657.5,-226.25 647.65,-222.35 647.37,-229.35"/>
</a>
</g>
</g>
<!-- Node14 -->
<g id="Node000014" class="node">
<title>Node14</title>
<g id="a_Node000014"><a xlink:href="exif-mnote-data_8c.html#af910e5c862e5aba351b84b2142d98192" target="_top" xlink:title=" ">
<polygon fill="white" stroke="#666666" points="458,-199.5 328,-199.5 328,-180.5 458,-180.5 458,-199.5"/>
<text text-anchor="middle" x="393" y="-187.5" font-family="Helvetica,sans-Serif" font-size="10.00">exif_mnote_data_unref</text>
</a>
</g>
</g>
<!-- Node6&#45;&gt;Node14 -->
<g id="edge22_Node000006_Node000014" class="edge">
<title>Node6&#45;&gt;Node14</title>
<g id="a_edge22_Node000006_Node000014"><a xlink:title=" ">
<path fill="none" stroke="#63b8ff" d="M267.2,-204.16C282.23,-202.45 299.6,-200.48 316.51,-198.56"/>
<polygon fill="#63b8ff" stroke="#63b8ff" points="316.49,-202.09 326.03,-197.48 315.7,-195.13 316.49,-202.09"/>
</a>
</g>
</g>
<!-- Node8 -->
<g id="Node000008" class="node">
<title>Node8</title>
<g id="a_Node000008"><a xlink:href="exif-content_8c.html#af77d27f5949aa4249fd54a5146c28289" target="_top" xlink:title="Actually free the ExifContent.">
<polygon fill="white" stroke="#666666" points="607,-123.5 505,-123.5 505,-104.5 607,-104.5 607,-123.5"/>
<text text-anchor="middle" x="556" y="-111.5" font-family="Helvetica,sans-Serif" font-size="10.00">exif_content_free</text>
</a>
</g>
</g>
<!-- Node7&#45;&gt;Node8 -->
<g id="edge7_Node000007_Node000008" class="edge">
<title>Node7&#45;&gt;Node8</title>
<g id="a_edge7_Node000007_Node000008"><a xlink:title=" ">
<path fill="none" stroke="#63b8ff" d="M447.16,-114C461.91,-114 478.04,-114 493.23,-114"/>
<polygon fill="#63b8ff" stroke="#63b8ff" points="493.11,-117.5 503.11,-114 493.11,-110.5 493.11,-117.5"/>
</a>
</g>
</g>
<!-- Node8&#45;&gt;Node4 -->
<g id="edge17_Node000008_Node000004" class="edge">
<title>Node8&#45;&gt;Node4</title>
<g id="a_edge17_Node000008_Node000004"><a xlink:title=" ">
<path fill="none" stroke="#63b8ff" d="M568.89,-104.12C586.28,-90.39 620.26,-66.18 654,-57 750.06,-30.86 779.66,-41.5 878,-57 939.37,-66.67 958.84,-66.26 1011,-100 1039.6,-118.5 1064.51,-149.67 1078.77,-169.78"/>
<polygon fill="#63b8ff" stroke="#63b8ff" points="1075.81,-171.66 1084.36,-177.92 1081.58,-167.7 1075.81,-171.66"/>
</a>
</g>
</g>
<!-- Node9 -->
<g id="Node000009" class="node">
<title>Node9</title>
<g id="a_Node000009"><a xlink:href="exif-entry_8c.html#a82d5d923121488d847d341727cdd2ef4" target="_top" xlink:title="Decrease reference counter for ExifEntry.">
<polygon fill="white" stroke="#666666" points="751,-85.5 654,-85.5 654,-66.5 751,-66.5 751,-85.5"/>
<text text-anchor="middle" x="702.5" y="-73.5" font-family="Helvetica,sans-Serif" font-size="10.00">exif_entry_unref</text>
</a>
</g>
</g>
<!-- Node8&#45;&gt;Node9 -->
<g id="edge8_Node000008_Node000009" class="edge">
<title>Node8&#45;&gt;Node9</title>
<g id="a_edge8_Node000008_Node000009"><a xlink:title=" ">
<path fill="none" stroke="#63b8ff" d="M594.97,-104.02C612.57,-99.39 633.7,-93.83 652.49,-88.89"/>
<polygon fill="#63b8ff" stroke="#63b8ff" points="653.29,-92.3 662.07,-86.37 651.51,-85.53 653.29,-92.3"/>
</a>
</g>
</g>
<!-- Node8&#45;&gt;Node11 -->
<g id="edge18_Node000008_Node000011" class="edge">
<title>Node8&#45;&gt;Node11</title>
<g id="a_edge18_Node000008_Node000011"><a xlink:title=" ">
<path fill="none" stroke="#63b8ff" d="M607.41,-114.75C670.94,-116.39 783.29,-121.58 878,-138 891.89,-140.41 906.8,-144.14 920.13,-147.9"/>
<polygon fill="#63b8ff" stroke="#63b8ff" points="918.86,-151.17 929.44,-150.61 920.82,-144.45 918.86,-151.17"/>
</a>
</g>
</g>
<!-- Node8&#45;&gt;Node12 -->
<g id="edge13_Node000008_Node000012" class="edge">
<title>Node8&#45;&gt;Node12</title>
<g id="a_edge13_Node000008_Node000012"><a xlink:title=" ">
<path fill="none" stroke="#63b8ff" d="M569.57,-123.92C594.23,-143.37 649.21,-186.74 679.84,-210.91"/>
<polygon fill="#63b8ff" stroke="#63b8ff" points="677.65,-213.64 687.67,-217.09 681.98,-208.15 677.65,-213.64"/>
</a>
</g>
</g>
<!-- Node10 -->
<g id="Node000010" class="node">
<title>Node10</title>
<g id="a_Node000010"><a xlink:href="exif-entry_8c.html#a2879215e3863186650d3f32eb63bbaf4" target="_top" xlink:title="Actually free the ExifEntry.">
<polygon fill="white" stroke="#666666" points="878,-85.5 787,-85.5 787,-66.5 878,-66.5 878,-85.5"/>
<text text-anchor="middle" x="832.5" y="-73.5" font-family="Helvetica,sans-Serif" font-size="10.00">exif_entry_free</text>
</a>
</g>
</g>
<!-- Node9&#45;&gt;Node10 -->
<g id="edge9_Node000009_Node000010" class="edge">
<title>Node9&#45;&gt;Node10</title>
<g id="a_edge9_Node000009_Node000010"><a xlink:title=" ">
<path fill="none" stroke="#63b8ff" d="M751.16,-76C759.09,-76 767.37,-76 775.47,-76"/>
<polygon fill="#63b8ff" stroke="#63b8ff" points="775.25,-79.5 785.25,-76 775.25,-72.5 775.25,-79.5"/>
</a>
</g>
</g>
<!-- Node10&#45;&gt;Node4 -->
<g id="edge10_Node000010_Node000004" class="edge">
<title>Node10&#45;&gt;Node4</title>
<g id="a_edge10_Node000010_Node000004"><a xlink:title=" ">
<path fill="none" stroke="#63b8ff" d="M865.27,-85.97C901.32,-97.7 961.53,-118.57 1011,-142 1030.44,-151.2 1051.39,-163.52 1067.04,-173.23"/>
<polygon fill="#63b8ff" stroke="#63b8ff" points="1064.89,-176.01 1075.21,-178.37 1068.61,-170.09 1064.89,-176.01"/>
</a>
</g>
</g>
<!-- Node10&#45;&gt;Node11 -->
<g id="edge11_Node000010_Node000011" class="edge">
<title>Node10&#45;&gt;Node11</title>
<g id="a_edge11_Node000010_Node000011"><a xlink:title=" ">
<path fill="none" stroke="#63b8ff" d="M853.32,-85.95C861.15,-90.07 870.13,-95.04 878,-100 899.96,-113.85 923.76,-131.52 940.31,-144.27"/>
<polygon fill="#63b8ff" stroke="#63b8ff" points="937.91,-146.84 947.95,-150.22 942.2,-141.32 937.91,-146.84"/>
</a>
</g>
</g>
<!-- Node11&#45;&gt;Node4 -->
<g id="edge12_Node000011_Node000004" class="edge">
<title>Node11&#45;&gt;Node4</title>
<g id="a_edge12_Node000011_Node000004"><a xlink:title=" ">
<path fill="none" stroke="#63b8ff" d="M1008.99,-170.95C1017.58,-172.83 1026.65,-174.81 1035.52,-176.75"/>
<polygon fill="#63b8ff" stroke="#63b8ff" points="1034.59,-180.13 1045.11,-178.85 1036.09,-173.3 1034.59,-180.13"/>
</a>
</g>
</g>
<!-- Node13 -->
<g id="Node000013" class="node">
<title>Node13</title>
<g id="a_Node000013"><a xlink:href="exif-log_8c.html#acd0808d6d5be73f28059797c2e2e67dc" target="_top" xlink:title="Delete instance of ExifLog.">
<polygon fill="white" stroke="#666666" points="872.5,-237.5 792.5,-237.5 792.5,-218.5 872.5,-218.5 872.5,-237.5"/>
<text text-anchor="middle" x="832.5" y="-225.5" font-family="Helvetica,sans-Serif" font-size="10.00">exif_log_free</text>
</a>
</g>
</g>
<!-- Node12&#45;&gt;Node13 -->
<g id="edge14_Node000012_Node000013" class="edge">
<title>Node12&#45;&gt;Node13</title>
<g id="a_edge14_Node000012_Node000013"><a xlink:title=" ">
<path fill="none" stroke="#63b8ff" d="M745.77,-228C757.02,-228 769.28,-228 780.93,-228"/>
<polygon fill="#63b8ff" stroke="#63b8ff" points="780.8,-231.5 790.8,-228 780.8,-224.5 780.8,-231.5"/>
</a>
</g>
</g>
<!-- Node13&#45;&gt;Node4 -->
<g id="edge15_Node000013_Node000004" class="edge">
<title>Node13&#45;&gt;Node4</title>
<g id="a_edge15_Node000013_Node000004"><a xlink:title=" ">
<path fill="none" stroke="#63b8ff" d="M872.97,-222.03C916.35,-215.48 986.4,-204.89 1035.47,-197.47"/>
<polygon fill="#63b8ff" stroke="#63b8ff" points="1035.98,-200.93 1045.34,-195.98 1034.93,-194.01 1035.98,-200.93"/>
</a>
</g>
</g>
<!-- Node13&#45;&gt;Node11 -->
<g id="edge16_Node000013_Node000011" class="edge">
<title>Node13&#45;&gt;Node11</title>
<g id="a_edge16_Node000013_Node000011"><a xlink:title=" ">
<path fill="none" stroke="#63b8ff" d="M852.39,-218.11C873.47,-207.08 907.84,-189.09 932.37,-176.25"/>
<polygon fill="#63b8ff" stroke="#63b8ff" points="933.96,-179.37 941.19,-171.63 930.71,-173.17 933.96,-179.37"/>
</a>
</g>
</g>
<!-- Node15 -->
<g id="Node000015" class="node">
<title>Node15</title>
<g id="a_Node000015"><a xlink:href="exif-mnote-data_8c.html#a2f715582f27a9821560931aeaa139abd" target="_top" xlink:title=" ">
<polygon fill="white" stroke="#666666" points="618,-199.5 494,-199.5 494,-180.5 618,-180.5 618,-199.5"/>
<text text-anchor="middle" x="556" y="-187.5" font-family="Helvetica,sans-Serif" font-size="10.00">exif_mnote_data_free</text>
</a>
</g>
</g>
<!-- Node14&#45;&gt;Node15 -->
<g id="edge23_Node000014_Node000015" class="edge">
<title>Node14&#45;&gt;Node15</title>
<g id="a_edge23_Node000014_Node000015"><a xlink:title=" ">
<path fill="none" stroke="#63b8ff" d="M458.09,-190C466.08,-190 474.29,-190 482.4,-190"/>
<polygon fill="#63b8ff" stroke="#63b8ff" points="482.23,-193.5 492.23,-190 482.23,-186.5 482.23,-193.5"/>
</a>
</g>
</g>
<!-- Node15&#45;&gt;Node4 -->
<g id="edge25_Node000015_Node000004" class="edge">
<title>Node15&#45;&gt;Node4</title>
<g id="a_edge25_Node000015_Node000004"><a xlink:title=" ">
<path fill="none" stroke="#63b8ff" d="M569.22,-199.93C586.73,-213.47 620.57,-237.04 654,-246 807.58,-287.15 858.44,-267.77 1011,-223 1028.1,-217.98 1046.46,-210.41 1061.32,-203.68"/>
<polygon fill="#63b8ff" stroke="#63b8ff" points="1062.48,-207 1070.08,-199.62 1059.54,-200.65 1062.48,-207"/>
</a>
</g>
</g>
<!-- Node15&#45;&gt;Node11 -->
<g id="edge26_Node000015_Node000011" class="edge">
<title>Node15&#45;&gt;Node11</title>
<g id="a_edge26_Node000015_Node000011"><a xlink:title=" ">
<path fill="none" stroke="#63b8ff" d="M618.43,-185.6C695.48,-180.07 826.65,-170.67 902.52,-165.23"/>
<polygon fill="#63b8ff" stroke="#63b8ff" points="902.52,-168.74 912.25,-164.53 902.02,-161.76 902.52,-168.74"/>
</a>
</g>
</g>
<!-- Node15&#45;&gt;Node12 -->
<g id="edge24_Node000015_Node000012" class="edge">
<title>Node15&#45;&gt;Node12</title>
<g id="a_edge24_Node000015_Node000012"><a xlink:title=" ">
<path fill="none" stroke="#63b8ff" d="M594.97,-199.98C612.57,-204.61 633.7,-210.17 652.49,-215.11"/>
<polygon fill="#63b8ff" stroke="#63b8ff" points="651.51,-218.47 662.07,-217.63 653.29,-211.7 651.51,-218.47"/>
</a>
</g>
</g>
</g>
</svg>
