<?xml version="1.0" encoding="UTF-8" standalone="no"?>
<!DOCTYPE svg PUBLIC "-//W3C//DTD SVG 1.1//EN"
 "http://www.w3.org/Graphics/SVG/1.1/DTD/svg11.dtd">
<!-- Generated by graphviz version 7.0.1 (0)
 -->
<!-- Title: exif_mnote_data_pentax_set_byte_order Pages: 1 -->
<svg width="714pt" height="473pt"
 viewBox="0.00 0.00 714.00 473.00" xmlns="http://www.w3.org/2000/svg" xmlns:xlink="http://www.w3.org/1999/xlink">
<g id="graph0" class="graph" transform="scale(1 1) rotate(0) translate(4 469)">
<title>exif_mnote_data_pentax_set_byte_order</title>
<!-- Node1 -->
<g id="Node000001" class="node">
<title>Node1</title>
<g id="a_Node000001"><a xlink:title=" ">
<polygon fill="#999999" stroke="#666666" points="138,-282.5 0,-282.5 0,-252.5 138,-252.5 138,-282.5"/>
<text text-anchor="start" x="8" y="-270.5" font-family="Helvetica,sans-Serif" font-size="10.00">exif_mnote_data_pentax</text>
<text text-anchor="middle" x="69" y="-259.5" font-family="Helvetica,sans-Serif" font-size="10.00">_set_byte_order</text>
</a>
</g>
</g>
<!-- Node2 -->
<g id="Node000002" class="node">
<title>Node2</title>
<g id="a_Node000002"><a xlink:href="exif-utils_8c.html#a54ef3b86ffeb643e9c4434b85ccf2992" target="_top" xlink:title=" ">
<polygon fill="white" stroke="#666666" points="287,-261.5 174,-261.5 174,-231.5 287,-231.5 287,-261.5"/>
<text text-anchor="start" x="182" y="-249.5" font-family="Helvetica,sans-Serif" font-size="10.00">exif_array_set_byte</text>
<text text-anchor="middle" x="230.5" y="-238.5" font-family="Helvetica,sans-Serif" font-size="10.00">_order</text>
</a>
</g>
</g>
<!-- Node1&#45;&gt;Node2 -->
<g id="edge1_Node000001_Node000002" class="edge">
<title>Node1&#45;&gt;Node2</title>
<g id="a_edge1_Node000001_Node000002"><a xlink:title=" ">
<path fill="none" stroke="#63b8ff" d="M138.11,-258.53C146.16,-257.47 154.38,-256.39 162.42,-255.33"/>
<polygon fill="#63b8ff" stroke="#63b8ff" points="162.68,-258.83 172.14,-254.05 161.77,-251.89 162.68,-258.83"/>
</a>
</g>
</g>
<!-- Node3 -->
<g id="Node000003" class="node">
<title>Node3</title>
<g id="a_Node000003"><a xlink:href="exif-format_8c.html#a924038efe0cd8ebade8f44619dd794f3" target="_top" xlink:title="Return the raw size of the given EXIF data type.">
<polygon fill="white" stroke="#666666" points="442,-465 323,-465 323,-446 442,-446 442,-465"/>
<text text-anchor="middle" x="382.5" y="-453" font-family="Helvetica,sans-Serif" font-size="10.00">exif_format_get_size</text>
</a>
</g>
</g>
<!-- Node1&#45;&gt;Node3 -->
<g id="edge23_Node000001_Node000003" class="edge">
<title>Node1&#45;&gt;Node3</title>
<g id="a_edge23_Node000001_Node000003"><a xlink:title=" ">
<path fill="none" stroke="#63b8ff" d="M95.47,-282.96C141.06,-310.62 239.65,-370.36 323,-420.5 333.46,-426.79 344.99,-433.7 355.03,-439.7"/>
<polygon fill="#63b8ff" stroke="#63b8ff" points="353.17,-442.66 363.55,-444.79 356.76,-436.65 353.17,-442.66"/>
</a>
</g>
</g>
<!-- Node2&#45;&gt;Node3 -->
<g id="edge2_Node000002_Node000003" class="edge">
<title>Node2&#45;&gt;Node3</title>
<g id="a_edge2_Node000002_Node000003"><a xlink:title=" ">
<path fill="none" stroke="#63b8ff" d="M239.05,-261.71C249.74,-283.25 269.88,-323.87 287,-358.5 303.03,-390.93 296.56,-406.82 323,-431.5 326.71,-434.96 330.99,-437.96 335.51,-440.54"/>
<polygon fill="#63b8ff" stroke="#63b8ff" points="333.8,-443.6 344.31,-444.89 336.9,-437.33 333.8,-443.6"/>
</a>
</g>
</g>
<!-- Node4 -->
<g id="Node000004" class="node">
<title>Node4</title>
<g id="a_Node000004"><a xlink:href="exif-utils_8c.html#a4ad94614630897766dd0a5c9bc2a59bf" target="_top" xlink:title="Retrieve an ExifLong value from memory.">
<polygon fill="white" stroke="#666666" points="571.5,-389 488.5,-389 488.5,-370 571.5,-370 571.5,-389"/>
<text text-anchor="middle" x="530" y="-377" font-family="Helvetica,sans-Serif" font-size="10.00">exif_get_long</text>
</a>
</g>
</g>
<!-- Node2&#45;&gt;Node4 -->
<g id="edge3_Node000002_Node000004" class="edge">
<title>Node2&#45;&gt;Node4</title>
<g id="a_edge3_Node000002_Node000004"><a xlink:title=" ">
<path fill="none" stroke="#63b8ff" d="M238.38,-261.89C254.6,-297.4 295.92,-383.19 323,-398.5 377.39,-429.24 452.98,-409.43 495.85,-393.58"/>
<polygon fill="#63b8ff" stroke="#63b8ff" points="497.03,-396.87 505.1,-390 494.51,-390.34 497.03,-396.87"/>
</a>
</g>
</g>
<!-- Node5 -->
<g id="Node000005" class="node">
<title>Node5</title>
<g id="a_Node000005"><a xlink:href="exif-utils_8c.html#a56b96f076a13da6ed926e1ef29cb2dc3" target="_top" xlink:title="Retrieve an ExifSLong value from memory.">
<polygon fill="white" stroke="#666666" points="706,-351 618,-351 618,-332 706,-332 706,-351"/>
<text text-anchor="middle" x="662" y="-339" font-family="Helvetica,sans-Serif" font-size="10.00">exif_get_slong</text>
</a>
</g>
</g>
<!-- Node2&#45;&gt;Node5 -->
<g id="edge9_Node000002_Node000005" class="edge">
<title>Node2&#45;&gt;Node5</title>
<g id="a_edge9_Node000002_Node000005"><a xlink:title=" ">
<path fill="none" stroke="#63b8ff" d="M244.19,-261.8C260.35,-280.01 290.14,-309.58 323,-322.5 417.1,-359.5 537.38,-355.35 606.15,-348.65"/>
<polygon fill="#63b8ff" stroke="#63b8ff" points="606.46,-352.14 616.05,-347.62 605.74,-345.17 606.46,-352.14"/>
</a>
</g>
</g>
<!-- Node6 -->
<g id="Node000006" class="node">
<title>Node6</title>
<g id="a_Node000006"><a xlink:href="exif-utils_8c.html#a1feb547c289aa57a4d2119338b03706c" target="_top" xlink:title="Retrieve an ExifRational value from memory.">
<polygon fill="white" stroke="#666666" points="432,-389 333,-389 333,-370 432,-370 432,-389"/>
<text text-anchor="middle" x="382.5" y="-377" font-family="Helvetica,sans-Serif" font-size="10.00">exif_get_rational</text>
</a>
</g>
</g>
<!-- Node2&#45;&gt;Node6 -->
<g id="edge5_Node000002_Node000006" class="edge">
<title>Node2&#45;&gt;Node6</title>
<g id="a_edge5_Node000002_Node000006"><a xlink:title=" ">
<path fill="none" stroke="#63b8ff" d="M240.91,-261.91C255.76,-285.07 286.69,-328.98 323,-355.5 327.93,-359.1 333.48,-362.27 339.15,-365.03"/>
<polygon fill="#63b8ff" stroke="#63b8ff" points="337.42,-368.09 347.98,-368.93 340.25,-361.69 337.42,-368.09"/>
</a>
</g>
</g>
<!-- Node7 -->
<g id="Node000007" class="node">
<title>Node7</title>
<g id="a_Node000007"><a xlink:href="exif-utils_8c.html#a4b4acf537a8c6b9405e7b53be868e4d7" target="_top" xlink:title="Retrieve an ExifShort value from memory.">
<polygon fill="white" stroke="#666666" points="425.5,-313 339.5,-313 339.5,-294 425.5,-294 425.5,-313"/>
<text text-anchor="middle" x="382.5" y="-301" font-family="Helvetica,sans-Serif" font-size="10.00">exif_get_short</text>
</a>
</g>
</g>
<!-- Node2&#45;&gt;Node7 -->
<g id="edge7_Node000002_Node000007" class="edge">
<title>Node2&#45;&gt;Node7</title>
<g id="a_edge7_Node000002_Node000007"><a xlink:title=" ">
<path fill="none" stroke="#63b8ff" d="M272.09,-261.93C294.8,-270.56 322.89,-281.23 344.92,-289.6"/>
<polygon fill="#63b8ff" stroke="#63b8ff" points="343.51,-292.81 354.1,-293.09 345.99,-286.26 343.51,-292.81"/>
</a>
</g>
</g>
<!-- Node8 -->
<g id="Node000008" class="node">
<title>Node8</title>
<g id="a_Node000008"><a xlink:href="exif-utils_8c.html#a6baf094a71392f9cea23ad633ec13c8b" target="_top" xlink:title="Retrieve an ExifSShort value from memory.">
<polygon fill="white" stroke="#666666" points="576,-294 484,-294 484,-275 576,-275 576,-294"/>
<text text-anchor="middle" x="530" y="-282" font-family="Helvetica,sans-Serif" font-size="10.00">exif_get_sshort</text>
</a>
</g>
</g>
<!-- Node2&#45;&gt;Node8 -->
<g id="edge12_Node000002_Node000008" class="edge">
<title>Node2&#45;&gt;Node8</title>
<g id="a_edge12_Node000002_Node000008"><a xlink:title=" ">
<path fill="none" stroke="#63b8ff" d="M287.46,-253.65C340.3,-260.4 419.16,-270.47 472.26,-277.25"/>
<polygon fill="#63b8ff" stroke="#63b8ff" points="471.65,-280.7 482.01,-278.5 472.54,-273.76 471.65,-280.7"/>
</a>
</g>
</g>
<!-- Node9 -->
<g id="Node000009" class="node">
<title>Node9</title>
<g id="a_Node000009"><a xlink:href="exif-utils_8c.html#adb97c3499488d5642a82df1cb16dc2cb" target="_top" xlink:title="Retrieve an ExifSRational value from memory.">
<polygon fill="white" stroke="#666666" points="582,-237 478,-237 478,-218 582,-218 582,-237"/>
<text text-anchor="middle" x="530" y="-225" font-family="Helvetica,sans-Serif" font-size="10.00">exif_get_srational</text>
</a>
</g>
</g>
<!-- Node2&#45;&gt;Node9 -->
<g id="edge10_Node000002_Node000009" class="edge">
<title>Node2&#45;&gt;Node9</title>
<g id="a_edge10_Node000002_Node000009"><a xlink:title=" ">
<path fill="none" stroke="#63b8ff" d="M287.46,-242.93C338.42,-239.67 413.58,-234.87 466.5,-231.49"/>
<polygon fill="#63b8ff" stroke="#63b8ff" points="466.5,-235 476.25,-230.87 466.05,-228.01 466.5,-235"/>
</a>
</g>
</g>
<!-- Node10 -->
<g id="Node000010" class="node">
<title>Node10</title>
<g id="a_Node000010"><a xlink:href="exif-utils_8c.html#ac90147d0cc97bec7a577bf9576191bf8" target="_top" xlink:title="Store an ExifLong value into memory in EXIF format.">
<polygon fill="white" stroke="#666666" points="571,-161 489,-161 489,-142 571,-142 571,-161"/>
<text text-anchor="middle" x="530" y="-149" font-family="Helvetica,sans-Serif" font-size="10.00">exif_set_long</text>
</a>
</g>
</g>
<!-- Node2&#45;&gt;Node10 -->
<g id="edge13_Node000002_Node000010" class="edge">
<title>Node2&#45;&gt;Node10</title>
<g id="a_edge13_Node000002_Node000010"><a xlink:title=" ">
<path fill="none" stroke="#63b8ff" d="M279.96,-231.03C337.57,-212.63 432.75,-182.24 487.24,-164.84"/>
<polygon fill="#63b8ff" stroke="#63b8ff" points="487.99,-168.27 496.46,-161.89 485.86,-161.6 487.99,-168.27"/>
</a>
</g>
</g>
<!-- Node11 -->
<g id="Node000011" class="node">
<title>Node11</title>
<g id="a_Node000011"><a xlink:href="exif-utils_8c.html#ae6e3b9d1663f9ab9bd462d73a310ca03" target="_top" xlink:title="Store an ExifSLong value into memory in EXIF format.">
<polygon fill="white" stroke="#666666" points="705.5,-123 618.5,-123 618.5,-104 705.5,-104 705.5,-123"/>
<text text-anchor="middle" x="662" y="-111" font-family="Helvetica,sans-Serif" font-size="10.00">exif_set_slong</text>
</a>
</g>
</g>
<!-- Node2&#45;&gt;Node11 -->
<g id="edge19_Node000002_Node000011" class="edge">
<title>Node2&#45;&gt;Node11</title>
<g id="a_edge19_Node000002_Node000011"><a xlink:title=" ">
<path fill="none" stroke="#63b8ff" d="M238.5,-231.41C251.23,-205.96 280.79,-155.19 323,-133.5 413.88,-86.8 537.18,-94.3 606.97,-103.92"/>
<polygon fill="#63b8ff" stroke="#63b8ff" points="606.22,-107.35 616.62,-105.32 607.22,-100.42 606.22,-107.35"/>
</a>
</g>
</g>
<!-- Node12 -->
<g id="Node000012" class="node">
<title>Node12</title>
<g id="a_Node000012"><a xlink:href="exif-utils_8c.html#a400a16b1754150f721e9fca67ad89a52" target="_top" xlink:title="Store an ExifRational value into memory in EXIF format.">
<polygon fill="white" stroke="#666666" points="431.5,-161 333.5,-161 333.5,-142 431.5,-142 431.5,-161"/>
<text text-anchor="middle" x="382.5" y="-149" font-family="Helvetica,sans-Serif" font-size="10.00">exif_set_rational</text>
</a>
</g>
</g>
<!-- Node2&#45;&gt;Node12 -->
<g id="edge15_Node000002_Node000012" class="edge">
<title>Node2&#45;&gt;Node12</title>
<g id="a_edge15_Node000002_Node000012"><a xlink:title=" ">
<path fill="none" stroke="#63b8ff" d="M248.37,-231.12C266.01,-215.62 294.98,-191.71 323,-175.5 329.11,-171.96 335.84,-168.69 342.5,-165.77"/>
<polygon fill="#63b8ff" stroke="#63b8ff" points="343.51,-169.14 351.4,-162.07 340.82,-162.68 343.51,-169.14"/>
</a>
</g>
</g>
<!-- Node13 -->
<g id="Node000013" class="node">
<title>Node13</title>
<g id="a_Node000013"><a xlink:href="exif-utils_8c.html#ad905d16e26b4052a1db34dbebdc37341" target="_top" xlink:title="Store an ExifShort value into memory in EXIF format.">
<polygon fill="white" stroke="#666666" points="425.5,-85 339.5,-85 339.5,-66 425.5,-66 425.5,-85"/>
<text text-anchor="middle" x="382.5" y="-73" font-family="Helvetica,sans-Serif" font-size="10.00">exif_set_short</text>
</a>
</g>
</g>
<!-- Node2&#45;&gt;Node13 -->
<g id="edge17_Node000002_Node000013" class="edge">
<title>Node2&#45;&gt;Node13</title>
<g id="a_edge17_Node000002_Node000013"><a xlink:title=" ">
<path fill="none" stroke="#63b8ff" d="M237.16,-231.43C248.88,-202.15 278.46,-137.14 323,-99.5 327.18,-95.97 331.95,-92.9 336.93,-90.25"/>
<polygon fill="#63b8ff" stroke="#63b8ff" points="338.36,-93.44 345.93,-86.03 335.39,-87.1 338.36,-93.44"/>
</a>
</g>
</g>
<!-- Node14 -->
<g id="Node000014" class="node">
<title>Node14</title>
<g id="a_Node000014"><a xlink:href="exif-utils_8c.html#a6504651147702fc6db9a5cd4aa997023" target="_top" xlink:title="Store an ExifSShort value into memory in EXIF format.">
<polygon fill="white" stroke="#666666" points="575.5,-75 484.5,-75 484.5,-56 575.5,-56 575.5,-75"/>
<text text-anchor="middle" x="530" y="-63" font-family="Helvetica,sans-Serif" font-size="10.00">exif_set_sshort</text>
</a>
</g>
</g>
<!-- Node2&#45;&gt;Node14 -->
<g id="edge22_Node000002_Node000014" class="edge">
<title>Node2&#45;&gt;Node14</title>
<g id="a_edge22_Node000002_Node000014"><a xlink:title=" ">
<path fill="none" stroke="#63b8ff" d="M233.49,-231.16C239.3,-193.56 259.99,-97 323,-57.5 374.19,-25.41 447.44,-39.12 491.4,-52.18"/>
<polygon fill="#63b8ff" stroke="#63b8ff" points="490.15,-55.45 500.74,-55.09 492.23,-48.77 490.15,-55.45"/>
</a>
</g>
</g>
<!-- Node15 -->
<g id="Node000015" class="node">
<title>Node15</title>
<g id="a_Node000015"><a xlink:href="exif-utils_8c.html#aca1790a72b1833dff1b0bf728052c3c5" target="_top" xlink:title="Store an ExifSRational value into memory in EXIF format.">
<polygon fill="white" stroke="#666666" points="582,-19 478,-19 478,0 582,0 582,-19"/>
<text text-anchor="middle" x="530" y="-7" font-family="Helvetica,sans-Serif" font-size="10.00">exif_set_srational</text>
</a>
</g>
</g>
<!-- Node2&#45;&gt;Node15 -->
<g id="edge20_Node000002_Node000015" class="edge">
<title>Node2&#45;&gt;Node15</title>
<g id="a_edge20_Node000002_Node000015"><a xlink:title=" ">
<path fill="none" stroke="#63b8ff" d="M232.97,-231.26C237.69,-191.3 256.36,-83.17 323,-33.5 363.77,-3.12 422.24,1.05 466.48,-1.32"/>
<polygon fill="#63b8ff" stroke="#63b8ff" points="465.96,-4.79 476.17,-1.97 466.43,2.19 465.96,-4.79"/>
</a>
</g>
</g>
<!-- Node4&#45;&gt;Node5 -->
<g id="edge4_Node000004_Node000005" class="edge">
<title>Node4&#45;&gt;Node5</title>
<g id="a_edge4_Node000004_Node000005"><a xlink:title=" ">
<path fill="none" stroke="#63b8ff" d="M565.16,-369.52C580.83,-364.93 599.62,-359.44 616.39,-354.54"/>
<polygon fill="#63b8ff" stroke="#63b8ff" points="617,-358.01 625.62,-351.84 615.04,-351.29 617,-358.01"/>
</a>
</g>
</g>
<!-- Node6&#45;&gt;Node4 -->
<g id="edge6_Node000006_Node000004" class="edge">
<title>Node6&#45;&gt;Node4</title>
<g id="a_edge6_Node000006_Node000004"><a xlink:title=" ">
<path fill="none" stroke="#63b8ff" d="M432.35,-379.5C446.69,-379.5 462.41,-379.5 476.93,-379.5"/>
<polygon fill="#63b8ff" stroke="#63b8ff" points="476.76,-383 486.76,-379.5 476.76,-376 476.76,-383"/>
</a>
</g>
</g>
<!-- Node7&#45;&gt;Node8 -->
<g id="edge8_Node000007_Node000008" class="edge">
<title>Node7&#45;&gt;Node8</title>
<g id="a_edge8_Node000007_Node000008"><a xlink:title=" ">
<path fill="none" stroke="#63b8ff" d="M425.98,-297.95C440.56,-296.05 457.11,-293.89 472.62,-291.86"/>
<polygon fill="#63b8ff" stroke="#63b8ff" points="472.72,-295.38 482.18,-290.61 471.81,-288.44 472.72,-295.38"/>
</a>
</g>
</g>
<!-- Node9&#45;&gt;Node5 -->
<g id="edge11_Node000009_Node000005" class="edge">
<title>Node9&#45;&gt;Node5</title>
<g id="a_edge11_Node000009_Node000005"><a xlink:title=" ">
<path fill="none" stroke="#63b8ff" d="M544.73,-237.38C555.18,-245.05 569.79,-256.08 582,-266.5 604.1,-285.34 628.11,-308.57 643.79,-324.14"/>
<polygon fill="#63b8ff" stroke="#63b8ff" points="640.96,-326.26 650.51,-330.85 645.91,-321.31 640.96,-326.26"/>
</a>
</g>
</g>
<!-- Node10&#45;&gt;Node11 -->
<g id="edge14_Node000010_Node000011" class="edge">
<title>Node10&#45;&gt;Node11</title>
<g id="a_edge14_Node000010_Node000011"><a xlink:title=" ">
<path fill="none" stroke="#63b8ff" d="M565.16,-141.52C580.83,-136.93 599.62,-131.44 616.39,-126.54"/>
<polygon fill="#63b8ff" stroke="#63b8ff" points="617,-130.01 625.62,-123.84 615.04,-123.29 617,-130.01"/>
</a>
</g>
</g>
<!-- Node12&#45;&gt;Node10 -->
<g id="edge16_Node000012_Node000010" class="edge">
<title>Node12&#45;&gt;Node10</title>
<g id="a_edge16_Node000012_Node000010"><a xlink:title=" ">
<path fill="none" stroke="#63b8ff" d="M431.95,-151.5C446.43,-151.5 462.36,-151.5 477.06,-151.5"/>
<polygon fill="#63b8ff" stroke="#63b8ff" points="477.01,-155 487.01,-151.5 477.01,-148 477.01,-155"/>
</a>
</g>
</g>
<!-- Node13&#45;&gt;Node14 -->
<g id="edge18_Node000013_Node000014" class="edge">
<title>Node13&#45;&gt;Node14</title>
<g id="a_edge18_Node000013_Node000014"><a xlink:title=" ">
<path fill="none" stroke="#63b8ff" d="M425.98,-72.58C440.69,-71.57 457.42,-70.42 473.05,-69.35"/>
<polygon fill="#63b8ff" stroke="#63b8ff" points="472.94,-72.86 482.68,-68.68 472.46,-65.88 472.94,-72.86"/>
</a>
</g>
</g>
<!-- Node15&#45;&gt;Node11 -->
<g id="edge21_Node000015_Node000011" class="edge">
<title>Node15&#45;&gt;Node11</title>
<g id="a_edge21_Node000015_Node000011"><a xlink:title=" ">
<path fill="none" stroke="#63b8ff" d="M544.58,-19.3C554.94,-26.86 569.52,-37.65 582,-47.5 602.52,-63.7 625.39,-82.94 641.22,-96.45"/>
<polygon fill="#63b8ff" stroke="#63b8ff" points="638.63,-98.84 648.5,-102.69 643.19,-93.53 638.63,-98.84"/>
</a>
</g>
</g>
</g>
</svg>
