<?xml version="1.0" encoding="UTF-8" standalone="no"?>
<!DOCTYPE svg PUBLIC "-//W3C//DTD SVG 1.1//EN"
 "http://www.w3.org/Graphics/SVG/1.1/DTD/svg11.dtd">
<!-- Generated by graphviz version 2.44.1 (0)
 -->
<!-- Title: exif_mnote_data_apple_load Pages: 1 -->
<svg width="486pt" height="218pt"
 viewBox="0.00 0.00 486.00 218.00" xmlns="http://www.w3.org/2000/svg" xmlns:xlink="http://www.w3.org/1999/xlink">
<g id="graph0" class="graph" transform="scale(1 1) rotate(0) translate(4 214)">
<title>exif_mnote_data_apple_load</title>
<polygon fill="white" stroke="transparent" points="-4,4 -4,-214 482,-214 482,4 -4,4"/>
<!-- Node1 -->
<g id="node1" class="node">
<title>Node1</title>
<g id="a_node1"><a xlink:title=" ">
<polygon fill="#bfbfbf" stroke="black" points="0,-95.5 0,-114.5 158,-114.5 158,-95.5 0,-95.5"/>
<text text-anchor="middle" x="79" y="-102.5" font-family="Helvetica,sans-Serif" font-size="10.00">exif_mnote_data_apple_load</text>
</a>
</g>
</g>
<!-- Node2 -->
<g id="node2" class="node">
<title>Node2</title>
<g id="a_node2"><a xlink:href="exif-format_8c.html#a924038efe0cd8ebade8f44619dd794f3" target="_top" xlink:title="Return the raw size of the given EXIF data type.">
<polygon fill="white" stroke="black" points="212.5,-190.5 212.5,-209.5 331.5,-209.5 331.5,-190.5 212.5,-190.5"/>
<text text-anchor="middle" x="272" y="-197.5" font-family="Helvetica,sans-Serif" font-size="10.00">exif_format_get_size</text>
</a>
</g>
</g>
<!-- Node1&#45;&gt;Node2 -->
<g id="edge1" class="edge">
<title>Node1&#45;&gt;Node2</title>
<path fill="none" stroke="midnightblue" d="M91.51,-114.68C111.23,-130.78 153.29,-163.07 194,-181 199.49,-183.42 205.34,-185.56 211.27,-187.46"/>
<polygon fill="midnightblue" stroke="midnightblue" points="210.69,-190.94 221.28,-190.42 212.68,-184.23 210.69,-190.94"/>
</g>
<!-- Node3 -->
<g id="node3" class="node">
<title>Node3</title>
<g id="a_node3"><a xlink:href="exif-utils_8c.html#a4ad94614630897766dd0a5c9bc2a59bf" target="_top" xlink:title="Retrieve an ExifLong value from memory.">
<polygon fill="white" stroke="black" points="230.5,-152.5 230.5,-171.5 313.5,-171.5 313.5,-152.5 230.5,-152.5"/>
<text text-anchor="middle" x="272" y="-159.5" font-family="Helvetica,sans-Serif" font-size="10.00">exif_get_long</text>
</a>
</g>
</g>
<!-- Node1&#45;&gt;Node3 -->
<g id="edge2" class="edge">
<title>Node1&#45;&gt;Node3</title>
<path fill="none" stroke="midnightblue" d="M106.53,-114.51C129.52,-122.59 163.74,-134.24 194,-143 202.55,-145.48 211.7,-147.91 220.59,-150.17"/>
<polygon fill="midnightblue" stroke="midnightblue" points="219.93,-153.62 230.48,-152.64 221.62,-146.82 219.93,-153.62"/>
</g>
<!-- Node5 -->
<g id="node5" class="node">
<title>Node5</title>
<g id="a_node5"><a xlink:href="exif-utils_8c.html#a4b4acf537a8c6b9405e7b53be868e4d7" target="_top" xlink:title="Retrieve an ExifShort value from memory.">
<polygon fill="white" stroke="black" points="229,-114.5 229,-133.5 315,-133.5 315,-114.5 229,-114.5"/>
<text text-anchor="middle" x="272" y="-121.5" font-family="Helvetica,sans-Serif" font-size="10.00">exif_get_short</text>
</a>
</g>
</g>
<!-- Node1&#45;&gt;Node5 -->
<g id="edge4" class="edge">
<title>Node1&#45;&gt;Node5</title>
<path fill="none" stroke="midnightblue" d="M158.24,-112.78C178.67,-114.81 200.18,-116.96 218.88,-118.82"/>
<polygon fill="midnightblue" stroke="midnightblue" points="218.66,-122.31 228.96,-119.82 219.35,-115.34 218.66,-122.31"/>
</g>
<!-- Node7 -->
<g id="node7" class="node">
<title>Node7</title>
<g id="a_node7"><a xlink:href="exif-log_8c.html#a025d4a5d96544913ea6f6ebbec69cb68" target="_top" xlink:title=" ">
<polygon fill="white" stroke="black" points="244,-76.5 244,-95.5 300,-95.5 300,-76.5 244,-76.5"/>
<text text-anchor="middle" x="272" y="-83.5" font-family="Helvetica,sans-Serif" font-size="10.00">exif_log</text>
</a>
</g>
</g>
<!-- Node1&#45;&gt;Node7 -->
<g id="edge6" class="edge">
<title>Node1&#45;&gt;Node7</title>
<path fill="none" stroke="midnightblue" d="M158.24,-97.22C184.27,-94.63 212.07,-91.86 233.55,-89.73"/>
<polygon fill="midnightblue" stroke="midnightblue" points="233.95,-93.2 243.55,-88.73 233.26,-86.24 233.95,-93.2"/>
</g>
<!-- Node9 -->
<g id="node9" class="node">
<title>Node9</title>
<g id="a_node9"><a xlink:href="exif-mem_8c.html#ae8c09cfbcb95e435c4c4b7ec3bbd79e4" target="_top" xlink:title=" ">
<polygon fill="white" stroke="black" points="224.5,-38.5 224.5,-57.5 319.5,-57.5 319.5,-38.5 224.5,-38.5"/>
<text text-anchor="middle" x="272" y="-45.5" font-family="Helvetica,sans-Serif" font-size="10.00">exif_mem_alloc</text>
</a>
</g>
</g>
<!-- Node1&#45;&gt;Node9 -->
<g id="edge8" class="edge">
<title>Node1&#45;&gt;Node9</title>
<path fill="none" stroke="midnightblue" d="M106.53,-95.49C129.52,-87.41 163.74,-75.76 194,-67 202.27,-64.61 211.09,-62.25 219.71,-60.05"/>
<polygon fill="midnightblue" stroke="midnightblue" points="220.83,-63.38 229.68,-57.55 219.13,-56.59 220.83,-63.38"/>
</g>
<!-- Node10 -->
<g id="node10" class="node">
<title>Node10</title>
<g id="a_node10"><a xlink:href="exif-mnote-data-apple_8c.html#a777bb9ad0cb336b9994b3b820d6567a9" target="_top" xlink:title=" ">
<polygon fill="white" stroke="black" points="194,-0.5 194,-19.5 350,-19.5 350,-0.5 194,-0.5"/>
<text text-anchor="middle" x="272" y="-7.5" font-family="Helvetica,sans-Serif" font-size="10.00">exif_mnote_data_apple_free</text>
</a>
</g>
</g>
<!-- Node1&#45;&gt;Node10 -->
<g id="edge9" class="edge">
<title>Node1&#45;&gt;Node10</title>
<path fill="none" stroke="midnightblue" d="M91.51,-95.32C111.23,-79.22 153.29,-46.93 194,-29 199.49,-26.58 205.34,-24.44 211.27,-22.54"/>
<polygon fill="midnightblue" stroke="midnightblue" points="212.68,-25.77 221.28,-19.58 210.69,-19.06 212.68,-25.77"/>
</g>
<!-- Node4 -->
<g id="node4" class="node">
<title>Node4</title>
<g id="a_node4"><a xlink:href="exif-utils_8c.html#a56b96f076a13da6ed926e1ef29cb2dc3" target="_top" xlink:title="Retrieve an ExifSLong value from memory.">
<polygon fill="white" stroke="black" points="388,-152.5 388,-171.5 476,-171.5 476,-152.5 388,-152.5"/>
<text text-anchor="middle" x="432" y="-159.5" font-family="Helvetica,sans-Serif" font-size="10.00">exif_get_slong</text>
</a>
</g>
</g>
<!-- Node3&#45;&gt;Node4 -->
<g id="edge3" class="edge">
<title>Node3&#45;&gt;Node4</title>
<path fill="none" stroke="midnightblue" d="M313.69,-162C333.25,-162 356.96,-162 377.92,-162"/>
<polygon fill="midnightblue" stroke="midnightblue" points="377.96,-165.5 387.96,-162 377.96,-158.5 377.96,-165.5"/>
</g>
<!-- Node6 -->
<g id="node6" class="node">
<title>Node6</title>
<g id="a_node6"><a xlink:href="exif-utils_8c.html#a6baf094a71392f9cea23ad633ec13c8b" target="_top" xlink:title="Retrieve an ExifSShort value from memory.">
<polygon fill="white" stroke="black" points="386,-114.5 386,-133.5 478,-133.5 478,-114.5 386,-114.5"/>
<text text-anchor="middle" x="432" y="-121.5" font-family="Helvetica,sans-Serif" font-size="10.00">exif_get_sshort</text>
</a>
</g>
</g>
<!-- Node5&#45;&gt;Node6 -->
<g id="edge5" class="edge">
<title>Node5&#45;&gt;Node6</title>
<path fill="none" stroke="midnightblue" d="M315.34,-124C333.87,-124 355.85,-124 375.65,-124"/>
<polygon fill="midnightblue" stroke="midnightblue" points="375.77,-127.5 385.77,-124 375.77,-120.5 375.77,-127.5"/>
</g>
<!-- Node8 -->
<g id="node8" class="node">
<title>Node8</title>
<g id="a_node8"><a xlink:href="exif-log_8c.html#a99101b5ad01b2d82ce9d43c9e8534627" target="_top" xlink:title=" ">
<polygon fill="white" stroke="black" points="401,-76.5 401,-95.5 463,-95.5 463,-76.5 401,-76.5"/>
<text text-anchor="middle" x="432" y="-83.5" font-family="Helvetica,sans-Serif" font-size="10.00">exif_logv</text>
</a>
</g>
</g>
<!-- Node7&#45;&gt;Node8 -->
<g id="edge7" class="edge">
<title>Node7&#45;&gt;Node8</title>
<path fill="none" stroke="midnightblue" d="M300.16,-86C325.15,-86 362.53,-86 390.94,-86"/>
<polygon fill="midnightblue" stroke="midnightblue" points="390.97,-89.5 400.97,-86 390.97,-82.5 390.97,-89.5"/>
</g>
<!-- Node11 -->
<g id="node11" class="node">
<title>Node11</title>
<g id="a_node11"><a xlink:href="exif-mem_8c.html#a43190b81b4b4bdb4ffb89bfb612051b1" target="_top" xlink:title=" ">
<polygon fill="white" stroke="black" points="386.5,-0.5 386.5,-19.5 477.5,-19.5 477.5,-0.5 386.5,-0.5"/>
<text text-anchor="middle" x="432" y="-7.5" font-family="Helvetica,sans-Serif" font-size="10.00">exif_mem_free</text>
</a>
</g>
</g>
<!-- Node10&#45;&gt;Node11 -->
<g id="edge10" class="edge">
<title>Node10&#45;&gt;Node11</title>
<path fill="none" stroke="midnightblue" d="M350.15,-10C358.95,-10 367.78,-10 376.2,-10"/>
<polygon fill="midnightblue" stroke="midnightblue" points="376.25,-13.5 386.25,-10 376.25,-6.5 376.25,-13.5"/>
</g>
</g>
</svg>
