<?xml version="1.0" encoding="UTF-8" standalone="no"?>
<!DOCTYPE svg PUBLIC "-//W3C//DTD SVG 1.1//EN"
 "http://www.w3.org/Graphics/SVG/1.1/DTD/svg11.dtd">
<!-- Generated by graphviz version 2.44.1 (0)
 -->
<!-- Title: libexif/exif&#45;mnote&#45;data.c Pages: 1 -->
<svg width="463pt" height="397pt"
 viewBox="0.00 0.00 463.00 397.00" xmlns="http://www.w3.org/2000/svg" xmlns:xlink="http://www.w3.org/1999/xlink">
<g id="graph0" class="graph" transform="scale(1 1) rotate(0) translate(4 393)">
<title>libexif/exif&#45;mnote&#45;data.c</title>
<polygon fill="white" stroke="transparent" points="-4,4 -4,-393 459,-393 459,4 -4,4"/>
<!-- Node1 -->
<g id="node1" class="node">
<title>Node1</title>
<g id="a_node1"><a xlink:title=" ">
<polygon fill="#bfbfbf" stroke="black" points="210,-358.5 210,-388.5 313,-388.5 313,-358.5 210,-358.5"/>
<text text-anchor="start" x="218" y="-376.5" font-family="Helvetica,sans-Serif" font-size="10.00">libexif/exif&#45;mnote</text>
<text text-anchor="middle" x="261.5" y="-365.5" font-family="Helvetica,sans-Serif" font-size="10.00">&#45;data.c</text>
</a>
</g>
</g>
<!-- Node2 -->
<g id="node2" class="node">
<title>Node2</title>
<g id="a_node2"><a xlink:title=" ">
<polygon fill="white" stroke="#bfbfbf" points="97.5,-297 97.5,-316 153.5,-316 153.5,-297 97.5,-297"/>
<text text-anchor="middle" x="125.5" y="-304" font-family="Helvetica,sans-Serif" font-size="10.00">config.h</text>
</a>
</g>
</g>
<!-- Node1&#45;&gt;Node2 -->
<g id="edge1" class="edge">
<title>Node1&#45;&gt;Node2</title>
<path fill="none" stroke="midnightblue" d="M231.99,-358.4C208.34,-347.09 175.42,-331.36 152.47,-320.39"/>
<polygon fill="midnightblue" stroke="midnightblue" points="153.83,-317.16 143.3,-316.01 150.81,-323.48 153.83,-317.16"/>
</g>
<!-- Node3 -->
<g id="node3" class="node">
<title>Node3</title>
<g id="a_node3"><a xlink:href="exif-mnote-data_8h.html" target="_top" xlink:title="Handling EXIF MakerNote tags.">
<polygon fill="white" stroke="black" points="130,-224.5 130,-254.5 233,-254.5 233,-224.5 130,-224.5"/>
<text text-anchor="start" x="138" y="-242.5" font-family="Helvetica,sans-Serif" font-size="10.00">libexif/exif&#45;mnote</text>
<text text-anchor="middle" x="181.5" y="-231.5" font-family="Helvetica,sans-Serif" font-size="10.00">&#45;data.h</text>
</a>
</g>
</g>
<!-- Node1&#45;&gt;Node3 -->
<g id="edge2" class="edge">
<title>Node1&#45;&gt;Node3</title>
<path fill="none" stroke="midnightblue" d="M237.95,-358.47C225.01,-349.59 209.76,-336.96 200.5,-322 189.78,-304.67 185.1,-281.86 183.06,-264.78"/>
<polygon fill="midnightblue" stroke="midnightblue" points="186.52,-264.12 182.07,-254.5 179.55,-264.79 186.52,-264.12"/>
</g>
<!-- Node11 -->
<g id="node11" class="node">
<title>Node11</title>
<g id="a_node11"><a xlink:href="exif-mnote-data-priv_8h.html" target="_top" xlink:title=" ">
<polygon fill="white" stroke="black" points="210,-291.5 210,-321.5 313,-321.5 313,-291.5 210,-291.5"/>
<text text-anchor="start" x="218" y="-309.5" font-family="Helvetica,sans-Serif" font-size="10.00">libexif/exif&#45;mnote</text>
<text text-anchor="middle" x="261.5" y="-298.5" font-family="Helvetica,sans-Serif" font-size="10.00">&#45;data&#45;priv.h</text>
</a>
</g>
</g>
<!-- Node1&#45;&gt;Node11 -->
<g id="edge10" class="edge">
<title>Node1&#45;&gt;Node11</title>
<path fill="none" stroke="midnightblue" d="M261.5,-358.4C261.5,-350.64 261.5,-340.81 261.5,-331.86"/>
<polygon fill="midnightblue" stroke="midnightblue" points="265,-331.58 261.5,-321.58 258,-331.58 265,-331.58"/>
</g>
<!-- Node12 -->
<g id="node12" class="node">
<title>Node12</title>
<g id="a_node12"><a xlink:title=" ">
<polygon fill="white" stroke="#bfbfbf" points="331,-297 331,-316 384,-316 384,-297 331,-297"/>
<text text-anchor="middle" x="357.5" y="-304" font-family="Helvetica,sans-Serif" font-size="10.00">stdlib.h</text>
</a>
</g>
</g>
<!-- Node1&#45;&gt;Node12 -->
<g id="edge14" class="edge">
<title>Node1&#45;&gt;Node12</title>
<path fill="none" stroke="midnightblue" d="M282.33,-358.4C298.28,-347.6 320.2,-332.76 336.25,-321.89"/>
<polygon fill="midnightblue" stroke="midnightblue" points="338.62,-324.51 344.94,-316.01 334.69,-318.72 338.62,-324.51"/>
</g>
<!-- Node13 -->
<g id="node13" class="node">
<title>Node13</title>
<g id="a_node13"><a xlink:title=" ">
<polygon fill="white" stroke="#bfbfbf" points="402,-297 402,-316 455,-316 455,-297 402,-297"/>
<text text-anchor="middle" x="428.5" y="-304" font-family="Helvetica,sans-Serif" font-size="10.00">string.h</text>
</a>
</g>
</g>
<!-- Node1&#45;&gt;Node13 -->
<g id="edge15" class="edge">
<title>Node1&#45;&gt;Node13</title>
<path fill="none" stroke="midnightblue" d="M299.16,-358.41C325.62,-348.42 361.82,-334.62 393.5,-322 395.14,-321.35 396.82,-320.67 398.51,-319.99"/>
<polygon fill="midnightblue" stroke="midnightblue" points="400.25,-323.06 408.18,-316.03 397.6,-316.58 400.25,-323.06"/>
</g>
<!-- Node4 -->
<g id="node4" class="node">
<title>Node4</title>
<g id="a_node4"><a xlink:href="exif-log_8h.html" target="_top" xlink:title="Log message infrastructure.">
<polygon fill="white" stroke="black" points="134,-168.5 134,-187.5 229,-187.5 229,-168.5 134,-168.5"/>
<text text-anchor="middle" x="181.5" y="-175.5" font-family="Helvetica,sans-Serif" font-size="10.00">libexif/exif&#45;log.h</text>
</a>
</g>
</g>
<!-- Node3&#45;&gt;Node4 -->
<g id="edge3" class="edge">
<title>Node3&#45;&gt;Node4</title>
<path fill="none" stroke="midnightblue" d="M181.5,-224.4C181.5,-216.47 181.5,-206.46 181.5,-197.86"/>
<polygon fill="midnightblue" stroke="midnightblue" points="185,-197.66 181.5,-187.66 178,-197.66 185,-197.66"/>
</g>
<!-- Node5 -->
<g id="node5" class="node">
<title>Node5</title>
<g id="a_node5"><a xlink:href="exif-mem_8h.html" target="_top" xlink:title="Define the ExifMem data type and the associated functions.">
<polygon fill="white" stroke="black" points="128.5,-112.5 128.5,-131.5 234.5,-131.5 234.5,-112.5 128.5,-112.5"/>
<text text-anchor="middle" x="181.5" y="-119.5" font-family="Helvetica,sans-Serif" font-size="10.00">libexif/exif&#45;mem.h</text>
</a>
</g>
</g>
<!-- Node4&#45;&gt;Node5 -->
<g id="edge4" class="edge">
<title>Node4&#45;&gt;Node5</title>
<path fill="none" stroke="midnightblue" d="M181.5,-168.08C181.5,-161.01 181.5,-150.86 181.5,-141.99"/>
<polygon fill="midnightblue" stroke="midnightblue" points="185,-141.75 181.5,-131.75 178,-141.75 185,-141.75"/>
</g>
<!-- Node10 -->
<g id="node10" class="node">
<title>Node10</title>
<g id="a_node10"><a xlink:title=" ">
<polygon fill="white" stroke="#bfbfbf" points="54.5,-112.5 54.5,-131.5 110.5,-131.5 110.5,-112.5 54.5,-112.5"/>
<text text-anchor="middle" x="82.5" y="-119.5" font-family="Helvetica,sans-Serif" font-size="10.00">stdarg.h</text>
</a>
</g>
</g>
<!-- Node4&#45;&gt;Node10 -->
<g id="edge9" class="edge">
<title>Node4&#45;&gt;Node10</title>
<path fill="none" stroke="midnightblue" d="M165.59,-168.32C149.86,-159.74 125.56,-146.49 107.29,-136.52"/>
<polygon fill="midnightblue" stroke="midnightblue" points="108.82,-133.37 98.37,-131.65 105.47,-139.52 108.82,-133.37"/>
</g>
<!-- Node6 -->
<g id="node6" class="node">
<title>Node6</title>
<g id="a_node6"><a xlink:href="exif-utils_8h.html" target="_top" xlink:title="EXIF data manipulation functions and types.">
<polygon fill="white" stroke="black" points="130,-56.5 130,-75.5 231,-75.5 231,-56.5 130,-56.5"/>
<text text-anchor="middle" x="180.5" y="-63.5" font-family="Helvetica,sans-Serif" font-size="10.00">libexif/exif&#45;utils.h</text>
</a>
</g>
</g>
<!-- Node5&#45;&gt;Node6 -->
<g id="edge5" class="edge">
<title>Node5&#45;&gt;Node6</title>
<path fill="none" stroke="midnightblue" d="M181.33,-112.08C181.2,-105.01 181.02,-94.86 180.85,-85.99"/>
<polygon fill="midnightblue" stroke="midnightblue" points="184.35,-85.68 180.66,-75.75 177.35,-85.81 184.35,-85.68"/>
</g>
<!-- Node7 -->
<g id="node7" class="node">
<title>Node7</title>
<g id="a_node7"><a xlink:href="exif-byte-order_8h.html" target="_top" xlink:title="Defines the ExifByteOrder enum and the associated functions.">
<polygon fill="white" stroke="black" points="242,-0.5 242,-19.5 373,-19.5 373,-0.5 242,-0.5"/>
<text text-anchor="middle" x="307.5" y="-7.5" font-family="Helvetica,sans-Serif" font-size="10.00">libexif/exif&#45;byte&#45;order.h</text>
</a>
</g>
</g>
<!-- Node6&#45;&gt;Node7 -->
<g id="edge6" class="edge">
<title>Node6&#45;&gt;Node7</title>
<path fill="none" stroke="midnightblue" d="M200.62,-56.44C221.52,-47.56 254.43,-33.56 278.22,-23.45"/>
<polygon fill="midnightblue" stroke="midnightblue" points="279.64,-26.65 287.47,-19.52 276.9,-20.21 279.64,-26.65"/>
</g>
<!-- Node8 -->
<g id="node8" class="node">
<title>Node8</title>
<g id="a_node8"><a xlink:href="exif-format_8h.html" target="_top" xlink:title="Handling native EXIF data types.">
<polygon fill="white" stroke="black" points="0,-0.5 0,-19.5 113,-19.5 113,-0.5 0,-0.5"/>
<text text-anchor="middle" x="56.5" y="-7.5" font-family="Helvetica,sans-Serif" font-size="10.00">libexif/exif&#45;format.h</text>
</a>
</g>
</g>
<!-- Node6&#45;&gt;Node8 -->
<g id="edge7" class="edge">
<title>Node6&#45;&gt;Node8</title>
<path fill="none" stroke="midnightblue" d="M160.85,-56.44C140.54,-47.6 108.6,-33.69 85.4,-23.59"/>
<polygon fill="midnightblue" stroke="midnightblue" points="86.62,-20.3 76.06,-19.52 83.83,-26.72 86.62,-20.3"/>
</g>
<!-- Node9 -->
<g id="node9" class="node">
<title>Node9</title>
<g id="a_node9"><a xlink:title=" ">
<polygon fill="white" stroke="#bfbfbf" points="131.5,-0.5 131.5,-19.5 223.5,-19.5 223.5,-0.5 131.5,-0.5"/>
<text text-anchor="middle" x="177.5" y="-7.5" font-family="Helvetica,sans-Serif" font-size="10.00">libexif/_stdint.h</text>
</a>
</g>
</g>
<!-- Node6&#45;&gt;Node9 -->
<g id="edge8" class="edge">
<title>Node6&#45;&gt;Node9</title>
<path fill="none" stroke="midnightblue" d="M180,-56.08C179.61,-49.01 179.05,-38.86 178.55,-29.99"/>
<polygon fill="midnightblue" stroke="midnightblue" points="182.04,-29.54 177.99,-19.75 175.05,-29.93 182.04,-29.54"/>
</g>
<!-- Node11&#45;&gt;Node3 -->
<g id="edge11" class="edge">
<title>Node11&#45;&gt;Node3</title>
<path fill="none" stroke="midnightblue" d="M244.14,-291.4C233.24,-282.54 218.99,-270.96 206.84,-261.09"/>
<polygon fill="midnightblue" stroke="midnightblue" points="208.79,-258.17 198.82,-254.58 204.38,-263.6 208.79,-258.17"/>
</g>
<!-- Node11&#45;&gt;Node4 -->
<g id="edge13" class="edge">
<title>Node11&#45;&gt;Node4</title>
<path fill="none" stroke="midnightblue" d="M260.89,-291.39C259.54,-274.17 255.24,-244.78 241.5,-224 232.98,-211.1 219.45,-200.49 207.4,-192.81"/>
<polygon fill="midnightblue" stroke="midnightblue" points="208.95,-189.67 198.58,-187.53 205.36,-195.67 208.95,-189.67"/>
</g>
<!-- Node11&#45;&gt;Node7 -->
<g id="edge12" class="edge">
<title>Node11&#45;&gt;Node7</title>
<path fill="none" stroke="midnightblue" d="M269.98,-291.26C282.77,-268.42 305.5,-221.78 305.5,-179 305.5,-179 305.5,-179 305.5,-121 305.5,-88.94 306.36,-51.64 306.95,-29.75"/>
<polygon fill="midnightblue" stroke="midnightblue" points="310.46,-29.65 307.24,-19.56 303.46,-29.45 310.46,-29.65"/>
</g>
</g>
</svg>
