<?xml version="1.0" encoding="UTF-8" standalone="no"?>
<!DOCTYPE svg PUBLIC "-//W3C//DTD SVG 1.1//EN"
 "http://www.w3.org/Graphics/SVG/1.1/DTD/svg11.dtd">
<!-- Generated by graphviz version 7.0.1 (0)
 -->
<!-- Title: exif_loader_write_file Pages: 1 -->
<svg width="671pt" height="101pt"
 viewBox="0.00 0.00 671.00 101.00" xmlns="http://www.w3.org/2000/svg" xmlns:xlink="http://www.w3.org/1999/xlink">
<g id="graph0" class="graph" transform="scale(1 1) rotate(0) translate(4 97)">
<title>exif_loader_write_file</title>
<!-- Node1 -->
<g id="Node000001" class="node">
<title>Node1</title>
<g id="a_Node000001"><a xlink:title="Load a file into the given ExifLoader from the filesystem.">
<polygon fill="#999999" stroke="#666666" points="122,-38 0,-38 0,-19 122,-19 122,-38"/>
<text text-anchor="middle" x="61" y="-26" font-family="Helvetica,sans-Serif" font-size="10.00">exif_loader_write_file</text>
</a>
</g>
</g>
<!-- Node2 -->
<g id="Node000002" class="node">
<title>Node2</title>
<g id="a_Node000002"><a xlink:href="exif-loader_8c.html#ac25a1f0626855195944f53788284e32f" target="_top" xlink:title="Load a buffer into the ExifLoader from a memory buffer.">
<polygon fill="white" stroke="#666666" points="259,-57 158,-57 158,-38 259,-38 259,-57"/>
<text text-anchor="middle" x="208.5" y="-45" font-family="Helvetica,sans-Serif" font-size="10.00">exif_loader_write</text>
</a>
</g>
</g>
<!-- Node1&#45;&gt;Node2 -->
<g id="edge1_Node000001_Node000002" class="edge">
<title>Node1&#45;&gt;Node2</title>
<g id="a_edge1_Node000001_Node000002"><a xlink:title=" ">
<path fill="none" stroke="#63b8ff" d="M122.44,-36.39C130.31,-37.42 138.38,-38.47 146.26,-39.5"/>
<polygon fill="#63b8ff" stroke="#63b8ff" points="145.76,-42.97 156.13,-40.79 146.67,-36.03 145.76,-42.97"/>
</a>
</g>
</g>
<!-- Node8 -->
<g id="Node000008" class="node">
<title>Node8</title>
<g id="a_Node000008"><a xlink:href="exif-log_8c.html#a025d4a5d96544913ea6f6ebbec69cb68" target="_top" xlink:title=" ">
<polygon fill="white" stroke="#666666" points="373.5,-19 317.5,-19 317.5,0 373.5,0 373.5,-19"/>
<text text-anchor="middle" x="345.5" y="-7" font-family="Helvetica,sans-Serif" font-size="10.00">exif_log</text>
</a>
</g>
</g>
<!-- Node1&#45;&gt;Node8 -->
<g id="edge9_Node000001_Node000008" class="edge">
<title>Node1&#45;&gt;Node8</title>
<g id="a_edge9_Node000001_Node000008"><a xlink:title=" ">
<path fill="none" stroke="#63b8ff" d="M122.26,-24.45C177.83,-20.71 258.66,-15.27 305.98,-12.09"/>
<polygon fill="#63b8ff" stroke="#63b8ff" points="306.01,-15.6 315.75,-11.43 305.54,-8.61 306.01,-15.6"/>
</a>
</g>
</g>
<!-- Node3 -->
<g id="Node000003" class="node">
<title>Node3</title>
<g id="a_Node000003"><a xlink:href="exif-loader_8c.html#ac83d06f410cd71f8ea82f3030707ec19" target="_top" xlink:title=" ">
<polygon fill="white" stroke="#666666" points="395.5,-93 295.5,-93 295.5,-74 395.5,-74 395.5,-93"/>
<text text-anchor="middle" x="345.5" y="-81" font-family="Helvetica,sans-Serif" font-size="10.00">exif_loader_copy</text>
</a>
</g>
</g>
<!-- Node2&#45;&gt;Node3 -->
<g id="edge2_Node000002_Node000003" class="edge">
<title>Node2&#45;&gt;Node3</title>
<g id="a_edge2_Node000002_Node000003"><a xlink:title=" ">
<path fill="none" stroke="#63b8ff" d="M246.75,-57.43C262.09,-61.52 280.07,-66.32 296.39,-70.67"/>
<polygon fill="#63b8ff" stroke="#63b8ff" points="295.35,-74.02 305.91,-73.21 297.15,-67.25 295.35,-74.02"/>
</a>
</g>
</g>
<!-- Node6 -->
<g id="Node000006" class="node">
<title>Node6</title>
<g id="a_Node000006"><a xlink:href="exif-loader_8c.html#a080d8ebb5006c1306a3a798ff60253a5" target="_top" xlink:title="Free any data previously loaded and reset the ExifLoader to its newly&#45;initialized state.">
<polygon fill="white" stroke="#666666" points="396,-56 295,-56 295,-37 396,-37 396,-56"/>
<text text-anchor="middle" x="345.5" y="-44" font-family="Helvetica,sans-Serif" font-size="10.00">exif_loader_reset</text>
</a>
</g>
</g>
<!-- Node2&#45;&gt;Node6 -->
<g id="edge5_Node000002_Node000006" class="edge">
<title>Node2&#45;&gt;Node6</title>
<g id="a_edge5_Node000002_Node000006"><a xlink:title=" ">
<path fill="none" stroke="#63b8ff" d="M259.39,-47.13C267.25,-47.07 275.45,-47.01 283.53,-46.95"/>
<polygon fill="#63b8ff" stroke="#63b8ff" points="283.33,-50.45 293.31,-46.88 283.28,-43.45 283.33,-50.45"/>
</a>
</g>
</g>
<!-- Node2&#45;&gt;Node8 -->
<g id="edge7_Node000002_Node000008" class="edge">
<title>Node2&#45;&gt;Node8</title>
<g id="a_edge7_Node000002_Node000008"><a xlink:title=" ">
<path fill="none" stroke="#63b8ff" d="M244.97,-37.52C263.91,-32.19 287.23,-25.62 306.53,-20.19"/>
<polygon fill="#63b8ff" stroke="#63b8ff" points="307.23,-23.63 315.91,-17.55 305.34,-16.89 307.23,-23.63"/>
</a>
</g>
</g>
<!-- Node4 -->
<g id="Node000004" class="node">
<title>Node4</title>
<g id="a_Node000004"><a xlink:href="exif-loader_8c.html#a50370bbe54fefeb64dd9ac7be9194707" target="_top" xlink:title=" ">
<polygon fill="white" stroke="#666666" points="532,-93 432,-93 432,-74 532,-74 532,-93"/>
<text text-anchor="middle" x="482" y="-81" font-family="Helvetica,sans-Serif" font-size="10.00">exif_loader_alloc</text>
</a>
</g>
</g>
<!-- Node3&#45;&gt;Node4 -->
<g id="edge3_Node000003_Node000004" class="edge">
<title>Node3&#45;&gt;Node4</title>
<g id="a_edge3_Node000003_Node000004"><a xlink:title=" ">
<path fill="none" stroke="#63b8ff" d="M395.82,-83.5C403.77,-83.5 412.08,-83.5 420.26,-83.5"/>
<polygon fill="#63b8ff" stroke="#63b8ff" points="420.17,-87 430.17,-83.5 420.17,-80 420.17,-87"/>
</a>
</g>
</g>
<!-- Node5 -->
<g id="Node000005" class="node">
<title>Node5</title>
<g id="a_Node000005"><a xlink:href="exif-mem_8c.html#a68be7c7afc8cff75adc3b1a28b5ae9a2" target="_top" xlink:title=" ">
<polygon fill="white" stroke="#666666" points="663,-93 568,-93 568,-74 663,-74 663,-93"/>
<text text-anchor="middle" x="615.5" y="-81" font-family="Helvetica,sans-Serif" font-size="10.00">exif_mem_alloc</text>
</a>
</g>
</g>
<!-- Node4&#45;&gt;Node5 -->
<g id="edge4_Node000004_Node000005" class="edge">
<title>Node4&#45;&gt;Node5</title>
<g id="a_edge4_Node000004_Node000005"><a xlink:title=" ">
<path fill="none" stroke="#63b8ff" d="M532.34,-83.5C540.27,-83.5 548.53,-83.5 556.63,-83.5"/>
<polygon fill="#63b8ff" stroke="#63b8ff" points="556.42,-87 566.42,-83.5 556.42,-80 556.42,-87"/>
</a>
</g>
</g>
<!-- Node7 -->
<g id="Node000007" class="node">
<title>Node7</title>
<g id="a_Node000007"><a xlink:href="exif-mem_8c.html#a43190b81b4b4bdb4ffb89bfb612051b1" target="_top" xlink:title=" ">
<polygon fill="white" stroke="#666666" points="527.5,-56 436.5,-56 436.5,-37 527.5,-37 527.5,-56"/>
<text text-anchor="middle" x="482" y="-44" font-family="Helvetica,sans-Serif" font-size="10.00">exif_mem_free</text>
</a>
</g>
</g>
<!-- Node6&#45;&gt;Node7 -->
<g id="edge6_Node000006_Node000007" class="edge">
<title>Node6&#45;&gt;Node7</title>
<g id="a_edge6_Node000006_Node000007"><a xlink:title=" ">
<path fill="none" stroke="#63b8ff" d="M396.2,-46.5C405.56,-46.5 415.42,-46.5 424.96,-46.5"/>
<polygon fill="#63b8ff" stroke="#63b8ff" points="424.88,-50 434.88,-46.5 424.88,-43 424.88,-50"/>
</a>
</g>
</g>
<!-- Node9 -->
<g id="Node000009" class="node">
<title>Node9</title>
<g id="a_Node000009"><a xlink:href="exif-log_8c.html#a99101b5ad01b2d82ce9d43c9e8534627" target="_top" xlink:title=" ">
<polygon fill="white" stroke="#666666" points="513,-19 451,-19 451,0 513,0 513,-19"/>
<text text-anchor="middle" x="482" y="-7" font-family="Helvetica,sans-Serif" font-size="10.00">exif_logv</text>
</a>
</g>
</g>
<!-- Node8&#45;&gt;Node9 -->
<g id="edge8_Node000008_Node000009" class="edge">
<title>Node8&#45;&gt;Node9</title>
<g id="a_edge8_Node000008_Node000009"><a xlink:title=" ">
<path fill="none" stroke="#63b8ff" d="M373.72,-9.5C392.5,-9.5 417.83,-9.5 439.17,-9.5"/>
<polygon fill="#63b8ff" stroke="#63b8ff" points="439.02,-13 449.02,-9.5 439.02,-6 439.02,-13"/>
</a>
</g>
</g>
</g>
</svg>
