<?xml version="1.0" encoding="UTF-8" standalone="no"?>
<!DOCTYPE svg PUBLIC "-//W3C//DTD SVG 1.1//EN"
 "http://www.w3.org/Graphics/SVG/1.1/DTD/svg11.dtd">
<!-- Generated by graphviz version 2.44.1 (0)
 -->
<!-- Title: exif_tag_get_title Pages: 1 -->
<svg width="553pt" height="91pt"
 viewBox="0.00 0.00 553.00 91.00" xmlns="http://www.w3.org/2000/svg" xmlns:xlink="http://www.w3.org/1999/xlink">
<g id="graph0" class="graph" transform="scale(1 1) rotate(0) translate(4 87)">
<title>exif_tag_get_title</title>
<polygon fill="white" stroke="transparent" points="-4,4 -4,-87 549,-87 549,4 -4,4"/>
<!-- Node1 -->
<g id="node1" class="node">
<title>Node1</title>
<g id="a_node1"><a xlink:title=" ">
<polygon fill="#bfbfbf" stroke="black" points="0,-41.5 0,-60.5 102,-60.5 102,-41.5 0,-41.5"/>
<text text-anchor="middle" x="51" y="-48.5" font-family="Helvetica,sans-Serif" font-size="10.00">exif_tag_get_title</text>
</a>
</g>
</g>
<!-- Node2 -->
<g id="node2" class="node">
<title>Node2</title>
<g id="a_node2"><a xlink:href="exif-tag_8c.html#ab05bf3c8af3747529c62226eb35226bb" target="_top" xlink:title=" ">
<polygon fill="white" stroke="black" points="138,-63.5 138,-82.5 243,-82.5 243,-63.5 138,-63.5"/>
<text text-anchor="middle" x="190.5" y="-70.5" font-family="Helvetica,sans-Serif" font-size="10.00">exif_tag_get_stuff</text>
</a>
</g>
</g>
<!-- Node1&#45;&gt;Node2 -->
<g id="edge1" class="edge">
<title>Node1&#45;&gt;Node2</title>
<path fill="none" stroke="midnightblue" d="M102.03,-59C110.42,-60.35 119.21,-61.75 127.85,-63.14"/>
<polygon fill="midnightblue" stroke="midnightblue" points="127.46,-66.62 137.89,-64.74 128.57,-59.71 127.46,-66.62"/>
</g>
<!-- Node3 -->
<g id="node3" class="node">
<title>Node3</title>
<g id="a_node3"><a xlink:href="exif-tag_8c.html#aa305689da4ceb3e86692377393dcc142" target="_top" xlink:title="Return a textual title of the given tag when found in the given IFD.">
<polygon fill="white" stroke="black" points="139.5,-14 139.5,-44 241.5,-44 241.5,-14 139.5,-14"/>
<text text-anchor="start" x="147.5" y="-32" font-family="Helvetica,sans-Serif" font-size="10.00">exif_tag_get_title</text>
<text text-anchor="middle" x="190.5" y="-21" font-family="Helvetica,sans-Serif" font-size="10.00">_in_ifd</text>
</a>
</g>
</g>
<!-- Node1&#45;&gt;Node3 -->
<g id="edge2" class="edge">
<title>Node1&#45;&gt;Node3</title>
<path fill="none" stroke="midnightblue" d="M102.03,-43C110.84,-41.58 120.1,-40.1 129.17,-38.65"/>
<polygon fill="midnightblue" stroke="midnightblue" points="129.96,-42.07 139.28,-37.04 128.85,-35.16 129.96,-42.07"/>
</g>
<!-- Node4 -->
<g id="node4" class="node">
<title>Node4</title>
<g id="a_node4"><a xlink:href="exif-tag_8c.html#a389f8ff3411e0525b28367892f1e78d3" target="_top" xlink:title="Finds the first entry in the EXIF tag table with the given tag number using a binary search.">
<polygon fill="white" stroke="black" points="279,-19.5 279,-38.5 390,-38.5 390,-19.5 279,-19.5"/>
<text text-anchor="middle" x="334.5" y="-26.5" font-family="Helvetica,sans-Serif" font-size="10.00">exif_tag_table_first</text>
</a>
</g>
</g>
<!-- Node3&#45;&gt;Node4 -->
<g id="edge3" class="edge">
<title>Node3&#45;&gt;Node4</title>
<path fill="none" stroke="midnightblue" d="M241.56,-29C250.27,-29 259.43,-29 268.46,-29"/>
<polygon fill="midnightblue" stroke="midnightblue" points="268.58,-32.5 278.58,-29 268.58,-25.5 268.58,-32.5"/>
</g>
<!-- Node5 -->
<g id="node5" class="node">
<title>Node5</title>
<g id="a_node5"><a xlink:href="exif-tag_8c.html#a87563ee64809f5f0deb4d780098508c1" target="_top" xlink:title="Return the number of entries in the EXIF tag table, including the terminating NULL entry.">
<polygon fill="white" stroke="black" points="426,-38.5 426,-57.5 545,-57.5 545,-38.5 426,-38.5"/>
<text text-anchor="middle" x="485.5" y="-45.5" font-family="Helvetica,sans-Serif" font-size="10.00">exif_tag_table_count</text>
</a>
</g>
</g>
<!-- Node4&#45;&gt;Node5 -->
<g id="edge4" class="edge">
<title>Node4&#45;&gt;Node5</title>
<path fill="none" stroke="midnightblue" d="M390.14,-35.97C398.49,-37.03 407.21,-38.14 415.82,-39.24"/>
<polygon fill="midnightblue" stroke="midnightblue" points="415.5,-42.73 425.86,-40.52 416.38,-35.79 415.5,-42.73"/>
</g>
<!-- Node6 -->
<g id="node6" class="node">
<title>Node6</title>
<g id="a_node6"><a xlink:href="exif-tag_8c.html#a220c1b18832f113bc84ff9551754915f" target="_top" xlink:title="Compares the tag with that in entry.">
<polygon fill="white" stroke="black" points="451.5,-0.5 451.5,-19.5 519.5,-19.5 519.5,-0.5 451.5,-0.5"/>
<text text-anchor="middle" x="485.5" y="-7.5" font-family="Helvetica,sans-Serif" font-size="10.00">match_tag</text>
</a>
</g>
</g>
<!-- Node4&#45;&gt;Node6 -->
<g id="edge5" class="edge">
<title>Node4&#45;&gt;Node6</title>
<path fill="none" stroke="midnightblue" d="M390.14,-22.03C406.9,-19.9 425.1,-17.57 441.01,-15.55"/>
<polygon fill="midnightblue" stroke="midnightblue" points="441.62,-19 451.1,-14.26 440.74,-12.05 441.62,-19"/>
</g>
</g>
</svg>
