<?xml version="1.0" encoding="UTF-8" standalone="no"?>
<!DOCTYPE svg PUBLIC "-//W3C//DTD SVG 1.1//EN"
 "http://www.w3.org/Graphics/SVG/1.1/DTD/svg11.dtd">
<!-- Generated by graphviz version 7.0.1 (0)
 -->
<!-- Title: exif_mnote_data_olympus_save Pages: 1 -->
<svg width="465pt" height="175pt"
 viewBox="0.00 0.00 465.00 175.00" xmlns="http://www.w3.org/2000/svg" xmlns:xlink="http://www.w3.org/1999/xlink">
<g id="graph0" class="graph" transform="scale(1 1) rotate(0) translate(4 171)">
<title>exif_mnote_data_olympus_save</title>
<!-- Node1 -->
<g id="Node000001" class="node">
<title>Node1</title>
<g id="a_Node000001"><a xlink:title="save the MnoteData from ne to buf">
<polygon fill="#999999" stroke="#666666" points="175,-93 0,-93 0,-74 175,-74 175,-93"/>
<text text-anchor="middle" x="87.5" y="-81" font-family="Helvetica,sans-Serif" font-size="10.00">exif_mnote_data_olympus_save</text>
</a>
</g>
</g>
<!-- Node2 -->
<g id="Node000002" class="node">
<title>Node2</title>
<g id="a_Node000002"><a xlink:href="exif-format_8c.html#a924038efe0cd8ebade8f44619dd794f3" target="_top" xlink:title="Return the raw size of the given EXIF data type.">
<polygon fill="white" stroke="#666666" points="330,-167 211,-167 211,-148 330,-148 330,-167"/>
<text text-anchor="middle" x="270.5" y="-155" font-family="Helvetica,sans-Serif" font-size="10.00">exif_format_get_size</text>
</a>
</g>
</g>
<!-- Node1&#45;&gt;Node2 -->
<g id="edge1_Node000001_Node000002" class="edge">
<title>Node1&#45;&gt;Node2</title>
<g id="a_edge1_Node000001_Node000002"><a xlink:title=" ">
<path fill="none" stroke="#63b8ff" d="M108.11,-93.43C132.02,-105.31 173.85,-125.36 211,-139.5 215.13,-141.07 219.46,-142.61 223.81,-144.08"/>
<polygon fill="#63b8ff" stroke="#63b8ff" points="222.57,-147.35 233.16,-147.11 224.73,-140.69 222.57,-147.35"/>
</a>
</g>
</g>
<!-- Node3 -->
<g id="Node000003" class="node">
<title>Node3</title>
<g id="a_Node000003"><a xlink:href="exif-mem_8c.html#a68be7c7afc8cff75adc3b1a28b5ae9a2" target="_top" xlink:title=" ">
<polygon fill="white" stroke="#666666" points="318,-130 223,-130 223,-111 318,-111 318,-130"/>
<text text-anchor="middle" x="270.5" y="-118" font-family="Helvetica,sans-Serif" font-size="10.00">exif_mem_alloc</text>
</a>
</g>
</g>
<!-- Node1&#45;&gt;Node3 -->
<g id="edge2_Node000001_Node000003" class="edge">
<title>Node1&#45;&gt;Node3</title>
<g id="a_edge2_Node000001_Node000003"><a xlink:title=" ">
<path fill="none" stroke="#63b8ff" d="M137,-93.42C159.97,-98.11 187.56,-103.75 211.61,-108.67"/>
<polygon fill="#63b8ff" stroke="#63b8ff" points="210.76,-112.06 221.25,-110.64 212.16,-105.21 210.76,-112.06"/>
</a>
</g>
</g>
<!-- Node4 -->
<g id="Node000004" class="node">
<title>Node4</title>
<g id="a_Node000004"><a xlink:href="exif-mem_8c.html#a7302da5374a74202e03a781b7c4b7ebe" target="_top" xlink:title=" ">
<polygon fill="white" stroke="#666666" points="322.5,-93 218.5,-93 218.5,-74 322.5,-74 322.5,-93"/>
<text text-anchor="middle" x="270.5" y="-81" font-family="Helvetica,sans-Serif" font-size="10.00">exif_mem_realloc</text>
</a>
</g>
</g>
<!-- Node1&#45;&gt;Node4 -->
<g id="edge3_Node000001_Node000004" class="edge">
<title>Node1&#45;&gt;Node4</title>
<g id="a_edge3_Node000001_Node000004"><a xlink:title=" ">
<path fill="none" stroke="#63b8ff" d="M175.29,-83.5C185.97,-83.5 196.72,-83.5 206.94,-83.5"/>
<polygon fill="#63b8ff" stroke="#63b8ff" points="206.71,-87 216.71,-83.5 206.71,-80 206.71,-87"/>
</a>
</g>
</g>
<!-- Node5 -->
<g id="Node000005" class="node">
<title>Node5</title>
<g id="a_Node000005"><a xlink:href="exif-utils_8c.html#ac90147d0cc97bec7a577bf9576191bf8" target="_top" xlink:title="Store an ExifLong value into memory in EXIF format.">
<polygon fill="white" stroke="#666666" points="311.5,-56 229.5,-56 229.5,-37 311.5,-37 311.5,-56"/>
<text text-anchor="middle" x="270.5" y="-44" font-family="Helvetica,sans-Serif" font-size="10.00">exif_set_long</text>
</a>
</g>
</g>
<!-- Node1&#45;&gt;Node5 -->
<g id="edge4_Node000001_Node000005" class="edge">
<title>Node1&#45;&gt;Node5</title>
<g id="a_edge4_Node000001_Node000005"><a xlink:title=" ">
<path fill="none" stroke="#63b8ff" d="M137,-73.58C162.09,-68.46 192.71,-62.2 218.18,-56.99"/>
<polygon fill="#63b8ff" stroke="#63b8ff" points="218.55,-60.49 227.64,-55.06 217.14,-53.63 218.55,-60.49"/>
</a>
</g>
</g>
<!-- Node7 -->
<g id="Node000007" class="node">
<title>Node7</title>
<g id="a_Node000007"><a xlink:href="exif-utils_8c.html#ad905d16e26b4052a1db34dbebdc37341" target="_top" xlink:title="Store an ExifShort value into memory in EXIF format.">
<polygon fill="white" stroke="#666666" points="313.5,-19 227.5,-19 227.5,0 313.5,0 313.5,-19"/>
<text text-anchor="middle" x="270.5" y="-7" font-family="Helvetica,sans-Serif" font-size="10.00">exif_set_short</text>
</a>
</g>
</g>
<!-- Node1&#45;&gt;Node7 -->
<g id="edge6_Node000001_Node000007" class="edge">
<title>Node1&#45;&gt;Node7</title>
<g id="a_edge6_Node000001_Node000007"><a xlink:title=" ">
<path fill="none" stroke="#63b8ff" d="M108.59,-73.67C132.63,-62.1 174.24,-42.67 211,-28.5 215.91,-26.61 221.1,-24.74 226.27,-22.96"/>
<polygon fill="#63b8ff" stroke="#63b8ff" points="226.98,-26.41 235.36,-19.92 224.76,-19.77 226.98,-26.41"/>
</a>
</g>
</g>
<!-- Node6 -->
<g id="Node000006" class="node">
<title>Node6</title>
<g id="a_Node000006"><a xlink:href="exif-utils_8c.html#ae6e3b9d1663f9ab9bd462d73a310ca03" target="_top" xlink:title="Store an ExifSLong value into memory in EXIF format.">
<polygon fill="white" stroke="#666666" points="455,-56 368,-56 368,-37 455,-37 455,-56"/>
<text text-anchor="middle" x="411.5" y="-44" font-family="Helvetica,sans-Serif" font-size="10.00">exif_set_slong</text>
</a>
</g>
</g>
<!-- Node5&#45;&gt;Node6 -->
<g id="edge5_Node000005_Node000006" class="edge">
<title>Node5&#45;&gt;Node6</title>
<g id="a_edge5_Node000005_Node000006"><a xlink:title=" ">
<path fill="none" stroke="#63b8ff" d="M311.7,-46.5C325.76,-46.5 341.77,-46.5 356.76,-46.5"/>
<polygon fill="#63b8ff" stroke="#63b8ff" points="356.45,-50 366.45,-46.5 356.45,-43 356.45,-50"/>
</a>
</g>
</g>
<!-- Node8 -->
<g id="Node000008" class="node">
<title>Node8</title>
<g id="a_Node000008"><a xlink:href="exif-utils_8c.html#a6504651147702fc6db9a5cd4aa997023" target="_top" xlink:title="Store an ExifSShort value into memory in EXIF format.">
<polygon fill="white" stroke="#666666" points="457,-19 366,-19 366,0 457,0 457,-19"/>
<text text-anchor="middle" x="411.5" y="-7" font-family="Helvetica,sans-Serif" font-size="10.00">exif_set_sshort</text>
</a>
</g>
</g>
<!-- Node7&#45;&gt;Node8 -->
<g id="edge7_Node000007_Node000008" class="edge">
<title>Node7&#45;&gt;Node8</title>
<g id="a_edge7_Node000007_Node000008"><a xlink:title=" ">
<path fill="none" stroke="#63b8ff" d="M313.96,-9.5C326.81,-9.5 341.12,-9.5 354.7,-9.5"/>
<polygon fill="#63b8ff" stroke="#63b8ff" points="354.38,-13 364.38,-9.5 354.38,-6 354.38,-13"/>
</a>
</g>
</g>
</g>
</svg>
