<?xml version="1.0" encoding="UTF-8" standalone="no"?>
<!DOCTYPE svg PUBLIC "-//W3C//DTD SVG 1.1//EN"
 "http://www.w3.org/Graphics/SVG/1.1/DTD/svg11.dtd">
<!-- Generated by graphviz version 2.44.1 (0)
 -->
<!-- Title: libexif/exif&#45;byte&#45;order.c Pages: 1 -->
<svg width="323pt" height="140pt"
 viewBox="0.00 0.00 323.27 140.00" xmlns="http://www.w3.org/2000/svg" xmlns:xlink="http://www.w3.org/1999/xlink">
<g id="graph0" class="graph" transform="scale(1 1) rotate(0) translate(4 136)">
<title>libexif/exif&#45;byte&#45;order.c</title>
<polygon fill="white" stroke="transparent" points="-4,4 -4,-136 319.27,-136 319.27,4 -4,4"/>
<!-- Node1 -->
<g id="node1" class="node">
<title>Node1</title>
<g id="a_node1"><a xlink:title=" ">
<polygon fill="#bfbfbf" stroke="black" points="76.27,-112.5 76.27,-131.5 207.27,-131.5 207.27,-112.5 76.27,-112.5"/>
<text text-anchor="middle" x="141.77" y="-119.5" font-family="Helvetica,sans-Serif" font-size="10.00">libexif/exif&#45;byte&#45;order.c</text>
</a>
</g>
</g>
<!-- Node2 -->
<g id="node2" class="node">
<title>Node2</title>
<g id="a_node2"><a xlink:title=" ">
<polygon fill="white" stroke="#bfbfbf" points="66.77,-0.5 66.77,-19.5 122.77,-19.5 122.77,-0.5 66.77,-0.5"/>
<text text-anchor="middle" x="94.77" y="-7.5" font-family="Helvetica,sans-Serif" font-size="10.00">config.h</text>
</a>
</g>
</g>
<!-- Node1&#45;&gt;Node2 -->
<g id="edge1" class="edge">
<title>Node1&#45;&gt;Node2</title>
<path fill="none" stroke="midnightblue" d="M76.1,-115.86C49.49,-110.16 21.21,-98.71 4.77,-76 -13,-51.45 25.01,-32.54 56.98,-21.6"/>
<polygon fill="midnightblue" stroke="midnightblue" points="58.21,-24.88 66.64,-18.46 56.05,-18.22 58.21,-24.88"/>
</g>
<!-- Node3 -->
<g id="node3" class="node">
<title>Node3</title>
<g id="a_node3"><a xlink:href="exif-byte-order_8h.html" target="_top" xlink:title="Defines the ExifByteOrder enum and the associated functions.">
<polygon fill="white" stroke="black" points="14.27,-56.5 14.27,-75.5 145.27,-75.5 145.27,-56.5 14.27,-56.5"/>
<text text-anchor="middle" x="79.77" y="-63.5" font-family="Helvetica,sans-Serif" font-size="10.00">libexif/exif&#45;byte&#45;order.h</text>
</a>
</g>
</g>
<!-- Node1&#45;&gt;Node3 -->
<g id="edge2" class="edge">
<title>Node1&#45;&gt;Node3</title>
<path fill="none" stroke="midnightblue" d="M131.81,-112.32C122.64,-104.34 108.83,-92.31 97.74,-82.65"/>
<polygon fill="midnightblue" stroke="midnightblue" points="99.75,-79.76 89.91,-75.83 95.15,-85.04 99.75,-79.76"/>
</g>
<!-- Node4 -->
<g id="node4" class="node">
<title>Node4</title>
<g id="a_node4"><a xlink:href="i18n_8h.html" target="_top" xlink:title=" ">
<polygon fill="white" stroke="black" points="163.77,-56.5 163.77,-75.5 243.77,-75.5 243.77,-56.5 163.77,-56.5"/>
<text text-anchor="middle" x="203.77" y="-63.5" font-family="Helvetica,sans-Serif" font-size="10.00">libexif/i18n.h</text>
</a>
</g>
</g>
<!-- Node1&#45;&gt;Node4 -->
<g id="edge3" class="edge">
<title>Node1&#45;&gt;Node4</title>
<path fill="none" stroke="midnightblue" d="M151.73,-112.32C160.9,-104.34 174.71,-92.31 185.8,-82.65"/>
<polygon fill="midnightblue" stroke="midnightblue" points="188.39,-85.04 193.63,-75.83 183.79,-79.76 188.39,-85.04"/>
</g>
<!-- Node5 -->
<g id="node5" class="node">
<title>Node5</title>
<g id="a_node5"><a xlink:title=" ">
<polygon fill="white" stroke="#bfbfbf" points="262.27,-56.5 262.27,-75.5 315.27,-75.5 315.27,-56.5 262.27,-56.5"/>
<text text-anchor="middle" x="288.77" y="-63.5" font-family="Helvetica,sans-Serif" font-size="10.00">stdlib.h</text>
</a>
</g>
</g>
<!-- Node1&#45;&gt;Node5 -->
<g id="edge5" class="edge">
<title>Node1&#45;&gt;Node5</title>
<path fill="none" stroke="midnightblue" d="M165.06,-112.44C189.58,-103.44 228.37,-89.19 255.97,-79.05"/>
<polygon fill="midnightblue" stroke="midnightblue" points="257.41,-82.25 265.59,-75.52 254.99,-75.68 257.41,-82.25"/>
</g>
<!-- Node4&#45;&gt;Node2 -->
<g id="edge4" class="edge">
<title>Node4&#45;&gt;Node2</title>
<path fill="none" stroke="midnightblue" d="M186.26,-56.32C168.7,-47.62 141.44,-34.12 121.24,-24.11"/>
<polygon fill="midnightblue" stroke="midnightblue" points="122.75,-20.96 112.24,-19.65 119.65,-27.23 122.75,-20.96"/>
</g>
</g>
</svg>
