<?xml version="1.0" encoding="UTF-8" standalone="no"?>
<!DOCTYPE svg PUBLIC "-//W3C//DTD SVG 1.1//EN"
 "http://www.w3.org/Graphics/SVG/1.1/DTD/svg11.dtd">
<!-- Generated by graphviz version 2.44.1 (0)
 -->
<!-- Title: exif_entry_format_value Pages: 1 -->
<svg width="564pt" height="296pt"
 viewBox="0.00 0.00 564.00 295.50" xmlns="http://www.w3.org/2000/svg" xmlns:xlink="http://www.w3.org/1999/xlink">
<g id="graph0" class="graph" transform="scale(1 1) rotate(0) translate(4 291.5)">
<title>exif_entry_format_value</title>
<polygon fill="white" stroke="transparent" points="-4,4 -4,-291.5 560,-291.5 560,4 -4,4"/>
<!-- Node1 -->
<g id="node1" class="node">
<title>Node1</title>
<g id="a_node1"><a xlink:title="Format the value of an ExifEntry for human display in a generic way.">
<polygon fill="#bfbfbf" stroke="black" points="0,-123.5 0,-142.5 137,-142.5 137,-123.5 0,-123.5"/>
<text text-anchor="middle" x="68.5" y="-130.5" font-family="Helvetica,sans-Serif" font-size="10.00">exif_entry_format_value</text>
</a>
</g>
</g>
<!-- Node2 -->
<g id="node2" class="node">
<title>Node2</title>
<g id="a_node2"><a xlink:href="exif-data_8c.html#a2d8d50e6a9c19d28fe8192ef7cc52777" target="_top" xlink:title="Return the byte order in use by this EXIF structure.">
<polygon fill="white" stroke="black" points="177.5,-257 177.5,-287 287.5,-287 287.5,-257 177.5,-257"/>
<text text-anchor="start" x="185.5" y="-275" font-family="Helvetica,sans-Serif" font-size="10.00">exif_data_get_byte</text>
<text text-anchor="middle" x="232.5" y="-264" font-family="Helvetica,sans-Serif" font-size="10.00">_order</text>
</a>
</g>
</g>
<!-- Node1&#45;&gt;Node2 -->
<g id="edge1" class="edge">
<title>Node1&#45;&gt;Node2</title>
<path fill="none" stroke="midnightblue" d="M75.94,-142.53C90.77,-163.85 129.45,-215.99 173,-247 175.53,-248.8 178.21,-250.51 180.97,-252.12"/>
<polygon fill="midnightblue" stroke="midnightblue" points="179.54,-255.32 190.01,-256.94 182.83,-249.14 179.54,-255.32"/>
</g>
<!-- Node3 -->
<g id="node3" class="node">
<title>Node3</title>
<g id="a_node3"><a xlink:href="exif-format_8c.html#a924038efe0cd8ebade8f44619dd794f3" target="_top" xlink:title="Return the raw size of the given EXIF data type.">
<polygon fill="white" stroke="black" points="173,-218.5 173,-237.5 292,-237.5 292,-218.5 173,-218.5"/>
<text text-anchor="middle" x="232.5" y="-225.5" font-family="Helvetica,sans-Serif" font-size="10.00">exif_format_get_size</text>
</a>
</g>
</g>
<!-- Node1&#45;&gt;Node3 -->
<g id="edge2" class="edge">
<title>Node1&#45;&gt;Node3</title>
<path fill="none" stroke="midnightblue" d="M81.7,-142.64C100.52,-157.22 138.11,-185.15 173,-204 180.06,-207.82 187.86,-211.41 195.41,-214.6"/>
<polygon fill="midnightblue" stroke="midnightblue" points="194.16,-217.87 204.74,-218.4 196.8,-211.39 194.16,-217.87"/>
</g>
<!-- Node4 -->
<g id="node4" class="node">
<title>Node4</title>
<g id="a_node4"><a xlink:href="exif-utils_8c.html#a4ad94614630897766dd0a5c9bc2a59bf" target="_top" xlink:title="Retrieve an ExifLong value from memory.">
<polygon fill="white" stroke="black" points="338.5,-142.5 338.5,-161.5 421.5,-161.5 421.5,-142.5 338.5,-142.5"/>
<text text-anchor="middle" x="380" y="-149.5" font-family="Helvetica,sans-Serif" font-size="10.00">exif_get_long</text>
</a>
</g>
</g>
<!-- Node1&#45;&gt;Node4 -->
<g id="edge3" class="edge">
<title>Node1&#45;&gt;Node4</title>
<path fill="none" stroke="midnightblue" d="M89.15,-142.59C109.54,-151.97 142.66,-165.61 173,-171 225.07,-180.26 239.42,-176.68 292,-171 305.72,-169.52 320.45,-166.76 333.81,-163.8"/>
<polygon fill="midnightblue" stroke="midnightblue" points="334.77,-167.17 343.73,-161.51 333.2,-160.35 334.77,-167.17"/>
</g>
<!-- Node5 -->
<g id="node5" class="node">
<title>Node5</title>
<g id="a_node5"><a xlink:href="exif-utils_8c.html#a56b96f076a13da6ed926e1ef29cb2dc3" target="_top" xlink:title="Retrieve an ExifSLong value from memory.">
<polygon fill="white" stroke="black" points="468,-104.5 468,-123.5 556,-123.5 556,-104.5 468,-104.5"/>
<text text-anchor="middle" x="512" y="-111.5" font-family="Helvetica,sans-Serif" font-size="10.00">exif_get_slong</text>
</a>
</g>
</g>
<!-- Node1&#45;&gt;Node5 -->
<g id="edge9" class="edge">
<title>Node1&#45;&gt;Node5</title>
<path fill="none" stroke="midnightblue" d="M137.03,-130.09C225,-126.31 377.01,-119.77 457.46,-116.3"/>
<polygon fill="midnightblue" stroke="midnightblue" points="458.01,-119.78 467.85,-115.86 457.71,-112.79 458.01,-119.78"/>
</g>
<!-- Node6 -->
<g id="node6" class="node">
<title>Node6</title>
<g id="a_node6"><a xlink:href="exif-utils_8c.html#a1feb547c289aa57a4d2119338b03706c" target="_top" xlink:title="Retrieve an ExifRational value from memory.">
<polygon fill="white" stroke="black" points="183,-142.5 183,-161.5 282,-161.5 282,-142.5 183,-142.5"/>
<text text-anchor="middle" x="232.5" y="-149.5" font-family="Helvetica,sans-Serif" font-size="10.00">exif_get_rational</text>
</a>
</g>
</g>
<!-- Node1&#45;&gt;Node6 -->
<g id="edge5" class="edge">
<title>Node1&#45;&gt;Node6</title>
<path fill="none" stroke="midnightblue" d="M137.26,-140.95C149.07,-142.33 161.25,-143.76 172.79,-145.11"/>
<polygon fill="midnightblue" stroke="midnightblue" points="172.39,-148.59 182.73,-146.28 173.21,-141.64 172.39,-148.59"/>
</g>
<!-- Node7 -->
<g id="node7" class="node">
<title>Node7</title>
<g id="a_node7"><a xlink:href="exif-utils_8c.html#a4b4acf537a8c6b9405e7b53be868e4d7" target="_top" xlink:title="Retrieve an ExifShort value from memory.">
<polygon fill="white" stroke="black" points="189.5,-66.5 189.5,-85.5 275.5,-85.5 275.5,-66.5 189.5,-66.5"/>
<text text-anchor="middle" x="232.5" y="-73.5" font-family="Helvetica,sans-Serif" font-size="10.00">exif_get_short</text>
</a>
</g>
</g>
<!-- Node1&#45;&gt;Node7 -->
<g id="edge7" class="edge">
<title>Node1&#45;&gt;Node7</title>
<path fill="none" stroke="midnightblue" d="M96.62,-123.46C123.48,-114.01 164.82,-99.46 194.66,-88.96"/>
<polygon fill="midnightblue" stroke="midnightblue" points="196.02,-92.19 204.3,-85.57 193.7,-85.59 196.02,-92.19"/>
</g>
<!-- Node8 -->
<g id="node8" class="node">
<title>Node8</title>
<g id="a_node8"><a xlink:href="exif-utils_8c.html#a6baf094a71392f9cea23ad633ec13c8b" target="_top" xlink:title="Retrieve an ExifSShort value from memory.">
<polygon fill="white" stroke="black" points="334,-57.5 334,-76.5 426,-76.5 426,-57.5 334,-57.5"/>
<text text-anchor="middle" x="380" y="-64.5" font-family="Helvetica,sans-Serif" font-size="10.00">exif_get_sshort</text>
</a>
</g>
</g>
<!-- Node1&#45;&gt;Node8 -->
<g id="edge12" class="edge">
<title>Node1&#45;&gt;Node8</title>
<path fill="none" stroke="midnightblue" d="M78.3,-123.35C94.84,-106.04 132.54,-70.26 173,-57 225.61,-39.76 289.81,-46.99 332.41,-55.42"/>
<polygon fill="midnightblue" stroke="midnightblue" points="331.72,-58.85 342.22,-57.46 333.14,-52 331.72,-58.85"/>
</g>
<!-- Node9 -->
<g id="node9" class="node">
<title>Node9</title>
<g id="a_node9"><a xlink:href="exif-utils_8c.html#adb97c3499488d5642a82df1cb16dc2cb" target="_top" xlink:title="Retrieve an ExifSRational value from memory.">
<polygon fill="white" stroke="black" points="328,-0.5 328,-19.5 432,-19.5 432,-0.5 328,-0.5"/>
<text text-anchor="middle" x="380" y="-7.5" font-family="Helvetica,sans-Serif" font-size="10.00">exif_get_srational</text>
</a>
</g>
</g>
<!-- Node1&#45;&gt;Node9 -->
<g id="edge10" class="edge">
<title>Node1&#45;&gt;Node9</title>
<path fill="none" stroke="midnightblue" d="M77.13,-123.33C92.81,-104.22 130.74,-61.77 173,-42 218.43,-20.74 275.03,-13.12 317.41,-10.6"/>
<polygon fill="midnightblue" stroke="midnightblue" points="317.78,-14.09 327.58,-10.08 317.42,-7.1 317.78,-14.09"/>
</g>
<!-- Node4&#45;&gt;Node5 -->
<g id="edge4" class="edge">
<title>Node4&#45;&gt;Node5</title>
<path fill="none" stroke="midnightblue" d="M413.8,-142.41C430.28,-137.6 450.44,-131.7 468.13,-126.53"/>
<polygon fill="midnightblue" stroke="midnightblue" points="469.59,-129.75 478.21,-123.59 467.63,-123.03 469.59,-129.75"/>
</g>
<!-- Node6&#45;&gt;Node4 -->
<g id="edge6" class="edge">
<title>Node6&#45;&gt;Node4</title>
<path fill="none" stroke="midnightblue" d="M282.35,-152C297.11,-152 313.34,-152 328.22,-152"/>
<polygon fill="midnightblue" stroke="midnightblue" points="328.27,-155.5 338.27,-152 328.27,-148.5 328.27,-155.5"/>
</g>
<!-- Node7&#45;&gt;Node8 -->
<g id="edge8" class="edge">
<title>Node7&#45;&gt;Node8</title>
<path fill="none" stroke="midnightblue" d="M275.58,-73.4C290.59,-72.47 307.73,-71.41 323.69,-70.42"/>
<polygon fill="midnightblue" stroke="midnightblue" points="324.2,-73.9 333.96,-69.79 323.77,-66.91 324.2,-73.9"/>
</g>
<!-- Node9&#45;&gt;Node5 -->
<g id="edge11" class="edge">
<title>Node9&#45;&gt;Node5</title>
<path fill="none" stroke="midnightblue" d="M394.58,-19.8C404.94,-27.36 419.52,-38.15 432,-48 452.83,-64.44 476.08,-84.02 491.93,-97.56"/>
<polygon fill="midnightblue" stroke="midnightblue" points="490.04,-100.55 499.91,-104.4 494.6,-95.24 490.04,-100.55"/>
</g>
</g>
</svg>
