<?xml version="1.0" encoding="UTF-8" standalone="no"?>
<!DOCTYPE svg PUBLIC "-//W3C//DTD SVG 1.1//EN"
 "http://www.w3.org/Graphics/SVG/1.1/DTD/svg11.dtd">
<!-- Generated by graphviz version 7.0.1 (0)
 -->
<!-- Title: libexif/exif&#45;system.h Pages: 1 -->
<svg width="777pt" height="93pt"
 viewBox="0.00 0.00 777.00 93.00" xmlns="http://www.w3.org/2000/svg" xmlns:xlink="http://www.w3.org/1999/xlink">
<g id="graph0" class="graph" transform="scale(1 1) rotate(0) translate(4 89)">
<title>libexif/exif&#45;system.h</title>
<!-- Node1 -->
<g id="Node000001" class="node">
<title>Node1</title>
<g id="a_Node000001"><a xlink:title="System specific definitions, not for installation!">
<polygon fill="#999999" stroke="#666666" points="458,-85 342,-85 342,-66 458,-66 458,-85"/>
<text text-anchor="middle" x="400" y="-73" font-family="Helvetica,sans-Serif" font-size="10.00">libexif/exif&#45;system.h</text>
</a>
</g>
</g>
<!-- Node2 -->
<g id="Node000002" class="node">
<title>Node2</title>
<g id="a_Node000002"><a xlink:href="exif-content_8c.html" target="_top" xlink:title=" ">
<polygon fill="white" stroke="#666666" points="116,-24.5 0,-24.5 0,-5.5 116,-5.5 116,-24.5"/>
<text text-anchor="middle" x="58" y="-12.5" font-family="Helvetica,sans-Serif" font-size="10.00">libexif/exif&#45;content.c</text>
</a>
</g>
</g>
<!-- Node1&#45;&gt;Node2 -->
<g id="edge1_Node000001_Node000002" class="edge">
<title>Node1&#45;&gt;Node2</title>
<g id="a_edge1_Node000001_Node000002"><a xlink:title=" ">
<path fill="none" stroke="#63b8ff" d="M330.51,-64.15C274.82,-55.64 194.74,-42.92 125,-30 116.7,-28.46 107.86,-26.7 99.4,-24.96"/>
<polygon fill="#63b8ff" stroke="#63b8ff" points="329.75,-67.58 340.16,-65.62 330.8,-60.66 329.75,-67.58"/>
</a>
</g>
</g>
<!-- Node3 -->
<g id="Node000003" class="node">
<title>Node3</title>
<g id="a_Node000003"><a xlink:href="exif-data_8c.html" target="_top" xlink:title=" ">
<polygon fill="white" stroke="#666666" points="235.5,-24.5 134.5,-24.5 134.5,-5.5 235.5,-5.5 235.5,-24.5"/>
<text text-anchor="middle" x="185" y="-12.5" font-family="Helvetica,sans-Serif" font-size="10.00">libexif/exif&#45;data.c</text>
</a>
</g>
</g>
<!-- Node1&#45;&gt;Node3 -->
<g id="edge2_Node000001_Node000003" class="edge">
<title>Node1&#45;&gt;Node3</title>
<g id="a_edge2_Node000001_Node000003"><a xlink:title=" ">
<path fill="none" stroke="#63b8ff" d="M356.34,-62.62C315.38,-51.48 255.03,-35.05 217.96,-24.97"/>
<polygon fill="#63b8ff" stroke="#63b8ff" points="355.32,-65.97 365.89,-65.22 357.16,-59.21 355.32,-65.97"/>
</a>
</g>
</g>
<!-- Node4 -->
<g id="Node000004" class="node">
<title>Node4</title>
<g id="a_Node000004"><a xlink:href="test-fuzzer-persistent_8c.html" target="_top" xlink:title=" ">
<polygon fill="white" stroke="#666666" points="404.5,-24.5 253.5,-24.5 253.5,-5.5 404.5,-5.5 404.5,-24.5"/>
<text text-anchor="middle" x="329" y="-12.5" font-family="Helvetica,sans-Serif" font-size="10.00">test/test&#45;fuzzer&#45;persistent.c</text>
</a>
</g>
</g>
<!-- Node1&#45;&gt;Node4 -->
<g id="edge3_Node000001_Node000004" class="edge">
<title>Node1&#45;&gt;Node4</title>
<g id="a_edge3_Node000001_Node000004"><a xlink:title=" ">
<path fill="none" stroke="#63b8ff" d="M380.48,-58.41C367.4,-47.64 350.66,-33.85 339.88,-24.97"/>
<polygon fill="#63b8ff" stroke="#63b8ff" points="378.11,-60.99 388.05,-64.65 382.56,-55.59 378.11,-60.99"/>
</a>
</g>
</g>
<!-- Node5 -->
<g id="Node000005" class="node">
<title>Node5</title>
<g id="a_Node000005"><a xlink:href="test-fuzzer_8c.html" target="_top" xlink:title=" ">
<polygon fill="white" stroke="#666666" points="521.5,-24.5 422.5,-24.5 422.5,-5.5 521.5,-5.5 521.5,-24.5"/>
<text text-anchor="middle" x="472" y="-12.5" font-family="Helvetica,sans-Serif" font-size="10.00">test/test&#45;fuzzer.c</text>
</a>
</g>
</g>
<!-- Node1&#45;&gt;Node5 -->
<g id="edge4_Node000001_Node000005" class="edge">
<title>Node1&#45;&gt;Node5</title>
<g id="a_edge4_Node000001_Node000005"><a xlink:title=" ">
<path fill="none" stroke="#63b8ff" d="M419.8,-58.41C433.06,-47.64 450.03,-33.85 460.96,-24.97"/>
<polygon fill="#63b8ff" stroke="#63b8ff" points="417.66,-55.64 412.11,-64.66 422.08,-61.07 417.66,-55.64"/>
</a>
</g>
</g>
<!-- Node6 -->
<g id="Node000006" class="node">
<title>Node6</title>
<g id="a_Node000006"><a xlink:href="test-parse-from-data_8c.html" target="_top" xlink:title="Completely parse all files given on the command line.">
<polygon fill="white" stroke="#666666" points="654.5,-30 539.5,-30 539.5,0 654.5,0 654.5,-30"/>
<text text-anchor="start" x="547.5" y="-18" font-family="Helvetica,sans-Serif" font-size="10.00">test/test&#45;parse&#45;from</text>
<text text-anchor="middle" x="597" y="-7" font-family="Helvetica,sans-Serif" font-size="10.00">&#45;data.c</text>
</a>
</g>
</g>
<!-- Node1&#45;&gt;Node6 -->
<g id="edge5_Node000001_Node000006" class="edge">
<title>Node1&#45;&gt;Node6</title>
<g id="a_edge5_Node000001_Node000006"><a xlink:title=" ">
<path fill="none" stroke="#63b8ff" d="M440.86,-62.37C472.12,-53.08 515.33,-40.25 548.37,-30.44"/>
<polygon fill="#63b8ff" stroke="#63b8ff" points="439.96,-58.98 431.37,-65.18 441.95,-65.69 439.96,-58.98"/>
</a>
</g>
</g>
<!-- Node7 -->
<g id="Node000007" class="node">
<title>Node7</title>
<g id="a_Node000007"><a xlink:href="test-parse_8c.html" target="_top" xlink:title="Completely parse all files given on the command line.">
<polygon fill="white" stroke="#666666" points="769,-24.5 673,-24.5 673,-5.5 769,-5.5 769,-24.5"/>
<text text-anchor="middle" x="721" y="-12.5" font-family="Helvetica,sans-Serif" font-size="10.00">test/test&#45;parse.c</text>
</a>
</g>
</g>
<!-- Node1&#45;&gt;Node7 -->
<g id="edge6_Node000001_Node000007" class="edge">
<title>Node1&#45;&gt;Node7</title>
<g id="a_edge6_Node000001_Node000007"><a xlink:title=" ">
<path fill="none" stroke="#63b8ff" d="M469.48,-64.22C522.87,-55.98 598.35,-43.58 664,-30 671.18,-28.51 678.84,-26.76 686.13,-25"/>
<polygon fill="#63b8ff" stroke="#63b8ff" points="469.28,-60.71 459.92,-65.69 470.34,-67.63 469.28,-60.71"/>
</a>
</g>
</g>
</g>
</svg>
