<?xml version="1.0" encoding="UTF-8" standalone="no"?>
<!DOCTYPE svg PUBLIC "-//W3C//DTD SVG 1.1//EN"
 "http://www.w3.org/Graphics/SVG/1.1/DTD/svg11.dtd">
<!-- Generated by graphviz version 7.0.1 (0)
 -->
<!-- Title: exif_mnote_data_olympus_identify Pages: 1 -->
<svg width="916pt" height="452pt"
 viewBox="0.00 0.00 916.00 452.00" xmlns="http://www.w3.org/2000/svg" xmlns:xlink="http://www.w3.org/1999/xlink">
<g id="graph0" class="graph" transform="scale(1 1) rotate(0) translate(4 448)">
<title>exif_mnote_data_olympus_identify</title>
<!-- Node1 -->
<g id="Node000001" class="node">
<title>Node1</title>
<g id="a_Node000001"><a xlink:title="Detect if MakerNote is recognized as one handled by the Olympus module.">
<polygon fill="#999999" stroke="#666666" points="146,-208.5 0,-208.5 0,-178.5 146,-178.5 146,-208.5"/>
<text text-anchor="start" x="8" y="-196.5" font-family="Helvetica,sans-Serif" font-size="10.00">exif_mnote_data_olympus</text>
<text text-anchor="middle" x="73" y="-185.5" font-family="Helvetica,sans-Serif" font-size="10.00">_identify</text>
</a>
</g>
</g>
<!-- Node2 -->
<g id="Node000002" class="node">
<title>Node2</title>
<g id="a_Node000002"><a xlink:href="exif-entry_8c.html#a60425f657af3e00dc8bbb675f91cdb84" target="_top" xlink:title="Return a localized textual representation of the value of the EXIF entry.">
<polygon fill="white" stroke="#666666" points="314.5,-225 195.5,-225 195.5,-206 314.5,-206 314.5,-225"/>
<text text-anchor="middle" x="255" y="-213" font-family="Helvetica,sans-Serif" font-size="10.00">exif_entry_get_value</text>
</a>
</g>
</g>
<!-- Node1&#45;&gt;Node2 -->
<g id="edge1_Node000001_Node000002" class="edge">
<title>Node1&#45;&gt;Node2</title>
<g id="a_edge1_Node000001_Node000002"><a xlink:title=" ">
<path fill="none" stroke="#63b8ff" d="M146.43,-202.35C158.85,-203.87 171.73,-205.44 184.08,-206.95"/>
<polygon fill="#63b8ff" stroke="#63b8ff" points="183.39,-210.4 193.74,-208.13 184.24,-203.45 183.39,-210.4"/>
</a>
</g>
</g>
<!-- Node20 -->
<g id="Node000020" class="node">
<title>Node20</title>
<g id="a_Node000020"><a xlink:href="exif-mnote-data-olympus_8c.html#a2c0a03d9462fd2a2f2f0a3f7e017a858" target="_top" xlink:title=" ">
<polygon fill="white" stroke="#666666" points="328,-187.5 182,-187.5 182,-157.5 328,-157.5 328,-187.5"/>
<text text-anchor="start" x="190" y="-175.5" font-family="Helvetica,sans-Serif" font-size="10.00">exif_mnote_data_olympus</text>
<text text-anchor="middle" x="255" y="-164.5" font-family="Helvetica,sans-Serif" font-size="10.00">_identify_variant</text>
</a>
</g>
</g>
<!-- Node1&#45;&gt;Node20 -->
<g id="edge29_Node000001_Node000020" class="edge">
<title>Node1&#45;&gt;Node20</title>
<g id="a_edge29_Node000001_Node000020"><a xlink:title=" ">
<path fill="none" stroke="#63b8ff" d="M146.43,-185.05C154.34,-184.13 162.43,-183.18 170.45,-182.25"/>
<polygon fill="#63b8ff" stroke="#63b8ff" points="170.68,-185.74 180.21,-181.11 169.87,-178.79 170.68,-185.74"/>
</a>
</g>
</g>
<!-- Node3 -->
<g id="Node000003" class="node">
<title>Node3</title>
<g id="a_Node000003"><a xlink:href="exif-content_8c.html#a5d98a5c58c31b49691694b010b29117d" target="_top" xlink:title="Return the ExifEntry in this IFD corresponding to the given tag.">
<polygon fill="white" stroke="#666666" points="497,-444 368,-444 368,-425 497,-425 497,-444"/>
<text text-anchor="middle" x="432.5" y="-432" font-family="Helvetica,sans-Serif" font-size="10.00">exif_content_get_entry</text>
</a>
</g>
</g>
<!-- Node2&#45;&gt;Node3 -->
<g id="edge2_Node000002_Node000003" class="edge">
<title>Node2&#45;&gt;Node3</title>
<g id="a_edge2_Node000002_Node000003"><a xlink:title=" ">
<path fill="none" stroke="#63b8ff" d="M258.67,-225.2C267.8,-256.66 300.83,-356.94 364,-410.5 368.34,-414.18 373.27,-417.3 378.46,-419.96"/>
<polygon fill="#63b8ff" stroke="#63b8ff" points="376.72,-423.02 387.27,-423.9 379.57,-416.63 376.72,-423.02"/>
</a>
</g>
</g>
<!-- Node4 -->
<g id="Node000004" class="node">
<title>Node4</title>
<g id="a_Node000004"><a xlink:href="exif-utils_8c.html#a0c51156312ff6ca97f4d587f776ded8f" target="_top" xlink:title="This function converts rather UCS&#45;2LE than UTF&#45;16 to UTF&#45;8.">
<polygon fill="white" stroke="#666666" points="486.5,-368.5 378.5,-368.5 378.5,-338.5 486.5,-338.5 486.5,-368.5"/>
<text text-anchor="start" x="386.5" y="-356.5" font-family="Helvetica,sans-Serif" font-size="10.00">exif_convert_utf16</text>
<text text-anchor="middle" x="432.5" y="-345.5" font-family="Helvetica,sans-Serif" font-size="10.00">_to_utf8</text>
</a>
</g>
</g>
<!-- Node2&#45;&gt;Node4 -->
<g id="edge3_Node000002_Node000004" class="edge">
<title>Node2&#45;&gt;Node4</title>
<g id="a_edge3_Node000002_Node000004"><a xlink:title=" ">
<path fill="none" stroke="#63b8ff" d="M263.65,-225.49C280.05,-246.34 320.62,-294.96 364,-324.5 368.63,-327.65 373.65,-330.57 378.8,-333.25"/>
<polygon fill="#63b8ff" stroke="#63b8ff" points="376.89,-336.22 387.42,-337.44 379.95,-329.92 376.89,-336.22"/>
</a>
</g>
</g>
<!-- Node5 -->
<g id="Node000005" class="node">
<title>Node5</title>
<g id="a_Node000005"><a xlink:href="exif-utils_8c.html#a4b4acf537a8c6b9405e7b53be868e4d7" target="_top" xlink:title="Retrieve an ExifShort value from memory.">
<polygon fill="white" stroke="#666666" points="639.5,-441 553.5,-441 553.5,-422 639.5,-422 639.5,-441"/>
<text text-anchor="middle" x="596.5" y="-429" font-family="Helvetica,sans-Serif" font-size="10.00">exif_get_short</text>
</a>
</g>
</g>
<!-- Node2&#45;&gt;Node5 -->
<g id="edge24_Node000002_Node000005" class="edge">
<title>Node2&#45;&gt;Node5</title>
<g id="a_edge24_Node000002_Node000005"><a xlink:title=" ">
<path fill="none" stroke="#63b8ff" d="M259.56,-225.4C270.36,-253.96 305.65,-337.07 364,-377.5 378.6,-387.62 478.26,-408.55 541.98,-421.17"/>
<polygon fill="#63b8ff" stroke="#63b8ff" points="541.06,-424.56 551.55,-423.06 542.42,-417.69 541.06,-424.56"/>
</a>
</g>
</g>
<!-- Node7 -->
<g id="Node000007" class="node">
<title>Node7</title>
<g id="a_Node000007"><a xlink:href="exif-data_8c.html#a2d8d50e6a9c19d28fe8192ef7cc52777" target="_top" xlink:title="Return the byte order in use by this EXIF structure.">
<polygon fill="white" stroke="#666666" points="651.5,-403.5 541.5,-403.5 541.5,-373.5 651.5,-373.5 651.5,-403.5"/>
<text text-anchor="start" x="549.5" y="-391.5" font-family="Helvetica,sans-Serif" font-size="10.00">exif_data_get_byte</text>
<text text-anchor="middle" x="596.5" y="-380.5" font-family="Helvetica,sans-Serif" font-size="10.00">_order</text>
</a>
</g>
</g>
<!-- Node2&#45;&gt;Node7 -->
<g id="edge6_Node000002_Node000007" class="edge">
<title>Node2&#45;&gt;Node7</title>
<g id="a_edge6_Node000002_Node000007"><a xlink:title=" ">
<path fill="none" stroke="#63b8ff" d="M267.16,-225.35C285.91,-241.41 325.45,-273.26 364,-291.5 421.12,-318.52 444.05,-302.13 501,-329.5 518.79,-338.05 520.38,-344.86 537,-355.5 543.33,-359.56 550.19,-363.66 556.9,-367.54"/>
<polygon fill="#63b8ff" stroke="#63b8ff" points="554.82,-370.38 565.24,-372.27 558.27,-364.29 554.82,-370.38"/>
</a>
</g>
</g>
<!-- Node8 -->
<g id="Node000008" class="node">
<title>Node8</title>
<g id="a_Node000008"><a xlink:href="exif-entry_8c.html#ae02e9d58318a3cd50eb6730b5e657e5a" target="_top" xlink:title="Format the value of an ExifEntry for human display in a generic way.">
<polygon fill="white" stroke="#666666" points="501,-282 364,-282 364,-263 501,-263 501,-282"/>
<text text-anchor="middle" x="432.5" y="-270" font-family="Helvetica,sans-Serif" font-size="10.00">exif_entry_format_value</text>
</a>
</g>
</g>
<!-- Node2&#45;&gt;Node8 -->
<g id="edge7_Node000002_Node000008" class="edge">
<title>Node2&#45;&gt;Node8</title>
<g id="a_edge7_Node000002_Node000008"><a xlink:title=" ">
<path fill="none" stroke="#63b8ff" d="M286.57,-225.43C315.3,-234.76 358.5,-248.79 390.27,-259.11"/>
<polygon fill="#63b8ff" stroke="#63b8ff" points="388.95,-262.36 399.55,-262.12 391.12,-255.7 388.95,-262.36"/>
</a>
</g>
</g>
<!-- Node9 -->
<g id="Node000009" class="node">
<title>Node9</title>
<g id="a_Node000009"><a xlink:href="exif-format_8c.html#a924038efe0cd8ebade8f44619dd794f3" target="_top" xlink:title="Return the raw size of the given EXIF data type.">
<polygon fill="white" stroke="#666666" points="656,-241 537,-241 537,-222 656,-222 656,-241"/>
<text text-anchor="middle" x="596.5" y="-229" font-family="Helvetica,sans-Serif" font-size="10.00">exif_format_get_size</text>
</a>
</g>
</g>
<!-- Node2&#45;&gt;Node9 -->
<g id="edge22_Node000002_Node000009" class="edge">
<title>Node2&#45;&gt;Node9</title>
<g id="a_edge22_Node000002_Node000009"><a xlink:title=" ">
<path fill="none" stroke="#63b8ff" d="M314.75,-218.27C373.26,-221.03 463.11,-225.26 525.33,-228.19"/>
<polygon fill="#63b8ff" stroke="#63b8ff" points="524.95,-231.68 535.11,-228.65 525.28,-224.69 524.95,-231.68"/>
</a>
</g>
</g>
<!-- Node12 -->
<g id="Node000012" class="node">
<title>Node12</title>
<g id="a_Node000012"><a xlink:href="exif-utils_8c.html#a1feb547c289aa57a4d2119338b03706c" target="_top" xlink:title="Retrieve an ExifRational value from memory.">
<polygon fill="white" stroke="#666666" points="646,-204 547,-204 547,-185 646,-185 646,-204"/>
<text text-anchor="middle" x="596.5" y="-192" font-family="Helvetica,sans-Serif" font-size="10.00">exif_get_rational</text>
</a>
</g>
</g>
<!-- Node2&#45;&gt;Node12 -->
<g id="edge23_Node000002_Node000012" class="edge">
<title>Node2&#45;&gt;Node12</title>
<g id="a_edge23_Node000002_Node000012"><a xlink:title=" ">
<path fill="none" stroke="#63b8ff" d="M314.75,-211.87C376.48,-208.05 473.08,-202.07 535.33,-198.22"/>
<polygon fill="#63b8ff" stroke="#63b8ff" points="535.27,-201.73 545.03,-197.62 534.83,-194.75 535.27,-201.73"/>
</a>
</g>
</g>
<!-- Node13 -->
<g id="Node000013" class="node">
<title>Node13</title>
<g id="a_Node000013"><a xlink:href="exif-utils_8c.html#adb97c3499488d5642a82df1cb16dc2cb" target="_top" xlink:title="Retrieve an ExifSRational value from memory.">
<polygon fill="white" stroke="#666666" points="648.5,-167 544.5,-167 544.5,-148 648.5,-148 648.5,-167"/>
<text text-anchor="middle" x="596.5" y="-155" font-family="Helvetica,sans-Serif" font-size="10.00">exif_get_srational</text>
</a>
</g>
</g>
<!-- Node2&#45;&gt;Node13 -->
<g id="edge25_Node000002_Node000013" class="edge">
<title>Node2&#45;&gt;Node13</title>
<g id="a_edge25_Node000002_Node000013"><a xlink:title=" ">
<path fill="none" stroke="#63b8ff" d="M312.32,-205.51C328.96,-202.58 347.21,-199.39 364,-196.5 421.33,-186.63 486.69,-175.64 533.31,-167.85"/>
<polygon fill="#63b8ff" stroke="#63b8ff" points="533.67,-171.34 542.96,-166.24 532.52,-164.44 533.67,-171.34"/>
</a>
</g>
</g>
<!-- Node14 -->
<g id="Node000014" class="node">
<title>Node14</title>
<g id="a_Node000014"><a xlink:href="exif-entry_8c.html#ac416e8326bd687f5da299d1b15a731bf" target="_top" xlink:title=" ">
<polygon fill="white" stroke="#666666" points="475.5,-130 389.5,-130 389.5,-111 475.5,-111 475.5,-130"/>
<text text-anchor="middle" x="432.5" y="-118" font-family="Helvetica,sans-Serif" font-size="10.00">exif_entry_log</text>
</a>
</g>
</g>
<!-- Node2&#45;&gt;Node14 -->
<g id="edge19_Node000002_Node000014" class="edge">
<title>Node2&#45;&gt;Node14</title>
<g id="a_edge19_Node000002_Node000014"><a xlink:title=" ">
<path fill="none" stroke="#63b8ff" d="M310.55,-205.6C316.74,-203.2 322.71,-200.21 328,-196.5 351.01,-180.36 341.68,-161.59 364,-144.5 368.88,-140.77 374.38,-137.58 380.09,-134.87"/>
<polygon fill="#63b8ff" stroke="#63b8ff" points="381.25,-138.18 389.11,-131.07 378.54,-131.73 381.25,-138.18"/>
</a>
</g>
</g>
<!-- Node17 -->
<g id="Node000017" class="node">
<title>Node17</title>
<g id="a_Node000017"><a xlink:href="exif-mem_8c.html#a68be7c7afc8cff75adc3b1a28b5ae9a2" target="_top" xlink:title=" ">
<polygon fill="white" stroke="#666666" points="480,-93 385,-93 385,-74 480,-74 480,-93"/>
<text text-anchor="middle" x="432.5" y="-81" font-family="Helvetica,sans-Serif" font-size="10.00">exif_mem_alloc</text>
</a>
</g>
</g>
<!-- Node2&#45;&gt;Node17 -->
<g id="edge26_Node000002_Node000017" class="edge">
<title>Node2&#45;&gt;Node17</title>
<g id="a_edge26_Node000002_Node000017"><a xlink:title=" ">
<path fill="none" stroke="#63b8ff" d="M314.01,-205.66C319.1,-203.23 323.87,-200.22 328,-196.5 361.55,-166.28 330.49,-131.76 364,-101.5 367.11,-98.69 370.61,-96.32 374.33,-94.3"/>
<polygon fill="#63b8ff" stroke="#63b8ff" points="375.48,-97.62 383.23,-90.39 372.67,-91.21 375.48,-97.62"/>
</a>
</g>
</g>
<!-- Node18 -->
<g id="Node000018" class="node">
<title>Node18</title>
<g id="a_Node000018"><a xlink:href="exif-mem_8c.html#a43190b81b4b4bdb4ffb89bfb612051b1" target="_top" xlink:title=" ">
<polygon fill="white" stroke="#666666" points="478,-56 387,-56 387,-37 478,-37 478,-56"/>
<text text-anchor="middle" x="432.5" y="-44" font-family="Helvetica,sans-Serif" font-size="10.00">exif_mem_free</text>
</a>
</g>
</g>
<!-- Node2&#45;&gt;Node18 -->
<g id="edge27_Node000002_Node000018" class="edge">
<title>Node2&#45;&gt;Node18</title>
<g id="a_edge27_Node000002_Node000018"><a xlink:title=" ">
<path fill="none" stroke="#63b8ff" d="M314.74,-205.88C319.62,-203.4 324.14,-200.32 328,-196.5 371.18,-153.68 320.88,-107.38 364,-64.5 367.58,-60.94 371.78,-58.06 376.3,-55.74"/>
<polygon fill="#63b8ff" stroke="#63b8ff" points="377.3,-59.11 385.21,-52.06 374.63,-52.64 377.3,-59.11"/>
</a>
</g>
</g>
<!-- Node19 -->
<g id="Node000019" class="node">
<title>Node19</title>
<g id="a_Node000019"><a xlink:href="exif-entry_8c.html#acfe97d1f369d95332b6e796c690093e4" target="_top" xlink:title="Check if a string consists entirely of a single, repeated character.">
<polygon fill="white" stroke="#666666" points="493.5,-19 371.5,-19 371.5,0 493.5,0 493.5,-19"/>
<text text-anchor="middle" x="432.5" y="-7" font-family="Helvetica,sans-Serif" font-size="10.00">match_repeated_char</text>
</a>
</g>
</g>
<!-- Node2&#45;&gt;Node19 -->
<g id="edge28_Node000002_Node000019" class="edge">
<title>Node2&#45;&gt;Node19</title>
<g id="a_edge28_Node000002_Node000019"><a xlink:title=" ">
<path fill="none" stroke="#63b8ff" d="M314.97,-206.11C319.8,-203.58 324.25,-200.43 328,-196.5 380.98,-140.91 311.09,-83.16 364,-27.5 364.48,-26.99 364.98,-26.5 365.49,-26.02"/>
<polygon fill="#63b8ff" stroke="#63b8ff" points="367.39,-28.96 373.39,-20.23 363.25,-23.31 367.39,-28.96"/>
</a>
</g>
</g>
<!-- Node4&#45;&gt;Node5 -->
<g id="edge4_Node000004_Node000005" class="edge">
<title>Node4&#45;&gt;Node5</title>
<g id="a_edge4_Node000004_Node000005"><a xlink:title=" ">
<path fill="none" stroke="#63b8ff" d="M474.79,-368.99C483.68,-372.94 492.85,-377.5 501,-382.5 518.75,-393.39 518.77,-402.43 537,-412.5 540.23,-414.28 543.64,-415.93 547.14,-417.44"/>
<polygon fill="#63b8ff" stroke="#63b8ff" points="545.79,-420.67 556.37,-421.05 548.33,-414.15 545.79,-420.67"/>
</a>
</g>
</g>
<!-- Node6 -->
<g id="Node000006" class="node">
<title>Node6</title>
<g id="a_Node000006"><a xlink:href="exif-utils_8c.html#a6baf094a71392f9cea23ad633ec13c8b" target="_top" xlink:title="Retrieve an ExifSShort value from memory.">
<polygon fill="white" stroke="#666666" points="784,-398 692,-398 692,-379 784,-379 784,-398"/>
<text text-anchor="middle" x="738" y="-386" font-family="Helvetica,sans-Serif" font-size="10.00">exif_get_sshort</text>
</a>
</g>
</g>
<!-- Node5&#45;&gt;Node6 -->
<g id="edge5_Node000005_Node000006" class="edge">
<title>Node5&#45;&gt;Node6</title>
<g id="a_edge5_Node000005_Node000006"><a xlink:title=" ">
<path fill="none" stroke="#63b8ff" d="M629.85,-421.53C648.96,-415.64 673.37,-408.11 694.07,-401.73"/>
<polygon fill="#63b8ff" stroke="#63b8ff" points="694.85,-405.16 703.37,-398.86 692.79,-398.47 694.85,-405.16"/>
</a>
</g>
</g>
<!-- Node8&#45;&gt;Node5 -->
<g id="edge14_Node000008_Node000005" class="edge">
<title>Node8&#45;&gt;Node5</title>
<g id="a_edge14_Node000008_Node000005"><a xlink:title=" ">
<path fill="none" stroke="#63b8ff" d="M448.96,-282.42C463.93,-292.68 486.45,-309.93 501,-329.5 524.99,-361.77 507.25,-385.45 537,-412.5 538.89,-414.22 540.95,-415.79 543.11,-417.21"/>
<polygon fill="#63b8ff" stroke="#63b8ff" points="541.37,-420.25 551.84,-421.88 544.67,-414.08 541.37,-420.25"/>
</a>
</g>
</g>
<!-- Node8&#45;&gt;Node6 -->
<g id="edge18_Node000008_Node000006" class="edge">
<title>Node8&#45;&gt;Node6</title>
<g id="a_edge18_Node000008_Node000006"><a xlink:title=" ">
<path fill="none" stroke="#63b8ff" d="M466.85,-282.4C477.98,-286.21 490.27,-290.99 501,-296.5 518.33,-305.4 519.59,-312.76 537,-321.5 564.61,-335.36 642.72,-360.06 692.75,-375.28"/>
<polygon fill="#63b8ff" stroke="#63b8ff" points="691.56,-378.58 702.14,-378.13 693.59,-371.88 691.56,-378.58"/>
</a>
</g>
</g>
<!-- Node8&#45;&gt;Node7 -->
<g id="edge8_Node000008_Node000007" class="edge">
<title>Node8&#45;&gt;Node7</title>
<g id="a_edge8_Node000008_Node000007"><a xlink:title=" ">
<path fill="none" stroke="#63b8ff" d="M475.93,-282.41C484.86,-285.86 493.75,-290.43 501,-296.5 525.74,-317.19 513.53,-337.38 537,-359.5 539.98,-362.31 543.28,-364.9 546.76,-367.29"/>
<polygon fill="#63b8ff" stroke="#63b8ff" points="544.62,-370.08 554.97,-372.32 548.27,-364.11 544.62,-370.08"/>
</a>
</g>
</g>
<!-- Node8&#45;&gt;Node9 -->
<g id="edge9_Node000008_Node000009" class="edge">
<title>Node8&#45;&gt;Node9</title>
<g id="a_edge9_Node000008_Node000009"><a xlink:title=" ">
<path fill="none" stroke="#63b8ff" d="M472.72,-262.58C494.44,-257.08 521.69,-250.18 545,-244.28"/>
<polygon fill="#63b8ff" stroke="#63b8ff" points="545.78,-247.69 554.62,-241.85 544.06,-240.91 545.78,-247.69"/>
</a>
</g>
</g>
<!-- Node10 -->
<g id="Node000010" class="node">
<title>Node10</title>
<g id="a_Node000010"><a xlink:href="exif-utils_8c.html#a4ad94614630897766dd0a5c9bc2a59bf" target="_top" xlink:title="Retrieve an ExifLong value from memory.">
<polygon fill="white" stroke="#666666" points="779.5,-261 696.5,-261 696.5,-242 779.5,-242 779.5,-261"/>
<text text-anchor="middle" x="738" y="-249" font-family="Helvetica,sans-Serif" font-size="10.00">exif_get_long</text>
</a>
</g>
</g>
<!-- Node8&#45;&gt;Node10 -->
<g id="edge10_Node000008_Node000010" class="edge">
<title>Node8&#45;&gt;Node10</title>
<g id="a_edge10_Node000008_Node000010"><a xlink:title=" ">
<path fill="none" stroke="#63b8ff" d="M501.23,-267.81C556.66,-263.98 633.93,-258.63 684.69,-255.12"/>
<polygon fill="#63b8ff" stroke="#63b8ff" points="684.8,-258.62 694.54,-254.44 684.32,-251.64 684.8,-258.62"/>
</a>
</g>
</g>
<!-- Node11 -->
<g id="Node000011" class="node">
<title>Node11</title>
<g id="a_Node000011"><a xlink:href="exif-utils_8c.html#a56b96f076a13da6ed926e1ef29cb2dc3" target="_top" xlink:title="Retrieve an ExifSLong value from memory.">
<polygon fill="white" stroke="#666666" points="908,-261 820,-261 820,-242 908,-242 908,-261"/>
<text text-anchor="middle" x="864" y="-249" font-family="Helvetica,sans-Serif" font-size="10.00">exif_get_slong</text>
</a>
</g>
</g>
<!-- Node8&#45;&gt;Node11 -->
<g id="edge15_Node000008_Node000011" class="edge">
<title>Node8&#45;&gt;Node11</title>
<g id="a_edge15_Node000008_Node000011"><a xlink:title=" ">
<path fill="none" stroke="#63b8ff" d="M501.38,-277.22C572.25,-280.95 686.45,-283.61 784,-270.5 794.9,-269.04 806.48,-266.7 817.32,-264.16"/>
<polygon fill="#63b8ff" stroke="#63b8ff" points="817.94,-267.62 826.82,-261.83 816.27,-260.82 817.94,-267.62"/>
</a>
</g>
</g>
<!-- Node8&#45;&gt;Node12 -->
<g id="edge12_Node000008_Node000012" class="edge">
<title>Node8&#45;&gt;Node12</title>
<g id="a_edge12_Node000008_Node000012"><a xlink:title=" ">
<path fill="none" stroke="#63b8ff" d="M448.42,-262.69C468.1,-250.07 504.08,-228.05 537,-213.5 541.29,-211.61 545.82,-209.8 550.39,-208.12"/>
<polygon fill="#63b8ff" stroke="#63b8ff" points="551.32,-211.5 559.6,-204.9 549.01,-204.89 551.32,-211.5"/>
</a>
</g>
</g>
<!-- Node8&#45;&gt;Node13 -->
<g id="edge16_Node000008_Node000013" class="edge">
<title>Node8&#45;&gt;Node13</title>
<g id="a_edge16_Node000008_Node000013"><a xlink:title=" ">
<path fill="none" stroke="#63b8ff" d="M441.56,-262.57C457.7,-243.29 496,-200.57 537,-176.5 539.94,-174.77 543.06,-173.18 546.27,-171.71"/>
<polygon fill="#63b8ff" stroke="#63b8ff" points="547.36,-175.05 555.3,-168.04 544.72,-168.57 547.36,-175.05"/>
</a>
</g>
</g>
<!-- Node10&#45;&gt;Node11 -->
<g id="edge11_Node000010_Node000011" class="edge">
<title>Node10&#45;&gt;Node11</title>
<g id="a_edge11_Node000010_Node000011"><a xlink:title=" ">
<path fill="none" stroke="#63b8ff" d="M779.95,-251.5C788.97,-251.5 798.68,-251.5 808.15,-251.5"/>
<polygon fill="#63b8ff" stroke="#63b8ff" points="808.03,-255 818.03,-251.5 808.03,-248 808.03,-255"/>
</a>
</g>
</g>
<!-- Node12&#45;&gt;Node10 -->
<g id="edge13_Node000012_Node000010" class="edge">
<title>Node12&#45;&gt;Node10</title>
<g id="a_edge13_Node000012_Node000010"><a xlink:title=" ">
<path fill="none" stroke="#63b8ff" d="M630.55,-204.44C638.93,-207.18 647.86,-210.28 656,-213.5 673.32,-220.34 692.18,-229.11 707.35,-236.5"/>
<polygon fill="#63b8ff" stroke="#63b8ff" points="705.78,-239.63 716.3,-240.92 708.88,-233.36 705.78,-239.63"/>
</a>
</g>
</g>
<!-- Node13&#45;&gt;Node11 -->
<g id="edge17_Node000013_Node000011" class="edge">
<title>Node13&#45;&gt;Node11</title>
<g id="a_edge17_Node000013_Node000011"><a xlink:title=" ">
<path fill="none" stroke="#63b8ff" d="M628.84,-167.46C637.64,-170.32 647.21,-173.48 656,-176.5 715.61,-196.97 784.3,-222.19 825.65,-237.54"/>
<polygon fill="#63b8ff" stroke="#63b8ff" points="824.29,-240.77 834.89,-240.98 826.73,-234.21 824.29,-240.77"/>
</a>
</g>
</g>
<!-- Node15 -->
<g id="Node000015" class="node">
<title>Node15</title>
<g id="a_Node000015"><a xlink:href="exif-data_8c.html#a9403ed4fde8ef603e9db173eb122efaf" target="_top" xlink:title=" ">
<polygon fill="white" stroke="#666666" points="648.5,-130 544.5,-130 544.5,-111 648.5,-111 648.5,-130"/>
<text text-anchor="middle" x="596.5" y="-118" font-family="Helvetica,sans-Serif" font-size="10.00">exif_data_get_log</text>
</a>
</g>
</g>
<!-- Node14&#45;&gt;Node15 -->
<g id="edge20_Node000014_Node000015" class="edge">
<title>Node14&#45;&gt;Node15</title>
<g id="a_edge20_Node000014_Node000015"><a xlink:title=" ">
<path fill="none" stroke="#63b8ff" d="M475.64,-120.5C493.04,-120.5 513.56,-120.5 532.67,-120.5"/>
<polygon fill="#63b8ff" stroke="#63b8ff" points="532.52,-124 542.52,-120.5 532.52,-117 532.52,-124"/>
</a>
</g>
</g>
<!-- Node16 -->
<g id="Node000016" class="node">
<title>Node16</title>
<g id="a_Node000016"><a xlink:href="exif-log_8c.html#a99101b5ad01b2d82ce9d43c9e8534627" target="_top" xlink:title=" ">
<polygon fill="white" stroke="#666666" points="627.5,-93 565.5,-93 565.5,-74 627.5,-74 627.5,-93"/>
<text text-anchor="middle" x="596.5" y="-81" font-family="Helvetica,sans-Serif" font-size="10.00">exif_logv</text>
</a>
</g>
</g>
<!-- Node14&#45;&gt;Node16 -->
<g id="edge21_Node000014_Node000016" class="edge">
<title>Node14&#45;&gt;Node16</title>
<g id="a_edge21_Node000014_Node000016"><a xlink:title=" ">
<path fill="none" stroke="#63b8ff" d="M475.64,-110.88C499.84,-105.35 530.1,-98.44 554.16,-92.94"/>
<polygon fill="#63b8ff" stroke="#63b8ff" points="554.64,-96.42 563.61,-90.78 553.08,-89.6 554.64,-96.42"/>
</a>
</g>
</g>
</g>
</svg>
