<?xml version="1.0" encoding="UTF-8" standalone="no"?>
<!DOCTYPE svg PUBLIC "-//W3C//DTD SVG 1.1//EN"
 "http://www.w3.org/Graphics/SVG/1.1/DTD/svg11.dtd">
<!-- Generated by graphviz version 7.0.1 (0)
 -->
<!-- Title: libexif/exif&#45;byte&#45;order.c Pages: 1 -->
<svg width="323pt" height="137pt"
 viewBox="0.00 0.00 323.22 137.00" xmlns="http://www.w3.org/2000/svg" xmlns:xlink="http://www.w3.org/1999/xlink">
<g id="graph0" class="graph" transform="scale(1 1) rotate(0) translate(4 133)">
<title>libexif/exif&#45;byte&#45;order.c</title>
<!-- Node1 -->
<g id="Node000001" class="node">
<title>Node1</title>
<g id="a_Node000001"><a xlink:title=" ">
<polygon fill="#999999" stroke="#666666" points="207.22,-129 76.22,-129 76.22,-110 207.22,-110 207.22,-129"/>
<text text-anchor="middle" x="141.72" y="-117" font-family="Helvetica,sans-Serif" font-size="10.00">libexif/exif&#45;byte&#45;order.c</text>
</a>
</g>
</g>
<!-- Node2 -->
<g id="Node000002" class="node">
<title>Node2</title>
<g id="a_Node000002"><a xlink:title=" ">
<polygon fill="#e0e0e0" stroke="#999999" points="122.72,-19 66.72,-19 66.72,0 122.72,0 122.72,-19"/>
<text text-anchor="middle" x="94.72" y="-7" font-family="Helvetica,sans-Serif" font-size="10.00">config.h</text>
</a>
</g>
</g>
<!-- Node1&#45;&gt;Node2 -->
<g id="edge1_Node000001_Node000002" class="edge">
<title>Node1&#45;&gt;Node2</title>
<g id="a_edge1_Node000001_Node000002"><a xlink:title=" ">
<path fill="none" stroke="#63b8ff" d="M76.07,-113.61C49.46,-108.01 21.18,-96.66 4.72,-74 -12.68,-50.06 23.84,-31.86 55.46,-21.21"/>
<polygon fill="#63b8ff" stroke="#63b8ff" points="56.42,-24.57 64.89,-18.21 54.3,-17.9 56.42,-24.57"/>
</a>
</g>
</g>
<!-- Node3 -->
<g id="Node000003" class="node">
<title>Node3</title>
<g id="a_Node000003"><a xlink:href="exif-byte-order_8h.html" target="_top" xlink:title="Defines the ExifByteOrder enum and the associated functions.">
<polygon fill="white" stroke="#666666" points="145.22,-74 14.22,-74 14.22,-55 145.22,-55 145.22,-74"/>
<text text-anchor="middle" x="79.72" y="-62" font-family="Helvetica,sans-Serif" font-size="10.00">libexif/exif&#45;byte&#45;order.h</text>
</a>
</g>
</g>
<!-- Node1&#45;&gt;Node3 -->
<g id="edge2_Node000001_Node000003" class="edge">
<title>Node1&#45;&gt;Node3</title>
<g id="a_edge2_Node000001_Node000003"><a xlink:title=" ">
<path fill="none" stroke="#63b8ff" d="M131.2,-109.51C122.33,-101.93 109.4,-90.88 98.73,-81.75"/>
<polygon fill="#63b8ff" stroke="#63b8ff" points="101.1,-79.18 91.23,-75.34 96.55,-84.5 101.1,-79.18"/>
</a>
</g>
</g>
<!-- Node4 -->
<g id="Node000004" class="node">
<title>Node4</title>
<g id="a_Node000004"><a xlink:href="i18n_8h.html" target="_top" xlink:title=" ">
<polygon fill="white" stroke="#666666" points="243.72,-74 163.72,-74 163.72,-55 243.72,-55 243.72,-74"/>
<text text-anchor="middle" x="203.72" y="-62" font-family="Helvetica,sans-Serif" font-size="10.00">libexif/i18n.h</text>
</a>
</g>
</g>
<!-- Node1&#45;&gt;Node4 -->
<g id="edge3_Node000001_Node000004" class="edge">
<title>Node1&#45;&gt;Node4</title>
<g id="a_edge3_Node000001_Node000004"><a xlink:title=" ">
<path fill="none" stroke="#63b8ff" d="M152.23,-109.51C161.1,-101.93 174.03,-90.88 184.7,-81.75"/>
<polygon fill="#63b8ff" stroke="#63b8ff" points="186.88,-84.5 192.2,-75.34 182.33,-79.18 186.88,-84.5"/>
</a>
</g>
</g>
<!-- Node5 -->
<g id="Node000005" class="node">
<title>Node5</title>
<g id="a_Node000005"><a xlink:title=" ">
<polygon fill="#e0e0e0" stroke="#999999" points="315.22,-74 262.22,-74 262.22,-55 315.22,-55 315.22,-74"/>
<text text-anchor="middle" x="288.72" y="-62" font-family="Helvetica,sans-Serif" font-size="10.00">stdlib.h</text>
</a>
</g>
</g>
<!-- Node1&#45;&gt;Node5 -->
<g id="edge5_Node000001_Node000005" class="edge">
<title>Node1&#45;&gt;Node5</title>
<g id="a_edge5_Node000001_Node000005"><a xlink:title=" ">
<path fill="none" stroke="#63b8ff" d="M166.65,-109.51C190.55,-100.89 226.86,-87.8 253.66,-78.14"/>
<polygon fill="#63b8ff" stroke="#63b8ff" points="254.5,-81.56 262.72,-74.87 252.13,-74.97 254.5,-81.56"/>
</a>
</g>
</g>
<!-- Node4&#45;&gt;Node2 -->
<g id="edge4_Node000004_Node000002" class="edge">
<title>Node4&#45;&gt;Node2</title>
<g id="a_edge4_Node000004_Node000002"><a xlink:title=" ">
<path fill="none" stroke="#63b8ff" d="M185.22,-54.51C168.21,-46.24 142.72,-33.84 123.12,-24.31"/>
<polygon fill="#63b8ff" stroke="#63b8ff" points="124.82,-21.25 114.29,-20.02 121.76,-27.54 124.82,-21.25"/>
</a>
</g>
</g>
</g>
</svg>
