<?xml version="1.0" encoding="UTF-8" standalone="no"?>
<!DOCTYPE svg PUBLIC "-//W3C//DTD SVG 1.1//EN"
 "http://www.w3.org/Graphics/SVG/1.1/DTD/svg11.dtd">
<!-- Generated by graphviz version 7.0.1 (0)
 -->
<!-- Title: get_support_level_any_type Pages: 1 -->
<svg width="464pt" height="64pt"
 viewBox="0.00 0.00 464.00 64.00" xmlns="http://www.w3.org/2000/svg" xmlns:xlink="http://www.w3.org/1999/xlink">
<g id="graph0" class="graph" transform="scale(1 1) rotate(0) translate(4 60)">
<title>get_support_level_any_type</title>
<!-- Node1 -->
<g id="Node000001" class="node">
<title>Node1</title>
<g id="a_Node000001"><a xlink:title="Return the support level of a tag in the given IFD, regardless of the data type.">
<polygon fill="#999999" stroke="#666666" points="154,-37 0,-37 0,-18 154,-18 154,-37"/>
<text text-anchor="middle" x="77" y="-25" font-family="Helvetica,sans-Serif" font-size="10.00">get_support_level_any_type</text>
</a>
</g>
</g>
<!-- Node2 -->
<g id="Node000002" class="node">
<title>Node2</title>
<g id="a_Node000002"><a xlink:href="exif-tag_8c.html#a389f8ff3411e0525b28367892f1e78d3" target="_top" xlink:title="Finds the first entry in the EXIF tag table with the given tag number using a binary search.">
<polygon fill="white" stroke="#666666" points="301,-37 190,-37 190,-18 301,-18 301,-37"/>
<text text-anchor="middle" x="245.5" y="-25" font-family="Helvetica,sans-Serif" font-size="10.00">exif_tag_table_first</text>
</a>
</g>
</g>
<!-- Node1&#45;&gt;Node2 -->
<g id="edge1_Node000001_Node000002" class="edge">
<title>Node1&#45;&gt;Node2</title>
<g id="a_edge1_Node000001_Node000002"><a xlink:title=" ">
<path fill="none" stroke="#63b8ff" d="M154.43,-27.5C162.47,-27.5 170.6,-27.5 178.51,-27.5"/>
<polygon fill="#63b8ff" stroke="#63b8ff" points="178.39,-31 188.39,-27.5 178.39,-24 178.39,-31"/>
</a>
</g>
</g>
<!-- Node3 -->
<g id="Node000003" class="node">
<title>Node3</title>
<g id="a_Node000003"><a xlink:href="exif-tag_8c.html#a87563ee64809f5f0deb4d780098508c1" target="_top" xlink:title="Return the number of entries in the EXIF tag table, including the terminating NULL entry.">
<polygon fill="white" stroke="#666666" points="456,-56 337,-56 337,-37 456,-37 456,-56"/>
<text text-anchor="middle" x="396.5" y="-44" font-family="Helvetica,sans-Serif" font-size="10.00">exif_tag_table_count</text>
</a>
</g>
</g>
<!-- Node2&#45;&gt;Node3 -->
<g id="edge2_Node000002_Node000003" class="edge">
<title>Node2&#45;&gt;Node3</title>
<g id="a_edge2_Node000002_Node000003"><a xlink:title=" ">
<path fill="none" stroke="#63b8ff" d="M301.14,-34.47C308.98,-35.47 317.15,-36.51 325.24,-37.54"/>
<polygon fill="#63b8ff" stroke="#63b8ff" points="324.74,-41.01 335.1,-38.8 325.63,-34.06 324.74,-41.01"/>
</a>
</g>
</g>
<!-- Node4 -->
<g id="Node000004" class="node">
<title>Node4</title>
<g id="a_Node000004"><a xlink:href="exif-tag_8c.html#a220c1b18832f113bc84ff9551754915f" target="_top" xlink:title="Compares the tag with that in entry.">
<polygon fill="white" stroke="#666666" points="430.5,-19 362.5,-19 362.5,0 430.5,0 430.5,-19"/>
<text text-anchor="middle" x="396.5" y="-7" font-family="Helvetica,sans-Serif" font-size="10.00">match_tag</text>
</a>
</g>
</g>
<!-- Node2&#45;&gt;Node4 -->
<g id="edge3_Node000002_Node000004" class="edge">
<title>Node2&#45;&gt;Node4</title>
<g id="a_edge3_Node000002_Node000004"><a xlink:title=" ">
<path fill="none" stroke="#63b8ff" d="M301.14,-20.9C317.58,-18.91 335.41,-16.76 351.1,-14.86"/>
<polygon fill="#63b8ff" stroke="#63b8ff" points="351.09,-18.39 360.6,-13.72 350.25,-11.44 351.09,-18.39"/>
</a>
</g>
</g>
</g>
</svg>
