<?xml version="1.0" encoding="UTF-8" standalone="no"?>
<!DOCTYPE svg PUBLIC "-//W3C//DTD SVG 1.1//EN"
 "http://www.w3.org/Graphics/SVG/1.1/DTD/svg11.dtd">
<!-- Generated by graphviz version 2.44.1 (0)
 -->
<!-- Title: exif_mnote_data_fuji_save Pages: 1 -->
<svg width="439pt" height="180pt"
 viewBox="0.00 0.00 439.00 180.00" xmlns="http://www.w3.org/2000/svg" xmlns:xlink="http://www.w3.org/1999/xlink">
<g id="graph0" class="graph" transform="scale(1 1) rotate(0) translate(4 176)">
<title>exif_mnote_data_fuji_save</title>
<polygon fill="white" stroke="transparent" points="-4,4 -4,-176 435,-176 435,4 -4,4"/>
<!-- Node1 -->
<g id="node1" class="node">
<title>Node1</title>
<g id="a_node1"><a xlink:title=" ">
<polygon fill="#bfbfbf" stroke="black" points="0,-76.5 0,-95.5 149,-95.5 149,-76.5 0,-76.5"/>
<text text-anchor="middle" x="74.5" y="-83.5" font-family="Helvetica,sans-Serif" font-size="10.00">exif_mnote_data_fuji_save</text>
</a>
</g>
</g>
<!-- Node2 -->
<g id="node2" class="node">
<title>Node2</title>
<g id="a_node2"><a xlink:href="exif-format_8c.html#a924038efe0cd8ebade8f44619dd794f3" target="_top" xlink:title="Return the raw size of the given EXIF data type.">
<polygon fill="white" stroke="black" points="185,-152.5 185,-171.5 304,-171.5 304,-152.5 185,-152.5"/>
<text text-anchor="middle" x="244.5" y="-159.5" font-family="Helvetica,sans-Serif" font-size="10.00">exif_format_get_size</text>
</a>
</g>
</g>
<!-- Node1&#45;&gt;Node2 -->
<g id="edge1" class="edge">
<title>Node1&#45;&gt;Node2</title>
<path fill="none" stroke="midnightblue" d="M91.78,-95.57C112.82,-107.67 150.81,-128.66 185,-143 190.17,-145.17 195.68,-147.25 201.17,-149.18"/>
<polygon fill="midnightblue" stroke="midnightblue" points="200.37,-152.6 210.96,-152.49 202.61,-145.97 200.37,-152.6"/>
</g>
<!-- Node3 -->
<g id="node3" class="node">
<title>Node3</title>
<g id="a_node3"><a xlink:href="exif-mem_8c.html#ae8c09cfbcb95e435c4c4b7ec3bbd79e4" target="_top" xlink:title=" ">
<polygon fill="white" stroke="black" points="197,-114.5 197,-133.5 292,-133.5 292,-114.5 197,-114.5"/>
<text text-anchor="middle" x="244.5" y="-121.5" font-family="Helvetica,sans-Serif" font-size="10.00">exif_mem_alloc</text>
</a>
</g>
</g>
<!-- Node1&#45;&gt;Node3 -->
<g id="edge2" class="edge">
<title>Node1&#45;&gt;Node3</title>
<path fill="none" stroke="midnightblue" d="M117.89,-95.59C140.26,-100.65 167.9,-106.9 191.55,-112.25"/>
<polygon fill="midnightblue" stroke="midnightblue" points="190.89,-115.69 201.41,-114.48 192.43,-108.86 190.89,-115.69"/>
</g>
<!-- Node4 -->
<g id="node4" class="node">
<title>Node4</title>
<g id="a_node4"><a xlink:href="exif-mem_8c.html#a3dcfe6794d82e79e92da5e2c62484b17" target="_top" xlink:title=" ">
<polygon fill="white" stroke="black" points="192.5,-76.5 192.5,-95.5 296.5,-95.5 296.5,-76.5 192.5,-76.5"/>
<text text-anchor="middle" x="244.5" y="-83.5" font-family="Helvetica,sans-Serif" font-size="10.00">exif_mem_realloc</text>
</a>
</g>
</g>
<!-- Node1&#45;&gt;Node4 -->
<g id="edge3" class="edge">
<title>Node1&#45;&gt;Node4</title>
<path fill="none" stroke="midnightblue" d="M149.19,-86C160.14,-86 171.34,-86 182.01,-86"/>
<polygon fill="midnightblue" stroke="midnightblue" points="182.06,-89.5 192.06,-86 182.06,-82.5 182.06,-89.5"/>
</g>
<!-- Node5 -->
<g id="node5" class="node">
<title>Node5</title>
<g id="a_node5"><a xlink:href="exif-utils_8c.html#ac90147d0cc97bec7a577bf9576191bf8" target="_top" xlink:title="Store an ExifLong value into memory in EXIF format.">
<polygon fill="white" stroke="black" points="203.5,-38.5 203.5,-57.5 285.5,-57.5 285.5,-38.5 203.5,-38.5"/>
<text text-anchor="middle" x="244.5" y="-45.5" font-family="Helvetica,sans-Serif" font-size="10.00">exif_set_long</text>
</a>
</g>
</g>
<!-- Node1&#45;&gt;Node5 -->
<g id="edge4" class="edge">
<title>Node1&#45;&gt;Node5</title>
<path fill="none" stroke="midnightblue" d="M117.89,-76.41C140.86,-71.22 169.37,-64.77 193.43,-59.33"/>
<polygon fill="midnightblue" stroke="midnightblue" points="194.45,-62.68 203.43,-57.06 192.91,-55.86 194.45,-62.68"/>
</g>
<!-- Node7 -->
<g id="node7" class="node">
<title>Node7</title>
<g id="a_node7"><a xlink:href="exif-utils_8c.html#ad905d16e26b4052a1db34dbebdc37341" target="_top" xlink:title="Store an ExifShort value into memory in EXIF format.">
<polygon fill="white" stroke="black" points="201.5,-0.5 201.5,-19.5 287.5,-19.5 287.5,-0.5 201.5,-0.5"/>
<text text-anchor="middle" x="244.5" y="-7.5" font-family="Helvetica,sans-Serif" font-size="10.00">exif_set_short</text>
</a>
</g>
</g>
<!-- Node1&#45;&gt;Node7 -->
<g id="edge6" class="edge">
<title>Node1&#45;&gt;Node7</title>
<path fill="none" stroke="midnightblue" d="M91.78,-76.43C112.82,-64.33 150.81,-43.34 185,-29 190.17,-26.83 195.68,-24.75 201.17,-22.82"/>
<polygon fill="midnightblue" stroke="midnightblue" points="202.61,-26.03 210.96,-19.51 200.37,-19.4 202.61,-26.03"/>
</g>
<!-- Node6 -->
<g id="node6" class="node">
<title>Node6</title>
<g id="a_node6"><a xlink:href="exif-utils_8c.html#ae6e3b9d1663f9ab9bd462d73a310ca03" target="_top" xlink:title="Store an ExifSLong value into memory in EXIF format.">
<polygon fill="white" stroke="black" points="342,-38.5 342,-57.5 429,-57.5 429,-38.5 342,-38.5"/>
<text text-anchor="middle" x="385.5" y="-45.5" font-family="Helvetica,sans-Serif" font-size="10.00">exif_set_slong</text>
</a>
</g>
</g>
<!-- Node5&#45;&gt;Node6 -->
<g id="edge5" class="edge">
<title>Node5&#45;&gt;Node6</title>
<path fill="none" stroke="midnightblue" d="M285.7,-48C300.04,-48 316.4,-48 331.64,-48"/>
<polygon fill="midnightblue" stroke="midnightblue" points="331.96,-51.5 341.96,-48 331.96,-44.5 331.96,-51.5"/>
</g>
<!-- Node8 -->
<g id="node8" class="node">
<title>Node8</title>
<g id="a_node8"><a xlink:href="exif-utils_8c.html#a6504651147702fc6db9a5cd4aa997023" target="_top" xlink:title="Store an ExifSShort value into memory in EXIF format.">
<polygon fill="white" stroke="black" points="340,-0.5 340,-19.5 431,-19.5 431,-0.5 340,-0.5"/>
<text text-anchor="middle" x="385.5" y="-7.5" font-family="Helvetica,sans-Serif" font-size="10.00">exif_set_sshort</text>
</a>
</g>
</g>
<!-- Node7&#45;&gt;Node8 -->
<g id="edge7" class="edge">
<title>Node7&#45;&gt;Node8</title>
<path fill="none" stroke="midnightblue" d="M287.58,-10C300.83,-10 315.66,-10 329.65,-10"/>
<polygon fill="midnightblue" stroke="midnightblue" points="329.66,-13.5 339.66,-10 329.66,-6.5 329.66,-13.5"/>
</g>
</g>
</svg>
