<?xml version="1.0" encoding="UTF-8" standalone="no"?>
<!DOCTYPE svg PUBLIC "-//W3C//DTD SVG 1.1//EN"
 "http://www.w3.org/Graphics/SVG/1.1/DTD/svg11.dtd">
<!-- Generated by graphviz version 2.44.1 (0)
 -->
<!-- Title: exif_mnote_data_apple_get_value Pages: 1 -->
<svg width="726pt" height="246pt"
 viewBox="0.00 0.00 726.00 246.00" xmlns="http://www.w3.org/2000/svg" xmlns:xlink="http://www.w3.org/1999/xlink">
<g id="graph0" class="graph" transform="scale(1 1) rotate(0) translate(4 242)">
<title>exif_mnote_data_apple_get_value</title>
<polygon fill="white" stroke="transparent" points="-4,4 -4,-242 722,-242 722,4 -4,4"/>
<!-- Node1 -->
<g id="node1" class="node">
<title>Node1</title>
<g id="a_node1"><a xlink:title=" ">
<polygon fill="#bfbfbf" stroke="black" points="0,-99 0,-129 131,-129 131,-99 0,-99"/>
<text text-anchor="start" x="8" y="-117" font-family="Helvetica,sans-Serif" font-size="10.00">exif_mnote_data_apple</text>
<text text-anchor="middle" x="65.5" y="-106" font-family="Helvetica,sans-Serif" font-size="10.00">_get_value</text>
</a>
</g>
</g>
<!-- Node2 -->
<g id="node2" class="node">
<title>Node2</title>
<g id="a_node2"><a xlink:href="mnote-apple-entry_8c.html#a3d93b384e325e0df3ca7616e8ea0a6e1" target="_top" xlink:title=" ">
<polygon fill="white" stroke="black" points="167,-99 167,-129 299,-129 299,-99 167,-99"/>
<text text-anchor="start" x="175" y="-117" font-family="Helvetica,sans-Serif" font-size="10.00">mnote_apple_entry_get</text>
<text text-anchor="middle" x="233" y="-106" font-family="Helvetica,sans-Serif" font-size="10.00">_value</text>
</a>
</g>
</g>
<!-- Node1&#45;&gt;Node2 -->
<g id="edge1" class="edge">
<title>Node1&#45;&gt;Node2</title>
<path fill="none" stroke="midnightblue" d="M131.43,-114C139.74,-114 148.3,-114 156.75,-114"/>
<polygon fill="midnightblue" stroke="midnightblue" points="156.98,-117.5 166.98,-114 156.98,-110.5 156.98,-117.5"/>
</g>
<!-- Node3 -->
<g id="node3" class="node">
<title>Node3</title>
<g id="a_node3"><a xlink:href="exif-format_8c.html#a924038efe0cd8ebade8f44619dd794f3" target="_top" xlink:title="Return the raw size of the given EXIF data type.">
<polygon fill="white" stroke="black" points="335,-218.5 335,-237.5 454,-237.5 454,-218.5 335,-218.5"/>
<text text-anchor="middle" x="394.5" y="-225.5" font-family="Helvetica,sans-Serif" font-size="10.00">exif_format_get_size</text>
</a>
</g>
</g>
<!-- Node2&#45;&gt;Node3 -->
<g id="edge2" class="edge">
<title>Node2&#45;&gt;Node3</title>
<path fill="none" stroke="midnightblue" d="M247.78,-129.12C266.14,-148.55 300.35,-182.34 335,-204 341.34,-207.96 348.44,-211.51 355.45,-214.59"/>
<polygon fill="midnightblue" stroke="midnightblue" points="354.3,-217.9 364.88,-218.49 356.98,-211.43 354.3,-217.9"/>
</g>
<!-- Node4 -->
<g id="node4" class="node">
<title>Node4</title>
<g id="a_node4"><a xlink:href="exif-utils_8c.html#a4ad94614630897766dd0a5c9bc2a59bf" target="_top" xlink:title="Retrieve an ExifLong value from memory.">
<polygon fill="white" stroke="black" points="500.5,-142.5 500.5,-161.5 583.5,-161.5 583.5,-142.5 500.5,-142.5"/>
<text text-anchor="middle" x="542" y="-149.5" font-family="Helvetica,sans-Serif" font-size="10.00">exif_get_long</text>
</a>
</g>
</g>
<!-- Node2&#45;&gt;Node4 -->
<g id="edge3" class="edge">
<title>Node2&#45;&gt;Node4</title>
<path fill="none" stroke="midnightblue" d="M253.54,-129.11C272.97,-143.1 304.23,-162.92 335,-171 390.68,-185.63 457.39,-174.49 499.49,-164.12"/>
<polygon fill="midnightblue" stroke="midnightblue" points="500.57,-167.45 509.38,-161.58 498.83,-160.67 500.57,-167.45"/>
</g>
<!-- Node5 -->
<g id="node5" class="node">
<title>Node5</title>
<g id="a_node5"><a xlink:href="exif-utils_8c.html#a56b96f076a13da6ed926e1ef29cb2dc3" target="_top" xlink:title="Retrieve an ExifSLong value from memory.">
<polygon fill="white" stroke="black" points="630,-104.5 630,-123.5 718,-123.5 718,-104.5 630,-104.5"/>
<text text-anchor="middle" x="674" y="-111.5" font-family="Helvetica,sans-Serif" font-size="10.00">exif_get_slong</text>
</a>
</g>
</g>
<!-- Node2&#45;&gt;Node5 -->
<g id="edge9" class="edge">
<title>Node2&#45;&gt;Node5</title>
<path fill="none" stroke="midnightblue" d="M299.25,-114C386.34,-114 538.94,-114 619.58,-114"/>
<polygon fill="midnightblue" stroke="midnightblue" points="619.99,-117.5 629.99,-114 619.99,-110.5 619.99,-117.5"/>
</g>
<!-- Node6 -->
<g id="node6" class="node">
<title>Node6</title>
<g id="a_node6"><a xlink:href="exif-utils_8c.html#a1feb547c289aa57a4d2119338b03706c" target="_top" xlink:title="Retrieve an ExifRational value from memory.">
<polygon fill="white" stroke="black" points="345,-142.5 345,-161.5 444,-161.5 444,-142.5 345,-142.5"/>
<text text-anchor="middle" x="394.5" y="-149.5" font-family="Helvetica,sans-Serif" font-size="10.00">exif_get_rational</text>
</a>
</g>
</g>
<!-- Node2&#45;&gt;Node6 -->
<g id="edge5" class="edge">
<title>Node2&#45;&gt;Node6</title>
<path fill="none" stroke="midnightblue" d="M297.04,-129.02C312.46,-132.69 328.76,-136.58 343.48,-140.08"/>
<polygon fill="midnightblue" stroke="midnightblue" points="342.85,-143.53 353.39,-142.44 344.47,-136.72 342.85,-143.53"/>
</g>
<!-- Node7 -->
<g id="node7" class="node">
<title>Node7</title>
<g id="a_node7"><a xlink:href="exif-utils_8c.html#a4b4acf537a8c6b9405e7b53be868e4d7" target="_top" xlink:title="Retrieve an ExifShort value from memory.">
<polygon fill="white" stroke="black" points="351.5,-66.5 351.5,-85.5 437.5,-85.5 437.5,-66.5 351.5,-66.5"/>
<text text-anchor="middle" x="394.5" y="-73.5" font-family="Helvetica,sans-Serif" font-size="10.00">exif_get_short</text>
</a>
</g>
</g>
<!-- Node2&#45;&gt;Node7 -->
<g id="edge7" class="edge">
<title>Node2&#45;&gt;Node7</title>
<path fill="none" stroke="midnightblue" d="M297.04,-98.98C312.46,-95.31 328.76,-91.42 343.48,-87.92"/>
<polygon fill="midnightblue" stroke="midnightblue" points="344.47,-91.28 353.39,-85.56 342.85,-84.47 344.47,-91.28"/>
</g>
<!-- Node8 -->
<g id="node8" class="node">
<title>Node8</title>
<g id="a_node8"><a xlink:href="exif-utils_8c.html#a6baf094a71392f9cea23ad633ec13c8b" target="_top" xlink:title="Retrieve an ExifSShort value from memory.">
<polygon fill="white" stroke="black" points="496,-57.5 496,-76.5 588,-76.5 588,-57.5 496,-57.5"/>
<text text-anchor="middle" x="542" y="-64.5" font-family="Helvetica,sans-Serif" font-size="10.00">exif_get_sshort</text>
</a>
</g>
</g>
<!-- Node2&#45;&gt;Node8 -->
<g id="edge12" class="edge">
<title>Node2&#45;&gt;Node8</title>
<path fill="none" stroke="midnightblue" d="M253.54,-98.89C272.97,-84.9 304.23,-65.08 335,-57 385.71,-43.68 445.8,-48.87 487.96,-55.75"/>
<polygon fill="midnightblue" stroke="midnightblue" points="487.56,-59.23 498,-57.48 488.74,-52.33 487.56,-59.23"/>
</g>
<!-- Node9 -->
<g id="node9" class="node">
<title>Node9</title>
<g id="a_node9"><a xlink:href="exif-utils_8c.html#adb97c3499488d5642a82df1cb16dc2cb" target="_top" xlink:title="Retrieve an ExifSRational value from memory.">
<polygon fill="white" stroke="black" points="490,-0.5 490,-19.5 594,-19.5 594,-0.5 490,-0.5"/>
<text text-anchor="middle" x="542" y="-7.5" font-family="Helvetica,sans-Serif" font-size="10.00">exif_get_srational</text>
</a>
</g>
</g>
<!-- Node2&#45;&gt;Node9 -->
<g id="edge10" class="edge">
<title>Node2&#45;&gt;Node9</title>
<path fill="none" stroke="midnightblue" d="M250.85,-98.76C269.85,-82.47 302.37,-57.21 335,-44 381.4,-25.21 437.69,-16.8 479.7,-13.03"/>
<polygon fill="midnightblue" stroke="midnightblue" points="480.11,-16.51 489.79,-12.2 479.53,-9.54 480.11,-16.51"/>
</g>
<!-- Node4&#45;&gt;Node5 -->
<g id="edge4" class="edge">
<title>Node4&#45;&gt;Node5</title>
<path fill="none" stroke="midnightblue" d="M575.8,-142.41C592.28,-137.6 612.44,-131.7 630.13,-126.53"/>
<polygon fill="midnightblue" stroke="midnightblue" points="631.59,-129.75 640.21,-123.59 629.63,-123.03 631.59,-129.75"/>
</g>
<!-- Node6&#45;&gt;Node4 -->
<g id="edge6" class="edge">
<title>Node6&#45;&gt;Node4</title>
<path fill="none" stroke="midnightblue" d="M444.35,-152C459.11,-152 475.34,-152 490.22,-152"/>
<polygon fill="midnightblue" stroke="midnightblue" points="490.27,-155.5 500.27,-152 490.27,-148.5 490.27,-155.5"/>
</g>
<!-- Node7&#45;&gt;Node8 -->
<g id="edge8" class="edge">
<title>Node7&#45;&gt;Node8</title>
<path fill="none" stroke="midnightblue" d="M437.58,-73.4C452.59,-72.47 469.73,-71.41 485.69,-70.42"/>
<polygon fill="midnightblue" stroke="midnightblue" points="486.2,-73.9 495.96,-69.79 485.77,-66.91 486.2,-73.9"/>
</g>
<!-- Node9&#45;&gt;Node5 -->
<g id="edge11" class="edge">
<title>Node9&#45;&gt;Node5</title>
<path fill="none" stroke="midnightblue" d="M556.58,-19.8C566.94,-27.36 581.52,-38.15 594,-48 614.83,-64.44 638.08,-84.02 653.93,-97.56"/>
<polygon fill="midnightblue" stroke="midnightblue" points="652.04,-100.55 661.91,-104.4 656.6,-95.24 652.04,-100.55"/>
</g>
</g>
</svg>
