<?xml version="1.0" encoding="UTF-8" standalone="no"?>
<!DOCTYPE svg PUBLIC "-//W3C//DTD SVG 1.1//EN"
 "http://www.w3.org/Graphics/SVG/1.1/DTD/svg11.dtd">
<!-- Generated by graphviz version 7.0.1 (0)
 -->
<!-- Title: exif_tag_get_support_level_in_ifd Pages: 1 -->
<svg width="619pt" height="64pt"
 viewBox="0.00 0.00 619.00 64.00" xmlns="http://www.w3.org/2000/svg" xmlns:xlink="http://www.w3.org/1999/xlink">
<g id="graph0" class="graph" transform="scale(1 1) rotate(0) translate(4 60)">
<title>exif_tag_get_support_level_in_ifd</title>
<!-- Node1 -->
<g id="Node000001" class="node">
<title>Node1</title>
<g id="a_Node000001"><a xlink:title="Return whether the given tag is mandatory or not in the given IFD and data type according to the EXIF...">
<polygon fill="#999999" stroke="#666666" points="119,-42.5 0,-42.5 0,-12.5 119,-12.5 119,-42.5"/>
<text text-anchor="start" x="8" y="-30.5" font-family="Helvetica,sans-Serif" font-size="10.00">exif_tag_get_support</text>
<text text-anchor="middle" x="59.5" y="-19.5" font-family="Helvetica,sans-Serif" font-size="10.00">_level_in_ifd</text>
</a>
</g>
</g>
<!-- Node2 -->
<g id="Node000002" class="node">
<title>Node2</title>
<g id="a_Node000002"><a xlink:href="exif-tag_8c.html#a92f313f59c9f2fc4bebe2438be038bd9" target="_top" xlink:title="Return the support level of a tag in the given IFD, regardless of the data type.">
<polygon fill="white" stroke="#666666" points="309,-56 155,-56 155,-37 309,-37 309,-56"/>
<text text-anchor="middle" x="232" y="-44" font-family="Helvetica,sans-Serif" font-size="10.00">get_support_level_any_type</text>
</a>
</g>
</g>
<!-- Node1&#45;&gt;Node2 -->
<g id="edge1_Node000001_Node000002" class="edge">
<title>Node1&#45;&gt;Node2</title>
<g id="a_edge1_Node000001_Node000002"><a xlink:title=" ">
<path fill="none" stroke="#63b8ff" d="M119.18,-34.04C127.06,-34.92 135.27,-35.83 143.52,-36.75"/>
<polygon fill="#63b8ff" stroke="#63b8ff" points="142.92,-40.21 153.25,-37.84 143.7,-33.25 142.92,-40.21"/>
</a>
</g>
</g>
<!-- Node6 -->
<g id="Node000006" class="node">
<title>Node6</title>
<g id="a_Node000006"><a xlink:href="exif-tag_8c.html#a1581a40dbcb0f27d4a3f8181b272c55b" target="_top" xlink:title="Return the support level of a tag in the given IFD with the given data type.">
<polygon fill="white" stroke="#666666" points="300,-19 164,-19 164,0 300,0 300,-19"/>
<text text-anchor="middle" x="232" y="-7" font-family="Helvetica,sans-Serif" font-size="10.00">get_support_level_in_ifd</text>
</a>
</g>
</g>
<!-- Node1&#45;&gt;Node6 -->
<g id="edge5_Node000001_Node000006" class="edge">
<title>Node1&#45;&gt;Node6</title>
<g id="a_edge5_Node000001_Node000006"><a xlink:title=" ">
<path fill="none" stroke="#63b8ff" d="M119.18,-21.31C129.94,-20.17 141.33,-18.97 152.57,-17.78"/>
<polygon fill="#63b8ff" stroke="#63b8ff" points="152.64,-21.29 162.21,-16.76 151.9,-14.33 152.64,-21.29"/>
</a>
</g>
</g>
<!-- Node3 -->
<g id="Node000003" class="node">
<title>Node3</title>
<g id="a_Node000003"><a xlink:href="exif-tag_8c.html#a389f8ff3411e0525b28367892f1e78d3" target="_top" xlink:title="Finds the first entry in the EXIF tag table with the given tag number using a binary search.">
<polygon fill="white" stroke="#666666" points="456,-37 345,-37 345,-18 456,-18 456,-37"/>
<text text-anchor="middle" x="400.5" y="-25" font-family="Helvetica,sans-Serif" font-size="10.00">exif_tag_table_first</text>
</a>
</g>
</g>
<!-- Node2&#45;&gt;Node3 -->
<g id="edge2_Node000002_Node000003" class="edge">
<title>Node2&#45;&gt;Node3</title>
<g id="a_edge2_Node000002_Node000003"><a xlink:title=" ">
<path fill="none" stroke="#63b8ff" d="M309.43,-37.78C317.47,-36.86 325.6,-35.93 333.51,-35.03"/>
<polygon fill="#63b8ff" stroke="#63b8ff" points="333.86,-38.51 343.4,-33.9 333.07,-31.56 333.86,-38.51"/>
</a>
</g>
</g>
<!-- Node4 -->
<g id="Node000004" class="node">
<title>Node4</title>
<g id="a_Node000004"><a xlink:href="exif-tag_8c.html#a87563ee64809f5f0deb4d780098508c1" target="_top" xlink:title="Return the number of entries in the EXIF tag table, including the terminating NULL entry.">
<polygon fill="white" stroke="#666666" points="611,-56 492,-56 492,-37 611,-37 611,-56"/>
<text text-anchor="middle" x="551.5" y="-44" font-family="Helvetica,sans-Serif" font-size="10.00">exif_tag_table_count</text>
</a>
</g>
</g>
<!-- Node3&#45;&gt;Node4 -->
<g id="edge3_Node000003_Node000004" class="edge">
<title>Node3&#45;&gt;Node4</title>
<g id="a_edge3_Node000003_Node000004"><a xlink:title=" ">
<path fill="none" stroke="#63b8ff" d="M456.14,-34.47C463.98,-35.47 472.15,-36.51 480.24,-37.54"/>
<polygon fill="#63b8ff" stroke="#63b8ff" points="479.74,-41.01 490.1,-38.8 480.63,-34.06 479.74,-41.01"/>
</a>
</g>
</g>
<!-- Node5 -->
<g id="Node000005" class="node">
<title>Node5</title>
<g id="a_Node000005"><a xlink:href="exif-tag_8c.html#a220c1b18832f113bc84ff9551754915f" target="_top" xlink:title="Compares the tag with that in entry.">
<polygon fill="white" stroke="#666666" points="585.5,-19 517.5,-19 517.5,0 585.5,0 585.5,-19"/>
<text text-anchor="middle" x="551.5" y="-7" font-family="Helvetica,sans-Serif" font-size="10.00">match_tag</text>
</a>
</g>
</g>
<!-- Node3&#45;&gt;Node5 -->
<g id="edge4_Node000003_Node000005" class="edge">
<title>Node3&#45;&gt;Node5</title>
<g id="a_edge4_Node000003_Node000005"><a xlink:title=" ">
<path fill="none" stroke="#63b8ff" d="M456.14,-20.9C472.58,-18.91 490.41,-16.76 506.1,-14.86"/>
<polygon fill="#63b8ff" stroke="#63b8ff" points="506.09,-18.39 515.6,-13.72 505.25,-11.44 506.09,-18.39"/>
</a>
</g>
</g>
<!-- Node6&#45;&gt;Node3 -->
<g id="edge6_Node000006_Node000003" class="edge">
<title>Node6&#45;&gt;Node3</title>
<g id="a_edge6_Node000006_Node000003"><a xlink:title=" ">
<path fill="none" stroke="#63b8ff" d="M300.24,-16.77C311.16,-17.95 322.46,-19.17 333.35,-20.35"/>
<polygon fill="#63b8ff" stroke="#63b8ff" points="332.7,-23.8 343.02,-21.39 333.45,-16.84 332.7,-23.8"/>
</a>
</g>
</g>
</g>
</svg>
