<?xml version="1.0" encoding="UTF-8" standalone="no"?>
<!DOCTYPE svg PUBLIC "-//W3C//DTD SVG 1.1//EN"
 "http://www.w3.org/Graphics/SVG/1.1/DTD/svg11.dtd">
<!-- Generated by graphviz version 7.0.1 (0)
 -->
<!-- Title: exif_mnote_data_canon_load Pages: 1 -->
<svg width="617pt" height="349pt"
 viewBox="0.00 0.00 617.00 349.00" xmlns="http://www.w3.org/2000/svg" xmlns:xlink="http://www.w3.org/1999/xlink">
<g id="graph0" class="graph" transform="scale(1 1) rotate(0) translate(4 345)">
<title>exif_mnote_data_canon_load</title>
<!-- Node1 -->
<g id="Node000001" class="node">
<title>Node1</title>
<g id="a_Node000001"><a xlink:title=" ">
<polygon fill="#999999" stroke="#666666" points="160,-191 0,-191 0,-172 160,-172 160,-191"/>
<text text-anchor="middle" x="80" y="-179" font-family="Helvetica,sans-Serif" font-size="10.00">exif_mnote_data_canon_load</text>
</a>
</g>
</g>
<!-- Node2 -->
<g id="Node000002" class="node">
<title>Node2</title>
<g id="a_Node000002"><a xlink:href="exif-format_8c.html#a924038efe0cd8ebade8f44619dd794f3" target="_top" xlink:title="Return the raw size of the given EXIF data type.">
<polygon fill="white" stroke="#666666" points="334.5,-341 215.5,-341 215.5,-322 334.5,-322 334.5,-341"/>
<text text-anchor="middle" x="275" y="-329" font-family="Helvetica,sans-Serif" font-size="10.00">exif_format_get_size</text>
</a>
</g>
</g>
<!-- Node1&#45;&gt;Node2 -->
<g id="edge1_Node000001_Node000002" class="edge">
<title>Node1&#45;&gt;Node2</title>
<g id="a_edge1_Node000001_Node000002"><a xlink:title=" ">
<path fill="none" stroke="#63b8ff" d="M86.51,-191.31C100.97,-216.08 142.57,-281.44 196,-313.5 198.79,-315.18 201.73,-316.7 204.76,-318.07"/>
<polygon fill="#63b8ff" stroke="#63b8ff" points="203.34,-321.28 213.93,-321.68 205.91,-314.77 203.34,-321.28"/>
</a>
</g>
</g>
<!-- Node3 -->
<g id="Node000003" class="node">
<title>Node3</title>
<g id="a_Node000003"><a xlink:href="exif-utils_8c.html#a4ad94614630897766dd0a5c9bc2a59bf" target="_top" xlink:title="Retrieve an ExifLong value from memory.">
<polygon fill="white" stroke="#666666" points="316.5,-304 233.5,-304 233.5,-285 316.5,-285 316.5,-304"/>
<text text-anchor="middle" x="275" y="-292" font-family="Helvetica,sans-Serif" font-size="10.00">exif_get_long</text>
</a>
</g>
</g>
<!-- Node1&#45;&gt;Node3 -->
<g id="edge2_Node000001_Node000003" class="edge">
<title>Node1&#45;&gt;Node3</title>
<g id="a_edge2_Node000001_Node000003"><a xlink:title=" ">
<path fill="none" stroke="#63b8ff" d="M89.76,-191.3C107.7,-210.73 150.72,-254.14 196,-276.5 204.06,-280.48 213.03,-283.6 221.93,-286.04"/>
<polygon fill="#63b8ff" stroke="#63b8ff" points="221.08,-289.43 231.63,-288.41 222.75,-282.63 221.08,-289.43"/>
</a>
</g>
</g>
<!-- Node5 -->
<g id="Node000005" class="node">
<title>Node5</title>
<g id="a_Node000005"><a xlink:href="exif-utils_8c.html#a4b4acf537a8c6b9405e7b53be868e4d7" target="_top" xlink:title="Retrieve an ExifShort value from memory.">
<polygon fill="white" stroke="#666666" points="478.5,-188 392.5,-188 392.5,-169 478.5,-169 478.5,-188"/>
<text text-anchor="middle" x="435.5" y="-176" font-family="Helvetica,sans-Serif" font-size="10.00">exif_get_short</text>
</a>
</g>
</g>
<!-- Node1&#45;&gt;Node5 -->
<g id="edge4_Node000001_Node000005" class="edge">
<title>Node1&#45;&gt;Node5</title>
<g id="a_edge4_Node000001_Node000005"><a xlink:title=" ">
<path fill="none" stroke="#63b8ff" d="M130.31,-191.47C150.57,-195.09 174.32,-198.72 196,-200.5 265.99,-206.24 284.4,-209.84 354,-200.5 367.44,-198.7 381.81,-195.27 394.64,-191.65"/>
<polygon fill="#63b8ff" stroke="#63b8ff" points="395.4,-195.08 404,-188.89 393.41,-188.36 395.4,-195.08"/>
</a>
</g>
</g>
<!-- Node7 -->
<g id="Node000007" class="node">
<title>Node7</title>
<g id="a_Node000007"><a xlink:href="exif-log_8c.html#a025d4a5d96544913ea6f6ebbec69cb68" target="_top" xlink:title=" ">
<polygon fill="white" stroke="#666666" points="303,-267 247,-267 247,-248 303,-248 303,-267"/>
<text text-anchor="middle" x="275" y="-255" font-family="Helvetica,sans-Serif" font-size="10.00">exif_log</text>
</a>
</g>
</g>
<!-- Node1&#45;&gt;Node7 -->
<g id="edge6_Node000001_Node000007" class="edge">
<title>Node1&#45;&gt;Node7</title>
<g id="a_edge6_Node000001_Node000007"><a xlink:title=" ">
<path fill="none" stroke="#63b8ff" d="M101.03,-191.49C123.72,-202.59 161.98,-220.63 196,-233.5 208.81,-238.35 223.07,-242.95 235.86,-246.81"/>
<polygon fill="#63b8ff" stroke="#63b8ff" points="234.61,-250.09 245.19,-249.57 236.59,-243.38 234.61,-250.09"/>
</a>
</g>
</g>
<!-- Node9 -->
<g id="Node000009" class="node">
<title>Node9</title>
<g id="a_Node000009"><a xlink:href="exif-mem_8c.html#a68be7c7afc8cff75adc3b1a28b5ae9a2" target="_top" xlink:title=" ">
<polygon fill="white" stroke="#666666" points="322.5,-191 227.5,-191 227.5,-172 322.5,-172 322.5,-191"/>
<text text-anchor="middle" x="275" y="-179" font-family="Helvetica,sans-Serif" font-size="10.00">exif_mem_alloc</text>
</a>
</g>
</g>
<!-- Node1&#45;&gt;Node9 -->
<g id="edge8_Node000001_Node000009" class="edge">
<title>Node1&#45;&gt;Node9</title>
<g id="a_edge8_Node000001_Node000009"><a xlink:title=" ">
<path fill="none" stroke="#63b8ff" d="M160.34,-181.5C178.93,-181.5 198.4,-181.5 215.87,-181.5"/>
<polygon fill="#63b8ff" stroke="#63b8ff" points="215.51,-185 225.51,-181.5 215.51,-178 215.51,-185"/>
</a>
</g>
</g>
<!-- Node10 -->
<g id="Node000010" class="node">
<title>Node10</title>
<g id="a_Node000010"><a xlink:href="exif-mem_8c.html#a43190b81b4b4bdb4ffb89bfb612051b1" target="_top" xlink:title=" ">
<polygon fill="white" stroke="#666666" points="481,-84 390,-84 390,-65 481,-65 481,-84"/>
<text text-anchor="middle" x="435.5" y="-72" font-family="Helvetica,sans-Serif" font-size="10.00">exif_mem_free</text>
</a>
</g>
</g>
<!-- Node1&#45;&gt;Node10 -->
<g id="edge9_Node000001_Node000010" class="edge">
<title>Node1&#45;&gt;Node10</title>
<g id="a_edge9_Node000001_Node000010"><a xlink:title=" ">
<path fill="none" stroke="#63b8ff" d="M94.36,-171.53C115.01,-156.63 156.45,-128.8 196,-114.5 256.13,-92.76 329.12,-82.73 378.39,-78.17"/>
<polygon fill="#63b8ff" stroke="#63b8ff" points="378.6,-81.67 388.26,-77.31 377.99,-74.7 378.6,-81.67"/>
</a>
</g>
</g>
<!-- Node11 -->
<g id="Node000011" class="node">
<title>Node11</title>
<g id="a_Node000011"><a xlink:href="exif-mnote-data-canon_8c.html#a9d89c4c6d3b77e8b33e0711b346d0613" target="_top" xlink:title=" ">
<polygon fill="white" stroke="#666666" points="342,-67.5 208,-67.5 208,-37.5 342,-37.5 342,-67.5"/>
<text text-anchor="start" x="216" y="-55.5" font-family="Helvetica,sans-Serif" font-size="10.00">exif_mnote_data_canon</text>
<text text-anchor="middle" x="275" y="-44.5" font-family="Helvetica,sans-Serif" font-size="10.00">_clear</text>
</a>
</g>
</g>
<!-- Node1&#45;&gt;Node11 -->
<g id="edge10_Node000001_Node000011" class="edge">
<title>Node1&#45;&gt;Node11</title>
<g id="a_edge10_Node000001_Node000011"><a xlink:title=" ">
<path fill="none" stroke="#63b8ff" d="M89.92,-171.66C108.13,-152.08 151.64,-107.84 196,-81.5 201.65,-78.14 207.75,-75.07 213.97,-72.27"/>
<polygon fill="#63b8ff" stroke="#63b8ff" points="215.24,-75.54 223.09,-68.43 212.52,-69.09 215.24,-75.54"/>
</a>
</g>
</g>
<!-- Node12 -->
<g id="Node000012" class="node">
<title>Node12</title>
<g id="a_Node000012"><a xlink:href="mnote-canon-entry_8c.html#a9d343f3faec828b2467bacbab0919f47" target="_top" xlink:title=" ">
<polygon fill="white" stroke="#666666" points="348,-153.5 202,-153.5 202,-123.5 348,-123.5 348,-153.5"/>
<text text-anchor="start" x="210" y="-141.5" font-family="Helvetica,sans-Serif" font-size="10.00">mnote_canon_entry_count</text>
<text text-anchor="middle" x="275" y="-130.5" font-family="Helvetica,sans-Serif" font-size="10.00">_values</text>
</a>
</g>
</g>
<!-- Node1&#45;&gt;Node12 -->
<g id="edge12_Node000001_Node000012" class="edge">
<title>Node1&#45;&gt;Node12</title>
<g id="a_edge12_Node000001_Node000012"><a xlink:title=" ">
<path fill="none" stroke="#63b8ff" d="M125.76,-171.53C145.86,-167.05 170.21,-161.63 193.31,-156.48"/>
<polygon fill="#63b8ff" stroke="#63b8ff" points="194.05,-159.9 203.05,-154.31 192.53,-153.07 194.05,-159.9"/>
</a>
</g>
</g>
<!-- Node13 -->
<g id="Node000013" class="node">
<title>Node13</title>
<g id="a_Node000013"><a xlink:href="mnote-canon-tag_8c.html#a49c2f8e609736433b79560ef0ac0fd6c" target="_top" xlink:title=" ">
<polygon fill="white" stroke="#666666" points="354,-19 196,-19 196,0 354,0 354,-19"/>
<text text-anchor="middle" x="275" y="-7" font-family="Helvetica,sans-Serif" font-size="10.00">mnote_canon_tag_get_name</text>
</a>
</g>
</g>
<!-- Node1&#45;&gt;Node13 -->
<g id="edge14_Node000001_Node000013" class="edge">
<title>Node1&#45;&gt;Node13</title>
<g id="a_edge14_Node000001_Node000013"><a xlink:title=" ">
<path fill="none" stroke="#63b8ff" d="M85.34,-171.79C98.06,-144.51 138.01,-66.71 196,-28.5 198.53,-26.83 201.2,-25.31 203.95,-23.92"/>
<polygon fill="#63b8ff" stroke="#63b8ff" points="205.09,-27.24 212.87,-20.06 202.31,-20.82 205.09,-27.24"/>
</a>
</g>
</g>
<!-- Node4 -->
<g id="Node000004" class="node">
<title>Node4</title>
<g id="a_Node000004"><a xlink:href="exif-utils_8c.html#a56b96f076a13da6ed926e1ef29cb2dc3" target="_top" xlink:title="Retrieve an ExifSLong value from memory.">
<polygon fill="white" stroke="#666666" points="479.5,-304 391.5,-304 391.5,-285 479.5,-285 479.5,-304"/>
<text text-anchor="middle" x="435.5" y="-292" font-family="Helvetica,sans-Serif" font-size="10.00">exif_get_slong</text>
</a>
</g>
</g>
<!-- Node3&#45;&gt;Node4 -->
<g id="edge3_Node000003_Node000004" class="edge">
<title>Node3&#45;&gt;Node4</title>
<g id="a_edge3_Node000003_Node000004"><a xlink:title=" ">
<path fill="none" stroke="#63b8ff" d="M316.82,-294.5C335.92,-294.5 358.96,-294.5 379.56,-294.5"/>
<polygon fill="#63b8ff" stroke="#63b8ff" points="379.53,-298 389.53,-294.5 379.53,-291 379.53,-298"/>
</a>
</g>
</g>
<!-- Node6 -->
<g id="Node000006" class="node">
<title>Node6</title>
<g id="a_Node000006"><a xlink:href="exif-utils_8c.html#a6baf094a71392f9cea23ad633ec13c8b" target="_top" xlink:title="Retrieve an ExifSShort value from memory.">
<polygon fill="white" stroke="#666666" points="609,-188 517,-188 517,-169 609,-169 609,-188"/>
<text text-anchor="middle" x="563" y="-176" font-family="Helvetica,sans-Serif" font-size="10.00">exif_get_sshort</text>
</a>
</g>
</g>
<!-- Node5&#45;&gt;Node6 -->
<g id="edge5_Node000005_Node000006" class="edge">
<title>Node5&#45;&gt;Node6</title>
<g id="a_edge5_Node000005_Node000006"><a xlink:title=" ">
<path fill="none" stroke="#63b8ff" d="M478.99,-178.5C487.39,-178.5 496.34,-178.5 505.14,-178.5"/>
<polygon fill="#63b8ff" stroke="#63b8ff" points="505.03,-182 515.03,-178.5 505.03,-175 505.03,-182"/>
</a>
</g>
</g>
<!-- Node8 -->
<g id="Node000008" class="node">
<title>Node8</title>
<g id="a_Node000008"><a xlink:href="exif-log_8c.html#a99101b5ad01b2d82ce9d43c9e8534627" target="_top" xlink:title=" ">
<polygon fill="white" stroke="#666666" points="466.5,-267 404.5,-267 404.5,-248 466.5,-248 466.5,-267"/>
<text text-anchor="middle" x="435.5" y="-255" font-family="Helvetica,sans-Serif" font-size="10.00">exif_logv</text>
</a>
</g>
</g>
<!-- Node7&#45;&gt;Node8 -->
<g id="edge7_Node000007_Node000008" class="edge">
<title>Node7&#45;&gt;Node8</title>
<g id="a_edge7_Node000007_Node000008"><a xlink:title=" ">
<path fill="none" stroke="#63b8ff" d="M303.25,-257.5C327.91,-257.5 364.6,-257.5 392.92,-257.5"/>
<polygon fill="#63b8ff" stroke="#63b8ff" points="392.58,-261 402.58,-257.5 392.58,-254 392.58,-261"/>
</a>
</g>
</g>
<!-- Node11&#45;&gt;Node10 -->
<g id="edge11_Node000011_Node000010" class="edge">
<title>Node11&#45;&gt;Node10</title>
<g id="a_edge11_Node000011_Node000010"><a xlink:title=" ">
<path fill="none" stroke="#63b8ff" d="M342.3,-61.7C354.26,-63.36 366.63,-65.08 378.27,-66.69"/>
<polygon fill="#63b8ff" stroke="#63b8ff" points="377.74,-70.15 388.12,-68.06 378.7,-63.22 377.74,-70.15"/>
</a>
</g>
</g>
<!-- Node12&#45;&gt;Node5 -->
<g id="edge13_Node000012_Node000005" class="edge">
<title>Node12&#45;&gt;Node5</title>
<g id="a_edge13_Node000012_Node000005"><a xlink:title=" ">
<path fill="none" stroke="#63b8ff" d="M337.28,-153.97C352.69,-157.85 369.06,-161.98 383.88,-165.73"/>
<polygon fill="#63b8ff" stroke="#63b8ff" points="382.86,-169.08 393.41,-168.13 384.57,-162.29 382.86,-169.08"/>
</a>
</g>
</g>
</g>
</svg>
