<?xml version="1.0" encoding="UTF-8" standalone="no"?>
<!DOCTYPE svg PUBLIC "-//W3C//DTD SVG 1.1//EN"
 "http://www.w3.org/Graphics/SVG/1.1/DTD/svg11.dtd">
<!-- Generated by graphviz version 7.0.1 (0)
 -->
<!-- Title: libexif/exif&#45;content.c Pages: 1 -->
<svg width="658pt" height="423pt"
 viewBox="0.00 0.00 657.50 423.00" xmlns="http://www.w3.org/2000/svg" xmlns:xlink="http://www.w3.org/1999/xlink">
<g id="graph0" class="graph" transform="scale(1 1) rotate(0) translate(4 419)">
<title>libexif/exif&#45;content.c</title>
<!-- Node1 -->
<g id="Node000001" class="node">
<title>Node1</title>
<g id="a_Node000001"><a xlink:title=" ">
<polygon fill="#999999" stroke="#666666" points="489,-415 373,-415 373,-396 489,-396 489,-415"/>
<text text-anchor="middle" x="431" y="-403" font-family="Helvetica,sans-Serif" font-size="10.00">libexif/exif&#45;content.c</text>
</a>
</g>
</g>
<!-- Node2 -->
<g id="Node000002" class="node">
<title>Node2</title>
<g id="a_Node000002"><a xlink:title=" ">
<polygon fill="#e0e0e0" stroke="#999999" points="168,-360 112,-360 112,-341 168,-341 168,-360"/>
<text text-anchor="middle" x="140" y="-348" font-family="Helvetica,sans-Serif" font-size="10.00">config.h</text>
</a>
</g>
</g>
<!-- Node1&#45;&gt;Node2 -->
<g id="edge1_Node000001_Node000002" class="edge">
<title>Node1&#45;&gt;Node2</title>
<g id="a_edge1_Node000001_Node000002"><a xlink:title=" ">
<path fill="none" stroke="#63b8ff" d="M374.85,-395.53C325.79,-387.5 252.39,-375.01 179.47,-360.41"/>
<polygon fill="#63b8ff" stroke="#63b8ff" points="180.23,-357 169.73,-358.45 178.84,-363.86 180.23,-357"/>
</a>
</g>
</g>
<!-- Node3 -->
<g id="Node000003" class="node">
<title>Node3</title>
<g id="a_Node000003"><a xlink:href="exif-content_8h.html" target="_top" xlink:title="Handling EXIF IFDs.">
<polygon fill="white" stroke="#666666" points="303.5,-360 186.5,-360 186.5,-341 303.5,-341 303.5,-360"/>
<text text-anchor="middle" x="245" y="-348" font-family="Helvetica,sans-Serif" font-size="10.00">libexif/exif&#45;content.h</text>
</a>
</g>
</g>
<!-- Node1&#45;&gt;Node3 -->
<g id="edge2_Node000001_Node000003" class="edge">
<title>Node1&#45;&gt;Node3</title>
<g id="a_edge2_Node000001_Node000003"><a xlink:title=" ">
<path fill="none" stroke="#63b8ff" d="M399.45,-395.51C368.63,-386.73 321.5,-373.3 287.41,-363.59"/>
<polygon fill="#63b8ff" stroke="#63b8ff" points="288.43,-360.24 277.85,-360.86 286.51,-366.97 288.43,-360.24"/>
</a>
</g>
</g>
<!-- Node17 -->
<g id="Node000017" class="node">
<title>Node17</title>
<g id="a_Node000017"><a xlink:href="exif-system_8h.html" target="_top" xlink:title="System specific definitions, not for installation!">
<polygon fill="white" stroke="#666666" points="438,-360 322,-360 322,-341 438,-341 438,-360"/>
<text text-anchor="middle" x="380" y="-348" font-family="Helvetica,sans-Serif" font-size="10.00">libexif/exif&#45;system.h</text>
</a>
</g>
</g>
<!-- Node1&#45;&gt;Node17 -->
<g id="edge28_Node000001_Node000017" class="edge">
<title>Node1&#45;&gt;Node17</title>
<g id="a_edge28_Node000001_Node000017"><a xlink:title=" ">
<path fill="none" stroke="#63b8ff" d="M422.58,-395.75C415.53,-388.43 405.27,-377.76 396.59,-368.74"/>
<polygon fill="#63b8ff" stroke="#63b8ff" points="399.11,-366.31 389.65,-361.53 394.07,-371.17 399.11,-366.31"/>
</a>
</g>
</g>
<!-- Node18 -->
<g id="Node000018" class="node">
<title>Node18</title>
<g id="a_Node000018"><a xlink:title=" ">
<polygon fill="#e0e0e0" stroke="#999999" points="509.5,-360 456.5,-360 456.5,-341 509.5,-341 509.5,-360"/>
<text text-anchor="middle" x="483" y="-348" font-family="Helvetica,sans-Serif" font-size="10.00">stdlib.h</text>
</a>
</g>
</g>
<!-- Node1&#45;&gt;Node18 -->
<g id="edge29_Node000001_Node000018" class="edge">
<title>Node1&#45;&gt;Node18</title>
<g id="a_edge29_Node000001_Node000018"><a xlink:title=" ">
<path fill="none" stroke="#63b8ff" d="M439.59,-395.75C446.84,-388.35 457.45,-377.54 466.37,-368.45"/>
<polygon fill="#63b8ff" stroke="#63b8ff" points="468.66,-371.11 473.17,-361.52 463.66,-366.21 468.66,-371.11"/>
</a>
</g>
</g>
<!-- Node19 -->
<g id="Node000019" class="node">
<title>Node19</title>
<g id="a_Node000019"><a xlink:title=" ">
<polygon fill="#e0e0e0" stroke="#999999" points="578,-360 528,-360 528,-341 578,-341 578,-360"/>
<text text-anchor="middle" x="553" y="-348" font-family="Helvetica,sans-Serif" font-size="10.00">stdio.h</text>
</a>
</g>
</g>
<!-- Node1&#45;&gt;Node19 -->
<g id="edge30_Node000001_Node000019" class="edge">
<title>Node1&#45;&gt;Node19</title>
<g id="a_edge30_Node000001_Node000019"><a xlink:title=" ">
<path fill="none" stroke="#63b8ff" d="M451.7,-395.51C471,-387.12 500.06,-374.5 522.11,-364.92"/>
<polygon fill="#63b8ff" stroke="#63b8ff" points="523.44,-368.16 531.22,-360.96 520.66,-361.74 523.44,-368.16"/>
</a>
</g>
</g>
<!-- Node20 -->
<g id="Node000020" class="node">
<title>Node20</title>
<g id="a_Node000020"><a xlink:title=" ">
<polygon fill="#e0e0e0" stroke="#999999" points="649.5,-360 596.5,-360 596.5,-341 649.5,-341 649.5,-360"/>
<text text-anchor="middle" x="623" y="-348" font-family="Helvetica,sans-Serif" font-size="10.00">string.h</text>
</a>
</g>
</g>
<!-- Node1&#45;&gt;Node20 -->
<g id="edge31_Node000001_Node000020" class="edge">
<title>Node1&#45;&gt;Node20</title>
<g id="a_edge31_Node000001_Node000020"><a xlink:title=" ">
<path fill="none" stroke="#63b8ff" d="M463.57,-395.51C497.26,-386.21 549.82,-371.7 585.3,-361.91"/>
<polygon fill="#63b8ff" stroke="#63b8ff" points="586,-365.34 594.71,-359.31 584.14,-358.6 586,-365.34"/>
</a>
</g>
</g>
<!-- Node4 -->
<g id="Node000004" class="node">
<title>Node4</title>
<g id="a_Node000004"><a xlink:href="exif-tag_8h.html" target="_top" xlink:title="Handling EXIF tags.">
<polygon fill="white" stroke="#666666" points="293,-244.5 197,-244.5 197,-225.5 293,-225.5 293,-244.5"/>
<text text-anchor="middle" x="245" y="-232.5" font-family="Helvetica,sans-Serif" font-size="10.00">libexif/exif&#45;tag.h</text>
</a>
</g>
</g>
<!-- Node3&#45;&gt;Node4 -->
<g id="edge3_Node000003_Node000004" class="edge">
<title>Node3&#45;&gt;Node4</title>
<g id="a_edge3_Node000003_Node000004"><a xlink:title=" ">
<path fill="none" stroke="#63b8ff" d="M245,-340.59C245,-322.53 245,-281.17 245,-256.21"/>
<polygon fill="#63b8ff" stroke="#63b8ff" points="248.5,-256.38 245,-246.38 241.5,-256.38 248.5,-256.38"/>
</a>
</g>
</g>
<!-- Node7 -->
<g id="Node000007" class="node">
<title>Node7</title>
<g id="a_Node000007"><a xlink:href="exif-entry_8h.html" target="_top" xlink:title="Handling EXIF entries.">
<polygon fill="white" stroke="#666666" points="104,-305 0,-305 0,-286 104,-286 104,-305"/>
<text text-anchor="middle" x="52" y="-293" font-family="Helvetica,sans-Serif" font-size="10.00">libexif/exif&#45;entry.h</text>
</a>
</g>
</g>
<!-- Node3&#45;&gt;Node7 -->
<g id="edge6_Node000003_Node000007" class="edge">
<title>Node3&#45;&gt;Node7</title>
<g id="a_edge6_Node000003_Node000007"><a xlink:title=" ">
<path fill="none" stroke="#63b8ff" d="M207.04,-340.51C173.22,-331.73 124.14,-318.3 90.24,-308.59"/>
<polygon fill="#63b8ff" stroke="#63b8ff" points="91.4,-305.28 80.82,-305.87 89.46,-312 91.4,-305.28"/>
</a>
</g>
</g>
<!-- Node9 -->
<g id="Node000009" class="node">
<title>Node9</title>
<g id="a_Node000009"><a xlink:href="exif-mem_8h.html" target="_top" xlink:title="Define the ExifMem data type and the associated functions.">
<polygon fill="white" stroke="#666666" points="325,-129 219,-129 219,-110 325,-110 325,-129"/>
<text text-anchor="middle" x="272" y="-117" font-family="Helvetica,sans-Serif" font-size="10.00">libexif/exif&#45;mem.h</text>
</a>
</g>
</g>
<!-- Node3&#45;&gt;Node9 -->
<g id="edge27_Node000003_Node000009" class="edge">
<title>Node3&#45;&gt;Node9</title>
<g id="a_edge27_Node000003_Node000009"><a xlink:title=" ">
<path fill="none" stroke="#63b8ff" d="M233.38,-340.59C198.97,-313.13 102.68,-227.83 147,-165 160.98,-145.18 184.6,-134.14 207.57,-128.01"/>
<polygon fill="#63b8ff" stroke="#63b8ff" points="208.34,-131.42 217.27,-125.72 206.74,-124.61 208.34,-131.42"/>
</a>
</g>
</g>
<!-- Node13 -->
<g id="Node000013" class="node">
<title>Node13</title>
<g id="a_Node000013"><a xlink:href="exif-data_8h.html" target="_top" xlink:title="Defines the ExifData type and the associated functions.">
<polygon fill="white" stroke="#666666" points="410,-305 308,-305 308,-286 410,-286 410,-305"/>
<text text-anchor="middle" x="359" y="-293" font-family="Helvetica,sans-Serif" font-size="10.00">libexif/exif&#45;data.h</text>
</a>
</g>
</g>
<!-- Node3&#45;&gt;Node13 -->
<g id="edge14_Node000003_Node000013" class="edge">
<title>Node3&#45;&gt;Node13</title>
<g id="a_edge14_Node000003_Node000013"><a xlink:title=" ">
<path fill="none" stroke="#63b8ff" d="M259.12,-340.51C275.48,-332.08 302.56,-319.38 324.48,-309.79"/>
<polygon fill="#63b8ff" stroke="#63b8ff" points="325.57,-313.13 333.37,-305.96 322.8,-306.7 325.57,-313.13"/>
</a>
</g>
</g>
<!-- Node14 -->
<g id="Node000014" class="node">
<title>Node14</title>
<g id="a_Node000014"><a xlink:href="exif-log_8h.html" target="_top" xlink:title="Log message infrastructure.">
<polygon fill="white" stroke="#666666" points="629.5,-184 534.5,-184 534.5,-165 629.5,-165 629.5,-184"/>
<text text-anchor="middle" x="582" y="-172" font-family="Helvetica,sans-Serif" font-size="10.00">libexif/exif&#45;log.h</text>
</a>
</g>
</g>
<!-- Node3&#45;&gt;Node14 -->
<g id="edge26_Node000003_Node000014" class="edge">
<title>Node3&#45;&gt;Node14</title>
<g id="a_edge26_Node000003_Node000014"><a xlink:title=" ">
<path fill="none" stroke="#63b8ff" d="M290.79,-340.57C386.14,-321.51 598.84,-276.45 619,-250 632.74,-231.97 615.73,-208.05 600.5,-192.24"/>
<polygon fill="#63b8ff" stroke="#63b8ff" points="603.13,-189.9 593.52,-185.43 598.24,-194.92 603.13,-189.9"/>
</a>
</g>
</g>
<!-- Node5 -->
<g id="Node000005" class="node">
<title>Node5</title>
<g id="a_Node000005"><a xlink:href="exif-ifd_8h.html" target="_top" xlink:title=" ">
<polygon fill="white" stroke="#666666" points="249.5,-184 156.5,-184 156.5,-165 249.5,-165 249.5,-184"/>
<text text-anchor="middle" x="203" y="-172" font-family="Helvetica,sans-Serif" font-size="10.00">libexif/exif&#45;ifd.h</text>
</a>
</g>
</g>
<!-- Node4&#45;&gt;Node5 -->
<g id="edge4_Node000004_Node000005" class="edge">
<title>Node4&#45;&gt;Node5</title>
<g id="a_edge4_Node000004_Node000005"><a xlink:title=" ">
<path fill="none" stroke="#63b8ff" d="M238.8,-225.37C232.79,-216.99 223.47,-204.01 215.85,-193.39"/>
<polygon fill="#63b8ff" stroke="#63b8ff" points="218.78,-191.48 210.11,-185.4 213.09,-195.56 218.78,-191.48"/>
</a>
</g>
</g>
<!-- Node6 -->
<g id="Node000006" class="node">
<title>Node6</title>
<g id="a_Node000006"><a xlink:href="exif-data-type_8h.html" target="_top" xlink:title=" ">
<polygon fill="white" stroke="#666666" points="396,-184 268,-184 268,-165 396,-165 396,-184"/>
<text text-anchor="middle" x="332" y="-172" font-family="Helvetica,sans-Serif" font-size="10.00">libexif/exif&#45;data&#45;type.h</text>
</a>
</g>
</g>
<!-- Node4&#45;&gt;Node6 -->
<g id="edge5_Node000004_Node000006" class="edge">
<title>Node4&#45;&gt;Node6</title>
<g id="a_edge5_Node000004_Node000006"><a xlink:title=" ">
<path fill="none" stroke="#63b8ff" d="M258.21,-225.12C271.75,-216.01 293.07,-201.68 309.32,-190.75"/>
<polygon fill="#63b8ff" stroke="#63b8ff" points="311.06,-193.8 317.41,-185.31 307.15,-187.99 311.06,-193.8"/>
</a>
</g>
</g>
<!-- Node7&#45;&gt;Node3 -->
<g id="edge7_Node000007_Node000003" class="edge">
<title>Node7&#45;&gt;Node3</title>
<g id="a_edge7_Node000007_Node000003"><a xlink:title=" ">
<path fill="none" stroke="#63b8ff" d="M89.79,-305.45C123.56,-314.21 172.63,-327.64 206.59,-337.36"/>
<polygon fill="#63b8ff" stroke="#63b8ff" points="205.44,-340.68 216.02,-340.09 207.39,-333.95 205.44,-340.68"/>
</a>
</g>
</g>
<!-- Node8 -->
<g id="Node000008" class="node">
<title>Node8</title>
<g id="a_Node000008"><a xlink:href="exif-format_8h.html" target="_top" xlink:title="Handling native EXIF data types.">
<polygon fill="white" stroke="#666666" points="128.5,-19 15.5,-19 15.5,0 128.5,0 128.5,-19"/>
<text text-anchor="middle" x="72" y="-7" font-family="Helvetica,sans-Serif" font-size="10.00">libexif/exif&#45;format.h</text>
</a>
</g>
</g>
<!-- Node7&#45;&gt;Node8 -->
<g id="edge8_Node000007_Node000008" class="edge">
<title>Node7&#45;&gt;Node8</title>
<g id="a_edge8_Node000007_Node000008"><a xlink:title=" ">
<path fill="none" stroke="#63b8ff" d="M52,-285.54C52,-265.72 52,-216.61 52,-175.5 52,-175.5 52,-175.5 52,-118.5 52,-87.26 60.19,-51.77 66.09,-30.26"/>
<polygon fill="#63b8ff" stroke="#63b8ff" points="69.41,-31.39 68.8,-20.81 62.68,-29.46 69.41,-31.39"/>
</a>
</g>
</g>
<!-- Node7&#45;&gt;Node9 -->
<g id="edge9_Node000007_Node000009" class="edge">
<title>Node7&#45;&gt;Node9</title>
<g id="a_edge9_Node000007_Node000009"><a xlink:title=" ">
<path fill="none" stroke="#63b8ff" d="M55.07,-285.85C64.53,-259.66 93.78,-182.01 114,-165 140.12,-143.02 176.39,-131.87 207.6,-126.22"/>
<polygon fill="#63b8ff" stroke="#63b8ff" points="208.04,-129.7 217.34,-124.63 206.9,-122.79 208.04,-129.7"/>
</a>
</g>
</g>
<!-- Node10 -->
<g id="Node000010" class="node">
<title>Node10</title>
<g id="a_Node000010"><a xlink:href="exif-utils_8h.html" target="_top" xlink:title="EXIF data manipulation functions and types.">
<polygon fill="white" stroke="#666666" points="322.5,-74 221.5,-74 221.5,-55 322.5,-55 322.5,-74"/>
<text text-anchor="middle" x="272" y="-62" font-family="Helvetica,sans-Serif" font-size="10.00">libexif/exif&#45;utils.h</text>
</a>
</g>
</g>
<!-- Node9&#45;&gt;Node10 -->
<g id="edge10_Node000009_Node000010" class="edge">
<title>Node9&#45;&gt;Node10</title>
<g id="a_edge10_Node000009_Node000010"><a xlink:title=" ">
<path fill="none" stroke="#63b8ff" d="M272,-109.75C272,-103.27 272,-94.16 272,-85.9"/>
<polygon fill="#63b8ff" stroke="#63b8ff" points="275.5,-85.96 272,-75.96 268.5,-85.96 275.5,-85.96"/>
</a>
</g>
</g>
<!-- Node10&#45;&gt;Node8 -->
<g id="edge12_Node000010_Node000008" class="edge">
<title>Node10&#45;&gt;Node8</title>
<g id="a_edge12_Node000010_Node000008"><a xlink:title=" ">
<path fill="none" stroke="#63b8ff" d="M238.07,-54.51C204.64,-45.65 153.38,-32.07 116.65,-22.33"/>
<polygon fill="#63b8ff" stroke="#63b8ff" points="117.79,-19.01 107.22,-19.83 115.99,-25.78 117.79,-19.01"/>
</a>
</g>
</g>
<!-- Node11 -->
<g id="Node000011" class="node">
<title>Node11</title>
<g id="a_Node000011"><a xlink:href="exif-byte-order_8h.html" target="_top" xlink:title="Defines the ExifByteOrder enum and the associated functions.">
<polygon fill="white" stroke="#666666" points="507.5,-19 376.5,-19 376.5,0 507.5,0 507.5,-19"/>
<text text-anchor="middle" x="442" y="-7" font-family="Helvetica,sans-Serif" font-size="10.00">libexif/exif&#45;byte&#45;order.h</text>
</a>
</g>
</g>
<!-- Node10&#45;&gt;Node11 -->
<g id="edge11_Node000010_Node000011" class="edge">
<title>Node10&#45;&gt;Node11</title>
<g id="a_edge11_Node000010_Node000011"><a xlink:title=" ">
<path fill="none" stroke="#63b8ff" d="M300.84,-54.51C328.76,-45.8 371.33,-32.53 402.42,-22.84"/>
<polygon fill="#63b8ff" stroke="#63b8ff" points="403.35,-26.21 411.86,-19.9 401.27,-19.53 403.35,-26.21"/>
</a>
</g>
</g>
<!-- Node12 -->
<g id="Node000012" class="node">
<title>Node12</title>
<g id="a_Node000012"><a xlink:title=" ">
<polygon fill="#e0e0e0" stroke="#999999" points="318,-19 226,-19 226,0 318,0 318,-19"/>
<text text-anchor="middle" x="272" y="-7" font-family="Helvetica,sans-Serif" font-size="10.00">libexif/_stdint.h</text>
</a>
</g>
</g>
<!-- Node10&#45;&gt;Node12 -->
<g id="edge13_Node000010_Node000012" class="edge">
<title>Node10&#45;&gt;Node12</title>
<g id="a_edge13_Node000010_Node000012"><a xlink:title=" ">
<path fill="none" stroke="#63b8ff" d="M272,-54.75C272,-48.27 272,-39.16 272,-30.9"/>
<polygon fill="#63b8ff" stroke="#63b8ff" points="275.5,-30.96 272,-20.96 268.5,-30.96 275.5,-30.96"/>
</a>
</g>
</g>
<!-- Node13&#45;&gt;Node3 -->
<g id="edge22_Node000013_Node000003" class="edge">
<title>Node13&#45;&gt;Node3</title>
<g id="a_edge22_Node000013_Node000003"><a xlink:title=" ">
<path fill="none" stroke="#63b8ff" d="M345.14,-305.36C328.89,-313.74 301.84,-326.43 279.87,-336.06"/>
<polygon fill="#63b8ff" stroke="#63b8ff" points="278.74,-332.74 270.95,-339.91 281.51,-339.16 278.74,-332.74"/>
</a>
</g>
</g>
<!-- Node13&#45;&gt;Node4 -->
<g id="edge21_Node000013_Node000004" class="edge">
<title>Node13&#45;&gt;Node4</title>
<g id="a_edge21_Node000013_Node000004"><a xlink:title=" ">
<path fill="none" stroke="#63b8ff" d="M341.69,-285.62C323.36,-276.21 294.16,-261.22 272.64,-250.18"/>
<polygon fill="#63b8ff" stroke="#63b8ff" points="274.32,-247.11 263.82,-245.66 271.12,-253.34 274.32,-247.11"/>
</a>
</g>
</g>
<!-- Node13&#45;&gt;Node5 -->
<g id="edge17_Node000013_Node000005" class="edge">
<title>Node13&#45;&gt;Node5</title>
<g id="a_edge17_Node000013_Node000005"><a xlink:title=" ">
<path fill="none" stroke="#63b8ff" d="M354.15,-285.55C345.49,-270.28 326,-239.01 302,-220 284.59,-206.21 262.23,-195.68 243.16,-188.34"/>
<polygon fill="#63b8ff" stroke="#63b8ff" points="244.39,-185.06 233.8,-184.9 241.98,-191.63 244.39,-185.06"/>
</a>
</g>
</g>
<!-- Node13&#45;&gt;Node6 -->
<g id="edge16_Node000013_Node000006" class="edge">
<title>Node13&#45;&gt;Node6</title>
<g id="a_edge16_Node000013_Node000006"><a xlink:title=" ">
<path fill="none" stroke="#63b8ff" d="M356.97,-285.56C352.65,-266.51 342.45,-221.56 336.51,-195.37"/>
<polygon fill="#63b8ff" stroke="#63b8ff" points="339.94,-194.68 334.31,-185.7 333.11,-196.23 339.94,-194.68"/>
</a>
</g>
</g>
<!-- Node13&#45;&gt;Node9 -->
<g id="edge25_Node000013_Node000009" class="edge">
<title>Node13&#45;&gt;Node9</title>
<g id="a_edge25_Node000013_Node000009"><a xlink:title=" ">
<path fill="none" stroke="#63b8ff" d="M367.44,-285.53C387.34,-263.28 433.44,-204.5 405,-165 389.2,-143.05 362.08,-131.77 336.43,-126.04"/>
<polygon fill="#63b8ff" stroke="#63b8ff" points="337.15,-122.61 326.67,-124.13 335.81,-129.48 337.15,-122.61"/>
</a>
</g>
</g>
<!-- Node13&#45;&gt;Node11 -->
<g id="edge15_Node000013_Node000011" class="edge">
<title>Node13&#45;&gt;Node11</title>
<g id="a_edge15_Node000013_Node000011"><a xlink:title=" ">
<path fill="none" stroke="#63b8ff" d="M375.09,-285.74C404.06,-268.67 462,-227.96 462,-175.5 462,-175.5 462,-175.5 462,-118.5 462,-87.26 453.81,-51.77 447.91,-30.26"/>
<polygon fill="#63b8ff" stroke="#63b8ff" points="451.32,-29.46 445.2,-20.81 444.59,-31.39 451.32,-29.46"/>
</a>
</g>
</g>
<!-- Node13&#45;&gt;Node14 -->
<g id="edge18_Node000013_Node000014" class="edge">
<title>Node13&#45;&gt;Node14</title>
<g id="a_edge18_Node000013_Node000014"><a xlink:title=" ">
<path fill="none" stroke="#63b8ff" d="M410.47,-292.55C474.44,-288.92 578.11,-278.66 602,-250 615.22,-234.14 605.26,-210.35 595.24,-193.94"/>
<polygon fill="#63b8ff" stroke="#63b8ff" points="598.18,-192.04 589.73,-185.64 592.35,-195.91 598.18,-192.04"/>
</a>
</g>
</g>
<!-- Node16 -->
<g id="Node000016" class="node">
<title>Node16</title>
<g id="a_Node000016"><a xlink:href="exif-mnote-data_8h.html" target="_top" xlink:title="Handling EXIF MakerNote tags.">
<polygon fill="white" stroke="#666666" points="593.5,-250 490.5,-250 490.5,-220 593.5,-220 593.5,-250"/>
<text text-anchor="start" x="498.5" y="-238" font-family="Helvetica,sans-Serif" font-size="10.00">libexif/exif&#45;mnote</text>
<text text-anchor="middle" x="542" y="-227" font-family="Helvetica,sans-Serif" font-size="10.00">&#45;data.h</text>
</a>
</g>
</g>
<!-- Node13&#45;&gt;Node16 -->
<g id="edge23_Node000013_Node000016" class="edge">
<title>Node13&#45;&gt;Node16</title>
<g id="a_edge23_Node000013_Node000016"><a xlink:title=" ">
<path fill="none" stroke="#63b8ff" d="M386.79,-285.62C413.02,-277.23 453.12,-264.41 485.99,-253.9"/>
<polygon fill="#63b8ff" stroke="#63b8ff" points="486.93,-257.28 495.39,-250.9 484.8,-250.61 486.93,-257.28"/>
</a>
</g>
</g>
<!-- Node14&#45;&gt;Node9 -->
<g id="edge19_Node000014_Node000009" class="edge">
<title>Node14&#45;&gt;Node9</title>
<g id="a_edge19_Node000014_Node000009"><a xlink:title=" ">
<path fill="none" stroke="#63b8ff" d="M534.24,-165.33C480.95,-156.22 394.48,-141.44 335.52,-131.36"/>
<polygon fill="#63b8ff" stroke="#63b8ff" points="336.42,-127.96 325.97,-129.73 335.24,-134.86 336.42,-127.96"/>
</a>
</g>
</g>
<!-- Node15 -->
<g id="Node000015" class="node">
<title>Node15</title>
<g id="a_Node000015"><a xlink:title=" ">
<polygon fill="#e0e0e0" stroke="#999999" points="610,-129 554,-129 554,-110 610,-110 610,-129"/>
<text text-anchor="middle" x="582" y="-117" font-family="Helvetica,sans-Serif" font-size="10.00">stdarg.h</text>
</a>
</g>
</g>
<!-- Node14&#45;&gt;Node15 -->
<g id="edge20_Node000014_Node000015" class="edge">
<title>Node14&#45;&gt;Node15</title>
<g id="a_edge20_Node000014_Node000015"><a xlink:title=" ">
<path fill="none" stroke="#63b8ff" d="M582,-164.75C582,-158.27 582,-149.16 582,-140.9"/>
<polygon fill="#63b8ff" stroke="#63b8ff" points="585.5,-140.96 582,-130.96 578.5,-140.96 585.5,-140.96"/>
</a>
</g>
</g>
<!-- Node16&#45;&gt;Node14 -->
<g id="edge24_Node000016_Node000014" class="edge">
<title>Node16&#45;&gt;Node14</title>
<g id="a_edge24_Node000016_Node000014"><a xlink:title=" ">
<path fill="none" stroke="#63b8ff" d="M551.89,-219.54C557.28,-211.65 564.01,-201.81 569.74,-193.44"/>
<polygon fill="#63b8ff" stroke="#63b8ff" points="572.46,-195.65 575.21,-185.42 566.68,-191.7 572.46,-195.65"/>
</a>
</g>
</g>
</g>
</svg>
