<?xml version="1.0" encoding="UTF-8" standalone="no"?>
<!DOCTYPE svg PUBLIC "-//W3C//DTD SVG 1.1//EN"
 "http://www.w3.org/Graphics/SVG/1.1/DTD/svg11.dtd">
<!-- Generated by graphviz version 2.44.1 (0)
 -->
<!-- Title: exif_data_log Pages: 1 -->
<svg width="723pt" height="94pt"
 viewBox="0.00 0.00 723.00 94.00" xmlns="http://www.w3.org/2000/svg" xmlns:xlink="http://www.w3.org/1999/xlink">
<g id="graph0" class="graph" transform="scale(1 1) rotate(0) translate(4 90)">
<title>exif_data_log</title>
<polygon fill="white" stroke="transparent" points="-4,4 -4,-90 719,-90 719,4 -4,4"/>
<!-- Node1 -->
<g id="node1" class="node">
<title>Node1</title>
<g id="a_node1"><a xlink:title="Set the log message object for all IFDs.">
<polygon fill="#bfbfbf" stroke="black" points="0,-47.5 0,-66.5 83,-66.5 83,-47.5 0,-47.5"/>
<text text-anchor="middle" x="41.5" y="-54.5" font-family="Helvetica,sans-Serif" font-size="10.00">exif_data_log</text>
</a>
</g>
</g>
<!-- Node2 -->
<g id="node2" class="node">
<title>Node2</title>
<g id="a_node2"><a xlink:href="exif-content_8c.html#acdc250f9237c430642c2c71ba022070a" target="_top" xlink:title="Set the log message object for this IFD.">
<polygon fill="white" stroke="black" points="119,-47.5 119,-66.5 217,-66.5 217,-47.5 119,-47.5"/>
<text text-anchor="middle" x="168" y="-54.5" font-family="Helvetica,sans-Serif" font-size="10.00">exif_content_log</text>
</a>
</g>
</g>
<!-- Node1&#45;&gt;Node2 -->
<g id="edge1" class="edge">
<title>Node1&#45;&gt;Node2</title>
<path fill="none" stroke="midnightblue" d="M83.27,-57C91.42,-57 100.14,-57 108.75,-57"/>
<polygon fill="midnightblue" stroke="midnightblue" points="108.78,-60.5 118.78,-57 108.78,-53.5 108.78,-60.5"/>
</g>
<!-- Node3 -->
<g id="node3" class="node">
<title>Node3</title>
<g id="a_node3"><a xlink:href="exif-log_8c.html#aafd7e5d40ca73440976a3b684bfa1059" target="_top" xlink:title=" ">
<polygon fill="white" stroke="black" points="259,-66.5 259,-85.5 333,-85.5 333,-66.5 259,-66.5"/>
<text text-anchor="middle" x="296" y="-73.5" font-family="Helvetica,sans-Serif" font-size="10.00">exif_log_ref</text>
</a>
</g>
</g>
<!-- Node1&#45;&gt;Node3 -->
<g id="edge8" class="edge">
<title>Node1&#45;&gt;Node3</title>
<path fill="none" stroke="midnightblue" d="M73.44,-66.51C87.24,-70.27 103.79,-74.14 119,-76 162.75,-81.35 213.08,-80.67 248.69,-79.06"/>
<polygon fill="midnightblue" stroke="midnightblue" points="248.96,-82.55 258.78,-78.56 248.62,-75.56 248.96,-82.55"/>
</g>
<!-- Node4 -->
<g id="node4" class="node">
<title>Node4</title>
<g id="a_node4"><a xlink:href="exif-log_8c.html#a7a9b738a7429197d68c80ffedac7d8fb" target="_top" xlink:title=" ">
<polygon fill="white" stroke="black" points="253,-19.5 253,-38.5 339,-38.5 339,-19.5 253,-19.5"/>
<text text-anchor="middle" x="296" y="-26.5" font-family="Helvetica,sans-Serif" font-size="10.00">exif_log_unref</text>
</a>
</g>
</g>
<!-- Node1&#45;&gt;Node4 -->
<g id="edge9" class="edge">
<title>Node1&#45;&gt;Node4</title>
<path fill="none" stroke="midnightblue" d="M74.98,-47.47C88.48,-43.89 104.38,-40.17 119,-38 160.32,-31.87 207.62,-29.72 242.78,-29.05"/>
<polygon fill="midnightblue" stroke="midnightblue" points="242.87,-32.55 252.81,-28.89 242.76,-25.55 242.87,-32.55"/>
</g>
<!-- Node2&#45;&gt;Node3 -->
<g id="edge2" class="edge">
<title>Node2&#45;&gt;Node3</title>
<path fill="none" stroke="midnightblue" d="M217.35,-64.29C227.66,-65.85 238.52,-67.48 248.74,-69.02"/>
<polygon fill="midnightblue" stroke="midnightblue" points="248.3,-72.5 258.71,-70.53 249.35,-65.58 248.3,-72.5"/>
</g>
<!-- Node2&#45;&gt;Node4 -->
<g id="edge3" class="edge">
<title>Node2&#45;&gt;Node4</title>
<path fill="none" stroke="midnightblue" d="M212.01,-47.44C221.85,-45.26 232.41,-42.91 242.6,-40.65"/>
<polygon fill="midnightblue" stroke="midnightblue" points="243.61,-44.01 252.61,-38.42 242.09,-37.17 243.61,-44.01"/>
</g>
<!-- Node5 -->
<g id="node5" class="node">
<title>Node5</title>
<g id="a_node5"><a xlink:href="exif-log_8c.html#acd0808d6d5be73f28059797c2e2e67dc" target="_top" xlink:title="Delete instance of ExifLog.">
<polygon fill="white" stroke="black" points="375,-19.5 375,-38.5 455,-38.5 455,-19.5 375,-19.5"/>
<text text-anchor="middle" x="415" y="-26.5" font-family="Helvetica,sans-Serif" font-size="10.00">exif_log_free</text>
</a>
</g>
</g>
<!-- Node4&#45;&gt;Node5 -->
<g id="edge4" class="edge">
<title>Node4&#45;&gt;Node5</title>
<path fill="none" stroke="midnightblue" d="M339.24,-29C347.52,-29 356.28,-29 364.77,-29"/>
<polygon fill="midnightblue" stroke="midnightblue" points="364.94,-32.5 374.94,-29 364.94,-25.5 364.94,-32.5"/>
</g>
<!-- Node6 -->
<g id="node6" class="node">
<title>Node6</title>
<g id="a_node6"><a xlink:href="exif-mem_8c.html#a43190b81b4b4bdb4ffb89bfb612051b1" target="_top" xlink:title=" ">
<polygon fill="white" stroke="black" points="624,-19.5 624,-38.5 715,-38.5 715,-19.5 624,-19.5"/>
<text text-anchor="middle" x="669.5" y="-26.5" font-family="Helvetica,sans-Serif" font-size="10.00">exif_mem_free</text>
</a>
</g>
</g>
<!-- Node5&#45;&gt;Node6 -->
<g id="edge5" class="edge">
<title>Node5&#45;&gt;Node6</title>
<path fill="none" stroke="midnightblue" d="M455.18,-29C497.63,-29 565.71,-29 613.51,-29"/>
<polygon fill="midnightblue" stroke="midnightblue" points="613.69,-32.5 623.69,-29 613.69,-25.5 613.69,-32.5"/>
</g>
<!-- Node7 -->
<g id="node7" class="node">
<title>Node7</title>
<g id="a_node7"><a xlink:href="exif-mem_8c.html#a66744e0987af08c443df247ce55f7d87" target="_top" xlink:title="Unrefcount an ExifMem.">
<polygon fill="white" stroke="black" points="491,-0.5 491,-19.5 588,-19.5 588,-0.5 491,-0.5"/>
<text text-anchor="middle" x="539.5" y="-7.5" font-family="Helvetica,sans-Serif" font-size="10.00">exif_mem_unref</text>
</a>
</g>
</g>
<!-- Node5&#45;&gt;Node7 -->
<g id="edge6" class="edge">
<title>Node5&#45;&gt;Node7</title>
<path fill="none" stroke="midnightblue" d="M455.1,-22.94C463.25,-21.67 472.01,-20.31 480.67,-18.97"/>
<polygon fill="midnightblue" stroke="midnightblue" points="481.42,-22.4 490.76,-17.4 480.35,-15.48 481.42,-22.4"/>
</g>
<!-- Node7&#45;&gt;Node6 -->
<g id="edge7" class="edge">
<title>Node7&#45;&gt;Node6</title>
<path fill="none" stroke="midnightblue" d="M588.16,-17.07C596.54,-18.32 605.32,-19.62 613.87,-20.89"/>
<polygon fill="midnightblue" stroke="midnightblue" points="613.36,-24.35 623.77,-22.36 614.39,-17.43 613.36,-24.35"/>
</g>
</g>
</svg>
