<?xml version="1.0" encoding="UTF-8" standalone="no"?>
<!DOCTYPE svg PUBLIC "-//W3C//DTD SVG 1.1//EN"
 "http://www.w3.org/Graphics/SVG/1.1/DTD/svg11.dtd">
<!-- Generated by graphviz version 2.44.1 (0)
 -->
<!-- Title: exif_mnote_data_fuji_new Pages: 1 -->
<svg width="938pt" height="937pt"
 viewBox="0.00 0.00 938.00 936.50" xmlns="http://www.w3.org/2000/svg" xmlns:xlink="http://www.w3.org/1999/xlink">
<g id="graph0" class="graph" transform="scale(1 1) rotate(0) translate(4 932.5)">
<title>exif_mnote_data_fuji_new</title>
<polygon fill="white" stroke="transparent" points="-4,4 -4,-932.5 934,-932.5 934,4 -4,4"/>
<!-- Node1 -->
<g id="node1" class="node">
<title>Node1</title>
<g id="a_node1"><a xlink:title=" ">
<polygon fill="#bfbfbf" stroke="black" points="0,-538 0,-557 146,-557 146,-538 0,-538"/>
<text text-anchor="middle" x="73" y="-545" font-family="Helvetica,sans-Serif" font-size="10.00">exif_mnote_data_fuji_new</text>
</a>
</g>
</g>
<!-- Node2 -->
<g id="node2" class="node">
<title>Node2</title>
<g id="a_node2"><a xlink:href="exif-mem_8c.html#ae8c09cfbcb95e435c4c4b7ec3bbd79e4" target="_top" xlink:title=" ">
<polygon fill="white" stroke="black" points="391.5,-871 391.5,-890 486.5,-890 486.5,-871 391.5,-871"/>
<text text-anchor="middle" x="439" y="-878" font-family="Helvetica,sans-Serif" font-size="10.00">exif_mem_alloc</text>
</a>
</g>
</g>
<!-- Node1&#45;&gt;Node2 -->
<g id="edge1" class="edge">
<title>Node1&#45;&gt;Node2</title>
<path fill="none" stroke="midnightblue" d="M75.7,-557.19C82.44,-592.76 110.45,-717.7 182,-786.5 245.96,-847.99 282.87,-833.31 367,-861.5 374.07,-863.87 381.6,-866.14 389.03,-868.25"/>
<polygon fill="midnightblue" stroke="midnightblue" points="388.11,-871.62 398.68,-870.91 389.97,-864.88 388.11,-871.62"/>
</g>
<!-- Node3 -->
<g id="node3" class="node">
<title>Node3</title>
<g id="a_node3"><a xlink:href="exif-mnote-data-priv_8h.html#a06db5604f65a97b1c5ea3fcc4bfec7dc" target="_top" xlink:title=" ">
<polygon fill="white" stroke="black" points="182,-871 182,-890 331,-890 331,-871 182,-871"/>
<text text-anchor="middle" x="256.5" y="-878" font-family="Helvetica,sans-Serif" font-size="10.00">exif_mnote_data_construct</text>
</a>
</g>
</g>
<!-- Node1&#45;&gt;Node3 -->
<g id="edge2" class="edge">
<title>Node1&#45;&gt;Node3</title>
<path fill="none" stroke="midnightblue" d="M74.9,-557.03C79.16,-597.09 100.59,-753.9 182,-844.5 190.69,-854.17 202.57,-861.53 214.23,-866.99"/>
<polygon fill="midnightblue" stroke="midnightblue" points="212.91,-870.24 223.48,-870.98 215.68,-863.81 212.91,-870.24"/>
</g>
<!-- Node5 -->
<g id="node5" class="node">
<title>Node5</title>
<g id="a_node5"><a xlink:href="exif-mnote-data-fuji_8c.html#a8b01b3449bab44bac36ade6f267e6e78" target="_top" xlink:title=" ">
<polygon fill="white" stroke="black" points="196.5,-444.5 196.5,-474.5 316.5,-474.5 316.5,-444.5 196.5,-444.5"/>
<text text-anchor="start" x="204.5" y="-462.5" font-family="Helvetica,sans-Serif" font-size="10.00">exif_mnote_data_fuji</text>
<text text-anchor="middle" x="256.5" y="-451.5" font-family="Helvetica,sans-Serif" font-size="10.00">_count</text>
</a>
</g>
</g>
<!-- Node1&#45;&gt;Node5 -->
<g id="edge5" class="edge">
<title>Node1&#45;&gt;Node5</title>
<path fill="none" stroke="midnightblue" d="M88.18,-537.98C108.36,-524.73 146.85,-500.54 182,-484.5 186.91,-482.26 192.07,-480.11 197.3,-478.08"/>
<polygon fill="midnightblue" stroke="midnightblue" points="198.59,-481.34 206.73,-474.55 196.14,-474.78 198.59,-481.34"/>
</g>
<!-- Node6 -->
<g id="node6" class="node">
<title>Node6</title>
<g id="a_node6"><a xlink:href="exif-mnote-data-fuji_8c.html#ad282f699d52c22a676dfaafbf74e61fb" target="_top" xlink:title=" ">
<polygon fill="white" stroke="black" points="184,-758 184,-777 329,-777 329,-758 184,-758"/>
<text text-anchor="middle" x="256.5" y="-765" font-family="Helvetica,sans-Serif" font-size="10.00">exif_mnote_data_fuji_free</text>
</a>
</g>
</g>
<!-- Node1&#45;&gt;Node6 -->
<g id="edge6" class="edge">
<title>Node1&#45;&gt;Node6</title>
<path fill="none" stroke="midnightblue" d="M76.68,-557.15C85.85,-588.47 118.98,-688.27 182,-741.5 188.11,-746.66 195.31,-750.82 202.77,-754.17"/>
<polygon fill="midnightblue" stroke="midnightblue" points="201.73,-757.52 212.31,-758 204.33,-751.03 201.73,-757.52"/>
</g>
<!-- Node9 -->
<g id="node9" class="node">
<title>Node9</title>
<g id="a_node9"><a xlink:href="exif-mnote-data-fuji_8c.html#a5f763c7bc363a1ecb95fb04e657dc151" target="_top" xlink:title=" ">
<polygon fill="white" stroke="black" points="196.5,-395.5 196.5,-425.5 316.5,-425.5 316.5,-395.5 196.5,-395.5"/>
<text text-anchor="start" x="204.5" y="-413.5" font-family="Helvetica,sans-Serif" font-size="10.00">exif_mnote_data_fuji</text>
<text text-anchor="middle" x="256.5" y="-402.5" font-family="Helvetica,sans-Serif" font-size="10.00">_get_description</text>
</a>
</g>
</g>
<!-- Node1&#45;&gt;Node9 -->
<g id="edge9" class="edge">
<title>Node1&#45;&gt;Node9</title>
<path fill="none" stroke="midnightblue" d="M80.7,-537.92C96.13,-516.53 136.39,-464.46 182,-435.5 185.3,-433.41 188.79,-431.47 192.39,-429.67"/>
<polygon fill="midnightblue" stroke="midnightblue" points="193.88,-432.84 201.52,-425.51 190.97,-426.47 193.88,-432.84"/>
</g>
<!-- Node11 -->
<g id="node11" class="node">
<title>Node11</title>
<g id="a_node11"><a xlink:href="exif-mnote-data-fuji_8c.html#abacb7c63f6f0e09ef55ea1f632f3c562" target="_top" xlink:title=" ">
<polygon fill="white" stroke="black" points="196.5,-346.5 196.5,-376.5 316.5,-376.5 316.5,-346.5 196.5,-346.5"/>
<text text-anchor="start" x="204.5" y="-364.5" font-family="Helvetica,sans-Serif" font-size="10.00">exif_mnote_data_fuji</text>
<text text-anchor="middle" x="256.5" y="-353.5" font-family="Helvetica,sans-Serif" font-size="10.00">_get_id</text>
</a>
</g>
</g>
<!-- Node1&#45;&gt;Node11 -->
<g id="edge11" class="edge">
<title>Node1&#45;&gt;Node11</title>
<path fill="none" stroke="midnightblue" d="M77.77,-537.94C89.16,-510.29 125.9,-429.49 182,-386.5 184.44,-384.63 187.02,-382.9 189.71,-381.29"/>
<polygon fill="midnightblue" stroke="midnightblue" points="191.39,-384.36 198.58,-376.58 188.1,-378.18 191.39,-384.36"/>
</g>
<!-- Node12 -->
<g id="node12" class="node">
<title>Node12</title>
<g id="a_node12"><a xlink:href="exif-mnote-data-fuji_8c.html#a1652b7557332a3e87ea627ee71a3d5da" target="_top" xlink:title=" ">
<polygon fill="white" stroke="black" points="196.5,-630.5 196.5,-660.5 316.5,-660.5 316.5,-630.5 196.5,-630.5"/>
<text text-anchor="start" x="204.5" y="-648.5" font-family="Helvetica,sans-Serif" font-size="10.00">exif_mnote_data_fuji</text>
<text text-anchor="middle" x="256.5" y="-637.5" font-family="Helvetica,sans-Serif" font-size="10.00">_get_name</text>
</a>
</g>
</g>
<!-- Node1&#45;&gt;Node12 -->
<g id="edge12" class="edge">
<title>Node1&#45;&gt;Node12</title>
<path fill="none" stroke="midnightblue" d="M85.61,-557.13C104.68,-572.54 144.29,-602.9 182,-621.5 185.72,-623.34 189.62,-625.08 193.6,-626.73"/>
<polygon fill="midnightblue" stroke="midnightblue" points="192.38,-630.01 202.97,-630.39 194.93,-623.49 192.38,-630.01"/>
</g>
<!-- Node14 -->
<g id="node14" class="node">
<title>Node14</title>
<g id="a_node14"><a xlink:href="exif-mnote-data-fuji_8c.html#aaad0a60d7ed430ec460cf084d47659ae" target="_top" xlink:title=" ">
<polygon fill="white" stroke="black" points="196.5,-297.5 196.5,-327.5 316.5,-327.5 316.5,-297.5 196.5,-297.5"/>
<text text-anchor="start" x="204.5" y="-315.5" font-family="Helvetica,sans-Serif" font-size="10.00">exif_mnote_data_fuji</text>
<text text-anchor="middle" x="256.5" y="-304.5" font-family="Helvetica,sans-Serif" font-size="10.00">_get_title</text>
</a>
</g>
</g>
<!-- Node1&#45;&gt;Node14 -->
<g id="edge14" class="edge">
<title>Node1&#45;&gt;Node14</title>
<path fill="none" stroke="midnightblue" d="M76.18,-537.96C84.16,-505.08 114.95,-395.34 182,-337.5 183.96,-335.81 186.05,-334.22 188.22,-332.75"/>
<polygon fill="midnightblue" stroke="midnightblue" points="190.17,-335.66 197.01,-327.57 186.61,-329.64 190.17,-335.66"/>
</g>
<!-- Node16 -->
<g id="node16" class="node">
<title>Node16</title>
<g id="a_node16"><a xlink:href="exif-mnote-data-fuji_8c.html#a090b78302a2e65a23f8eaecb23cdc38e" target="_top" xlink:title=" ">
<polygon fill="white" stroke="black" points="196.5,-581.5 196.5,-611.5 316.5,-611.5 316.5,-581.5 196.5,-581.5"/>
<text text-anchor="start" x="204.5" y="-599.5" font-family="Helvetica,sans-Serif" font-size="10.00">exif_mnote_data_fuji</text>
<text text-anchor="middle" x="256.5" y="-588.5" font-family="Helvetica,sans-Serif" font-size="10.00">_get_value</text>
</a>
</g>
</g>
<!-- Node1&#45;&gt;Node16 -->
<g id="edge16" class="edge">
<title>Node1&#45;&gt;Node16</title>
<path fill="none" stroke="midnightblue" d="M109.43,-557.06C132.3,-563.24 162.77,-571.46 189.95,-578.8"/>
<polygon fill="midnightblue" stroke="midnightblue" points="189.24,-582.24 199.8,-581.46 191.06,-575.48 189.24,-582.24"/>
</g>
<!-- Node24 -->
<g id="node24" class="node">
<title>Node24</title>
<g id="a_node24"><a xlink:href="exif-mnote-data-fuji_8c.html#a1d5da1c769e40ac0cc2f95804676a9a5" target="_top" xlink:title=" ">
<polygon fill="white" stroke="black" points="183.5,-713 183.5,-732 329.5,-732 329.5,-713 183.5,-713"/>
<text text-anchor="middle" x="256.5" y="-720" font-family="Helvetica,sans-Serif" font-size="10.00">exif_mnote_data_fuji_load</text>
</a>
</g>
</g>
<!-- Node1&#45;&gt;Node24 -->
<g id="edge28" class="edge">
<title>Node1&#45;&gt;Node24</title>
<path fill="none" stroke="midnightblue" d="M81.18,-557.12C97.6,-578.79 139.76,-632.47 182,-670.5 197.3,-684.27 216.3,-697.63 231.15,-707.36"/>
<polygon fill="midnightblue" stroke="midnightblue" points="229.49,-710.45 239.79,-712.92 233.28,-704.57 229.49,-710.45"/>
</g>
<!-- Node28 -->
<g id="node28" class="node">
<title>Node28</title>
<g id="a_node28"><a xlink:href="exif-mnote-data-fuji_8c.html#a74ad9a2de52f9cef8e9ec0a5c7ec26ac" target="_top" xlink:title=" ">
<polygon fill="white" stroke="black" points="182,-494 182,-513 331,-513 331,-494 182,-494"/>
<text text-anchor="middle" x="256.5" y="-501" font-family="Helvetica,sans-Serif" font-size="10.00">exif_mnote_data_fuji_save</text>
</a>
</g>
</g>
<!-- Node1&#45;&gt;Node28 -->
<g id="edge37" class="edge">
<title>Node1&#45;&gt;Node28</title>
<path fill="none" stroke="midnightblue" d="M113.38,-537.95C140.62,-531.35 177.05,-522.52 206.21,-515.45"/>
<polygon fill="midnightblue" stroke="midnightblue" points="207.3,-518.79 216.19,-513.03 205.65,-511.98 207.3,-518.79"/>
</g>
<!-- Node34 -->
<g id="node34" class="node">
<title>Node34</title>
<g id="a_node34"><a xlink:href="exif-mnote-data-fuji_8c.html#ae26a761ead33e72d0c19770c98b6d014" target="_top" xlink:title=" ">
<polygon fill="white" stroke="black" points="196.5,-532.5 196.5,-562.5 316.5,-562.5 316.5,-532.5 196.5,-532.5"/>
<text text-anchor="start" x="204.5" y="-550.5" font-family="Helvetica,sans-Serif" font-size="10.00">exif_mnote_data_fuji</text>
<text text-anchor="middle" x="256.5" y="-539.5" font-family="Helvetica,sans-Serif" font-size="10.00">_set_byte_order</text>
</a>
</g>
</g>
<!-- Node1&#45;&gt;Node34 -->
<g id="edge45" class="edge">
<title>Node1&#45;&gt;Node34</title>
<path fill="none" stroke="midnightblue" d="M146.26,-547.5C159.36,-547.5 173,-547.5 186.02,-547.5"/>
<polygon fill="midnightblue" stroke="midnightblue" points="186.31,-551 196.31,-547.5 186.31,-544 186.31,-551"/>
</g>
<!-- Node38 -->
<g id="node38" class="node">
<title>Node38</title>
<g id="a_node38"><a xlink:href="exif-mnote-data-fuji_8c.html#a2b05c9bad8947095e92dcf0b58d0b07b" target="_top" xlink:title=" ">
<polygon fill="white" stroke="black" points="196.5,-248.5 196.5,-278.5 316.5,-278.5 316.5,-248.5 196.5,-248.5"/>
<text text-anchor="start" x="204.5" y="-266.5" font-family="Helvetica,sans-Serif" font-size="10.00">exif_mnote_data_fuji</text>
<text text-anchor="middle" x="256.5" y="-255.5" font-family="Helvetica,sans-Serif" font-size="10.00">_set_offset</text>
</a>
</g>
</g>
<!-- Node1&#45;&gt;Node38 -->
<g id="edge63" class="edge">
<title>Node1&#45;&gt;Node38</title>
<path fill="none" stroke="midnightblue" d="M75.16,-537.92C80.22,-500.37 103.71,-361.7 182,-288.5 183.72,-286.89 185.55,-285.39 187.46,-283.98"/>
<polygon fill="midnightblue" stroke="midnightblue" points="189.72,-286.69 196.32,-278.4 185.99,-280.77 189.72,-286.69"/>
</g>
<!-- Node3&#45;&gt;Node2 -->
<g id="edge3" class="edge">
<title>Node3&#45;&gt;Node2</title>
<path fill="none" stroke="midnightblue" d="M331.18,-880.5C347.89,-880.5 365.39,-880.5 381.27,-880.5"/>
<polygon fill="midnightblue" stroke="midnightblue" points="381.45,-884 391.45,-880.5 381.45,-877 381.45,-884"/>
</g>
<!-- Node4 -->
<g id="node4" class="node">
<title>Node4</title>
<g id="a_node4"><a xlink:href="exif-mem_8c.html#af28c61972f529be46907956e0b3e7a60" target="_top" xlink:title="Refcount an ExifMem.">
<polygon fill="white" stroke="black" points="396.5,-909 396.5,-928 481.5,-928 481.5,-909 396.5,-909"/>
<text text-anchor="middle" x="439" y="-916" font-family="Helvetica,sans-Serif" font-size="10.00">exif_mem_ref</text>
</a>
</g>
</g>
<!-- Node3&#45;&gt;Node4 -->
<g id="edge4" class="edge">
<title>Node3&#45;&gt;Node4</title>
<path fill="none" stroke="midnightblue" d="M303.05,-890.09C328.51,-895.45 360.33,-902.15 386.68,-907.7"/>
<polygon fill="midnightblue" stroke="midnightblue" points="385.98,-911.12 396.48,-909.76 387.42,-904.27 385.98,-911.12"/>
</g>
<!-- Node7 -->
<g id="node7" class="node">
<title>Node7</title>
<g id="a_node7"><a xlink:href="exif-mnote-data-fuji_8c.html#ad97d8d547619a920d374e179be91282c" target="_top" xlink:title=" ">
<polygon fill="white" stroke="black" points="379,-821.5 379,-851.5 499,-851.5 499,-821.5 379,-821.5"/>
<text text-anchor="start" x="387" y="-839.5" font-family="Helvetica,sans-Serif" font-size="10.00">exif_mnote_data_fuji</text>
<text text-anchor="middle" x="439" y="-828.5" font-family="Helvetica,sans-Serif" font-size="10.00">_clear</text>
</a>
</g>
</g>
<!-- Node6&#45;&gt;Node7 -->
<g id="edge7" class="edge">
<title>Node6&#45;&gt;Node7</title>
<path fill="none" stroke="midnightblue" d="M280.46,-777.06C302.53,-786.18 336.9,-800.16 367,-811.5 372.78,-813.68 378.84,-815.9 384.89,-818.08"/>
<polygon fill="midnightblue" stroke="midnightblue" points="383.74,-821.39 394.34,-821.46 386.1,-814.8 383.74,-821.39"/>
</g>
<!-- Node8 -->
<g id="node8" class="node">
<title>Node8</title>
<g id="a_node8"><a xlink:href="exif-mem_8c.html#a43190b81b4b4bdb4ffb89bfb612051b1" target="_top" xlink:title=" ">
<polygon fill="white" stroke="black" points="561,-827 561,-846 652,-846 652,-827 561,-827"/>
<text text-anchor="middle" x="606.5" y="-834" font-family="Helvetica,sans-Serif" font-size="10.00">exif_mem_free</text>
</a>
</g>
</g>
<!-- Node7&#45;&gt;Node8 -->
<g id="edge8" class="edge">
<title>Node7&#45;&gt;Node8</title>
<path fill="none" stroke="midnightblue" d="M499.28,-836.5C516.1,-836.5 534.33,-836.5 550.87,-836.5"/>
<polygon fill="midnightblue" stroke="midnightblue" points="550.91,-840 560.91,-836.5 550.91,-833 550.91,-840"/>
</g>
<!-- Node10 -->
<g id="node10" class="node">
<title>Node10</title>
<g id="a_node10"><a xlink:href="mnote-fuji-tag_8c.html#aa747e00aba17219d13a9ce4c0dc4b353" target="_top" xlink:title=" ">
<polygon fill="white" stroke="black" points="383.5,-49.5 383.5,-79.5 494.5,-79.5 494.5,-49.5 383.5,-49.5"/>
<text text-anchor="start" x="391.5" y="-67.5" font-family="Helvetica,sans-Serif" font-size="10.00">mnote_fuji_tag_get</text>
<text text-anchor="middle" x="439" y="-56.5" font-family="Helvetica,sans-Serif" font-size="10.00">_description</text>
</a>
</g>
</g>
<!-- Node9&#45;&gt;Node10 -->
<g id="edge10" class="edge">
<title>Node9&#45;&gt;Node10</title>
<path fill="none" stroke="midnightblue" d="M316.81,-398.17C322.19,-395.09 327.07,-391.27 331,-386.5 414.13,-285.56 288.19,-198.85 367,-94.5 369.59,-91.08 372.64,-88.04 376,-85.35"/>
<polygon fill="midnightblue" stroke="midnightblue" points="378.04,-88.19 384.33,-79.67 374.09,-82.41 378.04,-88.19"/>
</g>
<!-- Node13 -->
<g id="node13" class="node">
<title>Node13</title>
<g id="a_node13"><a xlink:href="mnote-fuji-tag_8c.html#a891352140a24f146838a23d3ff335137" target="_top" xlink:title=" ">
<polygon fill="white" stroke="black" points="367,-631 367,-650 511,-650 511,-631 367,-631"/>
<text text-anchor="middle" x="439" y="-638" font-family="Helvetica,sans-Serif" font-size="10.00">mnote_fuji_tag_get_name</text>
</a>
</g>
</g>
<!-- Node12&#45;&gt;Node13 -->
<g id="edge13" class="edge">
<title>Node12&#45;&gt;Node13</title>
<path fill="none" stroke="midnightblue" d="M316.6,-643.86C329.38,-643.51 343.11,-643.13 356.58,-642.76"/>
<polygon fill="midnightblue" stroke="midnightblue" points="356.91,-646.25 366.81,-642.47 356.71,-639.25 356.91,-646.25"/>
</g>
<!-- Node15 -->
<g id="node15" class="node">
<title>Node15</title>
<g id="a_node15"><a xlink:href="mnote-fuji-tag_8c.html#aa18072c13948d9609e672e2317ce4816" target="_top" xlink:title=" ">
<polygon fill="white" stroke="black" points="383.5,-0.5 383.5,-30.5 494.5,-30.5 494.5,-0.5 383.5,-0.5"/>
<text text-anchor="start" x="391.5" y="-18.5" font-family="Helvetica,sans-Serif" font-size="10.00">mnote_fuji_tag_get</text>
<text text-anchor="middle" x="439" y="-7.5" font-family="Helvetica,sans-Serif" font-size="10.00">_title</text>
</a>
</g>
</g>
<!-- Node14&#45;&gt;Node15 -->
<g id="edge15" class="edge">
<title>Node14&#45;&gt;Node15</title>
<path fill="none" stroke="midnightblue" d="M316.71,-300.09C322.11,-297.03 327.03,-293.23 331,-288.5 402.98,-202.93 295.46,-125.44 367,-39.5 369.27,-36.77 371.87,-34.34 374.7,-32.2"/>
<polygon fill="midnightblue" stroke="midnightblue" points="376.6,-35.14 383.19,-26.84 372.87,-29.21 376.6,-35.14"/>
</g>
<!-- Node17 -->
<g id="node17" class="node">
<title>Node17</title>
<g id="a_node17"><a xlink:href="mnote-fuji-entry_8c.html#a6af1b4d45c19d2cc1c9cb76c1e0eb4fc" target="_top" xlink:title=" ">
<polygon fill="white" stroke="black" points="378.5,-581.5 378.5,-611.5 499.5,-611.5 499.5,-581.5 378.5,-581.5"/>
<text text-anchor="start" x="386.5" y="-599.5" font-family="Helvetica,sans-Serif" font-size="10.00">mnote_fuji_entry_get</text>
<text text-anchor="middle" x="439" y="-588.5" font-family="Helvetica,sans-Serif" font-size="10.00">_value</text>
</a>
</g>
</g>
<!-- Node16&#45;&gt;Node17 -->
<g id="edge17" class="edge">
<title>Node16&#45;&gt;Node17</title>
<path fill="none" stroke="midnightblue" d="M316.6,-596.5C333.04,-596.5 351.04,-596.5 368.03,-596.5"/>
<polygon fill="midnightblue" stroke="midnightblue" points="368.46,-600 378.46,-596.5 368.46,-593 368.46,-600"/>
</g>
<!-- Node18 -->
<g id="node18" class="node">
<title>Node18</title>
<g id="a_node18"><a xlink:href="exif-utils_8c.html#a4ad94614630897766dd0a5c9bc2a59bf" target="_top" xlink:title="Retrieve an ExifLong value from memory.">
<polygon fill="white" stroke="black" points="712.5,-707 712.5,-726 795.5,-726 795.5,-707 712.5,-707"/>
<text text-anchor="middle" x="754" y="-714" font-family="Helvetica,sans-Serif" font-size="10.00">exif_get_long</text>
</a>
</g>
</g>
<!-- Node17&#45;&gt;Node18 -->
<g id="edge18" class="edge">
<title>Node17&#45;&gt;Node18</title>
<path fill="none" stroke="midnightblue" d="M496.18,-611.55C501.52,-614.34 506.58,-617.62 511,-621.5 537.6,-644.83 517.98,-672.27 547,-692.5 592.35,-724.11 657.41,-726.44 702.21,-723.24"/>
<polygon fill="midnightblue" stroke="midnightblue" points="702.62,-726.71 712.3,-722.4 702.04,-719.74 702.62,-726.71"/>
</g>
<!-- Node19 -->
<g id="node19" class="node">
<title>Node19</title>
<g id="a_node19"><a xlink:href="exif-utils_8c.html#a56b96f076a13da6ed926e1ef29cb2dc3" target="_top" xlink:title="Retrieve an ExifSLong value from memory.">
<polygon fill="white" stroke="black" points="842,-593 842,-612 930,-612 930,-593 842,-593"/>
<text text-anchor="middle" x="886" y="-600" font-family="Helvetica,sans-Serif" font-size="10.00">exif_get_slong</text>
</a>
</g>
</g>
<!-- Node17&#45;&gt;Node19 -->
<g id="edge24" class="edge">
<title>Node17&#45;&gt;Node19</title>
<path fill="none" stroke="midnightblue" d="M484.52,-611.56C493.34,-614.72 502.5,-618.12 511,-621.5 527.27,-627.97 529.87,-633.87 547,-637.5 652.72,-659.94 780.23,-632.34 844.19,-614.82"/>
<polygon fill="midnightblue" stroke="midnightblue" points="845.21,-618.17 853.9,-612.11 843.33,-611.43 845.21,-618.17"/>
</g>
<!-- Node20 -->
<g id="node20" class="node">
<title>Node20</title>
<g id="a_node20"><a xlink:href="exif-utils_8c.html#a1feb547c289aa57a4d2119338b03706c" target="_top" xlink:title="Retrieve an ExifRational value from memory.">
<polygon fill="white" stroke="black" points="557,-517 557,-536 656,-536 656,-517 557,-517"/>
<text text-anchor="middle" x="606.5" y="-524" font-family="Helvetica,sans-Serif" font-size="10.00">exif_get_rational</text>
</a>
</g>
</g>
<!-- Node17&#45;&gt;Node20 -->
<g id="edge20" class="edge">
<title>Node17&#45;&gt;Node20</title>
<path fill="none" stroke="midnightblue" d="M469.06,-581.38C490.33,-570.63 520.05,-556.25 547,-545.5 552.46,-543.32 558.29,-541.2 564.06,-539.21"/>
<polygon fill="midnightblue" stroke="midnightblue" points="565.28,-542.5 573.66,-536.01 563.06,-535.86 565.28,-542.5"/>
</g>
<!-- Node21 -->
<g id="node21" class="node">
<title>Node21</title>
<g id="a_node21"><a xlink:href="exif-utils_8c.html#a4b4acf537a8c6b9405e7b53be868e4d7" target="_top" xlink:title="Retrieve an ExifShort value from memory.">
<polygon fill="white" stroke="black" points="563.5,-593 563.5,-612 649.5,-612 649.5,-593 563.5,-593"/>
<text text-anchor="middle" x="606.5" y="-600" font-family="Helvetica,sans-Serif" font-size="10.00">exif_get_short</text>
</a>
</g>
</g>
<!-- Node17&#45;&gt;Node21 -->
<g id="edge22" class="edge">
<title>Node17&#45;&gt;Node21</title>
<path fill="none" stroke="midnightblue" d="M499.75,-598.67C517.23,-599.3 536.2,-599.99 553.18,-600.6"/>
<polygon fill="midnightblue" stroke="midnightblue" points="553.35,-604.11 563.47,-600.98 553.6,-597.12 553.35,-604.11"/>
</g>
<!-- Node22 -->
<g id="node22" class="node">
<title>Node22</title>
<g id="a_node22"><a xlink:href="exif-utils_8c.html#a6baf094a71392f9cea23ad633ec13c8b" target="_top" xlink:title="Retrieve an ExifSShort value from memory.">
<polygon fill="white" stroke="black" points="708,-593 708,-612 800,-612 800,-593 708,-593"/>
<text text-anchor="middle" x="754" y="-600" font-family="Helvetica,sans-Serif" font-size="10.00">exif_get_sshort</text>
</a>
</g>
</g>
<!-- Node17&#45;&gt;Node22 -->
<g id="edge27" class="edge">
<title>Node17&#45;&gt;Node22</title>
<path fill="none" stroke="midnightblue" d="M493.46,-611.53C510.44,-615.61 529.38,-619.47 547,-621.5 599.54,-627.56 613.42,-627.18 666,-621.5 679.72,-620.02 694.45,-617.26 707.81,-614.3"/>
<polygon fill="midnightblue" stroke="midnightblue" points="708.77,-617.67 717.73,-612.01 707.2,-610.85 708.77,-617.67"/>
</g>
<!-- Node23 -->
<g id="node23" class="node">
<title>Node23</title>
<g id="a_node23"><a xlink:href="exif-utils_8c.html#adb97c3499488d5642a82df1cb16dc2cb" target="_top" xlink:title="Retrieve an ExifSRational value from memory.">
<polygon fill="white" stroke="black" points="554.5,-479 554.5,-498 658.5,-498 658.5,-479 554.5,-479"/>
<text text-anchor="middle" x="606.5" y="-486" font-family="Helvetica,sans-Serif" font-size="10.00">exif_get_srational</text>
</a>
</g>
</g>
<!-- Node17&#45;&gt;Node23 -->
<g id="edge25" class="edge">
<title>Node17&#45;&gt;Node23</title>
<path fill="none" stroke="midnightblue" d="M454.57,-581.2C473.98,-561.62 510.18,-527.8 547,-507.5 550.89,-505.35 555.07,-503.4 559.33,-501.64"/>
<polygon fill="midnightblue" stroke="midnightblue" points="560.6,-504.9 568.71,-498.08 558.12,-498.35 560.6,-504.9"/>
</g>
<!-- Node18&#45;&gt;Node19 -->
<g id="edge19" class="edge">
<title>Node18&#45;&gt;Node19</title>
<path fill="none" stroke="midnightblue" d="M780.54,-706.95C789.07,-703.13 798.34,-698.27 806,-692.5 833.53,-671.78 858.53,-640.16 872.73,-620.44"/>
<polygon fill="midnightblue" stroke="midnightblue" points="875.74,-622.25 878.64,-612.06 870.02,-618.22 875.74,-622.25"/>
</g>
<!-- Node20&#45;&gt;Node18 -->
<g id="edge21" class="edge">
<title>Node20&#45;&gt;Node18</title>
<path fill="none" stroke="midnightblue" d="M650.9,-536.07C656.37,-538.53 661.59,-541.62 666,-545.5 694.07,-570.18 685.16,-588.14 702,-621.5 715.58,-648.39 732.24,-679.02 742.74,-698.06"/>
<polygon fill="midnightblue" stroke="midnightblue" points="739.72,-699.82 747.63,-706.87 745.84,-696.43 739.72,-699.82"/>
</g>
<!-- Node21&#45;&gt;Node22 -->
<g id="edge23" class="edge">
<title>Node21&#45;&gt;Node22</title>
<path fill="none" stroke="midnightblue" d="M649.58,-602.5C664.59,-602.5 681.73,-602.5 697.69,-602.5"/>
<polygon fill="midnightblue" stroke="midnightblue" points="697.96,-606 707.96,-602.5 697.96,-599 697.96,-606"/>
</g>
<!-- Node23&#45;&gt;Node19 -->
<g id="edge26" class="edge">
<title>Node23&#45;&gt;Node19</title>
<path fill="none" stroke="midnightblue" d="M638.66,-498.01C647.55,-500.89 657.21,-504.18 666,-507.5 734.9,-533.57 813.7,-569.23 855.44,-588.6"/>
<polygon fill="midnightblue" stroke="midnightblue" points="854.19,-591.89 864.74,-592.94 857.15,-585.54 854.19,-591.89"/>
</g>
<!-- Node24&#45;&gt;Node2 -->
<g id="edge34" class="edge">
<title>Node24&#45;&gt;Node2</title>
<path fill="none" stroke="midnightblue" d="M304.8,-732.03C314.46,-735.82 323.84,-741.11 331,-748.5 367.68,-786.36 328.86,-825.11 367,-861.5 371.32,-865.62 376.43,-868.87 381.89,-871.43"/>
<polygon fill="midnightblue" stroke="midnightblue" points="380.77,-874.74 391.36,-875.11 383.31,-868.22 380.77,-874.74"/>
</g>
<!-- Node24&#45;&gt;Node7 -->
<g id="edge35" class="edge">
<title>Node24&#45;&gt;Node7</title>
<path fill="none" stroke="midnightblue" d="M300.64,-732.07C311.36,-735.91 322.27,-741.21 331,-748.5 355.75,-769.17 342.23,-790.85 367,-811.5 369.02,-813.18 371.16,-814.76 373.39,-816.23"/>
<polygon fill="midnightblue" stroke="midnightblue" points="371.96,-819.44 382.37,-821.4 375.46,-813.38 371.96,-819.44"/>
</g>
<!-- Node24&#45;&gt;Node13 -->
<g id="edge36" class="edge">
<title>Node24&#45;&gt;Node13</title>
<path fill="none" stroke="midnightblue" d="M273.79,-712.8C294.83,-700.53 332.82,-679.22 367,-664.5 376.41,-660.45 386.75,-656.62 396.56,-653.26"/>
<polygon fill="midnightblue" stroke="midnightblue" points="397.75,-656.55 406.13,-650.06 395.54,-649.91 397.75,-656.55"/>
</g>
<!-- Node24&#45;&gt;Node18 -->
<g id="edge30" class="edge">
<title>Node24&#45;&gt;Node18</title>
<path fill="none" stroke="midnightblue" d="M329.83,-723.52C411.5,-724.4 548.32,-725.02 666,-721.5 677.7,-721.15 690.27,-720.55 702.11,-719.89"/>
<polygon fill="midnightblue" stroke="midnightblue" points="702.52,-723.38 712.3,-719.3 702.11,-716.39 702.52,-723.38"/>
</g>
<!-- Node24&#45;&gt;Node21 -->
<g id="edge31" class="edge">
<title>Node24&#45;&gt;Node21</title>
<path fill="none" stroke="midnightblue" d="M329.66,-725.88C382.28,-725.57 454.05,-719.27 511,-692.5 545.98,-676.06 576.31,-641.55 592.65,-620.37"/>
<polygon fill="midnightblue" stroke="midnightblue" points="595.58,-622.3 598.77,-612.19 589.98,-618.1 595.58,-622.3"/>
</g>
<!-- Node25 -->
<g id="node25" class="node">
<title>Node25</title>
<g id="a_node25"><a xlink:href="exif-format_8c.html#a924038efe0cd8ebade8f44619dd794f3" target="_top" xlink:title="Return the raw size of the given EXIF data type.">
<polygon fill="white" stroke="black" points="547,-555 547,-574 666,-574 666,-555 547,-555"/>
<text text-anchor="middle" x="606.5" y="-562" font-family="Helvetica,sans-Serif" font-size="10.00">exif_format_get_size</text>
</a>
</g>
</g>
<!-- Node24&#45;&gt;Node25 -->
<g id="edge29" class="edge">
<title>Node24&#45;&gt;Node25</title>
<path fill="none" stroke="midnightblue" d="M290.95,-712.94C312.58,-706.86 341.38,-698.94 367,-692.5 430.68,-676.49 459.82,-700.62 511,-659.5 540.14,-636.09 518.93,-608.18 547,-583.5 548.93,-581.8 551.01,-580.26 553.21,-578.85"/>
<polygon fill="midnightblue" stroke="midnightblue" points="554.94,-581.89 562.1,-574.07 551.63,-575.72 554.94,-581.89"/>
</g>
<!-- Node26 -->
<g id="node26" class="node">
<title>Node26</title>
<g id="a_node26"><a xlink:href="exif-log_8c.html#a025d4a5d96544913ea6f6ebbec69cb68" target="_top" xlink:title=" ">
<polygon fill="white" stroke="black" points="411,-783 411,-802 467,-802 467,-783 411,-783"/>
<text text-anchor="middle" x="439" y="-790" font-family="Helvetica,sans-Serif" font-size="10.00">exif_log</text>
</a>
</g>
</g>
<!-- Node24&#45;&gt;Node26 -->
<g id="edge32" class="edge">
<title>Node24&#45;&gt;Node26</title>
<path fill="none" stroke="midnightblue" d="M287.99,-732.01C301.38,-736.51 317.18,-742.27 331,-748.5 347.69,-756.02 350.26,-761.09 367,-768.5 377.95,-773.35 390.21,-777.81 401.41,-781.54"/>
<polygon fill="midnightblue" stroke="midnightblue" points="400.34,-784.87 410.93,-784.62 402.49,-778.21 400.34,-784.87"/>
</g>
<!-- Node27 -->
<g id="node27" class="node">
<title>Node27</title>
<g id="a_node27"><a xlink:href="exif-log_8c.html#a99101b5ad01b2d82ce9d43c9e8534627" target="_top" xlink:title=" ">
<polygon fill="white" stroke="black" points="575.5,-783 575.5,-802 637.5,-802 637.5,-783 575.5,-783"/>
<text text-anchor="middle" x="606.5" y="-790" font-family="Helvetica,sans-Serif" font-size="10.00">exif_logv</text>
</a>
</g>
</g>
<!-- Node26&#45;&gt;Node27 -->
<g id="edge33" class="edge">
<title>Node26&#45;&gt;Node27</title>
<path fill="none" stroke="midnightblue" d="M467.33,-792.5C493.94,-792.5 534.7,-792.5 565.06,-792.5"/>
<polygon fill="midnightblue" stroke="midnightblue" points="565.33,-796 575.33,-792.5 565.33,-789 565.33,-796"/>
</g>
<!-- Node28&#45;&gt;Node2 -->
<g id="edge39" class="edge">
<title>Node28&#45;&gt;Node2</title>
<path fill="none" stroke="midnightblue" d="M317.82,-513.01C322.79,-515.73 327.31,-519.17 331,-523.5 428.97,-638.5 268.79,-746.71 367,-861.5 371.14,-866.34 376.36,-870.01 382.08,-872.79"/>
<polygon fill="midnightblue" stroke="midnightblue" points="380.82,-876.05 391.41,-876.46 383.38,-869.54 380.82,-876.05"/>
</g>
<!-- Node28&#45;&gt;Node25 -->
<g id="edge38" class="edge">
<title>Node28&#45;&gt;Node25</title>
<path fill="none" stroke="midnightblue" d="M311.88,-513.03C373.97,-523.92 475.46,-541.71 541.36,-553.26"/>
<polygon fill="midnightblue" stroke="midnightblue" points="540.77,-556.71 551.22,-554.99 541.98,-549.81 540.77,-556.71"/>
</g>
<!-- Node29 -->
<g id="node29" class="node">
<title>Node29</title>
<g id="a_node29"><a xlink:href="exif-mem_8c.html#a3dcfe6794d82e79e92da5e2c62484b17" target="_top" xlink:title=" ">
<polygon fill="white" stroke="black" points="387,-359 387,-378 491,-378 491,-359 387,-359"/>
<text text-anchor="middle" x="439" y="-366" font-family="Helvetica,sans-Serif" font-size="10.00">exif_mem_realloc</text>
</a>
</g>
</g>
<!-- Node28&#45;&gt;Node29 -->
<g id="edge40" class="edge">
<title>Node28&#45;&gt;Node29</title>
<path fill="none" stroke="midnightblue" d="M316.36,-493.97C321.69,-491.48 326.69,-488.38 331,-484.5 364.88,-454.03 333.45,-419.34 367,-388.5 370.18,-385.58 373.76,-383.07 377.57,-380.94"/>
<polygon fill="midnightblue" stroke="midnightblue" points="379.27,-384.01 386.82,-376.58 376.28,-377.67 379.27,-384.01"/>
</g>
<!-- Node30 -->
<g id="node30" class="node">
<title>Node30</title>
<g id="a_node30"><a xlink:href="exif-utils_8c.html#ac90147d0cc97bec7a577bf9576191bf8" target="_top" xlink:title="Store an ExifLong value into memory in EXIF format.">
<polygon fill="white" stroke="black" points="713,-194 713,-213 795,-213 795,-194 713,-194"/>
<text text-anchor="middle" x="754" y="-201" font-family="Helvetica,sans-Serif" font-size="10.00">exif_set_long</text>
</a>
</g>
</g>
<!-- Node28&#45;&gt;Node30 -->
<g id="edge41" class="edge">
<title>Node28&#45;&gt;Node30</title>
<path fill="none" stroke="midnightblue" d="M319.45,-493.83C323.76,-491.34 327.7,-488.27 331,-484.5 419.41,-383.42 281.34,-287.92 367,-184.5 453.3,-80.32 539.34,-79.97 666,-127.5 696.96,-139.12 724.13,-167.3 739.55,-185.89"/>
<polygon fill="midnightblue" stroke="midnightblue" points="736.98,-188.27 745.96,-193.89 742.44,-183.9 736.98,-188.27"/>
</g>
<!-- Node32 -->
<g id="node32" class="node">
<title>Node32</title>
<g id="a_node32"><a xlink:href="exif-utils_8c.html#ad905d16e26b4052a1db34dbebdc37341" target="_top" xlink:title="Store an ExifShort value into memory in EXIF format.">
<polygon fill="white" stroke="black" points="563.5,-137 563.5,-156 649.5,-156 649.5,-137 563.5,-137"/>
<text text-anchor="middle" x="606.5" y="-144" font-family="Helvetica,sans-Serif" font-size="10.00">exif_set_short</text>
</a>
</g>
</g>
<!-- Node28&#45;&gt;Node32 -->
<g id="edge43" class="edge">
<title>Node28&#45;&gt;Node32</title>
<path fill="none" stroke="midnightblue" d="M317.83,-493.86C322.67,-491.38 327.16,-488.31 331,-484.5 375.08,-440.76 336.28,-403.47 367,-349.5 423.6,-250.08 449.78,-225.8 547,-165.5 550.32,-163.44 553.9,-161.58 557.58,-159.9"/>
<polygon fill="midnightblue" stroke="midnightblue" points="558.93,-163.13 566.87,-156.11 556.28,-156.65 558.93,-163.13"/>
</g>
<!-- Node31 -->
<g id="node31" class="node">
<title>Node31</title>
<g id="a_node31"><a xlink:href="exif-utils_8c.html#ae6e3b9d1663f9ab9bd462d73a310ca03" target="_top" xlink:title="Store an ExifSLong value into memory in EXIF format.">
<polygon fill="white" stroke="black" points="842.5,-289 842.5,-308 929.5,-308 929.5,-289 842.5,-289"/>
<text text-anchor="middle" x="886" y="-296" font-family="Helvetica,sans-Serif" font-size="10.00">exif_set_slong</text>
</a>
</g>
</g>
<!-- Node30&#45;&gt;Node31 -->
<g id="edge42" class="edge">
<title>Node30&#45;&gt;Node31</title>
<path fill="none" stroke="midnightblue" d="M773.9,-213.2C783.73,-218.5 795.79,-225.42 806,-232.5 828.05,-247.8 851.42,-267.86 866.97,-281.84"/>
<polygon fill="midnightblue" stroke="midnightblue" points="864.99,-284.77 874.75,-288.9 869.7,-279.59 864.99,-284.77"/>
</g>
<!-- Node33 -->
<g id="node33" class="node">
<title>Node33</title>
<g id="a_node33"><a xlink:href="exif-utils_8c.html#a6504651147702fc6db9a5cd4aa997023" target="_top" xlink:title="Store an ExifSShort value into memory in EXIF format.">
<polygon fill="white" stroke="black" points="708.5,-242 708.5,-261 799.5,-261 799.5,-242 708.5,-242"/>
<text text-anchor="middle" x="754" y="-249" font-family="Helvetica,sans-Serif" font-size="10.00">exif_set_sshort</text>
</a>
</g>
</g>
<!-- Node32&#45;&gt;Node33 -->
<g id="edge44" class="edge">
<title>Node32&#45;&gt;Node33</title>
<path fill="none" stroke="midnightblue" d="M649.27,-156.07C655.24,-158.54 661.03,-161.63 666,-165.5 689.66,-183.89 680.33,-201.81 702,-222.5 707.85,-228.09 714.99,-233 722.04,-237.12"/>
<polygon fill="midnightblue" stroke="midnightblue" points="720.37,-240.2 730.83,-241.9 723.72,-234.05 720.37,-240.2"/>
</g>
<!-- Node34&#45;&gt;Node25 -->
<g id="edge62" class="edge">
<title>Node34&#45;&gt;Node25</title>
<path fill="none" stroke="midnightblue" d="M316.53,-550.38C377.46,-553.36 472.43,-558 536.71,-561.14"/>
<polygon fill="midnightblue" stroke="midnightblue" points="536.6,-564.64 546.76,-561.63 536.94,-557.65 536.6,-564.64"/>
</g>
<!-- Node35 -->
<g id="node35" class="node">
<title>Node35</title>
<g id="a_node35"><a xlink:href="exif-utils_8c.html#a54ef3b86ffeb643e9c4434b85ccf2992" target="_top" xlink:title=" ">
<polygon fill="white" stroke="black" points="382.5,-397.5 382.5,-427.5 495.5,-427.5 495.5,-397.5 382.5,-397.5"/>
<text text-anchor="start" x="390.5" y="-415.5" font-family="Helvetica,sans-Serif" font-size="10.00">exif_array_set_byte</text>
<text text-anchor="middle" x="439" y="-404.5" font-family="Helvetica,sans-Serif" font-size="10.00">_order</text>
</a>
</g>
</g>
<!-- Node34&#45;&gt;Node35 -->
<g id="edge46" class="edge">
<title>Node34&#45;&gt;Node35</title>
<path fill="none" stroke="midnightblue" d="M311.46,-532.47C318.27,-529.62 324.96,-526.32 331,-522.5 367.87,-499.2 401.34,-460.72 420.68,-436"/>
<polygon fill="midnightblue" stroke="midnightblue" points="423.6,-437.94 426.91,-427.88 418.05,-433.68 423.6,-437.94"/>
</g>
<!-- Node35&#45;&gt;Node18 -->
<g id="edge48" class="edge">
<title>Node35&#45;&gt;Node18</title>
<path fill="none" stroke="midnightblue" d="M495.57,-423.39C558.51,-436.2 653.95,-457.27 666,-469.5 714.73,-518.95 677.37,-556.59 702,-621.5 712.63,-649.52 729.91,-679.65 741.37,-698.29"/>
<polygon fill="midnightblue" stroke="midnightblue" points="738.49,-700.29 746.76,-706.92 744.43,-696.58 738.49,-700.29"/>
</g>
<!-- Node35&#45;&gt;Node19 -->
<g id="edge51" class="edge">
<title>Node35&#45;&gt;Node19</title>
<path fill="none" stroke="midnightblue" d="M494.74,-397.46C541.64,-387.32 610.26,-379.14 666,-399.5 764.69,-435.54 844.38,-541.75 873.3,-584.44"/>
<polygon fill="midnightblue" stroke="midnightblue" points="870.52,-586.58 878.97,-592.97 876.35,-582.71 870.52,-586.58"/>
</g>
<!-- Node35&#45;&gt;Node20 -->
<g id="edge49" class="edge">
<title>Node35&#45;&gt;Node20</title>
<path fill="none" stroke="midnightblue" d="M453.38,-427.81C472.3,-448.6 508.84,-485.65 547,-507.5 550.7,-509.62 554.67,-511.54 558.74,-513.27"/>
<polygon fill="midnightblue" stroke="midnightblue" points="557.72,-516.63 568.31,-516.98 560.25,-510.1 557.72,-516.63"/>
</g>
<!-- Node35&#45;&gt;Node21 -->
<g id="edge50" class="edge">
<title>Node35&#45;&gt;Node21</title>
<path fill="none" stroke="midnightblue" d="M445.29,-427.53C457.71,-460.67 491.93,-540.51 547,-583.5 549.33,-585.32 551.84,-586.96 554.46,-588.46"/>
<polygon fill="midnightblue" stroke="midnightblue" points="553.19,-591.73 563.71,-592.95 556.25,-585.43 553.19,-591.73"/>
</g>
<!-- Node35&#45;&gt;Node22 -->
<g id="edge53" class="edge">
<title>Node35&#45;&gt;Node22</title>
<path fill="none" stroke="midnightblue" d="M495.59,-404.59C544.63,-400.61 615.91,-402.46 666,-436.5 717.48,-471.49 740.6,-546.88 749,-582.75"/>
<polygon fill="midnightblue" stroke="midnightblue" points="745.67,-583.89 751.23,-592.91 752.51,-582.39 745.67,-583.89"/>
</g>
<!-- Node35&#45;&gt;Node23 -->
<g id="edge52" class="edge">
<title>Node35&#45;&gt;Node23</title>
<path fill="none" stroke="midnightblue" d="M469.74,-427.58C491.08,-438.24 520.61,-452.69 547,-464.5 554.99,-468.08 563.69,-471.76 571.87,-475.13"/>
<polygon fill="midnightblue" stroke="midnightblue" points="570.58,-478.38 581.16,-478.91 573.22,-471.9 570.58,-478.38"/>
</g>
<!-- Node35&#45;&gt;Node25 -->
<g id="edge47" class="edge">
<title>Node35&#45;&gt;Node25</title>
<path fill="none" stroke="midnightblue" d="M454.15,-427.58C468.88,-443.52 492.36,-469.62 511,-493.5 528.29,-515.66 524.45,-528.72 547,-545.5 549.61,-547.44 552.43,-549.19 555.38,-550.77"/>
<polygon fill="midnightblue" stroke="midnightblue" points="553.93,-553.96 564.48,-554.99 556.88,-547.61 553.93,-553.96"/>
</g>
<!-- Node35&#45;&gt;Node30 -->
<g id="edge54" class="edge">
<title>Node35&#45;&gt;Node30</title>
<path fill="none" stroke="midnightblue" d="M495.74,-399.19C501.43,-396.08 506.69,-392.24 511,-387.5 555.67,-338.37 498.75,-288.11 547,-242.5 568.99,-221.71 649.33,-211.47 702.93,-206.85"/>
<polygon fill="midnightblue" stroke="midnightblue" points="703.26,-210.34 712.94,-206.03 702.69,-203.36 703.26,-210.34"/>
</g>
<!-- Node35&#45;&gt;Node31 -->
<g id="edge58" class="edge">
<title>Node35&#45;&gt;Node31</title>
<path fill="none" stroke="midnightblue" d="M488.97,-397.48C496.51,-394.53 504.09,-391.2 511,-387.5 528.64,-378.07 528.61,-368.36 547,-360.5 654.29,-314.63 691.65,-340.71 806,-317.5 816.37,-315.39 827.45,-312.89 837.93,-310.4"/>
<polygon fill="midnightblue" stroke="midnightblue" points="838.85,-313.78 847.75,-308.04 837.21,-306.98 838.85,-313.78"/>
</g>
<!-- Node35&#45;&gt;Node32 -->
<g id="edge57" class="edge">
<title>Node35&#45;&gt;Node32</title>
<path fill="none" stroke="midnightblue" d="M495.79,-399.73C501.55,-396.52 506.81,-392.51 511,-387.5 575.13,-310.82 481.94,-241.38 547,-165.5 549.19,-162.95 551.73,-160.73 554.49,-158.82"/>
<polygon fill="midnightblue" stroke="midnightblue" points="556.3,-161.81 563.35,-153.91 552.91,-155.69 556.3,-161.81"/>
</g>
<!-- Node35&#45;&gt;Node33 -->
<g id="edge61" class="edge">
<title>Node35&#45;&gt;Node33</title>
<path fill="none" stroke="midnightblue" d="M495.65,-398.57C501.28,-395.57 506.56,-391.93 511,-387.5 544.76,-353.87 510.5,-317.14 547,-286.5 588.85,-251.37 652.75,-245.46 698.28,-246.55"/>
<polygon fill="midnightblue" stroke="midnightblue" points="698.16,-250.05 708.28,-246.91 698.41,-243.05 698.16,-250.05"/>
</g>
<!-- Node36 -->
<g id="node36" class="node">
<title>Node36</title>
<g id="a_node36"><a xlink:href="exif-utils_8c.html#a400a16b1754150f721e9fca67ad89a52" target="_top" xlink:title="Store an ExifRational value into memory in EXIF format.">
<polygon fill="white" stroke="black" points="557.5,-175 557.5,-194 655.5,-194 655.5,-175 557.5,-175"/>
<text text-anchor="middle" x="606.5" y="-182" font-family="Helvetica,sans-Serif" font-size="10.00">exif_set_rational</text>
</a>
</g>
</g>
<!-- Node35&#45;&gt;Node36 -->
<g id="edge55" class="edge">
<title>Node35&#45;&gt;Node36</title>
<path fill="none" stroke="midnightblue" d="M495.61,-399.57C501.39,-396.39 506.71,-392.43 511,-387.5 564.22,-326.24 495.35,-271.09 547,-208.5 550.11,-204.73 553.91,-201.54 558.06,-198.86"/>
<polygon fill="midnightblue" stroke="midnightblue" points="559.87,-201.86 566.98,-194 556.52,-195.71 559.87,-201.86"/>
</g>
<!-- Node37 -->
<g id="node37" class="node">
<title>Node37</title>
<g id="a_node37"><a xlink:href="exif-utils_8c.html#aca1790a72b1833dff1b0bf728052c3c5" target="_top" xlink:title="Store an ExifSRational value into memory in EXIF format.">
<polygon fill="white" stroke="black" points="702,-289 702,-308 806,-308 806,-289 702,-289"/>
<text text-anchor="middle" x="754" y="-296" font-family="Helvetica,sans-Serif" font-size="10.00">exif_set_srational</text>
</a>
</g>
</g>
<!-- Node35&#45;&gt;Node37 -->
<g id="edge59" class="edge">
<title>Node35&#45;&gt;Node37</title>
<path fill="none" stroke="midnightblue" d="M495.68,-397.47C501.18,-394.67 506.41,-391.38 511,-387.5 536.22,-366.18 519.57,-340.89 547,-322.5 589.23,-294.2 647.53,-289.81 691.34,-291.57"/>
<polygon fill="midnightblue" stroke="midnightblue" points="691.41,-295.08 701.58,-292.11 691.77,-288.09 691.41,-295.08"/>
</g>
<!-- Node36&#45;&gt;Node30 -->
<g id="edge56" class="edge">
<title>Node36&#45;&gt;Node30</title>
<path fill="none" stroke="midnightblue" d="M655.55,-190.77C670.61,-192.74 687.28,-194.92 702.51,-196.91"/>
<polygon fill="midnightblue" stroke="midnightblue" points="702.41,-200.42 712.78,-198.25 703.32,-193.48 702.41,-200.42"/>
</g>
<!-- Node37&#45;&gt;Node31 -->
<g id="edge60" class="edge">
<title>Node37&#45;&gt;Node31</title>
<path fill="none" stroke="midnightblue" d="M806.01,-298.5C814.5,-298.5 823.33,-298.5 831.88,-298.5"/>
<polygon fill="midnightblue" stroke="midnightblue" points="832.12,-302 842.12,-298.5 832.12,-295 832.12,-302"/>
</g>
</g>
</svg>
