<?xml version="1.0" encoding="UTF-8" standalone="no"?>
<!DOCTYPE svg PUBLIC "-//W3C//DTD SVG 1.1//EN"
 "http://www.w3.org/Graphics/SVG/1.1/DTD/svg11.dtd">
<!-- Generated by graphviz version 2.44.1 (0)
 -->
<!-- Title: exif_mem_new_default Pages: 1 -->
<svg width="306pt" height="142pt"
 viewBox="0.00 0.00 306.00 142.00" xmlns="http://www.w3.org/2000/svg" xmlns:xlink="http://www.w3.org/1999/xlink">
<g id="graph0" class="graph" transform="scale(1 1) rotate(0) translate(4 138)">
<title>exif_mem_new_default</title>
<polygon fill="white" stroke="transparent" points="-4,4 -4,-138 302,-138 302,4 -4,4"/>
<!-- Node1 -->
<g id="node1" class="node">
<title>Node1</title>
<g id="a_node1"><a xlink:title="Create a new ExifMem with default values for your convenience.">
<polygon fill="#bfbfbf" stroke="black" points="0,-57.5 0,-76.5 131,-76.5 131,-57.5 0,-57.5"/>
<text text-anchor="middle" x="65.5" y="-64.5" font-family="Helvetica,sans-Serif" font-size="10.00">exif_mem_new_default</text>
</a>
</g>
</g>
<!-- Node2 -->
<g id="node2" class="node">
<title>Node2</title>
<g id="a_node2"><a xlink:href="exif-mem_8c.html#ae96feb62e763070ed3d70ca66f15feaa" target="_top" xlink:title="Default memory allocation function.">
<polygon fill="white" stroke="black" points="172,-114.5 172,-133.5 293,-133.5 293,-114.5 172,-114.5"/>
<text text-anchor="middle" x="232.5" y="-121.5" font-family="Helvetica,sans-Serif" font-size="10.00">exif_mem_alloc_func</text>
</a>
</g>
</g>
<!-- Node1&#45;&gt;Node2 -->
<g id="edge1" class="edge">
<title>Node1&#45;&gt;Node2</title>
<path fill="none" stroke="midnightblue" d="M90.28,-76.57C110.53,-84.58 140.48,-96.09 167,-105 173.54,-107.2 180.5,-109.39 187.34,-111.47"/>
<polygon fill="midnightblue" stroke="midnightblue" points="186.62,-114.91 197.21,-114.42 188.63,-108.2 186.62,-114.91"/>
</g>
<!-- Node3 -->
<g id="node3" class="node">
<title>Node3</title>
<g id="a_node3"><a xlink:href="exif-mem_8c.html#a30e654456ffed5baaf5a23f1d8817aa6" target="_top" xlink:title="Default memory free function.">
<polygon fill="white" stroke="black" points="174,-76.5 174,-95.5 291,-95.5 291,-76.5 174,-76.5"/>
<text text-anchor="middle" x="232.5" y="-83.5" font-family="Helvetica,sans-Serif" font-size="10.00">exif_mem_free_func</text>
</a>
</g>
</g>
<!-- Node1&#45;&gt;Node3 -->
<g id="edge2" class="edge">
<title>Node1&#45;&gt;Node3</title>
<path fill="none" stroke="midnightblue" d="M131.24,-74.45C141.91,-75.68 153,-76.96 163.75,-78.2"/>
<polygon fill="midnightblue" stroke="midnightblue" points="163.58,-81.7 173.92,-79.37 164.38,-74.75 163.58,-81.7"/>
</g>
<!-- Node4 -->
<g id="node4" class="node">
<title>Node4</title>
<g id="a_node4"><a xlink:href="exif-mem_8c.html#a5db78241cb6c1752209e8e28f295ea41" target="_top" xlink:title="Create a new ExifMem.">
<polygon fill="white" stroke="black" points="186.5,-38.5 186.5,-57.5 278.5,-57.5 278.5,-38.5 186.5,-38.5"/>
<text text-anchor="middle" x="232.5" y="-45.5" font-family="Helvetica,sans-Serif" font-size="10.00">exif_mem_new</text>
</a>
</g>
</g>
<!-- Node1&#45;&gt;Node4 -->
<g id="edge3" class="edge">
<title>Node1&#45;&gt;Node4</title>
<path fill="none" stroke="midnightblue" d="M131.24,-59.55C146.06,-57.84 161.68,-56.04 176.07,-54.38"/>
<polygon fill="midnightblue" stroke="midnightblue" points="176.77,-57.83 186.3,-53.2 175.97,-50.87 176.77,-57.83"/>
</g>
<!-- Node5 -->
<g id="node5" class="node">
<title>Node5</title>
<g id="a_node5"><a xlink:href="exif-mem_8c.html#ace345dfcefc8f8a8aa04a7f47ab419c9" target="_top" xlink:title="Default memory reallocation function.">
<polygon fill="white" stroke="black" points="167,-0.5 167,-19.5 298,-19.5 298,-0.5 167,-0.5"/>
<text text-anchor="middle" x="232.5" y="-7.5" font-family="Helvetica,sans-Serif" font-size="10.00">exif_mem_realloc_func</text>
</a>
</g>
</g>
<!-- Node1&#45;&gt;Node5 -->
<g id="edge4" class="edge">
<title>Node1&#45;&gt;Node5</title>
<path fill="none" stroke="midnightblue" d="M90.28,-57.43C110.53,-49.42 140.48,-37.91 167,-29 173.54,-26.8 180.5,-24.61 187.34,-22.53"/>
<polygon fill="midnightblue" stroke="midnightblue" points="188.63,-25.8 197.21,-19.58 186.62,-19.09 188.63,-25.8"/>
</g>
</g>
</svg>
