<?xml version="1.0" encoding="UTF-8" standalone="no"?>
<!DOCTYPE svg PUBLIC "-//W3C//DTD SVG 1.1//EN"
 "http://www.w3.org/Graphics/SVG/1.1/DTD/svg11.dtd">
<!-- Generated by graphviz version 7.0.1 (0)
 -->
<!-- Title: libexif/exif&#45;entry.h Pages: 1 -->
<svg width="2422pt" height="412pt"
 viewBox="0.00 0.00 2422.22 412.00" xmlns="http://www.w3.org/2000/svg" xmlns:xlink="http://www.w3.org/1999/xlink">
<g id="graph0" class="graph" transform="scale(1 1) rotate(0) translate(4 408)">
<title>libexif/exif&#45;entry.h</title>
<!-- Node1 -->
<g id="Node000001" class="node">
<title>Node1</title>
<g id="a_Node000001"><a xlink:title="Handling EXIF entries.">
<polygon fill="#999999" stroke="#666666" points="619.5,-404 515.5,-404 515.5,-385 619.5,-385 619.5,-404"/>
<text text-anchor="middle" x="567.5" y="-392" font-family="Helvetica,sans-Serif" font-size="10.00">libexif/exif&#45;entry.h</text>
</a>
</g>
</g>
<!-- Node2 -->
<g id="Node000002" class="node">
<title>Node2</title>
<g id="a_Node000002"><a xlink:href="mnote-apple-entry_8c.html" target="_top" xlink:title=" ">
<polygon fill="white" stroke="#666666" points="164.5,-349 52.5,-349 52.5,-319 164.5,-319 164.5,-349"/>
<text text-anchor="start" x="60.5" y="-337" font-family="Helvetica,sans-Serif" font-size="10.00">libexif/apple/mnote</text>
<text text-anchor="middle" x="108.5" y="-326" font-family="Helvetica,sans-Serif" font-size="10.00">&#45;apple&#45;entry.c</text>
</a>
</g>
</g>
<!-- Node1&#45;&gt;Node2 -->
<g id="edge1_Node000001_Node000002" class="edge">
<title>Node1&#45;&gt;Node2</title>
<g id="a_edge1_Node000001_Node000002"><a xlink:title=" ">
<path fill="none" stroke="#63b8ff" d="M503.65,-387.85C426.4,-380.62 292.52,-366.89 178.5,-349 174.09,-348.31 169.54,-347.53 164.97,-346.71"/>
<polygon fill="#63b8ff" stroke="#63b8ff" points="503.3,-391.33 513.58,-388.77 503.95,-384.36 503.3,-391.33"/>
</a>
</g>
</g>
<!-- Node3 -->
<g id="Node000003" class="node">
<title>Node3</title>
<g id="a_Node000003"><a xlink:href="exif-content_8h.html" target="_top" xlink:title="Handling EXIF IFDs.">
<polygon fill="white" stroke="#666666" points="626,-343.5 509,-343.5 509,-324.5 626,-324.5 626,-343.5"/>
<text text-anchor="middle" x="567.5" y="-331.5" font-family="Helvetica,sans-Serif" font-size="10.00">libexif/exif&#45;content.h</text>
</a>
</g>
</g>
<!-- Node1&#45;&gt;Node3 -->
<g id="edge2_Node000001_Node000003" class="edge">
<title>Node1&#45;&gt;Node3</title>
<g id="a_edge2_Node000001_Node000003"><a xlink:title=" ">
<path fill="none" stroke="#63b8ff" d="M561.07,-373.66C560.35,-363.45 560.84,-351.54 562.54,-343.67"/>
<polygon fill="#63b8ff" stroke="#63b8ff" points="557.57,-373.91 562.35,-383.37 564.51,-373 557.57,-373.91"/>
</a>
</g>
</g>
<!-- Node20 -->
<g id="Node000020" class="node">
<title>Node20</title>
<g id="a_Node000020"><a xlink:href="test-null_8c.html" target="_top" xlink:title="Pass NULL values into libexif APIs and ensure it doesn&#39;t crash.">
<polygon fill="white" stroke="#666666" points="87,-156.5 0,-156.5 0,-137.5 87,-137.5 87,-156.5"/>
<text text-anchor="middle" x="43.5" y="-144.5" font-family="Helvetica,sans-Serif" font-size="10.00">test/test&#45;null.c</text>
</a>
</g>
</g>
<!-- Node1&#45;&gt;Node20 -->
<g id="edge56_Node000001_Node000020" class="edge">
<title>Node1&#45;&gt;Node20</title>
<g id="a_edge56_Node000001_Node000020"><a xlink:title=" ">
<path fill="none" stroke="#63b8ff" d="M537.18,-379.93C474.96,-352 328.43,-285.86 206.5,-228 153.24,-202.73 90.82,-171.69 61.03,-156.79"/>
<polygon fill="#63b8ff" stroke="#63b8ff" points="535.52,-383.02 546.07,-383.91 538.38,-376.63 535.52,-383.02"/>
</a>
</g>
</g>
<!-- Node37 -->
<g id="Node000037" class="node">
<title>Node37</title>
<g id="a_Node000037"><a xlink:href="exif-entry_8c.html" target="_top" xlink:title=" ">
<polygon fill="white" stroke="#666666" points="748.5,-343.5 644.5,-343.5 644.5,-324.5 748.5,-324.5 748.5,-343.5"/>
<text text-anchor="middle" x="696.5" y="-331.5" font-family="Helvetica,sans-Serif" font-size="10.00">libexif/exif&#45;entry.c</text>
</a>
</g>
</g>
<!-- Node1&#45;&gt;Node37 -->
<g id="edge53_Node000001_Node000037" class="edge">
<title>Node1&#45;&gt;Node37</title>
<g id="a_edge53_Node000001_Node000037"><a xlink:title=" ">
<path fill="none" stroke="#63b8ff" d="M597.56,-379.87C621.95,-368.81 655.62,-353.54 676.72,-343.97"/>
<polygon fill="#63b8ff" stroke="#63b8ff" points="596.13,-376.67 588.47,-383.99 599.02,-383.05 596.13,-376.67"/>
</a>
</g>
</g>
<!-- Node38 -->
<g id="Node000038" class="node">
<title>Node38</title>
<g id="a_Node000038"><a xlink:href="mnote-olympus-entry_8c.html" target="_top" xlink:title=" ">
<polygon fill="white" stroke="#666666" points="894,-349 767,-349 767,-319 894,-319 894,-349"/>
<text text-anchor="start" x="775" y="-337" font-family="Helvetica,sans-Serif" font-size="10.00">libexif/olympus/mnote</text>
<text text-anchor="middle" x="830.5" y="-326" font-family="Helvetica,sans-Serif" font-size="10.00">&#45;olympus&#45;entry.c</text>
</a>
</g>
</g>
<!-- Node1&#45;&gt;Node38 -->
<g id="edge54_Node000001_Node000038" class="edge">
<title>Node1&#45;&gt;Node38</title>
<g id="a_edge54_Node000001_Node000038"><a xlink:title=" ">
<path fill="none" stroke="#63b8ff" d="M618.89,-382.07C661.19,-372.66 721.37,-359.27 766.74,-349.18"/>
<polygon fill="#63b8ff" stroke="#63b8ff" points="618.21,-378.63 609.21,-384.22 619.73,-385.47 618.21,-378.63"/>
</a>
</g>
</g>
<!-- Node39 -->
<g id="Node000039" class="node">
<title>Node39</title>
<g id="a_Node000039"><a xlink:href="mnote-pentax-entry_8c.html" target="_top" xlink:title=" ">
<polygon fill="white" stroke="#666666" points="1031,-349 912,-349 912,-319 1031,-319 1031,-349"/>
<text text-anchor="start" x="920" y="-337" font-family="Helvetica,sans-Serif" font-size="10.00">libexif/pentax/mnote</text>
<text text-anchor="middle" x="971.5" y="-326" font-family="Helvetica,sans-Serif" font-size="10.00">&#45;pentax&#45;entry.c</text>
</a>
</g>
</g>
<!-- Node1&#45;&gt;Node39 -->
<g id="edge55_Node000001_Node000039" class="edge">
<title>Node1&#45;&gt;Node39</title>
<g id="a_edge55_Node000001_Node000039"><a xlink:title=" ">
<path fill="none" stroke="#63b8ff" d="M631.17,-386.35C698.71,-378.46 808.42,-364.77 902.5,-349 905.51,-348.49 908.6,-347.95 911.71,-347.39"/>
<polygon fill="#63b8ff" stroke="#63b8ff" points="630.92,-382.86 621.39,-387.49 631.73,-389.81 630.92,-382.86"/>
</a>
</g>
</g>
<!-- Node3&#45;&gt;Node1 -->
<g id="edge52_Node000003_Node000001" class="edge">
<title>Node3&#45;&gt;Node1</title>
<g id="a_edge52_Node000003_Node000001"><a xlink:title=" ">
<path fill="none" stroke="#63b8ff" d="M573.93,-354.89C574.65,-365.1 574.15,-377 572.46,-384.87"/>
<polygon fill="#63b8ff" stroke="#63b8ff" points="577.43,-354.63 572.66,-345.17 570.49,-355.54 577.43,-354.63"/>
</a>
</g>
</g>
<!-- Node4 -->
<g id="Node000004" class="node">
<title>Node4</title>
<g id="a_Node000004"><a xlink:href="exif-content_8c.html" target="_top" xlink:title=" ">
<polygon fill="white" stroke="#666666" points="625.5,-283 509.5,-283 509.5,-264 625.5,-264 625.5,-283"/>
<text text-anchor="middle" x="567.5" y="-271" font-family="Helvetica,sans-Serif" font-size="10.00">libexif/exif&#45;content.c</text>
</a>
</g>
</g>
<!-- Node3&#45;&gt;Node4 -->
<g id="edge3_Node000003_Node000004" class="edge">
<title>Node3&#45;&gt;Node4</title>
<g id="a_edge3_Node000003_Node000004"><a xlink:title=" ">
<path fill="none" stroke="#63b8ff" d="M567.5,-313.16C567.5,-302.95 567.5,-291.04 567.5,-283.17"/>
<polygon fill="#63b8ff" stroke="#63b8ff" points="564,-312.85 567.5,-322.85 571,-312.85 564,-312.85"/>
</a>
</g>
</g>
<!-- Node5 -->
<g id="Node000005" class="node">
<title>Node5</title>
<g id="a_Node000005"><a xlink:href="exif-data_8h.html" target="_top" xlink:title="Defines the ExifData type and the associated functions.">
<polygon fill="white" stroke="#666666" points="1090.5,-283 988.5,-283 988.5,-264 1090.5,-264 1090.5,-283"/>
<text text-anchor="middle" x="1039.5" y="-271" font-family="Helvetica,sans-Serif" font-size="10.00">libexif/exif&#45;data.h</text>
</a>
</g>
</g>
<!-- Node3&#45;&gt;Node5 -->
<g id="edge4_Node000003_Node000005" class="edge">
<title>Node3&#45;&gt;Node5</title>
<g id="a_edge4_Node000003_Node000005"><a xlink:title=" ">
<path fill="none" stroke="#63b8ff" d="M610.24,-321.83C615.68,-320.8 621.2,-319.84 626.5,-319 755.8,-298.61 909.84,-284.41 988.3,-278.13"/>
<polygon fill="#63b8ff" stroke="#63b8ff" points="609.86,-318.34 600.73,-323.72 611.22,-325.21 609.86,-318.34"/>
</a>
</g>
</g>
<!-- Node5&#45;&gt;Node3 -->
<g id="edge17_Node000005_Node000003" class="edge">
<title>Node5&#45;&gt;Node3</title>
<g id="a_edge17_Node000005_Node000003"><a xlink:title=" ">
<path fill="none" stroke="#63b8ff" d="M977.06,-280.12C898.98,-287.14 761.59,-300.54 644.5,-319 635.57,-320.41 626.04,-322.19 616.79,-324.01"/>
<polygon fill="#63b8ff" stroke="#63b8ff" points="976.98,-283.64 986.63,-279.26 976.36,-276.67 976.98,-283.64"/>
</a>
</g>
</g>
<!-- Node6 -->
<g id="Node000006" class="node">
<title>Node6</title>
<g id="a_Node000006"><a xlink:href="exif-mnote-data-apple_8c.html" target="_top" xlink:title=" ">
<polygon fill="white" stroke="#666666" points="966.5,-162 850.5,-162 850.5,-132 966.5,-132 966.5,-162"/>
<text text-anchor="start" x="858.5" y="-150" font-family="Helvetica,sans-Serif" font-size="10.00">libexif/apple/exif</text>
<text text-anchor="middle" x="908.5" y="-139" font-family="Helvetica,sans-Serif" font-size="10.00">&#45;mnote&#45;data&#45;apple.c</text>
</a>
</g>
</g>
<!-- Node5&#45;&gt;Node6 -->
<g id="edge5_Node000005_Node000006" class="edge">
<title>Node5&#45;&gt;Node6</title>
<g id="a_edge5_Node000005_Node000006"><a xlink:title=" ">
<path fill="none" stroke="#63b8ff" d="M976.73,-269.11C916.06,-264.36 830.35,-253.27 809.5,-228 787.35,-201.15 829.93,-177.06 865.97,-162.49"/>
<polygon fill="#63b8ff" stroke="#63b8ff" points="976.38,-272.59 986.61,-269.84 976.9,-265.61 976.38,-272.59"/>
</a>
</g>
</g>
<!-- Node7 -->
<g id="Node000007" class="node">
<title>Node7</title>
<g id="a_Node000007"><a xlink:href="exif-mnote-data-apple_8h.html" target="_top" xlink:title=" ">
<polygon fill="white" stroke="#666666" points="762,-228 645,-228 645,-198 762,-198 762,-228"/>
<text text-anchor="start" x="653" y="-216" font-family="Helvetica,sans-Serif" font-size="10.00">libexif/apple/exif</text>
<text text-anchor="middle" x="703.5" y="-205" font-family="Helvetica,sans-Serif" font-size="10.00">&#45;mnote&#45;data&#45;apple.h</text>
</a>
</g>
</g>
<!-- Node5&#45;&gt;Node7 -->
<g id="edge6_Node000005_Node000007" class="edge">
<title>Node5&#45;&gt;Node7</title>
<g id="a_edge6_Node000005_Node000007"><a xlink:title=" ">
<path fill="none" stroke="#63b8ff" d="M976.72,-262.27C923.4,-253.49 844.86,-240.34 776.5,-228 771.93,-227.17 767.2,-226.31 762.45,-225.42"/>
<polygon fill="#63b8ff" stroke="#63b8ff" points="976.11,-265.72 986.55,-263.89 977.25,-258.81 976.11,-265.72"/>
</a>
</g>
</g>
<!-- Node8 -->
<g id="Node000008" class="node">
<title>Node8</title>
<g id="a_Node000008"><a xlink:href="exif-mnote-data-canon_8c.html" target="_top" xlink:title=" ">
<polygon fill="white" stroke="#666666" points="2231,-30 2112,-30 2112,0 2231,0 2231,-30"/>
<text text-anchor="start" x="2120" y="-18" font-family="Helvetica,sans-Serif" font-size="10.00">libexif/canon/exif</text>
<text text-anchor="middle" x="2171.5" y="-7" font-family="Helvetica,sans-Serif" font-size="10.00">&#45;mnote&#45;data&#45;canon.c</text>
</a>
</g>
</g>
<!-- Node5&#45;&gt;Node8 -->
<g id="edge8_Node000005_Node000008" class="edge">
<title>Node5&#45;&gt;Node8</title>
<g id="a_edge8_Node000005_Node000008"><a xlink:title=" ">
<path fill="none" stroke="#63b8ff" d="M1102.39,-271.98C1339.55,-269.76 2172.13,-259.78 2286.5,-228 2344.77,-211.81 2374.81,-214.11 2405.5,-162 2449.48,-87.32 2314.29,-45.26 2231.31,-27.02"/>
<polygon fill="#63b8ff" stroke="#63b8ff" points="1102.37,-268.48 1092.4,-272.07 1102.44,-275.47 1102.37,-268.48"/>
</a>
</g>
</g>
<!-- Node9 -->
<g id="Node000009" class="node">
<title>Node9</title>
<g id="a_Node000009"><a xlink:href="exif-mnote-data-canon_8h.html" target="_top" xlink:title=" ">
<polygon fill="white" stroke="#666666" points="1979,-96 1860,-96 1860,-66 1979,-66 1979,-96"/>
<text text-anchor="start" x="1868" y="-84" font-family="Helvetica,sans-Serif" font-size="10.00">libexif/canon/exif</text>
<text text-anchor="middle" x="1919.5" y="-73" font-family="Helvetica,sans-Serif" font-size="10.00">&#45;mnote&#45;data&#45;canon.h</text>
</a>
</g>
</g>
<!-- Node5&#45;&gt;Node9 -->
<g id="edge9_Node000005_Node000009" class="edge">
<title>Node5&#45;&gt;Node9</title>
<g id="a_edge9_Node000005_Node000009"><a xlink:title=" ">
<path fill="none" stroke="#63b8ff" d="M1102.22,-271.5C1284.14,-268.28 1803.63,-256.65 1874.5,-228 1915.98,-211.23 1931.94,-202.7 1950.5,-162 1960.76,-139.5 1944.68,-112.54 1932.1,-96.37"/>
<polygon fill="#63b8ff" stroke="#63b8ff" points="1102.18,-268 1092.24,-271.68 1102.3,-275 1102.18,-268"/>
</a>
</g>
</g>
<!-- Node10 -->
<g id="Node000010" class="node">
<title>Node10</title>
<g id="a_Node000010"><a xlink:href="exif-data_8c.html" target="_top" xlink:title=" ">
<polygon fill="white" stroke="#666666" points="1624,-24.5 1523,-24.5 1523,-5.5 1624,-5.5 1624,-24.5"/>
<text text-anchor="middle" x="1573.5" y="-12.5" font-family="Helvetica,sans-Serif" font-size="10.00">libexif/exif&#45;data.c</text>
</a>
</g>
</g>
<!-- Node5&#45;&gt;Node10 -->
<g id="edge18_Node000005_Node000010" class="edge">
<title>Node5&#45;&gt;Node10</title>
<g id="a_edge18_Node000005_Node000010"><a xlink:title=" ">
<path fill="none" stroke="#63b8ff" d="M1102.35,-271.25C1225.52,-268.15 1489.13,-258.04 1516.5,-228 1525.48,-218.14 1519.56,-210.98 1516.5,-198 1512.39,-180.59 1502.61,-179.41 1498.5,-162 1495.44,-149.02 1494.73,-144.79 1498.5,-132 1511.74,-87.15 1548.32,-43.32 1565.01,-24.98"/>
<polygon fill="#63b8ff" stroke="#63b8ff" points="1102.3,-267.75 1092.39,-271.49 1102.47,-274.75 1102.3,-267.75"/>
</a>
</g>
</g>
<!-- Node11 -->
<g id="Node000011" class="node">
<title>Node11</title>
<g id="a_Node000011"><a xlink:href="mnote-canon-tag_8h.html" target="_top" xlink:title=" ">
<polygon fill="white" stroke="#666666" points="1865.5,-228 1751.5,-228 1751.5,-198 1865.5,-198 1865.5,-228"/>
<text text-anchor="start" x="1759.5" y="-216" font-family="Helvetica,sans-Serif" font-size="10.00">libexif/canon/mnote</text>
<text text-anchor="middle" x="1808.5" y="-205" font-family="Helvetica,sans-Serif" font-size="10.00">&#45;canon&#45;tag.h</text>
</a>
</g>
</g>
<!-- Node5&#45;&gt;Node11 -->
<g id="edge12_Node000005_Node000011" class="edge">
<title>Node5&#45;&gt;Node11</title>
<g id="a_edge12_Node000005_Node000011"><a xlink:title=" ">
<path fill="none" stroke="#63b8ff" d="M1102.35,-271.59C1225.66,-269.13 1507.75,-260.15 1742.5,-228 1745.4,-227.6 1748.37,-227.15 1751.35,-226.65"/>
<polygon fill="#63b8ff" stroke="#63b8ff" points="1102.36,-268.09 1092.43,-271.78 1102.49,-275.09 1102.36,-268.09"/>
</a>
</g>
</g>
<!-- Node15 -->
<g id="Node000015" class="node">
<title>Node15</title>
<g id="a_Node000015"><a xlink:href="exif-loader_8h.html" target="_top" xlink:title="Defines the ExifLoader type.">
<polygon fill="white" stroke="#666666" points="408,-222.5 297,-222.5 297,-203.5 408,-203.5 408,-222.5"/>
<text text-anchor="middle" x="352.5" y="-210.5" font-family="Helvetica,sans-Serif" font-size="10.00">libexif/exif&#45;loader.h</text>
</a>
</g>
</g>
<!-- Node5&#45;&gt;Node15 -->
<g id="edge19_Node000005_Node000015" class="edge">
<title>Node5&#45;&gt;Node15</title>
<g id="a_edge19_Node000005_Node000015"><a xlink:title=" ">
<path fill="none" stroke="#63b8ff" d="M976.7,-270.57C864.85,-266.56 623.96,-255.3 422.5,-228 412.8,-226.69 402.42,-224.85 392.7,-222.94"/>
<polygon fill="#63b8ff" stroke="#63b8ff" points="976.45,-274.07 986.57,-270.92 976.7,-267.07 976.45,-274.07"/>
</a>
</g>
</g>
<!-- Node17 -->
<g id="Node000017" class="node">
<title>Node17</title>
<g id="a_Node000017"><a xlink:href="test-fuzzer-persistent_8c.html" target="_top" xlink:title=" ">
<polygon fill="white" stroke="#666666" points="653,-156.5 502,-156.5 502,-137.5 653,-137.5 653,-156.5"/>
<text text-anchor="middle" x="577.5" y="-144.5" font-family="Helvetica,sans-Serif" font-size="10.00">test/test&#45;fuzzer&#45;persistent.c</text>
</a>
</g>
</g>
<!-- Node5&#45;&gt;Node17 -->
<g id="edge43_Node000005_Node000017" class="edge">
<title>Node5&#45;&gt;Node17</title>
<g id="a_edge43_Node000005_Node000017"><a xlink:title=" ">
<path fill="none" stroke="#63b8ff" d="M976.52,-272.05C839.85,-270.43 525.68,-262.91 493.5,-228 468.38,-200.75 522.77,-171.35 555.34,-156.96"/>
<polygon fill="#63b8ff" stroke="#63b8ff" points="976.46,-275.55 986.49,-272.17 976.53,-268.55 976.46,-275.55"/>
</a>
</g>
</g>
<!-- Node18 -->
<g id="Node000018" class="node">
<title>Node18</title>
<g id="a_Node000018"><a xlink:href="test-fuzzer_8c.html" target="_top" xlink:title=" ">
<polygon fill="white" stroke="#666666" points="204,-156.5 105,-156.5 105,-137.5 204,-137.5 204,-156.5"/>
<text text-anchor="middle" x="154.5" y="-144.5" font-family="Helvetica,sans-Serif" font-size="10.00">test/test&#45;fuzzer.c</text>
</a>
</g>
</g>
<!-- Node5&#45;&gt;Node18 -->
<g id="edge44_Node000005_Node000018" class="edge">
<title>Node5&#45;&gt;Node18</title>
<g id="a_edge44_Node000005_Node000018"><a xlink:title=" ">
<path fill="none" stroke="#63b8ff" d="M976.85,-270.74C807.98,-265.74 351.74,-250.3 287.5,-228 265.49,-220.36 264.27,-210.34 244.5,-198 219.79,-182.57 190.06,-166.52 171.72,-156.89"/>
<polygon fill="#63b8ff" stroke="#63b8ff" points="976.66,-274.24 986.75,-271.04 976.86,-267.24 976.66,-274.24"/>
</a>
</g>
</g>
<!-- Node19 -->
<g id="Node000019" class="node">
<title>Node19</title>
<g id="a_Node000019"><a xlink:href="test-mem_8c.html" target="_top" xlink:title=" ">
<polygon fill="white" stroke="#666666" points="484,-156.5 389,-156.5 389,-137.5 484,-137.5 484,-156.5"/>
<text text-anchor="middle" x="436.5" y="-144.5" font-family="Helvetica,sans-Serif" font-size="10.00">test/test&#45;mem.c</text>
</a>
</g>
</g>
<!-- Node5&#45;&gt;Node19 -->
<g id="edge46_Node000005_Node000019" class="edge">
<title>Node5&#45;&gt;Node19</title>
<g id="a_edge46_Node000005_Node000019"><a xlink:title=" ">
<path fill="none" stroke="#63b8ff" d="M976.56,-270.71C839.79,-266.37 524.46,-253.67 483.5,-228 457.02,-211.41 443.68,-174.02 438.78,-156.88"/>
<polygon fill="#63b8ff" stroke="#63b8ff" points="976.43,-274.21 986.54,-271.02 976.65,-267.21 976.43,-274.21"/>
</a>
</g>
</g>
<!-- Node5&#45;&gt;Node20 -->
<g id="edge48_Node000005_Node000020" class="edge">
<title>Node5&#45;&gt;Node20</title>
<g id="a_edge48_Node000005_Node000020"><a xlink:title=" ">
<path fill="none" stroke="#63b8ff" d="M976.84,-271.16C801.14,-267.11 312.18,-253.64 244.5,-228 224.38,-220.38 225.56,-207.99 206.5,-198 194.7,-191.81 118.91,-169.61 74.95,-156.97"/>
<polygon fill="#63b8ff" stroke="#63b8ff" points="976.61,-274.66 986.69,-271.39 976.77,-267.66 976.61,-274.66"/>
</a>
</g>
</g>
<!-- Node21 -->
<g id="Node000021" class="node">
<title>Node21</title>
<g id="a_Node000021"><a xlink:href="exif-mnote-data-fuji_8h.html" target="_top" xlink:title=" ">
<polygon fill="white" stroke="#666666" points="2157.5,-228 2035.5,-228 2035.5,-198 2157.5,-198 2157.5,-228"/>
<text text-anchor="start" x="2043.5" y="-216" font-family="Helvetica,sans-Serif" font-size="10.00">libexif/fuji/exif&#45;mnote</text>
<text text-anchor="middle" x="2096.5" y="-205" font-family="Helvetica,sans-Serif" font-size="10.00">&#45;data&#45;fuji.h</text>
</a>
</g>
</g>
<!-- Node5&#45;&gt;Node21 -->
<g id="edge26_Node000005_Node000021" class="edge">
<title>Node5&#45;&gt;Node21</title>
<g id="a_edge26_Node000005_Node000021"><a xlink:title=" ">
<path fill="none" stroke="#63b8ff" d="M1102.09,-271.2C1253.61,-267.68 1652.1,-256.3 1983.5,-228 2000.24,-226.57 2018.32,-224.55 2035.01,-222.48"/>
<polygon fill="#63b8ff" stroke="#63b8ff" points="1102.19,-267.69 1092.27,-271.42 1102.35,-274.69 1102.19,-267.69"/>
</a>
</g>
</g>
<!-- Node25 -->
<g id="Node000025" class="node">
<title>Node25</title>
<g id="a_Node000025"><a xlink:href="mnote-fuji-tag_8h.html" target="_top" xlink:title=" ">
<polygon fill="white" stroke="#666666" points="2277,-228 2176,-228 2176,-198 2277,-198 2277,-228"/>
<text text-anchor="start" x="2184" y="-216" font-family="Helvetica,sans-Serif" font-size="10.00">libexif/fuji/mnote</text>
<text text-anchor="middle" x="2226.5" y="-205" font-family="Helvetica,sans-Serif" font-size="10.00">&#45;fuji&#45;tag.h</text>
</a>
</g>
</g>
<!-- Node5&#45;&gt;Node25 -->
<g id="edge32_Node000005_Node000025" class="edge">
<title>Node5&#45;&gt;Node25</title>
<g id="a_edge32_Node000005_Node000025"><a xlink:title=" ">
<path fill="none" stroke="#63b8ff" d="M1102.45,-271.59C1308.03,-268.36 1958.42,-256.12 2166.5,-228 2169.47,-227.6 2172.5,-227.12 2175.56,-226.58"/>
<polygon fill="#63b8ff" stroke="#63b8ff" points="1102.45,-268.09 1092.5,-271.74 1102.55,-275.09 1102.45,-268.09"/>
</a>
</g>
</g>
<!-- Node27 -->
<g id="Node000027" class="node">
<title>Node27</title>
<g id="a_Node000027"><a xlink:href="exif-mnote-data-olympus_8c.html" target="_top" xlink:title=" ">
<polygon fill="white" stroke="#666666" points="1639,-162 1508,-162 1508,-132 1639,-132 1639,-162"/>
<text text-anchor="start" x="1516" y="-150" font-family="Helvetica,sans-Serif" font-size="10.00">libexif/olympus/exif</text>
<text text-anchor="middle" x="1573.5" y="-139" font-family="Helvetica,sans-Serif" font-size="10.00">&#45;mnote&#45;data&#45;olympus.c</text>
</a>
</g>
</g>
<!-- Node5&#45;&gt;Node27 -->
<g id="edge35_Node000005_Node000027" class="edge">
<title>Node5&#45;&gt;Node27</title>
<g id="a_edge35_Node000005_Node000027"><a xlink:title=" ">
<path fill="none" stroke="#63b8ff" d="M1101.82,-270.93C1230.29,-267.15 1515.46,-255.71 1549.5,-228 1569.07,-212.07 1573.12,-180.84 1573.71,-162.46"/>
<polygon fill="#63b8ff" stroke="#63b8ff" points="1102.03,-267.42 1092.14,-271.21 1102.23,-274.42 1102.03,-267.42"/>
</a>
</g>
</g>
<!-- Node28 -->
<g id="Node000028" class="node">
<title>Node28</title>
<g id="a_Node000028"><a xlink:href="exif-mnote-data-olympus_8h.html" target="_top" xlink:title=" ">
<polygon fill="white" stroke="#666666" points="1733.5,-228 1601.5,-228 1601.5,-198 1733.5,-198 1733.5,-228"/>
<text text-anchor="start" x="1609.5" y="-216" font-family="Helvetica,sans-Serif" font-size="10.00">libexif/olympus/exif</text>
<text text-anchor="middle" x="1667.5" y="-205" font-family="Helvetica,sans-Serif" font-size="10.00">&#45;mnote&#45;data&#45;olympus.h</text>
</a>
</g>
</g>
<!-- Node5&#45;&gt;Node28 -->
<g id="edge36_Node000005_Node000028" class="edge">
<title>Node5&#45;&gt;Node28</title>
<g id="a_edge36_Node000005_Node000028"><a xlink:title=" ">
<path fill="none" stroke="#63b8ff" d="M1101.96,-269.31C1203.9,-263.68 1412.23,-250.4 1587.5,-228 1591.98,-227.43 1596.58,-226.78 1601.22,-226.08"/>
<polygon fill="#63b8ff" stroke="#63b8ff" points="1101.97,-265.8 1092.17,-269.84 1102.35,-272.79 1101.97,-265.8"/>
</a>
</g>
</g>
<!-- Node29 -->
<g id="Node000029" class="node">
<title>Node29</title>
<g id="a_Node000029"><a xlink:href="exif-mnote-data-pentax_8h.html" target="_top" xlink:title=" ">
<polygon fill="white" stroke="#666666" points="626.5,-228 502.5,-228 502.5,-198 626.5,-198 626.5,-228"/>
<text text-anchor="start" x="510.5" y="-216" font-family="Helvetica,sans-Serif" font-size="10.00">libexif/pentax/exif</text>
<text text-anchor="middle" x="564.5" y="-205" font-family="Helvetica,sans-Serif" font-size="10.00">&#45;mnote&#45;data&#45;pentax.h</text>
</a>
</g>
</g>
<!-- Node5&#45;&gt;Node29 -->
<g id="edge39_Node000005_Node000029" class="edge">
<title>Node5&#45;&gt;Node29</title>
<g id="a_edge39_Node000005_Node000029"><a xlink:title=" ">
<path fill="none" stroke="#63b8ff" d="M977.02,-267.28C897.45,-260.25 755.83,-246.46 635.5,-228 632.64,-227.56 629.73,-227.09 626.79,-226.59"/>
<polygon fill="#63b8ff" stroke="#63b8ff" points="976.52,-270.75 986.79,-268.13 977.13,-263.77 976.52,-270.75"/>
</a>
</g>
</g>
<!-- Node31 -->
<g id="Node000031" class="node">
<title>Node31</title>
<g id="a_Node000031"><a xlink:href="test-extract_8c.html" target="_top" xlink:title="Extract EXIF data from a file and write it to another file.">
<polygon fill="white" stroke="#666666" points="922.5,-222.5 818.5,-222.5 818.5,-203.5 922.5,-203.5 922.5,-222.5"/>
<text text-anchor="middle" x="870.5" y="-210.5" font-family="Helvetica,sans-Serif" font-size="10.00">test/test&#45;extract.c</text>
</a>
</g>
</g>
<!-- Node5&#45;&gt;Node31 -->
<g id="edge42_Node000005_Node000031" class="edge">
<title>Node5&#45;&gt;Node31</title>
<g id="a_edge42_Node000005_Node000031"><a xlink:title=" ">
<path fill="none" stroke="#63b8ff" d="M1003.1,-259.9C970.97,-248.78 924.92,-232.84 896.41,-222.97"/>
<polygon fill="#63b8ff" stroke="#63b8ff" points="1001.81,-263.16 1012.4,-263.12 1004.1,-256.54 1001.81,-263.16"/>
</a>
</g>
</g>
<!-- Node32 -->
<g id="Node000032" class="node">
<title>Node32</title>
<g id="a_Node000032"><a xlink:href="test-gps_8c.html" target="_top" xlink:title=" ">
<polygon fill="white" stroke="#666666" points="1026.5,-222.5 940.5,-222.5 940.5,-203.5 1026.5,-203.5 1026.5,-222.5"/>
<text text-anchor="middle" x="983.5" y="-210.5" font-family="Helvetica,sans-Serif" font-size="10.00">test/test&#45;gps.c</text>
</a>
</g>
</g>
<!-- Node5&#45;&gt;Node32 -->
<g id="edge45_Node000005_Node000032" class="edge">
<title>Node5&#45;&gt;Node32</title>
<g id="a_edge45_Node000005_Node000032"><a xlink:title=" ">
<path fill="none" stroke="#63b8ff" d="M1023.35,-255.63C1013.03,-244.85 1000.08,-231.32 991.8,-222.67"/>
<polygon fill="#63b8ff" stroke="#63b8ff" points="1020.75,-257.97 1030.19,-262.77 1025.8,-253.13 1020.75,-257.97"/>
</a>
</g>
</g>
<!-- Node33 -->
<g id="Node000033" class="node">
<title>Node33</title>
<g id="a_Node000033"><a xlink:href="test-mnote_8c.html" target="_top" xlink:title=" ">
<polygon fill="white" stroke="#666666" points="1146,-222.5 1045,-222.5 1045,-203.5 1146,-203.5 1146,-222.5"/>
<text text-anchor="middle" x="1095.5" y="-210.5" font-family="Helvetica,sans-Serif" font-size="10.00">test/test&#45;mnote.c</text>
</a>
</g>
</g>
<!-- Node5&#45;&gt;Node33 -->
<g id="edge47_Node000005_Node000033" class="edge">
<title>Node5&#45;&gt;Node33</title>
<g id="a_edge47_Node000005_Node000033"><a xlink:title=" ">
<path fill="none" stroke="#63b8ff" d="M1055.65,-255.63C1065.97,-244.85 1078.92,-231.32 1087.2,-222.67"/>
<polygon fill="#63b8ff" stroke="#63b8ff" points="1053.2,-253.13 1048.81,-262.77 1058.25,-257.97 1053.2,-253.13"/>
</a>
</g>
</g>
<!-- Node34 -->
<g id="Node000034" class="node">
<title>Node34</title>
<g id="a_Node000034"><a xlink:href="test-parse-from-data_8c.html" target="_top" xlink:title="Completely parse all files given on the command line.">
<polygon fill="white" stroke="#666666" points="1279,-228 1164,-228 1164,-198 1279,-198 1279,-228"/>
<text text-anchor="start" x="1172" y="-216" font-family="Helvetica,sans-Serif" font-size="10.00">test/test&#45;parse&#45;from</text>
<text text-anchor="middle" x="1221.5" y="-205" font-family="Helvetica,sans-Serif" font-size="10.00">&#45;data.c</text>
</a>
</g>
</g>
<!-- Node5&#45;&gt;Node34 -->
<g id="edge49_Node000005_Node000034" class="edge">
<title>Node5&#45;&gt;Node34</title>
<g id="a_edge49_Node000005_Node000034"><a xlink:title=" ">
<path fill="none" stroke="#63b8ff" d="M1078.01,-260.12C1106.83,-250.86 1146.32,-238.17 1176.58,-228.44"/>
<polygon fill="#63b8ff" stroke="#63b8ff" points="1077.03,-256.76 1068.58,-263.15 1079.17,-263.42 1077.03,-256.76"/>
</a>
</g>
</g>
<!-- Node35 -->
<g id="Node000035" class="node">
<title>Node35</title>
<g id="a_Node000035"><a xlink:href="test-parse_8c.html" target="_top" xlink:title="Completely parse all files given on the command line.">
<polygon fill="white" stroke="#666666" points="1393.5,-222.5 1297.5,-222.5 1297.5,-203.5 1393.5,-203.5 1393.5,-222.5"/>
<text text-anchor="middle" x="1345.5" y="-210.5" font-family="Helvetica,sans-Serif" font-size="10.00">test/test&#45;parse.c</text>
</a>
</g>
</g>
<!-- Node5&#45;&gt;Node35 -->
<g id="edge50_Node000005_Node000035" class="edge">
<title>Node5&#45;&gt;Node35</title>
<g id="a_edge50_Node000005_Node000035"><a xlink:title=" ">
<path fill="none" stroke="#63b8ff" d="M1102.3,-262.29C1152.55,-253.87 1224.75,-241.19 1287.5,-228 1294.7,-226.49 1302.36,-224.74 1309.69,-223"/>
<polygon fill="#63b8ff" stroke="#63b8ff" points="1101.75,-258.83 1092.46,-263.93 1102.9,-265.74 1101.75,-258.83"/>
</a>
</g>
</g>
<!-- Node36 -->
<g id="Node000036" class="node">
<title>Node36</title>
<g id="a_Node000036"><a xlink:href="test-value_8c.html" target="_top" xlink:title=" ">
<polygon fill="white" stroke="#666666" points="1507.5,-222.5 1411.5,-222.5 1411.5,-203.5 1507.5,-203.5 1507.5,-222.5"/>
<text text-anchor="middle" x="1459.5" y="-210.5" font-family="Helvetica,sans-Serif" font-size="10.00">test/test&#45;value.c</text>
</a>
</g>
</g>
<!-- Node5&#45;&gt;Node36 -->
<g id="edge51_Node000005_Node000036" class="edge">
<title>Node5&#45;&gt;Node36</title>
<g id="a_edge51_Node000005_Node000036"><a xlink:title=" ">
<path fill="none" stroke="#63b8ff" d="M1102.1,-267.11C1174.72,-260.32 1297.87,-247.19 1402.5,-228 1410.12,-226.6 1418.24,-224.8 1425.89,-222.96"/>
<polygon fill="#63b8ff" stroke="#63b8ff" points="1102.03,-263.6 1092.4,-268 1102.68,-270.57 1102.03,-263.6"/>
</a>
</g>
</g>
<!-- Node7&#45;&gt;Node6 -->
<g id="edge7_Node000007_Node000006" class="edge">
<title>Node7&#45;&gt;Node6</title>
<g id="a_edge7_Node000007_Node000006"><a xlink:title=" ">
<path fill="none" stroke="#63b8ff" d="M760.35,-194.25C792.51,-184.21 832.2,-171.82 862.41,-162.39"/>
<polygon fill="#63b8ff" stroke="#63b8ff" points="759.71,-190.79 751.21,-197.11 761.8,-197.47 759.71,-190.79"/>
</a>
</g>
</g>
<!-- Node9&#45;&gt;Node8 -->
<g id="edge10_Node000009_Node000008" class="edge">
<title>Node9&#45;&gt;Node8</title>
<g id="a_edge10_Node000009_Node000008"><a xlink:title=" ">
<path fill="none" stroke="#63b8ff" d="M1987.33,-62.77C2027.22,-52.64 2077.07,-39.98 2114.84,-30.39"/>
<polygon fill="#63b8ff" stroke="#63b8ff" points="1986.67,-59.33 1977.83,-65.18 1988.39,-66.12 1986.67,-59.33"/>
</a>
</g>
</g>
<!-- Node9&#45;&gt;Node10 -->
<g id="edge11_Node000009_Node000010" class="edge">
<title>Node9&#45;&gt;Node10</title>
<g id="a_edge11_Node000009_Node000010"><a xlink:title=" ">
<path fill="none" stroke="#63b8ff" d="M1848.57,-65.66C1764.03,-49.53 1677.63,-34.18 1624.36,-24.84"/>
<polygon fill="#63b8ff" stroke="#63b8ff" points="1847.71,-69.05 1858.19,-67.5 1849.03,-62.18 1847.71,-69.05"/>
</a>
</g>
</g>
<!-- Node12 -->
<g id="Node000012" class="node">
<title>Node12</title>
<g id="a_Node000012"><a xlink:href="mnote-canon-entry_8h.html" target="_top" xlink:title=" ">
<polygon fill="white" stroke="#666666" points="1941.5,-162 1827.5,-162 1827.5,-132 1941.5,-132 1941.5,-162"/>
<text text-anchor="start" x="1835.5" y="-150" font-family="Helvetica,sans-Serif" font-size="10.00">libexif/canon/mnote</text>
<text text-anchor="middle" x="1884.5" y="-139" font-family="Helvetica,sans-Serif" font-size="10.00">&#45;canon&#45;entry.h</text>
</a>
</g>
</g>
<!-- Node11&#45;&gt;Node12 -->
<g id="edge13_Node000011_Node000012" class="edge">
<title>Node11&#45;&gt;Node12</title>
<g id="a_edge13_Node000011_Node000012"><a xlink:title=" ">
<path fill="none" stroke="#63b8ff" d="M1834.12,-190.42C1845.09,-181.18 1857.61,-170.65 1867.42,-162.39"/>
<polygon fill="#63b8ff" stroke="#63b8ff" points="1831.92,-187.7 1826.52,-196.82 1836.43,-193.06 1831.92,-187.7"/>
</a>
</g>
</g>
<!-- Node14 -->
<g id="Node000014" class="node">
<title>Node14</title>
<g id="a_Node000014"><a xlink:href="mnote-canon-tag_8c.html" target="_top" xlink:title=" ">
<polygon fill="white" stroke="#666666" points="1809.5,-162 1695.5,-162 1695.5,-132 1809.5,-132 1809.5,-162"/>
<text text-anchor="start" x="1703.5" y="-150" font-family="Helvetica,sans-Serif" font-size="10.00">libexif/canon/mnote</text>
<text text-anchor="middle" x="1752.5" y="-139" font-family="Helvetica,sans-Serif" font-size="10.00">&#45;canon&#45;tag.c</text>
</a>
</g>
</g>
<!-- Node11&#45;&gt;Node14 -->
<g id="edge16_Node000011_Node000014" class="edge">
<title>Node11&#45;&gt;Node14</title>
<g id="a_edge16_Node000011_Node000014"><a xlink:title=" ">
<path fill="none" stroke="#63b8ff" d="M1788.59,-189.24C1780.69,-180.21 1771.85,-170.11 1764.89,-162.16"/>
<polygon fill="#63b8ff" stroke="#63b8ff" points="1785.86,-191.44 1795.08,-196.66 1791.12,-186.83 1785.86,-191.44"/>
</a>
</g>
</g>
<!-- Node12&#45;&gt;Node9 -->
<g id="edge14_Node000012_Node000009" class="edge">
<title>Node12&#45;&gt;Node9</title>
<g id="a_edge14_Node000012_Node000009"><a xlink:title=" ">
<path fill="none" stroke="#63b8ff" d="M1897.72,-121.83C1902.45,-113.17 1907.63,-103.7 1911.75,-96.16"/>
<polygon fill="#63b8ff" stroke="#63b8ff" points="1894.72,-120.02 1892.99,-130.47 1900.86,-123.37 1894.72,-120.02"/>
</a>
</g>
</g>
<!-- Node13 -->
<g id="Node000013" class="node">
<title>Node13</title>
<g id="a_Node000013"><a xlink:href="mnote-canon-entry_8c.html" target="_top" xlink:title=" ">
<polygon fill="white" stroke="#666666" points="1841.5,-96 1727.5,-96 1727.5,-66 1841.5,-66 1841.5,-96"/>
<text text-anchor="start" x="1735.5" y="-84" font-family="Helvetica,sans-Serif" font-size="10.00">libexif/canon/mnote</text>
<text text-anchor="middle" x="1784.5" y="-73" font-family="Helvetica,sans-Serif" font-size="10.00">&#45;canon&#45;entry.c</text>
</a>
</g>
</g>
<!-- Node12&#45;&gt;Node13 -->
<g id="edge15_Node000012_Node000013" class="edge">
<title>Node12&#45;&gt;Node13</title>
<g id="a_edge15_Node000012_Node000013"><a xlink:title=" ">
<path fill="none" stroke="#63b8ff" d="M1852.93,-125.8C1838.01,-116.24 1820.53,-105.06 1806.98,-96.39"/>
<polygon fill="#63b8ff" stroke="#63b8ff" points="1850.72,-128.54 1861.03,-130.98 1854.5,-122.64 1850.72,-128.54"/>
</a>
</g>
</g>
<!-- Node15&#45;&gt;Node10 -->
<g id="edge20_Node000015_Node000010" class="edge">
<title>Node15&#45;&gt;Node10</title>
<g id="a_edge20_Node000015_Node000010"><a xlink:title=" ">
<path fill="none" stroke="#63b8ff" d="M353.47,-191.79C355.53,-173.23 361.64,-146.47 379.5,-132 469.58,-59.05 1305.96,-25.25 1522.5,-17.68"/>
<polygon fill="#63b8ff" stroke="#63b8ff" points="350,-191.34 352.72,-201.58 356.98,-191.87 350,-191.34"/>
</a>
</g>
</g>
<!-- Node16 -->
<g id="Node000016" class="node">
<title>Node16</title>
<g id="a_Node000016"><a xlink:href="exif-loader_8c.html" target="_top" xlink:title=" ">
<polygon fill="white" stroke="#666666" points="332.5,-156.5 222.5,-156.5 222.5,-137.5 332.5,-137.5 332.5,-156.5"/>
<text text-anchor="middle" x="277.5" y="-144.5" font-family="Helvetica,sans-Serif" font-size="10.00">libexif/exif&#45;loader.c</text>
</a>
</g>
</g>
<!-- Node15&#45;&gt;Node16 -->
<g id="edge21_Node000015_Node000016" class="edge">
<title>Node15&#45;&gt;Node16</title>
<g id="a_edge21_Node000015_Node000016"><a xlink:title=" ">
<path fill="none" stroke="#63b8ff" d="M333.38,-195.69C318.9,-183.33 299.56,-166.82 287.84,-156.82"/>
<polygon fill="#63b8ff" stroke="#63b8ff" points="331.04,-198.29 340.92,-202.12 335.59,-192.96 331.04,-198.29"/>
</a>
</g>
</g>
<!-- Node15&#45;&gt;Node17 -->
<g id="edge22_Node000015_Node000017" class="edge">
<title>Node15&#45;&gt;Node17</title>
<g id="a_edge22_Node000015_Node000017"><a xlink:title=" ">
<path fill="none" stroke="#63b8ff" d="M394.7,-200C438.7,-187.48 506.64,-168.16 546.12,-156.93"/>
<polygon fill="#63b8ff" stroke="#63b8ff" points="393.9,-196.58 385.24,-202.69 395.82,-203.32 393.9,-196.58"/>
</a>
</g>
</g>
<!-- Node15&#45;&gt;Node18 -->
<g id="edge23_Node000015_Node000018" class="edge">
<title>Node15&#45;&gt;Node18</title>
<g id="a_edge23_Node000015_Node000018"><a xlink:title=" ">
<path fill="none" stroke="#63b8ff" d="M314.13,-199.6C275.38,-187.07 216.49,-168.04 182.12,-156.93"/>
<polygon fill="#63b8ff" stroke="#63b8ff" points="312.94,-202.89 323.53,-202.64 315.09,-196.23 312.94,-202.89"/>
</a>
</g>
</g>
<!-- Node15&#45;&gt;Node19 -->
<g id="edge24_Node000015_Node000019" class="edge">
<title>Node15&#45;&gt;Node19</title>
<g id="a_edge24_Node000015_Node000019"><a xlink:title=" ">
<path fill="none" stroke="#63b8ff" d="M372.99,-196.39C389.3,-183.96 411.55,-167.01 424.92,-156.82"/>
<polygon fill="#63b8ff" stroke="#63b8ff" points="371.22,-193.34 365.38,-202.18 375.46,-198.91 371.22,-193.34"/>
</a>
</g>
</g>
<!-- Node15&#45;&gt;Node20 -->
<g id="edge25_Node000015_Node000020" class="edge">
<title>Node15&#45;&gt;Node20</title>
<g id="a_edge25_Node000015_Node000020"><a xlink:title=" ">
<path fill="none" stroke="#63b8ff" d="M289.5,-201.03C237.3,-191.63 161.3,-177.24 95.5,-162 88.94,-160.48 81.96,-158.71 75.31,-156.95"/>
<polygon fill="#63b8ff" stroke="#63b8ff" points="288.64,-204.43 299.1,-202.75 289.87,-197.54 288.64,-204.43"/>
</a>
</g>
</g>
<!-- Node21&#45;&gt;Node10 -->
<g id="edge27_Node000021_Node000010" class="edge">
<title>Node21&#45;&gt;Node10</title>
<g id="a_edge27_Node000021_Node000010"><a xlink:title=" ">
<path fill="none" stroke="#63b8ff" d="M2059.95,-191.7C2048.05,-183.69 2035.57,-173.6 2026.5,-162 1998.23,-125.85 2024.84,-94.02 1988.5,-66 1932.61,-22.9 1722.09,-16.43 1624.17,-15.81"/>
<polygon fill="#63b8ff" stroke="#63b8ff" points="2057.72,-194.43 2068.03,-196.86 2061.48,-188.53 2057.72,-194.43"/>
</a>
</g>
</g>
<!-- Node22 -->
<g id="Node000022" class="node">
<title>Node22</title>
<g id="a_Node000022"><a xlink:href="exif-mnote-data-fuji_8c.html" target="_top" xlink:title=" ">
<polygon fill="white" stroke="#666666" points="2157.5,-162 2035.5,-162 2035.5,-132 2157.5,-132 2157.5,-162"/>
<text text-anchor="start" x="2043.5" y="-150" font-family="Helvetica,sans-Serif" font-size="10.00">libexif/fuji/exif&#45;mnote</text>
<text text-anchor="middle" x="2096.5" y="-139" font-family="Helvetica,sans-Serif" font-size="10.00">&#45;data&#45;fuji.c</text>
</a>
</g>
</g>
<!-- Node21&#45;&gt;Node22 -->
<g id="edge28_Node000021_Node000022" class="edge">
<title>Node21&#45;&gt;Node22</title>
<g id="a_edge28_Node000021_Node000022"><a xlink:title=" ">
<path fill="none" stroke="#63b8ff" d="M2096.5,-186.39C2096.5,-178.13 2096.5,-169.28 2096.5,-162.16"/>
<polygon fill="#63b8ff" stroke="#63b8ff" points="2093,-186.28 2096.5,-196.28 2100,-186.28 2093,-186.28"/>
</a>
</g>
</g>
<!-- Node23 -->
<g id="Node000023" class="node">
<title>Node23</title>
<g id="a_Node000023"><a xlink:href="mnote-fuji-entry_8h.html" target="_top" xlink:title=" ">
<polygon fill="white" stroke="#666666" points="2277,-162 2176,-162 2176,-132 2277,-132 2277,-162"/>
<text text-anchor="start" x="2184" y="-150" font-family="Helvetica,sans-Serif" font-size="10.00">libexif/fuji/mnote</text>
<text text-anchor="middle" x="2226.5" y="-139" font-family="Helvetica,sans-Serif" font-size="10.00">&#45;fuji&#45;entry.h</text>
</a>
</g>
</g>
<!-- Node21&#45;&gt;Node23 -->
<g id="edge29_Node000021_Node000023" class="edge">
<title>Node21&#45;&gt;Node23</title>
<g id="a_edge29_Node000021_Node000023"><a xlink:title=" ">
<path fill="none" stroke="#63b8ff" d="M2129.93,-192.45C2148.89,-182.73 2172.5,-171.2 2191.69,-162.31"/>
<polygon fill="#63b8ff" stroke="#63b8ff" points="2128.54,-189.23 2121.28,-196.94 2131.77,-195.44 2128.54,-189.23"/>
</a>
</g>
</g>
<!-- Node23&#45;&gt;Node21 -->
<g id="edge30_Node000023_Node000021" class="edge">
<title>Node23&#45;&gt;Node21</title>
<g id="a_edge30_Node000023_Node000021"><a xlink:title=" ">
<path fill="none" stroke="#63b8ff" d="M2193.17,-167.49C2174.23,-177.21 2150.62,-188.74 2131.42,-197.64"/>
<polygon fill="#63b8ff" stroke="#63b8ff" points="2194.55,-170.72 2201.81,-163.01 2191.33,-164.51 2194.55,-170.72"/>
</a>
</g>
</g>
<!-- Node24 -->
<g id="Node000024" class="node">
<title>Node24</title>
<g id="a_Node000024"><a xlink:href="mnote-fuji-entry_8c.html" target="_top" xlink:title=" ">
<polygon fill="white" stroke="#666666" points="2277,-96 2176,-96 2176,-66 2277,-66 2277,-96"/>
<text text-anchor="start" x="2184" y="-84" font-family="Helvetica,sans-Serif" font-size="10.00">libexif/fuji/mnote</text>
<text text-anchor="middle" x="2226.5" y="-73" font-family="Helvetica,sans-Serif" font-size="10.00">&#45;fuji&#45;entry.c</text>
</a>
</g>
</g>
<!-- Node23&#45;&gt;Node24 -->
<g id="edge31_Node000023_Node000024" class="edge">
<title>Node23&#45;&gt;Node24</title>
<g id="a_edge31_Node000023_Node000024"><a xlink:title=" ">
<path fill="none" stroke="#63b8ff" d="M2226.5,-120.39C2226.5,-112.13 2226.5,-103.28 2226.5,-96.16"/>
<polygon fill="#63b8ff" stroke="#63b8ff" points="2223,-120.28 2226.5,-130.28 2230,-120.28 2223,-120.28"/>
</a>
</g>
</g>
<!-- Node25&#45;&gt;Node23 -->
<g id="edge33_Node000025_Node000023" class="edge">
<title>Node25&#45;&gt;Node23</title>
<g id="a_edge33_Node000025_Node000023"><a xlink:title=" ">
<path fill="none" stroke="#63b8ff" d="M2226.5,-186.39C2226.5,-178.13 2226.5,-169.28 2226.5,-162.16"/>
<polygon fill="#63b8ff" stroke="#63b8ff" points="2223,-186.28 2226.5,-196.28 2230,-186.28 2223,-186.28"/>
</a>
</g>
</g>
<!-- Node26 -->
<g id="Node000026" class="node">
<title>Node26</title>
<g id="a_Node000026"><a xlink:href="mnote-fuji-tag_8c.html" target="_top" xlink:title=" ">
<polygon fill="white" stroke="#666666" points="2396,-162 2295,-162 2295,-132 2396,-132 2396,-162"/>
<text text-anchor="start" x="2303" y="-150" font-family="Helvetica,sans-Serif" font-size="10.00">libexif/fuji/mnote</text>
<text text-anchor="middle" x="2345.5" y="-139" font-family="Helvetica,sans-Serif" font-size="10.00">&#45;fuji&#45;tag.c</text>
</a>
</g>
</g>
<!-- Node25&#45;&gt;Node26 -->
<g id="edge34_Node000025_Node000026" class="edge">
<title>Node25&#45;&gt;Node26</title>
<g id="a_edge34_Node000025_Node000026"><a xlink:title=" ">
<path fill="none" stroke="#63b8ff" d="M2263.1,-192.32C2281.12,-182.63 2302.44,-171.16 2318.88,-162.31"/>
<polygon fill="#63b8ff" stroke="#63b8ff" points="2261.69,-189.1 2254.54,-196.92 2265,-195.27 2261.69,-189.1"/>
</a>
</g>
</g>
<!-- Node28&#45;&gt;Node10 -->
<g id="edge37_Node000028_Node000010" class="edge">
<title>Node28&#45;&gt;Node10</title>
<g id="a_edge37_Node000028_Node000010"><a xlink:title=" ">
<path fill="none" stroke="#63b8ff" d="M1663.3,-186.48C1660.14,-170.42 1655.03,-149.5 1647.5,-132 1628.9,-88.77 1595.1,-43.38 1580.52,-24.76"/>
<polygon fill="#63b8ff" stroke="#63b8ff" points="1659.84,-186.98 1665.08,-196.19 1666.72,-185.72 1659.84,-186.98"/>
</a>
</g>
</g>
<!-- Node28&#45;&gt;Node27 -->
<g id="edge38_Node000028_Node000027" class="edge">
<title>Node28&#45;&gt;Node27</title>
<g id="a_edge38_Node000028_Node000027"><a xlink:title=" ">
<path fill="none" stroke="#63b8ff" d="M1637.43,-191.52C1623.48,-182.03 1607.25,-170.98 1594.63,-162.39"/>
<polygon fill="#63b8ff" stroke="#63b8ff" points="1635.15,-194.21 1645.39,-196.94 1639.09,-188.42 1635.15,-194.21"/>
</a>
</g>
</g>
<!-- Node29&#45;&gt;Node10 -->
<g id="edge40_Node000029_Node000010" class="edge">
<title>Node29&#45;&gt;Node10</title>
<g id="a_edge40_Node000029_Node000010"><a xlink:title=" ">
<path fill="none" stroke="#63b8ff" d="M637.95,-197.39C705.02,-183.92 794.88,-165.51 802.5,-162 822.36,-152.86 821.41,-140.65 841.5,-132 1081.13,-28.87 1400.34,-16.33 1522.76,-15.58"/>
<polygon fill="#63b8ff" stroke="#63b8ff" points="637.58,-193.9 628.47,-199.29 638.96,-200.76 637.58,-193.9"/>
</a>
</g>
</g>
<!-- Node30 -->
<g id="Node000030" class="node">
<title>Node30</title>
<g id="a_Node000030"><a xlink:href="exif-mnote-data-pentax_8c.html" target="_top" xlink:title=" ">
<polygon fill="white" stroke="#666666" points="794,-162 671,-162 671,-132 794,-132 794,-162"/>
<text text-anchor="start" x="679" y="-150" font-family="Helvetica,sans-Serif" font-size="10.00">libexif/pentax/exif</text>
<text text-anchor="middle" x="732.5" y="-139" font-family="Helvetica,sans-Serif" font-size="10.00">&#45;mnote&#45;data&#45;pentax.c</text>
</a>
</g>
</g>
<!-- Node29&#45;&gt;Node30 -->
<g id="edge41_Node000029_Node000030" class="edge">
<title>Node29&#45;&gt;Node30</title>
<g id="a_edge41_Node000029_Node000030"><a xlink:title=" ">
<path fill="none" stroke="#63b8ff" d="M612.96,-193.54C638.94,-183.64 670.47,-171.63 694.63,-162.43"/>
<polygon fill="#63b8ff" stroke="#63b8ff" points="611.72,-190.27 603.62,-197.1 614.21,-196.81 611.72,-190.27"/>
</a>
</g>
</g>
</g>
</svg>
