<?xml version="1.0" encoding="UTF-8" standalone="no"?>
<!DOCTYPE svg PUBLIC "-//W3C//DTD SVG 1.1//EN"
 "http://www.w3.org/Graphics/SVG/1.1/DTD/svg11.dtd">
<!-- Generated by graphviz version 2.44.1 (0)
 -->
<!-- Title: exif_mnote_data_olympus_load Pages: 1 -->
<svg width="515pt" height="317pt"
 viewBox="0.00 0.00 515.00 317.00" xmlns="http://www.w3.org/2000/svg" xmlns:xlink="http://www.w3.org/1999/xlink">
<g id="graph0" class="graph" transform="scale(1 1) rotate(0) translate(4 313)">
<title>exif_mnote_data_olympus_load</title>
<polygon fill="white" stroke="transparent" points="-4,4 -4,-313 511,-313 511,4 -4,4"/>
<!-- Node1 -->
<g id="node1" class="node">
<title>Node1</title>
<g id="a_node1"><a xlink:title=" ">
<polygon fill="#bfbfbf" stroke="black" points="0,-156.5 0,-175.5 173,-175.5 173,-156.5 0,-156.5"/>
<text text-anchor="middle" x="86.5" y="-163.5" font-family="Helvetica,sans-Serif" font-size="10.00">exif_mnote_data_olympus_load</text>
</a>
</g>
</g>
<!-- Node2 -->
<g id="node2" class="node">
<title>Node2</title>
<g id="a_node2"><a xlink:href="exif-format_8c.html#a924038efe0cd8ebade8f44619dd794f3" target="_top" xlink:title="Return the raw size of the given EXIF data type.">
<polygon fill="white" stroke="black" points="234.5,-289.5 234.5,-308.5 353.5,-308.5 353.5,-289.5 234.5,-289.5"/>
<text text-anchor="middle" x="294" y="-296.5" font-family="Helvetica,sans-Serif" font-size="10.00">exif_format_get_size</text>
</a>
</g>
</g>
<!-- Node1&#45;&gt;Node2 -->
<g id="edge1" class="edge">
<title>Node1&#45;&gt;Node2</title>
<path fill="none" stroke="midnightblue" d="M94.8,-175.75C112.03,-198.01 157.65,-252.74 209,-280 213.87,-282.59 219.08,-284.82 224.43,-286.75"/>
<polygon fill="midnightblue" stroke="midnightblue" points="223.58,-290.15 234.17,-289.91 225.74,-283.5 223.58,-290.15"/>
</g>
<!-- Node3 -->
<g id="node3" class="node">
<title>Node3</title>
<g id="a_node3"><a xlink:href="exif-utils_8c.html#a4ad94614630897766dd0a5c9bc2a59bf" target="_top" xlink:title="Retrieve an ExifLong value from memory.">
<polygon fill="white" stroke="black" points="252.5,-251.5 252.5,-270.5 335.5,-270.5 335.5,-251.5 252.5,-251.5"/>
<text text-anchor="middle" x="294" y="-258.5" font-family="Helvetica,sans-Serif" font-size="10.00">exif_get_long</text>
</a>
</g>
</g>
<!-- Node1&#45;&gt;Node3 -->
<g id="edge2" class="edge">
<title>Node1&#45;&gt;Node3</title>
<path fill="none" stroke="midnightblue" d="M99.85,-175.73C120.98,-191.9 165.98,-224.28 209,-242 219.59,-246.36 231.35,-249.81 242.65,-252.51"/>
<polygon fill="midnightblue" stroke="midnightblue" points="241.89,-255.93 252.41,-254.69 243.42,-249.09 241.89,-255.93"/>
</g>
<!-- Node5 -->
<g id="node5" class="node">
<title>Node5</title>
<g id="a_node5"><a xlink:href="exif-utils_8c.html#a4b4acf537a8c6b9405e7b53be868e4d7" target="_top" xlink:title="Retrieve an ExifShort value from memory.">
<polygon fill="white" stroke="black" points="251,-213.5 251,-232.5 337,-232.5 337,-213.5 251,-213.5"/>
<text text-anchor="middle" x="294" y="-220.5" font-family="Helvetica,sans-Serif" font-size="10.00">exif_get_short</text>
</a>
</g>
</g>
<!-- Node1&#45;&gt;Node5 -->
<g id="edge4" class="edge">
<title>Node1&#45;&gt;Node5</title>
<path fill="none" stroke="midnightblue" d="M115.79,-175.56C140.29,-183.67 176.77,-195.33 209,-204 219.29,-206.77 230.35,-209.46 240.97,-211.92"/>
<polygon fill="midnightblue" stroke="midnightblue" points="240.44,-215.39 250.96,-214.19 241.99,-208.56 240.44,-215.39"/>
</g>
<!-- Node7 -->
<g id="node7" class="node">
<title>Node7</title>
<g id="a_node7"><a xlink:href="exif-log_8c.html#a025d4a5d96544913ea6f6ebbec69cb68" target="_top" xlink:title=" ">
<polygon fill="white" stroke="black" points="266,-175.5 266,-194.5 322,-194.5 322,-175.5 266,-175.5"/>
<text text-anchor="middle" x="294" y="-182.5" font-family="Helvetica,sans-Serif" font-size="10.00">exif_log</text>
</a>
</g>
</g>
<!-- Node1&#45;&gt;Node7 -->
<g id="edge6" class="edge">
<title>Node1&#45;&gt;Node7</title>
<path fill="none" stroke="midnightblue" d="M173.16,-173.92C202,-176.59 232.69,-179.42 255.8,-181.56"/>
<polygon fill="midnightblue" stroke="midnightblue" points="255.56,-185.05 265.84,-182.49 256.21,-178.08 255.56,-185.05"/>
</g>
<!-- Node9 -->
<g id="node9" class="node">
<title>Node9</title>
<g id="a_node9"><a xlink:href="exif-mem_8c.html#ae8c09cfbcb95e435c4c4b7ec3bbd79e4" target="_top" xlink:title=" ">
<polygon fill="white" stroke="black" points="246.5,-137.5 246.5,-156.5 341.5,-156.5 341.5,-137.5 246.5,-137.5"/>
<text text-anchor="middle" x="294" y="-144.5" font-family="Helvetica,sans-Serif" font-size="10.00">exif_mem_alloc</text>
</a>
</g>
</g>
<!-- Node1&#45;&gt;Node9 -->
<g id="edge8" class="edge">
<title>Node1&#45;&gt;Node9</title>
<path fill="none" stroke="midnightblue" d="M173.16,-158.08C194.45,-156.11 216.74,-154.05 236.24,-152.25"/>
<polygon fill="midnightblue" stroke="midnightblue" points="236.83,-155.71 246.47,-151.3 236.19,-148.74 236.83,-155.71"/>
</g>
<!-- Node10 -->
<g id="node10" class="node">
<title>Node10</title>
<g id="a_node10"><a xlink:href="exif-mnote-data-olympus_8c.html#abbf48c8c4866eb54430bb8db5f8a83c2" target="_top" xlink:title=" ">
<polygon fill="white" stroke="black" points="221,-88 221,-118 367,-118 367,-88 221,-88"/>
<text text-anchor="start" x="229" y="-106" font-family="Helvetica,sans-Serif" font-size="10.00">exif_mnote_data_olympus</text>
<text text-anchor="middle" x="294" y="-95" font-family="Helvetica,sans-Serif" font-size="10.00">_clear</text>
</a>
</g>
</g>
<!-- Node1&#45;&gt;Node10 -->
<g id="edge9" class="edge">
<title>Node1&#45;&gt;Node10</title>
<path fill="none" stroke="midnightblue" d="M117.67,-156.44C142.24,-148.68 177.82,-137.52 209,-128 216.47,-125.72 224.32,-123.35 232.1,-121.02"/>
<polygon fill="midnightblue" stroke="midnightblue" points="233.3,-124.31 241.88,-118.09 231.3,-117.6 233.3,-124.31"/>
</g>
<!-- Node12 -->
<g id="node12" class="node">
<title>Node12</title>
<g id="a_node12"><a xlink:href="exif-mnote-data-olympus_8c.html#a2c0a03d9462fd2a2f2f0a3f7e017a858" target="_top" xlink:title=" ">
<polygon fill="white" stroke="black" points="221,-39 221,-69 367,-69 367,-39 221,-39"/>
<text text-anchor="start" x="229" y="-57" font-family="Helvetica,sans-Serif" font-size="10.00">exif_mnote_data_olympus</text>
<text text-anchor="middle" x="294" y="-46" font-family="Helvetica,sans-Serif" font-size="10.00">_identify_variant</text>
</a>
</g>
</g>
<!-- Node1&#45;&gt;Node12 -->
<g id="edge11" class="edge">
<title>Node1&#45;&gt;Node12</title>
<path fill="none" stroke="midnightblue" d="M98.05,-156.35C118.17,-138.43 164.03,-99.87 209,-78 213.02,-76.04 217.23,-74.22 221.53,-72.53"/>
<polygon fill="midnightblue" stroke="midnightblue" points="222.88,-75.76 231.06,-69.02 220.46,-69.19 222.88,-75.76"/>
</g>
<!-- Node13 -->
<g id="node13" class="node">
<title>Node13</title>
<g id="a_node13"><a xlink:href="mnote-olympus-tag_8c.html#a8cec7b3e56cc000ece3544ba2c87c67d" target="_top" xlink:title="Return a textual name of the given tag within the Olympus&#45;style MakerNote.">
<polygon fill="white" stroke="black" points="209,-0.5 209,-19.5 379,-19.5 379,-0.5 209,-0.5"/>
<text text-anchor="middle" x="294" y="-7.5" font-family="Helvetica,sans-Serif" font-size="10.00">mnote_olympus_tag_get_name</text>
</a>
</g>
</g>
<!-- Node1&#45;&gt;Node13 -->
<g id="edge12" class="edge">
<title>Node1&#45;&gt;Node13</title>
<path fill="none" stroke="midnightblue" d="M93.14,-156.18C108.3,-130.73 152.62,-62.33 209,-29 212.69,-26.82 216.61,-24.89 220.66,-23.18"/>
<polygon fill="midnightblue" stroke="midnightblue" points="222.16,-26.35 230.3,-19.57 219.71,-19.79 222.16,-26.35"/>
</g>
<!-- Node4 -->
<g id="node4" class="node">
<title>Node4</title>
<g id="a_node4"><a xlink:href="exif-utils_8c.html#a56b96f076a13da6ed926e1ef29cb2dc3" target="_top" xlink:title="Retrieve an ExifSLong value from memory.">
<polygon fill="white" stroke="black" points="417,-251.5 417,-270.5 505,-270.5 505,-251.5 417,-251.5"/>
<text text-anchor="middle" x="461" y="-258.5" font-family="Helvetica,sans-Serif" font-size="10.00">exif_get_slong</text>
</a>
</g>
</g>
<!-- Node3&#45;&gt;Node4 -->
<g id="edge3" class="edge">
<title>Node3&#45;&gt;Node4</title>
<path fill="none" stroke="midnightblue" d="M335.79,-261C357.14,-261 383.55,-261 406.52,-261"/>
<polygon fill="midnightblue" stroke="midnightblue" points="406.8,-264.5 416.8,-261 406.8,-257.5 406.8,-264.5"/>
</g>
<!-- Node6 -->
<g id="node6" class="node">
<title>Node6</title>
<g id="a_node6"><a xlink:href="exif-utils_8c.html#a6baf094a71392f9cea23ad633ec13c8b" target="_top" xlink:title="Retrieve an ExifSShort value from memory.">
<polygon fill="white" stroke="black" points="415,-213.5 415,-232.5 507,-232.5 507,-213.5 415,-213.5"/>
<text text-anchor="middle" x="461" y="-220.5" font-family="Helvetica,sans-Serif" font-size="10.00">exif_get_sshort</text>
</a>
</g>
</g>
<!-- Node5&#45;&gt;Node6 -->
<g id="edge5" class="edge">
<title>Node5&#45;&gt;Node6</title>
<path fill="none" stroke="midnightblue" d="M337.06,-223C357.59,-223 382.55,-223 404.6,-223"/>
<polygon fill="midnightblue" stroke="midnightblue" points="404.83,-226.5 414.83,-223 404.83,-219.5 404.83,-226.5"/>
</g>
<!-- Node8 -->
<g id="node8" class="node">
<title>Node8</title>
<g id="a_node8"><a xlink:href="exif-log_8c.html#a99101b5ad01b2d82ce9d43c9e8534627" target="_top" xlink:title=" ">
<polygon fill="white" stroke="black" points="430,-175.5 430,-194.5 492,-194.5 492,-175.5 430,-175.5"/>
<text text-anchor="middle" x="461" y="-182.5" font-family="Helvetica,sans-Serif" font-size="10.00">exif_logv</text>
</a>
</g>
</g>
<!-- Node7&#45;&gt;Node8 -->
<g id="edge7" class="edge">
<title>Node7&#45;&gt;Node8</title>
<path fill="none" stroke="midnightblue" d="M322.25,-185C348.78,-185 389.41,-185 419.68,-185"/>
<polygon fill="midnightblue" stroke="midnightblue" points="419.92,-188.5 429.92,-185 419.92,-181.5 419.92,-188.5"/>
</g>
<!-- Node11 -->
<g id="node11" class="node">
<title>Node11</title>
<g id="a_node11"><a xlink:href="exif-mem_8c.html#a43190b81b4b4bdb4ffb89bfb612051b1" target="_top" xlink:title=" ">
<polygon fill="white" stroke="black" points="415.5,-93.5 415.5,-112.5 506.5,-112.5 506.5,-93.5 415.5,-93.5"/>
<text text-anchor="middle" x="461" y="-100.5" font-family="Helvetica,sans-Serif" font-size="10.00">exif_mem_free</text>
</a>
</g>
</g>
<!-- Node10&#45;&gt;Node11 -->
<g id="edge10" class="edge">
<title>Node10&#45;&gt;Node11</title>
<path fill="none" stroke="midnightblue" d="M367.37,-103C379.96,-103 392.87,-103 404.9,-103"/>
<polygon fill="midnightblue" stroke="midnightblue" points="405.22,-106.5 415.22,-103 405.22,-99.5 405.22,-106.5"/>
</g>
</g>
</svg>
