<?xml version="1.0" encoding="UTF-8" standalone="no"?>
<!DOCTYPE svg PUBLIC "-//W3C//DTD SVG 1.1//EN"
 "http://www.w3.org/Graphics/SVG/1.1/DTD/svg11.dtd">
<!-- Generated by graphviz version 2.44.1 (0)
 -->
<!-- Title: libexif/exif&#45;gps&#45;ifd.h Pages: 1 -->
<svg width="244pt" height="84pt"
 viewBox="0.00 0.00 243.50 84.00" xmlns="http://www.w3.org/2000/svg" xmlns:xlink="http://www.w3.org/1999/xlink">
<g id="graph0" class="graph" transform="scale(1 1) rotate(0) translate(4 80)">
<title>libexif/exif&#45;gps&#45;ifd.h</title>
<polygon fill="white" stroke="transparent" points="-4,4 -4,-80 239.5,-80 239.5,4 -4,4"/>
<!-- Node1 -->
<g id="node1" class="node">
<title>Node1</title>
<g id="a_node1"><a xlink:title="Info about GPS tags.">
<polygon fill="#bfbfbf" stroke="black" points="58,-56.5 58,-75.5 172,-75.5 172,-56.5 58,-56.5"/>
<text text-anchor="middle" x="115" y="-63.5" font-family="Helvetica,sans-Serif" font-size="10.00">libexif/exif&#45;gps&#45;ifd.h</text>
</a>
</g>
</g>
<!-- Node2 -->
<g id="node2" class="node">
<title>Node2</title>
<g id="a_node2"><a xlink:href="exif-entry_8c.html" target="_top" xlink:title=" ">
<polygon fill="white" stroke="black" points="0,-0.5 0,-19.5 104,-19.5 104,-0.5 0,-0.5"/>
<text text-anchor="middle" x="52" y="-7.5" font-family="Helvetica,sans-Serif" font-size="10.00">libexif/exif&#45;entry.c</text>
</a>
</g>
</g>
<!-- Node1&#45;&gt;Node2 -->
<g id="edge1" class="edge">
<title>Node1&#45;&gt;Node2</title>
<path fill="none" stroke="midnightblue" d="M96.96,-49.54C85.73,-39.91 71.68,-27.87 62.31,-19.83"/>
<polygon fill="midnightblue" stroke="midnightblue" points="95.01,-52.47 104.88,-56.32 99.56,-47.16 95.01,-52.47"/>
</g>
<!-- Node3 -->
<g id="node3" class="node">
<title>Node3</title>
<g id="a_node3"><a xlink:href="exif-gps-ifd_8c.html" target="_top" xlink:title="Info about GPS tags.">
<polygon fill="white" stroke="black" points="122.5,-0.5 122.5,-19.5 235.5,-19.5 235.5,-0.5 122.5,-0.5"/>
<text text-anchor="middle" x="179" y="-7.5" font-family="Helvetica,sans-Serif" font-size="10.00">libexif/exif&#45;gps&#45;ifd.c</text>
</a>
</g>
</g>
<!-- Node1&#45;&gt;Node3 -->
<g id="edge2" class="edge">
<title>Node1&#45;&gt;Node3</title>
<path fill="none" stroke="midnightblue" d="M132.99,-49.82C144.46,-40.15 158.91,-27.95 168.53,-19.83"/>
<polygon fill="midnightblue" stroke="midnightblue" points="130.67,-47.2 125.28,-56.32 135.18,-52.55 130.67,-47.2"/>
</g>
</g>
</svg>
