<?xml version="1.0" encoding="UTF-8" standalone="no"?>
<!DOCTYPE svg PUBLIC "-//W3C//DTD SVG 1.1//EN"
 "http://www.w3.org/Graphics/SVG/1.1/DTD/svg11.dtd">
<!-- Generated by graphviz version 7.0.1 (0)
 -->
<!-- Title: exif_content_log Pages: 1 -->
<svg width="604pt" height="83pt"
 viewBox="0.00 0.00 604.00 83.00" xmlns="http://www.w3.org/2000/svg" xmlns:xlink="http://www.w3.org/1999/xlink">
<g id="graph0" class="graph" transform="scale(1 1) rotate(0) translate(4 79)">
<title>exif_content_log</title>
<!-- Node1 -->
<g id="Node000001" class="node">
<title>Node1</title>
<g id="a_Node000001"><a xlink:title="Set the log message object for this IFD.">
<polygon fill="#999999" stroke="#666666" points="98,-56 0,-56 0,-37 98,-37 98,-56"/>
<text text-anchor="middle" x="49" y="-44" font-family="Helvetica,sans-Serif" font-size="10.00">exif_content_log</text>
</a>
</g>
</g>
<!-- Node2 -->
<g id="Node000002" class="node">
<title>Node2</title>
<g id="a_Node000002"><a xlink:href="exif-log_8c.html#aafd7e5d40ca73440976a3b684bfa1059" target="_top" xlink:title=" ">
<polygon fill="white" stroke="#666666" points="214,-75 140,-75 140,-56 214,-56 214,-75"/>
<text text-anchor="middle" x="177" y="-63" font-family="Helvetica,sans-Serif" font-size="10.00">exif_log_ref</text>
</a>
</g>
</g>
<!-- Node1&#45;&gt;Node2 -->
<g id="edge1_Node000001_Node000002" class="edge">
<title>Node1&#45;&gt;Node2</title>
<g id="a_edge1_Node000001_Node000002"><a xlink:title=" ">
<path fill="none" stroke="#63b8ff" d="M98.35,-53.79C108.23,-55.28 118.62,-56.85 128.46,-58.33"/>
<polygon fill="#63b8ff" stroke="#63b8ff" points="127.81,-61.77 138.22,-59.8 128.85,-54.85 127.81,-61.77"/>
</a>
</g>
</g>
<!-- Node3 -->
<g id="Node000003" class="node">
<title>Node3</title>
<g id="a_Node000003"><a xlink:href="exif-log_8c.html#a7a9b738a7429197d68c80ffedac7d8fb" target="_top" xlink:title=" ">
<polygon fill="white" stroke="#666666" points="220,-38 134,-38 134,-19 220,-19 220,-38"/>
<text text-anchor="middle" x="177" y="-26" font-family="Helvetica,sans-Serif" font-size="10.00">exif_log_unref</text>
</a>
</g>
</g>
<!-- Node1&#45;&gt;Node3 -->
<g id="edge2_Node000001_Node000003" class="edge">
<title>Node1&#45;&gt;Node3</title>
<g id="a_edge2_Node000001_Node000003"><a xlink:title=" ">
<path fill="none" stroke="#63b8ff" d="M98.35,-39.59C106.28,-38.46 114.53,-37.28 122.57,-36.13"/>
<polygon fill="#63b8ff" stroke="#63b8ff" points="122.83,-39.63 132.24,-34.75 121.84,-32.7 122.83,-39.63"/>
</a>
</g>
</g>
<!-- Node4 -->
<g id="Node000004" class="node">
<title>Node4</title>
<g id="a_Node000004"><a xlink:href="exif-log_8c.html#acd0808d6d5be73f28059797c2e2e67dc" target="_top" xlink:title="Delete instance of ExifLog.">
<polygon fill="white" stroke="#666666" points="336,-38 256,-38 256,-19 336,-19 336,-38"/>
<text text-anchor="middle" x="296" y="-26" font-family="Helvetica,sans-Serif" font-size="10.00">exif_log_free</text>
</a>
</g>
</g>
<!-- Node3&#45;&gt;Node4 -->
<g id="edge3_Node000003_Node000004" class="edge">
<title>Node3&#45;&gt;Node4</title>
<g id="a_edge3_Node000003_Node000004"><a xlink:title=" ">
<path fill="none" stroke="#63b8ff" d="M220.24,-28.5C227.98,-28.5 236.13,-28.5 244.09,-28.5"/>
<polygon fill="#63b8ff" stroke="#63b8ff" points="244.04,-32 254.04,-28.5 244.04,-25 244.04,-32"/>
</a>
</g>
</g>
<!-- Node5 -->
<g id="Node000005" class="node">
<title>Node5</title>
<g id="a_Node000005"><a xlink:href="exif-mem_8c.html#a43190b81b4b4bdb4ffb89bfb612051b1" target="_top" xlink:title=" ">
<polygon fill="white" stroke="#666666" points="596,-38 505,-38 505,-19 596,-19 596,-38"/>
<text text-anchor="middle" x="550.5" y="-26" font-family="Helvetica,sans-Serif" font-size="10.00">exif_mem_free</text>
</a>
</g>
</g>
<!-- Node4&#45;&gt;Node5 -->
<g id="edge4_Node000004_Node000005" class="edge">
<title>Node4&#45;&gt;Node5</title>
<g id="a_edge4_Node000004_Node000005"><a xlink:title=" ">
<path fill="none" stroke="#63b8ff" d="M336.45,-28.5C378.61,-28.5 445.79,-28.5 493.43,-28.5"/>
<polygon fill="#63b8ff" stroke="#63b8ff" points="493.28,-32 503.28,-28.5 493.28,-25 493.28,-32"/>
</a>
</g>
</g>
<!-- Node6 -->
<g id="Node000006" class="node">
<title>Node6</title>
<g id="a_Node000006"><a xlink:href="exif-mem_8c.html#a66744e0987af08c443df247ce55f7d87" target="_top" xlink:title="Unrefcount an ExifMem.">
<polygon fill="white" stroke="#666666" points="469,-19 372,-19 372,0 469,0 469,-19"/>
<text text-anchor="middle" x="420.5" y="-7" font-family="Helvetica,sans-Serif" font-size="10.00">exif_mem_unref</text>
</a>
</g>
</g>
<!-- Node4&#45;&gt;Node6 -->
<g id="edge5_Node000004_Node000006" class="edge">
<title>Node4&#45;&gt;Node6</title>
<g id="a_edge5_Node000004_Node000006"><a xlink:title=" ">
<path fill="none" stroke="#63b8ff" d="M336.43,-22.38C344.04,-21.2 352.16,-19.94 360.24,-18.69"/>
<polygon fill="#63b8ff" stroke="#63b8ff" points="360.73,-22.16 370.07,-17.17 359.65,-15.24 360.73,-22.16"/>
</a>
</g>
</g>
<!-- Node6&#45;&gt;Node5 -->
<g id="edge6_Node000006_Node000005" class="edge">
<title>Node6&#45;&gt;Node5</title>
<g id="a_edge6_Node000006_Node000005"><a xlink:title=" ">
<path fill="none" stroke="#63b8ff" d="M469.16,-16.57C477.09,-17.75 485.37,-18.98 493.47,-20.18"/>
<polygon fill="#63b8ff" stroke="#63b8ff" points="492.86,-23.63 503.27,-21.64 493.89,-16.71 492.86,-23.63"/>
</a>
</g>
</g>
</g>
</svg>
