<?xml version="1.0" encoding="UTF-8" standalone="no"?>
<!DOCTYPE svg PUBLIC "-//W3C//DTD SVG 1.1//EN"
 "http://www.w3.org/Graphics/SVG/1.1/DTD/svg11.dtd">
<!-- Generated by graphviz version 2.44.1 (0)
 -->
<!-- Title: libexif/canon/exif&#45;mnote&#45;data&#45;canon.h Pages: 1 -->
<svg width="246pt" height="106pt"
 viewBox="0.00 0.00 246.00 106.00" xmlns="http://www.w3.org/2000/svg" xmlns:xlink="http://www.w3.org/1999/xlink">
<g id="graph0" class="graph" transform="scale(1 1) rotate(0) translate(4 102)">
<title>libexif/canon/exif&#45;mnote&#45;data&#45;canon.h</title>
<polygon fill="white" stroke="transparent" points="-4,4 -4,-102 242,-102 242,4 -4,4"/>
<!-- Node1 -->
<g id="node1" class="node">
<title>Node1</title>
<g id="a_node1"><a xlink:title=" ">
<polygon fill="#bfbfbf" stroke="black" points="64,-67.5 64,-97.5 183,-97.5 183,-67.5 64,-67.5"/>
<text text-anchor="start" x="72" y="-85.5" font-family="Helvetica,sans-Serif" font-size="10.00">libexif/canon/exif</text>
<text text-anchor="middle" x="123.5" y="-74.5" font-family="Helvetica,sans-Serif" font-size="10.00">&#45;mnote&#45;data&#45;canon.h</text>
</a>
</g>
</g>
<!-- Node2 -->
<g id="node2" class="node">
<title>Node2</title>
<g id="a_node2"><a xlink:href="exif-mnote-data-canon_8c.html" target="_top" xlink:title=" ">
<polygon fill="white" stroke="black" points="0,-0.5 0,-30.5 119,-30.5 119,-0.5 0,-0.5"/>
<text text-anchor="start" x="8" y="-18.5" font-family="Helvetica,sans-Serif" font-size="10.00">libexif/canon/exif</text>
<text text-anchor="middle" x="59.5" y="-7.5" font-family="Helvetica,sans-Serif" font-size="10.00">&#45;mnote&#45;data&#45;canon.c</text>
</a>
</g>
</g>
<!-- Node1&#45;&gt;Node2 -->
<g id="edge1" class="edge">
<title>Node1&#45;&gt;Node2</title>
<path fill="none" stroke="midnightblue" d="M102.35,-60.02C92.82,-50.34 81.83,-39.17 73.36,-30.58"/>
<polygon fill="midnightblue" stroke="midnightblue" points="100.1,-62.73 109.61,-67.4 105.09,-57.81 100.1,-62.73"/>
</g>
<!-- Node3 -->
<g id="node3" class="node">
<title>Node3</title>
<g id="a_node3"><a xlink:href="exif-data_8c.html" target="_top" xlink:title=" ">
<polygon fill="white" stroke="black" points="137,-6 137,-25 238,-25 238,-6 137,-6"/>
<text text-anchor="middle" x="187.5" y="-13" font-family="Helvetica,sans-Serif" font-size="10.00">libexif/exif&#45;data.c</text>
</a>
</g>
</g>
<!-- Node1&#45;&gt;Node3 -->
<g id="edge2" class="edge">
<title>Node1&#45;&gt;Node3</title>
<path fill="none" stroke="midnightblue" d="M144.67,-60C156.35,-48.13 170.22,-34.05 178.94,-25.19"/>
<polygon fill="midnightblue" stroke="midnightblue" points="141.91,-57.81 137.39,-67.4 146.9,-62.73 141.91,-57.81"/>
</g>
</g>
</svg>
