<?xml version="1.0" encoding="UTF-8" standalone="no"?>
<!DOCTYPE svg PUBLIC "-//W3C//DTD SVG 1.1//EN"
 "http://www.w3.org/Graphics/SVG/1.1/DTD/svg11.dtd">
<!-- Generated by graphviz version 7.0.1 (0)
 -->
<!-- Title: exif_entry_get_value Pages: 1 -->
<svg width="707pt" height="452pt"
 viewBox="0.00 0.00 707.00 452.00" xmlns="http://www.w3.org/2000/svg" xmlns:xlink="http://www.w3.org/1999/xlink">
<g id="graph0" class="graph" transform="scale(1 1) rotate(0) translate(4 448)">
<title>exif_entry_get_value</title>
<!-- Node1 -->
<g id="Node000001" class="node">
<title>Node1</title>
<g id="a_Node000001"><a xlink:title="Return a localized textual representation of the value of the EXIF entry.">
<polygon fill="#999999" stroke="#666666" points="119,-225 0,-225 0,-206 119,-206 119,-225"/>
<text text-anchor="middle" x="59.5" y="-213" font-family="Helvetica,sans-Serif" font-size="10.00">exif_entry_get_value</text>
</a>
</g>
</g>
<!-- Node2 -->
<g id="Node000002" class="node">
<title>Node2</title>
<g id="a_Node000002"><a xlink:href="exif-content_8c.html#a5d98a5c58c31b49691694b010b29117d" target="_top" xlink:title="Return the ExifEntry in this IFD corresponding to the given tag.">
<polygon fill="white" stroke="#666666" points="288,-444 159,-444 159,-425 288,-425 288,-444"/>
<text text-anchor="middle" x="223.5" y="-432" font-family="Helvetica,sans-Serif" font-size="10.00">exif_content_get_entry</text>
</a>
</g>
</g>
<!-- Node1&#45;&gt;Node2 -->
<g id="edge1_Node000001_Node000002" class="edge">
<title>Node1&#45;&gt;Node2</title>
<g id="a_edge1_Node000001_Node000002"><a xlink:title=" ">
<path fill="none" stroke="#63b8ff" d="M62.45,-225.19C69.29,-256.61 95.04,-356.78 155,-410.5 159.02,-414.1 163.61,-417.16 168.46,-419.78"/>
<polygon fill="#63b8ff" stroke="#63b8ff" points="166.79,-422.86 177.33,-423.89 169.73,-416.51 166.79,-422.86"/>
</a>
</g>
</g>
<!-- Node3 -->
<g id="Node000003" class="node">
<title>Node3</title>
<g id="a_Node000003"><a xlink:href="exif-utils_8c.html#a0c51156312ff6ca97f4d587f776ded8f" target="_top" xlink:title="This function converts rather UCS&#45;2LE than UTF&#45;16 to UTF&#45;8.">
<polygon fill="white" stroke="#666666" points="277.5,-368.5 169.5,-368.5 169.5,-338.5 277.5,-338.5 277.5,-368.5"/>
<text text-anchor="start" x="177.5" y="-356.5" font-family="Helvetica,sans-Serif" font-size="10.00">exif_convert_utf16</text>
<text text-anchor="middle" x="223.5" y="-345.5" font-family="Helvetica,sans-Serif" font-size="10.00">_to_utf8</text>
</a>
</g>
</g>
<!-- Node1&#45;&gt;Node3 -->
<g id="edge2_Node000001_Node000003" class="edge">
<title>Node1&#45;&gt;Node3</title>
<g id="a_edge2_Node000001_Node000003"><a xlink:title=" ">
<path fill="none" stroke="#63b8ff" d="M66.69,-225.24C80.33,-246.04 114.96,-295.24 155,-324.5 159.28,-327.63 163.95,-330.5 168.77,-333.13"/>
<polygon fill="#63b8ff" stroke="#63b8ff" points="166.94,-336.13 177.44,-337.48 170.08,-329.87 166.94,-336.13"/>
</a>
</g>
</g>
<!-- Node4 -->
<g id="Node000004" class="node">
<title>Node4</title>
<g id="a_Node000004"><a xlink:href="exif-utils_8c.html#a4b4acf537a8c6b9405e7b53be868e4d7" target="_top" xlink:title="Retrieve an ExifShort value from memory.">
<polygon fill="white" stroke="#666666" points="430.5,-441 344.5,-441 344.5,-422 430.5,-422 430.5,-441"/>
<text text-anchor="middle" x="387.5" y="-429" font-family="Helvetica,sans-Serif" font-size="10.00">exif_get_short</text>
</a>
</g>
</g>
<!-- Node1&#45;&gt;Node4 -->
<g id="edge23_Node000001_Node000004" class="edge">
<title>Node1&#45;&gt;Node4</title>
<g id="a_edge23_Node000001_Node000004"><a xlink:title=" ">
<path fill="none" stroke="#63b8ff" d="M63.23,-225.38C71.64,-253.89 99.99,-336.89 155,-377.5 169.31,-388.06 269.33,-408.89 333.14,-421.36"/>
<polygon fill="#63b8ff" stroke="#63b8ff" points="332.24,-424.76 342.73,-423.23 333.58,-417.88 332.24,-424.76"/>
</a>
</g>
</g>
<!-- Node6 -->
<g id="Node000006" class="node">
<title>Node6</title>
<g id="a_Node000006"><a xlink:href="exif-data_8c.html#a2d8d50e6a9c19d28fe8192ef7cc52777" target="_top" xlink:title="Return the byte order in use by this EXIF structure.">
<polygon fill="white" stroke="#666666" points="442.5,-403.5 332.5,-403.5 332.5,-373.5 442.5,-373.5 442.5,-403.5"/>
<text text-anchor="start" x="340.5" y="-391.5" font-family="Helvetica,sans-Serif" font-size="10.00">exif_data_get_byte</text>
<text text-anchor="middle" x="387.5" y="-380.5" font-family="Helvetica,sans-Serif" font-size="10.00">_order</text>
</a>
</g>
</g>
<!-- Node1&#45;&gt;Node6 -->
<g id="edge5_Node000001_Node000006" class="edge">
<title>Node1&#45;&gt;Node6</title>
<g id="a_edge5_Node000001_Node000006"><a xlink:title=" ">
<path fill="none" stroke="#63b8ff" d="M70.02,-225.43C86.06,-241.61 120.16,-273.63 155,-291.5 211.22,-320.34 235.05,-302.13 292,-329.5 309.79,-338.05 311.38,-344.86 328,-355.5 334.33,-359.56 341.19,-363.66 347.9,-367.54"/>
<polygon fill="#63b8ff" stroke="#63b8ff" points="345.82,-370.38 356.24,-372.27 349.27,-364.29 345.82,-370.38"/>
</a>
</g>
</g>
<!-- Node7 -->
<g id="Node000007" class="node">
<title>Node7</title>
<g id="a_Node000007"><a xlink:href="exif-entry_8c.html#ae02e9d58318a3cd50eb6730b5e657e5a" target="_top" xlink:title="Format the value of an ExifEntry for human display in a generic way.">
<polygon fill="white" stroke="#666666" points="292,-282 155,-282 155,-263 292,-263 292,-282"/>
<text text-anchor="middle" x="223.5" y="-270" font-family="Helvetica,sans-Serif" font-size="10.00">exif_entry_format_value</text>
</a>
</g>
</g>
<!-- Node1&#45;&gt;Node7 -->
<g id="edge6_Node000001_Node000007" class="edge">
<title>Node1&#45;&gt;Node7</title>
<g id="a_edge6_Node000001_Node000007"><a xlink:title=" ">
<path fill="none" stroke="#63b8ff" d="M88.72,-225.43C115,-234.68 154.42,-248.55 183.67,-258.84"/>
<polygon fill="#63b8ff" stroke="#63b8ff" points="182.31,-262.07 192.91,-262.09 184.63,-255.47 182.31,-262.07"/>
</a>
</g>
</g>
<!-- Node8 -->
<g id="Node000008" class="node">
<title>Node8</title>
<g id="a_Node000008"><a xlink:href="exif-format_8c.html#a924038efe0cd8ebade8f44619dd794f3" target="_top" xlink:title="Return the raw size of the given EXIF data type.">
<polygon fill="white" stroke="#666666" points="447,-241 328,-241 328,-222 447,-222 447,-241"/>
<text text-anchor="middle" x="387.5" y="-229" font-family="Helvetica,sans-Serif" font-size="10.00">exif_format_get_size</text>
</a>
</g>
</g>
<!-- Node1&#45;&gt;Node8 -->
<g id="edge21_Node000001_Node000008" class="edge">
<title>Node1&#45;&gt;Node8</title>
<g id="a_edge21_Node000001_Node000008"><a xlink:title=" ">
<path fill="none" stroke="#63b8ff" d="M119.16,-218.38C174.5,-221.09 257.52,-225.17 316.34,-228.06"/>
<polygon fill="#63b8ff" stroke="#63b8ff" points="316.09,-231.55 326.25,-228.54 316.44,-224.56 316.09,-231.55"/>
</a>
</g>
</g>
<!-- Node11 -->
<g id="Node000011" class="node">
<title>Node11</title>
<g id="a_Node000011"><a xlink:href="exif-utils_8c.html#a1feb547c289aa57a4d2119338b03706c" target="_top" xlink:title="Retrieve an ExifRational value from memory.">
<polygon fill="white" stroke="#666666" points="437,-204 338,-204 338,-185 437,-185 437,-204"/>
<text text-anchor="middle" x="387.5" y="-192" font-family="Helvetica,sans-Serif" font-size="10.00">exif_get_rational</text>
</a>
</g>
</g>
<!-- Node1&#45;&gt;Node11 -->
<g id="edge22_Node000001_Node000011" class="edge">
<title>Node1&#45;&gt;Node11</title>
<g id="a_edge22_Node000001_Node000011"><a xlink:title=" ">
<path fill="none" stroke="#63b8ff" d="M119.16,-211.72C177.68,-207.95 267.15,-202.19 326.23,-198.38"/>
<polygon fill="#63b8ff" stroke="#63b8ff" points="326.35,-201.88 336.11,-197.75 325.9,-194.9 326.35,-201.88"/>
</a>
</g>
</g>
<!-- Node12 -->
<g id="Node000012" class="node">
<title>Node12</title>
<g id="a_Node000012"><a xlink:href="exif-utils_8c.html#adb97c3499488d5642a82df1cb16dc2cb" target="_top" xlink:title="Retrieve an ExifSRational value from memory.">
<polygon fill="white" stroke="#666666" points="439.5,-167 335.5,-167 335.5,-148 439.5,-148 439.5,-167"/>
<text text-anchor="middle" x="387.5" y="-155" font-family="Helvetica,sans-Serif" font-size="10.00">exif_get_srational</text>
</a>
</g>
</g>
<!-- Node1&#45;&gt;Node12 -->
<g id="edge24_Node000001_Node000012" class="edge">
<title>Node1&#45;&gt;Node12</title>
<g id="a_edge24_Node000001_Node000012"><a xlink:title=" ">
<path fill="none" stroke="#63b8ff" d="M108.52,-205.54C123.4,-202.54 139.86,-199.3 155,-196.5 212.21,-185.93 277.59,-175.03 324.24,-167.44"/>
<polygon fill="#63b8ff" stroke="#63b8ff" points="324.58,-170.93 333.89,-165.88 323.46,-164.02 324.58,-170.93"/>
</a>
</g>
</g>
<!-- Node13 -->
<g id="Node000013" class="node">
<title>Node13</title>
<g id="a_Node000013"><a xlink:href="exif-entry_8c.html#ac416e8326bd687f5da299d1b15a731bf" target="_top" xlink:title=" ">
<polygon fill="white" stroke="#666666" points="266.5,-130 180.5,-130 180.5,-111 266.5,-111 266.5,-130"/>
<text text-anchor="middle" x="223.5" y="-118" font-family="Helvetica,sans-Serif" font-size="10.00">exif_entry_log</text>
</a>
</g>
</g>
<!-- Node1&#45;&gt;Node13 -->
<g id="edge18_Node000001_Node000013" class="edge">
<title>Node1&#45;&gt;Node13</title>
<g id="a_edge18_Node000001_Node000013"><a xlink:title=" ">
<path fill="none" stroke="#63b8ff" d="M71.38,-205.56C88.22,-190.6 122.1,-162.18 155,-144.5 162.07,-140.7 169.87,-137.29 177.58,-134.31"/>
<polygon fill="#63b8ff" stroke="#63b8ff" points="178.71,-137.63 186.92,-130.92 176.32,-131.05 178.71,-137.63"/>
</a>
</g>
</g>
<!-- Node16 -->
<g id="Node000016" class="node">
<title>Node16</title>
<g id="a_Node000016"><a xlink:href="exif-mem_8c.html#a68be7c7afc8cff75adc3b1a28b5ae9a2" target="_top" xlink:title=" ">
<polygon fill="white" stroke="#666666" points="271,-93 176,-93 176,-74 271,-74 271,-93"/>
<text text-anchor="middle" x="223.5" y="-81" font-family="Helvetica,sans-Serif" font-size="10.00">exif_mem_alloc</text>
</a>
</g>
</g>
<!-- Node1&#45;&gt;Node16 -->
<g id="edge25_Node000001_Node000016" class="edge">
<title>Node1&#45;&gt;Node16</title>
<g id="a_edge25_Node000001_Node000016"><a xlink:title=" ">
<path fill="none" stroke="#63b8ff" d="M65.87,-205.5C78.38,-183.21 111.7,-129.23 155,-101.5 158.12,-99.5 161.45,-97.73 164.9,-96.15"/>
<polygon fill="#63b8ff" stroke="#63b8ff" points="166.08,-99.45 174.11,-92.53 163.52,-92.93 166.08,-99.45"/>
</a>
</g>
</g>
<!-- Node17 -->
<g id="Node000017" class="node">
<title>Node17</title>
<g id="a_Node000017"><a xlink:href="exif-mem_8c.html#a43190b81b4b4bdb4ffb89bfb612051b1" target="_top" xlink:title=" ">
<polygon fill="white" stroke="#666666" points="269,-56 178,-56 178,-37 269,-37 269,-56"/>
<text text-anchor="middle" x="223.5" y="-44" font-family="Helvetica,sans-Serif" font-size="10.00">exif_mem_free</text>
</a>
</g>
</g>
<!-- Node1&#45;&gt;Node17 -->
<g id="edge26_Node000001_Node000017" class="edge">
<title>Node1&#45;&gt;Node17</title>
<g id="a_edge26_Node000001_Node000017"><a xlink:title=" ">
<path fill="none" stroke="#63b8ff" d="M63.76,-205.6C73.21,-178.51 103.26,-102.71 155,-64.5 158.79,-61.7 162.98,-59.34 167.36,-57.35"/>
<polygon fill="#63b8ff" stroke="#63b8ff" points="168.35,-60.72 176.43,-53.87 165.84,-54.18 168.35,-60.72"/>
</a>
</g>
</g>
<!-- Node18 -->
<g id="Node000018" class="node">
<title>Node18</title>
<g id="a_Node000018"><a xlink:href="exif-entry_8c.html#acfe97d1f369d95332b6e796c690093e4" target="_top" xlink:title="Check if a string consists entirely of a single, repeated character.">
<polygon fill="white" stroke="#666666" points="284.5,-19 162.5,-19 162.5,0 284.5,0 284.5,-19"/>
<text text-anchor="middle" x="223.5" y="-7" font-family="Helvetica,sans-Serif" font-size="10.00">match_repeated_char</text>
</a>
</g>
</g>
<!-- Node1&#45;&gt;Node18 -->
<g id="edge27_Node000001_Node000018" class="edge">
<title>Node1&#45;&gt;Node18</title>
<g id="a_edge27_Node000001_Node000018"><a xlink:title=" ">
<path fill="none" stroke="#63b8ff" d="M62.49,-205.52C69.3,-174.14 94.64,-76.6 155,-27.5 156.11,-26.6 157.26,-25.74 158.45,-24.92"/>
<polygon fill="#63b8ff" stroke="#63b8ff" points="159.82,-28.17 166.82,-20.21 156.39,-22.07 159.82,-28.17"/>
</a>
</g>
</g>
<!-- Node3&#45;&gt;Node4 -->
<g id="edge3_Node000003_Node000004" class="edge">
<title>Node3&#45;&gt;Node4</title>
<g id="a_edge3_Node000003_Node000004"><a xlink:title=" ">
<path fill="none" stroke="#63b8ff" d="M265.79,-368.99C274.68,-372.94 283.85,-377.5 292,-382.5 309.75,-393.39 309.77,-402.43 328,-412.5 331.23,-414.28 334.64,-415.93 338.14,-417.44"/>
<polygon fill="#63b8ff" stroke="#63b8ff" points="336.79,-420.67 347.37,-421.05 339.33,-414.15 336.79,-420.67"/>
</a>
</g>
</g>
<!-- Node5 -->
<g id="Node000005" class="node">
<title>Node5</title>
<g id="a_Node000005"><a xlink:href="exif-utils_8c.html#a6baf094a71392f9cea23ad633ec13c8b" target="_top" xlink:title="Retrieve an ExifSShort value from memory.">
<polygon fill="white" stroke="#666666" points="575,-398 483,-398 483,-379 575,-379 575,-398"/>
<text text-anchor="middle" x="529" y="-386" font-family="Helvetica,sans-Serif" font-size="10.00">exif_get_sshort</text>
</a>
</g>
</g>
<!-- Node4&#45;&gt;Node5 -->
<g id="edge4_Node000004_Node000005" class="edge">
<title>Node4&#45;&gt;Node5</title>
<g id="a_edge4_Node000004_Node000005"><a xlink:title=" ">
<path fill="none" stroke="#63b8ff" d="M420.85,-421.53C439.96,-415.64 464.37,-408.11 485.07,-401.73"/>
<polygon fill="#63b8ff" stroke="#63b8ff" points="485.85,-405.16 494.37,-398.86 483.79,-398.47 485.85,-405.16"/>
</a>
</g>
</g>
<!-- Node7&#45;&gt;Node4 -->
<g id="edge13_Node000007_Node000004" class="edge">
<title>Node7&#45;&gt;Node4</title>
<g id="a_edge13_Node000007_Node000004"><a xlink:title=" ">
<path fill="none" stroke="#63b8ff" d="M239.96,-282.42C254.93,-292.68 277.45,-309.93 292,-329.5 315.99,-361.77 298.25,-385.45 328,-412.5 329.89,-414.22 331.95,-415.79 334.11,-417.21"/>
<polygon fill="#63b8ff" stroke="#63b8ff" points="332.37,-420.25 342.84,-421.88 335.67,-414.08 332.37,-420.25"/>
</a>
</g>
</g>
<!-- Node7&#45;&gt;Node5 -->
<g id="edge17_Node000007_Node000005" class="edge">
<title>Node7&#45;&gt;Node5</title>
<g id="a_edge17_Node000007_Node000005"><a xlink:title=" ">
<path fill="none" stroke="#63b8ff" d="M257.85,-282.4C268.98,-286.21 281.27,-290.99 292,-296.5 309.33,-305.4 310.59,-312.76 328,-321.5 355.61,-335.36 433.72,-360.06 483.75,-375.28"/>
<polygon fill="#63b8ff" stroke="#63b8ff" points="482.56,-378.58 493.14,-378.13 484.59,-371.88 482.56,-378.58"/>
</a>
</g>
</g>
<!-- Node7&#45;&gt;Node6 -->
<g id="edge7_Node000007_Node000006" class="edge">
<title>Node7&#45;&gt;Node6</title>
<g id="a_edge7_Node000007_Node000006"><a xlink:title=" ">
<path fill="none" stroke="#63b8ff" d="M266.93,-282.41C275.86,-285.86 284.75,-290.43 292,-296.5 316.74,-317.19 304.53,-337.38 328,-359.5 330.98,-362.31 334.28,-364.9 337.76,-367.29"/>
<polygon fill="#63b8ff" stroke="#63b8ff" points="335.62,-370.08 345.97,-372.32 339.27,-364.11 335.62,-370.08"/>
</a>
</g>
</g>
<!-- Node7&#45;&gt;Node8 -->
<g id="edge8_Node000007_Node000008" class="edge">
<title>Node7&#45;&gt;Node8</title>
<g id="a_edge8_Node000007_Node000008"><a xlink:title=" ">
<path fill="none" stroke="#63b8ff" d="M263.72,-262.58C285.44,-257.08 312.69,-250.18 336,-244.28"/>
<polygon fill="#63b8ff" stroke="#63b8ff" points="336.78,-247.69 345.62,-241.85 335.06,-240.91 336.78,-247.69"/>
</a>
</g>
</g>
<!-- Node9 -->
<g id="Node000009" class="node">
<title>Node9</title>
<g id="a_Node000009"><a xlink:href="exif-utils_8c.html#a4ad94614630897766dd0a5c9bc2a59bf" target="_top" xlink:title="Retrieve an ExifLong value from memory.">
<polygon fill="white" stroke="#666666" points="570.5,-261 487.5,-261 487.5,-242 570.5,-242 570.5,-261"/>
<text text-anchor="middle" x="529" y="-249" font-family="Helvetica,sans-Serif" font-size="10.00">exif_get_long</text>
</a>
</g>
</g>
<!-- Node7&#45;&gt;Node9 -->
<g id="edge9_Node000007_Node000009" class="edge">
<title>Node7&#45;&gt;Node9</title>
<g id="a_edge9_Node000007_Node000009"><a xlink:title=" ">
<path fill="none" stroke="#63b8ff" d="M292.23,-267.81C347.66,-263.98 424.93,-258.63 475.69,-255.12"/>
<polygon fill="#63b8ff" stroke="#63b8ff" points="475.8,-258.62 485.54,-254.44 475.32,-251.64 475.8,-258.62"/>
</a>
</g>
</g>
<!-- Node10 -->
<g id="Node000010" class="node">
<title>Node10</title>
<g id="a_Node000010"><a xlink:href="exif-utils_8c.html#a56b96f076a13da6ed926e1ef29cb2dc3" target="_top" xlink:title="Retrieve an ExifSLong value from memory.">
<polygon fill="white" stroke="#666666" points="699,-261 611,-261 611,-242 699,-242 699,-261"/>
<text text-anchor="middle" x="655" y="-249" font-family="Helvetica,sans-Serif" font-size="10.00">exif_get_slong</text>
</a>
</g>
</g>
<!-- Node7&#45;&gt;Node10 -->
<g id="edge14_Node000007_Node000010" class="edge">
<title>Node7&#45;&gt;Node10</title>
<g id="a_edge14_Node000007_Node000010"><a xlink:title=" ">
<path fill="none" stroke="#63b8ff" d="M292.38,-277.22C363.25,-280.95 477.45,-283.61 575,-270.5 585.9,-269.04 597.48,-266.7 608.32,-264.16"/>
<polygon fill="#63b8ff" stroke="#63b8ff" points="608.94,-267.62 617.82,-261.83 607.27,-260.82 608.94,-267.62"/>
</a>
</g>
</g>
<!-- Node7&#45;&gt;Node11 -->
<g id="edge11_Node000007_Node000011" class="edge">
<title>Node7&#45;&gt;Node11</title>
<g id="a_edge11_Node000007_Node000011"><a xlink:title=" ">
<path fill="none" stroke="#63b8ff" d="M239.42,-262.69C259.1,-250.07 295.08,-228.05 328,-213.5 332.29,-211.61 336.82,-209.8 341.39,-208.12"/>
<polygon fill="#63b8ff" stroke="#63b8ff" points="342.32,-211.5 350.6,-204.9 340.01,-204.89 342.32,-211.5"/>
</a>
</g>
</g>
<!-- Node7&#45;&gt;Node12 -->
<g id="edge15_Node000007_Node000012" class="edge">
<title>Node7&#45;&gt;Node12</title>
<g id="a_edge15_Node000007_Node000012"><a xlink:title=" ">
<path fill="none" stroke="#63b8ff" d="M232.56,-262.57C248.7,-243.29 287,-200.57 328,-176.5 330.94,-174.77 334.06,-173.18 337.27,-171.71"/>
<polygon fill="#63b8ff" stroke="#63b8ff" points="338.36,-175.05 346.3,-168.04 335.72,-168.57 338.36,-175.05"/>
</a>
</g>
</g>
<!-- Node9&#45;&gt;Node10 -->
<g id="edge10_Node000009_Node000010" class="edge">
<title>Node9&#45;&gt;Node10</title>
<g id="a_edge10_Node000009_Node000010"><a xlink:title=" ">
<path fill="none" stroke="#63b8ff" d="M570.95,-251.5C579.97,-251.5 589.68,-251.5 599.15,-251.5"/>
<polygon fill="#63b8ff" stroke="#63b8ff" points="599.03,-255 609.03,-251.5 599.03,-248 599.03,-255"/>
</a>
</g>
</g>
<!-- Node11&#45;&gt;Node9 -->
<g id="edge12_Node000011_Node000009" class="edge">
<title>Node11&#45;&gt;Node9</title>
<g id="a_edge12_Node000011_Node000009"><a xlink:title=" ">
<path fill="none" stroke="#63b8ff" d="M421.55,-204.44C429.93,-207.18 438.86,-210.28 447,-213.5 464.32,-220.34 483.18,-229.11 498.35,-236.5"/>
<polygon fill="#63b8ff" stroke="#63b8ff" points="496.78,-239.63 507.3,-240.92 499.88,-233.36 496.78,-239.63"/>
</a>
</g>
</g>
<!-- Node12&#45;&gt;Node10 -->
<g id="edge16_Node000012_Node000010" class="edge">
<title>Node12&#45;&gt;Node10</title>
<g id="a_edge16_Node000012_Node000010"><a xlink:title=" ">
<path fill="none" stroke="#63b8ff" d="M419.84,-167.46C428.64,-170.32 438.21,-173.48 447,-176.5 506.61,-196.97 575.3,-222.19 616.65,-237.54"/>
<polygon fill="#63b8ff" stroke="#63b8ff" points="615.29,-240.77 625.89,-240.98 617.73,-234.21 615.29,-240.77"/>
</a>
</g>
</g>
<!-- Node14 -->
<g id="Node000014" class="node">
<title>Node14</title>
<g id="a_Node000014"><a xlink:href="exif-data_8c.html#a9403ed4fde8ef603e9db173eb122efaf" target="_top" xlink:title=" ">
<polygon fill="white" stroke="#666666" points="439.5,-130 335.5,-130 335.5,-111 439.5,-111 439.5,-130"/>
<text text-anchor="middle" x="387.5" y="-118" font-family="Helvetica,sans-Serif" font-size="10.00">exif_data_get_log</text>
</a>
</g>
</g>
<!-- Node13&#45;&gt;Node14 -->
<g id="edge19_Node000013_Node000014" class="edge">
<title>Node13&#45;&gt;Node14</title>
<g id="a_edge19_Node000013_Node000014"><a xlink:title=" ">
<path fill="none" stroke="#63b8ff" d="M266.64,-120.5C284.04,-120.5 304.56,-120.5 323.67,-120.5"/>
<polygon fill="#63b8ff" stroke="#63b8ff" points="323.52,-124 333.52,-120.5 323.52,-117 323.52,-124"/>
</a>
</g>
</g>
<!-- Node15 -->
<g id="Node000015" class="node">
<title>Node15</title>
<g id="a_Node000015"><a xlink:href="exif-log_8c.html#a99101b5ad01b2d82ce9d43c9e8534627" target="_top" xlink:title=" ">
<polygon fill="white" stroke="#666666" points="418.5,-93 356.5,-93 356.5,-74 418.5,-74 418.5,-93"/>
<text text-anchor="middle" x="387.5" y="-81" font-family="Helvetica,sans-Serif" font-size="10.00">exif_logv</text>
</a>
</g>
</g>
<!-- Node13&#45;&gt;Node15 -->
<g id="edge20_Node000013_Node000015" class="edge">
<title>Node13&#45;&gt;Node15</title>
<g id="a_edge20_Node000013_Node000015"><a xlink:title=" ">
<path fill="none" stroke="#63b8ff" d="M266.64,-110.88C290.84,-105.35 321.1,-98.44 345.16,-92.94"/>
<polygon fill="#63b8ff" stroke="#63b8ff" points="345.64,-96.42 354.61,-90.78 344.08,-89.6 345.64,-96.42"/>
</a>
</g>
</g>
</g>
</svg>
