<?xml version="1.0" encoding="UTF-8" standalone="no"?>
<!DOCTYPE svg PUBLIC "-//W3C//DTD SVG 1.1//EN"
 "http://www.w3.org/Graphics/SVG/1.1/DTD/svg11.dtd">
<!-- Generated by graphviz version 7.0.1 (0)
 -->
<!-- Title: libexif/canon/exif&#45;mnote&#45;data&#45;canon.h Pages: 1 -->
<svg width="786pt" height="522pt"
 viewBox="0.00 0.00 786.00 522.00" xmlns="http://www.w3.org/2000/svg" xmlns:xlink="http://www.w3.org/1999/xlink">
<g id="graph0" class="graph" transform="scale(1 1) rotate(0) translate(4 518)">
<title>libexif/canon/exif&#45;mnote&#45;data&#45;canon.h</title>
<!-- Node1 -->
<g id="Node000001" class="node">
<title>Node1</title>
<g id="a_Node000001"><a xlink:title=" ">
<polygon fill="#999999" stroke="#666666" points="237.5,-514 118.5,-514 118.5,-484 237.5,-484 237.5,-514"/>
<text text-anchor="start" x="126.5" y="-502" font-family="Helvetica,sans-Serif" font-size="10.00">libexif/canon/exif</text>
<text text-anchor="middle" x="178" y="-491" font-family="Helvetica,sans-Serif" font-size="10.00">&#45;mnote&#45;data&#45;canon.h</text>
</a>
</g>
</g>
<!-- Node2 -->
<g id="Node000002" class="node">
<title>Node2</title>
<g id="a_Node000002"><a xlink:href="exif-byte-order_8h.html" target="_top" xlink:title="Defines the ExifByteOrder enum and the associated functions.">
<polygon fill="white" stroke="#666666" points="334.5,-19 203.5,-19 203.5,0 334.5,0 334.5,-19"/>
<text text-anchor="middle" x="269" y="-7" font-family="Helvetica,sans-Serif" font-size="10.00">libexif/exif&#45;byte&#45;order.h</text>
</a>
</g>
</g>
<!-- Node1&#45;&gt;Node2 -->
<g id="edge1_Node000001_Node000002" class="edge">
<title>Node1&#45;&gt;Node2</title>
<g id="a_edge1_Node000001_Node000002"><a xlink:title=" ">
<path fill="none" stroke="#63b8ff" d="M124.11,-483.53C71.72,-465.8 0,-430.18 0,-368 0,-368 0,-368 0,-118.5 0,-73.5 131.28,-38.67 210.42,-21.76"/>
<polygon fill="#63b8ff" stroke="#63b8ff" points="210.67,-25.28 219.74,-19.8 209.23,-18.43 210.67,-25.28"/>
</a>
</g>
</g>
<!-- Node3 -->
<g id="Node000003" class="node">
<title>Node3</title>
<g id="a_Node000003"><a xlink:href="exif-mnote-data_8h.html" target="_top" xlink:title="Handling EXIF MakerNote tags.">
<polygon fill="white" stroke="#666666" points="245.5,-250 142.5,-250 142.5,-220 245.5,-220 245.5,-250"/>
<text text-anchor="start" x="150.5" y="-238" font-family="Helvetica,sans-Serif" font-size="10.00">libexif/exif&#45;mnote</text>
<text text-anchor="middle" x="194" y="-227" font-family="Helvetica,sans-Serif" font-size="10.00">&#45;data.h</text>
</a>
</g>
</g>
<!-- Node1&#45;&gt;Node3 -->
<g id="edge2_Node000001_Node000003" class="edge">
<title>Node1&#45;&gt;Node3</title>
<g id="a_edge2_Node000001_Node000003"><a xlink:title=" ">
<path fill="none" stroke="#63b8ff" d="M178.88,-483.54C181.48,-441.04 189.11,-316.12 192.43,-261.76"/>
<polygon fill="#63b8ff" stroke="#63b8ff" points="195.91,-262.12 193.03,-251.93 188.92,-261.69 195.91,-262.12"/>
</a>
</g>
</g>
<!-- Node5 -->
<g id="Node000005" class="node">
<title>Node5</title>
<g id="a_Node000005"><a xlink:href="exif-mem_8h.html" target="_top" xlink:title="Define the ExifMem data type and the associated functions.">
<polygon fill="white" stroke="#666666" points="416,-129 310,-129 310,-110 416,-110 416,-129"/>
<text text-anchor="middle" x="363" y="-117" font-family="Helvetica,sans-Serif" font-size="10.00">libexif/exif&#45;mem.h</text>
</a>
</g>
</g>
<!-- Node1&#45;&gt;Node5 -->
<g id="edge14_Node000001_Node000005" class="edge">
<title>Node1&#45;&gt;Node5</title>
<g id="a_edge14_Node000001_Node000005"><a xlink:title=" ">
<path fill="none" stroke="#63b8ff" d="M142.67,-483.62C101.2,-464.12 38,-425.05 38,-368 38,-368 38,-368 38,-300 38,-182.16 203.75,-141.08 298.51,-127.23"/>
<polygon fill="#63b8ff" stroke="#63b8ff" points="298.78,-130.73 308.2,-125.88 297.81,-123.79 298.78,-130.73"/>
</a>
</g>
</g>
<!-- Node10 -->
<g id="Node000010" class="node">
<title>Node10</title>
<g id="a_Node000010"><a xlink:href="exif-mnote-data-priv_8h.html" target="_top" xlink:title=" ">
<polygon fill="white" stroke="#666666" points="169.5,-316 66.5,-316 66.5,-286 169.5,-286 169.5,-316"/>
<text text-anchor="start" x="74.5" y="-304" font-family="Helvetica,sans-Serif" font-size="10.00">libexif/exif&#45;mnote</text>
<text text-anchor="middle" x="118" y="-293" font-family="Helvetica,sans-Serif" font-size="10.00">&#45;data&#45;priv.h</text>
</a>
</g>
</g>
<!-- Node1&#45;&gt;Node10 -->
<g id="edge10_Node000001_Node000010" class="edge">
<title>Node1&#45;&gt;Node10</title>
<g id="a_edge10_Node000001_Node000010"><a xlink:title=" ">
<path fill="none" stroke="#63b8ff" d="M173.59,-483.59C163.47,-450.53 138.48,-368.89 125.74,-327.27"/>
<polygon fill="#63b8ff" stroke="#63b8ff" points="129.14,-326.42 122.86,-317.88 122.44,-328.47 129.14,-326.42"/>
</a>
</g>
</g>
<!-- Node11 -->
<g id="Node000011" class="node">
<title>Node11</title>
<g id="a_Node000011"><a xlink:href="exif-data_8h.html" target="_top" xlink:title="Defines the ExifData type and the associated functions.">
<polygon fill="white" stroke="#666666" points="488,-310.5 386,-310.5 386,-291.5 488,-291.5 488,-310.5"/>
<text text-anchor="middle" x="437" y="-298.5" font-family="Helvetica,sans-Serif" font-size="10.00">libexif/exif&#45;data.h</text>
</a>
</g>
</g>
<!-- Node1&#45;&gt;Node11 -->
<g id="edge15_Node000001_Node000011" class="edge">
<title>Node1&#45;&gt;Node11</title>
<g id="a_edge15_Node000001_Node000011"><a xlink:title=" ">
<path fill="none" stroke="#63b8ff" d="M197.04,-483.59C244.37,-447.78 367.02,-354.96 416.17,-317.76"/>
<polygon fill="#63b8ff" stroke="#63b8ff" points="418.17,-320.64 424.03,-311.81 413.94,-315.06 418.17,-320.64"/>
</a>
</g>
</g>
<!-- Node17 -->
<g id="Node000017" class="node">
<title>Node17</title>
<g id="a_Node000017"><a xlink:href="mnote-canon-entry_8h.html" target="_top" xlink:title=" ">
<polygon fill="white" stroke="#666666" points="721,-448 607,-448 607,-418 721,-418 721,-448"/>
<text text-anchor="start" x="615" y="-436" font-family="Helvetica,sans-Serif" font-size="10.00">libexif/canon/mnote</text>
<text text-anchor="middle" x="664" y="-425" font-family="Helvetica,sans-Serif" font-size="10.00">&#45;canon&#45;entry.h</text>
</a>
</g>
</g>
<!-- Node1&#45;&gt;Node17 -->
<g id="edge34_Node000001_Node000017" class="edge">
<title>Node1&#45;&gt;Node17</title>
<g id="a_edge34_Node000001_Node000017"><a xlink:title=" ">
<path fill="none" stroke="#63b8ff" d="M237.59,-490.15C328.08,-478.24 499.68,-455.64 595.29,-443.05"/>
<polygon fill="#63b8ff" stroke="#63b8ff" points="595.61,-446.54 605.07,-441.76 594.69,-439.6 595.61,-446.54"/>
</a>
</g>
</g>
<!-- Node4 -->
<g id="Node000004" class="node">
<title>Node4</title>
<g id="a_Node000004"><a xlink:href="exif-log_8h.html" target="_top" xlink:title="Log message infrastructure.">
<polygon fill="white" stroke="#666666" points="259.5,-184 164.5,-184 164.5,-165 259.5,-165 259.5,-184"/>
<text text-anchor="middle" x="212" y="-172" font-family="Helvetica,sans-Serif" font-size="10.00">libexif/exif&#45;log.h</text>
</a>
</g>
</g>
<!-- Node3&#45;&gt;Node4 -->
<g id="edge3_Node000003_Node000004" class="edge">
<title>Node3&#45;&gt;Node4</title>
<g id="a_edge3_Node000003_Node000004"><a xlink:title=" ">
<path fill="none" stroke="#63b8ff" d="M198.45,-219.54C200.72,-212.17 203.51,-203.1 205.97,-195.11"/>
<polygon fill="#63b8ff" stroke="#63b8ff" points="209.29,-196.21 208.89,-185.62 202.6,-194.15 209.29,-196.21"/>
</a>
</g>
</g>
<!-- Node4&#45;&gt;Node5 -->
<g id="edge4_Node000004_Node000005" class="edge">
<title>Node4&#45;&gt;Node5</title>
<g id="a_edge4_Node000004_Node000005"><a xlink:title=" ">
<path fill="none" stroke="#63b8ff" d="M237.62,-164.51C262.09,-155.92 299.24,-142.88 326.75,-133.22"/>
<polygon fill="#63b8ff" stroke="#63b8ff" points="327.81,-136.56 336.08,-129.95 325.49,-129.96 327.81,-136.56"/>
</a>
</g>
</g>
<!-- Node9 -->
<g id="Node000009" class="node">
<title>Node9</title>
<g id="a_Node000009"><a xlink:title=" ">
<polygon fill="#e0e0e0" stroke="#999999" points="240,-129 184,-129 184,-110 240,-110 240,-129"/>
<text text-anchor="middle" x="212" y="-117" font-family="Helvetica,sans-Serif" font-size="10.00">stdarg.h</text>
</a>
</g>
</g>
<!-- Node4&#45;&gt;Node9 -->
<g id="edge9_Node000004_Node000009" class="edge">
<title>Node4&#45;&gt;Node9</title>
<g id="a_edge9_Node000004_Node000009"><a xlink:title=" ">
<path fill="none" stroke="#63b8ff" d="M212,-164.75C212,-158.27 212,-149.16 212,-140.9"/>
<polygon fill="#63b8ff" stroke="#63b8ff" points="215.5,-140.96 212,-130.96 208.5,-140.96 215.5,-140.96"/>
</a>
</g>
</g>
<!-- Node6 -->
<g id="Node000006" class="node">
<title>Node6</title>
<g id="a_Node000006"><a xlink:href="exif-utils_8h.html" target="_top" xlink:title="EXIF data manipulation functions and types.">
<polygon fill="white" stroke="#666666" points="449.5,-74 348.5,-74 348.5,-55 449.5,-55 449.5,-74"/>
<text text-anchor="middle" x="399" y="-62" font-family="Helvetica,sans-Serif" font-size="10.00">libexif/exif&#45;utils.h</text>
</a>
</g>
</g>
<!-- Node5&#45;&gt;Node6 -->
<g id="edge5_Node000005_Node000006" class="edge">
<title>Node5&#45;&gt;Node6</title>
<g id="a_edge5_Node000005_Node000006"><a xlink:title=" ">
<path fill="none" stroke="#63b8ff" d="M368.94,-109.75C373.71,-102.73 380.56,-92.64 386.52,-83.87"/>
<polygon fill="#63b8ff" stroke="#63b8ff" points="389.35,-85.93 392.08,-75.69 383.56,-82 389.35,-85.93"/>
</a>
</g>
</g>
<!-- Node6&#45;&gt;Node2 -->
<g id="edge6_Node000006_Node000002" class="edge">
<title>Node6&#45;&gt;Node2</title>
<g id="a_edge6_Node000006_Node000002"><a xlink:title=" ">
<path fill="none" stroke="#63b8ff" d="M376.95,-54.51C356.19,-46.04 324.84,-33.27 301.27,-23.66"/>
<polygon fill="#63b8ff" stroke="#63b8ff" points="302.71,-20.46 292.13,-19.93 300.07,-26.95 302.71,-20.46"/>
</a>
</g>
</g>
<!-- Node7 -->
<g id="Node000007" class="node">
<title>Node7</title>
<g id="a_Node000007"><a xlink:href="exif-format_8h.html" target="_top" xlink:title="Handling native EXIF data types.">
<polygon fill="white" stroke="#666666" points="576.5,-19 463.5,-19 463.5,0 576.5,0 576.5,-19"/>
<text text-anchor="middle" x="520" y="-7" font-family="Helvetica,sans-Serif" font-size="10.00">libexif/exif&#45;format.h</text>
</a>
</g>
</g>
<!-- Node6&#45;&gt;Node7 -->
<g id="edge7_Node000006_Node000007" class="edge">
<title>Node6&#45;&gt;Node7</title>
<g id="a_edge7_Node000006_Node000007"><a xlink:title=" ">
<path fill="none" stroke="#63b8ff" d="M419.53,-54.51C438.68,-46.12 467.5,-33.5 489.37,-23.92"/>
<polygon fill="#63b8ff" stroke="#63b8ff" points="490.64,-27.18 498.39,-19.97 487.83,-20.77 490.64,-27.18"/>
</a>
</g>
</g>
<!-- Node8 -->
<g id="Node000008" class="node">
<title>Node8</title>
<g id="a_Node000008"><a xlink:title=" ">
<polygon fill="#e0e0e0" stroke="#999999" points="445,-19 353,-19 353,0 445,0 445,-19"/>
<text text-anchor="middle" x="399" y="-7" font-family="Helvetica,sans-Serif" font-size="10.00">libexif/_stdint.h</text>
</a>
</g>
</g>
<!-- Node6&#45;&gt;Node8 -->
<g id="edge8_Node000006_Node000008" class="edge">
<title>Node6&#45;&gt;Node8</title>
<g id="a_edge8_Node000006_Node000008"><a xlink:title=" ">
<path fill="none" stroke="#63b8ff" d="M399,-54.75C399,-48.27 399,-39.16 399,-30.9"/>
<polygon fill="#63b8ff" stroke="#63b8ff" points="402.5,-30.96 399,-20.96 395.5,-30.96 402.5,-30.96"/>
</a>
</g>
</g>
<!-- Node10&#45;&gt;Node2 -->
<g id="edge12_Node000010_Node000002" class="edge">
<title>Node10&#45;&gt;Node2</title>
<g id="a_edge12_Node000010_Node000002"><a xlink:title=" ">
<path fill="none" stroke="#63b8ff" d="M109.7,-285.59C97.46,-262.93 76,-217.24 76,-175.5 76,-175.5 76,-175.5 76,-118.5 76,-62.19 139.33,-34.96 193.44,-21.96"/>
<polygon fill="#63b8ff" stroke="#63b8ff" points="194,-25.42 202.99,-19.81 192.46,-18.59 194,-25.42"/>
</a>
</g>
</g>
<!-- Node10&#45;&gt;Node3 -->
<g id="edge11_Node000010_Node000003" class="edge">
<title>Node10&#45;&gt;Node3</title>
<g id="a_edge11_Node000010_Node000003"><a xlink:title=" ">
<path fill="none" stroke="#63b8ff" d="M134.87,-285.8C144.64,-277.57 157.14,-267.04 168.13,-257.78"/>
<polygon fill="#63b8ff" stroke="#63b8ff" points="170.37,-260.48 175.76,-251.36 165.86,-255.12 170.37,-260.48"/>
</a>
</g>
</g>
<!-- Node10&#45;&gt;Node4 -->
<g id="edge13_Node000010_Node000004" class="edge">
<title>Node10&#45;&gt;Node4</title>
<g id="a_edge13_Node000010_Node000004"><a xlink:title=" ">
<path fill="none" stroke="#63b8ff" d="M117.21,-285.59C116.99,-268.4 119.01,-239.53 133,-220 142.96,-206.1 158.69,-195.98 173.5,-188.94"/>
<polygon fill="#63b8ff" stroke="#63b8ff" points="174.88,-192.16 182.64,-184.95 172.08,-185.74 174.88,-192.16"/>
</a>
</g>
</g>
<!-- Node11&#45;&gt;Node2 -->
<g id="edge16_Node000011_Node000002" class="edge">
<title>Node11&#45;&gt;Node2</title>
<g id="a_edge16_Node000011_Node000002"><a xlink:title=" ">
<path fill="none" stroke="#63b8ff" d="M414.96,-291.04C396.83,-282.72 371.52,-268.78 355,-250 296.7,-183.72 277.02,-75.01 271.18,-30.47"/>
<polygon fill="#63b8ff" stroke="#63b8ff" points="274.66,-30.06 270,-20.55 267.71,-30.9 274.66,-30.06"/>
</a>
</g>
</g>
<!-- Node11&#45;&gt;Node3 -->
<g id="edge32_Node000011_Node000003" class="edge">
<title>Node11&#45;&gt;Node3</title>
<g id="a_edge32_Node000011_Node000003"><a xlink:title=" ">
<path fill="none" stroke="#63b8ff" d="M402.96,-291.03C365.11,-281.07 303.17,-264.75 256.53,-252.47"/>
<polygon fill="#63b8ff" stroke="#63b8ff" points="257.66,-249.15 247.1,-249.98 255.87,-255.92 257.66,-249.15"/>
</a>
</g>
</g>
<!-- Node11&#45;&gt;Node4 -->
<g id="edge19_Node000011_Node000004" class="edge">
<title>Node11&#45;&gt;Node4</title>
<g id="a_edge19_Node000011_Node000004"><a xlink:title=" ">
<path fill="none" stroke="#63b8ff" d="M401.15,-291.05C372.1,-282.89 330.76,-269.17 298,-250 270.67,-234 243.84,-208.83 227.61,-192.24"/>
<polygon fill="#63b8ff" stroke="#63b8ff" points="230.23,-189.92 220.79,-185.11 225.18,-194.76 230.23,-189.92"/>
</a>
</g>
</g>
<!-- Node11&#45;&gt;Node5 -->
<g id="edge33_Node000011_Node000005" class="edge">
<title>Node11&#45;&gt;Node5</title>
<g id="a_edge33_Node000011_Node000005"><a xlink:title=" ">
<path fill="none" stroke="#63b8ff" d="M416.37,-291.02C400.36,-282.84 379.24,-269.12 369,-250 350.38,-215.21 354.45,-167.34 358.86,-140.62"/>
<polygon fill="#63b8ff" stroke="#63b8ff" points="362.29,-141.31 360.68,-130.84 355.41,-140.03 362.29,-141.31"/>
</a>
</g>
</g>
<!-- Node12 -->
<g id="Node000012" class="node">
<title>Node12</title>
<g id="a_Node000012"><a xlink:href="exif-data-type_8h.html" target="_top" xlink:title=" ">
<polygon fill="white" stroke="#666666" points="712,-129 584,-129 584,-110 712,-110 712,-129"/>
<text text-anchor="middle" x="648" y="-117" font-family="Helvetica,sans-Serif" font-size="10.00">libexif/exif&#45;data&#45;type.h</text>
</a>
</g>
</g>
<!-- Node11&#45;&gt;Node12 -->
<g id="edge17_Node000011_Node000012" class="edge">
<title>Node11&#45;&gt;Node12</title>
<g id="a_edge17_Node000011_Node000012"><a xlink:title=" ">
<path fill="none" stroke="#63b8ff" d="M486.46,-291.01C540.72,-278.09 624.41,-248.32 657,-184 663.94,-170.31 660.8,-152.96 656.42,-139.85"/>
<polygon fill="#63b8ff" stroke="#63b8ff" points="659.73,-138.71 652.85,-130.65 653.2,-141.24 659.73,-138.71"/>
</a>
</g>
</g>
<!-- Node13 -->
<g id="Node000013" class="node">
<title>Node13</title>
<g id="a_Node000013"><a xlink:href="exif-ifd_8h.html" target="_top" xlink:title=" ">
<polygon fill="white" stroke="#666666" points="565.5,-129 472.5,-129 472.5,-110 565.5,-110 565.5,-129"/>
<text text-anchor="middle" x="519" y="-117" font-family="Helvetica,sans-Serif" font-size="10.00">libexif/exif&#45;ifd.h</text>
</a>
</g>
</g>
<!-- Node11&#45;&gt;Node13 -->
<g id="edge18_Node000011_Node000013" class="edge">
<title>Node11&#45;&gt;Node13</title>
<g id="a_edge18_Node000011_Node000013"><a xlink:title=" ">
<path fill="none" stroke="#63b8ff" d="M456.36,-291.09C472,-282.79 493.14,-268.87 504,-250 523.8,-215.62 523.52,-167.59 521.37,-140.74"/>
<polygon fill="#63b8ff" stroke="#63b8ff" points="524.87,-140.52 520.4,-130.91 517.9,-141.21 524.87,-140.52"/>
</a>
</g>
</g>
<!-- Node14 -->
<g id="Node000014" class="node">
<title>Node14</title>
<g id="a_Node000014"><a xlink:href="exif-tag_8h.html" target="_top" xlink:title="Handling EXIF tags.">
<polygon fill="white" stroke="#666666" points="648,-184 552,-184 552,-165 648,-165 648,-184"/>
<text text-anchor="middle" x="600" y="-172" font-family="Helvetica,sans-Serif" font-size="10.00">libexif/exif&#45;tag.h</text>
</a>
</g>
</g>
<!-- Node11&#45;&gt;Node14 -->
<g id="edge20_Node000011_Node000014" class="edge">
<title>Node11&#45;&gt;Node14</title>
<g id="a_edge20_Node000011_Node000014"><a xlink:title=" ">
<path fill="none" stroke="#63b8ff" d="M461.91,-291.07C483.43,-282.6 514.66,-268.43 538,-250 558.37,-233.92 576.7,-210.18 588.05,-193.84"/>
<polygon fill="#63b8ff" stroke="#63b8ff" points="590.93,-195.83 593.61,-185.58 585.12,-191.92 590.93,-195.83"/>
</a>
</g>
</g>
<!-- Node15 -->
<g id="Node000015" class="node">
<title>Node15</title>
<g id="a_Node000015"><a xlink:href="exif-content_8h.html" target="_top" xlink:title="Handling EXIF IFDs.">
<polygon fill="white" stroke="#666666" points="495.5,-244.5 378.5,-244.5 378.5,-225.5 495.5,-225.5 495.5,-244.5"/>
<text text-anchor="middle" x="437" y="-232.5" font-family="Helvetica,sans-Serif" font-size="10.00">libexif/exif&#45;content.h</text>
</a>
</g>
</g>
<!-- Node11&#45;&gt;Node15 -->
<g id="edge23_Node000011_Node000015" class="edge">
<title>Node11&#45;&gt;Node15</title>
<g id="a_edge23_Node000011_Node000015"><a xlink:title=" ">
<path fill="none" stroke="#63b8ff" d="M432.16,-291.1C430.29,-282.12 429.79,-267.95 430.67,-256.22"/>
<polygon fill="#63b8ff" stroke="#63b8ff" points="434.14,-256.69 431.97,-246.32 427.2,-255.78 434.14,-256.69"/>
</a>
</g>
</g>
<!-- Node14&#45;&gt;Node12 -->
<g id="edge22_Node000014_Node000012" class="edge">
<title>Node14&#45;&gt;Node12</title>
<g id="a_edge22_Node000014_Node000012"><a xlink:title=" ">
<path fill="none" stroke="#63b8ff" d="M607.93,-164.75C614.56,-157.43 624.22,-146.76 632.39,-137.74"/>
<polygon fill="#63b8ff" stroke="#63b8ff" points="634.77,-140.33 638.89,-130.56 629.58,-135.63 634.77,-140.33"/>
</a>
</g>
</g>
<!-- Node14&#45;&gt;Node13 -->
<g id="edge21_Node000014_Node000013" class="edge">
<title>Node14&#45;&gt;Node13</title>
<g id="a_edge21_Node000014_Node000013"><a xlink:title=" ">
<path fill="none" stroke="#63b8ff" d="M586.26,-164.51C574.2,-156.62 556.41,-144.98 542.16,-135.65"/>
<polygon fill="#63b8ff" stroke="#63b8ff" points="544.09,-132.73 533.8,-130.19 540.26,-138.59 544.09,-132.73"/>
</a>
</g>
</g>
<!-- Node15&#45;&gt;Node4 -->
<g id="edge30_Node000015_Node000004" class="edge">
<title>Node15&#45;&gt;Node4</title>
<g id="a_edge30_Node000015_Node000004"><a xlink:title=" ">
<path fill="none" stroke="#63b8ff" d="M402.83,-225.12C364.01,-215.02 300.48,-198.51 257.49,-187.33"/>
<polygon fill="#63b8ff" stroke="#63b8ff" points="258.52,-183.98 247.96,-184.85 256.76,-190.75 258.52,-183.98"/>
</a>
</g>
</g>
<!-- Node15&#45;&gt;Node5 -->
<g id="edge31_Node000015_Node000005" class="edge">
<title>Node15&#45;&gt;Node5</title>
<g id="a_edge31_Node000015_Node000005"><a xlink:title=" ">
<path fill="none" stroke="#63b8ff" d="M424.07,-225.13C411.84,-216.1 393.8,-201.06 383,-184 374.57,-170.68 369.44,-153.53 366.49,-140.41"/>
<polygon fill="#63b8ff" stroke="#63b8ff" points="369.97,-139.93 364.59,-130.8 363.1,-141.29 369.97,-139.93"/>
</a>
</g>
</g>
<!-- Node15&#45;&gt;Node11 -->
<g id="edge29_Node000015_Node000011" class="edge">
<title>Node15&#45;&gt;Node11</title>
<g id="a_edge29_Node000015_Node000011"><a xlink:title=" ">
<path fill="none" stroke="#63b8ff" d="M441.83,-244.82C443.73,-253.87 444.22,-268.24 443.31,-280.05"/>
<polygon fill="#63b8ff" stroke="#63b8ff" points="439.88,-279.23 442.04,-289.6 446.82,-280.15 439.88,-279.23"/>
</a>
</g>
</g>
<!-- Node15&#45;&gt;Node14 -->
<g id="edge24_Node000015_Node000014" class="edge">
<title>Node15&#45;&gt;Node14</title>
<g id="a_edge24_Node000015_Node000014"><a xlink:title=" ">
<path fill="none" stroke="#63b8ff" d="M461.76,-225.12C489.04,-215.32 533.17,-199.48 564.22,-188.34"/>
<polygon fill="#63b8ff" stroke="#63b8ff" points="565.36,-191.65 573.59,-184.98 562.99,-185.06 565.36,-191.65"/>
</a>
</g>
</g>
<!-- Node16 -->
<g id="Node000016" class="node">
<title>Node16</title>
<g id="a_Node000016"><a xlink:href="exif-entry_8h.html" target="_top" xlink:title="Handling EXIF entries.">
<polygon fill="white" stroke="#666666" points="496,-184 392,-184 392,-165 496,-165 496,-184"/>
<text text-anchor="middle" x="444" y="-172" font-family="Helvetica,sans-Serif" font-size="10.00">libexif/exif&#45;entry.h</text>
</a>
</g>
</g>
<!-- Node15&#45;&gt;Node16 -->
<g id="edge25_Node000015_Node000016" class="edge">
<title>Node15&#45;&gt;Node16</title>
<g id="a_edge25_Node000015_Node000016"><a xlink:title=" ">
<path fill="none" stroke="#63b8ff" d="M433.08,-225.37C432.31,-217.42 433.27,-205.33 435.25,-195.05"/>
<polygon fill="#63b8ff" stroke="#63b8ff" points="438.57,-196.19 437.63,-185.63 431.79,-194.47 438.57,-196.19"/>
</a>
</g>
</g>
<!-- Node16&#45;&gt;Node5 -->
<g id="edge28_Node000016_Node000005" class="edge">
<title>Node16&#45;&gt;Node5</title>
<g id="a_edge28_Node000016_Node000005"><a xlink:title=" ">
<path fill="none" stroke="#63b8ff" d="M430.26,-164.51C418.2,-156.62 400.41,-144.98 386.16,-135.65"/>
<polygon fill="#63b8ff" stroke="#63b8ff" points="388.09,-132.73 377.8,-130.19 384.26,-138.59 388.09,-132.73"/>
</a>
</g>
</g>
<!-- Node16&#45;&gt;Node7 -->
<g id="edge27_Node000016_Node000007" class="edge">
<title>Node16&#45;&gt;Node7</title>
<g id="a_edge27_Node000016_Node000007"><a xlink:title=" ">
<path fill="none" stroke="#63b8ff" d="M445.97,-164.65C448.89,-152.17 454.92,-128.82 463,-110 475.72,-80.36 495.17,-48.39 507.73,-28.91"/>
<polygon fill="#63b8ff" stroke="#63b8ff" points="510.54,-31.01 513.09,-20.73 504.68,-27.17 510.54,-31.01"/>
</a>
</g>
</g>
<!-- Node16&#45;&gt;Node15 -->
<g id="edge26_Node000016_Node000015" class="edge">
<title>Node16&#45;&gt;Node15</title>
<g id="a_edge26_Node000016_Node000015"><a xlink:title=" ">
<path fill="none" stroke="#63b8ff" d="M447.93,-184.17C448.69,-192.13 447.72,-204.22 445.74,-214.49"/>
<polygon fill="#63b8ff" stroke="#63b8ff" points="442.42,-213.35 443.36,-223.9 449.21,-215.06 442.42,-213.35"/>
</a>
</g>
</g>
<!-- Node17&#45;&gt;Node2 -->
<g id="edge36_Node000017_Node000002" class="edge">
<title>Node17&#45;&gt;Node2</title>
<g id="a_edge36_Node000017_Node000002"><a xlink:title=" ">
<path fill="none" stroke="#63b8ff" d="M679.38,-417.62C701.59,-395.21 740,-349.58 740,-302 740,-302 740,-302 740,-173.5 740,10.13 507.01,-148.1 339,-74 316.09,-63.9 295.63,-43.28 282.83,-28.27"/>
<polygon fill="#63b8ff" stroke="#63b8ff" points="285.57,-26.09 276.53,-20.56 280.14,-30.52 285.57,-26.09"/>
</a>
</g>
</g>
<!-- Node17&#45;&gt;Node7 -->
<g id="edge35_Node000017_Node000007" class="edge">
<title>Node17&#45;&gt;Node7</title>
<g id="a_edge35_Node000017_Node000007"><a xlink:title=" ">
<path fill="none" stroke="#63b8ff" d="M704.56,-417.57C721.98,-409.53 741.23,-397.88 754,-382 777.27,-353.08 778,-339.12 778,-302 778,-302 778,-302 778,-118.5 778,-36.17 664.83,-15.52 588.4,-10.96"/>
<polygon fill="#63b8ff" stroke="#63b8ff" points="588.61,-7.47 578.45,-10.46 588.26,-14.46 588.61,-7.47"/>
</a>
</g>
</g>
<!-- Node18 -->
<g id="Node000018" class="node">
<title>Node18</title>
<g id="a_Node000018"><a xlink:href="mnote-canon-tag_8h.html" target="_top" xlink:title=" ">
<polygon fill="white" stroke="#666666" points="646,-382 532,-382 532,-352 646,-352 646,-382"/>
<text text-anchor="start" x="540" y="-370" font-family="Helvetica,sans-Serif" font-size="10.00">libexif/canon/mnote</text>
<text text-anchor="middle" x="589" y="-359" font-family="Helvetica,sans-Serif" font-size="10.00">&#45;canon&#45;tag.h</text>
</a>
</g>
</g>
<!-- Node17&#45;&gt;Node18 -->
<g id="edge37_Node000017_Node000018" class="edge">
<title>Node17&#45;&gt;Node18</title>
<g id="a_edge37_Node000017_Node000018"><a xlink:title=" ">
<path fill="none" stroke="#63b8ff" d="M647.36,-417.8C637.71,-409.57 625.37,-399.04 614.53,-389.78"/>
<polygon fill="#63b8ff" stroke="#63b8ff" points="616.89,-387.2 607.01,-383.37 612.34,-392.52 616.89,-387.2"/>
</a>
</g>
</g>
<!-- Node18&#45;&gt;Node11 -->
<g id="edge38_Node000018_Node000011" class="edge">
<title>Node18&#45;&gt;Node11</title>
<g id="a_edge38_Node000018_Node000011"><a xlink:title=" ">
<path fill="none" stroke="#63b8ff" d="M554.89,-351.64C529.12,-340.79 494,-326 468.81,-315.39"/>
<polygon fill="#63b8ff" stroke="#63b8ff" points="470.31,-312.23 459.74,-311.57 467.59,-318.68 470.31,-312.23"/>
</a>
</g>
</g>
</g>
</svg>
