<?xml version="1.0" encoding="UTF-8" standalone="no"?>
<!DOCTYPE svg PUBLIC "-//W3C//DTD SVG 1.1//EN"
 "http://www.w3.org/Graphics/SVG/1.1/DTD/svg11.dtd">
<!-- Generated by graphviz version 2.44.1 (0)
 -->
<!-- Title: exif_entry_dump Pages: 1 -->
<svg width="866pt" height="534pt"
 viewBox="0.00 0.00 866.00 534.00" xmlns="http://www.w3.org/2000/svg" xmlns:xlink="http://www.w3.org/1999/xlink">
<g id="graph0" class="graph" transform="scale(1 1) rotate(0) translate(4 530)">
<title>exif_entry_dump</title>
<polygon fill="white" stroke="transparent" points="-4,4 -4,-530 862,-530 862,4 -4,4"/>
<!-- Node1 -->
<g id="node1" class="node">
<title>Node1</title>
<g id="a_node1"><a xlink:title="Dump text representation of ExifEntry to stdout.">
<polygon fill="#bfbfbf" stroke="black" points="0,-190.5 0,-209.5 99,-209.5 99,-190.5 0,-190.5"/>
<text text-anchor="middle" x="49.5" y="-197.5" font-family="Helvetica,sans-Serif" font-size="10.00">exif_entry_dump</text>
</a>
</g>
</g>
<!-- Node2 -->
<g id="node2" class="node">
<title>Node2</title>
<g id="a_node2"><a xlink:href="exif-entry_8c.html#afda0f9d242fd7db960778502414c9885" target="_top" xlink:title="Return a localized textual representation of the value of the EXIF entry.">
<polygon fill="white" stroke="black" points="147,-266.5 147,-285.5 266,-285.5 266,-266.5 147,-266.5"/>
<text text-anchor="middle" x="206.5" y="-273.5" font-family="Helvetica,sans-Serif" font-size="10.00">exif_entry_get_value</text>
</a>
</g>
</g>
<!-- Node1&#45;&gt;Node2 -->
<g id="edge1" class="edge">
<title>Node1&#45;&gt;Node2</title>
<path fill="none" stroke="midnightblue" d="M70.13,-209.63C97.15,-222.87 145.97,-246.81 177.01,-262.03"/>
<polygon fill="midnightblue" stroke="midnightblue" points="175.51,-265.19 186.03,-266.45 178.59,-258.91 175.51,-265.19"/>
</g>
<!-- Node20 -->
<g id="node20" class="node">
<title>Node20</title>
<g id="a_node20"><a xlink:href="exif-format_8c.html#a59375a5939c716b826311c22571680f3" target="_top" xlink:title="Return a textual representation of the given EXIF data type.">
<polygon fill="white" stroke="black" points="142.5,-190.5 142.5,-209.5 270.5,-209.5 270.5,-190.5 142.5,-190.5"/>
<text text-anchor="middle" x="206.5" y="-197.5" font-family="Helvetica,sans-Serif" font-size="10.00">exif_format_get_name</text>
</a>
</g>
</g>
<!-- Node1&#45;&gt;Node20 -->
<g id="edge29" class="edge">
<title>Node1&#45;&gt;Node20</title>
<path fill="none" stroke="midnightblue" d="M99.12,-200C109.59,-200 120.87,-200 132.05,-200"/>
<polygon fill="midnightblue" stroke="midnightblue" points="132.25,-203.5 142.25,-200 132.25,-196.5 132.25,-203.5"/>
</g>
<!-- Node21 -->
<g id="node21" class="node">
<title>Node21</title>
<g id="a_node21"><a xlink:href="exif-tag_8c.html#a82b5a88d44d27d432afb5a1db74268b0" target="_top" xlink:title="Return a textual name of the given tag when found in the given IFD.">
<polygon fill="white" stroke="black" points="135,-76.5 135,-95.5 278,-95.5 278,-76.5 135,-76.5"/>
<text text-anchor="middle" x="206.5" y="-83.5" font-family="Helvetica,sans-Serif" font-size="10.00">exif_tag_get_name_in_ifd</text>
</a>
</g>
</g>
<!-- Node1&#45;&gt;Node21 -->
<g id="edge30" class="edge">
<title>Node1&#45;&gt;Node21</title>
<path fill="none" stroke="midnightblue" d="M63.45,-190.48C90.05,-170.91 151.1,-126.01 183.83,-101.94"/>
<polygon fill="midnightblue" stroke="midnightblue" points="186.28,-104.48 192.26,-95.74 182.13,-98.84 186.28,-104.48"/>
</g>
<!-- Node3 -->
<g id="node3" class="node">
<title>Node3</title>
<g id="a_node3"><a xlink:href="exif-content_8c.html#ac72bb2dacf0da27156c2c4dce08eef5d" target="_top" xlink:title="Return the ExifEntry in this IFD corresponding to the given tag.">
<polygon fill="white" stroke="black" points="318,-430.5 318,-449.5 447,-449.5 447,-430.5 318,-430.5"/>
<text text-anchor="middle" x="382.5" y="-437.5" font-family="Helvetica,sans-Serif" font-size="10.00">exif_content_get_entry</text>
</a>
</g>
</g>
<!-- Node2&#45;&gt;Node3 -->
<g id="edge2" class="edge">
<title>Node2&#45;&gt;Node3</title>
<path fill="none" stroke="midnightblue" d="M212.29,-285.69C225.2,-310.85 263.21,-378.88 314,-416 319.67,-420.14 326.12,-423.62 332.73,-426.53"/>
<polygon fill="midnightblue" stroke="midnightblue" points="331.87,-429.96 342.46,-430.4 334.46,-423.46 331.87,-429.96"/>
</g>
<!-- Node4 -->
<g id="node4" class="node">
<title>Node4</title>
<g id="a_node4"><a xlink:href="exif-utils_8c.html#af43ad07a0e309c42ead4897c29319f4c" target="_top" xlink:title="This function converts rather UCS&#45;2LE than UTF&#45;16 to UTF&#45;8.">
<polygon fill="white" stroke="black" points="328.5,-343 328.5,-373 436.5,-373 436.5,-343 328.5,-343"/>
<text text-anchor="start" x="336.5" y="-361" font-family="Helvetica,sans-Serif" font-size="10.00">exif_convert_utf16</text>
<text text-anchor="middle" x="382.5" y="-350" font-family="Helvetica,sans-Serif" font-size="10.00">_to_utf8</text>
</a>
</g>
</g>
<!-- Node2&#45;&gt;Node4 -->
<g id="edge3" class="edge">
<title>Node2&#45;&gt;Node4</title>
<path fill="none" stroke="midnightblue" d="M226.64,-285.6C247.88,-296.2 283.23,-313.66 314,-328 321.69,-331.58 329.9,-335.32 337.87,-338.88"/>
<polygon fill="midnightblue" stroke="midnightblue" points="336.49,-342.1 347.05,-342.98 339.34,-335.71 336.49,-342.1"/>
</g>
<!-- Node5 -->
<g id="node5" class="node">
<title>Node5</title>
<g id="a_node5"><a xlink:href="exif-utils_8c.html#a4b4acf537a8c6b9405e7b53be868e4d7" target="_top" xlink:title="Retrieve an ExifShort value from memory.">
<polygon fill="white" stroke="black" points="503.5,-430.5 503.5,-449.5 589.5,-449.5 589.5,-430.5 503.5,-430.5"/>
<text text-anchor="middle" x="546.5" y="-437.5" font-family="Helvetica,sans-Serif" font-size="10.00">exif_get_short</text>
</a>
</g>
</g>
<!-- Node2&#45;&gt;Node5 -->
<g id="edge24" class="edge">
<title>Node2&#45;&gt;Node5</title>
<path fill="none" stroke="midnightblue" d="M214.24,-285.73C229.43,-306.91 268.6,-357.33 314,-383 329.6,-391.82 430.1,-414.81 493.44,-428.74"/>
<polygon fill="midnightblue" stroke="midnightblue" points="492.76,-432.18 503.27,-430.9 494.26,-425.34 492.76,-432.18"/>
</g>
<!-- Node7 -->
<g id="node7" class="node">
<title>Node7</title>
<g id="a_node7"><a xlink:href="exif-data_8c.html#a2d8d50e6a9c19d28fe8192ef7cc52777" target="_top" xlink:title="Return the byte order in use by this EXIF structure.">
<polygon fill="white" stroke="black" points="491.5,-381 491.5,-411 601.5,-411 601.5,-381 491.5,-381"/>
<text text-anchor="start" x="499.5" y="-399" font-family="Helvetica,sans-Serif" font-size="10.00">exif_data_get_byte</text>
<text text-anchor="middle" x="546.5" y="-388" font-family="Helvetica,sans-Serif" font-size="10.00">_order</text>
</a>
</g>
</g>
<!-- Node2&#45;&gt;Node7 -->
<g id="edge6" class="edge">
<title>Node2&#45;&gt;Node7</title>
<path fill="none" stroke="midnightblue" d="M260.66,-285.51C321.89,-297.02 418.29,-316.96 451,-334 469.99,-343.89 469.33,-353.91 487,-366 492.19,-369.55 497.86,-372.97 503.56,-376.14"/>
<polygon fill="midnightblue" stroke="midnightblue" points="502.01,-379.28 512.48,-380.9 505.31,-373.1 502.01,-379.28"/>
</g>
<!-- Node8 -->
<g id="node8" class="node">
<title>Node8</title>
<g id="a_node8"><a xlink:href="exif-entry_8c.html#ae02e9d58318a3cd50eb6730b5e657e5a" target="_top" xlink:title="Format the value of an ExifEntry for human display in a generic way.">
<polygon fill="white" stroke="black" points="314,-266.5 314,-285.5 451,-285.5 451,-266.5 314,-266.5"/>
<text text-anchor="middle" x="382.5" y="-273.5" font-family="Helvetica,sans-Serif" font-size="10.00">exif_entry_format_value</text>
</a>
</g>
</g>
<!-- Node2&#45;&gt;Node8 -->
<g id="edge7" class="edge">
<title>Node2&#45;&gt;Node8</title>
<path fill="none" stroke="midnightblue" d="M266.41,-276C278.47,-276 291.33,-276 303.93,-276"/>
<polygon fill="midnightblue" stroke="midnightblue" points="303.95,-279.5 313.95,-276 303.95,-272.5 303.95,-279.5"/>
</g>
<!-- Node9 -->
<g id="node9" class="node">
<title>Node9</title>
<g id="a_node9"><a xlink:href="exif-format_8c.html#a924038efe0cd8ebade8f44619dd794f3" target="_top" xlink:title="Return the raw size of the given EXIF data type.">
<polygon fill="white" stroke="black" points="487,-228.5 487,-247.5 606,-247.5 606,-228.5 487,-228.5"/>
<text text-anchor="middle" x="546.5" y="-235.5" font-family="Helvetica,sans-Serif" font-size="10.00">exif_format_get_size</text>
</a>
</g>
</g>
<!-- Node2&#45;&gt;Node9 -->
<g id="edge22" class="edge">
<title>Node2&#45;&gt;Node9</title>
<path fill="none" stroke="midnightblue" d="M255.33,-266.47C273.63,-263.09 294.72,-259.5 314,-257 368.47,-249.92 430.5,-245 476.64,-241.94"/>
<polygon fill="midnightblue" stroke="midnightblue" points="477.07,-245.42 486.83,-241.28 476.62,-238.43 477.07,-245.42"/>
</g>
<!-- Node12 -->
<g id="node12" class="node">
<title>Node12</title>
<g id="a_node12"><a xlink:href="exif-utils_8c.html#a1feb547c289aa57a4d2119338b03706c" target="_top" xlink:title="Retrieve an ExifRational value from memory.">
<polygon fill="white" stroke="black" points="497,-190.5 497,-209.5 596,-209.5 596,-190.5 497,-190.5"/>
<text text-anchor="middle" x="546.5" y="-197.5" font-family="Helvetica,sans-Serif" font-size="10.00">exif_get_rational</text>
</a>
</g>
</g>
<!-- Node2&#45;&gt;Node12 -->
<g id="edge23" class="edge">
<title>Node2&#45;&gt;Node12</title>
<path fill="none" stroke="midnightblue" d="M232.14,-266.46C253.51,-258.47 285.43,-247.25 314,-240 372.01,-225.28 439.57,-214.29 486.68,-207.59"/>
<polygon fill="midnightblue" stroke="midnightblue" points="487.29,-211.04 496.71,-206.19 486.32,-204.11 487.29,-211.04"/>
</g>
<!-- Node13 -->
<g id="node13" class="node">
<title>Node13</title>
<g id="a_node13"><a xlink:href="exif-utils_8c.html#adb97c3499488d5642a82df1cb16dc2cb" target="_top" xlink:title="Retrieve an ExifSRational value from memory.">
<polygon fill="white" stroke="black" points="494.5,-152.5 494.5,-171.5 598.5,-171.5 598.5,-152.5 494.5,-152.5"/>
<text text-anchor="middle" x="546.5" y="-159.5" font-family="Helvetica,sans-Serif" font-size="10.00">exif_get_srational</text>
</a>
</g>
</g>
<!-- Node2&#45;&gt;Node13 -->
<g id="edge25" class="edge">
<title>Node2&#45;&gt;Node13</title>
<path fill="none" stroke="midnightblue" d="M219.15,-266.46C237.92,-251.6 276.55,-223.05 314,-208 369.26,-185.79 436.39,-173.97 484.1,-167.9"/>
<polygon fill="midnightblue" stroke="midnightblue" points="484.77,-171.35 494.28,-166.66 483.92,-164.4 484.77,-171.35"/>
</g>
<!-- Node14 -->
<g id="node14" class="node">
<title>Node14</title>
<g id="a_node14"><a xlink:href="exif-entry_8c.html#ac416e8326bd687f5da299d1b15a731bf" target="_top" xlink:title=" ">
<polygon fill="white" stroke="black" points="339.5,-114.5 339.5,-133.5 425.5,-133.5 425.5,-114.5 339.5,-114.5"/>
<text text-anchor="middle" x="382.5" y="-121.5" font-family="Helvetica,sans-Serif" font-size="10.00">exif_entry_log</text>
</a>
</g>
</g>
<!-- Node2&#45;&gt;Node14 -->
<g id="edge19" class="edge">
<title>Node2&#45;&gt;Node14</title>
<path fill="none" stroke="midnightblue" d="M222.84,-266.42C238.29,-256.17 262.06,-238.7 278,-219 300.25,-191.49 287.44,-171.37 314,-148 318.72,-143.85 324.2,-140.4 329.97,-137.54"/>
<polygon fill="midnightblue" stroke="midnightblue" points="331.43,-140.72 339.19,-133.51 328.63,-134.31 331.43,-140.72"/>
</g>
<!-- Node17 -->
<g id="node17" class="node">
<title>Node17</title>
<g id="a_node17"><a xlink:href="exif-mem_8c.html#ae8c09cfbcb95e435c4c4b7ec3bbd79e4" target="_top" xlink:title=" ">
<polygon fill="white" stroke="black" points="335,-76.5 335,-95.5 430,-95.5 430,-76.5 335,-76.5"/>
<text text-anchor="middle" x="382.5" y="-83.5" font-family="Helvetica,sans-Serif" font-size="10.00">exif_mem_alloc</text>
</a>
</g>
</g>
<!-- Node2&#45;&gt;Node17 -->
<g id="edge26" class="edge">
<title>Node2&#45;&gt;Node17</title>
<path fill="none" stroke="midnightblue" d="M224.43,-266.37C240.42,-256.44 263.99,-239.55 278,-219 307.93,-175.1 275.84,-141.97 314,-105 317.34,-101.77 321.18,-99.08 325.3,-96.84"/>
<polygon fill="midnightblue" stroke="midnightblue" points="326.99,-99.91 334.68,-92.62 324.13,-93.53 326.99,-99.91"/>
</g>
<!-- Node18 -->
<g id="node18" class="node">
<title>Node18</title>
<g id="a_node18"><a xlink:href="exif-mem_8c.html#a43190b81b4b4bdb4ffb89bfb612051b1" target="_top" xlink:title=" ">
<polygon fill="white" stroke="black" points="337,-506.5 337,-525.5 428,-525.5 428,-506.5 337,-506.5"/>
<text text-anchor="middle" x="382.5" y="-513.5" font-family="Helvetica,sans-Serif" font-size="10.00">exif_mem_free</text>
</a>
</g>
</g>
<!-- Node2&#45;&gt;Node18 -->
<g id="edge27" class="edge">
<title>Node2&#45;&gt;Node18</title>
<path fill="none" stroke="midnightblue" d="M209.23,-285.69C215.9,-320.11 243.2,-437.6 314,-497 317.98,-500.34 322.5,-503.09 327.29,-505.36"/>
<polygon fill="midnightblue" stroke="midnightblue" points="326.14,-508.67 336.72,-509.16 328.75,-502.18 326.14,-508.67"/>
</g>
<!-- Node19 -->
<g id="node19" class="node">
<title>Node19</title>
<g id="a_node19"><a xlink:href="exif-entry_8c.html#acfe97d1f369d95332b6e796c690093e4" target="_top" xlink:title="Check if a string consists entirely of a single, repeated character.">
<polygon fill="white" stroke="black" points="321.5,-468.5 321.5,-487.5 443.5,-487.5 443.5,-468.5 321.5,-468.5"/>
<text text-anchor="middle" x="382.5" y="-475.5" font-family="Helvetica,sans-Serif" font-size="10.00">match_repeated_char</text>
</a>
</g>
</g>
<!-- Node2&#45;&gt;Node19 -->
<g id="edge28" class="edge">
<title>Node2&#45;&gt;Node19</title>
<path fill="none" stroke="midnightblue" d="M210.27,-285.7C219.48,-316.21 252.1,-411.05 314,-459 316.35,-460.82 318.86,-462.46 321.48,-463.95"/>
<polygon fill="midnightblue" stroke="midnightblue" points="320.23,-467.23 330.76,-468.42 323.27,-460.92 320.23,-467.23"/>
</g>
<!-- Node4&#45;&gt;Node5 -->
<g id="edge4" class="edge">
<title>Node4&#45;&gt;Node5</title>
<path fill="none" stroke="midnightblue" d="M423.18,-373.07C432.61,-377.34 442.42,-382.38 451,-388 469.15,-399.9 468.25,-410.06 487,-421 490.63,-423.12 494.53,-425.03 498.53,-426.76"/>
<polygon fill="midnightblue" stroke="midnightblue" points="497.37,-430.06 507.96,-430.45 499.92,-423.55 497.37,-430.06"/>
</g>
<!-- Node6 -->
<g id="node6" class="node">
<title>Node6</title>
<g id="a_node6"><a xlink:href="exif-utils_8c.html#a6baf094a71392f9cea23ad633ec13c8b" target="_top" xlink:title="Retrieve an ExifSShort value from memory.">
<polygon fill="white" stroke="black" points="642,-386.5 642,-405.5 734,-405.5 734,-386.5 642,-386.5"/>
<text text-anchor="middle" x="688" y="-393.5" font-family="Helvetica,sans-Serif" font-size="10.00">exif_get_sshort</text>
</a>
</g>
</g>
<!-- Node5&#45;&gt;Node6 -->
<g id="edge5" class="edge">
<title>Node5&#45;&gt;Node6</title>
<path fill="none" stroke="midnightblue" d="M577.77,-430.45C598.06,-424.05 625,-415.56 647.05,-408.6"/>
<polygon fill="midnightblue" stroke="midnightblue" points="648.31,-411.87 656.79,-405.53 646.2,-405.2 648.31,-411.87"/>
</g>
<!-- Node8&#45;&gt;Node5 -->
<g id="edge14" class="edge">
<title>Node8&#45;&gt;Node5</title>
<path fill="none" stroke="midnightblue" d="M398.18,-285.52C413.19,-295.88 436.32,-313.73 451,-334 475.54,-367.9 456.27,-392.59 487,-421 489.28,-423.11 491.79,-424.98 494.46,-426.65"/>
<polygon fill="midnightblue" stroke="midnightblue" points="492.92,-429.79 503.41,-431.29 496.15,-423.58 492.92,-429.79"/>
</g>
<!-- Node8&#45;&gt;Node6 -->
<g id="edge18" class="edge">
<title>Node8&#45;&gt;Node6</title>
<path fill="none" stroke="midnightblue" d="M436.54,-285.56C441.57,-287.35 446.48,-289.48 451,-292 470.76,-303.03 467.79,-316.05 487,-328 500.89,-336.64 592.54,-366.26 646.84,-383.42"/>
<polygon fill="midnightblue" stroke="midnightblue" points="645.92,-386.81 656.51,-386.48 648.03,-380.13 645.92,-386.81"/>
</g>
<!-- Node8&#45;&gt;Node7 -->
<g id="edge8" class="edge">
<title>Node8&#45;&gt;Node7</title>
<path fill="none" stroke="midnightblue" d="M425.32,-285.54C434.47,-289.01 443.62,-293.7 451,-300 476.41,-321.69 463.07,-342.68 487,-366 490.64,-369.54 494.77,-372.76 499.13,-375.66"/>
<polygon fill="midnightblue" stroke="midnightblue" points="497.34,-378.67 507.7,-380.84 500.96,-372.67 497.34,-378.67"/>
</g>
<!-- Node8&#45;&gt;Node9 -->
<g id="edge9" class="edge">
<title>Node8&#45;&gt;Node9</title>
<path fill="none" stroke="midnightblue" d="M424.38,-266.41C445.85,-261.37 472.36,-255.16 495.1,-249.82"/>
<polygon fill="midnightblue" stroke="midnightblue" points="495.98,-253.21 504.91,-247.52 494.38,-246.4 495.98,-253.21"/>
</g>
<!-- Node10 -->
<g id="node10" class="node">
<title>Node10</title>
<g id="a_node10"><a xlink:href="exif-utils_8c.html#a4ad94614630897766dd0a5c9bc2a59bf" target="_top" xlink:title="Retrieve an ExifLong value from memory.">
<polygon fill="white" stroke="black" points="646.5,-247.5 646.5,-266.5 729.5,-266.5 729.5,-247.5 646.5,-247.5"/>
<text text-anchor="middle" x="688" y="-254.5" font-family="Helvetica,sans-Serif" font-size="10.00">exif_get_long</text>
</a>
</g>
</g>
<!-- Node8&#45;&gt;Node10 -->
<g id="edge10" class="edge">
<title>Node8&#45;&gt;Node10</title>
<path fill="none" stroke="midnightblue" d="M451.23,-271.76C507.29,-268.25 585.69,-263.34 636.41,-260.17"/>
<polygon fill="midnightblue" stroke="midnightblue" points="636.72,-263.65 646.48,-259.54 636.28,-256.67 636.72,-263.65"/>
</g>
<!-- Node11 -->
<g id="node11" class="node">
<title>Node11</title>
<g id="a_node11"><a xlink:href="exif-utils_8c.html#a56b96f076a13da6ed926e1ef29cb2dc3" target="_top" xlink:title="Retrieve an ExifSLong value from memory.">
<polygon fill="white" stroke="black" points="770,-247.5 770,-266.5 858,-266.5 858,-247.5 770,-247.5"/>
<text text-anchor="middle" x="814" y="-254.5" font-family="Helvetica,sans-Serif" font-size="10.00">exif_get_slong</text>
</a>
</g>
</g>
<!-- Node8&#45;&gt;Node11 -->
<g id="edge15" class="edge">
<title>Node8&#45;&gt;Node11</title>
<path fill="none" stroke="midnightblue" d="M451.03,-281.16C521.86,-285.37 636.25,-288.75 734,-276 745.9,-274.45 758.62,-271.83 770.29,-269.02"/>
<polygon fill="midnightblue" stroke="midnightblue" points="771.39,-272.36 780.24,-266.53 769.69,-265.57 771.39,-272.36"/>
</g>
<!-- Node8&#45;&gt;Node12 -->
<g id="edge12" class="edge">
<title>Node8&#45;&gt;Node12</title>
<path fill="none" stroke="midnightblue" d="M398.81,-266.36C418.62,-254.18 454.43,-233.1 487,-219 492.02,-216.82 497.38,-214.76 502.73,-212.85"/>
<polygon fill="midnightblue" stroke="midnightblue" points="503.97,-216.12 512.3,-209.58 501.7,-209.5 503.97,-216.12"/>
</g>
<!-- Node8&#45;&gt;Node13 -->
<g id="edge16" class="edge">
<title>Node8&#45;&gt;Node13</title>
<path fill="none" stroke="midnightblue" d="M391.33,-266.47C407.37,-247.55 445.92,-204.97 487,-181 490.63,-178.88 494.53,-176.96 498.53,-175.24"/>
<polygon fill="midnightblue" stroke="midnightblue" points="499.92,-178.45 507.95,-171.55 497.37,-171.93 499.92,-178.45"/>
</g>
<!-- Node10&#45;&gt;Node11 -->
<g id="edge11" class="edge">
<title>Node10&#45;&gt;Node11</title>
<path fill="none" stroke="midnightblue" d="M729.6,-257C739.14,-257 749.45,-257 759.47,-257"/>
<polygon fill="midnightblue" stroke="midnightblue" points="759.75,-260.5 769.75,-257 759.75,-253.5 759.75,-260.5"/>
</g>
<!-- Node12&#45;&gt;Node10 -->
<g id="edge13" class="edge">
<title>Node12&#45;&gt;Node10</title>
<path fill="none" stroke="midnightblue" d="M579.33,-209.54C588.05,-212.37 597.46,-215.62 606,-219 624.06,-226.14 643.81,-235.37 659.28,-242.95"/>
<polygon fill="midnightblue" stroke="midnightblue" points="657.79,-246.12 668.31,-247.42 660.9,-239.84 657.79,-246.12"/>
</g>
<!-- Node13&#45;&gt;Node11 -->
<g id="edge17" class="edge">
<title>Node13&#45;&gt;Node11</title>
<path fill="none" stroke="midnightblue" d="M577.63,-171.55C586.77,-174.51 596.82,-177.82 606,-181 667,-202.1 737.44,-228.37 778.42,-243.85"/>
<polygon fill="midnightblue" stroke="midnightblue" points="777.35,-247.18 787.94,-247.45 779.82,-240.64 777.35,-247.18"/>
</g>
<!-- Node15 -->
<g id="node15" class="node">
<title>Node15</title>
<g id="a_node15"><a xlink:href="exif-entry_8c.html#ad5b86e68c3c96618a946a5c6fcd5f394" target="_top" xlink:title=" ">
<polygon fill="white" stroke="black" points="494.5,-114.5 494.5,-133.5 598.5,-133.5 598.5,-114.5 494.5,-114.5"/>
<text text-anchor="middle" x="546.5" y="-121.5" font-family="Helvetica,sans-Serif" font-size="10.00">exif_data_get_log</text>
</a>
</g>
</g>
<!-- Node14&#45;&gt;Node15 -->
<g id="edge20" class="edge">
<title>Node14&#45;&gt;Node15</title>
<path fill="none" stroke="midnightblue" d="M425.64,-124C443.52,-124 464.72,-124 484.27,-124"/>
<polygon fill="midnightblue" stroke="midnightblue" points="484.33,-127.5 494.33,-124 484.33,-120.5 484.33,-127.5"/>
</g>
<!-- Node16 -->
<g id="node16" class="node">
<title>Node16</title>
<g id="a_node16"><a xlink:href="exif-log_8c.html#a99101b5ad01b2d82ce9d43c9e8534627" target="_top" xlink:title=" ">
<polygon fill="white" stroke="black" points="515.5,-76.5 515.5,-95.5 577.5,-95.5 577.5,-76.5 515.5,-76.5"/>
<text text-anchor="middle" x="546.5" y="-83.5" font-family="Helvetica,sans-Serif" font-size="10.00">exif_logv</text>
</a>
</g>
</g>
<!-- Node14&#45;&gt;Node16 -->
<g id="edge21" class="edge">
<title>Node14&#45;&gt;Node16</title>
<path fill="none" stroke="midnightblue" d="M424.38,-114.41C449.26,-108.58 480.89,-101.15 505.59,-95.36"/>
<polygon fill="midnightblue" stroke="midnightblue" points="506.44,-98.76 515.37,-93.07 504.84,-91.94 506.44,-98.76"/>
</g>
<!-- Node22 -->
<g id="node22" class="node">
<title>Node22</title>
<g id="a_node22"><a xlink:href="exif-tag_8c.html#a389f8ff3411e0525b28367892f1e78d3" target="_top" xlink:title="Finds the first entry in the EXIF tag table with the given tag number using a binary search.">
<polygon fill="white" stroke="black" points="327,-38.5 327,-57.5 438,-57.5 438,-38.5 327,-38.5"/>
<text text-anchor="middle" x="382.5" y="-45.5" font-family="Helvetica,sans-Serif" font-size="10.00">exif_tag_table_first</text>
</a>
</g>
</g>
<!-- Node21&#45;&gt;Node22 -->
<g id="edge31" class="edge">
<title>Node21&#45;&gt;Node22</title>
<path fill="none" stroke="midnightblue" d="M251.41,-76.41C274.68,-71.33 303.45,-65.04 328.02,-59.68"/>
<polygon fill="midnightblue" stroke="midnightblue" points="328.89,-63.07 337.91,-57.52 327.39,-56.23 328.89,-63.07"/>
</g>
<!-- Node23 -->
<g id="node23" class="node">
<title>Node23</title>
<g id="a_node23"><a xlink:href="exif-tag_8c.html#a87563ee64809f5f0deb4d780098508c1" target="_top" xlink:title="Return the number of entries in the EXIF tag table, including the terminating NULL entry.">
<polygon fill="white" stroke="black" points="487,-38.5 487,-57.5 606,-57.5 606,-38.5 487,-38.5"/>
<text text-anchor="middle" x="546.5" y="-45.5" font-family="Helvetica,sans-Serif" font-size="10.00">exif_tag_table_count</text>
</a>
</g>
</g>
<!-- Node22&#45;&gt;Node23 -->
<g id="edge32" class="edge">
<title>Node22&#45;&gt;Node23</title>
<path fill="none" stroke="midnightblue" d="M438.35,-48C450.66,-48 463.88,-48 476.68,-48"/>
<polygon fill="midnightblue" stroke="midnightblue" points="476.83,-51.5 486.83,-48 476.83,-44.5 476.83,-51.5"/>
</g>
<!-- Node24 -->
<g id="node24" class="node">
<title>Node24</title>
<g id="a_node24"><a xlink:href="exif-tag_8c.html#a220c1b18832f113bc84ff9551754915f" target="_top" xlink:title="Compares the tag with that in entry.">
<polygon fill="white" stroke="black" points="512.5,-0.5 512.5,-19.5 580.5,-19.5 580.5,-0.5 512.5,-0.5"/>
<text text-anchor="middle" x="546.5" y="-7.5" font-family="Helvetica,sans-Serif" font-size="10.00">match_tag</text>
</a>
</g>
</g>
<!-- Node22&#45;&gt;Node24 -->
<g id="edge33" class="edge">
<title>Node22&#45;&gt;Node24</title>
<path fill="none" stroke="midnightblue" d="M424.38,-38.41C448.16,-32.83 478.12,-25.8 502.29,-20.13"/>
<polygon fill="midnightblue" stroke="midnightblue" points="503.33,-23.49 512.26,-17.8 501.73,-16.67 503.33,-23.49"/>
</g>
</g>
</svg>
