<?xml version="1.0" encoding="UTF-8" standalone="no"?>
<!DOCTYPE svg PUBLIC "-//W3C//DTD SVG 1.1//EN"
 "http://www.w3.org/Graphics/SVG/1.1/DTD/svg11.dtd">
<!-- Generated by graphviz version 2.44.1 (0)
 -->
<!-- Title: exif_data_new_mem Pages: 1 -->
<svg width="1146pt" height="407pt"
 viewBox="0.00 0.00 1146.00 407.00" xmlns="http://www.w3.org/2000/svg" xmlns:xlink="http://www.w3.org/1999/xlink">
<g id="graph0" class="graph" transform="scale(1 1) rotate(0) translate(4 403)">
<title>exif_data_new_mem</title>
<polygon fill="white" stroke="transparent" points="-4,4 -4,-403 1142,-403 1142,4 -4,4"/>
<!-- Node1 -->
<g id="node1" class="node">
<title>Node1</title>
<g id="a_node1"><a xlink:title="Allocate a new ExifData using the given memory allocator.">
<polygon fill="#bfbfbf" stroke="black" points="0,-265.5 0,-284.5 119,-284.5 119,-265.5 0,-265.5"/>
<text text-anchor="middle" x="59.5" y="-272.5" font-family="Helvetica,sans-Serif" font-size="10.00">exif_data_new_mem</text>
</a>
</g>
</g>
<!-- Node2 -->
<g id="node2" class="node">
<title>Node2</title>
<g id="a_node2"><a xlink:href="exif-content_8c.html#a8a359560f5985ec0a74a28871675d902" target="_top" xlink:title="Reserve memory for and initialize new ExifContent using the specified memory allocator.">
<polygon fill="white" stroke="black" points="156.5,-341.5 156.5,-360.5 290.5,-360.5 290.5,-341.5 156.5,-341.5"/>
<text text-anchor="middle" x="223.5" y="-348.5" font-family="Helvetica,sans-Serif" font-size="10.00">exif_content_new_mem</text>
</a>
</g>
</g>
<!-- Node1&#45;&gt;Node2 -->
<g id="edge1" class="edge">
<title>Node1&#45;&gt;Node2</title>
<path fill="none" stroke="midnightblue" d="M76.15,-284.64C94.57,-295.74 126.3,-314.11 155,-327 163.75,-330.93 173.35,-334.67 182.5,-337.98"/>
<polygon fill="midnightblue" stroke="midnightblue" points="181.59,-341.37 192.18,-341.39 183.91,-334.77 181.59,-341.37"/>
</g>
<!-- Node3 -->
<g id="node3" class="node">
<title>Node3</title>
<g id="a_node3"><a xlink:href="exif-mem_8c.html#ae8c09cfbcb95e435c4c4b7ec3bbd79e4" target="_top" xlink:title=" ">
<polygon fill="white" stroke="black" points="345.5,-379.5 345.5,-398.5 440.5,-398.5 440.5,-379.5 345.5,-379.5"/>
<text text-anchor="middle" x="393" y="-386.5" font-family="Helvetica,sans-Serif" font-size="10.00">exif_mem_alloc</text>
</a>
</g>
</g>
<!-- Node1&#45;&gt;Node3 -->
<g id="edge29" class="edge">
<title>Node1&#45;&gt;Node3</title>
<path fill="none" stroke="midnightblue" d="M66.62,-284.74C79.87,-304.86 113.42,-350.73 155,-370 211.99,-396.41 284.97,-398.14 334.79,-395.19"/>
<polygon fill="midnightblue" stroke="midnightblue" points="335.32,-398.67 345.06,-394.5 334.85,-391.68 335.32,-398.67"/>
</g>
<!-- Node4 -->
<g id="node4" class="node">
<title>Node4</title>
<g id="a_node4"><a xlink:href="exif-mem_8c.html#a43190b81b4b4bdb4ffb89bfb612051b1" target="_top" xlink:title=" ">
<polygon fill="white" stroke="black" points="1047,-199.5 1047,-218.5 1138,-218.5 1138,-199.5 1047,-199.5"/>
<text text-anchor="middle" x="1092.5" y="-206.5" font-family="Helvetica,sans-Serif" font-size="10.00">exif_mem_free</text>
</a>
</g>
</g>
<!-- Node1&#45;&gt;Node4 -->
<g id="edge30" class="edge">
<title>Node1&#45;&gt;Node4</title>
<path fill="none" stroke="midnightblue" d="M119.11,-278.26C253.53,-285.04 594.31,-298.26 878,-276 937.66,-271.32 954.54,-274.84 1011,-255 1032.2,-247.55 1054.22,-234.55 1069.86,-224.26"/>
<polygon fill="midnightblue" stroke="midnightblue" points="1071.94,-227.08 1078.27,-218.58 1068.03,-221.27 1071.94,-227.08"/>
</g>
<!-- Node5 -->
<g id="node5" class="node">
<title>Node5</title>
<g id="a_node5"><a xlink:href="exif-mem_8c.html#af28c61972f529be46907956e0b3e7a60" target="_top" xlink:title="Refcount an ExifMem.">
<polygon fill="white" stroke="black" points="350.5,-303.5 350.5,-322.5 435.5,-322.5 435.5,-303.5 350.5,-303.5"/>
<text text-anchor="middle" x="393" y="-310.5" font-family="Helvetica,sans-Serif" font-size="10.00">exif_mem_ref</text>
</a>
</g>
</g>
<!-- Node1&#45;&gt;Node5 -->
<g id="edge31" class="edge">
<title>Node1&#45;&gt;Node5</title>
<path fill="none" stroke="midnightblue" d="M119.17,-284.12C131.02,-285.84 143.4,-287.55 155,-289 218.66,-296.93 292.19,-304.07 340.25,-308.45"/>
<polygon fill="midnightblue" stroke="midnightblue" points="340.13,-311.96 350.41,-309.37 340.76,-304.98 340.13,-311.96"/>
</g>
<!-- Node6 -->
<g id="node6" class="node">
<title>Node6</title>
<g id="a_node6"><a xlink:href="exif-data_8c.html#a2d2f8fee30176bd6460d51d33d080674" target="_top" xlink:title=" ">
<polygon fill="white" stroke="black" points="180,-208.5 180,-227.5 267,-227.5 267,-208.5 180,-208.5"/>
<text text-anchor="middle" x="223.5" y="-215.5" font-family="Helvetica,sans-Serif" font-size="10.00">exif_data_free</text>
</a>
</g>
</g>
<!-- Node1&#45;&gt;Node6 -->
<g id="edge5" class="edge">
<title>Node1&#45;&gt;Node6</title>
<path fill="none" stroke="midnightblue" d="M87.62,-265.46C114.48,-256.01 155.82,-241.46 185.66,-230.96"/>
<polygon fill="midnightblue" stroke="midnightblue" points="187.02,-234.19 195.3,-227.57 184.7,-227.59 187.02,-234.19"/>
</g>
<!-- Node16 -->
<g id="node16" class="node">
<title>Node16</title>
<g id="a_node16"><a xlink:href="exif-data_8c.html#abe6f9020e02df0d550545b50ddcafe24" target="_top" xlink:title="Set the data type for the given ExifData.">
<polygon fill="white" stroke="black" points="155,-170.5 155,-189.5 292,-189.5 292,-170.5 155,-170.5"/>
<text text-anchor="middle" x="223.5" y="-177.5" font-family="Helvetica,sans-Serif" font-size="10.00">exif_data_set_data_type</text>
</a>
</g>
</g>
<!-- Node1&#45;&gt;Node16 -->
<g id="edge27" class="edge">
<title>Node1&#45;&gt;Node16</title>
<path fill="none" stroke="midnightblue" d="M69.77,-265.34C85.71,-249.27 120,-217.04 155,-199 159.48,-196.69 164.29,-194.63 169.18,-192.8"/>
<polygon fill="midnightblue" stroke="midnightblue" points="170.33,-196.1 178.66,-189.55 168.07,-189.48 170.33,-196.1"/>
</g>
<!-- Node17 -->
<g id="node17" class="node">
<title>Node17</title>
<g id="a_node17"><a xlink:href="exif-data_8c.html#af3fd819c29391da3b444cc347b86a3d4" target="_top" xlink:title="Set the given option on the given ExifData.">
<polygon fill="white" stroke="black" points="164,-132.5 164,-151.5 283,-151.5 283,-132.5 164,-132.5"/>
<text text-anchor="middle" x="223.5" y="-139.5" font-family="Helvetica,sans-Serif" font-size="10.00">exif_data_set_option</text>
</a>
</g>
</g>
<!-- Node1&#45;&gt;Node17 -->
<g id="edge28" class="edge">
<title>Node1&#45;&gt;Node17</title>
<path fill="none" stroke="midnightblue" d="M65.71,-265.38C78.13,-243.38 111.68,-189.17 155,-161 158.14,-158.96 161.51,-157.13 165,-155.49"/>
<polygon fill="midnightblue" stroke="midnightblue" points="166.53,-158.65 174.45,-151.61 163.87,-152.17 166.53,-158.65"/>
</g>
<!-- Node2&#45;&gt;Node3 -->
<g id="edge2" class="edge">
<title>Node2&#45;&gt;Node3</title>
<path fill="none" stroke="midnightblue" d="M266.77,-360.59C289.07,-365.65 316.62,-371.9 340.2,-377.25"/>
<polygon fill="midnightblue" stroke="midnightblue" points="339.51,-380.68 350.04,-379.48 341.06,-373.85 339.51,-380.68"/>
</g>
<!-- Node2&#45;&gt;Node4 -->
<g id="edge3" class="edge">
<title>Node2&#45;&gt;Node4</title>
<path fill="none" stroke="midnightblue" d="M290.65,-351C357.38,-351 463.34,-351 555,-351 555,-351 555,-351 833.5,-351 913.74,-351 942.98,-360.57 1011,-318 1046.05,-296.06 1070.92,-252.86 1083.07,-227.94"/>
<polygon fill="midnightblue" stroke="midnightblue" points="1086.28,-229.32 1087.35,-218.78 1079.94,-226.35 1086.28,-229.32"/>
</g>
<!-- Node2&#45;&gt;Node5 -->
<g id="edge4" class="edge">
<title>Node2&#45;&gt;Node5</title>
<path fill="none" stroke="midnightblue" d="M266.77,-341.41C289.15,-336.33 316.83,-330.05 340.47,-324.69"/>
<polygon fill="midnightblue" stroke="midnightblue" points="341.35,-328.08 350.33,-322.45 339.8,-321.25 341.35,-328.08"/>
</g>
<!-- Node6&#45;&gt;Node4 -->
<g id="edge20" class="edge">
<title>Node6&#45;&gt;Node4</title>
<path fill="none" stroke="midnightblue" d="M267.35,-212.55C276.36,-209.71 285.18,-205.43 292,-199 327.59,-165.45 294.52,-130.66 328,-95 402.86,-15.26 445.63,0 555,0 555,0 555,0 833.5,0 916.77,0 947.35,-6.31 1011,-60 1052.82,-95.27 1076.37,-157.98 1086.12,-189.61"/>
<polygon fill="midnightblue" stroke="midnightblue" points="1082.82,-190.8 1089,-199.41 1089.54,-188.83 1082.82,-190.8"/>
</g>
<!-- Node7 -->
<g id="node7" class="node">
<title>Node7</title>
<g id="a_node7"><a xlink:href="exif-content_8c.html#a5e72c0f223d5d1aa33b34f388a5c9d37" target="_top" xlink:title="Decrease reference counter for ExifContent.">
<polygon fill="white" stroke="black" points="339,-104.5 339,-123.5 447,-123.5 447,-104.5 339,-104.5"/>
<text text-anchor="middle" x="393" y="-111.5" font-family="Helvetica,sans-Serif" font-size="10.00">exif_content_unref</text>
</a>
</g>
</g>
<!-- Node6&#45;&gt;Node7 -->
<g id="edge6" class="edge">
<title>Node6&#45;&gt;Node7</title>
<path fill="none" stroke="midnightblue" d="M267.16,-211.29C275.98,-208.51 284.76,-204.57 292,-199 316.95,-179.8 303.89,-158.24 328,-138 332.89,-133.89 338.55,-130.46 344.45,-127.58"/>
<polygon fill="midnightblue" stroke="midnightblue" points="346.04,-130.71 353.82,-123.52 343.26,-124.29 346.04,-130.71"/>
</g>
<!-- Node11 -->
<g id="node11" class="node">
<title>Node11</title>
<g id="a_node11"><a xlink:href="exif-mem_8c.html#a66744e0987af08c443df247ce55f7d87" target="_top" xlink:title="Unrefcount an ExifMem.">
<polygon fill="white" stroke="black" points="914,-161.5 914,-180.5 1011,-180.5 1011,-161.5 914,-161.5"/>
<text text-anchor="middle" x="962.5" y="-168.5" font-family="Helvetica,sans-Serif" font-size="10.00">exif_mem_unref</text>
</a>
</g>
</g>
<!-- Node6&#45;&gt;Node11 -->
<g id="edge21" class="edge">
<title>Node6&#45;&gt;Node11</title>
<path fill="none" stroke="midnightblue" d="M263.87,-208.43C273.22,-205.74 283.07,-202.57 292,-199 308.8,-192.29 310.74,-185.42 328,-180 424.99,-149.55 453.35,-152 555,-152 555,-152 555,-152 703.5,-152 772.34,-152 851.24,-158.81 903.47,-164.28"/>
<polygon fill="midnightblue" stroke="midnightblue" points="903.24,-167.77 913.55,-165.35 903.98,-160.81 903.24,-167.77"/>
</g>
<!-- Node12 -->
<g id="node12" class="node">
<title>Node12</title>
<g id="a_node12"><a xlink:href="exif-log_8c.html#a7a9b738a7429197d68c80ffedac7d8fb" target="_top" xlink:title=" ">
<polygon fill="white" stroke="black" points="659.5,-218.5 659.5,-237.5 745.5,-237.5 745.5,-218.5 659.5,-218.5"/>
<text text-anchor="middle" x="702.5" y="-225.5" font-family="Helvetica,sans-Serif" font-size="10.00">exif_log_unref</text>
</a>
</g>
</g>
<!-- Node6&#45;&gt;Node12 -->
<g id="edge19" class="edge">
<title>Node6&#45;&gt;Node12</title>
<path fill="none" stroke="midnightblue" d="M267.25,-218.9C354.75,-220.73 554.02,-224.91 649.11,-226.9"/>
<polygon fill="midnightblue" stroke="midnightblue" points="649.29,-230.41 659.36,-227.12 649.43,-223.41 649.29,-230.41"/>
</g>
<!-- Node14 -->
<g id="node14" class="node">
<title>Node14</title>
<g id="a_node14"><a xlink:href="exif-mnote-data_8c.html#af910e5c862e5aba351b84b2142d98192" target="_top" xlink:title=" ">
<polygon fill="white" stroke="black" points="328,-189.5 328,-208.5 458,-208.5 458,-189.5 328,-189.5"/>
<text text-anchor="middle" x="393" y="-196.5" font-family="Helvetica,sans-Serif" font-size="10.00">exif_mnote_data_unref</text>
</a>
</g>
</g>
<!-- Node6&#45;&gt;Node14 -->
<g id="edge22" class="edge">
<title>Node6&#45;&gt;Node14</title>
<path fill="none" stroke="midnightblue" d="M267.2,-213.16C282.6,-211.41 300.45,-209.38 317.75,-207.42"/>
<polygon fill="midnightblue" stroke="midnightblue" points="318.31,-210.88 327.86,-206.28 317.52,-203.93 318.31,-210.88"/>
</g>
<!-- Node8 -->
<g id="node8" class="node">
<title>Node8</title>
<g id="a_node8"><a xlink:href="exif-content_8c.html#af77d27f5949aa4249fd54a5146c28289" target="_top" xlink:title="Actually free the ExifContent.">
<polygon fill="white" stroke="black" points="505,-104.5 505,-123.5 607,-123.5 607,-104.5 505,-104.5"/>
<text text-anchor="middle" x="556" y="-111.5" font-family="Helvetica,sans-Serif" font-size="10.00">exif_content_free</text>
</a>
</g>
</g>
<!-- Node7&#45;&gt;Node8 -->
<g id="edge7" class="edge">
<title>Node7&#45;&gt;Node8</title>
<path fill="none" stroke="midnightblue" d="M447.16,-114C462.42,-114 479.15,-114 494.8,-114"/>
<polygon fill="midnightblue" stroke="midnightblue" points="494.89,-117.5 504.89,-114 494.89,-110.5 494.89,-117.5"/>
</g>
<!-- Node8&#45;&gt;Node4 -->
<g id="edge17" class="edge">
<title>Node8&#45;&gt;Node4</title>
<path fill="none" stroke="midnightblue" d="M568.6,-104.35C585.9,-90.66 620.07,-66.23 654,-57 750.06,-30.86 779.88,-40.17 878,-57 939.79,-67.6 960.28,-67.16 1011,-104 1043.2,-127.39 1068.68,-167.21 1081.8,-190.51"/>
<polygon fill="midnightblue" stroke="midnightblue" points="1078.78,-192.29 1086.64,-199.39 1084.92,-188.93 1078.78,-192.29"/>
</g>
<!-- Node9 -->
<g id="node9" class="node">
<title>Node9</title>
<g id="a_node9"><a xlink:href="exif-entry_8c.html#a82d5d923121488d847d341727cdd2ef4" target="_top" xlink:title="Decrease reference counter for ExifEntry.">
<polygon fill="white" stroke="black" points="654,-66.5 654,-85.5 751,-85.5 751,-66.5 654,-66.5"/>
<text text-anchor="middle" x="702.5" y="-73.5" font-family="Helvetica,sans-Serif" font-size="10.00">exif_entry_unref</text>
</a>
</g>
</g>
<!-- Node8&#45;&gt;Node9 -->
<g id="edge8" class="edge">
<title>Node8&#45;&gt;Node9</title>
<path fill="none" stroke="midnightblue" d="M593.46,-104.41C612.27,-99.46 635.41,-93.38 655.45,-88.11"/>
<polygon fill="midnightblue" stroke="midnightblue" points="656.52,-91.45 665.3,-85.52 654.74,-84.68 656.52,-91.45"/>
</g>
<!-- Node8&#45;&gt;Node11 -->
<g id="edge18" class="edge">
<title>Node8&#45;&gt;Node11</title>
<path fill="none" stroke="midnightblue" d="M607.18,-113.11C670.96,-113.04 784.04,-116.45 878,-138 896.87,-142.33 917.09,-150.23 932.9,-157.21"/>
<polygon fill="midnightblue" stroke="midnightblue" points="931.58,-160.45 942.13,-161.4 934.47,-154.08 931.58,-160.45"/>
</g>
<!-- Node8&#45;&gt;Node12 -->
<g id="edge13" class="edge">
<title>Node8&#45;&gt;Node12</title>
<path fill="none" stroke="midnightblue" d="M569.32,-123.72C594.17,-143.32 650.51,-187.77 680.99,-211.82"/>
<polygon fill="midnightblue" stroke="midnightblue" points="679.19,-214.86 689.21,-218.31 683.53,-209.36 679.19,-214.86"/>
</g>
<!-- Node10 -->
<g id="node10" class="node">
<title>Node10</title>
<g id="a_node10"><a xlink:href="exif-entry_8c.html#a2879215e3863186650d3f32eb63bbaf4" target="_top" xlink:title="Actually free the ExifEntry.">
<polygon fill="white" stroke="black" points="787,-66.5 787,-85.5 878,-85.5 878,-66.5 787,-66.5"/>
<text text-anchor="middle" x="832.5" y="-73.5" font-family="Helvetica,sans-Serif" font-size="10.00">exif_entry_free</text>
</a>
</g>
</g>
<!-- Node9&#45;&gt;Node10 -->
<g id="edge9" class="edge">
<title>Node9&#45;&gt;Node10</title>
<path fill="none" stroke="midnightblue" d="M751.16,-76C759.45,-76 768.13,-76 776.59,-76"/>
<polygon fill="midnightblue" stroke="midnightblue" points="776.77,-79.5 786.77,-76 776.77,-72.5 776.77,-79.5"/>
</g>
<!-- Node10&#45;&gt;Node4 -->
<g id="edge10" class="edge">
<title>Node10&#45;&gt;Node4</title>
<path fill="none" stroke="midnightblue" d="M860.5,-85.52C896.03,-98.49 959.96,-123.43 1011,-152 1032.81,-164.21 1055.92,-181.03 1071.76,-193.23"/>
<polygon fill="midnightblue" stroke="midnightblue" points="1069.72,-196.08 1079.75,-199.47 1074.03,-190.56 1069.72,-196.08"/>
</g>
<!-- Node10&#45;&gt;Node11 -->
<g id="edge11" class="edge">
<title>Node10&#45;&gt;Node11</title>
<path fill="none" stroke="midnightblue" d="M853.52,-85.66C861.37,-89.73 870.32,-94.75 878,-100 891.12,-108.97 922.65,-136.45 942.99,-154.47"/>
<polygon fill="midnightblue" stroke="midnightblue" points="940.89,-157.28 950.69,-161.31 945.54,-152.05 940.89,-157.28"/>
</g>
<!-- Node11&#45;&gt;Node4 -->
<g id="edge12" class="edge">
<title>Node11&#45;&gt;Node4</title>
<path fill="none" stroke="midnightblue" d="M995.8,-180.59C1012.02,-185.4 1031.88,-191.3 1049.29,-196.47"/>
<polygon fill="midnightblue" stroke="midnightblue" points="1048.63,-199.92 1059.21,-199.41 1050.62,-193.21 1048.63,-199.92"/>
</g>
<!-- Node13 -->
<g id="node13" class="node">
<title>Node13</title>
<g id="a_node13"><a xlink:href="exif-log_8c.html#acd0808d6d5be73f28059797c2e2e67dc" target="_top" xlink:title="Delete instance of ExifLog.">
<polygon fill="white" stroke="black" points="792.5,-218.5 792.5,-237.5 872.5,-237.5 872.5,-218.5 792.5,-218.5"/>
<text text-anchor="middle" x="832.5" y="-225.5" font-family="Helvetica,sans-Serif" font-size="10.00">exif_log_free</text>
</a>
</g>
</g>
<!-- Node12&#45;&gt;Node13 -->
<g id="edge14" class="edge">
<title>Node12&#45;&gt;Node13</title>
<path fill="none" stroke="midnightblue" d="M745.77,-228C757.37,-228 770.05,-228 782.02,-228"/>
<polygon fill="midnightblue" stroke="midnightblue" points="782.31,-231.5 792.31,-228 782.31,-224.5 782.31,-231.5"/>
</g>
<!-- Node13&#45;&gt;Node4 -->
<g id="edge15" class="edge">
<title>Node13&#45;&gt;Node4</title>
<path fill="none" stroke="midnightblue" d="M872.68,-225.11C916.38,-221.9 987.36,-216.67 1036.58,-213.04"/>
<polygon fill="midnightblue" stroke="midnightblue" points="1037.02,-216.52 1046.73,-212.3 1036.5,-209.54 1037.02,-216.52"/>
</g>
<!-- Node13&#45;&gt;Node11 -->
<g id="edge16" class="edge">
<title>Node13&#45;&gt;Node11</title>
<path fill="none" stroke="midnightblue" d="M854.92,-218.46C875.69,-209.21 907.4,-195.09 930.84,-184.65"/>
<polygon fill="midnightblue" stroke="midnightblue" points="932.29,-187.84 940.01,-180.57 929.45,-181.44 932.29,-187.84"/>
</g>
<!-- Node15 -->
<g id="node15" class="node">
<title>Node15</title>
<g id="a_node15"><a xlink:href="exif-mnote-data_8c.html#a2f715582f27a9821560931aeaa139abd" target="_top" xlink:title=" ">
<polygon fill="white" stroke="black" points="494,-189.5 494,-208.5 618,-208.5 618,-189.5 494,-189.5"/>
<text text-anchor="middle" x="556" y="-196.5" font-family="Helvetica,sans-Serif" font-size="10.00">exif_mnote_data_free</text>
</a>
</g>
</g>
<!-- Node14&#45;&gt;Node15 -->
<g id="edge23" class="edge">
<title>Node14&#45;&gt;Node15</title>
<path fill="none" stroke="midnightblue" d="M458.09,-199C466.45,-199 475.05,-199 483.51,-199"/>
<polygon fill="midnightblue" stroke="midnightblue" points="483.75,-202.5 493.75,-199 483.75,-195.5 483.75,-202.5"/>
</g>
<!-- Node15&#45;&gt;Node4 -->
<g id="edge25" class="edge">
<title>Node15&#45;&gt;Node4</title>
<path fill="none" stroke="midnightblue" d="M571,-208.53C589.18,-220.28 622.35,-239.6 654,-247 808.63,-283.17 855.21,-262.82 1011,-232 1024.75,-229.28 1039.56,-225.35 1052.68,-221.5"/>
<polygon fill="midnightblue" stroke="midnightblue" points="1053.78,-224.83 1062.35,-218.59 1051.76,-218.12 1053.78,-224.83"/>
</g>
<!-- Node15&#45;&gt;Node11 -->
<g id="edge26" class="edge">
<title>Node15&#45;&gt;Node11</title>
<path fill="none" stroke="midnightblue" d="M618.43,-194.75C695.8,-189.39 827.73,-180.26 903.45,-175.02"/>
<polygon fill="midnightblue" stroke="midnightblue" points="904.02,-178.49 913.76,-174.3 903.54,-171.5 904.02,-178.49"/>
</g>
<!-- Node15&#45;&gt;Node12 -->
<g id="edge24" class="edge">
<title>Node15&#45;&gt;Node12</title>
<path fill="none" stroke="midnightblue" d="M604.72,-208.58C619.01,-211.44 634.76,-214.61 649.32,-217.53"/>
<polygon fill="midnightblue" stroke="midnightblue" points="648.69,-220.97 659.18,-219.51 650.07,-214.11 648.69,-220.97"/>
</g>
</g>
</svg>
