<?xml version="1.0" encoding="UTF-8" standalone="no"?>
<!DOCTYPE svg PUBLIC "-//W3C//DTD SVG 1.1//EN"
 "http://www.w3.org/Graphics/SVG/1.1/DTD/svg11.dtd">
<!-- Generated by graphviz version 2.44.1 (0)
 -->
<!-- Title: exif_data_new Pages: 1 -->
<svg width="1282pt" height="698pt"
 viewBox="0.00 0.00 1282.00 698.41" xmlns="http://www.w3.org/2000/svg" xmlns:xlink="http://www.w3.org/1999/xlink">
<g id="graph0" class="graph" transform="scale(1 1) rotate(0) translate(4 694.41)">
<title>exif_data_new</title>
<polygon fill="white" stroke="transparent" points="-4,4 -4,-694.41 1278,-694.41 1278,4 -4,4"/>
<!-- Node1 -->
<g id="node1" class="node">
<title>Node1</title>
<g id="a_node1"><a xlink:title="Allocate a new ExifData.">
<polygon fill="#bfbfbf" stroke="black" points="0,-152.5 0,-171.5 88,-171.5 88,-152.5 0,-152.5"/>
<text text-anchor="middle" x="44" y="-159.5" font-family="Helvetica,sans-Serif" font-size="10.00">exif_data_new</text>
</a>
</g>
</g>
<!-- Node2 -->
<g id="node2" class="node">
<title>Node2</title>
<g id="a_node2"><a xlink:href="exif-data_8c.html#abd793f6c516c5b92dd3b1bbd9e7f5ac6" target="_top" xlink:title="Allocate a new ExifData using the given memory allocator.">
<polygon fill="white" stroke="black" points="130,-551.5 130,-570.5 249,-570.5 249,-551.5 130,-551.5"/>
<text text-anchor="middle" x="189.5" y="-558.5" font-family="Helvetica,sans-Serif" font-size="10.00">exif_data_new_mem</text>
</a>
</g>
</g>
<!-- Node1&#45;&gt;Node2 -->
<g id="edge1" class="edge">
<title>Node1&#45;&gt;Node2</title>
<path fill="none" stroke="midnightblue" d="M48.55,-171.86C67.43,-224.37 156.25,-471.32 181.68,-542.03"/>
<polygon fill="midnightblue" stroke="midnightblue" points="178.4,-543.26 185.08,-551.48 184.99,-540.89 178.4,-543.26"/>
</g>
<!-- Node12 -->
<g id="node12" class="node">
<title>Node12</title>
<g id="a_node12"><a xlink:href="exif-mem_8c.html#a66744e0987af08c443df247ce55f7d87" target="_top" xlink:title="Unrefcount an ExifMem.">
<polygon fill="white" stroke="black" points="1050,-304.5 1050,-323.5 1147,-323.5 1147,-304.5 1050,-304.5"/>
<text text-anchor="middle" x="1098.5" y="-311.5" font-family="Helvetica,sans-Serif" font-size="10.00">exif_mem_unref</text>
</a>
</g>
</g>
<!-- Node1&#45;&gt;Node12 -->
<g id="edge38" class="edge">
<title>Node1&#45;&gt;Node12</title>
<path fill="none" stroke="midnightblue" d="M88.1,-162C148.54,-162 261.89,-162 358.5,-162 358.5,-162 358.5,-162 839.5,-162 917.51,-162 947.87,-139.61 1014,-181 1056.4,-207.54 1080.91,-264.35 1091.4,-294.41"/>
<polygon fill="midnightblue" stroke="midnightblue" points="1088.17,-295.78 1094.64,-304.17 1094.81,-293.58 1088.17,-295.78"/>
</g>
<!-- Node19 -->
<g id="node19" class="node">
<title>Node19</title>
<g id="a_node19"><a xlink:href="exif-mem_8c.html#acd2926c29b470c9d43f84567a84d5acb" target="_top" xlink:title="Create a new ExifMem with default values for your convenience.">
<polygon fill="white" stroke="black" points="124,-76.5 124,-95.5 255,-95.5 255,-76.5 124,-76.5"/>
<text text-anchor="middle" x="189.5" y="-83.5" font-family="Helvetica,sans-Serif" font-size="10.00">exif_mem_new_default</text>
</a>
</g>
</g>
<!-- Node1&#45;&gt;Node19 -->
<g id="edge33" class="edge">
<title>Node1&#45;&gt;Node19</title>
<path fill="none" stroke="midnightblue" d="M63.17,-152.37C87.97,-139.24 132.61,-115.6 161.38,-100.36"/>
<polygon fill="midnightblue" stroke="midnightblue" points="163.27,-103.32 170.47,-95.55 160,-97.13 163.27,-103.32"/>
</g>
<!-- Node3 -->
<g id="node3" class="node">
<title>Node3</title>
<g id="a_node3"><a xlink:href="exif-content_8c.html#a8a359560f5985ec0a74a28871675d902" target="_top" xlink:title="Reserve memory for and initialize new ExifContent using the specified memory allocator.">
<polygon fill="white" stroke="black" points="292.5,-570.5 292.5,-589.5 426.5,-589.5 426.5,-570.5 292.5,-570.5"/>
<text text-anchor="middle" x="359.5" y="-577.5" font-family="Helvetica,sans-Serif" font-size="10.00">exif_content_new_mem</text>
</a>
</g>
</g>
<!-- Node2&#45;&gt;Node3 -->
<g id="edge2" class="edge">
<title>Node2&#45;&gt;Node3</title>
<path fill="none" stroke="midnightblue" d="M249.26,-567.65C259.91,-568.85 271.15,-570.12 282.22,-571.37"/>
<polygon fill="midnightblue" stroke="midnightblue" points="281.98,-574.87 292.31,-572.51 282.77,-567.91 281.98,-574.87"/>
</g>
<!-- Node4 -->
<g id="node4" class="node">
<title>Node4</title>
<g id="a_node4"><a xlink:href="exif-mem_8c.html#ae8c09cfbcb95e435c4c4b7ec3bbd79e4" target="_top" xlink:title=" ">
<polygon fill="white" stroke="black" points="481.5,-532.5 481.5,-551.5 576.5,-551.5 576.5,-532.5 481.5,-532.5"/>
<text text-anchor="middle" x="529" y="-539.5" font-family="Helvetica,sans-Serif" font-size="10.00">exif_mem_alloc</text>
</a>
</g>
</g>
<!-- Node2&#45;&gt;Node4 -->
<g id="edge30" class="edge">
<title>Node2&#45;&gt;Node4</title>
<path fill="none" stroke="midnightblue" d="M249.29,-557.69C311.6,-554.18 409.33,-548.68 470.96,-545.21"/>
<polygon fill="midnightblue" stroke="midnightblue" points="471.5,-548.69 481.28,-544.63 471.1,-541.7 471.5,-548.69"/>
</g>
<!-- Node5 -->
<g id="node5" class="node">
<title>Node5</title>
<g id="a_node5"><a xlink:href="exif-mem_8c.html#a43190b81b4b4bdb4ffb89bfb612051b1" target="_top" xlink:title=" ">
<polygon fill="white" stroke="black" points="1183,-399.5 1183,-418.5 1274,-418.5 1274,-399.5 1183,-399.5"/>
<text text-anchor="middle" x="1228.5" y="-406.5" font-family="Helvetica,sans-Serif" font-size="10.00">exif_mem_free</text>
</a>
</g>
</g>
<!-- Node2&#45;&gt;Node5 -->
<g id="edge31" class="edge">
<title>Node2&#45;&gt;Node5</title>
<path fill="none" stroke="midnightblue" d="M224.19,-551.46C284.56,-535.23 415.39,-504 528,-504 528,-504 528,-504 969.5,-504 1050.67,-504 1072.42,-493.03 1147,-461 1168.85,-451.62 1191.4,-436.5 1207.05,-424.98"/>
<polygon fill="midnightblue" stroke="midnightblue" points="1209.53,-427.49 1215.42,-418.68 1205.32,-421.9 1209.53,-427.49"/>
</g>
<!-- Node6 -->
<g id="node6" class="node">
<title>Node6</title>
<g id="a_node6"><a xlink:href="exif-mem_8c.html#af28c61972f529be46907956e0b3e7a60" target="_top" xlink:title="Refcount an ExifMem.">
<polygon fill="white" stroke="black" points="486.5,-646.5 486.5,-665.5 571.5,-665.5 571.5,-646.5 486.5,-646.5"/>
<text text-anchor="middle" x="529" y="-653.5" font-family="Helvetica,sans-Serif" font-size="10.00">exif_mem_ref</text>
</a>
</g>
</g>
<!-- Node2&#45;&gt;Node6 -->
<g id="edge32" class="edge">
<title>Node2&#45;&gt;Node6</title>
<path fill="none" stroke="midnightblue" d="M195.36,-570.8C207.59,-594.19 242.19,-652.96 291,-675 357.73,-705.13 445.77,-684.38 493.55,-668.8"/>
<polygon fill="midnightblue" stroke="midnightblue" points="494.76,-672.09 503.12,-665.57 492.52,-665.45 494.76,-672.09"/>
</g>
<!-- Node7 -->
<g id="node7" class="node">
<title>Node7</title>
<g id="a_node7"><a xlink:href="exif-data_8c.html#a2d2f8fee30176bd6460d51d33d080674" target="_top" xlink:title=" ">
<polygon fill="white" stroke="black" points="316,-380.5 316,-399.5 403,-399.5 403,-380.5 316,-380.5"/>
<text text-anchor="middle" x="359.5" y="-387.5" font-family="Helvetica,sans-Serif" font-size="10.00">exif_data_free</text>
</a>
</g>
</g>
<!-- Node2&#45;&gt;Node7 -->
<g id="edge6" class="edge">
<title>Node2&#45;&gt;Node7</title>
<path fill="none" stroke="midnightblue" d="M200.01,-551.32C227.5,-523.33 307.3,-442.12 342.03,-406.77"/>
<polygon fill="midnightblue" stroke="midnightblue" points="344.58,-409.16 349.09,-399.58 339.59,-404.26 344.58,-409.16"/>
</g>
<!-- Node17 -->
<g id="node17" class="node">
<title>Node17</title>
<g id="a_node17"><a xlink:href="exif-data_8c.html#abe6f9020e02df0d550545b50ddcafe24" target="_top" xlink:title="Set the data type for the given ExifData.">
<polygon fill="white" stroke="black" points="291,-646.5 291,-665.5 428,-665.5 428,-646.5 291,-646.5"/>
<text text-anchor="middle" x="359.5" y="-653.5" font-family="Helvetica,sans-Serif" font-size="10.00">exif_data_set_data_type</text>
</a>
</g>
</g>
<!-- Node2&#45;&gt;Node17 -->
<g id="edge28" class="edge">
<title>Node2&#45;&gt;Node17</title>
<path fill="none" stroke="midnightblue" d="M200.48,-570.62C217.62,-586.64 254.36,-618.81 291,-637 295.65,-639.31 300.63,-641.38 305.69,-643.22"/>
<polygon fill="midnightblue" stroke="midnightblue" points="304.87,-646.64 315.47,-646.49 307.09,-640 304.87,-646.64"/>
</g>
<!-- Node18 -->
<g id="node18" class="node">
<title>Node18</title>
<g id="a_node18"><a xlink:href="exif-data_8c.html#af3fd819c29391da3b444cc347b86a3d4" target="_top" xlink:title="Set the given option on the given ExifData.">
<polygon fill="white" stroke="black" points="300,-608.5 300,-627.5 419,-627.5 419,-608.5 300,-608.5"/>
<text text-anchor="middle" x="359.5" y="-615.5" font-family="Helvetica,sans-Serif" font-size="10.00">exif_data_set_option</text>
</a>
</g>
</g>
<!-- Node2&#45;&gt;Node18 -->
<g id="edge29" class="edge">
<title>Node2&#45;&gt;Node18</title>
<path fill="none" stroke="midnightblue" d="M214.25,-570.65C234.49,-578.71 264.42,-590.25 291,-599 297.92,-601.28 305.29,-603.53 312.52,-605.64"/>
<polygon fill="midnightblue" stroke="midnightblue" points="311.67,-609.03 322.24,-608.42 313.59,-602.3 311.67,-609.03"/>
</g>
<!-- Node3&#45;&gt;Node4 -->
<g id="edge3" class="edge">
<title>Node3&#45;&gt;Node4</title>
<path fill="none" stroke="midnightblue" d="M402.77,-570.41C425.07,-565.35 452.62,-559.1 476.2,-553.75"/>
<polygon fill="midnightblue" stroke="midnightblue" points="477.06,-557.15 486.04,-551.52 475.51,-550.32 477.06,-557.15"/>
</g>
<!-- Node3&#45;&gt;Node5 -->
<g id="edge4" class="edge">
<title>Node3&#45;&gt;Node5</title>
<path fill="none" stroke="midnightblue" d="M426.65,-580C493.38,-580 599.34,-580 691,-580 691,-580 691,-580 969.5,-580 1053.06,-580 1079.74,-567.59 1147,-518 1179.97,-493.69 1205.33,-452.02 1218.18,-427.86"/>
<polygon fill="midnightblue" stroke="midnightblue" points="1221.44,-429.17 1222.91,-418.67 1215.22,-425.96 1221.44,-429.17"/>
</g>
<!-- Node3&#45;&gt;Node6 -->
<g id="edge5" class="edge">
<title>Node3&#45;&gt;Node6</title>
<path fill="none" stroke="midnightblue" d="M400.67,-589.57C409.8,-592.22 419.35,-595.38 428,-599 455.69,-610.58 485.32,-628.2 505.07,-640.78"/>
<polygon fill="midnightblue" stroke="midnightblue" points="503.37,-643.85 513.67,-646.33 507.17,-637.97 503.37,-643.85"/>
</g>
<!-- Node7&#45;&gt;Node5 -->
<g id="edge21" class="edge">
<title>Node7&#45;&gt;Node5</title>
<path fill="none" stroke="midnightblue" d="M384.93,-399.63C439.12,-420.08 573.84,-466 691,-466 691,-466 691,-466 969.5,-466 1050.82,-466 1143.24,-438.66 1192.39,-421.85"/>
<polygon fill="midnightblue" stroke="midnightblue" points="1193.62,-425.13 1201.91,-418.54 1191.32,-418.52 1193.62,-425.13"/>
</g>
<!-- Node8 -->
<g id="node8" class="node">
<title>Node8</title>
<g id="a_node8"><a xlink:href="exif-content_8c.html#a5e72c0f223d5d1aa33b34f388a5c9d37" target="_top" xlink:title="Decrease reference counter for ExifContent.">
<polygon fill="white" stroke="black" points="475,-266.5 475,-285.5 583,-285.5 583,-266.5 475,-266.5"/>
<text text-anchor="middle" x="529" y="-273.5" font-family="Helvetica,sans-Serif" font-size="10.00">exif_content_unref</text>
</a>
</g>
</g>
<!-- Node7&#45;&gt;Node8 -->
<g id="edge7" class="edge">
<title>Node7&#45;&gt;Node8</title>
<path fill="none" stroke="midnightblue" d="M369.31,-380.32C386.14,-362.32 424.72,-323.4 464,-300 470.88,-295.9 478.58,-292.29 486.2,-289.21"/>
<polygon fill="midnightblue" stroke="midnightblue" points="487.62,-292.41 495.72,-285.57 485.13,-285.87 487.62,-292.41"/>
</g>
<!-- Node7&#45;&gt;Node12 -->
<g id="edge22" class="edge">
<title>Node7&#45;&gt;Node12</title>
<path fill="none" stroke="midnightblue" d="M382.73,-380.47C403.43,-371.92 435.32,-359.59 464,-352 562.88,-325.81 588.71,-314 691,-314 691,-314 691,-314 839.5,-314 908.37,-314 987.57,-314 1039.86,-314"/>
<polygon fill="midnightblue" stroke="midnightblue" points="1039.95,-317.5 1049.95,-314 1039.95,-310.5 1039.95,-317.5"/>
</g>
<!-- Node13 -->
<g id="node13" class="node">
<title>Node13</title>
<g id="a_node13"><a xlink:href="exif-log_8c.html#a7a9b738a7429197d68c80ffedac7d8fb" target="_top" xlink:title=" ">
<polygon fill="white" stroke="black" points="795.5,-380.5 795.5,-399.5 881.5,-399.5 881.5,-380.5 795.5,-380.5"/>
<text text-anchor="middle" x="838.5" y="-387.5" font-family="Helvetica,sans-Serif" font-size="10.00">exif_log_unref</text>
</a>
</g>
</g>
<!-- Node7&#45;&gt;Node13 -->
<g id="edge20" class="edge">
<title>Node7&#45;&gt;Node13</title>
<path fill="none" stroke="midnightblue" d="M403.25,-390C490.75,-390 690.02,-390 785.11,-390"/>
<polygon fill="midnightblue" stroke="midnightblue" points="785.36,-393.5 795.36,-390 785.36,-386.5 785.36,-393.5"/>
</g>
<!-- Node15 -->
<g id="node15" class="node">
<title>Node15</title>
<g id="a_node15"><a xlink:href="exif-mnote-data_8c.html#af910e5c862e5aba351b84b2142d98192" target="_top" xlink:title=" ">
<polygon fill="white" stroke="black" points="464,-361.5 464,-380.5 594,-380.5 594,-361.5 464,-361.5"/>
<text text-anchor="middle" x="529" y="-368.5" font-family="Helvetica,sans-Serif" font-size="10.00">exif_mnote_data_unref</text>
</a>
</g>
</g>
<!-- Node7&#45;&gt;Node15 -->
<g id="edge23" class="edge">
<title>Node7&#45;&gt;Node15</title>
<path fill="none" stroke="midnightblue" d="M403.2,-385.16C418.6,-383.41 436.45,-381.38 453.75,-379.42"/>
<polygon fill="midnightblue" stroke="midnightblue" points="454.31,-382.88 463.86,-378.28 453.52,-375.93 454.31,-382.88"/>
</g>
<!-- Node9 -->
<g id="node9" class="node">
<title>Node9</title>
<g id="a_node9"><a xlink:href="exif-content_8c.html#af77d27f5949aa4249fd54a5146c28289" target="_top" xlink:title="Actually free the ExifContent.">
<polygon fill="white" stroke="black" points="641,-266.5 641,-285.5 743,-285.5 743,-266.5 641,-266.5"/>
<text text-anchor="middle" x="692" y="-273.5" font-family="Helvetica,sans-Serif" font-size="10.00">exif_content_free</text>
</a>
</g>
</g>
<!-- Node8&#45;&gt;Node9 -->
<g id="edge8" class="edge">
<title>Node8&#45;&gt;Node9</title>
<path fill="none" stroke="midnightblue" d="M583.16,-276C598.42,-276 615.15,-276 630.8,-276"/>
<polygon fill="midnightblue" stroke="midnightblue" points="630.89,-279.5 640.89,-276 630.89,-272.5 630.89,-279.5"/>
</g>
<!-- Node9&#45;&gt;Node5 -->
<g id="edge18" class="edge">
<title>Node9&#45;&gt;Node5</title>
<path fill="none" stroke="midnightblue" d="M732.33,-266.49C815.22,-248.7 1011.39,-218.69 1147,-295 1184.84,-316.29 1209.15,-363.64 1220.33,-390.13"/>
<polygon fill="midnightblue" stroke="midnightblue" points="1217.11,-391.5 1224.09,-399.47 1223.6,-388.88 1217.11,-391.5"/>
</g>
<!-- Node10 -->
<g id="node10" class="node">
<title>Node10</title>
<g id="a_node10"><a xlink:href="exif-entry_8c.html#a82d5d923121488d847d341727cdd2ef4" target="_top" xlink:title="Decrease reference counter for ExifEntry.">
<polygon fill="white" stroke="black" points="790,-190.5 790,-209.5 887,-209.5 887,-190.5 790,-190.5"/>
<text text-anchor="middle" x="838.5" y="-197.5" font-family="Helvetica,sans-Serif" font-size="10.00">exif_entry_unref</text>
</a>
</g>
</g>
<!-- Node9&#45;&gt;Node10 -->
<g id="edge9" class="edge">
<title>Node9&#45;&gt;Node10</title>
<path fill="none" stroke="midnightblue" d="M710.46,-266.48C729.82,-255.95 762.04,-238.56 790,-224 796.02,-220.86 802.5,-217.55 808.68,-214.42"/>
<polygon fill="midnightblue" stroke="midnightblue" points="810.68,-217.33 818.03,-209.7 807.53,-211.08 810.68,-217.33"/>
</g>
<!-- Node9&#45;&gt;Node12 -->
<g id="edge19" class="edge">
<title>Node9&#45;&gt;Node12</title>
<path fill="none" stroke="midnightblue" d="M743.18,-278.33C806.47,-281.59 918.57,-288.46 1014,-300 1022.39,-301.01 1031.22,-302.28 1039.88,-303.63"/>
<polygon fill="midnightblue" stroke="midnightblue" points="1039.49,-307.11 1049.92,-305.25 1040.6,-300.2 1039.49,-307.11"/>
</g>
<!-- Node9&#45;&gt;Node13 -->
<g id="edge14" class="edge">
<title>Node9&#45;&gt;Node13</title>
<path fill="none" stroke="midnightblue" d="M705.32,-285.72C730.17,-305.32 786.51,-349.77 816.99,-373.82"/>
<polygon fill="midnightblue" stroke="midnightblue" points="815.19,-376.86 825.21,-380.31 819.53,-371.36 815.19,-376.86"/>
</g>
<!-- Node11 -->
<g id="node11" class="node">
<title>Node11</title>
<g id="a_node11"><a xlink:href="exif-entry_8c.html#a2879215e3863186650d3f32eb63bbaf4" target="_top" xlink:title="Actually free the ExifEntry.">
<polygon fill="white" stroke="black" points="923,-190.5 923,-209.5 1014,-209.5 1014,-190.5 923,-190.5"/>
<text text-anchor="middle" x="968.5" y="-197.5" font-family="Helvetica,sans-Serif" font-size="10.00">exif_entry_free</text>
</a>
</g>
</g>
<!-- Node10&#45;&gt;Node11 -->
<g id="edge10" class="edge">
<title>Node10&#45;&gt;Node11</title>
<path fill="none" stroke="midnightblue" d="M887.16,-200C895.45,-200 904.13,-200 912.59,-200"/>
<polygon fill="midnightblue" stroke="midnightblue" points="912.77,-203.5 922.77,-200 912.77,-196.5 912.77,-203.5"/>
</g>
<!-- Node11&#45;&gt;Node5 -->
<g id="edge11" class="edge">
<title>Node11&#45;&gt;Node5</title>
<path fill="none" stroke="midnightblue" d="M1014.15,-194.59C1053.06,-192.34 1109.05,-195.31 1147,-224 1201.42,-265.15 1219.63,-350.77 1225.23,-389.38"/>
<polygon fill="midnightblue" stroke="midnightblue" points="1221.76,-389.89 1226.54,-399.35 1228.7,-388.97 1221.76,-389.89"/>
</g>
<!-- Node11&#45;&gt;Node12 -->
<g id="edge12" class="edge">
<title>Node11&#45;&gt;Node12</title>
<path fill="none" stroke="midnightblue" d="M980.41,-209.72C1002.33,-229.24 1051.9,-273.39 1078.99,-297.51"/>
<polygon fill="midnightblue" stroke="midnightblue" points="1076.82,-300.27 1086.61,-304.31 1081.47,-295.04 1076.82,-300.27"/>
</g>
<!-- Node12&#45;&gt;Node5 -->
<g id="edge13" class="edge">
<title>Node12&#45;&gt;Node5</title>
<path fill="none" stroke="midnightblue" d="M1112.72,-323.81C1134.87,-340.25 1179.67,-373.5 1206.28,-393.25"/>
<polygon fill="midnightblue" stroke="midnightblue" points="1204.43,-396.24 1214.55,-399.39 1208.6,-390.62 1204.43,-396.24"/>
</g>
<!-- Node14 -->
<g id="node14" class="node">
<title>Node14</title>
<g id="a_node14"><a xlink:href="exif-log_8c.html#acd0808d6d5be73f28059797c2e2e67dc" target="_top" xlink:title="Delete instance of ExifLog.">
<polygon fill="white" stroke="black" points="928.5,-380.5 928.5,-399.5 1008.5,-399.5 1008.5,-380.5 928.5,-380.5"/>
<text text-anchor="middle" x="968.5" y="-387.5" font-family="Helvetica,sans-Serif" font-size="10.00">exif_log_free</text>
</a>
</g>
</g>
<!-- Node13&#45;&gt;Node14 -->
<g id="edge15" class="edge">
<title>Node13&#45;&gt;Node14</title>
<path fill="none" stroke="midnightblue" d="M881.77,-390C893.37,-390 906.05,-390 918.02,-390"/>
<polygon fill="midnightblue" stroke="midnightblue" points="918.31,-393.5 928.31,-390 918.31,-386.5 918.31,-393.5"/>
</g>
<!-- Node14&#45;&gt;Node5 -->
<g id="edge16" class="edge">
<title>Node14&#45;&gt;Node5</title>
<path fill="none" stroke="midnightblue" d="M1008.68,-392.89C1052.38,-396.1 1123.36,-401.33 1172.58,-404.96"/>
<polygon fill="midnightblue" stroke="midnightblue" points="1172.5,-408.46 1182.73,-405.7 1173.02,-401.48 1172.5,-408.46"/>
</g>
<!-- Node14&#45;&gt;Node12 -->
<g id="edge17" class="edge">
<title>Node14&#45;&gt;Node12</title>
<path fill="none" stroke="midnightblue" d="M987.83,-380.45C995.92,-376.14 1005.5,-370.93 1014,-366 1034.56,-354.07 1057.46,-339.73 1074.06,-329.14"/>
<polygon fill="midnightblue" stroke="midnightblue" points="1076.06,-332.02 1082.59,-323.68 1072.28,-326.13 1076.06,-332.02"/>
</g>
<!-- Node16 -->
<g id="node16" class="node">
<title>Node16</title>
<g id="a_node16"><a xlink:href="exif-mnote-data_8c.html#a2f715582f27a9821560931aeaa139abd" target="_top" xlink:title=" ">
<polygon fill="white" stroke="black" points="630,-361.5 630,-380.5 754,-380.5 754,-361.5 630,-361.5"/>
<text text-anchor="middle" x="692" y="-368.5" font-family="Helvetica,sans-Serif" font-size="10.00">exif_mnote_data_free</text>
</a>
</g>
</g>
<!-- Node15&#45;&gt;Node16 -->
<g id="edge24" class="edge">
<title>Node15&#45;&gt;Node16</title>
<path fill="none" stroke="midnightblue" d="M594.09,-371C602.45,-371 611.05,-371 619.51,-371"/>
<polygon fill="midnightblue" stroke="midnightblue" points="619.75,-374.5 629.75,-371 619.75,-367.5 619.75,-374.5"/>
</g>
<!-- Node16&#45;&gt;Node5 -->
<g id="edge26" class="edge">
<title>Node16&#45;&gt;Node5</title>
<path fill="none" stroke="midnightblue" d="M711.71,-380.67C730.81,-389.96 761.61,-403.41 790,-409 925.57,-435.69 1089.38,-424.45 1172.84,-415.71"/>
<polygon fill="midnightblue" stroke="midnightblue" points="1173.29,-419.18 1182.86,-414.63 1172.54,-412.22 1173.29,-419.18"/>
</g>
<!-- Node16&#45;&gt;Node12 -->
<g id="edge27" class="edge">
<title>Node16&#45;&gt;Node12</title>
<path fill="none" stroke="midnightblue" d="M754.03,-363.43C818.66,-355.28 923.65,-341.62 1014,-328 1022.36,-326.74 1031.17,-325.34 1039.82,-323.93"/>
<polygon fill="midnightblue" stroke="midnightblue" points="1040.56,-327.35 1049.85,-322.27 1039.42,-320.44 1040.56,-327.35"/>
</g>
<!-- Node16&#45;&gt;Node13 -->
<g id="edge25" class="edge">
<title>Node16&#45;&gt;Node13</title>
<path fill="none" stroke="midnightblue" d="M754.28,-379.06C764.56,-380.41 775.14,-381.8 785.16,-383.12"/>
<polygon fill="midnightblue" stroke="midnightblue" points="785,-386.63 795.37,-384.46 785.91,-379.69 785,-386.63"/>
</g>
<!-- Node20 -->
<g id="node20" class="node">
<title>Node20</title>
<g id="a_node20"><a xlink:href="exif-mem_8c.html#ae96feb62e763070ed3d70ca66f15feaa" target="_top" xlink:title="Default memory allocation function.">
<polygon fill="white" stroke="black" points="299,-114.5 299,-133.5 420,-133.5 420,-114.5 299,-114.5"/>
<text text-anchor="middle" x="359.5" y="-121.5" font-family="Helvetica,sans-Serif" font-size="10.00">exif_mem_alloc_func</text>
</a>
</g>
</g>
<!-- Node19&#45;&gt;Node20 -->
<g id="edge34" class="edge">
<title>Node19&#45;&gt;Node20</title>
<path fill="none" stroke="midnightblue" d="M232.89,-95.59C255.26,-100.65 282.9,-106.9 306.55,-112.25"/>
<polygon fill="midnightblue" stroke="midnightblue" points="305.89,-115.69 316.41,-114.48 307.43,-108.86 305.89,-115.69"/>
</g>
<!-- Node21 -->
<g id="node21" class="node">
<title>Node21</title>
<g id="a_node21"><a xlink:href="exif-mem_8c.html#a30e654456ffed5baaf5a23f1d8817aa6" target="_top" xlink:title="Default memory free function.">
<polygon fill="white" stroke="black" points="301,-76.5 301,-95.5 418,-95.5 418,-76.5 301,-76.5"/>
<text text-anchor="middle" x="359.5" y="-83.5" font-family="Helvetica,sans-Serif" font-size="10.00">exif_mem_free_func</text>
</a>
</g>
</g>
<!-- Node19&#45;&gt;Node21 -->
<g id="edge35" class="edge">
<title>Node19&#45;&gt;Node21</title>
<path fill="none" stroke="midnightblue" d="M255.45,-86C267.02,-86 279.1,-86 290.75,-86"/>
<polygon fill="midnightblue" stroke="midnightblue" points="290.84,-89.5 300.84,-86 290.84,-82.5 290.84,-89.5"/>
</g>
<!-- Node22 -->
<g id="node22" class="node">
<title>Node22</title>
<g id="a_node22"><a xlink:href="exif-mem_8c.html#a5db78241cb6c1752209e8e28f295ea41" target="_top" xlink:title="Create a new ExifMem.">
<polygon fill="white" stroke="black" points="313.5,-38.5 313.5,-57.5 405.5,-57.5 405.5,-38.5 313.5,-38.5"/>
<text text-anchor="middle" x="359.5" y="-45.5" font-family="Helvetica,sans-Serif" font-size="10.00">exif_mem_new</text>
</a>
</g>
</g>
<!-- Node19&#45;&gt;Node22 -->
<g id="edge36" class="edge">
<title>Node19&#45;&gt;Node22</title>
<path fill="none" stroke="midnightblue" d="M232.89,-76.41C255.26,-71.35 282.9,-65.1 306.55,-59.75"/>
<polygon fill="midnightblue" stroke="midnightblue" points="307.43,-63.14 316.41,-57.52 305.89,-56.31 307.43,-63.14"/>
</g>
<!-- Node23 -->
<g id="node23" class="node">
<title>Node23</title>
<g id="a_node23"><a xlink:href="exif-mem_8c.html#ace345dfcefc8f8a8aa04a7f47ab419c9" target="_top" xlink:title="Default memory reallocation function.">
<polygon fill="white" stroke="black" points="294,-0.5 294,-19.5 425,-19.5 425,-0.5 294,-0.5"/>
<text text-anchor="middle" x="359.5" y="-7.5" font-family="Helvetica,sans-Serif" font-size="10.00">exif_mem_realloc_func</text>
</a>
</g>
</g>
<!-- Node19&#45;&gt;Node23 -->
<g id="edge37" class="edge">
<title>Node19&#45;&gt;Node23</title>
<path fill="none" stroke="midnightblue" d="M204.91,-76.34C223.94,-63.94 258.79,-42.44 291,-29 296.54,-26.69 302.46,-24.56 308.39,-22.64"/>
<polygon fill="midnightblue" stroke="midnightblue" points="309.8,-25.86 318.34,-19.58 307.75,-19.17 309.8,-25.86"/>
</g>
</g>
</svg>
