<?xml version="1.0" encoding="UTF-8" standalone="no"?>
<!DOCTYPE svg PUBLIC "-//W3C//DTD SVG 1.1//EN"
 "http://www.w3.org/Graphics/SVG/1.1/DTD/svg11.dtd">
<!-- Generated by graphviz version 2.44.1 (0)
 -->
<!-- Title: exif_mnote_data_fuji_get_value Pages: 1 -->
<svg width="684pt" height="188pt"
 viewBox="0.00 0.00 684.00 188.07" xmlns="http://www.w3.org/2000/svg" xmlns:xlink="http://www.w3.org/1999/xlink">
<g id="graph0" class="graph" transform="scale(1 1) rotate(0) translate(4 184.07)">
<title>exif_mnote_data_fuji_get_value</title>
<polygon fill="white" stroke="transparent" points="-4,4 -4,-184.07 680,-184.07 680,4 -4,4"/>
<!-- Node1 -->
<g id="node1" class="node">
<title>Node1</title>
<g id="a_node1"><a xlink:title=" ">
<polygon fill="#bfbfbf" stroke="black" points="0,-80 0,-110 120,-110 120,-80 0,-80"/>
<text text-anchor="start" x="8" y="-98" font-family="Helvetica,sans-Serif" font-size="10.00">exif_mnote_data_fuji</text>
<text text-anchor="middle" x="60" y="-87" font-family="Helvetica,sans-Serif" font-size="10.00">_get_value</text>
</a>
</g>
</g>
<!-- Node2 -->
<g id="node2" class="node">
<title>Node2</title>
<g id="a_node2"><a xlink:href="mnote-fuji-entry_8c.html#a6af1b4d45c19d2cc1c9cb76c1e0eb4fc" target="_top" xlink:title=" ">
<polygon fill="white" stroke="black" points="156,-80 156,-110 277,-110 277,-80 156,-80"/>
<text text-anchor="start" x="164" y="-98" font-family="Helvetica,sans-Serif" font-size="10.00">mnote_fuji_entry_get</text>
<text text-anchor="middle" x="216.5" y="-87" font-family="Helvetica,sans-Serif" font-size="10.00">_value</text>
</a>
</g>
</g>
<!-- Node1&#45;&gt;Node2 -->
<g id="edge1" class="edge">
<title>Node1&#45;&gt;Node2</title>
<path fill="none" stroke="midnightblue" d="M120.29,-95C128.58,-95 137.16,-95 145.62,-95"/>
<polygon fill="midnightblue" stroke="midnightblue" points="145.86,-98.5 155.86,-95 145.86,-91.5 145.86,-98.5"/>
</g>
<!-- Node3 -->
<g id="node3" class="node">
<title>Node3</title>
<g id="a_node3"><a xlink:href="exif-utils_8c.html#a4ad94614630897766dd0a5c9bc2a59bf" target="_top" xlink:title="Retrieve an ExifLong value from memory.">
<polygon fill="white" stroke="black" points="458.5,-142.5 458.5,-161.5 541.5,-161.5 541.5,-142.5 458.5,-142.5"/>
<text text-anchor="middle" x="500" y="-149.5" font-family="Helvetica,sans-Serif" font-size="10.00">exif_get_long</text>
</a>
</g>
</g>
<!-- Node2&#45;&gt;Node3 -->
<g id="edge2" class="edge">
<title>Node2&#45;&gt;Node3</title>
<path fill="none" stroke="midnightblue" d="M230.49,-110.3C247.31,-128.8 278.59,-158.98 313,-171 363.07,-188.49 425,-175.91 463.25,-164.53"/>
<polygon fill="midnightblue" stroke="midnightblue" points="464.4,-167.83 472.91,-161.52 462.32,-161.15 464.4,-167.83"/>
</g>
<!-- Node4 -->
<g id="node4" class="node">
<title>Node4</title>
<g id="a_node4"><a xlink:href="exif-utils_8c.html#a56b96f076a13da6ed926e1ef29cb2dc3" target="_top" xlink:title="Retrieve an ExifSLong value from memory.">
<polygon fill="white" stroke="black" points="588,-104.5 588,-123.5 676,-123.5 676,-104.5 588,-104.5"/>
<text text-anchor="middle" x="632" y="-111.5" font-family="Helvetica,sans-Serif" font-size="10.00">exif_get_slong</text>
</a>
</g>
</g>
<!-- Node2&#45;&gt;Node4 -->
<g id="edge8" class="edge">
<title>Node2&#45;&gt;Node4</title>
<path fill="none" stroke="midnightblue" d="M277.18,-97.74C357.88,-101.45 500.54,-108.01 577.77,-111.55"/>
<polygon fill="midnightblue" stroke="midnightblue" points="577.61,-115.05 587.76,-112.01 577.93,-108.06 577.61,-115.05"/>
</g>
<!-- Node5 -->
<g id="node5" class="node">
<title>Node5</title>
<g id="a_node5"><a xlink:href="exif-utils_8c.html#a1feb547c289aa57a4d2119338b03706c" target="_top" xlink:title="Retrieve an ExifRational value from memory.">
<polygon fill="white" stroke="black" points="313,-142.5 313,-161.5 412,-161.5 412,-142.5 313,-142.5"/>
<text text-anchor="middle" x="362.5" y="-149.5" font-family="Helvetica,sans-Serif" font-size="10.00">exif_get_rational</text>
</a>
</g>
</g>
<!-- Node2&#45;&gt;Node5 -->
<g id="edge4" class="edge">
<title>Node2&#45;&gt;Node5</title>
<path fill="none" stroke="midnightblue" d="M255.71,-110.13C278.11,-118.99 306.15,-130.09 327.74,-138.64"/>
<polygon fill="midnightblue" stroke="midnightblue" points="326.57,-141.94 337.16,-142.36 329.15,-135.43 326.57,-141.94"/>
</g>
<!-- Node6 -->
<g id="node6" class="node">
<title>Node6</title>
<g id="a_node6"><a xlink:href="exif-utils_8c.html#a4b4acf537a8c6b9405e7b53be868e4d7" target="_top" xlink:title="Retrieve an ExifShort value from memory.">
<polygon fill="white" stroke="black" points="319.5,-66.5 319.5,-85.5 405.5,-85.5 405.5,-66.5 319.5,-66.5"/>
<text text-anchor="middle" x="362.5" y="-73.5" font-family="Helvetica,sans-Serif" font-size="10.00">exif_get_short</text>
</a>
</g>
</g>
<!-- Node2&#45;&gt;Node6 -->
<g id="edge6" class="edge">
<title>Node2&#45;&gt;Node6</title>
<path fill="none" stroke="midnightblue" d="M277.32,-87.11C287.87,-85.72 298.77,-84.28 309.1,-82.91"/>
<polygon fill="midnightblue" stroke="midnightblue" points="309.74,-86.36 319.19,-81.58 308.82,-79.42 309.74,-86.36"/>
</g>
<!-- Node7 -->
<g id="node7" class="node">
<title>Node7</title>
<g id="a_node7"><a xlink:href="exif-utils_8c.html#a6baf094a71392f9cea23ad633ec13c8b" target="_top" xlink:title="Retrieve an ExifSShort value from memory.">
<polygon fill="white" stroke="black" points="454,-57.5 454,-76.5 546,-76.5 546,-57.5 454,-57.5"/>
<text text-anchor="middle" x="500" y="-64.5" font-family="Helvetica,sans-Serif" font-size="10.00">exif_get_sshort</text>
</a>
</g>
</g>
<!-- Node2&#45;&gt;Node7 -->
<g id="edge11" class="edge">
<title>Node2&#45;&gt;Node7</title>
<path fill="none" stroke="midnightblue" d="M247.15,-79.81C265.57,-71.25 290.04,-61.4 313,-57 356.4,-48.68 406.47,-52.09 443.71,-57.08"/>
<polygon fill="midnightblue" stroke="midnightblue" points="443.47,-60.58 453.86,-58.52 444.46,-53.65 443.47,-60.58"/>
</g>
<!-- Node8 -->
<g id="node8" class="node">
<title>Node8</title>
<g id="a_node8"><a xlink:href="exif-utils_8c.html#adb97c3499488d5642a82df1cb16dc2cb" target="_top" xlink:title="Retrieve an ExifSRational value from memory.">
<polygon fill="white" stroke="black" points="448,-0.5 448,-19.5 552,-19.5 552,-0.5 448,-0.5"/>
<text text-anchor="middle" x="500" y="-7.5" font-family="Helvetica,sans-Serif" font-size="10.00">exif_get_srational</text>
</a>
</g>
</g>
<!-- Node2&#45;&gt;Node8 -->
<g id="edge9" class="edge">
<title>Node2&#45;&gt;Node8</title>
<path fill="none" stroke="midnightblue" d="M243.02,-79.79C261.8,-69.2 288.26,-55.5 313,-47 353.56,-33.06 400.99,-23.73 437.81,-17.92"/>
<polygon fill="midnightblue" stroke="midnightblue" points="438.55,-21.35 447.9,-16.38 437.49,-14.43 438.55,-21.35"/>
</g>
<!-- Node3&#45;&gt;Node4 -->
<g id="edge3" class="edge">
<title>Node3&#45;&gt;Node4</title>
<path fill="none" stroke="midnightblue" d="M533.8,-142.41C550.28,-137.6 570.44,-131.7 588.13,-126.53"/>
<polygon fill="midnightblue" stroke="midnightblue" points="589.59,-129.75 598.21,-123.59 587.63,-123.03 589.59,-129.75"/>
</g>
<!-- Node5&#45;&gt;Node3 -->
<g id="edge5" class="edge">
<title>Node5&#45;&gt;Node3</title>
<path fill="none" stroke="midnightblue" d="M412.04,-152C423.78,-152 436.37,-152 448.22,-152"/>
<polygon fill="midnightblue" stroke="midnightblue" points="448.4,-155.5 458.4,-152 448.4,-148.5 448.4,-155.5"/>
</g>
<!-- Node6&#45;&gt;Node7 -->
<g id="edge7" class="edge">
<title>Node6&#45;&gt;Node7</title>
<path fill="none" stroke="midnightblue" d="M405.63,-73.2C417.65,-72.4 430.92,-71.52 443.6,-70.68"/>
<polygon fill="midnightblue" stroke="midnightblue" points="443.86,-74.17 453.6,-70.02 443.39,-67.19 443.86,-74.17"/>
</g>
<!-- Node8&#45;&gt;Node4 -->
<g id="edge10" class="edge">
<title>Node8&#45;&gt;Node4</title>
<path fill="none" stroke="midnightblue" d="M514.58,-19.8C524.94,-27.36 539.52,-38.15 552,-48 572.83,-64.44 596.08,-84.02 611.93,-97.56"/>
<polygon fill="midnightblue" stroke="midnightblue" points="610.04,-100.55 619.91,-104.4 614.6,-95.24 610.04,-100.55"/>
</g>
</g>
</svg>
