<?xml version="1.0" encoding="UTF-8" standalone="no"?>
<!DOCTYPE svg PUBLIC "-//W3C//DTD SVG 1.1//EN"
 "http://www.w3.org/Graphics/SVG/1.1/DTD/svg11.dtd">
<!-- Generated by graphviz version 7.0.1 (0)
 -->
<!-- Title: libexif/olympus/exif&#45;mnote&#45;data&#45;olympus.c Pages: 1 -->
<svg width="1107pt" height="467pt"
 viewBox="0.00 0.00 1106.50 467.00" xmlns="http://www.w3.org/2000/svg" xmlns:xlink="http://www.w3.org/1999/xlink">
<g id="graph0" class="graph" transform="scale(1 1) rotate(0) translate(4 463)">
<title>libexif/olympus/exif&#45;mnote&#45;data&#45;olympus.c</title>
<!-- Node1 -->
<g id="Node000001" class="node">
<title>Node1</title>
<g id="a_Node000001"><a xlink:title=" ">
<polygon fill="#999999" stroke="#666666" points="943,-459 812,-459 812,-429 943,-429 943,-459"/>
<text text-anchor="start" x="820" y="-447" font-family="Helvetica,sans-Serif" font-size="10.00">libexif/olympus/exif</text>
<text text-anchor="middle" x="877.5" y="-436" font-family="Helvetica,sans-Serif" font-size="10.00">&#45;mnote&#45;data&#45;olympus.c</text>
</a>
</g>
</g>
<!-- Node2 -->
<g id="Node000002" class="node">
<title>Node2</title>
<g id="a_Node000002"><a xlink:title=" ">
<polygon fill="#e0e0e0" stroke="#999999" points="474.5,-393 418.5,-393 418.5,-374 474.5,-374 474.5,-393"/>
<text text-anchor="middle" x="446.5" y="-381" font-family="Helvetica,sans-Serif" font-size="10.00">config.h</text>
</a>
</g>
</g>
<!-- Node1&#45;&gt;Node2 -->
<g id="edge1_Node000001_Node000002" class="edge">
<title>Node1&#45;&gt;Node2</title>
<g id="a_edge1_Node000001_Node000002"><a xlink:title=" ">
<path fill="none" stroke="#63b8ff" d="M811.51,-436.51C735.57,-428.61 606.91,-413.94 485.97,-393.08"/>
<polygon fill="#63b8ff" stroke="#63b8ff" points="486.61,-389.64 476.15,-391.37 485.4,-396.53 486.61,-389.64"/>
</a>
</g>
</g>
<!-- Node3 -->
<g id="Node000003" class="node">
<title>Node3</title>
<g id="a_Node000003"><a xlink:href="exif-mnote-data-olympus_8h.html" target="_top" xlink:title=" ">
<polygon fill="white" stroke="#666666" points="642,-393 493,-393 493,-374 642,-374 642,-393"/>
<text text-anchor="middle" x="567.5" y="-381" font-family="Helvetica,sans-Serif" font-size="10.00">exif&#45;mnote&#45;data&#45;olympus.h</text>
</a>
</g>
</g>
<!-- Node1&#45;&gt;Node3 -->
<g id="edge2_Node000001_Node000003" class="edge">
<title>Node1&#45;&gt;Node3</title>
<g id="a_edge2_Node000001_Node000003"><a xlink:title=" ">
<path fill="none" stroke="#63b8ff" d="M811.76,-430.59C756.78,-420.22 679.09,-405.56 626.19,-395.57"/>
<polygon fill="#63b8ff" stroke="#63b8ff" points="626.92,-392.15 616.45,-393.74 625.63,-399.03 626.92,-392.15"/>
</a>
</g>
</g>
<!-- Node8 -->
<g id="Node000008" class="node">
<title>Node8</title>
<g id="a_Node000008"><a xlink:href="exif-utils_8h.html" target="_top" xlink:title="EXIF data manipulation functions and types.">
<polygon fill="white" stroke="#666666" points="589,-90.5 488,-90.5 488,-71.5 589,-71.5 589,-90.5"/>
<text text-anchor="middle" x="538.5" y="-78.5" font-family="Helvetica,sans-Serif" font-size="10.00">libexif/exif&#45;utils.h</text>
</a>
</g>
</g>
<!-- Node1&#45;&gt;Node8 -->
<g id="edge42_Node000001_Node000008" class="edge">
<title>Node1&#45;&gt;Node8</title>
<g id="a_edge42_Node000001_Node000008"><a xlink:title=" ">
<path fill="none" stroke="#63b8ff" d="M877.5,-428.71C877.5,-406.37 877.5,-361.81 877.5,-324 877.5,-324 877.5,-324 877.5,-195.5 877.5,-166.04 880.69,-151.37 858.5,-132 821.06,-99.33 682.78,-87.94 600.75,-84.01"/>
<polygon fill="#63b8ff" stroke="#63b8ff" points="600.98,-80.52 590.83,-83.57 600.67,-87.51 600.98,-80.52"/>
</a>
</g>
</g>
<!-- Node15 -->
<g id="Node000015" class="node">
<title>Node15</title>
<g id="a_Node000015"><a xlink:href="exif-data_8h.html" target="_top" xlink:title="Defines the ExifData type and the associated functions.">
<polygon fill="white" stroke="#666666" points="618.5,-332.5 516.5,-332.5 516.5,-313.5 618.5,-313.5 618.5,-332.5"/>
<text text-anchor="middle" x="567.5" y="-320.5" font-family="Helvetica,sans-Serif" font-size="10.00">libexif/exif&#45;data.h</text>
</a>
</g>
</g>
<!-- Node1&#45;&gt;Node15 -->
<g id="edge43_Node000001_Node000015" class="edge">
<title>Node1&#45;&gt;Node15</title>
<g id="a_edge43_Node000001_Node000015"><a xlink:title=" ">
<path fill="none" stroke="#63b8ff" d="M839.8,-428.53C778.86,-405.13 659.67,-359.38 601.32,-336.98"/>
<polygon fill="#63b8ff" stroke="#63b8ff" points="602.83,-333.81 592.24,-333.5 600.32,-340.35 602.83,-333.81"/>
</a>
</g>
</g>
<!-- Node21 -->
<g id="Node000021" class="node">
<title>Node21</title>
<g id="a_Node000021"><a xlink:title=" ">
<polygon fill="#e0e0e0" stroke="#999999" points="959,-393 906,-393 906,-374 959,-374 959,-393"/>
<text text-anchor="middle" x="932.5" y="-381" font-family="Helvetica,sans-Serif" font-size="10.00">stdlib.h</text>
</a>
</g>
</g>
<!-- Node1&#45;&gt;Node21 -->
<g id="edge39_Node000001_Node000021" class="edge">
<title>Node1&#45;&gt;Node21</title>
<g id="a_edge39_Node000001_Node000021"><a xlink:title=" ">
<path fill="none" stroke="#63b8ff" d="M891.1,-428.54C898.84,-420.3 908.58,-409.94 916.67,-401.34"/>
<polygon fill="#63b8ff" stroke="#63b8ff" points="919.01,-403.96 923.31,-394.28 913.91,-399.17 919.01,-403.96"/>
</a>
</g>
</g>
<!-- Node22 -->
<g id="Node000022" class="node">
<title>Node22</title>
<g id="a_Node000022"><a xlink:title=" ">
<polygon fill="#e0e0e0" stroke="#999999" points="1030,-393 977,-393 977,-374 1030,-374 1030,-393"/>
<text text-anchor="middle" x="1003.5" y="-381" font-family="Helvetica,sans-Serif" font-size="10.00">string.h</text>
</a>
</g>
</g>
<!-- Node1&#45;&gt;Node22 -->
<g id="edge40_Node000001_Node000022" class="edge">
<title>Node1&#45;&gt;Node22</title>
<g id="a_edge40_Node000001_Node000022"><a xlink:title=" ">
<path fill="none" stroke="#63b8ff" d="M908.65,-428.54C928.69,-419.23 954.58,-407.22 974.24,-398.09"/>
<polygon fill="#63b8ff" stroke="#63b8ff" points="975.48,-401.37 983.07,-393.98 972.53,-395.02 975.48,-401.37"/>
</a>
</g>
</g>
<!-- Node23 -->
<g id="Node000023" class="node">
<title>Node23</title>
<g id="a_Node000023"><a xlink:title=" ">
<polygon fill="#e0e0e0" stroke="#999999" points="1098.5,-393 1048.5,-393 1048.5,-374 1098.5,-374 1098.5,-393"/>
<text text-anchor="middle" x="1073.5" y="-381" font-family="Helvetica,sans-Serif" font-size="10.00">stdio.h</text>
</a>
</g>
</g>
<!-- Node1&#45;&gt;Node23 -->
<g id="edge41_Node000001_Node000023" class="edge">
<title>Node1&#45;&gt;Node23</title>
<g id="a_edge41_Node000001_Node000023"><a xlink:title=" ">
<path fill="none" stroke="#63b8ff" d="M925.95,-428.54C960.38,-418.26 1005.88,-404.68 1037.2,-395.33"/>
<polygon fill="#63b8ff" stroke="#63b8ff" points="1038.02,-398.74 1046.6,-392.53 1036.02,-392.03 1038.02,-398.74"/>
</a>
</g>
</g>
<!-- Node4 -->
<g id="Node000004" class="node">
<title>Node4</title>
<g id="a_Node000004"><a xlink:href="exif-mnote-data-priv_8h.html" target="_top" xlink:title=" ">
<polygon fill="white" stroke="#666666" points="333,-338 230,-338 230,-308 333,-308 333,-338"/>
<text text-anchor="start" x="238" y="-326" font-family="Helvetica,sans-Serif" font-size="10.00">libexif/exif&#45;mnote</text>
<text text-anchor="middle" x="281.5" y="-315" font-family="Helvetica,sans-Serif" font-size="10.00">&#45;data&#45;priv.h</text>
</a>
</g>
</g>
<!-- Node3&#45;&gt;Node4 -->
<g id="edge3_Node000003_Node000004" class="edge">
<title>Node3&#45;&gt;Node4</title>
<g id="a_edge3_Node000003_Node000004"><a xlink:title=" ">
<path fill="none" stroke="#63b8ff" d="M523.75,-373.55C475.98,-363.78 399.05,-348.04 344.72,-336.93"/>
<polygon fill="#63b8ff" stroke="#63b8ff" points="345.47,-333.51 334.97,-334.94 344.06,-340.37 345.47,-333.51"/>
</a>
</g>
</g>
<!-- Node7 -->
<g id="Node000007" class="node">
<title>Node7</title>
<g id="a_Node000007"><a xlink:href="exif-mem_8h.html" target="_top" xlink:title="Define the ExifMem data type and the associated functions.">
<polygon fill="white" stroke="#666666" points="591.5,-151 485.5,-151 485.5,-132 591.5,-132 591.5,-151"/>
<text text-anchor="middle" x="538.5" y="-139" font-family="Helvetica,sans-Serif" font-size="10.00">libexif/exif&#45;mem.h</text>
</a>
</g>
</g>
<!-- Node3&#45;&gt;Node7 -->
<g id="edge38_Node000003_Node000007" class="edge">
<title>Node3&#45;&gt;Node7</title>
<g id="a_edge38_Node000003_Node000007"><a xlink:title=" ">
<path fill="none" stroke="#63b8ff" d="M587.97,-373.52C601.91,-366.17 619.28,-354.33 627.5,-338 633.49,-326.09 629.45,-321.19 627.5,-308 619.22,-252.11 619.85,-234.01 588.5,-187 581.15,-175.98 570.43,-165.95 560.8,-158.21"/>
<polygon fill="#63b8ff" stroke="#63b8ff" points="562.98,-155.47 552.9,-152.21 558.74,-161.05 562.98,-155.47"/>
</a>
</g>
</g>
<!-- Node9 -->
<g id="Node000009" class="node">
<title>Node9</title>
<g id="a_Node000009"><a xlink:href="exif-byte-order_8h.html" target="_top" xlink:title="Defines the ExifByteOrder enum and the associated functions.">
<polygon fill="white" stroke="#666666" points="276,-24.5 145,-24.5 145,-5.5 276,-5.5 276,-24.5"/>
<text text-anchor="middle" x="210.5" y="-12.5" font-family="Helvetica,sans-Serif" font-size="10.00">libexif/exif&#45;byte&#45;order.h</text>
</a>
</g>
</g>
<!-- Node3&#45;&gt;Node9 -->
<g id="edge18_Node000003_Node000009" class="edge">
<title>Node3&#45;&gt;Node9</title>
<g id="a_edge18_Node000003_Node000009"><a xlink:title=" ">
<path fill="none" stroke="#63b8ff" d="M492.89,-374.47C394.41,-363.64 232.06,-344.92 220.5,-338 183.05,-315.57 163.5,-301.66 163.5,-258 163.5,-258 163.5,-258 163.5,-140.5 163.5,-100.81 184.67,-58.32 198.59,-34.67"/>
<polygon fill="#63b8ff" stroke="#63b8ff" points="201.52,-36.58 203.76,-26.22 195.55,-32.92 201.52,-36.58"/>
</a>
</g>
</g>
<!-- Node13 -->
<g id="Node000013" class="node">
<title>Node13</title>
<g id="a_Node000013"><a xlink:href="mnote-olympus-entry_8h.html" target="_top" xlink:title=" ">
<polygon fill="white" stroke="#666666" points="135,-96 8,-96 8,-66 135,-66 135,-96"/>
<text text-anchor="start" x="16" y="-84" font-family="Helvetica,sans-Serif" font-size="10.00">libexif/olympus/mnote</text>
<text text-anchor="middle" x="71.5" y="-73" font-family="Helvetica,sans-Serif" font-size="10.00">&#45;olympus&#45;entry.h</text>
</a>
</g>
</g>
<!-- Node3&#45;&gt;Node13 -->
<g id="edge14_Node000003_Node000013" class="edge">
<title>Node3&#45;&gt;Node13</title>
<g id="a_edge14_Node000003_Node000013"><a xlink:title=" ">
<path fill="none" stroke="#63b8ff" d="M492.68,-374.74C372.92,-362.29 151.31,-339.12 149.5,-338 113.66,-315.79 98.5,-300.17 98.5,-258 98.5,-258 98.5,-258 98.5,-195.5 98.5,-164.45 88.82,-129.89 81.05,-107.16"/>
<polygon fill="#63b8ff" stroke="#63b8ff" points="84.39,-106.1 77.73,-97.86 77.8,-108.45 84.39,-106.1"/>
</a>
</g>
</g>
<!-- Node3&#45;&gt;Node15 -->
<g id="edge19_Node000003_Node000015" class="edge">
<title>Node3&#45;&gt;Node15</title>
<g id="a_edge19_Node000003_Node000015"><a xlink:title=" ">
<path fill="none" stroke="#63b8ff" d="M567.5,-373.87C567.5,-366 567.5,-354.1 567.5,-343.89"/>
<polygon fill="#63b8ff" stroke="#63b8ff" points="571,-344.18 567.5,-334.18 564,-344.18 571,-344.18"/>
</a>
</g>
</g>
<!-- Node5 -->
<g id="Node000005" class="node">
<title>Node5</title>
<g id="a_Node000005"><a xlink:href="exif-mnote-data_8h.html" target="_top" xlink:title="Handling EXIF MakerNote tags.">
<polygon fill="white" stroke="#666666" points="371,-272 268,-272 268,-242 371,-242 371,-272"/>
<text text-anchor="start" x="276" y="-260" font-family="Helvetica,sans-Serif" font-size="10.00">libexif/exif&#45;mnote</text>
<text text-anchor="middle" x="319.5" y="-249" font-family="Helvetica,sans-Serif" font-size="10.00">&#45;data.h</text>
</a>
</g>
</g>
<!-- Node4&#45;&gt;Node5 -->
<g id="edge4_Node000004_Node000005" class="edge">
<title>Node4&#45;&gt;Node5</title>
<g id="a_edge4_Node000004_Node000005"><a xlink:title=" ">
<path fill="none" stroke="#63b8ff" d="M289.93,-307.8C294.46,-300.17 300.16,-290.57 305.34,-281.84"/>
<polygon fill="#63b8ff" stroke="#63b8ff" points="308.22,-283.85 310.32,-273.47 302.2,-280.28 308.22,-283.85"/>
</a>
</g>
</g>
<!-- Node6 -->
<g id="Node000006" class="node">
<title>Node6</title>
<g id="a_Node000006"><a xlink:href="exif-log_8h.html" target="_top" xlink:title="Log message infrastructure.">
<polygon fill="white" stroke="#666666" points="385,-206 290,-206 290,-187 385,-187 385,-206"/>
<text text-anchor="middle" x="337.5" y="-194" font-family="Helvetica,sans-Serif" font-size="10.00">libexif/exif&#45;log.h</text>
</a>
</g>
</g>
<!-- Node4&#45;&gt;Node6 -->
<g id="edge13_Node000004_Node000006" class="edge">
<title>Node4&#45;&gt;Node6</title>
<g id="a_edge13_Node000004_Node000006"><a xlink:title=" ">
<path fill="none" stroke="#63b8ff" d="M270.87,-307.57C259.98,-290.86 246.25,-262.96 258.5,-242 266.81,-227.78 281.52,-217.75 296.01,-210.87"/>
<polygon fill="#63b8ff" stroke="#63b8ff" points="297.23,-214.15 305.04,-206.99 294.47,-207.72 297.23,-214.15"/>
</a>
</g>
</g>
<!-- Node4&#45;&gt;Node9 -->
<g id="edge12_Node000004_Node000009" class="edge">
<title>Node4&#45;&gt;Node9</title>
<g id="a_edge12_Node000004_Node000009"><a xlink:title=" ">
<path fill="none" stroke="#63b8ff" d="M264.53,-307.82C241.05,-286.51 201.5,-243.75 201.5,-197.5 201.5,-197.5 201.5,-197.5 201.5,-140.5 201.5,-103.58 205.49,-60.65 208.15,-36.07"/>
<polygon fill="#63b8ff" stroke="#63b8ff" points="211.62,-36.57 209.26,-26.24 204.66,-35.79 211.62,-36.57"/>
</a>
</g>
</g>
<!-- Node5&#45;&gt;Node6 -->
<g id="edge5_Node000005_Node000006" class="edge">
<title>Node5&#45;&gt;Node6</title>
<g id="a_edge5_Node000005_Node000006"><a xlink:title=" ">
<path fill="none" stroke="#63b8ff" d="M323.95,-241.54C326.22,-234.17 329.01,-225.1 331.47,-217.11"/>
<polygon fill="#63b8ff" stroke="#63b8ff" points="334.79,-218.21 334.39,-207.62 328.1,-216.15 334.79,-218.21"/>
</a>
</g>
</g>
<!-- Node6&#45;&gt;Node7 -->
<g id="edge6_Node000006_Node000007" class="edge">
<title>Node6&#45;&gt;Node7</title>
<g id="a_edge6_Node000006_Node000007"><a xlink:title=" ">
<path fill="none" stroke="#63b8ff" d="M371.6,-186.51C405.19,-177.65 456.71,-164.07 493.62,-154.33"/>
<polygon fill="#63b8ff" stroke="#63b8ff" points="494.33,-157.77 503.11,-151.83 492.55,-151 494.33,-157.77"/>
</a>
</g>
</g>
<!-- Node12 -->
<g id="Node000012" class="node">
<title>Node12</title>
<g id="a_Node000012"><a xlink:title=" ">
<polygon fill="#e0e0e0" stroke="#999999" points="365.5,-151 309.5,-151 309.5,-132 365.5,-132 365.5,-151"/>
<text text-anchor="middle" x="337.5" y="-139" font-family="Helvetica,sans-Serif" font-size="10.00">stdarg.h</text>
</a>
</g>
</g>
<!-- Node6&#45;&gt;Node12 -->
<g id="edge11_Node000006_Node000012" class="edge">
<title>Node6&#45;&gt;Node12</title>
<g id="a_edge11_Node000006_Node000012"><a xlink:title=" ">
<path fill="none" stroke="#63b8ff" d="M337.5,-186.75C337.5,-180.27 337.5,-171.16 337.5,-162.9"/>
<polygon fill="#63b8ff" stroke="#63b8ff" points="341,-162.96 337.5,-152.96 334,-162.96 341,-162.96"/>
</a>
</g>
</g>
<!-- Node7&#45;&gt;Node8 -->
<g id="edge7_Node000007_Node000008" class="edge">
<title>Node7&#45;&gt;Node8</title>
<g id="a_edge7_Node000007_Node000008"><a xlink:title=" ">
<path fill="none" stroke="#63b8ff" d="M538.5,-131.87C538.5,-124 538.5,-112.1 538.5,-101.89"/>
<polygon fill="#63b8ff" stroke="#63b8ff" points="542,-102.18 538.5,-92.18 535,-102.18 542,-102.18"/>
</a>
</g>
</g>
<!-- Node8&#45;&gt;Node9 -->
<g id="edge8_Node000008_Node000009" class="edge">
<title>Node8&#45;&gt;Node9</title>
<g id="a_edge8_Node000008_Node000009"><a xlink:title=" ">
<path fill="none" stroke="#63b8ff" d="M492.55,-71.03C433.59,-59.53 331.32,-39.57 267.47,-27.12"/>
<polygon fill="#63b8ff" stroke="#63b8ff" points="268.38,-23.73 257.89,-25.25 267.04,-30.6 268.38,-23.73"/>
</a>
</g>
</g>
<!-- Node10 -->
<g id="Node000010" class="node">
<title>Node10</title>
<g id="a_Node000010"><a xlink:href="exif-format_8h.html" target="_top" xlink:title="Handling native EXIF data types.">
<polygon fill="white" stroke="#666666" points="493,-24.5 380,-24.5 380,-5.5 493,-5.5 493,-24.5"/>
<text text-anchor="middle" x="436.5" y="-12.5" font-family="Helvetica,sans-Serif" font-size="10.00">libexif/exif&#45;format.h</text>
</a>
</g>
</g>
<!-- Node8&#45;&gt;Node10 -->
<g id="edge9_Node000008_Node000010" class="edge">
<title>Node8&#45;&gt;Node10</title>
<g id="a_edge9_Node000008_Node000010"><a xlink:title=" ">
<path fill="none" stroke="#63b8ff" d="M524.32,-71.1C507.72,-60.69 479.99,-43.29 460.13,-30.83"/>
<polygon fill="#63b8ff" stroke="#63b8ff" points="462.18,-27.98 451.84,-25.63 458.45,-33.91 462.18,-27.98"/>
</a>
</g>
</g>
<!-- Node11 -->
<g id="Node000011" class="node">
<title>Node11</title>
<g id="a_Node000011"><a xlink:title=" ">
<polygon fill="#e0e0e0" stroke="#999999" points="603.5,-24.5 511.5,-24.5 511.5,-5.5 603.5,-5.5 603.5,-24.5"/>
<text text-anchor="middle" x="557.5" y="-12.5" font-family="Helvetica,sans-Serif" font-size="10.00">libexif/_stdint.h</text>
</a>
</g>
</g>
<!-- Node8&#45;&gt;Node11 -->
<g id="edge10_Node000008_Node000011" class="edge">
<title>Node8&#45;&gt;Node11</title>
<g id="a_edge10_Node000008_Node000011"><a xlink:title=" ">
<path fill="none" stroke="#63b8ff" d="M541.14,-71.1C543.84,-62.03 548.11,-47.64 551.61,-35.85"/>
<polygon fill="#63b8ff" stroke="#63b8ff" points="554.96,-36.86 554.45,-26.27 548.25,-34.86 554.96,-36.86"/>
</a>
</g>
</g>
<!-- Node13&#45;&gt;Node9 -->
<g id="edge16_Node000013_Node000009" class="edge">
<title>Node13&#45;&gt;Node9</title>
<g id="a_edge16_Node000013_Node000009"><a xlink:title=" ">
<path fill="none" stroke="#63b8ff" d="M102.69,-65.64C126.05,-54.88 157.8,-40.27 180.79,-29.68"/>
<polygon fill="#63b8ff" stroke="#63b8ff" points="181.99,-32.98 189.61,-25.62 179.06,-26.62 181.99,-32.98"/>
</a>
</g>
</g>
<!-- Node13&#45;&gt;Node10 -->
<g id="edge15_Node000013_Node000010" class="edge">
<title>Node13&#45;&gt;Node10</title>
<g id="a_edge15_Node000013_Node000010"><a xlink:title=" ">
<path fill="none" stroke="#63b8ff" d="M135.5,-68.78C202.66,-57 307.54,-38.61 374.1,-26.94"/>
<polygon fill="#63b8ff" stroke="#63b8ff" points="374.52,-30.42 383.76,-25.25 373.31,-23.53 374.52,-30.42"/>
</a>
</g>
</g>
<!-- Node14 -->
<g id="Node000014" class="node">
<title>Node14</title>
<g id="a_Node000014"><a xlink:href="mnote-olympus-tag_8h.html" target="_top" xlink:title=" ">
<polygon fill="white" stroke="#666666" points="127,-30 0,-30 0,0 127,0 127,-30"/>
<text text-anchor="start" x="8" y="-18" font-family="Helvetica,sans-Serif" font-size="10.00">libexif/olympus/mnote</text>
<text text-anchor="middle" x="63.5" y="-7" font-family="Helvetica,sans-Serif" font-size="10.00">&#45;olympus&#45;tag.h</text>
</a>
</g>
</g>
<!-- Node13&#45;&gt;Node14 -->
<g id="edge17_Node000013_Node000014" class="edge">
<title>Node13&#45;&gt;Node14</title>
<g id="a_edge17_Node000013_Node000014"><a xlink:title=" ">
<path fill="none" stroke="#63b8ff" d="M69.72,-65.8C68.83,-58.67 67.73,-49.82 66.7,-41.56"/>
<polygon fill="#63b8ff" stroke="#63b8ff" points="70.17,-41.15 65.46,-31.67 63.23,-42.02 70.17,-41.15"/>
</a>
</g>
</g>
<!-- Node15&#45;&gt;Node5 -->
<g id="edge36_Node000015_Node000005" class="edge">
<title>Node15&#45;&gt;Node5</title>
<g id="a_edge36_Node000015_Node000005"><a xlink:title=" ">
<path fill="none" stroke="#63b8ff" d="M532.76,-313.03C493.88,-303 430.11,-286.54 382.41,-274.23"/>
<polygon fill="#63b8ff" stroke="#63b8ff" points="383.29,-270.85 372.73,-271.74 381.54,-277.63 383.29,-270.85"/>
</a>
</g>
</g>
<!-- Node15&#45;&gt;Node6 -->
<g id="edge23_Node000015_Node000006" class="edge">
<title>Node15&#45;&gt;Node6</title>
<g id="a_edge23_Node000015_Node000006"><a xlink:title=" ">
<path fill="none" stroke="#63b8ff" d="M529.42,-313.03C499.37,-304.97 457.07,-291.4 423.5,-272 396.08,-256.15 369.28,-230.94 353.07,-214.3"/>
<polygon fill="#63b8ff" stroke="#63b8ff" points="355.7,-211.98 346.27,-207.15 350.63,-216.81 355.7,-211.98"/>
</a>
</g>
</g>
<!-- Node15&#45;&gt;Node7 -->
<g id="edge37_Node000015_Node000007" class="edge">
<title>Node15&#45;&gt;Node7</title>
<g id="a_edge37_Node000015_Node000007"><a xlink:title=" ">
<path fill="none" stroke="#63b8ff" d="M573.45,-313.27C579.61,-303.65 588.84,-287.49 592.5,-272 595.56,-259.02 595.22,-255.05 592.5,-242 586.03,-210.99 566.31,-179.59 552.58,-160.58"/>
<polygon fill="#63b8ff" stroke="#63b8ff" points="555.39,-158.5 546.6,-152.59 549.79,-162.69 555.39,-158.5"/>
</a>
</g>
</g>
<!-- Node15&#45;&gt;Node9 -->
<g id="edge20_Node000015_Node000009" class="edge">
<title>Node15&#45;&gt;Node9</title>
<g id="a_edge20_Node000015_Node000009"><a xlink:title=" ">
<path fill="none" stroke="#63b8ff" d="M534.35,-313.02C510.53,-305.25 478.82,-292.06 456.5,-272 402.87,-223.8 423.26,-185.13 374.5,-132 333.47,-87.29 272.45,-49.77 237.57,-30.32"/>
<polygon fill="#63b8ff" stroke="#63b8ff" points="239.42,-27.34 228.96,-25.6 236.05,-33.48 239.42,-27.34"/>
</a>
</g>
</g>
<!-- Node16 -->
<g id="Node000016" class="node">
<title>Node16</title>
<g id="a_Node000016"><a xlink:href="exif-data-type_8h.html" target="_top" xlink:title=" ">
<polygon fill="white" stroke="#666666" points="737.5,-151 609.5,-151 609.5,-132 737.5,-132 737.5,-151"/>
<text text-anchor="middle" x="673.5" y="-139" font-family="Helvetica,sans-Serif" font-size="10.00">libexif/exif&#45;data&#45;type.h</text>
</a>
</g>
</g>
<!-- Node15&#45;&gt;Node16 -->
<g id="edge21_Node000015_Node000016" class="edge">
<title>Node15&#45;&gt;Node16</title>
<g id="a_edge21_Node000015_Node000016"><a xlink:title=" ">
<path fill="none" stroke="#63b8ff" d="M575.46,-313.2C583.98,-303.53 597.62,-287.32 607.5,-272 631.59,-234.67 653.76,-187.45 665.25,-161.59"/>
<polygon fill="#63b8ff" stroke="#63b8ff" points="668.34,-163.27 669.15,-152.71 661.93,-160.46 668.34,-163.27"/>
</a>
</g>
</g>
<!-- Node17 -->
<g id="Node000017" class="node">
<title>Node17</title>
<g id="a_Node000017"><a xlink:href="exif-ifd_8h.html" target="_top" xlink:title=" ">
<polygon fill="white" stroke="#666666" points="849,-151 756,-151 756,-132 849,-132 849,-151"/>
<text text-anchor="middle" x="802.5" y="-139" font-family="Helvetica,sans-Serif" font-size="10.00">libexif/exif&#45;ifd.h</text>
</a>
</g>
</g>
<!-- Node15&#45;&gt;Node17 -->
<g id="edge22_Node000015_Node000017" class="edge">
<title>Node15&#45;&gt;Node17</title>
<g id="a_edge22_Node000015_Node000017"><a xlink:title=" ">
<path fill="none" stroke="#63b8ff" d="M618.93,-315.56C679.81,-304.81 778.26,-276.87 820.5,-206 828.83,-192.02 822.38,-174.01 814.98,-160.74"/>
<polygon fill="#63b8ff" stroke="#63b8ff" points="818.16,-159.22 809.91,-152.57 812.21,-162.91 818.16,-159.22"/>
</a>
</g>
</g>
<!-- Node18 -->
<g id="Node000018" class="node">
<title>Node18</title>
<g id="a_Node000018"><a xlink:href="exif-tag_8h.html" target="_top" xlink:title="Handling EXIF tags.">
<polygon fill="white" stroke="#666666" points="811.5,-206 715.5,-206 715.5,-187 811.5,-187 811.5,-206"/>
<text text-anchor="middle" x="763.5" y="-194" font-family="Helvetica,sans-Serif" font-size="10.00">libexif/exif&#45;tag.h</text>
</a>
</g>
</g>
<!-- Node15&#45;&gt;Node18 -->
<g id="edge24_Node000015_Node000018" class="edge">
<title>Node15&#45;&gt;Node18</title>
<g id="a_edge24_Node000015_Node000018"><a xlink:title=" ">
<path fill="none" stroke="#63b8ff" d="M586.76,-313.1C606.51,-303.71 637.87,-288.08 663.5,-272 692.68,-253.69 724.22,-229.36 743.91,-213.57"/>
<polygon fill="#63b8ff" stroke="#63b8ff" points="746.06,-216.33 751.63,-207.32 741.66,-210.89 746.06,-216.33"/>
</a>
</g>
</g>
<!-- Node19 -->
<g id="Node000019" class="node">
<title>Node19</title>
<g id="a_Node000019"><a xlink:href="exif-content_8h.html" target="_top" xlink:title="Handling EXIF IFDs.">
<polygon fill="white" stroke="#666666" points="583,-266.5 466,-266.5 466,-247.5 583,-247.5 583,-266.5"/>
<text text-anchor="middle" x="524.5" y="-254.5" font-family="Helvetica,sans-Serif" font-size="10.00">libexif/exif&#45;content.h</text>
</a>
</g>
</g>
<!-- Node15&#45;&gt;Node19 -->
<g id="edge27_Node000015_Node000019" class="edge">
<title>Node15&#45;&gt;Node19</title>
<g id="a_edge27_Node000015_Node000019"><a xlink:title=" ">
<path fill="none" stroke="#63b8ff" d="M556.68,-313.1C548.44,-303.74 537.9,-288.73 530.88,-276.74"/>
<polygon fill="#63b8ff" stroke="#63b8ff" points="534.1,-275.34 526.31,-268.16 527.93,-278.63 534.1,-275.34"/>
</a>
</g>
</g>
<!-- Node18&#45;&gt;Node16 -->
<g id="edge26_Node000018_Node000016" class="edge">
<title>Node18&#45;&gt;Node16</title>
<g id="a_edge26_Node000018_Node000016"><a xlink:title=" ">
<path fill="none" stroke="#63b8ff" d="M748.23,-186.51C734.57,-178.47 714.3,-166.53 698.32,-157.11"/>
<polygon fill="#63b8ff" stroke="#63b8ff" points="700.24,-154.18 689.85,-152.13 696.69,-160.22 700.24,-154.18"/>
</a>
</g>
</g>
<!-- Node18&#45;&gt;Node17 -->
<g id="edge25_Node000018_Node000017" class="edge">
<title>Node18&#45;&gt;Node17</title>
<g id="a_edge25_Node000018_Node000017"><a xlink:title=" ">
<path fill="none" stroke="#63b8ff" d="M769.94,-186.75C775.16,-179.66 782.69,-169.42 789.19,-160.59"/>
<polygon fill="#63b8ff" stroke="#63b8ff" points="791.92,-162.79 795.02,-152.66 786.28,-158.64 791.92,-162.79"/>
</a>
</g>
</g>
<!-- Node19&#45;&gt;Node6 -->
<g id="edge34_Node000019_Node000006" class="edge">
<title>Node19&#45;&gt;Node6</title>
<g id="a_edge34_Node000019_Node000006"><a xlink:title=" ">
<path fill="none" stroke="#63b8ff" d="M496.1,-247.12C464.38,-237.19 412.83,-221.07 377.15,-209.9"/>
<polygon fill="#63b8ff" stroke="#63b8ff" points="378.2,-206.57 367.61,-206.92 376.11,-213.25 378.2,-206.57"/>
</a>
</g>
</g>
<!-- Node19&#45;&gt;Node7 -->
<g id="edge35_Node000019_Node000007" class="edge">
<title>Node19&#45;&gt;Node7</title>
<g id="a_edge35_Node000019_Node000007"><a xlink:title=" ">
<path fill="none" stroke="#63b8ff" d="M531.89,-247.12C539.27,-237.63 550.12,-221.8 554.5,-206 558.64,-191.07 553.83,-174.04 548.44,-161.38"/>
<polygon fill="#63b8ff" stroke="#63b8ff" points="551.68,-160.04 544.21,-152.53 545.36,-163.06 551.68,-160.04"/>
</a>
</g>
</g>
<!-- Node19&#45;&gt;Node15 -->
<g id="edge33_Node000019_Node000015" class="edge">
<title>Node19&#45;&gt;Node15</title>
<g id="a_edge33_Node000019_Node000015"><a xlink:title=" ">
<path fill="none" stroke="#63b8ff" d="M535.26,-266.82C543.48,-276.15 554.03,-291.16 561.06,-303.16"/>
<polygon fill="#63b8ff" stroke="#63b8ff" points="557.85,-304.59 565.65,-311.77 564.03,-301.3 557.85,-304.59"/>
</a>
</g>
</g>
<!-- Node19&#45;&gt;Node18 -->
<g id="edge28_Node000019_Node000018" class="edge">
<title>Node19&#45;&gt;Node18</title>
<g id="a_edge28_Node000019_Node000018"><a xlink:title=" ">
<path fill="none" stroke="#63b8ff" d="M561.06,-247.05C602.53,-236.9 670.29,-220.31 715.87,-209.16"/>
<polygon fill="#63b8ff" stroke="#63b8ff" points="716.59,-212.58 725.47,-206.81 714.93,-205.79 716.59,-212.58"/>
</a>
</g>
</g>
<!-- Node20 -->
<g id="Node000020" class="node">
<title>Node20</title>
<g id="a_Node000020"><a xlink:href="exif-entry_8h.html" target="_top" xlink:title="Handling EXIF entries.">
<polygon fill="white" stroke="#666666" points="545.5,-206 441.5,-206 441.5,-187 545.5,-187 545.5,-206"/>
<text text-anchor="middle" x="493.5" y="-194" font-family="Helvetica,sans-Serif" font-size="10.00">libexif/exif&#45;entry.h</text>
</a>
</g>
</g>
<!-- Node19&#45;&gt;Node20 -->
<g id="edge29_Node000019_Node000020" class="edge">
<title>Node19&#45;&gt;Node20</title>
<g id="a_edge29_Node000019_Node000020"><a xlink:title=" ">
<path fill="none" stroke="#63b8ff" d="M514.97,-247.37C508.98,-239.33 502,-227.07 497.3,-216.72"/>
<polygon fill="#63b8ff" stroke="#63b8ff" points="500.62,-215.59 493.69,-207.57 494.11,-218.16 500.62,-215.59"/>
</a>
</g>
</g>
<!-- Node20&#45;&gt;Node7 -->
<g id="edge32_Node000020_Node000007" class="edge">
<title>Node20&#45;&gt;Node7</title>
<g id="a_edge32_Node000020_Node000007"><a xlink:title=" ">
<path fill="none" stroke="#63b8ff" d="M500.93,-186.75C507.08,-179.5 516.01,-168.98 523.63,-160.02"/>
<polygon fill="#63b8ff" stroke="#63b8ff" points="526.12,-162.48 529.93,-152.6 520.79,-157.95 526.12,-162.48"/>
</a>
</g>
</g>
<!-- Node20&#45;&gt;Node10 -->
<g id="edge31_Node000020_Node000010" class="edge">
<title>Node20&#45;&gt;Node10</title>
<g id="a_edge31_Node000020_Node000010"><a xlink:title=" ">
<path fill="none" stroke="#63b8ff" d="M489.91,-186.71C486.32,-177.78 480.74,-163.53 476.5,-151 462.76,-110.42 449.09,-62.14 441.83,-35.71"/>
<polygon fill="#63b8ff" stroke="#63b8ff" points="445.29,-35.11 439.29,-26.38 438.54,-36.95 445.29,-35.11"/>
</a>
</g>
</g>
<!-- Node20&#45;&gt;Node19 -->
<g id="edge30_Node000020_Node000019" class="edge">
<title>Node20&#45;&gt;Node19</title>
<g id="a_edge30_Node000020_Node000019"><a xlink:title=" ">
<path fill="none" stroke="#63b8ff" d="M503.06,-206.17C509.05,-214.22 516.03,-226.48 520.72,-236.83"/>
<polygon fill="#63b8ff" stroke="#63b8ff" points="517.4,-237.94 524.33,-245.96 523.91,-235.37 517.4,-237.94"/>
</a>
</g>
</g>
</g>
</svg>
