<?xml version="1.0" encoding="UTF-8" standalone="no"?>
<!DOCTYPE svg PUBLIC "-//W3C//DTD SVG 1.1//EN"
 "http://www.w3.org/Graphics/SVG/1.1/DTD/svg11.dtd">
<!-- Generated by graphviz version 7.0.1 (0)
 -->
<!-- Title: exif_data_free Pages: 1 -->
<svg width="941pt" height="271pt"
 viewBox="0.00 0.00 941.00 271.28" xmlns="http://www.w3.org/2000/svg" xmlns:xlink="http://www.w3.org/1999/xlink">
<g id="graph0" class="graph" transform="scale(1 1) rotate(0) translate(4 267.28)">
<title>exif_data_free</title>
<!-- Node1 -->
<g id="Node000001" class="node">
<title>Node1</title>
<g id="a_Node000001"><a xlink:title=" ">
<polygon fill="#999999" stroke="#666666" points="87,-120.78 0,-120.78 0,-101.78 87,-101.78 87,-120.78"/>
<text text-anchor="middle" x="43.5" y="-108.78" font-family="Helvetica,sans-Serif" font-size="10.00">exif_data_free</text>
</a>
</g>
</g>
<!-- Node2 -->
<g id="Node000002" class="node">
<title>Node2</title>
<g id="a_Node000002"><a xlink:href="exif-content_8c.html#a5e72c0f223d5d1aa33b34f388a5c9d37" target="_top" xlink:title="Decrease reference counter for ExifContent.">
<polygon fill="white" stroke="#666666" points="242,-158.78 134,-158.78 134,-139.78 242,-139.78 242,-158.78"/>
<text text-anchor="middle" x="188" y="-146.78" font-family="Helvetica,sans-Serif" font-size="10.00">exif_content_unref</text>
</a>
</g>
</g>
<!-- Node1&#45;&gt;Node2 -->
<g id="edge1_Node000001_Node000002" class="edge">
<title>Node1&#45;&gt;Node2</title>
<g id="a_edge1_Node000001_Node000002"><a xlink:title=" ">
<path fill="none" stroke="#63b8ff" d="M81.94,-121.26C99.37,-125.91 120.31,-131.49 138.89,-136.45"/>
<polygon fill="#63b8ff" stroke="#63b8ff" points="137.78,-139.78 148.35,-138.97 139.59,-133.01 137.78,-139.78"/>
</a>
</g>
</g>
<!-- Node6 -->
<g id="Node000006" class="node">
<title>Node6</title>
<g id="a_Node000006"><a xlink:href="exif-mem_8c.html#a43190b81b4b4bdb4ffb89bfb612051b1" target="_top" xlink:title=" ">
<polygon fill="white" stroke="#666666" points="933,-157.78 842,-157.78 842,-138.78 933,-138.78 933,-157.78"/>
<text text-anchor="middle" x="887.5" y="-145.78" font-family="Helvetica,sans-Serif" font-size="10.00">exif_mem_free</text>
</a>
</g>
</g>
<!-- Node1&#45;&gt;Node6 -->
<g id="edge15_Node000001_Node000006" class="edge">
<title>Node1&#45;&gt;Node6</title>
<g id="a_edge15_Node000001_Node000006"><a xlink:title=" ">
<path fill="none" stroke="#63b8ff" d="M55.17,-121.25C92.52,-155.07 222.04,-263.28 350,-263.28 350,-263.28 350,-263.28 628.5,-263.28 710.96,-263.28 732.55,-246.76 806,-209.28 829.24,-197.42 852.66,-178.74 868.2,-165.17"/>
<polygon fill="#63b8ff" stroke="#63b8ff" points="870.12,-168.15 875.25,-158.87 865.46,-162.93 870.12,-168.15"/>
</a>
</g>
</g>
<!-- Node7 -->
<g id="Node000007" class="node">
<title>Node7</title>
<g id="a_Node000007"><a xlink:href="exif-mem_8c.html#a66744e0987af08c443df247ce55f7d87" target="_top" xlink:title="Unrefcount an ExifMem.">
<polygon fill="white" stroke="#666666" points="806,-129.78 709,-129.78 709,-110.78 806,-110.78 806,-129.78"/>
<text text-anchor="middle" x="757.5" y="-117.78" font-family="Helvetica,sans-Serif" font-size="10.00">exif_mem_unref</text>
</a>
</g>
</g>
<!-- Node1&#45;&gt;Node7 -->
<g id="edge16_Node000001_Node000007" class="edge">
<title>Node1&#45;&gt;Node7</title>
<g id="a_edge16_Node000001_Node000007"><a xlink:title=" ">
<path fill="none" stroke="#63b8ff" d="M87.25,-111.28C146.33,-111.28 256.25,-111.28 350,-111.28 350,-111.28 350,-111.28 498.5,-111.28 566.83,-111.28 645.29,-114.47 697.57,-117.05"/>
<polygon fill="#63b8ff" stroke="#63b8ff" points="697.29,-120.54 707.45,-117.55 697.64,-113.55 697.29,-120.54"/>
</a>
</g>
</g>
<!-- Node8 -->
<g id="Node000008" class="node">
<title>Node8</title>
<g id="a_Node000008"><a xlink:href="exif-log_8c.html#a7a9b738a7429197d68c80ffedac7d8fb" target="_top" xlink:title=" ">
<polygon fill="white" stroke="#666666" points="540.5,-44.78 454.5,-44.78 454.5,-25.78 540.5,-25.78 540.5,-44.78"/>
<text text-anchor="middle" x="497.5" y="-32.78" font-family="Helvetica,sans-Serif" font-size="10.00">exif_log_unref</text>
</a>
</g>
</g>
<!-- Node1&#45;&gt;Node8 -->
<g id="edge14_Node000001_Node000008" class="edge">
<title>Node1&#45;&gt;Node8</title>
<g id="a_edge14_Node000001_Node000008"><a xlink:title=" ">
<path fill="none" stroke="#63b8ff" d="M54.05,-101.41C67.82,-87.92 94.73,-64.26 123,-54.28 231.38,-16.01 368.48,-21.58 442.74,-28.66"/>
<polygon fill="#63b8ff" stroke="#63b8ff" points="442.3,-32.14 452.6,-29.65 443,-25.17 442.3,-32.14"/>
</a>
</g>
</g>
<!-- Node10 -->
<g id="Node000010" class="node">
<title>Node10</title>
<g id="a_Node000010"><a xlink:href="exif-mnote-data_8c.html#af910e5c862e5aba351b84b2142d98192" target="_top" xlink:title=" ">
<polygon fill="white" stroke="#666666" points="253,-82.78 123,-82.78 123,-63.78 253,-63.78 253,-82.78"/>
<text text-anchor="middle" x="188" y="-70.78" font-family="Helvetica,sans-Serif" font-size="10.00">exif_mnote_data_unref</text>
</a>
</g>
</g>
<!-- Node1&#45;&gt;Node10 -->
<g id="edge17_Node000001_Node000010" class="edge">
<title>Node1&#45;&gt;Node10</title>
<g id="a_edge17_Node000001_Node000010"><a xlink:title=" ">
<path fill="none" stroke="#63b8ff" d="M81.94,-101.29C99.37,-96.65 120.31,-91.06 138.89,-86.11"/>
<polygon fill="#63b8ff" stroke="#63b8ff" points="139.59,-89.54 148.35,-83.59 137.78,-82.78 139.59,-89.54"/>
</a>
</g>
</g>
<!-- Node3 -->
<g id="Node000003" class="node">
<title>Node3</title>
<g id="a_Node000003"><a xlink:href="exif-content_8c.html#af77d27f5949aa4249fd54a5146c28289" target="_top" xlink:title="Actually free the ExifContent.">
<polygon fill="white" stroke="#666666" points="402,-158.78 300,-158.78 300,-139.78 402,-139.78 402,-158.78"/>
<text text-anchor="middle" x="351" y="-146.78" font-family="Helvetica,sans-Serif" font-size="10.00">exif_content_free</text>
</a>
</g>
</g>
<!-- Node2&#45;&gt;Node3 -->
<g id="edge2_Node000002_Node000003" class="edge">
<title>Node2&#45;&gt;Node3</title>
<g id="a_edge2_Node000002_Node000003"><a xlink:title=" ">
<path fill="none" stroke="#63b8ff" d="M242.16,-149.28C256.91,-149.28 273.04,-149.28 288.23,-149.28"/>
<polygon fill="#63b8ff" stroke="#63b8ff" points="288.11,-152.78 298.11,-149.28 288.11,-145.78 288.11,-152.78"/>
</a>
</g>
</g>
<!-- Node4 -->
<g id="Node000004" class="node">
<title>Node4</title>
<g id="a_Node000004"><a xlink:href="exif-entry_8c.html#a82d5d923121488d847d341727cdd2ef4" target="_top" xlink:title="Decrease reference counter for ExifEntry.">
<polygon fill="white" stroke="#666666" points="546,-196.78 449,-196.78 449,-177.78 546,-177.78 546,-196.78"/>
<text text-anchor="middle" x="497.5" y="-184.78" font-family="Helvetica,sans-Serif" font-size="10.00">exif_entry_unref</text>
</a>
</g>
</g>
<!-- Node3&#45;&gt;Node4 -->
<g id="edge3_Node000003_Node000004" class="edge">
<title>Node3&#45;&gt;Node4</title>
<g id="a_edge3_Node000003_Node000004"><a xlink:title=" ">
<path fill="none" stroke="#63b8ff" d="M389.97,-159.26C407.57,-163.89 428.7,-169.45 447.49,-174.39"/>
<polygon fill="#63b8ff" stroke="#63b8ff" points="446.51,-177.75 457.07,-176.91 448.29,-170.98 446.51,-177.75"/>
</a>
</g>
</g>
<!-- Node3&#45;&gt;Node6 -->
<g id="edge12_Node000003_Node000006" class="edge">
<title>Node3&#45;&gt;Node6</title>
<g id="a_edge12_Node000003_Node000006"><a xlink:title=" ">
<path fill="none" stroke="#63b8ff" d="M363.89,-159.16C381.28,-172.89 415.26,-197.1 449,-206.28 602.48,-248.03 653.47,-226.37 806,-181.28 822.78,-176.32 840.87,-169.09 855.63,-162.66"/>
<polygon fill="#63b8ff" stroke="#63b8ff" points="856.64,-166.04 864.35,-158.78 853.79,-159.65 856.64,-166.04"/>
</a>
</g>
</g>
<!-- Node3&#45;&gt;Node7 -->
<g id="edge13_Node000003_Node000007" class="edge">
<title>Node3&#45;&gt;Node7</title>
<g id="a_edge13_Node000003_Node000007"><a xlink:title=" ">
<path fill="none" stroke="#63b8ff" d="M402.41,-145.66C477.3,-140.3 617.64,-130.23 697.31,-124.52"/>
<polygon fill="#63b8ff" stroke="#63b8ff" points="697.37,-128.03 707.1,-123.82 696.87,-121.04 697.37,-128.03"/>
</a>
</g>
</g>
<!-- Node3&#45;&gt;Node8 -->
<g id="edge8_Node000003_Node000008" class="edge">
<title>Node3&#45;&gt;Node8</title>
<g id="a_edge8_Node000003_Node000008"><a xlink:title=" ">
<path fill="none" stroke="#63b8ff" d="M364.57,-139.36C389.23,-119.91 444.21,-76.54 474.84,-52.37"/>
<polygon fill="#63b8ff" stroke="#63b8ff" points="476.98,-55.13 482.67,-46.19 472.65,-49.64 476.98,-55.13"/>
</a>
</g>
</g>
<!-- Node5 -->
<g id="Node000005" class="node">
<title>Node5</title>
<g id="a_Node000005"><a xlink:href="exif-entry_8c.html#a2879215e3863186650d3f32eb63bbaf4" target="_top" xlink:title="Actually free the ExifEntry.">
<polygon fill="white" stroke="#666666" points="673,-196.78 582,-196.78 582,-177.78 673,-177.78 673,-196.78"/>
<text text-anchor="middle" x="627.5" y="-184.78" font-family="Helvetica,sans-Serif" font-size="10.00">exif_entry_free</text>
</a>
</g>
</g>
<!-- Node4&#45;&gt;Node5 -->
<g id="edge4_Node000004_Node000005" class="edge">
<title>Node4&#45;&gt;Node5</title>
<g id="a_edge4_Node000004_Node000005"><a xlink:title=" ">
<path fill="none" stroke="#63b8ff" d="M546.16,-187.28C554.09,-187.28 562.37,-187.28 570.47,-187.28"/>
<polygon fill="#63b8ff" stroke="#63b8ff" points="570.25,-190.78 580.25,-187.28 570.25,-183.78 570.25,-190.78"/>
</a>
</g>
</g>
<!-- Node5&#45;&gt;Node6 -->
<g id="edge5_Node000005_Node000006" class="edge">
<title>Node5&#45;&gt;Node6</title>
<g id="a_edge5_Node000005_Node000006"><a xlink:title=" ">
<path fill="none" stroke="#63b8ff" d="M673.44,-180.49C717.05,-173.89 783.37,-163.87 830.42,-156.76"/>
<polygon fill="#63b8ff" stroke="#63b8ff" points="830.78,-160.24 840.15,-155.29 829.74,-153.32 830.78,-160.24"/>
</a>
</g>
</g>
<!-- Node5&#45;&gt;Node7 -->
<g id="edge6_Node000005_Node000007" class="edge">
<title>Node5&#45;&gt;Node7</title>
<g id="a_edge6_Node000005_Node000007"><a xlink:title=" ">
<path fill="none" stroke="#63b8ff" d="M647.39,-177.39C668.47,-166.36 702.84,-148.37 727.37,-135.53"/>
<polygon fill="#63b8ff" stroke="#63b8ff" points="728.96,-138.65 736.19,-130.91 725.71,-132.44 728.96,-138.65"/>
</a>
</g>
</g>
<!-- Node7&#45;&gt;Node6 -->
<g id="edge7_Node000007_Node000006" class="edge">
<title>Node7&#45;&gt;Node6</title>
<g id="a_edge7_Node000007_Node000006"><a xlink:title=" ">
<path fill="none" stroke="#63b8ff" d="M803.99,-130.23C812.58,-132.11 821.65,-134.09 830.52,-136.03"/>
<polygon fill="#63b8ff" stroke="#63b8ff" points="829.59,-139.41 840.11,-138.13 831.09,-132.57 829.59,-139.41"/>
</a>
</g>
</g>
<!-- Node9 -->
<g id="Node000009" class="node">
<title>Node9</title>
<g id="a_Node000009"><a xlink:href="exif-log_8c.html#acd0808d6d5be73f28059797c2e2e67dc" target="_top" xlink:title="Delete instance of ExifLog.">
<polygon fill="white" stroke="#666666" points="667.5,-44.78 587.5,-44.78 587.5,-25.78 667.5,-25.78 667.5,-44.78"/>
<text text-anchor="middle" x="627.5" y="-32.78" font-family="Helvetica,sans-Serif" font-size="10.00">exif_log_free</text>
</a>
</g>
</g>
<!-- Node8&#45;&gt;Node9 -->
<g id="edge9_Node000008_Node000009" class="edge">
<title>Node8&#45;&gt;Node9</title>
<g id="a_edge9_Node000008_Node000009"><a xlink:title=" ">
<path fill="none" stroke="#63b8ff" d="M540.77,-35.28C552.02,-35.28 564.28,-35.28 575.93,-35.28"/>
<polygon fill="#63b8ff" stroke="#63b8ff" points="575.8,-38.78 585.8,-35.28 575.8,-31.78 575.8,-38.78"/>
</a>
</g>
</g>
<!-- Node9&#45;&gt;Node6 -->
<g id="edge10_Node000009_Node000006" class="edge">
<title>Node9&#45;&gt;Node6</title>
<g id="a_edge10_Node000009_Node000006"><a xlink:title=" ">
<path fill="none" stroke="#63b8ff" d="M659.26,-45.23C695.14,-57.22 755.94,-78.71 806,-102.28 825.11,-111.28 845.79,-123.14 861.4,-132.57"/>
<polygon fill="#63b8ff" stroke="#63b8ff" points="859.21,-135.33 869.57,-137.56 862.86,-129.36 859.21,-135.33"/>
</a>
</g>
</g>
<!-- Node9&#45;&gt;Node7 -->
<g id="edge11_Node000009_Node000007" class="edge">
<title>Node9&#45;&gt;Node7</title>
<g id="a_edge11_Node000009_Node000007"><a xlink:title=" ">
<path fill="none" stroke="#63b8ff" d="M648.32,-45.23C656.15,-49.35 665.13,-54.31 673,-59.28 694.96,-73.13 718.76,-90.8 735.31,-103.55"/>
<polygon fill="#63b8ff" stroke="#63b8ff" points="732.91,-106.12 742.95,-109.5 737.2,-100.59 732.91,-106.12"/>
</a>
</g>
</g>
<!-- Node11 -->
<g id="Node000011" class="node">
<title>Node11</title>
<g id="a_Node000011"><a xlink:href="exif-mnote-data_8c.html#a2f715582f27a9821560931aeaa139abd" target="_top" xlink:title=" ">
<polygon fill="white" stroke="#666666" points="413,-82.78 289,-82.78 289,-63.78 413,-63.78 413,-82.78"/>
<text text-anchor="middle" x="351" y="-70.78" font-family="Helvetica,sans-Serif" font-size="10.00">exif_mnote_data_free</text>
</a>
</g>
</g>
<!-- Node10&#45;&gt;Node11 -->
<g id="edge18_Node000010_Node000011" class="edge">
<title>Node10&#45;&gt;Node11</title>
<g id="a_edge18_Node000010_Node000011"><a xlink:title=" ">
<path fill="none" stroke="#63b8ff" d="M253.09,-73.28C261.08,-73.28 269.29,-73.28 277.4,-73.28"/>
<polygon fill="#63b8ff" stroke="#63b8ff" points="277.23,-76.78 287.23,-73.28 277.23,-69.78 277.23,-76.78"/>
</a>
</g>
</g>
<!-- Node11&#45;&gt;Node6 -->
<g id="edge20_Node000011_Node000006" class="edge">
<title>Node11&#45;&gt;Node6</title>
<g id="a_edge20_Node000011_Node000006"><a xlink:title=" ">
<path fill="none" stroke="#63b8ff" d="M363.89,-63.4C381.28,-49.67 415.26,-25.46 449,-16.28 545.06,9.86 574.66,-0.78 673,-16.28 734.37,-25.95 753.84,-25.54 806,-59.28 834.6,-77.78 859.51,-108.95 873.77,-129.06"/>
<polygon fill="#63b8ff" stroke="#63b8ff" points="870.81,-130.94 879.36,-137.2 876.58,-126.98 870.81,-130.94"/>
</a>
</g>
</g>
<!-- Node11&#45;&gt;Node7 -->
<g id="edge21_Node000011_Node000007" class="edge">
<title>Node11&#45;&gt;Node7</title>
<g id="a_edge21_Node000011_Node000007"><a xlink:title=" ">
<path fill="none" stroke="#63b8ff" d="M413.37,-74.34C478.3,-76.27 583.52,-81.76 673,-97.28 686.89,-99.69 701.8,-103.42 715.13,-107.18"/>
<polygon fill="#63b8ff" stroke="#63b8ff" points="713.86,-110.45 724.44,-109.89 715.82,-103.73 713.86,-110.45"/>
</a>
</g>
</g>
<!-- Node11&#45;&gt;Node8 -->
<g id="edge19_Node000011_Node000008" class="edge">
<title>Node11&#45;&gt;Node8</title>
<g id="a_edge19_Node000011_Node000008"><a xlink:title=" ">
<path fill="none" stroke="#63b8ff" d="M389.97,-63.29C407.57,-58.67 428.7,-53.11 447.49,-48.17"/>
<polygon fill="#63b8ff" stroke="#63b8ff" points="448.29,-51.58 457.07,-45.65 446.51,-44.81 448.29,-51.58"/>
</a>
</g>
</g>
</g>
</svg>
