<?xml version="1.0" encoding="UTF-8" standalone="no"?>
<!DOCTYPE svg PUBLIC "-//W3C//DTD SVG 1.1//EN"
 "http://www.w3.org/Graphics/SVG/1.1/DTD/svg11.dtd">
<!-- Generated by graphviz version 7.0.1 (0)
 -->
<!-- Title: exif_mnote_data_fuji_get_value Pages: 1 -->
<svg width="684pt" height="188pt"
 viewBox="0.00 0.00 684.00 187.54" xmlns="http://www.w3.org/2000/svg" xmlns:xlink="http://www.w3.org/1999/xlink">
<g id="graph0" class="graph" transform="scale(1 1) rotate(0) translate(4 183.54)">
<title>exif_mnote_data_fuji_get_value</title>
<!-- Node1 -->
<g id="Node000001" class="node">
<title>Node1</title>
<g id="a_Node000001"><a xlink:title=" ">
<polygon fill="#999999" stroke="#666666" points="120,-109.5 0,-109.5 0,-79.5 120,-79.5 120,-109.5"/>
<text text-anchor="start" x="8" y="-97.5" font-family="Helvetica,sans-Serif" font-size="10.00">exif_mnote_data_fuji</text>
<text text-anchor="middle" x="60" y="-86.5" font-family="Helvetica,sans-Serif" font-size="10.00">_get_value</text>
</a>
</g>
</g>
<!-- Node2 -->
<g id="Node000002" class="node">
<title>Node2</title>
<g id="a_Node000002"><a xlink:href="mnote-fuji-entry_8c.html#ae8881087b707c3c3d1d2fa98b38df2d4" target="_top" xlink:title=" ">
<polygon fill="white" stroke="#666666" points="277,-109.5 156,-109.5 156,-79.5 277,-79.5 277,-109.5"/>
<text text-anchor="start" x="164" y="-97.5" font-family="Helvetica,sans-Serif" font-size="10.00">mnote_fuji_entry_get</text>
<text text-anchor="middle" x="216.5" y="-86.5" font-family="Helvetica,sans-Serif" font-size="10.00">_value</text>
</a>
</g>
</g>
<!-- Node1&#45;&gt;Node2 -->
<g id="edge1_Node000001_Node000002" class="edge">
<title>Node1&#45;&gt;Node2</title>
<g id="a_edge1_Node000001_Node000002"><a xlink:title=" ">
<path fill="none" stroke="#63b8ff" d="M120.29,-94.5C128.16,-94.5 136.29,-94.5 144.33,-94.5"/>
<polygon fill="#63b8ff" stroke="#63b8ff" points="144.09,-98 154.09,-94.5 144.09,-91 144.09,-98"/>
</a>
</g>
</g>
<!-- Node3 -->
<g id="Node000003" class="node">
<title>Node3</title>
<g id="a_Node000003"><a xlink:href="exif-utils_8c.html#a4ad94614630897766dd0a5c9bc2a59bf" target="_top" xlink:title="Retrieve an ExifLong value from memory.">
<polygon fill="white" stroke="#666666" points="541.5,-161 458.5,-161 458.5,-142 541.5,-142 541.5,-161"/>
<text text-anchor="middle" x="500" y="-149" font-family="Helvetica,sans-Serif" font-size="10.00">exif_get_long</text>
</a>
</g>
</g>
<!-- Node2&#45;&gt;Node3 -->
<g id="edge2_Node000002_Node000003" class="edge">
<title>Node2&#45;&gt;Node3</title>
<g id="a_edge2_Node000002_Node000003"><a xlink:title=" ">
<path fill="none" stroke="#63b8ff" d="M230.49,-109.8C247.31,-128.3 278.59,-158.48 313,-170.5 362.09,-187.65 422.57,-175.9 460.97,-164.7"/>
<polygon fill="#63b8ff" stroke="#63b8ff" points="461.68,-168.14 470.21,-161.87 459.63,-161.45 461.68,-168.14"/>
</a>
</g>
</g>
<!-- Node4 -->
<g id="Node000004" class="node">
<title>Node4</title>
<g id="a_Node000004"><a xlink:href="exif-utils_8c.html#a56b96f076a13da6ed926e1ef29cb2dc3" target="_top" xlink:title="Retrieve an ExifSLong value from memory.">
<polygon fill="white" stroke="#666666" points="676,-123 588,-123 588,-104 676,-104 676,-123"/>
<text text-anchor="middle" x="632" y="-111" font-family="Helvetica,sans-Serif" font-size="10.00">exif_get_slong</text>
</a>
</g>
</g>
<!-- Node2&#45;&gt;Node4 -->
<g id="edge8_Node000002_Node000004" class="edge">
<title>Node2&#45;&gt;Node4</title>
<g id="a_edge8_Node000002_Node000004"><a xlink:title=" ">
<path fill="none" stroke="#63b8ff" d="M277.18,-97.24C357.39,-100.93 498.8,-107.43 576.34,-110.99"/>
<polygon fill="#63b8ff" stroke="#63b8ff" points="576.1,-114.48 586.25,-111.44 576.42,-107.49 576.1,-114.48"/>
</a>
</g>
</g>
<!-- Node5 -->
<g id="Node000005" class="node">
<title>Node5</title>
<g id="a_Node000005"><a xlink:href="exif-utils_8c.html#a1feb547c289aa57a4d2119338b03706c" target="_top" xlink:title="Retrieve an ExifRational value from memory.">
<polygon fill="white" stroke="#666666" points="412,-161 313,-161 313,-142 412,-142 412,-161"/>
<text text-anchor="middle" x="362.5" y="-149" font-family="Helvetica,sans-Serif" font-size="10.00">exif_get_rational</text>
</a>
</g>
</g>
<!-- Node2&#45;&gt;Node5 -->
<g id="edge4_Node000002_Node000005" class="edge">
<title>Node2&#45;&gt;Node5</title>
<g id="a_edge4_Node000002_Node000005"><a xlink:title=" ">
<path fill="none" stroke="#63b8ff" d="M256.47,-109.93C278.17,-118.52 304.99,-129.13 326.09,-137.49"/>
<polygon fill="#63b8ff" stroke="#63b8ff" points="324.56,-140.64 335.14,-141.07 327.13,-134.13 324.56,-140.64"/>
</a>
</g>
</g>
<!-- Node6 -->
<g id="Node000006" class="node">
<title>Node6</title>
<g id="a_Node000006"><a xlink:href="exif-utils_8c.html#a4b4acf537a8c6b9405e7b53be868e4d7" target="_top" xlink:title="Retrieve an ExifShort value from memory.">
<polygon fill="white" stroke="#666666" points="405.5,-85 319.5,-85 319.5,-66 405.5,-66 405.5,-85"/>
<text text-anchor="middle" x="362.5" y="-73" font-family="Helvetica,sans-Serif" font-size="10.00">exif_get_short</text>
</a>
</g>
</g>
<!-- Node2&#45;&gt;Node6 -->
<g id="edge6_Node000002_Node000006" class="edge">
<title>Node2&#45;&gt;Node6</title>
<g id="a_edge6_Node000002_Node000006"><a xlink:title=" ">
<path fill="none" stroke="#63b8ff" d="M277.32,-86.61C287.43,-85.27 297.86,-83.9 307.8,-82.58"/>
<polygon fill="#63b8ff" stroke="#63b8ff" points="308.24,-86.06 317.69,-81.28 307.32,-79.12 308.24,-86.06"/>
</a>
</g>
</g>
<!-- Node7 -->
<g id="Node000007" class="node">
<title>Node7</title>
<g id="a_Node000007"><a xlink:href="exif-utils_8c.html#a6baf094a71392f9cea23ad633ec13c8b" target="_top" xlink:title="Retrieve an ExifSShort value from memory.">
<polygon fill="white" stroke="#666666" points="546,-75 454,-75 454,-56 546,-56 546,-75"/>
<text text-anchor="middle" x="500" y="-63" font-family="Helvetica,sans-Serif" font-size="10.00">exif_get_sshort</text>
</a>
</g>
</g>
<!-- Node2&#45;&gt;Node7 -->
<g id="edge11_Node000002_Node000007" class="edge">
<title>Node2&#45;&gt;Node7</title>
<g id="a_edge11_Node000002_Node000007"><a xlink:title=" ">
<path fill="none" stroke="#63b8ff" d="M248.47,-79.14C266.75,-70.93 290.63,-61.68 313,-57.5 356.04,-49.45 405.62,-52.16 442.77,-56.5"/>
<polygon fill="#63b8ff" stroke="#63b8ff" points="442.01,-59.93 452.37,-57.7 442.88,-52.99 442.01,-59.93"/>
</a>
</g>
</g>
<!-- Node8 -->
<g id="Node000008" class="node">
<title>Node8</title>
<g id="a_Node000008"><a xlink:href="exif-utils_8c.html#adb97c3499488d5642a82df1cb16dc2cb" target="_top" xlink:title="Retrieve an ExifSRational value from memory.">
<polygon fill="white" stroke="#666666" points="552,-19 448,-19 448,0 552,0 552,-19"/>
<text text-anchor="middle" x="500" y="-7" font-family="Helvetica,sans-Serif" font-size="10.00">exif_get_srational</text>
</a>
</g>
</g>
<!-- Node2&#45;&gt;Node8 -->
<g id="edge9_Node000002_Node000008" class="edge">
<title>Node2&#45;&gt;Node8</title>
<g id="a_edge9_Node000002_Node000008"><a xlink:title=" ">
<path fill="none" stroke="#63b8ff" d="M244.29,-79.01C263,-68.76 288.87,-55.75 313,-47.5 353.13,-33.78 399.92,-24.25 436.53,-18.17"/>
<polygon fill="#63b8ff" stroke="#63b8ff" points="436.73,-21.68 446.05,-16.63 435.62,-14.77 436.73,-21.68"/>
</a>
</g>
</g>
<!-- Node3&#45;&gt;Node4 -->
<g id="edge3_Node000003_Node000004" class="edge">
<title>Node3&#45;&gt;Node4</title>
<g id="a_edge3_Node000003_Node000004"><a xlink:title=" ">
<path fill="none" stroke="#63b8ff" d="M535.16,-141.52C550.83,-136.93 569.62,-131.44 586.39,-126.54"/>
<polygon fill="#63b8ff" stroke="#63b8ff" points="587,-130.01 595.62,-123.84 585.04,-123.29 587,-130.01"/>
</a>
</g>
</g>
<!-- Node5&#45;&gt;Node3 -->
<g id="edge5_Node000005_Node000003" class="edge">
<title>Node5&#45;&gt;Node3</title>
<g id="a_edge5_Node000005_Node000003"><a xlink:title=" ">
<path fill="none" stroke="#63b8ff" d="M412.42,-151.5C423.56,-151.5 435.44,-151.5 446.71,-151.5"/>
<polygon fill="#63b8ff" stroke="#63b8ff" points="446.67,-155 456.67,-151.5 446.67,-148 446.67,-155"/>
</a>
</g>
</g>
<!-- Node6&#45;&gt;Node7 -->
<g id="edge7_Node000006_Node000007" class="edge">
<title>Node6&#45;&gt;Node7</title>
<g id="a_edge7_Node000006_Node000007"><a xlink:title=" ">
<path fill="none" stroke="#63b8ff" d="M405.63,-72.39C417.29,-71.53 430.13,-70.58 442.47,-69.67"/>
<polygon fill="#63b8ff" stroke="#63b8ff" points="442.38,-73.19 452.09,-68.96 441.86,-66.21 442.38,-73.19"/>
</a>
</g>
</g>
<!-- Node8&#45;&gt;Node4 -->
<g id="edge10_Node000008_Node000004" class="edge">
<title>Node8&#45;&gt;Node4</title>
<g id="a_edge10_Node000008_Node000004"><a xlink:title=" ">
<path fill="none" stroke="#63b8ff" d="M514.58,-19.3C524.94,-26.86 539.52,-37.65 552,-47.5 572.52,-63.7 595.39,-82.94 611.22,-96.45"/>
<polygon fill="#63b8ff" stroke="#63b8ff" points="608.63,-98.84 618.5,-102.69 613.19,-93.53 608.63,-98.84"/>
</a>
</g>
</g>
</g>
</svg>
