<?xml version="1.0" encoding="UTF-8" standalone="no"?>
<!DOCTYPE svg PUBLIC "-//W3C//DTD SVG 1.1//EN"
 "http://www.w3.org/Graphics/SVG/1.1/DTD/svg11.dtd">
<!-- Generated by graphviz version 2.44.1 (0)
 -->
<!-- Title: libexif/exif&#45;mnote&#45;data&#45;priv.h Pages: 1 -->
<svg width="931pt" height="240pt"
 viewBox="0.00 0.00 930.50 240.00" xmlns="http://www.w3.org/2000/svg" xmlns:xlink="http://www.w3.org/1999/xlink">
<g id="graph0" class="graph" transform="scale(1 1) rotate(0) translate(4 236)">
<title>libexif/exif&#45;mnote&#45;data&#45;priv.h</title>
<polygon fill="white" stroke="transparent" points="-4,4 -4,-236 926.5,-236 926.5,4 -4,4"/>
<!-- Node1 -->
<g id="node1" class="node">
<title>Node1</title>
<g id="a_node1"><a xlink:title=" ">
<polygon fill="#bfbfbf" stroke="black" points="389.5,-201.5 389.5,-231.5 492.5,-231.5 492.5,-201.5 389.5,-201.5"/>
<text text-anchor="start" x="397.5" y="-219.5" font-family="Helvetica,sans-Serif" font-size="10.00">libexif/exif&#45;mnote</text>
<text text-anchor="middle" x="441" y="-208.5" font-family="Helvetica,sans-Serif" font-size="10.00">&#45;data&#45;priv.h</text>
</a>
</g>
</g>
<!-- Node2 -->
<g id="node2" class="node">
<title>Node2</title>
<g id="a_node2"><a xlink:href="exif-mnote-data-apple_8h.html" target="_top" xlink:title=" ">
<polygon fill="white" stroke="black" points="69.5,-134.5 69.5,-164.5 186.5,-164.5 186.5,-134.5 69.5,-134.5"/>
<text text-anchor="start" x="77.5" y="-152.5" font-family="Helvetica,sans-Serif" font-size="10.00">libexif/apple/exif</text>
<text text-anchor="middle" x="128" y="-141.5" font-family="Helvetica,sans-Serif" font-size="10.00">&#45;mnote&#45;data&#45;apple.h</text>
</a>
</g>
</g>
<!-- Node1&#45;&gt;Node2 -->
<g id="edge1" class="edge">
<title>Node1&#45;&gt;Node2</title>
<path fill="none" stroke="midnightblue" d="M379.17,-203C329.4,-192.89 257.66,-178.21 195,-165 192.32,-164.44 189.58,-163.85 186.82,-163.27"/>
<polygon fill="midnightblue" stroke="midnightblue" points="378.64,-206.46 389.14,-205.02 380.03,-199.6 378.64,-206.46"/>
</g>
<!-- Node4 -->
<g id="node4" class="node">
<title>Node4</title>
<g id="a_node4"><a xlink:href="exif-data_8c.html" target="_top" xlink:title=" ">
<polygon fill="white" stroke="black" points="271.5,-73 271.5,-92 372.5,-92 372.5,-73 271.5,-73"/>
<text text-anchor="middle" x="322" y="-80" font-family="Helvetica,sans-Serif" font-size="10.00">libexif/exif&#45;data.c</text>
</a>
</g>
</g>
<!-- Node1&#45;&gt;Node4 -->
<g id="edge7" class="edge">
<title>Node1&#45;&gt;Node4</title>
<path fill="none" stroke="midnightblue" d="M408.3,-195.95C395.72,-187.45 381.8,-176.74 371,-165 349.65,-141.79 332.88,-107.85 325.74,-92.11"/>
<polygon fill="midnightblue" stroke="midnightblue" points="406.45,-198.93 416.73,-201.47 410.28,-193.07 406.45,-198.93"/>
</g>
<!-- Node5 -->
<g id="node5" class="node">
<title>Node5</title>
<g id="a_node5"><a xlink:href="exif-mnote-data-canon_8h.html" target="_top" xlink:title=" ">
<polygon fill="white" stroke="black" points="204.5,-134.5 204.5,-164.5 323.5,-164.5 323.5,-134.5 204.5,-134.5"/>
<text text-anchor="start" x="212.5" y="-152.5" font-family="Helvetica,sans-Serif" font-size="10.00">libexif/canon/exif</text>
<text text-anchor="middle" x="264" y="-141.5" font-family="Helvetica,sans-Serif" font-size="10.00">&#45;mnote&#45;data&#45;canon.h</text>
</a>
</g>
</g>
<!-- Node1&#45;&gt;Node5 -->
<g id="edge4" class="edge">
<title>Node1&#45;&gt;Node5</title>
<path fill="none" stroke="midnightblue" d="M392.85,-197.82C364.4,-187.37 328.87,-174.32 302.33,-164.58"/>
<polygon fill="midnightblue" stroke="midnightblue" points="392,-201.23 402.59,-201.4 394.41,-194.66 392,-201.23"/>
</g>
<!-- Node7 -->
<g id="node7" class="node">
<title>Node7</title>
<g id="a_node7"><a xlink:href="exif-mnote-data_8c.html" target="_top" xlink:title=" ">
<polygon fill="white" stroke="black" points="812.5,-134.5 812.5,-164.5 915.5,-164.5 915.5,-134.5 812.5,-134.5"/>
<text text-anchor="start" x="820.5" y="-152.5" font-family="Helvetica,sans-Serif" font-size="10.00">libexif/exif&#45;mnote</text>
<text text-anchor="middle" x="864" y="-141.5" font-family="Helvetica,sans-Serif" font-size="10.00">&#45;data.c</text>
</a>
</g>
</g>
<!-- Node1&#45;&gt;Node7 -->
<g id="edge8" class="edge">
<title>Node1&#45;&gt;Node7</title>
<path fill="none" stroke="midnightblue" d="M502.79,-208.69C575.09,-200.3 698.24,-184.71 803,-165 806.1,-164.42 809.28,-163.78 812.49,-163.11"/>
<polygon fill="midnightblue" stroke="midnightblue" points="502.04,-205.25 492.5,-209.87 502.84,-212.21 502.04,-205.25"/>
</g>
<!-- Node8 -->
<g id="node8" class="node">
<title>Node8</title>
<g id="a_node8"><a xlink:href="exif-mnote-data-fuji_8h.html" target="_top" xlink:title=" ">
<polygon fill="white" stroke="black" points="380,-134.5 380,-164.5 502,-164.5 502,-134.5 380,-134.5"/>
<text text-anchor="start" x="388" y="-152.5" font-family="Helvetica,sans-Serif" font-size="10.00">libexif/fuji/exif&#45;mnote</text>
<text text-anchor="middle" x="441" y="-141.5" font-family="Helvetica,sans-Serif" font-size="10.00">&#45;data&#45;fuji.h</text>
</a>
</g>
</g>
<!-- Node1&#45;&gt;Node8 -->
<g id="edge9" class="edge">
<title>Node1&#45;&gt;Node8</title>
<path fill="none" stroke="midnightblue" d="M441,-191.11C441,-182.15 441,-172.32 441,-164.58"/>
<polygon fill="midnightblue" stroke="midnightblue" points="437.5,-191.4 441,-201.4 444.5,-191.4 437.5,-191.4"/>
</g>
<!-- Node12 -->
<g id="node12" class="node">
<title>Node12</title>
<g id="a_node12"><a xlink:href="exif-mnote-data-olympus_8h.html" target="_top" xlink:title=" ">
<polygon fill="white" stroke="black" points="520,-134.5 520,-164.5 652,-164.5 652,-134.5 520,-134.5"/>
<text text-anchor="start" x="528" y="-152.5" font-family="Helvetica,sans-Serif" font-size="10.00">libexif/olympus/exif</text>
<text text-anchor="middle" x="586" y="-141.5" font-family="Helvetica,sans-Serif" font-size="10.00">&#45;mnote&#45;data&#45;olympus.h</text>
</a>
</g>
</g>
<!-- Node1&#45;&gt;Node12 -->
<g id="edge15" class="edge">
<title>Node1&#45;&gt;Node12</title>
<path fill="none" stroke="midnightblue" d="M481.67,-197.27C504.76,-186.92 533.24,-174.15 554.6,-164.58"/>
<polygon fill="midnightblue" stroke="midnightblue" points="480.16,-194.11 472.46,-201.4 483.02,-200.5 480.16,-194.11"/>
</g>
<!-- Node14 -->
<g id="node14" class="node">
<title>Node14</title>
<g id="a_node14"><a xlink:href="exif-mnote-data-pentax_8h.html" target="_top" xlink:title=" ">
<polygon fill="white" stroke="black" points="670,-134.5 670,-164.5 794,-164.5 794,-134.5 670,-134.5"/>
<text text-anchor="start" x="678" y="-152.5" font-family="Helvetica,sans-Serif" font-size="10.00">libexif/pentax/exif</text>
<text text-anchor="middle" x="732" y="-141.5" font-family="Helvetica,sans-Serif" font-size="10.00">&#45;mnote&#45;data&#45;pentax.h</text>
</a>
</g>
</g>
<!-- Node1&#45;&gt;Node14 -->
<g id="edge18" class="edge">
<title>Node1&#45;&gt;Node14</title>
<path fill="none" stroke="midnightblue" d="M502.58,-201.75C551.82,-190.75 620.55,-175.39 669.93,-164.37"/>
<polygon fill="midnightblue" stroke="midnightblue" points="501.69,-198.36 492.69,-203.95 503.21,-205.19 501.69,-198.36"/>
</g>
<!-- Node3 -->
<g id="node3" class="node">
<title>Node3</title>
<g id="a_node3"><a xlink:href="exif-mnote-data-apple_8c.html" target="_top" xlink:title=" ">
<polygon fill="white" stroke="black" points="0,-67.5 0,-97.5 116,-97.5 116,-67.5 0,-67.5"/>
<text text-anchor="start" x="8" y="-85.5" font-family="Helvetica,sans-Serif" font-size="10.00">libexif/apple/exif</text>
<text text-anchor="middle" x="58" y="-74.5" font-family="Helvetica,sans-Serif" font-size="10.00">&#45;mnote&#45;data&#45;apple.c</text>
</a>
</g>
</g>
<!-- Node2&#45;&gt;Node3 -->
<g id="edge2" class="edge">
<title>Node2&#45;&gt;Node3</title>
<path fill="none" stroke="midnightblue" d="M105.18,-127.31C94.68,-117.56 82.51,-106.26 73.16,-97.58"/>
<polygon fill="midnightblue" stroke="midnightblue" points="103.1,-130.16 112.81,-134.4 107.86,-125.03 103.1,-130.16"/>
</g>
<!-- Node2&#45;&gt;Node4 -->
<g id="edge3" class="edge">
<title>Node2&#45;&gt;Node4</title>
<path fill="none" stroke="midnightblue" d="M179.91,-131.11C217.65,-118.46 267.11,-101.89 296.61,-92.01"/>
<polygon fill="midnightblue" stroke="midnightblue" points="178.47,-127.9 170.1,-134.4 180.69,-134.54 178.47,-127.9"/>
</g>
<!-- Node5&#45;&gt;Node4 -->
<g id="edge6" class="edge">
<title>Node5&#45;&gt;Node4</title>
<path fill="none" stroke="midnightblue" d="M283.49,-126.66C294.01,-114.86 306.41,-100.97 314.24,-92.19"/>
<polygon fill="midnightblue" stroke="midnightblue" points="280.63,-124.6 276.59,-134.4 285.85,-129.26 280.63,-124.6"/>
</g>
<!-- Node6 -->
<g id="node6" class="node">
<title>Node6</title>
<g id="a_node6"><a xlink:href="exif-mnote-data-canon_8c.html" target="_top" xlink:title=" ">
<polygon fill="white" stroke="black" points="134.5,-67.5 134.5,-97.5 253.5,-97.5 253.5,-67.5 134.5,-67.5"/>
<text text-anchor="start" x="142.5" y="-85.5" font-family="Helvetica,sans-Serif" font-size="10.00">libexif/canon/exif</text>
<text text-anchor="middle" x="194" y="-74.5" font-family="Helvetica,sans-Serif" font-size="10.00">&#45;mnote&#45;data&#45;canon.c</text>
</a>
</g>
</g>
<!-- Node5&#45;&gt;Node6 -->
<g id="edge5" class="edge">
<title>Node5&#45;&gt;Node6</title>
<path fill="none" stroke="midnightblue" d="M241.18,-127.31C230.68,-117.56 218.51,-106.26 209.16,-97.58"/>
<polygon fill="midnightblue" stroke="midnightblue" points="239.1,-130.16 248.81,-134.4 243.86,-125.03 239.1,-130.16"/>
</g>
<!-- Node8&#45;&gt;Node4 -->
<g id="edge10" class="edge">
<title>Node8&#45;&gt;Node4</title>
<path fill="none" stroke="midnightblue" d="M406.17,-129.47C383.45,-117.06 354.9,-101.47 337.57,-92.01"/>
<polygon fill="midnightblue" stroke="midnightblue" points="404.72,-132.67 415.18,-134.4 408.08,-126.53 404.72,-132.67"/>
</g>
<!-- Node9 -->
<g id="node9" class="node">
<title>Node9</title>
<g id="a_node9"><a xlink:href="exif-mnote-data-fuji_8c.html" target="_top" xlink:title=" ">
<polygon fill="white" stroke="black" points="510,-67.5 510,-97.5 632,-97.5 632,-67.5 510,-67.5"/>
<text text-anchor="start" x="518" y="-85.5" font-family="Helvetica,sans-Serif" font-size="10.00">libexif/fuji/exif&#45;mnote</text>
<text text-anchor="middle" x="571" y="-74.5" font-family="Helvetica,sans-Serif" font-size="10.00">&#45;data&#45;fuji.c</text>
</a>
</g>
</g>
<!-- Node8&#45;&gt;Node9 -->
<g id="edge11" class="edge">
<title>Node8&#45;&gt;Node9</title>
<path fill="none" stroke="midnightblue" d="M478.29,-129.85C498.85,-119.58 523.95,-107.03 542.85,-97.58"/>
<polygon fill="midnightblue" stroke="midnightblue" points="476.59,-126.79 469.21,-134.4 479.72,-133.05 476.59,-126.79"/>
</g>
<!-- Node10 -->
<g id="node10" class="node">
<title>Node10</title>
<g id="a_node10"><a xlink:href="mnote-fuji-entry_8h.html" target="_top" xlink:title=" ">
<polygon fill="white" stroke="black" points="390.5,-67.5 390.5,-97.5 491.5,-97.5 491.5,-67.5 390.5,-67.5"/>
<text text-anchor="start" x="398.5" y="-85.5" font-family="Helvetica,sans-Serif" font-size="10.00">libexif/fuji/mnote</text>
<text text-anchor="middle" x="441" y="-74.5" font-family="Helvetica,sans-Serif" font-size="10.00">&#45;fuji&#45;entry.h</text>
</a>
</g>
</g>
<!-- Node8&#45;&gt;Node10 -->
<g id="edge12" class="edge">
<title>Node8&#45;&gt;Node10</title>
<path fill="none" stroke="midnightblue" d="M434.45,-124.4C434.01,-115.37 434.3,-105.41 435.33,-97.58"/>
<polygon fill="midnightblue" stroke="midnightblue" points="430.97,-124.74 435.32,-134.4 437.94,-124.13 430.97,-124.74"/>
</g>
<!-- Node10&#45;&gt;Node8 -->
<g id="edge13" class="edge">
<title>Node10&#45;&gt;Node8</title>
<path fill="none" stroke="midnightblue" d="M447.54,-107.57C447.99,-116.6 447.71,-126.56 446.68,-134.4"/>
<polygon fill="midnightblue" stroke="midnightblue" points="451.03,-107.24 446.67,-97.58 444.05,-107.84 451.03,-107.24"/>
</g>
<!-- Node11 -->
<g id="node11" class="node">
<title>Node11</title>
<g id="a_node11"><a xlink:href="mnote-fuji-entry_8c.html" target="_top" xlink:title=" ">
<polygon fill="white" stroke="black" points="390.5,-0.5 390.5,-30.5 491.5,-30.5 491.5,-0.5 390.5,-0.5"/>
<text text-anchor="start" x="398.5" y="-18.5" font-family="Helvetica,sans-Serif" font-size="10.00">libexif/fuji/mnote</text>
<text text-anchor="middle" x="441" y="-7.5" font-family="Helvetica,sans-Serif" font-size="10.00">&#45;fuji&#45;entry.c</text>
</a>
</g>
</g>
<!-- Node10&#45;&gt;Node11 -->
<g id="edge14" class="edge">
<title>Node10&#45;&gt;Node11</title>
<path fill="none" stroke="midnightblue" d="M441,-57.11C441,-48.15 441,-38.32 441,-30.58"/>
<polygon fill="midnightblue" stroke="midnightblue" points="437.5,-57.4 441,-67.4 444.5,-57.4 437.5,-57.4"/>
</g>
<!-- Node12&#45;&gt;Node4 -->
<g id="edge16" class="edge">
<title>Node12&#45;&gt;Node4</title>
<path fill="none" stroke="midnightblue" d="M519.27,-132.07C467.5,-119.32 397.83,-102.17 356.64,-92.03"/>
<polygon fill="midnightblue" stroke="midnightblue" points="518.49,-135.48 529.04,-134.48 520.17,-128.69 518.49,-135.48"/>
</g>
<!-- Node13 -->
<g id="node13" class="node">
<title>Node13</title>
<g id="a_node13"><a xlink:href="exif-mnote-data-olympus_8c.html" target="_top" xlink:title=" ">
<polygon fill="white" stroke="black" points="650.5,-67.5 650.5,-97.5 781.5,-97.5 781.5,-67.5 650.5,-67.5"/>
<text text-anchor="start" x="658.5" y="-85.5" font-family="Helvetica,sans-Serif" font-size="10.00">libexif/olympus/exif</text>
<text text-anchor="middle" x="716" y="-74.5" font-family="Helvetica,sans-Serif" font-size="10.00">&#45;mnote&#45;data&#45;olympus.c</text>
</a>
</g>
</g>
<!-- Node12&#45;&gt;Node13 -->
<g id="edge17" class="edge">
<title>Node12&#45;&gt;Node13</title>
<path fill="none" stroke="midnightblue" d="M623.29,-129.85C643.85,-119.58 668.95,-107.03 687.85,-97.58"/>
<polygon fill="midnightblue" stroke="midnightblue" points="621.59,-126.79 614.21,-134.4 624.72,-133.05 621.59,-126.79"/>
</g>
<!-- Node14&#45;&gt;Node4 -->
<g id="edge19" class="edge">
<title>Node14&#45;&gt;Node4</title>
<path fill="none" stroke="midnightblue" d="M659.81,-133.88C535.5,-113.8 501.21,-120.42 381,-98 372.19,-96.36 362.72,-94.2 354.01,-92.07"/>
<polygon fill="midnightblue" stroke="midnightblue" points="659.28,-137.34 669.71,-135.51 660.41,-130.44 659.28,-137.34"/>
</g>
<!-- Node15 -->
<g id="node15" class="node">
<title>Node15</title>
<g id="a_node15"><a xlink:href="exif-mnote-data-pentax_8c.html" target="_top" xlink:title=" ">
<polygon fill="white" stroke="black" points="799.5,-67.5 799.5,-97.5 922.5,-97.5 922.5,-67.5 799.5,-67.5"/>
<text text-anchor="start" x="807.5" y="-85.5" font-family="Helvetica,sans-Serif" font-size="10.00">libexif/pentax/exif</text>
<text text-anchor="middle" x="861" y="-74.5" font-family="Helvetica,sans-Serif" font-size="10.00">&#45;mnote&#45;data&#45;pentax.c</text>
</a>
</g>
</g>
<!-- Node14&#45;&gt;Node15 -->
<g id="edge20" class="edge">
<title>Node14&#45;&gt;Node15</title>
<path fill="none" stroke="midnightblue" d="M769.01,-129.85C789.4,-119.58 814.31,-107.03 833.06,-97.58"/>
<polygon fill="midnightblue" stroke="midnightblue" points="767.35,-126.77 759.99,-134.4 770.5,-133.02 767.35,-126.77"/>
</g>
</g>
</svg>
