<?xml version="1.0" encoding="UTF-8" standalone="no"?>
<!DOCTYPE svg PUBLIC "-//W3C//DTD SVG 1.1//EN"
 "http://www.w3.org/Graphics/SVG/1.1/DTD/svg11.dtd">
<!-- Generated by graphviz version 2.44.1 (0)
 -->
<!-- Title: exif_data_free Pages: 1 -->
<svg width="941pt" height="271pt"
 viewBox="0.00 0.00 941.00 270.96" xmlns="http://www.w3.org/2000/svg" xmlns:xlink="http://www.w3.org/1999/xlink">
<g id="graph0" class="graph" transform="scale(1 1) rotate(0) translate(4 266.96)">
<title>exif_data_free</title>
<polygon fill="white" stroke="transparent" points="-4,4 -4,-266.96 937,-266.96 937,4 -4,4"/>
<!-- Node1 -->
<g id="node1" class="node">
<title>Node1</title>
<g id="a_node1"><a xlink:title=" ">
<polygon fill="#bfbfbf" stroke="black" points="0,-101.46 0,-120.46 87,-120.46 87,-101.46 0,-101.46"/>
<text text-anchor="middle" x="43.5" y="-108.46" font-family="Helvetica,sans-Serif" font-size="10.00">exif_data_free</text>
</a>
</g>
</g>
<!-- Node2 -->
<g id="node2" class="node">
<title>Node2</title>
<g id="a_node2"><a xlink:href="exif-content_8c.html#a5e72c0f223d5d1aa33b34f388a5c9d37" target="_top" xlink:title="Decrease reference counter for ExifContent.">
<polygon fill="white" stroke="black" points="134,-139.46 134,-158.46 242,-158.46 242,-139.46 134,-139.46"/>
<text text-anchor="middle" x="188" y="-146.46" font-family="Helvetica,sans-Serif" font-size="10.00">exif_content_unref</text>
</a>
</g>
</g>
<!-- Node1&#45;&gt;Node2 -->
<g id="edge1" class="edge">
<title>Node1&#45;&gt;Node2</title>
<path fill="none" stroke="midnightblue" d="M80.46,-120.55C98.94,-125.48 121.66,-131.54 141.36,-136.79"/>
<polygon fill="midnightblue" stroke="midnightblue" points="140.49,-140.18 151.05,-139.38 142.29,-133.42 140.49,-140.18"/>
</g>
<!-- Node6 -->
<g id="node6" class="node">
<title>Node6</title>
<g id="a_node6"><a xlink:href="exif-mem_8c.html#a43190b81b4b4bdb4ffb89bfb612051b1" target="_top" xlink:title=" ">
<polygon fill="white" stroke="black" points="842,-148.46 842,-167.46 933,-167.46 933,-148.46 842,-148.46"/>
<text text-anchor="middle" x="887.5" y="-155.46" font-family="Helvetica,sans-Serif" font-size="10.00">exif_mem_free</text>
</a>
</g>
</g>
<!-- Node1&#45;&gt;Node6 -->
<g id="edge15" class="edge">
<title>Node1&#45;&gt;Node6</title>
<path fill="none" stroke="midnightblue" d="M54.66,-120.47C91.32,-153.75 221.45,-262.96 350,-262.96 350,-262.96 350,-262.96 628.5,-262.96 710.7,-262.96 731.4,-245.5 806,-210.96 827.71,-200.91 850.27,-185.56 865.97,-173.96"/>
<polygon fill="midnightblue" stroke="midnightblue" points="868.48,-176.45 874.36,-167.64 864.27,-170.86 868.48,-176.45"/>
</g>
<!-- Node7 -->
<g id="node7" class="node">
<title>Node7</title>
<g id="a_node7"><a xlink:href="exif-mem_8c.html#a66744e0987af08c443df247ce55f7d87" target="_top" xlink:title="Unrefcount an ExifMem.">
<polygon fill="white" stroke="black" points="709,-110.46 709,-129.46 806,-129.46 806,-110.46 709,-110.46"/>
<text text-anchor="middle" x="757.5" y="-117.46" font-family="Helvetica,sans-Serif" font-size="10.00">exif_mem_unref</text>
</a>
</g>
</g>
<!-- Node1&#45;&gt;Node7 -->
<g id="edge16" class="edge">
<title>Node1&#45;&gt;Node7</title>
<path fill="none" stroke="midnightblue" d="M87,-110.96C146.02,-110.96 256.12,-110.96 350,-110.96 350,-110.96 350,-110.96 498.5,-110.96 567.41,-110.96 646.61,-114.21 698.88,-116.8"/>
<polygon fill="midnightblue" stroke="midnightblue" points="698.8,-120.3 708.97,-117.31 699.15,-113.31 698.8,-120.3"/>
</g>
<!-- Node8 -->
<g id="node8" class="node">
<title>Node8</title>
<g id="a_node8"><a xlink:href="exif-log_8c.html#a7a9b738a7429197d68c80ffedac7d8fb" target="_top" xlink:title=" ">
<polygon fill="white" stroke="black" points="454.5,-25.46 454.5,-44.46 540.5,-44.46 540.5,-25.46 454.5,-25.46"/>
<text text-anchor="middle" x="497.5" y="-32.46" font-family="Helvetica,sans-Serif" font-size="10.00">exif_log_unref</text>
</a>
</g>
</g>
<!-- Node1&#45;&gt;Node8 -->
<g id="edge14" class="edge">
<title>Node1&#45;&gt;Node8</title>
<path fill="none" stroke="midnightblue" d="M54.05,-101.09C67.82,-87.6 94.73,-63.94 123,-53.96 232.2,-15.41 370.54,-21.35 444.41,-28.51"/>
<polygon fill="midnightblue" stroke="midnightblue" points="444.09,-31.99 454.39,-29.52 444.8,-25.03 444.09,-31.99"/>
</g>
<!-- Node10 -->
<g id="node10" class="node">
<title>Node10</title>
<g id="a_node10"><a xlink:href="exif-mnote-data_8c.html#af910e5c862e5aba351b84b2142d98192" target="_top" xlink:title=" ">
<polygon fill="white" stroke="black" points="123,-63.46 123,-82.46 253,-82.46 253,-63.46 123,-63.46"/>
<text text-anchor="middle" x="188" y="-70.46" font-family="Helvetica,sans-Serif" font-size="10.00">exif_mnote_data_unref</text>
</a>
</g>
</g>
<!-- Node1&#45;&gt;Node10 -->
<g id="edge17" class="edge">
<title>Node1&#45;&gt;Node10</title>
<path fill="none" stroke="midnightblue" d="M80.46,-101.37C98.94,-96.45 121.66,-90.39 141.36,-85.13"/>
<polygon fill="midnightblue" stroke="midnightblue" points="142.29,-88.51 151.05,-82.55 140.49,-81.74 142.29,-88.51"/>
</g>
<!-- Node3 -->
<g id="node3" class="node">
<title>Node3</title>
<g id="a_node3"><a xlink:href="exif-content_8c.html#af77d27f5949aa4249fd54a5146c28289" target="_top" xlink:title="Actually free the ExifContent.">
<polygon fill="white" stroke="black" points="300,-139.46 300,-158.46 402,-158.46 402,-139.46 300,-139.46"/>
<text text-anchor="middle" x="351" y="-146.46" font-family="Helvetica,sans-Serif" font-size="10.00">exif_content_free</text>
</a>
</g>
</g>
<!-- Node2&#45;&gt;Node3 -->
<g id="edge2" class="edge">
<title>Node2&#45;&gt;Node3</title>
<path fill="none" stroke="midnightblue" d="M242.16,-148.96C257.42,-148.96 274.15,-148.96 289.8,-148.96"/>
<polygon fill="midnightblue" stroke="midnightblue" points="289.89,-152.46 299.89,-148.96 289.89,-145.46 289.89,-152.46"/>
</g>
<!-- Node4 -->
<g id="node4" class="node">
<title>Node4</title>
<g id="a_node4"><a xlink:href="exif-entry_8c.html#a82d5d923121488d847d341727cdd2ef4" target="_top" xlink:title="Decrease reference counter for ExifEntry.">
<polygon fill="white" stroke="black" points="449,-177.46 449,-196.46 546,-196.46 546,-177.46 449,-177.46"/>
<text text-anchor="middle" x="497.5" y="-184.46" font-family="Helvetica,sans-Serif" font-size="10.00">exif_entry_unref</text>
</a>
</g>
</g>
<!-- Node3&#45;&gt;Node4 -->
<g id="edge3" class="edge">
<title>Node3&#45;&gt;Node4</title>
<path fill="none" stroke="midnightblue" d="M388.46,-158.55C407.27,-163.5 430.41,-169.58 450.45,-174.85"/>
<polygon fill="midnightblue" stroke="midnightblue" points="449.74,-178.28 460.3,-177.44 451.52,-171.51 449.74,-178.28"/>
</g>
<!-- Node3&#45;&gt;Node6 -->
<g id="edge12" class="edge">
<title>Node3&#45;&gt;Node6</title>
<path fill="none" stroke="midnightblue" d="M363.6,-158.61C380.9,-172.3 415.07,-196.73 449,-205.96 602.34,-247.68 651.72,-224.05 806,-185.96 821.87,-182.04 839.04,-176.29 853.43,-171.02"/>
<polygon fill="midnightblue" stroke="midnightblue" points="854.76,-174.26 862.9,-167.47 852.3,-167.7 854.76,-174.26"/>
</g>
<!-- Node3&#45;&gt;Node7 -->
<g id="edge13" class="edge">
<title>Node3&#45;&gt;Node7</title>
<path fill="none" stroke="midnightblue" d="M402.01,-145.38C477.16,-139.99 618.88,-129.83 698.47,-124.12"/>
<polygon fill="midnightblue" stroke="midnightblue" points="699.08,-127.59 708.81,-123.38 698.58,-120.61 699.08,-127.59"/>
</g>
<!-- Node3&#45;&gt;Node8 -->
<g id="edge8" class="edge">
<title>Node3&#45;&gt;Node8</title>
<path fill="none" stroke="midnightblue" d="M364.32,-139.24C389.17,-119.64 445.51,-75.19 475.99,-51.14"/>
<polygon fill="midnightblue" stroke="midnightblue" points="478.53,-53.6 484.21,-44.66 474.19,-48.1 478.53,-53.6"/>
</g>
<!-- Node5 -->
<g id="node5" class="node">
<title>Node5</title>
<g id="a_node5"><a xlink:href="exif-entry_8c.html#a2879215e3863186650d3f32eb63bbaf4" target="_top" xlink:title="Actually free the ExifEntry.">
<polygon fill="white" stroke="black" points="582,-177.46 582,-196.46 673,-196.46 673,-177.46 582,-177.46"/>
<text text-anchor="middle" x="627.5" y="-184.46" font-family="Helvetica,sans-Serif" font-size="10.00">exif_entry_free</text>
</a>
</g>
</g>
<!-- Node4&#45;&gt;Node5 -->
<g id="edge4" class="edge">
<title>Node4&#45;&gt;Node5</title>
<path fill="none" stroke="midnightblue" d="M546.16,-186.96C554.45,-186.96 563.13,-186.96 571.59,-186.96"/>
<polygon fill="midnightblue" stroke="midnightblue" points="571.77,-190.46 581.77,-186.96 571.77,-183.46 571.77,-190.46"/>
</g>
<!-- Node5&#45;&gt;Node6 -->
<g id="edge5" class="edge">
<title>Node5&#45;&gt;Node6</title>
<path fill="none" stroke="midnightblue" d="M673.15,-181.94C717.22,-176.99 784.68,-169.41 831.92,-164.1"/>
<polygon fill="midnightblue" stroke="midnightblue" points="832.42,-167.56 841.97,-162.97 831.64,-160.61 832.42,-167.56"/>
</g>
<!-- Node5&#45;&gt;Node7 -->
<g id="edge6" class="edge">
<title>Node5&#45;&gt;Node7</title>
<path fill="none" stroke="midnightblue" d="M646.84,-177.36C668.42,-166.07 704.44,-147.21 729.28,-134.21"/>
<polygon fill="midnightblue" stroke="midnightblue" points="730.96,-137.28 738.19,-129.54 727.71,-131.08 730.96,-137.28"/>
</g>
<!-- Node7&#45;&gt;Node6 -->
<g id="edge7" class="edge">
<title>Node7&#45;&gt;Node6</title>
<path fill="none" stroke="midnightblue" d="M790.8,-129.55C807.02,-134.37 826.88,-140.26 844.29,-145.43"/>
<polygon fill="midnightblue" stroke="midnightblue" points="843.63,-148.89 854.21,-148.38 845.62,-142.18 843.63,-148.89"/>
</g>
<!-- Node9 -->
<g id="node9" class="node">
<title>Node9</title>
<g id="a_node9"><a xlink:href="exif-log_8c.html#acd0808d6d5be73f28059797c2e2e67dc" target="_top" xlink:title="Delete instance of ExifLog.">
<polygon fill="white" stroke="black" points="587.5,-25.46 587.5,-44.46 667.5,-44.46 667.5,-25.46 587.5,-25.46"/>
<text text-anchor="middle" x="627.5" y="-32.46" font-family="Helvetica,sans-Serif" font-size="10.00">exif_log_free</text>
</a>
</g>
</g>
<!-- Node8&#45;&gt;Node9 -->
<g id="edge9" class="edge">
<title>Node8&#45;&gt;Node9</title>
<path fill="none" stroke="midnightblue" d="M540.77,-34.96C552.37,-34.96 565.05,-34.96 577.02,-34.96"/>
<polygon fill="midnightblue" stroke="midnightblue" points="577.31,-38.46 587.31,-34.96 577.31,-31.46 577.31,-38.46"/>
</g>
<!-- Node9&#45;&gt;Node6 -->
<g id="edge10" class="edge">
<title>Node9&#45;&gt;Node6</title>
<path fill="none" stroke="midnightblue" d="M661.99,-44.55C698.53,-55.65 758.18,-75.7 806,-100.96 828.23,-112.71 851.44,-129.73 867.19,-142.11"/>
<polygon fill="midnightblue" stroke="midnightblue" points="865.13,-144.94 875.12,-148.45 869.5,-139.47 865.13,-144.94"/>
</g>
<!-- Node9&#45;&gt;Node7 -->
<g id="edge11" class="edge">
<title>Node9&#45;&gt;Node7</title>
<path fill="none" stroke="midnightblue" d="M647.88,-44.68C655.81,-48.84 664.98,-53.9 673,-58.96 695.5,-73.16 719.93,-91.35 736.51,-104.17"/>
<polygon fill="midnightblue" stroke="midnightblue" points="734.38,-106.94 744.42,-110.33 738.68,-101.42 734.38,-106.94"/>
</g>
<!-- Node11 -->
<g id="node11" class="node">
<title>Node11</title>
<g id="a_node11"><a xlink:href="exif-mnote-data_8c.html#a2f715582f27a9821560931aeaa139abd" target="_top" xlink:title=" ">
<polygon fill="white" stroke="black" points="289,-63.46 289,-82.46 413,-82.46 413,-63.46 289,-63.46"/>
<text text-anchor="middle" x="351" y="-70.46" font-family="Helvetica,sans-Serif" font-size="10.00">exif_mnote_data_free</text>
</a>
</g>
</g>
<!-- Node10&#45;&gt;Node11 -->
<g id="edge18" class="edge">
<title>Node10&#45;&gt;Node11</title>
<path fill="none" stroke="midnightblue" d="M253.09,-72.96C261.45,-72.96 270.05,-72.96 278.51,-72.96"/>
<polygon fill="midnightblue" stroke="midnightblue" points="278.75,-76.46 288.75,-72.96 278.75,-69.46 278.75,-76.46"/>
</g>
<!-- Node11&#45;&gt;Node6 -->
<g id="edge20" class="edge">
<title>Node11&#45;&gt;Node6</title>
<path fill="none" stroke="midnightblue" d="M363.6,-63.31C380.9,-49.62 415.07,-25.19 449,-15.96 545.06,10.17 574.5,-1.47 673,-15.96 734.07,-24.95 754.96,-21.24 806,-55.96 838.15,-77.84 863.5,-116.5 876.63,-139.42"/>
<polygon fill="midnightblue" stroke="midnightblue" points="873.59,-141.14 881.5,-148.19 879.71,-137.75 873.59,-141.14"/>
</g>
<!-- Node11&#45;&gt;Node7 -->
<g id="edge21" class="edge">
<title>Node11&#45;&gt;Node7</title>
<path fill="none" stroke="midnightblue" d="M413.07,-74.01C477.98,-75.94 583.39,-81.42 673,-96.96 687.66,-99.51 703.47,-103.52 717.34,-107.49"/>
<polygon fill="midnightblue" stroke="midnightblue" points="716.48,-110.88 727.06,-110.35 718.46,-104.17 716.48,-110.88"/>
</g>
<!-- Node11&#45;&gt;Node8 -->
<g id="edge19" class="edge">
<title>Node11&#45;&gt;Node8</title>
<path fill="none" stroke="midnightblue" d="M388.46,-63.37C407.27,-58.43 430.41,-52.34 450.45,-47.07"/>
<polygon fill="midnightblue" stroke="midnightblue" points="451.52,-50.41 460.3,-44.48 449.74,-43.64 451.52,-50.41"/>
</g>
</g>
</svg>
