<?xml version="1.0" encoding="UTF-8" standalone="no"?>
<!DOCTYPE svg PUBLIC "-//W3C//DTD SVG 1.1//EN"
 "http://www.w3.org/Graphics/SVG/1.1/DTD/svg11.dtd">
<!-- Generated by graphviz version 7.0.1 (0)
 -->
<!-- Title: exif_mnote_data_apple_load Pages: 1 -->
<svg width="486pt" height="212pt"
 viewBox="0.00 0.00 486.00 212.00" xmlns="http://www.w3.org/2000/svg" xmlns:xlink="http://www.w3.org/1999/xlink">
<g id="graph0" class="graph" transform="scale(1 1) rotate(0) translate(4 208)">
<title>exif_mnote_data_apple_load</title>
<!-- Node1 -->
<g id="Node000001" class="node">
<title>Node1</title>
<g id="a_Node000001"><a xlink:title=" ">
<polygon fill="#999999" stroke="#666666" points="158,-111 0,-111 0,-92 158,-92 158,-111"/>
<text text-anchor="middle" x="79" y="-99" font-family="Helvetica,sans-Serif" font-size="10.00">exif_mnote_data_apple_load</text>
</a>
</g>
</g>
<!-- Node2 -->
<g id="Node000002" class="node">
<title>Node2</title>
<g id="a_Node000002"><a xlink:href="exif-format_8c.html#a924038efe0cd8ebade8f44619dd794f3" target="_top" xlink:title="Return the raw size of the given EXIF data type.">
<polygon fill="white" stroke="#666666" points="331.5,-204 212.5,-204 212.5,-185 331.5,-185 331.5,-204"/>
<text text-anchor="middle" x="272" y="-192" font-family="Helvetica,sans-Serif" font-size="10.00">exif_format_get_size</text>
</a>
</g>
</g>
<!-- Node1&#45;&gt;Node2 -->
<g id="edge1_Node000001_Node000002" class="edge">
<title>Node1&#45;&gt;Node2</title>
<g id="a_edge1_Node000001_Node000002"><a xlink:title=" ">
<path fill="none" stroke="#63b8ff" d="M91.83,-111.35C111.68,-127.4 153.51,-159.11 194,-176.5 198.07,-178.25 202.34,-179.84 206.69,-181.29"/>
<polygon fill="#63b8ff" stroke="#63b8ff" points="205.57,-184.61 216.16,-184.17 207.61,-177.91 205.57,-184.61"/>
</a>
</g>
</g>
<!-- Node3 -->
<g id="Node000003" class="node">
<title>Node3</title>
<g id="a_Node000003"><a xlink:href="exif-utils_8c.html#a4ad94614630897766dd0a5c9bc2a59bf" target="_top" xlink:title="Retrieve an ExifLong value from memory.">
<polygon fill="white" stroke="#666666" points="313.5,-167 230.5,-167 230.5,-148 313.5,-148 313.5,-167"/>
<text text-anchor="middle" x="272" y="-155" font-family="Helvetica,sans-Serif" font-size="10.00">exif_get_long</text>
</a>
</g>
</g>
<!-- Node1&#45;&gt;Node3 -->
<g id="edge2_Node000001_Node000003" class="edge">
<title>Node1&#45;&gt;Node3</title>
<g id="a_edge2_Node000001_Node000003"><a xlink:title=" ">
<path fill="none" stroke="#63b8ff" d="M107.42,-111.43C130.38,-119.55 164.09,-131.04 194,-139.5 202.08,-141.79 210.7,-144.01 219.14,-146.07"/>
<polygon fill="#63b8ff" stroke="#63b8ff" points="218.05,-149.4 228.59,-148.32 219.67,-142.6 218.05,-149.4"/>
</a>
</g>
</g>
<!-- Node5 -->
<g id="Node000005" class="node">
<title>Node5</title>
<g id="a_Node000005"><a xlink:href="exif-utils_8c.html#a4b4acf537a8c6b9405e7b53be868e4d7" target="_top" xlink:title="Retrieve an ExifShort value from memory.">
<polygon fill="white" stroke="#666666" points="315,-130 229,-130 229,-111 315,-111 315,-130"/>
<text text-anchor="middle" x="272" y="-118" font-family="Helvetica,sans-Serif" font-size="10.00">exif_get_short</text>
</a>
</g>
</g>
<!-- Node1&#45;&gt;Node5 -->
<g id="edge4_Node000001_Node000005" class="edge">
<title>Node1&#45;&gt;Node5</title>
<g id="a_edge4_Node000001_Node000005"><a xlink:title=" ">
<path fill="none" stroke="#63b8ff" d="M158.24,-109.28C178.11,-111.26 199.01,-113.34 217.34,-115.16"/>
<polygon fill="#63b8ff" stroke="#63b8ff" points="216.89,-118.63 227.18,-116.14 217.58,-111.67 216.89,-118.63"/>
</a>
</g>
</g>
<!-- Node7 -->
<g id="Node000007" class="node">
<title>Node7</title>
<g id="a_Node000007"><a xlink:href="exif-log_8c.html#a025d4a5d96544913ea6f6ebbec69cb68" target="_top" xlink:title=" ">
<polygon fill="white" stroke="#666666" points="300,-93 244,-93 244,-74 300,-74 300,-93"/>
<text text-anchor="middle" x="272" y="-81" font-family="Helvetica,sans-Serif" font-size="10.00">exif_log</text>
</a>
</g>
</g>
<!-- Node1&#45;&gt;Node7 -->
<g id="edge6_Node000001_Node000007" class="edge">
<title>Node1&#45;&gt;Node7</title>
<g id="a_edge6_Node000001_Node000007"><a xlink:title=" ">
<path fill="none" stroke="#63b8ff" d="M158.24,-94.13C183.79,-91.72 211.06,-89.15 232.37,-87.14"/>
<polygon fill="#63b8ff" stroke="#63b8ff" points="232.42,-90.65 242.05,-86.23 231.76,-83.68 232.42,-90.65"/>
</a>
</g>
</g>
<!-- Node9 -->
<g id="Node000009" class="node">
<title>Node9</title>
<g id="a_Node000009"><a xlink:href="exif-mem_8c.html#a68be7c7afc8cff75adc3b1a28b5ae9a2" target="_top" xlink:title=" ">
<polygon fill="white" stroke="#666666" points="319.5,-56 224.5,-56 224.5,-37 319.5,-37 319.5,-56"/>
<text text-anchor="middle" x="272" y="-44" font-family="Helvetica,sans-Serif" font-size="10.00">exif_mem_alloc</text>
</a>
</g>
</g>
<!-- Node1&#45;&gt;Node9 -->
<g id="edge8_Node000001_Node000009" class="edge">
<title>Node1&#45;&gt;Node9</title>
<g id="a_edge8_Node000001_Node000009"><a xlink:title=" ">
<path fill="none" stroke="#63b8ff" d="M109.37,-91.66C132.3,-84.11 165.03,-73.64 194,-65.5 201.57,-63.37 209.59,-61.25 217.49,-59.24"/>
<polygon fill="#63b8ff" stroke="#63b8ff" points="218.19,-62.67 227.04,-56.84 216.49,-55.88 218.19,-62.67"/>
</a>
</g>
</g>
<!-- Node10 -->
<g id="Node000010" class="node">
<title>Node10</title>
<g id="a_Node000010"><a xlink:href="exif-mnote-data-apple_8c.html#a777bb9ad0cb336b9994b3b820d6567a9" target="_top" xlink:title=" ">
<polygon fill="white" stroke="#666666" points="350,-19 194,-19 194,0 350,0 350,-19"/>
<text text-anchor="middle" x="272" y="-7" font-family="Helvetica,sans-Serif" font-size="10.00">exif_mnote_data_apple_free</text>
</a>
</g>
</g>
<!-- Node1&#45;&gt;Node10 -->
<g id="edge9_Node000001_Node000010" class="edge">
<title>Node1&#45;&gt;Node10</title>
<g id="a_edge9_Node000001_Node000010"><a xlink:title=" ">
<path fill="none" stroke="#63b8ff" d="M92.22,-91.73C112.31,-76.14 154.05,-45.66 194,-28.5 198.96,-26.37 204.2,-24.45 209.53,-22.72"/>
<polygon fill="#63b8ff" stroke="#63b8ff" points="210.48,-26.09 219.06,-19.87 208.48,-19.38 210.48,-26.09"/>
</a>
</g>
</g>
<!-- Node4 -->
<g id="Node000004" class="node">
<title>Node4</title>
<g id="a_Node000004"><a xlink:href="exif-utils_8c.html#a56b96f076a13da6ed926e1ef29cb2dc3" target="_top" xlink:title="Retrieve an ExifSLong value from memory.">
<polygon fill="white" stroke="#666666" points="476,-167 388,-167 388,-148 476,-148 476,-167"/>
<text text-anchor="middle" x="432" y="-155" font-family="Helvetica,sans-Serif" font-size="10.00">exif_get_slong</text>
</a>
</g>
</g>
<!-- Node3&#45;&gt;Node4 -->
<g id="edge3_Node000003_Node000004" class="edge">
<title>Node3&#45;&gt;Node4</title>
<g id="a_edge3_Node000003_Node000004"><a xlink:title=" ">
<path fill="none" stroke="#63b8ff" d="M313.69,-157.5C332.73,-157.5 355.7,-157.5 376.24,-157.5"/>
<polygon fill="#63b8ff" stroke="#63b8ff" points="376.17,-161 386.17,-157.5 376.17,-154 376.17,-161"/>
</a>
</g>
</g>
<!-- Node6 -->
<g id="Node000006" class="node">
<title>Node6</title>
<g id="a_Node000006"><a xlink:href="exif-utils_8c.html#a6baf094a71392f9cea23ad633ec13c8b" target="_top" xlink:title="Retrieve an ExifSShort value from memory.">
<polygon fill="white" stroke="#666666" points="478,-130 386,-130 386,-111 478,-111 478,-130"/>
<text text-anchor="middle" x="432" y="-118" font-family="Helvetica,sans-Serif" font-size="10.00">exif_get_sshort</text>
</a>
</g>
</g>
<!-- Node5&#45;&gt;Node6 -->
<g id="edge5_Node000005_Node000006" class="edge">
<title>Node5&#45;&gt;Node6</title>
<g id="a_edge5_Node000005_Node000006"><a xlink:title=" ">
<path fill="none" stroke="#63b8ff" d="M315.34,-120.5C333.44,-120.5 354.84,-120.5 374.28,-120.5"/>
<polygon fill="#63b8ff" stroke="#63b8ff" points="374.26,-124 384.26,-120.5 374.26,-117 374.26,-124"/>
</a>
</g>
</g>
<!-- Node8 -->
<g id="Node000008" class="node">
<title>Node8</title>
<g id="a_Node000008"><a xlink:href="exif-log_8c.html#a99101b5ad01b2d82ce9d43c9e8534627" target="_top" xlink:title=" ">
<polygon fill="white" stroke="#666666" points="463,-93 401,-93 401,-74 463,-74 463,-93"/>
<text text-anchor="middle" x="432" y="-81" font-family="Helvetica,sans-Serif" font-size="10.00">exif_logv</text>
</a>
</g>
</g>
<!-- Node7&#45;&gt;Node8 -->
<g id="edge7_Node000007_Node000008" class="edge">
<title>Node7&#45;&gt;Node8</title>
<g id="a_edge7_Node000007_Node000008"><a xlink:title=" ">
<path fill="none" stroke="#63b8ff" d="M300.16,-83.5C324.74,-83.5 361.32,-83.5 389.55,-83.5"/>
<polygon fill="#63b8ff" stroke="#63b8ff" points="389.18,-87 399.18,-83.5 389.18,-80 389.18,-87"/>
</a>
</g>
</g>
<!-- Node11 -->
<g id="Node000011" class="node">
<title>Node11</title>
<g id="a_Node000011"><a xlink:href="exif-mem_8c.html#a43190b81b4b4bdb4ffb89bfb612051b1" target="_top" xlink:title=" ">
<polygon fill="white" stroke="#666666" points="477.5,-19 386.5,-19 386.5,0 477.5,0 477.5,-19"/>
<text text-anchor="middle" x="432" y="-7" font-family="Helvetica,sans-Serif" font-size="10.00">exif_mem_free</text>
</a>
</g>
</g>
<!-- Node10&#45;&gt;Node11 -->
<g id="edge10_Node000010_Node000011" class="edge">
<title>Node10&#45;&gt;Node11</title>
<g id="a_edge10_Node000010_Node000011"><a xlink:title=" ">
<path fill="none" stroke="#63b8ff" d="M350.15,-9.5C358.46,-9.5 366.81,-9.5 374.81,-9.5"/>
<polygon fill="#63b8ff" stroke="#63b8ff" points="374.73,-13 384.73,-9.5 374.73,-6 374.73,-13"/>
</a>
</g>
</g>
</g>
</svg>
