<?xml version="1.0" encoding="UTF-8" standalone="no"?>
<!DOCTYPE svg PUBLIC "-//W3C//DTD SVG 1.1//EN"
 "http://www.w3.org/Graphics/SVG/1.1/DTD/svg11.dtd">
<!-- Generated by graphviz version 2.44.1 (0)
 -->
<!-- Title: exif_mnote_data_canon_load Pages: 1 -->
<svg width="617pt" height="356pt"
 viewBox="0.00 0.00 617.00 356.00" xmlns="http://www.w3.org/2000/svg" xmlns:xlink="http://www.w3.org/1999/xlink">
<g id="graph0" class="graph" transform="scale(1 1) rotate(0) translate(4 352)">
<title>exif_mnote_data_canon_load</title>
<polygon fill="white" stroke="transparent" points="-4,4 -4,-352 613,-352 613,4 -4,4"/>
<!-- Node1 -->
<g id="node1" class="node">
<title>Node1</title>
<g id="a_node1"><a xlink:title=" ">
<polygon fill="#bfbfbf" stroke="black" points="0,-176.5 0,-195.5 160,-195.5 160,-176.5 0,-176.5"/>
<text text-anchor="middle" x="80" y="-183.5" font-family="Helvetica,sans-Serif" font-size="10.00">exif_mnote_data_canon_load</text>
</a>
</g>
</g>
<!-- Node2 -->
<g id="node2" class="node">
<title>Node2</title>
<g id="a_node2"><a xlink:href="exif-format_8c.html#a924038efe0cd8ebade8f44619dd794f3" target="_top" xlink:title="Return the raw size of the given EXIF data type.">
<polygon fill="white" stroke="black" points="215.5,-328.5 215.5,-347.5 334.5,-347.5 334.5,-328.5 215.5,-328.5"/>
<text text-anchor="middle" x="275" y="-335.5" font-family="Helvetica,sans-Serif" font-size="10.00">exif_format_get_size</text>
</a>
</g>
</g>
<!-- Node1&#45;&gt;Node2 -->
<g id="edge1" class="edge">
<title>Node1&#45;&gt;Node2</title>
<path fill="none" stroke="midnightblue" d="M86.52,-195.85C100.98,-220.72 142.6,-286.38 196,-319 199.45,-321.11 203.11,-322.98 206.91,-324.64"/>
<polygon fill="midnightblue" stroke="midnightblue" points="205.95,-328.03 216.54,-328.37 208.47,-321.5 205.95,-328.03"/>
</g>
<!-- Node3 -->
<g id="node3" class="node">
<title>Node3</title>
<g id="a_node3"><a xlink:href="exif-utils_8c.html#a4ad94614630897766dd0a5c9bc2a59bf" target="_top" xlink:title="Retrieve an ExifLong value from memory.">
<polygon fill="white" stroke="black" points="233.5,-290.5 233.5,-309.5 316.5,-309.5 316.5,-290.5 233.5,-290.5"/>
<text text-anchor="middle" x="275" y="-297.5" font-family="Helvetica,sans-Serif" font-size="10.00">exif_get_long</text>
</a>
</g>
</g>
<!-- Node1&#45;&gt;Node3 -->
<g id="edge2" class="edge">
<title>Node1&#45;&gt;Node3</title>
<path fill="none" stroke="midnightblue" d="M89.79,-195.76C107.76,-215.09 150.86,-258.37 196,-281 204.6,-285.31 214.23,-288.68 223.72,-291.3"/>
<polygon fill="midnightblue" stroke="midnightblue" points="222.94,-294.71 233.5,-293.77 224.66,-287.93 222.94,-294.71"/>
</g>
<!-- Node5 -->
<g id="node5" class="node">
<title>Node5</title>
<g id="a_node5"><a xlink:href="exif-utils_8c.html#a4b4acf537a8c6b9405e7b53be868e4d7" target="_top" xlink:title="Retrieve an ExifShort value from memory.">
<polygon fill="white" stroke="black" points="392.5,-173.5 392.5,-192.5 478.5,-192.5 478.5,-173.5 392.5,-173.5"/>
<text text-anchor="middle" x="435.5" y="-180.5" font-family="Helvetica,sans-Serif" font-size="10.00">exif_get_short</text>
</a>
</g>
</g>
<!-- Node1&#45;&gt;Node5 -->
<g id="edge4" class="edge">
<title>Node1&#45;&gt;Node5</title>
<path fill="none" stroke="midnightblue" d="M127.78,-195.51C148.58,-199.28 173.41,-203.15 196,-205 265.99,-210.74 284.4,-214.34 354,-205 368.19,-203.1 383.42,-199.38 396.77,-195.54"/>
<polygon fill="midnightblue" stroke="midnightblue" points="397.99,-198.83 406.57,-192.61 395.98,-192.13 397.99,-198.83"/>
</g>
<!-- Node7 -->
<g id="node7" class="node">
<title>Node7</title>
<g id="a_node7"><a xlink:href="exif-log_8c.html#a025d4a5d96544913ea6f6ebbec69cb68" target="_top" xlink:title=" ">
<polygon fill="white" stroke="black" points="247,-252.5 247,-271.5 303,-271.5 303,-252.5 247,-252.5"/>
<text text-anchor="middle" x="275" y="-259.5" font-family="Helvetica,sans-Serif" font-size="10.00">exif_log</text>
</a>
</g>
</g>
<!-- Node1&#45;&gt;Node7 -->
<g id="edge6" class="edge">
<title>Node1&#45;&gt;Node7</title>
<path fill="none" stroke="midnightblue" d="M100.22,-195.59C122.8,-206.65 161.57,-224.98 196,-238 209.2,-242.99 223.94,-247.73 237.02,-251.66"/>
<polygon fill="midnightblue" stroke="midnightblue" points="236.06,-255.03 246.64,-254.5 238.04,-248.32 236.06,-255.03"/>
</g>
<!-- Node9 -->
<g id="node9" class="node">
<title>Node9</title>
<g id="a_node9"><a xlink:href="exif-mem_8c.html#ae8c09cfbcb95e435c4c4b7ec3bbd79e4" target="_top" xlink:title=" ">
<polygon fill="white" stroke="black" points="227.5,-176.5 227.5,-195.5 322.5,-195.5 322.5,-176.5 227.5,-176.5"/>
<text text-anchor="middle" x="275" y="-183.5" font-family="Helvetica,sans-Serif" font-size="10.00">exif_mem_alloc</text>
</a>
</g>
</g>
<!-- Node1&#45;&gt;Node9 -->
<g id="edge8" class="edge">
<title>Node1&#45;&gt;Node9</title>
<path fill="none" stroke="midnightblue" d="M160.06,-186C179.29,-186 199.48,-186 217.43,-186"/>
<polygon fill="midnightblue" stroke="midnightblue" points="217.44,-189.5 227.44,-186 217.44,-182.5 217.44,-189.5"/>
</g>
<!-- Node10 -->
<g id="node10" class="node">
<title>Node10</title>
<g id="a_node10"><a xlink:href="exif-mem_8c.html#a43190b81b4b4bdb4ffb89bfb612051b1" target="_top" xlink:title=" ">
<polygon fill="white" stroke="black" points="390,-66.5 390,-85.5 481,-85.5 481,-66.5 390,-66.5"/>
<text text-anchor="middle" x="435.5" y="-73.5" font-family="Helvetica,sans-Serif" font-size="10.00">exif_mem_free</text>
</a>
</g>
</g>
<!-- Node1&#45;&gt;Node10 -->
<g id="edge9" class="edge">
<title>Node1&#45;&gt;Node10</title>
<path fill="none" stroke="midnightblue" d="M93.67,-176.4C114.07,-161.45 155.97,-132.8 196,-118 256.56,-95.61 330.29,-84.97 379.6,-80.04"/>
<polygon fill="midnightblue" stroke="midnightblue" points="380.11,-83.5 389.74,-79.07 379.45,-76.53 380.11,-83.5"/>
</g>
<!-- Node11 -->
<g id="node11" class="node">
<title>Node11</title>
<g id="a_node11"><a xlink:href="exif-mnote-data-canon_8c.html#a9d89c4c6d3b77e8b33e0711b346d0613" target="_top" xlink:title=" ">
<polygon fill="white" stroke="black" points="208,-39 208,-69 342,-69 342,-39 208,-39"/>
<text text-anchor="start" x="216" y="-57" font-family="Helvetica,sans-Serif" font-size="10.00">exif_mnote_data_canon</text>
<text text-anchor="middle" x="275" y="-46" font-family="Helvetica,sans-Serif" font-size="10.00">_clear</text>
</a>
</g>
</g>
<!-- Node1&#45;&gt;Node11 -->
<g id="edge10" class="edge">
<title>Node1&#45;&gt;Node11</title>
<path fill="none" stroke="midnightblue" d="M89.63,-176.3C107.64,-156.53 151.31,-111.18 196,-84 202.62,-79.97 209.88,-76.32 217.22,-73.06"/>
<polygon fill="midnightblue" stroke="midnightblue" points="218.66,-76.25 226.52,-69.14 215.94,-69.8 218.66,-76.25"/>
</g>
<!-- Node12 -->
<g id="node12" class="node">
<title>Node12</title>
<g id="a_node12"><a xlink:href="mnote-canon-entry_8c.html#a9d343f3faec828b2467bacbab0919f47" target="_top" xlink:title=" ">
<polygon fill="white" stroke="black" points="202,-127 202,-157 348,-157 348,-127 202,-127"/>
<text text-anchor="start" x="210" y="-145" font-family="Helvetica,sans-Serif" font-size="10.00">mnote_canon_entry_count</text>
<text text-anchor="middle" x="275" y="-134" font-family="Helvetica,sans-Serif" font-size="10.00">_values</text>
</a>
</g>
</g>
<!-- Node1&#45;&gt;Node12 -->
<g id="edge12" class="edge">
<title>Node1&#45;&gt;Node12</title>
<path fill="none" stroke="midnightblue" d="M122.88,-176.45C144.8,-171.45 172.33,-165.18 197.87,-159.36"/>
<polygon fill="midnightblue" stroke="midnightblue" points="198.95,-162.7 207.92,-157.07 197.39,-155.88 198.95,-162.7"/>
</g>
<!-- Node13 -->
<g id="node13" class="node">
<title>Node13</title>
<g id="a_node13"><a xlink:href="mnote-canon-tag_8c.html#a43680cce7697f8a0360db694695b979b" target="_top" xlink:title=" ">
<polygon fill="white" stroke="black" points="196,-0.5 196,-19.5 354,-19.5 354,-0.5 196,-0.5"/>
<text text-anchor="middle" x="275" y="-7.5" font-family="Helvetica,sans-Serif" font-size="10.00">mnote_canon_tag_get_name</text>
</a>
</g>
</g>
<!-- Node1&#45;&gt;Node13 -->
<g id="edge14" class="edge">
<title>Node1&#45;&gt;Node13</title>
<path fill="none" stroke="midnightblue" d="M85.09,-176.43C97.41,-148.81 136.99,-68.4 196,-29 199.08,-26.94 202.36,-25.11 205.76,-23.47"/>
<polygon fill="midnightblue" stroke="midnightblue" points="207.15,-26.69 215.02,-19.59 204.45,-20.23 207.15,-26.69"/>
</g>
<!-- Node4 -->
<g id="node4" class="node">
<title>Node4</title>
<g id="a_node4"><a xlink:href="exif-utils_8c.html#a56b96f076a13da6ed926e1ef29cb2dc3" target="_top" xlink:title="Retrieve an ExifSLong value from memory.">
<polygon fill="white" stroke="black" points="391.5,-290.5 391.5,-309.5 479.5,-309.5 479.5,-290.5 391.5,-290.5"/>
<text text-anchor="middle" x="435.5" y="-297.5" font-family="Helvetica,sans-Serif" font-size="10.00">exif_get_slong</text>
</a>
</g>
</g>
<!-- Node3&#45;&gt;Node4 -->
<g id="edge3" class="edge">
<title>Node3&#45;&gt;Node4</title>
<path fill="none" stroke="midnightblue" d="M316.82,-300C336.45,-300 360.22,-300 381.25,-300"/>
<polygon fill="midnightblue" stroke="midnightblue" points="381.33,-303.5 391.32,-300 381.32,-296.5 381.33,-303.5"/>
</g>
<!-- Node6 -->
<g id="node6" class="node">
<title>Node6</title>
<g id="a_node6"><a xlink:href="exif-utils_8c.html#a6baf094a71392f9cea23ad633ec13c8b" target="_top" xlink:title="Retrieve an ExifSShort value from memory.">
<polygon fill="white" stroke="black" points="517,-173.5 517,-192.5 609,-192.5 609,-173.5 517,-173.5"/>
<text text-anchor="middle" x="563" y="-180.5" font-family="Helvetica,sans-Serif" font-size="10.00">exif_get_sshort</text>
</a>
</g>
</g>
<!-- Node5&#45;&gt;Node6 -->
<g id="edge5" class="edge">
<title>Node5&#45;&gt;Node6</title>
<path fill="none" stroke="midnightblue" d="M478.64,-183C487.63,-183 497.26,-183 506.67,-183"/>
<polygon fill="midnightblue" stroke="midnightblue" points="506.74,-186.5 516.74,-183 506.74,-179.5 506.74,-186.5"/>
</g>
<!-- Node8 -->
<g id="node8" class="node">
<title>Node8</title>
<g id="a_node8"><a xlink:href="exif-log_8c.html#a99101b5ad01b2d82ce9d43c9e8534627" target="_top" xlink:title=" ">
<polygon fill="white" stroke="black" points="404.5,-252.5 404.5,-271.5 466.5,-271.5 466.5,-252.5 404.5,-252.5"/>
<text text-anchor="middle" x="435.5" y="-259.5" font-family="Helvetica,sans-Serif" font-size="10.00">exif_logv</text>
</a>
</g>
</g>
<!-- Node7&#45;&gt;Node8 -->
<g id="edge7" class="edge">
<title>Node7&#45;&gt;Node8</title>
<path fill="none" stroke="midnightblue" d="M303.25,-262C328.32,-262 365.81,-262 394.32,-262"/>
<polygon fill="midnightblue" stroke="midnightblue" points="394.37,-265.5 404.37,-262 394.37,-258.5 394.37,-265.5"/>
</g>
<!-- Node11&#45;&gt;Node10 -->
<g id="edge11" class="edge">
<title>Node11&#45;&gt;Node10</title>
<path fill="none" stroke="midnightblue" d="M342.3,-63.2C354.76,-64.93 367.66,-66.72 379.72,-68.4"/>
<polygon fill="midnightblue" stroke="midnightblue" points="379.24,-71.86 389.62,-69.77 380.2,-64.93 379.24,-71.86"/>
</g>
<!-- Node12&#45;&gt;Node5 -->
<g id="edge13" class="edge">
<title>Node12&#45;&gt;Node5</title>
<path fill="none" stroke="midnightblue" d="M334.12,-157.03C351.68,-161.58 370.73,-166.5 387.47,-170.84"/>
<polygon fill="midnightblue" stroke="midnightblue" points="387.01,-174.33 397.56,-173.45 388.76,-167.55 387.01,-174.33"/>
</g>
</g>
</svg>
