<?xml version="1.0" encoding="UTF-8" standalone="no"?>
<!DOCTYPE svg PUBLIC "-//W3C//DTD SVG 1.1//EN"
 "http://www.w3.org/Graphics/SVG/1.1/DTD/svg11.dtd">
<!-- Generated by graphviz version 7.0.1 (0)
 -->
<!-- Title: exif_loader_write Pages: 1 -->
<svg width="513pt" height="101pt"
 viewBox="0.00 0.00 513.00 101.00" xmlns="http://www.w3.org/2000/svg" xmlns:xlink="http://www.w3.org/1999/xlink">
<g id="graph0" class="graph" transform="scale(1 1) rotate(0) translate(4 97)">
<title>exif_loader_write</title>
<!-- Node1 -->
<g id="Node000001" class="node">
<title>Node1</title>
<g id="a_Node000001"><a xlink:title="Load a buffer into the ExifLoader from a memory buffer.">
<polygon fill="#999999" stroke="#666666" points="101,-56 0,-56 0,-37 101,-37 101,-56"/>
<text text-anchor="middle" x="50.5" y="-44" font-family="Helvetica,sans-Serif" font-size="10.00">exif_loader_write</text>
</a>
</g>
</g>
<!-- Node2 -->
<g id="Node000002" class="node">
<title>Node2</title>
<g id="a_Node000002"><a xlink:href="exif-loader_8c.html#ac83d06f410cd71f8ea82f3030707ec19" target="_top" xlink:title=" ">
<polygon fill="white" stroke="#666666" points="237.5,-93 137.5,-93 137.5,-74 237.5,-74 237.5,-93"/>
<text text-anchor="middle" x="187.5" y="-81" font-family="Helvetica,sans-Serif" font-size="10.00">exif_loader_copy</text>
</a>
</g>
</g>
<!-- Node1&#45;&gt;Node2 -->
<g id="edge1_Node000001_Node000002" class="edge">
<title>Node1&#45;&gt;Node2</title>
<g id="a_edge1_Node000001_Node000002"><a xlink:title=" ">
<path fill="none" stroke="#63b8ff" d="M87.68,-56.42C103.57,-60.77 122.43,-65.94 139.4,-70.59"/>
<polygon fill="#63b8ff" stroke="#63b8ff" points="138.19,-73.89 148.76,-73.16 140.04,-67.14 138.19,-73.89"/>
</a>
</g>
</g>
<!-- Node5 -->
<g id="Node000005" class="node">
<title>Node5</title>
<g id="a_Node000005"><a xlink:href="exif-loader_8c.html#a080d8ebb5006c1306a3a798ff60253a5" target="_top" xlink:title="Free any data previously loaded and reset the ExifLoader to its newly&#45;initialized state.">
<polygon fill="white" stroke="#666666" points="238,-56 137,-56 137,-37 238,-37 238,-56"/>
<text text-anchor="middle" x="187.5" y="-44" font-family="Helvetica,sans-Serif" font-size="10.00">exif_loader_reset</text>
</a>
</g>
</g>
<!-- Node1&#45;&gt;Node5 -->
<g id="edge4_Node000001_Node000005" class="edge">
<title>Node1&#45;&gt;Node5</title>
<g id="a_edge4_Node000001_Node000005"><a xlink:title=" ">
<path fill="none" stroke="#63b8ff" d="M101.39,-46.5C109.25,-46.5 117.45,-46.5 125.53,-46.5"/>
<polygon fill="#63b8ff" stroke="#63b8ff" points="125.31,-50 135.31,-46.5 125.31,-43 125.31,-50"/>
</a>
</g>
</g>
<!-- Node7 -->
<g id="Node000007" class="node">
<title>Node7</title>
<g id="a_Node000007"><a xlink:href="exif-log_8c.html#a025d4a5d96544913ea6f6ebbec69cb68" target="_top" xlink:title=" ">
<polygon fill="white" stroke="#666666" points="215.5,-19 159.5,-19 159.5,0 215.5,0 215.5,-19"/>
<text text-anchor="middle" x="187.5" y="-7" font-family="Helvetica,sans-Serif" font-size="10.00">exif_log</text>
</a>
</g>
</g>
<!-- Node1&#45;&gt;Node7 -->
<g id="edge6_Node000001_Node000007" class="edge">
<title>Node1&#45;&gt;Node7</title>
<g id="a_edge6_Node000001_Node000007"><a xlink:title=" ">
<path fill="none" stroke="#63b8ff" d="M87.68,-36.58C106.39,-31.46 129.24,-25.19 148.24,-19.98"/>
<polygon fill="#63b8ff" stroke="#63b8ff" points="149.04,-23.4 157.76,-17.38 147.19,-16.64 149.04,-23.4"/>
</a>
</g>
</g>
<!-- Node3 -->
<g id="Node000003" class="node">
<title>Node3</title>
<g id="a_Node000003"><a xlink:href="exif-loader_8c.html#a50370bbe54fefeb64dd9ac7be9194707" target="_top" xlink:title=" ">
<polygon fill="white" stroke="#666666" points="374,-93 274,-93 274,-74 374,-74 374,-93"/>
<text text-anchor="middle" x="324" y="-81" font-family="Helvetica,sans-Serif" font-size="10.00">exif_loader_alloc</text>
</a>
</g>
</g>
<!-- Node2&#45;&gt;Node3 -->
<g id="edge2_Node000002_Node000003" class="edge">
<title>Node2&#45;&gt;Node3</title>
<g id="a_edge2_Node000002_Node000003"><a xlink:title=" ">
<path fill="none" stroke="#63b8ff" d="M237.82,-83.5C245.77,-83.5 254.08,-83.5 262.26,-83.5"/>
<polygon fill="#63b8ff" stroke="#63b8ff" points="262.17,-87 272.17,-83.5 262.17,-80 262.17,-87"/>
</a>
</g>
</g>
<!-- Node4 -->
<g id="Node000004" class="node">
<title>Node4</title>
<g id="a_Node000004"><a xlink:href="exif-mem_8c.html#a68be7c7afc8cff75adc3b1a28b5ae9a2" target="_top" xlink:title=" ">
<polygon fill="white" stroke="#666666" points="505,-93 410,-93 410,-74 505,-74 505,-93"/>
<text text-anchor="middle" x="457.5" y="-81" font-family="Helvetica,sans-Serif" font-size="10.00">exif_mem_alloc</text>
</a>
</g>
</g>
<!-- Node3&#45;&gt;Node4 -->
<g id="edge3_Node000003_Node000004" class="edge">
<title>Node3&#45;&gt;Node4</title>
<g id="a_edge3_Node000003_Node000004"><a xlink:title=" ">
<path fill="none" stroke="#63b8ff" d="M374.34,-83.5C382.27,-83.5 390.53,-83.5 398.63,-83.5"/>
<polygon fill="#63b8ff" stroke="#63b8ff" points="398.42,-87 408.42,-83.5 398.42,-80 398.42,-87"/>
</a>
</g>
</g>
<!-- Node6 -->
<g id="Node000006" class="node">
<title>Node6</title>
<g id="a_Node000006"><a xlink:href="exif-mem_8c.html#a43190b81b4b4bdb4ffb89bfb612051b1" target="_top" xlink:title=" ">
<polygon fill="white" stroke="#666666" points="369.5,-56 278.5,-56 278.5,-37 369.5,-37 369.5,-56"/>
<text text-anchor="middle" x="324" y="-44" font-family="Helvetica,sans-Serif" font-size="10.00">exif_mem_free</text>
</a>
</g>
</g>
<!-- Node5&#45;&gt;Node6 -->
<g id="edge5_Node000005_Node000006" class="edge">
<title>Node5&#45;&gt;Node6</title>
<g id="a_edge5_Node000005_Node000006"><a xlink:title=" ">
<path fill="none" stroke="#63b8ff" d="M238.2,-46.5C247.56,-46.5 257.42,-46.5 266.96,-46.5"/>
<polygon fill="#63b8ff" stroke="#63b8ff" points="266.88,-50 276.88,-46.5 266.88,-43 266.88,-50"/>
</a>
</g>
</g>
<!-- Node8 -->
<g id="Node000008" class="node">
<title>Node8</title>
<g id="a_Node000008"><a xlink:href="exif-log_8c.html#a99101b5ad01b2d82ce9d43c9e8534627" target="_top" xlink:title=" ">
<polygon fill="white" stroke="#666666" points="355,-19 293,-19 293,0 355,0 355,-19"/>
<text text-anchor="middle" x="324" y="-7" font-family="Helvetica,sans-Serif" font-size="10.00">exif_logv</text>
</a>
</g>
</g>
<!-- Node7&#45;&gt;Node8 -->
<g id="edge7_Node000007_Node000008" class="edge">
<title>Node7&#45;&gt;Node8</title>
<g id="a_edge7_Node000007_Node000008"><a xlink:title=" ">
<path fill="none" stroke="#63b8ff" d="M215.72,-9.5C234.5,-9.5 259.83,-9.5 281.17,-9.5"/>
<polygon fill="#63b8ff" stroke="#63b8ff" points="281.02,-13 291.02,-9.5 281.02,-6 281.02,-13"/>
</a>
</g>
</g>
</g>
</svg>
