<?xml version="1.0" encoding="UTF-8" standalone="no"?>
<!DOCTYPE svg PUBLIC "-//W3C//DTD SVG 1.1//EN"
 "http://www.w3.org/Graphics/SVG/1.1/DTD/svg11.dtd">
<!-- Generated by graphviz version 7.0.1 (0)
 -->
<!-- Title: exif_mem_new_default Pages: 1 -->
<svg width="306pt" height="138pt"
 viewBox="0.00 0.00 306.00 138.00" xmlns="http://www.w3.org/2000/svg" xmlns:xlink="http://www.w3.org/1999/xlink">
<g id="graph0" class="graph" transform="scale(1 1) rotate(0) translate(4 134)">
<title>exif_mem_new_default</title>
<!-- Node1 -->
<g id="Node000001" class="node">
<title>Node1</title>
<g id="a_Node000001"><a xlink:title="Create a new ExifMem with default values for your convenience.">
<polygon fill="#999999" stroke="#666666" points="131,-74 0,-74 0,-55 131,-55 131,-74"/>
<text text-anchor="middle" x="65.5" y="-62" font-family="Helvetica,sans-Serif" font-size="10.00">exif_mem_new_default</text>
</a>
</g>
</g>
<!-- Node2 -->
<g id="Node000002" class="node">
<title>Node2</title>
<g id="a_Node000002"><a xlink:href="exif-mem_8c.html#a9d47487760e137ed23df5e1e79b3d3cd" target="_top" xlink:title="Default memory allocation function.">
<polygon fill="white" stroke="#666666" points="293,-130 172,-130 172,-111 293,-111 293,-130"/>
<text text-anchor="middle" x="232.5" y="-118" font-family="Helvetica,sans-Serif" font-size="10.00">exif_mem_alloc_func</text>
</a>
</g>
</g>
<!-- Node1&#45;&gt;Node2 -->
<g id="edge1_Node000001_Node000002" class="edge">
<title>Node1&#45;&gt;Node2</title>
<g id="a_edge1_Node000001_Node000002"><a xlink:title=" ">
<path fill="none" stroke="#63b8ff" d="M91.06,-74.49C111.28,-82.54 140.77,-93.9 167,-102.5 172.12,-104.18 177.49,-105.84 182.87,-107.43"/>
<polygon fill="#63b8ff" stroke="#63b8ff" points="181.78,-110.76 192.36,-110.17 183.72,-104.03 181.78,-110.76"/>
</a>
</g>
</g>
<!-- Node3 -->
<g id="Node000003" class="node">
<title>Node3</title>
<g id="a_Node000003"><a xlink:href="exif-mem_8c.html#a30e654456ffed5baaf5a23f1d8817aa6" target="_top" xlink:title="Default memory free function.">
<polygon fill="white" stroke="#666666" points="291,-93 174,-93 174,-74 291,-74 291,-93"/>
<text text-anchor="middle" x="232.5" y="-81" font-family="Helvetica,sans-Serif" font-size="10.00">exif_mem_free_func</text>
</a>
</g>
</g>
<!-- Node1&#45;&gt;Node3 -->
<g id="edge2_Node000001_Node000003" class="edge">
<title>Node1&#45;&gt;Node3</title>
<g id="a_edge2_Node000001_Node000003"><a xlink:title=" ">
<path fill="none" stroke="#63b8ff" d="M131.24,-71.95C141.41,-73.13 151.95,-74.34 162.22,-75.52"/>
<polygon fill="#63b8ff" stroke="#63b8ff" points="161.81,-79 172.15,-76.67 162.61,-72.04 161.81,-79"/>
</a>
</g>
</g>
<!-- Node4 -->
<g id="Node000004" class="node">
<title>Node4</title>
<g id="a_Node000004"><a xlink:href="exif-mem_8c.html#a7c75dbf49ec65be9e1aa5b79d79c7ea6" target="_top" xlink:title="Create a new ExifMem.">
<polygon fill="white" stroke="#666666" points="278.5,-56 186.5,-56 186.5,-37 278.5,-37 278.5,-56"/>
<text text-anchor="middle" x="232.5" y="-44" font-family="Helvetica,sans-Serif" font-size="10.00">exif_mem_new</text>
</a>
</g>
</g>
<!-- Node1&#45;&gt;Node4 -->
<g id="edge3_Node000001_Node000004" class="edge">
<title>Node1&#45;&gt;Node4</title>
<g id="a_edge3_Node000001_Node000004"><a xlink:title=" ">
<path fill="none" stroke="#63b8ff" d="M131.24,-57.44C145.7,-55.86 160.93,-54.2 175.02,-52.66"/>
<polygon fill="#63b8ff" stroke="#63b8ff" points="174.98,-56.19 184.55,-51.62 174.23,-49.23 174.98,-56.19"/>
</a>
</g>
</g>
<!-- Node5 -->
<g id="Node000005" class="node">
<title>Node5</title>
<g id="a_Node000005"><a xlink:href="exif-mem_8c.html#a92c900883df8fe466c158d00153404fe" target="_top" xlink:title="Default memory reallocation function.">
<polygon fill="white" stroke="#666666" points="298,-19 167,-19 167,0 298,0 298,-19"/>
<text text-anchor="middle" x="232.5" y="-7" font-family="Helvetica,sans-Serif" font-size="10.00">exif_mem_realloc_func</text>
</a>
</g>
</g>
<!-- Node1&#45;&gt;Node5 -->
<g id="edge4_Node000001_Node000005" class="edge">
<title>Node1&#45;&gt;Node5</title>
<g id="a_edge4_Node000001_Node000005"><a xlink:title=" ">
<path fill="none" stroke="#63b8ff" d="M92.81,-54.61C113,-47.13 141.63,-36.77 167,-28.5 172.9,-26.58 179.12,-24.63 185.29,-22.76"/>
<polygon fill="#63b8ff" stroke="#63b8ff" points="186.21,-26.14 194.79,-19.92 184.2,-19.43 186.21,-26.14"/>
</a>
</g>
</g>
</g>
</svg>
