<?xml version="1.0" encoding="UTF-8" standalone="no"?>
<!DOCTYPE svg PUBLIC "-//W3C//DTD SVG 1.1//EN"
 "http://www.w3.org/Graphics/SVG/1.1/DTD/svg11.dtd">
<!-- Generated by graphviz version 2.44.1 (0)
 -->
<!-- Title: exif_content_unref Pages: 1 -->
<svg width="774pt" height="131pt"
 viewBox="0.00 0.00 774.00 130.86" xmlns="http://www.w3.org/2000/svg" xmlns:xlink="http://www.w3.org/1999/xlink">
<g id="graph0" class="graph" transform="scale(1 1) rotate(0) translate(4 126.86)">
<title>exif_content_unref</title>
<polygon fill="white" stroke="transparent" points="-4,4 -4,-126.86 770,-126.86 770,4 -4,4"/>
<!-- Node1 -->
<g id="node1" class="node">
<title>Node1</title>
<g id="a_node1"><a xlink:title="Decrease reference counter for ExifContent.">
<polygon fill="#bfbfbf" stroke="black" points="0,-57.5 0,-76.5 108,-76.5 108,-57.5 0,-57.5"/>
<text text-anchor="middle" x="54" y="-64.5" font-family="Helvetica,sans-Serif" font-size="10.00">exif_content_unref</text>
</a>
</g>
</g>
<!-- Node2 -->
<g id="node2" class="node">
<title>Node2</title>
<g id="a_node2"><a xlink:href="exif-content_8c.html#af77d27f5949aa4249fd54a5146c28289" target="_top" xlink:title="Actually free the ExifContent.">
<polygon fill="white" stroke="black" points="144,-57.5 144,-76.5 246,-76.5 246,-57.5 144,-57.5"/>
<text text-anchor="middle" x="195" y="-64.5" font-family="Helvetica,sans-Serif" font-size="10.00">exif_content_free</text>
</a>
</g>
</g>
<!-- Node1&#45;&gt;Node2 -->
<g id="edge1" class="edge">
<title>Node1&#45;&gt;Node2</title>
<path fill="none" stroke="midnightblue" d="M108.34,-67C116.62,-67 125.21,-67 133.63,-67"/>
<polygon fill="midnightblue" stroke="midnightblue" points="133.77,-70.5 143.77,-67 133.77,-63.5 133.77,-70.5"/>
</g>
<!-- Node3 -->
<g id="node3" class="node">
<title>Node3</title>
<g id="a_node3"><a xlink:href="exif-entry_8c.html#a82d5d923121488d847d341727cdd2ef4" target="_top" xlink:title="Decrease reference counter for ExifEntry.">
<polygon fill="white" stroke="black" points="282,-76.5 282,-95.5 379,-95.5 379,-76.5 282,-76.5"/>
<text text-anchor="middle" x="330.5" y="-83.5" font-family="Helvetica,sans-Serif" font-size="10.00">exif_entry_unref</text>
</a>
</g>
</g>
<!-- Node2&#45;&gt;Node3 -->
<g id="edge2" class="edge">
<title>Node2&#45;&gt;Node3</title>
<path fill="none" stroke="midnightblue" d="M246.09,-74.13C254.49,-75.32 263.27,-76.57 271.85,-77.79"/>
<polygon fill="midnightblue" stroke="midnightblue" points="271.39,-81.26 281.78,-79.21 272.37,-74.33 271.39,-81.26"/>
</g>
<!-- Node5 -->
<g id="node5" class="node">
<title>Node5</title>
<g id="a_node5"><a xlink:href="exif-mem_8c.html#a43190b81b4b4bdb4ffb89bfb612051b1" target="_top" xlink:title=" ">
<polygon fill="white" stroke="black" points="675,-57.5 675,-76.5 766,-76.5 766,-57.5 675,-57.5"/>
<text text-anchor="middle" x="720.5" y="-64.5" font-family="Helvetica,sans-Serif" font-size="10.00">exif_mem_free</text>
</a>
</g>
</g>
<!-- Node2&#45;&gt;Node5 -->
<g id="edge11" class="edge">
<title>Node2&#45;&gt;Node5</title>
<path fill="none" stroke="midnightblue" d="M212.12,-76.57C228.9,-85.94 256.29,-99.57 282,-105 437.38,-137.8 483.21,-120.82 639,-90 652.75,-87.28 667.56,-83.35 680.68,-79.5"/>
<polygon fill="midnightblue" stroke="midnightblue" points="681.78,-82.83 690.35,-76.59 679.76,-76.12 681.78,-82.83"/>
</g>
<!-- Node6 -->
<g id="node6" class="node">
<title>Node6</title>
<g id="a_node6"><a xlink:href="exif-mem_8c.html#a66744e0987af08c443df247ce55f7d87" target="_top" xlink:title="Unrefcount an ExifMem.">
<polygon fill="white" stroke="black" points="542,-38.5 542,-57.5 639,-57.5 639,-38.5 542,-38.5"/>
<text text-anchor="middle" x="590.5" y="-45.5" font-family="Helvetica,sans-Serif" font-size="10.00">exif_mem_unref</text>
</a>
</g>
</g>
<!-- Node2&#45;&gt;Node6 -->
<g id="edge12" class="edge">
<title>Node2&#45;&gt;Node6</title>
<path fill="none" stroke="midnightblue" d="M246.24,-64.57C319.31,-61.05 454.58,-54.51 531.69,-50.79"/>
<polygon fill="midnightblue" stroke="midnightblue" points="531.89,-54.29 541.71,-50.31 531.56,-47.29 531.89,-54.29"/>
</g>
<!-- Node7 -->
<g id="node7" class="node">
<title>Node7</title>
<g id="a_node7"><a xlink:href="exif-log_8c.html#a7a9b738a7429197d68c80ffedac7d8fb" target="_top" xlink:title=" ">
<polygon fill="white" stroke="black" points="287.5,-0.5 287.5,-19.5 373.5,-19.5 373.5,-0.5 287.5,-0.5"/>
<text text-anchor="middle" x="330.5" y="-7.5" font-family="Helvetica,sans-Serif" font-size="10.00">exif_log_unref</text>
</a>
</g>
</g>
<!-- Node2&#45;&gt;Node7 -->
<g id="edge7" class="edge">
<title>Node2&#45;&gt;Node7</title>
<path fill="none" stroke="midnightblue" d="M218.34,-57.46C240.1,-48.17 273.37,-33.96 297.85,-23.51"/>
<polygon fill="midnightblue" stroke="midnightblue" points="299.26,-26.72 307.08,-19.57 296.51,-20.28 299.26,-26.72"/>
</g>
<!-- Node4 -->
<g id="node4" class="node">
<title>Node4</title>
<g id="a_node4"><a xlink:href="exif-entry_8c.html#a2879215e3863186650d3f32eb63bbaf4" target="_top" xlink:title="Actually free the ExifEntry.">
<polygon fill="white" stroke="black" points="415,-76.5 415,-95.5 506,-95.5 506,-76.5 415,-76.5"/>
<text text-anchor="middle" x="460.5" y="-83.5" font-family="Helvetica,sans-Serif" font-size="10.00">exif_entry_free</text>
</a>
</g>
</g>
<!-- Node3&#45;&gt;Node4 -->
<g id="edge3" class="edge">
<title>Node3&#45;&gt;Node4</title>
<path fill="none" stroke="midnightblue" d="M379.16,-86C387.45,-86 396.13,-86 404.59,-86"/>
<polygon fill="midnightblue" stroke="midnightblue" points="404.77,-89.5 414.77,-86 404.77,-82.5 404.77,-89.5"/>
</g>
<!-- Node4&#45;&gt;Node5 -->
<g id="edge4" class="edge">
<title>Node4&#45;&gt;Node5</title>
<path fill="none" stroke="midnightblue" d="M506.15,-82.71C550.22,-79.47 617.68,-74.5 664.92,-71.02"/>
<polygon fill="midnightblue" stroke="midnightblue" points="665.25,-74.5 674.97,-70.28 664.74,-67.52 665.25,-74.5"/>
</g>
<!-- Node4&#45;&gt;Node6 -->
<g id="edge5" class="edge">
<title>Node4&#45;&gt;Node6</title>
<path fill="none" stroke="midnightblue" d="M493.8,-76.41C510.02,-71.6 529.88,-65.7 547.29,-60.53"/>
<polygon fill="midnightblue" stroke="midnightblue" points="548.62,-63.79 557.21,-57.59 546.63,-57.08 548.62,-63.79"/>
</g>
<!-- Node6&#45;&gt;Node5 -->
<g id="edge6" class="edge">
<title>Node6&#45;&gt;Node5</title>
<path fill="none" stroke="midnightblue" d="M639.16,-55.07C647.54,-56.32 656.32,-57.62 664.87,-58.89"/>
<polygon fill="midnightblue" stroke="midnightblue" points="664.36,-62.35 674.77,-60.36 665.39,-55.43 664.36,-62.35"/>
</g>
<!-- Node8 -->
<g id="node8" class="node">
<title>Node8</title>
<g id="a_node8"><a xlink:href="exif-log_8c.html#acd0808d6d5be73f28059797c2e2e67dc" target="_top" xlink:title="Delete instance of ExifLog.">
<polygon fill="white" stroke="black" points="420.5,-0.5 420.5,-19.5 500.5,-19.5 500.5,-0.5 420.5,-0.5"/>
<text text-anchor="middle" x="460.5" y="-7.5" font-family="Helvetica,sans-Serif" font-size="10.00">exif_log_free</text>
</a>
</g>
</g>
<!-- Node7&#45;&gt;Node8 -->
<g id="edge8" class="edge">
<title>Node7&#45;&gt;Node8</title>
<path fill="none" stroke="midnightblue" d="M373.77,-10C385.37,-10 398.05,-10 410.02,-10"/>
<polygon fill="midnightblue" stroke="midnightblue" points="410.31,-13.5 420.31,-10 410.31,-6.5 410.31,-13.5"/>
</g>
<!-- Node8&#45;&gt;Node5 -->
<g id="edge9" class="edge">
<title>Node8&#45;&gt;Node5</title>
<path fill="none" stroke="midnightblue" d="M500.64,-10.46C537.08,-11.76 592.6,-15.97 639,-29 658.47,-34.47 679.06,-44.27 694.55,-52.55"/>
<polygon fill="midnightblue" stroke="midnightblue" points="693.03,-55.71 703.48,-57.46 696.4,-49.58 693.03,-55.71"/>
</g>
<!-- Node8&#45;&gt;Node6 -->
<g id="edge10" class="edge">
<title>Node8&#45;&gt;Node6</title>
<path fill="none" stroke="midnightblue" d="M493.8,-19.59C510.02,-24.4 529.88,-30.3 547.29,-35.47"/>
<polygon fill="midnightblue" stroke="midnightblue" points="546.63,-38.92 557.21,-38.41 548.62,-32.21 546.63,-38.92"/>
</g>
</g>
</svg>
