<?xml version="1.0" encoding="UTF-8" standalone="no"?>
<!DOCTYPE svg PUBLIC "-//W3C//DTD SVG 1.1//EN"
 "http://www.w3.org/Graphics/SVG/1.1/DTD/svg11.dtd">
<!-- Generated by graphviz version 7.0.1 (0)
 -->
<!-- Title: exif_data_set_byte_order Pages: 1 -->
<svg width="1024pt" height="473pt"
 viewBox="0.00 0.00 1024.00 473.00" xmlns="http://www.w3.org/2000/svg" xmlns:xlink="http://www.w3.org/1999/xlink">
<g id="graph0" class="graph" transform="scale(1 1) rotate(0) translate(4 469)">
<title>exif_data_set_byte_order</title>
<!-- Node1 -->
<g id="Node000001" class="node">
<title>Node1</title>
<g id="a_Node000001"><a xlink:title="Set the byte order to use for this EXIF data.">
<polygon fill="#999999" stroke="#666666" points="110,-183.5 0,-183.5 0,-153.5 110,-153.5 110,-183.5"/>
<text text-anchor="start" x="8" y="-171.5" font-family="Helvetica,sans-Serif" font-size="10.00">exif_data_set_byte</text>
<text text-anchor="middle" x="55" y="-160.5" font-family="Helvetica,sans-Serif" font-size="10.00">_order</text>
</a>
</g>
</g>
<!-- Node2 -->
<g id="Node000002" class="node">
<title>Node2</title>
<g id="a_Node000002"><a xlink:href="exif-data_8c.html#a581ba94d90b37a4bbda154101162dd90" target="_top" xlink:title=" ">
<polygon fill="white" stroke="#666666" points="284.5,-215 153.5,-215 153.5,-196 284.5,-196 284.5,-215"/>
<text text-anchor="middle" x="219" y="-203" font-family="Helvetica,sans-Serif" font-size="10.00">content_set_byte_order</text>
</a>
</g>
</g>
<!-- Node1&#45;&gt;Node2 -->
<g id="edge1_Node000001_Node000002" class="edge">
<title>Node1&#45;&gt;Node2</title>
<g id="a_edge1_Node000001_Node000002"><a xlink:title=" ">
<path fill="none" stroke="#63b8ff" d="M110.39,-180.92C127.44,-184.82 146.24,-189.11 163.31,-193.01"/>
<polygon fill="#63b8ff" stroke="#63b8ff" points="162.23,-196.35 172.75,-195.17 163.78,-189.53 162.23,-196.35"/>
</a>
</g>
</g>
<!-- Node19 -->
<g id="Node000019" class="node">
<title>Node19</title>
<g id="a_Node000019"><a xlink:href="exif-data_8c.html#ad3b39ab4a3117ca9fd7d9a1126b5d879" target="_top" xlink:title="Execute a function on each IFD in turn.">
<polygon fill="white" stroke="#666666" points="292,-178 146,-178 146,-159 292,-159 292,-178"/>
<text text-anchor="middle" x="219" y="-166" font-family="Helvetica,sans-Serif" font-size="10.00">exif_data_foreach_content</text>
</a>
</g>
</g>
<!-- Node1&#45;&gt;Node19 -->
<g id="edge26_Node000001_Node000019" class="edge">
<title>Node1&#45;&gt;Node19</title>
<g id="a_edge26_Node000001_Node000019"><a xlink:title=" ">
<path fill="none" stroke="#63b8ff" d="M110.39,-168.5C118.08,-168.5 126.12,-168.5 134.2,-168.5"/>
<polygon fill="#63b8ff" stroke="#63b8ff" points="134.11,-172 144.11,-168.5 134.11,-165 134.11,-172"/>
</a>
</g>
</g>
<!-- Node20 -->
<g id="Node000020" class="node">
<title>Node20</title>
<g id="a_Node000020"><a xlink:href="exif-mnote-data_8c.html#a4970c2abd01866c4b366064c171cf524" target="_top" xlink:title=" ">
<polygon fill="white" stroke="#666666" points="278.5,-140.5 159.5,-140.5 159.5,-110.5 278.5,-110.5 278.5,-140.5"/>
<text text-anchor="start" x="167.5" y="-128.5" font-family="Helvetica,sans-Serif" font-size="10.00">exif_mnote_data_set</text>
<text text-anchor="middle" x="219" y="-117.5" font-family="Helvetica,sans-Serif" font-size="10.00">_byte_order</text>
</a>
</g>
</g>
<!-- Node1&#45;&gt;Node20 -->
<g id="edge27_Node000001_Node000020" class="edge">
<title>Node1&#45;&gt;Node20</title>
<g id="a_edge27_Node000001_Node000020"><a xlink:title=" ">
<path fill="none" stroke="#63b8ff" d="M110.39,-154.06C122.82,-150.76 136.18,-147.22 149.12,-143.78"/>
<polygon fill="#63b8ff" stroke="#63b8ff" points="149.63,-147.27 158.4,-141.32 147.84,-140.5 149.63,-147.27"/>
</a>
</g>
</g>
<!-- Node3 -->
<g id="Node000003" class="node">
<title>Node3</title>
<g id="a_Node000003"><a xlink:href="exif-data_8c.html#a94ca6e374374d20636e7f72a3605345c" target="_top" xlink:title=" ">
<polygon fill="white" stroke="#666666" points="448,-237 328,-237 328,-218 448,-218 448,-237"/>
<text text-anchor="middle" x="388" y="-225" font-family="Helvetica,sans-Serif" font-size="10.00">entry_set_byte_order</text>
</a>
</g>
</g>
<!-- Node2&#45;&gt;Node3 -->
<g id="edge2_Node000002_Node000003" class="edge">
<title>Node2&#45;&gt;Node3</title>
<g id="a_edge2_Node000002_Node000003"><a xlink:title=" ">
<path fill="none" stroke="#63b8ff" d="M284.57,-214.01C294.95,-215.37 305.74,-216.79 316.26,-218.18"/>
<polygon fill="#63b8ff" stroke="#63b8ff" points="315.65,-221.63 326.02,-219.47 316.57,-214.69 315.65,-221.63"/>
</a>
</g>
</g>
<!-- Node18 -->
<g id="Node000018" class="node">
<title>Node18</title>
<g id="a_Node000018"><a xlink:href="exif-content_8c.html#af7372b1342146e73a9d5b671c717a730" target="_top" xlink:title="Executes function on each EXIF tag in this IFD in turn.">
<polygon fill="white" stroke="#666666" points="447.5,-199.5 328.5,-199.5 328.5,-169.5 447.5,-169.5 447.5,-199.5"/>
<text text-anchor="start" x="336.5" y="-187.5" font-family="Helvetica,sans-Serif" font-size="10.00">exif_content_foreach</text>
<text text-anchor="middle" x="388" y="-176.5" font-family="Helvetica,sans-Serif" font-size="10.00">_entry</text>
</a>
</g>
</g>
<!-- Node2&#45;&gt;Node18 -->
<g id="edge25_Node000002_Node000018" class="edge">
<title>Node2&#45;&gt;Node18</title>
<g id="a_edge25_Node000002_Node000018"><a xlink:title=" ">
<path fill="none" stroke="#63b8ff" d="M284.57,-197.38C295.08,-196.06 306.02,-194.68 316.66,-193.34"/>
<polygon fill="#63b8ff" stroke="#63b8ff" points="317.08,-196.82 326.57,-192.1 316.21,-189.87 317.08,-196.82"/>
</a>
</g>
</g>
<!-- Node4 -->
<g id="Node000004" class="node">
<title>Node4</title>
<g id="a_Node000004"><a xlink:href="exif-utils_8c.html#a54ef3b86ffeb643e9c4434b85ccf2992" target="_top" xlink:title=" ">
<polygon fill="white" stroke="#666666" points="597,-242.5 484,-242.5 484,-212.5 597,-212.5 597,-242.5"/>
<text text-anchor="start" x="492" y="-230.5" font-family="Helvetica,sans-Serif" font-size="10.00">exif_array_set_byte</text>
<text text-anchor="middle" x="540.5" y="-219.5" font-family="Helvetica,sans-Serif" font-size="10.00">_order</text>
</a>
</g>
</g>
<!-- Node3&#45;&gt;Node4 -->
<g id="edge3_Node000003_Node000004" class="edge">
<title>Node3&#45;&gt;Node4</title>
<g id="a_edge3_Node000003_Node000004"><a xlink:title=" ">
<path fill="none" stroke="#63b8ff" d="M448.48,-227.5C456.41,-227.5 464.59,-227.5 472.63,-227.5"/>
<polygon fill="#63b8ff" stroke="#63b8ff" points="472.37,-231 482.37,-227.5 472.37,-224 472.37,-231"/>
</a>
</g>
</g>
<!-- Node5 -->
<g id="Node000005" class="node">
<title>Node5</title>
<g id="a_Node000005"><a xlink:href="exif-format_8c.html#a924038efe0cd8ebade8f44619dd794f3" target="_top" xlink:title="Return the raw size of the given EXIF data type.">
<polygon fill="white" stroke="#666666" points="752,-465 633,-465 633,-446 752,-446 752,-465"/>
<text text-anchor="middle" x="692.5" y="-453" font-family="Helvetica,sans-Serif" font-size="10.00">exif_format_get_size</text>
</a>
</g>
</g>
<!-- Node4&#45;&gt;Node5 -->
<g id="edge4_Node000004_Node000005" class="edge">
<title>Node4&#45;&gt;Node5</title>
<g id="a_edge4_Node000004_Node000005"><a xlink:title=" ">
<path fill="none" stroke="#63b8ff" d="M544.31,-242.79C551.9,-280.06 576.25,-376.55 633,-431.5 636.6,-434.99 640.78,-437.99 645.22,-440.58"/>
<polygon fill="#63b8ff" stroke="#63b8ff" points="643.35,-443.56 653.86,-444.92 646.49,-437.3 643.35,-443.56"/>
</a>
</g>
</g>
<!-- Node6 -->
<g id="Node000006" class="node">
<title>Node6</title>
<g id="a_Node000006"><a xlink:href="exif-utils_8c.html#a4ad94614630897766dd0a5c9bc2a59bf" target="_top" xlink:title="Retrieve an ExifLong value from memory.">
<polygon fill="white" stroke="#666666" points="881.5,-389 798.5,-389 798.5,-370 881.5,-370 881.5,-389"/>
<text text-anchor="middle" x="840" y="-377" font-family="Helvetica,sans-Serif" font-size="10.00">exif_get_long</text>
</a>
</g>
</g>
<!-- Node4&#45;&gt;Node6 -->
<g id="edge5_Node000004_Node000006" class="edge">
<title>Node4&#45;&gt;Node6</title>
<g id="a_edge5_Node000004_Node000006"><a xlink:title=" ">
<path fill="none" stroke="#63b8ff" d="M544.32,-242.97C551.65,-278.14 574.94,-363.72 633,-398.5 687.02,-430.86 763.67,-409.98 806.62,-393.61"/>
<polygon fill="#63b8ff" stroke="#63b8ff" points="807.88,-396.88 815.88,-389.93 805.29,-390.37 807.88,-396.88"/>
</a>
</g>
</g>
<!-- Node7 -->
<g id="Node000007" class="node">
<title>Node7</title>
<g id="a_Node000007"><a xlink:href="exif-utils_8c.html#a56b96f076a13da6ed926e1ef29cb2dc3" target="_top" xlink:title="Retrieve an ExifSLong value from memory.">
<polygon fill="white" stroke="#666666" points="1016,-351 928,-351 928,-332 1016,-332 1016,-351"/>
<text text-anchor="middle" x="972" y="-339" font-family="Helvetica,sans-Serif" font-size="10.00">exif_get_slong</text>
</a>
</g>
</g>
<!-- Node4&#45;&gt;Node7 -->
<g id="edge11_Node000004_Node000007" class="edge">
<title>Node4&#45;&gt;Node7</title>
<g id="a_edge11_Node000004_Node000007"><a xlink:title=" ">
<path fill="none" stroke="#63b8ff" d="M550.76,-242.73C565.19,-264.88 595.33,-305.22 633,-322.5 725.35,-364.87 847.11,-358.68 916.44,-350.19"/>
<polygon fill="#63b8ff" stroke="#63b8ff" points="916.55,-353.71 926.02,-348.96 915.65,-346.77 916.55,-353.71"/>
</a>
</g>
</g>
<!-- Node8 -->
<g id="Node000008" class="node">
<title>Node8</title>
<g id="a_Node000008"><a xlink:href="exif-utils_8c.html#a1feb547c289aa57a4d2119338b03706c" target="_top" xlink:title="Retrieve an ExifRational value from memory.">
<polygon fill="white" stroke="#666666" points="742,-389 643,-389 643,-370 742,-370 742,-389"/>
<text text-anchor="middle" x="692.5" y="-377" font-family="Helvetica,sans-Serif" font-size="10.00">exif_get_rational</text>
</a>
</g>
</g>
<!-- Node4&#45;&gt;Node8 -->
<g id="edge7_Node000004_Node000008" class="edge">
<title>Node4&#45;&gt;Node8</title>
<g id="a_edge7_Node000004_Node000008"><a xlink:title=" ">
<path fill="none" stroke="#63b8ff" d="M548.7,-242.63C561.94,-268.96 592.53,-323.45 633,-355.5 637.51,-359.07 642.63,-362.19 647.91,-364.88"/>
<polygon fill="#63b8ff" stroke="#63b8ff" points="646.23,-367.96 656.78,-368.93 649.14,-361.6 646.23,-367.96"/>
</a>
</g>
</g>
<!-- Node9 -->
<g id="Node000009" class="node">
<title>Node9</title>
<g id="a_Node000009"><a xlink:href="exif-utils_8c.html#a4b4acf537a8c6b9405e7b53be868e4d7" target="_top" xlink:title="Retrieve an ExifShort value from memory.">
<polygon fill="white" stroke="#666666" points="735.5,-313 649.5,-313 649.5,-294 735.5,-294 735.5,-313"/>
<text text-anchor="middle" x="692.5" y="-301" font-family="Helvetica,sans-Serif" font-size="10.00">exif_get_short</text>
</a>
</g>
</g>
<!-- Node4&#45;&gt;Node9 -->
<g id="edge9_Node000004_Node000009" class="edge">
<title>Node4&#45;&gt;Node9</title>
<g id="a_edge9_Node000004_Node000009"><a xlink:title=" ">
<path fill="none" stroke="#63b8ff" d="M566.67,-242.96C584.79,-253.8 610,-268.3 633,-279.5 639.96,-282.89 647.53,-286.23 654.84,-289.3"/>
<polygon fill="#63b8ff" stroke="#63b8ff" points="653.29,-292.45 663.87,-292.99 655.94,-285.97 653.29,-292.45"/>
</a>
</g>
</g>
<!-- Node10 -->
<g id="Node000010" class="node">
<title>Node10</title>
<g id="a_Node000010"><a xlink:href="exif-utils_8c.html#a6baf094a71392f9cea23ad633ec13c8b" target="_top" xlink:title="Retrieve an ExifSShort value from memory.">
<polygon fill="white" stroke="#666666" points="886,-294 794,-294 794,-275 886,-275 886,-294"/>
<text text-anchor="middle" x="840" y="-282" font-family="Helvetica,sans-Serif" font-size="10.00">exif_get_sshort</text>
</a>
</g>
</g>
<!-- Node4&#45;&gt;Node10 -->
<g id="edge14_Node000004_Node000010" class="edge">
<title>Node4&#45;&gt;Node10</title>
<g id="a_edge14_Node000004_Node000010"><a xlink:title=" ">
<path fill="none" stroke="#63b8ff" d="M597.46,-238.22C650.3,-248.35 729.16,-263.46 782.26,-273.63"/>
<polygon fill="#63b8ff" stroke="#63b8ff" points="781.55,-277.06 792.03,-275.5 782.87,-270.18 781.55,-277.06"/>
</a>
</g>
</g>
<!-- Node11 -->
<g id="Node000011" class="node">
<title>Node11</title>
<g id="a_Node000011"><a xlink:href="exif-utils_8c.html#adb97c3499488d5642a82df1cb16dc2cb" target="_top" xlink:title="Retrieve an ExifSRational value from memory.">
<polygon fill="white" stroke="#666666" points="892,-237 788,-237 788,-218 892,-218 892,-237"/>
<text text-anchor="middle" x="840" y="-225" font-family="Helvetica,sans-Serif" font-size="10.00">exif_get_srational</text>
</a>
</g>
</g>
<!-- Node4&#45;&gt;Node11 -->
<g id="edge12_Node000004_Node000011" class="edge">
<title>Node4&#45;&gt;Node11</title>
<g id="a_edge12_Node000004_Node000011"><a xlink:title=" ">
<path fill="none" stroke="#63b8ff" d="M597.46,-227.5C648.42,-227.5 723.58,-227.5 776.5,-227.5"/>
<polygon fill="#63b8ff" stroke="#63b8ff" points="776.25,-231 786.25,-227.5 776.25,-224 776.25,-231"/>
</a>
</g>
</g>
<!-- Node12 -->
<g id="Node000012" class="node">
<title>Node12</title>
<g id="a_Node000012"><a xlink:href="exif-utils_8c.html#ac90147d0cc97bec7a577bf9576191bf8" target="_top" xlink:title="Store an ExifLong value into memory in EXIF format.">
<polygon fill="white" stroke="#666666" points="881,-161 799,-161 799,-142 881,-142 881,-161"/>
<text text-anchor="middle" x="840" y="-149" font-family="Helvetica,sans-Serif" font-size="10.00">exif_set_long</text>
</a>
</g>
</g>
<!-- Node4&#45;&gt;Node12 -->
<g id="edge15_Node000004_Node000012" class="edge">
<title>Node4&#45;&gt;Node12</title>
<g id="a_edge15_Node000004_Node000012"><a xlink:title=" ">
<path fill="none" stroke="#63b8ff" d="M597.46,-213.2C652.5,-199.14 735.76,-177.87 788.74,-164.34"/>
<polygon fill="#63b8ff" stroke="#63b8ff" points="789.61,-167.73 798.43,-161.86 787.87,-160.95 789.61,-167.73"/>
</a>
</g>
</g>
<!-- Node13 -->
<g id="Node000013" class="node">
<title>Node13</title>
<g id="a_Node000013"><a xlink:href="exif-utils_8c.html#ae6e3b9d1663f9ab9bd462d73a310ca03" target="_top" xlink:title="Store an ExifSLong value into memory in EXIF format.">
<polygon fill="white" stroke="#666666" points="1015.5,-123 928.5,-123 928.5,-104 1015.5,-104 1015.5,-123"/>
<text text-anchor="middle" x="972" y="-111" font-family="Helvetica,sans-Serif" font-size="10.00">exif_set_slong</text>
</a>
</g>
</g>
<!-- Node4&#45;&gt;Node13 -->
<g id="edge21_Node000004_Node000013" class="edge">
<title>Node4&#45;&gt;Node13</title>
<g id="a_edge21_Node000004_Node000013"><a xlink:title=" ">
<path fill="none" stroke="#63b8ff" d="M551.05,-212.07C565.63,-190.1 595.72,-150.55 633,-133.5 725.67,-91.11 847.82,-96.96 917.03,-105.15"/>
<polygon fill="#63b8ff" stroke="#63b8ff" points="916.23,-108.58 926.58,-106.35 917.1,-101.63 916.23,-108.58"/>
</a>
</g>
</g>
<!-- Node14 -->
<g id="Node000014" class="node">
<title>Node14</title>
<g id="a_Node000014"><a xlink:href="exif-utils_8c.html#a400a16b1754150f721e9fca67ad89a52" target="_top" xlink:title="Store an ExifRational value into memory in EXIF format.">
<polygon fill="white" stroke="#666666" points="741.5,-161 643.5,-161 643.5,-142 741.5,-142 741.5,-161"/>
<text text-anchor="middle" x="692.5" y="-149" font-family="Helvetica,sans-Serif" font-size="10.00">exif_set_rational</text>
</a>
</g>
</g>
<!-- Node4&#45;&gt;Node14 -->
<g id="edge17_Node000004_Node000014" class="edge">
<title>Node4&#45;&gt;Node14</title>
<g id="a_edge17_Node000004_Node000014"><a xlink:title=" ">
<path fill="none" stroke="#63b8ff" d="M566.67,-212.04C584.79,-201.2 610,-186.7 633,-175.5 639.96,-172.11 647.53,-168.77 654.84,-165.7"/>
<polygon fill="#63b8ff" stroke="#63b8ff" points="655.94,-169.03 663.87,-162.01 653.29,-162.55 655.94,-169.03"/>
</a>
</g>
</g>
<!-- Node15 -->
<g id="Node000015" class="node">
<title>Node15</title>
<g id="a_Node000015"><a xlink:href="exif-utils_8c.html#ad905d16e26b4052a1db34dbebdc37341" target="_top" xlink:title="Store an ExifShort value into memory in EXIF format.">
<polygon fill="white" stroke="#666666" points="735.5,-85 649.5,-85 649.5,-66 735.5,-66 735.5,-85"/>
<text text-anchor="middle" x="692.5" y="-73" font-family="Helvetica,sans-Serif" font-size="10.00">exif_set_short</text>
</a>
</g>
</g>
<!-- Node4&#45;&gt;Node15 -->
<g id="edge19_Node000004_Node000015" class="edge">
<title>Node4&#45;&gt;Node15</title>
<g id="a_edge19_Node000004_Node000015"><a xlink:title=" ">
<path fill="none" stroke="#63b8ff" d="M548.7,-212.37C561.94,-186.04 592.53,-131.55 633,-99.5 637.51,-95.93 642.63,-92.81 647.91,-90.12"/>
<polygon fill="#63b8ff" stroke="#63b8ff" points="649.14,-93.4 656.78,-86.07 646.23,-87.04 649.14,-93.4"/>
</a>
</g>
</g>
<!-- Node16 -->
<g id="Node000016" class="node">
<title>Node16</title>
<g id="a_Node000016"><a xlink:href="exif-utils_8c.html#a6504651147702fc6db9a5cd4aa997023" target="_top" xlink:title="Store an ExifSShort value into memory in EXIF format.">
<polygon fill="white" stroke="#666666" points="885.5,-75 794.5,-75 794.5,-56 885.5,-56 885.5,-75"/>
<text text-anchor="middle" x="840" y="-63" font-family="Helvetica,sans-Serif" font-size="10.00">exif_set_sshort</text>
</a>
</g>
</g>
<!-- Node4&#45;&gt;Node16 -->
<g id="edge24_Node000004_Node000016" class="edge">
<title>Node4&#45;&gt;Node16</title>
<g id="a_edge24_Node000004_Node000016"><a xlink:title=" ">
<path fill="none" stroke="#63b8ff" d="M544.35,-212.12C551.74,-177.15 575.16,-92.05 633,-57.5 684.44,-26.77 756.71,-39.66 800.56,-52.25"/>
<polygon fill="#63b8ff" stroke="#63b8ff" points="799.3,-55.53 809.88,-55.07 801.32,-48.83 799.3,-55.53"/>
</a>
</g>
</g>
<!-- Node17 -->
<g id="Node000017" class="node">
<title>Node17</title>
<g id="a_Node000017"><a xlink:href="exif-utils_8c.html#aca1790a72b1833dff1b0bf728052c3c5" target="_top" xlink:title="Store an ExifSRational value into memory in EXIF format.">
<polygon fill="white" stroke="#666666" points="892,-19 788,-19 788,0 892,0 892,-19"/>
<text text-anchor="middle" x="840" y="-7" font-family="Helvetica,sans-Serif" font-size="10.00">exif_set_srational</text>
</a>
</g>
</g>
<!-- Node4&#45;&gt;Node17 -->
<g id="edge22_Node000004_Node000017" class="edge">
<title>Node4&#45;&gt;Node17</title>
<g id="a_edge22_Node000004_Node000017"><a xlink:title=" ">
<path fill="none" stroke="#63b8ff" d="M543.74,-212.04C550.07,-174.55 571.78,-78.62 633,-34.5 674.05,-4.92 732.06,-0.27 776.07,-2.1"/>
<polygon fill="#63b8ff" stroke="#63b8ff" points="775.82,-5.59 786,-2.65 776.21,1.4 775.82,-5.59"/>
</a>
</g>
</g>
<!-- Node6&#45;&gt;Node7 -->
<g id="edge6_Node000006_Node000007" class="edge">
<title>Node6&#45;&gt;Node7</title>
<g id="a_edge6_Node000006_Node000007"><a xlink:title=" ">
<path fill="none" stroke="#63b8ff" d="M875.16,-369.52C890.83,-364.93 909.62,-359.44 926.39,-354.54"/>
<polygon fill="#63b8ff" stroke="#63b8ff" points="927,-358.01 935.62,-351.84 925.04,-351.29 927,-358.01"/>
</a>
</g>
</g>
<!-- Node8&#45;&gt;Node6 -->
<g id="edge8_Node000008_Node000006" class="edge">
<title>Node8&#45;&gt;Node6</title>
<g id="a_edge8_Node000008_Node000006"><a xlink:title=" ">
<path fill="none" stroke="#63b8ff" d="M742.35,-379.5C756.69,-379.5 772.41,-379.5 786.93,-379.5"/>
<polygon fill="#63b8ff" stroke="#63b8ff" points="786.76,-383 796.76,-379.5 786.76,-376 786.76,-383"/>
</a>
</g>
</g>
<!-- Node9&#45;&gt;Node10 -->
<g id="edge10_Node000009_Node000010" class="edge">
<title>Node9&#45;&gt;Node10</title>
<g id="a_edge10_Node000009_Node000010"><a xlink:title=" ">
<path fill="none" stroke="#63b8ff" d="M735.98,-297.95C750.56,-296.05 767.11,-293.89 782.62,-291.86"/>
<polygon fill="#63b8ff" stroke="#63b8ff" points="782.72,-295.38 792.18,-290.61 781.81,-288.44 782.72,-295.38"/>
</a>
</g>
</g>
<!-- Node11&#45;&gt;Node7 -->
<g id="edge13_Node000011_Node000007" class="edge">
<title>Node11&#45;&gt;Node7</title>
<g id="a_edge13_Node000011_Node000007"><a xlink:title=" ">
<path fill="none" stroke="#63b8ff" d="M854.73,-237.38C865.18,-245.05 879.79,-256.08 892,-266.5 914.1,-285.34 938.11,-308.57 953.79,-324.14"/>
<polygon fill="#63b8ff" stroke="#63b8ff" points="950.96,-326.26 960.51,-330.85 955.91,-321.31 950.96,-326.26"/>
</a>
</g>
</g>
<!-- Node12&#45;&gt;Node13 -->
<g id="edge16_Node000012_Node000013" class="edge">
<title>Node12&#45;&gt;Node13</title>
<g id="a_edge16_Node000012_Node000013"><a xlink:title=" ">
<path fill="none" stroke="#63b8ff" d="M875.16,-141.52C890.83,-136.93 909.62,-131.44 926.39,-126.54"/>
<polygon fill="#63b8ff" stroke="#63b8ff" points="927,-130.01 935.62,-123.84 925.04,-123.29 927,-130.01"/>
</a>
</g>
</g>
<!-- Node14&#45;&gt;Node12 -->
<g id="edge18_Node000014_Node000012" class="edge">
<title>Node14&#45;&gt;Node12</title>
<g id="a_edge18_Node000014_Node000012"><a xlink:title=" ">
<path fill="none" stroke="#63b8ff" d="M741.95,-151.5C756.43,-151.5 772.36,-151.5 787.06,-151.5"/>
<polygon fill="#63b8ff" stroke="#63b8ff" points="787.01,-155 797.01,-151.5 787.01,-148 787.01,-155"/>
</a>
</g>
</g>
<!-- Node15&#45;&gt;Node16 -->
<g id="edge20_Node000015_Node000016" class="edge">
<title>Node15&#45;&gt;Node16</title>
<g id="a_edge20_Node000015_Node000016"><a xlink:title=" ">
<path fill="none" stroke="#63b8ff" d="M735.98,-72.58C750.69,-71.57 767.42,-70.42 783.05,-69.35"/>
<polygon fill="#63b8ff" stroke="#63b8ff" points="782.94,-72.86 792.68,-68.68 782.46,-65.88 782.94,-72.86"/>
</a>
</g>
</g>
<!-- Node17&#45;&gt;Node13 -->
<g id="edge23_Node000017_Node000013" class="edge">
<title>Node17&#45;&gt;Node13</title>
<g id="a_edge23_Node000017_Node000013"><a xlink:title=" ">
<path fill="none" stroke="#63b8ff" d="M854.58,-19.3C864.94,-26.86 879.52,-37.65 892,-47.5 912.52,-63.7 935.39,-82.94 951.22,-96.45"/>
<polygon fill="#63b8ff" stroke="#63b8ff" points="948.63,-98.84 958.5,-102.69 953.19,-93.53 948.63,-98.84"/>
</a>
</g>
</g>
</g>
</svg>
