<?xml version="1.0" encoding="UTF-8" standalone="no"?>
<!DOCTYPE svg PUBLIC "-//W3C//DTD SVG 1.1//EN"
 "http://www.w3.org/Graphics/SVG/1.1/DTD/svg11.dtd">
<!-- Generated by graphviz version 2.44.1 (0)
 -->
<!-- Title: exif_entry_initialize_gps Pages: 1 -->
<svg width="444pt" height="142pt"
 viewBox="0.00 0.00 444.00 142.00" xmlns="http://www.w3.org/2000/svg" xmlns:xlink="http://www.w3.org/1999/xlink">
<g id="graph0" class="graph" transform="scale(1 1) rotate(0) translate(4 138)">
<title>exif_entry_initialize_gps</title>
<polygon fill="white" stroke="transparent" points="-4,4 -4,-138 440,-138 440,4 -4,4"/>
<!-- Node1 -->
<g id="node1" class="node">
<title>Node1</title>
<g id="a_node1"><a xlink:title=" ">
<polygon fill="#bfbfbf" stroke="black" points="0,-57.5 0,-76.5 136,-76.5 136,-57.5 0,-57.5"/>
<text text-anchor="middle" x="68" y="-64.5" font-family="Helvetica,sans-Serif" font-size="10.00">exif_entry_initialize_gps</text>
</a>
</g>
</g>
<!-- Node2 -->
<g id="node2" class="node">
<title>Node2</title>
<g id="a_node2"><a xlink:href="exif-entry_8c.html#a01d57aa3b858af0ffbbef108ed332939" target="_top" xlink:title=" ">
<polygon fill="white" stroke="black" points="198.5,-114.5 198.5,-133.5 269.5,-133.5 269.5,-114.5 198.5,-114.5"/>
<text text-anchor="middle" x="234" y="-121.5" font-family="Helvetica,sans-Serif" font-size="10.00">clear_entry</text>
</a>
</g>
</g>
<!-- Node1&#45;&gt;Node2 -->
<g id="edge1" class="edge">
<title>Node1&#45;&gt;Node2</title>
<path fill="none" stroke="midnightblue" d="M93.85,-76.58C114.63,-84.49 145.11,-95.86 172,-105 178.2,-107.11 184.79,-109.26 191.25,-111.31"/>
<polygon fill="midnightblue" stroke="midnightblue" points="190.65,-114.79 201.24,-114.45 192.75,-108.11 190.65,-114.79"/>
</g>
<!-- Node3 -->
<g id="node3" class="node">
<title>Node3</title>
<g id="a_node3"><a xlink:href="exif-entry_8c.html#a98d6b995e251f09b20036c0c9d66efdf" target="_top" xlink:title=" ">
<polygon fill="white" stroke="black" points="186.5,-76.5 186.5,-95.5 281.5,-95.5 281.5,-76.5 186.5,-76.5"/>
<text text-anchor="middle" x="234" y="-83.5" font-family="Helvetica,sans-Serif" font-size="10.00">exif_entry_alloc</text>
</a>
</g>
</g>
<!-- Node1&#45;&gt;Node3 -->
<g id="edge2" class="edge">
<title>Node1&#45;&gt;Node3</title>
<path fill="none" stroke="midnightblue" d="M136.18,-74.78C149.44,-76.32 163.24,-77.92 176.12,-79.41"/>
<polygon fill="midnightblue" stroke="midnightblue" points="175.89,-82.91 186.23,-80.58 176.69,-75.95 175.89,-82.91"/>
</g>
<!-- Node6 -->
<g id="node6" class="node">
<title>Node6</title>
<g id="a_node6"><a xlink:href="exif-format_8c.html#a924038efe0cd8ebade8f44619dd794f3" target="_top" xlink:title="Return the raw size of the given EXIF data type.">
<polygon fill="white" stroke="black" points="174.5,-38.5 174.5,-57.5 293.5,-57.5 293.5,-38.5 174.5,-38.5"/>
<text text-anchor="middle" x="234" y="-45.5" font-family="Helvetica,sans-Serif" font-size="10.00">exif_format_get_size</text>
</a>
</g>
</g>
<!-- Node1&#45;&gt;Node6 -->
<g id="edge5" class="edge">
<title>Node1&#45;&gt;Node6</title>
<path fill="none" stroke="midnightblue" d="M136.18,-59.22C145.47,-58.14 155.02,-57.03 164.34,-55.95"/>
<polygon fill="midnightblue" stroke="midnightblue" points="164.8,-59.42 174.33,-54.8 163.99,-52.47 164.8,-59.42"/>
</g>
<!-- Node7 -->
<g id="node7" class="node">
<title>Node7</title>
<g id="a_node7"><a xlink:href="exif-gps-ifd_8c.html#a8942365f6de498cca0e81fce8cdf6e83" target="_top" xlink:title=" ">
<polygon fill="white" stroke="black" points="172,-0.5 172,-19.5 296,-19.5 296,-0.5 172,-0.5"/>
<text text-anchor="middle" x="234" y="-7.5" font-family="Helvetica,sans-Serif" font-size="10.00">exif_get_gps_tag_info</text>
</a>
</g>
</g>
<!-- Node1&#45;&gt;Node7 -->
<g id="edge6" class="edge">
<title>Node1&#45;&gt;Node7</title>
<path fill="none" stroke="midnightblue" d="M93.85,-57.42C114.63,-49.51 145.11,-38.14 172,-29 178.2,-26.89 184.79,-24.74 191.25,-22.69"/>
<polygon fill="midnightblue" stroke="midnightblue" points="192.75,-25.89 201.24,-19.55 190.65,-19.21 192.75,-25.89"/>
</g>
<!-- Node4 -->
<g id="node4" class="node">
<title>Node4</title>
<g id="a_node4"><a xlink:href="exif-entry_8c.html#ad5b86e68c3c96618a946a5c6fcd5f394" target="_top" xlink:title=" ">
<polygon fill="white" stroke="black" points="332,-95.5 332,-114.5 436,-114.5 436,-95.5 332,-95.5"/>
<text text-anchor="middle" x="384" y="-102.5" font-family="Helvetica,sans-Serif" font-size="10.00">exif_data_get_log</text>
</a>
</g>
</g>
<!-- Node3&#45;&gt;Node4 -->
<g id="edge3" class="edge">
<title>Node3&#45;&gt;Node4</title>
<path fill="none" stroke="midnightblue" d="M281.83,-92.01C294.52,-93.64 308.44,-95.43 321.79,-97.14"/>
<polygon fill="midnightblue" stroke="midnightblue" points="321.5,-100.63 331.86,-98.43 322.39,-93.69 321.5,-100.63"/>
</g>
<!-- Node5 -->
<g id="node5" class="node">
<title>Node5</title>
<g id="a_node5"><a xlink:href="exif-mem_8c.html#ae8c09cfbcb95e435c4c4b7ec3bbd79e4" target="_top" xlink:title=" ">
<polygon fill="white" stroke="black" points="336.5,-57.5 336.5,-76.5 431.5,-76.5 431.5,-57.5 336.5,-57.5"/>
<text text-anchor="middle" x="384" y="-64.5" font-family="Helvetica,sans-Serif" font-size="10.00">exif_mem_alloc</text>
</a>
</g>
</g>
<!-- Node3&#45;&gt;Node5 -->
<g id="edge4" class="edge">
<title>Node3&#45;&gt;Node5</title>
<path fill="none" stroke="midnightblue" d="M281.83,-79.99C296,-78.17 311.72,-76.15 326.46,-74.26"/>
<polygon fill="midnightblue" stroke="midnightblue" points="327,-77.72 336.48,-72.97 326.11,-70.77 327,-77.72"/>
</g>
</g>
</svg>
