<?xml version="1.0" encoding="UTF-8" standalone="no"?>
<!DOCTYPE svg PUBLIC "-//W3C//DTD SVG 1.1//EN"
 "http://www.w3.org/Graphics/SVG/1.1/DTD/svg11.dtd">
<!-- Generated by graphviz version 2.44.1 (0)
 -->
<!-- Title: exif_log_new Pages: 1 -->
<svg width="423pt" height="256pt"
 viewBox="0.00 0.00 423.00 256.00" xmlns="http://www.w3.org/2000/svg" xmlns:xlink="http://www.w3.org/1999/xlink">
<g id="graph0" class="graph" transform="scale(1 1) rotate(0) translate(4 252)">
<title>exif_log_new</title>
<polygon fill="white" stroke="transparent" points="-4,4 -4,-252 419,-252 419,4 -4,4"/>
<!-- Node1 -->
<g id="node1" class="node">
<title>Node1</title>
<g id="a_node1"><a xlink:title="Create a new logging instance.">
<polygon fill="#bfbfbf" stroke="black" points="0,-95.5 0,-114.5 81,-114.5 81,-95.5 0,-95.5"/>
<text text-anchor="middle" x="40.5" y="-102.5" font-family="Helvetica,sans-Serif" font-size="10.00">exif_log_new</text>
</a>
</g>
</g>
<!-- Node2 -->
<g id="node2" class="node">
<title>Node2</title>
<g id="a_node2"><a xlink:href="exif-log_8c.html#ab81043226e5d0ea2cf2e0869f6063b58" target="_top" xlink:title=" ">
<polygon fill="white" stroke="black" points="126.5,-190.5 126.5,-209.5 238.5,-209.5 238.5,-190.5 126.5,-190.5"/>
<text text-anchor="middle" x="182.5" y="-197.5" font-family="Helvetica,sans-Serif" font-size="10.00">exif_log_new_mem</text>
</a>
</g>
</g>
<!-- Node1&#45;&gt;Node2 -->
<g id="edge1" class="edge">
<title>Node1&#45;&gt;Node2</title>
<path fill="none" stroke="midnightblue" d="M55.69,-114.63C80.01,-131.13 129.83,-164.94 158.95,-184.7"/>
<polygon fill="midnightblue" stroke="midnightblue" points="157.03,-187.62 167.27,-190.34 160.96,-181.83 157.03,-187.62"/>
</g>
<!-- Node5 -->
<g id="node5" class="node">
<title>Node5</title>
<g id="a_node5"><a xlink:href="exif-mem_8c.html#acd2926c29b470c9d43f84567a84d5acb" target="_top" xlink:title="Create a new ExifMem with default values for your convenience.">
<polygon fill="white" stroke="black" points="117,-95.5 117,-114.5 248,-114.5 248,-95.5 117,-95.5"/>
<text text-anchor="middle" x="182.5" y="-102.5" font-family="Helvetica,sans-Serif" font-size="10.00">exif_mem_new_default</text>
</a>
</g>
</g>
<!-- Node1&#45;&gt;Node5 -->
<g id="edge4" class="edge">
<title>Node1&#45;&gt;Node5</title>
<path fill="none" stroke="midnightblue" d="M81.24,-105C89.2,-105 97.81,-105 106.52,-105"/>
<polygon fill="midnightblue" stroke="midnightblue" points="106.76,-108.5 116.76,-105 106.76,-101.5 106.76,-108.5"/>
</g>
<!-- Node10 -->
<g id="node10" class="node">
<title>Node10</title>
<g id="a_node10"><a xlink:href="exif-mem_8c.html#a66744e0987af08c443df247ce55f7d87" target="_top" xlink:title="Unrefcount an ExifMem.">
<polygon fill="white" stroke="black" points="134,-19.5 134,-38.5 231,-38.5 231,-19.5 134,-19.5"/>
<text text-anchor="middle" x="182.5" y="-26.5" font-family="Helvetica,sans-Serif" font-size="10.00">exif_mem_unref</text>
</a>
</g>
</g>
<!-- Node1&#45;&gt;Node10 -->
<g id="edge9" class="edge">
<title>Node1&#45;&gt;Node10</title>
<path fill="none" stroke="midnightblue" d="M59.23,-95.37C83.43,-82.24 126.98,-58.6 155.04,-43.36"/>
<polygon fill="midnightblue" stroke="midnightblue" points="156.79,-46.39 163.91,-38.55 153.45,-40.24 156.79,-46.39"/>
</g>
<!-- Node3 -->
<g id="node3" class="node">
<title>Node3</title>
<g id="a_node3"><a xlink:href="exif-mem_8c.html#ae8c09cfbcb95e435c4c4b7ec3bbd79e4" target="_top" xlink:title=" ">
<polygon fill="white" stroke="black" points="302,-228.5 302,-247.5 397,-247.5 397,-228.5 302,-228.5"/>
<text text-anchor="middle" x="349.5" y="-235.5" font-family="Helvetica,sans-Serif" font-size="10.00">exif_mem_alloc</text>
</a>
</g>
</g>
<!-- Node2&#45;&gt;Node3 -->
<g id="edge2" class="edge">
<title>Node2&#45;&gt;Node3</title>
<path fill="none" stroke="midnightblue" d="M225.14,-209.59C247.01,-214.63 274.01,-220.84 297.16,-226.18"/>
<polygon fill="midnightblue" stroke="midnightblue" points="296.63,-229.65 307.16,-228.48 298.2,-222.82 296.63,-229.65"/>
</g>
<!-- Node4 -->
<g id="node4" class="node">
<title>Node4</title>
<g id="a_node4"><a xlink:href="exif-mem_8c.html#af28c61972f529be46907956e0b3e7a60" target="_top" xlink:title="Refcount an ExifMem.">
<polygon fill="white" stroke="black" points="307,-190.5 307,-209.5 392,-209.5 392,-190.5 307,-190.5"/>
<text text-anchor="middle" x="349.5" y="-197.5" font-family="Helvetica,sans-Serif" font-size="10.00">exif_mem_ref</text>
</a>
</g>
</g>
<!-- Node2&#45;&gt;Node4 -->
<g id="edge3" class="edge">
<title>Node2&#45;&gt;Node4</title>
<path fill="none" stroke="midnightblue" d="M238.9,-200C257.54,-200 278.25,-200 296.6,-200"/>
<polygon fill="midnightblue" stroke="midnightblue" points="296.81,-203.5 306.81,-200 296.81,-196.5 296.81,-203.5"/>
</g>
<!-- Node6 -->
<g id="node6" class="node">
<title>Node6</title>
<g id="a_node6"><a xlink:href="exif-mem_8c.html#ae96feb62e763070ed3d70ca66f15feaa" target="_top" xlink:title="Default memory allocation function.">
<polygon fill="white" stroke="black" points="289,-152.5 289,-171.5 410,-171.5 410,-152.5 289,-152.5"/>
<text text-anchor="middle" x="349.5" y="-159.5" font-family="Helvetica,sans-Serif" font-size="10.00">exif_mem_alloc_func</text>
</a>
</g>
</g>
<!-- Node5&#45;&gt;Node6 -->
<g id="edge5" class="edge">
<title>Node5&#45;&gt;Node6</title>
<path fill="none" stroke="midnightblue" d="M207.28,-114.57C227.53,-122.58 257.48,-134.09 284,-143 290.54,-145.2 297.5,-147.39 304.34,-149.47"/>
<polygon fill="midnightblue" stroke="midnightblue" points="303.62,-152.91 314.21,-152.42 305.63,-146.2 303.62,-152.91"/>
</g>
<!-- Node7 -->
<g id="node7" class="node">
<title>Node7</title>
<g id="a_node7"><a xlink:href="exif-mem_8c.html#a30e654456ffed5baaf5a23f1d8817aa6" target="_top" xlink:title="Default memory free function.">
<polygon fill="white" stroke="black" points="291,-114.5 291,-133.5 408,-133.5 408,-114.5 291,-114.5"/>
<text text-anchor="middle" x="349.5" y="-121.5" font-family="Helvetica,sans-Serif" font-size="10.00">exif_mem_free_func</text>
</a>
</g>
</g>
<!-- Node5&#45;&gt;Node7 -->
<g id="edge6" class="edge">
<title>Node5&#45;&gt;Node7</title>
<path fill="none" stroke="midnightblue" d="M248.24,-112.45C258.91,-113.68 270,-114.96 280.75,-116.2"/>
<polygon fill="midnightblue" stroke="midnightblue" points="280.58,-119.7 290.92,-117.37 281.38,-112.75 280.58,-119.7"/>
</g>
<!-- Node8 -->
<g id="node8" class="node">
<title>Node8</title>
<g id="a_node8"><a xlink:href="exif-mem_8c.html#a5db78241cb6c1752209e8e28f295ea41" target="_top" xlink:title="Create a new ExifMem.">
<polygon fill="white" stroke="black" points="303.5,-76.5 303.5,-95.5 395.5,-95.5 395.5,-76.5 303.5,-76.5"/>
<text text-anchor="middle" x="349.5" y="-83.5" font-family="Helvetica,sans-Serif" font-size="10.00">exif_mem_new</text>
</a>
</g>
</g>
<!-- Node5&#45;&gt;Node8 -->
<g id="edge7" class="edge">
<title>Node5&#45;&gt;Node8</title>
<path fill="none" stroke="midnightblue" d="M248.24,-97.55C263.06,-95.84 278.68,-94.04 293.07,-92.38"/>
<polygon fill="midnightblue" stroke="midnightblue" points="293.77,-95.83 303.3,-91.2 292.97,-88.87 293.77,-95.83"/>
</g>
<!-- Node9 -->
<g id="node9" class="node">
<title>Node9</title>
<g id="a_node9"><a xlink:href="exif-mem_8c.html#ace345dfcefc8f8a8aa04a7f47ab419c9" target="_top" xlink:title="Default memory reallocation function.">
<polygon fill="white" stroke="black" points="284,-38.5 284,-57.5 415,-57.5 415,-38.5 284,-38.5"/>
<text text-anchor="middle" x="349.5" y="-45.5" font-family="Helvetica,sans-Serif" font-size="10.00">exif_mem_realloc_func</text>
</a>
</g>
</g>
<!-- Node5&#45;&gt;Node9 -->
<g id="edge8" class="edge">
<title>Node5&#45;&gt;Node9</title>
<path fill="none" stroke="midnightblue" d="M207.28,-95.43C227.53,-87.42 257.48,-75.91 284,-67 290.54,-64.8 297.5,-62.61 304.34,-60.53"/>
<polygon fill="midnightblue" stroke="midnightblue" points="305.63,-63.8 314.21,-57.58 303.62,-57.09 305.63,-63.8"/>
</g>
<!-- Node11 -->
<g id="node11" class="node">
<title>Node11</title>
<g id="a_node11"><a xlink:href="exif-mem_8c.html#a43190b81b4b4bdb4ffb89bfb612051b1" target="_top" xlink:title=" ">
<polygon fill="white" stroke="black" points="304,-0.5 304,-19.5 395,-19.5 395,-0.5 304,-0.5"/>
<text text-anchor="middle" x="349.5" y="-7.5" font-family="Helvetica,sans-Serif" font-size="10.00">exif_mem_free</text>
</a>
</g>
</g>
<!-- Node10&#45;&gt;Node11 -->
<g id="edge10" class="edge">
<title>Node10&#45;&gt;Node11</title>
<path fill="none" stroke="midnightblue" d="M231.22,-23.5C250.85,-21.24 273.68,-18.62 293.96,-16.28"/>
<polygon fill="midnightblue" stroke="midnightblue" points="294.46,-19.75 303.99,-15.13 293.66,-12.79 294.46,-19.75"/>
</g>
</g>
</svg>
