<?xml version="1.0" encoding="UTF-8" standalone="no"?>
<!DOCTYPE svg PUBLIC "-//W3C//DTD SVG 1.1//EN"
 "http://www.w3.org/Graphics/SVG/1.1/DTD/svg11.dtd">
<!-- Generated by graphviz version 2.44.1 (0)
 -->
<!-- Title: libexif/exif&#45;data&#45;type.h Pages: 1 -->
<svg width="2887pt" height="408pt"
 viewBox="0.00 0.00 2886.58 408.00" xmlns="http://www.w3.org/2000/svg" xmlns:xlink="http://www.w3.org/1999/xlink">
<g id="graph0" class="graph" transform="scale(1 1) rotate(0) translate(4 404)">
<title>libexif/exif&#45;data&#45;type.h</title>
<polygon fill="white" stroke="transparent" points="-4,4 -4,-404 2882.58,-404 2882.58,4 -4,4"/>
<!-- Node1 -->
<g id="node1" class="node">
<title>Node1</title>
<g id="a_node1"><a xlink:title=" ">
<polygon fill="#bfbfbf" stroke="black" points="1746.08,-380.5 1746.08,-399.5 1874.08,-399.5 1874.08,-380.5 1746.08,-380.5"/>
<text text-anchor="middle" x="1810.08" y="-387.5" font-family="Helvetica,sans-Serif" font-size="10.00">libexif/exif&#45;data&#45;type.h</text>
</a>
</g>
</g>
<!-- Node2 -->
<g id="node2" class="node">
<title>Node2</title>
<g id="a_node2"><a xlink:href="exif-data_8h.html" target="_top" xlink:title="Defines the ExifData type and the associated functions.">
<polygon fill="white" stroke="black" points="1324.08,-268.5 1324.08,-287.5 1426.08,-287.5 1426.08,-268.5 1324.08,-268.5"/>
<text text-anchor="middle" x="1375.08" y="-275.5" font-family="Helvetica,sans-Serif" font-size="10.00">libexif/exif&#45;data.h</text>
</a>
</g>
</g>
<!-- Node1&#45;&gt;Node2 -->
<g id="edge1" class="edge">
<title>Node1&#45;&gt;Node2</title>
<path fill="none" stroke="midnightblue" d="M1766.51,-377.98C1679.71,-356.03 1486.86,-307.27 1408.83,-287.53"/>
<polygon fill="midnightblue" stroke="midnightblue" points="1765.75,-381.4 1776.31,-380.46 1767.47,-374.62 1765.75,-381.4"/>
</g>
<!-- Node41 -->
<g id="node41" class="node">
<title>Node41</title>
<g id="a_node41"><a xlink:href="exif-tag_8h.html" target="_top" xlink:title="Handling EXIF tags.">
<polygon fill="white" stroke="black" points="2131.08,-324.5 2131.08,-343.5 2227.08,-343.5 2227.08,-324.5 2131.08,-324.5"/>
<text text-anchor="middle" x="2179.08" y="-331.5" font-family="Helvetica,sans-Serif" font-size="10.00">libexif/exif&#45;tag.h</text>
</a>
</g>
</g>
<!-- Node1&#45;&gt;Node41 -->
<g id="edge59" class="edge">
<title>Node1&#45;&gt;Node41</title>
<path fill="none" stroke="midnightblue" d="M1878.62,-378.97C1951.98,-368.23 2066.48,-351.48 2130.88,-342.05"/>
<polygon fill="midnightblue" stroke="midnightblue" points="1877.94,-375.53 1868.55,-380.44 1878.95,-382.46 1877.94,-375.53"/>
</g>
<!-- Node3 -->
<g id="node3" class="node">
<title>Node3</title>
<g id="a_node3"><a xlink:href="exif-mnote-data-apple_8c.html" target="_top" xlink:title=" ">
<polygon fill="white" stroke="black" points="584.08,-134.5 584.08,-164.5 700.08,-164.5 700.08,-134.5 584.08,-134.5"/>
<text text-anchor="start" x="592.08" y="-152.5" font-family="Helvetica,sans-Serif" font-size="10.00">libexif/apple/exif</text>
<text text-anchor="middle" x="642.08" y="-141.5" font-family="Helvetica,sans-Serif" font-size="10.00">&#45;mnote&#45;data&#45;apple.c</text>
</a>
</g>
</g>
<!-- Node2&#45;&gt;Node3 -->
<g id="edge2" class="edge">
<title>Node2&#45;&gt;Node3</title>
<path fill="none" stroke="midnightblue" d="M1313.7,-275.25C1222.92,-271.74 1047.86,-261.45 902.08,-232 820.47,-215.52 728.18,-183.18 678.47,-164.57"/>
<polygon fill="midnightblue" stroke="midnightblue" points="1313.7,-278.75 1323.82,-275.62 1313.96,-271.75 1313.7,-278.75"/>
</g>
<!-- Node4 -->
<g id="node4" class="node">
<title>Node4</title>
<g id="a_node4"><a xlink:href="exif-mnote-data-apple_8h.html" target="_top" xlink:title=" ">
<polygon fill="white" stroke="black" points="583.58,-201.5 583.58,-231.5 700.58,-231.5 700.58,-201.5 583.58,-201.5"/>
<text text-anchor="start" x="591.58" y="-219.5" font-family="Helvetica,sans-Serif" font-size="10.00">libexif/apple/exif</text>
<text text-anchor="middle" x="642.08" y="-208.5" font-family="Helvetica,sans-Serif" font-size="10.00">&#45;mnote&#45;data&#45;apple.h</text>
</a>
</g>
</g>
<!-- Node2&#45;&gt;Node4 -->
<g id="edge3" class="edge">
<title>Node2&#45;&gt;Node4</title>
<path fill="none" stroke="midnightblue" d="M1313.55,-272.04C1211.02,-263.77 998.72,-246.63 819.08,-232 779.59,-228.78 735.15,-225.14 700.67,-222.31"/>
<polygon fill="midnightblue" stroke="midnightblue" points="1313.47,-275.54 1323.72,-272.86 1314.03,-268.57 1313.47,-275.54"/>
</g>
<!-- Node5 -->
<g id="node5" class="node">
<title>Node5</title>
<g id="a_node5"><a xlink:href="exif-data_8c.html" target="_top" xlink:title=" ">
<polygon fill="white" stroke="black" points="505.58,-6 505.58,-25 606.58,-25 606.58,-6 505.58,-6"/>
<text text-anchor="middle" x="556.08" y="-13" font-family="Helvetica,sans-Serif" font-size="10.00">libexif/exif&#45;data.c</text>
</a>
</g>
</g>
<!-- Node2&#45;&gt;Node5 -->
<g id="edge25" class="edge">
<title>Node2&#45;&gt;Node5</title>
<path fill="none" stroke="midnightblue" d="M1313.74,-277.65C1136.32,-278.97 631.59,-278.57 575.08,-232 511.6,-179.69 542.82,-59.17 553.18,-25.43"/>
<polygon fill="midnightblue" stroke="midnightblue" points="1313.98,-281.15 1323.95,-277.57 1313.92,-274.15 1313.98,-281.15"/>
</g>
<!-- Node6 -->
<g id="node6" class="node">
<title>Node6</title>
<g id="a_node6"><a xlink:href="exif-mnote-data-canon_8c.html" target="_top" xlink:title=" ">
<polygon fill="white" stroke="black" points="56.58,-0.5 56.58,-30.5 175.58,-30.5 175.58,-0.5 56.58,-0.5"/>
<text text-anchor="start" x="64.58" y="-18.5" font-family="Helvetica,sans-Serif" font-size="10.00">libexif/canon/exif</text>
<text text-anchor="middle" x="116.08" y="-7.5" font-family="Helvetica,sans-Serif" font-size="10.00">&#45;mnote&#45;data&#45;canon.c</text>
</a>
</g>
</g>
<!-- Node2&#45;&gt;Node6 -->
<g id="edge6" class="edge">
<title>Node2&#45;&gt;Node6</title>
<path fill="none" stroke="midnightblue" d="M1313.54,-276.29C1080.84,-273.4 262.1,-261.24 149.08,-232 85.38,-215.52 51.5,-221.07 17.08,-165 -5.71,-127.88 -5.67,-104.14 17.08,-67 27.61,-49.81 46.04,-38.23 64.16,-30.56"/>
<polygon fill="midnightblue" stroke="midnightblue" points="1313.81,-279.8 1323.85,-276.42 1313.89,-272.8 1313.81,-279.8"/>
</g>
<!-- Node7 -->
<g id="node7" class="node">
<title>Node7</title>
<g id="a_node7"><a xlink:href="exif-mnote-data-canon_8h.html" target="_top" xlink:title=" ">
<polygon fill="white" stroke="black" points="174.58,-67.5 174.58,-97.5 293.58,-97.5 293.58,-67.5 174.58,-67.5"/>
<text text-anchor="start" x="182.58" y="-85.5" font-family="Helvetica,sans-Serif" font-size="10.00">libexif/canon/exif</text>
<text text-anchor="middle" x="234.08" y="-74.5" font-family="Helvetica,sans-Serif" font-size="10.00">&#45;mnote&#45;data&#45;canon.h</text>
</a>
</g>
</g>
<!-- Node2&#45;&gt;Node7 -->
<g id="edge7" class="edge">
<title>Node2&#45;&gt;Node7</title>
<path fill="none" stroke="midnightblue" d="M1313.73,-277.27C1106.67,-277.76 441.81,-275.86 357.08,-232 308.13,-206.66 316.78,-175.99 281.08,-134 270.37,-121.41 257.55,-107.72 248.01,-97.77"/>
<polygon fill="midnightblue" stroke="midnightblue" points="1313.83,-280.77 1323.82,-277.24 1313.81,-273.77 1313.83,-280.77"/>
</g>
<!-- Node8 -->
<g id="node8" class="node">
<title>Node8</title>
<g id="a_node8"><a xlink:href="mnote-canon-tag_8h.html" target="_top" xlink:title=" ">
<polygon fill="white" stroke="black" points="158.08,-201.5 158.08,-231.5 272.08,-231.5 272.08,-201.5 158.08,-201.5"/>
<text text-anchor="start" x="166.08" y="-219.5" font-family="Helvetica,sans-Serif" font-size="10.00">libexif/canon/mnote</text>
<text text-anchor="middle" x="215.08" y="-208.5" font-family="Helvetica,sans-Serif" font-size="10.00">&#45;canon&#45;tag.h</text>
</a>
</g>
</g>
<!-- Node2&#45;&gt;Node8 -->
<g id="edge10" class="edge">
<title>Node2&#45;&gt;Node8</title>
<path fill="none" stroke="midnightblue" d="M1313.8,-275.76C1114.71,-271.53 487.33,-256.55 286.08,-232 281.58,-231.45 276.95,-230.77 272.3,-230.01"/>
<polygon fill="midnightblue" stroke="midnightblue" points="1314,-279.27 1324.07,-275.98 1314.15,-272.27 1314,-279.27"/>
</g>
<!-- Node12 -->
<g id="node12" class="node">
<title>Node12</title>
<g id="a_node12"><a xlink:href="exif-content_8h.html" target="_top" xlink:title="Handling EXIF IFDs.">
<polygon fill="white" stroke="black" points="2442.58,-207 2442.58,-226 2559.58,-226 2559.58,-207 2442.58,-207"/>
<text text-anchor="middle" x="2501.08" y="-214" font-family="Helvetica,sans-Serif" font-size="10.00">libexif/exif&#45;content.h</text>
</a>
</g>
</g>
<!-- Node2&#45;&gt;Node12 -->
<g id="edge15" class="edge">
<title>Node2&#45;&gt;Node12</title>
<path fill="none" stroke="midnightblue" d="M1436.77,-276.18C1594.92,-273.72 2027.13,-264.4 2386.08,-232 2404.39,-230.35 2424.39,-227.8 2442.56,-225.31"/>
<polygon fill="midnightblue" stroke="midnightblue" points="1436.25,-272.69 1426.31,-276.34 1436.36,-279.69 1436.25,-272.69"/>
</g>
<!-- Node19 -->
<g id="node19" class="node">
<title>Node19</title>
<g id="a_node19"><a xlink:href="test-null_8c.html" target="_top" xlink:title="Pass NULL values into libexif APIs and ensure it doesn&#39;t crash.">
<polygon fill="white" stroke="black" points="1289.58,-73 1289.58,-92 1376.58,-92 1376.58,-73 1289.58,-73"/>
<text text-anchor="middle" x="1333.08" y="-80" font-family="Helvetica,sans-Serif" font-size="10.00">test/test&#45;null.c</text>
</a>
</g>
</g>
<!-- Node2&#45;&gt;Node19 -->
<g id="edge55" class="edge">
<title>Node2&#45;&gt;Node19</title>
<path fill="none" stroke="midnightblue" d="M1313.93,-272.36C1286.69,-266.89 1257,-255.47 1240.08,-232 1232.02,-220.82 1232.77,-212.68 1240.08,-201 1259.48,-169.99 1291.27,-193.59 1314.08,-165 1331.48,-143.2 1333.47,-108.25 1333.37,-92.15"/>
<polygon fill="midnightblue" stroke="midnightblue" points="1313.37,-275.82 1323.82,-274.12 1314.59,-268.93 1313.37,-275.82"/>
</g>
<!-- Node20 -->
<g id="node20" class="node">
<title>Node20</title>
<g id="a_node20"><a xlink:href="exif-loader_8h.html" target="_top" xlink:title="Defines the ExifLoader type.">
<polygon fill="white" stroke="black" points="1005.58,-207 1005.58,-226 1116.58,-226 1116.58,-207 1005.58,-207"/>
<text text-anchor="middle" x="1061.08" y="-214" font-family="Helvetica,sans-Serif" font-size="10.00">libexif/exif&#45;loader.h</text>
</a>
</g>
</g>
<!-- Node2&#45;&gt;Node20 -->
<g id="edge26" class="edge">
<title>Node2&#45;&gt;Node20</title>
<path fill="none" stroke="midnightblue" d="M1316.99,-266.66C1267.51,-257.76 1194.55,-244.43 1131.08,-232 1121.46,-230.12 1111.11,-228.01 1101.4,-226.01"/>
<polygon fill="midnightblue" stroke="midnightblue" points="1316.41,-270.11 1326.87,-268.43 1317.65,-263.22 1316.41,-270.11"/>
</g>
<!-- Node22 -->
<g id="node22" class="node">
<title>Node22</title>
<g id="a_node22"><a xlink:href="test-fuzzer-persistent_8c.html" target="_top" xlink:title=" ">
<polygon fill="white" stroke="black" points="718.58,-140 718.58,-159 869.58,-159 869.58,-140 718.58,-140"/>
<text text-anchor="middle" x="794.08" y="-147" font-family="Helvetica,sans-Serif" font-size="10.00">test/test&#45;fuzzer&#45;persistent.c</text>
</a>
</g>
</g>
<!-- Node2&#45;&gt;Node22 -->
<g id="edge50" class="edge">
<title>Node2&#45;&gt;Node22</title>
<path fill="none" stroke="midnightblue" d="M1313.58,-274.64C1238.01,-270.62 1106.39,-259.93 997.08,-232 925.33,-213.67 845.1,-175.98 810.94,-159.05"/>
<polygon fill="midnightblue" stroke="midnightblue" points="1313.69,-278.15 1323.86,-275.17 1314.05,-271.16 1313.69,-278.15"/>
</g>
<!-- Node23 -->
<g id="node23" class="node">
<title>Node23</title>
<g id="a_node23"><a xlink:href="test-fuzzer_8c.html" target="_top" xlink:title=" ">
<polygon fill="white" stroke="black" points="1092.58,-140 1092.58,-159 1191.58,-159 1191.58,-140 1092.58,-140"/>
<text text-anchor="middle" x="1142.08" y="-147" font-family="Helvetica,sans-Serif" font-size="10.00">test/test&#45;fuzzer.c</text>
</a>
</g>
</g>
<!-- Node2&#45;&gt;Node23 -->
<g id="edge51" class="edge">
<title>Node2&#45;&gt;Node23</title>
<path fill="none" stroke="midnightblue" d="M1313.79,-272.48C1277.17,-267.25 1231.29,-256.03 1197.08,-232 1169.98,-212.96 1152.37,-175.98 1145.43,-159.18"/>
<polygon fill="midnightblue" stroke="midnightblue" points="1313.48,-275.97 1323.85,-273.8 1314.39,-269.03 1313.48,-275.97"/>
</g>
<!-- Node24 -->
<g id="node24" class="node">
<title>Node24</title>
<g id="a_node24"><a xlink:href="test-mem_8c.html" target="_top" xlink:title=" ">
<polygon fill="white" stroke="black" points="1209.58,-140 1209.58,-159 1304.58,-159 1304.58,-140 1209.58,-140"/>
<text text-anchor="middle" x="1257.08" y="-147" font-family="Helvetica,sans-Serif" font-size="10.00">test/test&#45;mem.c</text>
</a>
</g>
</g>
<!-- Node2&#45;&gt;Node24 -->
<g id="edge53" class="edge">
<title>Node2&#45;&gt;Node24</title>
<path fill="none" stroke="midnightblue" d="M1313.9,-268.52C1271.46,-261.24 1220.27,-249.19 1207.08,-232 1187.98,-207.11 1224.33,-174.55 1244.67,-159.21"/>
<polygon fill="midnightblue" stroke="midnightblue" points="1313.48,-272 1323.91,-270.18 1314.62,-265.1 1313.48,-272"/>
</g>
<!-- Node25 -->
<g id="node25" class="node">
<title>Node25</title>
<g id="a_node25"><a xlink:href="exif-mnote-data-fuji_8h.html" target="_top" xlink:title=" ">
<polygon fill="white" stroke="black" points="1249.08,-201.5 1249.08,-231.5 1371.08,-231.5 1371.08,-201.5 1249.08,-201.5"/>
<text text-anchor="start" x="1257.08" y="-219.5" font-family="Helvetica,sans-Serif" font-size="10.00">libexif/fuji/exif&#45;mnote</text>
<text text-anchor="middle" x="1310.08" y="-208.5" font-family="Helvetica,sans-Serif" font-size="10.00">&#45;data&#45;fuji.h</text>
</a>
</g>
</g>
<!-- Node2&#45;&gt;Node25 -->
<g id="edge33" class="edge">
<title>Node2&#45;&gt;Node25</title>
<path fill="none" stroke="midnightblue" d="M1358.3,-261.65C1348.14,-252.35 1335.28,-240.57 1325.4,-231.52"/>
<polygon fill="midnightblue" stroke="midnightblue" points="1356.03,-264.3 1365.77,-268.48 1360.75,-259.14 1356.03,-264.3"/>
</g>
<!-- Node29 -->
<g id="node29" class="node">
<title>Node29</title>
<g id="a_node29"><a xlink:href="mnote-fuji-tag_8h.html" target="_top" xlink:title=" ">
<polygon fill="white" stroke="black" points="1389.58,-201.5 1389.58,-231.5 1490.58,-231.5 1490.58,-201.5 1389.58,-201.5"/>
<text text-anchor="start" x="1397.58" y="-219.5" font-family="Helvetica,sans-Serif" font-size="10.00">libexif/fuji/mnote</text>
<text text-anchor="middle" x="1440.08" y="-208.5" font-family="Helvetica,sans-Serif" font-size="10.00">&#45;fuji&#45;tag.h</text>
</a>
</g>
</g>
<!-- Node2&#45;&gt;Node29 -->
<g id="edge39" class="edge">
<title>Node2&#45;&gt;Node29</title>
<path fill="none" stroke="midnightblue" d="M1391.85,-261.65C1402.01,-252.35 1414.87,-240.57 1424.76,-231.52"/>
<polygon fill="midnightblue" stroke="midnightblue" points="1389.4,-259.14 1384.39,-268.48 1394.13,-264.3 1389.4,-259.14"/>
</g>
<!-- Node31 -->
<g id="node31" class="node">
<title>Node31</title>
<g id="a_node31"><a xlink:href="exif-mnote-data-olympus_8c.html" target="_top" xlink:title=" ">
<polygon fill="white" stroke="black" points="1967.58,-134.5 1967.58,-164.5 2098.58,-164.5 2098.58,-134.5 1967.58,-134.5"/>
<text text-anchor="start" x="1975.58" y="-152.5" font-family="Helvetica,sans-Serif" font-size="10.00">libexif/olympus/exif</text>
<text text-anchor="middle" x="2033.08" y="-141.5" font-family="Helvetica,sans-Serif" font-size="10.00">&#45;mnote&#45;data&#45;olympus.c</text>
</a>
</g>
</g>
<!-- Node2&#45;&gt;Node31 -->
<g id="edge42" class="edge">
<title>Node2&#45;&gt;Node31</title>
<path fill="none" stroke="midnightblue" d="M1417.87,-265.54C1442.76,-257.92 1474.23,-246.63 1500.08,-232 1519.05,-221.27 1517.94,-209.35 1538.08,-201 1576.83,-184.94 1841.77,-164.17 1967.33,-155.09"/>
<polygon fill="midnightblue" stroke="midnightblue" points="1416.57,-262.27 1407.98,-268.48 1418.56,-268.98 1416.57,-262.27"/>
</g>
<!-- Node32 -->
<g id="node32" class="node">
<title>Node32</title>
<g id="a_node32"><a xlink:href="exif-mnote-data-olympus_8h.html" target="_top" xlink:title=" ">
<polygon fill="white" stroke="black" points="2254.08,-201.5 2254.08,-231.5 2386.08,-231.5 2386.08,-201.5 2254.08,-201.5"/>
<text text-anchor="start" x="2262.08" y="-219.5" font-family="Helvetica,sans-Serif" font-size="10.00">libexif/olympus/exif</text>
<text text-anchor="middle" x="2320.08" y="-208.5" font-family="Helvetica,sans-Serif" font-size="10.00">&#45;mnote&#45;data&#45;olympus.h</text>
</a>
</g>
</g>
<!-- Node2&#45;&gt;Node32 -->
<g id="edge43" class="edge">
<title>Node2&#45;&gt;Node32</title>
<path fill="none" stroke="midnightblue" d="M1436.57,-276.76C1579.19,-275.55 1943.36,-268.79 2245.08,-232 2247.97,-231.65 2250.93,-231.25 2253.9,-230.81"/>
<polygon fill="midnightblue" stroke="midnightblue" points="1436.26,-273.26 1426.28,-276.84 1436.31,-280.26 1436.26,-273.26"/>
</g>
<!-- Node33 -->
<g id="node33" class="node">
<title>Node33</title>
<g id="a_node33"><a xlink:href="exif-mnote-data-pentax_8h.html" target="_top" xlink:title=" ">
<polygon fill="white" stroke="black" points="366.08,-201.5 366.08,-231.5 490.08,-231.5 490.08,-201.5 366.08,-201.5"/>
<text text-anchor="start" x="374.08" y="-219.5" font-family="Helvetica,sans-Serif" font-size="10.00">libexif/pentax/exif</text>
<text text-anchor="middle" x="428.08" y="-208.5" font-family="Helvetica,sans-Serif" font-size="10.00">&#45;mnote&#45;data&#45;pentax.h</text>
</a>
</g>
</g>
<!-- Node2&#45;&gt;Node33 -->
<g id="edge46" class="edge">
<title>Node2&#45;&gt;Node33</title>
<path fill="none" stroke="midnightblue" d="M1313.52,-276.71C1170.75,-275.4 806.19,-268.45 504.08,-232 499.54,-231.45 494.87,-230.8 490.18,-230.07"/>
<polygon fill="midnightblue" stroke="midnightblue" points="1313.79,-280.21 1323.82,-276.8 1313.85,-273.21 1313.79,-280.21"/>
</g>
<!-- Node35 -->
<g id="node35" class="node">
<title>Node35</title>
<g id="a_node35"><a xlink:href="test-extract_8c.html" target="_top" xlink:title="Extract EXIF data from a file and write it to another file.">
<polygon fill="white" stroke="black" points="1547.08,-207 1547.08,-226 1651.08,-226 1651.08,-207 1547.08,-207"/>
<text text-anchor="middle" x="1599.08" y="-214" font-family="Helvetica,sans-Serif" font-size="10.00">test/test&#45;extract.c</text>
</a>
</g>
</g>
<!-- Node2&#45;&gt;Node35 -->
<g id="edge49" class="edge">
<title>Node2&#45;&gt;Node35</title>
<path fill="none" stroke="midnightblue" d="M1416.88,-265.9C1460.39,-254.34 1527.57,-236.5 1567.04,-226.01"/>
<polygon fill="midnightblue" stroke="midnightblue" points="1415.94,-262.53 1407.17,-268.48 1417.74,-269.29 1415.94,-262.53"/>
</g>
<!-- Node36 -->
<g id="node36" class="node">
<title>Node36</title>
<g id="a_node36"><a xlink:href="test-gps_8c.html" target="_top" xlink:title=" ">
<polygon fill="white" stroke="black" points="1669.08,-207 1669.08,-226 1755.08,-226 1755.08,-207 1669.08,-207"/>
<text text-anchor="middle" x="1712.08" y="-214" font-family="Helvetica,sans-Serif" font-size="10.00">test/test&#45;gps.c</text>
</a>
</g>
</g>
<!-- Node2&#45;&gt;Node36 -->
<g id="edge52" class="edge">
<title>Node2&#45;&gt;Node36</title>
<path fill="none" stroke="midnightblue" d="M1436.21,-269.42C1494.18,-261.75 1583.54,-248.65 1660.08,-232 1667.77,-230.33 1676.01,-228.19 1683.62,-226.07"/>
<polygon fill="midnightblue" stroke="midnightblue" points="1435.58,-265.98 1426.12,-270.75 1436.49,-272.92 1435.58,-265.98"/>
</g>
<!-- Node37 -->
<g id="node37" class="node">
<title>Node37</title>
<g id="a_node37"><a xlink:href="test-mnote_8c.html" target="_top" xlink:title=" ">
<polygon fill="white" stroke="black" points="1773.58,-207 1773.58,-226 1874.58,-226 1874.58,-207 1773.58,-207"/>
<text text-anchor="middle" x="1824.08" y="-214" font-family="Helvetica,sans-Serif" font-size="10.00">test/test&#45;mnote.c</text>
</a>
</g>
</g>
<!-- Node2&#45;&gt;Node37 -->
<g id="edge54" class="edge">
<title>Node2&#45;&gt;Node37</title>
<path fill="none" stroke="midnightblue" d="M1436.34,-272.24C1513.26,-265.73 1649.1,-252.47 1764.08,-232 1773.15,-230.38 1782.9,-228.22 1791.85,-226.05"/>
<polygon fill="midnightblue" stroke="midnightblue" points="1436.02,-268.75 1426.34,-273.08 1436.6,-275.73 1436.02,-268.75"/>
</g>
<!-- Node38 -->
<g id="node38" class="node">
<title>Node38</title>
<g id="a_node38"><a xlink:href="test-parse-from-data_8c.html" target="_top" xlink:title="Completely parse all files given on the command line.">
<polygon fill="white" stroke="black" points="1892.58,-201.5 1892.58,-231.5 2007.58,-231.5 2007.58,-201.5 1892.58,-201.5"/>
<text text-anchor="start" x="1900.58" y="-219.5" font-family="Helvetica,sans-Serif" font-size="10.00">test/test&#45;parse&#45;from</text>
<text text-anchor="middle" x="1950.08" y="-208.5" font-family="Helvetica,sans-Serif" font-size="10.00">&#45;data.c</text>
</a>
</g>
</g>
<!-- Node2&#45;&gt;Node38 -->
<g id="edge56" class="edge">
<title>Node2&#45;&gt;Node38</title>
<path fill="none" stroke="midnightblue" d="M1436.37,-274.12C1532.3,-269.05 1723.54,-256.63 1884.08,-232 1886.86,-231.57 1889.7,-231.1 1892.57,-230.59"/>
<polygon fill="midnightblue" stroke="midnightblue" points="1436.08,-270.63 1426.27,-274.65 1436.44,-277.62 1436.08,-270.63"/>
</g>
<!-- Node39 -->
<g id="node39" class="node">
<title>Node39</title>
<g id="a_node39"><a xlink:href="test-parse_8c.html" target="_top" xlink:title="Completely parse all files given on the command line.">
<polygon fill="white" stroke="black" points="2026.08,-207 2026.08,-226 2122.08,-226 2122.08,-207 2026.08,-207"/>
<text text-anchor="middle" x="2074.08" y="-214" font-family="Helvetica,sans-Serif" font-size="10.00">test/test&#45;parse.c</text>
</a>
</g>
</g>
<!-- Node2&#45;&gt;Node39 -->
<g id="edge57" class="edge">
<title>Node2&#45;&gt;Node39</title>
<path fill="none" stroke="midnightblue" d="M1436.54,-276.34C1551.33,-274.31 1805.81,-266 2017.08,-232 2026.15,-230.54 2035.89,-228.31 2044.7,-226.04"/>
<polygon fill="midnightblue" stroke="midnightblue" points="1436.14,-272.85 1426.2,-276.52 1436.26,-279.85 1436.14,-272.85"/>
</g>
<!-- Node40 -->
<g id="node40" class="node">
<title>Node40</title>
<g id="a_node40"><a xlink:href="test-value_8c.html" target="_top" xlink:title=" ">
<polygon fill="white" stroke="black" points="2140.08,-207 2140.08,-226 2236.08,-226 2236.08,-207 2140.08,-207"/>
<text text-anchor="middle" x="2188.08" y="-214" font-family="Helvetica,sans-Serif" font-size="10.00">test/test&#45;value.c</text>
</a>
</g>
</g>
<!-- Node2&#45;&gt;Node40 -->
<g id="edge58" class="edge">
<title>Node2&#45;&gt;Node40</title>
<path fill="none" stroke="midnightblue" d="M1436.41,-277.27C1565.68,-276.99 1875.24,-271.79 2131.08,-232 2140.26,-230.57 2150.12,-228.33 2159.01,-226.03"/>
<polygon fill="midnightblue" stroke="midnightblue" points="1436.31,-273.77 1426.31,-277.29 1436.32,-280.77 1436.31,-273.77"/>
</g>
<!-- Node4&#45;&gt;Node3 -->
<g id="edge4" class="edge">
<title>Node4&#45;&gt;Node3</title>
<path fill="none" stroke="midnightblue" d="M642.08,-191.11C642.08,-182.15 642.08,-172.32 642.08,-164.58"/>
<polygon fill="midnightblue" stroke="midnightblue" points="638.58,-191.4 642.08,-201.4 645.58,-191.4 638.58,-191.4"/>
</g>
<!-- Node4&#45;&gt;Node5 -->
<g id="edge5" class="edge">
<title>Node4&#45;&gt;Node5</title>
<path fill="none" stroke="midnightblue" d="M605.21,-195.65C593.75,-187.64 582.25,-177.35 575.08,-165 547.93,-118.25 552.36,-49.43 554.97,-25.27"/>
<polygon fill="midnightblue" stroke="midnightblue" points="603.61,-198.78 613.9,-201.32 607.44,-192.92 603.61,-198.78"/>
</g>
<!-- Node7&#45;&gt;Node5 -->
<g id="edge9" class="edge">
<title>Node7&#45;&gt;Node5</title>
<path fill="none" stroke="midnightblue" d="M303.88,-67.41C367.72,-54.52 460.12,-35.87 513.54,-25.09"/>
<polygon fill="midnightblue" stroke="midnightblue" points="303,-64.02 293.89,-69.43 304.38,-70.88 303,-64.02"/>
</g>
<!-- Node7&#45;&gt;Node6 -->
<g id="edge8" class="edge">
<title>Node7&#45;&gt;Node6</title>
<path fill="none" stroke="midnightblue" d="M199.47,-62.44C180.96,-52.24 158.55,-39.9 141.63,-30.58"/>
<polygon fill="midnightblue" stroke="midnightblue" points="198.03,-65.64 208.47,-67.4 201.4,-59.51 198.03,-65.64"/>
</g>
<!-- Node9 -->
<g id="node9" class="node">
<title>Node9</title>
<g id="a_node9"><a xlink:href="mnote-canon-entry_8h.html" target="_top" xlink:title=" ">
<polygon fill="white" stroke="black" points="26.08,-134.5 26.08,-164.5 140.08,-164.5 140.08,-134.5 26.08,-134.5"/>
<text text-anchor="start" x="34.08" y="-152.5" font-family="Helvetica,sans-Serif" font-size="10.00">libexif/canon/mnote</text>
<text text-anchor="middle" x="83.08" y="-141.5" font-family="Helvetica,sans-Serif" font-size="10.00">&#45;canon&#45;entry.h</text>
</a>
</g>
</g>
<!-- Node8&#45;&gt;Node9 -->
<g id="edge11" class="edge">
<title>Node8&#45;&gt;Node9</title>
<path fill="none" stroke="midnightblue" d="M177.21,-196.85C156.34,-186.58 130.85,-174.03 111.66,-164.58"/>
<polygon fill="midnightblue" stroke="midnightblue" points="175.92,-200.12 186.44,-201.4 179.01,-193.84 175.92,-200.12"/>
</g>
<!-- Node11 -->
<g id="node11" class="node">
<title>Node11</title>
<g id="a_node11"><a xlink:href="mnote-canon-tag_8c.html" target="_top" xlink:title=" ">
<polygon fill="white" stroke="black" points="158.08,-134.5 158.08,-164.5 272.08,-164.5 272.08,-134.5 158.08,-134.5"/>
<text text-anchor="start" x="166.08" y="-152.5" font-family="Helvetica,sans-Serif" font-size="10.00">libexif/canon/mnote</text>
<text text-anchor="middle" x="215.08" y="-141.5" font-family="Helvetica,sans-Serif" font-size="10.00">&#45;canon&#45;tag.c</text>
</a>
</g>
</g>
<!-- Node8&#45;&gt;Node11 -->
<g id="edge14" class="edge">
<title>Node8&#45;&gt;Node11</title>
<path fill="none" stroke="midnightblue" d="M215.08,-191.11C215.08,-182.15 215.08,-172.32 215.08,-164.58"/>
<polygon fill="midnightblue" stroke="midnightblue" points="211.58,-191.4 215.08,-201.4 218.58,-191.4 211.58,-191.4"/>
</g>
<!-- Node9&#45;&gt;Node7 -->
<g id="edge12" class="edge">
<title>Node9&#45;&gt;Node7</title>
<path fill="none" stroke="midnightblue" d="M125.11,-130.41C149.22,-120.03 179.03,-107.2 201.38,-97.58"/>
<polygon fill="midnightblue" stroke="midnightblue" points="123.64,-127.23 115.84,-134.4 126.41,-133.66 123.64,-127.23"/>
</g>
<!-- Node10 -->
<g id="node10" class="node">
<title>Node10</title>
<g id="a_node10"><a xlink:href="mnote-canon-entry_8c.html" target="_top" xlink:title=" ">
<polygon fill="white" stroke="black" points="26.08,-67.5 26.08,-97.5 140.08,-97.5 140.08,-67.5 26.08,-67.5"/>
<text text-anchor="start" x="34.08" y="-85.5" font-family="Helvetica,sans-Serif" font-size="10.00">libexif/canon/mnote</text>
<text text-anchor="middle" x="83.08" y="-74.5" font-family="Helvetica,sans-Serif" font-size="10.00">&#45;canon&#45;entry.c</text>
</a>
</g>
</g>
<!-- Node9&#45;&gt;Node10 -->
<g id="edge13" class="edge">
<title>Node9&#45;&gt;Node10</title>
<path fill="none" stroke="midnightblue" d="M83.08,-124.11C83.08,-115.15 83.08,-105.32 83.08,-97.58"/>
<polygon fill="midnightblue" stroke="midnightblue" points="79.58,-124.4 83.08,-134.4 86.58,-124.4 79.58,-124.4"/>
</g>
<!-- Node12&#45;&gt;Node2 -->
<g id="edge17" class="edge">
<title>Node12&#45;&gt;Node2</title>
<path fill="none" stroke="midnightblue" d="M2444.58,-227.39C2431.34,-229.16 2417.27,-230.81 2404.08,-232 2030.04,-265.76 1576.45,-274.46 1426.1,-276.46"/>
<polygon fill="midnightblue" stroke="midnightblue" points="2445.08,-230.86 2454.51,-226.03 2444.13,-223.92 2445.08,-230.86"/>
</g>
<!-- Node13 -->
<g id="node13" class="node">
<title>Node13</title>
<g id="a_node13"><a xlink:href="exif-content_8c.html" target="_top" xlink:title=" ">
<polygon fill="white" stroke="black" points="2442.08,-140 2442.08,-159 2558.08,-159 2558.08,-140 2442.08,-140"/>
<text text-anchor="middle" x="2500.08" y="-147" font-family="Helvetica,sans-Serif" font-size="10.00">libexif/exif&#45;content.c</text>
</a>
</g>
</g>
<!-- Node12&#45;&gt;Node13 -->
<g id="edge16" class="edge">
<title>Node12&#45;&gt;Node13</title>
<path fill="none" stroke="midnightblue" d="M2500.79,-196.54C2500.6,-184.17 2500.36,-168.62 2500.21,-159.13"/>
<polygon fill="midnightblue" stroke="midnightblue" points="2497.29,-196.79 2500.94,-206.73 2504.29,-196.68 2497.29,-196.79"/>
</g>
<!-- Node14 -->
<g id="node14" class="node">
<title>Node14</title>
<g id="a_node14"><a xlink:href="exif-entry_8h.html" target="_top" xlink:title="Handling EXIF entries.">
<polygon fill="white" stroke="black" points="2576.08,-140 2576.08,-159 2680.08,-159 2680.08,-140 2576.08,-140"/>
<text text-anchor="middle" x="2628.08" y="-147" font-family="Helvetica,sans-Serif" font-size="10.00">libexif/exif&#45;entry.h</text>
</a>
</g>
</g>
<!-- Node12&#45;&gt;Node14 -->
<g id="edge18" class="edge">
<title>Node12&#45;&gt;Node14</title>
<path fill="none" stroke="midnightblue" d="M2522.24,-201.79C2545.67,-188.9 2582.85,-170.02 2606.46,-159.13"/>
<polygon fill="midnightblue" stroke="midnightblue" points="2520.43,-198.79 2513.42,-206.73 2523.85,-204.9 2520.43,-198.79"/>
</g>
<!-- Node14&#45;&gt;Node12 -->
<g id="edge20" class="edge">
<title>Node14&#45;&gt;Node12</title>
<path fill="none" stroke="midnightblue" d="M2607.1,-164.11C2583.69,-176.99 2546.38,-195.94 2522.7,-206.87"/>
<polygon fill="midnightblue" stroke="midnightblue" points="2608.9,-167.11 2615.91,-159.17 2605.48,-161.01 2608.9,-167.11"/>
</g>
<!-- Node15 -->
<g id="node15" class="node">
<title>Node15</title>
<g id="a_node15"><a xlink:href="mnote-apple-entry_8c.html" target="_top" xlink:title=" ">
<polygon fill="white" stroke="black" points="2484.08,-67.5 2484.08,-97.5 2596.08,-97.5 2596.08,-67.5 2484.08,-67.5"/>
<text text-anchor="start" x="2492.08" y="-85.5" font-family="Helvetica,sans-Serif" font-size="10.00">libexif/apple/mnote</text>
<text text-anchor="middle" x="2540.08" y="-74.5" font-family="Helvetica,sans-Serif" font-size="10.00">&#45;apple&#45;entry.c</text>
</a>
</g>
</g>
<!-- Node14&#45;&gt;Node15 -->
<g id="edge19" class="edge">
<title>Node14&#45;&gt;Node15</title>
<path fill="none" stroke="midnightblue" d="M2607.83,-133.54C2593.18,-122.73 2573.52,-108.2 2559.15,-97.59"/>
<polygon fill="midnightblue" stroke="midnightblue" points="2606.09,-136.61 2616.21,-139.73 2610.25,-130.98 2606.09,-136.61"/>
</g>
<!-- Node16 -->
<g id="node16" class="node">
<title>Node16</title>
<g id="a_node16"><a xlink:href="exif-entry_8c.html" target="_top" xlink:title=" ">
<polygon fill="white" stroke="black" points="2362.08,-73 2362.08,-92 2466.08,-92 2466.08,-73 2362.08,-73"/>
<text text-anchor="middle" x="2414.08" y="-80" font-family="Helvetica,sans-Serif" font-size="10.00">libexif/exif&#45;entry.c</text>
</a>
</g>
</g>
<!-- Node14&#45;&gt;Node16 -->
<g id="edge21" class="edge">
<title>Node14&#45;&gt;Node16</title>
<path fill="none" stroke="midnightblue" d="M2589.98,-136.93C2547.61,-124.06 2480.15,-103.57 2442.27,-92.06"/>
<polygon fill="midnightblue" stroke="midnightblue" points="2589.08,-140.31 2599.66,-139.87 2591.11,-133.61 2589.08,-140.31"/>
</g>
<!-- Node17 -->
<g id="node17" class="node">
<title>Node17</title>
<g id="a_node17"><a xlink:href="mnote-olympus-entry_8c.html" target="_top" xlink:title=" ">
<polygon fill="white" stroke="black" points="2614.58,-67.5 2614.58,-97.5 2741.58,-97.5 2741.58,-67.5 2614.58,-67.5"/>
<text text-anchor="start" x="2622.58" y="-85.5" font-family="Helvetica,sans-Serif" font-size="10.00">libexif/olympus/mnote</text>
<text text-anchor="middle" x="2678.08" y="-74.5" font-family="Helvetica,sans-Serif" font-size="10.00">&#45;olympus&#45;entry.c</text>
</a>
</g>
</g>
<!-- Node14&#45;&gt;Node17 -->
<g id="edge22" class="edge">
<title>Node14&#45;&gt;Node17</title>
<path fill="none" stroke="midnightblue" d="M2641.02,-131.67C2649.16,-121.09 2659.54,-107.6 2667.24,-97.59"/>
<polygon fill="midnightblue" stroke="midnightblue" points="2638.14,-129.67 2634.82,-139.73 2643.69,-133.94 2638.14,-129.67"/>
</g>
<!-- Node18 -->
<g id="node18" class="node">
<title>Node18</title>
<g id="a_node18"><a xlink:href="mnote-pentax-entry_8c.html" target="_top" xlink:title=" ">
<polygon fill="white" stroke="black" points="2759.58,-67.5 2759.58,-97.5 2878.58,-97.5 2878.58,-67.5 2759.58,-67.5"/>
<text text-anchor="start" x="2767.58" y="-85.5" font-family="Helvetica,sans-Serif" font-size="10.00">libexif/pentax/mnote</text>
<text text-anchor="middle" x="2819.08" y="-74.5" font-family="Helvetica,sans-Serif" font-size="10.00">&#45;pentax&#45;entry.c</text>
</a>
</g>
</g>
<!-- Node14&#45;&gt;Node18 -->
<g id="edge23" class="edge">
<title>Node14&#45;&gt;Node18</title>
<path fill="none" stroke="midnightblue" d="M2662.95,-136.63C2695.33,-125.61 2743.58,-109.19 2777.86,-97.53"/>
<polygon fill="midnightblue" stroke="midnightblue" points="2661.78,-133.33 2653.44,-139.87 2664.04,-139.96 2661.78,-133.33"/>
</g>
<!-- Node14&#45;&gt;Node19 -->
<g id="edge24" class="edge">
<title>Node14&#45;&gt;Node19</title>
<path fill="none" stroke="midnightblue" d="M2587.76,-137.73C2580.9,-136.24 2573.82,-134.91 2567.08,-134 2110.49,-72.42 1991.13,-122.83 1531.08,-98 1477.9,-95.13 1416.79,-90.44 1376.7,-87.18"/>
<polygon fill="midnightblue" stroke="midnightblue" points="2587.05,-141.16 2597.58,-140 2588.63,-134.34 2587.05,-141.16"/>
</g>
<!-- Node20&#45;&gt;Node5 -->
<g id="edge27" class="edge">
<title>Node20&#45;&gt;Node5</title>
<path fill="none" stroke="midnightblue" d="M1016.23,-204.14C986.91,-195.67 948.4,-182.55 917.08,-165 898.06,-154.34 898.03,-144.77 879.08,-134 781.28,-78.44 652.38,-41 591.21,-25.11"/>
<polygon fill="midnightblue" stroke="midnightblue" points="1015.61,-207.6 1026.19,-206.93 1017.51,-200.86 1015.61,-207.6"/>
</g>
<!-- Node20&#45;&gt;Node19 -->
<g id="edge32" class="edge">
<title>Node20&#45;&gt;Node19</title>
<path fill="none" stroke="midnightblue" d="M1061.07,-196.69C1062.12,-178.06 1066.76,-150.06 1084.08,-134 1113.42,-106.78 1226.32,-92.77 1289.54,-86.92"/>
<polygon fill="midnightblue" stroke="midnightblue" points="1057.56,-196.8 1060.79,-206.89 1064.56,-196.99 1057.56,-196.8"/>
</g>
<!-- Node21 -->
<g id="node21" class="node">
<title>Node21</title>
<g id="a_node21"><a xlink:href="exif-loader_8c.html" target="_top" xlink:title=" ">
<polygon fill="white" stroke="black" points="926.08,-140 926.08,-159 1036.08,-159 1036.08,-140 926.08,-140"/>
<text text-anchor="middle" x="981.08" y="-147" font-family="Helvetica,sans-Serif" font-size="10.00">libexif/exif&#45;loader.c</text>
</a>
</g>
</g>
<!-- Node20&#45;&gt;Node21 -->
<g id="edge28" class="edge">
<title>Node20&#45;&gt;Node21</title>
<path fill="none" stroke="midnightblue" d="M1042.26,-200.21C1026.5,-187.41 1004.57,-169.59 991.7,-159.13"/>
<polygon fill="midnightblue" stroke="midnightblue" points="1040.32,-203.14 1050.29,-206.73 1044.73,-197.71 1040.32,-203.14"/>
</g>
<!-- Node20&#45;&gt;Node22 -->
<g id="edge29" class="edge">
<title>Node20&#45;&gt;Node22</title>
<path fill="none" stroke="midnightblue" d="M1016.16,-204.56C963.52,-191.75 877.4,-170.78 829.34,-159.08"/>
<polygon fill="midnightblue" stroke="midnightblue" points="1015.35,-207.97 1025.9,-206.94 1017.01,-201.17 1015.35,-207.97"/>
</g>
<!-- Node20&#45;&gt;Node23 -->
<g id="edge30" class="edge">
<title>Node20&#45;&gt;Node23</title>
<path fill="none" stroke="midnightblue" d="M1080.13,-200.21C1096.09,-187.41 1118.29,-169.59 1131.33,-159.13"/>
<polygon fill="midnightblue" stroke="midnightblue" points="1077.61,-197.75 1072,-206.73 1081.99,-203.2 1077.61,-197.75"/>
</g>
<!-- Node20&#45;&gt;Node24 -->
<g id="edge31" class="edge">
<title>Node20&#45;&gt;Node24</title>
<path fill="none" stroke="midnightblue" d="M1096.96,-203.6C1135.82,-190.71 1196.85,-170.47 1231.26,-159.06"/>
<polygon fill="midnightblue" stroke="midnightblue" points="1095.5,-200.4 1087.11,-206.87 1097.7,-207.04 1095.5,-200.4"/>
</g>
<!-- Node25&#45;&gt;Node5 -->
<g id="edge34" class="edge">
<title>Node25&#45;&gt;Node5</title>
<path fill="none" stroke="midnightblue" d="M1381.34,-200.05C1429.28,-188.93 1485,-174.31 1492.08,-165 1500.42,-154.03 1498.73,-146.07 1492.08,-134 1465.18,-85.19 1439.12,-84.12 1386.08,-67 1239.94,-19.83 763.46,-16.18 606.63,-16.3"/>
<polygon fill="midnightblue" stroke="midnightblue" points="1380.52,-196.64 1371.56,-202.29 1382.09,-203.46 1380.52,-196.64"/>
</g>
<!-- Node26 -->
<g id="node26" class="node">
<title>Node26</title>
<g id="a_node26"><a xlink:href="exif-mnote-data-fuji_8c.html" target="_top" xlink:title=" ">
<polygon fill="white" stroke="black" points="1361.08,-134.5 1361.08,-164.5 1483.08,-164.5 1483.08,-134.5 1361.08,-134.5"/>
<text text-anchor="start" x="1369.08" y="-152.5" font-family="Helvetica,sans-Serif" font-size="10.00">libexif/fuji/exif&#45;mnote</text>
<text text-anchor="middle" x="1422.08" y="-141.5" font-family="Helvetica,sans-Serif" font-size="10.00">&#45;data&#45;fuji.c</text>
</a>
</g>
</g>
<!-- Node25&#45;&gt;Node26 -->
<g id="edge35" class="edge">
<title>Node25&#45;&gt;Node26</title>
<path fill="none" stroke="midnightblue" d="M1343.17,-196.3C1360.69,-186.12 1381.84,-173.85 1397.82,-164.58"/>
<polygon fill="midnightblue" stroke="midnightblue" points="1341.27,-193.35 1334.38,-201.4 1344.79,-199.4 1341.27,-193.35"/>
</g>
<!-- Node27 -->
<g id="node27" class="node">
<title>Node27</title>
<g id="a_node27"><a xlink:href="mnote-fuji-entry_8h.html" target="_top" xlink:title=" ">
<polygon fill="white" stroke="black" points="1539.58,-134.5 1539.58,-164.5 1640.58,-164.5 1640.58,-134.5 1539.58,-134.5"/>
<text text-anchor="start" x="1547.58" y="-152.5" font-family="Helvetica,sans-Serif" font-size="10.00">libexif/fuji/mnote</text>
<text text-anchor="middle" x="1590.08" y="-141.5" font-family="Helvetica,sans-Serif" font-size="10.00">&#45;fuji&#45;entry.h</text>
</a>
</g>
</g>
<!-- Node25&#45;&gt;Node27 -->
<g id="edge36" class="edge">
<title>Node25&#45;&gt;Node27</title>
<path fill="none" stroke="midnightblue" d="M1374.59,-199.14C1424.69,-187.21 1493.12,-171.39 1539.37,-161.08"/>
<polygon fill="midnightblue" stroke="midnightblue" points="1373.74,-195.75 1364.82,-201.48 1375.36,-202.56 1373.74,-195.75"/>
</g>
<!-- Node27&#45;&gt;Node25 -->
<g id="edge37" class="edge">
<title>Node27&#45;&gt;Node25</title>
<path fill="none" stroke="midnightblue" d="M1529.11,-166.01C1482.32,-177.18 1418.09,-192.06 1371.25,-202.58"/>
<polygon fill="midnightblue" stroke="midnightblue" points="1530.2,-169.35 1539.11,-163.62 1528.57,-162.54 1530.2,-169.35"/>
</g>
<!-- Node28 -->
<g id="node28" class="node">
<title>Node28</title>
<g id="a_node28"><a xlink:href="mnote-fuji-entry_8c.html" target="_top" xlink:title=" ">
<polygon fill="white" stroke="black" points="1539.58,-67.5 1539.58,-97.5 1640.58,-97.5 1640.58,-67.5 1539.58,-67.5"/>
<text text-anchor="start" x="1547.58" y="-85.5" font-family="Helvetica,sans-Serif" font-size="10.00">libexif/fuji/mnote</text>
<text text-anchor="middle" x="1590.08" y="-74.5" font-family="Helvetica,sans-Serif" font-size="10.00">&#45;fuji&#45;entry.c</text>
</a>
</g>
</g>
<!-- Node27&#45;&gt;Node28 -->
<g id="edge38" class="edge">
<title>Node27&#45;&gt;Node28</title>
<path fill="none" stroke="midnightblue" d="M1590.08,-124.11C1590.08,-115.15 1590.08,-105.32 1590.08,-97.58"/>
<polygon fill="midnightblue" stroke="midnightblue" points="1586.58,-124.4 1590.08,-134.4 1593.58,-124.4 1586.58,-124.4"/>
</g>
<!-- Node29&#45;&gt;Node27 -->
<g id="edge40" class="edge">
<title>Node29&#45;&gt;Node27</title>
<path fill="none" stroke="midnightblue" d="M1481.83,-197.41C1505.78,-187.03 1535.4,-174.2 1557.59,-164.58"/>
<polygon fill="midnightblue" stroke="midnightblue" points="1480.41,-194.21 1472.63,-201.4 1483.19,-200.63 1480.41,-194.21"/>
</g>
<!-- Node30 -->
<g id="node30" class="node">
<title>Node30</title>
<g id="a_node30"><a xlink:href="mnote-fuji-tag_8c.html" target="_top" xlink:title=" ">
<polygon fill="white" stroke="black" points="1658.58,-134.5 1658.58,-164.5 1759.58,-164.5 1759.58,-134.5 1658.58,-134.5"/>
<text text-anchor="start" x="1666.58" y="-152.5" font-family="Helvetica,sans-Serif" font-size="10.00">libexif/fuji/mnote</text>
<text text-anchor="middle" x="1709.08" y="-141.5" font-family="Helvetica,sans-Serif" font-size="10.00">&#45;fuji&#45;tag.c</text>
</a>
</g>
</g>
<!-- Node29&#45;&gt;Node30 -->
<g id="edge41" class="edge">
<title>Node29&#45;&gt;Node30</title>
<path fill="none" stroke="midnightblue" d="M1500.38,-201.08C1542.37,-191.02 1599.65,-177.26 1650.08,-165 1652.85,-164.33 1655.69,-163.64 1658.55,-162.94"/>
<polygon fill="midnightblue" stroke="midnightblue" points="1499.5,-197.7 1490.59,-203.43 1501.13,-204.5 1499.5,-197.7"/>
</g>
<!-- Node32&#45;&gt;Node5 -->
<g id="edge44" class="edge">
<title>Node32&#45;&gt;Node5</title>
<path fill="none" stroke="midnightblue" d="M2280.59,-197.27C2238.65,-178.65 2170.01,-150.22 2108.08,-134 1909.07,-81.88 1854.86,-86.66 1650.08,-67 1249.08,-28.51 762.47,-19.14 606.64,-17.05"/>
<polygon fill="midnightblue" stroke="midnightblue" points="2279.33,-200.54 2289.89,-201.44 2282.19,-194.15 2279.33,-200.54"/>
</g>
<!-- Node32&#45;&gt;Node31 -->
<g id="edge45" class="edge">
<title>Node32&#45;&gt;Node31</title>
<path fill="none" stroke="midnightblue" d="M2248.34,-199.25C2201.3,-188.6 2140.4,-174.81 2095.38,-164.61"/>
<polygon fill="midnightblue" stroke="midnightblue" points="2247.63,-202.68 2258.16,-201.48 2249.18,-195.85 2247.63,-202.68"/>
</g>
<!-- Node33&#45;&gt;Node5 -->
<g id="edge47" class="edge">
<title>Node33&#45;&gt;Node5</title>
<path fill="none" stroke="midnightblue" d="M387.25,-196.04C375.33,-188.18 363.72,-177.87 357.08,-165 350.76,-152.76 350.25,-145.97 357.08,-134 392.68,-71.63 475.79,-39.03 522.56,-25.07"/>
<polygon fill="midnightblue" stroke="midnightblue" points="385.57,-199.12 395.93,-201.34 389.22,-193.14 385.57,-199.12"/>
</g>
<!-- Node34 -->
<g id="node34" class="node">
<title>Node34</title>
<g id="a_node34"><a xlink:href="exif-mnote-data-pentax_8c.html" target="_top" xlink:title=" ">
<polygon fill="white" stroke="black" points="366.58,-134.5 366.58,-164.5 489.58,-164.5 489.58,-134.5 366.58,-134.5"/>
<text text-anchor="start" x="374.58" y="-152.5" font-family="Helvetica,sans-Serif" font-size="10.00">libexif/pentax/exif</text>
<text text-anchor="middle" x="428.08" y="-141.5" font-family="Helvetica,sans-Serif" font-size="10.00">&#45;mnote&#45;data&#45;pentax.c</text>
</a>
</g>
</g>
<!-- Node33&#45;&gt;Node34 -->
<g id="edge48" class="edge">
<title>Node33&#45;&gt;Node34</title>
<path fill="none" stroke="midnightblue" d="M428.08,-191.11C428.08,-182.15 428.08,-172.32 428.08,-164.58"/>
<polygon fill="midnightblue" stroke="midnightblue" points="424.58,-191.4 428.08,-201.4 431.58,-191.4 424.58,-191.4"/>
</g>
<!-- Node41&#45;&gt;Node2 -->
<g id="edge61" class="edge">
<title>Node41&#45;&gt;Node2</title>
<path fill="none" stroke="midnightblue" d="M2120.91,-329.09C1970.2,-318.97 1568.88,-292.02 1426.26,-282.44"/>
<polygon fill="midnightblue" stroke="midnightblue" points="2120.68,-332.59 2130.89,-329.76 2121.15,-325.6 2120.68,-332.59"/>
</g>
<!-- Node41&#45;&gt;Node12 -->
<g id="edge60" class="edge">
<title>Node41&#45;&gt;Node12</title>
<path fill="none" stroke="midnightblue" d="M2237.41,-331.74C2315.11,-328.86 2446.87,-319.35 2482.08,-288 2499.88,-272.15 2501.78,-241.56 2501.54,-226.43"/>
<polygon fill="midnightblue" stroke="midnightblue" points="2237.16,-328.25 2227.29,-332.09 2237.4,-335.25 2237.16,-328.25"/>
</g>
<!-- Node42 -->
<g id="node42" class="node">
<title>Node42</title>
<g id="a_node42"><a xlink:href="exif-gps-ifd_8h.html" target="_top" xlink:title="Info about GPS tags.">
<polygon fill="white" stroke="black" points="1999.08,-268.5 1999.08,-287.5 2113.08,-287.5 2113.08,-268.5 1999.08,-268.5"/>
<text text-anchor="middle" x="2056.08" y="-275.5" font-family="Helvetica,sans-Serif" font-size="10.00">libexif/exif&#45;gps&#45;ifd.h</text>
</a>
</g>
</g>
<!-- Node41&#45;&gt;Node42 -->
<g id="edge62" class="edge">
<title>Node41&#45;&gt;Node42</title>
<path fill="none" stroke="midnightblue" d="M2150.3,-320.37C2127.27,-310.26 2095.59,-296.35 2075.48,-287.52"/>
<polygon fill="midnightblue" stroke="midnightblue" points="2149.03,-323.63 2159.59,-324.44 2151.84,-317.22 2149.03,-323.63"/>
</g>
<!-- Node44 -->
<g id="node44" class="node">
<title>Node44</title>
<g id="a_node44"><a xlink:href="exif-tag_8c.html" target="_top" xlink:title=" ">
<polygon fill="white" stroke="black" points="2131.58,-268.5 2131.58,-287.5 2226.58,-287.5 2226.58,-268.5 2131.58,-268.5"/>
<text text-anchor="middle" x="2179.08" y="-275.5" font-family="Helvetica,sans-Serif" font-size="10.00">libexif/exif&#45;tag.c</text>
</a>
</g>
</g>
<!-- Node41&#45;&gt;Node44 -->
<g id="edge65" class="edge">
<title>Node41&#45;&gt;Node44</title>
<path fill="none" stroke="midnightblue" d="M2179.08,-313.8C2179.08,-304.91 2179.08,-294.78 2179.08,-287.75"/>
<polygon fill="midnightblue" stroke="midnightblue" points="2175.58,-314.08 2179.08,-324.08 2182.58,-314.08 2175.58,-314.08"/>
</g>
<!-- Node45 -->
<g id="node45" class="node">
<title>Node45</title>
<g id="a_node45"><a xlink:href="test-sorted_8c.html" target="_top" xlink:title=" ">
<polygon fill="white" stroke="black" points="2245.08,-268.5 2245.08,-287.5 2345.08,-287.5 2345.08,-268.5 2245.08,-268.5"/>
<text text-anchor="middle" x="2295.08" y="-275.5" font-family="Helvetica,sans-Serif" font-size="10.00">test/test&#45;sorted.c</text>
</a>
</g>
</g>
<!-- Node41&#45;&gt;Node45 -->
<g id="edge66" class="edge">
<title>Node41&#45;&gt;Node45</title>
<path fill="none" stroke="midnightblue" d="M2206.8,-320.1C2228.47,-310.01 2257.98,-296.27 2276.78,-287.52"/>
<polygon fill="midnightblue" stroke="midnightblue" points="2205.05,-317.05 2197.46,-324.44 2208,-323.4 2205.05,-317.05"/>
</g>
<!-- Node46 -->
<g id="node46" class="node">
<title>Node46</title>
<g id="a_node46"><a xlink:href="test-tagtable_8c.html" target="_top" xlink:title=" ">
<polygon fill="white" stroke="black" points="2363.08,-268.5 2363.08,-287.5 2473.08,-287.5 2473.08,-268.5 2363.08,-268.5"/>
<text text-anchor="middle" x="2418.08" y="-275.5" font-family="Helvetica,sans-Serif" font-size="10.00">test/test&#45;tagtable.c</text>
</a>
</g>
</g>
<!-- Node41&#45;&gt;Node46 -->
<g id="edge67" class="edge">
<title>Node41&#45;&gt;Node46</title>
<path fill="none" stroke="midnightblue" d="M2226.8,-322.22C2271.96,-312.01 2338.85,-296.9 2380.39,-287.52"/>
<polygon fill="midnightblue" stroke="midnightblue" points="2225.93,-318.83 2216.95,-324.44 2227.47,-325.65 2225.93,-318.83"/>
</g>
<!-- Node42&#45;&gt;Node16 -->
<g id="edge63" class="edge">
<title>Node42&#45;&gt;Node16</title>
<path fill="none" stroke="midnightblue" d="M2122.77,-268.04C2122.87,-268.03 2122.98,-268.01 2123.08,-268 2183.51,-259.94 2352.06,-275.21 2395.08,-232 2433.77,-193.14 2421.59,-117.46 2416.11,-92.05"/>
<polygon fill="midnightblue" stroke="midnightblue" points="2122.55,-264.54 2113.1,-269.33 2123.47,-271.48 2122.55,-264.54"/>
</g>
<!-- Node43 -->
<g id="node43" class="node">
<title>Node43</title>
<g id="a_node43"><a xlink:href="exif-gps-ifd_8c.html" target="_top" xlink:title="Info about GPS tags.">
<polygon fill="white" stroke="black" points="2577.58,-207 2577.58,-226 2690.58,-226 2690.58,-207 2577.58,-207"/>
<text text-anchor="middle" x="2634.08" y="-214" font-family="Helvetica,sans-Serif" font-size="10.00">libexif/exif&#45;gps&#45;ifd.c</text>
</a>
</g>
</g>
<!-- Node42&#45;&gt;Node43 -->
<g id="edge64" class="edge">
<title>Node42&#45;&gt;Node43</title>
<path fill="none" stroke="midnightblue" d="M2123.64,-268.01C2322.56,-247.24 2375.71,-261.23 2569.08,-232 2579.14,-230.48 2589.96,-228.29 2599.84,-226.07"/>
<polygon fill="midnightblue" stroke="midnightblue" points="2123.01,-264.56 2113.44,-269.09 2123.75,-271.52 2123.01,-264.56"/>
</g>
</g>
</svg>
