<?xml version="1.0" encoding="UTF-8" standalone="no"?>
<!DOCTYPE svg PUBLIC "-//W3C//DTD SVG 1.1//EN"
 "http://www.w3.org/Graphics/SVG/1.1/DTD/svg11.dtd">
<!-- Generated by graphviz version 7.0.1 (0)
 -->
<!-- Title: libexif/exif&#45;data.h Pages: 1 -->
<svg width="2795pt" height="291pt"
 viewBox="0.00 0.00 2794.50 291.00" xmlns="http://www.w3.org/2000/svg" xmlns:xlink="http://www.w3.org/1999/xlink">
<g id="graph0" class="graph" transform="scale(1 1) rotate(0) translate(4 287)">
<title>libexif/exif&#45;data.h</title>
<!-- Node1 -->
<g id="Node000001" class="node">
<title>Node1</title>
<g id="a_Node000001"><a xlink:title="Defines the ExifData type and the associated functions.">
<polygon fill="#999999" stroke="#666666" points="1592.5,-283 1490.5,-283 1490.5,-264 1592.5,-264 1592.5,-283"/>
<text text-anchor="middle" x="1541.5" y="-271" font-family="Helvetica,sans-Serif" font-size="10.00">libexif/exif&#45;data.h</text>
</a>
</g>
</g>
<!-- Node2 -->
<g id="Node000002" class="node">
<title>Node2</title>
<g id="a_Node000002"><a xlink:href="exif-mnote-data-apple_8c.html" target="_top" xlink:title=" ">
<polygon fill="white" stroke="#666666" points="136.5,-162 20.5,-162 20.5,-132 136.5,-132 136.5,-162"/>
<text text-anchor="start" x="28.5" y="-150" font-family="Helvetica,sans-Serif" font-size="10.00">libexif/apple/exif</text>
<text text-anchor="middle" x="78.5" y="-139" font-family="Helvetica,sans-Serif" font-size="10.00">&#45;mnote&#45;data&#45;apple.c</text>
</a>
</g>
</g>
<!-- Node1&#45;&gt;Node2 -->
<g id="edge1_Node000001_Node000002" class="edge">
<title>Node1&#45;&gt;Node2</title>
<g id="a_edge1_Node000001_Node000002"><a xlink:title=" ">
<path fill="none" stroke="#63b8ff" d="M1478.84,-272.95C1226.44,-274.41 292,-276.47 169.5,-228 151.7,-220.96 113.22,-183.49 92.45,-162.42"/>
<polygon fill="#63b8ff" stroke="#63b8ff" points="1478.84,-276.45 1488.82,-272.89 1478.8,-269.45 1478.84,-276.45"/>
</a>
</g>
</g>
<!-- Node3 -->
<g id="Node000003" class="node">
<title>Node3</title>
<g id="a_Node000003"><a xlink:href="exif-mnote-data-apple_8h.html" target="_top" xlink:title=" ">
<polygon fill="white" stroke="#666666" points="117,-228 0,-228 0,-198 117,-198 117,-228"/>
<text text-anchor="start" x="8" y="-216" font-family="Helvetica,sans-Serif" font-size="10.00">libexif/apple/exif</text>
<text text-anchor="middle" x="58.5" y="-205" font-family="Helvetica,sans-Serif" font-size="10.00">&#45;mnote&#45;data&#45;apple.h</text>
</a>
</g>
</g>
<!-- Node1&#45;&gt;Node3 -->
<g id="edge2_Node000001_Node000003" class="edge">
<title>Node1&#45;&gt;Node3</title>
<g id="a_edge2_Node000001_Node000003"><a xlink:title=" ">
<path fill="none" stroke="#63b8ff" d="M1478.88,-271.84C1241.66,-269.13 398.24,-257.6 131.5,-228 126.88,-227.49 122.12,-226.84 117.35,-226.11"/>
<polygon fill="#63b8ff" stroke="#63b8ff" points="1478.49,-275.34 1488.53,-271.95 1478.57,-268.34 1478.49,-275.34"/>
</a>
</g>
</g>
<!-- Node4 -->
<g id="Node000004" class="node">
<title>Node4</title>
<g id="a_Node000004"><a xlink:href="exif-mnote-data-canon_8c.html" target="_top" xlink:title=" ">
<polygon fill="white" stroke="#666666" points="287,-30 168,-30 168,0 287,0 287,-30"/>
<text text-anchor="start" x="176" y="-18" font-family="Helvetica,sans-Serif" font-size="10.00">libexif/canon/exif</text>
<text text-anchor="middle" x="227.5" y="-7" font-family="Helvetica,sans-Serif" font-size="10.00">&#45;mnote&#45;data&#45;canon.c</text>
</a>
</g>
</g>
<!-- Node1&#45;&gt;Node4 -->
<g id="edge4_Node000001_Node000004" class="edge">
<title>Node1&#45;&gt;Node4</title>
<g id="a_edge4_Node000001_Node000004"><a xlink:title=" ">
<path fill="none" stroke="#63b8ff" d="M1478.67,-272.98C1244.64,-274.39 431.61,-275.78 326.5,-228 253.22,-194.69 232.14,-170.84 202.5,-96 193.61,-73.54 206.76,-46.57 217.11,-30.38"/>
<polygon fill="#63b8ff" stroke="#63b8ff" points="1478.53,-276.48 1488.51,-272.92 1478.48,-269.48 1478.53,-276.48"/>
</a>
</g>
</g>
<!-- Node5 -->
<g id="Node000005" class="node">
<title>Node5</title>
<g id="a_Node000005"><a xlink:href="exif-mnote-data-canon_8h.html" target="_top" xlink:title=" ">
<polygon fill="white" stroke="#666666" points="331,-96 212,-96 212,-66 331,-66 331,-96"/>
<text text-anchor="start" x="220" y="-84" font-family="Helvetica,sans-Serif" font-size="10.00">libexif/canon/exif</text>
<text text-anchor="middle" x="271.5" y="-73" font-family="Helvetica,sans-Serif" font-size="10.00">&#45;mnote&#45;data&#45;canon.h</text>
</a>
</g>
</g>
<!-- Node1&#45;&gt;Node5 -->
<g id="edge5_Node000001_Node000005" class="edge">
<title>Node1&#45;&gt;Node5</title>
<g id="a_edge5_Node000001_Node000005"><a xlink:title=" ">
<path fill="none" stroke="#63b8ff" d="M1478.97,-271.55C1258.43,-267.99 524.71,-254.28 422.5,-228 358.98,-211.66 331.24,-213.41 290.5,-162 275.34,-142.87 271.95,-113.6 271.38,-96.27"/>
<polygon fill="#63b8ff" stroke="#63b8ff" points="1478.74,-275.05 1488.79,-271.71 1478.85,-268.05 1478.74,-275.05"/>
</a>
</g>
</g>
<!-- Node6 -->
<g id="Node000006" class="node">
<title>Node6</title>
<g id="a_Node000006"><a xlink:href="exif-data_8c.html" target="_top" xlink:title=" ">
<polygon fill="white" stroke="#666666" points="1408,-24.5 1307,-24.5 1307,-5.5 1408,-5.5 1408,-24.5"/>
<text text-anchor="middle" x="1357.5" y="-12.5" font-family="Helvetica,sans-Serif" font-size="10.00">libexif/exif&#45;data.c</text>
</a>
</g>
</g>
<!-- Node1&#45;&gt;Node6 -->
<g id="edge23_Node000001_Node000006" class="edge">
<title>Node1&#45;&gt;Node6</title>
<g id="a_edge23_Node000001_Node000006"><a xlink:title=" ">
<path fill="none" stroke="#63b8ff" d="M1479.02,-262.14C1387.38,-245.5 1223.73,-209.76 1190.5,-162 1146.62,-98.93 1272.55,-45.5 1330.28,-24.98"/>
<polygon fill="#63b8ff" stroke="#63b8ff" points="1478.15,-265.54 1488.61,-263.86 1479.38,-258.65 1478.15,-265.54"/>
</a>
</g>
</g>
<!-- Node7 -->
<g id="Node000007" class="node">
<title>Node7</title>
<g id="a_Node000007"><a xlink:href="mnote-canon-tag_8h.html" target="_top" xlink:title=" ">
<polygon fill="white" stroke="#666666" points="545.5,-228 431.5,-228 431.5,-198 545.5,-198 545.5,-228"/>
<text text-anchor="start" x="439.5" y="-216" font-family="Helvetica,sans-Serif" font-size="10.00">libexif/canon/mnote</text>
<text text-anchor="middle" x="488.5" y="-205" font-family="Helvetica,sans-Serif" font-size="10.00">&#45;canon&#45;tag.h</text>
</a>
</g>
</g>
<!-- Node1&#45;&gt;Node7 -->
<g id="edge8_Node000001_Node000007" class="edge">
<title>Node1&#45;&gt;Node7</title>
<g id="a_edge8_Node000001_Node000007"><a xlink:title=" ">
<path fill="none" stroke="#63b8ff" d="M1479,-269.03C1290.26,-258.54 727.94,-227.3 545.99,-217.19"/>
<polygon fill="#63b8ff" stroke="#63b8ff" points="1478.67,-272.51 1488.84,-269.57 1479.05,-265.53 1478.67,-272.51"/>
</a>
</g>
</g>
<!-- Node11 -->
<g id="Node000011" class="node">
<title>Node11</title>
<g id="a_Node000011"><a xlink:href="exif-content_8h.html" target="_top" xlink:title="Handling EXIF IFDs.">
<polygon fill="white" stroke="#666666" points="924,-222.5 807,-222.5 807,-203.5 924,-203.5 924,-222.5"/>
<text text-anchor="middle" x="865.5" y="-210.5" font-family="Helvetica,sans-Serif" font-size="10.00">libexif/exif&#45;content.h</text>
</a>
</g>
</g>
<!-- Node1&#45;&gt;Node11 -->
<g id="edge13_Node000001_Node000011" class="edge">
<title>Node1&#45;&gt;Node11</title>
<g id="a_edge13_Node000001_Node000011"><a xlink:title=" ">
<path fill="none" stroke="#63b8ff" d="M1479.05,-270.49C1367.88,-266.22 1129.01,-254.4 929.5,-228 919.52,-226.68 908.85,-224.86 899.08,-222.98"/>
<polygon fill="#63b8ff" stroke="#63b8ff" points="1478.73,-273.98 1488.85,-270.85 1478.99,-266.98 1478.73,-273.98"/>
</a>
</g>
</g>
<!-- Node18 -->
<g id="Node000018" class="node">
<title>Node18</title>
<g id="a_Node000018"><a xlink:href="test-null_8c.html" target="_top" xlink:title="Pass NULL values into libexif APIs and ensure it doesn&#39;t crash.">
<polygon fill="white" stroke="#666666" points="1104,-90.5 1017,-90.5 1017,-71.5 1104,-71.5 1104,-90.5"/>
<text text-anchor="middle" x="1060.5" y="-78.5" font-family="Helvetica,sans-Serif" font-size="10.00">test/test&#45;null.c</text>
</a>
</g>
</g>
<!-- Node1&#45;&gt;Node18 -->
<g id="edge53_Node000001_Node000018" class="edge">
<title>Node1&#45;&gt;Node18</title>
<g id="a_edge53_Node000001_Node000018"><a xlink:title=" ">
<path fill="none" stroke="#63b8ff" d="M1478.91,-270.54C1346.76,-265.93 1048.18,-252.88 1009.5,-228 971.04,-203.26 949.5,-171.52 972.5,-132 984.61,-111.19 1008.96,-98.34 1028.98,-90.88"/>
<polygon fill="#63b8ff" stroke="#63b8ff" points="1478.78,-274.04 1488.9,-270.88 1479.02,-267.04 1478.78,-274.04"/>
</a>
</g>
</g>
<!-- Node19 -->
<g id="Node000019" class="node">
<title>Node19</title>
<g id="a_Node000019"><a xlink:href="exif-loader_8h.html" target="_top" xlink:title="Defines the ExifLoader type.">
<polygon fill="white" stroke="#666666" points="1555,-222.5 1444,-222.5 1444,-203.5 1555,-203.5 1555,-222.5"/>
<text text-anchor="middle" x="1499.5" y="-210.5" font-family="Helvetica,sans-Serif" font-size="10.00">libexif/exif&#45;loader.h</text>
</a>
</g>
</g>
<!-- Node1&#45;&gt;Node19 -->
<g id="edge24_Node000001_Node000019" class="edge">
<title>Node1&#45;&gt;Node19</title>
<g id="a_edge24_Node000001_Node000019"><a xlink:title=" ">
<path fill="none" stroke="#63b8ff" d="M1528.69,-254.65C1521.07,-244.04 1511.75,-231.06 1505.72,-222.67"/>
<polygon fill="#63b8ff" stroke="#63b8ff" points="1525.74,-256.56 1534.42,-262.64 1531.43,-252.47 1525.74,-256.56"/>
</a>
</g>
</g>
<!-- Node21 -->
<g id="Node000021" class="node">
<title>Node21</title>
<g id="a_Node000021"><a xlink:href="test-fuzzer-persistent_8c.html" target="_top" xlink:title=" ">
<polygon fill="white" stroke="#666666" points="1350,-156.5 1199,-156.5 1199,-137.5 1350,-137.5 1350,-156.5"/>
<text text-anchor="middle" x="1274.5" y="-144.5" font-family="Helvetica,sans-Serif" font-size="10.00">test/test&#45;fuzzer&#45;persistent.c</text>
</a>
</g>
</g>
<!-- Node1&#45;&gt;Node21 -->
<g id="edge48_Node000001_Node000021" class="edge">
<title>Node1&#45;&gt;Node21</title>
<g id="a_edge48_Node000001_Node000021"><a xlink:title=" ">
<path fill="none" stroke="#63b8ff" d="M1508.36,-259.22C1487.34,-250.64 1459.65,-239.06 1435.5,-228 1382.15,-203.58 1320.33,-171.88 1291.25,-156.76"/>
<polygon fill="#63b8ff" stroke="#63b8ff" points="1507,-262.45 1517.58,-262.96 1509.63,-255.96 1507,-262.45"/>
</a>
</g>
</g>
<!-- Node22 -->
<g id="Node000022" class="node">
<title>Node22</title>
<g id="a_Node000022"><a xlink:href="test-fuzzer_8c.html" target="_top" xlink:title=" ">
<polygon fill="white" stroke="#666666" points="1672,-156.5 1573,-156.5 1573,-137.5 1672,-137.5 1672,-156.5"/>
<text text-anchor="middle" x="1622.5" y="-144.5" font-family="Helvetica,sans-Serif" font-size="10.00">test/test&#45;fuzzer.c</text>
</a>
</g>
</g>
<!-- Node1&#45;&gt;Node22 -->
<g id="edge49_Node000001_Node000022" class="edge">
<title>Node1&#45;&gt;Node22</title>
<g id="a_edge49_Node000001_Node000022"><a xlink:title=" ">
<path fill="none" stroke="#63b8ff" d="M1553.51,-254.03C1571.21,-226.84 1603.59,-177.07 1616.73,-156.87"/>
<polygon fill="#63b8ff" stroke="#63b8ff" points="1550.67,-251.99 1548.15,-262.28 1556.54,-255.8 1550.67,-251.99"/>
</a>
</g>
</g>
<!-- Node23 -->
<g id="Node000023" class="node">
<title>Node23</title>
<g id="a_Node000023"><a xlink:href="test-mem_8c.html" target="_top" xlink:title=" ">
<polygon fill="white" stroke="#666666" points="1785,-156.5 1690,-156.5 1690,-137.5 1785,-137.5 1785,-156.5"/>
<text text-anchor="middle" x="1737.5" y="-144.5" font-family="Helvetica,sans-Serif" font-size="10.00">test/test&#45;mem.c</text>
</a>
</g>
</g>
<!-- Node1&#45;&gt;Node23 -->
<g id="edge51_Node000001_Node000023" class="edge">
<title>Node1&#45;&gt;Node23</title>
<g id="a_edge51_Node000001_Node000023"><a xlink:title=" ">
<path fill="none" stroke="#63b8ff" d="M1562.1,-256.59C1582.71,-240.94 1615.58,-216.75 1645.5,-198 1670.46,-182.36 1700.67,-166.49 1719.49,-156.95"/>
<polygon fill="#63b8ff" stroke="#63b8ff" points="1560.05,-253.75 1554.23,-262.6 1564.3,-259.31 1560.05,-253.75"/>
</a>
</g>
</g>
<!-- Node24 -->
<g id="Node000024" class="node">
<title>Node24</title>
<g id="a_Node000024"><a xlink:href="exif-mnote-data-fuji_8h.html" target="_top" xlink:title=" ">
<polygon fill="white" stroke="#666666" points="1959.5,-228 1837.5,-228 1837.5,-198 1959.5,-198 1959.5,-228"/>
<text text-anchor="start" x="1845.5" y="-216" font-family="Helvetica,sans-Serif" font-size="10.00">libexif/fuji/exif&#45;mnote</text>
<text text-anchor="middle" x="1898.5" y="-205" font-family="Helvetica,sans-Serif" font-size="10.00">&#45;data&#45;fuji.h</text>
</a>
</g>
</g>
<!-- Node1&#45;&gt;Node24 -->
<g id="edge31_Node000001_Node000024" class="edge">
<title>Node1&#45;&gt;Node24</title>
<g id="a_edge31_Node000001_Node000024"><a xlink:title=" ">
<path fill="none" stroke="#63b8ff" d="M1604.16,-263.59C1662.39,-255.11 1751.47,-241.67 1828.5,-228 1831.31,-227.5 1834.17,-226.98 1837.07,-226.44"/>
<polygon fill="#63b8ff" stroke="#63b8ff" points="1603.83,-260.1 1594.44,-265 1604.83,-267.03 1603.83,-260.1"/>
</a>
</g>
</g>
<!-- Node28 -->
<g id="Node000028" class="node">
<title>Node28</title>
<g id="a_Node000028"><a xlink:href="mnote-fuji-tag_8h.html" target="_top" xlink:title=" ">
<polygon fill="white" stroke="#666666" points="2079,-228 1978,-228 1978,-198 2079,-198 2079,-228"/>
<text text-anchor="start" x="1986" y="-216" font-family="Helvetica,sans-Serif" font-size="10.00">libexif/fuji/mnote</text>
<text text-anchor="middle" x="2028.5" y="-205" font-family="Helvetica,sans-Serif" font-size="10.00">&#45;fuji&#45;tag.h</text>
</a>
</g>
</g>
<!-- Node1&#45;&gt;Node28 -->
<g id="edge37_Node000001_Node000028" class="edge">
<title>Node1&#45;&gt;Node28</title>
<g id="a_edge37_Node000001_Node000028"><a xlink:title=" ">
<path fill="none" stroke="#63b8ff" d="M1604.03,-268.45C1687.53,-262.48 1839.86,-249.62 1968.5,-228 1971.45,-227.5 1974.48,-226.95 1977.52,-226.35"/>
<polygon fill="#63b8ff" stroke="#63b8ff" points="1603.96,-264.95 1594.23,-269.14 1604.45,-271.93 1603.96,-264.95"/>
</a>
</g>
</g>
<!-- Node30 -->
<g id="Node000030" class="node">
<title>Node30</title>
<g id="a_Node000030"><a xlink:href="exif-mnote-data-olympus_8c.html" target="_top" xlink:title=" ">
<polygon fill="white" stroke="#666666" points="1934,-162 1803,-162 1803,-132 1934,-132 1934,-162"/>
<text text-anchor="start" x="1811" y="-150" font-family="Helvetica,sans-Serif" font-size="10.00">libexif/olympus/exif</text>
<text text-anchor="middle" x="1868.5" y="-139" font-family="Helvetica,sans-Serif" font-size="10.00">&#45;mnote&#45;data&#45;olympus.c</text>
</a>
</g>
</g>
<!-- Node1&#45;&gt;Node30 -->
<g id="edge40_Node000001_Node000030" class="edge">
<title>Node1&#45;&gt;Node30</title>
<g id="a_edge40_Node000001_Node000030"><a xlink:title=" ">
<path fill="none" stroke="#63b8ff" d="M1574.35,-259.19C1593.28,-251.05 1617.26,-239.94 1637.5,-228 1656.95,-216.53 1658.11,-207.71 1678.5,-198 1700.52,-187.51 1757.22,-173.14 1802.99,-162.5"/>
<polygon fill="#63b8ff" stroke="#63b8ff" points="1573.11,-255.92 1565.25,-263.03 1575.83,-262.37 1573.11,-255.92"/>
</a>
</g>
</g>
<!-- Node31 -->
<g id="Node000031" class="node">
<title>Node31</title>
<g id="a_Node000031"><a xlink:href="exif-mnote-data-olympus_8h.html" target="_top" xlink:title=" ">
<polygon fill="white" stroke="#666666" points="1819.5,-228 1687.5,-228 1687.5,-198 1819.5,-198 1819.5,-228"/>
<text text-anchor="start" x="1695.5" y="-216" font-family="Helvetica,sans-Serif" font-size="10.00">libexif/olympus/exif</text>
<text text-anchor="middle" x="1753.5" y="-205" font-family="Helvetica,sans-Serif" font-size="10.00">&#45;mnote&#45;data&#45;olympus.h</text>
</a>
</g>
</g>
<!-- Node1&#45;&gt;Node31 -->
<g id="edge41_Node000001_Node000031" class="edge">
<title>Node1&#45;&gt;Node31</title>
<g id="a_edge41_Node000001_Node000031"><a xlink:title=" ">
<path fill="none" stroke="#63b8ff" d="M1584.58,-260.61C1618.29,-251.31 1665.3,-238.34 1701.17,-228.44"/>
<polygon fill="#63b8ff" stroke="#63b8ff" points="1583.87,-257.18 1575.16,-263.21 1585.73,-263.93 1583.87,-257.18"/>
</a>
</g>
</g>
<!-- Node32 -->
<g id="Node000032" class="node">
<title>Node32</title>
<g id="a_Node000032"><a xlink:href="exif-mnote-data-pentax_8h.html" target="_top" xlink:title=" ">
<polygon fill="white" stroke="#666666" points="1142.5,-228 1018.5,-228 1018.5,-198 1142.5,-198 1142.5,-228"/>
<text text-anchor="start" x="1026.5" y="-216" font-family="Helvetica,sans-Serif" font-size="10.00">libexif/pentax/exif</text>
<text text-anchor="middle" x="1080.5" y="-205" font-family="Helvetica,sans-Serif" font-size="10.00">&#45;mnote&#45;data&#45;pentax.h</text>
</a>
</g>
</g>
<!-- Node1&#45;&gt;Node32 -->
<g id="edge44_Node000001_Node000032" class="edge">
<title>Node1&#45;&gt;Node32</title>
<g id="a_edge44_Node000001_Node000032"><a xlink:title=" ">
<path fill="none" stroke="#63b8ff" d="M1478.99,-266.58C1402.69,-259.05 1269.8,-244.96 1156.5,-228 1151.99,-227.32 1147.34,-226.58 1142.66,-225.8"/>
<polygon fill="#63b8ff" stroke="#63b8ff" points="1478.49,-270.04 1488.78,-267.54 1479.17,-263.08 1478.49,-270.04"/>
</a>
</g>
</g>
<!-- Node34 -->
<g id="Node000034" class="node">
<title>Node34</title>
<g id="a_Node000034"><a xlink:href="test-extract_8c.html" target="_top" xlink:title="Extract EXIF data from a file and write it to another file.">
<polygon fill="white" stroke="#666666" points="2201.5,-222.5 2097.5,-222.5 2097.5,-203.5 2201.5,-203.5 2201.5,-222.5"/>
<text text-anchor="middle" x="2149.5" y="-210.5" font-family="Helvetica,sans-Serif" font-size="10.00">test/test&#45;extract.c</text>
</a>
</g>
</g>
<!-- Node1&#45;&gt;Node34 -->
<g id="edge47_Node000001_Node000034" class="edge">
<title>Node1&#45;&gt;Node34</title>
<g id="a_edge47_Node000001_Node000034"><a xlink:title=" ">
<path fill="none" stroke="#63b8ff" d="M1604,-270.35C1705.95,-266.19 1914.19,-254.95 2088.5,-228 2096.98,-226.69 2106.04,-224.85 2114.51,-222.94"/>
<polygon fill="#63b8ff" stroke="#63b8ff" points="1604.06,-266.85 1594.2,-270.74 1604.34,-273.84 1604.06,-266.85"/>
</a>
</g>
</g>
<!-- Node35 -->
<g id="Node000035" class="node">
<title>Node35</title>
<g id="a_Node000035"><a xlink:href="test-gps_8c.html" target="_top" xlink:title=" ">
<polygon fill="white" stroke="#666666" points="2305.5,-222.5 2219.5,-222.5 2219.5,-203.5 2305.5,-203.5 2305.5,-222.5"/>
<text text-anchor="middle" x="2262.5" y="-210.5" font-family="Helvetica,sans-Serif" font-size="10.00">test/test&#45;gps.c</text>
</a>
</g>
</g>
<!-- Node1&#45;&gt;Node35 -->
<g id="edge50_Node000001_Node000035" class="edge">
<title>Node1&#45;&gt;Node35</title>
<g id="a_edge50_Node000001_Node000035"><a xlink:title=" ">
<path fill="none" stroke="#63b8ff" d="M1604.05,-272.42C1723,-271.38 1989.64,-264.71 2210.5,-228 2217.97,-226.76 2225.92,-224.9 2233.3,-222.94"/>
<polygon fill="#63b8ff" stroke="#63b8ff" points="1604.15,-268.92 1594.18,-272.5 1604.21,-275.92 1604.15,-268.92"/>
</a>
</g>
</g>
<!-- Node36 -->
<g id="Node000036" class="node">
<title>Node36</title>
<g id="a_Node000036"><a xlink:href="test-mnote_8c.html" target="_top" xlink:title=" ">
<polygon fill="white" stroke="#666666" points="2425,-222.5 2324,-222.5 2324,-203.5 2425,-203.5 2425,-222.5"/>
<text text-anchor="middle" x="2374.5" y="-210.5" font-family="Helvetica,sans-Serif" font-size="10.00">test/test&#45;mnote.c</text>
</a>
</g>
</g>
<!-- Node1&#45;&gt;Node36 -->
<g id="edge52_Node000001_Node000036" class="edge">
<title>Node1&#45;&gt;Node36</title>
<g id="a_edge52_Node000001_Node000036"><a xlink:title=" ">
<path fill="none" stroke="#63b8ff" d="M1604.37,-272.53C1736.55,-271.78 2052.66,-265.8 2314.5,-228 2323.08,-226.76 2332.23,-224.91 2340.74,-222.95"/>
<polygon fill="#63b8ff" stroke="#63b8ff" points="1604.41,-269.03 1594.42,-272.57 1604.44,-276.03 1604.41,-269.03"/>
</a>
</g>
</g>
<!-- Node37 -->
<g id="Node000037" class="node">
<title>Node37</title>
<g id="a_Node000037"><a xlink:href="test-parse-from-data_8c.html" target="_top" xlink:title="Completely parse all files given on the command line.">
<polygon fill="white" stroke="#666666" points="2558,-228 2443,-228 2443,-198 2558,-198 2558,-228"/>
<text text-anchor="start" x="2451" y="-216" font-family="Helvetica,sans-Serif" font-size="10.00">test/test&#45;parse&#45;from</text>
<text text-anchor="middle" x="2500.5" y="-205" font-family="Helvetica,sans-Serif" font-size="10.00">&#45;data.c</text>
</a>
</g>
</g>
<!-- Node1&#45;&gt;Node37 -->
<g id="edge54_Node000001_Node000037" class="edge">
<title>Node1&#45;&gt;Node37</title>
<g id="a_edge54_Node000001_Node000037"><a xlink:title=" ">
<path fill="none" stroke="#63b8ff" d="M1603.95,-272.8C1749.94,-272.75 2124.64,-268.32 2434.5,-228 2437.17,-227.65 2439.9,-227.25 2442.64,-226.82"/>
<polygon fill="#63b8ff" stroke="#63b8ff" points="1604.11,-269.3 1594.11,-272.79 1604.11,-276.3 1604.11,-269.3"/>
</a>
</g>
</g>
<!-- Node38 -->
<g id="Node000038" class="node">
<title>Node38</title>
<g id="a_Node000038"><a xlink:href="test-parse_8c.html" target="_top" xlink:title="Completely parse all files given on the command line.">
<polygon fill="white" stroke="#666666" points="2672.5,-222.5 2576.5,-222.5 2576.5,-203.5 2672.5,-203.5 2672.5,-222.5"/>
<text text-anchor="middle" x="2624.5" y="-210.5" font-family="Helvetica,sans-Serif" font-size="10.00">test/test&#45;parse.c</text>
</a>
</g>
</g>
<!-- Node1&#45;&gt;Node38 -->
<g id="edge55_Node000001_Node000038" class="edge">
<title>Node1&#45;&gt;Node38</title>
<g id="a_edge55_Node000001_Node000038"><a xlink:title=" ">
<path fill="none" stroke="#63b8ff" d="M1604.3,-271.4C1797.32,-267.77 2380.05,-254.82 2567.5,-228 2575.77,-226.82 2584.59,-224.96 2592.76,-222.97"/>
<polygon fill="#63b8ff" stroke="#63b8ff" points="1604.42,-267.9 1594.48,-271.58 1604.55,-274.9 1604.42,-267.9"/>
</a>
</g>
</g>
<!-- Node39 -->
<g id="Node000039" class="node">
<title>Node39</title>
<g id="a_Node000039"><a xlink:href="test-value_8c.html" target="_top" xlink:title=" ">
<polygon fill="white" stroke="#666666" points="2786.5,-222.5 2690.5,-222.5 2690.5,-203.5 2786.5,-203.5 2786.5,-222.5"/>
<text text-anchor="middle" x="2738.5" y="-210.5" font-family="Helvetica,sans-Serif" font-size="10.00">test/test&#45;value.c</text>
</a>
</g>
</g>
<!-- Node1&#45;&gt;Node39 -->
<g id="edge56_Node000001_Node000039" class="edge">
<title>Node1&#45;&gt;Node39</title>
<g id="a_edge56_Node000001_Node000039"><a xlink:title=" ">
<path fill="none" stroke="#63b8ff" d="M1604.17,-271.72C1811.02,-268.88 2470.84,-257.67 2681.5,-228 2689.77,-226.83 2698.6,-224.98 2706.77,-223"/>
<polygon fill="#63b8ff" stroke="#63b8ff" points="1604.39,-268.22 1594.44,-271.85 1604.49,-275.22 1604.39,-268.22"/>
</a>
</g>
</g>
<!-- Node3&#45;&gt;Node2 -->
<g id="edge3_Node000003_Node000002" class="edge">
<title>Node3&#45;&gt;Node2</title>
<g id="a_edge3_Node000003_Node000002"><a xlink:title=" ">
<path fill="none" stroke="#63b8ff" d="M66.32,-186.97C68.95,-178.55 71.8,-169.45 74.07,-162.16"/>
<polygon fill="#63b8ff" stroke="#63b8ff" points="63.03,-185.76 63.39,-196.35 69.71,-187.85 63.03,-185.76"/>
</a>
</g>
</g>
<!-- Node5&#45;&gt;Node4 -->
<g id="edge6_Node000005_Node000004" class="edge">
<title>Node5&#45;&gt;Node4</title>
<g id="a_edge6_Node000005_Node000004"><a xlink:title=" ">
<path fill="none" stroke="#63b8ff" d="M255.27,-56.39C249.22,-47.59 242.53,-37.86 237.24,-30.16"/>
<polygon fill="#63b8ff" stroke="#63b8ff" points="252.33,-58.29 260.88,-64.55 258.1,-54.33 252.33,-58.29"/>
</a>
</g>
</g>
<!-- Node5&#45;&gt;Node6 -->
<g id="edge7_Node000005_Node000006" class="edge">
<title>Node5&#45;&gt;Node6</title>
<g id="a_edge7_Node000005_Node000006"><a xlink:title=" ">
<path fill="none" stroke="#63b8ff" d="M342.61,-65.89C718.02,-19.74 1159.25,-15.76 1306.74,-15.79"/>
<polygon fill="#63b8ff" stroke="#63b8ff" points="342.24,-62.41 332.75,-67.12 343.11,-69.36 342.24,-62.41"/>
</a>
</g>
</g>
<!-- Node8 -->
<g id="Node000008" class="node">
<title>Node8</title>
<g id="a_Node000008"><a xlink:href="mnote-canon-entry_8h.html" target="_top" xlink:title=" ">
<polygon fill="white" stroke="#666666" points="545.5,-162 431.5,-162 431.5,-132 545.5,-132 545.5,-162"/>
<text text-anchor="start" x="439.5" y="-150" font-family="Helvetica,sans-Serif" font-size="10.00">libexif/canon/mnote</text>
<text text-anchor="middle" x="488.5" y="-139" font-family="Helvetica,sans-Serif" font-size="10.00">&#45;canon&#45;entry.h</text>
</a>
</g>
</g>
<!-- Node7&#45;&gt;Node8 -->
<g id="edge9_Node000007_Node000008" class="edge">
<title>Node7&#45;&gt;Node8</title>
<g id="a_edge9_Node000007_Node000008"><a xlink:title=" ">
<path fill="none" stroke="#63b8ff" d="M488.5,-186.39C488.5,-178.13 488.5,-169.28 488.5,-162.16"/>
<polygon fill="#63b8ff" stroke="#63b8ff" points="485,-186.28 488.5,-196.28 492,-186.28 485,-186.28"/>
</a>
</g>
</g>
<!-- Node10 -->
<g id="Node000010" class="node">
<title>Node10</title>
<g id="a_Node000010"><a xlink:href="mnote-canon-tag_8c.html" target="_top" xlink:title=" ">
<polygon fill="white" stroke="#666666" points="413.5,-162 299.5,-162 299.5,-132 413.5,-132 413.5,-162"/>
<text text-anchor="start" x="307.5" y="-150" font-family="Helvetica,sans-Serif" font-size="10.00">libexif/canon/mnote</text>
<text text-anchor="middle" x="356.5" y="-139" font-family="Helvetica,sans-Serif" font-size="10.00">&#45;canon&#45;tag.c</text>
</a>
</g>
</g>
<!-- Node7&#45;&gt;Node10 -->
<g id="edge12_Node000007_Node000010" class="edge">
<title>Node7&#45;&gt;Node10</title>
<g id="a_edge12_Node000007_Node000010"><a xlink:title=" ">
<path fill="none" stroke="#63b8ff" d="M448.74,-192.72C428.58,-182.95 404.52,-171.28 386.02,-162.31"/>
<polygon fill="#63b8ff" stroke="#63b8ff" points="446.99,-195.76 457.51,-196.98 450.04,-189.46 446.99,-195.76"/>
</a>
</g>
</g>
<!-- Node8&#45;&gt;Node5 -->
<g id="edge10_Node000008_Node000005" class="edge">
<title>Node8&#45;&gt;Node5</title>
<g id="a_edge10_Node000008_Node000005"><a xlink:title=" ">
<path fill="none" stroke="#63b8ff" d="M428.76,-128.38C394.64,-118.32 352.4,-105.86 320.29,-96.39"/>
<polygon fill="#63b8ff" stroke="#63b8ff" points="427.5,-131.66 438.08,-131.13 429.48,-124.94 427.5,-131.66"/>
</a>
</g>
</g>
<!-- Node9 -->
<g id="Node000009" class="node">
<title>Node9</title>
<g id="a_Node000009"><a xlink:href="mnote-canon-entry_8c.html" target="_top" xlink:title=" ">
<polygon fill="white" stroke="#666666" points="463.5,-96 349.5,-96 349.5,-66 463.5,-66 463.5,-96"/>
<text text-anchor="start" x="357.5" y="-84" font-family="Helvetica,sans-Serif" font-size="10.00">libexif/canon/mnote</text>
<text text-anchor="middle" x="406.5" y="-73" font-family="Helvetica,sans-Serif" font-size="10.00">&#45;canon&#45;entry.c</text>
</a>
</g>
</g>
<!-- Node8&#45;&gt;Node9 -->
<g id="edge11_Node000008_Node000009" class="edge">
<title>Node8&#45;&gt;Node9</title>
<g id="a_edge11_Node000008_Node000009"><a xlink:title=" ">
<path fill="none" stroke="#63b8ff" d="M461.56,-124.97C449.56,-115.61 435.73,-104.81 424.93,-96.39"/>
<polygon fill="#63b8ff" stroke="#63b8ff" points="459.07,-127.47 469.11,-130.87 463.38,-121.95 459.07,-127.47"/>
</a>
</g>
</g>
<!-- Node11&#45;&gt;Node1 -->
<g id="edge15_Node000011_Node000001" class="edge">
<title>Node11&#45;&gt;Node1</title>
<g id="a_edge15_Node000011_Node000001"><a xlink:title=" ">
<path fill="none" stroke="#63b8ff" d="M927.75,-224.96C934.43,-226.1 941.11,-227.15 947.5,-228 1147.56,-254.48 1387.21,-266.28 1490.35,-270.52"/>
<polygon fill="#63b8ff" stroke="#63b8ff" points="928.52,-221.55 918.06,-223.24 927.3,-228.44 928.52,-221.55"/>
</a>
</g>
</g>
<!-- Node12 -->
<g id="Node000012" class="node">
<title>Node12</title>
<g id="a_Node000012"><a xlink:href="exif-content_8c.html" target="_top" xlink:title=" ">
<polygon fill="white" stroke="#666666" points="924.5,-156.5 808.5,-156.5 808.5,-137.5 924.5,-137.5 924.5,-156.5"/>
<text text-anchor="middle" x="866.5" y="-144.5" font-family="Helvetica,sans-Serif" font-size="10.00">libexif/exif&#45;content.c</text>
</a>
</g>
</g>
<!-- Node11&#45;&gt;Node12 -->
<g id="edge14_Node000011_Node000012" class="edge">
<title>Node11&#45;&gt;Node12</title>
<g id="a_edge14_Node000011_Node000012"><a xlink:title=" ">
<path fill="none" stroke="#63b8ff" d="M865.82,-191.68C866,-179.94 866.22,-165.77 866.36,-156.82"/>
<polygon fill="#63b8ff" stroke="#63b8ff" points="862.32,-191.53 865.66,-201.59 869.32,-191.64 862.32,-191.53"/>
</a>
</g>
</g>
<!-- Node13 -->
<g id="Node000013" class="node">
<title>Node13</title>
<g id="a_Node000013"><a xlink:href="exif-entry_8h.html" target="_top" xlink:title="Handling EXIF entries.">
<polygon fill="white" stroke="#666666" points="790.5,-156.5 686.5,-156.5 686.5,-137.5 790.5,-137.5 790.5,-156.5"/>
<text text-anchor="middle" x="738.5" y="-144.5" font-family="Helvetica,sans-Serif" font-size="10.00">libexif/exif&#45;entry.h</text>
</a>
</g>
</g>
<!-- Node11&#45;&gt;Node13 -->
<g id="edge16_Node000011_Node000013" class="edge">
<title>Node11&#45;&gt;Node13</title>
<g id="a_edge16_Node000011_Node000013"><a xlink:title=" ">
<path fill="none" stroke="#63b8ff" d="M832.6,-198.27C806,-185.72 770.19,-167.54 751.18,-156.82"/>
<polygon fill="#63b8ff" stroke="#63b8ff" points="831.08,-201.42 841.62,-202.46 834.03,-195.08 831.08,-201.42"/>
</a>
</g>
</g>
<!-- Node13&#45;&gt;Node11 -->
<g id="edge18_Node000013_Node000011" class="edge">
<title>Node13&#45;&gt;Node11</title>
<g id="a_edge18_Node000013_Node000011"><a xlink:title=" ">
<path fill="none" stroke="#63b8ff" d="M771.22,-161.64C797.77,-174.16 833.6,-192.35 852.69,-203.1"/>
<polygon fill="#63b8ff" stroke="#63b8ff" points="772.75,-158.5 762.21,-157.46 769.81,-164.85 772.75,-158.5"/>
</a>
</g>
</g>
<!-- Node14 -->
<g id="Node000014" class="node">
<title>Node14</title>
<g id="a_Node000014"><a xlink:href="mnote-apple-entry_8c.html" target="_top" xlink:title=" ">
<polygon fill="white" stroke="#666666" points="876.5,-96 764.5,-96 764.5,-66 876.5,-66 876.5,-96"/>
<text text-anchor="start" x="772.5" y="-84" font-family="Helvetica,sans-Serif" font-size="10.00">libexif/apple/mnote</text>
<text text-anchor="middle" x="820.5" y="-73" font-family="Helvetica,sans-Serif" font-size="10.00">&#45;apple&#45;entry.c</text>
</a>
</g>
</g>
<!-- Node13&#45;&gt;Node14 -->
<g id="edge17_Node000013_Node000014" class="edge">
<title>Node13&#45;&gt;Node14</title>
<g id="a_edge17_Node000013_Node000014"><a xlink:title=" ">
<path fill="none" stroke="#63b8ff" d="M758.72,-130.22C771.94,-119.9 789.08,-106.52 801.95,-96.48"/>
<polygon fill="#63b8ff" stroke="#63b8ff" points="756.82,-127.26 751.09,-136.17 761.13,-132.78 756.82,-127.26"/>
</a>
</g>
</g>
<!-- Node15 -->
<g id="Node000015" class="node">
<title>Node15</title>
<g id="a_Node000015"><a xlink:href="exif-entry_8c.html" target="_top" xlink:title=" ">
<polygon fill="white" stroke="#666666" points="998.5,-90.5 894.5,-90.5 894.5,-71.5 998.5,-71.5 998.5,-90.5"/>
<text text-anchor="middle" x="946.5" y="-78.5" font-family="Helvetica,sans-Serif" font-size="10.00">libexif/exif&#45;entry.c</text>
</a>
</g>
</g>
<!-- Node13&#45;&gt;Node15 -->
<g id="edge19_Node000013_Node000015" class="edge">
<title>Node13&#45;&gt;Node15</title>
<g id="a_edge19_Node000013_Node000015"><a xlink:title=" ">
<path fill="none" stroke="#63b8ff" d="M778.29,-133.76C818.98,-121.24 881.23,-102.08 917.49,-90.93"/>
<polygon fill="#63b8ff" stroke="#63b8ff" points="777.4,-130.37 768.87,-136.66 779.46,-137.06 777.4,-130.37"/>
</a>
</g>
</g>
<!-- Node16 -->
<g id="Node000016" class="node">
<title>Node16</title>
<g id="a_Node000016"><a xlink:href="mnote-olympus-entry_8c.html" target="_top" xlink:title=" ">
<polygon fill="white" stroke="#666666" points="609,-96 482,-96 482,-66 609,-66 609,-96"/>
<text text-anchor="start" x="490" y="-84" font-family="Helvetica,sans-Serif" font-size="10.00">libexif/olympus/mnote</text>
<text text-anchor="middle" x="545.5" y="-73" font-family="Helvetica,sans-Serif" font-size="10.00">&#45;olympus&#45;entry.c</text>
</a>
</g>
</g>
<!-- Node13&#45;&gt;Node16 -->
<g id="edge20_Node000013_Node000016" class="edge">
<title>Node13&#45;&gt;Node16</title>
<g id="a_edge20_Node000013_Node000016"><a xlink:title=" ">
<path fill="none" stroke="#63b8ff" d="M700.96,-133.55C668.93,-122.93 622.84,-107.65 589.16,-96.48"/>
<polygon fill="#63b8ff" stroke="#63b8ff" points="699.63,-136.8 710.23,-136.62 701.84,-130.15 699.63,-136.8"/>
</a>
</g>
</g>
<!-- Node17 -->
<g id="Node000017" class="node">
<title>Node17</title>
<g id="a_Node000017"><a xlink:href="mnote-pentax-entry_8c.html" target="_top" xlink:title=" ">
<polygon fill="white" stroke="#666666" points="746,-96 627,-96 627,-66 746,-66 746,-96"/>
<text text-anchor="start" x="635" y="-84" font-family="Helvetica,sans-Serif" font-size="10.00">libexif/pentax/mnote</text>
<text text-anchor="middle" x="686.5" y="-73" font-family="Helvetica,sans-Serif" font-size="10.00">&#45;pentax&#45;entry.c</text>
</a>
</g>
</g>
<!-- Node13&#45;&gt;Node17 -->
<g id="edge21_Node000013_Node000017" class="edge">
<title>Node13&#45;&gt;Node17</title>
<g id="a_edge21_Node000013_Node000017"><a xlink:title=" ">
<path fill="none" stroke="#63b8ff" d="M724.14,-128.32C715.92,-118.22 705.76,-105.7 698.06,-96.23"/>
<polygon fill="#63b8ff" stroke="#63b8ff" points="721.29,-130.37 730.32,-135.93 726.73,-125.96 721.29,-130.37"/>
</a>
</g>
</g>
<!-- Node13&#45;&gt;Node18 -->
<g id="edge22_Node000013_Node000018" class="edge">
<title>Node13&#45;&gt;Node18</title>
<g id="a_edge22_Node000013_Node000018"><a xlink:title=" ">
<path fill="none" stroke="#63b8ff" d="M787.15,-134.58C791.32,-133.68 795.48,-132.81 799.5,-132 891.48,-113.5 915.84,-116 1007.5,-96 1014.29,-94.52 1021.51,-92.74 1028.38,-90.96"/>
<polygon fill="#63b8ff" stroke="#63b8ff" points="786.66,-131.11 777.65,-136.69 788.18,-137.94 786.66,-131.11"/>
</a>
</g>
</g>
<!-- Node19&#45;&gt;Node6 -->
<g id="edge25_Node000019_Node000006" class="edge">
<title>Node19&#45;&gt;Node6</title>
<g id="a_edge25_Node000019_Node000006"><a xlink:title=" ">
<path fill="none" stroke="#63b8ff" d="M1513.21,-194.05C1524.16,-177.37 1536.06,-152.13 1525.5,-132 1495.36,-74.56 1422.46,-39.97 1383.34,-24.91"/>
<polygon fill="#63b8ff" stroke="#63b8ff" points="1510.52,-191.79 1507.6,-201.98 1516.24,-195.84 1510.52,-191.79"/>
</a>
</g>
</g>
<!-- Node19&#45;&gt;Node18 -->
<g id="edge30_Node000019_Node000018" class="edge">
<title>Node19&#45;&gt;Node18</title>
<g id="a_edge30_Node000019_Node000018"><a xlink:title=" ">
<path fill="none" stroke="#63b8ff" d="M1467.68,-198.51C1447.07,-189.27 1419.99,-176.16 1397.5,-162 1379.29,-150.53 1379.17,-140.71 1359.5,-132 1274.45,-94.32 1164.31,-84.84 1104.27,-82.58"/>
<polygon fill="#63b8ff" stroke="#63b8ff" points="1466.15,-201.66 1476.71,-202.49 1468.97,-195.26 1466.15,-201.66"/>
</a>
</g>
</g>
<!-- Node20 -->
<g id="Node000020" class="node">
<title>Node20</title>
<g id="a_Node000020"><a xlink:href="exif-loader_8c.html" target="_top" xlink:title=" ">
<polygon fill="white" stroke="#666666" points="1516.5,-156.5 1406.5,-156.5 1406.5,-137.5 1516.5,-137.5 1516.5,-156.5"/>
<text text-anchor="middle" x="1461.5" y="-144.5" font-family="Helvetica,sans-Serif" font-size="10.00">libexif/exif&#45;loader.c</text>
</a>
</g>
</g>
<!-- Node19&#45;&gt;Node20 -->
<g id="edge26_Node000019_Node000020" class="edge">
<title>Node19&#45;&gt;Node20</title>
<g id="a_edge26_Node000019_Node000020"><a xlink:title=" ">
<path fill="none" stroke="#63b8ff" d="M1488.53,-193.53C1481.37,-181.46 1472.34,-166.25 1466.74,-156.82"/>
<polygon fill="#63b8ff" stroke="#63b8ff" points="1485.33,-194.99 1493.44,-201.8 1491.35,-191.41 1485.33,-194.99"/>
</a>
</g>
</g>
<!-- Node19&#45;&gt;Node21 -->
<g id="edge27_Node000019_Node000021" class="edge">
<title>Node19&#45;&gt;Node21</title>
<g id="a_edge27_Node000019_Node000021"><a xlink:title=" ">
<path fill="none" stroke="#63b8ff" d="M1457.3,-200C1413.3,-187.48 1345.36,-168.16 1305.88,-156.93"/>
<polygon fill="#63b8ff" stroke="#63b8ff" points="1456.18,-203.32 1466.76,-202.69 1458.1,-196.58 1456.18,-203.32"/>
</a>
</g>
</g>
<!-- Node19&#45;&gt;Node22 -->
<g id="edge28_Node000019_Node000022" class="edge">
<title>Node19&#45;&gt;Node22</title>
<g id="a_edge28_Node000019_Node000022"><a xlink:title=" ">
<path fill="none" stroke="#63b8ff" d="M1526.53,-197.93C1550.63,-185.4 1585.14,-167.44 1605.54,-156.82"/>
<polygon fill="#63b8ff" stroke="#63b8ff" points="1525.2,-194.68 1517.95,-202.4 1528.43,-200.89 1525.2,-194.68"/>
</a>
</g>
</g>
<!-- Node19&#45;&gt;Node23 -->
<g id="edge29_Node000019_Node000023" class="edge">
<title>Node19&#45;&gt;Node23</title>
<g id="a_edge29_Node000019_Node000023"><a xlink:title=" ">
<path fill="none" stroke="#63b8ff" d="M1543.81,-200.09C1590.37,-187.57 1662.53,-168.16 1704.38,-156.91"/>
<polygon fill="#63b8ff" stroke="#63b8ff" points="1543.05,-196.66 1534.31,-202.64 1544.87,-203.42 1543.05,-196.66"/>
</a>
</g>
</g>
<!-- Node24&#45;&gt;Node6 -->
<g id="edge32_Node000024_Node000006" class="edge">
<title>Node24&#45;&gt;Node6</title>
<g id="a_edge32_Node000024_Node000006"><a xlink:title=" ">
<path fill="none" stroke="#63b8ff" d="M1935.27,-191.02C1945.33,-183.3 1954.97,-173.56 1960.5,-162 1966.25,-149.97 1966.92,-143.68 1960.5,-132 1934.13,-84.03 1908.24,-83.88 1856.5,-66 1774.52,-37.67 1517.87,-23.15 1408.11,-18.11"/>
<polygon fill="#63b8ff" stroke="#63b8ff" points="1933.41,-188.05 1927.26,-196.67 1937.44,-193.77 1933.41,-188.05"/>
</a>
</g>
</g>
<!-- Node25 -->
<g id="Node000025" class="node">
<title>Node25</title>
<g id="a_Node000025"><a xlink:href="exif-mnote-data-fuji_8c.html" target="_top" xlink:title=" ">
<polygon fill="white" stroke="#666666" points="2150.5,-162 2028.5,-162 2028.5,-132 2150.5,-132 2150.5,-162"/>
<text text-anchor="start" x="2036.5" y="-150" font-family="Helvetica,sans-Serif" font-size="10.00">libexif/fuji/exif&#45;mnote</text>
<text text-anchor="middle" x="2089.5" y="-139" font-family="Helvetica,sans-Serif" font-size="10.00">&#45;data&#45;fuji.c</text>
</a>
</g>
</g>
<!-- Node24&#45;&gt;Node25 -->
<g id="edge33_Node000024_Node000025" class="edge">
<title>Node24&#45;&gt;Node25</title>
<g id="a_edge33_Node000024_Node000025"><a xlink:title=" ">
<path fill="none" stroke="#63b8ff" d="M1952.02,-194.07C1981.84,-184.07 2018.49,-171.79 2046.45,-162.43"/>
<polygon fill="#63b8ff" stroke="#63b8ff" points="1951.17,-190.66 1942.8,-197.16 1953.39,-197.3 1951.17,-190.66"/>
</a>
</g>
</g>
<!-- Node26 -->
<g id="Node000026" class="node">
<title>Node26</title>
<g id="a_Node000026"><a xlink:href="mnote-fuji-entry_8h.html" target="_top" xlink:title=" ">
<polygon fill="white" stroke="#666666" points="2270,-162 2169,-162 2169,-132 2270,-132 2270,-162"/>
<text text-anchor="start" x="2177" y="-150" font-family="Helvetica,sans-Serif" font-size="10.00">libexif/fuji/mnote</text>
<text text-anchor="middle" x="2219.5" y="-139" font-family="Helvetica,sans-Serif" font-size="10.00">&#45;fuji&#45;entry.h</text>
</a>
</g>
</g>
<!-- Node24&#45;&gt;Node26 -->
<g id="edge34_Node000024_Node000026" class="edge">
<title>Node24&#45;&gt;Node26</title>
<g id="a_edge34_Node000024_Node000026"><a xlink:title=" ">
<path fill="none" stroke="#63b8ff" d="M1970.86,-196.01C2046.94,-181.48 2070.19,-178.97 2150.5,-162 2156.36,-160.76 2162.53,-159.4 2168.68,-158.02"/>
<polygon fill="#63b8ff" stroke="#63b8ff" points="1970.4,-192.53 1961.24,-197.86 1971.73,-199.41 1970.4,-192.53"/>
</a>
</g>
</g>
<!-- Node26&#45;&gt;Node24 -->
<g id="edge35_Node000026_Node000024" class="edge">
<title>Node26&#45;&gt;Node24</title>
<g id="a_edge35_Node000026_Node000024"><a xlink:title=" ">
<path fill="none" stroke="#63b8ff" d="M2157.09,-164.39C2082.26,-179.98 2058.94,-182.45 1978.5,-198 1972.46,-199.17 1966.12,-200.4 1959.77,-201.63"/>
<polygon fill="#63b8ff" stroke="#63b8ff" points="2157.46,-167.89 2166.53,-162.41 2156.02,-161.04 2157.46,-167.89"/>
</a>
</g>
</g>
<!-- Node27 -->
<g id="Node000027" class="node">
<title>Node27</title>
<g id="a_Node000027"><a xlink:href="mnote-fuji-entry_8c.html" target="_top" xlink:title=" ">
<polygon fill="white" stroke="#666666" points="2270,-96 2169,-96 2169,-66 2270,-66 2270,-96"/>
<text text-anchor="start" x="2177" y="-84" font-family="Helvetica,sans-Serif" font-size="10.00">libexif/fuji/mnote</text>
<text text-anchor="middle" x="2219.5" y="-73" font-family="Helvetica,sans-Serif" font-size="10.00">&#45;fuji&#45;entry.c</text>
</a>
</g>
</g>
<!-- Node26&#45;&gt;Node27 -->
<g id="edge36_Node000026_Node000027" class="edge">
<title>Node26&#45;&gt;Node27</title>
<g id="a_edge36_Node000026_Node000027"><a xlink:title=" ">
<path fill="none" stroke="#63b8ff" d="M2219.5,-120.39C2219.5,-112.13 2219.5,-103.28 2219.5,-96.16"/>
<polygon fill="#63b8ff" stroke="#63b8ff" points="2216,-120.28 2219.5,-130.28 2223,-120.28 2216,-120.28"/>
</a>
</g>
</g>
<!-- Node28&#45;&gt;Node26 -->
<g id="edge38_Node000028_Node000026" class="edge">
<title>Node28&#45;&gt;Node26</title>
<g id="a_edge38_Node000028_Node000026"><a xlink:title=" ">
<path fill="none" stroke="#63b8ff" d="M2082.02,-194.07C2111.84,-184.07 2148.49,-171.79 2176.45,-162.43"/>
<polygon fill="#63b8ff" stroke="#63b8ff" points="2081.17,-190.66 2072.8,-197.16 2083.39,-197.3 2081.17,-190.66"/>
</a>
</g>
</g>
<!-- Node29 -->
<g id="Node000029" class="node">
<title>Node29</title>
<g id="a_Node000029"><a xlink:href="mnote-fuji-tag_8c.html" target="_top" xlink:title=" ">
<polygon fill="white" stroke="#666666" points="2389,-162 2288,-162 2288,-132 2389,-132 2389,-162"/>
<text text-anchor="start" x="2296" y="-150" font-family="Helvetica,sans-Serif" font-size="10.00">libexif/fuji/mnote</text>
<text text-anchor="middle" x="2338.5" y="-139" font-family="Helvetica,sans-Serif" font-size="10.00">&#45;fuji&#45;tag.c</text>
</a>
</g>
</g>
<!-- Node28&#45;&gt;Node29 -->
<g id="edge39_Node000028_Node000029" class="edge">
<title>Node28&#45;&gt;Node29</title>
<g id="a_edge39_Node000028_Node000029"><a xlink:title=" ">
<path fill="none" stroke="#63b8ff" d="M2090.4,-197.66C2174.93,-180.13 2198.47,-179.24 2279.5,-162 2282.18,-161.43 2284.92,-160.83 2287.69,-160.22"/>
<polygon fill="#63b8ff" stroke="#63b8ff" points="2089.76,-194.22 2080.69,-199.7 2091.19,-201.07 2089.76,-194.22"/>
</a>
</g>
</g>
<!-- Node31&#45;&gt;Node6 -->
<g id="edge42_Node000031_Node000006" class="edge">
<title>Node31&#45;&gt;Node6</title>
<g id="a_edge42_Node000031_Node000006"><a xlink:title=" ">
<path fill="none" stroke="#63b8ff" d="M1831.02,-196.26C1880.32,-185.46 1936.23,-171.43 1943.5,-162 1951.64,-151.44 1951.96,-142.3 1943.5,-132 1875.7,-49.46 1537.57,-24.64 1408.07,-18.1"/>
<polygon fill="#63b8ff" stroke="#63b8ff" points="1830.49,-192.79 1821.45,-198.33 1831.97,-199.63 1830.49,-192.79"/>
</a>
</g>
</g>
<!-- Node31&#45;&gt;Node30 -->
<g id="edge43_Node000031_Node000030" class="edge">
<title>Node31&#45;&gt;Node30</title>
<g id="a_edge43_Node000031_Node000030"><a xlink:title=" ">
<path fill="none" stroke="#63b8ff" d="M1789.11,-192.18C1806.47,-182.52 1826.96,-171.12 1842.78,-162.31"/>
<polygon fill="#63b8ff" stroke="#63b8ff" points="1787.67,-188.98 1780.63,-196.9 1791.07,-195.1 1787.67,-188.98"/>
</a>
</g>
</g>
<!-- Node32&#45;&gt;Node6 -->
<g id="edge45_Node000032_Node000006" class="edge">
<title>Node32&#45;&gt;Node6</title>
<g id="a_edge45_Node000032_Node000006"><a xlink:title=" ">
<path fill="none" stroke="#63b8ff" d="M1097.31,-188.25C1102.77,-180.1 1108.66,-170.81 1113.5,-162 1136.01,-121.02 1120.64,-96 1156.5,-66 1198.7,-30.69 1262.25,-19.73 1306.56,-16.62"/>
<polygon fill="#63b8ff" stroke="#63b8ff" points="1094.58,-186.04 1091.82,-196.26 1100.36,-189.99 1094.58,-186.04"/>
</a>
</g>
</g>
<!-- Node33 -->
<g id="Node000033" class="node">
<title>Node33</title>
<g id="a_Node000033"><a xlink:href="exif-mnote-data-pentax_8c.html" target="_top" xlink:title=" ">
<polygon fill="white" stroke="#666666" points="1104,-162 981,-162 981,-132 1104,-132 1104,-162"/>
<text text-anchor="start" x="989" y="-150" font-family="Helvetica,sans-Serif" font-size="10.00">libexif/pentax/exif</text>
<text text-anchor="middle" x="1042.5" y="-139" font-family="Helvetica,sans-Serif" font-size="10.00">&#45;mnote&#45;data&#45;pentax.c</text>
</a>
</g>
</g>
<!-- Node32&#45;&gt;Node33 -->
<g id="edge46_Node000032_Node000033" class="edge">
<title>Node32&#45;&gt;Node33</title>
<g id="a_edge46_Node000032_Node000033"><a xlink:title=" ">
<path fill="none" stroke="#63b8ff" d="M1066.32,-188.11C1061.13,-179.38 1055.43,-169.78 1050.91,-162.16"/>
<polygon fill="#63b8ff" stroke="#63b8ff" points="1063.18,-189.68 1071.29,-196.49 1069.2,-186.11 1063.18,-189.68"/>
</a>
</g>
</g>
</g>
</svg>
