<?xml version="1.0" encoding="UTF-8" standalone="no"?>
<!DOCTYPE svg PUBLIC "-//W3C//DTD SVG 1.1//EN"
 "http://www.w3.org/Graphics/SVG/1.1/DTD/svg11.dtd">
<!-- Generated by graphviz version 7.0.1 (0)
 -->
<!-- Title: libexif/i18n.h Pages: 1 -->
<svg width="2607pt" height="93pt"
 viewBox="0.00 0.00 2606.50 93.00" xmlns="http://www.w3.org/2000/svg" xmlns:xlink="http://www.w3.org/1999/xlink">
<g id="graph0" class="graph" transform="scale(1 1) rotate(0) translate(4 89)">
<title>libexif/i18n.h</title>
<!-- Node1 -->
<g id="Node000001" class="node">
<title>Node1</title>
<g id="a_Node000001"><a xlink:title=" ">
<polygon fill="#999999" stroke="#666666" points="1319,-85 1239,-85 1239,-66 1319,-66 1319,-85"/>
<text text-anchor="middle" x="1279" y="-73" font-family="Helvetica,sans-Serif" font-size="10.00">libexif/i18n.h</text>
</a>
</g>
</g>
<!-- Node2 -->
<g id="Node000002" class="node">
<title>Node2</title>
<g id="a_Node000002"><a xlink:href="mnote-apple-entry_8c.html" target="_top" xlink:title=" ">
<polygon fill="white" stroke="#666666" points="112,-30 0,-30 0,0 112,0 112,-30"/>
<text text-anchor="start" x="8" y="-18" font-family="Helvetica,sans-Serif" font-size="10.00">libexif/apple/mnote</text>
<text text-anchor="middle" x="56" y="-7" font-family="Helvetica,sans-Serif" font-size="10.00">&#45;apple&#45;entry.c</text>
</a>
</g>
</g>
<!-- Node1&#45;&gt;Node2 -->
<g id="edge1_Node000001_Node000002" class="edge">
<title>Node1&#45;&gt;Node2</title>
<g id="a_edge1_Node000001_Node000002"><a xlink:title=" ">
<path fill="none" stroke="#63b8ff" d="M1227.19,-73.71C1031.8,-70.53 339.6,-57.53 121,-30 118.14,-29.64 115.21,-29.22 112.27,-28.74"/>
<polygon fill="#63b8ff" stroke="#63b8ff" points="1226.97,-77.2 1237.02,-73.86 1227.08,-70.2 1226.97,-77.2"/>
</a>
</g>
</g>
<!-- Node3 -->
<g id="Node000003" class="node">
<title>Node3</title>
<g id="a_Node000003"><a xlink:href="mnote-apple-tag_8c.html" target="_top" xlink:title=" ">
<polygon fill="white" stroke="#666666" points="242,-30 130,-30 130,0 242,0 242,-30"/>
<text text-anchor="start" x="138" y="-18" font-family="Helvetica,sans-Serif" font-size="10.00">libexif/apple/mnote</text>
<text text-anchor="middle" x="186" y="-7" font-family="Helvetica,sans-Serif" font-size="10.00">&#45;apple&#45;tag.c</text>
</a>
</g>
</g>
<!-- Node1&#45;&gt;Node3 -->
<g id="edge2_Node000001_Node000003" class="edge">
<title>Node1&#45;&gt;Node3</title>
<g id="a_edge2_Node000001_Node000003"><a xlink:title=" ">
<path fill="none" stroke="#63b8ff" d="M1227.43,-73.42C1046.77,-69.46 443.02,-54.66 251,-30 248.14,-29.63 245.21,-29.2 242.27,-28.73"/>
<polygon fill="#63b8ff" stroke="#63b8ff" points="1227.13,-76.91 1237.2,-73.63 1227.28,-69.92 1227.13,-76.91"/>
</a>
</g>
</g>
<!-- Node4 -->
<g id="Node000004" class="node">
<title>Node4</title>
<g id="a_Node000004"><a xlink:href="mnote-canon-entry_8c.html" target="_top" xlink:title=" ">
<polygon fill="white" stroke="#666666" points="374,-30 260,-30 260,0 374,0 374,-30"/>
<text text-anchor="start" x="268" y="-18" font-family="Helvetica,sans-Serif" font-size="10.00">libexif/canon/mnote</text>
<text text-anchor="middle" x="317" y="-7" font-family="Helvetica,sans-Serif" font-size="10.00">&#45;canon&#45;entry.c</text>
</a>
</g>
</g>
<!-- Node1&#45;&gt;Node4 -->
<g id="edge3_Node000001_Node000004" class="edge">
<title>Node1&#45;&gt;Node4</title>
<g id="a_edge3_Node000001_Node000004"><a xlink:title=" ">
<path fill="none" stroke="#63b8ff" d="M1227.19,-74.8C1089.27,-74.99 701.9,-71.47 383,-30 380.21,-29.64 377.37,-29.22 374.5,-28.76"/>
<polygon fill="#63b8ff" stroke="#63b8ff" points="1227.1,-78.3 1237.1,-74.78 1227.09,-71.3 1227.1,-78.3"/>
</a>
</g>
</g>
<!-- Node5 -->
<g id="Node000005" class="node">
<title>Node5</title>
<g id="a_Node000005"><a xlink:href="mnote-canon-tag_8c.html" target="_top" xlink:title=" ">
<polygon fill="white" stroke="#666666" points="506,-30 392,-30 392,0 506,0 506,-30"/>
<text text-anchor="start" x="400" y="-18" font-family="Helvetica,sans-Serif" font-size="10.00">libexif/canon/mnote</text>
<text text-anchor="middle" x="449" y="-7" font-family="Helvetica,sans-Serif" font-size="10.00">&#45;canon&#45;tag.c</text>
</a>
</g>
</g>
<!-- Node1&#45;&gt;Node5 -->
<g id="edge4_Node000001_Node000005" class="edge">
<title>Node1&#45;&gt;Node5</title>
<g id="a_edge4_Node000001_Node000005"><a xlink:title=" ">
<path fill="none" stroke="#63b8ff" d="M1227.28,-74.17C1103.62,-72.8 781.29,-65.79 515,-30 512.1,-29.61 509.13,-29.16 506.15,-28.67"/>
<polygon fill="#63b8ff" stroke="#63b8ff" points="1227.07,-77.67 1237.11,-74.27 1227.14,-70.67 1227.07,-77.67"/>
</a>
</g>
</g>
<!-- Node6 -->
<g id="Node000006" class="node">
<title>Node6</title>
<g id="a_Node000006"><a xlink:href="exif-byte-order_8c.html" target="_top" xlink:title=" ">
<polygon fill="white" stroke="#666666" points="655.5,-24.5 524.5,-24.5 524.5,-5.5 655.5,-5.5 655.5,-24.5"/>
<text text-anchor="middle" x="590" y="-12.5" font-family="Helvetica,sans-Serif" font-size="10.00">libexif/exif&#45;byte&#45;order.c</text>
</a>
</g>
</g>
<!-- Node1&#45;&gt;Node6 -->
<g id="edge5_Node000001_Node000006" class="edge">
<title>Node1&#45;&gt;Node6</title>
<g id="a_edge5_Node000001_Node000006"><a xlink:title=" ">
<path fill="none" stroke="#63b8ff" d="M1227.23,-72.76C1121.17,-68.76 871.7,-57.07 664,-30 653.89,-28.68 643.07,-26.87 632.91,-24.98"/>
<polygon fill="#63b8ff" stroke="#63b8ff" points="1226.91,-76.25 1237.03,-73.12 1227.17,-69.26 1226.91,-76.25"/>
</a>
</g>
</g>
<!-- Node7 -->
<g id="Node000007" class="node">
<title>Node7</title>
<g id="a_Node000007"><a xlink:href="exif-data_8c.html" target="_top" xlink:title=" ">
<polygon fill="white" stroke="#666666" points="774.5,-24.5 673.5,-24.5 673.5,-5.5 774.5,-5.5 774.5,-24.5"/>
<text text-anchor="middle" x="724" y="-12.5" font-family="Helvetica,sans-Serif" font-size="10.00">libexif/exif&#45;data.c</text>
</a>
</g>
</g>
<!-- Node1&#45;&gt;Node7 -->
<g id="edge6_Node000001_Node000007" class="edge">
<title>Node1&#45;&gt;Node7</title>
<g id="a_edge6_Node000001_Node000007"><a xlink:title=" ">
<path fill="none" stroke="#63b8ff" d="M1227.38,-72.24C1137.04,-67.74 944.57,-55.82 784,-30 775.76,-28.68 766.97,-26.86 758.74,-24.97"/>
<polygon fill="#63b8ff" stroke="#63b8ff" points="1226.99,-75.72 1237.15,-72.71 1227.33,-68.73 1226.99,-75.72"/>
</a>
</g>
</g>
<!-- Node8 -->
<g id="Node000008" class="node">
<title>Node8</title>
<g id="a_Node000008"><a xlink:href="exif-entry_8c.html" target="_top" xlink:title=" ">
<polygon fill="white" stroke="#666666" points="897,-24.5 793,-24.5 793,-5.5 897,-5.5 897,-24.5"/>
<text text-anchor="middle" x="845" y="-12.5" font-family="Helvetica,sans-Serif" font-size="10.00">libexif/exif&#45;entry.c</text>
</a>
</g>
</g>
<!-- Node1&#45;&gt;Node8 -->
<g id="edge7_Node000001_Node000008" class="edge">
<title>Node1&#45;&gt;Node8</title>
<g id="a_edge7_Node000001_Node000008"><a xlink:title=" ">
<path fill="none" stroke="#63b8ff" d="M1227.47,-70.11C1155.27,-63.56 1020.05,-49.83 906,-30 897.86,-28.59 889.18,-26.78 881,-24.93"/>
<polygon fill="#63b8ff" stroke="#63b8ff" points="1226.72,-73.56 1236.99,-70.96 1227.35,-66.58 1226.72,-73.56"/>
</a>
</g>
</g>
<!-- Node9 -->
<g id="Node000009" class="node">
<title>Node9</title>
<g id="a_Node000009"><a xlink:href="exif-format_8c.html" target="_top" xlink:title=" ">
<polygon fill="white" stroke="#666666" points="1028.5,-24.5 915.5,-24.5 915.5,-5.5 1028.5,-5.5 1028.5,-24.5"/>
<text text-anchor="middle" x="972" y="-12.5" font-family="Helvetica,sans-Serif" font-size="10.00">libexif/exif&#45;format.c</text>
</a>
</g>
</g>
<!-- Node1&#45;&gt;Node9 -->
<g id="edge8_Node000001_Node000009" class="edge">
<title>Node1&#45;&gt;Node9</title>
<g id="a_edge8_Node000001_Node000009"><a xlink:title=" ">
<path fill="none" stroke="#63b8ff" d="M1227.64,-65.42C1178.8,-56.69 1103.3,-42.95 1038,-30 1030.07,-28.43 1021.62,-26.69 1013.51,-24.98"/>
<polygon fill="#63b8ff" stroke="#63b8ff" points="1226.91,-68.85 1237.36,-67.16 1228.13,-61.96 1226.91,-68.85"/>
</a>
</g>
</g>
<!-- Node10 -->
<g id="Node000010" class="node">
<title>Node10</title>
<g id="a_Node000010"><a xlink:href="exif-loader_8c.html" target="_top" xlink:title=" ">
<polygon fill="white" stroke="#666666" points="1157,-24.5 1047,-24.5 1047,-5.5 1157,-5.5 1157,-24.5"/>
<text text-anchor="middle" x="1102" y="-12.5" font-family="Helvetica,sans-Serif" font-size="10.00">libexif/exif&#45;loader.c</text>
</a>
</g>
</g>
<!-- Node1&#45;&gt;Node10 -->
<g id="edge9_Node000001_Node000010" class="edge">
<title>Node1&#45;&gt;Node10</title>
<g id="a_edge9_Node000001_Node000010"><a xlink:title=" ">
<path fill="none" stroke="#63b8ff" d="M1241.32,-62.05C1207.64,-50.92 1159.13,-34.88 1129.14,-24.97"/>
<polygon fill="#63b8ff" stroke="#63b8ff" points="1240.09,-65.33 1250.68,-65.14 1242.28,-58.68 1240.09,-65.33"/>
</a>
</g>
</g>
<!-- Node11 -->
<g id="Node000011" class="node">
<title>Node11</title>
<g id="a_Node000011"><a xlink:href="exif-log_8c.html" target="_top" xlink:title=" ">
<polygon fill="white" stroke="#666666" points="1270.5,-24.5 1175.5,-24.5 1175.5,-5.5 1270.5,-5.5 1270.5,-24.5"/>
<text text-anchor="middle" x="1223" y="-12.5" font-family="Helvetica,sans-Serif" font-size="10.00">libexif/exif&#45;log.c</text>
</a>
</g>
</g>
<!-- Node1&#45;&gt;Node11 -->
<g id="edge10_Node000001_Node000011" class="edge">
<title>Node1&#45;&gt;Node11</title>
<g id="a_edge10_Node000001_Node000011"><a xlink:title=" ">
<path fill="none" stroke="#63b8ff" d="M1262.85,-57.63C1252.53,-46.85 1239.58,-33.32 1231.3,-24.67"/>
<polygon fill="#63b8ff" stroke="#63b8ff" points="1260.25,-59.97 1269.69,-64.77 1265.3,-55.13 1260.25,-59.97"/>
</a>
</g>
</g>
<!-- Node12 -->
<g id="Node000012" class="node">
<title>Node12</title>
<g id="a_Node000012"><a xlink:href="exif-tag_8c.html" target="_top" xlink:title=" ">
<polygon fill="white" stroke="#666666" points="1383.5,-24.5 1288.5,-24.5 1288.5,-5.5 1383.5,-5.5 1383.5,-24.5"/>
<text text-anchor="middle" x="1336" y="-12.5" font-family="Helvetica,sans-Serif" font-size="10.00">libexif/exif&#45;tag.c</text>
</a>
</g>
</g>
<!-- Node1&#45;&gt;Node12 -->
<g id="edge11_Node000001_Node000012" class="edge">
<title>Node1&#45;&gt;Node12</title>
<g id="a_edge11_Node000001_Node000012"><a xlink:title=" ">
<path fill="none" stroke="#63b8ff" d="M1295.44,-57.63C1305.94,-46.85 1319.12,-33.32 1327.55,-24.67"/>
<polygon fill="#63b8ff" stroke="#63b8ff" points="1292.94,-55.18 1288.47,-64.78 1297.95,-60.06 1292.94,-55.18"/>
</a>
</g>
</g>
<!-- Node13 -->
<g id="Node000013" class="node">
<title>Node13</title>
<g id="a_Node000013"><a xlink:href="mnote-fuji-entry_8c.html" target="_top" xlink:title=" ">
<polygon fill="white" stroke="#666666" points="1502.5,-30 1401.5,-30 1401.5,0 1502.5,0 1502.5,-30"/>
<text text-anchor="start" x="1409.5" y="-18" font-family="Helvetica,sans-Serif" font-size="10.00">libexif/fuji/mnote</text>
<text text-anchor="middle" x="1452" y="-7" font-family="Helvetica,sans-Serif" font-size="10.00">&#45;fuji&#45;entry.c</text>
</a>
</g>
</g>
<!-- Node1&#45;&gt;Node13 -->
<g id="edge12_Node000001_Node000013" class="edge">
<title>Node1&#45;&gt;Node13</title>
<g id="a_edge12_Node000001_Node000013"><a xlink:title=" ">
<path fill="none" stroke="#63b8ff" d="M1315.97,-62C1343.33,-52.75 1380.66,-40.12 1409.3,-30.44"/>
<polygon fill="#63b8ff" stroke="#63b8ff" points="1315.06,-58.61 1306.71,-65.13 1317.3,-65.24 1315.06,-58.61"/>
</a>
</g>
</g>
<!-- Node14 -->
<g id="Node000014" class="node">
<title>Node14</title>
<g id="a_Node000014"><a xlink:href="mnote-fuji-tag_8c.html" target="_top" xlink:title=" ">
<polygon fill="white" stroke="#666666" points="1621.5,-30 1520.5,-30 1520.5,0 1621.5,0 1621.5,-30"/>
<text text-anchor="start" x="1528.5" y="-18" font-family="Helvetica,sans-Serif" font-size="10.00">libexif/fuji/mnote</text>
<text text-anchor="middle" x="1571" y="-7" font-family="Helvetica,sans-Serif" font-size="10.00">&#45;fuji&#45;tag.c</text>
</a>
</g>
</g>
<!-- Node1&#45;&gt;Node14 -->
<g id="edge13_Node000001_Node000014" class="edge">
<title>Node1&#45;&gt;Node14</title>
<g id="a_edge13_Node000001_Node000014"><a xlink:title=" ">
<path fill="none" stroke="#63b8ff" d="M1330.27,-65.38C1377.57,-56.81 1449.68,-43.34 1512,-30 1514.68,-29.43 1517.42,-28.83 1520.18,-28.21"/>
<polygon fill="#63b8ff" stroke="#63b8ff" points="1329.81,-61.91 1320.59,-67.13 1331.05,-68.8 1329.81,-61.91"/>
</a>
</g>
</g>
<!-- Node15 -->
<g id="Node000015" class="node">
<title>Node15</title>
<g id="a_Node000015"><a xlink:href="mnote-olympus-entry_8c.html" target="_top" xlink:title=" ">
<polygon fill="white" stroke="#666666" points="1766.5,-30 1639.5,-30 1639.5,0 1766.5,0 1766.5,-30"/>
<text text-anchor="start" x="1647.5" y="-18" font-family="Helvetica,sans-Serif" font-size="10.00">libexif/olympus/mnote</text>
<text text-anchor="middle" x="1703" y="-7" font-family="Helvetica,sans-Serif" font-size="10.00">&#45;olympus&#45;entry.c</text>
</a>
</g>
</g>
<!-- Node1&#45;&gt;Node15 -->
<g id="edge14_Node000001_Node000015" class="edge">
<title>Node1&#45;&gt;Node15</title>
<g id="a_edge14_Node000001_Node000015"><a xlink:title=" ">
<path fill="none" stroke="#63b8ff" d="M1330.59,-69.06C1399.32,-61.57 1524.63,-47.05 1631,-30 1633.64,-29.58 1636.33,-29.13 1639.05,-28.66"/>
<polygon fill="#63b8ff" stroke="#63b8ff" points="1330.31,-65.57 1320.75,-70.13 1331.07,-72.53 1330.31,-65.57"/>
</a>
</g>
</g>
<!-- Node16 -->
<g id="Node000016" class="node">
<title>Node16</title>
<g id="a_Node000016"><a xlink:href="mnote-olympus-tag_8c.html" target="_top" xlink:title=" ">
<polygon fill="white" stroke="#666666" points="1911.5,-30 1784.5,-30 1784.5,0 1911.5,0 1911.5,-30"/>
<text text-anchor="start" x="1792.5" y="-18" font-family="Helvetica,sans-Serif" font-size="10.00">libexif/olympus/mnote</text>
<text text-anchor="middle" x="1848" y="-7" font-family="Helvetica,sans-Serif" font-size="10.00">&#45;olympus&#45;tag.c</text>
</a>
</g>
</g>
<!-- Node1&#45;&gt;Node16 -->
<g id="edge15_Node000001_Node000016" class="edge">
<title>Node1&#45;&gt;Node16</title>
<g id="a_edge15_Node000001_Node000016"><a xlink:title=" ">
<path fill="none" stroke="#63b8ff" d="M1330.73,-71.62C1421.3,-66.2 1614.33,-52.89 1776,-30 1778.65,-29.63 1781.35,-29.22 1784.07,-28.78"/>
<polygon fill="#63b8ff" stroke="#63b8ff" points="1330.71,-68.12 1320.94,-72.2 1331.12,-75.11 1330.71,-68.12"/>
</a>
</g>
</g>
<!-- Node17 -->
<g id="Node000017" class="node">
<title>Node17</title>
<g id="a_Node000017"><a xlink:href="mnote-pentax-entry_8c.html" target="_top" xlink:title=" ">
<polygon fill="white" stroke="#666666" points="2048.5,-30 1929.5,-30 1929.5,0 2048.5,0 2048.5,-30"/>
<text text-anchor="start" x="1937.5" y="-18" font-family="Helvetica,sans-Serif" font-size="10.00">libexif/pentax/mnote</text>
<text text-anchor="middle" x="1989" y="-7" font-family="Helvetica,sans-Serif" font-size="10.00">&#45;pentax&#45;entry.c</text>
</a>
</g>
</g>
<!-- Node1&#45;&gt;Node17 -->
<g id="edge16_Node000001_Node000017" class="edge">
<title>Node1&#45;&gt;Node17</title>
<g id="a_edge16_Node000001_Node000017"><a xlink:title=" ">
<path fill="none" stroke="#63b8ff" d="M1330.72,-73.26C1440.12,-70.13 1702.86,-59.88 1921,-30 1923.63,-29.64 1926.3,-29.24 1929.01,-28.81"/>
<polygon fill="#63b8ff" stroke="#63b8ff" points="1330.79,-69.76 1320.89,-73.53 1330.99,-76.76 1330.79,-69.76"/>
</a>
</g>
</g>
<!-- Node18 -->
<g id="Node000018" class="node">
<title>Node18</title>
<g id="a_Node000018"><a xlink:href="mnote-pentax-tag_8c.html" target="_top" xlink:title=" ">
<polygon fill="white" stroke="#666666" points="2185.5,-30 2066.5,-30 2066.5,0 2185.5,0 2185.5,-30"/>
<text text-anchor="start" x="2074.5" y="-18" font-family="Helvetica,sans-Serif" font-size="10.00">libexif/pentax/mnote</text>
<text text-anchor="middle" x="2126" y="-7" font-family="Helvetica,sans-Serif" font-size="10.00">&#45;pentax&#45;tag.c</text>
</a>
</g>
</g>
<!-- Node1&#45;&gt;Node18 -->
<g id="edge17_Node000001_Node000018" class="edge">
<title>Node1&#45;&gt;Node18</title>
<g id="a_edge17_Node000001_Node000018"><a xlink:title=" ">
<path fill="none" stroke="#63b8ff" d="M1330.82,-74.15C1456.2,-72.73 1785.72,-65.61 2058,-30 2060.63,-29.66 2063.31,-29.27 2066.01,-28.85"/>
<polygon fill="#63b8ff" stroke="#63b8ff" points="1330.8,-70.65 1320.84,-74.25 1330.88,-77.65 1330.8,-70.65"/>
</a>
</g>
</g>
<!-- Node19 -->
<g id="Node000019" class="node">
<title>Node19</title>
<g id="a_Node000019"><a xlink:href="print-localedir_8c.html" target="_top" xlink:title=" ">
<polygon fill="white" stroke="#666666" points="2336,-24.5 2204,-24.5 2204,-5.5 2336,-5.5 2336,-24.5"/>
<text text-anchor="middle" x="2270" y="-12.5" font-family="Helvetica,sans-Serif" font-size="10.00">test/nls/print&#45;localedir.c</text>
</a>
</g>
</g>
<!-- Node1&#45;&gt;Node19 -->
<g id="edge18_Node000001_Node000019" class="edge">
<title>Node1&#45;&gt;Node19</title>
<g id="a_edge18_Node000001_Node000019"><a xlink:title=" ">
<path fill="none" stroke="#63b8ff" d="M1330.5,-74.45C1470.11,-73.77 1867.38,-68.36 2195,-30 2205.66,-28.75 2217.08,-26.89 2227.71,-24.93"/>
<polygon fill="#63b8ff" stroke="#63b8ff" points="1330.84,-70.95 1320.85,-74.49 1330.87,-77.95 1330.84,-70.95"/>
</a>
</g>
</g>
<!-- Node20 -->
<g id="Node000020" class="node">
<title>Node20</title>
<g id="a_Node000020"><a xlink:href="test-codeset_8c.html" target="_top" xlink:title=" ">
<polygon fill="white" stroke="#666666" points="2479.5,-24.5 2354.5,-24.5 2354.5,-5.5 2479.5,-5.5 2479.5,-24.5"/>
<text text-anchor="middle" x="2417" y="-12.5" font-family="Helvetica,sans-Serif" font-size="10.00">test/nls/test&#45;codeset.c</text>
</a>
</g>
</g>
<!-- Node1&#45;&gt;Node20 -->
<g id="edge19_Node000001_Node000020" class="edge">
<title>Node1&#45;&gt;Node20</title>
<g id="a_edge19_Node000001_Node000020"><a xlink:title=" ">
<path fill="none" stroke="#63b8ff" d="M1330.78,-75.09C1485.44,-76.25 1957.27,-75.53 2345,-30 2355.24,-28.8 2366.21,-26.95 2376.42,-25"/>
<polygon fill="#63b8ff" stroke="#63b8ff" points="1330.89,-71.59 1320.86,-75.01 1330.83,-78.59 1330.89,-71.59"/>
</a>
</g>
</g>
<!-- Node21 -->
<g id="Node000021" class="node">
<title>Node21</title>
<g id="a_Node000021"><a xlink:href="test-nls_8c.html" target="_top" xlink:title=" ">
<polygon fill="white" stroke="#666666" points="2598.5,-24.5 2497.5,-24.5 2497.5,-5.5 2598.5,-5.5 2598.5,-24.5"/>
<text text-anchor="middle" x="2548" y="-12.5" font-family="Helvetica,sans-Serif" font-size="10.00">test/nls/test&#45;nls.c</text>
</a>
</g>
</g>
<!-- Node1&#45;&gt;Node21 -->
<g id="edge20_Node000001_Node000021" class="edge">
<title>Node1&#45;&gt;Node21</title>
<g id="a_edge20_Node000001_Node000021"><a xlink:title=" ">
<path fill="none" stroke="#63b8ff" d="M1330.82,-73.95C1531.8,-71.6 2260,-61.07 2489,-30 2497.66,-28.83 2506.9,-26.94 2515.45,-24.93"/>
<polygon fill="#63b8ff" stroke="#63b8ff" points="1330.91,-70.45 1320.96,-74.06 1330.99,-77.45 1330.91,-70.45"/>
</a>
</g>
</g>
</g>
</svg>
