<?xml version="1.0" encoding="UTF-8" standalone="no"?>
<!DOCTYPE svg PUBLIC "-//W3C//DTD SVG 1.1//EN"
 "http://www.w3.org/Graphics/SVG/1.1/DTD/svg11.dtd">
<!-- Generated by graphviz version 2.44.1 (0)
 -->
<!-- Title: libexif/i18n.h Pages: 1 -->
<svg width="2607pt" height="95pt"
 viewBox="0.00 0.00 2606.50 95.00" xmlns="http://www.w3.org/2000/svg" xmlns:xlink="http://www.w3.org/1999/xlink">
<g id="graph0" class="graph" transform="scale(1 1) rotate(0) translate(4 91)">
<title>libexif/i18n.h</title>
<polygon fill="white" stroke="transparent" points="-4,4 -4,-91 2602.5,-91 2602.5,4 -4,4"/>
<!-- Node1 -->
<g id="node1" class="node">
<title>Node1</title>
<g id="a_node1"><a xlink:title=" ">
<polygon fill="#bfbfbf" stroke="black" points="1239,-67.5 1239,-86.5 1319,-86.5 1319,-67.5 1239,-67.5"/>
<text text-anchor="middle" x="1279" y="-74.5" font-family="Helvetica,sans-Serif" font-size="10.00">libexif/i18n.h</text>
</a>
</g>
</g>
<!-- Node2 -->
<g id="node2" class="node">
<title>Node2</title>
<g id="a_node2"><a xlink:href="mnote-apple-entry_8c.html" target="_top" xlink:title=" ">
<polygon fill="white" stroke="black" points="0,-0.5 0,-30.5 112,-30.5 112,-0.5 0,-0.5"/>
<text text-anchor="start" x="8" y="-18.5" font-family="Helvetica,sans-Serif" font-size="10.00">libexif/apple/mnote</text>
<text text-anchor="middle" x="56" y="-7.5" font-family="Helvetica,sans-Serif" font-size="10.00">&#45;apple&#45;entry.c</text>
</a>
</g>
</g>
<!-- Node1&#45;&gt;Node2 -->
<g id="edge1" class="edge">
<title>Node1&#45;&gt;Node2</title>
<path fill="none" stroke="midnightblue" d="M1228.67,-75.25C1035.31,-72.2 340.06,-59.45 121,-31 118.13,-30.63 115.21,-30.19 112.26,-29.7"/>
<polygon fill="midnightblue" stroke="midnightblue" points="1228.77,-78.76 1238.83,-75.41 1228.88,-71.76 1228.77,-78.76"/>
</g>
<!-- Node3 -->
<g id="node3" class="node">
<title>Node3</title>
<g id="a_node3"><a xlink:href="mnote-apple-tag_8c.html" target="_top" xlink:title=" ">
<polygon fill="white" stroke="black" points="130,-0.5 130,-30.5 242,-30.5 242,-0.5 130,-0.5"/>
<text text-anchor="start" x="138" y="-18.5" font-family="Helvetica,sans-Serif" font-size="10.00">libexif/apple/mnote</text>
<text text-anchor="middle" x="186" y="-7.5" font-family="Helvetica,sans-Serif" font-size="10.00">&#45;apple&#45;tag.c</text>
</a>
</g>
</g>
<!-- Node1&#45;&gt;Node3 -->
<g id="edge2" class="edge">
<title>Node1&#45;&gt;Node3</title>
<path fill="none" stroke="midnightblue" d="M1228.81,-74.97C1049.84,-71.12 443.41,-56.47 251,-31 248.13,-30.62 245.21,-30.18 242.26,-29.69"/>
<polygon fill="midnightblue" stroke="midnightblue" points="1228.91,-78.47 1238.99,-75.19 1229.06,-71.48 1228.91,-78.47"/>
</g>
<!-- Node4 -->
<g id="node4" class="node">
<title>Node4</title>
<g id="a_node4"><a xlink:href="mnote-canon-entry_8c.html" target="_top" xlink:title=" ">
<polygon fill="white" stroke="black" points="260,-0.5 260,-30.5 374,-30.5 374,-0.5 260,-0.5"/>
<text text-anchor="start" x="268" y="-18.5" font-family="Helvetica,sans-Serif" font-size="10.00">libexif/canon/mnote</text>
<text text-anchor="middle" x="317" y="-7.5" font-family="Helvetica,sans-Serif" font-size="10.00">&#45;canon&#45;entry.c</text>
</a>
</g>
</g>
<!-- Node1&#45;&gt;Node4 -->
<g id="edge3" class="edge">
<title>Node1&#45;&gt;Node4</title>
<path fill="none" stroke="midnightblue" d="M1228.42,-76.39C1091.55,-76.82 702.71,-73.85 383,-31 380.09,-30.61 377.12,-30.16 374.13,-29.66"/>
<polygon fill="midnightblue" stroke="midnightblue" points="1228.61,-79.89 1238.6,-76.35 1228.58,-72.89 1228.61,-79.89"/>
</g>
<!-- Node5 -->
<g id="node5" class="node">
<title>Node5</title>
<g id="a_node5"><a xlink:href="mnote-canon-tag_8c.html" target="_top" xlink:title=" ">
<polygon fill="white" stroke="black" points="392,-0.5 392,-30.5 506,-30.5 506,-0.5 392,-0.5"/>
<text text-anchor="start" x="400" y="-18.5" font-family="Helvetica,sans-Serif" font-size="10.00">libexif/canon/mnote</text>
<text text-anchor="middle" x="449" y="-7.5" font-family="Helvetica,sans-Serif" font-size="10.00">&#45;canon&#45;tag.c</text>
</a>
</g>
</g>
<!-- Node1&#45;&gt;Node5 -->
<g id="edge4" class="edge">
<title>Node1&#45;&gt;Node5</title>
<path fill="none" stroke="midnightblue" d="M1228.38,-75.76C1105.51,-74.6 781.96,-67.95 515,-31 512.09,-30.6 509.13,-30.14 506.14,-29.63"/>
<polygon fill="midnightblue" stroke="midnightblue" points="1228.58,-79.27 1238.61,-75.85 1228.64,-72.27 1228.58,-79.27"/>
</g>
<!-- Node6 -->
<g id="node6" class="node">
<title>Node6</title>
<g id="a_node6"><a xlink:href="exif-byte-order_8c.html" target="_top" xlink:title=" ">
<polygon fill="white" stroke="black" points="524.5,-6 524.5,-25 655.5,-25 655.5,-6 524.5,-6"/>
<text text-anchor="middle" x="590" y="-13" font-family="Helvetica,sans-Serif" font-size="10.00">libexif/exif&#45;byte&#45;order.c</text>
</a>
</g>
</g>
<!-- Node1&#45;&gt;Node6 -->
<g id="edge5" class="edge">
<title>Node1&#45;&gt;Node6</title>
<path fill="none" stroke="midnightblue" d="M1228.89,-74.38C1123.77,-70.53 872.71,-58.98 664,-31 652.58,-29.47 640.27,-27.28 629.03,-25.06"/>
<polygon fill="midnightblue" stroke="midnightblue" points="1228.78,-77.88 1238.9,-74.74 1229.03,-70.88 1228.78,-77.88"/>
</g>
<!-- Node7 -->
<g id="node7" class="node">
<title>Node7</title>
<g id="a_node7"><a xlink:href="exif-data_8c.html" target="_top" xlink:title=" ">
<polygon fill="white" stroke="black" points="673.5,-6 673.5,-25 774.5,-25 774.5,-6 673.5,-6"/>
<text text-anchor="middle" x="724" y="-13" font-family="Helvetica,sans-Serif" font-size="10.00">libexif/exif&#45;data.c</text>
</a>
</g>
</g>
<!-- Node1&#45;&gt;Node7 -->
<g id="edge6" class="edge">
<title>Node1&#45;&gt;Node7</title>
<path fill="none" stroke="midnightblue" d="M1228.8,-73.87C1139.04,-69.52 945.33,-57.68 784,-31 774.7,-29.46 764.7,-27.27 755.58,-25.05"/>
<polygon fill="midnightblue" stroke="midnightblue" points="1228.81,-77.37 1238.97,-74.35 1229.14,-70.38 1228.81,-77.37"/>
</g>
<!-- Node8 -->
<g id="node8" class="node">
<title>Node8</title>
<g id="a_node8"><a xlink:href="exif-entry_8c.html" target="_top" xlink:title=" ">
<polygon fill="white" stroke="black" points="793,-6 793,-25 897,-25 897,-6 793,-6"/>
<text text-anchor="middle" x="845" y="-13" font-family="Helvetica,sans-Serif" font-size="10.00">libexif/exif&#45;entry.c</text>
</a>
</g>
</g>
<!-- Node1&#45;&gt;Node8 -->
<g id="edge7" class="edge">
<title>Node1&#45;&gt;Node8</title>
<path fill="none" stroke="midnightblue" d="M1228.62,-71.75C1156.7,-65.27 1020.6,-51.47 906,-31 896.78,-29.35 886.88,-27.18 877.78,-25.01"/>
<polygon fill="midnightblue" stroke="midnightblue" points="1228.49,-75.25 1238.76,-72.65 1229.11,-68.28 1228.49,-75.25"/>
</g>
<!-- Node9 -->
<g id="node9" class="node">
<title>Node9</title>
<g id="a_node9"><a xlink:href="exif-format_8c.html" target="_top" xlink:title=" ">
<polygon fill="white" stroke="black" points="915.5,-6 915.5,-25 1028.5,-25 1028.5,-6 915.5,-6"/>
<text text-anchor="middle" x="972" y="-13" font-family="Helvetica,sans-Serif" font-size="10.00">libexif/exif&#45;format.c</text>
</a>
</g>
</g>
<!-- Node1&#45;&gt;Node9 -->
<g id="edge8" class="edge">
<title>Node1&#45;&gt;Node9</title>
<path fill="none" stroke="midnightblue" d="M1228.85,-67.11C1180.04,-58.35 1103.81,-44.37 1038,-31 1028.92,-29.15 1019.16,-27.07 1010,-25.06"/>
<polygon fill="midnightblue" stroke="midnightblue" points="1228.38,-70.59 1238.84,-68.9 1229.61,-63.69 1228.38,-70.59"/>
</g>
<!-- Node10 -->
<g id="node10" class="node">
<title>Node10</title>
<g id="a_node10"><a xlink:href="exif-loader_8c.html" target="_top" xlink:title=" ">
<polygon fill="white" stroke="black" points="1047,-6 1047,-25 1157,-25 1157,-6 1047,-6"/>
<text text-anchor="middle" x="1102" y="-13" font-family="Helvetica,sans-Serif" font-size="10.00">libexif/exif&#45;loader.c</text>
</a>
</g>
</g>
<!-- Node1&#45;&gt;Node10 -->
<g id="edge9" class="edge">
<title>Node1&#45;&gt;Node10</title>
<path fill="none" stroke="midnightblue" d="M1243.99,-64.23C1209.59,-52.67 1157.92,-35.3 1127.31,-25.01"/>
<polygon fill="midnightblue" stroke="midnightblue" points="1243.05,-67.61 1253.64,-67.48 1245.28,-60.97 1243.05,-67.61"/>
</g>
<!-- Node11 -->
<g id="node11" class="node">
<title>Node11</title>
<g id="a_node11"><a xlink:href="exif-log_8c.html" target="_top" xlink:title=" ">
<polygon fill="white" stroke="black" points="1175.5,-6 1175.5,-25 1270.5,-25 1270.5,-6 1175.5,-6"/>
<text text-anchor="middle" x="1223" y="-13" font-family="Helvetica,sans-Serif" font-size="10.00">libexif/exif&#45;log.c</text>
</a>
</g>
</g>
<!-- Node1&#45;&gt;Node11 -->
<g id="edge10" class="edge">
<title>Node1&#45;&gt;Node11</title>
<path fill="none" stroke="midnightblue" d="M1263.94,-60C1253.34,-48.74 1239.57,-34.1 1231.01,-25.01"/>
<polygon fill="midnightblue" stroke="midnightblue" points="1261.57,-62.59 1270.98,-67.48 1266.67,-57.79 1261.57,-62.59"/>
</g>
<!-- Node12 -->
<g id="node12" class="node">
<title>Node12</title>
<g id="a_node12"><a xlink:href="exif-tag_8c.html" target="_top" xlink:title=" ">
<polygon fill="white" stroke="black" points="1288.5,-6 1288.5,-25 1383.5,-25 1383.5,-6 1288.5,-6"/>
<text text-anchor="middle" x="1336" y="-13" font-family="Helvetica,sans-Serif" font-size="10.00">libexif/exif&#45;tag.c</text>
</a>
</g>
</g>
<!-- Node1&#45;&gt;Node12 -->
<g id="edge11" class="edge">
<title>Node1&#45;&gt;Node12</title>
<path fill="none" stroke="midnightblue" d="M1294.33,-60C1305.12,-48.74 1319.14,-34.1 1327.85,-25.01"/>
<polygon fill="midnightblue" stroke="midnightblue" points="1291.56,-57.83 1287.17,-67.48 1296.61,-62.68 1291.56,-57.83"/>
</g>
<!-- Node13 -->
<g id="node13" class="node">
<title>Node13</title>
<g id="a_node13"><a xlink:href="mnote-fuji-entry_8c.html" target="_top" xlink:title=" ">
<polygon fill="white" stroke="black" points="1401.5,-0.5 1401.5,-30.5 1502.5,-30.5 1502.5,-0.5 1401.5,-0.5"/>
<text text-anchor="start" x="1409.5" y="-18.5" font-family="Helvetica,sans-Serif" font-size="10.00">libexif/fuji/mnote</text>
<text text-anchor="middle" x="1452" y="-7.5" font-family="Helvetica,sans-Serif" font-size="10.00">&#45;fuji&#45;entry.c</text>
</a>
</g>
</g>
<!-- Node1&#45;&gt;Node13 -->
<g id="edge12" class="edge">
<title>Node1&#45;&gt;Node13</title>
<path fill="none" stroke="midnightblue" d="M1313.59,-64.1C1341.74,-54.42 1381.53,-40.74 1411.23,-30.52"/>
<polygon fill="midnightblue" stroke="midnightblue" points="1312.1,-60.91 1303.79,-67.48 1314.38,-67.53 1312.1,-60.91"/>
</g>
<!-- Node14 -->
<g id="node14" class="node">
<title>Node14</title>
<g id="a_node14"><a xlink:href="mnote-fuji-tag_8c.html" target="_top" xlink:title=" ">
<polygon fill="white" stroke="black" points="1520.5,-0.5 1520.5,-30.5 1621.5,-30.5 1621.5,-0.5 1520.5,-0.5"/>
<text text-anchor="start" x="1528.5" y="-18.5" font-family="Helvetica,sans-Serif" font-size="10.00">libexif/fuji/mnote</text>
<text text-anchor="middle" x="1571" y="-7.5" font-family="Helvetica,sans-Serif" font-size="10.00">&#45;fuji&#45;tag.c</text>
</a>
</g>
</g>
<!-- Node1&#45;&gt;Node14 -->
<g id="edge13" class="edge">
<title>Node1&#45;&gt;Node14</title>
<path fill="none" stroke="midnightblue" d="M1329.1,-67.08C1376.39,-58.47 1449.2,-44.77 1512,-31 1514.68,-30.41 1517.42,-29.79 1520.19,-29.16"/>
<polygon fill="midnightblue" stroke="midnightblue" points="1328.33,-63.66 1319.12,-68.88 1329.58,-70.55 1328.33,-63.66"/>
</g>
<!-- Node15 -->
<g id="node15" class="node">
<title>Node15</title>
<g id="a_node15"><a xlink:href="mnote-olympus-entry_8c.html" target="_top" xlink:title=" ">
<polygon fill="white" stroke="black" points="1639.5,-0.5 1639.5,-30.5 1766.5,-30.5 1766.5,-0.5 1639.5,-0.5"/>
<text text-anchor="start" x="1647.5" y="-18.5" font-family="Helvetica,sans-Serif" font-size="10.00">libexif/olympus/mnote</text>
<text text-anchor="middle" x="1703" y="-7.5" font-family="Helvetica,sans-Serif" font-size="10.00">&#45;olympus&#45;entry.c</text>
</a>
</g>
</g>
<!-- Node1&#45;&gt;Node15 -->
<g id="edge14" class="edge">
<title>Node1&#45;&gt;Node15</title>
<path fill="none" stroke="midnightblue" d="M1329.33,-70.71C1397.8,-63.26 1524.03,-48.59 1631,-31 1633.77,-30.54 1636.59,-30.06 1639.44,-29.56"/>
<polygon fill="midnightblue" stroke="midnightblue" points="1328.82,-67.25 1319.26,-71.8 1329.57,-74.21 1328.82,-67.25"/>
</g>
<!-- Node16 -->
<g id="node16" class="node">
<title>Node16</title>
<g id="a_node16"><a xlink:href="mnote-olympus-tag_8c.html" target="_top" xlink:title=" ">
<polygon fill="white" stroke="black" points="1784.5,-0.5 1784.5,-30.5 1911.5,-30.5 1911.5,-0.5 1784.5,-0.5"/>
<text text-anchor="start" x="1792.5" y="-18.5" font-family="Helvetica,sans-Serif" font-size="10.00">libexif/olympus/mnote</text>
<text text-anchor="middle" x="1848" y="-7.5" font-family="Helvetica,sans-Serif" font-size="10.00">&#45;olympus&#45;tag.c</text>
</a>
</g>
</g>
<!-- Node1&#45;&gt;Node16 -->
<g id="edge15" class="edge">
<title>Node1&#45;&gt;Node16</title>
<path fill="none" stroke="midnightblue" d="M1329.3,-73.25C1419.27,-67.94 1613.54,-54.64 1776,-31 1778.78,-30.6 1781.61,-30.15 1784.46,-29.68"/>
<polygon fill="midnightblue" stroke="midnightblue" points="1328.89,-69.77 1319.11,-73.85 1329.3,-76.76 1328.89,-69.77"/>
</g>
<!-- Node17 -->
<g id="node17" class="node">
<title>Node17</title>
<g id="a_node17"><a xlink:href="mnote-pentax-entry_8c.html" target="_top" xlink:title=" ">
<polygon fill="white" stroke="black" points="1929.5,-0.5 1929.5,-30.5 2048.5,-30.5 2048.5,-0.5 1929.5,-0.5"/>
<text text-anchor="start" x="1937.5" y="-18.5" font-family="Helvetica,sans-Serif" font-size="10.00">libexif/pentax/mnote</text>
<text text-anchor="middle" x="1989" y="-7.5" font-family="Helvetica,sans-Serif" font-size="10.00">&#45;pentax&#45;entry.c</text>
</a>
</g>
</g>
<!-- Node1&#45;&gt;Node17 -->
<g id="edge16" class="edge">
<title>Node1&#45;&gt;Node17</title>
<path fill="none" stroke="midnightblue" d="M1329.34,-74.87C1437.93,-71.9 1702.04,-61.86 1921,-31 1923.75,-30.61 1926.55,-30.18 1929.38,-29.71"/>
<polygon fill="midnightblue" stroke="midnightblue" points="1328.93,-71.38 1319.02,-75.14 1329.11,-78.38 1328.93,-71.38"/>
</g>
<!-- Node18 -->
<g id="node18" class="node">
<title>Node18</title>
<g id="a_node18"><a xlink:href="mnote-pentax-tag_8c.html" target="_top" xlink:title=" ">
<polygon fill="white" stroke="black" points="2066.5,-0.5 2066.5,-30.5 2185.5,-30.5 2185.5,-0.5 2066.5,-0.5"/>
<text text-anchor="start" x="2074.5" y="-18.5" font-family="Helvetica,sans-Serif" font-size="10.00">libexif/pentax/mnote</text>
<text text-anchor="middle" x="2126" y="-7.5" font-family="Helvetica,sans-Serif" font-size="10.00">&#45;pentax&#45;tag.c</text>
</a>
</g>
</g>
<!-- Node1&#45;&gt;Node18 -->
<g id="edge17" class="edge">
<title>Node1&#45;&gt;Node18</title>
<path fill="none" stroke="midnightblue" d="M1329.7,-75.74C1454.26,-74.52 1785.03,-67.77 2058,-31 2060.75,-30.63 2063.56,-30.21 2066.39,-29.75"/>
<polygon fill="midnightblue" stroke="midnightblue" points="1329.31,-72.24 1319.34,-75.83 1329.37,-79.24 1329.31,-72.24"/>
</g>
<!-- Node19 -->
<g id="node19" class="node">
<title>Node19</title>
<g id="a_node19"><a xlink:href="print-localedir_8c.html" target="_top" xlink:title=" ">
<polygon fill="white" stroke="black" points="2204,-6 2204,-25 2336,-25 2336,-6 2204,-6"/>
<text text-anchor="middle" x="2270" y="-13" font-family="Helvetica,sans-Serif" font-size="10.00">test/nls/print&#45;localedir.c</text>
</a>
</g>
</g>
<!-- Node1&#45;&gt;Node19 -->
<g id="edge18" class="edge">
<title>Node1&#45;&gt;Node19</title>
<path fill="none" stroke="midnightblue" d="M1329.67,-76.03C1468.57,-75.56 1866.85,-70.58 2195,-31 2206.98,-29.55 2219.92,-27.3 2231.63,-25.01"/>
<polygon fill="midnightblue" stroke="midnightblue" points="1329.34,-72.53 1319.35,-76.05 1329.36,-79.53 1329.34,-72.53"/>
</g>
<!-- Node20 -->
<g id="node20" class="node">
<title>Node20</title>
<g id="a_node20"><a xlink:href="test-codeset_8c.html" target="_top" xlink:title=" ">
<polygon fill="white" stroke="black" points="2354.5,-6 2354.5,-25 2479.5,-25 2479.5,-6 2354.5,-6"/>
<text text-anchor="middle" x="2417" y="-13" font-family="Helvetica,sans-Serif" font-size="10.00">test/nls/test&#45;codeset.c</text>
</a>
</g>
</g>
<!-- Node1&#45;&gt;Node20 -->
<g id="edge19" class="edge">
<title>Node1&#45;&gt;Node20</title>
<path fill="none" stroke="midnightblue" d="M1329.2,-74.92C1512.37,-70.84 2144.54,-55.26 2345,-31 2356.52,-29.61 2368.95,-27.37 2380.18,-25.07"/>
<polygon fill="midnightblue" stroke="midnightblue" points="1328.96,-71.43 1319.04,-75.15 1329.12,-78.43 1328.96,-71.43"/>
</g>
<!-- Node21 -->
<g id="node21" class="node">
<title>Node21</title>
<g id="a_node21"><a xlink:href="test-nls_8c.html" target="_top" xlink:title=" ">
<polygon fill="white" stroke="black" points="2497.5,-6 2497.5,-25 2598.5,-25 2598.5,-6 2497.5,-6"/>
<text text-anchor="middle" x="2548" y="-13" font-family="Helvetica,sans-Serif" font-size="10.00">test/nls/test&#45;nls.c</text>
</a>
</g>
</g>
<!-- Node1&#45;&gt;Node21 -->
<g id="edge20" class="edge">
<title>Node1&#45;&gt;Node21</title>
<path fill="none" stroke="midnightblue" d="M1329.3,-75.5C1528.12,-73.29 2259.55,-63.12 2489,-31 2498.61,-29.65 2508.93,-27.4 2518.22,-25.07"/>
<polygon fill="midnightblue" stroke="midnightblue" points="1329.1,-72 1319.14,-75.61 1329.18,-79 1329.1,-72"/>
</g>
</g>
</svg>
