<?xml version="1.0" encoding="UTF-8" standalone="no"?>
<!DOCTYPE svg PUBLIC "-//W3C//DTD SVG 1.1//EN"
 "http://www.w3.org/Graphics/SVG/1.1/DTD/svg11.dtd">
<!-- Generated by graphviz version 7.0.1 (0)
 -->
<!-- Title: mnote_canon_entry_get_value Pages: 1 -->
<svg width="448pt" height="352pt"
 viewBox="0.00 0.00 448.00 351.61" xmlns="http://www.w3.org/2000/svg" xmlns:xlink="http://www.w3.org/1999/xlink">
<g id="graph0" class="graph" transform="scale(1 1) rotate(0) translate(4 347.61)">
<title>mnote_canon_entry_get_value</title>
<!-- Node1 -->
<g id="Node000001" class="node">
<title>Node1</title>
<g id="a_Node000001"><a xlink:title=" ">
<polygon fill="#999999" stroke="#666666" points="134,-173.11 0,-173.11 0,-143.11 134,-143.11 134,-173.11"/>
<text text-anchor="start" x="8" y="-161.11" font-family="Helvetica,sans-Serif" font-size="10.00">mnote_canon_entry_get</text>
<text text-anchor="middle" x="67" y="-150.11" font-family="Helvetica,sans-Serif" font-size="10.00">_value</text>
</a>
</g>
</g>
<!-- Node2 -->
<g id="Node000002" class="node">
<title>Node2</title>
<g id="a_Node000002"><a xlink:href="mnote-canon-entry_8c.html#a06e73d7e72da3d1aa6914c8bf3d69c0d" target="_top" xlink:title=" ">
<polygon fill="white" stroke="#666666" points="308,-343.61 174,-343.61 174,-324.61 308,-324.61 308,-343.61"/>
<text text-anchor="middle" x="241" y="-331.61" font-family="Helvetica,sans-Serif" font-size="10.00">apex_value_to_aperture</text>
</a>
</g>
</g>
<!-- Node1&#45;&gt;Node2 -->
<g id="edge1_Node000001_Node000002" class="edge">
<title>Node1&#45;&gt;Node2</title>
<g id="a_edge1_Node000001_Node000002"><a xlink:title=" ">
<path fill="none" stroke="#63b8ff" d="M73.44,-173.43C85.55,-205.21 117.82,-278.5 170,-316.11 171.54,-317.22 173.14,-318.26 174.79,-319.24"/>
<polygon fill="#63b8ff" stroke="#63b8ff" points="172.84,-322.18 183.35,-323.49 175.95,-315.91 172.84,-322.18"/>
</a>
</g>
</g>
<!-- Node3 -->
<g id="Node000003" class="node">
<title>Node3</title>
<g id="a_Node000003"><a xlink:href="mnote-canon-entry_8c.html#a04ae2e21068f2ad8f6c7657cfddd9674" target="_top" xlink:title=" ">
<polygon fill="white" stroke="#666666" points="312,-306.61 170,-306.61 170,-287.61 312,-287.61 312,-306.61"/>
<text text-anchor="middle" x="241" y="-294.61" font-family="Helvetica,sans-Serif" font-size="10.00">apex_value_to_iso_speed</text>
</a>
</g>
</g>
<!-- Node1&#45;&gt;Node3 -->
<g id="edge2_Node000001_Node000003" class="edge">
<title>Node1&#45;&gt;Node3</title>
<g id="a_edge2_Node000001_Node000003"><a xlink:title=" ">
<path fill="none" stroke="#63b8ff" d="M76.83,-173.59C92.31,-199.31 126.83,-250.71 170,-278.11 172.74,-279.85 175.64,-281.44 178.64,-282.87"/>
<polygon fill="#63b8ff" stroke="#63b8ff" points="177.14,-286.04 187.72,-286.65 179.83,-279.58 177.14,-286.04"/>
</a>
</g>
</g>
<!-- Node4 -->
<g id="Node000004" class="node">
<title>Node4</title>
<g id="a_Node000004"><a xlink:href="mnote-canon-entry_8c.html#a1d6fc4e311ea9cd21992df9bd38c90ce" target="_top" xlink:title=" ">
<polygon fill="white" stroke="#666666" points="305,-269.11 177,-269.11 177,-239.11 305,-239.11 305,-269.11"/>
<text text-anchor="start" x="185" y="-257.11" font-family="Helvetica,sans-Serif" font-size="10.00">apex_value_to_shutter</text>
<text text-anchor="middle" x="241" y="-246.11" font-family="Helvetica,sans-Serif" font-size="10.00">_speed</text>
</a>
</g>
</g>
<!-- Node1&#45;&gt;Node4 -->
<g id="edge3_Node000001_Node000004" class="edge">
<title>Node1&#45;&gt;Node4</title>
<g id="a_edge3_Node000001_Node000004"><a xlink:title=" ">
<path fill="none" stroke="#63b8ff" d="M86.15,-173.35C105.79,-189.24 138.54,-214.03 170,-230.11 172.84,-231.57 175.79,-232.96 178.8,-234.3"/>
<polygon fill="#63b8ff" stroke="#63b8ff" points="177.22,-237.43 187.8,-238.04 179.91,-230.97 177.22,-237.43"/>
</a>
</g>
</g>
<!-- Node5 -->
<g id="Node000005" class="node">
<title>Node5</title>
<g id="a_Node000005"><a xlink:href="mnote-canon-entry_8c.html#add2f1f2c87fe2684b11d79a9b6e43742" target="_top" xlink:title=" ">
<polygon fill="white" stroke="#666666" points="297.5,-221.11 184.5,-221.11 184.5,-191.11 297.5,-191.11 297.5,-221.11"/>
<text text-anchor="start" x="192.5" y="-209.11" font-family="Helvetica,sans-Serif" font-size="10.00">canon_search_table</text>
<text text-anchor="middle" x="241" y="-198.11" font-family="Helvetica,sans-Serif" font-size="10.00">_bitfield</text>
</a>
</g>
</g>
<!-- Node1&#45;&gt;Node5 -->
<g id="edge4_Node000001_Node000005" class="edge">
<title>Node1&#45;&gt;Node5</title>
<g id="a_edge4_Node000001_Node000005"><a xlink:title=" ">
<path fill="none" stroke="#63b8ff" d="M123.37,-173.56C139.48,-178.06 157.24,-183.02 173.94,-187.68"/>
<polygon fill="#63b8ff" stroke="#63b8ff" points="172.7,-190.97 183.28,-190.28 174.59,-184.22 172.7,-190.97"/>
</a>
</g>
</g>
<!-- Node6 -->
<g id="Node000006" class="node">
<title>Node6</title>
<g id="a_Node000006"><a xlink:href="mnote-canon-entry_8c.html#a8b4d32c58f704230c465d3af23f8501e" target="_top" xlink:title=" ">
<polygon fill="white" stroke="#666666" points="297.5,-173.11 184.5,-173.11 184.5,-143.11 297.5,-143.11 297.5,-173.11"/>
<text text-anchor="start" x="192.5" y="-161.11" font-family="Helvetica,sans-Serif" font-size="10.00">canon_search_table</text>
<text text-anchor="middle" x="241" y="-150.11" font-family="Helvetica,sans-Serif" font-size="10.00">_value</text>
</a>
</g>
</g>
<!-- Node1&#45;&gt;Node6 -->
<g id="edge5_Node000001_Node000006" class="edge">
<title>Node1&#45;&gt;Node6</title>
<g id="a_edge5_Node000001_Node000006"><a xlink:title=" ">
<path fill="none" stroke="#63b8ff" d="M134.5,-158.11C147.02,-158.11 160.12,-158.11 172.67,-158.11"/>
<polygon fill="#63b8ff" stroke="#63b8ff" points="172.49,-161.61 182.49,-158.11 172.49,-154.61 172.49,-161.61"/>
</a>
</g>
</g>
<!-- Node7 -->
<g id="Node000007" class="node">
<title>Node7</title>
<g id="a_Node000007"><a xlink:href="exif-utils_8c.html#a4ad94614630897766dd0a5c9bc2a59bf" target="_top" xlink:title="Retrieve an ExifLong value from memory.">
<polygon fill="white" stroke="#666666" points="282.5,-124.61 199.5,-124.61 199.5,-105.61 282.5,-105.61 282.5,-124.61"/>
<text text-anchor="middle" x="241" y="-112.61" font-family="Helvetica,sans-Serif" font-size="10.00">exif_get_long</text>
</a>
</g>
</g>
<!-- Node1&#45;&gt;Node7 -->
<g id="edge6_Node000001_Node000007" class="edge">
<title>Node1&#45;&gt;Node7</title>
<g id="a_edge6_Node000001_Node000007"><a xlink:title=" ">
<path fill="none" stroke="#63b8ff" d="M129.61,-142.71C149.1,-137.84 170.41,-132.51 189.07,-127.85"/>
<polygon fill="#63b8ff" stroke="#63b8ff" points="189.68,-131.3 198.53,-125.48 187.98,-124.51 189.68,-131.3"/>
</a>
</g>
</g>
<!-- Node8 -->
<g id="Node000008" class="node">
<title>Node8</title>
<g id="a_Node000008"><a xlink:href="exif-utils_8c.html#a56b96f076a13da6ed926e1ef29cb2dc3" target="_top" xlink:title="Retrieve an ExifSLong value from memory.">
<polygon fill="white" stroke="#666666" points="438,-105.61 350,-105.61 350,-86.61 438,-86.61 438,-105.61"/>
<text text-anchor="middle" x="394" y="-93.61" font-family="Helvetica,sans-Serif" font-size="10.00">exif_get_slong</text>
</a>
</g>
</g>
<!-- Node1&#45;&gt;Node8 -->
<g id="edge10_Node000001_Node000008" class="edge">
<title>Node1&#45;&gt;Node8</title>
<g id="a_edge10_Node000001_Node000008"><a xlink:title=" ">
<path fill="none" stroke="#63b8ff" d="M86.49,-142.83C105.91,-127.86 138,-106.03 170,-97.11 225.87,-81.55 292.71,-83.86 338.56,-88.45"/>
<polygon fill="#63b8ff" stroke="#63b8ff" points="337.92,-91.9 348.24,-89.5 338.67,-84.94 337.92,-91.9"/>
</a>
</g>
</g>
<!-- Node9 -->
<g id="Node000009" class="node">
<title>Node9</title>
<g id="a_Node000009"><a xlink:href="exif-utils_8c.html#a4b4acf537a8c6b9405e7b53be868e4d7" target="_top" xlink:title="Retrieve an ExifShort value from memory.">
<polygon fill="white" stroke="#666666" points="284,-48.61 198,-48.61 198,-29.61 284,-29.61 284,-48.61"/>
<text text-anchor="middle" x="241" y="-36.61" font-family="Helvetica,sans-Serif" font-size="10.00">exif_get_short</text>
</a>
</g>
</g>
<!-- Node1&#45;&gt;Node9 -->
<g id="edge8_Node000001_Node000009" class="edge">
<title>Node1&#45;&gt;Node9</title>
<g id="a_edge8_Node000001_Node000009"><a xlink:title=" ">
<path fill="none" stroke="#63b8ff" d="M80.65,-142.85C98.57,-122.12 133.26,-85.14 170,-63.11 176.51,-59.21 183.75,-55.83 191.04,-52.93"/>
<polygon fill="#63b8ff" stroke="#63b8ff" points="192.05,-56.29 200.23,-49.56 189.64,-49.72 192.05,-56.29"/>
</a>
</g>
</g>
<!-- Node10 -->
<g id="Node000010" class="node">
<title>Node10</title>
<g id="a_Node000010"><a xlink:href="exif-utils_8c.html#a6baf094a71392f9cea23ad633ec13c8b" target="_top" xlink:title="Retrieve an ExifSShort value from memory.">
<polygon fill="white" stroke="#666666" points="440,-29.61 348,-29.61 348,-10.61 440,-10.61 440,-29.61"/>
<text text-anchor="middle" x="394" y="-17.61" font-family="Helvetica,sans-Serif" font-size="10.00">exif_get_sshort</text>
</a>
</g>
</g>
<!-- Node1&#45;&gt;Node10 -->
<g id="edge11_Node000001_Node000010" class="edge">
<title>Node1&#45;&gt;Node10</title>
<g id="a_edge11_Node000001_Node000010"><a xlink:title=" ">
<path fill="none" stroke="#63b8ff" d="M73.78,-142.8C86.1,-112.65 118.13,-46.28 170,-20.11 224.45,7.35 296.32,1.02 343.56,-7.92"/>
<polygon fill="#63b8ff" stroke="#63b8ff" points="342.74,-11.32 353.23,-9.87 344.12,-4.46 342.74,-11.32"/>
</a>
</g>
</g>
<!-- Node7&#45;&gt;Node8 -->
<g id="edge7_Node000007_Node000008" class="edge">
<title>Node7&#45;&gt;Node8</title>
<g id="a_edge7_Node000007_Node000008"><a xlink:title=" ">
<path fill="none" stroke="#63b8ff" d="M282.86,-109.97C300.01,-107.81 320.19,-105.27 338.56,-102.96"/>
<polygon fill="#63b8ff" stroke="#63b8ff" points="338.74,-106.47 348.23,-101.75 337.87,-99.52 338.74,-106.47"/>
</a>
</g>
</g>
<!-- Node9&#45;&gt;Node10 -->
<g id="edge9_Node000009_Node000010" class="edge">
<title>Node9&#45;&gt;Node10</title>
<g id="a_edge9_Node000009_Node000010"><a xlink:title=" ">
<path fill="none" stroke="#63b8ff" d="M284.46,-33.77C300.64,-31.73 319.33,-29.38 336.59,-27.21"/>
<polygon fill="#63b8ff" stroke="#63b8ff" points="336.7,-30.72 346.19,-26 335.83,-23.78 336.7,-30.72"/>
</a>
</g>
</g>
</g>
</svg>
