<?xml version="1.0" encoding="UTF-8" standalone="no"?>
<!DOCTYPE svg PUBLIC "-//W3C//DTD SVG 1.1//EN"
 "http://www.w3.org/Graphics/SVG/1.1/DTD/svg11.dtd">
<!-- Generated by graphviz version 2.44.1 (0)
 -->
<!-- Title: libexif/olympus/mnote&#45;olympus&#45;entry.c Pages: 1 -->
<svg width="963pt" height="509pt"
 viewBox="0.00 0.00 962.50 509.00" xmlns="http://www.w3.org/2000/svg" xmlns:xlink="http://www.w3.org/1999/xlink">
<g id="graph0" class="graph" transform="scale(1 1) rotate(0) translate(4 505)">
<title>libexif/olympus/mnote&#45;olympus&#45;entry.c</title>
<polygon fill="white" stroke="transparent" points="-4,4 -4,-505 958.5,-505 958.5,4 -4,4"/>
<!-- Node1 -->
<g id="node1" class="node">
<title>Node1</title>
<g id="a_node1"><a xlink:title=" ">
<polygon fill="#bfbfbf" stroke="black" points="455.5,-470.5 455.5,-500.5 582.5,-500.5 582.5,-470.5 455.5,-470.5"/>
<text text-anchor="start" x="463.5" y="-488.5" font-family="Helvetica,sans-Serif" font-size="10.00">libexif/olympus/mnote</text>
<text text-anchor="middle" x="519" y="-477.5" font-family="Helvetica,sans-Serif" font-size="10.00">&#45;olympus&#45;entry.c</text>
</a>
</g>
</g>
<!-- Node2 -->
<g id="node2" class="node">
<title>Node2</title>
<g id="a_node2"><a xlink:title=" ">
<polygon fill="white" stroke="#bfbfbf" points="37,-358.5 37,-377.5 93,-377.5 93,-358.5 37,-358.5"/>
<text text-anchor="middle" x="65" y="-365.5" font-family="Helvetica,sans-Serif" font-size="10.00">config.h</text>
</a>
</g>
</g>
<!-- Node1&#45;&gt;Node2 -->
<g id="edge1" class="edge">
<title>Node1&#45;&gt;Node2</title>
<path fill="none" stroke="midnightblue" d="M455.38,-481.05C360.65,-475.11 187.67,-460.89 132,-434 109.07,-422.92 89.04,-400.95 76.99,-385.63"/>
<polygon fill="midnightblue" stroke="midnightblue" points="79.68,-383.39 70.86,-377.52 74.1,-387.61 79.68,-383.39"/>
</g>
<!-- Node3 -->
<g id="node3" class="node">
<title>Node3</title>
<g id="a_node3"><a xlink:href="mnote-olympus-entry_8h.html" target="_top" xlink:title=" ">
<polygon fill="white" stroke="black" points="174.5,-67.5 174.5,-86.5 305.5,-86.5 305.5,-67.5 174.5,-67.5"/>
<text text-anchor="middle" x="240" y="-74.5" font-family="Helvetica,sans-Serif" font-size="10.00">mnote&#45;olympus&#45;entry.h</text>
</a>
</g>
</g>
<!-- Node1&#45;&gt;Node3 -->
<g id="edge2" class="edge">
<title>Node1&#45;&gt;Node3</title>
<path fill="none" stroke="midnightblue" d="M455.39,-473.84C365.47,-456.93 212,-420.54 212,-369 212,-369 212,-369 212,-188 212,-154.79 224.13,-117.63 232.43,-96.12"/>
<polygon fill="midnightblue" stroke="midnightblue" points="235.75,-97.23 236.22,-86.65 229.25,-94.63 235.75,-97.23"/>
</g>
<!-- Node4 -->
<g id="node4" class="node">
<title>Node4</title>
<g id="a_node4"><a xlink:href="exif-format_8h.html" target="_top" xlink:title="Handling native EXIF data types.">
<polygon fill="white" stroke="black" points="277.5,-6 277.5,-25 390.5,-25 390.5,-6 277.5,-6"/>
<text text-anchor="middle" x="334" y="-13" font-family="Helvetica,sans-Serif" font-size="10.00">libexif/exif&#45;format.h</text>
</a>
</g>
</g>
<!-- Node1&#45;&gt;Node4 -->
<g id="edge9" class="edge">
<title>Node1&#45;&gt;Node4</title>
<path fill="none" stroke="midnightblue" d="M455.3,-478.02C348.77,-465.4 146,-432.98 146,-369 146,-369 146,-369 146,-132 146,-101.9 143.78,-88.35 165,-67 173.95,-58 242.22,-39.47 289.2,-27.53"/>
<polygon fill="midnightblue" stroke="midnightblue" points="290.33,-30.86 299.17,-25.02 288.62,-24.07 290.33,-30.86"/>
</g>
<!-- Node7 -->
<g id="node7" class="node">
<title>Node7</title>
<g id="a_node7"><a xlink:title=" ">
<polygon fill="white" stroke="#bfbfbf" points="762,-414.5 762,-433.5 812,-433.5 812,-414.5 762,-414.5"/>
<text text-anchor="middle" x="787" y="-421.5" font-family="Helvetica,sans-Serif" font-size="10.00">stdio.h</text>
</a>
</g>
</g>
<!-- Node1&#45;&gt;Node7 -->
<g id="edge6" class="edge">
<title>Node1&#45;&gt;Node7</title>
<path fill="none" stroke="midnightblue" d="M582.71,-470.63C628.67,-460.57 692.2,-446.59 748,-434 749.26,-433.72 750.54,-433.43 751.83,-433.13"/>
<polygon fill="midnightblue" stroke="midnightblue" points="752.86,-436.49 761.83,-430.85 751.3,-429.66 752.86,-436.49"/>
</g>
<!-- Node8 -->
<g id="node8" class="node">
<title>Node8</title>
<g id="a_node8"><a xlink:title=" ">
<polygon fill="white" stroke="#bfbfbf" points="830.5,-414.5 830.5,-433.5 883.5,-433.5 883.5,-414.5 830.5,-414.5"/>
<text text-anchor="middle" x="857" y="-421.5" font-family="Helvetica,sans-Serif" font-size="10.00">stdlib.h</text>
</a>
</g>
</g>
<!-- Node1&#45;&gt;Node8 -->
<g id="edge7" class="edge">
<title>Node1&#45;&gt;Node8</title>
<path fill="none" stroke="midnightblue" d="M582.61,-475.36C641.7,-466.53 732.33,-452.13 820.42,-433.98"/>
<polygon fill="midnightblue" stroke="midnightblue" points="821.24,-437.38 830.32,-431.92 819.81,-430.53 821.24,-437.38"/>
</g>
<!-- Node9 -->
<g id="node9" class="node">
<title>Node9</title>
<g id="a_node9"><a xlink:title=" ">
<polygon fill="white" stroke="#bfbfbf" points="901.5,-414.5 901.5,-433.5 954.5,-433.5 954.5,-414.5 901.5,-414.5"/>
<text text-anchor="middle" x="928" y="-421.5" font-family="Helvetica,sans-Serif" font-size="10.00">string.h</text>
</a>
</g>
</g>
<!-- Node1&#45;&gt;Node9 -->
<g id="edge8" class="edge">
<title>Node1&#45;&gt;Node9</title>
<path fill="none" stroke="midnightblue" d="M582.57,-478.22C655.17,-470.53 777.63,-455.99 891.4,-434.13"/>
<polygon fill="midnightblue" stroke="midnightblue" points="892.17,-437.55 901.32,-432.2 890.84,-430.68 892.17,-437.55"/>
</g>
<!-- Node10 -->
<g id="node10" class="node">
<title>Node10</title>
<g id="a_node10"><a xlink:href="exif-utils_8h.html" target="_top" xlink:title="EXIF data manipulation functions and types.">
<polygon fill="white" stroke="black" points="643.5,-67.5 643.5,-86.5 744.5,-86.5 744.5,-67.5 643.5,-67.5"/>
<text text-anchor="middle" x="694" y="-74.5" font-family="Helvetica,sans-Serif" font-size="10.00">libexif/exif&#45;utils.h</text>
</a>
</g>
</g>
<!-- Node1&#45;&gt;Node10 -->
<g id="edge10" class="edge">
<title>Node1&#45;&gt;Node10</title>
<path fill="none" stroke="midnightblue" d="M567.13,-470.46C658.93,-442.24 850,-375.94 850,-313 850,-313 850,-313 850,-188 850,-133.82 786.37,-103.97 740.38,-89.48"/>
<polygon fill="midnightblue" stroke="midnightblue" points="741.16,-86.06 730.58,-86.54 739.15,-92.77 741.16,-86.06"/>
</g>
<!-- Node12 -->
<g id="node12" class="node">
<title>Node12</title>
<g id="a_node12"><a xlink:href="exif-entry_8h.html" target="_top" xlink:title="Handling EXIF entries.">
<polygon fill="white" stroke="black" points="467,-414.5 467,-433.5 571,-433.5 571,-414.5 467,-414.5"/>
<text text-anchor="middle" x="519" y="-421.5" font-family="Helvetica,sans-Serif" font-size="10.00">libexif/exif&#45;entry.h</text>
</a>
</g>
</g>
<!-- Node1&#45;&gt;Node12 -->
<g id="edge14" class="edge">
<title>Node1&#45;&gt;Node12</title>
<path fill="none" stroke="midnightblue" d="M519,-470.4C519,-462.47 519,-452.46 519,-443.86"/>
<polygon fill="midnightblue" stroke="midnightblue" points="522.5,-443.66 519,-433.66 515.5,-443.66 522.5,-443.66"/>
</g>
<!-- Node22 -->
<g id="node22" class="node">
<title>Node22</title>
<g id="a_node22"><a xlink:href="i18n_8h.html" target="_top" xlink:title=" ">
<polygon fill="white" stroke="black" points="0,-414.5 0,-433.5 80,-433.5 80,-414.5 0,-414.5"/>
<text text-anchor="middle" x="40" y="-421.5" font-family="Helvetica,sans-Serif" font-size="10.00">libexif/i18n.h</text>
</a>
</g>
</g>
<!-- Node1&#45;&gt;Node22 -->
<g id="edge37" class="edge">
<title>Node1&#45;&gt;Node22</title>
<path fill="none" stroke="midnightblue" d="M455.16,-477.86C371.9,-468.98 221.81,-452.23 94,-434 92.73,-433.82 91.44,-433.63 90.15,-433.44"/>
<polygon fill="midnightblue" stroke="midnightblue" points="90.49,-429.95 80.07,-431.89 89.43,-436.87 90.49,-429.95"/>
</g>
<!-- Node3&#45;&gt;Node4 -->
<g id="edge3" class="edge">
<title>Node3&#45;&gt;Node4</title>
<path fill="none" stroke="midnightblue" d="M253.47,-67.48C268.68,-57.84 293.69,-42.02 311.8,-30.55"/>
<polygon fill="midnightblue" stroke="midnightblue" points="313.98,-33.31 320.56,-25.01 310.24,-27.4 313.98,-33.31"/>
</g>
<!-- Node5 -->
<g id="node5" class="node">
<title>Node5</title>
<g id="a_node5"><a xlink:href="exif-byte-order_8h.html" target="_top" xlink:title="Defines the ExifByteOrder enum and the associated functions.">
<polygon fill="white" stroke="black" points="480.5,-6 480.5,-25 611.5,-25 611.5,-6 480.5,-6"/>
<text text-anchor="middle" x="546" y="-13" font-family="Helvetica,sans-Serif" font-size="10.00">libexif/exif&#45;byte&#45;order.h</text>
</a>
</g>
</g>
<!-- Node3&#45;&gt;Node5 -->
<g id="edge4" class="edge">
<title>Node3&#45;&gt;Node5</title>
<path fill="none" stroke="midnightblue" d="M283.84,-67.48C338.83,-56.78 433.07,-38.46 492.32,-26.94"/>
<polygon fill="midnightblue" stroke="midnightblue" points="493.09,-30.35 502.24,-25.01 491.75,-23.48 493.09,-30.35"/>
</g>
<!-- Node6 -->
<g id="node6" class="node">
<title>Node6</title>
<g id="a_node6"><a xlink:href="mnote-olympus-tag_8h.html" target="_top" xlink:title=" ">
<polygon fill="white" stroke="black" points="132.5,-0.5 132.5,-30.5 259.5,-30.5 259.5,-0.5 132.5,-0.5"/>
<text text-anchor="start" x="140.5" y="-18.5" font-family="Helvetica,sans-Serif" font-size="10.00">libexif/olympus/mnote</text>
<text text-anchor="middle" x="196" y="-7.5" font-family="Helvetica,sans-Serif" font-size="10.00">&#45;olympus&#45;tag.h</text>
</a>
</g>
</g>
<!-- Node3&#45;&gt;Node6 -->
<g id="edge5" class="edge">
<title>Node3&#45;&gt;Node6</title>
<path fill="none" stroke="midnightblue" d="M233.7,-67.48C228.13,-59.94 219.76,-48.63 212.32,-38.57"/>
<polygon fill="midnightblue" stroke="midnightblue" points="215.13,-36.48 206.37,-30.52 209.5,-40.64 215.13,-36.48"/>
</g>
<!-- Node10&#45;&gt;Node4 -->
<g id="edge12" class="edge">
<title>Node10&#45;&gt;Node4</title>
<path fill="none" stroke="midnightblue" d="M643.18,-67.6C578.07,-56.84 465.27,-38.2 395.42,-26.65"/>
<polygon fill="midnightblue" stroke="midnightblue" points="395.87,-23.18 385.43,-25 394.73,-30.08 395.87,-23.18"/>
</g>
<!-- Node10&#45;&gt;Node5 -->
<g id="edge11" class="edge">
<title>Node10&#45;&gt;Node5</title>
<path fill="none" stroke="midnightblue" d="M672.8,-67.48C647.63,-57.36 605.46,-40.4 576.72,-28.85"/>
<polygon fill="midnightblue" stroke="midnightblue" points="577.75,-25.49 567.17,-25.01 575.14,-31.99 577.75,-25.49"/>
</g>
<!-- Node11 -->
<g id="node11" class="node">
<title>Node11</title>
<g id="a_node11"><a xlink:title=" ">
<polygon fill="white" stroke="#bfbfbf" points="648,-6 648,-25 740,-25 740,-6 648,-6"/>
<text text-anchor="middle" x="694" y="-13" font-family="Helvetica,sans-Serif" font-size="10.00">libexif/_stdint.h</text>
</a>
</g>
</g>
<!-- Node10&#45;&gt;Node11 -->
<g id="edge13" class="edge">
<title>Node10&#45;&gt;Node11</title>
<path fill="none" stroke="midnightblue" d="M694,-67.48C694,-59.08 694,-45.98 694,-35.16"/>
<polygon fill="midnightblue" stroke="midnightblue" points="697.5,-35.01 694,-25.01 690.5,-35.01 697.5,-35.01"/>
</g>
<!-- Node12&#45;&gt;Node4 -->
<g id="edge35" class="edge">
<title>Node12&#45;&gt;Node4</title>
<path fill="none" stroke="midnightblue" d="M474.88,-414.46C398.57,-398.41 250,-361 250,-313 250,-313 250,-313 250,-249.5 250,-171.88 286.24,-159.49 314,-87 320.53,-69.94 326.03,-49.83 329.6,-35.47"/>
<polygon fill="midnightblue" stroke="midnightblue" points="333.1,-35.89 332.03,-25.35 326.29,-34.25 333.1,-35.89"/>
</g>
<!-- Node13 -->
<g id="node13" class="node">
<title>Node13</title>
<g id="a_node13"><a xlink:href="exif-content_8h.html" target="_top" xlink:title="Handling EXIF IFDs.">
<polygon fill="white" stroke="black" points="460.5,-358.5 460.5,-377.5 577.5,-377.5 577.5,-358.5 460.5,-358.5"/>
<text text-anchor="middle" x="519" y="-365.5" font-family="Helvetica,sans-Serif" font-size="10.00">libexif/exif&#45;content.h</text>
</a>
</g>
</g>
<!-- Node12&#45;&gt;Node13 -->
<g id="edge15" class="edge">
<title>Node12&#45;&gt;Node13</title>
<path fill="none" stroke="midnightblue" d="M513.83,-414.08C512.32,-406.93 511.89,-396.64 512.54,-387.69"/>
<polygon fill="midnightblue" stroke="midnightblue" points="516.02,-388.13 513.87,-377.75 509.08,-387.2 516.02,-388.13"/>
</g>
<!-- Node19 -->
<g id="node19" class="node">
<title>Node19</title>
<g id="a_node19"><a xlink:href="exif-mem_8h.html" target="_top" xlink:title="Define the ExifMem data type and the associated functions.">
<polygon fill="white" stroke="black" points="658,-123.5 658,-142.5 764,-142.5 764,-123.5 658,-123.5"/>
<text text-anchor="middle" x="711" y="-130.5" font-family="Helvetica,sans-Serif" font-size="10.00">libexif/exif&#45;mem.h</text>
</a>
</g>
</g>
<!-- Node12&#45;&gt;Node19 -->
<g id="edge36" class="edge">
<title>Node12&#45;&gt;Node19</title>
<path fill="none" stroke="midnightblue" d="M571.04,-414.47C655.24,-399.17 812,-363.87 812,-313 812,-313 812,-313 812,-249.5 812,-203.39 765.83,-166.83 735.92,-147.99"/>
<polygon fill="midnightblue" stroke="midnightblue" points="737.59,-144.91 727.23,-142.72 733.96,-150.9 737.59,-144.91"/>
</g>
<!-- Node13&#45;&gt;Node12 -->
<g id="edge19" class="edge">
<title>Node13&#45;&gt;Node12</title>
<path fill="none" stroke="midnightblue" d="M524.13,-377.75C525.66,-384.86 526.1,-395.14 525.47,-404.1"/>
<polygon fill="midnightblue" stroke="midnightblue" points="521.99,-403.71 524.17,-414.08 528.93,-404.62 521.99,-403.71"/>
</g>
<!-- Node14 -->
<g id="node14" class="node">
<title>Node14</title>
<g id="a_node14"><a xlink:href="exif-tag_8h.html" target="_top" xlink:title="Handling EXIF tags.">
<polygon fill="white" stroke="black" points="300,-241 300,-260 396,-260 396,-241 300,-241"/>
<text text-anchor="middle" x="348" y="-248" font-family="Helvetica,sans-Serif" font-size="10.00">libexif/exif&#45;tag.h</text>
</a>
</g>
</g>
<!-- Node13&#45;&gt;Node14 -->
<g id="edge16" class="edge">
<title>Node13&#45;&gt;Node14</title>
<path fill="none" stroke="midnightblue" d="M506.15,-358.32C476.93,-338.59 405.29,-290.2 369.33,-265.91"/>
<polygon fill="midnightblue" stroke="midnightblue" points="371.25,-262.98 361,-260.28 367.33,-268.78 371.25,-262.98"/>
</g>
<!-- Node17 -->
<g id="node17" class="node">
<title>Node17</title>
<g id="a_node17"><a xlink:href="exif-data_8h.html" target="_top" xlink:title="Defines the ExifData type and the associated functions.">
<polygon fill="white" stroke="black" points="468,-302.5 468,-321.5 570,-321.5 570,-302.5 468,-302.5"/>
<text text-anchor="middle" x="519" y="-309.5" font-family="Helvetica,sans-Serif" font-size="10.00">libexif/exif&#45;data.h</text>
</a>
</g>
</g>
<!-- Node13&#45;&gt;Node17 -->
<g id="edge20" class="edge">
<title>Node13&#45;&gt;Node17</title>
<path fill="none" stroke="midnightblue" d="M513.83,-358.08C512.32,-350.93 511.89,-340.64 512.54,-331.69"/>
<polygon fill="midnightblue" stroke="midnightblue" points="516.02,-332.13 513.87,-321.75 509.08,-331.2 516.02,-332.13"/>
</g>
<!-- Node18 -->
<g id="node18" class="node">
<title>Node18</title>
<g id="a_node18"><a xlink:href="exif-log_8h.html" target="_top" xlink:title="Log message infrastructure.">
<polygon fill="white" stroke="black" points="574.5,-179.5 574.5,-198.5 669.5,-198.5 669.5,-179.5 574.5,-179.5"/>
<text text-anchor="middle" x="622" y="-186.5" font-family="Helvetica,sans-Serif" font-size="10.00">libexif/exif&#45;log.h</text>
</a>
</g>
</g>
<!-- Node13&#45;&gt;Node18 -->
<g id="edge33" class="edge">
<title>Node13&#45;&gt;Node18</title>
<path fill="none" stroke="midnightblue" d="M547.44,-358.46C585.16,-345.43 650.2,-316.59 678,-266 684.63,-253.93 683.95,-247.42 678,-235 671.75,-221.95 659.66,-211.49 648.32,-203.95"/>
<polygon fill="midnightblue" stroke="midnightblue" points="649.85,-200.79 639.5,-198.54 646.19,-206.75 649.85,-200.79"/>
</g>
<!-- Node13&#45;&gt;Node19 -->
<g id="edge34" class="edge">
<title>Node13&#45;&gt;Node19</title>
<path fill="none" stroke="midnightblue" d="M565.21,-358.43C592.33,-351.76 626.23,-340.44 652,-322 703.51,-285.14 711.15,-261.03 724,-199 727.25,-183.33 723.13,-165.5 718.69,-152.49"/>
<polygon fill="midnightblue" stroke="midnightblue" points="721.85,-150.95 715.04,-142.84 715.31,-153.43 721.85,-150.95"/>
</g>
<!-- Node15 -->
<g id="node15" class="node">
<title>Node15</title>
<g id="a_node15"><a xlink:href="exif-ifd_8h.html" target="_top" xlink:title=" ">
<polygon fill="white" stroke="black" points="424.5,-179.5 424.5,-198.5 517.5,-198.5 517.5,-179.5 424.5,-179.5"/>
<text text-anchor="middle" x="471" y="-186.5" font-family="Helvetica,sans-Serif" font-size="10.00">libexif/exif&#45;ifd.h</text>
</a>
</g>
</g>
<!-- Node14&#45;&gt;Node15 -->
<g id="edge17" class="edge">
<title>Node14&#45;&gt;Node15</title>
<path fill="none" stroke="midnightblue" d="M365.62,-240.98C386.17,-231.03 420.36,-214.49 444.21,-202.96"/>
<polygon fill="midnightblue" stroke="midnightblue" points="445.93,-206.01 453.41,-198.51 442.88,-199.71 445.93,-206.01"/>
</g>
<!-- Node16 -->
<g id="node16" class="node">
<title>Node16</title>
<g id="a_node16"><a xlink:href="exif-data-type_8h.html" target="_top" xlink:title=" ">
<polygon fill="white" stroke="black" points="278,-179.5 278,-198.5 406,-198.5 406,-179.5 278,-179.5"/>
<text text-anchor="middle" x="342" y="-186.5" font-family="Helvetica,sans-Serif" font-size="10.00">libexif/exif&#45;data&#45;type.h</text>
</a>
</g>
</g>
<!-- Node14&#45;&gt;Node16 -->
<g id="edge18" class="edge">
<title>Node14&#45;&gt;Node16</title>
<path fill="none" stroke="midnightblue" d="M347.14,-240.98C346.29,-232.58 344.97,-219.48 343.88,-208.66"/>
<polygon fill="midnightblue" stroke="midnightblue" points="347.34,-208.11 342.86,-198.51 340.38,-208.81 347.34,-208.11"/>
</g>
<!-- Node17&#45;&gt;Node5 -->
<g id="edge21" class="edge">
<title>Node17&#45;&gt;Node5</title>
<path fill="none" stroke="midnightblue" d="M519.81,-302.19C523.53,-261.63 539.03,-92.47 544.27,-35.4"/>
<polygon fill="midnightblue" stroke="midnightblue" points="547.77,-35.56 545.2,-25.28 540.8,-34.92 547.77,-35.56"/>
</g>
<!-- Node17&#45;&gt;Node13 -->
<g id="edge29" class="edge">
<title>Node17&#45;&gt;Node13</title>
<path fill="none" stroke="midnightblue" d="M524.13,-321.75C525.66,-328.86 526.1,-339.14 525.47,-348.1"/>
<polygon fill="midnightblue" stroke="midnightblue" points="521.99,-347.71 524.17,-358.08 528.93,-348.62 521.99,-347.71"/>
</g>
<!-- Node17&#45;&gt;Node14 -->
<g id="edge28" class="edge">
<title>Node17&#45;&gt;Node14</title>
<path fill="none" stroke="midnightblue" d="M494.5,-302.48C465.04,-292.22 415.42,-274.96 382.2,-263.4"/>
<polygon fill="midnightblue" stroke="midnightblue" points="383.05,-259.99 372.45,-260.01 380.75,-266.6 383.05,-259.99"/>
</g>
<!-- Node17&#45;&gt;Node15 -->
<g id="edge23" class="edge">
<title>Node17&#45;&gt;Node15</title>
<path fill="none" stroke="midnightblue" d="M510.9,-302.43C503.28,-293.87 492.15,-280.02 486,-266 477.91,-247.57 474.15,-224.71 472.42,-208.9"/>
<polygon fill="midnightblue" stroke="midnightblue" points="475.9,-208.44 471.5,-198.8 468.93,-209.08 475.9,-208.44"/>
</g>
<!-- Node17&#45;&gt;Node16 -->
<g id="edge22" class="edge">
<title>Node17&#45;&gt;Node16</title>
<path fill="none" stroke="midnightblue" d="M506.55,-302.49C476.67,-282.06 400.57,-230.04 363.27,-204.54"/>
<polygon fill="midnightblue" stroke="midnightblue" points="364.9,-201.42 354.67,-198.66 360.95,-207.19 364.9,-201.42"/>
</g>
<!-- Node17&#45;&gt;Node18 -->
<g id="edge24" class="edge">
<title>Node17&#45;&gt;Node18</title>
<path fill="none" stroke="midnightblue" d="M521.77,-302.2C526.85,-287.12 538.83,-255.95 557,-235 567.93,-222.4 583.12,-211.62 596.08,-203.78"/>
<polygon fill="midnightblue" stroke="midnightblue" points="598.12,-206.64 605.02,-198.6 594.61,-200.58 598.12,-206.64"/>
</g>
<!-- Node17&#45;&gt;Node19 -->
<g id="edge32" class="edge">
<title>Node17&#45;&gt;Node19</title>
<path fill="none" stroke="midnightblue" d="M570.13,-309.42C605.11,-305.59 650.04,-294.83 678,-266 707.92,-235.15 711.98,-181.48 711.82,-153.01"/>
<polygon fill="midnightblue" stroke="midnightblue" points="715.32,-152.71 711.58,-142.8 708.32,-152.88 715.32,-152.71"/>
</g>
<!-- Node21 -->
<g id="node21" class="node">
<title>Node21</title>
<g id="a_node21"><a xlink:href="exif-mnote-data_8h.html" target="_top" xlink:title="Handling EXIF MakerNote tags.">
<polygon fill="white" stroke="black" points="566.5,-235.5 566.5,-265.5 669.5,-265.5 669.5,-235.5 566.5,-235.5"/>
<text text-anchor="start" x="574.5" y="-253.5" font-family="Helvetica,sans-Serif" font-size="10.00">libexif/exif&#45;mnote</text>
<text text-anchor="middle" x="618" y="-242.5" font-family="Helvetica,sans-Serif" font-size="10.00">&#45;data.h</text>
</a>
</g>
</g>
<!-- Node17&#45;&gt;Node21 -->
<g id="edge30" class="edge">
<title>Node17&#45;&gt;Node21</title>
<path fill="none" stroke="midnightblue" d="M533.18,-302.48C546.84,-294.27 567.99,-281.56 585.75,-270.88"/>
<polygon fill="midnightblue" stroke="midnightblue" points="587.9,-273.67 594.67,-265.52 584.29,-267.67 587.9,-273.67"/>
</g>
<!-- Node18&#45;&gt;Node19 -->
<g id="edge25" class="edge">
<title>Node18&#45;&gt;Node19</title>
<path fill="none" stroke="midnightblue" d="M636.3,-179.32C650.18,-170.9 671.49,-157.97 687.8,-148.07"/>
<polygon fill="midnightblue" stroke="midnightblue" points="690,-150.83 696.74,-142.65 686.37,-144.85 690,-150.83"/>
</g>
<!-- Node20 -->
<g id="node20" class="node">
<title>Node20</title>
<g id="a_node20"><a xlink:title=" ">
<polygon fill="white" stroke="#bfbfbf" points="584,-123.5 584,-142.5 640,-142.5 640,-123.5 584,-123.5"/>
<text text-anchor="middle" x="612" y="-130.5" font-family="Helvetica,sans-Serif" font-size="10.00">stdarg.h</text>
</a>
</g>
</g>
<!-- Node18&#45;&gt;Node20 -->
<g id="edge27" class="edge">
<title>Node18&#45;&gt;Node20</title>
<path fill="none" stroke="midnightblue" d="M620.35,-179.08C619.02,-171.93 617.12,-161.64 615.46,-152.69"/>
<polygon fill="midnightblue" stroke="midnightblue" points="618.88,-151.95 613.62,-142.75 612,-153.22 618.88,-151.95"/>
</g>
<!-- Node19&#45;&gt;Node10 -->
<g id="edge26" class="edge">
<title>Node19&#45;&gt;Node10</title>
<path fill="none" stroke="midnightblue" d="M708.19,-123.08C705.92,-115.85 702.63,-105.41 699.79,-96.4"/>
<polygon fill="midnightblue" stroke="midnightblue" points="703.1,-95.24 696.75,-86.75 696.42,-97.34 703.1,-95.24"/>
</g>
<!-- Node21&#45;&gt;Node18 -->
<g id="edge31" class="edge">
<title>Node21&#45;&gt;Node18</title>
<path fill="none" stroke="midnightblue" d="M618.95,-235.4C619.48,-227.47 620.15,-217.46 620.73,-208.86"/>
<polygon fill="midnightblue" stroke="midnightblue" points="624.24,-208.87 621.42,-198.66 617.26,-208.4 624.24,-208.87"/>
</g>
<!-- Node22&#45;&gt;Node2 -->
<g id="edge38" class="edge">
<title>Node22&#45;&gt;Node2</title>
<path fill="none" stroke="midnightblue" d="M44.13,-414.08C47.51,-406.77 52.42,-396.18 56.62,-387.1"/>
<polygon fill="midnightblue" stroke="midnightblue" points="59.92,-388.3 60.95,-377.75 53.57,-385.36 59.92,-388.3"/>
</g>
</g>
</svg>
