<?xml version="1.0" encoding="UTF-8" standalone="no"?>
<!DOCTYPE svg PUBLIC "-//W3C//DTD SVG 1.1//EN"
 "http://www.w3.org/Graphics/SVG/1.1/DTD/svg11.dtd">
<!-- Generated by graphviz version 7.0.1 (0)
 -->
<!-- Title: mnote_pentax_entry_get_value Pages: 1 -->
<svg width="376pt" height="122pt"
 viewBox="0.00 0.00 376.00 122.00" xmlns="http://www.w3.org/2000/svg" xmlns:xlink="http://www.w3.org/1999/xlink">
<g id="graph0" class="graph" transform="scale(1 1) rotate(0) translate(4 118)">
<title>mnote_pentax_entry_get_value</title>
<!-- Node1 -->
<g id="Node000001" class="node">
<title>Node1</title>
<g id="a_Node000001"><a xlink:title=" ">
<polygon fill="#999999" stroke="#666666" points="118,-62.5 0,-62.5 0,-32.5 118,-32.5 118,-62.5"/>
<text text-anchor="start" x="8" y="-50.5" font-family="Helvetica,sans-Serif" font-size="10.00">mnote_pentax_entry</text>
<text text-anchor="middle" x="59" y="-39.5" font-family="Helvetica,sans-Serif" font-size="10.00">_get_value</text>
</a>
</g>
</g>
<!-- Node2 -->
<g id="Node000002" class="node">
<title>Node2</title>
<g id="a_Node000002"><a xlink:href="exif-utils_8c.html#a4ad94614630897766dd0a5c9bc2a59bf" target="_top" xlink:title="Retrieve an ExifLong value from memory.">
<polygon fill="white" stroke="#666666" points="238.5,-114 155.5,-114 155.5,-95 238.5,-95 238.5,-114"/>
<text text-anchor="middle" x="197" y="-102" font-family="Helvetica,sans-Serif" font-size="10.00">exif_get_long</text>
</a>
</g>
</g>
<!-- Node1&#45;&gt;Node2 -->
<g id="edge1_Node000001_Node000002" class="edge">
<title>Node1&#45;&gt;Node2</title>
<g id="a_edge1_Node000001_Node000002"><a xlink:title=" ">
<path fill="none" stroke="#63b8ff" d="M96.8,-62.93C117.11,-71.44 142.17,-81.94 162.01,-90.25"/>
<polygon fill="#63b8ff" stroke="#63b8ff" points="160.47,-93.4 171.04,-94.04 163.17,-86.95 160.47,-93.4"/>
</a>
</g>
</g>
<!-- Node3 -->
<g id="Node000003" class="node">
<title>Node3</title>
<g id="a_Node000003"><a xlink:href="exif-utils_8c.html#a56b96f076a13da6ed926e1ef29cb2dc3" target="_top" xlink:title="Retrieve an ExifSLong value from memory.">
<polygon fill="white" stroke="#666666" points="366,-95 278,-95 278,-76 366,-76 366,-95"/>
<text text-anchor="middle" x="322" y="-83" font-family="Helvetica,sans-Serif" font-size="10.00">exif_get_slong</text>
</a>
</g>
</g>
<!-- Node1&#45;&gt;Node3 -->
<g id="edge5_Node000001_Node000003" class="edge">
<title>Node1&#45;&gt;Node3</title>
<g id="a_edge5_Node000001_Node000003"><a xlink:title=" ">
<path fill="none" stroke="#63b8ff" d="M118.25,-55.98C162.52,-62.43 222.99,-71.23 266.35,-77.54"/>
<polygon fill="#63b8ff" stroke="#63b8ff" points="265.64,-80.98 276.04,-78.95 266.65,-74.05 265.64,-80.98"/>
</a>
</g>
</g>
<!-- Node4 -->
<g id="Node000004" class="node">
<title>Node4</title>
<g id="a_Node000004"><a xlink:href="exif-utils_8c.html#a4b4acf537a8c6b9405e7b53be868e4d7" target="_top" xlink:title="Retrieve an ExifShort value from memory.">
<polygon fill="white" stroke="#666666" points="240,-38 154,-38 154,-19 240,-19 240,-38"/>
<text text-anchor="middle" x="197" y="-26" font-family="Helvetica,sans-Serif" font-size="10.00">exif_get_short</text>
</a>
</g>
</g>
<!-- Node1&#45;&gt;Node4 -->
<g id="edge3_Node000001_Node000004" class="edge">
<title>Node1&#45;&gt;Node4</title>
<g id="a_edge3_Node000001_Node000004"><a xlink:title=" ">
<path fill="none" stroke="#63b8ff" d="M118.47,-39.33C126.4,-38.22 134.51,-37.09 142.35,-36"/>
<polygon fill="#63b8ff" stroke="#63b8ff" points="142.68,-39.48 152.1,-34.63 141.71,-32.55 142.68,-39.48"/>
</a>
</g>
</g>
<!-- Node5 -->
<g id="Node000005" class="node">
<title>Node5</title>
<g id="a_Node000005"><a xlink:href="exif-utils_8c.html#a6baf094a71392f9cea23ad633ec13c8b" target="_top" xlink:title="Retrieve an ExifSShort value from memory.">
<polygon fill="white" stroke="#666666" points="368,-19 276,-19 276,0 368,0 368,-19"/>
<text text-anchor="middle" x="322" y="-7" font-family="Helvetica,sans-Serif" font-size="10.00">exif_get_sshort</text>
</a>
</g>
</g>
<!-- Node1&#45;&gt;Node5 -->
<g id="edge6_Node000001_Node000005" class="edge">
<title>Node1&#45;&gt;Node5</title>
<g id="a_edge6_Node000001_Node000005"><a xlink:title=" ">
<path fill="none" stroke="#63b8ff" d="M89.57,-32.12C107.65,-23.6 131.54,-13.87 154,-9.5 190.28,-2.44 231.83,-2.42 264.42,-4.16"/>
<polygon fill="#63b8ff" stroke="#63b8ff" points="263.84,-7.64 274.03,-4.76 264.27,-0.65 263.84,-7.64"/>
</a>
</g>
</g>
<!-- Node2&#45;&gt;Node3 -->
<g id="edge2_Node000002_Node000003" class="edge">
<title>Node2&#45;&gt;Node3</title>
<g id="a_edge2_Node000002_Node000003"><a xlink:title=" ">
<path fill="none" stroke="#63b8ff" d="M238.96,-98.17C247.8,-96.81 257.28,-95.34 266.55,-93.91"/>
<polygon fill="#63b8ff" stroke="#63b8ff" points="266.85,-97.41 276.2,-92.42 265.78,-90.49 266.85,-97.41"/>
</a>
</g>
</g>
<!-- Node4&#45;&gt;Node5 -->
<g id="edge4_Node000004_Node000005" class="edge">
<title>Node4&#45;&gt;Node5</title>
<g id="a_edge4_Node000004_Node000005"><a xlink:title=" ">
<path fill="none" stroke="#63b8ff" d="M240.33,-21.96C248.08,-20.76 256.27,-19.5 264.36,-18.25"/>
<polygon fill="#63b8ff" stroke="#63b8ff" points="264.81,-21.72 274.16,-16.74 263.74,-14.8 264.81,-21.72"/>
</a>
</g>
</g>
</g>
</svg>
