<?xml version="1.0" encoding="UTF-8" standalone="no"?>
<!DOCTYPE svg PUBLIC "-//W3C//DTD SVG 1.1//EN"
 "http://www.w3.org/Graphics/SVG/1.1/DTD/svg11.dtd">
<!-- Generated by graphviz version 2.44.1 (0)
 -->
<!-- Title: libexif/canon/mnote&#45;canon&#45;entry.h Pages: 1 -->
<svg width="654pt" height="453pt"
 viewBox="0.00 0.00 654.00 453.00" xmlns="http://www.w3.org/2000/svg" xmlns:xlink="http://www.w3.org/1999/xlink">
<g id="graph0" class="graph" transform="scale(1 1) rotate(0) translate(4 449)">
<title>libexif/canon/mnote&#45;canon&#45;entry.h</title>
<polygon fill="white" stroke="transparent" points="-4,4 -4,-449 650,-449 650,4 -4,4"/>
<!-- Node1 -->
<g id="node1" class="node">
<title>Node1</title>
<g id="a_node1"><a xlink:title=" ">
<polygon fill="#bfbfbf" stroke="black" points="292.5,-414.5 292.5,-444.5 406.5,-444.5 406.5,-414.5 292.5,-414.5"/>
<text text-anchor="start" x="300.5" y="-432.5" font-family="Helvetica,sans-Serif" font-size="10.00">libexif/canon/mnote</text>
<text text-anchor="middle" x="349.5" y="-421.5" font-family="Helvetica,sans-Serif" font-size="10.00">&#45;canon&#45;entry.h</text>
</a>
</g>
</g>
<!-- Node2 -->
<g id="node2" class="node">
<title>Node2</title>
<g id="a_node2"><a xlink:href="exif-format_8h.html" target="_top" xlink:title="Handling native EXIF data types.">
<polygon fill="white" stroke="black" points="0,-0.5 0,-19.5 113,-19.5 113,-0.5 0,-0.5"/>
<text text-anchor="middle" x="56.5" y="-7.5" font-family="Helvetica,sans-Serif" font-size="10.00">libexif/exif&#45;format.h</text>
</a>
</g>
</g>
<!-- Node1&#45;&gt;Node2 -->
<g id="edge1" class="edge">
<title>Node1&#45;&gt;Node2</title>
<path fill="none" stroke="midnightblue" d="M292.26,-418.91C197.05,-401.32 16.5,-360.29 16.5,-302 16.5,-302 16.5,-302 16.5,-121 16.5,-86.62 33.97,-49.63 45.82,-28.5"/>
<polygon fill="midnightblue" stroke="midnightblue" points="48.92,-30.13 50.94,-19.73 42.88,-26.61 48.92,-30.13"/>
</g>
<!-- Node3 -->
<g id="node3" class="node">
<title>Node3</title>
<g id="a_node3"><a xlink:href="exif-byte-order_8h.html" target="_top" xlink:title="Defines the ExifByteOrder enum and the associated functions.">
<polygon fill="white" stroke="black" points="515,-0.5 515,-19.5 646,-19.5 646,-0.5 515,-0.5"/>
<text text-anchor="middle" x="580.5" y="-7.5" font-family="Helvetica,sans-Serif" font-size="10.00">libexif/exif&#45;byte&#45;order.h</text>
</a>
</g>
</g>
<!-- Node1&#45;&gt;Node3 -->
<g id="edge2" class="edge">
<title>Node1&#45;&gt;Node3</title>
<path fill="none" stroke="midnightblue" d="M406.55,-426.23C485.51,-419.7 618.5,-394.89 618.5,-302 618.5,-302 618.5,-302 618.5,-121 618.5,-86.81 601.9,-49.76 590.64,-28.57"/>
<polygon fill="midnightblue" stroke="midnightblue" points="593.68,-26.83 585.78,-19.77 587.55,-30.22 593.68,-26.83"/>
</g>
<!-- Node4 -->
<g id="node4" class="node">
<title>Node4</title>
<g id="a_node4"><a xlink:href="mnote-canon-tag_8h.html" target="_top" xlink:title=" ">
<polygon fill="white" stroke="black" points="292.5,-347.5 292.5,-377.5 406.5,-377.5 406.5,-347.5 292.5,-347.5"/>
<text text-anchor="start" x="300.5" y="-365.5" font-family="Helvetica,sans-Serif" font-size="10.00">libexif/canon/mnote</text>
<text text-anchor="middle" x="349.5" y="-354.5" font-family="Helvetica,sans-Serif" font-size="10.00">&#45;canon&#45;tag.h</text>
</a>
</g>
</g>
<!-- Node1&#45;&gt;Node4 -->
<g id="edge3" class="edge">
<title>Node1&#45;&gt;Node4</title>
<path fill="none" stroke="midnightblue" d="M349.5,-414.4C349.5,-406.64 349.5,-396.81 349.5,-387.86"/>
<polygon fill="midnightblue" stroke="midnightblue" points="353,-387.58 349.5,-377.58 346,-387.58 353,-387.58"/>
</g>
<!-- Node5 -->
<g id="node5" class="node">
<title>Node5</title>
<g id="a_node5"><a xlink:href="exif-data_8h.html" target="_top" xlink:title="Defines the ExifData type and the associated functions.">
<polygon fill="white" stroke="black" points="298.5,-291.5 298.5,-310.5 400.5,-310.5 400.5,-291.5 298.5,-291.5"/>
<text text-anchor="middle" x="349.5" y="-298.5" font-family="Helvetica,sans-Serif" font-size="10.00">libexif/exif&#45;data.h</text>
</a>
</g>
</g>
<!-- Node4&#45;&gt;Node5 -->
<g id="edge4" class="edge">
<title>Node4&#45;&gt;Node5</title>
<path fill="none" stroke="midnightblue" d="M349.5,-347.4C349.5,-339.47 349.5,-329.46 349.5,-320.86"/>
<polygon fill="midnightblue" stroke="midnightblue" points="353,-320.66 349.5,-310.66 346,-320.66 353,-320.66"/>
</g>
<!-- Node5&#45;&gt;Node3 -->
<g id="edge5" class="edge">
<title>Node5&#45;&gt;Node3</title>
<path fill="none" stroke="midnightblue" d="M400.77,-295.59C468.82,-286.61 580.5,-259.59 580.5,-179 580.5,-179 580.5,-179 580.5,-121 580.5,-88.95 580.5,-51.64 580.5,-29.75"/>
<polygon fill="midnightblue" stroke="midnightblue" points="584,-29.56 580.5,-19.56 577,-29.56 584,-29.56"/>
</g>
<!-- Node6 -->
<g id="node6" class="node">
<title>Node6</title>
<g id="a_node6"><a xlink:href="exif-data-type_8h.html" target="_top" xlink:title=" ">
<polygon fill="white" stroke="black" points="312.5,-112.5 312.5,-131.5 440.5,-131.5 440.5,-112.5 312.5,-112.5"/>
<text text-anchor="middle" x="376.5" y="-119.5" font-family="Helvetica,sans-Serif" font-size="10.00">libexif/exif&#45;data&#45;type.h</text>
</a>
</g>
</g>
<!-- Node5&#45;&gt;Node6 -->
<g id="edge6" class="edge">
<title>Node5&#45;&gt;Node6</title>
<path fill="none" stroke="midnightblue" d="M350.8,-291.46C354.93,-264.43 367.77,-180.24 373.59,-142.11"/>
<polygon fill="midnightblue" stroke="midnightblue" points="377.1,-142.28 375.15,-131.87 370.18,-141.23 377.1,-142.28"/>
</g>
<!-- Node7 -->
<g id="node7" class="node">
<title>Node7</title>
<g id="a_node7"><a xlink:href="exif-ifd_8h.html" target="_top" xlink:title=" ">
<polygon fill="white" stroke="black" points="459,-112.5 459,-131.5 552,-131.5 552,-112.5 459,-112.5"/>
<text text-anchor="middle" x="505.5" y="-119.5" font-family="Helvetica,sans-Serif" font-size="10.00">libexif/exif&#45;ifd.h</text>
</a>
</g>
</g>
<!-- Node5&#45;&gt;Node7 -->
<g id="edge7" class="edge">
<title>Node5&#45;&gt;Node7</title>
<path fill="none" stroke="midnightblue" d="M374.94,-291.43C412.96,-277.02 482.98,-243.91 509.5,-188 516.31,-173.63 514.43,-155.44 511.36,-141.95"/>
<polygon fill="midnightblue" stroke="midnightblue" points="514.64,-140.67 508.65,-131.92 507.88,-142.49 514.64,-140.67"/>
</g>
<!-- Node8 -->
<g id="node8" class="node">
<title>Node8</title>
<g id="a_node8"><a xlink:href="exif-log_8h.html" target="_top" xlink:title="Log message infrastructure.">
<polygon fill="white" stroke="black" points="243,-168.5 243,-187.5 338,-187.5 338,-168.5 243,-168.5"/>
<text text-anchor="middle" x="290.5" y="-175.5" font-family="Helvetica,sans-Serif" font-size="10.00">libexif/exif&#45;log.h</text>
</a>
</g>
</g>
<!-- Node5&#45;&gt;Node8 -->
<g id="edge8" class="edge">
<title>Node5&#45;&gt;Node8</title>
<path fill="none" stroke="midnightblue" d="M348.49,-291.09C346.54,-276.39 341.35,-246.44 329.5,-224 323.85,-213.3 315.22,-202.98 307.51,-194.93"/>
<polygon fill="midnightblue" stroke="midnightblue" points="309.81,-192.28 300.26,-187.71 304.87,-197.24 309.81,-192.28"/>
</g>
<!-- Node9 -->
<g id="node9" class="node">
<title>Node9</title>
<g id="a_node9"><a xlink:href="exif-mem_8h.html" target="_top" xlink:title="Define the ExifMem data type and the associated functions.">
<polygon fill="white" stroke="black" points="114.5,-112.5 114.5,-131.5 220.5,-131.5 220.5,-112.5 114.5,-112.5"/>
<text text-anchor="middle" x="167.5" y="-119.5" font-family="Helvetica,sans-Serif" font-size="10.00">libexif/exif&#45;mem.h</text>
</a>
</g>
</g>
<!-- Node5&#45;&gt;Node9 -->
<g id="edge29" class="edge">
<title>Node5&#45;&gt;Node9</title>
<path fill="none" stroke="midnightblue" d="M298.45,-299.26C226.75,-297.01 101.8,-288.29 73.5,-255 48.45,-225.54 52.89,-200.72 73.5,-168 83.51,-152.11 100.85,-141.71 117.94,-134.96"/>
<polygon fill="midnightblue" stroke="midnightblue" points="119.13,-138.25 127.35,-131.57 116.76,-131.66 119.13,-138.25"/>
</g>
<!-- Node13 -->
<g id="node13" class="node">
<title>Node13</title>
<g id="a_node13"><a xlink:href="exif-tag_8h.html" target="_top" xlink:title="Handling EXIF tags.">
<polygon fill="white" stroke="black" points="404.5,-168.5 404.5,-187.5 500.5,-187.5 500.5,-168.5 404.5,-168.5"/>
<text text-anchor="middle" x="452.5" y="-175.5" font-family="Helvetica,sans-Serif" font-size="10.00">libexif/exif&#45;tag.h</text>
</a>
</g>
</g>
<!-- Node5&#45;&gt;Node13 -->
<g id="edge15" class="edge">
<title>Node5&#45;&gt;Node13</title>
<path fill="none" stroke="midnightblue" d="M361.03,-291.48C372.12,-282.96 389,-269.13 401.5,-255 417.89,-236.47 433.21,-212.37 442.69,-196.33"/>
<polygon fill="midnightblue" stroke="midnightblue" points="445.82,-197.91 447.81,-187.5 439.77,-194.4 445.82,-197.91"/>
</g>
<!-- Node14 -->
<g id="node14" class="node">
<title>Node14</title>
<g id="a_node14"><a xlink:href="exif-content_8h.html" target="_top" xlink:title="Handling EXIF IFDs.">
<polygon fill="white" stroke="black" points="83,-230 83,-249 200,-249 200,-230 83,-230"/>
<text text-anchor="middle" x="141.5" y="-237" font-family="Helvetica,sans-Serif" font-size="10.00">libexif/exif&#45;content.h</text>
</a>
</g>
</g>
<!-- Node5&#45;&gt;Node14 -->
<g id="edge18" class="edge">
<title>Node5&#45;&gt;Node14</title>
<path fill="none" stroke="midnightblue" d="M314.8,-291.48C276.24,-281.09 214.59,-263.51 176.09,-251.95"/>
<polygon fill="midnightblue" stroke="midnightblue" points="176.93,-248.55 166.35,-249.01 174.91,-255.25 176.93,-248.55"/>
</g>
<!-- Node16 -->
<g id="node16" class="node">
<title>Node16</title>
<g id="a_node16"><a xlink:href="exif-mnote-data_8h.html" target="_top" xlink:title="Handling EXIF MakerNote tags.">
<polygon fill="white" stroke="black" points="218,-224.5 218,-254.5 321,-254.5 321,-224.5 218,-224.5"/>
<text text-anchor="start" x="226" y="-242.5" font-family="Helvetica,sans-Serif" font-size="10.00">libexif/exif&#45;mnote</text>
<text text-anchor="middle" x="269.5" y="-231.5" font-family="Helvetica,sans-Serif" font-size="10.00">&#45;data.h</text>
</a>
</g>
</g>
<!-- Node5&#45;&gt;Node16 -->
<g id="edge27" class="edge">
<title>Node5&#45;&gt;Node16</title>
<path fill="none" stroke="midnightblue" d="M338.04,-291.48C327.3,-283.49 310.85,-271.25 296.75,-260.77"/>
<polygon fill="midnightblue" stroke="midnightblue" points="298.47,-257.68 288.35,-254.52 294.29,-263.3 298.47,-257.68"/>
</g>
<!-- Node8&#45;&gt;Node9 -->
<g id="edge9" class="edge">
<title>Node8&#45;&gt;Node9</title>
<path fill="none" stroke="midnightblue" d="M271.01,-168.44C250.86,-159.6 219.18,-145.69 196.17,-135.59"/>
<polygon fill="midnightblue" stroke="midnightblue" points="197.46,-132.33 186.9,-131.52 194.65,-138.74 197.46,-132.33"/>
</g>
<!-- Node12 -->
<g id="node12" class="node">
<title>Node12</title>
<g id="a_node12"><a xlink:title=" ">
<polygon fill="white" stroke="#bfbfbf" points="238.5,-112.5 238.5,-131.5 294.5,-131.5 294.5,-112.5 238.5,-112.5"/>
<text text-anchor="middle" x="266.5" y="-119.5" font-family="Helvetica,sans-Serif" font-size="10.00">stdarg.h</text>
</a>
</g>
</g>
<!-- Node8&#45;&gt;Node12 -->
<g id="edge14" class="edge">
<title>Node8&#45;&gt;Node12</title>
<path fill="none" stroke="midnightblue" d="M286.54,-168.08C283.29,-160.77 278.58,-150.18 274.55,-141.1"/>
<polygon fill="midnightblue" stroke="midnightblue" points="277.65,-139.47 270.39,-131.75 271.25,-142.31 277.65,-139.47"/>
</g>
<!-- Node10 -->
<g id="node10" class="node">
<title>Node10</title>
<g id="a_node10"><a xlink:href="exif-utils_8h.html" target="_top" xlink:title="EXIF data manipulation functions and types.">
<polygon fill="white" stroke="black" points="122,-56.5 122,-75.5 223,-75.5 223,-56.5 122,-56.5"/>
<text text-anchor="middle" x="172.5" y="-63.5" font-family="Helvetica,sans-Serif" font-size="10.00">libexif/exif&#45;utils.h</text>
</a>
</g>
</g>
<!-- Node9&#45;&gt;Node10 -->
<g id="edge10" class="edge">
<title>Node9&#45;&gt;Node10</title>
<path fill="none" stroke="midnightblue" d="M168.33,-112.08C168.98,-105.01 169.92,-94.86 170.74,-85.99"/>
<polygon fill="midnightblue" stroke="midnightblue" points="174.25,-86.03 171.69,-75.75 167.28,-85.39 174.25,-86.03"/>
</g>
<!-- Node10&#45;&gt;Node2 -->
<g id="edge12" class="edge">
<title>Node10&#45;&gt;Node2</title>
<path fill="none" stroke="midnightblue" d="M154.12,-56.44C135.28,-47.68 105.77,-33.94 84.12,-23.86"/>
<polygon fill="midnightblue" stroke="midnightblue" points="85.34,-20.56 74.79,-19.52 82.38,-26.91 85.34,-20.56"/>
</g>
<!-- Node10&#45;&gt;Node3 -->
<g id="edge11" class="edge">
<title>Node10&#45;&gt;Node3</title>
<path fill="none" stroke="midnightblue" d="M223.35,-58.27C294.51,-48.85 424.25,-31.68 506.23,-20.83"/>
<polygon fill="midnightblue" stroke="midnightblue" points="506.77,-24.29 516.23,-19.51 505.85,-17.35 506.77,-24.29"/>
</g>
<!-- Node11 -->
<g id="node11" class="node">
<title>Node11</title>
<g id="a_node11"><a xlink:title=" ">
<polygon fill="white" stroke="#bfbfbf" points="131.5,-0.5 131.5,-19.5 223.5,-19.5 223.5,-0.5 131.5,-0.5"/>
<text text-anchor="middle" x="177.5" y="-7.5" font-family="Helvetica,sans-Serif" font-size="10.00">libexif/_stdint.h</text>
</a>
</g>
</g>
<!-- Node10&#45;&gt;Node11 -->
<g id="edge13" class="edge">
<title>Node10&#45;&gt;Node11</title>
<path fill="none" stroke="midnightblue" d="M173.33,-56.08C173.98,-49.01 174.92,-38.86 175.74,-29.99"/>
<polygon fill="midnightblue" stroke="midnightblue" points="179.25,-30.03 176.69,-19.75 172.28,-29.39 179.25,-30.03"/>
</g>
<!-- Node13&#45;&gt;Node6 -->
<g id="edge17" class="edge">
<title>Node13&#45;&gt;Node6</title>
<path fill="none" stroke="midnightblue" d="M440.29,-168.32C428.72,-160.11 411.12,-147.6 397.34,-137.81"/>
<polygon fill="midnightblue" stroke="midnightblue" points="399.11,-134.77 388.93,-131.83 395.06,-140.48 399.11,-134.77"/>
</g>
<!-- Node13&#45;&gt;Node7 -->
<g id="edge16" class="edge">
<title>Node13&#45;&gt;Node7</title>
<path fill="none" stroke="midnightblue" d="M461.25,-168.08C468.97,-160.22 480.4,-148.57 489.72,-139.08"/>
<polygon fill="midnightblue" stroke="midnightblue" points="492.4,-141.34 496.91,-131.75 487.41,-136.44 492.4,-141.34"/>
</g>
<!-- Node14&#45;&gt;Node5 -->
<g id="edge24" class="edge">
<title>Node14&#45;&gt;Node5</title>
<path fill="none" stroke="midnightblue" d="M176.14,-249.01C214.68,-259.38 276.32,-276.96 314.86,-288.53"/>
<polygon fill="midnightblue" stroke="midnightblue" points="314.01,-291.93 324.6,-291.48 316.04,-285.23 314.01,-291.93"/>
</g>
<!-- Node14&#45;&gt;Node8 -->
<g id="edge25" class="edge">
<title>Node14&#45;&gt;Node8</title>
<path fill="none" stroke="midnightblue" d="M162.85,-229.98C188.19,-219.86 230.64,-202.9 259.57,-191.35"/>
<polygon fill="midnightblue" stroke="midnightblue" points="261.2,-194.47 269.19,-187.51 258.61,-187.97 261.2,-194.47"/>
</g>
<!-- Node14&#45;&gt;Node9 -->
<g id="edge26" class="edge">
<title>Node14&#45;&gt;Node9</title>
<path fill="none" stroke="midnightblue" d="M155.88,-229.98C168.98,-221.29 187.48,-206.49 195.5,-188 202.64,-171.54 192.53,-152.71 182.52,-139.57"/>
<polygon fill="midnightblue" stroke="midnightblue" points="185.2,-137.32 176.14,-131.84 179.8,-141.78 185.2,-137.32"/>
</g>
<!-- Node14&#45;&gt;Node13 -->
<g id="edge19" class="edge">
<title>Node14&#45;&gt;Node13</title>
<path fill="none" stroke="midnightblue" d="M180.08,-229.94C189.37,-227.94 199.28,-225.85 208.5,-224 271.92,-211.29 344.89,-198.01 394.38,-189.2"/>
<polygon fill="midnightblue" stroke="midnightblue" points="395.03,-192.64 404.27,-187.44 393.81,-185.75 395.03,-192.64"/>
</g>
<!-- Node15 -->
<g id="node15" class="node">
<title>Node15</title>
<g id="a_node15"><a xlink:href="exif-entry_8h.html" target="_top" xlink:title="Handling EXIF entries.">
<polygon fill="white" stroke="black" points="82.5,-168.5 82.5,-187.5 186.5,-187.5 186.5,-168.5 82.5,-168.5"/>
<text text-anchor="middle" x="134.5" y="-175.5" font-family="Helvetica,sans-Serif" font-size="10.00">libexif/exif&#45;entry.h</text>
</a>
</g>
</g>
<!-- Node14&#45;&gt;Node15 -->
<g id="edge20" class="edge">
<title>Node14&#45;&gt;Node15</title>
<path fill="none" stroke="midnightblue" d="M135.6,-229.98C132.78,-221.58 130.77,-208.48 130.38,-197.66"/>
<polygon fill="midnightblue" stroke="midnightblue" points="133.88,-197.58 130.6,-187.51 126.88,-197.43 133.88,-197.58"/>
</g>
<!-- Node15&#45;&gt;Node2 -->
<g id="edge22" class="edge">
<title>Node15&#45;&gt;Node2</title>
<path fill="none" stroke="midnightblue" d="M128.21,-168.33C121.96,-159.48 112.35,-145.2 105.5,-132 87.31,-96.93 71.17,-53.52 62.73,-29.39"/>
<polygon fill="midnightblue" stroke="midnightblue" points="65.97,-28.07 59.41,-19.76 59.36,-30.35 65.97,-28.07"/>
</g>
<!-- Node15&#45;&gt;Node9 -->
<g id="edge23" class="edge">
<title>Node15&#45;&gt;Node9</title>
<path fill="none" stroke="midnightblue" d="M139.95,-168.08C144.51,-160.61 151.17,-149.72 156.79,-140.52"/>
<polygon fill="midnightblue" stroke="midnightblue" points="159.92,-142.11 162.15,-131.75 153.95,-138.46 159.92,-142.11"/>
</g>
<!-- Node15&#45;&gt;Node14 -->
<g id="edge21" class="edge">
<title>Node15&#45;&gt;Node14</title>
<path fill="none" stroke="midnightblue" d="M140.4,-187.51C143.22,-195.9 145.23,-209 145.62,-219.82"/>
<polygon fill="midnightblue" stroke="midnightblue" points="142.12,-219.9 145.4,-229.98 149.11,-220.05 142.12,-219.9"/>
</g>
<!-- Node16&#45;&gt;Node8 -->
<g id="edge28" class="edge">
<title>Node16&#45;&gt;Node8</title>
<path fill="none" stroke="midnightblue" d="M274.48,-224.4C277.34,-216.29 280.97,-206.01 284.05,-197.28"/>
<polygon fill="midnightblue" stroke="midnightblue" points="287.42,-198.25 287.44,-187.66 280.82,-195.92 287.42,-198.25"/>
</g>
</g>
</svg>
