<?xml version="1.0" encoding="UTF-8" standalone="no"?>
<!DOCTYPE svg PUBLIC "-//W3C//DTD SVG 1.1//EN"
 "http://www.w3.org/Graphics/SVG/1.1/DTD/svg11.dtd">
<!-- Generated by graphviz version 7.0.1 (0)
 -->
<!-- Title: mnote_apple_entry_get_value Pages: 1 -->
<svg width="559pt" height="245pt"
 viewBox="0.00 0.00 559.00 245.00" xmlns="http://www.w3.org/2000/svg" xmlns:xlink="http://www.w3.org/1999/xlink">
<g id="graph0" class="graph" transform="scale(1 1) rotate(0) translate(4 241)">
<title>mnote_apple_entry_get_value</title>
<!-- Node1 -->
<g id="Node000001" class="node">
<title>Node1</title>
<g id="a_Node000001"><a xlink:title=" ">
<polygon fill="#999999" stroke="#666666" points="132,-128.5 0,-128.5 0,-98.5 132,-98.5 132,-128.5"/>
<text text-anchor="start" x="8" y="-116.5" font-family="Helvetica,sans-Serif" font-size="10.00">mnote_apple_entry_get</text>
<text text-anchor="middle" x="66" y="-105.5" font-family="Helvetica,sans-Serif" font-size="10.00">_value</text>
</a>
</g>
</g>
<!-- Node2 -->
<g id="Node000002" class="node">
<title>Node2</title>
<g id="a_Node000002"><a xlink:href="exif-format_8c.html#a924038efe0cd8ebade8f44619dd794f3" target="_top" xlink:title="Return the raw size of the given EXIF data type.">
<polygon fill="white" stroke="#666666" points="287,-237 168,-237 168,-218 287,-218 287,-237"/>
<text text-anchor="middle" x="227.5" y="-225" font-family="Helvetica,sans-Serif" font-size="10.00">exif_format_get_size</text>
</a>
</g>
</g>
<!-- Node1&#45;&gt;Node2 -->
<g id="edge1_Node000001_Node000002" class="edge">
<title>Node1&#45;&gt;Node2</title>
<g id="a_edge1_Node000001_Node000002"><a xlink:title=" ">
<path fill="none" stroke="#63b8ff" d="M81.1,-128.96C99.53,-148.44 133.54,-181.97 168,-203.5 173.67,-207.04 179.94,-210.25 186.22,-213.1"/>
<polygon fill="#63b8ff" stroke="#63b8ff" points="184.72,-216.26 195.29,-216.93 187.44,-209.81 184.72,-216.26"/>
</a>
</g>
</g>
<!-- Node3 -->
<g id="Node000003" class="node">
<title>Node3</title>
<g id="a_Node000003"><a xlink:href="exif-utils_8c.html#a4ad94614630897766dd0a5c9bc2a59bf" target="_top" xlink:title="Retrieve an ExifLong value from memory.">
<polygon fill="white" stroke="#666666" points="416.5,-161 333.5,-161 333.5,-142 416.5,-142 416.5,-161"/>
<text text-anchor="middle" x="375" y="-149" font-family="Helvetica,sans-Serif" font-size="10.00">exif_get_long</text>
</a>
</g>
</g>
<!-- Node1&#45;&gt;Node3 -->
<g id="edge2_Node000001_Node000003" class="edge">
<title>Node1&#45;&gt;Node3</title>
<g id="a_edge2_Node000001_Node000003"><a xlink:title=" ">
<path fill="none" stroke="#63b8ff" d="M86.91,-128.88C106.37,-142.85 137.43,-162.47 168,-170.5 222.57,-184.84 287.74,-174.42 329.95,-164.24"/>
<polygon fill="#63b8ff" stroke="#63b8ff" points="330.65,-167.67 339.49,-161.83 328.94,-160.88 330.65,-167.67"/>
</a>
</g>
</g>
<!-- Node4 -->
<g id="Node000004" class="node">
<title>Node4</title>
<g id="a_Node000004"><a xlink:href="exif-utils_8c.html#a56b96f076a13da6ed926e1ef29cb2dc3" target="_top" xlink:title="Retrieve an ExifSLong value from memory.">
<polygon fill="white" stroke="#666666" points="551,-123 463,-123 463,-104 551,-104 551,-123"/>
<text text-anchor="middle" x="507" y="-111" font-family="Helvetica,sans-Serif" font-size="10.00">exif_get_slong</text>
</a>
</g>
</g>
<!-- Node1&#45;&gt;Node4 -->
<g id="edge8_Node000001_Node000004" class="edge">
<title>Node1&#45;&gt;Node4</title>
<g id="a_edge8_Node000001_Node000004"><a xlink:title=" ">
<path fill="none" stroke="#63b8ff" d="M132.25,-113.5C218.87,-113.5 370.3,-113.5 451.27,-113.5"/>
<polygon fill="#63b8ff" stroke="#63b8ff" points="451.17,-117 461.17,-113.5 451.17,-110 451.17,-117"/>
</a>
</g>
</g>
<!-- Node5 -->
<g id="Node000005" class="node">
<title>Node5</title>
<g id="a_Node000005"><a xlink:href="exif-utils_8c.html#a1feb547c289aa57a4d2119338b03706c" target="_top" xlink:title="Retrieve an ExifRational value from memory.">
<polygon fill="white" stroke="#666666" points="277,-161 178,-161 178,-142 277,-142 277,-161"/>
<text text-anchor="middle" x="227.5" y="-149" font-family="Helvetica,sans-Serif" font-size="10.00">exif_get_rational</text>
</a>
</g>
</g>
<!-- Node1&#45;&gt;Node5 -->
<g id="edge4_Node000001_Node000005" class="edge">
<title>Node1&#45;&gt;Node5</title>
<g id="a_edge4_Node000001_Node000005"><a xlink:title=" ">
<path fill="none" stroke="#63b8ff" d="M131.87,-128.96C145.76,-132.26 160.26,-135.72 173.62,-138.9"/>
<polygon fill="#63b8ff" stroke="#63b8ff" points="172.53,-142.24 183.07,-141.15 174.15,-135.43 172.53,-142.24"/>
</a>
</g>
</g>
<!-- Node6 -->
<g id="Node000006" class="node">
<title>Node6</title>
<g id="a_Node000006"><a xlink:href="exif-utils_8c.html#a4b4acf537a8c6b9405e7b53be868e4d7" target="_top" xlink:title="Retrieve an ExifShort value from memory.">
<polygon fill="white" stroke="#666666" points="270.5,-85 184.5,-85 184.5,-66 270.5,-66 270.5,-85"/>
<text text-anchor="middle" x="227.5" y="-73" font-family="Helvetica,sans-Serif" font-size="10.00">exif_get_short</text>
</a>
</g>
</g>
<!-- Node1&#45;&gt;Node6 -->
<g id="edge6_Node000001_Node000006" class="edge">
<title>Node1&#45;&gt;Node6</title>
<g id="a_edge6_Node000001_Node000006"><a xlink:title=" ">
<path fill="none" stroke="#63b8ff" d="M131.87,-98.04C145.76,-94.74 160.26,-91.28 173.62,-88.1"/>
<polygon fill="#63b8ff" stroke="#63b8ff" points="174.15,-91.57 183.07,-85.85 172.53,-84.76 174.15,-91.57"/>
</a>
</g>
</g>
<!-- Node7 -->
<g id="Node000007" class="node">
<title>Node7</title>
<g id="a_Node000007"><a xlink:href="exif-utils_8c.html#a6baf094a71392f9cea23ad633ec13c8b" target="_top" xlink:title="Retrieve an ExifSShort value from memory.">
<polygon fill="white" stroke="#666666" points="421,-75 329,-75 329,-56 421,-56 421,-75"/>
<text text-anchor="middle" x="375" y="-63" font-family="Helvetica,sans-Serif" font-size="10.00">exif_get_sshort</text>
</a>
</g>
</g>
<!-- Node1&#45;&gt;Node7 -->
<g id="edge11_Node000001_Node000007" class="edge">
<title>Node1&#45;&gt;Node7</title>
<g id="a_edge11_Node000001_Node000007"><a xlink:title=" ">
<path fill="none" stroke="#63b8ff" d="M87.33,-98.13C106.84,-84.41 137.72,-65.33 168,-57.5 217.25,-44.76 275.32,-48.63 317.22,-54.6"/>
<polygon fill="#63b8ff" stroke="#63b8ff" points="316.69,-58.06 327.1,-56.1 317.74,-51.14 316.69,-58.06"/>
</a>
</g>
</g>
<!-- Node8 -->
<g id="Node000008" class="node">
<title>Node8</title>
<g id="a_Node000008"><a xlink:href="exif-utils_8c.html#adb97c3499488d5642a82df1cb16dc2cb" target="_top" xlink:title="Retrieve an ExifSRational value from memory.">
<polygon fill="white" stroke="#666666" points="427,-19 323,-19 323,0 427,0 427,-19"/>
<text text-anchor="middle" x="375" y="-7" font-family="Helvetica,sans-Serif" font-size="10.00">exif_get_srational</text>
</a>
</g>
</g>
<!-- Node1&#45;&gt;Node8 -->
<g id="edge9_Node000001_Node000008" class="edge">
<title>Node1&#45;&gt;Node8</title>
<g id="a_edge9_Node000001_Node000008"><a xlink:title=" ">
<path fill="none" stroke="#63b8ff" d="M84.25,-98.22C103.34,-82.19 135.71,-57.54 168,-44.5 213.97,-25.94 269.56,-17.22 311.4,-13.12"/>
<polygon fill="#63b8ff" stroke="#63b8ff" points="311.67,-16.61 321.31,-12.22 311.03,-9.64 311.67,-16.61"/>
</a>
</g>
</g>
<!-- Node3&#45;&gt;Node4 -->
<g id="edge3_Node000003_Node000004" class="edge">
<title>Node3&#45;&gt;Node4</title>
<g id="a_edge3_Node000003_Node000004"><a xlink:title=" ">
<path fill="none" stroke="#63b8ff" d="M410.16,-141.52C425.83,-136.93 444.62,-131.44 461.39,-126.54"/>
<polygon fill="#63b8ff" stroke="#63b8ff" points="462,-130.01 470.62,-123.84 460.04,-123.29 462,-130.01"/>
</a>
</g>
</g>
<!-- Node5&#45;&gt;Node3 -->
<g id="edge5_Node000005_Node000003" class="edge">
<title>Node5&#45;&gt;Node3</title>
<g id="a_edge5_Node000005_Node000003"><a xlink:title=" ">
<path fill="none" stroke="#63b8ff" d="M277.35,-151.5C291.69,-151.5 307.41,-151.5 321.93,-151.5"/>
<polygon fill="#63b8ff" stroke="#63b8ff" points="321.76,-155 331.76,-151.5 321.76,-148 321.76,-155"/>
</a>
</g>
</g>
<!-- Node6&#45;&gt;Node7 -->
<g id="edge7_Node000006_Node000007" class="edge">
<title>Node6&#45;&gt;Node7</title>
<g id="a_edge7_Node000006_Node000007"><a xlink:title=" ">
<path fill="none" stroke="#63b8ff" d="M270.98,-72.58C285.56,-71.58 302.11,-70.44 317.62,-69.38"/>
<polygon fill="#63b8ff" stroke="#63b8ff" points="317.43,-72.9 327.17,-68.72 316.95,-65.91 317.43,-72.9"/>
</a>
</g>
</g>
<!-- Node8&#45;&gt;Node4 -->
<g id="edge10_Node000008_Node000004" class="edge">
<title>Node8&#45;&gt;Node4</title>
<g id="a_edge10_Node000008_Node000004"><a xlink:title=" ">
<path fill="none" stroke="#63b8ff" d="M389.58,-19.3C399.94,-26.86 414.52,-37.65 427,-47.5 447.52,-63.7 470.39,-82.94 486.22,-96.45"/>
<polygon fill="#63b8ff" stroke="#63b8ff" points="483.63,-98.84 493.5,-102.69 488.19,-93.53 483.63,-98.84"/>
</a>
</g>
</g>
</g>
</svg>
