<?xml version="1.0" encoding="UTF-8" standalone="no"?>
<!DOCTYPE svg PUBLIC "-//W3C//DTD SVG 1.1//EN"
 "http://www.w3.org/Graphics/SVG/1.1/DTD/svg11.dtd">
<!-- Generated by graphviz version 2.44.1 (0)
 -->
<!-- Title: libexif/fuji/mnote&#45;fuji&#45;entry.h Pages: 1 -->
<svg width="304pt" height="173pt"
 viewBox="0.00 0.00 304.00 173.00" xmlns="http://www.w3.org/2000/svg" xmlns:xlink="http://www.w3.org/1999/xlink">
<g id="graph0" class="graph" transform="scale(1 1) rotate(0) translate(4 169)">
<title>libexif/fuji/mnote&#45;fuji&#45;entry.h</title>
<polygon fill="white" stroke="transparent" points="-4,4 -4,-169 300,-169 300,4 -4,4"/>
<!-- Node1 -->
<g id="node1" class="node">
<title>Node1</title>
<g id="a_node1"><a xlink:title=" ">
<polygon fill="#bfbfbf" stroke="black" points="65,-134.5 65,-164.5 166,-164.5 166,-134.5 65,-134.5"/>
<text text-anchor="start" x="73" y="-152.5" font-family="Helvetica,sans-Serif" font-size="10.00">libexif/fuji/mnote</text>
<text text-anchor="middle" x="115.5" y="-141.5" font-family="Helvetica,sans-Serif" font-size="10.00">&#45;fuji&#45;entry.h</text>
</a>
</g>
</g>
<!-- Node2 -->
<g id="node2" class="node">
<title>Node2</title>
<g id="a_node2"><a xlink:href="exif-mnote-data-fuji_8h.html" target="_top" xlink:title=" ">
<polygon fill="white" stroke="black" points="54.5,-67.5 54.5,-97.5 176.5,-97.5 176.5,-67.5 54.5,-67.5"/>
<text text-anchor="start" x="62.5" y="-85.5" font-family="Helvetica,sans-Serif" font-size="10.00">libexif/fuji/exif&#45;mnote</text>
<text text-anchor="middle" x="115.5" y="-74.5" font-family="Helvetica,sans-Serif" font-size="10.00">&#45;data&#45;fuji.h</text>
</a>
</g>
</g>
<!-- Node1&#45;&gt;Node2 -->
<g id="edge1" class="edge">
<title>Node1&#45;&gt;Node2</title>
<path fill="none" stroke="midnightblue" d="M108.95,-124.4C108.51,-115.37 108.8,-105.41 109.83,-97.58"/>
<polygon fill="midnightblue" stroke="midnightblue" points="105.47,-124.74 109.82,-134.4 112.44,-124.13 105.47,-124.74"/>
</g>
<!-- Node5 -->
<g id="node5" class="node">
<title>Node5</title>
<g id="a_node5"><a xlink:href="mnote-fuji-entry_8c.html" target="_top" xlink:title=" ">
<polygon fill="white" stroke="black" points="195,-67.5 195,-97.5 296,-97.5 296,-67.5 195,-67.5"/>
<text text-anchor="start" x="203" y="-85.5" font-family="Helvetica,sans-Serif" font-size="10.00">libexif/fuji/mnote</text>
<text text-anchor="middle" x="245.5" y="-74.5" font-family="Helvetica,sans-Serif" font-size="10.00">&#45;fuji&#45;entry.c</text>
</a>
</g>
</g>
<!-- Node1&#45;&gt;Node5 -->
<g id="edge5" class="edge">
<title>Node1&#45;&gt;Node5</title>
<path fill="none" stroke="midnightblue" d="M152.79,-129.85C173.35,-119.58 198.45,-107.03 217.35,-97.58"/>
<polygon fill="midnightblue" stroke="midnightblue" points="151.09,-126.79 143.71,-134.4 154.22,-133.05 151.09,-126.79"/>
</g>
<!-- Node2&#45;&gt;Node1 -->
<g id="edge4" class="edge">
<title>Node2&#45;&gt;Node1</title>
<path fill="none" stroke="midnightblue" d="M122.04,-107.57C122.49,-116.6 122.21,-126.56 121.18,-134.4"/>
<polygon fill="midnightblue" stroke="midnightblue" points="125.53,-107.24 121.17,-97.58 118.55,-107.84 125.53,-107.24"/>
</g>
<!-- Node3 -->
<g id="node3" class="node">
<title>Node3</title>
<g id="a_node3"><a xlink:href="exif-data_8c.html" target="_top" xlink:title=" ">
<polygon fill="white" stroke="black" points="0,-6 0,-25 101,-25 101,-6 0,-6"/>
<text text-anchor="middle" x="50.5" y="-13" font-family="Helvetica,sans-Serif" font-size="10.00">libexif/exif&#45;data.c</text>
</a>
</g>
</g>
<!-- Node2&#45;&gt;Node3 -->
<g id="edge2" class="edge">
<title>Node2&#45;&gt;Node3</title>
<path fill="none" stroke="midnightblue" d="M94,-60C82.13,-48.13 68.05,-34.05 59.19,-25.19"/>
<polygon fill="midnightblue" stroke="midnightblue" points="91.85,-62.8 101.4,-67.4 96.8,-57.85 91.85,-62.8"/>
</g>
<!-- Node4 -->
<g id="node4" class="node">
<title>Node4</title>
<g id="a_node4"><a xlink:href="exif-mnote-data-fuji_8c.html" target="_top" xlink:title=" ">
<polygon fill="white" stroke="black" points="119.5,-0.5 119.5,-30.5 241.5,-30.5 241.5,-0.5 119.5,-0.5"/>
<text text-anchor="start" x="127.5" y="-18.5" font-family="Helvetica,sans-Serif" font-size="10.00">libexif/fuji/exif&#45;mnote</text>
<text text-anchor="middle" x="180.5" y="-7.5" font-family="Helvetica,sans-Serif" font-size="10.00">&#45;data&#45;fuji.c</text>
</a>
</g>
</g>
<!-- Node2&#45;&gt;Node4 -->
<g id="edge3" class="edge">
<title>Node2&#45;&gt;Node4</title>
<path fill="none" stroke="midnightblue" d="M136.69,-60.31C146.44,-50.56 157.74,-39.26 166.42,-30.58"/>
<polygon fill="midnightblue" stroke="midnightblue" points="134.2,-57.85 129.6,-67.4 139.15,-62.8 134.2,-57.85"/>
</g>
</g>
</svg>
