<?xml version="1.0" encoding="UTF-8" standalone="no"?>
<!DOCTYPE svg PUBLIC "-//W3C//DTD SVG 1.1//EN"
 "http://www.w3.org/Graphics/SVG/1.1/DTD/svg11.dtd">
<!-- Generated by graphviz version 2.44.1 (0)
 -->
<!-- Title: libexif/pentax/mnote&#45;pentax&#45;entry.c Pages: 1 -->
<svg width="960pt" height="509pt"
 viewBox="0.00 0.00 959.50 509.00" xmlns="http://www.w3.org/2000/svg" xmlns:xlink="http://www.w3.org/1999/xlink">
<g id="graph0" class="graph" transform="scale(1 1) rotate(0) translate(4 505)">
<title>libexif/pentax/mnote&#45;pentax&#45;entry.c</title>
<polygon fill="white" stroke="transparent" points="-4,4 -4,-505 955.5,-505 955.5,4 -4,4"/>
<!-- Node1 -->
<g id="node1" class="node">
<title>Node1</title>
<g id="a_node1"><a xlink:title=" ">
<polygon fill="#bfbfbf" stroke="black" points="456.5,-470.5 456.5,-500.5 575.5,-500.5 575.5,-470.5 456.5,-470.5"/>
<text text-anchor="start" x="464.5" y="-488.5" font-family="Helvetica,sans-Serif" font-size="10.00">libexif/pentax/mnote</text>
<text text-anchor="middle" x="516" y="-477.5" font-family="Helvetica,sans-Serif" font-size="10.00">&#45;pentax&#45;entry.c</text>
</a>
</g>
</g>
<!-- Node2 -->
<g id="node2" class="node">
<title>Node2</title>
<g id="a_node2"><a xlink:title=" ">
<polygon fill="white" stroke="#bfbfbf" points="37,-358.5 37,-377.5 93,-377.5 93,-358.5 37,-358.5"/>
<text text-anchor="middle" x="65" y="-365.5" font-family="Helvetica,sans-Serif" font-size="10.00">config.h</text>
</a>
</g>
</g>
<!-- Node1&#45;&gt;Node2 -->
<g id="edge1" class="edge">
<title>Node1&#45;&gt;Node2</title>
<path fill="none" stroke="midnightblue" d="M456.32,-481.23C363.12,-475.36 187.92,-461.05 132,-434 109.07,-422.91 89.04,-400.94 77,-385.63"/>
<polygon fill="midnightblue" stroke="midnightblue" points="79.69,-383.38 70.86,-377.51 74.1,-387.6 79.69,-383.38"/>
</g>
<!-- Node3 -->
<g id="node3" class="node">
<title>Node3</title>
<g id="a_node3"><a xlink:href="mnote-pentax-entry_8h.html" target="_top" xlink:title=" ">
<polygon fill="white" stroke="black" points="174,-67.5 174,-86.5 296,-86.5 296,-67.5 174,-67.5"/>
<text text-anchor="middle" x="235" y="-74.5" font-family="Helvetica,sans-Serif" font-size="10.00">mnote&#45;pentax&#45;entry.h</text>
</a>
</g>
</g>
<!-- Node1&#45;&gt;Node3 -->
<g id="edge2" class="edge">
<title>Node1&#45;&gt;Node3</title>
<path fill="none" stroke="midnightblue" d="M456.44,-474.6C367.17,-458.04 209,-421.32 209,-369 209,-369 209,-369 209,-188 209,-154.93 220.27,-117.73 227.97,-96.17"/>
<polygon fill="midnightblue" stroke="midnightblue" points="231.29,-97.27 231.49,-86.68 224.73,-94.83 231.29,-97.27"/>
</g>
<!-- Node4 -->
<g id="node4" class="node">
<title>Node4</title>
<g id="a_node4"><a xlink:href="exif-format_8h.html" target="_top" xlink:title="Handling native EXIF data types.">
<polygon fill="white" stroke="black" points="267.5,-6 267.5,-25 380.5,-25 380.5,-6 267.5,-6"/>
<text text-anchor="middle" x="324" y="-13" font-family="Helvetica,sans-Serif" font-size="10.00">libexif/exif&#45;format.h</text>
</a>
</g>
</g>
<!-- Node1&#45;&gt;Node4 -->
<g id="edge11" class="edge">
<title>Node1&#45;&gt;Node4</title>
<path fill="none" stroke="midnightblue" d="M456.14,-478.32C351.42,-465.84 146,-433.18 146,-369 146,-369 146,-369 146,-132 146,-101.9 143.97,-88.53 165,-67 173.4,-58.41 237.72,-39.73 281.94,-27.66"/>
<polygon fill="midnightblue" stroke="midnightblue" points="282.86,-31.04 291.59,-25.04 281.02,-24.28 282.86,-31.04"/>
</g>
<!-- Node7 -->
<g id="node7" class="node">
<title>Node7</title>
<g id="a_node7"><a xlink:href="i18n_8h.html" target="_top" xlink:title=" ">
<polygon fill="white" stroke="black" points="0,-414.5 0,-433.5 80,-433.5 80,-414.5 0,-414.5"/>
<text text-anchor="middle" x="40" y="-421.5" font-family="Helvetica,sans-Serif" font-size="10.00">libexif/i18n.h</text>
</a>
</g>
</g>
<!-- Node1&#45;&gt;Node7 -->
<g id="edge6" class="edge">
<title>Node1&#45;&gt;Node7</title>
<path fill="none" stroke="midnightblue" d="M456.48,-478.25C374.67,-469.46 222.92,-452.45 94,-434 92.73,-433.82 91.44,-433.63 90.15,-433.44"/>
<polygon fill="midnightblue" stroke="midnightblue" points="90.49,-429.95 80.07,-431.89 89.42,-436.87 90.49,-429.95"/>
</g>
<!-- Node8 -->
<g id="node8" class="node">
<title>Node8</title>
<g id="a_node8"><a xlink:title=" ">
<polygon fill="white" stroke="#bfbfbf" points="759,-414.5 759,-433.5 809,-433.5 809,-414.5 759,-414.5"/>
<text text-anchor="middle" x="784" y="-421.5" font-family="Helvetica,sans-Serif" font-size="10.00">stdio.h</text>
</a>
</g>
</g>
<!-- Node1&#45;&gt;Node8 -->
<g id="edge8" class="edge">
<title>Node1&#45;&gt;Node8</title>
<path fill="none" stroke="midnightblue" d="M575.82,-471.47C622.05,-461.37 687.61,-446.95 745,-434 746.26,-433.72 747.54,-433.43 748.83,-433.13"/>
<polygon fill="midnightblue" stroke="midnightblue" points="749.86,-436.49 758.83,-430.85 748.3,-429.66 749.86,-436.49"/>
</g>
<!-- Node9 -->
<g id="node9" class="node">
<title>Node9</title>
<g id="a_node9"><a xlink:title=" ">
<polygon fill="white" stroke="#bfbfbf" points="827.5,-414.5 827.5,-433.5 880.5,-433.5 880.5,-414.5 827.5,-414.5"/>
<text text-anchor="middle" x="854" y="-421.5" font-family="Helvetica,sans-Serif" font-size="10.00">stdlib.h</text>
</a>
</g>
</g>
<!-- Node1&#45;&gt;Node9 -->
<g id="edge9" class="edge">
<title>Node1&#45;&gt;Node9</title>
<path fill="none" stroke="midnightblue" d="M575.57,-475.97C634.52,-467.2 727.52,-452.5 817.5,-433.96"/>
<polygon fill="midnightblue" stroke="midnightblue" points="818.24,-437.38 827.32,-431.92 816.81,-430.53 818.24,-437.38"/>
</g>
<!-- Node10 -->
<g id="node10" class="node">
<title>Node10</title>
<g id="a_node10"><a xlink:title=" ">
<polygon fill="white" stroke="#bfbfbf" points="898.5,-414.5 898.5,-433.5 951.5,-433.5 951.5,-414.5 898.5,-414.5"/>
<text text-anchor="middle" x="925" y="-421.5" font-family="Helvetica,sans-Serif" font-size="10.00">string.h</text>
</a>
</g>
</g>
<!-- Node1&#45;&gt;Node10 -->
<g id="edge10" class="edge">
<title>Node1&#45;&gt;Node10</title>
<path fill="none" stroke="midnightblue" d="M575.62,-478.63C647.63,-471.06 772.55,-456.38 888.23,-434.17"/>
<polygon fill="midnightblue" stroke="midnightblue" points="889.17,-437.55 898.32,-432.2 887.84,-430.68 889.17,-437.55"/>
</g>
<!-- Node11 -->
<g id="node11" class="node">
<title>Node11</title>
<g id="a_node11"><a xlink:href="exif-utils_8h.html" target="_top" xlink:title="EXIF data manipulation functions and types.">
<polygon fill="white" stroke="black" points="640.5,-67.5 640.5,-86.5 741.5,-86.5 741.5,-67.5 640.5,-67.5"/>
<text text-anchor="middle" x="691" y="-74.5" font-family="Helvetica,sans-Serif" font-size="10.00">libexif/exif&#45;utils.h</text>
</a>
</g>
</g>
<!-- Node1&#45;&gt;Node11 -->
<g id="edge12" class="edge">
<title>Node1&#45;&gt;Node11</title>
<path fill="none" stroke="midnightblue" d="M564.13,-470.46C655.93,-442.24 847,-375.94 847,-313 847,-313 847,-313 847,-188 847,-133.82 783.37,-103.97 737.38,-89.48"/>
<polygon fill="midnightblue" stroke="midnightblue" points="738.16,-86.06 727.58,-86.54 736.15,-92.77 738.16,-86.06"/>
</g>
<!-- Node13 -->
<g id="node13" class="node">
<title>Node13</title>
<g id="a_node13"><a xlink:href="exif-entry_8h.html" target="_top" xlink:title="Handling EXIF entries.">
<polygon fill="white" stroke="black" points="464,-414.5 464,-433.5 568,-433.5 568,-414.5 464,-414.5"/>
<text text-anchor="middle" x="516" y="-421.5" font-family="Helvetica,sans-Serif" font-size="10.00">libexif/exif&#45;entry.h</text>
</a>
</g>
</g>
<!-- Node1&#45;&gt;Node13 -->
<g id="edge16" class="edge">
<title>Node1&#45;&gt;Node13</title>
<path fill="none" stroke="midnightblue" d="M516,-470.4C516,-462.47 516,-452.46 516,-443.86"/>
<polygon fill="midnightblue" stroke="midnightblue" points="519.5,-443.66 516,-433.66 512.5,-443.66 519.5,-443.66"/>
</g>
<!-- Node3&#45;&gt;Node4 -->
<g id="edge3" class="edge">
<title>Node3&#45;&gt;Node4</title>
<path fill="none" stroke="midnightblue" d="M247.75,-67.48C262.03,-57.93 285.4,-42.31 302.51,-30.87"/>
<polygon fill="midnightblue" stroke="midnightblue" points="304.9,-33.48 311.27,-25.01 301.01,-27.66 304.9,-33.48"/>
</g>
<!-- Node5 -->
<g id="node5" class="node">
<title>Node5</title>
<g id="a_node5"><a xlink:href="exif-byte-order_8h.html" target="_top" xlink:title="Defines the ExifByteOrder enum and the associated functions.">
<polygon fill="white" stroke="black" points="477.5,-6 477.5,-25 608.5,-25 608.5,-6 477.5,-6"/>
<text text-anchor="middle" x="543" y="-13" font-family="Helvetica,sans-Serif" font-size="10.00">libexif/exif&#45;byte&#45;order.h</text>
</a>
</g>
</g>
<!-- Node3&#45;&gt;Node5 -->
<g id="edge4" class="edge">
<title>Node3&#45;&gt;Node5</title>
<path fill="none" stroke="midnightblue" d="M279.13,-67.48C334.48,-56.78 429.34,-38.46 488.97,-26.94"/>
<polygon fill="midnightblue" stroke="midnightblue" points="489.8,-30.34 498.95,-25.01 488.47,-23.47 489.8,-30.34"/>
</g>
<!-- Node6 -->
<g id="node6" class="node">
<title>Node6</title>
<g id="a_node6"><a xlink:href="mnote-pentax-tag_8h.html" target="_top" xlink:title=" ">
<polygon fill="white" stroke="black" points="130.5,-0.5 130.5,-30.5 249.5,-30.5 249.5,-0.5 130.5,-0.5"/>
<text text-anchor="start" x="138.5" y="-18.5" font-family="Helvetica,sans-Serif" font-size="10.00">libexif/pentax/mnote</text>
<text text-anchor="middle" x="190" y="-7.5" font-family="Helvetica,sans-Serif" font-size="10.00">&#45;pentax&#45;tag.h</text>
</a>
</g>
</g>
<!-- Node3&#45;&gt;Node6 -->
<g id="edge5" class="edge">
<title>Node3&#45;&gt;Node6</title>
<path fill="none" stroke="midnightblue" d="M228.55,-67.48C222.86,-59.94 214.3,-48.63 206.69,-38.57"/>
<polygon fill="midnightblue" stroke="midnightblue" points="209.43,-36.39 200.61,-30.52 203.85,-40.61 209.43,-36.39"/>
</g>
<!-- Node7&#45;&gt;Node2 -->
<g id="edge7" class="edge">
<title>Node7&#45;&gt;Node2</title>
<path fill="none" stroke="midnightblue" d="M44.13,-414.08C47.51,-406.77 52.42,-396.18 56.62,-387.1"/>
<polygon fill="midnightblue" stroke="midnightblue" points="59.92,-388.3 60.95,-377.75 53.57,-385.36 59.92,-388.3"/>
</g>
<!-- Node11&#45;&gt;Node4 -->
<g id="edge14" class="edge">
<title>Node11&#45;&gt;Node4</title>
<path fill="none" stroke="midnightblue" d="M640.36,-67.79C574.2,-57.06 458.38,-38.29 386.73,-26.67"/>
<polygon fill="midnightblue" stroke="midnightblue" points="386.93,-23.16 376.5,-25.01 385.81,-30.07 386.93,-23.16"/>
</g>
<!-- Node11&#45;&gt;Node5 -->
<g id="edge13" class="edge">
<title>Node11&#45;&gt;Node5</title>
<path fill="none" stroke="midnightblue" d="M669.8,-67.48C644.63,-57.36 602.46,-40.4 573.72,-28.85"/>
<polygon fill="midnightblue" stroke="midnightblue" points="574.75,-25.49 564.17,-25.01 572.14,-31.99 574.75,-25.49"/>
</g>
<!-- Node12 -->
<g id="node12" class="node">
<title>Node12</title>
<g id="a_node12"><a xlink:title=" ">
<polygon fill="white" stroke="#bfbfbf" points="645,-6 645,-25 737,-25 737,-6 645,-6"/>
<text text-anchor="middle" x="691" y="-13" font-family="Helvetica,sans-Serif" font-size="10.00">libexif/_stdint.h</text>
</a>
</g>
</g>
<!-- Node11&#45;&gt;Node12 -->
<g id="edge15" class="edge">
<title>Node11&#45;&gt;Node12</title>
<path fill="none" stroke="midnightblue" d="M691,-67.48C691,-59.08 691,-45.98 691,-35.16"/>
<polygon fill="midnightblue" stroke="midnightblue" points="694.5,-35.01 691,-25.01 687.5,-35.01 694.5,-35.01"/>
</g>
<!-- Node13&#45;&gt;Node4 -->
<g id="edge37" class="edge">
<title>Node13&#45;&gt;Node4</title>
<path fill="none" stroke="midnightblue" d="M471.88,-414.46C395.57,-398.41 247,-361 247,-313 247,-313 247,-313 247,-249.5 247,-172.82 280,-159.49 305,-87 310.94,-69.79 316.19,-49.7 319.66,-35.38"/>
<polygon fill="midnightblue" stroke="midnightblue" points="323.15,-35.84 322.04,-25.3 316.34,-34.23 323.15,-35.84"/>
</g>
<!-- Node14 -->
<g id="node14" class="node">
<title>Node14</title>
<g id="a_node14"><a xlink:href="exif-content_8h.html" target="_top" xlink:title="Handling EXIF IFDs.">
<polygon fill="white" stroke="black" points="457.5,-358.5 457.5,-377.5 574.5,-377.5 574.5,-358.5 457.5,-358.5"/>
<text text-anchor="middle" x="516" y="-365.5" font-family="Helvetica,sans-Serif" font-size="10.00">libexif/exif&#45;content.h</text>
</a>
</g>
</g>
<!-- Node13&#45;&gt;Node14 -->
<g id="edge17" class="edge">
<title>Node13&#45;&gt;Node14</title>
<path fill="none" stroke="midnightblue" d="M510.83,-414.08C509.32,-406.93 508.89,-396.64 509.54,-387.69"/>
<polygon fill="midnightblue" stroke="midnightblue" points="513.02,-388.13 510.87,-377.75 506.08,-387.2 513.02,-388.13"/>
</g>
<!-- Node20 -->
<g id="node20" class="node">
<title>Node20</title>
<g id="a_node20"><a xlink:href="exif-mem_8h.html" target="_top" xlink:title="Define the ExifMem data type and the associated functions.">
<polygon fill="white" stroke="black" points="655,-123.5 655,-142.5 761,-142.5 761,-123.5 655,-123.5"/>
<text text-anchor="middle" x="708" y="-130.5" font-family="Helvetica,sans-Serif" font-size="10.00">libexif/exif&#45;mem.h</text>
</a>
</g>
</g>
<!-- Node13&#45;&gt;Node20 -->
<g id="edge38" class="edge">
<title>Node13&#45;&gt;Node20</title>
<path fill="none" stroke="midnightblue" d="M568.04,-414.47C652.24,-399.17 809,-363.87 809,-313 809,-313 809,-313 809,-249.5 809,-203.39 762.83,-166.83 732.92,-147.99"/>
<polygon fill="midnightblue" stroke="midnightblue" points="734.59,-144.91 724.23,-142.72 730.96,-150.9 734.59,-144.91"/>
</g>
<!-- Node14&#45;&gt;Node13 -->
<g id="edge21" class="edge">
<title>Node14&#45;&gt;Node13</title>
<path fill="none" stroke="midnightblue" d="M521.13,-377.75C522.66,-384.86 523.1,-395.14 522.47,-404.1"/>
<polygon fill="midnightblue" stroke="midnightblue" points="518.99,-403.71 521.17,-414.08 525.93,-404.62 518.99,-403.71"/>
</g>
<!-- Node15 -->
<g id="node15" class="node">
<title>Node15</title>
<g id="a_node15"><a xlink:href="exif-tag_8h.html" target="_top" xlink:title="Handling EXIF tags.">
<polygon fill="white" stroke="black" points="297,-241 297,-260 393,-260 393,-241 297,-241"/>
<text text-anchor="middle" x="345" y="-248" font-family="Helvetica,sans-Serif" font-size="10.00">libexif/exif&#45;tag.h</text>
</a>
</g>
</g>
<!-- Node14&#45;&gt;Node15 -->
<g id="edge18" class="edge">
<title>Node14&#45;&gt;Node15</title>
<path fill="none" stroke="midnightblue" d="M503.15,-358.32C473.93,-338.59 402.29,-290.2 366.33,-265.91"/>
<polygon fill="midnightblue" stroke="midnightblue" points="368.25,-262.98 358,-260.28 364.33,-268.78 368.25,-262.98"/>
</g>
<!-- Node18 -->
<g id="node18" class="node">
<title>Node18</title>
<g id="a_node18"><a xlink:href="exif-data_8h.html" target="_top" xlink:title="Defines the ExifData type and the associated functions.">
<polygon fill="white" stroke="black" points="465,-302.5 465,-321.5 567,-321.5 567,-302.5 465,-302.5"/>
<text text-anchor="middle" x="516" y="-309.5" font-family="Helvetica,sans-Serif" font-size="10.00">libexif/exif&#45;data.h</text>
</a>
</g>
</g>
<!-- Node14&#45;&gt;Node18 -->
<g id="edge22" class="edge">
<title>Node14&#45;&gt;Node18</title>
<path fill="none" stroke="midnightblue" d="M510.83,-358.08C509.32,-350.93 508.89,-340.64 509.54,-331.69"/>
<polygon fill="midnightblue" stroke="midnightblue" points="513.02,-332.13 510.87,-321.75 506.08,-331.2 513.02,-332.13"/>
</g>
<!-- Node19 -->
<g id="node19" class="node">
<title>Node19</title>
<g id="a_node19"><a xlink:href="exif-log_8h.html" target="_top" xlink:title="Log message infrastructure.">
<polygon fill="white" stroke="black" points="571.5,-179.5 571.5,-198.5 666.5,-198.5 666.5,-179.5 571.5,-179.5"/>
<text text-anchor="middle" x="619" y="-186.5" font-family="Helvetica,sans-Serif" font-size="10.00">libexif/exif&#45;log.h</text>
</a>
</g>
</g>
<!-- Node14&#45;&gt;Node19 -->
<g id="edge35" class="edge">
<title>Node14&#45;&gt;Node19</title>
<path fill="none" stroke="midnightblue" d="M544.44,-358.46C582.16,-345.43 647.2,-316.59 675,-266 681.63,-253.93 680.95,-247.42 675,-235 668.75,-221.95 656.66,-211.49 645.32,-203.95"/>
<polygon fill="midnightblue" stroke="midnightblue" points="646.85,-200.79 636.5,-198.54 643.19,-206.75 646.85,-200.79"/>
</g>
<!-- Node14&#45;&gt;Node20 -->
<g id="edge36" class="edge">
<title>Node14&#45;&gt;Node20</title>
<path fill="none" stroke="midnightblue" d="M562.21,-358.43C589.33,-351.76 623.23,-340.44 649,-322 700.51,-285.14 708.15,-261.03 721,-199 724.25,-183.33 720.13,-165.5 715.69,-152.49"/>
<polygon fill="midnightblue" stroke="midnightblue" points="718.85,-150.95 712.04,-142.84 712.31,-153.43 718.85,-150.95"/>
</g>
<!-- Node16 -->
<g id="node16" class="node">
<title>Node16</title>
<g id="a_node16"><a xlink:href="exif-ifd_8h.html" target="_top" xlink:title=" ">
<polygon fill="white" stroke="black" points="421.5,-179.5 421.5,-198.5 514.5,-198.5 514.5,-179.5 421.5,-179.5"/>
<text text-anchor="middle" x="468" y="-186.5" font-family="Helvetica,sans-Serif" font-size="10.00">libexif/exif&#45;ifd.h</text>
</a>
</g>
</g>
<!-- Node15&#45;&gt;Node16 -->
<g id="edge19" class="edge">
<title>Node15&#45;&gt;Node16</title>
<path fill="none" stroke="midnightblue" d="M362.62,-240.98C383.17,-231.03 417.36,-214.49 441.21,-202.96"/>
<polygon fill="midnightblue" stroke="midnightblue" points="442.93,-206.01 450.41,-198.51 439.88,-199.71 442.93,-206.01"/>
</g>
<!-- Node17 -->
<g id="node17" class="node">
<title>Node17</title>
<g id="a_node17"><a xlink:href="exif-data-type_8h.html" target="_top" xlink:title=" ">
<polygon fill="white" stroke="black" points="275,-179.5 275,-198.5 403,-198.5 403,-179.5 275,-179.5"/>
<text text-anchor="middle" x="339" y="-186.5" font-family="Helvetica,sans-Serif" font-size="10.00">libexif/exif&#45;data&#45;type.h</text>
</a>
</g>
</g>
<!-- Node15&#45;&gt;Node17 -->
<g id="edge20" class="edge">
<title>Node15&#45;&gt;Node17</title>
<path fill="none" stroke="midnightblue" d="M344.14,-240.98C343.29,-232.58 341.97,-219.48 340.88,-208.66"/>
<polygon fill="midnightblue" stroke="midnightblue" points="344.34,-208.11 339.86,-198.51 337.38,-208.81 344.34,-208.11"/>
</g>
<!-- Node18&#45;&gt;Node5 -->
<g id="edge23" class="edge">
<title>Node18&#45;&gt;Node5</title>
<path fill="none" stroke="midnightblue" d="M516.81,-302.19C520.53,-261.63 536.03,-92.47 541.27,-35.4"/>
<polygon fill="midnightblue" stroke="midnightblue" points="544.77,-35.56 542.2,-25.28 537.8,-34.92 544.77,-35.56"/>
</g>
<!-- Node18&#45;&gt;Node14 -->
<g id="edge31" class="edge">
<title>Node18&#45;&gt;Node14</title>
<path fill="none" stroke="midnightblue" d="M521.13,-321.75C522.66,-328.86 523.1,-339.14 522.47,-348.1"/>
<polygon fill="midnightblue" stroke="midnightblue" points="518.99,-347.71 521.17,-358.08 525.93,-348.62 518.99,-347.71"/>
</g>
<!-- Node18&#45;&gt;Node15 -->
<g id="edge30" class="edge">
<title>Node18&#45;&gt;Node15</title>
<path fill="none" stroke="midnightblue" d="M491.5,-302.48C462.04,-292.22 412.42,-274.96 379.2,-263.4"/>
<polygon fill="midnightblue" stroke="midnightblue" points="380.05,-259.99 369.45,-260.01 377.75,-266.6 380.05,-259.99"/>
</g>
<!-- Node18&#45;&gt;Node16 -->
<g id="edge25" class="edge">
<title>Node18&#45;&gt;Node16</title>
<path fill="none" stroke="midnightblue" d="M507.9,-302.43C500.28,-293.87 489.15,-280.02 483,-266 474.91,-247.57 471.15,-224.71 469.42,-208.9"/>
<polygon fill="midnightblue" stroke="midnightblue" points="472.9,-208.44 468.5,-198.8 465.93,-209.08 472.9,-208.44"/>
</g>
<!-- Node18&#45;&gt;Node17 -->
<g id="edge24" class="edge">
<title>Node18&#45;&gt;Node17</title>
<path fill="none" stroke="midnightblue" d="M503.55,-302.49C473.67,-282.06 397.57,-230.04 360.27,-204.54"/>
<polygon fill="midnightblue" stroke="midnightblue" points="361.9,-201.42 351.67,-198.66 357.95,-207.19 361.9,-201.42"/>
</g>
<!-- Node18&#45;&gt;Node19 -->
<g id="edge26" class="edge">
<title>Node18&#45;&gt;Node19</title>
<path fill="none" stroke="midnightblue" d="M518.77,-302.2C523.85,-287.12 535.83,-255.95 554,-235 564.93,-222.4 580.12,-211.62 593.08,-203.78"/>
<polygon fill="midnightblue" stroke="midnightblue" points="595.12,-206.64 602.02,-198.6 591.61,-200.58 595.12,-206.64"/>
</g>
<!-- Node18&#45;&gt;Node20 -->
<g id="edge34" class="edge">
<title>Node18&#45;&gt;Node20</title>
<path fill="none" stroke="midnightblue" d="M567.13,-309.42C602.11,-305.59 647.04,-294.83 675,-266 704.92,-235.15 708.98,-181.48 708.82,-153.01"/>
<polygon fill="midnightblue" stroke="midnightblue" points="712.32,-152.71 708.58,-142.8 705.32,-152.88 712.32,-152.71"/>
</g>
<!-- Node22 -->
<g id="node22" class="node">
<title>Node22</title>
<g id="a_node22"><a xlink:href="exif-mnote-data_8h.html" target="_top" xlink:title="Handling EXIF MakerNote tags.">
<polygon fill="white" stroke="black" points="563.5,-235.5 563.5,-265.5 666.5,-265.5 666.5,-235.5 563.5,-235.5"/>
<text text-anchor="start" x="571.5" y="-253.5" font-family="Helvetica,sans-Serif" font-size="10.00">libexif/exif&#45;mnote</text>
<text text-anchor="middle" x="615" y="-242.5" font-family="Helvetica,sans-Serif" font-size="10.00">&#45;data.h</text>
</a>
</g>
</g>
<!-- Node18&#45;&gt;Node22 -->
<g id="edge32" class="edge">
<title>Node18&#45;&gt;Node22</title>
<path fill="none" stroke="midnightblue" d="M530.18,-302.48C543.84,-294.27 564.99,-281.56 582.75,-270.88"/>
<polygon fill="midnightblue" stroke="midnightblue" points="584.9,-273.67 591.67,-265.52 581.29,-267.67 584.9,-273.67"/>
</g>
<!-- Node19&#45;&gt;Node20 -->
<g id="edge27" class="edge">
<title>Node19&#45;&gt;Node20</title>
<path fill="none" stroke="midnightblue" d="M633.3,-179.32C647.18,-170.9 668.49,-157.97 684.8,-148.07"/>
<polygon fill="midnightblue" stroke="midnightblue" points="687,-150.83 693.74,-142.65 683.37,-144.85 687,-150.83"/>
</g>
<!-- Node21 -->
<g id="node21" class="node">
<title>Node21</title>
<g id="a_node21"><a xlink:title=" ">
<polygon fill="white" stroke="#bfbfbf" points="581,-123.5 581,-142.5 637,-142.5 637,-123.5 581,-123.5"/>
<text text-anchor="middle" x="609" y="-130.5" font-family="Helvetica,sans-Serif" font-size="10.00">stdarg.h</text>
</a>
</g>
</g>
<!-- Node19&#45;&gt;Node21 -->
<g id="edge29" class="edge">
<title>Node19&#45;&gt;Node21</title>
<path fill="none" stroke="midnightblue" d="M617.35,-179.08C616.02,-171.93 614.12,-161.64 612.46,-152.69"/>
<polygon fill="midnightblue" stroke="midnightblue" points="615.88,-151.95 610.62,-142.75 609,-153.22 615.88,-151.95"/>
</g>
<!-- Node20&#45;&gt;Node11 -->
<g id="edge28" class="edge">
<title>Node20&#45;&gt;Node11</title>
<path fill="none" stroke="midnightblue" d="M705.19,-123.08C702.92,-115.85 699.63,-105.41 696.79,-96.4"/>
<polygon fill="midnightblue" stroke="midnightblue" points="700.1,-95.24 693.75,-86.75 693.42,-97.34 700.1,-95.24"/>
</g>
<!-- Node22&#45;&gt;Node19 -->
<g id="edge33" class="edge">
<title>Node22&#45;&gt;Node19</title>
<path fill="none" stroke="midnightblue" d="M615.95,-235.4C616.48,-227.47 617.15,-217.46 617.73,-208.86"/>
<polygon fill="midnightblue" stroke="midnightblue" points="621.24,-208.87 618.42,-198.66 614.26,-208.4 621.24,-208.87"/>
</g>
</g>
</svg>
