<?xml version="1.0" encoding="UTF-8" standalone="no"?>
<!DOCTYPE svg PUBLIC "-//W3C//DTD SVG 1.1//EN"
 "http://www.w3.org/Graphics/SVG/1.1/DTD/svg11.dtd">
<!-- Generated by graphviz version 7.0.1 (0)
 -->
<!-- Title: libexif/canon/mnote&#45;canon&#45;entry.h Pages: 1 -->
<svg width="654pt" height="445pt"
 viewBox="0.00 0.00 654.00 445.00" xmlns="http://www.w3.org/2000/svg" xmlns:xlink="http://www.w3.org/1999/xlink">
<g id="graph0" class="graph" transform="scale(1 1) rotate(0) translate(4 441)">
<title>libexif/canon/mnote&#45;canon&#45;entry.h</title>
<!-- Node1 -->
<g id="Node000001" class="node">
<title>Node1</title>
<g id="a_Node000001"><a xlink:title=" ">
<polygon fill="#999999" stroke="#666666" points="406.5,-437 292.5,-437 292.5,-407 406.5,-407 406.5,-437"/>
<text text-anchor="start" x="300.5" y="-425" font-family="Helvetica,sans-Serif" font-size="10.00">libexif/canon/mnote</text>
<text text-anchor="middle" x="349.5" y="-414" font-family="Helvetica,sans-Serif" font-size="10.00">&#45;canon&#45;entry.h</text>
</a>
</g>
</g>
<!-- Node2 -->
<g id="Node000002" class="node">
<title>Node2</title>
<g id="a_Node000002"><a xlink:href="exif-format_8h.html" target="_top" xlink:title="Handling native EXIF data types.">
<polygon fill="white" stroke="#666666" points="113,-19 0,-19 0,0 113,0 113,-19"/>
<text text-anchor="middle" x="56.5" y="-7" font-family="Helvetica,sans-Serif" font-size="10.00">libexif/exif&#45;format.h</text>
</a>
</g>
</g>
<!-- Node1&#45;&gt;Node2 -->
<g id="edge1_Node000001_Node000002" class="edge">
<title>Node1&#45;&gt;Node2</title>
<g id="a_edge1_Node000001_Node000002"><a xlink:title=" ">
<path fill="none" stroke="#63b8ff" d="M292.26,-411.73C197.05,-394.68 16.5,-354.67 16.5,-296.5 16.5,-296.5 16.5,-296.5 16.5,-118.5 16.5,-85.45 33.18,-50.05 44.99,-29.12"/>
<polygon fill="#63b8ff" stroke="#63b8ff" points="47.93,-31.03 50,-20.64 41.9,-27.47 47.93,-31.03"/>
</a>
</g>
</g>
<!-- Node3 -->
<g id="Node000003" class="node">
<title>Node3</title>
<g id="a_Node000003"><a xlink:href="exif-byte-order_8h.html" target="_top" xlink:title="Defines the ExifByteOrder enum and the associated functions.">
<polygon fill="white" stroke="#666666" points="646,-19 515,-19 515,0 646,0 646,-19"/>
<text text-anchor="middle" x="580.5" y="-7" font-family="Helvetica,sans-Serif" font-size="10.00">libexif/exif&#45;byte&#45;order.h</text>
</a>
</g>
</g>
<!-- Node1&#45;&gt;Node3 -->
<g id="edge2_Node000001_Node000003" class="edge">
<title>Node1&#45;&gt;Node3</title>
<g id="a_edge2_Node000001_Node000003"><a xlink:title=" ">
<path fill="none" stroke="#63b8ff" d="M406.88,-419.06C485.88,-412.98 618.5,-389 618.5,-296.5 618.5,-296.5 618.5,-296.5 618.5,-118.5 618.5,-85.65 602.66,-50.19 591.43,-29.19"/>
<polygon fill="#63b8ff" stroke="#63b8ff" points="594.62,-27.72 586.68,-20.69 588.5,-31.13 594.62,-27.72"/>
</a>
</g>
</g>
<!-- Node4 -->
<g id="Node000004" class="node">
<title>Node4</title>
<g id="a_Node000004"><a xlink:href="mnote-canon-tag_8h.html" target="_top" xlink:title=" ">
<polygon fill="white" stroke="#666666" points="406.5,-371 292.5,-371 292.5,-341 406.5,-341 406.5,-371"/>
<text text-anchor="start" x="300.5" y="-359" font-family="Helvetica,sans-Serif" font-size="10.00">libexif/canon/mnote</text>
<text text-anchor="middle" x="349.5" y="-348" font-family="Helvetica,sans-Serif" font-size="10.00">&#45;canon&#45;tag.h</text>
</a>
</g>
</g>
<!-- Node1&#45;&gt;Node4 -->
<g id="edge3_Node000001_Node000004" class="edge">
<title>Node1&#45;&gt;Node4</title>
<g id="a_edge3_Node000001_Node000004"><a xlink:title=" ">
<path fill="none" stroke="#63b8ff" d="M349.5,-406.8C349.5,-399.67 349.5,-390.82 349.5,-382.56"/>
<polygon fill="#63b8ff" stroke="#63b8ff" points="353,-382.68 349.5,-372.68 346,-382.68 353,-382.68"/>
</a>
</g>
</g>
<!-- Node5 -->
<g id="Node000005" class="node">
<title>Node5</title>
<g id="a_Node000005"><a xlink:href="exif-data_8h.html" target="_top" xlink:title="Defines the ExifData type and the associated functions.">
<polygon fill="white" stroke="#666666" points="400.5,-305 298.5,-305 298.5,-286 400.5,-286 400.5,-305"/>
<text text-anchor="middle" x="349.5" y="-293" font-family="Helvetica,sans-Serif" font-size="10.00">libexif/exif&#45;data.h</text>
</a>
</g>
</g>
<!-- Node4&#45;&gt;Node5 -->
<g id="edge4_Node000004_Node000005" class="edge">
<title>Node4&#45;&gt;Node5</title>
<g id="a_edge4_Node000004_Node000005"><a xlink:title=" ">
<path fill="none" stroke="#63b8ff" d="M349.5,-340.54C349.5,-333.34 349.5,-324.53 349.5,-316.68"/>
<polygon fill="#63b8ff" stroke="#63b8ff" points="353,-316.69 349.5,-306.69 346,-316.69 353,-316.69"/>
</a>
</g>
</g>
<!-- Node5&#45;&gt;Node3 -->
<g id="edge5_Node000005_Node000003" class="edge">
<title>Node5&#45;&gt;Node3</title>
<g id="a_edge5_Node000005_Node000003"><a xlink:title=" ">
<path fill="none" stroke="#63b8ff" d="M400.77,-290.45C468.82,-281.97 580.5,-255.8 580.5,-175.5 580.5,-175.5 580.5,-175.5 580.5,-118.5 580.5,-87.92 580.5,-52.48 580.5,-30.77"/>
<polygon fill="#63b8ff" stroke="#63b8ff" points="584,-30.97 580.5,-20.97 577,-30.97 584,-30.97"/>
</a>
</g>
</g>
<!-- Node6 -->
<g id="Node000006" class="node">
<title>Node6</title>
<g id="a_Node000006"><a xlink:href="exif-data-type_8h.html" target="_top" xlink:title=" ">
<polygon fill="white" stroke="#666666" points="440.5,-129 312.5,-129 312.5,-110 440.5,-110 440.5,-129"/>
<text text-anchor="middle" x="376.5" y="-117" font-family="Helvetica,sans-Serif" font-size="10.00">libexif/exif&#45;data&#45;type.h</text>
</a>
</g>
</g>
<!-- Node5&#45;&gt;Node6 -->
<g id="edge6_Node000005_Node000006" class="edge">
<title>Node5&#45;&gt;Node6</title>
<g id="a_edge6_Node000005_Node000006"><a xlink:title=" ">
<path fill="none" stroke="#63b8ff" d="M350.88,-285.63C355.05,-258.75 367.62,-177.73 373.46,-140.1"/>
<polygon fill="#63b8ff" stroke="#63b8ff" points="376.85,-141.06 374.93,-130.64 369.93,-139.98 376.85,-141.06"/>
</a>
</g>
</g>
<!-- Node7 -->
<g id="Node000007" class="node">
<title>Node7</title>
<g id="a_Node000007"><a xlink:href="exif-ifd_8h.html" target="_top" xlink:title=" ">
<polygon fill="white" stroke="#666666" points="552,-129 459,-129 459,-110 552,-110 552,-129"/>
<text text-anchor="middle" x="505.5" y="-117" font-family="Helvetica,sans-Serif" font-size="10.00">libexif/exif&#45;ifd.h</text>
</a>
</g>
</g>
<!-- Node5&#45;&gt;Node7 -->
<g id="edge7_Node000005_Node000007" class="edge">
<title>Node5&#45;&gt;Node7</title>
<g id="a_edge7_Node000005_Node000007"><a xlink:title=" ">
<path fill="none" stroke="#63b8ff" d="M376.49,-285.56C414.82,-271.17 483.26,-238.81 509.5,-184 516.01,-170.41 514.44,-153.27 511.56,-140.23"/>
<polygon fill="#63b8ff" stroke="#63b8ff" points="514.98,-139.44 509.01,-130.69 508.21,-141.25 514.98,-139.44"/>
</a>
</g>
</g>
<!-- Node8 -->
<g id="Node000008" class="node">
<title>Node8</title>
<g id="a_Node000008"><a xlink:href="exif-log_8h.html" target="_top" xlink:title="Log message infrastructure.">
<polygon fill="white" stroke="#666666" points="338,-184 243,-184 243,-165 338,-165 338,-184"/>
<text text-anchor="middle" x="290.5" y="-172" font-family="Helvetica,sans-Serif" font-size="10.00">libexif/exif&#45;log.h</text>
</a>
</g>
</g>
<!-- Node5&#45;&gt;Node8 -->
<g id="edge8_Node000005_Node000008" class="edge">
<title>Node5&#45;&gt;Node8</title>
<g id="a_edge8_Node000005_Node000008"><a xlink:title=" ">
<path fill="none" stroke="#63b8ff" d="M348.47,-285.76C346.48,-271.34 341.24,-241.97 329.5,-220 324.08,-209.86 315.95,-200.09 308.51,-192.29"/>
<polygon fill="#63b8ff" stroke="#63b8ff" points="311.22,-190.05 301.66,-185.49 306.29,-195.02 311.22,-190.05"/>
</a>
</g>
</g>
<!-- Node9 -->
<g id="Node000009" class="node">
<title>Node9</title>
<g id="a_Node000009"><a xlink:href="exif-mem_8h.html" target="_top" xlink:title="Define the ExifMem data type and the associated functions.">
<polygon fill="white" stroke="#666666" points="220.5,-129 114.5,-129 114.5,-110 220.5,-110 220.5,-129"/>
<text text-anchor="middle" x="167.5" y="-117" font-family="Helvetica,sans-Serif" font-size="10.00">libexif/exif&#45;mem.h</text>
</a>
</g>
</g>
<!-- Node5&#45;&gt;Node9 -->
<g id="edge29_Node000005_Node000009" class="edge">
<title>Node5&#45;&gt;Node9</title>
<g id="a_edge29_Node000005_Node000009"><a xlink:title=" ">
<path fill="none" stroke="#63b8ff" d="M298.16,-293.85C226.42,-291.72 101.78,-283.21 73.5,-250 49.01,-221.24 53.29,-196.92 73.5,-165 82.93,-150.11 98.83,-140.1 114.91,-133.42"/>
<polygon fill="#63b8ff" stroke="#63b8ff" points="115.86,-136.8 124.01,-130.02 113.41,-130.24 115.86,-136.8"/>
</a>
</g>
</g>
<!-- Node13 -->
<g id="Node000013" class="node">
<title>Node13</title>
<g id="a_Node000013"><a xlink:href="exif-tag_8h.html" target="_top" xlink:title="Handling EXIF tags.">
<polygon fill="white" stroke="#666666" points="500.5,-184 404.5,-184 404.5,-165 500.5,-165 500.5,-184"/>
<text text-anchor="middle" x="452.5" y="-172" font-family="Helvetica,sans-Serif" font-size="10.00">libexif/exif&#45;tag.h</text>
</a>
</g>
</g>
<!-- Node5&#45;&gt;Node13 -->
<g id="edge15_Node000005_Node000013" class="edge">
<title>Node5&#45;&gt;Node13</title>
<g id="a_edge15_Node000005_Node000013"><a xlink:title=" ">
<path fill="none" stroke="#63b8ff" d="M361.44,-285.75C372.52,-277.3 389.12,-263.79 401.5,-250 417.33,-232.37 432.24,-209.6 441.8,-193.89"/>
<polygon fill="#63b8ff" stroke="#63b8ff" points="444.63,-195.98 446.74,-185.6 438.62,-192.4 444.63,-195.98"/>
</a>
</g>
</g>
<!-- Node14 -->
<g id="Node000014" class="node">
<title>Node14</title>
<g id="a_Node000014"><a xlink:href="exif-content_8h.html" target="_top" xlink:title="Handling EXIF IFDs.">
<polygon fill="white" stroke="#666666" points="200,-244.5 83,-244.5 83,-225.5 200,-225.5 200,-244.5"/>
<text text-anchor="middle" x="141.5" y="-232.5" font-family="Helvetica,sans-Serif" font-size="10.00">libexif/exif&#45;content.h</text>
</a>
</g>
</g>
<!-- Node5&#45;&gt;Node14 -->
<g id="edge18_Node000005_Node000014" class="edge">
<title>Node5&#45;&gt;Node14</title>
<g id="a_edge18_Node000005_Node000014"><a xlink:title=" ">
<path fill="none" stroke="#63b8ff" d="M312.9,-285.62C275.21,-275.61 216.98,-259.29 178.98,-248.12"/>
<polygon fill="#63b8ff" stroke="#63b8ff" points="180.39,-244.88 169.81,-245.4 178.41,-251.59 180.39,-244.88"/>
</a>
</g>
</g>
<!-- Node16 -->
<g id="Node000016" class="node">
<title>Node16</title>
<g id="a_Node000016"><a xlink:href="exif-mnote-data_8h.html" target="_top" xlink:title="Handling EXIF MakerNote tags.">
<polygon fill="white" stroke="#666666" points="321,-250 218,-250 218,-220 321,-220 321,-250"/>
<text text-anchor="start" x="226" y="-238" font-family="Helvetica,sans-Serif" font-size="10.00">libexif/exif&#45;mnote</text>
<text text-anchor="middle" x="269.5" y="-227" font-family="Helvetica,sans-Serif" font-size="10.00">&#45;data.h</text>
</a>
</g>
</g>
<!-- Node5&#45;&gt;Node16 -->
<g id="edge27_Node000005_Node000016" class="edge">
<title>Node5&#45;&gt;Node16</title>
<g id="a_edge27_Node000005_Node000016"><a xlink:title=" ">
<path fill="none" stroke="#63b8ff" d="M337.35,-285.62C326.98,-278.03 311.65,-266.82 298.19,-256.98"/>
<polygon fill="#63b8ff" stroke="#63b8ff" points="300.61,-254.41 290.47,-251.33 296.47,-260.06 300.61,-254.41"/>
</a>
</g>
</g>
<!-- Node8&#45;&gt;Node9 -->
<g id="edge9_Node000008_Node000009" class="edge">
<title>Node8&#45;&gt;Node9</title>
<g id="a_edge9_Node000008_Node000009"><a xlink:title=" ">
<path fill="none" stroke="#63b8ff" d="M269.63,-164.51C250.08,-156.08 220.6,-143.38 198.33,-133.79"/>
<polygon fill="#63b8ff" stroke="#63b8ff" points="200.02,-130.7 189.45,-129.96 197.25,-137.13 200.02,-130.7"/>
</a>
</g>
</g>
<!-- Node12 -->
<g id="Node000012" class="node">
<title>Node12</title>
<g id="a_Node000012"><a xlink:title=" ">
<polygon fill="#e0e0e0" stroke="#999999" points="294.5,-129 238.5,-129 238.5,-110 294.5,-110 294.5,-129"/>
<text text-anchor="middle" x="266.5" y="-117" font-family="Helvetica,sans-Serif" font-size="10.00">stdarg.h</text>
</a>
</g>
</g>
<!-- Node8&#45;&gt;Node12 -->
<g id="edge14_Node000008_Node000012" class="edge">
<title>Node8&#45;&gt;Node12</title>
<g id="a_edge14_Node000008_Node000012"><a xlink:title=" ">
<path fill="none" stroke="#63b8ff" d="M286.54,-164.75C283.46,-157.96 279.09,-148.3 275.21,-139.73"/>
<polygon fill="#63b8ff" stroke="#63b8ff" points="278.49,-138.49 271.17,-130.82 272.11,-141.37 278.49,-138.49"/>
</a>
</g>
</g>
<!-- Node10 -->
<g id="Node000010" class="node">
<title>Node10</title>
<g id="a_Node000010"><a xlink:href="exif-utils_8h.html" target="_top" xlink:title="EXIF data manipulation functions and types.">
<polygon fill="white" stroke="#666666" points="223,-74 122,-74 122,-55 223,-55 223,-74"/>
<text text-anchor="middle" x="172.5" y="-62" font-family="Helvetica,sans-Serif" font-size="10.00">libexif/exif&#45;utils.h</text>
</a>
</g>
</g>
<!-- Node9&#45;&gt;Node10 -->
<g id="edge10_Node000009_Node000010" class="edge">
<title>Node9&#45;&gt;Node10</title>
<g id="a_edge10_Node000009_Node000010"><a xlink:title=" ">
<path fill="none" stroke="#63b8ff" d="M168.33,-109.75C168.94,-103.27 169.8,-94.16 170.58,-85.9"/>
<polygon fill="#63b8ff" stroke="#63b8ff" points="174.06,-86.23 171.51,-75.95 167.09,-85.58 174.06,-86.23"/>
</a>
</g>
</g>
<!-- Node10&#45;&gt;Node2 -->
<g id="edge12_Node000010_Node000002" class="edge">
<title>Node10&#45;&gt;Node2</title>
<g id="a_edge12_Node000010_Node000002"><a xlink:title=" ">
<path fill="none" stroke="#63b8ff" d="M152.82,-54.51C134.55,-46.16 107.09,-33.61 86.15,-24.05"/>
<polygon fill="#63b8ff" stroke="#63b8ff" points="87.81,-20.96 77.26,-19.99 84.9,-27.33 87.81,-20.96"/>
</a>
</g>
</g>
<!-- Node10&#45;&gt;Node3 -->
<g id="edge11_Node000010_Node000003" class="edge">
<title>Node10&#45;&gt;Node3</title>
<g id="a_edge11_Node000010_Node000003"><a xlink:title=" ">
<path fill="none" stroke="#63b8ff" d="M223.35,-56.89C293.74,-47.75 421.45,-31.16 503.55,-20.5"/>
<polygon fill="#63b8ff" stroke="#63b8ff" points="503.85,-23.99 513.32,-19.23 502.95,-17.04 503.85,-23.99"/>
</a>
</g>
</g>
<!-- Node11 -->
<g id="Node000011" class="node">
<title>Node11</title>
<g id="a_Node000011"><a xlink:title=" ">
<polygon fill="#e0e0e0" stroke="#999999" points="223.5,-19 131.5,-19 131.5,0 223.5,0 223.5,-19"/>
<text text-anchor="middle" x="177.5" y="-7" font-family="Helvetica,sans-Serif" font-size="10.00">libexif/_stdint.h</text>
</a>
</g>
</g>
<!-- Node10&#45;&gt;Node11 -->
<g id="edge13_Node000010_Node000011" class="edge">
<title>Node10&#45;&gt;Node11</title>
<g id="a_edge13_Node000010_Node000011"><a xlink:title=" ">
<path fill="none" stroke="#63b8ff" d="M173.33,-54.75C173.94,-48.27 174.8,-39.16 175.58,-30.9"/>
<polygon fill="#63b8ff" stroke="#63b8ff" points="179.06,-31.23 176.51,-20.95 172.09,-30.58 179.06,-31.23"/>
</a>
</g>
</g>
<!-- Node13&#45;&gt;Node6 -->
<g id="edge17_Node000013_Node000006" class="edge">
<title>Node13&#45;&gt;Node6</title>
<g id="a_edge17_Node000013_Node000006"><a xlink:title=" ">
<path fill="none" stroke="#63b8ff" d="M439.61,-164.51C428.4,-156.7 411.93,-145.21 398.62,-135.93"/>
<polygon fill="#63b8ff" stroke="#63b8ff" points="400.65,-133.07 390.44,-130.22 396.64,-138.81 400.65,-133.07"/>
</a>
</g>
</g>
<!-- Node13&#45;&gt;Node7 -->
<g id="edge16_Node000013_Node000007" class="edge">
<title>Node13&#45;&gt;Node7</title>
<g id="a_edge16_Node000013_Node000007"><a xlink:title=" ">
<path fill="none" stroke="#63b8ff" d="M461.25,-164.75C468.65,-157.35 479.46,-146.54 488.55,-137.45"/>
<polygon fill="#63b8ff" stroke="#63b8ff" points="490.89,-140.06 495.49,-130.51 485.94,-135.11 490.89,-140.06"/>
</a>
</g>
</g>
<!-- Node14&#45;&gt;Node5 -->
<g id="edge24_Node000014_Node000005" class="edge">
<title>Node14&#45;&gt;Node5</title>
<g id="a_edge24_Node000014_Node000005"><a xlink:title=" ">
<path fill="none" stroke="#63b8ff" d="M178.41,-244.97C216.22,-255.01 274.44,-271.34 312.33,-282.48"/>
<polygon fill="#63b8ff" stroke="#63b8ff" points="310.89,-285.7 321.47,-285.19 312.87,-278.99 310.89,-285.7"/>
</a>
</g>
</g>
<!-- Node14&#45;&gt;Node8 -->
<g id="edge25_Node000014_Node000008" class="edge">
<title>Node14&#45;&gt;Node8</title>
<g id="a_edge25_Node000014_Node000008"><a xlink:title=" ">
<path fill="none" stroke="#63b8ff" d="M164.13,-225.12C188.85,-215.41 228.71,-199.76 257.04,-188.64"/>
<polygon fill="#63b8ff" stroke="#63b8ff" points="258.22,-191.93 266.25,-185.02 255.66,-185.42 258.22,-191.93"/>
</a>
</g>
</g>
<!-- Node14&#45;&gt;Node9 -->
<g id="edge26_Node000014_Node000009" class="edge">
<title>Node14&#45;&gt;Node9</title>
<g id="a_edge26_Node000014_Node000009"><a xlink:title=" ">
<path fill="none" stroke="#63b8ff" d="M156.63,-225.1C169.68,-216.46 187.62,-202.03 195.5,-184 202.34,-168.34 193.01,-150.54 183.32,-137.78"/>
<polygon fill="#63b8ff" stroke="#63b8ff" points="186.16,-135.72 177.07,-130.28 180.79,-140.21 186.16,-135.72"/>
</a>
</g>
</g>
<!-- Node14&#45;&gt;Node13 -->
<g id="edge19_Node000014_Node000013" class="edge">
<title>Node14&#45;&gt;Node13</title>
<g id="a_edge19_Node000014_Node000013"><a xlink:title=" ">
<path fill="none" stroke="#63b8ff" d="M183.64,-225.02C191.88,-223.32 200.45,-221.57 208.5,-220 271.42,-207.69 343.7,-194.65 393.16,-185.89"/>
<polygon fill="#63b8ff" stroke="#63b8ff" points="393.55,-189.37 402.79,-184.18 392.34,-182.48 393.55,-189.37"/>
</a>
</g>
</g>
<!-- Node15 -->
<g id="Node000015" class="node">
<title>Node15</title>
<g id="a_Node000015"><a xlink:href="exif-entry_8h.html" target="_top" xlink:title="Handling EXIF entries.">
<polygon fill="white" stroke="#666666" points="186.5,-184 82.5,-184 82.5,-165 186.5,-165 186.5,-184"/>
<text text-anchor="middle" x="134.5" y="-172" font-family="Helvetica,sans-Serif" font-size="10.00">libexif/exif&#45;entry.h</text>
</a>
</g>
</g>
<!-- Node14&#45;&gt;Node15 -->
<g id="edge20_Node000014_Node000015" class="edge">
<title>Node14&#45;&gt;Node15</title>
<g id="a_edge20_Node000014_Node000015"><a xlink:title=" ">
<path fill="none" stroke="#63b8ff" d="M135.51,-225.37C132.87,-217.5 130.95,-205.6 130.45,-195.39"/>
<polygon fill="#63b8ff" stroke="#63b8ff" points="133.94,-195.72 130.56,-185.68 126.94,-195.64 133.94,-195.72"/>
</a>
</g>
</g>
<!-- Node15&#45;&gt;Node2 -->
<g id="edge22_Node000015_Node000002" class="edge">
<title>Node15&#45;&gt;Node2</title>
<g id="a_edge22_Node000015_Node000002"><a xlink:title=" ">
<path fill="none" stroke="#63b8ff" d="M127.99,-164.6C121.75,-155.82 112.29,-141.89 105.5,-129 87.83,-95.45 71.98,-54.09 63.35,-30.17"/>
<polygon fill="#63b8ff" stroke="#63b8ff" points="66.68,-29.06 60.04,-20.8 60.08,-31.4 66.68,-29.06"/>
</a>
</g>
</g>
<!-- Node15&#45;&gt;Node9 -->
<g id="edge23_Node000015_Node000009" class="edge">
<title>Node15&#45;&gt;Node9</title>
<g id="a_edge23_Node000015_Node000009"><a xlink:title=" ">
<path fill="none" stroke="#63b8ff" d="M139.95,-164.75C144.27,-157.81 150.46,-147.86 155.88,-139.16"/>
<polygon fill="#63b8ff" stroke="#63b8ff" points="158.82,-141.07 161.13,-130.73 152.88,-137.37 158.82,-141.07"/>
</a>
</g>
</g>
<!-- Node15&#45;&gt;Node14 -->
<g id="edge21_Node000015_Node000014" class="edge">
<title>Node15&#45;&gt;Node14</title>
<g id="a_edge21_Node000015_Node000014"><a xlink:title=" ">
<path fill="none" stroke="#63b8ff" d="M140.5,-184.17C143.14,-192.04 145.05,-203.95 145.56,-214.16"/>
<polygon fill="#63b8ff" stroke="#63b8ff" points="142.06,-213.81 145.44,-223.85 149.06,-213.9 142.06,-213.81"/>
</a>
</g>
</g>
<!-- Node16&#45;&gt;Node8 -->
<g id="edge28_Node000016_Node000008" class="edge">
<title>Node16&#45;&gt;Node8</title>
<g id="a_edge28_Node000016_Node000008"><a xlink:title=" ">
<path fill="none" stroke="#63b8ff" d="M274.69,-219.54C277.37,-212.08 280.67,-202.89 283.56,-194.83"/>
<polygon fill="#63b8ff" stroke="#63b8ff" points="286.79,-196.19 286.87,-185.6 280.2,-193.83 286.79,-196.19"/>
</a>
</g>
</g>
</g>
</svg>
