<?xml version="1.0" encoding="UTF-8" standalone="no"?>
<!DOCTYPE svg PUBLIC "-//W3C//DTD SVG 1.1//EN"
 "http://www.w3.org/Graphics/SVG/1.1/DTD/svg11.dtd">
<!-- Generated by graphviz version 7.0.1 (0)
 -->
<!-- Title: libexif/apple/mnote&#45;apple&#45;entry.c Pages: 1 -->
<svg width="900pt" height="500pt"
 viewBox="0.00 0.00 899.50 500.00" xmlns="http://www.w3.org/2000/svg" xmlns:xlink="http://www.w3.org/1999/xlink">
<g id="graph0" class="graph" transform="scale(1 1) rotate(0) translate(4 496)">
<title>libexif/apple/mnote&#45;apple&#45;entry.c</title>
<!-- Node1 -->
<g id="Node000001" class="node">
<title>Node1</title>
<g id="a_Node000001"><a xlink:title=" ">
<polygon fill="#999999" stroke="#666666" points="535,-492 423,-492 423,-462 535,-462 535,-492"/>
<text text-anchor="start" x="431" y="-480" font-family="Helvetica,sans-Serif" font-size="10.00">libexif/apple/mnote</text>
<text text-anchor="middle" x="479" y="-469" font-family="Helvetica,sans-Serif" font-size="10.00">&#45;apple&#45;entry.c</text>
</a>
</g>
</g>
<!-- Node2 -->
<g id="Node000002" class="node">
<title>Node2</title>
<g id="a_Node000002"><a xlink:title=" ">
<polygon fill="#e0e0e0" stroke="#999999" points="56,-371 0,-371 0,-352 56,-352 56,-371"/>
<text text-anchor="middle" x="28" y="-359" font-family="Helvetica,sans-Serif" font-size="10.00">config.h</text>
</a>
</g>
</g>
<!-- Node1&#45;&gt;Node2 -->
<g id="edge1_Node000001_Node000002" class="edge">
<title>Node1&#45;&gt;Node2</title>
<g id="a_edge1_Node000001_Node000002"><a xlink:title=" ">
<path fill="none" stroke="#63b8ff" d="M422.67,-474.09C304.63,-469.52 39.95,-456 13,-426 1.9,-413.64 8.44,-394.61 16.05,-380.6"/>
<polygon fill="#63b8ff" stroke="#63b8ff" points="18.85,-382.73 21.02,-372.36 12.86,-379.11 18.85,-382.73"/>
</a>
</g>
</g>
<!-- Node3 -->
<g id="Node000003" class="node">
<title>Node3</title>
<g id="a_Node000003"><a xlink:href="mnote-apple-entry_8h.html" target="_top" xlink:title=" ">
<polygon fill="white" stroke="#666666" points="140,-85 24,-85 24,-66 140,-66 140,-85"/>
<text text-anchor="middle" x="82" y="-73" font-family="Helvetica,sans-Serif" font-size="10.00">mnote&#45;apple&#45;entry.h</text>
</a>
</g>
</g>
<!-- Node1&#45;&gt;Node3 -->
<g id="edge2_Node000001_Node000003" class="edge">
<title>Node1&#45;&gt;Node3</title>
<g id="a_edge2_Node000001_Node000003"><a xlink:title=" ">
<path fill="none" stroke="#63b8ff" d="M422.67,-474.05C340.79,-470.12 194.25,-458.62 154,-426 130.56,-407 130,-392.67 130,-362.5 130,-362.5 130,-362.5 130,-184.5 130,-150.45 109.83,-115.16 95.64,-94.54"/>
<polygon fill="#63b8ff" stroke="#63b8ff" points="98.65,-92.74 89.97,-86.66 92.96,-96.82 98.65,-92.74"/>
</a>
</g>
</g>
<!-- Node5 -->
<g id="Node000005" class="node">
<title>Node5</title>
<g id="a_Node000005"><a xlink:href="exif-format_8h.html" target="_top" xlink:title="Handling native EXIF data types.">
<polygon fill="white" stroke="#666666" points="262.5,-24.5 149.5,-24.5 149.5,-5.5 262.5,-5.5 262.5,-24.5"/>
<text text-anchor="middle" x="206" y="-12.5" font-family="Helvetica,sans-Serif" font-size="10.00">libexif/exif&#45;format.h</text>
</a>
</g>
</g>
<!-- Node1&#45;&gt;Node5 -->
<g id="edge35_Node000001_Node000005" class="edge">
<title>Node1&#45;&gt;Node5</title>
<g id="a_edge35_Node000001_Node000005"><a xlink:title=" ">
<path fill="none" stroke="#63b8ff" d="M422.68,-467.3C333.06,-451.84 168,-416.1 168,-362.5 168,-362.5 168,-362.5 168,-129.5 168,-94.64 184.32,-56.73 195.57,-34.73"/>
<polygon fill="#63b8ff" stroke="#63b8ff" points="198.54,-36.59 200.16,-26.12 192.37,-33.3 198.54,-36.59"/>
</a>
</g>
</g>
<!-- Node7 -->
<g id="Node000007" class="node">
<title>Node7</title>
<g id="a_Node000007"><a xlink:title=" ">
<polygon fill="#e0e0e0" stroke="#999999" points="749,-426 699,-426 699,-407 749,-407 749,-426"/>
<text text-anchor="middle" x="724" y="-414" font-family="Helvetica,sans-Serif" font-size="10.00">stdio.h</text>
</a>
</g>
</g>
<!-- Node1&#45;&gt;Node7 -->
<g id="edge6_Node000001_Node000007" class="edge">
<title>Node1&#45;&gt;Node7</title>
<g id="a_edge6_Node000001_Node000007"><a xlink:title=" ">
<path fill="none" stroke="#63b8ff" d="M535.21,-462.58C582.01,-451.4 647.29,-435.82 687.54,-426.21"/>
<polygon fill="#63b8ff" stroke="#63b8ff" points="688.3,-429.62 697.21,-423.9 686.67,-422.81 688.3,-429.62"/>
</a>
</g>
</g>
<!-- Node8 -->
<g id="Node000008" class="node">
<title>Node8</title>
<g id="a_Node000008"><a xlink:title=" ">
<polygon fill="#e0e0e0" stroke="#999999" points="820.5,-426 767.5,-426 767.5,-407 820.5,-407 820.5,-426"/>
<text text-anchor="middle" x="794" y="-414" font-family="Helvetica,sans-Serif" font-size="10.00">stdlib.h</text>
</a>
</g>
</g>
<!-- Node1&#45;&gt;Node8 -->
<g id="edge7_Node000001_Node000008" class="edge">
<title>Node1&#45;&gt;Node8</title>
<g id="a_edge7_Node000001_Node000008"><a xlink:title=" ">
<path fill="none" stroke="#63b8ff" d="M535.28,-466.84C589.33,-457.84 673.53,-443.27 756.18,-426.28"/>
<polygon fill="#63b8ff" stroke="#63b8ff" points="756.73,-429.74 765.82,-424.28 755.32,-422.88 756.73,-429.74"/>
</a>
</g>
</g>
<!-- Node9 -->
<g id="Node000009" class="node">
<title>Node9</title>
<g id="a_Node000009"><a xlink:title=" ">
<polygon fill="#e0e0e0" stroke="#999999" points="891.5,-426 838.5,-426 838.5,-407 891.5,-407 891.5,-426"/>
<text text-anchor="middle" x="865" y="-414" font-family="Helvetica,sans-Serif" font-size="10.00">string.h</text>
</a>
</g>
</g>
<!-- Node1&#45;&gt;Node9 -->
<g id="edge8_Node000001_Node000009" class="edge">
<title>Node1&#45;&gt;Node9</title>
<g id="a_edge8_Node000001_Node000009"><a xlink:title=" ">
<path fill="none" stroke="#63b8ff" d="M535.21,-469.69C602.44,-461.77 718.6,-446.9 827.15,-426.4"/>
<polygon fill="#63b8ff" stroke="#63b8ff" points="827.65,-429.86 836.82,-424.55 826.34,-422.99 827.65,-429.86"/>
</a>
</g>
</g>
<!-- Node10 -->
<g id="Node000010" class="node">
<title>Node10</title>
<g id="a_Node000010"><a xlink:href="exif-entry_8h.html" target="_top" xlink:title="Handling EXIF entries.">
<polygon fill="white" stroke="#666666" points="531,-426 427,-426 427,-407 531,-407 531,-426"/>
<text text-anchor="middle" x="479" y="-414" font-family="Helvetica,sans-Serif" font-size="10.00">libexif/exif&#45;entry.h</text>
</a>
</g>
</g>
<!-- Node1&#45;&gt;Node10 -->
<g id="edge9_Node000001_Node000010" class="edge">
<title>Node1&#45;&gt;Node10</title>
<g id="a_edge9_Node000001_Node000010"><a xlink:title=" ">
<path fill="none" stroke="#63b8ff" d="M479,-461.54C479,-454.34 479,-445.53 479,-437.68"/>
<polygon fill="#63b8ff" stroke="#63b8ff" points="482.5,-437.69 479,-427.69 475.5,-437.69 482.5,-437.69"/>
</a>
</g>
</g>
<!-- Node18 -->
<g id="Node000018" class="node">
<title>Node18</title>
<g id="a_Node000018"><a xlink:href="exif-utils_8h.html" target="_top" xlink:title="EXIF data manipulation functions and types.">
<polygon fill="white" stroke="#666666" points="637.5,-85 536.5,-85 536.5,-66 637.5,-66 637.5,-85"/>
<text text-anchor="middle" x="587" y="-73" font-family="Helvetica,sans-Serif" font-size="10.00">libexif/exif&#45;utils.h</text>
</a>
</g>
</g>
<!-- Node1&#45;&gt;Node18 -->
<g id="edge36_Node000001_Node000018" class="edge">
<title>Node1&#45;&gt;Node18</title>
<g id="a_edge36_Node000001_Node000018"><a xlink:title=" ">
<path fill="none" stroke="#63b8ff" d="M523.68,-461.57C608.39,-432.86 784,-366.26 784,-307.5 784,-307.5 784,-307.5 784,-184.5 784,-122.06 706.97,-95.48 649.25,-84.33"/>
<polygon fill="#63b8ff" stroke="#63b8ff" points="649.94,-80.9 639.48,-82.57 648.7,-87.79 649.94,-80.9"/>
</a>
</g>
</g>
<!-- Node22 -->
<g id="Node000022" class="node">
<title>Node22</title>
<g id="a_Node000022"><a xlink:href="i18n_8h.html" target="_top" xlink:title=" ">
<polygon fill="white" stroke="#666666" points="102,-426 22,-426 22,-407 102,-407 102,-426"/>
<text text-anchor="middle" x="62" y="-414" font-family="Helvetica,sans-Serif" font-size="10.00">libexif/i18n.h</text>
</a>
</g>
</g>
<!-- Node1&#45;&gt;Node22 -->
<g id="edge37_Node000001_Node000022" class="edge">
<title>Node1&#45;&gt;Node22</title>
<g id="a_edge37_Node000001_Node000022"><a xlink:title=" ">
<path fill="none" stroke="#63b8ff" d="M422.67,-468.58C351.27,-459.1 224.4,-442 116,-426 115.17,-425.88 114.34,-425.75 113.5,-425.63"/>
<polygon fill="#63b8ff" stroke="#63b8ff" points="114.29,-422.21 103.88,-424.17 113.24,-429.13 114.29,-422.21"/>
</a>
</g>
</g>
<!-- Node4 -->
<g id="Node000004" class="node">
<title>Node4</title>
<g id="a_Node000004"><a xlink:href="exif-byte-order_8h.html" target="_top" xlink:title="Defines the ExifByteOrder enum and the associated functions.">
<polygon fill="white" stroke="#666666" points="439.5,-24.5 308.5,-24.5 308.5,-5.5 439.5,-5.5 439.5,-24.5"/>
<text text-anchor="middle" x="374" y="-12.5" font-family="Helvetica,sans-Serif" font-size="10.00">libexif/exif&#45;byte&#45;order.h</text>
</a>
</g>
</g>
<!-- Node3&#45;&gt;Node4 -->
<g id="edge3_Node000003_Node000004" class="edge">
<title>Node3&#45;&gt;Node4</title>
<g id="a_edge3_Node000003_Node000004"><a xlink:title=" ">
<path fill="none" stroke="#63b8ff" d="M126.67,-65.55C178.08,-55.25 262.58,-38.32 318.26,-27.17"/>
<polygon fill="#63b8ff" stroke="#63b8ff" points="318.74,-30.64 327.85,-25.24 317.36,-23.78 318.74,-30.64"/>
</a>
</g>
</g>
<!-- Node3&#45;&gt;Node5 -->
<g id="edge4_Node000003_Node000005" class="edge">
<title>Node3&#45;&gt;Node5</title>
<g id="a_edge4_Node000003_Node000005"><a xlink:title=" ">
<path fill="none" stroke="#63b8ff" d="M100.83,-65.62C120.95,-56.12 153.11,-40.95 176.58,-29.88"/>
<polygon fill="#63b8ff" stroke="#63b8ff" points="178.07,-33.05 185.62,-25.61 175.08,-26.72 178.07,-33.05"/>
</a>
</g>
</g>
<!-- Node6 -->
<g id="Node000006" class="node">
<title>Node6</title>
<g id="a_Node000006"><a xlink:href="mnote-apple-tag_8h.html" target="_top" xlink:title=" ">
<polygon fill="white" stroke="#666666" points="131,-30 19,-30 19,0 131,0 131,-30"/>
<text text-anchor="start" x="27" y="-18" font-family="Helvetica,sans-Serif" font-size="10.00">libexif/apple/mnote</text>
<text text-anchor="middle" x="75" y="-7" font-family="Helvetica,sans-Serif" font-size="10.00">&#45;apple&#45;tag.h</text>
</a>
</g>
</g>
<!-- Node3&#45;&gt;Node6 -->
<g id="edge5_Node000003_Node000006" class="edge">
<title>Node3&#45;&gt;Node6</title>
<g id="a_edge5_Node000003_Node000006"><a xlink:title=" ">
<path fill="none" stroke="#63b8ff" d="M80.97,-65.87C80.19,-59.4 79.09,-50.2 78.05,-41.45"/>
<polygon fill="#63b8ff" stroke="#63b8ff" points="81.53,-41.13 76.87,-31.62 74.58,-41.96 81.53,-41.13"/>
</a>
</g>
</g>
<!-- Node10&#45;&gt;Node5 -->
<g id="edge33_Node000010_Node000005" class="edge">
<title>Node10&#45;&gt;Node5</title>
<g id="a_edge33_Node000010_Node000005"><a xlink:title=" ">
<path fill="none" stroke="#63b8ff" d="M429.88,-406.51C351.28,-390.72 206,-355.09 206,-307.5 206,-307.5 206,-307.5 206,-129.5 206,-96.89 206,-59 206,-36.29"/>
<polygon fill="#63b8ff" stroke="#63b8ff" points="209.5,-36.34 206,-26.34 202.5,-36.34 209.5,-36.34"/>
</a>
</g>
</g>
<!-- Node11 -->
<g id="Node000011" class="node">
<title>Node11</title>
<g id="a_Node000011"><a xlink:href="exif-content_8h.html" target="_top" xlink:title="Handling EXIF IFDs.">
<polygon fill="white" stroke="#666666" points="537.5,-371 420.5,-371 420.5,-352 537.5,-352 537.5,-371"/>
<text text-anchor="middle" x="479" y="-359" font-family="Helvetica,sans-Serif" font-size="10.00">libexif/exif&#45;content.h</text>
</a>
</g>
</g>
<!-- Node10&#45;&gt;Node11 -->
<g id="edge10_Node000010_Node000011" class="edge">
<title>Node10&#45;&gt;Node11</title>
<g id="a_edge10_Node000010_Node000011"><a xlink:title=" ">
<path fill="none" stroke="#63b8ff" d="M473.83,-406.75C472.42,-400.19 471.96,-390.95 472.43,-382.6"/>
<polygon fill="#63b8ff" stroke="#63b8ff" points="475.87,-383.3 473.61,-372.94 468.92,-382.45 475.87,-383.3"/>
</a>
</g>
</g>
<!-- Node17 -->
<g id="Node000017" class="node">
<title>Node17</title>
<g id="a_Node000017"><a xlink:href="exif-mem_8h.html" target="_top" xlink:title="Define the ExifMem data type and the associated functions.">
<polygon fill="white" stroke="#666666" points="723,-140 617,-140 617,-121 723,-121 723,-140"/>
<text text-anchor="middle" x="670" y="-128" font-family="Helvetica,sans-Serif" font-size="10.00">libexif/exif&#45;mem.h</text>
</a>
</g>
</g>
<!-- Node10&#45;&gt;Node17 -->
<g id="edge34_Node000010_Node000017" class="edge">
<title>Node10&#45;&gt;Node17</title>
<g id="a_edge34_Node000010_Node000017"><a xlink:title=" ">
<path fill="none" stroke="#63b8ff" d="M526.12,-406.51C602.77,-390.52 746,-354.38 746,-307.5 746,-307.5 746,-307.5 746,-245 746,-204.77 712.63,-168.02 690.12,-147.8"/>
<polygon fill="#63b8ff" stroke="#63b8ff" points="692.55,-145.28 682.69,-141.41 687.98,-150.59 692.55,-145.28"/>
</a>
</g>
</g>
<!-- Node11&#45;&gt;Node10 -->
<g id="edge14_Node000011_Node000010" class="edge">
<title>Node11&#45;&gt;Node10</title>
<g id="a_edge14_Node000011_Node000010"><a xlink:title=" ">
<path fill="none" stroke="#63b8ff" d="M484.21,-371.44C485.58,-377.97 486.04,-387.1 485.57,-395.35"/>
<polygon fill="#63b8ff" stroke="#63b8ff" points="482.1,-394.89 484.35,-405.25 489.05,-395.75 482.1,-394.89"/>
</a>
</g>
</g>
<!-- Node12 -->
<g id="Node000012" class="node">
<title>Node12</title>
<g id="a_Node000012"><a xlink:href="exif-tag_8h.html" target="_top" xlink:title="Handling EXIF tags.">
<polygon fill="white" stroke="#666666" points="604,-255.5 508,-255.5 508,-236.5 604,-236.5 604,-255.5"/>
<text text-anchor="middle" x="556" y="-243.5" font-family="Helvetica,sans-Serif" font-size="10.00">libexif/exif&#45;tag.h</text>
</a>
</g>
</g>
<!-- Node11&#45;&gt;Node12 -->
<g id="edge11_Node000011_Node000012" class="edge">
<title>Node11&#45;&gt;Node12</title>
<g id="a_edge11_Node000011_Node000012"><a xlink:title=" ">
<path fill="none" stroke="#63b8ff" d="M496.9,-351.64C510.47,-344.02 528.51,-331.76 539,-316 548.73,-301.38 552.89,-281.69 554.67,-267.09"/>
<polygon fill="#63b8ff" stroke="#63b8ff" points="558.14,-267.6 555.57,-257.33 551.17,-266.97 558.14,-267.6"/>
</a>
</g>
</g>
<!-- Node15 -->
<g id="Node000015" class="node">
<title>Node15</title>
<g id="a_Node000015"><a xlink:href="exif-data_8h.html" target="_top" xlink:title="Defines the ExifData type and the associated functions.">
<polygon fill="white" stroke="#666666" points="530,-316 428,-316 428,-297 530,-297 530,-316"/>
<text text-anchor="middle" x="479" y="-304" font-family="Helvetica,sans-Serif" font-size="10.00">libexif/exif&#45;data.h</text>
</a>
</g>
</g>
<!-- Node11&#45;&gt;Node15 -->
<g id="edge15_Node000011_Node000015" class="edge">
<title>Node11&#45;&gt;Node15</title>
<g id="a_edge15_Node000011_Node000015"><a xlink:title=" ">
<path fill="none" stroke="#63b8ff" d="M473.83,-351.75C472.42,-345.19 471.96,-335.95 472.43,-327.6"/>
<polygon fill="#63b8ff" stroke="#63b8ff" points="475.87,-328.3 473.61,-317.94 468.92,-327.45 475.87,-328.3"/>
</a>
</g>
</g>
<!-- Node16 -->
<g id="Node000016" class="node">
<title>Node16</title>
<g id="a_Node000016"><a xlink:href="exif-log_8h.html" target="_top" xlink:title="Log message infrastructure.">
<polygon fill="white" stroke="#666666" points="337.5,-195 242.5,-195 242.5,-176 337.5,-176 337.5,-195"/>
<text text-anchor="middle" x="290" y="-183" font-family="Helvetica,sans-Serif" font-size="10.00">libexif/exif&#45;log.h</text>
</a>
</g>
</g>
<!-- Node11&#45;&gt;Node16 -->
<g id="edge31_Node000011_Node000016" class="edge">
<title>Node11&#45;&gt;Node16</title>
<g id="a_edge31_Node000011_Node000016"><a xlink:title=" ">
<path fill="none" stroke="#63b8ff" d="M433.96,-351.6C387.45,-339.75 317.27,-313.81 285,-261 274.87,-244.43 278.31,-221.74 282.91,-205.77"/>
<polygon fill="#63b8ff" stroke="#63b8ff" points="286.15,-207.11 285.96,-196.51 279.5,-204.91 286.15,-207.11"/>
</a>
</g>
</g>
<!-- Node11&#45;&gt;Node17 -->
<g id="edge32_Node000011_Node000017" class="edge">
<title>Node11&#45;&gt;Node17</title>
<g id="a_edge32_Node000011_Node000017"><a xlink:title=" ">
<path fill="none" stroke="#63b8ff" d="M506.42,-351.54C544.38,-337.82 612.8,-308.12 653,-261 678.56,-231.04 681.5,-215.22 678,-176 677.28,-167.89 675.83,-159.04 674.36,-151.39"/>
<polygon fill="#63b8ff" stroke="#63b8ff" points="677.82,-150.87 672.37,-141.78 670.97,-152.29 677.82,-150.87"/>
</a>
</g>
</g>
<!-- Node13 -->
<g id="Node000013" class="node">
<title>Node13</title>
<g id="a_Node000013"><a xlink:href="exif-ifd_8h.html" target="_top" xlink:title=" ">
<polygon fill="white" stroke="#666666" points="495.5,-195 402.5,-195 402.5,-176 495.5,-176 495.5,-195"/>
<text text-anchor="middle" x="449" y="-183" font-family="Helvetica,sans-Serif" font-size="10.00">libexif/exif&#45;ifd.h</text>
</a>
</g>
</g>
<!-- Node12&#45;&gt;Node13 -->
<g id="edge12_Node000012_Node000013" class="edge">
<title>Node12&#45;&gt;Node13</title>
<g id="a_edge12_Node000012_Node000013"><a xlink:title=" ">
<path fill="none" stroke="#63b8ff" d="M539.75,-236.12C522.7,-226.79 495.64,-212 475.49,-200.99"/>
<polygon fill="#63b8ff" stroke="#63b8ff" points="477.19,-197.92 466.73,-196.19 473.83,-204.06 477.19,-197.92"/>
</a>
</g>
</g>
<!-- Node14 -->
<g id="Node000014" class="node">
<title>Node14</title>
<g id="a_Node000014"><a xlink:href="exif-data-type_8h.html" target="_top" xlink:title=" ">
<polygon fill="white" stroke="#666666" points="642,-195 514,-195 514,-176 642,-176 642,-195"/>
<text text-anchor="middle" x="578" y="-183" font-family="Helvetica,sans-Serif" font-size="10.00">libexif/exif&#45;data&#45;type.h</text>
</a>
</g>
</g>
<!-- Node12&#45;&gt;Node14 -->
<g id="edge13_Node000012_Node000014" class="edge">
<title>Node12&#45;&gt;Node14</title>
<g id="a_edge13_Node000012_Node000014"><a xlink:title=" ">
<path fill="none" stroke="#63b8ff" d="M559.25,-236.37C562.27,-228.33 566.88,-216.07 570.77,-205.72"/>
<polygon fill="#63b8ff" stroke="#63b8ff" points="573.96,-207.18 574.21,-196.58 567.41,-204.71 573.96,-207.18"/>
</a>
</g>
</g>
<!-- Node15&#45;&gt;Node4 -->
<g id="edge16_Node000015_Node000004" class="edge">
<title>Node15&#45;&gt;Node4</title>
<g id="a_edge16_Node000015_Node000004"><a xlink:title=" ">
<path fill="none" stroke="#63b8ff" d="M472.54,-296.71C462.22,-282.7 441.29,-254.5 423,-231 410.38,-214.79 401.9,-213.97 394,-195 371.4,-140.74 371.2,-69.65 372.7,-35.7"/>
<polygon fill="#63b8ff" stroke="#63b8ff" points="376.17,-36.31 373.23,-26.13 369.18,-35.93 376.17,-36.31"/>
</a>
</g>
</g>
<!-- Node15&#45;&gt;Node11 -->
<g id="edge27_Node000015_Node000011" class="edge">
<title>Node15&#45;&gt;Node11</title>
<g id="a_edge27_Node000015_Node000011"><a xlink:title=" ">
<path fill="none" stroke="#63b8ff" d="M484.21,-316.44C485.58,-322.97 486.04,-332.1 485.57,-340.35"/>
<polygon fill="#63b8ff" stroke="#63b8ff" points="482.1,-339.89 484.35,-350.25 489.05,-340.75 482.1,-339.89"/>
</a>
</g>
</g>
<!-- Node15&#45;&gt;Node12 -->
<g id="edge26_Node000015_Node000012" class="edge">
<title>Node15&#45;&gt;Node12</title>
<g id="a_edge26_Node000015_Node000012"><a xlink:title=" ">
<path fill="none" stroke="#63b8ff" d="M490.69,-296.62C502.45,-287.68 520.84,-273.72 535.11,-262.87"/>
<polygon fill="#63b8ff" stroke="#63b8ff" points="537.14,-265.72 542.99,-256.88 532.91,-260.15 537.14,-265.72"/>
</a>
</g>
</g>
<!-- Node15&#45;&gt;Node13 -->
<g id="edge18_Node000015_Node000013" class="edge">
<title>Node15&#45;&gt;Node13</title>
<g id="a_edge18_Node000015_Node000013"><a xlink:title=" ">
<path fill="none" stroke="#63b8ff" d="M476.75,-296.56C471.94,-277.51 460.61,-232.56 454.01,-206.37"/>
<polygon fill="#63b8ff" stroke="#63b8ff" points="457.41,-205.53 451.57,-196.69 450.62,-207.24 457.41,-205.53"/>
</a>
</g>
</g>
<!-- Node15&#45;&gt;Node14 -->
<g id="edge17_Node000015_Node000014" class="edge">
<title>Node15&#45;&gt;Node14</title>
<g id="a_edge17_Node000015_Node000014"><a xlink:title=" ">
<path fill="none" stroke="#63b8ff" d="M530.2,-302.66C559.56,-298.08 594.21,-287.04 613,-261 626.12,-242.81 610,-218.93 595.56,-203.16"/>
<polygon fill="#63b8ff" stroke="#63b8ff" points="598.46,-201.12 588.97,-196.41 593.45,-206.01 598.46,-201.12"/>
</a>
</g>
</g>
<!-- Node15&#45;&gt;Node16 -->
<g id="edge19_Node000015_Node000016" class="edge">
<title>Node15&#45;&gt;Node16</title>
<g id="a_edge19_Node000015_Node000016"><a xlink:title=" ">
<path fill="none" stroke="#63b8ff" d="M427.6,-298.91C381.57,-291.92 318.81,-279.33 302,-261 288.59,-246.38 286.85,-222.99 287.66,-206.33"/>
<polygon fill="#63b8ff" stroke="#63b8ff" points="291.12,-206.92 288.5,-196.65 284.15,-206.31 291.12,-206.92"/>
</a>
</g>
</g>
<!-- Node15&#45;&gt;Node17 -->
<g id="edge30_Node000015_Node000017" class="edge">
<title>Node15&#45;&gt;Node17</title>
<g id="a_edge30_Node000015_Node000017"><a xlink:title=" ">
<path fill="none" stroke="#63b8ff" d="M530.19,-302.16C562.37,-297.47 602.64,-286.49 629,-261 659.43,-231.57 667.34,-179.74 669.36,-151.39"/>
<polygon fill="#63b8ff" stroke="#63b8ff" points="672.84,-151.86 669.85,-141.7 665.85,-151.51 672.84,-151.86"/>
</a>
</g>
</g>
<!-- Node21 -->
<g id="Node000021" class="node">
<title>Node21</title>
<g id="a_Node000021"><a xlink:href="exif-mnote-data_8h.html" target="_top" xlink:title="Handling EXIF MakerNote tags.">
<polygon fill="white" stroke="#666666" points="413.5,-261 310.5,-261 310.5,-231 413.5,-231 413.5,-261"/>
<text text-anchor="start" x="318.5" y="-249" font-family="Helvetica,sans-Serif" font-size="10.00">libexif/exif&#45;mnote</text>
<text text-anchor="middle" x="362" y="-238" font-family="Helvetica,sans-Serif" font-size="10.00">&#45;data.h</text>
</a>
</g>
</g>
<!-- Node15&#45;&gt;Node21 -->
<g id="edge28_Node000015_Node000021" class="edge">
<title>Node15&#45;&gt;Node21</title>
<g id="a_edge28_Node000015_Node000021"><a xlink:title=" ">
<path fill="none" stroke="#63b8ff" d="M461.23,-296.62C445.33,-288.67 421.47,-276.74 401.13,-266.57"/>
<polygon fill="#63b8ff" stroke="#63b8ff" points="402.74,-263.46 392.23,-262.12 399.61,-269.72 402.74,-263.46"/>
</a>
</g>
</g>
<!-- Node16&#45;&gt;Node17 -->
<g id="edge20_Node000016_Node000017" class="edge">
<title>Node16&#45;&gt;Node17</title>
<g id="a_edge20_Node000016_Node000017"><a xlink:title=" ">
<path fill="none" stroke="#63b8ff" d="M337.74,-177.84C405.43,-168.4 529.48,-151.1 605.36,-140.52"/>
<polygon fill="#63b8ff" stroke="#63b8ff" points="605.73,-144 615.15,-139.15 604.76,-137.06 605.73,-144"/>
</a>
</g>
</g>
<!-- Node20 -->
<g id="Node000020" class="node">
<title>Node20</title>
<g id="a_Node000020"><a xlink:title=" ">
<polygon fill="#e0e0e0" stroke="#999999" points="318,-140 262,-140 262,-121 318,-121 318,-140"/>
<text text-anchor="middle" x="290" y="-128" font-family="Helvetica,sans-Serif" font-size="10.00">stdarg.h</text>
</a>
</g>
</g>
<!-- Node16&#45;&gt;Node20 -->
<g id="edge25_Node000016_Node000020" class="edge">
<title>Node16&#45;&gt;Node20</title>
<g id="a_edge25_Node000016_Node000020"><a xlink:title=" ">
<path fill="none" stroke="#63b8ff" d="M290,-175.75C290,-169.27 290,-160.16 290,-151.9"/>
<polygon fill="#63b8ff" stroke="#63b8ff" points="293.5,-151.96 290,-141.96 286.5,-151.96 293.5,-151.96"/>
</a>
</g>
</g>
<!-- Node17&#45;&gt;Node18 -->
<g id="edge21_Node000017_Node000018" class="edge">
<title>Node17&#45;&gt;Node18</title>
<g id="a_edge21_Node000017_Node000018"><a xlink:title=" ">
<path fill="none" stroke="#63b8ff" d="M655.92,-120.51C643.44,-112.54 624.98,-100.75 610.31,-91.38"/>
<polygon fill="#63b8ff" stroke="#63b8ff" points="612.46,-88.6 602.15,-86.17 608.69,-94.5 612.46,-88.6"/>
</a>
</g>
</g>
<!-- Node18&#45;&gt;Node4 -->
<g id="edge22_Node000018_Node000004" class="edge">
<title>Node18&#45;&gt;Node4</title>
<g id="a_edge22_Node000018_Node000004"><a xlink:title=" ">
<path fill="none" stroke="#63b8ff" d="M554.65,-65.62C518.06,-55.56 458.27,-39.15 417.59,-27.97"/>
<polygon fill="#63b8ff" stroke="#63b8ff" points="418.68,-24.64 408.11,-25.37 416.83,-31.39 418.68,-24.64"/>
</a>
</g>
</g>
<!-- Node18&#45;&gt;Node5 -->
<g id="edge23_Node000018_Node000005" class="edge">
<title>Node18&#45;&gt;Node5</title>
<g id="a_edge23_Node000018_Node000005"><a xlink:title=" ">
<path fill="none" stroke="#63b8ff" d="M536.01,-66.67C468.51,-56.31 349.27,-38 274.11,-26.46"/>
<polygon fill="#63b8ff" stroke="#63b8ff" points="274.8,-23.02 264.39,-24.97 273.74,-29.94 274.8,-23.02"/>
</a>
</g>
</g>
<!-- Node19 -->
<g id="Node000019" class="node">
<title>Node19</title>
<g id="a_Node000019"><a xlink:title=" ">
<polygon fill="#e0e0e0" stroke="#999999" points="633,-24.5 541,-24.5 541,-5.5 633,-5.5 633,-24.5"/>
<text text-anchor="middle" x="587" y="-12.5" font-family="Helvetica,sans-Serif" font-size="10.00">libexif/_stdint.h</text>
</a>
</g>
</g>
<!-- Node18&#45;&gt;Node19 -->
<g id="edge24_Node000018_Node000019" class="edge">
<title>Node18&#45;&gt;Node19</title>
<g id="a_edge24_Node000018_Node000019"><a xlink:title=" ">
<path fill="none" stroke="#63b8ff" d="M587,-65.87C587,-58 587,-46.1 587,-35.89"/>
<polygon fill="#63b8ff" stroke="#63b8ff" points="590.5,-36.18 587,-26.18 583.5,-36.18 590.5,-36.18"/>
</a>
</g>
</g>
<!-- Node21&#45;&gt;Node16 -->
<g id="edge29_Node000021_Node000016" class="edge">
<title>Node21&#45;&gt;Node16</title>
<g id="a_edge29_Node000021_Node000016"><a xlink:title=" ">
<path fill="none" stroke="#63b8ff" d="M344.2,-230.54C333.64,-221.96 320.24,-211.07 309.4,-202.26"/>
<polygon fill="#63b8ff" stroke="#63b8ff" points="311.82,-199.72 301.85,-196.13 307.41,-205.15 311.82,-199.72"/>
</a>
</g>
</g>
<!-- Node22&#45;&gt;Node2 -->
<g id="edge38_Node000022_Node000002" class="edge">
<title>Node22&#45;&gt;Node2</title>
<g id="a_edge38_Node000022_Node000002"><a xlink:title=" ">
<path fill="none" stroke="#63b8ff" d="M56.39,-406.75C51.88,-399.73 45.41,-389.64 39.79,-380.87"/>
<polygon fill="#63b8ff" stroke="#63b8ff" points="42.9,-379.24 34.55,-372.72 37.01,-383.02 42.9,-379.24"/>
</a>
</g>
</g>
</g>
</svg>
