<?xml version="1.0" encoding="UTF-8" standalone="no"?>
<!DOCTYPE svg PUBLIC "-//W3C//DTD SVG 1.1//EN"
 "http://www.w3.org/Graphics/SVG/1.1/DTD/svg11.dtd">
<!-- Generated by graphviz version 2.44.1 (0)
 -->
<!-- Title: libexif/apple/mnote&#45;apple&#45;entry.c Pages: 1 -->
<svg width="900pt" height="509pt"
 viewBox="0.00 0.00 899.50 509.00" xmlns="http://www.w3.org/2000/svg" xmlns:xlink="http://www.w3.org/1999/xlink">
<g id="graph0" class="graph" transform="scale(1 1) rotate(0) translate(4 505)">
<title>libexif/apple/mnote&#45;apple&#45;entry.c</title>
<polygon fill="white" stroke="transparent" points="-4,4 -4,-505 895.5,-505 895.5,4 -4,4"/>
<!-- Node1 -->
<g id="node1" class="node">
<title>Node1</title>
<g id="a_node1"><a xlink:title=" ">
<polygon fill="#bfbfbf" stroke="black" points="423,-470.5 423,-500.5 535,-500.5 535,-470.5 423,-470.5"/>
<text text-anchor="start" x="431" y="-488.5" font-family="Helvetica,sans-Serif" font-size="10.00">libexif/apple/mnote</text>
<text text-anchor="middle" x="479" y="-477.5" font-family="Helvetica,sans-Serif" font-size="10.00">&#45;apple&#45;entry.c</text>
</a>
</g>
</g>
<!-- Node2 -->
<g id="node2" class="node">
<title>Node2</title>
<g id="a_node2"><a xlink:title=" ">
<polygon fill="white" stroke="#bfbfbf" points="0,-358.5 0,-377.5 56,-377.5 56,-358.5 0,-358.5"/>
<text text-anchor="middle" x="28" y="-365.5" font-family="Helvetica,sans-Serif" font-size="10.00">config.h</text>
</a>
</g>
</g>
<!-- Node1&#45;&gt;Node2 -->
<g id="edge1" class="edge">
<title>Node1&#45;&gt;Node2</title>
<path fill="none" stroke="midnightblue" d="M422.67,-482.53C304.62,-477.83 39.94,-464.02 13,-434 1.44,-421.11 8.49,-401.11 16.37,-386.7"/>
<polygon fill="midnightblue" stroke="midnightblue" points="19.58,-388.14 21.73,-377.77 13.58,-384.54 19.58,-388.14"/>
</g>
<!-- Node3 -->
<g id="node3" class="node">
<title>Node3</title>
<g id="a_node3"><a xlink:href="mnote-apple-entry_8h.html" target="_top" xlink:title=" ">
<polygon fill="white" stroke="black" points="24,-67.5 24,-86.5 140,-86.5 140,-67.5 24,-67.5"/>
<text text-anchor="middle" x="82" y="-74.5" font-family="Helvetica,sans-Serif" font-size="10.00">mnote&#45;apple&#45;entry.h</text>
</a>
</g>
</g>
<!-- Node1&#45;&gt;Node3 -->
<g id="edge2" class="edge">
<title>Node1&#45;&gt;Node3</title>
<path fill="none" stroke="midnightblue" d="M422.98,-482.51C341.11,-478.51 194.16,-466.85 154,-434 130.16,-414.5 130,-399.8 130,-369 130,-369 130,-369 130,-188 130,-152.58 108.84,-115.71 94.62,-94.92"/>
<polygon fill="midnightblue" stroke="midnightblue" points="97.32,-92.68 88.67,-86.56 91.62,-96.74 97.32,-92.68"/>
</g>
<!-- Node5 -->
<g id="node5" class="node">
<title>Node5</title>
<g id="a_node5"><a xlink:href="exif-format_8h.html" target="_top" xlink:title="Handling native EXIF data types.">
<polygon fill="white" stroke="black" points="149.5,-6 149.5,-25 262.5,-25 262.5,-6 149.5,-6"/>
<text text-anchor="middle" x="206" y="-13" font-family="Helvetica,sans-Serif" font-size="10.00">libexif/exif&#45;format.h</text>
</a>
</g>
</g>
<!-- Node1&#45;&gt;Node5 -->
<g id="edge35" class="edge">
<title>Node1&#45;&gt;Node5</title>
<path fill="none" stroke="midnightblue" d="M422.68,-475.46C333.06,-459.46 168,-422.71 168,-369 168,-369 168,-369 168,-132 168,-95.75 185.09,-56.17 196.35,-34.03"/>
<polygon fill="midnightblue" stroke="midnightblue" points="199.46,-35.64 201.03,-25.16 193.27,-32.37 199.46,-35.64"/>
</g>
<!-- Node7 -->
<g id="node7" class="node">
<title>Node7</title>
<g id="a_node7"><a xlink:title=" ">
<polygon fill="white" stroke="#bfbfbf" points="699,-414.5 699,-433.5 749,-433.5 749,-414.5 699,-414.5"/>
<text text-anchor="middle" x="724" y="-421.5" font-family="Helvetica,sans-Serif" font-size="10.00">stdio.h</text>
</a>
</g>
</g>
<!-- Node1&#45;&gt;Node7 -->
<g id="edge6" class="edge">
<title>Node1&#45;&gt;Node7</title>
<path fill="none" stroke="midnightblue" d="M535.21,-470.85C582.51,-459.36 648.69,-443.29 688.83,-433.54"/>
<polygon fill="midnightblue" stroke="midnightblue" points="689.79,-436.91 698.69,-431.15 688.14,-430.11 689.79,-436.91"/>
</g>
<!-- Node8 -->
<g id="node8" class="node">
<title>Node8</title>
<g id="a_node8"><a xlink:title=" ">
<polygon fill="white" stroke="#bfbfbf" points="767.5,-414.5 767.5,-433.5 820.5,-433.5 820.5,-414.5 767.5,-414.5"/>
<text text-anchor="middle" x="794" y="-421.5" font-family="Helvetica,sans-Serif" font-size="10.00">stdlib.h</text>
</a>
</g>
</g>
<!-- Node1&#45;&gt;Node8 -->
<g id="edge7" class="edge">
<title>Node1&#45;&gt;Node8</title>
<path fill="none" stroke="midnightblue" d="M535.06,-475.47C589.4,-466.46 674.35,-451.72 757.45,-434"/>
<polygon fill="midnightblue" stroke="midnightblue" points="758.27,-437.4 767.31,-431.88 756.8,-430.56 758.27,-437.4"/>
</g>
<!-- Node9 -->
<g id="node9" class="node">
<title>Node9</title>
<g id="a_node9"><a xlink:title=" ">
<polygon fill="white" stroke="#bfbfbf" points="838.5,-414.5 838.5,-433.5 891.5,-433.5 891.5,-414.5 838.5,-414.5"/>
<text text-anchor="middle" x="865" y="-421.5" font-family="Helvetica,sans-Serif" font-size="10.00">string.h</text>
</a>
</g>
</g>
<!-- Node1&#45;&gt;Node9 -->
<g id="edge8" class="edge">
<title>Node1&#45;&gt;Node9</title>
<path fill="none" stroke="midnightblue" d="M535.25,-478.32C602.8,-470.47 719.67,-455.54 828.49,-434.14"/>
<polygon fill="midnightblue" stroke="midnightblue" points="829.19,-437.56 838.32,-432.18 827.82,-430.7 829.19,-437.56"/>
</g>
<!-- Node10 -->
<g id="node10" class="node">
<title>Node10</title>
<g id="a_node10"><a xlink:href="exif-entry_8h.html" target="_top" xlink:title="Handling EXIF entries.">
<polygon fill="white" stroke="black" points="427,-414.5 427,-433.5 531,-433.5 531,-414.5 427,-414.5"/>
<text text-anchor="middle" x="479" y="-421.5" font-family="Helvetica,sans-Serif" font-size="10.00">libexif/exif&#45;entry.h</text>
</a>
</g>
</g>
<!-- Node1&#45;&gt;Node10 -->
<g id="edge9" class="edge">
<title>Node1&#45;&gt;Node10</title>
<path fill="none" stroke="midnightblue" d="M479,-470.4C479,-462.47 479,-452.46 479,-443.86"/>
<polygon fill="midnightblue" stroke="midnightblue" points="482.5,-443.66 479,-433.66 475.5,-443.66 482.5,-443.66"/>
</g>
<!-- Node18 -->
<g id="node18" class="node">
<title>Node18</title>
<g id="a_node18"><a xlink:href="exif-utils_8h.html" target="_top" xlink:title="EXIF data manipulation functions and types.">
<polygon fill="white" stroke="black" points="536.5,-67.5 536.5,-86.5 637.5,-86.5 637.5,-67.5 536.5,-67.5"/>
<text text-anchor="middle" x="587" y="-74.5" font-family="Helvetica,sans-Serif" font-size="10.00">libexif/exif&#45;utils.h</text>
</a>
</g>
</g>
<!-- Node1&#45;&gt;Node18 -->
<g id="edge36" class="edge">
<title>Node1&#45;&gt;Node18</title>
<path fill="none" stroke="midnightblue" d="M535.02,-471.32C590.92,-456.04 677.05,-426.54 738,-378 765.68,-355.95 784,-348.39 784,-313 784,-313 784,-313 784,-188 784,-124.81 705.78,-97.58 647.91,-86.08"/>
<polygon fill="midnightblue" stroke="midnightblue" points="648.21,-82.57 637.73,-84.17 646.92,-89.45 648.21,-82.57"/>
</g>
<!-- Node22 -->
<g id="node22" class="node">
<title>Node22</title>
<g id="a_node22"><a xlink:href="i18n_8h.html" target="_top" xlink:title=" ">
<polygon fill="white" stroke="black" points="22,-414.5 22,-433.5 102,-433.5 102,-414.5 22,-414.5"/>
<text text-anchor="middle" x="62" y="-421.5" font-family="Helvetica,sans-Serif" font-size="10.00">libexif/i18n.h</text>
</a>
</g>
</g>
<!-- Node1&#45;&gt;Node22 -->
<g id="edge37" class="edge">
<title>Node1&#45;&gt;Node22</title>
<path fill="none" stroke="midnightblue" d="M422.96,-477.18C351.6,-467.75 224.5,-450.59 116,-434 114.73,-433.81 113.45,-433.61 112.15,-433.41"/>
<polygon fill="midnightblue" stroke="midnightblue" points="112.51,-429.92 102.09,-431.8 111.41,-436.83 112.51,-429.92"/>
</g>
<!-- Node4 -->
<g id="node4" class="node">
<title>Node4</title>
<g id="a_node4"><a xlink:href="exif-byte-order_8h.html" target="_top" xlink:title="Defines the ExifByteOrder enum and the associated functions.">
<polygon fill="white" stroke="black" points="308.5,-6 308.5,-25 439.5,-25 439.5,-6 308.5,-6"/>
<text text-anchor="middle" x="374" y="-13" font-family="Helvetica,sans-Serif" font-size="10.00">libexif/exif&#45;byte&#45;order.h</text>
</a>
</g>
</g>
<!-- Node3&#45;&gt;Node4 -->
<g id="edge3" class="edge">
<title>Node3&#45;&gt;Node4</title>
<path fill="none" stroke="midnightblue" d="M123.84,-67.48C176.2,-56.8 265.87,-38.53 322.43,-27.01"/>
<polygon fill="midnightblue" stroke="midnightblue" points="323.14,-30.44 332.24,-25.01 321.74,-23.58 323.14,-30.44"/>
</g>
<!-- Node3&#45;&gt;Node5 -->
<g id="edge4" class="edge">
<title>Node3&#45;&gt;Node5</title>
<path fill="none" stroke="midnightblue" d="M99.77,-67.48C120.48,-57.53 154.95,-40.99 178.99,-29.46"/>
<polygon fill="midnightblue" stroke="midnightblue" points="180.77,-32.49 188.27,-25.01 177.74,-26.18 180.77,-32.49"/>
</g>
<!-- Node6 -->
<g id="node6" class="node">
<title>Node6</title>
<g id="a_node6"><a xlink:href="mnote-apple-tag_8h.html" target="_top" xlink:title=" ">
<polygon fill="white" stroke="black" points="19,-0.5 19,-30.5 131,-30.5 131,-0.5 19,-0.5"/>
<text text-anchor="start" x="27" y="-18.5" font-family="Helvetica,sans-Serif" font-size="10.00">libexif/apple/mnote</text>
<text text-anchor="middle" x="75" y="-7.5" font-family="Helvetica,sans-Serif" font-size="10.00">&#45;apple&#45;tag.h</text>
</a>
</g>
</g>
<!-- Node3&#45;&gt;Node6 -->
<g id="edge5" class="edge">
<title>Node3&#45;&gt;Node6</title>
<path fill="none" stroke="midnightblue" d="M81,-67.48C80.17,-60.47 78.96,-50.19 77.85,-40.7"/>
<polygon fill="midnightblue" stroke="midnightblue" points="81.29,-40.05 76.65,-30.52 74.34,-40.86 81.29,-40.05"/>
</g>
<!-- Node10&#45;&gt;Node5 -->
<g id="edge33" class="edge">
<title>Node10&#45;&gt;Node5</title>
<path fill="none" stroke="midnightblue" d="M433.61,-414.45C355.98,-398.53 206,-361.48 206,-313 206,-313 206,-313 206,-132 206,-97.86 206,-58.05 206,-35.21"/>
<polygon fill="midnightblue" stroke="midnightblue" points="209.5,-35.19 206,-25.19 202.5,-35.19 209.5,-35.19"/>
</g>
<!-- Node11 -->
<g id="node11" class="node">
<title>Node11</title>
<g id="a_node11"><a xlink:href="exif-content_8h.html" target="_top" xlink:title="Handling EXIF IFDs.">
<polygon fill="white" stroke="black" points="420.5,-358.5 420.5,-377.5 537.5,-377.5 537.5,-358.5 420.5,-358.5"/>
<text text-anchor="middle" x="479" y="-365.5" font-family="Helvetica,sans-Serif" font-size="10.00">libexif/exif&#45;content.h</text>
</a>
</g>
</g>
<!-- Node10&#45;&gt;Node11 -->
<g id="edge10" class="edge">
<title>Node10&#45;&gt;Node11</title>
<path fill="none" stroke="midnightblue" d="M473.83,-414.08C472.32,-406.93 471.89,-396.64 472.54,-387.69"/>
<polygon fill="midnightblue" stroke="midnightblue" points="476.02,-388.13 473.87,-377.75 469.08,-387.2 476.02,-388.13"/>
</g>
<!-- Node17 -->
<g id="node17" class="node">
<title>Node17</title>
<g id="a_node17"><a xlink:href="exif-mem_8h.html" target="_top" xlink:title="Define the ExifMem data type and the associated functions.">
<polygon fill="white" stroke="black" points="617,-123.5 617,-142.5 723,-142.5 723,-123.5 617,-123.5"/>
<text text-anchor="middle" x="670" y="-130.5" font-family="Helvetica,sans-Serif" font-size="10.00">libexif/exif&#45;mem.h</text>
</a>
</g>
</g>
<!-- Node10&#45;&gt;Node17 -->
<g id="edge34" class="edge">
<title>Node10&#45;&gt;Node17</title>
<path fill="none" stroke="midnightblue" d="M531.11,-423.67C608.82,-421.62 746,-405 746,-313 746,-313 746,-313 746,-249.5 746,-207.81 711.02,-169.53 688.52,-149.22"/>
<polygon fill="midnightblue" stroke="midnightblue" points="690.73,-146.5 680.89,-142.58 686.14,-151.78 690.73,-146.5"/>
</g>
<!-- Node11&#45;&gt;Node10 -->
<g id="edge14" class="edge">
<title>Node11&#45;&gt;Node10</title>
<path fill="none" stroke="midnightblue" d="M484.13,-377.75C485.66,-384.86 486.1,-395.14 485.47,-404.1"/>
<polygon fill="midnightblue" stroke="midnightblue" points="481.99,-403.71 484.17,-414.08 488.93,-404.62 481.99,-403.71"/>
</g>
<!-- Node12 -->
<g id="node12" class="node">
<title>Node12</title>
<g id="a_node12"><a xlink:href="exif-tag_8h.html" target="_top" xlink:title="Handling EXIF tags.">
<polygon fill="white" stroke="black" points="508,-241 508,-260 604,-260 604,-241 508,-241"/>
<text text-anchor="middle" x="556" y="-248" font-family="Helvetica,sans-Serif" font-size="10.00">libexif/exif&#45;tag.h</text>
</a>
</g>
</g>
<!-- Node11&#45;&gt;Node12 -->
<g id="edge11" class="edge">
<title>Node11&#45;&gt;Node12</title>
<path fill="none" stroke="midnightblue" d="M496.09,-358.48C509.76,-350.79 528.34,-338.21 539,-322 549.26,-306.41 553.34,-285.24 554.95,-270.18"/>
<polygon fill="midnightblue" stroke="midnightblue" points="558.45,-270.29 555.77,-260.04 551.48,-269.73 558.45,-270.29"/>
</g>
<!-- Node15 -->
<g id="node15" class="node">
<title>Node15</title>
<g id="a_node15"><a xlink:href="exif-data_8h.html" target="_top" xlink:title="Defines the ExifData type and the associated functions.">
<polygon fill="white" stroke="black" points="428,-302.5 428,-321.5 530,-321.5 530,-302.5 428,-302.5"/>
<text text-anchor="middle" x="479" y="-309.5" font-family="Helvetica,sans-Serif" font-size="10.00">libexif/exif&#45;data.h</text>
</a>
</g>
</g>
<!-- Node11&#45;&gt;Node15 -->
<g id="edge15" class="edge">
<title>Node11&#45;&gt;Node15</title>
<path fill="none" stroke="midnightblue" d="M473.83,-358.08C472.32,-350.93 471.89,-340.64 472.54,-331.69"/>
<polygon fill="midnightblue" stroke="midnightblue" points="476.02,-332.13 473.87,-321.75 469.08,-331.2 476.02,-332.13"/>
</g>
<!-- Node16 -->
<g id="node16" class="node">
<title>Node16</title>
<g id="a_node16"><a xlink:href="exif-log_8h.html" target="_top" xlink:title="Log message infrastructure.">
<polygon fill="white" stroke="black" points="242.5,-179.5 242.5,-198.5 337.5,-198.5 337.5,-179.5 242.5,-179.5"/>
<text text-anchor="middle" x="290" y="-186.5" font-family="Helvetica,sans-Serif" font-size="10.00">libexif/exif&#45;log.h</text>
</a>
</g>
</g>
<!-- Node11&#45;&gt;Node16 -->
<g id="edge31" class="edge">
<title>Node11&#45;&gt;Node16</title>
<path fill="none" stroke="midnightblue" d="M436.47,-358.42C390,-346.52 317.8,-320.05 285,-266 274.52,-248.73 278.33,-225.01 283.1,-208.69"/>
<polygon fill="midnightblue" stroke="midnightblue" points="286.58,-209.33 286.4,-198.74 279.93,-207.13 286.58,-209.33"/>
</g>
<!-- Node11&#45;&gt;Node17 -->
<g id="edge32" class="edge">
<title>Node11&#45;&gt;Node17</title>
<path fill="none" stroke="midnightblue" d="M504.88,-358.41C542.54,-344.65 612.39,-314.22 653,-266 678.92,-235.23 681.53,-219.08 678,-179 677.22,-170.2 675.61,-160.54 674.03,-152.43"/>
<polygon fill="midnightblue" stroke="midnightblue" points="677.44,-151.65 671.99,-142.57 670.59,-153.07 677.44,-151.65"/>
</g>
<!-- Node13 -->
<g id="node13" class="node">
<title>Node13</title>
<g id="a_node13"><a xlink:href="exif-ifd_8h.html" target="_top" xlink:title=" ">
<polygon fill="white" stroke="black" points="402.5,-179.5 402.5,-198.5 495.5,-198.5 495.5,-179.5 402.5,-179.5"/>
<text text-anchor="middle" x="449" y="-186.5" font-family="Helvetica,sans-Serif" font-size="10.00">libexif/exif&#45;ifd.h</text>
</a>
</g>
</g>
<!-- Node12&#45;&gt;Node13 -->
<g id="edge12" class="edge">
<title>Node12&#45;&gt;Node13</title>
<path fill="none" stroke="midnightblue" d="M540.67,-240.98C523.03,-231.17 493.84,-214.93 473.14,-203.42"/>
<polygon fill="midnightblue" stroke="midnightblue" points="474.74,-200.31 464.3,-198.51 471.34,-206.43 474.74,-200.31"/>
</g>
<!-- Node14 -->
<g id="node14" class="node">
<title>Node14</title>
<g id="a_node14"><a xlink:href="exif-data-type_8h.html" target="_top" xlink:title=" ">
<polygon fill="white" stroke="black" points="514,-179.5 514,-198.5 642,-198.5 642,-179.5 514,-179.5"/>
<text text-anchor="middle" x="578" y="-186.5" font-family="Helvetica,sans-Serif" font-size="10.00">libexif/exif&#45;data&#45;type.h</text>
</a>
</g>
</g>
<!-- Node12&#45;&gt;Node14 -->
<g id="edge13" class="edge">
<title>Node12&#45;&gt;Node14</title>
<path fill="none" stroke="midnightblue" d="M559.15,-240.98C562.32,-232.4 567.3,-218.93 571.35,-207.98"/>
<polygon fill="midnightblue" stroke="midnightblue" points="574.67,-209.1 574.85,-198.51 568.1,-206.67 574.67,-209.1"/>
</g>
<!-- Node15&#45;&gt;Node4 -->
<g id="edge16" class="edge">
<title>Node15&#45;&gt;Node4</title>
<path fill="none" stroke="midnightblue" d="M472.9,-302.48C462.74,-288.32 441.61,-259.15 423,-235 410.46,-218.73 401.88,-217.97 394,-199 370.82,-143.18 371.01,-69.91 372.66,-35.68"/>
<polygon fill="midnightblue" stroke="midnightblue" points="376.18,-35.48 373.27,-25.29 369.19,-35.07 376.18,-35.48"/>
</g>
<!-- Node15&#45;&gt;Node11 -->
<g id="edge27" class="edge">
<title>Node15&#45;&gt;Node11</title>
<path fill="none" stroke="midnightblue" d="M484.13,-321.75C485.66,-328.86 486.1,-339.14 485.47,-348.1"/>
<polygon fill="midnightblue" stroke="midnightblue" points="481.99,-347.71 484.17,-358.08 488.93,-348.62 481.99,-347.71"/>
</g>
<!-- Node15&#45;&gt;Node12 -->
<g id="edge26" class="edge">
<title>Node15&#45;&gt;Node12</title>
<path fill="none" stroke="midnightblue" d="M490.03,-302.48C502.27,-293.02 522.23,-277.6 536.99,-266.19"/>
<polygon fill="midnightblue" stroke="midnightblue" points="539.22,-268.89 544.99,-260.01 534.94,-263.35 539.22,-268.89"/>
</g>
<!-- Node15&#45;&gt;Node13 -->
<g id="edge18" class="edge">
<title>Node15&#45;&gt;Node13</title>
<path fill="none" stroke="midnightblue" d="M476.84,-302.3C472,-282.76 460.17,-235.06 453.6,-208.55"/>
<polygon fill="midnightblue" stroke="midnightblue" points="456.94,-207.49 451.14,-198.62 450.15,-209.17 456.94,-207.49"/>
</g>
<!-- Node15&#45;&gt;Node14 -->
<g id="edge17" class="edge">
<title>Node15&#45;&gt;Node14</title>
<path fill="none" stroke="midnightblue" d="M530.22,-307.96C559.58,-303.27 594.23,-292.1 613,-266 626.58,-247.12 609.48,-222.13 594.77,-206.06"/>
<polygon fill="midnightblue" stroke="midnightblue" points="596.95,-203.28 587.47,-198.54 591.93,-208.16 596.95,-203.28"/>
</g>
<!-- Node15&#45;&gt;Node16 -->
<g id="edge19" class="edge">
<title>Node15&#45;&gt;Node16</title>
<path fill="none" stroke="midnightblue" d="M427.58,-304.27C381.54,-297.15 318.77,-284.39 302,-266 288.03,-250.68 286.59,-226.01 287.62,-208.95"/>
<polygon fill="midnightblue" stroke="midnightblue" points="291.14,-208.85 288.6,-198.56 284.18,-208.19 291.14,-208.85"/>
</g>
<!-- Node15&#45;&gt;Node17 -->
<g id="edge30" class="edge">
<title>Node15&#45;&gt;Node17</title>
<path fill="none" stroke="midnightblue" d="M530.24,-307.51C562.44,-302.73 602.71,-291.62 629,-266 660.42,-235.38 667.87,-181.18 669.57,-152.69"/>
<polygon fill="midnightblue" stroke="midnightblue" points="673.07,-152.64 669.99,-142.51 666.08,-152.35 673.07,-152.64"/>
</g>
<!-- Node21 -->
<g id="node21" class="node">
<title>Node21</title>
<g id="a_node21"><a xlink:href="exif-mnote-data_8h.html" target="_top" xlink:title="Handling EXIF MakerNote tags.">
<polygon fill="white" stroke="black" points="310.5,-235.5 310.5,-265.5 413.5,-265.5 413.5,-235.5 310.5,-235.5"/>
<text text-anchor="start" x="318.5" y="-253.5" font-family="Helvetica,sans-Serif" font-size="10.00">libexif/exif&#45;mnote</text>
<text text-anchor="middle" x="362" y="-242.5" font-family="Helvetica,sans-Serif" font-size="10.00">&#45;data.h</text>
</a>
</g>
</g>
<!-- Node15&#45;&gt;Node21 -->
<g id="edge28" class="edge">
<title>Node15&#45;&gt;Node21</title>
<path fill="none" stroke="midnightblue" d="M462.24,-302.48C445.72,-294.08 419.95,-280.97 398.68,-270.15"/>
<polygon fill="midnightblue" stroke="midnightblue" points="400.07,-266.94 389.57,-265.52 396.9,-273.18 400.07,-266.94"/>
</g>
<!-- Node16&#45;&gt;Node17 -->
<g id="edge20" class="edge">
<title>Node16&#45;&gt;Node17</title>
<path fill="none" stroke="midnightblue" d="M337.74,-181.22C405.8,-171.54 530.85,-153.77 606.61,-143.01"/>
<polygon fill="midnightblue" stroke="midnightblue" points="607.55,-146.41 616.96,-141.54 606.57,-139.48 607.55,-146.41"/>
</g>
<!-- Node20 -->
<g id="node20" class="node">
<title>Node20</title>
<g id="a_node20"><a xlink:title=" ">
<polygon fill="white" stroke="#bfbfbf" points="262,-123.5 262,-142.5 318,-142.5 318,-123.5 262,-123.5"/>
<text text-anchor="middle" x="290" y="-130.5" font-family="Helvetica,sans-Serif" font-size="10.00">stdarg.h</text>
</a>
</g>
</g>
<!-- Node16&#45;&gt;Node20 -->
<g id="edge25" class="edge">
<title>Node16&#45;&gt;Node20</title>
<path fill="none" stroke="midnightblue" d="M290,-179.08C290,-172.01 290,-161.86 290,-152.99"/>
<polygon fill="midnightblue" stroke="midnightblue" points="293.5,-152.75 290,-142.75 286.5,-152.75 293.5,-152.75"/>
</g>
<!-- Node17&#45;&gt;Node18 -->
<g id="edge21" class="edge">
<title>Node17&#45;&gt;Node18</title>
<path fill="none" stroke="midnightblue" d="M656.66,-123.32C643.84,-114.98 624.22,-102.21 609.06,-92.35"/>
<polygon fill="midnightblue" stroke="midnightblue" points="610.59,-89.17 600.3,-86.65 606.78,-95.04 610.59,-89.17"/>
</g>
<!-- Node18&#45;&gt;Node4 -->
<g id="edge22" class="edge">
<title>Node18&#45;&gt;Node4</title>
<path fill="none" stroke="midnightblue" d="M556.48,-67.48C519.08,-57.03 455.57,-39.29 414.21,-27.73"/>
<polygon fill="midnightblue" stroke="midnightblue" points="415.03,-24.33 404.46,-25.01 413.15,-31.07 415.03,-24.33"/>
</g>
<!-- Node18&#45;&gt;Node5 -->
<g id="edge23" class="edge">
<title>Node18&#45;&gt;Node5</title>
<path fill="none" stroke="midnightblue" d="M536.41,-68.1C467.97,-57.41 345.84,-38.34 270.77,-26.62"/>
<polygon fill="midnightblue" stroke="midnightblue" points="270.92,-23.1 260.5,-25.01 269.84,-30.01 270.92,-23.1"/>
</g>
<!-- Node19 -->
<g id="node19" class="node">
<title>Node19</title>
<g id="a_node19"><a xlink:title=" ">
<polygon fill="white" stroke="#bfbfbf" points="541,-6 541,-25 633,-25 633,-6 541,-6"/>
<text text-anchor="middle" x="587" y="-13" font-family="Helvetica,sans-Serif" font-size="10.00">libexif/_stdint.h</text>
</a>
</g>
</g>
<!-- Node18&#45;&gt;Node19 -->
<g id="edge24" class="edge">
<title>Node18&#45;&gt;Node19</title>
<path fill="none" stroke="midnightblue" d="M587,-67.48C587,-59.08 587,-45.98 587,-35.16"/>
<polygon fill="midnightblue" stroke="midnightblue" points="590.5,-35.01 587,-25.01 583.5,-35.01 590.5,-35.01"/>
</g>
<!-- Node21&#45;&gt;Node16 -->
<g id="edge29" class="edge">
<title>Node21&#45;&gt;Node16</title>
<path fill="none" stroke="midnightblue" d="M344.94,-235.4C333.94,-226.31 319.63,-214.49 308.38,-205.19"/>
<polygon fill="midnightblue" stroke="midnightblue" points="310.41,-202.33 300.48,-198.66 305.96,-207.73 310.41,-202.33"/>
</g>
<!-- Node22&#45;&gt;Node2 -->
<g id="edge38" class="edge">
<title>Node22&#45;&gt;Node2</title>
<path fill="none" stroke="midnightblue" d="M56.39,-414.08C51.63,-406.53 44.68,-395.49 38.85,-386.23"/>
<polygon fill="midnightblue" stroke="midnightblue" points="41.8,-384.35 33.51,-377.75 35.88,-388.08 41.8,-384.35"/>
</g>
</g>
</svg>
