<?xml version="1.0" encoding="UTF-8" standalone="no"?>
<!DOCTYPE svg PUBLIC "-//W3C//DTD SVG 1.1//EN"
 "http://www.w3.org/Graphics/SVG/1.1/DTD/svg11.dtd">
<!-- Generated by graphviz version 2.44.1 (0)
 -->
<!-- Title: libexif/pentax/mnote&#45;pentax&#45;tag.c Pages: 1 -->
<svg width="306pt" height="151pt"
 viewBox="0.00 0.00 306.30 151.00" xmlns="http://www.w3.org/2000/svg" xmlns:xlink="http://www.w3.org/1999/xlink">
<g id="graph0" class="graph" transform="scale(1 1) rotate(0) translate(4 147)">
<title>libexif/pentax/mnote&#45;pentax&#45;tag.c</title>
<polygon fill="white" stroke="transparent" points="-4,4 -4,-147 302.3,-147 302.3,4 -4,4"/>
<!-- Node1 -->
<g id="node1" class="node">
<title>Node1</title>
<g id="a_node1"><a xlink:title=" ">
<polygon fill="#bfbfbf" stroke="black" points="62.8,-112.5 62.8,-142.5 181.8,-142.5 181.8,-112.5 62.8,-112.5"/>
<text text-anchor="start" x="70.8" y="-130.5" font-family="Helvetica,sans-Serif" font-size="10.00">libexif/pentax/mnote</text>
<text text-anchor="middle" x="122.3" y="-119.5" font-family="Helvetica,sans-Serif" font-size="10.00">&#45;pentax&#45;tag.c</text>
</a>
</g>
</g>
<!-- Node2 -->
<g id="node2" class="node">
<title>Node2</title>
<g id="a_node2"><a xlink:title=" ">
<polygon fill="white" stroke="#bfbfbf" points="94.3,-0.5 94.3,-19.5 150.3,-19.5 150.3,-0.5 94.3,-0.5"/>
<text text-anchor="middle" x="122.3" y="-7.5" font-family="Helvetica,sans-Serif" font-size="10.00">config.h</text>
</a>
</g>
</g>
<!-- Node1&#45;&gt;Node2 -->
<g id="edge1" class="edge">
<title>Node1&#45;&gt;Node2</title>
<path fill="none" stroke="midnightblue" d="M62.41,-113.64C24.58,-102.55 -13.84,-83.86 5.3,-56 22.89,-30.39 57.24,-19.35 84.2,-14.59"/>
<polygon fill="midnightblue" stroke="midnightblue" points="84.77,-18.05 94.11,-13.06 83.7,-11.13 84.77,-18.05"/>
</g>
<!-- Node3 -->
<g id="node3" class="node">
<title>Node3</title>
<g id="a_node3"><a xlink:href="mnote-pentax-tag_8h.html" target="_top" xlink:title=" ">
<polygon fill="white" stroke="black" points="14.3,-56.5 14.3,-75.5 128.3,-75.5 128.3,-56.5 14.3,-56.5"/>
<text text-anchor="middle" x="71.3" y="-63.5" font-family="Helvetica,sans-Serif" font-size="10.00">mnote&#45;pentax&#45;tag.h</text>
</a>
</g>
</g>
<!-- Node1&#45;&gt;Node3 -->
<g id="edge2" class="edge">
<title>Node1&#45;&gt;Node3</title>
<path fill="none" stroke="midnightblue" d="M110.21,-112.4C102.72,-103.66 93.08,-92.41 85.27,-83.3"/>
<polygon fill="midnightblue" stroke="midnightblue" points="87.88,-80.97 78.72,-75.66 82.57,-85.53 87.88,-80.97"/>
</g>
<!-- Node4 -->
<g id="node4" class="node">
<title>Node4</title>
<g id="a_node4"><a xlink:title=" ">
<polygon fill="white" stroke="#bfbfbf" points="146.8,-56.5 146.8,-75.5 199.8,-75.5 199.8,-56.5 146.8,-56.5"/>
<text text-anchor="middle" x="173.3" y="-63.5" font-family="Helvetica,sans-Serif" font-size="10.00">stdlib.h</text>
</a>
</g>
</g>
<!-- Node1&#45;&gt;Node4 -->
<g id="edge3" class="edge">
<title>Node1&#45;&gt;Node4</title>
<path fill="none" stroke="midnightblue" d="M134.38,-112.4C141.87,-103.66 151.51,-92.41 159.33,-83.3"/>
<polygon fill="midnightblue" stroke="midnightblue" points="162.03,-85.53 165.88,-75.66 156.71,-80.97 162.03,-85.53"/>
</g>
<!-- Node5 -->
<g id="node5" class="node">
<title>Node5</title>
<g id="a_node5"><a xlink:href="i18n_8h.html" target="_top" xlink:title=" ">
<polygon fill="white" stroke="black" points="218.3,-56.5 218.3,-75.5 298.3,-75.5 298.3,-56.5 218.3,-56.5"/>
<text text-anchor="middle" x="258.3" y="-63.5" font-family="Helvetica,sans-Serif" font-size="10.00">libexif/i18n.h</text>
</a>
</g>
</g>
<!-- Node1&#45;&gt;Node5 -->
<g id="edge4" class="edge">
<title>Node1&#45;&gt;Node5</title>
<path fill="none" stroke="midnightblue" d="M154.53,-112.4C177.14,-102.51 207.14,-89.38 229.06,-79.79"/>
<polygon fill="midnightblue" stroke="midnightblue" points="230.75,-82.87 238.51,-75.66 227.94,-76.46 230.75,-82.87"/>
</g>
<!-- Node5&#45;&gt;Node2 -->
<g id="edge5" class="edge">
<title>Node5&#45;&gt;Node2</title>
<path fill="none" stroke="midnightblue" d="M236.75,-56.44C214.27,-47.52 178.81,-33.44 153.32,-23.32"/>
<polygon fill="midnightblue" stroke="midnightblue" points="154.33,-19.95 143.75,-19.52 151.75,-26.46 154.33,-19.95"/>
</g>
</g>
</svg>
