<?xml version="1.0" encoding="UTF-8" standalone="no"?>
<!DOCTYPE svg PUBLIC "-//W3C//DTD SVG 1.1//EN"
 "http://www.w3.org/Graphics/SVG/1.1/DTD/svg11.dtd">
<!-- Generated by graphviz version 2.44.1 (0)
 -->
<!-- Title: libexif/fuji/mnote&#45;fuji&#45;entry.c Pages: 1 -->
<svg width="653pt" height="520pt"
 viewBox="0.00 0.00 653.00 520.00" xmlns="http://www.w3.org/2000/svg" xmlns:xlink="http://www.w3.org/1999/xlink">
<g id="graph0" class="graph" transform="scale(1 1) rotate(0) translate(4 516)">
<title>libexif/fuji/mnote&#45;fuji&#45;entry.c</title>
<polygon fill="white" stroke="transparent" points="-4,4 -4,-516 649,-516 649,4 -4,4"/>
<!-- Node1 -->
<g id="node1" class="node">
<title>Node1</title>
<g id="a_node1"><a xlink:title=" ">
<polygon fill="#bfbfbf" stroke="black" points="179.5,-481.5 179.5,-511.5 280.5,-511.5 280.5,-481.5 179.5,-481.5"/>
<text text-anchor="start" x="187.5" y="-499.5" font-family="Helvetica,sans-Serif" font-size="10.00">libexif/fuji/mnote</text>
<text text-anchor="middle" x="230" y="-488.5" font-family="Helvetica,sans-Serif" font-size="10.00">&#45;fuji&#45;entry.c</text>
</a>
</g>
</g>
<!-- Node2 -->
<g id="node2" class="node">
<title>Node2</title>
<g id="a_node2"><a xlink:title=" ">
<polygon fill="white" stroke="#bfbfbf" points="36.5,-425.5 36.5,-444.5 89.5,-444.5 89.5,-425.5 36.5,-425.5"/>
<text text-anchor="middle" x="63" y="-432.5" font-family="Helvetica,sans-Serif" font-size="10.00">stdlib.h</text>
</a>
</g>
</g>
<!-- Node1&#45;&gt;Node2 -->
<g id="edge1" class="edge">
<title>Node1&#45;&gt;Node2</title>
<path fill="none" stroke="midnightblue" d="M190.42,-481.4C161.9,-471.24 123.83,-457.67 96.74,-448.02"/>
<polygon fill="midnightblue" stroke="midnightblue" points="97.89,-444.72 87.3,-444.66 95.55,-451.31 97.89,-444.72"/>
</g>
<!-- Node3 -->
<g id="node3" class="node">
<title>Node3</title>
<g id="a_node3"><a xlink:title=" ">
<polygon fill="white" stroke="#bfbfbf" points="108,-425.5 108,-444.5 158,-444.5 158,-425.5 108,-425.5"/>
<text text-anchor="middle" x="133" y="-432.5" font-family="Helvetica,sans-Serif" font-size="10.00">stdio.h</text>
</a>
</g>
</g>
<!-- Node1&#45;&gt;Node3 -->
<g id="edge2" class="edge">
<title>Node1&#45;&gt;Node3</title>
<path fill="none" stroke="midnightblue" d="M207.01,-481.4C191.61,-471.95 171.41,-459.56 156,-450.11"/>
<polygon fill="midnightblue" stroke="midnightblue" points="157.47,-446.9 147.11,-444.66 153.81,-452.87 157.47,-446.9"/>
</g>
<!-- Node4 -->
<g id="node4" class="node">
<title>Node4</title>
<g id="a_node4"><a xlink:title=" ">
<polygon fill="white" stroke="#bfbfbf" points="176.5,-425.5 176.5,-444.5 229.5,-444.5 229.5,-425.5 176.5,-425.5"/>
<text text-anchor="middle" x="203" y="-432.5" font-family="Helvetica,sans-Serif" font-size="10.00">string.h</text>
</a>
</g>
</g>
<!-- Node1&#45;&gt;Node4 -->
<g id="edge3" class="edge">
<title>Node1&#45;&gt;Node4</title>
<path fill="none" stroke="midnightblue" d="M223.6,-481.4C219.88,-473.2 215.15,-462.78 211.17,-453.99"/>
<polygon fill="midnightblue" stroke="midnightblue" points="214.25,-452.32 206.93,-444.66 207.87,-455.21 214.25,-452.32"/>
</g>
<!-- Node5 -->
<g id="node5" class="node">
<title>Node5</title>
<g id="a_node5"><a xlink:title=" ">
<polygon fill="white" stroke="#bfbfbf" points="230,-364 230,-383 286,-383 286,-364 230,-364"/>
<text text-anchor="middle" x="258" y="-371" font-family="Helvetica,sans-Serif" font-size="10.00">config.h</text>
</a>
</g>
</g>
<!-- Node1&#45;&gt;Node5 -->
<g id="edge4" class="edge">
<title>Node1&#45;&gt;Node5</title>
<path fill="none" stroke="midnightblue" d="M233.32,-481.14C238.4,-459.2 248.09,-417.33 253.7,-393.09"/>
<polygon fill="midnightblue" stroke="midnightblue" points="257.18,-393.58 256.02,-383.05 250.36,-392.01 257.18,-393.58"/>
</g>
<!-- Node6 -->
<g id="node6" class="node">
<title>Node6</title>
<g id="a_node6"><a xlink:href="i18n_8h.html" target="_top" xlink:title=" ">
<polygon fill="white" stroke="black" points="286,-425.5 286,-444.5 366,-444.5 366,-425.5 286,-425.5"/>
<text text-anchor="middle" x="326" y="-432.5" font-family="Helvetica,sans-Serif" font-size="10.00">libexif/i18n.h</text>
</a>
</g>
</g>
<!-- Node1&#45;&gt;Node6 -->
<g id="edge5" class="edge">
<title>Node1&#45;&gt;Node6</title>
<path fill="none" stroke="midnightblue" d="M252.75,-481.4C267.99,-471.95 287.99,-459.56 303.24,-450.11"/>
<polygon fill="midnightblue" stroke="midnightblue" points="305.38,-452.9 312.03,-444.66 301.69,-446.95 305.38,-452.9"/>
</g>
<!-- Node7 -->
<g id="node7" class="node">
<title>Node7</title>
<g id="a_node7"><a xlink:href="mnote-fuji-entry_8h.html" target="_top" xlink:title=" ">
<polygon fill="white" stroke="black" points="433,-425.5 433,-444.5 537,-444.5 537,-425.5 433,-425.5"/>
<text text-anchor="middle" x="485" y="-432.5" font-family="Helvetica,sans-Serif" font-size="10.00">mnote&#45;fuji&#45;entry.h</text>
</a>
</g>
</g>
<!-- Node1&#45;&gt;Node7 -->
<g id="edge7" class="edge">
<title>Node1&#45;&gt;Node7</title>
<path fill="none" stroke="midnightblue" d="M280.68,-483.67C326.63,-472.95 393.8,-457.28 438.43,-446.87"/>
<polygon fill="midnightblue" stroke="midnightblue" points="439.48,-450.21 448.43,-444.53 437.89,-443.4 439.48,-450.21"/>
</g>
<!-- Node6&#45;&gt;Node5 -->
<g id="edge6" class="edge">
<title>Node6&#45;&gt;Node5</title>
<path fill="none" stroke="midnightblue" d="M316.26,-425.48C305.65,-416.2 288.48,-401.17 275.52,-389.83"/>
<polygon fill="midnightblue" stroke="midnightblue" points="277.56,-386.96 267.72,-383.01 272.95,-392.23 277.56,-386.96"/>
</g>
<!-- Node8 -->
<g id="node8" class="node">
<title>Node8</title>
<g id="a_node8"><a xlink:href="exif-format_8h.html" target="_top" xlink:title="Handling native EXIF data types.">
<polygon fill="white" stroke="black" points="480.5,-0.5 480.5,-19.5 593.5,-19.5 593.5,-0.5 480.5,-0.5"/>
<text text-anchor="middle" x="537" y="-7.5" font-family="Helvetica,sans-Serif" font-size="10.00">libexif/exif&#45;format.h</text>
</a>
</g>
</g>
<!-- Node7&#45;&gt;Node8 -->
<g id="edge8" class="edge">
<title>Node7&#45;&gt;Node8</title>
<path fill="none" stroke="midnightblue" d="M514.72,-425.45C560.99,-410.1 645,-373.19 645,-307.5 645,-307.5 645,-307.5 645,-121 645,-75.21 596.75,-41.49 564.75,-24.16"/>
<polygon fill="midnightblue" stroke="midnightblue" points="566.3,-21.02 555.81,-19.51 563.07,-27.23 566.3,-21.02"/>
</g>
<!-- Node9 -->
<g id="node9" class="node">
<title>Node9</title>
<g id="a_node9"><a xlink:href="mnote-fuji-tag_8h.html" target="_top" xlink:title=" ">
<polygon fill="white" stroke="black" points="304.5,-358.5 304.5,-388.5 405.5,-388.5 405.5,-358.5 304.5,-358.5"/>
<text text-anchor="start" x="312.5" y="-376.5" font-family="Helvetica,sans-Serif" font-size="10.00">libexif/fuji/mnote</text>
<text text-anchor="middle" x="355" y="-365.5" font-family="Helvetica,sans-Serif" font-size="10.00">&#45;fuji&#45;tag.h</text>
</a>
</g>
</g>
<!-- Node7&#45;&gt;Node9 -->
<g id="edge9" class="edge">
<title>Node7&#45;&gt;Node9</title>
<path fill="none" stroke="midnightblue" d="M466.37,-425.48C447.78,-416.96 418.62,-403.62 394.8,-392.72"/>
<polygon fill="midnightblue" stroke="midnightblue" points="396.19,-389.5 385.64,-388.52 393.27,-395.87 396.19,-389.5"/>
</g>
<!-- Node23 -->
<g id="node23" class="node">
<title>Node23</title>
<g id="a_node23"><a xlink:href="exif-mnote-data-fuji_8h.html" target="_top" xlink:title=" ">
<polygon fill="white" stroke="black" points="424,-358.5 424,-388.5 546,-388.5 546,-358.5 424,-358.5"/>
<text text-anchor="start" x="432" y="-376.5" font-family="Helvetica,sans-Serif" font-size="10.00">libexif/fuji/exif&#45;mnote</text>
<text text-anchor="middle" x="485" y="-365.5" font-family="Helvetica,sans-Serif" font-size="10.00">&#45;data&#45;fuji.h</text>
</a>
</g>
</g>
<!-- Node7&#45;&gt;Node23 -->
<g id="edge36" class="edge">
<title>Node7&#45;&gt;Node23</title>
<path fill="none" stroke="midnightblue" d="M480.1,-425.48C478.57,-418.47 477.99,-408.19 478.36,-398.7"/>
<polygon fill="midnightblue" stroke="midnightblue" points="481.86,-398.77 479.17,-388.52 474.88,-398.21 481.86,-398.77"/>
</g>
<!-- Node10 -->
<g id="node10" class="node">
<title>Node10</title>
<g id="a_node10"><a xlink:href="exif-data_8h.html" target="_top" xlink:title="Defines the ExifData type and the associated functions.">
<polygon fill="white" stroke="black" points="271,-297 271,-316 373,-316 373,-297 271,-297"/>
<text text-anchor="middle" x="322" y="-304" font-family="Helvetica,sans-Serif" font-size="10.00">libexif/exif&#45;data.h</text>
</a>
</g>
</g>
<!-- Node9&#45;&gt;Node10 -->
<g id="edge10" class="edge">
<title>Node9&#45;&gt;Node10</title>
<path fill="none" stroke="midnightblue" d="M347.84,-358.4C342.9,-348.66 336.29,-335.65 330.99,-325.21"/>
<polygon fill="midnightblue" stroke="midnightblue" points="334.06,-323.53 326.41,-316.19 327.82,-326.7 334.06,-323.53"/>
</g>
<!-- Node11 -->
<g id="node11" class="node">
<title>Node11</title>
<g id="a_node11"><a xlink:href="exif-byte-order_8h.html" target="_top" xlink:title="Defines the ExifByteOrder enum and the associated functions.">
<polygon fill="white" stroke="black" points="220.5,-0.5 220.5,-19.5 351.5,-19.5 351.5,-0.5 220.5,-0.5"/>
<text text-anchor="middle" x="286" y="-7.5" font-family="Helvetica,sans-Serif" font-size="10.00">libexif/exif&#45;byte&#45;order.h</text>
</a>
</g>
</g>
<!-- Node10&#45;&gt;Node11 -->
<g id="edge11" class="edge">
<title>Node10&#45;&gt;Node11</title>
<path fill="none" stroke="midnightblue" d="M270.75,-301.79C221.65,-296.59 146.58,-284.2 88,-255 41.75,-231.94 0,-230.68 0,-179 0,-179 0,-179 0,-121 0,-72.88 142.81,-37.84 226.6,-21.42"/>
<polygon fill="midnightblue" stroke="midnightblue" points="227.35,-24.84 236.51,-19.51 226.03,-17.97 227.35,-24.84"/>
</g>
<!-- Node12 -->
<g id="node12" class="node">
<title>Node12</title>
<g id="a_node12"><a xlink:href="exif-data-type_8h.html" target="_top" xlink:title=" ">
<polygon fill="white" stroke="black" points="140,-112.5 140,-131.5 268,-131.5 268,-112.5 140,-112.5"/>
<text text-anchor="middle" x="204" y="-119.5" font-family="Helvetica,sans-Serif" font-size="10.00">libexif/exif&#45;data&#45;type.h</text>
</a>
</g>
</g>
<!-- Node10&#45;&gt;Node12 -->
<g id="edge12" class="edge">
<title>Node10&#45;&gt;Node12</title>
<path fill="none" stroke="midnightblue" d="M302.08,-296.95C284.89,-288.61 260.59,-274.35 246,-255 219.9,-220.39 209.73,-169.08 206,-141.74"/>
<polygon fill="midnightblue" stroke="midnightblue" points="209.45,-141.12 204.77,-131.61 202.5,-141.96 209.45,-141.12"/>
</g>
<!-- Node13 -->
<g id="node13" class="node">
<title>Node13</title>
<g id="a_node13"><a xlink:href="exif-ifd_8h.html" target="_top" xlink:title=" ">
<polygon fill="white" stroke="black" points="28.5,-112.5 28.5,-131.5 121.5,-131.5 121.5,-112.5 28.5,-112.5"/>
<text text-anchor="middle" x="75" y="-119.5" font-family="Helvetica,sans-Serif" font-size="10.00">libexif/exif&#45;ifd.h</text>
</a>
</g>
</g>
<!-- Node10&#45;&gt;Node13 -->
<g id="edge13" class="edge">
<title>Node10&#45;&gt;Node13</title>
<path fill="none" stroke="midnightblue" d="M275.38,-296.97C239.47,-289.22 189.33,-275.78 149,-255 106.24,-232.97 84.99,-231.28 64,-188 56.84,-173.23 61.15,-154.6 66.33,-141.08"/>
<polygon fill="midnightblue" stroke="midnightblue" points="69.55,-142.45 70.29,-131.88 63.12,-139.69 69.55,-142.45"/>
</g>
<!-- Node14 -->
<g id="node14" class="node">
<title>Node14</title>
<g id="a_node14"><a xlink:href="exif-log_8h.html" target="_top" xlink:title="Log message infrastructure.">
<polygon fill="white" stroke="black" points="441.5,-168.5 441.5,-187.5 536.5,-187.5 536.5,-168.5 441.5,-168.5"/>
<text text-anchor="middle" x="489" y="-175.5" font-family="Helvetica,sans-Serif" font-size="10.00">libexif/exif&#45;log.h</text>
</a>
</g>
</g>
<!-- Node10&#45;&gt;Node14 -->
<g id="edge14" class="edge">
<title>Node10&#45;&gt;Node14</title>
<path fill="none" stroke="midnightblue" d="M333.93,-296.65C347.38,-286.64 369.88,-269.8 389,-255 406.51,-241.45 410.42,-237.46 428,-224 441.49,-213.67 456.88,-202.32 468.83,-193.6"/>
<polygon fill="midnightblue" stroke="midnightblue" points="471.18,-196.22 477.21,-187.5 467.07,-190.55 471.18,-196.22"/>
</g>
<!-- Node15 -->
<g id="node15" class="node">
<title>Node15</title>
<g id="a_node15"><a xlink:href="exif-mem_8h.html" target="_top" xlink:title="Define the ExifMem data type and the associated functions.">
<polygon fill="white" stroke="black" points="318,-112.5 318,-131.5 424,-131.5 424,-112.5 318,-112.5"/>
<text text-anchor="middle" x="371" y="-119.5" font-family="Helvetica,sans-Serif" font-size="10.00">libexif/exif&#45;mem.h</text>
</a>
</g>
</g>
<!-- Node10&#45;&gt;Node15 -->
<g id="edge35" class="edge">
<title>Node10&#45;&gt;Node15</title>
<path fill="none" stroke="midnightblue" d="M302.1,-296.99C285.84,-288.84 263.98,-274.84 254,-255 247.81,-242.69 249.22,-236.92 254,-224 269.37,-182.44 313.59,-152.47 343.05,-136.43"/>
<polygon fill="midnightblue" stroke="midnightblue" points="344.81,-139.46 352.04,-131.72 341.56,-133.26 344.81,-139.46"/>
</g>
<!-- Node19 -->
<g id="node19" class="node">
<title>Node19</title>
<g id="a_node19"><a xlink:href="exif-tag_8h.html" target="_top" xlink:title="Handling EXIF tags.">
<polygon fill="white" stroke="black" points="73,-168.5 73,-187.5 169,-187.5 169,-168.5 73,-168.5"/>
<text text-anchor="middle" x="121" y="-175.5" font-family="Helvetica,sans-Serif" font-size="10.00">libexif/exif&#45;tag.h</text>
</a>
</g>
</g>
<!-- Node10&#45;&gt;Node19 -->
<g id="edge21" class="edge">
<title>Node10&#45;&gt;Node19</title>
<path fill="none" stroke="midnightblue" d="M281.54,-296.93C252.24,-289.34 212.73,-276.11 183,-255 160.83,-239.26 142.2,-213.59 131.31,-196.5"/>
<polygon fill="midnightblue" stroke="midnightblue" points="134.05,-194.26 125.83,-187.57 128.08,-197.92 134.05,-194.26"/>
</g>
<!-- Node20 -->
<g id="node20" class="node">
<title>Node20</title>
<g id="a_node20"><a xlink:href="exif-content_8h.html" target="_top" xlink:title="Handling EXIF IFDs.">
<polygon fill="white" stroke="black" points="263.5,-230 263.5,-249 380.5,-249 380.5,-230 263.5,-230"/>
<text text-anchor="middle" x="322" y="-237" font-family="Helvetica,sans-Serif" font-size="10.00">libexif/exif&#45;content.h</text>
</a>
</g>
</g>
<!-- Node10&#45;&gt;Node20 -->
<g id="edge24" class="edge">
<title>Node10&#45;&gt;Node20</title>
<path fill="none" stroke="midnightblue" d="M317.21,-296.73C315.2,-287.18 314.74,-271.62 315.82,-259.28"/>
<polygon fill="midnightblue" stroke="midnightblue" points="319.32,-259.52 317.24,-249.13 312.38,-258.54 319.32,-259.52"/>
</g>
<!-- Node22 -->
<g id="node22" class="node">
<title>Node22</title>
<g id="a_node22"><a xlink:href="exif-mnote-data_8h.html" target="_top" xlink:title="Handling EXIF MakerNote tags.">
<polygon fill="white" stroke="black" points="437.5,-224.5 437.5,-254.5 540.5,-254.5 540.5,-224.5 437.5,-224.5"/>
<text text-anchor="start" x="445.5" y="-242.5" font-family="Helvetica,sans-Serif" font-size="10.00">libexif/exif&#45;mnote</text>
<text text-anchor="middle" x="489" y="-231.5" font-family="Helvetica,sans-Serif" font-size="10.00">&#45;data.h</text>
</a>
</g>
</g>
<!-- Node10&#45;&gt;Node22 -->
<g id="edge33" class="edge">
<title>Node10&#45;&gt;Node22</title>
<path fill="none" stroke="midnightblue" d="M344.18,-296.87C369.34,-287.07 411.08,-270.83 443.29,-258.29"/>
<polygon fill="midnightblue" stroke="midnightblue" points="444.91,-261.42 452.96,-254.53 442.37,-254.89 444.91,-261.42"/>
</g>
<!-- Node14&#45;&gt;Node15 -->
<g id="edge15" class="edge">
<title>Node14&#45;&gt;Node15</title>
<path fill="none" stroke="midnightblue" d="M470.3,-168.44C451.06,-159.64 420.85,-145.81 398.8,-135.72"/>
<polygon fill="midnightblue" stroke="midnightblue" points="400.16,-132.5 389.61,-131.52 397.25,-138.86 400.16,-132.5"/>
</g>
<!-- Node18 -->
<g id="node18" class="node">
<title>Node18</title>
<g id="a_node18"><a xlink:title=" ">
<polygon fill="white" stroke="#bfbfbf" points="523,-112.5 523,-131.5 579,-131.5 579,-112.5 523,-112.5"/>
<text text-anchor="middle" x="551" y="-119.5" font-family="Helvetica,sans-Serif" font-size="10.00">stdarg.h</text>
</a>
</g>
</g>
<!-- Node14&#45;&gt;Node18 -->
<g id="edge20" class="edge">
<title>Node14&#45;&gt;Node18</title>
<path fill="none" stroke="midnightblue" d="M498.96,-168.32C508.13,-160.34 521.94,-148.31 533.03,-138.65"/>
<polygon fill="midnightblue" stroke="midnightblue" points="535.62,-141.04 540.86,-131.83 531.02,-135.76 535.62,-141.04"/>
</g>
<!-- Node16 -->
<g id="node16" class="node">
<title>Node16</title>
<g id="a_node16"><a xlink:href="exif-utils_8h.html" target="_top" xlink:title="EXIF data manipulation functions and types.">
<polygon fill="white" stroke="black" points="365.5,-56.5 365.5,-75.5 466.5,-75.5 466.5,-56.5 365.5,-56.5"/>
<text text-anchor="middle" x="416" y="-63.5" font-family="Helvetica,sans-Serif" font-size="10.00">libexif/exif&#45;utils.h</text>
</a>
</g>
</g>
<!-- Node15&#45;&gt;Node16 -->
<g id="edge16" class="edge">
<title>Node15&#45;&gt;Node16</title>
<path fill="none" stroke="midnightblue" d="M378.43,-112.08C384.85,-104.38 394.31,-93.03 402.12,-83.65"/>
<polygon fill="midnightblue" stroke="midnightblue" points="404.99,-85.67 408.71,-75.75 399.62,-81.19 404.99,-85.67"/>
</g>
<!-- Node16&#45;&gt;Node8 -->
<g id="edge18" class="edge">
<title>Node16&#45;&gt;Node8</title>
<path fill="none" stroke="midnightblue" d="M435.17,-56.44C454.91,-47.64 485.89,-33.81 508.49,-23.72"/>
<polygon fill="midnightblue" stroke="midnightblue" points="510.21,-26.79 517.92,-19.52 507.36,-20.4 510.21,-26.79"/>
</g>
<!-- Node16&#45;&gt;Node11 -->
<g id="edge17" class="edge">
<title>Node16&#45;&gt;Node11</title>
<path fill="none" stroke="midnightblue" d="M395.4,-56.44C374.01,-47.56 340.32,-33.56 315.98,-23.45"/>
<polygon fill="midnightblue" stroke="midnightblue" points="317.08,-20.12 306.5,-19.52 314.39,-26.58 317.08,-20.12"/>
</g>
<!-- Node17 -->
<g id="node17" class="node">
<title>Node17</title>
<g id="a_node17"><a xlink:title=" ">
<polygon fill="white" stroke="#bfbfbf" points="370,-0.5 370,-19.5 462,-19.5 462,-0.5 370,-0.5"/>
<text text-anchor="middle" x="416" y="-7.5" font-family="Helvetica,sans-Serif" font-size="10.00">libexif/_stdint.h</text>
</a>
</g>
</g>
<!-- Node16&#45;&gt;Node17 -->
<g id="edge19" class="edge">
<title>Node16&#45;&gt;Node17</title>
<path fill="none" stroke="midnightblue" d="M416,-56.08C416,-49.01 416,-38.86 416,-29.99"/>
<polygon fill="midnightblue" stroke="midnightblue" points="419.5,-29.75 416,-19.75 412.5,-29.75 419.5,-29.75"/>
</g>
<!-- Node19&#45;&gt;Node12 -->
<g id="edge23" class="edge">
<title>Node19&#45;&gt;Node12</title>
<path fill="none" stroke="midnightblue" d="M134.34,-168.32C147.16,-159.98 166.78,-147.21 181.94,-137.35"/>
<polygon fill="midnightblue" stroke="midnightblue" points="184.22,-140.04 190.7,-131.65 180.41,-134.17 184.22,-140.04"/>
</g>
<!-- Node19&#45;&gt;Node13 -->
<g id="edge22" class="edge">
<title>Node19&#45;&gt;Node13</title>
<path fill="none" stroke="midnightblue" d="M113.4,-168.08C106.77,-160.3 96.98,-148.8 88.94,-139.37"/>
<polygon fill="midnightblue" stroke="midnightblue" points="91.6,-137.09 82.45,-131.75 86.27,-141.63 91.6,-137.09"/>
</g>
<!-- Node20&#45;&gt;Node10 -->
<g id="edge30" class="edge">
<title>Node20&#45;&gt;Node10</title>
<path fill="none" stroke="midnightblue" d="M326.76,-249.13C328.78,-258.62 329.26,-274.17 328.2,-286.54"/>
<polygon fill="midnightblue" stroke="midnightblue" points="324.69,-286.35 326.79,-296.73 331.63,-287.31 324.69,-286.35"/>
</g>
<!-- Node20&#45;&gt;Node14 -->
<g id="edge31" class="edge">
<title>Node20&#45;&gt;Node14</title>
<path fill="none" stroke="midnightblue" d="M345.93,-229.98C374.7,-219.72 423.16,-202.46 455.6,-190.9"/>
<polygon fill="midnightblue" stroke="midnightblue" points="456.87,-194.16 465.12,-187.51 454.52,-187.57 456.87,-194.16"/>
</g>
<!-- Node20&#45;&gt;Node15 -->
<g id="edge32" class="edge">
<title>Node20&#45;&gt;Node15</title>
<path fill="none" stroke="midnightblue" d="M317.24,-229.75C310.41,-215.89 299.7,-188.39 310,-168 316.81,-154.52 329.77,-144.08 342,-136.67"/>
<polygon fill="midnightblue" stroke="midnightblue" points="344.07,-139.52 351.09,-131.59 340.66,-133.41 344.07,-139.52"/>
</g>
<!-- Node20&#45;&gt;Node19 -->
<g id="edge25" class="edge">
<title>Node20&#45;&gt;Node19</title>
<path fill="none" stroke="midnightblue" d="M293.2,-229.98C258.13,-219.59 198.74,-202.01 159.69,-190.45"/>
<polygon fill="midnightblue" stroke="midnightblue" points="160.33,-186.99 149.74,-187.51 158.34,-193.7 160.33,-186.99"/>
</g>
<!-- Node21 -->
<g id="node21" class="node">
<title>Node21</title>
<g id="a_node21"><a xlink:href="exif-entry_8h.html" target="_top" xlink:title="Handling EXIF entries.">
<polygon fill="white" stroke="black" points="319,-168.5 319,-187.5 423,-187.5 423,-168.5 319,-168.5"/>
<text text-anchor="middle" x="371" y="-175.5" font-family="Helvetica,sans-Serif" font-size="10.00">libexif/exif&#45;entry.h</text>
</a>
</g>
</g>
<!-- Node20&#45;&gt;Node21 -->
<g id="edge26" class="edge">
<title>Node20&#45;&gt;Node21</title>
<path fill="none" stroke="midnightblue" d="M324.12,-229.98C329.68,-220.78 341.52,-205.96 352.08,-194.66"/>
<polygon fill="midnightblue" stroke="midnightblue" points="354.59,-197.1 359.1,-187.51 349.59,-192.19 354.59,-197.1"/>
</g>
<!-- Node21&#45;&gt;Node8 -->
<g id="edge28" class="edge">
<title>Node21&#45;&gt;Node8</title>
<path fill="none" stroke="midnightblue" d="M385,-168.2C398.05,-159.69 417.74,-146.06 433,-132 469.68,-98.22 506.19,-52.12 524.64,-27.73"/>
<polygon fill="midnightblue" stroke="midnightblue" points="527.6,-29.62 530.79,-19.51 522,-25.42 527.6,-29.62"/>
</g>
<!-- Node21&#45;&gt;Node15 -->
<g id="edge29" class="edge">
<title>Node21&#45;&gt;Node15</title>
<path fill="none" stroke="midnightblue" d="M371,-168.08C371,-161.01 371,-150.86 371,-141.99"/>
<polygon fill="midnightblue" stroke="midnightblue" points="374.5,-141.75 371,-131.75 367.5,-141.75 374.5,-141.75"/>
</g>
<!-- Node21&#45;&gt;Node20 -->
<g id="edge27" class="edge">
<title>Node21&#45;&gt;Node20</title>
<path fill="none" stroke="midnightblue" d="M368.89,-187.51C363.33,-196.69 351.5,-211.52 340.94,-222.82"/>
<polygon fill="midnightblue" stroke="midnightblue" points="338.43,-220.39 333.92,-229.98 343.42,-225.29 338.43,-220.39"/>
</g>
<!-- Node22&#45;&gt;Node14 -->
<g id="edge34" class="edge">
<title>Node22&#45;&gt;Node14</title>
<path fill="none" stroke="midnightblue" d="M489,-224.4C489,-216.47 489,-206.46 489,-197.86"/>
<polygon fill="midnightblue" stroke="midnightblue" points="492.5,-197.66 489,-187.66 485.5,-197.66 492.5,-197.66"/>
</g>
<!-- Node23&#45;&gt;Node7 -->
<g id="edge43" class="edge">
<title>Node23&#45;&gt;Node7</title>
<path fill="none" stroke="midnightblue" d="M490.83,-388.52C491.87,-396.59 492.03,-406.81 491.3,-415.53"/>
<polygon fill="midnightblue" stroke="midnightblue" points="487.83,-415.09 489.9,-425.48 494.76,-416.06 487.83,-415.09"/>
</g>
<!-- Node23&#45;&gt;Node10 -->
<g id="edge42" class="edge">
<title>Node23&#45;&gt;Node10</title>
<path fill="none" stroke="midnightblue" d="M449.63,-358.4C420.78,-346.89 380.42,-330.8 352.86,-319.81"/>
<polygon fill="midnightblue" stroke="midnightblue" points="353.92,-316.46 343.33,-316.01 351.33,-322.96 353.92,-316.46"/>
</g>
<!-- Node23&#45;&gt;Node22 -->
<g id="edge37" class="edge">
<title>Node23&#45;&gt;Node22</title>
<path fill="none" stroke="midnightblue" d="M485.43,-358.37C486.1,-336.04 487.43,-292.31 488.26,-264.85"/>
<polygon fill="midnightblue" stroke="midnightblue" points="491.77,-264.63 488.58,-254.52 484.77,-264.41 491.77,-264.63"/>
</g>
<!-- Node24 -->
<g id="node24" class="node">
<title>Node24</title>
<g id="a_node24"><a xlink:href="exif-mnote-data-priv_8h.html" target="_top" xlink:title=" ">
<polygon fill="white" stroke="black" points="513.5,-291.5 513.5,-321.5 616.5,-321.5 616.5,-291.5 513.5,-291.5"/>
<text text-anchor="start" x="521.5" y="-309.5" font-family="Helvetica,sans-Serif" font-size="10.00">libexif/exif&#45;mnote</text>
<text text-anchor="middle" x="565" y="-298.5" font-family="Helvetica,sans-Serif" font-size="10.00">&#45;data&#45;priv.h</text>
</a>
</g>
</g>
<!-- Node23&#45;&gt;Node24 -->
<g id="edge38" class="edge">
<title>Node23&#45;&gt;Node24</title>
<path fill="none" stroke="midnightblue" d="M502.36,-358.4C513.26,-349.54 527.51,-337.96 539.66,-328.09"/>
<polygon fill="midnightblue" stroke="midnightblue" points="542.12,-330.6 547.68,-321.58 537.71,-325.17 542.12,-330.6"/>
</g>
<!-- Node24&#45;&gt;Node11 -->
<g id="edge40" class="edge">
<title>Node24&#45;&gt;Node11</title>
<path fill="none" stroke="midnightblue" d="M573.02,-291.28C591.64,-256.17 632.9,-164.41 588,-112 520.11,-32.76 449.9,-121.5 356,-76 332.79,-64.76 311.95,-43.19 299.17,-27.99"/>
<polygon fill="midnightblue" stroke="midnightblue" points="301.63,-25.47 292.61,-19.91 296.19,-29.88 301.63,-25.47"/>
</g>
<!-- Node24&#45;&gt;Node14 -->
<g id="edge41" class="edge">
<title>Node24&#45;&gt;Node14</title>
<path fill="none" stroke="midnightblue" d="M565.22,-291.42C564.84,-274.23 562.11,-244.88 549,-224 540.84,-210.99 527.46,-200.42 515.41,-192.8"/>
<polygon fill="midnightblue" stroke="midnightblue" points="516.94,-189.64 506.56,-187.55 513.37,-195.66 516.94,-189.64"/>
</g>
<!-- Node24&#45;&gt;Node22 -->
<g id="edge39" class="edge">
<title>Node24&#45;&gt;Node22</title>
<path fill="none" stroke="midnightblue" d="M548.51,-291.4C538.15,-282.54 524.62,-270.96 513.07,-261.09"/>
<polygon fill="midnightblue" stroke="midnightblue" points="515.33,-258.42 505.46,-254.58 510.78,-263.74 515.33,-258.42"/>
</g>
</g>
</svg>
