<?xml version="1.0" encoding="UTF-8" standalone="no"?>
<!DOCTYPE svg PUBLIC "-//W3C//DTD SVG 1.1//EN"
 "http://www.w3.org/Graphics/SVG/1.1/DTD/svg11.dtd">
<!-- Generated by graphviz version 7.0.1 (0)
 -->
<!-- Title: libexif/canon/mnote&#45;canon&#45;entry.c Pages: 1 -->
<svg width="1093pt" height="500pt"
 viewBox="0.00 0.00 1092.50 500.00" xmlns="http://www.w3.org/2000/svg" xmlns:xlink="http://www.w3.org/1999/xlink">
<g id="graph0" class="graph" transform="scale(1 1) rotate(0) translate(4 496)">
<title>libexif/canon/mnote&#45;canon&#45;entry.c</title>
<!-- Node1 -->
<g id="Node000001" class="node">
<title>Node1</title>
<g id="a_Node000001"><a xlink:title=" ">
<polygon fill="#999999" stroke="#666666" points="852,-492 738,-492 738,-462 852,-462 852,-492"/>
<text text-anchor="start" x="746" y="-480" font-family="Helvetica,sans-Serif" font-size="10.00">libexif/canon/mnote</text>
<text text-anchor="middle" x="795" y="-469" font-family="Helvetica,sans-Serif" font-size="10.00">&#45;canon&#45;entry.c</text>
</a>
</g>
</g>
<!-- Node2 -->
<g id="Node000002" class="node">
<title>Node2</title>
<g id="a_Node000002"><a xlink:title=" ">
<polygon fill="#e0e0e0" stroke="#999999" points="93,-365.5 37,-365.5 37,-346.5 93,-346.5 93,-365.5"/>
<text text-anchor="middle" x="65" y="-353.5" font-family="Helvetica,sans-Serif" font-size="10.00">config.h</text>
</a>
</g>
</g>
<!-- Node1&#45;&gt;Node2 -->
<g id="edge1_Node000001_Node000002" class="edge">
<title>Node1&#45;&gt;Node2</title>
<g id="a_edge1_Node000001_Node000002"><a xlink:title=" ">
<path fill="none" stroke="#63b8ff" d="M737.65,-474C586.68,-468.4 186.14,-451.33 132,-426 108.2,-414.86 88.35,-391.35 76.58,-374.88"/>
<polygon fill="#63b8ff" stroke="#63b8ff" points="79.71,-373.26 71.19,-366.96 73.92,-377.2 79.71,-373.26"/>
</a>
</g>
</g>
<!-- Node3 -->
<g id="Node000003" class="node">
<title>Node3</title>
<g id="a_Node000003"><a xlink:href="mnote-canon-entry_8h.html" target="_top" xlink:title=" ">
<polygon fill="white" stroke="#666666" points="690,-426 572,-426 572,-407 690,-407 690,-426"/>
<text text-anchor="middle" x="631" y="-414" font-family="Helvetica,sans-Serif" font-size="10.00">mnote&#45;canon&#45;entry.h</text>
</a>
</g>
</g>
<!-- Node1&#45;&gt;Node3 -->
<g id="edge2_Node000001_Node000003" class="edge">
<title>Node1&#45;&gt;Node3</title>
<g id="a_edge2_Node000001_Node000003"><a xlink:title=" ">
<path fill="none" stroke="#63b8ff" d="M754.46,-461.54C727.52,-451.93 692.49,-439.43 666.62,-430.21"/>
<polygon fill="#63b8ff" stroke="#63b8ff" points="667.82,-426.92 657.23,-426.85 665.47,-433.51 667.82,-426.92"/>
</a>
</g>
</g>
<!-- Node4 -->
<g id="Node000004" class="node">
<title>Node4</title>
<g id="a_Node000004"><a xlink:href="exif-format_8h.html" target="_top" xlink:title="Handling native EXIF data types.">
<polygon fill="white" stroke="#666666" points="392.5,-19 279.5,-19 279.5,0 392.5,0 392.5,-19"/>
<text text-anchor="middle" x="336" y="-7" font-family="Helvetica,sans-Serif" font-size="10.00">libexif/exif&#45;format.h</text>
</a>
</g>
</g>
<!-- Node1&#45;&gt;Node4 -->
<g id="edge36_Node000001_Node000004" class="edge">
<title>Node1&#45;&gt;Node4</title>
<g id="a_edge36_Node000001_Node000004"><a xlink:title=" ">
<path fill="none" stroke="#63b8ff" d="M737.69,-471.52C579.09,-458.34 146,-416.89 146,-357 146,-357 146,-357 146,-118.5 146,-60.55 213.63,-33.31 268.19,-20.76"/>
<polygon fill="#63b8ff" stroke="#63b8ff" points="268.74,-24.22 277.77,-18.68 267.26,-17.38 268.74,-24.22"/>
</a>
</g>
</g>
<!-- Node12 -->
<g id="Node000012" class="node">
<title>Node12</title>
<g id="a_Node000012"><a xlink:href="exif-utils_8h.html" target="_top" xlink:title="EXIF data manipulation functions and types.">
<polygon fill="white" stroke="#666666" points="638.5,-74 537.5,-74 537.5,-55 638.5,-55 638.5,-74"/>
<text text-anchor="middle" x="588" y="-62" font-family="Helvetica,sans-Serif" font-size="10.00">libexif/exif&#45;utils.h</text>
</a>
</g>
</g>
<!-- Node1&#45;&gt;Node12 -->
<g id="edge37_Node000001_Node000012" class="edge">
<title>Node1&#45;&gt;Node12</title>
<g id="a_edge37_Node000001_Node000012"><a xlink:title=" ">
<path fill="none" stroke="#63b8ff" d="M797.7,-461.63C803.16,-431.27 815,-358.27 815,-296.5 815,-296.5 815,-296.5 815,-234 815,-145.2 701.61,-97.75 635.11,-77.56"/>
<polygon fill="#63b8ff" stroke="#63b8ff" points="636.5,-74.32 625.92,-74.87 634.53,-81.04 636.5,-74.32"/>
</a>
</g>
</g>
<!-- Node19 -->
<g id="Node000019" class="node">
<title>Node19</title>
<g id="a_Node000019"><a xlink:title=" ">
<polygon fill="#e0e0e0" stroke="#999999" points="873,-426 823,-426 823,-407 873,-407 873,-426"/>
<text text-anchor="middle" x="848" y="-414" font-family="Helvetica,sans-Serif" font-size="10.00">stdio.h</text>
</a>
</g>
</g>
<!-- Node1&#45;&gt;Node19 -->
<g id="edge32_Node000001_Node000019" class="edge">
<title>Node1&#45;&gt;Node19</title>
<g id="a_edge32_Node000001_Node000019"><a xlink:title=" ">
<path fill="none" stroke="#63b8ff" d="M808.1,-461.54C815.48,-453.39 824.75,-443.16 832.5,-434.61"/>
<polygon fill="#63b8ff" stroke="#63b8ff" points="835,-437.06 839.12,-427.3 829.82,-432.36 835,-437.06"/>
</a>
</g>
</g>
<!-- Node20 -->
<g id="Node000020" class="node">
<title>Node20</title>
<g id="a_Node000020"><a xlink:title=" ">
<polygon fill="#e0e0e0" stroke="#999999" points="944.5,-426 891.5,-426 891.5,-407 944.5,-407 944.5,-426"/>
<text text-anchor="middle" x="918" y="-414" font-family="Helvetica,sans-Serif" font-size="10.00">stdlib.h</text>
</a>
</g>
</g>
<!-- Node1&#45;&gt;Node20 -->
<g id="edge33_Node000001_Node000020" class="edge">
<title>Node1&#45;&gt;Node20</title>
<g id="a_edge33_Node000001_Node000020"><a xlink:title=" ">
<path fill="none" stroke="#63b8ff" d="M825.4,-461.54C844.88,-452.28 870.01,-440.33 889.17,-431.21"/>
<polygon fill="#63b8ff" stroke="#63b8ff" points="890.51,-434.45 898.03,-427 887.5,-428.13 890.51,-434.45"/>
</a>
</g>
</g>
<!-- Node21 -->
<g id="Node000021" class="node">
<title>Node21</title>
<g id="a_Node000021"><a xlink:title=" ">
<polygon fill="#e0e0e0" stroke="#999999" points="1015.5,-426 962.5,-426 962.5,-407 1015.5,-407 1015.5,-426"/>
<text text-anchor="middle" x="989" y="-414" font-family="Helvetica,sans-Serif" font-size="10.00">string.h</text>
</a>
</g>
</g>
<!-- Node1&#45;&gt;Node21 -->
<g id="edge34_Node000001_Node000021" class="edge">
<title>Node1&#45;&gt;Node21</title>
<g id="a_edge34_Node000001_Node000021"><a xlink:title=" ">
<path fill="none" stroke="#63b8ff" d="M842.96,-461.54C876.43,-451.44 920.49,-438.16 951.42,-428.83"/>
<polygon fill="#63b8ff" stroke="#63b8ff" points="952.17,-432.26 960.73,-426.02 950.15,-425.56 952.17,-432.26"/>
</a>
</g>
</g>
<!-- Node22 -->
<g id="Node000022" class="node">
<title>Node22</title>
<g id="a_Node000022"><a xlink:title=" ">
<polygon fill="#e0e0e0" stroke="#999999" points="1084.5,-426 1033.5,-426 1033.5,-407 1084.5,-407 1084.5,-426"/>
<text text-anchor="middle" x="1059" y="-414" font-family="Helvetica,sans-Serif" font-size="10.00">math.h</text>
</a>
</g>
</g>
<!-- Node1&#45;&gt;Node22 -->
<g id="edge35_Node000001_Node000022" class="edge">
<title>Node1&#45;&gt;Node22</title>
<g id="a_edge35_Node000001_Node000022"><a xlink:title=" ">
<path fill="none" stroke="#63b8ff" d="M852.3,-464.06C896.35,-454.76 959,-441.29 1022.08,-426.63"/>
<polygon fill="#63b8ff" stroke="#63b8ff" points="1022.61,-430.1 1031.56,-424.42 1021.02,-423.29 1022.61,-430.1"/>
</a>
</g>
</g>
<!-- Node23 -->
<g id="Node000023" class="node">
<title>Node23</title>
<g id="a_Node000023"><a xlink:href="i18n_8h.html" target="_top" xlink:title=" ">
<polygon fill="white" stroke="#666666" points="80,-426 0,-426 0,-407 80,-407 80,-426"/>
<text text-anchor="middle" x="40" y="-414" font-family="Helvetica,sans-Serif" font-size="10.00">libexif/i18n.h</text>
</a>
</g>
</g>
<!-- Node1&#45;&gt;Node23 -->
<g id="edge38_Node000001_Node000023" class="edge">
<title>Node1&#45;&gt;Node23</title>
<g id="a_edge38_Node000001_Node000023"><a xlink:title=" ">
<path fill="none" stroke="#63b8ff" d="M737.6,-473.56C617.74,-468.1 332.2,-453.19 94,-426 93.17,-425.91 92.33,-425.81 91.49,-425.71"/>
<polygon fill="#63b8ff" stroke="#63b8ff" points="92.22,-422.27 81.85,-424.43 91.3,-429.21 92.22,-422.27"/>
</a>
</g>
</g>
<!-- Node3&#45;&gt;Node4 -->
<g id="edge3_Node000003_Node000004" class="edge">
<title>Node3&#45;&gt;Node4</title>
<g id="a_edge3_Node000003_Node000004"><a xlink:title=" ">
<path fill="none" stroke="#63b8ff" d="M571.64,-412.12C450.05,-403.57 184,-375.8 184,-296.5 184,-296.5 184,-296.5 184,-118.5 184,-66.72 243.33,-37.49 287.86,-22.84"/>
<polygon fill="#63b8ff" stroke="#63b8ff" points="288.87,-26.19 297.37,-19.87 286.78,-19.51 288.87,-26.19"/>
</a>
</g>
</g>
<!-- Node5 -->
<g id="Node000005" class="node">
<title>Node5</title>
<g id="a_Node000005"><a xlink:href="exif-byte-order_8h.html" target="_top" xlink:title="Defines the ExifByteOrder enum and the associated functions.">
<polygon fill="white" stroke="#666666" points="804.5,-19 673.5,-19 673.5,0 804.5,0 804.5,-19"/>
<text text-anchor="middle" x="739" y="-7" font-family="Helvetica,sans-Serif" font-size="10.00">libexif/exif&#45;byte&#45;order.h</text>
</a>
</g>
</g>
<!-- Node3&#45;&gt;Node5 -->
<g id="edge4_Node000003_Node000005" class="edge">
<title>Node3&#45;&gt;Node5</title>
<g id="a_edge4_Node000003_Node000005"><a xlink:title=" ">
<path fill="none" stroke="#63b8ff" d="M659.84,-406.59C702.39,-391.44 777,-356.34 777,-296.5 777,-296.5 777,-296.5 777,-234 777,-153.73 770.44,-133.35 753,-55 751.15,-46.7 748.46,-37.72 745.94,-30.02"/>
<polygon fill="#63b8ff" stroke="#63b8ff" points="749.29,-29 742.73,-20.68 742.67,-31.27 749.29,-29"/>
</a>
</g>
</g>
<!-- Node6 -->
<g id="Node000006" class="node">
<title>Node6</title>
<g id="a_Node000006"><a xlink:href="mnote-canon-tag_8h.html" target="_top" xlink:title=" ">
<polygon fill="white" stroke="#666666" points="649,-371 535,-371 535,-341 649,-341 649,-371"/>
<text text-anchor="start" x="543" y="-359" font-family="Helvetica,sans-Serif" font-size="10.00">libexif/canon/mnote</text>
<text text-anchor="middle" x="592" y="-348" font-family="Helvetica,sans-Serif" font-size="10.00">&#45;canon&#45;tag.h</text>
</a>
</g>
</g>
<!-- Node3&#45;&gt;Node6 -->
<g id="edge5_Node000003_Node000006" class="edge">
<title>Node3&#45;&gt;Node6</title>
<g id="a_edge5_Node000003_Node000006"><a xlink:title=" ">
<path fill="none" stroke="#63b8ff" d="M625.25,-406.87C620.64,-399.96 613.95,-389.93 607.78,-380.67"/>
<polygon fill="#63b8ff" stroke="#63b8ff" points="610.71,-378.75 602.25,-372.37 604.88,-382.64 610.71,-378.75"/>
</a>
</g>
</g>
<!-- Node7 -->
<g id="Node000007" class="node">
<title>Node7</title>
<g id="a_Node000007"><a xlink:href="exif-data_8h.html" target="_top" xlink:title="Defines the ExifData type and the associated functions.">
<polygon fill="white" stroke="#666666" points="524,-305 422,-305 422,-286 524,-286 524,-305"/>
<text text-anchor="middle" x="473" y="-293" font-family="Helvetica,sans-Serif" font-size="10.00">libexif/exif&#45;data.h</text>
</a>
</g>
</g>
<!-- Node6&#45;&gt;Node7 -->
<g id="edge6_Node000006_Node000007" class="edge">
<title>Node6&#45;&gt;Node7</title>
<g id="a_edge6_Node000006_Node000007"><a xlink:title=" ">
<path fill="none" stroke="#63b8ff" d="M562.58,-340.54C543.83,-331.32 519.66,-319.44 501.15,-310.34"/>
<polygon fill="#63b8ff" stroke="#63b8ff" points="502.87,-307.28 492.35,-306.01 499.78,-313.57 502.87,-307.28"/>
</a>
</g>
</g>
<!-- Node7&#45;&gt;Node5 -->
<g id="edge7_Node000007_Node000005" class="edge">
<title>Node7&#45;&gt;Node5</title>
<g id="a_edge7_Node000007_Node000005"><a xlink:title=" ">
<path fill="none" stroke="#63b8ff" d="M524.27,-291.58C587.85,-286.9 691.25,-275.53 719,-250 744.23,-226.79 739,-209.78 739,-175.5 739,-175.5 739,-175.5 739,-118.5 739,-87.92 739,-52.48 739,-30.77"/>
<polygon fill="#63b8ff" stroke="#63b8ff" points="742.5,-30.97 739,-20.97 735.5,-30.97 742.5,-30.97"/>
</a>
</g>
</g>
<!-- Node8 -->
<g id="Node000008" class="node">
<title>Node8</title>
<g id="a_Node000008"><a xlink:href="exif-data-type_8h.html" target="_top" xlink:title=" ">
<polygon fill="white" stroke="#666666" points="452,-129 324,-129 324,-110 452,-110 452,-129"/>
<text text-anchor="middle" x="388" y="-117" font-family="Helvetica,sans-Serif" font-size="10.00">libexif/exif&#45;data&#45;type.h</text>
</a>
</g>
</g>
<!-- Node7&#45;&gt;Node8 -->
<g id="edge8_Node000007_Node000008" class="edge">
<title>Node7&#45;&gt;Node8</title>
<g id="a_edge8_Node000007_Node000008"><a xlink:title=" ">
<path fill="none" stroke="#63b8ff" d="M436.22,-285.52C417.73,-278.95 396.98,-267.95 386,-250 365.23,-216.05 374.14,-167.15 381.61,-140.2"/>
<polygon fill="#63b8ff" stroke="#63b8ff" points="384.96,-141.22 384.49,-130.64 378.25,-139.2 384.96,-141.22"/>
</a>
</g>
</g>
<!-- Node9 -->
<g id="Node000009" class="node">
<title>Node9</title>
<g id="a_Node000009"><a xlink:href="exif-ifd_8h.html" target="_top" xlink:title=" ">
<polygon fill="white" stroke="#666666" points="305.5,-129 212.5,-129 212.5,-110 305.5,-110 305.5,-129"/>
<text text-anchor="middle" x="259" y="-117" font-family="Helvetica,sans-Serif" font-size="10.00">libexif/exif&#45;ifd.h</text>
</a>
</g>
</g>
<!-- Node7&#45;&gt;Node9 -->
<g id="edge9_Node000007_Node000009" class="edge">
<title>Node7&#45;&gt;Node9</title>
<g id="a_edge9_Node000007_Node000009"><a xlink:title=" ">
<path fill="none" stroke="#63b8ff" d="M425.22,-285.53C394.55,-278.56 354.52,-267.14 322,-250 280.92,-228.34 260.93,-225.94 241,-184 234.16,-169.61 240.06,-152.11 246.88,-139.13"/>
<polygon fill="#63b8ff" stroke="#63b8ff" points="249.75,-141.16 251.8,-130.77 243.72,-137.62 249.75,-141.16"/>
</a>
</g>
</g>
<!-- Node10 -->
<g id="Node000010" class="node">
<title>Node10</title>
<g id="a_Node000010"><a xlink:href="exif-log_8h.html" target="_top" xlink:title="Log message infrastructure.">
<polygon fill="white" stroke="#666666" points="695.5,-184 600.5,-184 600.5,-165 695.5,-165 695.5,-184"/>
<text text-anchor="middle" x="648" y="-172" font-family="Helvetica,sans-Serif" font-size="10.00">libexif/exif&#45;log.h</text>
</a>
</g>
</g>
<!-- Node7&#45;&gt;Node10 -->
<g id="edge10_Node000007_Node000010" class="edge">
<title>Node7&#45;&gt;Node10</title>
<g id="a_edge10_Node000007_Node000010"><a xlink:title=" ">
<path fill="none" stroke="#63b8ff" d="M491.78,-285.51C508.77,-277.1 534.22,-263.8 555,-250 582.29,-231.87 611.42,-207.66 629.65,-191.83"/>
<polygon fill="#63b8ff" stroke="#63b8ff" points="631.78,-194.61 636.99,-185.39 627.17,-189.35 631.78,-194.61"/>
</a>
</g>
</g>
<!-- Node11 -->
<g id="Node000011" class="node">
<title>Node11</title>
<g id="a_Node000011"><a xlink:href="exif-mem_8h.html" target="_top" xlink:title="Define the ExifMem data type and the associated functions.">
<polygon fill="white" stroke="#666666" points="620,-129 514,-129 514,-110 620,-110 620,-129"/>
<text text-anchor="middle" x="567" y="-117" font-family="Helvetica,sans-Serif" font-size="10.00">libexif/exif&#45;mem.h</text>
</a>
</g>
</g>
<!-- Node7&#45;&gt;Node11 -->
<g id="edge31_Node000007_Node000011" class="edge">
<title>Node7&#45;&gt;Node11</title>
<g id="a_edge31_Node000007_Node000011"><a xlink:title=" ">
<path fill="none" stroke="#63b8ff" d="M485.63,-285.58C496.36,-277.41 511.5,-264.43 521,-250 544,-215.06 557.07,-167.25 563.03,-140.57"/>
<polygon fill="#63b8ff" stroke="#63b8ff" points="566.45,-141.31 565.08,-130.81 559.6,-139.87 566.45,-141.31"/>
</a>
</g>
</g>
<!-- Node15 -->
<g id="Node000015" class="node">
<title>Node15</title>
<g id="a_Node000015"><a xlink:href="exif-tag_8h.html" target="_top" xlink:title="Handling EXIF tags.">
<polygon fill="white" stroke="#666666" points="346,-184 250,-184 250,-165 346,-165 346,-184"/>
<text text-anchor="middle" x="298" y="-172" font-family="Helvetica,sans-Serif" font-size="10.00">libexif/exif&#45;tag.h</text>
</a>
</g>
</g>
<!-- Node7&#45;&gt;Node15 -->
<g id="edge17_Node000007_Node000015" class="edge">
<title>Node7&#45;&gt;Node15</title>
<g id="a_edge17_Node000007_Node000015"><a xlink:title=" ">
<path fill="none" stroke="#63b8ff" d="M431.75,-285.55C407.14,-278.74 376.26,-267.5 353,-250 332.98,-234.94 316.95,-210.6 307.47,-193.87"/>
<polygon fill="#63b8ff" stroke="#63b8ff" points="310.77,-192.6 302.93,-185.47 304.61,-195.93 310.77,-192.6"/>
</a>
</g>
</g>
<!-- Node16 -->
<g id="Node000016" class="node">
<title>Node16</title>
<g id="a_Node000016"><a xlink:href="exif-content_8h.html" target="_top" xlink:title="Handling EXIF IFDs.">
<polygon fill="white" stroke="#666666" points="512.5,-244.5 395.5,-244.5 395.5,-225.5 512.5,-225.5 512.5,-244.5"/>
<text text-anchor="middle" x="454" y="-232.5" font-family="Helvetica,sans-Serif" font-size="10.00">libexif/exif&#45;content.h</text>
</a>
</g>
</g>
<!-- Node7&#45;&gt;Node16 -->
<g id="edge20_Node000007_Node000016" class="edge">
<title>Node7&#45;&gt;Node16</title>
<g id="a_edge20_Node000007_Node000016"><a xlink:title=" ">
<path fill="none" stroke="#63b8ff" d="M465.24,-285.87C460.99,-278 456.63,-266.1 454.03,-255.89"/>
<polygon fill="#63b8ff" stroke="#63b8ff" points="457.48,-255.3 452.14,-246.15 450.61,-256.64 457.48,-255.3"/>
</a>
</g>
</g>
<!-- Node18 -->
<g id="Node000018" class="node">
<title>Node18</title>
<g id="a_Node000018"><a xlink:href="exif-mnote-data_8h.html" target="_top" xlink:title="Handling EXIF MakerNote tags.">
<polygon fill="white" stroke="#666666" points="710.5,-250 607.5,-250 607.5,-220 710.5,-220 710.5,-250"/>
<text text-anchor="start" x="615.5" y="-238" font-family="Helvetica,sans-Serif" font-size="10.00">libexif/exif&#45;mnote</text>
<text text-anchor="middle" x="659" y="-227" font-family="Helvetica,sans-Serif" font-size="10.00">&#45;data.h</text>
</a>
</g>
</g>
<!-- Node7&#45;&gt;Node18 -->
<g id="edge29_Node000007_Node000018" class="edge">
<title>Node7&#45;&gt;Node18</title>
<g id="a_edge29_Node000007_Node000018"><a xlink:title=" ">
<path fill="none" stroke="#63b8ff" d="M501.25,-285.62C528.03,-277.19 569.02,-264.3 602.51,-253.77"/>
<polygon fill="#63b8ff" stroke="#63b8ff" points="603.16,-257.23 611.65,-250.89 601.06,-250.56 603.16,-257.23"/>
</a>
</g>
</g>
<!-- Node10&#45;&gt;Node11 -->
<g id="edge11_Node000010_Node000011" class="edge">
<title>Node10&#45;&gt;Node11</title>
<g id="a_edge11_Node000010_Node000011"><a xlink:title=" ">
<path fill="none" stroke="#63b8ff" d="M634.26,-164.51C622.2,-156.62 604.41,-144.98 590.16,-135.65"/>
<polygon fill="#63b8ff" stroke="#63b8ff" points="592.09,-132.73 581.8,-130.19 588.26,-138.59 592.09,-132.73"/>
</a>
</g>
</g>
<!-- Node14 -->
<g id="Node000014" class="node">
<title>Node14</title>
<g id="a_Node000014"><a xlink:title=" ">
<polygon fill="#e0e0e0" stroke="#999999" points="694,-129 638,-129 638,-110 694,-110 694,-129"/>
<text text-anchor="middle" x="666" y="-117" font-family="Helvetica,sans-Serif" font-size="10.00">stdarg.h</text>
</a>
</g>
</g>
<!-- Node10&#45;&gt;Node14 -->
<g id="edge16_Node000010_Node000014" class="edge">
<title>Node10&#45;&gt;Node14</title>
<g id="a_edge16_Node000010_Node000014"><a xlink:title=" ">
<path fill="none" stroke="#63b8ff" d="M650.97,-164.75C653.23,-158.11 656.41,-148.73 659.27,-140.31"/>
<polygon fill="#63b8ff" stroke="#63b8ff" points="662.57,-141.47 662.48,-130.88 655.95,-139.22 662.57,-141.47"/>
</a>
</g>
</g>
<!-- Node11&#45;&gt;Node12 -->
<g id="edge12_Node000011_Node000012" class="edge">
<title>Node11&#45;&gt;Node12</title>
<g id="a_edge12_Node000011_Node000012"><a xlink:title=" ">
<path fill="none" stroke="#63b8ff" d="M570.47,-109.75C573.13,-103.04 576.9,-93.52 580.26,-85.02"/>
<polygon fill="#63b8ff" stroke="#63b8ff" points="583.47,-86.44 583.9,-75.85 576.96,-83.86 583.47,-86.44"/>
</a>
</g>
</g>
<!-- Node12&#45;&gt;Node4 -->
<g id="edge14_Node000012_Node000004" class="edge">
<title>Node12&#45;&gt;Node4</title>
<g id="a_edge14_Node000012_Node000004"><a xlink:title=" ">
<path fill="none" stroke="#63b8ff" d="M545.25,-54.51C502.31,-45.48 436.02,-31.54 389.59,-21.77"/>
<polygon fill="#63b8ff" stroke="#63b8ff" points="390.52,-18.39 380.02,-19.76 389.08,-25.24 390.52,-18.39"/>
</a>
</g>
</g>
<!-- Node12&#45;&gt;Node5 -->
<g id="edge13_Node000012_Node000005" class="edge">
<title>Node12&#45;&gt;Node5</title>
<g id="a_edge13_Node000012_Node000005"><a xlink:title=" ">
<path fill="none" stroke="#63b8ff" d="M613.62,-54.51C638.09,-45.92 675.24,-32.88 702.75,-23.22"/>
<polygon fill="#63b8ff" stroke="#63b8ff" points="703.81,-26.56 712.08,-19.95 701.49,-19.96 703.81,-26.56"/>
</a>
</g>
</g>
<!-- Node13 -->
<g id="Node000013" class="node">
<title>Node13</title>
<g id="a_Node000013"><a xlink:title=" ">
<polygon fill="#e0e0e0" stroke="#999999" points="634,-19 542,-19 542,0 634,0 634,-19"/>
<text text-anchor="middle" x="588" y="-7" font-family="Helvetica,sans-Serif" font-size="10.00">libexif/_stdint.h</text>
</a>
</g>
</g>
<!-- Node12&#45;&gt;Node13 -->
<g id="edge15_Node000012_Node000013" class="edge">
<title>Node12&#45;&gt;Node13</title>
<g id="a_edge15_Node000012_Node000013"><a xlink:title=" ">
<path fill="none" stroke="#63b8ff" d="M588,-54.75C588,-48.27 588,-39.16 588,-30.9"/>
<polygon fill="#63b8ff" stroke="#63b8ff" points="591.5,-30.96 588,-20.96 584.5,-30.96 591.5,-30.96"/>
</a>
</g>
</g>
<!-- Node15&#45;&gt;Node8 -->
<g id="edge19_Node000015_Node000008" class="edge">
<title>Node15&#45;&gt;Node8</title>
<g id="a_edge19_Node000015_Node000008"><a xlink:title=" ">
<path fill="none" stroke="#63b8ff" d="M313.27,-164.51C326.93,-156.47 347.2,-144.53 363.18,-135.11"/>
<polygon fill="#63b8ff" stroke="#63b8ff" points="364.81,-138.22 371.65,-130.13 361.26,-132.18 364.81,-138.22"/>
</a>
</g>
</g>
<!-- Node15&#45;&gt;Node9 -->
<g id="edge18_Node000015_Node000009" class="edge">
<title>Node15&#45;&gt;Node9</title>
<g id="a_edge18_Node000015_Node000009"><a xlink:title=" ">
<path fill="none" stroke="#63b8ff" d="M291.56,-164.75C286.34,-157.66 278.81,-147.42 272.31,-138.59"/>
<polygon fill="#63b8ff" stroke="#63b8ff" points="275.22,-136.64 266.48,-130.66 269.58,-140.79 275.22,-136.64"/>
</a>
</g>
</g>
<!-- Node16&#45;&gt;Node7 -->
<g id="edge26_Node000016_Node000007" class="edge">
<title>Node16&#45;&gt;Node7</title>
<g id="a_edge26_Node000016_Node000007"><a xlink:title=" ">
<path fill="none" stroke="#63b8ff" d="M461.78,-244.67C466.03,-252.54 470.39,-264.45 472.98,-274.66"/>
<polygon fill="#63b8ff" stroke="#63b8ff" points="469.53,-275.23 474.86,-284.38 476.4,-273.9 469.53,-275.23"/>
</a>
</g>
</g>
<!-- Node16&#45;&gt;Node10 -->
<g id="edge27_Node000016_Node000010" class="edge">
<title>Node16&#45;&gt;Node10</title>
<g id="a_edge27_Node000016_Node000010"><a xlink:title=" ">
<path fill="none" stroke="#63b8ff" d="M483.46,-225.12C516.51,-215.15 570.31,-198.93 607.35,-187.76"/>
<polygon fill="#63b8ff" stroke="#63b8ff" points="608.25,-191.14 616.81,-184.91 606.22,-184.44 608.25,-191.14"/>
</a>
</g>
</g>
<!-- Node16&#45;&gt;Node11 -->
<g id="edge28_Node000016_Node000011" class="edge">
<title>Node16&#45;&gt;Node11</title>
<g id="a_edge28_Node000016_Node000011"><a xlink:title=" ">
<path fill="none" stroke="#63b8ff" d="M466.29,-225.07C479.06,-215.54 499.32,-199.69 515,-184 529.45,-169.54 544.03,-151.35 554.06,-138.15"/>
<polygon fill="#63b8ff" stroke="#63b8ff" points="556.68,-140.49 559.86,-130.38 551.07,-136.3 556.68,-140.49"/>
</a>
</g>
</g>
<!-- Node16&#45;&gt;Node15 -->
<g id="edge21_Node000016_Node000015" class="edge">
<title>Node16&#45;&gt;Node15</title>
<g id="a_edge21_Node000016_Node000015"><a xlink:title=" ">
<path fill="none" stroke="#63b8ff" d="M430.31,-225.12C404.31,-215.37 362.33,-199.62 332.64,-188.49"/>
<polygon fill="#63b8ff" stroke="#63b8ff" points="333.93,-185.23 323.33,-185 331.47,-191.79 333.93,-185.23"/>
</a>
</g>
</g>
<!-- Node17 -->
<g id="Node000017" class="node">
<title>Node17</title>
<g id="a_Node000017"><a xlink:href="exif-entry_8h.html" target="_top" xlink:title="Handling EXIF entries.">
<polygon fill="white" stroke="#666666" points="506,-184 402,-184 402,-165 506,-165 506,-184"/>
<text text-anchor="middle" x="454" y="-172" font-family="Helvetica,sans-Serif" font-size="10.00">libexif/exif&#45;entry.h</text>
</a>
</g>
</g>
<!-- Node16&#45;&gt;Node17 -->
<g id="edge22_Node000016_Node000017" class="edge">
<title>Node16&#45;&gt;Node17</title>
<g id="a_edge22_Node000016_Node000017"><a xlink:title=" ">
<path fill="none" stroke="#63b8ff" d="M449.04,-225.37C447.35,-217.5 446.85,-205.6 447.57,-195.39"/>
<polygon fill="#63b8ff" stroke="#63b8ff" points="451.01,-196.04 448.84,-185.67 444.07,-195.13 451.01,-196.04"/>
</a>
</g>
</g>
<!-- Node17&#45;&gt;Node4 -->
<g id="edge24_Node000017_Node000004" class="edge">
<title>Node17&#45;&gt;Node4</title>
<g id="a_edge24_Node000017_Node000004"><a xlink:title=" ">
<path fill="none" stroke="#63b8ff" d="M457.78,-164.79C462.69,-152.07 469.67,-127.98 461,-110 441.5,-69.55 396.66,-40.46 366.34,-24.55"/>
<polygon fill="#63b8ff" stroke="#63b8ff" points="368.14,-21.54 357.64,-20.15 364.99,-27.79 368.14,-21.54"/>
</a>
</g>
</g>
<!-- Node17&#45;&gt;Node11 -->
<g id="edge25_Node000017_Node000011" class="edge">
<title>Node17&#45;&gt;Node11</title>
<g id="a_edge25_Node000017_Node000011"><a xlink:title=" ">
<path fill="none" stroke="#63b8ff" d="M473.17,-164.51C490.89,-156.2 517.48,-143.73 537.83,-134.18"/>
<polygon fill="#63b8ff" stroke="#63b8ff" points="539.18,-137.42 546.74,-130 536.2,-131.08 539.18,-137.42"/>
</a>
</g>
</g>
<!-- Node17&#45;&gt;Node16 -->
<g id="edge23_Node000017_Node000016" class="edge">
<title>Node17&#45;&gt;Node16</title>
<g id="a_edge23_Node000017_Node000016"><a xlink:title=" ">
<path fill="none" stroke="#63b8ff" d="M458.96,-184.17C460.66,-192.04 461.15,-203.95 460.43,-214.16"/>
<polygon fill="#63b8ff" stroke="#63b8ff" points="456.99,-213.5 459.15,-223.87 463.93,-214.41 456.99,-213.5"/>
</a>
</g>
</g>
<!-- Node18&#45;&gt;Node10 -->
<g id="edge30_Node000018_Node000010" class="edge">
<title>Node18&#45;&gt;Node10</title>
<g id="a_edge30_Node000018_Node000010"><a xlink:title=" ">
<path fill="none" stroke="#63b8ff" d="M656.28,-219.54C654.91,-212.26 653.23,-203.31 651.74,-195.39"/>
<polygon fill="#63b8ff" stroke="#63b8ff" points="655.2,-194.84 649.91,-185.66 648.32,-196.14 655.2,-194.84"/>
</a>
</g>
</g>
<!-- Node23&#45;&gt;Node2 -->
<g id="edge39_Node000023_Node000002" class="edge">
<title>Node23&#45;&gt;Node2</title>
<g id="a_edge39_Node000023_Node000002"><a xlink:title=" ">
<path fill="none" stroke="#63b8ff" d="M43.69,-406.87C47.12,-398.83 52.36,-386.57 56.79,-376.22"/>
<polygon fill="#63b8ff" stroke="#63b8ff" points="59.99,-377.63 60.7,-367.06 53.55,-374.88 59.99,-377.63"/>
</a>
</g>
</g>
</g>
</svg>
