<?xml version="1.0" encoding="UTF-8" standalone="no"?>
<!DOCTYPE svg PUBLIC "-//W3C//DTD SVG 1.1//EN"
 "http://www.w3.org/Graphics/SVG/1.1/DTD/svg11.dtd">
<!-- Generated by graphviz version 7.0.1 (0)
 -->
<!-- Title: mnote_fuji_entry_get_value Pages: 1 -->
<svg width="528pt" height="188pt"
 viewBox="0.00 0.00 528.00 187.54" xmlns="http://www.w3.org/2000/svg" xmlns:xlink="http://www.w3.org/1999/xlink">
<g id="graph0" class="graph" transform="scale(1 1) rotate(0) translate(4 183.54)">
<title>mnote_fuji_entry_get_value</title>
<!-- Node1 -->
<g id="Node000001" class="node">
<title>Node1</title>
<g id="a_Node000001"><a xlink:title=" ">
<polygon fill="#999999" stroke="#666666" points="121,-109.5 0,-109.5 0,-79.5 121,-79.5 121,-109.5"/>
<text text-anchor="start" x="8" y="-97.5" font-family="Helvetica,sans-Serif" font-size="10.00">mnote_fuji_entry_get</text>
<text text-anchor="middle" x="60.5" y="-86.5" font-family="Helvetica,sans-Serif" font-size="10.00">_value</text>
</a>
</g>
</g>
<!-- Node2 -->
<g id="Node000002" class="node">
<title>Node2</title>
<g id="a_Node000002"><a xlink:href="exif-utils_8c.html#a4ad94614630897766dd0a5c9bc2a59bf" target="_top" xlink:title="Retrieve an ExifLong value from memory.">
<polygon fill="white" stroke="#666666" points="385.5,-161 302.5,-161 302.5,-142 385.5,-142 385.5,-161"/>
<text text-anchor="middle" x="344" y="-149" font-family="Helvetica,sans-Serif" font-size="10.00">exif_get_long</text>
</a>
</g>
</g>
<!-- Node1&#45;&gt;Node2 -->
<g id="edge1_Node000001_Node000002" class="edge">
<title>Node1&#45;&gt;Node2</title>
<g id="a_edge1_Node000001_Node000002"><a xlink:title=" ">
<path fill="none" stroke="#63b8ff" d="M74.49,-109.8C91.31,-128.3 122.59,-158.48 157,-170.5 206.09,-187.65 266.57,-175.9 304.97,-164.7"/>
<polygon fill="#63b8ff" stroke="#63b8ff" points="305.68,-168.14 314.21,-161.87 303.63,-161.45 305.68,-168.14"/>
</a>
</g>
</g>
<!-- Node3 -->
<g id="Node000003" class="node">
<title>Node3</title>
<g id="a_Node000003"><a xlink:href="exif-utils_8c.html#a56b96f076a13da6ed926e1ef29cb2dc3" target="_top" xlink:title="Retrieve an ExifSLong value from memory.">
<polygon fill="white" stroke="#666666" points="520,-123 432,-123 432,-104 520,-104 520,-123"/>
<text text-anchor="middle" x="476" y="-111" font-family="Helvetica,sans-Serif" font-size="10.00">exif_get_slong</text>
</a>
</g>
</g>
<!-- Node1&#45;&gt;Node3 -->
<g id="edge7_Node000001_Node000003" class="edge">
<title>Node1&#45;&gt;Node3</title>
<g id="a_edge7_Node000001_Node000003"><a xlink:title=" ">
<path fill="none" stroke="#63b8ff" d="M121.18,-97.24C201.39,-100.93 342.8,-107.43 420.34,-110.99"/>
<polygon fill="#63b8ff" stroke="#63b8ff" points="420.1,-114.48 430.25,-111.44 420.42,-107.49 420.1,-114.48"/>
</a>
</g>
</g>
<!-- Node4 -->
<g id="Node000004" class="node">
<title>Node4</title>
<g id="a_Node000004"><a xlink:href="exif-utils_8c.html#a1feb547c289aa57a4d2119338b03706c" target="_top" xlink:title="Retrieve an ExifRational value from memory.">
<polygon fill="white" stroke="#666666" points="256,-161 157,-161 157,-142 256,-142 256,-161"/>
<text text-anchor="middle" x="206.5" y="-149" font-family="Helvetica,sans-Serif" font-size="10.00">exif_get_rational</text>
</a>
</g>
</g>
<!-- Node1&#45;&gt;Node4 -->
<g id="edge3_Node000001_Node000004" class="edge">
<title>Node1&#45;&gt;Node4</title>
<g id="a_edge3_Node000001_Node000004"><a xlink:title=" ">
<path fill="none" stroke="#63b8ff" d="M100.47,-109.93C122.17,-118.52 148.99,-129.13 170.09,-137.49"/>
<polygon fill="#63b8ff" stroke="#63b8ff" points="168.56,-140.64 179.14,-141.07 171.13,-134.13 168.56,-140.64"/>
</a>
</g>
</g>
<!-- Node5 -->
<g id="Node000005" class="node">
<title>Node5</title>
<g id="a_Node000005"><a xlink:href="exif-utils_8c.html#a4b4acf537a8c6b9405e7b53be868e4d7" target="_top" xlink:title="Retrieve an ExifShort value from memory.">
<polygon fill="white" stroke="#666666" points="249.5,-85 163.5,-85 163.5,-66 249.5,-66 249.5,-85"/>
<text text-anchor="middle" x="206.5" y="-73" font-family="Helvetica,sans-Serif" font-size="10.00">exif_get_short</text>
</a>
</g>
</g>
<!-- Node1&#45;&gt;Node5 -->
<g id="edge5_Node000001_Node000005" class="edge">
<title>Node1&#45;&gt;Node5</title>
<g id="a_edge5_Node000001_Node000005"><a xlink:title=" ">
<path fill="none" stroke="#63b8ff" d="M121.32,-86.61C131.43,-85.27 141.86,-83.9 151.8,-82.58"/>
<polygon fill="#63b8ff" stroke="#63b8ff" points="152.24,-86.06 161.69,-81.28 151.32,-79.12 152.24,-86.06"/>
</a>
</g>
</g>
<!-- Node6 -->
<g id="Node000006" class="node">
<title>Node6</title>
<g id="a_Node000006"><a xlink:href="exif-utils_8c.html#a6baf094a71392f9cea23ad633ec13c8b" target="_top" xlink:title="Retrieve an ExifSShort value from memory.">
<polygon fill="white" stroke="#666666" points="390,-75 298,-75 298,-56 390,-56 390,-75"/>
<text text-anchor="middle" x="344" y="-63" font-family="Helvetica,sans-Serif" font-size="10.00">exif_get_sshort</text>
</a>
</g>
</g>
<!-- Node1&#45;&gt;Node6 -->
<g id="edge10_Node000001_Node000006" class="edge">
<title>Node1&#45;&gt;Node6</title>
<g id="a_edge10_Node000001_Node000006"><a xlink:title=" ">
<path fill="none" stroke="#63b8ff" d="M92.47,-79.14C110.75,-70.93 134.63,-61.68 157,-57.5 200.04,-49.45 249.62,-52.16 286.77,-56.5"/>
<polygon fill="#63b8ff" stroke="#63b8ff" points="286.01,-59.93 296.37,-57.7 286.88,-52.99 286.01,-59.93"/>
</a>
</g>
</g>
<!-- Node7 -->
<g id="Node000007" class="node">
<title>Node7</title>
<g id="a_Node000007"><a xlink:href="exif-utils_8c.html#adb97c3499488d5642a82df1cb16dc2cb" target="_top" xlink:title="Retrieve an ExifSRational value from memory.">
<polygon fill="white" stroke="#666666" points="396,-19 292,-19 292,0 396,0 396,-19"/>
<text text-anchor="middle" x="344" y="-7" font-family="Helvetica,sans-Serif" font-size="10.00">exif_get_srational</text>
</a>
</g>
</g>
<!-- Node1&#45;&gt;Node7 -->
<g id="edge8_Node000001_Node000007" class="edge">
<title>Node1&#45;&gt;Node7</title>
<g id="a_edge8_Node000001_Node000007"><a xlink:title=" ">
<path fill="none" stroke="#63b8ff" d="M88.29,-79.01C107,-68.76 132.87,-55.75 157,-47.5 197.13,-33.78 243.92,-24.25 280.53,-18.17"/>
<polygon fill="#63b8ff" stroke="#63b8ff" points="280.73,-21.68 290.05,-16.63 279.62,-14.77 280.73,-21.68"/>
</a>
</g>
</g>
<!-- Node2&#45;&gt;Node3 -->
<g id="edge2_Node000002_Node000003" class="edge">
<title>Node2&#45;&gt;Node3</title>
<g id="a_edge2_Node000002_Node000003"><a xlink:title=" ">
<path fill="none" stroke="#63b8ff" d="M379.16,-141.52C394.83,-136.93 413.62,-131.44 430.39,-126.54"/>
<polygon fill="#63b8ff" stroke="#63b8ff" points="431,-130.01 439.62,-123.84 429.04,-123.29 431,-130.01"/>
</a>
</g>
</g>
<!-- Node4&#45;&gt;Node2 -->
<g id="edge4_Node000004_Node000002" class="edge">
<title>Node4&#45;&gt;Node2</title>
<g id="a_edge4_Node000004_Node000002"><a xlink:title=" ">
<path fill="none" stroke="#63b8ff" d="M256.42,-151.5C267.56,-151.5 279.44,-151.5 290.71,-151.5"/>
<polygon fill="#63b8ff" stroke="#63b8ff" points="290.67,-155 300.67,-151.5 290.67,-148 290.67,-155"/>
</a>
</g>
</g>
<!-- Node5&#45;&gt;Node6 -->
<g id="edge6_Node000005_Node000006" class="edge">
<title>Node5&#45;&gt;Node6</title>
<g id="a_edge6_Node000005_Node000006"><a xlink:title=" ">
<path fill="none" stroke="#63b8ff" d="M249.63,-72.39C261.29,-71.53 274.13,-70.58 286.47,-69.67"/>
<polygon fill="#63b8ff" stroke="#63b8ff" points="286.38,-73.19 296.09,-68.96 285.86,-66.21 286.38,-73.19"/>
</a>
</g>
</g>
<!-- Node7&#45;&gt;Node3 -->
<g id="edge9_Node000007_Node000003" class="edge">
<title>Node7&#45;&gt;Node3</title>
<g id="a_edge9_Node000007_Node000003"><a xlink:title=" ">
<path fill="none" stroke="#63b8ff" d="M358.58,-19.3C368.94,-26.86 383.52,-37.65 396,-47.5 416.52,-63.7 439.39,-82.94 455.22,-96.45"/>
<polygon fill="#63b8ff" stroke="#63b8ff" points="452.63,-98.84 462.5,-102.69 457.19,-93.53 452.63,-98.84"/>
</a>
</g>
</g>
</g>
</svg>
