<?xml version="1.0" encoding="UTF-8" standalone="no"?>
<!DOCTYPE svg PUBLIC "-//W3C//DTD SVG 1.1//EN"
 "http://www.w3.org/Graphics/SVG/1.1/DTD/svg11.dtd">
<!-- Generated by graphviz version 2.44.1 (0)
 -->
<!-- Title: libexif/apple/mnote&#45;apple&#45;entry.h Pages: 1 -->
<svg width="401pt" height="106pt"
 viewBox="0.00 0.00 400.50 106.00" xmlns="http://www.w3.org/2000/svg" xmlns:xlink="http://www.w3.org/1999/xlink">
<g id="graph0" class="graph" transform="scale(1 1) rotate(0) translate(4 102)">
<title>libexif/apple/mnote&#45;apple&#45;entry.h</title>
<polygon fill="white" stroke="transparent" points="-4,4 -4,-102 396.5,-102 396.5,4 -4,4"/>
<!-- Node1 -->
<g id="node1" class="node">
<title>Node1</title>
<g id="a_node1"><a xlink:title=" ">
<polygon fill="#bfbfbf" stroke="black" points="149.5,-67.5 149.5,-97.5 261.5,-97.5 261.5,-67.5 149.5,-67.5"/>
<text text-anchor="start" x="157.5" y="-85.5" font-family="Helvetica,sans-Serif" font-size="10.00">libexif/apple/mnote</text>
<text text-anchor="middle" x="205.5" y="-74.5" font-family="Helvetica,sans-Serif" font-size="10.00">&#45;apple&#45;entry.h</text>
</a>
</g>
</g>
<!-- Node2 -->
<g id="node2" class="node">
<title>Node2</title>
<g id="a_node2"><a xlink:href="exif-byte-order_8h.html" target="_top" xlink:title="Defines the ExifByteOrder enum and the associated functions.">
<polygon fill="white" stroke="black" points="0,-6 0,-25 131,-25 131,-6 0,-6"/>
<text text-anchor="middle" x="65.5" y="-13" font-family="Helvetica,sans-Serif" font-size="10.00">libexif/exif&#45;byte&#45;order.h</text>
</a>
</g>
</g>
<!-- Node1&#45;&gt;Node2 -->
<g id="edge1" class="edge">
<title>Node1&#45;&gt;Node2</title>
<path fill="none" stroke="midnightblue" d="M175.12,-67.4C150.67,-56.04 116.59,-40.22 92.95,-29.24"/>
<polygon fill="midnightblue" stroke="midnightblue" points="94.37,-26.04 83.82,-25.01 91.42,-32.39 94.37,-26.04"/>
</g>
<!-- Node3 -->
<g id="node3" class="node">
<title>Node3</title>
<g id="a_node3"><a xlink:href="exif-format_8h.html" target="_top" xlink:title="Handling native EXIF data types.">
<polygon fill="white" stroke="black" points="149,-6 149,-25 262,-25 262,-6 149,-6"/>
<text text-anchor="middle" x="205.5" y="-13" font-family="Helvetica,sans-Serif" font-size="10.00">libexif/exif&#45;format.h</text>
</a>
</g>
</g>
<!-- Node1&#45;&gt;Node3 -->
<g id="edge2" class="edge">
<title>Node1&#45;&gt;Node3</title>
<path fill="none" stroke="midnightblue" d="M205.5,-67.4C205.5,-58.06 205.5,-45.71 205.5,-35.52"/>
<polygon fill="midnightblue" stroke="midnightblue" points="209,-35.19 205.5,-25.19 202,-35.19 209,-35.19"/>
</g>
<!-- Node4 -->
<g id="node4" class="node">
<title>Node4</title>
<g id="a_node4"><a xlink:href="mnote-apple-tag_8h.html" target="_top" xlink:title=" ">
<polygon fill="white" stroke="black" points="280.5,-0.5 280.5,-30.5 392.5,-30.5 392.5,-0.5 280.5,-0.5"/>
<text text-anchor="start" x="288.5" y="-18.5" font-family="Helvetica,sans-Serif" font-size="10.00">libexif/apple/mnote</text>
<text text-anchor="middle" x="336.5" y="-7.5" font-family="Helvetica,sans-Serif" font-size="10.00">&#45;apple&#45;tag.h</text>
</a>
</g>
</g>
<!-- Node1&#45;&gt;Node4 -->
<g id="edge3" class="edge">
<title>Node1&#45;&gt;Node4</title>
<path fill="none" stroke="midnightblue" d="M233.93,-67.4C252.98,-57.94 278.28,-45.39 298.98,-35.12"/>
<polygon fill="midnightblue" stroke="midnightblue" points="300.73,-38.16 308.13,-30.58 297.62,-31.89 300.73,-38.16"/>
</g>
</g>
</svg>
