<?xml version="1.0" encoding="UTF-8" standalone="no"?>
<!DOCTYPE svg PUBLIC "-//W3C//DTD SVG 1.1//EN"
 "http://www.w3.org/Graphics/SVG/1.1/DTD/svg11.dtd">
<!-- Generated by graphviz version 2.44.1 (0)
 -->
<!-- Title: libexif/olympus/mnote&#45;olympus&#45;tag.h Pages: 1 -->
<svg width="408pt" height="240pt"
 viewBox="0.00 0.00 408.00 240.00" xmlns="http://www.w3.org/2000/svg" xmlns:xlink="http://www.w3.org/1999/xlink">
<g id="graph0" class="graph" transform="scale(1 1) rotate(0) translate(4 236)">
<title>libexif/olympus/mnote&#45;olympus&#45;tag.h</title>
<polygon fill="white" stroke="transparent" points="-4,4 -4,-236 404,-236 404,4 -4,4"/>
<!-- Node1 -->
<g id="node1" class="node">
<title>Node1</title>
<g id="a_node1"><a xlink:title=" ">
<polygon fill="#bfbfbf" stroke="black" points="200,-201.5 200,-231.5 327,-231.5 327,-201.5 200,-201.5"/>
<text text-anchor="start" x="208" y="-219.5" font-family="Helvetica,sans-Serif" font-size="10.00">libexif/olympus/mnote</text>
<text text-anchor="middle" x="263.5" y="-208.5" font-family="Helvetica,sans-Serif" font-size="10.00">&#45;olympus&#45;tag.h</text>
</a>
</g>
</g>
<!-- Node2 -->
<g id="node2" class="node">
<title>Node2</title>
<g id="a_node2"><a xlink:href="mnote-olympus-entry_8h.html" target="_top" xlink:title=" ">
<polygon fill="white" stroke="black" points="128,-134.5 128,-164.5 255,-164.5 255,-134.5 128,-134.5"/>
<text text-anchor="start" x="136" y="-152.5" font-family="Helvetica,sans-Serif" font-size="10.00">libexif/olympus/mnote</text>
<text text-anchor="middle" x="191.5" y="-141.5" font-family="Helvetica,sans-Serif" font-size="10.00">&#45;olympus&#45;entry.h</text>
</a>
</g>
</g>
<!-- Node1&#45;&gt;Node2 -->
<g id="edge1" class="edge">
<title>Node1&#45;&gt;Node2</title>
<path fill="none" stroke="midnightblue" d="M240.35,-194.6C229.48,-184.78 216.8,-173.34 207.09,-164.58"/>
<polygon fill="midnightblue" stroke="midnightblue" points="238.11,-197.29 247.88,-201.4 242.8,-192.1 238.11,-197.29"/>
</g>
<!-- Node7 -->
<g id="node7" class="node">
<title>Node7</title>
<g id="a_node7"><a xlink:href="mnote-olympus-tag_8c.html" target="_top" xlink:title=" ">
<polygon fill="white" stroke="black" points="273,-134.5 273,-164.5 400,-164.5 400,-134.5 273,-134.5"/>
<text text-anchor="start" x="281" y="-152.5" font-family="Helvetica,sans-Serif" font-size="10.00">libexif/olympus/mnote</text>
<text text-anchor="middle" x="336.5" y="-141.5" font-family="Helvetica,sans-Serif" font-size="10.00">&#45;olympus&#45;tag.c</text>
</a>
</g>
</g>
<!-- Node1&#45;&gt;Node7 -->
<g id="edge6" class="edge">
<title>Node1&#45;&gt;Node7</title>
<path fill="none" stroke="midnightblue" d="M286.97,-194.6C298,-184.78 310.84,-173.34 320.69,-164.58"/>
<polygon fill="midnightblue" stroke="midnightblue" points="284.48,-192.13 279.34,-201.4 289.14,-197.36 284.48,-192.13"/>
</g>
<!-- Node3 -->
<g id="node3" class="node">
<title>Node3</title>
<g id="a_node3"><a xlink:href="exif-mnote-data-olympus_8h.html" target="_top" xlink:title=" ">
<polygon fill="white" stroke="black" points="51.5,-67.5 51.5,-97.5 183.5,-97.5 183.5,-67.5 51.5,-67.5"/>
<text text-anchor="start" x="59.5" y="-85.5" font-family="Helvetica,sans-Serif" font-size="10.00">libexif/olympus/exif</text>
<text text-anchor="middle" x="117.5" y="-74.5" font-family="Helvetica,sans-Serif" font-size="10.00">&#45;mnote&#45;data&#45;olympus.h</text>
</a>
</g>
</g>
<!-- Node2&#45;&gt;Node3 -->
<g id="edge2" class="edge">
<title>Node2&#45;&gt;Node3</title>
<path fill="none" stroke="midnightblue" d="M167.7,-127.6C156.53,-117.78 143.51,-106.34 133.53,-97.58"/>
<polygon fill="midnightblue" stroke="midnightblue" points="165.62,-130.43 175.44,-134.4 170.24,-125.17 165.62,-130.43"/>
</g>
<!-- Node6 -->
<g id="node6" class="node">
<title>Node6</title>
<g id="a_node6"><a xlink:href="mnote-olympus-entry_8c.html" target="_top" xlink:title=" ">
<polygon fill="white" stroke="black" points="202,-67.5 202,-97.5 329,-97.5 329,-67.5 202,-67.5"/>
<text text-anchor="start" x="210" y="-85.5" font-family="Helvetica,sans-Serif" font-size="10.00">libexif/olympus/mnote</text>
<text text-anchor="middle" x="265.5" y="-74.5" font-family="Helvetica,sans-Serif" font-size="10.00">&#45;olympus&#45;entry.c</text>
</a>
</g>
</g>
<!-- Node2&#45;&gt;Node6 -->
<g id="edge5" class="edge">
<title>Node2&#45;&gt;Node6</title>
<path fill="none" stroke="midnightblue" d="M215.3,-127.6C226.47,-117.78 239.49,-106.34 249.47,-97.58"/>
<polygon fill="midnightblue" stroke="midnightblue" points="212.76,-125.17 207.56,-134.4 217.38,-130.43 212.76,-125.17"/>
</g>
<!-- Node4 -->
<g id="node4" class="node">
<title>Node4</title>
<g id="a_node4"><a xlink:href="exif-data_8c.html" target="_top" xlink:title=" ">
<polygon fill="white" stroke="black" points="0,-6 0,-25 101,-25 101,-6 0,-6"/>
<text text-anchor="middle" x="50.5" y="-13" font-family="Helvetica,sans-Serif" font-size="10.00">libexif/exif&#45;data.c</text>
</a>
</g>
</g>
<!-- Node3&#45;&gt;Node4 -->
<g id="edge3" class="edge">
<title>Node3&#45;&gt;Node4</title>
<path fill="none" stroke="midnightblue" d="M95.68,-60.34C83.38,-48.4 68.68,-34.14 59.46,-25.19"/>
<polygon fill="midnightblue" stroke="midnightblue" points="93.35,-62.94 102.96,-67.4 98.22,-57.92 93.35,-62.94"/>
</g>
<!-- Node5 -->
<g id="node5" class="node">
<title>Node5</title>
<g id="a_node5"><a xlink:href="exif-mnote-data-olympus_8c.html" target="_top" xlink:title=" ">
<polygon fill="white" stroke="black" points="119,-0.5 119,-30.5 250,-30.5 250,-0.5 119,-0.5"/>
<text text-anchor="start" x="127" y="-18.5" font-family="Helvetica,sans-Serif" font-size="10.00">libexif/olympus/exif</text>
<text text-anchor="middle" x="184.5" y="-7.5" font-family="Helvetica,sans-Serif" font-size="10.00">&#45;mnote&#45;data&#45;olympus.c</text>
</a>
</g>
</g>
<!-- Node3&#45;&gt;Node5 -->
<g id="edge4" class="edge">
<title>Node3&#45;&gt;Node5</title>
<path fill="none" stroke="midnightblue" d="M139.34,-60.31C149.39,-50.56 161.04,-39.26 169.99,-30.58"/>
<polygon fill="midnightblue" stroke="midnightblue" points="136.78,-57.92 132.04,-67.4 141.65,-62.94 136.78,-57.92"/>
</g>
</g>
</svg>
