<?xml version="1.0" encoding="UTF-8" standalone="no"?>
<!DOCTYPE svg PUBLIC "-//W3C//DTD SVG 1.1//EN"
 "http://www.w3.org/Graphics/SVG/1.1/DTD/svg11.dtd">
<!-- Generated by graphviz version 2.44.1 (0)
 -->
<!-- Title: libexif/pentax/mnote&#45;pentax&#45;tag.h Pages: 1 -->
<svg width="390pt" height="240pt"
 viewBox="0.00 0.00 390.00 240.00" xmlns="http://www.w3.org/2000/svg" xmlns:xlink="http://www.w3.org/1999/xlink">
<g id="graph0" class="graph" transform="scale(1 1) rotate(0) translate(4 236)">
<title>libexif/pentax/mnote&#45;pentax&#45;tag.h</title>
<polygon fill="white" stroke="transparent" points="-4,4 -4,-236 386,-236 386,4 -4,4"/>
<!-- Node1 -->
<g id="node1" class="node">
<title>Node1</title>
<g id="a_node1"><a xlink:title=" ">
<polygon fill="#bfbfbf" stroke="black" points="194,-201.5 194,-231.5 313,-231.5 313,-201.5 194,-201.5"/>
<text text-anchor="start" x="202" y="-219.5" font-family="Helvetica,sans-Serif" font-size="10.00">libexif/pentax/mnote</text>
<text text-anchor="middle" x="253.5" y="-208.5" font-family="Helvetica,sans-Serif" font-size="10.00">&#45;pentax&#45;tag.h</text>
</a>
</g>
</g>
<!-- Node2 -->
<g id="node2" class="node">
<title>Node2</title>
<g id="a_node2"><a xlink:href="mnote-pentax-entry_8h.html" target="_top" xlink:title=" ">
<polygon fill="white" stroke="black" points="126,-134.5 126,-164.5 245,-164.5 245,-134.5 126,-134.5"/>
<text text-anchor="start" x="134" y="-152.5" font-family="Helvetica,sans-Serif" font-size="10.00">libexif/pentax/mnote</text>
<text text-anchor="middle" x="185.5" y="-141.5" font-family="Helvetica,sans-Serif" font-size="10.00">&#45;pentax&#45;entry.h</text>
</a>
</g>
</g>
<!-- Node1&#45;&gt;Node2 -->
<g id="edge1" class="edge">
<title>Node1&#45;&gt;Node2</title>
<path fill="none" stroke="midnightblue" d="M231.33,-194.31C221.13,-184.56 209.31,-173.26 200.23,-164.58"/>
<polygon fill="midnightblue" stroke="midnightblue" points="229.1,-197.02 238.75,-201.4 233.93,-191.96 229.1,-197.02"/>
</g>
<!-- Node7 -->
<g id="node7" class="node">
<title>Node7</title>
<g id="a_node7"><a xlink:href="mnote-pentax-tag_8c.html" target="_top" xlink:title=" ">
<polygon fill="white" stroke="black" points="263,-134.5 263,-164.5 382,-164.5 382,-134.5 263,-134.5"/>
<text text-anchor="start" x="271" y="-152.5" font-family="Helvetica,sans-Serif" font-size="10.00">libexif/pentax/mnote</text>
<text text-anchor="middle" x="322.5" y="-141.5" font-family="Helvetica,sans-Serif" font-size="10.00">&#45;pentax&#45;tag.c</text>
</a>
</g>
</g>
<!-- Node1&#45;&gt;Node7 -->
<g id="edge6" class="edge">
<title>Node1&#45;&gt;Node7</title>
<path fill="none" stroke="midnightblue" d="M275.99,-194.31C286.34,-184.56 298.34,-173.26 307.56,-164.58"/>
<polygon fill="midnightblue" stroke="midnightblue" points="273.35,-191.99 268.47,-201.4 278.15,-197.09 273.35,-191.99"/>
</g>
<!-- Node3 -->
<g id="node3" class="node">
<title>Node3</title>
<g id="a_node3"><a xlink:href="exif-mnote-data-pentax_8h.html" target="_top" xlink:title=" ">
<polygon fill="white" stroke="black" points="53.5,-67.5 53.5,-97.5 177.5,-97.5 177.5,-67.5 53.5,-67.5"/>
<text text-anchor="start" x="61.5" y="-85.5" font-family="Helvetica,sans-Serif" font-size="10.00">libexif/pentax/exif</text>
<text text-anchor="middle" x="115.5" y="-74.5" font-family="Helvetica,sans-Serif" font-size="10.00">&#45;mnote&#45;data&#45;pentax.h</text>
</a>
</g>
</g>
<!-- Node2&#45;&gt;Node3 -->
<g id="edge2" class="edge">
<title>Node2&#45;&gt;Node3</title>
<path fill="none" stroke="midnightblue" d="M162.68,-127.31C152.18,-117.56 140.01,-106.26 130.66,-97.58"/>
<polygon fill="midnightblue" stroke="midnightblue" points="160.6,-130.16 170.31,-134.4 165.36,-125.03 160.6,-130.16"/>
</g>
<!-- Node6 -->
<g id="node6" class="node">
<title>Node6</title>
<g id="a_node6"><a xlink:href="mnote-pentax-entry_8c.html" target="_top" xlink:title=" ">
<polygon fill="white" stroke="black" points="196,-67.5 196,-97.5 315,-97.5 315,-67.5 196,-67.5"/>
<text text-anchor="start" x="204" y="-85.5" font-family="Helvetica,sans-Serif" font-size="10.00">libexif/pentax/mnote</text>
<text text-anchor="middle" x="255.5" y="-74.5" font-family="Helvetica,sans-Serif" font-size="10.00">&#45;pentax&#45;entry.c</text>
</a>
</g>
</g>
<!-- Node2&#45;&gt;Node6 -->
<g id="edge5" class="edge">
<title>Node2&#45;&gt;Node6</title>
<path fill="none" stroke="midnightblue" d="M208.32,-127.31C218.82,-117.56 230.99,-106.26 240.34,-97.58"/>
<polygon fill="midnightblue" stroke="midnightblue" points="205.64,-125.03 200.69,-134.4 210.4,-130.16 205.64,-125.03"/>
</g>
<!-- Node4 -->
<g id="node4" class="node">
<title>Node4</title>
<g id="a_node4"><a xlink:href="exif-data_8c.html" target="_top" xlink:title=" ">
<polygon fill="white" stroke="black" points="0,-6 0,-25 101,-25 101,-6 0,-6"/>
<text text-anchor="middle" x="50.5" y="-13" font-family="Helvetica,sans-Serif" font-size="10.00">libexif/exif&#45;data.c</text>
</a>
</g>
</g>
<!-- Node3&#45;&gt;Node4 -->
<g id="edge3" class="edge">
<title>Node3&#45;&gt;Node4</title>
<path fill="none" stroke="midnightblue" d="M94,-60C82.13,-48.13 68.05,-34.05 59.19,-25.19"/>
<polygon fill="midnightblue" stroke="midnightblue" points="91.85,-62.8 101.4,-67.4 96.8,-57.85 91.85,-62.8"/>
</g>
<!-- Node5 -->
<g id="node5" class="node">
<title>Node5</title>
<g id="a_node5"><a xlink:href="exif-mnote-data-pentax_8c.html" target="_top" xlink:title=" ">
<polygon fill="white" stroke="black" points="119,-0.5 119,-30.5 242,-30.5 242,-0.5 119,-0.5"/>
<text text-anchor="start" x="127" y="-18.5" font-family="Helvetica,sans-Serif" font-size="10.00">libexif/pentax/exif</text>
<text text-anchor="middle" x="180.5" y="-7.5" font-family="Helvetica,sans-Serif" font-size="10.00">&#45;mnote&#45;data&#45;pentax.c</text>
</a>
</g>
</g>
<!-- Node3&#45;&gt;Node5 -->
<g id="edge4" class="edge">
<title>Node3&#45;&gt;Node5</title>
<path fill="none" stroke="midnightblue" d="M136.69,-60.31C146.44,-50.56 157.74,-39.26 166.42,-30.58"/>
<polygon fill="midnightblue" stroke="midnightblue" points="134.2,-57.85 129.6,-67.4 139.15,-62.8 134.2,-57.85"/>
</g>
</g>
</svg>
