<?xml version="1.0" encoding="UTF-8" standalone="no"?>
<!DOCTYPE svg PUBLIC "-//W3C//DTD SVG 1.1//EN"
 "http://www.w3.org/Graphics/SVG/1.1/DTD/svg11.dtd">
<!-- Generated by graphviz version 2.44.1 (0)
 -->
<!-- Title: mnote_pentax_entry_get_value Pages: 1 -->
<svg width="376pt" height="118pt"
 viewBox="0.00 0.00 376.00 117.68" xmlns="http://www.w3.org/2000/svg" xmlns:xlink="http://www.w3.org/1999/xlink">
<g id="graph0" class="graph" transform="scale(1 1) rotate(0) translate(4 113.68)">
<title>mnote_pentax_entry_get_value</title>
<polygon fill="white" stroke="transparent" points="-4,4 -4,-113.68 372,-113.68 372,4 -4,4"/>
<!-- Node1 -->
<g id="node1" class="node">
<title>Node1</title>
<g id="a_node1"><a xlink:title=" ">
<polygon fill="#bfbfbf" stroke="black" points="0,-27.68 0,-57.68 118,-57.68 118,-27.68 0,-27.68"/>
<text text-anchor="start" x="8" y="-45.68" font-family="Helvetica,sans-Serif" font-size="10.00">mnote_pentax_entry</text>
<text text-anchor="middle" x="59" y="-34.68" font-family="Helvetica,sans-Serif" font-size="10.00">_get_value</text>
</a>
</g>
</g>
<!-- Node2 -->
<g id="node2" class="node">
<title>Node2</title>
<g id="a_node2"><a xlink:href="exif-utils_8c.html#a4ad94614630897766dd0a5c9bc2a59bf" target="_top" xlink:title="Retrieve an ExifLong value from memory.">
<polygon fill="white" stroke="black" points="155.5,-90.18 155.5,-109.18 238.5,-109.18 238.5,-90.18 155.5,-90.18"/>
<text text-anchor="middle" x="197" y="-97.18" font-family="Helvetica,sans-Serif" font-size="10.00">exif_get_long</text>
</a>
</g>
</g>
<!-- Node1&#45;&gt;Node2 -->
<g id="edge1" class="edge">
<title>Node1&#45;&gt;Node2</title>
<path fill="none" stroke="midnightblue" d="M96.09,-57.8C117.05,-66.59 143.25,-77.57 163.56,-86.08"/>
<polygon fill="midnightblue" stroke="midnightblue" points="162.43,-89.4 173.01,-90.04 165.14,-82.95 162.43,-89.4"/>
</g>
<!-- Node3 -->
<g id="node3" class="node">
<title>Node3</title>
<g id="a_node3"><a xlink:href="exif-utils_8c.html#a56b96f076a13da6ed926e1ef29cb2dc3" target="_top" xlink:title="Retrieve an ExifSLong value from memory.">
<polygon fill="white" stroke="black" points="278,-61.18 278,-80.18 366,-80.18 366,-61.18 278,-61.18"/>
<text text-anchor="middle" x="322" y="-68.18" font-family="Helvetica,sans-Serif" font-size="10.00">exif_get_slong</text>
</a>
</g>
</g>
<!-- Node1&#45;&gt;Node3 -->
<g id="edge5" class="edge">
<title>Node1&#45;&gt;Node3</title>
<path fill="none" stroke="midnightblue" d="M118.25,-48.93C163.04,-53.73 224.4,-60.31 267.86,-64.98"/>
<polygon fill="midnightblue" stroke="midnightblue" points="267.63,-68.47 277.95,-66.06 268.38,-61.51 267.63,-68.47"/>
</g>
<!-- Node4 -->
<g id="node4" class="node">
<title>Node4</title>
<g id="a_node4"><a xlink:href="exif-utils_8c.html#a4b4acf537a8c6b9405e7b53be868e4d7" target="_top" xlink:title="Retrieve an ExifShort value from memory.">
<polygon fill="white" stroke="black" points="154,-14.18 154,-33.18 240,-33.18 240,-14.18 154,-14.18"/>
<text text-anchor="middle" x="197" y="-21.18" font-family="Helvetica,sans-Serif" font-size="10.00">exif_get_short</text>
</a>
</g>
</g>
<!-- Node1&#45;&gt;Node4 -->
<g id="edge3" class="edge">
<title>Node1&#45;&gt;Node4</title>
<path fill="none" stroke="midnightblue" d="M118.07,-34.56C126.59,-33.37 135.32,-32.15 143.72,-30.98"/>
<polygon fill="midnightblue" stroke="midnightblue" points="144.33,-34.43 153.75,-29.58 143.37,-27.5 144.33,-34.43"/>
</g>
<!-- Node5 -->
<g id="node5" class="node">
<title>Node5</title>
<g id="a_node5"><a xlink:href="exif-utils_8c.html#a6baf094a71392f9cea23ad633ec13c8b" target="_top" xlink:title="Retrieve an ExifSShort value from memory.">
<polygon fill="white" stroke="black" points="276,-4.18 276,-23.18 368,-23.18 368,-4.18 276,-4.18"/>
<text text-anchor="middle" x="322" y="-11.18" font-family="Helvetica,sans-Serif" font-size="10.00">exif_get_sshort</text>
</a>
</g>
</g>
<!-- Node1&#45;&gt;Node5 -->
<g id="edge6" class="edge">
<title>Node1&#45;&gt;Node5</title>
<path fill="none" stroke="midnightblue" d="M89.16,-27.49C107.28,-18.93 131.36,-9.08 154,-4.68 190.78,2.48 232.91,0.13 265.65,-3.95"/>
<polygon fill="midnightblue" stroke="midnightblue" points="265.56,-7.47 275.93,-5.33 266.49,-0.53 265.56,-7.47"/>
</g>
<!-- Node2&#45;&gt;Node3 -->
<g id="edge2" class="edge">
<title>Node2&#45;&gt;Node3</title>
<path fill="none" stroke="midnightblue" d="M238.62,-90.1C248.8,-87.7 259.84,-85.1 270.44,-82.6"/>
<polygon fill="midnightblue" stroke="midnightblue" points="271.5,-85.94 280.43,-80.24 269.89,-79.13 271.5,-85.94"/>
</g>
<!-- Node4&#45;&gt;Node5 -->
<g id="edge4" class="edge">
<title>Node4&#45;&gt;Node5</title>
<path fill="none" stroke="midnightblue" d="M240.33,-20.24C248.43,-19.58 257.03,-18.88 265.47,-18.19"/>
<polygon fill="midnightblue" stroke="midnightblue" points="265.97,-21.66 275.65,-17.36 265.4,-14.69 265.97,-21.66"/>
</g>
</g>
</svg>
