<?xml version="1.0" encoding="UTF-8" standalone="no"?>
<!DOCTYPE svg PUBLIC "-//W3C//DTD SVG 1.1//EN"
 "http://www.w3.org/Graphics/SVG/1.1/DTD/svg11.dtd">
<!-- Generated by graphviz version 7.0.1 (0)
 -->
<!-- Title: libexif/olympus/mnote&#45;olympus&#45;entry.c Pages: 1 -->
<svg width="963pt" height="500pt"
 viewBox="0.00 0.00 962.50 500.00" xmlns="http://www.w3.org/2000/svg" xmlns:xlink="http://www.w3.org/1999/xlink">
<g id="graph0" class="graph" transform="scale(1 1) rotate(0) translate(4 496)">
<title>libexif/olympus/mnote&#45;olympus&#45;entry.c</title>
<!-- Node1 -->
<g id="Node000001" class="node">
<title>Node1</title>
<g id="a_Node000001"><a xlink:title=" ">
<polygon fill="#999999" stroke="#666666" points="582.5,-492 455.5,-492 455.5,-462 582.5,-462 582.5,-492"/>
<text text-anchor="start" x="463.5" y="-480" font-family="Helvetica,sans-Serif" font-size="10.00">libexif/olympus/mnote</text>
<text text-anchor="middle" x="519" y="-469" font-family="Helvetica,sans-Serif" font-size="10.00">&#45;olympus&#45;entry.c</text>
</a>
</g>
</g>
<!-- Node2 -->
<g id="Node000002" class="node">
<title>Node2</title>
<g id="a_Node000002"><a xlink:title=" ">
<polygon fill="#e0e0e0" stroke="#999999" points="93,-371 37,-371 37,-352 93,-352 93,-371"/>
<text text-anchor="middle" x="65" y="-359" font-family="Helvetica,sans-Serif" font-size="10.00">config.h</text>
</a>
</g>
</g>
<!-- Node1&#45;&gt;Node2 -->
<g id="edge1_Node000001_Node000002" class="edge">
<title>Node1&#45;&gt;Node2</title>
<g id="a_edge1_Node000001_Node000002"><a xlink:title=" ">
<path fill="none" stroke="#63b8ff" d="M455.03,-472.54C360.27,-466.61 187.76,-452.49 132,-426 109.91,-415.51 90.35,-394.96 78.16,-380.08"/>
<polygon fill="#63b8ff" stroke="#63b8ff" points="81.11,-378.18 72.18,-372.47 75.6,-382.5 81.11,-378.18"/>
</a>
</g>
</g>
<!-- Node3 -->
<g id="Node000003" class="node">
<title>Node3</title>
<g id="a_Node000003"><a xlink:href="mnote-olympus-entry_8h.html" target="_top" xlink:title=" ">
<polygon fill="white" stroke="#666666" points="305.5,-85 174.5,-85 174.5,-66 305.5,-66 305.5,-85"/>
<text text-anchor="middle" x="240" y="-73" font-family="Helvetica,sans-Serif" font-size="10.00">mnote&#45;olympus&#45;entry.h</text>
</a>
</g>
</g>
<!-- Node1&#45;&gt;Node3 -->
<g id="edge2_Node000001_Node000003" class="edge">
<title>Node1&#45;&gt;Node3</title>
<g id="a_edge2_Node000001_Node000003"><a xlink:title=" ">
<path fill="none" stroke="#63b8ff" d="M455.02,-465.66C365.04,-449.27 212,-413.86 212,-362.5 212,-362.5 212,-362.5 212,-184.5 212,-152.62 223.58,-117.08 231.84,-95.77"/>
<polygon fill="#63b8ff" stroke="#63b8ff" points="235.02,-97.25 235.54,-86.66 228.54,-94.61 235.02,-97.25"/>
</a>
</g>
</g>
<!-- Node4 -->
<g id="Node000004" class="node">
<title>Node4</title>
<g id="a_Node000004"><a xlink:href="exif-format_8h.html" target="_top" xlink:title="Handling native EXIF data types.">
<polygon fill="white" stroke="#666666" points="390.5,-24.5 277.5,-24.5 277.5,-5.5 390.5,-5.5 390.5,-24.5"/>
<text text-anchor="middle" x="334" y="-12.5" font-family="Helvetica,sans-Serif" font-size="10.00">libexif/exif&#45;format.h</text>
</a>
</g>
</g>
<!-- Node1&#45;&gt;Node4 -->
<g id="edge9_Node000001_Node000004" class="edge">
<title>Node1&#45;&gt;Node4</title>
<g id="a_edge9_Node000001_Node000004"><a xlink:title=" ">
<path fill="none" stroke="#63b8ff" d="M455.3,-469.84C348.77,-457.76 146,-426.38 146,-362.5 146,-362.5 146,-362.5 146,-129.5 146,-100.04 144.14,-86.8 165,-66 173.78,-57.24 239.23,-39.52 286.04,-27.71"/>
<polygon fill="#63b8ff" stroke="#63b8ff" points="286.88,-31.1 295.73,-25.28 285.18,-24.31 286.88,-31.1"/>
</a>
</g>
</g>
<!-- Node7 -->
<g id="Node000007" class="node">
<title>Node7</title>
<g id="a_Node000007"><a xlink:title=" ">
<polygon fill="#e0e0e0" stroke="#999999" points="812,-426 762,-426 762,-407 812,-407 812,-426"/>
<text text-anchor="middle" x="787" y="-414" font-family="Helvetica,sans-Serif" font-size="10.00">stdio.h</text>
</a>
</g>
</g>
<!-- Node1&#45;&gt;Node7 -->
<g id="edge6_Node000001_Node000007" class="edge">
<title>Node1&#45;&gt;Node7</title>
<g id="a_edge6_Node000001_Node000007"><a xlink:title=" ">
<path fill="none" stroke="#63b8ff" d="M582.85,-462.06C635.33,-450.61 707.78,-434.79 750.78,-425.41"/>
<polygon fill="#63b8ff" stroke="#63b8ff" points="751.32,-428.87 760.34,-423.32 749.83,-422.03 751.32,-428.87"/>
</a>
</g>
</g>
<!-- Node8 -->
<g id="Node000008" class="node">
<title>Node8</title>
<g id="a_Node000008"><a xlink:title=" ">
<polygon fill="#e0e0e0" stroke="#999999" points="883.5,-426 830.5,-426 830.5,-407 883.5,-407 883.5,-426"/>
<text text-anchor="middle" x="857" y="-414" font-family="Helvetica,sans-Serif" font-size="10.00">stdlib.h</text>
</a>
</g>
</g>
<!-- Node1&#45;&gt;Node8 -->
<g id="edge7_Node000001_Node000008" class="edge">
<title>Node1&#45;&gt;Node8</title>
<g id="a_edge7_Node000001_Node000008"><a xlink:title=" ">
<path fill="none" stroke="#63b8ff" d="M582.86,-466.71C641.63,-457.88 731.45,-443.64 819.08,-426.26"/>
<polygon fill="#63b8ff" stroke="#63b8ff" points="819.7,-429.71 828.82,-424.31 818.33,-422.84 819.7,-429.71"/>
</a>
</g>
</g>
<!-- Node9 -->
<g id="Node000009" class="node">
<title>Node9</title>
<g id="a_Node000009"><a xlink:title=" ">
<polygon fill="#e0e0e0" stroke="#999999" points="954.5,-426 901.5,-426 901.5,-407 954.5,-407 954.5,-426"/>
<text text-anchor="middle" x="928" y="-414" font-family="Helvetica,sans-Serif" font-size="10.00">string.h</text>
</a>
</g>
</g>
<!-- Node1&#45;&gt;Node9 -->
<g id="edge8_Node000001_Node000009" class="edge">
<title>Node1&#45;&gt;Node9</title>
<g id="a_edge8_Node000001_Node000009"><a xlink:title=" ">
<path fill="none" stroke="#63b8ff" d="M582.85,-469.54C655.16,-461.75 776.69,-447.28 890.02,-426.4"/>
<polygon fill="#63b8ff" stroke="#63b8ff" points="890.63,-429.84 899.82,-424.57 889.35,-422.96 890.63,-429.84"/>
</a>
</g>
</g>
<!-- Node10 -->
<g id="Node000010" class="node">
<title>Node10</title>
<g id="a_Node000010"><a xlink:href="exif-utils_8h.html" target="_top" xlink:title="EXIF data manipulation functions and types.">
<polygon fill="white" stroke="#666666" points="744.5,-85 643.5,-85 643.5,-66 744.5,-66 744.5,-85"/>
<text text-anchor="middle" x="694" y="-73" font-family="Helvetica,sans-Serif" font-size="10.00">libexif/exif&#45;utils.h</text>
</a>
</g>
</g>
<!-- Node1&#45;&gt;Node10 -->
<g id="edge10_Node000001_Node000010" class="edge">
<title>Node1&#45;&gt;Node10</title>
<g id="a_edge10_Node000001_Node000010"><a xlink:title=" ">
<path fill="none" stroke="#63b8ff" d="M569.63,-461.61C662.36,-433.73 850,-369.65 850,-307.5 850,-307.5 850,-307.5 850,-184.5 850,-132.16 789.9,-103.18 744.31,-88.74"/>
<polygon fill="#63b8ff" stroke="#63b8ff" points="745.4,-85.41 734.82,-85.89 743.39,-92.11 745.4,-85.41"/>
</a>
</g>
</g>
<!-- Node12 -->
<g id="Node000012" class="node">
<title>Node12</title>
<g id="a_Node000012"><a xlink:href="exif-entry_8h.html" target="_top" xlink:title="Handling EXIF entries.">
<polygon fill="white" stroke="#666666" points="571,-426 467,-426 467,-407 571,-407 571,-426"/>
<text text-anchor="middle" x="519" y="-414" font-family="Helvetica,sans-Serif" font-size="10.00">libexif/exif&#45;entry.h</text>
</a>
</g>
</g>
<!-- Node1&#45;&gt;Node12 -->
<g id="edge14_Node000001_Node000012" class="edge">
<title>Node1&#45;&gt;Node12</title>
<g id="a_edge14_Node000001_Node000012"><a xlink:title=" ">
<path fill="none" stroke="#63b8ff" d="M519,-461.54C519,-454.34 519,-445.53 519,-437.68"/>
<polygon fill="#63b8ff" stroke="#63b8ff" points="522.5,-437.69 519,-427.69 515.5,-437.69 522.5,-437.69"/>
</a>
</g>
</g>
<!-- Node22 -->
<g id="Node000022" class="node">
<title>Node22</title>
<g id="a_Node000022"><a xlink:href="i18n_8h.html" target="_top" xlink:title=" ">
<polygon fill="white" stroke="#666666" points="80,-426 0,-426 0,-407 80,-407 80,-426"/>
<text text-anchor="middle" x="40" y="-414" font-family="Helvetica,sans-Serif" font-size="10.00">libexif/i18n.h</text>
</a>
</g>
</g>
<!-- Node1&#45;&gt;Node22 -->
<g id="edge37_Node000001_Node000022" class="edge">
<title>Node1&#45;&gt;Node22</title>
<g id="a_edge37_Node000001_Node000022"><a xlink:title=" ">
<path fill="none" stroke="#63b8ff" d="M455.18,-469.28C371.95,-460.33 221.88,-443.58 94,-426 93.17,-425.89 92.34,-425.77 91.49,-425.65"/>
<polygon fill="#63b8ff" stroke="#63b8ff" points="92.27,-422.23 81.87,-424.25 91.26,-429.15 92.27,-422.23"/>
</a>
</g>
</g>
<!-- Node3&#45;&gt;Node4 -->
<g id="edge3_Node000003_Node000004" class="edge">
<title>Node3&#45;&gt;Node4</title>
<g id="a_edge3_Node000003_Node000004"><a xlink:title=" ">
<path fill="none" stroke="#63b8ff" d="M254.28,-65.62C269.05,-56.42 292.37,-41.91 309.99,-30.94"/>
<polygon fill="#63b8ff" stroke="#63b8ff" points="311.66,-34.02 318.3,-25.77 307.96,-28.08 311.66,-34.02"/>
</a>
</g>
</g>
<!-- Node5 -->
<g id="Node000005" class="node">
<title>Node5</title>
<g id="a_Node000005"><a xlink:href="exif-byte-order_8h.html" target="_top" xlink:title="Defines the ExifByteOrder enum and the associated functions.">
<polygon fill="white" stroke="#666666" points="611.5,-24.5 480.5,-24.5 480.5,-5.5 611.5,-5.5 611.5,-24.5"/>
<text text-anchor="middle" x="546" y="-12.5" font-family="Helvetica,sans-Serif" font-size="10.00">libexif/exif&#45;byte&#45;order.h</text>
</a>
</g>
</g>
<!-- Node3&#45;&gt;Node5 -->
<g id="edge4_Node000003_Node000005" class="edge">
<title>Node3&#45;&gt;Node5</title>
<g id="a_edge4_Node000003_Node000005"><a xlink:title=" ">
<path fill="none" stroke="#63b8ff" d="M286.81,-65.55C340.72,-55.24 429.35,-38.3 487.7,-27.15"/>
<polygon fill="#63b8ff" stroke="#63b8ff" points="488.29,-30.6 497.46,-25.28 486.98,-23.72 488.29,-30.6"/>
</a>
</g>
</g>
<!-- Node6 -->
<g id="Node000006" class="node">
<title>Node6</title>
<g id="a_Node000006"><a xlink:href="mnote-olympus-tag_8h.html" target="_top" xlink:title=" ">
<polygon fill="white" stroke="#666666" points="259.5,-30 132.5,-30 132.5,0 259.5,0 259.5,-30"/>
<text text-anchor="start" x="140.5" y="-18" font-family="Helvetica,sans-Serif" font-size="10.00">libexif/olympus/mnote</text>
<text text-anchor="middle" x="196" y="-7" font-family="Helvetica,sans-Serif" font-size="10.00">&#45;olympus&#45;tag.h</text>
</a>
</g>
</g>
<!-- Node3&#45;&gt;Node6 -->
<g id="edge5_Node000003_Node000006" class="edge">
<title>Node3&#45;&gt;Node6</title>
<g id="a_edge5_Node000003_Node000006"><a xlink:title=" ">
<path fill="none" stroke="#63b8ff" d="M233.51,-65.87C228.2,-58.81 220.44,-48.5 213.36,-39.08"/>
<polygon fill="#63b8ff" stroke="#63b8ff" points="216.33,-37.21 207.53,-31.32 210.74,-41.42 216.33,-37.21"/>
</a>
</g>
</g>
<!-- Node10&#45;&gt;Node4 -->
<g id="edge12_Node000010_Node000004" class="edge">
<title>Node10&#45;&gt;Node4</title>
<g id="a_edge12_Node000010_Node000004"><a xlink:title=" ">
<path fill="none" stroke="#63b8ff" d="M643.18,-66.24C579.66,-55.92 470.77,-38.22 400.62,-26.83"/>
<polygon fill="#63b8ff" stroke="#63b8ff" points="401.21,-23.38 390.77,-25.23 400.08,-30.28 401.21,-23.38"/>
</a>
</g>
</g>
<!-- Node10&#45;&gt;Node5 -->
<g id="edge11_Node000010_Node000005" class="edge">
<title>Node10&#45;&gt;Node5</title>
<g id="a_edge11_Node000010_Node000005"><a xlink:title=" ">
<path fill="none" stroke="#63b8ff" d="M671.52,-65.62C646.96,-55.91 607.38,-40.26 579.23,-29.14"/>
<polygon fill="#63b8ff" stroke="#63b8ff" points="580.68,-25.95 570.1,-25.52 578.11,-32.46 580.68,-25.95"/>
</a>
</g>
</g>
<!-- Node11 -->
<g id="Node000011" class="node">
<title>Node11</title>
<g id="a_Node000011"><a xlink:title=" ">
<polygon fill="#e0e0e0" stroke="#999999" points="740,-24.5 648,-24.5 648,-5.5 740,-5.5 740,-24.5"/>
<text text-anchor="middle" x="694" y="-12.5" font-family="Helvetica,sans-Serif" font-size="10.00">libexif/_stdint.h</text>
</a>
</g>
</g>
<!-- Node10&#45;&gt;Node11 -->
<g id="edge13_Node000010_Node000011" class="edge">
<title>Node10&#45;&gt;Node11</title>
<g id="a_edge13_Node000010_Node000011"><a xlink:title=" ">
<path fill="none" stroke="#63b8ff" d="M694,-65.87C694,-58 694,-46.1 694,-35.89"/>
<polygon fill="#63b8ff" stroke="#63b8ff" points="697.5,-36.18 694,-26.18 690.5,-36.18 697.5,-36.18"/>
</a>
</g>
</g>
<!-- Node12&#45;&gt;Node4 -->
<g id="edge35_Node000012_Node000004" class="edge">
<title>Node12&#45;&gt;Node4</title>
<g id="a_edge35_Node000012_Node000004"><a xlink:title=" ">
<path fill="none" stroke="#63b8ff" d="M471.22,-406.51C393.92,-390.59 250,-354.62 250,-307.5 250,-307.5 250,-307.5 250,-245 250,-168.41 286.26,-156.39 314,-85 320.3,-68.8 325.66,-49.79 329.25,-35.83"/>
<polygon fill="#63b8ff" stroke="#63b8ff" points="332.64,-36.68 331.65,-26.13 325.85,-34.99 332.64,-36.68"/>
</a>
</g>
</g>
<!-- Node13 -->
<g id="Node000013" class="node">
<title>Node13</title>
<g id="a_Node000013"><a xlink:href="exif-content_8h.html" target="_top" xlink:title="Handling EXIF IFDs.">
<polygon fill="white" stroke="#666666" points="577.5,-371 460.5,-371 460.5,-352 577.5,-352 577.5,-371"/>
<text text-anchor="middle" x="519" y="-359" font-family="Helvetica,sans-Serif" font-size="10.00">libexif/exif&#45;content.h</text>
</a>
</g>
</g>
<!-- Node12&#45;&gt;Node13 -->
<g id="edge15_Node000012_Node000013" class="edge">
<title>Node12&#45;&gt;Node13</title>
<g id="a_edge15_Node000012_Node000013"><a xlink:title=" ">
<path fill="none" stroke="#63b8ff" d="M513.83,-406.75C512.42,-400.19 511.96,-390.95 512.43,-382.6"/>
<polygon fill="#63b8ff" stroke="#63b8ff" points="515.87,-383.3 513.61,-372.94 508.92,-382.45 515.87,-383.3"/>
</a>
</g>
</g>
<!-- Node19 -->
<g id="Node000019" class="node">
<title>Node19</title>
<g id="a_Node000019"><a xlink:href="exif-mem_8h.html" target="_top" xlink:title="Define the ExifMem data type and the associated functions.">
<polygon fill="white" stroke="#666666" points="764,-140 658,-140 658,-121 764,-121 764,-140"/>
<text text-anchor="middle" x="711" y="-128" font-family="Helvetica,sans-Serif" font-size="10.00">libexif/exif&#45;mem.h</text>
</a>
</g>
</g>
<!-- Node12&#45;&gt;Node19 -->
<g id="edge36_Node000012_Node000019" class="edge">
<title>Node12&#45;&gt;Node19</title>
<g id="a_edge36_Node000012_Node000019"><a xlink:title=" ">
<path fill="none" stroke="#63b8ff" d="M571.38,-407.24C655.66,-392.45 812,-358.19 812,-307.5 812,-307.5 812,-307.5 812,-245 812,-200.17 767.48,-164.84 737.56,-146.15"/>
<polygon fill="#63b8ff" stroke="#63b8ff" points="739.36,-143.15 728.98,-141.03 735.77,-149.16 739.36,-143.15"/>
</a>
</g>
</g>
<!-- Node13&#45;&gt;Node12 -->
<g id="edge19_Node000013_Node000012" class="edge">
<title>Node13&#45;&gt;Node12</title>
<g id="a_edge19_Node000013_Node000012"><a xlink:title=" ">
<path fill="none" stroke="#63b8ff" d="M524.21,-371.44C525.58,-377.97 526.04,-387.1 525.57,-395.35"/>
<polygon fill="#63b8ff" stroke="#63b8ff" points="522.1,-394.89 524.35,-405.25 529.05,-395.75 522.1,-394.89"/>
</a>
</g>
</g>
<!-- Node14 -->
<g id="Node000014" class="node">
<title>Node14</title>
<g id="a_Node000014"><a xlink:href="exif-tag_8h.html" target="_top" xlink:title="Handling EXIF tags.">
<polygon fill="white" stroke="#666666" points="396,-255.5 300,-255.5 300,-236.5 396,-236.5 396,-255.5"/>
<text text-anchor="middle" x="348" y="-243.5" font-family="Helvetica,sans-Serif" font-size="10.00">libexif/exif&#45;tag.h</text>
</a>
</g>
</g>
<!-- Node13&#45;&gt;Node14 -->
<g id="edge16_Node000013_Node000014" class="edge">
<title>Node13&#45;&gt;Node14</title>
<g id="a_edge16_Node000013_Node000014"><a xlink:title=" ">
<path fill="none" stroke="#63b8ff" d="M505.58,-351.59C476.36,-332.2 406.71,-285.97 370.59,-262"/>
<polygon fill="#63b8ff" stroke="#63b8ff" points="372.88,-259.32 362.62,-256.7 369.01,-265.15 372.88,-259.32"/>
</a>
</g>
</g>
<!-- Node17 -->
<g id="Node000017" class="node">
<title>Node17</title>
<g id="a_Node000017"><a xlink:href="exif-data_8h.html" target="_top" xlink:title="Defines the ExifData type and the associated functions.">
<polygon fill="white" stroke="#666666" points="570,-316 468,-316 468,-297 570,-297 570,-316"/>
<text text-anchor="middle" x="519" y="-304" font-family="Helvetica,sans-Serif" font-size="10.00">libexif/exif&#45;data.h</text>
</a>
</g>
</g>
<!-- Node13&#45;&gt;Node17 -->
<g id="edge20_Node000013_Node000017" class="edge">
<title>Node13&#45;&gt;Node17</title>
<g id="a_edge20_Node000013_Node000017"><a xlink:title=" ">
<path fill="none" stroke="#63b8ff" d="M513.83,-351.75C512.42,-345.19 511.96,-335.95 512.43,-327.6"/>
<polygon fill="#63b8ff" stroke="#63b8ff" points="515.87,-328.3 513.61,-317.94 508.92,-327.45 515.87,-328.3"/>
</a>
</g>
</g>
<!-- Node18 -->
<g id="Node000018" class="node">
<title>Node18</title>
<g id="a_Node000018"><a xlink:href="exif-log_8h.html" target="_top" xlink:title="Log message infrastructure.">
<polygon fill="white" stroke="#666666" points="669.5,-195 574.5,-195 574.5,-176 669.5,-176 669.5,-195"/>
<text text-anchor="middle" x="622" y="-183" font-family="Helvetica,sans-Serif" font-size="10.00">libexif/exif&#45;log.h</text>
</a>
</g>
</g>
<!-- Node13&#45;&gt;Node18 -->
<g id="edge33_Node000013_Node000018" class="edge">
<title>Node13&#45;&gt;Node18</title>
<g id="a_edge33_Node000013_Node000018"><a xlink:title=" ">
<path fill="none" stroke="#63b8ff" d="M549.37,-351.56C587.32,-338.56 650.63,-310.42 678,-261 684.46,-249.34 683.8,-243.01 678,-231 672.05,-218.67 660.84,-208.71 650,-201.36"/>
<polygon fill="#63b8ff" stroke="#63b8ff" points="651.94,-198.45 641.6,-196.15 648.25,-204.39 651.94,-198.45"/>
</a>
</g>
</g>
<!-- Node13&#45;&gt;Node19 -->
<g id="edge34_Node000013_Node000019" class="edge">
<title>Node13&#45;&gt;Node19</title>
<g id="a_edge34_Node000013_Node000019"><a xlink:title=" ">
<path fill="none" stroke="#63b8ff" d="M564.93,-351.55C591.47,-344.82 624.54,-333.66 650,-316 701.8,-280.08 711.04,-256.69 724,-195 727.12,-180.14 723.34,-163.31 719.07,-150.71"/>
<polygon fill="#63b8ff" stroke="#63b8ff" points="722.41,-149.64 715.57,-141.55 715.87,-152.14 722.41,-149.64"/>
</a>
</g>
</g>
<!-- Node15 -->
<g id="Node000015" class="node">
<title>Node15</title>
<g id="a_Node000015"><a xlink:href="exif-ifd_8h.html" target="_top" xlink:title=" ">
<polygon fill="white" stroke="#666666" points="517.5,-195 424.5,-195 424.5,-176 517.5,-176 517.5,-195"/>
<text text-anchor="middle" x="471" y="-183" font-family="Helvetica,sans-Serif" font-size="10.00">libexif/exif&#45;ifd.h</text>
</a>
</g>
</g>
<!-- Node14&#45;&gt;Node15 -->
<g id="edge17_Node000014_Node000015" class="edge">
<title>Node14&#45;&gt;Node15</title>
<g id="a_edge17_Node000014_Node000015"><a xlink:title=" ">
<path fill="none" stroke="#63b8ff" d="M366.68,-236.12C386.64,-226.62 418.54,-211.45 441.82,-200.38"/>
<polygon fill="#63b8ff" stroke="#63b8ff" points="443.25,-203.57 450.78,-196.12 440.24,-197.25 443.25,-203.57"/>
</a>
</g>
</g>
<!-- Node16 -->
<g id="Node000016" class="node">
<title>Node16</title>
<g id="a_Node000016"><a xlink:href="exif-data-type_8h.html" target="_top" xlink:title=" ">
<polygon fill="white" stroke="#666666" points="406,-195 278,-195 278,-176 406,-176 406,-195"/>
<text text-anchor="middle" x="342" y="-183" font-family="Helvetica,sans-Serif" font-size="10.00">libexif/exif&#45;data&#45;type.h</text>
</a>
</g>
</g>
<!-- Node14&#45;&gt;Node16 -->
<g id="edge18_Node000014_Node000016" class="edge">
<title>Node14&#45;&gt;Node16</title>
<g id="a_edge18_Node000014_Node000016"><a xlink:title=" ">
<path fill="none" stroke="#63b8ff" d="M347.11,-236.37C346.31,-228.5 345.09,-216.6 344.04,-206.39"/>
<polygon fill="#63b8ff" stroke="#63b8ff" points="347.55,-206.26 343.04,-196.67 340.58,-206.98 347.55,-206.26"/>
</a>
</g>
</g>
<!-- Node17&#45;&gt;Node5 -->
<g id="edge21_Node000017_Node000005" class="edge">
<title>Node17&#45;&gt;Node5</title>
<g id="a_edge21_Node000017_Node000005"><a xlink:title=" ">
<path fill="none" stroke="#63b8ff" d="M519.84,-296.52C523.57,-256.5 538.74,-93.86 544.11,-36.31"/>
<polygon fill="#63b8ff" stroke="#63b8ff" points="547.59,-36.67 545.03,-26.38 540.62,-36.02 547.59,-36.67"/>
</a>
</g>
</g>
<!-- Node17&#45;&gt;Node13 -->
<g id="edge29_Node000017_Node000013" class="edge">
<title>Node17&#45;&gt;Node13</title>
<g id="a_edge29_Node000017_Node000013"><a xlink:title=" ">
<path fill="none" stroke="#63b8ff" d="M524.21,-316.44C525.58,-322.97 526.04,-332.1 525.57,-340.35"/>
<polygon fill="#63b8ff" stroke="#63b8ff" points="522.1,-339.89 524.35,-350.25 529.05,-340.75 522.1,-339.89"/>
</a>
</g>
</g>
<!-- Node17&#45;&gt;Node14 -->
<g id="edge28_Node000017_Node000014" class="edge">
<title>Node17&#45;&gt;Node14</title>
<g id="a_edge28_Node000017_Node000014"><a xlink:title=" ">
<path fill="none" stroke="#63b8ff" d="M493.03,-296.62C464.28,-286.78 417.7,-270.84 385.11,-259.69"/>
<polygon fill="#63b8ff" stroke="#63b8ff" points="386.24,-256.38 375.65,-256.46 383.98,-263.01 386.24,-256.38"/>
</a>
</g>
</g>
<!-- Node17&#45;&gt;Node15 -->
<g id="edge23_Node000017_Node000015" class="edge">
<title>Node17&#45;&gt;Node15</title>
<g id="a_edge23_Node000017_Node000015"><a xlink:title=" ">
<path fill="none" stroke="#63b8ff" d="M510.62,-296.71C503.02,-288.24 492.1,-274.71 486,-261 478.21,-243.48 474.43,-221.85 472.62,-206.41"/>
<polygon fill="#63b8ff" stroke="#63b8ff" points="476.12,-206.25 471.66,-196.64 469.15,-206.93 476.12,-206.25"/>
</a>
</g>
</g>
<!-- Node17&#45;&gt;Node16 -->
<g id="edge22_Node000017_Node000016" class="edge">
<title>Node17&#45;&gt;Node16</title>
<g id="a_edge22_Node000017_Node000016"><a xlink:title=" ">
<path fill="none" stroke="#63b8ff" d="M505.7,-296.56C475.57,-276.3 401.84,-226.73 364.48,-201.62"/>
<polygon fill="#63b8ff" stroke="#63b8ff" points="366.48,-198.74 356.23,-196.07 362.58,-204.55 366.48,-198.74"/>
</a>
</g>
</g>
<!-- Node17&#45;&gt;Node18 -->
<g id="edge24_Node000017_Node000018" class="edge">
<title>Node17&#45;&gt;Node18</title>
<g id="a_edge24_Node000017_Node000018"><a xlink:title=" ">
<path fill="none" stroke="#63b8ff" d="M521.8,-296.86C526.93,-282.07 538.98,-251.5 557,-231 567.54,-219 581.99,-208.69 594.59,-201.02"/>
<polygon fill="#63b8ff" stroke="#63b8ff" points="595.99,-204.26 602.88,-196.22 592.47,-198.21 595.99,-204.26"/>
</a>
</g>
</g>
<!-- Node17&#45;&gt;Node19 -->
<g id="edge32_Node000017_Node000019" class="edge">
<title>Node17&#45;&gt;Node19</title>
<g id="a_edge32_Node000017_Node000019"><a xlink:title=" ">
<path fill="none" stroke="#63b8ff" d="M570.45,-304.01C605.35,-300.25 650.06,-289.6 678,-261 706.96,-231.35 711.57,-180.02 711.72,-151.71"/>
<polygon fill="#63b8ff" stroke="#63b8ff" points="715.22,-151.93 711.56,-141.99 708.22,-152.05 715.22,-151.93"/>
</a>
</g>
</g>
<!-- Node21 -->
<g id="Node000021" class="node">
<title>Node21</title>
<g id="a_Node000021"><a xlink:href="exif-mnote-data_8h.html" target="_top" xlink:title="Handling EXIF MakerNote tags.">
<polygon fill="white" stroke="#666666" points="669.5,-261 566.5,-261 566.5,-231 669.5,-231 669.5,-261"/>
<text text-anchor="start" x="574.5" y="-249" font-family="Helvetica,sans-Serif" font-size="10.00">libexif/exif&#45;mnote</text>
<text text-anchor="middle" x="618" y="-238" font-family="Helvetica,sans-Serif" font-size="10.00">&#45;data.h</text>
</a>
</g>
</g>
<!-- Node17&#45;&gt;Node21 -->
<g id="edge30_Node000017_Node000021" class="edge">
<title>Node17&#45;&gt;Node21</title>
<g id="a_edge30_Node000017_Node000021"><a xlink:title=" ">
<path fill="none" stroke="#63b8ff" d="M534.04,-296.62C547.24,-288.81 566.94,-277.17 583.94,-267.13"/>
<polygon fill="#63b8ff" stroke="#63b8ff" points="585.43,-270.31 592.26,-262.21 581.87,-264.28 585.43,-270.31"/>
</a>
</g>
</g>
<!-- Node18&#45;&gt;Node19 -->
<g id="edge25_Node000018_Node000019" class="edge">
<title>Node18&#45;&gt;Node19</title>
<g id="a_edge25_Node000018_Node000019"><a xlink:title=" ">
<path fill="none" stroke="#63b8ff" d="M637.1,-175.51C650.6,-167.47 670.65,-155.53 686.46,-146.11"/>
<polygon fill="#63b8ff" stroke="#63b8ff" points="688.02,-149.26 694.82,-141.13 684.44,-143.24 688.02,-149.26"/>
</a>
</g>
</g>
<!-- Node20 -->
<g id="Node000020" class="node">
<title>Node20</title>
<g id="a_Node000020"><a xlink:title=" ">
<polygon fill="#e0e0e0" stroke="#999999" points="640,-140 584,-140 584,-121 640,-121 640,-140"/>
<text text-anchor="middle" x="612" y="-128" font-family="Helvetica,sans-Serif" font-size="10.00">stdarg.h</text>
</a>
</g>
</g>
<!-- Node18&#45;&gt;Node20 -->
<g id="edge27_Node000018_Node000020" class="edge">
<title>Node18&#45;&gt;Node20</title>
<g id="a_edge27_Node000018_Node000020"><a xlink:title=" ">
<path fill="none" stroke="#63b8ff" d="M620.35,-175.75C619.11,-169.19 617.37,-159.95 615.79,-151.6"/>
<polygon fill="#63b8ff" stroke="#63b8ff" points="619.26,-151.11 613.97,-141.93 612.38,-152.4 619.26,-151.11"/>
</a>
</g>
</g>
<!-- Node19&#45;&gt;Node10 -->
<g id="edge26_Node000019_Node000010" class="edge">
<title>Node19&#45;&gt;Node10</title>
<g id="a_edge26_Node000019_Node000010"><a xlink:title=" ">
<path fill="none" stroke="#63b8ff" d="M708.19,-120.75C706.06,-114.11 703.06,-104.73 700.36,-96.31"/>
<polygon fill="#63b8ff" stroke="#63b8ff" points="703.72,-95.34 697.33,-86.88 697.05,-97.47 703.72,-95.34"/>
</a>
</g>
</g>
<!-- Node21&#45;&gt;Node18 -->
<g id="edge31_Node000021_Node000018" class="edge">
<title>Node21&#45;&gt;Node18</title>
<g id="a_edge31_Node000021_Node000018"><a xlink:title=" ">
<path fill="none" stroke="#63b8ff" d="M618.99,-230.54C619.49,-223.26 620.1,-214.31 620.64,-206.39"/>
<polygon fill="#63b8ff" stroke="#63b8ff" points="624.11,-206.9 621.3,-196.69 617.13,-206.42 624.11,-206.9"/>
</a>
</g>
</g>
<!-- Node22&#45;&gt;Node2 -->
<g id="edge38_Node000022_Node000002" class="edge">
<title>Node22&#45;&gt;Node2</title>
<g id="a_edge38_Node000022_Node000002"><a xlink:title=" ">
<path fill="none" stroke="#63b8ff" d="M44.13,-406.75C47.33,-399.96 51.89,-390.3 55.93,-381.73"/>
<polygon fill="#63b8ff" stroke="#63b8ff" points="59.04,-383.35 60.14,-372.81 52.7,-380.36 59.04,-383.35"/>
</a>
</g>
</g>
</g>
</svg>
