<?xml version="1.0" encoding="UTF-8" standalone="no"?>
<!DOCTYPE svg PUBLIC "-//W3C//DTD SVG 1.1//EN"
 "http://www.w3.org/Graphics/SVG/1.1/DTD/svg11.dtd">
<!-- Generated by graphviz version 7.0.1 (0)
 -->
<!-- Title: libexif/pentax/mnote&#45;pentax&#45;tag.h Pages: 1 -->
<svg width="390pt" height="236pt"
 viewBox="0.00 0.00 390.00 236.00" xmlns="http://www.w3.org/2000/svg" xmlns:xlink="http://www.w3.org/1999/xlink">
<g id="graph0" class="graph" transform="scale(1 1) rotate(0) translate(4 232)">
<title>libexif/pentax/mnote&#45;pentax&#45;tag.h</title>
<!-- Node1 -->
<g id="Node000001" class="node">
<title>Node1</title>
<g id="a_Node000001"><a xlink:title=" ">
<polygon fill="#999999" stroke="#666666" points="313,-228 194,-228 194,-198 313,-198 313,-228"/>
<text text-anchor="start" x="202" y="-216" font-family="Helvetica,sans-Serif" font-size="10.00">libexif/pentax/mnote</text>
<text text-anchor="middle" x="253.5" y="-205" font-family="Helvetica,sans-Serif" font-size="10.00">&#45;pentax&#45;tag.h</text>
</a>
</g>
</g>
<!-- Node2 -->
<g id="Node000002" class="node">
<title>Node2</title>
<g id="a_Node000002"><a xlink:href="mnote-pentax-entry_8h.html" target="_top" xlink:title=" ">
<polygon fill="white" stroke="#666666" points="245,-162 126,-162 126,-132 245,-132 245,-162"/>
<text text-anchor="start" x="134" y="-150" font-family="Helvetica,sans-Serif" font-size="10.00">libexif/pentax/mnote</text>
<text text-anchor="middle" x="185.5" y="-139" font-family="Helvetica,sans-Serif" font-size="10.00">&#45;pentax&#45;entry.h</text>
</a>
</g>
</g>
<!-- Node1&#45;&gt;Node2 -->
<g id="edge1_Node000001_Node000002" class="edge">
<title>Node1&#45;&gt;Node2</title>
<g id="a_edge1_Node000001_Node000002"><a xlink:title=" ">
<path fill="none" stroke="#63b8ff" d="M230.22,-190.09C220.4,-180.85 209.26,-170.36 200.55,-162.16"/>
<polygon fill="#63b8ff" stroke="#63b8ff" points="227.63,-192.45 237.31,-196.76 232.42,-187.36 227.63,-192.45"/>
</a>
</g>
</g>
<!-- Node7 -->
<g id="Node000007" class="node">
<title>Node7</title>
<g id="a_Node000007"><a xlink:href="mnote-pentax-tag_8c.html" target="_top" xlink:title=" ">
<polygon fill="white" stroke="#666666" points="382,-162 263,-162 263,-132 382,-132 382,-162"/>
<text text-anchor="start" x="271" y="-150" font-family="Helvetica,sans-Serif" font-size="10.00">libexif/pentax/mnote</text>
<text text-anchor="middle" x="322.5" y="-139" font-family="Helvetica,sans-Serif" font-size="10.00">&#45;pentax&#45;tag.c</text>
</a>
</g>
</g>
<!-- Node1&#45;&gt;Node7 -->
<g id="edge6_Node000001_Node000007" class="edge">
<title>Node1&#45;&gt;Node7</title>
<g id="a_edge6_Node000001_Node000007"><a xlink:title=" ">
<path fill="none" stroke="#63b8ff" d="M277.12,-190.09C287.09,-180.85 298.39,-170.36 307.23,-162.16"/>
<polygon fill="#63b8ff" stroke="#63b8ff" points="274.87,-187.4 269.92,-196.77 279.63,-192.53 274.87,-187.4"/>
</a>
</g>
</g>
<!-- Node3 -->
<g id="Node000003" class="node">
<title>Node3</title>
<g id="a_Node000003"><a xlink:href="exif-mnote-data-pentax_8h.html" target="_top" xlink:title=" ">
<polygon fill="white" stroke="#666666" points="177.5,-96 53.5,-96 53.5,-66 177.5,-66 177.5,-96"/>
<text text-anchor="start" x="61.5" y="-84" font-family="Helvetica,sans-Serif" font-size="10.00">libexif/pentax/exif</text>
<text text-anchor="middle" x="115.5" y="-73" font-family="Helvetica,sans-Serif" font-size="10.00">&#45;mnote&#45;data&#45;pentax.h</text>
</a>
</g>
</g>
<!-- Node2&#45;&gt;Node3 -->
<g id="edge2_Node000002_Node000003" class="edge">
<title>Node2&#45;&gt;Node3</title>
<g id="a_edge2_Node000002_Node000003"><a xlink:title=" ">
<path fill="none" stroke="#63b8ff" d="M161.53,-124.09C151.43,-114.85 139.96,-104.36 130.99,-96.16"/>
<polygon fill="#63b8ff" stroke="#63b8ff" points="159.11,-126.61 168.85,-130.78 163.83,-121.44 159.11,-126.61"/>
</a>
</g>
</g>
<!-- Node6 -->
<g id="Node000006" class="node">
<title>Node6</title>
<g id="a_Node000006"><a xlink:href="mnote-pentax-entry_8c.html" target="_top" xlink:title=" ">
<polygon fill="white" stroke="#666666" points="315,-96 196,-96 196,-66 315,-66 315,-96"/>
<text text-anchor="start" x="204" y="-84" font-family="Helvetica,sans-Serif" font-size="10.00">libexif/pentax/mnote</text>
<text text-anchor="middle" x="255.5" y="-73" font-family="Helvetica,sans-Serif" font-size="10.00">&#45;pentax&#45;entry.c</text>
</a>
</g>
</g>
<!-- Node2&#45;&gt;Node6 -->
<g id="edge5_Node000002_Node000006" class="edge">
<title>Node2&#45;&gt;Node6</title>
<g id="a_edge5_Node000002_Node000006"><a xlink:title=" ">
<path fill="none" stroke="#63b8ff" d="M209.47,-124.09C219.57,-114.85 231.04,-104.36 240.01,-96.16"/>
<polygon fill="#63b8ff" stroke="#63b8ff" points="207.17,-121.44 202.15,-130.78 211.89,-126.61 207.17,-121.44"/>
</a>
</g>
</g>
<!-- Node4 -->
<g id="Node000004" class="node">
<title>Node4</title>
<g id="a_Node000004"><a xlink:href="exif-data_8c.html" target="_top" xlink:title=" ">
<polygon fill="white" stroke="#666666" points="101,-24.5 0,-24.5 0,-5.5 101,-5.5 101,-24.5"/>
<text text-anchor="middle" x="50.5" y="-12.5" font-family="Helvetica,sans-Serif" font-size="10.00">libexif/exif&#45;data.c</text>
</a>
</g>
</g>
<!-- Node3&#45;&gt;Node4 -->
<g id="edge3_Node000003_Node000004" class="edge">
<title>Node3&#45;&gt;Node4</title>
<g id="a_edge3_Node000003_Node000004"><a xlink:title=" ">
<path fill="none" stroke="#63b8ff" d="M93.1,-57.94C81.56,-46.58 68.13,-33.36 59.48,-24.84"/>
<polygon fill="#63b8ff" stroke="#63b8ff" points="90.41,-60.21 100,-64.73 95.33,-55.22 90.41,-60.21"/>
</a>
</g>
</g>
<!-- Node5 -->
<g id="Node000005" class="node">
<title>Node5</title>
<g id="a_Node000005"><a xlink:href="exif-mnote-data-pentax_8c.html" target="_top" xlink:title=" ">
<polygon fill="white" stroke="#666666" points="242,-30 119,-30 119,0 242,0 242,-30"/>
<text text-anchor="start" x="127" y="-18" font-family="Helvetica,sans-Serif" font-size="10.00">libexif/pentax/exif</text>
<text text-anchor="middle" x="180.5" y="-7" font-family="Helvetica,sans-Serif" font-size="10.00">&#45;mnote&#45;data&#45;pentax.c</text>
</a>
</g>
</g>
<!-- Node3&#45;&gt;Node5 -->
<g id="edge4_Node000003_Node000005" class="edge">
<title>Node3&#45;&gt;Node5</title>
<g id="a_edge4_Node000003_Node000005"><a xlink:title=" ">
<path fill="none" stroke="#63b8ff" d="M138.04,-57.81C147.35,-48.64 157.88,-38.28 166.11,-30.16"/>
<polygon fill="#63b8ff" stroke="#63b8ff" points="135.67,-55.22 131,-64.73 140.59,-60.21 135.67,-55.22"/>
</a>
</g>
</g>
</g>
</svg>
