<?xml version="1.0" encoding="UTF-8" standalone="no"?>
<!DOCTYPE svg PUBLIC "-//W3C//DTD SVG 1.1//EN"
 "http://www.w3.org/Graphics/SVG/1.1/DTD/svg11.dtd">
<!-- Generated by graphviz version 2.44.1 (0)
 -->
<!-- Title: mnote_apple_entry_get_value Pages: 1 -->
<svg width="559pt" height="246pt"
 viewBox="0.00 0.00 559.00 246.00" xmlns="http://www.w3.org/2000/svg" xmlns:xlink="http://www.w3.org/1999/xlink">
<g id="graph0" class="graph" transform="scale(1 1) rotate(0) translate(4 242)">
<title>mnote_apple_entry_get_value</title>
<polygon fill="white" stroke="transparent" points="-4,4 -4,-242 555,-242 555,4 -4,4"/>
<!-- Node1 -->
<g id="node1" class="node">
<title>Node1</title>
<g id="a_node1"><a xlink:title=" ">
<polygon fill="#bfbfbf" stroke="black" points="0,-99 0,-129 132,-129 132,-99 0,-99"/>
<text text-anchor="start" x="8" y="-117" font-family="Helvetica,sans-Serif" font-size="10.00">mnote_apple_entry_get</text>
<text text-anchor="middle" x="66" y="-106" font-family="Helvetica,sans-Serif" font-size="10.00">_value</text>
</a>
</g>
</g>
<!-- Node2 -->
<g id="node2" class="node">
<title>Node2</title>
<g id="a_node2"><a xlink:href="exif-format_8c.html#a924038efe0cd8ebade8f44619dd794f3" target="_top" xlink:title="Return the raw size of the given EXIF data type.">
<polygon fill="white" stroke="black" points="168,-218.5 168,-237.5 287,-237.5 287,-218.5 168,-218.5"/>
<text text-anchor="middle" x="227.5" y="-225.5" font-family="Helvetica,sans-Serif" font-size="10.00">exif_format_get_size</text>
</a>
</g>
</g>
<!-- Node1&#45;&gt;Node2 -->
<g id="edge1" class="edge">
<title>Node1&#45;&gt;Node2</title>
<path fill="none" stroke="midnightblue" d="M80.78,-129.12C99.14,-148.55 133.35,-182.34 168,-204 174.34,-207.96 181.44,-211.51 188.45,-214.59"/>
<polygon fill="midnightblue" stroke="midnightblue" points="187.3,-217.9 197.88,-218.49 189.98,-211.43 187.3,-217.9"/>
</g>
<!-- Node3 -->
<g id="node3" class="node">
<title>Node3</title>
<g id="a_node3"><a xlink:href="exif-utils_8c.html#a4ad94614630897766dd0a5c9bc2a59bf" target="_top" xlink:title="Retrieve an ExifLong value from memory.">
<polygon fill="white" stroke="black" points="333.5,-142.5 333.5,-161.5 416.5,-161.5 416.5,-142.5 333.5,-142.5"/>
<text text-anchor="middle" x="375" y="-149.5" font-family="Helvetica,sans-Serif" font-size="10.00">exif_get_long</text>
</a>
</g>
</g>
<!-- Node1&#45;&gt;Node3 -->
<g id="edge2" class="edge">
<title>Node1&#45;&gt;Node3</title>
<path fill="none" stroke="midnightblue" d="M86.54,-129.11C105.97,-143.1 137.23,-162.92 168,-171 223.68,-185.63 290.39,-174.49 332.49,-164.12"/>
<polygon fill="midnightblue" stroke="midnightblue" points="333.57,-167.45 342.38,-161.58 331.83,-160.67 333.57,-167.45"/>
</g>
<!-- Node4 -->
<g id="node4" class="node">
<title>Node4</title>
<g id="a_node4"><a xlink:href="exif-utils_8c.html#a56b96f076a13da6ed926e1ef29cb2dc3" target="_top" xlink:title="Retrieve an ExifSLong value from memory.">
<polygon fill="white" stroke="black" points="463,-104.5 463,-123.5 551,-123.5 551,-104.5 463,-104.5"/>
<text text-anchor="middle" x="507" y="-111.5" font-family="Helvetica,sans-Serif" font-size="10.00">exif_get_slong</text>
</a>
</g>
</g>
<!-- Node1&#45;&gt;Node4 -->
<g id="edge8" class="edge">
<title>Node1&#45;&gt;Node4</title>
<path fill="none" stroke="midnightblue" d="M132.25,-114C219.34,-114 371.94,-114 452.58,-114"/>
<polygon fill="midnightblue" stroke="midnightblue" points="452.99,-117.5 462.99,-114 452.99,-110.5 452.99,-117.5"/>
</g>
<!-- Node5 -->
<g id="node5" class="node">
<title>Node5</title>
<g id="a_node5"><a xlink:href="exif-utils_8c.html#a1feb547c289aa57a4d2119338b03706c" target="_top" xlink:title="Retrieve an ExifRational value from memory.">
<polygon fill="white" stroke="black" points="178,-142.5 178,-161.5 277,-161.5 277,-142.5 178,-142.5"/>
<text text-anchor="middle" x="227.5" y="-149.5" font-family="Helvetica,sans-Serif" font-size="10.00">exif_get_rational</text>
</a>
</g>
</g>
<!-- Node1&#45;&gt;Node5 -->
<g id="edge4" class="edge">
<title>Node1&#45;&gt;Node5</title>
<path fill="none" stroke="midnightblue" d="M130.04,-129.02C145.46,-132.69 161.76,-136.58 176.48,-140.08"/>
<polygon fill="midnightblue" stroke="midnightblue" points="175.85,-143.53 186.39,-142.44 177.47,-136.72 175.85,-143.53"/>
</g>
<!-- Node6 -->
<g id="node6" class="node">
<title>Node6</title>
<g id="a_node6"><a xlink:href="exif-utils_8c.html#a4b4acf537a8c6b9405e7b53be868e4d7" target="_top" xlink:title="Retrieve an ExifShort value from memory.">
<polygon fill="white" stroke="black" points="184.5,-66.5 184.5,-85.5 270.5,-85.5 270.5,-66.5 184.5,-66.5"/>
<text text-anchor="middle" x="227.5" y="-73.5" font-family="Helvetica,sans-Serif" font-size="10.00">exif_get_short</text>
</a>
</g>
</g>
<!-- Node1&#45;&gt;Node6 -->
<g id="edge6" class="edge">
<title>Node1&#45;&gt;Node6</title>
<path fill="none" stroke="midnightblue" d="M130.04,-98.98C145.46,-95.31 161.76,-91.42 176.48,-87.92"/>
<polygon fill="midnightblue" stroke="midnightblue" points="177.47,-91.28 186.39,-85.56 175.85,-84.47 177.47,-91.28"/>
</g>
<!-- Node7 -->
<g id="node7" class="node">
<title>Node7</title>
<g id="a_node7"><a xlink:href="exif-utils_8c.html#a6baf094a71392f9cea23ad633ec13c8b" target="_top" xlink:title="Retrieve an ExifSShort value from memory.">
<polygon fill="white" stroke="black" points="329,-57.5 329,-76.5 421,-76.5 421,-57.5 329,-57.5"/>
<text text-anchor="middle" x="375" y="-64.5" font-family="Helvetica,sans-Serif" font-size="10.00">exif_get_sshort</text>
</a>
</g>
</g>
<!-- Node1&#45;&gt;Node7 -->
<g id="edge11" class="edge">
<title>Node1&#45;&gt;Node7</title>
<path fill="none" stroke="midnightblue" d="M86.54,-98.89C105.97,-84.9 137.23,-65.08 168,-57 218.71,-43.68 278.8,-48.87 320.96,-55.75"/>
<polygon fill="midnightblue" stroke="midnightblue" points="320.56,-59.23 331,-57.48 321.74,-52.33 320.56,-59.23"/>
</g>
<!-- Node8 -->
<g id="node8" class="node">
<title>Node8</title>
<g id="a_node8"><a xlink:href="exif-utils_8c.html#adb97c3499488d5642a82df1cb16dc2cb" target="_top" xlink:title="Retrieve an ExifSRational value from memory.">
<polygon fill="white" stroke="black" points="323,-0.5 323,-19.5 427,-19.5 427,-0.5 323,-0.5"/>
<text text-anchor="middle" x="375" y="-7.5" font-family="Helvetica,sans-Serif" font-size="10.00">exif_get_srational</text>
</a>
</g>
</g>
<!-- Node1&#45;&gt;Node8 -->
<g id="edge9" class="edge">
<title>Node1&#45;&gt;Node8</title>
<path fill="none" stroke="midnightblue" d="M83.85,-98.76C102.85,-82.47 135.37,-57.21 168,-44 214.4,-25.21 270.69,-16.8 312.7,-13.03"/>
<polygon fill="midnightblue" stroke="midnightblue" points="313.11,-16.51 322.79,-12.2 312.53,-9.54 313.11,-16.51"/>
</g>
<!-- Node3&#45;&gt;Node4 -->
<g id="edge3" class="edge">
<title>Node3&#45;&gt;Node4</title>
<path fill="none" stroke="midnightblue" d="M408.8,-142.41C425.28,-137.6 445.44,-131.7 463.13,-126.53"/>
<polygon fill="midnightblue" stroke="midnightblue" points="464.59,-129.75 473.21,-123.59 462.63,-123.03 464.59,-129.75"/>
</g>
<!-- Node5&#45;&gt;Node3 -->
<g id="edge5" class="edge">
<title>Node5&#45;&gt;Node3</title>
<path fill="none" stroke="midnightblue" d="M277.35,-152C292.11,-152 308.34,-152 323.22,-152"/>
<polygon fill="midnightblue" stroke="midnightblue" points="323.27,-155.5 333.27,-152 323.27,-148.5 323.27,-155.5"/>
</g>
<!-- Node6&#45;&gt;Node7 -->
<g id="edge7" class="edge">
<title>Node6&#45;&gt;Node7</title>
<path fill="none" stroke="midnightblue" d="M270.58,-73.4C285.59,-72.47 302.73,-71.41 318.69,-70.42"/>
<polygon fill="midnightblue" stroke="midnightblue" points="319.2,-73.9 328.96,-69.79 318.77,-66.91 319.2,-73.9"/>
</g>
<!-- Node8&#45;&gt;Node4 -->
<g id="edge10" class="edge">
<title>Node8&#45;&gt;Node4</title>
<path fill="none" stroke="midnightblue" d="M389.58,-19.8C399.94,-27.36 414.52,-38.15 427,-48 447.83,-64.44 471.08,-84.02 486.93,-97.56"/>
<polygon fill="midnightblue" stroke="midnightblue" points="485.04,-100.55 494.91,-104.4 489.6,-95.24 485.04,-100.55"/>
</g>
</g>
</svg>
