<?xml version="1.0" encoding="UTF-8" standalone="no"?>
<!DOCTYPE svg PUBLIC "-//W3C//DTD SVG 1.1//EN"
 "http://www.w3.org/Graphics/SVG/1.1/DTD/svg11.dtd">
<!-- Generated by graphviz version 2.44.1 (0)
 -->
<!-- Title: mnote_olympus_entry_get_value Pages: 1 -->
<svg width="533pt" height="188pt"
 viewBox="0.00 0.00 533.00 187.87" xmlns="http://www.w3.org/2000/svg" xmlns:xlink="http://www.w3.org/1999/xlink">
<g id="graph0" class="graph" transform="scale(1 1) rotate(0) translate(4 183.87)">
<title>mnote_olympus_entry_get_value</title>
<polygon fill="white" stroke="transparent" points="-4,4 -4,-183.87 529,-183.87 529,4 -4,4"/>
<!-- Node1 -->
<g id="node1" class="node">
<title>Node1</title>
<g id="a_node1"><a xlink:title=" ">
<polygon fill="#bfbfbf" stroke="black" points="0,-80 0,-110 126,-110 126,-80 0,-80"/>
<text text-anchor="start" x="8" y="-98" font-family="Helvetica,sans-Serif" font-size="10.00">mnote_olympus_entry</text>
<text text-anchor="middle" x="63" y="-87" font-family="Helvetica,sans-Serif" font-size="10.00">_get_value</text>
</a>
</g>
</g>
<!-- Node2 -->
<g id="node2" class="node">
<title>Node2</title>
<g id="a_node2"><a xlink:href="exif-utils_8c.html#a4ad94614630897766dd0a5c9bc2a59bf" target="_top" xlink:title="Retrieve an ExifLong value from memory.">
<polygon fill="white" stroke="black" points="307.5,-142.5 307.5,-161.5 390.5,-161.5 390.5,-142.5 307.5,-142.5"/>
<text text-anchor="middle" x="349" y="-149.5" font-family="Helvetica,sans-Serif" font-size="10.00">exif_get_long</text>
</a>
</g>
</g>
<!-- Node1&#45;&gt;Node2 -->
<g id="edge1" class="edge">
<title>Node1&#45;&gt;Node2</title>
<path fill="none" stroke="midnightblue" d="M77.41,-110.3C94.77,-128.82 126.96,-159.01 162,-171 212.04,-188.13 273.73,-175.76 311.97,-164.5"/>
<polygon fill="midnightblue" stroke="midnightblue" points="313.1,-167.81 321.63,-161.53 311.05,-161.12 313.1,-167.81"/>
</g>
<!-- Node3 -->
<g id="node3" class="node">
<title>Node3</title>
<g id="a_node3"><a xlink:href="exif-utils_8c.html#a56b96f076a13da6ed926e1ef29cb2dc3" target="_top" xlink:title="Retrieve an ExifSLong value from memory.">
<polygon fill="white" stroke="black" points="437,-104.5 437,-123.5 525,-123.5 525,-104.5 437,-104.5"/>
<text text-anchor="middle" x="481" y="-111.5" font-family="Helvetica,sans-Serif" font-size="10.00">exif_get_slong</text>
</a>
</g>
</g>
<!-- Node1&#45;&gt;Node3 -->
<g id="edge7" class="edge">
<title>Node1&#45;&gt;Node3</title>
<path fill="none" stroke="midnightblue" d="M126.28,-97.84C207.78,-101.57 349.28,-108.03 426.29,-111.55"/>
<polygon fill="midnightblue" stroke="midnightblue" points="426.57,-115.06 436.72,-112.02 426.89,-108.07 426.57,-115.06"/>
</g>
<!-- Node4 -->
<g id="node4" class="node">
<title>Node4</title>
<g id="a_node4"><a xlink:href="exif-utils_8c.html#a1feb547c289aa57a4d2119338b03706c" target="_top" xlink:title="Retrieve an ExifRational value from memory.">
<polygon fill="white" stroke="black" points="162,-142.5 162,-161.5 261,-161.5 261,-142.5 162,-142.5"/>
<text text-anchor="middle" x="211.5" y="-149.5" font-family="Helvetica,sans-Serif" font-size="10.00">exif_get_rational</text>
</a>
</g>
</g>
<!-- Node1&#45;&gt;Node4 -->
<g id="edge3" class="edge">
<title>Node1&#45;&gt;Node4</title>
<path fill="none" stroke="midnightblue" d="M102.87,-110.13C125.66,-118.99 154.19,-130.09 176.15,-138.64"/>
<polygon fill="midnightblue" stroke="midnightblue" points="175.14,-142 185.73,-142.36 177.68,-135.48 175.14,-142"/>
</g>
<!-- Node5 -->
<g id="node5" class="node">
<title>Node5</title>
<g id="a_node5"><a xlink:href="exif-utils_8c.html#a4b4acf537a8c6b9405e7b53be868e4d7" target="_top" xlink:title="Retrieve an ExifShort value from memory.">
<polygon fill="white" stroke="black" points="168.5,-66.5 168.5,-85.5 254.5,-85.5 254.5,-66.5 168.5,-66.5"/>
<text text-anchor="middle" x="211.5" y="-73.5" font-family="Helvetica,sans-Serif" font-size="10.00">exif_get_short</text>
</a>
</g>
</g>
<!-- Node1&#45;&gt;Node5 -->
<g id="edge5" class="edge">
<title>Node1&#45;&gt;Node5</title>
<path fill="none" stroke="midnightblue" d="M126.13,-86.94C136.77,-85.56 147.74,-84.14 158.1,-82.8"/>
<polygon fill="midnightblue" stroke="midnightblue" points="158.75,-86.24 168.22,-81.48 157.85,-79.3 158.75,-86.24"/>
</g>
<!-- Node6 -->
<g id="node6" class="node">
<title>Node6</title>
<g id="a_node6"><a xlink:href="exif-utils_8c.html#a6baf094a71392f9cea23ad633ec13c8b" target="_top" xlink:title="Retrieve an ExifSShort value from memory.">
<polygon fill="white" stroke="black" points="303,-57.5 303,-76.5 395,-76.5 395,-57.5 303,-57.5"/>
<text text-anchor="middle" x="349" y="-64.5" font-family="Helvetica,sans-Serif" font-size="10.00">exif_get_sshort</text>
</a>
</g>
</g>
<!-- Node1&#45;&gt;Node6 -->
<g id="edge10" class="edge">
<title>Node1&#45;&gt;Node6</title>
<path fill="none" stroke="midnightblue" d="M94.47,-79.81C113.39,-71.24 138.5,-61.4 162,-57 205.44,-48.87 255.5,-52.27 292.74,-57.21"/>
<polygon fill="midnightblue" stroke="midnightblue" points="292.5,-60.71 302.88,-58.63 293.47,-53.78 292.5,-60.71"/>
</g>
<!-- Node7 -->
<g id="node7" class="node">
<title>Node7</title>
<g id="a_node7"><a xlink:href="exif-utils_8c.html#adb97c3499488d5642a82df1cb16dc2cb" target="_top" xlink:title="Retrieve an ExifSRational value from memory.">
<polygon fill="white" stroke="black" points="297,-0.5 297,-19.5 401,-19.5 401,-0.5 297,-0.5"/>
<text text-anchor="middle" x="349" y="-7.5" font-family="Helvetica,sans-Serif" font-size="10.00">exif_get_srational</text>
</a>
</g>
</g>
<!-- Node1&#45;&gt;Node7 -->
<g id="edge8" class="edge">
<title>Node1&#45;&gt;Node7</title>
<path fill="none" stroke="midnightblue" d="M90.71,-79.98C110,-69.69 136.96,-56.42 162,-48 202.69,-34.32 250.13,-24.72 286.91,-18.6"/>
<polygon fill="midnightblue" stroke="midnightblue" points="287.68,-22.02 296.99,-16.96 286.56,-15.11 287.68,-22.02"/>
</g>
<!-- Node2&#45;&gt;Node3 -->
<g id="edge2" class="edge">
<title>Node2&#45;&gt;Node3</title>
<path fill="none" stroke="midnightblue" d="M382.8,-142.41C399.28,-137.6 419.44,-131.7 437.13,-126.53"/>
<polygon fill="midnightblue" stroke="midnightblue" points="438.59,-129.75 447.21,-123.59 436.63,-123.03 438.59,-129.75"/>
</g>
<!-- Node4&#45;&gt;Node2 -->
<g id="edge4" class="edge">
<title>Node4&#45;&gt;Node2</title>
<path fill="none" stroke="midnightblue" d="M261.04,-152C272.78,-152 285.37,-152 297.22,-152"/>
<polygon fill="midnightblue" stroke="midnightblue" points="297.4,-155.5 307.4,-152 297.4,-148.5 297.4,-155.5"/>
</g>
<!-- Node5&#45;&gt;Node6 -->
<g id="edge6" class="edge">
<title>Node5&#45;&gt;Node6</title>
<path fill="none" stroke="midnightblue" d="M254.63,-73.2C266.65,-72.4 279.92,-71.52 292.6,-70.68"/>
<polygon fill="midnightblue" stroke="midnightblue" points="292.86,-74.17 302.6,-70.02 292.39,-67.19 292.86,-74.17"/>
</g>
<!-- Node7&#45;&gt;Node3 -->
<g id="edge9" class="edge">
<title>Node7&#45;&gt;Node3</title>
<path fill="none" stroke="midnightblue" d="M363.58,-19.8C373.94,-27.36 388.52,-38.15 401,-48 421.83,-64.44 445.08,-84.02 460.93,-97.56"/>
<polygon fill="midnightblue" stroke="midnightblue" points="459.04,-100.55 468.91,-104.4 463.6,-95.24 459.04,-100.55"/>
</g>
</g>
</svg>
