<?xml version="1.0" encoding="UTF-8" standalone="no"?>
<!DOCTYPE svg PUBLIC "-//W3C//DTD SVG 1.1//EN"
 "http://www.w3.org/Graphics/SVG/1.1/DTD/svg11.dtd">
<!-- Generated by graphviz version 7.0.1 (0)
 -->
<!-- Title: libexif/canon/mnote&#45;canon&#45;tag.h Pages: 1 -->
<svg width="620pt" height="379pt"
 viewBox="0.00 0.00 620.00 379.00" xmlns="http://www.w3.org/2000/svg" xmlns:xlink="http://www.w3.org/1999/xlink">
<g id="graph0" class="graph" transform="scale(1 1) rotate(0) translate(4 375)">
<title>libexif/canon/mnote&#45;canon&#45;tag.h</title>
<!-- Node1 -->
<g id="Node000001" class="node">
<title>Node1</title>
<g id="a_Node000001"><a xlink:title=" ">
<polygon fill="#999999" stroke="#666666" points="386.5,-371 272.5,-371 272.5,-341 386.5,-341 386.5,-371"/>
<text text-anchor="start" x="280.5" y="-359" font-family="Helvetica,sans-Serif" font-size="10.00">libexif/canon/mnote</text>
<text text-anchor="middle" x="329.5" y="-348" font-family="Helvetica,sans-Serif" font-size="10.00">&#45;canon&#45;tag.h</text>
</a>
</g>
</g>
<!-- Node2 -->
<g id="Node000002" class="node">
<title>Node2</title>
<g id="a_Node000002"><a xlink:href="exif-data_8h.html" target="_top" xlink:title="Defines the ExifData type and the associated functions.">
<polygon fill="white" stroke="#666666" points="380.5,-305 278.5,-305 278.5,-286 380.5,-286 380.5,-305"/>
<text text-anchor="middle" x="329.5" y="-293" font-family="Helvetica,sans-Serif" font-size="10.00">libexif/exif&#45;data.h</text>
</a>
</g>
</g>
<!-- Node1&#45;&gt;Node2 -->
<g id="edge1_Node000001_Node000002" class="edge">
<title>Node1&#45;&gt;Node2</title>
<g id="a_edge1_Node000001_Node000002"><a xlink:title=" ">
<path fill="none" stroke="#63b8ff" d="M329.5,-340.54C329.5,-333.34 329.5,-324.53 329.5,-316.68"/>
<polygon fill="#63b8ff" stroke="#63b8ff" points="333,-316.69 329.5,-306.69 326,-316.69 333,-316.69"/>
</a>
</g>
</g>
<!-- Node3 -->
<g id="Node000003" class="node">
<title>Node3</title>
<g id="a_Node000003"><a xlink:href="exif-byte-order_8h.html" target="_top" xlink:title="Defines the ExifByteOrder enum and the associated functions.">
<polygon fill="white" stroke="#666666" points="131,-19 0,-19 0,0 131,0 131,-19"/>
<text text-anchor="middle" x="65.5" y="-7" font-family="Helvetica,sans-Serif" font-size="10.00">libexif/exif&#45;byte&#45;order.h</text>
</a>
</g>
</g>
<!-- Node2&#45;&gt;Node3 -->
<g id="edge2_Node000002_Node000003" class="edge">
<title>Node2&#45;&gt;Node3</title>
<g id="a_edge2_Node000002_Node000003"><a xlink:title=" ">
<path fill="none" stroke="#63b8ff" d="M278.14,-292.43C209.81,-288.61 94.05,-278.09 63.5,-250 38.34,-226.87 44.5,-209.67 44.5,-175.5 44.5,-175.5 44.5,-175.5 44.5,-118.5 44.5,-87.2 53.1,-51.73 59.3,-30.24"/>
<polygon fill="#63b8ff" stroke="#63b8ff" points="62.61,-31.38 62.14,-20.8 55.91,-29.36 62.61,-31.38"/>
</a>
</g>
</g>
<!-- Node4 -->
<g id="Node000004" class="node">
<title>Node4</title>
<g id="a_Node000004"><a xlink:href="exif-data-type_8h.html" target="_top" xlink:title=" ">
<polygon fill="white" stroke="#666666" points="497.5,-129 369.5,-129 369.5,-110 497.5,-110 497.5,-129"/>
<text text-anchor="middle" x="433.5" y="-117" font-family="Helvetica,sans-Serif" font-size="10.00">libexif/exif&#45;data&#45;type.h</text>
</a>
</g>
</g>
<!-- Node2&#45;&gt;Node4 -->
<g id="edge3_Node000002_Node000004" class="edge">
<title>Node2&#45;&gt;Node4</title>
<g id="a_edge3_Node000002_Node000004"><a xlink:title=" ">
<path fill="none" stroke="#63b8ff" d="M350.25,-285.56C365.19,-278.11 384.71,-266.12 396.5,-250 420.82,-216.75 429.19,-167.93 432.04,-140.72"/>
<polygon fill="#63b8ff" stroke="#63b8ff" points="435.53,-141.04 432.92,-130.77 428.56,-140.43 435.53,-141.04"/>
</a>
</g>
</g>
<!-- Node5 -->
<g id="Node000005" class="node">
<title>Node5</title>
<g id="a_Node000005"><a xlink:href="exif-ifd_8h.html" target="_top" xlink:title=" ">
<polygon fill="white" stroke="#666666" points="612,-129 519,-129 519,-110 612,-110 612,-129"/>
<text text-anchor="middle" x="565.5" y="-117" font-family="Helvetica,sans-Serif" font-size="10.00">libexif/exif&#45;ifd.h</text>
</a>
</g>
</g>
<!-- Node2&#45;&gt;Node5 -->
<g id="edge4_Node000002_Node000005" class="edge">
<title>Node2&#45;&gt;Node5</title>
<g id="a_edge4_Node000002_Node000005"><a xlink:title=" ">
<path fill="none" stroke="#63b8ff" d="M375,-285.57C426.81,-272.79 509.44,-243.85 549.5,-184 558.13,-171.11 562.1,-153.93 563.93,-140.69"/>
<polygon fill="#63b8ff" stroke="#63b8ff" points="567.39,-141.29 564.96,-130.98 560.43,-140.55 567.39,-141.29"/>
</a>
</g>
</g>
<!-- Node6 -->
<g id="Node000006" class="node">
<title>Node6</title>
<g id="a_Node000006"><a xlink:href="exif-log_8h.html" target="_top" xlink:title="Log message infrastructure.">
<polygon fill="white" stroke="#666666" points="190,-184 95,-184 95,-165 190,-165 190,-184"/>
<text text-anchor="middle" x="142.5" y="-172" font-family="Helvetica,sans-Serif" font-size="10.00">libexif/exif&#45;log.h</text>
</a>
</g>
</g>
<!-- Node2&#45;&gt;Node6 -->
<g id="edge5_Node000002_Node000006" class="edge">
<title>Node2&#45;&gt;Node6</title>
<g id="a_edge5_Node000002_Node000006"><a xlink:title=" ">
<path fill="none" stroke="#63b8ff" d="M303.53,-285.52C282.47,-277.67 252.46,-265.17 228.5,-250 202.03,-233.24 175.34,-208.64 158.87,-192.36"/>
<polygon fill="#63b8ff" stroke="#63b8ff" points="161.43,-189.98 151.91,-185.35 156.47,-194.91 161.43,-189.98"/>
</a>
</g>
</g>
<!-- Node7 -->
<g id="Node000007" class="node">
<title>Node7</title>
<g id="a_Node000007"><a xlink:href="exif-mem_8h.html" target="_top" xlink:title="Define the ExifMem data type and the associated functions.">
<polygon fill="white" stroke="#666666" points="283.5,-129 177.5,-129 177.5,-110 283.5,-110 283.5,-129"/>
<text text-anchor="middle" x="230.5" y="-117" font-family="Helvetica,sans-Serif" font-size="10.00">libexif/exif&#45;mem.h</text>
</a>
</g>
</g>
<!-- Node2&#45;&gt;Node7 -->
<g id="edge26_Node000002_Node000007" class="edge">
<title>Node2&#45;&gt;Node7</title>
<g id="a_edge26_Node000002_Node000007"><a xlink:title=" ">
<path fill="none" stroke="#63b8ff" d="M307.91,-285.63C292.69,-278.28 273.03,-266.39 261.5,-250 238.06,-216.69 232.2,-167.9 230.83,-140.71"/>
<polygon fill="#63b8ff" stroke="#63b8ff" points="234.33,-140.65 230.5,-130.77 227.33,-140.88 234.33,-140.65"/>
</a>
</g>
</g>
<!-- Node12 -->
<g id="Node000012" class="node">
<title>Node12</title>
<g id="a_Node000012"><a xlink:href="exif-tag_8h.html" target="_top" xlink:title="Handling EXIF tags.">
<polygon fill="white" stroke="#666666" points="540.5,-184 444.5,-184 444.5,-165 540.5,-165 540.5,-184"/>
<text text-anchor="middle" x="492.5" y="-172" font-family="Helvetica,sans-Serif" font-size="10.00">libexif/exif&#45;tag.h</text>
</a>
</g>
</g>
<!-- Node2&#45;&gt;Node12 -->
<g id="edge12_Node000002_Node000012" class="edge">
<title>Node2&#45;&gt;Node12</title>
<g id="a_edge12_Node000002_Node000012"><a xlink:title=" ">
<path fill="none" stroke="#63b8ff" d="M358.82,-285.63C380.07,-278.28 408.77,-266.38 430.5,-250 451.22,-234.38 469.48,-210.54 480.72,-194.06"/>
<polygon fill="#63b8ff" stroke="#63b8ff" points="483.64,-195.99 486.22,-185.71 477.79,-192.14 483.64,-195.99"/>
</a>
</g>
</g>
<!-- Node13 -->
<g id="Node000013" class="node">
<title>Node13</title>
<g id="a_Node000013"><a xlink:href="exif-content_8h.html" target="_top" xlink:title="Handling EXIF IFDs.">
<polygon fill="white" stroke="#666666" points="388,-244.5 271,-244.5 271,-225.5 388,-225.5 388,-244.5"/>
<text text-anchor="middle" x="329.5" y="-232.5" font-family="Helvetica,sans-Serif" font-size="10.00">libexif/exif&#45;content.h</text>
</a>
</g>
</g>
<!-- Node2&#45;&gt;Node13 -->
<g id="edge15_Node000002_Node000013" class="edge">
<title>Node2&#45;&gt;Node13</title>
<g id="a_edge15_Node000002_Node000013"><a xlink:title=" ">
<path fill="none" stroke="#63b8ff" d="M324.54,-285.87C322.85,-278 322.35,-266.1 323.07,-255.89"/>
<polygon fill="#63b8ff" stroke="#63b8ff" points="326.51,-256.54 324.34,-246.17 319.57,-255.63 326.51,-256.54"/>
</a>
</g>
</g>
<!-- Node15 -->
<g id="Node000015" class="node">
<title>Node15</title>
<g id="a_Node000015"><a xlink:href="exif-mnote-data_8h.html" target="_top" xlink:title="Handling EXIF MakerNote tags.">
<polygon fill="white" stroke="#666666" points="176,-250 73,-250 73,-220 176,-220 176,-250"/>
<text text-anchor="start" x="81" y="-238" font-family="Helvetica,sans-Serif" font-size="10.00">libexif/exif&#45;mnote</text>
<text text-anchor="middle" x="124.5" y="-227" font-family="Helvetica,sans-Serif" font-size="10.00">&#45;data.h</text>
</a>
</g>
</g>
<!-- Node2&#45;&gt;Node15 -->
<g id="edge24_Node000002_Node000015" class="edge">
<title>Node2&#45;&gt;Node15</title>
<g id="a_edge24_Node000002_Node000015"><a xlink:title=" ">
<path fill="none" stroke="#63b8ff" d="M298.36,-285.62C268.6,-277.12 222.89,-264.08 185.81,-253.49"/>
<polygon fill="#63b8ff" stroke="#63b8ff" points="187.13,-250.23 176.56,-250.85 185.21,-256.96 187.13,-250.23"/>
</a>
</g>
</g>
<!-- Node6&#45;&gt;Node7 -->
<g id="edge6_Node000006_Node000007" class="edge">
<title>Node6&#45;&gt;Node7</title>
<g id="a_edge6_Node000006_Node000007"><a xlink:title=" ">
<path fill="none" stroke="#63b8ff" d="M157.43,-164.51C170.78,-156.47 190.61,-144.53 206.24,-135.11"/>
<polygon fill="#63b8ff" stroke="#63b8ff" points="207.74,-138.3 214.5,-130.14 204.12,-132.3 207.74,-138.3"/>
</a>
</g>
</g>
<!-- Node11 -->
<g id="Node000011" class="node">
<title>Node11</title>
<g id="a_Node000011"><a xlink:title=" ">
<polygon fill="#e0e0e0" stroke="#999999" points="159.5,-129 103.5,-129 103.5,-110 159.5,-110 159.5,-129"/>
<text text-anchor="middle" x="131.5" y="-117" font-family="Helvetica,sans-Serif" font-size="10.00">stdarg.h</text>
</a>
</g>
</g>
<!-- Node6&#45;&gt;Node11 -->
<g id="edge11_Node000006_Node000011" class="edge">
<title>Node6&#45;&gt;Node11</title>
<g id="a_edge11_Node000006_Node000011"><a xlink:title=" ">
<path fill="none" stroke="#63b8ff" d="M140.68,-164.75C139.32,-158.19 137.4,-148.95 135.67,-140.6"/>
<polygon fill="#63b8ff" stroke="#63b8ff" points="139.12,-140 133.66,-130.92 132.27,-141.43 139.12,-140"/>
</a>
</g>
</g>
<!-- Node8 -->
<g id="Node000008" class="node">
<title>Node8</title>
<g id="a_Node000008"><a xlink:href="exif-utils_8h.html" target="_top" xlink:title="EXIF data manipulation functions and types.">
<polygon fill="white" stroke="#666666" points="273,-74 172,-74 172,-55 273,-55 273,-74"/>
<text text-anchor="middle" x="222.5" y="-62" font-family="Helvetica,sans-Serif" font-size="10.00">libexif/exif&#45;utils.h</text>
</a>
</g>
</g>
<!-- Node7&#45;&gt;Node8 -->
<g id="edge7_Node000007_Node000008" class="edge">
<title>Node7&#45;&gt;Node8</title>
<g id="a_edge7_Node000007_Node000008"><a xlink:title=" ">
<path fill="none" stroke="#63b8ff" d="M229.18,-109.75C228.19,-103.19 226.79,-93.95 225.53,-85.6"/>
<polygon fill="#63b8ff" stroke="#63b8ff" points="229.03,-85.3 224.08,-75.94 222.11,-86.35 229.03,-85.3"/>
</a>
</g>
</g>
<!-- Node8&#45;&gt;Node3 -->
<g id="edge8_Node000008_Node000003" class="edge">
<title>Node8&#45;&gt;Node3</title>
<g id="a_edge8_Node000008_Node000003"><a xlink:title=" ">
<path fill="none" stroke="#63b8ff" d="M195.87,-54.51C170.3,-45.88 131.45,-32.76 102.81,-23.1"/>
<polygon fill="#63b8ff" stroke="#63b8ff" points="104.03,-19.81 93.44,-19.93 101.79,-26.45 104.03,-19.81"/>
</a>
</g>
</g>
<!-- Node9 -->
<g id="Node000009" class="node">
<title>Node9</title>
<g id="a_Node000009"><a xlink:href="exif-format_8h.html" target="_top" xlink:title="Handling native EXIF data types.">
<polygon fill="white" stroke="#666666" points="393,-19 280,-19 280,0 393,0 393,-19"/>
<text text-anchor="middle" x="336.5" y="-7" font-family="Helvetica,sans-Serif" font-size="10.00">libexif/exif&#45;format.h</text>
</a>
</g>
</g>
<!-- Node8&#45;&gt;Node9 -->
<g id="edge9_Node000008_Node000009" class="edge">
<title>Node8&#45;&gt;Node9</title>
<g id="a_edge9_Node000008_Node000009"><a xlink:title=" ">
<path fill="none" stroke="#63b8ff" d="M241.84,-54.51C259.72,-46.2 286.54,-33.73 307.07,-24.18"/>
<polygon fill="#63b8ff" stroke="#63b8ff" points="308.48,-27.39 316.07,-20 305.53,-21.04 308.48,-27.39"/>
</a>
</g>
</g>
<!-- Node10 -->
<g id="Node000010" class="node">
<title>Node10</title>
<g id="a_Node000010"><a xlink:title=" ">
<polygon fill="#e0e0e0" stroke="#999999" points="261.5,-19 169.5,-19 169.5,0 261.5,0 261.5,-19"/>
<text text-anchor="middle" x="215.5" y="-7" font-family="Helvetica,sans-Serif" font-size="10.00">libexif/_stdint.h</text>
</a>
</g>
</g>
<!-- Node8&#45;&gt;Node10 -->
<g id="edge10_Node000008_Node000010" class="edge">
<title>Node8&#45;&gt;Node10</title>
<g id="a_edge10_Node000008_Node000010"><a xlink:title=" ">
<path fill="none" stroke="#63b8ff" d="M221.34,-54.75C220.48,-48.19 219.26,-38.95 218.16,-30.6"/>
<polygon fill="#63b8ff" stroke="#63b8ff" points="221.66,-30.4 216.88,-20.94 214.72,-31.31 221.66,-30.4"/>
</a>
</g>
</g>
<!-- Node12&#45;&gt;Node4 -->
<g id="edge14_Node000012_Node000004" class="edge">
<title>Node12&#45;&gt;Node4</title>
<g id="a_edge14_Node000012_Node000004"><a xlink:title=" ">
<path fill="none" stroke="#63b8ff" d="M482.49,-164.51C474.13,-157 462,-146.1 451.9,-137.03"/>
<polygon fill="#63b8ff" stroke="#63b8ff" points="454.26,-134.45 444.49,-130.37 449.59,-139.66 454.26,-134.45"/>
</a>
</g>
</g>
<!-- Node12&#45;&gt;Node5 -->
<g id="edge13_Node000012_Node000005" class="edge">
<title>Node12&#45;&gt;Node5</title>
<g id="a_edge13_Node000012_Node000005"><a xlink:title=" ">
<path fill="none" stroke="#63b8ff" d="M504.88,-164.51C515.65,-156.7 531.47,-145.21 544.25,-135.93"/>
<polygon fill="#63b8ff" stroke="#63b8ff" points="546.04,-138.95 552.07,-130.25 541.93,-133.29 546.04,-138.95"/>
</a>
</g>
</g>
<!-- Node13&#45;&gt;Node2 -->
<g id="edge21_Node000013_Node000002" class="edge">
<title>Node13&#45;&gt;Node2</title>
<g id="a_edge21_Node000013_Node000002"><a xlink:title=" ">
<path fill="none" stroke="#63b8ff" d="M334.46,-244.67C336.16,-252.54 336.65,-264.45 335.93,-274.66"/>
<polygon fill="#63b8ff" stroke="#63b8ff" points="332.49,-274 334.65,-284.37 339.43,-274.91 332.49,-274"/>
</a>
</g>
</g>
<!-- Node13&#45;&gt;Node6 -->
<g id="edge22_Node000013_Node000006" class="edge">
<title>Node13&#45;&gt;Node6</title>
<g id="a_edge22_Node000013_Node000006"><a xlink:title=" ">
<path fill="none" stroke="#63b8ff" d="M301.1,-225.12C269.38,-215.19 217.83,-199.07 182.15,-187.9"/>
<polygon fill="#63b8ff" stroke="#63b8ff" points="183.2,-184.57 172.61,-184.92 181.11,-191.25 183.2,-184.57"/>
</a>
</g>
</g>
<!-- Node13&#45;&gt;Node7 -->
<g id="edge23_Node000013_Node000007" class="edge">
<title>Node13&#45;&gt;Node7</title>
<g id="a_edge23_Node000013_Node000007"><a xlink:title=" ">
<path fill="none" stroke="#63b8ff" d="M318.53,-225.02C307.15,-215.45 289.15,-199.56 275.5,-184 262.84,-169.57 250.38,-151.61 241.79,-138.47"/>
<polygon fill="#63b8ff" stroke="#63b8ff" points="244.96,-136.94 236.62,-130.41 239.07,-140.71 244.96,-136.94"/>
</a>
</g>
</g>
<!-- Node13&#45;&gt;Node12 -->
<g id="edge16_Node000013_Node000012" class="edge">
<title>Node13&#45;&gt;Node12</title>
<g id="a_edge16_Node000013_Node000012"><a xlink:title=" ">
<path fill="none" stroke="#63b8ff" d="M354.26,-225.12C381.54,-215.32 425.67,-199.48 456.72,-188.34"/>
<polygon fill="#63b8ff" stroke="#63b8ff" points="457.86,-191.65 466.09,-184.98 455.49,-185.06 457.86,-191.65"/>
</a>
</g>
</g>
<!-- Node14 -->
<g id="Node000014" class="node">
<title>Node14</title>
<g id="a_Node000014"><a xlink:href="exif-entry_8h.html" target="_top" xlink:title="Handling EXIF entries.">
<polygon fill="white" stroke="#666666" points="388.5,-184 284.5,-184 284.5,-165 388.5,-165 388.5,-184"/>
<text text-anchor="middle" x="336.5" y="-172" font-family="Helvetica,sans-Serif" font-size="10.00">libexif/exif&#45;entry.h</text>
</a>
</g>
</g>
<!-- Node13&#45;&gt;Node14 -->
<g id="edge17_Node000013_Node000014" class="edge">
<title>Node13&#45;&gt;Node14</title>
<g id="a_edge17_Node000013_Node000014"><a xlink:title=" ">
<path fill="none" stroke="#63b8ff" d="M325.58,-225.37C324.81,-217.42 325.77,-205.33 327.75,-195.05"/>
<polygon fill="#63b8ff" stroke="#63b8ff" points="331.07,-196.19 330.13,-185.63 324.29,-194.47 331.07,-196.19"/>
</a>
</g>
</g>
<!-- Node14&#45;&gt;Node7 -->
<g id="edge20_Node000014_Node000007" class="edge">
<title>Node14&#45;&gt;Node7</title>
<g id="a_edge20_Node000014_Node000007"><a xlink:title=" ">
<path fill="none" stroke="#63b8ff" d="M318.52,-164.51C302.05,-156.27 277.41,-143.96 258.39,-134.45"/>
<polygon fill="#63b8ff" stroke="#63b8ff" points="260.08,-131.38 249.57,-130.03 256.95,-137.64 260.08,-131.38"/>
</a>
</g>
</g>
<!-- Node14&#45;&gt;Node9 -->
<g id="edge19_Node000014_Node000009" class="edge">
<title>Node14&#45;&gt;Node9</title>
<g id="a_edge19_Node000014_Node000009"><a xlink:title=" ">
<path fill="none" stroke="#63b8ff" d="M336.5,-164.74C336.5,-139.53 336.5,-66.36 336.5,-30.62"/>
<polygon fill="#63b8ff" stroke="#63b8ff" points="340,-30.82 336.5,-20.82 333,-30.82 340,-30.82"/>
</a>
</g>
</g>
<!-- Node14&#45;&gt;Node13 -->
<g id="edge18_Node000014_Node000013" class="edge">
<title>Node14&#45;&gt;Node13</title>
<g id="a_edge18_Node000014_Node000013"><a xlink:title=" ">
<path fill="none" stroke="#63b8ff" d="M340.43,-184.17C341.19,-192.13 340.22,-204.22 338.24,-214.49"/>
<polygon fill="#63b8ff" stroke="#63b8ff" points="334.92,-213.35 335.86,-223.9 341.71,-215.06 334.92,-213.35"/>
</a>
</g>
</g>
<!-- Node15&#45;&gt;Node6 -->
<g id="edge25_Node000015_Node000006" class="edge">
<title>Node15&#45;&gt;Node6</title>
<g id="a_edge25_Node000015_Node000006"><a xlink:title=" ">
<path fill="none" stroke="#63b8ff" d="M128.95,-219.54C131.22,-212.17 134.01,-203.1 136.47,-195.11"/>
<polygon fill="#63b8ff" stroke="#63b8ff" points="139.79,-196.21 139.39,-185.62 133.1,-194.15 139.79,-196.21"/>
</a>
</g>
</g>
</g>
</svg>
