<?xml version="1.0" encoding="UTF-8" standalone="no"?>
<!DOCTYPE svg PUBLIC "-//W3C//DTD SVG 1.1//EN"
 "http://www.w3.org/Graphics/SVG/1.1/DTD/svg11.dtd">
<!-- Generated by graphviz version 2.44.1 (0)
 -->
<!-- Title: libexif/canon/mnote&#45;canon&#45;entry.c Pages: 1 -->
<svg width="1093pt" height="509pt"
 viewBox="0.00 0.00 1092.50 509.00" xmlns="http://www.w3.org/2000/svg" xmlns:xlink="http://www.w3.org/1999/xlink">
<g id="graph0" class="graph" transform="scale(1 1) rotate(0) translate(4 505)">
<title>libexif/canon/mnote&#45;canon&#45;entry.c</title>
<polygon fill="white" stroke="transparent" points="-4,4 -4,-505 1088.5,-505 1088.5,4 -4,4"/>
<!-- Node1 -->
<g id="node1" class="node">
<title>Node1</title>
<g id="a_node1"><a xlink:title=" ">
<polygon fill="#bfbfbf" stroke="black" points="738,-470.5 738,-500.5 852,-500.5 852,-470.5 738,-470.5"/>
<text text-anchor="start" x="746" y="-488.5" font-family="Helvetica,sans-Serif" font-size="10.00">libexif/canon/mnote</text>
<text text-anchor="middle" x="795" y="-477.5" font-family="Helvetica,sans-Serif" font-size="10.00">&#45;canon&#45;entry.c</text>
</a>
</g>
</g>
<!-- Node2 -->
<g id="node2" class="node">
<title>Node2</title>
<g id="a_node2"><a xlink:title=" ">
<polygon fill="white" stroke="#bfbfbf" points="37,-353 37,-372 93,-372 93,-353 37,-353"/>
<text text-anchor="middle" x="65" y="-360" font-family="Helvetica,sans-Serif" font-size="10.00">config.h</text>
</a>
</g>
</g>
<!-- Node1&#45;&gt;Node2 -->
<g id="edge1" class="edge">
<title>Node1&#45;&gt;Node2</title>
<path fill="none" stroke="midnightblue" d="M737.91,-482.5C587.11,-476.87 186.03,-459.66 132,-434 107.42,-422.33 87.24,-397.41 75.65,-380.55"/>
<polygon fill="midnightblue" stroke="midnightblue" points="78.55,-378.58 70.13,-372.15 72.7,-382.43 78.55,-378.58"/>
</g>
<!-- Node3 -->
<g id="node3" class="node">
<title>Node3</title>
<g id="a_node3"><a xlink:href="mnote-canon-entry_8h.html" target="_top" xlink:title=" ">
<polygon fill="white" stroke="black" points="572,-414.5 572,-433.5 690,-433.5 690,-414.5 572,-414.5"/>
<text text-anchor="middle" x="631" y="-421.5" font-family="Helvetica,sans-Serif" font-size="10.00">mnote&#45;canon&#45;entry.h</text>
</a>
</g>
</g>
<!-- Node1&#45;&gt;Node3 -->
<g id="edge2" class="edge">
<title>Node1&#45;&gt;Node3</title>
<path fill="none" stroke="midnightblue" d="M756.13,-470.4C728.25,-460.28 691.06,-446.79 664.49,-437.15"/>
<polygon fill="midnightblue" stroke="midnightblue" points="665.46,-433.78 654.86,-433.66 663.07,-440.36 665.46,-433.78"/>
</g>
<!-- Node4 -->
<g id="node4" class="node">
<title>Node4</title>
<g id="a_node4"><a xlink:href="exif-format_8h.html" target="_top" xlink:title="Handling native EXIF data types.">
<polygon fill="white" stroke="black" points="279.5,-0.5 279.5,-19.5 392.5,-19.5 392.5,-0.5 279.5,-0.5"/>
<text text-anchor="middle" x="336" y="-7.5" font-family="Helvetica,sans-Serif" font-size="10.00">libexif/exif&#45;format.h</text>
</a>
</g>
</g>
<!-- Node1&#45;&gt;Node4 -->
<g id="edge36" class="edge">
<title>Node1&#45;&gt;Node4</title>
<path fill="none" stroke="midnightblue" d="M737.97,-479.87C579.61,-466.24 146,-423.46 146,-363.5 146,-363.5 146,-363.5 146,-121 146,-62.42 214.48,-34.53 269.21,-21.6"/>
<polygon fill="midnightblue" stroke="midnightblue" points="270.26,-24.95 279.25,-19.35 268.73,-18.12 270.26,-24.95"/>
</g>
<!-- Node12 -->
<g id="node12" class="node">
<title>Node12</title>
<g id="a_node12"><a xlink:href="exif-utils_8h.html" target="_top" xlink:title="EXIF data manipulation functions and types.">
<polygon fill="white" stroke="black" points="537.5,-56.5 537.5,-75.5 638.5,-75.5 638.5,-56.5 537.5,-56.5"/>
<text text-anchor="middle" x="588" y="-63.5" font-family="Helvetica,sans-Serif" font-size="10.00">libexif/exif&#45;utils.h</text>
</a>
</g>
</g>
<!-- Node1&#45;&gt;Node12 -->
<g id="edge37" class="edge">
<title>Node1&#45;&gt;Node12</title>
<path fill="none" stroke="midnightblue" d="M797.61,-470.36C803.04,-439.77 815,-365.11 815,-302 815,-302 815,-302 815,-238.5 815,-147.59 697.67,-98.75 631.71,-78.48"/>
<polygon fill="midnightblue" stroke="midnightblue" points="632.57,-75.09 621.98,-75.59 630.57,-81.79 632.57,-75.09"/>
</g>
<!-- Node19 -->
<g id="node19" class="node">
<title>Node19</title>
<g id="a_node19"><a xlink:title=" ">
<polygon fill="white" stroke="#bfbfbf" points="823,-414.5 823,-433.5 873,-433.5 873,-414.5 823,-414.5"/>
<text text-anchor="middle" x="848" y="-421.5" font-family="Helvetica,sans-Serif" font-size="10.00">stdio.h</text>
</a>
</g>
</g>
<!-- Node1&#45;&gt;Node19 -->
<g id="edge32" class="edge">
<title>Node1&#45;&gt;Node19</title>
<path fill="none" stroke="midnightblue" d="M807.56,-470.4C815.34,-461.66 825.36,-450.41 833.48,-441.3"/>
<polygon fill="midnightblue" stroke="midnightblue" points="836.25,-443.45 840.29,-433.66 831.02,-438.8 836.25,-443.45"/>
</g>
<!-- Node20 -->
<g id="node20" class="node">
<title>Node20</title>
<g id="a_node20"><a xlink:title=" ">
<polygon fill="white" stroke="#bfbfbf" points="891.5,-414.5 891.5,-433.5 944.5,-433.5 944.5,-414.5 891.5,-414.5"/>
<text text-anchor="middle" x="918" y="-421.5" font-family="Helvetica,sans-Serif" font-size="10.00">stdlib.h</text>
</a>
</g>
</g>
<!-- Node1&#45;&gt;Node20 -->
<g id="edge33" class="edge">
<title>Node1&#45;&gt;Node20</title>
<path fill="none" stroke="midnightblue" d="M824.15,-470.4C844.42,-460.59 871.24,-447.62 891.02,-438.05"/>
<polygon fill="midnightblue" stroke="midnightblue" points="892.62,-441.16 900.1,-433.66 889.58,-434.86 892.62,-441.16"/>
</g>
<!-- Node21 -->
<g id="node21" class="node">
<title>Node21</title>
<g id="a_node21"><a xlink:title=" ">
<polygon fill="white" stroke="#bfbfbf" points="962.5,-414.5 962.5,-433.5 1015.5,-433.5 1015.5,-414.5 962.5,-414.5"/>
<text text-anchor="middle" x="989" y="-421.5" font-family="Helvetica,sans-Serif" font-size="10.00">string.h</text>
</a>
</g>
</g>
<!-- Node1&#45;&gt;Node21 -->
<g id="edge34" class="edge">
<title>Node1&#45;&gt;Node21</title>
<path fill="none" stroke="midnightblue" d="M840.98,-470.4C875.15,-459.92 921.13,-445.81 952.73,-436.12"/>
<polygon fill="midnightblue" stroke="midnightblue" points="953.92,-439.42 962.45,-433.14 951.87,-432.73 953.92,-439.42"/>
</g>
<!-- Node22 -->
<g id="node22" class="node">
<title>Node22</title>
<g id="a_node22"><a xlink:title=" ">
<polygon fill="white" stroke="#bfbfbf" points="1033.5,-414.5 1033.5,-433.5 1084.5,-433.5 1084.5,-414.5 1033.5,-414.5"/>
<text text-anchor="middle" x="1059" y="-421.5" font-family="Helvetica,sans-Serif" font-size="10.00">math.h</text>
</a>
</g>
</g>
<!-- Node1&#45;&gt;Node22 -->
<g id="edge35" class="edge">
<title>Node1&#45;&gt;Node22</title>
<path fill="none" stroke="midnightblue" d="M852.34,-472.62C896.69,-463.27 959.86,-449.6 1023.59,-434.27"/>
<polygon fill="midnightblue" stroke="midnightblue" points="1024.51,-437.65 1033.41,-431.9 1022.87,-430.85 1024.51,-437.65"/>
</g>
<!-- Node23 -->
<g id="node23" class="node">
<title>Node23</title>
<g id="a_node23"><a xlink:href="i18n_8h.html" target="_top" xlink:title=" ">
<polygon fill="white" stroke="black" points="0,-414.5 0,-433.5 80,-433.5 80,-414.5 0,-414.5"/>
<text text-anchor="middle" x="40" y="-421.5" font-family="Helvetica,sans-Serif" font-size="10.00">libexif/i18n.h</text>
</a>
</g>
</g>
<!-- Node1&#45;&gt;Node23 -->
<g id="edge38" class="edge">
<title>Node1&#45;&gt;Node23</title>
<path fill="none" stroke="midnightblue" d="M737.58,-482.18C617.68,-476.93 332.08,-462.35 94,-434 92.73,-433.85 91.44,-433.69 90.14,-433.52"/>
<polygon fill="midnightblue" stroke="midnightblue" points="90.43,-430.03 80.04,-432.1 89.46,-436.96 90.43,-430.03"/>
</g>
<!-- Node3&#45;&gt;Node4 -->
<g id="edge3" class="edge">
<title>Node3&#45;&gt;Node4</title>
<path fill="none" stroke="midnightblue" d="M571.64,-419.37C450.05,-410.3 184,-381.39 184,-302 184,-302 184,-302 184,-121 184,-67.44 246.71,-37.3 291.57,-22.59"/>
<polygon fill="midnightblue" stroke="midnightblue" points="292.63,-25.93 301.13,-19.6 290.54,-19.25 292.63,-25.93"/>
</g>
<!-- Node5 -->
<g id="node5" class="node">
<title>Node5</title>
<g id="a_node5"><a xlink:href="exif-byte-order_8h.html" target="_top" xlink:title="Defines the ExifByteOrder enum and the associated functions.">
<polygon fill="white" stroke="black" points="673.5,-0.5 673.5,-19.5 804.5,-19.5 804.5,-0.5 673.5,-0.5"/>
<text text-anchor="middle" x="739" y="-7.5" font-family="Helvetica,sans-Serif" font-size="10.00">libexif/exif&#45;byte&#45;order.h</text>
</a>
</g>
</g>
<!-- Node3&#45;&gt;Node5 -->
<g id="edge4" class="edge">
<title>Node3&#45;&gt;Node5</title>
<path fill="none" stroke="midnightblue" d="M658.12,-414.42C700.34,-399.17 777,-363.07 777,-302 777,-302 777,-302 777,-238.5 777,-156.69 770.55,-135.91 753,-56 751.02,-47 748.08,-37.21 745.39,-29.06"/>
<polygon fill="midnightblue" stroke="midnightblue" points="748.67,-27.84 742.13,-19.51 742.05,-30.1 748.67,-27.84"/>
</g>
<!-- Node6 -->
<g id="node6" class="node">
<title>Node6</title>
<g id="a_node6"><a xlink:href="mnote-canon-tag_8h.html" target="_top" xlink:title=" ">
<polygon fill="white" stroke="black" points="535,-347.5 535,-377.5 649,-377.5 649,-347.5 535,-347.5"/>
<text text-anchor="start" x="543" y="-365.5" font-family="Helvetica,sans-Serif" font-size="10.00">libexif/canon/mnote</text>
<text text-anchor="middle" x="592" y="-354.5" font-family="Helvetica,sans-Serif" font-size="10.00">&#45;canon&#45;tag.h</text>
</a>
</g>
</g>
<!-- Node3&#45;&gt;Node6 -->
<g id="edge5" class="edge">
<title>Node3&#45;&gt;Node6</title>
<path fill="none" stroke="midnightblue" d="M625.41,-414.48C620.57,-407.09 613.35,-396.08 606.86,-386.17"/>
<polygon fill="midnightblue" stroke="midnightblue" points="609.6,-383.97 601.19,-377.52 603.75,-387.81 609.6,-383.97"/>
</g>
<!-- Node7 -->
<g id="node7" class="node">
<title>Node7</title>
<g id="a_node7"><a xlink:href="exif-data_8h.html" target="_top" xlink:title="Defines the ExifData type and the associated functions.">
<polygon fill="white" stroke="black" points="422,-291.5 422,-310.5 524,-310.5 524,-291.5 422,-291.5"/>
<text text-anchor="middle" x="473" y="-298.5" font-family="Helvetica,sans-Serif" font-size="10.00">libexif/exif&#45;data.h</text>
</a>
</g>
</g>
<!-- Node6&#45;&gt;Node7 -->
<g id="edge6" class="edge">
<title>Node6&#45;&gt;Node7</title>
<path fill="none" stroke="midnightblue" d="M563.8,-347.4C544.28,-337.64 518.47,-324.74 499.37,-315.18"/>
<polygon fill="midnightblue" stroke="midnightblue" points="500.83,-312 490.32,-310.66 497.69,-318.26 500.83,-312"/>
</g>
<!-- Node7&#45;&gt;Node5 -->
<g id="edge7" class="edge">
<title>Node7&#45;&gt;Node5</title>
<path fill="none" stroke="midnightblue" d="M524.02,-297.01C587.6,-292.23 691.29,-280.67 719,-255 744.62,-231.26 739,-213.93 739,-179 739,-179 739,-179 739,-121 739,-88.95 739,-51.64 739,-29.75"/>
<polygon fill="midnightblue" stroke="midnightblue" points="742.5,-29.56 739,-19.56 735.5,-29.56 742.5,-29.56"/>
</g>
<!-- Node8 -->
<g id="node8" class="node">
<title>Node8</title>
<g id="a_node8"><a xlink:href="exif-data-type_8h.html" target="_top" xlink:title=" ">
<polygon fill="white" stroke="black" points="324,-112.5 324,-131.5 452,-131.5 452,-112.5 324,-112.5"/>
<text text-anchor="middle" x="388" y="-119.5" font-family="Helvetica,sans-Serif" font-size="10.00">libexif/exif&#45;data&#45;type.h</text>
</a>
</g>
</g>
<!-- Node7&#45;&gt;Node8 -->
<g id="edge8" class="edge">
<title>Node7&#45;&gt;Node8</title>
<path fill="none" stroke="midnightblue" d="M437.99,-291.45C419.07,-284.84 397.32,-273.59 386,-255 364.43,-219.55 374.37,-168.22 382.04,-141.2"/>
<polygon fill="midnightblue" stroke="midnightblue" points="385.42,-142.11 384.99,-131.52 378.73,-140.07 385.42,-142.11"/>
</g>
<!-- Node9 -->
<g id="node9" class="node">
<title>Node9</title>
<g id="a_node9"><a xlink:href="exif-ifd_8h.html" target="_top" xlink:title=" ">
<polygon fill="white" stroke="black" points="212.5,-112.5 212.5,-131.5 305.5,-131.5 305.5,-112.5 212.5,-112.5"/>
<text text-anchor="middle" x="259" y="-119.5" font-family="Helvetica,sans-Serif" font-size="10.00">libexif/exif&#45;ifd.h</text>
</a>
</g>
</g>
<!-- Node7&#45;&gt;Node9 -->
<g id="edge9" class="edge">
<title>Node7&#45;&gt;Node9</title>
<path fill="none" stroke="midnightblue" d="M426.54,-291.43C395.42,-284.46 354.22,-272.83 321,-255 280.13,-233.07 260.62,-230.02 241,-188 233.83,-172.63 240.53,-153.85 247.71,-140.43"/>
<polygon fill="midnightblue" stroke="midnightblue" points="250.77,-142.13 252.83,-131.74 244.74,-138.58 250.77,-142.13"/>
</g>
<!-- Node10 -->
<g id="node10" class="node">
<title>Node10</title>
<g id="a_node10"><a xlink:href="exif-log_8h.html" target="_top" xlink:title="Log message infrastructure.">
<polygon fill="white" stroke="black" points="600.5,-168.5 600.5,-187.5 695.5,-187.5 695.5,-168.5 600.5,-168.5"/>
<text text-anchor="middle" x="648" y="-175.5" font-family="Helvetica,sans-Serif" font-size="10.00">libexif/exif&#45;log.h</text>
</a>
</g>
</g>
<!-- Node7&#45;&gt;Node10 -->
<g id="edge10" class="edge">
<title>Node7&#45;&gt;Node10</title>
<path fill="none" stroke="midnightblue" d="M490.82,-291.41C507.81,-282.95 533.87,-269.26 555,-255 582.93,-236.16 612.65,-210.83 630.77,-194.7"/>
<polygon fill="midnightblue" stroke="midnightblue" points="633.58,-196.89 638.68,-187.6 628.9,-191.68 633.58,-196.89"/>
</g>
<!-- Node11 -->
<g id="node11" class="node">
<title>Node11</title>
<g id="a_node11"><a xlink:href="exif-mem_8h.html" target="_top" xlink:title="Define the ExifMem data type and the associated functions.">
<polygon fill="white" stroke="black" points="514,-112.5 514,-131.5 620,-131.5 620,-112.5 514,-112.5"/>
<text text-anchor="middle" x="567" y="-119.5" font-family="Helvetica,sans-Serif" font-size="10.00">libexif/exif&#45;mem.h</text>
</a>
</g>
</g>
<!-- Node7&#45;&gt;Node11 -->
<g id="edge31" class="edge">
<title>Node7&#45;&gt;Node11</title>
<path fill="none" stroke="midnightblue" d="M485.22,-291.29C495.99,-283.04 511.41,-269.75 521,-255 544.73,-218.5 557.79,-168.35 563.48,-141.59"/>
<polygon fill="midnightblue" stroke="midnightblue" points="566.94,-142.16 565.48,-131.66 560.07,-140.78 566.94,-142.16"/>
</g>
<!-- Node15 -->
<g id="node15" class="node">
<title>Node15</title>
<g id="a_node15"><a xlink:href="exif-tag_8h.html" target="_top" xlink:title="Handling EXIF tags.">
<polygon fill="white" stroke="black" points="250,-168.5 250,-187.5 346,-187.5 346,-168.5 250,-168.5"/>
<text text-anchor="middle" x="298" y="-175.5" font-family="Helvetica,sans-Serif" font-size="10.00">libexif/exif&#45;tag.h</text>
</a>
</g>
</g>
<!-- Node7&#45;&gt;Node15 -->
<g id="edge17" class="edge">
<title>Node7&#45;&gt;Node15</title>
<path fill="none" stroke="midnightblue" d="M433.65,-291.48C408.71,-284.65 376.8,-273.15 353,-255 332.43,-239.31 316.21,-213.84 306.87,-196.76"/>
<polygon fill="midnightblue" stroke="midnightblue" points="309.92,-195.04 302.18,-187.81 303.72,-198.29 309.92,-195.04"/>
</g>
<!-- Node16 -->
<g id="node16" class="node">
<title>Node16</title>
<g id="a_node16"><a xlink:href="exif-content_8h.html" target="_top" xlink:title="Handling EXIF IFDs.">
<polygon fill="white" stroke="black" points="395.5,-230 395.5,-249 512.5,-249 512.5,-230 395.5,-230"/>
<text text-anchor="middle" x="454" y="-237" font-family="Helvetica,sans-Serif" font-size="10.00">libexif/exif&#45;content.h</text>
</a>
</g>
</g>
<!-- Node7&#45;&gt;Node16 -->
<g id="edge20" class="edge">
<title>Node7&#45;&gt;Node16</title>
<path fill="none" stroke="midnightblue" d="M465.38,-291.48C460.87,-283.08 456.21,-269.98 453.64,-259.16"/>
<polygon fill="midnightblue" stroke="midnightblue" points="457.03,-258.23 451.82,-249.01 450.14,-259.47 457.03,-258.23"/>
</g>
<!-- Node18 -->
<g id="node18" class="node">
<title>Node18</title>
<g id="a_node18"><a xlink:href="exif-mnote-data_8h.html" target="_top" xlink:title="Handling EXIF MakerNote tags.">
<polygon fill="white" stroke="black" points="607.5,-224.5 607.5,-254.5 710.5,-254.5 710.5,-224.5 607.5,-224.5"/>
<text text-anchor="start" x="615.5" y="-242.5" font-family="Helvetica,sans-Serif" font-size="10.00">libexif/exif&#45;mnote</text>
<text text-anchor="middle" x="659" y="-231.5" font-family="Helvetica,sans-Serif" font-size="10.00">&#45;data.h</text>
</a>
</g>
</g>
<!-- Node7&#45;&gt;Node18 -->
<g id="edge29" class="edge">
<title>Node7&#45;&gt;Node18</title>
<path fill="none" stroke="midnightblue" d="M499.65,-291.48C527.19,-282.66 570.94,-268.67 605.64,-257.57"/>
<polygon fill="midnightblue" stroke="midnightblue" points="606.71,-260.9 615.16,-254.52 604.57,-254.24 606.71,-260.9"/>
</g>
<!-- Node10&#45;&gt;Node11 -->
<g id="edge11" class="edge">
<title>Node10&#45;&gt;Node11</title>
<path fill="none" stroke="midnightblue" d="M634.99,-168.32C622.47,-159.98 603.32,-147.21 588.53,-137.35"/>
<polygon fill="midnightblue" stroke="midnightblue" points="590.24,-134.29 579.98,-131.65 586.36,-140.11 590.24,-134.29"/>
</g>
<!-- Node14 -->
<g id="node14" class="node">
<title>Node14</title>
<g id="a_node14"><a xlink:title=" ">
<polygon fill="white" stroke="#bfbfbf" points="638,-112.5 638,-131.5 694,-131.5 694,-112.5 638,-112.5"/>
<text text-anchor="middle" x="666" y="-119.5" font-family="Helvetica,sans-Serif" font-size="10.00">stdarg.h</text>
</a>
</g>
</g>
<!-- Node10&#45;&gt;Node14 -->
<g id="edge16" class="edge">
<title>Node10&#45;&gt;Node14</title>
<path fill="none" stroke="midnightblue" d="M650.97,-168.08C653.38,-160.85 656.86,-150.41 659.87,-141.4"/>
<polygon fill="midnightblue" stroke="midnightblue" points="663.24,-142.34 663.08,-131.75 656.6,-140.13 663.24,-142.34"/>
</g>
<!-- Node11&#45;&gt;Node12 -->
<g id="edge12" class="edge">
<title>Node11&#45;&gt;Node12</title>
<path fill="none" stroke="midnightblue" d="M570.47,-112.08C573.31,-104.77 577.43,-94.18 580.96,-85.1"/>
<polygon fill="midnightblue" stroke="midnightblue" points="584.23,-86.34 584.6,-75.75 577.71,-83.8 584.23,-86.34"/>
</g>
<!-- Node12&#45;&gt;Node4 -->
<g id="edge14" class="edge">
<title>Node12&#45;&gt;Node4</title>
<path fill="none" stroke="midnightblue" d="M548.07,-56.44C504.11,-47.02 433.37,-31.87 385.82,-21.68"/>
<polygon fill="midnightblue" stroke="midnightblue" points="386.25,-18.19 375.74,-19.52 384.79,-25.03 386.25,-18.19"/>
</g>
<!-- Node12&#45;&gt;Node5 -->
<g id="edge13" class="edge">
<title>Node12&#45;&gt;Node5</title>
<path fill="none" stroke="midnightblue" d="M611.93,-56.44C637.22,-47.4 677.3,-33.06 705.68,-22.92"/>
<polygon fill="midnightblue" stroke="midnightblue" points="706.95,-26.18 715.19,-19.52 704.59,-19.59 706.95,-26.18"/>
</g>
<!-- Node13 -->
<g id="node13" class="node">
<title>Node13</title>
<g id="a_node13"><a xlink:title=" ">
<polygon fill="white" stroke="#bfbfbf" points="542,-0.5 542,-19.5 634,-19.5 634,-0.5 542,-0.5"/>
<text text-anchor="middle" x="588" y="-7.5" font-family="Helvetica,sans-Serif" font-size="10.00">libexif/_stdint.h</text>
</a>
</g>
</g>
<!-- Node12&#45;&gt;Node13 -->
<g id="edge15" class="edge">
<title>Node12&#45;&gt;Node13</title>
<path fill="none" stroke="midnightblue" d="M588,-56.08C588,-49.01 588,-38.86 588,-29.99"/>
<polygon fill="midnightblue" stroke="midnightblue" points="591.5,-29.75 588,-19.75 584.5,-29.75 591.5,-29.75"/>
</g>
<!-- Node15&#45;&gt;Node8 -->
<g id="edge19" class="edge">
<title>Node15&#45;&gt;Node8</title>
<path fill="none" stroke="midnightblue" d="M312.46,-168.32C326.5,-159.9 348.05,-146.97 364.54,-137.07"/>
<polygon fill="midnightblue" stroke="midnightblue" points="366.8,-139.8 373.58,-131.65 363.2,-133.8 366.8,-139.8"/>
</g>
<!-- Node15&#45;&gt;Node9 -->
<g id="edge18" class="edge">
<title>Node15&#45;&gt;Node9</title>
<path fill="none" stroke="midnightblue" d="M291.56,-168.08C286.05,-160.46 277.97,-149.26 271.24,-139.94"/>
<polygon fill="midnightblue" stroke="midnightblue" points="274.01,-137.81 265.32,-131.75 268.34,-141.91 274.01,-137.81"/>
</g>
<!-- Node16&#45;&gt;Node7 -->
<g id="edge26" class="edge">
<title>Node16&#45;&gt;Node7</title>
<path fill="none" stroke="midnightblue" d="M461.61,-249.01C466.13,-257.4 470.78,-270.5 473.35,-281.32"/>
<polygon fill="midnightblue" stroke="midnightblue" points="469.96,-282.25 475.18,-291.48 476.85,-281.01 469.96,-282.25"/>
</g>
<!-- Node16&#45;&gt;Node10 -->
<g id="edge27" class="edge">
<title>Node16&#45;&gt;Node10</title>
<path fill="none" stroke="midnightblue" d="M481.8,-229.98C515.65,-219.59 572.97,-202.01 610.65,-190.45"/>
<polygon fill="midnightblue" stroke="midnightblue" points="611.72,-193.79 620.26,-187.51 609.67,-187.1 611.72,-193.79"/>
</g>
<!-- Node16&#45;&gt;Node11 -->
<g id="edge28" class="edge">
<title>Node16&#45;&gt;Node11</title>
<path fill="none" stroke="midnightblue" d="M465.85,-229.85C478.6,-220.28 499.19,-204.08 515,-188 529.82,-172.93 544.68,-153.86 554.69,-140.29"/>
<polygon fill="midnightblue" stroke="midnightblue" points="557.75,-142.03 560.79,-131.88 552.09,-137.92 557.75,-142.03"/>
</g>
<!-- Node16&#45;&gt;Node15 -->
<g id="edge21" class="edge">
<title>Node16&#45;&gt;Node15</title>
<path fill="none" stroke="midnightblue" d="M431.65,-229.98C405.01,-219.81 360.29,-202.76 329.99,-191.2"/>
<polygon fill="midnightblue" stroke="midnightblue" points="330.9,-187.8 320.31,-187.51 328.41,-194.34 330.9,-187.8"/>
</g>
<!-- Node17 -->
<g id="node17" class="node">
<title>Node17</title>
<g id="a_node17"><a xlink:href="exif-entry_8h.html" target="_top" xlink:title="Handling EXIF entries.">
<polygon fill="white" stroke="black" points="402,-168.5 402,-187.5 506,-187.5 506,-168.5 402,-168.5"/>
<text text-anchor="middle" x="454" y="-175.5" font-family="Helvetica,sans-Serif" font-size="10.00">libexif/exif&#45;entry.h</text>
</a>
</g>
</g>
<!-- Node16&#45;&gt;Node17 -->
<g id="edge22" class="edge">
<title>Node16&#45;&gt;Node17</title>
<path fill="none" stroke="midnightblue" d="M449.1,-229.98C447.27,-221.58 446.8,-208.48 447.69,-197.66"/>
<polygon fill="midnightblue" stroke="midnightblue" points="451.19,-197.9 449.1,-187.51 444.25,-196.93 451.19,-197.9"/>
</g>
<!-- Node17&#45;&gt;Node4 -->
<g id="edge24" class="edge">
<title>Node17&#45;&gt;Node4</title>
<path fill="none" stroke="midnightblue" d="M457.81,-168.09C462.77,-155.08 469.81,-130.44 461,-112 441.14,-70.43 394.89,-40.46 364.56,-24.43"/>
<polygon fill="midnightblue" stroke="midnightblue" points="365.83,-21.14 355.33,-19.72 362.64,-27.38 365.83,-21.14"/>
</g>
<!-- Node17&#45;&gt;Node11 -->
<g id="edge25" class="edge">
<title>Node17&#45;&gt;Node11</title>
<path fill="none" stroke="midnightblue" d="M471.91,-168.44C490.25,-159.68 519.01,-145.94 540.09,-135.86"/>
<polygon fill="midnightblue" stroke="midnightblue" points="541.67,-138.99 549.18,-131.52 538.65,-132.67 541.67,-138.99"/>
</g>
<!-- Node17&#45;&gt;Node16 -->
<g id="edge23" class="edge">
<title>Node17&#45;&gt;Node16</title>
<path fill="none" stroke="midnightblue" d="M458.9,-187.51C460.73,-195.9 461.2,-209 460.32,-219.82"/>
<polygon fill="midnightblue" stroke="midnightblue" points="456.81,-219.59 458.9,-229.98 463.75,-220.55 456.81,-219.59"/>
</g>
<!-- Node18&#45;&gt;Node10 -->
<g id="edge30" class="edge">
<title>Node18&#45;&gt;Node10</title>
<path fill="none" stroke="midnightblue" d="M656.39,-224.4C654.91,-216.38 653.03,-206.23 651.43,-197.57"/>
<polygon fill="midnightblue" stroke="midnightblue" points="654.86,-196.85 649.6,-187.66 647.98,-198.13 654.86,-196.85"/>
</g>
<!-- Node23&#45;&gt;Node2 -->
<g id="edge39" class="edge">
<title>Node23&#45;&gt;Node2</title>
<path fill="none" stroke="midnightblue" d="M43.58,-414.48C47.18,-405.9 52.85,-392.43 57.44,-381.48"/>
<polygon fill="midnightblue" stroke="midnightblue" points="60.78,-382.58 61.42,-372.01 54.32,-379.87 60.78,-382.58"/>
</g>
</g>
</svg>
