<?xml version="1.0" encoding="UTF-8" standalone="no"?>
<!DOCTYPE svg PUBLIC "-//W3C//DTD SVG 1.1//EN"
 "http://www.w3.org/Graphics/SVG/1.1/DTD/svg11.dtd">
<!-- Generated by graphviz version 2.44.1 (0)
 -->
<!-- Title: mnote_fuji_entry_get_value Pages: 1 -->
<svg width="528pt" height="188pt"
 viewBox="0.00 0.00 528.00 188.07" xmlns="http://www.w3.org/2000/svg" xmlns:xlink="http://www.w3.org/1999/xlink">
<g id="graph0" class="graph" transform="scale(1 1) rotate(0) translate(4 184.07)">
<title>mnote_fuji_entry_get_value</title>
<polygon fill="white" stroke="transparent" points="-4,4 -4,-184.07 524,-184.07 524,4 -4,4"/>
<!-- Node1 -->
<g id="node1" class="node">
<title>Node1</title>
<g id="a_node1"><a xlink:title=" ">
<polygon fill="#bfbfbf" stroke="black" points="0,-80 0,-110 121,-110 121,-80 0,-80"/>
<text text-anchor="start" x="8" y="-98" font-family="Helvetica,sans-Serif" font-size="10.00">mnote_fuji_entry_get</text>
<text text-anchor="middle" x="60.5" y="-87" font-family="Helvetica,sans-Serif" font-size="10.00">_value</text>
</a>
</g>
</g>
<!-- Node2 -->
<g id="node2" class="node">
<title>Node2</title>
<g id="a_node2"><a xlink:href="exif-utils_8c.html#a4ad94614630897766dd0a5c9bc2a59bf" target="_top" xlink:title="Retrieve an ExifLong value from memory.">
<polygon fill="white" stroke="black" points="302.5,-142.5 302.5,-161.5 385.5,-161.5 385.5,-142.5 302.5,-142.5"/>
<text text-anchor="middle" x="344" y="-149.5" font-family="Helvetica,sans-Serif" font-size="10.00">exif_get_long</text>
</a>
</g>
</g>
<!-- Node1&#45;&gt;Node2 -->
<g id="edge1" class="edge">
<title>Node1&#45;&gt;Node2</title>
<path fill="none" stroke="midnightblue" d="M74.49,-110.3C91.31,-128.8 122.59,-158.98 157,-171 207.07,-188.49 269,-175.91 307.25,-164.53"/>
<polygon fill="midnightblue" stroke="midnightblue" points="308.4,-167.83 316.91,-161.52 306.32,-161.15 308.4,-167.83"/>
</g>
<!-- Node3 -->
<g id="node3" class="node">
<title>Node3</title>
<g id="a_node3"><a xlink:href="exif-utils_8c.html#a56b96f076a13da6ed926e1ef29cb2dc3" target="_top" xlink:title="Retrieve an ExifSLong value from memory.">
<polygon fill="white" stroke="black" points="432,-104.5 432,-123.5 520,-123.5 520,-104.5 432,-104.5"/>
<text text-anchor="middle" x="476" y="-111.5" font-family="Helvetica,sans-Serif" font-size="10.00">exif_get_slong</text>
</a>
</g>
</g>
<!-- Node1&#45;&gt;Node3 -->
<g id="edge7" class="edge">
<title>Node1&#45;&gt;Node3</title>
<path fill="none" stroke="midnightblue" d="M121.18,-97.74C201.88,-101.45 344.54,-108.01 421.77,-111.55"/>
<polygon fill="midnightblue" stroke="midnightblue" points="421.61,-115.05 431.76,-112.01 421.93,-108.06 421.61,-115.05"/>
</g>
<!-- Node4 -->
<g id="node4" class="node">
<title>Node4</title>
<g id="a_node4"><a xlink:href="exif-utils_8c.html#a1feb547c289aa57a4d2119338b03706c" target="_top" xlink:title="Retrieve an ExifRational value from memory.">
<polygon fill="white" stroke="black" points="157,-142.5 157,-161.5 256,-161.5 256,-142.5 157,-142.5"/>
<text text-anchor="middle" x="206.5" y="-149.5" font-family="Helvetica,sans-Serif" font-size="10.00">exif_get_rational</text>
</a>
</g>
</g>
<!-- Node1&#45;&gt;Node4 -->
<g id="edge3" class="edge">
<title>Node1&#45;&gt;Node4</title>
<path fill="none" stroke="midnightblue" d="M99.71,-110.13C122.11,-118.99 150.15,-130.09 171.74,-138.64"/>
<polygon fill="midnightblue" stroke="midnightblue" points="170.57,-141.94 181.16,-142.36 173.15,-135.43 170.57,-141.94"/>
</g>
<!-- Node5 -->
<g id="node5" class="node">
<title>Node5</title>
<g id="a_node5"><a xlink:href="exif-utils_8c.html#a4b4acf537a8c6b9405e7b53be868e4d7" target="_top" xlink:title="Retrieve an ExifShort value from memory.">
<polygon fill="white" stroke="black" points="163.5,-66.5 163.5,-85.5 249.5,-85.5 249.5,-66.5 163.5,-66.5"/>
<text text-anchor="middle" x="206.5" y="-73.5" font-family="Helvetica,sans-Serif" font-size="10.00">exif_get_short</text>
</a>
</g>
</g>
<!-- Node1&#45;&gt;Node5 -->
<g id="edge5" class="edge">
<title>Node1&#45;&gt;Node5</title>
<path fill="none" stroke="midnightblue" d="M121.32,-87.11C131.87,-85.72 142.77,-84.28 153.1,-82.91"/>
<polygon fill="midnightblue" stroke="midnightblue" points="153.74,-86.36 163.19,-81.58 152.82,-79.42 153.74,-86.36"/>
</g>
<!-- Node6 -->
<g id="node6" class="node">
<title>Node6</title>
<g id="a_node6"><a xlink:href="exif-utils_8c.html#a6baf094a71392f9cea23ad633ec13c8b" target="_top" xlink:title="Retrieve an ExifSShort value from memory.">
<polygon fill="white" stroke="black" points="298,-57.5 298,-76.5 390,-76.5 390,-57.5 298,-57.5"/>
<text text-anchor="middle" x="344" y="-64.5" font-family="Helvetica,sans-Serif" font-size="10.00">exif_get_sshort</text>
</a>
</g>
</g>
<!-- Node1&#45;&gt;Node6 -->
<g id="edge10" class="edge">
<title>Node1&#45;&gt;Node6</title>
<path fill="none" stroke="midnightblue" d="M91.15,-79.81C109.57,-71.25 134.04,-61.4 157,-57 200.4,-48.68 250.47,-52.09 287.71,-57.08"/>
<polygon fill="midnightblue" stroke="midnightblue" points="287.47,-60.58 297.86,-58.52 288.46,-53.65 287.47,-60.58"/>
</g>
<!-- Node7 -->
<g id="node7" class="node">
<title>Node7</title>
<g id="a_node7"><a xlink:href="exif-utils_8c.html#adb97c3499488d5642a82df1cb16dc2cb" target="_top" xlink:title="Retrieve an ExifSRational value from memory.">
<polygon fill="white" stroke="black" points="292,-0.5 292,-19.5 396,-19.5 396,-0.5 292,-0.5"/>
<text text-anchor="middle" x="344" y="-7.5" font-family="Helvetica,sans-Serif" font-size="10.00">exif_get_srational</text>
</a>
</g>
</g>
<!-- Node1&#45;&gt;Node7 -->
<g id="edge8" class="edge">
<title>Node1&#45;&gt;Node7</title>
<path fill="none" stroke="midnightblue" d="M87.02,-79.79C105.8,-69.2 132.26,-55.5 157,-47 197.56,-33.06 244.99,-23.73 281.81,-17.92"/>
<polygon fill="midnightblue" stroke="midnightblue" points="282.55,-21.35 291.9,-16.38 281.49,-14.43 282.55,-21.35"/>
</g>
<!-- Node2&#45;&gt;Node3 -->
<g id="edge2" class="edge">
<title>Node2&#45;&gt;Node3</title>
<path fill="none" stroke="midnightblue" d="M377.8,-142.41C394.28,-137.6 414.44,-131.7 432.13,-126.53"/>
<polygon fill="midnightblue" stroke="midnightblue" points="433.59,-129.75 442.21,-123.59 431.63,-123.03 433.59,-129.75"/>
</g>
<!-- Node4&#45;&gt;Node2 -->
<g id="edge4" class="edge">
<title>Node4&#45;&gt;Node2</title>
<path fill="none" stroke="midnightblue" d="M256.04,-152C267.78,-152 280.37,-152 292.22,-152"/>
<polygon fill="midnightblue" stroke="midnightblue" points="292.4,-155.5 302.4,-152 292.4,-148.5 292.4,-155.5"/>
</g>
<!-- Node5&#45;&gt;Node6 -->
<g id="edge6" class="edge">
<title>Node5&#45;&gt;Node6</title>
<path fill="none" stroke="midnightblue" d="M249.63,-73.2C261.65,-72.4 274.92,-71.52 287.6,-70.68"/>
<polygon fill="midnightblue" stroke="midnightblue" points="287.86,-74.17 297.6,-70.02 287.39,-67.19 287.86,-74.17"/>
</g>
<!-- Node7&#45;&gt;Node3 -->
<g id="edge9" class="edge">
<title>Node7&#45;&gt;Node3</title>
<path fill="none" stroke="midnightblue" d="M358.58,-19.8C368.94,-27.36 383.52,-38.15 396,-48 416.83,-64.44 440.08,-84.02 455.93,-97.56"/>
<polygon fill="midnightblue" stroke="midnightblue" points="454.04,-100.55 463.91,-104.4 458.6,-95.24 454.04,-100.55"/>
</g>
</g>
</svg>
