<?xml version="1.0" encoding="UTF-8" standalone="no"?>
<!DOCTYPE svg PUBLIC "-//W3C//DTD SVG 1.1//EN"
 "http://www.w3.org/Graphics/SVG/1.1/DTD/svg11.dtd">
<!-- Generated by graphviz version 7.0.1 (0)
 -->
<!-- Title: libexif/fuji/mnote&#45;fuji&#45;entry.c Pages: 1 -->
<svg width="653pt" height="511pt"
 viewBox="0.00 0.00 653.00 511.00" xmlns="http://www.w3.org/2000/svg" xmlns:xlink="http://www.w3.org/1999/xlink">
<g id="graph0" class="graph" transform="scale(1 1) rotate(0) translate(4 507)">
<title>libexif/fuji/mnote&#45;fuji&#45;entry.c</title>
<!-- Node1 -->
<g id="Node000001" class="node">
<title>Node1</title>
<g id="a_Node000001"><a xlink:title=" ">
<polygon fill="#999999" stroke="#666666" points="280.5,-503 179.5,-503 179.5,-473 280.5,-473 280.5,-503"/>
<text text-anchor="start" x="187.5" y="-491" font-family="Helvetica,sans-Serif" font-size="10.00">libexif/fuji/mnote</text>
<text text-anchor="middle" x="230" y="-480" font-family="Helvetica,sans-Serif" font-size="10.00">&#45;fuji&#45;entry.c</text>
</a>
</g>
</g>
<!-- Node2 -->
<g id="Node000002" class="node">
<title>Node2</title>
<g id="a_Node000002"><a xlink:title=" ">
<polygon fill="#e0e0e0" stroke="#999999" points="89.5,-437 36.5,-437 36.5,-418 89.5,-418 89.5,-437"/>
<text text-anchor="middle" x="63" y="-425" font-family="Helvetica,sans-Serif" font-size="10.00">stdlib.h</text>
</a>
</g>
</g>
<!-- Node1&#45;&gt;Node2 -->
<g id="edge1_Node000001_Node000002" class="edge">
<title>Node1&#45;&gt;Node2</title>
<g id="a_edge1_Node000001_Node000002"><a xlink:title=" ">
<path fill="none" stroke="#63b8ff" d="M188.72,-472.54C161.17,-462.89 125.29,-450.32 98.92,-441.08"/>
<polygon fill="#63b8ff" stroke="#63b8ff" points="100.28,-437.85 89.68,-437.85 97.96,-444.46 100.28,-437.85"/>
</a>
</g>
</g>
<!-- Node3 -->
<g id="Node000003" class="node">
<title>Node3</title>
<g id="a_Node000003"><a xlink:title=" ">
<polygon fill="#e0e0e0" stroke="#999999" points="158,-437 108,-437 108,-418 158,-418 158,-437"/>
<text text-anchor="middle" x="133" y="-425" font-family="Helvetica,sans-Serif" font-size="10.00">stdio.h</text>
</a>
</g>
</g>
<!-- Node1&#45;&gt;Node3 -->
<g id="edge2_Node000001_Node000003" class="edge">
<title>Node1&#45;&gt;Node3</title>
<g id="a_edge2_Node000001_Node000003"><a xlink:title=" ">
<path fill="none" stroke="#63b8ff" d="M206.02,-472.54C191.16,-463.58 172.13,-452.1 157.23,-443.11"/>
<polygon fill="#63b8ff" stroke="#63b8ff" points="159.33,-440.3 148.96,-438.13 155.72,-446.29 159.33,-440.3"/>
</a>
</g>
</g>
<!-- Node4 -->
<g id="Node000004" class="node">
<title>Node4</title>
<g id="a_Node000004"><a xlink:title=" ">
<polygon fill="#e0e0e0" stroke="#999999" points="229.5,-437 176.5,-437 176.5,-418 229.5,-418 229.5,-437"/>
<text text-anchor="middle" x="203" y="-425" font-family="Helvetica,sans-Serif" font-size="10.00">string.h</text>
</a>
</g>
</g>
<!-- Node1&#45;&gt;Node4 -->
<g id="edge3_Node000001_Node000004" class="edge">
<title>Node1&#45;&gt;Node4</title>
<g id="a_edge3_Node000001_Node000004"><a xlink:title=" ">
<path fill="none" stroke="#63b8ff" d="M223.33,-472.54C219.84,-465 215.54,-455.67 211.79,-447.55"/>
<polygon fill="#63b8ff" stroke="#63b8ff" points="215.01,-446.16 207.64,-438.55 208.65,-449.1 215.01,-446.16"/>
</a>
</g>
</g>
<!-- Node5 -->
<g id="Node000005" class="node">
<title>Node5</title>
<g id="a_Node000005"><a xlink:title=" ">
<polygon fill="#e0e0e0" stroke="#999999" points="286,-376.5 230,-376.5 230,-357.5 286,-357.5 286,-376.5"/>
<text text-anchor="middle" x="258" y="-364.5" font-family="Helvetica,sans-Serif" font-size="10.00">config.h</text>
</a>
</g>
</g>
<!-- Node1&#45;&gt;Node5 -->
<g id="edge4_Node000001_Node000005" class="edge">
<title>Node1&#45;&gt;Node5</title>
<g id="a_edge4_Node000001_Node000005"><a xlink:title=" ">
<path fill="none" stroke="#63b8ff" d="M233.32,-472.88C238.31,-451.7 247.73,-411.63 253.38,-387.62"/>
<polygon fill="#63b8ff" stroke="#63b8ff" points="256.72,-388.72 255.6,-378.18 249.91,-387.12 256.72,-388.72"/>
</a>
</g>
</g>
<!-- Node6 -->
<g id="Node000006" class="node">
<title>Node6</title>
<g id="a_Node000006"><a xlink:href="i18n_8h.html" target="_top" xlink:title=" ">
<polygon fill="white" stroke="#666666" points="366,-437 286,-437 286,-418 366,-418 366,-437"/>
<text text-anchor="middle" x="326" y="-425" font-family="Helvetica,sans-Serif" font-size="10.00">libexif/i18n.h</text>
</a>
</g>
</g>
<!-- Node1&#45;&gt;Node6 -->
<g id="edge5_Node000001_Node000006" class="edge">
<title>Node1&#45;&gt;Node6</title>
<g id="a_edge5_Node000001_Node000006"><a xlink:title=" ">
<path fill="none" stroke="#63b8ff" d="M253.73,-472.54C268.44,-463.58 287.27,-452.1 302.02,-443.11"/>
<polygon fill="#63b8ff" stroke="#63b8ff" points="303.47,-446.33 310.19,-438.13 299.83,-440.35 303.47,-446.33"/>
</a>
</g>
</g>
<!-- Node7 -->
<g id="Node000007" class="node">
<title>Node7</title>
<g id="a_Node000007"><a xlink:href="mnote-fuji-entry_8h.html" target="_top" xlink:title=" ">
<polygon fill="white" stroke="#666666" points="537,-437 433,-437 433,-418 537,-418 537,-437"/>
<text text-anchor="middle" x="485" y="-425" font-family="Helvetica,sans-Serif" font-size="10.00">mnote&#45;fuji&#45;entry.h</text>
</a>
</g>
</g>
<!-- Node1&#45;&gt;Node7 -->
<g id="edge7_Node000001_Node000007" class="edge">
<title>Node1&#45;&gt;Node7</title>
<g id="a_edge7_Node000001_Node000007"><a xlink:title=" ">
<path fill="none" stroke="#63b8ff" d="M280.99,-475.3C325.65,-465.06 390.18,-450.25 434.64,-440.05"/>
<polygon fill="#63b8ff" stroke="#63b8ff" points="435.33,-443.48 444.3,-437.84 433.77,-436.66 435.33,-443.48"/>
</a>
</g>
</g>
<!-- Node6&#45;&gt;Node5 -->
<g id="edge6_Node000006_Node000005" class="edge">
<title>Node6&#45;&gt;Node5</title>
<g id="a_edge6_Node000006_Node000005"><a xlink:title=" ">
<path fill="none" stroke="#63b8ff" d="M315.67,-417.62C305.39,-408.77 289.37,-394.98 276.82,-384.19"/>
<polygon fill="#63b8ff" stroke="#63b8ff" points="279.44,-381.82 269.57,-377.96 274.87,-387.13 279.44,-381.82"/>
</a>
</g>
</g>
<!-- Node8 -->
<g id="Node000008" class="node">
<title>Node8</title>
<g id="a_Node000008"><a xlink:href="exif-format_8h.html" target="_top" xlink:title="Handling native EXIF data types.">
<polygon fill="white" stroke="#666666" points="593.5,-19 480.5,-19 480.5,0 593.5,0 593.5,-19"/>
<text text-anchor="middle" x="537" y="-7" font-family="Helvetica,sans-Serif" font-size="10.00">libexif/exif&#45;format.h</text>
</a>
</g>
</g>
<!-- Node7&#45;&gt;Node8 -->
<g id="edge8_Node000007_Node000008" class="edge">
<title>Node7&#45;&gt;Node8</title>
<g id="a_edge8_Node000007_Node000008"><a xlink:title=" ">
<path fill="none" stroke="#63b8ff" d="M516.61,-417.62C563.24,-402.35 645,-366.41 645,-302 645,-302 645,-302 645,-118.5 645,-74.43 599.47,-42.06 567.54,-24.77"/>
<polygon fill="#63b8ff" stroke="#63b8ff" points="569.15,-21.67 558.66,-20.19 565.94,-27.89 569.15,-21.67"/>
</a>
</g>
</g>
<!-- Node9 -->
<g id="Node000009" class="node">
<title>Node9</title>
<g id="a_Node000009"><a xlink:href="mnote-fuji-tag_8h.html" target="_top" xlink:title=" ">
<polygon fill="white" stroke="#666666" points="405.5,-382 304.5,-382 304.5,-352 405.5,-352 405.5,-382"/>
<text text-anchor="start" x="312.5" y="-370" font-family="Helvetica,sans-Serif" font-size="10.00">libexif/fuji/mnote</text>
<text text-anchor="middle" x="355" y="-359" font-family="Helvetica,sans-Serif" font-size="10.00">&#45;fuji&#45;tag.h</text>
</a>
</g>
</g>
<!-- Node7&#45;&gt;Node9 -->
<g id="edge9_Node000007_Node000009" class="edge">
<title>Node7&#45;&gt;Node9</title>
<g id="a_edge9_Node000007_Node000009"><a xlink:title=" ">
<path fill="none" stroke="#63b8ff" d="M465.26,-417.62C447.35,-409.56 420.35,-397.41 397.55,-387.15"/>
<polygon fill="#63b8ff" stroke="#63b8ff" points="399.02,-383.97 388.47,-383.06 396.15,-390.36 399.02,-383.97"/>
</a>
</g>
</g>
<!-- Node23 -->
<g id="Node000023" class="node">
<title>Node23</title>
<g id="a_Node000023"><a xlink:href="exif-mnote-data-fuji_8h.html" target="_top" xlink:title=" ">
<polygon fill="white" stroke="#666666" points="546,-382 424,-382 424,-352 546,-352 546,-382"/>
<text text-anchor="start" x="432" y="-370" font-family="Helvetica,sans-Serif" font-size="10.00">libexif/fuji/exif&#45;mnote</text>
<text text-anchor="middle" x="485" y="-359" font-family="Helvetica,sans-Serif" font-size="10.00">&#45;data&#45;fuji.h</text>
</a>
</g>
</g>
<!-- Node7&#45;&gt;Node23 -->
<g id="edge36_Node000007_Node000023" class="edge">
<title>Node7&#45;&gt;Node23</title>
<g id="a_edge36_Node000007_Node000023"><a xlink:title=" ">
<path fill="none" stroke="#63b8ff" d="M480.04,-417.87C478.65,-411.4 478.07,-402.2 478.3,-393.45"/>
<polygon fill="#63b8ff" stroke="#63b8ff" points="481.78,-393.85 479.02,-383.62 474.8,-393.34 481.78,-393.85"/>
</a>
</g>
</g>
<!-- Node10 -->
<g id="Node000010" class="node">
<title>Node10</title>
<g id="a_Node000010"><a xlink:href="exif-data_8h.html" target="_top" xlink:title="Defines the ExifData type and the associated functions.">
<polygon fill="white" stroke="#666666" points="373,-310.5 271,-310.5 271,-291.5 373,-291.5 373,-310.5"/>
<text text-anchor="middle" x="322" y="-298.5" font-family="Helvetica,sans-Serif" font-size="10.00">libexif/exif&#45;data.h</text>
</a>
</g>
</g>
<!-- Node9&#45;&gt;Node10 -->
<g id="edge10_Node000009_Node000010" class="edge">
<title>Node9&#45;&gt;Node10</title>
<g id="a_edge10_Node000009_Node000010"><a xlink:title=" ">
<path fill="none" stroke="#63b8ff" d="M347.68,-351.8C342.99,-342.7 336.84,-330.79 331.74,-320.9"/>
<polygon fill="#63b8ff" stroke="#63b8ff" points="334.95,-319.47 327.25,-312.19 328.73,-322.68 334.95,-319.47"/>
</a>
</g>
</g>
<!-- Node11 -->
<g id="Node000011" class="node">
<title>Node11</title>
<g id="a_Node000011"><a xlink:href="exif-byte-order_8h.html" target="_top" xlink:title="Defines the ExifByteOrder enum and the associated functions.">
<polygon fill="white" stroke="#666666" points="351.5,-19 220.5,-19 220.5,0 351.5,0 351.5,-19"/>
<text text-anchor="middle" x="286" y="-7" font-family="Helvetica,sans-Serif" font-size="10.00">libexif/exif&#45;byte&#45;order.h</text>
</a>
</g>
</g>
<!-- Node10&#45;&gt;Node11 -->
<g id="edge11_Node000010_Node000011" class="edge">
<title>Node10&#45;&gt;Node11</title>
<g id="a_edge11_Node000010_Node000011"><a xlink:title=" ">
<path fill="none" stroke="#63b8ff" d="M270.81,-296.3C221.77,-291.12 146.73,-278.84 88,-250 42,-227.41 0,-226.74 0,-175.5 0,-175.5 0,-175.5 0,-118.5 0,-71.56 136.52,-37.93 220.92,-21.62"/>
<polygon fill="#63b8ff" stroke="#63b8ff" points="221.54,-25.07 230.72,-19.77 220.24,-18.19 221.54,-25.07"/>
</a>
</g>
</g>
<!-- Node12 -->
<g id="Node000012" class="node">
<title>Node12</title>
<g id="a_Node000012"><a xlink:href="exif-data-type_8h.html" target="_top" xlink:title=" ">
<polygon fill="white" stroke="#666666" points="268,-129 140,-129 140,-110 268,-110 268,-129"/>
<text text-anchor="middle" x="204" y="-117" font-family="Helvetica,sans-Serif" font-size="10.00">libexif/exif&#45;data&#45;type.h</text>
</a>
</g>
</g>
<!-- Node10&#45;&gt;Node12 -->
<g id="edge12_Node000010_Node000012" class="edge">
<title>Node10&#45;&gt;Node12</title>
<g id="a_edge12_Node000010_Node000012"><a xlink:title=" ">
<path fill="none" stroke="#63b8ff" d="M301.09,-291.07C283.99,-282.77 260.36,-268.84 246,-250 220.64,-216.73 210.27,-167.57 206.29,-140.39"/>
<polygon fill="#63b8ff" stroke="#63b8ff" points="209.8,-140.25 205.04,-130.78 202.86,-141.15 209.8,-140.25"/>
</a>
</g>
</g>
<!-- Node13 -->
<g id="Node000013" class="node">
<title>Node13</title>
<g id="a_Node000013"><a xlink:href="exif-ifd_8h.html" target="_top" xlink:title=" ">
<polygon fill="white" stroke="#666666" points="121.5,-129 28.5,-129 28.5,-110 121.5,-110 121.5,-129"/>
<text text-anchor="middle" x="75" y="-117" font-family="Helvetica,sans-Serif" font-size="10.00">libexif/exif&#45;ifd.h</text>
</a>
</g>
</g>
<!-- Node10&#45;&gt;Node13 -->
<g id="edge13_Node000010_Node000013" class="edge">
<title>Node10&#45;&gt;Node13</title>
<g id="a_edge13_Node000010_Node000013"><a xlink:title=" ">
<path fill="none" stroke="#63b8ff" d="M273.17,-291.06C237.47,-283.32 188.57,-270.14 149,-250 106.37,-228.31 85.03,-226.96 64,-184 57.22,-170.15 60.93,-152.81 65.8,-139.75"/>
<polygon fill="#63b8ff" stroke="#63b8ff" points="69.01,-141.15 69.73,-130.58 62.57,-138.39 69.01,-141.15"/>
</a>
</g>
</g>
<!-- Node14 -->
<g id="Node000014" class="node">
<title>Node14</title>
<g id="a_Node000014"><a xlink:href="exif-log_8h.html" target="_top" xlink:title="Log message infrastructure.">
<polygon fill="white" stroke="#666666" points="536.5,-184 441.5,-184 441.5,-165 536.5,-165 536.5,-184"/>
<text text-anchor="middle" x="489" y="-172" font-family="Helvetica,sans-Serif" font-size="10.00">libexif/exif&#45;log.h</text>
</a>
</g>
</g>
<!-- Node10&#45;&gt;Node14 -->
<g id="edge14_Node000010_Node000014" class="edge">
<title>Node10&#45;&gt;Node14</title>
<g id="a_edge14_Node000010_Node000014"><a xlink:title=" ">
<path fill="none" stroke="#63b8ff" d="M333.9,-291.2C347.33,-281.25 369.8,-264.55 389,-250 406.43,-236.79 410.5,-233.11 428,-220 441.11,-210.18 455.96,-199.34 467.73,-190.81"/>
<polygon fill="#63b8ff" stroke="#63b8ff" points="469.5,-193.85 475.55,-185.16 465.4,-188.18 469.5,-193.85"/>
</a>
</g>
</g>
<!-- Node15 -->
<g id="Node000015" class="node">
<title>Node15</title>
<g id="a_Node000015"><a xlink:href="exif-mem_8h.html" target="_top" xlink:title="Define the ExifMem data type and the associated functions.">
<polygon fill="white" stroke="#666666" points="424,-129 318,-129 318,-110 424,-110 424,-129"/>
<text text-anchor="middle" x="371" y="-117" font-family="Helvetica,sans-Serif" font-size="10.00">libexif/exif&#45;mem.h</text>
</a>
</g>
</g>
<!-- Node10&#45;&gt;Node15 -->
<g id="edge35_Node000010_Node000015" class="edge">
<title>Node10&#45;&gt;Node15</title>
<g id="a_edge35_Node000010_Node000015"><a xlink:title=" ">
<path fill="none" stroke="#63b8ff" d="M301.13,-291.14C284.99,-283.04 263.79,-269.35 254,-250 247.98,-238.1 249.32,-232.48 254,-220 269.09,-179.75 311.57,-150.74 340.96,-134.77"/>
<polygon fill="#63b8ff" stroke="#63b8ff" points="342.52,-137.9 349.78,-130.18 339.29,-131.69 342.52,-137.9"/>
</a>
</g>
</g>
<!-- Node19 -->
<g id="Node000019" class="node">
<title>Node19</title>
<g id="a_Node000019"><a xlink:href="exif-tag_8h.html" target="_top" xlink:title="Handling EXIF tags.">
<polygon fill="white" stroke="#666666" points="169,-184 73,-184 73,-165 169,-165 169,-184"/>
<text text-anchor="middle" x="121" y="-172" font-family="Helvetica,sans-Serif" font-size="10.00">libexif/exif&#45;tag.h</text>
</a>
</g>
</g>
<!-- Node10&#45;&gt;Node19 -->
<g id="edge21_Node000010_Node000019" class="edge">
<title>Node10&#45;&gt;Node19</title>
<g id="a_edge21_Node000010_Node000019"><a xlink:title=" ">
<path fill="none" stroke="#63b8ff" d="M279.73,-291.03C250.67,-283.43 212.2,-270.45 183,-250 161.31,-234.81 142.86,-210.15 131.86,-193.4"/>
<polygon fill="#63b8ff" stroke="#63b8ff" points="135.13,-192.01 126.82,-185.42 129.21,-195.75 135.13,-192.01"/>
</a>
</g>
</g>
<!-- Node20 -->
<g id="Node000020" class="node">
<title>Node20</title>
<g id="a_Node000020"><a xlink:href="exif-content_8h.html" target="_top" xlink:title="Handling EXIF IFDs.">
<polygon fill="white" stroke="#666666" points="380.5,-244.5 263.5,-244.5 263.5,-225.5 380.5,-225.5 380.5,-244.5"/>
<text text-anchor="middle" x="322" y="-232.5" font-family="Helvetica,sans-Serif" font-size="10.00">libexif/exif&#45;content.h</text>
</a>
</g>
</g>
<!-- Node10&#45;&gt;Node20 -->
<g id="edge24_Node000010_Node000020" class="edge">
<title>Node10&#45;&gt;Node20</title>
<g id="a_edge24_Node000010_Node000020"><a xlink:title=" ">
<path fill="none" stroke="#63b8ff" d="M317.16,-291.1C315.29,-282.12 314.79,-267.95 315.67,-256.22"/>
<polygon fill="#63b8ff" stroke="#63b8ff" points="319.14,-256.69 316.97,-246.32 312.2,-255.78 319.14,-256.69"/>
</a>
</g>
</g>
<!-- Node22 -->
<g id="Node000022" class="node">
<title>Node22</title>
<g id="a_Node000022"><a xlink:href="exif-mnote-data_8h.html" target="_top" xlink:title="Handling EXIF MakerNote tags.">
<polygon fill="white" stroke="#666666" points="540.5,-250 437.5,-250 437.5,-220 540.5,-220 540.5,-250"/>
<text text-anchor="start" x="445.5" y="-238" font-family="Helvetica,sans-Serif" font-size="10.00">libexif/exif&#45;mnote</text>
<text text-anchor="middle" x="489" y="-227" font-family="Helvetica,sans-Serif" font-size="10.00">&#45;data.h</text>
</a>
</g>
</g>
<!-- Node10&#45;&gt;Node22 -->
<g id="edge33_Node000010_Node000022" class="edge">
<title>Node10&#45;&gt;Node22</title>
<g id="a_edge33_Node000010_Node000022"><a xlink:title=" ">
<path fill="none" stroke="#63b8ff" d="M345.22,-291.1C369.75,-281.7 409.15,-266.6 440.5,-254.59"/>
<polygon fill="#63b8ff" stroke="#63b8ff" points="441.72,-257.87 449.81,-251.02 439.22,-251.33 441.72,-257.87"/>
</a>
</g>
</g>
<!-- Node14&#45;&gt;Node15 -->
<g id="edge15_Node000014_Node000015" class="edge">
<title>Node14&#45;&gt;Node15</title>
<g id="a_edge15_Node000014_Node000015"><a xlink:title=" ">
<path fill="none" stroke="#63b8ff" d="M468.98,-164.51C450.39,-156.16 422.46,-143.61 401.17,-134.05"/>
<polygon fill="#63b8ff" stroke="#63b8ff" points="402.66,-130.88 392.1,-129.98 399.79,-137.27 402.66,-130.88"/>
</a>
</g>
</g>
<!-- Node18 -->
<g id="Node000018" class="node">
<title>Node18</title>
<g id="a_Node000018"><a xlink:title=" ">
<polygon fill="#e0e0e0" stroke="#999999" points="579,-129 523,-129 523,-110 579,-110 579,-129"/>
<text text-anchor="middle" x="551" y="-117" font-family="Helvetica,sans-Serif" font-size="10.00">stdarg.h</text>
</a>
</g>
</g>
<!-- Node14&#45;&gt;Node18 -->
<g id="edge20_Node000014_Node000018" class="edge">
<title>Node14&#45;&gt;Node18</title>
<g id="a_edge20_Node000014_Node000018"><a xlink:title=" ">
<path fill="none" stroke="#63b8ff" d="M499.52,-164.51C508.39,-156.93 521.31,-145.88 531.99,-136.75"/>
<polygon fill="#63b8ff" stroke="#63b8ff" points="534.16,-139.5 539.49,-130.34 529.61,-134.18 534.16,-139.5"/>
</a>
</g>
</g>
<!-- Node16 -->
<g id="Node000016" class="node">
<title>Node16</title>
<g id="a_Node000016"><a xlink:href="exif-utils_8h.html" target="_top" xlink:title="EXIF data manipulation functions and types.">
<polygon fill="white" stroke="#666666" points="466.5,-74 365.5,-74 365.5,-55 466.5,-55 466.5,-74"/>
<text text-anchor="middle" x="416" y="-62" font-family="Helvetica,sans-Serif" font-size="10.00">libexif/exif&#45;utils.h</text>
</a>
</g>
</g>
<!-- Node15&#45;&gt;Node16 -->
<g id="edge16_Node000015_Node000016" class="edge">
<title>Node15&#45;&gt;Node16</title>
<g id="a_edge16_Node000015_Node000016"><a xlink:title=" ">
<path fill="none" stroke="#63b8ff" d="M378.43,-109.75C384.58,-102.5 393.51,-91.98 401.13,-83.02"/>
<polygon fill="#63b8ff" stroke="#63b8ff" points="403.62,-85.48 407.43,-75.6 398.29,-80.95 403.62,-85.48"/>
</a>
</g>
</g>
<!-- Node16&#45;&gt;Node8 -->
<g id="edge18_Node000016_Node000008" class="edge">
<title>Node16&#45;&gt;Node8</title>
<g id="a_edge18_Node000016_Node000008"><a xlink:title=" ">
<path fill="none" stroke="#63b8ff" d="M436.53,-54.51C455.68,-46.12 484.5,-33.5 506.37,-23.92"/>
<polygon fill="#63b8ff" stroke="#63b8ff" points="507.64,-27.18 515.39,-19.97 504.83,-20.77 507.64,-27.18"/>
</a>
</g>
</g>
<!-- Node16&#45;&gt;Node11 -->
<g id="edge17_Node000016_Node000011" class="edge">
<title>Node16&#45;&gt;Node11</title>
<g id="a_edge17_Node000016_Node000011"><a xlink:title=" ">
<path fill="none" stroke="#63b8ff" d="M393.95,-54.51C373.19,-46.04 341.84,-33.27 318.27,-23.66"/>
<polygon fill="#63b8ff" stroke="#63b8ff" points="319.71,-20.46 309.13,-19.93 317.07,-26.95 319.71,-20.46"/>
</a>
</g>
</g>
<!-- Node17 -->
<g id="Node000017" class="node">
<title>Node17</title>
<g id="a_Node000017"><a xlink:title=" ">
<polygon fill="#e0e0e0" stroke="#999999" points="462,-19 370,-19 370,0 462,0 462,-19"/>
<text text-anchor="middle" x="416" y="-7" font-family="Helvetica,sans-Serif" font-size="10.00">libexif/_stdint.h</text>
</a>
</g>
</g>
<!-- Node16&#45;&gt;Node17 -->
<g id="edge19_Node000016_Node000017" class="edge">
<title>Node16&#45;&gt;Node17</title>
<g id="a_edge19_Node000016_Node000017"><a xlink:title=" ">
<path fill="none" stroke="#63b8ff" d="M416,-54.75C416,-48.27 416,-39.16 416,-30.9"/>
<polygon fill="#63b8ff" stroke="#63b8ff" points="419.5,-30.96 416,-20.96 412.5,-30.96 419.5,-30.96"/>
</a>
</g>
</g>
<!-- Node19&#45;&gt;Node12 -->
<g id="edge23_Node000019_Node000012" class="edge">
<title>Node19&#45;&gt;Node12</title>
<g id="a_edge23_Node000019_Node000012"><a xlink:title=" ">
<path fill="none" stroke="#63b8ff" d="M135.08,-164.51C147.56,-156.54 166.02,-144.75 180.69,-135.38"/>
<polygon fill="#63b8ff" stroke="#63b8ff" points="182.31,-138.5 188.85,-130.17 178.54,-132.6 182.31,-138.5"/>
</a>
</g>
</g>
<!-- Node19&#45;&gt;Node13 -->
<g id="edge22_Node000019_Node000013" class="edge">
<title>Node19&#45;&gt;Node13</title>
<g id="a_edge22_Node000019_Node000013"><a xlink:title=" ">
<path fill="none" stroke="#63b8ff" d="M113.4,-164.75C107.12,-157.5 97.99,-146.98 90.2,-138.02"/>
<polygon fill="#63b8ff" stroke="#63b8ff" points="92.95,-135.84 83.75,-130.59 87.66,-140.43 92.95,-135.84"/>
</a>
</g>
</g>
<!-- Node20&#45;&gt;Node10 -->
<g id="edge30_Node000020_Node000010" class="edge">
<title>Node20&#45;&gt;Node10</title>
<g id="a_edge30_Node000020_Node000010"><a xlink:title=" ">
<path fill="none" stroke="#63b8ff" d="M326.83,-244.82C328.73,-253.87 329.22,-268.24 328.31,-280.05"/>
<polygon fill="#63b8ff" stroke="#63b8ff" points="324.88,-279.23 327.04,-289.6 331.82,-280.15 324.88,-279.23"/>
</a>
</g>
</g>
<!-- Node20&#45;&gt;Node14 -->
<g id="edge31_Node000020_Node000014" class="edge">
<title>Node20&#45;&gt;Node14</title>
<g id="a_edge31_Node000020_Node000014"><a xlink:title=" ">
<path fill="none" stroke="#63b8ff" d="M347.36,-225.12C375.44,-215.28 420.93,-199.34 452.76,-188.19"/>
<polygon fill="#63b8ff" stroke="#63b8ff" points="453.69,-191.58 461.97,-184.97 451.37,-184.97 453.69,-191.58"/>
</a>
</g>
</g>
<!-- Node20&#45;&gt;Node15 -->
<g id="edge32_Node000020_Node000015" class="edge">
<title>Node20&#45;&gt;Node15</title>
<g id="a_edge32_Node000020_Node000015"><a xlink:title=" ">
<path fill="none" stroke="#63b8ff" d="M317.28,-225.43C310.5,-211.86 299.86,-184.94 310,-165 316.48,-152.26 328.51,-142.29 340.18,-135.06"/>
<polygon fill="#63b8ff" stroke="#63b8ff" points="341.9,-138.11 348.88,-130.14 338.45,-132.01 341.9,-138.11"/>
</a>
</g>
</g>
<!-- Node20&#45;&gt;Node19 -->
<g id="edge25_Node000020_Node000019" class="edge">
<title>Node20&#45;&gt;Node19</title>
<g id="a_edge25_Node000020_Node000019"><a xlink:title=" ">
<path fill="none" stroke="#63b8ff" d="M291.47,-225.12C257.09,-215.11 201.01,-198.79 162.63,-187.62"/>
<polygon fill="#63b8ff" stroke="#63b8ff" points="163.85,-184.33 153.27,-184.89 161.89,-191.05 163.85,-184.33"/>
</a>
</g>
</g>
<!-- Node21 -->
<g id="Node000021" class="node">
<title>Node21</title>
<g id="a_Node000021"><a xlink:href="exif-entry_8h.html" target="_top" xlink:title="Handling EXIF entries.">
<polygon fill="white" stroke="#666666" points="423,-184 319,-184 319,-165 423,-165 423,-184"/>
<text text-anchor="middle" x="371" y="-172" font-family="Helvetica,sans-Serif" font-size="10.00">libexif/exif&#45;entry.h</text>
</a>
</g>
</g>
<!-- Node20&#45;&gt;Node21 -->
<g id="edge26_Node000020_Node000021" class="edge">
<title>Node20&#45;&gt;Node21</title>
<g id="a_edge26_Node000020_Node000021"><a xlink:title=" ">
<path fill="none" stroke="#63b8ff" d="M324.27,-225.37C329.7,-216.64 340.78,-202.93 350.95,-192.09"/>
<polygon fill="#63b8ff" stroke="#63b8ff" points="353.18,-194.82 357.71,-185.24 348.2,-189.9 353.18,-194.82"/>
</a>
</g>
</g>
<!-- Node21&#45;&gt;Node8 -->
<g id="edge28_Node000021_Node000008" class="edge">
<title>Node21&#45;&gt;Node8</title>
<g id="a_edge28_Node000021_Node000008"><a xlink:title=" ">
<path fill="none" stroke="#63b8ff" d="M385.23,-164.63C398.27,-156.2 417.79,-142.79 433,-129 468.66,-96.66 504.41,-52.83 523.29,-28.56"/>
<polygon fill="#63b8ff" stroke="#63b8ff" points="526.06,-30.7 529.38,-20.64 520.51,-26.43 526.06,-30.7"/>
</a>
</g>
</g>
<!-- Node21&#45;&gt;Node15 -->
<g id="edge29_Node000021_Node000015" class="edge">
<title>Node21&#45;&gt;Node15</title>
<g id="a_edge29_Node000021_Node000015"><a xlink:title=" ">
<path fill="none" stroke="#63b8ff" d="M371,-164.75C371,-158.27 371,-149.16 371,-140.9"/>
<polygon fill="#63b8ff" stroke="#63b8ff" points="374.5,-140.96 371,-130.96 367.5,-140.96 374.5,-140.96"/>
</a>
</g>
</g>
<!-- Node21&#45;&gt;Node20 -->
<g id="edge27_Node000021_Node000020" class="edge">
<title>Node21&#45;&gt;Node20</title>
<g id="a_edge27_Node000021_Node000020"><a xlink:title=" ">
<path fill="none" stroke="#63b8ff" d="M368.51,-184.47C363.09,-193.09 352.39,-206.34 342.47,-216.96"/>
<polygon fill="#63b8ff" stroke="#63b8ff" points="340.03,-214.45 335.51,-224.04 345.02,-219.36 340.03,-214.45"/>
</a>
</g>
</g>
<!-- Node22&#45;&gt;Node14 -->
<g id="edge34_Node000022_Node000014" class="edge">
<title>Node22&#45;&gt;Node14</title>
<g id="a_edge34_Node000022_Node000014"><a xlink:title=" ">
<path fill="none" stroke="#63b8ff" d="M489,-219.54C489,-212.34 489,-203.53 489,-195.68"/>
<polygon fill="#63b8ff" stroke="#63b8ff" points="492.5,-195.69 489,-185.69 485.5,-195.69 492.5,-195.69"/>
</a>
</g>
</g>
<!-- Node23&#45;&gt;Node7 -->
<g id="edge43_Node000023_Node000007" class="edge">
<title>Node23&#45;&gt;Node7</title>
<g id="a_edge43_Node000023_Node000007"><a xlink:title=" ">
<path fill="none" stroke="#63b8ff" d="M490.87,-382.11C491.81,-389.43 491.99,-398.49 491.44,-406.51"/>
<polygon fill="#63b8ff" stroke="#63b8ff" points="487.98,-406 490.15,-416.37 494.92,-406.91 487.98,-406"/>
</a>
</g>
</g>
<!-- Node23&#45;&gt;Node10 -->
<g id="edge42_Node000023_Node000010" class="edge">
<title>Node23&#45;&gt;Node10</title>
<g id="a_edge42_Node000023_Node000010"><a xlink:title=" ">
<path fill="none" stroke="#63b8ff" d="M448.42,-351.64C420.54,-340.69 382.45,-325.73 355.39,-315.11"/>
<polygon fill="#63b8ff" stroke="#63b8ff" points="356.88,-311.94 346.29,-311.54 354.32,-318.45 356.88,-311.94"/>
</a>
</g>
</g>
<!-- Node23&#45;&gt;Node22 -->
<g id="edge37_Node000023_Node000022" class="edge">
<title>Node23&#45;&gt;Node22</title>
<g id="a_edge37_Node000023_Node000022"><a xlink:title=" ">
<path fill="none" stroke="#63b8ff" d="M485.44,-351.59C486.11,-329.92 487.38,-288.62 488.21,-261.7"/>
<polygon fill="#63b8ff" stroke="#63b8ff" points="491.7,-262.09 488.51,-251.99 484.7,-261.87 491.7,-262.09"/>
</a>
</g>
</g>
<!-- Node24 -->
<g id="Node000024" class="node">
<title>Node24</title>
<g id="a_Node000024"><a xlink:href="exif-mnote-data-priv_8h.html" target="_top" xlink:title=" ">
<polygon fill="white" stroke="#666666" points="616.5,-316 513.5,-316 513.5,-286 616.5,-286 616.5,-316"/>
<text text-anchor="start" x="521.5" y="-304" font-family="Helvetica,sans-Serif" font-size="10.00">libexif/exif&#45;mnote</text>
<text text-anchor="middle" x="565" y="-293" font-family="Helvetica,sans-Serif" font-size="10.00">&#45;data&#45;priv.h</text>
</a>
</g>
</g>
<!-- Node23&#45;&gt;Node24 -->
<g id="edge38_Node000023_Node000024" class="edge">
<title>Node23&#45;&gt;Node24</title>
<g id="a_edge38_Node000023_Node000024"><a xlink:title=" ">
<path fill="none" stroke="#63b8ff" d="M502.75,-351.8C513.14,-343.49 526.47,-332.83 538.12,-323.5"/>
<polygon fill="#63b8ff" stroke="#63b8ff" points="540.21,-326.31 545.84,-317.33 535.84,-320.84 540.21,-326.31"/>
</a>
</g>
</g>
<!-- Node24&#45;&gt;Node11 -->
<g id="edge40_Node000024_Node000011" class="edge">
<title>Node24&#45;&gt;Node11</title>
<g id="a_edge40_Node000024_Node000011"><a xlink:title=" ">
<path fill="none" stroke="#63b8ff" d="M573.19,-285.53C591.71,-250.68 631.89,-161.22 588,-110 520.11,-30.76 450.17,-118.95 356,-74 333.41,-63.22 312.88,-42.73 299.98,-27.94"/>
<polygon fill="#63b8ff" stroke="#63b8ff" points="302.74,-25.78 293.63,-20.36 297.37,-30.27 302.74,-25.78"/>
</a>
</g>
</g>
<!-- Node24&#45;&gt;Node14 -->
<g id="edge41_Node000024_Node000014" class="edge">
<title>Node24&#45;&gt;Node14</title>
<g id="a_edge41_Node000024_Node000014"><a xlink:title=" ">
<path fill="none" stroke="#63b8ff" d="M565.15,-285.57C564.68,-268.61 561.82,-240.22 549,-220 541.21,-207.72 528.73,-197.65 517.17,-190.23"/>
<polygon fill="#63b8ff" stroke="#63b8ff" points="519.06,-187.28 508.68,-185.16 515.47,-193.29 519.06,-187.28"/>
</a>
</g>
</g>
<!-- Node24&#45;&gt;Node22 -->
<g id="edge39_Node000024_Node000022" class="edge">
<title>Node24&#45;&gt;Node22</title>
<g id="a_edge39_Node000024_Node000022"><a xlink:title=" ">
<path fill="none" stroke="#63b8ff" d="M548.13,-285.8C538.36,-277.57 525.86,-267.04 514.87,-257.78"/>
<polygon fill="#63b8ff" stroke="#63b8ff" points="517.14,-255.12 507.24,-251.36 512.63,-260.48 517.14,-255.12"/>
</a>
</g>
</g>
</g>
</svg>
