<?xml version="1.0" encoding="UTF-8" standalone="no"?>
<!DOCTYPE svg PUBLIC "-//W3C//DTD SVG 1.1//EN"
 "http://www.w3.org/Graphics/SVG/1.1/DTD/svg11.dtd">
<!-- Generated by graphviz version 7.0.1 (0)
 -->
<!-- Title: libexif/fuji/mnote&#45;fuji&#45;entry.h Pages: 1 -->
<svg width="701pt" height="456pt"
 viewBox="0.00 0.00 701.00 456.00" xmlns="http://www.w3.org/2000/svg" xmlns:xlink="http://www.w3.org/1999/xlink">
<g id="graph0" class="graph" transform="scale(1 1) rotate(0) translate(4 452)">
<title>libexif/fuji/mnote&#45;fuji&#45;entry.h</title>
<!-- Node1 -->
<g id="Node000001" class="node">
<title>Node1</title>
<g id="a_Node000001"><a xlink:title=" ">
<polygon fill="#999999" stroke="#666666" points="455.5,-448 354.5,-448 354.5,-418 455.5,-418 455.5,-448"/>
<text text-anchor="start" x="362.5" y="-436" font-family="Helvetica,sans-Serif" font-size="10.00">libexif/fuji/mnote</text>
<text text-anchor="middle" x="405" y="-425" font-family="Helvetica,sans-Serif" font-size="10.00">&#45;fuji&#45;entry.h</text>
</a>
</g>
</g>
<!-- Node2 -->
<g id="Node000002" class="node">
<title>Node2</title>
<g id="a_Node000002"><a xlink:href="exif-format_8h.html" target="_top" xlink:title="Handling native EXIF data types.">
<polygon fill="white" stroke="#666666" points="312.5,-19 199.5,-19 199.5,0 312.5,0 312.5,-19"/>
<text text-anchor="middle" x="256" y="-7" font-family="Helvetica,sans-Serif" font-size="10.00">libexif/exif&#45;format.h</text>
</a>
</g>
</g>
<!-- Node1&#45;&gt;Node2 -->
<g id="edge1_Node000001_Node000002" class="edge">
<title>Node1&#45;&gt;Node2</title>
<g id="a_edge1_Node000001_Node000002"><a xlink:title=" ">
<path fill="none" stroke="#63b8ff" d="M354.12,-426.51C245.34,-413.37 0,-375.57 0,-302 0,-302 0,-302 0,-118.5 0,-36.83 111.97,-15.95 187.81,-11.17"/>
<polygon fill="#63b8ff" stroke="#63b8ff" points="187.88,-14.67 197.67,-10.64 187.5,-7.68 187.88,-14.67"/>
</a>
</g>
</g>
<!-- Node3 -->
<g id="Node000003" class="node">
<title>Node3</title>
<g id="a_Node000003"><a xlink:href="mnote-fuji-tag_8h.html" target="_top" xlink:title=" ">
<polygon fill="white" stroke="#666666" points="390.5,-382 289.5,-382 289.5,-352 390.5,-352 390.5,-382"/>
<text text-anchor="start" x="297.5" y="-370" font-family="Helvetica,sans-Serif" font-size="10.00">libexif/fuji/mnote</text>
<text text-anchor="middle" x="340" y="-359" font-family="Helvetica,sans-Serif" font-size="10.00">&#45;fuji&#45;tag.h</text>
</a>
</g>
</g>
<!-- Node1&#45;&gt;Node3 -->
<g id="edge2_Node000001_Node000003" class="edge">
<title>Node1&#45;&gt;Node3</title>
<g id="a_edge2_Node000001_Node000003"><a xlink:title=" ">
<path fill="none" stroke="#63b8ff" d="M390.57,-417.8C382.33,-409.68 371.8,-399.31 362.49,-390.15"/>
<polygon fill="#63b8ff" stroke="#63b8ff" points="365.05,-387.75 355.46,-383.23 360.13,-392.74 365.05,-387.75"/>
</a>
</g>
</g>
<!-- Node17 -->
<g id="Node000017" class="node">
<title>Node17</title>
<g id="a_Node000017"><a xlink:href="exif-mnote-data-fuji_8h.html" target="_top" xlink:title=" ">
<polygon fill="white" stroke="#666666" points="531,-382 409,-382 409,-352 531,-352 531,-382"/>
<text text-anchor="start" x="417" y="-370" font-family="Helvetica,sans-Serif" font-size="10.00">libexif/fuji/exif&#45;mnote</text>
<text text-anchor="middle" x="470" y="-359" font-family="Helvetica,sans-Serif" font-size="10.00">&#45;data&#45;fuji.h</text>
</a>
</g>
</g>
<!-- Node1&#45;&gt;Node17 -->
<g id="edge29_Node000001_Node000017" class="edge">
<title>Node1&#45;&gt;Node17</title>
<g id="a_edge29_Node000001_Node000017"><a xlink:title=" ">
<path fill="none" stroke="#63b8ff" d="M413.71,-417.8C420.92,-409.65 431.24,-399.25 441.14,-390.06"/>
<polygon fill="#63b8ff" stroke="#63b8ff" points="443.44,-392.7 448.52,-383.4 438.75,-387.5 443.44,-392.7"/>
</a>
</g>
</g>
<!-- Node4 -->
<g id="Node000004" class="node">
<title>Node4</title>
<g id="a_Node000004"><a xlink:href="exif-data_8h.html" target="_top" xlink:title="Defines the ExifData type and the associated functions.">
<polygon fill="white" stroke="#666666" points="391,-310.5 289,-310.5 289,-291.5 391,-291.5 391,-310.5"/>
<text text-anchor="middle" x="340" y="-298.5" font-family="Helvetica,sans-Serif" font-size="10.00">libexif/exif&#45;data.h</text>
</a>
</g>
</g>
<!-- Node3&#45;&gt;Node4 -->
<g id="edge3_Node000003_Node000004" class="edge">
<title>Node3&#45;&gt;Node4</title>
<g id="a_edge3_Node000003_Node000004"><a xlink:title=" ">
<path fill="none" stroke="#63b8ff" d="M340,-351.8C340,-343.09 340,-331.81 340,-322.18"/>
<polygon fill="#63b8ff" stroke="#63b8ff" points="343.5,-322.36 340,-312.36 336.5,-322.36 343.5,-322.36"/>
</a>
</g>
</g>
<!-- Node5 -->
<g id="Node000005" class="node">
<title>Node5</title>
<g id="a_Node000005"><a xlink:href="exif-byte-order_8h.html" target="_top" xlink:title="Defines the ExifByteOrder enum and the associated functions.">
<polygon fill="white" stroke="#666666" points="572.5,-19 441.5,-19 441.5,0 572.5,0 572.5,-19"/>
<text text-anchor="middle" x="507" y="-7" font-family="Helvetica,sans-Serif" font-size="10.00">libexif/exif&#45;byte&#45;order.h</text>
</a>
</g>
</g>
<!-- Node4&#45;&gt;Node5 -->
<g id="edge4_Node000004_Node000005" class="edge">
<title>Node4&#45;&gt;Node5</title>
<g id="a_edge4_Node000004_Node000005"><a xlink:title=" ">
<path fill="none" stroke="#63b8ff" d="M360.62,-291.13C377.84,-282.78 401.92,-268.76 417,-250 472.36,-181.15 496.02,-74.71 503.83,-30.66"/>
<polygon fill="#63b8ff" stroke="#63b8ff" points="507.28,-31.24 505.47,-20.8 500.37,-30.09 507.28,-31.24"/>
</a>
</g>
</g>
<!-- Node6 -->
<g id="Node000006" class="node">
<title>Node6</title>
<g id="a_Node000006"><a xlink:href="exif-data-type_8h.html" target="_top" xlink:title=" ">
<polygon fill="white" stroke="#666666" points="156,-129 28,-129 28,-110 156,-110 156,-129"/>
<text text-anchor="middle" x="92" y="-117" font-family="Helvetica,sans-Serif" font-size="10.00">libexif/exif&#45;data&#45;type.h</text>
</a>
</g>
</g>
<!-- Node4&#45;&gt;Node6 -->
<g id="edge5_Node000004_Node000006" class="edge">
<title>Node4&#45;&gt;Node6</title>
<g id="a_edge5_Node000004_Node000006"><a xlink:title=" ">
<path fill="none" stroke="#63b8ff" d="M293.96,-291.04C259.41,-283.19 211.61,-269.88 173,-250 130.48,-228.1 109.03,-226.96 88,-184 81.37,-170.47 82.95,-153.33 85.86,-140.27"/>
<polygon fill="#63b8ff" stroke="#63b8ff" points="89.21,-141.27 88.44,-130.71 82.46,-139.45 89.21,-141.27"/>
</a>
</g>
</g>
<!-- Node7 -->
<g id="Node000007" class="node">
<title>Node7</title>
<g id="a_Node000007"><a xlink:href="exif-ifd_8h.html" target="_top" xlink:title=" ">
<polygon fill="white" stroke="#666666" points="267.5,-129 174.5,-129 174.5,-110 267.5,-110 267.5,-129"/>
<text text-anchor="middle" x="221" y="-117" font-family="Helvetica,sans-Serif" font-size="10.00">libexif/exif&#45;ifd.h</text>
</a>
</g>
</g>
<!-- Node4&#45;&gt;Node7 -->
<g id="edge6_Node000004_Node000007" class="edge">
<title>Node4&#45;&gt;Node7</title>
<g id="a_edge6_Node000004_Node000007"><a xlink:title=" ">
<path fill="none" stroke="#63b8ff" d="M319.6,-291.11C302.57,-282.74 278.79,-268.71 264,-250 238,-217.11 227.4,-167.81 223.33,-140.5"/>
<polygon fill="#63b8ff" stroke="#63b8ff" points="226.83,-140.29 222.05,-130.84 219.89,-141.21 226.83,-140.29"/>
</a>
</g>
</g>
<!-- Node8 -->
<g id="Node000008" class="node">
<title>Node8</title>
<g id="a_Node000008"><a xlink:href="exif-log_8h.html" target="_top" xlink:title="Log message infrastructure.">
<polygon fill="white" stroke="#666666" points="580.5,-184 485.5,-184 485.5,-165 580.5,-165 580.5,-184"/>
<text text-anchor="middle" x="533" y="-172" font-family="Helvetica,sans-Serif" font-size="10.00">libexif/exif&#45;log.h</text>
</a>
</g>
</g>
<!-- Node4&#45;&gt;Node8 -->
<g id="edge7_Node000004_Node000008" class="edge">
<title>Node4&#45;&gt;Node8</title>
<g id="a_edge7_Node000004_Node000008"><a xlink:title=" ">
<path fill="none" stroke="#63b8ff" d="M378.07,-291.05C405.65,-283.29 442.88,-270.1 471,-250 492.34,-234.75 510.67,-210.45 521.75,-193.78"/>
<polygon fill="#63b8ff" stroke="#63b8ff" points="524.69,-195.68 527.13,-185.37 518.8,-191.91 524.69,-195.68"/>
</a>
</g>
</g>
<!-- Node9 -->
<g id="Node000009" class="node">
<title>Node9</title>
<g id="a_Node000009"><a xlink:href="exif-mem_8h.html" target="_top" xlink:title="Define the ExifMem data type and the associated functions.">
<polygon fill="white" stroke="#666666" points="430,-129 324,-129 324,-110 430,-110 430,-129"/>
<text text-anchor="middle" x="377" y="-117" font-family="Helvetica,sans-Serif" font-size="10.00">libexif/exif&#45;mem.h</text>
</a>
</g>
</g>
<!-- Node4&#45;&gt;Node9 -->
<g id="edge28_Node000004_Node000009" class="edge">
<title>Node4&#45;&gt;Node9</title>
<g id="a_edge28_Node000004_Node000009"><a xlink:title=" ">
<path fill="none" stroke="#63b8ff" d="M357.05,-291.12C371.23,-282.67 390.42,-268.52 399,-250 415.95,-213.41 398.99,-165.58 386.87,-139.5"/>
<polygon fill="#63b8ff" stroke="#63b8ff" points="390.16,-138.24 382.61,-130.81 383.88,-141.33 390.16,-138.24"/>
</a>
</g>
</g>
<!-- Node13 -->
<g id="Node000013" class="node">
<title>Node13</title>
<g id="a_Node000013"><a xlink:href="exif-tag_8h.html" target="_top" xlink:title="Handling EXIF tags.">
<polygon fill="white" stroke="#666666" points="193,-184 97,-184 97,-165 193,-165 193,-184"/>
<text text-anchor="middle" x="145" y="-172" font-family="Helvetica,sans-Serif" font-size="10.00">libexif/exif&#45;tag.h</text>
</a>
</g>
</g>
<!-- Node4&#45;&gt;Node13 -->
<g id="edge14_Node000004_Node000013" class="edge">
<title>Node4&#45;&gt;Node13</title>
<g id="a_edge14_Node000004_Node000013"><a xlink:title=" ">
<path fill="none" stroke="#63b8ff" d="M301.05,-291.08C273.08,-283.37 235.45,-270.23 207,-250 185.63,-234.8 167.3,-210.49 156.23,-193.8"/>
<polygon fill="#63b8ff" stroke="#63b8ff" points="159.19,-191.93 150.86,-185.38 153.28,-195.7 159.19,-191.93"/>
</a>
</g>
</g>
<!-- Node14 -->
<g id="Node000014" class="node">
<title>Node14</title>
<g id="a_Node000014"><a xlink:href="exif-content_8h.html" target="_top" xlink:title="Handling EXIF IFDs.">
<polygon fill="white" stroke="#666666" points="390.5,-244.5 273.5,-244.5 273.5,-225.5 390.5,-225.5 390.5,-244.5"/>
<text text-anchor="middle" x="332" y="-232.5" font-family="Helvetica,sans-Serif" font-size="10.00">libexif/exif&#45;content.h</text>
</a>
</g>
</g>
<!-- Node4&#45;&gt;Node14 -->
<g id="edge17_Node000004_Node000014" class="edge">
<title>Node4&#45;&gt;Node14</title>
<g id="a_edge17_Node000004_Node000014"><a xlink:title=" ">
<path fill="none" stroke="#63b8ff" d="M334.04,-291.1C331.05,-282.12 328.79,-267.95 328.2,-256.22"/>
<polygon fill="#63b8ff" stroke="#63b8ff" points="331.7,-256.36 328.26,-246.34 324.7,-256.31 331.7,-256.36"/>
</a>
</g>
</g>
<!-- Node16 -->
<g id="Node000016" class="node">
<title>Node16</title>
<g id="a_Node000016"><a xlink:href="exif-mnote-data_8h.html" target="_top" xlink:title="Handling EXIF MakerNote tags.">
<polygon fill="white" stroke="#666666" points="626.5,-250 523.5,-250 523.5,-220 626.5,-220 626.5,-250"/>
<text text-anchor="start" x="531.5" y="-238" font-family="Helvetica,sans-Serif" font-size="10.00">libexif/exif&#45;mnote</text>
<text text-anchor="middle" x="575" y="-227" font-family="Helvetica,sans-Serif" font-size="10.00">&#45;data.h</text>
</a>
</g>
</g>
<!-- Node4&#45;&gt;Node16 -->
<g id="edge26_Node000004_Node000016" class="edge">
<title>Node4&#45;&gt;Node16</title>
<g id="a_edge26_Node000004_Node000016"><a xlink:title=" ">
<path fill="none" stroke="#63b8ff" d="M372.68,-291.1C408.6,-281.32 467.18,-265.36 512.08,-253.13"/>
<polygon fill="#63b8ff" stroke="#63b8ff" points="512.99,-256.51 521.72,-250.51 511.15,-249.76 512.99,-256.51"/>
</a>
</g>
</g>
<!-- Node8&#45;&gt;Node9 -->
<g id="edge8_Node000008_Node000009" class="edge">
<title>Node8&#45;&gt;Node9</title>
<g id="a_edge8_Node000008_Node000009"><a xlink:title=" ">
<path fill="none" stroke="#63b8ff" d="M506.54,-164.51C481.14,-155.88 442.53,-142.76 414.08,-133.1"/>
<polygon fill="#63b8ff" stroke="#63b8ff" points="415.36,-129.84 404.77,-129.93 413.11,-136.46 415.36,-129.84"/>
</a>
</g>
</g>
<!-- Node12 -->
<g id="Node000012" class="node">
<title>Node12</title>
<g id="a_Node000012"><a xlink:title=" ">
<polygon fill="#e0e0e0" stroke="#999999" points="561,-129 505,-129 505,-110 561,-110 561,-129"/>
<text text-anchor="middle" x="533" y="-117" font-family="Helvetica,sans-Serif" font-size="10.00">stdarg.h</text>
</a>
</g>
</g>
<!-- Node8&#45;&gt;Node12 -->
<g id="edge13_Node000008_Node000012" class="edge">
<title>Node8&#45;&gt;Node12</title>
<g id="a_edge13_Node000008_Node000012"><a xlink:title=" ">
<path fill="none" stroke="#63b8ff" d="M533,-164.75C533,-158.27 533,-149.16 533,-140.9"/>
<polygon fill="#63b8ff" stroke="#63b8ff" points="536.5,-140.96 533,-130.96 529.5,-140.96 536.5,-140.96"/>
</a>
</g>
</g>
<!-- Node10 -->
<g id="Node000010" class="node">
<title>Node10</title>
<g id="a_Node000010"><a xlink:href="exif-utils_8h.html" target="_top" xlink:title="EXIF data manipulation functions and types.">
<polygon fill="white" stroke="#666666" points="427.5,-74 326.5,-74 326.5,-55 427.5,-55 427.5,-74"/>
<text text-anchor="middle" x="377" y="-62" font-family="Helvetica,sans-Serif" font-size="10.00">libexif/exif&#45;utils.h</text>
</a>
</g>
</g>
<!-- Node9&#45;&gt;Node10 -->
<g id="edge9_Node000009_Node000010" class="edge">
<title>Node9&#45;&gt;Node10</title>
<g id="a_edge9_Node000009_Node000010"><a xlink:title=" ">
<path fill="none" stroke="#63b8ff" d="M377,-109.75C377,-103.27 377,-94.16 377,-85.9"/>
<polygon fill="#63b8ff" stroke="#63b8ff" points="380.5,-85.96 377,-75.96 373.5,-85.96 380.5,-85.96"/>
</a>
</g>
</g>
<!-- Node10&#45;&gt;Node2 -->
<g id="edge11_Node000010_Node000002" class="edge">
<title>Node10&#45;&gt;Node2</title>
<g id="a_edge11_Node000010_Node000002"><a xlink:title=" ">
<path fill="none" stroke="#63b8ff" d="M356.47,-54.51C337.32,-46.12 308.5,-33.5 286.63,-23.92"/>
<polygon fill="#63b8ff" stroke="#63b8ff" points="288.17,-20.77 277.61,-19.97 285.36,-27.18 288.17,-20.77"/>
</a>
</g>
</g>
<!-- Node10&#45;&gt;Node5 -->
<g id="edge10_Node000010_Node000005" class="edge">
<title>Node10&#45;&gt;Node5</title>
<g id="a_edge10_Node000010_Node000005"><a xlink:title=" ">
<path fill="none" stroke="#63b8ff" d="M399.05,-54.51C419.81,-46.04 451.16,-33.27 474.73,-23.66"/>
<polygon fill="#63b8ff" stroke="#63b8ff" points="475.93,-26.95 483.87,-19.93 473.29,-20.46 475.93,-26.95"/>
</a>
</g>
</g>
<!-- Node11 -->
<g id="Node000011" class="node">
<title>Node11</title>
<g id="a_Node000011"><a xlink:title=" ">
<polygon fill="#e0e0e0" stroke="#999999" points="423,-19 331,-19 331,0 423,0 423,-19"/>
<text text-anchor="middle" x="377" y="-7" font-family="Helvetica,sans-Serif" font-size="10.00">libexif/_stdint.h</text>
</a>
</g>
</g>
<!-- Node10&#45;&gt;Node11 -->
<g id="edge12_Node000010_Node000011" class="edge">
<title>Node10&#45;&gt;Node11</title>
<g id="a_edge12_Node000010_Node000011"><a xlink:title=" ">
<path fill="none" stroke="#63b8ff" d="M377,-54.75C377,-48.27 377,-39.16 377,-30.9"/>
<polygon fill="#63b8ff" stroke="#63b8ff" points="380.5,-30.96 377,-20.96 373.5,-30.96 380.5,-30.96"/>
</a>
</g>
</g>
<!-- Node13&#45;&gt;Node6 -->
<g id="edge16_Node000013_Node000006" class="edge">
<title>Node13&#45;&gt;Node6</title>
<g id="a_edge16_Node000013_Node000006"><a xlink:title=" ">
<path fill="none" stroke="#63b8ff" d="M136.25,-164.75C128.85,-157.35 118.04,-146.54 108.95,-137.45"/>
<polygon fill="#63b8ff" stroke="#63b8ff" points="111.56,-135.11 102.01,-130.51 106.61,-140.06 111.56,-135.11"/>
</a>
</g>
</g>
<!-- Node13&#45;&gt;Node7 -->
<g id="edge15_Node000013_Node000007" class="edge">
<title>Node13&#45;&gt;Node7</title>
<g id="a_edge15_Node000013_Node000007"><a xlink:title=" ">
<path fill="none" stroke="#63b8ff" d="M157.89,-164.51C169.1,-156.7 185.57,-145.21 198.88,-135.93"/>
<polygon fill="#63b8ff" stroke="#63b8ff" points="200.86,-138.81 207.06,-130.22 196.85,-133.07 200.86,-138.81"/>
</a>
</g>
</g>
<!-- Node14&#45;&gt;Node4 -->
<g id="edge23_Node000014_Node000004" class="edge">
<title>Node14&#45;&gt;Node4</title>
<g id="a_edge23_Node000014_Node000004"><a xlink:title=" ">
<path fill="none" stroke="#63b8ff" d="M337.93,-244.82C340.93,-253.77 343.2,-267.94 343.79,-279.68"/>
<polygon fill="#63b8ff" stroke="#63b8ff" points="340.29,-279.57 343.74,-289.59 347.29,-279.61 340.29,-279.57"/>
</a>
</g>
</g>
<!-- Node14&#45;&gt;Node8 -->
<g id="edge24_Node000014_Node000008" class="edge">
<title>Node14&#45;&gt;Node8</title>
<g id="a_edge24_Node000014_Node000008"><a xlink:title=" ">
<path fill="none" stroke="#63b8ff" d="M362.53,-225.12C396.91,-215.11 452.99,-198.79 491.37,-187.62"/>
<polygon fill="#63b8ff" stroke="#63b8ff" points="492.11,-191.05 500.73,-184.89 490.15,-184.33 492.11,-191.05"/>
</a>
</g>
</g>
<!-- Node14&#45;&gt;Node9 -->
<g id="edge25_Node000014_Node000009" class="edge">
<title>Node14&#45;&gt;Node9</title>
<g id="a_edge25_Node000014_Node000009"><a xlink:title=" ">
<path fill="none" stroke="#63b8ff" d="M338.42,-225.23C345.19,-215.57 355.75,-199.38 362,-184 367.7,-169.99 371.53,-153.32 373.9,-140.58"/>
<polygon fill="#63b8ff" stroke="#63b8ff" points="377.32,-141.33 375.53,-130.88 370.42,-140.16 377.32,-141.33"/>
</a>
</g>
</g>
<!-- Node14&#45;&gt;Node13 -->
<g id="edge18_Node000014_Node000013" class="edge">
<title>Node14&#45;&gt;Node13</title>
<g id="a_edge18_Node000014_Node000013"><a xlink:title=" ">
<path fill="none" stroke="#63b8ff" d="M303.6,-225.12C271.88,-215.19 220.33,-199.07 184.65,-187.9"/>
<polygon fill="#63b8ff" stroke="#63b8ff" points="185.7,-184.57 175.11,-184.92 183.61,-191.25 185.7,-184.57"/>
</a>
</g>
</g>
<!-- Node15 -->
<g id="Node000015" class="node">
<title>Node15</title>
<g id="a_Node000015"><a xlink:href="exif-entry_8h.html" target="_top" xlink:title="Handling EXIF entries.">
<polygon fill="white" stroke="#666666" points="353,-184 249,-184 249,-165 353,-165 353,-184"/>
<text text-anchor="middle" x="301" y="-172" font-family="Helvetica,sans-Serif" font-size="10.00">libexif/exif&#45;entry.h</text>
</a>
</g>
</g>
<!-- Node14&#45;&gt;Node15 -->
<g id="edge19_Node000014_Node000015" class="edge">
<title>Node14&#45;&gt;Node15</title>
<g id="a_edge19_Node000014_Node000015"><a xlink:title=" ">
<path fill="none" stroke="#63b8ff" d="M322.47,-225.37C316.48,-217.33 309.5,-205.07 304.8,-194.72"/>
<polygon fill="#63b8ff" stroke="#63b8ff" points="308.12,-193.59 301.19,-185.57 301.61,-196.16 308.12,-193.59"/>
</a>
</g>
</g>
<!-- Node15&#45;&gt;Node2 -->
<g id="edge21_Node000015_Node000002" class="edge">
<title>Node15&#45;&gt;Node2</title>
<g id="a_edge21_Node000015_Node000002"><a xlink:title=" ">
<path fill="none" stroke="#63b8ff" d="M298.58,-164.74C291.59,-139.42 271.25,-65.72 261.43,-30.16"/>
<polygon fill="#63b8ff" stroke="#63b8ff" points="264.87,-29.47 258.83,-20.77 258.12,-31.34 264.87,-29.47"/>
</a>
</g>
</g>
<!-- Node15&#45;&gt;Node9 -->
<g id="edge22_Node000015_Node000009" class="edge">
<title>Node15&#45;&gt;Node9</title>
<g id="a_edge22_Node000015_Node000009"><a xlink:title=" ">
<path fill="none" stroke="#63b8ff" d="M313.89,-164.51C325.1,-156.7 341.57,-145.21 354.88,-135.93"/>
<polygon fill="#63b8ff" stroke="#63b8ff" points="356.86,-138.81 363.06,-130.22 352.85,-133.07 356.86,-138.81"/>
</a>
</g>
</g>
<!-- Node15&#45;&gt;Node14 -->
<g id="edge20_Node000015_Node000014" class="edge">
<title>Node15&#45;&gt;Node14</title>
<g id="a_edge20_Node000015_Node000014"><a xlink:title=" ">
<path fill="none" stroke="#63b8ff" d="M310.56,-184.17C316.55,-192.22 323.53,-204.48 328.22,-214.83"/>
<polygon fill="#63b8ff" stroke="#63b8ff" points="324.9,-215.94 331.83,-223.96 331.41,-213.37 324.9,-215.94"/>
</a>
</g>
</g>
<!-- Node16&#45;&gt;Node8 -->
<g id="edge27_Node000016_Node000008" class="edge">
<title>Node16&#45;&gt;Node8</title>
<g id="a_edge27_Node000016_Node000008"><a xlink:title=" ">
<path fill="none" stroke="#63b8ff" d="M564.62,-219.54C558.95,-211.65 551.89,-201.81 545.88,-193.44"/>
<polygon fill="#63b8ff" stroke="#63b8ff" points="548.79,-191.49 540.11,-185.4 543.1,-195.57 548.79,-191.49"/>
</a>
</g>
</g>
<!-- Node17&#45;&gt;Node1 -->
<g id="edge36_Node000017_Node000001" class="edge">
<title>Node17&#45;&gt;Node1</title>
<g id="a_edge36_Node000017_Node000001"><a xlink:title=" ">
<path fill="none" stroke="#63b8ff" d="M461.33,-382.16C454.07,-390.36 443.66,-400.85 433.7,-410.09"/>
<polygon fill="#63b8ff" stroke="#63b8ff" points="431.35,-407.49 426.27,-416.78 436.04,-412.69 431.35,-407.49"/>
</a>
</g>
</g>
<!-- Node17&#45;&gt;Node4 -->
<g id="edge35_Node000017_Node000004" class="edge">
<title>Node17&#45;&gt;Node4</title>
<g id="a_edge35_Node000017_Node000004"><a xlink:title=" ">
<path fill="none" stroke="#63b8ff" d="M440.83,-351.64C419.18,-340.98 389.83,-326.53 368.37,-315.97"/>
<polygon fill="#63b8ff" stroke="#63b8ff" points="370.13,-312.93 359.61,-311.65 367.04,-319.21 370.13,-312.93"/>
</a>
</g>
</g>
<!-- Node17&#45;&gt;Node16 -->
<g id="edge30_Node000017_Node000016" class="edge">
<title>Node17&#45;&gt;Node16</title>
<g id="a_edge30_Node000017_Node000016"><a xlink:title=" ">
<path fill="none" stroke="#63b8ff" d="M481.64,-351.59C499.69,-329.24 534.62,-285.99 556.26,-259.2"/>
<polygon fill="#63b8ff" stroke="#63b8ff" points="558.8,-261.63 562.36,-251.65 553.35,-257.23 558.8,-261.63"/>
</a>
</g>
</g>
<!-- Node18 -->
<g id="Node000018" class="node">
<title>Node18</title>
<g id="a_Node000018"><a xlink:href="exif-mnote-data-priv_8h.html" target="_top" xlink:title=" ">
<polygon fill="white" stroke="#666666" points="666.5,-316 563.5,-316 563.5,-286 666.5,-286 666.5,-316"/>
<text text-anchor="start" x="571.5" y="-304" font-family="Helvetica,sans-Serif" font-size="10.00">libexif/exif&#45;mnote</text>
<text text-anchor="middle" x="615" y="-293" font-family="Helvetica,sans-Serif" font-size="10.00">&#45;data&#45;priv.h</text>
</a>
</g>
</g>
<!-- Node17&#45;&gt;Node18 -->
<g id="edge31_Node000017_Node000018" class="edge">
<title>Node17&#45;&gt;Node18</title>
<g id="a_edge31_Node000017_Node000018"><a xlink:title=" ">
<path fill="none" stroke="#63b8ff" d="M502.54,-351.64C522.99,-342.61 549.61,-330.86 571.82,-321.06"/>
<polygon fill="#63b8ff" stroke="#63b8ff" points="573.2,-324.28 580.93,-317.04 570.37,-317.87 573.2,-324.28"/>
</a>
</g>
</g>
<!-- Node18&#45;&gt;Node5 -->
<g id="edge33_Node000018_Node000005" class="edge">
<title>Node18&#45;&gt;Node5</title>
<g id="a_edge33_Node000018_Node000005"><a xlink:title=" ">
<path fill="none" stroke="#63b8ff" d="M631.54,-285.74C654.44,-264.31 693,-221.41 693,-175.5 693,-175.5 693,-175.5 693,-118.5 693,-62.72 629.67,-35.27 576.92,-22.07"/>
<polygon fill="#63b8ff" stroke="#63b8ff" points="577.86,-18.7 567.32,-19.81 576.26,-25.51 577.86,-18.7"/>
</a>
</g>
</g>
<!-- Node18&#45;&gt;Node8 -->
<g id="edge34_Node000018_Node000008" class="edge">
<title>Node18&#45;&gt;Node8</title>
<g id="a_edge34_Node000018_Node000008"><a xlink:title=" ">
<path fill="none" stroke="#63b8ff" d="M624.95,-285.57C635.29,-268.62 648.25,-240.24 635,-220 624.96,-204.67 608.37,-194.6 591.45,-187.98"/>
<polygon fill="#63b8ff" stroke="#63b8ff" points="592.96,-184.8 582.36,-184.79 590.64,-191.41 592.96,-184.8"/>
</a>
</g>
</g>
<!-- Node18&#45;&gt;Node16 -->
<g id="edge32_Node000018_Node000016" class="edge">
<title>Node18&#45;&gt;Node16</title>
<g id="a_edge32_Node000018_Node000016"><a xlink:title=" ">
<path fill="none" stroke="#63b8ff" d="M606.12,-285.8C601.36,-278.17 595.36,-268.57 589.9,-259.84"/>
<polygon fill="#63b8ff" stroke="#63b8ff" points="592.92,-258.07 584.65,-251.45 586.99,-261.78 592.92,-258.07"/>
</a>
</g>
</g>
</g>
</svg>
