<?xml version="1.0" encoding="UTF-8" standalone="no"?>
<!DOCTYPE svg PUBLIC "-//W3C//DTD SVG 1.1//EN"
 "http://www.w3.org/Graphics/SVG/1.1/DTD/svg11.dtd">
<!-- Generated by graphviz version 7.0.1 (0)
 -->
<!-- Title: libexif/apple/mnote&#45;apple&#45;entry.h Pages: 1 -->
<svg width="256pt" height="170pt"
 viewBox="0.00 0.00 255.50 170.00" xmlns="http://www.w3.org/2000/svg" xmlns:xlink="http://www.w3.org/1999/xlink">
<g id="graph0" class="graph" transform="scale(1 1) rotate(0) translate(4 166)">
<title>libexif/apple/mnote&#45;apple&#45;entry.h</title>
<!-- Node1 -->
<g id="Node000001" class="node">
<title>Node1</title>
<g id="a_Node000001"><a xlink:title=" ">
<polygon fill="#999999" stroke="#666666" points="180.5,-162 68.5,-162 68.5,-132 180.5,-132 180.5,-162"/>
<text text-anchor="start" x="76.5" y="-150" font-family="Helvetica,sans-Serif" font-size="10.00">libexif/apple/mnote</text>
<text text-anchor="middle" x="124.5" y="-139" font-family="Helvetica,sans-Serif" font-size="10.00">&#45;apple&#45;entry.h</text>
</a>
</g>
</g>
<!-- Node2 -->
<g id="Node000002" class="node">
<title>Node2</title>
<g id="a_Node000002"><a xlink:href="exif-mnote-data-apple_8h.html" target="_top" xlink:title=" ">
<polygon fill="white" stroke="#666666" points="117,-96 0,-96 0,-66 117,-66 117,-96"/>
<text text-anchor="start" x="8" y="-84" font-family="Helvetica,sans-Serif" font-size="10.00">libexif/apple/exif</text>
<text text-anchor="middle" x="58.5" y="-73" font-family="Helvetica,sans-Serif" font-size="10.00">&#45;mnote&#45;data&#45;apple.h</text>
</a>
</g>
</g>
<!-- Node1&#45;&gt;Node2 -->
<g id="edge1_Node000001_Node000002" class="edge">
<title>Node1&#45;&gt;Node2</title>
<g id="a_edge1_Node000001_Node000002"><a xlink:title=" ">
<path fill="none" stroke="#63b8ff" d="M101.61,-123.81C92.16,-114.64 81.47,-104.28 73.11,-96.16"/>
<polygon fill="#63b8ff" stroke="#63b8ff" points="99.15,-126.29 108.77,-130.74 104.02,-121.27 99.15,-126.29"/>
</a>
</g>
</g>
<!-- Node4 -->
<g id="Node000004" class="node">
<title>Node4</title>
<g id="a_Node000004"><a xlink:href="mnote-apple-entry_8c.html" target="_top" xlink:title=" ">
<polygon fill="white" stroke="#666666" points="247.5,-96 135.5,-96 135.5,-66 247.5,-66 247.5,-96"/>
<text text-anchor="start" x="143.5" y="-84" font-family="Helvetica,sans-Serif" font-size="10.00">libexif/apple/mnote</text>
<text text-anchor="middle" x="191.5" y="-73" font-family="Helvetica,sans-Serif" font-size="10.00">&#45;apple&#45;entry.c</text>
</a>
</g>
</g>
<!-- Node1&#45;&gt;Node4 -->
<g id="edge3_Node000001_Node000004" class="edge">
<title>Node1&#45;&gt;Node4</title>
<g id="a_edge3_Node000001_Node000004"><a xlink:title=" ">
<path fill="none" stroke="#63b8ff" d="M147.44,-124.09C157.11,-114.85 168.09,-104.36 176.67,-96.16"/>
<polygon fill="#63b8ff" stroke="#63b8ff" points="145.28,-121.31 140.46,-130.75 150.11,-126.37 145.28,-121.31"/>
</a>
</g>
</g>
<!-- Node3 -->
<g id="Node000003" class="node">
<title>Node3</title>
<g id="a_Node000003"><a xlink:href="exif-mnote-data-apple_8c.html" target="_top" xlink:title=" ">
<polygon fill="white" stroke="#666666" points="116.5,-30 0.5,-30 0.5,0 116.5,0 116.5,-30"/>
<text text-anchor="start" x="8.5" y="-18" font-family="Helvetica,sans-Serif" font-size="10.00">libexif/apple/exif</text>
<text text-anchor="middle" x="58.5" y="-7" font-family="Helvetica,sans-Serif" font-size="10.00">&#45;mnote&#45;data&#45;apple.c</text>
</a>
</g>
</g>
<!-- Node2&#45;&gt;Node3 -->
<g id="edge2_Node000002_Node000003" class="edge">
<title>Node2&#45;&gt;Node3</title>
<g id="a_edge2_Node000002_Node000003"><a xlink:title=" ">
<path fill="none" stroke="#63b8ff" d="M58.5,-54.39C58.5,-46.13 58.5,-37.28 58.5,-30.16"/>
<polygon fill="#63b8ff" stroke="#63b8ff" points="55,-54.28 58.5,-64.28 62,-54.28 55,-54.28"/>
</a>
</g>
</g>
</g>
</svg>
