<?xml version="1.0" encoding="UTF-8" standalone="no"?>
<!DOCTYPE svg PUBLIC "-//W3C//DTD SVG 1.1//EN"
 "http://www.w3.org/Graphics/SVG/1.1/DTD/svg11.dtd">
<!-- Generated by graphviz version 2.44.1 (0)
 -->
<!-- Title: mnote_canon_entry_get_value Pages: 1 -->
<svg width="448pt" height="355pt"
 viewBox="0.00 0.00 448.00 355.25" xmlns="http://www.w3.org/2000/svg" xmlns:xlink="http://www.w3.org/1999/xlink">
<g id="graph0" class="graph" transform="scale(1 1) rotate(0) translate(4 351.25)">
<title>mnote_canon_entry_get_value</title>
<polygon fill="white" stroke="transparent" points="-4,4 -4,-351.25 444,-351.25 444,4 -4,4"/>
<!-- Node1 -->
<g id="node1" class="node">
<title>Node1</title>
<g id="a_node1"><a xlink:title=" ">
<polygon fill="#bfbfbf" stroke="black" points="0,-142.25 0,-172.25 134,-172.25 134,-142.25 0,-142.25"/>
<text text-anchor="start" x="8" y="-160.25" font-family="Helvetica,sans-Serif" font-size="10.00">mnote_canon_entry_get</text>
<text text-anchor="middle" x="67" y="-149.25" font-family="Helvetica,sans-Serif" font-size="10.00">_value</text>
</a>
</g>
</g>
<!-- Node2 -->
<g id="node2" class="node">
<title>Node2</title>
<g id="a_node2"><a xlink:href="mnote-canon-entry_8c.html#a06e73d7e72da3d1aa6914c8bf3d69c0d" target="_top" xlink:title=" ">
<polygon fill="white" stroke="black" points="174,-327.75 174,-346.75 308,-346.75 308,-327.75 174,-327.75"/>
<text text-anchor="middle" x="241" y="-334.75" font-family="Helvetica,sans-Serif" font-size="10.00">apex_value_to_aperture</text>
</a>
</g>
</g>
<!-- Node1&#45;&gt;Node2 -->
<g id="edge1" class="edge">
<title>Node1&#45;&gt;Node2</title>
<path fill="none" stroke="midnightblue" d="M73.22,-172.31C85.09,-204.32 117.28,-279.36 170,-318.25 172.63,-320.2 175.46,-321.94 178.4,-323.51"/>
<polygon fill="midnightblue" stroke="midnightblue" points="176.98,-326.71 187.53,-327.69 179.9,-320.34 176.98,-326.71"/>
</g>
<!-- Node3 -->
<g id="node3" class="node">
<title>Node3</title>
<g id="a_node3"><a xlink:href="mnote-canon-entry_8c.html#a04ae2e21068f2ad8f6c7657cfddd9674" target="_top" xlink:title=" ">
<polygon fill="white" stroke="black" points="170,-289.75 170,-308.75 312,-308.75 312,-289.75 170,-289.75"/>
<text text-anchor="middle" x="241" y="-296.75" font-family="Helvetica,sans-Serif" font-size="10.00">apex_value_to_iso_speed</text>
</a>
</g>
</g>
<!-- Node1&#45;&gt;Node3 -->
<g id="edge2" class="edge">
<title>Node1&#45;&gt;Node3</title>
<path fill="none" stroke="midnightblue" d="M76.24,-172.29C91.32,-198.36 125.91,-251.88 170,-280.25 173.3,-282.38 176.84,-284.26 180.5,-285.94"/>
<polygon fill="midnightblue" stroke="midnightblue" points="179.22,-289.2 189.81,-289.7 181.84,-282.71 179.22,-289.2"/>
</g>
<!-- Node4 -->
<g id="node4" class="node">
<title>Node4</title>
<g id="a_node4"><a xlink:href="mnote-canon-entry_8c.html#a1d6fc4e311ea9cd21992df9bd38c90ce" target="_top" xlink:title=" ">
<polygon fill="white" stroke="black" points="177,-240.25 177,-270.25 305,-270.25 305,-240.25 177,-240.25"/>
<text text-anchor="start" x="185" y="-258.25" font-family="Helvetica,sans-Serif" font-size="10.00">apex_value_to_shutter</text>
<text text-anchor="middle" x="241" y="-247.25" font-family="Helvetica,sans-Serif" font-size="10.00">_speed</text>
</a>
</g>
</g>
<!-- Node1&#45;&gt;Node4 -->
<g id="edge3" class="edge">
<title>Node1&#45;&gt;Node4</title>
<path fill="none" stroke="midnightblue" d="M85.36,-172.35C104.85,-188.68 137.96,-214.62 170,-231.25 173.33,-232.98 176.81,-234.63 180.37,-236.19"/>
<polygon fill="midnightblue" stroke="midnightblue" points="179.32,-239.55 189.9,-240.12 181.99,-233.07 179.32,-239.55"/>
</g>
<!-- Node5 -->
<g id="node5" class="node">
<title>Node5</title>
<g id="a_node5"><a xlink:href="mnote-canon-entry_8c.html#add2f1f2c87fe2684b11d79a9b6e43742" target="_top" xlink:title=" ">
<polygon fill="white" stroke="black" points="184.5,-191.25 184.5,-221.25 297.5,-221.25 297.5,-191.25 184.5,-191.25"/>
<text text-anchor="start" x="192.5" y="-209.25" font-family="Helvetica,sans-Serif" font-size="10.00">canon_search_table</text>
<text text-anchor="middle" x="241" y="-198.25" font-family="Helvetica,sans-Serif" font-size="10.00">_bitfield</text>
</a>
</g>
</g>
<!-- Node1&#45;&gt;Node5 -->
<g id="edge4" class="edge">
<title>Node1&#45;&gt;Node5</title>
<path fill="none" stroke="midnightblue" d="M121.01,-172.35C138.83,-177.43 158.88,-183.14 177.37,-188.41"/>
<polygon fill="midnightblue" stroke="midnightblue" points="176.59,-191.83 187.17,-191.2 178.51,-185.09 176.59,-191.83"/>
</g>
<!-- Node6 -->
<g id="node6" class="node">
<title>Node6</title>
<g id="a_node6"><a xlink:href="mnote-canon-entry_8c.html#a8b4d32c58f704230c465d3af23f8501e" target="_top" xlink:title=" ">
<polygon fill="white" stroke="black" points="184.5,-142.25 184.5,-172.25 297.5,-172.25 297.5,-142.25 184.5,-142.25"/>
<text text-anchor="start" x="192.5" y="-160.25" font-family="Helvetica,sans-Serif" font-size="10.00">canon_search_table</text>
<text text-anchor="middle" x="241" y="-149.25" font-family="Helvetica,sans-Serif" font-size="10.00">_value</text>
</a>
</g>
</g>
<!-- Node1&#45;&gt;Node6 -->
<g id="edge5" class="edge">
<title>Node1&#45;&gt;Node6</title>
<path fill="none" stroke="midnightblue" d="M134.01,-157.25C147.09,-157.25 160.82,-157.25 173.91,-157.25"/>
<polygon fill="midnightblue" stroke="midnightblue" points="174.24,-160.75 184.24,-157.25 174.24,-153.75 174.24,-160.75"/>
</g>
<!-- Node7 -->
<g id="node7" class="node">
<title>Node7</title>
<g id="a_node7"><a xlink:href="exif-utils_8c.html#a4ad94614630897766dd0a5c9bc2a59bf" target="_top" xlink:title="Retrieve an ExifLong value from memory.">
<polygon fill="white" stroke="black" points="199.5,-103.75 199.5,-122.75 282.5,-122.75 282.5,-103.75 199.5,-103.75"/>
<text text-anchor="middle" x="241" y="-110.75" font-family="Helvetica,sans-Serif" font-size="10.00">exif_get_long</text>
</a>
</g>
</g>
<!-- Node1&#45;&gt;Node7 -->
<g id="edge6" class="edge">
<title>Node1&#45;&gt;Node7</title>
<path fill="none" stroke="midnightblue" d="M126.71,-142.23C148.37,-136.69 172.61,-130.49 193.09,-125.25"/>
<polygon fill="midnightblue" stroke="midnightblue" points="193.99,-128.63 202.82,-122.76 192.26,-121.85 193.99,-128.63"/>
</g>
<!-- Node8 -->
<g id="node8" class="node">
<title>Node8</title>
<g id="a_node8"><a xlink:href="exif-utils_8c.html#a56b96f076a13da6ed926e1ef29cb2dc3" target="_top" xlink:title="Retrieve an ExifSLong value from memory.">
<polygon fill="white" stroke="black" points="350,-74.75 350,-93.75 438,-93.75 438,-74.75 350,-74.75"/>
<text text-anchor="middle" x="394" y="-81.75" font-family="Helvetica,sans-Serif" font-size="10.00">exif_get_slong</text>
</a>
</g>
</g>
<!-- Node1&#45;&gt;Node8 -->
<g id="edge10" class="edge">
<title>Node1&#45;&gt;Node8</title>
<path fill="none" stroke="midnightblue" d="M86.12,-142.03C105.49,-126.78 137.78,-104.19 170,-94.25 226.12,-76.95 293.94,-76.63 339.94,-79.25"/>
<polygon fill="midnightblue" stroke="midnightblue" points="339.79,-82.74 349.99,-79.88 340.23,-75.76 339.79,-82.74"/>
</g>
<!-- Node9 -->
<g id="node9" class="node">
<title>Node9</title>
<g id="a_node9"><a xlink:href="exif-utils_8c.html#a4b4acf537a8c6b9405e7b53be868e4d7" target="_top" xlink:title="Retrieve an ExifShort value from memory.">
<polygon fill="white" stroke="black" points="198,-27.75 198,-46.75 284,-46.75 284,-27.75 198,-27.75"/>
<text text-anchor="middle" x="241" y="-34.75" font-family="Helvetica,sans-Serif" font-size="10.00">exif_get_short</text>
</a>
</g>
</g>
<!-- Node1&#45;&gt;Node9 -->
<g id="edge8" class="edge">
<title>Node1&#45;&gt;Node9</title>
<path fill="none" stroke="midnightblue" d="M80.31,-142.17C98.1,-121.29 132.93,-83.61 170,-61.25 177.12,-56.96 185.11,-53.3 193.08,-50.24"/>
<polygon fill="midnightblue" stroke="midnightblue" points="194.49,-53.45 202.72,-46.79 192.13,-46.86 194.49,-53.45"/>
</g>
<!-- Node10 -->
<g id="node10" class="node">
<title>Node10</title>
<g id="a_node10"><a xlink:href="exif-utils_8c.html#a6baf094a71392f9cea23ad633ec13c8b" target="_top" xlink:title="Retrieve an ExifSShort value from memory.">
<polygon fill="white" stroke="black" points="348,-17.75 348,-36.75 440,-36.75 440,-17.75 348,-17.75"/>
<text text-anchor="middle" x="394" y="-24.75" font-family="Helvetica,sans-Serif" font-size="10.00">exif_get_sshort</text>
</a>
</g>
</g>
<!-- Node1&#45;&gt;Node10 -->
<g id="edge11" class="edge">
<title>Node1&#45;&gt;Node10</title>
<path fill="none" stroke="midnightblue" d="M73.75,-141.83C86,-111.47 117.93,-44.63 170,-18.25 228.93,11.6 308.27,-2.3 354.7,-14.92"/>
<polygon fill="midnightblue" stroke="midnightblue" points="353.8,-18.3 364.37,-17.66 355.71,-11.56 353.8,-18.3"/>
</g>
<!-- Node7&#45;&gt;Node8 -->
<g id="edge7" class="edge">
<title>Node7&#45;&gt;Node8</title>
<path fill="none" stroke="midnightblue" d="M282.86,-105.4C300.48,-102.02 321.32,-98.02 340.1,-94.41"/>
<polygon fill="midnightblue" stroke="midnightblue" points="340.83,-97.84 349.99,-92.51 339.51,-90.96 340.83,-97.84"/>
</g>
<!-- Node9&#45;&gt;Node10 -->
<g id="edge9" class="edge">
<title>Node9&#45;&gt;Node10</title>
<path fill="none" stroke="midnightblue" d="M284.06,-34.47C300.69,-33.37 320.04,-32.08 337.77,-30.91"/>
<polygon fill="midnightblue" stroke="midnightblue" points="338.25,-34.39 348,-30.23 337.79,-27.4 338.25,-34.39"/>
</g>
</g>
</svg>
