<?xml version="1.0" encoding="UTF-8" standalone="no"?>
<!DOCTYPE svg PUBLIC "-//W3C//DTD SVG 1.1//EN"
 "http://www.w3.org/Graphics/SVG/1.1/DTD/svg11.dtd">
<!-- Generated by graphviz version 7.0.1 (0)
 -->
<!-- Title: libexif/pentax/mnote&#45;pentax&#45;entry.c Pages: 1 -->
<svg width="960pt" height="500pt"
 viewBox="0.00 0.00 959.50 500.00" xmlns="http://www.w3.org/2000/svg" xmlns:xlink="http://www.w3.org/1999/xlink">
<g id="graph0" class="graph" transform="scale(1 1) rotate(0) translate(4 496)">
<title>libexif/pentax/mnote&#45;pentax&#45;entry.c</title>
<!-- Node1 -->
<g id="Node000001" class="node">
<title>Node1</title>
<g id="a_Node000001"><a xlink:title=" ">
<polygon fill="#999999" stroke="#666666" points="575.5,-492 456.5,-492 456.5,-462 575.5,-462 575.5,-492"/>
<text text-anchor="start" x="464.5" y="-480" font-family="Helvetica,sans-Serif" font-size="10.00">libexif/pentax/mnote</text>
<text text-anchor="middle" x="516" y="-469" font-family="Helvetica,sans-Serif" font-size="10.00">&#45;pentax&#45;entry.c</text>
</a>
</g>
</g>
<!-- Node2 -->
<g id="Node000002" class="node">
<title>Node2</title>
<g id="a_Node000002"><a xlink:title=" ">
<polygon fill="#e0e0e0" stroke="#999999" points="93,-371 37,-371 37,-352 93,-352 93,-371"/>
<text text-anchor="middle" x="65" y="-359" font-family="Helvetica,sans-Serif" font-size="10.00">config.h</text>
</a>
</g>
</g>
<!-- Node1&#45;&gt;Node2 -->
<g id="edge1_Node000001_Node000002" class="edge">
<title>Node1&#45;&gt;Node2</title>
<g id="a_edge1_Node000001_Node000002"><a xlink:title=" ">
<path fill="none" stroke="#63b8ff" d="M456.35,-472.74C363.21,-466.89 188.08,-452.68 132,-426 109.92,-415.5 90.36,-394.96 78.16,-380.07"/>
<polygon fill="#63b8ff" stroke="#63b8ff" points="81.11,-378.17 72.19,-372.47 75.61,-382.49 81.11,-378.17"/>
</a>
</g>
</g>
<!-- Node3 -->
<g id="Node000003" class="node">
<title>Node3</title>
<g id="a_Node000003"><a xlink:href="mnote-pentax-entry_8h.html" target="_top" xlink:title=" ">
<polygon fill="white" stroke="#666666" points="296,-85 174,-85 174,-66 296,-66 296,-85"/>
<text text-anchor="middle" x="235" y="-73" font-family="Helvetica,sans-Serif" font-size="10.00">mnote&#45;pentax&#45;entry.h</text>
</a>
</g>
</g>
<!-- Node1&#45;&gt;Node3 -->
<g id="edge2_Node000001_Node000003" class="edge">
<title>Node1&#45;&gt;Node3</title>
<g id="a_edge2_Node000001_Node000003"><a xlink:title=" ">
<path fill="none" stroke="#63b8ff" d="M456.08,-466.39C366.74,-450.35 209,-414.64 209,-362.5 209,-362.5 209,-362.5 209,-184.5 209,-152.75 219.75,-117.18 227.43,-95.83"/>
<polygon fill="#63b8ff" stroke="#63b8ff" points="230.61,-97.3 230.85,-86.7 224.06,-94.83 230.61,-97.3"/>
</a>
</g>
</g>
<!-- Node4 -->
<g id="Node000004" class="node">
<title>Node4</title>
<g id="a_Node000004"><a xlink:href="exif-format_8h.html" target="_top" xlink:title="Handling native EXIF data types.">
<polygon fill="white" stroke="#666666" points="380.5,-24.5 267.5,-24.5 267.5,-5.5 380.5,-5.5 380.5,-24.5"/>
<text text-anchor="middle" x="324" y="-12.5" font-family="Helvetica,sans-Serif" font-size="10.00">libexif/exif&#45;format.h</text>
</a>
</g>
</g>
<!-- Node1&#45;&gt;Node4 -->
<g id="edge11_Node000001_Node000004" class="edge">
<title>Node1&#45;&gt;Node4</title>
<g id="a_edge11_Node000001_Node000004"><a xlink:title=" ">
<path fill="none" stroke="#63b8ff" d="M456.14,-470.13C351.42,-458.18 146,-426.58 146,-362.5 146,-362.5 146,-362.5 146,-129.5 146,-100.04 144.32,-86.97 165,-66 179.78,-51.01 229.11,-36.91 268.95,-27.53"/>
<polygon fill="#63b8ff" stroke="#63b8ff" points="269.72,-30.94 278.69,-25.29 268.16,-24.12 269.72,-30.94"/>
</a>
</g>
</g>
<!-- Node7 -->
<g id="Node000007" class="node">
<title>Node7</title>
<g id="a_Node000007"><a xlink:href="i18n_8h.html" target="_top" xlink:title=" ">
<polygon fill="white" stroke="#666666" points="80,-426 0,-426 0,-407 80,-407 80,-426"/>
<text text-anchor="middle" x="40" y="-414" font-family="Helvetica,sans-Serif" font-size="10.00">libexif/i18n.h</text>
</a>
</g>
</g>
<!-- Node1&#45;&gt;Node7 -->
<g id="edge6_Node000001_Node000007" class="edge">
<title>Node1&#45;&gt;Node7</title>
<g id="a_edge6_Node000001_Node000007"><a xlink:title=" ">
<path fill="none" stroke="#63b8ff" d="M456.16,-469.64C374.28,-460.77 222.81,-443.76 94,-426 93.17,-425.89 92.34,-425.77 91.5,-425.65"/>
<polygon fill="#63b8ff" stroke="#63b8ff" points="92.27,-422.23 81.87,-424.25 91.26,-429.15 92.27,-422.23"/>
</a>
</g>
</g>
<!-- Node8 -->
<g id="Node000008" class="node">
<title>Node8</title>
<g id="a_Node000008"><a xlink:title=" ">
<polygon fill="#e0e0e0" stroke="#999999" points="809,-426 759,-426 759,-407 809,-407 809,-426"/>
<text text-anchor="middle" x="784" y="-414" font-family="Helvetica,sans-Serif" font-size="10.00">stdio.h</text>
</a>
</g>
</g>
<!-- Node1&#45;&gt;Node8 -->
<g id="edge8_Node000001_Node000008" class="edge">
<title>Node1&#45;&gt;Node8</title>
<g id="a_edge8_Node000001_Node000008"><a xlink:title=" ">
<path fill="none" stroke="#63b8ff" d="M575.81,-462.94C628.49,-451.44 703.51,-435.07 747.64,-425.44"/>
<polygon fill="#63b8ff" stroke="#63b8ff" points="748.19,-428.9 757.21,-423.35 746.69,-422.06 748.19,-428.9"/>
</a>
</g>
</g>
<!-- Node9 -->
<g id="Node000009" class="node">
<title>Node9</title>
<g id="a_Node000009"><a xlink:title=" ">
<polygon fill="#e0e0e0" stroke="#999999" points="880.5,-426 827.5,-426 827.5,-407 880.5,-407 880.5,-426"/>
<text text-anchor="middle" x="854" y="-414" font-family="Helvetica,sans-Serif" font-size="10.00">stdlib.h</text>
</a>
</g>
</g>
<!-- Node1&#45;&gt;Node9 -->
<g id="edge9_Node000001_Node000009" class="edge">
<title>Node1&#45;&gt;Node9</title>
<g id="a_edge9_Node000001_Node000009"><a xlink:title=" ">
<path fill="none" stroke="#63b8ff" d="M575.81,-467.32C634.45,-458.54 726.62,-444 816.13,-426.25"/>
<polygon fill="#63b8ff" stroke="#63b8ff" points="816.7,-429.71 825.82,-424.31 815.33,-422.84 816.7,-429.71"/>
</a>
</g>
</g>
<!-- Node10 -->
<g id="Node000010" class="node">
<title>Node10</title>
<g id="a_Node000010"><a xlink:title=" ">
<polygon fill="#e0e0e0" stroke="#999999" points="951.5,-426 898.5,-426 898.5,-407 951.5,-407 951.5,-426"/>
<text text-anchor="middle" x="925" y="-414" font-family="Helvetica,sans-Serif" font-size="10.00">string.h</text>
</a>
</g>
</g>
<!-- Node1&#45;&gt;Node10 -->
<g id="edge10_Node000001_Node000010" class="edge">
<title>Node1&#45;&gt;Node10</title>
<g id="a_edge10_Node000001_Node000010"><a xlink:title=" ">
<path fill="none" stroke="#63b8ff" d="M575.9,-469.96C647.7,-462.28 771.84,-447.62 887.18,-426.37"/>
<polygon fill="#63b8ff" stroke="#63b8ff" points="887.63,-429.84 896.82,-424.57 886.35,-422.96 887.63,-429.84"/>
</a>
</g>
</g>
<!-- Node11 -->
<g id="Node000011" class="node">
<title>Node11</title>
<g id="a_Node000011"><a xlink:href="exif-utils_8h.html" target="_top" xlink:title="EXIF data manipulation functions and types.">
<polygon fill="white" stroke="#666666" points="741.5,-85 640.5,-85 640.5,-66 741.5,-66 741.5,-85"/>
<text text-anchor="middle" x="691" y="-73" font-family="Helvetica,sans-Serif" font-size="10.00">libexif/exif&#45;utils.h</text>
</a>
</g>
</g>
<!-- Node1&#45;&gt;Node11 -->
<g id="edge12_Node000001_Node000011" class="edge">
<title>Node1&#45;&gt;Node11</title>
<g id="a_edge12_Node000001_Node000011"><a xlink:title=" ">
<path fill="none" stroke="#63b8ff" d="M566.63,-461.61C659.36,-433.73 847,-369.65 847,-307.5 847,-307.5 847,-307.5 847,-184.5 847,-132.16 786.9,-103.18 741.31,-88.74"/>
<polygon fill="#63b8ff" stroke="#63b8ff" points="742.4,-85.41 731.82,-85.89 740.39,-92.11 742.4,-85.41"/>
</a>
</g>
</g>
<!-- Node13 -->
<g id="Node000013" class="node">
<title>Node13</title>
<g id="a_Node000013"><a xlink:href="exif-entry_8h.html" target="_top" xlink:title="Handling EXIF entries.">
<polygon fill="white" stroke="#666666" points="568,-426 464,-426 464,-407 568,-407 568,-426"/>
<text text-anchor="middle" x="516" y="-414" font-family="Helvetica,sans-Serif" font-size="10.00">libexif/exif&#45;entry.h</text>
</a>
</g>
</g>
<!-- Node1&#45;&gt;Node13 -->
<g id="edge16_Node000001_Node000013" class="edge">
<title>Node1&#45;&gt;Node13</title>
<g id="a_edge16_Node000001_Node000013"><a xlink:title=" ">
<path fill="none" stroke="#63b8ff" d="M516,-461.54C516,-454.34 516,-445.53 516,-437.68"/>
<polygon fill="#63b8ff" stroke="#63b8ff" points="519.5,-437.69 516,-427.69 512.5,-437.69 519.5,-437.69"/>
</a>
</g>
</g>
<!-- Node3&#45;&gt;Node4 -->
<g id="edge3_Node000003_Node000004" class="edge">
<title>Node3&#45;&gt;Node4</title>
<g id="a_edge3_Node000003_Node000004"><a xlink:title=" ">
<path fill="none" stroke="#63b8ff" d="M248.52,-65.62C262.37,-56.51 284.18,-42.18 300.8,-31.25"/>
<polygon fill="#63b8ff" stroke="#63b8ff" points="302.66,-34.22 309.09,-25.8 298.81,-28.37 302.66,-34.22"/>
</a>
</g>
</g>
<!-- Node5 -->
<g id="Node000005" class="node">
<title>Node5</title>
<g id="a_Node000005"><a xlink:href="exif-byte-order_8h.html" target="_top" xlink:title="Defines the ExifByteOrder enum and the associated functions.">
<polygon fill="white" stroke="#666666" points="608.5,-24.5 477.5,-24.5 477.5,-5.5 608.5,-5.5 608.5,-24.5"/>
<text text-anchor="middle" x="543" y="-12.5" font-family="Helvetica,sans-Serif" font-size="10.00">libexif/exif&#45;byte&#45;order.h</text>
</a>
</g>
</g>
<!-- Node3&#45;&gt;Node5 -->
<g id="edge4_Node000003_Node000005" class="edge">
<title>Node3&#45;&gt;Node5</title>
<g id="a_edge4_Node000003_Node000005"><a xlink:title=" ">
<path fill="none" stroke="#63b8ff" d="M282.11,-65.55C336.49,-55.22 425.96,-38.23 484.69,-27.08"/>
<polygon fill="#63b8ff" stroke="#63b8ff" points="484.98,-30.58 494.15,-25.28 483.67,-23.71 484.98,-30.58"/>
</a>
</g>
</g>
<!-- Node6 -->
<g id="Node000006" class="node">
<title>Node6</title>
<g id="a_Node000006"><a xlink:href="mnote-pentax-tag_8h.html" target="_top" xlink:title=" ">
<polygon fill="white" stroke="#666666" points="249.5,-30 130.5,-30 130.5,0 249.5,0 249.5,-30"/>
<text text-anchor="start" x="138.5" y="-18" font-family="Helvetica,sans-Serif" font-size="10.00">libexif/pentax/mnote</text>
<text text-anchor="middle" x="190" y="-7" font-family="Helvetica,sans-Serif" font-size="10.00">&#45;pentax&#45;tag.h</text>
</a>
</g>
</g>
<!-- Node3&#45;&gt;Node6 -->
<g id="edge5_Node000003_Node000006" class="edge">
<title>Node3&#45;&gt;Node6</title>
<g id="a_edge5_Node000003_Node000006"><a xlink:title=" ">
<path fill="none" stroke="#63b8ff" d="M228.36,-65.87C222.93,-58.81 215,-48.5 207.75,-39.08"/>
<polygon fill="#63b8ff" stroke="#63b8ff" points="210.65,-37.11 201.78,-31.31 205.1,-41.37 210.65,-37.11"/>
</a>
</g>
</g>
<!-- Node7&#45;&gt;Node2 -->
<g id="edge7_Node000007_Node000002" class="edge">
<title>Node7&#45;&gt;Node2</title>
<g id="a_edge7_Node000007_Node000002"><a xlink:title=" ">
<path fill="none" stroke="#63b8ff" d="M44.13,-406.75C47.33,-399.96 51.89,-390.3 55.93,-381.73"/>
<polygon fill="#63b8ff" stroke="#63b8ff" points="59.04,-383.35 60.14,-372.81 52.7,-380.36 59.04,-383.35"/>
</a>
</g>
</g>
<!-- Node11&#45;&gt;Node4 -->
<g id="edge14_Node000011_Node000004" class="edge">
<title>Node11&#45;&gt;Node4</title>
<g id="a_edge14_Node000011_Node000004"><a xlink:title=" ">
<path fill="none" stroke="#63b8ff" d="M640.36,-66.43C575.68,-56.12 463.55,-38.24 391.62,-26.78"/>
<polygon fill="#63b8ff" stroke="#63b8ff" points="392.36,-23.35 381.93,-25.23 391.26,-30.26 392.36,-23.35"/>
</a>
</g>
</g>
<!-- Node11&#45;&gt;Node5 -->
<g id="edge13_Node000011_Node000005" class="edge">
<title>Node11&#45;&gt;Node5</title>
<g id="a_edge13_Node000011_Node000005"><a xlink:title=" ">
<path fill="none" stroke="#63b8ff" d="M668.52,-65.62C643.96,-55.91 604.38,-40.26 576.23,-29.14"/>
<polygon fill="#63b8ff" stroke="#63b8ff" points="577.68,-25.95 567.1,-25.52 575.11,-32.46 577.68,-25.95"/>
</a>
</g>
</g>
<!-- Node12 -->
<g id="Node000012" class="node">
<title>Node12</title>
<g id="a_Node000012"><a xlink:title=" ">
<polygon fill="#e0e0e0" stroke="#999999" points="737,-24.5 645,-24.5 645,-5.5 737,-5.5 737,-24.5"/>
<text text-anchor="middle" x="691" y="-12.5" font-family="Helvetica,sans-Serif" font-size="10.00">libexif/_stdint.h</text>
</a>
</g>
</g>
<!-- Node11&#45;&gt;Node12 -->
<g id="edge15_Node000011_Node000012" class="edge">
<title>Node11&#45;&gt;Node12</title>
<g id="a_edge15_Node000011_Node000012"><a xlink:title=" ">
<path fill="none" stroke="#63b8ff" d="M691,-65.87C691,-58 691,-46.1 691,-35.89"/>
<polygon fill="#63b8ff" stroke="#63b8ff" points="694.5,-36.18 691,-26.18 687.5,-36.18 694.5,-36.18"/>
</a>
</g>
</g>
<!-- Node13&#45;&gt;Node4 -->
<g id="edge37_Node000013_Node000004" class="edge">
<title>Node13&#45;&gt;Node4</title>
<g id="a_edge37_Node000013_Node000004"><a xlink:title=" ">
<path fill="none" stroke="#63b8ff" d="M468.22,-406.51C390.92,-390.59 247,-354.62 247,-307.5 247,-307.5 247,-307.5 247,-245 247,-169.36 280,-156.39 305,-85 310.72,-68.66 315.84,-49.66 319.32,-35.75"/>
<polygon fill="#63b8ff" stroke="#63b8ff" points="322.71,-36.63 321.67,-26.08 315.91,-34.98 322.71,-36.63"/>
</a>
</g>
</g>
<!-- Node14 -->
<g id="Node000014" class="node">
<title>Node14</title>
<g id="a_Node000014"><a xlink:href="exif-content_8h.html" target="_top" xlink:title="Handling EXIF IFDs.">
<polygon fill="white" stroke="#666666" points="574.5,-371 457.5,-371 457.5,-352 574.5,-352 574.5,-371"/>
<text text-anchor="middle" x="516" y="-359" font-family="Helvetica,sans-Serif" font-size="10.00">libexif/exif&#45;content.h</text>
</a>
</g>
</g>
<!-- Node13&#45;&gt;Node14 -->
<g id="edge17_Node000013_Node000014" class="edge">
<title>Node13&#45;&gt;Node14</title>
<g id="a_edge17_Node000013_Node000014"><a xlink:title=" ">
<path fill="none" stroke="#63b8ff" d="M510.83,-406.75C509.42,-400.19 508.96,-390.95 509.43,-382.6"/>
<polygon fill="#63b8ff" stroke="#63b8ff" points="512.87,-383.3 510.61,-372.94 505.92,-382.45 512.87,-383.3"/>
</a>
</g>
</g>
<!-- Node20 -->
<g id="Node000020" class="node">
<title>Node20</title>
<g id="a_Node000020"><a xlink:href="exif-mem_8h.html" target="_top" xlink:title="Define the ExifMem data type and the associated functions.">
<polygon fill="white" stroke="#666666" points="761,-140 655,-140 655,-121 761,-121 761,-140"/>
<text text-anchor="middle" x="708" y="-128" font-family="Helvetica,sans-Serif" font-size="10.00">libexif/exif&#45;mem.h</text>
</a>
</g>
</g>
<!-- Node13&#45;&gt;Node20 -->
<g id="edge38_Node000013_Node000020" class="edge">
<title>Node13&#45;&gt;Node20</title>
<g id="a_edge38_Node000013_Node000020"><a xlink:title=" ">
<path fill="none" stroke="#63b8ff" d="M568.38,-407.24C652.66,-392.45 809,-358.19 809,-307.5 809,-307.5 809,-307.5 809,-245 809,-200.17 764.48,-164.84 734.56,-146.15"/>
<polygon fill="#63b8ff" stroke="#63b8ff" points="736.36,-143.15 725.98,-141.03 732.77,-149.16 736.36,-143.15"/>
</a>
</g>
</g>
<!-- Node14&#45;&gt;Node13 -->
<g id="edge21_Node000014_Node000013" class="edge">
<title>Node14&#45;&gt;Node13</title>
<g id="a_edge21_Node000014_Node000013"><a xlink:title=" ">
<path fill="none" stroke="#63b8ff" d="M521.21,-371.44C522.58,-377.97 523.04,-387.1 522.57,-395.35"/>
<polygon fill="#63b8ff" stroke="#63b8ff" points="519.1,-394.89 521.35,-405.25 526.05,-395.75 519.1,-394.89"/>
</a>
</g>
</g>
<!-- Node15 -->
<g id="Node000015" class="node">
<title>Node15</title>
<g id="a_Node000015"><a xlink:href="exif-tag_8h.html" target="_top" xlink:title="Handling EXIF tags.">
<polygon fill="white" stroke="#666666" points="393,-255.5 297,-255.5 297,-236.5 393,-236.5 393,-255.5"/>
<text text-anchor="middle" x="345" y="-243.5" font-family="Helvetica,sans-Serif" font-size="10.00">libexif/exif&#45;tag.h</text>
</a>
</g>
</g>
<!-- Node14&#45;&gt;Node15 -->
<g id="edge18_Node000014_Node000015" class="edge">
<title>Node14&#45;&gt;Node15</title>
<g id="a_edge18_Node000014_Node000015"><a xlink:title=" ">
<path fill="none" stroke="#63b8ff" d="M502.58,-351.59C473.36,-332.2 403.71,-285.97 367.59,-262"/>
<polygon fill="#63b8ff" stroke="#63b8ff" points="369.88,-259.32 359.62,-256.7 366.01,-265.15 369.88,-259.32"/>
</a>
</g>
</g>
<!-- Node18 -->
<g id="Node000018" class="node">
<title>Node18</title>
<g id="a_Node000018"><a xlink:href="exif-data_8h.html" target="_top" xlink:title="Defines the ExifData type and the associated functions.">
<polygon fill="white" stroke="#666666" points="567,-316 465,-316 465,-297 567,-297 567,-316"/>
<text text-anchor="middle" x="516" y="-304" font-family="Helvetica,sans-Serif" font-size="10.00">libexif/exif&#45;data.h</text>
</a>
</g>
</g>
<!-- Node14&#45;&gt;Node18 -->
<g id="edge22_Node000014_Node000018" class="edge">
<title>Node14&#45;&gt;Node18</title>
<g id="a_edge22_Node000014_Node000018"><a xlink:title=" ">
<path fill="none" stroke="#63b8ff" d="M510.83,-351.75C509.42,-345.19 508.96,-335.95 509.43,-327.6"/>
<polygon fill="#63b8ff" stroke="#63b8ff" points="512.87,-328.3 510.61,-317.94 505.92,-327.45 512.87,-328.3"/>
</a>
</g>
</g>
<!-- Node19 -->
<g id="Node000019" class="node">
<title>Node19</title>
<g id="a_Node000019"><a xlink:href="exif-log_8h.html" target="_top" xlink:title="Log message infrastructure.">
<polygon fill="white" stroke="#666666" points="666.5,-195 571.5,-195 571.5,-176 666.5,-176 666.5,-195"/>
<text text-anchor="middle" x="619" y="-183" font-family="Helvetica,sans-Serif" font-size="10.00">libexif/exif&#45;log.h</text>
</a>
</g>
</g>
<!-- Node14&#45;&gt;Node19 -->
<g id="edge35_Node000014_Node000019" class="edge">
<title>Node14&#45;&gt;Node19</title>
<g id="a_edge35_Node000014_Node000019"><a xlink:title=" ">
<path fill="none" stroke="#63b8ff" d="M546.37,-351.56C584.32,-338.56 647.63,-310.42 675,-261 681.46,-249.34 680.8,-243.01 675,-231 669.05,-218.67 657.84,-208.71 647,-201.36"/>
<polygon fill="#63b8ff" stroke="#63b8ff" points="648.94,-198.45 638.6,-196.15 645.25,-204.39 648.94,-198.45"/>
</a>
</g>
</g>
<!-- Node14&#45;&gt;Node20 -->
<g id="edge36_Node000014_Node000020" class="edge">
<title>Node14&#45;&gt;Node20</title>
<g id="a_edge36_Node000014_Node000020"><a xlink:title=" ">
<path fill="none" stroke="#63b8ff" d="M561.93,-351.55C588.47,-344.82 621.54,-333.66 647,-316 698.8,-280.08 708.04,-256.69 721,-195 724.12,-180.14 720.34,-163.31 716.07,-150.71"/>
<polygon fill="#63b8ff" stroke="#63b8ff" points="719.41,-149.64 712.57,-141.55 712.87,-152.14 719.41,-149.64"/>
</a>
</g>
</g>
<!-- Node16 -->
<g id="Node000016" class="node">
<title>Node16</title>
<g id="a_Node000016"><a xlink:href="exif-ifd_8h.html" target="_top" xlink:title=" ">
<polygon fill="white" stroke="#666666" points="514.5,-195 421.5,-195 421.5,-176 514.5,-176 514.5,-195"/>
<text text-anchor="middle" x="468" y="-183" font-family="Helvetica,sans-Serif" font-size="10.00">libexif/exif&#45;ifd.h</text>
</a>
</g>
</g>
<!-- Node15&#45;&gt;Node16 -->
<g id="edge19_Node000015_Node000016" class="edge">
<title>Node15&#45;&gt;Node16</title>
<g id="a_edge19_Node000015_Node000016"><a xlink:title=" ">
<path fill="none" stroke="#63b8ff" d="M363.68,-236.12C383.64,-226.62 415.54,-211.45 438.82,-200.38"/>
<polygon fill="#63b8ff" stroke="#63b8ff" points="440.25,-203.57 447.78,-196.12 437.24,-197.25 440.25,-203.57"/>
</a>
</g>
</g>
<!-- Node17 -->
<g id="Node000017" class="node">
<title>Node17</title>
<g id="a_Node000017"><a xlink:href="exif-data-type_8h.html" target="_top" xlink:title=" ">
<polygon fill="white" stroke="#666666" points="403,-195 275,-195 275,-176 403,-176 403,-195"/>
<text text-anchor="middle" x="339" y="-183" font-family="Helvetica,sans-Serif" font-size="10.00">libexif/exif&#45;data&#45;type.h</text>
</a>
</g>
</g>
<!-- Node15&#45;&gt;Node17 -->
<g id="edge20_Node000015_Node000017" class="edge">
<title>Node15&#45;&gt;Node17</title>
<g id="a_edge20_Node000015_Node000017"><a xlink:title=" ">
<path fill="none" stroke="#63b8ff" d="M344.11,-236.37C343.31,-228.5 342.09,-216.6 341.04,-206.39"/>
<polygon fill="#63b8ff" stroke="#63b8ff" points="344.55,-206.26 340.04,-196.67 337.58,-206.98 344.55,-206.26"/>
</a>
</g>
</g>
<!-- Node18&#45;&gt;Node5 -->
<g id="edge23_Node000018_Node000005" class="edge">
<title>Node18&#45;&gt;Node5</title>
<g id="a_edge23_Node000018_Node000005"><a xlink:title=" ">
<path fill="none" stroke="#63b8ff" d="M516.84,-296.52C520.57,-256.5 535.74,-93.86 541.11,-36.31"/>
<polygon fill="#63b8ff" stroke="#63b8ff" points="544.59,-36.67 542.03,-26.38 537.62,-36.02 544.59,-36.67"/>
</a>
</g>
</g>
<!-- Node18&#45;&gt;Node14 -->
<g id="edge31_Node000018_Node000014" class="edge">
<title>Node18&#45;&gt;Node14</title>
<g id="a_edge31_Node000018_Node000014"><a xlink:title=" ">
<path fill="none" stroke="#63b8ff" d="M521.21,-316.44C522.58,-322.97 523.04,-332.1 522.57,-340.35"/>
<polygon fill="#63b8ff" stroke="#63b8ff" points="519.1,-339.89 521.35,-350.25 526.05,-340.75 519.1,-339.89"/>
</a>
</g>
</g>
<!-- Node18&#45;&gt;Node15 -->
<g id="edge30_Node000018_Node000015" class="edge">
<title>Node18&#45;&gt;Node15</title>
<g id="a_edge30_Node000018_Node000015"><a xlink:title=" ">
<path fill="none" stroke="#63b8ff" d="M490.03,-296.62C461.28,-286.78 414.7,-270.84 382.11,-259.69"/>
<polygon fill="#63b8ff" stroke="#63b8ff" points="383.24,-256.38 372.65,-256.46 380.98,-263.01 383.24,-256.38"/>
</a>
</g>
</g>
<!-- Node18&#45;&gt;Node16 -->
<g id="edge25_Node000018_Node000016" class="edge">
<title>Node18&#45;&gt;Node16</title>
<g id="a_edge25_Node000018_Node000016"><a xlink:title=" ">
<path fill="none" stroke="#63b8ff" d="M507.62,-296.71C500.02,-288.24 489.1,-274.71 483,-261 475.21,-243.48 471.43,-221.85 469.62,-206.41"/>
<polygon fill="#63b8ff" stroke="#63b8ff" points="473.12,-206.25 468.66,-196.64 466.15,-206.93 473.12,-206.25"/>
</a>
</g>
</g>
<!-- Node18&#45;&gt;Node17 -->
<g id="edge24_Node000018_Node000017" class="edge">
<title>Node18&#45;&gt;Node17</title>
<g id="a_edge24_Node000018_Node000017"><a xlink:title=" ">
<path fill="none" stroke="#63b8ff" d="M502.7,-296.56C472.57,-276.3 398.84,-226.73 361.48,-201.62"/>
<polygon fill="#63b8ff" stroke="#63b8ff" points="363.48,-198.74 353.23,-196.07 359.58,-204.55 363.48,-198.74"/>
</a>
</g>
</g>
<!-- Node18&#45;&gt;Node19 -->
<g id="edge26_Node000018_Node000019" class="edge">
<title>Node18&#45;&gt;Node19</title>
<g id="a_edge26_Node000018_Node000019"><a xlink:title=" ">
<path fill="none" stroke="#63b8ff" d="M518.8,-296.86C523.93,-282.07 535.98,-251.5 554,-231 564.54,-219 578.99,-208.69 591.59,-201.02"/>
<polygon fill="#63b8ff" stroke="#63b8ff" points="592.99,-204.26 599.88,-196.22 589.47,-198.21 592.99,-204.26"/>
</a>
</g>
</g>
<!-- Node18&#45;&gt;Node20 -->
<g id="edge34_Node000018_Node000020" class="edge">
<title>Node18&#45;&gt;Node20</title>
<g id="a_edge34_Node000018_Node000020"><a xlink:title=" ">
<path fill="none" stroke="#63b8ff" d="M567.45,-304.01C602.35,-300.25 647.06,-289.6 675,-261 703.96,-231.35 708.57,-180.02 708.72,-151.71"/>
<polygon fill="#63b8ff" stroke="#63b8ff" points="712.22,-151.93 708.56,-141.99 705.22,-152.05 712.22,-151.93"/>
</a>
</g>
</g>
<!-- Node22 -->
<g id="Node000022" class="node">
<title>Node22</title>
<g id="a_Node000022"><a xlink:href="exif-mnote-data_8h.html" target="_top" xlink:title="Handling EXIF MakerNote tags.">
<polygon fill="white" stroke="#666666" points="666.5,-261 563.5,-261 563.5,-231 666.5,-231 666.5,-261"/>
<text text-anchor="start" x="571.5" y="-249" font-family="Helvetica,sans-Serif" font-size="10.00">libexif/exif&#45;mnote</text>
<text text-anchor="middle" x="615" y="-238" font-family="Helvetica,sans-Serif" font-size="10.00">&#45;data.h</text>
</a>
</g>
</g>
<!-- Node18&#45;&gt;Node22 -->
<g id="edge32_Node000018_Node000022" class="edge">
<title>Node18&#45;&gt;Node22</title>
<g id="a_edge32_Node000018_Node000022"><a xlink:title=" ">
<path fill="none" stroke="#63b8ff" d="M531.04,-296.62C544.24,-288.81 563.94,-277.17 580.94,-267.13"/>
<polygon fill="#63b8ff" stroke="#63b8ff" points="582.43,-270.31 589.26,-262.21 578.87,-264.28 582.43,-270.31"/>
</a>
</g>
</g>
<!-- Node19&#45;&gt;Node20 -->
<g id="edge27_Node000019_Node000020" class="edge">
<title>Node19&#45;&gt;Node20</title>
<g id="a_edge27_Node000019_Node000020"><a xlink:title=" ">
<path fill="none" stroke="#63b8ff" d="M634.1,-175.51C647.6,-167.47 667.65,-155.53 683.46,-146.11"/>
<polygon fill="#63b8ff" stroke="#63b8ff" points="685.02,-149.26 691.82,-141.13 681.44,-143.24 685.02,-149.26"/>
</a>
</g>
</g>
<!-- Node21 -->
<g id="Node000021" class="node">
<title>Node21</title>
<g id="a_Node000021"><a xlink:title=" ">
<polygon fill="#e0e0e0" stroke="#999999" points="637,-140 581,-140 581,-121 637,-121 637,-140"/>
<text text-anchor="middle" x="609" y="-128" font-family="Helvetica,sans-Serif" font-size="10.00">stdarg.h</text>
</a>
</g>
</g>
<!-- Node19&#45;&gt;Node21 -->
<g id="edge29_Node000019_Node000021" class="edge">
<title>Node19&#45;&gt;Node21</title>
<g id="a_edge29_Node000019_Node000021"><a xlink:title=" ">
<path fill="none" stroke="#63b8ff" d="M617.35,-175.75C616.11,-169.19 614.37,-159.95 612.79,-151.6"/>
<polygon fill="#63b8ff" stroke="#63b8ff" points="616.26,-151.11 610.97,-141.93 609.38,-152.4 616.26,-151.11"/>
</a>
</g>
</g>
<!-- Node20&#45;&gt;Node11 -->
<g id="edge28_Node000020_Node000011" class="edge">
<title>Node20&#45;&gt;Node11</title>
<g id="a_edge28_Node000020_Node000011"><a xlink:title=" ">
<path fill="none" stroke="#63b8ff" d="M705.19,-120.75C703.06,-114.11 700.06,-104.73 697.36,-96.31"/>
<polygon fill="#63b8ff" stroke="#63b8ff" points="700.72,-95.34 694.33,-86.88 694.05,-97.47 700.72,-95.34"/>
</a>
</g>
</g>
<!-- Node22&#45;&gt;Node19 -->
<g id="edge33_Node000022_Node000019" class="edge">
<title>Node22&#45;&gt;Node19</title>
<g id="a_edge33_Node000022_Node000019"><a xlink:title=" ">
<path fill="none" stroke="#63b8ff" d="M615.99,-230.54C616.49,-223.26 617.1,-214.31 617.64,-206.39"/>
<polygon fill="#63b8ff" stroke="#63b8ff" points="621.11,-206.9 618.3,-196.69 614.13,-206.42 621.11,-206.9"/>
</a>
</g>
</g>
</g>
</svg>
