<?xml version="1.0" encoding="UTF-8" standalone="no"?>
<!DOCTYPE svg PUBLIC "-//W3C//DTD SVG 1.1//EN"
 "http://www.w3.org/Graphics/SVG/1.1/DTD/svg11.dtd">
<!-- Generated by graphviz version 7.0.1 (0)
 -->
<!-- Title: mnote_olympus_entry_get_value Pages: 1 -->
<svg width="533pt" height="187pt"
 viewBox="0.00 0.00 533.00 187.33" xmlns="http://www.w3.org/2000/svg" xmlns:xlink="http://www.w3.org/1999/xlink">
<g id="graph0" class="graph" transform="scale(1 1) rotate(0) translate(4 183.33)">
<title>mnote_olympus_entry_get_value</title>
<!-- Node1 -->
<g id="Node000001" class="node">
<title>Node1</title>
<g id="a_Node000001"><a xlink:title=" ">
<polygon fill="#999999" stroke="#666666" points="126,-109.5 0,-109.5 0,-79.5 126,-79.5 126,-109.5"/>
<text text-anchor="start" x="8" y="-97.5" font-family="Helvetica,sans-Serif" font-size="10.00">mnote_olympus_entry</text>
<text text-anchor="middle" x="63" y="-86.5" font-family="Helvetica,sans-Serif" font-size="10.00">_get_value</text>
</a>
</g>
</g>
<!-- Node2 -->
<g id="Node000002" class="node">
<title>Node2</title>
<g id="a_Node000002"><a xlink:href="exif-utils_8c.html#a4ad94614630897766dd0a5c9bc2a59bf" target="_top" xlink:title="Retrieve an ExifLong value from memory.">
<polygon fill="white" stroke="#666666" points="390.5,-161 307.5,-161 307.5,-142 390.5,-142 390.5,-161"/>
<text text-anchor="middle" x="349" y="-149" font-family="Helvetica,sans-Serif" font-size="10.00">exif_get_long</text>
</a>
</g>
</g>
<!-- Node1&#45;&gt;Node2 -->
<g id="edge1_Node000001_Node000002" class="edge">
<title>Node1&#45;&gt;Node2</title>
<g id="a_edge1_Node000001_Node000002"><a xlink:title=" ">
<path fill="none" stroke="#63b8ff" d="M77.41,-109.8C94.77,-128.32 126.96,-158.51 162,-170.5 211.05,-187.29 271.31,-175.73 309.69,-164.66"/>
<polygon fill="#63b8ff" stroke="#63b8ff" points="310.37,-168.11 318.93,-161.87 308.35,-161.41 310.37,-168.11"/>
</a>
</g>
</g>
<!-- Node3 -->
<g id="Node000003" class="node">
<title>Node3</title>
<g id="a_Node000003"><a xlink:href="exif-utils_8c.html#a56b96f076a13da6ed926e1ef29cb2dc3" target="_top" xlink:title="Retrieve an ExifSLong value from memory.">
<polygon fill="white" stroke="#666666" points="525,-123 437,-123 437,-104 525,-104 525,-123"/>
<text text-anchor="middle" x="481" y="-111" font-family="Helvetica,sans-Serif" font-size="10.00">exif_get_slong</text>
</a>
</g>
</g>
<!-- Node1&#45;&gt;Node3 -->
<g id="edge7_Node000001_Node000003" class="edge">
<title>Node1&#45;&gt;Node3</title>
<g id="a_edge7_Node000001_Node000003"><a xlink:title=" ">
<path fill="none" stroke="#63b8ff" d="M126.28,-97.34C207.45,-101.05 348.12,-107.48 425.35,-111"/>
<polygon fill="#63b8ff" stroke="#63b8ff" points="425.06,-114.49 435.21,-111.45 425.38,-107.5 425.06,-114.49"/>
</a>
</g>
</g>
<!-- Node4 -->
<g id="Node000004" class="node">
<title>Node4</title>
<g id="a_Node000004"><a xlink:href="exif-utils_8c.html#a1feb547c289aa57a4d2119338b03706c" target="_top" xlink:title="Retrieve an ExifRational value from memory.">
<polygon fill="white" stroke="#666666" points="261,-161 162,-161 162,-142 261,-142 261,-161"/>
<text text-anchor="middle" x="211.5" y="-149" font-family="Helvetica,sans-Serif" font-size="10.00">exif_get_rational</text>
</a>
</g>
</g>
<!-- Node1&#45;&gt;Node4 -->
<g id="edge3_Node000001_Node000004" class="edge">
<title>Node1&#45;&gt;Node4</title>
<g id="a_edge3_Node000001_Node000004"><a xlink:title=" ">
<path fill="none" stroke="#63b8ff" d="M103.65,-109.93C125.73,-118.52 153.01,-129.13 174.48,-137.49"/>
<polygon fill="#63b8ff" stroke="#63b8ff" points="173.12,-140.71 183.71,-141.08 175.66,-134.19 173.12,-140.71"/>
</a>
</g>
</g>
<!-- Node5 -->
<g id="Node000005" class="node">
<title>Node5</title>
<g id="a_Node000005"><a xlink:href="exif-utils_8c.html#a4b4acf537a8c6b9405e7b53be868e4d7" target="_top" xlink:title="Retrieve an ExifShort value from memory.">
<polygon fill="white" stroke="#666666" points="254.5,-85 168.5,-85 168.5,-66 254.5,-66 254.5,-85"/>
<text text-anchor="middle" x="211.5" y="-73" font-family="Helvetica,sans-Serif" font-size="10.00">exif_get_short</text>
</a>
</g>
</g>
<!-- Node1&#45;&gt;Node5 -->
<g id="edge5_Node000001_Node000005" class="edge">
<title>Node1&#45;&gt;Node5</title>
<g id="a_edge5_Node000001_Node000005"><a xlink:title=" ">
<path fill="none" stroke="#63b8ff" d="M126.13,-86.44C136.44,-85.1 147.05,-83.73 157.13,-82.42"/>
<polygon fill="#63b8ff" stroke="#63b8ff" points="157.25,-85.94 166.72,-81.18 156.35,-78.99 157.25,-85.94"/>
</a>
</g>
</g>
<!-- Node6 -->
<g id="Node000006" class="node">
<title>Node6</title>
<g id="a_Node000006"><a xlink:href="exif-utils_8c.html#a6baf094a71392f9cea23ad633ec13c8b" target="_top" xlink:title="Retrieve an ExifSShort value from memory.">
<polygon fill="white" stroke="#666666" points="395,-75 303,-75 303,-56 395,-56 395,-75"/>
<text text-anchor="middle" x="349" y="-63" font-family="Helvetica,sans-Serif" font-size="10.00">exif_get_sshort</text>
</a>
</g>
</g>
<!-- Node1&#45;&gt;Node6 -->
<g id="edge10_Node000001_Node000006" class="edge">
<title>Node1&#45;&gt;Node6</title>
<g id="a_edge10_Node000001_Node000006"><a xlink:title=" ">
<path fill="none" stroke="#63b8ff" d="M95.82,-79.13C114.6,-70.93 139.1,-61.68 162,-57.5 204.94,-49.66 254.33,-52.32 291.42,-56.58"/>
<polygon fill="#63b8ff" stroke="#63b8ff" points="290.66,-60.01 301.01,-57.76 291.51,-53.07 290.66,-60.01"/>
</a>
</g>
</g>
<!-- Node7 -->
<g id="Node000007" class="node">
<title>Node7</title>
<g id="a_Node000007"><a xlink:href="exif-utils_8c.html#adb97c3499488d5642a82df1cb16dc2cb" target="_top" xlink:title="Retrieve an ExifSRational value from memory.">
<polygon fill="white" stroke="#666666" points="401,-19 297,-19 297,0 401,0 401,-19"/>
<text text-anchor="middle" x="349" y="-7" font-family="Helvetica,sans-Serif" font-size="10.00">exif_get_srational</text>
</a>
</g>
</g>
<!-- Node1&#45;&gt;Node7 -->
<g id="edge8_Node000001_Node000007" class="edge">
<title>Node1&#45;&gt;Node7</title>
<g id="a_edge8_Node000001_Node000007"><a xlink:title=" ">
<path fill="none" stroke="#63b8ff" d="M91.54,-79.04C110.77,-68.81 137.32,-55.8 162,-47.5 202.2,-33.98 248.99,-24.45 285.58,-18.32"/>
<polygon fill="#63b8ff" stroke="#63b8ff" points="285.79,-21.83 295.09,-16.77 284.66,-14.92 285.79,-21.83"/>
</a>
</g>
</g>
<!-- Node2&#45;&gt;Node3 -->
<g id="edge2_Node000002_Node000003" class="edge">
<title>Node2&#45;&gt;Node3</title>
<g id="a_edge2_Node000002_Node000003"><a xlink:title=" ">
<path fill="none" stroke="#63b8ff" d="M384.16,-141.52C399.83,-136.93 418.62,-131.44 435.39,-126.54"/>
<polygon fill="#63b8ff" stroke="#63b8ff" points="436,-130.01 444.62,-123.84 434.04,-123.29 436,-130.01"/>
</a>
</g>
</g>
<!-- Node4&#45;&gt;Node2 -->
<g id="edge4_Node000004_Node000002" class="edge">
<title>Node4&#45;&gt;Node2</title>
<g id="a_edge4_Node000004_Node000002"><a xlink:title=" ">
<path fill="none" stroke="#63b8ff" d="M261.42,-151.5C272.56,-151.5 284.44,-151.5 295.71,-151.5"/>
<polygon fill="#63b8ff" stroke="#63b8ff" points="295.67,-155 305.67,-151.5 295.67,-148 295.67,-155"/>
</a>
</g>
</g>
<!-- Node5&#45;&gt;Node6 -->
<g id="edge6_Node000005_Node000006" class="edge">
<title>Node5&#45;&gt;Node6</title>
<g id="a_edge6_Node000005_Node000006"><a xlink:title=" ">
<path fill="none" stroke="#63b8ff" d="M254.63,-72.39C266.29,-71.53 279.13,-70.58 291.47,-69.67"/>
<polygon fill="#63b8ff" stroke="#63b8ff" points="291.38,-73.19 301.09,-68.96 290.86,-66.21 291.38,-73.19"/>
</a>
</g>
</g>
<!-- Node7&#45;&gt;Node3 -->
<g id="edge9_Node000007_Node000003" class="edge">
<title>Node7&#45;&gt;Node3</title>
<g id="a_edge9_Node000007_Node000003"><a xlink:title=" ">
<path fill="none" stroke="#63b8ff" d="M363.58,-19.3C373.94,-26.86 388.52,-37.65 401,-47.5 421.52,-63.7 444.39,-82.94 460.22,-96.45"/>
<polygon fill="#63b8ff" stroke="#63b8ff" points="457.63,-98.84 467.5,-102.69 462.19,-93.53 457.63,-98.84"/>
</a>
</g>
</g>
</g>
</svg>
