<?xml version="1.0" encoding="UTF-8" standalone="no"?>
<!DOCTYPE svg PUBLIC "-//W3C//DTD SVG 1.1//EN"
 "http://www.w3.org/Graphics/SVG/1.1/DTD/svg11.dtd">
<!-- Generated by graphviz version 2.44.1 (0)
 -->
<!-- Title: libexif/fuji/mnote&#45;fuji&#45;tag.c Pages: 1 -->
<svg width="620pt" height="442pt"
 viewBox="0.00 0.00 620.00 442.00" xmlns="http://www.w3.org/2000/svg" xmlns:xlink="http://www.w3.org/1999/xlink">
<g id="graph0" class="graph" transform="scale(1 1) rotate(0) translate(4 438)">
<title>libexif/fuji/mnote&#45;fuji&#45;tag.c</title>
<polygon fill="white" stroke="transparent" points="-4,4 -4,-438 616,-438 616,4 -4,4"/>
<!-- Node1 -->
<g id="node1" class="node">
<title>Node1</title>
<g id="a_node1"><a xlink:title=" ">
<polygon fill="#bfbfbf" stroke="black" points="139,-403.5 139,-433.5 240,-433.5 240,-403.5 139,-403.5"/>
<text text-anchor="start" x="147" y="-421.5" font-family="Helvetica,sans-Serif" font-size="10.00">libexif/fuji/mnote</text>
<text text-anchor="middle" x="189.5" y="-410.5" font-family="Helvetica,sans-Serif" font-size="10.00">&#45;fuji&#45;tag.c</text>
</a>
</g>
</g>
<!-- Node2 -->
<g id="node2" class="node">
<title>Node2</title>
<g id="a_node2"><a xlink:title=" ">
<polygon fill="white" stroke="#bfbfbf" points="74,-347.5 74,-366.5 127,-366.5 127,-347.5 74,-347.5"/>
<text text-anchor="middle" x="100.5" y="-354.5" font-family="Helvetica,sans-Serif" font-size="10.00">stdlib.h</text>
</a>
</g>
</g>
<!-- Node1&#45;&gt;Node2 -->
<g id="edge1" class="edge">
<title>Node1&#45;&gt;Node2</title>
<path fill="none" stroke="midnightblue" d="M168.41,-403.4C154.41,-394.04 136.09,-381.79 122.01,-372.38"/>
<polygon fill="midnightblue" stroke="midnightblue" points="123.71,-369.31 113.45,-366.66 119.82,-375.13 123.71,-369.31"/>
</g>
<!-- Node3 -->
<g id="node3" class="node">
<title>Node3</title>
<g id="a_node3"><a xlink:title=" ">
<polygon fill="white" stroke="#bfbfbf" points="161.5,-291.5 161.5,-310.5 217.5,-310.5 217.5,-291.5 161.5,-291.5"/>
<text text-anchor="middle" x="189.5" y="-298.5" font-family="Helvetica,sans-Serif" font-size="10.00">config.h</text>
</a>
</g>
</g>
<!-- Node1&#45;&gt;Node3 -->
<g id="edge2" class="edge">
<title>Node1&#45;&gt;Node3</title>
<path fill="none" stroke="midnightblue" d="M183.3,-403.26C177.87,-389.08 171.31,-366.64 174.5,-347 175.97,-337.96 178.99,-328.28 181.94,-320.22"/>
<polygon fill="midnightblue" stroke="midnightblue" points="185.26,-321.34 185.64,-310.75 178.74,-318.79 185.26,-321.34"/>
</g>
<!-- Node4 -->
<g id="node4" class="node">
<title>Node4</title>
<g id="a_node4"><a xlink:href="i18n_8h.html" target="_top" xlink:title=" ">
<polygon fill="white" stroke="black" points="183.5,-347.5 183.5,-366.5 263.5,-366.5 263.5,-347.5 183.5,-347.5"/>
<text text-anchor="middle" x="223.5" y="-354.5" font-family="Helvetica,sans-Serif" font-size="10.00">libexif/i18n.h</text>
</a>
</g>
</g>
<!-- Node1&#45;&gt;Node4 -->
<g id="edge3" class="edge">
<title>Node1&#45;&gt;Node4</title>
<path fill="none" stroke="midnightblue" d="M197.56,-403.4C202.35,-395.02 208.46,-384.33 213.54,-375.42"/>
<polygon fill="midnightblue" stroke="midnightblue" points="216.63,-377.08 218.55,-366.66 210.55,-373.6 216.63,-377.08"/>
</g>
<!-- Node5 -->
<g id="node5" class="node">
<title>Node5</title>
<g id="a_node5"><a xlink:href="mnote-fuji-tag_8h.html" target="_top" xlink:title=" ">
<polygon fill="white" stroke="black" points="281.5,-347.5 281.5,-366.5 377.5,-366.5 377.5,-347.5 281.5,-347.5"/>
<text text-anchor="middle" x="329.5" y="-354.5" font-family="Helvetica,sans-Serif" font-size="10.00">mnote&#45;fuji&#45;tag.h</text>
</a>
</g>
</g>
<!-- Node1&#45;&gt;Node5 -->
<g id="edge5" class="edge">
<title>Node1&#45;&gt;Node5</title>
<path fill="none" stroke="midnightblue" d="M222.68,-403.4C246.06,-393.46 277.11,-380.26 299.71,-370.66"/>
<polygon fill="midnightblue" stroke="midnightblue" points="301.29,-373.79 309.13,-366.66 298.56,-367.35 301.29,-373.79"/>
</g>
<!-- Node4&#45;&gt;Node3 -->
<g id="edge4" class="edge">
<title>Node4&#45;&gt;Node3</title>
<path fill="none" stroke="midnightblue" d="M217.89,-347.08C213.13,-339.53 206.18,-328.49 200.35,-319.23"/>
<polygon fill="midnightblue" stroke="midnightblue" points="203.3,-317.35 195.01,-310.75 197.38,-321.08 203.3,-317.35"/>
</g>
<!-- Node6 -->
<g id="node6" class="node">
<title>Node6</title>
<g id="a_node6"><a xlink:href="exif-data_8h.html" target="_top" xlink:title="Defines the ExifData type and the associated functions.">
<polygon fill="white" stroke="black" points="278.5,-291.5 278.5,-310.5 380.5,-310.5 380.5,-291.5 278.5,-291.5"/>
<text text-anchor="middle" x="329.5" y="-298.5" font-family="Helvetica,sans-Serif" font-size="10.00">libexif/exif&#45;data.h</text>
</a>
</g>
</g>
<!-- Node5&#45;&gt;Node6 -->
<g id="edge6" class="edge">
<title>Node5&#45;&gt;Node6</title>
<path fill="none" stroke="midnightblue" d="M329.5,-347.08C329.5,-340.01 329.5,-329.86 329.5,-320.99"/>
<polygon fill="midnightblue" stroke="midnightblue" points="333,-320.75 329.5,-310.75 326,-320.75 333,-320.75"/>
</g>
<!-- Node7 -->
<g id="node7" class="node">
<title>Node7</title>
<g id="a_node7"><a xlink:href="exif-byte-order_8h.html" target="_top" xlink:title="Defines the ExifByteOrder enum and the associated functions.">
<polygon fill="white" stroke="black" points="0,-0.5 0,-19.5 131,-19.5 131,-0.5 0,-0.5"/>
<text text-anchor="middle" x="65.5" y="-7.5" font-family="Helvetica,sans-Serif" font-size="10.00">libexif/exif&#45;byte&#45;order.h</text>
</a>
</g>
</g>
<!-- Node6&#45;&gt;Node7 -->
<g id="edge7" class="edge">
<title>Node6&#45;&gt;Node7</title>
<path fill="none" stroke="midnightblue" d="M278.39,-294.38C205.59,-285.93 79.05,-269.4 63.5,-255 37.95,-231.35 44.5,-213.82 44.5,-179 44.5,-179 44.5,-179 44.5,-121 44.5,-88.38 53.52,-51.28 59.73,-29.57"/>
<polygon fill="midnightblue" stroke="midnightblue" points="63.17,-30.32 62.67,-19.73 56.46,-28.32 63.17,-30.32"/>
</g>
<!-- Node8 -->
<g id="node8" class="node">
<title>Node8</title>
<g id="a_node8"><a xlink:href="exif-data-type_8h.html" target="_top" xlink:title=" ">
<polygon fill="white" stroke="black" points="369.5,-112.5 369.5,-131.5 497.5,-131.5 497.5,-112.5 369.5,-112.5"/>
<text text-anchor="middle" x="433.5" y="-119.5" font-family="Helvetica,sans-Serif" font-size="10.00">libexif/exif&#45;data&#45;type.h</text>
</a>
</g>
</g>
<!-- Node6&#45;&gt;Node8 -->
<g id="edge8" class="edge">
<title>Node6&#45;&gt;Node8</title>
<path fill="none" stroke="midnightblue" d="M349.34,-291.4C364.4,-283.88 384.51,-271.57 396.5,-255 421.65,-220.24 429.72,-168.99 432.3,-141.7"/>
<polygon fill="midnightblue" stroke="midnightblue" points="435.8,-141.84 433.11,-131.59 428.83,-141.29 435.8,-141.84"/>
</g>
<!-- Node9 -->
<g id="node9" class="node">
<title>Node9</title>
<g id="a_node9"><a xlink:href="exif-ifd_8h.html" target="_top" xlink:title=" ">
<polygon fill="white" stroke="black" points="519,-112.5 519,-131.5 612,-131.5 612,-112.5 519,-112.5"/>
<text text-anchor="middle" x="565.5" y="-119.5" font-family="Helvetica,sans-Serif" font-size="10.00">libexif/exif&#45;ifd.h</text>
</a>
</g>
</g>
<!-- Node6&#45;&gt;Node9 -->
<g id="edge9" class="edge">
<title>Node6&#45;&gt;Node9</title>
<path fill="none" stroke="midnightblue" d="M372.35,-291.5C424.03,-278.76 509.01,-249.34 549.5,-188 558.6,-174.21 562.53,-155.69 564.22,-141.94"/>
<polygon fill="midnightblue" stroke="midnightblue" points="567.73,-142.01 565.18,-131.73 560.76,-141.36 567.73,-142.01"/>
</g>
<!-- Node10 -->
<g id="node10" class="node">
<title>Node10</title>
<g id="a_node10"><a xlink:href="exif-log_8h.html" target="_top" xlink:title="Log message infrastructure.">
<polygon fill="white" stroke="black" points="95,-168.5 95,-187.5 190,-187.5 190,-168.5 95,-168.5"/>
<text text-anchor="middle" x="142.5" y="-175.5" font-family="Helvetica,sans-Serif" font-size="10.00">libexif/exif&#45;log.h</text>
</a>
</g>
</g>
<!-- Node6&#45;&gt;Node10 -->
<g id="edge10" class="edge">
<title>Node6&#45;&gt;Node10</title>
<path fill="none" stroke="midnightblue" d="M304.77,-291.41C283.64,-283.52 252.88,-270.68 228.5,-255 201.42,-237.59 174.27,-211.88 157.92,-195.29"/>
<polygon fill="midnightblue" stroke="midnightblue" points="160.28,-192.7 150.81,-187.95 155.26,-197.57 160.28,-192.7"/>
</g>
<!-- Node11 -->
<g id="node11" class="node">
<title>Node11</title>
<g id="a_node11"><a xlink:href="exif-mem_8h.html" target="_top" xlink:title="Define the ExifMem data type and the associated functions.">
<polygon fill="white" stroke="black" points="177.5,-112.5 177.5,-131.5 283.5,-131.5 283.5,-112.5 177.5,-112.5"/>
<text text-anchor="middle" x="230.5" y="-119.5" font-family="Helvetica,sans-Serif" font-size="10.00">libexif/exif&#45;mem.h</text>
</a>
</g>
</g>
<!-- Node6&#45;&gt;Node11 -->
<g id="edge31" class="edge">
<title>Node6&#45;&gt;Node11</title>
<path fill="none" stroke="midnightblue" d="M308.85,-291.46C293.49,-284.04 273.23,-271.84 261.5,-255 237.25,-220.18 231.78,-168.96 230.67,-141.69"/>
<polygon fill="midnightblue" stroke="midnightblue" points="234.16,-141.5 230.41,-131.59 227.16,-141.67 234.16,-141.5"/>
</g>
<!-- Node16 -->
<g id="node16" class="node">
<title>Node16</title>
<g id="a_node16"><a xlink:href="exif-tag_8h.html" target="_top" xlink:title="Handling EXIF tags.">
<polygon fill="white" stroke="black" points="444.5,-168.5 444.5,-187.5 540.5,-187.5 540.5,-168.5 444.5,-168.5"/>
<text text-anchor="middle" x="492.5" y="-175.5" font-family="Helvetica,sans-Serif" font-size="10.00">libexif/exif&#45;tag.h</text>
</a>
</g>
</g>
<!-- Node6&#45;&gt;Node16 -->
<g id="edge17" class="edge">
<title>Node6&#45;&gt;Node16</title>
<path fill="none" stroke="midnightblue" d="M357.53,-291.49C378.92,-284.1 408.39,-271.91 430.5,-255 451.98,-238.57 470.68,-213.27 481.77,-196.44"/>
<polygon fill="midnightblue" stroke="midnightblue" points="484.96,-197.94 487.39,-187.63 479.06,-194.18 484.96,-197.94"/>
</g>
<!-- Node17 -->
<g id="node17" class="node">
<title>Node17</title>
<g id="a_node17"><a xlink:href="exif-content_8h.html" target="_top" xlink:title="Handling EXIF IFDs.">
<polygon fill="white" stroke="black" points="271,-230 271,-249 388,-249 388,-230 271,-230"/>
<text text-anchor="middle" x="329.5" y="-237" font-family="Helvetica,sans-Serif" font-size="10.00">libexif/exif&#45;content.h</text>
</a>
</g>
</g>
<!-- Node6&#45;&gt;Node17 -->
<g id="edge20" class="edge">
<title>Node6&#45;&gt;Node17</title>
<path fill="none" stroke="midnightblue" d="M324.6,-291.48C322.77,-283.08 322.3,-269.98 323.19,-259.16"/>
<polygon fill="midnightblue" stroke="midnightblue" points="326.69,-259.4 324.6,-249.01 319.75,-258.43 326.69,-259.4"/>
</g>
<!-- Node19 -->
<g id="node19" class="node">
<title>Node19</title>
<g id="a_node19"><a xlink:href="exif-mnote-data_8h.html" target="_top" xlink:title="Handling EXIF MakerNote tags.">
<polygon fill="white" stroke="black" points="73,-224.5 73,-254.5 176,-254.5 176,-224.5 73,-224.5"/>
<text text-anchor="start" x="81" y="-242.5" font-family="Helvetica,sans-Serif" font-size="10.00">libexif/exif&#45;mnote</text>
<text text-anchor="middle" x="124.5" y="-231.5" font-family="Helvetica,sans-Serif" font-size="10.00">&#45;data.h</text>
</a>
</g>
</g>
<!-- Node6&#45;&gt;Node19 -->
<g id="edge29" class="edge">
<title>Node6&#45;&gt;Node19</title>
<path fill="none" stroke="midnightblue" d="M300.13,-291.48C269.64,-282.63 221.14,-268.55 182.82,-257.43"/>
<polygon fill="midnightblue" stroke="midnightblue" points="183.39,-253.95 172.81,-254.52 181.44,-260.67 183.39,-253.95"/>
</g>
<!-- Node10&#45;&gt;Node11 -->
<g id="edge11" class="edge">
<title>Node10&#45;&gt;Node11</title>
<path fill="none" stroke="midnightblue" d="M156.64,-168.32C170.37,-159.9 191.44,-146.97 207.56,-137.07"/>
<polygon fill="midnightblue" stroke="midnightblue" points="209.7,-139.87 216.4,-131.65 206.04,-133.9 209.7,-139.87"/>
</g>
<!-- Node15 -->
<g id="node15" class="node">
<title>Node15</title>
<g id="a_node15"><a xlink:title=" ">
<polygon fill="white" stroke="#bfbfbf" points="103.5,-112.5 103.5,-131.5 159.5,-131.5 159.5,-112.5 103.5,-112.5"/>
<text text-anchor="middle" x="131.5" y="-119.5" font-family="Helvetica,sans-Serif" font-size="10.00">stdarg.h</text>
</a>
</g>
</g>
<!-- Node10&#45;&gt;Node15 -->
<g id="edge16" class="edge">
<title>Node10&#45;&gt;Node15</title>
<path fill="none" stroke="midnightblue" d="M140.68,-168.08C139.23,-160.93 137.13,-150.64 135.31,-141.69"/>
<polygon fill="midnightblue" stroke="midnightblue" points="138.71,-140.85 133.28,-131.75 131.85,-142.25 138.71,-140.85"/>
</g>
<!-- Node12 -->
<g id="node12" class="node">
<title>Node12</title>
<g id="a_node12"><a xlink:href="exif-utils_8h.html" target="_top" xlink:title="EXIF data manipulation functions and types.">
<polygon fill="white" stroke="black" points="172,-56.5 172,-75.5 273,-75.5 273,-56.5 172,-56.5"/>
<text text-anchor="middle" x="222.5" y="-63.5" font-family="Helvetica,sans-Serif" font-size="10.00">libexif/exif&#45;utils.h</text>
</a>
</g>
</g>
<!-- Node11&#45;&gt;Node12 -->
<g id="edge12" class="edge">
<title>Node11&#45;&gt;Node12</title>
<path fill="none" stroke="midnightblue" d="M229.18,-112.08C228.12,-104.93 226.59,-94.64 225.27,-85.69"/>
<polygon fill="midnightblue" stroke="midnightblue" points="228.72,-85.13 223.8,-75.75 221.8,-86.16 228.72,-85.13"/>
</g>
<!-- Node12&#45;&gt;Node7 -->
<g id="edge13" class="edge">
<title>Node12&#45;&gt;Node7</title>
<path fill="none" stroke="midnightblue" d="M197.62,-56.44C171.21,-47.36 129.28,-32.94 99.76,-22.78"/>
<polygon fill="midnightblue" stroke="midnightblue" points="100.86,-19.46 90.26,-19.52 98.58,-26.08 100.86,-19.46"/>
</g>
<!-- Node13 -->
<g id="node13" class="node">
<title>Node13</title>
<g id="a_node13"><a xlink:href="exif-format_8h.html" target="_top" xlink:title="Handling native EXIF data types.">
<polygon fill="white" stroke="black" points="280,-0.5 280,-19.5 393,-19.5 393,-0.5 280,-0.5"/>
<text text-anchor="middle" x="336.5" y="-7.5" font-family="Helvetica,sans-Serif" font-size="10.00">libexif/exif&#45;format.h</text>
</a>
</g>
</g>
<!-- Node12&#45;&gt;Node13 -->
<g id="edge14" class="edge">
<title>Node12&#45;&gt;Node13</title>
<path fill="none" stroke="midnightblue" d="M240.56,-56.44C259.07,-47.68 288.08,-33.94 309.36,-23.86"/>
<polygon fill="midnightblue" stroke="midnightblue" points="310.98,-26.96 318.52,-19.52 307.99,-20.63 310.98,-26.96"/>
</g>
<!-- Node14 -->
<g id="node14" class="node">
<title>Node14</title>
<g id="a_node14"><a xlink:title=" ">
<polygon fill="white" stroke="#bfbfbf" points="169.5,-0.5 169.5,-19.5 261.5,-19.5 261.5,-0.5 169.5,-0.5"/>
<text text-anchor="middle" x="215.5" y="-7.5" font-family="Helvetica,sans-Serif" font-size="10.00">libexif/_stdint.h</text>
</a>
</g>
</g>
<!-- Node12&#45;&gt;Node14 -->
<g id="edge15" class="edge">
<title>Node12&#45;&gt;Node14</title>
<path fill="none" stroke="midnightblue" d="M221.34,-56.08C220.42,-48.93 219.08,-38.64 217.92,-29.69"/>
<polygon fill="midnightblue" stroke="midnightblue" points="221.39,-29.22 216.63,-19.75 214.45,-30.12 221.39,-29.22"/>
</g>
<!-- Node16&#45;&gt;Node8 -->
<g id="edge19" class="edge">
<title>Node16&#45;&gt;Node8</title>
<path fill="none" stroke="midnightblue" d="M483.02,-168.32C474.3,-160.34 461.16,-148.31 450.6,-138.65"/>
<polygon fill="midnightblue" stroke="midnightblue" points="452.89,-136 443.15,-131.83 448.17,-141.17 452.89,-136"/>
</g>
<!-- Node16&#45;&gt;Node9 -->
<g id="edge18" class="edge">
<title>Node16&#45;&gt;Node9</title>
<path fill="none" stroke="midnightblue" d="M504.23,-168.32C515.34,-160.11 532.24,-147.6 545.48,-137.81"/>
<polygon fill="midnightblue" stroke="midnightblue" points="547.6,-140.59 553.56,-131.83 543.44,-134.97 547.6,-140.59"/>
</g>
<!-- Node17&#45;&gt;Node6 -->
<g id="edge26" class="edge">
<title>Node17&#45;&gt;Node6</title>
<path fill="none" stroke="midnightblue" d="M334.4,-249.01C336.23,-257.4 336.7,-270.5 335.82,-281.32"/>
<polygon fill="midnightblue" stroke="midnightblue" points="332.31,-281.09 334.4,-291.48 339.25,-282.05 332.31,-281.09"/>
</g>
<!-- Node17&#45;&gt;Node10 -->
<g id="edge27" class="edge">
<title>Node17&#45;&gt;Node10</title>
<path fill="none" stroke="midnightblue" d="M302.71,-229.98C270.21,-219.64 215.29,-202.16 178.96,-190.6"/>
<polygon fill="midnightblue" stroke="midnightblue" points="179.83,-187.21 169.24,-187.51 177.71,-193.88 179.83,-187.21"/>
</g>
<!-- Node17&#45;&gt;Node11 -->
<g id="edge28" class="edge">
<title>Node17&#45;&gt;Node11</title>
<path fill="none" stroke="midnightblue" d="M318.92,-229.79C307.55,-220.18 289.26,-203.93 275.5,-188 262.51,-172.95 249.81,-154.12 241.24,-140.61"/>
<polygon fill="midnightblue" stroke="midnightblue" points="244.03,-138.48 235.77,-131.84 238.09,-142.18 244.03,-138.48"/>
</g>
<!-- Node17&#45;&gt;Node16 -->
<g id="edge21" class="edge">
<title>Node17&#45;&gt;Node16</title>
<path fill="none" stroke="midnightblue" d="M352.85,-229.98C380.81,-219.77 427.83,-202.61 459.49,-191.05"/>
<polygon fill="midnightblue" stroke="midnightblue" points="461,-194.23 469.19,-187.51 458.6,-187.65 461,-194.23"/>
</g>
<!-- Node18 -->
<g id="node18" class="node">
<title>Node18</title>
<g id="a_node18"><a xlink:href="exif-entry_8h.html" target="_top" xlink:title="Handling EXIF entries.">
<polygon fill="white" stroke="black" points="284.5,-168.5 284.5,-187.5 388.5,-187.5 388.5,-168.5 284.5,-168.5"/>
<text text-anchor="middle" x="336.5" y="-175.5" font-family="Helvetica,sans-Serif" font-size="10.00">libexif/exif&#45;entry.h</text>
</a>
</g>
</g>
<!-- Node17&#45;&gt;Node18 -->
<g id="edge22" class="edge">
<title>Node17&#45;&gt;Node18</title>
<path fill="none" stroke="midnightblue" d="M325.6,-229.98C324.75,-221.49 325.85,-208.2 328.06,-197.32"/>
<polygon fill="midnightblue" stroke="midnightblue" points="331.48,-198.07 330.6,-187.51 324.7,-196.31 331.48,-198.07"/>
</g>
<!-- Node18&#45;&gt;Node11 -->
<g id="edge25" class="edge">
<title>Node18&#45;&gt;Node11</title>
<path fill="none" stroke="midnightblue" d="M319.47,-168.32C302.47,-159.66 276.12,-146.24 256.51,-136.25"/>
<polygon fill="midnightblue" stroke="midnightblue" points="257.99,-133.08 247.49,-131.65 254.81,-139.31 257.99,-133.08"/>
</g>
<!-- Node18&#45;&gt;Node13 -->
<g id="edge24" class="edge">
<title>Node18&#45;&gt;Node13</title>
<path fill="none" stroke="midnightblue" d="M336.5,-168.08C336.5,-141.95 336.5,-65.21 336.5,-29.58"/>
<polygon fill="midnightblue" stroke="midnightblue" points="340,-29.57 336.5,-19.57 333,-29.57 340,-29.57"/>
</g>
<!-- Node18&#45;&gt;Node17 -->
<g id="edge23" class="edge">
<title>Node18&#45;&gt;Node17</title>
<path fill="none" stroke="midnightblue" d="M340.4,-187.51C341.25,-195.99 340.15,-209.27 337.95,-220.16"/>
<polygon fill="midnightblue" stroke="midnightblue" points="334.52,-219.42 335.4,-229.98 341.3,-221.17 334.52,-219.42"/>
</g>
<!-- Node19&#45;&gt;Node10 -->
<g id="edge30" class="edge">
<title>Node19&#45;&gt;Node10</title>
<path fill="none" stroke="midnightblue" d="M128.77,-224.4C131.22,-216.29 134.33,-206.01 136.97,-197.28"/>
<polygon fill="midnightblue" stroke="midnightblue" points="140.34,-198.24 139.88,-187.66 133.64,-196.22 140.34,-198.24"/>
</g>
</g>
</svg>
