<?xml version="1.0" encoding="UTF-8" standalone="no"?>
<!DOCTYPE svg PUBLIC "-//W3C//DTD SVG 1.1//EN"
 "http://www.w3.org/Graphics/SVG/1.1/DTD/svg11.dtd">
<!-- Generated by graphviz version 2.44.1 (0)
 -->
<!-- Title: libexif/apple/mnote&#45;apple&#45;tag.c Pages: 1 -->
<svg width="480pt" height="151pt"
 viewBox="0.00 0.00 480.00 151.00" xmlns="http://www.w3.org/2000/svg" xmlns:xlink="http://www.w3.org/1999/xlink">
<g id="graph0" class="graph" transform="scale(1 1) rotate(0) translate(4 147)">
<title>libexif/apple/mnote&#45;apple&#45;tag.c</title>
<polygon fill="white" stroke="transparent" points="-4,4 -4,-147 476,-147 476,4 -4,4"/>
<!-- Node1 -->
<g id="node1" class="node">
<title>Node1</title>
<g id="a_node1"><a xlink:title=" ">
<polygon fill="#bfbfbf" stroke="black" points="140,-112.5 140,-142.5 252,-142.5 252,-112.5 140,-112.5"/>
<text text-anchor="start" x="148" y="-130.5" font-family="Helvetica,sans-Serif" font-size="10.00">libexif/apple/mnote</text>
<text text-anchor="middle" x="196" y="-119.5" font-family="Helvetica,sans-Serif" font-size="10.00">&#45;apple&#45;tag.c</text>
</a>
</g>
</g>
<!-- Node2 -->
<g id="node2" class="node">
<title>Node2</title>
<g id="a_node2"><a xlink:title=" ">
<polygon fill="white" stroke="#bfbfbf" points="0,-0.5 0,-19.5 56,-19.5 56,-0.5 0,-0.5"/>
<text text-anchor="middle" x="28" y="-7.5" font-family="Helvetica,sans-Serif" font-size="10.00">config.h</text>
</a>
</g>
</g>
<!-- Node1&#45;&gt;Node2 -->
<g id="edge1" class="edge">
<title>Node1&#45;&gt;Node2</title>
<path fill="none" stroke="midnightblue" d="M139.97,-117.78C94.43,-109.41 35.45,-95.21 21,-76 11,-62.7 14.75,-43.31 19.78,-29.17"/>
<polygon fill="midnightblue" stroke="midnightblue" points="23.16,-30.15 23.67,-19.57 16.67,-27.53 23.16,-30.15"/>
</g>
<!-- Node3 -->
<g id="node3" class="node">
<title>Node3</title>
<g id="a_node3"><a xlink:href="mnote-apple-tag_8h.html" target="_top" xlink:title=" ">
<polygon fill="white" stroke="black" points="30.5,-56.5 30.5,-75.5 137.5,-75.5 137.5,-56.5 30.5,-56.5"/>
<text text-anchor="middle" x="84" y="-63.5" font-family="Helvetica,sans-Serif" font-size="10.00">mnote&#45;apple&#45;tag.h</text>
</a>
</g>
</g>
<!-- Node1&#45;&gt;Node3 -->
<g id="edge2" class="edge">
<title>Node1&#45;&gt;Node3</title>
<path fill="none" stroke="midnightblue" d="M169.46,-112.4C151.34,-102.77 127.46,-90.09 109.56,-80.58"/>
<polygon fill="midnightblue" stroke="midnightblue" points="110.77,-77.26 100.3,-75.66 107.49,-83.44 110.77,-77.26"/>
</g>
<!-- Node4 -->
<g id="node4" class="node">
<title>Node4</title>
<g id="a_node4"><a xlink:href="i18n_8h.html" target="_top" xlink:title=" ">
<polygon fill="white" stroke="black" points="156,-56.5 156,-75.5 236,-75.5 236,-56.5 156,-56.5"/>
<text text-anchor="middle" x="196" y="-63.5" font-family="Helvetica,sans-Serif" font-size="10.00">libexif/i18n.h</text>
</a>
</g>
</g>
<!-- Node1&#45;&gt;Node4 -->
<g id="edge3" class="edge">
<title>Node1&#45;&gt;Node4</title>
<path fill="none" stroke="midnightblue" d="M196,-112.4C196,-104.47 196,-94.46 196,-85.86"/>
<polygon fill="midnightblue" stroke="midnightblue" points="199.5,-85.66 196,-75.66 192.5,-85.66 199.5,-85.66"/>
</g>
<!-- Node5 -->
<g id="node5" class="node">
<title>Node5</title>
<g id="a_node5"><a xlink:href="exif-utils_8h.html" target="_top" xlink:title="EXIF data manipulation functions and types.">
<polygon fill="white" stroke="black" points="254.5,-56.5 254.5,-75.5 355.5,-75.5 355.5,-56.5 254.5,-56.5"/>
<text text-anchor="middle" x="305" y="-63.5" font-family="Helvetica,sans-Serif" font-size="10.00">libexif/exif&#45;utils.h</text>
</a>
</g>
</g>
<!-- Node1&#45;&gt;Node5 -->
<g id="edge5" class="edge">
<title>Node1&#45;&gt;Node5</title>
<path fill="none" stroke="midnightblue" d="M221.83,-112.4C239.47,-102.77 262.7,-90.09 280.13,-80.58"/>
<polygon fill="midnightblue" stroke="midnightblue" points="282.04,-83.52 289.14,-75.66 278.69,-77.38 282.04,-83.52"/>
</g>
<!-- Node9 -->
<g id="node9" class="node">
<title>Node9</title>
<g id="a_node9"><a xlink:title=" ">
<polygon fill="white" stroke="#bfbfbf" points="373.5,-56.5 373.5,-75.5 426.5,-75.5 426.5,-56.5 373.5,-56.5"/>
<text text-anchor="middle" x="400" y="-63.5" font-family="Helvetica,sans-Serif" font-size="10.00">stdlib.h</text>
</a>
</g>
</g>
<!-- Node1&#45;&gt;Node9 -->
<g id="edge9" class="edge">
<title>Node1&#45;&gt;Node9</title>
<path fill="none" stroke="midnightblue" d="M244.09,-112.47C280.7,-101.8 330.33,-87.32 363.67,-77.6"/>
<polygon fill="midnightblue" stroke="midnightblue" points="364.84,-80.9 373.46,-74.74 362.88,-74.18 364.84,-80.9"/>
</g>
<!-- Node4&#45;&gt;Node2 -->
<g id="edge4" class="edge">
<title>Node4&#45;&gt;Node2</title>
<path fill="none" stroke="midnightblue" d="M169.38,-56.44C140.99,-47.32 95.86,-32.81 64.25,-22.65"/>
<polygon fill="midnightblue" stroke="midnightblue" points="65.09,-19.24 54.5,-19.52 62.94,-25.91 65.09,-19.24"/>
</g>
<!-- Node6 -->
<g id="node6" class="node">
<title>Node6</title>
<g id="a_node6"><a xlink:href="exif-byte-order_8h.html" target="_top" xlink:title="Defines the ExifByteOrder enum and the associated functions.">
<polygon fill="white" stroke="black" points="99.5,-0.5 99.5,-19.5 230.5,-19.5 230.5,-0.5 99.5,-0.5"/>
<text text-anchor="middle" x="165" y="-7.5" font-family="Helvetica,sans-Serif" font-size="10.00">libexif/exif&#45;byte&#45;order.h</text>
</a>
</g>
</g>
<!-- Node5&#45;&gt;Node6 -->
<g id="edge6" class="edge">
<title>Node5&#45;&gt;Node6</title>
<path fill="none" stroke="midnightblue" d="M282.82,-56.44C259.57,-47.48 222.85,-33.31 196.58,-23.18"/>
<polygon fill="midnightblue" stroke="midnightblue" points="197.67,-19.85 187.08,-19.52 195.15,-26.38 197.67,-19.85"/>
</g>
<!-- Node7 -->
<g id="node7" class="node">
<title>Node7</title>
<g id="a_node7"><a xlink:href="exif-format_8h.html" target="_top" xlink:title="Handling native EXIF data types.">
<polygon fill="white" stroke="black" points="248.5,-0.5 248.5,-19.5 361.5,-19.5 361.5,-0.5 248.5,-0.5"/>
<text text-anchor="middle" x="305" y="-7.5" font-family="Helvetica,sans-Serif" font-size="10.00">libexif/exif&#45;format.h</text>
</a>
</g>
</g>
<!-- Node5&#45;&gt;Node7 -->
<g id="edge7" class="edge">
<title>Node5&#45;&gt;Node7</title>
<path fill="none" stroke="midnightblue" d="M305,-56.08C305,-49.01 305,-38.86 305,-29.99"/>
<polygon fill="midnightblue" stroke="midnightblue" points="308.5,-29.75 305,-19.75 301.5,-29.75 308.5,-29.75"/>
</g>
<!-- Node8 -->
<g id="node8" class="node">
<title>Node8</title>
<g id="a_node8"><a xlink:title=" ">
<polygon fill="white" stroke="#bfbfbf" points="380,-0.5 380,-19.5 472,-19.5 472,-0.5 380,-0.5"/>
<text text-anchor="middle" x="426" y="-7.5" font-family="Helvetica,sans-Serif" font-size="10.00">libexif/_stdint.h</text>
</a>
</g>
</g>
<!-- Node5&#45;&gt;Node8 -->
<g id="edge8" class="edge">
<title>Node5&#45;&gt;Node8</title>
<path fill="none" stroke="midnightblue" d="M324.17,-56.44C343.91,-47.64 374.89,-33.81 397.49,-23.72"/>
<polygon fill="midnightblue" stroke="midnightblue" points="399.21,-26.79 406.92,-19.52 396.36,-20.4 399.21,-26.79"/>
</g>
</g>
</svg>
