<?xml version="1.0" encoding="UTF-8" standalone="no"?>
<!DOCTYPE svg PUBLIC "-//W3C//DTD SVG 1.1//EN"
 "http://www.w3.org/Graphics/SVG/1.1/DTD/svg11.dtd">
<!-- Generated by graphviz version 2.44.1 (0)
 -->
<!-- Title: libexif/fuji/mnote&#45;fuji&#45;entry.h Pages: 1 -->
<svg width="701pt" height="464pt"
 viewBox="0.00 0.00 701.00 464.00" xmlns="http://www.w3.org/2000/svg" xmlns:xlink="http://www.w3.org/1999/xlink">
<g id="graph0" class="graph" transform="scale(1 1) rotate(0) translate(4 460)">
<title>libexif/fuji/mnote&#45;fuji&#45;entry.h</title>
<polygon fill="white" stroke="transparent" points="-4,4 -4,-460 697,-460 697,4 -4,4"/>
<!-- Node1 -->
<g id="node1" class="node">
<title>Node1</title>
<g id="a_node1"><a xlink:title=" ">
<polygon fill="#bfbfbf" stroke="black" points="354.5,-425.5 354.5,-455.5 455.5,-455.5 455.5,-425.5 354.5,-425.5"/>
<text text-anchor="start" x="362.5" y="-443.5" font-family="Helvetica,sans-Serif" font-size="10.00">libexif/fuji/mnote</text>
<text text-anchor="middle" x="405" y="-432.5" font-family="Helvetica,sans-Serif" font-size="10.00">&#45;fuji&#45;entry.h</text>
</a>
</g>
</g>
<!-- Node2 -->
<g id="node2" class="node">
<title>Node2</title>
<g id="a_node2"><a xlink:href="exif-format_8h.html" target="_top" xlink:title="Handling native EXIF data types.">
<polygon fill="white" stroke="black" points="199.5,-0.5 199.5,-19.5 312.5,-19.5 312.5,-0.5 199.5,-0.5"/>
<text text-anchor="middle" x="256" y="-7.5" font-family="Helvetica,sans-Serif" font-size="10.00">libexif/exif&#45;format.h</text>
</a>
</g>
</g>
<!-- Node1&#45;&gt;Node2 -->
<g id="edge1" class="edge">
<title>Node1&#45;&gt;Node2</title>
<path fill="none" stroke="midnightblue" d="M354.12,-433.78C245.34,-420.13 0,-381.18 0,-307.5 0,-307.5 0,-307.5 0,-121 0,-38.76 112.9,-17.24 188.74,-12.06"/>
<polygon fill="midnightblue" stroke="midnightblue" points="189.41,-15.53 199.19,-11.43 188.99,-8.54 189.41,-15.53"/>
</g>
<!-- Node3 -->
<g id="node3" class="node">
<title>Node3</title>
<g id="a_node3"><a xlink:href="mnote-fuji-tag_8h.html" target="_top" xlink:title=" ">
<polygon fill="white" stroke="black" points="289.5,-358.5 289.5,-388.5 390.5,-388.5 390.5,-358.5 289.5,-358.5"/>
<text text-anchor="start" x="297.5" y="-376.5" font-family="Helvetica,sans-Serif" font-size="10.00">libexif/fuji/mnote</text>
<text text-anchor="middle" x="340" y="-365.5" font-family="Helvetica,sans-Serif" font-size="10.00">&#45;fuji&#45;tag.h</text>
</a>
</g>
</g>
<!-- Node1&#45;&gt;Node3 -->
<g id="edge2" class="edge">
<title>Node1&#45;&gt;Node3</title>
<path fill="none" stroke="midnightblue" d="M390.9,-425.4C382.21,-416.71 370.9,-405.4 361.16,-395.66"/>
<polygon fill="midnightblue" stroke="midnightblue" points="363.62,-393.17 354.08,-388.58 358.67,-398.12 363.62,-393.17"/>
</g>
<!-- Node17 -->
<g id="node17" class="node">
<title>Node17</title>
<g id="a_node17"><a xlink:href="exif-mnote-data-fuji_8h.html" target="_top" xlink:title=" ">
<polygon fill="white" stroke="black" points="409,-358.5 409,-388.5 531,-388.5 531,-358.5 409,-358.5"/>
<text text-anchor="start" x="417" y="-376.5" font-family="Helvetica,sans-Serif" font-size="10.00">libexif/fuji/exif&#45;mnote</text>
<text text-anchor="middle" x="470" y="-365.5" font-family="Helvetica,sans-Serif" font-size="10.00">&#45;data&#45;fuji.h</text>
</a>
</g>
</g>
<!-- Node1&#45;&gt;Node17 -->
<g id="edge29" class="edge">
<title>Node1&#45;&gt;Node17</title>
<path fill="none" stroke="midnightblue" d="M413.43,-425.4C421.05,-416.62 432.26,-405.18 442.78,-395.37"/>
<polygon fill="midnightblue" stroke="midnightblue" points="445.21,-397.89 450.25,-388.58 440.5,-392.72 445.21,-397.89"/>
</g>
<!-- Node4 -->
<g id="node4" class="node">
<title>Node4</title>
<g id="a_node4"><a xlink:href="exif-data_8h.html" target="_top" xlink:title="Defines the ExifData type and the associated functions.">
<polygon fill="white" stroke="black" points="289,-297 289,-316 391,-316 391,-297 289,-297"/>
<text text-anchor="middle" x="340" y="-304" font-family="Helvetica,sans-Serif" font-size="10.00">libexif/exif&#45;data.h</text>
</a>
</g>
</g>
<!-- Node3&#45;&gt;Node4 -->
<g id="edge3" class="edge">
<title>Node3&#45;&gt;Node4</title>
<path fill="none" stroke="midnightblue" d="M340,-358.4C340,-349.06 340,-336.71 340,-326.52"/>
<polygon fill="midnightblue" stroke="midnightblue" points="343.5,-326.19 340,-316.19 336.5,-326.19 343.5,-326.19"/>
</g>
<!-- Node5 -->
<g id="node5" class="node">
<title>Node5</title>
<g id="a_node5"><a xlink:href="exif-byte-order_8h.html" target="_top" xlink:title="Defines the ExifByteOrder enum and the associated functions.">
<polygon fill="white" stroke="black" points="441.5,-0.5 441.5,-19.5 572.5,-19.5 572.5,-0.5 441.5,-0.5"/>
<text text-anchor="middle" x="507" y="-7.5" font-family="Helvetica,sans-Serif" font-size="10.00">libexif/exif&#45;byte&#45;order.h</text>
</a>
</g>
</g>
<!-- Node4&#45;&gt;Node5 -->
<g id="edge4" class="edge">
<title>Node4&#45;&gt;Node5</title>
<path fill="none" stroke="midnightblue" d="M359.97,-296.85C377.25,-288.44 401.78,-274.14 417,-255 473.76,-183.63 496.97,-73.02 504.25,-29.49"/>
<polygon fill="midnightblue" stroke="midnightblue" points="507.72,-29.93 505.83,-19.51 500.81,-28.84 507.72,-29.93"/>
</g>
<!-- Node6 -->
<g id="node6" class="node">
<title>Node6</title>
<g id="a_node6"><a xlink:href="exif-data-type_8h.html" target="_top" xlink:title=" ">
<polygon fill="white" stroke="black" points="28,-112.5 28,-131.5 156,-131.5 156,-112.5 28,-112.5"/>
<text text-anchor="middle" x="92" y="-119.5" font-family="Helvetica,sans-Serif" font-size="10.00">libexif/exif&#45;data&#45;type.h</text>
</a>
</g>
</g>
<!-- Node4&#45;&gt;Node6 -->
<g id="edge5" class="edge">
<title>Node4&#45;&gt;Node6</title>
<path fill="none" stroke="midnightblue" d="M296.07,-296.95C261.35,-289.09 212.35,-275.51 173,-255 130.35,-232.76 108.99,-231.28 88,-188 80.98,-173.54 83,-155.09 86.17,-141.54"/>
<polygon fill="midnightblue" stroke="midnightblue" points="89.65,-142.08 88.94,-131.51 82.9,-140.22 89.65,-142.08"/>
</g>
<!-- Node7 -->
<g id="node7" class="node">
<title>Node7</title>
<g id="a_node7"><a xlink:href="exif-ifd_8h.html" target="_top" xlink:title=" ">
<polygon fill="white" stroke="black" points="174.5,-112.5 174.5,-131.5 267.5,-131.5 267.5,-112.5 174.5,-112.5"/>
<text text-anchor="middle" x="221" y="-119.5" font-family="Helvetica,sans-Serif" font-size="10.00">libexif/exif&#45;ifd.h</text>
</a>
</g>
</g>
<!-- Node4&#45;&gt;Node7 -->
<g id="edge6" class="edge">
<title>Node4&#45;&gt;Node7</title>
<path fill="none" stroke="midnightblue" d="M320.58,-296.99C303.49,-288.58 279.04,-274.21 264,-255 237.22,-220.79 226.84,-169.31 223.03,-141.85"/>
<polygon fill="midnightblue" stroke="midnightblue" points="226.48,-141.16 221.78,-131.66 219.53,-142.02 226.48,-141.16"/>
</g>
<!-- Node8 -->
<g id="node8" class="node">
<title>Node8</title>
<g id="a_node8"><a xlink:href="exif-log_8h.html" target="_top" xlink:title="Log message infrastructure.">
<polygon fill="white" stroke="black" points="485.5,-168.5 485.5,-187.5 580.5,-187.5 580.5,-168.5 485.5,-168.5"/>
<text text-anchor="middle" x="533" y="-175.5" font-family="Helvetica,sans-Serif" font-size="10.00">libexif/exif&#45;log.h</text>
</a>
</g>
</g>
<!-- Node4&#45;&gt;Node8 -->
<g id="edge7" class="edge">
<title>Node4&#45;&gt;Node8</title>
<path fill="none" stroke="midnightblue" d="M376.39,-296.95C404.16,-289.19 442.38,-275.74 471,-255 492.9,-239.13 511.49,-213.7 522.45,-196.68"/>
<polygon fill="midnightblue" stroke="midnightblue" points="525.68,-198.1 527.99,-187.76 519.73,-194.41 525.68,-198.1"/>
</g>
<!-- Node9 -->
<g id="node9" class="node">
<title>Node9</title>
<g id="a_node9"><a xlink:href="exif-mem_8h.html" target="_top" xlink:title="Define the ExifMem data type and the associated functions.">
<polygon fill="white" stroke="black" points="324,-112.5 324,-131.5 430,-131.5 430,-112.5 324,-112.5"/>
<text text-anchor="middle" x="377" y="-119.5" font-family="Helvetica,sans-Serif" font-size="10.00">libexif/exif&#45;mem.h</text>
</a>
</g>
</g>
<!-- Node4&#45;&gt;Node9 -->
<g id="edge28" class="edge">
<title>Node4&#45;&gt;Node9</title>
<path fill="none" stroke="midnightblue" d="M356.22,-296.99C370.48,-288.49 390.26,-273.98 399,-255 416.5,-216.99 398.49,-167.13 386.27,-140.91"/>
<polygon fill="midnightblue" stroke="midnightblue" points="389.35,-139.24 381.81,-131.8 383.06,-142.32 389.35,-139.24"/>
</g>
<!-- Node13 -->
<g id="node13" class="node">
<title>Node13</title>
<g id="a_node13"><a xlink:href="exif-tag_8h.html" target="_top" xlink:title="Handling EXIF tags.">
<polygon fill="white" stroke="black" points="97,-168.5 97,-187.5 193,-187.5 193,-168.5 97,-168.5"/>
<text text-anchor="middle" x="145" y="-175.5" font-family="Helvetica,sans-Serif" font-size="10.00">libexif/exif&#45;tag.h</text>
</a>
</g>
</g>
<!-- Node4&#45;&gt;Node13 -->
<g id="edge14" class="edge">
<title>Node4&#45;&gt;Node13</title>
<path fill="none" stroke="midnightblue" d="M302.76,-296.98C274.59,-289.27 235.95,-275.87 207,-255 185.06,-239.18 166.48,-213.74 155.53,-196.7"/>
<polygon fill="midnightblue" stroke="midnightblue" points="158.25,-194.43 150.01,-187.78 152.3,-198.12 158.25,-194.43"/>
</g>
<!-- Node14 -->
<g id="node14" class="node">
<title>Node14</title>
<g id="a_node14"><a xlink:href="exif-content_8h.html" target="_top" xlink:title="Handling EXIF IFDs.">
<polygon fill="white" stroke="black" points="273.5,-230 273.5,-249 390.5,-249 390.5,-230 273.5,-230"/>
<text text-anchor="middle" x="332" y="-237" font-family="Helvetica,sans-Serif" font-size="10.00">libexif/exif&#45;content.h</text>
</a>
</g>
</g>
<!-- Node4&#45;&gt;Node14 -->
<g id="edge17" class="edge">
<title>Node4&#45;&gt;Node14</title>
<path fill="none" stroke="midnightblue" d="M334.13,-296.73C330.95,-287.18 328.57,-271.62 328.13,-259.28"/>
<polygon fill="midnightblue" stroke="midnightblue" points="331.63,-259.19 328.3,-249.13 324.63,-259.07 331.63,-259.19"/>
</g>
<!-- Node16 -->
<g id="node16" class="node">
<title>Node16</title>
<g id="a_node16"><a xlink:href="exif-mnote-data_8h.html" target="_top" xlink:title="Handling EXIF MakerNote tags.">
<polygon fill="white" stroke="black" points="523.5,-224.5 523.5,-254.5 626.5,-254.5 626.5,-224.5 523.5,-224.5"/>
<text text-anchor="start" x="531.5" y="-242.5" font-family="Helvetica,sans-Serif" font-size="10.00">libexif/exif&#45;mnote</text>
<text text-anchor="middle" x="575" y="-231.5" font-family="Helvetica,sans-Serif" font-size="10.00">&#45;data.h</text>
</a>
</g>
</g>
<!-- Node4&#45;&gt;Node16 -->
<g id="edge26" class="edge">
<title>Node4&#45;&gt;Node16</title>
<path fill="none" stroke="midnightblue" d="M371.21,-296.87C407.61,-286.8 468.66,-269.91 514.46,-257.24"/>
<polygon fill="midnightblue" stroke="midnightblue" points="515.58,-260.57 524.28,-254.53 513.71,-253.82 515.58,-260.57"/>
</g>
<!-- Node8&#45;&gt;Node9 -->
<g id="edge8" class="edge">
<title>Node8&#45;&gt;Node9</title>
<path fill="none" stroke="midnightblue" d="M508.28,-168.44C482.15,-159.4 440.74,-145.06 411.42,-134.92"/>
<polygon fill="midnightblue" stroke="midnightblue" points="412.2,-131.48 401.6,-131.52 409.91,-138.1 412.2,-131.48"/>
</g>
<!-- Node12 -->
<g id="node12" class="node">
<title>Node12</title>
<g id="a_node12"><a xlink:title=" ">
<polygon fill="white" stroke="#bfbfbf" points="505,-112.5 505,-131.5 561,-131.5 561,-112.5 505,-112.5"/>
<text text-anchor="middle" x="533" y="-119.5" font-family="Helvetica,sans-Serif" font-size="10.00">stdarg.h</text>
</a>
</g>
</g>
<!-- Node8&#45;&gt;Node12 -->
<g id="edge13" class="edge">
<title>Node8&#45;&gt;Node12</title>
<path fill="none" stroke="midnightblue" d="M533,-168.08C533,-161.01 533,-150.86 533,-141.99"/>
<polygon fill="midnightblue" stroke="midnightblue" points="536.5,-141.75 533,-131.75 529.5,-141.75 536.5,-141.75"/>
</g>
<!-- Node10 -->
<g id="node10" class="node">
<title>Node10</title>
<g id="a_node10"><a xlink:href="exif-utils_8h.html" target="_top" xlink:title="EXIF data manipulation functions and types.">
<polygon fill="white" stroke="black" points="326.5,-56.5 326.5,-75.5 427.5,-75.5 427.5,-56.5 326.5,-56.5"/>
<text text-anchor="middle" x="377" y="-63.5" font-family="Helvetica,sans-Serif" font-size="10.00">libexif/exif&#45;utils.h</text>
</a>
</g>
</g>
<!-- Node9&#45;&gt;Node10 -->
<g id="edge9" class="edge">
<title>Node9&#45;&gt;Node10</title>
<path fill="none" stroke="midnightblue" d="M377,-112.08C377,-105.01 377,-94.86 377,-85.99"/>
<polygon fill="midnightblue" stroke="midnightblue" points="380.5,-85.75 377,-75.75 373.5,-85.75 380.5,-85.75"/>
</g>
<!-- Node10&#45;&gt;Node2 -->
<g id="edge11" class="edge">
<title>Node10&#45;&gt;Node2</title>
<path fill="none" stroke="midnightblue" d="M357.83,-56.44C338.09,-47.64 307.11,-33.81 284.51,-23.72"/>
<polygon fill="midnightblue" stroke="midnightblue" points="285.64,-20.4 275.08,-19.52 282.79,-26.79 285.64,-20.4"/>
</g>
<!-- Node10&#45;&gt;Node5 -->
<g id="edge10" class="edge">
<title>Node10&#45;&gt;Node5</title>
<path fill="none" stroke="midnightblue" d="M397.6,-56.44C418.99,-47.56 452.68,-33.56 477.02,-23.45"/>
<polygon fill="midnightblue" stroke="midnightblue" points="478.61,-26.58 486.5,-19.52 475.92,-20.12 478.61,-26.58"/>
</g>
<!-- Node11 -->
<g id="node11" class="node">
<title>Node11</title>
<g id="a_node11"><a xlink:title=" ">
<polygon fill="white" stroke="#bfbfbf" points="331,-0.5 331,-19.5 423,-19.5 423,-0.5 331,-0.5"/>
<text text-anchor="middle" x="377" y="-7.5" font-family="Helvetica,sans-Serif" font-size="10.00">libexif/_stdint.h</text>
</a>
</g>
</g>
<!-- Node10&#45;&gt;Node11 -->
<g id="edge12" class="edge">
<title>Node10&#45;&gt;Node11</title>
<path fill="none" stroke="midnightblue" d="M377,-56.08C377,-49.01 377,-38.86 377,-29.99"/>
<polygon fill="midnightblue" stroke="midnightblue" points="380.5,-29.75 377,-19.75 373.5,-29.75 380.5,-29.75"/>
</g>
<!-- Node13&#45;&gt;Node6 -->
<g id="edge16" class="edge">
<title>Node13&#45;&gt;Node6</title>
<path fill="none" stroke="midnightblue" d="M136.25,-168.08C128.53,-160.22 117.1,-148.57 107.78,-139.08"/>
<polygon fill="midnightblue" stroke="midnightblue" points="110.09,-136.44 100.59,-131.75 105.1,-141.34 110.09,-136.44"/>
</g>
<!-- Node13&#45;&gt;Node7 -->
<g id="edge15" class="edge">
<title>Node13&#45;&gt;Node7</title>
<path fill="none" stroke="midnightblue" d="M157.21,-168.32C168.78,-160.11 186.38,-147.6 200.16,-137.81"/>
<polygon fill="midnightblue" stroke="midnightblue" points="202.44,-140.48 208.57,-131.83 198.39,-134.77 202.44,-140.48"/>
</g>
<!-- Node14&#45;&gt;Node4 -->
<g id="edge23" class="edge">
<title>Node14&#45;&gt;Node4</title>
<path fill="none" stroke="midnightblue" d="M337.82,-249.13C341.01,-258.62 343.41,-274.17 343.87,-286.54"/>
<polygon fill="midnightblue" stroke="midnightblue" points="340.36,-286.68 343.71,-296.73 347.36,-286.79 340.36,-286.68"/>
</g>
<!-- Node14&#45;&gt;Node8 -->
<g id="edge24" class="edge">
<title>Node14&#45;&gt;Node8</title>
<path fill="none" stroke="midnightblue" d="M360.8,-229.98C395.87,-219.59 455.26,-202.01 494.31,-190.45"/>
<polygon fill="midnightblue" stroke="midnightblue" points="495.66,-193.7 504.26,-187.51 493.67,-186.99 495.66,-193.7"/>
</g>
<!-- Node14&#45;&gt;Node9 -->
<g id="edge25" class="edge">
<title>Node14&#45;&gt;Node9</title>
<path fill="none" stroke="midnightblue" d="M338.18,-229.99C344.96,-220.28 355.7,-203.71 362,-188 368,-173.04 371.91,-155.12 374.23,-141.9"/>
<polygon fill="midnightblue" stroke="midnightblue" points="377.74,-142.1 375.87,-131.67 370.83,-140.99 377.74,-142.1"/>
</g>
<!-- Node14&#45;&gt;Node13 -->
<g id="edge18" class="edge">
<title>Node14&#45;&gt;Node13</title>
<path fill="none" stroke="midnightblue" d="M305.21,-229.98C272.71,-219.64 217.79,-202.16 181.46,-190.6"/>
<polygon fill="midnightblue" stroke="midnightblue" points="182.33,-187.21 171.74,-187.51 180.21,-193.88 182.33,-187.21"/>
</g>
<!-- Node15 -->
<g id="node15" class="node">
<title>Node15</title>
<g id="a_node15"><a xlink:href="exif-entry_8h.html" target="_top" xlink:title="Handling EXIF entries.">
<polygon fill="white" stroke="black" points="249,-168.5 249,-187.5 353,-187.5 353,-168.5 249,-168.5"/>
<text text-anchor="middle" x="301" y="-175.5" font-family="Helvetica,sans-Serif" font-size="10.00">libexif/exif&#45;entry.h</text>
</a>
</g>
</g>
<!-- Node14&#45;&gt;Node15 -->
<g id="edge19" class="edge">
<title>Node14&#45;&gt;Node15</title>
<path fill="none" stroke="midnightblue" d="M322.66,-229.98C316.32,-221.4 308.85,-207.93 304.11,-196.98"/>
<polygon fill="midnightblue" stroke="midnightblue" points="307.34,-195.63 300.54,-187.51 300.79,-198.1 307.34,-195.63"/>
</g>
<!-- Node15&#45;&gt;Node2 -->
<g id="edge21" class="edge">
<title>Node15&#45;&gt;Node2</title>
<path fill="none" stroke="midnightblue" d="M298.58,-168.08C291.5,-141.95 270.7,-65.21 261.04,-29.58"/>
<polygon fill="midnightblue" stroke="midnightblue" points="264.32,-28.3 258.32,-19.57 257.56,-30.14 264.32,-28.3"/>
</g>
<!-- Node15&#45;&gt;Node9 -->
<g id="edge22" class="edge">
<title>Node15&#45;&gt;Node9</title>
<path fill="none" stroke="midnightblue" d="M313.21,-168.32C324.78,-160.11 342.38,-147.6 356.16,-137.81"/>
<polygon fill="midnightblue" stroke="midnightblue" points="358.44,-140.48 364.57,-131.83 354.39,-134.77 358.44,-140.48"/>
</g>
<!-- Node15&#45;&gt;Node14 -->
<g id="edge20" class="edge">
<title>Node15&#45;&gt;Node14</title>
<path fill="none" stroke="midnightblue" d="M310.33,-187.51C316.66,-196.07 324.14,-209.55 328.88,-220.5"/>
<polygon fill="midnightblue" stroke="midnightblue" points="325.65,-221.86 332.46,-229.98 332.2,-219.38 325.65,-221.86"/>
</g>
<!-- Node16&#45;&gt;Node8 -->
<g id="edge27" class="edge">
<title>Node16&#45;&gt;Node8</title>
<path fill="none" stroke="midnightblue" d="M565.05,-224.4C559.01,-215.84 551.26,-204.87 544.9,-195.86"/>
<polygon fill="midnightblue" stroke="midnightblue" points="547.74,-193.81 539.11,-187.66 542.02,-197.85 547.74,-193.81"/>
</g>
<!-- Node17&#45;&gt;Node1 -->
<g id="edge36" class="edge">
<title>Node17&#45;&gt;Node1</title>
<path fill="none" stroke="midnightblue" d="M461.6,-388.58C453.98,-397.34 442.77,-408.78 432.25,-418.6"/>
<polygon fill="midnightblue" stroke="midnightblue" points="429.82,-416.08 424.78,-425.4 434.53,-421.26 429.82,-416.08"/>
</g>
<!-- Node17&#45;&gt;Node4 -->
<g id="edge35" class="edge">
<title>Node17&#45;&gt;Node4</title>
<path fill="none" stroke="midnightblue" d="M441.79,-358.4C419.28,-347.14 388,-331.5 366.08,-320.54"/>
<polygon fill="midnightblue" stroke="midnightblue" points="367.52,-317.35 357.01,-316.01 364.39,-323.61 367.52,-317.35"/>
</g>
<!-- Node17&#45;&gt;Node16 -->
<g id="edge30" class="edge">
<title>Node17&#45;&gt;Node16</title>
<path fill="none" stroke="midnightblue" d="M481.24,-358.37C499.47,-335.45 535.65,-289.97 557.35,-262.69"/>
<polygon fill="midnightblue" stroke="midnightblue" points="560.36,-264.53 563.84,-254.52 554.88,-260.17 560.36,-264.53"/>
</g>
<!-- Node18 -->
<g id="node18" class="node">
<title>Node18</title>
<g id="a_node18"><a xlink:href="exif-mnote-data-priv_8h.html" target="_top" xlink:title=" ">
<polygon fill="white" stroke="black" points="563.5,-291.5 563.5,-321.5 666.5,-321.5 666.5,-291.5 563.5,-291.5"/>
<text text-anchor="start" x="571.5" y="-309.5" font-family="Helvetica,sans-Serif" font-size="10.00">libexif/exif&#45;mnote</text>
<text text-anchor="middle" x="615" y="-298.5" font-family="Helvetica,sans-Serif" font-size="10.00">&#45;data&#45;priv.h</text>
</a>
</g>
</g>
<!-- Node17&#45;&gt;Node18 -->
<g id="edge31" class="edge">
<title>Node17&#45;&gt;Node18</title>
<path fill="none" stroke="midnightblue" d="M501.46,-358.4C522.84,-348.81 551.31,-336.05 574.4,-325.7"/>
<polygon fill="midnightblue" stroke="midnightblue" points="575.91,-328.86 583.6,-321.58 573.04,-322.47 575.91,-328.86"/>
</g>
<!-- Node18&#45;&gt;Node5 -->
<g id="edge33" class="edge">
<title>Node18&#45;&gt;Node5</title>
<path fill="none" stroke="midnightblue" d="M631.16,-291.31C654.01,-269.6 693,-225.7 693,-179 693,-179 693,-179 693,-121 693,-62.99 625.14,-34.93 571.4,-21.8"/>
<polygon fill="midnightblue" stroke="midnightblue" points="572.08,-18.36 561.55,-19.52 570.5,-25.18 572.08,-18.36"/>
</g>
<!-- Node18&#45;&gt;Node8 -->
<g id="edge34" class="edge">
<title>Node18&#45;&gt;Node8</title>
<path fill="none" stroke="midnightblue" d="M624.65,-291.41C635.11,-274.22 648.6,-244.87 635,-224 624.52,-207.92 606.86,-197.55 589.15,-190.87"/>
<polygon fill="midnightblue" stroke="midnightblue" points="589.95,-187.45 579.36,-187.53 587.69,-194.07 589.95,-187.45"/>
</g>
<!-- Node18&#45;&gt;Node16 -->
<g id="edge32" class="edge">
<title>Node18&#45;&gt;Node16</title>
<path fill="none" stroke="midnightblue" d="M606.32,-291.4C601.24,-283.13 594.7,-272.51 588.91,-263.1"/>
<polygon fill="midnightblue" stroke="midnightblue" points="591.88,-261.26 583.66,-254.58 585.92,-264.93 591.88,-261.26"/>
</g>
</g>
</svg>
