<?xml version="1.0" encoding="UTF-8" standalone="no"?>
<!DOCTYPE svg PUBLIC "-//W3C//DTD SVG 1.1//EN"
 "http://www.w3.org/Graphics/SVG/1.1/DTD/svg11.dtd">
<!-- Generated by graphviz version 2.44.1 (0)
 -->
<!-- Title: libexif/apple/mnote&#45;apple&#45;tag.h Pages: 1 -->
<svg width="381pt" height="240pt"
 viewBox="0.00 0.00 381.00 240.00" xmlns="http://www.w3.org/2000/svg" xmlns:xlink="http://www.w3.org/1999/xlink">
<g id="graph0" class="graph" transform="scale(1 1) rotate(0) translate(4 236)">
<title>libexif/apple/mnote&#45;apple&#45;tag.h</title>
<polygon fill="white" stroke="transparent" points="-4,4 -4,-236 377,-236 377,4 -4,4"/>
<!-- Node1 -->
<g id="node1" class="node">
<title>Node1</title>
<g id="a_node1"><a xlink:title=" ">
<polygon fill="#bfbfbf" stroke="black" points="196,-201.5 196,-231.5 308,-231.5 308,-201.5 196,-201.5"/>
<text text-anchor="start" x="204" y="-219.5" font-family="Helvetica,sans-Serif" font-size="10.00">libexif/apple/mnote</text>
<text text-anchor="middle" x="252" y="-208.5" font-family="Helvetica,sans-Serif" font-size="10.00">&#45;apple&#45;tag.h</text>
</a>
</g>
</g>
<!-- Node2 -->
<g id="node2" class="node">
<title>Node2</title>
<g id="a_node2"><a xlink:href="mnote-apple-entry_8h.html" target="_top" xlink:title=" ">
<polygon fill="white" stroke="black" points="131,-134.5 131,-164.5 243,-164.5 243,-134.5 131,-134.5"/>
<text text-anchor="start" x="139" y="-152.5" font-family="Helvetica,sans-Serif" font-size="10.00">libexif/apple/mnote</text>
<text text-anchor="middle" x="187" y="-141.5" font-family="Helvetica,sans-Serif" font-size="10.00">&#45;apple&#45;entry.h</text>
</a>
</g>
</g>
<!-- Node1&#45;&gt;Node2 -->
<g id="edge1" class="edge">
<title>Node1&#45;&gt;Node2</title>
<path fill="none" stroke="midnightblue" d="M230.81,-194.31C221.06,-184.56 209.76,-173.26 201.08,-164.58"/>
<polygon fill="midnightblue" stroke="midnightblue" points="228.35,-196.8 237.9,-201.4 233.3,-191.85 228.35,-196.8"/>
</g>
<!-- Node7 -->
<g id="node7" class="node">
<title>Node7</title>
<g id="a_node7"><a xlink:href="mnote-apple-tag_8c.html" target="_top" xlink:title=" ">
<polygon fill="white" stroke="black" points="261,-134.5 261,-164.5 373,-164.5 373,-134.5 261,-134.5"/>
<text text-anchor="start" x="269" y="-152.5" font-family="Helvetica,sans-Serif" font-size="10.00">libexif/apple/mnote</text>
<text text-anchor="middle" x="317" y="-141.5" font-family="Helvetica,sans-Serif" font-size="10.00">&#45;apple&#45;tag.c</text>
</a>
</g>
</g>
<!-- Node1&#45;&gt;Node7 -->
<g id="edge6" class="edge">
<title>Node1&#45;&gt;Node7</title>
<path fill="none" stroke="midnightblue" d="M273.19,-194.31C282.94,-184.56 294.24,-173.26 302.92,-164.58"/>
<polygon fill="midnightblue" stroke="midnightblue" points="270.7,-191.85 266.1,-201.4 275.65,-196.8 270.7,-191.85"/>
</g>
<!-- Node3 -->
<g id="node3" class="node">
<title>Node3</title>
<g id="a_node3"><a xlink:href="exif-mnote-data-apple_8h.html" target="_top" xlink:title=" ">
<polygon fill="white" stroke="black" points="62.5,-67.5 62.5,-97.5 179.5,-97.5 179.5,-67.5 62.5,-67.5"/>
<text text-anchor="start" x="70.5" y="-85.5" font-family="Helvetica,sans-Serif" font-size="10.00">libexif/apple/exif</text>
<text text-anchor="middle" x="121" y="-74.5" font-family="Helvetica,sans-Serif" font-size="10.00">&#45;mnote&#45;data&#45;apple.h</text>
</a>
</g>
</g>
<!-- Node2&#45;&gt;Node3 -->
<g id="edge2" class="edge">
<title>Node2&#45;&gt;Node3</title>
<path fill="none" stroke="midnightblue" d="M165.49,-127.31C155.59,-117.56 144.11,-106.26 135.29,-97.58"/>
<polygon fill="midnightblue" stroke="midnightblue" points="163.1,-129.87 172.68,-134.4 168.01,-124.89 163.1,-129.87"/>
</g>
<!-- Node6 -->
<g id="node6" class="node">
<title>Node6</title>
<g id="a_node6"><a xlink:href="mnote-apple-entry_8c.html" target="_top" xlink:title=" ">
<polygon fill="white" stroke="black" points="198,-67.5 198,-97.5 310,-97.5 310,-67.5 198,-67.5"/>
<text text-anchor="start" x="206" y="-85.5" font-family="Helvetica,sans-Serif" font-size="10.00">libexif/apple/mnote</text>
<text text-anchor="middle" x="254" y="-74.5" font-family="Helvetica,sans-Serif" font-size="10.00">&#45;apple&#45;entry.c</text>
</a>
</g>
</g>
<!-- Node2&#45;&gt;Node6 -->
<g id="edge5" class="edge">
<title>Node2&#45;&gt;Node6</title>
<path fill="none" stroke="midnightblue" d="M208.84,-127.31C218.89,-117.56 230.54,-106.26 239.49,-97.58"/>
<polygon fill="midnightblue" stroke="midnightblue" points="206.28,-124.92 201.54,-134.4 211.15,-129.94 206.28,-124.92"/>
</g>
<!-- Node4 -->
<g id="node4" class="node">
<title>Node4</title>
<g id="a_node4"><a xlink:href="exif-mnote-data-apple_8c.html" target="_top" xlink:title=" ">
<polygon fill="white" stroke="black" points="0,-0.5 0,-30.5 116,-30.5 116,-0.5 0,-0.5"/>
<text text-anchor="start" x="8" y="-18.5" font-family="Helvetica,sans-Serif" font-size="10.00">libexif/apple/exif</text>
<text text-anchor="middle" x="58" y="-7.5" font-family="Helvetica,sans-Serif" font-size="10.00">&#45;mnote&#45;data&#45;apple.c</text>
</a>
</g>
</g>
<!-- Node3&#45;&gt;Node4 -->
<g id="edge3" class="edge">
<title>Node3&#45;&gt;Node4</title>
<path fill="none" stroke="midnightblue" d="M100.19,-60.02C90.8,-50.34 79.98,-39.17 71.64,-30.58"/>
<polygon fill="midnightblue" stroke="midnightblue" points="97.86,-62.65 107.33,-67.4 102.88,-57.78 97.86,-62.65"/>
</g>
<!-- Node5 -->
<g id="node5" class="node">
<title>Node5</title>
<g id="a_node5"><a xlink:href="exif-data_8c.html" target="_top" xlink:title=" ">
<polygon fill="white" stroke="black" points="134.5,-6 134.5,-25 235.5,-25 235.5,-6 134.5,-6"/>
<text text-anchor="middle" x="185" y="-13" font-family="Helvetica,sans-Serif" font-size="10.00">libexif/exif&#45;data.c</text>
</a>
</g>
</g>
<!-- Node3&#45;&gt;Node5 -->
<g id="edge4" class="edge">
<title>Node3&#45;&gt;Node5</title>
<path fill="none" stroke="midnightblue" d="M142.17,-60C153.85,-48.13 167.72,-34.05 176.44,-25.19"/>
<polygon fill="midnightblue" stroke="midnightblue" points="139.41,-57.81 134.89,-67.4 144.4,-62.73 139.41,-57.81"/>
</g>
</g>
</svg>
