<?xml version="1.0" encoding="UTF-8" standalone="no"?>
<!DOCTYPE svg PUBLIC "-//W3C//DTD SVG 1.1//EN"
 "http://www.w3.org/Graphics/SVG/1.1/DTD/svg11.dtd">
<!-- Generated by graphviz version 7.0.1 (0)
 -->
<!-- Title: libexif/pentax/mnote&#45;pentax&#45;tag.c Pages: 1 -->
<svg width="306pt" height="148pt"
 viewBox="0.00 0.00 306.27 148.00" xmlns="http://www.w3.org/2000/svg" xmlns:xlink="http://www.w3.org/1999/xlink">
<g id="graph0" class="graph" transform="scale(1 1) rotate(0) translate(4 144)">
<title>libexif/pentax/mnote&#45;pentax&#45;tag.c</title>
<!-- Node1 -->
<g id="Node000001" class="node">
<title>Node1</title>
<g id="a_Node000001"><a xlink:title=" ">
<polygon fill="#999999" stroke="#666666" points="181.77,-140 62.77,-140 62.77,-110 181.77,-110 181.77,-140"/>
<text text-anchor="start" x="70.77" y="-128" font-family="Helvetica,sans-Serif" font-size="10.00">libexif/pentax/mnote</text>
<text text-anchor="middle" x="122.27" y="-117" font-family="Helvetica,sans-Serif" font-size="10.00">&#45;pentax&#45;tag.c</text>
</a>
</g>
</g>
<!-- Node2 -->
<g id="Node000002" class="node">
<title>Node2</title>
<g id="a_Node000002"><a xlink:title=" ">
<polygon fill="#e0e0e0" stroke="#999999" points="150.27,-19 94.27,-19 94.27,0 150.27,0 150.27,-19"/>
<text text-anchor="middle" x="122.27" y="-7" font-family="Helvetica,sans-Serif" font-size="10.00">config.h</text>
</a>
</g>
</g>
<!-- Node1&#45;&gt;Node2 -->
<g id="edge1_Node000001_Node000002" class="edge">
<title>Node1&#45;&gt;Node2</title>
<g id="a_edge1_Node000001_Node000002"><a xlink:title=" ">
<path fill="none" stroke="#63b8ff" d="M62.42,-111.65C24.61,-100.91 -13.8,-82.66 5.27,-55 22.52,-29.99 55.83,-19.02 82.51,-14.22"/>
<polygon fill="#63b8ff" stroke="#63b8ff" points="83,-17.69 92.35,-12.7 81.93,-10.77 83,-17.69"/>
</a>
</g>
</g>
<!-- Node3 -->
<g id="Node000003" class="node">
<title>Node3</title>
<g id="a_Node000003"><a xlink:href="mnote-pentax-tag_8h.html" target="_top" xlink:title=" ">
<polygon fill="white" stroke="#666666" points="128.27,-74 14.27,-74 14.27,-55 128.27,-55 128.27,-74"/>
<text text-anchor="middle" x="71.27" y="-62" font-family="Helvetica,sans-Serif" font-size="10.00">mnote&#45;pentax&#45;tag.h</text>
</a>
</g>
</g>
<!-- Node1&#45;&gt;Node3 -->
<g id="edge2_Node000001_Node000003" class="edge">
<title>Node1&#45;&gt;Node3</title>
<g id="a_edge2_Node000001_Node000003"><a xlink:title=" ">
<path fill="none" stroke="#63b8ff" d="M109.67,-109.54C102.56,-101.39 93.64,-91.16 86.19,-82.61"/>
<polygon fill="#63b8ff" stroke="#63b8ff" points="89.04,-80.55 79.83,-75.32 83.76,-85.15 89.04,-80.55"/>
</a>
</g>
</g>
<!-- Node4 -->
<g id="Node000004" class="node">
<title>Node4</title>
<g id="a_Node000004"><a xlink:title=" ">
<polygon fill="#e0e0e0" stroke="#999999" points="199.77,-74 146.77,-74 146.77,-55 199.77,-55 199.77,-74"/>
<text text-anchor="middle" x="173.27" y="-62" font-family="Helvetica,sans-Serif" font-size="10.00">stdlib.h</text>
</a>
</g>
</g>
<!-- Node1&#45;&gt;Node4 -->
<g id="edge3_Node000001_Node000004" class="edge">
<title>Node1&#45;&gt;Node4</title>
<g id="a_edge3_Node000001_Node000004"><a xlink:title=" ">
<path fill="none" stroke="#63b8ff" d="M134.88,-109.54C141.99,-101.39 150.9,-91.16 158.35,-82.61"/>
<polygon fill="#63b8ff" stroke="#63b8ff" points="160.78,-85.15 164.72,-75.32 155.51,-80.55 160.78,-85.15"/>
</a>
</g>
</g>
<!-- Node5 -->
<g id="Node000005" class="node">
<title>Node5</title>
<g id="a_Node000005"><a xlink:href="i18n_8h.html" target="_top" xlink:title=" ">
<polygon fill="white" stroke="#666666" points="298.27,-74 218.27,-74 218.27,-55 298.27,-55 298.27,-74"/>
<text text-anchor="middle" x="258.27" y="-62" font-family="Helvetica,sans-Serif" font-size="10.00">libexif/i18n.h</text>
</a>
</g>
</g>
<!-- Node1&#45;&gt;Node5 -->
<g id="edge4_Node000001_Node000005" class="edge">
<title>Node1&#45;&gt;Node5</title>
<g id="a_edge4_Node000001_Node000005"><a xlink:title=" ">
<path fill="none" stroke="#63b8ff" d="M155.89,-109.54C177.73,-100.15 205.98,-87.99 227.28,-78.83"/>
<polygon fill="#63b8ff" stroke="#63b8ff" points="228.51,-82.11 236.32,-74.94 225.75,-75.68 228.51,-82.11"/>
</a>
</g>
</g>
<!-- Node5&#45;&gt;Node2 -->
<g id="edge5_Node000005_Node000002" class="edge">
<title>Node5&#45;&gt;Node2</title>
<g id="a_edge5_Node000005_Node000002"><a xlink:title=" ">
<path fill="none" stroke="#63b8ff" d="M235.2,-54.51C213.38,-46.01 180.4,-33.15 155.7,-23.53"/>
<polygon fill="#63b8ff" stroke="#63b8ff" points="157,-20.28 146.41,-19.91 154.46,-26.8 157,-20.28"/>
</a>
</g>
</g>
</g>
</svg>
