<?xml version="1.0" encoding="UTF-8" standalone="no"?>
<!DOCTYPE svg PUBLIC "-//W3C//DTD SVG 1.1//EN"
 "http://www.w3.org/Graphics/SVG/1.1/DTD/svg11.dtd">
<!-- Generated by graphviz version 7.0.1 (0)
 -->
<!-- Title: test/nls/print&#45;localedir.c Pages: 1 -->
<svg width="182pt" height="137pt"
 viewBox="0.00 0.00 182.00 137.00" xmlns="http://www.w3.org/2000/svg" xmlns:xlink="http://www.w3.org/1999/xlink">
<g id="graph0" class="graph" transform="scale(1 1) rotate(0) translate(4 133)">
<title>test/nls/print&#45;localedir.c</title>
<!-- Node1 -->
<g id="Node000001" class="node">
<title>Node1</title>
<g id="a_Node000001"><a xlink:title=" ">
<polygon fill="#999999" stroke="#666666" points="132,-129 0,-129 0,-110 132,-110 132,-129"/>
<text text-anchor="middle" x="66" y="-117" font-family="Helvetica,sans-Serif" font-size="10.00">test/nls/print&#45;localedir.c</text>
</a>
</g>
</g>
<!-- Node2 -->
<g id="Node000002" class="node">
<title>Node2</title>
<g id="a_Node000002"><a xlink:title=" ">
<polygon fill="#e0e0e0" stroke="#999999" points="60,-19 4,-19 4,0 60,0 60,-19"/>
<text text-anchor="middle" x="32" y="-7" font-family="Helvetica,sans-Serif" font-size="10.00">config.h</text>
</a>
</g>
</g>
<!-- Node1&#45;&gt;Node2 -->
<g id="edge1_Node000001_Node000002" class="edge">
<title>Node1&#45;&gt;Node2</title>
<g id="a_edge1_Node000001_Node000002"><a xlink:title=" ">
<path fill="none" stroke="#63b8ff" d="M50.87,-109.73C39.19,-101.99 23.88,-89.55 17,-74 10.69,-59.74 15.5,-42.45 21.3,-29.52"/>
<polygon fill="#63b8ff" stroke="#63b8ff" points="24.32,-31.31 25.71,-20.81 18.07,-28.15 24.32,-31.31"/>
</a>
</g>
</g>
<!-- Node3 -->
<g id="Node000003" class="node">
<title>Node3</title>
<g id="a_Node000003"><a xlink:href="i18n_8h.html" target="_top" xlink:title=" ">
<polygon fill="white" stroke="#666666" points="106,-74 26,-74 26,-55 106,-55 106,-74"/>
<text text-anchor="middle" x="66" y="-62" font-family="Helvetica,sans-Serif" font-size="10.00">libexif/i18n.h</text>
</a>
</g>
</g>
<!-- Node1&#45;&gt;Node3 -->
<g id="edge2_Node000001_Node000003" class="edge">
<title>Node1&#45;&gt;Node3</title>
<g id="a_edge2_Node000001_Node000003"><a xlink:title=" ">
<path fill="none" stroke="#63b8ff" d="M66,-109.75C66,-103.27 66,-94.16 66,-85.9"/>
<polygon fill="#63b8ff" stroke="#63b8ff" points="69.5,-85.96 66,-75.96 62.5,-85.96 69.5,-85.96"/>
</a>
</g>
</g>
<!-- Node4 -->
<g id="Node000004" class="node">
<title>Node4</title>
<g id="a_Node000004"><a xlink:title=" ">
<polygon fill="#e0e0e0" stroke="#999999" points="174,-74 124,-74 124,-55 174,-55 174,-74"/>
<text text-anchor="middle" x="149" y="-62" font-family="Helvetica,sans-Serif" font-size="10.00">stdio.h</text>
</a>
</g>
</g>
<!-- Node1&#45;&gt;Node4 -->
<g id="edge4_Node000001_Node000004" class="edge">
<title>Node1&#45;&gt;Node4</title>
<g id="a_edge4_Node000001_Node000004"><a xlink:title=" ">
<path fill="none" stroke="#63b8ff" d="M80.08,-109.51C92.56,-101.54 111.02,-89.75 125.69,-80.38"/>
<polygon fill="#63b8ff" stroke="#63b8ff" points="127.31,-83.5 133.85,-75.17 123.54,-77.6 127.31,-83.5"/>
</a>
</g>
</g>
<!-- Node3&#45;&gt;Node2 -->
<g id="edge3_Node000003_Node000002" class="edge">
<title>Node3&#45;&gt;Node2</title>
<g id="a_edge3_Node000003_Node000002"><a xlink:title=" ">
<path fill="none" stroke="#63b8ff" d="M60.39,-54.75C55.88,-47.73 49.41,-37.64 43.79,-28.87"/>
<polygon fill="#63b8ff" stroke="#63b8ff" points="46.9,-27.24 38.55,-20.72 41.01,-31.02 46.9,-27.24"/>
</a>
</g>
</g>
</g>
</svg>
