<?xml version="1.0" encoding="UTF-8" standalone="no"?>
<!DOCTYPE svg PUBLIC "-//W3C//DTD SVG 1.1//EN"
 "http://www.w3.org/Graphics/SVG/1.1/DTD/svg11.dtd">
<!-- Generated by graphviz version 2.44.1 (0)
 -->
<!-- Title: _ExifContentPrivate Pages: 1 -->
<svg width="186pt" height="162pt"
 viewBox="0.00 0.00 185.50 162.00" xmlns="http://www.w3.org/2000/svg" xmlns:xlink="http://www.w3.org/1999/xlink">
<g id="graph0" class="graph" transform="scale(1 1) rotate(0) translate(4 158)">
<title>_ExifContentPrivate</title>
<polygon fill="white" stroke="transparent" points="-4,4 -4,-158 181.5,-158 181.5,4 -4,4"/>
<!-- Node1 -->
<g id="node1" class="node">
<title>Node1</title>
<g id="a_node1"><a xlink:title=" ">
<polygon fill="#bfbfbf" stroke="black" points="0,-0.5 0,-19.5 113,-19.5 113,-0.5 0,-0.5"/>
<text text-anchor="middle" x="56.5" y="-7.5" font-family="Helvetica,sans-Serif" font-size="10.00">_ExifContentPrivate</text>
</a>
</g>
</g>
<!-- Node2 -->
<g id="node2" class="node">
<title>Node2</title>
<g id="a_node2"><a xlink:href="struct__ExifLog.html" target="_top" xlink:title=" ">
<polygon fill="white" stroke="black" points="76.5,-67.5 76.5,-86.5 134.5,-86.5 134.5,-67.5 76.5,-67.5"/>
<text text-anchor="middle" x="105.5" y="-74.5" font-family="Helvetica,sans-Serif" font-size="10.00">_ExifLog</text>
</a>
</g>
</g>
<!-- Node2&#45;&gt;Node1 -->
<g id="edge1" class="edge">
<title>Node2&#45;&gt;Node1</title>
<path fill="none" stroke="#9a32cd" stroke-dasharray="5,2" d="M92.61,-58.9C83.09,-46.27 70.52,-29.6 63,-19.63"/>
<polygon fill="#9a32cd" stroke="#9a32cd" points="90.08,-61.36 98.89,-67.23 95.67,-57.14 90.08,-61.36"/>
<text text-anchor="middle" x="93" y="-41" font-family="Helvetica,sans-Serif" font-size="10.00"> log</text>
</g>
<!-- Node2&#45;&gt;Node2 -->
<g id="edge2" class="edge">
<title>Node2&#45;&gt;Node2</title>
<path fill="none" stroke="#9a32cd" stroke-dasharray="5,2" d="M145.1,-82.08C149.59,-81.13 152.5,-79.44 152.5,-77 152.5,-73 144.67,-71 134.88,-71"/>
<polygon fill="#9a32cd" stroke="#9a32cd" points="144.52,-78.62 134.88,-83 145.15,-85.59 144.52,-78.62"/>
<text text-anchor="middle" x="165" y="-74.5" font-family="Helvetica,sans-Serif" font-size="10.00"> func</text>
</g>
<!-- Node3 -->
<g id="node3" class="node">
<title>Node3</title>
<g id="a_node3"><a xlink:href="struct__ExifMem.html" target="_top" xlink:title=" ">
<polygon fill="white" stroke="black" points="13,-134.5 13,-153.5 78,-153.5 78,-134.5 13,-134.5"/>
<text text-anchor="middle" x="45.5" y="-141.5" font-family="Helvetica,sans-Serif" font-size="10.00">_ExifMem</text>
</a>
</g>
</g>
<!-- Node3&#45;&gt;Node1 -->
<g id="edge4" class="edge">
<title>Node3&#45;&gt;Node1</title>
<path fill="none" stroke="#9a32cd" stroke-dasharray="5,2" d="M41.2,-124.2C38.28,-108.77 35.46,-86.38 38.5,-67 41.22,-49.65 48.41,-30.33 52.84,-19.53"/>
<polygon fill="#9a32cd" stroke="#9a32cd" points="37.79,-124.99 43.25,-134.06 44.64,-123.56 37.79,-124.99"/>
<text text-anchor="middle" x="53" y="-74.5" font-family="Helvetica,sans-Serif" font-size="10.00"> mem</text>
</g>
<!-- Node3&#45;&gt;Node2 -->
<g id="edge3" class="edge">
<title>Node3&#45;&gt;Node2</title>
<path fill="none" stroke="#9a32cd" stroke-dasharray="5,2" d="M60.61,-126.63C72.34,-113.92 88.15,-96.8 97.54,-86.63"/>
<polygon fill="#9a32cd" stroke="#9a32cd" points="57.8,-124.51 53.59,-134.23 62.95,-129.26 57.8,-124.51"/>
<text text-anchor="middle" x="93" y="-108" font-family="Helvetica,sans-Serif" font-size="10.00"> mem</text>
</g>
</g>
</svg>
