<?xml version="1.0" encoding="UTF-8" standalone="no"?>
<!DOCTYPE svg PUBLIC "-//W3C//DTD SVG 1.1//EN"
 "http://www.w3.org/Graphics/SVG/1.1/DTD/svg11.dtd">
<!-- Generated by graphviz version 2.44.1 (0)
 -->
<!-- Title: _ExifMnoteData Pages: 1 -->
<svg width="461pt" height="162pt"
 viewBox="0.00 0.00 460.50 162.00" xmlns="http://www.w3.org/2000/svg" xmlns:xlink="http://www.w3.org/1999/xlink">
<g id="graph0" class="graph" transform="scale(1 1) rotate(0) translate(4 158)">
<title>_ExifMnoteData</title>
<polygon fill="white" stroke="transparent" points="-4,4 -4,-158 456.5,-158 456.5,4 -4,4"/>
<!-- Node1 -->
<g id="node1" class="node">
<title>Node1</title>
<g id="a_node1"><a xlink:title=" ">
<polygon fill="#bfbfbf" stroke="black" points="210,-0.5 210,-19.5 305,-19.5 305,-0.5 210,-0.5"/>
<text text-anchor="middle" x="257.5" y="-7.5" font-family="Helvetica,sans-Serif" font-size="10.00">_ExifMnoteData</text>
</a>
</g>
</g>
<!-- Node2 -->
<g id="node2" class="node">
<title>Node2</title>
<g id="a_node2"><a xlink:href="struct__ExifMnoteDataMethods.html" target="_top" xlink:title=" ">
<polygon fill="white" stroke="black" points="0,-67.5 0,-86.5 137,-86.5 137,-67.5 0,-67.5"/>
<text text-anchor="middle" x="68.5" y="-74.5" font-family="Helvetica,sans-Serif" font-size="10.00">_ExifMnoteDataMethods</text>
</a>
</g>
</g>
<!-- Node2&#45;&gt;Node1 -->
<g id="edge1" class="edge">
<title>Node2&#45;&gt;Node1</title>
<path fill="none" stroke="#9a32cd" stroke-dasharray="5,2" d="M103.1,-64.1C140.57,-51.21 199.43,-30.97 232.6,-19.56"/>
<polygon fill="#9a32cd" stroke="#9a32cd" points="101.92,-60.81 93.6,-67.37 104.19,-67.43 101.92,-60.81"/>
<text text-anchor="middle" x="197.5" y="-41" font-family="Helvetica,sans-Serif" font-size="10.00"> methods</text>
</g>
<!-- Node3 -->
<g id="node3" class="node">
<title>Node3</title>
<g id="a_node3"><a xlink:href="struct__ExifMnoteDataPriv.html" target="_top" xlink:title=" ">
<polygon fill="white" stroke="black" points="155,-67.5 155,-86.5 268,-86.5 268,-67.5 155,-67.5"/>
<text text-anchor="middle" x="211.5" y="-74.5" font-family="Helvetica,sans-Serif" font-size="10.00">_ExifMnoteDataPriv</text>
</a>
</g>
</g>
<!-- Node3&#45;&gt;Node1 -->
<g id="edge2" class="edge">
<title>Node3&#45;&gt;Node1</title>
<path fill="none" stroke="#9a32cd" stroke-dasharray="5,2" d="M223.6,-58.9C232.54,-46.27 244.33,-29.6 251.39,-19.63"/>
<polygon fill="#9a32cd" stroke="#9a32cd" points="220.62,-57.05 217.7,-67.23 226.34,-61.09 220.62,-57.05"/>
<text text-anchor="middle" x="248.5" y="-41" font-family="Helvetica,sans-Serif" font-size="10.00"> priv</text>
</g>
<!-- Node4 -->
<g id="node4" class="node">
<title>Node4</title>
<g id="a_node4"><a xlink:href="struct__ExifLog.html" target="_top" xlink:title=" ">
<polygon fill="white" stroke="black" points="351.5,-67.5 351.5,-86.5 409.5,-86.5 409.5,-67.5 351.5,-67.5"/>
<text text-anchor="middle" x="380.5" y="-74.5" font-family="Helvetica,sans-Serif" font-size="10.00">_ExifLog</text>
</a>
</g>
</g>
<!-- Node4&#45;&gt;Node1 -->
<g id="edge3" class="edge">
<title>Node4&#45;&gt;Node1</title>
<path fill="none" stroke="#9a32cd" stroke-dasharray="5,2" d="M358.85,-61.75C347.12,-54.28 332.26,-45.22 318.5,-38 305.58,-31.22 290.6,-24.57 278.72,-19.57"/>
<polygon fill="#9a32cd" stroke="#9a32cd" points="357.19,-64.85 367.49,-67.32 360.99,-58.96 357.19,-64.85"/>
<text text-anchor="middle" x="348" y="-41" font-family="Helvetica,sans-Serif" font-size="10.00"> log</text>
</g>
<!-- Node4&#45;&gt;Node4 -->
<g id="edge4" class="edge">
<title>Node4&#45;&gt;Node4</title>
<path fill="none" stroke="#9a32cd" stroke-dasharray="5,2" d="M420.1,-82.08C424.59,-81.13 427.5,-79.44 427.5,-77 427.5,-73 419.67,-71 409.88,-71"/>
<polygon fill="#9a32cd" stroke="#9a32cd" points="419.52,-78.62 409.88,-83 420.15,-85.59 419.52,-78.62"/>
<text text-anchor="middle" x="440" y="-74.5" font-family="Helvetica,sans-Serif" font-size="10.00"> func</text>
</g>
<!-- Node5 -->
<g id="node5" class="node">
<title>Node5</title>
<g id="a_node5"><a xlink:href="struct__ExifMem.html" target="_top" xlink:title=" ">
<polygon fill="white" stroke="black" points="288,-134.5 288,-153.5 353,-153.5 353,-134.5 288,-134.5"/>
<text text-anchor="middle" x="320.5" y="-141.5" font-family="Helvetica,sans-Serif" font-size="10.00">_ExifMem</text>
</a>
</g>
</g>
<!-- Node5&#45;&gt;Node1 -->
<g id="edge6" class="edge">
<title>Node5&#45;&gt;Node1</title>
<path fill="none" stroke="#9a32cd" stroke-dasharray="5,2" d="M311.93,-125.04C298.17,-96.22 271.69,-40.72 261.57,-19.52"/>
<polygon fill="#9a32cd" stroke="#9a32cd" points="308.9,-126.82 316.37,-134.34 315.22,-123.81 308.9,-126.82"/>
<text text-anchor="middle" x="308" y="-74.5" font-family="Helvetica,sans-Serif" font-size="10.00"> mem</text>
</g>
<!-- Node5&#45;&gt;Node4 -->
<g id="edge5" class="edge">
<title>Node5&#45;&gt;Node4</title>
<path fill="none" stroke="#9a32cd" stroke-dasharray="5,2" d="M335.61,-126.63C347.34,-113.92 363.15,-96.8 372.54,-86.63"/>
<polygon fill="#9a32cd" stroke="#9a32cd" points="332.8,-124.51 328.59,-134.23 337.95,-129.26 332.8,-124.51"/>
<text text-anchor="middle" x="369" y="-108" font-family="Helvetica,sans-Serif" font-size="10.00"> mem</text>
</g>
</g>
</svg>
