<?xml version="1.0" encoding="UTF-8" standalone="no"?>
<!DOCTYPE svg PUBLIC "-//W3C//DTD SVG 1.1//EN"
 "http://www.w3.org/Graphics/SVG/1.1/DTD/svg11.dtd">
<!-- Generated by graphviz version 2.44.1 (0)
 -->
<!-- Title: _ExifLog Pages: 1 -->
<svg width="113pt" height="95pt"
 viewBox="0.00 0.00 112.50 95.00" xmlns="http://www.w3.org/2000/svg" xmlns:xlink="http://www.w3.org/1999/xlink">
<g id="graph0" class="graph" transform="scale(1 1) rotate(0) translate(4 91)">
<title>_ExifLog</title>
<polygon fill="white" stroke="transparent" points="-4,4 -4,-91 108.5,-91 108.5,4 -4,4"/>
<!-- Node1 -->
<g id="node1" class="node">
<title>Node1</title>
<g id="a_node1"><a xlink:title=" ">
<polygon fill="#bfbfbf" stroke="black" points="3.5,-0.5 3.5,-19.5 61.5,-19.5 61.5,-0.5 3.5,-0.5"/>
<text text-anchor="middle" x="32.5" y="-7.5" font-family="Helvetica,sans-Serif" font-size="10.00">_ExifLog</text>
</a>
</g>
</g>
<!-- Node1&#45;&gt;Node1 -->
<g id="edge1" class="edge">
<title>Node1&#45;&gt;Node1</title>
<path fill="none" stroke="#9a32cd" stroke-dasharray="5,2" d="M72.1,-15.08C76.59,-14.13 79.5,-12.44 79.5,-10 79.5,-6 71.67,-4 61.88,-4"/>
<polygon fill="#9a32cd" stroke="#9a32cd" points="71.52,-11.62 61.88,-16 72.15,-18.59 71.52,-11.62"/>
<text text-anchor="middle" x="92" y="-7.5" font-family="Helvetica,sans-Serif" font-size="10.00"> func</text>
</g>
<!-- Node2 -->
<g id="node2" class="node">
<title>Node2</title>
<g id="a_node2"><a xlink:href="struct__ExifMem.html" target="_top" xlink:title=" ">
<polygon fill="white" stroke="black" points="0,-67.5 0,-86.5 65,-86.5 65,-67.5 0,-67.5"/>
<text text-anchor="middle" x="32.5" y="-74.5" font-family="Helvetica,sans-Serif" font-size="10.00">_ExifMem</text>
</a>
</g>
</g>
<!-- Node2&#45;&gt;Node1 -->
<g id="edge2" class="edge">
<title>Node2&#45;&gt;Node1</title>
<path fill="none" stroke="#9a32cd" stroke-dasharray="5,2" d="M32.5,-57.04C32.5,-44.67 32.5,-29.12 32.5,-19.63"/>
<polygon fill="#9a32cd" stroke="#9a32cd" points="29,-57.23 32.5,-67.23 36,-57.23 29,-57.23"/>
<text text-anchor="middle" x="47" y="-41" font-family="Helvetica,sans-Serif" font-size="10.00"> mem</text>
</g>
</g>
</svg>
