<?xml version="1.0" encoding="UTF-8" standalone="no"?>
<!DOCTYPE svg PUBLIC "-//W3C//DTD SVG 1.1//EN"
 "http://www.w3.org/Graphics/SVG/1.1/DTD/svg11.dtd">
<!-- Generated by graphviz version 7.0.1 (0)
 -->
<!-- Title: _ExifLog Pages: 1 -->
<svg width="113pt" height="93pt"
 viewBox="0.00 0.00 112.50 93.00" xmlns="http://www.w3.org/2000/svg" xmlns:xlink="http://www.w3.org/1999/xlink">
<g id="graph0" class="graph" transform="scale(1 1) rotate(0) translate(4 89)">
<title>_ExifLog</title>
<!-- Node1 -->
<g id="Node000001" class="node">
<title>Node1</title>
<g id="a_Node000001"><a xlink:title=" ">
<polygon fill="#999999" stroke="#666666" points="61.5,-19 3.5,-19 3.5,0 61.5,0 61.5,-19"/>
<text text-anchor="middle" x="32.5" y="-7" font-family="Helvetica,sans-Serif" font-size="10.00">_ExifLog</text>
</a>
</g>
</g>
<!-- Node1&#45;&gt;Node1 -->
<g id="edge1_Node000001_Node000001" class="edge">
<title>Node1&#45;&gt;Node1</title>
<g id="a_edge1_Node000001_Node000001"><a xlink:title=" ">
<path fill="none" stroke="#9a32cd" stroke-dasharray="5,2" d="M73.11,-14.5C77.02,-13.49 79.5,-11.82 79.5,-9.5 79.5,-5.38 71.67,-3.31 61.88,-3.31"/>
<polygon fill="#9a32cd" stroke="#9a32cd" points="72.96,-11 63.38,-15.53 73.69,-17.96 72.96,-11"/>
</a>
</g>
<text text-anchor="middle" x="92" y="-7" font-family="Helvetica,sans-Serif" font-size="10.00" fill="grey"> func</text>
</g>
<!-- Node2 -->
<g id="Node000002" class="node">
<title>Node2</title>
<g id="a_Node000002"><a xlink:href="struct__ExifMem.html" target="_top" xlink:title=" ">
<polygon fill="white" stroke="#666666" points="65,-85 0,-85 0,-66 65,-66 65,-85"/>
<text text-anchor="middle" x="32.5" y="-73" font-family="Helvetica,sans-Serif" font-size="10.00">_ExifMem</text>
</a>
</g>
</g>
<!-- Node2&#45;&gt;Node1 -->
<g id="edge2_Node000001_Node000002" class="edge">
<title>Node2&#45;&gt;Node1</title>
<g id="a_edge2_Node000001_Node000002"><a xlink:title=" ">
<path fill="none" stroke="#9a32cd" stroke-dasharray="5,2" d="M32.5,-54.18C32.5,-42.44 32.5,-28.27 32.5,-19.32"/>
<polygon fill="#9a32cd" stroke="#9a32cd" points="29,-54.09 32.5,-64.09 36,-54.09 29,-54.09"/>
</a>
</g>
<text text-anchor="middle" x="47" y="-40" font-family="Helvetica,sans-Serif" font-size="10.00" fill="grey"> mem</text>
</g>
</g>
</svg>
