<?xml version="1.0" encoding="UTF-8" standalone="no"?>
<!DOCTYPE svg PUBLIC "-//W3C//DTD SVG 1.1//EN"
 "http://www.w3.org/Graphics/SVG/1.1/DTD/svg11.dtd">
<!-- Generated by graphviz version 2.44.1 (0)
 -->
<!-- Title: _ExifData Pages: 1 -->
<svg width="661pt" height="439pt"
 viewBox="0.00 0.00 661.00 439.00" xmlns="http://www.w3.org/2000/svg" xmlns:xlink="http://www.w3.org/1999/xlink">
<g id="graph0" class="graph" transform="scale(1 1) rotate(0) translate(4 435)">
<title>_ExifData</title>
<polygon fill="white" stroke="transparent" points="-4,4 -4,-435 657,-435 657,4 -4,4"/>
<!-- Node1 -->
<g id="node1" class="node">
<title>Node1</title>
<g id="a_node1"><a xlink:title="Represents the entire EXIF data found in an image.">
<polygon fill="#bfbfbf" stroke="black" points="405.5,-134.5 405.5,-153.5 469.5,-153.5 469.5,-134.5 405.5,-134.5"/>
<text text-anchor="middle" x="437.5" y="-141.5" font-family="Helvetica,sans-Serif" font-size="10.00">_ExifData</text>
</a>
</g>
</g>
<!-- Node8 -->
<g id="node8" class="node">
<title>Node8</title>
<g id="a_node8"><a xlink:href="struct__ExifContent.html" target="_top" xlink:title=" ">
<polygon fill="white" stroke="black" points="450,-67.5 450,-86.5 529,-86.5 529,-67.5 450,-67.5"/>
<text text-anchor="middle" x="489.5" y="-74.5" font-family="Helvetica,sans-Serif" font-size="10.00">_ExifContent</text>
</a>
</g>
</g>
<!-- Node1&#45;&gt;Node8 -->
<g id="edge15" class="edge">
<title>Node1&#45;&gt;Node8</title>
<path fill="none" stroke="#9a32cd" stroke-dasharray="5,2" d="M450.88,-126.27C461.02,-113.6 474.54,-96.7 482.6,-86.63"/>
<polygon fill="#9a32cd" stroke="#9a32cd" points="448.03,-124.24 444.51,-134.23 453.49,-128.61 448.03,-124.24"/>
<text text-anchor="middle" x="485" y="-108" font-family="Helvetica,sans-Serif" font-size="10.00"> parent</text>
</g>
<!-- Node2 -->
<g id="node2" class="node">
<title>Node2</title>
<g id="a_node2"><a xlink:href="struct__ExifDataPrivate.html" target="_top" xlink:title=" ">
<polygon fill="white" stroke="black" points="353.5,-201.5 353.5,-220.5 451.5,-220.5 451.5,-201.5 353.5,-201.5"/>
<text text-anchor="middle" x="402.5" y="-208.5" font-family="Helvetica,sans-Serif" font-size="10.00">_ExifDataPrivate</text>
</a>
</g>
</g>
<!-- Node2&#45;&gt;Node1 -->
<g id="edge1" class="edge">
<title>Node2&#45;&gt;Node1</title>
<path fill="none" stroke="#9a32cd" stroke-dasharray="5,2" d="M412.1,-192.16C418.85,-179.63 427.59,-163.41 432.85,-153.63"/>
<polygon fill="#9a32cd" stroke="#9a32cd" points="408.88,-190.77 407.22,-201.23 415.04,-194.09 408.88,-190.77"/>
<text text-anchor="middle" x="433.5" y="-175" font-family="Helvetica,sans-Serif" font-size="10.00"> priv</text>
</g>
<!-- Node3 -->
<g id="node3" class="node">
<title>Node3</title>
<g id="a_node3"><a xlink:href="struct__ExifMnoteData.html" target="_top" xlink:title=" ">
<polygon fill="white" stroke="black" points="230,-268.5 230,-287.5 325,-287.5 325,-268.5 230,-268.5"/>
<text text-anchor="middle" x="277.5" y="-275.5" font-family="Helvetica,sans-Serif" font-size="10.00">_ExifMnoteData</text>
</a>
</g>
</g>
<!-- Node3&#45;&gt;Node2 -->
<g id="edge2" class="edge">
<title>Node3&#45;&gt;Node2</title>
<path fill="none" stroke="#9a32cd" stroke-dasharray="5,2" d="M303.26,-263.6C328.02,-250.73 364.69,-231.66 385.83,-220.67"/>
<polygon fill="#9a32cd" stroke="#9a32cd" points="301.36,-260.65 294.1,-268.37 304.59,-266.86 301.36,-260.65"/>
<text text-anchor="middle" x="357" y="-242" font-family="Helvetica,sans-Serif" font-size="10.00"> md</text>
</g>
<!-- Node4 -->
<g id="node4" class="node">
<title>Node4</title>
<g id="a_node4"><a xlink:href="struct__ExifMnoteDataMethods.html" target="_top" xlink:title=" ">
<polygon fill="white" stroke="black" points="0,-344.5 0,-363.5 137,-363.5 137,-344.5 0,-344.5"/>
<text text-anchor="middle" x="68.5" y="-351.5" font-family="Helvetica,sans-Serif" font-size="10.00">_ExifMnoteDataMethods</text>
</a>
</g>
</g>
<!-- Node4&#45;&gt;Node3 -->
<g id="edge3" class="edge">
<title>Node4&#45;&gt;Node3</title>
<path fill="none" stroke="#9a32cd" stroke-dasharray="5,2" d="M80.19,-336.09C88.31,-325.71 100.05,-313.09 113.5,-306 149.49,-287.03 195.59,-280.76 229.74,-278.96"/>
<polygon fill="#9a32cd" stroke="#9a32cd" points="77.15,-334.32 74.04,-344.44 82.79,-338.47 77.15,-334.32"/>
<text text-anchor="middle" x="136.5" y="-313.5" font-family="Helvetica,sans-Serif" font-size="10.00"> methods</text>
</g>
<!-- Node5 -->
<g id="node5" class="node">
<title>Node5</title>
<g id="a_node5"><a xlink:href="struct__ExifMnoteDataPriv.html" target="_top" xlink:title=" ">
<polygon fill="white" stroke="black" points="221,-344.5 221,-363.5 334,-363.5 334,-344.5 221,-344.5"/>
<text text-anchor="middle" x="277.5" y="-351.5" font-family="Helvetica,sans-Serif" font-size="10.00">_ExifMnoteDataPriv</text>
</a>
</g>
</g>
<!-- Node5&#45;&gt;Node3 -->
<g id="edge4" class="edge">
<title>Node5&#45;&gt;Node3</title>
<path fill="none" stroke="#9a32cd" stroke-dasharray="5,2" d="M277.5,-334.07C277.5,-319.18 277.5,-299.11 277.5,-287.77"/>
<polygon fill="#9a32cd" stroke="#9a32cd" points="274,-334.22 277.5,-344.22 281,-334.22 274,-334.22"/>
<text text-anchor="middle" x="288.5" y="-313.5" font-family="Helvetica,sans-Serif" font-size="10.00"> priv</text>
</g>
<!-- Node6 -->
<g id="node6" class="node">
<title>Node6</title>
<g id="a_node6"><a xlink:href="struct__ExifLog.html" target="_top" xlink:title=" ">
<polygon fill="white" stroke="black" points="352.5,-344.5 352.5,-363.5 410.5,-363.5 410.5,-344.5 352.5,-344.5"/>
<text text-anchor="middle" x="381.5" y="-351.5" font-family="Helvetica,sans-Serif" font-size="10.00">_ExifLog</text>
</a>
</g>
</g>
<!-- Node6&#45;&gt;Node2 -->
<g id="edge9" class="edge">
<title>Node6&#45;&gt;Node2</title>
<path fill="none" stroke="#9a32cd" stroke-dasharray="5,2" d="M384.35,-333.89C388.95,-302.99 397.84,-243.27 401.19,-220.82"/>
<polygon fill="#9a32cd" stroke="#9a32cd" points="380.83,-333.77 382.81,-344.18 387.75,-334.8 380.83,-333.77"/>
<text text-anchor="middle" x="404" y="-275.5" font-family="Helvetica,sans-Serif" font-size="10.00"> log</text>
</g>
<!-- Node6&#45;&gt;Node3 -->
<g id="edge5" class="edge">
<title>Node6&#45;&gt;Node3</title>
<path fill="none" stroke="#9a32cd" stroke-dasharray="5,2" d="M360.78,-338.25C339.44,-323.07 306.92,-299.93 289.5,-287.54"/>
<polygon fill="#9a32cd" stroke="#9a32cd" points="358.98,-341.27 369.16,-344.22 363.04,-335.57 358.98,-341.27"/>
<text text-anchor="middle" x="352" y="-313.5" font-family="Helvetica,sans-Serif" font-size="10.00"> log</text>
</g>
<!-- Node6&#45;&gt;Node6 -->
<g id="edge6" class="edge">
<title>Node6&#45;&gt;Node6</title>
<path fill="none" stroke="#9a32cd" stroke-dasharray="5,2" d="M421.1,-359.08C425.59,-358.13 428.5,-356.44 428.5,-354 428.5,-350 420.67,-348 410.88,-348"/>
<polygon fill="#9a32cd" stroke="#9a32cd" points="420.52,-355.62 410.88,-360 421.15,-362.59 420.52,-355.62"/>
<text text-anchor="middle" x="441" y="-351.5" font-family="Helvetica,sans-Serif" font-size="10.00"> func</text>
</g>
<!-- Node9 -->
<g id="node9" class="node">
<title>Node9</title>
<g id="a_node9"><a xlink:href="struct__ExifContentPrivate.html" target="_top" xlink:title=" ">
<polygon fill="white" stroke="black" points="470,-268.5 470,-287.5 583,-287.5 583,-268.5 470,-268.5"/>
<text text-anchor="middle" x="526.5" y="-275.5" font-family="Helvetica,sans-Serif" font-size="10.00">_ExifContentPrivate</text>
</a>
</g>
</g>
<!-- Node6&#45;&gt;Node9 -->
<g id="edge13" class="edge">
<title>Node6&#45;&gt;Node9</title>
<path fill="none" stroke="#9a32cd" stroke-dasharray="5,2" d="M420.53,-345.14C436.91,-340.88 455.76,-334.67 471.5,-326 483.36,-319.46 484.21,-314.81 494.5,-306 501.68,-299.85 509.82,-292.99 516.09,-287.72"/>
<polygon fill="#9a32cd" stroke="#9a32cd" points="419.59,-341.77 410.7,-347.54 421.25,-348.56 419.59,-341.77"/>
<text text-anchor="middle" x="504" y="-313.5" font-family="Helvetica,sans-Serif" font-size="10.00"> log</text>
</g>
<!-- Node7 -->
<g id="node7" class="node">
<title>Node7</title>
<g id="a_node7"><a xlink:href="struct__ExifMem.html" target="_top" xlink:title=" ">
<polygon fill="white" stroke="black" points="449,-411.5 449,-430.5 514,-430.5 514,-411.5 449,-411.5"/>
<text text-anchor="middle" x="481.5" y="-418.5" font-family="Helvetica,sans-Serif" font-size="10.00">_ExifMem</text>
</a>
</g>
</g>
<!-- Node7&#45;&gt;Node2 -->
<g id="edge10" class="edge">
<title>Node7&#45;&gt;Node2</title>
<path fill="none" stroke="#9a32cd" stroke-dasharray="5,2" d="M480.28,-400.86C478.45,-384.56 473.88,-361.14 462.5,-344 455.12,-332.89 446.13,-336.94 438.5,-326 415.42,-292.9 425.29,-277.28 412.5,-239 410.47,-232.93 407.97,-226.18 405.98,-220.95"/>
<polygon fill="#9a32cd" stroke="#9a32cd" points="476.83,-401.61 481.18,-411.27 483.8,-401 476.83,-401.61"/>
<text text-anchor="middle" x="453" y="-313.5" font-family="Helvetica,sans-Serif" font-size="10.00"> mem</text>
</g>
<!-- Node7&#45;&gt;Node3 -->
<g id="edge8" class="edge">
<title>Node7&#45;&gt;Node3</title>
<path fill="none" stroke="#9a32cd" stroke-dasharray="5,2" d="M438.87,-418.47C364.2,-414.79 214.6,-402.67 182.5,-364 156.28,-332.41 217.94,-301.97 253.89,-287.6"/>
<polygon fill="#9a32cd" stroke="#9a32cd" points="438.74,-421.97 448.89,-418.93 439.06,-414.97 438.74,-421.97"/>
<text text-anchor="middle" x="197" y="-351.5" font-family="Helvetica,sans-Serif" font-size="10.00"> mem</text>
</g>
<!-- Node7&#45;&gt;Node6 -->
<g id="edge7" class="edge">
<title>Node7&#45;&gt;Node6</title>
<path fill="none" stroke="#9a32cd" stroke-dasharray="5,2" d="M458.97,-406.01C452.35,-401.86 445.11,-397.28 438.5,-393 423.12,-383.05 405.62,-371.32 394.11,-363.55"/>
<polygon fill="#9a32cd" stroke="#9a32cd" points="457.16,-409.01 467.5,-411.34 460.87,-403.07 457.16,-409.01"/>
<text text-anchor="middle" x="453" y="-385" font-family="Helvetica,sans-Serif" font-size="10.00"> mem</text>
</g>
<!-- Node7&#45;&gt;Node9 -->
<g id="edge14" class="edge">
<title>Node7&#45;&gt;Node9</title>
<path fill="none" stroke="#9a32cd" stroke-dasharray="5,2" d="M491.38,-402.24C492.88,-399.21 494.31,-396.05 495.5,-393 510.33,-354.98 520.84,-307.18 524.78,-287.78"/>
<polygon fill="#9a32cd" stroke="#9a32cd" points="488.22,-400.74 486.66,-411.22 494.41,-404 488.22,-400.74"/>
<text text-anchor="middle" x="526" y="-351.5" font-family="Helvetica,sans-Serif" font-size="10.00"> mem</text>
</g>
<!-- Node11 -->
<g id="node11" class="node">
<title>Node11</title>
<g id="a_node11"><a xlink:href="struct__ExifEntryPrivate.html" target="_top" xlink:title=" ">
<polygon fill="white" stroke="black" points="552,-306.5 552,-325.5 653,-325.5 653,-306.5 552,-306.5"/>
<text text-anchor="middle" x="602.5" y="-313.5" font-family="Helvetica,sans-Serif" font-size="10.00">_ExifEntryPrivate</text>
</a>
</g>
</g>
<!-- Node7&#45;&gt;Node11 -->
<g id="edge18" class="edge">
<title>Node7&#45;&gt;Node11</title>
<path fill="none" stroke="#9a32cd" stroke-dasharray="5,2" d="M516.91,-407.39C525.41,-403.49 534.15,-398.69 541.5,-393 566.92,-373.33 588.21,-340.99 597.5,-325.63"/>
<polygon fill="#9a32cd" stroke="#9a32cd" points="515.31,-404.27 507.49,-411.41 518.06,-410.7 515.31,-404.27"/>
<text text-anchor="middle" x="567" y="-385" font-family="Helvetica,sans-Serif" font-size="10.00"> mem</text>
</g>
<!-- Node8&#45;&gt;Node1 -->
<g id="edge11" class="edge">
<title>Node8&#45;&gt;Node1</title>
<path fill="none" stroke="#9a32cd" stroke-dasharray="5,2" d="M452.25,-91.53C446.8,-95.1 441.9,-99.52 438.5,-105 433,-113.86 433.91,-126.26 435.41,-134.45"/>
<polygon fill="#9a32cd" stroke="#9a32cd" points="454.06,-94.53 461.11,-86.62 450.67,-88.41 454.06,-94.53"/>
<text text-anchor="middle" x="446.5" y="-108" font-family="Helvetica,sans-Serif" font-size="10.00"> ifd</text>
</g>
<!-- Node10 -->
<g id="node10" class="node">
<title>Node10</title>
<g id="a_node10"><a xlink:href="struct__ExifEntry.html" target="_top" xlink:title="Data found in one EXIF tag.">
<polygon fill="white" stroke="black" points="514.5,-0.5 514.5,-19.5 580.5,-19.5 580.5,-0.5 514.5,-0.5"/>
<text text-anchor="middle" x="547.5" y="-7.5" font-family="Helvetica,sans-Serif" font-size="10.00">_ExifEntry</text>
</a>
</g>
</g>
<!-- Node8&#45;&gt;Node10 -->
<g id="edge19" class="edge">
<title>Node8&#45;&gt;Node10</title>
<path fill="none" stroke="#9a32cd" stroke-dasharray="5,2" d="M483.53,-57.28C482.55,-50.73 482.85,-43.61 486.5,-38 492.82,-28.29 503.51,-22.05 514.19,-18.05"/>
<polygon fill="#9a32cd" stroke="#9a32cd" points="480.23,-58.53 486.01,-67.41 487.03,-56.86 480.23,-58.53"/>
<text text-anchor="middle" x="504" y="-41" font-family="Helvetica,sans-Serif" font-size="10.00"> parent</text>
</g>
<!-- Node9&#45;&gt;Node8 -->
<g id="edge12" class="edge">
<title>Node9&#45;&gt;Node8</title>
<path fill="none" stroke="#9a32cd" stroke-dasharray="5,2" d="M526.99,-258.28C527.26,-226.02 525.28,-158.28 506.5,-105 504.22,-98.52 500.16,-91.98 496.58,-86.97"/>
<polygon fill="#9a32cd" stroke="#9a32cd" points="523.49,-258.41 526.82,-268.47 530.49,-258.53 523.49,-258.41"/>
<text text-anchor="middle" x="534.5" y="-175" font-family="Helvetica,sans-Serif" font-size="10.00"> priv</text>
</g>
<!-- Node10&#45;&gt;Node8 -->
<g id="edge16" class="edge">
<title>Node10&#45;&gt;Node8</title>
<path fill="none" stroke="#9a32cd" stroke-dasharray="5,2" d="M539.09,-28.85C535.45,-35.57 530.8,-43.03 525.5,-49 519.17,-56.13 510.7,-62.59 503.56,-67.41"/>
<polygon fill="#9a32cd" stroke="#9a32cd" points="542.29,-30.3 543.67,-19.79 536.04,-27.15 542.29,-30.3"/>
<text text-anchor="middle" x="552" y="-41" font-family="Helvetica,sans-Serif" font-size="10.00"> entries</text>
</g>
<!-- Node11&#45;&gt;Node10 -->
<g id="edge17" class="edge">
<title>Node11&#45;&gt;Node10</title>
<path fill="none" stroke="#9a32cd" stroke-dasharray="5,2" d="M606.25,-296.26C608.72,-282.32 611.5,-262.8 611.5,-245.5 611.5,-245.5 611.5,-245.5 611.5,-76 611.5,-49.55 584.26,-29.95 565.33,-19.52"/>
<polygon fill="#9a32cd" stroke="#9a32cd" points="602.74,-296.01 604.32,-306.49 609.62,-297.31 602.74,-296.01"/>
<text text-anchor="middle" x="622.5" y="-175" font-family="Helvetica,sans-Serif" font-size="10.00"> priv</text>
</g>
</g>
</svg>
