<?xml version="1.0" encoding="UTF-8" standalone="no"?>
<!DOCTYPE svg PUBLIC "-//W3C//DTD SVG 1.1//EN"
 "http://www.w3.org/Graphics/SVG/1.1/DTD/svg11.dtd">
<!-- Generated by graphviz version 7.0.1 (0)
 -->
<!-- Title: _ExifContentPrivate Pages: 1 -->
<svg width="197pt" height="159pt"
 viewBox="0.00 0.00 196.50 159.00" xmlns="http://www.w3.org/2000/svg" xmlns:xlink="http://www.w3.org/1999/xlink">
<g id="graph0" class="graph" transform="scale(1 1) rotate(0) translate(4 155)">
<title>_ExifContentPrivate</title>
<!-- Node1 -->
<g id="Node000001" class="node">
<title>Node1</title>
<g id="a_Node000001"><a xlink:title=" ">
<polygon fill="#999999" stroke="#666666" points="113,-19 0,-19 0,0 113,0 113,-19"/>
<text text-anchor="middle" x="56.5" y="-7" font-family="Helvetica,sans-Serif" font-size="10.00">_ExifContentPrivate</text>
</a>
</g>
</g>
<!-- Node2 -->
<g id="Node000002" class="node">
<title>Node2</title>
<g id="a_Node000002"><a xlink:href="struct__ExifMem.html" target="_top" xlink:title=" ">
<polygon fill="white" stroke="#666666" points="89,-151 24,-151 24,-132 89,-132 89,-151"/>
<text text-anchor="middle" x="56.5" y="-139" font-family="Helvetica,sans-Serif" font-size="10.00">_ExifMem</text>
</a>
</g>
</g>
<!-- Node2&#45;&gt;Node1 -->
<g id="edge1_Node000001_Node000002" class="edge">
<title>Node2&#45;&gt;Node1</title>
<g id="a_edge1_Node000001_Node000002"><a xlink:title=" ">
<path fill="none" stroke="#9a32cd" stroke-dasharray="5,2" d="M52.97,-120.84C50.68,-105.83 48.33,-84.64 49.5,-66 50.55,-49.33 53.35,-30.01 55.07,-19.12"/>
<polygon fill="#9a32cd" stroke="#9a32cd" points="49.45,-121.02 54.55,-130.3 56.35,-119.86 49.45,-121.02"/>
</a>
</g>
<text text-anchor="middle" x="64" y="-73" font-family="Helvetica,sans-Serif" font-size="10.00" fill="grey"> mem</text>
</g>
<!-- Node3 -->
<g id="Node000003" class="node">
<title>Node3</title>
<g id="a_Node000003"><a xlink:href="struct__ExifLog.html" target="_top" xlink:title=" ">
<polygon fill="white" stroke="#666666" points="145.5,-85 87.5,-85 87.5,-66 145.5,-66 145.5,-85"/>
<text text-anchor="middle" x="116.5" y="-73" font-family="Helvetica,sans-Serif" font-size="10.00">_ExifLog</text>
</a>
</g>
</g>
<!-- Node2&#45;&gt;Node3 -->
<g id="edge4_Node000003_Node000002" class="edge">
<title>Node2&#45;&gt;Node3</title>
<g id="a_edge4_Node000003_Node000002"><a xlink:title=" ">
<path fill="none" stroke="#9a32cd" stroke-dasharray="5,2" d="M72.46,-123.48C83.97,-111.2 99.03,-95.13 108.23,-85.32"/>
<polygon fill="#9a32cd" stroke="#9a32cd" points="70.16,-120.81 65.88,-130.5 75.27,-125.6 70.16,-120.81"/>
</a>
</g>
<text text-anchor="middle" x="104" y="-106" font-family="Helvetica,sans-Serif" font-size="10.00" fill="grey"> mem</text>
</g>
<!-- Node3&#45;&gt;Node1 -->
<g id="edge2_Node000001_Node000003" class="edge">
<title>Node3&#45;&gt;Node1</title>
<g id="a_edge2_Node000001_Node000003"><a xlink:title=" ">
<path fill="none" stroke="#9a32cd" stroke-dasharray="5,2" d="M100.54,-57.48C89.03,-45.2 73.97,-29.13 64.77,-19.32"/>
<polygon fill="#9a32cd" stroke="#9a32cd" points="97.73,-59.6 107.12,-64.5 102.84,-54.81 97.73,-59.6"/>
</a>
</g>
<text text-anchor="middle" x="99" y="-40" font-family="Helvetica,sans-Serif" font-size="10.00" fill="grey"> log</text>
</g>
<!-- Node3&#45;&gt;Node3 -->
<g id="edge3_Node000003_Node000003" class="edge">
<title>Node3&#45;&gt;Node3</title>
<g id="a_edge3_Node000003_Node000003"><a xlink:title=" ">
<path fill="none" stroke="#9a32cd" stroke-dasharray="5,2" d="M157.11,-80.5C161.02,-79.49 163.5,-77.82 163.5,-75.5 163.5,-71.38 155.67,-69.31 145.88,-69.31"/>
<polygon fill="#9a32cd" stroke="#9a32cd" points="156.96,-77 147.38,-81.53 157.69,-83.96 156.96,-77"/>
</a>
</g>
<text text-anchor="middle" x="176" y="-73" font-family="Helvetica,sans-Serif" font-size="10.00" fill="grey"> func</text>
</g>
</g>
</svg>
