<?xml version="1.0" encoding="UTF-8" standalone="no"?>
<!DOCTYPE svg PUBLIC "-//W3C//DTD SVG 1.1//EN"
 "http://www.w3.org/Graphics/SVG/1.1/DTD/svg11.dtd">
<!-- Generated by graphviz version 7.0.1 (0)
 -->
<!-- Title: _ExifDataPrivate Pages: 1 -->
<svg width="476pt" height="225pt"
 viewBox="0.00 0.00 475.50 225.00" xmlns="http://www.w3.org/2000/svg" xmlns:xlink="http://www.w3.org/1999/xlink">
<g id="graph0" class="graph" transform="scale(1 1) rotate(0) translate(4 221)">
<title>_ExifDataPrivate</title>
<!-- Node1 -->
<g id="Node000001" class="node">
<title>Node1</title>
<g id="a_Node000001"><a xlink:title=" ">
<polygon fill="#999999" stroke="#666666" points="256.5,-19 158.5,-19 158.5,0 256.5,0 256.5,-19"/>
<text text-anchor="middle" x="207.5" y="-7" font-family="Helvetica,sans-Serif" font-size="10.00">_ExifDataPrivate</text>
</a>
</g>
</g>
<!-- Node2 -->
<g id="Node000002" class="node">
<title>Node2</title>
<g id="a_Node000002"><a xlink:href="struct__ExifMnoteData.html" target="_top" xlink:title=" ">
<polygon fill="white" stroke="#666666" points="255,-85 160,-85 160,-66 255,-66 255,-85"/>
<text text-anchor="middle" x="207.5" y="-73" font-family="Helvetica,sans-Serif" font-size="10.00">_ExifMnoteData</text>
</a>
</g>
</g>
<!-- Node2&#45;&gt;Node1 -->
<g id="edge1_Node000001_Node000002" class="edge">
<title>Node2&#45;&gt;Node1</title>
<g id="a_edge1_Node000001_Node000002"><a xlink:title=" ">
<path fill="none" stroke="#9a32cd" stroke-dasharray="5,2" d="M207.5,-54.18C207.5,-42.44 207.5,-28.27 207.5,-19.32"/>
<polygon fill="#9a32cd" stroke="#9a32cd" points="204,-54.09 207.5,-64.09 211,-54.09 204,-54.09"/>
</a>
</g>
<text text-anchor="middle" x="217" y="-40" font-family="Helvetica,sans-Serif" font-size="10.00" fill="grey"> md</text>
</g>
<!-- Node3 -->
<g id="Node000003" class="node">
<title>Node3</title>
<g id="a_Node000003"><a xlink:href="struct__ExifMnoteDataPriv.html" target="_top" xlink:title=" ">
<polygon fill="white" stroke="#666666" points="193,-151 80,-151 80,-132 193,-132 193,-151"/>
<text text-anchor="middle" x="136.5" y="-139" font-family="Helvetica,sans-Serif" font-size="10.00">_ExifMnoteDataPriv</text>
</a>
</g>
</g>
<!-- Node3&#45;&gt;Node2 -->
<g id="edge2_Node000002_Node000003" class="edge">
<title>Node3&#45;&gt;Node2</title>
<g id="a_edge2_Node000002_Node000003"><a xlink:title=" ">
<path fill="none" stroke="#9a32cd" stroke-dasharray="5,2" d="M154.6,-124.19C168.31,-111.83 186.62,-95.32 197.71,-85.32"/>
<polygon fill="#9a32cd" stroke="#9a32cd" points="152.58,-121.29 147.5,-130.59 157.27,-126.49 152.58,-121.29"/>
</a>
</g>
<text text-anchor="middle" x="186.5" y="-106" font-family="Helvetica,sans-Serif" font-size="10.00" fill="grey"> priv</text>
</g>
<!-- Node4 -->
<g id="Node000004" class="node">
<title>Node4</title>
<g id="a_Node000004"><a xlink:href="struct__ExifMnoteDataMethods.html" target="_top" xlink:title=" ">
<polygon fill="white" stroke="#666666" points="348,-151 211,-151 211,-132 348,-132 348,-151"/>
<text text-anchor="middle" x="279.5" y="-139" font-family="Helvetica,sans-Serif" font-size="10.00">_ExifMnoteDataMethods</text>
</a>
</g>
</g>
<!-- Node4&#45;&gt;Node2 -->
<g id="edge3_Node000002_Node000004" class="edge">
<title>Node4&#45;&gt;Node2</title>
<g id="a_edge3_Node000002_Node000004"><a xlink:title=" ">
<path fill="none" stroke="#9a32cd" stroke-dasharray="5,2" d="M261.15,-124.19C247.25,-111.83 228.67,-95.32 217.43,-85.32"/>
<polygon fill="#9a32cd" stroke="#9a32cd" points="258.56,-126.57 268.36,-130.6 263.21,-121.34 258.56,-126.57"/>
</a>
</g>
<text text-anchor="middle" x="270.5" y="-106" font-family="Helvetica,sans-Serif" font-size="10.00" fill="grey"> methods</text>
</g>
<!-- Node5 -->
<g id="Node000005" class="node">
<title>Node5</title>
<g id="a_Node000005"><a xlink:href="struct__ExifLog.html" target="_top" xlink:title=" ">
<polygon fill="white" stroke="#666666" points="424.5,-151 366.5,-151 366.5,-132 424.5,-132 424.5,-151"/>
<text text-anchor="middle" x="395.5" y="-139" font-family="Helvetica,sans-Serif" font-size="10.00">_ExifLog</text>
</a>
</g>
</g>
<!-- Node5&#45;&gt;Node1 -->
<g id="edge8_Node000001_Node000005" class="edge">
<title>Node5&#45;&gt;Node1</title>
<g id="a_edge8_Node000001_Node000005"><a xlink:title=" ">
<path fill="none" stroke="#9a32cd" stroke-dasharray="5,2" d="M376.44,-124.2C368.3,-117.44 358.59,-109.64 349.5,-103 304.59,-70.21 248.59,-35.42 222.36,-19.45"/>
<polygon fill="#9a32cd" stroke="#9a32cd" points="374.09,-126.8 384,-130.56 378.6,-121.44 374.09,-126.8"/>
</a>
</g>
<text text-anchor="middle" x="331" y="-73" font-family="Helvetica,sans-Serif" font-size="10.00" fill="grey"> log</text>
</g>
<!-- Node5&#45;&gt;Node2 -->
<g id="edge4_Node000002_Node000005" class="edge">
<title>Node5&#45;&gt;Node2</title>
<g id="a_edge4_Node000002_Node000005"><a xlink:title=" ">
<path fill="none" stroke="#9a32cd" stroke-dasharray="5,2" d="M363.02,-127.33C344.05,-119.83 319.57,-110.46 297.5,-103 278.67,-96.64 257.35,-90.32 240.19,-85.45"/>
<polygon fill="#9a32cd" stroke="#9a32cd" points="361.51,-130.49 372.09,-130.95 364.1,-123.99 361.51,-130.49"/>
</a>
</g>
<text text-anchor="middle" x="336" y="-106" font-family="Helvetica,sans-Serif" font-size="10.00" fill="grey"> log</text>
</g>
<!-- Node5&#45;&gt;Node5 -->
<g id="edge5_Node000005_Node000005" class="edge">
<title>Node5&#45;&gt;Node5</title>
<g id="a_edge5_Node000005_Node000005"><a xlink:title=" ">
<path fill="none" stroke="#9a32cd" stroke-dasharray="5,2" d="M436.11,-146.5C440.02,-145.49 442.5,-143.82 442.5,-141.5 442.5,-137.38 434.67,-135.31 424.88,-135.31"/>
<polygon fill="#9a32cd" stroke="#9a32cd" points="435.96,-143 426.38,-147.53 436.69,-149.96 435.96,-143"/>
</a>
</g>
<text text-anchor="middle" x="455" y="-139" font-family="Helvetica,sans-Serif" font-size="10.00" fill="grey"> func</text>
</g>
<!-- Node6 -->
<g id="Node000006" class="node">
<title>Node6</title>
<g id="a_Node000006"><a xlink:href="struct__ExifMem.html" target="_top" xlink:title=" ">
<polygon fill="white" stroke="#666666" points="65,-217 0,-217 0,-198 65,-198 65,-217"/>
<text text-anchor="middle" x="32.5" y="-205" font-family="Helvetica,sans-Serif" font-size="10.00">_ExifMem</text>
</a>
</g>
</g>
<!-- Node6&#45;&gt;Node1 -->
<g id="edge9_Node000001_Node000006" class="edge">
<title>Node6&#45;&gt;Node1</title>
<g id="a_edge9_Node000001_Node000006"><a xlink:title=" ">
<path fill="none" stroke="#9a32cd" stroke-dasharray="5,2" d="M25.81,-186.87C19.54,-164.66 13.33,-128.31 29.5,-103 59.97,-55.31 123.48,-30.89 165.8,-19.42"/>
<polygon fill="#9a32cd" stroke="#9a32cd" points="22.39,-187.64 28.71,-196.14 29.07,-185.55 22.39,-187.64"/>
</a>
</g>
<text text-anchor="middle" x="44" y="-106" font-family="Helvetica,sans-Serif" font-size="10.00" fill="grey"> mem</text>
</g>
<!-- Node6&#45;&gt;Node2 -->
<g id="edge7_Node000002_Node000006" class="edge">
<title>Node6&#45;&gt;Node2</title>
<g id="a_edge7_Node000002_Node000006"><a xlink:title=" ">
<path fill="none" stroke="#9a32cd" stroke-dasharray="5,2" d="M29.81,-186.46C28.75,-170.02 30.06,-147.08 42.5,-132 71.06,-97.38 122.01,-84.25 159.76,-79.33"/>
<polygon fill="#9a32cd" stroke="#9a32cd" points="26.29,-186.43 30.78,-196.02 33.25,-185.72 26.29,-186.43"/>
</a>
</g>
<text text-anchor="middle" x="57" y="-139" font-family="Helvetica,sans-Serif" font-size="10.00" fill="grey"> mem</text>
</g>
<!-- Node6&#45;&gt;Node5 -->
<g id="edge6_Node000005_Node000006" class="edge">
<title>Node6&#45;&gt;Node5</title>
<g id="a_edge6_Node000005_Node000006"><a xlink:title=" ">
<path fill="none" stroke="#9a32cd" stroke-dasharray="5,2" d="M76.37,-199.74C138.93,-189.92 257.31,-170.75 357.5,-151 360.29,-150.45 363.18,-149.85 366.07,-149.24"/>
<polygon fill="#9a32cd" stroke="#9a32cd" points="76.19,-196.22 66.85,-201.22 77.27,-203.14 76.19,-196.22"/>
</a>
</g>
<text text-anchor="middle" x="274" y="-172" font-family="Helvetica,sans-Serif" font-size="10.00" fill="grey"> mem</text>
</g>
</g>
</svg>
