<?xml version="1.0" encoding="UTF-8" standalone="no"?>
<!DOCTYPE svg PUBLIC "-//W3C//DTD SVG 1.1//EN"
 "http://www.w3.org/Graphics/SVG/1.1/DTD/svg11.dtd">
<!-- Generated by graphviz version 2.44.1 (0)
 -->
<!-- Title: _ExifDataPrivate Pages: 1 -->
<svg width="476pt" height="229pt"
 viewBox="0.00 0.00 475.50 229.00" xmlns="http://www.w3.org/2000/svg" xmlns:xlink="http://www.w3.org/1999/xlink">
<g id="graph0" class="graph" transform="scale(1 1) rotate(0) translate(4 225)">
<title>_ExifDataPrivate</title>
<polygon fill="white" stroke="transparent" points="-4,4 -4,-225 471.5,-225 471.5,4 -4,4"/>
<!-- Node1 -->
<g id="node1" class="node">
<title>Node1</title>
<g id="a_node1"><a xlink:title=" ">
<polygon fill="#bfbfbf" stroke="black" points="170.5,-0.5 170.5,-19.5 268.5,-19.5 268.5,-0.5 170.5,-0.5"/>
<text text-anchor="middle" x="219.5" y="-7.5" font-family="Helvetica,sans-Serif" font-size="10.00">_ExifDataPrivate</text>
</a>
</g>
</g>
<!-- Node2 -->
<g id="node2" class="node">
<title>Node2</title>
<g id="a_node2"><a xlink:href="struct__ExifMnoteData.html" target="_top" xlink:title=" ">
<polygon fill="white" stroke="black" points="172,-67.5 172,-86.5 267,-86.5 267,-67.5 172,-67.5"/>
<text text-anchor="middle" x="219.5" y="-74.5" font-family="Helvetica,sans-Serif" font-size="10.00">_ExifMnoteData</text>
</a>
</g>
</g>
<!-- Node2&#45;&gt;Node1 -->
<g id="edge1" class="edge">
<title>Node2&#45;&gt;Node1</title>
<path fill="none" stroke="#9a32cd" stroke-dasharray="5,2" d="M219.5,-57.04C219.5,-44.67 219.5,-29.12 219.5,-19.63"/>
<polygon fill="#9a32cd" stroke="#9a32cd" points="216,-57.23 219.5,-67.23 223,-57.23 216,-57.23"/>
<text text-anchor="middle" x="229" y="-41" font-family="Helvetica,sans-Serif" font-size="10.00"> md</text>
</g>
<!-- Node3 -->
<g id="node3" class="node">
<title>Node3</title>
<g id="a_node3"><a xlink:href="struct__ExifMnoteDataMethods.html" target="_top" xlink:title=" ">
<polygon fill="white" stroke="black" points="80,-134.5 80,-153.5 217,-153.5 217,-134.5 80,-134.5"/>
<text text-anchor="middle" x="148.5" y="-141.5" font-family="Helvetica,sans-Serif" font-size="10.00">_ExifMnoteDataMethods</text>
</a>
</g>
</g>
<!-- Node3&#45;&gt;Node2 -->
<g id="edge2" class="edge">
<title>Node3&#45;&gt;Node2</title>
<path fill="none" stroke="#9a32cd" stroke-dasharray="5,2" d="M165.59,-127.36C179.55,-114.58 198.76,-96.99 210.08,-86.63"/>
<polygon fill="#9a32cd" stroke="#9a32cd" points="163.09,-124.9 158.08,-134.23 167.81,-130.06 163.09,-124.9"/>
<text text-anchor="middle" x="210.5" y="-108" font-family="Helvetica,sans-Serif" font-size="10.00"> methods</text>
</g>
<!-- Node4 -->
<g id="node4" class="node">
<title>Node4</title>
<g id="a_node4"><a xlink:href="struct__ExifMnoteDataPriv.html" target="_top" xlink:title=" ">
<polygon fill="white" stroke="black" points="235,-134.5 235,-153.5 348,-153.5 348,-134.5 235,-134.5"/>
<text text-anchor="middle" x="291.5" y="-141.5" font-family="Helvetica,sans-Serif" font-size="10.00">_ExifMnoteDataPriv</text>
</a>
</g>
</g>
<!-- Node4&#45;&gt;Node2 -->
<g id="edge3" class="edge">
<title>Node4&#45;&gt;Node2</title>
<path fill="none" stroke="#9a32cd" stroke-dasharray="5,2" d="M274.17,-127.36C260.02,-114.58 240.54,-96.99 229.06,-86.63"/>
<polygon fill="#9a32cd" stroke="#9a32cd" points="272.02,-130.13 281.79,-134.23 276.71,-124.93 272.02,-130.13"/>
<text text-anchor="middle" x="270.5" y="-108" font-family="Helvetica,sans-Serif" font-size="10.00"> priv</text>
</g>
<!-- Node5 -->
<g id="node5" class="node">
<title>Node5</title>
<g id="a_node5"><a xlink:href="struct__ExifLog.html" target="_top" xlink:title=" ">
<polygon fill="white" stroke="black" points="366.5,-134.5 366.5,-153.5 424.5,-153.5 424.5,-134.5 366.5,-134.5"/>
<text text-anchor="middle" x="395.5" y="-141.5" font-family="Helvetica,sans-Serif" font-size="10.00">_ExifLog</text>
</a>
</g>
</g>
<!-- Node5&#45;&gt;Node1 -->
<g id="edge8" class="edge">
<title>Node5&#45;&gt;Node1</title>
<path fill="none" stroke="#9a32cd" stroke-dasharray="5,2" d="M375.93,-128.32C339.04,-100.65 260.25,-41.56 230.86,-19.52"/>
<polygon fill="#9a32cd" stroke="#9a32cd" points="373.85,-131.14 383.95,-134.34 378.05,-125.54 373.85,-131.14"/>
<text text-anchor="middle" x="328" y="-74.5" font-family="Helvetica,sans-Serif" font-size="10.00"> log</text>
</g>
<!-- Node5&#45;&gt;Node2 -->
<g id="edge4" class="edge">
<title>Node5&#45;&gt;Node2</title>
<path fill="none" stroke="#9a32cd" stroke-dasharray="5,2" d="M362.39,-130.77C327.46,-117.87 273.32,-97.88 242.69,-86.56"/>
<polygon fill="#9a32cd" stroke="#9a32cd" points="361.54,-134.19 372.13,-134.37 363.96,-127.62 361.54,-134.19"/>
<text text-anchor="middle" x="327" y="-108" font-family="Helvetica,sans-Serif" font-size="10.00"> log</text>
</g>
<!-- Node5&#45;&gt;Node5 -->
<g id="edge5" class="edge">
<title>Node5&#45;&gt;Node5</title>
<path fill="none" stroke="#9a32cd" stroke-dasharray="5,2" d="M435.1,-149.08C439.59,-148.13 442.5,-146.44 442.5,-144 442.5,-140 434.67,-138 424.88,-138"/>
<polygon fill="#9a32cd" stroke="#9a32cd" points="434.52,-145.62 424.88,-150 435.15,-152.59 434.52,-145.62"/>
<text text-anchor="middle" x="455" y="-141.5" font-family="Helvetica,sans-Serif" font-size="10.00"> func</text>
</g>
<!-- Node6 -->
<g id="node6" class="node">
<title>Node6</title>
<g id="a_node6"><a xlink:href="struct__ExifMem.html" target="_top" xlink:title=" ">
<polygon fill="white" stroke="black" points="0,-201.5 0,-220.5 65,-220.5 65,-201.5 0,-201.5"/>
<text text-anchor="middle" x="32.5" y="-208.5" font-family="Helvetica,sans-Serif" font-size="10.00">_ExifMem</text>
</a>
</g>
</g>
<!-- Node6&#45;&gt;Node1 -->
<g id="edge9" class="edge">
<title>Node6&#45;&gt;Node1</title>
<path fill="none" stroke="#9a32cd" stroke-dasharray="5,2" d="M26.13,-191.9C19.47,-169.5 12.18,-131.12 29.5,-105 62.55,-55.16 130.2,-30.72 175.2,-19.51"/>
<polygon fill="#9a32cd" stroke="#9a32cd" points="22.83,-193.06 29.24,-201.49 29.48,-190.9 22.83,-193.06"/>
<text text-anchor="middle" x="44" y="-108" font-family="Helvetica,sans-Serif" font-size="10.00"> mem</text>
</g>
<!-- Node6&#45;&gt;Node2 -->
<g id="edge7" class="edge">
<title>Node6&#45;&gt;Node2</title>
<path fill="none" stroke="#9a32cd" stroke-dasharray="5,2" d="M29.74,-191.02C28.39,-174.14 29.3,-149.74 42.5,-134 74.18,-96.21 131.21,-83.59 171.98,-79.55"/>
<polygon fill="#9a32cd" stroke="#9a32cd" points="26.3,-191.78 30.91,-201.31 33.26,-190.98 26.3,-191.78"/>
<text text-anchor="middle" x="57" y="-141.5" font-family="Helvetica,sans-Serif" font-size="10.00"> mem</text>
</g>
<!-- Node6&#45;&gt;Node5 -->
<g id="edge6" class="edge">
<title>Node6&#45;&gt;Node5</title>
<path fill="none" stroke="#9a32cd" stroke-dasharray="5,2" d="M75.62,-203.44C138.02,-193.75 257.01,-174.54 357.5,-154 360.42,-153.4 363.46,-152.74 366.49,-152.06"/>
<polygon fill="#9a32cd" stroke="#9a32cd" points="74.73,-200.04 65.38,-205.02 75.8,-206.96 74.73,-200.04"/>
<text text-anchor="middle" x="274" y="-175" font-family="Helvetica,sans-Serif" font-size="10.00"> mem</text>
</g>
</g>
</svg>
