<?xml version="1.0" encoding="UTF-8" standalone="no"?>
<!DOCTYPE svg PUBLIC "-//W3C//DTD SVG 1.1//EN"
 "http://www.w3.org/Graphics/SVG/1.1/DTD/svg11.dtd">
<!-- Generated by graphviz version 2.44.1 (0)
 -->
<!-- Title: _ExifMnoteDataOlympus Pages: 1 -->
<svg width="461pt" height="229pt"
 viewBox="0.00 0.00 460.50 229.00" xmlns="http://www.w3.org/2000/svg" xmlns:xlink="http://www.w3.org/1999/xlink">
<g id="graph0" class="graph" transform="scale(1 1) rotate(0) translate(4 225)">
<title>_ExifMnoteDataOlympus</title>
<polygon fill="white" stroke="transparent" points="-4,4 -4,-225 456.5,-225 456.5,4 -4,4"/>
<!-- Node1 -->
<g id="node1" class="node">
<title>Node1</title>
<g id="a_node1"><a xlink:title=" ">
<polygon fill="#bfbfbf" stroke="black" points="92.5,-0.5 92.5,-19.5 230.5,-19.5 230.5,-0.5 92.5,-0.5"/>
<text text-anchor="middle" x="161.5" y="-7.5" font-family="Helvetica,sans-Serif" font-size="10.00">_ExifMnoteDataOlympus</text>
</a>
</g>
</g>
<!-- Node2 -->
<g id="node2" class="node">
<title>Node2</title>
<g id="a_node2"><a xlink:href="struct__MnoteOlympusEntry.html" target="_top" xlink:title=" ">
<polygon fill="white" stroke="black" points="70.5,-67.5 70.5,-86.5 192.5,-86.5 192.5,-67.5 70.5,-67.5"/>
<text text-anchor="middle" x="131.5" y="-74.5" font-family="Helvetica,sans-Serif" font-size="10.00">_MnoteOlympusEntry</text>
</a>
</g>
</g>
<!-- Node2&#45;&gt;Node1 -->
<g id="edge1" class="edge">
<title>Node2&#45;&gt;Node1</title>
<path fill="none" stroke="#9a32cd" stroke-dasharray="5,2" d="M139.9,-57.79C145.67,-45.31 153.05,-29.31 157.52,-19.63"/>
<polygon fill="#9a32cd" stroke="#9a32cd" points="136.56,-56.69 135.55,-67.23 142.91,-59.62 136.56,-56.69"/>
<text text-anchor="middle" x="167" y="-41" font-family="Helvetica,sans-Serif" font-size="10.00"> entries</text>
</g>
<!-- Node3 -->
<g id="node3" class="node">
<title>Node3</title>
<g id="a_node3"><a xlink:href="struct__ExifMnoteData.html" target="_top" xlink:title=" ">
<polygon fill="white" stroke="black" points="211,-67.5 211,-86.5 306,-86.5 306,-67.5 211,-67.5"/>
<text text-anchor="middle" x="258.5" y="-74.5" font-family="Helvetica,sans-Serif" font-size="10.00">_ExifMnoteData</text>
</a>
</g>
</g>
<!-- Node3&#45;&gt;Node1 -->
<g id="edge2" class="edge">
<title>Node3&#45;&gt;Node1</title>
<path fill="none" stroke="#9a32cd" stroke-dasharray="5,2" d="M237,-61.59C217.81,-48.74 190.35,-30.33 174.37,-19.63"/>
<polygon fill="#9a32cd" stroke="#9a32cd" points="235.16,-64.57 245.42,-67.23 239.06,-58.76 235.16,-64.57"/>
<text text-anchor="middle" x="234" y="-41" font-family="Helvetica,sans-Serif" font-size="10.00"> parent</text>
</g>
<!-- Node4 -->
<g id="node4" class="node">
<title>Node4</title>
<g id="a_node4"><a xlink:href="struct__ExifMnoteDataMethods.html" target="_top" xlink:title=" ">
<polygon fill="white" stroke="black" points="0,-134.5 0,-153.5 137,-153.5 137,-134.5 0,-134.5"/>
<text text-anchor="middle" x="68.5" y="-141.5" font-family="Helvetica,sans-Serif" font-size="10.00">_ExifMnoteDataMethods</text>
</a>
</g>
</g>
<!-- Node4&#45;&gt;Node3 -->
<g id="edge3" class="edge">
<title>Node4&#45;&gt;Node3</title>
<path fill="none" stroke="#9a32cd" stroke-dasharray="5,2" d="M103.28,-131.1C140.95,-118.21 200.12,-97.97 233.47,-86.56"/>
<polygon fill="#9a32cd" stroke="#9a32cd" points="102.06,-127.82 93.73,-134.37 104.33,-134.44 102.06,-127.82"/>
<text text-anchor="middle" x="198.5" y="-108" font-family="Helvetica,sans-Serif" font-size="10.00"> methods</text>
</g>
<!-- Node5 -->
<g id="node5" class="node">
<title>Node5</title>
<g id="a_node5"><a xlink:href="struct__ExifMnoteDataPriv.html" target="_top" xlink:title=" ">
<polygon fill="white" stroke="black" points="155,-134.5 155,-153.5 268,-153.5 268,-134.5 155,-134.5"/>
<text text-anchor="middle" x="211.5" y="-141.5" font-family="Helvetica,sans-Serif" font-size="10.00">_ExifMnoteDataPriv</text>
</a>
</g>
</g>
<!-- Node5&#45;&gt;Node3 -->
<g id="edge4" class="edge">
<title>Node5&#45;&gt;Node3</title>
<path fill="none" stroke="#9a32cd" stroke-dasharray="5,2" d="M223.86,-125.9C232.99,-113.27 245.05,-96.6 252.26,-86.63"/>
<polygon fill="#9a32cd" stroke="#9a32cd" points="220.86,-124.08 217.84,-134.23 226.53,-128.18 220.86,-124.08"/>
<text text-anchor="middle" x="249.5" y="-108" font-family="Helvetica,sans-Serif" font-size="10.00"> priv</text>
</g>
<!-- Node6 -->
<g id="node6" class="node">
<title>Node6</title>
<g id="a_node6"><a xlink:href="struct__ExifLog.html" target="_top" xlink:title=" ">
<polygon fill="white" stroke="black" points="351.5,-134.5 351.5,-153.5 409.5,-153.5 409.5,-134.5 351.5,-134.5"/>
<text text-anchor="middle" x="380.5" y="-141.5" font-family="Helvetica,sans-Serif" font-size="10.00">_ExifLog</text>
</a>
</g>
</g>
<!-- Node6&#45;&gt;Node3 -->
<g id="edge5" class="edge">
<title>Node6&#45;&gt;Node3</title>
<path fill="none" stroke="#9a32cd" stroke-dasharray="5,2" d="M358.83,-128.78C347.1,-121.33 332.24,-112.26 318.5,-105 305.78,-98.27 291.04,-91.63 279.36,-86.61"/>
<polygon fill="#9a32cd" stroke="#9a32cd" points="357.18,-131.88 367.48,-134.35 360.96,-125.99 357.18,-131.88"/>
<text text-anchor="middle" x="347" y="-108" font-family="Helvetica,sans-Serif" font-size="10.00"> log</text>
</g>
<!-- Node6&#45;&gt;Node6 -->
<g id="edge6" class="edge">
<title>Node6&#45;&gt;Node6</title>
<path fill="none" stroke="#9a32cd" stroke-dasharray="5,2" d="M420.1,-149.08C424.59,-148.13 427.5,-146.44 427.5,-144 427.5,-140 419.67,-138 409.88,-138"/>
<polygon fill="#9a32cd" stroke="#9a32cd" points="419.52,-145.62 409.88,-150 420.15,-152.59 419.52,-145.62"/>
<text text-anchor="middle" x="440" y="-141.5" font-family="Helvetica,sans-Serif" font-size="10.00"> func</text>
</g>
<!-- Node7 -->
<g id="node7" class="node">
<title>Node7</title>
<g id="a_node7"><a xlink:href="struct__ExifMem.html" target="_top" xlink:title=" ">
<polygon fill="white" stroke="black" points="288,-201.5 288,-220.5 353,-220.5 353,-201.5 288,-201.5"/>
<text text-anchor="middle" x="320.5" y="-208.5" font-family="Helvetica,sans-Serif" font-size="10.00">_ExifMem</text>
</a>
</g>
</g>
<!-- Node7&#45;&gt;Node3 -->
<g id="edge8" class="edge">
<title>Node7&#45;&gt;Node3</title>
<path fill="none" stroke="#9a32cd" stroke-dasharray="5,2" d="M312.06,-192.04C298.53,-163.22 272.46,-107.72 262.5,-86.52"/>
<polygon fill="#9a32cd" stroke="#9a32cd" points="309.01,-193.78 316.43,-201.34 315.35,-190.8 309.01,-193.78"/>
<text text-anchor="middle" x="308" y="-141.5" font-family="Helvetica,sans-Serif" font-size="10.00"> mem</text>
</g>
<!-- Node7&#45;&gt;Node6 -->
<g id="edge7" class="edge">
<title>Node7&#45;&gt;Node6</title>
<path fill="none" stroke="#9a32cd" stroke-dasharray="5,2" d="M335.61,-193.63C347.34,-180.92 363.15,-163.8 372.54,-153.63"/>
<polygon fill="#9a32cd" stroke="#9a32cd" points="332.8,-191.51 328.59,-201.23 337.95,-196.26 332.8,-191.51"/>
<text text-anchor="middle" x="368" y="-175" font-family="Helvetica,sans-Serif" font-size="10.00"> mem</text>
</g>
</g>
</svg>
