<?xml version="1.0" encoding="UTF-8" standalone="no"?>
<!DOCTYPE svg PUBLIC "-//W3C//DTD SVG 1.1//EN"
 "http://www.w3.org/Graphics/SVG/1.1/DTD/svg11.dtd">
<!-- Generated by graphviz version 7.0.1 (0)
 -->
<!-- Title: _ExifMnoteDataPentax Pages: 1 -->
<svg width="461pt" height="225pt"
 viewBox="0.00 0.00 460.50 225.00" xmlns="http://www.w3.org/2000/svg" xmlns:xlink="http://www.w3.org/1999/xlink">
<g id="graph0" class="graph" transform="scale(1 1) rotate(0) translate(4 221)">
<title>_ExifMnoteDataPentax</title>
<!-- Node1 -->
<g id="Node000001" class="node">
<title>Node1</title>
<g id="a_Node000001"><a xlink:title=" ">
<polygon fill="#999999" stroke="#666666" points="376.5,-19 248.5,-19 248.5,0 376.5,0 376.5,-19"/>
<text text-anchor="middle" x="312.5" y="-7" font-family="Helvetica,sans-Serif" font-size="10.00">_ExifMnoteDataPentax</text>
</a>
</g>
</g>
<!-- Node2 -->
<g id="Node000002" class="node">
<title>Node2</title>
<g id="a_Node000002"><a xlink:href="struct__ExifMnoteData.html" target="_top" xlink:title=" ">
<polygon fill="white" stroke="#666666" points="299,-85 204,-85 204,-66 299,-66 299,-85"/>
<text text-anchor="middle" x="251.5" y="-73" font-family="Helvetica,sans-Serif" font-size="10.00">_ExifMnoteData</text>
</a>
</g>
</g>
<!-- Node2&#45;&gt;Node1 -->
<g id="edge1_Node000001_Node000002" class="edge">
<title>Node2&#45;&gt;Node1</title>
<g id="a_edge1_Node000001_Node000002"><a xlink:title=" ">
<path fill="none" stroke="#9a32cd" stroke-dasharray="5,2" d="M267.72,-57.48C279.42,-45.2 294.74,-29.13 304.09,-19.32"/>
<polygon fill="#9a32cd" stroke="#9a32cd" points="265.39,-54.85 261.03,-64.51 270.46,-59.68 265.39,-54.85"/>
</a>
</g>
<text text-anchor="middle" x="304" y="-40" font-family="Helvetica,sans-Serif" font-size="10.00" fill="grey"> parent</text>
</g>
<!-- Node3 -->
<g id="Node000003" class="node">
<title>Node3</title>
<g id="a_Node000003"><a xlink:href="struct__ExifMnoteDataPriv.html" target="_top" xlink:title=" ">
<polygon fill="white" stroke="#666666" points="113,-151 0,-151 0,-132 113,-132 113,-151"/>
<text text-anchor="middle" x="56.5" y="-139" font-family="Helvetica,sans-Serif" font-size="10.00">_ExifMnoteDataPriv</text>
</a>
</g>
</g>
<!-- Node3&#45;&gt;Node2 -->
<g id="edge2_Node000002_Node000003" class="edge">
<title>Node3&#45;&gt;Node2</title>
<g id="a_edge2_Node000002_Node000003"><a xlink:title=" ">
<path fill="none" stroke="#9a32cd" stroke-dasharray="5,2" d="M94.29,-128.1C132.45,-115.57 190.45,-96.54 224.3,-85.43"/>
<polygon fill="#9a32cd" stroke="#9a32cd" points="93.46,-124.69 85.05,-131.13 95.64,-131.34 93.46,-124.69"/>
</a>
</g>
<text text-anchor="middle" x="177.5" y="-106" font-family="Helvetica,sans-Serif" font-size="10.00" fill="grey"> priv</text>
</g>
<!-- Node4 -->
<g id="Node000004" class="node">
<title>Node4</title>
<g id="a_Node000004"><a xlink:href="struct__ExifMnoteDataMethods.html" target="_top" xlink:title=" ">
<polygon fill="white" stroke="#666666" points="268,-151 131,-151 131,-132 268,-132 268,-151"/>
<text text-anchor="middle" x="199.5" y="-139" font-family="Helvetica,sans-Serif" font-size="10.00">_ExifMnoteDataMethods</text>
</a>
</g>
</g>
<!-- Node4&#45;&gt;Node2 -->
<g id="edge3_Node000002_Node000004" class="edge">
<title>Node4&#45;&gt;Node2</title>
<g id="a_edge3_Node000002_Node000004"><a xlink:title=" ">
<path fill="none" stroke="#9a32cd" stroke-dasharray="5,2" d="M213.91,-122.76C223.81,-110.58 236.52,-94.94 244.33,-85.32"/>
<polygon fill="#9a32cd" stroke="#9a32cd" points="211.27,-120.46 207.68,-130.43 216.71,-124.87 211.27,-120.46"/>
</a>
</g>
<text text-anchor="middle" x="252.5" y="-106" font-family="Helvetica,sans-Serif" font-size="10.00" fill="grey"> methods</text>
</g>
<!-- Node5 -->
<g id="Node000005" class="node">
<title>Node5</title>
<g id="a_Node000005"><a xlink:href="struct__ExifLog.html" target="_top" xlink:title=" ">
<polygon fill="white" stroke="#666666" points="409.5,-151 351.5,-151 351.5,-132 409.5,-132 409.5,-151"/>
<text text-anchor="middle" x="380.5" y="-139" font-family="Helvetica,sans-Serif" font-size="10.00">_ExifLog</text>
</a>
</g>
</g>
<!-- Node5&#45;&gt;Node2 -->
<g id="edge4_Node000002_Node000005" class="edge">
<title>Node5&#45;&gt;Node2</title>
<g id="a_edge4_Node000002_Node000005"><a xlink:title=" ">
<path fill="none" stroke="#9a32cd" stroke-dasharray="5,2" d="M357.89,-125.57C346.36,-118.28 331.96,-109.67 318.5,-103 305.16,-96.39 289.75,-90.2 277.07,-85.46"/>
<polygon fill="#9a32cd" stroke="#9a32cd" points="355.98,-128.51 366.29,-130.98 359.77,-122.62 355.98,-128.51"/>
</a>
</g>
<text text-anchor="middle" x="348" y="-106" font-family="Helvetica,sans-Serif" font-size="10.00" fill="grey"> log</text>
</g>
<!-- Node5&#45;&gt;Node5 -->
<g id="edge5_Node000005_Node000005" class="edge">
<title>Node5&#45;&gt;Node5</title>
<g id="a_edge5_Node000005_Node000005"><a xlink:title=" ">
<path fill="none" stroke="#9a32cd" stroke-dasharray="5,2" d="M421.11,-146.5C425.02,-145.49 427.5,-143.82 427.5,-141.5 427.5,-137.38 419.67,-135.31 409.88,-135.31"/>
<polygon fill="#9a32cd" stroke="#9a32cd" points="420.96,-143 411.38,-147.53 421.69,-149.96 420.96,-143"/>
</a>
</g>
<text text-anchor="middle" x="440" y="-139" font-family="Helvetica,sans-Serif" font-size="10.00" fill="grey"> func</text>
</g>
<!-- Node6 -->
<g id="Node000006" class="node">
<title>Node6</title>
<g id="a_Node000006"><a xlink:href="struct__ExifMem.html" target="_top" xlink:title=" ">
<polygon fill="white" stroke="#666666" points="353,-217 288,-217 288,-198 353,-198 353,-217"/>
<text text-anchor="middle" x="320.5" y="-205" font-family="Helvetica,sans-Serif" font-size="10.00">_ExifMem</text>
</a>
</g>
</g>
<!-- Node6&#45;&gt;Node2 -->
<g id="edge7_Node000002_Node000006" class="edge">
<title>Node6&#45;&gt;Node2</title>
<g id="a_edge7_Node000002_Node000006"><a xlink:title=" ">
<path fill="none" stroke="#9a32cd" stroke-dasharray="5,2" d="M315.47,-186.75C309.31,-164.96 297.42,-129.48 279.5,-103 275,-96.35 268.56,-90.11 263,-85.36"/>
<polygon fill="#9a32cd" stroke="#9a32cd" points="312.01,-187.35 317.98,-196.1 318.77,-185.54 312.01,-187.35"/>
</a>
</g>
<text text-anchor="middle" x="318" y="-139" font-family="Helvetica,sans-Serif" font-size="10.00" fill="grey"> mem</text>
</g>
<!-- Node6&#45;&gt;Node5 -->
<g id="edge6_Node000005_Node000006" class="edge">
<title>Node6&#45;&gt;Node5</title>
<g id="a_edge6_Node000005_Node000006"><a xlink:title=" ">
<path fill="none" stroke="#9a32cd" stroke-dasharray="5,2" d="M336.46,-189.48C347.97,-177.2 363.03,-161.13 372.23,-151.32"/>
<polygon fill="#9a32cd" stroke="#9a32cd" points="334.16,-186.81 329.88,-196.5 339.27,-191.6 334.16,-186.81"/>
</a>
</g>
<text text-anchor="middle" x="369" y="-172" font-family="Helvetica,sans-Serif" font-size="10.00" fill="grey"> mem</text>
</g>
<!-- Node7 -->
<g id="Node000007" class="node">
<title>Node7</title>
<g id="a_Node000007"><a xlink:href="struct__MnotePentaxEntry.html" target="_top" xlink:title=" ">
<polygon fill="white" stroke="#666666" points="429.5,-85 317.5,-85 317.5,-66 429.5,-66 429.5,-85"/>
<text text-anchor="middle" x="373.5" y="-73" font-family="Helvetica,sans-Serif" font-size="10.00">_MnotePentaxEntry</text>
</a>
</g>
</g>
<!-- Node7&#45;&gt;Node1 -->
<g id="edge8_Node000001_Node000007" class="edge">
<title>Node7&#45;&gt;Node1</title>
<g id="a_edge8_Node000001_Node000007"><a xlink:title=" ">
<path fill="none" stroke="#9a32cd" stroke-dasharray="5,2" d="M357.28,-57.48C345.58,-45.2 330.26,-29.13 320.91,-19.32"/>
<polygon fill="#9a32cd" stroke="#9a32cd" points="354.54,-59.68 363.97,-64.51 359.61,-54.85 354.54,-59.68"/>
</a>
</g>
<text text-anchor="middle" x="366" y="-40" font-family="Helvetica,sans-Serif" font-size="10.00" fill="grey"> entries</text>
</g>
</g>
</svg>
