<?xml version="1.0" encoding="UTF-8" standalone="no"?>
<!DOCTYPE svg PUBLIC "-//W3C//DTD SVG 1.1//EN"
 "http://www.w3.org/Graphics/SVG/1.1/DTD/svg11.dtd">
<!-- Generated by graphviz version 2.44.1 (0)
 -->
<!-- Title: _ExifLoader Pages: 1 -->
<svg width="173pt" height="162pt"
 viewBox="0.00 0.00 172.50 162.00" xmlns="http://www.w3.org/2000/svg" xmlns:xlink="http://www.w3.org/1999/xlink">
<g id="graph0" class="graph" transform="scale(1 1) rotate(0) translate(4 158)">
<title>_ExifLoader</title>
<polygon fill="white" stroke="transparent" points="-4,4 -4,-158 168.5,-158 168.5,4 -4,4"/>
<!-- Node1 -->
<g id="node1" class="node">
<title>Node1</title>
<g id="a_node1"><a xlink:title=" ">
<polygon fill="#bfbfbf" stroke="black" points="6.5,-0.5 6.5,-19.5 80.5,-19.5 80.5,-0.5 6.5,-0.5"/>
<text text-anchor="middle" x="43.5" y="-7.5" font-family="Helvetica,sans-Serif" font-size="10.00">_ExifLoader</text>
</a>
</g>
</g>
<!-- Node2 -->
<g id="node2" class="node">
<title>Node2</title>
<g id="a_node2"><a xlink:href="struct__ExifLog.html" target="_top" xlink:title=" ">
<polygon fill="white" stroke="black" points="63.5,-67.5 63.5,-86.5 121.5,-86.5 121.5,-67.5 63.5,-67.5"/>
<text text-anchor="middle" x="92.5" y="-74.5" font-family="Helvetica,sans-Serif" font-size="10.00">_ExifLog</text>
</a>
</g>
</g>
<!-- Node2&#45;&gt;Node1 -->
<g id="edge1" class="edge">
<title>Node2&#45;&gt;Node1</title>
<path fill="none" stroke="#9a32cd" stroke-dasharray="5,2" d="M79.61,-58.9C70.09,-46.27 57.52,-29.6 50,-19.63"/>
<polygon fill="#9a32cd" stroke="#9a32cd" points="77.08,-61.36 85.89,-67.23 82.67,-57.14 77.08,-61.36"/>
<text text-anchor="middle" x="80" y="-41" font-family="Helvetica,sans-Serif" font-size="10.00"> log</text>
</g>
<!-- Node2&#45;&gt;Node2 -->
<g id="edge2" class="edge">
<title>Node2&#45;&gt;Node2</title>
<path fill="none" stroke="#9a32cd" stroke-dasharray="5,2" d="M132.1,-82.08C136.59,-81.13 139.5,-79.44 139.5,-77 139.5,-73 131.67,-71 121.88,-71"/>
<polygon fill="#9a32cd" stroke="#9a32cd" points="131.52,-78.62 121.88,-83 132.15,-85.59 131.52,-78.62"/>
<text text-anchor="middle" x="152" y="-74.5" font-family="Helvetica,sans-Serif" font-size="10.00"> func</text>
</g>
<!-- Node3 -->
<g id="node3" class="node">
<title>Node3</title>
<g id="a_node3"><a xlink:href="struct__ExifMem.html" target="_top" xlink:title=" ">
<polygon fill="white" stroke="black" points="0,-134.5 0,-153.5 65,-153.5 65,-134.5 0,-134.5"/>
<text text-anchor="middle" x="32.5" y="-141.5" font-family="Helvetica,sans-Serif" font-size="10.00">_ExifMem</text>
</a>
</g>
</g>
<!-- Node3&#45;&gt;Node1 -->
<g id="edge4" class="edge">
<title>Node3&#45;&gt;Node1</title>
<path fill="none" stroke="#9a32cd" stroke-dasharray="5,2" d="M28.2,-124.2C25.28,-108.77 22.46,-86.38 25.5,-67 28.22,-49.65 35.41,-30.33 39.84,-19.53"/>
<polygon fill="#9a32cd" stroke="#9a32cd" points="24.79,-124.99 30.25,-134.06 31.64,-123.56 24.79,-124.99"/>
<text text-anchor="middle" x="40" y="-74.5" font-family="Helvetica,sans-Serif" font-size="10.00"> mem</text>
</g>
<!-- Node3&#45;&gt;Node2 -->
<g id="edge3" class="edge">
<title>Node3&#45;&gt;Node2</title>
<path fill="none" stroke="#9a32cd" stroke-dasharray="5,2" d="M47.61,-126.63C59.34,-113.92 75.15,-96.8 84.54,-86.63"/>
<polygon fill="#9a32cd" stroke="#9a32cd" points="44.8,-124.51 40.59,-134.23 49.95,-129.26 44.8,-124.51"/>
<text text-anchor="middle" x="80" y="-108" font-family="Helvetica,sans-Serif" font-size="10.00"> mem</text>
</g>
</g>
</svg>
