<?xml version="1.0" encoding="UTF-8" standalone="no"?>
<!DOCTYPE svg PUBLIC "-//W3C//DTD SVG 1.1//EN"
 "http://www.w3.org/Graphics/SVG/1.1/DTD/svg11.dtd">
<!-- Generated by graphviz version 2.44.1 (0)
 -->
<!-- Title: _ExifContent Pages: 1 -->
<svg width="679pt" height="305pt"
 viewBox="0.00 0.00 678.50 305.00" xmlns="http://www.w3.org/2000/svg" xmlns:xlink="http://www.w3.org/1999/xlink">
<g id="graph0" class="graph" transform="scale(1 1) rotate(0) translate(4 301)">
<title>_ExifContent</title>
<polygon fill="white" stroke="transparent" points="-4,4 -4,-301 674.5,-301 674.5,4 -4,4"/>
<!-- Node1 -->
<g id="node1" class="node">
<title>Node1</title>
<g id="a_node1"><a xlink:title=" ">
<polygon fill="#bfbfbf" stroke="black" points="116,-67.5 116,-86.5 195,-86.5 195,-67.5 116,-67.5"/>
<text text-anchor="middle" x="155.5" y="-74.5" font-family="Helvetica,sans-Serif" font-size="10.00">_ExifContent</text>
</a>
</g>
</g>
<!-- Node5 -->
<g id="node5" class="node">
<title>Node5</title>
<g id="a_node5"><a xlink:href="struct__ExifData.html" target="_top" xlink:title="Represents the entire EXIF data found in an image.">
<polygon fill="white" stroke="black" points="211.5,-0.5 211.5,-19.5 275.5,-19.5 275.5,-0.5 211.5,-0.5"/>
<text text-anchor="middle" x="243.5" y="-7.5" font-family="Helvetica,sans-Serif" font-size="10.00">_ExifData</text>
</a>
</g>
</g>
<!-- Node1&#45;&gt;Node5 -->
<g id="edge15" class="edge">
<title>Node1&#45;&gt;Node5</title>
<path fill="none" stroke="#9a32cd" stroke-dasharray="5,2" d="M172.8,-60.88C181.26,-53.7 191.71,-45.15 201.5,-38 210.46,-31.46 220.96,-24.71 229.22,-19.59"/>
<polygon fill="#9a32cd" stroke="#9a32cd" points="170.4,-58.33 165.1,-67.5 174.97,-63.64 170.4,-58.33"/>
<text text-anchor="middle" x="209.5" y="-41" font-family="Helvetica,sans-Serif" font-size="10.00"> ifd</text>
</g>
<!-- Node10 -->
<g id="node10" class="node">
<title>Node10</title>
<g id="a_node10"><a xlink:href="struct__ExifEntry.html" target="_top" xlink:title="Data found in one EXIF tag.">
<polygon fill="white" stroke="black" points="53.5,-0.5 53.5,-19.5 119.5,-19.5 119.5,-0.5 53.5,-0.5"/>
<text text-anchor="middle" x="86.5" y="-7.5" font-family="Helvetica,sans-Serif" font-size="10.00">_ExifEntry</text>
</a>
</g>
</g>
<!-- Node1&#45;&gt;Node10 -->
<g id="edge19" class="edge">
<title>Node1&#45;&gt;Node10</title>
<path fill="none" stroke="#9a32cd" stroke-dasharray="5,2" d="M143.38,-59.2C137.99,-52.27 131.32,-44.38 124.5,-38 117.17,-31.14 108.03,-24.59 100.55,-19.66"/>
<polygon fill="#9a32cd" stroke="#9a32cd" points="140.64,-61.39 149.44,-67.29 146.24,-57.19 140.64,-61.39"/>
<text text-anchor="middle" x="153" y="-41" font-family="Helvetica,sans-Serif" font-size="10.00"> parent</text>
</g>
<!-- Node2 -->
<g id="node2" class="node">
<title>Node2</title>
<g id="a_node2"><a xlink:href="struct__ExifContentPrivate.html" target="_top" xlink:title=" ">
<polygon fill="white" stroke="black" points="99,-134.5 99,-153.5 212,-153.5 212,-134.5 99,-134.5"/>
<text text-anchor="middle" x="155.5" y="-141.5" font-family="Helvetica,sans-Serif" font-size="10.00">_ExifContentPrivate</text>
</a>
</g>
</g>
<!-- Node2&#45;&gt;Node1 -->
<g id="edge1" class="edge">
<title>Node2&#45;&gt;Node1</title>
<path fill="none" stroke="#9a32cd" stroke-dasharray="5,2" d="M155.5,-124.04C155.5,-111.67 155.5,-96.12 155.5,-86.63"/>
<polygon fill="#9a32cd" stroke="#9a32cd" points="152,-124.23 155.5,-134.23 159,-124.23 152,-124.23"/>
<text text-anchor="middle" x="166.5" y="-108" font-family="Helvetica,sans-Serif" font-size="10.00"> priv</text>
</g>
<!-- Node3 -->
<g id="node3" class="node">
<title>Node3</title>
<g id="a_node3"><a xlink:href="struct__ExifLog.html" target="_top" xlink:title=" ">
<polygon fill="white" stroke="black" points="163.5,-210.5 163.5,-229.5 221.5,-229.5 221.5,-210.5 163.5,-210.5"/>
<text text-anchor="middle" x="192.5" y="-217.5" font-family="Helvetica,sans-Serif" font-size="10.00">_ExifLog</text>
</a>
</g>
</g>
<!-- Node3&#45;&gt;Node2 -->
<g id="edge2" class="edge">
<title>Node3&#45;&gt;Node2</title>
<path fill="none" stroke="#9a32cd" stroke-dasharray="5,2" d="M183.47,-200.94C175.99,-185.97 165.67,-165.33 159.88,-153.77"/>
<polygon fill="#9a32cd" stroke="#9a32cd" points="180.51,-202.84 188.11,-210.22 186.77,-199.71 180.51,-202.84"/>
<text text-anchor="middle" x="188" y="-179.5" font-family="Helvetica,sans-Serif" font-size="10.00"> log</text>
</g>
<!-- Node3&#45;&gt;Node3 -->
<g id="edge3" class="edge">
<title>Node3&#45;&gt;Node3</title>
<path fill="none" stroke="#9a32cd" stroke-dasharray="5,2" d="M232.1,-225.08C236.59,-224.13 239.5,-222.44 239.5,-220 239.5,-216 231.67,-214 221.88,-214"/>
<polygon fill="#9a32cd" stroke="#9a32cd" points="231.52,-221.62 221.88,-226 232.15,-228.59 231.52,-221.62"/>
<text text-anchor="middle" x="252" y="-217.5" font-family="Helvetica,sans-Serif" font-size="10.00"> func</text>
</g>
<!-- Node6 -->
<g id="node6" class="node">
<title>Node6</title>
<g id="a_node6"><a xlink:href="struct__ExifDataPrivate.html" target="_top" xlink:title=" ">
<polygon fill="white" stroke="black" points="266.5,-67.5 266.5,-86.5 364.5,-86.5 364.5,-67.5 266.5,-67.5"/>
<text text-anchor="middle" x="315.5" y="-74.5" font-family="Helvetica,sans-Serif" font-size="10.00">_ExifDataPrivate</text>
</a>
</g>
</g>
<!-- Node3&#45;&gt;Node6 -->
<g id="edge13" class="edge">
<title>Node3&#45;&gt;Node6</title>
<path fill="none" stroke="#9a32cd" stroke-dasharray="5,2" d="M205.91,-202.42C220.01,-185.13 242.94,-157.34 263.5,-134 278.58,-116.88 296.87,-97.48 307.25,-86.6"/>
<polygon fill="#9a32cd" stroke="#9a32cd" points="203,-200.46 199.41,-210.43 208.43,-204.88 203,-200.46"/>
<text text-anchor="middle" x="273" y="-141.5" font-family="Helvetica,sans-Serif" font-size="10.00"> log</text>
</g>
<!-- Node7 -->
<g id="node7" class="node">
<title>Node7</title>
<g id="a_node7"><a xlink:href="struct__ExifMnoteData.html" target="_top" xlink:title=" ">
<polygon fill="white" stroke="black" points="292,-134.5 292,-153.5 387,-153.5 387,-134.5 292,-134.5"/>
<text text-anchor="middle" x="339.5" y="-141.5" font-family="Helvetica,sans-Serif" font-size="10.00">_ExifMnoteData</text>
</a>
</g>
</g>
<!-- Node3&#45;&gt;Node7 -->
<g id="edge11" class="edge">
<title>Node3&#45;&gt;Node7</title>
<path fill="none" stroke="#9a32cd" stroke-dasharray="5,2" d="M230.16,-207.08C242.02,-202.85 255.02,-197.7 266.5,-192 289.18,-180.74 313.53,-164.02 327.59,-153.85"/>
<polygon fill="#9a32cd" stroke="#9a32cd" points="228.83,-203.84 220.52,-210.42 231.11,-210.46 228.83,-203.84"/>
<text text-anchor="middle" x="308" y="-179.5" font-family="Helvetica,sans-Serif" font-size="10.00"> log</text>
</g>
<!-- Node4 -->
<g id="node4" class="node">
<title>Node4</title>
<g id="a_node4"><a xlink:href="struct__ExifMem.html" target="_top" xlink:title=" ">
<polygon fill="white" stroke="black" points="160,-277.5 160,-296.5 225,-296.5 225,-277.5 160,-277.5"/>
<text text-anchor="middle" x="192.5" y="-284.5" font-family="Helvetica,sans-Serif" font-size="10.00">_ExifMem</text>
</a>
</g>
</g>
<!-- Node4&#45;&gt;Node2 -->
<g id="edge5" class="edge">
<title>Node4&#45;&gt;Node2</title>
<path fill="none" stroke="#9a32cd" stroke-dasharray="5,2" d="M166.42,-272C151.44,-262.38 133.95,-248.08 125.5,-230 112.91,-203.06 135.53,-169.29 148.04,-153.67"/>
<polygon fill="#9a32cd" stroke="#9a32cd" points="164.96,-275.2 175.33,-277.38 168.58,-269.21 164.96,-275.2"/>
<text text-anchor="middle" x="140" y="-217.5" font-family="Helvetica,sans-Serif" font-size="10.00"> mem</text>
</g>
<!-- Node4&#45;&gt;Node3 -->
<g id="edge4" class="edge">
<title>Node4&#45;&gt;Node3</title>
<path fill="none" stroke="#9a32cd" stroke-dasharray="5,2" d="M192.5,-267.04C192.5,-254.67 192.5,-239.12 192.5,-229.63"/>
<polygon fill="#9a32cd" stroke="#9a32cd" points="189,-267.23 192.5,-277.23 196,-267.23 189,-267.23"/>
<text text-anchor="middle" x="207" y="-251" font-family="Helvetica,sans-Serif" font-size="10.00"> mem</text>
</g>
<!-- Node4&#45;&gt;Node6 -->
<g id="edge14" class="edge">
<title>Node4&#45;&gt;Node6</title>
<path fill="none" stroke="#9a32cd" stroke-dasharray="5,2" d="M235.42,-283.63C339.91,-277.42 600.89,-259.13 626.5,-230 705.96,-139.62 470.82,-97.63 364.63,-83.63"/>
<polygon fill="#9a32cd" stroke="#9a32cd" points="235,-280.15 225.22,-284.23 235.41,-287.14 235,-280.15"/>
<text text-anchor="middle" x="656" y="-179.5" font-family="Helvetica,sans-Serif" font-size="10.00"> mem</text>
</g>
<!-- Node4&#45;&gt;Node7 -->
<g id="edge12" class="edge">
<title>Node4&#45;&gt;Node7</title>
<path fill="none" stroke="#9a32cd" stroke-dasharray="5,2" d="M235.39,-280.89C291.44,-273.22 384.89,-256.72 405.5,-230 427.06,-202.04 380.81,-169.03 355.13,-153.67"/>
<polygon fill="#9a32cd" stroke="#9a32cd" points="234.84,-277.43 225.39,-282.21 235.76,-284.37 234.84,-277.43"/>
<text text-anchor="middle" x="425" y="-217.5" font-family="Helvetica,sans-Serif" font-size="10.00"> mem</text>
</g>
<!-- Node11 -->
<g id="node11" class="node">
<title>Node11</title>
<g id="a_node11"><a xlink:href="struct__ExifEntryPrivate.html" target="_top" xlink:title=" ">
<polygon fill="white" stroke="black" points="0,-172.5 0,-191.5 101,-191.5 101,-172.5 0,-172.5"/>
<text text-anchor="middle" x="50.5" y="-179.5" font-family="Helvetica,sans-Serif" font-size="10.00">_ExifEntryPrivate</text>
</a>
</g>
</g>
<!-- Node4&#45;&gt;Node11 -->
<g id="edge18" class="edge">
<title>Node4&#45;&gt;Node11</title>
<path fill="none" stroke="#9a32cd" stroke-dasharray="5,2" d="M149.69,-280.87C120.25,-276.51 84.56,-269.3 73.5,-259 54.23,-241.05 50.91,-207.58 50.47,-191.74"/>
<polygon fill="#9a32cd" stroke="#9a32cd" points="149.4,-284.36 159.79,-282.29 150.38,-277.43 149.4,-284.36"/>
<text text-anchor="middle" x="88" y="-251" font-family="Helvetica,sans-Serif" font-size="10.00"> mem</text>
</g>
<!-- Node5&#45;&gt;Node1 -->
<g id="edge6" class="edge">
<title>Node5&#45;&gt;Node1</title>
<path fill="none" stroke="#9a32cd" stroke-dasharray="5,2" d="M236.11,-29.09C232.54,-36.05 227.68,-43.61 221.5,-49 211.98,-57.3 199.57,-63.27 188.08,-67.45"/>
<polygon fill="#9a32cd" stroke="#9a32cd" points="239.46,-30.19 240.42,-19.64 233.09,-27.29 239.46,-30.19"/>
<text text-anchor="middle" x="249" y="-41" font-family="Helvetica,sans-Serif" font-size="10.00"> parent</text>
</g>
<!-- Node6&#45;&gt;Node5 -->
<g id="edge7" class="edge">
<title>Node6&#45;&gt;Node5</title>
<path fill="none" stroke="#9a32cd" stroke-dasharray="5,2" d="M302.48,-59.22C296.72,-52.29 289.64,-44.4 282.5,-38 274.89,-31.19 265.51,-24.64 257.85,-19.7"/>
<polygon fill="#9a32cd" stroke="#9a32cd" points="299.98,-61.7 308.97,-67.3 305.44,-57.31 299.98,-61.7"/>
<text text-anchor="middle" x="304.5" y="-41" font-family="Helvetica,sans-Serif" font-size="10.00"> priv</text>
</g>
<!-- Node7&#45;&gt;Node6 -->
<g id="edge8" class="edge">
<title>Node7&#45;&gt;Node6</title>
<path fill="none" stroke="#9a32cd" stroke-dasharray="5,2" d="M332.78,-124.79C328.17,-112.31 322.26,-96.31 318.69,-86.63"/>
<polygon fill="#9a32cd" stroke="#9a32cd" points="329.52,-126.07 336.26,-134.23 336.08,-123.64 329.52,-126.07"/>
<text text-anchor="middle" x="338" y="-108" font-family="Helvetica,sans-Serif" font-size="10.00"> md</text>
</g>
<!-- Node8 -->
<g id="node8" class="node">
<title>Node8</title>
<g id="a_node8"><a xlink:href="struct__ExifMnoteDataMethods.html" target="_top" xlink:title=" ">
<polygon fill="white" stroke="black" points="480,-210.5 480,-229.5 617,-229.5 617,-210.5 480,-210.5"/>
<text text-anchor="middle" x="548.5" y="-217.5" font-family="Helvetica,sans-Serif" font-size="10.00">_ExifMnoteDataMethods</text>
</a>
</g>
</g>
<!-- Node8&#45;&gt;Node7 -->
<g id="edge9" class="edge">
<title>Node8&#45;&gt;Node7</title>
<path fill="none" stroke="#9a32cd" stroke-dasharray="5,2" d="M523.37,-205.83C503.05,-195.58 473.48,-181.53 446.5,-172 425.18,-164.47 400.78,-158.15 380.67,-153.52"/>
<polygon fill="#9a32cd" stroke="#9a32cd" points="521.78,-208.95 532.28,-210.39 524.97,-202.72 521.78,-208.95"/>
<text text-anchor="middle" x="517.5" y="-179.5" font-family="Helvetica,sans-Serif" font-size="10.00"> methods</text>
</g>
<!-- Node9 -->
<g id="node9" class="node">
<title>Node9</title>
<g id="a_node9"><a xlink:href="struct__ExifMnoteDataPriv.html" target="_top" xlink:title=" ">
<polygon fill="white" stroke="black" points="283,-210.5 283,-229.5 396,-229.5 396,-210.5 283,-210.5"/>
<text text-anchor="middle" x="339.5" y="-217.5" font-family="Helvetica,sans-Serif" font-size="10.00">_ExifMnoteDataPriv</text>
</a>
</g>
</g>
<!-- Node9&#45;&gt;Node7 -->
<g id="edge10" class="edge">
<title>Node9&#45;&gt;Node7</title>
<path fill="none" stroke="#9a32cd" stroke-dasharray="5,2" d="M339.5,-200.07C339.5,-185.18 339.5,-165.11 339.5,-153.77"/>
<polygon fill="#9a32cd" stroke="#9a32cd" points="336,-200.22 339.5,-210.22 343,-200.22 336,-200.22"/>
<text text-anchor="middle" x="350.5" y="-179.5" font-family="Helvetica,sans-Serif" font-size="10.00"> priv</text>
</g>
<!-- Node10&#45;&gt;Node1 -->
<g id="edge16" class="edge">
<title>Node10&#45;&gt;Node1</title>
<path fill="none" stroke="#9a32cd" stroke-dasharray="5,2" d="M82.96,-29.87C82.72,-36.44 83.68,-43.52 87.5,-49 94.19,-58.58 104.85,-64.76 115.77,-68.75"/>
<polygon fill="#9a32cd" stroke="#9a32cd" points="86.47,-30.03 84.2,-19.68 79.52,-29.19 86.47,-30.03"/>
<text text-anchor="middle" x="106" y="-41" font-family="Helvetica,sans-Serif" font-size="10.00"> entries</text>
</g>
<!-- Node11&#45;&gt;Node10 -->
<g id="edge17" class="edge">
<title>Node11&#45;&gt;Node10</title>
<path fill="none" stroke="#9a32cd" stroke-dasharray="5,2" d="M53.99,-162.13C59.14,-134.71 69.28,-82.27 79.5,-38 80.89,-31.96 82.64,-25.21 84.05,-19.97"/>
<polygon fill="#9a32cd" stroke="#9a32cd" points="50.5,-161.79 52.1,-172.26 57.38,-163.07 50.5,-161.79"/>
<text text-anchor="middle" x="76.5" y="-108" font-family="Helvetica,sans-Serif" font-size="10.00"> priv</text>
</g>
</g>
</svg>
