<?xml version="1.0" encoding="UTF-8" standalone="no"?>
<!DOCTYPE svg PUBLIC "-//W3C//DTD SVG 1.1//EN"
 "http://www.w3.org/Graphics/SVG/1.1/DTD/svg11.dtd">
<!-- Generated by graphviz version 2.44.1 (0)
 -->
<!-- Title: _ExifEntry Pages: 1 -->
<svg width="686pt" height="296pt"
 viewBox="0.00 0.00 686.00 296.00" xmlns="http://www.w3.org/2000/svg" xmlns:xlink="http://www.w3.org/1999/xlink">
<g id="graph0" class="graph" transform="scale(1 1) rotate(0) translate(4 292)">
<title>_ExifEntry</title>
<polygon fill="white" stroke="transparent" points="-4,4 -4,-292 682,-292 682,4 -4,4"/>
<!-- Node1 -->
<g id="node1" class="node">
<title>Node1</title>
<g id="a_node1"><a xlink:title="Data found in one EXIF tag.">
<polygon fill="#bfbfbf" stroke="black" points="7.5,-134.5 7.5,-153.5 73.5,-153.5 73.5,-134.5 7.5,-134.5"/>
<text text-anchor="middle" x="40.5" y="-141.5" font-family="Helvetica,sans-Serif" font-size="10.00">_ExifEntry</text>
</a>
</g>
</g>
<!-- Node4 -->
<g id="node4" class="node">
<title>Node4</title>
<g id="a_node4"><a xlink:href="struct__ExifContent.html" target="_top" xlink:title=" ">
<polygon fill="white" stroke="black" points="95,-67.5 95,-86.5 174,-86.5 174,-67.5 95,-67.5"/>
<text text-anchor="middle" x="134.5" y="-74.5" font-family="Helvetica,sans-Serif" font-size="10.00">_ExifContent</text>
</a>
</g>
</g>
<!-- Node1&#45;&gt;Node4 -->
<g id="edge19" class="edge">
<title>Node1&#45;&gt;Node4</title>
<path fill="none" stroke="#9a32cd" stroke-dasharray="5,2" d="M36.68,-123.92C36.41,-117.34 37.42,-110.29 41.5,-105 53.93,-88.9 75.39,-81.98 94.56,-79.17"/>
<polygon fill="#9a32cd" stroke="#9a32cd" points="33.25,-124.73 38.03,-134.19 40.19,-123.82 33.25,-124.73"/>
<text text-anchor="middle" x="60" y="-108" font-family="Helvetica,sans-Serif" font-size="10.00"> entries</text>
</g>
<!-- Node2 -->
<g id="node2" class="node">
<title>Node2</title>
<g id="a_node2"><a xlink:href="struct__ExifEntryPrivate.html" target="_top" xlink:title=" ">
<polygon fill="white" stroke="black" points="0,-201.5 0,-220.5 101,-220.5 101,-201.5 0,-201.5"/>
<text text-anchor="middle" x="50.5" y="-208.5" font-family="Helvetica,sans-Serif" font-size="10.00">_ExifEntryPrivate</text>
</a>
</g>
</g>
<!-- Node2&#45;&gt;Node1 -->
<g id="edge1" class="edge">
<title>Node2&#45;&gt;Node1</title>
<path fill="none" stroke="#9a32cd" stroke-dasharray="5,2" d="M47.58,-191.04C45.68,-178.67 43.29,-163.12 41.83,-153.63"/>
<polygon fill="#9a32cd" stroke="#9a32cd" points="44.17,-191.88 49.15,-201.23 51.09,-190.82 44.17,-191.88"/>
<text text-anchor="middle" x="57.5" y="-175" font-family="Helvetica,sans-Serif" font-size="10.00"> priv</text>
</g>
<!-- Node3 -->
<g id="node3" class="node">
<title>Node3</title>
<g id="a_node3"><a xlink:href="struct__ExifMem.html" target="_top" xlink:title=" ">
<polygon fill="white" stroke="black" points="184,-268.5 184,-287.5 249,-287.5 249,-268.5 184,-268.5"/>
<text text-anchor="middle" x="216.5" y="-275.5" font-family="Helvetica,sans-Serif" font-size="10.00">_ExifMem</text>
</a>
</g>
</g>
<!-- Node3&#45;&gt;Node2 -->
<g id="edge2" class="edge">
<title>Node3&#45;&gt;Node2</title>
<path fill="none" stroke="#9a32cd" stroke-dasharray="5,2" d="M173.87,-272.14C150.46,-268.31 121.41,-261.59 97.5,-250 82.2,-242.58 67.45,-229.34 58.67,-220.61"/>
<polygon fill="#9a32cd" stroke="#9a32cd" points="173.45,-275.62 183.86,-273.66 174.5,-268.7 173.45,-275.62"/>
<text text-anchor="middle" x="112" y="-242" font-family="Helvetica,sans-Serif" font-size="10.00"> mem</text>
</g>
<!-- Node5 -->
<g id="node5" class="node">
<title>Node5</title>
<g id="a_node5"><a xlink:href="struct__ExifContentPrivate.html" target="_top" xlink:title=" ">
<polygon fill="white" stroke="black" points="92,-134.5 92,-153.5 205,-153.5 205,-134.5 92,-134.5"/>
<text text-anchor="middle" x="148.5" y="-141.5" font-family="Helvetica,sans-Serif" font-size="10.00">_ExifContentPrivate</text>
</a>
</g>
</g>
<!-- Node3&#45;&gt;Node5 -->
<g id="edge8" class="edge">
<title>Node3&#45;&gt;Node5</title>
<path fill="none" stroke="#9a32cd" stroke-dasharray="5,2" d="M190.51,-262.96C175.55,-253.32 158.07,-239.03 149.5,-221 138.96,-198.83 143.21,-168.76 146.32,-153.97"/>
<polygon fill="#9a32cd" stroke="#9a32cd" points="189.03,-266.16 199.39,-268.35 192.66,-260.17 189.03,-266.16"/>
<text text-anchor="middle" x="164" y="-208.5" font-family="Helvetica,sans-Serif" font-size="10.00"> mem</text>
</g>
<!-- Node6 -->
<g id="node6" class="node">
<title>Node6</title>
<g id="a_node6"><a xlink:href="struct__ExifLog.html" target="_top" xlink:title=" ">
<polygon fill="white" stroke="black" points="187.5,-201.5 187.5,-220.5 245.5,-220.5 245.5,-201.5 187.5,-201.5"/>
<text text-anchor="middle" x="216.5" y="-208.5" font-family="Helvetica,sans-Serif" font-size="10.00">_ExifLog</text>
</a>
</g>
</g>
<!-- Node3&#45;&gt;Node6 -->
<g id="edge7" class="edge">
<title>Node3&#45;&gt;Node6</title>
<path fill="none" stroke="#9a32cd" stroke-dasharray="5,2" d="M216.5,-258.04C216.5,-245.67 216.5,-230.12 216.5,-220.63"/>
<polygon fill="#9a32cd" stroke="#9a32cd" points="213,-258.23 216.5,-268.23 220,-258.23 213,-258.23"/>
<text text-anchor="middle" x="231" y="-242" font-family="Helvetica,sans-Serif" font-size="10.00"> mem</text>
</g>
<!-- Node8 -->
<g id="node8" class="node">
<title>Node8</title>
<g id="a_node8"><a xlink:href="struct__ExifDataPrivate.html" target="_top" xlink:title=" ">
<polygon fill="white" stroke="black" points="211.5,-67.5 211.5,-86.5 309.5,-86.5 309.5,-67.5 211.5,-67.5"/>
<text text-anchor="middle" x="260.5" y="-74.5" font-family="Helvetica,sans-Serif" font-size="10.00">_ExifDataPrivate</text>
</a>
</g>
</g>
<!-- Node3&#45;&gt;Node8 -->
<g id="edge17" class="edge">
<title>Node3&#45;&gt;Node8</title>
<path fill="none" stroke="#9a32cd" stroke-dasharray="5,2" d="M248.43,-264.02C266.36,-254.88 287.16,-240.73 297.5,-221 322.15,-173.99 282.75,-109.51 266.76,-86.54"/>
<polygon fill="#9a32cd" stroke="#9a32cd" points="246.9,-260.88 239.39,-268.35 249.92,-267.19 246.9,-260.88"/>
<text text-anchor="middle" x="319" y="-175" font-family="Helvetica,sans-Serif" font-size="10.00"> mem</text>
</g>
<!-- Node9 -->
<g id="node9" class="node">
<title>Node9</title>
<g id="a_node9"><a xlink:href="struct__ExifMnoteData.html" target="_top" xlink:title=" ">
<polygon fill="white" stroke="black" points="345,-134.5 345,-153.5 440,-153.5 440,-134.5 345,-134.5"/>
<text text-anchor="middle" x="392.5" y="-141.5" font-family="Helvetica,sans-Serif" font-size="10.00">_ExifMnoteData</text>
</a>
</g>
</g>
<!-- Node3&#45;&gt;Node9 -->
<g id="edge15" class="edge">
<title>Node3&#45;&gt;Node9</title>
<path fill="none" stroke="#9a32cd" stroke-dasharray="5,2" d="M259.25,-274.89C282.24,-271.9 309.98,-265.12 330.5,-250 364.93,-224.63 383.63,-173.92 389.98,-153.66"/>
<polygon fill="#9a32cd" stroke="#9a32cd" points="258.63,-271.44 249.07,-276.02 259.4,-278.4 258.63,-271.44"/>
<text text-anchor="middle" x="384" y="-208.5" font-family="Helvetica,sans-Serif" font-size="10.00"> mem</text>
</g>
<!-- Node4&#45;&gt;Node1 -->
<g id="edge3" class="edge">
<title>Node4&#45;&gt;Node1</title>
<path fill="none" stroke="#9a32cd" stroke-dasharray="5,2" d="M113.66,-92.41C95.14,-105.22 68.68,-123.51 53.18,-134.23"/>
<polygon fill="#9a32cd" stroke="#9a32cd" points="115.79,-95.19 122.02,-86.63 111.81,-89.44 115.79,-95.19"/>
<text text-anchor="middle" x="111" y="-108" font-family="Helvetica,sans-Serif" font-size="10.00"> parent</text>
</g>
<!-- Node7 -->
<g id="node7" class="node">
<title>Node7</title>
<g id="a_node7"><a xlink:href="struct__ExifData.html" target="_top" xlink:title="Represents the entire EXIF data found in an image.">
<polygon fill="white" stroke="black" points="160.5,-0.5 160.5,-19.5 224.5,-19.5 224.5,-0.5 160.5,-0.5"/>
<text text-anchor="middle" x="192.5" y="-7.5" font-family="Helvetica,sans-Serif" font-size="10.00">_ExifData</text>
</a>
</g>
</g>
<!-- Node4&#45;&gt;Node7 -->
<g id="edge18" class="edge">
<title>Node4&#45;&gt;Node7</title>
<path fill="none" stroke="#9a32cd" stroke-dasharray="5,2" d="M156.97,-61.35C161.75,-57.65 166.55,-53.45 170.5,-49 178.4,-40.11 184.84,-27.94 188.67,-19.79"/>
<polygon fill="#9a32cd" stroke="#9a32cd" points="154.63,-58.72 148.56,-67.41 158.72,-64.4 154.63,-58.72"/>
<text text-anchor="middle" x="185.5" y="-41" font-family="Helvetica,sans-Serif" font-size="10.00"> ifd</text>
</g>
<!-- Node5&#45;&gt;Node4 -->
<g id="edge4" class="edge">
<title>Node5&#45;&gt;Node4</title>
<path fill="none" stroke="#9a32cd" stroke-dasharray="5,2" d="M144.5,-124.41C141.82,-111.99 138.42,-96.22 136.36,-86.63"/>
<polygon fill="#9a32cd" stroke="#9a32cd" points="141.08,-125.19 146.61,-134.23 147.93,-123.72 141.08,-125.19"/>
<text text-anchor="middle" x="153.5" y="-108" font-family="Helvetica,sans-Serif" font-size="10.00"> priv</text>
</g>
<!-- Node6&#45;&gt;Node5 -->
<g id="edge5" class="edge">
<title>Node6&#45;&gt;Node5</title>
<path fill="none" stroke="#9a32cd" stroke-dasharray="5,2" d="M199.76,-194C186.42,-181.25 168.27,-163.89 157.53,-153.63"/>
<polygon fill="#9a32cd" stroke="#9a32cd" points="197.68,-196.85 207.33,-201.23 202.52,-191.79 197.68,-196.85"/>
<text text-anchor="middle" x="196" y="-175" font-family="Helvetica,sans-Serif" font-size="10.00"> log</text>
</g>
<!-- Node6&#45;&gt;Node6 -->
<g id="edge6" class="edge">
<title>Node6&#45;&gt;Node6</title>
<path fill="none" stroke="#9a32cd" stroke-dasharray="5,2" d="M256.1,-216.08C260.59,-215.13 263.5,-213.44 263.5,-211 263.5,-207 255.67,-205 245.88,-205"/>
<polygon fill="#9a32cd" stroke="#9a32cd" points="255.52,-212.62 245.88,-217 256.15,-219.59 255.52,-212.62"/>
<text text-anchor="middle" x="276" y="-208.5" font-family="Helvetica,sans-Serif" font-size="10.00"> func</text>
</g>
<!-- Node6&#45;&gt;Node8 -->
<g id="edge16" class="edge">
<title>Node6&#45;&gt;Node8</title>
<path fill="none" stroke="#9a32cd" stroke-dasharray="5,2" d="M222.61,-191.66C232.26,-162.73 250.62,-107.63 257.66,-86.52"/>
<polygon fill="#9a32cd" stroke="#9a32cd" points="219.23,-190.75 219.39,-201.34 225.87,-192.96 219.23,-190.75"/>
<text text-anchor="middle" x="250" y="-141.5" font-family="Helvetica,sans-Serif" font-size="10.00"> log</text>
</g>
<!-- Node6&#45;&gt;Node9 -->
<g id="edge14" class="edge">
<title>Node6&#45;&gt;Node9</title>
<path fill="none" stroke="#9a32cd" stroke-dasharray="5,2" d="M235.27,-195.52C246.42,-187.54 261.15,-178.06 275.5,-172 297.49,-162.72 323.21,-156.34 344.93,-152.12"/>
<polygon fill="#9a32cd" stroke="#9a32cd" points="233.13,-192.74 227.17,-201.5 237.29,-198.37 233.13,-192.74"/>
<text text-anchor="middle" x="285" y="-175" font-family="Helvetica,sans-Serif" font-size="10.00"> log</text>
</g>
<!-- Node7&#45;&gt;Node4 -->
<g id="edge9" class="edge">
<title>Node7&#45;&gt;Node4</title>
<path fill="none" stroke="#9a32cd" stroke-dasharray="5,2" d="M151,-23.79C144.89,-27.43 139.35,-32.08 135.5,-38 129.81,-46.74 130.76,-59.16 132.33,-67.4"/>
<polygon fill="#9a32cd" stroke="#9a32cd" points="152.9,-26.75 160.26,-19.14 149.75,-20.5 152.9,-26.75"/>
<text text-anchor="middle" x="153" y="-41" font-family="Helvetica,sans-Serif" font-size="10.00"> parent</text>
</g>
<!-- Node8&#45;&gt;Node7 -->
<g id="edge10" class="edge">
<title>Node8&#45;&gt;Node7</title>
<path fill="none" stroke="#9a32cd" stroke-dasharray="5,2" d="M243.76,-60C230.42,-47.25 212.27,-29.89 201.53,-19.63"/>
<polygon fill="#9a32cd" stroke="#9a32cd" points="241.68,-62.85 251.33,-67.23 246.52,-57.79 241.68,-62.85"/>
<text text-anchor="middle" x="241.5" y="-41" font-family="Helvetica,sans-Serif" font-size="10.00"> priv</text>
</g>
<!-- Node9&#45;&gt;Node8 -->
<g id="edge11" class="edge">
<title>Node9&#45;&gt;Node8</title>
<path fill="none" stroke="#9a32cd" stroke-dasharray="5,2" d="M371.43,-128.76C359.68,-121.17 344.61,-111.97 330.5,-105 316.14,-97.9 299.42,-91.39 285.92,-86.54"/>
<polygon fill="#9a32cd" stroke="#9a32cd" points="369.78,-131.87 380.06,-134.44 373.63,-126.02 369.78,-131.87"/>
<text text-anchor="middle" x="359" y="-108" font-family="Helvetica,sans-Serif" font-size="10.00"> md</text>
</g>
<!-- Node10 -->
<g id="node10" class="node">
<title>Node10</title>
<g id="a_node10"><a xlink:href="struct__ExifMnoteDataMethods.html" target="_top" xlink:title=" ">
<polygon fill="white" stroke="black" points="410,-201.5 410,-220.5 547,-220.5 547,-201.5 410,-201.5"/>
<text text-anchor="middle" x="478.5" y="-208.5" font-family="Helvetica,sans-Serif" font-size="10.00">_ExifMnoteDataMethods</text>
</a>
</g>
</g>
<!-- Node10&#45;&gt;Node9 -->
<g id="edge12" class="edge">
<title>Node10&#45;&gt;Node9</title>
<path fill="none" stroke="#9a32cd" stroke-dasharray="5,2" d="M458.74,-195.07C441.77,-182.24 417.88,-164.19 403.91,-153.63"/>
<polygon fill="#9a32cd" stroke="#9a32cd" points="456.81,-198 466.9,-201.23 461.03,-192.41 456.81,-198"/>
<text text-anchor="middle" x="463.5" y="-175" font-family="Helvetica,sans-Serif" font-size="10.00"> methods</text>
</g>
<!-- Node11 -->
<g id="node11" class="node">
<title>Node11</title>
<g id="a_node11"><a xlink:href="struct__ExifMnoteDataPriv.html" target="_top" xlink:title=" ">
<polygon fill="white" stroke="black" points="565,-201.5 565,-220.5 678,-220.5 678,-201.5 565,-201.5"/>
<text text-anchor="middle" x="621.5" y="-208.5" font-family="Helvetica,sans-Serif" font-size="10.00">_ExifMnoteDataPriv</text>
</a>
</g>
</g>
<!-- Node11&#45;&gt;Node9 -->
<g id="edge13" class="edge">
<title>Node11&#45;&gt;Node9</title>
<path fill="none" stroke="#9a32cd" stroke-dasharray="5,2" d="M582.53,-198.55C556.5,-190.93 521.48,-180.76 490.5,-172 468.25,-165.71 443.11,-158.79 423.87,-153.53"/>
<polygon fill="#9a32cd" stroke="#9a32cd" points="581.81,-201.98 592.4,-201.44 583.78,-195.27 581.81,-201.98"/>
<text text-anchor="middle" x="537.5" y="-175" font-family="Helvetica,sans-Serif" font-size="10.00"> priv</text>
</g>
</g>
</svg>
