<?xml version="1.0" encoding="UTF-8" standalone="no"?>
<!DOCTYPE svg PUBLIC "-//W3C//DTD SVG 1.1//EN"
 "http://www.w3.org/Graphics/SVG/1.1/DTD/svg11.dtd">
<!-- Generated by graphviz version 7.0.1 (0)
 -->
<!-- Title: test/test&#45;fuzzer&#45;persistent.c Pages: 1 -->
<svg width="908pt" height="423pt"
 viewBox="0.00 0.00 907.50 423.00" xmlns="http://www.w3.org/2000/svg" xmlns:xlink="http://www.w3.org/1999/xlink">
<g id="graph0" class="graph" transform="scale(1 1) rotate(0) translate(4 419)">
<title>test/test&#45;fuzzer&#45;persistent.c</title>
<!-- Node1 -->
<g id="Node000001" class="node">
<title>Node1</title>
<g id="a_Node000001"><a xlink:title=" ">
<polygon fill="#999999" stroke="#666666" points="354,-415 203,-415 203,-396 354,-396 354,-415"/>
<text text-anchor="middle" x="278.5" y="-403" font-family="Helvetica,sans-Serif" font-size="10.00">test/test&#45;fuzzer&#45;persistent.c</text>
</a>
</g>
</g>
<!-- Node2 -->
<g id="Node000002" class="node">
<title>Node2</title>
<g id="a_Node000002"><a xlink:title=" ">
<polygon fill="#e0e0e0" stroke="#999999" points="53,-360 0,-360 0,-341 53,-341 53,-360"/>
<text text-anchor="middle" x="26.5" y="-348" font-family="Helvetica,sans-Serif" font-size="10.00">string.h</text>
</a>
</g>
</g>
<!-- Node1&#45;&gt;Node2 -->
<g id="edge1_Node000001_Node000002" class="edge">
<title>Node1&#45;&gt;Node2</title>
<g id="a_edge1_Node000001_Node000002"><a xlink:title=" ">
<path fill="none" stroke="#63b8ff" d="M232.91,-395.5C191.53,-387.25 128.55,-374.47 64.37,-360.36"/>
<polygon fill="#63b8ff" stroke="#63b8ff" points="65.21,-356.96 54.69,-358.22 63.71,-363.8 65.21,-356.96"/>
</a>
</g>
</g>
<!-- Node3 -->
<g id="Node000003" class="node">
<title>Node3</title>
<g id="a_Node000003"><a xlink:title=" ">
<polygon fill="#e0e0e0" stroke="#999999" points="127.5,-360 71.5,-360 71.5,-341 127.5,-341 127.5,-360"/>
<text text-anchor="middle" x="99.5" y="-348" font-family="Helvetica,sans-Serif" font-size="10.00">unistd.h</text>
</a>
</g>
</g>
<!-- Node1&#45;&gt;Node3 -->
<g id="edge2_Node000001_Node000003" class="edge">
<title>Node1&#45;&gt;Node3</title>
<g id="a_edge2_Node000001_Node000003"><a xlink:title=" ">
<path fill="none" stroke="#63b8ff" d="M248.14,-395.51C218.07,-386.61 171.88,-372.93 138.98,-363.19"/>
<polygon fill="#63b8ff" stroke="#63b8ff" points="139.98,-359.83 129.39,-360.35 137.99,-366.55 139.98,-359.83"/>
</a>
</g>
</g>
<!-- Node4 -->
<g id="Node000004" class="node">
<title>Node4</title>
<g id="a_Node000004"><a xlink:title=" ">
<polygon fill="#e0e0e0" stroke="#999999" points="195.5,-360 145.5,-360 145.5,-341 195.5,-341 195.5,-360"/>
<text text-anchor="middle" x="170.5" y="-348" font-family="Helvetica,sans-Serif" font-size="10.00">stdio.h</text>
</a>
</g>
</g>
<!-- Node1&#45;&gt;Node4 -->
<g id="edge3_Node000001_Node000004" class="edge">
<title>Node1&#45;&gt;Node4</title>
<g id="a_edge3_Node000001_Node000004"><a xlink:title=" ">
<path fill="none" stroke="#63b8ff" d="M260.18,-395.51C243.32,-387.24 218.07,-374.84 198.65,-365.31"/>
<polygon fill="#63b8ff" stroke="#63b8ff" points="200.43,-362.29 189.91,-361.02 197.34,-368.57 200.43,-362.29"/>
</a>
</g>
</g>
<!-- Node5 -->
<g id="Node000005" class="node">
<title>Node5</title>
<g id="a_Node000005"><a xlink:title=" ">
<polygon fill="#e0e0e0" stroke="#999999" points="267,-360 214,-360 214,-341 267,-341 267,-360"/>
<text text-anchor="middle" x="240.5" y="-348" font-family="Helvetica,sans-Serif" font-size="10.00">stdlib.h</text>
</a>
</g>
</g>
<!-- Node1&#45;&gt;Node5 -->
<g id="edge4_Node000001_Node000005" class="edge">
<title>Node1&#45;&gt;Node5</title>
<g id="a_edge4_Node000001_Node000005"><a xlink:title=" ">
<path fill="none" stroke="#63b8ff" d="M272.23,-395.75C267.14,-388.66 259.8,-378.42 253.47,-369.59"/>
<polygon fill="#63b8ff" stroke="#63b8ff" points="256.46,-367.76 247.79,-361.67 250.78,-371.84 256.46,-367.76"/>
</a>
</g>
</g>
<!-- Node6 -->
<g id="Node000006" class="node">
<title>Node6</title>
<g id="a_Node000006"><a xlink:title=" ">
<polygon fill="#e0e0e0" stroke="#999999" points="349.5,-360 285.5,-360 285.5,-341 349.5,-341 349.5,-360"/>
<text text-anchor="middle" x="317.5" y="-348" font-family="Helvetica,sans-Serif" font-size="10.00">sys/stat.h</text>
</a>
</g>
</g>
<!-- Node1&#45;&gt;Node6 -->
<g id="edge5_Node000001_Node000006" class="edge">
<title>Node1&#45;&gt;Node6</title>
<g id="a_edge5_Node000001_Node000006"><a xlink:title=" ">
<path fill="none" stroke="#63b8ff" d="M284.94,-395.75C290.16,-388.66 297.69,-378.42 304.19,-369.59"/>
<polygon fill="#63b8ff" stroke="#63b8ff" points="306.92,-371.79 310.02,-361.66 301.28,-367.64 306.92,-371.79"/>
</a>
</g>
</g>
<!-- Node7 -->
<g id="Node000007" class="node">
<title>Node7</title>
<g id="a_Node000007"><a xlink:href="exif-data_8h.html" target="_top" xlink:title="Defines the ExifData type and the associated functions.">
<polygon fill="white" stroke="#666666" points="659.5,-305 557.5,-305 557.5,-286 659.5,-286 659.5,-305"/>
<text text-anchor="middle" x="608.5" y="-293" font-family="Helvetica,sans-Serif" font-size="10.00">libexif/exif&#45;data.h</text>
</a>
</g>
</g>
<!-- Node1&#45;&gt;Node7 -->
<g id="edge6_Node000001_Node000007" class="edge">
<title>Node1&#45;&gt;Node7</title>
<g id="a_edge6_Node000001_Node000007"><a xlink:title=" ">
<path fill="none" stroke="#63b8ff" d="M343.19,-395.56C385.39,-388.58 441.2,-377.15 488.5,-360 498.15,-356.5 550.2,-328.38 582.5,-310.75"/>
<polygon fill="#63b8ff" stroke="#63b8ff" points="583.79,-314.03 590.89,-306.17 580.44,-307.89 583.79,-314.03"/>
</a>
</g>
</g>
<!-- Node21 -->
<g id="Node000021" class="node">
<title>Node21</title>
<g id="a_Node000021"><a xlink:href="exif-loader_8h.html" target="_top" xlink:title="Defines the ExifLoader type.">
<polygon fill="white" stroke="#666666" points="479,-360 368,-360 368,-341 479,-341 479,-360"/>
<text text-anchor="middle" x="423.5" y="-348" font-family="Helvetica,sans-Serif" font-size="10.00">libexif/exif&#45;loader.h</text>
</a>
</g>
</g>
<!-- Node1&#45;&gt;Node21 -->
<g id="edge32_Node000001_Node000021" class="edge">
<title>Node1&#45;&gt;Node21</title>
<g id="a_edge32_Node000001_Node000021"><a xlink:title=" ">
<path fill="none" stroke="#63b8ff" d="M303.1,-395.51C326.57,-386.93 362.17,-373.92 388.57,-364.27"/>
<polygon fill="#63b8ff" stroke="#63b8ff" points="389.65,-367.6 397.84,-360.88 387.25,-361.02 389.65,-367.6"/>
</a>
</g>
</g>
<!-- Node22 -->
<g id="Node000022" class="node">
<title>Node22</title>
<g id="a_Node000022"><a xlink:href="exif-system_8h.html" target="_top" xlink:title="System specific definitions, not for installation!">
<polygon fill="white" stroke="#666666" points="651.5,-360 535.5,-360 535.5,-341 651.5,-341 651.5,-360"/>
<text text-anchor="middle" x="593.5" y="-348" font-family="Helvetica,sans-Serif" font-size="10.00">libexif/exif&#45;system.h</text>
</a>
</g>
</g>
<!-- Node1&#45;&gt;Node22 -->
<g id="edge36_Node000001_Node000022" class="edge">
<title>Node1&#45;&gt;Node22</title>
<g id="a_edge36_Node000001_Node000022"><a xlink:title=" ">
<path fill="none" stroke="#63b8ff" d="M331.94,-395.51C386.32,-386.36 470.67,-372.17 528.81,-362.39"/>
<polygon fill="#63b8ff" stroke="#63b8ff" points="529.29,-365.85 538.57,-360.74 528.13,-358.95 529.29,-365.85"/>
</a>
</g>
</g>
<!-- Node8 -->
<g id="Node000008" class="node">
<title>Node8</title>
<g id="a_Node000008"><a xlink:href="exif-byte-order_8h.html" target="_top" xlink:title="Defines the ExifByteOrder enum and the associated functions.">
<polygon fill="white" stroke="#666666" points="887,-19 756,-19 756,0 887,0 887,-19"/>
<text text-anchor="middle" x="821.5" y="-7" font-family="Helvetica,sans-Serif" font-size="10.00">libexif/exif&#45;byte&#45;order.h</text>
</a>
</g>
</g>
<!-- Node7&#45;&gt;Node8 -->
<g id="edge7_Node000007_Node000008" class="edge">
<title>Node7&#45;&gt;Node8</title>
<g id="a_edge7_Node000007_Node000008"><a xlink:title=" ">
<path fill="none" stroke="#63b8ff" d="M659.85,-287.78C698.44,-281.44 751.92,-269.86 795.5,-250 847.24,-226.42 899.5,-232.36 899.5,-175.5 899.5,-175.5 899.5,-175.5 899.5,-118.5 899.5,-79.67 865.96,-45.33 842.87,-26.28"/>
<polygon fill="#63b8ff" stroke="#63b8ff" points="845.24,-23.69 835.22,-20.25 840.9,-29.19 845.24,-23.69"/>
</a>
</g>
</g>
<!-- Node9 -->
<g id="Node000009" class="node">
<title>Node9</title>
<g id="a_Node000009"><a xlink:href="exif-data-type_8h.html" target="_top" xlink:title=" ">
<polygon fill="white" stroke="#666666" points="759.5,-129 631.5,-129 631.5,-110 759.5,-110 759.5,-129"/>
<text text-anchor="middle" x="695.5" y="-117" font-family="Helvetica,sans-Serif" font-size="10.00">libexif/exif&#45;data&#45;type.h</text>
</a>
</g>
</g>
<!-- Node7&#45;&gt;Node9 -->
<g id="edge8_Node000007_Node000009" class="edge">
<title>Node7&#45;&gt;Node9</title>
<g id="a_edge8_Node000007_Node000009"><a xlink:title=" ">
<path fill="none" stroke="#63b8ff" d="M631.18,-285.62C646.53,-278.39 665.87,-266.65 676.5,-250 698.05,-216.26 698.94,-167.63 697.4,-140.58"/>
<polygon fill="#63b8ff" stroke="#63b8ff" points="700.89,-140.41 696.64,-130.71 693.91,-140.94 700.89,-140.41"/>
</a>
</g>
</g>
<!-- Node10 -->
<g id="Node000010" class="node">
<title>Node10</title>
<g id="a_Node000010"><a xlink:href="exif-ifd_8h.html" target="_top" xlink:title=" ">
<polygon fill="white" stroke="#666666" points="871,-129 778,-129 778,-110 871,-110 871,-129"/>
<text text-anchor="middle" x="824.5" y="-117" font-family="Helvetica,sans-Serif" font-size="10.00">libexif/exif&#45;ifd.h</text>
</a>
</g>
</g>
<!-- Node7&#45;&gt;Node10 -->
<g id="edge9_Node000007_Node000010" class="edge">
<title>Node7&#45;&gt;Node10</title>
<g id="a_edge9_Node000007_Node000010"><a xlink:title=" ">
<path fill="none" stroke="#63b8ff" d="M659.56,-286.49C713.95,-274.8 796.53,-247.1 828.5,-184 835.31,-170.56 833.73,-153.41 830.76,-140.33"/>
<polygon fill="#63b8ff" stroke="#63b8ff" points="834.15,-139.45 828.13,-130.74 827.4,-141.31 834.15,-139.45"/>
</a>
</g>
</g>
<!-- Node11 -->
<g id="Node000011" class="node">
<title>Node11</title>
<g id="a_Node000011"><a xlink:href="exif-log_8h.html" target="_top" xlink:title="Log message infrastructure.">
<polygon fill="white" stroke="#666666" points="469,-184 374,-184 374,-165 469,-165 469,-184"/>
<text text-anchor="middle" x="421.5" y="-172" font-family="Helvetica,sans-Serif" font-size="10.00">libexif/exif&#45;log.h</text>
</a>
</g>
</g>
<!-- Node7&#45;&gt;Node11 -->
<g id="edge10_Node000007_Node000011" class="edge">
<title>Node7&#45;&gt;Node11</title>
<g id="a_edge10_Node000007_Node000011"><a xlink:title=" ">
<path fill="none" stroke="#63b8ff" d="M557.26,-291.81C497.27,-287.46 403.32,-276.51 381.5,-250 366.72,-232.05 385.54,-207.79 402.04,-191.9"/>
<polygon fill="#63b8ff" stroke="#63b8ff" points="404.1,-194.77 409.15,-185.45 399.39,-189.58 404.1,-194.77"/>
</a>
</g>
</g>
<!-- Node12 -->
<g id="Node000012" class="node">
<title>Node12</title>
<g id="a_Node000012"><a xlink:href="exif-mem_8h.html" target="_top" xlink:title="Define the ExifMem data type and the associated functions.">
<polygon fill="white" stroke="#666666" points="574.5,-129 468.5,-129 468.5,-110 574.5,-110 574.5,-129"/>
<text text-anchor="middle" x="521.5" y="-117" font-family="Helvetica,sans-Serif" font-size="10.00">libexif/exif&#45;mem.h</text>
</a>
</g>
</g>
<!-- Node7&#45;&gt;Node12 -->
<g id="edge31_Node000007_Node000012" class="edge">
<title>Node7&#45;&gt;Node12</title>
<g id="a_edge31_Node000007_Node000012"><a xlink:title=" ">
<path fill="none" stroke="#63b8ff" d="M586.18,-285.52C571.08,-278.24 552.03,-266.47 541.5,-250 519.91,-216.23 518.56,-167.61 519.82,-140.57"/>
<polygon fill="#63b8ff" stroke="#63b8ff" points="523.31,-140.91 520.47,-130.7 516.32,-140.45 523.31,-140.91"/>
</a>
</g>
</g>
<!-- Node17 -->
<g id="Node000017" class="node">
<title>Node17</title>
<g id="a_Node000017"><a xlink:href="exif-tag_8h.html" target="_top" xlink:title="Handling EXIF tags.">
<polygon fill="white" stroke="#666666" points="819.5,-184 723.5,-184 723.5,-165 819.5,-165 819.5,-184"/>
<text text-anchor="middle" x="771.5" y="-172" font-family="Helvetica,sans-Serif" font-size="10.00">libexif/exif&#45;tag.h</text>
</a>
</g>
</g>
<!-- Node7&#45;&gt;Node17 -->
<g id="edge17_Node000007_Node000017" class="edge">
<title>Node7&#45;&gt;Node17</title>
<g id="a_edge17_Node000007_Node000017"><a xlink:title=" ">
<path fill="none" stroke="#63b8ff" d="M637.82,-285.63C659.07,-278.28 687.77,-266.38 709.5,-250 730.22,-234.38 748.48,-210.54 759.72,-194.06"/>
<polygon fill="#63b8ff" stroke="#63b8ff" points="762.64,-195.99 765.22,-185.71 756.79,-192.14 762.64,-195.99"/>
</a>
</g>
</g>
<!-- Node18 -->
<g id="Node000018" class="node">
<title>Node18</title>
<g id="a_Node000018"><a xlink:href="exif-content_8h.html" target="_top" xlink:title="Handling EXIF IFDs.">
<polygon fill="white" stroke="#666666" points="667,-244.5 550,-244.5 550,-225.5 667,-225.5 667,-244.5"/>
<text text-anchor="middle" x="608.5" y="-232.5" font-family="Helvetica,sans-Serif" font-size="10.00">libexif/exif&#45;content.h</text>
</a>
</g>
</g>
<!-- Node7&#45;&gt;Node18 -->
<g id="edge20_Node000007_Node000018" class="edge">
<title>Node7&#45;&gt;Node18</title>
<g id="a_edge20_Node000007_Node000018"><a xlink:title=" ">
<path fill="none" stroke="#63b8ff" d="M603.54,-285.87C601.85,-278 601.35,-266.1 602.07,-255.89"/>
<polygon fill="#63b8ff" stroke="#63b8ff" points="605.51,-256.54 603.34,-246.17 598.57,-255.63 605.51,-256.54"/>
</a>
</g>
</g>
<!-- Node20 -->
<g id="Node000020" class="node">
<title>Node20</title>
<g id="a_Node000020"><a xlink:href="exif-mnote-data_8h.html" target="_top" xlink:title="Handling EXIF MakerNote tags.">
<polygon fill="white" stroke="#666666" points="493,-250 390,-250 390,-220 493,-220 493,-250"/>
<text text-anchor="start" x="398" y="-238" font-family="Helvetica,sans-Serif" font-size="10.00">libexif/exif&#45;mnote</text>
<text text-anchor="middle" x="441.5" y="-227" font-family="Helvetica,sans-Serif" font-size="10.00">&#45;data.h</text>
</a>
</g>
</g>
<!-- Node7&#45;&gt;Node20 -->
<g id="edge29_Node000007_Node000020" class="edge">
<title>Node7&#45;&gt;Node20</title>
<g id="a_edge29_Node000007_Node000020"><a xlink:title=" ">
<path fill="none" stroke="#63b8ff" d="M583.14,-285.62C559.41,-277.3 523.24,-264.63 493.4,-254.18"/>
<polygon fill="#63b8ff" stroke="#63b8ff" points="494.74,-250.94 484.15,-250.94 492.43,-257.55 494.74,-250.94"/>
</a>
</g>
</g>
<!-- Node11&#45;&gt;Node12 -->
<g id="edge11_Node000011_Node000012" class="edge">
<title>Node11&#45;&gt;Node12</title>
<g id="a_edge11_Node000011_Node000012"><a xlink:title=" ">
<path fill="none" stroke="#63b8ff" d="M438.46,-164.51C453.86,-156.35 476.81,-144.19 494.69,-134.71"/>
<polygon fill="#63b8ff" stroke="#63b8ff" points="496.25,-137.84 503.45,-130.07 492.97,-131.66 496.25,-137.84"/>
</a>
</g>
</g>
<!-- Node16 -->
<g id="Node000016" class="node">
<title>Node16</title>
<g id="a_Node000016"><a xlink:title=" ">
<polygon fill="#e0e0e0" stroke="#999999" points="449.5,-129 393.5,-129 393.5,-110 449.5,-110 449.5,-129"/>
<text text-anchor="middle" x="421.5" y="-117" font-family="Helvetica,sans-Serif" font-size="10.00">stdarg.h</text>
</a>
</g>
</g>
<!-- Node11&#45;&gt;Node16 -->
<g id="edge16_Node000011_Node000016" class="edge">
<title>Node11&#45;&gt;Node16</title>
<g id="a_edge16_Node000011_Node000016"><a xlink:title=" ">
<path fill="none" stroke="#63b8ff" d="M421.5,-164.75C421.5,-158.27 421.5,-149.16 421.5,-140.9"/>
<polygon fill="#63b8ff" stroke="#63b8ff" points="425,-140.96 421.5,-130.96 418,-140.96 425,-140.96"/>
</a>
</g>
</g>
<!-- Node13 -->
<g id="Node000013" class="node">
<title>Node13</title>
<g id="a_Node000013"><a xlink:href="exif-utils_8h.html" target="_top" xlink:title="EXIF data manipulation functions and types.">
<polygon fill="white" stroke="#666666" points="573,-74 472,-74 472,-55 573,-55 573,-74"/>
<text text-anchor="middle" x="522.5" y="-62" font-family="Helvetica,sans-Serif" font-size="10.00">libexif/exif&#45;utils.h</text>
</a>
</g>
</g>
<!-- Node12&#45;&gt;Node13 -->
<g id="edge12_Node000012_Node000013" class="edge">
<title>Node12&#45;&gt;Node13</title>
<g id="a_edge12_Node000012_Node000013"><a xlink:title=" ">
<path fill="none" stroke="#63b8ff" d="M521.67,-109.75C521.79,-103.27 521.96,-94.16 522.12,-85.9"/>
<polygon fill="#63b8ff" stroke="#63b8ff" points="525.61,-86.02 522.3,-75.96 518.61,-85.89 525.61,-86.02"/>
</a>
</g>
</g>
<!-- Node13&#45;&gt;Node8 -->
<g id="edge13_Node000013_Node000008" class="edge">
<title>Node13&#45;&gt;Node8</title>
<g id="a_edge13_Node000013_Node000008"><a xlink:title=" ">
<path fill="none" stroke="#63b8ff" d="M573.22,-54.51C624.82,-45.36 704.82,-31.18 760,-21.4"/>
<polygon fill="#63b8ff" stroke="#63b8ff" points="760.3,-24.9 769.54,-19.71 759.08,-18.01 760.3,-24.9"/>
</a>
</g>
</g>
<!-- Node14 -->
<g id="Node000014" class="node">
<title>Node14</title>
<g id="a_Node000014"><a xlink:href="exif-format_8h.html" target="_top" xlink:title="Handling native EXIF data types.">
<polygon fill="white" stroke="#666666" points="660,-19 547,-19 547,0 660,0 660,-19"/>
<text text-anchor="middle" x="603.5" y="-7" font-family="Helvetica,sans-Serif" font-size="10.00">libexif/exif&#45;format.h</text>
</a>
</g>
</g>
<!-- Node13&#45;&gt;Node14 -->
<g id="edge14_Node000013_Node000014" class="edge">
<title>Node13&#45;&gt;Node14</title>
<g id="a_edge14_Node000013_Node000014"><a xlink:title=" ">
<path fill="none" stroke="#63b8ff" d="M536.24,-54.51C548.3,-46.62 566.09,-34.98 580.34,-25.65"/>
<polygon fill="#63b8ff" stroke="#63b8ff" points="582.24,-28.59 588.7,-20.19 578.41,-22.73 582.24,-28.59"/>
</a>
</g>
</g>
<!-- Node15 -->
<g id="Node000015" class="node">
<title>Node15</title>
<g id="a_Node000015"><a xlink:title=" ">
<polygon fill="#e0e0e0" stroke="#999999" points="528.5,-19 436.5,-19 436.5,0 528.5,0 528.5,-19"/>
<text text-anchor="middle" x="482.5" y="-7" font-family="Helvetica,sans-Serif" font-size="10.00">libexif/_stdint.h</text>
</a>
</g>
</g>
<!-- Node13&#45;&gt;Node15 -->
<g id="edge15_Node000013_Node000015" class="edge">
<title>Node13&#45;&gt;Node15</title>
<g id="a_edge15_Node000013_Node000015"><a xlink:title=" ">
<path fill="none" stroke="#63b8ff" d="M515.89,-54.75C510.54,-47.66 502.82,-37.42 496.15,-28.59"/>
<polygon fill="#63b8ff" stroke="#63b8ff" points="498.98,-26.52 490.16,-20.65 493.39,-30.74 498.98,-26.52"/>
</a>
</g>
</g>
<!-- Node17&#45;&gt;Node9 -->
<g id="edge19_Node000017_Node000009" class="edge">
<title>Node17&#45;&gt;Node9</title>
<g id="a_edge19_Node000017_Node000009"><a xlink:title=" ">
<path fill="none" stroke="#63b8ff" d="M758.61,-164.51C747.4,-156.7 730.93,-145.21 717.62,-135.93"/>
<polygon fill="#63b8ff" stroke="#63b8ff" points="719.65,-133.07 709.44,-130.22 715.64,-138.81 719.65,-133.07"/>
</a>
</g>
</g>
<!-- Node17&#45;&gt;Node10 -->
<g id="edge18_Node000017_Node000010" class="edge">
<title>Node17&#45;&gt;Node10</title>
<g id="a_edge18_Node000017_Node000010"><a xlink:title=" ">
<path fill="none" stroke="#63b8ff" d="M780.25,-164.75C787.65,-157.35 798.46,-146.54 807.55,-137.45"/>
<polygon fill="#63b8ff" stroke="#63b8ff" points="809.89,-140.06 814.49,-130.51 804.94,-135.11 809.89,-140.06"/>
</a>
</g>
</g>
<!-- Node18&#45;&gt;Node7 -->
<g id="edge26_Node000018_Node000007" class="edge">
<title>Node18&#45;&gt;Node7</title>
<g id="a_edge26_Node000018_Node000007"><a xlink:title=" ">
<path fill="none" stroke="#63b8ff" d="M613.46,-244.67C615.16,-252.54 615.65,-264.45 614.93,-274.66"/>
<polygon fill="#63b8ff" stroke="#63b8ff" points="611.49,-274 613.65,-284.37 618.43,-274.91 611.49,-274"/>
</a>
</g>
</g>
<!-- Node18&#45;&gt;Node11 -->
<g id="edge27_Node000018_Node000011" class="edge">
<title>Node18&#45;&gt;Node11</title>
<g id="a_edge27_Node000018_Node000011"><a xlink:title=" ">
<path fill="none" stroke="#63b8ff" d="M580.1,-225.12C548.38,-215.19 496.83,-199.07 461.15,-187.9"/>
<polygon fill="#63b8ff" stroke="#63b8ff" points="462.2,-184.57 451.61,-184.92 460.11,-191.25 462.2,-184.57"/>
</a>
</g>
</g>
<!-- Node18&#45;&gt;Node12 -->
<g id="edge28_Node000018_Node000012" class="edge">
<title>Node18&#45;&gt;Node12</title>
<g id="a_edge28_Node000018_Node000012"><a xlink:title=" ">
<path fill="none" stroke="#63b8ff" d="M596.64,-225.04C584.89,-215.72 566.9,-200.25 554.5,-184 544.01,-170.25 535.17,-152.67 529.29,-139.5"/>
<polygon fill="#63b8ff" stroke="#63b8ff" points="532.66,-138.48 525.51,-130.66 526.22,-141.23 532.66,-138.48"/>
</a>
</g>
</g>
<!-- Node18&#45;&gt;Node17 -->
<g id="edge21_Node000018_Node000017" class="edge">
<title>Node18&#45;&gt;Node17</title>
<g id="a_edge21_Node000018_Node000017"><a xlink:title=" ">
<path fill="none" stroke="#63b8ff" d="M633.26,-225.12C660.54,-215.32 704.67,-199.48 735.72,-188.34"/>
<polygon fill="#63b8ff" stroke="#63b8ff" points="736.86,-191.65 745.09,-184.98 734.49,-185.06 736.86,-191.65"/>
</a>
</g>
</g>
<!-- Node19 -->
<g id="Node000019" class="node">
<title>Node19</title>
<g id="a_Node000019"><a xlink:href="exif-entry_8h.html" target="_top" xlink:title="Handling EXIF entries.">
<polygon fill="white" stroke="#666666" points="667.5,-184 563.5,-184 563.5,-165 667.5,-165 667.5,-184"/>
<text text-anchor="middle" x="615.5" y="-172" font-family="Helvetica,sans-Serif" font-size="10.00">libexif/exif&#45;entry.h</text>
</a>
</g>
</g>
<!-- Node18&#45;&gt;Node19 -->
<g id="edge22_Node000018_Node000019" class="edge">
<title>Node18&#45;&gt;Node19</title>
<g id="a_edge22_Node000018_Node000019"><a xlink:title=" ">
<path fill="none" stroke="#63b8ff" d="M604.58,-225.37C603.81,-217.42 604.77,-205.33 606.75,-195.05"/>
<polygon fill="#63b8ff" stroke="#63b8ff" points="610.07,-196.19 609.13,-185.63 603.29,-194.47 610.07,-196.19"/>
</a>
</g>
</g>
<!-- Node19&#45;&gt;Node12 -->
<g id="edge25_Node000019_Node000012" class="edge">
<title>Node19&#45;&gt;Node12</title>
<g id="a_edge25_Node000019_Node000012"><a xlink:title=" ">
<path fill="none" stroke="#63b8ff" d="M599.55,-164.51C585.15,-156.39 563.71,-144.3 546.94,-134.85"/>
<polygon fill="#63b8ff" stroke="#63b8ff" points="548.96,-131.96 538.53,-130.1 545.52,-138.06 548.96,-131.96"/>
</a>
</g>
</g>
<!-- Node19&#45;&gt;Node14 -->
<g id="edge24_Node000019_Node000014" class="edge">
<title>Node19&#45;&gt;Node14</title>
<g id="a_edge24_Node000019_Node000014"><a xlink:title=" ">
<path fill="none" stroke="#63b8ff" d="M614.85,-164.74C613,-139.53 607.61,-66.36 604.98,-30.62"/>
<polygon fill="#63b8ff" stroke="#63b8ff" points="608.48,-30.53 604.26,-20.82 601.5,-31.05 608.48,-30.53"/>
</a>
</g>
</g>
<!-- Node19&#45;&gt;Node18 -->
<g id="edge23_Node000019_Node000018" class="edge">
<title>Node19&#45;&gt;Node18</title>
<g id="a_edge23_Node000019_Node000018"><a xlink:title=" ">
<path fill="none" stroke="#63b8ff" d="M619.43,-184.17C620.19,-192.13 619.22,-204.22 617.24,-214.49"/>
<polygon fill="#63b8ff" stroke="#63b8ff" points="613.92,-213.35 614.86,-223.9 620.71,-215.06 613.92,-213.35"/>
</a>
</g>
</g>
<!-- Node20&#45;&gt;Node11 -->
<g id="edge30_Node000020_Node000011" class="edge">
<title>Node20&#45;&gt;Node11</title>
<g id="a_edge30_Node000020_Node000011"><a xlink:title=" ">
<path fill="none" stroke="#63b8ff" d="M436.56,-219.54C434.01,-212.08 430.86,-202.89 428.11,-194.83"/>
<polygon fill="#63b8ff" stroke="#63b8ff" points="431.5,-193.94 424.96,-185.61 424.88,-196.2 431.5,-193.94"/>
</a>
</g>
</g>
<!-- Node21&#45;&gt;Node7 -->
<g id="edge33_Node000021_Node000007" class="edge">
<title>Node21&#45;&gt;Node7</title>
<g id="a_edge33_Node000021_Node000007"><a xlink:title=" ">
<path fill="none" stroke="#63b8ff" d="M454.88,-340.51C485.54,-331.73 532.41,-318.3 566.31,-308.59"/>
<polygon fill="#63b8ff" stroke="#63b8ff" points="567.17,-311.98 575.82,-305.86 565.24,-305.25 567.17,-311.98"/>
</a>
</g>
</g>
<!-- Node21&#45;&gt;Node11 -->
<g id="edge34_Node000021_Node000011" class="edge">
<title>Node21&#45;&gt;Node11</title>
<g id="a_edge34_Node000021_Node000011"><a xlink:title=" ">
<path fill="none" stroke="#63b8ff" d="M416.86,-340.51C404.95,-323.75 380.38,-286.15 371.5,-250 368.32,-237.05 366.04,-232.16 371.5,-220 376.84,-208.11 387.09,-198.1 396.94,-190.6"/>
<polygon fill="#63b8ff" stroke="#63b8ff" points="398.65,-193.67 404.83,-185.07 394.63,-187.94 398.65,-193.67"/>
</a>
</g>
</g>
<!-- Node21&#45;&gt;Node12 -->
<g id="edge35_Node000021_Node000012" class="edge">
<title>Node21&#45;&gt;Node12</title>
<g id="a_edge35_Node000021_Node000012"><a xlink:title=" ">
<path fill="none" stroke="#63b8ff" d="M412.47,-340.72C402.77,-332.45 388.92,-319.24 380.5,-305 348.65,-251.13 326.9,-214.26 365.5,-165 377.16,-150.12 419.49,-138.61 457.12,-131.02"/>
<polygon fill="#63b8ff" stroke="#63b8ff" points="457.45,-134.52 466.6,-129.18 456.12,-127.65 457.45,-134.52"/>
</a>
</g>
</g>
</g>
</svg>
