<?xml version="1.0" encoding="UTF-8" standalone="no"?>
<!DOCTYPE svg PUBLIC "-//W3C//DTD SVG 1.1//EN"
 "http://www.w3.org/Graphics/SVG/1.1/DTD/svg11.dtd">
<!-- Generated by graphviz version 7.0.1 (0)
 -->
<!-- Title: main Pages: 1 -->
<svg width="839pt" height="102pt"
 viewBox="0.00 0.00 839.00 102.00" xmlns="http://www.w3.org/2000/svg" xmlns:xlink="http://www.w3.org/1999/xlink">
<g id="graph0" class="graph" transform="scale(1 1) rotate(0) translate(4 98)">
<title>main</title>
<!-- Node1 -->
<g id="Node000001" class="node">
<title>Node1</title>
<g id="a_Node000001"><a xlink:title=" ">
<polygon fill="#999999" stroke="#666666" points="41,-72 0,-72 0,-53 41,-53 41,-72"/>
<text text-anchor="middle" x="20.5" y="-60" font-family="Helvetica,sans-Serif" font-size="10.00">main</text>
</a>
</g>
</g>
<!-- Node2 -->
<g id="Node000002" class="node">
<title>Node2</title>
<g id="a_Node000002"><a xlink:href="test-tagtable_8c.html#a55414e595bbc6af1ec1491e84f67feaa" target="_top" xlink:title=" ">
<polygon fill="white" stroke="#666666" points="140.5,-92 96.5,-92 96.5,-73 140.5,-73 140.5,-92"/>
<text text-anchor="middle" x="118.5" y="-80" font-family="Helvetica,sans-Serif" font-size="10.00">name</text>
</a>
</g>
</g>
<!-- Node1&#45;&gt;Node2 -->
<g id="edge1_Node000001_Node000002" class="edge">
<title>Node1&#45;&gt;Node2</title>
<g id="a_edge1_Node000001_Node000002"><a xlink:title=" ">
<path fill="none" stroke="#63b8ff" d="M41.39,-66.64C54.05,-69.28 70.72,-72.75 85.24,-75.78"/>
<polygon fill="#63b8ff" stroke="#63b8ff" points="84.32,-79.16 94.82,-77.78 85.74,-72.31 84.32,-79.16"/>
</a>
</g>
</g>
<!-- Node7 -->
<g id="Node000007" class="node">
<title>Node7</title>
<g id="a_Node000007"><a xlink:href="test-tagtable_8c.html#a606425cf31ba79cee0e010e7c251c5b9" target="_top" xlink:title=" ">
<polygon fill="white" stroke="#666666" points="160,-54 77,-54 77,-35 160,-35 160,-54"/>
<text text-anchor="middle" x="118.5" y="-42" font-family="Helvetica,sans-Serif" font-size="10.00">support_level</text>
</a>
</g>
</g>
<!-- Node1&#45;&gt;Node7 -->
<g id="edge6_Node000001_Node000007" class="edge">
<title>Node1&#45;&gt;Node7</title>
<g id="a_edge6_Node000001_Node000007"><a xlink:title=" ">
<path fill="none" stroke="#63b8ff" d="M41.39,-58.77C48.49,-57.44 56.86,-55.87 65.41,-54.27"/>
<polygon fill="#63b8ff" stroke="#63b8ff" points="65.98,-57.72 75.16,-52.44 64.69,-50.84 65.98,-57.72"/>
</a>
</g>
</g>
<!-- Node3 -->
<g id="Node000003" class="node">
<title>Node3</title>
<g id="a_Node000003"><a xlink:href="exif-tag_8c.html#a6b4f26f6f8f243e1f8a9e123b9cca589" target="_top" xlink:title="Return a textual name of the given tag when found in the given IFD.">
<polygon fill="white" stroke="#666666" points="339,-94 196,-94 196,-75 339,-75 339,-94"/>
<text text-anchor="middle" x="267.5" y="-82" font-family="Helvetica,sans-Serif" font-size="10.00">exif_tag_get_name_in_ifd</text>
</a>
</g>
</g>
<!-- Node2&#45;&gt;Node3 -->
<g id="edge2_Node000002_Node000003" class="edge">
<title>Node2&#45;&gt;Node3</title>
<g id="a_edge2_Node000002_Node000003"><a xlink:title=" ">
<path fill="none" stroke="#63b8ff" d="M140.88,-82.79C152.71,-82.95 168.27,-83.16 184.39,-83.38"/>
<polygon fill="#63b8ff" stroke="#63b8ff" points="184.04,-86.88 194.09,-83.51 184.13,-79.88 184.04,-86.88"/>
</a>
</g>
</g>
<!-- Node4 -->
<g id="Node000004" class="node">
<title>Node4</title>
<g id="a_Node000004"><a xlink:href="exif-tag_8c.html#a389f8ff3411e0525b28367892f1e78d3" target="_top" xlink:title="Finds the first entry in the EXIF tag table with the given tag number using a binary search.">
<polygon fill="white" stroke="#666666" points="676,-56 565,-56 565,-37 676,-37 676,-56"/>
<text text-anchor="middle" x="620.5" y="-44" font-family="Helvetica,sans-Serif" font-size="10.00">exif_tag_table_first</text>
</a>
</g>
</g>
<!-- Node3&#45;&gt;Node4 -->
<g id="edge3_Node000003_Node000004" class="edge">
<title>Node3&#45;&gt;Node4</title>
<g id="a_edge3_Node000003_Node000004"><a xlink:title=" ">
<path fill="none" stroke="#63b8ff" d="M339.23,-81.36C391.76,-78.48 465.08,-73.28 529,-64.5 540.31,-62.95 552.33,-60.86 563.8,-58.67"/>
<polygon fill="#63b8ff" stroke="#63b8ff" points="564.41,-62.11 573.54,-56.74 563.05,-55.25 564.41,-62.11"/>
</a>
</g>
</g>
<!-- Node5 -->
<g id="Node000005" class="node">
<title>Node5</title>
<g id="a_Node000005"><a xlink:href="exif-tag_8c.html#a87563ee64809f5f0deb4d780098508c1" target="_top" xlink:title="Return the number of entries in the EXIF tag table, including the terminating NULL entry.">
<polygon fill="white" stroke="#666666" points="831,-75 712,-75 712,-56 831,-56 831,-75"/>
<text text-anchor="middle" x="771.5" y="-63" font-family="Helvetica,sans-Serif" font-size="10.00">exif_tag_table_count</text>
</a>
</g>
</g>
<!-- Node4&#45;&gt;Node5 -->
<g id="edge4_Node000004_Node000005" class="edge">
<title>Node4&#45;&gt;Node5</title>
<g id="a_edge4_Node000004_Node000005"><a xlink:title=" ">
<path fill="none" stroke="#63b8ff" d="M676.14,-53.47C683.98,-54.47 692.15,-55.51 700.24,-56.54"/>
<polygon fill="#63b8ff" stroke="#63b8ff" points="699.74,-60.01 710.1,-57.8 700.63,-53.06 699.74,-60.01"/>
</a>
</g>
</g>
<!-- Node6 -->
<g id="Node000006" class="node">
<title>Node6</title>
<g id="a_Node000006"><a xlink:href="exif-tag_8c.html#a220c1b18832f113bc84ff9551754915f" target="_top" xlink:title="Compares the tag with that in entry.">
<polygon fill="white" stroke="#666666" points="805.5,-38 737.5,-38 737.5,-19 805.5,-19 805.5,-38"/>
<text text-anchor="middle" x="771.5" y="-26" font-family="Helvetica,sans-Serif" font-size="10.00">match_tag</text>
</a>
</g>
</g>
<!-- Node4&#45;&gt;Node6 -->
<g id="edge5_Node000004_Node000006" class="edge">
<title>Node4&#45;&gt;Node6</title>
<g id="a_edge5_Node000004_Node000006"><a xlink:title=" ">
<path fill="none" stroke="#63b8ff" d="M676.14,-39.9C692.58,-37.91 710.41,-35.76 726.1,-33.86"/>
<polygon fill="#63b8ff" stroke="#63b8ff" points="726.09,-37.39 735.6,-32.72 725.25,-30.44 726.09,-37.39"/>
</a>
</g>
</g>
<!-- Node8 -->
<g id="Node000008" class="node">
<title>Node8</title>
<g id="a_Node000008"><a xlink:href="exif-tag_8c.html#a90f76ad051d48ed87fafa8aca39f98e2" target="_top" xlink:title="Return whether the given tag is mandatory or not in the given IFD and data type according to the EXIF...">
<polygon fill="white" stroke="#666666" points="327,-56.5 208,-56.5 208,-26.5 327,-26.5 327,-56.5"/>
<text text-anchor="start" x="216" y="-44.5" font-family="Helvetica,sans-Serif" font-size="10.00">exif_tag_get_support</text>
<text text-anchor="middle" x="267.5" y="-33.5" font-family="Helvetica,sans-Serif" font-size="10.00">_level_in_ifd</text>
</a>
</g>
</g>
<!-- Node7&#45;&gt;Node8 -->
<g id="edge7_Node000007_Node000008" class="edge">
<title>Node7&#45;&gt;Node8</title>
<g id="a_edge7_Node000007_Node000008"><a xlink:title=" ">
<path fill="none" stroke="#63b8ff" d="M160.45,-43.66C171.63,-43.44 184.08,-43.18 196.4,-42.93"/>
<polygon fill="#63b8ff" stroke="#63b8ff" points="196.2,-46.44 206.13,-42.73 196.06,-39.44 196.2,-46.44"/>
</a>
</g>
</g>
<!-- Node9 -->
<g id="Node000009" class="node">
<title>Node9</title>
<g id="a_Node000009"><a xlink:href="exif-tag_8c.html#a92f313f59c9f2fc4bebe2438be038bd9" target="_top" xlink:title="Return the support level of a tag in the given IFD, regardless of the data type.">
<polygon fill="white" stroke="#666666" points="529,-56 375,-56 375,-37 529,-37 529,-56"/>
<text text-anchor="middle" x="452" y="-44" font-family="Helvetica,sans-Serif" font-size="10.00">get_support_level_any_type</text>
</a>
</g>
</g>
<!-- Node8&#45;&gt;Node9 -->
<g id="edge8_Node000008_Node000009" class="edge">
<title>Node8&#45;&gt;Node9</title>
<g id="a_edge8_Node000008_Node000009"><a xlink:title=" ">
<path fill="none" stroke="#63b8ff" d="M327.25,-43.11C338.82,-43.43 351.19,-43.77 363.47,-44.1"/>
<polygon fill="#63b8ff" stroke="#63b8ff" points="363.09,-47.59 373.18,-44.37 363.28,-40.6 363.09,-47.59"/>
</a>
</g>
</g>
<!-- Node10 -->
<g id="Node000010" class="node">
<title>Node10</title>
<g id="a_Node000010"><a xlink:href="exif-tag_8c.html#a1581a40dbcb0f27d4a3f8181b272c55b" target="_top" xlink:title="Return the support level of a tag in the given IFD with the given data type.">
<polygon fill="white" stroke="#666666" points="520,-19 384,-19 384,0 520,0 520,-19"/>
<text text-anchor="middle" x="452" y="-7" font-family="Helvetica,sans-Serif" font-size="10.00">get_support_level_in_ifd</text>
</a>
</g>
</g>
<!-- Node8&#45;&gt;Node10 -->
<g id="edge10_Node000008_Node000010" class="edge">
<title>Node8&#45;&gt;Node10</title>
<g id="a_edge10_Node000008_Node000010"><a xlink:title=" ">
<path fill="none" stroke="#63b8ff" d="M327.25,-31.2C345.02,-28.08 364.69,-24.63 383.02,-21.42"/>
<polygon fill="#63b8ff" stroke="#63b8ff" points="383.49,-24.89 392.74,-19.72 382.28,-18 383.49,-24.89"/>
</a>
</g>
</g>
<!-- Node9&#45;&gt;Node4 -->
<g id="edge9_Node000009_Node000004" class="edge">
<title>Node9&#45;&gt;Node4</title>
<g id="a_edge9_Node000009_Node000004"><a xlink:title=" ">
<path fill="none" stroke="#63b8ff" d="M529.43,-46.5C537.47,-46.5 545.6,-46.5 553.51,-46.5"/>
<polygon fill="#63b8ff" stroke="#63b8ff" points="553.39,-50 563.39,-46.5 553.39,-43 553.39,-50"/>
</a>
</g>
</g>
<!-- Node10&#45;&gt;Node4 -->
<g id="edge11_Node000010_Node000004" class="edge">
<title>Node10&#45;&gt;Node4</title>
<g id="a_edge11_Node000010_Node000004"><a xlink:title=" ">
<path fill="none" stroke="#63b8ff" d="M497.62,-19.42C517.96,-23.94 542.26,-29.34 563.79,-34.12"/>
<polygon fill="#63b8ff" stroke="#63b8ff" points="562.76,-37.48 573.28,-36.23 564.28,-30.64 562.76,-37.48"/>
</a>
</g>
</g>
</g>
</svg>
