<?xml version="1.0" encoding="UTF-8" standalone="no"?>
<!DOCTYPE svg PUBLIC "-//W3C//DTD SVG 1.1//EN"
 "http://www.w3.org/Graphics/SVG/1.1/DTD/svg11.dtd">
<!-- Generated by graphviz version 7.0.1 (0)
 -->
<!-- Title: dump_makernote Pages: 1 -->
<svg width="299pt" height="187pt"
 viewBox="0.00 0.00 299.00 186.50" xmlns="http://www.w3.org/2000/svg" xmlns:xlink="http://www.w3.org/1999/xlink">
<g id="graph0" class="graph" transform="scale(1 1) rotate(0) translate(4 182.5)">
<title>dump_makernote</title>
<!-- Node1 -->
<g id="Node000001" class="node">
<title>Node1</title>
<g id="a_Node000001"><a xlink:title=" ">
<polygon fill="#999999" stroke="#666666" points="102,-104.5 0,-104.5 0,-85.5 102,-85.5 102,-104.5"/>
<text text-anchor="middle" x="51" y="-92.5" font-family="Helvetica,sans-Serif" font-size="10.00">dump_makernote</text>
</a>
</g>
</g>
<!-- Node2 -->
<g id="Node000002" class="node">
<title>Node2</title>
<g id="a_Node000002"><a xlink:href="exif-data_8c.html#a3781327036264237ef8dfd88c66bd399" target="_top" xlink:title="Return the MakerNote data out of the EXIF data.">
<polygon fill="white" stroke="#666666" points="288,-178.5 141,-178.5 141,-159.5 288,-159.5 288,-178.5"/>
<text text-anchor="middle" x="214.5" y="-166.5" font-family="Helvetica,sans-Serif" font-size="10.00">exif_data_get_mnote_data</text>
</a>
</g>
</g>
<!-- Node1&#45;&gt;Node2 -->
<g id="edge1_Node000001_Node000002" class="edge">
<title>Node1&#45;&gt;Node2</title>
<g id="a_edge1_Node000001_Node000002"><a xlink:title=" ">
<path fill="none" stroke="#63b8ff" d="M64.05,-104.79C80.02,-117.29 109.51,-138.77 138,-151 142,-152.72 146.18,-154.28 150.45,-155.72"/>
<polygon fill="#63b8ff" stroke="#63b8ff" points="149.13,-158.97 159.71,-158.56 151.18,-152.28 149.13,-158.97"/>
</a>
</g>
</g>
<!-- Node3 -->
<g id="Node000003" class="node">
<title>Node3</title>
<g id="a_Node000003"><a xlink:href="exif-mnote-data_8c.html#af61fbda7c717e86991b0eccf6976a5f4" target="_top" xlink:title="Return the number of tags in the MakerNote.">
<polygon fill="white" stroke="#666666" points="280,-141.5 149,-141.5 149,-122.5 280,-122.5 280,-141.5"/>
<text text-anchor="middle" x="214.5" y="-129.5" font-family="Helvetica,sans-Serif" font-size="10.00">exif_mnote_data_count</text>
</a>
</g>
</g>
<!-- Node1&#45;&gt;Node3 -->
<g id="edge2_Node000001_Node000003" class="edge">
<title>Node1&#45;&gt;Node3</title>
<g id="a_edge2_Node000001_Node000003"><a xlink:title=" ">
<path fill="none" stroke="#63b8ff" d="M95.28,-104.92C114.83,-109.39 138.15,-114.74 158.89,-119.49"/>
<polygon fill="#63b8ff" stroke="#63b8ff" points="158.1,-122.9 168.63,-121.72 159.66,-116.07 158.1,-122.9"/>
</a>
</g>
</g>
<!-- Node4 -->
<g id="Node000004" class="node">
<title>Node4</title>
<g id="a_Node000004"><a xlink:href="exif-mnote-data_8c.html#a981bab235db2e156216d5cc43f48cac7" target="_top" xlink:title="Return the MakerNote tag number for the tag at the specified index within the MakerNote.">
<polygon fill="white" stroke="#666666" points="281.5,-104.5 147.5,-104.5 147.5,-85.5 281.5,-85.5 281.5,-104.5"/>
<text text-anchor="middle" x="214.5" y="-92.5" font-family="Helvetica,sans-Serif" font-size="10.00">exif_mnote_data_get_id</text>
</a>
</g>
</g>
<!-- Node1&#45;&gt;Node4 -->
<g id="edge3_Node000001_Node000004" class="edge">
<title>Node1&#45;&gt;Node4</title>
<g id="a_edge3_Node000001_Node000004"><a xlink:title=" ">
<path fill="none" stroke="#63b8ff" d="M102.21,-95C112.91,-95 124.44,-95 135.89,-95"/>
<polygon fill="#63b8ff" stroke="#63b8ff" points="135.76,-98.5 145.76,-95 135.76,-91.5 135.76,-98.5"/>
</a>
</g>
</g>
<!-- Node5 -->
<g id="Node000005" class="node">
<title>Node5</title>
<g id="a_Node000005"><a xlink:href="exif-mnote-data_8c.html#aac0686178cd4b8b5ec3b1c78b41acbf8" target="_top" xlink:title="Returns textual name of the given MakerNote tag.">
<polygon fill="white" stroke="#666666" points="291,-67.5 138,-67.5 138,-48.5 291,-48.5 291,-67.5"/>
<text text-anchor="middle" x="214.5" y="-55.5" font-family="Helvetica,sans-Serif" font-size="10.00">exif_mnote_data_get_name</text>
</a>
</g>
</g>
<!-- Node1&#45;&gt;Node5 -->
<g id="edge4_Node000001_Node000005" class="edge">
<title>Node1&#45;&gt;Node5</title>
<g id="a_edge4_Node000001_Node000005"><a xlink:title=" ">
<path fill="none" stroke="#63b8ff" d="M95.28,-85.08C114.83,-80.61 138.15,-75.26 158.89,-70.51"/>
<polygon fill="#63b8ff" stroke="#63b8ff" points="159.66,-73.93 168.63,-68.28 158.1,-67.1 159.66,-73.93"/>
</a>
</g>
</g>
<!-- Node6 -->
<g id="Node000006" class="node">
<title>Node6</title>
<g id="a_Node000006"><a xlink:href="exif-mnote-data_8c.html#a299e3e7c9ee3c79f3678872b8a6038c4" target="_top" xlink:title="Return a textual representation of the value of the MakerNote entry.">
<polygon fill="white" stroke="#666666" points="274.5,-30 154.5,-30 154.5,0 274.5,0 274.5,-30"/>
<text text-anchor="start" x="162.5" y="-18" font-family="Helvetica,sans-Serif" font-size="10.00">exif_mnote_data_get</text>
<text text-anchor="middle" x="214.5" y="-7" font-family="Helvetica,sans-Serif" font-size="10.00">_value</text>
</a>
</g>
</g>
<!-- Node1&#45;&gt;Node6 -->
<g id="edge5_Node000001_Node000006" class="edge">
<title>Node1&#45;&gt;Node6</title>
<g id="a_edge5_Node000001_Node000006"><a xlink:title=" ">
<path fill="none" stroke="#63b8ff" d="M65.1,-85.15C81.46,-73.19 110.64,-53.03 138,-40 142.02,-38.08 146.23,-36.26 150.51,-34.52"/>
<polygon fill="#63b8ff" stroke="#63b8ff" points="151.75,-37.79 159.84,-30.95 149.25,-31.26 151.75,-37.79"/>
</a>
</g>
</g>
</g>
</svg>
