<?xml version="1.0" encoding="UTF-8" standalone="no"?>
<!DOCTYPE svg PUBLIC "-//W3C//DTD SVG 1.1//EN"
 "http://www.w3.org/Graphics/SVG/1.1/DTD/svg11.dtd">
<!-- Generated by graphviz version 7.0.1 (0)
 -->
<!-- Title: test/test&#45;gps.c Pages: 1 -->
<svg width="920pt" height="368pt"
 viewBox="0.00 0.00 919.50 368.00" xmlns="http://www.w3.org/2000/svg" xmlns:xlink="http://www.w3.org/1999/xlink">
<g id="graph0" class="graph" transform="scale(1 1) rotate(0) translate(4 364)">
<title>test/test&#45;gps.c</title>
<!-- Node1 -->
<g id="Node000001" class="node">
<title>Node1</title>
<g id="a_Node000001"><a xlink:title=" ">
<polygon fill="#999999" stroke="#666666" points="751,-360 665,-360 665,-341 751,-341 751,-360"/>
<text text-anchor="middle" x="708" y="-348" font-family="Helvetica,sans-Serif" font-size="10.00">test/test&#45;gps.c</text>
</a>
</g>
</g>
<!-- Node2 -->
<g id="Node000002" class="node">
<title>Node2</title>
<g id="a_Node000002"><a xlink:href="exif-utils_8h.html" target="_top" xlink:title="EXIF data manipulation functions and types.">
<polygon fill="white" stroke="#666666" points="487.5,-74 386.5,-74 386.5,-55 487.5,-55 487.5,-74"/>
<text text-anchor="middle" x="437" y="-62" font-family="Helvetica,sans-Serif" font-size="10.00">libexif/exif&#45;utils.h</text>
</a>
</g>
</g>
<!-- Node1&#45;&gt;Node2 -->
<g id="edge1_Node000001_Node000002" class="edge">
<title>Node1&#45;&gt;Node2</title>
<g id="a_edge1_Node000001_Node000002"><a xlink:title=" ">
<path fill="none" stroke="#63b8ff" d="M686.26,-340.59C670.9,-333.22 650.98,-321.32 639,-305 620.17,-279.36 620,-267.81 620,-236 620,-236 620,-236 620,-173.5 620,-115.98 552.12,-88.47 499.05,-75.74"/>
<polygon fill="#63b8ff" stroke="#63b8ff" points="499.98,-72.36 489.45,-73.58 498.44,-79.19 499.98,-72.36"/>
</a>
</g>
</g>
<!-- Node6 -->
<g id="Node000006" class="node">
<title>Node6</title>
<g id="a_Node000006"><a xlink:href="exif-data_8h.html" target="_top" xlink:title="Defines the ExifData type and the associated functions.">
<polygon fill="white" stroke="#666666" points="392,-305 290,-305 290,-286 392,-286 392,-305"/>
<text text-anchor="middle" x="341" y="-293" font-family="Helvetica,sans-Serif" font-size="10.00">libexif/exif&#45;data.h</text>
</a>
</g>
</g>
<!-- Node1&#45;&gt;Node6 -->
<g id="edge5_Node000001_Node000006" class="edge">
<title>Node1&#45;&gt;Node6</title>
<g id="a_edge5_Node000001_Node000006"><a xlink:title=" ">
<path fill="none" stroke="#63b8ff" d="M664.82,-343.26C600.12,-333.92 477.69,-316.24 403.31,-305.5"/>
<polygon fill="#63b8ff" stroke="#63b8ff" points="404.14,-302.08 393.74,-304.12 403.14,-309.01 404.14,-302.08"/>
</a>
</g>
</g>
<!-- Node16 -->
<g id="Node000016" class="node">
<title>Node16</title>
<g id="a_Node000016"><a xlink:title=" ">
<polygon fill="#e0e0e0" stroke="#999999" points="698,-305 648,-305 648,-286 698,-286 698,-305"/>
<text text-anchor="middle" x="673" y="-293" font-family="Helvetica,sans-Serif" font-size="10.00">stdio.h</text>
</a>
</g>
</g>
<!-- Node1&#45;&gt;Node16 -->
<g id="edge28_Node000001_Node000016" class="edge">
<title>Node1&#45;&gt;Node16</title>
<g id="a_edge28_Node000001_Node000016"><a xlink:title=" ">
<path fill="none" stroke="#63b8ff" d="M702.22,-340.75C697.59,-333.73 690.93,-323.64 685.13,-314.87"/>
<polygon fill="#63b8ff" stroke="#63b8ff" points="688.17,-313.12 679.74,-306.71 682.33,-316.98 688.17,-313.12"/>
</a>
</g>
</g>
<!-- Node17 -->
<g id="Node000017" class="node">
<title>Node17</title>
<g id="a_Node000017"><a xlink:title=" ">
<polygon fill="#e0e0e0" stroke="#999999" points="769.5,-305 716.5,-305 716.5,-286 769.5,-286 769.5,-305"/>
<text text-anchor="middle" x="743" y="-293" font-family="Helvetica,sans-Serif" font-size="10.00">stdlib.h</text>
</a>
</g>
</g>
<!-- Node1&#45;&gt;Node17 -->
<g id="edge29_Node000001_Node000017" class="edge">
<title>Node1&#45;&gt;Node17</title>
<g id="a_edge29_Node000001_Node000017"><a xlink:title=" ">
<path fill="none" stroke="#63b8ff" d="M713.78,-340.75C718.41,-333.73 725.07,-323.64 730.87,-314.87"/>
<polygon fill="#63b8ff" stroke="#63b8ff" points="733.67,-316.98 736.26,-306.71 727.83,-313.12 733.67,-316.98"/>
</a>
</g>
</g>
<!-- Node18 -->
<g id="Node000018" class="node">
<title>Node18</title>
<g id="a_Node000018"><a xlink:title=" ">
<polygon fill="#e0e0e0" stroke="#999999" points="840.5,-305 787.5,-305 787.5,-286 840.5,-286 840.5,-305"/>
<text text-anchor="middle" x="814" y="-293" font-family="Helvetica,sans-Serif" font-size="10.00">string.h</text>
</a>
</g>
</g>
<!-- Node1&#45;&gt;Node18 -->
<g id="edge30_Node000001_Node000018" class="edge">
<title>Node1&#45;&gt;Node18</title>
<g id="a_edge30_Node000001_Node000018"><a xlink:title=" ">
<path fill="none" stroke="#63b8ff" d="M725.98,-340.51C742.45,-332.27 767.09,-319.96 786.11,-310.45"/>
<polygon fill="#63b8ff" stroke="#63b8ff" points="787.55,-313.64 794.93,-306.03 784.42,-307.38 787.55,-313.64"/>
</a>
</g>
</g>
<!-- Node19 -->
<g id="Node000019" class="node">
<title>Node19</title>
<g id="a_Node000019"><a xlink:title=" ">
<polygon fill="#e0e0e0" stroke="#999999" points="911.5,-305 858.5,-305 858.5,-286 911.5,-286 911.5,-305"/>
<text text-anchor="middle" x="885" y="-293" font-family="Helvetica,sans-Serif" font-size="10.00">stdint.h</text>
</a>
</g>
</g>
<!-- Node1&#45;&gt;Node19 -->
<g id="edge31_Node000001_Node000019" class="edge">
<title>Node1&#45;&gt;Node19</title>
<g id="a_edge31_Node000001_Node000019"><a xlink:title=" ">
<path fill="none" stroke="#63b8ff" d="M738.03,-340.51C768.11,-331.5 814.52,-317.61 847.12,-307.84"/>
<polygon fill="#63b8ff" stroke="#63b8ff" points="848,-311.23 856.57,-305.01 845.99,-304.53 848,-311.23"/>
</a>
</g>
</g>
<!-- Node3 -->
<g id="Node000003" class="node">
<title>Node3</title>
<g id="a_Node000003"><a xlink:href="exif-byte-order_8h.html" target="_top" xlink:title="Defines the ExifByteOrder enum and the associated functions.">
<polygon fill="white" stroke="#666666" points="642.5,-19 511.5,-19 511.5,0 642.5,0 642.5,-19"/>
<text text-anchor="middle" x="577" y="-7" font-family="Helvetica,sans-Serif" font-size="10.00">libexif/exif&#45;byte&#45;order.h</text>
</a>
</g>
</g>
<!-- Node2&#45;&gt;Node3 -->
<g id="edge2_Node000002_Node000003" class="edge">
<title>Node2&#45;&gt;Node3</title>
<g id="a_edge2_Node000002_Node000003"><a xlink:title=" ">
<path fill="none" stroke="#63b8ff" d="M460.75,-54.51C483.31,-45.97 517.47,-33.03 542.94,-23.4"/>
<polygon fill="#63b8ff" stroke="#63b8ff" points="544.07,-26.71 552.19,-19.89 541.59,-20.16 544.07,-26.71"/>
</a>
</g>
</g>
<!-- Node4 -->
<g id="Node000004" class="node">
<title>Node4</title>
<g id="a_Node000004"><a xlink:href="exif-format_8h.html" target="_top" xlink:title="Handling native EXIF data types.">
<polygon fill="white" stroke="#666666" points="352.5,-19 239.5,-19 239.5,0 352.5,0 352.5,-19"/>
<text text-anchor="middle" x="296" y="-7" font-family="Helvetica,sans-Serif" font-size="10.00">libexif/exif&#45;format.h</text>
</a>
</g>
</g>
<!-- Node2&#45;&gt;Node4 -->
<g id="edge3_Node000002_Node000004" class="edge">
<title>Node2&#45;&gt;Node4</title>
<g id="a_edge3_Node000002_Node000004"><a xlink:title=" ">
<path fill="none" stroke="#63b8ff" d="M413.08,-54.51C390.36,-45.97 355.95,-33.03 330.31,-23.4"/>
<polygon fill="#63b8ff" stroke="#63b8ff" points="331.57,-20.13 320.98,-19.89 329.11,-26.69 331.57,-20.13"/>
</a>
</g>
</g>
<!-- Node5 -->
<g id="Node000005" class="node">
<title>Node5</title>
<g id="a_Node000005"><a xlink:title=" ">
<polygon fill="#e0e0e0" stroke="#999999" points="483,-19 391,-19 391,0 483,0 483,-19"/>
<text text-anchor="middle" x="437" y="-7" font-family="Helvetica,sans-Serif" font-size="10.00">libexif/_stdint.h</text>
</a>
</g>
</g>
<!-- Node2&#45;&gt;Node5 -->
<g id="edge4_Node000002_Node000005" class="edge">
<title>Node2&#45;&gt;Node5</title>
<g id="a_edge4_Node000002_Node000005"><a xlink:title=" ">
<path fill="none" stroke="#63b8ff" d="M437,-54.75C437,-48.27 437,-39.16 437,-30.9"/>
<polygon fill="#63b8ff" stroke="#63b8ff" points="440.5,-30.96 437,-20.96 433.5,-30.96 440.5,-30.96"/>
</a>
</g>
</g>
<!-- Node6&#45;&gt;Node3 -->
<g id="edge6_Node000006_Node000003" class="edge">
<title>Node6&#45;&gt;Node3</title>
<g id="a_edge6_Node000006_Node000003"><a xlink:title=" ">
<path fill="none" stroke="#63b8ff" d="M392.22,-294.47C435.75,-291.98 497.88,-282.33 541,-250 571.24,-227.33 582,-213.29 582,-175.5 582,-175.5 582,-175.5 582,-118.5 582,-87.89 579.97,-52.45 578.5,-30.76"/>
<polygon fill="#63b8ff" stroke="#63b8ff" points="582,-30.69 577.8,-20.96 575.02,-31.19 582,-30.69"/>
</a>
</g>
</g>
<!-- Node7 -->
<g id="Node000007" class="node">
<title>Node7</title>
<g id="a_Node000007"><a xlink:href="exif-data-type_8h.html" target="_top" xlink:title=" ">
<polygon fill="white" stroke="#666666" points="128,-129 0,-129 0,-110 128,-110 128,-129"/>
<text text-anchor="middle" x="64" y="-117" font-family="Helvetica,sans-Serif" font-size="10.00">libexif/exif&#45;data&#45;type.h</text>
</a>
</g>
</g>
<!-- Node6&#45;&gt;Node7 -->
<g id="edge7_Node000006_Node000007" class="edge">
<title>Node6&#45;&gt;Node7</title>
<g id="a_edge7_Node000006_Node000007"><a xlink:title=" ">
<path fill="none" stroke="#63b8ff" d="M289.68,-287.57C252.79,-281.22 202.62,-269.72 162,-250 118.97,-229.11 102.25,-224.62 77,-184 68.9,-170.96 65.74,-153.79 64.55,-140.59"/>
<polygon fill="#63b8ff" stroke="#63b8ff" points="68.07,-140.72 64.01,-130.93 61.08,-141.11 68.07,-140.72"/>
</a>
</g>
</g>
<!-- Node8 -->
<g id="Node000008" class="node">
<title>Node8</title>
<g id="a_Node000008"><a xlink:href="exif-ifd_8h.html" target="_top" xlink:title=" ">
<polygon fill="white" stroke="#666666" points="245.5,-129 152.5,-129 152.5,-110 245.5,-110 245.5,-129"/>
<text text-anchor="middle" x="199" y="-117" font-family="Helvetica,sans-Serif" font-size="10.00">libexif/exif&#45;ifd.h</text>
</a>
</g>
</g>
<!-- Node6&#45;&gt;Node8 -->
<g id="edge8_Node000006_Node000008" class="edge">
<title>Node6&#45;&gt;Node8</title>
<g id="a_edge8_Node000006_Node000008"><a xlink:title=" ">
<path fill="none" stroke="#63b8ff" d="M291.06,-285.56C269.09,-279.17 244.75,-268.32 229,-250 202.24,-218.88 198.18,-168.5 198.2,-140.64"/>
<polygon fill="#63b8ff" stroke="#63b8ff" points="201.7,-140.85 198.41,-130.78 194.7,-140.7 201.7,-140.85"/>
</a>
</g>
</g>
<!-- Node9 -->
<g id="Node000009" class="node">
<title>Node9</title>
<g id="a_Node000009"><a xlink:href="exif-log_8h.html" target="_top" xlink:title="Log message infrastructure.">
<polygon fill="white" stroke="#666666" points="531.5,-184 436.5,-184 436.5,-165 531.5,-165 531.5,-184"/>
<text text-anchor="middle" x="484" y="-172" font-family="Helvetica,sans-Serif" font-size="10.00">libexif/exif&#45;log.h</text>
</a>
</g>
</g>
<!-- Node6&#45;&gt;Node9 -->
<g id="edge9_Node000006_Node000009" class="edge">
<title>Node6&#45;&gt;Node9</title>
<g id="a_edge9_Node000006_Node000009"><a xlink:title=" ">
<path fill="none" stroke="#63b8ff" d="M392.08,-289.1C440.39,-282.81 507.84,-270.57 524,-250 538.37,-231.72 519.64,-207.54 503.28,-191.76"/>
<polygon fill="#63b8ff" stroke="#63b8ff" points="506,-189.5 496.24,-185.37 501.29,-194.68 506,-189.5"/>
</a>
</g>
</g>
<!-- Node10 -->
<g id="Node000010" class="node">
<title>Node10</title>
<g id="a_Node000010"><a xlink:href="exif-mem_8h.html" target="_top" xlink:title="Define the ExifMem data type and the associated functions.">
<polygon fill="white" stroke="#666666" points="450,-129 344,-129 344,-110 450,-110 450,-129"/>
<text text-anchor="middle" x="397" y="-117" font-family="Helvetica,sans-Serif" font-size="10.00">libexif/exif&#45;mem.h</text>
</a>
</g>
</g>
<!-- Node6&#45;&gt;Node10 -->
<g id="edge27_Node000006_Node000010" class="edge">
<title>Node6&#45;&gt;Node10</title>
<g id="a_edge27_Node000006_Node000010"><a xlink:title=" ">
<path fill="none" stroke="#63b8ff" d="M346.38,-285.58C351.5,-276.78 359.12,-262.84 364,-250 378.32,-212.34 388.4,-166.18 393.4,-140.38"/>
<polygon fill="#63b8ff" stroke="#63b8ff" points="396.81,-141.15 395.22,-130.68 389.93,-139.86 396.81,-141.15"/>
</a>
</g>
</g>
<!-- Node12 -->
<g id="Node000012" class="node">
<title>Node12</title>
<g id="a_Node000012"><a xlink:href="exif-tag_8h.html" target="_top" xlink:title="Handling EXIF tags.">
<polygon fill="white" stroke="#666666" points="182,-184 86,-184 86,-165 182,-165 182,-184"/>
<text text-anchor="middle" x="134" y="-172" font-family="Helvetica,sans-Serif" font-size="10.00">libexif/exif&#45;tag.h</text>
</a>
</g>
</g>
<!-- Node6&#45;&gt;Node12 -->
<g id="edge13_Node000006_Node000012" class="edge">
<title>Node6&#45;&gt;Node12</title>
<g id="a_edge13_Node000006_Node000012"><a xlink:title=" ">
<path fill="none" stroke="#63b8ff" d="M289.54,-286.26C260.31,-279.8 224.06,-268.68 196,-250 173.96,-235.33 155.59,-210.55 144.71,-193.63"/>
<polygon fill="#63b8ff" stroke="#63b8ff" points="147.96,-192.23 139.73,-185.56 142,-195.91 147.96,-192.23"/>
</a>
</g>
</g>
<!-- Node13 -->
<g id="Node000013" class="node">
<title>Node13</title>
<g id="a_Node000013"><a xlink:href="exif-content_8h.html" target="_top" xlink:title="Handling EXIF IFDs.">
<polygon fill="white" stroke="#666666" points="355.5,-244.5 238.5,-244.5 238.5,-225.5 355.5,-225.5 355.5,-244.5"/>
<text text-anchor="middle" x="297" y="-232.5" font-family="Helvetica,sans-Serif" font-size="10.00">libexif/exif&#45;content.h</text>
</a>
</g>
</g>
<!-- Node6&#45;&gt;Node13 -->
<g id="edge16_Node000006_Node000013" class="edge">
<title>Node6&#45;&gt;Node13</title>
<g id="a_edge16_Node000006_Node000013"><a xlink:title=" ">
<path fill="none" stroke="#63b8ff" d="M329.55,-285.87C321.52,-277.57 311.45,-264.78 304.4,-254.22"/>
<polygon fill="#63b8ff" stroke="#63b8ff" points="307.55,-252.66 299.35,-245.96 301.58,-256.32 307.55,-252.66"/>
</a>
</g>
</g>
<!-- Node15 -->
<g id="Node000015" class="node">
<title>Node15</title>
<g id="a_Node000015"><a xlink:href="exif-mnote-data_8h.html" target="_top" xlink:title="Handling EXIF MakerNote tags.">
<polygon fill="white" stroke="#666666" points="515.5,-250 412.5,-250 412.5,-220 515.5,-220 515.5,-250"/>
<text text-anchor="start" x="420.5" y="-238" font-family="Helvetica,sans-Serif" font-size="10.00">libexif/exif&#45;mnote</text>
<text text-anchor="middle" x="464" y="-227" font-family="Helvetica,sans-Serif" font-size="10.00">&#45;data.h</text>
</a>
</g>
</g>
<!-- Node6&#45;&gt;Node15 -->
<g id="edge25_Node000006_Node000015" class="edge">
<title>Node6&#45;&gt;Node15</title>
<g id="a_edge25_Node000006_Node000015"><a xlink:title=" ">
<path fill="none" stroke="#63b8ff" d="M359.68,-285.62C376.55,-277.59 401.94,-265.52 423.45,-255.29"/>
<polygon fill="#63b8ff" stroke="#63b8ff" points="424.75,-258.55 432.27,-251.09 421.74,-252.22 424.75,-258.55"/>
</a>
</g>
</g>
<!-- Node9&#45;&gt;Node10 -->
<g id="edge10_Node000009_Node000010" class="edge">
<title>Node9&#45;&gt;Node10</title>
<g id="a_edge10_Node000009_Node000010"><a xlink:title=" ">
<path fill="none" stroke="#63b8ff" d="M469.24,-164.51C456.04,-156.47 436.44,-144.53 420.99,-135.11"/>
<polygon fill="#63b8ff" stroke="#63b8ff" points="423.19,-132.36 412.83,-130.15 419.55,-138.34 423.19,-132.36"/>
</a>
</g>
</g>
<!-- Node11 -->
<g id="Node000011" class="node">
<title>Node11</title>
<g id="a_Node000011"><a xlink:title=" ">
<polygon fill="#e0e0e0" stroke="#999999" points="524,-129 468,-129 468,-110 524,-110 524,-129"/>
<text text-anchor="middle" x="496" y="-117" font-family="Helvetica,sans-Serif" font-size="10.00">stdarg.h</text>
</a>
</g>
</g>
<!-- Node9&#45;&gt;Node11 -->
<g id="edge12_Node000009_Node000011" class="edge">
<title>Node9&#45;&gt;Node11</title>
<g id="a_edge12_Node000009_Node000011"><a xlink:title=" ">
<path fill="none" stroke="#63b8ff" d="M485.98,-164.75C487.47,-158.19 489.56,-148.95 491.45,-140.6"/>
<polygon fill="#63b8ff" stroke="#63b8ff" points="494.85,-141.44 493.64,-130.92 488.02,-139.9 494.85,-141.44"/>
</a>
</g>
</g>
<!-- Node10&#45;&gt;Node2 -->
<g id="edge11_Node000010_Node000002" class="edge">
<title>Node10&#45;&gt;Node2</title>
<g id="a_edge11_Node000010_Node000002"><a xlink:title=" ">
<path fill="none" stroke="#63b8ff" d="M403.61,-109.75C408.96,-102.66 416.68,-92.42 423.35,-83.59"/>
<polygon fill="#63b8ff" stroke="#63b8ff" points="426.11,-85.74 429.34,-75.65 420.52,-81.52 426.11,-85.74"/>
</a>
</g>
</g>
<!-- Node12&#45;&gt;Node7 -->
<g id="edge15_Node000012_Node000007" class="edge">
<title>Node12&#45;&gt;Node7</title>
<g id="a_edge15_Node000012_Node000007"><a xlink:title=" ">
<path fill="none" stroke="#63b8ff" d="M122.13,-164.51C111.91,-156.77 96.93,-145.43 84.74,-136.2"/>
<polygon fill="#63b8ff" stroke="#63b8ff" points="86.99,-133.52 76.91,-130.27 82.77,-139.1 86.99,-133.52"/>
</a>
</g>
</g>
<!-- Node12&#45;&gt;Node8 -->
<g id="edge14_Node000012_Node000008" class="edge">
<title>Node12&#45;&gt;Node8</title>
<g id="a_edge14_Node000012_Node000008"><a xlink:title=" ">
<path fill="none" stroke="#63b8ff" d="M145.03,-164.51C154.42,-156.85 168.15,-145.66 179.41,-136.47"/>
<polygon fill="#63b8ff" stroke="#63b8ff" points="181.43,-139.35 186.96,-130.31 177,-133.92 181.43,-139.35"/>
</a>
</g>
</g>
<!-- Node13&#45;&gt;Node6 -->
<g id="edge22_Node000013_Node000006" class="edge">
<title>Node13&#45;&gt;Node6</title>
<g id="a_edge22_Node000013_Node000006"><a xlink:title=" ">
<path fill="none" stroke="#63b8ff" d="M308.48,-244.67C316.52,-252.98 326.59,-265.78 333.63,-276.32"/>
<polygon fill="#63b8ff" stroke="#63b8ff" points="330.47,-277.87 338.67,-284.58 336.44,-274.22 330.47,-277.87"/>
</a>
</g>
</g>
<!-- Node13&#45;&gt;Node9 -->
<g id="edge23_Node000013_Node000009" class="edge">
<title>Node13&#45;&gt;Node9</title>
<g id="a_edge23_Node000013_Node000009"><a xlink:title=" ">
<path fill="none" stroke="#63b8ff" d="M325.4,-225.12C357.12,-215.19 408.67,-199.07 444.35,-187.9"/>
<polygon fill="#63b8ff" stroke="#63b8ff" points="445.39,-191.25 453.89,-184.92 443.3,-184.57 445.39,-191.25"/>
</a>
</g>
</g>
<!-- Node13&#45;&gt;Node10 -->
<g id="edge24_Node000013_Node000010" class="edge">
<title>Node13&#45;&gt;Node10</title>
<g id="a_edge24_Node000013_Node000010"><a xlink:title=" ">
<path fill="none" stroke="#63b8ff" d="M307.52,-225.34C318.85,-215.79 337.1,-199.68 351,-184 363.83,-169.53 376.58,-151.57 385.39,-138.45"/>
<polygon fill="#63b8ff" stroke="#63b8ff" points="388.13,-140.66 390.71,-130.38 382.28,-136.81 388.13,-140.66"/>
</a>
</g>
</g>
<!-- Node13&#45;&gt;Node12 -->
<g id="edge17_Node000013_Node000012" class="edge">
<title>Node13&#45;&gt;Node12</title>
<g id="a_edge17_Node000013_Node000012"><a xlink:title=" ">
<path fill="none" stroke="#63b8ff" d="M272.24,-225.12C244.96,-215.32 200.83,-199.48 169.78,-188.34"/>
<polygon fill="#63b8ff" stroke="#63b8ff" points="171.01,-185.06 160.41,-184.98 168.64,-191.65 171.01,-185.06"/>
</a>
</g>
</g>
<!-- Node14 -->
<g id="Node000014" class="node">
<title>Node14</title>
<g id="a_Node000014"><a xlink:href="exif-entry_8h.html" target="_top" xlink:title="Handling EXIF entries.">
<polygon fill="white" stroke="#666666" points="342,-184 238,-184 238,-165 342,-165 342,-184"/>
<text text-anchor="middle" x="290" y="-172" font-family="Helvetica,sans-Serif" font-size="10.00">libexif/exif&#45;entry.h</text>
</a>
</g>
</g>
<!-- Node13&#45;&gt;Node14 -->
<g id="edge18_Node000013_Node000014" class="edge">
<title>Node13&#45;&gt;Node14</title>
<g id="a_edge18_Node000013_Node000014"><a xlink:title=" ">
<path fill="none" stroke="#63b8ff" d="M291.01,-225.37C288.37,-217.5 286.45,-205.6 285.95,-195.39"/>
<polygon fill="#63b8ff" stroke="#63b8ff" points="289.44,-195.72 286.06,-185.68 282.44,-195.64 289.44,-195.72"/>
</a>
</g>
</g>
<!-- Node14&#45;&gt;Node4 -->
<g id="edge20_Node000014_Node000004" class="edge">
<title>Node14&#45;&gt;Node4</title>
<g id="a_edge20_Node000014_Node000004"><a xlink:title=" ">
<path fill="none" stroke="#63b8ff" d="M290.32,-164.74C291.25,-139.53 293.94,-66.36 295.26,-30.62"/>
<polygon fill="#63b8ff" stroke="#63b8ff" points="298.75,-30.94 295.62,-20.82 291.75,-30.68 298.75,-30.94"/>
</a>
</g>
</g>
<!-- Node14&#45;&gt;Node10 -->
<g id="edge21_Node000014_Node000010" class="edge">
<title>Node14&#45;&gt;Node10</title>
<g id="a_edge21_Node000014_Node000010"><a xlink:title=" ">
<path fill="none" stroke="#63b8ff" d="M308.15,-164.51C324.78,-156.27 349.64,-143.96 368.85,-134.45"/>
<polygon fill="#63b8ff" stroke="#63b8ff" points="370.35,-137.6 377.76,-130.03 367.25,-131.33 370.35,-137.6"/>
</a>
</g>
</g>
<!-- Node14&#45;&gt;Node13 -->
<g id="edge19_Node000014_Node000013" class="edge">
<title>Node14&#45;&gt;Node13</title>
<g id="a_edge19_Node000014_Node000013"><a xlink:title=" ">
<path fill="none" stroke="#63b8ff" d="M296,-184.17C298.64,-192.04 300.55,-203.95 301.06,-214.16"/>
<polygon fill="#63b8ff" stroke="#63b8ff" points="297.56,-213.81 300.94,-223.85 304.56,-213.9 297.56,-213.81"/>
</a>
</g>
</g>
<!-- Node15&#45;&gt;Node9 -->
<g id="edge26_Node000015_Node000009" class="edge">
<title>Node15&#45;&gt;Node9</title>
<g id="a_edge26_Node000015_Node000009"><a xlink:title=" ">
<path fill="none" stroke="#63b8ff" d="M468.94,-219.54C471.49,-212.08 474.64,-202.89 477.39,-194.83"/>
<polygon fill="#63b8ff" stroke="#63b8ff" points="480.62,-196.2 480.54,-185.61 474,-193.94 480.62,-196.2"/>
</a>
</g>
</g>
</g>
</svg>
