<?xml version="1.0" encoding="UTF-8" standalone="no"?>
<!DOCTYPE svg PUBLIC "-//W3C//DTD SVG 1.1//EN"
 "http://www.w3.org/Graphics/SVG/1.1/DTD/svg11.dtd">
<!-- Generated by graphviz version 7.0.1 (0)
 -->
<!-- Title: content_foreach_func Pages: 1 -->
<svg width="907pt" height="544pt"
 viewBox="0.00 0.00 907.00 544.00" xmlns="http://www.w3.org/2000/svg" xmlns:xlink="http://www.w3.org/1999/xlink">
<g id="graph0" class="graph" transform="scale(1 1) rotate(0) translate(4 540)">
<title>content_foreach_func</title>
<!-- Node1 -->
<g id="Node000001" class="node">
<title>Node1</title>
<g id="a_Node000001"><a xlink:title=" ">
<polygon fill="#999999" stroke="#666666" points="122,-172 0,-172 0,-153 122,-153 122,-172"/>
<text text-anchor="middle" x="61" y="-160" font-family="Helvetica,sans-Serif" font-size="10.00">content_foreach_func</text>
</a>
</g>
</g>
<!-- Node2 -->
<g id="Node000002" class="node">
<title>Node2</title>
<g id="a_Node000002"><a xlink:href="exif-entry_8c.html#a60425f657af3e00dc8bbb675f91cdb84" target="_top" xlink:title="Return a localized textual representation of the value of the EXIF entry.">
<polygon fill="white" stroke="#666666" points="281.5,-289 162.5,-289 162.5,-270 281.5,-270 281.5,-289"/>
<text text-anchor="middle" x="222" y="-277" font-family="Helvetica,sans-Serif" font-size="10.00">exif_entry_get_value</text>
</a>
</g>
</g>
<!-- Node1&#45;&gt;Node2 -->
<g id="edge1_Node000001_Node000002" class="edge">
<title>Node1&#45;&gt;Node2</title>
<g id="a_edge1_Node000001_Node000002"><a xlink:title=" ">
<path fill="none" stroke="#63b8ff" d="M75.56,-172.48C102.9,-192.59 164.89,-238.21 198.44,-262.9"/>
<polygon fill="#63b8ff" stroke="#63b8ff" points="196.13,-265.55 206.26,-268.65 200.28,-259.91 196.13,-265.55"/>
</a>
</g>
</g>
<!-- Node20 -->
<g id="Node000020" class="node">
<title>Node20</title>
<g id="a_Node000020"><a xlink:href="exif-format_8c.html#a513bc6b9980641d7e6ff1fe74810b3e0" target="_top" xlink:title="Return a textual representation of the given EXIF data type.">
<polygon fill="white" stroke="#666666" points="286,-172 158,-172 158,-153 286,-153 286,-172"/>
<text text-anchor="middle" x="222" y="-160" font-family="Helvetica,sans-Serif" font-size="10.00">exif_format_get_name</text>
</a>
</g>
</g>
<!-- Node1&#45;&gt;Node20 -->
<g id="edge29_Node000001_Node000020" class="edge">
<title>Node1&#45;&gt;Node20</title>
<g id="a_edge29_Node000001_Node000020"><a xlink:title=" ">
<path fill="none" stroke="#63b8ff" d="M122.11,-162.5C130,-162.5 138.16,-162.5 146.26,-162.5"/>
<polygon fill="#63b8ff" stroke="#63b8ff" points="146.11,-166 156.11,-162.5 146.11,-159 146.11,-166"/>
</a>
</g>
</g>
<!-- Node21 -->
<g id="Node000021" class="node">
<title>Node21</title>
<g id="a_Node000021"><a xlink:href="exif-tag_8c.html#aad15f6b821d77857c42c1514ba8bf930" target="_top" xlink:title=" ">
<polygon fill="white" stroke="#666666" points="277,-56 167,-56 167,-37 277,-37 277,-56"/>
<text text-anchor="middle" x="222" y="-44" font-family="Helvetica,sans-Serif" font-size="10.00">exif_tag_get_name</text>
</a>
</g>
</g>
<!-- Node1&#45;&gt;Node21 -->
<g id="edge30_Node000001_Node000021" class="edge">
<title>Node1&#45;&gt;Node21</title>
<g id="a_edge30_Node000001_Node000021"><a xlink:title=" ">
<path fill="none" stroke="#63b8ff" d="M75.56,-152.61C102.9,-132.66 164.89,-87.43 198.44,-62.96"/>
<polygon fill="#63b8ff" stroke="#63b8ff" points="200.24,-65.98 206.26,-57.26 196.11,-60.32 200.24,-65.98"/>
</a>
</g>
</g>
<!-- Node3 -->
<g id="Node000003" class="node">
<title>Node3</title>
<g id="a_Node000003"><a xlink:href="exif-content_8c.html#a5d98a5c58c31b49691694b010b29117d" target="_top" xlink:title="Return the ExifEntry in this IFD corresponding to the given tag.">
<polygon fill="white" stroke="#666666" points="458,-370 329,-370 329,-351 458,-351 458,-370"/>
<text text-anchor="middle" x="393.5" y="-358" font-family="Helvetica,sans-Serif" font-size="10.00">exif_content_get_entry</text>
</a>
</g>
</g>
<!-- Node2&#45;&gt;Node3 -->
<g id="edge2_Node000002_Node000003" class="edge">
<title>Node2&#45;&gt;Node3</title>
<g id="a_edge2_Node000002_Node000003"><a xlink:title=" ">
<path fill="none" stroke="#63b8ff" d="M237.95,-289.34C256.92,-301.53 290.93,-322.43 322,-336.5 330.28,-340.25 339.33,-343.75 348.1,-346.86"/>
<polygon fill="#63b8ff" stroke="#63b8ff" points="346.96,-350.16 357.56,-350.08 349.22,-343.54 346.96,-350.16"/>
</a>
</g>
</g>
<!-- Node4 -->
<g id="Node000004" class="node">
<title>Node4</title>
<g id="a_Node000004"><a xlink:href="exif-utils_8c.html#a0c51156312ff6ca97f4d587f776ded8f" target="_top" xlink:title="This function converts rather UCS&#45;2LE than UTF&#45;16 to UTF&#45;8.">
<polygon fill="white" stroke="#666666" points="447.5,-294.5 339.5,-294.5 339.5,-264.5 447.5,-264.5 447.5,-294.5"/>
<text text-anchor="start" x="347.5" y="-282.5" font-family="Helvetica,sans-Serif" font-size="10.00">exif_convert_utf16</text>
<text text-anchor="middle" x="393.5" y="-271.5" font-family="Helvetica,sans-Serif" font-size="10.00">_to_utf8</text>
</a>
</g>
</g>
<!-- Node2&#45;&gt;Node4 -->
<g id="edge3_Node000002_Node000004" class="edge">
<title>Node2&#45;&gt;Node4</title>
<g id="a_edge3_Node000002_Node000004"><a xlink:title=" ">
<path fill="none" stroke="#63b8ff" d="M281.81,-279.5C296.67,-279.5 312.7,-279.5 327.83,-279.5"/>
<polygon fill="#63b8ff" stroke="#63b8ff" points="327.67,-283 337.67,-279.5 327.67,-276 327.67,-283"/>
</a>
</g>
</g>
<!-- Node5 -->
<g id="Node000005" class="node">
<title>Node5</title>
<g id="a_Node000005"><a xlink:href="exif-utils_8c.html#a4b4acf537a8c6b9405e7b53be868e4d7" target="_top" xlink:title="Retrieve an ExifShort value from memory.">
<polygon fill="white" stroke="#666666" points="603.5,-368 517.5,-368 517.5,-349 603.5,-349 603.5,-368"/>
<text text-anchor="middle" x="560.5" y="-356" font-family="Helvetica,sans-Serif" font-size="10.00">exif_get_short</text>
</a>
</g>
</g>
<!-- Node2&#45;&gt;Node5 -->
<g id="edge24_Node000002_Node000005" class="edge">
<title>Node2&#45;&gt;Node5</title>
<g id="a_edge24_Node000002_Node000005"><a xlink:title=" ">
<path fill="none" stroke="#63b8ff" d="M263.44,-289.4C281.37,-293.77 302.73,-298.93 322,-303.5 385.29,-318.5 458.18,-335.31 506.34,-346.35"/>
<polygon fill="#63b8ff" stroke="#63b8ff" points="505.42,-349.73 515.95,-348.56 506.98,-342.91 505.42,-349.73"/>
</a>
</g>
</g>
<!-- Node7 -->
<g id="Node000007" class="node">
<title>Node7</title>
<g id="a_Node000007"><a xlink:href="exif-data_8c.html#a2d8d50e6a9c19d28fe8192ef7cc52777" target="_top" xlink:title="Return the byte order in use by this EXIF structure.">
<polygon fill="white" stroke="#666666" points="615.5,-330.5 505.5,-330.5 505.5,-300.5 615.5,-300.5 615.5,-330.5"/>
<text text-anchor="start" x="513.5" y="-318.5" font-family="Helvetica,sans-Serif" font-size="10.00">exif_data_get_byte</text>
<text text-anchor="middle" x="560.5" y="-307.5" font-family="Helvetica,sans-Serif" font-size="10.00">_order</text>
</a>
</g>
</g>
<!-- Node2&#45;&gt;Node7 -->
<g id="edge6_Node000002_Node000007" class="edge">
<title>Node2&#45;&gt;Node7</title>
<g id="a_edge6_Node000002_Node000007"><a xlink:title=" ">
<path fill="none" stroke="#63b8ff" d="M249.04,-269.6C294.45,-253.91 390.39,-227.8 465,-255.5 484.79,-262.85 483.4,-274.83 501,-286.5 505.38,-289.4 510.08,-292.2 514.86,-294.84"/>
<polygon fill="#63b8ff" stroke="#63b8ff" points="512.85,-297.74 523.33,-299.32 516.12,-291.55 512.85,-297.74"/>
</a>
</g>
</g>
<!-- Node8 -->
<g id="Node000008" class="node">
<title>Node8</title>
<g id="a_Node000008"><a xlink:href="exif-entry_8c.html#ae02e9d58318a3cd50eb6730b5e657e5a" target="_top" xlink:title="Format the value of an ExifEntry for human display in a generic way.">
<polygon fill="white" stroke="#666666" points="462,-208 325,-208 325,-189 462,-189 462,-208"/>
<text text-anchor="middle" x="393.5" y="-196" font-family="Helvetica,sans-Serif" font-size="10.00">exif_entry_format_value</text>
</a>
</g>
</g>
<!-- Node2&#45;&gt;Node8 -->
<g id="edge7_Node000002_Node000008" class="edge">
<title>Node2&#45;&gt;Node8</title>
<g id="a_edge7_Node000002_Node000008"><a xlink:title=" ">
<path fill="none" stroke="#63b8ff" d="M237.95,-269.66C256.92,-257.47 290.93,-236.57 322,-222.5 330.28,-218.75 339.33,-215.25 348.1,-212.14"/>
<polygon fill="#63b8ff" stroke="#63b8ff" points="349.22,-215.46 357.56,-208.92 346.96,-208.84 349.22,-215.46"/>
</a>
</g>
</g>
<!-- Node9 -->
<g id="Node000009" class="node">
<title>Node9</title>
<g id="a_Node000009"><a xlink:href="exif-format_8c.html#a924038efe0cd8ebade8f44619dd794f3" target="_top" xlink:title="Return the raw size of the given EXIF data type.">
<polygon fill="white" stroke="#666666" points="620,-168 501,-168 501,-149 620,-149 620,-168"/>
<text text-anchor="middle" x="560.5" y="-156" font-family="Helvetica,sans-Serif" font-size="10.00">exif_format_get_size</text>
</a>
</g>
</g>
<!-- Node2&#45;&gt;Node9 -->
<g id="edge22_Node000002_Node000009" class="edge">
<title>Node2&#45;&gt;Node9</title>
<g id="a_edge22_Node000002_Node000009"><a xlink:title=" ">
<path fill="none" stroke="#63b8ff" d="M229.23,-269.71C243.04,-248.99 278.43,-200.95 322,-180.5 374.4,-155.9 440.39,-151.61 489.51,-152.78"/>
<polygon fill="#63b8ff" stroke="#63b8ff" points="489.36,-156.28 499.47,-153.11 489.59,-149.28 489.36,-156.28"/>
</a>
</g>
</g>
<!-- Node12 -->
<g id="Node000012" class="node">
<title>Node12</title>
<g id="a_Node000012"><a xlink:href="exif-utils_8c.html#a1feb547c289aa57a4d2119338b03706c" target="_top" xlink:title="Retrieve an ExifRational value from memory.">
<polygon fill="white" stroke="#666666" points="610,-131 511,-131 511,-112 610,-112 610,-131"/>
<text text-anchor="middle" x="560.5" y="-119" font-family="Helvetica,sans-Serif" font-size="10.00">exif_get_rational</text>
</a>
</g>
</g>
<!-- Node2&#45;&gt;Node12 -->
<g id="edge23_Node000002_Node000012" class="edge">
<title>Node2&#45;&gt;Node12</title>
<g id="a_edge23_Node000002_Node000012"><a xlink:title=" ">
<path fill="none" stroke="#63b8ff" d="M228.92,-269.77C246.04,-241.98 296,-163.33 322,-148.5 376.17,-117.6 448.6,-113.67 499.17,-115.7"/>
<polygon fill="#63b8ff" stroke="#63b8ff" points="498.9,-119.19 509.06,-116.2 499.25,-112.2 498.9,-119.19"/>
</a>
</g>
</g>
<!-- Node13 -->
<g id="Node000013" class="node">
<title>Node13</title>
<g id="a_Node000013"><a xlink:href="exif-utils_8c.html#adb97c3499488d5642a82df1cb16dc2cb" target="_top" xlink:title="Retrieve an ExifSRational value from memory.">
<polygon fill="white" stroke="#666666" points="612.5,-94 508.5,-94 508.5,-75 612.5,-75 612.5,-94"/>
<text text-anchor="middle" x="560.5" y="-82" font-family="Helvetica,sans-Serif" font-size="10.00">exif_get_srational</text>
</a>
</g>
</g>
<!-- Node2&#45;&gt;Node13 -->
<g id="edge25_Node000002_Node000013" class="edge">
<title>Node2&#45;&gt;Node13</title>
<g id="a_edge25_Node000002_Node000013"><a xlink:title=" ">
<path fill="none" stroke="#63b8ff" d="M229.78,-269.69C241.71,-252.28 267,-214.67 286,-181.5 303.59,-150.8 292.91,-130.63 322,-110.5 373.06,-75.17 445.6,-72.27 497.05,-75.95"/>
<polygon fill="#63b8ff" stroke="#63b8ff" points="496.58,-79.42 506.83,-76.76 497.16,-72.45 496.58,-79.42"/>
</a>
</g>
</g>
<!-- Node14 -->
<g id="Node000014" class="node">
<title>Node14</title>
<g id="a_Node000014"><a xlink:href="exif-entry_8c.html#ac416e8326bd687f5da299d1b15a731bf" target="_top" xlink:title=" ">
<polygon fill="white" stroke="#666666" points="436.5,-518 350.5,-518 350.5,-499 436.5,-499 436.5,-518"/>
<text text-anchor="middle" x="393.5" y="-506" font-family="Helvetica,sans-Serif" font-size="10.00">exif_entry_log</text>
</a>
</g>
</g>
<!-- Node2&#45;&gt;Node14 -->
<g id="edge19_Node000002_Node000014" class="edge">
<title>Node2&#45;&gt;Node14</title>
<g id="a_edge19_Node000002_Node000014"><a xlink:title=" ">
<path fill="none" stroke="#63b8ff" d="M224.56,-289.26C230.47,-322.88 254.65,-434.8 322,-490.5 327.11,-494.73 333.1,-497.98 339.38,-500.48"/>
<polygon fill="#63b8ff" stroke="#63b8ff" points="338.1,-503.74 348.69,-503.53 340.28,-497.09 338.1,-503.74"/>
</a>
</g>
</g>
<!-- Node17 -->
<g id="Node000017" class="node">
<title>Node17</title>
<g id="a_Node000017"><a xlink:href="exif-mem_8c.html#a68be7c7afc8cff75adc3b1a28b5ae9a2" target="_top" xlink:title=" ">
<polygon fill="white" stroke="#666666" points="441,-481 346,-481 346,-462 441,-462 441,-481"/>
<text text-anchor="middle" x="393.5" y="-469" font-family="Helvetica,sans-Serif" font-size="10.00">exif_mem_alloc</text>
</a>
</g>
</g>
<!-- Node2&#45;&gt;Node17 -->
<g id="edge26_Node000002_Node000017" class="edge">
<title>Node2&#45;&gt;Node17</title>
<g id="a_edge26_Node000002_Node000017"><a xlink:title=" ">
<path fill="none" stroke="#63b8ff" d="M225.58,-289.19C233.97,-318.81 263.42,-408.81 322,-453.5 326.01,-456.56 330.48,-459.1 335.17,-461.21"/>
<polygon fill="#63b8ff" stroke="#63b8ff" points="333.69,-464.39 344.28,-464.65 336.16,-457.84 333.69,-464.39"/>
</a>
</g>
</g>
<!-- Node18 -->
<g id="Node000018" class="node">
<title>Node18</title>
<g id="a_Node000018"><a xlink:href="exif-mem_8c.html#a43190b81b4b4bdb4ffb89bfb612051b1" target="_top" xlink:title=" ">
<polygon fill="white" stroke="#666666" points="439,-444 348,-444 348,-425 439,-425 439,-444"/>
<text text-anchor="middle" x="393.5" y="-432" font-family="Helvetica,sans-Serif" font-size="10.00">exif_mem_free</text>
</a>
</g>
</g>
<!-- Node2&#45;&gt;Node18 -->
<g id="edge27_Node000002_Node000018" class="edge">
<title>Node2&#45;&gt;Node18</title>
<g id="a_edge27_Node000002_Node000018"><a xlink:title=" ">
<path fill="none" stroke="#63b8ff" d="M227.14,-289.24C238.37,-314.5 272.02,-382.49 322,-416.5 326.53,-419.58 331.54,-422.13 336.75,-424.25"/>
<polygon fill="#63b8ff" stroke="#63b8ff" points="335.59,-427.55 346.19,-427.51 337.88,-420.94 335.59,-427.55"/>
</a>
</g>
</g>
<!-- Node19 -->
<g id="Node000019" class="node">
<title>Node19</title>
<g id="a_Node000019"><a xlink:href="exif-entry_8c.html#acfe97d1f369d95332b6e796c690093e4" target="_top" xlink:title="Check if a string consists entirely of a single, repeated character.">
<polygon fill="white" stroke="#666666" points="454.5,-407 332.5,-407 332.5,-388 454.5,-388 454.5,-407"/>
<text text-anchor="middle" x="393.5" y="-395" font-family="Helvetica,sans-Serif" font-size="10.00">match_repeated_char</text>
</a>
</g>
</g>
<!-- Node2&#45;&gt;Node19 -->
<g id="edge28_Node000002_Node000019" class="edge">
<title>Node2&#45;&gt;Node19</title>
<g id="a_edge28_Node000002_Node000019"><a xlink:title=" ">
<path fill="none" stroke="#63b8ff" d="M229.92,-289.48C244.49,-309.73 280.45,-355.7 322,-379.5 324.36,-380.85 326.82,-382.1 329.35,-383.26"/>
<polygon fill="#63b8ff" stroke="#63b8ff" points="328.04,-386.51 338.63,-386.96 330.63,-380.01 328.04,-386.51"/>
</a>
</g>
</g>
<!-- Node4&#45;&gt;Node5 -->
<g id="edge4_Node000004_Node000005" class="edge">
<title>Node4&#45;&gt;Node5</title>
<g id="a_edge4_Node000004_Node000005"><a xlink:title=" ">
<path fill="none" stroke="#63b8ff" d="M438.08,-294.86C447.24,-298.79 456.65,-303.38 465,-308.5 482.99,-319.55 482.6,-329.15 501,-339.5 504.16,-341.28 507.52,-342.92 510.96,-344.43"/>
<polygon fill="#63b8ff" stroke="#63b8ff" points="509.43,-347.59 520.02,-348.01 512.01,-341.08 509.43,-347.59"/>
</a>
</g>
</g>
<!-- Node6 -->
<g id="Node000006" class="node">
<title>Node6</title>
<g id="a_Node000006"><a xlink:href="exif-utils_8c.html#a6baf094a71392f9cea23ad633ec13c8b" target="_top" xlink:title="Retrieve an ExifSShort value from memory.">
<polygon fill="white" stroke="#666666" points="761.5,-325 669.5,-325 669.5,-306 761.5,-306 761.5,-325"/>
<text text-anchor="middle" x="715.5" y="-313" font-family="Helvetica,sans-Serif" font-size="10.00">exif_get_sshort</text>
</a>
</g>
</g>
<!-- Node5&#45;&gt;Node6 -->
<g id="edge5_Node000005_Node000006" class="edge">
<title>Node5&#45;&gt;Node6</title>
<g id="a_edge5_Node000005_Node000006"><a xlink:title=" ">
<path fill="none" stroke="#63b8ff" d="M596.99,-348.53C618.15,-342.58 645.26,-334.96 668.11,-328.54"/>
<polygon fill="#63b8ff" stroke="#63b8ff" points="668.8,-331.98 677.48,-325.9 666.91,-325.24 668.8,-331.98"/>
</a>
</g>
</g>
<!-- Node8&#45;&gt;Node5 -->
<g id="edge14_Node000008_Node000005" class="edge">
<title>Node8&#45;&gt;Node5</title>
<g id="a_edge14_Node000008_Node000005"><a xlink:title=" ">
<path fill="none" stroke="#63b8ff" d="M410.99,-208.45C426.65,-218.61 449.99,-235.67 465,-255.5 489.51,-287.89 471,-312.11 501,-339.5 502.89,-341.23 504.94,-342.79 507.1,-344.22"/>
<polygon fill="#63b8ff" stroke="#63b8ff" points="505.35,-347.26 515.82,-348.89 508.66,-341.09 505.35,-347.26"/>
</a>
</g>
</g>
<!-- Node8&#45;&gt;Node6 -->
<g id="edge18_Node000008_Node000006" class="edge">
<title>Node8&#45;&gt;Node6</title>
<g id="a_edge18_Node000008_Node000006"><a xlink:title=" ">
<path fill="none" stroke="#63b8ff" d="M413.4,-208.32C434.43,-219.03 469.6,-236.27 501,-248.5 556.94,-270.3 623.15,-290.19 666.84,-302.54"/>
<polygon fill="#63b8ff" stroke="#63b8ff" points="665.69,-305.85 676.26,-305.18 667.58,-299.11 665.69,-305.85"/>
</a>
</g>
</g>
<!-- Node8&#45;&gt;Node7 -->
<g id="edge8_Node000008_Node000007" class="edge">
<title>Node8&#45;&gt;Node7</title>
<g id="a_edge8_Node000008_Node000007"><a xlink:title=" ">
<path fill="none" stroke="#63b8ff" d="M439.57,-208.37C448.65,-211.8 457.64,-216.39 465,-222.5 490.1,-243.36 477.33,-264.03 501,-286.5 503.97,-289.32 507.27,-291.92 510.74,-294.31"/>
<polygon fill="#63b8ff" stroke="#63b8ff" points="508.59,-297.1 518.95,-299.35 512.25,-291.13 508.59,-297.1"/>
</a>
</g>
</g>
<!-- Node8&#45;&gt;Node9 -->
<g id="edge9_Node000008_Node000009" class="edge">
<title>Node8&#45;&gt;Node9</title>
<g id="a_edge9_Node000008_Node000009"><a xlink:title=" ">
<path fill="none" stroke="#63b8ff" d="M435.71,-188.51C457.45,-183.24 484.34,-176.72 507.5,-171.11"/>
<polygon fill="#63b8ff" stroke="#63b8ff" points="508.16,-174.55 517.06,-168.79 506.51,-167.74 508.16,-174.55"/>
</a>
</g>
</g>
<!-- Node10 -->
<g id="Node000010" class="node">
<title>Node10</title>
<g id="a_Node000010"><a xlink:href="exif-utils_8c.html#a4ad94614630897766dd0a5c9bc2a59bf" target="_top" xlink:title="Retrieve an ExifLong value from memory.">
<polygon fill="white" stroke="#666666" points="757,-192 674,-192 674,-173 757,-173 757,-192"/>
<text text-anchor="middle" x="715.5" y="-180" font-family="Helvetica,sans-Serif" font-size="10.00">exif_get_long</text>
</a>
</g>
</g>
<!-- Node8&#45;&gt;Node10 -->
<g id="edge10_Node000008_Node000010" class="edge">
<title>Node8&#45;&gt;Node10</title>
<g id="a_edge10_Node000008_Node000010"><a xlink:title=" ">
<path fill="none" stroke="#63b8ff" d="M462.36,-195.11C522.02,-192.12 607.59,-187.85 662.1,-185.12"/>
<polygon fill="#63b8ff" stroke="#63b8ff" points="662.25,-188.62 672.06,-184.62 661.9,-181.63 662.25,-188.62"/>
</a>
</g>
</g>
<!-- Node11 -->
<g id="Node000011" class="node">
<title>Node11</title>
<g id="a_Node000011"><a xlink:href="exif-utils_8c.html#a56b96f076a13da6ed926e1ef29cb2dc3" target="_top" xlink:title="Retrieve an ExifSLong value from memory.">
<polygon fill="white" stroke="#666666" points="899,-192 811,-192 811,-173 899,-173 899,-192"/>
<text text-anchor="middle" x="855" y="-180" font-family="Helvetica,sans-Serif" font-size="10.00">exif_get_slong</text>
</a>
</g>
</g>
<!-- Node8&#45;&gt;Node11 -->
<g id="edge15_Node000008_Node000011" class="edge">
<title>Node8&#45;&gt;Node11</title>
<g id="a_edge15_Node000008_Node000011"><a xlink:title=" ">
<path fill="none" stroke="#63b8ff" d="M462.17,-204.4C538.5,-209.81 666.19,-215.11 775,-201.5 786.12,-200.11 797.94,-197.75 808.96,-195.16"/>
<polygon fill="#63b8ff" stroke="#63b8ff" points="809.75,-198.57 818.62,-192.78 808.07,-191.78 809.75,-198.57"/>
</a>
</g>
</g>
<!-- Node8&#45;&gt;Node12 -->
<g id="edge12_Node000008_Node000012" class="edge">
<title>Node8&#45;&gt;Node12</title>
<g id="a_edge12_Node000008_Node000012"><a xlink:title=" ">
<path fill="none" stroke="#63b8ff" d="M410.28,-188.7C430.67,-176.32 467.54,-154.9 501,-140.5 505.36,-138.62 509.97,-136.83 514.61,-135.14"/>
<polygon fill="#63b8ff" stroke="#63b8ff" points="515.65,-138.48 523.96,-131.9 513.36,-131.87 515.65,-138.48"/>
</a>
</g>
</g>
<!-- Node8&#45;&gt;Node13 -->
<g id="edge16_Node000008_Node000013" class="edge">
<title>Node8&#45;&gt;Node13</title>
<g id="a_edge16_Node000008_Node000013"><a xlink:title=" ">
<path fill="none" stroke="#63b8ff" d="M402.88,-188.69C419.65,-169.65 459.32,-127.43 501,-103.5 504.01,-101.77 507.19,-100.18 510.46,-98.71"/>
<polygon fill="#63b8ff" stroke="#63b8ff" points="511.69,-101.99 519.66,-95.02 509.08,-95.49 511.69,-101.99"/>
</a>
</g>
</g>
<!-- Node10&#45;&gt;Node11 -->
<g id="edge11_Node000010_Node000011" class="edge">
<title>Node10&#45;&gt;Node11</title>
<g id="a_edge11_Node000010_Node000011"><a xlink:title=" ">
<path fill="none" stroke="#63b8ff" d="M757.38,-182.5C770.49,-182.5 785.23,-182.5 799.17,-182.5"/>
<polygon fill="#63b8ff" stroke="#63b8ff" points="799.13,-186 809.13,-182.5 799.13,-179 799.13,-186"/>
</a>
</g>
</g>
<!-- Node12&#45;&gt;Node10 -->
<g id="edge13_Node000012_Node000010" class="edge">
<title>Node12&#45;&gt;Node10</title>
<g id="a_edge13_Node000012_Node000010"><a xlink:title=" ">
<path fill="none" stroke="#63b8ff" d="M594.2,-131.46C602.67,-134.21 611.72,-137.33 620,-140.5 641.48,-148.74 665.13,-159.25 683.4,-167.7"/>
<polygon fill="#63b8ff" stroke="#63b8ff" points="681.83,-170.83 692.37,-171.88 684.79,-164.48 681.83,-170.83"/>
</a>
</g>
</g>
<!-- Node13&#45;&gt;Node11 -->
<g id="edge17_Node000013_Node000011" class="edge">
<title>Node13&#45;&gt;Node11</title>
<g id="a_edge17_Node000013_Node000011"><a xlink:title=" ">
<path fill="none" stroke="#63b8ff" d="M592.49,-94.49C601.38,-97.38 611.08,-100.55 620,-103.5 688.25,-126.1 767.48,-152.99 814.03,-168.85"/>
<polygon fill="#63b8ff" stroke="#63b8ff" points="812.82,-172.14 823.42,-172.05 815.08,-165.51 812.82,-172.14"/>
</a>
</g>
</g>
<!-- Node15 -->
<g id="Node000015" class="node">
<title>Node15</title>
<g id="a_Node000015"><a xlink:href="exif-data_8c.html#a9403ed4fde8ef603e9db173eb122efaf" target="_top" xlink:title=" ">
<polygon fill="white" stroke="#666666" points="612.5,-536 508.5,-536 508.5,-517 612.5,-517 612.5,-536"/>
<text text-anchor="middle" x="560.5" y="-524" font-family="Helvetica,sans-Serif" font-size="10.00">exif_data_get_log</text>
</a>
</g>
</g>
<!-- Node14&#45;&gt;Node15 -->
<g id="edge20_Node000014_Node000015" class="edge">
<title>Node14&#45;&gt;Node15</title>
<g id="a_edge20_Node000014_Node000015"><a xlink:title=" ">
<path fill="none" stroke="#63b8ff" d="M436.99,-513.14C455.2,-515.12 476.83,-517.48 496.81,-519.66"/>
<polygon fill="#63b8ff" stroke="#63b8ff" points="496.2,-523.12 506.53,-520.72 496.96,-516.16 496.2,-523.12"/>
</a>
</g>
</g>
<!-- Node16 -->
<g id="Node000016" class="node">
<title>Node16</title>
<g id="a_Node000016"><a xlink:href="exif-log_8c.html#a99101b5ad01b2d82ce9d43c9e8534627" target="_top" xlink:title=" ">
<polygon fill="white" stroke="#666666" points="591.5,-499 529.5,-499 529.5,-480 591.5,-480 591.5,-499"/>
<text text-anchor="middle" x="560.5" y="-487" font-family="Helvetica,sans-Serif" font-size="10.00">exif_logv</text>
</a>
</g>
</g>
<!-- Node14&#45;&gt;Node16 -->
<g id="edge21_Node000014_Node000016" class="edge">
<title>Node14&#45;&gt;Node16</title>
<g id="a_edge21_Node000014_Node000016"><a xlink:title=" ">
<path fill="none" stroke="#63b8ff" d="M436.99,-503.61C461.89,-500.74 493.19,-497.14 517.93,-494.29"/>
<polygon fill="#63b8ff" stroke="#63b8ff" points="518.09,-497.79 527.63,-493.17 517.29,-490.84 518.09,-497.79"/>
</a>
</g>
</g>
<!-- Node22 -->
<g id="Node000022" class="node">
<title>Node22</title>
<g id="a_Node000022"><a xlink:href="exif-tag_8c.html#a6b4f26f6f8f243e1f8a9e123b9cca589" target="_top" xlink:title="Return a textual name of the given tag when found in the given IFD.">
<polygon fill="white" stroke="#666666" points="465,-56 322,-56 322,-37 465,-37 465,-56"/>
<text text-anchor="middle" x="393.5" y="-44" font-family="Helvetica,sans-Serif" font-size="10.00">exif_tag_get_name_in_ifd</text>
</a>
</g>
</g>
<!-- Node21&#45;&gt;Node22 -->
<g id="edge31_Node000021_Node000022" class="edge">
<title>Node21&#45;&gt;Node22</title>
<g id="a_edge31_Node000021_Node000022"><a xlink:title=" ">
<path fill="none" stroke="#63b8ff" d="M277.1,-46.5C287.71,-46.5 299.06,-46.5 310.34,-46.5"/>
<polygon fill="#63b8ff" stroke="#63b8ff" points="310.07,-50 320.07,-46.5 310.07,-43 310.07,-50"/>
</a>
</g>
</g>
<!-- Node26 -->
<g id="Node000026" class="node">
<title>Node26</title>
<g id="a_Node000026"><a xlink:href="exif-tag_8c.html#a51b998fa5d181e968cdd4cc2666150e2" target="_top" xlink:title=" ">
<polygon fill="white" stroke="#666666" points="446,-19 341,-19 341,0 446,0 446,-19"/>
<text text-anchor="middle" x="393.5" y="-7" font-family="Helvetica,sans-Serif" font-size="10.00">exif_tag_get_stuff</text>
</a>
</g>
</g>
<!-- Node21&#45;&gt;Node26 -->
<g id="edge35_Node000021_Node000026" class="edge">
<title>Node21&#45;&gt;Node26</title>
<g id="a_edge35_Node000021_Node000026"><a xlink:title=" ">
<path fill="none" stroke="#63b8ff" d="M268.42,-36.58C289.13,-32.06 313.87,-26.66 335.78,-21.88"/>
<polygon fill="#63b8ff" stroke="#63b8ff" points="336.45,-25.32 345.47,-19.77 334.96,-18.48 336.45,-25.32"/>
</a>
</g>
</g>
<!-- Node23 -->
<g id="Node000023" class="node">
<title>Node23</title>
<g id="a_Node000023"><a xlink:href="exif-tag_8c.html#a389f8ff3411e0525b28367892f1e78d3" target="_top" xlink:title="Finds the first entry in the EXIF tag table with the given tag number using a binary search.">
<polygon fill="white" stroke="#666666" points="616,-56 505,-56 505,-37 616,-37 616,-56"/>
<text text-anchor="middle" x="560.5" y="-44" font-family="Helvetica,sans-Serif" font-size="10.00">exif_tag_table_first</text>
</a>
</g>
</g>
<!-- Node22&#45;&gt;Node23 -->
<g id="edge32_Node000022_Node000023" class="edge">
<title>Node22&#45;&gt;Node23</title>
<g id="a_edge32_Node000022_Node000023"><a xlink:title=" ">
<path fill="none" stroke="#63b8ff" d="M465.43,-46.5C474.64,-46.5 484.05,-46.5 493.19,-46.5"/>
<polygon fill="#63b8ff" stroke="#63b8ff" points="493.06,-50 503.06,-46.5 493.06,-43 493.06,-50"/>
</a>
</g>
</g>
<!-- Node24 -->
<g id="Node000024" class="node">
<title>Node24</title>
<g id="a_Node000024"><a xlink:href="exif-tag_8c.html#a87563ee64809f5f0deb4d780098508c1" target="_top" xlink:title="Return the number of entries in the EXIF tag table, including the terminating NULL entry.">
<polygon fill="white" stroke="#666666" points="775,-75 656,-75 656,-56 775,-56 775,-75"/>
<text text-anchor="middle" x="715.5" y="-63" font-family="Helvetica,sans-Serif" font-size="10.00">exif_tag_table_count</text>
</a>
</g>
</g>
<!-- Node23&#45;&gt;Node24 -->
<g id="edge33_Node000023_Node000024" class="edge">
<title>Node23&#45;&gt;Node24</title>
<g id="a_edge33_Node000023_Node000024"><a xlink:title=" ">
<path fill="none" stroke="#63b8ff" d="M616.3,-53.31C625.39,-54.43 634.92,-55.62 644.32,-56.78"/>
<polygon fill="#63b8ff" stroke="#63b8ff" points="643.82,-60.25 654.18,-58.01 644.68,-53.3 643.82,-60.25"/>
</a>
</g>
</g>
<!-- Node25 -->
<g id="Node000025" class="node">
<title>Node25</title>
<g id="a_Node000025"><a xlink:href="exif-tag_8c.html#a220c1b18832f113bc84ff9551754915f" target="_top" xlink:title="Compares the tag with that in entry.">
<polygon fill="white" stroke="#666666" points="749.5,-38 681.5,-38 681.5,-19 749.5,-19 749.5,-38"/>
<text text-anchor="middle" x="715.5" y="-26" font-family="Helvetica,sans-Serif" font-size="10.00">match_tag</text>
</a>
</g>
</g>
<!-- Node23&#45;&gt;Node25 -->
<g id="edge34_Node000023_Node000025" class="edge">
<title>Node23&#45;&gt;Node25</title>
<g id="a_edge34_Node000023_Node000025"><a xlink:title=" ">
<path fill="none" stroke="#63b8ff" d="M616.3,-40.05C634,-37.97 653.38,-35.69 670.22,-33.71"/>
<polygon fill="#63b8ff" stroke="#63b8ff" points="670.39,-37.21 679.91,-32.57 669.57,-30.26 670.39,-37.21"/>
</a>
</g>
</g>
</g>
</svg>
