<?xml version="1.0" encoding="UTF-8" standalone="no"?>
<!DOCTYPE svg PUBLIC "-//W3C//DTD SVG 1.1//EN"
 "http://www.w3.org/Graphics/SVG/1.1/DTD/svg11.dtd">
<!-- Generated by graphviz version 7.0.1 (0)
 -->
<!-- Title: test_exif_data Pages: 1 -->
<svg width="941pt" height="445pt"
 viewBox="0.00 0.00 941.00 445.00" xmlns="http://www.w3.org/2000/svg" xmlns:xlink="http://www.w3.org/1999/xlink">
<g id="graph0" class="graph" transform="scale(1 1) rotate(0) translate(4 441)">
<title>test_exif_data</title>
<!-- Node1 -->
<g id="Node000001" class="node">
<title>Node1</title>
<g id="a_Node000001"><a xlink:title=" ">
<polygon fill="#999999" stroke="#666666" points="86,-249 0,-249 0,-230 86,-230 86,-249"/>
<text text-anchor="middle" x="43" y="-237" font-family="Helvetica,sans-Serif" font-size="10.00">test_exif_data</text>
</a>
</g>
</g>
<!-- Node2 -->
<g id="Node000002" class="node">
<title>Node2</title>
<g id="a_Node000002"><a xlink:href="exif-byte-order_8c.html#aad3b2a9b64e66ccbecc792de26e29403" target="_top" xlink:title="Return a short, localized, textual name for the given byte order.">
<polygon fill="white" stroke="#666666" points="272,-437 125,-437 125,-418 272,-418 272,-437"/>
<text text-anchor="middle" x="198.5" y="-425" font-family="Helvetica,sans-Serif" font-size="10.00">exif_byte_order_get_name</text>
</a>
</g>
</g>
<!-- Node1&#45;&gt;Node2 -->
<g id="edge1_Node000001_Node000002" class="edge">
<title>Node1&#45;&gt;Node2</title>
<g id="a_edge1_Node000001_Node000002"><a xlink:title=" ">
<path fill="none" stroke="#63b8ff" d="M45.52,-249.29C50.56,-278.39 69.52,-364.97 122,-408.5 123.68,-409.89 125.44,-411.18 127.28,-412.38"/>
<polygon fill="#63b8ff" stroke="#63b8ff" points="125.18,-415.22 135.63,-416.91 128.51,-409.07 125.18,-415.22"/>
</a>
</g>
</g>
<!-- Node3 -->
<g id="Node000003" class="node">
<title>Node3</title>
<g id="a_Node000003"><a xlink:href="exif-data_8c.html#a2d8d50e6a9c19d28fe8192ef7cc52777" target="_top" xlink:title="Return the byte order in use by this EXIF structure.">
<polygon fill="white" stroke="#666666" points="253.5,-399.5 143.5,-399.5 143.5,-369.5 253.5,-369.5 253.5,-399.5"/>
<text text-anchor="start" x="151.5" y="-387.5" font-family="Helvetica,sans-Serif" font-size="10.00">exif_data_get_byte</text>
<text text-anchor="middle" x="198.5" y="-376.5" font-family="Helvetica,sans-Serif" font-size="10.00">_order</text>
</a>
</g>
</g>
<!-- Node1&#45;&gt;Node3 -->
<g id="edge2_Node000001_Node000003" class="edge">
<title>Node1&#45;&gt;Node3</title>
<g id="a_edge2_Node000001_Node000003"><a xlink:title=" ">
<path fill="none" stroke="#63b8ff" d="M47.59,-249.29C56.52,-272.22 81.9,-329.83 122,-360.5 125.37,-363.07 129.02,-365.38 132.83,-367.44"/>
<polygon fill="#63b8ff" stroke="#63b8ff" points="131.33,-370.6 141.87,-371.69 134.31,-364.27 131.33,-370.6"/>
</a>
</g>
</g>
<!-- Node4 -->
<g id="Node000004" class="node">
<title>Node4</title>
<g id="a_Node000004"><a xlink:href="exif-data_8c.html#a3781327036264237ef8dfd88c66bd399" target="_top" xlink:title="Return the MakerNote data out of the EXIF data.">
<polygon fill="white" stroke="#666666" points="272,-351 125,-351 125,-332 272,-332 272,-351"/>
<text text-anchor="middle" x="198.5" y="-339" font-family="Helvetica,sans-Serif" font-size="10.00">exif_data_get_mnote_data</text>
</a>
</g>
</g>
<!-- Node1&#45;&gt;Node4 -->
<g id="edge3_Node000001_Node000004" class="edge">
<title>Node1&#45;&gt;Node4</title>
<g id="a_edge3_Node000001_Node000004"><a xlink:title=" ">
<path fill="none" stroke="#63b8ff" d="M50.18,-249.29C61.91,-267.01 89.17,-304.34 122,-323.5 124.44,-324.93 127,-326.24 129.62,-327.45"/>
<polygon fill="#63b8ff" stroke="#63b8ff" points="128.04,-330.59 138.63,-331.05 130.64,-324.09 128.04,-330.59"/>
</a>
</g>
</g>
<!-- Node5 -->
<g id="Node000005" class="node">
<title>Node5</title>
<g id="a_Node000005"><a xlink:href="exif-mnote-data_8c.html#af61fbda7c717e86991b0eccf6976a5f4" target="_top" xlink:title="Return the number of tags in the MakerNote.">
<polygon fill="white" stroke="#666666" points="264,-314 133,-314 133,-295 264,-295 264,-314"/>
<text text-anchor="middle" x="198.5" y="-302" font-family="Helvetica,sans-Serif" font-size="10.00">exif_mnote_data_count</text>
</a>
</g>
</g>
<!-- Node1&#45;&gt;Node5 -->
<g id="edge4_Node000001_Node000005" class="edge">
<title>Node1&#45;&gt;Node5</title>
<g id="a_edge4_Node000001_Node000005"><a xlink:title=" ">
<path fill="none" stroke="#63b8ff" d="M58.02,-249.45C73.16,-259.78 98.3,-275.76 122,-285.5 127.26,-287.66 132.82,-289.62 138.46,-291.39"/>
<polygon fill="#63b8ff" stroke="#63b8ff" points="137.27,-294.69 147.86,-294.14 139.24,-287.98 137.27,-294.69"/>
</a>
</g>
</g>
<!-- Node6 -->
<g id="Node000006" class="node">
<title>Node6</title>
<g id="a_Node000006"><a xlink:href="exif-mnote-data_8c.html#a72397dfd279d52fb674a1abd5ed16ee2" target="_top" xlink:title="Returns verbose textual description of the given MakerNote tag.">
<polygon fill="white" stroke="#666666" points="258.5,-276.5 138.5,-276.5 138.5,-246.5 258.5,-246.5 258.5,-276.5"/>
<text text-anchor="start" x="146.5" y="-264.5" font-family="Helvetica,sans-Serif" font-size="10.00">exif_mnote_data_get</text>
<text text-anchor="middle" x="198.5" y="-253.5" font-family="Helvetica,sans-Serif" font-size="10.00">_description</text>
</a>
</g>
</g>
<!-- Node1&#45;&gt;Node6 -->
<g id="edge5_Node000001_Node000006" class="edge">
<title>Node1&#45;&gt;Node6</title>
<g id="a_edge5_Node000001_Node000006"><a xlink:title=" ">
<path fill="none" stroke="#63b8ff" d="M86.35,-245.57C98.95,-247.38 113.12,-249.41 127.01,-251.4"/>
<polygon fill="#63b8ff" stroke="#63b8ff" points="126.16,-254.81 136.56,-252.77 127.15,-247.88 126.16,-254.81"/>
</a>
</g>
</g>
<!-- Node7 -->
<g id="Node000007" class="node">
<title>Node7</title>
<g id="a_Node000007"><a xlink:href="exif-mnote-data_8c.html#aac0686178cd4b8b5ec3b1c78b41acbf8" target="_top" xlink:title="Returns textual name of the given MakerNote tag.">
<polygon fill="white" stroke="#666666" points="275,-228 122,-228 122,-209 275,-209 275,-228"/>
<text text-anchor="middle" x="198.5" y="-216" font-family="Helvetica,sans-Serif" font-size="10.00">exif_mnote_data_get_name</text>
</a>
</g>
</g>
<!-- Node1&#45;&gt;Node7 -->
<g id="edge6_Node000001_Node000007" class="edge">
<title>Node1&#45;&gt;Node7</title>
<g id="a_edge6_Node000001_Node000007"><a xlink:title=" ">
<path fill="none" stroke="#63b8ff" d="M86.35,-233.71C94.8,-232.55 103.96,-231.3 113.26,-230.02"/>
<polygon fill="#63b8ff" stroke="#63b8ff" points="113.72,-233.49 123.15,-228.67 112.77,-226.56 113.72,-233.49"/>
</a>
</g>
</g>
<!-- Node8 -->
<g id="Node000008" class="node">
<title>Node8</title>
<g id="a_Node000008"><a xlink:href="exif-mnote-data_8c.html#a9ef3bec8c131fbde32702b475025e8f2" target="_top" xlink:title="Returns textual title of the given MakerNote tag.">
<polygon fill="white" stroke="#666666" points="258.5,-190.5 138.5,-190.5 138.5,-160.5 258.5,-160.5 258.5,-190.5"/>
<text text-anchor="start" x="146.5" y="-178.5" font-family="Helvetica,sans-Serif" font-size="10.00">exif_mnote_data_get</text>
<text text-anchor="middle" x="198.5" y="-167.5" font-family="Helvetica,sans-Serif" font-size="10.00">_title</text>
</a>
</g>
</g>
<!-- Node1&#45;&gt;Node8 -->
<g id="edge7_Node000001_Node000008" class="edge">
<title>Node1&#45;&gt;Node8</title>
<g id="a_edge7_Node000001_Node000008"><a xlink:title=" ">
<path fill="none" stroke="#63b8ff" d="M61.94,-229.6C77.53,-221.23 100.87,-209.23 122,-200.5 126.85,-198.5 131.92,-196.54 137.05,-194.65"/>
<polygon fill="#63b8ff" stroke="#63b8ff" points="137.91,-198.06 146.15,-191.41 135.56,-191.47 137.91,-198.06"/>
</a>
</g>
</g>
<!-- Node9 -->
<g id="Node000009" class="node">
<title>Node9</title>
<g id="a_Node000009"><a xlink:href="exif-mnote-data_8c.html#a299e3e7c9ee3c79f3678872b8a6038c4" target="_top" xlink:title="Return a textual representation of the value of the MakerNote entry.">
<polygon fill="white" stroke="#666666" points="258.5,-142.5 138.5,-142.5 138.5,-112.5 258.5,-112.5 258.5,-142.5"/>
<text text-anchor="start" x="146.5" y="-130.5" font-family="Helvetica,sans-Serif" font-size="10.00">exif_mnote_data_get</text>
<text text-anchor="middle" x="198.5" y="-119.5" font-family="Helvetica,sans-Serif" font-size="10.00">_value</text>
</a>
</g>
</g>
<!-- Node1&#45;&gt;Node9 -->
<g id="edge8_Node000001_Node000009" class="edge">
<title>Node1&#45;&gt;Node9</title>
<g id="a_edge8_Node000001_Node000009"><a xlink:title=" ">
<path fill="none" stroke="#63b8ff" d="M50.03,-229.76C61.7,-211.69 89.14,-172.87 122,-151.5 123.98,-150.21 126.04,-148.99 128.15,-147.83"/>
<polygon fill="#63b8ff" stroke="#63b8ff" points="129.56,-151.03 137,-143.49 126.48,-144.74 129.56,-151.03"/>
</a>
</g>
</g>
<!-- Node10 -->
<g id="Node000010" class="node">
<title>Node10</title>
<g id="a_Node000010"><a xlink:href="exif-mnote-data_8c.html#a4a0d8d4bdca32c58f181913e6e262d77" target="_top" xlink:title=" ">
<polygon fill="white" stroke="#666666" points="257.5,-94 139.5,-94 139.5,-75 257.5,-75 257.5,-94"/>
<text text-anchor="middle" x="198.5" y="-82" font-family="Helvetica,sans-Serif" font-size="10.00">exif_mnote_data_ref</text>
</a>
</g>
</g>
<!-- Node1&#45;&gt;Node10 -->
<g id="edge9_Node000001_Node000010" class="edge">
<title>Node1&#45;&gt;Node10</title>
<g id="a_edge9_Node000001_Node000010"><a xlink:title=" ">
<path fill="none" stroke="#63b8ff" d="M46.65,-229.84C54.03,-204.79 77.31,-137.36 122,-103.5 124.18,-101.85 126.49,-100.34 128.89,-98.96"/>
<polygon fill="#63b8ff" stroke="#63b8ff" points="130.36,-102.14 137.85,-94.64 127.32,-95.83 130.36,-102.14"/>
</a>
</g>
</g>
<!-- Node11 -->
<g id="Node000011" class="node">
<title>Node11</title>
<g id="a_Node000011"><a xlink:href="exif-mnote-data_8c.html#af910e5c862e5aba351b84b2142d98192" target="_top" xlink:title=" ">
<polygon fill="white" stroke="#666666" points="263.5,-57 133.5,-57 133.5,-38 263.5,-38 263.5,-57"/>
<text text-anchor="middle" x="198.5" y="-45" font-family="Helvetica,sans-Serif" font-size="10.00">exif_mnote_data_unref</text>
</a>
</g>
</g>
<!-- Node1&#45;&gt;Node11 -->
<g id="edge10_Node000001_Node000011" class="edge">
<title>Node1&#45;&gt;Node11</title>
<g id="a_edge10_Node000001_Node000011"><a xlink:title=" ">
<path fill="none" stroke="#63b8ff" d="M45.33,-229.81C49.93,-200.22 67.95,-110.27 122,-65.5 122.96,-64.7 123.95,-63.94 124.96,-63.22"/>
<polygon fill="#63b8ff" stroke="#63b8ff" points="126.55,-66.34 133.4,-58.26 123,-60.31 126.55,-66.34"/>
</a>
</g>
</g>
<!-- Node12 -->
<g id="Node000012" class="node">
<title>Node12</title>
<g id="a_Node000012"><a xlink:href="exif-mnote-data_8c.html#a2f715582f27a9821560931aeaa139abd" target="_top" xlink:title=" ">
<polygon fill="white" stroke="#666666" points="435,-57 311,-57 311,-38 435,-38 435,-57"/>
<text text-anchor="middle" x="373" y="-45" font-family="Helvetica,sans-Serif" font-size="10.00">exif_mnote_data_free</text>
</a>
</g>
</g>
<!-- Node11&#45;&gt;Node12 -->
<g id="edge11_Node000011_Node000012" class="edge">
<title>Node11&#45;&gt;Node12</title>
<g id="a_edge11_Node000011_Node000012"><a xlink:title=" ">
<path fill="none" stroke="#63b8ff" d="M263.73,-47.5C275.35,-47.5 287.53,-47.5 299.37,-47.5"/>
<polygon fill="#63b8ff" stroke="#63b8ff" points="299.06,-51 309.06,-47.5 299.06,-44 299.06,-51"/>
</a>
</g>
</g>
<!-- Node13 -->
<g id="Node000013" class="node">
<title>Node13</title>
<g id="a_Node000013"><a xlink:href="exif-log_8c.html#a7a9b738a7429197d68c80ffedac7d8fb" target="_top" xlink:title=" ">
<polygon fill="white" stroke="#666666" points="557,-57 471,-57 471,-38 557,-38 557,-57"/>
<text text-anchor="middle" x="514" y="-45" font-family="Helvetica,sans-Serif" font-size="10.00">exif_log_unref</text>
</a>
</g>
</g>
<!-- Node12&#45;&gt;Node13 -->
<g id="edge12_Node000012_Node000013" class="edge">
<title>Node12&#45;&gt;Node13</title>
<g id="a_edge12_Node000012_Node000013"><a xlink:title=" ">
<path fill="none" stroke="#63b8ff" d="M435.37,-47.5C443.39,-47.5 451.55,-47.5 459.42,-47.5"/>
<polygon fill="#63b8ff" stroke="#63b8ff" points="459.18,-51 469.18,-47.5 459.18,-44 459.18,-51"/>
</a>
</g>
</g>
<!-- Node15 -->
<g id="Node000015" class="node">
<title>Node15</title>
<g id="a_Node000015"><a xlink:href="exif-mem_8c.html#a43190b81b4b4bdb4ffb89bfb612051b1" target="_top" xlink:title=" ">
<polygon fill="white" stroke="#666666" points="933,-57 842,-57 842,-38 933,-38 933,-57"/>
<text text-anchor="middle" x="887.5" y="-45" font-family="Helvetica,sans-Serif" font-size="10.00">exif_mem_free</text>
</a>
</g>
</g>
<!-- Node12&#45;&gt;Node15 -->
<g id="edge17_Node000012_Node000015" class="edge">
<title>Node12&#45;&gt;Node15</title>
<g id="a_edge17_Node000012_Node000015"><a xlink:title=" ">
<path fill="none" stroke="#63b8ff" d="M418.19,-57.47C434.67,-60.72 453.6,-63.9 471,-65.5 619.27,-79.14 657.86,-76.53 806,-61.5 813.87,-60.7 822.12,-59.59 830.23,-58.33"/>
<polygon fill="#63b8ff" stroke="#63b8ff" points="830.73,-61.8 840.03,-56.73 829.6,-54.89 830.73,-61.8"/>
</a>
</g>
</g>
<!-- Node16 -->
<g id="Node000016" class="node">
<title>Node16</title>
<g id="a_Node000016"><a xlink:href="exif-mem_8c.html#a66744e0987af08c443df247ce55f7d87" target="_top" xlink:title="Unrefcount an ExifMem.">
<polygon fill="white" stroke="#666666" points="806,-19 709,-19 709,0 806,0 806,-19"/>
<text text-anchor="middle" x="757.5" y="-7" font-family="Helvetica,sans-Serif" font-size="10.00">exif_mem_unref</text>
</a>
</g>
</g>
<!-- Node12&#45;&gt;Node16 -->
<g id="edge18_Node000012_Node000016" class="edge">
<title>Node12&#45;&gt;Node16</title>
<g id="a_edge18_Node000012_Node000016"><a xlink:title=" ">
<path fill="none" stroke="#63b8ff" d="M418.72,-37.51C435.09,-34.18 453.81,-30.75 471,-28.5 548.76,-18.34 639.19,-13.48 697.09,-11.26"/>
<polygon fill="#63b8ff" stroke="#63b8ff" points="697.2,-14.75 707.07,-10.89 696.95,-7.76 697.2,-14.75"/>
</a>
</g>
</g>
<!-- Node14 -->
<g id="Node000014" class="node">
<title>Node14</title>
<g id="a_Node000014"><a xlink:href="exif-log_8c.html#acd0808d6d5be73f28059797c2e2e67dc" target="_top" xlink:title="Delete instance of ExifLog.">
<polygon fill="white" stroke="#666666" points="673,-57 593,-57 593,-38 673,-38 673,-57"/>
<text text-anchor="middle" x="633" y="-45" font-family="Helvetica,sans-Serif" font-size="10.00">exif_log_free</text>
</a>
</g>
</g>
<!-- Node13&#45;&gt;Node14 -->
<g id="edge13_Node000013_Node000014" class="edge">
<title>Node13&#45;&gt;Node14</title>
<g id="a_edge13_Node000013_Node000014"><a xlink:title=" ">
<path fill="none" stroke="#63b8ff" d="M557.24,-47.5C564.98,-47.5 573.13,-47.5 581.09,-47.5"/>
<polygon fill="#63b8ff" stroke="#63b8ff" points="581.04,-51 591.04,-47.5 581.04,-44 581.04,-51"/>
</a>
</g>
</g>
<!-- Node14&#45;&gt;Node15 -->
<g id="edge14_Node000014_Node000015" class="edge">
<title>Node14&#45;&gt;Node15</title>
<g id="a_edge14_Node000014_Node000015"><a xlink:title=" ">
<path fill="none" stroke="#63b8ff" d="M673.45,-47.5C715.61,-47.5 782.79,-47.5 830.43,-47.5"/>
<polygon fill="#63b8ff" stroke="#63b8ff" points="830.28,-51 840.28,-47.5 830.28,-44 830.28,-51"/>
</a>
</g>
</g>
<!-- Node14&#45;&gt;Node16 -->
<g id="edge15_Node000014_Node000016" class="edge">
<title>Node14&#45;&gt;Node16</title>
<g id="a_edge15_Node000014_Node000016"><a xlink:title=" ">
<path fill="none" stroke="#63b8ff" d="M666.19,-37.52C680.67,-33.02 697.99,-27.65 713.56,-22.82"/>
<polygon fill="#63b8ff" stroke="#63b8ff" points="714.57,-26.17 723.08,-19.87 712.5,-19.49 714.57,-26.17"/>
</a>
</g>
</g>
<!-- Node16&#45;&gt;Node15 -->
<g id="edge16_Node000016_Node000015" class="edge">
<title>Node16&#45;&gt;Node15</title>
<g id="a_edge16_Node000016_Node000015"><a xlink:title=" ">
<path fill="none" stroke="#63b8ff" d="M792.13,-19.48C807.42,-24.02 825.71,-29.45 842.11,-34.32"/>
<polygon fill="#63b8ff" stroke="#63b8ff" points="841.06,-37.66 851.64,-37.15 843.05,-30.95 841.06,-37.66"/>
</a>
</g>
</g>
</g>
</svg>
