<?xml version="1.0" encoding="UTF-8" standalone="no"?>
<!DOCTYPE svg PUBLIC "-//W3C//DTD SVG 1.1//EN"
 "http://www.w3.org/Graphics/SVG/1.1/DTD/svg11.dtd">
<!-- Generated by graphviz version 7.0.1 (0)
 -->
<!-- Title: _ExifEntry Pages: 1 -->
<svg width="672pt" height="291pt"
 viewBox="0.00 0.00 671.86 291.00" xmlns="http://www.w3.org/2000/svg" xmlns:xlink="http://www.w3.org/1999/xlink">
<g id="graph0" class="graph" transform="scale(1 1) rotate(0) translate(4 287)">
<title>_ExifEntry</title>
<!-- Node1 -->
<g id="Node000001" class="node">
<title>Node1</title>
<g id="a_Node000001"><a xlink:title="Data found in one EXIF tag.">
<polygon fill="#999999" stroke="#666666" points="622.36,-151 556.36,-151 556.36,-132 622.36,-132 622.36,-151"/>
<text text-anchor="middle" x="589.36" y="-139" font-family="Helvetica,sans-Serif" font-size="10.00">_ExifEntry</text>
</a>
</g>
</g>
<!-- Node2 -->
<g id="Node000002" class="node">
<title>Node2</title>
<g id="a_Node000002"><a xlink:href="struct__ExifContent.html" target="_top" xlink:title=" ">
<polygon fill="white" stroke="#bfbfbf" points="526.86,-85 447.86,-85 447.86,-66 526.86,-66 526.86,-85"/>
<text text-anchor="middle" x="487.36" y="-73" font-family="Helvetica,sans-Serif" font-size="10.00">_ExifContent</text>
</a>
</g>
</g>
<!-- Node1&#45;&gt;Node2 -->
<g id="edge2_Node000002_Node000001" class="edge">
<title>Node1&#45;&gt;Node2</title>
<g id="a_edge2_Node000002_Node000001"><a xlink:title=" ">
<path fill="none" stroke="#9a32cd" stroke-dasharray="5,2" d="M550.97,-127.43C542.22,-123.69 533.2,-119.2 525.36,-114 513.15,-105.91 501.54,-93.52 494.44,-85.22"/>
<polygon fill="#9a32cd" stroke="#9a32cd" points="549.42,-130.58 560,-131.05 552.02,-124.08 549.42,-130.58"/>
</a>
</g>
<text text-anchor="middle" x="543.86" y="-106" font-family="Helvetica,sans-Serif" font-size="10.00" fill="grey"> entries</text>
</g>
<!-- Node2&#45;&gt;Node1 -->
<g id="edge1_Node000001_Node000002" class="edge">
<title>Node2&#45;&gt;Node1</title>
<g id="a_edge1_Node000001_Node000002"><a xlink:title=" ">
<path fill="none" stroke="#9a32cd" stroke-dasharray="5,2" d="M537.9,-87.62C548,-91.38 558.04,-96.39 566.36,-103 575.8,-110.51 582.35,-123.04 585.98,-131.52"/>
<polygon fill="#9a32cd" stroke="#9a32cd" points="539.03,-84.3 528.44,-84.47 536.82,-90.95 539.03,-84.3"/>
</a>
</g>
<text text-anchor="middle" x="593.86" y="-106" font-family="Helvetica,sans-Serif" font-size="10.00" fill="grey"> parent</text>
</g>
<!-- Node3 -->
<g id="Node000003" class="node">
<title>Node3</title>
<g id="a_Node000003"><a xlink:href="struct__ExifData.html" target="_top" xlink:title="Represents the entire EXIF data found in an image.">
<polygon fill="white" stroke="#666666" points="461.36,-19 397.36,-19 397.36,0 461.36,0 461.36,-19"/>
<text text-anchor="middle" x="429.36" y="-7" font-family="Helvetica,sans-Serif" font-size="10.00">_ExifData</text>
</a>
</g>
</g>
<!-- Node2&#45;&gt;Node3 -->
<g id="edge4_Node000003_Node000002" class="edge">
<title>Node2&#45;&gt;Node3</title>
<g id="a_edge4_Node000003_Node000002"><a xlink:title=" ">
<path fill="none" stroke="#9a32cd" stroke-dasharray="5,2" d="M478.43,-55.93C474.87,-49.55 470.41,-42.6 465.36,-37 459.23,-30.2 451.1,-24.03 444.12,-19.37"/>
<polygon fill="#9a32cd" stroke="#9a32cd" points="475.13,-57.18 482.82,-64.46 481.36,-53.97 475.13,-57.18"/>
</a>
</g>
<text text-anchor="middle" x="481.36" y="-40" font-family="Helvetica,sans-Serif" font-size="10.00" fill="grey"> ifd</text>
</g>
<!-- Node3&#45;&gt;Node2 -->
<g id="edge3_Node000002_Node000003" class="edge">
<title>Node3&#45;&gt;Node2</title>
<g id="a_edge3_Node000002_Node000003"><a xlink:title=" ">
<path fill="none" stroke="#9a32cd" stroke-dasharray="5,2" d="M426.01,-30.66C426,-36.66 427.05,-42.96 430.36,-48 435.63,-56.03 444.01,-61.67 452.74,-65.61"/>
<polygon fill="#9a32cd" stroke="#9a32cd" points="429.49,-31.11 426.99,-20.81 422.52,-30.42 429.49,-31.11"/>
</a>
</g>
<text text-anchor="middle" x="447.86" y="-40" font-family="Helvetica,sans-Serif" font-size="10.00" fill="grey"> parent</text>
</g>
<!-- Node4 -->
<g id="Node000004" class="node">
<title>Node4</title>
<g id="a_Node000004"><a xlink:title=" ">
<polygon fill="white" stroke="#bfbfbf" points="391.36,-85 293.36,-85 293.36,-66 391.36,-66 391.36,-85"/>
<text text-anchor="middle" x="342.36" y="-73" font-family="Helvetica,sans-Serif" font-size="10.00">_ExifDataPrivate</text>
</a>
</g>
</g>
<!-- Node4&#45;&gt;Node3 -->
<g id="edge5_Node000003_Node000004" class="edge">
<title>Node4&#45;&gt;Node3</title>
<g id="a_edge5_Node000003_Node000004"><a xlink:title=" ">
<path fill="none" stroke="#9a32cd" stroke-dasharray="5,2" d="M363.58,-58.89C380.47,-46.46 403.51,-29.51 417.36,-19.32"/>
<polygon fill="#9a32cd" stroke="#9a32cd" points="361.66,-55.96 355.67,-64.7 365.8,-61.6 361.66,-55.96"/>
</a>
</g>
<text text-anchor="middle" x="402.36" y="-40" font-family="Helvetica,sans-Serif" font-size="10.00" fill="grey"> priv</text>
</g>
<!-- Node5 -->
<g id="Node000005" class="node">
<title>Node5</title>
<g id="a_Node000005"><a xlink:href="struct__ExifMnoteData.html" target="_top" xlink:title=" ">
<polygon fill="white" stroke="#bfbfbf" points="350.86,-151 255.86,-151 255.86,-132 350.86,-132 350.86,-151"/>
<text text-anchor="middle" x="303.36" y="-139" font-family="Helvetica,sans-Serif" font-size="10.00">_ExifMnoteData</text>
</a>
</g>
</g>
<!-- Node5&#45;&gt;Node4 -->
<g id="edge6_Node000004_Node000005" class="edge">
<title>Node5&#45;&gt;Node4</title>
<g id="a_edge6_Node000004_Node000005"><a xlink:title=" ">
<path fill="none" stroke="#9a32cd" stroke-dasharray="5,2" d="M314.61,-122.03C321.97,-109.96 331.24,-94.75 336.98,-85.32"/>
<polygon fill="#9a32cd" stroke="#9a32cd" points="311.78,-119.95 309.57,-130.31 317.76,-123.59 311.78,-119.95"/>
</a>
</g>
<text text-anchor="middle" x="334.86" y="-106" font-family="Helvetica,sans-Serif" font-size="10.00" fill="grey"> md</text>
</g>
<!-- Node6 -->
<g id="Node000006" class="node">
<title>Node6</title>
<g id="a_Node000006"><a xlink:title=" ">
<polygon fill="white" stroke="#bfbfbf" points="359.86,-217 246.86,-217 246.86,-198 359.86,-198 359.86,-217"/>
<text text-anchor="middle" x="303.36" y="-205" font-family="Helvetica,sans-Serif" font-size="10.00">_ExifMnoteDataPriv</text>
</a>
</g>
</g>
<!-- Node6&#45;&gt;Node5 -->
<g id="edge7_Node000005_Node000006" class="edge">
<title>Node6&#45;&gt;Node5</title>
<g id="a_edge7_Node000005_Node000006"><a xlink:title=" ">
<path fill="none" stroke="#9a32cd" stroke-dasharray="5,2" d="M303.36,-186.18C303.36,-174.44 303.36,-160.27 303.36,-151.32"/>
<polygon fill="#9a32cd" stroke="#9a32cd" points="299.86,-186.09 303.36,-196.09 306.86,-186.09 299.86,-186.09"/>
</a>
</g>
<text text-anchor="middle" x="314.36" y="-172" font-family="Helvetica,sans-Serif" font-size="10.00" fill="grey"> priv</text>
</g>
<!-- Node7 -->
<g id="Node000007" class="node">
<title>Node7</title>
<g id="a_Node000007"><a xlink:href="struct__ExifMnoteDataMethods.html" target="_top" xlink:title=" ">
<polygon fill="white" stroke="#bfbfbf" points="162.86,-217 25.86,-217 25.86,-198 162.86,-198 162.86,-217"/>
<text text-anchor="middle" x="94.36" y="-205" font-family="Helvetica,sans-Serif" font-size="10.00">_ExifMnoteDataMethods</text>
</a>
</g>
</g>
<!-- Node7&#45;&gt;Node5 -->
<g id="edge8_Node000005_Node000007" class="edge">
<title>Node7&#45;&gt;Node5</title>
<g id="a_edge8_Node000005_Node000007"><a xlink:title=" ">
<path fill="none" stroke="#9a32cd" stroke-dasharray="5,2" d="M110.03,-189.84C118.08,-182.29 128.46,-173.96 139.36,-169 176.1,-152.26 221.71,-145.9 255.49,-143.58"/>
<polygon fill="#9a32cd" stroke="#9a32cd" points="107.72,-187.2 103.11,-196.74 112.66,-192.15 107.72,-187.2"/>
</a>
</g>
<text text-anchor="middle" x="162.36" y="-172" font-family="Helvetica,sans-Serif" font-size="10.00" fill="grey"> methods</text>
</g>
<!-- Node8 -->
<g id="Node000008" class="node">
<title>Node8</title>
<g id="a_Node000008"><a xlink:title=" ">
<polygon fill="white" stroke="#bfbfbf" points="436.36,-217 378.36,-217 378.36,-198 436.36,-198 436.36,-217"/>
<text text-anchor="middle" x="407.36" y="-205" font-family="Helvetica,sans-Serif" font-size="10.00">_ExifLog</text>
</a>
</g>
</g>
<!-- Node8&#45;&gt;Node4 -->
<g id="edge13_Node000004_Node000008" class="edge">
<title>Node8&#45;&gt;Node4</title>
<g id="a_edge13_Node000004_Node000008"><a xlink:title=" ">
<path fill="none" stroke="#9a32cd" stroke-dasharray="5,2" d="M397.75,-187.29C383.5,-158.79 357.32,-106.43 346.86,-85.5"/>
<polygon fill="#9a32cd" stroke="#9a32cd" points="394.61,-188.83 402.21,-196.21 400.87,-185.7 394.61,-188.83"/>
</a>
</g>
<text text-anchor="middle" x="388.86" y="-139" font-family="Helvetica,sans-Serif" font-size="10.00" fill="grey"> log</text>
</g>
<!-- Node8&#45;&gt;Node5 -->
<g id="edge9_Node000005_Node000008" class="edge">
<title>Node8&#45;&gt;Node5</title>
<g id="a_edge9_Node000005_Node000008"><a xlink:title=" ">
<path fill="none" stroke="#9a32cd" stroke-dasharray="5,2" d="M377.68,-192.77C369.95,-188.9 361.72,-184.5 354.36,-180 339.92,-171.17 324.4,-159.39 314.32,-151.41"/>
<polygon fill="#9a32cd" stroke="#9a32cd" points="375.91,-195.81 386.44,-197.04 378.98,-189.51 375.91,-195.81"/>
</a>
</g>
<text text-anchor="middle" x="363.86" y="-172" font-family="Helvetica,sans-Serif" font-size="10.00" fill="grey"> log</text>
</g>
<!-- Node8&#45;&gt;Node8 -->
<g id="edge10_Node000008_Node000008" class="edge">
<title>Node8&#45;&gt;Node8</title>
<g id="a_edge10_Node000008_Node000008"><a xlink:title=" ">
<path fill="none" stroke="#9a32cd" stroke-dasharray="5,2" d="M447.97,-212.5C451.88,-211.49 454.36,-209.82 454.36,-207.5 454.36,-203.38 446.52,-201.31 436.73,-201.31"/>
<polygon fill="#9a32cd" stroke="#9a32cd" points="447.82,-209 438.24,-213.53 448.55,-215.96 447.82,-209"/>
</a>
</g>
<text text-anchor="middle" x="466.86" y="-205" font-family="Helvetica,sans-Serif" font-size="10.00" fill="grey"> func</text>
</g>
<!-- Node10 -->
<g id="Node000010" class="node">
<title>Node10</title>
<g id="a_Node000010"><a xlink:title=" ">
<polygon fill="white" stroke="#bfbfbf" points="537.86,-151 424.86,-151 424.86,-132 537.86,-132 537.86,-151"/>
<text text-anchor="middle" x="481.36" y="-139" font-family="Helvetica,sans-Serif" font-size="10.00">_ExifContentPrivate</text>
</a>
</g>
</g>
<!-- Node8&#45;&gt;Node10 -->
<g id="edge17_Node000010_Node000008" class="edge">
<title>Node8&#45;&gt;Node10</title>
<g id="a_edge17_Node000010_Node000008"><a xlink:title=" ">
<path fill="none" stroke="#9a32cd" stroke-dasharray="5,2" d="M426.22,-190.19C440.51,-177.83 459.6,-161.32 471.16,-151.32"/>
<polygon fill="#9a32cd" stroke="#9a32cd" points="424.07,-187.42 418.79,-196.61 428.65,-192.72 424.07,-187.42"/>
</a>
</g>
<text text-anchor="middle" x="458.86" y="-172" font-family="Helvetica,sans-Serif" font-size="10.00" fill="grey"> log</text>
</g>
<!-- Node9 -->
<g id="Node000009" class="node">
<title>Node9</title>
<g id="a_Node000009"><a xlink:title=" ">
<polygon fill="white" stroke="#bfbfbf" points="439.86,-283 374.86,-283 374.86,-264 439.86,-264 439.86,-283"/>
<text text-anchor="middle" x="407.36" y="-271" font-family="Helvetica,sans-Serif" font-size="10.00">_ExifMem</text>
</a>
</g>
</g>
<!-- Node9&#45;&gt;Node4 -->
<g id="edge14_Node000004_Node000009" class="edge">
<title>Node9&#45;&gt;Node4</title>
<g id="a_edge14_Node000004_Node000009"><a xlink:title=" ">
<path fill="none" stroke="#9a32cd" stroke-dasharray="5,2" d="M362.85,-273.14C270.06,-273.42 60.82,-268.21 16.36,-217 -65.05,-123.22 183.67,-90.03 293.25,-80.14"/>
<polygon fill="#9a32cd" stroke="#9a32cd" points="362.87,-276.64 372.85,-273.08 362.83,-269.64 362.87,-276.64"/>
</a>
</g>
<text text-anchor="middle" x="16.86" y="-172" font-family="Helvetica,sans-Serif" font-size="10.00" fill="grey"> mem</text>
</g>
<!-- Node9&#45;&gt;Node5 -->
<g id="edge12_Node000005_Node000009" class="edge">
<title>Node9&#45;&gt;Node5</title>
<g id="a_edge12_Node000005_Node000009"><a xlink:title=" ">
<path fill="none" stroke="#9a32cd" stroke-dasharray="5,2" d="M363.49,-266.48C310.77,-258.24 227.05,-241.62 208.36,-217 186.24,-187.87 238.42,-163.84 273.88,-151.49"/>
<polygon fill="#9a32cd" stroke="#9a32cd" points="362.65,-269.89 373.06,-267.93 363.7,-262.97 362.65,-269.89"/>
</a>
</g>
<text text-anchor="middle" x="222.86" y="-205" font-family="Helvetica,sans-Serif" font-size="10.00" fill="grey"> mem</text>
</g>
<!-- Node9&#45;&gt;Node8 -->
<g id="edge11_Node000008_Node000009" class="edge">
<title>Node9&#45;&gt;Node8</title>
<g id="a_edge11_Node000008_Node000009"><a xlink:title=" ">
<path fill="none" stroke="#9a32cd" stroke-dasharray="5,2" d="M407.36,-252.18C407.36,-240.44 407.36,-226.27 407.36,-217.32"/>
<polygon fill="#9a32cd" stroke="#9a32cd" points="403.86,-252.09 407.36,-262.09 410.86,-252.09 403.86,-252.09"/>
</a>
</g>
<text text-anchor="middle" x="421.86" y="-238" font-family="Helvetica,sans-Serif" font-size="10.00" fill="grey"> mem</text>
</g>
<!-- Node9&#45;&gt;Node10 -->
<g id="edge16_Node000010_Node000009" class="edge">
<title>Node9&#45;&gt;Node10</title>
<g id="a_edge16_Node000010_Node000009"><a xlink:title=" ">
<path fill="none" stroke="#9a32cd" stroke-dasharray="5,2" d="M440.97,-258.85C458.49,-249.79 478.33,-236.04 488.36,-217 499.62,-195.62 490.82,-165.98 485.17,-151.37"/>
<polygon fill="#9a32cd" stroke="#9a32cd" points="439.86,-255.5 432.37,-262.99 442.9,-261.8 439.86,-255.5"/>
</a>
</g>
<text text-anchor="middle" x="508.86" y="-205" font-family="Helvetica,sans-Serif" font-size="10.00" fill="grey"> mem</text>
</g>
<!-- Node11 -->
<g id="Node000011" class="node">
<title>Node11</title>
<g id="a_Node000011"><a xlink:title=" ">
<polygon fill="white" stroke="#bfbfbf" points="663.86,-217 562.86,-217 562.86,-198 663.86,-198 663.86,-217"/>
<text text-anchor="middle" x="613.36" y="-205" font-family="Helvetica,sans-Serif" font-size="10.00">_ExifEntryPrivate</text>
</a>
</g>
</g>
<!-- Node9&#45;&gt;Node11 -->
<g id="edge19_Node000011_Node000009" class="edge">
<title>Node9&#45;&gt;Node11</title>
<g id="a_edge19_Node000011_Node000009"><a xlink:title=" ">
<path fill="none" stroke="#9a32cd" stroke-dasharray="5,2" d="M451.23,-265.24C474.72,-260.78 503.96,-254.33 529.36,-246 553.18,-238.19 579.38,-225.85 596.08,-217.48"/>
<polygon fill="#9a32cd" stroke="#9a32cd" points="450.9,-261.74 441.7,-266.99 452.17,-268.62 450.9,-261.74"/>
</a>
</g>
<text text-anchor="middle" x="572.86" y="-238" font-family="Helvetica,sans-Serif" font-size="10.00" fill="grey"> mem</text>
</g>
<!-- Node10&#45;&gt;Node2 -->
<g id="edge15_Node000002_Node000010" class="edge">
<title>Node10&#45;&gt;Node2</title>
<g id="a_edge15_Node000002_Node000010"><a xlink:title=" ">
<path fill="none" stroke="#9a32cd" stroke-dasharray="5,2" d="M482.07,-120.37C482.37,-114.74 482.78,-108.62 483.36,-103 483.96,-97.08 484.96,-90.45 485.81,-85.31"/>
<polygon fill="#9a32cd" stroke="#9a32cd" points="478.59,-119.89 481.66,-130.03 485.58,-120.19 478.59,-119.89"/>
</a>
</g>
<text text-anchor="middle" x="494.36" y="-106" font-family="Helvetica,sans-Serif" font-size="10.00" fill="grey"> priv</text>
</g>
<!-- Node11&#45;&gt;Node1 -->
<g id="edge18_Node000001_Node000011" class="edge">
<title>Node11&#45;&gt;Node1</title>
<g id="a_edge18_Node000001_Node000011"><a xlink:title=" ">
<path fill="none" stroke="#9a32cd" stroke-dasharray="5,2" d="M606.02,-186.93C601.56,-175.05 596.09,-160.46 592.67,-151.32"/>
<polygon fill="#9a32cd" stroke="#9a32cd" points="602.7,-188.05 609.49,-196.18 609.26,-185.59 602.7,-188.05"/>
</a>
</g>
<text text-anchor="middle" x="614.36" y="-172" font-family="Helvetica,sans-Serif" font-size="10.00" fill="grey"> priv</text>
</g>
</g>
</svg>
