<?xml version="1.0" encoding="UTF-8" standalone="no"?>
<!DOCTYPE svg PUBLIC "-//W3C//DTD SVG 1.1//EN"
 "http://www.w3.org/Graphics/SVG/1.1/DTD/svg11.dtd">
<!-- Generated by graphviz version 7.0.1 (0)
 -->
<!-- Title: _ExifMnoteData Pages: 1 -->
<svg width="461pt" height="159pt"
 viewBox="0.00 0.00 460.50 159.00" xmlns="http://www.w3.org/2000/svg" xmlns:xlink="http://www.w3.org/1999/xlink">
<g id="graph0" class="graph" transform="scale(1 1) rotate(0) translate(4 155)">
<title>_ExifMnoteData</title>
<!-- Node1 -->
<g id="Node000001" class="node">
<title>Node1</title>
<g id="a_Node000001"><a xlink:title=" ">
<polygon fill="#999999" stroke="#666666" points="299,-19 204,-19 204,0 299,0 299,-19"/>
<text text-anchor="middle" x="251.5" y="-7" font-family="Helvetica,sans-Serif" font-size="10.00">_ExifMnoteData</text>
</a>
</g>
</g>
<!-- Node2 -->
<g id="Node000002" class="node">
<title>Node2</title>
<g id="a_Node000002"><a xlink:title=" ">
<polygon fill="white" stroke="#bfbfbf" points="113,-85 0,-85 0,-66 113,-66 113,-85"/>
<text text-anchor="middle" x="56.5" y="-73" font-family="Helvetica,sans-Serif" font-size="10.00">_ExifMnoteDataPriv</text>
</a>
</g>
</g>
<!-- Node2&#45;&gt;Node1 -->
<g id="edge1_Node000001_Node000002" class="edge">
<title>Node2&#45;&gt;Node1</title>
<g id="a_edge1_Node000001_Node000002"><a xlink:title=" ">
<path fill="none" stroke="#9a32cd" stroke-dasharray="5,2" d="M94.29,-62.1C132.45,-49.57 190.45,-30.54 224.3,-19.43"/>
<polygon fill="#9a32cd" stroke="#9a32cd" points="93.46,-58.69 85.05,-65.13 95.64,-65.34 93.46,-58.69"/>
</a>
</g>
<text text-anchor="middle" x="177.5" y="-40" font-family="Helvetica,sans-Serif" font-size="10.00" fill="grey"> priv</text>
</g>
<!-- Node3 -->
<g id="Node000003" class="node">
<title>Node3</title>
<g id="a_Node000003"><a xlink:href="struct__ExifMnoteDataMethods.html" target="_top" xlink:title=" ">
<polygon fill="white" stroke="#bfbfbf" points="268,-85 131,-85 131,-66 268,-66 268,-85"/>
<text text-anchor="middle" x="199.5" y="-73" font-family="Helvetica,sans-Serif" font-size="10.00">_ExifMnoteDataMethods</text>
</a>
</g>
</g>
<!-- Node3&#45;&gt;Node1 -->
<g id="edge2_Node000001_Node000003" class="edge">
<title>Node3&#45;&gt;Node1</title>
<g id="a_edge2_Node000001_Node000003"><a xlink:title=" ">
<path fill="none" stroke="#9a32cd" stroke-dasharray="5,2" d="M213.91,-56.76C223.81,-44.58 236.52,-28.94 244.33,-19.32"/>
<polygon fill="#9a32cd" stroke="#9a32cd" points="211.27,-54.46 207.68,-64.43 216.71,-58.87 211.27,-54.46"/>
</a>
</g>
<text text-anchor="middle" x="252.5" y="-40" font-family="Helvetica,sans-Serif" font-size="10.00" fill="grey"> methods</text>
</g>
<!-- Node4 -->
<g id="Node000004" class="node">
<title>Node4</title>
<g id="a_Node000004"><a xlink:title=" ">
<polygon fill="white" stroke="#bfbfbf" points="409.5,-85 351.5,-85 351.5,-66 409.5,-66 409.5,-85"/>
<text text-anchor="middle" x="380.5" y="-73" font-family="Helvetica,sans-Serif" font-size="10.00">_ExifLog</text>
</a>
</g>
</g>
<!-- Node4&#45;&gt;Node1 -->
<g id="edge3_Node000001_Node000004" class="edge">
<title>Node4&#45;&gt;Node1</title>
<g id="a_edge3_Node000001_Node000004"><a xlink:title=" ">
<path fill="none" stroke="#9a32cd" stroke-dasharray="5,2" d="M357.89,-59.57C346.36,-52.28 331.96,-43.67 318.5,-37 305.16,-30.39 289.75,-24.2 277.07,-19.46"/>
<polygon fill="#9a32cd" stroke="#9a32cd" points="355.98,-62.51 366.29,-64.98 359.77,-56.62 355.98,-62.51"/>
</a>
</g>
<text text-anchor="middle" x="348" y="-40" font-family="Helvetica,sans-Serif" font-size="10.00" fill="grey"> log</text>
</g>
<!-- Node4&#45;&gt;Node4 -->
<g id="edge4_Node000004_Node000004" class="edge">
<title>Node4&#45;&gt;Node4</title>
<g id="a_edge4_Node000004_Node000004"><a xlink:title=" ">
<path fill="none" stroke="#9a32cd" stroke-dasharray="5,2" d="M421.11,-80.5C425.02,-79.49 427.5,-77.82 427.5,-75.5 427.5,-71.38 419.67,-69.31 409.88,-69.31"/>
<polygon fill="#9a32cd" stroke="#9a32cd" points="420.96,-77 411.38,-81.53 421.69,-83.96 420.96,-77"/>
</a>
</g>
<text text-anchor="middle" x="440" y="-73" font-family="Helvetica,sans-Serif" font-size="10.00" fill="grey"> func</text>
</g>
<!-- Node5 -->
<g id="Node000005" class="node">
<title>Node5</title>
<g id="a_Node000005"><a xlink:title=" ">
<polygon fill="white" stroke="#bfbfbf" points="353,-151 288,-151 288,-132 353,-132 353,-151"/>
<text text-anchor="middle" x="320.5" y="-139" font-family="Helvetica,sans-Serif" font-size="10.00">_ExifMem</text>
</a>
</g>
</g>
<!-- Node5&#45;&gt;Node1 -->
<g id="edge6_Node000001_Node000005" class="edge">
<title>Node5&#45;&gt;Node1</title>
<g id="a_edge6_Node000001_Node000005"><a xlink:title=" ">
<path fill="none" stroke="#9a32cd" stroke-dasharray="5,2" d="M315.47,-120.75C309.31,-98.96 297.42,-63.48 279.5,-37 275,-30.35 268.56,-24.11 263,-19.36"/>
<polygon fill="#9a32cd" stroke="#9a32cd" points="312.01,-121.35 317.98,-130.1 318.77,-119.54 312.01,-121.35"/>
</a>
</g>
<text text-anchor="middle" x="318" y="-73" font-family="Helvetica,sans-Serif" font-size="10.00" fill="grey"> mem</text>
</g>
<!-- Node5&#45;&gt;Node4 -->
<g id="edge5_Node000004_Node000005" class="edge">
<title>Node5&#45;&gt;Node4</title>
<g id="a_edge5_Node000004_Node000005"><a xlink:title=" ">
<path fill="none" stroke="#9a32cd" stroke-dasharray="5,2" d="M336.46,-123.48C347.97,-111.2 363.03,-95.13 372.23,-85.32"/>
<polygon fill="#9a32cd" stroke="#9a32cd" points="334.16,-120.81 329.88,-130.5 339.27,-125.6 334.16,-120.81"/>
</a>
</g>
<text text-anchor="middle" x="369" y="-106" font-family="Helvetica,sans-Serif" font-size="10.00" fill="grey"> mem</text>
</g>
</g>
</svg>
