<?xml version="1.0" encoding="UTF-8" standalone="no"?>
<!DOCTYPE svg PUBLIC "-//W3C//DTD SVG 1.1//EN"
 "http://www.w3.org/Graphics/SVG/1.1/DTD/svg11.dtd">
<!-- Generated by graphviz version 7.0.1 (0)
 -->
<!-- Title: _ExifContent Pages: 1 -->
<svg width="650pt" height="299pt"
 viewBox="0.00 0.00 649.50 299.00" xmlns="http://www.w3.org/2000/svg" xmlns:xlink="http://www.w3.org/1999/xlink">
<g id="graph0" class="graph" transform="scale(1 1) rotate(0) translate(4 295)">
<title>_ExifContent</title>
<!-- Node1 -->
<g id="Node000001" class="node">
<title>Node1</title>
<g id="a_Node000001"><a xlink:title=" ">
<polygon fill="#999999" stroke="#666666" points="198,-85 119,-85 119,-66 198,-66 198,-85"/>
<text text-anchor="middle" x="158.5" y="-73" font-family="Helvetica,sans-Serif" font-size="10.00">_ExifContent</text>
</a>
</g>
</g>
<!-- Node2 -->
<g id="Node000002" class="node">
<title>Node2</title>
<g id="a_Node000002"><a xlink:href="struct__ExifEntry.html" target="_top" xlink:title="Data found in one EXIF tag.">
<polygon fill="white" stroke="#666666" points="122.5,-19 56.5,-19 56.5,0 122.5,0 122.5,-19"/>
<text text-anchor="middle" x="89.5" y="-7" font-family="Helvetica,sans-Serif" font-size="10.00">_ExifEntry</text>
</a>
</g>
</g>
<!-- Node1&#45;&gt;Node2 -->
<g id="edge2_Node000002_Node000001" class="edge">
<title>Node1&#45;&gt;Node2</title>
<g id="a_edge2_Node000002_Node000001"><a xlink:title=" ">
<path fill="none" stroke="#9a32cd" stroke-dasharray="5,2" d="M145.44,-56.73C140.22,-50.18 133.93,-42.92 127.5,-37 120.4,-30.46 111.61,-24.23 104.27,-19.45"/>
<polygon fill="#9a32cd" stroke="#9a32cd" points="142.44,-58.56 151.29,-64.38 148,-54.31 142.44,-58.56"/>
</a>
</g>
<text text-anchor="middle" x="156" y="-40" font-family="Helvetica,sans-Serif" font-size="10.00" fill="grey"> parent</text>
</g>
<!-- Node5 -->
<g id="Node000005" class="node">
<title>Node5</title>
<g id="a_Node000005"><a xlink:href="struct__ExifData.html" target="_top" xlink:title="Represents the entire EXIF data found in an image.">
<polygon fill="white" stroke="#666666" points="297.5,-19 233.5,-19 233.5,0 297.5,0 297.5,-19"/>
<text text-anchor="middle" x="265.5" y="-7" font-family="Helvetica,sans-Serif" font-size="10.00">_ExifData</text>
</a>
</g>
</g>
<!-- Node1&#45;&gt;Node5 -->
<g id="edge6_Node000005_Node000001" class="edge">
<title>Node1&#45;&gt;Node5</title>
<g id="a_edge6_Node000005_Node000001"><a xlink:title=" ">
<path fill="none" stroke="#9a32cd" stroke-dasharray="5,2" d="M209.2,-65.33C221.31,-61.42 233.58,-55.88 243.5,-48 252.96,-40.49 259.19,-27.72 262.53,-19.2"/>
<polygon fill="#9a32cd" stroke="#9a32cd" points="208.31,-61.94 199.66,-68.06 210.23,-68.67 208.31,-61.94"/>
</a>
</g>
<text text-anchor="middle" x="260.5" y="-40" font-family="Helvetica,sans-Serif" font-size="10.00" fill="grey"> ifd</text>
</g>
<!-- Node2&#45;&gt;Node1 -->
<g id="edge1_Node000001_Node000002" class="edge">
<title>Node2&#45;&gt;Node1</title>
<g id="a_edge1_Node000001_Node000002"><a xlink:title=" ">
<path fill="none" stroke="#9a32cd" stroke-dasharray="5,2" d="M85.96,-30.8C85.94,-36.79 87.03,-43.07 90.5,-48 97.21,-57.53 107.87,-63.64 118.79,-67.55"/>
<polygon fill="#9a32cd" stroke="#9a32cd" points="89.44,-31.21 87,-20.9 82.48,-30.48 89.44,-31.21"/>
</a>
</g>
<text text-anchor="middle" x="109" y="-40" font-family="Helvetica,sans-Serif" font-size="10.00" fill="grey"> entries</text>
</g>
<!-- Node3 -->
<g id="Node000003" class="node">
<title>Node3</title>
<g id="a_Node000003"><a xlink:title=" ">
<polygon fill="white" stroke="#bfbfbf" points="101,-188 0,-188 0,-169 101,-169 101,-188"/>
<text text-anchor="middle" x="50.5" y="-176" font-family="Helvetica,sans-Serif" font-size="10.00">_ExifEntryPrivate</text>
</a>
</g>
</g>
<!-- Node3&#45;&gt;Node2 -->
<g id="edge3_Node000002_Node000003" class="edge">
<title>Node3&#45;&gt;Node2</title>
<g id="a_edge3_Node000002_Node000003"><a xlink:title=" ">
<path fill="none" stroke="#9a32cd" stroke-dasharray="5,2" d="M55.2,-157.36C63.75,-120.76 81.51,-44.71 87.49,-19.12"/>
<polygon fill="#9a32cd" stroke="#9a32cd" points="51.81,-156.51 52.94,-167.05 58.62,-158.11 51.81,-156.51"/>
</a>
</g>
<text text-anchor="middle" x="79.5" y="-106" font-family="Helvetica,sans-Serif" font-size="10.00" fill="grey"> priv</text>
</g>
<!-- Node4 -->
<g id="Node000004" class="node">
<title>Node4</title>
<g id="a_Node000004"><a xlink:title=" ">
<polygon fill="white" stroke="#bfbfbf" points="225,-291 160,-291 160,-272 225,-272 225,-291"/>
<text text-anchor="middle" x="192.5" y="-279" font-family="Helvetica,sans-Serif" font-size="10.00">_ExifMem</text>
</a>
</g>
</g>
<!-- Node4&#45;&gt;Node3 -->
<g id="edge4_Node000003_Node000004" class="edge">
<title>Node4&#45;&gt;Node3</title>
<g id="a_edge4_Node000003_Node000004"><a xlink:title=" ">
<path fill="none" stroke="#9a32cd" stroke-dasharray="5,2" d="M148.28,-275.33C119.14,-271.07 84.42,-264.07 73.5,-254 54.6,-236.56 51.08,-203.97 50.53,-188.32"/>
<polygon fill="#9a32cd" stroke="#9a32cd" points="147.63,-278.77 158.02,-276.68 148.59,-271.84 147.63,-278.77"/>
</a>
</g>
<text text-anchor="middle" x="88" y="-246" font-family="Helvetica,sans-Serif" font-size="10.00" fill="grey"> mem</text>
</g>
<!-- Node6 -->
<g id="Node000006" class="node">
<title>Node6</title>
<g id="a_Node000006"><a xlink:title=" ">
<polygon fill="white" stroke="#bfbfbf" points="367.5,-85 269.5,-85 269.5,-66 367.5,-66 367.5,-85"/>
<text text-anchor="middle" x="318.5" y="-73" font-family="Helvetica,sans-Serif" font-size="10.00">_ExifDataPrivate</text>
</a>
</g>
</g>
<!-- Node4&#45;&gt;Node6 -->
<g id="edge16_Node000006_Node000004" class="edge">
<title>Node4&#45;&gt;Node6</title>
<g id="a_edge16_Node000006_Node000004"><a xlink:title=" ">
<path fill="none" stroke="#9a32cd" stroke-dasharray="5,2" d="M236.5,-278.83C315.52,-275.54 478.36,-267.36 533.5,-254 565.83,-246.17 584.09,-252.71 602.5,-225 662.85,-134.17 464.31,-95.38 367.93,-82.18"/>
<polygon fill="#9a32cd" stroke="#9a32cd" points="236.84,-275.31 226.99,-279.22 237.12,-282.31 236.84,-275.31"/>
</a>
</g>
<text text-anchor="middle" x="627" y="-176" font-family="Helvetica,sans-Serif" font-size="10.00" fill="grey"> mem</text>
</g>
<!-- Node7 -->
<g id="Node000007" class="node">
<title>Node7</title>
<g id="a_Node000007"><a xlink:href="struct__ExifMnoteData.html" target="_top" xlink:title=" ">
<polygon fill="white" stroke="#bfbfbf" points="387,-151 292,-151 292,-132 387,-132 387,-151"/>
<text text-anchor="middle" x="339.5" y="-139" font-family="Helvetica,sans-Serif" font-size="10.00">_ExifMnoteData</text>
</a>
</g>
</g>
<!-- Node4&#45;&gt;Node7 -->
<g id="edge14_Node000007_Node000004" class="edge">
<title>Node4&#45;&gt;Node7</title>
<g id="a_edge14_Node000007_Node000004"><a xlink:title=" ">
<path fill="none" stroke="#9a32cd" stroke-dasharray="5,2" d="M236.6,-280.69C325.05,-280.04 519.16,-273.04 560.5,-225 610.99,-166.33 466.47,-149.32 387.36,-144.44"/>
<polygon fill="#9a32cd" stroke="#9a32cd" points="236.85,-277.19 226.87,-280.74 236.88,-284.19 236.85,-277.19"/>
</a>
</g>
<text text-anchor="middle" x="584" y="-213" font-family="Helvetica,sans-Serif" font-size="10.00" fill="grey"> mem</text>
</g>
<!-- Node10 -->
<g id="Node000010" class="node">
<title>Node10</title>
<g id="a_Node000010"><a xlink:title=" ">
<polygon fill="white" stroke="#bfbfbf" points="221.5,-225 163.5,-225 163.5,-206 221.5,-206 221.5,-225"/>
<text text-anchor="middle" x="192.5" y="-213" font-family="Helvetica,sans-Serif" font-size="10.00">_ExifLog</text>
</a>
</g>
</g>
<!-- Node4&#45;&gt;Node10 -->
<g id="edge13_Node000010_Node000004" class="edge">
<title>Node4&#45;&gt;Node10</title>
<g id="a_edge13_Node000010_Node000004"><a xlink:title=" ">
<path fill="none" stroke="#9a32cd" stroke-dasharray="5,2" d="M192.5,-260.18C192.5,-248.44 192.5,-234.27 192.5,-225.32"/>
<polygon fill="#9a32cd" stroke="#9a32cd" points="189,-260.09 192.5,-270.09 196,-260.09 189,-260.09"/>
</a>
</g>
<text text-anchor="middle" x="207" y="-246" font-family="Helvetica,sans-Serif" font-size="10.00" fill="grey"> mem</text>
</g>
<!-- Node11 -->
<g id="Node000011" class="node">
<title>Node11</title>
<g id="a_Node000011"><a xlink:title=" ">
<polygon fill="white" stroke="#bfbfbf" points="215,-151 102,-151 102,-132 215,-132 215,-151"/>
<text text-anchor="middle" x="158.5" y="-139" font-family="Helvetica,sans-Serif" font-size="10.00">_ExifContentPrivate</text>
</a>
</g>
</g>
<!-- Node4&#45;&gt;Node11 -->
<g id="edge18_Node000011_Node000004" class="edge">
<title>Node4&#45;&gt;Node11</title>
<g id="a_edge18_Node000011_Node000004"><a xlink:title=" ">
<path fill="none" stroke="#9a32cd" stroke-dasharray="5,2" d="M165.02,-265.77C150.36,-256.28 133.7,-242.44 125.5,-225 113.16,-198.75 136.74,-166.56 150.14,-151.32"/>
<polygon fill="#9a32cd" stroke="#9a32cd" points="163.06,-268.68 173.42,-270.86 166.68,-262.69 163.06,-268.68"/>
</a>
</g>
<text text-anchor="middle" x="140" y="-213" font-family="Helvetica,sans-Serif" font-size="10.00" fill="grey"> mem</text>
</g>
<!-- Node5&#45;&gt;Node1 -->
<g id="edge5_Node000001_Node000005" class="edge">
<title>Node5&#45;&gt;Node1</title>
<g id="a_edge5_Node000001_Node000005"><a xlink:title=" ">
<path fill="none" stroke="#9a32cd" stroke-dasharray="5,2" d="M233.16,-24.11C224.94,-27.95 216.25,-32.36 208.5,-37 193.98,-45.69 178.59,-57.72 168.78,-65.78"/>
<polygon fill="#9a32cd" stroke="#9a32cd" points="234.52,-27.34 242.19,-20.04 231.64,-20.96 234.52,-27.34"/>
</a>
</g>
<text text-anchor="middle" x="226" y="-40" font-family="Helvetica,sans-Serif" font-size="10.00" fill="grey"> parent</text>
</g>
<!-- Node6&#45;&gt;Node5 -->
<g id="edge7_Node000005_Node000006" class="edge">
<title>Node6&#45;&gt;Node5</title>
<g id="a_edge7_Node000005_Node000006"><a xlink:title=" ">
<path fill="none" stroke="#9a32cd" stroke-dasharray="5,2" d="M303.81,-56.76C293.72,-44.58 280.77,-28.94 272.81,-19.32"/>
<polygon fill="#9a32cd" stroke="#9a32cd" points="301.09,-58.97 310.17,-64.44 306.48,-54.5 301.09,-58.97"/>
</a>
</g>
<text text-anchor="middle" x="305.5" y="-40" font-family="Helvetica,sans-Serif" font-size="10.00" fill="grey"> priv</text>
</g>
<!-- Node7&#45;&gt;Node6 -->
<g id="edge8_Node000006_Node000007" class="edge">
<title>Node7&#45;&gt;Node6</title>
<g id="a_edge8_Node000006_Node000007"><a xlink:title=" ">
<path fill="none" stroke="#9a32cd" stroke-dasharray="5,2" d="M333.08,-120.93C329.18,-109.05 324.39,-94.46 321.4,-85.32"/>
<polygon fill="#9a32cd" stroke="#9a32cd" points="329.66,-121.75 336.11,-130.16 336.32,-119.57 329.66,-121.75"/>
</a>
</g>
<text text-anchor="middle" x="339" y="-106" font-family="Helvetica,sans-Serif" font-size="10.00" fill="grey"> md</text>
</g>
<!-- Node8 -->
<g id="Node000008" class="node">
<title>Node8</title>
<g id="a_Node000008"><a xlink:title=" ">
<polygon fill="white" stroke="#bfbfbf" points="396,-225 283,-225 283,-206 396,-206 396,-225"/>
<text text-anchor="middle" x="339.5" y="-213" font-family="Helvetica,sans-Serif" font-size="10.00">_ExifMnoteDataPriv</text>
</a>
</g>
</g>
<!-- Node8&#45;&gt;Node7 -->
<g id="edge9_Node000007_Node000008" class="edge">
<title>Node8&#45;&gt;Node7</title>
<g id="a_edge9_Node000007_Node000008"><a xlink:title=" ">
<path fill="none" stroke="#9a32cd" stroke-dasharray="5,2" d="M339.5,-194.18C339.5,-180.09 339.5,-162.01 339.5,-151.4"/>
<polygon fill="#9a32cd" stroke="#9a32cd" points="336,-194.16 339.5,-204.16 343,-194.16 336,-194.16"/>
</a>
</g>
<text text-anchor="middle" x="350.5" y="-176" font-family="Helvetica,sans-Serif" font-size="10.00" fill="grey"> priv</text>
</g>
<!-- Node9 -->
<g id="Node000009" class="node">
<title>Node9</title>
<g id="a_Node000009"><a xlink:href="struct__ExifMnoteDataMethods.html" target="_top" xlink:title=" ">
<polygon fill="white" stroke="#bfbfbf" points="551,-225 414,-225 414,-206 551,-206 551,-225"/>
<text text-anchor="middle" x="482.5" y="-213" font-family="Helvetica,sans-Serif" font-size="10.00">_ExifMnoteDataMethods</text>
</a>
</g>
</g>
<!-- Node9&#45;&gt;Node7 -->
<g id="edge10_Node000007_Node000009" class="edge">
<title>Node9&#45;&gt;Node7</title>
<g id="a_edge10_Node000007_Node000009"><a xlink:title=" ">
<path fill="none" stroke="#9a32cd" stroke-dasharray="5,2" d="M454.42,-200.36C425.53,-185.82 381.41,-163.6 357.1,-151.36"/>
<polygon fill="#9a32cd" stroke="#9a32cd" points="452.82,-203.48 463.33,-204.85 455.97,-197.22 452.82,-203.48"/>
</a>
</g>
<text text-anchor="middle" x="450.5" y="-176" font-family="Helvetica,sans-Serif" font-size="10.00" fill="grey"> methods</text>
</g>
<!-- Node10&#45;&gt;Node6 -->
<g id="edge15_Node000006_Node000010" class="edge">
<title>Node10&#45;&gt;Node6</title>
<g id="a_edge15_Node000006_Node000010"><a xlink:title=" ">
<path fill="none" stroke="#9a32cd" stroke-dasharray="5,2" d="M207.36,-196.93C221.73,-180.06 244.25,-153.97 264.5,-132 279.99,-115.19 298.72,-96.23 309.56,-85.39"/>
<polygon fill="#9a32cd" stroke="#9a32cd" points="204.7,-194.65 200.89,-204.54 210.03,-199.18 204.7,-194.65"/>
</a>
</g>
<text text-anchor="middle" x="274" y="-139" font-family="Helvetica,sans-Serif" font-size="10.00" fill="grey"> log</text>
</g>
<!-- Node10&#45;&gt;Node7 -->
<g id="edge11_Node000007_Node000010" class="edge">
<title>Node10&#45;&gt;Node7</title>
<g id="a_edge11_Node000007_Node000010"><a xlink:title=" ">
<path fill="none" stroke="#9a32cd" stroke-dasharray="5,2" d="M232.7,-201.86C243.84,-197.89 255.81,-193.17 266.5,-188 288.82,-177.2 312.88,-161.28 327.05,-151.41"/>
<polygon fill="#9a32cd" stroke="#9a32cd" points="231.65,-198.52 223.33,-205.09 233.93,-205.14 231.65,-198.52"/>
</a>
</g>
<text text-anchor="middle" x="308" y="-176" font-family="Helvetica,sans-Serif" font-size="10.00" fill="grey"> log</text>
</g>
<!-- Node10&#45;&gt;Node10 -->
<g id="edge12_Node000010_Node000010" class="edge">
<title>Node10&#45;&gt;Node10</title>
<g id="a_edge12_Node000010_Node000010"><a xlink:title=" ">
<path fill="none" stroke="#9a32cd" stroke-dasharray="5,2" d="M233.11,-220.5C237.02,-219.49 239.5,-217.82 239.5,-215.5 239.5,-211.38 231.67,-209.31 221.88,-209.31"/>
<polygon fill="#9a32cd" stroke="#9a32cd" points="232.96,-217 223.38,-221.53 233.69,-223.96 232.96,-217"/>
</a>
</g>
<text text-anchor="middle" x="252" y="-213" font-family="Helvetica,sans-Serif" font-size="10.00" fill="grey"> func</text>
</g>
<!-- Node10&#45;&gt;Node11 -->
<g id="edge19_Node000011_Node000010" class="edge">
<title>Node10&#45;&gt;Node11</title>
<g id="a_edge19_Node000011_Node000010"><a xlink:title=" ">
<path fill="none" stroke="#9a32cd" stroke-dasharray="5,2" d="M183.51,-195.46C176.78,-181.2 167.87,-162.34 162.7,-151.4"/>
<polygon fill="#9a32cd" stroke="#9a32cd" points="180.25,-196.75 187.68,-204.3 186.58,-193.77 180.25,-196.75"/>
</a>
</g>
<text text-anchor="middle" x="189" y="-176" font-family="Helvetica,sans-Serif" font-size="10.00" fill="grey"> log</text>
</g>
<!-- Node11&#45;&gt;Node1 -->
<g id="edge17_Node000001_Node000011" class="edge">
<title>Node11&#45;&gt;Node1</title>
<g id="a_edge17_Node000001_Node000011"><a xlink:title=" ">
<path fill="none" stroke="#9a32cd" stroke-dasharray="5,2" d="M158.5,-120.18C158.5,-108.44 158.5,-94.27 158.5,-85.32"/>
<polygon fill="#9a32cd" stroke="#9a32cd" points="155,-120.09 158.5,-130.09 162,-120.09 155,-120.09"/>
</a>
</g>
<text text-anchor="middle" x="169.5" y="-106" font-family="Helvetica,sans-Serif" font-size="10.00" fill="grey"> priv</text>
</g>
</g>
</svg>
