<?xml version="1.0" encoding="UTF-8" standalone="no"?>
<!DOCTYPE svg PUBLIC "-//W3C//DTD SVG 1.1//EN"
 "http://www.w3.org/Graphics/SVG/1.1/DTD/svg11.dtd">
<!-- Generated by graphviz version 7.0.1 (0)
 -->
<!-- Title: _ExifData Pages: 1 -->
<svg width="683pt" height="431pt"
 viewBox="0.00 0.00 683.00 431.00" xmlns="http://www.w3.org/2000/svg" xmlns:xlink="http://www.w3.org/1999/xlink">
<g id="graph0" class="graph" transform="scale(1 1) rotate(0) translate(4 427)">
<title>_ExifData</title>
<!-- Node1 -->
<g id="Node000001" class="node">
<title>Node1</title>
<g id="a_Node000001"><a xlink:title="Represents the entire EXIF data found in an image.">
<polygon fill="#999999" stroke="#666666" points="428.5,-151 364.5,-151 364.5,-132 428.5,-132 428.5,-151"/>
<text text-anchor="middle" x="396.5" y="-139" font-family="Helvetica,sans-Serif" font-size="10.00">_ExifData</text>
</a>
</g>
</g>
<!-- Node2 -->
<g id="Node000002" class="node">
<title>Node2</title>
<g id="a_Node000002"><a xlink:href="struct__ExifContent.html" target="_top" xlink:title=" ">
<polygon fill="white" stroke="#bfbfbf" points="436,-85 357,-85 357,-66 436,-66 436,-85"/>
<text text-anchor="middle" x="396.5" y="-73" font-family="Helvetica,sans-Serif" font-size="10.00">_ExifContent</text>
</a>
</g>
</g>
<!-- Node1&#45;&gt;Node2 -->
<g id="edge6_Node000002_Node000001" class="edge">
<title>Node1&#45;&gt;Node2</title>
<g id="a_edge6_Node000002_Node000001"><a xlink:title=" ">
<path fill="none" stroke="#9a32cd" stroke-dasharray="5,2" d="M372.11,-124.49C369.03,-121.39 366.33,-117.88 364.5,-114 359.26,-102.85 370.04,-92.38 380.47,-85.35"/>
<polygon fill="#9a32cd" stroke="#9a32cd" points="369.69,-127.04 379.62,-130.75 374.17,-121.66 369.69,-127.04"/>
</a>
</g>
<text text-anchor="middle" x="382" y="-106" font-family="Helvetica,sans-Serif" font-size="10.00" fill="grey"> parent</text>
</g>
<!-- Node2&#45;&gt;Node1 -->
<g id="edge1_Node000001_Node000002" class="edge">
<title>Node2&#45;&gt;Node1</title>
<g id="a_edge1_Node000001_Node000002"><a xlink:title=" ">
<path fill="none" stroke="#9a32cd" stroke-dasharray="5,2" d="M402.6,-96.53C403.67,-102.16 404.24,-108.3 403.5,-114 402.72,-120.04 400.97,-126.67 399.41,-131.78"/>
<polygon fill="#9a32cd" stroke="#9a32cd" points="406,-95.69 400.14,-86.86 399.22,-97.42 406,-95.69"/>
</a>
</g>
<text text-anchor="middle" x="412.5" y="-106" font-family="Helvetica,sans-Serif" font-size="10.00" fill="grey"> ifd</text>
</g>
<!-- Node3 -->
<g id="Node000003" class="node">
<title>Node3</title>
<g id="a_Node000003"><a xlink:href="struct__ExifEntry.html" target="_top" xlink:title="Data found in one EXIF tag.">
<polygon fill="white" stroke="#666666" points="369.5,-19 303.5,-19 303.5,0 369.5,0 369.5,-19"/>
<text text-anchor="middle" x="336.5" y="-7" font-family="Helvetica,sans-Serif" font-size="10.00">_ExifEntry</text>
</a>
</g>
</g>
<!-- Node2&#45;&gt;Node3 -->
<g id="edge3_Node000003_Node000002" class="edge">
<title>Node2&#45;&gt;Node3</title>
<g id="a_edge3_Node000003_Node000002"><a xlink:title=" ">
<path fill="none" stroke="#9a32cd" stroke-dasharray="5,2" d="M387.65,-55.86C384.1,-49.47 379.62,-42.54 374.5,-37 368.17,-30.15 359.77,-24.07 352.48,-19.46"/>
<polygon fill="#9a32cd" stroke="#9a32cd" points="384.36,-57.1 392.02,-64.41 390.59,-53.92 384.36,-57.1"/>
</a>
</g>
<text text-anchor="middle" x="400" y="-40" font-family="Helvetica,sans-Serif" font-size="10.00" fill="grey"> parent</text>
</g>
<!-- Node3&#45;&gt;Node2 -->
<g id="edge2_Node000002_Node000003" class="edge">
<title>Node3&#45;&gt;Node2</title>
<g id="a_edge2_Node000002_Node000003"><a xlink:title=" ">
<path fill="none" stroke="#9a32cd" stroke-dasharray="5,2" d="M333.12,-30.69C333.1,-36.68 334.16,-42.98 337.5,-48 342.85,-56.04 351.27,-61.66 360.08,-65.59"/>
<polygon fill="#9a32cd" stroke="#9a32cd" points="336.59,-31.13 334.11,-20.83 329.62,-30.43 336.59,-31.13"/>
</a>
</g>
<text text-anchor="middle" x="356" y="-40" font-family="Helvetica,sans-Serif" font-size="10.00" fill="grey"> entries</text>
</g>
<!-- Node4 -->
<g id="Node000004" class="node">
<title>Node4</title>
<g id="a_Node000004"><a xlink:title=" ">
<polygon fill="white" stroke="#bfbfbf" points="101,-320 0,-320 0,-301 101,-301 101,-320"/>
<text text-anchor="middle" x="50.5" y="-308" font-family="Helvetica,sans-Serif" font-size="10.00">_ExifEntryPrivate</text>
</a>
</g>
</g>
<!-- Node4&#45;&gt;Node3 -->
<g id="edge4_Node000003_Node000004" class="edge">
<title>Node4&#45;&gt;Node3</title>
<g id="a_edge4_Node000003_Node000004"><a xlink:title=" ">
<path fill="none" stroke="#9a32cd" stroke-dasharray="5,2" d="M58.47,-290.16C63.28,-276.75 68.5,-258.33 68.5,-241.5 68.5,-241.5 68.5,-241.5 68.5,-74.5 68.5,-26.78 231.26,-14.57 303.1,-11.5"/>
<polygon fill="#9a32cd" stroke="#9a32cd" points="55.21,-288.89 54.86,-299.48 61.74,-291.42 55.21,-288.89"/>
</a>
</g>
<text text-anchor="middle" x="79.5" y="-172" font-family="Helvetica,sans-Serif" font-size="10.00" fill="grey"> priv</text>
</g>
<!-- Node5 -->
<g id="Node000005" class="node">
<title>Node5</title>
<g id="a_Node000005"><a xlink:title=" ">
<polygon fill="white" stroke="#bfbfbf" points="490,-423 425,-423 425,-404 490,-404 490,-423"/>
<text text-anchor="middle" x="457.5" y="-411" font-family="Helvetica,sans-Serif" font-size="10.00">_ExifMem</text>
</a>
</g>
</g>
<!-- Node5&#45;&gt;Node4 -->
<g id="edge5_Node000004_Node000005" class="edge">
<title>Node5&#45;&gt;Node4</title>
<g id="a_edge5_Node000004_Node000005"><a xlink:title=" ">
<path fill="none" stroke="#9a32cd" stroke-dasharray="5,2" d="M413.46,-411.96C319.94,-410.46 107.9,-404.98 81.5,-386 59.78,-370.38 53.21,-336.6 51.28,-320.45"/>
<polygon fill="#9a32cd" stroke="#9a32cd" points="413.22,-415.46 423.27,-412.11 413.32,-408.46 413.22,-415.46"/>
</a>
</g>
<text text-anchor="middle" x="96" y="-378" font-family="Helvetica,sans-Serif" font-size="10.00" fill="grey"> mem</text>
</g>
<!-- Node6 -->
<g id="Node000006" class="node">
<title>Node6</title>
<g id="a_Node000006"><a xlink:title=" ">
<polygon fill="white" stroke="#bfbfbf" points="675,-283 562,-283 562,-264 675,-264 675,-283"/>
<text text-anchor="middle" x="618.5" y="-271" font-family="Helvetica,sans-Serif" font-size="10.00">_ExifContentPrivate</text>
</a>
</g>
</g>
<!-- Node5&#45;&gt;Node6 -->
<g id="edge8_Node000006_Node000005" class="edge">
<title>Node5&#45;&gt;Node6</title>
<g id="a_edge8_Node000006_Node000005"><a xlink:title=" ">
<path fill="none" stroke="#9a32cd" stroke-dasharray="5,2" d="M501.81,-409.84C538.41,-405.06 588.42,-392.06 614.5,-357 630.93,-334.91 624.97,-299.55 620.96,-283.25"/>
<polygon fill="#9a32cd" stroke="#9a32cd" points="501.5,-406.35 491.96,-410.95 502.29,-413.31 501.5,-406.35"/>
</a>
</g>
<text text-anchor="middle" x="637" y="-345" font-family="Helvetica,sans-Serif" font-size="10.00" fill="grey"> mem</text>
</g>
<!-- Node7 -->
<g id="Node000007" class="node">
<title>Node7</title>
<g id="a_Node000007"><a xlink:title=" ">
<polygon fill="white" stroke="#bfbfbf" points="562.5,-357 504.5,-357 504.5,-338 562.5,-338 562.5,-357"/>
<text text-anchor="middle" x="533.5" y="-345" font-family="Helvetica,sans-Serif" font-size="10.00">_ExifLog</text>
</a>
</g>
</g>
<!-- Node5&#45;&gt;Node7 -->
<g id="edge11_Node000007_Node000005" class="edge">
<title>Node5&#45;&gt;Node7</title>
<g id="a_edge11_Node000007_Node000005"><a xlink:title=" ">
<path fill="none" stroke="#9a32cd" stroke-dasharray="5,2" d="M476.87,-396.19C491.55,-383.83 511.15,-367.32 523.02,-357.32"/>
<polygon fill="#9a32cd" stroke="#9a32cd" points="474.62,-393.51 469.23,-402.63 479.13,-398.86 474.62,-393.51"/>
</a>
</g>
<text text-anchor="middle" x="514" y="-378" font-family="Helvetica,sans-Serif" font-size="10.00" fill="grey"> mem</text>
</g>
<!-- Node8 -->
<g id="Node000008" class="node">
<title>Node8</title>
<g id="a_Node000008"><a xlink:title=" ">
<polygon fill="white" stroke="#bfbfbf" points="445.5,-217 347.5,-217 347.5,-198 445.5,-198 445.5,-217"/>
<text text-anchor="middle" x="396.5" y="-205" font-family="Helvetica,sans-Serif" font-size="10.00">_ExifDataPrivate</text>
</a>
</g>
</g>
<!-- Node5&#45;&gt;Node8 -->
<g id="edge19_Node000008_Node000005" class="edge">
<title>Node5&#45;&gt;Node8</title>
<g id="a_edge19_Node000008_Node000005"><a xlink:title=" ">
<path fill="none" stroke="#9a32cd" stroke-dasharray="5,2" d="M413.27,-411.4C335.06,-408.43 177.42,-397.44 143.5,-357 80.17,-281.49 257.12,-235.29 347.3,-217.23"/>
<polygon fill="#9a32cd" stroke="#9a32cd" points="413.02,-414.9 423.14,-411.75 413.27,-407.9 413.02,-414.9"/>
</a>
</g>
<text text-anchor="middle" x="154" y="-308" font-family="Helvetica,sans-Serif" font-size="10.00" fill="grey"> mem</text>
</g>
<!-- Node9 -->
<g id="Node000009" class="node">
<title>Node9</title>
<g id="a_Node000009"><a xlink:href="struct__ExifMnoteData.html" target="_top" xlink:title=" ">
<polygon fill="white" stroke="#bfbfbf" points="444,-283 349,-283 349,-264 444,-264 444,-283"/>
<text text-anchor="middle" x="396.5" y="-271" font-family="Helvetica,sans-Serif" font-size="10.00">_ExifMnoteData</text>
</a>
</g>
</g>
<!-- Node5&#45;&gt;Node9 -->
<g id="edge17_Node000009_Node000005" class="edge">
<title>Node5&#45;&gt;Node9</title>
<g id="a_edge17_Node000009_Node000005"><a xlink:title=" ">
<path fill="none" stroke="#9a32cd" stroke-dasharray="5,2" d="M456.58,-392.31C454.66,-368.7 448.73,-329.24 430.5,-301 425.87,-293.83 418.63,-287.79 412.01,-283.3"/>
<polygon fill="#9a32cd" stroke="#9a32cd" points="453.08,-392.36 457.2,-402.12 460.06,-391.92 453.08,-392.36"/>
</a>
</g>
<text text-anchor="middle" x="465" y="-345" font-family="Helvetica,sans-Serif" font-size="10.00" fill="grey"> mem</text>
</g>
<!-- Node6&#45;&gt;Node2 -->
<g id="edge7_Node000002_Node000006" class="edge">
<title>Node6&#45;&gt;Node2</title>
<g id="a_edge7_Node000002_Node000006"><a xlink:title=" ">
<path fill="none" stroke="#9a32cd" stroke-dasharray="5,2" d="M599.87,-256.05C554.85,-216.3 441.29,-116.05 406.68,-85.48"/>
<polygon fill="#9a32cd" stroke="#9a32cd" points="597.44,-258.57 607.25,-262.57 602.07,-253.33 597.44,-258.57"/>
</a>
</g>
<text text-anchor="middle" x="523.5" y="-172" font-family="Helvetica,sans-Serif" font-size="10.00" fill="grey"> priv</text>
</g>
<!-- Node7&#45;&gt;Node6 -->
<g id="edge9_Node000006_Node000007" class="edge">
<title>Node7&#45;&gt;Node6</title>
<g id="a_edge9_Node000006_Node000007"><a xlink:title=" ">
<path fill="none" stroke="#9a32cd" stroke-dasharray="5,2" d="M552.56,-330.36C569.68,-315.85 594.18,-295.1 607.99,-283.4"/>
<polygon fill="#9a32cd" stroke="#9a32cd" points="550.45,-327.56 545.08,-336.69 554.97,-332.9 550.45,-327.56"/>
</a>
</g>
<text text-anchor="middle" x="595" y="-308" font-family="Helvetica,sans-Serif" font-size="10.00" fill="grey"> log</text>
</g>
<!-- Node7&#45;&gt;Node7 -->
<g id="edge10_Node000007_Node000007" class="edge">
<title>Node7&#45;&gt;Node7</title>
<g id="a_edge10_Node000007_Node000007"><a xlink:title=" ">
<path fill="none" stroke="#9a32cd" stroke-dasharray="5,2" d="M574.11,-352.5C578.02,-351.49 580.5,-349.82 580.5,-347.5 580.5,-343.38 572.67,-341.31 562.88,-341.31"/>
<polygon fill="#9a32cd" stroke="#9a32cd" points="573.96,-349 564.38,-353.53 574.69,-355.96 573.96,-349"/>
</a>
</g>
<text text-anchor="middle" x="593" y="-345" font-family="Helvetica,sans-Serif" font-size="10.00" fill="grey"> func</text>
</g>
<!-- Node7&#45;&gt;Node8 -->
<g id="edge18_Node000008_Node000007" class="edge">
<title>Node7&#45;&gt;Node8</title>
<g id="a_edge18_Node000008_Node000007"><a xlink:title=" ">
<path fill="none" stroke="#9a32cd" stroke-dasharray="5,2" d="M525.98,-327.31C522.1,-318.76 516.84,-308.86 510.5,-301 480.9,-264.29 434.55,-232.33 411.11,-217.43"/>
<polygon fill="#9a32cd" stroke="#9a32cd" points="522.71,-328.56 529.8,-336.43 529.16,-325.85 522.71,-328.56"/>
</a>
</g>
<text text-anchor="middle" x="503" y="-271" font-family="Helvetica,sans-Serif" font-size="10.00" fill="grey"> log</text>
</g>
<!-- Node7&#45;&gt;Node9 -->
<g id="edge16_Node000009_Node000007" class="edge">
<title>Node7&#45;&gt;Node9</title>
<g id="a_edge16_Node000009_Node000007"><a xlink:title=" ">
<path fill="none" stroke="#9a32cd" stroke-dasharray="5,2" d="M509.04,-331.8C503.2,-328.09 497.05,-324.02 491.5,-320 480.76,-312.22 480,-307.61 468.5,-301 455.8,-293.7 440.72,-287.78 427.65,-283.4"/>
<polygon fill="#9a32cd" stroke="#9a32cd" points="506.8,-334.53 517.14,-336.83 510.49,-328.58 506.8,-334.53"/>
</a>
</g>
<text text-anchor="middle" x="501" y="-308" font-family="Helvetica,sans-Serif" font-size="10.00" fill="grey"> log</text>
</g>
<!-- Node8&#45;&gt;Node1 -->
<g id="edge12_Node000001_Node000008" class="edge">
<title>Node8&#45;&gt;Node1</title>
<g id="a_edge12_Node000001_Node000008"><a xlink:title=" ">
<path fill="none" stroke="#9a32cd" stroke-dasharray="5,2" d="M396.5,-186.18C396.5,-174.44 396.5,-160.27 396.5,-151.32"/>
<polygon fill="#9a32cd" stroke="#9a32cd" points="393,-186.09 396.5,-196.09 400,-186.09 393,-186.09"/>
</a>
</g>
<text text-anchor="middle" x="407.5" y="-172" font-family="Helvetica,sans-Serif" font-size="10.00" fill="grey"> priv</text>
</g>
<!-- Node9&#45;&gt;Node8 -->
<g id="edge13_Node000008_Node000009" class="edge">
<title>Node9&#45;&gt;Node8</title>
<g id="a_edge13_Node000008_Node000009"><a xlink:title=" ">
<path fill="none" stroke="#9a32cd" stroke-dasharray="5,2" d="M396.5,-252.18C396.5,-240.44 396.5,-226.27 396.5,-217.32"/>
<polygon fill="#9a32cd" stroke="#9a32cd" points="393,-252.09 396.5,-262.09 400,-252.09 393,-252.09"/>
</a>
</g>
<text text-anchor="middle" x="406" y="-238" font-family="Helvetica,sans-Serif" font-size="10.00" fill="grey"> md</text>
</g>
<!-- Node10 -->
<g id="Node000010" class="node">
<title>Node10</title>
<g id="a_Node000010"><a xlink:title=" ">
<polygon fill="white" stroke="#bfbfbf" points="266,-357 153,-357 153,-338 266,-338 266,-357"/>
<text text-anchor="middle" x="209.5" y="-345" font-family="Helvetica,sans-Serif" font-size="10.00">_ExifMnoteDataPriv</text>
</a>
</g>
</g>
<!-- Node10&#45;&gt;Node9 -->
<g id="edge14_Node000009_Node000010" class="edge">
<title>Node10&#45;&gt;Node9</title>
<g id="a_edge14_Node000009_Node000010"><a xlink:title=" ">
<path fill="none" stroke="#9a32cd" stroke-dasharray="5,2" d="M243.23,-333.51C280.79,-319.05 340.49,-296.06 373.2,-283.47"/>
<polygon fill="#9a32cd" stroke="#9a32cd" points="242.29,-330.12 234.22,-336.98 244.81,-336.66 242.29,-330.12"/>
</a>
</g>
<text text-anchor="middle" x="336.5" y="-308" font-family="Helvetica,sans-Serif" font-size="10.00" fill="grey"> priv</text>
</g>
<!-- Node11 -->
<g id="Node000011" class="node">
<title>Node11</title>
<g id="a_Node000011"><a xlink:href="struct__ExifMnoteDataMethods.html" target="_top" xlink:title=" ">
<polygon fill="white" stroke="#bfbfbf" points="421,-357 284,-357 284,-338 421,-338 421,-357"/>
<text text-anchor="middle" x="352.5" y="-345" font-family="Helvetica,sans-Serif" font-size="10.00">_ExifMnoteDataMethods</text>
</a>
</g>
</g>
<!-- Node11&#45;&gt;Node9 -->
<g id="edge15_Node000009_Node000011" class="edge">
<title>Node11&#45;&gt;Node9</title>
<g id="a_edge15_Node000009_Node000011"><a xlink:title=" ">
<path fill="none" stroke="#9a32cd" stroke-dasharray="5,2" d="M363.88,-327.88C372.62,-313.58 384.31,-294.45 391.06,-283.4"/>
<polygon fill="#9a32cd" stroke="#9a32cd" points="360.91,-326.02 358.68,-336.38 366.89,-329.67 360.91,-326.02"/>
</a>
</g>
<text text-anchor="middle" x="403.5" y="-308" font-family="Helvetica,sans-Serif" font-size="10.00" fill="grey"> methods</text>
</g>
</g>
</svg>
